M48
; DRILL file {KiCad (6.0.5)} date Sun May 29 20:36:08 2022
; FORMAT={-:-/ absolute / metric / decimal}
; #@! TF.CreationDate,2022-05-29T20:36:08-04:00
; #@! TF.GenerationSoftware,Kicad,Pcbnew,(6.0.5)
; #@! TF.FileFunction,Plated,1,2,PTH
FMAT,2
METRIC
; #@! TA.AperFunction,Plated,PTH,ViaDrill
T1C0.400
; #@! TA.AperFunction,Plated,PTH,ComponentDrill
T2C0.710
; #@! TA.AperFunction,Plated,PTH,ComponentDrill
T3C0.760
; #@! TA.AperFunction,Plated,PTH,ComponentDrill
T4C0.762
; #@! TA.AperFunction,Plated,PTH,ComponentDrill
T5C0.787
; #@! TA.AperFunction,Plated,PTH,ComponentDrill
T6C0.800
; #@! TA.AperFunction,Plated,PTH,ComponentDrill
T7C0.900
; #@! TA.AperFunction,Plated,PTH,ComponentDrill
T8C0.950
; #@! TA.AperFunction,Plated,PTH,ComponentDrill
T9C1.000
; #@! TA.AperFunction,Plated,PTH,ComponentDrill
T10C1.016
; #@! TA.AperFunction,Plated,PTH,ComponentDrill
T11C1.100
; #@! TA.AperFunction,Plated,PTH,ComponentDrill
T12C1.200
; #@! TA.AperFunction,Plated,PTH,ComponentDrill
T13C1.300
; #@! TA.AperFunction,Plated,PTH,ComponentDrill
T14C1.400
; #@! TA.AperFunction,Plated,PTH,ComponentDrill
T15C1.600
; #@! TA.AperFunction,Plated,PTH,ComponentDrill
T16C1.650
; #@! TA.AperFunction,Plated,PTH,ComponentDrill
T17C1.700
%
G90
G05
T1
X71.551Y-107.468
X71.551Y-129.218
X73.851Y-76.918
X73.901Y-82.168
X74.051Y-62.218
X74.301Y-104.718
X75.301Y-113.968
X75.551Y-125.718
X75.551Y-133.718
X75.801Y-101.468
X79.051Y-105.218
X79.801Y-108.468
X80.551Y-138.218
X81.001Y-81.068
X82.801Y-131.968
X82.801Y-133.968
X82.801Y-138.218
X83.301Y-91.468
X83.801Y-135.968
X85.051Y-137.468
X85.151Y-63.218
X87.951Y-100.718
X88.251Y-104.218
X88.301Y-95.418
X91.651Y-109.268
X93.301Y-76.968
X93.301Y-82.218
X94.301Y-100.218
X94.451Y-63.368
X94.601Y-111.168
X98.451Y-114.418
X98.651Y-119.968
X99.801Y-89.968
X99.951Y-96.018
X100.801Y-103.468
X103.301Y-79.818
X106.101Y-105.268
X106.451Y-68.268
X106.551Y-92.718
X109.301Y-93.468
X109.501Y-79.868
X113.251Y-93.468
X117.401Y-89.868
X117.901Y-83.068
X123.351Y-110.668
X125.601Y-68.418
X126.901Y-87.818
X127.251Y-113.768
X127.701Y-91.018
X128.651Y-119.968
X129.151Y-99.868
X133.051Y-90.818
X133.101Y-110.668
X133.551Y-106.818
X134.251Y-74.318
X135.663Y-73.369
X137.101Y-74.868
X137.651Y-103.918
X139.701Y-111.018
X142.151Y-126.168
X142.751Y-121.518
X142.901Y-81.768
X143.051Y-69.618
X143.151Y-113.818
X144.703Y-81.899
X144.793Y-68.399
X146.251Y-69.018
X148.851Y-69.118
X150.351Y-76.868
X151.101Y-60.168
X151.151Y-69.268
X154.201Y-111.168
X155.963Y-79.643
X157.045Y-80.057
X157.801Y-103.818
X157.951Y-112.418
X158.001Y-121.018
X158.569Y-80.589
X158.651Y-77.168
X165.201Y-95.768
X166.333Y-80.799
X167.251Y-110.918
X168.351Y-125.268
X168.883Y-80.749
X169.801Y-60.568
X171.403Y-81.199
X173.301Y-114.718
X173.951Y-59.018
X173.993Y-81.729
X176.523Y-82.299
X180.851Y-74.868
X182.801Y-83.468
X185.731Y-80.618
X186.151Y-56.168
X186.151Y-96.198
X187.051Y-53.768
X187.551Y-120.518
X190.201Y-106.368
X192.801Y-103.618
X193.711Y-76.598
X194.961Y-83.288
X198.641Y-81.478
X198.651Y-109.568
X199.751Y-137.868
X199.83Y-73.2
X202.051Y-135.468
X203.051Y-77.968
X203.251Y-137.768
X203.701Y-111.818
X204.051Y-130.218
X204.051Y-133.218
X204.226Y-105.358
X205.651Y-99.198
X207.341Y-83.208
X209.426Y-101.008
X210.641Y-94.298
X211.376Y-107.408
X212.451Y-111.768
X216.921Y-94.518
X217.026Y-101.808
X217.231Y-82.498
T2
X187.951Y-70.718
X193.051Y-72.318
T3
X76.411Y-88.408
X77.681Y-85.868
X78.951Y-88.408
X80.221Y-85.868
X81.491Y-88.408
X82.761Y-85.868
X84.031Y-88.408
X85.301Y-85.868
X96.261Y-88.408
X97.531Y-85.868
X98.801Y-88.408
X100.071Y-85.868
X101.341Y-88.408
X102.611Y-85.868
X103.881Y-88.408
X105.151Y-85.868
T4
X211.389Y-83.656
X211.389Y-86.351
X211.389Y-89.045
X211.389Y-91.74
X215.199Y-83.888
X215.199Y-86.428
X215.199Y-88.968
X215.199Y-91.508
T5
X108.313Y-98.069
X108.313Y-105.689
X110.853Y-98.069
X110.853Y-105.689
X113.393Y-98.069
X113.393Y-105.689
X115.933Y-98.069
X115.933Y-105.689
X118.473Y-98.069
X118.473Y-105.689
X121.013Y-98.069
X121.013Y-105.689
X123.553Y-98.069
X123.553Y-105.689
X126.093Y-98.069
X126.093Y-105.689
X128.633Y-98.069
X128.633Y-105.689
X131.173Y-98.069
X131.173Y-105.689
X162.563Y-98.069
X162.563Y-105.689
X165.103Y-98.069
X165.103Y-105.689
X167.643Y-98.069
X167.643Y-105.689
X170.183Y-98.069
X170.183Y-105.689
X172.723Y-98.069
X172.723Y-105.689
X175.263Y-98.069
X175.263Y-105.689
X177.803Y-98.069
X177.803Y-105.689
X180.343Y-98.069
X180.343Y-105.689
X182.883Y-98.069
X182.883Y-105.689
X185.423Y-98.069
X185.423Y-105.689
T6
X77.301Y-127.968
X77.301Y-135.588
X85.051Y-91.968
X85.101Y-105.218
X90.101Y-105.218
X90.111Y-94.848
X90.111Y-102.468
X92.651Y-94.848
X92.651Y-102.468
X92.671Y-91.968
X95.191Y-94.848
X95.191Y-102.468
X95.501Y-91.968
X95.561Y-108.814
X97.731Y-94.848
X97.731Y-102.468
X98.102Y-108.814
X100.641Y-108.814
X103.121Y-91.968
X103.181Y-108.814
X105.721Y-108.814
X108.261Y-108.814
X110.801Y-108.814
X113.341Y-108.814
X116.853Y-108.814
X119.393Y-108.814
X121.933Y-108.814
X124.473Y-108.814
X127.013Y-108.814
X129.553Y-108.814
X132.093Y-108.814
X134.633Y-108.814
X135.242Y-99.331
X135.242Y-104.331
X140.541Y-98.978
X148.161Y-98.978
X153.486Y-108.814
X156.026Y-108.814
X158.566Y-108.814
X160.651Y-69.898
X160.651Y-77.518
X161.106Y-108.814
X163.646Y-108.814
X163.751Y-69.898
X163.751Y-77.518
X166.186Y-108.814
X166.931Y-70.018
X166.931Y-77.638
X168.726Y-108.814
X169.471Y-70.018
X169.471Y-77.638
X171.266Y-108.814
X172.011Y-70.018
X172.011Y-77.638
X174.551Y-70.018
X174.551Y-77.638
X174.813Y-108.814
X177.353Y-108.814
X177.551Y-72.618
X177.551Y-77.618
X179.893Y-108.814
X182.433Y-108.814
X184.973Y-108.814
X187.443Y-62.309
X187.443Y-67.309
X187.513Y-108.814
X188.486Y-93.158
X189.382Y-99.305
X189.382Y-104.305
X190.053Y-108.814
X190.486Y-93.158
X190.776Y-62.319
X190.776Y-67.319
X192.593Y-108.814
X211.301Y-127.968
X211.301Y-135.588
T7
X79.72Y-122.704
X79.72Y-125.244
X87.851Y-64.868
X87.851Y-68.168
X90.351Y-64.868
X90.351Y-68.168
X92.851Y-64.868
X92.851Y-68.168
X112.344Y-81.277
X112.344Y-83.777
X112.344Y-86.277
X115.644Y-81.277
X115.644Y-83.777
X115.644Y-86.277
X135.856Y-62.285
X135.856Y-64.825
X135.856Y-87.685
X135.856Y-90.225
X138.396Y-62.285
X138.396Y-64.825
X138.396Y-87.685
X138.396Y-90.225
X140.936Y-62.285
X140.936Y-64.825
X140.936Y-87.685
X140.936Y-90.225
X143.476Y-62.285
X143.476Y-64.825
X143.476Y-87.685
X143.476Y-90.225
X146.016Y-62.285
X146.016Y-64.825
X146.016Y-87.685
X146.016Y-90.225
X148.556Y-62.285
X148.556Y-64.825
X148.556Y-87.685
X148.556Y-90.225
X151.096Y-62.285
X151.096Y-64.825
X151.096Y-87.685
X151.096Y-90.225
X152.196Y-98.998
X153.636Y-62.285
X153.636Y-64.825
X153.636Y-87.685
X153.636Y-90.225
X154.736Y-98.998
X156.176Y-62.285
X156.176Y-64.825
X156.176Y-87.685
X156.176Y-90.225
X158.496Y-53.085
X158.496Y-56.385
X158.716Y-62.285
X158.716Y-64.825
X158.716Y-87.685
X158.716Y-90.225
X160.996Y-53.085
X160.996Y-56.385
X161.256Y-62.285
X161.256Y-64.825
X161.256Y-87.685
X161.256Y-90.225
X163.496Y-53.085
X163.496Y-56.385
X163.796Y-62.285
X163.796Y-64.825
X163.796Y-87.685
X163.796Y-90.225
X166.336Y-62.285
X166.336Y-64.825
X166.336Y-87.685
X166.336Y-90.225
X168.876Y-62.285
X168.876Y-64.825
X168.876Y-87.685
X168.876Y-90.225
X171.416Y-62.285
X171.416Y-64.825
X171.416Y-87.685
X171.416Y-90.225
X173.956Y-62.285
X173.956Y-64.825
X173.956Y-87.685
X173.956Y-90.225
X176.496Y-62.285
X176.496Y-64.825
X176.496Y-87.685
X176.496Y-90.225
X179.036Y-62.285
X179.036Y-64.825
X179.036Y-87.685
X179.036Y-90.225
X198.65Y-56.614
X198.65Y-59.114
X198.65Y-61.114
X198.65Y-63.614
X209.172Y-122.831
X209.172Y-125.371
T8
X206.234Y-54.095
X208.734Y-54.095
X211.234Y-54.095
X213.734Y-54.095
T9
X146.193Y-53.579
X148.733Y-53.579
X151.273Y-53.579
X153.813Y-53.579
X172.223Y-53.579
X174.763Y-53.579
X177.303Y-53.579
X179.843Y-53.579
X182.383Y-53.579
X197.119Y-98.868
X197.419Y-85.158
X197.419Y-87.698
X197.419Y-90.238
X202.119Y-98.868
X202.571Y-107.859
X205.111Y-107.859
X207.651Y-107.859
X215.834Y-107.453
X215.834Y-109.993
X215.834Y-112.533
T10
X76.303Y-54.489
X76.303Y-57.029
X78.843Y-54.489
X78.843Y-57.029
X81.383Y-54.489
X81.383Y-57.029
X83.923Y-54.489
X83.923Y-57.029
X86.463Y-54.489
X86.463Y-57.029
X89.003Y-54.489
X89.003Y-57.029
X91.543Y-54.489
X91.543Y-57.029
X94.083Y-54.489
X94.083Y-57.029
X96.623Y-54.489
X96.623Y-57.029
X99.163Y-54.489
X99.163Y-57.029
X101.703Y-54.489
X101.703Y-57.029
X104.243Y-54.489
X104.243Y-57.029
X106.783Y-54.489
X106.783Y-57.029
X109.323Y-54.489
X109.323Y-57.029
X111.863Y-54.489
X111.863Y-57.029
X114.403Y-54.489
X114.403Y-57.029
X116.943Y-54.489
X116.943Y-57.029
X119.483Y-54.489
X119.483Y-57.029
X122.023Y-54.489
X122.023Y-57.029
X124.563Y-54.489
X124.563Y-57.029
T11
X201.801Y-73.418
X201.801Y-79.918
X206.301Y-73.418
X206.301Y-79.918
X211.401Y-73.418
X211.401Y-79.918
X214.076Y-97.553
X214.076Y-101.363
X215.901Y-73.418
X215.901Y-79.918
T12
X89.1Y-116.6
X89.1Y-129.6
X92.6Y-116.6
X92.6Y-129.6
X96.1Y-116.6
X96.1Y-129.6
X104.1Y-116.6
X104.1Y-129.6
X107.6Y-116.6
X107.6Y-129.6
X111.1Y-116.6
X111.1Y-129.6
X119.1Y-116.6
X119.214Y-129.6
X122.6Y-116.6
X122.714Y-129.6
X126.1Y-116.6
X126.214Y-129.6
X134.1Y-116.6
X134.1Y-129.6
X137.6Y-116.6
X137.6Y-129.6
X141.1Y-116.6
X141.1Y-129.6
X149.1Y-116.6
X149.1Y-129.6
X152.6Y-116.6
X152.6Y-129.6
X156.1Y-116.6
X156.1Y-129.6
X164.1Y-116.6
X164.1Y-129.6
X167.6Y-116.6
X167.6Y-129.6
X171.1Y-116.6
X171.1Y-129.6
X179.1Y-116.6
X179.1Y-129.6
X182.6Y-116.6
X182.6Y-129.6
X186.1Y-116.6
X186.1Y-129.6
X194.1Y-116.6
X194.1Y-129.6
X197.6Y-116.6
X197.6Y-129.6
X201.1Y-116.6
X201.1Y-129.6
T13
X76.801Y-94.218
X76.801Y-99.218
X76.801Y-104.218
X76.801Y-109.218
T14
X188.311Y-77.608
X188.311Y-87.768
T15
X117.333Y-138.469
X117.333Y-151.169
X171.848Y-138.605
X171.848Y-151.305
T16
X73.051Y-123.439
X73.051Y-127.139
X73.051Y-131.639
X73.051Y-135.339
X94.223Y-138.389
X94.223Y-142.089
X94.223Y-146.589
X94.223Y-150.289
X99.968Y-138.404
X99.968Y-142.104
X99.968Y-146.604
X99.968Y-150.304
X105.568Y-138.404
X105.568Y-142.104
X105.568Y-146.604
X105.568Y-150.304
X111.168Y-138.404
X111.168Y-142.104
X111.168Y-146.604
X111.168Y-150.304
X123.513Y-138.399
X123.513Y-142.099
X123.513Y-146.599
X123.513Y-150.299
X129.673Y-138.399
X129.673Y-142.099
X129.673Y-146.599
X129.673Y-150.299
X135.793Y-138.399
X135.793Y-142.099
X135.793Y-146.599
X135.793Y-150.299
X141.793Y-138.399
X141.793Y-142.099
X141.793Y-146.599
X141.793Y-150.299
X148.003Y-138.399
X148.003Y-142.099
X148.003Y-146.599
X148.003Y-150.299
X154.063Y-138.399
X154.063Y-142.099
X154.063Y-146.599
X154.063Y-150.299
X159.943Y-138.399
X159.943Y-142.099
X159.943Y-146.599
X159.943Y-150.299
X165.761Y-138.399
X165.761Y-142.099
X165.761Y-146.599
X165.761Y-150.299
X177.848Y-138.464
X177.848Y-142.164
X177.848Y-146.664
X177.848Y-150.364
X183.553Y-138.464
X183.553Y-142.164
X183.553Y-146.664
X183.553Y-150.364
X189.141Y-138.464
X189.141Y-142.164
X189.141Y-146.664
X189.141Y-150.364
X194.729Y-138.464
X194.729Y-142.164
X194.729Y-146.664
X194.729Y-150.364
X215.676Y-123.282
X215.676Y-126.982
X215.676Y-131.482
X215.676Y-135.182
T17
X76.17Y-145.417
X85.67Y-145.417
X203.17Y-145.417
X212.67Y-145.417
T13
X193.87Y-60.614G85X193.87Y-59.614
G05
X197.55Y-53.544G85X198.55Y-53.544
G05
X198.55Y-66.684G85X197.55Y-66.684
G05
T0
M30
