G04 #@! TF.GenerationSoftware,KiCad,Pcbnew,9.0.7*
G04 #@! TF.CreationDate,2026-03-06T18:38:42-05:00*
G04 #@! TF.ProjectId,PB_16,50425f31-362e-46b6-9963-61645f706362,v1.0i*
G04 #@! TF.SameCoordinates,Original*
G04 #@! TF.FileFunction,OtherDrawing,Comment*
%FSLAX46Y46*%
G04 Gerber Fmt 4.6, Leading zero omitted, Abs format (unit mm)*
G04 Created by KiCad (PCBNEW 9.0.7) date 2026-03-06 18:38:42*
%MOMM*%
%LPD*%
G01*
G04 APERTURE LIST*
%ADD10C,0.100000*%
%ADD11C,0.300000*%
%ADD12C,0.120000*%
G04 APERTURE END LIST*
D10*
X92206742Y-152058364D02*
X92671028Y-152058364D01*
X92671028Y-152058364D02*
X92421028Y-152344078D01*
X92421028Y-152344078D02*
X92528171Y-152344078D01*
X92528171Y-152344078D02*
X92599600Y-152379792D01*
X92599600Y-152379792D02*
X92635314Y-152415507D01*
X92635314Y-152415507D02*
X92671028Y-152486935D01*
X92671028Y-152486935D02*
X92671028Y-152665507D01*
X92671028Y-152665507D02*
X92635314Y-152736935D01*
X92635314Y-152736935D02*
X92599600Y-152772650D01*
X92599600Y-152772650D02*
X92528171Y-152808364D01*
X92528171Y-152808364D02*
X92313885Y-152808364D01*
X92313885Y-152808364D02*
X92242457Y-152772650D01*
X92242457Y-152772650D02*
X92206742Y-152736935D01*
X93349600Y-152058364D02*
X92992457Y-152058364D01*
X92992457Y-152058364D02*
X92956743Y-152415507D01*
X92956743Y-152415507D02*
X92992457Y-152379792D01*
X92992457Y-152379792D02*
X93063886Y-152344078D01*
X93063886Y-152344078D02*
X93242457Y-152344078D01*
X93242457Y-152344078D02*
X93313886Y-152379792D01*
X93313886Y-152379792D02*
X93349600Y-152415507D01*
X93349600Y-152415507D02*
X93385314Y-152486935D01*
X93385314Y-152486935D02*
X93385314Y-152665507D01*
X93385314Y-152665507D02*
X93349600Y-152736935D01*
X93349600Y-152736935D02*
X93313886Y-152772650D01*
X93313886Y-152772650D02*
X93242457Y-152808364D01*
X93242457Y-152808364D02*
X93063886Y-152808364D01*
X93063886Y-152808364D02*
X92992457Y-152772650D01*
X92992457Y-152772650D02*
X92956743Y-152736935D01*
X94028172Y-152308364D02*
X94028172Y-152808364D01*
X93849600Y-152022650D02*
X93671029Y-152558364D01*
X93671029Y-152558364D02*
X94135314Y-152558364D01*
X94742458Y-152308364D02*
X94742458Y-152808364D01*
X94563886Y-152022650D02*
X94385315Y-152558364D01*
X94385315Y-152558364D02*
X94849600Y-152558364D01*
X95135315Y-152522650D02*
X95706744Y-152522650D01*
X96028172Y-152129792D02*
X96063886Y-152094078D01*
X96063886Y-152094078D02*
X96135315Y-152058364D01*
X96135315Y-152058364D02*
X96313886Y-152058364D01*
X96313886Y-152058364D02*
X96385315Y-152094078D01*
X96385315Y-152094078D02*
X96421029Y-152129792D01*
X96421029Y-152129792D02*
X96456743Y-152201221D01*
X96456743Y-152201221D02*
X96456743Y-152272650D01*
X96456743Y-152272650D02*
X96421029Y-152379792D01*
X96421029Y-152379792D02*
X95992457Y-152808364D01*
X95992457Y-152808364D02*
X96456743Y-152808364D01*
X133776742Y-152068364D02*
X134241028Y-152068364D01*
X134241028Y-152068364D02*
X133991028Y-152354078D01*
X133991028Y-152354078D02*
X134098171Y-152354078D01*
X134098171Y-152354078D02*
X134169600Y-152389792D01*
X134169600Y-152389792D02*
X134205314Y-152425507D01*
X134205314Y-152425507D02*
X134241028Y-152496935D01*
X134241028Y-152496935D02*
X134241028Y-152675507D01*
X134241028Y-152675507D02*
X134205314Y-152746935D01*
X134205314Y-152746935D02*
X134169600Y-152782650D01*
X134169600Y-152782650D02*
X134098171Y-152818364D01*
X134098171Y-152818364D02*
X133883885Y-152818364D01*
X133883885Y-152818364D02*
X133812457Y-152782650D01*
X133812457Y-152782650D02*
X133776742Y-152746935D01*
X134919600Y-152068364D02*
X134562457Y-152068364D01*
X134562457Y-152068364D02*
X134526743Y-152425507D01*
X134526743Y-152425507D02*
X134562457Y-152389792D01*
X134562457Y-152389792D02*
X134633886Y-152354078D01*
X134633886Y-152354078D02*
X134812457Y-152354078D01*
X134812457Y-152354078D02*
X134883886Y-152389792D01*
X134883886Y-152389792D02*
X134919600Y-152425507D01*
X134919600Y-152425507D02*
X134955314Y-152496935D01*
X134955314Y-152496935D02*
X134955314Y-152675507D01*
X134955314Y-152675507D02*
X134919600Y-152746935D01*
X134919600Y-152746935D02*
X134883886Y-152782650D01*
X134883886Y-152782650D02*
X134812457Y-152818364D01*
X134812457Y-152818364D02*
X134633886Y-152818364D01*
X134633886Y-152818364D02*
X134562457Y-152782650D01*
X134562457Y-152782650D02*
X134526743Y-152746935D01*
X135598172Y-152318364D02*
X135598172Y-152818364D01*
X135419600Y-152032650D02*
X135241029Y-152568364D01*
X135241029Y-152568364D02*
X135705314Y-152568364D01*
X136312458Y-152318364D02*
X136312458Y-152818364D01*
X136133886Y-152032650D02*
X135955315Y-152568364D01*
X135955315Y-152568364D02*
X136419600Y-152568364D01*
X136705315Y-152532650D02*
X137276744Y-152532650D01*
X137598172Y-152139792D02*
X137633886Y-152104078D01*
X137633886Y-152104078D02*
X137705315Y-152068364D01*
X137705315Y-152068364D02*
X137883886Y-152068364D01*
X137883886Y-152068364D02*
X137955315Y-152104078D01*
X137955315Y-152104078D02*
X137991029Y-152139792D01*
X137991029Y-152139792D02*
X138026743Y-152211221D01*
X138026743Y-152211221D02*
X138026743Y-152282650D01*
X138026743Y-152282650D02*
X137991029Y-152389792D01*
X137991029Y-152389792D02*
X137562457Y-152818364D01*
X137562457Y-152818364D02*
X138026743Y-152818364D01*
X181537242Y-152133364D02*
X182001528Y-152133364D01*
X182001528Y-152133364D02*
X181751528Y-152419078D01*
X181751528Y-152419078D02*
X181858671Y-152419078D01*
X181858671Y-152419078D02*
X181930100Y-152454792D01*
X181930100Y-152454792D02*
X181965814Y-152490507D01*
X181965814Y-152490507D02*
X182001528Y-152561935D01*
X182001528Y-152561935D02*
X182001528Y-152740507D01*
X182001528Y-152740507D02*
X181965814Y-152811935D01*
X181965814Y-152811935D02*
X181930100Y-152847650D01*
X181930100Y-152847650D02*
X181858671Y-152883364D01*
X181858671Y-152883364D02*
X181644385Y-152883364D01*
X181644385Y-152883364D02*
X181572957Y-152847650D01*
X181572957Y-152847650D02*
X181537242Y-152811935D01*
X182680100Y-152133364D02*
X182322957Y-152133364D01*
X182322957Y-152133364D02*
X182287243Y-152490507D01*
X182287243Y-152490507D02*
X182322957Y-152454792D01*
X182322957Y-152454792D02*
X182394386Y-152419078D01*
X182394386Y-152419078D02*
X182572957Y-152419078D01*
X182572957Y-152419078D02*
X182644386Y-152454792D01*
X182644386Y-152454792D02*
X182680100Y-152490507D01*
X182680100Y-152490507D02*
X182715814Y-152561935D01*
X182715814Y-152561935D02*
X182715814Y-152740507D01*
X182715814Y-152740507D02*
X182680100Y-152811935D01*
X182680100Y-152811935D02*
X182644386Y-152847650D01*
X182644386Y-152847650D02*
X182572957Y-152883364D01*
X182572957Y-152883364D02*
X182394386Y-152883364D01*
X182394386Y-152883364D02*
X182322957Y-152847650D01*
X182322957Y-152847650D02*
X182287243Y-152811935D01*
X183358672Y-152383364D02*
X183358672Y-152883364D01*
X183180100Y-152097650D02*
X183001529Y-152633364D01*
X183001529Y-152633364D02*
X183465814Y-152633364D01*
X184072958Y-152383364D02*
X184072958Y-152883364D01*
X183894386Y-152097650D02*
X183715815Y-152633364D01*
X183715815Y-152633364D02*
X184180100Y-152633364D01*
X184465815Y-152597650D02*
X185037244Y-152597650D01*
X185358672Y-152204792D02*
X185394386Y-152169078D01*
X185394386Y-152169078D02*
X185465815Y-152133364D01*
X185465815Y-152133364D02*
X185644386Y-152133364D01*
X185644386Y-152133364D02*
X185715815Y-152169078D01*
X185715815Y-152169078D02*
X185751529Y-152204792D01*
X185751529Y-152204792D02*
X185787243Y-152276221D01*
X185787243Y-152276221D02*
X185787243Y-152347650D01*
X185787243Y-152347650D02*
X185751529Y-152454792D01*
X185751529Y-152454792D02*
X185322957Y-152883364D01*
X185322957Y-152883364D02*
X185787243Y-152883364D01*
X97951742Y-152073364D02*
X98416028Y-152073364D01*
X98416028Y-152073364D02*
X98166028Y-152359078D01*
X98166028Y-152359078D02*
X98273171Y-152359078D01*
X98273171Y-152359078D02*
X98344600Y-152394792D01*
X98344600Y-152394792D02*
X98380314Y-152430507D01*
X98380314Y-152430507D02*
X98416028Y-152501935D01*
X98416028Y-152501935D02*
X98416028Y-152680507D01*
X98416028Y-152680507D02*
X98380314Y-152751935D01*
X98380314Y-152751935D02*
X98344600Y-152787650D01*
X98344600Y-152787650D02*
X98273171Y-152823364D01*
X98273171Y-152823364D02*
X98058885Y-152823364D01*
X98058885Y-152823364D02*
X97987457Y-152787650D01*
X97987457Y-152787650D02*
X97951742Y-152751935D01*
X99094600Y-152073364D02*
X98737457Y-152073364D01*
X98737457Y-152073364D02*
X98701743Y-152430507D01*
X98701743Y-152430507D02*
X98737457Y-152394792D01*
X98737457Y-152394792D02*
X98808886Y-152359078D01*
X98808886Y-152359078D02*
X98987457Y-152359078D01*
X98987457Y-152359078D02*
X99058886Y-152394792D01*
X99058886Y-152394792D02*
X99094600Y-152430507D01*
X99094600Y-152430507D02*
X99130314Y-152501935D01*
X99130314Y-152501935D02*
X99130314Y-152680507D01*
X99130314Y-152680507D02*
X99094600Y-152751935D01*
X99094600Y-152751935D02*
X99058886Y-152787650D01*
X99058886Y-152787650D02*
X98987457Y-152823364D01*
X98987457Y-152823364D02*
X98808886Y-152823364D01*
X98808886Y-152823364D02*
X98737457Y-152787650D01*
X98737457Y-152787650D02*
X98701743Y-152751935D01*
X99773172Y-152323364D02*
X99773172Y-152823364D01*
X99594600Y-152037650D02*
X99416029Y-152573364D01*
X99416029Y-152573364D02*
X99880314Y-152573364D01*
X100487458Y-152323364D02*
X100487458Y-152823364D01*
X100308886Y-152037650D02*
X100130315Y-152573364D01*
X100130315Y-152573364D02*
X100594600Y-152573364D01*
X100880315Y-152537650D02*
X101451744Y-152537650D01*
X101773172Y-152144792D02*
X101808886Y-152109078D01*
X101808886Y-152109078D02*
X101880315Y-152073364D01*
X101880315Y-152073364D02*
X102058886Y-152073364D01*
X102058886Y-152073364D02*
X102130315Y-152109078D01*
X102130315Y-152109078D02*
X102166029Y-152144792D01*
X102166029Y-152144792D02*
X102201743Y-152216221D01*
X102201743Y-152216221D02*
X102201743Y-152287650D01*
X102201743Y-152287650D02*
X102166029Y-152394792D01*
X102166029Y-152394792D02*
X101737457Y-152823364D01*
X101737457Y-152823364D02*
X102201743Y-152823364D01*
X127656742Y-152068364D02*
X128121028Y-152068364D01*
X128121028Y-152068364D02*
X127871028Y-152354078D01*
X127871028Y-152354078D02*
X127978171Y-152354078D01*
X127978171Y-152354078D02*
X128049600Y-152389792D01*
X128049600Y-152389792D02*
X128085314Y-152425507D01*
X128085314Y-152425507D02*
X128121028Y-152496935D01*
X128121028Y-152496935D02*
X128121028Y-152675507D01*
X128121028Y-152675507D02*
X128085314Y-152746935D01*
X128085314Y-152746935D02*
X128049600Y-152782650D01*
X128049600Y-152782650D02*
X127978171Y-152818364D01*
X127978171Y-152818364D02*
X127763885Y-152818364D01*
X127763885Y-152818364D02*
X127692457Y-152782650D01*
X127692457Y-152782650D02*
X127656742Y-152746935D01*
X128799600Y-152068364D02*
X128442457Y-152068364D01*
X128442457Y-152068364D02*
X128406743Y-152425507D01*
X128406743Y-152425507D02*
X128442457Y-152389792D01*
X128442457Y-152389792D02*
X128513886Y-152354078D01*
X128513886Y-152354078D02*
X128692457Y-152354078D01*
X128692457Y-152354078D02*
X128763886Y-152389792D01*
X128763886Y-152389792D02*
X128799600Y-152425507D01*
X128799600Y-152425507D02*
X128835314Y-152496935D01*
X128835314Y-152496935D02*
X128835314Y-152675507D01*
X128835314Y-152675507D02*
X128799600Y-152746935D01*
X128799600Y-152746935D02*
X128763886Y-152782650D01*
X128763886Y-152782650D02*
X128692457Y-152818364D01*
X128692457Y-152818364D02*
X128513886Y-152818364D01*
X128513886Y-152818364D02*
X128442457Y-152782650D01*
X128442457Y-152782650D02*
X128406743Y-152746935D01*
X129478172Y-152318364D02*
X129478172Y-152818364D01*
X129299600Y-152032650D02*
X129121029Y-152568364D01*
X129121029Y-152568364D02*
X129585314Y-152568364D01*
X130192458Y-152318364D02*
X130192458Y-152818364D01*
X130013886Y-152032650D02*
X129835315Y-152568364D01*
X129835315Y-152568364D02*
X130299600Y-152568364D01*
X130585315Y-152532650D02*
X131156744Y-152532650D01*
X131478172Y-152139792D02*
X131513886Y-152104078D01*
X131513886Y-152104078D02*
X131585315Y-152068364D01*
X131585315Y-152068364D02*
X131763886Y-152068364D01*
X131763886Y-152068364D02*
X131835315Y-152104078D01*
X131835315Y-152104078D02*
X131871029Y-152139792D01*
X131871029Y-152139792D02*
X131906743Y-152211221D01*
X131906743Y-152211221D02*
X131906743Y-152282650D01*
X131906743Y-152282650D02*
X131871029Y-152389792D01*
X131871029Y-152389792D02*
X131442457Y-152818364D01*
X131442457Y-152818364D02*
X131906743Y-152818364D01*
X139777242Y-152068364D02*
X140241528Y-152068364D01*
X140241528Y-152068364D02*
X139991528Y-152354078D01*
X139991528Y-152354078D02*
X140098671Y-152354078D01*
X140098671Y-152354078D02*
X140170100Y-152389792D01*
X140170100Y-152389792D02*
X140205814Y-152425507D01*
X140205814Y-152425507D02*
X140241528Y-152496935D01*
X140241528Y-152496935D02*
X140241528Y-152675507D01*
X140241528Y-152675507D02*
X140205814Y-152746935D01*
X140205814Y-152746935D02*
X140170100Y-152782650D01*
X140170100Y-152782650D02*
X140098671Y-152818364D01*
X140098671Y-152818364D02*
X139884385Y-152818364D01*
X139884385Y-152818364D02*
X139812957Y-152782650D01*
X139812957Y-152782650D02*
X139777242Y-152746935D01*
X140920100Y-152068364D02*
X140562957Y-152068364D01*
X140562957Y-152068364D02*
X140527243Y-152425507D01*
X140527243Y-152425507D02*
X140562957Y-152389792D01*
X140562957Y-152389792D02*
X140634386Y-152354078D01*
X140634386Y-152354078D02*
X140812957Y-152354078D01*
X140812957Y-152354078D02*
X140884386Y-152389792D01*
X140884386Y-152389792D02*
X140920100Y-152425507D01*
X140920100Y-152425507D02*
X140955814Y-152496935D01*
X140955814Y-152496935D02*
X140955814Y-152675507D01*
X140955814Y-152675507D02*
X140920100Y-152746935D01*
X140920100Y-152746935D02*
X140884386Y-152782650D01*
X140884386Y-152782650D02*
X140812957Y-152818364D01*
X140812957Y-152818364D02*
X140634386Y-152818364D01*
X140634386Y-152818364D02*
X140562957Y-152782650D01*
X140562957Y-152782650D02*
X140527243Y-152746935D01*
X141598672Y-152318364D02*
X141598672Y-152818364D01*
X141420100Y-152032650D02*
X141241529Y-152568364D01*
X141241529Y-152568364D02*
X141705814Y-152568364D01*
X142312958Y-152318364D02*
X142312958Y-152818364D01*
X142134386Y-152032650D02*
X141955815Y-152568364D01*
X141955815Y-152568364D02*
X142420100Y-152568364D01*
X142705815Y-152532650D02*
X143277244Y-152532650D01*
X143598672Y-152139792D02*
X143634386Y-152104078D01*
X143634386Y-152104078D02*
X143705815Y-152068364D01*
X143705815Y-152068364D02*
X143884386Y-152068364D01*
X143884386Y-152068364D02*
X143955815Y-152104078D01*
X143955815Y-152104078D02*
X143991529Y-152139792D01*
X143991529Y-152139792D02*
X144027243Y-152211221D01*
X144027243Y-152211221D02*
X144027243Y-152282650D01*
X144027243Y-152282650D02*
X143991529Y-152389792D01*
X143991529Y-152389792D02*
X143562957Y-152818364D01*
X143562957Y-152818364D02*
X144027243Y-152818364D01*
X145986742Y-152068364D02*
X146451028Y-152068364D01*
X146451028Y-152068364D02*
X146201028Y-152354078D01*
X146201028Y-152354078D02*
X146308171Y-152354078D01*
X146308171Y-152354078D02*
X146379600Y-152389792D01*
X146379600Y-152389792D02*
X146415314Y-152425507D01*
X146415314Y-152425507D02*
X146451028Y-152496935D01*
X146451028Y-152496935D02*
X146451028Y-152675507D01*
X146451028Y-152675507D02*
X146415314Y-152746935D01*
X146415314Y-152746935D02*
X146379600Y-152782650D01*
X146379600Y-152782650D02*
X146308171Y-152818364D01*
X146308171Y-152818364D02*
X146093885Y-152818364D01*
X146093885Y-152818364D02*
X146022457Y-152782650D01*
X146022457Y-152782650D02*
X145986742Y-152746935D01*
X147129600Y-152068364D02*
X146772457Y-152068364D01*
X146772457Y-152068364D02*
X146736743Y-152425507D01*
X146736743Y-152425507D02*
X146772457Y-152389792D01*
X146772457Y-152389792D02*
X146843886Y-152354078D01*
X146843886Y-152354078D02*
X147022457Y-152354078D01*
X147022457Y-152354078D02*
X147093886Y-152389792D01*
X147093886Y-152389792D02*
X147129600Y-152425507D01*
X147129600Y-152425507D02*
X147165314Y-152496935D01*
X147165314Y-152496935D02*
X147165314Y-152675507D01*
X147165314Y-152675507D02*
X147129600Y-152746935D01*
X147129600Y-152746935D02*
X147093886Y-152782650D01*
X147093886Y-152782650D02*
X147022457Y-152818364D01*
X147022457Y-152818364D02*
X146843886Y-152818364D01*
X146843886Y-152818364D02*
X146772457Y-152782650D01*
X146772457Y-152782650D02*
X146736743Y-152746935D01*
X147808172Y-152318364D02*
X147808172Y-152818364D01*
X147629600Y-152032650D02*
X147451029Y-152568364D01*
X147451029Y-152568364D02*
X147915314Y-152568364D01*
X148522458Y-152318364D02*
X148522458Y-152818364D01*
X148343886Y-152032650D02*
X148165315Y-152568364D01*
X148165315Y-152568364D02*
X148629600Y-152568364D01*
X148915315Y-152532650D02*
X149486744Y-152532650D01*
X149808172Y-152139792D02*
X149843886Y-152104078D01*
X149843886Y-152104078D02*
X149915315Y-152068364D01*
X149915315Y-152068364D02*
X150093886Y-152068364D01*
X150093886Y-152068364D02*
X150165315Y-152104078D01*
X150165315Y-152104078D02*
X150201029Y-152139792D01*
X150201029Y-152139792D02*
X150236743Y-152211221D01*
X150236743Y-152211221D02*
X150236743Y-152282650D01*
X150236743Y-152282650D02*
X150201029Y-152389792D01*
X150201029Y-152389792D02*
X149772457Y-152818364D01*
X149772457Y-152818364D02*
X150236743Y-152818364D01*
X152046742Y-152068364D02*
X152511028Y-152068364D01*
X152511028Y-152068364D02*
X152261028Y-152354078D01*
X152261028Y-152354078D02*
X152368171Y-152354078D01*
X152368171Y-152354078D02*
X152439600Y-152389792D01*
X152439600Y-152389792D02*
X152475314Y-152425507D01*
X152475314Y-152425507D02*
X152511028Y-152496935D01*
X152511028Y-152496935D02*
X152511028Y-152675507D01*
X152511028Y-152675507D02*
X152475314Y-152746935D01*
X152475314Y-152746935D02*
X152439600Y-152782650D01*
X152439600Y-152782650D02*
X152368171Y-152818364D01*
X152368171Y-152818364D02*
X152153885Y-152818364D01*
X152153885Y-152818364D02*
X152082457Y-152782650D01*
X152082457Y-152782650D02*
X152046742Y-152746935D01*
X153189600Y-152068364D02*
X152832457Y-152068364D01*
X152832457Y-152068364D02*
X152796743Y-152425507D01*
X152796743Y-152425507D02*
X152832457Y-152389792D01*
X152832457Y-152389792D02*
X152903886Y-152354078D01*
X152903886Y-152354078D02*
X153082457Y-152354078D01*
X153082457Y-152354078D02*
X153153886Y-152389792D01*
X153153886Y-152389792D02*
X153189600Y-152425507D01*
X153189600Y-152425507D02*
X153225314Y-152496935D01*
X153225314Y-152496935D02*
X153225314Y-152675507D01*
X153225314Y-152675507D02*
X153189600Y-152746935D01*
X153189600Y-152746935D02*
X153153886Y-152782650D01*
X153153886Y-152782650D02*
X153082457Y-152818364D01*
X153082457Y-152818364D02*
X152903886Y-152818364D01*
X152903886Y-152818364D02*
X152832457Y-152782650D01*
X152832457Y-152782650D02*
X152796743Y-152746935D01*
X153868172Y-152318364D02*
X153868172Y-152818364D01*
X153689600Y-152032650D02*
X153511029Y-152568364D01*
X153511029Y-152568364D02*
X153975314Y-152568364D01*
X154582458Y-152318364D02*
X154582458Y-152818364D01*
X154403886Y-152032650D02*
X154225315Y-152568364D01*
X154225315Y-152568364D02*
X154689600Y-152568364D01*
X154975315Y-152532650D02*
X155546744Y-152532650D01*
X155868172Y-152139792D02*
X155903886Y-152104078D01*
X155903886Y-152104078D02*
X155975315Y-152068364D01*
X155975315Y-152068364D02*
X156153886Y-152068364D01*
X156153886Y-152068364D02*
X156225315Y-152104078D01*
X156225315Y-152104078D02*
X156261029Y-152139792D01*
X156261029Y-152139792D02*
X156296743Y-152211221D01*
X156296743Y-152211221D02*
X156296743Y-152282650D01*
X156296743Y-152282650D02*
X156261029Y-152389792D01*
X156261029Y-152389792D02*
X155832457Y-152818364D01*
X155832457Y-152818364D02*
X156296743Y-152818364D01*
X192713242Y-152133364D02*
X193177528Y-152133364D01*
X193177528Y-152133364D02*
X192927528Y-152419078D01*
X192927528Y-152419078D02*
X193034671Y-152419078D01*
X193034671Y-152419078D02*
X193106100Y-152454792D01*
X193106100Y-152454792D02*
X193141814Y-152490507D01*
X193141814Y-152490507D02*
X193177528Y-152561935D01*
X193177528Y-152561935D02*
X193177528Y-152740507D01*
X193177528Y-152740507D02*
X193141814Y-152811935D01*
X193141814Y-152811935D02*
X193106100Y-152847650D01*
X193106100Y-152847650D02*
X193034671Y-152883364D01*
X193034671Y-152883364D02*
X192820385Y-152883364D01*
X192820385Y-152883364D02*
X192748957Y-152847650D01*
X192748957Y-152847650D02*
X192713242Y-152811935D01*
X193856100Y-152133364D02*
X193498957Y-152133364D01*
X193498957Y-152133364D02*
X193463243Y-152490507D01*
X193463243Y-152490507D02*
X193498957Y-152454792D01*
X193498957Y-152454792D02*
X193570386Y-152419078D01*
X193570386Y-152419078D02*
X193748957Y-152419078D01*
X193748957Y-152419078D02*
X193820386Y-152454792D01*
X193820386Y-152454792D02*
X193856100Y-152490507D01*
X193856100Y-152490507D02*
X193891814Y-152561935D01*
X193891814Y-152561935D02*
X193891814Y-152740507D01*
X193891814Y-152740507D02*
X193856100Y-152811935D01*
X193856100Y-152811935D02*
X193820386Y-152847650D01*
X193820386Y-152847650D02*
X193748957Y-152883364D01*
X193748957Y-152883364D02*
X193570386Y-152883364D01*
X193570386Y-152883364D02*
X193498957Y-152847650D01*
X193498957Y-152847650D02*
X193463243Y-152811935D01*
X194534672Y-152383364D02*
X194534672Y-152883364D01*
X194356100Y-152097650D02*
X194177529Y-152633364D01*
X194177529Y-152633364D02*
X194641814Y-152633364D01*
X195248958Y-152383364D02*
X195248958Y-152883364D01*
X195070386Y-152097650D02*
X194891815Y-152633364D01*
X194891815Y-152633364D02*
X195356100Y-152633364D01*
X195641815Y-152597650D02*
X196213244Y-152597650D01*
X196534672Y-152204792D02*
X196570386Y-152169078D01*
X196570386Y-152169078D02*
X196641815Y-152133364D01*
X196641815Y-152133364D02*
X196820386Y-152133364D01*
X196820386Y-152133364D02*
X196891815Y-152169078D01*
X196891815Y-152169078D02*
X196927529Y-152204792D01*
X196927529Y-152204792D02*
X196963243Y-152276221D01*
X196963243Y-152276221D02*
X196963243Y-152347650D01*
X196963243Y-152347650D02*
X196927529Y-152454792D01*
X196927529Y-152454792D02*
X196498957Y-152883364D01*
X196498957Y-152883364D02*
X196963243Y-152883364D01*
X121496742Y-152068364D02*
X121961028Y-152068364D01*
X121961028Y-152068364D02*
X121711028Y-152354078D01*
X121711028Y-152354078D02*
X121818171Y-152354078D01*
X121818171Y-152354078D02*
X121889600Y-152389792D01*
X121889600Y-152389792D02*
X121925314Y-152425507D01*
X121925314Y-152425507D02*
X121961028Y-152496935D01*
X121961028Y-152496935D02*
X121961028Y-152675507D01*
X121961028Y-152675507D02*
X121925314Y-152746935D01*
X121925314Y-152746935D02*
X121889600Y-152782650D01*
X121889600Y-152782650D02*
X121818171Y-152818364D01*
X121818171Y-152818364D02*
X121603885Y-152818364D01*
X121603885Y-152818364D02*
X121532457Y-152782650D01*
X121532457Y-152782650D02*
X121496742Y-152746935D01*
X122639600Y-152068364D02*
X122282457Y-152068364D01*
X122282457Y-152068364D02*
X122246743Y-152425507D01*
X122246743Y-152425507D02*
X122282457Y-152389792D01*
X122282457Y-152389792D02*
X122353886Y-152354078D01*
X122353886Y-152354078D02*
X122532457Y-152354078D01*
X122532457Y-152354078D02*
X122603886Y-152389792D01*
X122603886Y-152389792D02*
X122639600Y-152425507D01*
X122639600Y-152425507D02*
X122675314Y-152496935D01*
X122675314Y-152496935D02*
X122675314Y-152675507D01*
X122675314Y-152675507D02*
X122639600Y-152746935D01*
X122639600Y-152746935D02*
X122603886Y-152782650D01*
X122603886Y-152782650D02*
X122532457Y-152818364D01*
X122532457Y-152818364D02*
X122353886Y-152818364D01*
X122353886Y-152818364D02*
X122282457Y-152782650D01*
X122282457Y-152782650D02*
X122246743Y-152746935D01*
X123318172Y-152318364D02*
X123318172Y-152818364D01*
X123139600Y-152032650D02*
X122961029Y-152568364D01*
X122961029Y-152568364D02*
X123425314Y-152568364D01*
X124032458Y-152318364D02*
X124032458Y-152818364D01*
X123853886Y-152032650D02*
X123675315Y-152568364D01*
X123675315Y-152568364D02*
X124139600Y-152568364D01*
X124425315Y-152532650D02*
X124996744Y-152532650D01*
X125318172Y-152139792D02*
X125353886Y-152104078D01*
X125353886Y-152104078D02*
X125425315Y-152068364D01*
X125425315Y-152068364D02*
X125603886Y-152068364D01*
X125603886Y-152068364D02*
X125675315Y-152104078D01*
X125675315Y-152104078D02*
X125711029Y-152139792D01*
X125711029Y-152139792D02*
X125746743Y-152211221D01*
X125746743Y-152211221D02*
X125746743Y-152282650D01*
X125746743Y-152282650D02*
X125711029Y-152389792D01*
X125711029Y-152389792D02*
X125282457Y-152818364D01*
X125282457Y-152818364D02*
X125746743Y-152818364D01*
X103551742Y-152073364D02*
X104016028Y-152073364D01*
X104016028Y-152073364D02*
X103766028Y-152359078D01*
X103766028Y-152359078D02*
X103873171Y-152359078D01*
X103873171Y-152359078D02*
X103944600Y-152394792D01*
X103944600Y-152394792D02*
X103980314Y-152430507D01*
X103980314Y-152430507D02*
X104016028Y-152501935D01*
X104016028Y-152501935D02*
X104016028Y-152680507D01*
X104016028Y-152680507D02*
X103980314Y-152751935D01*
X103980314Y-152751935D02*
X103944600Y-152787650D01*
X103944600Y-152787650D02*
X103873171Y-152823364D01*
X103873171Y-152823364D02*
X103658885Y-152823364D01*
X103658885Y-152823364D02*
X103587457Y-152787650D01*
X103587457Y-152787650D02*
X103551742Y-152751935D01*
X104694600Y-152073364D02*
X104337457Y-152073364D01*
X104337457Y-152073364D02*
X104301743Y-152430507D01*
X104301743Y-152430507D02*
X104337457Y-152394792D01*
X104337457Y-152394792D02*
X104408886Y-152359078D01*
X104408886Y-152359078D02*
X104587457Y-152359078D01*
X104587457Y-152359078D02*
X104658886Y-152394792D01*
X104658886Y-152394792D02*
X104694600Y-152430507D01*
X104694600Y-152430507D02*
X104730314Y-152501935D01*
X104730314Y-152501935D02*
X104730314Y-152680507D01*
X104730314Y-152680507D02*
X104694600Y-152751935D01*
X104694600Y-152751935D02*
X104658886Y-152787650D01*
X104658886Y-152787650D02*
X104587457Y-152823364D01*
X104587457Y-152823364D02*
X104408886Y-152823364D01*
X104408886Y-152823364D02*
X104337457Y-152787650D01*
X104337457Y-152787650D02*
X104301743Y-152751935D01*
X105373172Y-152323364D02*
X105373172Y-152823364D01*
X105194600Y-152037650D02*
X105016029Y-152573364D01*
X105016029Y-152573364D02*
X105480314Y-152573364D01*
X106087458Y-152323364D02*
X106087458Y-152823364D01*
X105908886Y-152037650D02*
X105730315Y-152573364D01*
X105730315Y-152573364D02*
X106194600Y-152573364D01*
X106480315Y-152537650D02*
X107051744Y-152537650D01*
X107373172Y-152144792D02*
X107408886Y-152109078D01*
X107408886Y-152109078D02*
X107480315Y-152073364D01*
X107480315Y-152073364D02*
X107658886Y-152073364D01*
X107658886Y-152073364D02*
X107730315Y-152109078D01*
X107730315Y-152109078D02*
X107766029Y-152144792D01*
X107766029Y-152144792D02*
X107801743Y-152216221D01*
X107801743Y-152216221D02*
X107801743Y-152287650D01*
X107801743Y-152287650D02*
X107766029Y-152394792D01*
X107766029Y-152394792D02*
X107337457Y-152823364D01*
X107337457Y-152823364D02*
X107801743Y-152823364D01*
X175831742Y-152133364D02*
X176296028Y-152133364D01*
X176296028Y-152133364D02*
X176046028Y-152419078D01*
X176046028Y-152419078D02*
X176153171Y-152419078D01*
X176153171Y-152419078D02*
X176224600Y-152454792D01*
X176224600Y-152454792D02*
X176260314Y-152490507D01*
X176260314Y-152490507D02*
X176296028Y-152561935D01*
X176296028Y-152561935D02*
X176296028Y-152740507D01*
X176296028Y-152740507D02*
X176260314Y-152811935D01*
X176260314Y-152811935D02*
X176224600Y-152847650D01*
X176224600Y-152847650D02*
X176153171Y-152883364D01*
X176153171Y-152883364D02*
X175938885Y-152883364D01*
X175938885Y-152883364D02*
X175867457Y-152847650D01*
X175867457Y-152847650D02*
X175831742Y-152811935D01*
X176974600Y-152133364D02*
X176617457Y-152133364D01*
X176617457Y-152133364D02*
X176581743Y-152490507D01*
X176581743Y-152490507D02*
X176617457Y-152454792D01*
X176617457Y-152454792D02*
X176688886Y-152419078D01*
X176688886Y-152419078D02*
X176867457Y-152419078D01*
X176867457Y-152419078D02*
X176938886Y-152454792D01*
X176938886Y-152454792D02*
X176974600Y-152490507D01*
X176974600Y-152490507D02*
X177010314Y-152561935D01*
X177010314Y-152561935D02*
X177010314Y-152740507D01*
X177010314Y-152740507D02*
X176974600Y-152811935D01*
X176974600Y-152811935D02*
X176938886Y-152847650D01*
X176938886Y-152847650D02*
X176867457Y-152883364D01*
X176867457Y-152883364D02*
X176688886Y-152883364D01*
X176688886Y-152883364D02*
X176617457Y-152847650D01*
X176617457Y-152847650D02*
X176581743Y-152811935D01*
X177653172Y-152383364D02*
X177653172Y-152883364D01*
X177474600Y-152097650D02*
X177296029Y-152633364D01*
X177296029Y-152633364D02*
X177760314Y-152633364D01*
X178367458Y-152383364D02*
X178367458Y-152883364D01*
X178188886Y-152097650D02*
X178010315Y-152633364D01*
X178010315Y-152633364D02*
X178474600Y-152633364D01*
X178760315Y-152597650D02*
X179331744Y-152597650D01*
X179653172Y-152204792D02*
X179688886Y-152169078D01*
X179688886Y-152169078D02*
X179760315Y-152133364D01*
X179760315Y-152133364D02*
X179938886Y-152133364D01*
X179938886Y-152133364D02*
X180010315Y-152169078D01*
X180010315Y-152169078D02*
X180046029Y-152204792D01*
X180046029Y-152204792D02*
X180081743Y-152276221D01*
X180081743Y-152276221D02*
X180081743Y-152347650D01*
X180081743Y-152347650D02*
X180046029Y-152454792D01*
X180046029Y-152454792D02*
X179617457Y-152883364D01*
X179617457Y-152883364D02*
X180081743Y-152883364D01*
X157926742Y-152068364D02*
X158391028Y-152068364D01*
X158391028Y-152068364D02*
X158141028Y-152354078D01*
X158141028Y-152354078D02*
X158248171Y-152354078D01*
X158248171Y-152354078D02*
X158319600Y-152389792D01*
X158319600Y-152389792D02*
X158355314Y-152425507D01*
X158355314Y-152425507D02*
X158391028Y-152496935D01*
X158391028Y-152496935D02*
X158391028Y-152675507D01*
X158391028Y-152675507D02*
X158355314Y-152746935D01*
X158355314Y-152746935D02*
X158319600Y-152782650D01*
X158319600Y-152782650D02*
X158248171Y-152818364D01*
X158248171Y-152818364D02*
X158033885Y-152818364D01*
X158033885Y-152818364D02*
X157962457Y-152782650D01*
X157962457Y-152782650D02*
X157926742Y-152746935D01*
X159069600Y-152068364D02*
X158712457Y-152068364D01*
X158712457Y-152068364D02*
X158676743Y-152425507D01*
X158676743Y-152425507D02*
X158712457Y-152389792D01*
X158712457Y-152389792D02*
X158783886Y-152354078D01*
X158783886Y-152354078D02*
X158962457Y-152354078D01*
X158962457Y-152354078D02*
X159033886Y-152389792D01*
X159033886Y-152389792D02*
X159069600Y-152425507D01*
X159069600Y-152425507D02*
X159105314Y-152496935D01*
X159105314Y-152496935D02*
X159105314Y-152675507D01*
X159105314Y-152675507D02*
X159069600Y-152746935D01*
X159069600Y-152746935D02*
X159033886Y-152782650D01*
X159033886Y-152782650D02*
X158962457Y-152818364D01*
X158962457Y-152818364D02*
X158783886Y-152818364D01*
X158783886Y-152818364D02*
X158712457Y-152782650D01*
X158712457Y-152782650D02*
X158676743Y-152746935D01*
X159748172Y-152318364D02*
X159748172Y-152818364D01*
X159569600Y-152032650D02*
X159391029Y-152568364D01*
X159391029Y-152568364D02*
X159855314Y-152568364D01*
X160462458Y-152318364D02*
X160462458Y-152818364D01*
X160283886Y-152032650D02*
X160105315Y-152568364D01*
X160105315Y-152568364D02*
X160569600Y-152568364D01*
X160855315Y-152532650D02*
X161426744Y-152532650D01*
X161748172Y-152139792D02*
X161783886Y-152104078D01*
X161783886Y-152104078D02*
X161855315Y-152068364D01*
X161855315Y-152068364D02*
X162033886Y-152068364D01*
X162033886Y-152068364D02*
X162105315Y-152104078D01*
X162105315Y-152104078D02*
X162141029Y-152139792D01*
X162141029Y-152139792D02*
X162176743Y-152211221D01*
X162176743Y-152211221D02*
X162176743Y-152282650D01*
X162176743Y-152282650D02*
X162141029Y-152389792D01*
X162141029Y-152389792D02*
X161712457Y-152818364D01*
X161712457Y-152818364D02*
X162176743Y-152818364D01*
X109151742Y-152073364D02*
X109616028Y-152073364D01*
X109616028Y-152073364D02*
X109366028Y-152359078D01*
X109366028Y-152359078D02*
X109473171Y-152359078D01*
X109473171Y-152359078D02*
X109544600Y-152394792D01*
X109544600Y-152394792D02*
X109580314Y-152430507D01*
X109580314Y-152430507D02*
X109616028Y-152501935D01*
X109616028Y-152501935D02*
X109616028Y-152680507D01*
X109616028Y-152680507D02*
X109580314Y-152751935D01*
X109580314Y-152751935D02*
X109544600Y-152787650D01*
X109544600Y-152787650D02*
X109473171Y-152823364D01*
X109473171Y-152823364D02*
X109258885Y-152823364D01*
X109258885Y-152823364D02*
X109187457Y-152787650D01*
X109187457Y-152787650D02*
X109151742Y-152751935D01*
X110294600Y-152073364D02*
X109937457Y-152073364D01*
X109937457Y-152073364D02*
X109901743Y-152430507D01*
X109901743Y-152430507D02*
X109937457Y-152394792D01*
X109937457Y-152394792D02*
X110008886Y-152359078D01*
X110008886Y-152359078D02*
X110187457Y-152359078D01*
X110187457Y-152359078D02*
X110258886Y-152394792D01*
X110258886Y-152394792D02*
X110294600Y-152430507D01*
X110294600Y-152430507D02*
X110330314Y-152501935D01*
X110330314Y-152501935D02*
X110330314Y-152680507D01*
X110330314Y-152680507D02*
X110294600Y-152751935D01*
X110294600Y-152751935D02*
X110258886Y-152787650D01*
X110258886Y-152787650D02*
X110187457Y-152823364D01*
X110187457Y-152823364D02*
X110008886Y-152823364D01*
X110008886Y-152823364D02*
X109937457Y-152787650D01*
X109937457Y-152787650D02*
X109901743Y-152751935D01*
X110973172Y-152323364D02*
X110973172Y-152823364D01*
X110794600Y-152037650D02*
X110616029Y-152573364D01*
X110616029Y-152573364D02*
X111080314Y-152573364D01*
X111687458Y-152323364D02*
X111687458Y-152823364D01*
X111508886Y-152037650D02*
X111330315Y-152573364D01*
X111330315Y-152573364D02*
X111794600Y-152573364D01*
X112080315Y-152537650D02*
X112651744Y-152537650D01*
X112973172Y-152144792D02*
X113008886Y-152109078D01*
X113008886Y-152109078D02*
X113080315Y-152073364D01*
X113080315Y-152073364D02*
X113258886Y-152073364D01*
X113258886Y-152073364D02*
X113330315Y-152109078D01*
X113330315Y-152109078D02*
X113366029Y-152144792D01*
X113366029Y-152144792D02*
X113401743Y-152216221D01*
X113401743Y-152216221D02*
X113401743Y-152287650D01*
X113401743Y-152287650D02*
X113366029Y-152394792D01*
X113366029Y-152394792D02*
X112937457Y-152823364D01*
X112937457Y-152823364D02*
X113401743Y-152823364D01*
X187125242Y-152133364D02*
X187589528Y-152133364D01*
X187589528Y-152133364D02*
X187339528Y-152419078D01*
X187339528Y-152419078D02*
X187446671Y-152419078D01*
X187446671Y-152419078D02*
X187518100Y-152454792D01*
X187518100Y-152454792D02*
X187553814Y-152490507D01*
X187553814Y-152490507D02*
X187589528Y-152561935D01*
X187589528Y-152561935D02*
X187589528Y-152740507D01*
X187589528Y-152740507D02*
X187553814Y-152811935D01*
X187553814Y-152811935D02*
X187518100Y-152847650D01*
X187518100Y-152847650D02*
X187446671Y-152883364D01*
X187446671Y-152883364D02*
X187232385Y-152883364D01*
X187232385Y-152883364D02*
X187160957Y-152847650D01*
X187160957Y-152847650D02*
X187125242Y-152811935D01*
X188268100Y-152133364D02*
X187910957Y-152133364D01*
X187910957Y-152133364D02*
X187875243Y-152490507D01*
X187875243Y-152490507D02*
X187910957Y-152454792D01*
X187910957Y-152454792D02*
X187982386Y-152419078D01*
X187982386Y-152419078D02*
X188160957Y-152419078D01*
X188160957Y-152419078D02*
X188232386Y-152454792D01*
X188232386Y-152454792D02*
X188268100Y-152490507D01*
X188268100Y-152490507D02*
X188303814Y-152561935D01*
X188303814Y-152561935D02*
X188303814Y-152740507D01*
X188303814Y-152740507D02*
X188268100Y-152811935D01*
X188268100Y-152811935D02*
X188232386Y-152847650D01*
X188232386Y-152847650D02*
X188160957Y-152883364D01*
X188160957Y-152883364D02*
X187982386Y-152883364D01*
X187982386Y-152883364D02*
X187910957Y-152847650D01*
X187910957Y-152847650D02*
X187875243Y-152811935D01*
X188946672Y-152383364D02*
X188946672Y-152883364D01*
X188768100Y-152097650D02*
X188589529Y-152633364D01*
X188589529Y-152633364D02*
X189053814Y-152633364D01*
X189660958Y-152383364D02*
X189660958Y-152883364D01*
X189482386Y-152097650D02*
X189303815Y-152633364D01*
X189303815Y-152633364D02*
X189768100Y-152633364D01*
X190053815Y-152597650D02*
X190625244Y-152597650D01*
X190946672Y-152204792D02*
X190982386Y-152169078D01*
X190982386Y-152169078D02*
X191053815Y-152133364D01*
X191053815Y-152133364D02*
X191232386Y-152133364D01*
X191232386Y-152133364D02*
X191303815Y-152169078D01*
X191303815Y-152169078D02*
X191339529Y-152204792D01*
X191339529Y-152204792D02*
X191375243Y-152276221D01*
X191375243Y-152276221D02*
X191375243Y-152347650D01*
X191375243Y-152347650D02*
X191339529Y-152454792D01*
X191339529Y-152454792D02*
X190910957Y-152883364D01*
X190910957Y-152883364D02*
X191375243Y-152883364D01*
X163745242Y-152068364D02*
X164209528Y-152068364D01*
X164209528Y-152068364D02*
X163959528Y-152354078D01*
X163959528Y-152354078D02*
X164066671Y-152354078D01*
X164066671Y-152354078D02*
X164138100Y-152389792D01*
X164138100Y-152389792D02*
X164173814Y-152425507D01*
X164173814Y-152425507D02*
X164209528Y-152496935D01*
X164209528Y-152496935D02*
X164209528Y-152675507D01*
X164209528Y-152675507D02*
X164173814Y-152746935D01*
X164173814Y-152746935D02*
X164138100Y-152782650D01*
X164138100Y-152782650D02*
X164066671Y-152818364D01*
X164066671Y-152818364D02*
X163852385Y-152818364D01*
X163852385Y-152818364D02*
X163780957Y-152782650D01*
X163780957Y-152782650D02*
X163745242Y-152746935D01*
X164888100Y-152068364D02*
X164530957Y-152068364D01*
X164530957Y-152068364D02*
X164495243Y-152425507D01*
X164495243Y-152425507D02*
X164530957Y-152389792D01*
X164530957Y-152389792D02*
X164602386Y-152354078D01*
X164602386Y-152354078D02*
X164780957Y-152354078D01*
X164780957Y-152354078D02*
X164852386Y-152389792D01*
X164852386Y-152389792D02*
X164888100Y-152425507D01*
X164888100Y-152425507D02*
X164923814Y-152496935D01*
X164923814Y-152496935D02*
X164923814Y-152675507D01*
X164923814Y-152675507D02*
X164888100Y-152746935D01*
X164888100Y-152746935D02*
X164852386Y-152782650D01*
X164852386Y-152782650D02*
X164780957Y-152818364D01*
X164780957Y-152818364D02*
X164602386Y-152818364D01*
X164602386Y-152818364D02*
X164530957Y-152782650D01*
X164530957Y-152782650D02*
X164495243Y-152746935D01*
X165566672Y-152318364D02*
X165566672Y-152818364D01*
X165388100Y-152032650D02*
X165209529Y-152568364D01*
X165209529Y-152568364D02*
X165673814Y-152568364D01*
X166280958Y-152318364D02*
X166280958Y-152818364D01*
X166102386Y-152032650D02*
X165923815Y-152568364D01*
X165923815Y-152568364D02*
X166388100Y-152568364D01*
X166673815Y-152532650D02*
X167245244Y-152532650D01*
X167566672Y-152139792D02*
X167602386Y-152104078D01*
X167602386Y-152104078D02*
X167673815Y-152068364D01*
X167673815Y-152068364D02*
X167852386Y-152068364D01*
X167852386Y-152068364D02*
X167923815Y-152104078D01*
X167923815Y-152104078D02*
X167959529Y-152139792D01*
X167959529Y-152139792D02*
X167995243Y-152211221D01*
X167995243Y-152211221D02*
X167995243Y-152282650D01*
X167995243Y-152282650D02*
X167959529Y-152389792D01*
X167959529Y-152389792D02*
X167530957Y-152818364D01*
X167530957Y-152818364D02*
X167995243Y-152818364D01*
X217370109Y-98968552D02*
X216870109Y-98968552D01*
X217370109Y-98754266D02*
X217108204Y-98754266D01*
X217108204Y-98754266D02*
X217060585Y-98778076D01*
X217060585Y-98778076D02*
X217036776Y-98825695D01*
X217036776Y-98825695D02*
X217036776Y-98897123D01*
X217036776Y-98897123D02*
X217060585Y-98944742D01*
X217060585Y-98944742D02*
X217084395Y-98968552D01*
X217036776Y-98587599D02*
X217036776Y-98397123D01*
X216870109Y-98516171D02*
X217298680Y-98516171D01*
X217298680Y-98516171D02*
X217346300Y-98492361D01*
X217346300Y-98492361D02*
X217370109Y-98444742D01*
X217370109Y-98444742D02*
X217370109Y-98397123D01*
X217036776Y-98301885D02*
X217036776Y-98111409D01*
X216870109Y-98230457D02*
X217298680Y-98230457D01*
X217298680Y-98230457D02*
X217346300Y-98206647D01*
X217346300Y-98206647D02*
X217370109Y-98159028D01*
X217370109Y-98159028D02*
X217370109Y-98111409D01*
X217036776Y-97944743D02*
X217536776Y-97944743D01*
X217060585Y-97944743D02*
X217036776Y-97897124D01*
X217036776Y-97897124D02*
X217036776Y-97801886D01*
X217036776Y-97801886D02*
X217060585Y-97754267D01*
X217060585Y-97754267D02*
X217084395Y-97730457D01*
X217084395Y-97730457D02*
X217132014Y-97706648D01*
X217132014Y-97706648D02*
X217274871Y-97706648D01*
X217274871Y-97706648D02*
X217322490Y-97730457D01*
X217322490Y-97730457D02*
X217346300Y-97754267D01*
X217346300Y-97754267D02*
X217370109Y-97801886D01*
X217370109Y-97801886D02*
X217370109Y-97897124D01*
X217370109Y-97897124D02*
X217346300Y-97944743D01*
X217346300Y-97516171D02*
X217370109Y-97468552D01*
X217370109Y-97468552D02*
X217370109Y-97373314D01*
X217370109Y-97373314D02*
X217346300Y-97325695D01*
X217346300Y-97325695D02*
X217298680Y-97301886D01*
X217298680Y-97301886D02*
X217274871Y-97301886D01*
X217274871Y-97301886D02*
X217227252Y-97325695D01*
X217227252Y-97325695D02*
X217203442Y-97373314D01*
X217203442Y-97373314D02*
X217203442Y-97444743D01*
X217203442Y-97444743D02*
X217179633Y-97492362D01*
X217179633Y-97492362D02*
X217132014Y-97516171D01*
X217132014Y-97516171D02*
X217108204Y-97516171D01*
X217108204Y-97516171D02*
X217060585Y-97492362D01*
X217060585Y-97492362D02*
X217036776Y-97444743D01*
X217036776Y-97444743D02*
X217036776Y-97373314D01*
X217036776Y-97373314D02*
X217060585Y-97325695D01*
X217322490Y-97087600D02*
X217346300Y-97063790D01*
X217346300Y-97063790D02*
X217370109Y-97087600D01*
X217370109Y-97087600D02*
X217346300Y-97111409D01*
X217346300Y-97111409D02*
X217322490Y-97087600D01*
X217322490Y-97087600D02*
X217370109Y-97087600D01*
X217060585Y-97087600D02*
X217084395Y-97063790D01*
X217084395Y-97063790D02*
X217108204Y-97087600D01*
X217108204Y-97087600D02*
X217084395Y-97111409D01*
X217084395Y-97111409D02*
X217060585Y-97087600D01*
X217060585Y-97087600D02*
X217108204Y-97087600D01*
X216846300Y-96492362D02*
X217489157Y-96920933D01*
X216846300Y-95968552D02*
X217489157Y-96397123D01*
X217036776Y-95849504D02*
X217370109Y-95754266D01*
X217370109Y-95754266D02*
X217132014Y-95659028D01*
X217132014Y-95659028D02*
X217370109Y-95563790D01*
X217370109Y-95563790D02*
X217036776Y-95468552D01*
X217036776Y-95325694D02*
X217370109Y-95230456D01*
X217370109Y-95230456D02*
X217132014Y-95135218D01*
X217132014Y-95135218D02*
X217370109Y-95039980D01*
X217370109Y-95039980D02*
X217036776Y-94944742D01*
X217036776Y-94801884D02*
X217370109Y-94706646D01*
X217370109Y-94706646D02*
X217132014Y-94611408D01*
X217132014Y-94611408D02*
X217370109Y-94516170D01*
X217370109Y-94516170D02*
X217036776Y-94420932D01*
X217322490Y-94230455D02*
X217346300Y-94206645D01*
X217346300Y-94206645D02*
X217370109Y-94230455D01*
X217370109Y-94230455D02*
X217346300Y-94254264D01*
X217346300Y-94254264D02*
X217322490Y-94230455D01*
X217322490Y-94230455D02*
X217370109Y-94230455D01*
X217370109Y-93778074D02*
X217108204Y-93778074D01*
X217108204Y-93778074D02*
X217060585Y-93801884D01*
X217060585Y-93801884D02*
X217036776Y-93849503D01*
X217036776Y-93849503D02*
X217036776Y-93944741D01*
X217036776Y-93944741D02*
X217060585Y-93992360D01*
X217346300Y-93778074D02*
X217370109Y-93825693D01*
X217370109Y-93825693D02*
X217370109Y-93944741D01*
X217370109Y-93944741D02*
X217346300Y-93992360D01*
X217346300Y-93992360D02*
X217298680Y-94016169D01*
X217298680Y-94016169D02*
X217251061Y-94016169D01*
X217251061Y-94016169D02*
X217203442Y-93992360D01*
X217203442Y-93992360D02*
X217179633Y-93944741D01*
X217179633Y-93944741D02*
X217179633Y-93825693D01*
X217179633Y-93825693D02*
X217155823Y-93778074D01*
X217370109Y-93539979D02*
X217036776Y-93539979D01*
X217084395Y-93539979D02*
X217060585Y-93516169D01*
X217060585Y-93516169D02*
X217036776Y-93468550D01*
X217036776Y-93468550D02*
X217036776Y-93397122D01*
X217036776Y-93397122D02*
X217060585Y-93349503D01*
X217060585Y-93349503D02*
X217108204Y-93325693D01*
X217108204Y-93325693D02*
X217370109Y-93325693D01*
X217108204Y-93325693D02*
X217060585Y-93301884D01*
X217060585Y-93301884D02*
X217036776Y-93254265D01*
X217036776Y-93254265D02*
X217036776Y-93182836D01*
X217036776Y-93182836D02*
X217060585Y-93135217D01*
X217060585Y-93135217D02*
X217108204Y-93111407D01*
X217108204Y-93111407D02*
X217370109Y-93111407D01*
X217370109Y-92659026D02*
X217108204Y-92659026D01*
X217108204Y-92659026D02*
X217060585Y-92682836D01*
X217060585Y-92682836D02*
X217036776Y-92730455D01*
X217036776Y-92730455D02*
X217036776Y-92825693D01*
X217036776Y-92825693D02*
X217060585Y-92873312D01*
X217346300Y-92659026D02*
X217370109Y-92706645D01*
X217370109Y-92706645D02*
X217370109Y-92825693D01*
X217370109Y-92825693D02*
X217346300Y-92873312D01*
X217346300Y-92873312D02*
X217298680Y-92897121D01*
X217298680Y-92897121D02*
X217251061Y-92897121D01*
X217251061Y-92897121D02*
X217203442Y-92873312D01*
X217203442Y-92873312D02*
X217179633Y-92825693D01*
X217179633Y-92825693D02*
X217179633Y-92706645D01*
X217179633Y-92706645D02*
X217155823Y-92659026D01*
X217036776Y-92468550D02*
X217036776Y-92206645D01*
X217036776Y-92206645D02*
X217370109Y-92468550D01*
X217370109Y-92468550D02*
X217370109Y-92206645D01*
X217370109Y-91944740D02*
X217346300Y-91992359D01*
X217346300Y-91992359D02*
X217322490Y-92016169D01*
X217322490Y-92016169D02*
X217274871Y-92039978D01*
X217274871Y-92039978D02*
X217132014Y-92039978D01*
X217132014Y-92039978D02*
X217084395Y-92016169D01*
X217084395Y-92016169D02*
X217060585Y-91992359D01*
X217060585Y-91992359D02*
X217036776Y-91944740D01*
X217036776Y-91944740D02*
X217036776Y-91873312D01*
X217036776Y-91873312D02*
X217060585Y-91825693D01*
X217060585Y-91825693D02*
X217084395Y-91801883D01*
X217084395Y-91801883D02*
X217132014Y-91778074D01*
X217132014Y-91778074D02*
X217274871Y-91778074D01*
X217274871Y-91778074D02*
X217322490Y-91801883D01*
X217322490Y-91801883D02*
X217346300Y-91825693D01*
X217346300Y-91825693D02*
X217370109Y-91873312D01*
X217370109Y-91873312D02*
X217370109Y-91944740D01*
X217036776Y-91563788D02*
X217370109Y-91563788D01*
X217084395Y-91563788D02*
X217060585Y-91539978D01*
X217060585Y-91539978D02*
X217036776Y-91492359D01*
X217036776Y-91492359D02*
X217036776Y-91420931D01*
X217036776Y-91420931D02*
X217060585Y-91373312D01*
X217060585Y-91373312D02*
X217108204Y-91349502D01*
X217108204Y-91349502D02*
X217370109Y-91349502D01*
X217322490Y-91111407D02*
X217346300Y-91087597D01*
X217346300Y-91087597D02*
X217370109Y-91111407D01*
X217370109Y-91111407D02*
X217346300Y-91135216D01*
X217346300Y-91135216D02*
X217322490Y-91111407D01*
X217322490Y-91111407D02*
X217370109Y-91111407D01*
X217346300Y-90659026D02*
X217370109Y-90706645D01*
X217370109Y-90706645D02*
X217370109Y-90801883D01*
X217370109Y-90801883D02*
X217346300Y-90849502D01*
X217346300Y-90849502D02*
X217322490Y-90873312D01*
X217322490Y-90873312D02*
X217274871Y-90897121D01*
X217274871Y-90897121D02*
X217132014Y-90897121D01*
X217132014Y-90897121D02*
X217084395Y-90873312D01*
X217084395Y-90873312D02*
X217060585Y-90849502D01*
X217060585Y-90849502D02*
X217036776Y-90801883D01*
X217036776Y-90801883D02*
X217036776Y-90706645D01*
X217036776Y-90706645D02*
X217060585Y-90659026D01*
X217370109Y-90373312D02*
X217346300Y-90420931D01*
X217346300Y-90420931D02*
X217322490Y-90444741D01*
X217322490Y-90444741D02*
X217274871Y-90468550D01*
X217274871Y-90468550D02*
X217132014Y-90468550D01*
X217132014Y-90468550D02*
X217084395Y-90444741D01*
X217084395Y-90444741D02*
X217060585Y-90420931D01*
X217060585Y-90420931D02*
X217036776Y-90373312D01*
X217036776Y-90373312D02*
X217036776Y-90301884D01*
X217036776Y-90301884D02*
X217060585Y-90254265D01*
X217060585Y-90254265D02*
X217084395Y-90230455D01*
X217084395Y-90230455D02*
X217132014Y-90206646D01*
X217132014Y-90206646D02*
X217274871Y-90206646D01*
X217274871Y-90206646D02*
X217322490Y-90230455D01*
X217322490Y-90230455D02*
X217346300Y-90254265D01*
X217346300Y-90254265D02*
X217370109Y-90301884D01*
X217370109Y-90301884D02*
X217370109Y-90373312D01*
X217370109Y-89992360D02*
X217036776Y-89992360D01*
X217084395Y-89992360D02*
X217060585Y-89968550D01*
X217060585Y-89968550D02*
X217036776Y-89920931D01*
X217036776Y-89920931D02*
X217036776Y-89849503D01*
X217036776Y-89849503D02*
X217060585Y-89801884D01*
X217060585Y-89801884D02*
X217108204Y-89778074D01*
X217108204Y-89778074D02*
X217370109Y-89778074D01*
X217108204Y-89778074D02*
X217060585Y-89754265D01*
X217060585Y-89754265D02*
X217036776Y-89706646D01*
X217036776Y-89706646D02*
X217036776Y-89635217D01*
X217036776Y-89635217D02*
X217060585Y-89587598D01*
X217060585Y-89587598D02*
X217108204Y-89563788D01*
X217108204Y-89563788D02*
X217370109Y-89563788D01*
X216846300Y-88968550D02*
X217489157Y-89397121D01*
X217036776Y-88587597D02*
X217441538Y-88587597D01*
X217441538Y-88587597D02*
X217489157Y-88611407D01*
X217489157Y-88611407D02*
X217512966Y-88635216D01*
X217512966Y-88635216D02*
X217536776Y-88682835D01*
X217536776Y-88682835D02*
X217536776Y-88754264D01*
X217536776Y-88754264D02*
X217512966Y-88801883D01*
X217346300Y-88587597D02*
X217370109Y-88635216D01*
X217370109Y-88635216D02*
X217370109Y-88730454D01*
X217370109Y-88730454D02*
X217346300Y-88778073D01*
X217346300Y-88778073D02*
X217322490Y-88801883D01*
X217322490Y-88801883D02*
X217274871Y-88825692D01*
X217274871Y-88825692D02*
X217132014Y-88825692D01*
X217132014Y-88825692D02*
X217084395Y-88801883D01*
X217084395Y-88801883D02*
X217060585Y-88778073D01*
X217060585Y-88778073D02*
X217036776Y-88730454D01*
X217036776Y-88730454D02*
X217036776Y-88635216D01*
X217036776Y-88635216D02*
X217060585Y-88587597D01*
X217036776Y-88349502D02*
X217536776Y-88349502D01*
X217060585Y-88349502D02*
X217036776Y-88301883D01*
X217036776Y-88301883D02*
X217036776Y-88206645D01*
X217036776Y-88206645D02*
X217060585Y-88159026D01*
X217060585Y-88159026D02*
X217084395Y-88135216D01*
X217084395Y-88135216D02*
X217132014Y-88111407D01*
X217132014Y-88111407D02*
X217274871Y-88111407D01*
X217274871Y-88111407D02*
X217322490Y-88135216D01*
X217322490Y-88135216D02*
X217346300Y-88159026D01*
X217346300Y-88159026D02*
X217370109Y-88206645D01*
X217370109Y-88206645D02*
X217370109Y-88301883D01*
X217370109Y-88301883D02*
X217346300Y-88349502D01*
X216846300Y-87539978D02*
X217489157Y-87968549D01*
X217036776Y-87373311D02*
X217536776Y-87373311D01*
X217060585Y-87373311D02*
X217036776Y-87325692D01*
X217036776Y-87325692D02*
X217036776Y-87230454D01*
X217036776Y-87230454D02*
X217060585Y-87182835D01*
X217060585Y-87182835D02*
X217084395Y-87159025D01*
X217084395Y-87159025D02*
X217132014Y-87135216D01*
X217132014Y-87135216D02*
X217274871Y-87135216D01*
X217274871Y-87135216D02*
X217322490Y-87159025D01*
X217322490Y-87159025D02*
X217346300Y-87182835D01*
X217346300Y-87182835D02*
X217370109Y-87230454D01*
X217370109Y-87230454D02*
X217370109Y-87325692D01*
X217370109Y-87325692D02*
X217346300Y-87373311D01*
X217370109Y-86920930D02*
X217036776Y-86920930D01*
X217132014Y-86920930D02*
X217084395Y-86897120D01*
X217084395Y-86897120D02*
X217060585Y-86873311D01*
X217060585Y-86873311D02*
X217036776Y-86825692D01*
X217036776Y-86825692D02*
X217036776Y-86778073D01*
X217370109Y-86539977D02*
X217346300Y-86587596D01*
X217346300Y-86587596D02*
X217322490Y-86611406D01*
X217322490Y-86611406D02*
X217274871Y-86635215D01*
X217274871Y-86635215D02*
X217132014Y-86635215D01*
X217132014Y-86635215D02*
X217084395Y-86611406D01*
X217084395Y-86611406D02*
X217060585Y-86587596D01*
X217060585Y-86587596D02*
X217036776Y-86539977D01*
X217036776Y-86539977D02*
X217036776Y-86468549D01*
X217036776Y-86468549D02*
X217060585Y-86420930D01*
X217060585Y-86420930D02*
X217084395Y-86397120D01*
X217084395Y-86397120D02*
X217132014Y-86373311D01*
X217132014Y-86373311D02*
X217274871Y-86373311D01*
X217274871Y-86373311D02*
X217322490Y-86397120D01*
X217322490Y-86397120D02*
X217346300Y-86420930D01*
X217346300Y-86420930D02*
X217370109Y-86468549D01*
X217370109Y-86468549D02*
X217370109Y-86539977D01*
X217370109Y-85944739D02*
X216870109Y-85944739D01*
X217346300Y-85944739D02*
X217370109Y-85992358D01*
X217370109Y-85992358D02*
X217370109Y-86087596D01*
X217370109Y-86087596D02*
X217346300Y-86135215D01*
X217346300Y-86135215D02*
X217322490Y-86159025D01*
X217322490Y-86159025D02*
X217274871Y-86182834D01*
X217274871Y-86182834D02*
X217132014Y-86182834D01*
X217132014Y-86182834D02*
X217084395Y-86159025D01*
X217084395Y-86159025D02*
X217060585Y-86135215D01*
X217060585Y-86135215D02*
X217036776Y-86087596D01*
X217036776Y-86087596D02*
X217036776Y-85992358D01*
X217036776Y-85992358D02*
X217060585Y-85944739D01*
X217036776Y-85492358D02*
X217370109Y-85492358D01*
X217036776Y-85706644D02*
X217298680Y-85706644D01*
X217298680Y-85706644D02*
X217346300Y-85682834D01*
X217346300Y-85682834D02*
X217370109Y-85635215D01*
X217370109Y-85635215D02*
X217370109Y-85563787D01*
X217370109Y-85563787D02*
X217346300Y-85516168D01*
X217346300Y-85516168D02*
X217322490Y-85492358D01*
X217346300Y-85039977D02*
X217370109Y-85087596D01*
X217370109Y-85087596D02*
X217370109Y-85182834D01*
X217370109Y-85182834D02*
X217346300Y-85230453D01*
X217346300Y-85230453D02*
X217322490Y-85254263D01*
X217322490Y-85254263D02*
X217274871Y-85278072D01*
X217274871Y-85278072D02*
X217132014Y-85278072D01*
X217132014Y-85278072D02*
X217084395Y-85254263D01*
X217084395Y-85254263D02*
X217060585Y-85230453D01*
X217060585Y-85230453D02*
X217036776Y-85182834D01*
X217036776Y-85182834D02*
X217036776Y-85087596D01*
X217036776Y-85087596D02*
X217060585Y-85039977D01*
X217036776Y-84897120D02*
X217036776Y-84706644D01*
X216870109Y-84825692D02*
X217298680Y-84825692D01*
X217298680Y-84825692D02*
X217346300Y-84801882D01*
X217346300Y-84801882D02*
X217370109Y-84754263D01*
X217370109Y-84754263D02*
X217370109Y-84706644D01*
X216846300Y-84182835D02*
X217489157Y-84611406D01*
X217108204Y-83849501D02*
X217132014Y-83778073D01*
X217132014Y-83778073D02*
X217155823Y-83754263D01*
X217155823Y-83754263D02*
X217203442Y-83730454D01*
X217203442Y-83730454D02*
X217274871Y-83730454D01*
X217274871Y-83730454D02*
X217322490Y-83754263D01*
X217322490Y-83754263D02*
X217346300Y-83778073D01*
X217346300Y-83778073D02*
X217370109Y-83825692D01*
X217370109Y-83825692D02*
X217370109Y-84016168D01*
X217370109Y-84016168D02*
X216870109Y-84016168D01*
X216870109Y-84016168D02*
X216870109Y-83849501D01*
X216870109Y-83849501D02*
X216893919Y-83801882D01*
X216893919Y-83801882D02*
X216917728Y-83778073D01*
X216917728Y-83778073D02*
X216965347Y-83754263D01*
X216965347Y-83754263D02*
X217012966Y-83754263D01*
X217012966Y-83754263D02*
X217060585Y-83778073D01*
X217060585Y-83778073D02*
X217084395Y-83801882D01*
X217084395Y-83801882D02*
X217108204Y-83849501D01*
X217108204Y-83849501D02*
X217108204Y-84016168D01*
X216870109Y-83420930D02*
X216870109Y-83373311D01*
X216870109Y-83373311D02*
X216893919Y-83325692D01*
X216893919Y-83325692D02*
X216917728Y-83301882D01*
X216917728Y-83301882D02*
X216965347Y-83278073D01*
X216965347Y-83278073D02*
X217060585Y-83254263D01*
X217060585Y-83254263D02*
X217179633Y-83254263D01*
X217179633Y-83254263D02*
X217274871Y-83278073D01*
X217274871Y-83278073D02*
X217322490Y-83301882D01*
X217322490Y-83301882D02*
X217346300Y-83325692D01*
X217346300Y-83325692D02*
X217370109Y-83373311D01*
X217370109Y-83373311D02*
X217370109Y-83420930D01*
X217370109Y-83420930D02*
X217346300Y-83468549D01*
X217346300Y-83468549D02*
X217322490Y-83492358D01*
X217322490Y-83492358D02*
X217274871Y-83516168D01*
X217274871Y-83516168D02*
X217179633Y-83539977D01*
X217179633Y-83539977D02*
X217060585Y-83539977D01*
X217060585Y-83539977D02*
X216965347Y-83516168D01*
X216965347Y-83516168D02*
X216917728Y-83492358D01*
X216917728Y-83492358D02*
X216893919Y-83468549D01*
X216893919Y-83468549D02*
X216870109Y-83420930D01*
X217084395Y-82968549D02*
X217060585Y-83016168D01*
X217060585Y-83016168D02*
X217036776Y-83039978D01*
X217036776Y-83039978D02*
X216989157Y-83063787D01*
X216989157Y-83063787D02*
X216965347Y-83063787D01*
X216965347Y-83063787D02*
X216917728Y-83039978D01*
X216917728Y-83039978D02*
X216893919Y-83016168D01*
X216893919Y-83016168D02*
X216870109Y-82968549D01*
X216870109Y-82968549D02*
X216870109Y-82873311D01*
X216870109Y-82873311D02*
X216893919Y-82825692D01*
X216893919Y-82825692D02*
X216917728Y-82801883D01*
X216917728Y-82801883D02*
X216965347Y-82778073D01*
X216965347Y-82778073D02*
X216989157Y-82778073D01*
X216989157Y-82778073D02*
X217036776Y-82801883D01*
X217036776Y-82801883D02*
X217060585Y-82825692D01*
X217060585Y-82825692D02*
X217084395Y-82873311D01*
X217084395Y-82873311D02*
X217084395Y-82968549D01*
X217084395Y-82968549D02*
X217108204Y-83016168D01*
X217108204Y-83016168D02*
X217132014Y-83039978D01*
X217132014Y-83039978D02*
X217179633Y-83063787D01*
X217179633Y-83063787D02*
X217274871Y-83063787D01*
X217274871Y-83063787D02*
X217322490Y-83039978D01*
X217322490Y-83039978D02*
X217346300Y-83016168D01*
X217346300Y-83016168D02*
X217370109Y-82968549D01*
X217370109Y-82968549D02*
X217370109Y-82873311D01*
X217370109Y-82873311D02*
X217346300Y-82825692D01*
X217346300Y-82825692D02*
X217322490Y-82801883D01*
X217322490Y-82801883D02*
X217274871Y-82778073D01*
X217274871Y-82778073D02*
X217179633Y-82778073D01*
X217179633Y-82778073D02*
X217132014Y-82801883D01*
X217132014Y-82801883D02*
X217108204Y-82825692D01*
X217108204Y-82825692D02*
X217084395Y-82873311D01*
X216870109Y-82420931D02*
X217227252Y-82420931D01*
X217227252Y-82420931D02*
X217298680Y-82444740D01*
X217298680Y-82444740D02*
X217346300Y-82492359D01*
X217346300Y-82492359D02*
X217370109Y-82563788D01*
X217370109Y-82563788D02*
X217370109Y-82611407D01*
X216870109Y-82230455D02*
X216870109Y-81897122D01*
X216870109Y-81897122D02*
X217370109Y-82230455D01*
X217370109Y-82230455D02*
X217370109Y-81897122D01*
X216870109Y-81468551D02*
X216870109Y-81706646D01*
X216870109Y-81706646D02*
X217108204Y-81730455D01*
X217108204Y-81730455D02*
X217084395Y-81706646D01*
X217084395Y-81706646D02*
X217060585Y-81659027D01*
X217060585Y-81659027D02*
X217060585Y-81539979D01*
X217060585Y-81539979D02*
X217084395Y-81492360D01*
X217084395Y-81492360D02*
X217108204Y-81468551D01*
X217108204Y-81468551D02*
X217155823Y-81444741D01*
X217155823Y-81444741D02*
X217274871Y-81444741D01*
X217274871Y-81444741D02*
X217322490Y-81468551D01*
X217322490Y-81468551D02*
X217346300Y-81492360D01*
X217346300Y-81492360D02*
X217370109Y-81539979D01*
X217370109Y-81539979D02*
X217370109Y-81659027D01*
X217370109Y-81659027D02*
X217346300Y-81706646D01*
X217346300Y-81706646D02*
X217322490Y-81730455D01*
X217108204Y-81063789D02*
X217108204Y-81230456D01*
X217370109Y-81230456D02*
X216870109Y-81230456D01*
X216870109Y-81230456D02*
X216870109Y-80992361D01*
X216870109Y-80873313D02*
X217370109Y-80706647D01*
X217370109Y-80706647D02*
X216870109Y-80539980D01*
X217370109Y-80135219D02*
X217370109Y-80373314D01*
X217370109Y-80373314D02*
X216870109Y-80373314D01*
X217322490Y-79682838D02*
X217346300Y-79706647D01*
X217346300Y-79706647D02*
X217370109Y-79778076D01*
X217370109Y-79778076D02*
X217370109Y-79825695D01*
X217370109Y-79825695D02*
X217346300Y-79897123D01*
X217346300Y-79897123D02*
X217298680Y-79944742D01*
X217298680Y-79944742D02*
X217251061Y-79968552D01*
X217251061Y-79968552D02*
X217155823Y-79992361D01*
X217155823Y-79992361D02*
X217084395Y-79992361D01*
X217084395Y-79992361D02*
X216989157Y-79968552D01*
X216989157Y-79968552D02*
X216941538Y-79944742D01*
X216941538Y-79944742D02*
X216893919Y-79897123D01*
X216893919Y-79897123D02*
X216870109Y-79825695D01*
X216870109Y-79825695D02*
X216870109Y-79778076D01*
X216870109Y-79778076D02*
X216893919Y-79706647D01*
X216893919Y-79706647D02*
X216917728Y-79682838D01*
X212885109Y-95356467D02*
X212385109Y-95356467D01*
X212885109Y-95142181D02*
X212623204Y-95142181D01*
X212623204Y-95142181D02*
X212575585Y-95165991D01*
X212575585Y-95165991D02*
X212551776Y-95213610D01*
X212551776Y-95213610D02*
X212551776Y-95285038D01*
X212551776Y-95285038D02*
X212575585Y-95332657D01*
X212575585Y-95332657D02*
X212599395Y-95356467D01*
X212551776Y-94975514D02*
X212551776Y-94785038D01*
X212385109Y-94904086D02*
X212813680Y-94904086D01*
X212813680Y-94904086D02*
X212861300Y-94880276D01*
X212861300Y-94880276D02*
X212885109Y-94832657D01*
X212885109Y-94832657D02*
X212885109Y-94785038D01*
X212551776Y-94689800D02*
X212551776Y-94499324D01*
X212385109Y-94618372D02*
X212813680Y-94618372D01*
X212813680Y-94618372D02*
X212861300Y-94594562D01*
X212861300Y-94594562D02*
X212885109Y-94546943D01*
X212885109Y-94546943D02*
X212885109Y-94499324D01*
X212551776Y-94332658D02*
X213051776Y-94332658D01*
X212575585Y-94332658D02*
X212551776Y-94285039D01*
X212551776Y-94285039D02*
X212551776Y-94189801D01*
X212551776Y-94189801D02*
X212575585Y-94142182D01*
X212575585Y-94142182D02*
X212599395Y-94118372D01*
X212599395Y-94118372D02*
X212647014Y-94094563D01*
X212647014Y-94094563D02*
X212789871Y-94094563D01*
X212789871Y-94094563D02*
X212837490Y-94118372D01*
X212837490Y-94118372D02*
X212861300Y-94142182D01*
X212861300Y-94142182D02*
X212885109Y-94189801D01*
X212885109Y-94189801D02*
X212885109Y-94285039D01*
X212885109Y-94285039D02*
X212861300Y-94332658D01*
X212861300Y-93904086D02*
X212885109Y-93856467D01*
X212885109Y-93856467D02*
X212885109Y-93761229D01*
X212885109Y-93761229D02*
X212861300Y-93713610D01*
X212861300Y-93713610D02*
X212813680Y-93689801D01*
X212813680Y-93689801D02*
X212789871Y-93689801D01*
X212789871Y-93689801D02*
X212742252Y-93713610D01*
X212742252Y-93713610D02*
X212718442Y-93761229D01*
X212718442Y-93761229D02*
X212718442Y-93832658D01*
X212718442Y-93832658D02*
X212694633Y-93880277D01*
X212694633Y-93880277D02*
X212647014Y-93904086D01*
X212647014Y-93904086D02*
X212623204Y-93904086D01*
X212623204Y-93904086D02*
X212575585Y-93880277D01*
X212575585Y-93880277D02*
X212551776Y-93832658D01*
X212551776Y-93832658D02*
X212551776Y-93761229D01*
X212551776Y-93761229D02*
X212575585Y-93713610D01*
X212837490Y-93475515D02*
X212861300Y-93451705D01*
X212861300Y-93451705D02*
X212885109Y-93475515D01*
X212885109Y-93475515D02*
X212861300Y-93499324D01*
X212861300Y-93499324D02*
X212837490Y-93475515D01*
X212837490Y-93475515D02*
X212885109Y-93475515D01*
X212575585Y-93475515D02*
X212599395Y-93451705D01*
X212599395Y-93451705D02*
X212623204Y-93475515D01*
X212623204Y-93475515D02*
X212599395Y-93499324D01*
X212599395Y-93499324D02*
X212575585Y-93475515D01*
X212575585Y-93475515D02*
X212623204Y-93475515D01*
X212361300Y-92880277D02*
X213004157Y-93308848D01*
X212361300Y-92356467D02*
X213004157Y-92785038D01*
X212551776Y-92237419D02*
X212885109Y-92142181D01*
X212885109Y-92142181D02*
X212647014Y-92046943D01*
X212647014Y-92046943D02*
X212885109Y-91951705D01*
X212885109Y-91951705D02*
X212551776Y-91856467D01*
X212551776Y-91713609D02*
X212885109Y-91618371D01*
X212885109Y-91618371D02*
X212647014Y-91523133D01*
X212647014Y-91523133D02*
X212885109Y-91427895D01*
X212885109Y-91427895D02*
X212551776Y-91332657D01*
X212551776Y-91189799D02*
X212885109Y-91094561D01*
X212885109Y-91094561D02*
X212647014Y-90999323D01*
X212647014Y-90999323D02*
X212885109Y-90904085D01*
X212885109Y-90904085D02*
X212551776Y-90808847D01*
X212837490Y-90618370D02*
X212861300Y-90594560D01*
X212861300Y-90594560D02*
X212885109Y-90618370D01*
X212885109Y-90618370D02*
X212861300Y-90642179D01*
X212861300Y-90642179D02*
X212837490Y-90618370D01*
X212837490Y-90618370D02*
X212885109Y-90618370D01*
X212885109Y-90165989D02*
X212623204Y-90165989D01*
X212623204Y-90165989D02*
X212575585Y-90189799D01*
X212575585Y-90189799D02*
X212551776Y-90237418D01*
X212551776Y-90237418D02*
X212551776Y-90332656D01*
X212551776Y-90332656D02*
X212575585Y-90380275D01*
X212861300Y-90165989D02*
X212885109Y-90213608D01*
X212885109Y-90213608D02*
X212885109Y-90332656D01*
X212885109Y-90332656D02*
X212861300Y-90380275D01*
X212861300Y-90380275D02*
X212813680Y-90404084D01*
X212813680Y-90404084D02*
X212766061Y-90404084D01*
X212766061Y-90404084D02*
X212718442Y-90380275D01*
X212718442Y-90380275D02*
X212694633Y-90332656D01*
X212694633Y-90332656D02*
X212694633Y-90213608D01*
X212694633Y-90213608D02*
X212670823Y-90165989D01*
X212885109Y-89927894D02*
X212551776Y-89927894D01*
X212599395Y-89927894D02*
X212575585Y-89904084D01*
X212575585Y-89904084D02*
X212551776Y-89856465D01*
X212551776Y-89856465D02*
X212551776Y-89785037D01*
X212551776Y-89785037D02*
X212575585Y-89737418D01*
X212575585Y-89737418D02*
X212623204Y-89713608D01*
X212623204Y-89713608D02*
X212885109Y-89713608D01*
X212623204Y-89713608D02*
X212575585Y-89689799D01*
X212575585Y-89689799D02*
X212551776Y-89642180D01*
X212551776Y-89642180D02*
X212551776Y-89570751D01*
X212551776Y-89570751D02*
X212575585Y-89523132D01*
X212575585Y-89523132D02*
X212623204Y-89499322D01*
X212623204Y-89499322D02*
X212885109Y-89499322D01*
X212885109Y-89046941D02*
X212623204Y-89046941D01*
X212623204Y-89046941D02*
X212575585Y-89070751D01*
X212575585Y-89070751D02*
X212551776Y-89118370D01*
X212551776Y-89118370D02*
X212551776Y-89213608D01*
X212551776Y-89213608D02*
X212575585Y-89261227D01*
X212861300Y-89046941D02*
X212885109Y-89094560D01*
X212885109Y-89094560D02*
X212885109Y-89213608D01*
X212885109Y-89213608D02*
X212861300Y-89261227D01*
X212861300Y-89261227D02*
X212813680Y-89285036D01*
X212813680Y-89285036D02*
X212766061Y-89285036D01*
X212766061Y-89285036D02*
X212718442Y-89261227D01*
X212718442Y-89261227D02*
X212694633Y-89213608D01*
X212694633Y-89213608D02*
X212694633Y-89094560D01*
X212694633Y-89094560D02*
X212670823Y-89046941D01*
X212551776Y-88856465D02*
X212551776Y-88594560D01*
X212551776Y-88594560D02*
X212885109Y-88856465D01*
X212885109Y-88856465D02*
X212885109Y-88594560D01*
X212885109Y-88332655D02*
X212861300Y-88380274D01*
X212861300Y-88380274D02*
X212837490Y-88404084D01*
X212837490Y-88404084D02*
X212789871Y-88427893D01*
X212789871Y-88427893D02*
X212647014Y-88427893D01*
X212647014Y-88427893D02*
X212599395Y-88404084D01*
X212599395Y-88404084D02*
X212575585Y-88380274D01*
X212575585Y-88380274D02*
X212551776Y-88332655D01*
X212551776Y-88332655D02*
X212551776Y-88261227D01*
X212551776Y-88261227D02*
X212575585Y-88213608D01*
X212575585Y-88213608D02*
X212599395Y-88189798D01*
X212599395Y-88189798D02*
X212647014Y-88165989D01*
X212647014Y-88165989D02*
X212789871Y-88165989D01*
X212789871Y-88165989D02*
X212837490Y-88189798D01*
X212837490Y-88189798D02*
X212861300Y-88213608D01*
X212861300Y-88213608D02*
X212885109Y-88261227D01*
X212885109Y-88261227D02*
X212885109Y-88332655D01*
X212551776Y-87951703D02*
X212885109Y-87951703D01*
X212599395Y-87951703D02*
X212575585Y-87927893D01*
X212575585Y-87927893D02*
X212551776Y-87880274D01*
X212551776Y-87880274D02*
X212551776Y-87808846D01*
X212551776Y-87808846D02*
X212575585Y-87761227D01*
X212575585Y-87761227D02*
X212623204Y-87737417D01*
X212623204Y-87737417D02*
X212885109Y-87737417D01*
X212837490Y-87499322D02*
X212861300Y-87475512D01*
X212861300Y-87475512D02*
X212885109Y-87499322D01*
X212885109Y-87499322D02*
X212861300Y-87523131D01*
X212861300Y-87523131D02*
X212837490Y-87499322D01*
X212837490Y-87499322D02*
X212885109Y-87499322D01*
X212861300Y-87046941D02*
X212885109Y-87094560D01*
X212885109Y-87094560D02*
X212885109Y-87189798D01*
X212885109Y-87189798D02*
X212861300Y-87237417D01*
X212861300Y-87237417D02*
X212837490Y-87261227D01*
X212837490Y-87261227D02*
X212789871Y-87285036D01*
X212789871Y-87285036D02*
X212647014Y-87285036D01*
X212647014Y-87285036D02*
X212599395Y-87261227D01*
X212599395Y-87261227D02*
X212575585Y-87237417D01*
X212575585Y-87237417D02*
X212551776Y-87189798D01*
X212551776Y-87189798D02*
X212551776Y-87094560D01*
X212551776Y-87094560D02*
X212575585Y-87046941D01*
X212885109Y-86761227D02*
X212861300Y-86808846D01*
X212861300Y-86808846D02*
X212837490Y-86832656D01*
X212837490Y-86832656D02*
X212789871Y-86856465D01*
X212789871Y-86856465D02*
X212647014Y-86856465D01*
X212647014Y-86856465D02*
X212599395Y-86832656D01*
X212599395Y-86832656D02*
X212575585Y-86808846D01*
X212575585Y-86808846D02*
X212551776Y-86761227D01*
X212551776Y-86761227D02*
X212551776Y-86689799D01*
X212551776Y-86689799D02*
X212575585Y-86642180D01*
X212575585Y-86642180D02*
X212599395Y-86618370D01*
X212599395Y-86618370D02*
X212647014Y-86594561D01*
X212647014Y-86594561D02*
X212789871Y-86594561D01*
X212789871Y-86594561D02*
X212837490Y-86618370D01*
X212837490Y-86618370D02*
X212861300Y-86642180D01*
X212861300Y-86642180D02*
X212885109Y-86689799D01*
X212885109Y-86689799D02*
X212885109Y-86761227D01*
X212885109Y-86380275D02*
X212551776Y-86380275D01*
X212599395Y-86380275D02*
X212575585Y-86356465D01*
X212575585Y-86356465D02*
X212551776Y-86308846D01*
X212551776Y-86308846D02*
X212551776Y-86237418D01*
X212551776Y-86237418D02*
X212575585Y-86189799D01*
X212575585Y-86189799D02*
X212623204Y-86165989D01*
X212623204Y-86165989D02*
X212885109Y-86165989D01*
X212623204Y-86165989D02*
X212575585Y-86142180D01*
X212575585Y-86142180D02*
X212551776Y-86094561D01*
X212551776Y-86094561D02*
X212551776Y-86023132D01*
X212551776Y-86023132D02*
X212575585Y-85975513D01*
X212575585Y-85975513D02*
X212623204Y-85951703D01*
X212623204Y-85951703D02*
X212885109Y-85951703D01*
X212361300Y-85356465D02*
X213004157Y-85785036D01*
X212885109Y-84975512D02*
X212385109Y-84975512D01*
X212861300Y-84975512D02*
X212885109Y-85023131D01*
X212885109Y-85023131D02*
X212885109Y-85118369D01*
X212885109Y-85118369D02*
X212861300Y-85165988D01*
X212861300Y-85165988D02*
X212837490Y-85189798D01*
X212837490Y-85189798D02*
X212789871Y-85213607D01*
X212789871Y-85213607D02*
X212647014Y-85213607D01*
X212647014Y-85213607D02*
X212599395Y-85189798D01*
X212599395Y-85189798D02*
X212575585Y-85165988D01*
X212575585Y-85165988D02*
X212551776Y-85118369D01*
X212551776Y-85118369D02*
X212551776Y-85023131D01*
X212551776Y-85023131D02*
X212575585Y-84975512D01*
X212551776Y-84737417D02*
X213051776Y-84737417D01*
X212575585Y-84737417D02*
X212551776Y-84689798D01*
X212551776Y-84689798D02*
X212551776Y-84594560D01*
X212551776Y-84594560D02*
X212575585Y-84546941D01*
X212575585Y-84546941D02*
X212599395Y-84523131D01*
X212599395Y-84523131D02*
X212647014Y-84499322D01*
X212647014Y-84499322D02*
X212789871Y-84499322D01*
X212789871Y-84499322D02*
X212837490Y-84523131D01*
X212837490Y-84523131D02*
X212861300Y-84546941D01*
X212861300Y-84546941D02*
X212885109Y-84594560D01*
X212885109Y-84594560D02*
X212885109Y-84689798D01*
X212885109Y-84689798D02*
X212861300Y-84737417D01*
X212361300Y-83927893D02*
X213004157Y-84356464D01*
X212623204Y-83594559D02*
X212647014Y-83523131D01*
X212647014Y-83523131D02*
X212670823Y-83499321D01*
X212670823Y-83499321D02*
X212718442Y-83475512D01*
X212718442Y-83475512D02*
X212789871Y-83475512D01*
X212789871Y-83475512D02*
X212837490Y-83499321D01*
X212837490Y-83499321D02*
X212861300Y-83523131D01*
X212861300Y-83523131D02*
X212885109Y-83570750D01*
X212885109Y-83570750D02*
X212885109Y-83761226D01*
X212885109Y-83761226D02*
X212385109Y-83761226D01*
X212385109Y-83761226D02*
X212385109Y-83594559D01*
X212385109Y-83594559D02*
X212408919Y-83546940D01*
X212408919Y-83546940D02*
X212432728Y-83523131D01*
X212432728Y-83523131D02*
X212480347Y-83499321D01*
X212480347Y-83499321D02*
X212527966Y-83499321D01*
X212527966Y-83499321D02*
X212575585Y-83523131D01*
X212575585Y-83523131D02*
X212599395Y-83546940D01*
X212599395Y-83546940D02*
X212623204Y-83594559D01*
X212623204Y-83594559D02*
X212623204Y-83761226D01*
X212385109Y-83165988D02*
X212385109Y-83118369D01*
X212385109Y-83118369D02*
X212408919Y-83070750D01*
X212408919Y-83070750D02*
X212432728Y-83046940D01*
X212432728Y-83046940D02*
X212480347Y-83023131D01*
X212480347Y-83023131D02*
X212575585Y-82999321D01*
X212575585Y-82999321D02*
X212694633Y-82999321D01*
X212694633Y-82999321D02*
X212789871Y-83023131D01*
X212789871Y-83023131D02*
X212837490Y-83046940D01*
X212837490Y-83046940D02*
X212861300Y-83070750D01*
X212861300Y-83070750D02*
X212885109Y-83118369D01*
X212885109Y-83118369D02*
X212885109Y-83165988D01*
X212885109Y-83165988D02*
X212861300Y-83213607D01*
X212861300Y-83213607D02*
X212837490Y-83237416D01*
X212837490Y-83237416D02*
X212789871Y-83261226D01*
X212789871Y-83261226D02*
X212694633Y-83285035D01*
X212694633Y-83285035D02*
X212575585Y-83285035D01*
X212575585Y-83285035D02*
X212480347Y-83261226D01*
X212480347Y-83261226D02*
X212432728Y-83237416D01*
X212432728Y-83237416D02*
X212408919Y-83213607D01*
X212408919Y-83213607D02*
X212385109Y-83165988D01*
X212599395Y-82713607D02*
X212575585Y-82761226D01*
X212575585Y-82761226D02*
X212551776Y-82785036D01*
X212551776Y-82785036D02*
X212504157Y-82808845D01*
X212504157Y-82808845D02*
X212480347Y-82808845D01*
X212480347Y-82808845D02*
X212432728Y-82785036D01*
X212432728Y-82785036D02*
X212408919Y-82761226D01*
X212408919Y-82761226D02*
X212385109Y-82713607D01*
X212385109Y-82713607D02*
X212385109Y-82618369D01*
X212385109Y-82618369D02*
X212408919Y-82570750D01*
X212408919Y-82570750D02*
X212432728Y-82546941D01*
X212432728Y-82546941D02*
X212480347Y-82523131D01*
X212480347Y-82523131D02*
X212504157Y-82523131D01*
X212504157Y-82523131D02*
X212551776Y-82546941D01*
X212551776Y-82546941D02*
X212575585Y-82570750D01*
X212575585Y-82570750D02*
X212599395Y-82618369D01*
X212599395Y-82618369D02*
X212599395Y-82713607D01*
X212599395Y-82713607D02*
X212623204Y-82761226D01*
X212623204Y-82761226D02*
X212647014Y-82785036D01*
X212647014Y-82785036D02*
X212694633Y-82808845D01*
X212694633Y-82808845D02*
X212789871Y-82808845D01*
X212789871Y-82808845D02*
X212837490Y-82785036D01*
X212837490Y-82785036D02*
X212861300Y-82761226D01*
X212861300Y-82761226D02*
X212885109Y-82713607D01*
X212885109Y-82713607D02*
X212885109Y-82618369D01*
X212885109Y-82618369D02*
X212861300Y-82570750D01*
X212861300Y-82570750D02*
X212837490Y-82546941D01*
X212837490Y-82546941D02*
X212789871Y-82523131D01*
X212789871Y-82523131D02*
X212694633Y-82523131D01*
X212694633Y-82523131D02*
X212647014Y-82546941D01*
X212647014Y-82546941D02*
X212623204Y-82570750D01*
X212623204Y-82570750D02*
X212599395Y-82618369D01*
X212432728Y-82332655D02*
X212408919Y-82308846D01*
X212408919Y-82308846D02*
X212385109Y-82261227D01*
X212385109Y-82261227D02*
X212385109Y-82142179D01*
X212385109Y-82142179D02*
X212408919Y-82094560D01*
X212408919Y-82094560D02*
X212432728Y-82070751D01*
X212432728Y-82070751D02*
X212480347Y-82046941D01*
X212480347Y-82046941D02*
X212527966Y-82046941D01*
X212527966Y-82046941D02*
X212599395Y-82070751D01*
X212599395Y-82070751D02*
X212885109Y-82356465D01*
X212885109Y-82356465D02*
X212885109Y-82046941D01*
X212385109Y-81880275D02*
X212385109Y-81570751D01*
X212385109Y-81570751D02*
X212575585Y-81737418D01*
X212575585Y-81737418D02*
X212575585Y-81665989D01*
X212575585Y-81665989D02*
X212599395Y-81618370D01*
X212599395Y-81618370D02*
X212623204Y-81594561D01*
X212623204Y-81594561D02*
X212670823Y-81570751D01*
X212670823Y-81570751D02*
X212789871Y-81570751D01*
X212789871Y-81570751D02*
X212837490Y-81594561D01*
X212837490Y-81594561D02*
X212861300Y-81618370D01*
X212861300Y-81618370D02*
X212885109Y-81665989D01*
X212885109Y-81665989D02*
X212885109Y-81808846D01*
X212885109Y-81808846D02*
X212861300Y-81856465D01*
X212861300Y-81856465D02*
X212837490Y-81880275D01*
X212932728Y-81023133D02*
X212908919Y-81070752D01*
X212908919Y-81070752D02*
X212861300Y-81118371D01*
X212861300Y-81118371D02*
X212789871Y-81189799D01*
X212789871Y-81189799D02*
X212766061Y-81237418D01*
X212766061Y-81237418D02*
X212766061Y-81285037D01*
X212885109Y-81261228D02*
X212861300Y-81308847D01*
X212861300Y-81308847D02*
X212813680Y-81356466D01*
X212813680Y-81356466D02*
X212718442Y-81380275D01*
X212718442Y-81380275D02*
X212551776Y-81380275D01*
X212551776Y-81380275D02*
X212456538Y-81356466D01*
X212456538Y-81356466D02*
X212408919Y-81308847D01*
X212408919Y-81308847D02*
X212385109Y-81261228D01*
X212385109Y-81261228D02*
X212385109Y-81165990D01*
X212385109Y-81165990D02*
X212408919Y-81118371D01*
X212408919Y-81118371D02*
X212456538Y-81070752D01*
X212456538Y-81070752D02*
X212551776Y-81046942D01*
X212551776Y-81046942D02*
X212718442Y-81046942D01*
X212718442Y-81046942D02*
X212813680Y-81070752D01*
X212813680Y-81070752D02*
X212861300Y-81118371D01*
X212861300Y-81118371D02*
X212885109Y-81165990D01*
X212885109Y-81165990D02*
X212885109Y-81261228D01*
X212885109Y-80594561D02*
X212885109Y-80832656D01*
X212885109Y-80832656D02*
X212385109Y-80832656D01*
X212885109Y-80427894D02*
X212385109Y-80427894D01*
X212385109Y-80427894D02*
X212742252Y-80261227D01*
X212742252Y-80261227D02*
X212385109Y-80094561D01*
X212385109Y-80094561D02*
X212885109Y-80094561D01*
X212385109Y-79904084D02*
X212885109Y-79785036D01*
X212885109Y-79785036D02*
X212527966Y-79689798D01*
X212527966Y-79689798D02*
X212885109Y-79594560D01*
X212885109Y-79594560D02*
X212385109Y-79475513D01*
X212837490Y-78999322D02*
X212861300Y-79023131D01*
X212861300Y-79023131D02*
X212885109Y-79094560D01*
X212885109Y-79094560D02*
X212885109Y-79142179D01*
X212885109Y-79142179D02*
X212861300Y-79213607D01*
X212861300Y-79213607D02*
X212813680Y-79261226D01*
X212813680Y-79261226D02*
X212766061Y-79285036D01*
X212766061Y-79285036D02*
X212670823Y-79308845D01*
X212670823Y-79308845D02*
X212599395Y-79308845D01*
X212599395Y-79308845D02*
X212504157Y-79285036D01*
X212504157Y-79285036D02*
X212456538Y-79261226D01*
X212456538Y-79261226D02*
X212408919Y-79213607D01*
X212408919Y-79213607D02*
X212385109Y-79142179D01*
X212385109Y-79142179D02*
X212385109Y-79094560D01*
X212385109Y-79094560D02*
X212408919Y-79023131D01*
X212408919Y-79023131D02*
X212432728Y-78999322D01*
X213660142Y-136951564D02*
X214124428Y-136951564D01*
X214124428Y-136951564D02*
X213874428Y-137237278D01*
X213874428Y-137237278D02*
X213981571Y-137237278D01*
X213981571Y-137237278D02*
X214053000Y-137272992D01*
X214053000Y-137272992D02*
X214088714Y-137308707D01*
X214088714Y-137308707D02*
X214124428Y-137380135D01*
X214124428Y-137380135D02*
X214124428Y-137558707D01*
X214124428Y-137558707D02*
X214088714Y-137630135D01*
X214088714Y-137630135D02*
X214053000Y-137665850D01*
X214053000Y-137665850D02*
X213981571Y-137701564D01*
X213981571Y-137701564D02*
X213767285Y-137701564D01*
X213767285Y-137701564D02*
X213695857Y-137665850D01*
X213695857Y-137665850D02*
X213660142Y-137630135D01*
X214803000Y-136951564D02*
X214445857Y-136951564D01*
X214445857Y-136951564D02*
X214410143Y-137308707D01*
X214410143Y-137308707D02*
X214445857Y-137272992D01*
X214445857Y-137272992D02*
X214517286Y-137237278D01*
X214517286Y-137237278D02*
X214695857Y-137237278D01*
X214695857Y-137237278D02*
X214767286Y-137272992D01*
X214767286Y-137272992D02*
X214803000Y-137308707D01*
X214803000Y-137308707D02*
X214838714Y-137380135D01*
X214838714Y-137380135D02*
X214838714Y-137558707D01*
X214838714Y-137558707D02*
X214803000Y-137630135D01*
X214803000Y-137630135D02*
X214767286Y-137665850D01*
X214767286Y-137665850D02*
X214695857Y-137701564D01*
X214695857Y-137701564D02*
X214517286Y-137701564D01*
X214517286Y-137701564D02*
X214445857Y-137665850D01*
X214445857Y-137665850D02*
X214410143Y-137630135D01*
X215481572Y-137201564D02*
X215481572Y-137701564D01*
X215303000Y-136915850D02*
X215124429Y-137451564D01*
X215124429Y-137451564D02*
X215588714Y-137451564D01*
X216195858Y-137201564D02*
X216195858Y-137701564D01*
X216017286Y-136915850D02*
X215838715Y-137451564D01*
X215838715Y-137451564D02*
X216303000Y-137451564D01*
X216588715Y-137415850D02*
X217160144Y-137415850D01*
X217481572Y-137022992D02*
X217517286Y-136987278D01*
X217517286Y-136987278D02*
X217588715Y-136951564D01*
X217588715Y-136951564D02*
X217767286Y-136951564D01*
X217767286Y-136951564D02*
X217838715Y-136987278D01*
X217838715Y-136987278D02*
X217874429Y-137022992D01*
X217874429Y-137022992D02*
X217910143Y-137094421D01*
X217910143Y-137094421D02*
X217910143Y-137165850D01*
X217910143Y-137165850D02*
X217874429Y-137272992D01*
X217874429Y-137272992D02*
X217445857Y-137701564D01*
X217445857Y-137701564D02*
X217910143Y-137701564D01*
X71035142Y-137108364D02*
X71499428Y-137108364D01*
X71499428Y-137108364D02*
X71249428Y-137394078D01*
X71249428Y-137394078D02*
X71356571Y-137394078D01*
X71356571Y-137394078D02*
X71428000Y-137429792D01*
X71428000Y-137429792D02*
X71463714Y-137465507D01*
X71463714Y-137465507D02*
X71499428Y-137536935D01*
X71499428Y-137536935D02*
X71499428Y-137715507D01*
X71499428Y-137715507D02*
X71463714Y-137786935D01*
X71463714Y-137786935D02*
X71428000Y-137822650D01*
X71428000Y-137822650D02*
X71356571Y-137858364D01*
X71356571Y-137858364D02*
X71142285Y-137858364D01*
X71142285Y-137858364D02*
X71070857Y-137822650D01*
X71070857Y-137822650D02*
X71035142Y-137786935D01*
X72178000Y-137108364D02*
X71820857Y-137108364D01*
X71820857Y-137108364D02*
X71785143Y-137465507D01*
X71785143Y-137465507D02*
X71820857Y-137429792D01*
X71820857Y-137429792D02*
X71892286Y-137394078D01*
X71892286Y-137394078D02*
X72070857Y-137394078D01*
X72070857Y-137394078D02*
X72142286Y-137429792D01*
X72142286Y-137429792D02*
X72178000Y-137465507D01*
X72178000Y-137465507D02*
X72213714Y-137536935D01*
X72213714Y-137536935D02*
X72213714Y-137715507D01*
X72213714Y-137715507D02*
X72178000Y-137786935D01*
X72178000Y-137786935D02*
X72142286Y-137822650D01*
X72142286Y-137822650D02*
X72070857Y-137858364D01*
X72070857Y-137858364D02*
X71892286Y-137858364D01*
X71892286Y-137858364D02*
X71820857Y-137822650D01*
X71820857Y-137822650D02*
X71785143Y-137786935D01*
X72856572Y-137358364D02*
X72856572Y-137858364D01*
X72678000Y-137072650D02*
X72499429Y-137608364D01*
X72499429Y-137608364D02*
X72963714Y-137608364D01*
X73570858Y-137358364D02*
X73570858Y-137858364D01*
X73392286Y-137072650D02*
X73213715Y-137608364D01*
X73213715Y-137608364D02*
X73678000Y-137608364D01*
X73963715Y-137572650D02*
X74535144Y-137572650D01*
X74856572Y-137179792D02*
X74892286Y-137144078D01*
X74892286Y-137144078D02*
X74963715Y-137108364D01*
X74963715Y-137108364D02*
X75142286Y-137108364D01*
X75142286Y-137108364D02*
X75213715Y-137144078D01*
X75213715Y-137144078D02*
X75249429Y-137179792D01*
X75249429Y-137179792D02*
X75285143Y-137251221D01*
X75285143Y-137251221D02*
X75285143Y-137322650D01*
X75285143Y-137322650D02*
X75249429Y-137429792D01*
X75249429Y-137429792D02*
X74820857Y-137858364D01*
X74820857Y-137858364D02*
X75285143Y-137858364D01*
D11*
X121829723Y-80162044D02*
X121684581Y-80089473D01*
X121684581Y-80089473D02*
X121466866Y-80089473D01*
X121466866Y-80089473D02*
X121249152Y-80162044D01*
X121249152Y-80162044D02*
X121104009Y-80307187D01*
X121104009Y-80307187D02*
X121031438Y-80452330D01*
X121031438Y-80452330D02*
X120958866Y-80742616D01*
X120958866Y-80742616D02*
X120958866Y-80960330D01*
X120958866Y-80960330D02*
X121031438Y-81250616D01*
X121031438Y-81250616D02*
X121104009Y-81395759D01*
X121104009Y-81395759D02*
X121249152Y-81540902D01*
X121249152Y-81540902D02*
X121466866Y-81613473D01*
X121466866Y-81613473D02*
X121612009Y-81613473D01*
X121612009Y-81613473D02*
X121829723Y-81540902D01*
X121829723Y-81540902D02*
X121902295Y-81468330D01*
X121902295Y-81468330D02*
X121902295Y-80960330D01*
X121902295Y-80960330D02*
X121612009Y-80960330D01*
X122773152Y-80089473D02*
X122773152Y-80452330D01*
X122410295Y-80307187D02*
X122773152Y-80452330D01*
X122773152Y-80452330D02*
X123136009Y-80307187D01*
X122555438Y-80742616D02*
X122773152Y-80452330D01*
X122773152Y-80452330D02*
X122990866Y-80742616D01*
X123934295Y-80089473D02*
X123934295Y-80452330D01*
X123571438Y-80307187D02*
X123934295Y-80452330D01*
X123934295Y-80452330D02*
X124297152Y-80307187D01*
X123716581Y-80742616D02*
X123934295Y-80452330D01*
X123934295Y-80452330D02*
X124152009Y-80742616D01*
X125095438Y-80089473D02*
X125095438Y-80452330D01*
X124732581Y-80307187D02*
X125095438Y-80452330D01*
X125095438Y-80452330D02*
X125458295Y-80307187D01*
X124877724Y-80742616D02*
X125095438Y-80452330D01*
X125095438Y-80452330D02*
X125313152Y-80742616D01*
D12*
X206670400Y-144917400D02*
X199870400Y-144917400D01*
X206670400Y-145817400D02*
X199870400Y-145817400D01*
X209270400Y-144917400D02*
X216070400Y-144917400D01*
X209270400Y-145817400D02*
X216070400Y-145817400D01*
X206771828Y-145417400D02*
G75*
G02*
X199768972Y-145417400I-3501428J0D01*
G01*
X199768972Y-145417400D02*
G75*
G02*
X206771828Y-145417400I3501428J0D01*
G01*
X216170400Y-145417400D02*
G75*
G02*
X209170400Y-145417400I-3500000J0D01*
G01*
X209170400Y-145417400D02*
G75*
G02*
X216170400Y-145417400I3500000J0D01*
G01*
X79670400Y-144917400D02*
X72870400Y-144917400D01*
X79670400Y-145817400D02*
X72870400Y-145817400D01*
X82270400Y-144917400D02*
X89070400Y-144917400D01*
X82270400Y-145817400D02*
X89070400Y-145817400D01*
X79771828Y-145417400D02*
G75*
G02*
X72768972Y-145417400I-3501428J0D01*
G01*
X72768972Y-145417400D02*
G75*
G02*
X79771828Y-145417400I3501428J0D01*
G01*
X89170400Y-145417400D02*
G75*
G02*
X82170400Y-145417400I-3500000J0D01*
G01*
X82170400Y-145417400D02*
G75*
G02*
X89170400Y-145417400I3500000J0D01*
G01*
M02*
