M48
; DRILL file {KiCad 9.0.6} date 2026-01-16T15:57:08-0500
; FORMAT={-:-/ absolute / inch / decimal}
; #@! TF.CreationDate,2026-01-16T15:57:08-05:00
; #@! TF.GenerationSoftware,Kicad,Pcbnew,9.0.6
; #@! TF.FileFunction,Plated,1,2,PTH
FMAT,2
INCH
; #@! TA.AperFunction,Plated,PTH,ViaDrill
T1C0.0157
; #@! TA.AperFunction,Plated,PTH,ComponentDrill
T2C0.0402
; #@! TA.AperFunction,Plated,PTH,ComponentDrill
T3C0.0472
; #@! TA.AperFunction,Plated,PTH,ComponentDrill
T4C0.0650
; #@! TA.AperFunction,Plated,PTH,ComponentDrill
T5C0.0669
%
G90
G05
T1
X-5.0597Y0.3616
X-3.5932Y1.278
X-3.2664Y1.278
X-3.2605Y0.9935
X-3.1404Y0.9886
X-1.2585Y1.277
X-0.9613Y0.9876
X-0.9445Y1.274
X-0.8471Y0.9798
X-0.7487Y1.3557
X-0.7487Y1.2298
X-0.7073Y1.3557
X-0.7054Y1.2298
X-0.6601Y1.3557
X-0.6601Y1.2298
X-0.6187Y1.3538
X-0.6187Y1.2317
X-0.6168Y1.3144
X-0.6168Y1.2711
X-0.3943Y1.0506
X0.6017Y0.3616
T2
X-2.7646Y1.8622
X-2.7646Y1.7622
X-2.6646Y1.8622
X-2.6646Y1.7622
X-2.5646Y1.8622
X-2.5646Y1.7622
X-2.4646Y1.8622
X-2.4646Y1.7622
X-2.3646Y1.8622
X-2.3646Y1.7622
X-2.2646Y1.8622
X-2.2646Y1.7622
X-2.1646Y1.8622
X-2.1646Y1.7622
X-2.0646Y1.8622
X-2.0646Y1.7622
X-1.9646Y1.8622
X-1.9646Y1.7622
X-1.8646Y1.8622
X-1.8646Y1.7622
X-1.7646Y1.8622
X-1.7646Y1.7622
X-1.6646Y1.8622
X-1.6646Y1.7622
T3
X-4.2898Y0.5124
X-4.2898Y0.0005
X-3.6992Y0.5124
X-3.6992Y0.0005
X-3.1087Y0.5124
X-3.1042Y0.0005
X-2.5181Y0.5124
X-2.5181Y0.0005
X-1.9276Y0.5124
X-1.9276Y0.0005
X-1.337Y0.5124
X-1.337Y0.0005
X-0.7465Y0.5124
X-0.7465Y0.0005
X-0.1559Y0.5124
X-0.1559Y0.0005
T4
X-4.2084Y-0.3459
X-4.2084Y-0.4915
X-4.2084Y-0.6687
X-4.2084Y-0.8144
X-3.9447Y-0.3465
X-3.9447Y-0.4921
X-3.9447Y-0.6693
X-3.9447Y-0.815
X-3.6809Y-0.3465
X-3.6809Y-0.4921
X-3.6809Y-0.6693
X-3.6809Y-0.815
X-3.4171Y-0.3465
X-3.4171Y-0.4921
X-3.4171Y-0.6693
X-3.4171Y-0.815
X-3.1533Y-0.3463
X-3.1533Y-0.4919
X-3.1533Y-0.6691
X-3.1533Y-0.8148
X-2.8895Y-0.3463
X-2.8895Y-0.4919
X-2.8895Y-0.6691
X-2.8895Y-0.8148
X-2.6257Y-0.3463
X-2.6257Y-0.4919
X-2.6257Y-0.6691
X-2.6257Y-0.8148
X-2.3619Y-0.3463
X-2.3619Y-0.4919
X-2.3619Y-0.6691
X-2.3619Y-0.8148
X-2.0981Y-0.3463
X-2.0981Y-0.4919
X-2.0981Y-0.6691
X-2.0981Y-0.8148
X-1.8343Y-0.3463
X-1.8343Y-0.4919
X-1.8343Y-0.6691
X-1.8343Y-0.8148
X-1.5705Y-0.3463
X-1.5705Y-0.4919
X-1.5705Y-0.6691
X-1.5705Y-0.8148
X-1.3067Y-0.3463
X-1.3067Y-0.4919
X-1.3067Y-0.6691
X-1.3067Y-0.8148
X-1.0429Y-0.3488
X-1.0429Y-0.4945
X-1.0429Y-0.6717
X-1.0429Y-0.8173
X-0.7791Y-0.3488
X-0.7791Y-0.4945
X-0.7791Y-0.6717
X-0.7791Y-0.8173
X-0.5153Y-0.3488
X-0.5153Y-0.4945
X-0.5153Y-0.6717
X-0.5153Y-0.8173
X-0.2515Y-0.3488
X-0.2515Y-0.4945
X-0.2515Y-0.6717
X-0.2515Y-0.8173
T5
X-4.9219Y-0.6265
X-4.5479Y-0.6265
X0.0899Y-0.6226
X0.4639Y-0.6226
T3
G00X-4.4388Y0.5124
M15
G01X-4.4289Y0.5124
M16
G05
G00X-4.4388Y0.0005
M15
G01X-4.4289Y0.0005
M16
G05
G00X-4.1506Y0.5124
M15
G01X-4.1408Y0.5124
M16
G05
G00X-4.1506Y0.0005
M15
G01X-4.1408Y0.0005
M16
G05
G00X-3.8482Y0.5124
M15
G01X-3.8384Y0.5124
M16
G05
G00X-3.8482Y0.0005
M15
G01X-3.8384Y0.0005
M16
G05
G00X-3.56Y0.5124
M15
G01X-3.5502Y0.5124
M16
G05
G00X-3.56Y0.0005
M15
G01X-3.5502Y0.0005
M16
G05
G00X-3.2577Y0.5124
M15
G01X-3.2478Y0.5124
M16
G05
G00X-3.2532Y0.0005
M15
G01X-3.2433Y0.0005
M16
G05
G00X-2.9695Y0.5124
M15
G01X-2.9597Y0.5124
M16
G05
G00X-2.965Y0.0005
M15
G01X-2.9552Y0.0005
M16
G05
G00X-2.6671Y0.5124
M15
G01X-2.6573Y0.5124
M16
G05
G00X-2.6671Y0.0005
M15
G01X-2.6573Y0.0005
M16
G05
G00X-2.3789Y0.5124
M15
G01X-2.3691Y0.5124
M16
G05
G00X-2.3789Y0.0005
M15
G01X-2.3691Y0.0005
M16
G05
G00X-2.0766Y0.5124
M15
G01X-2.0667Y0.5124
M16
G05
G00X-2.0766Y0.0005
M15
G01X-2.0667Y0.0005
M16
G05
G00X-1.7884Y0.5124
M15
G01X-1.7786Y0.5124
M16
G05
G00X-1.7884Y0.0005
M15
G01X-1.7786Y0.0005
M16
G05
G00X-1.486Y0.5124
M15
G01X-1.4762Y0.5124
M16
G05
G00X-1.486Y0.0005
M15
G01X-1.4762Y0.0005
M16
G05
G00X-1.1978Y0.5124
M15
G01X-1.188Y0.5124
M16
G05
G00X-1.1978Y0.0005
M15
G01X-1.188Y0.0005
M16
G05
G00X-0.8955Y0.5124
M15
G01X-0.8856Y0.5124
M16
G05
G00X-0.8955Y0.0005
M15
G01X-0.8856Y0.0005
M16
G05
G00X-0.6073Y0.5124
M15
G01X-0.5974Y0.5124
M16
G05
G00X-0.6073Y0.0005
M15
G01X-0.5974Y0.0005
M16
G05
G00X-0.3049Y0.5124
M15
G01X-0.2951Y0.5124
M16
G05
G00X-0.3049Y0.0005
M15
G01X-0.2951Y0.0005
M16
G05
G00X-0.0167Y0.5124
M15
G01X-0.0069Y0.5124
M16
G05
G00X-0.0167Y0.0005
M15
G01X-0.0069Y0.0005
M16
G05
M30
