M48
; DRILL file {KiCad (5.1.5)-3} date 1/14/2020 8:35:48 AM
; FORMAT={-:-/ absolute / inch / decimal}
; #@! TF.CreationDate,2020-01-14T08:35:48-05:00
; #@! TF.GenerationSoftware,Kicad,Pcbnew,(5.1.5)-3
; #@! TF.FileFunction,Plated,1,2,PTH
FMAT,2
INCH
T1C0.0157
T2C0.0299
T3C0.0310
T4C0.0315
T5C0.0354
T6C0.0394
T7C0.0400
T8C0.0433
T9C0.0472
T10C0.0512
T11C0.0551
T12C0.0630
T13C0.0650
T14C0.1250
%
G90
G05
T1
X3.4634Y-1.55
X3.5634Y-1.58
X3.6234Y-1.61
X3.7634Y-1.65
X3.8534Y-1.64
X3.876Y-4.5046
X3.8839Y-4.7231
X3.9634Y-1.67
X4.0634Y-1.69
X4.1634Y-1.7
X4.2634Y-1.73
X4.3634Y-1.74
X4.4634Y-1.76
X4.5634Y-1.77
X4.6534Y-1.79
X4.7634Y-1.81
X4.8634Y-1.83
X5.0099Y-4.479
X5.065Y-4.7231
X5.5965Y-4.9672
X5.6201Y-4.7842
X5.6359Y-4.481
X5.8289Y-2.3155
X5.8311Y-2.367
X5.9324Y-2.337
X5.9734Y-2.33
X6.0261Y-2.3321
X6.0709Y-4.3767
X6.0934Y-2.35
X6.1834Y-2.37
X6.2185Y-4.4259
X6.2205Y-4.7645
X6.2834Y-2.41
X6.4234Y-2.23
X6.4834Y-2.22
X6.5847Y-4.3668
X6.628Y-4.9318
X6.6934Y-2.02
X6.7134Y-1.9833
X6.8032Y-2.0228
X6.8229Y-4.5164
X6.8337Y-1.8485
X6.8595Y-2.0218
X6.8672Y-1.9056
X6.8988Y-2.0261
X6.9134Y-1.9
X7.0834Y-1.91
X7.3839Y-4.7448
X7.3934Y-1.89
X7.5852Y-1.7848
X7.8642Y-5.4279
X8.002Y-5.4239
T2
X3.1334Y-3.44
X3.1834Y-3.34
X3.2334Y-3.44
X3.2834Y-3.34
X3.3334Y-3.44
X3.3834Y-3.34
X3.4334Y-3.44
X3.4834Y-3.34
X4.3334Y-3.44
X4.3834Y-3.34
X4.4334Y-3.44
X4.4834Y-3.34
X4.5334Y-3.44
X4.5834Y-3.34
X4.6334Y-3.44
X4.6834Y-3.34
T3
X4.4534Y-3.81
X4.4534Y-4.11
X4.5534Y-3.81
X4.5534Y-4.11
X4.6534Y-3.81
X4.6534Y-4.11
X4.7534Y-3.81
X4.7534Y-4.11
X4.8534Y-3.81
X4.8534Y-4.11
X4.9534Y-3.81
X4.9534Y-4.11
X5.0534Y-3.81
X5.0534Y-4.11
X5.1534Y-3.81
X5.1534Y-4.11
X5.2534Y-3.81
X5.2534Y-4.11
X5.3534Y-3.81
X5.3534Y-4.11
X5.8734Y-3.8
X5.8734Y-4.1
X5.9734Y-3.8
X5.9734Y-4.1
X6.0734Y-3.8
X6.0734Y-4.1
X6.1734Y-3.8
X6.1734Y-4.1
X6.2734Y-3.8
X6.2734Y-4.1
X6.3734Y-3.8
X6.3734Y-4.1
X6.4734Y-3.8
X6.4734Y-4.1
X6.5734Y-3.8
X6.5734Y-4.1
X6.6734Y-3.8
X6.6734Y-4.1
X6.7734Y-3.8
X6.7734Y-4.1
T4
X3.2299Y-5.0509
X3.2299Y-5.3509
X3.7623Y-4.284
X3.8623Y-4.284
X3.9623Y-4.284
X4.0623Y-4.284
X4.1623Y-4.284
X4.2623Y-4.284
X4.3623Y-4.284
X4.4623Y-4.284
X3.8734Y-3.6
X4.1734Y-3.6
X6.9434Y-3.8631
X6.9434Y-4.06
X6.6584Y-2.9591
X6.9584Y-2.9591
X3.4489Y-4.1424
X3.6457Y-4.1424
X3.1634Y-2.06
X3.1634Y-2.36
X7.4234Y-4.0
X7.4234Y-4.0787
X6.7648Y-2.298
X6.9616Y-2.298
X6.0428Y-4.284
X6.1428Y-4.284
X6.2428Y-4.284
X6.3428Y-4.284
X6.4428Y-4.284
X6.5428Y-4.284
X6.6428Y-4.284
X6.7428Y-4.284
X5.5134Y-3.8631
X5.5134Y-4.06
X6.6631Y-2.4118
X6.6631Y-2.5118
X6.6631Y-2.6118
X6.6631Y-2.7118
X6.9631Y-2.4118
X6.9631Y-2.5118
X6.9631Y-2.6118
X6.9631Y-2.7118
X8.1199Y-5.0479
X8.1199Y-5.3479
X3.6461Y-3.7342
X3.6461Y-4.0342
X3.7461Y-3.7342
X3.7461Y-4.0342
X3.8461Y-3.7342
X3.8461Y-4.0342
X3.9461Y-3.7342
X3.9461Y-4.0342
X6.8824Y-4.284
X6.9824Y-4.284
X7.0824Y-4.284
X7.1824Y-4.284
X7.2824Y-4.284
X7.3824Y-4.284
X7.4824Y-4.284
X7.5824Y-4.284
X6.6584Y-2.837
X6.9584Y-2.837
X3.4734Y-3.6
X3.7734Y-3.6
X4.6005Y-4.284
X4.7005Y-4.284
X4.8005Y-4.284
X4.9005Y-4.284
X5.0005Y-4.284
X5.1005Y-4.284
X5.2005Y-4.284
X5.3005Y-4.284
T5
X3.2469Y-4.8309
X3.2469Y-4.9309
X3.8134Y-3.31
X3.8134Y-3.4399
X3.9119Y-3.31
X3.9119Y-3.4399
X4.0103Y-3.31
X4.0103Y-3.4399
X3.8134Y-2.88
X3.8134Y-3.0099
X3.9119Y-2.88
X3.9119Y-3.0099
X4.0103Y-2.88
X4.0103Y-3.0099
X3.1634Y-1.78
X3.1634Y-1.88
X8.1269Y-4.8359
X8.1269Y-4.9359
T6
X8.1334Y-4.31
X8.2334Y-4.31
X8.3334Y-4.31
X7.8534Y-3.99
X7.8534Y-4.1868
X7.2034Y-1.27
X7.3034Y-1.27
X7.4034Y-1.27
X7.5034Y-1.27
X5.7534Y-1.27
X5.8534Y-1.27
X5.9534Y-1.27
X6.0534Y-1.27
X6.1534Y-1.27
T7
X3.1634Y-1.33
X3.1634Y-1.43
X3.2634Y-1.33
X3.2634Y-1.43
X3.3634Y-1.33
X3.3634Y-1.43
X3.4634Y-1.33
X3.4634Y-1.43
X3.5634Y-1.33
X3.5634Y-1.43
X3.6634Y-1.33
X3.6634Y-1.43
X3.7634Y-1.33
X3.7634Y-1.43
X3.8634Y-1.33
X3.8634Y-1.43
X3.9634Y-1.33
X3.9634Y-1.43
X4.0634Y-1.33
X4.0634Y-1.43
X4.1634Y-1.33
X4.1634Y-1.43
X4.2634Y-1.33
X4.2634Y-1.43
X4.3634Y-1.33
X4.3634Y-1.43
X4.4634Y-1.33
X4.4634Y-1.43
X4.5634Y-1.33
X4.5634Y-1.43
X4.6634Y-1.33
X4.6634Y-1.43
X4.7634Y-1.33
X4.7634Y-1.43
X4.8634Y-1.33
X4.8634Y-1.43
X4.9634Y-1.33
X4.9634Y-1.43
X5.0634Y-1.33
X5.0634Y-1.43
T8
X8.2734Y-3.82
X8.2734Y-3.92
X8.2734Y-4.02
X8.0534Y-1.23
X8.0534Y-1.4072
X8.3093Y-1.23
X8.3093Y-1.4072
X5.7384Y-1.59
X5.7384Y-1.69
X5.7384Y-3.49
X5.7384Y-3.59
X5.8384Y-1.59
X5.8384Y-1.69
X5.8384Y-3.49
X5.8384Y-3.59
X5.9384Y-1.59
X5.9384Y-1.69
X5.9384Y-3.49
X5.9384Y-3.59
X6.0384Y-1.59
X6.0384Y-1.69
X6.0384Y-3.49
X6.0384Y-3.59
X6.1384Y-1.59
X6.1384Y-1.69
X6.1384Y-3.49
X6.1384Y-3.59
X6.2384Y-1.59
X6.2384Y-1.69
X6.2384Y-3.49
X6.2384Y-3.59
X6.3384Y-1.59
X6.3384Y-1.69
X6.3384Y-3.49
X6.3384Y-3.59
X6.4384Y-1.59
X6.4384Y-1.69
X6.4384Y-3.49
X6.4384Y-3.59
X6.5384Y-1.59
X6.5384Y-1.69
X6.5384Y-3.49
X6.5384Y-3.59
X6.6384Y-1.59
X6.6384Y-1.69
X6.6384Y-3.49
X6.6384Y-3.59
X6.7384Y-1.59
X6.7384Y-1.69
X6.7384Y-3.49
X6.7384Y-3.59
X6.8384Y-1.59
X6.8384Y-1.69
X6.8384Y-3.49
X6.8384Y-3.59
X6.9384Y-1.59
X6.9384Y-1.69
X6.9384Y-3.49
X6.9384Y-3.59
X7.0384Y-1.59
X7.0384Y-1.69
X7.0384Y-3.49
X7.0384Y-3.59
X7.1384Y-1.59
X7.1384Y-1.69
X7.1384Y-3.49
X7.1384Y-3.59
X7.2384Y-1.59
X7.2384Y-1.69
X7.2384Y-3.49
X7.2384Y-3.59
X7.3384Y-1.59
X7.3384Y-1.69
X7.3384Y-3.49
X7.3384Y-3.59
X7.4384Y-1.59
X7.4384Y-1.69
X7.4384Y-3.49
X7.4384Y-3.59
X7.5384Y-1.59
X7.5384Y-1.69
X7.5384Y-3.49
X7.5384Y-3.59
X7.6384Y-1.59
X7.6384Y-1.69
X7.6384Y-3.49
X7.6384Y-3.59
X7.7384Y-1.59
X7.7384Y-1.69
X7.7384Y-3.49
X7.7384Y-3.59
X7.8384Y-1.59
X7.8384Y-1.69
X7.8384Y-3.49
X7.8384Y-3.59
X7.9384Y-1.59
X7.9384Y-1.69
X7.9384Y-3.49
X7.9384Y-3.59
T9
X5.8701Y-5.1024
X6.0079Y-5.1024
X6.1457Y-5.1024
X3.5079Y-5.1024
X3.6457Y-5.1024
X3.7835Y-5.1024
X3.5079Y-4.5906
X3.6457Y-4.5906
X3.7835Y-4.5906
X7.6417Y-5.1024
X7.7795Y-5.1024
X7.9173Y-5.1024
X7.0512Y-4.5906
X7.189Y-4.5906
X7.3268Y-4.5906
X4.0984Y-5.1024
X4.2362Y-5.1024
X4.374Y-5.1024
X5.8701Y-4.5906
X6.0079Y-4.5906
X6.1457Y-4.5906
X4.689Y-4.5906
X4.8268Y-4.5906
X4.9646Y-4.5906
X6.4606Y-4.5906
X6.5984Y-4.5906
X6.7362Y-4.5906
X6.4606Y-5.1024
X6.5984Y-5.1024
X6.7362Y-5.1024
X7.0512Y-5.1024
X7.189Y-5.1024
X7.3268Y-5.1024
X5.2795Y-4.5906
X5.4173Y-4.5906
X5.5551Y-4.5906
X7.6417Y-4.5906
X7.7795Y-4.5906
X7.9173Y-4.5906
X4.6935Y-5.1024
X4.8313Y-5.1024
X4.9691Y-5.1024
X4.0984Y-4.5906
X4.2362Y-4.5906
X4.374Y-4.5906
X5.2795Y-5.1024
X5.4173Y-5.1024
X5.5551Y-5.1024
T10
X3.1489Y-4.1031
X3.1489Y-4.2999
X7.9365Y-5.6104
X8.1865Y-5.6104
X3.1922Y-5.6141
X3.4422Y-5.6141
X3.1489Y-3.7094
X3.1489Y-3.9062
T11
X7.2634Y-3.77
X7.6634Y-3.77
T12
X4.6194Y-5.4515
X4.6194Y-5.9515
X6.7657Y-5.4569
X6.7657Y-5.9569
T13
X5.5824Y-5.4488
X5.5824Y-5.5944
X5.5824Y-5.7716
X5.5824Y-5.9173
X3.0466Y-4.8598
X3.0466Y-5.0055
X3.0466Y-5.1826
X3.0466Y-5.3283
X8.3239Y-4.8536
X8.3239Y-4.9993
X8.3239Y-5.1764
X8.3239Y-5.3221
X4.1562Y-5.449
X4.1562Y-5.5946
X4.1562Y-5.7718
X4.1562Y-5.9175
X5.8269Y-5.4488
X5.8269Y-5.5944
X5.8269Y-5.7716
X5.8269Y-5.9173
X5.3462Y-5.4488
X5.3462Y-5.5944
X5.3462Y-5.7716
X5.3462Y-5.9173
X4.8627Y-5.4488
X4.8627Y-5.5944
X4.8627Y-5.7716
X4.8627Y-5.9173
X4.3767Y-5.449
X4.3767Y-5.5946
X4.3767Y-5.7718
X4.3767Y-5.9175
X7.2265Y-5.4513
X7.2265Y-5.597
X7.2265Y-5.7742
X7.2265Y-5.9198
X3.7096Y-5.4484
X3.7096Y-5.594
X3.7096Y-5.7712
X3.7096Y-5.9169
X7.4465Y-5.4513
X7.4465Y-5.597
X7.4465Y-5.7742
X7.4465Y-5.9198
X6.526Y-5.4488
X6.526Y-5.5944
X6.526Y-5.7716
X6.526Y-5.9173
X3.9357Y-5.449
X3.9357Y-5.5946
X3.9357Y-5.7718
X3.9357Y-5.9175
X6.0655Y-5.4488
X6.0655Y-5.5944
X6.0655Y-5.7716
X6.0655Y-5.9173
X7.6665Y-5.4513
X7.6665Y-5.597
X7.6665Y-5.7742
X7.6665Y-5.9198
X5.1052Y-5.4488
X5.1052Y-5.5944
X5.1052Y-5.7716
X5.1052Y-5.9173
X7.0019Y-5.4513
X7.0019Y-5.597
X7.0019Y-5.7742
X7.0019Y-5.9198
X6.297Y-5.4488
X6.297Y-5.5944
X6.297Y-5.7716
X6.297Y-5.9173
T14
X5.5384Y-1.765
X5.5384Y-3.415
X8.1384Y-1.64
X8.1384Y-3.54
T0
M30
