G04 #@! TF.GenerationSoftware,KiCad,Pcbnew,(6.0.5)*
G04 #@! TF.CreationDate,2022-06-02T00:44:05-04:00*
G04 #@! TF.ProjectId,BBB_16,4242425f-3136-42e6-9b69-6361645f7063,v2.1*
G04 #@! TF.SameCoordinates,Original*
G04 #@! TF.FileFunction,OtherDrawing,Comment*
%FSLAX46Y46*%
G04 Gerber Fmt 4.6, Leading zero omitted, Abs format (unit mm)*
G04 Created by KiCad (PCBNEW (6.0.5)) date 2022-06-02 00:44:05*
%MOMM*%
%LPD*%
G01*
G04 APERTURE LIST*
%ADD10C,0.150000*%
%ADD11C,0.300000*%
%ADD12C,0.120000*%
G04 APERTURE END LIST*
D10*
X211267000Y-115999800D02*
X211267000Y-39799800D01*
X208167000Y-117099800D02*
X208167000Y-91699800D01*
X218967000Y-77299800D02*
X218967000Y-60899800D01*
X208067000Y-40999800D02*
X212067000Y-40999800D01*
X218967000Y-60899800D02*
X218967000Y-59599800D01*
D11*
X129445723Y-58974042D02*
X129300580Y-58901470D01*
X129082866Y-58901470D01*
X128865152Y-58974042D01*
X128720009Y-59119184D01*
X128647437Y-59264327D01*
X128574866Y-59554613D01*
X128574866Y-59772327D01*
X128647437Y-60062613D01*
X128720009Y-60207756D01*
X128865152Y-60352899D01*
X129082866Y-60425470D01*
X129228009Y-60425470D01*
X129445723Y-60352899D01*
X129518295Y-60280327D01*
X129518295Y-59772327D01*
X129228009Y-59772327D01*
X130389152Y-58901470D02*
X130389152Y-59264327D01*
X130026295Y-59119184D02*
X130389152Y-59264327D01*
X130752009Y-59119184D01*
X130171437Y-59554613D02*
X130389152Y-59264327D01*
X130606866Y-59554613D01*
X131550295Y-58901470D02*
X131550295Y-59264327D01*
X131187437Y-59119184D02*
X131550295Y-59264327D01*
X131913152Y-59119184D01*
X131332580Y-59554613D02*
X131550295Y-59264327D01*
X131768009Y-59554613D01*
X132711437Y-58901470D02*
X132711437Y-59264327D01*
X132348580Y-59119184D02*
X132711437Y-59264327D01*
X133074295Y-59119184D01*
X132493723Y-59554613D02*
X132711437Y-59264327D01*
X132929152Y-59554613D01*
D12*
X82067000Y-144999800D02*
X88867000Y-144999800D01*
X82067000Y-145899800D02*
X88867000Y-145899800D01*
X79467000Y-145899800D02*
X72667000Y-145899800D01*
X79467000Y-144999800D02*
X72667000Y-144999800D01*
X88968428Y-145399800D02*
G75*
G03*
X88968428Y-145399800I-3501428J0D01*
G01*
X79567000Y-145399800D02*
G75*
G03*
X79567000Y-145399800I-3500000J0D01*
G01*
X209667000Y-145799800D02*
X216467000Y-145799800D01*
X207067000Y-145799800D02*
X200267000Y-145799800D01*
X209667000Y-144899800D02*
X216467000Y-144899800D01*
X207067000Y-144899800D02*
X200267000Y-144899800D01*
X216567000Y-145399800D02*
G75*
G03*
X216567000Y-145399800I-3500000J0D01*
G01*
X207168428Y-145399800D02*
G75*
G03*
X207168428Y-145399800I-3501428J0D01*
G01*
M02*
