G04 #@! TF.GenerationSoftware,KiCad,Pcbnew,(5.1.5)-3*
G04 #@! TF.CreationDate,2020-01-12T17:42:33-05:00*
G04 #@! TF.ProjectId,BBB_16,4242425f-3136-42e6-9b69-6361645f7063,v1*
G04 #@! TF.SameCoordinates,Original*
G04 #@! TF.FileFunction,Other,Comment*
%FSLAX46Y46*%
G04 Gerber Fmt 4.6, Leading zero omitted, Abs format (unit mm)*
G04 Created by KiCad (PCBNEW (5.1.5)-3) date 2020-01-12 17:42:33*
%MOMM*%
%LPD*%
G04 APERTURE LIST*
%ADD10C,0.150000*%
%ADD11C,0.002000*%
G04 APERTURE END LIST*
D10*
X85127600Y-66318600D02*
G75*
G03X85127600Y-66318600I-3700000J0D01*
G01*
X84827600Y-117118600D02*
G75*
G03X84827600Y-117118600I-3700000J0D01*
G01*
X211827600Y-66318600D02*
G75*
G03X211827600Y-66318600I-3700000J0D01*
G01*
X211827600Y-117118600D02*
G75*
G03X211827600Y-117118600I-3700000J0D01*
G01*
D11*
X148468357Y-87481633D02*
X148474404Y-87487680D01*
X148480452Y-87505823D01*
X148480452Y-87517919D01*
X148474404Y-87536061D01*
X148462309Y-87548157D01*
X148450214Y-87554204D01*
X148426023Y-87560252D01*
X148407880Y-87560252D01*
X148383690Y-87554204D01*
X148371595Y-87548157D01*
X148359500Y-87536061D01*
X148353452Y-87517919D01*
X148353452Y-87505823D01*
X148359500Y-87487680D01*
X148365547Y-87481633D01*
X148480452Y-87409061D02*
X148474404Y-87421157D01*
X148468357Y-87427204D01*
X148456261Y-87433252D01*
X148419976Y-87433252D01*
X148407880Y-87427204D01*
X148401833Y-87421157D01*
X148395785Y-87409061D01*
X148395785Y-87390919D01*
X148401833Y-87378823D01*
X148407880Y-87372776D01*
X148419976Y-87366728D01*
X148456261Y-87366728D01*
X148468357Y-87372776D01*
X148474404Y-87378823D01*
X148480452Y-87390919D01*
X148480452Y-87409061D01*
X148395785Y-87312300D02*
X148522785Y-87312300D01*
X148401833Y-87312300D02*
X148395785Y-87300204D01*
X148395785Y-87276014D01*
X148401833Y-87263919D01*
X148407880Y-87257871D01*
X148419976Y-87251823D01*
X148456261Y-87251823D01*
X148468357Y-87257871D01*
X148474404Y-87263919D01*
X148480452Y-87276014D01*
X148480452Y-87300204D01*
X148474404Y-87312300D01*
X148395785Y-87209490D02*
X148480452Y-87179252D01*
X148395785Y-87149014D02*
X148480452Y-87179252D01*
X148510690Y-87191347D01*
X148516738Y-87197395D01*
X148522785Y-87209490D01*
X148480452Y-87100633D02*
X148395785Y-87100633D01*
X148419976Y-87100633D02*
X148407880Y-87094585D01*
X148401833Y-87088538D01*
X148395785Y-87076442D01*
X148395785Y-87064347D01*
X148480452Y-87022014D02*
X148395785Y-87022014D01*
X148353452Y-87022014D02*
X148359500Y-87028061D01*
X148365547Y-87022014D01*
X148359500Y-87015966D01*
X148353452Y-87022014D01*
X148365547Y-87022014D01*
X148395785Y-86907109D02*
X148498595Y-86907109D01*
X148510690Y-86913157D01*
X148516738Y-86919204D01*
X148522785Y-86931300D01*
X148522785Y-86949442D01*
X148516738Y-86961538D01*
X148474404Y-86907109D02*
X148480452Y-86919204D01*
X148480452Y-86943395D01*
X148474404Y-86955490D01*
X148468357Y-86961538D01*
X148456261Y-86967585D01*
X148419976Y-86967585D01*
X148407880Y-86961538D01*
X148401833Y-86955490D01*
X148395785Y-86943395D01*
X148395785Y-86919204D01*
X148401833Y-86907109D01*
X148480452Y-86846633D02*
X148353452Y-86846633D01*
X148480452Y-86792204D02*
X148413928Y-86792204D01*
X148401833Y-86798252D01*
X148395785Y-86810347D01*
X148395785Y-86828490D01*
X148401833Y-86840585D01*
X148407880Y-86846633D01*
X148395785Y-86749871D02*
X148395785Y-86701490D01*
X148353452Y-86731728D02*
X148462309Y-86731728D01*
X148474404Y-86725680D01*
X148480452Y-86713585D01*
X148480452Y-86701490D01*
X148365547Y-86568442D02*
X148359500Y-86562395D01*
X148353452Y-86550300D01*
X148353452Y-86520061D01*
X148359500Y-86507966D01*
X148365547Y-86501919D01*
X148377642Y-86495871D01*
X148389738Y-86495871D01*
X148407880Y-86501919D01*
X148480452Y-86574490D01*
X148480452Y-86495871D01*
X148353452Y-86417252D02*
X148353452Y-86405157D01*
X148359500Y-86393061D01*
X148365547Y-86387014D01*
X148377642Y-86380966D01*
X148401833Y-86374919D01*
X148432071Y-86374919D01*
X148456261Y-86380966D01*
X148468357Y-86387014D01*
X148474404Y-86393061D01*
X148480452Y-86405157D01*
X148480452Y-86417252D01*
X148474404Y-86429347D01*
X148468357Y-86435395D01*
X148456261Y-86441442D01*
X148432071Y-86447490D01*
X148401833Y-86447490D01*
X148377642Y-86441442D01*
X148365547Y-86435395D01*
X148359500Y-86429347D01*
X148353452Y-86417252D01*
X148480452Y-86253966D02*
X148480452Y-86326538D01*
X148480452Y-86290252D02*
X148353452Y-86290252D01*
X148371595Y-86302347D01*
X148383690Y-86314442D01*
X148389738Y-86326538D01*
X148353452Y-86145109D02*
X148353452Y-86169300D01*
X148359500Y-86181395D01*
X148365547Y-86187442D01*
X148383690Y-86199538D01*
X148407880Y-86205585D01*
X148456261Y-86205585D01*
X148468357Y-86199538D01*
X148474404Y-86193490D01*
X148480452Y-86181395D01*
X148480452Y-86157204D01*
X148474404Y-86145109D01*
X148468357Y-86139061D01*
X148456261Y-86133014D01*
X148426023Y-86133014D01*
X148413928Y-86139061D01*
X148407880Y-86145109D01*
X148401833Y-86157204D01*
X148401833Y-86181395D01*
X148407880Y-86193490D01*
X148413928Y-86199538D01*
X148426023Y-86205585D01*
X148444166Y-85987871D02*
X148444166Y-85927395D01*
X148480452Y-85999966D02*
X148353452Y-85957633D01*
X148480452Y-85915300D01*
X148474404Y-85818538D02*
X148480452Y-85830633D01*
X148480452Y-85854823D01*
X148474404Y-85866919D01*
X148468357Y-85872966D01*
X148456261Y-85879014D01*
X148419976Y-85879014D01*
X148407880Y-85872966D01*
X148401833Y-85866919D01*
X148395785Y-85854823D01*
X148395785Y-85830633D01*
X148401833Y-85818538D01*
X148474404Y-85709680D02*
X148480452Y-85721776D01*
X148480452Y-85745966D01*
X148474404Y-85758061D01*
X148468357Y-85764109D01*
X148456261Y-85770157D01*
X148419976Y-85770157D01*
X148407880Y-85764109D01*
X148401833Y-85758061D01*
X148395785Y-85745966D01*
X148395785Y-85721776D01*
X148401833Y-85709680D01*
X148474404Y-85606871D02*
X148480452Y-85618966D01*
X148480452Y-85643157D01*
X148474404Y-85655252D01*
X148462309Y-85661300D01*
X148413928Y-85661300D01*
X148401833Y-85655252D01*
X148395785Y-85643157D01*
X148395785Y-85618966D01*
X148401833Y-85606871D01*
X148413928Y-85600823D01*
X148426023Y-85600823D01*
X148438119Y-85661300D01*
X148480452Y-85528252D02*
X148474404Y-85540347D01*
X148462309Y-85546395D01*
X148353452Y-85546395D01*
X148474404Y-85431490D02*
X148480452Y-85443585D01*
X148480452Y-85467776D01*
X148474404Y-85479871D01*
X148462309Y-85485919D01*
X148413928Y-85485919D01*
X148401833Y-85479871D01*
X148395785Y-85467776D01*
X148395785Y-85443585D01*
X148401833Y-85431490D01*
X148413928Y-85425442D01*
X148426023Y-85425442D01*
X148438119Y-85485919D01*
X148480452Y-85371014D02*
X148395785Y-85371014D01*
X148419976Y-85371014D02*
X148407880Y-85364966D01*
X148401833Y-85358919D01*
X148395785Y-85346823D01*
X148395785Y-85334728D01*
X148480452Y-85237966D02*
X148413928Y-85237966D01*
X148401833Y-85244014D01*
X148395785Y-85256109D01*
X148395785Y-85280300D01*
X148401833Y-85292395D01*
X148474404Y-85237966D02*
X148480452Y-85250061D01*
X148480452Y-85280300D01*
X148474404Y-85292395D01*
X148462309Y-85298442D01*
X148450214Y-85298442D01*
X148438119Y-85292395D01*
X148432071Y-85280300D01*
X148432071Y-85250061D01*
X148426023Y-85237966D01*
X148395785Y-85195633D02*
X148395785Y-85147252D01*
X148353452Y-85177490D02*
X148462309Y-85177490D01*
X148474404Y-85171442D01*
X148480452Y-85159347D01*
X148480452Y-85147252D01*
X148474404Y-85056538D02*
X148480452Y-85068633D01*
X148480452Y-85092823D01*
X148474404Y-85104919D01*
X148462309Y-85110966D01*
X148413928Y-85110966D01*
X148401833Y-85104919D01*
X148395785Y-85092823D01*
X148395785Y-85068633D01*
X148401833Y-85056538D01*
X148413928Y-85050490D01*
X148426023Y-85050490D01*
X148438119Y-85110966D01*
X148480452Y-84941633D02*
X148353452Y-84941633D01*
X148474404Y-84941633D02*
X148480452Y-84953728D01*
X148480452Y-84977919D01*
X148474404Y-84990014D01*
X148468357Y-84996061D01*
X148456261Y-85002109D01*
X148419976Y-85002109D01*
X148407880Y-84996061D01*
X148401833Y-84990014D01*
X148395785Y-84977919D01*
X148395785Y-84953728D01*
X148401833Y-84941633D01*
X148480452Y-84784395D02*
X148353452Y-84784395D01*
X148353452Y-84754157D01*
X148359500Y-84736014D01*
X148371595Y-84723919D01*
X148383690Y-84717871D01*
X148407880Y-84711823D01*
X148426023Y-84711823D01*
X148450214Y-84717871D01*
X148462309Y-84723919D01*
X148474404Y-84736014D01*
X148480452Y-84754157D01*
X148480452Y-84784395D01*
X148474404Y-84609014D02*
X148480452Y-84621109D01*
X148480452Y-84645300D01*
X148474404Y-84657395D01*
X148462309Y-84663442D01*
X148413928Y-84663442D01*
X148401833Y-84657395D01*
X148395785Y-84645300D01*
X148395785Y-84621109D01*
X148401833Y-84609014D01*
X148413928Y-84602966D01*
X148426023Y-84602966D01*
X148438119Y-84663442D01*
X148474404Y-84554585D02*
X148480452Y-84542490D01*
X148480452Y-84518300D01*
X148474404Y-84506204D01*
X148462309Y-84500157D01*
X148456261Y-84500157D01*
X148444166Y-84506204D01*
X148438119Y-84518300D01*
X148438119Y-84536442D01*
X148432071Y-84548538D01*
X148419976Y-84554585D01*
X148413928Y-84554585D01*
X148401833Y-84548538D01*
X148395785Y-84536442D01*
X148395785Y-84518300D01*
X148401833Y-84506204D01*
X148480452Y-84445728D02*
X148395785Y-84445728D01*
X148353452Y-84445728D02*
X148359500Y-84451776D01*
X148365547Y-84445728D01*
X148359500Y-84439680D01*
X148353452Y-84445728D01*
X148365547Y-84445728D01*
X148395785Y-84330823D02*
X148498595Y-84330823D01*
X148510690Y-84336871D01*
X148516738Y-84342919D01*
X148522785Y-84355014D01*
X148522785Y-84373157D01*
X148516738Y-84385252D01*
X148474404Y-84330823D02*
X148480452Y-84342919D01*
X148480452Y-84367109D01*
X148474404Y-84379204D01*
X148468357Y-84385252D01*
X148456261Y-84391300D01*
X148419976Y-84391300D01*
X148407880Y-84385252D01*
X148401833Y-84379204D01*
X148395785Y-84367109D01*
X148395785Y-84342919D01*
X148401833Y-84330823D01*
X148395785Y-84270347D02*
X148480452Y-84270347D01*
X148407880Y-84270347D02*
X148401833Y-84264300D01*
X148395785Y-84252204D01*
X148395785Y-84234061D01*
X148401833Y-84221966D01*
X148413928Y-84215919D01*
X148480452Y-84215919D01*
X148474404Y-84161490D02*
X148480452Y-84149395D01*
X148480452Y-84125204D01*
X148474404Y-84113109D01*
X148462309Y-84107061D01*
X148456261Y-84107061D01*
X148444166Y-84113109D01*
X148438119Y-84125204D01*
X148438119Y-84143347D01*
X148432071Y-84155442D01*
X148419976Y-84161490D01*
X148413928Y-84161490D01*
X148401833Y-84155442D01*
X148395785Y-84143347D01*
X148395785Y-84125204D01*
X148401833Y-84113109D01*
X148468357Y-84052633D02*
X148474404Y-84046585D01*
X148480452Y-84052633D01*
X148474404Y-84058680D01*
X148468357Y-84052633D01*
X148480452Y-84052633D01*
X148444166Y-83901442D02*
X148444166Y-83840966D01*
X148480452Y-83913538D02*
X148353452Y-83871204D01*
X148480452Y-83828871D01*
X148480452Y-83768395D02*
X148474404Y-83780490D01*
X148462309Y-83786538D01*
X148353452Y-83786538D01*
X148480452Y-83701871D02*
X148474404Y-83713966D01*
X148462309Y-83720014D01*
X148353452Y-83720014D01*
X148480452Y-83556728D02*
X148395785Y-83556728D01*
X148419976Y-83556728D02*
X148407880Y-83550680D01*
X148401833Y-83544633D01*
X148395785Y-83532538D01*
X148395785Y-83520442D01*
X148480452Y-83478109D02*
X148395785Y-83478109D01*
X148353452Y-83478109D02*
X148359500Y-83484157D01*
X148365547Y-83478109D01*
X148359500Y-83472061D01*
X148353452Y-83478109D01*
X148365547Y-83478109D01*
X148395785Y-83363204D02*
X148498595Y-83363204D01*
X148510690Y-83369252D01*
X148516738Y-83375300D01*
X148522785Y-83387395D01*
X148522785Y-83405538D01*
X148516738Y-83417633D01*
X148474404Y-83363204D02*
X148480452Y-83375300D01*
X148480452Y-83399490D01*
X148474404Y-83411585D01*
X148468357Y-83417633D01*
X148456261Y-83423680D01*
X148419976Y-83423680D01*
X148407880Y-83417633D01*
X148401833Y-83411585D01*
X148395785Y-83399490D01*
X148395785Y-83375300D01*
X148401833Y-83363204D01*
X148480452Y-83302728D02*
X148353452Y-83302728D01*
X148480452Y-83248300D02*
X148413928Y-83248300D01*
X148401833Y-83254347D01*
X148395785Y-83266442D01*
X148395785Y-83284585D01*
X148401833Y-83296680D01*
X148407880Y-83302728D01*
X148395785Y-83205966D02*
X148395785Y-83157585D01*
X148353452Y-83187823D02*
X148462309Y-83187823D01*
X148474404Y-83181776D01*
X148480452Y-83169680D01*
X148480452Y-83157585D01*
X148474404Y-83121300D02*
X148480452Y-83109204D01*
X148480452Y-83085014D01*
X148474404Y-83072919D01*
X148462309Y-83066871D01*
X148456261Y-83066871D01*
X148444166Y-83072919D01*
X148438119Y-83085014D01*
X148438119Y-83103157D01*
X148432071Y-83115252D01*
X148419976Y-83121300D01*
X148413928Y-83121300D01*
X148401833Y-83115252D01*
X148395785Y-83103157D01*
X148395785Y-83085014D01*
X148401833Y-83072919D01*
X148480452Y-82915680D02*
X148395785Y-82915680D01*
X148419976Y-82915680D02*
X148407880Y-82909633D01*
X148401833Y-82903585D01*
X148395785Y-82891490D01*
X148395785Y-82879395D01*
X148474404Y-82788680D02*
X148480452Y-82800776D01*
X148480452Y-82824966D01*
X148474404Y-82837061D01*
X148462309Y-82843109D01*
X148413928Y-82843109D01*
X148401833Y-82837061D01*
X148395785Y-82824966D01*
X148395785Y-82800776D01*
X148401833Y-82788680D01*
X148413928Y-82782633D01*
X148426023Y-82782633D01*
X148438119Y-82843109D01*
X148474404Y-82734252D02*
X148480452Y-82722157D01*
X148480452Y-82697966D01*
X148474404Y-82685871D01*
X148462309Y-82679823D01*
X148456261Y-82679823D01*
X148444166Y-82685871D01*
X148438119Y-82697966D01*
X148438119Y-82716109D01*
X148432071Y-82728204D01*
X148419976Y-82734252D01*
X148413928Y-82734252D01*
X148401833Y-82728204D01*
X148395785Y-82716109D01*
X148395785Y-82697966D01*
X148401833Y-82685871D01*
X148474404Y-82577014D02*
X148480452Y-82589109D01*
X148480452Y-82613300D01*
X148474404Y-82625395D01*
X148462309Y-82631442D01*
X148413928Y-82631442D01*
X148401833Y-82625395D01*
X148395785Y-82613300D01*
X148395785Y-82589109D01*
X148401833Y-82577014D01*
X148413928Y-82570966D01*
X148426023Y-82570966D01*
X148438119Y-82631442D01*
X148480452Y-82516538D02*
X148395785Y-82516538D01*
X148419976Y-82516538D02*
X148407880Y-82510490D01*
X148401833Y-82504442D01*
X148395785Y-82492347D01*
X148395785Y-82480252D01*
X148395785Y-82450014D02*
X148480452Y-82419776D01*
X148395785Y-82389538D01*
X148474404Y-82292776D02*
X148480452Y-82304871D01*
X148480452Y-82329061D01*
X148474404Y-82341157D01*
X148462309Y-82347204D01*
X148413928Y-82347204D01*
X148401833Y-82341157D01*
X148395785Y-82329061D01*
X148395785Y-82304871D01*
X148401833Y-82292776D01*
X148413928Y-82286728D01*
X148426023Y-82286728D01*
X148438119Y-82347204D01*
X148480452Y-82177871D02*
X148353452Y-82177871D01*
X148474404Y-82177871D02*
X148480452Y-82189966D01*
X148480452Y-82214157D01*
X148474404Y-82226252D01*
X148468357Y-82232300D01*
X148456261Y-82238347D01*
X148419976Y-82238347D01*
X148407880Y-82232300D01*
X148401833Y-82226252D01*
X148395785Y-82214157D01*
X148395785Y-82189966D01*
X148401833Y-82177871D01*
X148468357Y-82117395D02*
X148474404Y-82111347D01*
X148480452Y-82117395D01*
X148474404Y-82123442D01*
X148468357Y-82117395D01*
X148480452Y-82117395D01*
X106304357Y-107293633D02*
X106310404Y-107299680D01*
X106316452Y-107317823D01*
X106316452Y-107329919D01*
X106310404Y-107348061D01*
X106298309Y-107360157D01*
X106286214Y-107366204D01*
X106262023Y-107372252D01*
X106243880Y-107372252D01*
X106219690Y-107366204D01*
X106207595Y-107360157D01*
X106195500Y-107348061D01*
X106189452Y-107329919D01*
X106189452Y-107317823D01*
X106195500Y-107299680D01*
X106201547Y-107293633D01*
X106316452Y-107221061D02*
X106310404Y-107233157D01*
X106304357Y-107239204D01*
X106292261Y-107245252D01*
X106255976Y-107245252D01*
X106243880Y-107239204D01*
X106237833Y-107233157D01*
X106231785Y-107221061D01*
X106231785Y-107202919D01*
X106237833Y-107190823D01*
X106243880Y-107184776D01*
X106255976Y-107178728D01*
X106292261Y-107178728D01*
X106304357Y-107184776D01*
X106310404Y-107190823D01*
X106316452Y-107202919D01*
X106316452Y-107221061D01*
X106231785Y-107124300D02*
X106358785Y-107124300D01*
X106237833Y-107124300D02*
X106231785Y-107112204D01*
X106231785Y-107088014D01*
X106237833Y-107075919D01*
X106243880Y-107069871D01*
X106255976Y-107063823D01*
X106292261Y-107063823D01*
X106304357Y-107069871D01*
X106310404Y-107075919D01*
X106316452Y-107088014D01*
X106316452Y-107112204D01*
X106310404Y-107124300D01*
X106231785Y-107021490D02*
X106316452Y-106991252D01*
X106231785Y-106961014D02*
X106316452Y-106991252D01*
X106346690Y-107003347D01*
X106352738Y-107009395D01*
X106358785Y-107021490D01*
X106316452Y-106912633D02*
X106231785Y-106912633D01*
X106255976Y-106912633D02*
X106243880Y-106906585D01*
X106237833Y-106900538D01*
X106231785Y-106888442D01*
X106231785Y-106876347D01*
X106316452Y-106834014D02*
X106231785Y-106834014D01*
X106189452Y-106834014D02*
X106195500Y-106840061D01*
X106201547Y-106834014D01*
X106195500Y-106827966D01*
X106189452Y-106834014D01*
X106201547Y-106834014D01*
X106231785Y-106719109D02*
X106334595Y-106719109D01*
X106346690Y-106725157D01*
X106352738Y-106731204D01*
X106358785Y-106743300D01*
X106358785Y-106761442D01*
X106352738Y-106773538D01*
X106310404Y-106719109D02*
X106316452Y-106731204D01*
X106316452Y-106755395D01*
X106310404Y-106767490D01*
X106304357Y-106773538D01*
X106292261Y-106779585D01*
X106255976Y-106779585D01*
X106243880Y-106773538D01*
X106237833Y-106767490D01*
X106231785Y-106755395D01*
X106231785Y-106731204D01*
X106237833Y-106719109D01*
X106316452Y-106658633D02*
X106189452Y-106658633D01*
X106316452Y-106604204D02*
X106249928Y-106604204D01*
X106237833Y-106610252D01*
X106231785Y-106622347D01*
X106231785Y-106640490D01*
X106237833Y-106652585D01*
X106243880Y-106658633D01*
X106231785Y-106561871D02*
X106231785Y-106513490D01*
X106189452Y-106543728D02*
X106298309Y-106543728D01*
X106310404Y-106537680D01*
X106316452Y-106525585D01*
X106316452Y-106513490D01*
X106201547Y-106380442D02*
X106195500Y-106374395D01*
X106189452Y-106362300D01*
X106189452Y-106332061D01*
X106195500Y-106319966D01*
X106201547Y-106313919D01*
X106213642Y-106307871D01*
X106225738Y-106307871D01*
X106243880Y-106313919D01*
X106316452Y-106386490D01*
X106316452Y-106307871D01*
X106189452Y-106229252D02*
X106189452Y-106217157D01*
X106195500Y-106205061D01*
X106201547Y-106199014D01*
X106213642Y-106192966D01*
X106237833Y-106186919D01*
X106268071Y-106186919D01*
X106292261Y-106192966D01*
X106304357Y-106199014D01*
X106310404Y-106205061D01*
X106316452Y-106217157D01*
X106316452Y-106229252D01*
X106310404Y-106241347D01*
X106304357Y-106247395D01*
X106292261Y-106253442D01*
X106268071Y-106259490D01*
X106237833Y-106259490D01*
X106213642Y-106253442D01*
X106201547Y-106247395D01*
X106195500Y-106241347D01*
X106189452Y-106229252D01*
X106316452Y-106065966D02*
X106316452Y-106138538D01*
X106316452Y-106102252D02*
X106189452Y-106102252D01*
X106207595Y-106114347D01*
X106219690Y-106126442D01*
X106225738Y-106138538D01*
X106189452Y-105957109D02*
X106189452Y-105981300D01*
X106195500Y-105993395D01*
X106201547Y-105999442D01*
X106219690Y-106011538D01*
X106243880Y-106017585D01*
X106292261Y-106017585D01*
X106304357Y-106011538D01*
X106310404Y-106005490D01*
X106316452Y-105993395D01*
X106316452Y-105969204D01*
X106310404Y-105957109D01*
X106304357Y-105951061D01*
X106292261Y-105945014D01*
X106262023Y-105945014D01*
X106249928Y-105951061D01*
X106243880Y-105957109D01*
X106237833Y-105969204D01*
X106237833Y-105993395D01*
X106243880Y-106005490D01*
X106249928Y-106011538D01*
X106262023Y-106017585D01*
X106280166Y-105799871D02*
X106280166Y-105739395D01*
X106316452Y-105811966D02*
X106189452Y-105769633D01*
X106316452Y-105727300D01*
X106310404Y-105630538D02*
X106316452Y-105642633D01*
X106316452Y-105666823D01*
X106310404Y-105678919D01*
X106304357Y-105684966D01*
X106292261Y-105691014D01*
X106255976Y-105691014D01*
X106243880Y-105684966D01*
X106237833Y-105678919D01*
X106231785Y-105666823D01*
X106231785Y-105642633D01*
X106237833Y-105630538D01*
X106310404Y-105521680D02*
X106316452Y-105533776D01*
X106316452Y-105557966D01*
X106310404Y-105570061D01*
X106304357Y-105576109D01*
X106292261Y-105582157D01*
X106255976Y-105582157D01*
X106243880Y-105576109D01*
X106237833Y-105570061D01*
X106231785Y-105557966D01*
X106231785Y-105533776D01*
X106237833Y-105521680D01*
X106310404Y-105418871D02*
X106316452Y-105430966D01*
X106316452Y-105455157D01*
X106310404Y-105467252D01*
X106298309Y-105473300D01*
X106249928Y-105473300D01*
X106237833Y-105467252D01*
X106231785Y-105455157D01*
X106231785Y-105430966D01*
X106237833Y-105418871D01*
X106249928Y-105412823D01*
X106262023Y-105412823D01*
X106274119Y-105473300D01*
X106316452Y-105340252D02*
X106310404Y-105352347D01*
X106298309Y-105358395D01*
X106189452Y-105358395D01*
X106310404Y-105243490D02*
X106316452Y-105255585D01*
X106316452Y-105279776D01*
X106310404Y-105291871D01*
X106298309Y-105297919D01*
X106249928Y-105297919D01*
X106237833Y-105291871D01*
X106231785Y-105279776D01*
X106231785Y-105255585D01*
X106237833Y-105243490D01*
X106249928Y-105237442D01*
X106262023Y-105237442D01*
X106274119Y-105297919D01*
X106316452Y-105183014D02*
X106231785Y-105183014D01*
X106255976Y-105183014D02*
X106243880Y-105176966D01*
X106237833Y-105170919D01*
X106231785Y-105158823D01*
X106231785Y-105146728D01*
X106316452Y-105049966D02*
X106249928Y-105049966D01*
X106237833Y-105056014D01*
X106231785Y-105068109D01*
X106231785Y-105092300D01*
X106237833Y-105104395D01*
X106310404Y-105049966D02*
X106316452Y-105062061D01*
X106316452Y-105092300D01*
X106310404Y-105104395D01*
X106298309Y-105110442D01*
X106286214Y-105110442D01*
X106274119Y-105104395D01*
X106268071Y-105092300D01*
X106268071Y-105062061D01*
X106262023Y-105049966D01*
X106231785Y-105007633D02*
X106231785Y-104959252D01*
X106189452Y-104989490D02*
X106298309Y-104989490D01*
X106310404Y-104983442D01*
X106316452Y-104971347D01*
X106316452Y-104959252D01*
X106310404Y-104868538D02*
X106316452Y-104880633D01*
X106316452Y-104904823D01*
X106310404Y-104916919D01*
X106298309Y-104922966D01*
X106249928Y-104922966D01*
X106237833Y-104916919D01*
X106231785Y-104904823D01*
X106231785Y-104880633D01*
X106237833Y-104868538D01*
X106249928Y-104862490D01*
X106262023Y-104862490D01*
X106274119Y-104922966D01*
X106316452Y-104753633D02*
X106189452Y-104753633D01*
X106310404Y-104753633D02*
X106316452Y-104765728D01*
X106316452Y-104789919D01*
X106310404Y-104802014D01*
X106304357Y-104808061D01*
X106292261Y-104814109D01*
X106255976Y-104814109D01*
X106243880Y-104808061D01*
X106237833Y-104802014D01*
X106231785Y-104789919D01*
X106231785Y-104765728D01*
X106237833Y-104753633D01*
X106316452Y-104596395D02*
X106189452Y-104596395D01*
X106189452Y-104566157D01*
X106195500Y-104548014D01*
X106207595Y-104535919D01*
X106219690Y-104529871D01*
X106243880Y-104523823D01*
X106262023Y-104523823D01*
X106286214Y-104529871D01*
X106298309Y-104535919D01*
X106310404Y-104548014D01*
X106316452Y-104566157D01*
X106316452Y-104596395D01*
X106310404Y-104421014D02*
X106316452Y-104433109D01*
X106316452Y-104457300D01*
X106310404Y-104469395D01*
X106298309Y-104475442D01*
X106249928Y-104475442D01*
X106237833Y-104469395D01*
X106231785Y-104457300D01*
X106231785Y-104433109D01*
X106237833Y-104421014D01*
X106249928Y-104414966D01*
X106262023Y-104414966D01*
X106274119Y-104475442D01*
X106310404Y-104366585D02*
X106316452Y-104354490D01*
X106316452Y-104330300D01*
X106310404Y-104318204D01*
X106298309Y-104312157D01*
X106292261Y-104312157D01*
X106280166Y-104318204D01*
X106274119Y-104330300D01*
X106274119Y-104348442D01*
X106268071Y-104360538D01*
X106255976Y-104366585D01*
X106249928Y-104366585D01*
X106237833Y-104360538D01*
X106231785Y-104348442D01*
X106231785Y-104330300D01*
X106237833Y-104318204D01*
X106316452Y-104257728D02*
X106231785Y-104257728D01*
X106189452Y-104257728D02*
X106195500Y-104263776D01*
X106201547Y-104257728D01*
X106195500Y-104251680D01*
X106189452Y-104257728D01*
X106201547Y-104257728D01*
X106231785Y-104142823D02*
X106334595Y-104142823D01*
X106346690Y-104148871D01*
X106352738Y-104154919D01*
X106358785Y-104167014D01*
X106358785Y-104185157D01*
X106352738Y-104197252D01*
X106310404Y-104142823D02*
X106316452Y-104154919D01*
X106316452Y-104179109D01*
X106310404Y-104191204D01*
X106304357Y-104197252D01*
X106292261Y-104203300D01*
X106255976Y-104203300D01*
X106243880Y-104197252D01*
X106237833Y-104191204D01*
X106231785Y-104179109D01*
X106231785Y-104154919D01*
X106237833Y-104142823D01*
X106231785Y-104082347D02*
X106316452Y-104082347D01*
X106243880Y-104082347D02*
X106237833Y-104076300D01*
X106231785Y-104064204D01*
X106231785Y-104046061D01*
X106237833Y-104033966D01*
X106249928Y-104027919D01*
X106316452Y-104027919D01*
X106310404Y-103973490D02*
X106316452Y-103961395D01*
X106316452Y-103937204D01*
X106310404Y-103925109D01*
X106298309Y-103919061D01*
X106292261Y-103919061D01*
X106280166Y-103925109D01*
X106274119Y-103937204D01*
X106274119Y-103955347D01*
X106268071Y-103967442D01*
X106255976Y-103973490D01*
X106249928Y-103973490D01*
X106237833Y-103967442D01*
X106231785Y-103955347D01*
X106231785Y-103937204D01*
X106237833Y-103925109D01*
X106304357Y-103864633D02*
X106310404Y-103858585D01*
X106316452Y-103864633D01*
X106310404Y-103870680D01*
X106304357Y-103864633D01*
X106316452Y-103864633D01*
X106280166Y-103713442D02*
X106280166Y-103652966D01*
X106316452Y-103725538D02*
X106189452Y-103683204D01*
X106316452Y-103640871D01*
X106316452Y-103580395D02*
X106310404Y-103592490D01*
X106298309Y-103598538D01*
X106189452Y-103598538D01*
X106316452Y-103513871D02*
X106310404Y-103525966D01*
X106298309Y-103532014D01*
X106189452Y-103532014D01*
X106316452Y-103368728D02*
X106231785Y-103368728D01*
X106255976Y-103368728D02*
X106243880Y-103362680D01*
X106237833Y-103356633D01*
X106231785Y-103344538D01*
X106231785Y-103332442D01*
X106316452Y-103290109D02*
X106231785Y-103290109D01*
X106189452Y-103290109D02*
X106195500Y-103296157D01*
X106201547Y-103290109D01*
X106195500Y-103284061D01*
X106189452Y-103290109D01*
X106201547Y-103290109D01*
X106231785Y-103175204D02*
X106334595Y-103175204D01*
X106346690Y-103181252D01*
X106352738Y-103187300D01*
X106358785Y-103199395D01*
X106358785Y-103217538D01*
X106352738Y-103229633D01*
X106310404Y-103175204D02*
X106316452Y-103187300D01*
X106316452Y-103211490D01*
X106310404Y-103223585D01*
X106304357Y-103229633D01*
X106292261Y-103235680D01*
X106255976Y-103235680D01*
X106243880Y-103229633D01*
X106237833Y-103223585D01*
X106231785Y-103211490D01*
X106231785Y-103187300D01*
X106237833Y-103175204D01*
X106316452Y-103114728D02*
X106189452Y-103114728D01*
X106316452Y-103060300D02*
X106249928Y-103060300D01*
X106237833Y-103066347D01*
X106231785Y-103078442D01*
X106231785Y-103096585D01*
X106237833Y-103108680D01*
X106243880Y-103114728D01*
X106231785Y-103017966D02*
X106231785Y-102969585D01*
X106189452Y-102999823D02*
X106298309Y-102999823D01*
X106310404Y-102993776D01*
X106316452Y-102981680D01*
X106316452Y-102969585D01*
X106310404Y-102933300D02*
X106316452Y-102921204D01*
X106316452Y-102897014D01*
X106310404Y-102884919D01*
X106298309Y-102878871D01*
X106292261Y-102878871D01*
X106280166Y-102884919D01*
X106274119Y-102897014D01*
X106274119Y-102915157D01*
X106268071Y-102927252D01*
X106255976Y-102933300D01*
X106249928Y-102933300D01*
X106237833Y-102927252D01*
X106231785Y-102915157D01*
X106231785Y-102897014D01*
X106237833Y-102884919D01*
X106316452Y-102727680D02*
X106231785Y-102727680D01*
X106255976Y-102727680D02*
X106243880Y-102721633D01*
X106237833Y-102715585D01*
X106231785Y-102703490D01*
X106231785Y-102691395D01*
X106310404Y-102600680D02*
X106316452Y-102612776D01*
X106316452Y-102636966D01*
X106310404Y-102649061D01*
X106298309Y-102655109D01*
X106249928Y-102655109D01*
X106237833Y-102649061D01*
X106231785Y-102636966D01*
X106231785Y-102612776D01*
X106237833Y-102600680D01*
X106249928Y-102594633D01*
X106262023Y-102594633D01*
X106274119Y-102655109D01*
X106310404Y-102546252D02*
X106316452Y-102534157D01*
X106316452Y-102509966D01*
X106310404Y-102497871D01*
X106298309Y-102491823D01*
X106292261Y-102491823D01*
X106280166Y-102497871D01*
X106274119Y-102509966D01*
X106274119Y-102528109D01*
X106268071Y-102540204D01*
X106255976Y-102546252D01*
X106249928Y-102546252D01*
X106237833Y-102540204D01*
X106231785Y-102528109D01*
X106231785Y-102509966D01*
X106237833Y-102497871D01*
X106310404Y-102389014D02*
X106316452Y-102401109D01*
X106316452Y-102425300D01*
X106310404Y-102437395D01*
X106298309Y-102443442D01*
X106249928Y-102443442D01*
X106237833Y-102437395D01*
X106231785Y-102425300D01*
X106231785Y-102401109D01*
X106237833Y-102389014D01*
X106249928Y-102382966D01*
X106262023Y-102382966D01*
X106274119Y-102443442D01*
X106316452Y-102328538D02*
X106231785Y-102328538D01*
X106255976Y-102328538D02*
X106243880Y-102322490D01*
X106237833Y-102316442D01*
X106231785Y-102304347D01*
X106231785Y-102292252D01*
X106231785Y-102262014D02*
X106316452Y-102231776D01*
X106231785Y-102201538D01*
X106310404Y-102104776D02*
X106316452Y-102116871D01*
X106316452Y-102141061D01*
X106310404Y-102153157D01*
X106298309Y-102159204D01*
X106249928Y-102159204D01*
X106237833Y-102153157D01*
X106231785Y-102141061D01*
X106231785Y-102116871D01*
X106237833Y-102104776D01*
X106249928Y-102098728D01*
X106262023Y-102098728D01*
X106274119Y-102159204D01*
X106316452Y-101989871D02*
X106189452Y-101989871D01*
X106310404Y-101989871D02*
X106316452Y-102001966D01*
X106316452Y-102026157D01*
X106310404Y-102038252D01*
X106304357Y-102044300D01*
X106292261Y-102050347D01*
X106255976Y-102050347D01*
X106243880Y-102044300D01*
X106237833Y-102038252D01*
X106231785Y-102026157D01*
X106231785Y-102001966D01*
X106237833Y-101989871D01*
X106304357Y-101929395D02*
X106310404Y-101923347D01*
X106316452Y-101929395D01*
X106310404Y-101935442D01*
X106304357Y-101929395D01*
X106316452Y-101929395D01*
M02*
