%TF.GenerationSoftware,KiCad,Pcbnew,(6.0.7)*%
%TF.CreationDate,2022-08-15T14:17:36-04:00*%
%TF.ProjectId,BBB_16,4242425f-3136-42e6-9b69-6361645f7063,v3*%
%TF.SameCoordinates,Original*%
%TF.FileFunction,Other,Comment*%
%FSLAX46Y46*%
G04 Gerber Fmt 4.6, Leading zero omitted, Abs format (unit mm)*
G04 Created by KiCad (PCBNEW (6.0.7)) date 2022-08-15 14:17:36*
%MOMM*%
%LPD*%
G01*
G04 APERTURE LIST*
%ADD10C,0.002000*%
%ADD11C,0.150000*%
G04 APERTURE END LIST*
D10*
%TO.C,U4*%
X-38021034Y25833343D02*
X-38027081Y25827296D01*
X-38045224Y25821248D01*
X-38057320Y25821248D01*
X-38075462Y25827296D01*
X-38087558Y25839391D01*
X-38093605Y25851486D01*
X-38099653Y25875677D01*
X-38099653Y25893820D01*
X-38093605Y25918010D01*
X-38087558Y25930105D01*
X-38075462Y25942200D01*
X-38057320Y25948248D01*
X-38045224Y25948248D01*
X-38027081Y25942200D01*
X-38021034Y25936153D01*
X-37948462Y25821248D02*
X-37960558Y25827296D01*
X-37966605Y25833343D01*
X-37972653Y25845439D01*
X-37972653Y25881724D01*
X-37966605Y25893820D01*
X-37960558Y25899867D01*
X-37948462Y25905915D01*
X-37930320Y25905915D01*
X-37918224Y25899867D01*
X-37912177Y25893820D01*
X-37906129Y25881724D01*
X-37906129Y25845439D01*
X-37912177Y25833343D01*
X-37918224Y25827296D01*
X-37930320Y25821248D01*
X-37948462Y25821248D01*
X-37851700Y25905915D02*
X-37851700Y25778915D01*
X-37851700Y25899867D02*
X-37839605Y25905915D01*
X-37815415Y25905915D01*
X-37803320Y25899867D01*
X-37797272Y25893820D01*
X-37791224Y25881724D01*
X-37791224Y25845439D01*
X-37797272Y25833343D01*
X-37803320Y25827296D01*
X-37815415Y25821248D01*
X-37839605Y25821248D01*
X-37851700Y25827296D01*
X-37748891Y25905915D02*
X-37718653Y25821248D01*
X-37688415Y25905915D02*
X-37718653Y25821248D01*
X-37730748Y25791010D01*
X-37736796Y25784962D01*
X-37748891Y25778915D01*
X-37640034Y25821248D02*
X-37640034Y25905915D01*
X-37640034Y25881724D02*
X-37633986Y25893820D01*
X-37627939Y25899867D01*
X-37615843Y25905915D01*
X-37603748Y25905915D01*
X-37561415Y25821248D02*
X-37561415Y25905915D01*
X-37561415Y25948248D02*
X-37567462Y25942200D01*
X-37561415Y25936153D01*
X-37555367Y25942200D01*
X-37561415Y25948248D01*
X-37561415Y25936153D01*
X-37446510Y25905915D02*
X-37446510Y25803105D01*
X-37452558Y25791010D01*
X-37458605Y25784962D01*
X-37470700Y25778915D01*
X-37488843Y25778915D01*
X-37500939Y25784962D01*
X-37446510Y25827296D02*
X-37458605Y25821248D01*
X-37482796Y25821248D01*
X-37494891Y25827296D01*
X-37500939Y25833343D01*
X-37506986Y25845439D01*
X-37506986Y25881724D01*
X-37500939Y25893820D01*
X-37494891Y25899867D01*
X-37482796Y25905915D01*
X-37458605Y25905915D01*
X-37446510Y25899867D01*
X-37386034Y25821248D02*
X-37386034Y25948248D01*
X-37331605Y25821248D02*
X-37331605Y25887772D01*
X-37337653Y25899867D01*
X-37349748Y25905915D01*
X-37367891Y25905915D01*
X-37379986Y25899867D01*
X-37386034Y25893820D01*
X-37289272Y25905915D02*
X-37240891Y25905915D01*
X-37271129Y25948248D02*
X-37271129Y25839391D01*
X-37265081Y25827296D01*
X-37252986Y25821248D01*
X-37240891Y25821248D01*
X-37107843Y25936153D02*
X-37101796Y25942200D01*
X-37089700Y25948248D01*
X-37059462Y25948248D01*
X-37047367Y25942200D01*
X-37041320Y25936153D01*
X-37035272Y25924058D01*
X-37035272Y25911962D01*
X-37041320Y25893820D01*
X-37113891Y25821248D01*
X-37035272Y25821248D01*
X-36956653Y25948248D02*
X-36944558Y25948248D01*
X-36932462Y25942200D01*
X-36926415Y25936153D01*
X-36920367Y25924058D01*
X-36914320Y25899867D01*
X-36914320Y25869629D01*
X-36920367Y25845439D01*
X-36926415Y25833343D01*
X-36932462Y25827296D01*
X-36944558Y25821248D01*
X-36956653Y25821248D01*
X-36968748Y25827296D01*
X-36974796Y25833343D01*
X-36980843Y25845439D01*
X-36986891Y25869629D01*
X-36986891Y25899867D01*
X-36980843Y25924058D01*
X-36974796Y25936153D01*
X-36968748Y25942200D01*
X-36956653Y25948248D01*
X-36793367Y25821248D02*
X-36865939Y25821248D01*
X-36829653Y25821248D02*
X-36829653Y25948248D01*
X-36841748Y25930105D01*
X-36853843Y25918010D01*
X-36865939Y25911962D01*
X-36684510Y25948248D02*
X-36708700Y25948248D01*
X-36720796Y25942200D01*
X-36726843Y25936153D01*
X-36738939Y25918010D01*
X-36744986Y25893820D01*
X-36744986Y25845439D01*
X-36738939Y25833343D01*
X-36732891Y25827296D01*
X-36720796Y25821248D01*
X-36696605Y25821248D01*
X-36684510Y25827296D01*
X-36678462Y25833343D01*
X-36672415Y25845439D01*
X-36672415Y25875677D01*
X-36678462Y25887772D01*
X-36684510Y25893820D01*
X-36696605Y25899867D01*
X-36720796Y25899867D01*
X-36732891Y25893820D01*
X-36738939Y25887772D01*
X-36744986Y25875677D01*
X-36527272Y25857534D02*
X-36466796Y25857534D01*
X-36539367Y25821248D02*
X-36497034Y25948248D01*
X-36454700Y25821248D01*
X-36357939Y25827296D02*
X-36370034Y25821248D01*
X-36394224Y25821248D01*
X-36406320Y25827296D01*
X-36412367Y25833343D01*
X-36418415Y25845439D01*
X-36418415Y25881724D01*
X-36412367Y25893820D01*
X-36406320Y25899867D01*
X-36394224Y25905915D01*
X-36370034Y25905915D01*
X-36357939Y25899867D01*
X-36249081Y25827296D02*
X-36261177Y25821248D01*
X-36285367Y25821248D01*
X-36297462Y25827296D01*
X-36303510Y25833343D01*
X-36309558Y25845439D01*
X-36309558Y25881724D01*
X-36303510Y25893820D01*
X-36297462Y25899867D01*
X-36285367Y25905915D01*
X-36261177Y25905915D01*
X-36249081Y25899867D01*
X-36146272Y25827296D02*
X-36158367Y25821248D01*
X-36182558Y25821248D01*
X-36194653Y25827296D01*
X-36200700Y25839391D01*
X-36200700Y25887772D01*
X-36194653Y25899867D01*
X-36182558Y25905915D01*
X-36158367Y25905915D01*
X-36146272Y25899867D01*
X-36140224Y25887772D01*
X-36140224Y25875677D01*
X-36200700Y25863581D01*
X-36067653Y25821248D02*
X-36079748Y25827296D01*
X-36085796Y25839391D01*
X-36085796Y25948248D01*
X-35970891Y25827296D02*
X-35982986Y25821248D01*
X-36007177Y25821248D01*
X-36019272Y25827296D01*
X-36025320Y25839391D01*
X-36025320Y25887772D01*
X-36019272Y25899867D01*
X-36007177Y25905915D01*
X-35982986Y25905915D01*
X-35970891Y25899867D01*
X-35964843Y25887772D01*
X-35964843Y25875677D01*
X-36025320Y25863581D01*
X-35910415Y25821248D02*
X-35910415Y25905915D01*
X-35910415Y25881724D02*
X-35904367Y25893820D01*
X-35898320Y25899867D01*
X-35886224Y25905915D01*
X-35874129Y25905915D01*
X-35777367Y25821248D02*
X-35777367Y25887772D01*
X-35783415Y25899867D01*
X-35795510Y25905915D01*
X-35819700Y25905915D01*
X-35831796Y25899867D01*
X-35777367Y25827296D02*
X-35789462Y25821248D01*
X-35819700Y25821248D01*
X-35831796Y25827296D01*
X-35837843Y25839391D01*
X-35837843Y25851486D01*
X-35831796Y25863581D01*
X-35819700Y25869629D01*
X-35789462Y25869629D01*
X-35777367Y25875677D01*
X-35735034Y25905915D02*
X-35686653Y25905915D01*
X-35716891Y25948248D02*
X-35716891Y25839391D01*
X-35710843Y25827296D01*
X-35698748Y25821248D01*
X-35686653Y25821248D01*
X-35595939Y25827296D02*
X-35608034Y25821248D01*
X-35632224Y25821248D01*
X-35644320Y25827296D01*
X-35650367Y25839391D01*
X-35650367Y25887772D01*
X-35644320Y25899867D01*
X-35632224Y25905915D01*
X-35608034Y25905915D01*
X-35595939Y25899867D01*
X-35589891Y25887772D01*
X-35589891Y25875677D01*
X-35650367Y25863581D01*
X-35481034Y25821248D02*
X-35481034Y25948248D01*
X-35481034Y25827296D02*
X-35493129Y25821248D01*
X-35517320Y25821248D01*
X-35529415Y25827296D01*
X-35535462Y25833343D01*
X-35541510Y25845439D01*
X-35541510Y25881724D01*
X-35535462Y25893820D01*
X-35529415Y25899867D01*
X-35517320Y25905915D01*
X-35493129Y25905915D01*
X-35481034Y25899867D01*
X-35323796Y25821248D02*
X-35323796Y25948248D01*
X-35293558Y25948248D01*
X-35275415Y25942200D01*
X-35263320Y25930105D01*
X-35257272Y25918010D01*
X-35251224Y25893820D01*
X-35251224Y25875677D01*
X-35257272Y25851486D01*
X-35263320Y25839391D01*
X-35275415Y25827296D01*
X-35293558Y25821248D01*
X-35323796Y25821248D01*
X-35148415Y25827296D02*
X-35160510Y25821248D01*
X-35184700Y25821248D01*
X-35196796Y25827296D01*
X-35202843Y25839391D01*
X-35202843Y25887772D01*
X-35196796Y25899867D01*
X-35184700Y25905915D01*
X-35160510Y25905915D01*
X-35148415Y25899867D01*
X-35142367Y25887772D01*
X-35142367Y25875677D01*
X-35202843Y25863581D01*
X-35093986Y25827296D02*
X-35081891Y25821248D01*
X-35057700Y25821248D01*
X-35045605Y25827296D01*
X-35039558Y25839391D01*
X-35039558Y25845439D01*
X-35045605Y25857534D01*
X-35057700Y25863581D01*
X-35075843Y25863581D01*
X-35087939Y25869629D01*
X-35093986Y25881724D01*
X-35093986Y25887772D01*
X-35087939Y25899867D01*
X-35075843Y25905915D01*
X-35057700Y25905915D01*
X-35045605Y25899867D01*
X-34985129Y25821248D02*
X-34985129Y25905915D01*
X-34985129Y25948248D02*
X-34991177Y25942200D01*
X-34985129Y25936153D01*
X-34979081Y25942200D01*
X-34985129Y25948248D01*
X-34985129Y25936153D01*
X-34870224Y25905915D02*
X-34870224Y25803105D01*
X-34876272Y25791010D01*
X-34882320Y25784962D01*
X-34894415Y25778915D01*
X-34912558Y25778915D01*
X-34924653Y25784962D01*
X-34870224Y25827296D02*
X-34882320Y25821248D01*
X-34906510Y25821248D01*
X-34918605Y25827296D01*
X-34924653Y25833343D01*
X-34930700Y25845439D01*
X-34930700Y25881724D01*
X-34924653Y25893820D01*
X-34918605Y25899867D01*
X-34906510Y25905915D01*
X-34882320Y25905915D01*
X-34870224Y25899867D01*
X-34809748Y25905915D02*
X-34809748Y25821248D01*
X-34809748Y25893820D02*
X-34803700Y25899867D01*
X-34791605Y25905915D01*
X-34773462Y25905915D01*
X-34761367Y25899867D01*
X-34755320Y25887772D01*
X-34755320Y25821248D01*
X-34700891Y25827296D02*
X-34688796Y25821248D01*
X-34664605Y25821248D01*
X-34652510Y25827296D01*
X-34646462Y25839391D01*
X-34646462Y25845439D01*
X-34652510Y25857534D01*
X-34664605Y25863581D01*
X-34682748Y25863581D01*
X-34694843Y25869629D01*
X-34700891Y25881724D01*
X-34700891Y25887772D01*
X-34694843Y25899867D01*
X-34682748Y25905915D01*
X-34664605Y25905915D01*
X-34652510Y25899867D01*
X-34592034Y25833343D02*
X-34585986Y25827296D01*
X-34592034Y25821248D01*
X-34598081Y25827296D01*
X-34592034Y25833343D01*
X-34592034Y25821248D01*
X-34440843Y25857534D02*
X-34380367Y25857534D01*
X-34452939Y25821248D02*
X-34410605Y25948248D01*
X-34368272Y25821248D01*
X-34307796Y25821248D02*
X-34319891Y25827296D01*
X-34325939Y25839391D01*
X-34325939Y25948248D01*
X-34241272Y25821248D02*
X-34253367Y25827296D01*
X-34259415Y25839391D01*
X-34259415Y25948248D01*
X-34096129Y25821248D02*
X-34096129Y25905915D01*
X-34096129Y25881724D02*
X-34090081Y25893820D01*
X-34084034Y25899867D01*
X-34071939Y25905915D01*
X-34059843Y25905915D01*
X-34017510Y25821248D02*
X-34017510Y25905915D01*
X-34017510Y25948248D02*
X-34023558Y25942200D01*
X-34017510Y25936153D01*
X-34011462Y25942200D01*
X-34017510Y25948248D01*
X-34017510Y25936153D01*
X-33902605Y25905915D02*
X-33902605Y25803105D01*
X-33908653Y25791010D01*
X-33914700Y25784962D01*
X-33926796Y25778915D01*
X-33944939Y25778915D01*
X-33957034Y25784962D01*
X-33902605Y25827296D02*
X-33914700Y25821248D01*
X-33938891Y25821248D01*
X-33950986Y25827296D01*
X-33957034Y25833343D01*
X-33963081Y25845439D01*
X-33963081Y25881724D01*
X-33957034Y25893820D01*
X-33950986Y25899867D01*
X-33938891Y25905915D01*
X-33914700Y25905915D01*
X-33902605Y25899867D01*
X-33842129Y25821248D02*
X-33842129Y25948248D01*
X-33787700Y25821248D02*
X-33787700Y25887772D01*
X-33793748Y25899867D01*
X-33805843Y25905915D01*
X-33823986Y25905915D01*
X-33836081Y25899867D01*
X-33842129Y25893820D01*
X-33745367Y25905915D02*
X-33696986Y25905915D01*
X-33727224Y25948248D02*
X-33727224Y25839391D01*
X-33721177Y25827296D01*
X-33709081Y25821248D01*
X-33696986Y25821248D01*
X-33660700Y25827296D02*
X-33648605Y25821248D01*
X-33624415Y25821248D01*
X-33612320Y25827296D01*
X-33606272Y25839391D01*
X-33606272Y25845439D01*
X-33612320Y25857534D01*
X-33624415Y25863581D01*
X-33642558Y25863581D01*
X-33654653Y25869629D01*
X-33660700Y25881724D01*
X-33660700Y25887772D01*
X-33654653Y25899867D01*
X-33642558Y25905915D01*
X-33624415Y25905915D01*
X-33612320Y25899867D01*
X-33455081Y25821248D02*
X-33455081Y25905915D01*
X-33455081Y25881724D02*
X-33449034Y25893820D01*
X-33442986Y25899867D01*
X-33430891Y25905915D01*
X-33418796Y25905915D01*
X-33328081Y25827296D02*
X-33340177Y25821248D01*
X-33364367Y25821248D01*
X-33376462Y25827296D01*
X-33382510Y25839391D01*
X-33382510Y25887772D01*
X-33376462Y25899867D01*
X-33364367Y25905915D01*
X-33340177Y25905915D01*
X-33328081Y25899867D01*
X-33322034Y25887772D01*
X-33322034Y25875677D01*
X-33382510Y25863581D01*
X-33273653Y25827296D02*
X-33261558Y25821248D01*
X-33237367Y25821248D01*
X-33225272Y25827296D01*
X-33219224Y25839391D01*
X-33219224Y25845439D01*
X-33225272Y25857534D01*
X-33237367Y25863581D01*
X-33255510Y25863581D01*
X-33267605Y25869629D01*
X-33273653Y25881724D01*
X-33273653Y25887772D01*
X-33267605Y25899867D01*
X-33255510Y25905915D01*
X-33237367Y25905915D01*
X-33225272Y25899867D01*
X-33116415Y25827296D02*
X-33128510Y25821248D01*
X-33152700Y25821248D01*
X-33164796Y25827296D01*
X-33170843Y25839391D01*
X-33170843Y25887772D01*
X-33164796Y25899867D01*
X-33152700Y25905915D01*
X-33128510Y25905915D01*
X-33116415Y25899867D01*
X-33110367Y25887772D01*
X-33110367Y25875677D01*
X-33170843Y25863581D01*
X-33055939Y25821248D02*
X-33055939Y25905915D01*
X-33055939Y25881724D02*
X-33049891Y25893820D01*
X-33043843Y25899867D01*
X-33031748Y25905915D01*
X-33019653Y25905915D01*
X-32989415Y25905915D02*
X-32959177Y25821248D01*
X-32928939Y25905915D01*
X-32832177Y25827296D02*
X-32844272Y25821248D01*
X-32868462Y25821248D01*
X-32880558Y25827296D01*
X-32886605Y25839391D01*
X-32886605Y25887772D01*
X-32880558Y25899867D01*
X-32868462Y25905915D01*
X-32844272Y25905915D01*
X-32832177Y25899867D01*
X-32826129Y25887772D01*
X-32826129Y25875677D01*
X-32886605Y25863581D01*
X-32717272Y25821248D02*
X-32717272Y25948248D01*
X-32717272Y25827296D02*
X-32729367Y25821248D01*
X-32753558Y25821248D01*
X-32765653Y25827296D01*
X-32771700Y25833343D01*
X-32777748Y25845439D01*
X-32777748Y25881724D01*
X-32771700Y25893820D01*
X-32765653Y25899867D01*
X-32753558Y25905915D01*
X-32729367Y25905915D01*
X-32717272Y25899867D01*
X-32656796Y25833343D02*
X-32650748Y25827296D01*
X-32656796Y25821248D01*
X-32662843Y25827296D01*
X-32656796Y25833343D01*
X-32656796Y25821248D01*
%TO.C,U3*%
X-79421034Y25508343D02*
X-79427081Y25502296D01*
X-79445224Y25496248D01*
X-79457320Y25496248D01*
X-79475462Y25502296D01*
X-79487558Y25514391D01*
X-79493605Y25526486D01*
X-79499653Y25550677D01*
X-79499653Y25568820D01*
X-79493605Y25593010D01*
X-79487558Y25605105D01*
X-79475462Y25617200D01*
X-79457320Y25623248D01*
X-79445224Y25623248D01*
X-79427081Y25617200D01*
X-79421034Y25611153D01*
X-79348462Y25496248D02*
X-79360558Y25502296D01*
X-79366605Y25508343D01*
X-79372653Y25520439D01*
X-79372653Y25556724D01*
X-79366605Y25568820D01*
X-79360558Y25574867D01*
X-79348462Y25580915D01*
X-79330320Y25580915D01*
X-79318224Y25574867D01*
X-79312177Y25568820D01*
X-79306129Y25556724D01*
X-79306129Y25520439D01*
X-79312177Y25508343D01*
X-79318224Y25502296D01*
X-79330320Y25496248D01*
X-79348462Y25496248D01*
X-79251700Y25580915D02*
X-79251700Y25453915D01*
X-79251700Y25574867D02*
X-79239605Y25580915D01*
X-79215415Y25580915D01*
X-79203320Y25574867D01*
X-79197272Y25568820D01*
X-79191224Y25556724D01*
X-79191224Y25520439D01*
X-79197272Y25508343D01*
X-79203320Y25502296D01*
X-79215415Y25496248D01*
X-79239605Y25496248D01*
X-79251700Y25502296D01*
X-79148891Y25580915D02*
X-79118653Y25496248D01*
X-79088415Y25580915D02*
X-79118653Y25496248D01*
X-79130748Y25466010D01*
X-79136796Y25459962D01*
X-79148891Y25453915D01*
X-79040034Y25496248D02*
X-79040034Y25580915D01*
X-79040034Y25556724D02*
X-79033986Y25568820D01*
X-79027939Y25574867D01*
X-79015843Y25580915D01*
X-79003748Y25580915D01*
X-78961415Y25496248D02*
X-78961415Y25580915D01*
X-78961415Y25623248D02*
X-78967462Y25617200D01*
X-78961415Y25611153D01*
X-78955367Y25617200D01*
X-78961415Y25623248D01*
X-78961415Y25611153D01*
X-78846510Y25580915D02*
X-78846510Y25478105D01*
X-78852558Y25466010D01*
X-78858605Y25459962D01*
X-78870700Y25453915D01*
X-78888843Y25453915D01*
X-78900939Y25459962D01*
X-78846510Y25502296D02*
X-78858605Y25496248D01*
X-78882796Y25496248D01*
X-78894891Y25502296D01*
X-78900939Y25508343D01*
X-78906986Y25520439D01*
X-78906986Y25556724D01*
X-78900939Y25568820D01*
X-78894891Y25574867D01*
X-78882796Y25580915D01*
X-78858605Y25580915D01*
X-78846510Y25574867D01*
X-78786034Y25496248D02*
X-78786034Y25623248D01*
X-78731605Y25496248D02*
X-78731605Y25562772D01*
X-78737653Y25574867D01*
X-78749748Y25580915D01*
X-78767891Y25580915D01*
X-78779986Y25574867D01*
X-78786034Y25568820D01*
X-78689272Y25580915D02*
X-78640891Y25580915D01*
X-78671129Y25623248D02*
X-78671129Y25514391D01*
X-78665081Y25502296D01*
X-78652986Y25496248D01*
X-78640891Y25496248D01*
X-78507843Y25611153D02*
X-78501796Y25617200D01*
X-78489700Y25623248D01*
X-78459462Y25623248D01*
X-78447367Y25617200D01*
X-78441320Y25611153D01*
X-78435272Y25599058D01*
X-78435272Y25586962D01*
X-78441320Y25568820D01*
X-78513891Y25496248D01*
X-78435272Y25496248D01*
X-78356653Y25623248D02*
X-78344558Y25623248D01*
X-78332462Y25617200D01*
X-78326415Y25611153D01*
X-78320367Y25599058D01*
X-78314320Y25574867D01*
X-78314320Y25544629D01*
X-78320367Y25520439D01*
X-78326415Y25508343D01*
X-78332462Y25502296D01*
X-78344558Y25496248D01*
X-78356653Y25496248D01*
X-78368748Y25502296D01*
X-78374796Y25508343D01*
X-78380843Y25520439D01*
X-78386891Y25544629D01*
X-78386891Y25574867D01*
X-78380843Y25599058D01*
X-78374796Y25611153D01*
X-78368748Y25617200D01*
X-78356653Y25623248D01*
X-78193367Y25496248D02*
X-78265939Y25496248D01*
X-78229653Y25496248D02*
X-78229653Y25623248D01*
X-78241748Y25605105D01*
X-78253843Y25593010D01*
X-78265939Y25586962D01*
X-78084510Y25623248D02*
X-78108700Y25623248D01*
X-78120796Y25617200D01*
X-78126843Y25611153D01*
X-78138939Y25593010D01*
X-78144986Y25568820D01*
X-78144986Y25520439D01*
X-78138939Y25508343D01*
X-78132891Y25502296D01*
X-78120796Y25496248D01*
X-78096605Y25496248D01*
X-78084510Y25502296D01*
X-78078462Y25508343D01*
X-78072415Y25520439D01*
X-78072415Y25550677D01*
X-78078462Y25562772D01*
X-78084510Y25568820D01*
X-78096605Y25574867D01*
X-78120796Y25574867D01*
X-78132891Y25568820D01*
X-78138939Y25562772D01*
X-78144986Y25550677D01*
X-77927272Y25532534D02*
X-77866796Y25532534D01*
X-77939367Y25496248D02*
X-77897034Y25623248D01*
X-77854700Y25496248D01*
X-77757939Y25502296D02*
X-77770034Y25496248D01*
X-77794224Y25496248D01*
X-77806320Y25502296D01*
X-77812367Y25508343D01*
X-77818415Y25520439D01*
X-77818415Y25556724D01*
X-77812367Y25568820D01*
X-77806320Y25574867D01*
X-77794224Y25580915D01*
X-77770034Y25580915D01*
X-77757939Y25574867D01*
X-77649081Y25502296D02*
X-77661177Y25496248D01*
X-77685367Y25496248D01*
X-77697462Y25502296D01*
X-77703510Y25508343D01*
X-77709558Y25520439D01*
X-77709558Y25556724D01*
X-77703510Y25568820D01*
X-77697462Y25574867D01*
X-77685367Y25580915D01*
X-77661177Y25580915D01*
X-77649081Y25574867D01*
X-77546272Y25502296D02*
X-77558367Y25496248D01*
X-77582558Y25496248D01*
X-77594653Y25502296D01*
X-77600700Y25514391D01*
X-77600700Y25562772D01*
X-77594653Y25574867D01*
X-77582558Y25580915D01*
X-77558367Y25580915D01*
X-77546272Y25574867D01*
X-77540224Y25562772D01*
X-77540224Y25550677D01*
X-77600700Y25538581D01*
X-77467653Y25496248D02*
X-77479748Y25502296D01*
X-77485796Y25514391D01*
X-77485796Y25623248D01*
X-77370891Y25502296D02*
X-77382986Y25496248D01*
X-77407177Y25496248D01*
X-77419272Y25502296D01*
X-77425320Y25514391D01*
X-77425320Y25562772D01*
X-77419272Y25574867D01*
X-77407177Y25580915D01*
X-77382986Y25580915D01*
X-77370891Y25574867D01*
X-77364843Y25562772D01*
X-77364843Y25550677D01*
X-77425320Y25538581D01*
X-77310415Y25496248D02*
X-77310415Y25580915D01*
X-77310415Y25556724D02*
X-77304367Y25568820D01*
X-77298320Y25574867D01*
X-77286224Y25580915D01*
X-77274129Y25580915D01*
X-77177367Y25496248D02*
X-77177367Y25562772D01*
X-77183415Y25574867D01*
X-77195510Y25580915D01*
X-77219700Y25580915D01*
X-77231796Y25574867D01*
X-77177367Y25502296D02*
X-77189462Y25496248D01*
X-77219700Y25496248D01*
X-77231796Y25502296D01*
X-77237843Y25514391D01*
X-77237843Y25526486D01*
X-77231796Y25538581D01*
X-77219700Y25544629D01*
X-77189462Y25544629D01*
X-77177367Y25550677D01*
X-77135034Y25580915D02*
X-77086653Y25580915D01*
X-77116891Y25623248D02*
X-77116891Y25514391D01*
X-77110843Y25502296D01*
X-77098748Y25496248D01*
X-77086653Y25496248D01*
X-76995939Y25502296D02*
X-77008034Y25496248D01*
X-77032224Y25496248D01*
X-77044320Y25502296D01*
X-77050367Y25514391D01*
X-77050367Y25562772D01*
X-77044320Y25574867D01*
X-77032224Y25580915D01*
X-77008034Y25580915D01*
X-76995939Y25574867D01*
X-76989891Y25562772D01*
X-76989891Y25550677D01*
X-77050367Y25538581D01*
X-76881034Y25496248D02*
X-76881034Y25623248D01*
X-76881034Y25502296D02*
X-76893129Y25496248D01*
X-76917320Y25496248D01*
X-76929415Y25502296D01*
X-76935462Y25508343D01*
X-76941510Y25520439D01*
X-76941510Y25556724D01*
X-76935462Y25568820D01*
X-76929415Y25574867D01*
X-76917320Y25580915D01*
X-76893129Y25580915D01*
X-76881034Y25574867D01*
X-76723796Y25496248D02*
X-76723796Y25623248D01*
X-76693558Y25623248D01*
X-76675415Y25617200D01*
X-76663320Y25605105D01*
X-76657272Y25593010D01*
X-76651224Y25568820D01*
X-76651224Y25550677D01*
X-76657272Y25526486D01*
X-76663320Y25514391D01*
X-76675415Y25502296D01*
X-76693558Y25496248D01*
X-76723796Y25496248D01*
X-76548415Y25502296D02*
X-76560510Y25496248D01*
X-76584700Y25496248D01*
X-76596796Y25502296D01*
X-76602843Y25514391D01*
X-76602843Y25562772D01*
X-76596796Y25574867D01*
X-76584700Y25580915D01*
X-76560510Y25580915D01*
X-76548415Y25574867D01*
X-76542367Y25562772D01*
X-76542367Y25550677D01*
X-76602843Y25538581D01*
X-76493986Y25502296D02*
X-76481891Y25496248D01*
X-76457700Y25496248D01*
X-76445605Y25502296D01*
X-76439558Y25514391D01*
X-76439558Y25520439D01*
X-76445605Y25532534D01*
X-76457700Y25538581D01*
X-76475843Y25538581D01*
X-76487939Y25544629D01*
X-76493986Y25556724D01*
X-76493986Y25562772D01*
X-76487939Y25574867D01*
X-76475843Y25580915D01*
X-76457700Y25580915D01*
X-76445605Y25574867D01*
X-76385129Y25496248D02*
X-76385129Y25580915D01*
X-76385129Y25623248D02*
X-76391177Y25617200D01*
X-76385129Y25611153D01*
X-76379081Y25617200D01*
X-76385129Y25623248D01*
X-76385129Y25611153D01*
X-76270224Y25580915D02*
X-76270224Y25478105D01*
X-76276272Y25466010D01*
X-76282320Y25459962D01*
X-76294415Y25453915D01*
X-76312558Y25453915D01*
X-76324653Y25459962D01*
X-76270224Y25502296D02*
X-76282320Y25496248D01*
X-76306510Y25496248D01*
X-76318605Y25502296D01*
X-76324653Y25508343D01*
X-76330700Y25520439D01*
X-76330700Y25556724D01*
X-76324653Y25568820D01*
X-76318605Y25574867D01*
X-76306510Y25580915D01*
X-76282320Y25580915D01*
X-76270224Y25574867D01*
X-76209748Y25580915D02*
X-76209748Y25496248D01*
X-76209748Y25568820D02*
X-76203700Y25574867D01*
X-76191605Y25580915D01*
X-76173462Y25580915D01*
X-76161367Y25574867D01*
X-76155320Y25562772D01*
X-76155320Y25496248D01*
X-76100891Y25502296D02*
X-76088796Y25496248D01*
X-76064605Y25496248D01*
X-76052510Y25502296D01*
X-76046462Y25514391D01*
X-76046462Y25520439D01*
X-76052510Y25532534D01*
X-76064605Y25538581D01*
X-76082748Y25538581D01*
X-76094843Y25544629D01*
X-76100891Y25556724D01*
X-76100891Y25562772D01*
X-76094843Y25574867D01*
X-76082748Y25580915D01*
X-76064605Y25580915D01*
X-76052510Y25574867D01*
X-75992034Y25508343D02*
X-75985986Y25502296D01*
X-75992034Y25496248D01*
X-75998081Y25502296D01*
X-75992034Y25508343D01*
X-75992034Y25496248D01*
X-75840843Y25532534D02*
X-75780367Y25532534D01*
X-75852939Y25496248D02*
X-75810605Y25623248D01*
X-75768272Y25496248D01*
X-75707796Y25496248D02*
X-75719891Y25502296D01*
X-75725939Y25514391D01*
X-75725939Y25623248D01*
X-75641272Y25496248D02*
X-75653367Y25502296D01*
X-75659415Y25514391D01*
X-75659415Y25623248D01*
X-75496129Y25496248D02*
X-75496129Y25580915D01*
X-75496129Y25556724D02*
X-75490081Y25568820D01*
X-75484034Y25574867D01*
X-75471939Y25580915D01*
X-75459843Y25580915D01*
X-75417510Y25496248D02*
X-75417510Y25580915D01*
X-75417510Y25623248D02*
X-75423558Y25617200D01*
X-75417510Y25611153D01*
X-75411462Y25617200D01*
X-75417510Y25623248D01*
X-75417510Y25611153D01*
X-75302605Y25580915D02*
X-75302605Y25478105D01*
X-75308653Y25466010D01*
X-75314700Y25459962D01*
X-75326796Y25453915D01*
X-75344939Y25453915D01*
X-75357034Y25459962D01*
X-75302605Y25502296D02*
X-75314700Y25496248D01*
X-75338891Y25496248D01*
X-75350986Y25502296D01*
X-75357034Y25508343D01*
X-75363081Y25520439D01*
X-75363081Y25556724D01*
X-75357034Y25568820D01*
X-75350986Y25574867D01*
X-75338891Y25580915D01*
X-75314700Y25580915D01*
X-75302605Y25574867D01*
X-75242129Y25496248D02*
X-75242129Y25623248D01*
X-75187700Y25496248D02*
X-75187700Y25562772D01*
X-75193748Y25574867D01*
X-75205843Y25580915D01*
X-75223986Y25580915D01*
X-75236081Y25574867D01*
X-75242129Y25568820D01*
X-75145367Y25580915D02*
X-75096986Y25580915D01*
X-75127224Y25623248D02*
X-75127224Y25514391D01*
X-75121177Y25502296D01*
X-75109081Y25496248D01*
X-75096986Y25496248D01*
X-75060700Y25502296D02*
X-75048605Y25496248D01*
X-75024415Y25496248D01*
X-75012320Y25502296D01*
X-75006272Y25514391D01*
X-75006272Y25520439D01*
X-75012320Y25532534D01*
X-75024415Y25538581D01*
X-75042558Y25538581D01*
X-75054653Y25544629D01*
X-75060700Y25556724D01*
X-75060700Y25562772D01*
X-75054653Y25574867D01*
X-75042558Y25580915D01*
X-75024415Y25580915D01*
X-75012320Y25574867D01*
X-74855081Y25496248D02*
X-74855081Y25580915D01*
X-74855081Y25556724D02*
X-74849034Y25568820D01*
X-74842986Y25574867D01*
X-74830891Y25580915D01*
X-74818796Y25580915D01*
X-74728081Y25502296D02*
X-74740177Y25496248D01*
X-74764367Y25496248D01*
X-74776462Y25502296D01*
X-74782510Y25514391D01*
X-74782510Y25562772D01*
X-74776462Y25574867D01*
X-74764367Y25580915D01*
X-74740177Y25580915D01*
X-74728081Y25574867D01*
X-74722034Y25562772D01*
X-74722034Y25550677D01*
X-74782510Y25538581D01*
X-74673653Y25502296D02*
X-74661558Y25496248D01*
X-74637367Y25496248D01*
X-74625272Y25502296D01*
X-74619224Y25514391D01*
X-74619224Y25520439D01*
X-74625272Y25532534D01*
X-74637367Y25538581D01*
X-74655510Y25538581D01*
X-74667605Y25544629D01*
X-74673653Y25556724D01*
X-74673653Y25562772D01*
X-74667605Y25574867D01*
X-74655510Y25580915D01*
X-74637367Y25580915D01*
X-74625272Y25574867D01*
X-74516415Y25502296D02*
X-74528510Y25496248D01*
X-74552700Y25496248D01*
X-74564796Y25502296D01*
X-74570843Y25514391D01*
X-74570843Y25562772D01*
X-74564796Y25574867D01*
X-74552700Y25580915D01*
X-74528510Y25580915D01*
X-74516415Y25574867D01*
X-74510367Y25562772D01*
X-74510367Y25550677D01*
X-74570843Y25538581D01*
X-74455939Y25496248D02*
X-74455939Y25580915D01*
X-74455939Y25556724D02*
X-74449891Y25568820D01*
X-74443843Y25574867D01*
X-74431748Y25580915D01*
X-74419653Y25580915D01*
X-74389415Y25580915D02*
X-74359177Y25496248D01*
X-74328939Y25580915D01*
X-74232177Y25502296D02*
X-74244272Y25496248D01*
X-74268462Y25496248D01*
X-74280558Y25502296D01*
X-74286605Y25514391D01*
X-74286605Y25562772D01*
X-74280558Y25574867D01*
X-74268462Y25580915D01*
X-74244272Y25580915D01*
X-74232177Y25574867D01*
X-74226129Y25562772D01*
X-74226129Y25550677D01*
X-74286605Y25538581D01*
X-74117272Y25496248D02*
X-74117272Y25623248D01*
X-74117272Y25502296D02*
X-74129367Y25496248D01*
X-74153558Y25496248D01*
X-74165653Y25502296D01*
X-74171700Y25508343D01*
X-74177748Y25520439D01*
X-74177748Y25556724D01*
X-74171700Y25568820D01*
X-74165653Y25574867D01*
X-74153558Y25580915D01*
X-74129367Y25580915D01*
X-74117272Y25574867D01*
X-74056796Y25508343D02*
X-74050748Y25502296D01*
X-74056796Y25496248D01*
X-74062843Y25502296D01*
X-74056796Y25508343D01*
X-74056796Y25496248D01*
D11*
%TO.C,H4*%
X-115989600Y63284900D02*
G75*
G03*
X-115989600Y63284900I-3700000J0D01*
G01*
%TO.C,H3*%
X-90889600Y63284900D02*
G75*
G03*
X-90889600Y63284900I-3700000J0D01*
G01*
%TO.C,H2*%
X-116289600Y12484900D02*
G75*
G03*
X-116289600Y12484900I-3700000J0D01*
G01*
%TO.C,H1*%
X10710400Y12484900D02*
G75*
G03*
X10710400Y12484900I-3700000J0D01*
G01*
%TO.C,H5*%
X-115989600Y88684900D02*
G75*
G03*
X-115989600Y88684900I-3700000J0D01*
G01*
%TD*%
M02*
