%TF.GenerationSoftware,KiCad,Pcbnew,(6.0.7)*%
%TF.CreationDate,2022-08-14T12:25:31-04:00*%
%TF.ProjectId,BBB_16,4242425f-3136-42e6-9b69-6361645f7063,v3*%
%TF.SameCoordinates,Original*%
%TF.FileFunction,Legend,Bot*%
%TF.FilePolarity,Positive*%
%FSLAX46Y46*%
G04 Gerber Fmt 4.6, Leading zero omitted, Abs format (unit mm)*
G04 Created by KiCad (PCBNEW (6.0.7)) date 2022-08-14 12:25:31*
%MOMM*%
%LPD*%
G01*
G04 APERTURE LIST*
G04 Aperture macros list*
%AMRoundRect*
0 Rectangle with rounded corners*
0 $1 Rounding radius*
0 $2 $3 $4 $5 $6 $7 $8 $9 X,Y pos of 4 corners*
0 Add a 4 corners polygon primitive as box body*
4,1,4,$2,$3,$4,$5,$6,$7,$8,$9,$2,$3,0*
0 Add four circle primitives for the rounded corners*
1,1,$1+$1,$2,$3*
1,1,$1+$1,$4,$5*
1,1,$1+$1,$6,$7*
1,1,$1+$1,$8,$9*
0 Add four rect primitives between the rounded corners*
20,1,$1+$1,$2,$3,$4,$5,0*
20,1,$1+$1,$4,$5,$6,$7,0*
20,1,$1+$1,$6,$7,$8,$9,0*
20,1,$1+$1,$8,$9,$2,$3,0*%
G04 Aperture macros list end*
%ADD10C,0.400000*%
%ADD11C,0.381000*%
%ADD12C,2.577000*%
%ADD13RoundRect,0.301000X-0.650000X-1.550000X0.650000X-1.550000X0.650000X1.550000X-0.650000X1.550000X0*%
%ADD14O,1.902000X3.702000*%
%ADD15RoundRect,0.051000X-0.850000X0.850000X-0.850000X-0.850000X0.850000X-0.850000X0.850000X0.850000X0*%
%ADD16O,1.802000X1.802000*%
%ADD17C,3.802000*%
%ADD18C,5.000000*%
%ADD19C,1.802000*%
%ADD20C,3.402000*%
%ADD21RoundRect,0.051000X0.750000X0.750000X-0.750000X0.750000X-0.750000X-0.750000X0.750000X-0.750000X0*%
%ADD22C,1.602000*%
%ADD23RoundRect,0.051000X2.000000X2.000000X-2.000000X2.000000X-2.000000X-2.000000X2.000000X-2.000000X0*%
%ADD24C,4.102000*%
%ADD25RoundRect,0.051000X-2.000000X-2.000000X2.000000X-2.000000X2.000000X2.000000X-2.000000X2.000000X0*%
%ADD26RoundRect,0.051000X0.765000X0.765000X-0.765000X0.765000X-0.765000X-0.765000X0.765000X-0.765000X0*%
%ADD27C,1.632000*%
%ADD28RoundRect,0.051000X-0.900000X-0.900000X0.900000X-0.900000X0.900000X0.900000X-0.900000X0.900000X0*%
%ADD29C,1.902000*%
%ADD30C,4.674000*%
%ADD31RoundRect,0.301000X-0.725000X0.600000X-0.725000X-0.600000X0.725000X-0.600000X0.725000X0.600000X0*%
%ADD32O,2.052000X1.802000*%
%ADD33C,2.006000*%
%ADD34RoundRect,0.051000X-0.850000X-0.850000X0.850000X-0.850000X0.850000X0.850000X-0.850000X0.850000X0*%
%ADD35RoundRect,0.051000X-1.300000X1.300000X-1.300000X-1.300000X1.300000X-1.300000X1.300000X1.300000X0*%
%ADD36C,2.702000*%
%ADD37RoundRect,0.051000X0.700000X-0.700000X0.700000X0.700000X-0.700000X0.700000X-0.700000X-0.700000X0*%
%ADD38C,1.502000*%
%ADD39RoundRect,0.051000X1.000000X1.000000X-1.000000X1.000000X-1.000000X-1.000000X1.000000X-1.000000X0*%
%ADD40C,2.102000*%
%ADD41RoundRect,0.051000X-0.900000X0.900000X-0.900000X-0.900000X0.900000X-0.900000X0.900000X0.900000X0*%
%ADD42C,1.626000*%
%ADD43C,0.902000*%
G04 APERTURE END LIST*
D10*
X74824142Y-150085514D02*
X77109857Y-150085514D01*
X84224142Y-150185514D02*
X86509857Y-150185514D01*
X85367000Y-149042657D02*
X85367000Y-151328371D01*
X211924142Y-150085514D02*
X214209857Y-150085514D01*
X202524142Y-150085514D02*
X204809857Y-150085514D01*
X203667000Y-148942657D02*
X203667000Y-151228371D01*
D11*
%TO.C,U1*%
X222647000Y-58368800D02*
X222647000Y-45414800D01*
X202327000Y-58749800D02*
X222647000Y-58749800D01*
X215662000Y-76529800D02*
X202327000Y-76529800D01*
X222647000Y-44144800D02*
X222647000Y-45414800D01*
X215662000Y-92404800D02*
X215662000Y-76910800D01*
X148987000Y-37794800D02*
X216297000Y-37794800D01*
X222647000Y-58749800D02*
X222647000Y-58368800D01*
X202327000Y-76529800D02*
X202327000Y-58749800D01*
X136287000Y-50494800D02*
X136287000Y-79704800D01*
X148987000Y-92404800D02*
X215662000Y-92404800D01*
X215662000Y-76910800D02*
X215662000Y-76529800D01*
X222647000Y-44144800D02*
G75*
G03*
X216297000Y-37794800I-6350000J0D01*
G01*
X136287000Y-79704800D02*
G75*
G03*
X148987000Y-92404800I12700000J0D01*
G01*
X148987000Y-37794800D02*
G75*
G03*
X136287000Y-50494800I0J-12700000D01*
G01*
%TD*%
%LPC*%
D12*
%TO.C,F18*%
X74282600Y-135238600D03*
X74282600Y-131538600D03*
X74282600Y-127038600D03*
X74282600Y-123338600D03*
%TD*%
D13*
%TO.C,J2*%
X89100000Y-129600000D03*
D14*
X92600000Y-129600000D03*
X96100000Y-129600000D03*
%TD*%
D13*
%TO.C,J5*%
X119100000Y-116600000D03*
D14*
X122600000Y-116600000D03*
X126100000Y-116600000D03*
%TD*%
D13*
%TO.C,J6*%
X119214342Y-129600000D03*
D14*
X122714342Y-129600000D03*
X126214342Y-129600000D03*
%TD*%
D13*
%TO.C,J7*%
X134100000Y-116600000D03*
D14*
X137600000Y-116600000D03*
X141100000Y-116600000D03*
%TD*%
D13*
%TO.C,J8*%
X134100000Y-129600000D03*
D14*
X137600000Y-129600000D03*
X141100000Y-129600000D03*
%TD*%
D13*
%TO.C,J9*%
X149100000Y-116600000D03*
D14*
X152600000Y-116600000D03*
X156100000Y-116600000D03*
%TD*%
D13*
%TO.C,J10*%
X149100000Y-129600000D03*
D14*
X152600000Y-129600000D03*
X156100000Y-129600000D03*
%TD*%
D13*
%TO.C,J11*%
X164100000Y-116600000D03*
D14*
X167600000Y-116600000D03*
X171100000Y-116600000D03*
%TD*%
D13*
%TO.C,J12*%
X164100000Y-129600000D03*
D14*
X167600000Y-129600000D03*
X171100000Y-129600000D03*
%TD*%
D13*
%TO.C,J13*%
X179100000Y-116600000D03*
D14*
X182600000Y-116600000D03*
X186100000Y-116600000D03*
%TD*%
D13*
%TO.C,J14*%
X179100000Y-129600000D03*
D14*
X182600000Y-129600000D03*
X186100000Y-129600000D03*
%TD*%
D13*
%TO.C,J15*%
X194100000Y-116600000D03*
D14*
X197600000Y-116600000D03*
X201100000Y-116600000D03*
%TD*%
D13*
%TO.C,J16*%
X194100000Y-129600000D03*
D14*
X197600000Y-129600000D03*
X201100000Y-129600000D03*
%TD*%
D12*
%TO.C,F1*%
X94222600Y-150288600D03*
X94222600Y-146588600D03*
X94222600Y-142088600D03*
X94222600Y-138388600D03*
%TD*%
%TO.C,F7*%
X134425198Y-150298600D03*
X134425198Y-146598600D03*
X134425198Y-142098600D03*
X134425198Y-138398600D03*
%TD*%
%TO.C,F14*%
X181328229Y-150363600D03*
X181328229Y-146663600D03*
X181328229Y-142163600D03*
X181328229Y-138463600D03*
%TD*%
%TO.C,F2*%
X100923033Y-150303600D03*
X100923033Y-146603600D03*
X100923033Y-142103600D03*
X100923033Y-138403600D03*
%TD*%
%TO.C,F6*%
X127724765Y-150298600D03*
X127724765Y-146598600D03*
X127724765Y-142098600D03*
X127724765Y-138398600D03*
%TD*%
%TO.C,F8*%
X141125631Y-150298600D03*
X141125631Y-146598600D03*
X141125631Y-142098600D03*
X141125631Y-138398600D03*
%TD*%
%TO.C,F9*%
X147826064Y-150298600D03*
X147826064Y-146598600D03*
X147826064Y-142098600D03*
X147826064Y-138398600D03*
%TD*%
%TO.C,F10*%
X154526497Y-150298600D03*
X154526497Y-146598600D03*
X154526497Y-142098600D03*
X154526497Y-138398600D03*
%TD*%
%TO.C,F16*%
X194729100Y-150363600D03*
X194729100Y-146663600D03*
X194729100Y-142163600D03*
X194729100Y-138463600D03*
%TD*%
%TO.C,F5*%
X121024332Y-150298600D03*
X121024332Y-146598600D03*
X121024332Y-142098600D03*
X121024332Y-138398600D03*
%TD*%
%TO.C,F3*%
X107623466Y-150303600D03*
X107623466Y-146603600D03*
X107623466Y-142103600D03*
X107623466Y-138403600D03*
%TD*%
%TO.C,F13*%
X174627796Y-150363600D03*
X174627796Y-146663600D03*
X174627796Y-142163600D03*
X174627796Y-138463600D03*
%TD*%
%TO.C,F11*%
X161226930Y-150298600D03*
X161226930Y-146598600D03*
X161226930Y-142098600D03*
X161226930Y-138398600D03*
%TD*%
%TO.C,F4*%
X114323899Y-150303600D03*
X114323899Y-146603600D03*
X114323899Y-142103600D03*
X114323899Y-138403600D03*
%TD*%
D13*
%TO.C,J1*%
X89100000Y-116600000D03*
D14*
X92600000Y-116600000D03*
X96100000Y-116600000D03*
%TD*%
D13*
%TO.C,J3*%
X104100000Y-116600000D03*
D14*
X107600000Y-116600000D03*
X111100000Y-116600000D03*
%TD*%
D13*
%TO.C,J4*%
X104100000Y-129600000D03*
D14*
X107600000Y-129600000D03*
X111100000Y-129600000D03*
%TD*%
D15*
%TO.C,J25*%
X215767000Y-47499800D03*
D16*
X213227000Y-47499800D03*
X210687000Y-47499800D03*
X208147000Y-47499800D03*
X205607000Y-47499800D03*
%TD*%
D12*
%TO.C,F15*%
X188028662Y-150363600D03*
X188028662Y-146663600D03*
X188028662Y-142163600D03*
X188028662Y-138463600D03*
%TD*%
%TO.C,F12*%
X167927363Y-150298600D03*
X167927363Y-146598600D03*
X167927363Y-142098600D03*
X167927363Y-138398600D03*
%TD*%
D17*
%TO.C,H4*%
X81427600Y-66318600D03*
%TD*%
%TO.C,H3*%
X106527600Y-66318600D03*
%TD*%
D18*
%TO.C,J26*%
X158817000Y-63299800D03*
X182117000Y-63299800D03*
D19*
X166667000Y-63799800D03*
X169167000Y-63799800D03*
X171767000Y-63799800D03*
X174267000Y-63799800D03*
%TD*%
D17*
%TO.C,H2*%
X81127600Y-117118600D03*
%TD*%
D12*
%TO.C,F17*%
X214726000Y-135181800D03*
X214726000Y-131481800D03*
X214726000Y-126981800D03*
X214726000Y-123281800D03*
%TD*%
D20*
%TO.C,J20*%
X80689500Y-78649800D03*
X92119500Y-78649800D03*
D21*
X90849500Y-84999800D03*
D22*
X89579500Y-87539800D03*
X88309500Y-84999800D03*
X87039500Y-87539800D03*
X85769500Y-84999800D03*
X84499500Y-87539800D03*
X83229500Y-84999800D03*
X81959500Y-87539800D03*
%TD*%
D23*
%TO.C,J17*%
X85567000Y-145399800D03*
D24*
X76067000Y-145399800D03*
%TD*%
D25*
%TO.C,J18*%
X203567000Y-145399800D03*
D24*
X213067000Y-145399800D03*
%TD*%
D20*
%TO.C,J21*%
X100489500Y-78549800D03*
X111919500Y-78549800D03*
D21*
X110649500Y-84899800D03*
D22*
X109379500Y-87439800D03*
X108109500Y-84899800D03*
X106839500Y-87439800D03*
X105569500Y-84899800D03*
X104299500Y-87439800D03*
X103029500Y-84899800D03*
X101759500Y-87439800D03*
%TD*%
D26*
%TO.C,J24*%
X126837000Y-42629800D03*
D27*
X126837000Y-45169800D03*
X124297000Y-42629800D03*
X124297000Y-45169800D03*
X121757000Y-42629800D03*
X121757000Y-45169800D03*
X119217000Y-42629800D03*
X119217000Y-45169800D03*
X116677000Y-42629800D03*
X116677000Y-45169800D03*
X114137000Y-42629800D03*
X114137000Y-45169800D03*
X111597000Y-42629800D03*
X111597000Y-45169800D03*
X109057000Y-42629800D03*
X109057000Y-45169800D03*
X106517000Y-42629800D03*
X106517000Y-45169800D03*
X103977000Y-42629800D03*
X103977000Y-45169800D03*
X101437000Y-42629800D03*
X101437000Y-45169800D03*
X98897000Y-42629800D03*
X98897000Y-45169800D03*
%TD*%
D28*
%TO.C,U1*%
X202962000Y-87959800D03*
D29*
X202962000Y-90499800D03*
X200422000Y-87959800D03*
X200422000Y-90499800D03*
X197882000Y-87959800D03*
X197882000Y-90499800D03*
X195342000Y-87959800D03*
X195342000Y-90499800D03*
X192802000Y-87959800D03*
X192802000Y-90499800D03*
X190262000Y-87959800D03*
X190262000Y-90499800D03*
X187722000Y-87959800D03*
X187722000Y-90499800D03*
X185182000Y-87959800D03*
X185182000Y-90499800D03*
X182642000Y-87959800D03*
X182642000Y-90499800D03*
X180102000Y-87959800D03*
X180102000Y-90499800D03*
X177562000Y-87959800D03*
X177562000Y-90499800D03*
X175022000Y-87959800D03*
X175022000Y-90499800D03*
X172482000Y-87959800D03*
X172482000Y-90499800D03*
X169942000Y-87959800D03*
X169942000Y-90499800D03*
X167402000Y-87959800D03*
X167402000Y-90499800D03*
X164862000Y-87959800D03*
X164862000Y-90499800D03*
X162322000Y-87959800D03*
X162322000Y-90499800D03*
X159782000Y-87959800D03*
X159782000Y-90499800D03*
X157242000Y-87959800D03*
X157242000Y-90499800D03*
X154702000Y-87959800D03*
X154702000Y-90499800D03*
X152162000Y-87959800D03*
X152162000Y-90499800D03*
X149622000Y-87959800D03*
X149622000Y-90499800D03*
X147082000Y-87959800D03*
X147082000Y-90499800D03*
D28*
X202962000Y-39699800D03*
D29*
X202962000Y-42239800D03*
X200422000Y-39699800D03*
X200422000Y-42239800D03*
X197882000Y-39699800D03*
X197882000Y-42239800D03*
X195342000Y-39699800D03*
X195342000Y-42239800D03*
X192802000Y-39699800D03*
X192802000Y-42239800D03*
X190262000Y-39699800D03*
X190262000Y-42239800D03*
X187722000Y-39699800D03*
X187722000Y-42239800D03*
X185182000Y-39699800D03*
X185182000Y-42239800D03*
X182642000Y-39699800D03*
X182642000Y-42239800D03*
X180102000Y-39699800D03*
X180102000Y-42239800D03*
X177562000Y-39699800D03*
X177562000Y-42239800D03*
X175022000Y-39699800D03*
X175022000Y-42239800D03*
X172482000Y-39699800D03*
X172482000Y-42239800D03*
X169942000Y-39699800D03*
X169942000Y-42239800D03*
X167402000Y-39699800D03*
X167402000Y-42239800D03*
X164862000Y-39699800D03*
X164862000Y-42239800D03*
X162322000Y-39699800D03*
X162322000Y-42239800D03*
X159782000Y-39699800D03*
X159782000Y-42239800D03*
X157242000Y-39699800D03*
X157242000Y-42239800D03*
X154702000Y-39699800D03*
X154702000Y-42239800D03*
X152162000Y-39699800D03*
X152162000Y-42239800D03*
X149622000Y-39699800D03*
X149622000Y-42239800D03*
X147082000Y-39699800D03*
X147082000Y-42239800D03*
D30*
X142002000Y-44144800D03*
X208042000Y-40969800D03*
X208042000Y-89229800D03*
X142002000Y-86054800D03*
%TD*%
D17*
%TO.C,H1*%
X208127600Y-117118600D03*
%TD*%
D15*
%TO.C,J23*%
X198567000Y-107299800D03*
D16*
X196027000Y-107299800D03*
X193487000Y-107299800D03*
%TD*%
D31*
%TO.C,J19*%
X74767000Y-47999800D03*
D32*
X74767000Y-50499800D03*
X74767000Y-52999800D03*
X74767000Y-55499800D03*
%TD*%
D33*
%TO.C,J27*%
X215117459Y-109705360D03*
X215117459Y-105895360D03*
%TD*%
D34*
%TO.C,J28*%
X216167000Y-114099800D03*
D16*
X216167000Y-116639800D03*
X216167000Y-119179800D03*
%TD*%
D35*
%TO.C,J22*%
X75467000Y-94199800D03*
D36*
X75467000Y-99199800D03*
X75467000Y-104199800D03*
X75467000Y-109199800D03*
%TD*%
D37*
%TO.C,SW6*%
X73667000Y-84199800D03*
D38*
X73667000Y-81699800D03*
X73667000Y-79199800D03*
X76967000Y-84199800D03*
X76967000Y-81699800D03*
X76967000Y-79199800D03*
%TD*%
D39*
%TO.C,C1*%
X190467000Y-99099800D03*
D40*
X185467000Y-99099800D03*
%TD*%
D17*
%TO.C,H5*%
X81427600Y-40918600D03*
%TD*%
D41*
%TO.C,U2*%
X198867000Y-100699800D03*
D29*
X198867000Y-98159800D03*
X198867000Y-95619800D03*
D42*
X216647000Y-94349800D03*
X216647000Y-96889800D03*
X216647000Y-99429800D03*
X216647000Y-101969800D03*
X212837000Y-94117860D03*
X212837000Y-96812800D03*
X212837000Y-99506800D03*
X212837000Y-102201740D03*
%TD*%
D43*
X158001000Y-121017800D03*
X218067000Y-122399800D03*
X72167000Y-76499800D03*
X98651000Y-119967800D03*
X161667000Y-68199800D03*
X145167000Y-100799800D03*
X86667000Y-49099800D03*
X125837000Y-74249800D03*
X209167000Y-95799800D03*
X211667000Y-132699800D03*
X118767000Y-88899800D03*
X142151000Y-126167800D03*
X90767000Y-65499800D03*
X77767000Y-110799800D03*
X108967000Y-100799800D03*
X194247000Y-44889800D03*
X91967000Y-37699800D03*
X188597000Y-44989800D03*
X184967000Y-67599800D03*
X158167000Y-73199800D03*
X194867000Y-48699800D03*
X104467000Y-54999800D03*
X211387500Y-89720207D03*
X121967000Y-60899800D03*
X86367000Y-44199800D03*
X162267000Y-73099800D03*
X85167000Y-92499800D03*
X178067000Y-80899800D03*
X71267000Y-38899800D03*
X98367000Y-85999800D03*
X182747000Y-59569800D03*
X122557000Y-82249800D03*
X200167000Y-55099800D03*
X103667000Y-112699800D03*
X167307000Y-52099800D03*
X213317000Y-80889800D03*
X95667000Y-56749800D03*
X216967000Y-107999800D03*
X216667000Y-90799800D03*
X157567000Y-105199800D03*
X81367000Y-54299800D03*
X84367000Y-97699800D03*
X143151000Y-113817800D03*
X166267000Y-53899800D03*
X99717000Y-49699800D03*
X202667000Y-137299800D03*
X93547953Y-81704629D03*
X173301000Y-114717800D03*
X187137000Y-55319800D03*
X90667000Y-71699800D03*
X94567000Y-64999800D03*
X168351000Y-125267800D03*
X131767000Y-101399800D03*
X111767000Y-62249800D03*
X98817000Y-72599800D03*
X116867000Y-106099800D03*
X206767000Y-95699800D03*
X200667000Y-60699800D03*
X168567000Y-69499800D03*
X79467000Y-97599800D03*
X140267000Y-51699800D03*
X134367000Y-73999800D03*
X140167000Y-63399800D03*
X181467000Y-96699800D03*
X100167000Y-56479800D03*
X93967000Y-75799800D03*
X127251000Y-113767800D03*
X183577000Y-54639800D03*
X191867000Y-85499800D03*
X213267000Y-110199800D03*
X71267000Y-128699800D03*
X95117000Y-41049800D03*
X192667000Y-49999800D03*
X178537000Y-46949800D03*
X83267000Y-77299800D03*
X71267000Y-133199800D03*
X71267000Y-59099800D03*
X83767000Y-82299800D03*
X193167000Y-98699800D03*
X83467000Y-122999800D03*
X121607000Y-74999800D03*
X112567000Y-85099800D03*
X212067000Y-129599800D03*
X175067000Y-104699800D03*
X217467000Y-56999800D03*
X76267000Y-73299800D03*
X86167000Y-62299800D03*
X176467000Y-105899800D03*
X138467000Y-79999800D03*
X203967000Y-95699800D03*
X178767000Y-98949800D03*
X113967000Y-93299800D03*
X72767000Y-103599800D03*
X93567000Y-88299800D03*
X202467000Y-120799800D03*
X118847000Y-83409800D03*
X137967000Y-41599800D03*
X175167000Y-96649800D03*
X145567000Y-58099800D03*
X168167000Y-60889800D03*
X111967000Y-55199800D03*
X159767000Y-96699800D03*
X203067000Y-123999800D03*
X218067000Y-123899800D03*
X208867000Y-103999800D03*
X168467000Y-77599800D03*
X121767000Y-55499800D03*
X203967000Y-98699800D03*
X90667000Y-75899800D03*
X187551000Y-120517800D03*
X100267000Y-99299800D03*
X128667000Y-101299800D03*
X87267000Y-138499800D03*
X193167000Y-94999800D03*
X178767000Y-97749800D03*
X172667000Y-69499800D03*
X195767000Y-55089800D03*
X113367000Y-121199800D03*
X86093940Y-89458600D03*
X98667000Y-65499800D03*
X130567000Y-89999800D03*
X72267000Y-64499800D03*
X150217000Y-100299800D03*
X77867000Y-107899800D03*
X117067000Y-99269800D03*
X150067000Y-84299800D03*
X71267000Y-131699800D03*
X142751000Y-121517800D03*
X153167000Y-65899800D03*
X218067000Y-78899800D03*
X83467000Y-134499800D03*
X178517048Y-101299848D03*
X217567000Y-38999800D03*
X212067000Y-127999800D03*
X182667000Y-73399800D03*
X72767000Y-86499800D03*
X186567000Y-48499800D03*
X112267000Y-69199800D03*
X189367000Y-104999800D03*
X158567000Y-107799800D03*
X187567000Y-58999800D03*
X114767000Y-111099800D03*
X195367000Y-74199800D03*
X205667000Y-137299800D03*
X145067000Y-75799800D03*
X75067000Y-59599800D03*
X184017000Y-50269800D03*
X190167000Y-74399800D03*
X137867000Y-45399800D03*
X95717000Y-49749800D03*
X144867000Y-69499800D03*
X159967000Y-101399800D03*
X76367000Y-44399800D03*
X181877000Y-54679800D03*
X178467000Y-73399800D03*
X117347000Y-81449800D03*
X124807000Y-80179800D03*
X118067000Y-95699800D03*
X128651000Y-119967800D03*
X200067000Y-137299800D03*
X99567000Y-91099800D03*
X135367000Y-105899800D03*
X196467000Y-91899800D03*
X182667000Y-50309800D03*
X82967000Y-73499800D03*
X178767000Y-96449800D03*
X164267000Y-80099800D03*
X172967000Y-96699800D03*
X102587000Y-57929800D03*
X202657000Y-83719800D03*
X77567000Y-133099800D03*
X205637000Y-80729800D03*
X170067000Y-101399800D03*
X82067000Y-138499800D03*
X101627000Y-65459800D03*
X207567000Y-105199800D03*
X95067000Y-110699800D03*
X211667000Y-134199800D03*
X172467000Y-77599800D03*
X71767000Y-108199800D03*
X200567000Y-66699800D03*
X126137000Y-68889800D03*
X131167000Y-120699800D03*
X210267000Y-56999800D03*
X78467000Y-105199800D03*
X166477000Y-58699800D03*
X129967000Y-112499800D03*
X157167000Y-51099800D03*
X200867000Y-106899800D03*
X216267000Y-85099800D03*
X152217000Y-73029800D03*
X131767000Y-96699800D03*
X195367000Y-102699800D03*
X195567000Y-60799800D03*
X122167000Y-66299800D03*
X145167000Y-96199800D03*
X145067000Y-105099800D03*
X101567000Y-110499800D03*
X118567000Y-101399800D03*
X192417000Y-54279800D03*
X100467000Y-107599800D03*
X212567000Y-119699800D03*
X103267000Y-62099800D03*
X217667000Y-131199800D03*
X172567000Y-101299800D03*
X132967000Y-87899800D03*
X217667000Y-129399800D03*
X195807000Y-80499800D03*
X213167000Y-116399800D03*
X160567000Y-112599800D03*
X72367000Y-69699800D03*
X205467000Y-86199800D03*
X158567000Y-98999800D03*
X217667000Y-132899800D03*
X190159289Y-113824300D03*
X218367000Y-81399800D03*
X175167000Y-67599800D03*
X175167000Y-97849800D03*
X175167000Y-53299800D03*
X131967000Y-66499800D03*
X130467000Y-77199800D03*
X117167000Y-112799800D03*
X208367000Y-109199800D03*
X180967000Y-100099800D03*
X175167000Y-99049800D03*
X182067000Y-106399800D03*
X145367000Y-111299800D03*
X198267000Y-93299800D03*
X204167000Y-56999800D03*
X119167000Y-58199800D03*
X104567000Y-96299800D03*
X77167000Y-128799800D03*
X101567000Y-83299800D03*
X86167000Y-79899800D03*
X123667000Y-90299800D03*
X98451000Y-114417800D03*
X101267000Y-120899800D03*
X105367000Y-104799800D03*
X182667000Y-103499800D03*
X201067000Y-102599800D03*
X200667000Y-75499800D03*
X111967000Y-58299800D03*
X100197000Y-67029800D03*
X92067000Y-55999800D03*
X210167000Y-105199800D03*
X126567000Y-55499800D03*
X95367000Y-94299800D03*
X180987000Y-50199800D03*
X112667000Y-100799800D03*
X187167000Y-86099800D03*
X104567000Y-76199800D03*
X209167000Y-98799800D03*
X84867000Y-138499800D03*
X144267000Y-90199800D03*
X174637000Y-46739800D03*
X78967000Y-133099800D03*
X176067000Y-61899800D03*
X133867000Y-107299800D03*
X132167000Y-56099800D03*
X195467000Y-66499800D03*
X77167000Y-130099800D03*
X85667000Y-120899800D03*
X207267000Y-102699800D03*
X195667000Y-94999800D03*
X196067000Y-104899800D03*
X208567000Y-83299800D03*
X203667000Y-104599800D03*
X90167000Y-91699800D03*
X146967000Y-120799800D03*
X185657000Y-53799800D03*
X121457000Y-71019800D03*
X137767000Y-109399800D03*
X71267000Y-130299800D03*
X82567000Y-49299800D03*
X124967000Y-55399800D03*
X123567000Y-56999800D03*
X98651382Y-37449789D03*
X187062000Y-57204800D03*
X195767000Y-44699800D03*
X176777000Y-58169800D03*
X201007000Y-47919800D03*
X180067000Y-46224843D03*
X181367000Y-46224843D03*
X202557000Y-48194300D03*
X166767000Y-44999800D03*
X167667000Y-43999800D03*
X107767000Y-82899800D03*
X128417000Y-71449800D03*
X115067000Y-72699800D03*
X114917000Y-74249800D03*
X128717000Y-73249800D03*
X128367000Y-75199800D03*
X116667000Y-77249800D03*
X117017000Y-78499800D03*
X128567000Y-77049800D03*
X206567000Y-82299800D03*
X202067000Y-82299800D03*
M02*
