%TF.GenerationSoftware,KiCad,Pcbnew,(6.0.5)*%
%TF.CreationDate,2022-06-14T18:19:25-05:00*%
%TF.ProjectId,BBB_16,4242425f-3136-42e6-9b69-6361645f7063,v2*%
%TF.SameCoordinates,Original*%
%TF.FileFunction,Soldermask,Bot*%
%TF.FilePolarity,Negative*%
%FSLAX46Y46*%
G04 Gerber Fmt 4.6, Leading zero omitted, Abs format (unit mm)*
G04 Created by KiCad (PCBNEW (6.0.5)) date 2022-06-14 18:19:25*
%MOMM*%
%LPD*%
G01*
G04 APERTURE LIST*
G04 Aperture macros list*
%AMRoundRect*
0 Rectangle with rounded corners*
0 $1 Rounding radius*
0 $2 $3 $4 $5 $6 $7 $8 $9 X,Y pos of 4 corners*
0 Add a 4 corners polygon primitive as box body*
4,1,4,$2,$3,$4,$5,$6,$7,$8,$9,$2,$3,0*
0 Add four circle primitives for the rounded corners*
1,1,$1+$1,$2,$3*
1,1,$1+$1,$4,$5*
1,1,$1+$1,$6,$7*
1,1,$1+$1,$8,$9*
0 Add four rect primitives between the rounded corners*
20,1,$1+$1,$2,$3,$4,$5,0*
20,1,$1+$1,$4,$5,$6,$7,0*
20,1,$1+$1,$6,$7,$8,$9,0*
20,1,$1+$1,$8,$9,$2,$3,0*%
G04 Aperture macros list end*
%ADD10RoundRect,0.051000X0.800000X0.800000X-0.800000X0.800000X-0.800000X-0.800000X0.800000X-0.800000X0*%
%ADD11O,1.702000X1.702000*%
%ADD12RoundRect,0.051000X1.000000X-0.952500X1.000000X0.952500X-1.000000X0.952500X-1.000000X-0.952500X0*%
%ADD13O,2.102000X2.007000*%
%ADD14C,2.577000*%
%ADD15RoundRect,0.301000X-0.650000X-1.550000X0.650000X-1.550000X0.650000X1.550000X-0.650000X1.550000X0*%
%ADD16O,1.902000X3.702000*%
%ADD17RoundRect,0.051000X-0.850000X0.850000X-0.850000X-0.850000X0.850000X-0.850000X0.850000X0.850000X0*%
%ADD18O,1.802000X1.802000*%
%ADD19C,3.802000*%
%ADD20C,5.000000*%
%ADD21C,1.802000*%
%ADD22C,3.302000*%
%ADD23RoundRect,0.051000X0.750000X0.750000X-0.750000X0.750000X-0.750000X-0.750000X0.750000X-0.750000X0*%
%ADD24C,1.602000*%
%ADD25RoundRect,0.051000X2.000000X2.000000X-2.000000X2.000000X-2.000000X-2.000000X2.000000X-2.000000X0*%
%ADD26C,4.102000*%
%ADD27RoundRect,0.051000X-2.000000X-2.000000X2.000000X-2.000000X2.000000X2.000000X-2.000000X2.000000X0*%
%ADD28RoundRect,0.051000X0.765000X0.765000X-0.765000X0.765000X-0.765000X-0.765000X0.765000X-0.765000X0*%
%ADD29C,1.632000*%
%ADD30C,4.674000*%
%ADD31RoundRect,0.051000X-0.900000X-0.900000X0.900000X-0.900000X0.900000X0.900000X-0.900000X0.900000X0*%
%ADD32C,1.902000*%
%ADD33RoundRect,0.301000X-0.725000X0.600000X-0.725000X-0.600000X0.725000X-0.600000X0.725000X0.600000X0*%
%ADD34O,2.052000X1.802000*%
%ADD35C,2.006000*%
%ADD36RoundRect,0.051000X-0.850000X-0.850000X0.850000X-0.850000X0.850000X0.850000X-0.850000X0.850000X0*%
%ADD37RoundRect,0.051000X-1.300000X1.300000X-1.300000X-1.300000X1.300000X-1.300000X1.300000X1.300000X0*%
%ADD38C,2.702000*%
%ADD39RoundRect,0.051000X0.700000X-0.700000X0.700000X0.700000X-0.700000X0.700000X-0.700000X-0.700000X0*%
%ADD40C,1.502000*%
%ADD41RoundRect,0.051000X1.000000X-1.000000X1.000000X1.000000X-1.000000X1.000000X-1.000000X-1.000000X0*%
%ADD42C,2.102000*%
G04 APERTURE END LIST*
D10*
%TO.C,U5*%
X97767000Y-59999800D03*
D11*
X97767000Y-57459800D03*
X97767000Y-54919800D03*
X97767000Y-52379800D03*
X90147000Y-52379800D03*
X90147000Y-54919800D03*
X90147000Y-57459800D03*
X90147000Y-59999800D03*
%TD*%
D12*
%TO.C,U2*%
X214467000Y-99899800D03*
D13*
X214467000Y-97359800D03*
X214467000Y-94819800D03*
%TD*%
D14*
%TO.C,F18*%
X74282600Y-135238600D03*
X74282600Y-131538600D03*
X74282600Y-127038600D03*
X74282600Y-123338600D03*
%TD*%
D15*
%TO.C,J2*%
X89100000Y-129600000D03*
D16*
X92600000Y-129600000D03*
X96100000Y-129600000D03*
%TD*%
D15*
%TO.C,J5*%
X119100000Y-116600000D03*
D16*
X122600000Y-116600000D03*
X126100000Y-116600000D03*
%TD*%
D15*
%TO.C,J6*%
X119214342Y-129600000D03*
D16*
X122714342Y-129600000D03*
X126214342Y-129600000D03*
%TD*%
D15*
%TO.C,J7*%
X134100000Y-116600000D03*
D16*
X137600000Y-116600000D03*
X141100000Y-116600000D03*
%TD*%
D15*
%TO.C,J8*%
X134100000Y-129600000D03*
D16*
X137600000Y-129600000D03*
X141100000Y-129600000D03*
%TD*%
D15*
%TO.C,J9*%
X149100000Y-116600000D03*
D16*
X152600000Y-116600000D03*
X156100000Y-116600000D03*
%TD*%
D15*
%TO.C,J10*%
X149100000Y-129600000D03*
D16*
X152600000Y-129600000D03*
X156100000Y-129600000D03*
%TD*%
D15*
%TO.C,J11*%
X164100000Y-116600000D03*
D16*
X167600000Y-116600000D03*
X171100000Y-116600000D03*
%TD*%
D15*
%TO.C,J12*%
X164100000Y-129600000D03*
D16*
X167600000Y-129600000D03*
X171100000Y-129600000D03*
%TD*%
D15*
%TO.C,J13*%
X179100000Y-116600000D03*
D16*
X182600000Y-116600000D03*
X186100000Y-116600000D03*
%TD*%
D15*
%TO.C,J14*%
X179100000Y-129600000D03*
D16*
X182600000Y-129600000D03*
X186100000Y-129600000D03*
%TD*%
D15*
%TO.C,J15*%
X194100000Y-116600000D03*
D16*
X197600000Y-116600000D03*
X201100000Y-116600000D03*
%TD*%
D15*
%TO.C,J16*%
X194100000Y-129600000D03*
D16*
X197600000Y-129600000D03*
X201100000Y-129600000D03*
%TD*%
D14*
%TO.C,F1*%
X94222600Y-150288600D03*
X94222600Y-146588600D03*
X94222600Y-142088600D03*
X94222600Y-138388600D03*
%TD*%
%TO.C,F7*%
X134425198Y-150298600D03*
X134425198Y-146598600D03*
X134425198Y-142098600D03*
X134425198Y-138398600D03*
%TD*%
%TO.C,F14*%
X181328229Y-150363600D03*
X181328229Y-146663600D03*
X181328229Y-142163600D03*
X181328229Y-138463600D03*
%TD*%
%TO.C,F2*%
X100923033Y-150303600D03*
X100923033Y-146603600D03*
X100923033Y-142103600D03*
X100923033Y-138403600D03*
%TD*%
%TO.C,F6*%
X127724765Y-150298600D03*
X127724765Y-146598600D03*
X127724765Y-142098600D03*
X127724765Y-138398600D03*
%TD*%
%TO.C,F8*%
X141125631Y-150298600D03*
X141125631Y-146598600D03*
X141125631Y-142098600D03*
X141125631Y-138398600D03*
%TD*%
%TO.C,F9*%
X147826064Y-150298600D03*
X147826064Y-146598600D03*
X147826064Y-142098600D03*
X147826064Y-138398600D03*
%TD*%
%TO.C,F10*%
X154526497Y-150298600D03*
X154526497Y-146598600D03*
X154526497Y-142098600D03*
X154526497Y-138398600D03*
%TD*%
%TO.C,F16*%
X194729100Y-150363600D03*
X194729100Y-146663600D03*
X194729100Y-142163600D03*
X194729100Y-138463600D03*
%TD*%
%TO.C,F5*%
X121024332Y-150298600D03*
X121024332Y-146598600D03*
X121024332Y-142098600D03*
X121024332Y-138398600D03*
%TD*%
%TO.C,F3*%
X107623466Y-150303600D03*
X107623466Y-146603600D03*
X107623466Y-142103600D03*
X107623466Y-138403600D03*
%TD*%
%TO.C,F13*%
X174627796Y-150363600D03*
X174627796Y-146663600D03*
X174627796Y-142163600D03*
X174627796Y-138463600D03*
%TD*%
%TO.C,F11*%
X161226930Y-150298600D03*
X161226930Y-146598600D03*
X161226930Y-142098600D03*
X161226930Y-138398600D03*
%TD*%
%TO.C,F4*%
X114323899Y-150303600D03*
X114323899Y-146603600D03*
X114323899Y-142103600D03*
X114323899Y-138403600D03*
%TD*%
D15*
%TO.C,J1*%
X89100000Y-116600000D03*
D16*
X92600000Y-116600000D03*
X96100000Y-116600000D03*
%TD*%
D15*
%TO.C,J3*%
X104100000Y-116600000D03*
D16*
X107600000Y-116600000D03*
X111100000Y-116600000D03*
%TD*%
D15*
%TO.C,J4*%
X104100000Y-129600000D03*
D16*
X107600000Y-129600000D03*
X111100000Y-129600000D03*
%TD*%
D17*
%TO.C,J25*%
X215767000Y-47499800D03*
D18*
X213227000Y-47499800D03*
X210687000Y-47499800D03*
X208147000Y-47499800D03*
X205607000Y-47499800D03*
%TD*%
D14*
%TO.C,F15*%
X188028662Y-150363600D03*
X188028662Y-146663600D03*
X188028662Y-142163600D03*
X188028662Y-138463600D03*
%TD*%
%TO.C,F12*%
X167927363Y-150298600D03*
X167927363Y-146598600D03*
X167927363Y-142098600D03*
X167927363Y-138398600D03*
%TD*%
D19*
%TO.C,H4*%
X81427600Y-66318600D03*
%TD*%
%TO.C,H3*%
X106527600Y-66318600D03*
%TD*%
D20*
%TO.C,J26*%
X158817000Y-63299800D03*
X182117000Y-63299800D03*
X182117000Y-39499800D03*
X158817000Y-39499800D03*
D21*
X166667000Y-63799800D03*
X169167000Y-63799800D03*
X171767000Y-63799800D03*
X174267000Y-63799800D03*
%TD*%
D19*
%TO.C,H2*%
X81127600Y-117118600D03*
%TD*%
D14*
%TO.C,F17*%
X214726000Y-135181800D03*
X214726000Y-131481800D03*
X214726000Y-126981800D03*
X214726000Y-123281800D03*
%TD*%
D22*
%TO.C,J20*%
X80689500Y-78649800D03*
X92119500Y-78649800D03*
D23*
X90849500Y-84999800D03*
D24*
X89579500Y-87539800D03*
X88309500Y-84999800D03*
X87039500Y-87539800D03*
X85769500Y-84999800D03*
X84499500Y-87539800D03*
X83229500Y-84999800D03*
X81959500Y-87539800D03*
%TD*%
D25*
%TO.C,J17*%
X85567000Y-145399800D03*
D26*
X76067000Y-145399800D03*
%TD*%
D27*
%TO.C,J18*%
X203567000Y-145399800D03*
D26*
X213067000Y-145399800D03*
%TD*%
D22*
%TO.C,J21*%
X111919500Y-78549800D03*
X100489500Y-78549800D03*
D23*
X110649500Y-84899800D03*
D24*
X109379500Y-87439800D03*
X108109500Y-84899800D03*
X106839500Y-87439800D03*
X105569500Y-84899800D03*
X104299500Y-87439800D03*
X103029500Y-84899800D03*
X101759500Y-87439800D03*
%TD*%
D28*
%TO.C,J24*%
X126837000Y-42629800D03*
D29*
X126837000Y-45169800D03*
X124297000Y-42629800D03*
X124297000Y-45169800D03*
X121757000Y-42629800D03*
X121757000Y-45169800D03*
X119217000Y-42629800D03*
X119217000Y-45169800D03*
X116677000Y-42629800D03*
X116677000Y-45169800D03*
X114137000Y-42629800D03*
X114137000Y-45169800D03*
X111597000Y-42629800D03*
X111597000Y-45169800D03*
X109057000Y-42629800D03*
X109057000Y-45169800D03*
X106517000Y-42629800D03*
X106517000Y-45169800D03*
X103977000Y-42629800D03*
X103977000Y-45169800D03*
X101437000Y-42629800D03*
X101437000Y-45169800D03*
X98897000Y-42629800D03*
X98897000Y-45169800D03*
%TD*%
D30*
%TO.C,U1*%
X142002000Y-44144800D03*
X208042000Y-40969800D03*
X208042000Y-89229800D03*
X142002000Y-86054800D03*
D31*
X202962000Y-87959800D03*
D32*
X202962000Y-90499800D03*
X200422000Y-87959800D03*
X200422000Y-90499800D03*
X197882000Y-87959800D03*
X197882000Y-90499800D03*
X195342000Y-87959800D03*
X195342000Y-90499800D03*
X192802000Y-87959800D03*
X192802000Y-90499800D03*
X190262000Y-87959800D03*
X190262000Y-90499800D03*
X187722000Y-87959800D03*
X187722000Y-90499800D03*
X185182000Y-87959800D03*
X185182000Y-90499800D03*
X182642000Y-87959800D03*
X182642000Y-90499800D03*
X180102000Y-87959800D03*
X180102000Y-90499800D03*
X177562000Y-87959800D03*
X177562000Y-90499800D03*
X175022000Y-87959800D03*
X175022000Y-90499800D03*
X172482000Y-87959800D03*
X172482000Y-90499800D03*
X169942000Y-87959800D03*
X169942000Y-90499800D03*
X167402000Y-87959800D03*
X167402000Y-90499800D03*
X164862000Y-87959800D03*
X164862000Y-90499800D03*
X162322000Y-87959800D03*
X162322000Y-90499800D03*
X159782000Y-87959800D03*
X159782000Y-90499800D03*
X157242000Y-87959800D03*
X157242000Y-90499800D03*
X154702000Y-87959800D03*
X154702000Y-90499800D03*
X152162000Y-87959800D03*
X152162000Y-90499800D03*
X149622000Y-87959800D03*
X149622000Y-90499800D03*
X147082000Y-87959800D03*
X147082000Y-90499800D03*
D31*
X202962000Y-39699800D03*
D32*
X202962000Y-42239800D03*
X200422000Y-39699800D03*
X200422000Y-42239800D03*
X197882000Y-39699800D03*
X197882000Y-42239800D03*
X195342000Y-39699800D03*
X195342000Y-42239800D03*
X192802000Y-39699800D03*
X192802000Y-42239800D03*
X190262000Y-39699800D03*
X190262000Y-42239800D03*
X187722000Y-39699800D03*
X187722000Y-42239800D03*
X185182000Y-39699800D03*
X185182000Y-42239800D03*
X182642000Y-39699800D03*
X182642000Y-42239800D03*
X180102000Y-39699800D03*
X180102000Y-42239800D03*
X177562000Y-39699800D03*
X177562000Y-42239800D03*
X175022000Y-39699800D03*
X175022000Y-42239800D03*
X172482000Y-39699800D03*
X172482000Y-42239800D03*
X169942000Y-39699800D03*
X169942000Y-42239800D03*
X167402000Y-39699800D03*
X167402000Y-42239800D03*
X164862000Y-39699800D03*
X164862000Y-42239800D03*
X162322000Y-39699800D03*
X162322000Y-42239800D03*
X159782000Y-39699800D03*
X159782000Y-42239800D03*
X157242000Y-39699800D03*
X157242000Y-42239800D03*
X154702000Y-39699800D03*
X154702000Y-42239800D03*
X152162000Y-39699800D03*
X152162000Y-42239800D03*
X149622000Y-39699800D03*
X149622000Y-42239800D03*
X147082000Y-39699800D03*
X147082000Y-42239800D03*
%TD*%
D19*
%TO.C,H1*%
X208127600Y-117118600D03*
%TD*%
D17*
%TO.C,J23*%
X195492000Y-104299800D03*
D18*
X192952000Y-104299800D03*
X190412000Y-104299800D03*
%TD*%
D33*
%TO.C,J19*%
X74767000Y-47999800D03*
D34*
X74767000Y-50499800D03*
X74767000Y-52999800D03*
X74767000Y-55499800D03*
%TD*%
D35*
%TO.C,J27*%
X215117459Y-109205360D03*
X215117459Y-105395360D03*
%TD*%
D36*
%TO.C,J28*%
X216167000Y-114099800D03*
D18*
X216167000Y-116639800D03*
X216167000Y-119179800D03*
%TD*%
D37*
%TO.C,J22*%
X75467000Y-94199800D03*
D38*
X75467000Y-99199800D03*
X75467000Y-104199800D03*
X75467000Y-109199800D03*
%TD*%
D39*
%TO.C,SW6*%
X73667000Y-84199800D03*
D40*
X73667000Y-81699800D03*
X73667000Y-79199800D03*
X76967000Y-84199800D03*
X76967000Y-81699800D03*
X76967000Y-79199800D03*
%TD*%
D41*
%TO.C,C1*%
X202967000Y-100767477D03*
D42*
X202967000Y-95767477D03*
%TD*%
D19*
%TO.C,H5*%
X81427600Y-40918600D03*
%TD*%
G36*
X158317058Y-41945368D02*
G01*
X158318487Y-41946767D01*
X158317990Y-41948704D01*
X158316739Y-41949297D01*
X158257301Y-41954617D01*
X158202607Y-41997104D01*
X158179491Y-42062628D01*
X158179828Y-42080323D01*
X158186609Y-42154127D01*
X158185771Y-42155943D01*
X158183780Y-42156126D01*
X158182627Y-42154505D01*
X158172918Y-42055477D01*
X158125793Y-41899394D01*
X158126250Y-41897447D01*
X158128205Y-41896879D01*
X158317058Y-41945368D01*
G37*
G36*
X180837763Y-41641504D02*
G01*
X181053407Y-41760055D01*
X181271823Y-41846532D01*
X181273066Y-41848100D01*
X181272329Y-41849959D01*
X181270464Y-41850292D01*
X181196143Y-41825928D01*
X181195919Y-41825840D01*
X181180190Y-41818488D01*
X181111430Y-41807985D01*
X181048182Y-41836200D01*
X181010226Y-41894134D01*
X181009550Y-41963460D01*
X181012889Y-41975300D01*
X181012397Y-41977239D01*
X181010472Y-41977781D01*
X181009049Y-41976421D01*
X180979384Y-41878167D01*
X180892434Y-41714637D01*
X180835249Y-41644521D01*
X180834929Y-41642547D01*
X180836479Y-41641283D01*
X180837763Y-41641504D01*
G37*
G36*
X180161985Y-41047752D02*
G01*
X180296039Y-41209797D01*
X180450790Y-41355117D01*
X180451368Y-41357032D01*
X180449999Y-41358490D01*
X180448830Y-41358486D01*
X180292819Y-41310192D01*
X180108626Y-41290833D01*
X180107552Y-41290930D01*
X180105736Y-41290090D01*
X180105556Y-41288099D01*
X180106833Y-41287012D01*
X180159185Y-41272382D01*
X180205219Y-41220639D01*
X180215976Y-41152193D01*
X180191708Y-41093289D01*
X180158854Y-41050240D01*
X180158598Y-41048257D01*
X180160188Y-41047043D01*
X180161985Y-41047752D01*
G37*
G36*
X156861979Y-41047744D02*
G01*
X156996039Y-41209797D01*
X157093782Y-41301583D01*
X157094360Y-41303498D01*
X157092991Y-41304956D01*
X157092594Y-41305033D01*
X157064178Y-41307619D01*
X156906233Y-41354105D01*
X156904289Y-41353634D01*
X156903724Y-41351716D01*
X156904475Y-41350581D01*
X156952914Y-41314589D01*
X156977348Y-41249786D01*
X156962835Y-41181903D01*
X156942790Y-41154654D01*
X156923248Y-41134594D01*
X156923091Y-41134411D01*
X156858848Y-41050232D01*
X156858592Y-41048249D01*
X156860182Y-41047035D01*
X156861979Y-41047744D01*
G37*
G36*
X161292475Y-39150976D02*
G01*
X161322750Y-39211137D01*
X161382387Y-39246349D01*
X161451598Y-39243729D01*
X161508566Y-39203994D01*
X161521429Y-39184372D01*
X161523096Y-39181203D01*
X161523295Y-39180896D01*
X161528799Y-39173914D01*
X161530657Y-39173173D01*
X161532228Y-39174411D01*
X161532123Y-39176116D01*
X161449747Y-39325957D01*
X161393749Y-39502490D01*
X161373103Y-39686553D01*
X161388600Y-39871109D01*
X161439652Y-40049148D01*
X161470721Y-40109601D01*
X161470623Y-40111598D01*
X161468844Y-40112513D01*
X161467435Y-40111830D01*
X161421888Y-40059646D01*
X161355366Y-40040371D01*
X161288984Y-40060122D01*
X161243698Y-40112763D01*
X161235276Y-40138768D01*
X161233555Y-40147189D01*
X161233492Y-40147422D01*
X161181899Y-40302066D01*
X161180402Y-40303393D01*
X161178505Y-40302760D01*
X161178100Y-40300815D01*
X161236516Y-40121031D01*
X161295299Y-39812878D01*
X161314996Y-39499800D01*
X161295299Y-39186722D01*
X161288723Y-39152250D01*
X161289381Y-39150361D01*
X161291346Y-39149986D01*
X161292475Y-39150976D01*
G37*
M02*
