%TF.GenerationSoftware,KiCad,Pcbnew,(6.0.7)*%
%TF.CreationDate,2022-08-15T14:17:36-04:00*%
%TF.ProjectId,BBB_16,4242425f-3136-42e6-9b69-6361645f7063,v3*%
%TF.SameCoordinates,Original*%
%TF.FileFunction,Paste,Top*%
%TF.FilePolarity,Positive*%
%FSLAX46Y46*%
G04 Gerber Fmt 4.6, Leading zero omitted, Abs format (unit mm)*
G04 Created by KiCad (PCBNEW (6.0.7)) date 2022-08-15 14:17:36*
%MOMM*%
%LPD*%
G01*
G04 APERTURE LIST*
G04 Aperture macros list*
%AMRoundRect*
0 Rectangle with rounded corners*
0 $1 Rounding radius*
0 $2 $3 $4 $5 $6 $7 $8 $9 X,Y pos of 4 corners*
0 Add a 4 corners polygon primitive as box body*
4,1,4,$2,$3,$4,$5,$6,$7,$8,$9,$2,$3,0*
0 Add four circle primitives for the rounded corners*
1,1,$1+$1,$2,$3*
1,1,$1+$1,$4,$5*
1,1,$1+$1,$6,$7*
1,1,$1+$1,$8,$9*
0 Add four rect primitives between the rounded corners*
20,1,$1+$1,$2,$3,$4,$5,0*
20,1,$1+$1,$4,$5,$6,$7,0*
20,1,$1+$1,$6,$7,$8,$9,0*
20,1,$1+$1,$8,$9,$2,$3,0*%
G04 Aperture macros list end*
%ADD10RoundRect,0.237500X-0.300000X-0.237500X0.300000X-0.237500X0.300000X0.237500X-0.300000X0.237500X0*%
%ADD11R,0.900000X1.200000*%
%ADD12RoundRect,0.237500X-0.237500X0.250000X-0.237500X-0.250000X0.237500X-0.250000X0.237500X0.250000X0*%
%ADD13RoundRect,0.237500X0.237500X-0.250000X0.237500X0.250000X-0.237500X0.250000X-0.237500X-0.250000X0*%
%ADD14RoundRect,0.237500X-0.237500X0.287500X-0.237500X-0.287500X0.237500X-0.287500X0.237500X0.287500X0*%
%ADD15RoundRect,0.237500X-0.287500X-0.237500X0.287500X-0.237500X0.287500X0.237500X-0.287500X0.237500X0*%
%ADD16RoundRect,0.237500X0.250000X0.237500X-0.250000X0.237500X-0.250000X-0.237500X0.250000X-0.237500X0*%
%ADD17R,1.550000X1.300000*%
%ADD18R,0.558800X2.159000*%
%ADD19RoundRect,0.237500X0.237500X-0.300000X0.237500X0.300000X-0.237500X0.300000X-0.237500X-0.300000X0*%
%ADD20RoundRect,0.150000X-0.150000X0.825000X-0.150000X-0.825000X0.150000X-0.825000X0.150000X0.825000X0*%
%ADD21RoundRect,0.237500X-0.237500X0.300000X-0.237500X-0.300000X0.237500X-0.300000X0.237500X0.300000X0*%
%ADD22RoundRect,0.150000X0.825000X0.150000X-0.825000X0.150000X-0.825000X-0.150000X0.825000X-0.150000X0*%
%ADD23RoundRect,0.237500X-0.250000X-0.237500X0.250000X-0.237500X0.250000X0.237500X-0.250000X0.237500X0*%
%ADD24RoundRect,0.250000X0.550000X-1.500000X0.550000X1.500000X-0.550000X1.500000X-0.550000X-1.500000X0*%
%ADD25RoundRect,0.150000X-0.825000X-0.150000X0.825000X-0.150000X0.825000X0.150000X-0.825000X0.150000X0*%
%ADD26RoundRect,0.150000X-0.150000X0.587500X-0.150000X-0.587500X0.150000X-0.587500X0.150000X0.587500X0*%
G04 APERTURE END LIST*
D10*
%TO.C,C4*%
X-69087700Y23653700D03*
X-67362700Y23653700D03*
%TD*%
%TO.C,C3*%
X-27812700Y23703700D03*
X-26087700Y23703700D03*
%TD*%
D11*
%TO.C,D1*%
X2849800Y22553700D03*
X6149800Y22553700D03*
%TD*%
D12*
%TO.C,R1*%
X-108750200Y74816200D03*
X-108750200Y72991200D03*
%TD*%
D13*
%TO.C,R2*%
X-108750200Y69391200D03*
X-108750200Y71216200D03*
%TD*%
D14*
%TO.C,D5*%
X-122550200Y3378700D03*
X-122550200Y1628700D03*
%TD*%
%TO.C,D6*%
X8849800Y3578700D03*
X8849800Y1828700D03*
%TD*%
D12*
%TO.C,R4*%
X-122550200Y-83800D03*
X-122550200Y-1908800D03*
%TD*%
%TO.C,R5*%
X8849800Y16200D03*
X8849800Y-1808800D03*
%TD*%
D15*
%TO.C,D4*%
X-47175200Y28203700D03*
X-45425200Y28203700D03*
%TD*%
D16*
%TO.C,R7*%
X-22527700Y74383700D03*
X-24352700Y74383700D03*
%TD*%
D10*
%TO.C,C5*%
X-100712700Y78103700D03*
X-98987700Y78103700D03*
%TD*%
D17*
%TO.C,SW5*%
X-14325200Y82853700D03*
X-6375200Y82853700D03*
X-14325200Y78353700D03*
X-6375200Y78353700D03*
%TD*%
D18*
%TO.C,U4*%
X-29785200Y30431900D03*
X-31055200Y30431900D03*
X-32325200Y30431900D03*
X-33595200Y30431900D03*
X-34865200Y30431900D03*
X-36135200Y30431900D03*
X-37405200Y30431900D03*
X-38675200Y30431900D03*
X-39945200Y30431900D03*
X-41215200Y30431900D03*
X-41215200Y23675500D03*
X-39945200Y23675500D03*
X-38675200Y23675500D03*
X-37405200Y23675500D03*
X-36135200Y23675500D03*
X-34865200Y23675500D03*
X-33595200Y23675500D03*
X-32325200Y23675500D03*
X-31055200Y23675500D03*
X-29785200Y23675500D03*
%TD*%
D19*
%TO.C,C6*%
X-15440200Y72458700D03*
X-15440200Y74183700D03*
%TD*%
D16*
%TO.C,R6*%
X-22527700Y72403700D03*
X-24352700Y72403700D03*
%TD*%
D20*
%TO.C,U6*%
X-17105200Y77348700D03*
X-18375200Y77348700D03*
X-19645200Y77348700D03*
X-20915200Y77348700D03*
X-20915200Y72398700D03*
X-19645200Y72398700D03*
X-18375200Y72398700D03*
X-17105200Y72398700D03*
%TD*%
D18*
%TO.C,U3*%
X-71135200Y30431900D03*
X-72405200Y30431900D03*
X-73675200Y30431900D03*
X-74945200Y30431900D03*
X-76215200Y30431900D03*
X-77485200Y30431900D03*
X-78755200Y30431900D03*
X-80025200Y30431900D03*
X-81295200Y30431900D03*
X-82565200Y30431900D03*
X-82565200Y23675500D03*
X-81295200Y23675500D03*
X-80025200Y23675500D03*
X-78755200Y23675500D03*
X-77485200Y23675500D03*
X-76215200Y23675500D03*
X-74945200Y23675500D03*
X-73675200Y23675500D03*
X-72405200Y23675500D03*
X-71135200Y23675500D03*
%TD*%
D17*
%TO.C,SW3*%
X-34625200Y52153700D03*
X-26675200Y52153700D03*
X-26675200Y47653700D03*
X-34625200Y47653700D03*
%TD*%
D21*
%TO.C,C7*%
X-81950200Y49866200D03*
X-81950200Y48141200D03*
%TD*%
D22*
%TO.C,U7*%
X-76975200Y51558700D03*
X-76975200Y52828700D03*
X-76975200Y54098700D03*
X-76975200Y55368700D03*
X-76975200Y56638700D03*
X-76975200Y57908700D03*
X-76975200Y59178700D03*
X-76975200Y60448700D03*
X-81925200Y60448700D03*
X-81925200Y59178700D03*
X-81925200Y57908700D03*
X-81925200Y56638700D03*
X-81925200Y55368700D03*
X-81925200Y54098700D03*
X-81925200Y52828700D03*
X-81925200Y51558700D03*
%TD*%
D17*
%TO.C,SW2*%
X-34625200Y60253700D03*
X-26675200Y60253700D03*
X-34625200Y55753700D03*
X-26675200Y55753700D03*
%TD*%
%TO.C,SW1*%
X-44725200Y56453700D03*
X-36775200Y56453700D03*
X-36775200Y51953700D03*
X-44725200Y51953700D03*
%TD*%
%TO.C,SW4*%
X-24525200Y56253700D03*
X-16575200Y56253700D03*
X-16575200Y51753700D03*
X-24525200Y51753700D03*
%TD*%
D13*
%TO.C,R9*%
X-119100200Y20441200D03*
X-119100200Y22266200D03*
%TD*%
%TO.C,R10*%
X-119100200Y23841200D03*
X-119100200Y25666200D03*
%TD*%
D23*
%TO.C,R3*%
X-50812700Y28203700D03*
X-48987700Y28203700D03*
%TD*%
D24*
%TO.C,C2*%
X-24150200Y26303700D03*
X-24150200Y31703700D03*
%TD*%
D12*
%TO.C,R8*%
X-128575200Y69341200D03*
X-128575200Y67516200D03*
%TD*%
D23*
%TO.C,R11*%
X-2662700Y47303700D03*
X-837700Y47303700D03*
%TD*%
D16*
%TO.C,R12*%
X15887300Y47278700D03*
X14062300Y47278700D03*
%TD*%
D23*
%TO.C,R13*%
X14062300Y48953700D03*
X15887300Y48953700D03*
%TD*%
%TO.C,R31*%
X-28362700Y18803700D03*
X-26537700Y18803700D03*
%TD*%
D16*
%TO.C,R22*%
X-76712700Y18753700D03*
X-78537700Y18753700D03*
%TD*%
D23*
%TO.C,R20*%
X-70662700Y18753700D03*
X-68837700Y18753700D03*
%TD*%
D16*
%TO.C,R26*%
X-102137700Y18753700D03*
X-103962700Y18753700D03*
%TD*%
%TO.C,R25*%
X-95762700Y18753700D03*
X-97587700Y18753700D03*
%TD*%
D25*
%TO.C,U5*%
X-105625200Y76148700D03*
X-105625200Y74878700D03*
X-105625200Y73608700D03*
X-105625200Y72338700D03*
X-105625200Y71068700D03*
X-105625200Y69798700D03*
X-105625200Y68528700D03*
X-105625200Y67258700D03*
X-100675200Y67258700D03*
X-100675200Y68528700D03*
X-100675200Y69798700D03*
X-100675200Y71068700D03*
X-100675200Y72338700D03*
X-100675200Y73608700D03*
X-100675200Y74878700D03*
X-100675200Y76148700D03*
%TD*%
D26*
%TO.C,Q1*%
X5649800Y20341200D03*
X3749800Y20341200D03*
X4699800Y18466200D03*
%TD*%
D16*
%TO.C,R23*%
X-81837700Y18753700D03*
X-83662700Y18753700D03*
%TD*%
D13*
%TO.C,R17*%
X-74150200Y52391200D03*
X-74150200Y54216200D03*
%TD*%
D16*
%TO.C,R33*%
X-39587700Y18703700D03*
X-41412700Y18703700D03*
%TD*%
D23*
%TO.C,R19*%
X-67062700Y18753700D03*
X-65237700Y18753700D03*
%TD*%
D13*
%TO.C,R16*%
X-74150200Y56391200D03*
X-74150200Y58216200D03*
%TD*%
D16*
%TO.C,R34*%
X-43987700Y18703700D03*
X-45812700Y18703700D03*
%TD*%
%TO.C,R24*%
X-88987700Y18753700D03*
X-90812700Y18753700D03*
%TD*%
D23*
%TO.C,R32*%
X-37962700Y18703700D03*
X-36137700Y18703700D03*
%TD*%
%TO.C,R27*%
X-11662700Y18803700D03*
X-9837700Y18803700D03*
%TD*%
D12*
%TO.C,R14*%
X7699800Y24366200D03*
X7699800Y22541200D03*
%TD*%
%TO.C,R15*%
X-84550200Y55716200D03*
X-84550200Y53891200D03*
%TD*%
D23*
%TO.C,R28*%
X-15062700Y18803700D03*
X-13237700Y18803700D03*
%TD*%
D12*
%TO.C,R18*%
X-84550200Y59716200D03*
X-84550200Y57891200D03*
%TD*%
%TO.C,R35*%
X-97450200Y72916200D03*
X-97450200Y71091200D03*
%TD*%
D23*
%TO.C,R29*%
X-21262700Y18803700D03*
X-19437700Y18803700D03*
%TD*%
%TO.C,R30*%
X-24762700Y18803700D03*
X-22937700Y18803700D03*
%TD*%
%TO.C,R21*%
X-74112700Y18753700D03*
X-72287700Y18753700D03*
%TD*%
M02*
