%TF.GenerationSoftware,KiCad,Pcbnew,(6.0.7)*%
%TF.CreationDate,2022-08-15T15:12:37-04:00*%
%TF.ProjectId,BBB_16,4242425f-3136-42e6-9b69-6361645f7063,v2.1*%
%TF.SameCoordinates,Original*%
%TF.FileFunction,Soldermask,Top*%
%TF.FilePolarity,Negative*%
%FSLAX46Y46*%
G04 Gerber Fmt 4.6, Leading zero omitted, Abs format (unit mm)*
G04 Created by KiCad (PCBNEW (6.0.7)) date 2022-08-15 15:12:37*
%MOMM*%
%LPD*%
G01*
G04 APERTURE LIST*
G04 Aperture macros list*
%AMRoundRect*
0 Rectangle with rounded corners*
0 $1 Rounding radius*
0 $2 $3 $4 $5 $6 $7 $8 $9 X,Y pos of 4 corners*
0 Add a 4 corners polygon primitive as box body*
4,1,4,$2,$3,$4,$5,$6,$7,$8,$9,$2,$3,0*
0 Add four circle primitives for the rounded corners*
1,1,$1+$1,$2,$3*
1,1,$1+$1,$4,$5*
1,1,$1+$1,$6,$7*
1,1,$1+$1,$8,$9*
0 Add four rect primitives between the rounded corners*
20,1,$1+$1,$2,$3,$4,$5,0*
20,1,$1+$1,$4,$5,$6,$7,0*
20,1,$1+$1,$6,$7,$8,$9,0*
20,1,$1+$1,$8,$9,$2,$3,0*%
G04 Aperture macros list end*
%ADD10RoundRect,0.288500X-0.300000X-0.237500X0.300000X-0.237500X0.300000X0.237500X-0.300000X0.237500X0*%
%ADD11C,2.577000*%
%ADD12RoundRect,0.342667X-0.758333X-1.508333X0.758333X-1.508333X0.758333X1.508333X-0.758333X1.508333X0*%
%ADD13O,1.902000X3.702000*%
%ADD14O,2.202000X3.702000*%
%ADD15RoundRect,0.051000X-0.450000X-0.600000X0.450000X-0.600000X0.450000X0.600000X-0.450000X0.600000X0*%
%ADD16RoundRect,0.288500X-0.237500X0.250000X-0.237500X-0.250000X0.237500X-0.250000X0.237500X0.250000X0*%
%ADD17RoundRect,0.288500X0.237500X-0.250000X0.237500X0.250000X-0.237500X0.250000X-0.237500X-0.250000X0*%
%ADD18RoundRect,0.051000X-0.850000X0.850000X-0.850000X-0.850000X0.850000X-0.850000X0.850000X0.850000X0*%
%ADD19O,1.802000X1.802000*%
%ADD20C,3.802000*%
%ADD21C,5.000000*%
%ADD22C,1.802000*%
%ADD23RoundRect,0.288500X-0.237500X0.287500X-0.237500X-0.287500X0.237500X-0.287500X0.237500X0.287500X0*%
%ADD24RoundRect,0.288500X-0.287500X-0.237500X0.287500X-0.237500X0.287500X0.237500X-0.287500X0.237500X0*%
%ADD25RoundRect,0.288500X0.250000X0.237500X-0.250000X0.237500X-0.250000X-0.237500X0.250000X-0.237500X0*%
%ADD26RoundRect,0.051000X-0.775000X-0.650000X0.775000X-0.650000X0.775000X0.650000X-0.775000X0.650000X0*%
%ADD27RoundRect,0.051000X-0.279400X1.079500X-0.279400X-1.079500X0.279400X-1.079500X0.279400X1.079500X0*%
%ADD28RoundRect,0.288500X0.237500X-0.300000X0.237500X0.300000X-0.237500X0.300000X-0.237500X-0.300000X0*%
%ADD29RoundRect,0.201000X-0.150000X0.825000X-0.150000X-0.825000X0.150000X-0.825000X0.150000X0.825000X0*%
%ADD30C,3.402000*%
%ADD31RoundRect,0.051000X0.750000X0.750000X-0.750000X0.750000X-0.750000X-0.750000X0.750000X-0.750000X0*%
%ADD32C,1.602000*%
%ADD33RoundRect,0.051000X-0.500000X-0.750000X0.500000X-0.750000X0.500000X0.750000X-0.500000X0.750000X0*%
%ADD34RoundRect,0.288500X-0.237500X0.300000X-0.237500X-0.300000X0.237500X-0.300000X0.237500X0.300000X0*%
%ADD35RoundRect,0.051000X2.000000X2.000000X-2.000000X2.000000X-2.000000X-2.000000X2.000000X-2.000000X0*%
%ADD36C,4.102000*%
%ADD37RoundRect,0.051000X-2.000000X-2.000000X2.000000X-2.000000X2.000000X2.000000X-2.000000X2.000000X0*%
%ADD38RoundRect,0.201000X0.825000X0.150000X-0.825000X0.150000X-0.825000X-0.150000X0.825000X-0.150000X0*%
%ADD39RoundRect,0.051000X0.765000X0.765000X-0.765000X0.765000X-0.765000X-0.765000X0.765000X-0.765000X0*%
%ADD40C,1.632000*%
%ADD41RoundRect,0.051000X-0.900000X-0.900000X0.900000X-0.900000X0.900000X0.900000X-0.900000X0.900000X0*%
%ADD42C,1.902000*%
%ADD43C,4.674000*%
%ADD44RoundRect,0.301000X-0.725000X0.600000X-0.725000X-0.600000X0.725000X-0.600000X0.725000X0.600000X0*%
%ADD45O,2.052000X1.802000*%
%ADD46C,2.006000*%
%ADD47RoundRect,0.051000X-0.850000X-0.850000X0.850000X-0.850000X0.850000X0.850000X-0.850000X0.850000X0*%
%ADD48RoundRect,0.051000X-1.300000X1.300000X-1.300000X-1.300000X1.300000X-1.300000X1.300000X1.300000X0*%
%ADD49C,2.702000*%
%ADD50RoundRect,0.051000X0.700000X-0.700000X0.700000X0.700000X-0.700000X0.700000X-0.700000X-0.700000X0*%
%ADD51C,1.502000*%
%ADD52RoundRect,0.288500X-0.250000X-0.237500X0.250000X-0.237500X0.250000X0.237500X-0.250000X0.237500X0*%
%ADD53RoundRect,0.301000X0.550000X-1.500000X0.550000X1.500000X-0.550000X1.500000X-0.550000X-1.500000X0*%
%ADD54RoundRect,0.051000X1.000000X1.000000X-1.000000X1.000000X-1.000000X-1.000000X1.000000X-1.000000X0*%
%ADD55C,2.102000*%
%ADD56RoundRect,0.201000X-0.825000X-0.150000X0.825000X-0.150000X0.825000X0.150000X-0.825000X0.150000X0*%
%ADD57RoundRect,0.201000X-0.150000X0.587500X-0.150000X-0.587500X0.150000X-0.587500X0.150000X0.587500X0*%
%ADD58RoundRect,0.051000X-0.900000X0.900000X-0.900000X-0.900000X0.900000X-0.900000X0.900000X0.900000X0*%
%ADD59C,1.626000*%
%ADD60C,0.902000*%
G04 APERTURE END LIST*
D10*
%TO.C,C4*%
X-69087700Y23653700D03*
X-67362700Y23653700D03*
%TD*%
D11*
%TO.C,F18*%
X-126834600Y-5635100D03*
X-126834600Y-1935100D03*
X-126834600Y2564900D03*
X-126834600Y6264900D03*
%TD*%
D12*
%TO.C,J2*%
X-112700200Y3700D03*
D13*
X-109040200Y3700D03*
D14*
X-105380200Y3700D03*
%TD*%
D12*
%TO.C,J5*%
X-82700200Y13003700D03*
D13*
X-79040200Y13003700D03*
D14*
X-75380200Y13003700D03*
%TD*%
D12*
%TO.C,J6*%
X-82585858Y3700D03*
D13*
X-78925858Y3700D03*
D14*
X-75265858Y3700D03*
%TD*%
D12*
%TO.C,J7*%
X-67700200Y13003700D03*
D13*
X-64040200Y13003700D03*
D14*
X-60380200Y13003700D03*
%TD*%
D12*
%TO.C,J8*%
X-67700200Y3700D03*
D13*
X-64040200Y3700D03*
D14*
X-60380200Y3700D03*
%TD*%
D12*
%TO.C,J9*%
X-52700200Y13003700D03*
D13*
X-49040200Y13003700D03*
D14*
X-45380200Y13003700D03*
%TD*%
D12*
%TO.C,J10*%
X-52700200Y3700D03*
D13*
X-49040200Y3700D03*
D14*
X-45380200Y3700D03*
%TD*%
D12*
%TO.C,J11*%
X-37700200Y13003700D03*
D13*
X-34040200Y13003700D03*
D14*
X-30380200Y13003700D03*
%TD*%
D12*
%TO.C,J12*%
X-37700200Y3700D03*
D13*
X-34040200Y3700D03*
D14*
X-30380200Y3700D03*
%TD*%
D12*
%TO.C,J13*%
X-22700200Y13003700D03*
D13*
X-19040200Y13003700D03*
D14*
X-15380200Y13003700D03*
%TD*%
D12*
%TO.C,J14*%
X-22700200Y3700D03*
D13*
X-19040200Y3700D03*
D14*
X-15380200Y3700D03*
%TD*%
D12*
%TO.C,J15*%
X-7700200Y13003700D03*
D13*
X-4040200Y13003700D03*
D14*
X-380200Y13003700D03*
%TD*%
D12*
%TO.C,J16*%
X-7700200Y3700D03*
D13*
X-4040200Y3700D03*
D14*
X-380200Y3700D03*
%TD*%
D11*
%TO.C,F1*%
X-106894600Y-20685100D03*
X-106894600Y-16985100D03*
X-106894600Y-12485100D03*
X-106894600Y-8785100D03*
%TD*%
%TO.C,F7*%
X-66692002Y-20695100D03*
X-66692002Y-16995100D03*
X-66692002Y-12495100D03*
X-66692002Y-8795100D03*
%TD*%
%TO.C,F14*%
X-19788971Y-20760100D03*
X-19788971Y-17060100D03*
X-19788971Y-12560100D03*
X-19788971Y-8860100D03*
%TD*%
D10*
%TO.C,C3*%
X-27812700Y23703700D03*
X-26087700Y23703700D03*
%TD*%
D11*
%TO.C,F2*%
X-100194167Y-20700100D03*
X-100194167Y-17000100D03*
X-100194167Y-12500100D03*
X-100194167Y-8800100D03*
%TD*%
%TO.C,F6*%
X-73392435Y-20695100D03*
X-73392435Y-16995100D03*
X-73392435Y-12495100D03*
X-73392435Y-8795100D03*
%TD*%
%TO.C,F8*%
X-59991569Y-20695100D03*
X-59991569Y-16995100D03*
X-59991569Y-12495100D03*
X-59991569Y-8795100D03*
%TD*%
%TO.C,F9*%
X-53291136Y-20695100D03*
X-53291136Y-16995100D03*
X-53291136Y-12495100D03*
X-53291136Y-8795100D03*
%TD*%
%TO.C,F10*%
X-46590703Y-20695100D03*
X-46590703Y-16995100D03*
X-46590703Y-12495100D03*
X-46590703Y-8795100D03*
%TD*%
%TO.C,F16*%
X-6388100Y-20760100D03*
X-6388100Y-17060100D03*
X-6388100Y-12560100D03*
X-6388100Y-8860100D03*
%TD*%
%TO.C,F5*%
X-80092868Y-20695100D03*
X-80092868Y-16995100D03*
X-80092868Y-12495100D03*
X-80092868Y-8795100D03*
%TD*%
%TO.C,F3*%
X-93493734Y-20700100D03*
X-93493734Y-17000100D03*
X-93493734Y-12500100D03*
X-93493734Y-8800100D03*
%TD*%
%TO.C,F13*%
X-26489404Y-20760100D03*
X-26489404Y-17060100D03*
X-26489404Y-12560100D03*
X-26489404Y-8860100D03*
%TD*%
%TO.C,F11*%
X-39890270Y-20695100D03*
X-39890270Y-16995100D03*
X-39890270Y-12495100D03*
X-39890270Y-8795100D03*
%TD*%
%TO.C,F4*%
X-86793301Y-20700100D03*
X-86793301Y-17000100D03*
X-86793301Y-12500100D03*
X-86793301Y-8800100D03*
%TD*%
D12*
%TO.C,J1*%
X-112700200Y13003700D03*
D13*
X-109040200Y13003700D03*
D14*
X-105380200Y13003700D03*
%TD*%
D12*
%TO.C,J3*%
X-97700200Y13003700D03*
D13*
X-94040200Y13003700D03*
D14*
X-90380200Y13003700D03*
%TD*%
D12*
%TO.C,J4*%
X-97700200Y3700D03*
D13*
X-94040200Y3700D03*
D14*
X-90380200Y3700D03*
%TD*%
D15*
%TO.C,D1*%
X2849800Y22553700D03*
X6149800Y22553700D03*
%TD*%
D16*
%TO.C,R1*%
X-108750200Y74816200D03*
X-108750200Y72991200D03*
%TD*%
D17*
%TO.C,R2*%
X-108750200Y69391200D03*
X-108750200Y71216200D03*
%TD*%
D18*
%TO.C,J25*%
X14649800Y82103700D03*
D19*
X12109800Y82103700D03*
X9569800Y82103700D03*
X7029800Y82103700D03*
X4489800Y82103700D03*
%TD*%
D11*
%TO.C,F15*%
X-13088538Y-20760100D03*
X-13088538Y-17060100D03*
X-13088538Y-12560100D03*
X-13088538Y-8860100D03*
%TD*%
%TO.C,F12*%
X-33189837Y-20695100D03*
X-33189837Y-16995100D03*
X-33189837Y-12495100D03*
X-33189837Y-8795100D03*
%TD*%
D20*
%TO.C,H4*%
X-119689600Y63284900D03*
%TD*%
%TO.C,H3*%
X-94589600Y63284900D03*
%TD*%
D21*
%TO.C,J26*%
X-42300200Y66303700D03*
X-19000200Y66303700D03*
D22*
X-34450200Y65803700D03*
X-31950200Y65803700D03*
X-29350200Y65803700D03*
X-26850200Y65803700D03*
%TD*%
D23*
%TO.C,D5*%
X-122550200Y3378700D03*
X-122550200Y1628700D03*
%TD*%
%TO.C,D6*%
X8849800Y3578700D03*
X8849800Y1828700D03*
%TD*%
D20*
%TO.C,H2*%
X-119989600Y12484900D03*
%TD*%
D16*
%TO.C,R4*%
X-122550200Y-83800D03*
X-122550200Y-1908800D03*
%TD*%
%TO.C,R5*%
X8849800Y16200D03*
X8849800Y-1808800D03*
%TD*%
D24*
%TO.C,D4*%
X-47175200Y28203700D03*
X-45425200Y28203700D03*
%TD*%
D11*
%TO.C,F17*%
X13608800Y-5578300D03*
X13608800Y-1878300D03*
X13608800Y2621700D03*
X13608800Y6321700D03*
%TD*%
D25*
%TO.C,R7*%
X-22527700Y74383700D03*
X-24352700Y74383700D03*
%TD*%
D10*
%TO.C,C5*%
X-100712700Y78103700D03*
X-98987700Y78103700D03*
%TD*%
D26*
%TO.C,SW5*%
X-14325200Y82853700D03*
X-6375200Y82853700D03*
X-14325200Y78353700D03*
X-6375200Y78353700D03*
%TD*%
D27*
%TO.C,U4*%
X-29785200Y30431900D03*
X-31055200Y30431900D03*
X-32325200Y30431900D03*
X-33595200Y30431900D03*
X-34865200Y30431900D03*
X-36135200Y30431900D03*
X-37405200Y30431900D03*
X-38675200Y30431900D03*
X-39945200Y30431900D03*
X-41215200Y30431900D03*
X-41215200Y23675500D03*
X-39945200Y23675500D03*
X-38675200Y23675500D03*
X-37405200Y23675500D03*
X-36135200Y23675500D03*
X-34865200Y23675500D03*
X-33595200Y23675500D03*
X-32325200Y23675500D03*
X-31055200Y23675500D03*
X-29785200Y23675500D03*
%TD*%
D28*
%TO.C,C6*%
X-15440200Y72458700D03*
X-15440200Y74183700D03*
%TD*%
D25*
%TO.C,R6*%
X-22527700Y72403700D03*
X-24352700Y72403700D03*
%TD*%
D29*
%TO.C,U6*%
X-17105200Y77348700D03*
X-18375200Y77348700D03*
X-19645200Y77348700D03*
X-20915200Y77348700D03*
X-20915200Y72398700D03*
X-19645200Y72398700D03*
X-18375200Y72398700D03*
X-17105200Y72398700D03*
%TD*%
D27*
%TO.C,U3*%
X-71135200Y30431900D03*
X-72405200Y30431900D03*
X-73675200Y30431900D03*
X-74945200Y30431900D03*
X-76215200Y30431900D03*
X-77485200Y30431900D03*
X-78755200Y30431900D03*
X-80025200Y30431900D03*
X-81295200Y30431900D03*
X-82565200Y30431900D03*
X-82565200Y23675500D03*
X-81295200Y23675500D03*
X-80025200Y23675500D03*
X-78755200Y23675500D03*
X-77485200Y23675500D03*
X-76215200Y23675500D03*
X-74945200Y23675500D03*
X-73675200Y23675500D03*
X-72405200Y23675500D03*
X-71135200Y23675500D03*
%TD*%
D26*
%TO.C,SW3*%
X-34625200Y52153700D03*
X-26675200Y52153700D03*
X-26675200Y47653700D03*
X-34625200Y47653700D03*
%TD*%
D30*
%TO.C,J20*%
X-120427700Y50953700D03*
X-108997700Y50953700D03*
D31*
X-110267700Y44603700D03*
D32*
X-111537700Y42063700D03*
X-112807700Y44603700D03*
X-114077700Y42063700D03*
X-115347700Y44603700D03*
X-116617700Y42063700D03*
X-117887700Y44603700D03*
X-119157700Y42063700D03*
%TD*%
D33*
%TO.C,PIN4*%
X-33050200Y75703700D03*
X-31750200Y75703700D03*
X-30450200Y75703700D03*
%TD*%
%TO.C,PIN3*%
X-33050200Y70903700D03*
X-31750200Y70903700D03*
X-30450200Y70903700D03*
%TD*%
D34*
%TO.C,C7*%
X-81950200Y49866200D03*
X-81950200Y48141200D03*
%TD*%
D35*
%TO.C,J17*%
X-115550200Y-15796300D03*
D36*
X-125050200Y-15796300D03*
%TD*%
D37*
%TO.C,J18*%
X2449800Y-15796300D03*
D36*
X11949800Y-15796300D03*
%TD*%
D30*
%TO.C,J21*%
X-100627700Y51053700D03*
X-89197700Y51053700D03*
D31*
X-90467700Y44703700D03*
D32*
X-91737700Y42163700D03*
X-93007700Y44703700D03*
X-94277700Y42163700D03*
X-95547700Y44703700D03*
X-96817700Y42163700D03*
X-98087700Y44703700D03*
X-99357700Y42163700D03*
%TD*%
D38*
%TO.C,U7*%
X-76975200Y51558700D03*
X-76975200Y52828700D03*
X-76975200Y54098700D03*
X-76975200Y55368700D03*
X-76975200Y56638700D03*
X-76975200Y57908700D03*
X-76975200Y59178700D03*
X-76975200Y60448700D03*
X-81925200Y60448700D03*
X-81925200Y59178700D03*
X-81925200Y57908700D03*
X-81925200Y56638700D03*
X-81925200Y55368700D03*
X-81925200Y54098700D03*
X-81925200Y52828700D03*
X-81925200Y51558700D03*
%TD*%
D39*
%TO.C,J24*%
X-74280200Y86973700D03*
D40*
X-74280200Y84433700D03*
X-76820200Y86973700D03*
X-76820200Y84433700D03*
X-79360200Y86973700D03*
X-79360200Y84433700D03*
X-81900200Y86973700D03*
X-81900200Y84433700D03*
X-84440200Y86973700D03*
X-84440200Y84433700D03*
X-86980200Y86973700D03*
X-86980200Y84433700D03*
X-89520200Y86973700D03*
X-89520200Y84433700D03*
X-92060200Y86973700D03*
X-92060200Y84433700D03*
X-94600200Y86973700D03*
X-94600200Y84433700D03*
X-97140200Y86973700D03*
X-97140200Y84433700D03*
X-99680200Y86973700D03*
X-99680200Y84433700D03*
X-102220200Y86973700D03*
X-102220200Y84433700D03*
%TD*%
D41*
%TO.C,U1*%
X1844800Y41643700D03*
D42*
X1844800Y39103700D03*
X-695200Y41643700D03*
X-695200Y39103700D03*
X-3235200Y41643700D03*
X-3235200Y39103700D03*
X-5775200Y41643700D03*
X-5775200Y39103700D03*
X-8315200Y41643700D03*
X-8315200Y39103700D03*
X-10855200Y41643700D03*
X-10855200Y39103700D03*
X-13395200Y41643700D03*
X-13395200Y39103700D03*
X-15935200Y41643700D03*
X-15935200Y39103700D03*
X-18475200Y41643700D03*
X-18475200Y39103700D03*
X-21015200Y41643700D03*
X-21015200Y39103700D03*
X-23555200Y41643700D03*
X-23555200Y39103700D03*
X-26095200Y41643700D03*
X-26095200Y39103700D03*
X-28635200Y41643700D03*
X-28635200Y39103700D03*
X-31175200Y41643700D03*
X-31175200Y39103700D03*
X-33715200Y41643700D03*
X-33715200Y39103700D03*
X-36255200Y41643700D03*
X-36255200Y39103700D03*
X-38795200Y41643700D03*
X-38795200Y39103700D03*
X-41335200Y41643700D03*
X-41335200Y39103700D03*
X-43875200Y41643700D03*
X-43875200Y39103700D03*
X-46415200Y41643700D03*
X-46415200Y39103700D03*
X-48955200Y41643700D03*
X-48955200Y39103700D03*
X-51495200Y41643700D03*
X-51495200Y39103700D03*
X-54035200Y41643700D03*
X-54035200Y39103700D03*
D41*
X1844800Y89903700D03*
D42*
X1844800Y87363700D03*
X-695200Y89903700D03*
X-695200Y87363700D03*
X-3235200Y89903700D03*
X-3235200Y87363700D03*
X-5775200Y89903700D03*
X-5775200Y87363700D03*
X-8315200Y89903700D03*
X-8315200Y87363700D03*
X-10855200Y89903700D03*
X-10855200Y87363700D03*
X-13395200Y89903700D03*
X-13395200Y87363700D03*
X-15935200Y89903700D03*
X-15935200Y87363700D03*
X-18475200Y89903700D03*
X-18475200Y87363700D03*
X-21015200Y89903700D03*
X-21015200Y87363700D03*
X-23555200Y89903700D03*
X-23555200Y87363700D03*
X-26095200Y89903700D03*
X-26095200Y87363700D03*
X-28635200Y89903700D03*
X-28635200Y87363700D03*
X-31175200Y89903700D03*
X-31175200Y87363700D03*
X-33715200Y89903700D03*
X-33715200Y87363700D03*
X-36255200Y89903700D03*
X-36255200Y87363700D03*
X-38795200Y89903700D03*
X-38795200Y87363700D03*
X-41335200Y89903700D03*
X-41335200Y87363700D03*
X-43875200Y89903700D03*
X-43875200Y87363700D03*
X-46415200Y89903700D03*
X-46415200Y87363700D03*
X-48955200Y89903700D03*
X-48955200Y87363700D03*
X-51495200Y89903700D03*
X-51495200Y87363700D03*
X-54035200Y89903700D03*
X-54035200Y87363700D03*
D43*
X-59115200Y85458700D03*
X6924800Y88633700D03*
X6924800Y40373700D03*
X-59115200Y43548700D03*
%TD*%
D26*
%TO.C,SW2*%
X-34625200Y60253700D03*
X-26675200Y60253700D03*
X-34625200Y55753700D03*
X-26675200Y55753700D03*
%TD*%
%TO.C,SW1*%
X-44725200Y56453700D03*
X-36775200Y56453700D03*
X-36775200Y51953700D03*
X-44725200Y51953700D03*
%TD*%
%TO.C,SW4*%
X-24525200Y56253700D03*
X-16575200Y56253700D03*
X-16575200Y51753700D03*
X-24525200Y51753700D03*
%TD*%
D20*
%TO.C,H1*%
X7010400Y12484900D03*
%TD*%
D18*
%TO.C,J23*%
X-2550200Y22303700D03*
D19*
X-5090200Y22303700D03*
X-7630200Y22303700D03*
%TD*%
D44*
%TO.C,J19*%
X-126350200Y81603700D03*
D45*
X-126350200Y79103700D03*
X-126350200Y76603700D03*
X-126350200Y74103700D03*
%TD*%
D46*
%TO.C,J27*%
X14000259Y19898140D03*
X14000259Y23708140D03*
%TD*%
D47*
%TO.C,J28*%
X15049800Y15503700D03*
D19*
X15049800Y12963700D03*
X15049800Y10423700D03*
%TD*%
D48*
%TO.C,J22*%
X-125650200Y35403700D03*
D49*
X-125650200Y30403700D03*
X-125650200Y25403700D03*
X-125650200Y20403700D03*
%TD*%
D17*
%TO.C,R9*%
X-119100200Y20441200D03*
X-119100200Y22266200D03*
%TD*%
%TO.C,R10*%
X-119100200Y23841200D03*
X-119100200Y25666200D03*
%TD*%
D50*
%TO.C,SW6*%
X-127450200Y45403700D03*
D51*
X-127450200Y47903700D03*
X-127450200Y50403700D03*
X-124150200Y45403700D03*
X-124150200Y47903700D03*
X-124150200Y50403700D03*
%TD*%
D52*
%TO.C,R3*%
X-50812700Y28203700D03*
X-48987700Y28203700D03*
%TD*%
D53*
%TO.C,C2*%
X-24150200Y26303700D03*
X-24150200Y31703700D03*
%TD*%
D54*
%TO.C,C1*%
X-10650200Y30503700D03*
D55*
X-15650200Y30503700D03*
%TD*%
D16*
%TO.C,R8*%
X-128575200Y69341200D03*
X-128575200Y67516200D03*
%TD*%
D52*
%TO.C,R11*%
X-2662700Y47303700D03*
X-837700Y47303700D03*
%TD*%
D25*
%TO.C,R12*%
X15887300Y47278700D03*
X14062300Y47278700D03*
%TD*%
D52*
%TO.C,R13*%
X14062300Y48953700D03*
X15887300Y48953700D03*
%TD*%
D20*
%TO.C,H5*%
X-119689600Y88684900D03*
%TD*%
D52*
%TO.C,R31*%
X-28362700Y18803700D03*
X-26537700Y18803700D03*
%TD*%
D25*
%TO.C,R22*%
X-76712700Y18753700D03*
X-78537700Y18753700D03*
%TD*%
D52*
%TO.C,R20*%
X-70662700Y18753700D03*
X-68837700Y18753700D03*
%TD*%
D25*
%TO.C,R26*%
X-102137700Y18753700D03*
X-103962700Y18753700D03*
%TD*%
%TO.C,R25*%
X-95762700Y18753700D03*
X-97587700Y18753700D03*
%TD*%
D56*
%TO.C,U5*%
X-105625200Y76148700D03*
X-105625200Y74878700D03*
X-105625200Y73608700D03*
X-105625200Y72338700D03*
X-105625200Y71068700D03*
X-105625200Y69798700D03*
X-105625200Y68528700D03*
X-105625200Y67258700D03*
X-100675200Y67258700D03*
X-100675200Y68528700D03*
X-100675200Y69798700D03*
X-100675200Y71068700D03*
X-100675200Y72338700D03*
X-100675200Y73608700D03*
X-100675200Y74878700D03*
X-100675200Y76148700D03*
%TD*%
D57*
%TO.C,Q1*%
X5649800Y20341200D03*
X3749800Y20341200D03*
X4699800Y18466200D03*
%TD*%
D58*
%TO.C,U2*%
X-2250200Y28903700D03*
D42*
X-2250200Y31443700D03*
X-2250200Y33983700D03*
D59*
X15529800Y35253700D03*
X15529800Y32713700D03*
X15529800Y30173700D03*
X15529800Y27633700D03*
X11719800Y35485640D03*
X11719800Y32790700D03*
X11719800Y30096700D03*
X11719800Y27401760D03*
%TD*%
D25*
%TO.C,R23*%
X-81837700Y18753700D03*
X-83662700Y18753700D03*
%TD*%
D17*
%TO.C,R17*%
X-74150200Y52391200D03*
X-74150200Y54216200D03*
%TD*%
D25*
%TO.C,R33*%
X-39587700Y18703700D03*
X-41412700Y18703700D03*
%TD*%
D52*
%TO.C,R19*%
X-67062700Y18753700D03*
X-65237700Y18753700D03*
%TD*%
D17*
%TO.C,R16*%
X-74150200Y56391200D03*
X-74150200Y58216200D03*
%TD*%
D25*
%TO.C,R34*%
X-43987700Y18703700D03*
X-45812700Y18703700D03*
%TD*%
%TO.C,R24*%
X-88987700Y18753700D03*
X-90812700Y18753700D03*
%TD*%
D52*
%TO.C,R32*%
X-37962700Y18703700D03*
X-36137700Y18703700D03*
%TD*%
%TO.C,R27*%
X-11662700Y18803700D03*
X-9837700Y18803700D03*
%TD*%
D16*
%TO.C,R14*%
X7699800Y24366200D03*
X7699800Y22541200D03*
%TD*%
%TO.C,R15*%
X-84550200Y55716200D03*
X-84550200Y53891200D03*
%TD*%
D52*
%TO.C,R28*%
X-15062700Y18803700D03*
X-13237700Y18803700D03*
%TD*%
D16*
%TO.C,R18*%
X-84550200Y59716200D03*
X-84550200Y57891200D03*
%TD*%
%TO.C,R35*%
X-97450200Y72916200D03*
X-97450200Y71091200D03*
%TD*%
D52*
%TO.C,R29*%
X-21262700Y18803700D03*
X-19437700Y18803700D03*
%TD*%
%TO.C,R30*%
X-24762700Y18803700D03*
X-22937700Y18803700D03*
%TD*%
%TO.C,R21*%
X-74112700Y18753700D03*
X-72287700Y18753700D03*
%TD*%
D60*
X-43116200Y8585700D03*
X16949800Y7203700D03*
X-128950200Y53103700D03*
X-102466200Y9635700D03*
X-39450200Y61403700D03*
X-55950200Y28803700D03*
X-114450200Y80503700D03*
X-75280200Y55353700D03*
X8049800Y33803700D03*
X10549800Y-3096300D03*
X-82350200Y40703700D03*
X-59122805Y3507121D03*
X-110350200Y64103700D03*
X-123350200Y18803700D03*
X-92150200Y28803700D03*
X-6870200Y84713700D03*
X-109150200Y91903700D03*
X-12520200Y84613700D03*
X-16150200Y62003700D03*
X-42950200Y56403700D03*
X-6250200Y80903700D03*
X10270300Y39883293D03*
X-79150200Y68703700D03*
X-114750200Y85403700D03*
X-38850200Y56503700D03*
X-115950200Y37103700D03*
X-23050200Y48703700D03*
X-129850200Y90703700D03*
X-102750200Y43603700D03*
X-18370200Y70033700D03*
X-78560200Y47353700D03*
X-950200Y74503700D03*
X-97450200Y16903700D03*
X-33810200Y77503700D03*
X12199800Y48713700D03*
X15849800Y21603700D03*
X15549800Y38803700D03*
X-43550200Y24403700D03*
X-119750200Y75303700D03*
X-116750200Y31903700D03*
X-57966200Y15785700D03*
X-34850200Y75703700D03*
X-101400200Y79903700D03*
X1549800Y-7696300D03*
X-107569247Y47898871D03*
X-27816200Y14885700D03*
X-13980200Y74283700D03*
X-110450200Y57903700D03*
X-106550200Y64603700D03*
X-32766200Y4335700D03*
X-69350200Y28203700D03*
X-89350200Y67353700D03*
X-102300200Y57003700D03*
X-84250200Y23503700D03*
X5649800Y33903700D03*
X-450200Y68903700D03*
X-32550200Y60103700D03*
X-121650200Y32003700D03*
X-60850200Y77903700D03*
X-66750200Y55603700D03*
X-60950200Y66203700D03*
X-19650200Y32903700D03*
X-107150200Y53803700D03*
X-73866200Y15835700D03*
X-17540200Y74963700D03*
X-9250200Y44103700D03*
X-98150200Y74803700D03*
X12149800Y19403700D03*
X-129850200Y903700D03*
X-106000200Y88553700D03*
X-8450200Y79603700D03*
X-22580200Y82653700D03*
X-117850200Y52303700D03*
X-129850200Y-3596300D03*
X-129850200Y70503700D03*
X-117350200Y47303700D03*
X-7950200Y30903700D03*
X-117650200Y6603700D03*
X-79510200Y54603700D03*
X-114550200Y59803700D03*
X-88550200Y44503700D03*
X10949800Y3700D03*
X-26050200Y24903700D03*
X16349800Y72603700D03*
X-124850200Y56303700D03*
X-114950200Y67303700D03*
X-24650200Y23703700D03*
X-62650200Y49603700D03*
X2849800Y33903700D03*
X-22350200Y30653700D03*
X-87150200Y36303700D03*
X-128350200Y26003700D03*
X-107550200Y41303700D03*
X1349800Y8803700D03*
X-82270200Y46193700D03*
X-63150200Y88003700D03*
X-25950200Y32953700D03*
X-55550200Y71503700D03*
X-32950200Y68713700D03*
X-89150200Y74403700D03*
X-41350200Y32903700D03*
X1949800Y5603700D03*
X16949800Y5703700D03*
X7749800Y25603700D03*
X-32650200Y52003700D03*
X-79350200Y74103700D03*
X2849800Y30903700D03*
X-110450200Y53703700D03*
X-13566200Y9085700D03*
X-100850200Y30303700D03*
X-108750200Y76603700D03*
X-72450200Y28303700D03*
X-113850200Y-8896300D03*
X-7950200Y34603700D03*
X-22350200Y31853700D03*
X-28450200Y60103700D03*
X-5350200Y74513700D03*
X-87750200Y8403700D03*
X-115023260Y40144900D03*
X-102450200Y64103700D03*
X-70550200Y39603700D03*
X-128850200Y65103700D03*
X-50900200Y29303700D03*
X-123250200Y21703700D03*
X-84050200Y30333700D03*
X-51050200Y45303700D03*
X-129850200Y-2096300D03*
X-58366200Y8085700D03*
X-47950200Y63703700D03*
X16949800Y50703700D03*
X-117650200Y-4896300D03*
X-22600152Y28303652D03*
X16449800Y90603700D03*
X10949800Y1603700D03*
X-18450200Y56203700D03*
X-128350200Y43103700D03*
X-14550200Y81103700D03*
X-88850200Y60403700D03*
X-11750200Y24603700D03*
X-42550200Y21803700D03*
X-13550200Y70603700D03*
X-86350200Y18503700D03*
X-5750200Y55403700D03*
X4549800Y-7696300D03*
X-56050200Y53803700D03*
X-126050200Y70003700D03*
X-17100200Y79333700D03*
X-10950200Y55203700D03*
X-95250200Y70503700D03*
X-63250200Y84203700D03*
X-105400200Y79853700D03*
X-56250200Y60103700D03*
X-41150200Y28203700D03*
X-124750200Y85203700D03*
X-19240200Y74923700D03*
X-22650200Y56203700D03*
X-83770200Y48153700D03*
X-76310200Y49423700D03*
X-83050200Y33903700D03*
X-72466200Y9635700D03*
X-1050200Y-7696300D03*
X-101550200Y38503700D03*
X-65750200Y23703700D03*
X-4650200Y37703700D03*
X-18450200Y79293700D03*
X-118150200Y56103700D03*
X-22350200Y33153700D03*
X-36850200Y49503700D03*
X-28150200Y32903700D03*
X1539800Y45883700D03*
X-123550200Y-3496300D03*
X4519800Y48873700D03*
X-31050200Y28203700D03*
X-119050200Y-8896300D03*
X-99490200Y64143700D03*
X6449800Y24403700D03*
X-106050200Y18903700D03*
X10549800Y-4596300D03*
X-28650200Y52003700D03*
X-129350200Y21403700D03*
X-550200Y62903700D03*
X-74980200Y60713700D03*
X-69950200Y8903700D03*
X9149800Y72603700D03*
X-122650200Y24403700D03*
X-34640200Y70903700D03*
X-71150200Y17103700D03*
X-43950200Y78503700D03*
X-250200Y22703700D03*
X-97250200Y78103700D03*
X15149800Y44503700D03*
X-48900200Y56573700D03*
X-69350200Y32903700D03*
X-5750200Y26903700D03*
X-5550200Y68803700D03*
X-78950200Y63303700D03*
X-55950200Y33403700D03*
X-56050200Y24503700D03*
X-99550200Y19103700D03*
X-82550200Y28203700D03*
X-8700200Y75323700D03*
X-100650200Y22003700D03*
X11449800Y9903700D03*
X-97850200Y67503700D03*
X16549800Y-1596300D03*
X-28550200Y28303700D03*
X-68150200Y41703700D03*
X16549800Y203700D03*
X-5310200Y49103700D03*
X12049800Y13203700D03*
X-107750200Y67203700D03*
X-40550200Y17003700D03*
X-128750200Y59903700D03*
X4349800Y43403700D03*
X-42550200Y30603700D03*
X16549800Y-3296300D03*
X-10957911Y15779200D03*
X17249800Y48203700D03*
X-25950200Y62003700D03*
X-25950200Y31753700D03*
X-25950200Y76303700D03*
X-69150200Y63103700D03*
X-70650200Y52403700D03*
X-83950200Y16803700D03*
X7249800Y20403700D03*
X-20150200Y29503700D03*
X-25950200Y30553700D03*
X-19050200Y23203700D03*
X-55750200Y18303700D03*
X-2850200Y36303700D03*
X3049800Y72603700D03*
X-81950200Y71403700D03*
X-96550200Y33303700D03*
X-123950200Y803700D03*
X-99550200Y46303700D03*
X-114950200Y49703700D03*
X-77450200Y39303700D03*
X-102666200Y15185700D03*
X-99850200Y8703700D03*
X-95750200Y24803700D03*
X-18450200Y26103700D03*
X-50200Y27003700D03*
X-450200Y54103700D03*
X-89150200Y71303700D03*
X-100920200Y62573700D03*
X9049800Y24403700D03*
X-98950200Y79703700D03*
X-74550200Y74103700D03*
X-105750200Y35303700D03*
X-20130200Y79403700D03*
X-88450200Y28803700D03*
X-13950200Y43503700D03*
X-96550200Y53403700D03*
X8049800Y30803700D03*
X-116250200Y-8896300D03*
X-56850200Y39403700D03*
X-26480200Y82863700D03*
X-122150200Y-3496300D03*
X-25050200Y67703700D03*
X-67250200Y22303700D03*
X-68950200Y73503700D03*
X-5650200Y63103700D03*
X-123950200Y-496300D03*
X-115450200Y8703700D03*
X6149800Y26903700D03*
X-5450200Y34603700D03*
X-5050200Y24703700D03*
X7449800Y46303700D03*
X2549800Y25003700D03*
X-110950200Y37903700D03*
X-54150200Y8803700D03*
X-15460200Y75803700D03*
X-79660200Y58583700D03*
X-63350200Y20203700D03*
X-129850200Y-696300D03*
X-118550200Y80303700D03*
X-98750200Y76203700D03*
X-76150200Y74203700D03*
X-105950200Y77503700D03*
X-98650200Y68603700D03*
X-77550200Y72603700D03*
X-107650200Y68503700D03*
X-102465818Y92153711D03*
X-14055200Y72398700D03*
X-5350200Y84903700D03*
X-24340200Y71433700D03*
X-110200Y81683700D03*
X-21050200Y83378657D03*
X-19750200Y83378657D03*
X1439800Y81409200D03*
X-34350200Y84603700D03*
X-33450200Y85603700D03*
X-93350200Y46703700D03*
X-72700200Y58153700D03*
X-86050200Y56903700D03*
X-86200200Y55353700D03*
X-72400200Y56353700D03*
X-72750200Y54403700D03*
X-84450200Y52353700D03*
X-84100200Y51103700D03*
X-72550200Y52553700D03*
X5449800Y47303700D03*
X949800Y47303700D03*
X-107350200Y72303700D03*
X-98772700Y71068700D03*
G36*
X-26121985Y24460497D02*
G01*
X-25994706Y24458163D01*
X-25908860Y24481568D01*
X-25906926Y24481058D01*
X-25906400Y24479129D01*
X-25907569Y24477790D01*
X-25930130Y24468445D01*
X-25984288Y24424801D01*
X-26006161Y24359086D01*
X-25989033Y24291980D01*
X-25938301Y24244746D01*
X-25882865Y24231646D01*
X-25881409Y24230275D01*
X-25881869Y24228328D01*
X-25883325Y24227700D01*
X-26217071Y24227700D01*
X-26218803Y24228700D01*
X-26218803Y24230700D01*
X-26217634Y24231619D01*
X-26150622Y24251295D01*
X-26105267Y24303638D01*
X-26095410Y24372191D01*
X-26124205Y24435242D01*
X-26170219Y24468423D01*
X-26199305Y24480471D01*
X-26200523Y24482058D01*
X-26199758Y24483906D01*
X-26197944Y24484228D01*
X-26121985Y24460497D01*
G37*
G36*
X-50628847Y28945255D02*
G01*
X-50629231Y28944022D01*
X-50665571Y28894252D01*
X-50669689Y28825117D01*
X-50635787Y28764750D01*
X-50569532Y28731487D01*
X-50568432Y28729817D01*
X-50569330Y28728029D01*
X-50570429Y28727700D01*
X-51062586Y28727700D01*
X-51129022Y28719896D01*
X-51180253Y28697140D01*
X-51182242Y28697351D01*
X-51183054Y28699179D01*
X-51181973Y28700750D01*
X-51156700Y28713627D01*
X-51106131Y28761386D01*
X-51089482Y28828612D01*
X-51111868Y28894304D01*
X-51137525Y28921021D01*
X-51156675Y28935716D01*
X-51157440Y28937564D01*
X-51156222Y28939151D01*
X-51154349Y28938968D01*
X-51093491Y28898457D01*
X-50971985Y28860497D01*
X-50844706Y28858163D01*
X-50721885Y28891648D01*
X-50631892Y28946905D01*
X-50629893Y28946959D01*
X-50628847Y28945255D01*
G37*
G36*
X-75947371Y55513041D02*
G01*
X-75919441Y55449902D01*
X-75861627Y55411766D01*
X-75792373Y55410941D01*
X-75733560Y55447755D01*
X-75714498Y55478206D01*
X-75712732Y55479144D01*
X-75711036Y55478083D01*
X-75710827Y55476837D01*
X-75729146Y55359185D01*
X-75713010Y55235787D01*
X-75713777Y55233940D01*
X-75715760Y55233681D01*
X-75716550Y55234273D01*
X-75758489Y55286317D01*
X-75824204Y55308189D01*
X-75891310Y55291061D01*
X-75938591Y55240278D01*
X-75950560Y55201244D01*
X-75954745Y55169452D01*
X-75954915Y55168868D01*
X-75958779Y55160581D01*
X-75960418Y55159434D01*
X-75962230Y55160279D01*
X-75962554Y55161816D01*
X-75951200Y55218899D01*
X-75951200Y55512232D01*
X-75950200Y55513964D01*
X-75948200Y55513964D01*
X-75947371Y55513041D01*
G37*
G36*
X-31200933Y71670399D02*
G01*
X-31149254Y71627211D01*
X-31080539Y71618580D01*
X-31017909Y71648544D01*
X-30999852Y71669382D01*
X-30997962Y71670036D01*
X-30996451Y71668726D01*
X-30996379Y71667682D01*
X-30999200Y71653501D01*
X-30999200Y70153899D01*
X-30996222Y70138926D01*
X-30996865Y70137032D01*
X-30998827Y70136642D01*
X-30999467Y70137001D01*
X-31051146Y70180189D01*
X-31119861Y70188820D01*
X-31182491Y70158856D01*
X-31200548Y70138018D01*
X-31202438Y70137364D01*
X-31203949Y70138674D01*
X-31204021Y70139718D01*
X-31201200Y70153899D01*
X-31201200Y71653501D01*
X-31204178Y71668474D01*
X-31203535Y71670368D01*
X-31201573Y71670758D01*
X-31200933Y71670399D01*
G37*
G36*
X-32500933Y71670399D02*
G01*
X-32449254Y71627211D01*
X-32380539Y71618580D01*
X-32317909Y71648544D01*
X-32299852Y71669382D01*
X-32297962Y71670036D01*
X-32296451Y71668726D01*
X-32296379Y71667682D01*
X-32299200Y71653501D01*
X-32299200Y70153899D01*
X-32296222Y70138926D01*
X-32296865Y70137032D01*
X-32298827Y70136642D01*
X-32299467Y70137001D01*
X-32351146Y70180189D01*
X-32419861Y70188820D01*
X-32482491Y70158856D01*
X-32500548Y70138018D01*
X-32502438Y70137364D01*
X-32503949Y70138674D01*
X-32504021Y70139718D01*
X-32501200Y70153899D01*
X-32501200Y71653501D01*
X-32504178Y71668474D01*
X-32503535Y71670368D01*
X-32501573Y71670758D01*
X-32500933Y71670399D01*
G37*
G36*
X-23965412Y71917932D02*
G01*
X-23964600Y71916104D01*
X-23965216Y71914861D01*
X-24013328Y71869422D01*
X-24029971Y71802218D01*
X-24004569Y71732338D01*
X-23996418Y71721716D01*
X-23996157Y71719733D01*
X-23997744Y71718515D01*
X-23999520Y71719192D01*
X-24045053Y71772035D01*
X-24151874Y71841274D01*
X-24267270Y71875784D01*
X-24268643Y71877238D01*
X-24268070Y71879154D01*
X-24266697Y71879700D01*
X-24102814Y71879700D01*
X-24036378Y71887504D01*
X-23967401Y71918143D01*
X-23965412Y71917932D01*
G37*
G36*
X-24722378Y71911192D02*
G01*
X-24668539Y71887390D01*
X-24602580Y71879700D01*
X-24411299Y71879700D01*
X-24409567Y71878700D01*
X-24409567Y71876700D01*
X-24410749Y71875777D01*
X-24523534Y71843543D01*
X-24631191Y71775617D01*
X-24679936Y71720424D01*
X-24681832Y71719788D01*
X-24683331Y71721112D01*
X-24683021Y71722966D01*
X-24682845Y71723195D01*
X-24657763Y71788073D01*
X-24671675Y71855897D01*
X-24724589Y71907937D01*
X-24725123Y71909865D01*
X-24723721Y71911290D01*
X-24722378Y71911192D01*
G37*
G36*
X-32500933Y76470399D02*
G01*
X-32449254Y76427211D01*
X-32380539Y76418580D01*
X-32317909Y76448544D01*
X-32299852Y76469382D01*
X-32297962Y76470036D01*
X-32296451Y76468726D01*
X-32296379Y76467682D01*
X-32299200Y76453501D01*
X-32299200Y74953899D01*
X-32296222Y74938926D01*
X-32296865Y74937032D01*
X-32298827Y74936642D01*
X-32299467Y74937001D01*
X-32351146Y74980189D01*
X-32419861Y74988820D01*
X-32482491Y74958856D01*
X-32500548Y74938018D01*
X-32502438Y74937364D01*
X-32503949Y74938674D01*
X-32504021Y74939718D01*
X-32501200Y74953899D01*
X-32501200Y76453501D01*
X-32504178Y76468474D01*
X-32503535Y76470368D01*
X-32501573Y76470758D01*
X-32500933Y76470399D01*
G37*
G36*
X-31200933Y76470399D02*
G01*
X-31149254Y76427211D01*
X-31080539Y76418580D01*
X-31017909Y76448544D01*
X-30999852Y76469382D01*
X-30997962Y76470036D01*
X-30996451Y76468726D01*
X-30996379Y76467682D01*
X-30999200Y76453501D01*
X-30999200Y74953899D01*
X-30996222Y74938926D01*
X-30996865Y74937032D01*
X-30998827Y74936642D01*
X-30999467Y74937001D01*
X-31051146Y74980189D01*
X-31119861Y74988820D01*
X-31182491Y74958856D01*
X-31200548Y74938018D01*
X-31202438Y74937364D01*
X-31203949Y74938674D01*
X-31204021Y74939718D01*
X-31201200Y74953899D01*
X-31201200Y76453501D01*
X-31204178Y76468474D01*
X-31203535Y76470368D01*
X-31201573Y76470758D01*
X-31200933Y76470399D01*
G37*
M02*
