%TF.GenerationSoftware,KiCad,Pcbnew,(6.0.5)*%
%TF.CreationDate,2022-06-04T22:08:37-05:00*%
%TF.ProjectId,PB_16,50425f31-362e-46b6-9963-61645f706362,v2.1*%
%TF.SameCoordinates,Original*%
%TF.FileFunction,Other,Comment*%
%FSLAX46Y46*%
G04 Gerber Fmt 4.6, Leading zero omitted, Abs format (unit mm)*
G04 Created by KiCad (PCBNEW (6.0.5)) date 2022-06-04 22:08:37*
%MOMM*%
%LPD*%
G01*
G04 APERTURE LIST*
%ADD10C,0.002000*%
%ADD11C,0.150000*%
G04 APERTURE END LIST*
D10*
%TO.C,U4*%
X117211957Y-104090033D02*
X117218004Y-104096080D01*
X117224052Y-104114223D01*
X117224052Y-104126319D01*
X117218004Y-104144461D01*
X117205909Y-104156557D01*
X117193814Y-104162604D01*
X117169623Y-104168652D01*
X117151480Y-104168652D01*
X117127290Y-104162604D01*
X117115195Y-104156557D01*
X117103100Y-104144461D01*
X117097052Y-104126319D01*
X117097052Y-104114223D01*
X117103100Y-104096080D01*
X117109147Y-104090033D01*
X117224052Y-104017461D02*
X117218004Y-104029557D01*
X117211957Y-104035604D01*
X117199861Y-104041652D01*
X117163576Y-104041652D01*
X117151480Y-104035604D01*
X117145433Y-104029557D01*
X117139385Y-104017461D01*
X117139385Y-103999319D01*
X117145433Y-103987223D01*
X117151480Y-103981176D01*
X117163576Y-103975128D01*
X117199861Y-103975128D01*
X117211957Y-103981176D01*
X117218004Y-103987223D01*
X117224052Y-103999319D01*
X117224052Y-104017461D01*
X117139385Y-103920700D02*
X117266385Y-103920700D01*
X117145433Y-103920700D02*
X117139385Y-103908604D01*
X117139385Y-103884414D01*
X117145433Y-103872319D01*
X117151480Y-103866271D01*
X117163576Y-103860223D01*
X117199861Y-103860223D01*
X117211957Y-103866271D01*
X117218004Y-103872319D01*
X117224052Y-103884414D01*
X117224052Y-103908604D01*
X117218004Y-103920700D01*
X117139385Y-103817890D02*
X117224052Y-103787652D01*
X117139385Y-103757414D02*
X117224052Y-103787652D01*
X117254290Y-103799747D01*
X117260338Y-103805795D01*
X117266385Y-103817890D01*
X117224052Y-103709033D02*
X117139385Y-103709033D01*
X117163576Y-103709033D02*
X117151480Y-103702985D01*
X117145433Y-103696938D01*
X117139385Y-103684842D01*
X117139385Y-103672747D01*
X117224052Y-103630414D02*
X117139385Y-103630414D01*
X117097052Y-103630414D02*
X117103100Y-103636461D01*
X117109147Y-103630414D01*
X117103100Y-103624366D01*
X117097052Y-103630414D01*
X117109147Y-103630414D01*
X117139385Y-103515509D02*
X117242195Y-103515509D01*
X117254290Y-103521557D01*
X117260338Y-103527604D01*
X117266385Y-103539700D01*
X117266385Y-103557842D01*
X117260338Y-103569938D01*
X117218004Y-103515509D02*
X117224052Y-103527604D01*
X117224052Y-103551795D01*
X117218004Y-103563890D01*
X117211957Y-103569938D01*
X117199861Y-103575985D01*
X117163576Y-103575985D01*
X117151480Y-103569938D01*
X117145433Y-103563890D01*
X117139385Y-103551795D01*
X117139385Y-103527604D01*
X117145433Y-103515509D01*
X117224052Y-103455033D02*
X117097052Y-103455033D01*
X117224052Y-103400604D02*
X117157528Y-103400604D01*
X117145433Y-103406652D01*
X117139385Y-103418747D01*
X117139385Y-103436890D01*
X117145433Y-103448985D01*
X117151480Y-103455033D01*
X117139385Y-103358271D02*
X117139385Y-103309890D01*
X117097052Y-103340128D02*
X117205909Y-103340128D01*
X117218004Y-103334080D01*
X117224052Y-103321985D01*
X117224052Y-103309890D01*
X117109147Y-103176842D02*
X117103100Y-103170795D01*
X117097052Y-103158700D01*
X117097052Y-103128461D01*
X117103100Y-103116366D01*
X117109147Y-103110319D01*
X117121242Y-103104271D01*
X117133338Y-103104271D01*
X117151480Y-103110319D01*
X117224052Y-103182890D01*
X117224052Y-103104271D01*
X117097052Y-103025652D02*
X117097052Y-103013557D01*
X117103100Y-103001461D01*
X117109147Y-102995414D01*
X117121242Y-102989366D01*
X117145433Y-102983319D01*
X117175671Y-102983319D01*
X117199861Y-102989366D01*
X117211957Y-102995414D01*
X117218004Y-103001461D01*
X117224052Y-103013557D01*
X117224052Y-103025652D01*
X117218004Y-103037747D01*
X117211957Y-103043795D01*
X117199861Y-103049842D01*
X117175671Y-103055890D01*
X117145433Y-103055890D01*
X117121242Y-103049842D01*
X117109147Y-103043795D01*
X117103100Y-103037747D01*
X117097052Y-103025652D01*
X117224052Y-102862366D02*
X117224052Y-102934938D01*
X117224052Y-102898652D02*
X117097052Y-102898652D01*
X117115195Y-102910747D01*
X117127290Y-102922842D01*
X117133338Y-102934938D01*
X117097052Y-102753509D02*
X117097052Y-102777700D01*
X117103100Y-102789795D01*
X117109147Y-102795842D01*
X117127290Y-102807938D01*
X117151480Y-102813985D01*
X117199861Y-102813985D01*
X117211957Y-102807938D01*
X117218004Y-102801890D01*
X117224052Y-102789795D01*
X117224052Y-102765604D01*
X117218004Y-102753509D01*
X117211957Y-102747461D01*
X117199861Y-102741414D01*
X117169623Y-102741414D01*
X117157528Y-102747461D01*
X117151480Y-102753509D01*
X117145433Y-102765604D01*
X117145433Y-102789795D01*
X117151480Y-102801890D01*
X117157528Y-102807938D01*
X117169623Y-102813985D01*
X117187766Y-102596271D02*
X117187766Y-102535795D01*
X117224052Y-102608366D02*
X117097052Y-102566033D01*
X117224052Y-102523700D01*
X117218004Y-102426938D02*
X117224052Y-102439033D01*
X117224052Y-102463223D01*
X117218004Y-102475319D01*
X117211957Y-102481366D01*
X117199861Y-102487414D01*
X117163576Y-102487414D01*
X117151480Y-102481366D01*
X117145433Y-102475319D01*
X117139385Y-102463223D01*
X117139385Y-102439033D01*
X117145433Y-102426938D01*
X117218004Y-102318080D02*
X117224052Y-102330176D01*
X117224052Y-102354366D01*
X117218004Y-102366461D01*
X117211957Y-102372509D01*
X117199861Y-102378557D01*
X117163576Y-102378557D01*
X117151480Y-102372509D01*
X117145433Y-102366461D01*
X117139385Y-102354366D01*
X117139385Y-102330176D01*
X117145433Y-102318080D01*
X117218004Y-102215271D02*
X117224052Y-102227366D01*
X117224052Y-102251557D01*
X117218004Y-102263652D01*
X117205909Y-102269700D01*
X117157528Y-102269700D01*
X117145433Y-102263652D01*
X117139385Y-102251557D01*
X117139385Y-102227366D01*
X117145433Y-102215271D01*
X117157528Y-102209223D01*
X117169623Y-102209223D01*
X117181719Y-102269700D01*
X117224052Y-102136652D02*
X117218004Y-102148747D01*
X117205909Y-102154795D01*
X117097052Y-102154795D01*
X117218004Y-102039890D02*
X117224052Y-102051985D01*
X117224052Y-102076176D01*
X117218004Y-102088271D01*
X117205909Y-102094319D01*
X117157528Y-102094319D01*
X117145433Y-102088271D01*
X117139385Y-102076176D01*
X117139385Y-102051985D01*
X117145433Y-102039890D01*
X117157528Y-102033842D01*
X117169623Y-102033842D01*
X117181719Y-102094319D01*
X117224052Y-101979414D02*
X117139385Y-101979414D01*
X117163576Y-101979414D02*
X117151480Y-101973366D01*
X117145433Y-101967319D01*
X117139385Y-101955223D01*
X117139385Y-101943128D01*
X117224052Y-101846366D02*
X117157528Y-101846366D01*
X117145433Y-101852414D01*
X117139385Y-101864509D01*
X117139385Y-101888700D01*
X117145433Y-101900795D01*
X117218004Y-101846366D02*
X117224052Y-101858461D01*
X117224052Y-101888700D01*
X117218004Y-101900795D01*
X117205909Y-101906842D01*
X117193814Y-101906842D01*
X117181719Y-101900795D01*
X117175671Y-101888700D01*
X117175671Y-101858461D01*
X117169623Y-101846366D01*
X117139385Y-101804033D02*
X117139385Y-101755652D01*
X117097052Y-101785890D02*
X117205909Y-101785890D01*
X117218004Y-101779842D01*
X117224052Y-101767747D01*
X117224052Y-101755652D01*
X117218004Y-101664938D02*
X117224052Y-101677033D01*
X117224052Y-101701223D01*
X117218004Y-101713319D01*
X117205909Y-101719366D01*
X117157528Y-101719366D01*
X117145433Y-101713319D01*
X117139385Y-101701223D01*
X117139385Y-101677033D01*
X117145433Y-101664938D01*
X117157528Y-101658890D01*
X117169623Y-101658890D01*
X117181719Y-101719366D01*
X117224052Y-101550033D02*
X117097052Y-101550033D01*
X117218004Y-101550033D02*
X117224052Y-101562128D01*
X117224052Y-101586319D01*
X117218004Y-101598414D01*
X117211957Y-101604461D01*
X117199861Y-101610509D01*
X117163576Y-101610509D01*
X117151480Y-101604461D01*
X117145433Y-101598414D01*
X117139385Y-101586319D01*
X117139385Y-101562128D01*
X117145433Y-101550033D01*
X117224052Y-101392795D02*
X117097052Y-101392795D01*
X117097052Y-101362557D01*
X117103100Y-101344414D01*
X117115195Y-101332319D01*
X117127290Y-101326271D01*
X117151480Y-101320223D01*
X117169623Y-101320223D01*
X117193814Y-101326271D01*
X117205909Y-101332319D01*
X117218004Y-101344414D01*
X117224052Y-101362557D01*
X117224052Y-101392795D01*
X117218004Y-101217414D02*
X117224052Y-101229509D01*
X117224052Y-101253700D01*
X117218004Y-101265795D01*
X117205909Y-101271842D01*
X117157528Y-101271842D01*
X117145433Y-101265795D01*
X117139385Y-101253700D01*
X117139385Y-101229509D01*
X117145433Y-101217414D01*
X117157528Y-101211366D01*
X117169623Y-101211366D01*
X117181719Y-101271842D01*
X117218004Y-101162985D02*
X117224052Y-101150890D01*
X117224052Y-101126700D01*
X117218004Y-101114604D01*
X117205909Y-101108557D01*
X117199861Y-101108557D01*
X117187766Y-101114604D01*
X117181719Y-101126700D01*
X117181719Y-101144842D01*
X117175671Y-101156938D01*
X117163576Y-101162985D01*
X117157528Y-101162985D01*
X117145433Y-101156938D01*
X117139385Y-101144842D01*
X117139385Y-101126700D01*
X117145433Y-101114604D01*
X117224052Y-101054128D02*
X117139385Y-101054128D01*
X117097052Y-101054128D02*
X117103100Y-101060176D01*
X117109147Y-101054128D01*
X117103100Y-101048080D01*
X117097052Y-101054128D01*
X117109147Y-101054128D01*
X117139385Y-100939223D02*
X117242195Y-100939223D01*
X117254290Y-100945271D01*
X117260338Y-100951319D01*
X117266385Y-100963414D01*
X117266385Y-100981557D01*
X117260338Y-100993652D01*
X117218004Y-100939223D02*
X117224052Y-100951319D01*
X117224052Y-100975509D01*
X117218004Y-100987604D01*
X117211957Y-100993652D01*
X117199861Y-100999700D01*
X117163576Y-100999700D01*
X117151480Y-100993652D01*
X117145433Y-100987604D01*
X117139385Y-100975509D01*
X117139385Y-100951319D01*
X117145433Y-100939223D01*
X117139385Y-100878747D02*
X117224052Y-100878747D01*
X117151480Y-100878747D02*
X117145433Y-100872700D01*
X117139385Y-100860604D01*
X117139385Y-100842461D01*
X117145433Y-100830366D01*
X117157528Y-100824319D01*
X117224052Y-100824319D01*
X117218004Y-100769890D02*
X117224052Y-100757795D01*
X117224052Y-100733604D01*
X117218004Y-100721509D01*
X117205909Y-100715461D01*
X117199861Y-100715461D01*
X117187766Y-100721509D01*
X117181719Y-100733604D01*
X117181719Y-100751747D01*
X117175671Y-100763842D01*
X117163576Y-100769890D01*
X117157528Y-100769890D01*
X117145433Y-100763842D01*
X117139385Y-100751747D01*
X117139385Y-100733604D01*
X117145433Y-100721509D01*
X117211957Y-100661033D02*
X117218004Y-100654985D01*
X117224052Y-100661033D01*
X117218004Y-100667080D01*
X117211957Y-100661033D01*
X117224052Y-100661033D01*
X117187766Y-100509842D02*
X117187766Y-100449366D01*
X117224052Y-100521938D02*
X117097052Y-100479604D01*
X117224052Y-100437271D01*
X117224052Y-100376795D02*
X117218004Y-100388890D01*
X117205909Y-100394938D01*
X117097052Y-100394938D01*
X117224052Y-100310271D02*
X117218004Y-100322366D01*
X117205909Y-100328414D01*
X117097052Y-100328414D01*
X117224052Y-100165128D02*
X117139385Y-100165128D01*
X117163576Y-100165128D02*
X117151480Y-100159080D01*
X117145433Y-100153033D01*
X117139385Y-100140938D01*
X117139385Y-100128842D01*
X117224052Y-100086509D02*
X117139385Y-100086509D01*
X117097052Y-100086509D02*
X117103100Y-100092557D01*
X117109147Y-100086509D01*
X117103100Y-100080461D01*
X117097052Y-100086509D01*
X117109147Y-100086509D01*
X117139385Y-99971604D02*
X117242195Y-99971604D01*
X117254290Y-99977652D01*
X117260338Y-99983700D01*
X117266385Y-99995795D01*
X117266385Y-100013938D01*
X117260338Y-100026033D01*
X117218004Y-99971604D02*
X117224052Y-99983700D01*
X117224052Y-100007890D01*
X117218004Y-100019985D01*
X117211957Y-100026033D01*
X117199861Y-100032080D01*
X117163576Y-100032080D01*
X117151480Y-100026033D01*
X117145433Y-100019985D01*
X117139385Y-100007890D01*
X117139385Y-99983700D01*
X117145433Y-99971604D01*
X117224052Y-99911128D02*
X117097052Y-99911128D01*
X117224052Y-99856700D02*
X117157528Y-99856700D01*
X117145433Y-99862747D01*
X117139385Y-99874842D01*
X117139385Y-99892985D01*
X117145433Y-99905080D01*
X117151480Y-99911128D01*
X117139385Y-99814366D02*
X117139385Y-99765985D01*
X117097052Y-99796223D02*
X117205909Y-99796223D01*
X117218004Y-99790176D01*
X117224052Y-99778080D01*
X117224052Y-99765985D01*
X117218004Y-99729700D02*
X117224052Y-99717604D01*
X117224052Y-99693414D01*
X117218004Y-99681319D01*
X117205909Y-99675271D01*
X117199861Y-99675271D01*
X117187766Y-99681319D01*
X117181719Y-99693414D01*
X117181719Y-99711557D01*
X117175671Y-99723652D01*
X117163576Y-99729700D01*
X117157528Y-99729700D01*
X117145433Y-99723652D01*
X117139385Y-99711557D01*
X117139385Y-99693414D01*
X117145433Y-99681319D01*
X117224052Y-99524080D02*
X117139385Y-99524080D01*
X117163576Y-99524080D02*
X117151480Y-99518033D01*
X117145433Y-99511985D01*
X117139385Y-99499890D01*
X117139385Y-99487795D01*
X117218004Y-99397080D02*
X117224052Y-99409176D01*
X117224052Y-99433366D01*
X117218004Y-99445461D01*
X117205909Y-99451509D01*
X117157528Y-99451509D01*
X117145433Y-99445461D01*
X117139385Y-99433366D01*
X117139385Y-99409176D01*
X117145433Y-99397080D01*
X117157528Y-99391033D01*
X117169623Y-99391033D01*
X117181719Y-99451509D01*
X117218004Y-99342652D02*
X117224052Y-99330557D01*
X117224052Y-99306366D01*
X117218004Y-99294271D01*
X117205909Y-99288223D01*
X117199861Y-99288223D01*
X117187766Y-99294271D01*
X117181719Y-99306366D01*
X117181719Y-99324509D01*
X117175671Y-99336604D01*
X117163576Y-99342652D01*
X117157528Y-99342652D01*
X117145433Y-99336604D01*
X117139385Y-99324509D01*
X117139385Y-99306366D01*
X117145433Y-99294271D01*
X117218004Y-99185414D02*
X117224052Y-99197509D01*
X117224052Y-99221700D01*
X117218004Y-99233795D01*
X117205909Y-99239842D01*
X117157528Y-99239842D01*
X117145433Y-99233795D01*
X117139385Y-99221700D01*
X117139385Y-99197509D01*
X117145433Y-99185414D01*
X117157528Y-99179366D01*
X117169623Y-99179366D01*
X117181719Y-99239842D01*
X117224052Y-99124938D02*
X117139385Y-99124938D01*
X117163576Y-99124938D02*
X117151480Y-99118890D01*
X117145433Y-99112842D01*
X117139385Y-99100747D01*
X117139385Y-99088652D01*
X117139385Y-99058414D02*
X117224052Y-99028176D01*
X117139385Y-98997938D01*
X117218004Y-98901176D02*
X117224052Y-98913271D01*
X117224052Y-98937461D01*
X117218004Y-98949557D01*
X117205909Y-98955604D01*
X117157528Y-98955604D01*
X117145433Y-98949557D01*
X117139385Y-98937461D01*
X117139385Y-98913271D01*
X117145433Y-98901176D01*
X117157528Y-98895128D01*
X117169623Y-98895128D01*
X117181719Y-98955604D01*
X117224052Y-98786271D02*
X117097052Y-98786271D01*
X117218004Y-98786271D02*
X117224052Y-98798366D01*
X117224052Y-98822557D01*
X117218004Y-98834652D01*
X117211957Y-98840700D01*
X117199861Y-98846747D01*
X117163576Y-98846747D01*
X117151480Y-98840700D01*
X117145433Y-98834652D01*
X117139385Y-98822557D01*
X117139385Y-98798366D01*
X117145433Y-98786271D01*
X117211957Y-98725795D02*
X117218004Y-98719747D01*
X117224052Y-98725795D01*
X117218004Y-98731842D01*
X117211957Y-98725795D01*
X117224052Y-98725795D01*
%TO.C,U5*%
X175515117Y-104298313D02*
X175521164Y-104304360D01*
X175527212Y-104322503D01*
X175527212Y-104334599D01*
X175521164Y-104352741D01*
X175509069Y-104364837D01*
X175496974Y-104370884D01*
X175472783Y-104376932D01*
X175454640Y-104376932D01*
X175430450Y-104370884D01*
X175418355Y-104364837D01*
X175406260Y-104352741D01*
X175400212Y-104334599D01*
X175400212Y-104322503D01*
X175406260Y-104304360D01*
X175412307Y-104298313D01*
X175527212Y-104225741D02*
X175521164Y-104237837D01*
X175515117Y-104243884D01*
X175503021Y-104249932D01*
X175466736Y-104249932D01*
X175454640Y-104243884D01*
X175448593Y-104237837D01*
X175442545Y-104225741D01*
X175442545Y-104207599D01*
X175448593Y-104195503D01*
X175454640Y-104189456D01*
X175466736Y-104183408D01*
X175503021Y-104183408D01*
X175515117Y-104189456D01*
X175521164Y-104195503D01*
X175527212Y-104207599D01*
X175527212Y-104225741D01*
X175442545Y-104128980D02*
X175569545Y-104128980D01*
X175448593Y-104128980D02*
X175442545Y-104116884D01*
X175442545Y-104092694D01*
X175448593Y-104080599D01*
X175454640Y-104074551D01*
X175466736Y-104068503D01*
X175503021Y-104068503D01*
X175515117Y-104074551D01*
X175521164Y-104080599D01*
X175527212Y-104092694D01*
X175527212Y-104116884D01*
X175521164Y-104128980D01*
X175442545Y-104026170D02*
X175527212Y-103995932D01*
X175442545Y-103965694D02*
X175527212Y-103995932D01*
X175557450Y-104008027D01*
X175563498Y-104014075D01*
X175569545Y-104026170D01*
X175527212Y-103917313D02*
X175442545Y-103917313D01*
X175466736Y-103917313D02*
X175454640Y-103911265D01*
X175448593Y-103905218D01*
X175442545Y-103893122D01*
X175442545Y-103881027D01*
X175527212Y-103838694D02*
X175442545Y-103838694D01*
X175400212Y-103838694D02*
X175406260Y-103844741D01*
X175412307Y-103838694D01*
X175406260Y-103832646D01*
X175400212Y-103838694D01*
X175412307Y-103838694D01*
X175442545Y-103723789D02*
X175545355Y-103723789D01*
X175557450Y-103729837D01*
X175563498Y-103735884D01*
X175569545Y-103747980D01*
X175569545Y-103766122D01*
X175563498Y-103778218D01*
X175521164Y-103723789D02*
X175527212Y-103735884D01*
X175527212Y-103760075D01*
X175521164Y-103772170D01*
X175515117Y-103778218D01*
X175503021Y-103784265D01*
X175466736Y-103784265D01*
X175454640Y-103778218D01*
X175448593Y-103772170D01*
X175442545Y-103760075D01*
X175442545Y-103735884D01*
X175448593Y-103723789D01*
X175527212Y-103663313D02*
X175400212Y-103663313D01*
X175527212Y-103608884D02*
X175460688Y-103608884D01*
X175448593Y-103614932D01*
X175442545Y-103627027D01*
X175442545Y-103645170D01*
X175448593Y-103657265D01*
X175454640Y-103663313D01*
X175442545Y-103566551D02*
X175442545Y-103518170D01*
X175400212Y-103548408D02*
X175509069Y-103548408D01*
X175521164Y-103542360D01*
X175527212Y-103530265D01*
X175527212Y-103518170D01*
X175412307Y-103385122D02*
X175406260Y-103379075D01*
X175400212Y-103366980D01*
X175400212Y-103336741D01*
X175406260Y-103324646D01*
X175412307Y-103318599D01*
X175424402Y-103312551D01*
X175436498Y-103312551D01*
X175454640Y-103318599D01*
X175527212Y-103391170D01*
X175527212Y-103312551D01*
X175400212Y-103233932D02*
X175400212Y-103221837D01*
X175406260Y-103209741D01*
X175412307Y-103203694D01*
X175424402Y-103197646D01*
X175448593Y-103191599D01*
X175478831Y-103191599D01*
X175503021Y-103197646D01*
X175515117Y-103203694D01*
X175521164Y-103209741D01*
X175527212Y-103221837D01*
X175527212Y-103233932D01*
X175521164Y-103246027D01*
X175515117Y-103252075D01*
X175503021Y-103258122D01*
X175478831Y-103264170D01*
X175448593Y-103264170D01*
X175424402Y-103258122D01*
X175412307Y-103252075D01*
X175406260Y-103246027D01*
X175400212Y-103233932D01*
X175527212Y-103070646D02*
X175527212Y-103143218D01*
X175527212Y-103106932D02*
X175400212Y-103106932D01*
X175418355Y-103119027D01*
X175430450Y-103131122D01*
X175436498Y-103143218D01*
X175400212Y-102961789D02*
X175400212Y-102985980D01*
X175406260Y-102998075D01*
X175412307Y-103004122D01*
X175430450Y-103016218D01*
X175454640Y-103022265D01*
X175503021Y-103022265D01*
X175515117Y-103016218D01*
X175521164Y-103010170D01*
X175527212Y-102998075D01*
X175527212Y-102973884D01*
X175521164Y-102961789D01*
X175515117Y-102955741D01*
X175503021Y-102949694D01*
X175472783Y-102949694D01*
X175460688Y-102955741D01*
X175454640Y-102961789D01*
X175448593Y-102973884D01*
X175448593Y-102998075D01*
X175454640Y-103010170D01*
X175460688Y-103016218D01*
X175472783Y-103022265D01*
X175490926Y-102804551D02*
X175490926Y-102744075D01*
X175527212Y-102816646D02*
X175400212Y-102774313D01*
X175527212Y-102731980D01*
X175521164Y-102635218D02*
X175527212Y-102647313D01*
X175527212Y-102671503D01*
X175521164Y-102683599D01*
X175515117Y-102689646D01*
X175503021Y-102695694D01*
X175466736Y-102695694D01*
X175454640Y-102689646D01*
X175448593Y-102683599D01*
X175442545Y-102671503D01*
X175442545Y-102647313D01*
X175448593Y-102635218D01*
X175521164Y-102526360D02*
X175527212Y-102538456D01*
X175527212Y-102562646D01*
X175521164Y-102574741D01*
X175515117Y-102580789D01*
X175503021Y-102586837D01*
X175466736Y-102586837D01*
X175454640Y-102580789D01*
X175448593Y-102574741D01*
X175442545Y-102562646D01*
X175442545Y-102538456D01*
X175448593Y-102526360D01*
X175521164Y-102423551D02*
X175527212Y-102435646D01*
X175527212Y-102459837D01*
X175521164Y-102471932D01*
X175509069Y-102477980D01*
X175460688Y-102477980D01*
X175448593Y-102471932D01*
X175442545Y-102459837D01*
X175442545Y-102435646D01*
X175448593Y-102423551D01*
X175460688Y-102417503D01*
X175472783Y-102417503D01*
X175484879Y-102477980D01*
X175527212Y-102344932D02*
X175521164Y-102357027D01*
X175509069Y-102363075D01*
X175400212Y-102363075D01*
X175521164Y-102248170D02*
X175527212Y-102260265D01*
X175527212Y-102284456D01*
X175521164Y-102296551D01*
X175509069Y-102302599D01*
X175460688Y-102302599D01*
X175448593Y-102296551D01*
X175442545Y-102284456D01*
X175442545Y-102260265D01*
X175448593Y-102248170D01*
X175460688Y-102242122D01*
X175472783Y-102242122D01*
X175484879Y-102302599D01*
X175527212Y-102187694D02*
X175442545Y-102187694D01*
X175466736Y-102187694D02*
X175454640Y-102181646D01*
X175448593Y-102175599D01*
X175442545Y-102163503D01*
X175442545Y-102151408D01*
X175527212Y-102054646D02*
X175460688Y-102054646D01*
X175448593Y-102060694D01*
X175442545Y-102072789D01*
X175442545Y-102096980D01*
X175448593Y-102109075D01*
X175521164Y-102054646D02*
X175527212Y-102066741D01*
X175527212Y-102096980D01*
X175521164Y-102109075D01*
X175509069Y-102115122D01*
X175496974Y-102115122D01*
X175484879Y-102109075D01*
X175478831Y-102096980D01*
X175478831Y-102066741D01*
X175472783Y-102054646D01*
X175442545Y-102012313D02*
X175442545Y-101963932D01*
X175400212Y-101994170D02*
X175509069Y-101994170D01*
X175521164Y-101988122D01*
X175527212Y-101976027D01*
X175527212Y-101963932D01*
X175521164Y-101873218D02*
X175527212Y-101885313D01*
X175527212Y-101909503D01*
X175521164Y-101921599D01*
X175509069Y-101927646D01*
X175460688Y-101927646D01*
X175448593Y-101921599D01*
X175442545Y-101909503D01*
X175442545Y-101885313D01*
X175448593Y-101873218D01*
X175460688Y-101867170D01*
X175472783Y-101867170D01*
X175484879Y-101927646D01*
X175527212Y-101758313D02*
X175400212Y-101758313D01*
X175521164Y-101758313D02*
X175527212Y-101770408D01*
X175527212Y-101794599D01*
X175521164Y-101806694D01*
X175515117Y-101812741D01*
X175503021Y-101818789D01*
X175466736Y-101818789D01*
X175454640Y-101812741D01*
X175448593Y-101806694D01*
X175442545Y-101794599D01*
X175442545Y-101770408D01*
X175448593Y-101758313D01*
X175527212Y-101601075D02*
X175400212Y-101601075D01*
X175400212Y-101570837D01*
X175406260Y-101552694D01*
X175418355Y-101540599D01*
X175430450Y-101534551D01*
X175454640Y-101528503D01*
X175472783Y-101528503D01*
X175496974Y-101534551D01*
X175509069Y-101540599D01*
X175521164Y-101552694D01*
X175527212Y-101570837D01*
X175527212Y-101601075D01*
X175521164Y-101425694D02*
X175527212Y-101437789D01*
X175527212Y-101461980D01*
X175521164Y-101474075D01*
X175509069Y-101480122D01*
X175460688Y-101480122D01*
X175448593Y-101474075D01*
X175442545Y-101461980D01*
X175442545Y-101437789D01*
X175448593Y-101425694D01*
X175460688Y-101419646D01*
X175472783Y-101419646D01*
X175484879Y-101480122D01*
X175521164Y-101371265D02*
X175527212Y-101359170D01*
X175527212Y-101334980D01*
X175521164Y-101322884D01*
X175509069Y-101316837D01*
X175503021Y-101316837D01*
X175490926Y-101322884D01*
X175484879Y-101334980D01*
X175484879Y-101353122D01*
X175478831Y-101365218D01*
X175466736Y-101371265D01*
X175460688Y-101371265D01*
X175448593Y-101365218D01*
X175442545Y-101353122D01*
X175442545Y-101334980D01*
X175448593Y-101322884D01*
X175527212Y-101262408D02*
X175442545Y-101262408D01*
X175400212Y-101262408D02*
X175406260Y-101268456D01*
X175412307Y-101262408D01*
X175406260Y-101256360D01*
X175400212Y-101262408D01*
X175412307Y-101262408D01*
X175442545Y-101147503D02*
X175545355Y-101147503D01*
X175557450Y-101153551D01*
X175563498Y-101159599D01*
X175569545Y-101171694D01*
X175569545Y-101189837D01*
X175563498Y-101201932D01*
X175521164Y-101147503D02*
X175527212Y-101159599D01*
X175527212Y-101183789D01*
X175521164Y-101195884D01*
X175515117Y-101201932D01*
X175503021Y-101207980D01*
X175466736Y-101207980D01*
X175454640Y-101201932D01*
X175448593Y-101195884D01*
X175442545Y-101183789D01*
X175442545Y-101159599D01*
X175448593Y-101147503D01*
X175442545Y-101087027D02*
X175527212Y-101087027D01*
X175454640Y-101087027D02*
X175448593Y-101080980D01*
X175442545Y-101068884D01*
X175442545Y-101050741D01*
X175448593Y-101038646D01*
X175460688Y-101032599D01*
X175527212Y-101032599D01*
X175521164Y-100978170D02*
X175527212Y-100966075D01*
X175527212Y-100941884D01*
X175521164Y-100929789D01*
X175509069Y-100923741D01*
X175503021Y-100923741D01*
X175490926Y-100929789D01*
X175484879Y-100941884D01*
X175484879Y-100960027D01*
X175478831Y-100972122D01*
X175466736Y-100978170D01*
X175460688Y-100978170D01*
X175448593Y-100972122D01*
X175442545Y-100960027D01*
X175442545Y-100941884D01*
X175448593Y-100929789D01*
X175515117Y-100869313D02*
X175521164Y-100863265D01*
X175527212Y-100869313D01*
X175521164Y-100875360D01*
X175515117Y-100869313D01*
X175527212Y-100869313D01*
X175490926Y-100718122D02*
X175490926Y-100657646D01*
X175527212Y-100730218D02*
X175400212Y-100687884D01*
X175527212Y-100645551D01*
X175527212Y-100585075D02*
X175521164Y-100597170D01*
X175509069Y-100603218D01*
X175400212Y-100603218D01*
X175527212Y-100518551D02*
X175521164Y-100530646D01*
X175509069Y-100536694D01*
X175400212Y-100536694D01*
X175527212Y-100373408D02*
X175442545Y-100373408D01*
X175466736Y-100373408D02*
X175454640Y-100367360D01*
X175448593Y-100361313D01*
X175442545Y-100349218D01*
X175442545Y-100337122D01*
X175527212Y-100294789D02*
X175442545Y-100294789D01*
X175400212Y-100294789D02*
X175406260Y-100300837D01*
X175412307Y-100294789D01*
X175406260Y-100288741D01*
X175400212Y-100294789D01*
X175412307Y-100294789D01*
X175442545Y-100179884D02*
X175545355Y-100179884D01*
X175557450Y-100185932D01*
X175563498Y-100191980D01*
X175569545Y-100204075D01*
X175569545Y-100222218D01*
X175563498Y-100234313D01*
X175521164Y-100179884D02*
X175527212Y-100191980D01*
X175527212Y-100216170D01*
X175521164Y-100228265D01*
X175515117Y-100234313D01*
X175503021Y-100240360D01*
X175466736Y-100240360D01*
X175454640Y-100234313D01*
X175448593Y-100228265D01*
X175442545Y-100216170D01*
X175442545Y-100191980D01*
X175448593Y-100179884D01*
X175527212Y-100119408D02*
X175400212Y-100119408D01*
X175527212Y-100064980D02*
X175460688Y-100064980D01*
X175448593Y-100071027D01*
X175442545Y-100083122D01*
X175442545Y-100101265D01*
X175448593Y-100113360D01*
X175454640Y-100119408D01*
X175442545Y-100022646D02*
X175442545Y-99974265D01*
X175400212Y-100004503D02*
X175509069Y-100004503D01*
X175521164Y-99998456D01*
X175527212Y-99986360D01*
X175527212Y-99974265D01*
X175521164Y-99937980D02*
X175527212Y-99925884D01*
X175527212Y-99901694D01*
X175521164Y-99889599D01*
X175509069Y-99883551D01*
X175503021Y-99883551D01*
X175490926Y-99889599D01*
X175484879Y-99901694D01*
X175484879Y-99919837D01*
X175478831Y-99931932D01*
X175466736Y-99937980D01*
X175460688Y-99937980D01*
X175448593Y-99931932D01*
X175442545Y-99919837D01*
X175442545Y-99901694D01*
X175448593Y-99889599D01*
X175527212Y-99732360D02*
X175442545Y-99732360D01*
X175466736Y-99732360D02*
X175454640Y-99726313D01*
X175448593Y-99720265D01*
X175442545Y-99708170D01*
X175442545Y-99696075D01*
X175521164Y-99605360D02*
X175527212Y-99617456D01*
X175527212Y-99641646D01*
X175521164Y-99653741D01*
X175509069Y-99659789D01*
X175460688Y-99659789D01*
X175448593Y-99653741D01*
X175442545Y-99641646D01*
X175442545Y-99617456D01*
X175448593Y-99605360D01*
X175460688Y-99599313D01*
X175472783Y-99599313D01*
X175484879Y-99659789D01*
X175521164Y-99550932D02*
X175527212Y-99538837D01*
X175527212Y-99514646D01*
X175521164Y-99502551D01*
X175509069Y-99496503D01*
X175503021Y-99496503D01*
X175490926Y-99502551D01*
X175484879Y-99514646D01*
X175484879Y-99532789D01*
X175478831Y-99544884D01*
X175466736Y-99550932D01*
X175460688Y-99550932D01*
X175448593Y-99544884D01*
X175442545Y-99532789D01*
X175442545Y-99514646D01*
X175448593Y-99502551D01*
X175521164Y-99393694D02*
X175527212Y-99405789D01*
X175527212Y-99429980D01*
X175521164Y-99442075D01*
X175509069Y-99448122D01*
X175460688Y-99448122D01*
X175448593Y-99442075D01*
X175442545Y-99429980D01*
X175442545Y-99405789D01*
X175448593Y-99393694D01*
X175460688Y-99387646D01*
X175472783Y-99387646D01*
X175484879Y-99448122D01*
X175527212Y-99333218D02*
X175442545Y-99333218D01*
X175466736Y-99333218D02*
X175454640Y-99327170D01*
X175448593Y-99321122D01*
X175442545Y-99309027D01*
X175442545Y-99296932D01*
X175442545Y-99266694D02*
X175527212Y-99236456D01*
X175442545Y-99206218D01*
X175521164Y-99109456D02*
X175527212Y-99121551D01*
X175527212Y-99145741D01*
X175521164Y-99157837D01*
X175509069Y-99163884D01*
X175460688Y-99163884D01*
X175448593Y-99157837D01*
X175442545Y-99145741D01*
X175442545Y-99121551D01*
X175448593Y-99109456D01*
X175460688Y-99103408D01*
X175472783Y-99103408D01*
X175484879Y-99163884D01*
X175527212Y-98994551D02*
X175400212Y-98994551D01*
X175521164Y-98994551D02*
X175527212Y-99006646D01*
X175527212Y-99030837D01*
X175521164Y-99042932D01*
X175515117Y-99048980D01*
X175503021Y-99055027D01*
X175466736Y-99055027D01*
X175454640Y-99048980D01*
X175448593Y-99042932D01*
X175442545Y-99030837D01*
X175442545Y-99006646D01*
X175448593Y-98994551D01*
X175515117Y-98934075D02*
X175521164Y-98928027D01*
X175527212Y-98934075D01*
X175521164Y-98940122D01*
X175515117Y-98934075D01*
X175527212Y-98934075D01*
D11*
%TO.C,REF\u002A\u002A*%
X211827600Y-117118600D02*
G75*
G03*
X211827600Y-117118600I-3700000J0D01*
G01*
X85127600Y-66318600D02*
G75*
G03*
X85127600Y-66318600I-3700000J0D01*
G01*
X211827600Y-66318600D02*
G75*
G03*
X211827600Y-66318600I-3700000J0D01*
G01*
X84827600Y-117118600D02*
G75*
G03*
X84827600Y-117118600I-3700000J0D01*
G01*
%TD*%
M02*
