0
SECTION
2
ENTITIES
0
LINE
8
0
10
0.000000
20
0.000000
30
0
11
2337.834646
21
0.000000
31
0
0
LINE
8
0
10
0.000000
20
0.000000
30
0
11
0.000000
21
-2812.992126
31
0
0
LINE
8
0
10
2337.834646
20
0.000000
30
0
11
2337.834646
21
-2812.992126
31
0
0
LINE
8
0
10
0.000000
20
-2812.992126
30
0
11
2337.834646
21
-2812.992126
31
0
0
LINE
8
1
10
573.622047
20
-1692.803150
30
0
11
657.086614
21
-1692.803150
31
0
0
LINE
8
1
10
573.622047
20
-1692.803150
30
0
11
573.622047
21
-1697.527559
31
0
0
LINE
8
1
10
657.086614
20
-1692.803150
30
0
11
657.086614
21
-1697.527559
31
0
0
LINE
8
1
10
573.622047
20
-1697.527559
30
0
11
657.086614
21
-1697.527559
31
0
0
LINE
8
1
10
573.622047
20
-1692.803150
30
0
11
578.346457
21
-1692.803150
31
0
0
LINE
8
1
10
573.622047
20
-1692.803150
30
0
11
573.622047
21
-1746.740157
31
0
0
LINE
8
1
10
578.346457
20
-1692.803150
30
0
11
578.346457
21
-1746.740157
31
0
0
LINE
8
1
10
573.622047
20
-1746.740157
30
0
11
578.346457
21
-1746.740157
31
0
0
LINE
8
1
10
588.976378
20
-1708.157480
30
0
11
593.700787
21
-1708.157480
31
0
0
LINE
8
1
10
588.976378
20
-1708.157480
30
0
11
588.976378
21
-2006.976378
31
0
0
LINE
8
1
10
593.700787
20
-1708.157480
30
0
11
593.700787
21
-2006.976378
31
0
0
LINE
8
1
10
588.976378
20
-2006.976378
30
0
11
593.700787
21
-2006.976378
31
0
0
LINE
8
1
10
588.976378
20
-2002.251969
30
0
11
1070.866142
21
-2002.251969
31
0
0
LINE
8
1
10
588.976378
20
-2002.251969
30
0
11
588.976378
21
-2006.976378
31
0
0
LINE
8
1
10
1070.866142
20
-2002.251969
30
0
11
1070.866142
21
-2006.976378
31
0
0
LINE
8
1
10
588.976378
20
-2006.976378
30
0
11
1070.866142
21
-2006.976378
31
0
0
LINE
8
1
10
630.708661
20
-1745.952756
30
0
11
753.543307
21
-1745.952756
31
0
0
LINE
8
1
10
630.708661
20
-1745.952756
30
0
11
630.708661
21
-1750.677165
31
0
0
LINE
8
1
10
753.543307
20
-1745.952756
30
0
11
753.543307
21
-1750.677165
31
0
0
LINE
8
1
10
630.708661
20
-1750.677165
30
0
11
753.543307
21
-1750.677165
31
0
0
LINE
8
1
10
630.708661
20
-1799.102362
30
0
11
664.960630
21
-1799.102362
31
0
0
LINE
8
1
10
630.708661
20
-1799.102362
30
0
11
630.708661
21
-1803.826772
31
0
0
LINE
8
1
10
664.960630
20
-1799.102362
30
0
11
664.960630
21
-1803.826772
31
0
0
LINE
8
1
10
630.708661
20
-1803.826772
30
0
11
664.960630
21
-1803.826772
31
0
0
LINE
8
1
10
630.708661
20
-1799.102362
30
0
11
635.433071
21
-1799.102362
31
0
0
LINE
8
1
10
630.708661
20
-1799.102362
30
0
11
630.708661
21
-1973.118110
31
0
0
LINE
8
1
10
635.433071
20
-1799.102362
30
0
11
635.433071
21
-1973.118110
31
0
0
LINE
8
1
10
630.708661
20
-1973.118110
30
0
11
635.433071
21
-1973.118110
31
0
0
LINE
8
1
10
630.708661
20
-1745.952756
30
0
11
645.275591
21
-1745.952756
31
0
0
LINE
8
1
10
630.708661
20
-1745.952756
30
0
11
630.708661
21
-1790.047244
31
0
0
LINE
8
1
10
645.275591
20
-1745.952756
30
0
11
645.275591
21
-1790.047244
31
0
0
LINE
8
1
10
630.708661
20
-1790.047244
30
0
11
645.275591
21
-1790.047244
31
0
0
LINE
8
1
10
640.551181
20
-1785.322835
30
0
11
664.960630
21
-1785.322835
31
0
0
LINE
8
1
10
640.551181
20
-1785.322835
30
0
11
640.551181
21
-1790.047244
31
0
0
LINE
8
1
10
664.960630
20
-1785.322835
30
0
11
664.960630
21
-1790.047244
31
0
0
LINE
8
1
10
640.551181
20
-1790.047244
30
0
11
664.960630
21
-1790.047244
31
0
0
LINE
8
1
10
660.236220
20
-1785.322835
30
0
11
664.960630
21
-1785.322835
31
0
0
LINE
8
1
10
660.236220
20
-1785.322835
30
0
11
660.236220
21
-1803.826772
31
0
0
LINE
8
1
10
664.960630
20
-1785.322835
30
0
11
664.960630
21
-1803.826772
31
0
0
LINE
8
1
10
660.236220
20
-1803.826772
30
0
11
664.960630
21
-1803.826772
31
0
0
LINE
8
1
10
630.708661
20
-1968.393701
30
0
11
664.960630
21
-1968.393701
31
0
0
LINE
8
1
10
630.708661
20
-1968.393701
30
0
11
630.708661
21
-1973.118110
31
0
0
LINE
8
1
10
664.960630
20
-1968.393701
30
0
11
664.960630
21
-1973.118110
31
0
0
LINE
8
1
10
630.708661
20
-1973.118110
30
0
11
664.960630
21
-1973.118110
31
0
0
LINE
8
1
10
719.291339
20
-1785.322835
30
0
11
724.015748
21
-1785.322835
31
0
0
LINE
8
1
10
719.291339
20
-1785.322835
30
0
11
719.291339
21
-1803.826772
31
0
0
LINE
8
1
10
724.015748
20
-1785.322835
30
0
11
724.015748
21
-1803.826772
31
0
0
LINE
8
1
10
719.291339
20
-1803.826772
30
0
11
724.015748
21
-1803.826772
31
0
0
LINE
8
1
10
719.291339
20
-1799.102362
30
0
11
753.543307
21
-1799.102362
31
0
0
LINE
8
1
10
719.291339
20
-1799.102362
30
0
11
719.291339
21
-1803.826772
31
0
0
LINE
8
1
10
753.543307
20
-1799.102362
30
0
11
753.543307
21
-1803.826772
31
0
0
LINE
8
1
10
719.291339
20
-1803.826772
30
0
11
753.543307
21
-1803.826772
31
0
0
LINE
8
1
10
719.291339
20
-1785.322835
30
0
11
743.700787
21
-1785.322835
31
0
0
LINE
8
1
10
719.291339
20
-1785.322835
30
0
11
719.291339
21
-1790.047244
31
0
0
LINE
8
1
10
743.700787
20
-1785.322835
30
0
11
743.700787
21
-1790.047244
31
0
0
LINE
8
1
10
719.291339
20
-1790.047244
30
0
11
743.700787
21
-1790.047244
31
0
0
LINE
8
1
10
738.976378
20
-1745.952756
30
0
11
753.543307
21
-1745.952756
31
0
0
LINE
8
1
10
738.976378
20
-1745.952756
30
0
11
738.976378
21
-1790.047244
31
0
0
LINE
8
1
10
753.543307
20
-1745.952756
30
0
11
753.543307
21
-1790.047244
31
0
0
LINE
8
1
10
738.976378
20
-1790.047244
30
0
11
753.543307
21
-1790.047244
31
0
0
LINE
8
1
10
748.818898
20
-1799.102362
30
0
11
753.543307
21
-1799.102362
31
0
0
LINE
8
1
10
748.818898
20
-1799.102362
30
0
11
748.818898
21
-1973.118110
31
0
0
LINE
8
1
10
753.543307
20
-1799.102362
30
0
11
753.543307
21
-1973.118110
31
0
0
LINE
8
1
10
748.818898
20
-1973.118110
30
0
11
753.543307
21
-1973.118110
31
0
0
LINE
8
1
10
719.291339
20
-1968.393701
30
0
11
753.543307
21
-1968.393701
31
0
0
LINE
8
1
10
719.291339
20
-1968.393701
30
0
11
719.291339
21
-1973.118110
31
0
0
LINE
8
1
10
753.543307
20
-1968.393701
30
0
11
753.543307
21
-1973.118110
31
0
0
LINE
8
1
10
719.291339
20
-1973.118110
30
0
11
753.543307
21
-1973.118110
31
0
0
LINE
8
1
10
768.503937
20
-1745.952756
30
0
11
891.338583
21
-1745.952756
31
0
0
LINE
8
1
10
768.503937
20
-1745.952756
30
0
11
768.503937
21
-1750.677165
31
0
0
LINE
8
1
10
891.338583
20
-1745.952756
30
0
11
891.338583
21
-1750.677165
31
0
0
LINE
8
1
10
768.503937
20
-1750.677165
30
0
11
891.338583
21
-1750.677165
31
0
0
LINE
8
1
10
768.503937
20
-1799.102362
30
0
11
802.755906
21
-1799.102362
31
0
0
LINE
8
1
10
768.503937
20
-1799.102362
30
0
11
768.503937
21
-1803.826772
31
0
0
LINE
8
1
10
802.755906
20
-1799.102362
30
0
11
802.755906
21
-1803.826772
31
0
0
LINE
8
1
10
768.503937
20
-1803.826772
30
0
11
802.755906
21
-1803.826772
31
0
0
LINE
8
1
10
768.503937
20
-1799.102362
30
0
11
773.228346
21
-1799.102362
31
0
0
LINE
8
1
10
768.503937
20
-1799.102362
30
0
11
768.503937
21
-1973.118110
31
0
0
LINE
8
1
10
773.228346
20
-1799.102362
30
0
11
773.228346
21
-1973.118110
31
0
0
LINE
8
1
10
768.503937
20
-1973.118110
30
0
11
773.228346
21
-1973.118110
31
0
0
LINE
8
1
10
768.503937
20
-1745.952756
30
0
11
783.070866
21
-1745.952756
31
0
0
LINE
8
1
10
768.503937
20
-1745.952756
30
0
11
768.503937
21
-1790.047244
31
0
0
LINE
8
1
10
783.070866
20
-1745.952756
30
0
11
783.070866
21
-1790.047244
31
0
0
LINE
8
1
10
768.503937
20
-1790.047244
30
0
11
783.070866
21
-1790.047244
31
0
0
LINE
8
1
10
778.346457
20
-1785.322835
30
0
11
802.755906
21
-1785.322835
31
0
0
LINE
8
1
10
778.346457
20
-1785.322835
30
0
11
778.346457
21
-1790.047244
31
0
0
LINE
8
1
10
802.755906
20
-1785.322835
30
0
11
802.755906
21
-1790.047244
31
0
0
LINE
8
1
10
778.346457
20
-1790.047244
30
0
11
802.755906
21
-1790.047244
31
0
0
LINE
8
1
10
798.031496
20
-1785.322835
30
0
11
802.755906
21
-1785.322835
31
0
0
LINE
8
1
10
798.031496
20
-1785.322835
30
0
11
798.031496
21
-1803.826772
31
0
0
LINE
8
1
10
802.755906
20
-1785.322835
30
0
11
802.755906
21
-1803.826772
31
0
0
LINE
8
1
10
798.031496
20
-1803.826772
30
0
11
802.755906
21
-1803.826772
31
0
0
LINE
8
1
10
768.503937
20
-1968.393701
30
0
11
802.755906
21
-1968.393701
31
0
0
LINE
8
1
10
768.503937
20
-1968.393701
30
0
11
768.503937
21
-1973.118110
31
0
0
LINE
8
1
10
802.755906
20
-1968.393701
30
0
11
802.755906
21
-1973.118110
31
0
0
LINE
8
1
10
768.503937
20
-1973.118110
30
0
11
802.755906
21
-1973.118110
31
0
0
LINE
8
1
10
857.086614
20
-1785.322835
30
0
11
861.811024
21
-1785.322835
31
0
0
LINE
8
1
10
857.086614
20
-1785.322835
30
0
11
857.086614
21
-1803.826772
31
0
0
LINE
8
1
10
861.811024
20
-1785.322835
30
0
11
861.811024
21
-1803.826772
31
0
0
LINE
8
1
10
857.086614
20
-1803.826772
30
0
11
861.811024
21
-1803.826772
31
0
0
LINE
8
1
10
857.086614
20
-1799.102362
30
0
11
891.338583
21
-1799.102362
31
0
0
LINE
8
1
10
857.086614
20
-1799.102362
30
0
11
857.086614
21
-1803.826772
31
0
0
LINE
8
1
10
891.338583
20
-1799.102362
30
0
11
891.338583
21
-1803.826772
31
0
0
LINE
8
1
10
857.086614
20
-1803.826772
30
0
11
891.338583
21
-1803.826772
31
0
0
LINE
8
1
10
857.086614
20
-1785.322835
30
0
11
881.496063
21
-1785.322835
31
0
0
LINE
8
1
10
857.086614
20
-1785.322835
30
0
11
857.086614
21
-1790.047244
31
0
0
LINE
8
1
10
881.496063
20
-1785.322835
30
0
11
881.496063
21
-1790.047244
31
0
0
LINE
8
1
10
857.086614
20
-1790.047244
30
0
11
881.496063
21
-1790.047244
31
0
0
LINE
8
1
10
876.771654
20
-1745.952756
30
0
11
891.338583
21
-1745.952756
31
0
0
LINE
8
1
10
876.771654
20
-1745.952756
30
0
11
876.771654
21
-1790.047244
31
0
0
LINE
8
1
10
891.338583
20
-1745.952756
30
0
11
891.338583
21
-1790.047244
31
0
0
LINE
8
1
10
876.771654
20
-1790.047244
30
0
11
891.338583
21
-1790.047244
31
0
0
LINE
8
1
10
886.614173
20
-1799.102362
30
0
11
891.338583
21
-1799.102362
31
0
0
LINE
8
1
10
886.614173
20
-1799.102362
30
0
11
886.614173
21
-1973.118110
31
0
0
LINE
8
1
10
891.338583
20
-1799.102362
30
0
11
891.338583
21
-1973.118110
31
0
0
LINE
8
1
10
886.614173
20
-1973.118110
30
0
11
891.338583
21
-1973.118110
31
0
0
LINE
8
1
10
857.086614
20
-1968.393701
30
0
11
891.338583
21
-1968.393701
31
0
0
LINE
8
1
10
857.086614
20
-1968.393701
30
0
11
857.086614
21
-1973.118110
31
0
0
LINE
8
1
10
891.338583
20
-1968.393701
30
0
11
891.338583
21
-1973.118110
31
0
0
LINE
8
1
10
857.086614
20
-1973.118110
30
0
11
891.338583
21
-1973.118110
31
0
0
LINE
8
1
10
906.299213
20
-1745.952756
30
0
11
1029.133858
21
-1745.952756
31
0
0
LINE
8
1
10
906.299213
20
-1745.952756
30
0
11
906.299213
21
-1750.677165
31
0
0
LINE
8
1
10
1029.133858
20
-1745.952756
30
0
11
1029.133858
21
-1750.677165
31
0
0
LINE
8
1
10
906.299213
20
-1750.677165
30
0
11
1029.133858
21
-1750.677165
31
0
0
LINE
8
1
10
906.299213
20
-1799.102362
30
0
11
940.551181
21
-1799.102362
31
0
0
LINE
8
1
10
906.299213
20
-1799.102362
30
0
11
906.299213
21
-1803.826772
31
0
0
LINE
8
1
10
940.551181
20
-1799.102362
30
0
11
940.551181
21
-1803.826772
31
0
0
LINE
8
1
10
906.299213
20
-1803.826772
30
0
11
940.551181
21
-1803.826772
31
0
0
LINE
8
1
10
906.299213
20
-1799.102362
30
0
11
911.023622
21
-1799.102362
31
0
0
LINE
8
1
10
906.299213
20
-1799.102362
30
0
11
906.299213
21
-1973.118110
31
0
0
LINE
8
1
10
911.023622
20
-1799.102362
30
0
11
911.023622
21
-1973.118110
31
0
0
LINE
8
1
10
906.299213
20
-1973.118110
30
0
11
911.023622
21
-1973.118110
31
0
0
LINE
8
1
10
906.299213
20
-1745.952756
30
0
11
920.866142
21
-1745.952756
31
0
0
LINE
8
1
10
906.299213
20
-1745.952756
30
0
11
906.299213
21
-1790.047244
31
0
0
LINE
8
1
10
920.866142
20
-1745.952756
30
0
11
920.866142
21
-1790.047244
31
0
0
LINE
8
1
10
906.299213
20
-1790.047244
30
0
11
920.866142
21
-1790.047244
31
0
0
LINE
8
1
10
916.141732
20
-1785.322835
30
0
11
940.551181
21
-1785.322835
31
0
0
LINE
8
1
10
916.141732
20
-1785.322835
30
0
11
916.141732
21
-1790.047244
31
0
0
LINE
8
1
10
940.551181
20
-1785.322835
30
0
11
940.551181
21
-1790.047244
31
0
0
LINE
8
1
10
916.141732
20
-1790.047244
30
0
11
940.551181
21
-1790.047244
31
0
0
LINE
8
1
10
935.826772
20
-1785.322835
30
0
11
940.551181
21
-1785.322835
31
0
0
LINE
8
1
10
935.826772
20
-1785.322835
30
0
11
935.826772
21
-1803.826772
31
0
0
LINE
8
1
10
940.551181
20
-1785.322835
30
0
11
940.551181
21
-1803.826772
31
0
0
LINE
8
1
10
935.826772
20
-1803.826772
30
0
11
940.551181
21
-1803.826772
31
0
0
LINE
8
1
10
906.299213
20
-1968.393701
30
0
11
940.551181
21
-1968.393701
31
0
0
LINE
8
1
10
906.299213
20
-1968.393701
30
0
11
906.299213
21
-1973.118110
31
0
0
LINE
8
1
10
940.551181
20
-1968.393701
30
0
11
940.551181
21
-1973.118110
31
0
0
LINE
8
1
10
906.299213
20
-1973.118110
30
0
11
940.551181
21
-1973.118110
31
0
0
LINE
8
1
10
994.881890
20
-1785.322835
30
0
11
999.606299
21
-1785.322835
31
0
0
LINE
8
1
10
994.881890
20
-1785.322835
30
0
11
994.881890
21
-1803.826772
31
0
0
LINE
8
1
10
999.606299
20
-1785.322835
30
0
11
999.606299
21
-1803.826772
31
0
0
LINE
8
1
10
994.881890
20
-1803.826772
30
0
11
999.606299
21
-1803.826772
31
0
0
LINE
8
1
10
994.881890
20
-1799.102362
30
0
11
1029.133858
21
-1799.102362
31
0
0
LINE
8
1
10
994.881890
20
-1799.102362
30
0
11
994.881890
21
-1803.826772
31
0
0
LINE
8
1
10
1029.133858
20
-1799.102362
30
0
11
1029.133858
21
-1803.826772
31
0
0
LINE
8
1
10
994.881890
20
-1803.826772
30
0
11
1029.133858
21
-1803.826772
31
0
0
LINE
8
1
10
994.881890
20
-1785.322835
30
0
11
1019.291339
21
-1785.322835
31
0
0
LINE
8
1
10
994.881890
20
-1785.322835
30
0
11
994.881890
21
-1790.047244
31
0
0
LINE
8
1
10
1019.291339
20
-1785.322835
30
0
11
1019.291339
21
-1790.047244
31
0
0
LINE
8
1
10
994.881890
20
-1790.047244
30
0
11
1019.291339
21
-1790.047244
31
0
0
LINE
8
1
10
1014.566929
20
-1745.952756
30
0
11
1029.133858
21
-1745.952756
31
0
0
LINE
8
1
10
1014.566929
20
-1745.952756
30
0
11
1014.566929
21
-1790.047244
31
0
0
LINE
8
1
10
1029.133858
20
-1745.952756
30
0
11
1029.133858
21
-1790.047244
31
0
0
LINE
8
1
10
1014.566929
20
-1790.047244
30
0
11
1029.133858
21
-1790.047244
31
0
0
LINE
8
1
10
1024.409449
20
-1799.102362
30
0
11
1029.133858
21
-1799.102362
31
0
0
LINE
8
1
10
1024.409449
20
-1799.102362
30
0
11
1024.409449
21
-1973.118110
31
0
0
LINE
8
1
10
1029.133858
20
-1799.102362
30
0
11
1029.133858
21
-1973.118110
31
0
0
LINE
8
1
10
1024.409449
20
-1973.118110
30
0
11
1029.133858
21
-1973.118110
31
0
0
LINE
8
1
10
994.881890
20
-1968.393701
30
0
11
1029.133858
21
-1968.393701
31
0
0
LINE
8
1
10
994.881890
20
-1968.393701
30
0
11
994.881890
21
-1973.118110
31
0
0
LINE
8
1
10
1029.133858
20
-1968.393701
30
0
11
1029.133858
21
-1973.118110
31
0
0
LINE
8
1
10
994.881890
20
-1973.118110
30
0
11
1029.133858
21
-1973.118110
31
0
0
LINE
8
1
10
588.976378
20
-1708.157480
30
0
11
1070.866142
21
-1708.157480
31
0
0
LINE
8
1
10
588.976378
20
-1708.157480
30
0
11
588.976378
21
-1712.881890
31
0
0
LINE
8
1
10
1070.866142
20
-1708.157480
30
0
11
1070.866142
21
-1712.881890
31
0
0
LINE
8
1
10
588.976378
20
-1712.881890
30
0
11
1070.866142
21
-1712.881890
31
0
0
LINE
8
1
10
1066.141732
20
-1708.157480
30
0
11
1070.866142
21
-1708.157480
31
0
0
LINE
8
1
10
1066.141732
20
-1708.157480
30
0
11
1066.141732
21
-2006.976378
31
0
0
LINE
8
1
10
1070.866142
20
-1708.157480
30
0
11
1070.866142
21
-2006.976378
31
0
0
LINE
8
1
10
1066.141732
20
-2006.976378
30
0
11
1070.866142
21
-2006.976378
31
0
0
LINE
8
1
10
660.236220
20
-1962.169685
30
0
11
724.001850
21
-1962.169685
31
0
0
LINE
8
1
10
660.236220
20
-1962.169685
30
0
11
660.236220
21
-1973.118110
31
0
0
LINE
8
1
10
724.001850
20
-1962.169685
30
0
11
724.001850
21
-1973.118110
31
0
0
LINE
8
1
10
660.236220
20
-1973.118110
30
0
11
724.001850
21
-1973.118110
31
0
0
LINE
8
1
10
798.031496
20
-1962.169685
30
0
11
861.797126
21
-1962.169685
31
0
0
LINE
8
1
10
798.031496
20
-1962.169685
30
0
11
798.031496
21
-1973.118110
31
0
0
LINE
8
1
10
861.797126
20
-1962.169685
30
0
11
861.797126
21
-1973.118110
31
0
0
LINE
8
1
10
798.031496
20
-1973.118110
30
0
11
861.797126
21
-1973.118110
31
0
0
LINE
8
1
10
935.826772
20
-1962.169685
30
0
11
999.592402
21
-1962.169685
31
0
0
LINE
8
1
10
935.826772
20
-1962.169685
30
0
11
935.826772
21
-1973.118110
31
0
0
LINE
8
1
10
999.592402
20
-1962.169685
30
0
11
999.592402
21
-1973.118110
31
0
0
LINE
8
1
10
935.826772
20
-1973.118110
30
0
11
999.592402
21
-1973.118110
31
0
0
LINE
8
1
10
1164.173228
20
-1692.803150
30
0
11
1247.637795
21
-1692.803150
31
0
0
LINE
8
1
10
1164.173228
20
-1692.803150
30
0
11
1164.173228
21
-1697.527559
31
0
0
LINE
8
1
10
1247.637795
20
-1692.803150
30
0
11
1247.637795
21
-1697.527559
31
0
0
LINE
8
1
10
1164.173228
20
-1697.527559
30
0
11
1247.637795
21
-1697.527559
31
0
0
LINE
8
1
10
1164.173228
20
-1692.803150
30
0
11
1168.897638
21
-1692.803150
31
0
0
LINE
8
1
10
1164.173228
20
-1692.803150
30
0
11
1164.173228
21
-1746.740157
31
0
0
LINE
8
1
10
1168.897638
20
-1692.803150
30
0
11
1168.897638
21
-1746.740157
31
0
0
LINE
8
1
10
1164.173228
20
-1746.740157
30
0
11
1168.897638
21
-1746.740157
31
0
0
LINE
8
1
10
1179.527559
20
-1708.157480
30
0
11
1184.251969
21
-1708.157480
31
0
0
LINE
8
1
10
1179.527559
20
-1708.157480
30
0
11
1179.527559
21
-2006.976378
31
0
0
LINE
8
1
10
1184.251969
20
-1708.157480
30
0
11
1184.251969
21
-2006.976378
31
0
0
LINE
8
1
10
1179.527559
20
-2006.976378
30
0
11
1184.251969
21
-2006.976378
31
0
0
LINE
8
1
10
1179.527559
20
-2002.251969
30
0
11
1661.417323
21
-2002.251969
31
0
0
LINE
8
1
10
1179.527559
20
-2002.251969
30
0
11
1179.527559
21
-2006.976378
31
0
0
LINE
8
1
10
1661.417323
20
-2002.251969
30
0
11
1661.417323
21
-2006.976378
31
0
0
LINE
8
1
10
1179.527559
20
-2006.976378
30
0
11
1661.417323
21
-2006.976378
31
0
0
LINE
8
1
10
1221.259843
20
-1745.952756
30
0
11
1344.094488
21
-1745.952756
31
0
0
LINE
8
1
10
1221.259843
20
-1745.952756
30
0
11
1221.259843
21
-1750.677165
31
0
0
LINE
8
1
10
1344.094488
20
-1745.952756
30
0
11
1344.094488
21
-1750.677165
31
0
0
LINE
8
1
10
1221.259843
20
-1750.677165
30
0
11
1344.094488
21
-1750.677165
31
0
0
LINE
8
1
10
1221.259843
20
-1799.102362
30
0
11
1255.511811
21
-1799.102362
31
0
0
LINE
8
1
10
1221.259843
20
-1799.102362
30
0
11
1221.259843
21
-1803.826772
31
0
0
LINE
8
1
10
1255.511811
20
-1799.102362
30
0
11
1255.511811
21
-1803.826772
31
0
0
LINE
8
1
10
1221.259843
20
-1803.826772
30
0
11
1255.511811
21
-1803.826772
31
0
0
LINE
8
1
10
1221.259843
20
-1799.102362
30
0
11
1225.984252
21
-1799.102362
31
0
0
LINE
8
1
10
1221.259843
20
-1799.102362
30
0
11
1221.259843
21
-1973.118110
31
0
0
LINE
8
1
10
1225.984252
20
-1799.102362
30
0
11
1225.984252
21
-1973.118110
31
0
0
LINE
8
1
10
1221.259843
20
-1973.118110
30
0
11
1225.984252
21
-1973.118110
31
0
0
LINE
8
1
10
1221.259843
20
-1745.952756
30
0
11
1235.826772
21
-1745.952756
31
0
0
LINE
8
1
10
1221.259843
20
-1745.952756
30
0
11
1221.259843
21
-1790.047244
31
0
0
LINE
8
1
10
1235.826772
20
-1745.952756
30
0
11
1235.826772
21
-1790.047244
31
0
0
LINE
8
1
10
1221.259843
20
-1790.047244
30
0
11
1235.826772
21
-1790.047244
31
0
0
LINE
8
1
10
1231.102362
20
-1785.322835
30
0
11
1255.511811
21
-1785.322835
31
0
0
LINE
8
1
10
1231.102362
20
-1785.322835
30
0
11
1231.102362
21
-1790.047244
31
0
0
LINE
8
1
10
1255.511811
20
-1785.322835
30
0
11
1255.511811
21
-1790.047244
31
0
0
LINE
8
1
10
1231.102362
20
-1790.047244
30
0
11
1255.511811
21
-1790.047244
31
0
0
LINE
8
1
10
1250.787402
20
-1785.322835
30
0
11
1255.511811
21
-1785.322835
31
0
0
LINE
8
1
10
1250.787402
20
-1785.322835
30
0
11
1250.787402
21
-1803.826772
31
0
0
LINE
8
1
10
1255.511811
20
-1785.322835
30
0
11
1255.511811
21
-1803.826772
31
0
0
LINE
8
1
10
1250.787402
20
-1803.826772
30
0
11
1255.511811
21
-1803.826772
31
0
0
LINE
8
1
10
1221.259843
20
-1968.393701
30
0
11
1255.511811
21
-1968.393701
31
0
0
LINE
8
1
10
1221.259843
20
-1968.393701
30
0
11
1221.259843
21
-1973.118110
31
0
0
LINE
8
1
10
1255.511811
20
-1968.393701
30
0
11
1255.511811
21
-1973.118110
31
0
0
LINE
8
1
10
1221.259843
20
-1973.118110
30
0
11
1255.511811
21
-1973.118110
31
0
0
LINE
8
1
10
1309.842520
20
-1785.322835
30
0
11
1314.566929
21
-1785.322835
31
0
0
LINE
8
1
10
1309.842520
20
-1785.322835
30
0
11
1309.842520
21
-1803.826772
31
0
0
LINE
8
1
10
1314.566929
20
-1785.322835
30
0
11
1314.566929
21
-1803.826772
31
0
0
LINE
8
1
10
1309.842520
20
-1803.826772
30
0
11
1314.566929
21
-1803.826772
31
0
0
LINE
8
1
10
1309.842520
20
-1799.102362
30
0
11
1344.094488
21
-1799.102362
31
0
0
LINE
8
1
10
1309.842520
20
-1799.102362
30
0
11
1309.842520
21
-1803.826772
31
0
0
LINE
8
1
10
1344.094488
20
-1799.102362
30
0
11
1344.094488
21
-1803.826772
31
0
0
LINE
8
1
10
1309.842520
20
-1803.826772
30
0
11
1344.094488
21
-1803.826772
31
0
0
LINE
8
1
10
1309.842520
20
-1785.322835
30
0
11
1334.251969
21
-1785.322835
31
0
0
LINE
8
1
10
1309.842520
20
-1785.322835
30
0
11
1309.842520
21
-1790.047244
31
0
0
LINE
8
1
10
1334.251969
20
-1785.322835
30
0
11
1334.251969
21
-1790.047244
31
0
0
LINE
8
1
10
1309.842520
20
-1790.047244
30
0
11
1334.251969
21
-1790.047244
31
0
0
LINE
8
1
10
1329.527559
20
-1745.952756
30
0
11
1344.094488
21
-1745.952756
31
0
0
LINE
8
1
10
1329.527559
20
-1745.952756
30
0
11
1329.527559
21
-1790.047244
31
0
0
LINE
8
1
10
1344.094488
20
-1745.952756
30
0
11
1344.094488
21
-1790.047244
31
0
0
LINE
8
1
10
1329.527559
20
-1790.047244
30
0
11
1344.094488
21
-1790.047244
31
0
0
LINE
8
1
10
1339.370079
20
-1799.102362
30
0
11
1344.094488
21
-1799.102362
31
0
0
LINE
8
1
10
1339.370079
20
-1799.102362
30
0
11
1339.370079
21
-1973.118110
31
0
0
LINE
8
1
10
1344.094488
20
-1799.102362
30
0
11
1344.094488
21
-1973.118110
31
0
0
LINE
8
1
10
1339.370079
20
-1973.118110
30
0
11
1344.094488
21
-1973.118110
31
0
0
LINE
8
1
10
1309.842520
20
-1968.393701
30
0
11
1344.094488
21
-1968.393701
31
0
0
LINE
8
1
10
1309.842520
20
-1968.393701
30
0
11
1309.842520
21
-1973.118110
31
0
0
LINE
8
1
10
1344.094488
20
-1968.393701
30
0
11
1344.094488
21
-1973.118110
31
0
0
LINE
8
1
10
1309.842520
20
-1973.118110
30
0
11
1344.094488
21
-1973.118110
31
0
0
LINE
8
1
10
1359.055118
20
-1745.952756
30
0
11
1481.889764
21
-1745.952756
31
0
0
LINE
8
1
10
1359.055118
20
-1745.952756
30
0
11
1359.055118
21
-1750.677165
31
0
0
LINE
8
1
10
1481.889764
20
-1745.952756
30
0
11
1481.889764
21
-1750.677165
31
0
0
LINE
8
1
10
1359.055118
20
-1750.677165
30
0
11
1481.889764
21
-1750.677165
31
0
0
LINE
8
1
10
1359.055118
20
-1799.102362
30
0
11
1393.307087
21
-1799.102362
31
0
0
LINE
8
1
10
1359.055118
20
-1799.102362
30
0
11
1359.055118
21
-1803.826772
31
0
0
LINE
8
1
10
1393.307087
20
-1799.102362
30
0
11
1393.307087
21
-1803.826772
31
0
0
LINE
8
1
10
1359.055118
20
-1803.826772
30
0
11
1393.307087
21
-1803.826772
31
0
0
LINE
8
1
10
1359.055118
20
-1799.102362
30
0
11
1363.779528
21
-1799.102362
31
0
0
LINE
8
1
10
1359.055118
20
-1799.102362
30
0
11
1359.055118
21
-1973.118110
31
0
0
LINE
8
1
10
1363.779528
20
-1799.102362
30
0
11
1363.779528
21
-1973.118110
31
0
0
LINE
8
1
10
1359.055118
20
-1973.118110
30
0
11
1363.779528
21
-1973.118110
31
0
0
LINE
8
1
10
1359.055118
20
-1745.952756
30
0
11
1373.622047
21
-1745.952756
31
0
0
LINE
8
1
10
1359.055118
20
-1745.952756
30
0
11
1359.055118
21
-1790.047244
31
0
0
LINE
8
1
10
1373.622047
20
-1745.952756
30
0
11
1373.622047
21
-1790.047244
31
0
0
LINE
8
1
10
1359.055118
20
-1790.047244
30
0
11
1373.622047
21
-1790.047244
31
0
0
LINE
8
1
10
1368.897638
20
-1785.322835
30
0
11
1393.307087
21
-1785.322835
31
0
0
LINE
8
1
10
1368.897638
20
-1785.322835
30
0
11
1368.897638
21
-1790.047244
31
0
0
LINE
8
1
10
1393.307087
20
-1785.322835
30
0
11
1393.307087
21
-1790.047244
31
0
0
LINE
8
1
10
1368.897638
20
-1790.047244
30
0
11
1393.307087
21
-1790.047244
31
0
0
LINE
8
1
10
1388.582677
20
-1785.322835
30
0
11
1393.307087
21
-1785.322835
31
0
0
LINE
8
1
10
1388.582677
20
-1785.322835
30
0
11
1388.582677
21
-1803.826772
31
0
0
LINE
8
1
10
1393.307087
20
-1785.322835
30
0
11
1393.307087
21
-1803.826772
31
0
0
LINE
8
1
10
1388.582677
20
-1803.826772
30
0
11
1393.307087
21
-1803.826772
31
0
0
LINE
8
1
10
1359.055118
20
-1968.393701
30
0
11
1393.307087
21
-1968.393701
31
0
0
LINE
8
1
10
1359.055118
20
-1968.393701
30
0
11
1359.055118
21
-1973.118110
31
0
0
LINE
8
1
10
1393.307087
20
-1968.393701
30
0
11
1393.307087
21
-1973.118110
31
0
0
LINE
8
1
10
1359.055118
20
-1973.118110
30
0
11
1393.307087
21
-1973.118110
31
0
0
LINE
8
1
10
1447.637795
20
-1785.322835
30
0
11
1452.362205
21
-1785.322835
31
0
0
LINE
8
1
10
1447.637795
20
-1785.322835
30
0
11
1447.637795
21
-1803.826772
31
0
0
LINE
8
1
10
1452.362205
20
-1785.322835
30
0
11
1452.362205
21
-1803.826772
31
0
0
LINE
8
1
10
1447.637795
20
-1803.826772
30
0
11
1452.362205
21
-1803.826772
31
0
0
LINE
8
1
10
1447.637795
20
-1799.102362
30
0
11
1481.889764
21
-1799.102362
31
0
0
LINE
8
1
10
1447.637795
20
-1799.102362
30
0
11
1447.637795
21
-1803.826772
31
0
0
LINE
8
1
10
1481.889764
20
-1799.102362
30
0
11
1481.889764
21
-1803.826772
31
0
0
LINE
8
1
10
1447.637795
20
-1803.826772
30
0
11
1481.889764
21
-1803.826772
31
0
0
LINE
8
1
10
1447.637795
20
-1785.322835
30
0
11
1472.047244
21
-1785.322835
31
0
0
LINE
8
1
10
1447.637795
20
-1785.322835
30
0
11
1447.637795
21
-1790.047244
31
0
0
LINE
8
1
10
1472.047244
20
-1785.322835
30
0
11
1472.047244
21
-1790.047244
31
0
0
LINE
8
1
10
1447.637795
20
-1790.047244
30
0
11
1472.047244
21
-1790.047244
31
0
0
LINE
8
1
10
1467.322835
20
-1745.952756
30
0
11
1481.889764
21
-1745.952756
31
0
0
LINE
8
1
10
1467.322835
20
-1745.952756
30
0
11
1467.322835
21
-1790.047244
31
0
0
LINE
8
1
10
1481.889764
20
-1745.952756
30
0
11
1481.889764
21
-1790.047244
31
0
0
LINE
8
1
10
1467.322835
20
-1790.047244
30
0
11
1481.889764
21
-1790.047244
31
0
0
LINE
8
1
10
1477.165354
20
-1799.102362
30
0
11
1481.889764
21
-1799.102362
31
0
0
LINE
8
1
10
1477.165354
20
-1799.102362
30
0
11
1477.165354
21
-1973.118110
31
0
0
LINE
8
1
10
1481.889764
20
-1799.102362
30
0
11
1481.889764
21
-1973.118110
31
0
0
LINE
8
1
10
1477.165354
20
-1973.118110
30
0
11
1481.889764
21
-1973.118110
31
0
0
LINE
8
1
10
1447.637795
20
-1968.393701
30
0
11
1481.889764
21
-1968.393701
31
0
0
LINE
8
1
10
1447.637795
20
-1968.393701
30
0
11
1447.637795
21
-1973.118110
31
0
0
LINE
8
1
10
1481.889764
20
-1968.393701
30
0
11
1481.889764
21
-1973.118110
31
0
0
LINE
8
1
10
1447.637795
20
-1973.118110
30
0
11
1481.889764
21
-1973.118110
31
0
0
LINE
8
1
10
1496.850394
20
-1745.952756
30
0
11
1619.685039
21
-1745.952756
31
0
0
LINE
8
1
10
1496.850394
20
-1745.952756
30
0
11
1496.850394
21
-1750.677165
31
0
0
LINE
8
1
10
1619.685039
20
-1745.952756
30
0
11
1619.685039
21
-1750.677165
31
0
0
LINE
8
1
10
1496.850394
20
-1750.677165
30
0
11
1619.685039
21
-1750.677165
31
0
0
LINE
8
1
10
1496.850394
20
-1799.102362
30
0
11
1531.102362
21
-1799.102362
31
0
0
LINE
8
1
10
1496.850394
20
-1799.102362
30
0
11
1496.850394
21
-1803.826772
31
0
0
LINE
8
1
10
1531.102362
20
-1799.102362
30
0
11
1531.102362
21
-1803.826772
31
0
0
LINE
8
1
10
1496.850394
20
-1803.826772
30
0
11
1531.102362
21
-1803.826772
31
0
0
LINE
8
1
10
1496.850394
20
-1799.102362
30
0
11
1501.574803
21
-1799.102362
31
0
0
LINE
8
1
10
1496.850394
20
-1799.102362
30
0
11
1496.850394
21
-1973.118110
31
0
0
LINE
8
1
10
1501.574803
20
-1799.102362
30
0
11
1501.574803
21
-1973.118110
31
0
0
LINE
8
1
10
1496.850394
20
-1973.118110
30
0
11
1501.574803
21
-1973.118110
31
0
0
LINE
8
1
10
1496.850394
20
-1745.952756
30
0
11
1511.417323
21
-1745.952756
31
0
0
LINE
8
1
10
1496.850394
20
-1745.952756
30
0
11
1496.850394
21
-1790.047244
31
0
0
LINE
8
1
10
1511.417323
20
-1745.952756
30
0
11
1511.417323
21
-1790.047244
31
0
0
LINE
8
1
10
1496.850394
20
-1790.047244
30
0
11
1511.417323
21
-1790.047244
31
0
0
LINE
8
1
10
1506.692913
20
-1785.322835
30
0
11
1531.102362
21
-1785.322835
31
0
0
LINE
8
1
10
1506.692913
20
-1785.322835
30
0
11
1506.692913
21
-1790.047244
31
0
0
LINE
8
1
10
1531.102362
20
-1785.322835
30
0
11
1531.102362
21
-1790.047244
31
0
0
LINE
8
1
10
1506.692913
20
-1790.047244
30
0
11
1531.102362
21
-1790.047244
31
0
0
LINE
8
1
10
1526.377953
20
-1785.322835
30
0
11
1531.102362
21
-1785.322835
31
0
0
LINE
8
1
10
1526.377953
20
-1785.322835
30
0
11
1526.377953
21
-1803.826772
31
0
0
LINE
8
1
10
1531.102362
20
-1785.322835
30
0
11
1531.102362
21
-1803.826772
31
0
0
LINE
8
1
10
1526.377953
20
-1803.826772
30
0
11
1531.102362
21
-1803.826772
31
0
0
LINE
8
1
10
1496.850394
20
-1968.393701
30
0
11
1531.102362
21
-1968.393701
31
0
0
LINE
8
1
10
1496.850394
20
-1968.393701
30
0
11
1496.850394
21
-1973.118110
31
0
0
LINE
8
1
10
1531.102362
20
-1968.393701
30
0
11
1531.102362
21
-1973.118110
31
0
0
LINE
8
1
10
1496.850394
20
-1973.118110
30
0
11
1531.102362
21
-1973.118110
31
0
0
LINE
8
1
10
1585.433071
20
-1785.322835
30
0
11
1590.157480
21
-1785.322835
31
0
0
LINE
8
1
10
1585.433071
20
-1785.322835
30
0
11
1585.433071
21
-1803.826772
31
0
0
LINE
8
1
10
1590.157480
20
-1785.322835
30
0
11
1590.157480
21
-1803.826772
31
0
0
LINE
8
1
10
1585.433071
20
-1803.826772
30
0
11
1590.157480
21
-1803.826772
31
0
0
LINE
8
1
10
1585.433071
20
-1799.102362
30
0
11
1619.685039
21
-1799.102362
31
0
0
LINE
8
1
10
1585.433071
20
-1799.102362
30
0
11
1585.433071
21
-1803.826772
31
0
0
LINE
8
1
10
1619.685039
20
-1799.102362
30
0
11
1619.685039
21
-1803.826772
31
0
0
LINE
8
1
10
1585.433071
20
-1803.826772
30
0
11
1619.685039
21
-1803.826772
31
0
0
LINE
8
1
10
1585.433071
20
-1785.322835
30
0
11
1609.842520
21
-1785.322835
31
0
0
LINE
8
1
10
1585.433071
20
-1785.322835
30
0
11
1585.433071
21
-1790.047244
31
0
0
LINE
8
1
10
1609.842520
20
-1785.322835
30
0
11
1609.842520
21
-1790.047244
31
0
0
LINE
8
1
10
1585.433071
20
-1790.047244
30
0
11
1609.842520
21
-1790.047244
31
0
0
LINE
8
1
10
1605.118110
20
-1745.952756
30
0
11
1619.685039
21
-1745.952756
31
0
0
LINE
8
1
10
1605.118110
20
-1745.952756
30
0
11
1605.118110
21
-1790.047244
31
0
0
LINE
8
1
10
1619.685039
20
-1745.952756
30
0
11
1619.685039
21
-1790.047244
31
0
0
LINE
8
1
10
1605.118110
20
-1790.047244
30
0
11
1619.685039
21
-1790.047244
31
0
0
LINE
8
1
10
1614.960630
20
-1799.102362
30
0
11
1619.685039
21
-1799.102362
31
0
0
LINE
8
1
10
1614.960630
20
-1799.102362
30
0
11
1614.960630
21
-1973.118110
31
0
0
LINE
8
1
10
1619.685039
20
-1799.102362
30
0
11
1619.685039
21
-1973.118110
31
0
0
LINE
8
1
10
1614.960630
20
-1973.118110
30
0
11
1619.685039
21
-1973.118110
31
0
0
LINE
8
1
10
1585.433071
20
-1968.393701
30
0
11
1619.685039
21
-1968.393701
31
0
0
LINE
8
1
10
1585.433071
20
-1968.393701
30
0
11
1585.433071
21
-1973.118110
31
0
0
LINE
8
1
10
1619.685039
20
-1968.393701
30
0
11
1619.685039
21
-1973.118110
31
0
0
LINE
8
1
10
1585.433071
20
-1973.118110
30
0
11
1619.685039
21
-1973.118110
31
0
0
LINE
8
1
10
1179.527559
20
-1708.157480
30
0
11
1661.417323
21
-1708.157480
31
0
0
LINE
8
1
10
1179.527559
20
-1708.157480
30
0
11
1179.527559
21
-1712.881890
31
0
0
LINE
8
1
10
1661.417323
20
-1708.157480
30
0
11
1661.417323
21
-1712.881890
31
0
0
LINE
8
1
10
1179.527559
20
-1712.881890
30
0
11
1661.417323
21
-1712.881890
31
0
0
LINE
8
1
10
1656.692913
20
-1708.157480
30
0
11
1661.417323
21
-1708.157480
31
0
0
LINE
8
1
10
1656.692913
20
-1708.157480
30
0
11
1656.692913
21
-2006.976378
31
0
0
LINE
8
1
10
1661.417323
20
-1708.157480
30
0
11
1661.417323
21
-2006.976378
31
0
0
LINE
8
1
10
1656.692913
20
-2006.976378
30
0
11
1661.417323
21
-2006.976378
31
0
0
LINE
8
1
10
1250.787402
20
-1962.169685
30
0
11
1314.553031
21
-1962.169685
31
0
0
LINE
8
1
10
1250.787402
20
-1962.169685
30
0
11
1250.787402
21
-1973.118110
31
0
0
LINE
8
1
10
1314.553031
20
-1962.169685
30
0
11
1314.553031
21
-1973.118110
31
0
0
LINE
8
1
10
1250.787402
20
-1973.118110
30
0
11
1314.553031
21
-1973.118110
31
0
0
LINE
8
1
10
1388.582677
20
-1962.169685
30
0
11
1452.348307
21
-1962.169685
31
0
0
LINE
8
1
10
1388.582677
20
-1962.169685
30
0
11
1388.582677
21
-1973.118110
31
0
0
LINE
8
1
10
1452.348307
20
-1962.169685
30
0
11
1452.348307
21
-1973.118110
31
0
0
LINE
8
1
10
1388.582677
20
-1973.118110
30
0
11
1452.348307
21
-1973.118110
31
0
0
LINE
8
1
10
1526.377953
20
-1962.169685
30
0
11
1590.143583
21
-1962.169685
31
0
0
LINE
8
1
10
1526.377953
20
-1962.169685
30
0
11
1526.377953
21
-1973.118110
31
0
0
LINE
8
1
10
1590.143583
20
-1962.169685
30
0
11
1590.143583
21
-1973.118110
31
0
0
LINE
8
1
10
1526.377953
20
-1973.118110
30
0
11
1590.143583
21
-1973.118110
31
0
0
LINE
8
1
10
1164.173228
20
-1180.992126
30
0
11
1247.637795
21
-1180.992126
31
0
0
LINE
8
1
10
1164.173228
20
-1180.992126
30
0
11
1164.173228
21
-1185.716535
31
0
0
LINE
8
1
10
1247.637795
20
-1180.992126
30
0
11
1247.637795
21
-1185.716535
31
0
0
LINE
8
1
10
1164.173228
20
-1185.716535
30
0
11
1247.637795
21
-1185.716535
31
0
0
LINE
8
1
10
1164.173228
20
-1180.992126
30
0
11
1168.897638
21
-1180.992126
31
0
0
LINE
8
1
10
1164.173228
20
-1180.992126
30
0
11
1164.173228
21
-1234.929134
31
0
0
LINE
8
1
10
1168.897638
20
-1180.992126
30
0
11
1168.897638
21
-1234.929134
31
0
0
LINE
8
1
10
1164.173228
20
-1234.929134
30
0
11
1168.897638
21
-1234.929134
31
0
0
LINE
8
1
10
1179.527559
20
-1196.346457
30
0
11
1184.251969
21
-1196.346457
31
0
0
LINE
8
1
10
1179.527559
20
-1196.346457
30
0
11
1179.527559
21
-1495.165354
31
0
0
LINE
8
1
10
1184.251969
20
-1196.346457
30
0
11
1184.251969
21
-1495.165354
31
0
0
LINE
8
1
10
1179.527559
20
-1495.165354
30
0
11
1184.251969
21
-1495.165354
31
0
0
LINE
8
1
10
1179.527559
20
-1490.440945
30
0
11
1661.417323
21
-1490.440945
31
0
0
LINE
8
1
10
1179.527559
20
-1490.440945
30
0
11
1179.527559
21
-1495.165354
31
0
0
LINE
8
1
10
1661.417323
20
-1490.440945
30
0
11
1661.417323
21
-1495.165354
31
0
0
LINE
8
1
10
1179.527559
20
-1495.165354
30
0
11
1661.417323
21
-1495.165354
31
0
0
LINE
8
1
10
1221.259843
20
-1234.141732
30
0
11
1344.094488
21
-1234.141732
31
0
0
LINE
8
1
10
1221.259843
20
-1234.141732
30
0
11
1221.259843
21
-1238.866142
31
0
0
LINE
8
1
10
1344.094488
20
-1234.141732
30
0
11
1344.094488
21
-1238.866142
31
0
0
LINE
8
1
10
1221.259843
20
-1238.866142
30
0
11
1344.094488
21
-1238.866142
31
0
0
LINE
8
1
10
1221.259843
20
-1287.291339
30
0
11
1255.511811
21
-1287.291339
31
0
0
LINE
8
1
10
1221.259843
20
-1287.291339
30
0
11
1221.259843
21
-1292.015748
31
0
0
LINE
8
1
10
1255.511811
20
-1287.291339
30
0
11
1255.511811
21
-1292.015748
31
0
0
LINE
8
1
10
1221.259843
20
-1292.015748
30
0
11
1255.511811
21
-1292.015748
31
0
0
LINE
8
1
10
1221.259843
20
-1287.291339
30
0
11
1225.984252
21
-1287.291339
31
0
0
LINE
8
1
10
1221.259843
20
-1287.291339
30
0
11
1221.259843
21
-1461.307087
31
0
0
LINE
8
1
10
1225.984252
20
-1287.291339
30
0
11
1225.984252
21
-1461.307087
31
0
0
LINE
8
1
10
1221.259843
20
-1461.307087
30
0
11
1225.984252
21
-1461.307087
31
0
0
LINE
8
1
10
1221.259843
20
-1234.141732
30
0
11
1235.826772
21
-1234.141732
31
0
0
LINE
8
1
10
1221.259843
20
-1234.141732
30
0
11
1221.259843
21
-1278.236220
31
0
0
LINE
8
1
10
1235.826772
20
-1234.141732
30
0
11
1235.826772
21
-1278.236220
31
0
0
LINE
8
1
10
1221.259843
20
-1278.236220
30
0
11
1235.826772
21
-1278.236220
31
0
0
LINE
8
1
10
1231.102362
20
-1273.511811
30
0
11
1255.511811
21
-1273.511811
31
0
0
LINE
8
1
10
1231.102362
20
-1273.511811
30
0
11
1231.102362
21
-1278.236220
31
0
0
LINE
8
1
10
1255.511811
20
-1273.511811
30
0
11
1255.511811
21
-1278.236220
31
0
0
LINE
8
1
10
1231.102362
20
-1278.236220
30
0
11
1255.511811
21
-1278.236220
31
0
0
LINE
8
1
10
1250.787402
20
-1273.511811
30
0
11
1255.511811
21
-1273.511811
31
0
0
LINE
8
1
10
1250.787402
20
-1273.511811
30
0
11
1250.787402
21
-1292.015748
31
0
0
LINE
8
1
10
1255.511811
20
-1273.511811
30
0
11
1255.511811
21
-1292.015748
31
0
0
LINE
8
1
10
1250.787402
20
-1292.015748
30
0
11
1255.511811
21
-1292.015748
31
0
0
LINE
8
1
10
1221.259843
20
-1456.582677
30
0
11
1255.511811
21
-1456.582677
31
0
0
LINE
8
1
10
1221.259843
20
-1456.582677
30
0
11
1221.259843
21
-1461.307087
31
0
0
LINE
8
1
10
1255.511811
20
-1456.582677
30
0
11
1255.511811
21
-1461.307087
31
0
0
LINE
8
1
10
1221.259843
20
-1461.307087
30
0
11
1255.511811
21
-1461.307087
31
0
0
LINE
8
1
10
1309.842520
20
-1273.511811
30
0
11
1314.566929
21
-1273.511811
31
0
0
LINE
8
1
10
1309.842520
20
-1273.511811
30
0
11
1309.842520
21
-1292.015748
31
0
0
LINE
8
1
10
1314.566929
20
-1273.511811
30
0
11
1314.566929
21
-1292.015748
31
0
0
LINE
8
1
10
1309.842520
20
-1292.015748
30
0
11
1314.566929
21
-1292.015748
31
0
0
LINE
8
1
10
1309.842520
20
-1287.291339
30
0
11
1344.094488
21
-1287.291339
31
0
0
LINE
8
1
10
1309.842520
20
-1287.291339
30
0
11
1309.842520
21
-1292.015748
31
0
0
LINE
8
1
10
1344.094488
20
-1287.291339
30
0
11
1344.094488
21
-1292.015748
31
0
0
LINE
8
1
10
1309.842520
20
-1292.015748
30
0
11
1344.094488
21
-1292.015748
31
0
0
LINE
8
1
10
1309.842520
20
-1273.511811
30
0
11
1334.251969
21
-1273.511811
31
0
0
LINE
8
1
10
1309.842520
20
-1273.511811
30
0
11
1309.842520
21
-1278.236220
31
0
0
LINE
8
1
10
1334.251969
20
-1273.511811
30
0
11
1334.251969
21
-1278.236220
31
0
0
LINE
8
1
10
1309.842520
20
-1278.236220
30
0
11
1334.251969
21
-1278.236220
31
0
0
LINE
8
1
10
1329.527559
20
-1234.141732
30
0
11
1344.094488
21
-1234.141732
31
0
0
LINE
8
1
10
1329.527559
20
-1234.141732
30
0
11
1329.527559
21
-1278.236220
31
0
0
LINE
8
1
10
1344.094488
20
-1234.141732
30
0
11
1344.094488
21
-1278.236220
31
0
0
LINE
8
1
10
1329.527559
20
-1278.236220
30
0
11
1344.094488
21
-1278.236220
31
0
0
LINE
8
1
10
1339.370079
20
-1287.291339
30
0
11
1344.094488
21
-1287.291339
31
0
0
LINE
8
1
10
1339.370079
20
-1287.291339
30
0
11
1339.370079
21
-1461.307087
31
0
0
LINE
8
1
10
1344.094488
20
-1287.291339
30
0
11
1344.094488
21
-1461.307087
31
0
0
LINE
8
1
10
1339.370079
20
-1461.307087
30
0
11
1344.094488
21
-1461.307087
31
0
0
LINE
8
1
10
1309.842520
20
-1456.582677
30
0
11
1344.094488
21
-1456.582677
31
0
0
LINE
8
1
10
1309.842520
20
-1456.582677
30
0
11
1309.842520
21
-1461.307087
31
0
0
LINE
8
1
10
1344.094488
20
-1456.582677
30
0
11
1344.094488
21
-1461.307087
31
0
0
LINE
8
1
10
1309.842520
20
-1461.307087
30
0
11
1344.094488
21
-1461.307087
31
0
0
LINE
8
1
10
1359.055118
20
-1234.141732
30
0
11
1481.889764
21
-1234.141732
31
0
0
LINE
8
1
10
1359.055118
20
-1234.141732
30
0
11
1359.055118
21
-1238.866142
31
0
0
LINE
8
1
10
1481.889764
20
-1234.141732
30
0
11
1481.889764
21
-1238.866142
31
0
0
LINE
8
1
10
1359.055118
20
-1238.866142
30
0
11
1481.889764
21
-1238.866142
31
0
0
LINE
8
1
10
1359.055118
20
-1287.291339
30
0
11
1393.307087
21
-1287.291339
31
0
0
LINE
8
1
10
1359.055118
20
-1287.291339
30
0
11
1359.055118
21
-1292.015748
31
0
0
LINE
8
1
10
1393.307087
20
-1287.291339
30
0
11
1393.307087
21
-1292.015748
31
0
0
LINE
8
1
10
1359.055118
20
-1292.015748
30
0
11
1393.307087
21
-1292.015748
31
0
0
LINE
8
1
10
1359.055118
20
-1287.291339
30
0
11
1363.779528
21
-1287.291339
31
0
0
LINE
8
1
10
1359.055118
20
-1287.291339
30
0
11
1359.055118
21
-1461.307087
31
0
0
LINE
8
1
10
1363.779528
20
-1287.291339
30
0
11
1363.779528
21
-1461.307087
31
0
0
LINE
8
1
10
1359.055118
20
-1461.307087
30
0
11
1363.779528
21
-1461.307087
31
0
0
LINE
8
1
10
1359.055118
20
-1234.141732
30
0
11
1373.622047
21
-1234.141732
31
0
0
LINE
8
1
10
1359.055118
20
-1234.141732
30
0
11
1359.055118
21
-1278.236220
31
0
0
LINE
8
1
10
1373.622047
20
-1234.141732
30
0
11
1373.622047
21
-1278.236220
31
0
0
LINE
8
1
10
1359.055118
20
-1278.236220
30
0
11
1373.622047
21
-1278.236220
31
0
0
LINE
8
1
10
1368.897638
20
-1273.511811
30
0
11
1393.307087
21
-1273.511811
31
0
0
LINE
8
1
10
1368.897638
20
-1273.511811
30
0
11
1368.897638
21
-1278.236220
31
0
0
LINE
8
1
10
1393.307087
20
-1273.511811
30
0
11
1393.307087
21
-1278.236220
31
0
0
LINE
8
1
10
1368.897638
20
-1278.236220
30
0
11
1393.307087
21
-1278.236220
31
0
0
LINE
8
1
10
1388.582677
20
-1273.511811
30
0
11
1393.307087
21
-1273.511811
31
0
0
LINE
8
1
10
1388.582677
20
-1273.511811
30
0
11
1388.582677
21
-1292.015748
31
0
0
LINE
8
1
10
1393.307087
20
-1273.511811
30
0
11
1393.307087
21
-1292.015748
31
0
0
LINE
8
1
10
1388.582677
20
-1292.015748
30
0
11
1393.307087
21
-1292.015748
31
0
0
LINE
8
1
10
1359.055118
20
-1456.582677
30
0
11
1393.307087
21
-1456.582677
31
0
0
LINE
8
1
10
1359.055118
20
-1456.582677
30
0
11
1359.055118
21
-1461.307087
31
0
0
LINE
8
1
10
1393.307087
20
-1456.582677
30
0
11
1393.307087
21
-1461.307087
31
0
0
LINE
8
1
10
1359.055118
20
-1461.307087
30
0
11
1393.307087
21
-1461.307087
31
0
0
LINE
8
1
10
1447.637795
20
-1273.511811
30
0
11
1452.362205
21
-1273.511811
31
0
0
LINE
8
1
10
1447.637795
20
-1273.511811
30
0
11
1447.637795
21
-1292.015748
31
0
0
LINE
8
1
10
1452.362205
20
-1273.511811
30
0
11
1452.362205
21
-1292.015748
31
0
0
LINE
8
1
10
1447.637795
20
-1292.015748
30
0
11
1452.362205
21
-1292.015748
31
0
0
LINE
8
1
10
1447.637795
20
-1287.291339
30
0
11
1481.889764
21
-1287.291339
31
0
0
LINE
8
1
10
1447.637795
20
-1287.291339
30
0
11
1447.637795
21
-1292.015748
31
0
0
LINE
8
1
10
1481.889764
20
-1287.291339
30
0
11
1481.889764
21
-1292.015748
31
0
0
LINE
8
1
10
1447.637795
20
-1292.015748
30
0
11
1481.889764
21
-1292.015748
31
0
0
LINE
8
1
10
1447.637795
20
-1273.511811
30
0
11
1472.047244
21
-1273.511811
31
0
0
LINE
8
1
10
1447.637795
20
-1273.511811
30
0
11
1447.637795
21
-1278.236220
31
0
0
LINE
8
1
10
1472.047244
20
-1273.511811
30
0
11
1472.047244
21
-1278.236220
31
0
0
LINE
8
1
10
1447.637795
20
-1278.236220
30
0
11
1472.047244
21
-1278.236220
31
0
0
LINE
8
1
10
1467.322835
20
-1234.141732
30
0
11
1481.889764
21
-1234.141732
31
0
0
LINE
8
1
10
1467.322835
20
-1234.141732
30
0
11
1467.322835
21
-1278.236220
31
0
0
LINE
8
1
10
1481.889764
20
-1234.141732
30
0
11
1481.889764
21
-1278.236220
31
0
0
LINE
8
1
10
1467.322835
20
-1278.236220
30
0
11
1481.889764
21
-1278.236220
31
0
0
LINE
8
1
10
1477.165354
20
-1287.291339
30
0
11
1481.889764
21
-1287.291339
31
0
0
LINE
8
1
10
1477.165354
20
-1287.291339
30
0
11
1477.165354
21
-1461.307087
31
0
0
LINE
8
1
10
1481.889764
20
-1287.291339
30
0
11
1481.889764
21
-1461.307087
31
0
0
LINE
8
1
10
1477.165354
20
-1461.307087
30
0
11
1481.889764
21
-1461.307087
31
0
0
LINE
8
1
10
1447.637795
20
-1456.582677
30
0
11
1481.889764
21
-1456.582677
31
0
0
LINE
8
1
10
1447.637795
20
-1456.582677
30
0
11
1447.637795
21
-1461.307087
31
0
0
LINE
8
1
10
1481.889764
20
-1456.582677
30
0
11
1481.889764
21
-1461.307087
31
0
0
LINE
8
1
10
1447.637795
20
-1461.307087
30
0
11
1481.889764
21
-1461.307087
31
0
0
LINE
8
1
10
1496.850394
20
-1234.141732
30
0
11
1619.685039
21
-1234.141732
31
0
0
LINE
8
1
10
1496.850394
20
-1234.141732
30
0
11
1496.850394
21
-1238.866142
31
0
0
LINE
8
1
10
1619.685039
20
-1234.141732
30
0
11
1619.685039
21
-1238.866142
31
0
0
LINE
8
1
10
1496.850394
20
-1238.866142
30
0
11
1619.685039
21
-1238.866142
31
0
0
LINE
8
1
10
1496.850394
20
-1287.291339
30
0
11
1531.102362
21
-1287.291339
31
0
0
LINE
8
1
10
1496.850394
20
-1287.291339
30
0
11
1496.850394
21
-1292.015748
31
0
0
LINE
8
1
10
1531.102362
20
-1287.291339
30
0
11
1531.102362
21
-1292.015748
31
0
0
LINE
8
1
10
1496.850394
20
-1292.015748
30
0
11
1531.102362
21
-1292.015748
31
0
0
LINE
8
1
10
1496.850394
20
-1287.291339
30
0
11
1501.574803
21
-1287.291339
31
0
0
LINE
8
1
10
1496.850394
20
-1287.291339
30
0
11
1496.850394
21
-1461.307087
31
0
0
LINE
8
1
10
1501.574803
20
-1287.291339
30
0
11
1501.574803
21
-1461.307087
31
0
0
LINE
8
1
10
1496.850394
20
-1461.307087
30
0
11
1501.574803
21
-1461.307087
31
0
0
LINE
8
1
10
1496.850394
20
-1234.141732
30
0
11
1511.417323
21
-1234.141732
31
0
0
LINE
8
1
10
1496.850394
20
-1234.141732
30
0
11
1496.850394
21
-1278.236220
31
0
0
LINE
8
1
10
1511.417323
20
-1234.141732
30
0
11
1511.417323
21
-1278.236220
31
0
0
LINE
8
1
10
1496.850394
20
-1278.236220
30
0
11
1511.417323
21
-1278.236220
31
0
0
LINE
8
1
10
1506.692913
20
-1273.511811
30
0
11
1531.102362
21
-1273.511811
31
0
0
LINE
8
1
10
1506.692913
20
-1273.511811
30
0
11
1506.692913
21
-1278.236220
31
0
0
LINE
8
1
10
1531.102362
20
-1273.511811
30
0
11
1531.102362
21
-1278.236220
31
0
0
LINE
8
1
10
1506.692913
20
-1278.236220
30
0
11
1531.102362
21
-1278.236220
31
0
0
LINE
8
1
10
1526.377953
20
-1273.511811
30
0
11
1531.102362
21
-1273.511811
31
0
0
LINE
8
1
10
1526.377953
20
-1273.511811
30
0
11
1526.377953
21
-1292.015748
31
0
0
LINE
8
1
10
1531.102362
20
-1273.511811
30
0
11
1531.102362
21
-1292.015748
31
0
0
LINE
8
1
10
1526.377953
20
-1292.015748
30
0
11
1531.102362
21
-1292.015748
31
0
0
LINE
8
1
10
1496.850394
20
-1456.582677
30
0
11
1531.102362
21
-1456.582677
31
0
0
LINE
8
1
10
1496.850394
20
-1456.582677
30
0
11
1496.850394
21
-1461.307087
31
0
0
LINE
8
1
10
1531.102362
20
-1456.582677
30
0
11
1531.102362
21
-1461.307087
31
0
0
LINE
8
1
10
1496.850394
20
-1461.307087
30
0
11
1531.102362
21
-1461.307087
31
0
0
LINE
8
1
10
1585.433071
20
-1273.511811
30
0
11
1590.157480
21
-1273.511811
31
0
0
LINE
8
1
10
1585.433071
20
-1273.511811
30
0
11
1585.433071
21
-1292.015748
31
0
0
LINE
8
1
10
1590.157480
20
-1273.511811
30
0
11
1590.157480
21
-1292.015748
31
0
0
LINE
8
1
10
1585.433071
20
-1292.015748
30
0
11
1590.157480
21
-1292.015748
31
0
0
LINE
8
1
10
1585.433071
20
-1287.291339
30
0
11
1619.685039
21
-1287.291339
31
0
0
LINE
8
1
10
1585.433071
20
-1287.291339
30
0
11
1585.433071
21
-1292.015748
31
0
0
LINE
8
1
10
1619.685039
20
-1287.291339
30
0
11
1619.685039
21
-1292.015748
31
0
0
LINE
8
1
10
1585.433071
20
-1292.015748
30
0
11
1619.685039
21
-1292.015748
31
0
0
LINE
8
1
10
1585.433071
20
-1273.511811
30
0
11
1609.842520
21
-1273.511811
31
0
0
LINE
8
1
10
1585.433071
20
-1273.511811
30
0
11
1585.433071
21
-1278.236220
31
0
0
LINE
8
1
10
1609.842520
20
-1273.511811
30
0
11
1609.842520
21
-1278.236220
31
0
0
LINE
8
1
10
1585.433071
20
-1278.236220
30
0
11
1609.842520
21
-1278.236220
31
0
0
LINE
8
1
10
1605.118110
20
-1234.141732
30
0
11
1619.685039
21
-1234.141732
31
0
0
LINE
8
1
10
1605.118110
20
-1234.141732
30
0
11
1605.118110
21
-1278.236220
31
0
0
LINE
8
1
10
1619.685039
20
-1234.141732
30
0
11
1619.685039
21
-1278.236220
31
0
0
LINE
8
1
10
1605.118110
20
-1278.236220
30
0
11
1619.685039
21
-1278.236220
31
0
0
LINE
8
1
10
1614.960630
20
-1287.291339
30
0
11
1619.685039
21
-1287.291339
31
0
0
LINE
8
1
10
1614.960630
20
-1287.291339
30
0
11
1614.960630
21
-1461.307087
31
0
0
LINE
8
1
10
1619.685039
20
-1287.291339
30
0
11
1619.685039
21
-1461.307087
31
0
0
LINE
8
1
10
1614.960630
20
-1461.307087
30
0
11
1619.685039
21
-1461.307087
31
0
0
LINE
8
1
10
1585.433071
20
-1456.582677
30
0
11
1619.685039
21
-1456.582677
31
0
0
LINE
8
1
10
1585.433071
20
-1456.582677
30
0
11
1585.433071
21
-1461.307087
31
0
0
LINE
8
1
10
1619.685039
20
-1456.582677
30
0
11
1619.685039
21
-1461.307087
31
0
0
LINE
8
1
10
1585.433071
20
-1461.307087
30
0
11
1619.685039
21
-1461.307087
31
0
0
LINE
8
1
10
1179.527559
20
-1196.346457
30
0
11
1661.417323
21
-1196.346457
31
0
0
LINE
8
1
10
1179.527559
20
-1196.346457
30
0
11
1179.527559
21
-1201.070866
31
0
0
LINE
8
1
10
1661.417323
20
-1196.346457
30
0
11
1661.417323
21
-1201.070866
31
0
0
LINE
8
1
10
1179.527559
20
-1201.070866
30
0
11
1661.417323
21
-1201.070866
31
0
0
LINE
8
1
10
1656.692913
20
-1196.346457
30
0
11
1661.417323
21
-1196.346457
31
0
0
LINE
8
1
10
1656.692913
20
-1196.346457
30
0
11
1656.692913
21
-1495.165354
31
0
0
LINE
8
1
10
1661.417323
20
-1196.346457
30
0
11
1661.417323
21
-1495.165354
31
0
0
LINE
8
1
10
1656.692913
20
-1495.165354
30
0
11
1661.417323
21
-1495.165354
31
0
0
LINE
8
1
10
1250.787402
20
-1450.358661
30
0
11
1314.553031
21
-1450.358661
31
0
0
LINE
8
1
10
1250.787402
20
-1450.358661
30
0
11
1250.787402
21
-1461.307087
31
0
0
LINE
8
1
10
1314.553031
20
-1450.358661
30
0
11
1314.553031
21
-1461.307087
31
0
0
LINE
8
1
10
1250.787402
20
-1461.307087
30
0
11
1314.553031
21
-1461.307087
31
0
0
LINE
8
1
10
1388.582677
20
-1450.358661
30
0
11
1452.348307
21
-1450.358661
31
0
0
LINE
8
1
10
1388.582677
20
-1450.358661
30
0
11
1388.582677
21
-1461.307087
31
0
0
LINE
8
1
10
1452.348307
20
-1450.358661
30
0
11
1452.348307
21
-1461.307087
31
0
0
LINE
8
1
10
1388.582677
20
-1461.307087
30
0
11
1452.348307
21
-1461.307087
31
0
0
LINE
8
1
10
1526.377953
20
-1450.358661
30
0
11
1590.143583
21
-1450.358661
31
0
0
LINE
8
1
10
1526.377953
20
-1450.358661
30
0
11
1526.377953
21
-1461.307087
31
0
0
LINE
8
1
10
1590.143583
20
-1450.358661
30
0
11
1590.143583
21
-1461.307087
31
0
0
LINE
8
1
10
1526.377953
20
-1461.307087
30
0
11
1590.143583
21
-1461.307087
31
0
0
LINE
8
1
10
573.622047
20
-1180.992126
30
0
11
657.086614
21
-1180.992126
31
0
0
LINE
8
1
10
573.622047
20
-1180.992126
30
0
11
573.622047
21
-1185.716535
31
0
0
LINE
8
1
10
657.086614
20
-1180.992126
30
0
11
657.086614
21
-1185.716535
31
0
0
LINE
8
1
10
573.622047
20
-1185.716535
30
0
11
657.086614
21
-1185.716535
31
0
0
LINE
8
1
10
573.622047
20
-1180.992126
30
0
11
578.346457
21
-1180.992126
31
0
0
LINE
8
1
10
573.622047
20
-1180.992126
30
0
11
573.622047
21
-1234.929134
31
0
0
LINE
8
1
10
578.346457
20
-1180.992126
30
0
11
578.346457
21
-1234.929134
31
0
0
LINE
8
1
10
573.622047
20
-1234.929134
30
0
11
578.346457
21
-1234.929134
31
0
0
LINE
8
1
10
588.976378
20
-1196.346457
30
0
11
593.700787
21
-1196.346457
31
0
0
LINE
8
1
10
588.976378
20
-1196.346457
30
0
11
588.976378
21
-1495.165354
31
0
0
LINE
8
1
10
593.700787
20
-1196.346457
30
0
11
593.700787
21
-1495.165354
31
0
0
LINE
8
1
10
588.976378
20
-1495.165354
30
0
11
593.700787
21
-1495.165354
31
0
0
LINE
8
1
10
588.976378
20
-1490.440945
30
0
11
1070.866142
21
-1490.440945
31
0
0
LINE
8
1
10
588.976378
20
-1490.440945
30
0
11
588.976378
21
-1495.165354
31
0
0
LINE
8
1
10
1070.866142
20
-1490.440945
30
0
11
1070.866142
21
-1495.165354
31
0
0
LINE
8
1
10
588.976378
20
-1495.165354
30
0
11
1070.866142
21
-1495.165354
31
0
0
LINE
8
1
10
630.708661
20
-1234.141732
30
0
11
753.543307
21
-1234.141732
31
0
0
LINE
8
1
10
630.708661
20
-1234.141732
30
0
11
630.708661
21
-1238.866142
31
0
0
LINE
8
1
10
753.543307
20
-1234.141732
30
0
11
753.543307
21
-1238.866142
31
0
0
LINE
8
1
10
630.708661
20
-1238.866142
30
0
11
753.543307
21
-1238.866142
31
0
0
LINE
8
1
10
630.708661
20
-1287.291339
30
0
11
664.960630
21
-1287.291339
31
0
0
LINE
8
1
10
630.708661
20
-1287.291339
30
0
11
630.708661
21
-1292.015748
31
0
0
LINE
8
1
10
664.960630
20
-1287.291339
30
0
11
664.960630
21
-1292.015748
31
0
0
LINE
8
1
10
630.708661
20
-1292.015748
30
0
11
664.960630
21
-1292.015748
31
0
0
LINE
8
1
10
630.708661
20
-1287.291339
30
0
11
635.433071
21
-1287.291339
31
0
0
LINE
8
1
10
630.708661
20
-1287.291339
30
0
11
630.708661
21
-1461.307087
31
0
0
LINE
8
1
10
635.433071
20
-1287.291339
30
0
11
635.433071
21
-1461.307087
31
0
0
LINE
8
1
10
630.708661
20
-1461.307087
30
0
11
635.433071
21
-1461.307087
31
0
0
LINE
8
1
10
630.708661
20
-1234.141732
30
0
11
645.275591
21
-1234.141732
31
0
0
LINE
8
1
10
630.708661
20
-1234.141732
30
0
11
630.708661
21
-1278.236220
31
0
0
LINE
8
1
10
645.275591
20
-1234.141732
30
0
11
645.275591
21
-1278.236220
31
0
0
LINE
8
1
10
630.708661
20
-1278.236220
30
0
11
645.275591
21
-1278.236220
31
0
0
LINE
8
1
10
640.551181
20
-1273.511811
30
0
11
664.960630
21
-1273.511811
31
0
0
LINE
8
1
10
640.551181
20
-1273.511811
30
0
11
640.551181
21
-1278.236220
31
0
0
LINE
8
1
10
664.960630
20
-1273.511811
30
0
11
664.960630
21
-1278.236220
31
0
0
LINE
8
1
10
640.551181
20
-1278.236220
30
0
11
664.960630
21
-1278.236220
31
0
0
LINE
8
1
10
660.236220
20
-1273.511811
30
0
11
664.960630
21
-1273.511811
31
0
0
LINE
8
1
10
660.236220
20
-1273.511811
30
0
11
660.236220
21
-1292.015748
31
0
0
LINE
8
1
10
664.960630
20
-1273.511811
30
0
11
664.960630
21
-1292.015748
31
0
0
LINE
8
1
10
660.236220
20
-1292.015748
30
0
11
664.960630
21
-1292.015748
31
0
0
LINE
8
1
10
630.708661
20
-1456.582677
30
0
11
664.960630
21
-1456.582677
31
0
0
LINE
8
1
10
630.708661
20
-1456.582677
30
0
11
630.708661
21
-1461.307087
31
0
0
LINE
8
1
10
664.960630
20
-1456.582677
30
0
11
664.960630
21
-1461.307087
31
0
0
LINE
8
1
10
630.708661
20
-1461.307087
30
0
11
664.960630
21
-1461.307087
31
0
0
LINE
8
1
10
719.291339
20
-1273.511811
30
0
11
724.015748
21
-1273.511811
31
0
0
LINE
8
1
10
719.291339
20
-1273.511811
30
0
11
719.291339
21
-1292.015748
31
0
0
LINE
8
1
10
724.015748
20
-1273.511811
30
0
11
724.015748
21
-1292.015748
31
0
0
LINE
8
1
10
719.291339
20
-1292.015748
30
0
11
724.015748
21
-1292.015748
31
0
0
LINE
8
1
10
719.291339
20
-1287.291339
30
0
11
753.543307
21
-1287.291339
31
0
0
LINE
8
1
10
719.291339
20
-1287.291339
30
0
11
719.291339
21
-1292.015748
31
0
0
LINE
8
1
10
753.543307
20
-1287.291339
30
0
11
753.543307
21
-1292.015748
31
0
0
LINE
8
1
10
719.291339
20
-1292.015748
30
0
11
753.543307
21
-1292.015748
31
0
0
LINE
8
1
10
719.291339
20
-1273.511811
30
0
11
743.700787
21
-1273.511811
31
0
0
LINE
8
1
10
719.291339
20
-1273.511811
30
0
11
719.291339
21
-1278.236220
31
0
0
LINE
8
1
10
743.700787
20
-1273.511811
30
0
11
743.700787
21
-1278.236220
31
0
0
LINE
8
1
10
719.291339
20
-1278.236220
30
0
11
743.700787
21
-1278.236220
31
0
0
LINE
8
1
10
738.976378
20
-1234.141732
30
0
11
753.543307
21
-1234.141732
31
0
0
LINE
8
1
10
738.976378
20
-1234.141732
30
0
11
738.976378
21
-1278.236220
31
0
0
LINE
8
1
10
753.543307
20
-1234.141732
30
0
11
753.543307
21
-1278.236220
31
0
0
LINE
8
1
10
738.976378
20
-1278.236220
30
0
11
753.543307
21
-1278.236220
31
0
0
LINE
8
1
10
748.818898
20
-1287.291339
30
0
11
753.543307
21
-1287.291339
31
0
0
LINE
8
1
10
748.818898
20
-1287.291339
30
0
11
748.818898
21
-1461.307087
31
0
0
LINE
8
1
10
753.543307
20
-1287.291339
30
0
11
753.543307
21
-1461.307087
31
0
0
LINE
8
1
10
748.818898
20
-1461.307087
30
0
11
753.543307
21
-1461.307087
31
0
0
LINE
8
1
10
719.291339
20
-1456.582677
30
0
11
753.543307
21
-1456.582677
31
0
0
LINE
8
1
10
719.291339
20
-1456.582677
30
0
11
719.291339
21
-1461.307087
31
0
0
LINE
8
1
10
753.543307
20
-1456.582677
30
0
11
753.543307
21
-1461.307087
31
0
0
LINE
8
1
10
719.291339
20
-1461.307087
30
0
11
753.543307
21
-1461.307087
31
0
0
LINE
8
1
10
768.503937
20
-1234.141732
30
0
11
891.338583
21
-1234.141732
31
0
0
LINE
8
1
10
768.503937
20
-1234.141732
30
0
11
768.503937
21
-1238.866142
31
0
0
LINE
8
1
10
891.338583
20
-1234.141732
30
0
11
891.338583
21
-1238.866142
31
0
0
LINE
8
1
10
768.503937
20
-1238.866142
30
0
11
891.338583
21
-1238.866142
31
0
0
LINE
8
1
10
768.503937
20
-1287.291339
30
0
11
802.755906
21
-1287.291339
31
0
0
LINE
8
1
10
768.503937
20
-1287.291339
30
0
11
768.503937
21
-1292.015748
31
0
0
LINE
8
1
10
802.755906
20
-1287.291339
30
0
11
802.755906
21
-1292.015748
31
0
0
LINE
8
1
10
768.503937
20
-1292.015748
30
0
11
802.755906
21
-1292.015748
31
0
0
LINE
8
1
10
768.503937
20
-1287.291339
30
0
11
773.228346
21
-1287.291339
31
0
0
LINE
8
1
10
768.503937
20
-1287.291339
30
0
11
768.503937
21
-1461.307087
31
0
0
LINE
8
1
10
773.228346
20
-1287.291339
30
0
11
773.228346
21
-1461.307087
31
0
0
LINE
8
1
10
768.503937
20
-1461.307087
30
0
11
773.228346
21
-1461.307087
31
0
0
LINE
8
1
10
768.503937
20
-1234.141732
30
0
11
783.070866
21
-1234.141732
31
0
0
LINE
8
1
10
768.503937
20
-1234.141732
30
0
11
768.503937
21
-1278.236220
31
0
0
LINE
8
1
10
783.070866
20
-1234.141732
30
0
11
783.070866
21
-1278.236220
31
0
0
LINE
8
1
10
768.503937
20
-1278.236220
30
0
11
783.070866
21
-1278.236220
31
0
0
LINE
8
1
10
778.346457
20
-1273.511811
30
0
11
802.755906
21
-1273.511811
31
0
0
LINE
8
1
10
778.346457
20
-1273.511811
30
0
11
778.346457
21
-1278.236220
31
0
0
LINE
8
1
10
802.755906
20
-1273.511811
30
0
11
802.755906
21
-1278.236220
31
0
0
LINE
8
1
10
778.346457
20
-1278.236220
30
0
11
802.755906
21
-1278.236220
31
0
0
LINE
8
1
10
798.031496
20
-1273.511811
30
0
11
802.755906
21
-1273.511811
31
0
0
LINE
8
1
10
798.031496
20
-1273.511811
30
0
11
798.031496
21
-1292.015748
31
0
0
LINE
8
1
10
802.755906
20
-1273.511811
30
0
11
802.755906
21
-1292.015748
31
0
0
LINE
8
1
10
798.031496
20
-1292.015748
30
0
11
802.755906
21
-1292.015748
31
0
0
LINE
8
1
10
768.503937
20
-1456.582677
30
0
11
802.755906
21
-1456.582677
31
0
0
LINE
8
1
10
768.503937
20
-1456.582677
30
0
11
768.503937
21
-1461.307087
31
0
0
LINE
8
1
10
802.755906
20
-1456.582677
30
0
11
802.755906
21
-1461.307087
31
0
0
LINE
8
1
10
768.503937
20
-1461.307087
30
0
11
802.755906
21
-1461.307087
31
0
0
LINE
8
1
10
857.086614
20
-1273.511811
30
0
11
861.811024
21
-1273.511811
31
0
0
LINE
8
1
10
857.086614
20
-1273.511811
30
0
11
857.086614
21
-1292.015748
31
0
0
LINE
8
1
10
861.811024
20
-1273.511811
30
0
11
861.811024
21
-1292.015748
31
0
0
LINE
8
1
10
857.086614
20
-1292.015748
30
0
11
861.811024
21
-1292.015748
31
0
0
LINE
8
1
10
857.086614
20
-1287.291339
30
0
11
891.338583
21
-1287.291339
31
0
0
LINE
8
1
10
857.086614
20
-1287.291339
30
0
11
857.086614
21
-1292.015748
31
0
0
LINE
8
1
10
891.338583
20
-1287.291339
30
0
11
891.338583
21
-1292.015748
31
0
0
LINE
8
1
10
857.086614
20
-1292.015748
30
0
11
891.338583
21
-1292.015748
31
0
0
LINE
8
1
10
857.086614
20
-1273.511811
30
0
11
881.496063
21
-1273.511811
31
0
0
LINE
8
1
10
857.086614
20
-1273.511811
30
0
11
857.086614
21
-1278.236220
31
0
0
LINE
8
1
10
881.496063
20
-1273.511811
30
0
11
881.496063
21
-1278.236220
31
0
0
LINE
8
1
10
857.086614
20
-1278.236220
30
0
11
881.496063
21
-1278.236220
31
0
0
LINE
8
1
10
876.771654
20
-1234.141732
30
0
11
891.338583
21
-1234.141732
31
0
0
LINE
8
1
10
876.771654
20
-1234.141732
30
0
11
876.771654
21
-1278.236220
31
0
0
LINE
8
1
10
891.338583
20
-1234.141732
30
0
11
891.338583
21
-1278.236220
31
0
0
LINE
8
1
10
876.771654
20
-1278.236220
30
0
11
891.338583
21
-1278.236220
31
0
0
LINE
8
1
10
886.614173
20
-1287.291339
30
0
11
891.338583
21
-1287.291339
31
0
0
LINE
8
1
10
886.614173
20
-1287.291339
30
0
11
886.614173
21
-1461.307087
31
0
0
LINE
8
1
10
891.338583
20
-1287.291339
30
0
11
891.338583
21
-1461.307087
31
0
0
LINE
8
1
10
886.614173
20
-1461.307087
30
0
11
891.338583
21
-1461.307087
31
0
0
LINE
8
1
10
857.086614
20
-1456.582677
30
0
11
891.338583
21
-1456.582677
31
0
0
LINE
8
1
10
857.086614
20
-1456.582677
30
0
11
857.086614
21
-1461.307087
31
0
0
LINE
8
1
10
891.338583
20
-1456.582677
30
0
11
891.338583
21
-1461.307087
31
0
0
LINE
8
1
10
857.086614
20
-1461.307087
30
0
11
891.338583
21
-1461.307087
31
0
0
LINE
8
1
10
906.299213
20
-1234.141732
30
0
11
1029.133858
21
-1234.141732
31
0
0
LINE
8
1
10
906.299213
20
-1234.141732
30
0
11
906.299213
21
-1238.866142
31
0
0
LINE
8
1
10
1029.133858
20
-1234.141732
30
0
11
1029.133858
21
-1238.866142
31
0
0
LINE
8
1
10
906.299213
20
-1238.866142
30
0
11
1029.133858
21
-1238.866142
31
0
0
LINE
8
1
10
906.299213
20
-1287.291339
30
0
11
940.551181
21
-1287.291339
31
0
0
LINE
8
1
10
906.299213
20
-1287.291339
30
0
11
906.299213
21
-1292.015748
31
0
0
LINE
8
1
10
940.551181
20
-1287.291339
30
0
11
940.551181
21
-1292.015748
31
0
0
LINE
8
1
10
906.299213
20
-1292.015748
30
0
11
940.551181
21
-1292.015748
31
0
0
LINE
8
1
10
906.299213
20
-1287.291339
30
0
11
911.023622
21
-1287.291339
31
0
0
LINE
8
1
10
906.299213
20
-1287.291339
30
0
11
906.299213
21
-1461.307087
31
0
0
LINE
8
1
10
911.023622
20
-1287.291339
30
0
11
911.023622
21
-1461.307087
31
0
0
LINE
8
1
10
906.299213
20
-1461.307087
30
0
11
911.023622
21
-1461.307087
31
0
0
LINE
8
1
10
906.299213
20
-1234.141732
30
0
11
920.866142
21
-1234.141732
31
0
0
LINE
8
1
10
906.299213
20
-1234.141732
30
0
11
906.299213
21
-1278.236220
31
0
0
LINE
8
1
10
920.866142
20
-1234.141732
30
0
11
920.866142
21
-1278.236220
31
0
0
LINE
8
1
10
906.299213
20
-1278.236220
30
0
11
920.866142
21
-1278.236220
31
0
0
LINE
8
1
10
916.141732
20
-1273.511811
30
0
11
940.551181
21
-1273.511811
31
0
0
LINE
8
1
10
916.141732
20
-1273.511811
30
0
11
916.141732
21
-1278.236220
31
0
0
LINE
8
1
10
940.551181
20
-1273.511811
30
0
11
940.551181
21
-1278.236220
31
0
0
LINE
8
1
10
916.141732
20
-1278.236220
30
0
11
940.551181
21
-1278.236220
31
0
0
LINE
8
1
10
935.826772
20
-1273.511811
30
0
11
940.551181
21
-1273.511811
31
0
0
LINE
8
1
10
935.826772
20
-1273.511811
30
0
11
935.826772
21
-1292.015748
31
0
0
LINE
8
1
10
940.551181
20
-1273.511811
30
0
11
940.551181
21
-1292.015748
31
0
0
LINE
8
1
10
935.826772
20
-1292.015748
30
0
11
940.551181
21
-1292.015748
31
0
0
LINE
8
1
10
906.299213
20
-1456.582677
30
0
11
940.551181
21
-1456.582677
31
0
0
LINE
8
1
10
906.299213
20
-1456.582677
30
0
11
906.299213
21
-1461.307087
31
0
0
LINE
8
1
10
940.551181
20
-1456.582677
30
0
11
940.551181
21
-1461.307087
31
0
0
LINE
8
1
10
906.299213
20
-1461.307087
30
0
11
940.551181
21
-1461.307087
31
0
0
LINE
8
1
10
994.881890
20
-1273.511811
30
0
11
999.606299
21
-1273.511811
31
0
0
LINE
8
1
10
994.881890
20
-1273.511811
30
0
11
994.881890
21
-1292.015748
31
0
0
LINE
8
1
10
999.606299
20
-1273.511811
30
0
11
999.606299
21
-1292.015748
31
0
0
LINE
8
1
10
994.881890
20
-1292.015748
30
0
11
999.606299
21
-1292.015748
31
0
0
LINE
8
1
10
994.881890
20
-1287.291339
30
0
11
1029.133858
21
-1287.291339
31
0
0
LINE
8
1
10
994.881890
20
-1287.291339
30
0
11
994.881890
21
-1292.015748
31
0
0
LINE
8
1
10
1029.133858
20
-1287.291339
30
0
11
1029.133858
21
-1292.015748
31
0
0
LINE
8
1
10
994.881890
20
-1292.015748
30
0
11
1029.133858
21
-1292.015748
31
0
0
LINE
8
1
10
994.881890
20
-1273.511811
30
0
11
1019.291339
21
-1273.511811
31
0
0
LINE
8
1
10
994.881890
20
-1273.511811
30
0
11
994.881890
21
-1278.236220
31
0
0
LINE
8
1
10
1019.291339
20
-1273.511811
30
0
11
1019.291339
21
-1278.236220
31
0
0
LINE
8
1
10
994.881890
20
-1278.236220
30
0
11
1019.291339
21
-1278.236220
31
0
0
LINE
8
1
10
1014.566929
20
-1234.141732
30
0
11
1029.133858
21
-1234.141732
31
0
0
LINE
8
1
10
1014.566929
20
-1234.141732
30
0
11
1014.566929
21
-1278.236220
31
0
0
LINE
8
1
10
1029.133858
20
-1234.141732
30
0
11
1029.133858
21
-1278.236220
31
0
0
LINE
8
1
10
1014.566929
20
-1278.236220
30
0
11
1029.133858
21
-1278.236220
31
0
0
LINE
8
1
10
1024.409449
20
-1287.291339
30
0
11
1029.133858
21
-1287.291339
31
0
0
LINE
8
1
10
1024.409449
20
-1287.291339
30
0
11
1024.409449
21
-1461.307087
31
0
0
LINE
8
1
10
1029.133858
20
-1287.291339
30
0
11
1029.133858
21
-1461.307087
31
0
0
LINE
8
1
10
1024.409449
20
-1461.307087
30
0
11
1029.133858
21
-1461.307087
31
0
0
LINE
8
1
10
994.881890
20
-1456.582677
30
0
11
1029.133858
21
-1456.582677
31
0
0
LINE
8
1
10
994.881890
20
-1456.582677
30
0
11
994.881890
21
-1461.307087
31
0
0
LINE
8
1
10
1029.133858
20
-1456.582677
30
0
11
1029.133858
21
-1461.307087
31
0
0
LINE
8
1
10
994.881890
20
-1461.307087
30
0
11
1029.133858
21
-1461.307087
31
0
0
LINE
8
1
10
588.976378
20
-1196.346457
30
0
11
1070.866142
21
-1196.346457
31
0
0
LINE
8
1
10
588.976378
20
-1196.346457
30
0
11
588.976378
21
-1201.070866
31
0
0
LINE
8
1
10
1070.866142
20
-1196.346457
30
0
11
1070.866142
21
-1201.070866
31
0
0
LINE
8
1
10
588.976378
20
-1201.070866
30
0
11
1070.866142
21
-1201.070866
31
0
0
LINE
8
1
10
1066.141732
20
-1196.346457
30
0
11
1070.866142
21
-1196.346457
31
0
0
LINE
8
1
10
1066.141732
20
-1196.346457
30
0
11
1066.141732
21
-1495.165354
31
0
0
LINE
8
1
10
1070.866142
20
-1196.346457
30
0
11
1070.866142
21
-1495.165354
31
0
0
LINE
8
1
10
1066.141732
20
-1495.165354
30
0
11
1070.866142
21
-1495.165354
31
0
0
LINE
8
1
10
660.236220
20
-1450.358661
30
0
11
724.001850
21
-1450.358661
31
0
0
LINE
8
1
10
660.236220
20
-1450.358661
30
0
11
660.236220
21
-1461.307087
31
0
0
LINE
8
1
10
724.001850
20
-1450.358661
30
0
11
724.001850
21
-1461.307087
31
0
0
LINE
8
1
10
660.236220
20
-1461.307087
30
0
11
724.001850
21
-1461.307087
31
0
0
LINE
8
1
10
798.031496
20
-1450.358661
30
0
11
861.797126
21
-1450.358661
31
0
0
LINE
8
1
10
798.031496
20
-1450.358661
30
0
11
798.031496
21
-1461.307087
31
0
0
LINE
8
1
10
861.797126
20
-1450.358661
30
0
11
861.797126
21
-1461.307087
31
0
0
LINE
8
1
10
798.031496
20
-1461.307087
30
0
11
861.797126
21
-1461.307087
31
0
0
LINE
8
1
10
935.826772
20
-1450.358661
30
0
11
999.592402
21
-1450.358661
31
0
0
LINE
8
1
10
935.826772
20
-1450.358661
30
0
11
935.826772
21
-1461.307087
31
0
0
LINE
8
1
10
999.592402
20
-1450.358661
30
0
11
999.592402
21
-1461.307087
31
0
0
LINE
8
1
10
935.826772
20
-1461.307087
30
0
11
999.592402
21
-1461.307087
31
0
0
LINE
8
1
10
1787.775591
20
-1476.003937
30
0
11
2332.775591
21
-1476.003937
31
0
0
LINE
8
1
10
1787.775591
20
-1476.003937
30
0
11
1787.775591
21
-1491.003937
31
0
0
LINE
8
1
10
2332.775591
20
-1476.003937
30
0
11
2332.775591
21
-1491.003937
31
0
0
LINE
8
1
10
1787.775591
20
-1491.003937
30
0
11
2332.775591
21
-1491.003937
31
0
0
LINE
8
1
10
1787.775591
20
-1476.003937
30
0
11
1802.775591
21
-1476.003937
31
0
0
LINE
8
1
10
1787.775591
20
-1476.003937
30
0
11
1787.775591
21
-2211.003937
31
0
0
LINE
8
1
10
1802.775591
20
-1476.003937
30
0
11
1802.775591
21
-2211.003937
31
0
0
LINE
8
1
10
1787.775591
20
-2211.003937
30
0
11
1802.775591
21
-2211.003937
31
0
0
LINE
8
1
10
1787.775591
20
-2196.003937
30
0
11
2332.775591
21
-2196.003937
31
0
0
LINE
8
1
10
1787.775591
20
-2196.003937
30
0
11
1787.775591
21
-2211.003937
31
0
0
LINE
8
1
10
2332.775591
20
-2196.003937
30
0
11
2332.775591
21
-2211.003937
31
0
0
LINE
8
1
10
1787.775591
20
-2211.003937
30
0
11
2332.775591
21
-2211.003937
31
0
0
LINE
8
1
10
2317.775591
20
-1476.003937
30
0
11
2332.775591
21
-1476.003937
31
0
0
LINE
8
1
10
2317.775591
20
-1476.003937
30
0
11
2317.775591
21
-2211.003937
31
0
0
LINE
8
1
10
2332.775591
20
-1476.003937
30
0
11
2332.775591
21
-2211.003937
31
0
0
LINE
8
1
10
2317.775591
20
-2211.003937
30
0
11
2332.775591
21
-2211.003937
31
0
0
LINE
8
1
10
1937.091417
20
-2208.896299
30
0
11
2344.877126
21
-2208.896299
31
0
0
LINE
8
1
10
1937.091417
20
-2208.896299
30
0
11
1937.091417
21
-2320.631299
31
0
0
LINE
8
1
10
2344.877126
20
-2208.896299
30
0
11
2344.877126
21
-2320.631299
31
0
0
LINE
8
1
10
1937.091417
20
-2320.631299
30
0
11
2344.877126
21
-2320.631299
31
0
0
LINE
8
1
10
933.602362
20
-2169.185039
30
0
11
995.688976
21
-2169.185039
31
0
0
LINE
8
1
10
933.602362
20
-2169.185039
30
0
11
933.602362
21
-2174.185039
31
0
0
LINE
8
1
10
995.688976
20
-2169.185039
30
0
11
995.688976
21
-2174.185039
31
0
0
LINE
8
1
10
933.602362
20
-2174.185039
30
0
11
995.688976
21
-2174.185039
31
0
0
LINE
8
1
10
933.602362
20
-2169.185039
30
0
11
938.602362
21
-2169.185039
31
0
0
LINE
8
1
10
933.602362
20
-2169.185039
30
0
11
933.602362
21
-2752.925197
31
0
0
LINE
8
1
10
938.602362
20
-2169.185039
30
0
11
938.602362
21
-2752.925197
31
0
0
LINE
8
1
10
933.602362
20
-2752.925197
30
0
11
938.602362
21
-2752.925197
31
0
0
LINE
8
1
10
933.602362
20
-2747.925197
30
0
11
995.688976
21
-2747.925197
31
0
0
LINE
8
1
10
933.602362
20
-2747.925197
30
0
11
933.602362
21
-2752.925197
31
0
0
LINE
8
1
10
995.688976
20
-2747.925197
30
0
11
995.688976
21
-2752.925197
31
0
0
LINE
8
1
10
933.602362
20
-2752.925197
30
0
11
995.688976
21
-2752.925197
31
0
0
LINE
8
1
10
1065.492126
20
-2169.185039
30
0
11
1127.578740
21
-2169.185039
31
0
0
LINE
8
1
10
1065.492126
20
-2169.185039
30
0
11
1065.492126
21
-2174.185039
31
0
0
LINE
8
1
10
1127.578740
20
-2169.185039
30
0
11
1127.578740
21
-2174.185039
31
0
0
LINE
8
1
10
1065.492126
20
-2174.185039
30
0
11
1127.578740
21
-2174.185039
31
0
0
LINE
8
1
10
1065.492126
20
-2747.925197
30
0
11
1127.578740
21
-2747.925197
31
0
0
LINE
8
1
10
1065.492126
20
-2747.925197
30
0
11
1065.492126
21
-2752.925197
31
0
0
LINE
8
1
10
1127.578740
20
-2747.925197
30
0
11
1127.578740
21
-2752.925197
31
0
0
LINE
8
1
10
1065.492126
20
-2752.925197
30
0
11
1127.578740
21
-2752.925197
31
0
0
LINE
8
1
10
1122.578740
20
-2169.185039
30
0
11
1127.578740
21
-2169.185039
31
0
0
LINE
8
1
10
1122.578740
20
-2169.185039
30
0
11
1122.578740
21
-2752.925197
31
0
0
LINE
8
1
10
1127.578740
20
-2169.185039
30
0
11
1127.578740
21
-2752.925197
31
0
0
LINE
8
1
10
1122.578740
20
-2752.925197
30
0
11
1127.578740
21
-2752.925197
31
0
0
LINE
8
1
10
1093.228346
20
-2723.692913
30
0
11
1107.952756
21
-2723.692913
31
0
0
LINE
8
1
10
1093.228346
20
-2723.692913
30
0
11
1093.228346
21
-2738.417323
31
0
0
LINE
8
1
10
1107.952756
20
-2723.692913
30
0
11
1107.952756
21
-2738.417323
31
0
0
LINE
8
1
10
1093.228346
20
-2738.417323
30
0
11
1107.952756
21
-2738.417323
31
0
0
LINE
8
1
10
1373.602362
20
-2169.185039
30
0
11
1435.688976
21
-2169.185039
31
0
0
LINE
8
1
10
1373.602362
20
-2169.185039
30
0
11
1373.602362
21
-2174.185039
31
0
0
LINE
8
1
10
1435.688976
20
-2169.185039
30
0
11
1435.688976
21
-2174.185039
31
0
0
LINE
8
1
10
1373.602362
20
-2174.185039
30
0
11
1435.688976
21
-2174.185039
31
0
0
LINE
8
1
10
1373.602362
20
-2169.185039
30
0
11
1378.602362
21
-2169.185039
31
0
0
LINE
8
1
10
1373.602362
20
-2169.185039
30
0
11
1373.602362
21
-2752.925197
31
0
0
LINE
8
1
10
1378.602362
20
-2169.185039
30
0
11
1378.602362
21
-2752.925197
31
0
0
LINE
8
1
10
1373.602362
20
-2752.925197
30
0
11
1378.602362
21
-2752.925197
31
0
0
LINE
8
1
10
1373.602362
20
-2747.925197
30
0
11
1435.688976
21
-2747.925197
31
0
0
LINE
8
1
10
1373.602362
20
-2747.925197
30
0
11
1373.602362
21
-2752.925197
31
0
0
LINE
8
1
10
1435.688976
20
-2747.925197
30
0
11
1435.688976
21
-2752.925197
31
0
0
LINE
8
1
10
1373.602362
20
-2752.925197
30
0
11
1435.688976
21
-2752.925197
31
0
0
LINE
8
1
10
1505.492126
20
-2169.185039
30
0
11
1567.578740
21
-2169.185039
31
0
0
LINE
8
1
10
1505.492126
20
-2169.185039
30
0
11
1505.492126
21
-2174.185039
31
0
0
LINE
8
1
10
1567.578740
20
-2169.185039
30
0
11
1567.578740
21
-2174.185039
31
0
0
LINE
8
1
10
1505.492126
20
-2174.185039
30
0
11
1567.578740
21
-2174.185039
31
0
0
LINE
8
1
10
1505.492126
20
-2747.925197
30
0
11
1567.578740
21
-2747.925197
31
0
0
LINE
8
1
10
1505.492126
20
-2747.925197
30
0
11
1505.492126
21
-2752.925197
31
0
0
LINE
8
1
10
1567.578740
20
-2747.925197
30
0
11
1567.578740
21
-2752.925197
31
0
0
LINE
8
1
10
1505.492126
20
-2752.925197
30
0
11
1567.578740
21
-2752.925197
31
0
0
LINE
8
1
10
1562.578740
20
-2169.185039
30
0
11
1567.578740
21
-2169.185039
31
0
0
LINE
8
1
10
1562.578740
20
-2169.185039
30
0
11
1562.578740
21
-2752.925197
31
0
0
LINE
8
1
10
1567.578740
20
-2169.185039
30
0
11
1567.578740
21
-2752.925197
31
0
0
LINE
8
1
10
1562.578740
20
-2752.925197
30
0
11
1567.578740
21
-2752.925197
31
0
0
LINE
8
1
10
1533.228346
20
-2723.692913
30
0
11
1547.952756
21
-2723.692913
31
0
0
LINE
8
1
10
1533.228346
20
-2723.692913
30
0
11
1533.228346
21
-2738.417323
31
0
0
LINE
8
1
10
1547.952756
20
-2723.692913
30
0
11
1547.952756
21
-2738.417323
31
0
0
LINE
8
1
10
1533.228346
20
-2738.417323
30
0
11
1547.952756
21
-2738.417323
31
0
0
LINE
8
1
10
713.602362
20
-2168.594488
30
0
11
775.688976
21
-2168.594488
31
0
0
LINE
8
1
10
713.602362
20
-2168.594488
30
0
11
713.602362
21
-2173.594488
31
0
0
LINE
8
1
10
775.688976
20
-2168.594488
30
0
11
775.688976
21
-2173.594488
31
0
0
LINE
8
1
10
713.602362
20
-2173.594488
30
0
11
775.688976
21
-2173.594488
31
0
0
LINE
8
1
10
713.602362
20
-2168.594488
30
0
11
718.602362
21
-2168.594488
31
0
0
LINE
8
1
10
713.602362
20
-2168.594488
30
0
11
713.602362
21
-2752.334646
31
0
0
LINE
8
1
10
718.602362
20
-2168.594488
30
0
11
718.602362
21
-2752.334646
31
0
0
LINE
8
1
10
713.602362
20
-2752.334646
30
0
11
718.602362
21
-2752.334646
31
0
0
LINE
8
1
10
713.602362
20
-2747.334646
30
0
11
775.688976
21
-2747.334646
31
0
0
LINE
8
1
10
713.602362
20
-2747.334646
30
0
11
713.602362
21
-2752.334646
31
0
0
LINE
8
1
10
775.688976
20
-2747.334646
30
0
11
775.688976
21
-2752.334646
31
0
0
LINE
8
1
10
713.602362
20
-2752.334646
30
0
11
775.688976
21
-2752.334646
31
0
0
LINE
8
1
10
845.492126
20
-2168.594488
30
0
11
907.578740
21
-2168.594488
31
0
0
LINE
8
1
10
845.492126
20
-2168.594488
30
0
11
845.492126
21
-2173.594488
31
0
0
LINE
8
1
10
907.578740
20
-2168.594488
30
0
11
907.578740
21
-2173.594488
31
0
0
LINE
8
1
10
845.492126
20
-2173.594488
30
0
11
907.578740
21
-2173.594488
31
0
0
LINE
8
1
10
845.492126
20
-2747.334646
30
0
11
907.578740
21
-2747.334646
31
0
0
LINE
8
1
10
845.492126
20
-2747.334646
30
0
11
845.492126
21
-2752.334646
31
0
0
LINE
8
1
10
907.578740
20
-2747.334646
30
0
11
907.578740
21
-2752.334646
31
0
0
LINE
8
1
10
845.492126
20
-2752.334646
30
0
11
907.578740
21
-2752.334646
31
0
0
LINE
8
1
10
902.578740
20
-2168.594488
30
0
11
907.578740
21
-2168.594488
31
0
0
LINE
8
1
10
902.578740
20
-2168.594488
30
0
11
902.578740
21
-2752.334646
31
0
0
LINE
8
1
10
907.578740
20
-2168.594488
30
0
11
907.578740
21
-2752.334646
31
0
0
LINE
8
1
10
902.578740
20
-2752.334646
30
0
11
907.578740
21
-2752.334646
31
0
0
LINE
8
1
10
873.228346
20
-2723.102362
30
0
11
887.952756
21
-2723.102362
31
0
0
LINE
8
1
10
873.228346
20
-2723.102362
30
0
11
873.228346
21
-2737.826772
31
0
0
LINE
8
1
10
887.952756
20
-2723.102362
30
0
11
887.952756
21
-2737.826772
31
0
0
LINE
8
1
10
873.228346
20
-2737.826772
30
0
11
887.952756
21
-2737.826772
31
0
0
LINE
8
1
10
1153.602362
20
-2169.185039
30
0
11
1215.688976
21
-2169.185039
31
0
0
LINE
8
1
10
1153.602362
20
-2169.185039
30
0
11
1153.602362
21
-2174.185039
31
0
0
LINE
8
1
10
1215.688976
20
-2169.185039
30
0
11
1215.688976
21
-2174.185039
31
0
0
LINE
8
1
10
1153.602362
20
-2174.185039
30
0
11
1215.688976
21
-2174.185039
31
0
0
LINE
8
1
10
1153.602362
20
-2169.185039
30
0
11
1158.602362
21
-2169.185039
31
0
0
LINE
8
1
10
1153.602362
20
-2169.185039
30
0
11
1153.602362
21
-2752.925197
31
0
0
LINE
8
1
10
1158.602362
20
-2169.185039
30
0
11
1158.602362
21
-2752.925197
31
0
0
LINE
8
1
10
1153.602362
20
-2752.925197
30
0
11
1158.602362
21
-2752.925197
31
0
0
LINE
8
1
10
1153.602362
20
-2747.925197
30
0
11
1215.688976
21
-2747.925197
31
0
0
LINE
8
1
10
1153.602362
20
-2747.925197
30
0
11
1153.602362
21
-2752.925197
31
0
0
LINE
8
1
10
1215.688976
20
-2747.925197
30
0
11
1215.688976
21
-2752.925197
31
0
0
LINE
8
1
10
1153.602362
20
-2752.925197
30
0
11
1215.688976
21
-2752.925197
31
0
0
LINE
8
1
10
1285.492126
20
-2169.185039
30
0
11
1347.578740
21
-2169.185039
31
0
0
LINE
8
1
10
1285.492126
20
-2169.185039
30
0
11
1285.492126
21
-2174.185039
31
0
0
LINE
8
1
10
1347.578740
20
-2169.185039
30
0
11
1347.578740
21
-2174.185039
31
0
0
LINE
8
1
10
1285.492126
20
-2174.185039
30
0
11
1347.578740
21
-2174.185039
31
0
0
LINE
8
1
10
1285.492126
20
-2747.925197
30
0
11
1347.578740
21
-2747.925197
31
0
0
LINE
8
1
10
1285.492126
20
-2747.925197
30
0
11
1285.492126
21
-2752.925197
31
0
0
LINE
8
1
10
1347.578740
20
-2747.925197
30
0
11
1347.578740
21
-2752.925197
31
0
0
LINE
8
1
10
1285.492126
20
-2752.925197
30
0
11
1347.578740
21
-2752.925197
31
0
0
LINE
8
1
10
1342.578740
20
-2169.185039
30
0
11
1347.578740
21
-2169.185039
31
0
0
LINE
8
1
10
1342.578740
20
-2169.185039
30
0
11
1342.578740
21
-2752.925197
31
0
0
LINE
8
1
10
1347.578740
20
-2169.185039
30
0
11
1347.578740
21
-2752.925197
31
0
0
LINE
8
1
10
1342.578740
20
-2752.925197
30
0
11
1347.578740
21
-2752.925197
31
0
0
LINE
8
1
10
1313.228346
20
-2723.692913
30
0
11
1327.952756
21
-2723.692913
31
0
0
LINE
8
1
10
1313.228346
20
-2723.692913
30
0
11
1313.228346
21
-2738.417323
31
0
0
LINE
8
1
10
1327.952756
20
-2723.692913
30
0
11
1327.952756
21
-2738.417323
31
0
0
LINE
8
1
10
1313.228346
20
-2738.417323
30
0
11
1327.952756
21
-2738.417323
31
0
0
LINE
8
1
10
222.824724
20
-1544.488189
30
0
11
248.120157
21
-1544.488189
31
0
0
LINE
8
1
10
222.824724
20
-1544.488189
30
0
11
222.824724
21
-1549.212598
31
0
0
LINE
8
1
10
248.120157
20
-1544.488189
30
0
11
248.120157
21
-1549.212598
31
0
0
LINE
8
1
10
222.824724
20
-1549.212598
30
0
11
248.120157
21
-1549.212598
31
0
0
LINE
8
1
10
222.824724
20
-1602.362205
30
0
11
248.120157
21
-1602.362205
31
0
0
LINE
8
1
10
222.824724
20
-1602.362205
30
0
11
222.824724
21
-1607.086614
31
0
0
LINE
8
1
10
248.120157
20
-1602.362205
30
0
11
248.120157
21
-1607.086614
31
0
0
LINE
8
1
10
222.824724
20
-1607.086614
30
0
11
248.120157
21
-1607.086614
31
0
0
LINE
8
1
10
198.464567
20
-1775.787402
30
0
11
203.188976
21
-1775.787402
31
0
0
LINE
8
1
10
198.464567
20
-1775.787402
30
0
11
198.464567
21
-1982.874016
31
0
0
LINE
8
1
10
203.188976
20
-1775.787402
30
0
11
203.188976
21
-1982.874016
31
0
0
LINE
8
1
10
198.464567
20
-1982.874016
30
0
11
203.188976
21
-1982.874016
31
0
0
LINE
8
1
10
198.464567
20
-1775.787402
30
0
11
307.913386
21
-1775.787402
31
0
0
LINE
8
1
10
198.464567
20
-1775.787402
30
0
11
198.464567
21
-1780.511811
31
0
0
LINE
8
1
10
307.913386
20
-1775.787402
30
0
11
307.913386
21
-1780.511811
31
0
0
LINE
8
1
10
198.464567
20
-1780.511811
30
0
11
307.913386
21
-1780.511811
31
0
0
LINE
8
1
10
198.464567
20
-1978.149606
30
0
11
307.913386
21
-1978.149606
31
0
0
LINE
8
1
10
198.464567
20
-1978.149606
30
0
11
198.464567
21
-1982.874016
31
0
0
LINE
8
1
10
307.913386
20
-1978.149606
30
0
11
307.913386
21
-1982.874016
31
0
0
LINE
8
1
10
198.464567
20
-1982.874016
30
0
11
307.913386
21
-1982.874016
31
0
0
LINE
8
1
10
303.188976
20
-1775.787402
30
0
11
307.913386
21
-1775.787402
31
0
0
LINE
8
1
10
303.188976
20
-1775.787402
30
0
11
303.188976
21
-1982.874016
31
0
0
LINE
8
1
10
307.913386
20
-1775.787402
30
0
11
307.913386
21
-1982.874016
31
0
0
LINE
8
1
10
303.188976
20
-1982.874016
30
0
11
307.913386
21
-1982.874016
31
0
0
LINE
8
1
10
303.188976
20
-2028.149606
30
0
11
307.913386
21
-2028.149606
31
0
0
LINE
8
1
10
303.188976
20
-2028.149606
30
0
11
303.188976
21
-2085.236220
31
0
0
LINE
8
1
10
307.913386
20
-2028.149606
30
0
11
307.913386
21
-2085.236220
31
0
0
LINE
8
1
10
303.188976
20
-2085.236220
30
0
11
307.913386
21
-2085.236220
31
0
0
LINE
8
1
10
250.826772
20
-2080.511811
30
0
11
307.913386
21
-2080.511811
31
0
0
LINE
8
1
10
250.826772
20
-2080.511811
30
0
11
250.826772
21
-2085.236220
31
0
0
LINE
8
1
10
307.913386
20
-2080.511811
30
0
11
307.913386
21
-2085.236220
31
0
0
LINE
8
1
10
250.826772
20
-2085.236220
30
0
11
307.913386
21
-2085.236220
31
0
0
LINE
8
1
10
272.037323
20
-1160.629921
30
0
11
297.332756
21
-1160.629921
31
0
0
LINE
8
1
10
272.037323
20
-1160.629921
30
0
11
272.037323
21
-1165.354331
31
0
0
LINE
8
1
10
297.332756
20
-1160.629921
30
0
11
297.332756
21
-1165.354331
31
0
0
LINE
8
1
10
272.037323
20
-1165.354331
30
0
11
297.332756
21
-1165.354331
31
0
0
LINE
8
1
10
272.037323
20
-1218.503937
30
0
11
297.332756
21
-1218.503937
31
0
0
LINE
8
1
10
272.037323
20
-1218.503937
30
0
11
272.037323
21
-1223.228346
31
0
0
LINE
8
1
10
297.332756
20
-1218.503937
30
0
11
297.332756
21
-1223.228346
31
0
0
LINE
8
1
10
272.037323
20
-1223.228346
30
0
11
297.332756
21
-1223.228346
31
0
0
LINE
8
1
10
1886.170945
20
-1357.972441
30
0
11
1909.577087
21
-1357.972441
31
0
0
LINE
8
1
10
1886.170945
20
-1357.972441
30
0
11
1886.170945
21
-1362.696850
31
0
0
LINE
8
1
10
1909.577087
20
-1357.972441
30
0
11
1909.577087
21
-1362.696850
31
0
0
LINE
8
1
10
1886.170945
20
-1362.696850
30
0
11
1909.577087
21
-1362.696850
31
0
0
LINE
8
1
10
1886.170945
20
-1399.114173
30
0
11
1909.577087
21
-1399.114173
31
0
0
LINE
8
1
10
1886.170945
20
-1399.114173
30
0
11
1886.170945
21
-1403.838583
31
0
0
LINE
8
1
10
1909.577087
20
-1399.114173
30
0
11
1909.577087
21
-1403.838583
31
0
0
LINE
8
1
10
1886.170945
20
-1403.838583
30
0
11
1909.577087
21
-1403.838583
31
0
0
LINE
8
1
10
2004.685039
20
-1182.283465
30
0
11
2009.409449
21
-1182.283465
31
0
0
LINE
8
1
10
2004.685039
20
-1182.283465
30
0
11
2004.685039
21
-1244.881890
31
0
0
LINE
8
1
10
2009.409449
20
-1182.283465
30
0
11
2009.409449
21
-1244.881890
31
0
0
LINE
8
1
10
2004.685039
20
-1244.881890
30
0
11
2009.409449
21
-1244.881890
31
0
0
LINE
8
1
10
2004.685039
20
-1240.157480
30
0
11
2099.370079
21
-1240.157480
31
0
0
LINE
8
1
10
2004.685039
20
-1240.157480
30
0
11
2004.685039
21
-1244.881890
31
0
0
LINE
8
1
10
2099.370079
20
-1240.157480
30
0
11
2099.370079
21
-1244.881890
31
0
0
LINE
8
1
10
2004.685039
20
-1244.881890
30
0
11
2099.370079
21
-1244.881890
31
0
0
LINE
8
1
10
2004.685039
20
-1182.283465
30
0
11
2099.370079
21
-1182.283465
31
0
0
LINE
8
1
10
2004.685039
20
-1182.283465
30
0
11
2004.685039
21
-1187.007874
31
0
0
LINE
8
1
10
2099.370079
20
-1182.283465
30
0
11
2099.370079
21
-1187.007874
31
0
0
LINE
8
1
10
2004.685039
20
-1187.007874
30
0
11
2099.370079
21
-1187.007874
31
0
0
LINE
8
1
10
1885.186693
20
-1190.649606
30
0
11
1908.592835
21
-1190.649606
31
0
0
LINE
8
1
10
1885.186693
20
-1190.649606
30
0
11
1885.186693
21
-1195.374016
31
0
0
LINE
8
1
10
1908.592835
20
-1190.649606
30
0
11
1908.592835
21
-1195.374016
31
0
0
LINE
8
1
10
1885.186693
20
-1195.374016
30
0
11
1908.592835
21
-1195.374016
31
0
0
LINE
8
1
10
1885.186693
20
-1231.791339
30
0
11
1908.592835
21
-1231.791339
31
0
0
LINE
8
1
10
1885.186693
20
-1231.791339
30
0
11
1885.186693
21
-1236.515748
31
0
0
LINE
8
1
10
1908.592835
20
-1231.791339
30
0
11
1908.592835
21
-1236.515748
31
0
0
LINE
8
1
10
1885.186693
20
-1236.515748
30
0
11
1908.592835
21
-1236.515748
31
0
0
LINE
8
1
10
2005.669291
20
-1347.834646
30
0
11
2010.393701
21
-1347.834646
31
0
0
LINE
8
1
10
2005.669291
20
-1347.834646
30
0
11
2005.669291
21
-1410.433071
31
0
0
LINE
8
1
10
2010.393701
20
-1347.834646
30
0
11
2010.393701
21
-1410.433071
31
0
0
LINE
8
1
10
2005.669291
20
-1410.433071
30
0
11
2010.393701
21
-1410.433071
31
0
0
LINE
8
1
10
2005.669291
20
-1405.708661
30
0
11
2100.354331
21
-1405.708661
31
0
0
LINE
8
1
10
2005.669291
20
-1405.708661
30
0
11
2005.669291
21
-1410.433071
31
0
0
LINE
8
1
10
2100.354331
20
-1405.708661
30
0
11
2100.354331
21
-1410.433071
31
0
0
LINE
8
1
10
2005.669291
20
-1410.433071
30
0
11
2100.354331
21
-1410.433071
31
0
0
LINE
8
1
10
2005.669291
20
-1347.834646
30
0
11
2100.354331
21
-1347.834646
31
0
0
LINE
8
1
10
2005.669291
20
-1347.834646
30
0
11
2005.669291
21
-1352.559055
31
0
0
LINE
8
1
10
2100.354331
20
-1347.834646
30
0
11
2100.354331
21
-1352.559055
31
0
0
LINE
8
1
10
2005.669291
20
-1352.559055
30
0
11
2100.354331
21
-1352.559055
31
0
0
LINE
8
1
10
345.118110
20
184.921260
30
0
11
349.842520
21
184.921260
31
0
0
LINE
8
1
10
345.118110
20
184.921260
30
0
11
345.118110
21
-526.889764
31
0
0
LINE
8
1
10
349.842520
20
184.921260
30
0
11
349.842520
21
-526.889764
31
0
0
LINE
8
1
10
345.118110
20
-526.889764
30
0
11
349.842520
21
-526.889764
31
0
0
LINE
8
1
10
345.118110
20
-522.165354
30
0
11
960.866142
21
-522.165354
31
0
0
LINE
8
1
10
345.118110
20
-522.165354
30
0
11
345.118110
21
-526.889764
31
0
0
LINE
8
1
10
960.866142
20
-522.165354
30
0
11
960.866142
21
-526.889764
31
0
0
LINE
8
1
10
345.118110
20
-526.889764
30
0
11
960.866142
21
-526.889764
31
0
0
LINE
8
1
10
345.118110
20
184.921260
30
0
11
960.866142
21
184.921260
31
0
0
LINE
8
1
10
345.118110
20
184.921260
30
0
11
345.118110
21
180.196850
31
0
0
LINE
8
1
10
960.866142
20
184.921260
30
0
11
960.866142
21
180.196850
31
0
0
LINE
8
1
10
345.118110
20
180.196850
30
0
11
960.866142
21
180.196850
31
0
0
LINE
8
1
10
956.141732
20
184.921260
30
0
11
960.866142
21
184.921260
31
0
0
LINE
8
1
10
956.141732
20
184.921260
30
0
11
956.141732
21
-526.889764
31
0
0
LINE
8
1
10
960.866142
20
184.921260
30
0
11
960.866142
21
-526.889764
31
0
0
LINE
8
1
10
956.141732
20
-526.889764
30
0
11
960.866142
21
-526.889764
31
0
0
LINE
8
1
10
963.425197
20
-369.409449
30
0
11
987.834646
21
-369.409449
31
0
0
LINE
8
1
10
963.425197
20
-369.409449
30
0
11
963.425197
21
-393.818898
31
0
0
LINE
8
1
10
987.834646
20
-369.409449
30
0
11
987.834646
21
-393.818898
31
0
0
LINE
8
1
10
963.425197
20
-393.818898
30
0
11
987.834646
21
-393.818898
31
0
0
LINE
8
1
10
963.425197
20
-349.724409
30
0
11
987.834646
21
-349.724409
31
0
0
LINE
8
1
10
963.425197
20
-349.724409
30
0
11
963.425197
21
-374.133858
31
0
0
LINE
8
1
10
987.834646
20
-349.724409
30
0
11
987.834646
21
-374.133858
31
0
0
LINE
8
1
10
963.425197
20
-374.133858
30
0
11
987.834646
21
-374.133858
31
0
0
LINE
8
1
10
983.110236
20
-349.724409
30
0
11
987.834646
21
-349.724409
31
0
0
LINE
8
1
10
983.110236
20
-349.724409
30
0
11
983.110236
21
-393.818898
31
0
0
LINE
8
1
10
987.834646
20
-349.724409
30
0
11
987.834646
21
-393.818898
31
0
0
LINE
8
1
10
983.110236
20
-393.818898
30
0
11
987.834646
21
-393.818898
31
0
0
LINE
8
1
10
525.855984
20
-606.870079
30
0
11
549.262126
21
-606.870079
31
0
0
LINE
8
1
10
525.855984
20
-606.870079
30
0
11
525.855984
21
-611.594488
31
0
0
LINE
8
1
10
549.262126
20
-606.870079
30
0
11
549.262126
21
-611.594488
31
0
0
LINE
8
1
10
525.855984
20
-611.594488
30
0
11
549.262126
21
-611.594488
31
0
0
LINE
8
1
10
525.855984
20
-648.011811
30
0
11
549.262126
21
-648.011811
31
0
0
LINE
8
1
10
525.855984
20
-648.011811
30
0
11
525.855984
21
-652.736220
31
0
0
LINE
8
1
10
549.262126
20
-648.011811
30
0
11
549.262126
21
-652.736220
31
0
0
LINE
8
1
10
525.855984
20
-652.736220
30
0
11
549.262126
21
-652.736220
31
0
0
LINE
8
1
10
833.021339
20
-606.870079
30
0
11
856.427480
21
-606.870079
31
0
0
LINE
8
1
10
833.021339
20
-606.870079
30
0
11
833.021339
21
-611.594488
31
0
0
LINE
8
1
10
856.427480
20
-606.870079
30
0
11
856.427480
21
-611.594488
31
0
0
LINE
8
1
10
833.021339
20
-611.594488
30
0
11
856.427480
21
-611.594488
31
0
0
LINE
8
1
10
833.021339
20
-648.011811
30
0
11
856.427480
21
-648.011811
31
0
0
LINE
8
1
10
833.021339
20
-648.011811
30
0
11
833.021339
21
-652.736220
31
0
0
LINE
8
1
10
856.427480
20
-648.011811
30
0
11
856.427480
21
-652.736220
31
0
0
LINE
8
1
10
833.021339
20
-652.736220
30
0
11
856.427480
21
-652.736220
31
0
0
LINE
8
1
10
700.147323
20
-606.870079
30
0
11
723.553465
21
-606.870079
31
0
0
LINE
8
1
10
700.147323
20
-606.870079
30
0
11
700.147323
21
-611.594488
31
0
0
LINE
8
1
10
723.553465
20
-606.870079
30
0
11
723.553465
21
-611.594488
31
0
0
LINE
8
1
10
700.147323
20
-611.594488
30
0
11
723.553465
21
-611.594488
31
0
0
LINE
8
1
10
700.147323
20
-648.011811
30
0
11
723.553465
21
-648.011811
31
0
0
LINE
8
1
10
700.147323
20
-648.011811
30
0
11
700.147323
21
-652.736220
31
0
0
LINE
8
1
10
723.553465
20
-648.011811
30
0
11
723.553465
21
-652.736220
31
0
0
LINE
8
1
10
700.147323
20
-652.736220
30
0
11
723.553465
21
-652.736220
31
0
0
LINE
8
1
10
345.855984
20
-606.870079
30
0
11
369.262126
21
-606.870079
31
0
0
LINE
8
1
10
345.855984
20
-606.870079
30
0
11
345.855984
21
-611.594488
31
0
0
LINE
8
1
10
369.262126
20
-606.870079
30
0
11
369.262126
21
-611.594488
31
0
0
LINE
8
1
10
345.855984
20
-611.594488
30
0
11
369.262126
21
-611.594488
31
0
0
LINE
8
1
10
345.855984
20
-648.011811
30
0
11
369.262126
21
-648.011811
31
0
0
LINE
8
1
10
345.855984
20
-648.011811
30
0
11
345.855984
21
-652.736220
31
0
0
LINE
8
1
10
369.262126
20
-648.011811
30
0
11
369.262126
21
-652.736220
31
0
0
LINE
8
1
10
345.855984
20
-652.736220
30
0
11
369.262126
21
-652.736220
31
0
0
LINE
8
1
10
426.338583
20
-770.669291
30
0
11
431.062992
21
-770.669291
31
0
0
LINE
8
1
10
426.338583
20
-770.669291
30
0
11
426.338583
21
-852.165354
31
0
0
LINE
8
1
10
431.062992
20
-770.669291
30
0
11
431.062992
21
-852.165354
31
0
0
LINE
8
1
10
426.338583
20
-852.165354
30
0
11
431.062992
21
-852.165354
31
0
0
LINE
8
1
10
426.338583
20
-847.440945
30
0
11
431.062992
21
-847.440945
31
0
0
LINE
8
1
10
426.338583
20
-847.440945
30
0
11
426.338583
21
-928.937008
31
0
0
LINE
8
1
10
431.062992
20
-847.440945
30
0
11
431.062992
21
-928.937008
31
0
0
LINE
8
1
10
426.338583
20
-928.937008
30
0
11
431.062992
21
-928.937008
31
0
0
LINE
8
1
10
824.763780
20
-770.669291
30
0
11
829.488189
21
-770.669291
31
0
0
LINE
8
1
10
824.763780
20
-770.669291
30
0
11
824.763780
21
-852.165354
31
0
0
LINE
8
1
10
829.488189
20
-770.669291
30
0
11
829.488189
21
-852.165354
31
0
0
LINE
8
1
10
824.763780
20
-852.165354
30
0
11
829.488189
21
-852.165354
31
0
0
LINE
8
1
10
824.763780
20
-847.440945
30
0
11
829.488189
21
-847.440945
31
0
0
LINE
8
1
10
824.763780
20
-847.440945
30
0
11
824.763780
21
-928.937008
31
0
0
LINE
8
1
10
829.488189
20
-847.440945
30
0
11
829.488189
21
-928.937008
31
0
0
LINE
8
1
10
824.763780
20
-928.937008
30
0
11
829.488189
21
-928.937008
31
0
0
LINE
8
1
10
822.598425
20
-731.692913
30
0
11
840.314961
21
-731.692913
31
0
0
LINE
8
1
10
822.598425
20
-731.692913
30
0
11
822.598425
21
-755.314961
31
0
0
LINE
8
1
10
840.314961
20
-731.692913
30
0
11
840.314961
21
-755.314961
31
0
0
LINE
8
1
10
822.598425
20
-755.314961
30
0
11
840.314961
21
-755.314961
31
0
0
LINE
8
1
10
848.858268
20
-964.258425
30
0
11
853.582677
21
-964.258425
31
0
0
LINE
8
1
10
848.858268
20
-964.258425
30
0
11
848.858268
21
-977.473858
31
0
0
LINE
8
1
10
853.582677
20
-964.258425
30
0
11
853.582677
21
-977.473858
31
0
0
LINE
8
1
10
848.858268
20
-977.473858
30
0
11
853.582677
21
-977.473858
31
0
0
LINE
8
1
10
877.204724
20
-964.258425
30
0
11
881.929134
21
-964.258425
31
0
0
LINE
8
1
10
877.204724
20
-964.258425
30
0
11
877.204724
21
-977.473858
31
0
0
LINE
8
1
10
881.929134
20
-964.258425
30
0
11
881.929134
21
-977.473858
31
0
0
LINE
8
1
10
877.204724
20
-977.473858
30
0
11
881.929134
21
-977.473858
31
0
0
LINE
8
1
10
242.559055
20
-2150.196850
30
0
11
247.283465
21
-2150.196850
31
0
0
LINE
8
1
10
242.559055
20
-2150.196850
30
0
11
242.559055
21
-2233.661417
31
0
0
LINE
8
1
10
247.283465
20
-2150.196850
30
0
11
247.283465
21
-2233.661417
31
0
0
LINE
8
1
10
242.559055
20
-2233.661417
30
0
11
247.283465
21
-2233.661417
31
0
0
LINE
8
1
10
242.559055
20
-2150.196850
30
0
11
405.157480
21
-2150.196850
31
0
0
LINE
8
1
10
242.559055
20
-2150.196850
30
0
11
242.559055
21
-2154.921260
31
0
0
LINE
8
1
10
405.157480
20
-2150.196850
30
0
11
405.157480
21
-2154.921260
31
0
0
LINE
8
1
10
242.559055
20
-2154.921260
30
0
11
405.157480
21
-2154.921260
31
0
0
LINE
8
1
10
242.559055
20
-2228.937008
30
0
11
405.157480
21
-2228.937008
31
0
0
LINE
8
1
10
242.559055
20
-2228.937008
30
0
11
242.559055
21
-2233.661417
31
0
0
LINE
8
1
10
405.157480
20
-2228.937008
30
0
11
405.157480
21
-2233.661417
31
0
0
LINE
8
1
10
242.559055
20
-2233.661417
30
0
11
405.157480
21
-2233.661417
31
0
0
LINE
8
1
10
987.548898
20
-1096.948819
30
0
11
1010.955039
21
-1096.948819
31
0
0
LINE
8
1
10
987.548898
20
-1096.948819
30
0
11
987.548898
21
-1101.673228
31
0
0
LINE
8
1
10
1010.955039
20
-1096.948819
30
0
11
1010.955039
21
-1101.673228
31
0
0
LINE
8
1
10
987.548898
20
-1101.673228
30
0
11
1010.955039
21
-1101.673228
31
0
0
LINE
8
1
10
987.548898
20
-1138.090551
30
0
11
1010.955039
21
-1138.090551
31
0
0
LINE
8
1
10
987.548898
20
-1138.090551
30
0
11
987.548898
21
-1142.814961
31
0
0
LINE
8
1
10
1010.955039
20
-1138.090551
30
0
11
1010.955039
21
-1142.814961
31
0
0
LINE
8
1
10
987.548898
20
-1142.814961
30
0
11
1010.955039
21
-1142.814961
31
0
0
LINE
8
1
10
1131.249685
20
-1096.555118
30
0
11
1154.655827
21
-1096.555118
31
0
0
LINE
8
1
10
1131.249685
20
-1096.555118
30
0
11
1131.249685
21
-1101.279528
31
0
0
LINE
8
1
10
1154.655827
20
-1096.555118
30
0
11
1154.655827
21
-1101.279528
31
0
0
LINE
8
1
10
1131.249685
20
-1101.279528
30
0
11
1154.655827
21
-1101.279528
31
0
0
LINE
8
1
10
1131.249685
20
-1137.696850
30
0
11
1154.655827
21
-1137.696850
31
0
0
LINE
8
1
10
1131.249685
20
-1137.696850
30
0
11
1131.249685
21
-1142.421260
31
0
0
LINE
8
1
10
1154.655827
20
-1137.696850
30
0
11
1154.655827
21
-1142.421260
31
0
0
LINE
8
1
10
1131.249685
20
-1142.421260
30
0
11
1154.655827
21
-1142.421260
31
0
0
LINE
8
1
10
1376.328425
20
-1096.161417
30
0
11
1399.734567
21
-1096.161417
31
0
0
LINE
8
1
10
1376.328425
20
-1096.161417
30
0
11
1376.328425
21
-1100.885827
31
0
0
LINE
8
1
10
1399.734567
20
-1096.161417
30
0
11
1399.734567
21
-1100.885827
31
0
0
LINE
8
1
10
1376.328425
20
-1100.885827
30
0
11
1399.734567
21
-1100.885827
31
0
0
LINE
8
1
10
1376.328425
20
-1137.303150
30
0
11
1399.734567
21
-1137.303150
31
0
0
LINE
8
1
10
1376.328425
20
-1137.303150
30
0
11
1376.328425
21
-1142.027559
31
0
0
LINE
8
1
10
1399.734567
20
-1137.303150
30
0
11
1399.734567
21
-1142.027559
31
0
0
LINE
8
1
10
1376.328425
20
-1142.027559
30
0
11
1399.734567
21
-1142.027559
31
0
0
LINE
8
1
10
248.858268
20
-1252.165354
30
0
11
401.614173
21
-1252.165354
31
0
0
LINE
8
1
10
248.858268
20
-1252.165354
30
0
11
248.858268
21
-1256.889764
31
0
0
LINE
8
1
10
401.614173
20
-1252.165354
30
0
11
401.614173
21
-1256.889764
31
0
0
LINE
8
1
10
248.858268
20
-1256.889764
30
0
11
401.614173
21
-1256.889764
31
0
0
LINE
8
1
10
248.858268
20
-1520.669291
30
0
11
401.614173
21
-1520.669291
31
0
0
LINE
8
1
10
248.858268
20
-1520.669291
30
0
11
248.858268
21
-1525.393701
31
0
0
LINE
8
1
10
401.614173
20
-1520.669291
30
0
11
401.614173
21
-1525.393701
31
0
0
LINE
8
1
10
248.858268
20
-1525.393701
30
0
11
401.614173
21
-1525.393701
31
0
0
LINE
8
1
10
396.889764
20
-1252.165354
30
0
11
401.614173
21
-1252.165354
31
0
0
LINE
8
1
10
396.889764
20
-1252.165354
30
0
11
396.889764
21
-1306.496063
31
0
0
LINE
8
1
10
401.614173
20
-1252.165354
30
0
11
401.614173
21
-1306.496063
31
0
0
LINE
8
1
10
396.889764
20
-1306.496063
30
0
11
401.614173
21
-1306.496063
31
0
0
LINE
8
1
10
396.889764
20
-1471.062992
30
0
11
401.614173
21
-1471.062992
31
0
0
LINE
8
1
10
396.889764
20
-1471.062992
30
0
11
396.889764
21
-1525.393701
31
0
0
LINE
8
1
10
401.614173
20
-1471.062992
30
0
11
401.614173
21
-1525.393701
31
0
0
LINE
8
1
10
396.889764
20
-1525.393701
30
0
11
401.614173
21
-1525.393701
31
0
0
LINE
8
1
10
189.015748
20
-1243.110236
30
0
11
212.637795
21
-1243.110236
31
0
0
LINE
8
1
10
189.015748
20
-1243.110236
30
0
11
189.015748
21
-1260.826772
31
0
0
LINE
8
1
10
212.637795
20
-1243.110236
30
0
11
212.637795
21
-1260.826772
31
0
0
LINE
8
1
10
189.015748
20
-1260.826772
30
0
11
212.637795
21
-1260.826772
31
0
0
LINE
8
1
10
1325.236220
20
-955.006457
30
0
11
1329.960630
21
-955.006457
31
0
0
LINE
8
1
10
1325.236220
20
-955.006457
30
0
11
1325.236220
21
-968.221890
31
0
0
LINE
8
1
10
1329.960630
20
-955.006457
30
0
11
1329.960630
21
-968.221890
31
0
0
LINE
8
1
10
1325.236220
20
-968.221890
30
0
11
1329.960630
21
-968.221890
31
0
0
LINE
8
1
10
1353.582677
20
-955.006457
30
0
11
1358.307087
21
-955.006457
31
0
0
LINE
8
1
10
1353.582677
20
-955.006457
30
0
11
1353.582677
21
-968.221890
31
0
0
LINE
8
1
10
1358.307087
20
-955.006457
30
0
11
1358.307087
21
-968.221890
31
0
0
LINE
8
1
10
1353.582677
20
-968.221890
30
0
11
1358.307087
21
-968.221890
31
0
0
LINE
8
1
10
1251.328425
20
-1096.161417
30
0
11
1274.734567
21
-1096.161417
31
0
0
LINE
8
1
10
1251.328425
20
-1096.161417
30
0
11
1251.328425
21
-1100.885827
31
0
0
LINE
8
1
10
1274.734567
20
-1096.161417
30
0
11
1274.734567
21
-1100.885827
31
0
0
LINE
8
1
10
1251.328425
20
-1100.885827
30
0
11
1274.734567
21
-1100.885827
31
0
0
LINE
8
1
10
1251.328425
20
-1137.303150
30
0
11
1274.734567
21
-1137.303150
31
0
0
LINE
8
1
10
1251.328425
20
-1137.303150
30
0
11
1251.328425
21
-1142.027559
31
0
0
LINE
8
1
10
1274.734567
20
-1137.303150
30
0
11
1274.734567
21
-1142.027559
31
0
0
LINE
8
1
10
1251.328425
20
-1142.027559
30
0
11
1274.734567
21
-1142.027559
31
0
0
LINE
8
1
10
1030.944882
20
-740.748031
30
0
11
1035.669291
21
-740.748031
31
0
0
LINE
8
1
10
1030.944882
20
-740.748031
30
0
11
1030.944882
21
-832.086614
31
0
0
LINE
8
1
10
1035.669291
20
-740.748031
30
0
11
1035.669291
21
-832.086614
31
0
0
LINE
8
1
10
1030.944882
20
-832.086614
30
0
11
1035.669291
21
-832.086614
31
0
0
LINE
8
1
10
1030.944882
20
-827.362205
30
0
11
1035.669291
21
-827.362205
31
0
0
LINE
8
1
10
1030.944882
20
-827.362205
30
0
11
1030.944882
21
-918.700787
31
0
0
LINE
8
1
10
1035.669291
20
-827.362205
30
0
11
1035.669291
21
-918.700787
31
0
0
LINE
8
1
10
1030.944882
20
-918.700787
30
0
11
1035.669291
21
-918.700787
31
0
0
LINE
8
1
10
1297.480315
20
-740.748031
30
0
11
1302.204724
21
-740.748031
31
0
0
LINE
8
1
10
1297.480315
20
-740.748031
30
0
11
1297.480315
21
-832.086614
31
0
0
LINE
8
1
10
1302.204724
20
-740.748031
30
0
11
1302.204724
21
-832.086614
31
0
0
LINE
8
1
10
1297.480315
20
-832.086614
30
0
11
1302.204724
21
-832.086614
31
0
0
LINE
8
1
10
1297.480315
20
-827.362205
30
0
11
1302.204724
21
-827.362205
31
0
0
LINE
8
1
10
1297.480315
20
-827.362205
30
0
11
1297.480315
21
-918.700787
31
0
0
LINE
8
1
10
1302.204724
20
-827.362205
30
0
11
1302.204724
21
-918.700787
31
0
0
LINE
8
1
10
1297.480315
20
-918.700787
30
0
11
1302.204724
21
-918.700787
31
0
0
LINE
8
1
10
1269.921260
20
-662.401575
30
0
11
1293.543307
21
-662.401575
31
0
0
LINE
8
1
10
1269.921260
20
-662.401575
30
0
11
1269.921260
21
-680.118110
31
0
0
LINE
8
1
10
1293.543307
20
-662.401575
30
0
11
1293.543307
21
-680.118110
31
0
0
LINE
8
1
10
1269.921260
20
-680.118110
30
0
11
1293.543307
21
-680.118110
31
0
0
LINE
8
1
10
1537.440945
20
-806.974961
30
0
11
1542.165354
21
-806.974961
31
0
0
LINE
8
1
10
1537.440945
20
-806.974961
30
0
11
1537.440945
21
-820.190394
31
0
0
LINE
8
1
10
1542.165354
20
-806.974961
30
0
11
1542.165354
21
-820.190394
31
0
0
LINE
8
1
10
1537.440945
20
-820.190394
30
0
11
1542.165354
21
-820.190394
31
0
0
LINE
8
1
10
1565.787402
20
-806.974961
30
0
11
1570.511811
21
-806.974961
31
0
0
LINE
8
1
10
1565.787402
20
-806.974961
30
0
11
1565.787402
21
-820.190394
31
0
0
LINE
8
1
10
1570.511811
20
-806.974961
30
0
11
1570.511811
21
-820.190394
31
0
0
LINE
8
1
10
1565.787402
20
-820.190394
30
0
11
1570.511811
21
-820.190394
31
0
0
LINE
8
1
10
1674.645669
20
-684.251969
30
0
11
1679.370079
21
-684.251969
31
0
0
LINE
8
1
10
1674.645669
20
-684.251969
30
0
11
1674.645669
21
-778.937008
31
0
0
LINE
8
1
10
1679.370079
20
-684.251969
30
0
11
1679.370079
21
-778.937008
31
0
0
LINE
8
1
10
1674.645669
20
-778.937008
30
0
11
1679.370079
21
-778.937008
31
0
0
LINE
8
1
10
1674.645669
20
-684.251969
30
0
11
1737.244094
21
-684.251969
31
0
0
LINE
8
1
10
1674.645669
20
-684.251969
30
0
11
1674.645669
21
-688.976378
31
0
0
LINE
8
1
10
1737.244094
20
-684.251969
30
0
11
1737.244094
21
-688.976378
31
0
0
LINE
8
1
10
1674.645669
20
-688.976378
30
0
11
1737.244094
21
-688.976378
31
0
0
LINE
8
1
10
1732.519685
20
-684.251969
30
0
11
1737.244094
21
-684.251969
31
0
0
LINE
8
1
10
1732.519685
20
-684.251969
30
0
11
1732.519685
21
-778.937008
31
0
0
LINE
8
1
10
1737.244094
20
-684.251969
30
0
11
1737.244094
21
-778.937008
31
0
0
LINE
8
1
10
1732.519685
20
-778.937008
30
0
11
1737.244094
21
-778.937008
31
0
0
LINE
8
1
10
1903.188976
20
-680.511811
30
0
11
1960.275591
21
-680.511811
31
0
0
LINE
8
1
10
1903.188976
20
-680.511811
30
0
11
1903.188976
21
-685.236220
31
0
0
LINE
8
1
10
1960.275591
20
-680.511811
30
0
11
1960.275591
21
-685.236220
31
0
0
LINE
8
1
10
1903.188976
20
-685.236220
30
0
11
1960.275591
21
-685.236220
31
0
0
LINE
8
1
10
1903.188976
20
-680.511811
30
0
11
1907.913386
21
-680.511811
31
0
0
LINE
8
1
10
1903.188976
20
-680.511811
30
0
11
1903.188976
21
-737.598425
31
0
0
LINE
8
1
10
1907.913386
20
-680.511811
30
0
11
1907.913386
21
-737.598425
31
0
0
LINE
8
1
10
1903.188976
20
-737.598425
30
0
11
1907.913386
21
-737.598425
31
0
0
LINE
8
1
10
1903.188976
20
-782.874016
30
0
11
1907.913386
21
-782.874016
31
0
0
LINE
8
1
10
1903.188976
20
-782.874016
30
0
11
1903.188976
21
-989.960630
31
0
0
LINE
8
1
10
1907.913386
20
-782.874016
30
0
11
1907.913386
21
-989.960630
31
0
0
LINE
8
1
10
1903.188976
20
-989.960630
30
0
11
1907.913386
21
-989.960630
31
0
0
LINE
8
1
10
1903.188976
20
-782.874016
30
0
11
2012.637795
21
-782.874016
31
0
0
LINE
8
1
10
1903.188976
20
-782.874016
30
0
11
1903.188976
21
-787.598425
31
0
0
LINE
8
1
10
2012.637795
20
-782.874016
30
0
11
2012.637795
21
-787.598425
31
0
0
LINE
8
1
10
1903.188976
20
-787.598425
30
0
11
2012.637795
21
-787.598425
31
0
0
LINE
8
1
10
1903.188976
20
-985.236220
30
0
11
2012.637795
21
-985.236220
31
0
0
LINE
8
1
10
1903.188976
20
-985.236220
30
0
11
1903.188976
21
-989.960630
31
0
0
LINE
8
1
10
2012.637795
20
-985.236220
30
0
11
2012.637795
21
-989.960630
31
0
0
LINE
8
1
10
1903.188976
20
-989.960630
30
0
11
2012.637795
21
-989.960630
31
0
0
LINE
8
1
10
2007.913386
20
-782.874016
30
0
11
2012.637795
21
-782.874016
31
0
0
LINE
8
1
10
2007.913386
20
-782.874016
30
0
11
2007.913386
21
-989.960630
31
0
0
LINE
8
1
10
2012.637795
20
-782.874016
30
0
11
2012.637795
21
-989.960630
31
0
0
LINE
8
1
10
2007.913386
20
-989.960630
30
0
11
2012.637795
21
-989.960630
31
0
0
LINE
8
1
10
301.162559
20
-2764.864567
30
0
11
317.559646
21
-2764.864567
31
0
0
LINE
8
1
10
301.162559
20
-2764.864567
30
0
11
301.162559
21
-2782.952874
31
0
0
LINE
8
1
10
317.559646
20
-2764.864567
30
0
11
317.559646
21
-2782.952874
31
0
0
LINE
8
1
10
301.162559
20
-2782.952874
30
0
11
317.559646
21
-2782.952874
31
0
0
LINE
8
1
10
408.523976
20
-2502.863150
30
0
11
431.115472
21
-2502.863150
31
0
0
LINE
8
1
10
408.523976
20
-2502.863150
30
0
11
408.523976
21
-2525.724685
31
0
0
LINE
8
1
10
431.115472
20
-2502.863150
30
0
11
431.115472
21
-2525.724685
31
0
0
LINE
8
1
10
408.523976
20
-2525.724685
30
0
11
431.115472
21
-2525.724685
31
0
0
LINE
8
1
10
456.669646
20
-2639.196693
30
0
11
479.925787
21
-2639.196693
31
0
0
LINE
8
1
10
456.669646
20
-2639.196693
30
0
11
456.669646
21
-2661.265079
31
0
0
LINE
8
1
10
479.925787
20
-2639.196693
30
0
11
479.925787
21
-2661.265079
31
0
0
LINE
8
1
10
456.669646
20
-2661.265079
30
0
11
479.925787
21
-2661.265079
31
0
0
LINE
8
1
10
437.109449
20
-2656.679449
30
0
11
469.620000
21
-2656.679449
31
0
0
LINE
8
1
10
437.109449
20
-2656.679449
30
0
11
437.109449
21
-2769.987874
31
0
0
LINE
8
1
10
469.620000
20
-2656.679449
30
0
11
469.620000
21
-2769.987874
31
0
0
LINE
8
1
10
437.109449
20
-2769.987874
30
0
11
469.620000
21
-2769.987874
31
0
0
LINE
8
1
10
326.473268
20
-2527.004252
30
0
11
402.310394
21
-2527.004252
31
0
0
LINE
8
1
10
326.473268
20
-2527.004252
30
0
11
326.473268
21
-2559.903504
31
0
0
LINE
8
1
10
402.310394
20
-2527.004252
30
0
11
402.310394
21
-2559.903504
31
0
0
LINE
8
1
10
326.473268
20
-2559.903504
30
0
11
402.310394
21
-2559.903504
31
0
0
LINE
8
1
10
135.703465
20
-2418.524173
30
0
11
509.942598
21
-2418.524173
31
0
0
LINE
8
1
10
135.703465
20
-2418.524173
30
0
11
135.703465
21
-2782.914646
31
0
0
LINE
8
1
10
509.942598
20
-2418.524173
30
0
11
509.942598
21
-2782.914646
31
0
0
LINE
8
1
10
135.703465
20
-2782.914646
30
0
11
509.942598
21
-2782.914646
31
0
0
LINE
8
1
10
1576.417323
20
-385.236220
30
0
11
1581.141732
21
-385.236220
31
0
0
LINE
8
1
10
1576.417323
20
-385.236220
30
0
11
1576.417323
21
-391.141732
31
0
0
LINE
8
1
10
1581.141732
20
-385.236220
30
0
11
1581.141732
21
-391.141732
31
0
0
LINE
8
1
10
1576.417323
20
-391.141732
30
0
11
1581.141732
21
-391.141732
31
0
0
LINE
8
1
10
1576.417323
20
-461.220472
30
0
11
1581.141732
21
-461.220472
31
0
0
LINE
8
1
10
1576.417323
20
-461.220472
30
0
11
1576.417323
21
-568.307087
31
0
0
LINE
8
1
10
1581.141732
20
-461.220472
30
0
11
1581.141732
21
-568.307087
31
0
0
LINE
8
1
10
1576.417323
20
-568.307087
30
0
11
1581.141732
21
-568.307087
31
0
0
LINE
8
1
10
1576.417323
20
-638.385827
30
0
11
1581.141732
21
-638.385827
31
0
0
LINE
8
1
10
1576.417323
20
-638.385827
30
0
11
1576.417323
21
-644.291339
31
0
0
LINE
8
1
10
1581.141732
20
-638.385827
30
0
11
1581.141732
21
-644.291339
31
0
0
LINE
8
1
10
1576.417323
20
-644.291339
30
0
11
1581.141732
21
-644.291339
31
0
0
LINE
8
1
10
1576.417323
20
-385.236220
30
0
11
1835.472441
21
-385.236220
31
0
0
LINE
8
1
10
1576.417323
20
-385.236220
30
0
11
1576.417323
21
-389.960630
31
0
0
LINE
8
1
10
1835.472441
20
-385.236220
30
0
11
1835.472441
21
-389.960630
31
0
0
LINE
8
1
10
1576.417323
20
-389.960630
30
0
11
1835.472441
21
-389.960630
31
0
0
LINE
8
1
10
1830.748031
20
-385.236220
30
0
11
1835.472441
21
-385.236220
31
0
0
LINE
8
1
10
1830.748031
20
-385.236220
30
0
11
1830.748031
21
-391.141732
31
0
0
LINE
8
1
10
1835.472441
20
-385.236220
30
0
11
1835.472441
21
-391.141732
31
0
0
LINE
8
1
10
1830.748031
20
-391.141732
30
0
11
1835.472441
21
-391.141732
31
0
0
LINE
8
1
10
1830.748031
20
-461.220472
30
0
11
1835.472441
21
-461.220472
31
0
0
LINE
8
1
10
1830.748031
20
-461.220472
30
0
11
1830.748031
21
-568.307087
31
0
0
LINE
8
1
10
1835.472441
20
-461.220472
30
0
11
1835.472441
21
-568.307087
31
0
0
LINE
8
1
10
1830.748031
20
-568.307087
30
0
11
1835.472441
21
-568.307087
31
0
0
LINE
8
1
10
1830.748031
20
-638.385827
30
0
11
1835.472441
21
-638.385827
31
0
0
LINE
8
1
10
1830.748031
20
-638.385827
30
0
11
1830.748031
21
-644.291339
31
0
0
LINE
8
1
10
1835.472441
20
-638.385827
30
0
11
1835.472441
21
-644.291339
31
0
0
LINE
8
1
10
1830.748031
20
-644.291339
30
0
11
1835.472441
21
-644.291339
31
0
0
LINE
8
1
10
1576.417323
20
-639.566929
30
0
11
1835.472441
21
-639.566929
31
0
0
LINE
8
1
10
1576.417323
20
-639.566929
30
0
11
1576.417323
21
-644.291339
31
0
0
LINE
8
1
10
1835.472441
20
-639.566929
30
0
11
1835.472441
21
-644.291339
31
0
0
LINE
8
1
10
1576.417323
20
-644.291339
30
0
11
1835.472441
21
-644.291339
31
0
0
LINE
8
1
10
1384.291339
20
-756.102362
30
0
11
1389.015748
21
-756.102362
31
0
0
LINE
8
1
10
1384.291339
20
-756.102362
30
0
11
1384.291339
21
-778.543307
31
0
0
LINE
8
1
10
1389.015748
20
-756.102362
30
0
11
1389.015748
21
-778.543307
31
0
0
LINE
8
1
10
1384.291339
20
-778.543307
30
0
11
1389.015748
21
-778.543307
31
0
0
LINE
8
1
10
1384.291339
20
-865.157480
30
0
11
1389.015748
21
-865.157480
31
0
0
LINE
8
1
10
1384.291339
20
-865.157480
30
0
11
1384.291339
21
-887.598425
31
0
0
LINE
8
1
10
1389.015748
20
-865.157480
30
0
11
1389.015748
21
-887.598425
31
0
0
LINE
8
1
10
1384.291339
20
-887.598425
30
0
11
1389.015748
21
-887.598425
31
0
0
LINE
8
1
10
1384.291339
20
-756.102362
30
0
11
1406.732283
21
-756.102362
31
0
0
LINE
8
1
10
1384.291339
20
-756.102362
30
0
11
1384.291339
21
-760.826772
31
0
0
LINE
8
1
10
1406.732283
20
-756.102362
30
0
11
1406.732283
21
-760.826772
31
0
0
LINE
8
1
10
1384.291339
20
-760.826772
30
0
11
1406.732283
21
-760.826772
31
0
0
LINE
8
1
10
1384.291339
20
-882.874016
30
0
11
1406.732283
21
-882.874016
31
0
0
LINE
8
1
10
1384.291339
20
-882.874016
30
0
11
1384.291339
21
-887.598425
31
0
0
LINE
8
1
10
1406.732283
20
-882.874016
30
0
11
1406.732283
21
-887.598425
31
0
0
LINE
8
1
10
1384.291339
20
-887.598425
30
0
11
1406.732283
21
-887.598425
31
0
0
LINE
8
1
10
1493.346457
20
-756.102362
30
0
11
1515.787402
21
-756.102362
31
0
0
LINE
8
1
10
1493.346457
20
-756.102362
30
0
11
1493.346457
21
-760.826772
31
0
0
LINE
8
1
10
1515.787402
20
-756.102362
30
0
11
1515.787402
21
-760.826772
31
0
0
LINE
8
1
10
1493.346457
20
-760.826772
30
0
11
1515.787402
21
-760.826772
31
0
0
LINE
8
1
10
1493.346457
20
-882.874016
30
0
11
1503.976378
21
-882.874016
31
0
0
LINE
8
1
10
1493.346457
20
-882.874016
30
0
11
1493.346457
21
-887.598425
31
0
0
LINE
8
1
10
1503.976378
20
-882.874016
30
0
11
1503.976378
21
-887.598425
31
0
0
LINE
8
1
10
1493.346457
20
-887.598425
30
0
11
1503.976378
21
-887.598425
31
0
0
LINE
8
1
10
1511.062992
20
-756.102362
30
0
11
1515.787402
21
-756.102362
31
0
0
LINE
8
1
10
1511.062992
20
-756.102362
30
0
11
1511.062992
21
-778.543307
31
0
0
LINE
8
1
10
1515.787402
20
-756.102362
30
0
11
1515.787402
21
-778.543307
31
0
0
LINE
8
1
10
1511.062992
20
-778.543307
30
0
11
1515.787402
21
-778.543307
31
0
0
LINE
8
1
10
1511.062992
20
-865.157480
30
0
11
1515.787402
21
-865.157480
31
0
0
LINE
8
1
10
1511.062992
20
-865.157480
30
0
11
1511.062992
21
-878.149606
31
0
0
LINE
8
1
10
1515.787402
20
-865.157480
30
0
11
1515.787402
21
-878.149606
31
0
0
LINE
8
1
10
1511.062992
20
-878.149606
30
0
11
1515.787402
21
-878.149606
31
0
0
LINE
8
1
10
1501.614173
20
-882.874016
30
0
11
1525.236220
21
-882.874016
31
0
0
LINE
8
1
10
1501.614173
20
-882.874016
30
0
11
1501.614173
21
-900.590551
31
0
0
LINE
8
1
10
1525.236220
20
-882.874016
30
0
11
1525.236220
21
-900.590551
31
0
0
LINE
8
1
10
1501.614173
20
-900.590551
30
0
11
1525.236220
21
-900.590551
31
0
0
LINE
8
1
10
1751.909449
20
-733.375669
30
0
11
1756.633858
21
-733.375669
31
0
0
LINE
8
1
10
1751.909449
20
-733.375669
30
0
11
1751.909449
21
-756.781811
31
0
0
LINE
8
1
10
1756.633858
20
-733.375669
30
0
11
1756.633858
21
-756.781811
31
0
0
LINE
8
1
10
1751.909449
20
-756.781811
30
0
11
1756.633858
21
-756.781811
31
0
0
LINE
8
1
10
1793.051181
20
-733.375669
30
0
11
1797.775591
21
-733.375669
31
0
0
LINE
8
1
10
1793.051181
20
-733.375669
30
0
11
1793.051181
21
-756.781811
31
0
0
LINE
8
1
10
1797.775591
20
-733.375669
30
0
11
1797.775591
21
-756.781811
31
0
0
LINE
8
1
10
1793.051181
20
-756.781811
30
0
11
1797.775591
21
-756.781811
31
0
0
LINE
8
1
10
2087.244094
20
-757.086614
30
0
11
2116.968504
21
-757.086614
31
0
0
LINE
8
1
10
2087.244094
20
-757.086614
30
0
11
2087.244094
21
-761.811024
31
0
0
LINE
8
1
10
2116.968504
20
-757.086614
30
0
11
2116.968504
21
-761.811024
31
0
0
LINE
8
1
10
2087.244094
20
-761.811024
30
0
11
2116.968504
21
-761.811024
31
0
0
LINE
8
1
10
2087.244094
20
-757.086614
30
0
11
2091.968504
21
-757.086614
31
0
0
LINE
8
1
10
2087.244094
20
-757.086614
30
0
11
2087.244094
21
-786.811024
31
0
0
LINE
8
1
10
2091.968504
20
-757.086614
30
0
11
2091.968504
21
-786.811024
31
0
0
LINE
8
1
10
2087.244094
20
-786.811024
30
0
11
2091.968504
21
-786.811024
31
0
0
CIRCLE
8
0
10
2157.913386
20
-2379.803150
30
0
40
72.834646
0
LINE
8
1
10
2109.772520
20
-2710.199488
30
0
11
2115.944016
21
-2710.199488
31
0
0
LINE
8
1
10
2109.772520
20
-2710.199488
30
0
11
2109.772520
21
-2739.353346
31
0
0
LINE
8
1
10
2115.944016
20
-2710.199488
30
0
11
2115.944016
21
-2739.353346
31
0
0
LINE
8
1
10
2109.772520
20
-2739.353346
30
0
11
2115.944016
21
-2739.353346
31
0
0
LINE
8
1
10
1828.661417
20
-2710.339488
30
0
11
1834.832874
21
-2710.339488
31
0
0
LINE
8
1
10
1828.661417
20
-2710.339488
30
0
11
1828.661417
21
-2739.367992
31
0
0
LINE
8
1
10
1834.832874
20
-2710.339488
30
0
11
1834.832874
21
-2739.367992
31
0
0
LINE
8
1
10
1828.661417
20
-2739.367992
30
0
11
1834.832874
21
-2739.367992
31
0
0
LINE
8
1
10
1838.230394
20
-2503.644724
30
0
11
1875.146220
21
-2503.644724
31
0
0
LINE
8
1
10
1838.230394
20
-2503.644724
30
0
11
1838.230394
21
-2540.744843
31
0
0
LINE
8
1
10
1875.146220
20
-2503.644724
30
0
11
1875.146220
21
-2540.744843
31
0
0
LINE
8
1
10
1838.230394
20
-2540.744843
30
0
11
1875.146220
21
-2540.744843
31
0
0
LINE
8
1
10
2124.752953
20
-2710.199488
30
0
11
2156.321220
21
-2710.199488
31
0
0
LINE
8
1
10
2124.752953
20
-2710.199488
30
0
11
2124.752953
21
-2739.374488
31
0
0
LINE
8
1
10
2156.321220
20
-2710.199488
30
0
11
2156.321220
21
-2739.374488
31
0
0
LINE
8
1
10
2124.752953
20
-2739.374488
30
0
11
2156.321220
21
-2739.374488
31
0
0
LINE
8
1
10
2165.064606
20
-2710.308819
30
0
11
2196.610669
21
-2710.308819
31
0
0
LINE
8
1
10
2165.064606
20
-2710.308819
30
0
11
2165.064606
21
-2739.390000
31
0
0
LINE
8
1
10
2196.610669
20
-2710.308819
30
0
11
2196.610669
21
-2739.390000
31
0
0
LINE
8
1
10
2165.064606
20
-2739.390000
30
0
11
2196.610669
21
-2739.390000
31
0
0
LINE
8
1
10
1980.661417
20
-2710.207480
30
0
11
2012.567047
21
-2710.207480
31
0
0
LINE
8
1
10
1980.661417
20
-2710.207480
30
0
11
1980.661417
21
-2739.482087
31
0
0
LINE
8
1
10
2012.567047
20
-2710.207480
30
0
11
2012.567047
21
-2739.482087
31
0
0
LINE
8
1
10
1980.661417
20
-2739.482087
30
0
11
2012.567047
21
-2739.482087
31
0
0
LINE
8
1
10
1701.540551
20
-2710.183189
30
0
11
1733.055118
21
-2710.183189
31
0
0
LINE
8
1
10
1701.540551
20
-2710.183189
30
0
11
1701.540551
21
-2739.482087
31
0
0
LINE
8
1
10
1733.055118
20
-2710.183189
30
0
11
1733.055118
21
-2739.482087
31
0
0
LINE
8
1
10
1701.540551
20
-2739.482087
30
0
11
1733.055118
21
-2739.482087
31
0
0
LINE
8
1
10
1893.994724
20
-2710.131614
30
0
11
1925.906772
21
-2710.131614
31
0
0
LINE
8
1
10
1893.994724
20
-2710.131614
30
0
11
1893.994724
21
-2739.473976
31
0
0
LINE
8
1
10
1925.906772
20
-2710.131614
30
0
11
1925.906772
21
-2739.473976
31
0
0
LINE
8
1
10
1893.994724
20
-2739.473976
30
0
11
1925.906772
21
-2739.473976
31
0
0
LINE
8
1
10
1847.328425
20
-2710.243780
30
0
11
1881.055118
21
-2710.243780
31
0
0
LINE
8
1
10
1847.328425
20
-2710.243780
30
0
11
1847.328425
21
-2739.396575
31
0
0
LINE
8
1
10
1881.055118
20
-2710.243780
30
0
11
1881.055118
21
-2739.396575
31
0
0
LINE
8
1
10
1847.328425
20
-2739.396575
30
0
11
1881.055118
21
-2739.396575
31
0
0
LINE
8
1
10
1940.661417
20
-2710.199488
30
0
11
1967.721772
21
-2710.199488
31
0
0
LINE
8
1
10
1940.661417
20
-2710.199488
30
0
11
1940.661417
21
-2739.482087
31
0
0
LINE
8
1
10
1967.721772
20
-2710.199488
30
0
11
1967.721772
21
-2739.482087
31
0
0
LINE
8
1
10
1940.661417
20
-2739.482087
30
0
11
1967.721772
21
-2739.482087
31
0
0
LINE
8
1
10
1745.994724
20
-2710.199488
30
0
11
1773.499567
21
-2710.199488
31
0
0
LINE
8
1
10
1745.994724
20
-2710.199488
30
0
11
1745.994724
21
-2739.482087
31
0
0
LINE
8
1
10
1773.499567
20
-2710.199488
30
0
11
1773.499567
21
-2739.482087
31
0
0
LINE
8
1
10
1745.994724
20
-2739.482087
30
0
11
1773.499567
21
-2739.482087
31
0
0
LINE
8
1
10
2054.969724
20
-2710.256063
30
0
11
2099.021181
21
-2710.256063
31
0
0
LINE
8
1
10
2054.969724
20
-2710.256063
30
0
11
2054.969724
21
-2739.452835
31
0
0
LINE
8
1
10
2099.021181
20
-2710.256063
30
0
11
2099.021181
21
-2739.452835
31
0
0
LINE
8
1
10
2054.969724
20
-2739.452835
30
0
11
2099.021181
21
-2739.452835
31
0
0
LINE
8
1
10
1784.216969
20
-2710.171929
30
0
11
1815.721772
21
-2710.171929
31
0
0
LINE
8
1
10
1784.216969
20
-2710.171929
30
0
11
1784.216969
21
-2739.418031
31
0
0
LINE
8
1
10
1815.721772
20
-2710.171929
30
0
11
1815.721772
21
-2739.418031
31
0
0
LINE
8
1
10
1784.216969
20
-2739.418031
30
0
11
1815.721772
21
-2739.418031
31
0
0
LINE
8
1
10
1896.788031
20
-2540.018346
30
0
11
1998.912402
21
-2540.018346
31
0
0
LINE
8
1
10
1896.788031
20
-2540.018346
30
0
11
1896.788031
21
-2679.427874
31
0
0
LINE
8
1
10
1998.912402
20
-2540.018346
30
0
11
1998.912402
21
-2679.427874
31
0
0
LINE
8
1
10
1896.788031
20
-2679.427874
30
0
11
1998.912402
21
-2679.427874
31
0
0
LINE
8
1
10
2098.819134
20
-2533.755039
30
0
11
2196.618268
21
-2533.755039
31
0
0
LINE
8
1
10
2098.819134
20
-2533.755039
30
0
11
2098.819134
21
-2679.314291
31
0
0
LINE
8
1
10
2196.618268
20
-2533.755039
30
0
11
2196.618268
21
-2679.314291
31
0
0
LINE
8
1
10
2098.819134
20
-2679.314291
30
0
11
2196.618268
21
-2679.314291
31
0
0
LINE
8
1
10
1998.749803
20
-2575.979882
30
0
11
2091.277323
21
-2575.979882
31
0
0
LINE
8
1
10
1998.749803
20
-2575.979882
30
0
11
1998.749803
21
-2679.316772
31
0
0
LINE
8
1
10
2091.277323
20
-2575.979882
30
0
11
2091.277323
21
-2679.316772
31
0
0
LINE
8
1
10
1998.749803
20
-2679.316772
30
0
11
2091.277323
21
-2679.316772
31
0
0
LINE
8
1
10
1701.546929
20
-2518.199488
30
0
11
1887.721772
21
-2518.199488
31
0
0
LINE
8
1
10
1701.546929
20
-2518.199488
30
0
11
1701.546929
21
-2697.698740
31
0
0
LINE
8
1
10
1887.721772
20
-2518.199488
30
0
11
1887.721772
21
-2697.698740
31
0
0
LINE
8
1
10
1701.546929
20
-2697.698740
30
0
11
1887.721772
21
-2697.698740
31
0
0
CIRCLE
8
0
10
157.913386
20
-2379.803150
30
0
40
72.834646
0
LINE
8
1
10
322.077520
20
-938.177874
30
0
11
344.009685
21
-938.177874
31
0
0
LINE
8
1
10
322.077520
20
-938.177874
30
0
11
322.077520
21
-970.817677
31
0
0
LINE
8
1
10
344.009685
20
-938.177874
30
0
11
344.009685
21
-970.817677
31
0
0
LINE
8
1
10
322.077520
20
-970.817677
30
0
11
344.009685
21
-970.817677
31
0
0
LINE
8
1
10
111.980433
20
-936.276063
30
0
11
136.317362
21
-936.276063
31
0
0
LINE
8
1
10
111.980433
20
-936.276063
30
0
11
111.980433
21
-971.585748
31
0
0
LINE
8
1
10
136.317362
20
-936.276063
30
0
11
136.317362
21
-971.585748
31
0
0
LINE
8
1
10
111.980433
20
-971.585748
30
0
11
136.317362
21
-971.585748
31
0
0
LINE
8
1
10
211.352205
20
-938.197323
30
0
11
233.811102
21
-938.197323
31
0
0
LINE
8
1
10
211.352205
20
-938.197323
30
0
11
211.352205
21
-970.817677
31
0
0
LINE
8
1
10
233.811102
20
-938.197323
30
0
11
233.811102
21
-970.817677
31
0
0
LINE
8
1
10
211.352205
20
-970.817677
30
0
11
233.811102
21
-970.817677
31
0
0
LINE
8
1
10
158.231378
20
-926.702205
30
0
11
180.932756
21
-926.702205
31
0
0
LINE
8
1
10
158.231378
20
-926.702205
30
0
11
158.231378
21
-970.817677
31
0
0
LINE
8
1
10
180.932756
20
-926.702205
30
0
11
180.932756
21
-970.817677
31
0
0
LINE
8
1
10
158.231378
20
-970.817677
30
0
11
180.932756
21
-970.817677
31
0
0
LINE
8
1
10
264.385236
20
-938.116299
30
0
11
291.702008
21
-938.116299
31
0
0
LINE
8
1
10
264.385236
20
-938.116299
30
0
11
264.385236
21
-970.670394
31
0
0
LINE
8
1
10
291.702008
20
-938.116299
30
0
11
291.702008
21
-970.670394
31
0
0
LINE
8
1
10
264.385236
20
-970.670394
30
0
11
291.702008
21
-970.670394
31
0
0
LINE
8
1
10
23.615984
20
-936.248150
30
0
11
48.630236
21
-936.248150
31
0
0
LINE
8
1
10
23.615984
20
-936.248150
30
0
11
23.615984
21
-970.844488
31
0
0
LINE
8
1
10
48.630236
20
-936.248150
30
0
11
48.630236
21
-970.844488
31
0
0
LINE
8
1
10
23.615984
20
-970.844488
30
0
11
48.630236
21
-970.844488
31
0
0
LINE
8
1
10
348.236457
20
-938.280157
30
0
11
370.163543
21
-938.280157
31
0
0
LINE
8
1
10
348.236457
20
-938.280157
30
0
11
348.236457
21
-970.629567
31
0
0
LINE
8
1
10
370.163543
20
-938.280157
30
0
11
370.163543
21
-970.629567
31
0
0
LINE
8
1
10
348.236457
20
-970.629567
30
0
11
370.163543
21
-970.629567
31
0
0
LINE
8
1
10
237.464528
20
-926.652087
30
0
11
260.163543
21
-926.652087
31
0
0
LINE
8
1
10
237.464528
20
-926.652087
30
0
11
237.464528
21
-970.795236
31
0
0
LINE
8
1
10
260.163543
20
-926.652087
30
0
11
260.163543
21
-970.795236
31
0
0
LINE
8
1
10
237.464528
20
-970.795236
30
0
11
260.163543
21
-970.795236
31
0
0
LINE
8
1
10
82.095000
20
-936.361142
30
0
11
107.129094
21
-936.361142
31
0
0
LINE
8
1
10
82.095000
20
-936.361142
30
0
11
82.095000
21
-970.828110
31
0
0
LINE
8
1
10
107.129094
20
-936.361142
30
0
11
107.129094
21
-970.828110
31
0
0
LINE
8
1
10
82.095000
20
-970.828110
30
0
11
107.129094
21
-970.828110
31
0
0
LINE
8
1
10
185.154449
20
-938.248031
30
0
11
207.997677
21
-938.248031
31
0
0
LINE
8
1
10
185.154449
20
-938.248031
30
0
11
185.154449
21
-970.817677
31
0
0
LINE
8
1
10
207.997677
20
-938.248031
30
0
11
207.997677
21
-970.817677
31
0
0
LINE
8
1
10
185.154449
20
-970.817677
30
0
11
207.997677
21
-970.817677
31
0
0
LINE
8
1
10
52.899016
20
-936.327638
30
0
11
77.855827
21
-936.327638
31
0
0
LINE
8
1
10
52.899016
20
-936.327638
30
0
11
52.899016
21
-982.300079
31
0
0
LINE
8
1
10
77.855827
20
-936.327638
30
0
11
77.855827
21
-982.300079
31
0
0
LINE
8
1
10
52.899016
20
-982.300079
30
0
11
77.855827
21
-982.300079
31
0
0
LINE
8
1
10
295.856417
20
-938.116299
30
0
11
317.855827
21
-938.116299
31
0
0
LINE
8
1
10
295.856417
20
-938.116299
30
0
11
295.856417
21
-970.817677
31
0
0
LINE
8
1
10
317.855827
20
-938.116299
30
0
11
317.855827
21
-970.817677
31
0
0
LINE
8
1
10
295.856417
20
-970.817677
30
0
11
317.855827
21
-970.817677
31
0
0
LINE
8
1
10
75.154449
20
-688.885512
30
0
11
318.625079
21
-688.885512
31
0
0
LINE
8
1
10
75.154449
20
-688.885512
30
0
11
75.154449
21
-907.740787
31
0
0
LINE
8
1
10
318.625079
20
-688.885512
30
0
11
318.625079
21
-907.740787
31
0
0
LINE
8
1
10
75.154449
20
-907.740787
30
0
11
318.625079
21
-907.740787
31
0
0
CIRCLE
8
0
10
2157.913386
20
-379.803150
30
0
40
72.834646
0
CIRCLE
8
0
10
157.913386
20
-379.803150
30
0
40
72.834646
0
LINE
8
1
10
558.808740
20
-1050.492126
30
0
11
582.214882
21
-1050.492126
31
0
0
LINE
8
1
10
558.808740
20
-1050.492126
30
0
11
558.808740
21
-1055.216535
31
0
0
LINE
8
1
10
582.214882
20
-1050.492126
30
0
11
582.214882
21
-1055.216535
31
0
0
LINE
8
1
10
558.808740
20
-1055.216535
30
0
11
582.214882
21
-1055.216535
31
0
0
LINE
8
1
10
558.808740
20
-1091.633858
30
0
11
582.214882
21
-1091.633858
31
0
0
LINE
8
1
10
558.808740
20
-1091.633858
30
0
11
558.808740
21
-1096.358268
31
0
0
LINE
8
1
10
582.214882
20
-1091.633858
30
0
11
582.214882
21
-1096.358268
31
0
0
LINE
8
1
10
558.808740
20
-1096.358268
30
0
11
582.214882
21
-1096.358268
31
0
0
ENDSEC
0
EOF
