0
SECTION
2
ENTITIES
0
LINE
8
0
10
0.000000
20
0.000000
30
0
11
2337.834646
21
0.000000
31
0
0
LINE
8
0
10
0.000000
20
0.000000
30
0
11
0.000000
21
-2812.992126
31
0
0
LINE
8
0
10
2337.834646
20
0.000000
30
0
11
2337.834646
21
-2812.992126
31
0
0
LINE
8
0
10
0.000000
20
-2812.992126
30
0
11
2337.834646
21
-2812.992126
31
0
0
CIRCLE
8
0
10
157.913386
20
-2379.803150
30
0
40
72.834646
0
CIRCLE
8
0
10
2157.913386
20
-379.803150
30
0
40
72.834646
0
CIRCLE
8
0
10
157.913386
20
-379.803150
30
0
40
72.834646
0
LINE
8
1
10
304.911535
20
-2745.596614
30
0
11
326.910945
21
-2745.596614
31
0
0
LINE
8
1
10
304.911535
20
-2745.596614
30
0
11
304.911535
21
-2778.297992
31
0
0
LINE
8
1
10
326.910945
20
-2745.596614
30
0
11
326.910945
21
-2778.297992
31
0
0
LINE
8
1
10
304.911535
20
-2778.297992
30
0
11
326.910945
21
-2778.297992
31
0
0
LINE
8
1
10
91.150118
20
-2743.841457
30
0
11
116.184213
21
-2743.841457
31
0
0
LINE
8
1
10
91.150118
20
-2743.841457
30
0
11
91.150118
21
-2778.308425
31
0
0
LINE
8
1
10
116.184213
20
-2743.841457
30
0
11
116.184213
21
-2778.308425
31
0
0
LINE
8
1
10
91.150118
20
-2778.308425
30
0
11
116.184213
21
-2778.308425
31
0
0
LINE
8
1
10
167.286496
20
-2734.182520
30
0
11
189.987874
21
-2734.182520
31
0
0
LINE
8
1
10
167.286496
20
-2734.182520
30
0
11
167.286496
21
-2778.297992
31
0
0
LINE
8
1
10
189.987874
20
-2734.182520
30
0
11
189.987874
21
-2778.297992
31
0
0
LINE
8
1
10
167.286496
20
-2778.297992
30
0
11
189.987874
21
-2778.297992
31
0
0
LINE
8
1
10
84.209567
20
-2496.365827
30
0
11
327.680197
21
-2496.365827
31
0
0
LINE
8
1
10
84.209567
20
-2496.365827
30
0
11
84.209567
21
-2715.221102
31
0
0
LINE
8
1
10
327.680197
20
-2496.365827
30
0
11
327.680197
21
-2715.221102
31
0
0
LINE
8
1
10
84.209567
20
-2715.221102
30
0
11
327.680197
21
-2715.221102
31
0
0
LINE
8
1
10
194.209567
20
-2745.728346
30
0
11
217.052795
21
-2745.728346
31
0
0
LINE
8
1
10
194.209567
20
-2745.728346
30
0
11
194.209567
21
-2778.297992
31
0
0
LINE
8
1
10
217.052795
20
-2745.728346
30
0
11
217.052795
21
-2778.297992
31
0
0
LINE
8
1
10
194.209567
20
-2778.297992
30
0
11
217.052795
21
-2778.297992
31
0
0
LINE
8
1
10
331.132638
20
-2745.658189
30
0
11
353.064803
21
-2745.658189
31
0
0
LINE
8
1
10
331.132638
20
-2745.658189
30
0
11
331.132638
21
-2778.297992
31
0
0
LINE
8
1
10
353.064803
20
-2745.658189
30
0
11
353.064803
21
-2778.297992
31
0
0
LINE
8
1
10
331.132638
20
-2778.297992
30
0
11
353.064803
21
-2778.297992
31
0
0
LINE
8
1
10
220.407323
20
-2745.677638
30
0
11
242.866220
21
-2745.677638
31
0
0
LINE
8
1
10
220.407323
20
-2745.677638
30
0
11
220.407323
21
-2778.297992
31
0
0
LINE
8
1
10
242.866220
20
-2745.677638
30
0
11
242.866220
21
-2778.297992
31
0
0
LINE
8
1
10
220.407323
20
-2778.297992
30
0
11
242.866220
21
-2778.297992
31
0
0
LINE
8
1
10
32.671102
20
-2743.728465
30
0
11
57.685354
21
-2743.728465
31
0
0
LINE
8
1
10
32.671102
20
-2743.728465
30
0
11
32.671102
21
-2778.324803
31
0
0
LINE
8
1
10
57.685354
20
-2743.728465
30
0
11
57.685354
21
-2778.324803
31
0
0
LINE
8
1
10
32.671102
20
-2778.324803
30
0
11
57.685354
21
-2778.324803
31
0
0
LINE
8
1
10
246.519646
20
-2734.132402
30
0
11
269.218661
21
-2734.132402
31
0
0
LINE
8
1
10
246.519646
20
-2734.132402
30
0
11
246.519646
21
-2778.275551
31
0
0
LINE
8
1
10
269.218661
20
-2734.132402
30
0
11
269.218661
21
-2778.275551
31
0
0
LINE
8
1
10
246.519646
20
-2778.275551
30
0
11
269.218661
21
-2778.275551
31
0
0
LINE
8
1
10
273.440354
20
-2745.596614
30
0
11
300.757126
21
-2745.596614
31
0
0
LINE
8
1
10
273.440354
20
-2745.596614
30
0
11
273.440354
21
-2778.150709
31
0
0
LINE
8
1
10
300.757126
20
-2745.596614
30
0
11
300.757126
21
-2778.150709
31
0
0
LINE
8
1
10
273.440354
20
-2778.150709
30
0
11
300.757126
21
-2778.150709
31
0
0
LINE
8
1
10
61.954134
20
-2743.807953
30
0
11
86.910945
21
-2743.807953
31
0
0
LINE
8
1
10
61.954134
20
-2743.807953
30
0
11
61.954134
21
-2789.780394
31
0
0
LINE
8
1
10
86.910945
20
-2743.807953
30
0
11
86.910945
21
-2789.780394
31
0
0
LINE
8
1
10
61.954134
20
-2789.780394
30
0
11
86.910945
21
-2789.780394
31
0
0
LINE
8
1
10
121.035551
20
-2743.756378
30
0
11
145.372480
21
-2743.756378
31
0
0
LINE
8
1
10
121.035551
20
-2743.756378
30
0
11
121.035551
21
-2779.066063
31
0
0
LINE
8
1
10
145.372480
20
-2743.756378
30
0
11
145.372480
21
-2779.066063
31
0
0
LINE
8
1
10
121.035551
20
-2779.066063
30
0
11
145.372480
21
-2779.066063
31
0
0
LINE
8
1
10
357.291575
20
-2745.760472
30
0
11
379.218661
21
-2745.760472
31
0
0
LINE
8
1
10
357.291575
20
-2745.760472
30
0
11
357.291575
21
-2778.109882
31
0
0
LINE
8
1
10
379.218661
20
-2745.760472
30
0
11
379.218661
21
-2778.109882
31
0
0
LINE
8
1
10
357.291575
20
-2778.109882
30
0
11
379.218661
21
-2778.109882
31
0
0
LINE
8
1
10
1827.874016
20
-2710.339488
30
0
11
1834.045472
21
-2710.339488
31
0
0
LINE
8
1
10
1827.874016
20
-2710.339488
30
0
11
1827.874016
21
-2739.367992
31
0
0
LINE
8
1
10
1834.045472
20
-2710.339488
30
0
11
1834.045472
21
-2739.367992
31
0
0
LINE
8
1
10
1827.874016
20
-2739.367992
30
0
11
1834.045472
21
-2739.367992
31
0
0
LINE
8
1
10
1979.874016
20
-2710.207480
30
0
11
2011.779646
21
-2710.207480
31
0
0
LINE
8
1
10
1979.874016
20
-2710.207480
30
0
11
1979.874016
21
-2739.482087
31
0
0
LINE
8
1
10
2011.779646
20
-2710.207480
30
0
11
2011.779646
21
-2739.482087
31
0
0
LINE
8
1
10
1979.874016
20
-2739.482087
30
0
11
2011.779646
21
-2739.482087
31
0
0
LINE
8
1
10
1700.753150
20
-2710.183189
30
0
11
1732.267717
21
-2710.183189
31
0
0
LINE
8
1
10
1700.753150
20
-2710.183189
30
0
11
1700.753150
21
-2739.482087
31
0
0
LINE
8
1
10
1732.267717
20
-2710.183189
30
0
11
1732.267717
21
-2739.482087
31
0
0
LINE
8
1
10
1700.753150
20
-2739.482087
30
0
11
1732.267717
21
-2739.482087
31
0
0
LINE
8
1
10
1939.874016
20
-2710.199488
30
0
11
1966.934370
21
-2710.199488
31
0
0
LINE
8
1
10
1939.874016
20
-2710.199488
30
0
11
1939.874016
21
-2739.482087
31
0
0
LINE
8
1
10
1966.934370
20
-2710.199488
30
0
11
1966.934370
21
-2739.482087
31
0
0
LINE
8
1
10
1939.874016
20
-2739.482087
30
0
11
1966.934370
21
-2739.482087
31
0
0
LINE
8
1
10
1745.207323
20
-2710.199488
30
0
11
1772.712165
21
-2710.199488
31
0
0
LINE
8
1
10
1745.207323
20
-2710.199488
30
0
11
1745.207323
21
-2739.482087
31
0
0
LINE
8
1
10
1772.712165
20
-2710.199488
30
0
11
1772.712165
21
-2739.482087
31
0
0
LINE
8
1
10
1745.207323
20
-2739.482087
30
0
11
1772.712165
21
-2739.482087
31
0
0
LINE
8
1
10
1783.429567
20
-2710.171929
30
0
11
1814.934370
21
-2710.171929
31
0
0
LINE
8
1
10
1783.429567
20
-2710.171929
30
0
11
1783.429567
21
-2739.418031
31
0
0
LINE
8
1
10
1814.934370
20
-2710.171929
30
0
11
1814.934370
21
-2739.418031
31
0
0
LINE
8
1
10
1783.429567
20
-2739.418031
30
0
11
1814.934370
21
-2739.418031
31
0
0
LINE
8
1
10
1846.541024
20
-2710.243780
30
0
11
1880.267717
21
-2710.243780
31
0
0
LINE
8
1
10
1846.541024
20
-2710.243780
30
0
11
1846.541024
21
-2739.396575
31
0
0
LINE
8
1
10
1880.267717
20
-2710.243780
30
0
11
1880.267717
21
-2739.396575
31
0
0
LINE
8
1
10
1846.541024
20
-2739.396575
30
0
11
1880.267717
21
-2739.396575
31
0
0
LINE
8
1
10
1700.759528
20
-2518.199488
30
0
11
1886.934370
21
-2518.199488
31
0
0
LINE
8
1
10
1700.759528
20
-2518.199488
30
0
11
1700.759528
21
-2697.698740
31
0
0
LINE
8
1
10
1886.934370
20
-2518.199488
30
0
11
1886.934370
21
-2697.698740
31
0
0
LINE
8
1
10
1700.759528
20
-2697.698740
30
0
11
1886.934370
21
-2697.698740
31
0
0
LINE
8
1
10
1893.207323
20
-2710.131614
30
0
11
1925.119370
21
-2710.131614
31
0
0
LINE
8
1
10
1893.207323
20
-2710.131614
30
0
11
1893.207323
21
-2739.473976
31
0
0
LINE
8
1
10
1925.119370
20
-2710.131614
30
0
11
1925.119370
21
-2739.473976
31
0
0
LINE
8
1
10
1893.207323
20
-2739.473976
30
0
11
1925.119370
21
-2739.473976
31
0
0
LINE
8
1
10
1837.442992
20
-2503.644724
30
0
11
1874.358819
21
-2503.644724
31
0
0
LINE
8
1
10
1837.442992
20
-2503.644724
30
0
11
1837.442992
21
-2540.744843
31
0
0
LINE
8
1
10
1874.358819
20
-2503.644724
30
0
11
1874.358819
21
-2540.744843
31
0
0
LINE
8
1
10
1837.442992
20
-2540.744843
30
0
11
1874.358819
21
-2540.744843
31
0
0
LINE
8
1
10
2108.985118
20
-2710.199488
30
0
11
2115.156614
21
-2710.199488
31
0
0
LINE
8
1
10
2108.985118
20
-2710.199488
30
0
11
2108.985118
21
-2739.353346
31
0
0
LINE
8
1
10
2115.156614
20
-2710.199488
30
0
11
2115.156614
21
-2739.353346
31
0
0
LINE
8
1
10
2108.985118
20
-2739.353346
30
0
11
2115.156614
21
-2739.353346
31
0
0
LINE
8
1
10
1997.962402
20
-2575.979882
30
0
11
2090.489921
21
-2575.979882
31
0
0
LINE
8
1
10
1997.962402
20
-2575.979882
30
0
11
1997.962402
21
-2679.316772
31
0
0
LINE
8
1
10
2090.489921
20
-2575.979882
30
0
11
2090.489921
21
-2679.316772
31
0
0
LINE
8
1
10
1997.962402
20
-2679.316772
30
0
11
2090.489921
21
-2679.316772
31
0
0
LINE
8
1
10
2123.965551
20
-2710.199488
30
0
11
2155.533819
21
-2710.199488
31
0
0
LINE
8
1
10
2123.965551
20
-2710.199488
30
0
11
2123.965551
21
-2739.374488
31
0
0
LINE
8
1
10
2155.533819
20
-2710.199488
30
0
11
2155.533819
21
-2739.374488
31
0
0
LINE
8
1
10
2123.965551
20
-2739.374488
30
0
11
2155.533819
21
-2739.374488
31
0
0
LINE
8
1
10
1896.000630
20
-2540.018346
30
0
11
1998.125000
21
-2540.018346
31
0
0
LINE
8
1
10
1896.000630
20
-2540.018346
30
0
11
1896.000630
21
-2679.427874
31
0
0
LINE
8
1
10
1998.125000
20
-2540.018346
30
0
11
1998.125000
21
-2679.427874
31
0
0
LINE
8
1
10
1896.000630
20
-2679.427874
30
0
11
1998.125000
21
-2679.427874
31
0
0
LINE
8
1
10
2098.031732
20
-2533.755039
30
0
11
2195.830866
21
-2533.755039
31
0
0
LINE
8
1
10
2098.031732
20
-2533.755039
30
0
11
2098.031732
21
-2679.314291
31
0
0
LINE
8
1
10
2195.830866
20
-2533.755039
30
0
11
2195.830866
21
-2679.314291
31
0
0
LINE
8
1
10
2098.031732
20
-2679.314291
30
0
11
2195.830866
21
-2679.314291
31
0
0
LINE
8
1
10
2164.277205
20
-2710.308819
30
0
11
2195.823268
21
-2710.308819
31
0
0
LINE
8
1
10
2164.277205
20
-2710.308819
30
0
11
2164.277205
21
-2739.390000
31
0
0
LINE
8
1
10
2195.823268
20
-2710.308819
30
0
11
2195.823268
21
-2739.390000
31
0
0
LINE
8
1
10
2164.277205
20
-2739.390000
30
0
11
2195.823268
21
-2739.390000
31
0
0
LINE
8
1
10
2054.182323
20
-2710.256063
30
0
11
2098.233780
21
-2710.256063
31
0
0
LINE
8
1
10
2054.182323
20
-2710.256063
30
0
11
2054.182323
21
-2739.452835
31
0
0
LINE
8
1
10
2098.233780
20
-2710.256063
30
0
11
2098.233780
21
-2739.452835
31
0
0
LINE
8
1
10
2054.182323
20
-2739.452835
30
0
11
2098.233780
21
-2739.452835
31
0
0
LINE
8
1
10
857.086614
20
-1799.102362
30
0
11
891.338583
21
-1799.102362
31
0
0
LINE
8
1
10
857.086614
20
-1799.102362
30
0
11
857.086614
21
-1803.826772
31
0
0
LINE
8
1
10
891.338583
20
-1799.102362
30
0
11
891.338583
21
-1803.826772
31
0
0
LINE
8
1
10
857.086614
20
-1803.826772
30
0
11
891.338583
21
-1803.826772
31
0
0
LINE
8
1
10
719.291339
20
-1799.102362
30
0
11
753.543307
21
-1799.102362
31
0
0
LINE
8
1
10
719.291339
20
-1799.102362
30
0
11
719.291339
21
-1803.826772
31
0
0
LINE
8
1
10
753.543307
20
-1799.102362
30
0
11
753.543307
21
-1803.826772
31
0
0
LINE
8
1
10
719.291339
20
-1803.826772
30
0
11
753.543307
21
-1803.826772
31
0
0
LINE
8
1
10
719.291339
20
-1968.393701
30
0
11
753.543307
21
-1968.393701
31
0
0
LINE
8
1
10
719.291339
20
-1968.393701
30
0
11
719.291339
21
-1973.118110
31
0
0
LINE
8
1
10
753.543307
20
-1968.393701
30
0
11
753.543307
21
-1973.118110
31
0
0
LINE
8
1
10
719.291339
20
-1973.118110
30
0
11
753.543307
21
-1973.118110
31
0
0
LINE
8
1
10
778.346457
20
-1785.322835
30
0
11
802.755906
21
-1785.322835
31
0
0
LINE
8
1
10
778.346457
20
-1785.322835
30
0
11
778.346457
21
-1790.047244
31
0
0
LINE
8
1
10
802.755906
20
-1785.322835
30
0
11
802.755906
21
-1790.047244
31
0
0
LINE
8
1
10
778.346457
20
-1790.047244
30
0
11
802.755906
21
-1790.047244
31
0
0
LINE
8
1
10
573.622047
20
-1692.803150
30
0
11
657.086614
21
-1692.803150
31
0
0
LINE
8
1
10
573.622047
20
-1692.803150
30
0
11
573.622047
21
-1697.527559
31
0
0
LINE
8
1
10
657.086614
20
-1692.803150
30
0
11
657.086614
21
-1697.527559
31
0
0
LINE
8
1
10
573.622047
20
-1697.527559
30
0
11
657.086614
21
-1697.527559
31
0
0
LINE
8
1
10
768.503937
20
-1745.952756
30
0
11
891.338583
21
-1745.952756
31
0
0
LINE
8
1
10
768.503937
20
-1745.952756
30
0
11
768.503937
21
-1750.677165
31
0
0
LINE
8
1
10
891.338583
20
-1745.952756
30
0
11
891.338583
21
-1750.677165
31
0
0
LINE
8
1
10
768.503937
20
-1750.677165
30
0
11
891.338583
21
-1750.677165
31
0
0
LINE
8
1
10
886.614173
20
-1799.102362
30
0
11
891.338583
21
-1799.102362
31
0
0
LINE
8
1
10
886.614173
20
-1799.102362
30
0
11
886.614173
21
-1973.118110
31
0
0
LINE
8
1
10
891.338583
20
-1799.102362
30
0
11
891.338583
21
-1973.118110
31
0
0
LINE
8
1
10
886.614173
20
-1973.118110
30
0
11
891.338583
21
-1973.118110
31
0
0
LINE
8
1
10
876.771654
20
-1745.952756
30
0
11
891.338583
21
-1745.952756
31
0
0
LINE
8
1
10
876.771654
20
-1745.952756
30
0
11
876.771654
21
-1790.047244
31
0
0
LINE
8
1
10
891.338583
20
-1745.952756
30
0
11
891.338583
21
-1790.047244
31
0
0
LINE
8
1
10
876.771654
20
-1790.047244
30
0
11
891.338583
21
-1790.047244
31
0
0
LINE
8
1
10
935.826772
20
-1785.322835
30
0
11
940.551181
21
-1785.322835
31
0
0
LINE
8
1
10
935.826772
20
-1785.322835
30
0
11
935.826772
21
-1803.826772
31
0
0
LINE
8
1
10
940.551181
20
-1785.322835
30
0
11
940.551181
21
-1803.826772
31
0
0
LINE
8
1
10
935.826772
20
-1803.826772
30
0
11
940.551181
21
-1803.826772
31
0
0
LINE
8
1
10
768.503937
20
-1745.952756
30
0
11
783.070866
21
-1745.952756
31
0
0
LINE
8
1
10
768.503937
20
-1745.952756
30
0
11
768.503937
21
-1790.047244
31
0
0
LINE
8
1
10
783.070866
20
-1745.952756
30
0
11
783.070866
21
-1790.047244
31
0
0
LINE
8
1
10
768.503937
20
-1790.047244
30
0
11
783.070866
21
-1790.047244
31
0
0
LINE
8
1
10
768.503937
20
-1799.102362
30
0
11
773.228346
21
-1799.102362
31
0
0
LINE
8
1
10
768.503937
20
-1799.102362
30
0
11
768.503937
21
-1973.118110
31
0
0
LINE
8
1
10
773.228346
20
-1799.102362
30
0
11
773.228346
21
-1973.118110
31
0
0
LINE
8
1
10
768.503937
20
-1973.118110
30
0
11
773.228346
21
-1973.118110
31
0
0
LINE
8
1
10
588.976378
20
-1708.157480
30
0
11
1070.866142
21
-1708.157480
31
0
0
LINE
8
1
10
588.976378
20
-1708.157480
30
0
11
588.976378
21
-1712.881890
31
0
0
LINE
8
1
10
1070.866142
20
-1708.157480
30
0
11
1070.866142
21
-1712.881890
31
0
0
LINE
8
1
10
588.976378
20
-1712.881890
30
0
11
1070.866142
21
-1712.881890
31
0
0
LINE
8
1
10
1024.409449
20
-1799.102362
30
0
11
1029.133858
21
-1799.102362
31
0
0
LINE
8
1
10
1024.409449
20
-1799.102362
30
0
11
1024.409449
21
-1973.118110
31
0
0
LINE
8
1
10
1029.133858
20
-1799.102362
30
0
11
1029.133858
21
-1973.118110
31
0
0
LINE
8
1
10
1024.409449
20
-1973.118110
30
0
11
1029.133858
21
-1973.118110
31
0
0
LINE
8
1
10
906.299213
20
-1799.102362
30
0
11
940.551181
21
-1799.102362
31
0
0
LINE
8
1
10
906.299213
20
-1799.102362
30
0
11
906.299213
21
-1803.826772
31
0
0
LINE
8
1
10
940.551181
20
-1799.102362
30
0
11
940.551181
21
-1803.826772
31
0
0
LINE
8
1
10
906.299213
20
-1803.826772
30
0
11
940.551181
21
-1803.826772
31
0
0
LINE
8
1
10
719.291339
20
-1785.322835
30
0
11
724.015748
21
-1785.322835
31
0
0
LINE
8
1
10
719.291339
20
-1785.322835
30
0
11
719.291339
21
-1803.826772
31
0
0
LINE
8
1
10
724.015748
20
-1785.322835
30
0
11
724.015748
21
-1803.826772
31
0
0
LINE
8
1
10
719.291339
20
-1803.826772
30
0
11
724.015748
21
-1803.826772
31
0
0
LINE
8
1
10
588.976378
20
-1708.157480
30
0
11
593.700787
21
-1708.157480
31
0
0
LINE
8
1
10
588.976378
20
-1708.157480
30
0
11
588.976378
21
-2006.976378
31
0
0
LINE
8
1
10
593.700787
20
-1708.157480
30
0
11
593.700787
21
-2006.976378
31
0
0
LINE
8
1
10
588.976378
20
-2006.976378
30
0
11
593.700787
21
-2006.976378
31
0
0
LINE
8
1
10
630.708661
20
-1745.952756
30
0
11
645.275591
21
-1745.952756
31
0
0
LINE
8
1
10
630.708661
20
-1745.952756
30
0
11
630.708661
21
-1790.047244
31
0
0
LINE
8
1
10
645.275591
20
-1745.952756
30
0
11
645.275591
21
-1790.047244
31
0
0
LINE
8
1
10
630.708661
20
-1790.047244
30
0
11
645.275591
21
-1790.047244
31
0
0
LINE
8
1
10
857.086614
20
-1968.393701
30
0
11
891.338583
21
-1968.393701
31
0
0
LINE
8
1
10
857.086614
20
-1968.393701
30
0
11
857.086614
21
-1973.118110
31
0
0
LINE
8
1
10
891.338583
20
-1968.393701
30
0
11
891.338583
21
-1973.118110
31
0
0
LINE
8
1
10
857.086614
20
-1973.118110
30
0
11
891.338583
21
-1973.118110
31
0
0
LINE
8
1
10
857.086614
20
-1785.322835
30
0
11
861.811024
21
-1785.322835
31
0
0
LINE
8
1
10
857.086614
20
-1785.322835
30
0
11
857.086614
21
-1803.826772
31
0
0
LINE
8
1
10
861.811024
20
-1785.322835
30
0
11
861.811024
21
-1803.826772
31
0
0
LINE
8
1
10
857.086614
20
-1803.826772
30
0
11
861.811024
21
-1803.826772
31
0
0
LINE
8
1
10
640.551181
20
-1785.322835
30
0
11
664.960630
21
-1785.322835
31
0
0
LINE
8
1
10
640.551181
20
-1785.322835
30
0
11
640.551181
21
-1790.047244
31
0
0
LINE
8
1
10
664.960630
20
-1785.322835
30
0
11
664.960630
21
-1790.047244
31
0
0
LINE
8
1
10
640.551181
20
-1790.047244
30
0
11
664.960630
21
-1790.047244
31
0
0
LINE
8
1
10
994.881890
20
-1785.322835
30
0
11
1019.291339
21
-1785.322835
31
0
0
LINE
8
1
10
994.881890
20
-1785.322835
30
0
11
994.881890
21
-1790.047244
31
0
0
LINE
8
1
10
1019.291339
20
-1785.322835
30
0
11
1019.291339
21
-1790.047244
31
0
0
LINE
8
1
10
994.881890
20
-1790.047244
30
0
11
1019.291339
21
-1790.047244
31
0
0
LINE
8
1
10
798.031496
20
-1785.322835
30
0
11
802.755906
21
-1785.322835
31
0
0
LINE
8
1
10
798.031496
20
-1785.322835
30
0
11
798.031496
21
-1803.826772
31
0
0
LINE
8
1
10
802.755906
20
-1785.322835
30
0
11
802.755906
21
-1803.826772
31
0
0
LINE
8
1
10
798.031496
20
-1803.826772
30
0
11
802.755906
21
-1803.826772
31
0
0
LINE
8
1
10
994.881890
20
-1968.393701
30
0
11
1029.133858
21
-1968.393701
31
0
0
LINE
8
1
10
994.881890
20
-1968.393701
30
0
11
994.881890
21
-1973.118110
31
0
0
LINE
8
1
10
1029.133858
20
-1968.393701
30
0
11
1029.133858
21
-1973.118110
31
0
0
LINE
8
1
10
994.881890
20
-1973.118110
30
0
11
1029.133858
21
-1973.118110
31
0
0
LINE
8
1
10
588.976378
20
-2002.251969
30
0
11
1070.866142
21
-2002.251969
31
0
0
LINE
8
1
10
588.976378
20
-2002.251969
30
0
11
588.976378
21
-2006.976378
31
0
0
LINE
8
1
10
1070.866142
20
-2002.251969
30
0
11
1070.866142
21
-2006.976378
31
0
0
LINE
8
1
10
588.976378
20
-2006.976378
30
0
11
1070.866142
21
-2006.976378
31
0
0
LINE
8
1
10
906.299213
20
-1968.393701
30
0
11
940.551181
21
-1968.393701
31
0
0
LINE
8
1
10
906.299213
20
-1968.393701
30
0
11
906.299213
21
-1973.118110
31
0
0
LINE
8
1
10
940.551181
20
-1968.393701
30
0
11
940.551181
21
-1973.118110
31
0
0
LINE
8
1
10
906.299213
20
-1973.118110
30
0
11
940.551181
21
-1973.118110
31
0
0
LINE
8
1
10
630.708661
20
-1799.102362
30
0
11
635.433071
21
-1799.102362
31
0
0
LINE
8
1
10
630.708661
20
-1799.102362
30
0
11
630.708661
21
-1973.118110
31
0
0
LINE
8
1
10
635.433071
20
-1799.102362
30
0
11
635.433071
21
-1973.118110
31
0
0
LINE
8
1
10
630.708661
20
-1973.118110
30
0
11
635.433071
21
-1973.118110
31
0
0
LINE
8
1
10
719.291339
20
-1785.322835
30
0
11
743.700787
21
-1785.322835
31
0
0
LINE
8
1
10
719.291339
20
-1785.322835
30
0
11
719.291339
21
-1790.047244
31
0
0
LINE
8
1
10
743.700787
20
-1785.322835
30
0
11
743.700787
21
-1790.047244
31
0
0
LINE
8
1
10
719.291339
20
-1790.047244
30
0
11
743.700787
21
-1790.047244
31
0
0
LINE
8
1
10
1014.566929
20
-1745.952756
30
0
11
1029.133858
21
-1745.952756
31
0
0
LINE
8
1
10
1014.566929
20
-1745.952756
30
0
11
1014.566929
21
-1790.047244
31
0
0
LINE
8
1
10
1029.133858
20
-1745.952756
30
0
11
1029.133858
21
-1790.047244
31
0
0
LINE
8
1
10
1014.566929
20
-1790.047244
30
0
11
1029.133858
21
-1790.047244
31
0
0
LINE
8
1
10
768.503937
20
-1968.393701
30
0
11
802.755906
21
-1968.393701
31
0
0
LINE
8
1
10
768.503937
20
-1968.393701
30
0
11
768.503937
21
-1973.118110
31
0
0
LINE
8
1
10
802.755906
20
-1968.393701
30
0
11
802.755906
21
-1973.118110
31
0
0
LINE
8
1
10
768.503937
20
-1973.118110
30
0
11
802.755906
21
-1973.118110
31
0
0
LINE
8
1
10
768.503937
20
-1799.102362
30
0
11
802.755906
21
-1799.102362
31
0
0
LINE
8
1
10
768.503937
20
-1799.102362
30
0
11
768.503937
21
-1803.826772
31
0
0
LINE
8
1
10
802.755906
20
-1799.102362
30
0
11
802.755906
21
-1803.826772
31
0
0
LINE
8
1
10
768.503937
20
-1803.826772
30
0
11
802.755906
21
-1803.826772
31
0
0
LINE
8
1
10
660.236220
20
-1785.322835
30
0
11
664.960630
21
-1785.322835
31
0
0
LINE
8
1
10
660.236220
20
-1785.322835
30
0
11
660.236220
21
-1803.826772
31
0
0
LINE
8
1
10
664.960630
20
-1785.322835
30
0
11
664.960630
21
-1803.826772
31
0
0
LINE
8
1
10
660.236220
20
-1803.826772
30
0
11
664.960630
21
-1803.826772
31
0
0
LINE
8
1
10
630.708661
20
-1745.952756
30
0
11
753.543307
21
-1745.952756
31
0
0
LINE
8
1
10
630.708661
20
-1745.952756
30
0
11
630.708661
21
-1750.677165
31
0
0
LINE
8
1
10
753.543307
20
-1745.952756
30
0
11
753.543307
21
-1750.677165
31
0
0
LINE
8
1
10
630.708661
20
-1750.677165
30
0
11
753.543307
21
-1750.677165
31
0
0
LINE
8
1
10
906.299213
20
-1745.952756
30
0
11
920.866142
21
-1745.952756
31
0
0
LINE
8
1
10
906.299213
20
-1745.952756
30
0
11
906.299213
21
-1790.047244
31
0
0
LINE
8
1
10
920.866142
20
-1745.952756
30
0
11
920.866142
21
-1790.047244
31
0
0
LINE
8
1
10
906.299213
20
-1790.047244
30
0
11
920.866142
21
-1790.047244
31
0
0
LINE
8
1
10
748.818898
20
-1799.102362
30
0
11
753.543307
21
-1799.102362
31
0
0
LINE
8
1
10
748.818898
20
-1799.102362
30
0
11
748.818898
21
-1973.118110
31
0
0
LINE
8
1
10
753.543307
20
-1799.102362
30
0
11
753.543307
21
-1973.118110
31
0
0
LINE
8
1
10
748.818898
20
-1973.118110
30
0
11
753.543307
21
-1973.118110
31
0
0
LINE
8
1
10
857.086614
20
-1785.322835
30
0
11
881.496063
21
-1785.322835
31
0
0
LINE
8
1
10
857.086614
20
-1785.322835
30
0
11
857.086614
21
-1790.047244
31
0
0
LINE
8
1
10
881.496063
20
-1785.322835
30
0
11
881.496063
21
-1790.047244
31
0
0
LINE
8
1
10
857.086614
20
-1790.047244
30
0
11
881.496063
21
-1790.047244
31
0
0
LINE
8
1
10
573.622047
20
-1692.803150
30
0
11
578.346457
21
-1692.803150
31
0
0
LINE
8
1
10
573.622047
20
-1692.803150
30
0
11
573.622047
21
-1746.740157
31
0
0
LINE
8
1
10
578.346457
20
-1692.803150
30
0
11
578.346457
21
-1746.740157
31
0
0
LINE
8
1
10
573.622047
20
-1746.740157
30
0
11
578.346457
21
-1746.740157
31
0
0
LINE
8
1
10
630.708661
20
-1799.102362
30
0
11
664.960630
21
-1799.102362
31
0
0
LINE
8
1
10
630.708661
20
-1799.102362
30
0
11
630.708661
21
-1803.826772
31
0
0
LINE
8
1
10
664.960630
20
-1799.102362
30
0
11
664.960630
21
-1803.826772
31
0
0
LINE
8
1
10
630.708661
20
-1803.826772
30
0
11
664.960630
21
-1803.826772
31
0
0
LINE
8
1
10
738.976378
20
-1745.952756
30
0
11
753.543307
21
-1745.952756
31
0
0
LINE
8
1
10
738.976378
20
-1745.952756
30
0
11
738.976378
21
-1790.047244
31
0
0
LINE
8
1
10
753.543307
20
-1745.952756
30
0
11
753.543307
21
-1790.047244
31
0
0
LINE
8
1
10
738.976378
20
-1790.047244
30
0
11
753.543307
21
-1790.047244
31
0
0
LINE
8
1
10
916.141732
20
-1785.322835
30
0
11
940.551181
21
-1785.322835
31
0
0
LINE
8
1
10
916.141732
20
-1785.322835
30
0
11
916.141732
21
-1790.047244
31
0
0
LINE
8
1
10
940.551181
20
-1785.322835
30
0
11
940.551181
21
-1790.047244
31
0
0
LINE
8
1
10
916.141732
20
-1790.047244
30
0
11
940.551181
21
-1790.047244
31
0
0
LINE
8
1
10
1066.141732
20
-1708.157480
30
0
11
1070.866142
21
-1708.157480
31
0
0
LINE
8
1
10
1066.141732
20
-1708.157480
30
0
11
1066.141732
21
-2006.976378
31
0
0
LINE
8
1
10
1070.866142
20
-1708.157480
30
0
11
1070.866142
21
-2006.976378
31
0
0
LINE
8
1
10
1066.141732
20
-2006.976378
30
0
11
1070.866142
21
-2006.976378
31
0
0
LINE
8
1
10
630.708661
20
-1968.393701
30
0
11
664.960630
21
-1968.393701
31
0
0
LINE
8
1
10
630.708661
20
-1968.393701
30
0
11
630.708661
21
-1973.118110
31
0
0
LINE
8
1
10
664.960630
20
-1968.393701
30
0
11
664.960630
21
-1973.118110
31
0
0
LINE
8
1
10
630.708661
20
-1973.118110
30
0
11
664.960630
21
-1973.118110
31
0
0
LINE
8
1
10
994.881890
20
-1785.322835
30
0
11
999.606299
21
-1785.322835
31
0
0
LINE
8
1
10
994.881890
20
-1785.322835
30
0
11
994.881890
21
-1803.826772
31
0
0
LINE
8
1
10
999.606299
20
-1785.322835
30
0
11
999.606299
21
-1803.826772
31
0
0
LINE
8
1
10
994.881890
20
-1803.826772
30
0
11
999.606299
21
-1803.826772
31
0
0
LINE
8
1
10
906.299213
20
-1745.952756
30
0
11
1029.133858
21
-1745.952756
31
0
0
LINE
8
1
10
906.299213
20
-1745.952756
30
0
11
906.299213
21
-1750.677165
31
0
0
LINE
8
1
10
1029.133858
20
-1745.952756
30
0
11
1029.133858
21
-1750.677165
31
0
0
LINE
8
1
10
906.299213
20
-1750.677165
30
0
11
1029.133858
21
-1750.677165
31
0
0
LINE
8
1
10
906.299213
20
-1799.102362
30
0
11
911.023622
21
-1799.102362
31
0
0
LINE
8
1
10
906.299213
20
-1799.102362
30
0
11
906.299213
21
-1973.118110
31
0
0
LINE
8
1
10
911.023622
20
-1799.102362
30
0
11
911.023622
21
-1973.118110
31
0
0
LINE
8
1
10
906.299213
20
-1973.118110
30
0
11
911.023622
21
-1973.118110
31
0
0
LINE
8
1
10
994.881890
20
-1799.102362
30
0
11
1029.133858
21
-1799.102362
31
0
0
LINE
8
1
10
994.881890
20
-1799.102362
30
0
11
994.881890
21
-1803.826772
31
0
0
LINE
8
1
10
1029.133858
20
-1799.102362
30
0
11
1029.133858
21
-1803.826772
31
0
0
LINE
8
1
10
994.881890
20
-1803.826772
30
0
11
1029.133858
21
-1803.826772
31
0
0
LINE
8
1
10
660.236220
20
-1962.169685
30
0
11
724.001850
21
-1962.169685
31
0
0
LINE
8
1
10
660.236220
20
-1962.169685
30
0
11
660.236220
21
-1973.118110
31
0
0
LINE
8
1
10
724.001850
20
-1962.169685
30
0
11
724.001850
21
-1973.118110
31
0
0
LINE
8
1
10
660.236220
20
-1973.118110
30
0
11
724.001850
21
-1973.118110
31
0
0
LINE
8
1
10
798.031496
20
-1962.169685
30
0
11
861.797126
21
-1962.169685
31
0
0
LINE
8
1
10
798.031496
20
-1962.169685
30
0
11
798.031496
21
-1973.118110
31
0
0
LINE
8
1
10
861.797126
20
-1962.169685
30
0
11
861.797126
21
-1973.118110
31
0
0
LINE
8
1
10
798.031496
20
-1973.118110
30
0
11
861.797126
21
-1973.118110
31
0
0
LINE
8
1
10
935.826772
20
-1962.169685
30
0
11
999.592402
21
-1962.169685
31
0
0
LINE
8
1
10
935.826772
20
-1962.169685
30
0
11
935.826772
21
-1973.118110
31
0
0
LINE
8
1
10
999.592402
20
-1962.169685
30
0
11
999.592402
21
-1973.118110
31
0
0
LINE
8
1
10
935.826772
20
-1973.118110
30
0
11
999.592402
21
-1973.118110
31
0
0
LINE
8
1
10
1368.897638
20
-1785.322835
30
0
11
1393.307087
21
-1785.322835
31
0
0
LINE
8
1
10
1368.897638
20
-1785.322835
30
0
11
1368.897638
21
-1790.047244
31
0
0
LINE
8
1
10
1393.307087
20
-1785.322835
30
0
11
1393.307087
21
-1790.047244
31
0
0
LINE
8
1
10
1368.897638
20
-1790.047244
30
0
11
1393.307087
21
-1790.047244
31
0
0
LINE
8
1
10
1221.259843
20
-1799.102362
30
0
11
1225.984252
21
-1799.102362
31
0
0
LINE
8
1
10
1221.259843
20
-1799.102362
30
0
11
1221.259843
21
-1973.118110
31
0
0
LINE
8
1
10
1225.984252
20
-1799.102362
30
0
11
1225.984252
21
-1973.118110
31
0
0
LINE
8
1
10
1221.259843
20
-1973.118110
30
0
11
1225.984252
21
-1973.118110
31
0
0
LINE
8
1
10
1447.637795
20
-1785.322835
30
0
11
1472.047244
21
-1785.322835
31
0
0
LINE
8
1
10
1447.637795
20
-1785.322835
30
0
11
1447.637795
21
-1790.047244
31
0
0
LINE
8
1
10
1472.047244
20
-1785.322835
30
0
11
1472.047244
21
-1790.047244
31
0
0
LINE
8
1
10
1447.637795
20
-1790.047244
30
0
11
1472.047244
21
-1790.047244
31
0
0
LINE
8
1
10
1329.527559
20
-1745.952756
30
0
11
1344.094488
21
-1745.952756
31
0
0
LINE
8
1
10
1329.527559
20
-1745.952756
30
0
11
1329.527559
21
-1790.047244
31
0
0
LINE
8
1
10
1344.094488
20
-1745.952756
30
0
11
1344.094488
21
-1790.047244
31
0
0
LINE
8
1
10
1329.527559
20
-1790.047244
30
0
11
1344.094488
21
-1790.047244
31
0
0
LINE
8
1
10
1467.322835
20
-1745.952756
30
0
11
1481.889764
21
-1745.952756
31
0
0
LINE
8
1
10
1467.322835
20
-1745.952756
30
0
11
1467.322835
21
-1790.047244
31
0
0
LINE
8
1
10
1481.889764
20
-1745.952756
30
0
11
1481.889764
21
-1790.047244
31
0
0
LINE
8
1
10
1467.322835
20
-1790.047244
30
0
11
1481.889764
21
-1790.047244
31
0
0
LINE
8
1
10
1231.102362
20
-1785.322835
30
0
11
1255.511811
21
-1785.322835
31
0
0
LINE
8
1
10
1231.102362
20
-1785.322835
30
0
11
1231.102362
21
-1790.047244
31
0
0
LINE
8
1
10
1255.511811
20
-1785.322835
30
0
11
1255.511811
21
-1790.047244
31
0
0
LINE
8
1
10
1231.102362
20
-1790.047244
30
0
11
1255.511811
21
-1790.047244
31
0
0
LINE
8
1
10
1179.527559
20
-1708.157480
30
0
11
1184.251969
21
-1708.157480
31
0
0
LINE
8
1
10
1179.527559
20
-1708.157480
30
0
11
1179.527559
21
-2006.976378
31
0
0
LINE
8
1
10
1184.251969
20
-1708.157480
30
0
11
1184.251969
21
-2006.976378
31
0
0
LINE
8
1
10
1179.527559
20
-2006.976378
30
0
11
1184.251969
21
-2006.976378
31
0
0
LINE
8
1
10
1359.055118
20
-1745.952756
30
0
11
1481.889764
21
-1745.952756
31
0
0
LINE
8
1
10
1359.055118
20
-1745.952756
30
0
11
1359.055118
21
-1750.677165
31
0
0
LINE
8
1
10
1481.889764
20
-1745.952756
30
0
11
1481.889764
21
-1750.677165
31
0
0
LINE
8
1
10
1359.055118
20
-1750.677165
30
0
11
1481.889764
21
-1750.677165
31
0
0
LINE
8
1
10
1309.842520
20
-1968.393701
30
0
11
1344.094488
21
-1968.393701
31
0
0
LINE
8
1
10
1309.842520
20
-1968.393701
30
0
11
1309.842520
21
-1973.118110
31
0
0
LINE
8
1
10
1344.094488
20
-1968.393701
30
0
11
1344.094488
21
-1973.118110
31
0
0
LINE
8
1
10
1309.842520
20
-1973.118110
30
0
11
1344.094488
21
-1973.118110
31
0
0
LINE
8
1
10
1250.787402
20
-1785.322835
30
0
11
1255.511811
21
-1785.322835
31
0
0
LINE
8
1
10
1250.787402
20
-1785.322835
30
0
11
1250.787402
21
-1803.826772
31
0
0
LINE
8
1
10
1255.511811
20
-1785.322835
30
0
11
1255.511811
21
-1803.826772
31
0
0
LINE
8
1
10
1250.787402
20
-1803.826772
30
0
11
1255.511811
21
-1803.826772
31
0
0
LINE
8
1
10
1585.433071
20
-1785.322835
30
0
11
1609.842520
21
-1785.322835
31
0
0
LINE
8
1
10
1585.433071
20
-1785.322835
30
0
11
1585.433071
21
-1790.047244
31
0
0
LINE
8
1
10
1609.842520
20
-1785.322835
30
0
11
1609.842520
21
-1790.047244
31
0
0
LINE
8
1
10
1585.433071
20
-1790.047244
30
0
11
1609.842520
21
-1790.047244
31
0
0
LINE
8
1
10
1496.850394
20
-1799.102362
30
0
11
1531.102362
21
-1799.102362
31
0
0
LINE
8
1
10
1496.850394
20
-1799.102362
30
0
11
1496.850394
21
-1803.826772
31
0
0
LINE
8
1
10
1531.102362
20
-1799.102362
30
0
11
1531.102362
21
-1803.826772
31
0
0
LINE
8
1
10
1496.850394
20
-1803.826772
30
0
11
1531.102362
21
-1803.826772
31
0
0
LINE
8
1
10
1447.637795
20
-1785.322835
30
0
11
1452.362205
21
-1785.322835
31
0
0
LINE
8
1
10
1447.637795
20
-1785.322835
30
0
11
1447.637795
21
-1803.826772
31
0
0
LINE
8
1
10
1452.362205
20
-1785.322835
30
0
11
1452.362205
21
-1803.826772
31
0
0
LINE
8
1
10
1447.637795
20
-1803.826772
30
0
11
1452.362205
21
-1803.826772
31
0
0
LINE
8
1
10
1496.850394
20
-1799.102362
30
0
11
1501.574803
21
-1799.102362
31
0
0
LINE
8
1
10
1496.850394
20
-1799.102362
30
0
11
1496.850394
21
-1973.118110
31
0
0
LINE
8
1
10
1501.574803
20
-1799.102362
30
0
11
1501.574803
21
-1973.118110
31
0
0
LINE
8
1
10
1496.850394
20
-1973.118110
30
0
11
1501.574803
21
-1973.118110
31
0
0
LINE
8
1
10
1179.527559
20
-2002.251969
30
0
11
1661.417323
21
-2002.251969
31
0
0
LINE
8
1
10
1179.527559
20
-2002.251969
30
0
11
1179.527559
21
-2006.976378
31
0
0
LINE
8
1
10
1661.417323
20
-2002.251969
30
0
11
1661.417323
21
-2006.976378
31
0
0
LINE
8
1
10
1179.527559
20
-2006.976378
30
0
11
1661.417323
21
-2006.976378
31
0
0
LINE
8
1
10
1585.433071
20
-1799.102362
30
0
11
1619.685039
21
-1799.102362
31
0
0
LINE
8
1
10
1585.433071
20
-1799.102362
30
0
11
1585.433071
21
-1803.826772
31
0
0
LINE
8
1
10
1619.685039
20
-1799.102362
30
0
11
1619.685039
21
-1803.826772
31
0
0
LINE
8
1
10
1585.433071
20
-1803.826772
30
0
11
1619.685039
21
-1803.826772
31
0
0
LINE
8
1
10
1614.960630
20
-1799.102362
30
0
11
1619.685039
21
-1799.102362
31
0
0
LINE
8
1
10
1614.960630
20
-1799.102362
30
0
11
1614.960630
21
-1973.118110
31
0
0
LINE
8
1
10
1619.685039
20
-1799.102362
30
0
11
1619.685039
21
-1973.118110
31
0
0
LINE
8
1
10
1614.960630
20
-1973.118110
30
0
11
1619.685039
21
-1973.118110
31
0
0
LINE
8
1
10
1359.055118
20
-1968.393701
30
0
11
1393.307087
21
-1968.393701
31
0
0
LINE
8
1
10
1359.055118
20
-1968.393701
30
0
11
1359.055118
21
-1973.118110
31
0
0
LINE
8
1
10
1393.307087
20
-1968.393701
30
0
11
1393.307087
21
-1973.118110
31
0
0
LINE
8
1
10
1359.055118
20
-1973.118110
30
0
11
1393.307087
21
-1973.118110
31
0
0
LINE
8
1
10
1164.173228
20
-1692.803150
30
0
11
1168.897638
21
-1692.803150
31
0
0
LINE
8
1
10
1164.173228
20
-1692.803150
30
0
11
1164.173228
21
-1746.740157
31
0
0
LINE
8
1
10
1168.897638
20
-1692.803150
30
0
11
1168.897638
21
-1746.740157
31
0
0
LINE
8
1
10
1164.173228
20
-1746.740157
30
0
11
1168.897638
21
-1746.740157
31
0
0
LINE
8
1
10
1309.842520
20
-1799.102362
30
0
11
1344.094488
21
-1799.102362
31
0
0
LINE
8
1
10
1309.842520
20
-1799.102362
30
0
11
1309.842520
21
-1803.826772
31
0
0
LINE
8
1
10
1344.094488
20
-1799.102362
30
0
11
1344.094488
21
-1803.826772
31
0
0
LINE
8
1
10
1309.842520
20
-1803.826772
30
0
11
1344.094488
21
-1803.826772
31
0
0
LINE
8
1
10
1359.055118
20
-1745.952756
30
0
11
1373.622047
21
-1745.952756
31
0
0
LINE
8
1
10
1359.055118
20
-1745.952756
30
0
11
1359.055118
21
-1790.047244
31
0
0
LINE
8
1
10
1373.622047
20
-1745.952756
30
0
11
1373.622047
21
-1790.047244
31
0
0
LINE
8
1
10
1359.055118
20
-1790.047244
30
0
11
1373.622047
21
-1790.047244
31
0
0
LINE
8
1
10
1388.582677
20
-1785.322835
30
0
11
1393.307087
21
-1785.322835
31
0
0
LINE
8
1
10
1388.582677
20
-1785.322835
30
0
11
1388.582677
21
-1803.826772
31
0
0
LINE
8
1
10
1393.307087
20
-1785.322835
30
0
11
1393.307087
21
-1803.826772
31
0
0
LINE
8
1
10
1388.582677
20
-1803.826772
30
0
11
1393.307087
21
-1803.826772
31
0
0
LINE
8
1
10
1309.842520
20
-1785.322835
30
0
11
1314.566929
21
-1785.322835
31
0
0
LINE
8
1
10
1309.842520
20
-1785.322835
30
0
11
1309.842520
21
-1803.826772
31
0
0
LINE
8
1
10
1314.566929
20
-1785.322835
30
0
11
1314.566929
21
-1803.826772
31
0
0
LINE
8
1
10
1309.842520
20
-1803.826772
30
0
11
1314.566929
21
-1803.826772
31
0
0
LINE
8
1
10
1447.637795
20
-1968.393701
30
0
11
1481.889764
21
-1968.393701
31
0
0
LINE
8
1
10
1447.637795
20
-1968.393701
30
0
11
1447.637795
21
-1973.118110
31
0
0
LINE
8
1
10
1481.889764
20
-1968.393701
30
0
11
1481.889764
21
-1973.118110
31
0
0
LINE
8
1
10
1447.637795
20
-1973.118110
30
0
11
1481.889764
21
-1973.118110
31
0
0
LINE
8
1
10
1585.433071
20
-1968.393701
30
0
11
1619.685039
21
-1968.393701
31
0
0
LINE
8
1
10
1585.433071
20
-1968.393701
30
0
11
1585.433071
21
-1973.118110
31
0
0
LINE
8
1
10
1619.685039
20
-1968.393701
30
0
11
1619.685039
21
-1973.118110
31
0
0
LINE
8
1
10
1585.433071
20
-1973.118110
30
0
11
1619.685039
21
-1973.118110
31
0
0
LINE
8
1
10
1359.055118
20
-1799.102362
30
0
11
1393.307087
21
-1799.102362
31
0
0
LINE
8
1
10
1359.055118
20
-1799.102362
30
0
11
1359.055118
21
-1803.826772
31
0
0
LINE
8
1
10
1393.307087
20
-1799.102362
30
0
11
1393.307087
21
-1803.826772
31
0
0
LINE
8
1
10
1359.055118
20
-1803.826772
30
0
11
1393.307087
21
-1803.826772
31
0
0
LINE
8
1
10
1221.259843
20
-1745.952756
30
0
11
1235.826772
21
-1745.952756
31
0
0
LINE
8
1
10
1221.259843
20
-1745.952756
30
0
11
1221.259843
21
-1790.047244
31
0
0
LINE
8
1
10
1235.826772
20
-1745.952756
30
0
11
1235.826772
21
-1790.047244
31
0
0
LINE
8
1
10
1221.259843
20
-1790.047244
30
0
11
1235.826772
21
-1790.047244
31
0
0
LINE
8
1
10
1506.692913
20
-1785.322835
30
0
11
1531.102362
21
-1785.322835
31
0
0
LINE
8
1
10
1506.692913
20
-1785.322835
30
0
11
1506.692913
21
-1790.047244
31
0
0
LINE
8
1
10
1531.102362
20
-1785.322835
30
0
11
1531.102362
21
-1790.047244
31
0
0
LINE
8
1
10
1506.692913
20
-1790.047244
30
0
11
1531.102362
21
-1790.047244
31
0
0
LINE
8
1
10
1526.377953
20
-1785.322835
30
0
11
1531.102362
21
-1785.322835
31
0
0
LINE
8
1
10
1526.377953
20
-1785.322835
30
0
11
1526.377953
21
-1803.826772
31
0
0
LINE
8
1
10
1531.102362
20
-1785.322835
30
0
11
1531.102362
21
-1803.826772
31
0
0
LINE
8
1
10
1526.377953
20
-1803.826772
30
0
11
1531.102362
21
-1803.826772
31
0
0
LINE
8
1
10
1496.850394
20
-1968.393701
30
0
11
1531.102362
21
-1968.393701
31
0
0
LINE
8
1
10
1496.850394
20
-1968.393701
30
0
11
1496.850394
21
-1973.118110
31
0
0
LINE
8
1
10
1531.102362
20
-1968.393701
30
0
11
1531.102362
21
-1973.118110
31
0
0
LINE
8
1
10
1496.850394
20
-1973.118110
30
0
11
1531.102362
21
-1973.118110
31
0
0
LINE
8
1
10
1496.850394
20
-1745.952756
30
0
11
1511.417323
21
-1745.952756
31
0
0
LINE
8
1
10
1496.850394
20
-1745.952756
30
0
11
1496.850394
21
-1790.047244
31
0
0
LINE
8
1
10
1511.417323
20
-1745.952756
30
0
11
1511.417323
21
-1790.047244
31
0
0
LINE
8
1
10
1496.850394
20
-1790.047244
30
0
11
1511.417323
21
-1790.047244
31
0
0
LINE
8
1
10
1447.637795
20
-1799.102362
30
0
11
1481.889764
21
-1799.102362
31
0
0
LINE
8
1
10
1447.637795
20
-1799.102362
30
0
11
1447.637795
21
-1803.826772
31
0
0
LINE
8
1
10
1481.889764
20
-1799.102362
30
0
11
1481.889764
21
-1803.826772
31
0
0
LINE
8
1
10
1447.637795
20
-1803.826772
30
0
11
1481.889764
21
-1803.826772
31
0
0
LINE
8
1
10
1221.259843
20
-1799.102362
30
0
11
1255.511811
21
-1799.102362
31
0
0
LINE
8
1
10
1221.259843
20
-1799.102362
30
0
11
1221.259843
21
-1803.826772
31
0
0
LINE
8
1
10
1255.511811
20
-1799.102362
30
0
11
1255.511811
21
-1803.826772
31
0
0
LINE
8
1
10
1221.259843
20
-1803.826772
30
0
11
1255.511811
21
-1803.826772
31
0
0
LINE
8
1
10
1221.259843
20
-1745.952756
30
0
11
1344.094488
21
-1745.952756
31
0
0
LINE
8
1
10
1221.259843
20
-1745.952756
30
0
11
1221.259843
21
-1750.677165
31
0
0
LINE
8
1
10
1344.094488
20
-1745.952756
30
0
11
1344.094488
21
-1750.677165
31
0
0
LINE
8
1
10
1221.259843
20
-1750.677165
30
0
11
1344.094488
21
-1750.677165
31
0
0
LINE
8
1
10
1496.850394
20
-1745.952756
30
0
11
1619.685039
21
-1745.952756
31
0
0
LINE
8
1
10
1496.850394
20
-1745.952756
30
0
11
1496.850394
21
-1750.677165
31
0
0
LINE
8
1
10
1619.685039
20
-1745.952756
30
0
11
1619.685039
21
-1750.677165
31
0
0
LINE
8
1
10
1496.850394
20
-1750.677165
30
0
11
1619.685039
21
-1750.677165
31
0
0
LINE
8
1
10
1339.370079
20
-1799.102362
30
0
11
1344.094488
21
-1799.102362
31
0
0
LINE
8
1
10
1339.370079
20
-1799.102362
30
0
11
1339.370079
21
-1973.118110
31
0
0
LINE
8
1
10
1344.094488
20
-1799.102362
30
0
11
1344.094488
21
-1973.118110
31
0
0
LINE
8
1
10
1339.370079
20
-1973.118110
30
0
11
1344.094488
21
-1973.118110
31
0
0
LINE
8
1
10
1359.055118
20
-1799.102362
30
0
11
1363.779528
21
-1799.102362
31
0
0
LINE
8
1
10
1359.055118
20
-1799.102362
30
0
11
1359.055118
21
-1973.118110
31
0
0
LINE
8
1
10
1363.779528
20
-1799.102362
30
0
11
1363.779528
21
-1973.118110
31
0
0
LINE
8
1
10
1359.055118
20
-1973.118110
30
0
11
1363.779528
21
-1973.118110
31
0
0
LINE
8
1
10
1605.118110
20
-1745.952756
30
0
11
1619.685039
21
-1745.952756
31
0
0
LINE
8
1
10
1605.118110
20
-1745.952756
30
0
11
1605.118110
21
-1790.047244
31
0
0
LINE
8
1
10
1619.685039
20
-1745.952756
30
0
11
1619.685039
21
-1790.047244
31
0
0
LINE
8
1
10
1605.118110
20
-1790.047244
30
0
11
1619.685039
21
-1790.047244
31
0
0
LINE
8
1
10
1179.527559
20
-1708.157480
30
0
11
1661.417323
21
-1708.157480
31
0
0
LINE
8
1
10
1179.527559
20
-1708.157480
30
0
11
1179.527559
21
-1712.881890
31
0
0
LINE
8
1
10
1661.417323
20
-1708.157480
30
0
11
1661.417323
21
-1712.881890
31
0
0
LINE
8
1
10
1179.527559
20
-1712.881890
30
0
11
1661.417323
21
-1712.881890
31
0
0
LINE
8
1
10
1477.165354
20
-1799.102362
30
0
11
1481.889764
21
-1799.102362
31
0
0
LINE
8
1
10
1477.165354
20
-1799.102362
30
0
11
1477.165354
21
-1973.118110
31
0
0
LINE
8
1
10
1481.889764
20
-1799.102362
30
0
11
1481.889764
21
-1973.118110
31
0
0
LINE
8
1
10
1477.165354
20
-1973.118110
30
0
11
1481.889764
21
-1973.118110
31
0
0
LINE
8
1
10
1309.842520
20
-1785.322835
30
0
11
1334.251969
21
-1785.322835
31
0
0
LINE
8
1
10
1309.842520
20
-1785.322835
30
0
11
1309.842520
21
-1790.047244
31
0
0
LINE
8
1
10
1334.251969
20
-1785.322835
30
0
11
1334.251969
21
-1790.047244
31
0
0
LINE
8
1
10
1309.842520
20
-1790.047244
30
0
11
1334.251969
21
-1790.047244
31
0
0
LINE
8
1
10
1164.173228
20
-1692.803150
30
0
11
1247.637795
21
-1692.803150
31
0
0
LINE
8
1
10
1164.173228
20
-1692.803150
30
0
11
1164.173228
21
-1697.527559
31
0
0
LINE
8
1
10
1247.637795
20
-1692.803150
30
0
11
1247.637795
21
-1697.527559
31
0
0
LINE
8
1
10
1164.173228
20
-1697.527559
30
0
11
1247.637795
21
-1697.527559
31
0
0
LINE
8
1
10
1656.692913
20
-1708.157480
30
0
11
1661.417323
21
-1708.157480
31
0
0
LINE
8
1
10
1656.692913
20
-1708.157480
30
0
11
1656.692913
21
-2006.976378
31
0
0
LINE
8
1
10
1661.417323
20
-1708.157480
30
0
11
1661.417323
21
-2006.976378
31
0
0
LINE
8
1
10
1656.692913
20
-2006.976378
30
0
11
1661.417323
21
-2006.976378
31
0
0
LINE
8
1
10
1221.259843
20
-1968.393701
30
0
11
1255.511811
21
-1968.393701
31
0
0
LINE
8
1
10
1221.259843
20
-1968.393701
30
0
11
1221.259843
21
-1973.118110
31
0
0
LINE
8
1
10
1255.511811
20
-1968.393701
30
0
11
1255.511811
21
-1973.118110
31
0
0
LINE
8
1
10
1221.259843
20
-1973.118110
30
0
11
1255.511811
21
-1973.118110
31
0
0
LINE
8
1
10
1585.433071
20
-1785.322835
30
0
11
1590.157480
21
-1785.322835
31
0
0
LINE
8
1
10
1585.433071
20
-1785.322835
30
0
11
1585.433071
21
-1803.826772
31
0
0
LINE
8
1
10
1590.157480
20
-1785.322835
30
0
11
1590.157480
21
-1803.826772
31
0
0
LINE
8
1
10
1585.433071
20
-1803.826772
30
0
11
1590.157480
21
-1803.826772
31
0
0
LINE
8
1
10
1250.787402
20
-1962.169685
30
0
11
1314.553031
21
-1962.169685
31
0
0
LINE
8
1
10
1250.787402
20
-1962.169685
30
0
11
1250.787402
21
-1973.118110
31
0
0
LINE
8
1
10
1314.553031
20
-1962.169685
30
0
11
1314.553031
21
-1973.118110
31
0
0
LINE
8
1
10
1250.787402
20
-1973.118110
30
0
11
1314.553031
21
-1973.118110
31
0
0
LINE
8
1
10
1388.582677
20
-1962.169685
30
0
11
1452.348307
21
-1962.169685
31
0
0
LINE
8
1
10
1388.582677
20
-1962.169685
30
0
11
1388.582677
21
-1973.118110
31
0
0
LINE
8
1
10
1452.348307
20
-1962.169685
30
0
11
1452.348307
21
-1973.118110
31
0
0
LINE
8
1
10
1388.582677
20
-1973.118110
30
0
11
1452.348307
21
-1973.118110
31
0
0
LINE
8
1
10
1526.377953
20
-1962.169685
30
0
11
1590.143583
21
-1962.169685
31
0
0
LINE
8
1
10
1526.377953
20
-1962.169685
30
0
11
1526.377953
21
-1973.118110
31
0
0
LINE
8
1
10
1590.143583
20
-1962.169685
30
0
11
1590.143583
21
-1973.118110
31
0
0
LINE
8
1
10
1526.377953
20
-1973.118110
30
0
11
1590.143583
21
-1973.118110
31
0
0
LINE
8
1
10
1496.850394
20
-1234.141732
30
0
11
1619.685039
21
-1234.141732
31
0
0
LINE
8
1
10
1496.850394
20
-1234.141732
30
0
11
1496.850394
21
-1238.866142
31
0
0
LINE
8
1
10
1619.685039
20
-1234.141732
30
0
11
1619.685039
21
-1238.866142
31
0
0
LINE
8
1
10
1496.850394
20
-1238.866142
30
0
11
1619.685039
21
-1238.866142
31
0
0
LINE
8
1
10
1447.637795
20
-1273.511811
30
0
11
1472.047244
21
-1273.511811
31
0
0
LINE
8
1
10
1447.637795
20
-1273.511811
30
0
11
1447.637795
21
-1278.236220
31
0
0
LINE
8
1
10
1472.047244
20
-1273.511811
30
0
11
1472.047244
21
-1278.236220
31
0
0
LINE
8
1
10
1447.637795
20
-1278.236220
30
0
11
1472.047244
21
-1278.236220
31
0
0
LINE
8
1
10
1221.259843
20
-1234.141732
30
0
11
1344.094488
21
-1234.141732
31
0
0
LINE
8
1
10
1221.259843
20
-1234.141732
30
0
11
1221.259843
21
-1238.866142
31
0
0
LINE
8
1
10
1344.094488
20
-1234.141732
30
0
11
1344.094488
21
-1238.866142
31
0
0
LINE
8
1
10
1221.259843
20
-1238.866142
30
0
11
1344.094488
21
-1238.866142
31
0
0
LINE
8
1
10
1359.055118
20
-1287.291339
30
0
11
1363.779528
21
-1287.291339
31
0
0
LINE
8
1
10
1359.055118
20
-1287.291339
30
0
11
1359.055118
21
-1461.307087
31
0
0
LINE
8
1
10
1363.779528
20
-1287.291339
30
0
11
1363.779528
21
-1461.307087
31
0
0
LINE
8
1
10
1359.055118
20
-1461.307087
30
0
11
1363.779528
21
-1461.307087
31
0
0
LINE
8
1
10
1447.637795
20
-1273.511811
30
0
11
1452.362205
21
-1273.511811
31
0
0
LINE
8
1
10
1447.637795
20
-1273.511811
30
0
11
1447.637795
21
-1292.015748
31
0
0
LINE
8
1
10
1452.362205
20
-1273.511811
30
0
11
1452.362205
21
-1292.015748
31
0
0
LINE
8
1
10
1447.637795
20
-1292.015748
30
0
11
1452.362205
21
-1292.015748
31
0
0
LINE
8
1
10
1467.322835
20
-1234.141732
30
0
11
1481.889764
21
-1234.141732
31
0
0
LINE
8
1
10
1467.322835
20
-1234.141732
30
0
11
1467.322835
21
-1278.236220
31
0
0
LINE
8
1
10
1481.889764
20
-1234.141732
30
0
11
1481.889764
21
-1278.236220
31
0
0
LINE
8
1
10
1467.322835
20
-1278.236220
30
0
11
1481.889764
21
-1278.236220
31
0
0
LINE
8
1
10
1585.433071
20
-1456.582677
30
0
11
1619.685039
21
-1456.582677
31
0
0
LINE
8
1
10
1585.433071
20
-1456.582677
30
0
11
1585.433071
21
-1461.307087
31
0
0
LINE
8
1
10
1619.685039
20
-1456.582677
30
0
11
1619.685039
21
-1461.307087
31
0
0
LINE
8
1
10
1585.433071
20
-1461.307087
30
0
11
1619.685039
21
-1461.307087
31
0
0
LINE
8
1
10
1585.433071
20
-1287.291339
30
0
11
1619.685039
21
-1287.291339
31
0
0
LINE
8
1
10
1585.433071
20
-1287.291339
30
0
11
1585.433071
21
-1292.015748
31
0
0
LINE
8
1
10
1619.685039
20
-1287.291339
30
0
11
1619.685039
21
-1292.015748
31
0
0
LINE
8
1
10
1585.433071
20
-1292.015748
30
0
11
1619.685039
21
-1292.015748
31
0
0
LINE
8
1
10
1329.527559
20
-1234.141732
30
0
11
1344.094488
21
-1234.141732
31
0
0
LINE
8
1
10
1329.527559
20
-1234.141732
30
0
11
1329.527559
21
-1278.236220
31
0
0
LINE
8
1
10
1344.094488
20
-1234.141732
30
0
11
1344.094488
21
-1278.236220
31
0
0
LINE
8
1
10
1329.527559
20
-1278.236220
30
0
11
1344.094488
21
-1278.236220
31
0
0
LINE
8
1
10
1496.850394
20
-1287.291339
30
0
11
1531.102362
21
-1287.291339
31
0
0
LINE
8
1
10
1496.850394
20
-1287.291339
30
0
11
1496.850394
21
-1292.015748
31
0
0
LINE
8
1
10
1531.102362
20
-1287.291339
30
0
11
1531.102362
21
-1292.015748
31
0
0
LINE
8
1
10
1496.850394
20
-1292.015748
30
0
11
1531.102362
21
-1292.015748
31
0
0
LINE
8
1
10
1221.259843
20
-1234.141732
30
0
11
1235.826772
21
-1234.141732
31
0
0
LINE
8
1
10
1221.259843
20
-1234.141732
30
0
11
1221.259843
21
-1278.236220
31
0
0
LINE
8
1
10
1235.826772
20
-1234.141732
30
0
11
1235.826772
21
-1278.236220
31
0
0
LINE
8
1
10
1221.259843
20
-1278.236220
30
0
11
1235.826772
21
-1278.236220
31
0
0
LINE
8
1
10
1614.960630
20
-1287.291339
30
0
11
1619.685039
21
-1287.291339
31
0
0
LINE
8
1
10
1614.960630
20
-1287.291339
30
0
11
1614.960630
21
-1461.307087
31
0
0
LINE
8
1
10
1619.685039
20
-1287.291339
30
0
11
1619.685039
21
-1461.307087
31
0
0
LINE
8
1
10
1614.960630
20
-1461.307087
30
0
11
1619.685039
21
-1461.307087
31
0
0
LINE
8
1
10
1359.055118
20
-1456.582677
30
0
11
1393.307087
21
-1456.582677
31
0
0
LINE
8
1
10
1359.055118
20
-1456.582677
30
0
11
1359.055118
21
-1461.307087
31
0
0
LINE
8
1
10
1393.307087
20
-1456.582677
30
0
11
1393.307087
21
-1461.307087
31
0
0
LINE
8
1
10
1359.055118
20
-1461.307087
30
0
11
1393.307087
21
-1461.307087
31
0
0
LINE
8
1
10
1221.259843
20
-1287.291339
30
0
11
1255.511811
21
-1287.291339
31
0
0
LINE
8
1
10
1221.259843
20
-1287.291339
30
0
11
1221.259843
21
-1292.015748
31
0
0
LINE
8
1
10
1255.511811
20
-1287.291339
30
0
11
1255.511811
21
-1292.015748
31
0
0
LINE
8
1
10
1221.259843
20
-1292.015748
30
0
11
1255.511811
21
-1292.015748
31
0
0
LINE
8
1
10
1359.055118
20
-1234.141732
30
0
11
1481.889764
21
-1234.141732
31
0
0
LINE
8
1
10
1359.055118
20
-1234.141732
30
0
11
1359.055118
21
-1238.866142
31
0
0
LINE
8
1
10
1481.889764
20
-1234.141732
30
0
11
1481.889764
21
-1238.866142
31
0
0
LINE
8
1
10
1359.055118
20
-1238.866142
30
0
11
1481.889764
21
-1238.866142
31
0
0
LINE
8
1
10
1309.842520
20
-1273.511811
30
0
11
1334.251969
21
-1273.511811
31
0
0
LINE
8
1
10
1309.842520
20
-1273.511811
30
0
11
1309.842520
21
-1278.236220
31
0
0
LINE
8
1
10
1334.251969
20
-1273.511811
30
0
11
1334.251969
21
-1278.236220
31
0
0
LINE
8
1
10
1309.842520
20
-1278.236220
30
0
11
1334.251969
21
-1278.236220
31
0
0
LINE
8
1
10
1496.850394
20
-1456.582677
30
0
11
1531.102362
21
-1456.582677
31
0
0
LINE
8
1
10
1496.850394
20
-1456.582677
30
0
11
1496.850394
21
-1461.307087
31
0
0
LINE
8
1
10
1531.102362
20
-1456.582677
30
0
11
1531.102362
21
-1461.307087
31
0
0
LINE
8
1
10
1496.850394
20
-1461.307087
30
0
11
1531.102362
21
-1461.307087
31
0
0
LINE
8
1
10
1359.055118
20
-1234.141732
30
0
11
1373.622047
21
-1234.141732
31
0
0
LINE
8
1
10
1359.055118
20
-1234.141732
30
0
11
1359.055118
21
-1278.236220
31
0
0
LINE
8
1
10
1373.622047
20
-1234.141732
30
0
11
1373.622047
21
-1278.236220
31
0
0
LINE
8
1
10
1359.055118
20
-1278.236220
30
0
11
1373.622047
21
-1278.236220
31
0
0
LINE
8
1
10
1585.433071
20
-1273.511811
30
0
11
1590.157480
21
-1273.511811
31
0
0
LINE
8
1
10
1585.433071
20
-1273.511811
30
0
11
1585.433071
21
-1292.015748
31
0
0
LINE
8
1
10
1590.157480
20
-1273.511811
30
0
11
1590.157480
21
-1292.015748
31
0
0
LINE
8
1
10
1585.433071
20
-1292.015748
30
0
11
1590.157480
21
-1292.015748
31
0
0
LINE
8
1
10
1388.582677
20
-1273.511811
30
0
11
1393.307087
21
-1273.511811
31
0
0
LINE
8
1
10
1388.582677
20
-1273.511811
30
0
11
1388.582677
21
-1292.015748
31
0
0
LINE
8
1
10
1393.307087
20
-1273.511811
30
0
11
1393.307087
21
-1292.015748
31
0
0
LINE
8
1
10
1388.582677
20
-1292.015748
30
0
11
1393.307087
21
-1292.015748
31
0
0
LINE
8
1
10
1309.842520
20
-1287.291339
30
0
11
1344.094488
21
-1287.291339
31
0
0
LINE
8
1
10
1309.842520
20
-1287.291339
30
0
11
1309.842520
21
-1292.015748
31
0
0
LINE
8
1
10
1344.094488
20
-1287.291339
30
0
11
1344.094488
21
-1292.015748
31
0
0
LINE
8
1
10
1309.842520
20
-1292.015748
30
0
11
1344.094488
21
-1292.015748
31
0
0
LINE
8
1
10
1447.637795
20
-1287.291339
30
0
11
1481.889764
21
-1287.291339
31
0
0
LINE
8
1
10
1447.637795
20
-1287.291339
30
0
11
1447.637795
21
-1292.015748
31
0
0
LINE
8
1
10
1481.889764
20
-1287.291339
30
0
11
1481.889764
21
-1292.015748
31
0
0
LINE
8
1
10
1447.637795
20
-1292.015748
30
0
11
1481.889764
21
-1292.015748
31
0
0
LINE
8
1
10
1368.897638
20
-1273.511811
30
0
11
1393.307087
21
-1273.511811
31
0
0
LINE
8
1
10
1368.897638
20
-1273.511811
30
0
11
1368.897638
21
-1278.236220
31
0
0
LINE
8
1
10
1393.307087
20
-1273.511811
30
0
11
1393.307087
21
-1278.236220
31
0
0
LINE
8
1
10
1368.897638
20
-1278.236220
30
0
11
1393.307087
21
-1278.236220
31
0
0
LINE
8
1
10
1506.692913
20
-1273.511811
30
0
11
1531.102362
21
-1273.511811
31
0
0
LINE
8
1
10
1506.692913
20
-1273.511811
30
0
11
1506.692913
21
-1278.236220
31
0
0
LINE
8
1
10
1531.102362
20
-1273.511811
30
0
11
1531.102362
21
-1278.236220
31
0
0
LINE
8
1
10
1506.692913
20
-1278.236220
30
0
11
1531.102362
21
-1278.236220
31
0
0
LINE
8
1
10
1221.259843
20
-1456.582677
30
0
11
1255.511811
21
-1456.582677
31
0
0
LINE
8
1
10
1221.259843
20
-1456.582677
30
0
11
1221.259843
21
-1461.307087
31
0
0
LINE
8
1
10
1255.511811
20
-1456.582677
30
0
11
1255.511811
21
-1461.307087
31
0
0
LINE
8
1
10
1221.259843
20
-1461.307087
30
0
11
1255.511811
21
-1461.307087
31
0
0
LINE
8
1
10
1179.527559
20
-1196.346457
30
0
11
1184.251969
21
-1196.346457
31
0
0
LINE
8
1
10
1179.527559
20
-1196.346457
30
0
11
1179.527559
21
-1495.165354
31
0
0
LINE
8
1
10
1184.251969
20
-1196.346457
30
0
11
1184.251969
21
-1495.165354
31
0
0
LINE
8
1
10
1179.527559
20
-1495.165354
30
0
11
1184.251969
21
-1495.165354
31
0
0
LINE
8
1
10
1164.173228
20
-1180.992126
30
0
11
1247.637795
21
-1180.992126
31
0
0
LINE
8
1
10
1164.173228
20
-1180.992126
30
0
11
1164.173228
21
-1185.716535
31
0
0
LINE
8
1
10
1247.637795
20
-1180.992126
30
0
11
1247.637795
21
-1185.716535
31
0
0
LINE
8
1
10
1164.173228
20
-1185.716535
30
0
11
1247.637795
21
-1185.716535
31
0
0
LINE
8
1
10
1179.527559
20
-1196.346457
30
0
11
1661.417323
21
-1196.346457
31
0
0
LINE
8
1
10
1179.527559
20
-1196.346457
30
0
11
1179.527559
21
-1201.070866
31
0
0
LINE
8
1
10
1661.417323
20
-1196.346457
30
0
11
1661.417323
21
-1201.070866
31
0
0
LINE
8
1
10
1179.527559
20
-1201.070866
30
0
11
1661.417323
21
-1201.070866
31
0
0
LINE
8
1
10
1496.850394
20
-1234.141732
30
0
11
1511.417323
21
-1234.141732
31
0
0
LINE
8
1
10
1496.850394
20
-1234.141732
30
0
11
1496.850394
21
-1278.236220
31
0
0
LINE
8
1
10
1511.417323
20
-1234.141732
30
0
11
1511.417323
21
-1278.236220
31
0
0
LINE
8
1
10
1496.850394
20
-1278.236220
30
0
11
1511.417323
21
-1278.236220
31
0
0
LINE
8
1
10
1164.173228
20
-1180.992126
30
0
11
1168.897638
21
-1180.992126
31
0
0
LINE
8
1
10
1164.173228
20
-1180.992126
30
0
11
1164.173228
21
-1234.929134
31
0
0
LINE
8
1
10
1168.897638
20
-1180.992126
30
0
11
1168.897638
21
-1234.929134
31
0
0
LINE
8
1
10
1164.173228
20
-1234.929134
30
0
11
1168.897638
21
-1234.929134
31
0
0
LINE
8
1
10
1585.433071
20
-1273.511811
30
0
11
1609.842520
21
-1273.511811
31
0
0
LINE
8
1
10
1585.433071
20
-1273.511811
30
0
11
1585.433071
21
-1278.236220
31
0
0
LINE
8
1
10
1609.842520
20
-1273.511811
30
0
11
1609.842520
21
-1278.236220
31
0
0
LINE
8
1
10
1585.433071
20
-1278.236220
30
0
11
1609.842520
21
-1278.236220
31
0
0
LINE
8
1
10
1477.165354
20
-1287.291339
30
0
11
1481.889764
21
-1287.291339
31
0
0
LINE
8
1
10
1477.165354
20
-1287.291339
30
0
11
1477.165354
21
-1461.307087
31
0
0
LINE
8
1
10
1481.889764
20
-1287.291339
30
0
11
1481.889764
21
-1461.307087
31
0
0
LINE
8
1
10
1477.165354
20
-1461.307087
30
0
11
1481.889764
21
-1461.307087
31
0
0
LINE
8
1
10
1359.055118
20
-1287.291339
30
0
11
1393.307087
21
-1287.291339
31
0
0
LINE
8
1
10
1359.055118
20
-1287.291339
30
0
11
1359.055118
21
-1292.015748
31
0
0
LINE
8
1
10
1393.307087
20
-1287.291339
30
0
11
1393.307087
21
-1292.015748
31
0
0
LINE
8
1
10
1359.055118
20
-1292.015748
30
0
11
1393.307087
21
-1292.015748
31
0
0
LINE
8
1
10
1221.259843
20
-1287.291339
30
0
11
1225.984252
21
-1287.291339
31
0
0
LINE
8
1
10
1221.259843
20
-1287.291339
30
0
11
1221.259843
21
-1461.307087
31
0
0
LINE
8
1
10
1225.984252
20
-1287.291339
30
0
11
1225.984252
21
-1461.307087
31
0
0
LINE
8
1
10
1221.259843
20
-1461.307087
30
0
11
1225.984252
21
-1461.307087
31
0
0
LINE
8
1
10
1250.787402
20
-1273.511811
30
0
11
1255.511811
21
-1273.511811
31
0
0
LINE
8
1
10
1250.787402
20
-1273.511811
30
0
11
1250.787402
21
-1292.015748
31
0
0
LINE
8
1
10
1255.511811
20
-1273.511811
30
0
11
1255.511811
21
-1292.015748
31
0
0
LINE
8
1
10
1250.787402
20
-1292.015748
30
0
11
1255.511811
21
-1292.015748
31
0
0
LINE
8
1
10
1231.102362
20
-1273.511811
30
0
11
1255.511811
21
-1273.511811
31
0
0
LINE
8
1
10
1231.102362
20
-1273.511811
30
0
11
1231.102362
21
-1278.236220
31
0
0
LINE
8
1
10
1255.511811
20
-1273.511811
30
0
11
1255.511811
21
-1278.236220
31
0
0
LINE
8
1
10
1231.102362
20
-1278.236220
30
0
11
1255.511811
21
-1278.236220
31
0
0
LINE
8
1
10
1447.637795
20
-1456.582677
30
0
11
1481.889764
21
-1456.582677
31
0
0
LINE
8
1
10
1447.637795
20
-1456.582677
30
0
11
1447.637795
21
-1461.307087
31
0
0
LINE
8
1
10
1481.889764
20
-1456.582677
30
0
11
1481.889764
21
-1461.307087
31
0
0
LINE
8
1
10
1447.637795
20
-1461.307087
30
0
11
1481.889764
21
-1461.307087
31
0
0
LINE
8
1
10
1339.370079
20
-1287.291339
30
0
11
1344.094488
21
-1287.291339
31
0
0
LINE
8
1
10
1339.370079
20
-1287.291339
30
0
11
1339.370079
21
-1461.307087
31
0
0
LINE
8
1
10
1344.094488
20
-1287.291339
30
0
11
1344.094488
21
-1461.307087
31
0
0
LINE
8
1
10
1339.370079
20
-1461.307087
30
0
11
1344.094488
21
-1461.307087
31
0
0
LINE
8
1
10
1309.842520
20
-1273.511811
30
0
11
1314.566929
21
-1273.511811
31
0
0
LINE
8
1
10
1309.842520
20
-1273.511811
30
0
11
1309.842520
21
-1292.015748
31
0
0
LINE
8
1
10
1314.566929
20
-1273.511811
30
0
11
1314.566929
21
-1292.015748
31
0
0
LINE
8
1
10
1309.842520
20
-1292.015748
30
0
11
1314.566929
21
-1292.015748
31
0
0
LINE
8
1
10
1526.377953
20
-1273.511811
30
0
11
1531.102362
21
-1273.511811
31
0
0
LINE
8
1
10
1526.377953
20
-1273.511811
30
0
11
1526.377953
21
-1292.015748
31
0
0
LINE
8
1
10
1531.102362
20
-1273.511811
30
0
11
1531.102362
21
-1292.015748
31
0
0
LINE
8
1
10
1526.377953
20
-1292.015748
30
0
11
1531.102362
21
-1292.015748
31
0
0
LINE
8
1
10
1496.850394
20
-1287.291339
30
0
11
1501.574803
21
-1287.291339
31
0
0
LINE
8
1
10
1496.850394
20
-1287.291339
30
0
11
1496.850394
21
-1461.307087
31
0
0
LINE
8
1
10
1501.574803
20
-1287.291339
30
0
11
1501.574803
21
-1461.307087
31
0
0
LINE
8
1
10
1496.850394
20
-1461.307087
30
0
11
1501.574803
21
-1461.307087
31
0
0
LINE
8
1
10
1656.692913
20
-1196.346457
30
0
11
1661.417323
21
-1196.346457
31
0
0
LINE
8
1
10
1656.692913
20
-1196.346457
30
0
11
1656.692913
21
-1495.165354
31
0
0
LINE
8
1
10
1661.417323
20
-1196.346457
30
0
11
1661.417323
21
-1495.165354
31
0
0
LINE
8
1
10
1656.692913
20
-1495.165354
30
0
11
1661.417323
21
-1495.165354
31
0
0
LINE
8
1
10
1179.527559
20
-1490.440945
30
0
11
1661.417323
21
-1490.440945
31
0
0
LINE
8
1
10
1179.527559
20
-1490.440945
30
0
11
1179.527559
21
-1495.165354
31
0
0
LINE
8
1
10
1661.417323
20
-1490.440945
30
0
11
1661.417323
21
-1495.165354
31
0
0
LINE
8
1
10
1179.527559
20
-1495.165354
30
0
11
1661.417323
21
-1495.165354
31
0
0
LINE
8
1
10
1605.118110
20
-1234.141732
30
0
11
1619.685039
21
-1234.141732
31
0
0
LINE
8
1
10
1605.118110
20
-1234.141732
30
0
11
1605.118110
21
-1278.236220
31
0
0
LINE
8
1
10
1619.685039
20
-1234.141732
30
0
11
1619.685039
21
-1278.236220
31
0
0
LINE
8
1
10
1605.118110
20
-1278.236220
30
0
11
1619.685039
21
-1278.236220
31
0
0
LINE
8
1
10
1309.842520
20
-1456.582677
30
0
11
1344.094488
21
-1456.582677
31
0
0
LINE
8
1
10
1309.842520
20
-1456.582677
30
0
11
1309.842520
21
-1461.307087
31
0
0
LINE
8
1
10
1344.094488
20
-1456.582677
30
0
11
1344.094488
21
-1461.307087
31
0
0
LINE
8
1
10
1309.842520
20
-1461.307087
30
0
11
1344.094488
21
-1461.307087
31
0
0
LINE
8
1
10
1250.787402
20
-1450.358661
30
0
11
1314.553031
21
-1450.358661
31
0
0
LINE
8
1
10
1250.787402
20
-1450.358661
30
0
11
1250.787402
21
-1461.307087
31
0
0
LINE
8
1
10
1314.553031
20
-1450.358661
30
0
11
1314.553031
21
-1461.307087
31
0
0
LINE
8
1
10
1250.787402
20
-1461.307087
30
0
11
1314.553031
21
-1461.307087
31
0
0
LINE
8
1
10
1388.582677
20
-1450.358661
30
0
11
1452.348307
21
-1450.358661
31
0
0
LINE
8
1
10
1388.582677
20
-1450.358661
30
0
11
1388.582677
21
-1461.307087
31
0
0
LINE
8
1
10
1452.348307
20
-1450.358661
30
0
11
1452.348307
21
-1461.307087
31
0
0
LINE
8
1
10
1388.582677
20
-1461.307087
30
0
11
1452.348307
21
-1461.307087
31
0
0
LINE
8
1
10
1526.377953
20
-1450.358661
30
0
11
1590.143583
21
-1450.358661
31
0
0
LINE
8
1
10
1526.377953
20
-1450.358661
30
0
11
1526.377953
21
-1461.307087
31
0
0
LINE
8
1
10
1590.143583
20
-1450.358661
30
0
11
1590.143583
21
-1461.307087
31
0
0
LINE
8
1
10
1526.377953
20
-1461.307087
30
0
11
1590.143583
21
-1461.307087
31
0
0
LINE
8
1
10
916.141732
20
-1273.511811
30
0
11
940.551181
21
-1273.511811
31
0
0
LINE
8
1
10
916.141732
20
-1273.511811
30
0
11
916.141732
21
-1278.236220
31
0
0
LINE
8
1
10
940.551181
20
-1273.511811
30
0
11
940.551181
21
-1278.236220
31
0
0
LINE
8
1
10
916.141732
20
-1278.236220
30
0
11
940.551181
21
-1278.236220
31
0
0
LINE
8
1
10
768.503937
20
-1287.291339
30
0
11
802.755906
21
-1287.291339
31
0
0
LINE
8
1
10
768.503937
20
-1287.291339
30
0
11
768.503937
21
-1292.015748
31
0
0
LINE
8
1
10
802.755906
20
-1287.291339
30
0
11
802.755906
21
-1292.015748
31
0
0
LINE
8
1
10
768.503937
20
-1292.015748
30
0
11
802.755906
21
-1292.015748
31
0
0
LINE
8
1
10
906.299213
20
-1456.582677
30
0
11
940.551181
21
-1456.582677
31
0
0
LINE
8
1
10
906.299213
20
-1456.582677
30
0
11
906.299213
21
-1461.307087
31
0
0
LINE
8
1
10
940.551181
20
-1456.582677
30
0
11
940.551181
21
-1461.307087
31
0
0
LINE
8
1
10
906.299213
20
-1461.307087
30
0
11
940.551181
21
-1461.307087
31
0
0
LINE
8
1
10
876.771654
20
-1234.141732
30
0
11
891.338583
21
-1234.141732
31
0
0
LINE
8
1
10
876.771654
20
-1234.141732
30
0
11
876.771654
21
-1278.236220
31
0
0
LINE
8
1
10
891.338583
20
-1234.141732
30
0
11
891.338583
21
-1278.236220
31
0
0
LINE
8
1
10
876.771654
20
-1278.236220
30
0
11
891.338583
21
-1278.236220
31
0
0
LINE
8
1
10
778.346457
20
-1273.511811
30
0
11
802.755906
21
-1273.511811
31
0
0
LINE
8
1
10
778.346457
20
-1273.511811
30
0
11
778.346457
21
-1278.236220
31
0
0
LINE
8
1
10
802.755906
20
-1273.511811
30
0
11
802.755906
21
-1278.236220
31
0
0
LINE
8
1
10
778.346457
20
-1278.236220
30
0
11
802.755906
21
-1278.236220
31
0
0
LINE
8
1
10
1066.141732
20
-1196.346457
30
0
11
1070.866142
21
-1196.346457
31
0
0
LINE
8
1
10
1066.141732
20
-1196.346457
30
0
11
1066.141732
21
-1495.165354
31
0
0
LINE
8
1
10
1070.866142
20
-1196.346457
30
0
11
1070.866142
21
-1495.165354
31
0
0
LINE
8
1
10
1066.141732
20
-1495.165354
30
0
11
1070.866142
21
-1495.165354
31
0
0
LINE
8
1
10
886.614173
20
-1287.291339
30
0
11
891.338583
21
-1287.291339
31
0
0
LINE
8
1
10
886.614173
20
-1287.291339
30
0
11
886.614173
21
-1461.307087
31
0
0
LINE
8
1
10
891.338583
20
-1287.291339
30
0
11
891.338583
21
-1461.307087
31
0
0
LINE
8
1
10
886.614173
20
-1461.307087
30
0
11
891.338583
21
-1461.307087
31
0
0
LINE
8
1
10
994.881890
20
-1273.511811
30
0
11
1019.291339
21
-1273.511811
31
0
0
LINE
8
1
10
994.881890
20
-1273.511811
30
0
11
994.881890
21
-1278.236220
31
0
0
LINE
8
1
10
1019.291339
20
-1273.511811
30
0
11
1019.291339
21
-1278.236220
31
0
0
LINE
8
1
10
994.881890
20
-1278.236220
30
0
11
1019.291339
21
-1278.236220
31
0
0
LINE
8
1
10
573.622047
20
-1180.992126
30
0
11
578.346457
21
-1180.992126
31
0
0
LINE
8
1
10
573.622047
20
-1180.992126
30
0
11
573.622047
21
-1234.929134
31
0
0
LINE
8
1
10
578.346457
20
-1180.992126
30
0
11
578.346457
21
-1234.929134
31
0
0
LINE
8
1
10
573.622047
20
-1234.929134
30
0
11
578.346457
21
-1234.929134
31
0
0
LINE
8
1
10
935.826772
20
-1273.511811
30
0
11
940.551181
21
-1273.511811
31
0
0
LINE
8
1
10
935.826772
20
-1273.511811
30
0
11
935.826772
21
-1292.015748
31
0
0
LINE
8
1
10
940.551181
20
-1273.511811
30
0
11
940.551181
21
-1292.015748
31
0
0
LINE
8
1
10
935.826772
20
-1292.015748
30
0
11
940.551181
21
-1292.015748
31
0
0
LINE
8
1
10
719.291339
20
-1287.291339
30
0
11
753.543307
21
-1287.291339
31
0
0
LINE
8
1
10
719.291339
20
-1287.291339
30
0
11
719.291339
21
-1292.015748
31
0
0
LINE
8
1
10
753.543307
20
-1287.291339
30
0
11
753.543307
21
-1292.015748
31
0
0
LINE
8
1
10
719.291339
20
-1292.015748
30
0
11
753.543307
21
-1292.015748
31
0
0
LINE
8
1
10
630.708661
20
-1234.141732
30
0
11
753.543307
21
-1234.141732
31
0
0
LINE
8
1
10
630.708661
20
-1234.141732
30
0
11
630.708661
21
-1238.866142
31
0
0
LINE
8
1
10
753.543307
20
-1234.141732
30
0
11
753.543307
21
-1238.866142
31
0
0
LINE
8
1
10
630.708661
20
-1238.866142
30
0
11
753.543307
21
-1238.866142
31
0
0
LINE
8
1
10
857.086614
20
-1456.582677
30
0
11
891.338583
21
-1456.582677
31
0
0
LINE
8
1
10
857.086614
20
-1456.582677
30
0
11
857.086614
21
-1461.307087
31
0
0
LINE
8
1
10
891.338583
20
-1456.582677
30
0
11
891.338583
21
-1461.307087
31
0
0
LINE
8
1
10
857.086614
20
-1461.307087
30
0
11
891.338583
21
-1461.307087
31
0
0
LINE
8
1
10
768.503937
20
-1234.141732
30
0
11
783.070866
21
-1234.141732
31
0
0
LINE
8
1
10
768.503937
20
-1234.141732
30
0
11
768.503937
21
-1278.236220
31
0
0
LINE
8
1
10
783.070866
20
-1234.141732
30
0
11
783.070866
21
-1278.236220
31
0
0
LINE
8
1
10
768.503937
20
-1278.236220
30
0
11
783.070866
21
-1278.236220
31
0
0
LINE
8
1
10
738.976378
20
-1234.141732
30
0
11
753.543307
21
-1234.141732
31
0
0
LINE
8
1
10
738.976378
20
-1234.141732
30
0
11
738.976378
21
-1278.236220
31
0
0
LINE
8
1
10
753.543307
20
-1234.141732
30
0
11
753.543307
21
-1278.236220
31
0
0
LINE
8
1
10
738.976378
20
-1278.236220
30
0
11
753.543307
21
-1278.236220
31
0
0
LINE
8
1
10
640.551181
20
-1273.511811
30
0
11
664.960630
21
-1273.511811
31
0
0
LINE
8
1
10
640.551181
20
-1273.511811
30
0
11
640.551181
21
-1278.236220
31
0
0
LINE
8
1
10
664.960630
20
-1273.511811
30
0
11
664.960630
21
-1278.236220
31
0
0
LINE
8
1
10
640.551181
20
-1278.236220
30
0
11
664.960630
21
-1278.236220
31
0
0
LINE
8
1
10
857.086614
20
-1287.291339
30
0
11
891.338583
21
-1287.291339
31
0
0
LINE
8
1
10
857.086614
20
-1287.291339
30
0
11
857.086614
21
-1292.015748
31
0
0
LINE
8
1
10
891.338583
20
-1287.291339
30
0
11
891.338583
21
-1292.015748
31
0
0
LINE
8
1
10
857.086614
20
-1292.015748
30
0
11
891.338583
21
-1292.015748
31
0
0
LINE
8
1
10
630.708661
20
-1287.291339
30
0
11
635.433071
21
-1287.291339
31
0
0
LINE
8
1
10
630.708661
20
-1287.291339
30
0
11
630.708661
21
-1461.307087
31
0
0
LINE
8
1
10
635.433071
20
-1287.291339
30
0
11
635.433071
21
-1461.307087
31
0
0
LINE
8
1
10
630.708661
20
-1461.307087
30
0
11
635.433071
21
-1461.307087
31
0
0
LINE
8
1
10
906.299213
20
-1234.141732
30
0
11
920.866142
21
-1234.141732
31
0
0
LINE
8
1
10
906.299213
20
-1234.141732
30
0
11
906.299213
21
-1278.236220
31
0
0
LINE
8
1
10
920.866142
20
-1234.141732
30
0
11
920.866142
21
-1278.236220
31
0
0
LINE
8
1
10
906.299213
20
-1278.236220
30
0
11
920.866142
21
-1278.236220
31
0
0
LINE
8
1
10
768.503937
20
-1456.582677
30
0
11
802.755906
21
-1456.582677
31
0
0
LINE
8
1
10
768.503937
20
-1456.582677
30
0
11
768.503937
21
-1461.307087
31
0
0
LINE
8
1
10
802.755906
20
-1456.582677
30
0
11
802.755906
21
-1461.307087
31
0
0
LINE
8
1
10
768.503937
20
-1461.307087
30
0
11
802.755906
21
-1461.307087
31
0
0
LINE
8
1
10
630.708661
20
-1234.141732
30
0
11
645.275591
21
-1234.141732
31
0
0
LINE
8
1
10
630.708661
20
-1234.141732
30
0
11
630.708661
21
-1278.236220
31
0
0
LINE
8
1
10
645.275591
20
-1234.141732
30
0
11
645.275591
21
-1278.236220
31
0
0
LINE
8
1
10
630.708661
20
-1278.236220
30
0
11
645.275591
21
-1278.236220
31
0
0
LINE
8
1
10
906.299213
20
-1287.291339
30
0
11
940.551181
21
-1287.291339
31
0
0
LINE
8
1
10
906.299213
20
-1287.291339
30
0
11
906.299213
21
-1292.015748
31
0
0
LINE
8
1
10
940.551181
20
-1287.291339
30
0
11
940.551181
21
-1292.015748
31
0
0
LINE
8
1
10
906.299213
20
-1292.015748
30
0
11
940.551181
21
-1292.015748
31
0
0
LINE
8
1
10
857.086614
20
-1273.511811
30
0
11
881.496063
21
-1273.511811
31
0
0
LINE
8
1
10
857.086614
20
-1273.511811
30
0
11
857.086614
21
-1278.236220
31
0
0
LINE
8
1
10
881.496063
20
-1273.511811
30
0
11
881.496063
21
-1278.236220
31
0
0
LINE
8
1
10
857.086614
20
-1278.236220
30
0
11
881.496063
21
-1278.236220
31
0
0
LINE
8
1
10
906.299213
20
-1234.141732
30
0
11
1029.133858
21
-1234.141732
31
0
0
LINE
8
1
10
906.299213
20
-1234.141732
30
0
11
906.299213
21
-1238.866142
31
0
0
LINE
8
1
10
1029.133858
20
-1234.141732
30
0
11
1029.133858
21
-1238.866142
31
0
0
LINE
8
1
10
906.299213
20
-1238.866142
30
0
11
1029.133858
21
-1238.866142
31
0
0
LINE
8
1
10
1024.409449
20
-1287.291339
30
0
11
1029.133858
21
-1287.291339
31
0
0
LINE
8
1
10
1024.409449
20
-1287.291339
30
0
11
1024.409449
21
-1461.307087
31
0
0
LINE
8
1
10
1029.133858
20
-1287.291339
30
0
11
1029.133858
21
-1461.307087
31
0
0
LINE
8
1
10
1024.409449
20
-1461.307087
30
0
11
1029.133858
21
-1461.307087
31
0
0
LINE
8
1
10
798.031496
20
-1273.511811
30
0
11
802.755906
21
-1273.511811
31
0
0
LINE
8
1
10
798.031496
20
-1273.511811
30
0
11
798.031496
21
-1292.015748
31
0
0
LINE
8
1
10
802.755906
20
-1273.511811
30
0
11
802.755906
21
-1292.015748
31
0
0
LINE
8
1
10
798.031496
20
-1292.015748
30
0
11
802.755906
21
-1292.015748
31
0
0
LINE
8
1
10
994.881890
20
-1456.582677
30
0
11
1029.133858
21
-1456.582677
31
0
0
LINE
8
1
10
994.881890
20
-1456.582677
30
0
11
994.881890
21
-1461.307087
31
0
0
LINE
8
1
10
1029.133858
20
-1456.582677
30
0
11
1029.133858
21
-1461.307087
31
0
0
LINE
8
1
10
994.881890
20
-1461.307087
30
0
11
1029.133858
21
-1461.307087
31
0
0
LINE
8
1
10
630.708661
20
-1456.582677
30
0
11
664.960630
21
-1456.582677
31
0
0
LINE
8
1
10
630.708661
20
-1456.582677
30
0
11
630.708661
21
-1461.307087
31
0
0
LINE
8
1
10
664.960630
20
-1456.582677
30
0
11
664.960630
21
-1461.307087
31
0
0
LINE
8
1
10
630.708661
20
-1461.307087
30
0
11
664.960630
21
-1461.307087
31
0
0
LINE
8
1
10
588.976378
20
-1490.440945
30
0
11
1070.866142
21
-1490.440945
31
0
0
LINE
8
1
10
588.976378
20
-1490.440945
30
0
11
588.976378
21
-1495.165354
31
0
0
LINE
8
1
10
1070.866142
20
-1490.440945
30
0
11
1070.866142
21
-1495.165354
31
0
0
LINE
8
1
10
588.976378
20
-1495.165354
30
0
11
1070.866142
21
-1495.165354
31
0
0
LINE
8
1
10
857.086614
20
-1273.511811
30
0
11
861.811024
21
-1273.511811
31
0
0
LINE
8
1
10
857.086614
20
-1273.511811
30
0
11
857.086614
21
-1292.015748
31
0
0
LINE
8
1
10
861.811024
20
-1273.511811
30
0
11
861.811024
21
-1292.015748
31
0
0
LINE
8
1
10
857.086614
20
-1292.015748
30
0
11
861.811024
21
-1292.015748
31
0
0
LINE
8
1
10
660.236220
20
-1273.511811
30
0
11
664.960630
21
-1273.511811
31
0
0
LINE
8
1
10
660.236220
20
-1273.511811
30
0
11
660.236220
21
-1292.015748
31
0
0
LINE
8
1
10
664.960630
20
-1273.511811
30
0
11
664.960630
21
-1292.015748
31
0
0
LINE
8
1
10
660.236220
20
-1292.015748
30
0
11
664.960630
21
-1292.015748
31
0
0
LINE
8
1
10
906.299213
20
-1287.291339
30
0
11
911.023622
21
-1287.291339
31
0
0
LINE
8
1
10
906.299213
20
-1287.291339
30
0
11
906.299213
21
-1461.307087
31
0
0
LINE
8
1
10
911.023622
20
-1287.291339
30
0
11
911.023622
21
-1461.307087
31
0
0
LINE
8
1
10
906.299213
20
-1461.307087
30
0
11
911.023622
21
-1461.307087
31
0
0
LINE
8
1
10
719.291339
20
-1273.511811
30
0
11
724.015748
21
-1273.511811
31
0
0
LINE
8
1
10
719.291339
20
-1273.511811
30
0
11
719.291339
21
-1292.015748
31
0
0
LINE
8
1
10
724.015748
20
-1273.511811
30
0
11
724.015748
21
-1292.015748
31
0
0
LINE
8
1
10
719.291339
20
-1292.015748
30
0
11
724.015748
21
-1292.015748
31
0
0
LINE
8
1
10
719.291339
20
-1456.582677
30
0
11
753.543307
21
-1456.582677
31
0
0
LINE
8
1
10
719.291339
20
-1456.582677
30
0
11
719.291339
21
-1461.307087
31
0
0
LINE
8
1
10
753.543307
20
-1456.582677
30
0
11
753.543307
21
-1461.307087
31
0
0
LINE
8
1
10
719.291339
20
-1461.307087
30
0
11
753.543307
21
-1461.307087
31
0
0
LINE
8
1
10
768.503937
20
-1234.141732
30
0
11
891.338583
21
-1234.141732
31
0
0
LINE
8
1
10
768.503937
20
-1234.141732
30
0
11
768.503937
21
-1238.866142
31
0
0
LINE
8
1
10
891.338583
20
-1234.141732
30
0
11
891.338583
21
-1238.866142
31
0
0
LINE
8
1
10
768.503937
20
-1238.866142
30
0
11
891.338583
21
-1238.866142
31
0
0
LINE
8
1
10
588.976378
20
-1196.346457
30
0
11
593.700787
21
-1196.346457
31
0
0
LINE
8
1
10
588.976378
20
-1196.346457
30
0
11
588.976378
21
-1495.165354
31
0
0
LINE
8
1
10
593.700787
20
-1196.346457
30
0
11
593.700787
21
-1495.165354
31
0
0
LINE
8
1
10
588.976378
20
-1495.165354
30
0
11
593.700787
21
-1495.165354
31
0
0
LINE
8
1
10
1014.566929
20
-1234.141732
30
0
11
1029.133858
21
-1234.141732
31
0
0
LINE
8
1
10
1014.566929
20
-1234.141732
30
0
11
1014.566929
21
-1278.236220
31
0
0
LINE
8
1
10
1029.133858
20
-1234.141732
30
0
11
1029.133858
21
-1278.236220
31
0
0
LINE
8
1
10
1014.566929
20
-1278.236220
30
0
11
1029.133858
21
-1278.236220
31
0
0
LINE
8
1
10
719.291339
20
-1273.511811
30
0
11
743.700787
21
-1273.511811
31
0
0
LINE
8
1
10
719.291339
20
-1273.511811
30
0
11
719.291339
21
-1278.236220
31
0
0
LINE
8
1
10
743.700787
20
-1273.511811
30
0
11
743.700787
21
-1278.236220
31
0
0
LINE
8
1
10
719.291339
20
-1278.236220
30
0
11
743.700787
21
-1278.236220
31
0
0
LINE
8
1
10
588.976378
20
-1196.346457
30
0
11
1070.866142
21
-1196.346457
31
0
0
LINE
8
1
10
588.976378
20
-1196.346457
30
0
11
588.976378
21
-1201.070866
31
0
0
LINE
8
1
10
1070.866142
20
-1196.346457
30
0
11
1070.866142
21
-1201.070866
31
0
0
LINE
8
1
10
588.976378
20
-1201.070866
30
0
11
1070.866142
21
-1201.070866
31
0
0
LINE
8
1
10
994.881890
20
-1287.291339
30
0
11
1029.133858
21
-1287.291339
31
0
0
LINE
8
1
10
994.881890
20
-1287.291339
30
0
11
994.881890
21
-1292.015748
31
0
0
LINE
8
1
10
1029.133858
20
-1287.291339
30
0
11
1029.133858
21
-1292.015748
31
0
0
LINE
8
1
10
994.881890
20
-1292.015748
30
0
11
1029.133858
21
-1292.015748
31
0
0
LINE
8
1
10
748.818898
20
-1287.291339
30
0
11
753.543307
21
-1287.291339
31
0
0
LINE
8
1
10
748.818898
20
-1287.291339
30
0
11
748.818898
21
-1461.307087
31
0
0
LINE
8
1
10
753.543307
20
-1287.291339
30
0
11
753.543307
21
-1461.307087
31
0
0
LINE
8
1
10
748.818898
20
-1461.307087
30
0
11
753.543307
21
-1461.307087
31
0
0
LINE
8
1
10
994.881890
20
-1273.511811
30
0
11
999.606299
21
-1273.511811
31
0
0
LINE
8
1
10
994.881890
20
-1273.511811
30
0
11
994.881890
21
-1292.015748
31
0
0
LINE
8
1
10
999.606299
20
-1273.511811
30
0
11
999.606299
21
-1292.015748
31
0
0
LINE
8
1
10
994.881890
20
-1292.015748
30
0
11
999.606299
21
-1292.015748
31
0
0
LINE
8
1
10
630.708661
20
-1287.291339
30
0
11
664.960630
21
-1287.291339
31
0
0
LINE
8
1
10
630.708661
20
-1287.291339
30
0
11
630.708661
21
-1292.015748
31
0
0
LINE
8
1
10
664.960630
20
-1287.291339
30
0
11
664.960630
21
-1292.015748
31
0
0
LINE
8
1
10
630.708661
20
-1292.015748
30
0
11
664.960630
21
-1292.015748
31
0
0
LINE
8
1
10
768.503937
20
-1287.291339
30
0
11
773.228346
21
-1287.291339
31
0
0
LINE
8
1
10
768.503937
20
-1287.291339
30
0
11
768.503937
21
-1461.307087
31
0
0
LINE
8
1
10
773.228346
20
-1287.291339
30
0
11
773.228346
21
-1461.307087
31
0
0
LINE
8
1
10
768.503937
20
-1461.307087
30
0
11
773.228346
21
-1461.307087
31
0
0
LINE
8
1
10
573.622047
20
-1180.992126
30
0
11
657.086614
21
-1180.992126
31
0
0
LINE
8
1
10
573.622047
20
-1180.992126
30
0
11
573.622047
21
-1185.716535
31
0
0
LINE
8
1
10
657.086614
20
-1180.992126
30
0
11
657.086614
21
-1185.716535
31
0
0
LINE
8
1
10
573.622047
20
-1185.716535
30
0
11
657.086614
21
-1185.716535
31
0
0
LINE
8
1
10
798.031496
20
-1450.358661
30
0
11
861.797126
21
-1450.358661
31
0
0
LINE
8
1
10
798.031496
20
-1450.358661
30
0
11
798.031496
21
-1461.307087
31
0
0
LINE
8
1
10
861.797126
20
-1450.358661
30
0
11
861.797126
21
-1461.307087
31
0
0
LINE
8
1
10
798.031496
20
-1461.307087
30
0
11
861.797126
21
-1461.307087
31
0
0
LINE
8
1
10
660.236220
20
-1450.358661
30
0
11
724.001850
21
-1450.358661
31
0
0
LINE
8
1
10
660.236220
20
-1450.358661
30
0
11
660.236220
21
-1461.307087
31
0
0
LINE
8
1
10
724.001850
20
-1450.358661
30
0
11
724.001850
21
-1461.307087
31
0
0
LINE
8
1
10
660.236220
20
-1461.307087
30
0
11
724.001850
21
-1461.307087
31
0
0
LINE
8
1
10
935.826772
20
-1450.358661
30
0
11
999.592402
21
-1450.358661
31
0
0
LINE
8
1
10
935.826772
20
-1450.358661
30
0
11
935.826772
21
-1461.307087
31
0
0
LINE
8
1
10
999.592402
20
-1450.358661
30
0
11
999.592402
21
-1461.307087
31
0
0
LINE
8
1
10
935.826772
20
-1461.307087
30
0
11
999.592402
21
-1461.307087
31
0
0
LINE
8
1
10
1939.591417
20
-2202.038780
30
0
11
2342.377126
21
-2202.038780
31
0
0
LINE
8
1
10
1939.591417
20
-2202.038780
30
0
11
1939.591417
21
-2327.488780
31
0
0
LINE
8
1
10
2342.377126
20
-2202.038780
30
0
11
2342.377126
21
-2327.488780
31
0
0
LINE
8
1
10
1939.591417
20
-2327.488780
30
0
11
2342.377126
21
-2327.488780
31
0
0
LINE
8
1
10
2317.775591
20
-1476.003937
30
0
11
2332.775591
21
-1476.003937
31
0
0
LINE
8
1
10
2317.775591
20
-1476.003937
30
0
11
2317.775591
21
-2211.003937
31
0
0
LINE
8
1
10
2332.775591
20
-1476.003937
30
0
11
2332.775591
21
-2211.003937
31
0
0
LINE
8
1
10
2317.775591
20
-2211.003937
30
0
11
2332.775591
21
-2211.003937
31
0
0
LINE
8
1
10
1787.775591
20
-1476.003937
30
0
11
1802.775591
21
-1476.003937
31
0
0
LINE
8
1
10
1787.775591
20
-1476.003937
30
0
11
1787.775591
21
-2211.003937
31
0
0
LINE
8
1
10
1802.775591
20
-1476.003937
30
0
11
1802.775591
21
-2211.003937
31
0
0
LINE
8
1
10
1787.775591
20
-2211.003937
30
0
11
1802.775591
21
-2211.003937
31
0
0
LINE
8
1
10
1787.775591
20
-1476.003937
30
0
11
2332.775591
21
-1476.003937
31
0
0
LINE
8
1
10
1787.775591
20
-1476.003937
30
0
11
1787.775591
21
-1491.003937
31
0
0
LINE
8
1
10
2332.775591
20
-1476.003937
30
0
11
2332.775591
21
-1491.003937
31
0
0
LINE
8
1
10
1787.775591
20
-1491.003937
30
0
11
2332.775591
21
-1491.003937
31
0
0
LINE
8
1
10
1787.775591
20
-2196.003937
30
0
11
2332.775591
21
-2196.003937
31
0
0
LINE
8
1
10
1787.775591
20
-2196.003937
30
0
11
1787.775591
21
-2211.003937
31
0
0
LINE
8
1
10
2332.775591
20
-2196.003937
30
0
11
2332.775591
21
-2211.003937
31
0
0
LINE
8
1
10
1787.775591
20
-2211.003937
30
0
11
2332.775591
21
-2211.003937
31
0
0
LINE
8
1
10
1122.578740
20
-2169.185039
30
0
11
1127.578740
21
-2169.185039
31
0
0
LINE
8
1
10
1122.578740
20
-2169.185039
30
0
11
1122.578740
21
-2752.925197
31
0
0
LINE
8
1
10
1127.578740
20
-2169.185039
30
0
11
1127.578740
21
-2752.925197
31
0
0
LINE
8
1
10
1122.578740
20
-2752.925197
30
0
11
1127.578740
21
-2752.925197
31
0
0
LINE
8
1
10
1065.492126
20
-2747.925197
30
0
11
1127.578740
21
-2747.925197
31
0
0
LINE
8
1
10
1065.492126
20
-2747.925197
30
0
11
1065.492126
21
-2752.925197
31
0
0
LINE
8
1
10
1127.578740
20
-2747.925197
30
0
11
1127.578740
21
-2752.925197
31
0
0
LINE
8
1
10
1065.492126
20
-2752.925197
30
0
11
1127.578740
21
-2752.925197
31
0
0
LINE
8
1
10
933.602362
20
-2747.925197
30
0
11
995.688976
21
-2747.925197
31
0
0
LINE
8
1
10
933.602362
20
-2747.925197
30
0
11
933.602362
21
-2752.925197
31
0
0
LINE
8
1
10
995.688976
20
-2747.925197
30
0
11
995.688976
21
-2752.925197
31
0
0
LINE
8
1
10
933.602362
20
-2752.925197
30
0
11
995.688976
21
-2752.925197
31
0
0
LINE
8
1
10
933.602362
20
-2169.185039
30
0
11
938.602362
21
-2169.185039
31
0
0
LINE
8
1
10
933.602362
20
-2169.185039
30
0
11
933.602362
21
-2752.925197
31
0
0
LINE
8
1
10
938.602362
20
-2169.185039
30
0
11
938.602362
21
-2752.925197
31
0
0
LINE
8
1
10
933.602362
20
-2752.925197
30
0
11
938.602362
21
-2752.925197
31
0
0
LINE
8
1
10
1065.492126
20
-2169.185039
30
0
11
1127.578740
21
-2169.185039
31
0
0
LINE
8
1
10
1065.492126
20
-2169.185039
30
0
11
1065.492126
21
-2174.185039
31
0
0
LINE
8
1
10
1127.578740
20
-2169.185039
30
0
11
1127.578740
21
-2174.185039
31
0
0
LINE
8
1
10
1065.492126
20
-2174.185039
30
0
11
1127.578740
21
-2174.185039
31
0
0
LINE
8
1
10
933.602362
20
-2169.185039
30
0
11
995.688976
21
-2169.185039
31
0
0
LINE
8
1
10
933.602362
20
-2169.185039
30
0
11
933.602362
21
-2174.185039
31
0
0
LINE
8
1
10
995.688976
20
-2169.185039
30
0
11
995.688976
21
-2174.185039
31
0
0
LINE
8
1
10
933.602362
20
-2174.185039
30
0
11
995.688976
21
-2174.185039
31
0
0
LINE
8
1
10
1023.054331
20
-2776.353543
30
0
11
1046.000787
21
-2776.353543
31
0
0
LINE
8
1
10
1023.054331
20
-2776.353543
30
0
11
1023.054331
21
-2799.300000
31
0
0
LINE
8
1
10
1046.000787
20
-2776.353543
30
0
11
1046.000787
21
-2799.300000
31
0
0
LINE
8
1
10
1023.054331
20
-2799.300000
30
0
11
1046.000787
21
-2799.300000
31
0
0
LINE
8
1
10
1373.602362
20
-2169.185039
30
0
11
1378.602362
21
-2169.185039
31
0
0
LINE
8
1
10
1373.602362
20
-2169.185039
30
0
11
1373.602362
21
-2752.925197
31
0
0
LINE
8
1
10
1378.602362
20
-2169.185039
30
0
11
1378.602362
21
-2752.925197
31
0
0
LINE
8
1
10
1373.602362
20
-2752.925197
30
0
11
1378.602362
21
-2752.925197
31
0
0
LINE
8
1
10
1562.578740
20
-2169.185039
30
0
11
1567.578740
21
-2169.185039
31
0
0
LINE
8
1
10
1562.578740
20
-2169.185039
30
0
11
1562.578740
21
-2752.925197
31
0
0
LINE
8
1
10
1567.578740
20
-2169.185039
30
0
11
1567.578740
21
-2752.925197
31
0
0
LINE
8
1
10
1562.578740
20
-2752.925197
30
0
11
1567.578740
21
-2752.925197
31
0
0
LINE
8
1
10
1505.492126
20
-2747.925197
30
0
11
1567.578740
21
-2747.925197
31
0
0
LINE
8
1
10
1505.492126
20
-2747.925197
30
0
11
1505.492126
21
-2752.925197
31
0
0
LINE
8
1
10
1567.578740
20
-2747.925197
30
0
11
1567.578740
21
-2752.925197
31
0
0
LINE
8
1
10
1505.492126
20
-2752.925197
30
0
11
1567.578740
21
-2752.925197
31
0
0
LINE
8
1
10
1373.602362
20
-2169.185039
30
0
11
1435.688976
21
-2169.185039
31
0
0
LINE
8
1
10
1373.602362
20
-2169.185039
30
0
11
1373.602362
21
-2174.185039
31
0
0
LINE
8
1
10
1435.688976
20
-2169.185039
30
0
11
1435.688976
21
-2174.185039
31
0
0
LINE
8
1
10
1373.602362
20
-2174.185039
30
0
11
1435.688976
21
-2174.185039
31
0
0
LINE
8
1
10
1505.492126
20
-2169.185039
30
0
11
1567.578740
21
-2169.185039
31
0
0
LINE
8
1
10
1505.492126
20
-2169.185039
30
0
11
1505.492126
21
-2174.185039
31
0
0
LINE
8
1
10
1567.578740
20
-2169.185039
30
0
11
1567.578740
21
-2174.185039
31
0
0
LINE
8
1
10
1505.492126
20
-2174.185039
30
0
11
1567.578740
21
-2174.185039
31
0
0
LINE
8
1
10
1373.602362
20
-2747.925197
30
0
11
1435.688976
21
-2747.925197
31
0
0
LINE
8
1
10
1373.602362
20
-2747.925197
30
0
11
1373.602362
21
-2752.925197
31
0
0
LINE
8
1
10
1435.688976
20
-2747.925197
30
0
11
1435.688976
21
-2752.925197
31
0
0
LINE
8
1
10
1373.602362
20
-2752.925197
30
0
11
1435.688976
21
-2752.925197
31
0
0
LINE
8
1
10
1463.054331
20
-2776.353543
30
0
11
1486.000787
21
-2776.353543
31
0
0
LINE
8
1
10
1463.054331
20
-2776.353543
30
0
11
1463.054331
21
-2799.300000
31
0
0
LINE
8
1
10
1486.000787
20
-2776.353543
30
0
11
1486.000787
21
-2799.300000
31
0
0
LINE
8
1
10
1463.054331
20
-2799.300000
30
0
11
1486.000787
21
-2799.300000
31
0
0
LINE
8
1
10
902.578740
20
-2168.594488
30
0
11
907.578740
21
-2168.594488
31
0
0
LINE
8
1
10
902.578740
20
-2168.594488
30
0
11
902.578740
21
-2752.334646
31
0
0
LINE
8
1
10
907.578740
20
-2168.594488
30
0
11
907.578740
21
-2752.334646
31
0
0
LINE
8
1
10
902.578740
20
-2752.334646
30
0
11
907.578740
21
-2752.334646
31
0
0
LINE
8
1
10
845.492126
20
-2168.594488
30
0
11
907.578740
21
-2168.594488
31
0
0
LINE
8
1
10
845.492126
20
-2168.594488
30
0
11
845.492126
21
-2173.594488
31
0
0
LINE
8
1
10
907.578740
20
-2168.594488
30
0
11
907.578740
21
-2173.594488
31
0
0
LINE
8
1
10
845.492126
20
-2173.594488
30
0
11
907.578740
21
-2173.594488
31
0
0
LINE
8
1
10
713.602362
20
-2747.334646
30
0
11
775.688976
21
-2747.334646
31
0
0
LINE
8
1
10
713.602362
20
-2747.334646
30
0
11
713.602362
21
-2752.334646
31
0
0
LINE
8
1
10
775.688976
20
-2747.334646
30
0
11
775.688976
21
-2752.334646
31
0
0
LINE
8
1
10
713.602362
20
-2752.334646
30
0
11
775.688976
21
-2752.334646
31
0
0
LINE
8
1
10
713.602362
20
-2168.594488
30
0
11
775.688976
21
-2168.594488
31
0
0
LINE
8
1
10
713.602362
20
-2168.594488
30
0
11
713.602362
21
-2173.594488
31
0
0
LINE
8
1
10
775.688976
20
-2168.594488
30
0
11
775.688976
21
-2173.594488
31
0
0
LINE
8
1
10
713.602362
20
-2173.594488
30
0
11
775.688976
21
-2173.594488
31
0
0
LINE
8
1
10
713.602362
20
-2168.594488
30
0
11
718.602362
21
-2168.594488
31
0
0
LINE
8
1
10
713.602362
20
-2168.594488
30
0
11
713.602362
21
-2752.334646
31
0
0
LINE
8
1
10
718.602362
20
-2168.594488
30
0
11
718.602362
21
-2752.334646
31
0
0
LINE
8
1
10
713.602362
20
-2752.334646
30
0
11
718.602362
21
-2752.334646
31
0
0
LINE
8
1
10
845.492126
20
-2747.334646
30
0
11
907.578740
21
-2747.334646
31
0
0
LINE
8
1
10
845.492126
20
-2747.334646
30
0
11
845.492126
21
-2752.334646
31
0
0
LINE
8
1
10
907.578740
20
-2747.334646
30
0
11
907.578740
21
-2752.334646
31
0
0
LINE
8
1
10
845.492126
20
-2752.334646
30
0
11
907.578740
21
-2752.334646
31
0
0
LINE
8
1
10
803.054331
20
-2775.762992
30
0
11
826.000787
21
-2775.762992
31
0
0
LINE
8
1
10
803.054331
20
-2775.762992
30
0
11
803.054331
21
-2798.709449
31
0
0
LINE
8
1
10
826.000787
20
-2775.762992
30
0
11
826.000787
21
-2798.709449
31
0
0
LINE
8
1
10
803.054331
20
-2798.709449
30
0
11
826.000787
21
-2798.709449
31
0
0
LINE
8
1
10
1285.492126
20
-2747.925197
30
0
11
1347.578740
21
-2747.925197
31
0
0
LINE
8
1
10
1285.492126
20
-2747.925197
30
0
11
1285.492126
21
-2752.925197
31
0
0
LINE
8
1
10
1347.578740
20
-2747.925197
30
0
11
1347.578740
21
-2752.925197
31
0
0
LINE
8
1
10
1285.492126
20
-2752.925197
30
0
11
1347.578740
21
-2752.925197
31
0
0
LINE
8
1
10
1342.578740
20
-2169.185039
30
0
11
1347.578740
21
-2169.185039
31
0
0
LINE
8
1
10
1342.578740
20
-2169.185039
30
0
11
1342.578740
21
-2752.925197
31
0
0
LINE
8
1
10
1347.578740
20
-2169.185039
30
0
11
1347.578740
21
-2752.925197
31
0
0
LINE
8
1
10
1342.578740
20
-2752.925197
30
0
11
1347.578740
21
-2752.925197
31
0
0
LINE
8
1
10
1285.492126
20
-2169.185039
30
0
11
1347.578740
21
-2169.185039
31
0
0
LINE
8
1
10
1285.492126
20
-2169.185039
30
0
11
1285.492126
21
-2174.185039
31
0
0
LINE
8
1
10
1347.578740
20
-2169.185039
30
0
11
1347.578740
21
-2174.185039
31
0
0
LINE
8
1
10
1285.492126
20
-2174.185039
30
0
11
1347.578740
21
-2174.185039
31
0
0
LINE
8
1
10
1153.602362
20
-2747.925197
30
0
11
1215.688976
21
-2747.925197
31
0
0
LINE
8
1
10
1153.602362
20
-2747.925197
30
0
11
1153.602362
21
-2752.925197
31
0
0
LINE
8
1
10
1215.688976
20
-2747.925197
30
0
11
1215.688976
21
-2752.925197
31
0
0
LINE
8
1
10
1153.602362
20
-2752.925197
30
0
11
1215.688976
21
-2752.925197
31
0
0
LINE
8
1
10
1153.602362
20
-2169.185039
30
0
11
1158.602362
21
-2169.185039
31
0
0
LINE
8
1
10
1153.602362
20
-2169.185039
30
0
11
1153.602362
21
-2752.925197
31
0
0
LINE
8
1
10
1158.602362
20
-2169.185039
30
0
11
1158.602362
21
-2752.925197
31
0
0
LINE
8
1
10
1153.602362
20
-2752.925197
30
0
11
1158.602362
21
-2752.925197
31
0
0
LINE
8
1
10
1153.602362
20
-2169.185039
30
0
11
1215.688976
21
-2169.185039
31
0
0
LINE
8
1
10
1153.602362
20
-2169.185039
30
0
11
1153.602362
21
-2174.185039
31
0
0
LINE
8
1
10
1215.688976
20
-2169.185039
30
0
11
1215.688976
21
-2174.185039
31
0
0
LINE
8
1
10
1153.602362
20
-2174.185039
30
0
11
1215.688976
21
-2174.185039
31
0
0
LINE
8
1
10
1243.054331
20
-2776.353543
30
0
11
1266.000787
21
-2776.353543
31
0
0
LINE
8
1
10
1243.054331
20
-2776.353543
30
0
11
1243.054331
21
-2799.300000
31
0
0
LINE
8
1
10
1266.000787
20
-2776.353543
30
0
11
1266.000787
21
-2799.300000
31
0
0
LINE
8
1
10
1243.054331
20
-2799.300000
30
0
11
1266.000787
21
-2799.300000
31
0
0
LINE
8
1
10
222.824724
20
-1601.377953
30
0
11
248.120157
21
-1601.377953
31
0
0
LINE
8
1
10
222.824724
20
-1601.377953
30
0
11
222.824724
21
-1606.102362
31
0
0
LINE
8
1
10
248.120157
20
-1601.377953
30
0
11
248.120157
21
-1606.102362
31
0
0
LINE
8
1
10
222.824724
20
-1606.102362
30
0
11
248.120157
21
-1606.102362
31
0
0
LINE
8
1
10
222.824724
20
-1545.472441
30
0
11
248.120157
21
-1545.472441
31
0
0
LINE
8
1
10
222.824724
20
-1545.472441
30
0
11
222.824724
21
-1550.196850
31
0
0
LINE
8
1
10
248.120157
20
-1545.472441
30
0
11
248.120157
21
-1550.196850
31
0
0
LINE
8
1
10
222.824724
20
-1550.196850
30
0
11
248.120157
21
-1550.196850
31
0
0
LINE
8
1
10
250.826772
20
-2080.511811
30
0
11
307.913386
21
-2080.511811
31
0
0
LINE
8
1
10
250.826772
20
-2080.511811
30
0
11
250.826772
21
-2085.236220
31
0
0
LINE
8
1
10
307.913386
20
-2080.511811
30
0
11
307.913386
21
-2085.236220
31
0
0
LINE
8
1
10
250.826772
20
-2085.236220
30
0
11
307.913386
21
-2085.236220
31
0
0
LINE
8
1
10
303.188976
20
-1775.787402
30
0
11
307.913386
21
-1775.787402
31
0
0
LINE
8
1
10
303.188976
20
-1775.787402
30
0
11
303.188976
21
-1982.874016
31
0
0
LINE
8
1
10
307.913386
20
-1775.787402
30
0
11
307.913386
21
-1982.874016
31
0
0
LINE
8
1
10
303.188976
20
-1982.874016
30
0
11
307.913386
21
-1982.874016
31
0
0
LINE
8
1
10
198.464567
20
-1978.149606
30
0
11
307.913386
21
-1978.149606
31
0
0
LINE
8
1
10
198.464567
20
-1978.149606
30
0
11
198.464567
21
-1982.874016
31
0
0
LINE
8
1
10
307.913386
20
-1978.149606
30
0
11
307.913386
21
-1982.874016
31
0
0
LINE
8
1
10
198.464567
20
-1982.874016
30
0
11
307.913386
21
-1982.874016
31
0
0
LINE
8
1
10
303.188976
20
-2028.149606
30
0
11
307.913386
21
-2028.149606
31
0
0
LINE
8
1
10
303.188976
20
-2028.149606
30
0
11
303.188976
21
-2085.236220
31
0
0
LINE
8
1
10
307.913386
20
-2028.149606
30
0
11
307.913386
21
-2085.236220
31
0
0
LINE
8
1
10
303.188976
20
-2085.236220
30
0
11
307.913386
21
-2085.236220
31
0
0
LINE
8
1
10
198.464567
20
-1775.787402
30
0
11
203.188976
21
-1775.787402
31
0
0
LINE
8
1
10
198.464567
20
-1775.787402
30
0
11
198.464567
21
-1982.874016
31
0
0
LINE
8
1
10
203.188976
20
-1775.787402
30
0
11
203.188976
21
-1982.874016
31
0
0
LINE
8
1
10
198.464567
20
-1982.874016
30
0
11
203.188976
21
-1982.874016
31
0
0
LINE
8
1
10
198.464567
20
-1775.787402
30
0
11
307.913386
21
-1775.787402
31
0
0
LINE
8
1
10
198.464567
20
-1775.787402
30
0
11
198.464567
21
-1780.511811
31
0
0
LINE
8
1
10
307.913386
20
-1775.787402
30
0
11
307.913386
21
-1780.511811
31
0
0
LINE
8
1
10
198.464567
20
-1780.511811
30
0
11
307.913386
21
-1780.511811
31
0
0
LINE
8
1
10
272.037323
20
-1217.519685
30
0
11
297.332756
21
-1217.519685
31
0
0
LINE
8
1
10
272.037323
20
-1217.519685
30
0
11
272.037323
21
-1222.244094
31
0
0
LINE
8
1
10
297.332756
20
-1217.519685
30
0
11
297.332756
21
-1222.244094
31
0
0
LINE
8
1
10
272.037323
20
-1222.244094
30
0
11
297.332756
21
-1222.244094
31
0
0
LINE
8
1
10
272.037323
20
-1161.614173
30
0
11
297.332756
21
-1161.614173
31
0
0
LINE
8
1
10
272.037323
20
-1161.614173
30
0
11
272.037323
21
-1166.338583
31
0
0
LINE
8
1
10
297.332756
20
-1161.614173
30
0
11
297.332756
21
-1166.338583
31
0
0
LINE
8
1
10
272.037323
20
-1166.338583
30
0
11
297.332756
21
-1166.338583
31
0
0
LINE
8
1
10
1888.454055
20
-1307.362205
30
0
11
1906.664055
21
-1307.362205
31
0
0
LINE
8
1
10
1888.454055
20
-1307.362205
30
0
11
1888.454055
21
-1312.086614
31
0
0
LINE
8
1
10
1906.664055
20
-1307.362205
30
0
11
1906.664055
21
-1312.086614
31
0
0
LINE
8
1
10
1888.454055
20
-1312.086614
30
0
11
1906.664055
21
-1312.086614
31
0
0
LINE
8
1
10
1888.454055
20
-1347.519685
30
0
11
1906.664055
21
-1347.519685
31
0
0
LINE
8
1
10
1888.454055
20
-1347.519685
30
0
11
1888.454055
21
-1352.244094
31
0
0
LINE
8
1
10
1906.664055
20
-1347.519685
30
0
11
1906.664055
21
-1352.244094
31
0
0
LINE
8
1
10
1888.454055
20
-1352.244094
30
0
11
1906.664055
21
-1352.244094
31
0
0
LINE
8
1
10
1997.480315
20
-1171.063031
30
0
11
2100.039370
21
-1171.063031
31
0
0
LINE
8
1
10
1997.480315
20
-1171.063031
30
0
11
1997.480315
21
-1175.787441
31
0
0
LINE
8
1
10
2100.039370
20
-1171.063031
30
0
11
2100.039370
21
-1175.787441
31
0
0
LINE
8
1
10
1997.480315
20
-1175.787441
30
0
11
2100.039370
21
-1175.787441
31
0
0
LINE
8
1
10
1997.480315
20
-1117.126024
30
0
11
2002.204724
21
-1117.126024
31
0
0
LINE
8
1
10
1997.480315
20
-1117.126024
30
0
11
1997.480315
21
-1175.787441
31
0
0
LINE
8
1
10
2002.204724
20
-1117.126024
30
0
11
2002.204724
21
-1175.787441
31
0
0
LINE
8
1
10
1997.480315
20
-1175.787441
30
0
11
2002.204724
21
-1175.787441
31
0
0
LINE
8
1
10
1997.480315
20
-1117.126024
30
0
11
2100.039370
21
-1117.126024
31
0
0
LINE
8
1
10
1997.480315
20
-1117.126024
30
0
11
1997.480315
21
-1121.850433
31
0
0
LINE
8
1
10
2100.039370
20
-1117.126024
30
0
11
2100.039370
21
-1121.850433
31
0
0
LINE
8
1
10
1997.480315
20
-1121.850433
30
0
11
2100.039370
21
-1121.850433
31
0
0
LINE
8
1
10
1888.454055
20
-1164.173268
30
0
11
1906.664055
21
-1164.173268
31
0
0
LINE
8
1
10
1888.454055
20
-1164.173268
30
0
11
1888.454055
21
-1168.897677
31
0
0
LINE
8
1
10
1906.664055
20
-1164.173268
30
0
11
1906.664055
21
-1168.897677
31
0
0
LINE
8
1
10
1888.454055
20
-1168.897677
30
0
11
1906.664055
21
-1168.897677
31
0
0
LINE
8
1
10
1888.454055
20
-1124.015787
30
0
11
1906.664055
21
-1124.015787
31
0
0
LINE
8
1
10
1888.454055
20
-1124.015787
30
0
11
1888.454055
21
-1128.740197
31
0
0
LINE
8
1
10
1906.664055
20
-1124.015787
30
0
11
1906.664055
21
-1128.740197
31
0
0
LINE
8
1
10
1888.454055
20
-1128.740197
30
0
11
1906.664055
21
-1128.740197
31
0
0
LINE
8
1
10
1997.480315
20
-1298.700787
30
0
11
2002.204724
21
-1298.700787
31
0
0
LINE
8
1
10
1997.480315
20
-1298.700787
30
0
11
1997.480315
21
-1357.362205
31
0
0
LINE
8
1
10
2002.204724
20
-1298.700787
30
0
11
2002.204724
21
-1357.362205
31
0
0
LINE
8
1
10
1997.480315
20
-1357.362205
30
0
11
2002.204724
21
-1357.362205
31
0
0
LINE
8
1
10
1997.480315
20
-1352.637795
30
0
11
2100.039370
21
-1352.637795
31
0
0
LINE
8
1
10
1997.480315
20
-1352.637795
30
0
11
1997.480315
21
-1357.362205
31
0
0
LINE
8
1
10
2100.039370
20
-1352.637795
30
0
11
2100.039370
21
-1357.362205
31
0
0
LINE
8
1
10
1997.480315
20
-1357.362205
30
0
11
2100.039370
21
-1357.362205
31
0
0
LINE
8
1
10
1997.480315
20
-1298.700787
30
0
11
2100.039370
21
-1298.700787
31
0
0
LINE
8
1
10
1997.480315
20
-1298.700787
30
0
11
1997.480315
21
-1303.425197
31
0
0
LINE
8
1
10
2100.039370
20
-1298.700787
30
0
11
2100.039370
21
-1303.425197
31
0
0
LINE
8
1
10
1997.480315
20
-1303.425197
30
0
11
2100.039370
21
-1303.425197
31
0
0
LINE
8
1
10
345.118110
20
184.921260
30
0
11
960.866142
21
184.921260
31
0
0
LINE
8
1
10
345.118110
20
184.921260
30
0
11
345.118110
21
180.196850
31
0
0
LINE
8
1
10
960.866142
20
184.921260
30
0
11
960.866142
21
180.196850
31
0
0
LINE
8
1
10
345.118110
20
180.196850
30
0
11
960.866142
21
180.196850
31
0
0
LINE
8
1
10
956.141732
20
184.921260
30
0
11
960.866142
21
184.921260
31
0
0
LINE
8
1
10
956.141732
20
184.921260
30
0
11
956.141732
21
-526.889764
31
0
0
LINE
8
1
10
960.866142
20
184.921260
30
0
11
960.866142
21
-526.889764
31
0
0
LINE
8
1
10
956.141732
20
-526.889764
30
0
11
960.866142
21
-526.889764
31
0
0
LINE
8
1
10
963.425197
20
-349.724409
30
0
11
987.834646
21
-349.724409
31
0
0
LINE
8
1
10
963.425197
20
-349.724409
30
0
11
963.425197
21
-374.133858
31
0
0
LINE
8
1
10
987.834646
20
-349.724409
30
0
11
987.834646
21
-374.133858
31
0
0
LINE
8
1
10
963.425197
20
-374.133858
30
0
11
987.834646
21
-374.133858
31
0
0
LINE
8
1
10
345.118110
20
184.921260
30
0
11
349.842520
21
184.921260
31
0
0
LINE
8
1
10
345.118110
20
184.921260
30
0
11
345.118110
21
-526.889764
31
0
0
LINE
8
1
10
349.842520
20
184.921260
30
0
11
349.842520
21
-526.889764
31
0
0
LINE
8
1
10
345.118110
20
-526.889764
30
0
11
349.842520
21
-526.889764
31
0
0
LINE
8
1
10
345.118110
20
-522.165354
30
0
11
960.866142
21
-522.165354
31
0
0
LINE
8
1
10
345.118110
20
-522.165354
30
0
11
345.118110
21
-526.889764
31
0
0
LINE
8
1
10
960.866142
20
-522.165354
30
0
11
960.866142
21
-526.889764
31
0
0
LINE
8
1
10
345.118110
20
-526.889764
30
0
11
960.866142
21
-526.889764
31
0
0
LINE
8
1
10
983.110236
20
-349.724409
30
0
11
987.834646
21
-349.724409
31
0
0
LINE
8
1
10
983.110236
20
-349.724409
30
0
11
983.110236
21
-393.818898
31
0
0
LINE
8
1
10
987.834646
20
-349.724409
30
0
11
987.834646
21
-393.818898
31
0
0
LINE
8
1
10
983.110236
20
-393.818898
30
0
11
987.834646
21
-393.818898
31
0
0
LINE
8
1
10
963.425197
20
-369.409449
30
0
11
987.834646
21
-369.409449
31
0
0
LINE
8
1
10
963.425197
20
-369.409449
30
0
11
963.425197
21
-393.818898
31
0
0
LINE
8
1
10
987.834646
20
-369.409449
30
0
11
987.834646
21
-393.818898
31
0
0
LINE
8
1
10
963.425197
20
-393.818898
30
0
11
987.834646
21
-393.818898
31
0
0
LINE
8
1
10
528.454055
20
-647.519685
30
0
11
546.664055
21
-647.519685
31
0
0
LINE
8
1
10
528.454055
20
-647.519685
30
0
11
528.454055
21
-652.244094
31
0
0
LINE
8
1
10
546.664055
20
-647.519685
30
0
11
546.664055
21
-652.244094
31
0
0
LINE
8
1
10
528.454055
20
-652.244094
30
0
11
546.664055
21
-652.244094
31
0
0
LINE
8
1
10
528.454055
20
-607.362205
30
0
11
546.664055
21
-607.362205
31
0
0
LINE
8
1
10
528.454055
20
-607.362205
30
0
11
528.454055
21
-612.086614
31
0
0
LINE
8
1
10
546.664055
20
-607.362205
30
0
11
546.664055
21
-612.086614
31
0
0
LINE
8
1
10
528.454055
20
-612.086614
30
0
11
546.664055
21
-612.086614
31
0
0
LINE
8
1
10
835.619409
20
-647.519685
30
0
11
853.829409
21
-647.519685
31
0
0
LINE
8
1
10
835.619409
20
-647.519685
30
0
11
835.619409
21
-652.244094
31
0
0
LINE
8
1
10
853.829409
20
-647.519685
30
0
11
853.829409
21
-652.244094
31
0
0
LINE
8
1
10
835.619409
20
-652.244094
30
0
11
853.829409
21
-652.244094
31
0
0
LINE
8
1
10
835.619409
20
-607.362205
30
0
11
853.829409
21
-607.362205
31
0
0
LINE
8
1
10
835.619409
20
-607.362205
30
0
11
835.619409
21
-612.086614
31
0
0
LINE
8
1
10
853.829409
20
-607.362205
30
0
11
853.829409
21
-612.086614
31
0
0
LINE
8
1
10
835.619409
20
-612.086614
30
0
11
853.829409
21
-612.086614
31
0
0
LINE
8
1
10
702.745394
20
-647.519685
30
0
11
720.955394
21
-647.519685
31
0
0
LINE
8
1
10
702.745394
20
-647.519685
30
0
11
702.745394
21
-652.244094
31
0
0
LINE
8
1
10
720.955394
20
-647.519685
30
0
11
720.955394
21
-652.244094
31
0
0
LINE
8
1
10
702.745394
20
-652.244094
30
0
11
720.955394
21
-652.244094
31
0
0
LINE
8
1
10
702.745394
20
-607.362205
30
0
11
720.955394
21
-607.362205
31
0
0
LINE
8
1
10
702.745394
20
-607.362205
30
0
11
702.745394
21
-612.086614
31
0
0
LINE
8
1
10
720.955394
20
-607.362205
30
0
11
720.955394
21
-612.086614
31
0
0
LINE
8
1
10
702.745394
20
-612.086614
30
0
11
720.955394
21
-612.086614
31
0
0
LINE
8
1
10
348.454055
20
-647.519685
30
0
11
366.664055
21
-647.519685
31
0
0
LINE
8
1
10
348.454055
20
-647.519685
30
0
11
348.454055
21
-652.244094
31
0
0
LINE
8
1
10
366.664055
20
-647.519685
30
0
11
366.664055
21
-652.244094
31
0
0
LINE
8
1
10
348.454055
20
-652.244094
30
0
11
366.664055
21
-652.244094
31
0
0
LINE
8
1
10
348.454055
20
-607.362205
30
0
11
366.664055
21
-607.362205
31
0
0
LINE
8
1
10
348.454055
20
-607.362205
30
0
11
348.454055
21
-612.086614
31
0
0
LINE
8
1
10
366.664055
20
-607.362205
30
0
11
366.664055
21
-612.086614
31
0
0
LINE
8
1
10
348.454055
20
-612.086614
30
0
11
366.664055
21
-612.086614
31
0
0
LINE
8
1
10
824.763780
20
-847.440945
30
0
11
829.488189
21
-847.440945
31
0
0
LINE
8
1
10
824.763780
20
-847.440945
30
0
11
824.763780
21
-928.937008
31
0
0
LINE
8
1
10
829.488189
20
-847.440945
30
0
11
829.488189
21
-928.937008
31
0
0
LINE
8
1
10
824.763780
20
-928.937008
30
0
11
829.488189
21
-928.937008
31
0
0
LINE
8
1
10
824.763780
20
-711.614173
30
0
11
829.488189
21
-711.614173
31
0
0
LINE
8
1
10
824.763780
20
-711.614173
30
0
11
824.763780
21
-852.165354
31
0
0
LINE
8
1
10
829.488189
20
-711.614173
30
0
11
829.488189
21
-852.165354
31
0
0
LINE
8
1
10
824.763780
20
-852.165354
30
0
11
829.488189
21
-852.165354
31
0
0
LINE
8
1
10
426.338583
20
-770.669291
30
0
11
431.062992
21
-770.669291
31
0
0
LINE
8
1
10
426.338583
20
-770.669291
30
0
11
426.338583
21
-852.165354
31
0
0
LINE
8
1
10
431.062992
20
-770.669291
30
0
11
431.062992
21
-852.165354
31
0
0
LINE
8
1
10
426.338583
20
-852.165354
30
0
11
431.062992
21
-852.165354
31
0
0
LINE
8
1
10
426.338583
20
-847.440945
30
0
11
431.062992
21
-847.440945
31
0
0
LINE
8
1
10
426.338583
20
-847.440945
30
0
11
426.338583
21
-928.937008
31
0
0
LINE
8
1
10
431.062992
20
-847.440945
30
0
11
431.062992
21
-928.937008
31
0
0
LINE
8
1
10
426.338583
20
-928.937008
30
0
11
431.062992
21
-928.937008
31
0
0
LINE
8
1
10
246.889764
20
-2150.196850
30
0
11
405.157480
21
-2150.196850
31
0
0
LINE
8
1
10
246.889764
20
-2150.196850
30
0
11
246.889764
21
-2154.921260
31
0
0
LINE
8
1
10
405.157480
20
-2150.196850
30
0
11
405.157480
21
-2154.921260
31
0
0
LINE
8
1
10
246.889764
20
-2154.921260
30
0
11
405.157480
21
-2154.921260
31
0
0
LINE
8
1
10
246.889764
20
-2150.196850
30
0
11
251.614173
21
-2150.196850
31
0
0
LINE
8
1
10
246.889764
20
-2150.196850
30
0
11
246.889764
21
-2233.661417
31
0
0
LINE
8
1
10
251.614173
20
-2150.196850
30
0
11
251.614173
21
-2233.661417
31
0
0
LINE
8
1
10
246.889764
20
-2233.661417
30
0
11
251.614173
21
-2233.661417
31
0
0
LINE
8
1
10
246.889764
20
-2228.937008
30
0
11
405.157480
21
-2228.937008
31
0
0
LINE
8
1
10
246.889764
20
-2228.937008
30
0
11
246.889764
21
-2233.661417
31
0
0
LINE
8
1
10
405.157480
20
-2228.937008
30
0
11
405.157480
21
-2233.661417
31
0
0
LINE
8
1
10
246.889764
20
-2233.661417
30
0
11
405.157480
21
-2233.661417
31
0
0
LINE
8
1
10
1045.265079
20
-1136.811024
30
0
11
1063.475079
21
-1136.811024
31
0
0
LINE
8
1
10
1045.265079
20
-1136.811024
30
0
11
1045.265079
21
-1141.535433
31
0
0
LINE
8
1
10
1063.475079
20
-1136.811024
30
0
11
1063.475079
21
-1141.535433
31
0
0
LINE
8
1
10
1045.265079
20
-1141.535433
30
0
11
1063.475079
21
-1141.535433
31
0
0
LINE
8
1
10
1045.265079
20
-1096.653543
30
0
11
1063.475079
21
-1096.653543
31
0
0
LINE
8
1
10
1045.265079
20
-1096.653543
30
0
11
1045.265079
21
-1101.377953
31
0
0
LINE
8
1
10
1063.475079
20
-1096.653543
30
0
11
1063.475079
21
-1101.377953
31
0
0
LINE
8
1
10
1045.265079
20
-1101.377953
30
0
11
1063.475079
21
-1101.377953
31
0
0
LINE
8
1
10
1202.745394
20
-1096.653543
30
0
11
1220.955394
21
-1096.653543
31
0
0
LINE
8
1
10
1202.745394
20
-1096.653543
30
0
11
1202.745394
21
-1101.377953
31
0
0
LINE
8
1
10
1220.955394
20
-1096.653543
30
0
11
1220.955394
21
-1101.377953
31
0
0
LINE
8
1
10
1202.745394
20
-1101.377953
30
0
11
1220.955394
21
-1101.377953
31
0
0
LINE
8
1
10
1202.745394
20
-1136.811024
30
0
11
1220.955394
21
-1136.811024
31
0
0
LINE
8
1
10
1202.745394
20
-1136.811024
30
0
11
1202.745394
21
-1141.535433
31
0
0
LINE
8
1
10
1220.955394
20
-1136.811024
30
0
11
1220.955394
21
-1141.535433
31
0
0
LINE
8
1
10
1202.745394
20
-1141.535433
30
0
11
1220.955394
21
-1141.535433
31
0
0
LINE
8
1
10
1509.832008
20
-1136.811024
30
0
11
1528.042008
21
-1136.811024
31
0
0
LINE
8
1
10
1509.832008
20
-1136.811024
30
0
11
1509.832008
21
-1141.535433
31
0
0
LINE
8
1
10
1528.042008
20
-1136.811024
30
0
11
1528.042008
21
-1141.535433
31
0
0
LINE
8
1
10
1509.832008
20
-1141.535433
30
0
11
1528.042008
21
-1141.535433
31
0
0
LINE
8
1
10
1509.832008
20
-1096.653543
30
0
11
1528.042008
21
-1096.653543
31
0
0
LINE
8
1
10
1509.832008
20
-1096.653543
30
0
11
1509.832008
21
-1101.377953
31
0
0
LINE
8
1
10
1528.042008
20
-1096.653543
30
0
11
1528.042008
21
-1101.377953
31
0
0
LINE
8
1
10
1509.832008
20
-1101.377953
30
0
11
1528.042008
21
-1101.377953
31
0
0
LINE
8
1
10
248.858268
20
-1520.669291
30
0
11
401.614173
21
-1520.669291
31
0
0
LINE
8
1
10
248.858268
20
-1520.669291
30
0
11
248.858268
21
-1525.393701
31
0
0
LINE
8
1
10
401.614173
20
-1520.669291
30
0
11
401.614173
21
-1525.393701
31
0
0
LINE
8
1
10
248.858268
20
-1525.393701
30
0
11
401.614173
21
-1525.393701
31
0
0
LINE
8
1
10
396.889764
20
-1471.062992
30
0
11
401.614173
21
-1471.062992
31
0
0
LINE
8
1
10
396.889764
20
-1471.062992
30
0
11
396.889764
21
-1525.393701
31
0
0
LINE
8
1
10
401.614173
20
-1471.062992
30
0
11
401.614173
21
-1525.393701
31
0
0
LINE
8
1
10
396.889764
20
-1525.393701
30
0
11
401.614173
21
-1525.393701
31
0
0
LINE
8
1
10
396.889764
20
-1252.165354
30
0
11
401.614173
21
-1252.165354
31
0
0
LINE
8
1
10
396.889764
20
-1252.165354
30
0
11
396.889764
21
-1306.496063
31
0
0
LINE
8
1
10
401.614173
20
-1252.165354
30
0
11
401.614173
21
-1306.496063
31
0
0
LINE
8
1
10
396.889764
20
-1306.496063
30
0
11
401.614173
21
-1306.496063
31
0
0
LINE
8
1
10
160.275591
20
-1252.165354
30
0
11
401.614173
21
-1252.165354
31
0
0
LINE
8
1
10
160.275591
20
-1252.165354
30
0
11
160.275591
21
-1256.889764
31
0
0
LINE
8
1
10
401.614173
20
-1252.165354
30
0
11
401.614173
21
-1256.889764
31
0
0
LINE
8
1
10
160.275591
20
-1256.889764
30
0
11
401.614173
21
-1256.889764
31
0
0
LINE
8
1
10
1576.023622
20
-669.488189
30
0
11
1580.748031
21
-669.488189
31
0
0
LINE
8
1
10
1576.023622
20
-669.488189
30
0
11
1576.023622
21
-826.181102
31
0
0
LINE
8
1
10
1580.748031
20
-669.488189
30
0
11
1580.748031
21
-826.181102
31
0
0
LINE
8
1
10
1576.023622
20
-826.181102
30
0
11
1580.748031
21
-826.181102
31
0
0
LINE
8
1
10
1063.425197
20
-821.456693
30
0
11
1068.149606
21
-821.456693
31
0
0
LINE
8
1
10
1063.425197
20
-821.456693
30
0
11
1063.425197
21
-978.149606
31
0
0
LINE
8
1
10
1068.149606
20
-821.456693
30
0
11
1068.149606
21
-978.149606
31
0
0
LINE
8
1
10
1063.425197
20
-978.149606
30
0
11
1068.149606
21
-978.149606
31
0
0
LINE
8
1
10
1063.425197
20
-669.488189
30
0
11
1068.149606
21
-669.488189
31
0
0
LINE
8
1
10
1063.425197
20
-669.488189
30
0
11
1063.425197
21
-826.181102
31
0
0
LINE
8
1
10
1068.149606
20
-669.488189
30
0
11
1068.149606
21
-826.181102
31
0
0
LINE
8
1
10
1063.425197
20
-826.181102
30
0
11
1068.149606
21
-826.181102
31
0
0
LINE
8
1
10
1566.771654
20
-973.425197
30
0
11
1580.748031
21
-973.425197
31
0
0
LINE
8
1
10
1566.771654
20
-973.425197
30
0
11
1566.771654
21
-978.149606
31
0
0
LINE
8
1
10
1580.748031
20
-973.425197
30
0
11
1580.748031
21
-978.149606
31
0
0
LINE
8
1
10
1566.771654
20
-978.149606
30
0
11
1580.748031
21
-978.149606
31
0
0
LINE
8
1
10
1063.425197
20
-669.488189
30
0
11
1077.401575
21
-669.488189
31
0
0
LINE
8
1
10
1063.425197
20
-669.488189
30
0
11
1063.425197
21
-674.212598
31
0
0
LINE
8
1
10
1077.401575
20
-669.488189
30
0
11
1077.401575
21
-674.212598
31
0
0
LINE
8
1
10
1063.425197
20
-674.212598
30
0
11
1077.401575
21
-674.212598
31
0
0
LINE
8
1
10
1063.425197
20
-973.425197
30
0
11
1077.401575
21
-973.425197
31
0
0
LINE
8
1
10
1063.425197
20
-973.425197
30
0
11
1063.425197
21
-978.149606
31
0
0
LINE
8
1
10
1077.401575
20
-973.425197
30
0
11
1077.401575
21
-978.149606
31
0
0
LINE
8
1
10
1063.425197
20
-978.149606
30
0
11
1077.401575
21
-978.149606
31
0
0
LINE
8
1
10
1566.771654
20
-598.031496
30
0
11
1571.496063
21
-598.031496
31
0
0
LINE
8
1
10
1566.771654
20
-598.031496
30
0
11
1566.771654
21
-674.212598
31
0
0
LINE
8
1
10
1571.496063
20
-598.031496
30
0
11
1571.496063
21
-674.212598
31
0
0
LINE
8
1
10
1566.771654
20
-674.212598
30
0
11
1571.496063
21
-674.212598
31
0
0
LINE
8
1
10
1566.771654
20
-669.488189
30
0
11
1580.748031
21
-669.488189
31
0
0
LINE
8
1
10
1566.771654
20
-669.488189
30
0
11
1566.771654
21
-674.212598
31
0
0
LINE
8
1
10
1580.748031
20
-669.488189
30
0
11
1580.748031
21
-674.212598
31
0
0
LINE
8
1
10
1566.771654
20
-674.212598
30
0
11
1580.748031
21
-674.212598
31
0
0
LINE
8
1
10
1576.023622
20
-821.456693
30
0
11
1580.748031
21
-821.456693
31
0
0
LINE
8
1
10
1576.023622
20
-821.456693
30
0
11
1576.023622
21
-978.149606
31
0
0
LINE
8
1
10
1580.748031
20
-821.456693
30
0
11
1580.748031
21
-978.149606
31
0
0
LINE
8
1
10
1576.023622
20
-978.149606
30
0
11
1580.748031
21
-978.149606
31
0
0
LINE
8
1
10
1372.036732
20
-1136.811024
30
0
11
1390.246732
21
-1136.811024
31
0
0
LINE
8
1
10
1372.036732
20
-1136.811024
30
0
11
1372.036732
21
-1141.535433
31
0
0
LINE
8
1
10
1390.246732
20
-1136.811024
30
0
11
1390.246732
21
-1141.535433
31
0
0
LINE
8
1
10
1372.036732
20
-1141.535433
30
0
11
1390.246732
21
-1141.535433
31
0
0
LINE
8
1
10
1372.036732
20
-1096.653543
30
0
11
1390.246732
21
-1096.653543
31
0
0
LINE
8
1
10
1372.036732
20
-1096.653543
30
0
11
1372.036732
21
-1101.377953
31
0
0
LINE
8
1
10
1390.246732
20
-1096.653543
30
0
11
1390.246732
21
-1101.377953
31
0
0
LINE
8
1
10
1372.036732
20
-1101.377953
30
0
11
1390.246732
21
-1101.377953
31
0
0
LINE
8
1
10
1915.055945
20
-702.201102
30
0
11
1990.893071
21
-702.201102
31
0
0
LINE
8
1
10
1915.055945
20
-702.201102
30
0
11
1915.055945
21
-735.100354
31
0
0
LINE
8
1
10
1990.893071
20
-702.201102
30
0
11
1990.893071
21
-735.100354
31
0
0
LINE
8
1
10
1915.055945
20
-735.100354
30
0
11
1990.893071
21
-735.100354
31
0
0
LINE
8
1
10
2025.692126
20
-831.876299
30
0
11
2058.202677
21
-831.876299
31
0
0
LINE
8
1
10
2025.692126
20
-831.876299
30
0
11
2025.692126
21
-945.184724
31
0
0
LINE
8
1
10
2058.202677
20
-831.876299
30
0
11
2058.202677
21
-945.184724
31
0
0
LINE
8
1
10
2025.692126
20
-945.184724
30
0
11
2058.202677
21
-945.184724
31
0
0
LINE
8
1
10
1889.745236
20
-940.061417
30
0
11
1906.142323
21
-940.061417
31
0
0
LINE
8
1
10
1889.745236
20
-940.061417
30
0
11
1889.745236
21
-958.149724
31
0
0
LINE
8
1
10
1906.142323
20
-940.061417
30
0
11
1906.142323
21
-958.149724
31
0
0
LINE
8
1
10
1889.745236
20
-958.149724
30
0
11
1906.142323
21
-958.149724
31
0
0
LINE
8
1
10
2045.252323
20
-814.393543
30
0
11
2068.508465
21
-814.393543
31
0
0
LINE
8
1
10
2045.252323
20
-814.393543
30
0
11
2045.252323
21
-836.461929
31
0
0
LINE
8
1
10
2068.508465
20
-814.393543
30
0
11
2068.508465
21
-836.461929
31
0
0
LINE
8
1
10
2045.252323
20
-836.461929
30
0
11
2068.508465
21
-836.461929
31
0
0
LINE
8
1
10
1997.106654
20
-678.060000
30
0
11
2019.698150
21
-678.060000
31
0
0
LINE
8
1
10
1997.106654
20
-678.060000
30
0
11
1997.106654
21
-700.921535
31
0
0
LINE
8
1
10
2019.698150
20
-678.060000
30
0
11
2019.698150
21
-700.921535
31
0
0
LINE
8
1
10
1997.106654
20
-700.921535
30
0
11
2019.698150
21
-700.921535
31
0
0
LINE
8
1
10
1724.286142
20
-593.721024
30
0
11
2098.525276
21
-593.721024
31
0
0
LINE
8
1
10
1724.286142
20
-593.721024
30
0
11
1724.286142
21
-958.111496
31
0
0
LINE
8
1
10
2098.525276
20
-593.721024
30
0
11
2098.525276
21
-958.111496
31
0
0
LINE
8
1
10
1724.286142
20
-958.111496
30
0
11
2098.525276
21
-958.111496
31
0
0
CIRCLE
8
0
10
2157.913386
20
-2379.803150
30
0
40
72.834646
0
ENDSEC
0
EOF
