M48
; DRILL file {KiCad 9.0.0} date 2025-04-09T14:29:41-0400
; FORMAT={-:-/ absolute / inch / decimal}
; #@! TF.CreationDate,2025-04-09T14:29:41-04:00
; #@! TF.GenerationSoftware,Kicad,Pcbnew,9.0.0
; #@! TF.FileFunction,Plated,1,2,PTH
FMAT,2
INCH
; #@! TA.AperFunction,Plated,PTH,ViaDrill
T1C0.0236
; #@! TA.AperFunction,Plated,PTH,ComponentDrill
T2C0.0299
; #@! TA.AperFunction,Plated,PTH,ComponentDrill
T3C0.0394
; #@! TA.AperFunction,Plated,PTH,ComponentDrill
T4C0.0402
; #@! TA.AperFunction,Plated,PTH,ComponentDrill
T5C0.0472
; #@! TA.AperFunction,Plated,PTH,ComponentDrill
T6C0.0591
; #@! TA.AperFunction,Plated,PTH,ComponentDrill
T7C0.0650
%
G90
G05
T1
X-6.1758Y-0.4651
X-6.1736Y1.0661
X-6.1436Y0.0761
X-6.1336Y1.1561
X-6.1168Y-0.5262
X-5.6975Y1.6805
X-5.4652Y1.6805
X-5.1384Y-0.601
X-5.1306Y1.5546
X-5.0735Y1.3262
X-5.0046Y0.7022
X-5.0026Y0.9089
X-5.0006Y1.1038
X-4.9888Y0.4857
X-4.9416Y1.5605
X-4.8536Y-0.3405
X-4.8077Y1.5605
X-4.5735Y-0.347
X-4.3163Y-0.3261
X-4.1542Y1.8099
X-3.9908Y1.8085
X-3.8156Y1.8138
X-3.7565Y1.8177
X-3.5794Y1.7357
X-3.5203Y1.7357
X-3.2369Y-0.4789
T2
X-4.1345Y0.0782
X-4.0845Y0.1782
X-4.0345Y0.0782
X-3.9845Y0.1782
X-3.9345Y0.0782
X-3.8845Y0.1782
X-3.8345Y0.0782
X-3.7845Y0.1782
T3
X-6.2636Y1.4061
X-6.2636Y1.3061
X-6.2636Y1.2061
X-6.2636Y1.1061
X-6.2636Y1.0061
X-6.2636Y0.9061
X-6.2554Y0.2757
X-6.2554Y0.1773
X-6.2554Y0.0749
X-6.2554Y-0.0235
X-5.3621Y-0.8037
X-5.2621Y-0.8037
X-5.1621Y-0.8037
X-3.4101Y1.7929
X-3.4101Y1.6929
X-3.4101Y1.5929
T4
X-5.9766Y1.4022
X-5.9766Y1.3022
X-5.9766Y1.2022
X-5.9766Y1.1022
X-5.9766Y1.0022
X-5.9766Y0.9022
X-5.9766Y0.8022
X-5.9766Y0.7022
X-5.9766Y0.6022
X-5.9766Y0.5022
X-5.9766Y0.4022
X-5.9766Y0.3022
X-5.9766Y0.2022
X-5.9766Y0.1022
X-5.9766Y0.0022
X-5.9766Y-0.0978
X-5.9766Y-0.1978
X-5.9766Y-0.2978
X-5.9766Y-0.3978
X-5.9766Y-0.4978
X-5.7266Y1.3931
X-5.6266Y1.3931
X-5.5266Y1.3931
X-5.2766Y1.4022
X-5.2766Y1.3022
X-5.2766Y1.2022
X-5.2766Y1.1022
X-5.2766Y1.0022
X-5.2766Y0.9022
X-5.2766Y0.8022
X-5.2766Y0.7022
X-5.2766Y0.6022
X-5.2766Y0.5022
X-5.2766Y0.4022
X-5.2766Y0.3022
X-5.2766Y0.2022
X-5.2766Y0.1022
X-5.2766Y0.0022
X-5.2766Y-0.0978
X-5.2766Y-0.1978
X-5.2766Y-0.2978
X-5.2766Y-0.3978
X-5.2766Y-0.4978
T5
X-4.9036Y-0.7339
X-4.7036Y-0.7339
X-4.5816Y1.2829
X-4.5816Y1.1451
X-4.5816Y1.0073
X-4.5816Y0.7285
X-4.5816Y0.5907
X-4.5816Y0.4529
X-4.5036Y-0.7339
X-4.3036Y-0.7339
X-4.1036Y-0.7339
X-3.9911Y1.2836
X-3.9911Y1.1458
X-3.9911Y1.008
X-3.9911Y0.7292
X-3.9911Y0.5914
X-3.9911Y0.4536
X-3.9036Y-0.7339
X-3.7036Y-0.7339
X-3.5036Y-0.7339
T6
X-3.3052Y0.2062
X-3.3052Y-0.1186
T7
X-3.5216Y1.2357
X-3.5216Y0.7514
X-3.5184Y1.0034
X-3.5184Y0.5231
X-3.376Y1.2357
X-3.376Y0.7514
X-3.3727Y1.0034
X-3.3727Y0.5231
X-3.1988Y1.2357
X-3.1988Y0.7514
X-3.1955Y1.0034
X-3.1955Y0.5231
X-3.0531Y1.2357
X-3.0531Y0.7514
X-3.0499Y1.0034
X-3.0499Y0.5231
M30
