%TF.GenerationSoftware,KiCad,Pcbnew,7.0.7*%
%TF.CreationDate,2023-09-23T02:22:54-04:00*%
%TF.ProjectId,WingsStation,57696e67-7353-4746-9174-696f6e2e6b69,v1*%
%TF.SameCoordinates,Original*%
%TF.FileFunction,Copper,L1,Top*%
%TF.FilePolarity,Positive*%
%FSLAX46Y46*%
G04 Gerber Fmt 4.6, Leading zero omitted, Abs format (unit mm)*
G04 Created by KiCad (PCBNEW 7.0.7) date 2023-09-23 02:22:54*
%MOMM*%
%LPD*%
G01*
G04 APERTURE LIST*
G04 Aperture macros list*
%AMRoundRect*
0 Rectangle with rounded corners*
0 $1 Rounding radius*
0 $2 $3 $4 $5 $6 $7 $8 $9 X,Y pos of 4 corners*
0 Add a 4 corners polygon primitive as box body*
4,1,4,$2,$3,$4,$5,$6,$7,$8,$9,$2,$3,0*
0 Add four circle primitives for the rounded corners*
1,1,$1+$1,$2,$3*
1,1,$1+$1,$4,$5*
1,1,$1+$1,$6,$7*
1,1,$1+$1,$8,$9*
0 Add four rect primitives between the rounded corners*
20,1,$1+$1,$2,$3,$4,$5,0*
20,1,$1+$1,$4,$5,$6,$7,0*
20,1,$1+$1,$6,$7,$8,$9,0*
20,1,$1+$1,$8,$9,$2,$3,0*%
G04 Aperture macros list end*
%TA.AperFunction,SMDPad,CuDef*%
%ADD10RoundRect,0.243750X0.243750X0.456250X-0.243750X0.456250X-0.243750X-0.456250X0.243750X-0.456250X0*%
%TD*%
%TA.AperFunction,ComponentPad*%
%ADD11R,1.700000X1.700000*%
%TD*%
%TA.AperFunction,ComponentPad*%
%ADD12O,1.700000X1.700000*%
%TD*%
%TA.AperFunction,SMDPad,CuDef*%
%ADD13RoundRect,0.200000X0.200000X0.275000X-0.200000X0.275000X-0.200000X-0.275000X0.200000X-0.275000X0*%
%TD*%
%TA.AperFunction,ComponentPad*%
%ADD14RoundRect,0.250000X0.650000X1.550000X-0.650000X1.550000X-0.650000X-1.550000X0.650000X-1.550000X0*%
%TD*%
%TA.AperFunction,ComponentPad*%
%ADD15O,1.800000X3.600000*%
%TD*%
%TA.AperFunction,ComponentPad*%
%ADD16C,2.475000*%
%TD*%
%TA.AperFunction,SMDPad,CuDef*%
%ADD17RoundRect,0.150000X-0.150000X0.587500X-0.150000X-0.587500X0.150000X-0.587500X0.150000X0.587500X0*%
%TD*%
%TA.AperFunction,ComponentPad*%
%ADD18RoundRect,0.250000X1.550000X-0.650000X1.550000X0.650000X-1.550000X0.650000X-1.550000X-0.650000X0*%
%TD*%
%TA.AperFunction,ComponentPad*%
%ADD19O,3.600000X1.800000*%
%TD*%
%TA.AperFunction,ComponentPad*%
%ADD20R,3.000000X3.000000*%
%TD*%
%TA.AperFunction,ComponentPad*%
%ADD21C,3.000000*%
%TD*%
%TA.AperFunction,SMDPad,CuDef*%
%ADD22RoundRect,0.250000X0.475000X-0.337500X0.475000X0.337500X-0.475000X0.337500X-0.475000X-0.337500X0*%
%TD*%
%TA.AperFunction,SMDPad,CuDef*%
%ADD23RoundRect,0.237500X-0.250000X-0.237500X0.250000X-0.237500X0.250000X0.237500X-0.250000X0.237500X0*%
%TD*%
%TA.AperFunction,SMDPad,CuDef*%
%ADD24RoundRect,0.237500X-0.287500X-0.237500X0.287500X-0.237500X0.287500X0.237500X-0.287500X0.237500X0*%
%TD*%
%TA.AperFunction,ComponentPad*%
%ADD25C,1.500000*%
%TD*%
%TA.AperFunction,ComponentPad*%
%ADD26R,1.500000X1.500000*%
%TD*%
%TA.AperFunction,SMDPad,CuDef*%
%ADD27RoundRect,0.237500X0.300000X0.237500X-0.300000X0.237500X-0.300000X-0.237500X0.300000X-0.237500X0*%
%TD*%
%TA.AperFunction,SMDPad,CuDef*%
%ADD28R,1.200000X0.900000*%
%TD*%
%TA.AperFunction,SMDPad,CuDef*%
%ADD29RoundRect,0.237500X-0.237500X0.250000X-0.237500X-0.250000X0.237500X-0.250000X0.237500X0.250000X0*%
%TD*%
%TA.AperFunction,SMDPad,CuDef*%
%ADD30R,2.000000X1.500000*%
%TD*%
%TA.AperFunction,SMDPad,CuDef*%
%ADD31R,2.000000X3.800000*%
%TD*%
%TA.AperFunction,SMDPad,CuDef*%
%ADD32R,0.700000X0.510000*%
%TD*%
%TA.AperFunction,ComponentPad*%
%ADD33C,1.700000*%
%TD*%
%TA.AperFunction,SMDPad,CuDef*%
%ADD34R,3.500000X1.700000*%
%TD*%
%TA.AperFunction,SMDPad,CuDef*%
%ADD35R,1.700000X3.500000*%
%TD*%
%TA.AperFunction,SMDPad,CuDef*%
%ADD36R,1.550000X1.300000*%
%TD*%
%TA.AperFunction,SMDPad,CuDef*%
%ADD37RoundRect,0.237500X0.287500X0.237500X-0.287500X0.237500X-0.287500X-0.237500X0.287500X-0.237500X0*%
%TD*%
%TA.AperFunction,SMDPad,CuDef*%
%ADD38RoundRect,0.237500X-0.237500X0.300000X-0.237500X-0.300000X0.237500X-0.300000X0.237500X0.300000X0*%
%TD*%
%TA.AperFunction,ViaPad*%
%ADD39C,1.000000*%
%TD*%
%TA.AperFunction,Conductor*%
%ADD40C,0.500000*%
%TD*%
%TA.AperFunction,Conductor*%
%ADD41C,0.350000*%
%TD*%
%TA.AperFunction,Conductor*%
%ADD42C,1.000000*%
%TD*%
%TA.AperFunction,Conductor*%
%ADD43C,3.000000*%
%TD*%
G04 APERTURE END LIST*
D10*
%TO.P,F5,1*%
%TO.N,VIN1*%
X-75428700Y-10064300D03*
%TO.P,F5,2*%
%TO.N,B_PWR*%
X-77303700Y-10064300D03*
%TD*%
D11*
%TO.P,J11,1,Pin_1*%
%TO.N,+3V3*%
X-159096200Y35715700D03*
D12*
%TO.P,J11,2,Pin_2*%
%TO.N,SD_CS*%
X-159096200Y33175700D03*
%TO.P,J11,3,Pin_3*%
%TO.N,SD_MOSI*%
X-159096200Y30635700D03*
%TO.P,J11,4,Pin_4*%
%TO.N,SD_CLK*%
X-159096200Y28095700D03*
%TO.P,J11,5,Pin_5*%
%TO.N,SD_MISO*%
X-159096200Y25555700D03*
%TO.P,J11,6,Pin_6*%
%TO.N,GND*%
X-159096200Y23015700D03*
%TD*%
D13*
%TO.P,R19,1*%
%TO.N,Net-(D5-K-Pad2)*%
X-123341200Y235700D03*
%TO.P,R19,2*%
%TO.N,IO4*%
X-124991200Y235700D03*
%TD*%
%TO.P,R18,1*%
%TO.N,Net-(D5-K-Pad1)*%
X-126491200Y2585700D03*
%TO.P,R18,2*%
%TO.N,IO5*%
X-128141200Y2585700D03*
%TD*%
%TO.P,R17,1*%
%TO.N,IN3*%
X-109841200Y-13264300D03*
%TO.P,R17,2*%
%TO.N,Net-(D5-K-Pad2)*%
X-111491200Y-13264300D03*
%TD*%
%TO.P,R16,1*%
%TO.N,IN2*%
X-105291200Y-13264300D03*
%TO.P,R16,2*%
%TO.N,Net-(D5-K-Pad1)*%
X-106941200Y-13264300D03*
%TD*%
%TO.P,R14,1*%
%TO.N,Net-(D6-K-Pad2)*%
X-128553200Y-4924300D03*
%TO.P,R14,2*%
%TO.N,IO2*%
X-130203200Y-4924300D03*
%TD*%
%TO.P,R13,2*%
%TO.N,IO3*%
X-127141200Y-2638300D03*
%TO.P,R13,1*%
%TO.N,Net-(D6-K-Pad1)*%
X-125491200Y-2638300D03*
%TD*%
%TO.P,R12,1*%
%TO.N,IN5*%
X-119663200Y-13306300D03*
%TO.P,R12,2*%
%TO.N,Net-(D6-K-Pad2)*%
X-121313200Y-13306300D03*
%TD*%
%TO.P,R6,1*%
%TO.N,Net-(D3-K-Pad2)*%
X-124791200Y7685700D03*
%TO.P,R6,2*%
%TO.N,IO6*%
X-126441200Y7685700D03*
%TD*%
%TO.P,R5,2*%
%TO.N,IO7*%
X-129241200Y10335700D03*
%TO.P,R5,1*%
%TO.N,Net-(D3-K-Pad1)*%
X-127591200Y10335700D03*
%TD*%
%TO.P,R4,2*%
%TO.N,Net-(D3-K-Pad2)*%
X-101791200Y-13214300D03*
%TO.P,R4,1*%
%TO.N,IN1*%
X-100141200Y-13214300D03*
%TD*%
%TO.P,R3,1*%
%TO.N,IN0*%
X-96441200Y-13214300D03*
%TO.P,R3,2*%
%TO.N,Net-(D3-K-Pad1)*%
X-98091200Y-13214300D03*
%TD*%
%TO.P,R2,2*%
%TO.N,Net-(D6-K-Pad1)*%
X-116296200Y-13314300D03*
%TO.P,R2,1*%
%TO.N,IN4*%
X-114646200Y-13314300D03*
%TD*%
D14*
%TO.P,J8,1,Pin_1*%
%TO.N,B_PWR*%
X-88992200Y-18640300D03*
D15*
%TO.P,J8,2,Pin_2*%
%TO.N,IN0*%
X-94072200Y-18640300D03*
%TO.P,J8,3,Pin_3*%
%TO.N,IN1*%
X-99152200Y-18640300D03*
%TO.P,J8,4,Pin_4*%
%TO.N,IN2*%
X-104232200Y-18640300D03*
%TO.P,J8,5,Pin_5*%
%TO.N,IN3*%
X-109312200Y-18640300D03*
%TO.P,J8,6,Pin_6*%
%TO.N,IN4*%
X-114392200Y-18640300D03*
%TO.P,J8,7,Pin_7*%
%TO.N,IN5*%
X-119472200Y-18640300D03*
%TO.P,J8,8,Pin_8*%
%TO.N,GND*%
X-124552200Y-18640300D03*
%TD*%
D16*
%TO.P,F4,1_1,1*%
%TO.N,VIN1*%
X-77466200Y25485700D03*
%TO.P,F4,1_2,1*%
X-81166200Y25485700D03*
%TO.P,F4,2_1,2*%
%TO.N,/Outputs/VOUT4*%
X-85666200Y25485700D03*
%TO.P,F4,2_2,2*%
X-89366200Y25485700D03*
%TD*%
%TO.P,F3,1_1,1*%
%TO.N,VIN1*%
X-77466200Y13285700D03*
%TO.P,F3,1_2,1*%
X-81166200Y13285700D03*
%TO.P,F3,2_1,2*%
%TO.N,/Outputs/VOUT3*%
X-85666200Y13285700D03*
%TO.P,F3,2_2,2*%
X-89366200Y13285700D03*
%TD*%
%TO.P,F2,1_1,1*%
%TO.N,VIN1*%
X-77549410Y31385700D03*
%TO.P,F2,1_2,1*%
X-81249410Y31385700D03*
%TO.P,F2,2_1,2*%
%TO.N,/Outputs/VOUT2*%
X-85749410Y31385700D03*
%TO.P,F2,2_2,2*%
X-89449410Y31385700D03*
%TD*%
%TO.P,F1,1_1,1*%
%TO.N,VIN1*%
X-77549410Y19085700D03*
%TO.P,F1,1_2,1*%
X-81249410Y19085700D03*
%TO.P,F1,2_1,2*%
%TO.N,/Outputs/VOUT1*%
X-85749410Y19085700D03*
%TO.P,F1,2_2,2*%
X-89449410Y19085700D03*
%TD*%
D17*
%TO.P,D6,1,K*%
%TO.N,Net-(D6-K-Pad1)*%
X-122332200Y-5081300D03*
%TO.P,D6,2,K*%
%TO.N,Net-(D6-K-Pad2)*%
X-124232200Y-5081300D03*
%TO.P,D6,3,A*%
%TO.N,GND*%
X-123282200Y-6956300D03*
%TD*%
%TO.P,D5,3,A*%
%TO.N,GND*%
X-116170200Y-6956300D03*
%TO.P,D5,2,K*%
%TO.N,Net-(D5-K-Pad2)*%
X-117120200Y-5081300D03*
%TO.P,D5,1,K*%
%TO.N,Net-(D5-K-Pad1)*%
X-115220200Y-5081300D03*
%TD*%
%TO.P,D3,3,A*%
%TO.N,GND*%
X-110916200Y-7001800D03*
%TO.P,D3,2,K*%
%TO.N,Net-(D3-K-Pad2)*%
X-111866200Y-5126800D03*
%TO.P,D3,1,K*%
%TO.N,Net-(D3-K-Pad1)*%
X-109966200Y-5126800D03*
%TD*%
D18*
%TO.P,J2,1,Pin_1*%
%TO.N,GND*%
X-116373700Y25585700D03*
D19*
%TO.P,J2,2,Pin_2*%
%TO.N,/Outputs/DOUT2*%
X-116373700Y29085700D03*
%TO.P,J2,3,Pin_3*%
%TO.N,/Outputs/VOUT2*%
X-116373700Y32585700D03*
%TD*%
D18*
%TO.P,J4,1,Pin_1*%
%TO.N,GND*%
X-101373700Y25603200D03*
D19*
%TO.P,J4,2,Pin_2*%
%TO.N,/Outputs/DOUT4*%
X-101373700Y29103200D03*
%TO.P,J4,3,Pin_3*%
%TO.N,/Outputs/VOUT4*%
X-101373700Y32603200D03*
%TD*%
D18*
%TO.P,J3,1,Pin_1*%
%TO.N,GND*%
X-101373700Y11520700D03*
D19*
%TO.P,J3,2,Pin_2*%
%TO.N,/Outputs/DOUT3*%
X-101373700Y15020700D03*
%TO.P,J3,3,Pin_3*%
%TO.N,/Outputs/VOUT3*%
X-101373700Y18520700D03*
%TD*%
D18*
%TO.P,J1,1,Pin_1*%
%TO.N,GND*%
X-116373700Y11503200D03*
D19*
%TO.P,J1,2,Pin_2*%
%TO.N,/Outputs/DOUT1*%
X-116373700Y15003200D03*
%TO.P,J1,3,Pin_3*%
%TO.N,/Outputs/VOUT1*%
X-116373700Y18503200D03*
%TD*%
D20*
%TO.P,TB1,1,P1*%
%TO.N,GND*%
X-83952400Y-3012260D03*
D21*
%TO.P,TB1,2,P2*%
%TO.N,VIN1*%
X-83952400Y5237660D03*
%TD*%
D22*
%TO.P,C1,1*%
%TO.N,/PWR*%
X-90116200Y40448200D03*
%TO.P,C1,2*%
%TO.N,GND*%
X-90116200Y42523200D03*
%TD*%
D11*
%TO.P,J6,1,Pin_1*%
%TO.N,/PWR*%
X-86616200Y40460700D03*
D12*
%TO.P,J6,2,Pin_2*%
%TO.N,/VIN*%
X-86616200Y43000700D03*
%TO.P,J6,3,Pin_3*%
%TO.N,+5V*%
X-86616200Y45540700D03*
%TD*%
D22*
%TO.P,C2,1*%
%TO.N,+5V*%
X-103216200Y43833200D03*
%TO.P,C2,2*%
%TO.N,GND*%
X-103216200Y45908200D03*
%TD*%
D23*
%TO.P,R1,1*%
%TO.N,GND*%
X-80628700Y-12214300D03*
%TO.P,R1,2*%
%TO.N,Net-(D2-K)*%
X-78803700Y-12214300D03*
%TD*%
D24*
%TO.P,D2,1,K*%
%TO.N,Net-(D2-K)*%
X-76791200Y-12214300D03*
%TO.P,D2,2,A*%
%TO.N,VIN1*%
X-75041200Y-12214300D03*
%TD*%
D25*
%TO.P,J7,8*%
%TO.N,B_PWR*%
X-96126200Y5825700D03*
%TO.P,J7,7*%
%TO.N,GND*%
X-97396200Y3285700D03*
%TO.P,J7,6*%
%TO.N,IN5*%
X-98666200Y5825700D03*
%TO.P,J7,5*%
%TO.N,IN4*%
X-99936200Y3285700D03*
%TO.P,J7,4*%
%TO.N,IN3*%
X-101206200Y5825700D03*
%TO.P,J7,3*%
%TO.N,IN2*%
X-102476200Y3285700D03*
%TO.P,J7,2*%
%TO.N,IN1*%
X-103746200Y5825700D03*
D26*
%TO.P,J7,1*%
%TO.N,IN0*%
X-105016200Y3285700D03*
%TD*%
D27*
%TO.P,C3,1*%
%TO.N,+5V*%
X-125653700Y33685700D03*
%TO.P,C3,2*%
%TO.N,GND*%
X-127378700Y33685700D03*
%TD*%
D28*
%TO.P,D1,1,K*%
%TO.N,/VIN*%
X-83516200Y40635700D03*
%TO.P,D1,2,A*%
%TO.N,VIN1*%
X-83516200Y37335700D03*
%TD*%
D29*
%TO.P,R7,1*%
%TO.N,/Outputs/DOUT1*%
X-122716200Y15598200D03*
%TO.P,R7,2*%
%TO.N,Net-(R7-Pad2)*%
X-122716200Y13773200D03*
%TD*%
%TO.P,R8,1*%
%TO.N,/Outputs/DOUT2*%
X-123016200Y26498200D03*
%TO.P,R8,2*%
%TO.N,Net-(R8-Pad2)*%
X-123016200Y24673200D03*
%TD*%
%TO.P,R10,1*%
%TO.N,/Outputs/DOUT4*%
X-123016200Y31298200D03*
%TO.P,R10,2*%
%TO.N,Net-(R10-Pad2)*%
X-123016200Y29473200D03*
%TD*%
D30*
%TO.P,U2,1,GND*%
%TO.N,GND*%
X-99466200Y45970700D03*
D31*
%TO.P,U2,2,VO*%
%TO.N,+5V*%
X-93166200Y43670700D03*
D30*
X-99466200Y43670700D03*
%TO.P,U2,3,VI*%
%TO.N,/PWR*%
X-99466200Y41370700D03*
%TD*%
D32*
%TO.P,U4,1*%
%TO.N,GND*%
X-126676200Y15735700D03*
%TO.P,U4,2*%
%TO.N,OUT17*%
X-126676200Y14785700D03*
%TO.P,U4,3,GND*%
%TO.N,GND*%
X-126676200Y13835700D03*
%TO.P,U4,4*%
%TO.N,Net-(R7-Pad2)*%
X-124356200Y13835700D03*
%TO.P,U4,5,VCC*%
%TO.N,+5V*%
X-124356200Y15735700D03*
%TD*%
D29*
%TO.P,R9,1*%
%TO.N,/Outputs/DOUT3*%
X-123216200Y21298200D03*
%TO.P,R9,2*%
%TO.N,Net-(R9-Pad2)*%
X-123216200Y19473200D03*
%TD*%
D33*
%TO.P,J5,4,Pin_4*%
%TO.N,GND*%
X-158888200Y7003700D03*
%TO.P,J5,3,Pin_3*%
%TO.N,+3V3*%
X-158888200Y4503700D03*
%TO.P,J5,2,Pin_2*%
%TO.N,/Micro/SCL*%
X-158888200Y1903700D03*
%TO.P,J5,1,Pin_1*%
%TO.N,/Micro/SDA*%
X-158888200Y-596300D03*
%TD*%
D12*
%TO.P,U1,1,GPIO0*%
%TO.N,Net-(J9-Pin_2)*%
X-134026200Y-12644300D03*
D34*
X-133126200Y-12644300D03*
%TO.P,U1,2,GPIO1*%
%TO.N,Net-(J9-Pin_1)*%
X-133126200Y-10104300D03*
D12*
X-134026200Y-10104300D03*
D11*
%TO.P,U1,3,GND*%
%TO.N,GND*%
X-134026200Y-7564300D03*
D34*
X-133126200Y-7564300D03*
%TO.P,U1,4,GPIO2*%
%TO.N,IO2*%
X-133126200Y-5024300D03*
D12*
X-134026200Y-5024300D03*
D34*
%TO.P,U1,5,GPIO3*%
%TO.N,IO3*%
X-133126200Y-2484300D03*
D12*
X-134026200Y-2484300D03*
D34*
%TO.P,U1,6,GPIO4*%
%TO.N,IO4*%
X-133126200Y55700D03*
D12*
X-134026200Y55700D03*
%TO.P,U1,7,GPIO5*%
%TO.N,IO5*%
X-134026200Y2595700D03*
D34*
X-133126200Y2595700D03*
%TO.P,U1,8,GND*%
%TO.N,GND*%
X-133126200Y5135700D03*
D11*
X-134026200Y5135700D03*
D12*
%TO.P,U1,9,GPIO6*%
%TO.N,IO6*%
X-134026200Y7675700D03*
D34*
X-133126200Y7675700D03*
%TO.P,U1,10,GPIO7*%
%TO.N,IO7*%
X-133126200Y10215700D03*
D12*
X-134026200Y10215700D03*
D34*
%TO.P,U1,11,GPIO8*%
%TO.N,Net-(D4-A)*%
X-133126200Y12755700D03*
D12*
X-134026200Y12755700D03*
%TO.P,U1,12,GPIO9*%
%TO.N,OUT17*%
X-134026200Y15295700D03*
D34*
X-133126200Y15295700D03*
%TO.P,U1,13,GND*%
%TO.N,GND*%
X-133126200Y17835700D03*
D11*
X-134026200Y17835700D03*
D12*
%TO.P,U1,14,GPIO10*%
%TO.N,OUT19*%
X-134026200Y20375700D03*
D34*
X-133126200Y20375700D03*
D12*
%TO.P,U1,15,GPIO11*%
%TO.N,unconnected-(U1-GPIO11-Pad15)*%
X-134026200Y22915700D03*
D34*
X-133126200Y22915700D03*
D12*
%TO.P,U1,16,GPIO12*%
%TO.N,OUT18*%
X-134026200Y25455700D03*
D34*
X-133126200Y25455700D03*
D12*
%TO.P,U1,17,GPIO13*%
%TO.N,OUT20*%
X-134026200Y27995700D03*
D34*
X-133126200Y27995700D03*
%TO.P,U1,18,GND*%
%TO.N,GND*%
X-133126200Y30535700D03*
D11*
X-134026200Y30535700D03*
D12*
%TO.P,U1,19,GPIO14*%
%TO.N,unconnected-(U1-GPIO14-Pad19)*%
X-134026200Y33075700D03*
D34*
X-133126200Y33075700D03*
%TO.P,U1,20,GPIO15*%
%TO.N,unconnected-(U1-GPIO15-Pad20)*%
X-133126200Y35615700D03*
D12*
X-134026200Y35615700D03*
D34*
%TO.P,U1,21,GPIO16*%
%TO.N,SD_MISO*%
X-152706200Y35615700D03*
D12*
X-151806200Y35615700D03*
D34*
%TO.P,U1,22,GPIO17*%
%TO.N,SD_CS*%
X-152706200Y33075700D03*
D12*
X-151806200Y33075700D03*
D11*
%TO.P,U1,23,GND*%
%TO.N,GND*%
X-151806200Y30535700D03*
D34*
X-152706200Y30535700D03*
%TO.P,U1,24,GPIO18*%
%TO.N,SD_CLK*%
X-152706200Y27995700D03*
D12*
X-151806200Y27995700D03*
%TO.P,U1,25,GPIO19*%
%TO.N,SD_MOSI*%
X-151806200Y25455700D03*
D34*
X-152706200Y25455700D03*
%TO.P,U1,26,GPIO20*%
%TO.N,unconnected-(U1-GPIO20-Pad26)*%
X-152706200Y22915700D03*
D12*
X-151806200Y22915700D03*
%TO.P,U1,27,GPIO21*%
%TO.N,unconnected-(U1-GPIO21-Pad27)*%
X-151806200Y20375700D03*
D34*
X-152706200Y20375700D03*
%TO.P,U1,28,GND*%
%TO.N,GND*%
X-152706200Y17835700D03*
D11*
X-151806200Y17835700D03*
D34*
%TO.P,U1,29,GPIO22*%
%TO.N,unconnected-(U1-GPIO22-Pad29)*%
X-152706200Y15295700D03*
D12*
X-151806200Y15295700D03*
D34*
%TO.P,U1,30,RUN*%
%TO.N,Net-(U1-RUN)*%
X-152706200Y12755700D03*
D12*
X-151806200Y12755700D03*
D34*
%TO.P,U1,31,GPIO26_ADC0*%
%TO.N,/Micro/SDA*%
X-152706200Y10215700D03*
D12*
X-151806200Y10215700D03*
D34*
%TO.P,U1,32,GPIO27_ADC1*%
%TO.N,/Micro/SCL*%
X-152706200Y7675700D03*
D12*
X-151806200Y7675700D03*
D34*
%TO.P,U1,33,AGND*%
%TO.N,unconnected-(U1-AGND-Pad33)*%
X-152706200Y5135700D03*
D11*
X-151806200Y5135700D03*
D34*
%TO.P,U1,34,GPIO28_ADC2*%
%TO.N,unconnected-(U1-GPIO28_ADC2-Pad34)*%
X-152706200Y2595700D03*
D12*
X-151806200Y2595700D03*
%TO.P,U1,35,ADC_VREF*%
%TO.N,unconnected-(U1-ADC_VREF-Pad35)*%
X-151806200Y55700D03*
D34*
X-152706200Y55700D03*
D12*
%TO.P,U1,36,3V3*%
%TO.N,+3V3*%
X-151806200Y-2484300D03*
D34*
X-152706200Y-2484300D03*
%TO.P,U1,37,3V3_EN*%
%TO.N,unconnected-(U1-3V3_EN-Pad37)*%
X-152706200Y-5024300D03*
D12*
X-151806200Y-5024300D03*
D11*
%TO.P,U1,38,GND*%
%TO.N,GND*%
X-151806200Y-7564300D03*
D34*
X-152706200Y-7564300D03*
%TO.P,U1,39,VSYS*%
%TO.N,+5V*%
X-152706200Y-10104300D03*
D12*
X-151806200Y-10104300D03*
%TO.P,U1,40,VBUS*%
%TO.N,unconnected-(U1-VBUS-Pad40)*%
X-151806200Y-12644300D03*
D34*
X-152706200Y-12644300D03*
D12*
%TO.P,U1,41,SWCLK*%
%TO.N,/Micro/SWDCLK*%
X-140376200Y35385700D03*
D35*
X-140376200Y36285700D03*
%TO.P,U1,42,GND*%
%TO.N,GND*%
X-142916200Y36285700D03*
D11*
X-142916200Y35385700D03*
D35*
%TO.P,U1,43,SWDIO*%
%TO.N,/Micro/SWDIO*%
X-145456200Y36285700D03*
D12*
X-145456200Y35385700D03*
%TD*%
D36*
%TO.P,SW4,2,2*%
%TO.N,GND*%
X-125657200Y39307700D03*
X-133607200Y39307700D03*
%TO.P,SW4,1,1*%
%TO.N,Net-(U1-RUN)*%
X-133607200Y43807700D03*
X-125657200Y43807700D03*
%TD*%
D32*
%TO.P,U6,1*%
%TO.N,GND*%
X-127076200Y21335700D03*
%TO.P,U6,2*%
%TO.N,OUT19*%
X-127076200Y20385700D03*
%TO.P,U6,3,GND*%
%TO.N,GND*%
X-127076200Y19435700D03*
%TO.P,U6,4*%
%TO.N,Net-(R9-Pad2)*%
X-124756200Y19435700D03*
%TO.P,U6,5,VCC*%
%TO.N,+5V*%
X-124756200Y21335700D03*
%TD*%
D37*
%TO.P,D4,1,K*%
%TO.N,Net-(D4-K)*%
X-135641200Y-16314300D03*
%TO.P,D4,2,A*%
%TO.N,Net-(D4-A)*%
X-137391200Y-16314300D03*
%TD*%
D23*
%TO.P,R11,1*%
%TO.N,Net-(D4-K)*%
X-133728700Y-16314300D03*
%TO.P,R11,2*%
%TO.N,GND*%
X-131903700Y-16314300D03*
%TD*%
D32*
%TO.P,U7,1*%
%TO.N,GND*%
X-126976200Y31335700D03*
%TO.P,U7,2*%
%TO.N,OUT20*%
X-126976200Y30385700D03*
%TO.P,U7,3,GND*%
%TO.N,GND*%
X-126976200Y29435700D03*
%TO.P,U7,4*%
%TO.N,Net-(R10-Pad2)*%
X-124656200Y29435700D03*
%TO.P,U7,5,VCC*%
%TO.N,+5V*%
X-124656200Y31335700D03*
%TD*%
D38*
%TO.P,C5,1*%
%TO.N,+5V*%
X-155316200Y-10051800D03*
%TO.P,C5,2*%
%TO.N,GND*%
X-155316200Y-11776800D03*
%TD*%
D11*
%TO.P,J9,1,Pin_1*%
%TO.N,Net-(J9-Pin_1)*%
X-131116200Y-20414300D03*
D12*
%TO.P,J9,2,Pin_2*%
%TO.N,Net-(J9-Pin_2)*%
X-133656200Y-20414300D03*
%TO.P,J9,3,Pin_3*%
%TO.N,GND*%
X-136196200Y-20414300D03*
%TD*%
D32*
%TO.P,U5,1*%
%TO.N,GND*%
X-126976200Y26535700D03*
%TO.P,U5,2*%
%TO.N,OUT18*%
X-126976200Y25585700D03*
%TO.P,U5,3,GND*%
%TO.N,GND*%
X-126976200Y24635700D03*
%TO.P,U5,4*%
%TO.N,Net-(R8-Pad2)*%
X-124656200Y24635700D03*
%TO.P,U5,5,VCC*%
%TO.N,+5V*%
X-124656200Y26535700D03*
%TD*%
D39*
%TO.N,GND*%
X-126716200Y12335700D03*
X-82216200Y-12164300D03*
X-155366200Y-13364300D03*
X-156866200Y-11814300D03*
X-131716200Y39335700D03*
X-123866200Y39385700D03*
X-127616200Y39485700D03*
X-128866200Y33685700D03*
X-127116200Y17835700D03*
X-127016200Y28035700D03*
X-127066200Y23085700D03*
X-116166200Y-8814298D03*
X-109634949Y-8283051D03*
X-123282200Y-8648300D03*
%TO.N,SD_MISO*%
X-155794200Y29365700D03*
%TO.N,SD_MOSI*%
X-156810200Y27079700D03*
%TO.N,/Micro/SCL*%
X-156048200Y1933700D03*
%TO.N,GND*%
X-96916200Y46070700D03*
X-95416200Y46170700D03*
X-101366200Y45935704D03*
X-105516200Y45970700D03*
X-130516200Y-15264300D03*
X-90916200Y44085700D03*
X-89416200Y44085700D03*
%TO.N,/Micro/SWDCLK*%
X-139916200Y43385700D03*
%TO.N,/Micro/SWDIO*%
X-141866200Y43235700D03*
%TD*%
D40*
%TO.N,GND*%
X-80678700Y-12164300D02*
X-80628700Y-12214300D01*
X-82216200Y-12164300D02*
X-80678700Y-12164300D01*
D41*
%TO.N,Net-(D4-A)*%
X-137366200Y-16289300D02*
X-137366200Y9415700D01*
X-137366200Y9415700D02*
X-134026200Y12755700D01*
X-137391200Y-16314300D02*
X-137366200Y-16289300D01*
D40*
%TO.N,GND*%
X-127116200Y16175700D02*
X-126676200Y15735700D01*
X-127116200Y17835700D02*
X-127116200Y16175700D01*
X-126716200Y13795700D02*
X-126676200Y13835700D01*
X-126716200Y12335700D02*
X-126716200Y13795700D01*
X-127076200Y17875700D02*
X-127116200Y17835700D01*
X-127076200Y19435700D02*
X-127076200Y17875700D01*
X-127066200Y21345700D02*
X-127076200Y21335700D01*
X-127066200Y23085700D02*
X-127066200Y21345700D01*
X-126976200Y23175700D02*
X-127066200Y23085700D01*
X-126976200Y24635700D02*
X-126976200Y23175700D01*
X-127016200Y26575700D02*
X-126976200Y26535700D01*
X-127016200Y28035700D02*
X-127016200Y26575700D01*
X-126976200Y28075700D02*
X-127016200Y28035700D01*
X-126976200Y29435700D02*
X-126976200Y28075700D01*
X-127378700Y33685700D02*
X-128866200Y33685700D01*
X-127378700Y33685700D02*
X-127378700Y31738200D01*
X-127378700Y31738200D02*
X-126976200Y31335700D01*
X-156828700Y-11776800D02*
X-156866200Y-11814300D01*
X-155316200Y-11776800D02*
X-156828700Y-11776800D01*
X-155316200Y-13314300D02*
X-155366200Y-13364300D01*
X-155316200Y-11776800D02*
X-155316200Y-13314300D01*
X-131216200Y-16314300D02*
X-131903700Y-16314300D01*
X-130516200Y-15264300D02*
X-130516200Y-15614300D01*
X-130516200Y-15614300D02*
X-131216200Y-16314300D01*
D41*
%TO.N,Net-(J9-Pin_1)*%
X-128941200Y-12289300D02*
X-128941200Y-18239300D01*
X-134026200Y-10104300D02*
X-131126200Y-10104300D01*
X-131126200Y-10104300D02*
X-128941200Y-12289300D01*
X-128941200Y-18239300D02*
X-131116200Y-20414300D01*
%TO.N,Net-(J9-Pin_2)*%
X-129491200Y-14039300D02*
X-130886200Y-12644300D01*
X-129491200Y-16249300D02*
X-129491200Y-14039300D01*
X-130886200Y-12644300D02*
X-134026200Y-12644300D01*
X-133656200Y-20414300D02*
X-129491200Y-16249300D01*
D42*
%TO.N,GND*%
X-101331204Y45970700D02*
X-101366200Y45935704D01*
X-101393704Y45908200D02*
X-101366200Y45935704D01*
X-103216200Y45908200D02*
X-101393704Y45908200D01*
X-99466200Y45970700D02*
X-101331204Y45970700D01*
D43*
X-91866200Y-514300D02*
X-89368240Y-3012260D01*
X-91866200Y6635700D02*
X-91866200Y-514300D01*
X-96751200Y11520700D02*
X-91866200Y6635700D01*
X-101373700Y11520700D02*
X-96751200Y11520700D01*
X-89368240Y-3012260D02*
X-83952400Y-3012260D01*
X-101391200Y11503200D02*
X-101373700Y11520700D01*
X-116373700Y11503200D02*
X-101391200Y11503200D01*
D42*
X-123944200Y39307700D02*
X-123866200Y39385700D01*
X-125657200Y39307700D02*
X-123944200Y39307700D01*
X-95416200Y46170700D02*
X-96816200Y46170700D01*
X-96816200Y46170700D02*
X-96916200Y46070700D01*
X-99466200Y45970700D02*
X-97016200Y45970700D01*
X-97016200Y45970700D02*
X-96916200Y46070700D01*
X-103278700Y45970700D02*
X-103216200Y45908200D01*
X-105516200Y45970700D02*
X-103278700Y45970700D01*
X-89416200Y44085700D02*
X-90116200Y43385700D01*
X-90116200Y43385700D02*
X-90116200Y43285700D01*
X-90116200Y43285700D02*
X-90916200Y44085700D01*
X-90116200Y42523200D02*
X-90116200Y43285700D01*
X-133607200Y39307700D02*
X-125657200Y39307700D01*
D41*
%TO.N,Net-(D3-K-Pad1)*%
X-100716200Y-10564300D02*
X-98091200Y-13189300D01*
X-98091200Y-13189300D02*
X-98091200Y-13214300D01*
X-104528700Y-10564300D02*
X-100716200Y-10564300D01*
X-109966200Y-5126800D02*
X-104528700Y-10564300D01*
X-125408700Y10315700D02*
X-109966200Y-5126800D01*
%TO.N,IN0*%
X-103816200Y985700D02*
X-103816200Y-5839300D01*
X-105016200Y2185700D02*
X-103816200Y985700D01*
X-103816200Y-5839300D02*
X-96441200Y-13214300D01*
X-105016200Y3285700D02*
X-105016200Y2185700D01*
%TO.N,IN1*%
X-96828200Y-20964300D02*
X-99152200Y-18640300D01*
X-93366200Y-20964300D02*
X-96828200Y-20964300D01*
X-103166200Y1435700D02*
X-103166200Y-4475572D01*
X-103746200Y2015700D02*
X-103166200Y1435700D01*
X-92666200Y-14975572D02*
X-92666200Y-20264300D01*
X-92666200Y-20264300D02*
X-93366200Y-20964300D01*
X-103746200Y5825700D02*
X-103746200Y2015700D01*
X-103166200Y-4475572D02*
X-92666200Y-14975572D01*
D42*
%TO.N,B_PWR*%
X-97666200Y-414300D02*
X-97666200Y-4764300D01*
X-97666200Y-4764300D02*
X-92316200Y-10114300D01*
X-95376200Y1875700D02*
X-97666200Y-414300D01*
X-95376200Y5075700D02*
X-95376200Y1875700D01*
X-92316200Y-10114300D02*
X-77353700Y-10114300D01*
X-96126200Y5825700D02*
X-95376200Y5075700D01*
D41*
%TO.N,IN5*%
X-98666200Y-5864300D02*
X-98666200Y5825700D01*
X-92454932Y-23164300D02*
X-90466201Y-21175571D01*
X-90466201Y-14064299D02*
X-98666200Y-5864300D01*
X-114948200Y-23164300D02*
X-92454932Y-23164300D01*
X-119472200Y-18640300D02*
X-114948200Y-23164300D01*
X-90466201Y-21175571D02*
X-90466201Y-14064299D01*
%TO.N,IN4*%
X-110418200Y-22614300D02*
X-114392200Y-18640300D01*
X-91016201Y-20947754D02*
X-92682749Y-22614300D01*
X-92682749Y-22614300D02*
X-110418200Y-22614300D01*
X-91016200Y-14292118D02*
X-91016201Y-20947754D01*
X-99936200Y-5372118D02*
X-91016200Y-14292118D01*
X-99936200Y3285700D02*
X-99936200Y-5372118D01*
%TO.N,IN3*%
X-92910566Y-22064300D02*
X-105888200Y-22064300D01*
X-91566200Y-14519936D02*
X-91566200Y-20719936D01*
X-105888200Y-22064300D02*
X-109312200Y-18640300D01*
X-101206200Y-4879936D02*
X-91566200Y-14519936D01*
X-101206200Y5825700D02*
X-101206200Y-4879936D01*
X-91566200Y-20719936D02*
X-92910566Y-22064300D01*
%TO.N,IN2*%
X-101358200Y-21514300D02*
X-104232200Y-18640300D01*
X-93138383Y-21514300D02*
X-101358200Y-21514300D01*
X-92116200Y-20492118D02*
X-93138383Y-21514300D01*
X-92116200Y-14747754D02*
X-92116200Y-20492118D01*
X-102476200Y3285700D02*
X-102476200Y-4387754D01*
X-102476200Y-4387754D02*
X-92116200Y-14747754D01*
%TO.N,IO6*%
X-126451200Y7675700D02*
X-134026200Y7675700D01*
X-126441200Y7685700D02*
X-126451200Y7675700D01*
%TO.N,Net-(D3-K-Pad2)*%
X-111866200Y-5214300D02*
X-124766200Y7685700D01*
X-124766200Y7685700D02*
X-124791200Y7685700D01*
X-111866200Y-8401737D02*
X-111866200Y-5214300D01*
X-108703637Y-11564300D02*
X-111866200Y-8401737D01*
X-101791200Y-13214300D02*
X-103441200Y-11564300D01*
X-103441200Y-11564300D02*
X-108703637Y-11564300D01*
%TO.N,Net-(D3-K-Pad1)*%
X-127571200Y10315700D02*
X-125408700Y10315700D01*
X-127591200Y10335700D02*
X-127571200Y10315700D01*
D42*
%TO.N,GND*%
X-110916200Y-7001800D02*
X-109634949Y-8283051D01*
D41*
%TO.N,Net-(D5-K-Pad1)*%
X-108116200Y-13264300D02*
X-106941200Y-13264300D01*
X-115220200Y-6160300D02*
X-108116200Y-13264300D01*
X-115220200Y-5081300D02*
X-115220200Y-6160300D01*
D42*
%TO.N,B_PWR*%
X-88866200Y-10114300D02*
X-77353700Y-10114300D01*
X-88866200Y-18514300D02*
X-88866200Y-10114300D01*
X-88992200Y-18640300D02*
X-88866200Y-18514300D01*
X-77353700Y-10114300D02*
X-77303700Y-10064300D01*
%TO.N,VIN1*%
X-74066200Y-10064300D02*
X-75428700Y-10064300D01*
X-74016200Y-9014300D02*
X-74016200Y-10014300D01*
X-74016200Y-10014300D02*
X-74066200Y-10064300D01*
X-74016200Y-9014300D02*
X-74016200Y2885700D01*
X-74016200Y-11189300D02*
X-74016200Y-9014300D01*
D41*
%TO.N,/Outputs/DOUT3*%
X-106259180Y16328680D02*
X-118159180Y16328680D01*
X-118159180Y16328680D02*
X-123128700Y21298200D01*
X-123128700Y21298200D02*
X-123216200Y21298200D01*
X-104951200Y15020700D02*
X-106259180Y16328680D01*
X-101373700Y15020700D02*
X-104951200Y15020700D01*
%TO.N,IO7*%
X-133926200Y10315700D02*
X-134026200Y10215700D01*
X-129241200Y10335700D02*
X-129261200Y10315700D01*
X-129261200Y10315700D02*
X-133926200Y10315700D01*
%TO.N,IO5*%
X-128141200Y2585700D02*
X-128151200Y2595700D01*
%TO.N,Net-(D5-K-Pad1)*%
X-115299200Y-5081300D02*
X-115220200Y-5081300D01*
X-126491200Y2585700D02*
X-126347200Y2441700D01*
X-126347200Y2441700D02*
X-122822200Y2441700D01*
X-122822200Y2441700D02*
X-115299200Y-5081300D01*
%TO.N,IO5*%
X-128151200Y2595700D02*
X-134026200Y2595700D01*
%TO.N,IO3*%
X-133872200Y-2638300D02*
X-134026200Y-2484300D01*
X-127141200Y-2638300D02*
X-133872200Y-2638300D01*
%TO.N,Net-(D6-K-Pad1)*%
X-125491200Y-2638300D02*
X-124775200Y-2638300D01*
X-124775200Y-2638300D02*
X-122332200Y-5081300D01*
%TO.N,IO4*%
X-125071200Y155700D02*
X-133926200Y155700D01*
X-133926200Y155700D02*
X-134026200Y55700D01*
%TO.N,Net-(D5-K-Pad2)*%
X-123261200Y155700D02*
X-123341200Y235700D01*
X-117120200Y-5081300D02*
X-122357200Y155700D01*
X-122357200Y155700D02*
X-123261200Y155700D01*
%TO.N,IO4*%
X-124991200Y235700D02*
X-125071200Y155700D01*
D42*
%TO.N,GND*%
X-116170200Y-8810298D02*
X-116166200Y-8814298D01*
D41*
%TO.N,Net-(D5-K-Pad2)*%
X-111491200Y-13264300D02*
X-113003637Y-13264300D01*
X-117120200Y-9147737D02*
X-117120200Y-5081300D01*
D42*
%TO.N,GND*%
X-116170200Y-6956300D02*
X-116170200Y-8810298D01*
D41*
%TO.N,Net-(D5-K-Pad2)*%
X-113003637Y-13264300D02*
X-117120200Y-9147737D01*
D42*
%TO.N,GND*%
X-123282200Y-6956300D02*
X-123282200Y-8648300D01*
D41*
%TO.N,IN0*%
X-94072200Y-15583300D02*
X-94072200Y-18640300D01*
X-96441200Y-13214300D02*
X-94072200Y-15583300D01*
%TO.N,IN1*%
X-100141200Y-13214300D02*
X-99152200Y-14203300D01*
X-99152200Y-14203300D02*
X-99152200Y-18640300D01*
%TO.N,IN2*%
X-104232200Y-14323300D02*
X-104232200Y-18640300D01*
X-105291200Y-13264300D02*
X-104232200Y-14323300D01*
%TO.N,IN3*%
X-109312200Y-13793300D02*
X-109312200Y-18640300D01*
X-109841200Y-13264300D02*
X-109312200Y-13793300D01*
%TO.N,Net-(D6-K-Pad1)*%
X-121116200Y-8494300D02*
X-116296200Y-13314300D01*
X-121116200Y-6297300D02*
X-121116200Y-8494300D01*
X-122332200Y-5081300D02*
X-121116200Y-6297300D01*
%TO.N,IN4*%
X-114646200Y-13314300D02*
X-114392200Y-13568300D01*
X-114392200Y-13568300D02*
X-114392200Y-18640300D01*
%TO.N,Net-(U1-RUN)*%
X-133607200Y43807700D02*
X-125657200Y43807700D01*
X-149952200Y21999700D02*
X-149952200Y14609700D01*
X-138522200Y33429700D02*
X-149952200Y21999700D01*
X-133607200Y43807700D02*
X-138522200Y38892700D01*
X-138522200Y38892700D02*
X-138522200Y33429700D01*
X-149952200Y14609700D02*
X-151806200Y12755700D01*
D42*
%TO.N,+5V*%
X-151246200Y-10104300D02*
X-151806200Y-10104300D01*
X-148682200Y21016264D02*
X-148682200Y-7540300D01*
X-148682200Y-7540300D02*
X-151246200Y-10104300D01*
X-134476200Y41285700D02*
X-136998200Y38763700D01*
X-136998200Y32700264D02*
X-148682200Y21016264D01*
X-118053700Y41285700D02*
X-134476200Y41285700D01*
X-136998200Y38763700D02*
X-136998200Y32700264D01*
D40*
%TO.N,+3V3*%
X-162398200Y34445700D02*
X-162017200Y34826700D01*
X-162398200Y3965700D02*
X-162398200Y34445700D01*
D41*
%TO.N,SD_MOSI*%
X-151806200Y25455700D02*
X-155186200Y25455700D01*
X-155186200Y25455700D02*
X-156810200Y27079700D01*
%TO.N,SD_MISO*%
X-153516200Y35615700D02*
X-151806200Y35615700D01*
X-155794200Y33337700D02*
X-153516200Y35615700D01*
X-155794200Y29365700D02*
X-155794200Y33337700D01*
%TO.N,SD_CLK*%
X-151906200Y28095700D02*
X-151806200Y27995700D01*
X-159096200Y28095700D02*
X-151906200Y28095700D01*
%TO.N,/Micro/SCL*%
X-156048200Y5143700D02*
X-156048200Y1933700D01*
X-151806200Y7675700D02*
X-153516200Y7675700D01*
%TO.N,/Micro/SDA*%
X-156923200Y1368700D02*
X-158888200Y-596300D01*
%TO.N,/Micro/SCL*%
X-153516200Y7675700D02*
X-156048200Y5143700D01*
%TO.N,/Micro/SDA*%
X-156923200Y6808700D02*
X-156923200Y1368700D01*
X-153516200Y10215700D02*
X-156923200Y6808700D01*
X-151806200Y10215700D02*
X-153516200Y10215700D01*
D40*
%TO.N,+3V3*%
X-162398200Y-1106249D02*
X-162398200Y3965700D01*
X-151806200Y-2484300D02*
X-161020149Y-2484300D01*
X-161020149Y-2484300D02*
X-162398200Y-1106249D01*
X-162398200Y4473700D02*
X-162368200Y4503700D01*
X-162398200Y3965700D02*
X-162398200Y4473700D01*
X-162368200Y4503700D02*
X-158888200Y4503700D01*
X-162138200Y34705700D02*
X-161128200Y35715700D01*
X-161128200Y35715700D02*
X-159096200Y35715700D01*
D41*
%TO.N,OUT17*%
X-133516200Y14785700D02*
X-134026200Y15295700D01*
X-126676200Y14785700D02*
X-133516200Y14785700D01*
%TO.N,OUT19*%
X-134016200Y20385700D02*
X-134026200Y20375700D01*
X-127076200Y20385700D02*
X-134016200Y20385700D01*
%TO.N,OUT18*%
X-133896200Y25585700D02*
X-134026200Y25455700D01*
X-126976200Y25585700D02*
X-133896200Y25585700D01*
%TO.N,OUT20*%
X-132316200Y27995700D02*
X-134026200Y27995700D01*
X-129926200Y30385700D02*
X-132316200Y27995700D01*
X-126976200Y30385700D02*
X-129926200Y30385700D01*
%TO.N,IO2*%
X-130303200Y-5024300D02*
X-130203200Y-4924300D01*
X-134026200Y-5024300D02*
X-130303200Y-5024300D01*
%TO.N,IN5*%
X-119472200Y-13497300D02*
X-119472200Y-18640300D01*
X-119663200Y-13306300D02*
X-119472200Y-13497300D01*
%TO.N,Net-(D6-K-Pad2)*%
X-124232200Y-10387300D02*
X-121313200Y-13306300D01*
X-124232200Y-5081300D02*
X-124232200Y-10387300D01*
X-124389200Y-4924300D02*
X-124232200Y-5081300D01*
X-128553200Y-4924300D02*
X-124389200Y-4924300D01*
D42*
%TO.N,+5V*%
X-91296200Y45540700D02*
X-93166200Y43670700D01*
X-103216200Y43833200D02*
X-105763700Y41285700D01*
D40*
X-124656200Y31335700D02*
X-125541689Y30450211D01*
X-125541689Y27326189D02*
X-124751200Y26535700D01*
X-125555711Y20126189D02*
X-125555711Y18731189D01*
X-125516200Y25675700D02*
X-125516200Y22095700D01*
D42*
X-93166200Y43670700D02*
X-99466200Y43670700D01*
D40*
X-125653700Y33685700D02*
X-125653700Y32333200D01*
D42*
X-121984950Y37354450D02*
X-125653700Y33685700D01*
D40*
X-151806200Y-10104300D02*
X-155263700Y-10104300D01*
X-124356200Y17531678D02*
X-124356200Y15735700D01*
X-125653700Y32333200D02*
X-124656200Y31335700D01*
X-125516200Y22095700D02*
X-124756200Y21335700D01*
D42*
X-105763700Y41285700D02*
X-118053700Y41285700D01*
D40*
X-125541689Y20140211D02*
X-125555711Y20126189D01*
D42*
X-99466200Y43670700D02*
X-103053700Y43670700D01*
D40*
X-124751200Y26535700D02*
X-124656200Y26535700D01*
X-155263700Y-10104300D02*
X-155316200Y-10051800D01*
X-125555711Y18731189D02*
X-124356200Y17531678D01*
X-124756200Y21335700D02*
X-125541689Y20550211D01*
D42*
X-86616200Y45540700D02*
X-91296200Y45540700D01*
D40*
X-125541689Y30450211D02*
X-125541689Y27326189D01*
X-124656200Y26535700D02*
X-125516200Y25675700D01*
X-125541689Y20550211D02*
X-125541689Y20140211D01*
D42*
X-118053700Y41285700D02*
X-121984950Y37354450D01*
%TO.N,VIN1*%
X-76516200Y5285700D02*
X-76564240Y5237660D01*
X-75041200Y-12214300D02*
X-74016200Y-11189300D01*
X-74016200Y2885700D02*
X-76416200Y5285700D01*
X-82816200Y32952490D02*
X-81249410Y31385700D01*
X-76564240Y5237660D02*
X-83952400Y5237660D01*
X-82816200Y36635700D02*
X-82816200Y32952490D01*
X-83516200Y37335700D02*
X-82816200Y36635700D01*
X-76416200Y5285700D02*
X-76516200Y5285700D01*
D41*
%TO.N,Net-(D2-K)*%
X-78803700Y-12214300D02*
X-76791200Y-12214300D01*
D43*
%TO.N,/Outputs/VOUT1*%
X-89449410Y19085700D02*
X-93049890Y22686180D01*
X-85749410Y19085700D02*
X-89449410Y19085700D01*
X-112190720Y22686180D02*
X-116373700Y18503200D01*
X-93049890Y22686180D02*
X-112190720Y22686180D01*
%TO.N,/Outputs/VOUT2*%
X-94849410Y36785700D02*
X-112173700Y36785700D01*
X-112173700Y36785700D02*
X-116373700Y32585700D01*
X-85749410Y31385700D02*
X-89449410Y31385700D01*
X-89449410Y31385700D02*
X-94849410Y36785700D01*
%TO.N,/Outputs/VOUT3*%
X-94601200Y18520700D02*
X-101373700Y18520700D01*
X-85666200Y13285700D02*
X-89366200Y13285700D01*
X-89366200Y13285700D02*
X-94601200Y18520700D01*
%TO.N,/Outputs/VOUT4*%
X-89366200Y25485700D02*
X-96483700Y32603200D01*
X-96483700Y32603200D02*
X-101373700Y32603200D01*
X-85666200Y25485700D02*
X-89366200Y25485700D01*
D41*
%TO.N,/Outputs/DOUT1*%
X-116373700Y15003200D02*
X-122121200Y15003200D01*
X-122716200Y15598200D02*
X-122121200Y15003200D01*
%TO.N,/Outputs/DOUT2*%
X-120428700Y29085700D02*
X-123016200Y26498200D01*
X-116373700Y29085700D02*
X-120428700Y29085700D01*
%TO.N,/Outputs/DOUT4*%
X-122103700Y30385700D02*
X-104816200Y30385700D01*
X-104816200Y30385700D02*
X-103533700Y29103200D01*
X-103533700Y29103200D02*
X-101373700Y29103200D01*
X-123016200Y31298200D02*
X-122103700Y30385700D01*
D42*
%TO.N,/PWR*%
X-86628700Y40448200D02*
X-86616200Y40460700D01*
X-90253700Y40585700D02*
X-90116200Y40448200D01*
X-96731200Y40585700D02*
X-90253700Y40585700D01*
X-99466200Y41370700D02*
X-97516200Y41370700D01*
X-90116200Y40448200D02*
X-86628700Y40448200D01*
X-97516200Y41370700D02*
X-96731200Y40585700D01*
D41*
%TO.N,Net-(R7-Pad2)*%
X-122778700Y13835700D02*
X-122716200Y13773200D01*
X-124356200Y13835700D02*
X-122778700Y13835700D01*
%TO.N,Net-(R8-Pad2)*%
X-123016200Y24673200D02*
X-124618700Y24673200D01*
X-124618700Y24673200D02*
X-124656200Y24635700D01*
%TO.N,Net-(R9-Pad2)*%
X-123253700Y19435700D02*
X-123216200Y19473200D01*
X-124756200Y19435700D02*
X-123253700Y19435700D01*
D42*
%TO.N,/VIN*%
X-85381200Y43000700D02*
X-83516200Y41135700D01*
X-83516200Y41135700D02*
X-83516200Y40635700D01*
X-86616200Y43000700D02*
X-85381200Y43000700D01*
D41*
%TO.N,Net-(D4-K)*%
X-133728700Y-16314300D02*
X-135641200Y-16314300D01*
%TO.N,/Micro/SWDCLK*%
X-140376200Y42625700D02*
X-140376200Y35385700D01*
X-139916200Y43385700D02*
X-140376200Y42625700D01*
%TO.N,/Micro/SWDIO*%
X-141866200Y40485700D02*
X-141866200Y43235700D01*
X-145456200Y36895700D02*
X-141866200Y40485700D01*
X-145456200Y35385700D02*
X-145456200Y36895700D01*
%TO.N,Net-(R10-Pad2)*%
X-124618700Y29473200D02*
X-124656200Y29435700D01*
X-123016200Y29473200D02*
X-124618700Y29473200D01*
%TD*%
%TA.AperFunction,Conductor*%
%TO.N,VIN1*%
G36*
X-73124579Y35265698D02*
G01*
X-73078086Y35212042D01*
X-73066700Y35159700D01*
X-73066700Y1611700D01*
X-73086702Y1543579D01*
X-73140358Y1497086D01*
X-73192700Y1485700D01*
X-87790200Y1485700D01*
X-87858321Y1505702D01*
X-87904814Y1559358D01*
X-87916200Y1611700D01*
X-87916200Y8410903D01*
X-87896198Y8479024D01*
X-87850537Y8521517D01*
X-83516200Y10885700D01*
X-83416715Y35160216D01*
X-83396433Y35228255D01*
X-83342587Y35274527D01*
X-83290715Y35285700D01*
X-73192700Y35285700D01*
X-73124579Y35265698D01*
G37*
%TD.AperFunction*%
%TD*%
M02*
