G04 #@! TF.GenerationSoftware,KiCad,Pcbnew,(6.0.6)*
G04 #@! TF.CreationDate,2022-07-22T14:40:10-04:00*
G04 #@! TF.ProjectId,BBB_16,4242425f-3136-42e6-9b69-6361645f7063,v2*
G04 #@! TF.SameCoordinates,Original*
G04 #@! TF.FileFunction,OtherDrawing,Comment*
%FSLAX46Y46*%
G04 Gerber Fmt 4.6, Leading zero omitted, Abs format (unit mm)*
G04 Created by KiCad (PCBNEW (6.0.6)) date 2022-07-22 14:40:10*
%MOMM*%
%LPD*%
G01*
G04 APERTURE LIST*
%ADD10C,0.150000*%
G04 #@! TA.AperFunction,Profile*
%ADD11C,0.050000*%
G04 #@! TD*
%ADD12C,0.300000*%
%ADD13C,0.120000*%
G04 APERTURE END LIST*
D10*
X211267000Y-115999800D02*
X211267000Y-39799800D01*
X208167000Y-117099800D02*
X208167000Y-91699800D01*
X208067000Y-40999800D02*
X212067000Y-40999800D01*
X218967000Y-60899800D02*
X218967000Y-59599800D01*
X218967000Y-77299800D02*
X218967000Y-60899800D01*
D11*
X218967000Y-153599800D02*
X218967000Y-76799800D01*
X70167000Y-36699800D02*
X70167000Y-153615800D01*
X218967000Y-36699800D02*
X70167000Y-36699800D01*
X218967000Y-58599800D02*
X218967000Y-36699800D01*
X202067000Y-58599800D02*
X202067000Y-76799800D01*
X202067000Y-76799800D02*
X218967000Y-76799800D01*
X218967000Y-153599800D02*
X70167000Y-153615800D01*
X218967000Y-58599800D02*
X202067000Y-58599800D01*
D12*
X126144428Y-58977800D02*
X125999285Y-58905228D01*
X125781571Y-58905228D01*
X125563857Y-58977800D01*
X125418714Y-59122942D01*
X125346142Y-59268085D01*
X125273571Y-59558371D01*
X125273571Y-59776085D01*
X125346142Y-60066371D01*
X125418714Y-60211514D01*
X125563857Y-60356657D01*
X125781571Y-60429228D01*
X125926714Y-60429228D01*
X126144428Y-60356657D01*
X126217000Y-60284085D01*
X126217000Y-59776085D01*
X125926714Y-59776085D01*
X127087857Y-58905228D02*
X127087857Y-59268085D01*
X126725000Y-59122942D02*
X127087857Y-59268085D01*
X127450714Y-59122942D01*
X126870142Y-59558371D02*
X127087857Y-59268085D01*
X127305571Y-59558371D01*
X128249000Y-58905228D02*
X128249000Y-59268085D01*
X127886142Y-59122942D02*
X128249000Y-59268085D01*
X128611857Y-59122942D01*
X128031285Y-59558371D02*
X128249000Y-59268085D01*
X128466714Y-59558371D01*
X129410142Y-58905228D02*
X129410142Y-59268085D01*
X129047285Y-59122942D02*
X129410142Y-59268085D01*
X129773000Y-59122942D01*
X129192428Y-59558371D02*
X129410142Y-59268085D01*
X129627857Y-59558371D01*
D13*
X82067000Y-145899800D02*
X88867000Y-145899800D01*
X79467000Y-144999800D02*
X72667000Y-144999800D01*
X79467000Y-145899800D02*
X72667000Y-145899800D01*
X82067000Y-144999800D02*
X88867000Y-144999800D01*
X79567000Y-145399800D02*
G75*
G03*
X79567000Y-145399800I-3500000J0D01*
G01*
X88968428Y-145399800D02*
G75*
G03*
X88968428Y-145399800I-3501428J0D01*
G01*
X207067000Y-145799800D02*
X200267000Y-145799800D01*
X209667000Y-144899800D02*
X216467000Y-144899800D01*
X209667000Y-145799800D02*
X216467000Y-145799800D01*
X207067000Y-144899800D02*
X200267000Y-144899800D01*
X216567000Y-145399800D02*
G75*
G03*
X216567000Y-145399800I-3500000J0D01*
G01*
X207168428Y-145399800D02*
G75*
G03*
X207168428Y-145399800I-3501428J0D01*
G01*
M02*
