G04 #@! TF.GenerationSoftware,KiCad,Pcbnew,(6.0.6)*
G04 #@! TF.CreationDate,2022-07-22T14:40:10-04:00*
G04 #@! TF.ProjectId,BBB_16,4242425f-3136-42e6-9b69-6361645f7063,v2*
G04 #@! TF.SameCoordinates,Original*
G04 #@! TF.FileFunction,Soldermask,Bot*
G04 #@! TF.FilePolarity,Negative*
%FSLAX46Y46*%
G04 Gerber Fmt 4.6, Leading zero omitted, Abs format (unit mm)*
G04 Created by KiCad (PCBNEW (6.0.6)) date 2022-07-22 14:40:10*
%MOMM*%
%LPD*%
G01*
G04 APERTURE LIST*
G04 #@! TA.AperFunction,Profile*
%ADD10C,0.050000*%
G04 #@! TD*
%ADD11C,2.577000*%
%ADD12O,1.902000X3.702000*%
%ADD13O,1.802000X1.802000*%
%ADD14C,3.802000*%
%ADD15C,5.000000*%
%ADD16C,1.802000*%
%ADD17C,3.402000*%
%ADD18C,1.602000*%
%ADD19C,4.102000*%
%ADD20C,1.632000*%
%ADD21C,1.902000*%
%ADD22C,4.674000*%
%ADD23O,2.052000X1.802000*%
%ADD24C,2.006000*%
%ADD25C,2.702000*%
%ADD26C,1.502000*%
%ADD27C,2.102000*%
G04 APERTURE END LIST*
D10*
X218967000Y-153599800D02*
X218967000Y-76799800D01*
X70167000Y-36699800D02*
X70167000Y-153615800D01*
X218967000Y-36699800D02*
X70167000Y-36699800D01*
X218967000Y-58599800D02*
X218967000Y-36699800D01*
X202067000Y-58599800D02*
X202067000Y-76799800D01*
X202067000Y-76799800D02*
X218967000Y-76799800D01*
X218967000Y-153599800D02*
X70167000Y-153615800D01*
X218967000Y-58599800D02*
X202067000Y-58599800D01*
X218967000Y-153599800D02*
X218967000Y-76799800D01*
X70167000Y-36699800D02*
X70167000Y-153615800D01*
X218967000Y-36699800D02*
X70167000Y-36699800D01*
X218967000Y-58599800D02*
X218967000Y-36699800D01*
X202067000Y-58599800D02*
X202067000Y-76799800D01*
X202067000Y-76799800D02*
X218967000Y-76799800D01*
X218967000Y-153599800D02*
X70167000Y-153615800D01*
X218967000Y-58599800D02*
X202067000Y-58599800D01*
D11*
X74282600Y-135238600D03*
X74282600Y-131538600D03*
X74282600Y-127038600D03*
X74282600Y-123338600D03*
G36*
G01*
X88149000Y-131150000D02*
X88149000Y-128050000D01*
G75*
G02*
X88450000Y-127749000I301000J0D01*
G01*
X89750000Y-127749000D01*
G75*
G02*
X90051000Y-128050000I0J-301000D01*
G01*
X90051000Y-131150000D01*
G75*
G02*
X89750000Y-131451000I-301000J0D01*
G01*
X88450000Y-131451000D01*
G75*
G02*
X88149000Y-131150000I0J301000D01*
G01*
G37*
D12*
X92600000Y-129600000D03*
X96100000Y-129600000D03*
G36*
G01*
X118149000Y-118150000D02*
X118149000Y-115050000D01*
G75*
G02*
X118450000Y-114749000I301000J0D01*
G01*
X119750000Y-114749000D01*
G75*
G02*
X120051000Y-115050000I0J-301000D01*
G01*
X120051000Y-118150000D01*
G75*
G02*
X119750000Y-118451000I-301000J0D01*
G01*
X118450000Y-118451000D01*
G75*
G02*
X118149000Y-118150000I0J301000D01*
G01*
G37*
X122600000Y-116600000D03*
X126100000Y-116600000D03*
G36*
G01*
X118263342Y-131150000D02*
X118263342Y-128050000D01*
G75*
G02*
X118564342Y-127749000I301000J0D01*
G01*
X119864342Y-127749000D01*
G75*
G02*
X120165342Y-128050000I0J-301000D01*
G01*
X120165342Y-131150000D01*
G75*
G02*
X119864342Y-131451000I-301000J0D01*
G01*
X118564342Y-131451000D01*
G75*
G02*
X118263342Y-131150000I0J301000D01*
G01*
G37*
X122714342Y-129600000D03*
X126214342Y-129600000D03*
G36*
G01*
X133149000Y-118150000D02*
X133149000Y-115050000D01*
G75*
G02*
X133450000Y-114749000I301000J0D01*
G01*
X134750000Y-114749000D01*
G75*
G02*
X135051000Y-115050000I0J-301000D01*
G01*
X135051000Y-118150000D01*
G75*
G02*
X134750000Y-118451000I-301000J0D01*
G01*
X133450000Y-118451000D01*
G75*
G02*
X133149000Y-118150000I0J301000D01*
G01*
G37*
X137600000Y-116600000D03*
X141100000Y-116600000D03*
G36*
G01*
X133149000Y-131150000D02*
X133149000Y-128050000D01*
G75*
G02*
X133450000Y-127749000I301000J0D01*
G01*
X134750000Y-127749000D01*
G75*
G02*
X135051000Y-128050000I0J-301000D01*
G01*
X135051000Y-131150000D01*
G75*
G02*
X134750000Y-131451000I-301000J0D01*
G01*
X133450000Y-131451000D01*
G75*
G02*
X133149000Y-131150000I0J301000D01*
G01*
G37*
X137600000Y-129600000D03*
X141100000Y-129600000D03*
G36*
G01*
X148149000Y-118150000D02*
X148149000Y-115050000D01*
G75*
G02*
X148450000Y-114749000I301000J0D01*
G01*
X149750000Y-114749000D01*
G75*
G02*
X150051000Y-115050000I0J-301000D01*
G01*
X150051000Y-118150000D01*
G75*
G02*
X149750000Y-118451000I-301000J0D01*
G01*
X148450000Y-118451000D01*
G75*
G02*
X148149000Y-118150000I0J301000D01*
G01*
G37*
X152600000Y-116600000D03*
X156100000Y-116600000D03*
G36*
G01*
X148149000Y-131150000D02*
X148149000Y-128050000D01*
G75*
G02*
X148450000Y-127749000I301000J0D01*
G01*
X149750000Y-127749000D01*
G75*
G02*
X150051000Y-128050000I0J-301000D01*
G01*
X150051000Y-131150000D01*
G75*
G02*
X149750000Y-131451000I-301000J0D01*
G01*
X148450000Y-131451000D01*
G75*
G02*
X148149000Y-131150000I0J301000D01*
G01*
G37*
X152600000Y-129600000D03*
X156100000Y-129600000D03*
G36*
G01*
X163149000Y-118150000D02*
X163149000Y-115050000D01*
G75*
G02*
X163450000Y-114749000I301000J0D01*
G01*
X164750000Y-114749000D01*
G75*
G02*
X165051000Y-115050000I0J-301000D01*
G01*
X165051000Y-118150000D01*
G75*
G02*
X164750000Y-118451000I-301000J0D01*
G01*
X163450000Y-118451000D01*
G75*
G02*
X163149000Y-118150000I0J301000D01*
G01*
G37*
X167600000Y-116600000D03*
X171100000Y-116600000D03*
G36*
G01*
X163149000Y-131150000D02*
X163149000Y-128050000D01*
G75*
G02*
X163450000Y-127749000I301000J0D01*
G01*
X164750000Y-127749000D01*
G75*
G02*
X165051000Y-128050000I0J-301000D01*
G01*
X165051000Y-131150000D01*
G75*
G02*
X164750000Y-131451000I-301000J0D01*
G01*
X163450000Y-131451000D01*
G75*
G02*
X163149000Y-131150000I0J301000D01*
G01*
G37*
X167600000Y-129600000D03*
X171100000Y-129600000D03*
G36*
G01*
X178149000Y-118150000D02*
X178149000Y-115050000D01*
G75*
G02*
X178450000Y-114749000I301000J0D01*
G01*
X179750000Y-114749000D01*
G75*
G02*
X180051000Y-115050000I0J-301000D01*
G01*
X180051000Y-118150000D01*
G75*
G02*
X179750000Y-118451000I-301000J0D01*
G01*
X178450000Y-118451000D01*
G75*
G02*
X178149000Y-118150000I0J301000D01*
G01*
G37*
X182600000Y-116600000D03*
X186100000Y-116600000D03*
G36*
G01*
X178149000Y-131150000D02*
X178149000Y-128050000D01*
G75*
G02*
X178450000Y-127749000I301000J0D01*
G01*
X179750000Y-127749000D01*
G75*
G02*
X180051000Y-128050000I0J-301000D01*
G01*
X180051000Y-131150000D01*
G75*
G02*
X179750000Y-131451000I-301000J0D01*
G01*
X178450000Y-131451000D01*
G75*
G02*
X178149000Y-131150000I0J301000D01*
G01*
G37*
X182600000Y-129600000D03*
X186100000Y-129600000D03*
G36*
G01*
X193149000Y-118150000D02*
X193149000Y-115050000D01*
G75*
G02*
X193450000Y-114749000I301000J0D01*
G01*
X194750000Y-114749000D01*
G75*
G02*
X195051000Y-115050000I0J-301000D01*
G01*
X195051000Y-118150000D01*
G75*
G02*
X194750000Y-118451000I-301000J0D01*
G01*
X193450000Y-118451000D01*
G75*
G02*
X193149000Y-118150000I0J301000D01*
G01*
G37*
X197600000Y-116600000D03*
X201100000Y-116600000D03*
G36*
G01*
X193149000Y-131150000D02*
X193149000Y-128050000D01*
G75*
G02*
X193450000Y-127749000I301000J0D01*
G01*
X194750000Y-127749000D01*
G75*
G02*
X195051000Y-128050000I0J-301000D01*
G01*
X195051000Y-131150000D01*
G75*
G02*
X194750000Y-131451000I-301000J0D01*
G01*
X193450000Y-131451000D01*
G75*
G02*
X193149000Y-131150000I0J301000D01*
G01*
G37*
X197600000Y-129600000D03*
X201100000Y-129600000D03*
D11*
X94222600Y-150288600D03*
X94222600Y-146588600D03*
X94222600Y-142088600D03*
X94222600Y-138388600D03*
X134425198Y-150298600D03*
X134425198Y-146598600D03*
X134425198Y-142098600D03*
X134425198Y-138398600D03*
X181328229Y-150363600D03*
X181328229Y-146663600D03*
X181328229Y-142163600D03*
X181328229Y-138463600D03*
X100923033Y-150303600D03*
X100923033Y-146603600D03*
X100923033Y-142103600D03*
X100923033Y-138403600D03*
X127724765Y-150298600D03*
X127724765Y-146598600D03*
X127724765Y-142098600D03*
X127724765Y-138398600D03*
X141125631Y-150298600D03*
X141125631Y-146598600D03*
X141125631Y-142098600D03*
X141125631Y-138398600D03*
X147826064Y-150298600D03*
X147826064Y-146598600D03*
X147826064Y-142098600D03*
X147826064Y-138398600D03*
X154526497Y-150298600D03*
X154526497Y-146598600D03*
X154526497Y-142098600D03*
X154526497Y-138398600D03*
X194729100Y-150363600D03*
X194729100Y-146663600D03*
X194729100Y-142163600D03*
X194729100Y-138463600D03*
X121024332Y-150298600D03*
X121024332Y-146598600D03*
X121024332Y-142098600D03*
X121024332Y-138398600D03*
X107623466Y-150303600D03*
X107623466Y-146603600D03*
X107623466Y-142103600D03*
X107623466Y-138403600D03*
X174627796Y-150363600D03*
X174627796Y-146663600D03*
X174627796Y-142163600D03*
X174627796Y-138463600D03*
X161226930Y-150298600D03*
X161226930Y-146598600D03*
X161226930Y-142098600D03*
X161226930Y-138398600D03*
X114323899Y-150303600D03*
X114323899Y-146603600D03*
X114323899Y-142103600D03*
X114323899Y-138403600D03*
G36*
G01*
X88149000Y-118150000D02*
X88149000Y-115050000D01*
G75*
G02*
X88450000Y-114749000I301000J0D01*
G01*
X89750000Y-114749000D01*
G75*
G02*
X90051000Y-115050000I0J-301000D01*
G01*
X90051000Y-118150000D01*
G75*
G02*
X89750000Y-118451000I-301000J0D01*
G01*
X88450000Y-118451000D01*
G75*
G02*
X88149000Y-118150000I0J301000D01*
G01*
G37*
D12*
X92600000Y-116600000D03*
X96100000Y-116600000D03*
G36*
G01*
X103149000Y-118150000D02*
X103149000Y-115050000D01*
G75*
G02*
X103450000Y-114749000I301000J0D01*
G01*
X104750000Y-114749000D01*
G75*
G02*
X105051000Y-115050000I0J-301000D01*
G01*
X105051000Y-118150000D01*
G75*
G02*
X104750000Y-118451000I-301000J0D01*
G01*
X103450000Y-118451000D01*
G75*
G02*
X103149000Y-118150000I0J301000D01*
G01*
G37*
X107600000Y-116600000D03*
X111100000Y-116600000D03*
G36*
G01*
X103149000Y-131150000D02*
X103149000Y-128050000D01*
G75*
G02*
X103450000Y-127749000I301000J0D01*
G01*
X104750000Y-127749000D01*
G75*
G02*
X105051000Y-128050000I0J-301000D01*
G01*
X105051000Y-131150000D01*
G75*
G02*
X104750000Y-131451000I-301000J0D01*
G01*
X103450000Y-131451000D01*
G75*
G02*
X103149000Y-131150000I0J301000D01*
G01*
G37*
X107600000Y-129600000D03*
X111100000Y-129600000D03*
G36*
G01*
X214917000Y-46598800D02*
X216617000Y-46598800D01*
G75*
G02*
X216668000Y-46649800I0J-51000D01*
G01*
X216668000Y-48349800D01*
G75*
G02*
X216617000Y-48400800I-51000J0D01*
G01*
X214917000Y-48400800D01*
G75*
G02*
X214866000Y-48349800I0J51000D01*
G01*
X214866000Y-46649800D01*
G75*
G02*
X214917000Y-46598800I51000J0D01*
G01*
G37*
D13*
X213227000Y-47499800D03*
X210687000Y-47499800D03*
X208147000Y-47499800D03*
X205607000Y-47499800D03*
D11*
X188028662Y-150363600D03*
X188028662Y-146663600D03*
X188028662Y-142163600D03*
X188028662Y-138463600D03*
X167927363Y-150298600D03*
X167927363Y-146598600D03*
X167927363Y-142098600D03*
X167927363Y-138398600D03*
D14*
X81427600Y-66318600D03*
X106527600Y-66318600D03*
D15*
X158817000Y-63299800D03*
X182117000Y-63299800D03*
D16*
X166667000Y-63799800D03*
X169167000Y-63799800D03*
X171767000Y-63799800D03*
X174267000Y-63799800D03*
D14*
X81127600Y-117118600D03*
D11*
X214726000Y-135181800D03*
X214726000Y-131481800D03*
X214726000Y-126981800D03*
X214726000Y-123281800D03*
D17*
X80689500Y-78649800D03*
X92119500Y-78649800D03*
G36*
G01*
X91650500Y-84249800D02*
X91650500Y-85749800D01*
G75*
G02*
X91599500Y-85800800I-51000J0D01*
G01*
X90099500Y-85800800D01*
G75*
G02*
X90048500Y-85749800I0J51000D01*
G01*
X90048500Y-84249800D01*
G75*
G02*
X90099500Y-84198800I51000J0D01*
G01*
X91599500Y-84198800D01*
G75*
G02*
X91650500Y-84249800I0J-51000D01*
G01*
G37*
D18*
X89579500Y-87539800D03*
X88309500Y-84999800D03*
X87039500Y-87539800D03*
X85769500Y-84999800D03*
X84499500Y-87539800D03*
X83229500Y-84999800D03*
X81959500Y-87539800D03*
G36*
G01*
X87618000Y-143399800D02*
X87618000Y-147399800D01*
G75*
G02*
X87567000Y-147450800I-51000J0D01*
G01*
X83567000Y-147450800D01*
G75*
G02*
X83516000Y-147399800I0J51000D01*
G01*
X83516000Y-143399800D01*
G75*
G02*
X83567000Y-143348800I51000J0D01*
G01*
X87567000Y-143348800D01*
G75*
G02*
X87618000Y-143399800I0J-51000D01*
G01*
G37*
D19*
X76067000Y-145399800D03*
G36*
G01*
X201516000Y-147399800D02*
X201516000Y-143399800D01*
G75*
G02*
X201567000Y-143348800I51000J0D01*
G01*
X205567000Y-143348800D01*
G75*
G02*
X205618000Y-143399800I0J-51000D01*
G01*
X205618000Y-147399800D01*
G75*
G02*
X205567000Y-147450800I-51000J0D01*
G01*
X201567000Y-147450800D01*
G75*
G02*
X201516000Y-147399800I0J51000D01*
G01*
G37*
X213067000Y-145399800D03*
D17*
X100489500Y-78549800D03*
X111919500Y-78549800D03*
G36*
G01*
X111450500Y-84149800D02*
X111450500Y-85649800D01*
G75*
G02*
X111399500Y-85700800I-51000J0D01*
G01*
X109899500Y-85700800D01*
G75*
G02*
X109848500Y-85649800I0J51000D01*
G01*
X109848500Y-84149800D01*
G75*
G02*
X109899500Y-84098800I51000J0D01*
G01*
X111399500Y-84098800D01*
G75*
G02*
X111450500Y-84149800I0J-51000D01*
G01*
G37*
D18*
X109379500Y-87439800D03*
X108109500Y-84899800D03*
X106839500Y-87439800D03*
X105569500Y-84899800D03*
X104299500Y-87439800D03*
X103029500Y-84899800D03*
X101759500Y-87439800D03*
G36*
G01*
X127653000Y-41864800D02*
X127653000Y-43394800D01*
G75*
G02*
X127602000Y-43445800I-51000J0D01*
G01*
X126072000Y-43445800D01*
G75*
G02*
X126021000Y-43394800I0J51000D01*
G01*
X126021000Y-41864800D01*
G75*
G02*
X126072000Y-41813800I51000J0D01*
G01*
X127602000Y-41813800D01*
G75*
G02*
X127653000Y-41864800I0J-51000D01*
G01*
G37*
D20*
X126837000Y-45169800D03*
X124297000Y-42629800D03*
X124297000Y-45169800D03*
X121757000Y-42629800D03*
X121757000Y-45169800D03*
X119217000Y-42629800D03*
X119217000Y-45169800D03*
X116677000Y-42629800D03*
X116677000Y-45169800D03*
X114137000Y-42629800D03*
X114137000Y-45169800D03*
X111597000Y-42629800D03*
X111597000Y-45169800D03*
X109057000Y-42629800D03*
X109057000Y-45169800D03*
X106517000Y-42629800D03*
X106517000Y-45169800D03*
X103977000Y-42629800D03*
X103977000Y-45169800D03*
X101437000Y-42629800D03*
X101437000Y-45169800D03*
X98897000Y-42629800D03*
X98897000Y-45169800D03*
G36*
G01*
X202011000Y-88859800D02*
X202011000Y-87059800D01*
G75*
G02*
X202062000Y-87008800I51000J0D01*
G01*
X203862000Y-87008800D01*
G75*
G02*
X203913000Y-87059800I0J-51000D01*
G01*
X203913000Y-88859800D01*
G75*
G02*
X203862000Y-88910800I-51000J0D01*
G01*
X202062000Y-88910800D01*
G75*
G02*
X202011000Y-88859800I0J51000D01*
G01*
G37*
D21*
X202962000Y-90499800D03*
X200422000Y-87959800D03*
X200422000Y-90499800D03*
X197882000Y-87959800D03*
X197882000Y-90499800D03*
X195342000Y-87959800D03*
X195342000Y-90499800D03*
X192802000Y-87959800D03*
X192802000Y-90499800D03*
X190262000Y-87959800D03*
X190262000Y-90499800D03*
X187722000Y-87959800D03*
X187722000Y-90499800D03*
X185182000Y-87959800D03*
X185182000Y-90499800D03*
X182642000Y-87959800D03*
X182642000Y-90499800D03*
X180102000Y-87959800D03*
X180102000Y-90499800D03*
X177562000Y-87959800D03*
X177562000Y-90499800D03*
X175022000Y-87959800D03*
X175022000Y-90499800D03*
X172482000Y-87959800D03*
X172482000Y-90499800D03*
X169942000Y-87959800D03*
X169942000Y-90499800D03*
X167402000Y-87959800D03*
X167402000Y-90499800D03*
X164862000Y-87959800D03*
X164862000Y-90499800D03*
X162322000Y-87959800D03*
X162322000Y-90499800D03*
X159782000Y-87959800D03*
X159782000Y-90499800D03*
X157242000Y-87959800D03*
X157242000Y-90499800D03*
X154702000Y-87959800D03*
X154702000Y-90499800D03*
X152162000Y-87959800D03*
X152162000Y-90499800D03*
X149622000Y-87959800D03*
X149622000Y-90499800D03*
X147082000Y-87959800D03*
X147082000Y-90499800D03*
G36*
G01*
X202011000Y-40599800D02*
X202011000Y-38799800D01*
G75*
G02*
X202062000Y-38748800I51000J0D01*
G01*
X203862000Y-38748800D01*
G75*
G02*
X203913000Y-38799800I0J-51000D01*
G01*
X203913000Y-40599800D01*
G75*
G02*
X203862000Y-40650800I-51000J0D01*
G01*
X202062000Y-40650800D01*
G75*
G02*
X202011000Y-40599800I0J51000D01*
G01*
G37*
X202962000Y-42239800D03*
X200422000Y-39699800D03*
X200422000Y-42239800D03*
X197882000Y-39699800D03*
X197882000Y-42239800D03*
X195342000Y-39699800D03*
X195342000Y-42239800D03*
X192802000Y-39699800D03*
X192802000Y-42239800D03*
X190262000Y-39699800D03*
X190262000Y-42239800D03*
X187722000Y-39699800D03*
X187722000Y-42239800D03*
X185182000Y-39699800D03*
X185182000Y-42239800D03*
X182642000Y-39699800D03*
X182642000Y-42239800D03*
X180102000Y-39699800D03*
X180102000Y-42239800D03*
X177562000Y-39699800D03*
X177562000Y-42239800D03*
X175022000Y-39699800D03*
X175022000Y-42239800D03*
X172482000Y-39699800D03*
X172482000Y-42239800D03*
X169942000Y-39699800D03*
X169942000Y-42239800D03*
X167402000Y-39699800D03*
X167402000Y-42239800D03*
X164862000Y-39699800D03*
X164862000Y-42239800D03*
X162322000Y-39699800D03*
X162322000Y-42239800D03*
X159782000Y-39699800D03*
X159782000Y-42239800D03*
X157242000Y-39699800D03*
X157242000Y-42239800D03*
X154702000Y-39699800D03*
X154702000Y-42239800D03*
X152162000Y-39699800D03*
X152162000Y-42239800D03*
X149622000Y-39699800D03*
X149622000Y-42239800D03*
X147082000Y-39699800D03*
X147082000Y-42239800D03*
D22*
X142002000Y-44144800D03*
X208042000Y-40969800D03*
X208042000Y-89229800D03*
X142002000Y-86054800D03*
D14*
X208127600Y-117118600D03*
G36*
G01*
X194642000Y-103398800D02*
X196342000Y-103398800D01*
G75*
G02*
X196393000Y-103449800I0J-51000D01*
G01*
X196393000Y-105149800D01*
G75*
G02*
X196342000Y-105200800I-51000J0D01*
G01*
X194642000Y-105200800D01*
G75*
G02*
X194591000Y-105149800I0J51000D01*
G01*
X194591000Y-103449800D01*
G75*
G02*
X194642000Y-103398800I51000J0D01*
G01*
G37*
D13*
X192952000Y-104299800D03*
X190412000Y-104299800D03*
G36*
G01*
X213567000Y-98948800D02*
X215367000Y-98948800D01*
G75*
G02*
X215418000Y-98999800I0J-51000D01*
G01*
X215418000Y-100799800D01*
G75*
G02*
X215367000Y-100850800I-51000J0D01*
G01*
X213567000Y-100850800D01*
G75*
G02*
X213516000Y-100799800I0J51000D01*
G01*
X213516000Y-98999800D01*
G75*
G02*
X213567000Y-98948800I51000J0D01*
G01*
G37*
D21*
X214467000Y-97359800D03*
X214467000Y-94819800D03*
G36*
G01*
X74042000Y-47098800D02*
X75492000Y-47098800D01*
G75*
G02*
X75793000Y-47399800I0J-301000D01*
G01*
X75793000Y-48599800D01*
G75*
G02*
X75492000Y-48900800I-301000J0D01*
G01*
X74042000Y-48900800D01*
G75*
G02*
X73741000Y-48599800I0J301000D01*
G01*
X73741000Y-47399800D01*
G75*
G02*
X74042000Y-47098800I301000J0D01*
G01*
G37*
D23*
X74767000Y-50499800D03*
X74767000Y-52999800D03*
X74767000Y-55499800D03*
D24*
X215117459Y-109205360D03*
X215117459Y-105395360D03*
G36*
G01*
X215266000Y-114949800D02*
X215266000Y-113249800D01*
G75*
G02*
X215317000Y-113198800I51000J0D01*
G01*
X217017000Y-113198800D01*
G75*
G02*
X217068000Y-113249800I0J-51000D01*
G01*
X217068000Y-114949800D01*
G75*
G02*
X217017000Y-115000800I-51000J0D01*
G01*
X215317000Y-115000800D01*
G75*
G02*
X215266000Y-114949800I0J51000D01*
G01*
G37*
D13*
X216167000Y-116639800D03*
X216167000Y-119179800D03*
G36*
G01*
X74167000Y-92848800D02*
X76767000Y-92848800D01*
G75*
G02*
X76818000Y-92899800I0J-51000D01*
G01*
X76818000Y-95499800D01*
G75*
G02*
X76767000Y-95550800I-51000J0D01*
G01*
X74167000Y-95550800D01*
G75*
G02*
X74116000Y-95499800I0J51000D01*
G01*
X74116000Y-92899800D01*
G75*
G02*
X74167000Y-92848800I51000J0D01*
G01*
G37*
D25*
X75467000Y-99199800D03*
X75467000Y-104199800D03*
X75467000Y-109199800D03*
G36*
G01*
X74367000Y-84950800D02*
X72967000Y-84950800D01*
G75*
G02*
X72916000Y-84899800I0J51000D01*
G01*
X72916000Y-83499800D01*
G75*
G02*
X72967000Y-83448800I51000J0D01*
G01*
X74367000Y-83448800D01*
G75*
G02*
X74418000Y-83499800I0J-51000D01*
G01*
X74418000Y-84899800D01*
G75*
G02*
X74367000Y-84950800I-51000J0D01*
G01*
G37*
D26*
X73667000Y-81699800D03*
X73667000Y-79199800D03*
X76967000Y-84199800D03*
X76967000Y-81699800D03*
X76967000Y-79199800D03*
G36*
G01*
X203967000Y-101818477D02*
X201967000Y-101818477D01*
G75*
G02*
X201916000Y-101767477I0J51000D01*
G01*
X201916000Y-99767477D01*
G75*
G02*
X201967000Y-99716477I51000J0D01*
G01*
X203967000Y-99716477D01*
G75*
G02*
X204018000Y-99767477I0J-51000D01*
G01*
X204018000Y-101767477D01*
G75*
G02*
X203967000Y-101818477I-51000J0D01*
G01*
G37*
D27*
X202967000Y-95767477D03*
D14*
X81427600Y-40918600D03*
M02*
