G04 #@! TF.GenerationSoftware,KiCad,Pcbnew,(6.0.6)*
G04 #@! TF.CreationDate,2022-07-22T14:40:10-04:00*
G04 #@! TF.ProjectId,BBB_16,4242425f-3136-42e6-9b69-6361645f7063,v2*
G04 #@! TF.SameCoordinates,Original*
G04 #@! TF.FileFunction,Other,ECO2*
%FSLAX46Y46*%
G04 Gerber Fmt 4.6, Leading zero omitted, Abs format (unit mm)*
G04 Created by KiCad (PCBNEW (6.0.6)) date 2022-07-22 14:40:10*
%MOMM*%
%LPD*%
G01*
G04 APERTURE LIST*
G04 #@! TA.AperFunction,Profile*
%ADD10C,0.050000*%
G04 #@! TD*
%ADD11C,0.127000*%
%ADD12C,0.300000*%
G04 APERTURE END LIST*
D10*
X218967000Y-153599800D02*
X218967000Y-76799800D01*
X70167000Y-36699800D02*
X70167000Y-153615800D01*
X218967000Y-36699800D02*
X70167000Y-36699800D01*
X218967000Y-58599800D02*
X218967000Y-36699800D01*
X202067000Y-58599800D02*
X202067000Y-76799800D01*
X202067000Y-76799800D02*
X218967000Y-76799800D01*
X218967000Y-153599800D02*
X70167000Y-153615800D01*
X218967000Y-58599800D02*
X202067000Y-58599800D01*
D11*
X71882600Y-121938600D02*
X76682600Y-121938600D01*
X76682600Y-121938600D02*
X76682600Y-136638600D01*
X76682600Y-136638600D02*
X71882600Y-136638600D01*
X71882600Y-136638600D02*
X71882600Y-121938600D01*
D12*
X74524020Y-137588600D02*
G75*
G03*
X74524020Y-137588600I-141420J0D01*
G01*
D11*
X91822600Y-151688600D02*
X91822600Y-136988600D01*
X96622600Y-136988600D02*
X96622600Y-151688600D01*
X96622600Y-151688600D02*
X91822600Y-151688600D01*
X91822600Y-136988600D02*
X96622600Y-136988600D01*
D12*
X94464020Y-152638600D02*
G75*
G03*
X94464020Y-152638600I-141420J0D01*
G01*
D11*
X132025198Y-151698600D02*
X132025198Y-136998600D01*
X132025198Y-136998600D02*
X136825198Y-136998600D01*
X136825198Y-136998600D02*
X136825198Y-151698600D01*
X136825198Y-151698600D02*
X132025198Y-151698600D01*
D12*
X134666618Y-152648600D02*
G75*
G03*
X134666618Y-152648600I-141420J0D01*
G01*
D11*
X178928229Y-137063600D02*
X183728229Y-137063600D01*
X183728229Y-151763600D02*
X178928229Y-151763600D01*
X183728229Y-137063600D02*
X183728229Y-151763600D01*
X178928229Y-151763600D02*
X178928229Y-137063600D01*
D12*
X181569649Y-152713600D02*
G75*
G03*
X181569649Y-152713600I-141420J0D01*
G01*
D11*
X98523033Y-151703600D02*
X98523033Y-137003600D01*
X103323033Y-137003600D02*
X103323033Y-151703600D01*
X98523033Y-137003600D02*
X103323033Y-137003600D01*
X103323033Y-151703600D02*
X98523033Y-151703600D01*
D12*
X101164453Y-152653600D02*
G75*
G03*
X101164453Y-152653600I-141420J0D01*
G01*
D11*
X130124765Y-136998600D02*
X130124765Y-151698600D01*
X130124765Y-151698600D02*
X125324765Y-151698600D01*
X125324765Y-151698600D02*
X125324765Y-136998600D01*
X125324765Y-136998600D02*
X130124765Y-136998600D01*
D12*
X127966185Y-152648600D02*
G75*
G03*
X127966185Y-152648600I-141420J0D01*
G01*
D11*
X138725631Y-136998600D02*
X143525631Y-136998600D01*
X143525631Y-136998600D02*
X143525631Y-151698600D01*
X143525631Y-151698600D02*
X138725631Y-151698600D01*
X138725631Y-151698600D02*
X138725631Y-136998600D01*
D12*
X141367051Y-152648600D02*
G75*
G03*
X141367051Y-152648600I-141420J0D01*
G01*
D11*
X145426064Y-136998600D02*
X150226064Y-136998600D01*
X150226064Y-151698600D02*
X145426064Y-151698600D01*
X145426064Y-151698600D02*
X145426064Y-136998600D01*
X150226064Y-136998600D02*
X150226064Y-151698600D01*
D12*
X148067484Y-152648600D02*
G75*
G03*
X148067484Y-152648600I-141420J0D01*
G01*
D11*
X152126497Y-136998600D02*
X156926497Y-136998600D01*
X156926497Y-136998600D02*
X156926497Y-151698600D01*
X156926497Y-151698600D02*
X152126497Y-151698600D01*
X152126497Y-151698600D02*
X152126497Y-136998600D01*
D12*
X154767917Y-152648600D02*
G75*
G03*
X154767917Y-152648600I-141420J0D01*
G01*
D11*
X197129100Y-151763600D02*
X192329100Y-151763600D01*
X192329100Y-151763600D02*
X192329100Y-137063600D01*
X197129100Y-137063600D02*
X197129100Y-151763600D01*
X192329100Y-137063600D02*
X197129100Y-137063600D01*
D12*
X194970520Y-152713600D02*
G75*
G03*
X194970520Y-152713600I-141420J0D01*
G01*
D11*
X123424332Y-151698600D02*
X118624332Y-151698600D01*
X118624332Y-136998600D02*
X123424332Y-136998600D01*
X118624332Y-151698600D02*
X118624332Y-136998600D01*
X123424332Y-136998600D02*
X123424332Y-151698600D01*
D12*
X121265752Y-152648600D02*
G75*
G03*
X121265752Y-152648600I-141420J0D01*
G01*
D11*
X105223466Y-137003600D02*
X110023466Y-137003600D01*
X105223466Y-151703600D02*
X105223466Y-137003600D01*
X110023466Y-137003600D02*
X110023466Y-151703600D01*
X110023466Y-151703600D02*
X105223466Y-151703600D01*
D12*
X107864886Y-152653600D02*
G75*
G03*
X107864886Y-152653600I-141420J0D01*
G01*
D11*
X177027796Y-151763600D02*
X172227796Y-151763600D01*
X172227796Y-151763600D02*
X172227796Y-137063600D01*
X172227796Y-137063600D02*
X177027796Y-137063600D01*
X177027796Y-137063600D02*
X177027796Y-151763600D01*
D12*
X174869216Y-152713600D02*
G75*
G03*
X174869216Y-152713600I-141420J0D01*
G01*
D11*
X158826930Y-151698600D02*
X158826930Y-136998600D01*
X163626930Y-151698600D02*
X158826930Y-151698600D01*
X163626930Y-136998600D02*
X163626930Y-151698600D01*
X158826930Y-136998600D02*
X163626930Y-136998600D01*
D12*
X161468350Y-152648600D02*
G75*
G03*
X161468350Y-152648600I-141420J0D01*
G01*
D11*
X111923899Y-151703600D02*
X111923899Y-137003600D01*
X111923899Y-137003600D02*
X116723899Y-137003600D01*
X116723899Y-137003600D02*
X116723899Y-151703600D01*
X116723899Y-151703600D02*
X111923899Y-151703600D01*
D12*
X114565319Y-152653600D02*
G75*
G03*
X114565319Y-152653600I-141420J0D01*
G01*
D11*
X190428662Y-151763600D02*
X185628662Y-151763600D01*
X185628662Y-137063600D02*
X190428662Y-137063600D01*
X185628662Y-151763600D02*
X185628662Y-137063600D01*
X190428662Y-137063600D02*
X190428662Y-151763600D01*
D12*
X188270082Y-152713600D02*
G75*
G03*
X188270082Y-152713600I-141420J0D01*
G01*
D11*
X170327363Y-136998600D02*
X170327363Y-151698600D01*
X170327363Y-151698600D02*
X165527363Y-151698600D01*
X165527363Y-136998600D02*
X170327363Y-136998600D01*
X165527363Y-151698600D02*
X165527363Y-136998600D01*
D12*
X168168783Y-152648600D02*
G75*
G03*
X168168783Y-152648600I-141420J0D01*
G01*
D11*
X212326000Y-121881800D02*
X217126000Y-121881800D01*
X217126000Y-136581800D02*
X212326000Y-136581800D01*
X217126000Y-121881800D02*
X217126000Y-136581800D01*
X212326000Y-136581800D02*
X212326000Y-121881800D01*
D12*
X214967420Y-137531800D02*
G75*
G03*
X214967420Y-137531800I-141420J0D01*
G01*
M02*
