M48
; DRILL file {KiCad (6.0.5)} date Thu May 19 23:49:37 2022
; FORMAT={-:-/ absolute / metric / decimal}
; #@! TF.CreationDate,2022-05-19T23:49:37-04:00
; #@! TF.GenerationSoftware,Kicad,Pcbnew,(6.0.5)
; #@! TF.FileFunction,Plated,1,2,PTH
FMAT,2
METRIC
; #@! TA.AperFunction,Plated,PTH,ViaDrill
T1C0.400
; #@! TA.AperFunction,Plated,PTH,ComponentDrill
T2C0.760
; #@! TA.AperFunction,Plated,PTH,ComponentDrill
T3C0.900
; #@! TA.AperFunction,Plated,PTH,ComponentDrill
T4C0.950
; #@! TA.AperFunction,Plated,PTH,ComponentDrill
T5C1.000
; #@! TA.AperFunction,Plated,PTH,ComponentDrill
T6C1.020
; #@! TA.AperFunction,Plated,PTH,ComponentDrill
T7C1.100
; #@! TA.AperFunction,Plated,PTH,ComponentDrill
T8C1.200
; #@! TA.AperFunction,Plated,PTH,ComponentDrill
T9C1.300
; #@! TA.AperFunction,Plated,PTH,ComponentDrill
T10C1.650
; #@! TA.AperFunction,Plated,PTH,ComponentDrill
T11C1.700
; #@! TA.AperFunction,Plated,PTH,ComponentDrill
T12C3.175
%
G90
G05
T1
X71.267Y-38.9
X71.267Y-59.1
X71.267Y-128.7
X71.267Y-130.3
X71.267Y-131.7
X71.267Y-133.2
X71.767Y-108.2
X72.167Y-76.5
X72.267Y-64.5
X72.367Y-69.7
X72.767Y-86.5
X72.767Y-103.6
X75.067Y-59.6
X76.267Y-73.3
X76.367Y-44.4
X77.167Y-128.8
X77.167Y-130.1
X77.567Y-133.1
X77.767Y-110.8
X77.867Y-107.9
X78.467Y-105.2
X78.967Y-133.1
X79.467Y-97.6
X81.367Y-54.3
X82.067Y-138.5
X82.567Y-49.3
X82.967Y-73.5
X83.267Y-77.3
X83.467Y-123.0
X83.467Y-134.5
X83.767Y-82.3
X84.367Y-97.7
X84.867Y-138.5
X85.167Y-92.5
X85.667Y-120.9
X86.094Y-89.459
X86.167Y-62.3
X86.167Y-79.9
X86.367Y-44.2
X86.667Y-49.1
X87.267Y-138.5
X90.167Y-91.7
X90.667Y-71.7
X90.667Y-75.9
X90.767Y-65.5
X91.967Y-37.7
X92.067Y-56.0
X93.548Y-81.705
X93.567Y-88.3
X93.967Y-75.8
X94.567Y-65.0
X95.067Y-110.7
X95.117Y-41.05
X95.367Y-94.3
X95.667Y-56.75
X95.717Y-49.75
X98.367Y-86.0
X98.451Y-114.418
X98.651Y-119.968
X98.651Y-37.45
X98.667Y-65.5
X98.817Y-72.6
X99.567Y-91.1
X99.717Y-49.7
X100.167Y-56.48
X100.197Y-67.03
X100.267Y-99.3
X100.467Y-107.6
X101.267Y-120.9
X101.567Y-83.3
X101.567Y-110.5
X101.627Y-65.46
X102.587Y-57.93
X103.267Y-62.1
X103.667Y-112.7
X104.467Y-55.0
X104.567Y-76.2
X104.567Y-96.3
X105.367Y-104.8
X107.767Y-82.9
X108.967Y-100.8
X111.767Y-62.25
X111.967Y-55.2
X111.967Y-58.3
X112.267Y-69.2
X112.567Y-85.1
X112.667Y-100.8
X113.367Y-121.2
X113.967Y-93.3
X114.767Y-111.1
X114.917Y-74.25
X115.067Y-72.7
X116.667Y-77.25
X116.867Y-106.1
X117.017Y-78.5
X117.067Y-99.27
X117.167Y-112.8
X117.347Y-81.45
X118.067Y-95.7
X118.567Y-101.4
X118.767Y-88.9
X118.847Y-83.41
X119.167Y-58.2
X121.457Y-71.02
X121.607Y-75.0
X121.767Y-55.5
X121.967Y-60.9
X122.167Y-66.3
X122.557Y-82.25
X123.567Y-57.0
X123.667Y-90.3
X124.807Y-80.18
X124.967Y-55.4
X125.837Y-74.25
X126.137Y-68.89
X126.567Y-55.5
X127.251Y-113.768
X128.367Y-75.2
X128.417Y-71.45
X128.567Y-77.05
X128.651Y-119.968
X128.667Y-101.3
X128.717Y-73.25
X129.967Y-112.5
X130.467Y-77.2
X130.567Y-90.0
X131.167Y-120.7
X131.767Y-96.7
X131.767Y-101.4
X131.967Y-66.5
X132.167Y-56.1
X132.967Y-87.9
X133.867Y-107.3
X134.367Y-74.0
X135.367Y-105.9
X137.767Y-109.4
X137.867Y-45.4
X137.967Y-41.6
X138.467Y-80.0
X140.167Y-63.4
X140.267Y-51.7
X142.151Y-126.168
X142.751Y-121.518
X143.151Y-113.818
X144.267Y-90.2
X144.867Y-69.5
X145.067Y-75.8
X145.067Y-105.1
X145.167Y-96.2
X145.167Y-100.8
X145.367Y-111.3
X145.567Y-58.1
X146.967Y-120.8
X150.067Y-84.3
X152.217Y-73.03
X153.167Y-65.9
X157.167Y-51.1
X157.567Y-105.2
X158.001Y-121.018
X158.167Y-73.2
X158.567Y-99.0
X158.567Y-107.8
X159.767Y-96.7
X159.967Y-101.4
X160.567Y-112.6
X161.667Y-68.2
X162.267Y-73.1
X164.267Y-80.1
X166.267Y-53.9
X166.477Y-58.7
X166.767Y-45.0
X167.307Y-52.1
X167.667Y-44.0
X168.167Y-60.89
X168.351Y-125.268
X168.467Y-77.6
X168.567Y-69.5
X170.067Y-101.4
X172.467Y-77.6
X172.567Y-101.3
X172.667Y-69.5
X172.967Y-96.7
X173.301Y-114.718
X173.867Y-100.3
X174.637Y-46.74
X175.067Y-104.7
X175.167Y-53.3
X175.167Y-67.6
X176.067Y-61.9
X176.467Y-105.9
X176.777Y-58.17
X178.067Y-80.9
X178.467Y-73.4
X178.537Y-46.95
X180.067Y-46.225
X180.987Y-50.2
X181.367Y-46.225
X181.877Y-54.68
X182.067Y-106.4
X182.467Y-96.6
X182.467Y-97.8
X182.467Y-99.0
X182.467Y-109.4
X182.667Y-50.31
X182.667Y-73.4
X182.747Y-59.57
X183.577Y-54.64
X184.017Y-50.27
X184.967Y-67.6
X185.657Y-53.8
X186.067Y-96.4
X186.067Y-97.7
X186.067Y-98.9
X186.167Y-101.6
X186.567Y-48.5
X187.062Y-57.205
X187.137Y-55.32
X187.167Y-86.1
X187.551Y-120.518
X187.567Y-59.0
X188.267Y-106.7
X188.597Y-44.99
X190.167Y-74.4
X190.267Y-113.6
X190.667Y-96.5
X191.367Y-100.6
X191.667Y-107.7
X191.867Y-85.5
X192.417Y-54.28
X192.667Y-50.0
X194.247Y-44.89
X194.867Y-48.7
X195.067Y-96.5
X195.367Y-74.2
X195.467Y-66.5
X195.567Y-60.8
X195.567Y-92.7
X195.767Y-44.7
X195.767Y-55.09
X195.807Y-80.5
X198.467Y-104.8
X200.067Y-137.3
X200.167Y-55.1
X200.567Y-66.7
X200.667Y-60.7
X200.667Y-75.5
X201.007Y-47.92
X202.067Y-82.3
X202.467Y-120.8
X202.557Y-48.194
X202.657Y-83.72
X202.667Y-111.0
X202.667Y-137.3
X203.067Y-124.0
X203.267Y-103.3
X204.167Y-57.0
X205.467Y-86.2
X205.637Y-80.73
X205.667Y-137.3
X206.567Y-82.3
X207.567Y-105.2
X208.567Y-83.3
X208.867Y-104.0
X210.167Y-105.2
X210.267Y-57.0
X210.567Y-97.9
X211.667Y-132.7
X211.667Y-134.2
X212.067Y-128.0
X212.067Y-129.6
X212.567Y-89.7
X212.567Y-93.1
X212.567Y-119.7
X213.167Y-116.4
X213.267Y-110.2
X213.317Y-80.89
X216.267Y-85.1
X216.567Y-102.2
X216.667Y-90.8
X216.667Y-93.1
X216.967Y-108.0
X217.467Y-57.0
X217.567Y-39.0
X217.667Y-129.4
X217.667Y-131.2
X217.667Y-132.9
X218.067Y-78.9
X218.067Y-122.4
X218.067Y-123.9
X218.367Y-81.4
T2
X81.959Y-87.54
X83.23Y-85.0
X84.499Y-87.54
X85.769Y-85.0
X87.039Y-87.54
X88.309Y-85.0
X89.579Y-87.54
X90.849Y-85.0
X101.759Y-87.44
X103.029Y-84.9
X104.299Y-87.44
X105.569Y-84.9
X106.84Y-87.44
X108.109Y-84.9
X109.379Y-87.44
X110.649Y-84.9
T3
X73.667Y-79.2
X73.667Y-81.7
X73.667Y-84.2
X76.967Y-79.2
X76.967Y-81.7
X76.967Y-84.2
T4
X74.767Y-48.0
X74.767Y-50.5
X74.767Y-53.0
X74.767Y-55.5
T5
X166.667Y-63.8
X169.167Y-63.8
X171.767Y-63.8
X174.267Y-63.8
X190.412Y-104.3
X192.952Y-104.3
X195.492Y-104.3
X202.967Y-95.767
X202.967Y-100.767
X205.607Y-47.5
X208.147Y-47.5
X210.687Y-47.5
X213.227Y-47.5
X214.467Y-94.82
X214.467Y-97.36
X214.467Y-99.9
X215.767Y-47.5
X216.167Y-114.1
X216.167Y-116.64
X216.167Y-119.18
T6
X98.897Y-42.63
X98.897Y-45.17
X101.437Y-42.63
X101.437Y-45.17
X103.977Y-42.63
X103.977Y-45.17
X106.517Y-42.63
X106.517Y-45.17
X109.057Y-42.63
X109.057Y-45.17
X111.597Y-42.63
X111.597Y-45.17
X114.137Y-42.63
X114.137Y-45.17
X116.677Y-42.63
X116.677Y-45.17
X119.217Y-42.63
X119.217Y-45.17
X121.757Y-42.63
X121.757Y-45.17
X124.297Y-42.63
X124.297Y-45.17
X126.837Y-42.63
X126.837Y-45.17
T7
X147.082Y-39.7
X147.082Y-42.24
X147.082Y-87.96
X147.082Y-90.5
X149.622Y-39.7
X149.622Y-42.24
X149.622Y-87.96
X149.622Y-90.5
X152.162Y-39.7
X152.162Y-42.24
X152.162Y-87.96
X152.162Y-90.5
X154.702Y-39.7
X154.702Y-42.24
X154.702Y-87.96
X154.702Y-90.5
X157.242Y-39.7
X157.242Y-42.24
X157.242Y-87.96
X157.242Y-90.5
X159.782Y-39.7
X159.782Y-42.24
X159.782Y-87.96
X159.782Y-90.5
X162.322Y-39.7
X162.322Y-42.24
X162.322Y-87.96
X162.322Y-90.5
X164.862Y-39.7
X164.862Y-42.24
X164.862Y-87.96
X164.862Y-90.5
X167.402Y-39.7
X167.402Y-42.24
X167.402Y-87.96
X167.402Y-90.5
X169.942Y-39.7
X169.942Y-42.24
X169.942Y-87.96
X169.942Y-90.5
X172.482Y-39.7
X172.482Y-42.24
X172.482Y-87.96
X172.482Y-90.5
X175.022Y-39.7
X175.022Y-42.24
X175.022Y-87.96
X175.022Y-90.5
X177.562Y-39.7
X177.562Y-42.24
X177.562Y-87.96
X177.562Y-90.5
X180.102Y-39.7
X180.102Y-42.24
X180.102Y-87.96
X180.102Y-90.5
X182.642Y-39.7
X182.642Y-42.24
X182.642Y-87.96
X182.642Y-90.5
X185.182Y-39.7
X185.182Y-42.24
X185.182Y-87.96
X185.182Y-90.5
X187.722Y-39.7
X187.722Y-42.24
X187.722Y-87.96
X187.722Y-90.5
X190.262Y-39.7
X190.262Y-42.24
X190.262Y-87.96
X190.262Y-90.5
X192.802Y-39.7
X192.802Y-42.24
X192.802Y-87.96
X192.802Y-90.5
X195.342Y-39.7
X195.342Y-42.24
X195.342Y-87.96
X195.342Y-90.5
X197.882Y-39.7
X197.882Y-42.24
X197.882Y-87.96
X197.882Y-90.5
X200.422Y-39.7
X200.422Y-42.24
X200.422Y-87.96
X200.422Y-90.5
X202.962Y-39.7
X202.962Y-42.24
X202.962Y-87.96
X202.962Y-90.5
X215.117Y-105.395
X215.117Y-109.205
T8
X89.1Y-116.6
X89.1Y-129.6
X92.6Y-116.6
X92.6Y-129.6
X96.1Y-116.6
X96.1Y-129.6
X104.1Y-116.6
X104.1Y-129.6
X107.6Y-116.6
X107.6Y-129.6
X111.1Y-116.6
X111.1Y-129.6
X119.1Y-116.6
X119.214Y-129.6
X122.6Y-116.6
X122.714Y-129.6
X126.1Y-116.6
X126.214Y-129.6
X134.1Y-116.6
X134.1Y-129.6
X137.6Y-116.6
X137.6Y-129.6
X141.1Y-116.6
X141.1Y-129.6
X149.1Y-116.6
X149.1Y-129.6
X152.6Y-116.6
X152.6Y-129.6
X156.1Y-116.6
X156.1Y-129.6
X164.1Y-116.6
X164.1Y-129.6
X167.6Y-116.6
X167.6Y-129.6
X171.1Y-116.6
X171.1Y-129.6
X179.1Y-116.6
X179.1Y-129.6
X182.6Y-116.6
X182.6Y-129.6
X186.1Y-116.6
X186.1Y-129.6
X194.1Y-116.6
X194.1Y-129.6
X197.6Y-116.6
X197.6Y-129.6
X201.1Y-116.6
X201.1Y-129.6
T9
X75.467Y-94.2
X75.467Y-99.2
X75.467Y-104.2
X75.467Y-109.2
T10
X74.283Y-123.339
X74.283Y-127.039
X74.283Y-131.539
X74.283Y-135.239
X94.223Y-138.389
X94.223Y-142.089
X94.223Y-146.589
X94.223Y-150.289
X100.923Y-138.404
X100.923Y-142.104
X100.923Y-146.604
X100.923Y-150.304
X107.623Y-138.404
X107.623Y-142.104
X107.623Y-146.604
X107.623Y-150.304
X114.324Y-138.404
X114.324Y-142.104
X114.324Y-146.604
X114.324Y-150.304
X121.024Y-138.399
X121.024Y-142.099
X121.024Y-146.599
X121.024Y-150.299
X127.725Y-138.399
X127.725Y-142.099
X127.725Y-146.599
X127.725Y-150.299
X134.425Y-138.399
X134.425Y-142.099
X134.425Y-146.599
X134.425Y-150.299
X141.126Y-138.399
X141.126Y-142.099
X141.126Y-146.599
X141.126Y-150.299
X147.826Y-138.399
X147.826Y-142.099
X147.826Y-146.599
X147.826Y-150.299
X154.526Y-138.399
X154.526Y-142.099
X154.526Y-146.599
X154.526Y-150.299
X161.227Y-138.399
X161.227Y-142.099
X161.227Y-146.599
X161.227Y-150.299
X167.927Y-138.399
X167.927Y-142.099
X167.927Y-146.599
X167.927Y-150.299
X174.628Y-138.464
X174.628Y-142.164
X174.628Y-146.664
X174.628Y-150.364
X181.328Y-138.464
X181.328Y-142.164
X181.328Y-146.664
X181.328Y-150.364
X188.029Y-138.464
X188.029Y-142.164
X188.029Y-146.664
X188.029Y-150.364
X194.729Y-138.464
X194.729Y-142.164
X194.729Y-146.664
X194.729Y-150.364
X214.726Y-123.282
X214.726Y-126.982
X214.726Y-131.482
X214.726Y-135.182
T11
X76.067Y-145.4
X85.567Y-145.4
X203.567Y-145.4
X213.067Y-145.4
T12
X142.002Y-44.145
X142.002Y-86.055
X208.042Y-40.97
X208.042Y-89.23
T0
M30
