G04 #@! TF.GenerationSoftware,KiCad,Pcbnew,(5.1.4)-1*
G04 #@! TF.CreationDate,2019-11-08T21:42:16-05:00*
G04 #@! TF.ProjectId,PB_16,50425f31-362e-46b6-9963-61645f706362,2*
G04 #@! TF.SameCoordinates,Original*
G04 #@! TF.FileFunction,Soldermask,Top*
G04 #@! TF.FilePolarity,Negative*
%FSLAX46Y46*%
G04 Gerber Fmt 4.6, Leading zero omitted, Abs format (unit mm)*
G04 Created by KiCad (PCBNEW (5.1.4)-1) date 2019-11-08 21:42:16*
%MOMM*%
%LPD*%
G04 APERTURE LIST*
%ADD10C,0.100000*%
G04 APERTURE END LIST*
D10*
G36*
X268651000Y-153801000D02*
G01*
X266849000Y-153801000D01*
X266849000Y-151999000D01*
X268651000Y-151999000D01*
X268651000Y-153801000D01*
X268651000Y-153801000D01*
G37*
G36*
X265320443Y-152005519D02*
G01*
X265386627Y-152012037D01*
X265556466Y-152063557D01*
X265712991Y-152147222D01*
X265748729Y-152176552D01*
X265850186Y-152259814D01*
X265933448Y-152361271D01*
X265962778Y-152397009D01*
X266046443Y-152553534D01*
X266097963Y-152723373D01*
X266115359Y-152900000D01*
X266097963Y-153076627D01*
X266046443Y-153246466D01*
X265962778Y-153402991D01*
X265933448Y-153438729D01*
X265850186Y-153540186D01*
X265748729Y-153623448D01*
X265712991Y-153652778D01*
X265556466Y-153736443D01*
X265386627Y-153787963D01*
X265320443Y-153794481D01*
X265254260Y-153801000D01*
X265165740Y-153801000D01*
X265099557Y-153794481D01*
X265033373Y-153787963D01*
X264863534Y-153736443D01*
X264707009Y-153652778D01*
X264671271Y-153623448D01*
X264569814Y-153540186D01*
X264486552Y-153438729D01*
X264457222Y-153402991D01*
X264373557Y-153246466D01*
X264322037Y-153076627D01*
X264304641Y-152900000D01*
X264322037Y-152723373D01*
X264373557Y-152553534D01*
X264457222Y-152397009D01*
X264486552Y-152361271D01*
X264569814Y-152259814D01*
X264671271Y-152176552D01*
X264707009Y-152147222D01*
X264863534Y-152063557D01*
X265033373Y-152012037D01*
X265099557Y-152005519D01*
X265165740Y-151999000D01*
X265254260Y-151999000D01*
X265320443Y-152005519D01*
X265320443Y-152005519D01*
G37*
G36*
X262780443Y-152005519D02*
G01*
X262846627Y-152012037D01*
X263016466Y-152063557D01*
X263172991Y-152147222D01*
X263208729Y-152176552D01*
X263310186Y-152259814D01*
X263393448Y-152361271D01*
X263422778Y-152397009D01*
X263506443Y-152553534D01*
X263557963Y-152723373D01*
X263575359Y-152900000D01*
X263557963Y-153076627D01*
X263506443Y-153246466D01*
X263422778Y-153402991D01*
X263393448Y-153438729D01*
X263310186Y-153540186D01*
X263208729Y-153623448D01*
X263172991Y-153652778D01*
X263016466Y-153736443D01*
X262846627Y-153787963D01*
X262780443Y-153794481D01*
X262714260Y-153801000D01*
X262625740Y-153801000D01*
X262559557Y-153794481D01*
X262493373Y-153787963D01*
X262323534Y-153736443D01*
X262167009Y-153652778D01*
X262131271Y-153623448D01*
X262029814Y-153540186D01*
X261946552Y-153438729D01*
X261917222Y-153402991D01*
X261833557Y-153246466D01*
X261782037Y-153076627D01*
X261764641Y-152900000D01*
X261782037Y-152723373D01*
X261833557Y-152553534D01*
X261917222Y-152397009D01*
X261946552Y-152361271D01*
X262029814Y-152259814D01*
X262131271Y-152176552D01*
X262167009Y-152147222D01*
X262323534Y-152063557D01*
X262493373Y-152012037D01*
X262559557Y-152005519D01*
X262625740Y-151999000D01*
X262714260Y-151999000D01*
X262780443Y-152005519D01*
X262780443Y-152005519D01*
G37*
G36*
X260240443Y-152005519D02*
G01*
X260306627Y-152012037D01*
X260476466Y-152063557D01*
X260632991Y-152147222D01*
X260668729Y-152176552D01*
X260770186Y-152259814D01*
X260853448Y-152361271D01*
X260882778Y-152397009D01*
X260966443Y-152553534D01*
X261017963Y-152723373D01*
X261035359Y-152900000D01*
X261017963Y-153076627D01*
X260966443Y-153246466D01*
X260882778Y-153402991D01*
X260853448Y-153438729D01*
X260770186Y-153540186D01*
X260668729Y-153623448D01*
X260632991Y-153652778D01*
X260476466Y-153736443D01*
X260306627Y-153787963D01*
X260240443Y-153794481D01*
X260174260Y-153801000D01*
X260085740Y-153801000D01*
X260019557Y-153794481D01*
X259953373Y-153787963D01*
X259783534Y-153736443D01*
X259627009Y-153652778D01*
X259591271Y-153623448D01*
X259489814Y-153540186D01*
X259406552Y-153438729D01*
X259377222Y-153402991D01*
X259293557Y-153246466D01*
X259242037Y-153076627D01*
X259224641Y-152900000D01*
X259242037Y-152723373D01*
X259293557Y-152553534D01*
X259377222Y-152397009D01*
X259406552Y-152361271D01*
X259489814Y-152259814D01*
X259591271Y-152176552D01*
X259627009Y-152147222D01*
X259783534Y-152063557D01*
X259953373Y-152012037D01*
X260019557Y-152005519D01*
X260085740Y-151999000D01*
X260174260Y-151999000D01*
X260240443Y-152005519D01*
X260240443Y-152005519D01*
G37*
G36*
X255637293Y-148229507D02*
G01*
X255710225Y-148244014D01*
X255767138Y-148267588D01*
X255847626Y-148300927D01*
X255971284Y-148383553D01*
X256076447Y-148488716D01*
X256159073Y-148612374D01*
X256215986Y-148749776D01*
X256245000Y-148895638D01*
X256245000Y-149044362D01*
X256215986Y-149190224D01*
X256159073Y-149327626D01*
X256076447Y-149451284D01*
X255971284Y-149556447D01*
X255847626Y-149639073D01*
X255767138Y-149672412D01*
X255710225Y-149695986D01*
X255637293Y-149710493D01*
X255564362Y-149725000D01*
X255415638Y-149725000D01*
X255342707Y-149710493D01*
X255269775Y-149695986D01*
X255212862Y-149672412D01*
X255132374Y-149639073D01*
X255008716Y-149556447D01*
X254903553Y-149451284D01*
X254820927Y-149327626D01*
X254764014Y-149190224D01*
X254735000Y-149044362D01*
X254735000Y-148895638D01*
X254764014Y-148749776D01*
X254820927Y-148612374D01*
X254903553Y-148488716D01*
X255008716Y-148383553D01*
X255132374Y-148300927D01*
X255212862Y-148267588D01*
X255269775Y-148244014D01*
X255342707Y-148229507D01*
X255415638Y-148215000D01*
X255564362Y-148215000D01*
X255637293Y-148229507D01*
X255637293Y-148229507D01*
G37*
G36*
X212457293Y-148229507D02*
G01*
X212530225Y-148244014D01*
X212587138Y-148267588D01*
X212667626Y-148300927D01*
X212791284Y-148383553D01*
X212896447Y-148488716D01*
X212979073Y-148612374D01*
X213035986Y-148749776D01*
X213065000Y-148895638D01*
X213065000Y-149044362D01*
X213035986Y-149190224D01*
X212979073Y-149327626D01*
X212896447Y-149451284D01*
X212791284Y-149556447D01*
X212667626Y-149639073D01*
X212587138Y-149672412D01*
X212530225Y-149695986D01*
X212457293Y-149710493D01*
X212384362Y-149725000D01*
X212235638Y-149725000D01*
X212162707Y-149710493D01*
X212089775Y-149695986D01*
X212032862Y-149672412D01*
X211952374Y-149639073D01*
X211828716Y-149556447D01*
X211723553Y-149451284D01*
X211640927Y-149327626D01*
X211584014Y-149190224D01*
X211555000Y-149044362D01*
X211555000Y-148895638D01*
X211584014Y-148749776D01*
X211640927Y-148612374D01*
X211723553Y-148488716D01*
X211828716Y-148383553D01*
X211952374Y-148300927D01*
X212032862Y-148267588D01*
X212089775Y-148244014D01*
X212162707Y-148229507D01*
X212235638Y-148215000D01*
X212384362Y-148215000D01*
X212457293Y-148229507D01*
X212457293Y-148229507D01*
G37*
G36*
X214997293Y-148229507D02*
G01*
X215070225Y-148244014D01*
X215127138Y-148267588D01*
X215207626Y-148300927D01*
X215331284Y-148383553D01*
X215436447Y-148488716D01*
X215519073Y-148612374D01*
X215575986Y-148749776D01*
X215605000Y-148895638D01*
X215605000Y-149044362D01*
X215575986Y-149190224D01*
X215519073Y-149327626D01*
X215436447Y-149451284D01*
X215331284Y-149556447D01*
X215207626Y-149639073D01*
X215127138Y-149672412D01*
X215070225Y-149695986D01*
X214997293Y-149710493D01*
X214924362Y-149725000D01*
X214775638Y-149725000D01*
X214702707Y-149710493D01*
X214629775Y-149695986D01*
X214572862Y-149672412D01*
X214492374Y-149639073D01*
X214368716Y-149556447D01*
X214263553Y-149451284D01*
X214180927Y-149327626D01*
X214124014Y-149190224D01*
X214095000Y-149044362D01*
X214095000Y-148895638D01*
X214124014Y-148749776D01*
X214180927Y-148612374D01*
X214263553Y-148488716D01*
X214368716Y-148383553D01*
X214492374Y-148300927D01*
X214572862Y-148267588D01*
X214629775Y-148244014D01*
X214702707Y-148229507D01*
X214775638Y-148215000D01*
X214924362Y-148215000D01*
X214997293Y-148229507D01*
X214997293Y-148229507D01*
G37*
G36*
X217537293Y-148229507D02*
G01*
X217610225Y-148244014D01*
X217667138Y-148267588D01*
X217747626Y-148300927D01*
X217871284Y-148383553D01*
X217976447Y-148488716D01*
X218059073Y-148612374D01*
X218115986Y-148749776D01*
X218145000Y-148895638D01*
X218145000Y-149044362D01*
X218115986Y-149190224D01*
X218059073Y-149327626D01*
X217976447Y-149451284D01*
X217871284Y-149556447D01*
X217747626Y-149639073D01*
X217667138Y-149672412D01*
X217610225Y-149695986D01*
X217537293Y-149710493D01*
X217464362Y-149725000D01*
X217315638Y-149725000D01*
X217242707Y-149710493D01*
X217169775Y-149695986D01*
X217112862Y-149672412D01*
X217032374Y-149639073D01*
X216908716Y-149556447D01*
X216803553Y-149451284D01*
X216720927Y-149327626D01*
X216664014Y-149190224D01*
X216635000Y-149044362D01*
X216635000Y-148895638D01*
X216664014Y-148749776D01*
X216720927Y-148612374D01*
X216803553Y-148488716D01*
X216908716Y-148383553D01*
X217032374Y-148300927D01*
X217112862Y-148267588D01*
X217169775Y-148244014D01*
X217242707Y-148229507D01*
X217315638Y-148215000D01*
X217464362Y-148215000D01*
X217537293Y-148229507D01*
X217537293Y-148229507D01*
G37*
G36*
X220077293Y-148229507D02*
G01*
X220150225Y-148244014D01*
X220207138Y-148267588D01*
X220287626Y-148300927D01*
X220411284Y-148383553D01*
X220516447Y-148488716D01*
X220599073Y-148612374D01*
X220655986Y-148749776D01*
X220685000Y-148895638D01*
X220685000Y-149044362D01*
X220655986Y-149190224D01*
X220599073Y-149327626D01*
X220516447Y-149451284D01*
X220411284Y-149556447D01*
X220287626Y-149639073D01*
X220207138Y-149672412D01*
X220150225Y-149695986D01*
X220077293Y-149710493D01*
X220004362Y-149725000D01*
X219855638Y-149725000D01*
X219782707Y-149710493D01*
X219709775Y-149695986D01*
X219652862Y-149672412D01*
X219572374Y-149639073D01*
X219448716Y-149556447D01*
X219343553Y-149451284D01*
X219260927Y-149327626D01*
X219204014Y-149190224D01*
X219175000Y-149044362D01*
X219175000Y-148895638D01*
X219204014Y-148749776D01*
X219260927Y-148612374D01*
X219343553Y-148488716D01*
X219448716Y-148383553D01*
X219572374Y-148300927D01*
X219652862Y-148267588D01*
X219709775Y-148244014D01*
X219782707Y-148229507D01*
X219855638Y-148215000D01*
X220004362Y-148215000D01*
X220077293Y-148229507D01*
X220077293Y-148229507D01*
G37*
G36*
X222617293Y-148229507D02*
G01*
X222690225Y-148244014D01*
X222747138Y-148267588D01*
X222827626Y-148300927D01*
X222951284Y-148383553D01*
X223056447Y-148488716D01*
X223139073Y-148612374D01*
X223195986Y-148749776D01*
X223225000Y-148895638D01*
X223225000Y-149044362D01*
X223195986Y-149190224D01*
X223139073Y-149327626D01*
X223056447Y-149451284D01*
X222951284Y-149556447D01*
X222827626Y-149639073D01*
X222747138Y-149672412D01*
X222690225Y-149695986D01*
X222617293Y-149710493D01*
X222544362Y-149725000D01*
X222395638Y-149725000D01*
X222322707Y-149710493D01*
X222249775Y-149695986D01*
X222192862Y-149672412D01*
X222112374Y-149639073D01*
X221988716Y-149556447D01*
X221883553Y-149451284D01*
X221800927Y-149327626D01*
X221744014Y-149190224D01*
X221715000Y-149044362D01*
X221715000Y-148895638D01*
X221744014Y-148749776D01*
X221800927Y-148612374D01*
X221883553Y-148488716D01*
X221988716Y-148383553D01*
X222112374Y-148300927D01*
X222192862Y-148267588D01*
X222249775Y-148244014D01*
X222322707Y-148229507D01*
X222395638Y-148215000D01*
X222544362Y-148215000D01*
X222617293Y-148229507D01*
X222617293Y-148229507D01*
G37*
G36*
X225157293Y-148229507D02*
G01*
X225230225Y-148244014D01*
X225287138Y-148267588D01*
X225367626Y-148300927D01*
X225491284Y-148383553D01*
X225596447Y-148488716D01*
X225679073Y-148612374D01*
X225735986Y-148749776D01*
X225765000Y-148895638D01*
X225765000Y-149044362D01*
X225735986Y-149190224D01*
X225679073Y-149327626D01*
X225596447Y-149451284D01*
X225491284Y-149556447D01*
X225367626Y-149639073D01*
X225287138Y-149672412D01*
X225230225Y-149695986D01*
X225157293Y-149710493D01*
X225084362Y-149725000D01*
X224935638Y-149725000D01*
X224862707Y-149710493D01*
X224789775Y-149695986D01*
X224732862Y-149672412D01*
X224652374Y-149639073D01*
X224528716Y-149556447D01*
X224423553Y-149451284D01*
X224340927Y-149327626D01*
X224284014Y-149190224D01*
X224255000Y-149044362D01*
X224255000Y-148895638D01*
X224284014Y-148749776D01*
X224340927Y-148612374D01*
X224423553Y-148488716D01*
X224528716Y-148383553D01*
X224652374Y-148300927D01*
X224732862Y-148267588D01*
X224789775Y-148244014D01*
X224862707Y-148229507D01*
X224935638Y-148215000D01*
X225084362Y-148215000D01*
X225157293Y-148229507D01*
X225157293Y-148229507D01*
G37*
G36*
X227697293Y-148229507D02*
G01*
X227770225Y-148244014D01*
X227827138Y-148267588D01*
X227907626Y-148300927D01*
X228031284Y-148383553D01*
X228136447Y-148488716D01*
X228219073Y-148612374D01*
X228275986Y-148749776D01*
X228305000Y-148895638D01*
X228305000Y-149044362D01*
X228275986Y-149190224D01*
X228219073Y-149327626D01*
X228136447Y-149451284D01*
X228031284Y-149556447D01*
X227907626Y-149639073D01*
X227827138Y-149672412D01*
X227770225Y-149695986D01*
X227697293Y-149710493D01*
X227624362Y-149725000D01*
X227475638Y-149725000D01*
X227402707Y-149710493D01*
X227329775Y-149695986D01*
X227272862Y-149672412D01*
X227192374Y-149639073D01*
X227068716Y-149556447D01*
X226963553Y-149451284D01*
X226880927Y-149327626D01*
X226824014Y-149190224D01*
X226795000Y-149044362D01*
X226795000Y-148895638D01*
X226824014Y-148749776D01*
X226880927Y-148612374D01*
X226963553Y-148488716D01*
X227068716Y-148383553D01*
X227192374Y-148300927D01*
X227272862Y-148267588D01*
X227329775Y-148244014D01*
X227402707Y-148229507D01*
X227475638Y-148215000D01*
X227624362Y-148215000D01*
X227697293Y-148229507D01*
X227697293Y-148229507D01*
G37*
G36*
X230237293Y-148229507D02*
G01*
X230310225Y-148244014D01*
X230367138Y-148267588D01*
X230447626Y-148300927D01*
X230571284Y-148383553D01*
X230676447Y-148488716D01*
X230759073Y-148612374D01*
X230815986Y-148749776D01*
X230845000Y-148895638D01*
X230845000Y-149044362D01*
X230815986Y-149190224D01*
X230759073Y-149327626D01*
X230676447Y-149451284D01*
X230571284Y-149556447D01*
X230447626Y-149639073D01*
X230367138Y-149672412D01*
X230310225Y-149695986D01*
X230237293Y-149710493D01*
X230164362Y-149725000D01*
X230015638Y-149725000D01*
X229942707Y-149710493D01*
X229869775Y-149695986D01*
X229812862Y-149672412D01*
X229732374Y-149639073D01*
X229608716Y-149556447D01*
X229503553Y-149451284D01*
X229420927Y-149327626D01*
X229364014Y-149190224D01*
X229335000Y-149044362D01*
X229335000Y-148895638D01*
X229364014Y-148749776D01*
X229420927Y-148612374D01*
X229503553Y-148488716D01*
X229608716Y-148383553D01*
X229732374Y-148300927D01*
X229812862Y-148267588D01*
X229869775Y-148244014D01*
X229942707Y-148229507D01*
X230015638Y-148215000D01*
X230164362Y-148215000D01*
X230237293Y-148229507D01*
X230237293Y-148229507D01*
G37*
G36*
X235317293Y-148229507D02*
G01*
X235390225Y-148244014D01*
X235447138Y-148267588D01*
X235527626Y-148300927D01*
X235651284Y-148383553D01*
X235756447Y-148488716D01*
X235839073Y-148612374D01*
X235895986Y-148749776D01*
X235925000Y-148895638D01*
X235925000Y-149044362D01*
X235895986Y-149190224D01*
X235839073Y-149327626D01*
X235756447Y-149451284D01*
X235651284Y-149556447D01*
X235527626Y-149639073D01*
X235447138Y-149672412D01*
X235390225Y-149695986D01*
X235317293Y-149710493D01*
X235244362Y-149725000D01*
X235095638Y-149725000D01*
X235022707Y-149710493D01*
X234949775Y-149695986D01*
X234892862Y-149672412D01*
X234812374Y-149639073D01*
X234688716Y-149556447D01*
X234583553Y-149451284D01*
X234500927Y-149327626D01*
X234444014Y-149190224D01*
X234415000Y-149044362D01*
X234415000Y-148895638D01*
X234444014Y-148749776D01*
X234500927Y-148612374D01*
X234583553Y-148488716D01*
X234688716Y-148383553D01*
X234812374Y-148300927D01*
X234892862Y-148267588D01*
X234949775Y-148244014D01*
X235022707Y-148229507D01*
X235095638Y-148215000D01*
X235244362Y-148215000D01*
X235317293Y-148229507D01*
X235317293Y-148229507D01*
G37*
G36*
X237857293Y-148229507D02*
G01*
X237930225Y-148244014D01*
X237987138Y-148267588D01*
X238067626Y-148300927D01*
X238191284Y-148383553D01*
X238296447Y-148488716D01*
X238379073Y-148612374D01*
X238435986Y-148749776D01*
X238465000Y-148895638D01*
X238465000Y-149044362D01*
X238435986Y-149190224D01*
X238379073Y-149327626D01*
X238296447Y-149451284D01*
X238191284Y-149556447D01*
X238067626Y-149639073D01*
X237987138Y-149672412D01*
X237930225Y-149695986D01*
X237857293Y-149710493D01*
X237784362Y-149725000D01*
X237635638Y-149725000D01*
X237562707Y-149710493D01*
X237489775Y-149695986D01*
X237432862Y-149672412D01*
X237352374Y-149639073D01*
X237228716Y-149556447D01*
X237123553Y-149451284D01*
X237040927Y-149327626D01*
X236984014Y-149190224D01*
X236955000Y-149044362D01*
X236955000Y-148895638D01*
X236984014Y-148749776D01*
X237040927Y-148612374D01*
X237123553Y-148488716D01*
X237228716Y-148383553D01*
X237352374Y-148300927D01*
X237432862Y-148267588D01*
X237489775Y-148244014D01*
X237562707Y-148229507D01*
X237635638Y-148215000D01*
X237784362Y-148215000D01*
X237857293Y-148229507D01*
X237857293Y-148229507D01*
G37*
G36*
X240397293Y-148229507D02*
G01*
X240470225Y-148244014D01*
X240527138Y-148267588D01*
X240607626Y-148300927D01*
X240731284Y-148383553D01*
X240836447Y-148488716D01*
X240919073Y-148612374D01*
X240975986Y-148749776D01*
X241005000Y-148895638D01*
X241005000Y-149044362D01*
X240975986Y-149190224D01*
X240919073Y-149327626D01*
X240836447Y-149451284D01*
X240731284Y-149556447D01*
X240607626Y-149639073D01*
X240527138Y-149672412D01*
X240470225Y-149695986D01*
X240397293Y-149710493D01*
X240324362Y-149725000D01*
X240175638Y-149725000D01*
X240102707Y-149710493D01*
X240029775Y-149695986D01*
X239972862Y-149672412D01*
X239892374Y-149639073D01*
X239768716Y-149556447D01*
X239663553Y-149451284D01*
X239580927Y-149327626D01*
X239524014Y-149190224D01*
X239495000Y-149044362D01*
X239495000Y-148895638D01*
X239524014Y-148749776D01*
X239580927Y-148612374D01*
X239663553Y-148488716D01*
X239768716Y-148383553D01*
X239892374Y-148300927D01*
X239972862Y-148267588D01*
X240029775Y-148244014D01*
X240102707Y-148229507D01*
X240175638Y-148215000D01*
X240324362Y-148215000D01*
X240397293Y-148229507D01*
X240397293Y-148229507D01*
G37*
G36*
X242937293Y-148229507D02*
G01*
X243010225Y-148244014D01*
X243067138Y-148267588D01*
X243147626Y-148300927D01*
X243271284Y-148383553D01*
X243376447Y-148488716D01*
X243459073Y-148612374D01*
X243515986Y-148749776D01*
X243545000Y-148895638D01*
X243545000Y-149044362D01*
X243515986Y-149190224D01*
X243459073Y-149327626D01*
X243376447Y-149451284D01*
X243271284Y-149556447D01*
X243147626Y-149639073D01*
X243067138Y-149672412D01*
X243010225Y-149695986D01*
X242937293Y-149710493D01*
X242864362Y-149725000D01*
X242715638Y-149725000D01*
X242642707Y-149710493D01*
X242569775Y-149695986D01*
X242512862Y-149672412D01*
X242432374Y-149639073D01*
X242308716Y-149556447D01*
X242203553Y-149451284D01*
X242120927Y-149327626D01*
X242064014Y-149190224D01*
X242035000Y-149044362D01*
X242035000Y-148895638D01*
X242064014Y-148749776D01*
X242120927Y-148612374D01*
X242203553Y-148488716D01*
X242308716Y-148383553D01*
X242432374Y-148300927D01*
X242512862Y-148267588D01*
X242569775Y-148244014D01*
X242642707Y-148229507D01*
X242715638Y-148215000D01*
X242864362Y-148215000D01*
X242937293Y-148229507D01*
X242937293Y-148229507D01*
G37*
G36*
X245477293Y-148229507D02*
G01*
X245550225Y-148244014D01*
X245607138Y-148267588D01*
X245687626Y-148300927D01*
X245811284Y-148383553D01*
X245916447Y-148488716D01*
X245999073Y-148612374D01*
X246055986Y-148749776D01*
X246085000Y-148895638D01*
X246085000Y-149044362D01*
X246055986Y-149190224D01*
X245999073Y-149327626D01*
X245916447Y-149451284D01*
X245811284Y-149556447D01*
X245687626Y-149639073D01*
X245607138Y-149672412D01*
X245550225Y-149695986D01*
X245477293Y-149710493D01*
X245404362Y-149725000D01*
X245255638Y-149725000D01*
X245182707Y-149710493D01*
X245109775Y-149695986D01*
X245052862Y-149672412D01*
X244972374Y-149639073D01*
X244848716Y-149556447D01*
X244743553Y-149451284D01*
X244660927Y-149327626D01*
X244604014Y-149190224D01*
X244575000Y-149044362D01*
X244575000Y-148895638D01*
X244604014Y-148749776D01*
X244660927Y-148612374D01*
X244743553Y-148488716D01*
X244848716Y-148383553D01*
X244972374Y-148300927D01*
X245052862Y-148267588D01*
X245109775Y-148244014D01*
X245182707Y-148229507D01*
X245255638Y-148215000D01*
X245404362Y-148215000D01*
X245477293Y-148229507D01*
X245477293Y-148229507D01*
G37*
G36*
X250557293Y-148229507D02*
G01*
X250630225Y-148244014D01*
X250687138Y-148267588D01*
X250767626Y-148300927D01*
X250891284Y-148383553D01*
X250996447Y-148488716D01*
X251079073Y-148612374D01*
X251135986Y-148749776D01*
X251165000Y-148895638D01*
X251165000Y-149044362D01*
X251135986Y-149190224D01*
X251079073Y-149327626D01*
X250996447Y-149451284D01*
X250891284Y-149556447D01*
X250767626Y-149639073D01*
X250687138Y-149672412D01*
X250630225Y-149695986D01*
X250557293Y-149710493D01*
X250484362Y-149725000D01*
X250335638Y-149725000D01*
X250262707Y-149710493D01*
X250189775Y-149695986D01*
X250132862Y-149672412D01*
X250052374Y-149639073D01*
X249928716Y-149556447D01*
X249823553Y-149451284D01*
X249740927Y-149327626D01*
X249684014Y-149190224D01*
X249655000Y-149044362D01*
X249655000Y-148895638D01*
X249684014Y-148749776D01*
X249740927Y-148612374D01*
X249823553Y-148488716D01*
X249928716Y-148383553D01*
X250052374Y-148300927D01*
X250132862Y-148267588D01*
X250189775Y-148244014D01*
X250262707Y-148229507D01*
X250335638Y-148215000D01*
X250484362Y-148215000D01*
X250557293Y-148229507D01*
X250557293Y-148229507D01*
G37*
G36*
X253097293Y-148229507D02*
G01*
X253170225Y-148244014D01*
X253227138Y-148267588D01*
X253307626Y-148300927D01*
X253431284Y-148383553D01*
X253536447Y-148488716D01*
X253619073Y-148612374D01*
X253675986Y-148749776D01*
X253705000Y-148895638D01*
X253705000Y-149044362D01*
X253675986Y-149190224D01*
X253619073Y-149327626D01*
X253536447Y-149451284D01*
X253431284Y-149556447D01*
X253307626Y-149639073D01*
X253227138Y-149672412D01*
X253170225Y-149695986D01*
X253097293Y-149710493D01*
X253024362Y-149725000D01*
X252875638Y-149725000D01*
X252802707Y-149710493D01*
X252729775Y-149695986D01*
X252672862Y-149672412D01*
X252592374Y-149639073D01*
X252468716Y-149556447D01*
X252363553Y-149451284D01*
X252280927Y-149327626D01*
X252224014Y-149190224D01*
X252195000Y-149044362D01*
X252195000Y-148895638D01*
X252224014Y-148749776D01*
X252280927Y-148612374D01*
X252363553Y-148488716D01*
X252468716Y-148383553D01*
X252592374Y-148300927D01*
X252672862Y-148267588D01*
X252729775Y-148244014D01*
X252802707Y-148229507D01*
X252875638Y-148215000D01*
X253024362Y-148215000D01*
X253097293Y-148229507D01*
X253097293Y-148229507D01*
G37*
G36*
X248017293Y-148229507D02*
G01*
X248090225Y-148244014D01*
X248147138Y-148267588D01*
X248227626Y-148300927D01*
X248351284Y-148383553D01*
X248456447Y-148488716D01*
X248539073Y-148612374D01*
X248595986Y-148749776D01*
X248625000Y-148895638D01*
X248625000Y-149044362D01*
X248595986Y-149190224D01*
X248539073Y-149327626D01*
X248456447Y-149451284D01*
X248351284Y-149556447D01*
X248227626Y-149639073D01*
X248147138Y-149672412D01*
X248090225Y-149695986D01*
X248017293Y-149710493D01*
X247944362Y-149725000D01*
X247795638Y-149725000D01*
X247722707Y-149710493D01*
X247649775Y-149695986D01*
X247592862Y-149672412D01*
X247512374Y-149639073D01*
X247388716Y-149556447D01*
X247283553Y-149451284D01*
X247200927Y-149327626D01*
X247144014Y-149190224D01*
X247115000Y-149044362D01*
X247115000Y-148895638D01*
X247144014Y-148749776D01*
X247200927Y-148612374D01*
X247283553Y-148488716D01*
X247388716Y-148383553D01*
X247512374Y-148300927D01*
X247592862Y-148267588D01*
X247649775Y-148244014D01*
X247722707Y-148229507D01*
X247795638Y-148215000D01*
X247944362Y-148215000D01*
X248017293Y-148229507D01*
X248017293Y-148229507D01*
G37*
G36*
X232777293Y-148229507D02*
G01*
X232850225Y-148244014D01*
X232907138Y-148267588D01*
X232987626Y-148300927D01*
X233111284Y-148383553D01*
X233216447Y-148488716D01*
X233299073Y-148612374D01*
X233355986Y-148749776D01*
X233385000Y-148895638D01*
X233385000Y-149044362D01*
X233355986Y-149190224D01*
X233299073Y-149327626D01*
X233216447Y-149451284D01*
X233111284Y-149556447D01*
X232987626Y-149639073D01*
X232907138Y-149672412D01*
X232850225Y-149695986D01*
X232777293Y-149710493D01*
X232704362Y-149725000D01*
X232555638Y-149725000D01*
X232482707Y-149710493D01*
X232409775Y-149695986D01*
X232352862Y-149672412D01*
X232272374Y-149639073D01*
X232148716Y-149556447D01*
X232043553Y-149451284D01*
X231960927Y-149327626D01*
X231904014Y-149190224D01*
X231875000Y-149044362D01*
X231875000Y-148895638D01*
X231904014Y-148749776D01*
X231960927Y-148612374D01*
X232043553Y-148488716D01*
X232148716Y-148383553D01*
X232272374Y-148300927D01*
X232352862Y-148267588D01*
X232409775Y-148244014D01*
X232482707Y-148229507D01*
X232555638Y-148215000D01*
X232704362Y-148215000D01*
X232777293Y-148229507D01*
X232777293Y-148229507D01*
G37*
G36*
X266343022Y-146591104D02*
G01*
X266525556Y-146666712D01*
X266525558Y-146666713D01*
X266689834Y-146776479D01*
X266829540Y-146916185D01*
X266939307Y-147080463D01*
X267014915Y-147262997D01*
X267053459Y-147456772D01*
X267053459Y-147654348D01*
X267014915Y-147848123D01*
X266939307Y-148030657D01*
X266939306Y-148030659D01*
X266829540Y-148194935D01*
X266689834Y-148334641D01*
X266525558Y-148444407D01*
X266525557Y-148444408D01*
X266525556Y-148444408D01*
X266343022Y-148520016D01*
X266149247Y-148558560D01*
X265951671Y-148558560D01*
X265757896Y-148520016D01*
X265575362Y-148444408D01*
X265575361Y-148444408D01*
X265575360Y-148444407D01*
X265411084Y-148334641D01*
X265271378Y-148194935D01*
X265161612Y-148030659D01*
X265161611Y-148030657D01*
X265086003Y-147848123D01*
X265047459Y-147654348D01*
X265047459Y-147456772D01*
X265086003Y-147262997D01*
X265161611Y-147080463D01*
X265271378Y-146916185D01*
X265411084Y-146776479D01*
X265575360Y-146666713D01*
X265575362Y-146666712D01*
X265757896Y-146591104D01*
X265951671Y-146552560D01*
X266149247Y-146552560D01*
X266343022Y-146591104D01*
X266343022Y-146591104D01*
G37*
G36*
X248017293Y-145689507D02*
G01*
X248090225Y-145704014D01*
X248147138Y-145727588D01*
X248227626Y-145760927D01*
X248351284Y-145843553D01*
X248456447Y-145948716D01*
X248539073Y-146072374D01*
X248595986Y-146209776D01*
X248625000Y-146355638D01*
X248625000Y-146504362D01*
X248595986Y-146650224D01*
X248539073Y-146787626D01*
X248456447Y-146911284D01*
X248351284Y-147016447D01*
X248227626Y-147099073D01*
X248147138Y-147132412D01*
X248090225Y-147155986D01*
X248017293Y-147170493D01*
X247944362Y-147185000D01*
X247795638Y-147185000D01*
X247722707Y-147170493D01*
X247649775Y-147155986D01*
X247592862Y-147132412D01*
X247512374Y-147099073D01*
X247388716Y-147016447D01*
X247283553Y-146911284D01*
X247200927Y-146787626D01*
X247144014Y-146650224D01*
X247115000Y-146504362D01*
X247115000Y-146355638D01*
X247144014Y-146209776D01*
X247200927Y-146072374D01*
X247283553Y-145948716D01*
X247388716Y-145843553D01*
X247512374Y-145760927D01*
X247592862Y-145727588D01*
X247649775Y-145704014D01*
X247722707Y-145689507D01*
X247795638Y-145675000D01*
X247944362Y-145675000D01*
X248017293Y-145689507D01*
X248017293Y-145689507D01*
G37*
G36*
X250557293Y-145689507D02*
G01*
X250630225Y-145704014D01*
X250687138Y-145727588D01*
X250767626Y-145760927D01*
X250891284Y-145843553D01*
X250996447Y-145948716D01*
X251079073Y-146072374D01*
X251135986Y-146209776D01*
X251165000Y-146355638D01*
X251165000Y-146504362D01*
X251135986Y-146650224D01*
X251079073Y-146787626D01*
X250996447Y-146911284D01*
X250891284Y-147016447D01*
X250767626Y-147099073D01*
X250687138Y-147132412D01*
X250630225Y-147155986D01*
X250557293Y-147170493D01*
X250484362Y-147185000D01*
X250335638Y-147185000D01*
X250262707Y-147170493D01*
X250189775Y-147155986D01*
X250132862Y-147132412D01*
X250052374Y-147099073D01*
X249928716Y-147016447D01*
X249823553Y-146911284D01*
X249740927Y-146787626D01*
X249684014Y-146650224D01*
X249655000Y-146504362D01*
X249655000Y-146355638D01*
X249684014Y-146209776D01*
X249740927Y-146072374D01*
X249823553Y-145948716D01*
X249928716Y-145843553D01*
X250052374Y-145760927D01*
X250132862Y-145727588D01*
X250189775Y-145704014D01*
X250262707Y-145689507D01*
X250335638Y-145675000D01*
X250484362Y-145675000D01*
X250557293Y-145689507D01*
X250557293Y-145689507D01*
G37*
G36*
X245477293Y-145689507D02*
G01*
X245550225Y-145704014D01*
X245607138Y-145727588D01*
X245687626Y-145760927D01*
X245811284Y-145843553D01*
X245916447Y-145948716D01*
X245999073Y-146072374D01*
X246055986Y-146209776D01*
X246085000Y-146355638D01*
X246085000Y-146504362D01*
X246055986Y-146650224D01*
X245999073Y-146787626D01*
X245916447Y-146911284D01*
X245811284Y-147016447D01*
X245687626Y-147099073D01*
X245607138Y-147132412D01*
X245550225Y-147155986D01*
X245477293Y-147170493D01*
X245404362Y-147185000D01*
X245255638Y-147185000D01*
X245182707Y-147170493D01*
X245109775Y-147155986D01*
X245052862Y-147132412D01*
X244972374Y-147099073D01*
X244848716Y-147016447D01*
X244743553Y-146911284D01*
X244660927Y-146787626D01*
X244604014Y-146650224D01*
X244575000Y-146504362D01*
X244575000Y-146355638D01*
X244604014Y-146209776D01*
X244660927Y-146072374D01*
X244743553Y-145948716D01*
X244848716Y-145843553D01*
X244972374Y-145760927D01*
X245052862Y-145727588D01*
X245109775Y-145704014D01*
X245182707Y-145689507D01*
X245255638Y-145675000D01*
X245404362Y-145675000D01*
X245477293Y-145689507D01*
X245477293Y-145689507D01*
G37*
G36*
X253097293Y-145689507D02*
G01*
X253170225Y-145704014D01*
X253227138Y-145727588D01*
X253307626Y-145760927D01*
X253431284Y-145843553D01*
X253536447Y-145948716D01*
X253619073Y-146072374D01*
X253675986Y-146209776D01*
X253705000Y-146355638D01*
X253705000Y-146504362D01*
X253675986Y-146650224D01*
X253619073Y-146787626D01*
X253536447Y-146911284D01*
X253431284Y-147016447D01*
X253307626Y-147099073D01*
X253227138Y-147132412D01*
X253170225Y-147155986D01*
X253097293Y-147170493D01*
X253024362Y-147185000D01*
X252875638Y-147185000D01*
X252802707Y-147170493D01*
X252729775Y-147155986D01*
X252672862Y-147132412D01*
X252592374Y-147099073D01*
X252468716Y-147016447D01*
X252363553Y-146911284D01*
X252280927Y-146787626D01*
X252224014Y-146650224D01*
X252195000Y-146504362D01*
X252195000Y-146355638D01*
X252224014Y-146209776D01*
X252280927Y-146072374D01*
X252363553Y-145948716D01*
X252468716Y-145843553D01*
X252592374Y-145760927D01*
X252672862Y-145727588D01*
X252729775Y-145704014D01*
X252802707Y-145689507D01*
X252875638Y-145675000D01*
X253024362Y-145675000D01*
X253097293Y-145689507D01*
X253097293Y-145689507D01*
G37*
G36*
X227697293Y-145689507D02*
G01*
X227770225Y-145704014D01*
X227827138Y-145727588D01*
X227907626Y-145760927D01*
X228031284Y-145843553D01*
X228136447Y-145948716D01*
X228219073Y-146072374D01*
X228275986Y-146209776D01*
X228305000Y-146355638D01*
X228305000Y-146504362D01*
X228275986Y-146650224D01*
X228219073Y-146787626D01*
X228136447Y-146911284D01*
X228031284Y-147016447D01*
X227907626Y-147099073D01*
X227827138Y-147132412D01*
X227770225Y-147155986D01*
X227697293Y-147170493D01*
X227624362Y-147185000D01*
X227475638Y-147185000D01*
X227402707Y-147170493D01*
X227329775Y-147155986D01*
X227272862Y-147132412D01*
X227192374Y-147099073D01*
X227068716Y-147016447D01*
X226963553Y-146911284D01*
X226880927Y-146787626D01*
X226824014Y-146650224D01*
X226795000Y-146504362D01*
X226795000Y-146355638D01*
X226824014Y-146209776D01*
X226880927Y-146072374D01*
X226963553Y-145948716D01*
X227068716Y-145843553D01*
X227192374Y-145760927D01*
X227272862Y-145727588D01*
X227329775Y-145704014D01*
X227402707Y-145689507D01*
X227475638Y-145675000D01*
X227624362Y-145675000D01*
X227697293Y-145689507D01*
X227697293Y-145689507D01*
G37*
G36*
X242937293Y-145689507D02*
G01*
X243010225Y-145704014D01*
X243067138Y-145727588D01*
X243147626Y-145760927D01*
X243271284Y-145843553D01*
X243376447Y-145948716D01*
X243459073Y-146072374D01*
X243515986Y-146209776D01*
X243545000Y-146355638D01*
X243545000Y-146504362D01*
X243515986Y-146650224D01*
X243459073Y-146787626D01*
X243376447Y-146911284D01*
X243271284Y-147016447D01*
X243147626Y-147099073D01*
X243067138Y-147132412D01*
X243010225Y-147155986D01*
X242937293Y-147170493D01*
X242864362Y-147185000D01*
X242715638Y-147185000D01*
X242642707Y-147170493D01*
X242569775Y-147155986D01*
X242512862Y-147132412D01*
X242432374Y-147099073D01*
X242308716Y-147016447D01*
X242203553Y-146911284D01*
X242120927Y-146787626D01*
X242064014Y-146650224D01*
X242035000Y-146504362D01*
X242035000Y-146355638D01*
X242064014Y-146209776D01*
X242120927Y-146072374D01*
X242203553Y-145948716D01*
X242308716Y-145843553D01*
X242432374Y-145760927D01*
X242512862Y-145727588D01*
X242569775Y-145704014D01*
X242642707Y-145689507D01*
X242715638Y-145675000D01*
X242864362Y-145675000D01*
X242937293Y-145689507D01*
X242937293Y-145689507D01*
G37*
G36*
X256245000Y-147185000D02*
G01*
X254735000Y-147185000D01*
X254735000Y-145675000D01*
X256245000Y-145675000D01*
X256245000Y-147185000D01*
X256245000Y-147185000D01*
G37*
G36*
X240397293Y-145689507D02*
G01*
X240470225Y-145704014D01*
X240527138Y-145727588D01*
X240607626Y-145760927D01*
X240731284Y-145843553D01*
X240836447Y-145948716D01*
X240919073Y-146072374D01*
X240975986Y-146209776D01*
X241005000Y-146355638D01*
X241005000Y-146504362D01*
X240975986Y-146650224D01*
X240919073Y-146787626D01*
X240836447Y-146911284D01*
X240731284Y-147016447D01*
X240607626Y-147099073D01*
X240527138Y-147132412D01*
X240470225Y-147155986D01*
X240397293Y-147170493D01*
X240324362Y-147185000D01*
X240175638Y-147185000D01*
X240102707Y-147170493D01*
X240029775Y-147155986D01*
X239972862Y-147132412D01*
X239892374Y-147099073D01*
X239768716Y-147016447D01*
X239663553Y-146911284D01*
X239580927Y-146787626D01*
X239524014Y-146650224D01*
X239495000Y-146504362D01*
X239495000Y-146355638D01*
X239524014Y-146209776D01*
X239580927Y-146072374D01*
X239663553Y-145948716D01*
X239768716Y-145843553D01*
X239892374Y-145760927D01*
X239972862Y-145727588D01*
X240029775Y-145704014D01*
X240102707Y-145689507D01*
X240175638Y-145675000D01*
X240324362Y-145675000D01*
X240397293Y-145689507D01*
X240397293Y-145689507D01*
G37*
G36*
X235317293Y-145689507D02*
G01*
X235390225Y-145704014D01*
X235447138Y-145727588D01*
X235527626Y-145760927D01*
X235651284Y-145843553D01*
X235756447Y-145948716D01*
X235839073Y-146072374D01*
X235895986Y-146209776D01*
X235925000Y-146355638D01*
X235925000Y-146504362D01*
X235895986Y-146650224D01*
X235839073Y-146787626D01*
X235756447Y-146911284D01*
X235651284Y-147016447D01*
X235527626Y-147099073D01*
X235447138Y-147132412D01*
X235390225Y-147155986D01*
X235317293Y-147170493D01*
X235244362Y-147185000D01*
X235095638Y-147185000D01*
X235022707Y-147170493D01*
X234949775Y-147155986D01*
X234892862Y-147132412D01*
X234812374Y-147099073D01*
X234688716Y-147016447D01*
X234583553Y-146911284D01*
X234500927Y-146787626D01*
X234444014Y-146650224D01*
X234415000Y-146504362D01*
X234415000Y-146355638D01*
X234444014Y-146209776D01*
X234500927Y-146072374D01*
X234583553Y-145948716D01*
X234688716Y-145843553D01*
X234812374Y-145760927D01*
X234892862Y-145727588D01*
X234949775Y-145704014D01*
X235022707Y-145689507D01*
X235095638Y-145675000D01*
X235244362Y-145675000D01*
X235317293Y-145689507D01*
X235317293Y-145689507D01*
G37*
G36*
X214997293Y-145689507D02*
G01*
X215070225Y-145704014D01*
X215127138Y-145727588D01*
X215207626Y-145760927D01*
X215331284Y-145843553D01*
X215436447Y-145948716D01*
X215519073Y-146072374D01*
X215575986Y-146209776D01*
X215605000Y-146355638D01*
X215605000Y-146504362D01*
X215575986Y-146650224D01*
X215519073Y-146787626D01*
X215436447Y-146911284D01*
X215331284Y-147016447D01*
X215207626Y-147099073D01*
X215127138Y-147132412D01*
X215070225Y-147155986D01*
X214997293Y-147170493D01*
X214924362Y-147185000D01*
X214775638Y-147185000D01*
X214702707Y-147170493D01*
X214629775Y-147155986D01*
X214572862Y-147132412D01*
X214492374Y-147099073D01*
X214368716Y-147016447D01*
X214263553Y-146911284D01*
X214180927Y-146787626D01*
X214124014Y-146650224D01*
X214095000Y-146504362D01*
X214095000Y-146355638D01*
X214124014Y-146209776D01*
X214180927Y-146072374D01*
X214263553Y-145948716D01*
X214368716Y-145843553D01*
X214492374Y-145760927D01*
X214572862Y-145727588D01*
X214629775Y-145704014D01*
X214702707Y-145689507D01*
X214775638Y-145675000D01*
X214924362Y-145675000D01*
X214997293Y-145689507D01*
X214997293Y-145689507D01*
G37*
G36*
X232777293Y-145689507D02*
G01*
X232850225Y-145704014D01*
X232907138Y-145727588D01*
X232987626Y-145760927D01*
X233111284Y-145843553D01*
X233216447Y-145948716D01*
X233299073Y-146072374D01*
X233355986Y-146209776D01*
X233385000Y-146355638D01*
X233385000Y-146504362D01*
X233355986Y-146650224D01*
X233299073Y-146787626D01*
X233216447Y-146911284D01*
X233111284Y-147016447D01*
X232987626Y-147099073D01*
X232907138Y-147132412D01*
X232850225Y-147155986D01*
X232777293Y-147170493D01*
X232704362Y-147185000D01*
X232555638Y-147185000D01*
X232482707Y-147170493D01*
X232409775Y-147155986D01*
X232352862Y-147132412D01*
X232272374Y-147099073D01*
X232148716Y-147016447D01*
X232043553Y-146911284D01*
X231960927Y-146787626D01*
X231904014Y-146650224D01*
X231875000Y-146504362D01*
X231875000Y-146355638D01*
X231904014Y-146209776D01*
X231960927Y-146072374D01*
X232043553Y-145948716D01*
X232148716Y-145843553D01*
X232272374Y-145760927D01*
X232352862Y-145727588D01*
X232409775Y-145704014D01*
X232482707Y-145689507D01*
X232555638Y-145675000D01*
X232704362Y-145675000D01*
X232777293Y-145689507D01*
X232777293Y-145689507D01*
G37*
G36*
X217537293Y-145689507D02*
G01*
X217610225Y-145704014D01*
X217667138Y-145727588D01*
X217747626Y-145760927D01*
X217871284Y-145843553D01*
X217976447Y-145948716D01*
X218059073Y-146072374D01*
X218115986Y-146209776D01*
X218145000Y-146355638D01*
X218145000Y-146504362D01*
X218115986Y-146650224D01*
X218059073Y-146787626D01*
X217976447Y-146911284D01*
X217871284Y-147016447D01*
X217747626Y-147099073D01*
X217667138Y-147132412D01*
X217610225Y-147155986D01*
X217537293Y-147170493D01*
X217464362Y-147185000D01*
X217315638Y-147185000D01*
X217242707Y-147170493D01*
X217169775Y-147155986D01*
X217112862Y-147132412D01*
X217032374Y-147099073D01*
X216908716Y-147016447D01*
X216803553Y-146911284D01*
X216720927Y-146787626D01*
X216664014Y-146650224D01*
X216635000Y-146504362D01*
X216635000Y-146355638D01*
X216664014Y-146209776D01*
X216720927Y-146072374D01*
X216803553Y-145948716D01*
X216908716Y-145843553D01*
X217032374Y-145760927D01*
X217112862Y-145727588D01*
X217169775Y-145704014D01*
X217242707Y-145689507D01*
X217315638Y-145675000D01*
X217464362Y-145675000D01*
X217537293Y-145689507D01*
X217537293Y-145689507D01*
G37*
G36*
X230237293Y-145689507D02*
G01*
X230310225Y-145704014D01*
X230367138Y-145727588D01*
X230447626Y-145760927D01*
X230571284Y-145843553D01*
X230676447Y-145948716D01*
X230759073Y-146072374D01*
X230815986Y-146209776D01*
X230845000Y-146355638D01*
X230845000Y-146504362D01*
X230815986Y-146650224D01*
X230759073Y-146787626D01*
X230676447Y-146911284D01*
X230571284Y-147016447D01*
X230447626Y-147099073D01*
X230367138Y-147132412D01*
X230310225Y-147155986D01*
X230237293Y-147170493D01*
X230164362Y-147185000D01*
X230015638Y-147185000D01*
X229942707Y-147170493D01*
X229869775Y-147155986D01*
X229812862Y-147132412D01*
X229732374Y-147099073D01*
X229608716Y-147016447D01*
X229503553Y-146911284D01*
X229420927Y-146787626D01*
X229364014Y-146650224D01*
X229335000Y-146504362D01*
X229335000Y-146355638D01*
X229364014Y-146209776D01*
X229420927Y-146072374D01*
X229503553Y-145948716D01*
X229608716Y-145843553D01*
X229732374Y-145760927D01*
X229812862Y-145727588D01*
X229869775Y-145704014D01*
X229942707Y-145689507D01*
X230015638Y-145675000D01*
X230164362Y-145675000D01*
X230237293Y-145689507D01*
X230237293Y-145689507D01*
G37*
G36*
X212457293Y-145689507D02*
G01*
X212530225Y-145704014D01*
X212587138Y-145727588D01*
X212667626Y-145760927D01*
X212791284Y-145843553D01*
X212896447Y-145948716D01*
X212979073Y-146072374D01*
X213035986Y-146209776D01*
X213065000Y-146355638D01*
X213065000Y-146504362D01*
X213035986Y-146650224D01*
X212979073Y-146787626D01*
X212896447Y-146911284D01*
X212791284Y-147016447D01*
X212667626Y-147099073D01*
X212587138Y-147132412D01*
X212530225Y-147155986D01*
X212457293Y-147170493D01*
X212384362Y-147185000D01*
X212235638Y-147185000D01*
X212162707Y-147170493D01*
X212089775Y-147155986D01*
X212032862Y-147132412D01*
X211952374Y-147099073D01*
X211828716Y-147016447D01*
X211723553Y-146911284D01*
X211640927Y-146787626D01*
X211584014Y-146650224D01*
X211555000Y-146504362D01*
X211555000Y-146355638D01*
X211584014Y-146209776D01*
X211640927Y-146072374D01*
X211723553Y-145948716D01*
X211828716Y-145843553D01*
X211952374Y-145760927D01*
X212032862Y-145727588D01*
X212089775Y-145704014D01*
X212162707Y-145689507D01*
X212235638Y-145675000D01*
X212384362Y-145675000D01*
X212457293Y-145689507D01*
X212457293Y-145689507D01*
G37*
G36*
X220077293Y-145689507D02*
G01*
X220150225Y-145704014D01*
X220207138Y-145727588D01*
X220287626Y-145760927D01*
X220411284Y-145843553D01*
X220516447Y-145948716D01*
X220599073Y-146072374D01*
X220655986Y-146209776D01*
X220685000Y-146355638D01*
X220685000Y-146504362D01*
X220655986Y-146650224D01*
X220599073Y-146787626D01*
X220516447Y-146911284D01*
X220411284Y-147016447D01*
X220287626Y-147099073D01*
X220207138Y-147132412D01*
X220150225Y-147155986D01*
X220077293Y-147170493D01*
X220004362Y-147185000D01*
X219855638Y-147185000D01*
X219782707Y-147170493D01*
X219709775Y-147155986D01*
X219652862Y-147132412D01*
X219572374Y-147099073D01*
X219448716Y-147016447D01*
X219343553Y-146911284D01*
X219260927Y-146787626D01*
X219204014Y-146650224D01*
X219175000Y-146504362D01*
X219175000Y-146355638D01*
X219204014Y-146209776D01*
X219260927Y-146072374D01*
X219343553Y-145948716D01*
X219448716Y-145843553D01*
X219572374Y-145760927D01*
X219652862Y-145727588D01*
X219709775Y-145704014D01*
X219782707Y-145689507D01*
X219855638Y-145675000D01*
X220004362Y-145675000D01*
X220077293Y-145689507D01*
X220077293Y-145689507D01*
G37*
G36*
X225157293Y-145689507D02*
G01*
X225230225Y-145704014D01*
X225287138Y-145727588D01*
X225367626Y-145760927D01*
X225491284Y-145843553D01*
X225596447Y-145948716D01*
X225679073Y-146072374D01*
X225735986Y-146209776D01*
X225765000Y-146355638D01*
X225765000Y-146504362D01*
X225735986Y-146650224D01*
X225679073Y-146787626D01*
X225596447Y-146911284D01*
X225491284Y-147016447D01*
X225367626Y-147099073D01*
X225287138Y-147132412D01*
X225230225Y-147155986D01*
X225157293Y-147170493D01*
X225084362Y-147185000D01*
X224935638Y-147185000D01*
X224862707Y-147170493D01*
X224789775Y-147155986D01*
X224732862Y-147132412D01*
X224652374Y-147099073D01*
X224528716Y-147016447D01*
X224423553Y-146911284D01*
X224340927Y-146787626D01*
X224284014Y-146650224D01*
X224255000Y-146504362D01*
X224255000Y-146355638D01*
X224284014Y-146209776D01*
X224340927Y-146072374D01*
X224423553Y-145948716D01*
X224528716Y-145843553D01*
X224652374Y-145760927D01*
X224732862Y-145727588D01*
X224789775Y-145704014D01*
X224862707Y-145689507D01*
X224935638Y-145675000D01*
X225084362Y-145675000D01*
X225157293Y-145689507D01*
X225157293Y-145689507D01*
G37*
G36*
X237857293Y-145689507D02*
G01*
X237930225Y-145704014D01*
X237987138Y-145727588D01*
X238067626Y-145760927D01*
X238191284Y-145843553D01*
X238296447Y-145948716D01*
X238379073Y-146072374D01*
X238435986Y-146209776D01*
X238465000Y-146355638D01*
X238465000Y-146504362D01*
X238435986Y-146650224D01*
X238379073Y-146787626D01*
X238296447Y-146911284D01*
X238191284Y-147016447D01*
X238067626Y-147099073D01*
X237987138Y-147132412D01*
X237930225Y-147155986D01*
X237857293Y-147170493D01*
X237784362Y-147185000D01*
X237635638Y-147185000D01*
X237562707Y-147170493D01*
X237489775Y-147155986D01*
X237432862Y-147132412D01*
X237352374Y-147099073D01*
X237228716Y-147016447D01*
X237123553Y-146911284D01*
X237040927Y-146787626D01*
X236984014Y-146650224D01*
X236955000Y-146504362D01*
X236955000Y-146355638D01*
X236984014Y-146209776D01*
X237040927Y-146072374D01*
X237123553Y-145948716D01*
X237228716Y-145843553D01*
X237352374Y-145760927D01*
X237432862Y-145727588D01*
X237489775Y-145704014D01*
X237562707Y-145689507D01*
X237635638Y-145675000D01*
X237784362Y-145675000D01*
X237857293Y-145689507D01*
X237857293Y-145689507D01*
G37*
G36*
X222617293Y-145689507D02*
G01*
X222690225Y-145704014D01*
X222747138Y-145727588D01*
X222827626Y-145760927D01*
X222951284Y-145843553D01*
X223056447Y-145948716D01*
X223139073Y-146072374D01*
X223195986Y-146209776D01*
X223225000Y-146355638D01*
X223225000Y-146504362D01*
X223195986Y-146650224D01*
X223139073Y-146787626D01*
X223056447Y-146911284D01*
X222951284Y-147016447D01*
X222827626Y-147099073D01*
X222747138Y-147132412D01*
X222690225Y-147155986D01*
X222617293Y-147170493D01*
X222544362Y-147185000D01*
X222395638Y-147185000D01*
X222322707Y-147170493D01*
X222249775Y-147155986D01*
X222192862Y-147132412D01*
X222112374Y-147099073D01*
X221988716Y-147016447D01*
X221883553Y-146911284D01*
X221800927Y-146787626D01*
X221744014Y-146650224D01*
X221715000Y-146504362D01*
X221715000Y-146355638D01*
X221744014Y-146209776D01*
X221800927Y-146072374D01*
X221883553Y-145948716D01*
X221988716Y-145843553D01*
X222112374Y-145760927D01*
X222192862Y-145727588D01*
X222249775Y-145704014D01*
X222322707Y-145689507D01*
X222395638Y-145675000D01*
X222544362Y-145675000D01*
X222617293Y-145689507D01*
X222617293Y-145689507D01*
G37*
G36*
X266343022Y-142781104D02*
G01*
X266476622Y-142836443D01*
X266525558Y-142856713D01*
X266591838Y-142901000D01*
X266689834Y-142966479D01*
X266829540Y-143106185D01*
X266939307Y-143270463D01*
X267014915Y-143452997D01*
X267053459Y-143646772D01*
X267053459Y-143844348D01*
X267014915Y-144038123D01*
X266939307Y-144220657D01*
X266939306Y-144220659D01*
X266829540Y-144384935D01*
X266689834Y-144524641D01*
X266525558Y-144634407D01*
X266525557Y-144634408D01*
X266525556Y-144634408D01*
X266343022Y-144710016D01*
X266149247Y-144748560D01*
X265951671Y-144748560D01*
X265757896Y-144710016D01*
X265575362Y-144634408D01*
X265575361Y-144634408D01*
X265575360Y-144634407D01*
X265411084Y-144524641D01*
X265271378Y-144384935D01*
X265161612Y-144220659D01*
X265161611Y-144220657D01*
X265086003Y-144038123D01*
X265047459Y-143844348D01*
X265047459Y-143646772D01*
X265086003Y-143452997D01*
X265161611Y-143270463D01*
X265271378Y-143106185D01*
X265411084Y-142966479D01*
X265509080Y-142901000D01*
X265575360Y-142856713D01*
X265624296Y-142836443D01*
X265757896Y-142781104D01*
X265951671Y-142742560D01*
X266149247Y-142742560D01*
X266343022Y-142781104D01*
X266343022Y-142781104D01*
G37*
G36*
X251450442Y-141105518D02*
G01*
X251516627Y-141112037D01*
X251686466Y-141163557D01*
X251842991Y-141247222D01*
X251878729Y-141276552D01*
X251980186Y-141359814D01*
X252063448Y-141461271D01*
X252092778Y-141497009D01*
X252176443Y-141653534D01*
X252227963Y-141823373D01*
X252245359Y-142000000D01*
X252227963Y-142176627D01*
X252176443Y-142346466D01*
X252092778Y-142502991D01*
X252063448Y-142538729D01*
X251980186Y-142640186D01*
X251878729Y-142723448D01*
X251842991Y-142752778D01*
X251686466Y-142836443D01*
X251516627Y-142887963D01*
X251450443Y-142894481D01*
X251384260Y-142901000D01*
X251295740Y-142901000D01*
X251229557Y-142894481D01*
X251163373Y-142887963D01*
X250993534Y-142836443D01*
X250837009Y-142752778D01*
X250801271Y-142723448D01*
X250699814Y-142640186D01*
X250616552Y-142538729D01*
X250587222Y-142502991D01*
X250503557Y-142346466D01*
X250452037Y-142176627D01*
X250434641Y-142000000D01*
X250452037Y-141823373D01*
X250503557Y-141653534D01*
X250587222Y-141497009D01*
X250616552Y-141461271D01*
X250699814Y-141359814D01*
X250801271Y-141276552D01*
X250837009Y-141247222D01*
X250993534Y-141163557D01*
X251163373Y-141112037D01*
X251229558Y-141105518D01*
X251295740Y-141099000D01*
X251384260Y-141099000D01*
X251450442Y-141105518D01*
X251450442Y-141105518D01*
G37*
G36*
X259070442Y-141105518D02*
G01*
X259136627Y-141112037D01*
X259306466Y-141163557D01*
X259462991Y-141247222D01*
X259498729Y-141276552D01*
X259600186Y-141359814D01*
X259683448Y-141461271D01*
X259712778Y-141497009D01*
X259796443Y-141653534D01*
X259847963Y-141823373D01*
X259865359Y-142000000D01*
X259847963Y-142176627D01*
X259796443Y-142346466D01*
X259712778Y-142502991D01*
X259683448Y-142538729D01*
X259600186Y-142640186D01*
X259498729Y-142723448D01*
X259462991Y-142752778D01*
X259306466Y-142836443D01*
X259136627Y-142887963D01*
X259070443Y-142894481D01*
X259004260Y-142901000D01*
X258915740Y-142901000D01*
X258849557Y-142894481D01*
X258783373Y-142887963D01*
X258613534Y-142836443D01*
X258457009Y-142752778D01*
X258421271Y-142723448D01*
X258319814Y-142640186D01*
X258236552Y-142538729D01*
X258207222Y-142502991D01*
X258123557Y-142346466D01*
X258072037Y-142176627D01*
X258054641Y-142000000D01*
X258072037Y-141823373D01*
X258123557Y-141653534D01*
X258207222Y-141497009D01*
X258236552Y-141461271D01*
X258319814Y-141359814D01*
X258421271Y-141276552D01*
X258457009Y-141247222D01*
X258613534Y-141163557D01*
X258783373Y-141112037D01*
X258849558Y-141105518D01*
X258915740Y-141099000D01*
X259004260Y-141099000D01*
X259070442Y-141105518D01*
X259070442Y-141105518D01*
G37*
G36*
X253990442Y-141105518D02*
G01*
X254056627Y-141112037D01*
X254226466Y-141163557D01*
X254382991Y-141247222D01*
X254418729Y-141276552D01*
X254520186Y-141359814D01*
X254603448Y-141461271D01*
X254632778Y-141497009D01*
X254716443Y-141653534D01*
X254767963Y-141823373D01*
X254785359Y-142000000D01*
X254767963Y-142176627D01*
X254716443Y-142346466D01*
X254632778Y-142502991D01*
X254603448Y-142538729D01*
X254520186Y-142640186D01*
X254418729Y-142723448D01*
X254382991Y-142752778D01*
X254226466Y-142836443D01*
X254056627Y-142887963D01*
X253990443Y-142894481D01*
X253924260Y-142901000D01*
X253835740Y-142901000D01*
X253769557Y-142894481D01*
X253703373Y-142887963D01*
X253533534Y-142836443D01*
X253377009Y-142752778D01*
X253341271Y-142723448D01*
X253239814Y-142640186D01*
X253156552Y-142538729D01*
X253127222Y-142502991D01*
X253043557Y-142346466D01*
X252992037Y-142176627D01*
X252974641Y-142000000D01*
X252992037Y-141823373D01*
X253043557Y-141653534D01*
X253127222Y-141497009D01*
X253156552Y-141461271D01*
X253239814Y-141359814D01*
X253341271Y-141276552D01*
X253377009Y-141247222D01*
X253533534Y-141163557D01*
X253703373Y-141112037D01*
X253769558Y-141105518D01*
X253835740Y-141099000D01*
X253924260Y-141099000D01*
X253990442Y-141105518D01*
X253990442Y-141105518D01*
G37*
G36*
X256530442Y-141105518D02*
G01*
X256596627Y-141112037D01*
X256766466Y-141163557D01*
X256922991Y-141247222D01*
X256958729Y-141276552D01*
X257060186Y-141359814D01*
X257143448Y-141461271D01*
X257172778Y-141497009D01*
X257256443Y-141653534D01*
X257307963Y-141823373D01*
X257325359Y-142000000D01*
X257307963Y-142176627D01*
X257256443Y-142346466D01*
X257172778Y-142502991D01*
X257143448Y-142538729D01*
X257060186Y-142640186D01*
X256958729Y-142723448D01*
X256922991Y-142752778D01*
X256766466Y-142836443D01*
X256596627Y-142887963D01*
X256530443Y-142894481D01*
X256464260Y-142901000D01*
X256375740Y-142901000D01*
X256309557Y-142894481D01*
X256243373Y-142887963D01*
X256073534Y-142836443D01*
X255917009Y-142752778D01*
X255881271Y-142723448D01*
X255779814Y-142640186D01*
X255696552Y-142538729D01*
X255667222Y-142502991D01*
X255583557Y-142346466D01*
X255532037Y-142176627D01*
X255514641Y-142000000D01*
X255532037Y-141823373D01*
X255583557Y-141653534D01*
X255667222Y-141497009D01*
X255696552Y-141461271D01*
X255779814Y-141359814D01*
X255881271Y-141276552D01*
X255917009Y-141247222D01*
X256073534Y-141163557D01*
X256243373Y-141112037D01*
X256309558Y-141105518D01*
X256375740Y-141099000D01*
X256464260Y-141099000D01*
X256530442Y-141105518D01*
X256530442Y-141105518D01*
G37*
G36*
X211601000Y-142901000D02*
G01*
X209799000Y-142901000D01*
X209799000Y-141099000D01*
X211601000Y-141099000D01*
X211601000Y-142901000D01*
X211601000Y-142901000D01*
G37*
G36*
X213350442Y-141105518D02*
G01*
X213416627Y-141112037D01*
X213586466Y-141163557D01*
X213742991Y-141247222D01*
X213778729Y-141276552D01*
X213880186Y-141359814D01*
X213963448Y-141461271D01*
X213992778Y-141497009D01*
X214076443Y-141653534D01*
X214127963Y-141823373D01*
X214145359Y-142000000D01*
X214127963Y-142176627D01*
X214076443Y-142346466D01*
X213992778Y-142502991D01*
X213963448Y-142538729D01*
X213880186Y-142640186D01*
X213778729Y-142723448D01*
X213742991Y-142752778D01*
X213586466Y-142836443D01*
X213416627Y-142887963D01*
X213350443Y-142894481D01*
X213284260Y-142901000D01*
X213195740Y-142901000D01*
X213129557Y-142894481D01*
X213063373Y-142887963D01*
X212893534Y-142836443D01*
X212737009Y-142752778D01*
X212701271Y-142723448D01*
X212599814Y-142640186D01*
X212516552Y-142538729D01*
X212487222Y-142502991D01*
X212403557Y-142346466D01*
X212352037Y-142176627D01*
X212334641Y-142000000D01*
X212352037Y-141823373D01*
X212403557Y-141653534D01*
X212487222Y-141497009D01*
X212516552Y-141461271D01*
X212599814Y-141359814D01*
X212701271Y-141276552D01*
X212737009Y-141247222D01*
X212893534Y-141163557D01*
X213063373Y-141112037D01*
X213129558Y-141105518D01*
X213195740Y-141099000D01*
X213284260Y-141099000D01*
X213350442Y-141105518D01*
X213350442Y-141105518D01*
G37*
G36*
X215890442Y-141105518D02*
G01*
X215956627Y-141112037D01*
X216126466Y-141163557D01*
X216282991Y-141247222D01*
X216318729Y-141276552D01*
X216420186Y-141359814D01*
X216503448Y-141461271D01*
X216532778Y-141497009D01*
X216616443Y-141653534D01*
X216667963Y-141823373D01*
X216685359Y-142000000D01*
X216667963Y-142176627D01*
X216616443Y-142346466D01*
X216532778Y-142502991D01*
X216503448Y-142538729D01*
X216420186Y-142640186D01*
X216318729Y-142723448D01*
X216282991Y-142752778D01*
X216126466Y-142836443D01*
X215956627Y-142887963D01*
X215890443Y-142894481D01*
X215824260Y-142901000D01*
X215735740Y-142901000D01*
X215669557Y-142894481D01*
X215603373Y-142887963D01*
X215433534Y-142836443D01*
X215277009Y-142752778D01*
X215241271Y-142723448D01*
X215139814Y-142640186D01*
X215056552Y-142538729D01*
X215027222Y-142502991D01*
X214943557Y-142346466D01*
X214892037Y-142176627D01*
X214874641Y-142000000D01*
X214892037Y-141823373D01*
X214943557Y-141653534D01*
X215027222Y-141497009D01*
X215056552Y-141461271D01*
X215139814Y-141359814D01*
X215241271Y-141276552D01*
X215277009Y-141247222D01*
X215433534Y-141163557D01*
X215603373Y-141112037D01*
X215669558Y-141105518D01*
X215735740Y-141099000D01*
X215824260Y-141099000D01*
X215890442Y-141105518D01*
X215890442Y-141105518D01*
G37*
G36*
X218430442Y-141105518D02*
G01*
X218496627Y-141112037D01*
X218666466Y-141163557D01*
X218822991Y-141247222D01*
X218858729Y-141276552D01*
X218960186Y-141359814D01*
X219043448Y-141461271D01*
X219072778Y-141497009D01*
X219156443Y-141653534D01*
X219207963Y-141823373D01*
X219225359Y-142000000D01*
X219207963Y-142176627D01*
X219156443Y-142346466D01*
X219072778Y-142502991D01*
X219043448Y-142538729D01*
X218960186Y-142640186D01*
X218858729Y-142723448D01*
X218822991Y-142752778D01*
X218666466Y-142836443D01*
X218496627Y-142887963D01*
X218430443Y-142894481D01*
X218364260Y-142901000D01*
X218275740Y-142901000D01*
X218209557Y-142894481D01*
X218143373Y-142887963D01*
X217973534Y-142836443D01*
X217817009Y-142752778D01*
X217781271Y-142723448D01*
X217679814Y-142640186D01*
X217596552Y-142538729D01*
X217567222Y-142502991D01*
X217483557Y-142346466D01*
X217432037Y-142176627D01*
X217414641Y-142000000D01*
X217432037Y-141823373D01*
X217483557Y-141653534D01*
X217567222Y-141497009D01*
X217596552Y-141461271D01*
X217679814Y-141359814D01*
X217781271Y-141276552D01*
X217817009Y-141247222D01*
X217973534Y-141163557D01*
X218143373Y-141112037D01*
X218209558Y-141105518D01*
X218275740Y-141099000D01*
X218364260Y-141099000D01*
X218430442Y-141105518D01*
X218430442Y-141105518D01*
G37*
G36*
X220970442Y-141105518D02*
G01*
X221036627Y-141112037D01*
X221206466Y-141163557D01*
X221362991Y-141247222D01*
X221398729Y-141276552D01*
X221500186Y-141359814D01*
X221583448Y-141461271D01*
X221612778Y-141497009D01*
X221696443Y-141653534D01*
X221747963Y-141823373D01*
X221765359Y-142000000D01*
X221747963Y-142176627D01*
X221696443Y-142346466D01*
X221612778Y-142502991D01*
X221583448Y-142538729D01*
X221500186Y-142640186D01*
X221398729Y-142723448D01*
X221362991Y-142752778D01*
X221206466Y-142836443D01*
X221036627Y-142887963D01*
X220970443Y-142894481D01*
X220904260Y-142901000D01*
X220815740Y-142901000D01*
X220749557Y-142894481D01*
X220683373Y-142887963D01*
X220513534Y-142836443D01*
X220357009Y-142752778D01*
X220321271Y-142723448D01*
X220219814Y-142640186D01*
X220136552Y-142538729D01*
X220107222Y-142502991D01*
X220023557Y-142346466D01*
X219972037Y-142176627D01*
X219954641Y-142000000D01*
X219972037Y-141823373D01*
X220023557Y-141653534D01*
X220107222Y-141497009D01*
X220136552Y-141461271D01*
X220219814Y-141359814D01*
X220321271Y-141276552D01*
X220357009Y-141247222D01*
X220513534Y-141163557D01*
X220683373Y-141112037D01*
X220749558Y-141105518D01*
X220815740Y-141099000D01*
X220904260Y-141099000D01*
X220970442Y-141105518D01*
X220970442Y-141105518D01*
G37*
G36*
X226050442Y-141105518D02*
G01*
X226116627Y-141112037D01*
X226286466Y-141163557D01*
X226442991Y-141247222D01*
X226478729Y-141276552D01*
X226580186Y-141359814D01*
X226663448Y-141461271D01*
X226692778Y-141497009D01*
X226776443Y-141653534D01*
X226827963Y-141823373D01*
X226845359Y-142000000D01*
X226827963Y-142176627D01*
X226776443Y-142346466D01*
X226692778Y-142502991D01*
X226663448Y-142538729D01*
X226580186Y-142640186D01*
X226478729Y-142723448D01*
X226442991Y-142752778D01*
X226286466Y-142836443D01*
X226116627Y-142887963D01*
X226050443Y-142894481D01*
X225984260Y-142901000D01*
X225895740Y-142901000D01*
X225829557Y-142894481D01*
X225763373Y-142887963D01*
X225593534Y-142836443D01*
X225437009Y-142752778D01*
X225401271Y-142723448D01*
X225299814Y-142640186D01*
X225216552Y-142538729D01*
X225187222Y-142502991D01*
X225103557Y-142346466D01*
X225052037Y-142176627D01*
X225034641Y-142000000D01*
X225052037Y-141823373D01*
X225103557Y-141653534D01*
X225187222Y-141497009D01*
X225216552Y-141461271D01*
X225299814Y-141359814D01*
X225401271Y-141276552D01*
X225437009Y-141247222D01*
X225593534Y-141163557D01*
X225763373Y-141112037D01*
X225829558Y-141105518D01*
X225895740Y-141099000D01*
X225984260Y-141099000D01*
X226050442Y-141105518D01*
X226050442Y-141105518D01*
G37*
G36*
X231130442Y-141105518D02*
G01*
X231196627Y-141112037D01*
X231366466Y-141163557D01*
X231522991Y-141247222D01*
X231558729Y-141276552D01*
X231660186Y-141359814D01*
X231743448Y-141461271D01*
X231772778Y-141497009D01*
X231856443Y-141653534D01*
X231907963Y-141823373D01*
X231925359Y-142000000D01*
X231907963Y-142176627D01*
X231856443Y-142346466D01*
X231772778Y-142502991D01*
X231743448Y-142538729D01*
X231660186Y-142640186D01*
X231558729Y-142723448D01*
X231522991Y-142752778D01*
X231366466Y-142836443D01*
X231196627Y-142887963D01*
X231130443Y-142894481D01*
X231064260Y-142901000D01*
X230975740Y-142901000D01*
X230909557Y-142894481D01*
X230843373Y-142887963D01*
X230673534Y-142836443D01*
X230517009Y-142752778D01*
X230481271Y-142723448D01*
X230379814Y-142640186D01*
X230296552Y-142538729D01*
X230267222Y-142502991D01*
X230183557Y-142346466D01*
X230132037Y-142176627D01*
X230114641Y-142000000D01*
X230132037Y-141823373D01*
X230183557Y-141653534D01*
X230267222Y-141497009D01*
X230296552Y-141461271D01*
X230379814Y-141359814D01*
X230481271Y-141276552D01*
X230517009Y-141247222D01*
X230673534Y-141163557D01*
X230843373Y-141112037D01*
X230909558Y-141105518D01*
X230975740Y-141099000D01*
X231064260Y-141099000D01*
X231130442Y-141105518D01*
X231130442Y-141105518D01*
G37*
G36*
X233670442Y-141105518D02*
G01*
X233736627Y-141112037D01*
X233906466Y-141163557D01*
X234062991Y-141247222D01*
X234098729Y-141276552D01*
X234200186Y-141359814D01*
X234283448Y-141461271D01*
X234312778Y-141497009D01*
X234396443Y-141653534D01*
X234447963Y-141823373D01*
X234465359Y-142000000D01*
X234447963Y-142176627D01*
X234396443Y-142346466D01*
X234312778Y-142502991D01*
X234283448Y-142538729D01*
X234200186Y-142640186D01*
X234098729Y-142723448D01*
X234062991Y-142752778D01*
X233906466Y-142836443D01*
X233736627Y-142887963D01*
X233670443Y-142894481D01*
X233604260Y-142901000D01*
X233515740Y-142901000D01*
X233449557Y-142894481D01*
X233383373Y-142887963D01*
X233213534Y-142836443D01*
X233057009Y-142752778D01*
X233021271Y-142723448D01*
X232919814Y-142640186D01*
X232836552Y-142538729D01*
X232807222Y-142502991D01*
X232723557Y-142346466D01*
X232672037Y-142176627D01*
X232654641Y-142000000D01*
X232672037Y-141823373D01*
X232723557Y-141653534D01*
X232807222Y-141497009D01*
X232836552Y-141461271D01*
X232919814Y-141359814D01*
X233021271Y-141276552D01*
X233057009Y-141247222D01*
X233213534Y-141163557D01*
X233383373Y-141112037D01*
X233449558Y-141105518D01*
X233515740Y-141099000D01*
X233604260Y-141099000D01*
X233670442Y-141105518D01*
X233670442Y-141105518D01*
G37*
G36*
X236210442Y-141105518D02*
G01*
X236276627Y-141112037D01*
X236446466Y-141163557D01*
X236602991Y-141247222D01*
X236638729Y-141276552D01*
X236740186Y-141359814D01*
X236823448Y-141461271D01*
X236852778Y-141497009D01*
X236936443Y-141653534D01*
X236987963Y-141823373D01*
X237005359Y-142000000D01*
X236987963Y-142176627D01*
X236936443Y-142346466D01*
X236852778Y-142502991D01*
X236823448Y-142538729D01*
X236740186Y-142640186D01*
X236638729Y-142723448D01*
X236602991Y-142752778D01*
X236446466Y-142836443D01*
X236276627Y-142887963D01*
X236210443Y-142894481D01*
X236144260Y-142901000D01*
X236055740Y-142901000D01*
X235989557Y-142894481D01*
X235923373Y-142887963D01*
X235753534Y-142836443D01*
X235597009Y-142752778D01*
X235561271Y-142723448D01*
X235459814Y-142640186D01*
X235376552Y-142538729D01*
X235347222Y-142502991D01*
X235263557Y-142346466D01*
X235212037Y-142176627D01*
X235194641Y-142000000D01*
X235212037Y-141823373D01*
X235263557Y-141653534D01*
X235347222Y-141497009D01*
X235376552Y-141461271D01*
X235459814Y-141359814D01*
X235561271Y-141276552D01*
X235597009Y-141247222D01*
X235753534Y-141163557D01*
X235923373Y-141112037D01*
X235989558Y-141105518D01*
X236055740Y-141099000D01*
X236144260Y-141099000D01*
X236210442Y-141105518D01*
X236210442Y-141105518D01*
G37*
G36*
X238750442Y-141105518D02*
G01*
X238816627Y-141112037D01*
X238986466Y-141163557D01*
X239142991Y-141247222D01*
X239178729Y-141276552D01*
X239280186Y-141359814D01*
X239363448Y-141461271D01*
X239392778Y-141497009D01*
X239476443Y-141653534D01*
X239527963Y-141823373D01*
X239545359Y-142000000D01*
X239527963Y-142176627D01*
X239476443Y-142346466D01*
X239392778Y-142502991D01*
X239363448Y-142538729D01*
X239280186Y-142640186D01*
X239178729Y-142723448D01*
X239142991Y-142752778D01*
X238986466Y-142836443D01*
X238816627Y-142887963D01*
X238750443Y-142894481D01*
X238684260Y-142901000D01*
X238595740Y-142901000D01*
X238529557Y-142894481D01*
X238463373Y-142887963D01*
X238293534Y-142836443D01*
X238137009Y-142752778D01*
X238101271Y-142723448D01*
X237999814Y-142640186D01*
X237916552Y-142538729D01*
X237887222Y-142502991D01*
X237803557Y-142346466D01*
X237752037Y-142176627D01*
X237734641Y-142000000D01*
X237752037Y-141823373D01*
X237803557Y-141653534D01*
X237887222Y-141497009D01*
X237916552Y-141461271D01*
X237999814Y-141359814D01*
X238101271Y-141276552D01*
X238137009Y-141247222D01*
X238293534Y-141163557D01*
X238463373Y-141112037D01*
X238529558Y-141105518D01*
X238595740Y-141099000D01*
X238684260Y-141099000D01*
X238750442Y-141105518D01*
X238750442Y-141105518D01*
G37*
G36*
X241290442Y-141105518D02*
G01*
X241356627Y-141112037D01*
X241526466Y-141163557D01*
X241682991Y-141247222D01*
X241718729Y-141276552D01*
X241820186Y-141359814D01*
X241903448Y-141461271D01*
X241932778Y-141497009D01*
X242016443Y-141653534D01*
X242067963Y-141823373D01*
X242085359Y-142000000D01*
X242067963Y-142176627D01*
X242016443Y-142346466D01*
X241932778Y-142502991D01*
X241903448Y-142538729D01*
X241820186Y-142640186D01*
X241718729Y-142723448D01*
X241682991Y-142752778D01*
X241526466Y-142836443D01*
X241356627Y-142887963D01*
X241290443Y-142894481D01*
X241224260Y-142901000D01*
X241135740Y-142901000D01*
X241069557Y-142894481D01*
X241003373Y-142887963D01*
X240833534Y-142836443D01*
X240677009Y-142752778D01*
X240641271Y-142723448D01*
X240539814Y-142640186D01*
X240456552Y-142538729D01*
X240427222Y-142502991D01*
X240343557Y-142346466D01*
X240292037Y-142176627D01*
X240274641Y-142000000D01*
X240292037Y-141823373D01*
X240343557Y-141653534D01*
X240427222Y-141497009D01*
X240456552Y-141461271D01*
X240539814Y-141359814D01*
X240641271Y-141276552D01*
X240677009Y-141247222D01*
X240833534Y-141163557D01*
X241003373Y-141112037D01*
X241069558Y-141105518D01*
X241135740Y-141099000D01*
X241224260Y-141099000D01*
X241290442Y-141105518D01*
X241290442Y-141105518D01*
G37*
G36*
X243830442Y-141105518D02*
G01*
X243896627Y-141112037D01*
X244066466Y-141163557D01*
X244222991Y-141247222D01*
X244258729Y-141276552D01*
X244360186Y-141359814D01*
X244443448Y-141461271D01*
X244472778Y-141497009D01*
X244556443Y-141653534D01*
X244607963Y-141823373D01*
X244625359Y-142000000D01*
X244607963Y-142176627D01*
X244556443Y-142346466D01*
X244472778Y-142502991D01*
X244443448Y-142538729D01*
X244360186Y-142640186D01*
X244258729Y-142723448D01*
X244222991Y-142752778D01*
X244066466Y-142836443D01*
X243896627Y-142887963D01*
X243830443Y-142894481D01*
X243764260Y-142901000D01*
X243675740Y-142901000D01*
X243609557Y-142894481D01*
X243543373Y-142887963D01*
X243373534Y-142836443D01*
X243217009Y-142752778D01*
X243181271Y-142723448D01*
X243079814Y-142640186D01*
X242996552Y-142538729D01*
X242967222Y-142502991D01*
X242883557Y-142346466D01*
X242832037Y-142176627D01*
X242814641Y-142000000D01*
X242832037Y-141823373D01*
X242883557Y-141653534D01*
X242967222Y-141497009D01*
X242996552Y-141461271D01*
X243079814Y-141359814D01*
X243181271Y-141276552D01*
X243217009Y-141247222D01*
X243373534Y-141163557D01*
X243543373Y-141112037D01*
X243609558Y-141105518D01*
X243675740Y-141099000D01*
X243764260Y-141099000D01*
X243830442Y-141105518D01*
X243830442Y-141105518D01*
G37*
G36*
X246370442Y-141105518D02*
G01*
X246436627Y-141112037D01*
X246606466Y-141163557D01*
X246762991Y-141247222D01*
X246798729Y-141276552D01*
X246900186Y-141359814D01*
X246983448Y-141461271D01*
X247012778Y-141497009D01*
X247096443Y-141653534D01*
X247147963Y-141823373D01*
X247165359Y-142000000D01*
X247147963Y-142176627D01*
X247096443Y-142346466D01*
X247012778Y-142502991D01*
X246983448Y-142538729D01*
X246900186Y-142640186D01*
X246798729Y-142723448D01*
X246762991Y-142752778D01*
X246606466Y-142836443D01*
X246436627Y-142887963D01*
X246370443Y-142894481D01*
X246304260Y-142901000D01*
X246215740Y-142901000D01*
X246149557Y-142894481D01*
X246083373Y-142887963D01*
X245913534Y-142836443D01*
X245757009Y-142752778D01*
X245721271Y-142723448D01*
X245619814Y-142640186D01*
X245536552Y-142538729D01*
X245507222Y-142502991D01*
X245423557Y-142346466D01*
X245372037Y-142176627D01*
X245354641Y-142000000D01*
X245372037Y-141823373D01*
X245423557Y-141653534D01*
X245507222Y-141497009D01*
X245536552Y-141461271D01*
X245619814Y-141359814D01*
X245721271Y-141276552D01*
X245757009Y-141247222D01*
X245913534Y-141163557D01*
X246083373Y-141112037D01*
X246149558Y-141105518D01*
X246215740Y-141099000D01*
X246304260Y-141099000D01*
X246370442Y-141105518D01*
X246370442Y-141105518D01*
G37*
G36*
X248910442Y-141105518D02*
G01*
X248976627Y-141112037D01*
X249146466Y-141163557D01*
X249302991Y-141247222D01*
X249338729Y-141276552D01*
X249440186Y-141359814D01*
X249523448Y-141461271D01*
X249552778Y-141497009D01*
X249636443Y-141653534D01*
X249687963Y-141823373D01*
X249705359Y-142000000D01*
X249687963Y-142176627D01*
X249636443Y-142346466D01*
X249552778Y-142502991D01*
X249523448Y-142538729D01*
X249440186Y-142640186D01*
X249338729Y-142723448D01*
X249302991Y-142752778D01*
X249146466Y-142836443D01*
X248976627Y-142887963D01*
X248910443Y-142894481D01*
X248844260Y-142901000D01*
X248755740Y-142901000D01*
X248689557Y-142894481D01*
X248623373Y-142887963D01*
X248453534Y-142836443D01*
X248297009Y-142752778D01*
X248261271Y-142723448D01*
X248159814Y-142640186D01*
X248076552Y-142538729D01*
X248047222Y-142502991D01*
X247963557Y-142346466D01*
X247912037Y-142176627D01*
X247894641Y-142000000D01*
X247912037Y-141823373D01*
X247963557Y-141653534D01*
X248047222Y-141497009D01*
X248076552Y-141461271D01*
X248159814Y-141359814D01*
X248261271Y-141276552D01*
X248297009Y-141247222D01*
X248453534Y-141163557D01*
X248623373Y-141112037D01*
X248689558Y-141105518D01*
X248755740Y-141099000D01*
X248844260Y-141099000D01*
X248910442Y-141105518D01*
X248910442Y-141105518D01*
G37*
G36*
X223510442Y-141105518D02*
G01*
X223576627Y-141112037D01*
X223746466Y-141163557D01*
X223902991Y-141247222D01*
X223938729Y-141276552D01*
X224040186Y-141359814D01*
X224123448Y-141461271D01*
X224152778Y-141497009D01*
X224236443Y-141653534D01*
X224287963Y-141823373D01*
X224305359Y-142000000D01*
X224287963Y-142176627D01*
X224236443Y-142346466D01*
X224152778Y-142502991D01*
X224123448Y-142538729D01*
X224040186Y-142640186D01*
X223938729Y-142723448D01*
X223902991Y-142752778D01*
X223746466Y-142836443D01*
X223576627Y-142887963D01*
X223510443Y-142894481D01*
X223444260Y-142901000D01*
X223355740Y-142901000D01*
X223289557Y-142894481D01*
X223223373Y-142887963D01*
X223053534Y-142836443D01*
X222897009Y-142752778D01*
X222861271Y-142723448D01*
X222759814Y-142640186D01*
X222676552Y-142538729D01*
X222647222Y-142502991D01*
X222563557Y-142346466D01*
X222512037Y-142176627D01*
X222494641Y-142000000D01*
X222512037Y-141823373D01*
X222563557Y-141653534D01*
X222647222Y-141497009D01*
X222676552Y-141461271D01*
X222759814Y-141359814D01*
X222861271Y-141276552D01*
X222897009Y-141247222D01*
X223053534Y-141163557D01*
X223223373Y-141112037D01*
X223289558Y-141105518D01*
X223355740Y-141099000D01*
X223444260Y-141099000D01*
X223510442Y-141105518D01*
X223510442Y-141105518D01*
G37*
G36*
X228590442Y-141105518D02*
G01*
X228656627Y-141112037D01*
X228826466Y-141163557D01*
X228982991Y-141247222D01*
X229018729Y-141276552D01*
X229120186Y-141359814D01*
X229203448Y-141461271D01*
X229232778Y-141497009D01*
X229316443Y-141653534D01*
X229367963Y-141823373D01*
X229385359Y-142000000D01*
X229367963Y-142176627D01*
X229316443Y-142346466D01*
X229232778Y-142502991D01*
X229203448Y-142538729D01*
X229120186Y-142640186D01*
X229018729Y-142723448D01*
X228982991Y-142752778D01*
X228826466Y-142836443D01*
X228656627Y-142887963D01*
X228590443Y-142894481D01*
X228524260Y-142901000D01*
X228435740Y-142901000D01*
X228369557Y-142894481D01*
X228303373Y-142887963D01*
X228133534Y-142836443D01*
X227977009Y-142752778D01*
X227941271Y-142723448D01*
X227839814Y-142640186D01*
X227756552Y-142538729D01*
X227727222Y-142502991D01*
X227643557Y-142346466D01*
X227592037Y-142176627D01*
X227574641Y-142000000D01*
X227592037Y-141823373D01*
X227643557Y-141653534D01*
X227727222Y-141497009D01*
X227756552Y-141461271D01*
X227839814Y-141359814D01*
X227941271Y-141276552D01*
X227977009Y-141247222D01*
X228133534Y-141163557D01*
X228303373Y-141112037D01*
X228369558Y-141105518D01*
X228435740Y-141099000D01*
X228524260Y-141099000D01*
X228590442Y-141105518D01*
X228590442Y-141105518D01*
G37*
G36*
X236006823Y-137311313D02*
G01*
X236167242Y-137359976D01*
X236299906Y-137430886D01*
X236315078Y-137438996D01*
X236444659Y-137545341D01*
X236551004Y-137674922D01*
X236551005Y-137674924D01*
X236630024Y-137822758D01*
X236678687Y-137983177D01*
X236695117Y-138150000D01*
X236678687Y-138316823D01*
X236630024Y-138477242D01*
X236562811Y-138602989D01*
X236551004Y-138625078D01*
X236444659Y-138754659D01*
X236315078Y-138861004D01*
X236315076Y-138861005D01*
X236167242Y-138940024D01*
X236006823Y-138988687D01*
X235881804Y-139001000D01*
X235798196Y-139001000D01*
X235673177Y-138988687D01*
X235512758Y-138940024D01*
X235364924Y-138861005D01*
X235364922Y-138861004D01*
X235235341Y-138754659D01*
X235128996Y-138625078D01*
X235117189Y-138602989D01*
X235049976Y-138477242D01*
X235001313Y-138316823D01*
X234984883Y-138150000D01*
X235001313Y-137983177D01*
X235049976Y-137822758D01*
X235128995Y-137674924D01*
X235128996Y-137674922D01*
X235235341Y-137545341D01*
X235364922Y-137438996D01*
X235380094Y-137430886D01*
X235512758Y-137359976D01*
X235673177Y-137311313D01*
X235798196Y-137299000D01*
X235881804Y-137299000D01*
X236006823Y-137311313D01*
X236006823Y-137311313D01*
G37*
G36*
X238546823Y-137311313D02*
G01*
X238707242Y-137359976D01*
X238839906Y-137430886D01*
X238855078Y-137438996D01*
X238984659Y-137545341D01*
X239091004Y-137674922D01*
X239091005Y-137674924D01*
X239170024Y-137822758D01*
X239218687Y-137983177D01*
X239235117Y-138150000D01*
X239218687Y-138316823D01*
X239170024Y-138477242D01*
X239102811Y-138602989D01*
X239091004Y-138625078D01*
X238984659Y-138754659D01*
X238855078Y-138861004D01*
X238855076Y-138861005D01*
X238707242Y-138940024D01*
X238546823Y-138988687D01*
X238421804Y-139001000D01*
X238338196Y-139001000D01*
X238213177Y-138988687D01*
X238052758Y-138940024D01*
X237904924Y-138861005D01*
X237904922Y-138861004D01*
X237775341Y-138754659D01*
X237668996Y-138625078D01*
X237657189Y-138602989D01*
X237589976Y-138477242D01*
X237541313Y-138316823D01*
X237524883Y-138150000D01*
X237541313Y-137983177D01*
X237589976Y-137822758D01*
X237668995Y-137674924D01*
X237668996Y-137674922D01*
X237775341Y-137545341D01*
X237904922Y-137438996D01*
X237920094Y-137430886D01*
X238052758Y-137359976D01*
X238213177Y-137311313D01*
X238338196Y-137299000D01*
X238421804Y-137299000D01*
X238546823Y-137311313D01*
X238546823Y-137311313D01*
G37*
G36*
X234151000Y-139001000D02*
G01*
X232449000Y-139001000D01*
X232449000Y-137299000D01*
X234151000Y-137299000D01*
X234151000Y-139001000D01*
X234151000Y-139001000D01*
G37*
G36*
X267235442Y-137205518D02*
G01*
X267301627Y-137212037D01*
X267471466Y-137263557D01*
X267627991Y-137347222D01*
X267663729Y-137376552D01*
X267765186Y-137459814D01*
X267835375Y-137545341D01*
X267877778Y-137597009D01*
X267961443Y-137753534D01*
X268012963Y-137923373D01*
X268030359Y-138100000D01*
X268012963Y-138276627D01*
X267961443Y-138446466D01*
X267877778Y-138602991D01*
X267848448Y-138638729D01*
X267765186Y-138740186D01*
X267663729Y-138823448D01*
X267627991Y-138852778D01*
X267471466Y-138936443D01*
X267301627Y-138987963D01*
X267235442Y-138994482D01*
X267169260Y-139001000D01*
X266830740Y-139001000D01*
X266764558Y-138994482D01*
X266698373Y-138987963D01*
X266528534Y-138936443D01*
X266372009Y-138852778D01*
X266336271Y-138823448D01*
X266234814Y-138740186D01*
X266151552Y-138638729D01*
X266122222Y-138602991D01*
X266038557Y-138446466D01*
X265987037Y-138276627D01*
X265969641Y-138100000D01*
X265987037Y-137923373D01*
X266038557Y-137753534D01*
X266122222Y-137597009D01*
X266164625Y-137545341D01*
X266234814Y-137459814D01*
X266336271Y-137376552D01*
X266372009Y-137347222D01*
X266528534Y-137263557D01*
X266698373Y-137212037D01*
X266764558Y-137205518D01*
X266830740Y-137199000D01*
X267169260Y-137199000D01*
X267235442Y-137205518D01*
X267235442Y-137205518D01*
G37*
G36*
X241086823Y-137311313D02*
G01*
X241247242Y-137359976D01*
X241379906Y-137430886D01*
X241395078Y-137438996D01*
X241524659Y-137545341D01*
X241631004Y-137674922D01*
X241631005Y-137674924D01*
X241710024Y-137822758D01*
X241758687Y-137983177D01*
X241775117Y-138150000D01*
X241758687Y-138316823D01*
X241710024Y-138477242D01*
X241642811Y-138602989D01*
X241631004Y-138625078D01*
X241524659Y-138754659D01*
X241395078Y-138861004D01*
X241395076Y-138861005D01*
X241247242Y-138940024D01*
X241086823Y-138988687D01*
X240961804Y-139001000D01*
X240878196Y-139001000D01*
X240753177Y-138988687D01*
X240592758Y-138940024D01*
X240444924Y-138861005D01*
X240444922Y-138861004D01*
X240315341Y-138754659D01*
X240208996Y-138625078D01*
X240197189Y-138602989D01*
X240129976Y-138477242D01*
X240081313Y-138316823D01*
X240064883Y-138150000D01*
X240081313Y-137983177D01*
X240129976Y-137822758D01*
X240208995Y-137674924D01*
X240208996Y-137674922D01*
X240315341Y-137545341D01*
X240444922Y-137438996D01*
X240460094Y-137430886D01*
X240592758Y-137359976D01*
X240753177Y-137311313D01*
X240878196Y-137299000D01*
X240961804Y-137299000D01*
X241086823Y-137311313D01*
X241086823Y-137311313D01*
G37*
G36*
X267235442Y-134705518D02*
G01*
X267301627Y-134712037D01*
X267471466Y-134763557D01*
X267627991Y-134847222D01*
X267663729Y-134876552D01*
X267765186Y-134959814D01*
X267848448Y-135061271D01*
X267877778Y-135097009D01*
X267961443Y-135253534D01*
X268012963Y-135423373D01*
X268030359Y-135600000D01*
X268012963Y-135776627D01*
X267961443Y-135946466D01*
X267877778Y-136102991D01*
X267848448Y-136138729D01*
X267765186Y-136240186D01*
X267663729Y-136323448D01*
X267627991Y-136352778D01*
X267471466Y-136436443D01*
X267301627Y-136487963D01*
X267235442Y-136494482D01*
X267169260Y-136501000D01*
X266830740Y-136501000D01*
X266764558Y-136494482D01*
X266698373Y-136487963D01*
X266528534Y-136436443D01*
X266372009Y-136352778D01*
X266336271Y-136323448D01*
X266234814Y-136240186D01*
X266151552Y-136138729D01*
X266122222Y-136102991D01*
X266038557Y-135946466D01*
X265987037Y-135776627D01*
X265969641Y-135600000D01*
X265987037Y-135423373D01*
X266038557Y-135253534D01*
X266122222Y-135097009D01*
X266151552Y-135061271D01*
X266234814Y-134959814D01*
X266336271Y-134876552D01*
X266372009Y-134847222D01*
X266528534Y-134763557D01*
X266698373Y-134712037D01*
X266764558Y-134705518D01*
X266830740Y-134699000D01*
X267169260Y-134699000D01*
X267235442Y-134705518D01*
X267235442Y-134705518D01*
G37*
G36*
X251798228Y-132531703D02*
G01*
X251953100Y-132595853D01*
X252092481Y-132688985D01*
X252211015Y-132807519D01*
X252304147Y-132946900D01*
X252368297Y-133101772D01*
X252401000Y-133266184D01*
X252401000Y-133433816D01*
X252368297Y-133598228D01*
X252304147Y-133753100D01*
X252211015Y-133892481D01*
X252092481Y-134011015D01*
X251953100Y-134104147D01*
X251798228Y-134168297D01*
X251633816Y-134201000D01*
X251466184Y-134201000D01*
X251301772Y-134168297D01*
X251146900Y-134104147D01*
X251007519Y-134011015D01*
X250888985Y-133892481D01*
X250795853Y-133753100D01*
X250731703Y-133598228D01*
X250699000Y-133433816D01*
X250699000Y-133266184D01*
X250731703Y-133101772D01*
X250795853Y-132946900D01*
X250888985Y-132807519D01*
X251007519Y-132688985D01*
X251146900Y-132595853D01*
X251301772Y-132531703D01*
X251466184Y-132499000D01*
X251633816Y-132499000D01*
X251798228Y-132531703D01*
X251798228Y-132531703D01*
G37*
G36*
X244096823Y-132511313D02*
G01*
X244257242Y-132559976D01*
X244389906Y-132630886D01*
X244405078Y-132638996D01*
X244534659Y-132745341D01*
X244641004Y-132874922D01*
X244641005Y-132874924D01*
X244720024Y-133022758D01*
X244768687Y-133183177D01*
X244785117Y-133350000D01*
X244768687Y-133516823D01*
X244720024Y-133677242D01*
X244679477Y-133753100D01*
X244641004Y-133825078D01*
X244534659Y-133954659D01*
X244405078Y-134061004D01*
X244405076Y-134061005D01*
X244257242Y-134140024D01*
X244096823Y-134188687D01*
X243971804Y-134201000D01*
X243888196Y-134201000D01*
X243763177Y-134188687D01*
X243602758Y-134140024D01*
X243454924Y-134061005D01*
X243454922Y-134061004D01*
X243325341Y-133954659D01*
X243218996Y-133825078D01*
X243180523Y-133753100D01*
X243139976Y-133677242D01*
X243091313Y-133516823D01*
X243074883Y-133350000D01*
X243091313Y-133183177D01*
X243139976Y-133022758D01*
X243218995Y-132874924D01*
X243218996Y-132874922D01*
X243325341Y-132745341D01*
X243454922Y-132638996D01*
X243470094Y-132630886D01*
X243602758Y-132559976D01*
X243763177Y-132511313D01*
X243888196Y-132499000D01*
X243971804Y-132499000D01*
X244096823Y-132511313D01*
X244096823Y-132511313D01*
G37*
G36*
X267235442Y-132205518D02*
G01*
X267301627Y-132212037D01*
X267471466Y-132263557D01*
X267627991Y-132347222D01*
X267663729Y-132376552D01*
X267765186Y-132459814D01*
X267847385Y-132559975D01*
X267877778Y-132597009D01*
X267961443Y-132753534D01*
X268012963Y-132923373D01*
X268030359Y-133100000D01*
X268012963Y-133276627D01*
X267961443Y-133446466D01*
X267877778Y-133602991D01*
X267848448Y-133638729D01*
X267765186Y-133740186D01*
X267663729Y-133823448D01*
X267627991Y-133852778D01*
X267471466Y-133936443D01*
X267301627Y-133987963D01*
X267235443Y-133994481D01*
X267169260Y-134001000D01*
X266830740Y-134001000D01*
X266764557Y-133994481D01*
X266698373Y-133987963D01*
X266528534Y-133936443D01*
X266372009Y-133852778D01*
X266336271Y-133823448D01*
X266234814Y-133740186D01*
X266151552Y-133638729D01*
X266122222Y-133602991D01*
X266038557Y-133446466D01*
X265987037Y-133276627D01*
X265969641Y-133100000D01*
X265987037Y-132923373D01*
X266038557Y-132753534D01*
X266122222Y-132597009D01*
X266152615Y-132559975D01*
X266234814Y-132459814D01*
X266336271Y-132376552D01*
X266372009Y-132347222D01*
X266528534Y-132263557D01*
X266698373Y-132212037D01*
X266764558Y-132205518D01*
X266830740Y-132199000D01*
X267169260Y-132199000D01*
X267235442Y-132205518D01*
X267235442Y-132205518D01*
G37*
G36*
X267883600Y-129702989D02*
G01*
X267916652Y-129713015D01*
X267947103Y-129729292D01*
X267973799Y-129751201D01*
X267995708Y-129777897D01*
X268011985Y-129808348D01*
X268022011Y-129841400D01*
X268026000Y-129881903D01*
X268026000Y-131318097D01*
X268022011Y-131358600D01*
X268011985Y-131391652D01*
X267995708Y-131422103D01*
X267973799Y-131448799D01*
X267947103Y-131470708D01*
X267916652Y-131486985D01*
X267883600Y-131497011D01*
X267843097Y-131501000D01*
X266156903Y-131501000D01*
X266116400Y-131497011D01*
X266083348Y-131486985D01*
X266052897Y-131470708D01*
X266026201Y-131448799D01*
X266004292Y-131422103D01*
X265988015Y-131391652D01*
X265977989Y-131358600D01*
X265974000Y-131318097D01*
X265974000Y-129881903D01*
X265977989Y-129841400D01*
X265988015Y-129808348D01*
X266004292Y-129777897D01*
X266026201Y-129751201D01*
X266052897Y-129729292D01*
X266083348Y-129713015D01*
X266116400Y-129702989D01*
X266156903Y-129699000D01*
X267843097Y-129699000D01*
X267883600Y-129702989D01*
X267883600Y-129702989D01*
G37*
G36*
X230148228Y-129731703D02*
G01*
X230303100Y-129795853D01*
X230442481Y-129888985D01*
X230561015Y-130007519D01*
X230654147Y-130146900D01*
X230718297Y-130301772D01*
X230751000Y-130466184D01*
X230751000Y-130633816D01*
X230718297Y-130798228D01*
X230654147Y-130953100D01*
X230561015Y-131092481D01*
X230442481Y-131211015D01*
X230303100Y-131304147D01*
X230148228Y-131368297D01*
X229983816Y-131401000D01*
X229816184Y-131401000D01*
X229651772Y-131368297D01*
X229496900Y-131304147D01*
X229357519Y-131211015D01*
X229238985Y-131092481D01*
X229145853Y-130953100D01*
X229081703Y-130798228D01*
X229049000Y-130633816D01*
X229049000Y-130466184D01*
X229081703Y-130301772D01*
X229145853Y-130146900D01*
X229238985Y-130007519D01*
X229357519Y-129888985D01*
X229496900Y-129795853D01*
X229651772Y-129731703D01*
X229816184Y-129699000D01*
X229983816Y-129699000D01*
X230148228Y-129731703D01*
X230148228Y-129731703D01*
G37*
G36*
X225148228Y-129731703D02*
G01*
X225303100Y-129795853D01*
X225442481Y-129888985D01*
X225561015Y-130007519D01*
X225654147Y-130146900D01*
X225718297Y-130301772D01*
X225751000Y-130466184D01*
X225751000Y-130633816D01*
X225718297Y-130798228D01*
X225654147Y-130953100D01*
X225561015Y-131092481D01*
X225442481Y-131211015D01*
X225303100Y-131304147D01*
X225148228Y-131368297D01*
X224983816Y-131401000D01*
X224816184Y-131401000D01*
X224651772Y-131368297D01*
X224496900Y-131304147D01*
X224357519Y-131211015D01*
X224238985Y-131092481D01*
X224145853Y-130953100D01*
X224081703Y-130798228D01*
X224049000Y-130633816D01*
X224049000Y-130466184D01*
X224081703Y-130301772D01*
X224145853Y-130146900D01*
X224238985Y-130007519D01*
X224357519Y-129888985D01*
X224496900Y-129795853D01*
X224651772Y-129731703D01*
X224816184Y-129699000D01*
X224983816Y-129699000D01*
X225148228Y-129731703D01*
X225148228Y-129731703D01*
G37*
G36*
X233466823Y-129691313D02*
G01*
X233627242Y-129739976D01*
X233731780Y-129795853D01*
X233775078Y-129818996D01*
X233904659Y-129925341D01*
X234011004Y-130054922D01*
X234011005Y-130054924D01*
X234090024Y-130202758D01*
X234138687Y-130363177D01*
X234155117Y-130530000D01*
X234138687Y-130696823D01*
X234090024Y-130857242D01*
X234071188Y-130892481D01*
X234011004Y-131005078D01*
X233904659Y-131134659D01*
X233775078Y-131241004D01*
X233775076Y-131241005D01*
X233627242Y-131320024D01*
X233466823Y-131368687D01*
X233341804Y-131381000D01*
X233258196Y-131381000D01*
X233133177Y-131368687D01*
X232972758Y-131320024D01*
X232824924Y-131241005D01*
X232824922Y-131241004D01*
X232695341Y-131134659D01*
X232588996Y-131005078D01*
X232528812Y-130892481D01*
X232509976Y-130857242D01*
X232461313Y-130696823D01*
X232444883Y-130530000D01*
X232461313Y-130363177D01*
X232509976Y-130202758D01*
X232588995Y-130054924D01*
X232588996Y-130054922D01*
X232695341Y-129925341D01*
X232824922Y-129818996D01*
X232868220Y-129795853D01*
X232972758Y-129739976D01*
X233133177Y-129691313D01*
X233258196Y-129679000D01*
X233341804Y-129679000D01*
X233466823Y-129691313D01*
X233466823Y-129691313D01*
G37*
G36*
X241086823Y-129691313D02*
G01*
X241247242Y-129739976D01*
X241351780Y-129795853D01*
X241395078Y-129818996D01*
X241524659Y-129925341D01*
X241631004Y-130054922D01*
X241631005Y-130054924D01*
X241710024Y-130202758D01*
X241758687Y-130363177D01*
X241775117Y-130530000D01*
X241758687Y-130696823D01*
X241710024Y-130857242D01*
X241691188Y-130892481D01*
X241631004Y-131005078D01*
X241524659Y-131134659D01*
X241395078Y-131241004D01*
X241395076Y-131241005D01*
X241247242Y-131320024D01*
X241086823Y-131368687D01*
X240961804Y-131381000D01*
X240878196Y-131381000D01*
X240753177Y-131368687D01*
X240592758Y-131320024D01*
X240444924Y-131241005D01*
X240444922Y-131241004D01*
X240315341Y-131134659D01*
X240208996Y-131005078D01*
X240148812Y-130892481D01*
X240129976Y-130857242D01*
X240081313Y-130696823D01*
X240064883Y-130530000D01*
X240081313Y-130363177D01*
X240129976Y-130202758D01*
X240208995Y-130054924D01*
X240208996Y-130054922D01*
X240315341Y-129925341D01*
X240444922Y-129818996D01*
X240488220Y-129795853D01*
X240592758Y-129739976D01*
X240753177Y-129691313D01*
X240878196Y-129679000D01*
X240961804Y-129679000D01*
X241086823Y-129691313D01*
X241086823Y-129691313D01*
G37*
G36*
X238546823Y-129691313D02*
G01*
X238707242Y-129739976D01*
X238811780Y-129795853D01*
X238855078Y-129818996D01*
X238984659Y-129925341D01*
X239091004Y-130054922D01*
X239091005Y-130054924D01*
X239170024Y-130202758D01*
X239218687Y-130363177D01*
X239235117Y-130530000D01*
X239218687Y-130696823D01*
X239170024Y-130857242D01*
X239151188Y-130892481D01*
X239091004Y-131005078D01*
X238984659Y-131134659D01*
X238855078Y-131241004D01*
X238855076Y-131241005D01*
X238707242Y-131320024D01*
X238546823Y-131368687D01*
X238421804Y-131381000D01*
X238338196Y-131381000D01*
X238213177Y-131368687D01*
X238052758Y-131320024D01*
X237904924Y-131241005D01*
X237904922Y-131241004D01*
X237775341Y-131134659D01*
X237668996Y-131005078D01*
X237608812Y-130892481D01*
X237589976Y-130857242D01*
X237541313Y-130696823D01*
X237524883Y-130530000D01*
X237541313Y-130363177D01*
X237589976Y-130202758D01*
X237668995Y-130054924D01*
X237668996Y-130054922D01*
X237775341Y-129925341D01*
X237904922Y-129818996D01*
X237948220Y-129795853D01*
X238052758Y-129739976D01*
X238213177Y-129691313D01*
X238338196Y-129679000D01*
X238421804Y-129679000D01*
X238546823Y-129691313D01*
X238546823Y-129691313D01*
G37*
G36*
X236006823Y-129691313D02*
G01*
X236167242Y-129739976D01*
X236271780Y-129795853D01*
X236315078Y-129818996D01*
X236444659Y-129925341D01*
X236551004Y-130054922D01*
X236551005Y-130054924D01*
X236630024Y-130202758D01*
X236678687Y-130363177D01*
X236695117Y-130530000D01*
X236678687Y-130696823D01*
X236630024Y-130857242D01*
X236611188Y-130892481D01*
X236551004Y-131005078D01*
X236444659Y-131134659D01*
X236315078Y-131241004D01*
X236315076Y-131241005D01*
X236167242Y-131320024D01*
X236006823Y-131368687D01*
X235881804Y-131381000D01*
X235798196Y-131381000D01*
X235673177Y-131368687D01*
X235512758Y-131320024D01*
X235364924Y-131241005D01*
X235364922Y-131241004D01*
X235235341Y-131134659D01*
X235128996Y-131005078D01*
X235068812Y-130892481D01*
X235049976Y-130857242D01*
X235001313Y-130696823D01*
X234984883Y-130530000D01*
X235001313Y-130363177D01*
X235049976Y-130202758D01*
X235128995Y-130054924D01*
X235128996Y-130054922D01*
X235235341Y-129925341D01*
X235364922Y-129818996D01*
X235408220Y-129795853D01*
X235512758Y-129739976D01*
X235673177Y-129691313D01*
X235798196Y-129679000D01*
X235881804Y-129679000D01*
X236006823Y-129691313D01*
X236006823Y-129691313D01*
G37*
G36*
X251798228Y-129531703D02*
G01*
X251953100Y-129595853D01*
X252092481Y-129688985D01*
X252211015Y-129807519D01*
X252304147Y-129946900D01*
X252368297Y-130101772D01*
X252401000Y-130266184D01*
X252401000Y-130433816D01*
X252368297Y-130598228D01*
X252304147Y-130753100D01*
X252211015Y-130892481D01*
X252092481Y-131011015D01*
X251953100Y-131104147D01*
X251798228Y-131168297D01*
X251633816Y-131201000D01*
X251466184Y-131201000D01*
X251301772Y-131168297D01*
X251146900Y-131104147D01*
X251007519Y-131011015D01*
X250888985Y-130892481D01*
X250795853Y-130753100D01*
X250731703Y-130598228D01*
X250699000Y-130433816D01*
X250699000Y-130266184D01*
X250731703Y-130101772D01*
X250795853Y-129946900D01*
X250888985Y-129807519D01*
X251007519Y-129688985D01*
X251146900Y-129595853D01*
X251301772Y-129531703D01*
X251466184Y-129499000D01*
X251633816Y-129499000D01*
X251798228Y-129531703D01*
X251798228Y-129531703D01*
G37*
G36*
X244096823Y-129511313D02*
G01*
X244257242Y-129559976D01*
X244324361Y-129595852D01*
X244405078Y-129638996D01*
X244534659Y-129745341D01*
X244641004Y-129874922D01*
X244641005Y-129874924D01*
X244720024Y-130022758D01*
X244768687Y-130183177D01*
X244785117Y-130350000D01*
X244768687Y-130516823D01*
X244720024Y-130677242D01*
X244679477Y-130753100D01*
X244641004Y-130825078D01*
X244534659Y-130954659D01*
X244405078Y-131061004D01*
X244405076Y-131061005D01*
X244257242Y-131140024D01*
X244096823Y-131188687D01*
X243971804Y-131201000D01*
X243888196Y-131201000D01*
X243763177Y-131188687D01*
X243602758Y-131140024D01*
X243454924Y-131061005D01*
X243454922Y-131061004D01*
X243325341Y-130954659D01*
X243218996Y-130825078D01*
X243180523Y-130753100D01*
X243139976Y-130677242D01*
X243091313Y-130516823D01*
X243074883Y-130350000D01*
X243091313Y-130183177D01*
X243139976Y-130022758D01*
X243218995Y-129874924D01*
X243218996Y-129874922D01*
X243325341Y-129745341D01*
X243454922Y-129638996D01*
X243535639Y-129595852D01*
X243602758Y-129559976D01*
X243763177Y-129511313D01*
X243888196Y-129499000D01*
X243971804Y-129499000D01*
X244096823Y-129511313D01*
X244096823Y-129511313D01*
G37*
G36*
X236210443Y-126105519D02*
G01*
X236276627Y-126112037D01*
X236446466Y-126163557D01*
X236602991Y-126247222D01*
X236638729Y-126276552D01*
X236740186Y-126359814D01*
X236823448Y-126461271D01*
X236852778Y-126497009D01*
X236852779Y-126497011D01*
X236930535Y-126642480D01*
X236936443Y-126653534D01*
X236987963Y-126823373D01*
X237005359Y-127000000D01*
X236987963Y-127176627D01*
X236936443Y-127346466D01*
X236852778Y-127502991D01*
X236823448Y-127538729D01*
X236740186Y-127640186D01*
X236638729Y-127723448D01*
X236602991Y-127752778D01*
X236446466Y-127836443D01*
X236276627Y-127887963D01*
X236210442Y-127894482D01*
X236144260Y-127901000D01*
X236055740Y-127901000D01*
X235989558Y-127894482D01*
X235923373Y-127887963D01*
X235753534Y-127836443D01*
X235597009Y-127752778D01*
X235561271Y-127723448D01*
X235459814Y-127640186D01*
X235376552Y-127538729D01*
X235347222Y-127502991D01*
X235263557Y-127346466D01*
X235212037Y-127176627D01*
X235194641Y-127000000D01*
X235212037Y-126823373D01*
X235263557Y-126653534D01*
X235269466Y-126642480D01*
X235347221Y-126497011D01*
X235347222Y-126497009D01*
X235376552Y-126461271D01*
X235459814Y-126359814D01*
X235561271Y-126276552D01*
X235597009Y-126247222D01*
X235753534Y-126163557D01*
X235923373Y-126112037D01*
X235989557Y-126105519D01*
X236055740Y-126099000D01*
X236144260Y-126099000D01*
X236210443Y-126105519D01*
X236210443Y-126105519D01*
G37*
G36*
X256530443Y-126105519D02*
G01*
X256596627Y-126112037D01*
X256766466Y-126163557D01*
X256922991Y-126247222D01*
X256958729Y-126276552D01*
X257060186Y-126359814D01*
X257143448Y-126461271D01*
X257172778Y-126497009D01*
X257172779Y-126497011D01*
X257250535Y-126642480D01*
X257256443Y-126653534D01*
X257307963Y-126823373D01*
X257325359Y-127000000D01*
X257307963Y-127176627D01*
X257256443Y-127346466D01*
X257172778Y-127502991D01*
X257143448Y-127538729D01*
X257060186Y-127640186D01*
X256958729Y-127723448D01*
X256922991Y-127752778D01*
X256766466Y-127836443D01*
X256596627Y-127887963D01*
X256530442Y-127894482D01*
X256464260Y-127901000D01*
X256375740Y-127901000D01*
X256309558Y-127894482D01*
X256243373Y-127887963D01*
X256073534Y-127836443D01*
X255917009Y-127752778D01*
X255881271Y-127723448D01*
X255779814Y-127640186D01*
X255696552Y-127538729D01*
X255667222Y-127502991D01*
X255583557Y-127346466D01*
X255532037Y-127176627D01*
X255514641Y-127000000D01*
X255532037Y-126823373D01*
X255583557Y-126653534D01*
X255589466Y-126642480D01*
X255667221Y-126497011D01*
X255667222Y-126497009D01*
X255696552Y-126461271D01*
X255779814Y-126359814D01*
X255881271Y-126276552D01*
X255917009Y-126247222D01*
X256073534Y-126163557D01*
X256243373Y-126112037D01*
X256309557Y-126105519D01*
X256375740Y-126099000D01*
X256464260Y-126099000D01*
X256530443Y-126105519D01*
X256530443Y-126105519D01*
G37*
G36*
X253990443Y-126105519D02*
G01*
X254056627Y-126112037D01*
X254226466Y-126163557D01*
X254382991Y-126247222D01*
X254418729Y-126276552D01*
X254520186Y-126359814D01*
X254603448Y-126461271D01*
X254632778Y-126497009D01*
X254632779Y-126497011D01*
X254710535Y-126642480D01*
X254716443Y-126653534D01*
X254767963Y-126823373D01*
X254785359Y-127000000D01*
X254767963Y-127176627D01*
X254716443Y-127346466D01*
X254632778Y-127502991D01*
X254603448Y-127538729D01*
X254520186Y-127640186D01*
X254418729Y-127723448D01*
X254382991Y-127752778D01*
X254226466Y-127836443D01*
X254056627Y-127887963D01*
X253990442Y-127894482D01*
X253924260Y-127901000D01*
X253835740Y-127901000D01*
X253769558Y-127894482D01*
X253703373Y-127887963D01*
X253533534Y-127836443D01*
X253377009Y-127752778D01*
X253341271Y-127723448D01*
X253239814Y-127640186D01*
X253156552Y-127538729D01*
X253127222Y-127502991D01*
X253043557Y-127346466D01*
X252992037Y-127176627D01*
X252974641Y-127000000D01*
X252992037Y-126823373D01*
X253043557Y-126653534D01*
X253049466Y-126642480D01*
X253127221Y-126497011D01*
X253127222Y-126497009D01*
X253156552Y-126461271D01*
X253239814Y-126359814D01*
X253341271Y-126276552D01*
X253377009Y-126247222D01*
X253533534Y-126163557D01*
X253703373Y-126112037D01*
X253769557Y-126105519D01*
X253835740Y-126099000D01*
X253924260Y-126099000D01*
X253990443Y-126105519D01*
X253990443Y-126105519D01*
G37*
G36*
X251450443Y-126105519D02*
G01*
X251516627Y-126112037D01*
X251686466Y-126163557D01*
X251842991Y-126247222D01*
X251878729Y-126276552D01*
X251980186Y-126359814D01*
X252063448Y-126461271D01*
X252092778Y-126497009D01*
X252092779Y-126497011D01*
X252170535Y-126642480D01*
X252176443Y-126653534D01*
X252227963Y-126823373D01*
X252245359Y-127000000D01*
X252227963Y-127176627D01*
X252176443Y-127346466D01*
X252092778Y-127502991D01*
X252063448Y-127538729D01*
X251980186Y-127640186D01*
X251878729Y-127723448D01*
X251842991Y-127752778D01*
X251686466Y-127836443D01*
X251516627Y-127887963D01*
X251450442Y-127894482D01*
X251384260Y-127901000D01*
X251295740Y-127901000D01*
X251229558Y-127894482D01*
X251163373Y-127887963D01*
X250993534Y-127836443D01*
X250837009Y-127752778D01*
X250801271Y-127723448D01*
X250699814Y-127640186D01*
X250616552Y-127538729D01*
X250587222Y-127502991D01*
X250503557Y-127346466D01*
X250452037Y-127176627D01*
X250434641Y-127000000D01*
X250452037Y-126823373D01*
X250503557Y-126653534D01*
X250509466Y-126642480D01*
X250587221Y-126497011D01*
X250587222Y-126497009D01*
X250616552Y-126461271D01*
X250699814Y-126359814D01*
X250801271Y-126276552D01*
X250837009Y-126247222D01*
X250993534Y-126163557D01*
X251163373Y-126112037D01*
X251229557Y-126105519D01*
X251295740Y-126099000D01*
X251384260Y-126099000D01*
X251450443Y-126105519D01*
X251450443Y-126105519D01*
G37*
G36*
X246370443Y-126105519D02*
G01*
X246436627Y-126112037D01*
X246606466Y-126163557D01*
X246762991Y-126247222D01*
X246798729Y-126276552D01*
X246900186Y-126359814D01*
X246983448Y-126461271D01*
X247012778Y-126497009D01*
X247012779Y-126497011D01*
X247090535Y-126642480D01*
X247096443Y-126653534D01*
X247147963Y-126823373D01*
X247165359Y-127000000D01*
X247147963Y-127176627D01*
X247096443Y-127346466D01*
X247012778Y-127502991D01*
X246983448Y-127538729D01*
X246900186Y-127640186D01*
X246798729Y-127723448D01*
X246762991Y-127752778D01*
X246606466Y-127836443D01*
X246436627Y-127887963D01*
X246370442Y-127894482D01*
X246304260Y-127901000D01*
X246215740Y-127901000D01*
X246149558Y-127894482D01*
X246083373Y-127887963D01*
X245913534Y-127836443D01*
X245757009Y-127752778D01*
X245721271Y-127723448D01*
X245619814Y-127640186D01*
X245536552Y-127538729D01*
X245507222Y-127502991D01*
X245423557Y-127346466D01*
X245372037Y-127176627D01*
X245354641Y-127000000D01*
X245372037Y-126823373D01*
X245423557Y-126653534D01*
X245429466Y-126642480D01*
X245507221Y-126497011D01*
X245507222Y-126497009D01*
X245536552Y-126461271D01*
X245619814Y-126359814D01*
X245721271Y-126276552D01*
X245757009Y-126247222D01*
X245913534Y-126163557D01*
X246083373Y-126112037D01*
X246149557Y-126105519D01*
X246215740Y-126099000D01*
X246304260Y-126099000D01*
X246370443Y-126105519D01*
X246370443Y-126105519D01*
G37*
G36*
X259070443Y-126105519D02*
G01*
X259136627Y-126112037D01*
X259306466Y-126163557D01*
X259462991Y-126247222D01*
X259498729Y-126276552D01*
X259600186Y-126359814D01*
X259683448Y-126461271D01*
X259712778Y-126497009D01*
X259712779Y-126497011D01*
X259790535Y-126642480D01*
X259796443Y-126653534D01*
X259847963Y-126823373D01*
X259865359Y-127000000D01*
X259847963Y-127176627D01*
X259796443Y-127346466D01*
X259712778Y-127502991D01*
X259683448Y-127538729D01*
X259600186Y-127640186D01*
X259498729Y-127723448D01*
X259462991Y-127752778D01*
X259306466Y-127836443D01*
X259136627Y-127887963D01*
X259070442Y-127894482D01*
X259004260Y-127901000D01*
X258915740Y-127901000D01*
X258849558Y-127894482D01*
X258783373Y-127887963D01*
X258613534Y-127836443D01*
X258457009Y-127752778D01*
X258421271Y-127723448D01*
X258319814Y-127640186D01*
X258236552Y-127538729D01*
X258207222Y-127502991D01*
X258123557Y-127346466D01*
X258072037Y-127176627D01*
X258054641Y-127000000D01*
X258072037Y-126823373D01*
X258123557Y-126653534D01*
X258129466Y-126642480D01*
X258207221Y-126497011D01*
X258207222Y-126497009D01*
X258236552Y-126461271D01*
X258319814Y-126359814D01*
X258421271Y-126276552D01*
X258457009Y-126247222D01*
X258613534Y-126163557D01*
X258783373Y-126112037D01*
X258849557Y-126105519D01*
X258915740Y-126099000D01*
X259004260Y-126099000D01*
X259070443Y-126105519D01*
X259070443Y-126105519D01*
G37*
G36*
X243830443Y-126105519D02*
G01*
X243896627Y-126112037D01*
X244066466Y-126163557D01*
X244222991Y-126247222D01*
X244258729Y-126276552D01*
X244360186Y-126359814D01*
X244443448Y-126461271D01*
X244472778Y-126497009D01*
X244472779Y-126497011D01*
X244550535Y-126642480D01*
X244556443Y-126653534D01*
X244607963Y-126823373D01*
X244625359Y-127000000D01*
X244607963Y-127176627D01*
X244556443Y-127346466D01*
X244472778Y-127502991D01*
X244443448Y-127538729D01*
X244360186Y-127640186D01*
X244258729Y-127723448D01*
X244222991Y-127752778D01*
X244066466Y-127836443D01*
X243896627Y-127887963D01*
X243830442Y-127894482D01*
X243764260Y-127901000D01*
X243675740Y-127901000D01*
X243609558Y-127894482D01*
X243543373Y-127887963D01*
X243373534Y-127836443D01*
X243217009Y-127752778D01*
X243181271Y-127723448D01*
X243079814Y-127640186D01*
X242996552Y-127538729D01*
X242967222Y-127502991D01*
X242883557Y-127346466D01*
X242832037Y-127176627D01*
X242814641Y-127000000D01*
X242832037Y-126823373D01*
X242883557Y-126653534D01*
X242889466Y-126642480D01*
X242967221Y-126497011D01*
X242967222Y-126497009D01*
X242996552Y-126461271D01*
X243079814Y-126359814D01*
X243181271Y-126276552D01*
X243217009Y-126247222D01*
X243373534Y-126163557D01*
X243543373Y-126112037D01*
X243609557Y-126105519D01*
X243675740Y-126099000D01*
X243764260Y-126099000D01*
X243830443Y-126105519D01*
X243830443Y-126105519D01*
G37*
G36*
X241290443Y-126105519D02*
G01*
X241356627Y-126112037D01*
X241526466Y-126163557D01*
X241682991Y-126247222D01*
X241718729Y-126276552D01*
X241820186Y-126359814D01*
X241903448Y-126461271D01*
X241932778Y-126497009D01*
X241932779Y-126497011D01*
X242010535Y-126642480D01*
X242016443Y-126653534D01*
X242067963Y-126823373D01*
X242085359Y-127000000D01*
X242067963Y-127176627D01*
X242016443Y-127346466D01*
X241932778Y-127502991D01*
X241903448Y-127538729D01*
X241820186Y-127640186D01*
X241718729Y-127723448D01*
X241682991Y-127752778D01*
X241526466Y-127836443D01*
X241356627Y-127887963D01*
X241290442Y-127894482D01*
X241224260Y-127901000D01*
X241135740Y-127901000D01*
X241069558Y-127894482D01*
X241003373Y-127887963D01*
X240833534Y-127836443D01*
X240677009Y-127752778D01*
X240641271Y-127723448D01*
X240539814Y-127640186D01*
X240456552Y-127538729D01*
X240427222Y-127502991D01*
X240343557Y-127346466D01*
X240292037Y-127176627D01*
X240274641Y-127000000D01*
X240292037Y-126823373D01*
X240343557Y-126653534D01*
X240349466Y-126642480D01*
X240427221Y-126497011D01*
X240427222Y-126497009D01*
X240456552Y-126461271D01*
X240539814Y-126359814D01*
X240641271Y-126276552D01*
X240677009Y-126247222D01*
X240833534Y-126163557D01*
X241003373Y-126112037D01*
X241069557Y-126105519D01*
X241135740Y-126099000D01*
X241224260Y-126099000D01*
X241290443Y-126105519D01*
X241290443Y-126105519D01*
G37*
G36*
X238750443Y-126105519D02*
G01*
X238816627Y-126112037D01*
X238986466Y-126163557D01*
X239142991Y-126247222D01*
X239178729Y-126276552D01*
X239280186Y-126359814D01*
X239363448Y-126461271D01*
X239392778Y-126497009D01*
X239392779Y-126497011D01*
X239470535Y-126642480D01*
X239476443Y-126653534D01*
X239527963Y-126823373D01*
X239545359Y-127000000D01*
X239527963Y-127176627D01*
X239476443Y-127346466D01*
X239392778Y-127502991D01*
X239363448Y-127538729D01*
X239280186Y-127640186D01*
X239178729Y-127723448D01*
X239142991Y-127752778D01*
X238986466Y-127836443D01*
X238816627Y-127887963D01*
X238750442Y-127894482D01*
X238684260Y-127901000D01*
X238595740Y-127901000D01*
X238529558Y-127894482D01*
X238463373Y-127887963D01*
X238293534Y-127836443D01*
X238137009Y-127752778D01*
X238101271Y-127723448D01*
X237999814Y-127640186D01*
X237916552Y-127538729D01*
X237887222Y-127502991D01*
X237803557Y-127346466D01*
X237752037Y-127176627D01*
X237734641Y-127000000D01*
X237752037Y-126823373D01*
X237803557Y-126653534D01*
X237809466Y-126642480D01*
X237887221Y-126497011D01*
X237887222Y-126497009D01*
X237916552Y-126461271D01*
X237999814Y-126359814D01*
X238101271Y-126276552D01*
X238137009Y-126247222D01*
X238293534Y-126163557D01*
X238463373Y-126112037D01*
X238529557Y-126105519D01*
X238595740Y-126099000D01*
X238684260Y-126099000D01*
X238750443Y-126105519D01*
X238750443Y-126105519D01*
G37*
G36*
X248910443Y-126105519D02*
G01*
X248976627Y-126112037D01*
X249146466Y-126163557D01*
X249302991Y-126247222D01*
X249338729Y-126276552D01*
X249440186Y-126359814D01*
X249523448Y-126461271D01*
X249552778Y-126497009D01*
X249552779Y-126497011D01*
X249630535Y-126642480D01*
X249636443Y-126653534D01*
X249687963Y-126823373D01*
X249705359Y-127000000D01*
X249687963Y-127176627D01*
X249636443Y-127346466D01*
X249552778Y-127502991D01*
X249523448Y-127538729D01*
X249440186Y-127640186D01*
X249338729Y-127723448D01*
X249302991Y-127752778D01*
X249146466Y-127836443D01*
X248976627Y-127887963D01*
X248910442Y-127894482D01*
X248844260Y-127901000D01*
X248755740Y-127901000D01*
X248689558Y-127894482D01*
X248623373Y-127887963D01*
X248453534Y-127836443D01*
X248297009Y-127752778D01*
X248261271Y-127723448D01*
X248159814Y-127640186D01*
X248076552Y-127538729D01*
X248047222Y-127502991D01*
X247963557Y-127346466D01*
X247912037Y-127176627D01*
X247894641Y-127000000D01*
X247912037Y-126823373D01*
X247963557Y-126653534D01*
X247969466Y-126642480D01*
X248047221Y-126497011D01*
X248047222Y-126497009D01*
X248076552Y-126461271D01*
X248159814Y-126359814D01*
X248261271Y-126276552D01*
X248297009Y-126247222D01*
X248453534Y-126163557D01*
X248623373Y-126112037D01*
X248689557Y-126105519D01*
X248755740Y-126099000D01*
X248844260Y-126099000D01*
X248910443Y-126105519D01*
X248910443Y-126105519D01*
G37*
G36*
X231130443Y-126105519D02*
G01*
X231196627Y-126112037D01*
X231366466Y-126163557D01*
X231522991Y-126247222D01*
X231558729Y-126276552D01*
X231660186Y-126359814D01*
X231743448Y-126461271D01*
X231772778Y-126497009D01*
X231772779Y-126497011D01*
X231850535Y-126642480D01*
X231856443Y-126653534D01*
X231907963Y-126823373D01*
X231925359Y-127000000D01*
X231907963Y-127176627D01*
X231856443Y-127346466D01*
X231772778Y-127502991D01*
X231743448Y-127538729D01*
X231660186Y-127640186D01*
X231558729Y-127723448D01*
X231522991Y-127752778D01*
X231366466Y-127836443D01*
X231196627Y-127887963D01*
X231130442Y-127894482D01*
X231064260Y-127901000D01*
X230975740Y-127901000D01*
X230909558Y-127894482D01*
X230843373Y-127887963D01*
X230673534Y-127836443D01*
X230517009Y-127752778D01*
X230481271Y-127723448D01*
X230379814Y-127640186D01*
X230296552Y-127538729D01*
X230267222Y-127502991D01*
X230183557Y-127346466D01*
X230132037Y-127176627D01*
X230114641Y-127000000D01*
X230132037Y-126823373D01*
X230183557Y-126653534D01*
X230189466Y-126642480D01*
X230267221Y-126497011D01*
X230267222Y-126497009D01*
X230296552Y-126461271D01*
X230379814Y-126359814D01*
X230481271Y-126276552D01*
X230517009Y-126247222D01*
X230673534Y-126163557D01*
X230843373Y-126112037D01*
X230909557Y-126105519D01*
X230975740Y-126099000D01*
X231064260Y-126099000D01*
X231130443Y-126105519D01*
X231130443Y-126105519D01*
G37*
G36*
X228590443Y-126105519D02*
G01*
X228656627Y-126112037D01*
X228826466Y-126163557D01*
X228982991Y-126247222D01*
X229018729Y-126276552D01*
X229120186Y-126359814D01*
X229203448Y-126461271D01*
X229232778Y-126497009D01*
X229232779Y-126497011D01*
X229310535Y-126642480D01*
X229316443Y-126653534D01*
X229367963Y-126823373D01*
X229385359Y-127000000D01*
X229367963Y-127176627D01*
X229316443Y-127346466D01*
X229232778Y-127502991D01*
X229203448Y-127538729D01*
X229120186Y-127640186D01*
X229018729Y-127723448D01*
X228982991Y-127752778D01*
X228826466Y-127836443D01*
X228656627Y-127887963D01*
X228590442Y-127894482D01*
X228524260Y-127901000D01*
X228435740Y-127901000D01*
X228369558Y-127894482D01*
X228303373Y-127887963D01*
X228133534Y-127836443D01*
X227977009Y-127752778D01*
X227941271Y-127723448D01*
X227839814Y-127640186D01*
X227756552Y-127538729D01*
X227727222Y-127502991D01*
X227643557Y-127346466D01*
X227592037Y-127176627D01*
X227574641Y-127000000D01*
X227592037Y-126823373D01*
X227643557Y-126653534D01*
X227649466Y-126642480D01*
X227727221Y-126497011D01*
X227727222Y-126497009D01*
X227756552Y-126461271D01*
X227839814Y-126359814D01*
X227941271Y-126276552D01*
X227977009Y-126247222D01*
X228133534Y-126163557D01*
X228303373Y-126112037D01*
X228369557Y-126105519D01*
X228435740Y-126099000D01*
X228524260Y-126099000D01*
X228590443Y-126105519D01*
X228590443Y-126105519D01*
G37*
G36*
X226050443Y-126105519D02*
G01*
X226116627Y-126112037D01*
X226286466Y-126163557D01*
X226442991Y-126247222D01*
X226478729Y-126276552D01*
X226580186Y-126359814D01*
X226663448Y-126461271D01*
X226692778Y-126497009D01*
X226692779Y-126497011D01*
X226770535Y-126642480D01*
X226776443Y-126653534D01*
X226827963Y-126823373D01*
X226845359Y-127000000D01*
X226827963Y-127176627D01*
X226776443Y-127346466D01*
X226692778Y-127502991D01*
X226663448Y-127538729D01*
X226580186Y-127640186D01*
X226478729Y-127723448D01*
X226442991Y-127752778D01*
X226286466Y-127836443D01*
X226116627Y-127887963D01*
X226050442Y-127894482D01*
X225984260Y-127901000D01*
X225895740Y-127901000D01*
X225829558Y-127894482D01*
X225763373Y-127887963D01*
X225593534Y-127836443D01*
X225437009Y-127752778D01*
X225401271Y-127723448D01*
X225299814Y-127640186D01*
X225216552Y-127538729D01*
X225187222Y-127502991D01*
X225103557Y-127346466D01*
X225052037Y-127176627D01*
X225034641Y-127000000D01*
X225052037Y-126823373D01*
X225103557Y-126653534D01*
X225109466Y-126642480D01*
X225187221Y-126497011D01*
X225187222Y-126497009D01*
X225216552Y-126461271D01*
X225299814Y-126359814D01*
X225401271Y-126276552D01*
X225437009Y-126247222D01*
X225593534Y-126163557D01*
X225763373Y-126112037D01*
X225829557Y-126105519D01*
X225895740Y-126099000D01*
X225984260Y-126099000D01*
X226050443Y-126105519D01*
X226050443Y-126105519D01*
G37*
G36*
X223510443Y-126105519D02*
G01*
X223576627Y-126112037D01*
X223746466Y-126163557D01*
X223902991Y-126247222D01*
X223938729Y-126276552D01*
X224040186Y-126359814D01*
X224123448Y-126461271D01*
X224152778Y-126497009D01*
X224152779Y-126497011D01*
X224230535Y-126642480D01*
X224236443Y-126653534D01*
X224287963Y-126823373D01*
X224305359Y-127000000D01*
X224287963Y-127176627D01*
X224236443Y-127346466D01*
X224152778Y-127502991D01*
X224123448Y-127538729D01*
X224040186Y-127640186D01*
X223938729Y-127723448D01*
X223902991Y-127752778D01*
X223746466Y-127836443D01*
X223576627Y-127887963D01*
X223510442Y-127894482D01*
X223444260Y-127901000D01*
X223355740Y-127901000D01*
X223289558Y-127894482D01*
X223223373Y-127887963D01*
X223053534Y-127836443D01*
X222897009Y-127752778D01*
X222861271Y-127723448D01*
X222759814Y-127640186D01*
X222676552Y-127538729D01*
X222647222Y-127502991D01*
X222563557Y-127346466D01*
X222512037Y-127176627D01*
X222494641Y-127000000D01*
X222512037Y-126823373D01*
X222563557Y-126653534D01*
X222569466Y-126642480D01*
X222647221Y-126497011D01*
X222647222Y-126497009D01*
X222676552Y-126461271D01*
X222759814Y-126359814D01*
X222861271Y-126276552D01*
X222897009Y-126247222D01*
X223053534Y-126163557D01*
X223223373Y-126112037D01*
X223289557Y-126105519D01*
X223355740Y-126099000D01*
X223444260Y-126099000D01*
X223510443Y-126105519D01*
X223510443Y-126105519D01*
G37*
G36*
X220970443Y-126105519D02*
G01*
X221036627Y-126112037D01*
X221206466Y-126163557D01*
X221362991Y-126247222D01*
X221398729Y-126276552D01*
X221500186Y-126359814D01*
X221583448Y-126461271D01*
X221612778Y-126497009D01*
X221612779Y-126497011D01*
X221690535Y-126642480D01*
X221696443Y-126653534D01*
X221747963Y-126823373D01*
X221765359Y-127000000D01*
X221747963Y-127176627D01*
X221696443Y-127346466D01*
X221612778Y-127502991D01*
X221583448Y-127538729D01*
X221500186Y-127640186D01*
X221398729Y-127723448D01*
X221362991Y-127752778D01*
X221206466Y-127836443D01*
X221036627Y-127887963D01*
X220970442Y-127894482D01*
X220904260Y-127901000D01*
X220815740Y-127901000D01*
X220749558Y-127894482D01*
X220683373Y-127887963D01*
X220513534Y-127836443D01*
X220357009Y-127752778D01*
X220321271Y-127723448D01*
X220219814Y-127640186D01*
X220136552Y-127538729D01*
X220107222Y-127502991D01*
X220023557Y-127346466D01*
X219972037Y-127176627D01*
X219954641Y-127000000D01*
X219972037Y-126823373D01*
X220023557Y-126653534D01*
X220029466Y-126642480D01*
X220107221Y-126497011D01*
X220107222Y-126497009D01*
X220136552Y-126461271D01*
X220219814Y-126359814D01*
X220321271Y-126276552D01*
X220357009Y-126247222D01*
X220513534Y-126163557D01*
X220683373Y-126112037D01*
X220749557Y-126105519D01*
X220815740Y-126099000D01*
X220904260Y-126099000D01*
X220970443Y-126105519D01*
X220970443Y-126105519D01*
G37*
G36*
X218430443Y-126105519D02*
G01*
X218496627Y-126112037D01*
X218666466Y-126163557D01*
X218822991Y-126247222D01*
X218858729Y-126276552D01*
X218960186Y-126359814D01*
X219043448Y-126461271D01*
X219072778Y-126497009D01*
X219072779Y-126497011D01*
X219150535Y-126642480D01*
X219156443Y-126653534D01*
X219207963Y-126823373D01*
X219225359Y-127000000D01*
X219207963Y-127176627D01*
X219156443Y-127346466D01*
X219072778Y-127502991D01*
X219043448Y-127538729D01*
X218960186Y-127640186D01*
X218858729Y-127723448D01*
X218822991Y-127752778D01*
X218666466Y-127836443D01*
X218496627Y-127887963D01*
X218430442Y-127894482D01*
X218364260Y-127901000D01*
X218275740Y-127901000D01*
X218209558Y-127894482D01*
X218143373Y-127887963D01*
X217973534Y-127836443D01*
X217817009Y-127752778D01*
X217781271Y-127723448D01*
X217679814Y-127640186D01*
X217596552Y-127538729D01*
X217567222Y-127502991D01*
X217483557Y-127346466D01*
X217432037Y-127176627D01*
X217414641Y-127000000D01*
X217432037Y-126823373D01*
X217483557Y-126653534D01*
X217489466Y-126642480D01*
X217567221Y-126497011D01*
X217567222Y-126497009D01*
X217596552Y-126461271D01*
X217679814Y-126359814D01*
X217781271Y-126276552D01*
X217817009Y-126247222D01*
X217973534Y-126163557D01*
X218143373Y-126112037D01*
X218209557Y-126105519D01*
X218275740Y-126099000D01*
X218364260Y-126099000D01*
X218430443Y-126105519D01*
X218430443Y-126105519D01*
G37*
G36*
X215890443Y-126105519D02*
G01*
X215956627Y-126112037D01*
X216126466Y-126163557D01*
X216282991Y-126247222D01*
X216318729Y-126276552D01*
X216420186Y-126359814D01*
X216503448Y-126461271D01*
X216532778Y-126497009D01*
X216532779Y-126497011D01*
X216610535Y-126642480D01*
X216616443Y-126653534D01*
X216667963Y-126823373D01*
X216685359Y-127000000D01*
X216667963Y-127176627D01*
X216616443Y-127346466D01*
X216532778Y-127502991D01*
X216503448Y-127538729D01*
X216420186Y-127640186D01*
X216318729Y-127723448D01*
X216282991Y-127752778D01*
X216126466Y-127836443D01*
X215956627Y-127887963D01*
X215890442Y-127894482D01*
X215824260Y-127901000D01*
X215735740Y-127901000D01*
X215669558Y-127894482D01*
X215603373Y-127887963D01*
X215433534Y-127836443D01*
X215277009Y-127752778D01*
X215241271Y-127723448D01*
X215139814Y-127640186D01*
X215056552Y-127538729D01*
X215027222Y-127502991D01*
X214943557Y-127346466D01*
X214892037Y-127176627D01*
X214874641Y-127000000D01*
X214892037Y-126823373D01*
X214943557Y-126653534D01*
X214949466Y-126642480D01*
X215027221Y-126497011D01*
X215027222Y-126497009D01*
X215056552Y-126461271D01*
X215139814Y-126359814D01*
X215241271Y-126276552D01*
X215277009Y-126247222D01*
X215433534Y-126163557D01*
X215603373Y-126112037D01*
X215669557Y-126105519D01*
X215735740Y-126099000D01*
X215824260Y-126099000D01*
X215890443Y-126105519D01*
X215890443Y-126105519D01*
G37*
G36*
X213350443Y-126105519D02*
G01*
X213416627Y-126112037D01*
X213586466Y-126163557D01*
X213742991Y-126247222D01*
X213778729Y-126276552D01*
X213880186Y-126359814D01*
X213963448Y-126461271D01*
X213992778Y-126497009D01*
X213992779Y-126497011D01*
X214070535Y-126642480D01*
X214076443Y-126653534D01*
X214127963Y-126823373D01*
X214145359Y-127000000D01*
X214127963Y-127176627D01*
X214076443Y-127346466D01*
X213992778Y-127502991D01*
X213963448Y-127538729D01*
X213880186Y-127640186D01*
X213778729Y-127723448D01*
X213742991Y-127752778D01*
X213586466Y-127836443D01*
X213416627Y-127887963D01*
X213350442Y-127894482D01*
X213284260Y-127901000D01*
X213195740Y-127901000D01*
X213129558Y-127894482D01*
X213063373Y-127887963D01*
X212893534Y-127836443D01*
X212737009Y-127752778D01*
X212701271Y-127723448D01*
X212599814Y-127640186D01*
X212516552Y-127538729D01*
X212487222Y-127502991D01*
X212403557Y-127346466D01*
X212352037Y-127176627D01*
X212334641Y-127000000D01*
X212352037Y-126823373D01*
X212403557Y-126653534D01*
X212409466Y-126642480D01*
X212487221Y-126497011D01*
X212487222Y-126497009D01*
X212516552Y-126461271D01*
X212599814Y-126359814D01*
X212701271Y-126276552D01*
X212737009Y-126247222D01*
X212893534Y-126163557D01*
X213063373Y-126112037D01*
X213129557Y-126105519D01*
X213195740Y-126099000D01*
X213284260Y-126099000D01*
X213350443Y-126105519D01*
X213350443Y-126105519D01*
G37*
G36*
X211601000Y-127901000D02*
G01*
X209799000Y-127901000D01*
X209799000Y-126099000D01*
X211601000Y-126099000D01*
X211601000Y-127901000D01*
X211601000Y-127901000D01*
G37*
G36*
X233670443Y-126105519D02*
G01*
X233736627Y-126112037D01*
X233906466Y-126163557D01*
X234062991Y-126247222D01*
X234098729Y-126276552D01*
X234200186Y-126359814D01*
X234283448Y-126461271D01*
X234312778Y-126497009D01*
X234312779Y-126497011D01*
X234390535Y-126642480D01*
X234396443Y-126653534D01*
X234447963Y-126823373D01*
X234465359Y-127000000D01*
X234447963Y-127176627D01*
X234396443Y-127346466D01*
X234312778Y-127502991D01*
X234283448Y-127538729D01*
X234200186Y-127640186D01*
X234098729Y-127723448D01*
X234062991Y-127752778D01*
X233906466Y-127836443D01*
X233736627Y-127887963D01*
X233670442Y-127894482D01*
X233604260Y-127901000D01*
X233515740Y-127901000D01*
X233449558Y-127894482D01*
X233383373Y-127887963D01*
X233213534Y-127836443D01*
X233057009Y-127752778D01*
X233021271Y-127723448D01*
X232919814Y-127640186D01*
X232836552Y-127538729D01*
X232807222Y-127502991D01*
X232723557Y-127346466D01*
X232672037Y-127176627D01*
X232654641Y-127000000D01*
X232672037Y-126823373D01*
X232723557Y-126653534D01*
X232729466Y-126642480D01*
X232807221Y-126497011D01*
X232807222Y-126497009D01*
X232836552Y-126461271D01*
X232919814Y-126359814D01*
X233021271Y-126276552D01*
X233057009Y-126247222D01*
X233213534Y-126163557D01*
X233383373Y-126112037D01*
X233449557Y-126105519D01*
X233515740Y-126099000D01*
X233604260Y-126099000D01*
X233670443Y-126105519D01*
X233670443Y-126105519D01*
G37*
G36*
X264448228Y-125281703D02*
G01*
X264603100Y-125345853D01*
X264742481Y-125438985D01*
X264861015Y-125557519D01*
X264954147Y-125696900D01*
X265018297Y-125851772D01*
X265051000Y-126016184D01*
X265051000Y-126183816D01*
X265018297Y-126348228D01*
X264954147Y-126503100D01*
X264861015Y-126642481D01*
X264742481Y-126761015D01*
X264603100Y-126854147D01*
X264448228Y-126918297D01*
X264283816Y-126951000D01*
X264116184Y-126951000D01*
X263951772Y-126918297D01*
X263796900Y-126854147D01*
X263657519Y-126761015D01*
X263538985Y-126642481D01*
X263445853Y-126503100D01*
X263381703Y-126348228D01*
X263349000Y-126183816D01*
X263349000Y-126016184D01*
X263381703Y-125851772D01*
X263445853Y-125696900D01*
X263538985Y-125557519D01*
X263657519Y-125438985D01*
X263796900Y-125345853D01*
X263951772Y-125281703D01*
X264116184Y-125249000D01*
X264283816Y-125249000D01*
X264448228Y-125281703D01*
X264448228Y-125281703D01*
G37*
G36*
X267200098Y-123540362D02*
G01*
X267324941Y-123592074D01*
X267324943Y-123592075D01*
X267403194Y-123644361D01*
X267437299Y-123667149D01*
X267532851Y-123762701D01*
X267607926Y-123875059D01*
X267659638Y-123999902D01*
X267686000Y-124132434D01*
X267686000Y-124267566D01*
X267659638Y-124400098D01*
X267607926Y-124524941D01*
X267607925Y-124524943D01*
X267532851Y-124637299D01*
X267437299Y-124732851D01*
X267324943Y-124807925D01*
X267324942Y-124807926D01*
X267324941Y-124807926D01*
X267200098Y-124859638D01*
X267067566Y-124886000D01*
X266932434Y-124886000D01*
X266799902Y-124859638D01*
X266675059Y-124807926D01*
X266675058Y-124807926D01*
X266675057Y-124807925D01*
X266562701Y-124732851D01*
X266467149Y-124637299D01*
X266392075Y-124524943D01*
X266392074Y-124524941D01*
X266340362Y-124400098D01*
X266314000Y-124267566D01*
X266314000Y-124132434D01*
X266340362Y-123999902D01*
X266392074Y-123875059D01*
X266467149Y-123762701D01*
X266562701Y-123667149D01*
X266596806Y-123644361D01*
X266675057Y-123592075D01*
X266675059Y-123592074D01*
X266799902Y-123540362D01*
X266932434Y-123514000D01*
X267067566Y-123514000D01*
X267200098Y-123540362D01*
X267200098Y-123540362D01*
G37*
G36*
X255637293Y-122829507D02*
G01*
X255710225Y-122844014D01*
X255767138Y-122867588D01*
X255847626Y-122900927D01*
X255971284Y-122983553D01*
X256076447Y-123088716D01*
X256159073Y-123212374D01*
X256215986Y-123349776D01*
X256245000Y-123495638D01*
X256245000Y-123644362D01*
X256215986Y-123790224D01*
X256159073Y-123927626D01*
X256076447Y-124051284D01*
X255971284Y-124156447D01*
X255847626Y-124239073D01*
X255778839Y-124267565D01*
X255710225Y-124295986D01*
X255637293Y-124310493D01*
X255564362Y-124325000D01*
X255415638Y-124325000D01*
X255342707Y-124310493D01*
X255269775Y-124295986D01*
X255201161Y-124267565D01*
X255132374Y-124239073D01*
X255008716Y-124156447D01*
X254903553Y-124051284D01*
X254820927Y-123927626D01*
X254764014Y-123790224D01*
X254735000Y-123644362D01*
X254735000Y-123495638D01*
X254764014Y-123349776D01*
X254820927Y-123212374D01*
X254903553Y-123088716D01*
X255008716Y-122983553D01*
X255132374Y-122900927D01*
X255212862Y-122867588D01*
X255269775Y-122844014D01*
X255342707Y-122829507D01*
X255415638Y-122815000D01*
X255564362Y-122815000D01*
X255637293Y-122829507D01*
X255637293Y-122829507D01*
G37*
G36*
X253097293Y-122829507D02*
G01*
X253170225Y-122844014D01*
X253227138Y-122867588D01*
X253307626Y-122900927D01*
X253431284Y-122983553D01*
X253536447Y-123088716D01*
X253619073Y-123212374D01*
X253675986Y-123349776D01*
X253705000Y-123495638D01*
X253705000Y-123644362D01*
X253675986Y-123790224D01*
X253619073Y-123927626D01*
X253536447Y-124051284D01*
X253431284Y-124156447D01*
X253307626Y-124239073D01*
X253238839Y-124267565D01*
X253170225Y-124295986D01*
X253097293Y-124310493D01*
X253024362Y-124325000D01*
X252875638Y-124325000D01*
X252802707Y-124310493D01*
X252729775Y-124295986D01*
X252661161Y-124267565D01*
X252592374Y-124239073D01*
X252468716Y-124156447D01*
X252363553Y-124051284D01*
X252280927Y-123927626D01*
X252224014Y-123790224D01*
X252195000Y-123644362D01*
X252195000Y-123495638D01*
X252224014Y-123349776D01*
X252280927Y-123212374D01*
X252363553Y-123088716D01*
X252468716Y-122983553D01*
X252592374Y-122900927D01*
X252672862Y-122867588D01*
X252729775Y-122844014D01*
X252802707Y-122829507D01*
X252875638Y-122815000D01*
X253024362Y-122815000D01*
X253097293Y-122829507D01*
X253097293Y-122829507D01*
G37*
G36*
X222617293Y-122829507D02*
G01*
X222690225Y-122844014D01*
X222747138Y-122867588D01*
X222827626Y-122900927D01*
X222951284Y-122983553D01*
X223056447Y-123088716D01*
X223139073Y-123212374D01*
X223195986Y-123349776D01*
X223225000Y-123495638D01*
X223225000Y-123644362D01*
X223195986Y-123790224D01*
X223139073Y-123927626D01*
X223056447Y-124051284D01*
X222951284Y-124156447D01*
X222827626Y-124239073D01*
X222758839Y-124267565D01*
X222690225Y-124295986D01*
X222617293Y-124310493D01*
X222544362Y-124325000D01*
X222395638Y-124325000D01*
X222322707Y-124310493D01*
X222249775Y-124295986D01*
X222181161Y-124267565D01*
X222112374Y-124239073D01*
X221988716Y-124156447D01*
X221883553Y-124051284D01*
X221800927Y-123927626D01*
X221744014Y-123790224D01*
X221715000Y-123644362D01*
X221715000Y-123495638D01*
X221744014Y-123349776D01*
X221800927Y-123212374D01*
X221883553Y-123088716D01*
X221988716Y-122983553D01*
X222112374Y-122900927D01*
X222192862Y-122867588D01*
X222249775Y-122844014D01*
X222322707Y-122829507D01*
X222395638Y-122815000D01*
X222544362Y-122815000D01*
X222617293Y-122829507D01*
X222617293Y-122829507D01*
G37*
G36*
X220077293Y-122829507D02*
G01*
X220150225Y-122844014D01*
X220207138Y-122867588D01*
X220287626Y-122900927D01*
X220411284Y-122983553D01*
X220516447Y-123088716D01*
X220599073Y-123212374D01*
X220655986Y-123349776D01*
X220685000Y-123495638D01*
X220685000Y-123644362D01*
X220655986Y-123790224D01*
X220599073Y-123927626D01*
X220516447Y-124051284D01*
X220411284Y-124156447D01*
X220287626Y-124239073D01*
X220218839Y-124267565D01*
X220150225Y-124295986D01*
X220077293Y-124310493D01*
X220004362Y-124325000D01*
X219855638Y-124325000D01*
X219782707Y-124310493D01*
X219709775Y-124295986D01*
X219641161Y-124267565D01*
X219572374Y-124239073D01*
X219448716Y-124156447D01*
X219343553Y-124051284D01*
X219260927Y-123927626D01*
X219204014Y-123790224D01*
X219175000Y-123644362D01*
X219175000Y-123495638D01*
X219204014Y-123349776D01*
X219260927Y-123212374D01*
X219343553Y-123088716D01*
X219448716Y-122983553D01*
X219572374Y-122900927D01*
X219652862Y-122867588D01*
X219709775Y-122844014D01*
X219782707Y-122829507D01*
X219855638Y-122815000D01*
X220004362Y-122815000D01*
X220077293Y-122829507D01*
X220077293Y-122829507D01*
G37*
G36*
X217537293Y-122829507D02*
G01*
X217610225Y-122844014D01*
X217667138Y-122867588D01*
X217747626Y-122900927D01*
X217871284Y-122983553D01*
X217976447Y-123088716D01*
X218059073Y-123212374D01*
X218115986Y-123349776D01*
X218145000Y-123495638D01*
X218145000Y-123644362D01*
X218115986Y-123790224D01*
X218059073Y-123927626D01*
X217976447Y-124051284D01*
X217871284Y-124156447D01*
X217747626Y-124239073D01*
X217678839Y-124267565D01*
X217610225Y-124295986D01*
X217537293Y-124310493D01*
X217464362Y-124325000D01*
X217315638Y-124325000D01*
X217242707Y-124310493D01*
X217169775Y-124295986D01*
X217101161Y-124267565D01*
X217032374Y-124239073D01*
X216908716Y-124156447D01*
X216803553Y-124051284D01*
X216720927Y-123927626D01*
X216664014Y-123790224D01*
X216635000Y-123644362D01*
X216635000Y-123495638D01*
X216664014Y-123349776D01*
X216720927Y-123212374D01*
X216803553Y-123088716D01*
X216908716Y-122983553D01*
X217032374Y-122900927D01*
X217112862Y-122867588D01*
X217169775Y-122844014D01*
X217242707Y-122829507D01*
X217315638Y-122815000D01*
X217464362Y-122815000D01*
X217537293Y-122829507D01*
X217537293Y-122829507D01*
G37*
G36*
X214997293Y-122829507D02*
G01*
X215070225Y-122844014D01*
X215127138Y-122867588D01*
X215207626Y-122900927D01*
X215331284Y-122983553D01*
X215436447Y-123088716D01*
X215519073Y-123212374D01*
X215575986Y-123349776D01*
X215605000Y-123495638D01*
X215605000Y-123644362D01*
X215575986Y-123790224D01*
X215519073Y-123927626D01*
X215436447Y-124051284D01*
X215331284Y-124156447D01*
X215207626Y-124239073D01*
X215138839Y-124267565D01*
X215070225Y-124295986D01*
X214997293Y-124310493D01*
X214924362Y-124325000D01*
X214775638Y-124325000D01*
X214702707Y-124310493D01*
X214629775Y-124295986D01*
X214561161Y-124267565D01*
X214492374Y-124239073D01*
X214368716Y-124156447D01*
X214263553Y-124051284D01*
X214180927Y-123927626D01*
X214124014Y-123790224D01*
X214095000Y-123644362D01*
X214095000Y-123495638D01*
X214124014Y-123349776D01*
X214180927Y-123212374D01*
X214263553Y-123088716D01*
X214368716Y-122983553D01*
X214492374Y-122900927D01*
X214572862Y-122867588D01*
X214629775Y-122844014D01*
X214702707Y-122829507D01*
X214775638Y-122815000D01*
X214924362Y-122815000D01*
X214997293Y-122829507D01*
X214997293Y-122829507D01*
G37*
G36*
X250557293Y-122829507D02*
G01*
X250630225Y-122844014D01*
X250687138Y-122867588D01*
X250767626Y-122900927D01*
X250891284Y-122983553D01*
X250996447Y-123088716D01*
X251079073Y-123212374D01*
X251135986Y-123349776D01*
X251165000Y-123495638D01*
X251165000Y-123644362D01*
X251135986Y-123790224D01*
X251079073Y-123927626D01*
X250996447Y-124051284D01*
X250891284Y-124156447D01*
X250767626Y-124239073D01*
X250698839Y-124267565D01*
X250630225Y-124295986D01*
X250557293Y-124310493D01*
X250484362Y-124325000D01*
X250335638Y-124325000D01*
X250262707Y-124310493D01*
X250189775Y-124295986D01*
X250121161Y-124267565D01*
X250052374Y-124239073D01*
X249928716Y-124156447D01*
X249823553Y-124051284D01*
X249740927Y-123927626D01*
X249684014Y-123790224D01*
X249655000Y-123644362D01*
X249655000Y-123495638D01*
X249684014Y-123349776D01*
X249740927Y-123212374D01*
X249823553Y-123088716D01*
X249928716Y-122983553D01*
X250052374Y-122900927D01*
X250132862Y-122867588D01*
X250189775Y-122844014D01*
X250262707Y-122829507D01*
X250335638Y-122815000D01*
X250484362Y-122815000D01*
X250557293Y-122829507D01*
X250557293Y-122829507D01*
G37*
G36*
X248017293Y-122829507D02*
G01*
X248090225Y-122844014D01*
X248147138Y-122867588D01*
X248227626Y-122900927D01*
X248351284Y-122983553D01*
X248456447Y-123088716D01*
X248539073Y-123212374D01*
X248595986Y-123349776D01*
X248625000Y-123495638D01*
X248625000Y-123644362D01*
X248595986Y-123790224D01*
X248539073Y-123927626D01*
X248456447Y-124051284D01*
X248351284Y-124156447D01*
X248227626Y-124239073D01*
X248158839Y-124267565D01*
X248090225Y-124295986D01*
X248017293Y-124310493D01*
X247944362Y-124325000D01*
X247795638Y-124325000D01*
X247722707Y-124310493D01*
X247649775Y-124295986D01*
X247581161Y-124267565D01*
X247512374Y-124239073D01*
X247388716Y-124156447D01*
X247283553Y-124051284D01*
X247200927Y-123927626D01*
X247144014Y-123790224D01*
X247115000Y-123644362D01*
X247115000Y-123495638D01*
X247144014Y-123349776D01*
X247200927Y-123212374D01*
X247283553Y-123088716D01*
X247388716Y-122983553D01*
X247512374Y-122900927D01*
X247592862Y-122867588D01*
X247649775Y-122844014D01*
X247722707Y-122829507D01*
X247795638Y-122815000D01*
X247944362Y-122815000D01*
X248017293Y-122829507D01*
X248017293Y-122829507D01*
G37*
G36*
X245477293Y-122829507D02*
G01*
X245550225Y-122844014D01*
X245607138Y-122867588D01*
X245687626Y-122900927D01*
X245811284Y-122983553D01*
X245916447Y-123088716D01*
X245999073Y-123212374D01*
X246055986Y-123349776D01*
X246085000Y-123495638D01*
X246085000Y-123644362D01*
X246055986Y-123790224D01*
X245999073Y-123927626D01*
X245916447Y-124051284D01*
X245811284Y-124156447D01*
X245687626Y-124239073D01*
X245618839Y-124267565D01*
X245550225Y-124295986D01*
X245477293Y-124310493D01*
X245404362Y-124325000D01*
X245255638Y-124325000D01*
X245182707Y-124310493D01*
X245109775Y-124295986D01*
X245041161Y-124267565D01*
X244972374Y-124239073D01*
X244848716Y-124156447D01*
X244743553Y-124051284D01*
X244660927Y-123927626D01*
X244604014Y-123790224D01*
X244575000Y-123644362D01*
X244575000Y-123495638D01*
X244604014Y-123349776D01*
X244660927Y-123212374D01*
X244743553Y-123088716D01*
X244848716Y-122983553D01*
X244972374Y-122900927D01*
X245052862Y-122867588D01*
X245109775Y-122844014D01*
X245182707Y-122829507D01*
X245255638Y-122815000D01*
X245404362Y-122815000D01*
X245477293Y-122829507D01*
X245477293Y-122829507D01*
G37*
G36*
X240397293Y-122829507D02*
G01*
X240470225Y-122844014D01*
X240527138Y-122867588D01*
X240607626Y-122900927D01*
X240731284Y-122983553D01*
X240836447Y-123088716D01*
X240919073Y-123212374D01*
X240975986Y-123349776D01*
X241005000Y-123495638D01*
X241005000Y-123644362D01*
X240975986Y-123790224D01*
X240919073Y-123927626D01*
X240836447Y-124051284D01*
X240731284Y-124156447D01*
X240607626Y-124239073D01*
X240538839Y-124267565D01*
X240470225Y-124295986D01*
X240397293Y-124310493D01*
X240324362Y-124325000D01*
X240175638Y-124325000D01*
X240102707Y-124310493D01*
X240029775Y-124295986D01*
X239961161Y-124267565D01*
X239892374Y-124239073D01*
X239768716Y-124156447D01*
X239663553Y-124051284D01*
X239580927Y-123927626D01*
X239524014Y-123790224D01*
X239495000Y-123644362D01*
X239495000Y-123495638D01*
X239524014Y-123349776D01*
X239580927Y-123212374D01*
X239663553Y-123088716D01*
X239768716Y-122983553D01*
X239892374Y-122900927D01*
X239972862Y-122867588D01*
X240029775Y-122844014D01*
X240102707Y-122829507D01*
X240175638Y-122815000D01*
X240324362Y-122815000D01*
X240397293Y-122829507D01*
X240397293Y-122829507D01*
G37*
G36*
X237857293Y-122829507D02*
G01*
X237930225Y-122844014D01*
X237987138Y-122867588D01*
X238067626Y-122900927D01*
X238191284Y-122983553D01*
X238296447Y-123088716D01*
X238379073Y-123212374D01*
X238435986Y-123349776D01*
X238465000Y-123495638D01*
X238465000Y-123644362D01*
X238435986Y-123790224D01*
X238379073Y-123927626D01*
X238296447Y-124051284D01*
X238191284Y-124156447D01*
X238067626Y-124239073D01*
X237998839Y-124267565D01*
X237930225Y-124295986D01*
X237857293Y-124310493D01*
X237784362Y-124325000D01*
X237635638Y-124325000D01*
X237562707Y-124310493D01*
X237489775Y-124295986D01*
X237421161Y-124267565D01*
X237352374Y-124239073D01*
X237228716Y-124156447D01*
X237123553Y-124051284D01*
X237040927Y-123927626D01*
X236984014Y-123790224D01*
X236955000Y-123644362D01*
X236955000Y-123495638D01*
X236984014Y-123349776D01*
X237040927Y-123212374D01*
X237123553Y-123088716D01*
X237228716Y-122983553D01*
X237352374Y-122900927D01*
X237432862Y-122867588D01*
X237489775Y-122844014D01*
X237562707Y-122829507D01*
X237635638Y-122815000D01*
X237784362Y-122815000D01*
X237857293Y-122829507D01*
X237857293Y-122829507D01*
G37*
G36*
X235317293Y-122829507D02*
G01*
X235390225Y-122844014D01*
X235447138Y-122867588D01*
X235527626Y-122900927D01*
X235651284Y-122983553D01*
X235756447Y-123088716D01*
X235839073Y-123212374D01*
X235895986Y-123349776D01*
X235925000Y-123495638D01*
X235925000Y-123644362D01*
X235895986Y-123790224D01*
X235839073Y-123927626D01*
X235756447Y-124051284D01*
X235651284Y-124156447D01*
X235527626Y-124239073D01*
X235458839Y-124267565D01*
X235390225Y-124295986D01*
X235317293Y-124310493D01*
X235244362Y-124325000D01*
X235095638Y-124325000D01*
X235022707Y-124310493D01*
X234949775Y-124295986D01*
X234881161Y-124267565D01*
X234812374Y-124239073D01*
X234688716Y-124156447D01*
X234583553Y-124051284D01*
X234500927Y-123927626D01*
X234444014Y-123790224D01*
X234415000Y-123644362D01*
X234415000Y-123495638D01*
X234444014Y-123349776D01*
X234500927Y-123212374D01*
X234583553Y-123088716D01*
X234688716Y-122983553D01*
X234812374Y-122900927D01*
X234892862Y-122867588D01*
X234949775Y-122844014D01*
X235022707Y-122829507D01*
X235095638Y-122815000D01*
X235244362Y-122815000D01*
X235317293Y-122829507D01*
X235317293Y-122829507D01*
G37*
G36*
X232777293Y-122829507D02*
G01*
X232850225Y-122844014D01*
X232907138Y-122867588D01*
X232987626Y-122900927D01*
X233111284Y-122983553D01*
X233216447Y-123088716D01*
X233299073Y-123212374D01*
X233355986Y-123349776D01*
X233385000Y-123495638D01*
X233385000Y-123644362D01*
X233355986Y-123790224D01*
X233299073Y-123927626D01*
X233216447Y-124051284D01*
X233111284Y-124156447D01*
X232987626Y-124239073D01*
X232918839Y-124267565D01*
X232850225Y-124295986D01*
X232777293Y-124310493D01*
X232704362Y-124325000D01*
X232555638Y-124325000D01*
X232482707Y-124310493D01*
X232409775Y-124295986D01*
X232341161Y-124267565D01*
X232272374Y-124239073D01*
X232148716Y-124156447D01*
X232043553Y-124051284D01*
X231960927Y-123927626D01*
X231904014Y-123790224D01*
X231875000Y-123644362D01*
X231875000Y-123495638D01*
X231904014Y-123349776D01*
X231960927Y-123212374D01*
X232043553Y-123088716D01*
X232148716Y-122983553D01*
X232272374Y-122900927D01*
X232352862Y-122867588D01*
X232409775Y-122844014D01*
X232482707Y-122829507D01*
X232555638Y-122815000D01*
X232704362Y-122815000D01*
X232777293Y-122829507D01*
X232777293Y-122829507D01*
G37*
G36*
X230237293Y-122829507D02*
G01*
X230310225Y-122844014D01*
X230367138Y-122867588D01*
X230447626Y-122900927D01*
X230571284Y-122983553D01*
X230676447Y-123088716D01*
X230759073Y-123212374D01*
X230815986Y-123349776D01*
X230845000Y-123495638D01*
X230845000Y-123644362D01*
X230815986Y-123790224D01*
X230759073Y-123927626D01*
X230676447Y-124051284D01*
X230571284Y-124156447D01*
X230447626Y-124239073D01*
X230378839Y-124267565D01*
X230310225Y-124295986D01*
X230237293Y-124310493D01*
X230164362Y-124325000D01*
X230015638Y-124325000D01*
X229942707Y-124310493D01*
X229869775Y-124295986D01*
X229801161Y-124267565D01*
X229732374Y-124239073D01*
X229608716Y-124156447D01*
X229503553Y-124051284D01*
X229420927Y-123927626D01*
X229364014Y-123790224D01*
X229335000Y-123644362D01*
X229335000Y-123495638D01*
X229364014Y-123349776D01*
X229420927Y-123212374D01*
X229503553Y-123088716D01*
X229608716Y-122983553D01*
X229732374Y-122900927D01*
X229812862Y-122867588D01*
X229869775Y-122844014D01*
X229942707Y-122829507D01*
X230015638Y-122815000D01*
X230164362Y-122815000D01*
X230237293Y-122829507D01*
X230237293Y-122829507D01*
G37*
G36*
X227697293Y-122829507D02*
G01*
X227770225Y-122844014D01*
X227827138Y-122867588D01*
X227907626Y-122900927D01*
X228031284Y-122983553D01*
X228136447Y-123088716D01*
X228219073Y-123212374D01*
X228275986Y-123349776D01*
X228305000Y-123495638D01*
X228305000Y-123644362D01*
X228275986Y-123790224D01*
X228219073Y-123927626D01*
X228136447Y-124051284D01*
X228031284Y-124156447D01*
X227907626Y-124239073D01*
X227838839Y-124267565D01*
X227770225Y-124295986D01*
X227697293Y-124310493D01*
X227624362Y-124325000D01*
X227475638Y-124325000D01*
X227402707Y-124310493D01*
X227329775Y-124295986D01*
X227261161Y-124267565D01*
X227192374Y-124239073D01*
X227068716Y-124156447D01*
X226963553Y-124051284D01*
X226880927Y-123927626D01*
X226824014Y-123790224D01*
X226795000Y-123644362D01*
X226795000Y-123495638D01*
X226824014Y-123349776D01*
X226880927Y-123212374D01*
X226963553Y-123088716D01*
X227068716Y-122983553D01*
X227192374Y-122900927D01*
X227272862Y-122867588D01*
X227329775Y-122844014D01*
X227402707Y-122829507D01*
X227475638Y-122815000D01*
X227624362Y-122815000D01*
X227697293Y-122829507D01*
X227697293Y-122829507D01*
G37*
G36*
X225157293Y-122829507D02*
G01*
X225230225Y-122844014D01*
X225287138Y-122867588D01*
X225367626Y-122900927D01*
X225491284Y-122983553D01*
X225596447Y-123088716D01*
X225679073Y-123212374D01*
X225735986Y-123349776D01*
X225765000Y-123495638D01*
X225765000Y-123644362D01*
X225735986Y-123790224D01*
X225679073Y-123927626D01*
X225596447Y-124051284D01*
X225491284Y-124156447D01*
X225367626Y-124239073D01*
X225298839Y-124267565D01*
X225230225Y-124295986D01*
X225157293Y-124310493D01*
X225084362Y-124325000D01*
X224935638Y-124325000D01*
X224862707Y-124310493D01*
X224789775Y-124295986D01*
X224721161Y-124267565D01*
X224652374Y-124239073D01*
X224528716Y-124156447D01*
X224423553Y-124051284D01*
X224340927Y-123927626D01*
X224284014Y-123790224D01*
X224255000Y-123644362D01*
X224255000Y-123495638D01*
X224284014Y-123349776D01*
X224340927Y-123212374D01*
X224423553Y-123088716D01*
X224528716Y-122983553D01*
X224652374Y-122900927D01*
X224732862Y-122867588D01*
X224789775Y-122844014D01*
X224862707Y-122829507D01*
X224935638Y-122815000D01*
X225084362Y-122815000D01*
X225157293Y-122829507D01*
X225157293Y-122829507D01*
G37*
G36*
X212457293Y-122829507D02*
G01*
X212530225Y-122844014D01*
X212587138Y-122867588D01*
X212667626Y-122900927D01*
X212791284Y-122983553D01*
X212896447Y-123088716D01*
X212979073Y-123212374D01*
X213035986Y-123349776D01*
X213065000Y-123495638D01*
X213065000Y-123644362D01*
X213035986Y-123790224D01*
X212979073Y-123927626D01*
X212896447Y-124051284D01*
X212791284Y-124156447D01*
X212667626Y-124239073D01*
X212598839Y-124267565D01*
X212530225Y-124295986D01*
X212457293Y-124310493D01*
X212384362Y-124325000D01*
X212235638Y-124325000D01*
X212162707Y-124310493D01*
X212089775Y-124295986D01*
X212021161Y-124267565D01*
X211952374Y-124239073D01*
X211828716Y-124156447D01*
X211723553Y-124051284D01*
X211640927Y-123927626D01*
X211584014Y-123790224D01*
X211555000Y-123644362D01*
X211555000Y-123495638D01*
X211584014Y-123349776D01*
X211640927Y-123212374D01*
X211723553Y-123088716D01*
X211828716Y-122983553D01*
X211952374Y-122900927D01*
X212032862Y-122867588D01*
X212089775Y-122844014D01*
X212162707Y-122829507D01*
X212235638Y-122815000D01*
X212384362Y-122815000D01*
X212457293Y-122829507D01*
X212457293Y-122829507D01*
G37*
G36*
X242937293Y-122829507D02*
G01*
X243010225Y-122844014D01*
X243067138Y-122867588D01*
X243147626Y-122900927D01*
X243271284Y-122983553D01*
X243376447Y-123088716D01*
X243459073Y-123212374D01*
X243515986Y-123349776D01*
X243545000Y-123495638D01*
X243545000Y-123644362D01*
X243515986Y-123790224D01*
X243459073Y-123927626D01*
X243376447Y-124051284D01*
X243271284Y-124156447D01*
X243147626Y-124239073D01*
X243078839Y-124267565D01*
X243010225Y-124295986D01*
X242937293Y-124310493D01*
X242864362Y-124325000D01*
X242715638Y-124325000D01*
X242642707Y-124310493D01*
X242569775Y-124295986D01*
X242501161Y-124267565D01*
X242432374Y-124239073D01*
X242308716Y-124156447D01*
X242203553Y-124051284D01*
X242120927Y-123927626D01*
X242064014Y-123790224D01*
X242035000Y-123644362D01*
X242035000Y-123495638D01*
X242064014Y-123349776D01*
X242120927Y-123212374D01*
X242203553Y-123088716D01*
X242308716Y-122983553D01*
X242432374Y-122900927D01*
X242512862Y-122867588D01*
X242569775Y-122844014D01*
X242642707Y-122829507D01*
X242715638Y-122815000D01*
X242864362Y-122815000D01*
X242937293Y-122829507D01*
X242937293Y-122829507D01*
G37*
G36*
X264448228Y-120281703D02*
G01*
X264603100Y-120345853D01*
X264742481Y-120438985D01*
X264861015Y-120557519D01*
X264954147Y-120696900D01*
X265018297Y-120851772D01*
X265051000Y-121016184D01*
X265051000Y-121183816D01*
X265018297Y-121348228D01*
X264954147Y-121503100D01*
X264861015Y-121642481D01*
X264742481Y-121761015D01*
X264603100Y-121854147D01*
X264448228Y-121918297D01*
X264283816Y-121951000D01*
X264116184Y-121951000D01*
X263951772Y-121918297D01*
X263796900Y-121854147D01*
X263657519Y-121761015D01*
X263538985Y-121642481D01*
X263445853Y-121503100D01*
X263381703Y-121348228D01*
X263349000Y-121183816D01*
X263349000Y-121016184D01*
X263381703Y-120851772D01*
X263445853Y-120696900D01*
X263538985Y-120557519D01*
X263657519Y-120438985D01*
X263796900Y-120345853D01*
X263951772Y-120281703D01*
X264116184Y-120249000D01*
X264283816Y-120249000D01*
X264448228Y-120281703D01*
X264448228Y-120281703D01*
G37*
G36*
X230237293Y-120289507D02*
G01*
X230310225Y-120304014D01*
X230367138Y-120327588D01*
X230447626Y-120360927D01*
X230571284Y-120443553D01*
X230676447Y-120548716D01*
X230759073Y-120672374D01*
X230769233Y-120696903D01*
X230815986Y-120809775D01*
X230845000Y-120955639D01*
X230845000Y-121104361D01*
X230829196Y-121183816D01*
X230815986Y-121250224D01*
X230759073Y-121387626D01*
X230676447Y-121511284D01*
X230571284Y-121616447D01*
X230447626Y-121699073D01*
X230367138Y-121732412D01*
X230310225Y-121755986D01*
X230284942Y-121761015D01*
X230164362Y-121785000D01*
X230015638Y-121785000D01*
X229895058Y-121761015D01*
X229869775Y-121755986D01*
X229812862Y-121732412D01*
X229732374Y-121699073D01*
X229608716Y-121616447D01*
X229503553Y-121511284D01*
X229420927Y-121387626D01*
X229364014Y-121250224D01*
X229350805Y-121183816D01*
X229335000Y-121104361D01*
X229335000Y-120955639D01*
X229364014Y-120809775D01*
X229410767Y-120696903D01*
X229420927Y-120672374D01*
X229503553Y-120548716D01*
X229608716Y-120443553D01*
X229732374Y-120360927D01*
X229812862Y-120327588D01*
X229869775Y-120304014D01*
X229942707Y-120289507D01*
X230015638Y-120275000D01*
X230164362Y-120275000D01*
X230237293Y-120289507D01*
X230237293Y-120289507D01*
G37*
G36*
X222617293Y-120289507D02*
G01*
X222690225Y-120304014D01*
X222747138Y-120327588D01*
X222827626Y-120360927D01*
X222951284Y-120443553D01*
X223056447Y-120548716D01*
X223139073Y-120672374D01*
X223149233Y-120696903D01*
X223195986Y-120809775D01*
X223225000Y-120955639D01*
X223225000Y-121104361D01*
X223209196Y-121183816D01*
X223195986Y-121250224D01*
X223139073Y-121387626D01*
X223056447Y-121511284D01*
X222951284Y-121616447D01*
X222827626Y-121699073D01*
X222747138Y-121732412D01*
X222690225Y-121755986D01*
X222664942Y-121761015D01*
X222544362Y-121785000D01*
X222395638Y-121785000D01*
X222275058Y-121761015D01*
X222249775Y-121755986D01*
X222192862Y-121732412D01*
X222112374Y-121699073D01*
X221988716Y-121616447D01*
X221883553Y-121511284D01*
X221800927Y-121387626D01*
X221744014Y-121250224D01*
X221730805Y-121183816D01*
X221715000Y-121104361D01*
X221715000Y-120955639D01*
X221744014Y-120809775D01*
X221790767Y-120696903D01*
X221800927Y-120672374D01*
X221883553Y-120548716D01*
X221988716Y-120443553D01*
X222112374Y-120360927D01*
X222192862Y-120327588D01*
X222249775Y-120304014D01*
X222322707Y-120289507D01*
X222395638Y-120275000D01*
X222544362Y-120275000D01*
X222617293Y-120289507D01*
X222617293Y-120289507D01*
G37*
G36*
X220077293Y-120289507D02*
G01*
X220150225Y-120304014D01*
X220207138Y-120327588D01*
X220287626Y-120360927D01*
X220411284Y-120443553D01*
X220516447Y-120548716D01*
X220599073Y-120672374D01*
X220609233Y-120696903D01*
X220655986Y-120809775D01*
X220685000Y-120955639D01*
X220685000Y-121104361D01*
X220669196Y-121183816D01*
X220655986Y-121250224D01*
X220599073Y-121387626D01*
X220516447Y-121511284D01*
X220411284Y-121616447D01*
X220287626Y-121699073D01*
X220207138Y-121732412D01*
X220150225Y-121755986D01*
X220124942Y-121761015D01*
X220004362Y-121785000D01*
X219855638Y-121785000D01*
X219735058Y-121761015D01*
X219709775Y-121755986D01*
X219652862Y-121732412D01*
X219572374Y-121699073D01*
X219448716Y-121616447D01*
X219343553Y-121511284D01*
X219260927Y-121387626D01*
X219204014Y-121250224D01*
X219190805Y-121183816D01*
X219175000Y-121104361D01*
X219175000Y-120955639D01*
X219204014Y-120809775D01*
X219250767Y-120696903D01*
X219260927Y-120672374D01*
X219343553Y-120548716D01*
X219448716Y-120443553D01*
X219572374Y-120360927D01*
X219652862Y-120327588D01*
X219709775Y-120304014D01*
X219782707Y-120289507D01*
X219855638Y-120275000D01*
X220004362Y-120275000D01*
X220077293Y-120289507D01*
X220077293Y-120289507D01*
G37*
G36*
X217537293Y-120289507D02*
G01*
X217610225Y-120304014D01*
X217667138Y-120327588D01*
X217747626Y-120360927D01*
X217871284Y-120443553D01*
X217976447Y-120548716D01*
X218059073Y-120672374D01*
X218069233Y-120696903D01*
X218115986Y-120809775D01*
X218145000Y-120955639D01*
X218145000Y-121104361D01*
X218129196Y-121183816D01*
X218115986Y-121250224D01*
X218059073Y-121387626D01*
X217976447Y-121511284D01*
X217871284Y-121616447D01*
X217747626Y-121699073D01*
X217667138Y-121732412D01*
X217610225Y-121755986D01*
X217584942Y-121761015D01*
X217464362Y-121785000D01*
X217315638Y-121785000D01*
X217195058Y-121761015D01*
X217169775Y-121755986D01*
X217112862Y-121732412D01*
X217032374Y-121699073D01*
X216908716Y-121616447D01*
X216803553Y-121511284D01*
X216720927Y-121387626D01*
X216664014Y-121250224D01*
X216650805Y-121183816D01*
X216635000Y-121104361D01*
X216635000Y-120955639D01*
X216664014Y-120809775D01*
X216710767Y-120696903D01*
X216720927Y-120672374D01*
X216803553Y-120548716D01*
X216908716Y-120443553D01*
X217032374Y-120360927D01*
X217112862Y-120327588D01*
X217169775Y-120304014D01*
X217242707Y-120289507D01*
X217315638Y-120275000D01*
X217464362Y-120275000D01*
X217537293Y-120289507D01*
X217537293Y-120289507D01*
G37*
G36*
X214997293Y-120289507D02*
G01*
X215070225Y-120304014D01*
X215127138Y-120327588D01*
X215207626Y-120360927D01*
X215331284Y-120443553D01*
X215436447Y-120548716D01*
X215519073Y-120672374D01*
X215529233Y-120696903D01*
X215575986Y-120809775D01*
X215605000Y-120955639D01*
X215605000Y-121104361D01*
X215589196Y-121183816D01*
X215575986Y-121250224D01*
X215519073Y-121387626D01*
X215436447Y-121511284D01*
X215331284Y-121616447D01*
X215207626Y-121699073D01*
X215127138Y-121732412D01*
X215070225Y-121755986D01*
X215044942Y-121761015D01*
X214924362Y-121785000D01*
X214775638Y-121785000D01*
X214655058Y-121761015D01*
X214629775Y-121755986D01*
X214572862Y-121732412D01*
X214492374Y-121699073D01*
X214368716Y-121616447D01*
X214263553Y-121511284D01*
X214180927Y-121387626D01*
X214124014Y-121250224D01*
X214110805Y-121183816D01*
X214095000Y-121104361D01*
X214095000Y-120955639D01*
X214124014Y-120809775D01*
X214170767Y-120696903D01*
X214180927Y-120672374D01*
X214263553Y-120548716D01*
X214368716Y-120443553D01*
X214492374Y-120360927D01*
X214572862Y-120327588D01*
X214629775Y-120304014D01*
X214702707Y-120289507D01*
X214775638Y-120275000D01*
X214924362Y-120275000D01*
X214997293Y-120289507D01*
X214997293Y-120289507D01*
G37*
G36*
X212457293Y-120289507D02*
G01*
X212530225Y-120304014D01*
X212587138Y-120327588D01*
X212667626Y-120360927D01*
X212791284Y-120443553D01*
X212896447Y-120548716D01*
X212979073Y-120672374D01*
X212989233Y-120696903D01*
X213035986Y-120809775D01*
X213065000Y-120955639D01*
X213065000Y-121104361D01*
X213049196Y-121183816D01*
X213035986Y-121250224D01*
X212979073Y-121387626D01*
X212896447Y-121511284D01*
X212791284Y-121616447D01*
X212667626Y-121699073D01*
X212587138Y-121732412D01*
X212530225Y-121755986D01*
X212504942Y-121761015D01*
X212384362Y-121785000D01*
X212235638Y-121785000D01*
X212115058Y-121761015D01*
X212089775Y-121755986D01*
X212032862Y-121732412D01*
X211952374Y-121699073D01*
X211828716Y-121616447D01*
X211723553Y-121511284D01*
X211640927Y-121387626D01*
X211584014Y-121250224D01*
X211570805Y-121183816D01*
X211555000Y-121104361D01*
X211555000Y-120955639D01*
X211584014Y-120809775D01*
X211630767Y-120696903D01*
X211640927Y-120672374D01*
X211723553Y-120548716D01*
X211828716Y-120443553D01*
X211952374Y-120360927D01*
X212032862Y-120327588D01*
X212089775Y-120304014D01*
X212162707Y-120289507D01*
X212235638Y-120275000D01*
X212384362Y-120275000D01*
X212457293Y-120289507D01*
X212457293Y-120289507D01*
G37*
G36*
X227697293Y-120289507D02*
G01*
X227770225Y-120304014D01*
X227827138Y-120327588D01*
X227907626Y-120360927D01*
X228031284Y-120443553D01*
X228136447Y-120548716D01*
X228219073Y-120672374D01*
X228229233Y-120696903D01*
X228275986Y-120809775D01*
X228305000Y-120955639D01*
X228305000Y-121104361D01*
X228289196Y-121183816D01*
X228275986Y-121250224D01*
X228219073Y-121387626D01*
X228136447Y-121511284D01*
X228031284Y-121616447D01*
X227907626Y-121699073D01*
X227827138Y-121732412D01*
X227770225Y-121755986D01*
X227744942Y-121761015D01*
X227624362Y-121785000D01*
X227475638Y-121785000D01*
X227355058Y-121761015D01*
X227329775Y-121755986D01*
X227272862Y-121732412D01*
X227192374Y-121699073D01*
X227068716Y-121616447D01*
X226963553Y-121511284D01*
X226880927Y-121387626D01*
X226824014Y-121250224D01*
X226810805Y-121183816D01*
X226795000Y-121104361D01*
X226795000Y-120955639D01*
X226824014Y-120809775D01*
X226870767Y-120696903D01*
X226880927Y-120672374D01*
X226963553Y-120548716D01*
X227068716Y-120443553D01*
X227192374Y-120360927D01*
X227272862Y-120327588D01*
X227329775Y-120304014D01*
X227402707Y-120289507D01*
X227475638Y-120275000D01*
X227624362Y-120275000D01*
X227697293Y-120289507D01*
X227697293Y-120289507D01*
G37*
G36*
X240397293Y-120289507D02*
G01*
X240470225Y-120304014D01*
X240527138Y-120327588D01*
X240607626Y-120360927D01*
X240731284Y-120443553D01*
X240836447Y-120548716D01*
X240919073Y-120672374D01*
X240929233Y-120696903D01*
X240975986Y-120809775D01*
X241005000Y-120955639D01*
X241005000Y-121104361D01*
X240989196Y-121183816D01*
X240975986Y-121250224D01*
X240919073Y-121387626D01*
X240836447Y-121511284D01*
X240731284Y-121616447D01*
X240607626Y-121699073D01*
X240527138Y-121732412D01*
X240470225Y-121755986D01*
X240444942Y-121761015D01*
X240324362Y-121785000D01*
X240175638Y-121785000D01*
X240055058Y-121761015D01*
X240029775Y-121755986D01*
X239972862Y-121732412D01*
X239892374Y-121699073D01*
X239768716Y-121616447D01*
X239663553Y-121511284D01*
X239580927Y-121387626D01*
X239524014Y-121250224D01*
X239510805Y-121183816D01*
X239495000Y-121104361D01*
X239495000Y-120955639D01*
X239524014Y-120809775D01*
X239570767Y-120696903D01*
X239580927Y-120672374D01*
X239663553Y-120548716D01*
X239768716Y-120443553D01*
X239892374Y-120360927D01*
X239972862Y-120327588D01*
X240029775Y-120304014D01*
X240102707Y-120289507D01*
X240175638Y-120275000D01*
X240324362Y-120275000D01*
X240397293Y-120289507D01*
X240397293Y-120289507D01*
G37*
G36*
X242937293Y-120289507D02*
G01*
X243010225Y-120304014D01*
X243067138Y-120327588D01*
X243147626Y-120360927D01*
X243271284Y-120443553D01*
X243376447Y-120548716D01*
X243459073Y-120672374D01*
X243469233Y-120696903D01*
X243515986Y-120809775D01*
X243545000Y-120955639D01*
X243545000Y-121104361D01*
X243529196Y-121183816D01*
X243515986Y-121250224D01*
X243459073Y-121387626D01*
X243376447Y-121511284D01*
X243271284Y-121616447D01*
X243147626Y-121699073D01*
X243067138Y-121732412D01*
X243010225Y-121755986D01*
X242984942Y-121761015D01*
X242864362Y-121785000D01*
X242715638Y-121785000D01*
X242595058Y-121761015D01*
X242569775Y-121755986D01*
X242512862Y-121732412D01*
X242432374Y-121699073D01*
X242308716Y-121616447D01*
X242203553Y-121511284D01*
X242120927Y-121387626D01*
X242064014Y-121250224D01*
X242050805Y-121183816D01*
X242035000Y-121104361D01*
X242035000Y-120955639D01*
X242064014Y-120809775D01*
X242110767Y-120696903D01*
X242120927Y-120672374D01*
X242203553Y-120548716D01*
X242308716Y-120443553D01*
X242432374Y-120360927D01*
X242512862Y-120327588D01*
X242569775Y-120304014D01*
X242642707Y-120289507D01*
X242715638Y-120275000D01*
X242864362Y-120275000D01*
X242937293Y-120289507D01*
X242937293Y-120289507D01*
G37*
G36*
X237857293Y-120289507D02*
G01*
X237930225Y-120304014D01*
X237987138Y-120327588D01*
X238067626Y-120360927D01*
X238191284Y-120443553D01*
X238296447Y-120548716D01*
X238379073Y-120672374D01*
X238389233Y-120696903D01*
X238435986Y-120809775D01*
X238465000Y-120955639D01*
X238465000Y-121104361D01*
X238449196Y-121183816D01*
X238435986Y-121250224D01*
X238379073Y-121387626D01*
X238296447Y-121511284D01*
X238191284Y-121616447D01*
X238067626Y-121699073D01*
X237987138Y-121732412D01*
X237930225Y-121755986D01*
X237904942Y-121761015D01*
X237784362Y-121785000D01*
X237635638Y-121785000D01*
X237515058Y-121761015D01*
X237489775Y-121755986D01*
X237432862Y-121732412D01*
X237352374Y-121699073D01*
X237228716Y-121616447D01*
X237123553Y-121511284D01*
X237040927Y-121387626D01*
X236984014Y-121250224D01*
X236970805Y-121183816D01*
X236955000Y-121104361D01*
X236955000Y-120955639D01*
X236984014Y-120809775D01*
X237030767Y-120696903D01*
X237040927Y-120672374D01*
X237123553Y-120548716D01*
X237228716Y-120443553D01*
X237352374Y-120360927D01*
X237432862Y-120327588D01*
X237489775Y-120304014D01*
X237562707Y-120289507D01*
X237635638Y-120275000D01*
X237784362Y-120275000D01*
X237857293Y-120289507D01*
X237857293Y-120289507D01*
G37*
G36*
X248017293Y-120289507D02*
G01*
X248090225Y-120304014D01*
X248147138Y-120327588D01*
X248227626Y-120360927D01*
X248351284Y-120443553D01*
X248456447Y-120548716D01*
X248539073Y-120672374D01*
X248549233Y-120696903D01*
X248595986Y-120809775D01*
X248625000Y-120955639D01*
X248625000Y-121104361D01*
X248609196Y-121183816D01*
X248595986Y-121250224D01*
X248539073Y-121387626D01*
X248456447Y-121511284D01*
X248351284Y-121616447D01*
X248227626Y-121699073D01*
X248147138Y-121732412D01*
X248090225Y-121755986D01*
X248064942Y-121761015D01*
X247944362Y-121785000D01*
X247795638Y-121785000D01*
X247675058Y-121761015D01*
X247649775Y-121755986D01*
X247592862Y-121732412D01*
X247512374Y-121699073D01*
X247388716Y-121616447D01*
X247283553Y-121511284D01*
X247200927Y-121387626D01*
X247144014Y-121250224D01*
X247130805Y-121183816D01*
X247115000Y-121104361D01*
X247115000Y-120955639D01*
X247144014Y-120809775D01*
X247190767Y-120696903D01*
X247200927Y-120672374D01*
X247283553Y-120548716D01*
X247388716Y-120443553D01*
X247512374Y-120360927D01*
X247592862Y-120327588D01*
X247649775Y-120304014D01*
X247722707Y-120289507D01*
X247795638Y-120275000D01*
X247944362Y-120275000D01*
X248017293Y-120289507D01*
X248017293Y-120289507D01*
G37*
G36*
X250557293Y-120289507D02*
G01*
X250630225Y-120304014D01*
X250687138Y-120327588D01*
X250767626Y-120360927D01*
X250891284Y-120443553D01*
X250996447Y-120548716D01*
X251079073Y-120672374D01*
X251089233Y-120696903D01*
X251135986Y-120809775D01*
X251165000Y-120955639D01*
X251165000Y-121104361D01*
X251149196Y-121183816D01*
X251135986Y-121250224D01*
X251079073Y-121387626D01*
X250996447Y-121511284D01*
X250891284Y-121616447D01*
X250767626Y-121699073D01*
X250687138Y-121732412D01*
X250630225Y-121755986D01*
X250604942Y-121761015D01*
X250484362Y-121785000D01*
X250335638Y-121785000D01*
X250215058Y-121761015D01*
X250189775Y-121755986D01*
X250132862Y-121732412D01*
X250052374Y-121699073D01*
X249928716Y-121616447D01*
X249823553Y-121511284D01*
X249740927Y-121387626D01*
X249684014Y-121250224D01*
X249670805Y-121183816D01*
X249655000Y-121104361D01*
X249655000Y-120955639D01*
X249684014Y-120809775D01*
X249730767Y-120696903D01*
X249740927Y-120672374D01*
X249823553Y-120548716D01*
X249928716Y-120443553D01*
X250052374Y-120360927D01*
X250132862Y-120327588D01*
X250189775Y-120304014D01*
X250262707Y-120289507D01*
X250335638Y-120275000D01*
X250484362Y-120275000D01*
X250557293Y-120289507D01*
X250557293Y-120289507D01*
G37*
G36*
X235317293Y-120289507D02*
G01*
X235390225Y-120304014D01*
X235447138Y-120327588D01*
X235527626Y-120360927D01*
X235651284Y-120443553D01*
X235756447Y-120548716D01*
X235839073Y-120672374D01*
X235849233Y-120696903D01*
X235895986Y-120809775D01*
X235925000Y-120955639D01*
X235925000Y-121104361D01*
X235909196Y-121183816D01*
X235895986Y-121250224D01*
X235839073Y-121387626D01*
X235756447Y-121511284D01*
X235651284Y-121616447D01*
X235527626Y-121699073D01*
X235447138Y-121732412D01*
X235390225Y-121755986D01*
X235364942Y-121761015D01*
X235244362Y-121785000D01*
X235095638Y-121785000D01*
X234975058Y-121761015D01*
X234949775Y-121755986D01*
X234892862Y-121732412D01*
X234812374Y-121699073D01*
X234688716Y-121616447D01*
X234583553Y-121511284D01*
X234500927Y-121387626D01*
X234444014Y-121250224D01*
X234430805Y-121183816D01*
X234415000Y-121104361D01*
X234415000Y-120955639D01*
X234444014Y-120809775D01*
X234490767Y-120696903D01*
X234500927Y-120672374D01*
X234583553Y-120548716D01*
X234688716Y-120443553D01*
X234812374Y-120360927D01*
X234892862Y-120327588D01*
X234949775Y-120304014D01*
X235022707Y-120289507D01*
X235095638Y-120275000D01*
X235244362Y-120275000D01*
X235317293Y-120289507D01*
X235317293Y-120289507D01*
G37*
G36*
X253097293Y-120289507D02*
G01*
X253170225Y-120304014D01*
X253227138Y-120327588D01*
X253307626Y-120360927D01*
X253431284Y-120443553D01*
X253536447Y-120548716D01*
X253619073Y-120672374D01*
X253629233Y-120696903D01*
X253675986Y-120809775D01*
X253705000Y-120955639D01*
X253705000Y-121104361D01*
X253689196Y-121183816D01*
X253675986Y-121250224D01*
X253619073Y-121387626D01*
X253536447Y-121511284D01*
X253431284Y-121616447D01*
X253307626Y-121699073D01*
X253227138Y-121732412D01*
X253170225Y-121755986D01*
X253144942Y-121761015D01*
X253024362Y-121785000D01*
X252875638Y-121785000D01*
X252755058Y-121761015D01*
X252729775Y-121755986D01*
X252672862Y-121732412D01*
X252592374Y-121699073D01*
X252468716Y-121616447D01*
X252363553Y-121511284D01*
X252280927Y-121387626D01*
X252224014Y-121250224D01*
X252210805Y-121183816D01*
X252195000Y-121104361D01*
X252195000Y-120955639D01*
X252224014Y-120809775D01*
X252270767Y-120696903D01*
X252280927Y-120672374D01*
X252363553Y-120548716D01*
X252468716Y-120443553D01*
X252592374Y-120360927D01*
X252672862Y-120327588D01*
X252729775Y-120304014D01*
X252802707Y-120289507D01*
X252875638Y-120275000D01*
X253024362Y-120275000D01*
X253097293Y-120289507D01*
X253097293Y-120289507D01*
G37*
G36*
X225157293Y-120289507D02*
G01*
X225230225Y-120304014D01*
X225287138Y-120327588D01*
X225367626Y-120360927D01*
X225491284Y-120443553D01*
X225596447Y-120548716D01*
X225679073Y-120672374D01*
X225689233Y-120696903D01*
X225735986Y-120809775D01*
X225765000Y-120955639D01*
X225765000Y-121104361D01*
X225749196Y-121183816D01*
X225735986Y-121250224D01*
X225679073Y-121387626D01*
X225596447Y-121511284D01*
X225491284Y-121616447D01*
X225367626Y-121699073D01*
X225287138Y-121732412D01*
X225230225Y-121755986D01*
X225204942Y-121761015D01*
X225084362Y-121785000D01*
X224935638Y-121785000D01*
X224815058Y-121761015D01*
X224789775Y-121755986D01*
X224732862Y-121732412D01*
X224652374Y-121699073D01*
X224528716Y-121616447D01*
X224423553Y-121511284D01*
X224340927Y-121387626D01*
X224284014Y-121250224D01*
X224270805Y-121183816D01*
X224255000Y-121104361D01*
X224255000Y-120955639D01*
X224284014Y-120809775D01*
X224330767Y-120696903D01*
X224340927Y-120672374D01*
X224423553Y-120548716D01*
X224528716Y-120443553D01*
X224652374Y-120360927D01*
X224732862Y-120327588D01*
X224789775Y-120304014D01*
X224862707Y-120289507D01*
X224935638Y-120275000D01*
X225084362Y-120275000D01*
X225157293Y-120289507D01*
X225157293Y-120289507D01*
G37*
G36*
X232777293Y-120289507D02*
G01*
X232850225Y-120304014D01*
X232907138Y-120327588D01*
X232987626Y-120360927D01*
X233111284Y-120443553D01*
X233216447Y-120548716D01*
X233299073Y-120672374D01*
X233309233Y-120696903D01*
X233355986Y-120809775D01*
X233385000Y-120955639D01*
X233385000Y-121104361D01*
X233369196Y-121183816D01*
X233355986Y-121250224D01*
X233299073Y-121387626D01*
X233216447Y-121511284D01*
X233111284Y-121616447D01*
X232987626Y-121699073D01*
X232907138Y-121732412D01*
X232850225Y-121755986D01*
X232824942Y-121761015D01*
X232704362Y-121785000D01*
X232555638Y-121785000D01*
X232435058Y-121761015D01*
X232409775Y-121755986D01*
X232352862Y-121732412D01*
X232272374Y-121699073D01*
X232148716Y-121616447D01*
X232043553Y-121511284D01*
X231960927Y-121387626D01*
X231904014Y-121250224D01*
X231890805Y-121183816D01*
X231875000Y-121104361D01*
X231875000Y-120955639D01*
X231904014Y-120809775D01*
X231950767Y-120696903D01*
X231960927Y-120672374D01*
X232043553Y-120548716D01*
X232148716Y-120443553D01*
X232272374Y-120360927D01*
X232352862Y-120327588D01*
X232409775Y-120304014D01*
X232482707Y-120289507D01*
X232555638Y-120275000D01*
X232704362Y-120275000D01*
X232777293Y-120289507D01*
X232777293Y-120289507D01*
G37*
G36*
X256245000Y-121785000D02*
G01*
X254735000Y-121785000D01*
X254735000Y-120275000D01*
X256245000Y-120275000D01*
X256245000Y-121785000D01*
X256245000Y-121785000D01*
G37*
G36*
X245477293Y-120289507D02*
G01*
X245550225Y-120304014D01*
X245607138Y-120327588D01*
X245687626Y-120360927D01*
X245811284Y-120443553D01*
X245916447Y-120548716D01*
X245999073Y-120672374D01*
X246009233Y-120696903D01*
X246055986Y-120809775D01*
X246085000Y-120955639D01*
X246085000Y-121104361D01*
X246069196Y-121183816D01*
X246055986Y-121250224D01*
X245999073Y-121387626D01*
X245916447Y-121511284D01*
X245811284Y-121616447D01*
X245687626Y-121699073D01*
X245607138Y-121732412D01*
X245550225Y-121755986D01*
X245524942Y-121761015D01*
X245404362Y-121785000D01*
X245255638Y-121785000D01*
X245135058Y-121761015D01*
X245109775Y-121755986D01*
X245052862Y-121732412D01*
X244972374Y-121699073D01*
X244848716Y-121616447D01*
X244743553Y-121511284D01*
X244660927Y-121387626D01*
X244604014Y-121250224D01*
X244590805Y-121183816D01*
X244575000Y-121104361D01*
X244575000Y-120955639D01*
X244604014Y-120809775D01*
X244650767Y-120696903D01*
X244660927Y-120672374D01*
X244743553Y-120548716D01*
X244848716Y-120443553D01*
X244972374Y-120360927D01*
X245052862Y-120327588D01*
X245109775Y-120304014D01*
X245182707Y-120289507D01*
X245255638Y-120275000D01*
X245404362Y-120275000D01*
X245477293Y-120289507D01*
X245477293Y-120289507D01*
G37*
G36*
X268800098Y-118440362D02*
G01*
X268924941Y-118492074D01*
X268924943Y-118492075D01*
X269037299Y-118567149D01*
X269132851Y-118662701D01*
X269207926Y-118775059D01*
X269259638Y-118899902D01*
X269286000Y-119032434D01*
X269286000Y-119167566D01*
X269259638Y-119300098D01*
X269207926Y-119424941D01*
X269207925Y-119424943D01*
X269132851Y-119537299D01*
X269037299Y-119632851D01*
X268924943Y-119707925D01*
X268924942Y-119707926D01*
X268924941Y-119707926D01*
X268800098Y-119759638D01*
X268667566Y-119786000D01*
X268532434Y-119786000D01*
X268399902Y-119759638D01*
X268275059Y-119707926D01*
X268275058Y-119707926D01*
X268275057Y-119707925D01*
X268162701Y-119632851D01*
X268067149Y-119537299D01*
X267992075Y-119424943D01*
X267992074Y-119424941D01*
X267940362Y-119300098D01*
X267914000Y-119167566D01*
X267914000Y-119032434D01*
X267940362Y-118899902D01*
X267992074Y-118775059D01*
X268067149Y-118662701D01*
X268162701Y-118567149D01*
X268275057Y-118492075D01*
X268275059Y-118492074D01*
X268399902Y-118440362D01*
X268532434Y-118414000D01*
X268667566Y-118414000D01*
X268800098Y-118440362D01*
X268800098Y-118440362D01*
G37*
G36*
X259448228Y-117581703D02*
G01*
X259603100Y-117645853D01*
X259742481Y-117738985D01*
X259861015Y-117857519D01*
X259954147Y-117996900D01*
X260018297Y-118151772D01*
X260051000Y-118316184D01*
X260051000Y-118483816D01*
X260018297Y-118648228D01*
X259954147Y-118803100D01*
X259861015Y-118942481D01*
X259742481Y-119061015D01*
X259603100Y-119154147D01*
X259448228Y-119218297D01*
X259283816Y-119251000D01*
X259116184Y-119251000D01*
X258951772Y-119218297D01*
X258796900Y-119154147D01*
X258657519Y-119061015D01*
X258538985Y-118942481D01*
X258445853Y-118803100D01*
X258381703Y-118648228D01*
X258349000Y-118483816D01*
X258349000Y-118316184D01*
X258381703Y-118151772D01*
X258445853Y-117996900D01*
X258538985Y-117857519D01*
X258657519Y-117738985D01*
X258796900Y-117645853D01*
X258951772Y-117581703D01*
X259116184Y-117549000D01*
X259283816Y-117549000D01*
X259448228Y-117581703D01*
X259448228Y-117581703D01*
G37*
G36*
X264448228Y-117581703D02*
G01*
X264603100Y-117645853D01*
X264742481Y-117738985D01*
X264861015Y-117857519D01*
X264954147Y-117996900D01*
X265018297Y-118151772D01*
X265051000Y-118316184D01*
X265051000Y-118483816D01*
X265018297Y-118648228D01*
X264954147Y-118803100D01*
X264861015Y-118942481D01*
X264742481Y-119061015D01*
X264603100Y-119154147D01*
X264448228Y-119218297D01*
X264283816Y-119251000D01*
X264116184Y-119251000D01*
X263951772Y-119218297D01*
X263796900Y-119154147D01*
X263657519Y-119061015D01*
X263538985Y-118942481D01*
X263445853Y-118803100D01*
X263381703Y-118648228D01*
X263349000Y-118483816D01*
X263349000Y-118316184D01*
X263381703Y-118151772D01*
X263445853Y-117996900D01*
X263538985Y-117857519D01*
X263657519Y-117738985D01*
X263796900Y-117645853D01*
X263951772Y-117581703D01*
X264116184Y-117549000D01*
X264283816Y-117549000D01*
X264448228Y-117581703D01*
X264448228Y-117581703D01*
G37*
G36*
X262296228Y-114693483D02*
G01*
X262484922Y-114750723D01*
X262658815Y-114843671D01*
X262811239Y-114968761D01*
X262936329Y-115121185D01*
X263029277Y-115295078D01*
X263086517Y-115483772D01*
X263105843Y-115680000D01*
X263086517Y-115876228D01*
X263029277Y-116064922D01*
X262936329Y-116238815D01*
X262811239Y-116391239D01*
X262658815Y-116516329D01*
X262484922Y-116609277D01*
X262296228Y-116666517D01*
X262149175Y-116681000D01*
X261050825Y-116681000D01*
X260903772Y-116666517D01*
X260715078Y-116609277D01*
X260541185Y-116516329D01*
X260388761Y-116391239D01*
X260263671Y-116238815D01*
X260170723Y-116064922D01*
X260113483Y-115876228D01*
X260094157Y-115680000D01*
X260113483Y-115483772D01*
X260170723Y-115295078D01*
X260263671Y-115121185D01*
X260388761Y-114968761D01*
X260541185Y-114843671D01*
X260715078Y-114750723D01*
X260903772Y-114693483D01*
X261050825Y-114679000D01*
X262149175Y-114679000D01*
X262296228Y-114693483D01*
X262296228Y-114693483D01*
G37*
G36*
X255226228Y-110013483D02*
G01*
X255414922Y-110070723D01*
X255588815Y-110163671D01*
X255741239Y-110288761D01*
X255866329Y-110441185D01*
X255959277Y-110615078D01*
X256016517Y-110803772D01*
X256031000Y-110950825D01*
X256031000Y-112049175D01*
X256016517Y-112196228D01*
X255959277Y-112384922D01*
X255866329Y-112558815D01*
X255741239Y-112711239D01*
X255588815Y-112836329D01*
X255414921Y-112929277D01*
X255226227Y-112986517D01*
X255030000Y-113005843D01*
X254833772Y-112986517D01*
X254645078Y-112929277D01*
X254471185Y-112836329D01*
X254318761Y-112711239D01*
X254193671Y-112558815D01*
X254100723Y-112384921D01*
X254043483Y-112196227D01*
X254029000Y-112049174D01*
X254029000Y-110950825D01*
X254043483Y-110803769D01*
X254100722Y-110615081D01*
X254193672Y-110441185D01*
X254318762Y-110288761D01*
X254471186Y-110163671D01*
X254645079Y-110070723D01*
X254833773Y-110013483D01*
X255030000Y-109994157D01*
X255226228Y-110013483D01*
X255226228Y-110013483D01*
G37*
G36*
X268366227Y-110013483D02*
G01*
X268554921Y-110070723D01*
X268728815Y-110163671D01*
X268881239Y-110288761D01*
X269006329Y-110441185D01*
X269099277Y-110615078D01*
X269156517Y-110803772D01*
X269171000Y-110950825D01*
X269171000Y-112049175D01*
X269156517Y-112196228D01*
X269099277Y-112384922D01*
X269006329Y-112558815D01*
X268881239Y-112711239D01*
X268728815Y-112836329D01*
X268554922Y-112929277D01*
X268366228Y-112986517D01*
X268170000Y-113005843D01*
X267973773Y-112986517D01*
X267785079Y-112929277D01*
X267611186Y-112836329D01*
X267458762Y-112711239D01*
X267333672Y-112558815D01*
X267240722Y-112384919D01*
X267183483Y-112196231D01*
X267169000Y-112049175D01*
X267169000Y-110950826D01*
X267183483Y-110803773D01*
X267240723Y-110615079D01*
X267333671Y-110441185D01*
X267458761Y-110288761D01*
X267611185Y-110163671D01*
X267785078Y-110070723D01*
X267973772Y-110013483D01*
X268170000Y-109994157D01*
X268366227Y-110013483D01*
X268366227Y-110013483D01*
G37*
G36*
X234721000Y-112901000D02*
G01*
X232919000Y-112901000D01*
X232919000Y-111099000D01*
X234721000Y-111099000D01*
X234721000Y-112901000D01*
X234721000Y-112901000D01*
G37*
G36*
X241550443Y-111105519D02*
G01*
X241616627Y-111112037D01*
X241786466Y-111163557D01*
X241942991Y-111247222D01*
X241978729Y-111276552D01*
X242080186Y-111359814D01*
X242149689Y-111444505D01*
X242192778Y-111497009D01*
X242276443Y-111653534D01*
X242327963Y-111823373D01*
X242345359Y-112000000D01*
X242327963Y-112176627D01*
X242276443Y-112346466D01*
X242192778Y-112502991D01*
X242163448Y-112538729D01*
X242080186Y-112640186D01*
X241993606Y-112711239D01*
X241942991Y-112752778D01*
X241786466Y-112836443D01*
X241616627Y-112887963D01*
X241550443Y-112894481D01*
X241484260Y-112901000D01*
X241395740Y-112901000D01*
X241329557Y-112894481D01*
X241263373Y-112887963D01*
X241093534Y-112836443D01*
X240937009Y-112752778D01*
X240886394Y-112711239D01*
X240799814Y-112640186D01*
X240716552Y-112538729D01*
X240687222Y-112502991D01*
X240603557Y-112346466D01*
X240552037Y-112176627D01*
X240534641Y-112000000D01*
X240552037Y-111823373D01*
X240603557Y-111653534D01*
X240687222Y-111497009D01*
X240730311Y-111444505D01*
X240799814Y-111359814D01*
X240901271Y-111276552D01*
X240937009Y-111247222D01*
X241093534Y-111163557D01*
X241263373Y-111112037D01*
X241329557Y-111105519D01*
X241395740Y-111099000D01*
X241484260Y-111099000D01*
X241550443Y-111105519D01*
X241550443Y-111105519D01*
G37*
G36*
X239010443Y-111105519D02*
G01*
X239076627Y-111112037D01*
X239246466Y-111163557D01*
X239402991Y-111247222D01*
X239438729Y-111276552D01*
X239540186Y-111359814D01*
X239609689Y-111444505D01*
X239652778Y-111497009D01*
X239736443Y-111653534D01*
X239787963Y-111823373D01*
X239805359Y-112000000D01*
X239787963Y-112176627D01*
X239736443Y-112346466D01*
X239652778Y-112502991D01*
X239623448Y-112538729D01*
X239540186Y-112640186D01*
X239453606Y-112711239D01*
X239402991Y-112752778D01*
X239246466Y-112836443D01*
X239076627Y-112887963D01*
X239010443Y-112894481D01*
X238944260Y-112901000D01*
X238855740Y-112901000D01*
X238789557Y-112894481D01*
X238723373Y-112887963D01*
X238553534Y-112836443D01*
X238397009Y-112752778D01*
X238346394Y-112711239D01*
X238259814Y-112640186D01*
X238176552Y-112538729D01*
X238147222Y-112502991D01*
X238063557Y-112346466D01*
X238012037Y-112176627D01*
X237994641Y-112000000D01*
X238012037Y-111823373D01*
X238063557Y-111653534D01*
X238147222Y-111497009D01*
X238190311Y-111444505D01*
X238259814Y-111359814D01*
X238361271Y-111276552D01*
X238397009Y-111247222D01*
X238553534Y-111163557D01*
X238723373Y-111112037D01*
X238789557Y-111105519D01*
X238855740Y-111099000D01*
X238944260Y-111099000D01*
X239010443Y-111105519D01*
X239010443Y-111105519D01*
G37*
G36*
X236470443Y-111105519D02*
G01*
X236536627Y-111112037D01*
X236706466Y-111163557D01*
X236862991Y-111247222D01*
X236898729Y-111276552D01*
X237000186Y-111359814D01*
X237069689Y-111444505D01*
X237112778Y-111497009D01*
X237196443Y-111653534D01*
X237247963Y-111823373D01*
X237265359Y-112000000D01*
X237247963Y-112176627D01*
X237196443Y-112346466D01*
X237112778Y-112502991D01*
X237083448Y-112538729D01*
X237000186Y-112640186D01*
X236913606Y-112711239D01*
X236862991Y-112752778D01*
X236706466Y-112836443D01*
X236536627Y-112887963D01*
X236470443Y-112894481D01*
X236404260Y-112901000D01*
X236315740Y-112901000D01*
X236249557Y-112894481D01*
X236183373Y-112887963D01*
X236013534Y-112836443D01*
X235857009Y-112752778D01*
X235806394Y-112711239D01*
X235719814Y-112640186D01*
X235636552Y-112538729D01*
X235607222Y-112502991D01*
X235523557Y-112346466D01*
X235472037Y-112176627D01*
X235454641Y-112000000D01*
X235472037Y-111823373D01*
X235523557Y-111653534D01*
X235607222Y-111497009D01*
X235650311Y-111444505D01*
X235719814Y-111359814D01*
X235821271Y-111276552D01*
X235857009Y-111247222D01*
X236013534Y-111163557D01*
X236183373Y-111112037D01*
X236249557Y-111105519D01*
X236315740Y-111099000D01*
X236404260Y-111099000D01*
X236470443Y-111105519D01*
X236470443Y-111105519D01*
G37*
G36*
X207490443Y-111005519D02*
G01*
X207556627Y-111012037D01*
X207726466Y-111063557D01*
X207882991Y-111147222D01*
X207902895Y-111163557D01*
X208020186Y-111259814D01*
X208091621Y-111346859D01*
X208132778Y-111397009D01*
X208216443Y-111553534D01*
X208267963Y-111723373D01*
X208285359Y-111900000D01*
X208267963Y-112076627D01*
X208216443Y-112246466D01*
X208132778Y-112402991D01*
X208103448Y-112438729D01*
X208020186Y-112540186D01*
X207918729Y-112623448D01*
X207882991Y-112652778D01*
X207726466Y-112736443D01*
X207556627Y-112787963D01*
X207490443Y-112794481D01*
X207424260Y-112801000D01*
X207335740Y-112801000D01*
X207269557Y-112794481D01*
X207203373Y-112787963D01*
X207033534Y-112736443D01*
X206877009Y-112652778D01*
X206841271Y-112623448D01*
X206739814Y-112540186D01*
X206656552Y-112438729D01*
X206627222Y-112402991D01*
X206543557Y-112246466D01*
X206492037Y-112076627D01*
X206474641Y-111900000D01*
X206492037Y-111723373D01*
X206543557Y-111553534D01*
X206627222Y-111397009D01*
X206668379Y-111346859D01*
X206739814Y-111259814D01*
X206857105Y-111163557D01*
X206877009Y-111147222D01*
X207033534Y-111063557D01*
X207203373Y-111012037D01*
X207269557Y-111005519D01*
X207335740Y-110999000D01*
X207424260Y-110999000D01*
X207490443Y-111005519D01*
X207490443Y-111005519D01*
G37*
G36*
X204950443Y-111005519D02*
G01*
X205016627Y-111012037D01*
X205186466Y-111063557D01*
X205342991Y-111147222D01*
X205362895Y-111163557D01*
X205480186Y-111259814D01*
X205551621Y-111346859D01*
X205592778Y-111397009D01*
X205676443Y-111553534D01*
X205727963Y-111723373D01*
X205745359Y-111900000D01*
X205727963Y-112076627D01*
X205676443Y-112246466D01*
X205592778Y-112402991D01*
X205563448Y-112438729D01*
X205480186Y-112540186D01*
X205378729Y-112623448D01*
X205342991Y-112652778D01*
X205186466Y-112736443D01*
X205016627Y-112787963D01*
X204950443Y-112794481D01*
X204884260Y-112801000D01*
X204795740Y-112801000D01*
X204729557Y-112794481D01*
X204663373Y-112787963D01*
X204493534Y-112736443D01*
X204337009Y-112652778D01*
X204301271Y-112623448D01*
X204199814Y-112540186D01*
X204116552Y-112438729D01*
X204087222Y-112402991D01*
X204003557Y-112246466D01*
X203952037Y-112076627D01*
X203934641Y-111900000D01*
X203952037Y-111723373D01*
X204003557Y-111553534D01*
X204087222Y-111397009D01*
X204128379Y-111346859D01*
X204199814Y-111259814D01*
X204317105Y-111163557D01*
X204337009Y-111147222D01*
X204493534Y-111063557D01*
X204663373Y-111012037D01*
X204729557Y-111005519D01*
X204795740Y-110999000D01*
X204884260Y-110999000D01*
X204950443Y-111005519D01*
X204950443Y-111005519D01*
G37*
G36*
X210030443Y-111005519D02*
G01*
X210096627Y-111012037D01*
X210266466Y-111063557D01*
X210422991Y-111147222D01*
X210442895Y-111163557D01*
X210560186Y-111259814D01*
X210631621Y-111346859D01*
X210672778Y-111397009D01*
X210756443Y-111553534D01*
X210807963Y-111723373D01*
X210825359Y-111900000D01*
X210807963Y-112076627D01*
X210756443Y-112246466D01*
X210672778Y-112402991D01*
X210643448Y-112438729D01*
X210560186Y-112540186D01*
X210458729Y-112623448D01*
X210422991Y-112652778D01*
X210266466Y-112736443D01*
X210096627Y-112787963D01*
X210030443Y-112794481D01*
X209964260Y-112801000D01*
X209875740Y-112801000D01*
X209809557Y-112794481D01*
X209743373Y-112787963D01*
X209573534Y-112736443D01*
X209417009Y-112652778D01*
X209381271Y-112623448D01*
X209279814Y-112540186D01*
X209196552Y-112438729D01*
X209167222Y-112402991D01*
X209083557Y-112246466D01*
X209032037Y-112076627D01*
X209014641Y-111900000D01*
X209032037Y-111723373D01*
X209083557Y-111553534D01*
X209167222Y-111397009D01*
X209208379Y-111346859D01*
X209279814Y-111259814D01*
X209397105Y-111163557D01*
X209417009Y-111147222D01*
X209573534Y-111063557D01*
X209743373Y-111012037D01*
X209809557Y-111005519D01*
X209875740Y-110999000D01*
X209964260Y-110999000D01*
X210030443Y-111005519D01*
X210030443Y-111005519D01*
G37*
G36*
X212570443Y-111005519D02*
G01*
X212636627Y-111012037D01*
X212806466Y-111063557D01*
X212962991Y-111147222D01*
X212982895Y-111163557D01*
X213100186Y-111259814D01*
X213171621Y-111346859D01*
X213212778Y-111397009D01*
X213296443Y-111553534D01*
X213347963Y-111723373D01*
X213365359Y-111900000D01*
X213347963Y-112076627D01*
X213296443Y-112246466D01*
X213212778Y-112402991D01*
X213183448Y-112438729D01*
X213100186Y-112540186D01*
X212998729Y-112623448D01*
X212962991Y-112652778D01*
X212806466Y-112736443D01*
X212636627Y-112787963D01*
X212570443Y-112794481D01*
X212504260Y-112801000D01*
X212415740Y-112801000D01*
X212349557Y-112794481D01*
X212283373Y-112787963D01*
X212113534Y-112736443D01*
X211957009Y-112652778D01*
X211921271Y-112623448D01*
X211819814Y-112540186D01*
X211736552Y-112438729D01*
X211707222Y-112402991D01*
X211623557Y-112246466D01*
X211572037Y-112076627D01*
X211554641Y-111900000D01*
X211572037Y-111723373D01*
X211623557Y-111553534D01*
X211707222Y-111397009D01*
X211748379Y-111346859D01*
X211819814Y-111259814D01*
X211937105Y-111163557D01*
X211957009Y-111147222D01*
X212113534Y-111063557D01*
X212283373Y-111012037D01*
X212349557Y-111005519D01*
X212415740Y-110999000D01*
X212504260Y-110999000D01*
X212570443Y-111005519D01*
X212570443Y-111005519D01*
G37*
G36*
X215901000Y-112801000D02*
G01*
X214099000Y-112801000D01*
X214099000Y-110999000D01*
X215901000Y-110999000D01*
X215901000Y-112801000D01*
X215901000Y-112801000D01*
G37*
G36*
X265801000Y-111601000D02*
G01*
X264399000Y-111601000D01*
X264399000Y-110199000D01*
X265801000Y-110199000D01*
X265801000Y-111601000D01*
X265801000Y-111601000D01*
G37*
G36*
X258304473Y-110225938D02*
G01*
X258432049Y-110278782D01*
X258546859Y-110355495D01*
X258644505Y-110453141D01*
X258721218Y-110567951D01*
X258774062Y-110695527D01*
X258801000Y-110830956D01*
X258801000Y-110969044D01*
X258774062Y-111104473D01*
X258721218Y-111232049D01*
X258644505Y-111346859D01*
X258546859Y-111444505D01*
X258432049Y-111521218D01*
X258304473Y-111574062D01*
X258169044Y-111601000D01*
X258030956Y-111601000D01*
X257895527Y-111574062D01*
X257767951Y-111521218D01*
X257653141Y-111444505D01*
X257555495Y-111346859D01*
X257478782Y-111232049D01*
X257425938Y-111104473D01*
X257399000Y-110969044D01*
X257399000Y-110830956D01*
X257425938Y-110695527D01*
X257478782Y-110567951D01*
X257555495Y-110453141D01*
X257653141Y-110355495D01*
X257767951Y-110278782D01*
X257895527Y-110225938D01*
X258030956Y-110199000D01*
X258169044Y-110199000D01*
X258304473Y-110225938D01*
X258304473Y-110225938D01*
G37*
G36*
X260804473Y-110225938D02*
G01*
X260932049Y-110278782D01*
X261046859Y-110355495D01*
X261144505Y-110453141D01*
X261221218Y-110567951D01*
X261274062Y-110695527D01*
X261301000Y-110830956D01*
X261301000Y-110969044D01*
X261274062Y-111104473D01*
X261221218Y-111232049D01*
X261144505Y-111346859D01*
X261046859Y-111444505D01*
X260932049Y-111521218D01*
X260804473Y-111574062D01*
X260669044Y-111601000D01*
X260530956Y-111601000D01*
X260395527Y-111574062D01*
X260267951Y-111521218D01*
X260153141Y-111444505D01*
X260055495Y-111346859D01*
X259978782Y-111232049D01*
X259925938Y-111104473D01*
X259899000Y-110969044D01*
X259899000Y-110830956D01*
X259925938Y-110695527D01*
X259978782Y-110567951D01*
X260055495Y-110453141D01*
X260153141Y-110355495D01*
X260267951Y-110278782D01*
X260395527Y-110225938D01*
X260530956Y-110199000D01*
X260669044Y-110199000D01*
X260804473Y-110225938D01*
X260804473Y-110225938D01*
G37*
G36*
X262804473Y-110225938D02*
G01*
X262932049Y-110278782D01*
X263046859Y-110355495D01*
X263144505Y-110453141D01*
X263221218Y-110567951D01*
X263274062Y-110695527D01*
X263301000Y-110830956D01*
X263301000Y-110969044D01*
X263274062Y-111104473D01*
X263221218Y-111232049D01*
X263144505Y-111346859D01*
X263046859Y-111444505D01*
X262932049Y-111521218D01*
X262804473Y-111574062D01*
X262669044Y-111601000D01*
X262530956Y-111601000D01*
X262395527Y-111574062D01*
X262267951Y-111521218D01*
X262153141Y-111444505D01*
X262055495Y-111346859D01*
X261978782Y-111232049D01*
X261925938Y-111104473D01*
X261899000Y-110969044D01*
X261899000Y-110830956D01*
X261925938Y-110695527D01*
X261978782Y-110567951D01*
X262055495Y-110453141D01*
X262153141Y-110355495D01*
X262267951Y-110278782D01*
X262395527Y-110225938D01*
X262530956Y-110199000D01*
X262669044Y-110199000D01*
X262804473Y-110225938D01*
X262804473Y-110225938D01*
G37*
M02*
