M48
; DRILL file {KiCad (5.1.5)-3} date 1/24/2020 10:44:11 PM
; FORMAT={-:-/ absolute / inch / decimal}
; #@! TF.CreationDate,2020-01-24T22:44:11-05:00
; #@! TF.GenerationSoftware,Kicad,Pcbnew,(5.1.5)-3
; #@! TF.FileFunction,Plated,1,2,PTH
FMAT,2
INCH
T1C0.0157
T2C0.0280
T3C0.0315
T4C0.0354
T5C0.0362
T6C0.0374
T7C0.0394
T8C0.0402
T9C0.0433
T10C0.0472
T11C0.0906
%
G90
G05
T1
X4.55Y-4.14
X4.8Y-2.985
X4.8508Y-2.9652
X4.95Y-3.655
X4.9505Y-2.9496
X5.0Y-2.945
X5.0Y-3.695
X5.05Y-3.52
X5.08Y-2.8645
X5.099Y-3.555
X5.212Y-2.9279
X5.215Y-3.475
X6.24Y-4.695
X6.5175Y-4.6353
X6.5175Y-4.6767
X6.59Y-4.605
X7.445Y-4.045
T2
X6.1737Y-4.612
X6.3745Y-4.675
T3
X6.8715Y-3.796
X6.8715Y-4.096
X6.3298Y-3.8904
X6.3298Y-4.0873
X4.5Y-4.66
X4.8Y-4.66
X3.55Y-3.905
X3.6287Y-3.905
X8.29Y-3.275
X8.59Y-3.275
X9.1675Y-4.3055
X9.1675Y-4.5024
X7.815Y-3.4843
X7.815Y-3.6811
X7.002Y-3.7985
X7.002Y-4.0985
X5.75Y-4.695
X5.9469Y-4.695
X6.444Y-3.7932
X6.444Y-4.0932
X6.544Y-3.7932
X6.544Y-4.0932
X6.644Y-3.7932
X6.644Y-4.0932
X6.744Y-3.7932
X6.744Y-4.0932
X7.7982Y-3.275
X8.0982Y-3.275
X7.971Y-3.387
X7.971Y-3.687
X8.071Y-3.387
X8.071Y-3.687
X8.171Y-3.387
X8.171Y-3.687
X8.271Y-3.387
X8.271Y-3.687
T4
X8.414Y-3.916
X8.414Y-4.0459
X8.5124Y-3.916
X8.5124Y-4.0459
X8.6109Y-3.916
X8.6109Y-4.0459
X5.7444Y-3.229
X5.7444Y-3.329
X5.7444Y-4.229
X5.7444Y-4.329
X5.8444Y-3.229
X5.8444Y-3.329
X5.8444Y-4.229
X5.8444Y-4.329
X5.9444Y-3.229
X5.9444Y-3.329
X5.9444Y-4.229
X5.9444Y-4.329
X6.0444Y-3.229
X6.0444Y-3.329
X6.0444Y-4.229
X6.0444Y-4.329
X6.1444Y-3.229
X6.1444Y-3.329
X6.1444Y-4.229
X6.1444Y-4.329
X6.2444Y-3.229
X6.2444Y-3.329
X6.2444Y-4.229
X6.2444Y-4.329
X6.3444Y-3.229
X6.3444Y-3.329
X6.3444Y-4.229
X6.3444Y-4.329
X6.4444Y-3.229
X6.4444Y-3.329
X6.4444Y-4.229
X6.4444Y-4.329
X6.5444Y-3.229
X6.5444Y-3.329
X6.5444Y-4.229
X6.5444Y-4.329
X6.6444Y-3.229
X6.6444Y-3.329
X6.6444Y-4.229
X6.6444Y-4.329
X6.7444Y-3.229
X6.7444Y-3.329
X6.7444Y-4.229
X6.7444Y-4.329
X6.8444Y-3.229
X6.8444Y-3.329
X6.8444Y-4.229
X6.8444Y-4.329
X6.9444Y-3.229
X6.9444Y-3.329
X6.9444Y-4.229
X6.9444Y-4.329
X7.0444Y-3.229
X7.0444Y-3.329
X7.0444Y-4.229
X7.0444Y-4.329
X7.1444Y-3.229
X7.1444Y-3.329
X7.1444Y-4.229
X7.1444Y-4.329
X7.2444Y-3.229
X7.2444Y-3.329
X7.2444Y-4.229
X7.2444Y-4.329
X7.3444Y-3.229
X7.3444Y-3.329
X7.3444Y-4.229
X7.3444Y-4.329
X7.4444Y-3.229
X7.4444Y-3.329
X7.4444Y-4.229
X7.4444Y-4.329
X4.22Y-4.66
X4.32Y-4.66
T5
X9.2985Y-4.0309
X9.2985Y-4.1293
X9.2985Y-4.2081
X9.2985Y-4.3065
T6
X5.1907Y-4.6676
X5.2891Y-4.6676
X5.3876Y-4.6676
X5.486Y-4.6676
T7
X8.338Y-4.238
X8.438Y-4.238
X8.538Y-4.238
X8.638Y-4.238
X3.67Y-3.46
X3.67Y-3.56
X3.67Y-3.66
X9.696Y-3.2485
X9.696Y-3.3485
X9.696Y-3.4485
X9.696Y-3.5485
X9.696Y-3.6485
T8
X4.05Y-3.23
X4.05Y-3.33
X4.15Y-3.23
X4.15Y-3.33
X4.25Y-3.23
X4.25Y-3.33
X4.35Y-3.23
X4.35Y-3.33
X4.45Y-3.23
X4.45Y-3.33
X4.55Y-3.23
X4.55Y-3.33
X4.65Y-3.23
X4.65Y-3.33
X4.75Y-3.23
X4.75Y-3.33
X4.85Y-3.23
X4.85Y-3.33
X4.95Y-3.23
X4.95Y-3.33
X5.05Y-3.23
X5.05Y-3.33
X5.15Y-3.23
X5.15Y-3.33
X4.05Y-3.81
X4.05Y-3.91
X4.15Y-3.81
X4.15Y-3.91
X4.25Y-3.81
X4.25Y-3.91
X4.35Y-3.81
X4.35Y-3.91
X4.45Y-3.81
X4.45Y-3.91
X4.55Y-3.81
X4.55Y-3.91
X4.65Y-3.81
X4.65Y-3.91
X4.75Y-3.81
X4.75Y-3.91
X4.85Y-3.81
X4.85Y-3.91
X4.95Y-3.81
X4.95Y-3.91
X5.05Y-3.81
X5.05Y-3.91
X5.15Y-3.81
X5.15Y-3.91
T9
X8.5965Y-4.4915
X8.5965Y-4.6687
X8.8524Y-4.4915
X8.8524Y-4.6687
X8.076Y-4.491
X8.076Y-4.6682
X8.3319Y-4.491
X8.3319Y-4.6682
T10
X7.7822Y-2.9892
X7.92Y-2.9892
X8.0578Y-2.9892
X8.3592Y-2.9912
X8.497Y-2.9912
X8.6348Y-2.9912
T11
X9.4052Y-3.91
X9.4052Y-4.4274
T0
M30
