M48
; DRILL file {KiCad (6.0.5)} date Fri Jun  3 01:41:33 2022
; FORMAT={-:-/ absolute / metric / decimal}
; #@! TF.CreationDate,2022-06-03T01:41:33-04:00
; #@! TF.GenerationSoftware,Kicad,Pcbnew,(6.0.5)
; #@! TF.FileFunction,Plated,1,2,PTH
FMAT,2
METRIC
; #@! TA.AperFunction,Plated,PTH,ViaDrill
T1C0.400
; #@! TA.AperFunction,Plated,PTH,ComponentDrill
T2C0.900
; #@! TA.AperFunction,Plated,PTH,ComponentDrill
T3C0.920
; #@! TA.AperFunction,Plated,PTH,ComponentDrill
T4C0.950
; #@! TA.AperFunction,Plated,PTH,ComponentDrill
T5C1.000
; #@! TA.AperFunction,Plated,PTH,ComponentDrill
T6C1.020
; #@! TA.AperFunction,Plated,PTH,ComponentDrill
T7C1.100
; #@! TA.AperFunction,Plated,PTH,ComponentDrill
T8C1.200
; #@! TA.AperFunction,Plated,PTH,ComponentDrill
T9C2.300
%
G90
G05
T1
X87.376Y-96.774
X89.916Y-73.914
X89.916Y-78.994
X89.916Y-86.614
X89.916Y-109.474
X89.916Y-119.634
X94.234Y-101.346
X94.234Y-104.902
X95.453Y-90.386
X95.504Y-101.346
X95.504Y-104.902
X97.028Y-101.346
X97.028Y-104.902
X97.536Y-73.914
X97.536Y-78.994
X97.536Y-84.074
X98.298Y-103.124
X100.076Y-119.634
X102.616Y-112.014
X105.156Y-73.914
X105.156Y-78.994
X105.156Y-89.154
X105.156Y-94.234
X107.696Y-104.394
X107.696Y-114.554
X112.776Y-73.914
X112.776Y-89.154
X112.776Y-94.234
X115.214Y-118.389
X117.856Y-114.554
X118.948Y-94.78
X120.396Y-73.914
X120.523Y-86.779
X121.92Y-75.004
X123.21Y-74.454
X124.308Y-89.319
X125.222Y-72.136
X125.73Y-92.837
X125.743Y-73.904
X126.116Y-105.834
X127.0Y-93.853
X127.065Y-73.904
X128.27Y-89.408
X129.032Y-72.758
X129.515Y-90.297
X132.004Y-73.354
X132.461Y-88.265
X133.916Y-111.034
X134.137Y-82.448
X134.455Y-95.466
X139.616Y-105.634
X139.751Y-82.423
X140.016Y-90.334
X140.816Y-89.434
X141.63Y-115.849
X143.616Y-109.834
X143.816Y-89.734
X146.816Y-99.234
X147.016Y-117.634
X148.416Y-119.234
X150.816Y-109.934
X151.416Y-97.634
X152.781Y-116.688
X152.816Y-119.334
X153.416Y-113.634
X153.772Y-116.688
X156.326Y-110.024
X156.716Y-114.434
X157.616Y-89.734
X158.516Y-100.309
X158.916Y-116.434
X161.216Y-118.934
X163.626Y-114.814
X165.416Y-91.634
X165.716Y-97.634
X165.716Y-118.834
X167.316Y-93.234
X167.416Y-94.434
X168.716Y-100.634
X169.216Y-96.934
X170.516Y-92.034
X170.624Y-85.89
X172.116Y-114.784
X172.816Y-96.834
X173.216Y-92.034
X173.716Y-110.534
X173.816Y-86.034
X173.916Y-99.434
X174.616Y-94.434
X175.316Y-110.134
X176.416Y-98.334
X177.534Y-110.084
X178.916Y-98.034
X179.916Y-101.009
X179.916Y-118.834
X180.716Y-97.734
X181.127Y-72.428
X181.516Y-101.434
X181.559Y-85.827
X183.066Y-114.784
X183.916Y-102.959
X185.018Y-103.332
X185.699Y-84.747
X186.516Y-103.234
X187.816Y-103.334
X188.125Y-78.08
X188.316Y-97.934
X188.9Y-118.161
X190.416Y-101.734
X190.916Y-107.834
X195.106Y-111.404
X195.351Y-72.542
X196.672Y-81.521
X197.216Y-105.974
X199.116Y-93.234
X199.606Y-114.614
X200.0Y-87.706
X200.226Y-99.964
X200.316Y-118.334
X200.317Y-85.293
X200.686Y-109.734
X203.124Y-87.833
X205.359Y-82.639
X206.35Y-87.351
X207.216Y-92.534
X208.432Y-89.941
X210.046Y-105.914
X211.816Y-106.434
X215.138Y-118.618
X217.132Y-81.585
X219.913Y-90.576
X221.488Y-93.472
X222.758Y-107.95
X225.298Y-73.66
X229.516Y-107.334
X229.616Y-119.634
X229.646Y-93.924
X229.819Y-113.068
X231.686Y-111.239
X231.716Y-102.565
X233.876Y-95.194
X234.116Y-107.534
X237.744Y-73.66
X238.125Y-90.64
X246.888Y-73.66
X247.396Y-96.774
X247.396Y-114.554
X247.396Y-119.634
T2
X145.872Y-80.086
X145.872Y-82.626
X145.872Y-105.486
X145.872Y-108.026
X148.412Y-80.086
X148.412Y-82.626
X148.412Y-105.486
X148.412Y-108.026
X150.952Y-80.086
X150.952Y-82.626
X150.952Y-105.486
X150.952Y-108.026
X153.492Y-80.086
X153.492Y-82.626
X153.492Y-105.486
X153.492Y-108.026
X156.032Y-80.086
X156.032Y-82.626
X156.032Y-105.486
X156.032Y-108.026
X158.572Y-80.086
X158.572Y-82.626
X158.572Y-105.486
X158.572Y-108.026
X161.112Y-80.086
X161.112Y-82.626
X161.112Y-105.486
X161.112Y-108.026
X163.652Y-80.086
X163.652Y-82.626
X163.652Y-105.486
X163.652Y-108.026
X166.192Y-80.086
X166.192Y-82.626
X166.192Y-105.486
X166.192Y-108.026
X168.732Y-80.086
X168.732Y-82.626
X168.732Y-105.486
X168.732Y-108.026
X171.272Y-80.086
X171.272Y-82.626
X171.272Y-105.486
X171.272Y-108.026
X173.812Y-80.086
X173.812Y-82.626
X173.812Y-105.486
X173.812Y-108.026
X176.352Y-80.086
X176.352Y-82.626
X176.352Y-105.486
X176.352Y-108.026
X178.892Y-80.086
X178.892Y-82.626
X178.892Y-105.486
X178.892Y-108.026
X181.432Y-80.086
X181.432Y-82.626
X181.432Y-105.486
X181.432Y-108.026
X183.972Y-80.086
X183.972Y-82.626
X183.972Y-105.486
X183.972Y-108.026
X186.512Y-80.086
X186.512Y-82.626
X186.512Y-105.486
X186.512Y-108.026
X189.052Y-80.086
X189.052Y-82.626
X189.052Y-105.486
X189.052Y-108.026
X213.716Y-99.466
X213.716Y-102.766
X216.216Y-99.466
X216.216Y-102.766
X218.716Y-99.466
X218.716Y-102.766
T3
X236.566Y-102.234
X236.566Y-104.734
X236.566Y-106.734
X236.566Y-109.234
T4
X131.844Y-118.557
X134.344Y-118.557
X136.844Y-118.557
X139.344Y-118.557
T5
X93.218Y-87.884
X93.218Y-90.424
X93.218Y-92.964
X211.785Y-108.712
X214.325Y-108.712
X216.865Y-108.712
X219.405Y-108.712
X246.278Y-82.512
X246.278Y-85.052
X246.278Y-87.592
X246.278Y-90.132
X246.278Y-92.672
T6
X102.87Y-82.042
X102.87Y-84.582
X102.87Y-96.774
X102.87Y-99.314
X105.41Y-82.042
X105.41Y-84.582
X105.41Y-96.774
X105.41Y-99.314
X107.95Y-82.042
X107.95Y-84.582
X107.95Y-96.774
X107.95Y-99.314
X110.49Y-82.042
X110.49Y-84.582
X110.49Y-96.774
X110.49Y-99.314
X113.03Y-82.042
X113.03Y-84.582
X113.03Y-96.774
X113.03Y-99.314
X115.57Y-82.042
X115.57Y-84.582
X115.57Y-96.774
X115.57Y-99.314
X118.11Y-82.042
X118.11Y-84.582
X118.11Y-96.774
X118.11Y-99.314
X120.65Y-82.042
X120.65Y-84.582
X120.65Y-96.774
X120.65Y-99.314
X123.19Y-82.042
X123.19Y-84.582
X123.19Y-96.774
X123.19Y-99.314
X125.73Y-82.042
X125.73Y-84.582
X125.73Y-96.774
X125.73Y-99.314
X128.27Y-82.042
X128.27Y-84.582
X128.27Y-96.774
X128.27Y-99.314
X130.81Y-82.042
X130.81Y-84.582
X130.81Y-96.774
X130.81Y-99.314
T7
X205.13Y-114.071
X205.13Y-118.571
X211.63Y-114.071
X211.63Y-118.571
X218.351Y-114.084
X218.351Y-118.584
X224.851Y-114.084
X224.851Y-118.584
T8
X197.668Y-75.519
X201.168Y-75.519
X204.668Y-75.519
X212.319Y-75.54
X215.819Y-75.54
X219.319Y-75.54
T9
X239.276Y-99.164
X239.276Y-112.304
T0
M30
