M48
; DRILL file {KiCad (6.0.4)} date Tue Apr 12 16:42:41 2022
; FORMAT={-:-/ absolute / inch / decimal}
; #@! TF.CreationDate,2022-04-12T16:42:41-04:00
; #@! TF.GenerationSoftware,Kicad,Pcbnew,(6.0.4)
; #@! TF.FileFunction,Plated,1,2,PTH
FMAT,2
INCH
; #@! TA.AperFunction,Plated,PTH,ViaDrill
T1C0.0157
; #@! TA.AperFunction,Plated,PTH,ComponentDrill
T2C0.0315
; #@! TA.AperFunction,Plated,PTH,ComponentDrill
T3C0.0354
; #@! TA.AperFunction,Plated,PTH,ComponentDrill
T4C0.0374
; #@! TA.AperFunction,Plated,PTH,ComponentDrill
T5C0.0394
; #@! TA.AperFunction,Plated,PTH,ComponentDrill
T6C0.0402
; #@! TA.AperFunction,Plated,PTH,ComponentDrill
T7C0.0433
; #@! TA.AperFunction,Plated,PTH,ComponentDrill
T8C0.0472
; #@! TA.AperFunction,Plated,PTH,ComponentDrill
T9C0.0512
; #@! TA.AperFunction,Plated,PTH,ComponentDrill
T10C0.0630
; #@! TA.AperFunction,Plated,PTH,ComponentDrill
T11C0.0650
; #@! TA.AperFunction,Plated,PTH,ComponentDrill
T12C0.0669
%
G90
G05
T1
X2.8058Y-5.0669
X2.8058Y-5.1299
X2.8058Y-5.185
X2.8058Y-5.2441
X2.8255Y-3.0394
X2.8255Y-4.2598
X2.8452Y-2.5394
X2.8491Y-2.7441
X2.8648Y-4.0787
X3.0381Y-5.0709
X3.0381Y-5.122
X3.0538Y-5.2401
X3.0617Y-4.3622
X3.0656Y-4.248
X3.0893Y-4.1417
X3.1089Y-5.2401
X3.1286Y-3.8425
X3.1719Y-3.559
X3.1837Y-3.3898
X3.1956Y-2.9961
X3.1995Y-3.2165
X3.231Y-5.4527
X3.2664Y-3.1299
X3.2861Y-4.8425
X3.2861Y-5.2953
X3.3412Y-5.4527
X3.357Y-2.4606
X3.357Y-4.1535
X3.3727Y-4.7598
X3.3924Y-3.7874
X3.4357Y-5.4527
X3.4515Y-3.4685
X3.5144Y-2.6968
X3.5144Y-3.1299
X3.5696Y-3.7362
X3.6522Y-3.9567
X3.6719Y-2.815
X3.6916Y-3.7165
X3.7428Y-4.3583
X3.8215Y-3.9527
X3.8294Y-2.815
X3.876Y-4.5046
X3.8839Y-4.7231
X3.9003Y-4.1299
X3.9475Y-2.6181
X3.9593Y-3.8189
X3.983Y-3.9921
X3.9869Y-4.7598
X3.9987Y-4.3504
X4.0341Y-3.4567
X4.0814Y-4.437
X4.0893Y-3.8425
X4.1837Y-3.4685
X4.2625Y-4.1535
X4.3412Y-2.4606
X4.3412Y-3.9961
X4.3806Y-2.5866
X4.3806Y-2.7362
X4.4436Y-2.6102
X4.4436Y-2.6575
X4.4436Y-2.7047
X4.4633Y-4.7716
X4.5184Y-4.374
X4.5696Y-3.4646
X4.6011Y-4.1772
X4.6089Y-3.9083
X4.6129Y-4.4409
X4.668Y-3.9921
X4.6956Y-2.4606
X4.8333Y-3.437
X4.9554Y-3.4882
X5.0099Y-4.479
X5.065Y-4.7231
X5.0656Y-3.9882
X5.0735Y-2.4331
X5.0774Y-3.185
X5.1168Y-4.4291
X5.1641Y-4.752
X5.1877Y-3.9921
X5.2704Y-4.2244
X5.3294Y-4.1693
X5.4239Y-4.3071
X5.5965Y-4.9672
X5.6201Y-4.7842
X5.6247Y-3.1929
X5.6247Y-3.559
X5.6359Y-4.481
X5.6404Y-3.6102
X5.6444Y-2.4291
X5.7113Y-4.1378
X5.7152Y-3.9685
X5.7231Y-4.3819
X5.731Y-3.559
X5.7349Y-3.4921
X5.7507Y-3.189
X5.7861Y-4.7559
X5.8333Y-3.7756
X5.8609Y-3.5905
X5.8845Y-3.4016
X5.9003Y-3.1732
X6.042Y-3.7795
X6.0538Y-3.2087
X6.2034Y-4.1417
X6.2205Y-4.7645
X6.2389Y-3.2087
X6.2428Y-3.4961
X6.2428Y-3.8976
X6.2428Y-4.2441
X6.2979Y-3.9921
X6.3215Y-4.4331
X6.3373Y-2.9488
X6.4908Y-2.5827
X6.5381Y-3.0079
X6.628Y-4.9318
X6.6326Y-2.4291
X6.6956Y-3.9921
X6.7389Y-3.2047
X6.7546Y-3.1024
X6.79Y-3.2992
X6.794Y-3.9882
X6.8229Y-4.5164
X6.8452Y-3.9488
X6.853Y-3.5079
X6.8806Y-2.5787
X6.8924Y-4.122
X6.9475Y-4.1693
X7.0144Y-3.126
X7.0499Y-3.0197
X7.0578Y-2.9173
X7.168Y-4.189
X7.1837Y-3.8031
X7.1837Y-3.8504
X7.1837Y-3.8976
X7.1837Y-4.3071
X7.2743Y-2.9213
X7.3019Y-2.4291
X7.3097Y-3.1181
X7.3255Y-3.7953
X7.3255Y-3.8464
X7.3255Y-3.8937
X7.3294Y-4.0
X7.3609Y-2.5984
X7.3767Y-3.1772
X7.3839Y-4.7448
X7.4121Y-4.2008
X7.4515Y-3.2913
X7.4908Y-4.4724
X7.5066Y-3.7992
X7.5302Y-2.4527
X7.5341Y-3.9606
X7.5459Y-4.2401
X7.5814Y-3.0236
X7.5971Y-2.9213
X7.6404Y-2.563
X7.6522Y-3.2283
X7.6798Y-3.7992
X7.6995Y-3.6496
X7.8137Y-4.126
X7.853Y-3.1693
X7.8767Y-5.4055
X7.9278Y-2.8464
X7.9711Y-4.7559
X7.979Y-4.3701
X7.979Y-5.4055
X7.9948Y-4.8819
X7.9987Y-3.1732
X8.0026Y-2.4606
X8.0026Y-4.0669
X8.0735Y-3.2598
X8.0971Y-5.4055
X8.1562Y-3.626
X8.168Y-3.1102
X8.1719Y-3.6929
X8.1719Y-3.748
X8.1719Y-4.1417
X8.2231Y-3.5984
X8.2231Y-4.0945
X8.227Y-3.6575
X8.2423Y-3.1732
X8.2743Y-4.1417
X8.2782Y-3.4803
X8.29Y-3.5984
X8.29Y-3.6575
X8.3333Y-5.2244
X8.3333Y-5.2835
X8.3491Y-3.9055
X8.3491Y-3.9488
X8.3491Y-4.0039
X8.3491Y-5.0394
X8.3491Y-5.1024
X8.357Y-3.6575
X8.357Y-3.748
X8.3688Y-4.7126
X8.3924Y-4.5827
X8.3963Y-3.3228
X8.3963Y-4.3386
X8.42Y-3.6614
X8.42Y-3.748
X8.4239Y-3.9055
X8.4239Y-3.9488
X8.4239Y-4.0039
X8.5105Y-3.9488
X8.5144Y-2.5
X8.5144Y-2.815
X8.5144Y-3.3504
X8.542Y-4.252
X8.5696Y-5.0945
X8.5696Y-5.1653
X8.5696Y-5.2323
X8.5853Y-3.1063
X8.5853Y-4.8189
X8.5853Y-4.8779
X8.5971Y-3.2047
T2
X4.3696Y-3.3516
X4.3696Y-3.4516
X4.8515Y-3.1976
X4.8515Y-3.2763
X4.8515Y-3.355
X4.9302Y-3.1976
X4.9302Y-3.2763
X4.9302Y-3.355
T3
X4.0755Y-2.6085
X4.0755Y-2.7085
X4.0755Y-2.8085
X4.0755Y-2.9085
X4.1755Y-2.6585
X4.1755Y-2.7585
X4.1755Y-2.8585
X4.1755Y-2.9585
T4
X3.0381Y-3.1496
X3.0381Y-3.248
X3.0381Y-3.3464
X3.0381Y-3.4449
T5
X7.3491Y-3.4409
X7.4475Y-3.4409
X7.4965Y-4.1063
X7.5499Y-3.4409
X7.5965Y-4.1063
X7.6483Y-3.4409
X7.6965Y-4.1063
X7.9593Y-3.7349
X7.9593Y-3.9318
X8.5105Y-4.4921
X8.5105Y-4.5921
X8.5105Y-4.6921
T6
X3.6255Y-2.5344
X3.6255Y-2.9325
X3.6924Y-2.6344
X3.6924Y-3.0325
X5.0904Y-2.576
X5.0904Y-2.676
X5.1904Y-2.576
X5.1904Y-2.676
X5.2904Y-2.576
X5.2904Y-2.676
X5.3904Y-2.576
X5.3904Y-2.676
X5.4904Y-2.576
X5.4904Y-2.676
X5.5904Y-2.576
X5.5904Y-2.676
X5.6904Y-2.576
X5.6904Y-2.676
X5.7904Y-2.576
X5.7904Y-2.676
X5.8904Y-2.576
X5.8904Y-2.676
X5.9904Y-2.576
X5.9904Y-2.676
X6.0904Y-2.576
X6.0904Y-2.676
X6.1904Y-2.576
X6.1904Y-2.676
T7
X4.3408Y-3.1016
X4.3408Y-3.7016
X4.4408Y-3.1016
X4.4408Y-3.2016
X4.4408Y-3.7016
X4.5408Y-3.1016
X4.5408Y-3.7016
X4.5888Y-3.5815
X4.6408Y-3.1016
X4.6408Y-3.7016
X4.6888Y-3.5815
X4.7408Y-3.1016
X4.7408Y-3.7016
X4.7888Y-3.5815
X4.8408Y-3.1016
X4.8408Y-3.7016
X4.8888Y-3.5815
X4.9408Y-3.1016
X4.9408Y-3.7016
X4.9888Y-3.5815
X5.0408Y-3.1016
X5.0408Y-3.7016
X5.1408Y-3.1016
X5.1408Y-3.7016
X5.2408Y-3.1016
X5.2408Y-3.7016
X5.3408Y-3.1016
X5.3408Y-3.7016
X5.4408Y-3.1016
X5.4408Y-3.7016
X5.5408Y-3.1016
X5.5408Y-3.7016
X5.6408Y-3.1016
X5.6408Y-3.7016
X5.7408Y-3.1016
X5.7408Y-3.7016
X5.8408Y-3.1016
X5.8408Y-3.7016
X5.9408Y-3.1016
X5.9408Y-3.7016
X6.0408Y-3.1016
X6.0408Y-3.7016
X6.1408Y-3.1016
X6.1408Y-3.2016
X6.1408Y-3.3016
X6.1408Y-3.4016
X6.1408Y-3.5016
X6.1408Y-3.6016
X6.1408Y-3.7016
X6.2408Y-3.1016
X6.2408Y-3.7016
X6.3408Y-3.1016
X6.3408Y-3.7016
X6.4408Y-3.1016
X6.4408Y-3.7016
X6.5408Y-3.1016
X6.5408Y-3.7016
X6.6408Y-3.1016
X6.6408Y-3.7016
X8.4692Y-4.1494
X8.4692Y-4.2994
T8
X3.5079Y-4.5906
X3.5079Y-5.1024
X3.6457Y-4.5906
X3.6457Y-5.1024
X3.7835Y-4.5906
X3.7835Y-5.1024
X4.0984Y-4.5906
X4.0984Y-5.1024
X4.2362Y-4.5906
X4.2362Y-5.1024
X4.374Y-4.5906
X4.374Y-5.1024
X4.689Y-4.5906
X4.6935Y-5.1024
X4.8268Y-4.5906
X4.8313Y-5.1024
X4.9646Y-4.5906
X4.9691Y-5.1024
X5.2795Y-4.5906
X5.2795Y-5.1024
X5.4173Y-4.5906
X5.4173Y-5.1024
X5.5551Y-4.5906
X5.5551Y-5.1024
X5.8701Y-4.5906
X5.8701Y-5.1024
X6.0079Y-4.5906
X6.0079Y-5.1024
X6.1457Y-4.5906
X6.1457Y-5.1024
X6.4606Y-4.5906
X6.4606Y-5.1024
X6.5984Y-4.5906
X6.5984Y-5.1024
X6.7362Y-4.5906
X6.7362Y-5.1024
X7.0512Y-4.5906
X7.0512Y-5.1024
X7.189Y-4.5906
X7.189Y-5.1024
X7.3268Y-4.5906
X7.3268Y-5.1024
X7.6417Y-4.5906
X7.6417Y-5.1024
X7.7795Y-4.5906
X7.7795Y-5.1024
X7.9173Y-4.5906
X7.9173Y-5.1024
T9
X2.9711Y-3.7087
X2.9711Y-3.9055
X2.9711Y-4.1024
X2.9711Y-4.2992
T10
X3.9456Y-2.4734
X3.9456Y-3.0935
T11
X2.9245Y-4.8559
X2.9245Y-5.0015
X2.9245Y-5.1787
X2.9245Y-5.3244
X3.7096Y-5.4484
X3.7096Y-5.594
X3.7096Y-5.7712
X3.7096Y-5.9169
X3.9733Y-5.449
X3.9733Y-5.5946
X3.9733Y-5.7718
X3.9733Y-5.9175
X4.2371Y-5.449
X4.2371Y-5.5946
X4.2371Y-5.7718
X4.2371Y-5.9175
X4.5009Y-5.449
X4.5009Y-5.5946
X4.5009Y-5.7718
X4.5009Y-5.9175
X4.7647Y-5.4488
X4.7647Y-5.5944
X4.7647Y-5.7716
X4.7647Y-5.9173
X5.0285Y-5.4488
X5.0285Y-5.5944
X5.0285Y-5.7716
X5.0285Y-5.9173
X5.2923Y-5.4488
X5.2923Y-5.5944
X5.2923Y-5.7716
X5.2923Y-5.9173
X5.5561Y-5.4488
X5.5561Y-5.5944
X5.5561Y-5.7716
X5.5561Y-5.9173
X5.8199Y-5.4488
X5.8199Y-5.5944
X5.8199Y-5.7716
X5.8199Y-5.9173
X6.0837Y-5.4488
X6.0837Y-5.5944
X6.0837Y-5.7716
X6.0837Y-5.9173
X6.3475Y-5.4488
X6.3475Y-5.5944
X6.3475Y-5.7716
X6.3475Y-5.9173
X6.6113Y-5.4488
X6.6113Y-5.5944
X6.6113Y-5.7716
X6.6113Y-5.9173
X6.8751Y-5.4513
X6.8751Y-5.597
X6.8751Y-5.7742
X6.8751Y-5.9198
X7.1389Y-5.4513
X7.1389Y-5.597
X7.1389Y-5.7742
X7.1389Y-5.9198
X7.4027Y-5.4513
X7.4027Y-5.597
X7.4027Y-5.7742
X7.4027Y-5.9198
X7.6665Y-5.4513
X7.6665Y-5.597
X7.6665Y-5.7742
X7.6665Y-5.9198
X8.4538Y-4.8536
X8.4538Y-4.9993
X8.4538Y-5.1764
X8.4538Y-5.3221
T12
X2.9948Y-5.7244
X3.3688Y-5.7244
X8.0144Y-5.7244
X8.3885Y-5.7244
T0
M30
