G04 #@! TF.GenerationSoftware,KiCad,Pcbnew,(6.0.4)*
G04 #@! TF.CreationDate,2022-04-12T16:42:45-04:00*
G04 #@! TF.ProjectId,Teensy_16,5465656e-7379-45f3-9136-2e6b69636164,v1*
G04 #@! TF.SameCoordinates,Original*
G04 #@! TF.FileFunction,AssemblyDrawing,Top*
%FSLAX46Y46*%
G04 Gerber Fmt 4.6, Leading zero omitted, Abs format (unit mm)*
G04 Created by KiCad (PCBNEW (6.0.4)) date 2022-04-12 16:42:45*
%MOMM*%
%LPD*%
G01*
G04 APERTURE LIST*
%ADD10C,0.120000*%
%ADD11C,0.150000*%
%ADD12C,0.060000*%
%ADD13C,0.080000*%
%ADD14C,0.050000*%
%ADD15C,0.100000*%
%ADD16C,0.152400*%
%ADD17C,0.127000*%
%ADD18C,0.200000*%
G04 APERTURE END LIST*
D10*
X212528904Y-98009323D02*
X213176523Y-98009323D01*
X213252714Y-97971228D01*
X213290809Y-97933133D01*
X213328904Y-97856942D01*
X213328904Y-97704561D01*
X213290809Y-97628371D01*
X213252714Y-97590276D01*
X213176523Y-97552180D01*
X212528904Y-97552180D01*
X212605095Y-97209323D02*
X212567000Y-97171228D01*
X212528904Y-97095038D01*
X212528904Y-96904561D01*
X212567000Y-96828371D01*
X212605095Y-96790276D01*
X212681285Y-96752180D01*
X212757476Y-96752180D01*
X212871761Y-96790276D01*
X213328904Y-97247419D01*
X213328904Y-96752180D01*
D11*
X197776880Y-81604561D02*
X198491166Y-81604561D01*
X198634023Y-81652180D01*
X198729261Y-81747419D01*
X198776880Y-81890276D01*
X198776880Y-81985514D01*
X197776880Y-81128371D02*
X198586404Y-81128371D01*
X198681642Y-81080752D01*
X198729261Y-81033133D01*
X198776880Y-80937895D01*
X198776880Y-80747419D01*
X198729261Y-80652180D01*
X198681642Y-80604561D01*
X198586404Y-80556942D01*
X197776880Y-80556942D01*
X198776880Y-80080752D02*
X197776880Y-80080752D01*
X198491166Y-79747419D01*
X197776880Y-79414085D01*
X198776880Y-79414085D01*
X198776880Y-78937895D02*
X197776880Y-78937895D01*
X197776880Y-78556942D01*
X197824500Y-78461704D01*
X197872119Y-78414085D01*
X197967357Y-78366466D01*
X198110214Y-78366466D01*
X198205452Y-78414085D01*
X198253071Y-78461704D01*
X198300690Y-78556942D01*
X198300690Y-78937895D01*
X198253071Y-77937895D02*
X198253071Y-77604561D01*
X198776880Y-77461704D02*
X198776880Y-77937895D01*
X197776880Y-77937895D01*
X197776880Y-77461704D01*
X198776880Y-76461704D02*
X198300690Y-76795038D01*
X198776880Y-77033133D02*
X197776880Y-77033133D01*
X197776880Y-76652180D01*
X197824500Y-76556942D01*
X197872119Y-76509323D01*
X197967357Y-76461704D01*
X198110214Y-76461704D01*
X198205452Y-76509323D01*
X198253071Y-76556942D01*
X198300690Y-76652180D01*
X198300690Y-77033133D01*
X186676880Y-81366466D02*
X187391166Y-81366466D01*
X187534023Y-81414085D01*
X187629261Y-81509323D01*
X187676880Y-81652180D01*
X187676880Y-81747419D01*
X187010214Y-80461704D02*
X187676880Y-80461704D01*
X187010214Y-80890276D02*
X187534023Y-80890276D01*
X187629261Y-80842657D01*
X187676880Y-80747419D01*
X187676880Y-80604561D01*
X187629261Y-80509323D01*
X187581642Y-80461704D01*
X187676880Y-79985514D02*
X187010214Y-79985514D01*
X187105452Y-79985514D02*
X187057833Y-79937895D01*
X187010214Y-79842657D01*
X187010214Y-79699800D01*
X187057833Y-79604561D01*
X187153071Y-79556942D01*
X187676880Y-79556942D01*
X187153071Y-79556942D02*
X187057833Y-79509323D01*
X187010214Y-79414085D01*
X187010214Y-79271228D01*
X187057833Y-79175990D01*
X187153071Y-79128371D01*
X187676880Y-79128371D01*
X187010214Y-78652180D02*
X188010214Y-78652180D01*
X187057833Y-78652180D02*
X187010214Y-78556942D01*
X187010214Y-78366466D01*
X187057833Y-78271228D01*
X187105452Y-78223609D01*
X187200690Y-78175990D01*
X187486404Y-78175990D01*
X187581642Y-78223609D01*
X187629261Y-78271228D01*
X187676880Y-78366466D01*
X187676880Y-78556942D01*
X187629261Y-78652180D01*
X187629261Y-77366466D02*
X187676880Y-77461704D01*
X187676880Y-77652180D01*
X187629261Y-77747419D01*
X187534023Y-77795038D01*
X187153071Y-77795038D01*
X187057833Y-77747419D01*
X187010214Y-77652180D01*
X187010214Y-77461704D01*
X187057833Y-77366466D01*
X187153071Y-77318847D01*
X187248309Y-77318847D01*
X187343547Y-77795038D01*
X187676880Y-76890276D02*
X187010214Y-76890276D01*
X187200690Y-76890276D02*
X187105452Y-76842657D01*
X187057833Y-76795038D01*
X187010214Y-76699800D01*
X187010214Y-76604561D01*
X211700333Y-82582180D02*
X211128904Y-82582180D01*
X211414619Y-82582180D02*
X211414619Y-81582180D01*
X211319380Y-81725038D01*
X211224142Y-81820276D01*
X211128904Y-81867895D01*
X212319380Y-81582180D02*
X212414619Y-81582180D01*
X212509857Y-81629800D01*
X212557476Y-81677419D01*
X212605095Y-81772657D01*
X212652714Y-81963133D01*
X212652714Y-82201228D01*
X212605095Y-82391704D01*
X212557476Y-82486942D01*
X212509857Y-82534561D01*
X212414619Y-82582180D01*
X212319380Y-82582180D01*
X212224142Y-82534561D01*
X212176523Y-82486942D01*
X212128904Y-82391704D01*
X212081285Y-82201228D01*
X212081285Y-81963133D01*
X212128904Y-81772657D01*
X212176523Y-81677419D01*
X212224142Y-81629800D01*
X212319380Y-81582180D01*
X213271761Y-81582180D02*
X213367000Y-81582180D01*
X213462238Y-81629800D01*
X213509857Y-81677419D01*
X213557476Y-81772657D01*
X213605095Y-81963133D01*
X213605095Y-82201228D01*
X213557476Y-82391704D01*
X213509857Y-82486942D01*
X213462238Y-82534561D01*
X213367000Y-82582180D01*
X213271761Y-82582180D01*
X213176523Y-82534561D01*
X213128904Y-82486942D01*
X213081285Y-82391704D01*
X213033666Y-82201228D01*
X213033666Y-81963133D01*
X213081285Y-81772657D01*
X213128904Y-81677419D01*
X213176523Y-81629800D01*
X213271761Y-81582180D01*
D12*
X212109857Y-80880752D02*
X211976523Y-80690276D01*
X211881285Y-80880752D02*
X211881285Y-80480752D01*
X212033666Y-80480752D01*
X212071761Y-80499800D01*
X212090809Y-80518847D01*
X212109857Y-80556942D01*
X212109857Y-80614085D01*
X212090809Y-80652180D01*
X212071761Y-80671228D01*
X212033666Y-80690276D01*
X211881285Y-80690276D01*
X212490809Y-80880752D02*
X212262238Y-80880752D01*
X212376523Y-80880752D02*
X212376523Y-80480752D01*
X212338428Y-80537895D01*
X212300333Y-80575990D01*
X212262238Y-80595038D01*
X212871761Y-80880752D02*
X212643190Y-80880752D01*
X212757476Y-80880752D02*
X212757476Y-80480752D01*
X212719380Y-80537895D01*
X212681285Y-80575990D01*
X212643190Y-80595038D01*
D11*
X135895571Y-96012180D02*
X136467000Y-96012180D01*
X136181285Y-97012180D02*
X136181285Y-96012180D01*
X137181285Y-96964561D02*
X137086047Y-97012180D01*
X136895571Y-97012180D01*
X136800333Y-96964561D01*
X136752714Y-96869323D01*
X136752714Y-96488371D01*
X136800333Y-96393133D01*
X136895571Y-96345514D01*
X137086047Y-96345514D01*
X137181285Y-96393133D01*
X137228904Y-96488371D01*
X137228904Y-96583609D01*
X136752714Y-96678847D01*
X138038428Y-96964561D02*
X137943190Y-97012180D01*
X137752714Y-97012180D01*
X137657476Y-96964561D01*
X137609857Y-96869323D01*
X137609857Y-96488371D01*
X137657476Y-96393133D01*
X137752714Y-96345514D01*
X137943190Y-96345514D01*
X138038428Y-96393133D01*
X138086047Y-96488371D01*
X138086047Y-96583609D01*
X137609857Y-96678847D01*
X138514619Y-96345514D02*
X138514619Y-97012180D01*
X138514619Y-96440752D02*
X138562238Y-96393133D01*
X138657476Y-96345514D01*
X138800333Y-96345514D01*
X138895571Y-96393133D01*
X138943190Y-96488371D01*
X138943190Y-97012180D01*
X139371761Y-96964561D02*
X139467000Y-97012180D01*
X139657476Y-97012180D01*
X139752714Y-96964561D01*
X139800333Y-96869323D01*
X139800333Y-96821704D01*
X139752714Y-96726466D01*
X139657476Y-96678847D01*
X139514619Y-96678847D01*
X139419380Y-96631228D01*
X139371761Y-96535990D01*
X139371761Y-96488371D01*
X139419380Y-96393133D01*
X139514619Y-96345514D01*
X139657476Y-96345514D01*
X139752714Y-96393133D01*
X140133666Y-96345514D02*
X140371761Y-97012180D01*
X140609857Y-96345514D02*
X140371761Y-97012180D01*
X140276523Y-97250276D01*
X140228904Y-97297895D01*
X140133666Y-97345514D01*
X141419380Y-96345514D02*
X141419380Y-97012180D01*
X141181285Y-95964561D02*
X140943190Y-96678847D01*
X141562238Y-96678847D01*
X141943190Y-96916942D02*
X141990809Y-96964561D01*
X141943190Y-97012180D01*
X141895571Y-96964561D01*
X141943190Y-96916942D01*
X141943190Y-97012180D01*
X142943190Y-97012180D02*
X142371761Y-97012180D01*
X142657476Y-97012180D02*
X142657476Y-96012180D01*
X142562238Y-96155038D01*
X142467000Y-96250276D01*
X142371761Y-96297895D01*
X86969380Y-71064323D02*
X87683666Y-71064323D01*
X87826523Y-71111942D01*
X87921761Y-71207180D01*
X87969380Y-71350038D01*
X87969380Y-71445276D01*
X87064619Y-70635752D02*
X87017000Y-70588133D01*
X86969380Y-70492895D01*
X86969380Y-70254800D01*
X87017000Y-70159561D01*
X87064619Y-70111942D01*
X87159857Y-70064323D01*
X87255095Y-70064323D01*
X87397952Y-70111942D01*
X87969380Y-70683371D01*
X87969380Y-70064323D01*
X86969380Y-69445276D02*
X86969380Y-69350038D01*
X87017000Y-69254800D01*
X87064619Y-69207180D01*
X87159857Y-69159561D01*
X87350333Y-69111942D01*
X87588428Y-69111942D01*
X87778904Y-69159561D01*
X87874142Y-69207180D01*
X87921761Y-69254800D01*
X87969380Y-69350038D01*
X87969380Y-69445276D01*
X87921761Y-69540514D01*
X87874142Y-69588133D01*
X87778904Y-69635752D01*
X87588428Y-69683371D01*
X87350333Y-69683371D01*
X87159857Y-69635752D01*
X87064619Y-69588133D01*
X87017000Y-69540514D01*
X86969380Y-69445276D01*
D13*
X110183666Y-67778371D02*
X110159857Y-67802180D01*
X110088428Y-67825990D01*
X110040809Y-67825990D01*
X109969380Y-67802180D01*
X109921761Y-67754561D01*
X109897952Y-67706942D01*
X109874142Y-67611704D01*
X109874142Y-67540276D01*
X109897952Y-67445038D01*
X109921761Y-67397419D01*
X109969380Y-67349800D01*
X110040809Y-67325990D01*
X110088428Y-67325990D01*
X110159857Y-67349800D01*
X110183666Y-67373609D01*
X110636047Y-67325990D02*
X110397952Y-67325990D01*
X110374142Y-67564085D01*
X110397952Y-67540276D01*
X110445571Y-67516466D01*
X110564619Y-67516466D01*
X110612238Y-67540276D01*
X110636047Y-67564085D01*
X110659857Y-67611704D01*
X110659857Y-67730752D01*
X110636047Y-67778371D01*
X110612238Y-67802180D01*
X110564619Y-67825990D01*
X110445571Y-67825990D01*
X110397952Y-67802180D01*
X110374142Y-67778371D01*
D12*
X132825333Y-106092657D02*
X132806285Y-106111704D01*
X132749142Y-106130752D01*
X132711047Y-106130752D01*
X132653904Y-106111704D01*
X132615809Y-106073609D01*
X132596761Y-106035514D01*
X132577714Y-105959323D01*
X132577714Y-105902180D01*
X132596761Y-105825990D01*
X132615809Y-105787895D01*
X132653904Y-105749800D01*
X132711047Y-105730752D01*
X132749142Y-105730752D01*
X132806285Y-105749800D01*
X132825333Y-105768847D01*
X133168190Y-105864085D02*
X133168190Y-106130752D01*
X133072952Y-105711704D02*
X132977714Y-105997419D01*
X133225333Y-105997419D01*
D14*
X70034980Y-131070742D02*
X70034980Y-130451695D01*
X70415933Y-130785028D01*
X70415933Y-130642171D01*
X70463552Y-130546933D01*
X70511171Y-130499314D01*
X70606409Y-130451695D01*
X70844504Y-130451695D01*
X70939742Y-130499314D01*
X70987361Y-130546933D01*
X71034980Y-130642171D01*
X71034980Y-130927885D01*
X70987361Y-131023123D01*
X70939742Y-131070742D01*
X70034980Y-129546933D02*
X70034980Y-130023123D01*
X70511171Y-130070742D01*
X70463552Y-130023123D01*
X70415933Y-129927885D01*
X70415933Y-129689790D01*
X70463552Y-129594552D01*
X70511171Y-129546933D01*
X70606409Y-129499314D01*
X70844504Y-129499314D01*
X70939742Y-129546933D01*
X70987361Y-129594552D01*
X71034980Y-129689790D01*
X71034980Y-129927885D01*
X70987361Y-130023123D01*
X70939742Y-130070742D01*
X70368314Y-128642171D02*
X71034980Y-128642171D01*
X69987361Y-128880266D02*
X70701647Y-129118361D01*
X70701647Y-128499314D01*
X70368314Y-127689790D02*
X71034980Y-127689790D01*
X69987361Y-127927885D02*
X70701647Y-128165980D01*
X70701647Y-127546933D01*
X70654028Y-127165980D02*
X70654028Y-126404076D01*
X70130219Y-125975504D02*
X70082600Y-125927885D01*
X70034980Y-125832647D01*
X70034980Y-125594552D01*
X70082600Y-125499314D01*
X70130219Y-125451695D01*
X70225457Y-125404076D01*
X70320695Y-125404076D01*
X70463552Y-125451695D01*
X71034980Y-126023123D01*
X71034980Y-125404076D01*
D11*
X90100000Y-134204761D02*
X90242857Y-134252380D01*
X90480952Y-134252380D01*
X90576190Y-134204761D01*
X90623809Y-134157142D01*
X90671428Y-134061904D01*
X90671428Y-133966666D01*
X90623809Y-133871428D01*
X90576190Y-133823809D01*
X90480952Y-133776190D01*
X90290476Y-133728571D01*
X90195238Y-133680952D01*
X90147619Y-133633333D01*
X90100000Y-133538095D01*
X90100000Y-133442857D01*
X90147619Y-133347619D01*
X90195238Y-133300000D01*
X90290476Y-133252380D01*
X90528571Y-133252380D01*
X90671428Y-133300000D01*
X90957142Y-133585714D02*
X91338095Y-133585714D01*
X91100000Y-133252380D02*
X91100000Y-134109523D01*
X91147619Y-134204761D01*
X91242857Y-134252380D01*
X91338095Y-134252380D01*
X91671428Y-134252380D02*
X91671428Y-133585714D01*
X91671428Y-133776190D02*
X91719047Y-133680952D01*
X91766666Y-133633333D01*
X91861904Y-133585714D01*
X91957142Y-133585714D01*
X92290476Y-134252380D02*
X92290476Y-133585714D01*
X92290476Y-133252380D02*
X92242857Y-133300000D01*
X92290476Y-133347619D01*
X92338095Y-133300000D01*
X92290476Y-133252380D01*
X92290476Y-133347619D01*
X92766666Y-133585714D02*
X92766666Y-134252380D01*
X92766666Y-133680952D02*
X92814285Y-133633333D01*
X92909523Y-133585714D01*
X93052380Y-133585714D01*
X93147619Y-133633333D01*
X93195238Y-133728571D01*
X93195238Y-134252380D01*
X94100000Y-133585714D02*
X94100000Y-134395238D01*
X94052380Y-134490476D01*
X94004761Y-134538095D01*
X93909523Y-134585714D01*
X93766666Y-134585714D01*
X93671428Y-134538095D01*
X94100000Y-134204761D02*
X94004761Y-134252380D01*
X93814285Y-134252380D01*
X93719047Y-134204761D01*
X93671428Y-134157142D01*
X93623809Y-134061904D01*
X93623809Y-133776190D01*
X93671428Y-133680952D01*
X93719047Y-133633333D01*
X93814285Y-133585714D01*
X94004761Y-133585714D01*
X94100000Y-133633333D01*
X94528571Y-133347619D02*
X94576190Y-133300000D01*
X94671428Y-133252380D01*
X94909523Y-133252380D01*
X95004761Y-133300000D01*
X95052380Y-133347619D01*
X95100000Y-133442857D01*
X95100000Y-133538095D01*
X95052380Y-133680952D01*
X94480952Y-134252380D01*
X95100000Y-134252380D01*
X91925166Y-126393680D02*
X91925166Y-127107966D01*
X91877547Y-127250823D01*
X91782309Y-127346061D01*
X91639452Y-127393680D01*
X91544214Y-127393680D01*
X92353738Y-126488919D02*
X92401357Y-126441300D01*
X92496595Y-126393680D01*
X92734690Y-126393680D01*
X92829928Y-126441300D01*
X92877547Y-126488919D01*
X92925166Y-126584157D01*
X92925166Y-126679395D01*
X92877547Y-126822252D01*
X92306119Y-127393680D01*
X92925166Y-127393680D01*
X120100000Y-121204761D02*
X120242857Y-121252380D01*
X120480952Y-121252380D01*
X120576190Y-121204761D01*
X120623809Y-121157142D01*
X120671428Y-121061904D01*
X120671428Y-120966666D01*
X120623809Y-120871428D01*
X120576190Y-120823809D01*
X120480952Y-120776190D01*
X120290476Y-120728571D01*
X120195238Y-120680952D01*
X120147619Y-120633333D01*
X120100000Y-120538095D01*
X120100000Y-120442857D01*
X120147619Y-120347619D01*
X120195238Y-120300000D01*
X120290476Y-120252380D01*
X120528571Y-120252380D01*
X120671428Y-120300000D01*
X120957142Y-120585714D02*
X121338095Y-120585714D01*
X121100000Y-120252380D02*
X121100000Y-121109523D01*
X121147619Y-121204761D01*
X121242857Y-121252380D01*
X121338095Y-121252380D01*
X121671428Y-121252380D02*
X121671428Y-120585714D01*
X121671428Y-120776190D02*
X121719047Y-120680952D01*
X121766666Y-120633333D01*
X121861904Y-120585714D01*
X121957142Y-120585714D01*
X122290476Y-121252380D02*
X122290476Y-120585714D01*
X122290476Y-120252380D02*
X122242857Y-120300000D01*
X122290476Y-120347619D01*
X122338095Y-120300000D01*
X122290476Y-120252380D01*
X122290476Y-120347619D01*
X122766666Y-120585714D02*
X122766666Y-121252380D01*
X122766666Y-120680952D02*
X122814285Y-120633333D01*
X122909523Y-120585714D01*
X123052380Y-120585714D01*
X123147619Y-120633333D01*
X123195238Y-120728571D01*
X123195238Y-121252380D01*
X124100000Y-120585714D02*
X124100000Y-121395238D01*
X124052380Y-121490476D01*
X124004761Y-121538095D01*
X123909523Y-121585714D01*
X123766666Y-121585714D01*
X123671428Y-121538095D01*
X124100000Y-121204761D02*
X124004761Y-121252380D01*
X123814285Y-121252380D01*
X123719047Y-121204761D01*
X123671428Y-121157142D01*
X123623809Y-121061904D01*
X123623809Y-120776190D01*
X123671428Y-120680952D01*
X123719047Y-120633333D01*
X123814285Y-120585714D01*
X124004761Y-120585714D01*
X124100000Y-120633333D01*
X125052380Y-120252380D02*
X124576190Y-120252380D01*
X124528571Y-120728571D01*
X124576190Y-120680952D01*
X124671428Y-120633333D01*
X124909523Y-120633333D01*
X125004761Y-120680952D01*
X125052380Y-120728571D01*
X125100000Y-120823809D01*
X125100000Y-121061904D01*
X125052380Y-121157142D01*
X125004761Y-121204761D01*
X124909523Y-121252380D01*
X124671428Y-121252380D01*
X124576190Y-121204761D01*
X124528571Y-121157142D01*
X122266666Y-112502380D02*
X122266666Y-113216666D01*
X122219047Y-113359523D01*
X122123809Y-113454761D01*
X121980952Y-113502380D01*
X121885714Y-113502380D01*
X123219047Y-112502380D02*
X122742857Y-112502380D01*
X122695238Y-112978571D01*
X122742857Y-112930952D01*
X122838095Y-112883333D01*
X123076190Y-112883333D01*
X123171428Y-112930952D01*
X123219047Y-112978571D01*
X123266666Y-113073809D01*
X123266666Y-113311904D01*
X123219047Y-113407142D01*
X123171428Y-113454761D01*
X123076190Y-113502380D01*
X122838095Y-113502380D01*
X122742857Y-113454761D01*
X122695238Y-113407142D01*
X120214342Y-134204761D02*
X120357199Y-134252380D01*
X120595294Y-134252380D01*
X120690532Y-134204761D01*
X120738151Y-134157142D01*
X120785770Y-134061904D01*
X120785770Y-133966666D01*
X120738151Y-133871428D01*
X120690532Y-133823809D01*
X120595294Y-133776190D01*
X120404818Y-133728571D01*
X120309580Y-133680952D01*
X120261961Y-133633333D01*
X120214342Y-133538095D01*
X120214342Y-133442857D01*
X120261961Y-133347619D01*
X120309580Y-133300000D01*
X120404818Y-133252380D01*
X120642913Y-133252380D01*
X120785770Y-133300000D01*
X121071484Y-133585714D02*
X121452437Y-133585714D01*
X121214342Y-133252380D02*
X121214342Y-134109523D01*
X121261961Y-134204761D01*
X121357199Y-134252380D01*
X121452437Y-134252380D01*
X121785770Y-134252380D02*
X121785770Y-133585714D01*
X121785770Y-133776190D02*
X121833389Y-133680952D01*
X121881008Y-133633333D01*
X121976246Y-133585714D01*
X122071484Y-133585714D01*
X122404818Y-134252380D02*
X122404818Y-133585714D01*
X122404818Y-133252380D02*
X122357199Y-133300000D01*
X122404818Y-133347619D01*
X122452437Y-133300000D01*
X122404818Y-133252380D01*
X122404818Y-133347619D01*
X122881008Y-133585714D02*
X122881008Y-134252380D01*
X122881008Y-133680952D02*
X122928627Y-133633333D01*
X123023865Y-133585714D01*
X123166722Y-133585714D01*
X123261961Y-133633333D01*
X123309580Y-133728571D01*
X123309580Y-134252380D01*
X124214342Y-133585714D02*
X124214342Y-134395238D01*
X124166722Y-134490476D01*
X124119103Y-134538095D01*
X124023865Y-134585714D01*
X123881008Y-134585714D01*
X123785770Y-134538095D01*
X124214342Y-134204761D02*
X124119103Y-134252380D01*
X123928627Y-134252380D01*
X123833389Y-134204761D01*
X123785770Y-134157142D01*
X123738151Y-134061904D01*
X123738151Y-133776190D01*
X123785770Y-133680952D01*
X123833389Y-133633333D01*
X123928627Y-133585714D01*
X124119103Y-133585714D01*
X124214342Y-133633333D01*
X125119103Y-133252380D02*
X124928627Y-133252380D01*
X124833389Y-133300000D01*
X124785770Y-133347619D01*
X124690532Y-133490476D01*
X124642913Y-133680952D01*
X124642913Y-134061904D01*
X124690532Y-134157142D01*
X124738151Y-134204761D01*
X124833389Y-134252380D01*
X125023865Y-134252380D01*
X125119103Y-134204761D01*
X125166722Y-134157142D01*
X125214342Y-134061904D01*
X125214342Y-133823809D01*
X125166722Y-133728571D01*
X125119103Y-133680952D01*
X125023865Y-133633333D01*
X124833389Y-133633333D01*
X124738151Y-133680952D01*
X124690532Y-133728571D01*
X124642913Y-133823809D01*
X122381008Y-125502380D02*
X122381008Y-126216666D01*
X122333389Y-126359523D01*
X122238151Y-126454761D01*
X122095294Y-126502380D01*
X122000056Y-126502380D01*
X123285770Y-125502380D02*
X123095294Y-125502380D01*
X123000056Y-125550000D01*
X122952437Y-125597619D01*
X122857199Y-125740476D01*
X122809580Y-125930952D01*
X122809580Y-126311904D01*
X122857199Y-126407142D01*
X122904818Y-126454761D01*
X123000056Y-126502380D01*
X123190532Y-126502380D01*
X123285770Y-126454761D01*
X123333389Y-126407142D01*
X123381008Y-126311904D01*
X123381008Y-126073809D01*
X123333389Y-125978571D01*
X123285770Y-125930952D01*
X123190532Y-125883333D01*
X123000056Y-125883333D01*
X122904818Y-125930952D01*
X122857199Y-125978571D01*
X122809580Y-126073809D01*
X135100000Y-121204761D02*
X135242857Y-121252380D01*
X135480952Y-121252380D01*
X135576190Y-121204761D01*
X135623809Y-121157142D01*
X135671428Y-121061904D01*
X135671428Y-120966666D01*
X135623809Y-120871428D01*
X135576190Y-120823809D01*
X135480952Y-120776190D01*
X135290476Y-120728571D01*
X135195238Y-120680952D01*
X135147619Y-120633333D01*
X135100000Y-120538095D01*
X135100000Y-120442857D01*
X135147619Y-120347619D01*
X135195238Y-120300000D01*
X135290476Y-120252380D01*
X135528571Y-120252380D01*
X135671428Y-120300000D01*
X135957142Y-120585714D02*
X136338095Y-120585714D01*
X136100000Y-120252380D02*
X136100000Y-121109523D01*
X136147619Y-121204761D01*
X136242857Y-121252380D01*
X136338095Y-121252380D01*
X136671428Y-121252380D02*
X136671428Y-120585714D01*
X136671428Y-120776190D02*
X136719047Y-120680952D01*
X136766666Y-120633333D01*
X136861904Y-120585714D01*
X136957142Y-120585714D01*
X137290476Y-121252380D02*
X137290476Y-120585714D01*
X137290476Y-120252380D02*
X137242857Y-120300000D01*
X137290476Y-120347619D01*
X137338095Y-120300000D01*
X137290476Y-120252380D01*
X137290476Y-120347619D01*
X137766666Y-120585714D02*
X137766666Y-121252380D01*
X137766666Y-120680952D02*
X137814285Y-120633333D01*
X137909523Y-120585714D01*
X138052380Y-120585714D01*
X138147619Y-120633333D01*
X138195238Y-120728571D01*
X138195238Y-121252380D01*
X139100000Y-120585714D02*
X139100000Y-121395238D01*
X139052380Y-121490476D01*
X139004761Y-121538095D01*
X138909523Y-121585714D01*
X138766666Y-121585714D01*
X138671428Y-121538095D01*
X139100000Y-121204761D02*
X139004761Y-121252380D01*
X138814285Y-121252380D01*
X138719047Y-121204761D01*
X138671428Y-121157142D01*
X138623809Y-121061904D01*
X138623809Y-120776190D01*
X138671428Y-120680952D01*
X138719047Y-120633333D01*
X138814285Y-120585714D01*
X139004761Y-120585714D01*
X139100000Y-120633333D01*
X139480952Y-120252380D02*
X140147619Y-120252380D01*
X139719047Y-121252380D01*
X137266666Y-112502380D02*
X137266666Y-113216666D01*
X137219047Y-113359523D01*
X137123809Y-113454761D01*
X136980952Y-113502380D01*
X136885714Y-113502380D01*
X137647619Y-112502380D02*
X138314285Y-112502380D01*
X137885714Y-113502380D01*
X135100000Y-134204761D02*
X135242857Y-134252380D01*
X135480952Y-134252380D01*
X135576190Y-134204761D01*
X135623809Y-134157142D01*
X135671428Y-134061904D01*
X135671428Y-133966666D01*
X135623809Y-133871428D01*
X135576190Y-133823809D01*
X135480952Y-133776190D01*
X135290476Y-133728571D01*
X135195238Y-133680952D01*
X135147619Y-133633333D01*
X135100000Y-133538095D01*
X135100000Y-133442857D01*
X135147619Y-133347619D01*
X135195238Y-133300000D01*
X135290476Y-133252380D01*
X135528571Y-133252380D01*
X135671428Y-133300000D01*
X135957142Y-133585714D02*
X136338095Y-133585714D01*
X136100000Y-133252380D02*
X136100000Y-134109523D01*
X136147619Y-134204761D01*
X136242857Y-134252380D01*
X136338095Y-134252380D01*
X136671428Y-134252380D02*
X136671428Y-133585714D01*
X136671428Y-133776190D02*
X136719047Y-133680952D01*
X136766666Y-133633333D01*
X136861904Y-133585714D01*
X136957142Y-133585714D01*
X137290476Y-134252380D02*
X137290476Y-133585714D01*
X137290476Y-133252380D02*
X137242857Y-133300000D01*
X137290476Y-133347619D01*
X137338095Y-133300000D01*
X137290476Y-133252380D01*
X137290476Y-133347619D01*
X137766666Y-133585714D02*
X137766666Y-134252380D01*
X137766666Y-133680952D02*
X137814285Y-133633333D01*
X137909523Y-133585714D01*
X138052380Y-133585714D01*
X138147619Y-133633333D01*
X138195238Y-133728571D01*
X138195238Y-134252380D01*
X139100000Y-133585714D02*
X139100000Y-134395238D01*
X139052380Y-134490476D01*
X139004761Y-134538095D01*
X138909523Y-134585714D01*
X138766666Y-134585714D01*
X138671428Y-134538095D01*
X139100000Y-134204761D02*
X139004761Y-134252380D01*
X138814285Y-134252380D01*
X138719047Y-134204761D01*
X138671428Y-134157142D01*
X138623809Y-134061904D01*
X138623809Y-133776190D01*
X138671428Y-133680952D01*
X138719047Y-133633333D01*
X138814285Y-133585714D01*
X139004761Y-133585714D01*
X139100000Y-133633333D01*
X139719047Y-133680952D02*
X139623809Y-133633333D01*
X139576190Y-133585714D01*
X139528571Y-133490476D01*
X139528571Y-133442857D01*
X139576190Y-133347619D01*
X139623809Y-133300000D01*
X139719047Y-133252380D01*
X139909523Y-133252380D01*
X140004761Y-133300000D01*
X140052380Y-133347619D01*
X140100000Y-133442857D01*
X140100000Y-133490476D01*
X140052380Y-133585714D01*
X140004761Y-133633333D01*
X139909523Y-133680952D01*
X139719047Y-133680952D01*
X139623809Y-133728571D01*
X139576190Y-133776190D01*
X139528571Y-133871428D01*
X139528571Y-134061904D01*
X139576190Y-134157142D01*
X139623809Y-134204761D01*
X139719047Y-134252380D01*
X139909523Y-134252380D01*
X140004761Y-134204761D01*
X140052380Y-134157142D01*
X140100000Y-134061904D01*
X140100000Y-133871428D01*
X140052380Y-133776190D01*
X140004761Y-133728571D01*
X139909523Y-133680952D01*
X137266666Y-125502380D02*
X137266666Y-126216666D01*
X137219047Y-126359523D01*
X137123809Y-126454761D01*
X136980952Y-126502380D01*
X136885714Y-126502380D01*
X137885714Y-125930952D02*
X137790476Y-125883333D01*
X137742857Y-125835714D01*
X137695238Y-125740476D01*
X137695238Y-125692857D01*
X137742857Y-125597619D01*
X137790476Y-125550000D01*
X137885714Y-125502380D01*
X138076190Y-125502380D01*
X138171428Y-125550000D01*
X138219047Y-125597619D01*
X138266666Y-125692857D01*
X138266666Y-125740476D01*
X138219047Y-125835714D01*
X138171428Y-125883333D01*
X138076190Y-125930952D01*
X137885714Y-125930952D01*
X137790476Y-125978571D01*
X137742857Y-126026190D01*
X137695238Y-126121428D01*
X137695238Y-126311904D01*
X137742857Y-126407142D01*
X137790476Y-126454761D01*
X137885714Y-126502380D01*
X138076190Y-126502380D01*
X138171428Y-126454761D01*
X138219047Y-126407142D01*
X138266666Y-126311904D01*
X138266666Y-126121428D01*
X138219047Y-126026190D01*
X138171428Y-125978571D01*
X138076190Y-125930952D01*
X150100000Y-121204761D02*
X150242857Y-121252380D01*
X150480952Y-121252380D01*
X150576190Y-121204761D01*
X150623809Y-121157142D01*
X150671428Y-121061904D01*
X150671428Y-120966666D01*
X150623809Y-120871428D01*
X150576190Y-120823809D01*
X150480952Y-120776190D01*
X150290476Y-120728571D01*
X150195238Y-120680952D01*
X150147619Y-120633333D01*
X150100000Y-120538095D01*
X150100000Y-120442857D01*
X150147619Y-120347619D01*
X150195238Y-120300000D01*
X150290476Y-120252380D01*
X150528571Y-120252380D01*
X150671428Y-120300000D01*
X150957142Y-120585714D02*
X151338095Y-120585714D01*
X151100000Y-120252380D02*
X151100000Y-121109523D01*
X151147619Y-121204761D01*
X151242857Y-121252380D01*
X151338095Y-121252380D01*
X151671428Y-121252380D02*
X151671428Y-120585714D01*
X151671428Y-120776190D02*
X151719047Y-120680952D01*
X151766666Y-120633333D01*
X151861904Y-120585714D01*
X151957142Y-120585714D01*
X152290476Y-121252380D02*
X152290476Y-120585714D01*
X152290476Y-120252380D02*
X152242857Y-120300000D01*
X152290476Y-120347619D01*
X152338095Y-120300000D01*
X152290476Y-120252380D01*
X152290476Y-120347619D01*
X152766666Y-120585714D02*
X152766666Y-121252380D01*
X152766666Y-120680952D02*
X152814285Y-120633333D01*
X152909523Y-120585714D01*
X153052380Y-120585714D01*
X153147619Y-120633333D01*
X153195238Y-120728571D01*
X153195238Y-121252380D01*
X154100000Y-120585714D02*
X154100000Y-121395238D01*
X154052380Y-121490476D01*
X154004761Y-121538095D01*
X153909523Y-121585714D01*
X153766666Y-121585714D01*
X153671428Y-121538095D01*
X154100000Y-121204761D02*
X154004761Y-121252380D01*
X153814285Y-121252380D01*
X153719047Y-121204761D01*
X153671428Y-121157142D01*
X153623809Y-121061904D01*
X153623809Y-120776190D01*
X153671428Y-120680952D01*
X153719047Y-120633333D01*
X153814285Y-120585714D01*
X154004761Y-120585714D01*
X154100000Y-120633333D01*
X154623809Y-121252380D02*
X154814285Y-121252380D01*
X154909523Y-121204761D01*
X154957142Y-121157142D01*
X155052380Y-121014285D01*
X155100000Y-120823809D01*
X155100000Y-120442857D01*
X155052380Y-120347619D01*
X155004761Y-120300000D01*
X154909523Y-120252380D01*
X154719047Y-120252380D01*
X154623809Y-120300000D01*
X154576190Y-120347619D01*
X154528571Y-120442857D01*
X154528571Y-120680952D01*
X154576190Y-120776190D01*
X154623809Y-120823809D01*
X154719047Y-120871428D01*
X154909523Y-120871428D01*
X155004761Y-120823809D01*
X155052380Y-120776190D01*
X155100000Y-120680952D01*
X152266666Y-112502380D02*
X152266666Y-113216666D01*
X152219047Y-113359523D01*
X152123809Y-113454761D01*
X151980952Y-113502380D01*
X151885714Y-113502380D01*
X152790476Y-113502380D02*
X152980952Y-113502380D01*
X153076190Y-113454761D01*
X153123809Y-113407142D01*
X153219047Y-113264285D01*
X153266666Y-113073809D01*
X153266666Y-112692857D01*
X153219047Y-112597619D01*
X153171428Y-112550000D01*
X153076190Y-112502380D01*
X152885714Y-112502380D01*
X152790476Y-112550000D01*
X152742857Y-112597619D01*
X152695238Y-112692857D01*
X152695238Y-112930952D01*
X152742857Y-113026190D01*
X152790476Y-113073809D01*
X152885714Y-113121428D01*
X153076190Y-113121428D01*
X153171428Y-113073809D01*
X153219047Y-113026190D01*
X153266666Y-112930952D01*
X149623809Y-134204761D02*
X149766666Y-134252380D01*
X150004761Y-134252380D01*
X150100000Y-134204761D01*
X150147619Y-134157142D01*
X150195238Y-134061904D01*
X150195238Y-133966666D01*
X150147619Y-133871428D01*
X150100000Y-133823809D01*
X150004761Y-133776190D01*
X149814285Y-133728571D01*
X149719047Y-133680952D01*
X149671428Y-133633333D01*
X149623809Y-133538095D01*
X149623809Y-133442857D01*
X149671428Y-133347619D01*
X149719047Y-133300000D01*
X149814285Y-133252380D01*
X150052380Y-133252380D01*
X150195238Y-133300000D01*
X150480952Y-133585714D02*
X150861904Y-133585714D01*
X150623809Y-133252380D02*
X150623809Y-134109523D01*
X150671428Y-134204761D01*
X150766666Y-134252380D01*
X150861904Y-134252380D01*
X151195238Y-134252380D02*
X151195238Y-133585714D01*
X151195238Y-133776190D02*
X151242857Y-133680952D01*
X151290476Y-133633333D01*
X151385714Y-133585714D01*
X151480952Y-133585714D01*
X151814285Y-134252380D02*
X151814285Y-133585714D01*
X151814285Y-133252380D02*
X151766666Y-133300000D01*
X151814285Y-133347619D01*
X151861904Y-133300000D01*
X151814285Y-133252380D01*
X151814285Y-133347619D01*
X152290476Y-133585714D02*
X152290476Y-134252380D01*
X152290476Y-133680952D02*
X152338095Y-133633333D01*
X152433333Y-133585714D01*
X152576190Y-133585714D01*
X152671428Y-133633333D01*
X152719047Y-133728571D01*
X152719047Y-134252380D01*
X153623809Y-133585714D02*
X153623809Y-134395238D01*
X153576190Y-134490476D01*
X153528571Y-134538095D01*
X153433333Y-134585714D01*
X153290476Y-134585714D01*
X153195238Y-134538095D01*
X153623809Y-134204761D02*
X153528571Y-134252380D01*
X153338095Y-134252380D01*
X153242857Y-134204761D01*
X153195238Y-134157142D01*
X153147619Y-134061904D01*
X153147619Y-133776190D01*
X153195238Y-133680952D01*
X153242857Y-133633333D01*
X153338095Y-133585714D01*
X153528571Y-133585714D01*
X153623809Y-133633333D01*
X154623809Y-134252380D02*
X154052380Y-134252380D01*
X154338095Y-134252380D02*
X154338095Y-133252380D01*
X154242857Y-133395238D01*
X154147619Y-133490476D01*
X154052380Y-133538095D01*
X155242857Y-133252380D02*
X155338095Y-133252380D01*
X155433333Y-133300000D01*
X155480952Y-133347619D01*
X155528571Y-133442857D01*
X155576190Y-133633333D01*
X155576190Y-133871428D01*
X155528571Y-134061904D01*
X155480952Y-134157142D01*
X155433333Y-134204761D01*
X155338095Y-134252380D01*
X155242857Y-134252380D01*
X155147619Y-134204761D01*
X155100000Y-134157142D01*
X155052380Y-134061904D01*
X155004761Y-133871428D01*
X155004761Y-133633333D01*
X155052380Y-133442857D01*
X155100000Y-133347619D01*
X155147619Y-133300000D01*
X155242857Y-133252380D01*
X151790476Y-125502380D02*
X151790476Y-126216666D01*
X151742857Y-126359523D01*
X151647619Y-126454761D01*
X151504761Y-126502380D01*
X151409523Y-126502380D01*
X152790476Y-126502380D02*
X152219047Y-126502380D01*
X152504761Y-126502380D02*
X152504761Y-125502380D01*
X152409523Y-125645238D01*
X152314285Y-125740476D01*
X152219047Y-125788095D01*
X153409523Y-125502380D02*
X153504761Y-125502380D01*
X153600000Y-125550000D01*
X153647619Y-125597619D01*
X153695238Y-125692857D01*
X153742857Y-125883333D01*
X153742857Y-126121428D01*
X153695238Y-126311904D01*
X153647619Y-126407142D01*
X153600000Y-126454761D01*
X153504761Y-126502380D01*
X153409523Y-126502380D01*
X153314285Y-126454761D01*
X153266666Y-126407142D01*
X153219047Y-126311904D01*
X153171428Y-126121428D01*
X153171428Y-125883333D01*
X153219047Y-125692857D01*
X153266666Y-125597619D01*
X153314285Y-125550000D01*
X153409523Y-125502380D01*
X164623809Y-121204761D02*
X164766666Y-121252380D01*
X165004761Y-121252380D01*
X165100000Y-121204761D01*
X165147619Y-121157142D01*
X165195238Y-121061904D01*
X165195238Y-120966666D01*
X165147619Y-120871428D01*
X165100000Y-120823809D01*
X165004761Y-120776190D01*
X164814285Y-120728571D01*
X164719047Y-120680952D01*
X164671428Y-120633333D01*
X164623809Y-120538095D01*
X164623809Y-120442857D01*
X164671428Y-120347619D01*
X164719047Y-120300000D01*
X164814285Y-120252380D01*
X165052380Y-120252380D01*
X165195238Y-120300000D01*
X165480952Y-120585714D02*
X165861904Y-120585714D01*
X165623809Y-120252380D02*
X165623809Y-121109523D01*
X165671428Y-121204761D01*
X165766666Y-121252380D01*
X165861904Y-121252380D01*
X166195238Y-121252380D02*
X166195238Y-120585714D01*
X166195238Y-120776190D02*
X166242857Y-120680952D01*
X166290476Y-120633333D01*
X166385714Y-120585714D01*
X166480952Y-120585714D01*
X166814285Y-121252380D02*
X166814285Y-120585714D01*
X166814285Y-120252380D02*
X166766666Y-120300000D01*
X166814285Y-120347619D01*
X166861904Y-120300000D01*
X166814285Y-120252380D01*
X166814285Y-120347619D01*
X167290476Y-120585714D02*
X167290476Y-121252380D01*
X167290476Y-120680952D02*
X167338095Y-120633333D01*
X167433333Y-120585714D01*
X167576190Y-120585714D01*
X167671428Y-120633333D01*
X167719047Y-120728571D01*
X167719047Y-121252380D01*
X168623809Y-120585714D02*
X168623809Y-121395238D01*
X168576190Y-121490476D01*
X168528571Y-121538095D01*
X168433333Y-121585714D01*
X168290476Y-121585714D01*
X168195238Y-121538095D01*
X168623809Y-121204761D02*
X168528571Y-121252380D01*
X168338095Y-121252380D01*
X168242857Y-121204761D01*
X168195238Y-121157142D01*
X168147619Y-121061904D01*
X168147619Y-120776190D01*
X168195238Y-120680952D01*
X168242857Y-120633333D01*
X168338095Y-120585714D01*
X168528571Y-120585714D01*
X168623809Y-120633333D01*
X169623809Y-121252380D02*
X169052380Y-121252380D01*
X169338095Y-121252380D02*
X169338095Y-120252380D01*
X169242857Y-120395238D01*
X169147619Y-120490476D01*
X169052380Y-120538095D01*
X170576190Y-121252380D02*
X170004761Y-121252380D01*
X170290476Y-121252380D02*
X170290476Y-120252380D01*
X170195238Y-120395238D01*
X170100000Y-120490476D01*
X170004761Y-120538095D01*
X166790476Y-112502380D02*
X166790476Y-113216666D01*
X166742857Y-113359523D01*
X166647619Y-113454761D01*
X166504761Y-113502380D01*
X166409523Y-113502380D01*
X167790476Y-113502380D02*
X167219047Y-113502380D01*
X167504761Y-113502380D02*
X167504761Y-112502380D01*
X167409523Y-112645238D01*
X167314285Y-112740476D01*
X167219047Y-112788095D01*
X168742857Y-113502380D02*
X168171428Y-113502380D01*
X168457142Y-113502380D02*
X168457142Y-112502380D01*
X168361904Y-112645238D01*
X168266666Y-112740476D01*
X168171428Y-112788095D01*
X164623809Y-134204761D02*
X164766666Y-134252380D01*
X165004761Y-134252380D01*
X165100000Y-134204761D01*
X165147619Y-134157142D01*
X165195238Y-134061904D01*
X165195238Y-133966666D01*
X165147619Y-133871428D01*
X165100000Y-133823809D01*
X165004761Y-133776190D01*
X164814285Y-133728571D01*
X164719047Y-133680952D01*
X164671428Y-133633333D01*
X164623809Y-133538095D01*
X164623809Y-133442857D01*
X164671428Y-133347619D01*
X164719047Y-133300000D01*
X164814285Y-133252380D01*
X165052380Y-133252380D01*
X165195238Y-133300000D01*
X165480952Y-133585714D02*
X165861904Y-133585714D01*
X165623809Y-133252380D02*
X165623809Y-134109523D01*
X165671428Y-134204761D01*
X165766666Y-134252380D01*
X165861904Y-134252380D01*
X166195238Y-134252380D02*
X166195238Y-133585714D01*
X166195238Y-133776190D02*
X166242857Y-133680952D01*
X166290476Y-133633333D01*
X166385714Y-133585714D01*
X166480952Y-133585714D01*
X166814285Y-134252380D02*
X166814285Y-133585714D01*
X166814285Y-133252380D02*
X166766666Y-133300000D01*
X166814285Y-133347619D01*
X166861904Y-133300000D01*
X166814285Y-133252380D01*
X166814285Y-133347619D01*
X167290476Y-133585714D02*
X167290476Y-134252380D01*
X167290476Y-133680952D02*
X167338095Y-133633333D01*
X167433333Y-133585714D01*
X167576190Y-133585714D01*
X167671428Y-133633333D01*
X167719047Y-133728571D01*
X167719047Y-134252380D01*
X168623809Y-133585714D02*
X168623809Y-134395238D01*
X168576190Y-134490476D01*
X168528571Y-134538095D01*
X168433333Y-134585714D01*
X168290476Y-134585714D01*
X168195238Y-134538095D01*
X168623809Y-134204761D02*
X168528571Y-134252380D01*
X168338095Y-134252380D01*
X168242857Y-134204761D01*
X168195238Y-134157142D01*
X168147619Y-134061904D01*
X168147619Y-133776190D01*
X168195238Y-133680952D01*
X168242857Y-133633333D01*
X168338095Y-133585714D01*
X168528571Y-133585714D01*
X168623809Y-133633333D01*
X169623809Y-134252380D02*
X169052380Y-134252380D01*
X169338095Y-134252380D02*
X169338095Y-133252380D01*
X169242857Y-133395238D01*
X169147619Y-133490476D01*
X169052380Y-133538095D01*
X170004761Y-133347619D02*
X170052380Y-133300000D01*
X170147619Y-133252380D01*
X170385714Y-133252380D01*
X170480952Y-133300000D01*
X170528571Y-133347619D01*
X170576190Y-133442857D01*
X170576190Y-133538095D01*
X170528571Y-133680952D01*
X169957142Y-134252380D01*
X170576190Y-134252380D01*
X166790476Y-125502380D02*
X166790476Y-126216666D01*
X166742857Y-126359523D01*
X166647619Y-126454761D01*
X166504761Y-126502380D01*
X166409523Y-126502380D01*
X167790476Y-126502380D02*
X167219047Y-126502380D01*
X167504761Y-126502380D02*
X167504761Y-125502380D01*
X167409523Y-125645238D01*
X167314285Y-125740476D01*
X167219047Y-125788095D01*
X168171428Y-125597619D02*
X168219047Y-125550000D01*
X168314285Y-125502380D01*
X168552380Y-125502380D01*
X168647619Y-125550000D01*
X168695238Y-125597619D01*
X168742857Y-125692857D01*
X168742857Y-125788095D01*
X168695238Y-125930952D01*
X168123809Y-126502380D01*
X168742857Y-126502380D01*
X179623809Y-121204761D02*
X179766666Y-121252380D01*
X180004761Y-121252380D01*
X180100000Y-121204761D01*
X180147619Y-121157142D01*
X180195238Y-121061904D01*
X180195238Y-120966666D01*
X180147619Y-120871428D01*
X180100000Y-120823809D01*
X180004761Y-120776190D01*
X179814285Y-120728571D01*
X179719047Y-120680952D01*
X179671428Y-120633333D01*
X179623809Y-120538095D01*
X179623809Y-120442857D01*
X179671428Y-120347619D01*
X179719047Y-120300000D01*
X179814285Y-120252380D01*
X180052380Y-120252380D01*
X180195238Y-120300000D01*
X180480952Y-120585714D02*
X180861904Y-120585714D01*
X180623809Y-120252380D02*
X180623809Y-121109523D01*
X180671428Y-121204761D01*
X180766666Y-121252380D01*
X180861904Y-121252380D01*
X181195238Y-121252380D02*
X181195238Y-120585714D01*
X181195238Y-120776190D02*
X181242857Y-120680952D01*
X181290476Y-120633333D01*
X181385714Y-120585714D01*
X181480952Y-120585714D01*
X181814285Y-121252380D02*
X181814285Y-120585714D01*
X181814285Y-120252380D02*
X181766666Y-120300000D01*
X181814285Y-120347619D01*
X181861904Y-120300000D01*
X181814285Y-120252380D01*
X181814285Y-120347619D01*
X182290476Y-120585714D02*
X182290476Y-121252380D01*
X182290476Y-120680952D02*
X182338095Y-120633333D01*
X182433333Y-120585714D01*
X182576190Y-120585714D01*
X182671428Y-120633333D01*
X182719047Y-120728571D01*
X182719047Y-121252380D01*
X183623809Y-120585714D02*
X183623809Y-121395238D01*
X183576190Y-121490476D01*
X183528571Y-121538095D01*
X183433333Y-121585714D01*
X183290476Y-121585714D01*
X183195238Y-121538095D01*
X183623809Y-121204761D02*
X183528571Y-121252380D01*
X183338095Y-121252380D01*
X183242857Y-121204761D01*
X183195238Y-121157142D01*
X183147619Y-121061904D01*
X183147619Y-120776190D01*
X183195238Y-120680952D01*
X183242857Y-120633333D01*
X183338095Y-120585714D01*
X183528571Y-120585714D01*
X183623809Y-120633333D01*
X184623809Y-121252380D02*
X184052380Y-121252380D01*
X184338095Y-121252380D02*
X184338095Y-120252380D01*
X184242857Y-120395238D01*
X184147619Y-120490476D01*
X184052380Y-120538095D01*
X184957142Y-120252380D02*
X185576190Y-120252380D01*
X185242857Y-120633333D01*
X185385714Y-120633333D01*
X185480952Y-120680952D01*
X185528571Y-120728571D01*
X185576190Y-120823809D01*
X185576190Y-121061904D01*
X185528571Y-121157142D01*
X185480952Y-121204761D01*
X185385714Y-121252380D01*
X185100000Y-121252380D01*
X185004761Y-121204761D01*
X184957142Y-121157142D01*
X181790476Y-112502380D02*
X181790476Y-113216666D01*
X181742857Y-113359523D01*
X181647619Y-113454761D01*
X181504761Y-113502380D01*
X181409523Y-113502380D01*
X182790476Y-113502380D02*
X182219047Y-113502380D01*
X182504761Y-113502380D02*
X182504761Y-112502380D01*
X182409523Y-112645238D01*
X182314285Y-112740476D01*
X182219047Y-112788095D01*
X183123809Y-112502380D02*
X183742857Y-112502380D01*
X183409523Y-112883333D01*
X183552380Y-112883333D01*
X183647619Y-112930952D01*
X183695238Y-112978571D01*
X183742857Y-113073809D01*
X183742857Y-113311904D01*
X183695238Y-113407142D01*
X183647619Y-113454761D01*
X183552380Y-113502380D01*
X183266666Y-113502380D01*
X183171428Y-113454761D01*
X183123809Y-113407142D01*
X179623809Y-134204761D02*
X179766666Y-134252380D01*
X180004761Y-134252380D01*
X180100000Y-134204761D01*
X180147619Y-134157142D01*
X180195238Y-134061904D01*
X180195238Y-133966666D01*
X180147619Y-133871428D01*
X180100000Y-133823809D01*
X180004761Y-133776190D01*
X179814285Y-133728571D01*
X179719047Y-133680952D01*
X179671428Y-133633333D01*
X179623809Y-133538095D01*
X179623809Y-133442857D01*
X179671428Y-133347619D01*
X179719047Y-133300000D01*
X179814285Y-133252380D01*
X180052380Y-133252380D01*
X180195238Y-133300000D01*
X180480952Y-133585714D02*
X180861904Y-133585714D01*
X180623809Y-133252380D02*
X180623809Y-134109523D01*
X180671428Y-134204761D01*
X180766666Y-134252380D01*
X180861904Y-134252380D01*
X181195238Y-134252380D02*
X181195238Y-133585714D01*
X181195238Y-133776190D02*
X181242857Y-133680952D01*
X181290476Y-133633333D01*
X181385714Y-133585714D01*
X181480952Y-133585714D01*
X181814285Y-134252380D02*
X181814285Y-133585714D01*
X181814285Y-133252380D02*
X181766666Y-133300000D01*
X181814285Y-133347619D01*
X181861904Y-133300000D01*
X181814285Y-133252380D01*
X181814285Y-133347619D01*
X182290476Y-133585714D02*
X182290476Y-134252380D01*
X182290476Y-133680952D02*
X182338095Y-133633333D01*
X182433333Y-133585714D01*
X182576190Y-133585714D01*
X182671428Y-133633333D01*
X182719047Y-133728571D01*
X182719047Y-134252380D01*
X183623809Y-133585714D02*
X183623809Y-134395238D01*
X183576190Y-134490476D01*
X183528571Y-134538095D01*
X183433333Y-134585714D01*
X183290476Y-134585714D01*
X183195238Y-134538095D01*
X183623809Y-134204761D02*
X183528571Y-134252380D01*
X183338095Y-134252380D01*
X183242857Y-134204761D01*
X183195238Y-134157142D01*
X183147619Y-134061904D01*
X183147619Y-133776190D01*
X183195238Y-133680952D01*
X183242857Y-133633333D01*
X183338095Y-133585714D01*
X183528571Y-133585714D01*
X183623809Y-133633333D01*
X184623809Y-134252380D02*
X184052380Y-134252380D01*
X184338095Y-134252380D02*
X184338095Y-133252380D01*
X184242857Y-133395238D01*
X184147619Y-133490476D01*
X184052380Y-133538095D01*
X185480952Y-133585714D02*
X185480952Y-134252380D01*
X185242857Y-133204761D02*
X185004761Y-133919047D01*
X185623809Y-133919047D01*
X181790476Y-125502380D02*
X181790476Y-126216666D01*
X181742857Y-126359523D01*
X181647619Y-126454761D01*
X181504761Y-126502380D01*
X181409523Y-126502380D01*
X182790476Y-126502380D02*
X182219047Y-126502380D01*
X182504761Y-126502380D02*
X182504761Y-125502380D01*
X182409523Y-125645238D01*
X182314285Y-125740476D01*
X182219047Y-125788095D01*
X183647619Y-125835714D02*
X183647619Y-126502380D01*
X183409523Y-125454761D02*
X183171428Y-126169047D01*
X183790476Y-126169047D01*
X194623809Y-121204761D02*
X194766666Y-121252380D01*
X195004761Y-121252380D01*
X195100000Y-121204761D01*
X195147619Y-121157142D01*
X195195238Y-121061904D01*
X195195238Y-120966666D01*
X195147619Y-120871428D01*
X195100000Y-120823809D01*
X195004761Y-120776190D01*
X194814285Y-120728571D01*
X194719047Y-120680952D01*
X194671428Y-120633333D01*
X194623809Y-120538095D01*
X194623809Y-120442857D01*
X194671428Y-120347619D01*
X194719047Y-120300000D01*
X194814285Y-120252380D01*
X195052380Y-120252380D01*
X195195238Y-120300000D01*
X195480952Y-120585714D02*
X195861904Y-120585714D01*
X195623809Y-120252380D02*
X195623809Y-121109523D01*
X195671428Y-121204761D01*
X195766666Y-121252380D01*
X195861904Y-121252380D01*
X196195238Y-121252380D02*
X196195238Y-120585714D01*
X196195238Y-120776190D02*
X196242857Y-120680952D01*
X196290476Y-120633333D01*
X196385714Y-120585714D01*
X196480952Y-120585714D01*
X196814285Y-121252380D02*
X196814285Y-120585714D01*
X196814285Y-120252380D02*
X196766666Y-120300000D01*
X196814285Y-120347619D01*
X196861904Y-120300000D01*
X196814285Y-120252380D01*
X196814285Y-120347619D01*
X197290476Y-120585714D02*
X197290476Y-121252380D01*
X197290476Y-120680952D02*
X197338095Y-120633333D01*
X197433333Y-120585714D01*
X197576190Y-120585714D01*
X197671428Y-120633333D01*
X197719047Y-120728571D01*
X197719047Y-121252380D01*
X198623809Y-120585714D02*
X198623809Y-121395238D01*
X198576190Y-121490476D01*
X198528571Y-121538095D01*
X198433333Y-121585714D01*
X198290476Y-121585714D01*
X198195238Y-121538095D01*
X198623809Y-121204761D02*
X198528571Y-121252380D01*
X198338095Y-121252380D01*
X198242857Y-121204761D01*
X198195238Y-121157142D01*
X198147619Y-121061904D01*
X198147619Y-120776190D01*
X198195238Y-120680952D01*
X198242857Y-120633333D01*
X198338095Y-120585714D01*
X198528571Y-120585714D01*
X198623809Y-120633333D01*
X199623809Y-121252380D02*
X199052380Y-121252380D01*
X199338095Y-121252380D02*
X199338095Y-120252380D01*
X199242857Y-120395238D01*
X199147619Y-120490476D01*
X199052380Y-120538095D01*
X200528571Y-120252380D02*
X200052380Y-120252380D01*
X200004761Y-120728571D01*
X200052380Y-120680952D01*
X200147619Y-120633333D01*
X200385714Y-120633333D01*
X200480952Y-120680952D01*
X200528571Y-120728571D01*
X200576190Y-120823809D01*
X200576190Y-121061904D01*
X200528571Y-121157142D01*
X200480952Y-121204761D01*
X200385714Y-121252380D01*
X200147619Y-121252380D01*
X200052380Y-121204761D01*
X200004761Y-121157142D01*
X196790476Y-112502380D02*
X196790476Y-113216666D01*
X196742857Y-113359523D01*
X196647619Y-113454761D01*
X196504761Y-113502380D01*
X196409523Y-113502380D01*
X197790476Y-113502380D02*
X197219047Y-113502380D01*
X197504761Y-113502380D02*
X197504761Y-112502380D01*
X197409523Y-112645238D01*
X197314285Y-112740476D01*
X197219047Y-112788095D01*
X198695238Y-112502380D02*
X198219047Y-112502380D01*
X198171428Y-112978571D01*
X198219047Y-112930952D01*
X198314285Y-112883333D01*
X198552380Y-112883333D01*
X198647619Y-112930952D01*
X198695238Y-112978571D01*
X198742857Y-113073809D01*
X198742857Y-113311904D01*
X198695238Y-113407142D01*
X198647619Y-113454761D01*
X198552380Y-113502380D01*
X198314285Y-113502380D01*
X198219047Y-113454761D01*
X198171428Y-113407142D01*
X194623809Y-134204761D02*
X194766666Y-134252380D01*
X195004761Y-134252380D01*
X195100000Y-134204761D01*
X195147619Y-134157142D01*
X195195238Y-134061904D01*
X195195238Y-133966666D01*
X195147619Y-133871428D01*
X195100000Y-133823809D01*
X195004761Y-133776190D01*
X194814285Y-133728571D01*
X194719047Y-133680952D01*
X194671428Y-133633333D01*
X194623809Y-133538095D01*
X194623809Y-133442857D01*
X194671428Y-133347619D01*
X194719047Y-133300000D01*
X194814285Y-133252380D01*
X195052380Y-133252380D01*
X195195238Y-133300000D01*
X195480952Y-133585714D02*
X195861904Y-133585714D01*
X195623809Y-133252380D02*
X195623809Y-134109523D01*
X195671428Y-134204761D01*
X195766666Y-134252380D01*
X195861904Y-134252380D01*
X196195238Y-134252380D02*
X196195238Y-133585714D01*
X196195238Y-133776190D02*
X196242857Y-133680952D01*
X196290476Y-133633333D01*
X196385714Y-133585714D01*
X196480952Y-133585714D01*
X196814285Y-134252380D02*
X196814285Y-133585714D01*
X196814285Y-133252380D02*
X196766666Y-133300000D01*
X196814285Y-133347619D01*
X196861904Y-133300000D01*
X196814285Y-133252380D01*
X196814285Y-133347619D01*
X197290476Y-133585714D02*
X197290476Y-134252380D01*
X197290476Y-133680952D02*
X197338095Y-133633333D01*
X197433333Y-133585714D01*
X197576190Y-133585714D01*
X197671428Y-133633333D01*
X197719047Y-133728571D01*
X197719047Y-134252380D01*
X198623809Y-133585714D02*
X198623809Y-134395238D01*
X198576190Y-134490476D01*
X198528571Y-134538095D01*
X198433333Y-134585714D01*
X198290476Y-134585714D01*
X198195238Y-134538095D01*
X198623809Y-134204761D02*
X198528571Y-134252380D01*
X198338095Y-134252380D01*
X198242857Y-134204761D01*
X198195238Y-134157142D01*
X198147619Y-134061904D01*
X198147619Y-133776190D01*
X198195238Y-133680952D01*
X198242857Y-133633333D01*
X198338095Y-133585714D01*
X198528571Y-133585714D01*
X198623809Y-133633333D01*
X199623809Y-134252380D02*
X199052380Y-134252380D01*
X199338095Y-134252380D02*
X199338095Y-133252380D01*
X199242857Y-133395238D01*
X199147619Y-133490476D01*
X199052380Y-133538095D01*
X200480952Y-133252380D02*
X200290476Y-133252380D01*
X200195238Y-133300000D01*
X200147619Y-133347619D01*
X200052380Y-133490476D01*
X200004761Y-133680952D01*
X200004761Y-134061904D01*
X200052380Y-134157142D01*
X200100000Y-134204761D01*
X200195238Y-134252380D01*
X200385714Y-134252380D01*
X200480952Y-134204761D01*
X200528571Y-134157142D01*
X200576190Y-134061904D01*
X200576190Y-133823809D01*
X200528571Y-133728571D01*
X200480952Y-133680952D01*
X200385714Y-133633333D01*
X200195238Y-133633333D01*
X200100000Y-133680952D01*
X200052380Y-133728571D01*
X200004761Y-133823809D01*
X196790476Y-125502380D02*
X196790476Y-126216666D01*
X196742857Y-126359523D01*
X196647619Y-126454761D01*
X196504761Y-126502380D01*
X196409523Y-126502380D01*
X197790476Y-126502380D02*
X197219047Y-126502380D01*
X197504761Y-126502380D02*
X197504761Y-125502380D01*
X197409523Y-125645238D01*
X197314285Y-125740476D01*
X197219047Y-125788095D01*
X198647619Y-125502380D02*
X198457142Y-125502380D01*
X198361904Y-125550000D01*
X198314285Y-125597619D01*
X198219047Y-125740476D01*
X198171428Y-125930952D01*
X198171428Y-126311904D01*
X198219047Y-126407142D01*
X198266666Y-126454761D01*
X198361904Y-126502380D01*
X198552380Y-126502380D01*
X198647619Y-126454761D01*
X198695238Y-126407142D01*
X198742857Y-126311904D01*
X198742857Y-126073809D01*
X198695238Y-125978571D01*
X198647619Y-125930952D01*
X198552380Y-125883333D01*
X198361904Y-125883333D01*
X198266666Y-125930952D01*
X198219047Y-125978571D01*
X198171428Y-126073809D01*
D14*
X96314880Y-147088842D02*
X96314880Y-146469795D01*
X96695833Y-146803128D01*
X96695833Y-146660271D01*
X96743452Y-146565033D01*
X96791071Y-146517414D01*
X96886309Y-146469795D01*
X97124404Y-146469795D01*
X97219642Y-146517414D01*
X97267261Y-146565033D01*
X97314880Y-146660271D01*
X97314880Y-146945985D01*
X97267261Y-147041223D01*
X97219642Y-147088842D01*
X96314880Y-145565033D02*
X96314880Y-146041223D01*
X96791071Y-146088842D01*
X96743452Y-146041223D01*
X96695833Y-145945985D01*
X96695833Y-145707890D01*
X96743452Y-145612652D01*
X96791071Y-145565033D01*
X96886309Y-145517414D01*
X97124404Y-145517414D01*
X97219642Y-145565033D01*
X97267261Y-145612652D01*
X97314880Y-145707890D01*
X97314880Y-145945985D01*
X97267261Y-146041223D01*
X97219642Y-146088842D01*
X96648214Y-144660271D02*
X97314880Y-144660271D01*
X96267261Y-144898366D02*
X96981547Y-145136461D01*
X96981547Y-144517414D01*
X96648214Y-143707890D02*
X97314880Y-143707890D01*
X96267261Y-143945985D02*
X96981547Y-144184080D01*
X96981547Y-143565033D01*
X96933928Y-143184080D02*
X96933928Y-142422176D01*
X96410119Y-141993604D02*
X96362500Y-141945985D01*
X96314880Y-141850747D01*
X96314880Y-141612652D01*
X96362500Y-141517414D01*
X96410119Y-141469795D01*
X96505357Y-141422176D01*
X96600595Y-141422176D01*
X96743452Y-141469795D01*
X97314880Y-142041223D01*
X97314880Y-141422176D01*
X136700978Y-147186142D02*
X136700978Y-146567095D01*
X137081931Y-146900428D01*
X137081931Y-146757571D01*
X137129550Y-146662333D01*
X137177169Y-146614714D01*
X137272407Y-146567095D01*
X137510502Y-146567095D01*
X137605740Y-146614714D01*
X137653359Y-146662333D01*
X137700978Y-146757571D01*
X137700978Y-147043285D01*
X137653359Y-147138523D01*
X137605740Y-147186142D01*
X136700978Y-145662333D02*
X136700978Y-146138523D01*
X137177169Y-146186142D01*
X137129550Y-146138523D01*
X137081931Y-146043285D01*
X137081931Y-145805190D01*
X137129550Y-145709952D01*
X137177169Y-145662333D01*
X137272407Y-145614714D01*
X137510502Y-145614714D01*
X137605740Y-145662333D01*
X137653359Y-145709952D01*
X137700978Y-145805190D01*
X137700978Y-146043285D01*
X137653359Y-146138523D01*
X137605740Y-146186142D01*
X137034312Y-144757571D02*
X137700978Y-144757571D01*
X136653359Y-144995666D02*
X137367645Y-145233761D01*
X137367645Y-144614714D01*
X137034312Y-143805190D02*
X137700978Y-143805190D01*
X136653359Y-144043285D02*
X137367645Y-144281380D01*
X137367645Y-143662333D01*
X137320026Y-143281380D02*
X137320026Y-142519476D01*
X136796217Y-142090904D02*
X136748598Y-142043285D01*
X136700978Y-141948047D01*
X136700978Y-141709952D01*
X136748598Y-141614714D01*
X136796217Y-141567095D01*
X136891455Y-141519476D01*
X136986693Y-141519476D01*
X137129550Y-141567095D01*
X137700978Y-142138523D01*
X137700978Y-141519476D01*
X183179409Y-146775742D02*
X183179409Y-146156695D01*
X183560362Y-146490028D01*
X183560362Y-146347171D01*
X183607981Y-146251933D01*
X183655600Y-146204314D01*
X183750838Y-146156695D01*
X183988933Y-146156695D01*
X184084171Y-146204314D01*
X184131790Y-146251933D01*
X184179409Y-146347171D01*
X184179409Y-146632885D01*
X184131790Y-146728123D01*
X184084171Y-146775742D01*
X183179409Y-145251933D02*
X183179409Y-145728123D01*
X183655600Y-145775742D01*
X183607981Y-145728123D01*
X183560362Y-145632885D01*
X183560362Y-145394790D01*
X183607981Y-145299552D01*
X183655600Y-145251933D01*
X183750838Y-145204314D01*
X183988933Y-145204314D01*
X184084171Y-145251933D01*
X184131790Y-145299552D01*
X184179409Y-145394790D01*
X184179409Y-145632885D01*
X184131790Y-145728123D01*
X184084171Y-145775742D01*
X183512743Y-144347171D02*
X184179409Y-144347171D01*
X183131790Y-144585266D02*
X183846076Y-144823361D01*
X183846076Y-144204314D01*
X183512743Y-143394790D02*
X184179409Y-143394790D01*
X183131790Y-143632885D02*
X183846076Y-143870980D01*
X183846076Y-143251933D01*
X183798457Y-142870980D02*
X183798457Y-142109076D01*
X183274648Y-141680504D02*
X183227029Y-141632885D01*
X183179409Y-141537647D01*
X183179409Y-141299552D01*
X183227029Y-141204314D01*
X183274648Y-141156695D01*
X183369886Y-141109076D01*
X183465124Y-141109076D01*
X183607981Y-141156695D01*
X184179409Y-141728123D01*
X184179409Y-141109076D01*
D12*
X174100333Y-106042657D02*
X174081285Y-106061704D01*
X174024142Y-106080752D01*
X173986047Y-106080752D01*
X173928904Y-106061704D01*
X173890809Y-106023609D01*
X173871761Y-105985514D01*
X173852714Y-105909323D01*
X173852714Y-105852180D01*
X173871761Y-105775990D01*
X173890809Y-105737895D01*
X173928904Y-105699800D01*
X173986047Y-105680752D01*
X174024142Y-105680752D01*
X174081285Y-105699800D01*
X174100333Y-105718847D01*
X174233666Y-105680752D02*
X174481285Y-105680752D01*
X174347952Y-105833133D01*
X174405095Y-105833133D01*
X174443190Y-105852180D01*
X174462238Y-105871228D01*
X174481285Y-105909323D01*
X174481285Y-106004561D01*
X174462238Y-106042657D01*
X174443190Y-106061704D01*
X174405095Y-106080752D01*
X174290809Y-106080752D01*
X174252714Y-106061704D01*
X174233666Y-106042657D01*
D14*
X103125413Y-147241942D02*
X103125413Y-146622895D01*
X103506366Y-146956228D01*
X103506366Y-146813371D01*
X103553985Y-146718133D01*
X103601604Y-146670514D01*
X103696842Y-146622895D01*
X103934937Y-146622895D01*
X104030175Y-146670514D01*
X104077794Y-146718133D01*
X104125413Y-146813371D01*
X104125413Y-147099085D01*
X104077794Y-147194323D01*
X104030175Y-147241942D01*
X103125413Y-145718133D02*
X103125413Y-146194323D01*
X103601604Y-146241942D01*
X103553985Y-146194323D01*
X103506366Y-146099085D01*
X103506366Y-145860990D01*
X103553985Y-145765752D01*
X103601604Y-145718133D01*
X103696842Y-145670514D01*
X103934937Y-145670514D01*
X104030175Y-145718133D01*
X104077794Y-145765752D01*
X104125413Y-145860990D01*
X104125413Y-146099085D01*
X104077794Y-146194323D01*
X104030175Y-146241942D01*
X103458747Y-144813371D02*
X104125413Y-144813371D01*
X103077794Y-145051466D02*
X103792080Y-145289561D01*
X103792080Y-144670514D01*
X103458747Y-143860990D02*
X104125413Y-143860990D01*
X103077794Y-144099085D02*
X103792080Y-144337180D01*
X103792080Y-143718133D01*
X103744461Y-143337180D02*
X103744461Y-142575276D01*
X103220652Y-142146704D02*
X103173033Y-142099085D01*
X103125413Y-142003847D01*
X103125413Y-141765752D01*
X103173033Y-141670514D01*
X103220652Y-141622895D01*
X103315890Y-141575276D01*
X103411128Y-141575276D01*
X103553985Y-141622895D01*
X104125413Y-142194323D01*
X104125413Y-141575276D01*
X130352145Y-147248042D02*
X130352145Y-146628995D01*
X130733098Y-146962328D01*
X130733098Y-146819471D01*
X130780717Y-146724233D01*
X130828336Y-146676614D01*
X130923574Y-146628995D01*
X131161669Y-146628995D01*
X131256907Y-146676614D01*
X131304526Y-146724233D01*
X131352145Y-146819471D01*
X131352145Y-147105185D01*
X131304526Y-147200423D01*
X131256907Y-147248042D01*
X130352145Y-145724233D02*
X130352145Y-146200423D01*
X130828336Y-146248042D01*
X130780717Y-146200423D01*
X130733098Y-146105185D01*
X130733098Y-145867090D01*
X130780717Y-145771852D01*
X130828336Y-145724233D01*
X130923574Y-145676614D01*
X131161669Y-145676614D01*
X131256907Y-145724233D01*
X131304526Y-145771852D01*
X131352145Y-145867090D01*
X131352145Y-146105185D01*
X131304526Y-146200423D01*
X131256907Y-146248042D01*
X130685479Y-144819471D02*
X131352145Y-144819471D01*
X130304526Y-145057566D02*
X131018812Y-145295661D01*
X131018812Y-144676614D01*
X130685479Y-143867090D02*
X131352145Y-143867090D01*
X130304526Y-144105185D02*
X131018812Y-144343280D01*
X131018812Y-143724233D01*
X130971193Y-143343280D02*
X130971193Y-142581376D01*
X130447384Y-142152804D02*
X130399765Y-142105185D01*
X130352145Y-142009947D01*
X130352145Y-141771852D01*
X130399765Y-141676614D01*
X130447384Y-141628995D01*
X130542622Y-141581376D01*
X130637860Y-141581376D01*
X130780717Y-141628995D01*
X131352145Y-142200423D01*
X131352145Y-141581376D01*
X143226011Y-146710742D02*
X143226011Y-146091695D01*
X143606964Y-146425028D01*
X143606964Y-146282171D01*
X143654583Y-146186933D01*
X143702202Y-146139314D01*
X143797440Y-146091695D01*
X144035535Y-146091695D01*
X144130773Y-146139314D01*
X144178392Y-146186933D01*
X144226011Y-146282171D01*
X144226011Y-146567885D01*
X144178392Y-146663123D01*
X144130773Y-146710742D01*
X143226011Y-145186933D02*
X143226011Y-145663123D01*
X143702202Y-145710742D01*
X143654583Y-145663123D01*
X143606964Y-145567885D01*
X143606964Y-145329790D01*
X143654583Y-145234552D01*
X143702202Y-145186933D01*
X143797440Y-145139314D01*
X144035535Y-145139314D01*
X144130773Y-145186933D01*
X144178392Y-145234552D01*
X144226011Y-145329790D01*
X144226011Y-145567885D01*
X144178392Y-145663123D01*
X144130773Y-145710742D01*
X143559345Y-144282171D02*
X144226011Y-144282171D01*
X143178392Y-144520266D02*
X143892678Y-144758361D01*
X143892678Y-144139314D01*
X143559345Y-143329790D02*
X144226011Y-143329790D01*
X143178392Y-143567885D02*
X143892678Y-143805980D01*
X143892678Y-143186933D01*
X143845059Y-142805980D02*
X143845059Y-142044076D01*
X143321250Y-141615504D02*
X143273631Y-141567885D01*
X143226011Y-141472647D01*
X143226011Y-141234552D01*
X143273631Y-141139314D01*
X143321250Y-141091695D01*
X143416488Y-141044076D01*
X143511726Y-141044076D01*
X143654583Y-141091695D01*
X144226011Y-141663123D01*
X144226011Y-141044076D01*
X150596344Y-146060742D02*
X150596344Y-145441695D01*
X150977297Y-145775028D01*
X150977297Y-145632171D01*
X151024916Y-145536933D01*
X151072535Y-145489314D01*
X151167773Y-145441695D01*
X151405868Y-145441695D01*
X151501106Y-145489314D01*
X151548725Y-145536933D01*
X151596344Y-145632171D01*
X151596344Y-145917885D01*
X151548725Y-146013123D01*
X151501106Y-146060742D01*
X150596344Y-144536933D02*
X150596344Y-145013123D01*
X151072535Y-145060742D01*
X151024916Y-145013123D01*
X150977297Y-144917885D01*
X150977297Y-144679790D01*
X151024916Y-144584552D01*
X151072535Y-144536933D01*
X151167773Y-144489314D01*
X151405868Y-144489314D01*
X151501106Y-144536933D01*
X151548725Y-144584552D01*
X151596344Y-144679790D01*
X151596344Y-144917885D01*
X151548725Y-145013123D01*
X151501106Y-145060742D01*
X150929678Y-143632171D02*
X151596344Y-143632171D01*
X150548725Y-143870266D02*
X151263011Y-144108361D01*
X151263011Y-143489314D01*
X150929678Y-142679790D02*
X151596344Y-142679790D01*
X150548725Y-142917885D02*
X151263011Y-143155980D01*
X151263011Y-142536933D01*
X151215392Y-142155980D02*
X151215392Y-141394076D01*
X150691583Y-140965504D02*
X150643964Y-140917885D01*
X150596344Y-140822647D01*
X150596344Y-140584552D01*
X150643964Y-140489314D01*
X150691583Y-140441695D01*
X150786821Y-140394076D01*
X150882059Y-140394076D01*
X151024916Y-140441695D01*
X151596344Y-141013123D01*
X151596344Y-140394076D01*
X156878877Y-147110742D02*
X156878877Y-146491695D01*
X157259830Y-146825028D01*
X157259830Y-146682171D01*
X157307449Y-146586933D01*
X157355068Y-146539314D01*
X157450306Y-146491695D01*
X157688401Y-146491695D01*
X157783639Y-146539314D01*
X157831258Y-146586933D01*
X157878877Y-146682171D01*
X157878877Y-146967885D01*
X157831258Y-147063123D01*
X157783639Y-147110742D01*
X156878877Y-145586933D02*
X156878877Y-146063123D01*
X157355068Y-146110742D01*
X157307449Y-146063123D01*
X157259830Y-145967885D01*
X157259830Y-145729790D01*
X157307449Y-145634552D01*
X157355068Y-145586933D01*
X157450306Y-145539314D01*
X157688401Y-145539314D01*
X157783639Y-145586933D01*
X157831258Y-145634552D01*
X157878877Y-145729790D01*
X157878877Y-145967885D01*
X157831258Y-146063123D01*
X157783639Y-146110742D01*
X157212211Y-144682171D02*
X157878877Y-144682171D01*
X156831258Y-144920266D02*
X157545544Y-145158361D01*
X157545544Y-144539314D01*
X157212211Y-143729790D02*
X157878877Y-143729790D01*
X156831258Y-143967885D02*
X157545544Y-144205980D01*
X157545544Y-143586933D01*
X157497925Y-143205980D02*
X157497925Y-142444076D01*
X156974116Y-142015504D02*
X156926497Y-141967885D01*
X156878877Y-141872647D01*
X156878877Y-141634552D01*
X156926497Y-141539314D01*
X156974116Y-141491695D01*
X157069354Y-141444076D01*
X157164592Y-141444076D01*
X157307449Y-141491695D01*
X157878877Y-142063123D01*
X157878877Y-141444076D01*
X196576380Y-147475742D02*
X196576380Y-146856695D01*
X196957333Y-147190028D01*
X196957333Y-147047171D01*
X197004952Y-146951933D01*
X197052571Y-146904314D01*
X197147809Y-146856695D01*
X197385904Y-146856695D01*
X197481142Y-146904314D01*
X197528761Y-146951933D01*
X197576380Y-147047171D01*
X197576380Y-147332885D01*
X197528761Y-147428123D01*
X197481142Y-147475742D01*
X196576380Y-145951933D02*
X196576380Y-146428123D01*
X197052571Y-146475742D01*
X197004952Y-146428123D01*
X196957333Y-146332885D01*
X196957333Y-146094790D01*
X197004952Y-145999552D01*
X197052571Y-145951933D01*
X197147809Y-145904314D01*
X197385904Y-145904314D01*
X197481142Y-145951933D01*
X197528761Y-145999552D01*
X197576380Y-146094790D01*
X197576380Y-146332885D01*
X197528761Y-146428123D01*
X197481142Y-146475742D01*
X196909714Y-145047171D02*
X197576380Y-145047171D01*
X196528761Y-145285266D02*
X197243047Y-145523361D01*
X197243047Y-144904314D01*
X196909714Y-144094790D02*
X197576380Y-144094790D01*
X196528761Y-144332885D02*
X197243047Y-144570980D01*
X197243047Y-143951933D01*
X197195428Y-143570980D02*
X197195428Y-142809076D01*
X196671619Y-142380504D02*
X196624000Y-142332885D01*
X196576380Y-142237647D01*
X196576380Y-141999552D01*
X196624000Y-141904314D01*
X196671619Y-141856695D01*
X196766857Y-141809076D01*
X196862095Y-141809076D01*
X197004952Y-141856695D01*
X197576380Y-142428123D01*
X197576380Y-141809076D01*
X123335812Y-147710742D02*
X123335812Y-147091695D01*
X123716765Y-147425028D01*
X123716765Y-147282171D01*
X123764384Y-147186933D01*
X123812003Y-147139314D01*
X123907241Y-147091695D01*
X124145336Y-147091695D01*
X124240574Y-147139314D01*
X124288193Y-147186933D01*
X124335812Y-147282171D01*
X124335812Y-147567885D01*
X124288193Y-147663123D01*
X124240574Y-147710742D01*
X123335812Y-146186933D02*
X123335812Y-146663123D01*
X123812003Y-146710742D01*
X123764384Y-146663123D01*
X123716765Y-146567885D01*
X123716765Y-146329790D01*
X123764384Y-146234552D01*
X123812003Y-146186933D01*
X123907241Y-146139314D01*
X124145336Y-146139314D01*
X124240574Y-146186933D01*
X124288193Y-146234552D01*
X124335812Y-146329790D01*
X124335812Y-146567885D01*
X124288193Y-146663123D01*
X124240574Y-146710742D01*
X123669146Y-145282171D02*
X124335812Y-145282171D01*
X123288193Y-145520266D02*
X124002479Y-145758361D01*
X124002479Y-145139314D01*
X123669146Y-144329790D02*
X124335812Y-144329790D01*
X123288193Y-144567885D02*
X124002479Y-144805980D01*
X124002479Y-144186933D01*
X123954860Y-143805980D02*
X123954860Y-143044076D01*
X123431051Y-142615504D02*
X123383432Y-142567885D01*
X123335812Y-142472647D01*
X123335812Y-142234552D01*
X123383432Y-142139314D01*
X123431051Y-142091695D01*
X123526289Y-142044076D01*
X123621527Y-142044076D01*
X123764384Y-142091695D01*
X124335812Y-142663123D01*
X124335812Y-142044076D01*
X109625846Y-147191142D02*
X109625846Y-146572095D01*
X110006799Y-146905428D01*
X110006799Y-146762571D01*
X110054418Y-146667333D01*
X110102037Y-146619714D01*
X110197275Y-146572095D01*
X110435370Y-146572095D01*
X110530608Y-146619714D01*
X110578227Y-146667333D01*
X110625846Y-146762571D01*
X110625846Y-147048285D01*
X110578227Y-147143523D01*
X110530608Y-147191142D01*
X109625846Y-145667333D02*
X109625846Y-146143523D01*
X110102037Y-146191142D01*
X110054418Y-146143523D01*
X110006799Y-146048285D01*
X110006799Y-145810190D01*
X110054418Y-145714952D01*
X110102037Y-145667333D01*
X110197275Y-145619714D01*
X110435370Y-145619714D01*
X110530608Y-145667333D01*
X110578227Y-145714952D01*
X110625846Y-145810190D01*
X110625846Y-146048285D01*
X110578227Y-146143523D01*
X110530608Y-146191142D01*
X109959180Y-144762571D02*
X110625846Y-144762571D01*
X109578227Y-145000666D02*
X110292513Y-145238761D01*
X110292513Y-144619714D01*
X109959180Y-143810190D02*
X110625846Y-143810190D01*
X109578227Y-144048285D02*
X110292513Y-144286380D01*
X110292513Y-143667333D01*
X110244894Y-143286380D02*
X110244894Y-142524476D01*
X109721085Y-142095904D02*
X109673466Y-142048285D01*
X109625846Y-141953047D01*
X109625846Y-141714952D01*
X109673466Y-141619714D01*
X109721085Y-141572095D01*
X109816323Y-141524476D01*
X109911561Y-141524476D01*
X110054418Y-141572095D01*
X110625846Y-142143523D01*
X110625846Y-141524476D01*
X176861476Y-146675742D02*
X176861476Y-146056695D01*
X177242429Y-146390028D01*
X177242429Y-146247171D01*
X177290048Y-146151933D01*
X177337667Y-146104314D01*
X177432905Y-146056695D01*
X177671000Y-146056695D01*
X177766238Y-146104314D01*
X177813857Y-146151933D01*
X177861476Y-146247171D01*
X177861476Y-146532885D01*
X177813857Y-146628123D01*
X177766238Y-146675742D01*
X176861476Y-145151933D02*
X176861476Y-145628123D01*
X177337667Y-145675742D01*
X177290048Y-145628123D01*
X177242429Y-145532885D01*
X177242429Y-145294790D01*
X177290048Y-145199552D01*
X177337667Y-145151933D01*
X177432905Y-145104314D01*
X177671000Y-145104314D01*
X177766238Y-145151933D01*
X177813857Y-145199552D01*
X177861476Y-145294790D01*
X177861476Y-145532885D01*
X177813857Y-145628123D01*
X177766238Y-145675742D01*
X177194810Y-144247171D02*
X177861476Y-144247171D01*
X176813857Y-144485266D02*
X177528143Y-144723361D01*
X177528143Y-144104314D01*
X177194810Y-143294790D02*
X177861476Y-143294790D01*
X176813857Y-143532885D02*
X177528143Y-143770980D01*
X177528143Y-143151933D01*
X177480524Y-142770980D02*
X177480524Y-142009076D01*
X176956715Y-141580504D02*
X176909096Y-141532885D01*
X176861476Y-141437647D01*
X176861476Y-141199552D01*
X176909096Y-141104314D01*
X176956715Y-141056695D01*
X177051953Y-141009076D01*
X177147191Y-141009076D01*
X177290048Y-141056695D01*
X177861476Y-141628123D01*
X177861476Y-141009076D01*
X163879310Y-147160742D02*
X163879310Y-146541695D01*
X164260263Y-146875028D01*
X164260263Y-146732171D01*
X164307882Y-146636933D01*
X164355501Y-146589314D01*
X164450739Y-146541695D01*
X164688834Y-146541695D01*
X164784072Y-146589314D01*
X164831691Y-146636933D01*
X164879310Y-146732171D01*
X164879310Y-147017885D01*
X164831691Y-147113123D01*
X164784072Y-147160742D01*
X163879310Y-145636933D02*
X163879310Y-146113123D01*
X164355501Y-146160742D01*
X164307882Y-146113123D01*
X164260263Y-146017885D01*
X164260263Y-145779790D01*
X164307882Y-145684552D01*
X164355501Y-145636933D01*
X164450739Y-145589314D01*
X164688834Y-145589314D01*
X164784072Y-145636933D01*
X164831691Y-145684552D01*
X164879310Y-145779790D01*
X164879310Y-146017885D01*
X164831691Y-146113123D01*
X164784072Y-146160742D01*
X164212644Y-144732171D02*
X164879310Y-144732171D01*
X163831691Y-144970266D02*
X164545977Y-145208361D01*
X164545977Y-144589314D01*
X164212644Y-143779790D02*
X164879310Y-143779790D01*
X163831691Y-144017885D02*
X164545977Y-144255980D01*
X164545977Y-143636933D01*
X164498358Y-143255980D02*
X164498358Y-142494076D01*
X163974549Y-142065504D02*
X163926930Y-142017885D01*
X163879310Y-141922647D01*
X163879310Y-141684552D01*
X163926930Y-141589314D01*
X163974549Y-141541695D01*
X164069787Y-141494076D01*
X164165025Y-141494076D01*
X164307882Y-141541695D01*
X164879310Y-142113123D01*
X164879310Y-141494076D01*
X116326279Y-147253842D02*
X116326279Y-146634795D01*
X116707232Y-146968128D01*
X116707232Y-146825271D01*
X116754851Y-146730033D01*
X116802470Y-146682414D01*
X116897708Y-146634795D01*
X117135803Y-146634795D01*
X117231041Y-146682414D01*
X117278660Y-146730033D01*
X117326279Y-146825271D01*
X117326279Y-147110985D01*
X117278660Y-147206223D01*
X117231041Y-147253842D01*
X116326279Y-145730033D02*
X116326279Y-146206223D01*
X116802470Y-146253842D01*
X116754851Y-146206223D01*
X116707232Y-146110985D01*
X116707232Y-145872890D01*
X116754851Y-145777652D01*
X116802470Y-145730033D01*
X116897708Y-145682414D01*
X117135803Y-145682414D01*
X117231041Y-145730033D01*
X117278660Y-145777652D01*
X117326279Y-145872890D01*
X117326279Y-146110985D01*
X117278660Y-146206223D01*
X117231041Y-146253842D01*
X116659613Y-144825271D02*
X117326279Y-144825271D01*
X116278660Y-145063366D02*
X116992946Y-145301461D01*
X116992946Y-144682414D01*
X116659613Y-143872890D02*
X117326279Y-143872890D01*
X116278660Y-144110985D02*
X116992946Y-144349080D01*
X116992946Y-143730033D01*
X116945327Y-143349080D02*
X116945327Y-142587176D01*
X116421518Y-142158604D02*
X116373899Y-142110985D01*
X116326279Y-142015747D01*
X116326279Y-141777652D01*
X116373899Y-141682414D01*
X116421518Y-141634795D01*
X116516756Y-141587176D01*
X116611994Y-141587176D01*
X116754851Y-141634795D01*
X117326279Y-142206223D01*
X117326279Y-141587176D01*
D11*
X90100000Y-121204761D02*
X90242857Y-121252380D01*
X90480952Y-121252380D01*
X90576190Y-121204761D01*
X90623809Y-121157142D01*
X90671428Y-121061904D01*
X90671428Y-120966666D01*
X90623809Y-120871428D01*
X90576190Y-120823809D01*
X90480952Y-120776190D01*
X90290476Y-120728571D01*
X90195238Y-120680952D01*
X90147619Y-120633333D01*
X90100000Y-120538095D01*
X90100000Y-120442857D01*
X90147619Y-120347619D01*
X90195238Y-120300000D01*
X90290476Y-120252380D01*
X90528571Y-120252380D01*
X90671428Y-120300000D01*
X90957142Y-120585714D02*
X91338095Y-120585714D01*
X91100000Y-120252380D02*
X91100000Y-121109523D01*
X91147619Y-121204761D01*
X91242857Y-121252380D01*
X91338095Y-121252380D01*
X91671428Y-121252380D02*
X91671428Y-120585714D01*
X91671428Y-120776190D02*
X91719047Y-120680952D01*
X91766666Y-120633333D01*
X91861904Y-120585714D01*
X91957142Y-120585714D01*
X92290476Y-121252380D02*
X92290476Y-120585714D01*
X92290476Y-120252380D02*
X92242857Y-120300000D01*
X92290476Y-120347619D01*
X92338095Y-120300000D01*
X92290476Y-120252380D01*
X92290476Y-120347619D01*
X92766666Y-120585714D02*
X92766666Y-121252380D01*
X92766666Y-120680952D02*
X92814285Y-120633333D01*
X92909523Y-120585714D01*
X93052380Y-120585714D01*
X93147619Y-120633333D01*
X93195238Y-120728571D01*
X93195238Y-121252380D01*
X94100000Y-120585714D02*
X94100000Y-121395238D01*
X94052380Y-121490476D01*
X94004761Y-121538095D01*
X93909523Y-121585714D01*
X93766666Y-121585714D01*
X93671428Y-121538095D01*
X94100000Y-121204761D02*
X94004761Y-121252380D01*
X93814285Y-121252380D01*
X93719047Y-121204761D01*
X93671428Y-121157142D01*
X93623809Y-121061904D01*
X93623809Y-120776190D01*
X93671428Y-120680952D01*
X93719047Y-120633333D01*
X93814285Y-120585714D01*
X94004761Y-120585714D01*
X94100000Y-120633333D01*
X95100000Y-121252380D02*
X94528571Y-121252380D01*
X94814285Y-121252380D02*
X94814285Y-120252380D01*
X94719047Y-120395238D01*
X94623809Y-120490476D01*
X94528571Y-120538095D01*
X92266666Y-112502380D02*
X92266666Y-113216666D01*
X92219047Y-113359523D01*
X92123809Y-113454761D01*
X91980952Y-113502380D01*
X91885714Y-113502380D01*
X93266666Y-113502380D02*
X92695238Y-113502380D01*
X92980952Y-113502380D02*
X92980952Y-112502380D01*
X92885714Y-112645238D01*
X92790476Y-112740476D01*
X92695238Y-112788095D01*
X105100000Y-121204761D02*
X105242857Y-121252380D01*
X105480952Y-121252380D01*
X105576190Y-121204761D01*
X105623809Y-121157142D01*
X105671428Y-121061904D01*
X105671428Y-120966666D01*
X105623809Y-120871428D01*
X105576190Y-120823809D01*
X105480952Y-120776190D01*
X105290476Y-120728571D01*
X105195238Y-120680952D01*
X105147619Y-120633333D01*
X105100000Y-120538095D01*
X105100000Y-120442857D01*
X105147619Y-120347619D01*
X105195238Y-120300000D01*
X105290476Y-120252380D01*
X105528571Y-120252380D01*
X105671428Y-120300000D01*
X105957142Y-120585714D02*
X106338095Y-120585714D01*
X106100000Y-120252380D02*
X106100000Y-121109523D01*
X106147619Y-121204761D01*
X106242857Y-121252380D01*
X106338095Y-121252380D01*
X106671428Y-121252380D02*
X106671428Y-120585714D01*
X106671428Y-120776190D02*
X106719047Y-120680952D01*
X106766666Y-120633333D01*
X106861904Y-120585714D01*
X106957142Y-120585714D01*
X107290476Y-121252380D02*
X107290476Y-120585714D01*
X107290476Y-120252380D02*
X107242857Y-120300000D01*
X107290476Y-120347619D01*
X107338095Y-120300000D01*
X107290476Y-120252380D01*
X107290476Y-120347619D01*
X107766666Y-120585714D02*
X107766666Y-121252380D01*
X107766666Y-120680952D02*
X107814285Y-120633333D01*
X107909523Y-120585714D01*
X108052380Y-120585714D01*
X108147619Y-120633333D01*
X108195238Y-120728571D01*
X108195238Y-121252380D01*
X109100000Y-120585714D02*
X109100000Y-121395238D01*
X109052380Y-121490476D01*
X109004761Y-121538095D01*
X108909523Y-121585714D01*
X108766666Y-121585714D01*
X108671428Y-121538095D01*
X109100000Y-121204761D02*
X109004761Y-121252380D01*
X108814285Y-121252380D01*
X108719047Y-121204761D01*
X108671428Y-121157142D01*
X108623809Y-121061904D01*
X108623809Y-120776190D01*
X108671428Y-120680952D01*
X108719047Y-120633333D01*
X108814285Y-120585714D01*
X109004761Y-120585714D01*
X109100000Y-120633333D01*
X109480952Y-120252380D02*
X110100000Y-120252380D01*
X109766666Y-120633333D01*
X109909523Y-120633333D01*
X110004761Y-120680952D01*
X110052380Y-120728571D01*
X110100000Y-120823809D01*
X110100000Y-121061904D01*
X110052380Y-121157142D01*
X110004761Y-121204761D01*
X109909523Y-121252380D01*
X109623809Y-121252380D01*
X109528571Y-121204761D01*
X109480952Y-121157142D01*
X108986666Y-112502380D02*
X108986666Y-113216666D01*
X108939047Y-113359523D01*
X108843809Y-113454761D01*
X108700952Y-113502380D01*
X108605714Y-113502380D01*
X109367619Y-112502380D02*
X109986666Y-112502380D01*
X109653333Y-112883333D01*
X109796190Y-112883333D01*
X109891428Y-112930952D01*
X109939047Y-112978571D01*
X109986666Y-113073809D01*
X109986666Y-113311904D01*
X109939047Y-113407142D01*
X109891428Y-113454761D01*
X109796190Y-113502380D01*
X109510476Y-113502380D01*
X109415238Y-113454761D01*
X109367619Y-113407142D01*
X105100000Y-134204761D02*
X105242857Y-134252380D01*
X105480952Y-134252380D01*
X105576190Y-134204761D01*
X105623809Y-134157142D01*
X105671428Y-134061904D01*
X105671428Y-133966666D01*
X105623809Y-133871428D01*
X105576190Y-133823809D01*
X105480952Y-133776190D01*
X105290476Y-133728571D01*
X105195238Y-133680952D01*
X105147619Y-133633333D01*
X105100000Y-133538095D01*
X105100000Y-133442857D01*
X105147619Y-133347619D01*
X105195238Y-133300000D01*
X105290476Y-133252380D01*
X105528571Y-133252380D01*
X105671428Y-133300000D01*
X105957142Y-133585714D02*
X106338095Y-133585714D01*
X106100000Y-133252380D02*
X106100000Y-134109523D01*
X106147619Y-134204761D01*
X106242857Y-134252380D01*
X106338095Y-134252380D01*
X106671428Y-134252380D02*
X106671428Y-133585714D01*
X106671428Y-133776190D02*
X106719047Y-133680952D01*
X106766666Y-133633333D01*
X106861904Y-133585714D01*
X106957142Y-133585714D01*
X107290476Y-134252380D02*
X107290476Y-133585714D01*
X107290476Y-133252380D02*
X107242857Y-133300000D01*
X107290476Y-133347619D01*
X107338095Y-133300000D01*
X107290476Y-133252380D01*
X107290476Y-133347619D01*
X107766666Y-133585714D02*
X107766666Y-134252380D01*
X107766666Y-133680952D02*
X107814285Y-133633333D01*
X107909523Y-133585714D01*
X108052380Y-133585714D01*
X108147619Y-133633333D01*
X108195238Y-133728571D01*
X108195238Y-134252380D01*
X109100000Y-133585714D02*
X109100000Y-134395238D01*
X109052380Y-134490476D01*
X109004761Y-134538095D01*
X108909523Y-134585714D01*
X108766666Y-134585714D01*
X108671428Y-134538095D01*
X109100000Y-134204761D02*
X109004761Y-134252380D01*
X108814285Y-134252380D01*
X108719047Y-134204761D01*
X108671428Y-134157142D01*
X108623809Y-134061904D01*
X108623809Y-133776190D01*
X108671428Y-133680952D01*
X108719047Y-133633333D01*
X108814285Y-133585714D01*
X109004761Y-133585714D01*
X109100000Y-133633333D01*
X110004761Y-133585714D02*
X110004761Y-134252380D01*
X109766666Y-133204761D02*
X109528571Y-133919047D01*
X110147619Y-133919047D01*
X107266666Y-125502380D02*
X107266666Y-126216666D01*
X107219047Y-126359523D01*
X107123809Y-126454761D01*
X106980952Y-126502380D01*
X106885714Y-126502380D01*
X108171428Y-125835714D02*
X108171428Y-126502380D01*
X107933333Y-125454761D02*
X107695238Y-126169047D01*
X108314285Y-126169047D01*
X195552714Y-107152180D02*
X196219380Y-107152180D01*
X195552714Y-108152180D01*
X196219380Y-108152180D01*
X196981285Y-108104561D02*
X196886047Y-108152180D01*
X196695571Y-108152180D01*
X196600333Y-108104561D01*
X196552714Y-108009323D01*
X196552714Y-107628371D01*
X196600333Y-107533133D01*
X196695571Y-107485514D01*
X196886047Y-107485514D01*
X196981285Y-107533133D01*
X197028904Y-107628371D01*
X197028904Y-107723609D01*
X196552714Y-107818847D01*
X197457476Y-107485514D02*
X197457476Y-108152180D01*
X197457476Y-107580752D02*
X197505095Y-107533133D01*
X197600333Y-107485514D01*
X197743190Y-107485514D01*
X197838428Y-107533133D01*
X197886047Y-107628371D01*
X197886047Y-108152180D01*
X198743190Y-108104561D02*
X198647952Y-108152180D01*
X198457476Y-108152180D01*
X198362238Y-108104561D01*
X198314619Y-108009323D01*
X198314619Y-107628371D01*
X198362238Y-107533133D01*
X198457476Y-107485514D01*
X198647952Y-107485514D01*
X198743190Y-107533133D01*
X198790809Y-107628371D01*
X198790809Y-107723609D01*
X198314619Y-107818847D01*
X199219380Y-108152180D02*
X199219380Y-107485514D01*
X199219380Y-107675990D02*
X199267000Y-107580752D01*
X199314619Y-107533133D01*
X199409857Y-107485514D01*
X199505095Y-107485514D01*
X201124142Y-108152180D02*
X200552714Y-108152180D01*
X200838428Y-108152180D02*
X200838428Y-107152180D01*
X200743190Y-107295038D01*
X200647952Y-107390276D01*
X200552714Y-107437895D01*
X201743190Y-107152180D02*
X201838428Y-107152180D01*
X201933666Y-107199800D01*
X201981285Y-107247419D01*
X202028904Y-107342657D01*
X202076523Y-107533133D01*
X202076523Y-107771228D01*
X202028904Y-107961704D01*
X201981285Y-108056942D01*
X201933666Y-108104561D01*
X201838428Y-108152180D01*
X201743190Y-108152180D01*
X201647952Y-108104561D01*
X201600333Y-108056942D01*
X201552714Y-107961704D01*
X201505095Y-107771228D01*
X201505095Y-107533133D01*
X201552714Y-107342657D01*
X201600333Y-107247419D01*
X201647952Y-107199800D01*
X201743190Y-107152180D01*
X202362238Y-107152180D02*
X202695571Y-108152180D01*
X203028904Y-107152180D01*
X205028904Y-105552180D02*
X205028904Y-104552180D01*
X205267000Y-104552180D01*
X205409857Y-104599800D01*
X205505095Y-104695038D01*
X205552714Y-104790276D01*
X205600333Y-104980752D01*
X205600333Y-105123609D01*
X205552714Y-105314085D01*
X205505095Y-105409323D01*
X205409857Y-105504561D01*
X205267000Y-105552180D01*
X205028904Y-105552180D01*
X206552714Y-105552180D02*
X205981285Y-105552180D01*
X206267000Y-105552180D02*
X206267000Y-104552180D01*
X206171761Y-104695038D01*
X206076523Y-104790276D01*
X205981285Y-104837895D01*
D12*
X86347952Y-100966466D02*
X86157476Y-101099800D01*
X86347952Y-101195038D02*
X85947952Y-101195038D01*
X85947952Y-101042657D01*
X85967000Y-101004561D01*
X85986047Y-100985514D01*
X86024142Y-100966466D01*
X86081285Y-100966466D01*
X86119380Y-100985514D01*
X86138428Y-101004561D01*
X86157476Y-101042657D01*
X86157476Y-101195038D01*
X85986047Y-100814085D02*
X85967000Y-100795038D01*
X85947952Y-100756942D01*
X85947952Y-100661704D01*
X85967000Y-100623609D01*
X85986047Y-100604561D01*
X86024142Y-100585514D01*
X86062238Y-100585514D01*
X86119380Y-100604561D01*
X86347952Y-100833133D01*
X86347952Y-100585514D01*
D14*
X190487042Y-147375742D02*
X190487042Y-146756695D01*
X190867995Y-147090028D01*
X190867995Y-146947171D01*
X190915614Y-146851933D01*
X190963233Y-146804314D01*
X191058471Y-146756695D01*
X191296566Y-146756695D01*
X191391804Y-146804314D01*
X191439423Y-146851933D01*
X191487042Y-146947171D01*
X191487042Y-147232885D01*
X191439423Y-147328123D01*
X191391804Y-147375742D01*
X190487042Y-145851933D02*
X190487042Y-146328123D01*
X190963233Y-146375742D01*
X190915614Y-146328123D01*
X190867995Y-146232885D01*
X190867995Y-145994790D01*
X190915614Y-145899552D01*
X190963233Y-145851933D01*
X191058471Y-145804314D01*
X191296566Y-145804314D01*
X191391804Y-145851933D01*
X191439423Y-145899552D01*
X191487042Y-145994790D01*
X191487042Y-146232885D01*
X191439423Y-146328123D01*
X191391804Y-146375742D01*
X190820376Y-144947171D02*
X191487042Y-144947171D01*
X190439423Y-145185266D02*
X191153709Y-145423361D01*
X191153709Y-144804314D01*
X190820376Y-143994790D02*
X191487042Y-143994790D01*
X190439423Y-144232885D02*
X191153709Y-144470980D01*
X191153709Y-143851933D01*
X191106090Y-143470980D02*
X191106090Y-142709076D01*
X190582281Y-142280504D02*
X190534662Y-142232885D01*
X190487042Y-142137647D01*
X190487042Y-141899552D01*
X190534662Y-141804314D01*
X190582281Y-141756695D01*
X190677519Y-141709076D01*
X190772757Y-141709076D01*
X190915614Y-141756695D01*
X191487042Y-142328123D01*
X191487042Y-141709076D01*
X170079743Y-147298842D02*
X170079743Y-146679795D01*
X170460696Y-147013128D01*
X170460696Y-146870271D01*
X170508315Y-146775033D01*
X170555934Y-146727414D01*
X170651172Y-146679795D01*
X170889267Y-146679795D01*
X170984505Y-146727414D01*
X171032124Y-146775033D01*
X171079743Y-146870271D01*
X171079743Y-147155985D01*
X171032124Y-147251223D01*
X170984505Y-147298842D01*
X170079743Y-145775033D02*
X170079743Y-146251223D01*
X170555934Y-146298842D01*
X170508315Y-146251223D01*
X170460696Y-146155985D01*
X170460696Y-145917890D01*
X170508315Y-145822652D01*
X170555934Y-145775033D01*
X170651172Y-145727414D01*
X170889267Y-145727414D01*
X170984505Y-145775033D01*
X171032124Y-145822652D01*
X171079743Y-145917890D01*
X171079743Y-146155985D01*
X171032124Y-146251223D01*
X170984505Y-146298842D01*
X170413077Y-144870271D02*
X171079743Y-144870271D01*
X170032124Y-145108366D02*
X170746410Y-145346461D01*
X170746410Y-144727414D01*
X170413077Y-143917890D02*
X171079743Y-143917890D01*
X170032124Y-144155985D02*
X170746410Y-144394080D01*
X170746410Y-143775033D01*
X170698791Y-143394080D02*
X170698791Y-142632176D01*
X170174982Y-142203604D02*
X170127363Y-142155985D01*
X170079743Y-142060747D01*
X170079743Y-141822652D01*
X170127363Y-141727414D01*
X170174982Y-141679795D01*
X170270220Y-141632176D01*
X170365458Y-141632176D01*
X170508315Y-141679795D01*
X171079743Y-142251223D01*
X171079743Y-141632176D01*
D11*
X74032580Y-74621704D02*
X73032580Y-74621704D01*
X73508771Y-74621704D02*
X73508771Y-74050276D01*
X74032580Y-74050276D02*
X73032580Y-74050276D01*
X73365914Y-73145514D02*
X74032580Y-73145514D01*
X72984961Y-73383609D02*
X73699247Y-73621704D01*
X73699247Y-73002657D01*
X75957580Y-73761014D02*
X74957580Y-73761014D01*
X75671866Y-73427680D01*
X74957580Y-73094347D01*
X75957580Y-73094347D01*
X75957580Y-72475300D02*
X75909961Y-72570538D01*
X75862342Y-72618157D01*
X75767104Y-72665776D01*
X75481390Y-72665776D01*
X75386152Y-72618157D01*
X75338533Y-72570538D01*
X75290914Y-72475300D01*
X75290914Y-72332442D01*
X75338533Y-72237204D01*
X75386152Y-72189585D01*
X75481390Y-72141966D01*
X75767104Y-72141966D01*
X75862342Y-72189585D01*
X75909961Y-72237204D01*
X75957580Y-72332442D01*
X75957580Y-72475300D01*
X75290914Y-71284823D02*
X75957580Y-71284823D01*
X75290914Y-71713395D02*
X75814723Y-71713395D01*
X75909961Y-71665776D01*
X75957580Y-71570538D01*
X75957580Y-71427680D01*
X75909961Y-71332442D01*
X75862342Y-71284823D01*
X75290914Y-70808633D02*
X75957580Y-70808633D01*
X75386152Y-70808633D02*
X75338533Y-70761014D01*
X75290914Y-70665776D01*
X75290914Y-70522919D01*
X75338533Y-70427680D01*
X75433771Y-70380061D01*
X75957580Y-70380061D01*
X75290914Y-70046728D02*
X75290914Y-69665776D01*
X74957580Y-69903871D02*
X75814723Y-69903871D01*
X75909961Y-69856252D01*
X75957580Y-69761014D01*
X75957580Y-69665776D01*
X75957580Y-69332442D02*
X75290914Y-69332442D01*
X74957580Y-69332442D02*
X75005200Y-69380061D01*
X75052819Y-69332442D01*
X75005200Y-69284823D01*
X74957580Y-69332442D01*
X75052819Y-69332442D01*
X75290914Y-68856252D02*
X75957580Y-68856252D01*
X75386152Y-68856252D02*
X75338533Y-68808633D01*
X75290914Y-68713395D01*
X75290914Y-68570538D01*
X75338533Y-68475300D01*
X75433771Y-68427680D01*
X75957580Y-68427680D01*
X75290914Y-67522919D02*
X76100438Y-67522919D01*
X76195676Y-67570538D01*
X76243295Y-67618157D01*
X76290914Y-67713395D01*
X76290914Y-67856252D01*
X76243295Y-67951490D01*
X75909961Y-67522919D02*
X75957580Y-67618157D01*
X75957580Y-67808633D01*
X75909961Y-67903871D01*
X75862342Y-67951490D01*
X75767104Y-67999109D01*
X75481390Y-67999109D01*
X75386152Y-67951490D01*
X75338533Y-67903871D01*
X75290914Y-67808633D01*
X75290914Y-67618157D01*
X75338533Y-67522919D01*
X75957580Y-67046728D02*
X74957580Y-67046728D01*
X75433771Y-67046728D02*
X75433771Y-66475300D01*
X75957580Y-66475300D02*
X74957580Y-66475300D01*
X75957580Y-65856252D02*
X75909961Y-65951490D01*
X75862342Y-65999109D01*
X75767104Y-66046728D01*
X75481390Y-66046728D01*
X75386152Y-65999109D01*
X75338533Y-65951490D01*
X75290914Y-65856252D01*
X75290914Y-65713395D01*
X75338533Y-65618157D01*
X75386152Y-65570538D01*
X75481390Y-65522919D01*
X75767104Y-65522919D01*
X75862342Y-65570538D01*
X75909961Y-65618157D01*
X75957580Y-65713395D01*
X75957580Y-65856252D01*
X75957580Y-64951490D02*
X75909961Y-65046728D01*
X75814723Y-65094347D01*
X74957580Y-65094347D01*
X75909961Y-64189585D02*
X75957580Y-64284823D01*
X75957580Y-64475300D01*
X75909961Y-64570538D01*
X75814723Y-64618157D01*
X75433771Y-64618157D01*
X75338533Y-64570538D01*
X75290914Y-64475300D01*
X75290914Y-64284823D01*
X75338533Y-64189585D01*
X75433771Y-64141966D01*
X75529009Y-64141966D01*
X75624247Y-64618157D01*
X80743095Y-64101380D02*
X80743095Y-63101380D01*
X80743095Y-63577571D02*
X81314523Y-63577571D01*
X81314523Y-64101380D02*
X81314523Y-63101380D01*
X82219285Y-63434714D02*
X82219285Y-64101380D01*
X81981190Y-63053761D02*
X81743095Y-63768047D01*
X82362142Y-63768047D01*
D12*
X78747952Y-127395038D02*
X78347952Y-127395038D01*
X78347952Y-127299800D01*
X78367000Y-127242657D01*
X78405095Y-127204561D01*
X78443190Y-127185514D01*
X78519380Y-127166466D01*
X78576523Y-127166466D01*
X78652714Y-127185514D01*
X78690809Y-127204561D01*
X78728904Y-127242657D01*
X78747952Y-127299800D01*
X78747952Y-127395038D01*
X78347952Y-126804561D02*
X78347952Y-126995038D01*
X78538428Y-127014085D01*
X78519380Y-126995038D01*
X78500333Y-126956942D01*
X78500333Y-126861704D01*
X78519380Y-126823609D01*
X78538428Y-126804561D01*
X78576523Y-126785514D01*
X78671761Y-126785514D01*
X78709857Y-126804561D01*
X78728904Y-126823609D01*
X78747952Y-126861704D01*
X78747952Y-126956942D01*
X78728904Y-126995038D01*
X78709857Y-127014085D01*
X210147952Y-127195038D02*
X209747952Y-127195038D01*
X209747952Y-127099800D01*
X209767000Y-127042657D01*
X209805095Y-127004561D01*
X209843190Y-126985514D01*
X209919380Y-126966466D01*
X209976523Y-126966466D01*
X210052714Y-126985514D01*
X210090809Y-127004561D01*
X210128904Y-127042657D01*
X210147952Y-127099800D01*
X210147952Y-127195038D01*
X209747952Y-126623609D02*
X209747952Y-126699800D01*
X209767000Y-126737895D01*
X209786047Y-126756942D01*
X209843190Y-126795038D01*
X209919380Y-126814085D01*
X210071761Y-126814085D01*
X210109857Y-126795038D01*
X210128904Y-126775990D01*
X210147952Y-126737895D01*
X210147952Y-126661704D01*
X210128904Y-126623609D01*
X210109857Y-126604561D01*
X210071761Y-126585514D01*
X209976523Y-126585514D01*
X209938428Y-126604561D01*
X209919380Y-126623609D01*
X209900333Y-126661704D01*
X209900333Y-126737895D01*
X209919380Y-126775990D01*
X209938428Y-126795038D01*
X209976523Y-126814085D01*
D11*
X74083380Y-105508104D02*
X73083380Y-105508104D01*
X73559571Y-105508104D02*
X73559571Y-104936676D01*
X74083380Y-104936676D02*
X73083380Y-104936676D01*
X73178619Y-104508104D02*
X73131000Y-104460485D01*
X73083380Y-104365247D01*
X73083380Y-104127152D01*
X73131000Y-104031914D01*
X73178619Y-103984295D01*
X73273857Y-103936676D01*
X73369095Y-103936676D01*
X73511952Y-103984295D01*
X74083380Y-104555723D01*
X74083380Y-103936676D01*
X73774980Y-119894314D02*
X72774980Y-119894314D01*
X73489266Y-119560980D01*
X72774980Y-119227647D01*
X73774980Y-119227647D01*
X73774980Y-118608600D02*
X73727361Y-118703838D01*
X73679742Y-118751457D01*
X73584504Y-118799076D01*
X73298790Y-118799076D01*
X73203552Y-118751457D01*
X73155933Y-118703838D01*
X73108314Y-118608600D01*
X73108314Y-118465742D01*
X73155933Y-118370504D01*
X73203552Y-118322885D01*
X73298790Y-118275266D01*
X73584504Y-118275266D01*
X73679742Y-118322885D01*
X73727361Y-118370504D01*
X73774980Y-118465742D01*
X73774980Y-118608600D01*
X73108314Y-117418123D02*
X73774980Y-117418123D01*
X73108314Y-117846695D02*
X73632123Y-117846695D01*
X73727361Y-117799076D01*
X73774980Y-117703838D01*
X73774980Y-117560980D01*
X73727361Y-117465742D01*
X73679742Y-117418123D01*
X73108314Y-116941933D02*
X73774980Y-116941933D01*
X73203552Y-116941933D02*
X73155933Y-116894314D01*
X73108314Y-116799076D01*
X73108314Y-116656219D01*
X73155933Y-116560980D01*
X73251171Y-116513361D01*
X73774980Y-116513361D01*
X73108314Y-116180028D02*
X73108314Y-115799076D01*
X72774980Y-116037171D02*
X73632123Y-116037171D01*
X73727361Y-115989552D01*
X73774980Y-115894314D01*
X73774980Y-115799076D01*
X73774980Y-115465742D02*
X73108314Y-115465742D01*
X72774980Y-115465742D02*
X72822600Y-115513361D01*
X72870219Y-115465742D01*
X72822600Y-115418123D01*
X72774980Y-115465742D01*
X72870219Y-115465742D01*
X73108314Y-114989552D02*
X73774980Y-114989552D01*
X73203552Y-114989552D02*
X73155933Y-114941933D01*
X73108314Y-114846695D01*
X73108314Y-114703838D01*
X73155933Y-114608600D01*
X73251171Y-114560980D01*
X73774980Y-114560980D01*
X73108314Y-113656219D02*
X73917838Y-113656219D01*
X74013076Y-113703838D01*
X74060695Y-113751457D01*
X74108314Y-113846695D01*
X74108314Y-113989552D01*
X74060695Y-114084790D01*
X73727361Y-113656219D02*
X73774980Y-113751457D01*
X73774980Y-113941933D01*
X73727361Y-114037171D01*
X73679742Y-114084790D01*
X73584504Y-114132409D01*
X73298790Y-114132409D01*
X73203552Y-114084790D01*
X73155933Y-114037171D01*
X73108314Y-113941933D01*
X73108314Y-113751457D01*
X73155933Y-113656219D01*
X73774980Y-113180028D02*
X72774980Y-113180028D01*
X73251171Y-113180028D02*
X73251171Y-112608600D01*
X73774980Y-112608600D02*
X72774980Y-112608600D01*
X73774980Y-111989552D02*
X73727361Y-112084790D01*
X73679742Y-112132409D01*
X73584504Y-112180028D01*
X73298790Y-112180028D01*
X73203552Y-112132409D01*
X73155933Y-112084790D01*
X73108314Y-111989552D01*
X73108314Y-111846695D01*
X73155933Y-111751457D01*
X73203552Y-111703838D01*
X73298790Y-111656219D01*
X73584504Y-111656219D01*
X73679742Y-111703838D01*
X73727361Y-111751457D01*
X73774980Y-111846695D01*
X73774980Y-111989552D01*
X73774980Y-111084790D02*
X73727361Y-111180028D01*
X73632123Y-111227647D01*
X72774980Y-111227647D01*
X73727361Y-110322885D02*
X73774980Y-110418123D01*
X73774980Y-110608600D01*
X73727361Y-110703838D01*
X73632123Y-110751457D01*
X73251171Y-110751457D01*
X73155933Y-110703838D01*
X73108314Y-110608600D01*
X73108314Y-110418123D01*
X73155933Y-110322885D01*
X73251171Y-110275266D01*
X73346409Y-110275266D01*
X73441647Y-110751457D01*
X74083380Y-101037704D02*
X73083380Y-101037704D01*
X73559571Y-101037704D02*
X73559571Y-100466276D01*
X74083380Y-100466276D02*
X73083380Y-100466276D01*
X73178619Y-100037704D02*
X73131000Y-99990085D01*
X73083380Y-99894847D01*
X73083380Y-99656752D01*
X73131000Y-99561514D01*
X73178619Y-99513895D01*
X73273857Y-99466276D01*
X73369095Y-99466276D01*
X73511952Y-99513895D01*
X74083380Y-100085323D01*
X74083380Y-99466276D01*
D12*
X78747952Y-130666466D02*
X78557476Y-130799800D01*
X78747952Y-130895038D02*
X78347952Y-130895038D01*
X78347952Y-130742657D01*
X78367000Y-130704561D01*
X78386047Y-130685514D01*
X78424142Y-130666466D01*
X78481285Y-130666466D01*
X78519380Y-130685514D01*
X78538428Y-130704561D01*
X78557476Y-130742657D01*
X78557476Y-130895038D01*
X78481285Y-130323609D02*
X78747952Y-130323609D01*
X78328904Y-130418847D02*
X78614619Y-130514085D01*
X78614619Y-130266466D01*
X210147952Y-130566466D02*
X209957476Y-130699800D01*
X210147952Y-130795038D02*
X209747952Y-130795038D01*
X209747952Y-130642657D01*
X209767000Y-130604561D01*
X209786047Y-130585514D01*
X209824142Y-130566466D01*
X209881285Y-130566466D01*
X209919380Y-130585514D01*
X209938428Y-130604561D01*
X209957476Y-130642657D01*
X209957476Y-130795038D01*
X209747952Y-130204561D02*
X209747952Y-130395038D01*
X209938428Y-130414085D01*
X209919380Y-130395038D01*
X209900333Y-130356942D01*
X209900333Y-130261704D01*
X209919380Y-130223609D01*
X209938428Y-130204561D01*
X209976523Y-130185514D01*
X210071761Y-130185514D01*
X210109857Y-130204561D01*
X210128904Y-130223609D01*
X210147952Y-130261704D01*
X210147952Y-130356942D01*
X210128904Y-130395038D01*
X210109857Y-130414085D01*
X178171761Y-101580752D02*
X178171761Y-101180752D01*
X178267000Y-101180752D01*
X178324142Y-101199800D01*
X178362238Y-101237895D01*
X178381285Y-101275990D01*
X178400333Y-101352180D01*
X178400333Y-101409323D01*
X178381285Y-101485514D01*
X178362238Y-101523609D01*
X178324142Y-101561704D01*
X178267000Y-101580752D01*
X178171761Y-101580752D01*
X178743190Y-101314085D02*
X178743190Y-101580752D01*
X178647952Y-101161704D02*
X178552714Y-101447419D01*
X178800333Y-101447419D01*
D14*
X217353380Y-136533942D02*
X217353380Y-135914895D01*
X217734333Y-136248228D01*
X217734333Y-136105371D01*
X217781952Y-136010133D01*
X217829571Y-135962514D01*
X217924809Y-135914895D01*
X218162904Y-135914895D01*
X218258142Y-135962514D01*
X218305761Y-136010133D01*
X218353380Y-136105371D01*
X218353380Y-136391085D01*
X218305761Y-136486323D01*
X218258142Y-136533942D01*
X217353380Y-135010133D02*
X217353380Y-135486323D01*
X217829571Y-135533942D01*
X217781952Y-135486323D01*
X217734333Y-135391085D01*
X217734333Y-135152990D01*
X217781952Y-135057752D01*
X217829571Y-135010133D01*
X217924809Y-134962514D01*
X218162904Y-134962514D01*
X218258142Y-135010133D01*
X218305761Y-135057752D01*
X218353380Y-135152990D01*
X218353380Y-135391085D01*
X218305761Y-135486323D01*
X218258142Y-135533942D01*
X217686714Y-134105371D02*
X218353380Y-134105371D01*
X217305761Y-134343466D02*
X218020047Y-134581561D01*
X218020047Y-133962514D01*
X217686714Y-133152990D02*
X218353380Y-133152990D01*
X217305761Y-133391085D02*
X218020047Y-133629180D01*
X218020047Y-133010133D01*
X217972428Y-132629180D02*
X217972428Y-131867276D01*
X217448619Y-131438704D02*
X217401000Y-131391085D01*
X217353380Y-131295847D01*
X217353380Y-131057752D01*
X217401000Y-130962514D01*
X217448619Y-130914895D01*
X217543857Y-130867276D01*
X217639095Y-130867276D01*
X217781952Y-130914895D01*
X218353380Y-131486323D01*
X218353380Y-130867276D01*
D11*
X171444780Y-100136800D02*
X171682876Y-100136800D01*
X171587638Y-100374895D02*
X171682876Y-100136800D01*
X171587638Y-99898704D01*
X171873352Y-100279657D02*
X171682876Y-100136800D01*
X171873352Y-99993942D01*
X130094780Y-100136800D02*
X130332876Y-100136800D01*
X130237638Y-100374895D02*
X130332876Y-100136800D01*
X130237638Y-99898704D01*
X130523352Y-100279657D02*
X130332876Y-100136800D01*
X130523352Y-99993942D01*
X91720333Y-101863133D02*
X91720333Y-102656466D01*
X91767000Y-102749800D01*
X91813666Y-102796466D01*
X91907000Y-102843133D01*
X92093666Y-102843133D01*
X92187000Y-102796466D01*
X92233666Y-102749800D01*
X92280333Y-102656466D01*
X92280333Y-101863133D01*
X93213666Y-101863133D02*
X92747000Y-101863133D01*
X92700333Y-102329800D01*
X92747000Y-102283133D01*
X92840333Y-102236466D01*
X93073666Y-102236466D01*
X93167000Y-102283133D01*
X93213666Y-102329800D01*
X93260333Y-102423133D01*
X93260333Y-102656466D01*
X93213666Y-102749800D01*
X93167000Y-102796466D01*
X93073666Y-102843133D01*
X92840333Y-102843133D01*
X92747000Y-102796466D01*
X92700333Y-102749800D01*
X80305095Y-140128371D02*
X80638428Y-140128371D01*
X80781285Y-140652180D02*
X80305095Y-140652180D01*
X80305095Y-139652180D01*
X80781285Y-139652180D01*
X81209857Y-140652180D02*
X81209857Y-139652180D01*
X81447952Y-139652180D01*
X81590809Y-139699800D01*
X81686047Y-139795038D01*
X81733666Y-139890276D01*
X81781285Y-140080752D01*
X81781285Y-140223609D01*
X81733666Y-140414085D01*
X81686047Y-140509323D01*
X81590809Y-140604561D01*
X81447952Y-140652180D01*
X81209857Y-140652180D01*
X82162238Y-139747419D02*
X82209857Y-139699800D01*
X82305095Y-139652180D01*
X82543190Y-139652180D01*
X82638428Y-139699800D01*
X82686047Y-139747419D01*
X82733666Y-139842657D01*
X82733666Y-139937895D01*
X82686047Y-140080752D01*
X82114619Y-140652180D01*
X82733666Y-140652180D01*
X83209857Y-140652180D02*
X83400333Y-140652180D01*
X83495571Y-140604561D01*
X83543190Y-140556942D01*
X83638428Y-140414085D01*
X83686047Y-140223609D01*
X83686047Y-139842657D01*
X83638428Y-139747419D01*
X83590809Y-139699800D01*
X83495571Y-139652180D01*
X83305095Y-139652180D01*
X83209857Y-139699800D01*
X83162238Y-139747419D01*
X83114619Y-139842657D01*
X83114619Y-140080752D01*
X83162238Y-140175990D01*
X83209857Y-140223609D01*
X83305095Y-140271228D01*
X83495571Y-140271228D01*
X83590809Y-140223609D01*
X83638428Y-140175990D01*
X83686047Y-140080752D01*
X84590809Y-139652180D02*
X84114619Y-139652180D01*
X84067000Y-140128371D01*
X84114619Y-140080752D01*
X84209857Y-140033133D01*
X84447952Y-140033133D01*
X84543190Y-140080752D01*
X84590809Y-140128371D01*
X84638428Y-140223609D01*
X84638428Y-140461704D01*
X84590809Y-140556942D01*
X84543190Y-140604561D01*
X84447952Y-140652180D01*
X84209857Y-140652180D01*
X84114619Y-140604561D01*
X84067000Y-140556942D01*
X84971761Y-139652180D02*
X85590809Y-139652180D01*
X85257476Y-140033133D01*
X85400333Y-140033133D01*
X85495571Y-140080752D01*
X85543190Y-140128371D01*
X85590809Y-140223609D01*
X85590809Y-140461704D01*
X85543190Y-140556942D01*
X85495571Y-140604561D01*
X85400333Y-140652180D01*
X85114619Y-140652180D01*
X85019380Y-140604561D01*
X84971761Y-140556942D01*
X86019380Y-140271228D02*
X86781285Y-140271228D01*
X87257476Y-140652180D02*
X87257476Y-139652180D01*
X87828904Y-140652180D01*
X87828904Y-139652180D01*
X88305095Y-140652180D02*
X88305095Y-139652180D01*
X88543190Y-139652180D01*
X88686047Y-139699800D01*
X88781285Y-139795038D01*
X88828904Y-139890276D01*
X88876523Y-140080752D01*
X88876523Y-140223609D01*
X88828904Y-140414085D01*
X88781285Y-140509323D01*
X88686047Y-140604561D01*
X88543190Y-140652180D01*
X88305095Y-140652180D01*
X200305095Y-150528371D02*
X200638428Y-150528371D01*
X200781285Y-151052180D02*
X200305095Y-151052180D01*
X200305095Y-150052180D01*
X200781285Y-150052180D01*
X201209857Y-151052180D02*
X201209857Y-150052180D01*
X201447952Y-150052180D01*
X201590809Y-150099800D01*
X201686047Y-150195038D01*
X201733666Y-150290276D01*
X201781285Y-150480752D01*
X201781285Y-150623609D01*
X201733666Y-150814085D01*
X201686047Y-150909323D01*
X201590809Y-151004561D01*
X201447952Y-151052180D01*
X201209857Y-151052180D01*
X202162238Y-150147419D02*
X202209857Y-150099800D01*
X202305095Y-150052180D01*
X202543190Y-150052180D01*
X202638428Y-150099800D01*
X202686047Y-150147419D01*
X202733666Y-150242657D01*
X202733666Y-150337895D01*
X202686047Y-150480752D01*
X202114619Y-151052180D01*
X202733666Y-151052180D01*
X203209857Y-151052180D02*
X203400333Y-151052180D01*
X203495571Y-151004561D01*
X203543190Y-150956942D01*
X203638428Y-150814085D01*
X203686047Y-150623609D01*
X203686047Y-150242657D01*
X203638428Y-150147419D01*
X203590809Y-150099800D01*
X203495571Y-150052180D01*
X203305095Y-150052180D01*
X203209857Y-150099800D01*
X203162238Y-150147419D01*
X203114619Y-150242657D01*
X203114619Y-150480752D01*
X203162238Y-150575990D01*
X203209857Y-150623609D01*
X203305095Y-150671228D01*
X203495571Y-150671228D01*
X203590809Y-150623609D01*
X203638428Y-150575990D01*
X203686047Y-150480752D01*
X204590809Y-150052180D02*
X204114619Y-150052180D01*
X204067000Y-150528371D01*
X204114619Y-150480752D01*
X204209857Y-150433133D01*
X204447952Y-150433133D01*
X204543190Y-150480752D01*
X204590809Y-150528371D01*
X204638428Y-150623609D01*
X204638428Y-150861704D01*
X204590809Y-150956942D01*
X204543190Y-151004561D01*
X204447952Y-151052180D01*
X204209857Y-151052180D01*
X204114619Y-151004561D01*
X204067000Y-150956942D01*
X204971761Y-150052180D02*
X205590809Y-150052180D01*
X205257476Y-150433133D01*
X205400333Y-150433133D01*
X205495571Y-150480752D01*
X205543190Y-150528371D01*
X205590809Y-150623609D01*
X205590809Y-150861704D01*
X205543190Y-150956942D01*
X205495571Y-151004561D01*
X205400333Y-151052180D01*
X205114619Y-151052180D01*
X205019380Y-151004561D01*
X204971761Y-150956942D01*
X206019380Y-150671228D02*
X206781285Y-150671228D01*
X207257476Y-151052180D02*
X207257476Y-150052180D01*
X207828904Y-151052180D01*
X207828904Y-150052180D01*
X208305095Y-151052180D02*
X208305095Y-150052180D01*
X208543190Y-150052180D01*
X208686047Y-150099800D01*
X208781285Y-150195038D01*
X208828904Y-150290276D01*
X208876523Y-150480752D01*
X208876523Y-150623609D01*
X208828904Y-150814085D01*
X208781285Y-150909323D01*
X208686047Y-151004561D01*
X208543190Y-151052180D01*
X208305095Y-151052180D01*
X208519380Y-120761704D02*
X207519380Y-120761704D01*
X207995571Y-120761704D02*
X207995571Y-120190276D01*
X208519380Y-120190276D02*
X207519380Y-120190276D01*
X208519380Y-119190276D02*
X208519380Y-119761704D01*
X208519380Y-119475990D02*
X207519380Y-119475990D01*
X207662238Y-119571228D01*
X207757476Y-119666466D01*
X207805095Y-119761704D01*
X205519380Y-123085514D02*
X204519380Y-123085514D01*
X205233666Y-122752180D01*
X204519380Y-122418847D01*
X205519380Y-122418847D01*
X205519380Y-121799800D02*
X205471761Y-121895038D01*
X205424142Y-121942657D01*
X205328904Y-121990276D01*
X205043190Y-121990276D01*
X204947952Y-121942657D01*
X204900333Y-121895038D01*
X204852714Y-121799800D01*
X204852714Y-121656942D01*
X204900333Y-121561704D01*
X204947952Y-121514085D01*
X205043190Y-121466466D01*
X205328904Y-121466466D01*
X205424142Y-121514085D01*
X205471761Y-121561704D01*
X205519380Y-121656942D01*
X205519380Y-121799800D01*
X204852714Y-120609323D02*
X205519380Y-120609323D01*
X204852714Y-121037895D02*
X205376523Y-121037895D01*
X205471761Y-120990276D01*
X205519380Y-120895038D01*
X205519380Y-120752180D01*
X205471761Y-120656942D01*
X205424142Y-120609323D01*
X204852714Y-120133133D02*
X205519380Y-120133133D01*
X204947952Y-120133133D02*
X204900333Y-120085514D01*
X204852714Y-119990276D01*
X204852714Y-119847419D01*
X204900333Y-119752180D01*
X204995571Y-119704561D01*
X205519380Y-119704561D01*
X204852714Y-119371228D02*
X204852714Y-118990276D01*
X204519380Y-119228371D02*
X205376523Y-119228371D01*
X205471761Y-119180752D01*
X205519380Y-119085514D01*
X205519380Y-118990276D01*
X205519380Y-118656942D02*
X204852714Y-118656942D01*
X204519380Y-118656942D02*
X204567000Y-118704561D01*
X204614619Y-118656942D01*
X204567000Y-118609323D01*
X204519380Y-118656942D01*
X204614619Y-118656942D01*
X204852714Y-118180752D02*
X205519380Y-118180752D01*
X204947952Y-118180752D02*
X204900333Y-118133133D01*
X204852714Y-118037895D01*
X204852714Y-117895038D01*
X204900333Y-117799800D01*
X204995571Y-117752180D01*
X205519380Y-117752180D01*
X204852714Y-116847419D02*
X205662238Y-116847419D01*
X205757476Y-116895038D01*
X205805095Y-116942657D01*
X205852714Y-117037895D01*
X205852714Y-117180752D01*
X205805095Y-117275990D01*
X205471761Y-116847419D02*
X205519380Y-116942657D01*
X205519380Y-117133133D01*
X205471761Y-117228371D01*
X205424142Y-117275990D01*
X205328904Y-117323609D01*
X205043190Y-117323609D01*
X204947952Y-117275990D01*
X204900333Y-117228371D01*
X204852714Y-117133133D01*
X204852714Y-116942657D01*
X204900333Y-116847419D01*
X205519380Y-116371228D02*
X204519380Y-116371228D01*
X204995571Y-116371228D02*
X204995571Y-115799800D01*
X205519380Y-115799800D02*
X204519380Y-115799800D01*
X205519380Y-115180752D02*
X205471761Y-115275990D01*
X205424142Y-115323609D01*
X205328904Y-115371228D01*
X205043190Y-115371228D01*
X204947952Y-115323609D01*
X204900333Y-115275990D01*
X204852714Y-115180752D01*
X204852714Y-115037895D01*
X204900333Y-114942657D01*
X204947952Y-114895038D01*
X205043190Y-114847419D01*
X205328904Y-114847419D01*
X205424142Y-114895038D01*
X205471761Y-114942657D01*
X205519380Y-115037895D01*
X205519380Y-115180752D01*
X205519380Y-114275990D02*
X205471761Y-114371228D01*
X205376523Y-114418847D01*
X204519380Y-114418847D01*
X205471761Y-113514085D02*
X205519380Y-113609323D01*
X205519380Y-113799800D01*
X205471761Y-113895038D01*
X205376523Y-113942657D01*
X204995571Y-113942657D01*
X204900333Y-113895038D01*
X204852714Y-113799800D01*
X204852714Y-113609323D01*
X204900333Y-113514085D01*
X204995571Y-113466466D01*
X205090809Y-113466466D01*
X205186047Y-113942657D01*
X211419380Y-120061704D02*
X210419380Y-120061704D01*
X210895571Y-120061704D02*
X210895571Y-119490276D01*
X211419380Y-119490276D02*
X210419380Y-119490276D01*
X211419380Y-118490276D02*
X211419380Y-119061704D01*
X211419380Y-118775990D02*
X210419380Y-118775990D01*
X210562238Y-118871228D01*
X210657476Y-118966466D01*
X210705095Y-119061704D01*
X197369380Y-104959323D02*
X198083666Y-104959323D01*
X198226523Y-105006942D01*
X198321761Y-105102180D01*
X198369380Y-105245038D01*
X198369380Y-105340276D01*
X197464619Y-104530752D02*
X197417000Y-104483133D01*
X197369380Y-104387895D01*
X197369380Y-104149800D01*
X197417000Y-104054561D01*
X197464619Y-104006942D01*
X197559857Y-103959323D01*
X197655095Y-103959323D01*
X197797952Y-104006942D01*
X198369380Y-104578371D01*
X198369380Y-103959323D01*
X197369380Y-103625990D02*
X197369380Y-103006942D01*
X197750333Y-103340276D01*
X197750333Y-103197419D01*
X197797952Y-103102180D01*
X197845571Y-103054561D01*
X197940809Y-103006942D01*
X198178904Y-103006942D01*
X198274142Y-103054561D01*
X198321761Y-103102180D01*
X198369380Y-103197419D01*
X198369380Y-103483133D01*
X198321761Y-103578371D01*
X198274142Y-103625990D01*
X73919380Y-84559323D02*
X74633666Y-84559323D01*
X74776523Y-84606942D01*
X74871761Y-84702180D01*
X74919380Y-84845038D01*
X74919380Y-84940276D01*
X74919380Y-83559323D02*
X74919380Y-84130752D01*
X74919380Y-83845038D02*
X73919380Y-83845038D01*
X74062238Y-83940276D01*
X74157476Y-84035514D01*
X74205095Y-84130752D01*
X74919380Y-83083133D02*
X74919380Y-82892657D01*
X74871761Y-82797419D01*
X74824142Y-82749800D01*
X74681285Y-82654561D01*
X74490809Y-82606942D01*
X74109857Y-82606942D01*
X74014619Y-82654561D01*
X73967000Y-82702180D01*
X73919380Y-82797419D01*
X73919380Y-82987895D01*
X73967000Y-83083133D01*
X74014619Y-83130752D01*
X74109857Y-83178371D01*
X74347952Y-83178371D01*
X74443190Y-83130752D01*
X74490809Y-83083133D01*
X74538428Y-82987895D01*
X74538428Y-82797419D01*
X74490809Y-82702180D01*
X74443190Y-82654561D01*
X74347952Y-82606942D01*
X215619380Y-117449323D02*
X216333666Y-117449323D01*
X216476523Y-117496942D01*
X216571761Y-117592180D01*
X216619380Y-117735038D01*
X216619380Y-117830276D01*
X215714619Y-117020752D02*
X215667000Y-116973133D01*
X215619380Y-116877895D01*
X215619380Y-116639800D01*
X215667000Y-116544561D01*
X215714619Y-116496942D01*
X215809857Y-116449323D01*
X215905095Y-116449323D01*
X216047952Y-116496942D01*
X216619380Y-117068371D01*
X216619380Y-116449323D01*
X216047952Y-115877895D02*
X216000333Y-115973133D01*
X215952714Y-116020752D01*
X215857476Y-116068371D01*
X215809857Y-116068371D01*
X215714619Y-116020752D01*
X215667000Y-115973133D01*
X215619380Y-115877895D01*
X215619380Y-115687419D01*
X215667000Y-115592180D01*
X215714619Y-115544561D01*
X215809857Y-115496942D01*
X215857476Y-115496942D01*
X215952714Y-115544561D01*
X216000333Y-115592180D01*
X216047952Y-115687419D01*
X216047952Y-115877895D01*
X216095571Y-115973133D01*
X216143190Y-116020752D01*
X216238428Y-116068371D01*
X216428904Y-116068371D01*
X216524142Y-116020752D01*
X216571761Y-115973133D01*
X216619380Y-115877895D01*
X216619380Y-115687419D01*
X216571761Y-115592180D01*
X216524142Y-115544561D01*
X216428904Y-115496942D01*
X216238428Y-115496942D01*
X216143190Y-115544561D01*
X216095571Y-115592180D01*
X216047952Y-115687419D01*
X72419380Y-102709323D02*
X73133666Y-102709323D01*
X73276523Y-102756942D01*
X73371761Y-102852180D01*
X73419380Y-102995038D01*
X73419380Y-103090276D01*
X72514619Y-102280752D02*
X72467000Y-102233133D01*
X72419380Y-102137895D01*
X72419380Y-101899800D01*
X72467000Y-101804561D01*
X72514619Y-101756942D01*
X72609857Y-101709323D01*
X72705095Y-101709323D01*
X72847952Y-101756942D01*
X73419380Y-102328371D01*
X73419380Y-101709323D01*
X72514619Y-101328371D02*
X72467000Y-101280752D01*
X72419380Y-101185514D01*
X72419380Y-100947419D01*
X72467000Y-100852180D01*
X72514619Y-100804561D01*
X72609857Y-100756942D01*
X72705095Y-100756942D01*
X72847952Y-100804561D01*
X73419380Y-101375990D01*
X73419380Y-100756942D01*
D12*
X82197952Y-108316466D02*
X82007476Y-108449800D01*
X82197952Y-108545038D02*
X81797952Y-108545038D01*
X81797952Y-108392657D01*
X81817000Y-108354561D01*
X81836047Y-108335514D01*
X81874142Y-108316466D01*
X81931285Y-108316466D01*
X81969380Y-108335514D01*
X81988428Y-108354561D01*
X82007476Y-108392657D01*
X82007476Y-108545038D01*
X82197952Y-108125990D02*
X82197952Y-108049800D01*
X82178904Y-108011704D01*
X82159857Y-107992657D01*
X82102714Y-107954561D01*
X82026523Y-107935514D01*
X81874142Y-107935514D01*
X81836047Y-107954561D01*
X81817000Y-107973609D01*
X81797952Y-108011704D01*
X81797952Y-108087895D01*
X81817000Y-108125990D01*
X81836047Y-108145038D01*
X81874142Y-108164085D01*
X81969380Y-108164085D01*
X82007476Y-108145038D01*
X82026523Y-108125990D01*
X82045571Y-108087895D01*
X82045571Y-108011704D01*
X82026523Y-107973609D01*
X82007476Y-107954561D01*
X81969380Y-107935514D01*
X82197952Y-105106942D02*
X82007476Y-105240276D01*
X82197952Y-105335514D02*
X81797952Y-105335514D01*
X81797952Y-105183133D01*
X81817000Y-105145038D01*
X81836047Y-105125990D01*
X81874142Y-105106942D01*
X81931285Y-105106942D01*
X81969380Y-105125990D01*
X81988428Y-105145038D01*
X82007476Y-105183133D01*
X82007476Y-105335514D01*
X82197952Y-104725990D02*
X82197952Y-104954561D01*
X82197952Y-104840276D02*
X81797952Y-104840276D01*
X81855095Y-104878371D01*
X81893190Y-104916466D01*
X81912238Y-104954561D01*
X81797952Y-104478371D02*
X81797952Y-104440276D01*
X81817000Y-104402180D01*
X81836047Y-104383133D01*
X81874142Y-104364085D01*
X81950333Y-104345038D01*
X82045571Y-104345038D01*
X82121761Y-104364085D01*
X82159857Y-104383133D01*
X82178904Y-104402180D01*
X82197952Y-104440276D01*
X82197952Y-104478371D01*
X82178904Y-104516466D01*
X82159857Y-104535514D01*
X82121761Y-104554561D01*
X82045571Y-104573609D01*
X81950333Y-104573609D01*
X81874142Y-104554561D01*
X81836047Y-104535514D01*
X81817000Y-104516466D01*
X81797952Y-104478371D01*
X174800333Y-101580752D02*
X174667000Y-101390276D01*
X174571761Y-101580752D02*
X174571761Y-101180752D01*
X174724142Y-101180752D01*
X174762238Y-101199800D01*
X174781285Y-101218847D01*
X174800333Y-101256942D01*
X174800333Y-101314085D01*
X174781285Y-101352180D01*
X174762238Y-101371228D01*
X174724142Y-101390276D01*
X174571761Y-101390276D01*
X174933666Y-101180752D02*
X175181285Y-101180752D01*
X175047952Y-101333133D01*
X175105095Y-101333133D01*
X175143190Y-101352180D01*
X175162238Y-101371228D01*
X175181285Y-101409323D01*
X175181285Y-101504561D01*
X175162238Y-101542657D01*
X175143190Y-101561704D01*
X175105095Y-101580752D01*
X174990809Y-101580752D01*
X174952714Y-101561704D01*
X174933666Y-101542657D01*
D11*
X184624142Y-100716466D02*
X184671761Y-100764085D01*
X184719380Y-100906942D01*
X184719380Y-101002180D01*
X184671761Y-101145038D01*
X184576523Y-101240276D01*
X184481285Y-101287895D01*
X184290809Y-101335514D01*
X184147952Y-101335514D01*
X183957476Y-101287895D01*
X183862238Y-101240276D01*
X183767000Y-101145038D01*
X183719380Y-101002180D01*
X183719380Y-100906942D01*
X183767000Y-100764085D01*
X183814619Y-100716466D01*
X183814619Y-100335514D02*
X183767000Y-100287895D01*
X183719380Y-100192657D01*
X183719380Y-99954561D01*
X183767000Y-99859323D01*
X183814619Y-99811704D01*
X183909857Y-99764085D01*
X184005095Y-99764085D01*
X184147952Y-99811704D01*
X184719380Y-100383133D01*
X184719380Y-99764085D01*
X202524142Y-97534143D02*
X202571761Y-97581762D01*
X202619380Y-97724619D01*
X202619380Y-97819857D01*
X202571761Y-97962715D01*
X202476523Y-98057953D01*
X202381285Y-98105572D01*
X202190809Y-98153191D01*
X202047952Y-98153191D01*
X201857476Y-98105572D01*
X201762238Y-98057953D01*
X201667000Y-97962715D01*
X201619380Y-97819857D01*
X201619380Y-97724619D01*
X201667000Y-97581762D01*
X201714619Y-97534143D01*
X202619380Y-96581762D02*
X202619380Y-97153191D01*
X202619380Y-96867477D02*
X201619380Y-96867477D01*
X201762238Y-96962715D01*
X201857476Y-97057953D01*
X201905095Y-97153191D01*
D12*
X82100333Y-78080752D02*
X81967000Y-77890276D01*
X81871761Y-78080752D02*
X81871761Y-77680752D01*
X82024142Y-77680752D01*
X82062238Y-77699800D01*
X82081285Y-77718847D01*
X82100333Y-77756942D01*
X82100333Y-77814085D01*
X82081285Y-77852180D01*
X82062238Y-77871228D01*
X82024142Y-77890276D01*
X81871761Y-77890276D01*
X82328904Y-77852180D02*
X82290809Y-77833133D01*
X82271761Y-77814085D01*
X82252714Y-77775990D01*
X82252714Y-77756942D01*
X82271761Y-77718847D01*
X82290809Y-77699800D01*
X82328904Y-77680752D01*
X82405095Y-77680752D01*
X82443190Y-77699800D01*
X82462238Y-77718847D01*
X82481285Y-77756942D01*
X82481285Y-77775990D01*
X82462238Y-77814085D01*
X82443190Y-77833133D01*
X82405095Y-77852180D01*
X82328904Y-77852180D01*
X82290809Y-77871228D01*
X82271761Y-77890276D01*
X82252714Y-77928371D01*
X82252714Y-78004561D01*
X82271761Y-78042657D01*
X82290809Y-78061704D01*
X82328904Y-78080752D01*
X82405095Y-78080752D01*
X82443190Y-78061704D01*
X82462238Y-78042657D01*
X82481285Y-78004561D01*
X82481285Y-77928371D01*
X82462238Y-77890276D01*
X82443190Y-77871228D01*
X82405095Y-77852180D01*
X215834857Y-82505752D02*
X215701523Y-82315276D01*
X215606285Y-82505752D02*
X215606285Y-82105752D01*
X215758666Y-82105752D01*
X215796761Y-82124800D01*
X215815809Y-82143847D01*
X215834857Y-82181942D01*
X215834857Y-82239085D01*
X215815809Y-82277180D01*
X215796761Y-82296228D01*
X215758666Y-82315276D01*
X215606285Y-82315276D01*
X216215809Y-82505752D02*
X215987238Y-82505752D01*
X216101523Y-82505752D02*
X216101523Y-82105752D01*
X216063428Y-82162895D01*
X216025333Y-82200990D01*
X215987238Y-82220038D01*
X216368190Y-82143847D02*
X216387238Y-82124800D01*
X216425333Y-82105752D01*
X216520571Y-82105752D01*
X216558666Y-82124800D01*
X216577714Y-82143847D01*
X216596761Y-82181942D01*
X216596761Y-82220038D01*
X216577714Y-82277180D01*
X216349142Y-82505752D01*
X216596761Y-82505752D01*
X215834857Y-80830752D02*
X215701523Y-80640276D01*
X215606285Y-80830752D02*
X215606285Y-80430752D01*
X215758666Y-80430752D01*
X215796761Y-80449800D01*
X215815809Y-80468847D01*
X215834857Y-80506942D01*
X215834857Y-80564085D01*
X215815809Y-80602180D01*
X215796761Y-80621228D01*
X215758666Y-80640276D01*
X215606285Y-80640276D01*
X216215809Y-80830752D02*
X215987238Y-80830752D01*
X216101523Y-80830752D02*
X216101523Y-80430752D01*
X216063428Y-80487895D01*
X216025333Y-80525990D01*
X215987238Y-80545038D01*
X216349142Y-80430752D02*
X216596761Y-80430752D01*
X216463428Y-80583133D01*
X216520571Y-80583133D01*
X216558666Y-80602180D01*
X216577714Y-80621228D01*
X216596761Y-80659323D01*
X216596761Y-80754561D01*
X216577714Y-80792657D01*
X216558666Y-80811704D01*
X216520571Y-80830752D01*
X216406285Y-80830752D01*
X216368190Y-80811704D01*
X216349142Y-80792657D01*
D11*
X214079980Y-68580517D02*
X213079980Y-68580517D01*
X213556171Y-68580517D02*
X213556171Y-68009089D01*
X214079980Y-68009089D02*
X213079980Y-68009089D01*
X213079980Y-67056708D02*
X213079980Y-67532898D01*
X213556171Y-67580517D01*
X213508552Y-67532898D01*
X213460933Y-67437660D01*
X213460933Y-67199565D01*
X213508552Y-67104327D01*
X213556171Y-67056708D01*
X213651409Y-67009089D01*
X213889504Y-67009089D01*
X213984742Y-67056708D01*
X214032361Y-67104327D01*
X214079980Y-67199565D01*
X214079980Y-67437660D01*
X214032361Y-67532898D01*
X213984742Y-67580517D01*
X200732580Y-67723527D02*
X199732580Y-67723527D01*
X200446866Y-67390193D01*
X199732580Y-67056860D01*
X200732580Y-67056860D01*
X200732580Y-66437813D02*
X200684961Y-66533051D01*
X200637342Y-66580670D01*
X200542104Y-66628289D01*
X200256390Y-66628289D01*
X200161152Y-66580670D01*
X200113533Y-66533051D01*
X200065914Y-66437813D01*
X200065914Y-66294955D01*
X200113533Y-66199717D01*
X200161152Y-66152098D01*
X200256390Y-66104479D01*
X200542104Y-66104479D01*
X200637342Y-66152098D01*
X200684961Y-66199717D01*
X200732580Y-66294955D01*
X200732580Y-66437813D01*
X200065914Y-65247336D02*
X200732580Y-65247336D01*
X200065914Y-65675908D02*
X200589723Y-65675908D01*
X200684961Y-65628289D01*
X200732580Y-65533051D01*
X200732580Y-65390193D01*
X200684961Y-65294955D01*
X200637342Y-65247336D01*
X200065914Y-64771146D02*
X200732580Y-64771146D01*
X200161152Y-64771146D02*
X200113533Y-64723527D01*
X200065914Y-64628289D01*
X200065914Y-64485432D01*
X200113533Y-64390193D01*
X200208771Y-64342574D01*
X200732580Y-64342574D01*
X200065914Y-64009241D02*
X200065914Y-63628289D01*
X199732580Y-63866384D02*
X200589723Y-63866384D01*
X200684961Y-63818765D01*
X200732580Y-63723527D01*
X200732580Y-63628289D01*
X200732580Y-63294955D02*
X200065914Y-63294955D01*
X199732580Y-63294955D02*
X199780200Y-63342574D01*
X199827819Y-63294955D01*
X199780200Y-63247336D01*
X199732580Y-63294955D01*
X199827819Y-63294955D01*
X200065914Y-62818765D02*
X200732580Y-62818765D01*
X200161152Y-62818765D02*
X200113533Y-62771146D01*
X200065914Y-62675908D01*
X200065914Y-62533051D01*
X200113533Y-62437813D01*
X200208771Y-62390193D01*
X200732580Y-62390193D01*
X200065914Y-61485432D02*
X200875438Y-61485432D01*
X200970676Y-61533051D01*
X201018295Y-61580670D01*
X201065914Y-61675908D01*
X201065914Y-61818765D01*
X201018295Y-61914003D01*
X200684961Y-61485432D02*
X200732580Y-61580670D01*
X200732580Y-61771146D01*
X200684961Y-61866384D01*
X200637342Y-61914003D01*
X200542104Y-61961622D01*
X200256390Y-61961622D01*
X200161152Y-61914003D01*
X200113533Y-61866384D01*
X200065914Y-61771146D01*
X200065914Y-61580670D01*
X200113533Y-61485432D01*
X200732580Y-61009241D02*
X199732580Y-61009241D01*
X200208771Y-61009241D02*
X200208771Y-60437813D01*
X200732580Y-60437813D02*
X199732580Y-60437813D01*
X200732580Y-59818765D02*
X200684961Y-59914003D01*
X200637342Y-59961622D01*
X200542104Y-60009241D01*
X200256390Y-60009241D01*
X200161152Y-59961622D01*
X200113533Y-59914003D01*
X200065914Y-59818765D01*
X200065914Y-59675908D01*
X200113533Y-59580670D01*
X200161152Y-59533051D01*
X200256390Y-59485432D01*
X200542104Y-59485432D01*
X200637342Y-59533051D01*
X200684961Y-59580670D01*
X200732580Y-59675908D01*
X200732580Y-59818765D01*
X200732580Y-58914003D02*
X200684961Y-59009241D01*
X200589723Y-59056860D01*
X199732580Y-59056860D01*
X200684961Y-58152098D02*
X200732580Y-58247336D01*
X200732580Y-58437813D01*
X200684961Y-58533051D01*
X200589723Y-58580670D01*
X200208771Y-58580670D01*
X200113533Y-58533051D01*
X200065914Y-58437813D01*
X200065914Y-58247336D01*
X200113533Y-58152098D01*
X200208771Y-58104479D01*
X200304009Y-58104479D01*
X200399247Y-58580670D01*
X207443095Y-64101393D02*
X207443095Y-63101393D01*
X207443095Y-63577584D02*
X208014523Y-63577584D01*
X208014523Y-64101393D02*
X208014523Y-63101393D01*
X208966904Y-63101393D02*
X208490714Y-63101393D01*
X208443095Y-63577584D01*
X208490714Y-63529965D01*
X208585952Y-63482346D01*
X208824047Y-63482346D01*
X208919285Y-63529965D01*
X208966904Y-63577584D01*
X209014523Y-63672822D01*
X209014523Y-63910917D01*
X208966904Y-64006155D01*
X208919285Y-64053774D01*
X208824047Y-64101393D01*
X208585952Y-64101393D01*
X208490714Y-64053774D01*
X208443095Y-64006155D01*
X172857476Y-111682180D02*
X173476523Y-111682180D01*
X173143190Y-112063133D01*
X173286047Y-112063133D01*
X173381285Y-112110752D01*
X173428904Y-112158371D01*
X173476523Y-112253609D01*
X173476523Y-112491704D01*
X173428904Y-112586942D01*
X173381285Y-112634561D01*
X173286047Y-112682180D01*
X173000333Y-112682180D01*
X172905095Y-112634561D01*
X172857476Y-112586942D01*
X173809857Y-111682180D02*
X174428904Y-111682180D01*
X174095571Y-112063133D01*
X174238428Y-112063133D01*
X174333666Y-112110752D01*
X174381285Y-112158371D01*
X174428904Y-112253609D01*
X174428904Y-112491704D01*
X174381285Y-112586942D01*
X174333666Y-112634561D01*
X174238428Y-112682180D01*
X173952714Y-112682180D01*
X173857476Y-112634561D01*
X173809857Y-112586942D01*
D12*
X173409857Y-110980752D02*
X173276523Y-110790276D01*
X173181285Y-110980752D02*
X173181285Y-110580752D01*
X173333666Y-110580752D01*
X173371761Y-110599800D01*
X173390809Y-110618847D01*
X173409857Y-110656942D01*
X173409857Y-110714085D01*
X173390809Y-110752180D01*
X173371761Y-110771228D01*
X173333666Y-110790276D01*
X173181285Y-110790276D01*
X173543190Y-110580752D02*
X173790809Y-110580752D01*
X173657476Y-110733133D01*
X173714619Y-110733133D01*
X173752714Y-110752180D01*
X173771761Y-110771228D01*
X173790809Y-110809323D01*
X173790809Y-110904561D01*
X173771761Y-110942657D01*
X173752714Y-110961704D01*
X173714619Y-110980752D01*
X173600333Y-110980752D01*
X173562238Y-110961704D01*
X173543190Y-110942657D01*
X174171761Y-110980752D02*
X173943190Y-110980752D01*
X174057476Y-110980752D02*
X174057476Y-110580752D01*
X174019380Y-110637895D01*
X173981285Y-110675990D01*
X173943190Y-110695038D01*
D11*
X122682476Y-108872180D02*
X123301523Y-108872180D01*
X122968190Y-109253133D01*
X123111047Y-109253133D01*
X123206285Y-109300752D01*
X123253904Y-109348371D01*
X123301523Y-109443609D01*
X123301523Y-109681704D01*
X123253904Y-109776942D01*
X123206285Y-109824561D01*
X123111047Y-109872180D01*
X122825333Y-109872180D01*
X122730095Y-109824561D01*
X122682476Y-109776942D01*
X123634857Y-108872180D02*
X124253904Y-108872180D01*
X123920571Y-109253133D01*
X124063428Y-109253133D01*
X124158666Y-109300752D01*
X124206285Y-109348371D01*
X124253904Y-109443609D01*
X124253904Y-109681704D01*
X124206285Y-109776942D01*
X124158666Y-109824561D01*
X124063428Y-109872180D01*
X123777714Y-109872180D01*
X123682476Y-109824561D01*
X123634857Y-109776942D01*
D12*
X123234857Y-111030752D02*
X123101523Y-110840276D01*
X123006285Y-111030752D02*
X123006285Y-110630752D01*
X123158666Y-110630752D01*
X123196761Y-110649800D01*
X123215809Y-110668847D01*
X123234857Y-110706942D01*
X123234857Y-110764085D01*
X123215809Y-110802180D01*
X123196761Y-110821228D01*
X123158666Y-110840276D01*
X123006285Y-110840276D01*
X123387238Y-110668847D02*
X123406285Y-110649800D01*
X123444380Y-110630752D01*
X123539619Y-110630752D01*
X123577714Y-110649800D01*
X123596761Y-110668847D01*
X123615809Y-110706942D01*
X123615809Y-110745038D01*
X123596761Y-110802180D01*
X123368190Y-111030752D01*
X123615809Y-111030752D01*
X123768190Y-110668847D02*
X123787238Y-110649800D01*
X123825333Y-110630752D01*
X123920571Y-110630752D01*
X123958666Y-110649800D01*
X123977714Y-110668847D01*
X123996761Y-110706942D01*
X123996761Y-110745038D01*
X123977714Y-110802180D01*
X123749142Y-111030752D01*
X123996761Y-111030752D01*
D11*
X130557476Y-111732180D02*
X131176523Y-111732180D01*
X130843190Y-112113133D01*
X130986047Y-112113133D01*
X131081285Y-112160752D01*
X131128904Y-112208371D01*
X131176523Y-112303609D01*
X131176523Y-112541704D01*
X131128904Y-112636942D01*
X131081285Y-112684561D01*
X130986047Y-112732180D01*
X130700333Y-112732180D01*
X130605095Y-112684561D01*
X130557476Y-112636942D01*
X131509857Y-111732180D02*
X132128904Y-111732180D01*
X131795571Y-112113133D01*
X131938428Y-112113133D01*
X132033666Y-112160752D01*
X132081285Y-112208371D01*
X132128904Y-112303609D01*
X132128904Y-112541704D01*
X132081285Y-112636942D01*
X132033666Y-112684561D01*
X131938428Y-112732180D01*
X131652714Y-112732180D01*
X131557476Y-112684561D01*
X131509857Y-112636942D01*
D12*
X131109857Y-111030752D02*
X130976523Y-110840276D01*
X130881285Y-111030752D02*
X130881285Y-110630752D01*
X131033666Y-110630752D01*
X131071761Y-110649800D01*
X131090809Y-110668847D01*
X131109857Y-110706942D01*
X131109857Y-110764085D01*
X131090809Y-110802180D01*
X131071761Y-110821228D01*
X131033666Y-110840276D01*
X130881285Y-110840276D01*
X131262238Y-110668847D02*
X131281285Y-110649800D01*
X131319380Y-110630752D01*
X131414619Y-110630752D01*
X131452714Y-110649800D01*
X131471761Y-110668847D01*
X131490809Y-110706942D01*
X131490809Y-110745038D01*
X131471761Y-110802180D01*
X131243190Y-111030752D01*
X131490809Y-111030752D01*
X131738428Y-110630752D02*
X131776523Y-110630752D01*
X131814619Y-110649800D01*
X131833666Y-110668847D01*
X131852714Y-110706942D01*
X131871761Y-110783133D01*
X131871761Y-110878371D01*
X131852714Y-110954561D01*
X131833666Y-110992657D01*
X131814619Y-111011704D01*
X131776523Y-111030752D01*
X131738428Y-111030752D01*
X131700333Y-111011704D01*
X131681285Y-110992657D01*
X131662238Y-110954561D01*
X131643190Y-110878371D01*
X131643190Y-110783133D01*
X131662238Y-110706942D01*
X131681285Y-110668847D01*
X131700333Y-110649800D01*
X131738428Y-110630752D01*
D11*
X97257476Y-108872180D02*
X97876523Y-108872180D01*
X97543190Y-109253133D01*
X97686047Y-109253133D01*
X97781285Y-109300752D01*
X97828904Y-109348371D01*
X97876523Y-109443609D01*
X97876523Y-109681704D01*
X97828904Y-109776942D01*
X97781285Y-109824561D01*
X97686047Y-109872180D01*
X97400333Y-109872180D01*
X97305095Y-109824561D01*
X97257476Y-109776942D01*
X98209857Y-108872180D02*
X98828904Y-108872180D01*
X98495571Y-109253133D01*
X98638428Y-109253133D01*
X98733666Y-109300752D01*
X98781285Y-109348371D01*
X98828904Y-109443609D01*
X98828904Y-109681704D01*
X98781285Y-109776942D01*
X98733666Y-109824561D01*
X98638428Y-109872180D01*
X98352714Y-109872180D01*
X98257476Y-109824561D01*
X98209857Y-109776942D01*
D12*
X97809857Y-111030752D02*
X97676523Y-110840276D01*
X97581285Y-111030752D02*
X97581285Y-110630752D01*
X97733666Y-110630752D01*
X97771761Y-110649800D01*
X97790809Y-110668847D01*
X97809857Y-110706942D01*
X97809857Y-110764085D01*
X97790809Y-110802180D01*
X97771761Y-110821228D01*
X97733666Y-110840276D01*
X97581285Y-110840276D01*
X97962238Y-110668847D02*
X97981285Y-110649800D01*
X98019380Y-110630752D01*
X98114619Y-110630752D01*
X98152714Y-110649800D01*
X98171761Y-110668847D01*
X98190809Y-110706942D01*
X98190809Y-110745038D01*
X98171761Y-110802180D01*
X97943190Y-111030752D01*
X98190809Y-111030752D01*
X98533666Y-110630752D02*
X98457476Y-110630752D01*
X98419380Y-110649800D01*
X98400333Y-110668847D01*
X98362238Y-110725990D01*
X98343190Y-110802180D01*
X98343190Y-110954561D01*
X98362238Y-110992657D01*
X98381285Y-111011704D01*
X98419380Y-111030752D01*
X98495571Y-111030752D01*
X98533666Y-111011704D01*
X98552714Y-110992657D01*
X98571761Y-110954561D01*
X98571761Y-110859323D01*
X98552714Y-110821228D01*
X98533666Y-110802180D01*
X98495571Y-110783133D01*
X98419380Y-110783133D01*
X98381285Y-110802180D01*
X98362238Y-110821228D01*
X98343190Y-110859323D01*
D11*
X103632476Y-108872180D02*
X104251523Y-108872180D01*
X103918190Y-109253133D01*
X104061047Y-109253133D01*
X104156285Y-109300752D01*
X104203904Y-109348371D01*
X104251523Y-109443609D01*
X104251523Y-109681704D01*
X104203904Y-109776942D01*
X104156285Y-109824561D01*
X104061047Y-109872180D01*
X103775333Y-109872180D01*
X103680095Y-109824561D01*
X103632476Y-109776942D01*
X104584857Y-108872180D02*
X105203904Y-108872180D01*
X104870571Y-109253133D01*
X105013428Y-109253133D01*
X105108666Y-109300752D01*
X105156285Y-109348371D01*
X105203904Y-109443609D01*
X105203904Y-109681704D01*
X105156285Y-109776942D01*
X105108666Y-109824561D01*
X105013428Y-109872180D01*
X104727714Y-109872180D01*
X104632476Y-109824561D01*
X104584857Y-109776942D01*
D12*
X104184857Y-111030752D02*
X104051523Y-110840276D01*
X103956285Y-111030752D02*
X103956285Y-110630752D01*
X104108666Y-110630752D01*
X104146761Y-110649800D01*
X104165809Y-110668847D01*
X104184857Y-110706942D01*
X104184857Y-110764085D01*
X104165809Y-110802180D01*
X104146761Y-110821228D01*
X104108666Y-110840276D01*
X103956285Y-110840276D01*
X104337238Y-110668847D02*
X104356285Y-110649800D01*
X104394380Y-110630752D01*
X104489619Y-110630752D01*
X104527714Y-110649800D01*
X104546761Y-110668847D01*
X104565809Y-110706942D01*
X104565809Y-110745038D01*
X104546761Y-110802180D01*
X104318190Y-111030752D01*
X104565809Y-111030752D01*
X104927714Y-110630752D02*
X104737238Y-110630752D01*
X104718190Y-110821228D01*
X104737238Y-110802180D01*
X104775333Y-110783133D01*
X104870571Y-110783133D01*
X104908666Y-110802180D01*
X104927714Y-110821228D01*
X104946761Y-110859323D01*
X104946761Y-110954561D01*
X104927714Y-110992657D01*
X104908666Y-111011704D01*
X104870571Y-111030752D01*
X104775333Y-111030752D01*
X104737238Y-111011704D01*
X104718190Y-110992657D01*
D11*
X195924142Y-110152180D02*
X195924142Y-109152180D01*
X196162238Y-109152180D01*
X196305095Y-109199800D01*
X196400333Y-109295038D01*
X196447952Y-109390276D01*
X196495571Y-109580752D01*
X196495571Y-109723609D01*
X196447952Y-109914085D01*
X196400333Y-110009323D01*
X196305095Y-110104561D01*
X196162238Y-110152180D01*
X195924142Y-110152180D01*
X196924142Y-110152180D02*
X196924142Y-109152180D01*
X197257476Y-109866466D01*
X197590809Y-109152180D01*
X197590809Y-110152180D01*
X198067000Y-110152180D02*
X198067000Y-109152180D01*
X198447952Y-109152180D01*
X198543190Y-109199800D01*
X198590809Y-109247419D01*
X198638428Y-109342657D01*
X198638428Y-109485514D01*
X198590809Y-109580752D01*
X198543190Y-109628371D01*
X198447952Y-109675990D01*
X198067000Y-109675990D01*
X198971761Y-109152180D02*
X199590809Y-109152180D01*
X199257476Y-109533133D01*
X199400333Y-109533133D01*
X199495571Y-109580752D01*
X199543190Y-109628371D01*
X199590809Y-109723609D01*
X199590809Y-109961704D01*
X199543190Y-110056942D01*
X199495571Y-110104561D01*
X199400333Y-110152180D01*
X199114619Y-110152180D01*
X199019380Y-110104561D01*
X198971761Y-110056942D01*
X200209857Y-109152180D02*
X200305095Y-109152180D01*
X200400333Y-109199800D01*
X200447952Y-109247419D01*
X200495571Y-109342657D01*
X200543190Y-109533133D01*
X200543190Y-109771228D01*
X200495571Y-109961704D01*
X200447952Y-110056942D01*
X200400333Y-110104561D01*
X200305095Y-110152180D01*
X200209857Y-110152180D01*
X200114619Y-110104561D01*
X200067000Y-110056942D01*
X200019380Y-109961704D01*
X199971761Y-109771228D01*
X199971761Y-109533133D01*
X200019380Y-109342657D01*
X200067000Y-109247419D01*
X200114619Y-109199800D01*
X200209857Y-109152180D01*
X201447952Y-109152180D02*
X200971761Y-109152180D01*
X200924142Y-109628371D01*
X200971761Y-109580752D01*
X201067000Y-109533133D01*
X201305095Y-109533133D01*
X201400333Y-109580752D01*
X201447952Y-109628371D01*
X201495571Y-109723609D01*
X201495571Y-109961704D01*
X201447952Y-110056942D01*
X201400333Y-110104561D01*
X201305095Y-110152180D01*
X201067000Y-110152180D01*
X200971761Y-110104561D01*
X200924142Y-110056942D01*
X202352714Y-109152180D02*
X202162238Y-109152180D01*
X202067000Y-109199800D01*
X202019380Y-109247419D01*
X201924142Y-109390276D01*
X201876523Y-109580752D01*
X201876523Y-109961704D01*
X201924142Y-110056942D01*
X201971761Y-110104561D01*
X202067000Y-110152180D01*
X202257476Y-110152180D01*
X202352714Y-110104561D01*
X202400333Y-110056942D01*
X202447952Y-109961704D01*
X202447952Y-109723609D01*
X202400333Y-109628371D01*
X202352714Y-109580752D01*
X202257476Y-109533133D01*
X202067000Y-109533133D01*
X201971761Y-109580752D01*
X201924142Y-109628371D01*
X201876523Y-109723609D01*
X203352714Y-110152180D02*
X202876523Y-110152180D01*
X202876523Y-109152180D01*
D14*
X205992238Y-110230276D02*
X205977000Y-110260752D01*
X205946523Y-110291228D01*
X205900809Y-110336942D01*
X205885571Y-110367419D01*
X205885571Y-110397895D01*
X205961761Y-110382657D02*
X205946523Y-110413133D01*
X205916047Y-110443609D01*
X205855095Y-110458847D01*
X205748428Y-110458847D01*
X205687476Y-110443609D01*
X205657000Y-110413133D01*
X205641761Y-110382657D01*
X205641761Y-110321704D01*
X205657000Y-110291228D01*
X205687476Y-110260752D01*
X205748428Y-110245514D01*
X205855095Y-110245514D01*
X205916047Y-110260752D01*
X205946523Y-110291228D01*
X205961761Y-110321704D01*
X205961761Y-110382657D01*
X205961761Y-109940752D02*
X205961761Y-110123609D01*
X205961761Y-110032180D02*
X205641761Y-110032180D01*
X205687476Y-110062657D01*
X205717952Y-110093133D01*
X205733190Y-110123609D01*
D11*
X117557476Y-108872180D02*
X118176523Y-108872180D01*
X117843190Y-109253133D01*
X117986047Y-109253133D01*
X118081285Y-109300752D01*
X118128904Y-109348371D01*
X118176523Y-109443609D01*
X118176523Y-109681704D01*
X118128904Y-109776942D01*
X118081285Y-109824561D01*
X117986047Y-109872180D01*
X117700333Y-109872180D01*
X117605095Y-109824561D01*
X117557476Y-109776942D01*
X118509857Y-108872180D02*
X119128904Y-108872180D01*
X118795571Y-109253133D01*
X118938428Y-109253133D01*
X119033666Y-109300752D01*
X119081285Y-109348371D01*
X119128904Y-109443609D01*
X119128904Y-109681704D01*
X119081285Y-109776942D01*
X119033666Y-109824561D01*
X118938428Y-109872180D01*
X118652714Y-109872180D01*
X118557476Y-109824561D01*
X118509857Y-109776942D01*
D12*
X118109857Y-111030752D02*
X117976523Y-110840276D01*
X117881285Y-111030752D02*
X117881285Y-110630752D01*
X118033666Y-110630752D01*
X118071761Y-110649800D01*
X118090809Y-110668847D01*
X118109857Y-110706942D01*
X118109857Y-110764085D01*
X118090809Y-110802180D01*
X118071761Y-110821228D01*
X118033666Y-110840276D01*
X117881285Y-110840276D01*
X118262238Y-110668847D02*
X118281285Y-110649800D01*
X118319380Y-110630752D01*
X118414619Y-110630752D01*
X118452714Y-110649800D01*
X118471761Y-110668847D01*
X118490809Y-110706942D01*
X118490809Y-110745038D01*
X118471761Y-110802180D01*
X118243190Y-111030752D01*
X118490809Y-111030752D01*
X118624142Y-110630752D02*
X118871761Y-110630752D01*
X118738428Y-110783133D01*
X118795571Y-110783133D01*
X118833666Y-110802180D01*
X118852714Y-110821228D01*
X118871761Y-110859323D01*
X118871761Y-110954561D01*
X118852714Y-110992657D01*
X118833666Y-111011704D01*
X118795571Y-111030752D01*
X118681285Y-111030752D01*
X118643190Y-111011704D01*
X118624142Y-110992657D01*
D11*
X159807476Y-108922180D02*
X160426523Y-108922180D01*
X160093190Y-109303133D01*
X160236047Y-109303133D01*
X160331285Y-109350752D01*
X160378904Y-109398371D01*
X160426523Y-109493609D01*
X160426523Y-109731704D01*
X160378904Y-109826942D01*
X160331285Y-109874561D01*
X160236047Y-109922180D01*
X159950333Y-109922180D01*
X159855095Y-109874561D01*
X159807476Y-109826942D01*
X160759857Y-108922180D02*
X161378904Y-108922180D01*
X161045571Y-109303133D01*
X161188428Y-109303133D01*
X161283666Y-109350752D01*
X161331285Y-109398371D01*
X161378904Y-109493609D01*
X161378904Y-109731704D01*
X161331285Y-109826942D01*
X161283666Y-109874561D01*
X161188428Y-109922180D01*
X160902714Y-109922180D01*
X160807476Y-109874561D01*
X160759857Y-109826942D01*
D12*
X160359857Y-111080752D02*
X160226523Y-110890276D01*
X160131285Y-111080752D02*
X160131285Y-110680752D01*
X160283666Y-110680752D01*
X160321761Y-110699800D01*
X160340809Y-110718847D01*
X160359857Y-110756942D01*
X160359857Y-110814085D01*
X160340809Y-110852180D01*
X160321761Y-110871228D01*
X160283666Y-110890276D01*
X160131285Y-110890276D01*
X160493190Y-110680752D02*
X160740809Y-110680752D01*
X160607476Y-110833133D01*
X160664619Y-110833133D01*
X160702714Y-110852180D01*
X160721761Y-110871228D01*
X160740809Y-110909323D01*
X160740809Y-111004561D01*
X160721761Y-111042657D01*
X160702714Y-111061704D01*
X160664619Y-111080752D01*
X160550333Y-111080752D01*
X160512238Y-111061704D01*
X160493190Y-111042657D01*
X160874142Y-110680752D02*
X161121761Y-110680752D01*
X160988428Y-110833133D01*
X161045571Y-110833133D01*
X161083666Y-110852180D01*
X161102714Y-110871228D01*
X161121761Y-110909323D01*
X161121761Y-111004561D01*
X161102714Y-111042657D01*
X161083666Y-111061704D01*
X161045571Y-111080752D01*
X160931285Y-111080752D01*
X160893190Y-111061704D01*
X160874142Y-111042657D01*
D11*
X134157476Y-111732180D02*
X134776523Y-111732180D01*
X134443190Y-112113133D01*
X134586047Y-112113133D01*
X134681285Y-112160752D01*
X134728904Y-112208371D01*
X134776523Y-112303609D01*
X134776523Y-112541704D01*
X134728904Y-112636942D01*
X134681285Y-112684561D01*
X134586047Y-112732180D01*
X134300333Y-112732180D01*
X134205095Y-112684561D01*
X134157476Y-112636942D01*
X135109857Y-111732180D02*
X135728904Y-111732180D01*
X135395571Y-112113133D01*
X135538428Y-112113133D01*
X135633666Y-112160752D01*
X135681285Y-112208371D01*
X135728904Y-112303609D01*
X135728904Y-112541704D01*
X135681285Y-112636942D01*
X135633666Y-112684561D01*
X135538428Y-112732180D01*
X135252714Y-112732180D01*
X135157476Y-112684561D01*
X135109857Y-112636942D01*
D12*
X134709857Y-111030752D02*
X134576523Y-110840276D01*
X134481285Y-111030752D02*
X134481285Y-110630752D01*
X134633666Y-110630752D01*
X134671761Y-110649800D01*
X134690809Y-110668847D01*
X134709857Y-110706942D01*
X134709857Y-110764085D01*
X134690809Y-110802180D01*
X134671761Y-110821228D01*
X134633666Y-110840276D01*
X134481285Y-110840276D01*
X135090809Y-111030752D02*
X134862238Y-111030752D01*
X134976523Y-111030752D02*
X134976523Y-110630752D01*
X134938428Y-110687895D01*
X134900333Y-110725990D01*
X134862238Y-110745038D01*
X135281285Y-111030752D02*
X135357476Y-111030752D01*
X135395571Y-111011704D01*
X135414619Y-110992657D01*
X135452714Y-110935514D01*
X135471761Y-110859323D01*
X135471761Y-110706942D01*
X135452714Y-110668847D01*
X135433666Y-110649800D01*
X135395571Y-110630752D01*
X135319380Y-110630752D01*
X135281285Y-110649800D01*
X135262238Y-110668847D01*
X135243190Y-110706942D01*
X135243190Y-110802180D01*
X135262238Y-110840276D01*
X135281285Y-110859323D01*
X135319380Y-110878371D01*
X135395571Y-110878371D01*
X135433666Y-110859323D01*
X135452714Y-110840276D01*
X135471761Y-110802180D01*
D11*
X155407476Y-108922180D02*
X156026523Y-108922180D01*
X155693190Y-109303133D01*
X155836047Y-109303133D01*
X155931285Y-109350752D01*
X155978904Y-109398371D01*
X156026523Y-109493609D01*
X156026523Y-109731704D01*
X155978904Y-109826942D01*
X155931285Y-109874561D01*
X155836047Y-109922180D01*
X155550333Y-109922180D01*
X155455095Y-109874561D01*
X155407476Y-109826942D01*
X156359857Y-108922180D02*
X156978904Y-108922180D01*
X156645571Y-109303133D01*
X156788428Y-109303133D01*
X156883666Y-109350752D01*
X156931285Y-109398371D01*
X156978904Y-109493609D01*
X156978904Y-109731704D01*
X156931285Y-109826942D01*
X156883666Y-109874561D01*
X156788428Y-109922180D01*
X156502714Y-109922180D01*
X156407476Y-109874561D01*
X156359857Y-109826942D01*
D12*
X155959857Y-111080752D02*
X155826523Y-110890276D01*
X155731285Y-111080752D02*
X155731285Y-110680752D01*
X155883666Y-110680752D01*
X155921761Y-110699800D01*
X155940809Y-110718847D01*
X155959857Y-110756942D01*
X155959857Y-110814085D01*
X155940809Y-110852180D01*
X155921761Y-110871228D01*
X155883666Y-110890276D01*
X155731285Y-110890276D01*
X156093190Y-110680752D02*
X156340809Y-110680752D01*
X156207476Y-110833133D01*
X156264619Y-110833133D01*
X156302714Y-110852180D01*
X156321761Y-110871228D01*
X156340809Y-110909323D01*
X156340809Y-111004561D01*
X156321761Y-111042657D01*
X156302714Y-111061704D01*
X156264619Y-111080752D01*
X156150333Y-111080752D01*
X156112238Y-111061704D01*
X156093190Y-111042657D01*
X156683666Y-110814085D02*
X156683666Y-111080752D01*
X156588428Y-110661704D02*
X156493190Y-110947419D01*
X156740809Y-110947419D01*
D11*
X110407476Y-108872180D02*
X111026523Y-108872180D01*
X110693190Y-109253133D01*
X110836047Y-109253133D01*
X110931285Y-109300752D01*
X110978904Y-109348371D01*
X111026523Y-109443609D01*
X111026523Y-109681704D01*
X110978904Y-109776942D01*
X110931285Y-109824561D01*
X110836047Y-109872180D01*
X110550333Y-109872180D01*
X110455095Y-109824561D01*
X110407476Y-109776942D01*
X111359857Y-108872180D02*
X111978904Y-108872180D01*
X111645571Y-109253133D01*
X111788428Y-109253133D01*
X111883666Y-109300752D01*
X111931285Y-109348371D01*
X111978904Y-109443609D01*
X111978904Y-109681704D01*
X111931285Y-109776942D01*
X111883666Y-109824561D01*
X111788428Y-109872180D01*
X111502714Y-109872180D01*
X111407476Y-109824561D01*
X111359857Y-109776942D01*
D12*
X110959857Y-111030752D02*
X110826523Y-110840276D01*
X110731285Y-111030752D02*
X110731285Y-110630752D01*
X110883666Y-110630752D01*
X110921761Y-110649800D01*
X110940809Y-110668847D01*
X110959857Y-110706942D01*
X110959857Y-110764085D01*
X110940809Y-110802180D01*
X110921761Y-110821228D01*
X110883666Y-110840276D01*
X110731285Y-110840276D01*
X111112238Y-110668847D02*
X111131285Y-110649800D01*
X111169380Y-110630752D01*
X111264619Y-110630752D01*
X111302714Y-110649800D01*
X111321761Y-110668847D01*
X111340809Y-110706942D01*
X111340809Y-110745038D01*
X111321761Y-110802180D01*
X111093190Y-111030752D01*
X111340809Y-111030752D01*
X111683666Y-110764085D02*
X111683666Y-111030752D01*
X111588428Y-110611704D02*
X111493190Y-110897419D01*
X111740809Y-110897419D01*
D11*
X163257476Y-111782180D02*
X163876523Y-111782180D01*
X163543190Y-112163133D01*
X163686047Y-112163133D01*
X163781285Y-112210752D01*
X163828904Y-112258371D01*
X163876523Y-112353609D01*
X163876523Y-112591704D01*
X163828904Y-112686942D01*
X163781285Y-112734561D01*
X163686047Y-112782180D01*
X163400333Y-112782180D01*
X163305095Y-112734561D01*
X163257476Y-112686942D01*
X164209857Y-111782180D02*
X164828904Y-111782180D01*
X164495571Y-112163133D01*
X164638428Y-112163133D01*
X164733666Y-112210752D01*
X164781285Y-112258371D01*
X164828904Y-112353609D01*
X164828904Y-112591704D01*
X164781285Y-112686942D01*
X164733666Y-112734561D01*
X164638428Y-112782180D01*
X164352714Y-112782180D01*
X164257476Y-112734561D01*
X164209857Y-112686942D01*
D12*
X163809857Y-111080752D02*
X163676523Y-110890276D01*
X163581285Y-111080752D02*
X163581285Y-110680752D01*
X163733666Y-110680752D01*
X163771761Y-110699800D01*
X163790809Y-110718847D01*
X163809857Y-110756942D01*
X163809857Y-110814085D01*
X163790809Y-110852180D01*
X163771761Y-110871228D01*
X163733666Y-110890276D01*
X163581285Y-110890276D01*
X163943190Y-110680752D02*
X164190809Y-110680752D01*
X164057476Y-110833133D01*
X164114619Y-110833133D01*
X164152714Y-110852180D01*
X164171761Y-110871228D01*
X164190809Y-110909323D01*
X164190809Y-111004561D01*
X164171761Y-111042657D01*
X164152714Y-111061704D01*
X164114619Y-111080752D01*
X164000333Y-111080752D01*
X163962238Y-111061704D01*
X163943190Y-111042657D01*
X164343190Y-110718847D02*
X164362238Y-110699800D01*
X164400333Y-110680752D01*
X164495571Y-110680752D01*
X164533666Y-110699800D01*
X164552714Y-110718847D01*
X164571761Y-110756942D01*
X164571761Y-110795038D01*
X164552714Y-110852180D01*
X164324142Y-111080752D01*
X164571761Y-111080752D01*
D11*
X193057476Y-111682180D02*
X193676523Y-111682180D01*
X193343190Y-112063133D01*
X193486047Y-112063133D01*
X193581285Y-112110752D01*
X193628904Y-112158371D01*
X193676523Y-112253609D01*
X193676523Y-112491704D01*
X193628904Y-112586942D01*
X193581285Y-112634561D01*
X193486047Y-112682180D01*
X193200333Y-112682180D01*
X193105095Y-112634561D01*
X193057476Y-112586942D01*
X194009857Y-111682180D02*
X194628904Y-111682180D01*
X194295571Y-112063133D01*
X194438428Y-112063133D01*
X194533666Y-112110752D01*
X194581285Y-112158371D01*
X194628904Y-112253609D01*
X194628904Y-112491704D01*
X194581285Y-112586942D01*
X194533666Y-112634561D01*
X194438428Y-112682180D01*
X194152714Y-112682180D01*
X194057476Y-112634561D01*
X194009857Y-112586942D01*
D12*
X193609857Y-110980752D02*
X193476523Y-110790276D01*
X193381285Y-110980752D02*
X193381285Y-110580752D01*
X193533666Y-110580752D01*
X193571761Y-110599800D01*
X193590809Y-110618847D01*
X193609857Y-110656942D01*
X193609857Y-110714085D01*
X193590809Y-110752180D01*
X193571761Y-110771228D01*
X193533666Y-110790276D01*
X193381285Y-110790276D01*
X193762238Y-110618847D02*
X193781285Y-110599800D01*
X193819380Y-110580752D01*
X193914619Y-110580752D01*
X193952714Y-110599800D01*
X193971761Y-110618847D01*
X193990809Y-110656942D01*
X193990809Y-110695038D01*
X193971761Y-110752180D01*
X193743190Y-110980752D01*
X193990809Y-110980752D01*
X194124142Y-110580752D02*
X194390809Y-110580752D01*
X194219380Y-110980752D01*
X208997952Y-106406942D02*
X208807476Y-106540276D01*
X208997952Y-106635514D02*
X208597952Y-106635514D01*
X208597952Y-106483133D01*
X208617000Y-106445038D01*
X208636047Y-106425990D01*
X208674142Y-106406942D01*
X208731285Y-106406942D01*
X208769380Y-106425990D01*
X208788428Y-106445038D01*
X208807476Y-106483133D01*
X208807476Y-106635514D01*
X208997952Y-106025990D02*
X208997952Y-106254561D01*
X208997952Y-106140276D02*
X208597952Y-106140276D01*
X208655095Y-106178371D01*
X208693190Y-106216466D01*
X208712238Y-106254561D01*
X208731285Y-105683133D02*
X208997952Y-105683133D01*
X208578904Y-105778371D02*
X208864619Y-105873609D01*
X208864619Y-105625990D01*
D11*
X189507476Y-111682180D02*
X190126523Y-111682180D01*
X189793190Y-112063133D01*
X189936047Y-112063133D01*
X190031285Y-112110752D01*
X190078904Y-112158371D01*
X190126523Y-112253609D01*
X190126523Y-112491704D01*
X190078904Y-112586942D01*
X190031285Y-112634561D01*
X189936047Y-112682180D01*
X189650333Y-112682180D01*
X189555095Y-112634561D01*
X189507476Y-112586942D01*
X190459857Y-111682180D02*
X191078904Y-111682180D01*
X190745571Y-112063133D01*
X190888428Y-112063133D01*
X190983666Y-112110752D01*
X191031285Y-112158371D01*
X191078904Y-112253609D01*
X191078904Y-112491704D01*
X191031285Y-112586942D01*
X190983666Y-112634561D01*
X190888428Y-112682180D01*
X190602714Y-112682180D01*
X190507476Y-112634561D01*
X190459857Y-112586942D01*
D12*
X190059857Y-110980752D02*
X189926523Y-110790276D01*
X189831285Y-110980752D02*
X189831285Y-110580752D01*
X189983666Y-110580752D01*
X190021761Y-110599800D01*
X190040809Y-110618847D01*
X190059857Y-110656942D01*
X190059857Y-110714085D01*
X190040809Y-110752180D01*
X190021761Y-110771228D01*
X189983666Y-110790276D01*
X189831285Y-110790276D01*
X190212238Y-110618847D02*
X190231285Y-110599800D01*
X190269380Y-110580752D01*
X190364619Y-110580752D01*
X190402714Y-110599800D01*
X190421761Y-110618847D01*
X190440809Y-110656942D01*
X190440809Y-110695038D01*
X190421761Y-110752180D01*
X190193190Y-110980752D01*
X190440809Y-110980752D01*
X190669380Y-110752180D02*
X190631285Y-110733133D01*
X190612238Y-110714085D01*
X190593190Y-110675990D01*
X190593190Y-110656942D01*
X190612238Y-110618847D01*
X190631285Y-110599800D01*
X190669380Y-110580752D01*
X190745571Y-110580752D01*
X190783666Y-110599800D01*
X190802714Y-110618847D01*
X190821761Y-110656942D01*
X190821761Y-110675990D01*
X190802714Y-110714085D01*
X190783666Y-110733133D01*
X190745571Y-110752180D01*
X190669380Y-110752180D01*
X190631285Y-110771228D01*
X190612238Y-110790276D01*
X190593190Y-110828371D01*
X190593190Y-110904561D01*
X190612238Y-110942657D01*
X190631285Y-110961704D01*
X190669380Y-110980752D01*
X190745571Y-110980752D01*
X190783666Y-110961704D01*
X190802714Y-110942657D01*
X190821761Y-110904561D01*
X190821761Y-110828371D01*
X190802714Y-110790276D01*
X190783666Y-110771228D01*
X190745571Y-110752180D01*
D11*
X185707476Y-111682180D02*
X186326523Y-111682180D01*
X185993190Y-112063133D01*
X186136047Y-112063133D01*
X186231285Y-112110752D01*
X186278904Y-112158371D01*
X186326523Y-112253609D01*
X186326523Y-112491704D01*
X186278904Y-112586942D01*
X186231285Y-112634561D01*
X186136047Y-112682180D01*
X185850333Y-112682180D01*
X185755095Y-112634561D01*
X185707476Y-112586942D01*
X186659857Y-111682180D02*
X187278904Y-111682180D01*
X186945571Y-112063133D01*
X187088428Y-112063133D01*
X187183666Y-112110752D01*
X187231285Y-112158371D01*
X187278904Y-112253609D01*
X187278904Y-112491704D01*
X187231285Y-112586942D01*
X187183666Y-112634561D01*
X187088428Y-112682180D01*
X186802714Y-112682180D01*
X186707476Y-112634561D01*
X186659857Y-112586942D01*
D12*
X186259857Y-110980752D02*
X186126523Y-110790276D01*
X186031285Y-110980752D02*
X186031285Y-110580752D01*
X186183666Y-110580752D01*
X186221761Y-110599800D01*
X186240809Y-110618847D01*
X186259857Y-110656942D01*
X186259857Y-110714085D01*
X186240809Y-110752180D01*
X186221761Y-110771228D01*
X186183666Y-110790276D01*
X186031285Y-110790276D01*
X186412238Y-110618847D02*
X186431285Y-110599800D01*
X186469380Y-110580752D01*
X186564619Y-110580752D01*
X186602714Y-110599800D01*
X186621761Y-110618847D01*
X186640809Y-110656942D01*
X186640809Y-110695038D01*
X186621761Y-110752180D01*
X186393190Y-110980752D01*
X186640809Y-110980752D01*
X186831285Y-110980752D02*
X186907476Y-110980752D01*
X186945571Y-110961704D01*
X186964619Y-110942657D01*
X187002714Y-110885514D01*
X187021761Y-110809323D01*
X187021761Y-110656942D01*
X187002714Y-110618847D01*
X186983666Y-110599800D01*
X186945571Y-110580752D01*
X186869380Y-110580752D01*
X186831285Y-110599800D01*
X186812238Y-110618847D01*
X186793190Y-110656942D01*
X186793190Y-110752180D01*
X186812238Y-110790276D01*
X186831285Y-110809323D01*
X186869380Y-110828371D01*
X186945571Y-110828371D01*
X186983666Y-110809323D01*
X187002714Y-110790276D01*
X187021761Y-110752180D01*
D11*
X177957476Y-111732180D02*
X178576523Y-111732180D01*
X178243190Y-112113133D01*
X178386047Y-112113133D01*
X178481285Y-112160752D01*
X178528904Y-112208371D01*
X178576523Y-112303609D01*
X178576523Y-112541704D01*
X178528904Y-112636942D01*
X178481285Y-112684561D01*
X178386047Y-112732180D01*
X178100333Y-112732180D01*
X178005095Y-112684561D01*
X177957476Y-112636942D01*
X178909857Y-111732180D02*
X179528904Y-111732180D01*
X179195571Y-112113133D01*
X179338428Y-112113133D01*
X179433666Y-112160752D01*
X179481285Y-112208371D01*
X179528904Y-112303609D01*
X179528904Y-112541704D01*
X179481285Y-112636942D01*
X179433666Y-112684561D01*
X179338428Y-112732180D01*
X179052714Y-112732180D01*
X178957476Y-112684561D01*
X178909857Y-112636942D01*
D12*
X178509857Y-111030752D02*
X178376523Y-110840276D01*
X178281285Y-111030752D02*
X178281285Y-110630752D01*
X178433666Y-110630752D01*
X178471761Y-110649800D01*
X178490809Y-110668847D01*
X178509857Y-110706942D01*
X178509857Y-110764085D01*
X178490809Y-110802180D01*
X178471761Y-110821228D01*
X178433666Y-110840276D01*
X178281285Y-110840276D01*
X178643190Y-110630752D02*
X178890809Y-110630752D01*
X178757476Y-110783133D01*
X178814619Y-110783133D01*
X178852714Y-110802180D01*
X178871761Y-110821228D01*
X178890809Y-110859323D01*
X178890809Y-110954561D01*
X178871761Y-110992657D01*
X178852714Y-111011704D01*
X178814619Y-111030752D01*
X178700333Y-111030752D01*
X178662238Y-111011704D01*
X178643190Y-110992657D01*
X179138428Y-110630752D02*
X179176523Y-110630752D01*
X179214619Y-110649800D01*
X179233666Y-110668847D01*
X179252714Y-110706942D01*
X179271761Y-110783133D01*
X179271761Y-110878371D01*
X179252714Y-110954561D01*
X179233666Y-110992657D01*
X179214619Y-111011704D01*
X179176523Y-111030752D01*
X179138428Y-111030752D01*
X179100333Y-111011704D01*
X179081285Y-110992657D01*
X179062238Y-110954561D01*
X179043190Y-110878371D01*
X179043190Y-110783133D01*
X179062238Y-110706942D01*
X179081285Y-110668847D01*
X179100333Y-110649800D01*
X179138428Y-110630752D01*
D11*
X127107476Y-111732180D02*
X127726523Y-111732180D01*
X127393190Y-112113133D01*
X127536047Y-112113133D01*
X127631285Y-112160752D01*
X127678904Y-112208371D01*
X127726523Y-112303609D01*
X127726523Y-112541704D01*
X127678904Y-112636942D01*
X127631285Y-112684561D01*
X127536047Y-112732180D01*
X127250333Y-112732180D01*
X127155095Y-112684561D01*
X127107476Y-112636942D01*
X128059857Y-111732180D02*
X128678904Y-111732180D01*
X128345571Y-112113133D01*
X128488428Y-112113133D01*
X128583666Y-112160752D01*
X128631285Y-112208371D01*
X128678904Y-112303609D01*
X128678904Y-112541704D01*
X128631285Y-112636942D01*
X128583666Y-112684561D01*
X128488428Y-112732180D01*
X128202714Y-112732180D01*
X128107476Y-112684561D01*
X128059857Y-112636942D01*
D12*
X127659857Y-111030752D02*
X127526523Y-110840276D01*
X127431285Y-111030752D02*
X127431285Y-110630752D01*
X127583666Y-110630752D01*
X127621761Y-110649800D01*
X127640809Y-110668847D01*
X127659857Y-110706942D01*
X127659857Y-110764085D01*
X127640809Y-110802180D01*
X127621761Y-110821228D01*
X127583666Y-110840276D01*
X127431285Y-110840276D01*
X127812238Y-110668847D02*
X127831285Y-110649800D01*
X127869380Y-110630752D01*
X127964619Y-110630752D01*
X128002714Y-110649800D01*
X128021761Y-110668847D01*
X128040809Y-110706942D01*
X128040809Y-110745038D01*
X128021761Y-110802180D01*
X127793190Y-111030752D01*
X128040809Y-111030752D01*
X128421761Y-111030752D02*
X128193190Y-111030752D01*
X128307476Y-111030752D02*
X128307476Y-110630752D01*
X128269380Y-110687895D01*
X128231285Y-110725990D01*
X128193190Y-110745038D01*
D15*
X211117000Y-100749800D02*
X214817000Y-100749800D01*
X211117000Y-95049800D02*
X211117000Y-100749800D01*
X214817000Y-94049800D02*
X214817000Y-100749800D01*
X212117000Y-94049800D02*
X214817000Y-94049800D01*
X211117000Y-95049800D02*
X212117000Y-94049800D01*
X213167000Y-81112300D02*
X211567000Y-81112300D01*
X213167000Y-80287300D02*
X213167000Y-81112300D01*
X211567000Y-81112300D02*
X211567000Y-80287300D01*
X211567000Y-80287300D02*
X213167000Y-80287300D01*
X107717000Y-62699800D02*
X104517000Y-62699800D01*
X103517000Y-63699800D02*
X102517000Y-62699800D01*
X107717000Y-78699800D02*
X86417000Y-78699800D01*
X107717000Y-62699800D02*
X107717000Y-78699800D01*
X103517000Y-63699800D02*
X104517000Y-62699800D01*
X86417000Y-62699800D02*
X86417000Y-78699800D01*
X102517000Y-62699800D02*
X86417000Y-62699800D01*
X111267000Y-68224800D02*
X109267000Y-68224800D01*
X111267000Y-66974800D02*
X111267000Y-68224800D01*
X109267000Y-66974800D02*
X111267000Y-66974800D01*
X109267000Y-68224800D02*
X109267000Y-66974800D01*
X133692000Y-106349800D02*
X132092000Y-106349800D01*
X132092000Y-105549800D02*
X133692000Y-105549800D01*
X132092000Y-106349800D02*
X132092000Y-105549800D01*
X133692000Y-105549800D02*
X133692000Y-106349800D01*
X86150000Y-126100000D02*
X86150000Y-124850000D01*
X98550000Y-132600000D02*
X98550000Y-125350000D01*
X86650000Y-125350000D02*
X86650000Y-132600000D01*
X86150000Y-124850000D02*
X88150000Y-124850000D01*
X98550000Y-125350000D02*
X86650000Y-125350000D01*
X86650000Y-132600000D02*
X98550000Y-132600000D01*
X116150000Y-113100000D02*
X116150000Y-111850000D01*
X116150000Y-111850000D02*
X118150000Y-111850000D01*
X116650000Y-119600000D02*
X128550000Y-119600000D01*
X128550000Y-112350000D02*
X116650000Y-112350000D01*
X128550000Y-119600000D02*
X128550000Y-112350000D01*
X116650000Y-112350000D02*
X116650000Y-119600000D01*
X128664342Y-132600000D02*
X128664342Y-125350000D01*
X128664342Y-125350000D02*
X116764342Y-125350000D01*
X116764342Y-132600000D02*
X128664342Y-132600000D01*
X116264342Y-126100000D02*
X116264342Y-124850000D01*
X116764342Y-125350000D02*
X116764342Y-132600000D01*
X116264342Y-124850000D02*
X118264342Y-124850000D01*
X131150000Y-111850000D02*
X133150000Y-111850000D01*
X131650000Y-112350000D02*
X131650000Y-119600000D01*
X131150000Y-113100000D02*
X131150000Y-111850000D01*
X143550000Y-112350000D02*
X131650000Y-112350000D01*
X131650000Y-119600000D02*
X143550000Y-119600000D01*
X143550000Y-119600000D02*
X143550000Y-112350000D01*
X143550000Y-132600000D02*
X143550000Y-125350000D01*
X143550000Y-125350000D02*
X131650000Y-125350000D01*
X131650000Y-125350000D02*
X131650000Y-132600000D01*
X131150000Y-124850000D02*
X133150000Y-124850000D01*
X131150000Y-126100000D02*
X131150000Y-124850000D01*
X131650000Y-132600000D02*
X143550000Y-132600000D01*
X158550000Y-112350000D02*
X146650000Y-112350000D01*
X146650000Y-119600000D02*
X158550000Y-119600000D01*
X146150000Y-113100000D02*
X146150000Y-111850000D01*
X146150000Y-111850000D02*
X148150000Y-111850000D01*
X146650000Y-112350000D02*
X146650000Y-119600000D01*
X158550000Y-119600000D02*
X158550000Y-112350000D01*
X158550000Y-132600000D02*
X158550000Y-125350000D01*
X146150000Y-126100000D02*
X146150000Y-124850000D01*
X158550000Y-125350000D02*
X146650000Y-125350000D01*
X146150000Y-124850000D02*
X148150000Y-124850000D01*
X146650000Y-132600000D02*
X158550000Y-132600000D01*
X146650000Y-125350000D02*
X146650000Y-132600000D01*
X161150000Y-113100000D02*
X161150000Y-111850000D01*
X173550000Y-119600000D02*
X173550000Y-112350000D01*
X173550000Y-112350000D02*
X161650000Y-112350000D01*
X161650000Y-119600000D02*
X173550000Y-119600000D01*
X161150000Y-111850000D02*
X163150000Y-111850000D01*
X161650000Y-112350000D02*
X161650000Y-119600000D01*
X161650000Y-132600000D02*
X173550000Y-132600000D01*
X161150000Y-124850000D02*
X163150000Y-124850000D01*
X161150000Y-126100000D02*
X161150000Y-124850000D01*
X173550000Y-132600000D02*
X173550000Y-125350000D01*
X161650000Y-125350000D02*
X161650000Y-132600000D01*
X173550000Y-125350000D02*
X161650000Y-125350000D01*
X176650000Y-112350000D02*
X176650000Y-119600000D01*
X176150000Y-113100000D02*
X176150000Y-111850000D01*
X176150000Y-111850000D02*
X178150000Y-111850000D01*
X176650000Y-119600000D02*
X188550000Y-119600000D01*
X188550000Y-112350000D02*
X176650000Y-112350000D01*
X188550000Y-119600000D02*
X188550000Y-112350000D01*
X176150000Y-124850000D02*
X178150000Y-124850000D01*
X176650000Y-125350000D02*
X176650000Y-132600000D01*
X188550000Y-132600000D02*
X188550000Y-125350000D01*
X176650000Y-132600000D02*
X188550000Y-132600000D01*
X176150000Y-126100000D02*
X176150000Y-124850000D01*
X188550000Y-125350000D02*
X176650000Y-125350000D01*
X191150000Y-111850000D02*
X193150000Y-111850000D01*
X191650000Y-119600000D02*
X203550000Y-119600000D01*
X191650000Y-112350000D02*
X191650000Y-119600000D01*
X203550000Y-119600000D02*
X203550000Y-112350000D01*
X191150000Y-113100000D02*
X191150000Y-111850000D01*
X203550000Y-112350000D02*
X191650000Y-112350000D01*
X203550000Y-132600000D02*
X203550000Y-125350000D01*
X191650000Y-132600000D02*
X203550000Y-132600000D01*
X191650000Y-125350000D02*
X191650000Y-132600000D01*
X191150000Y-124850000D02*
X193150000Y-124850000D01*
X203550000Y-125350000D02*
X191650000Y-125350000D01*
X191150000Y-126100000D02*
X191150000Y-124850000D01*
X174967000Y-105499800D02*
X174967000Y-106299800D01*
X173367000Y-106299800D02*
X173367000Y-105499800D01*
X174967000Y-106299800D02*
X173367000Y-106299800D01*
X173367000Y-105499800D02*
X174967000Y-105499800D01*
X86150000Y-111850000D02*
X88150000Y-111850000D01*
X98550000Y-112350000D02*
X86650000Y-112350000D01*
X86650000Y-119600000D02*
X98550000Y-119600000D01*
X86150000Y-113100000D02*
X86150000Y-111850000D01*
X86650000Y-112350000D02*
X86650000Y-119600000D01*
X98550000Y-119600000D02*
X98550000Y-112350000D01*
X101650000Y-119600000D02*
X113550000Y-119600000D01*
X113550000Y-119600000D02*
X113550000Y-112350000D01*
X113550000Y-112350000D02*
X101650000Y-112350000D01*
X101150000Y-113100000D02*
X101150000Y-111850000D01*
X101650000Y-112350000D02*
X101650000Y-119600000D01*
X101150000Y-111850000D02*
X103150000Y-111850000D01*
X101650000Y-125350000D02*
X101650000Y-132600000D01*
X113550000Y-125350000D02*
X101650000Y-125350000D01*
X101650000Y-132600000D02*
X113550000Y-132600000D01*
X113550000Y-132600000D02*
X113550000Y-125350000D01*
X101150000Y-126100000D02*
X101150000Y-124850000D01*
X101150000Y-124850000D02*
X103150000Y-124850000D01*
X205867000Y-106649800D02*
X205867000Y-107449800D01*
X205267000Y-107049800D02*
X205867000Y-106649800D01*
X204217000Y-106149800D02*
X207017000Y-106149800D01*
X205267000Y-107049800D02*
X205267000Y-106499800D01*
X205267000Y-107049800D02*
X205267000Y-107599800D01*
X205867000Y-107449800D02*
X205267000Y-107049800D01*
X204217000Y-107949800D02*
X204217000Y-106149800D01*
X207017000Y-107949800D02*
X204217000Y-107949800D01*
X207017000Y-106149800D02*
X207017000Y-107949800D01*
X205867000Y-107049800D02*
X206367000Y-107049800D01*
X204867000Y-107049800D02*
X205267000Y-107049800D01*
X86579500Y-101699800D02*
X85754500Y-101699800D01*
X86579500Y-100099800D02*
X86579500Y-101699800D01*
X85754500Y-101699800D02*
X85754500Y-100099800D01*
X85754500Y-100099800D02*
X86579500Y-100099800D01*
X176817000Y-88899800D02*
X176817000Y-61099800D01*
X183467000Y-61099800D02*
X176817000Y-61099800D01*
X195547000Y-86149800D02*
X195547000Y-88649800D01*
X185387000Y-88649800D02*
X195547000Y-88649800D01*
X197467000Y-63099800D02*
X197467000Y-61099800D01*
X185387000Y-86149800D02*
X185387000Y-88649800D01*
X204117000Y-88899800D02*
X176817000Y-88899800D01*
X185387000Y-86149800D02*
X195547000Y-86149800D01*
X204117000Y-61099800D02*
X197467000Y-61099800D01*
X183467000Y-63099800D02*
X183467000Y-61099800D01*
X183467000Y-63099800D02*
X197467000Y-63099800D01*
X204117000Y-88899800D02*
X204117000Y-61099800D01*
X78167000Y-126299800D02*
X78167000Y-127899800D01*
X78667000Y-126299800D02*
X78167000Y-126299800D01*
X78967000Y-126599800D02*
X78667000Y-126299800D01*
X78967000Y-127899800D02*
X78967000Y-126599800D01*
X78167000Y-127899800D02*
X78967000Y-127899800D01*
X209567000Y-127699800D02*
X210367000Y-127699800D01*
X210367000Y-126399800D02*
X210067000Y-126099800D01*
X210067000Y-126099800D02*
X209567000Y-126099800D01*
X209567000Y-126099800D02*
X209567000Y-127699800D01*
X210367000Y-127699800D02*
X210367000Y-126399800D01*
X78154500Y-129799800D02*
X78979500Y-129799800D01*
X78979500Y-129799800D02*
X78979500Y-131399800D01*
X78154500Y-131399800D02*
X78154500Y-129799800D01*
X78979500Y-131399800D02*
X78154500Y-131399800D01*
X209554500Y-129699800D02*
X210379500Y-129699800D01*
X209554500Y-131299800D02*
X209554500Y-129699800D01*
X210379500Y-131299800D02*
X209554500Y-131299800D01*
X210379500Y-129699800D02*
X210379500Y-131299800D01*
X177667000Y-101799800D02*
X179267000Y-101799800D01*
X179267000Y-100999800D02*
X177967000Y-100999800D01*
X177667000Y-101299800D02*
X177667000Y-101799800D01*
X179267000Y-101799800D02*
X179267000Y-100999800D01*
X177967000Y-100999800D02*
X177667000Y-101299800D01*
D16*
X166506000Y-106651900D02*
X166506000Y-105343800D01*
X160918000Y-99755800D02*
X161426000Y-99755800D01*
X169808000Y-106651900D02*
X170316000Y-106651900D01*
X161426000Y-106651900D02*
X161426000Y-105343800D01*
X160918000Y-106651900D02*
X161426000Y-106651900D01*
X167268000Y-106651900D02*
X167776000Y-106651900D01*
X171078000Y-98447700D02*
X171078000Y-99755800D01*
X169046000Y-99755800D02*
X169046000Y-98447700D01*
X169808000Y-99755800D02*
X170316000Y-99755800D01*
X165236000Y-105343800D02*
X164728000Y-105343800D01*
X169046000Y-98447700D02*
X168538000Y-98447700D01*
X164728000Y-105343800D02*
X164728000Y-106651900D01*
X162188000Y-99755800D02*
X162696000Y-99755800D01*
X165236000Y-99755800D02*
X165236000Y-98447700D01*
X169046000Y-106651900D02*
X169046000Y-105343800D01*
X168538000Y-106651900D02*
X169046000Y-106651900D01*
X167776000Y-99755800D02*
X167776000Y-98447700D01*
X159648000Y-106651900D02*
X160156000Y-106651900D01*
X162696000Y-99755800D02*
X162696000Y-98447700D01*
X171078000Y-105343800D02*
X171078000Y-106651900D01*
X171586000Y-99755800D02*
X171586000Y-98447700D01*
X163966000Y-106651900D02*
X163966000Y-105343800D01*
X170316000Y-105343800D02*
X169808000Y-105343800D01*
X172068600Y-99755800D02*
X159165400Y-99755800D01*
X159648000Y-105343800D02*
X159648000Y-106651900D01*
X159648000Y-99755800D02*
X160156000Y-99755800D01*
X169808000Y-98447700D02*
X169808000Y-99755800D01*
X167268000Y-98447700D02*
X167268000Y-99755800D01*
X165998000Y-98447700D02*
X165998000Y-99755800D01*
X160918000Y-105343800D02*
X160918000Y-106651900D01*
X170316000Y-106651900D02*
X170316000Y-105343800D01*
X164728000Y-98447700D02*
X164728000Y-99755800D01*
X165236000Y-106651900D02*
X165236000Y-105343800D01*
X168538000Y-105343800D02*
X168538000Y-106651900D01*
X163966000Y-98447700D02*
X163458000Y-98447700D01*
X171586000Y-106651900D02*
X171586000Y-105343800D01*
X163966000Y-105343800D02*
X163458000Y-105343800D01*
X161426000Y-99755800D02*
X161426000Y-98447700D01*
X171078000Y-99755800D02*
X171586000Y-99755800D01*
X167776000Y-106651900D02*
X167776000Y-105343800D01*
X166506000Y-105343800D02*
X165998000Y-105343800D01*
X171586000Y-98447700D02*
X171078000Y-98447700D01*
X167776000Y-105343800D02*
X167268000Y-105343800D01*
X160156000Y-98447700D02*
X159648000Y-98447700D01*
X163458000Y-99755800D02*
X163966000Y-99755800D01*
X167268000Y-105343800D02*
X167268000Y-106651900D01*
X162696000Y-105343800D02*
X162188000Y-105343800D01*
X169808000Y-105343800D02*
X169808000Y-106651900D01*
X159165400Y-99755800D02*
X159165400Y-105343800D01*
X161426000Y-98447700D02*
X160918000Y-98447700D01*
X163966000Y-99755800D02*
X163966000Y-98447700D01*
X164728000Y-99755800D02*
X165236000Y-99755800D01*
X162696000Y-98447700D02*
X162188000Y-98447700D01*
X165998000Y-105343800D02*
X165998000Y-106651900D01*
X162188000Y-98447700D02*
X162188000Y-99755800D01*
X160156000Y-106651900D02*
X160156000Y-105343800D01*
X164728000Y-106651900D02*
X165236000Y-106651900D01*
X163458000Y-106651900D02*
X163966000Y-106651900D01*
X171586000Y-105343800D02*
X171078000Y-105343800D01*
X162188000Y-105343800D02*
X162188000Y-106651900D01*
X166506000Y-98447700D02*
X165998000Y-98447700D01*
X166506000Y-99755800D02*
X166506000Y-98447700D01*
X171078000Y-106651900D02*
X171586000Y-106651900D01*
X159648000Y-98447700D02*
X159648000Y-99755800D01*
X167268000Y-99755800D02*
X167776000Y-99755800D01*
X172068600Y-105343800D02*
X172068600Y-99755800D01*
X168538000Y-98447700D02*
X168538000Y-99755800D01*
X163458000Y-105343800D02*
X163458000Y-106651900D01*
X161426000Y-105343800D02*
X160918000Y-105343800D01*
X168538000Y-99755800D02*
X169046000Y-99755800D01*
X162696000Y-106651900D02*
X162696000Y-105343800D01*
X169046000Y-105343800D02*
X168538000Y-105343800D01*
X162188000Y-106651900D02*
X162696000Y-106651900D01*
X160918000Y-98447700D02*
X160918000Y-99755800D01*
X165998000Y-99755800D02*
X166506000Y-99755800D01*
X170316000Y-99755800D02*
X170316000Y-98447700D01*
X159165400Y-105343800D02*
X172068600Y-105343800D01*
X165236000Y-98447700D02*
X164728000Y-98447700D01*
X165998000Y-106651900D02*
X166506000Y-106651900D01*
X167776000Y-98447700D02*
X167268000Y-98447700D01*
X163458000Y-98447700D02*
X163458000Y-99755800D01*
X160156000Y-105343800D02*
X159648000Y-105343800D01*
X170316000Y-98447700D02*
X169808000Y-98447700D01*
X160156000Y-99755800D02*
X160156000Y-98447700D01*
X172068600Y-102245000D02*
G75*
G03*
X172068600Y-102854600I0J-304800D01*
G01*
X120838000Y-98447700D02*
X120838000Y-99755800D01*
X127188000Y-106651900D02*
X127696000Y-106651900D01*
X127188000Y-98447700D02*
X127188000Y-99755800D01*
X118298000Y-98447700D02*
X118298000Y-99755800D01*
X130236000Y-98447700D02*
X129728000Y-98447700D01*
X128966000Y-106651900D02*
X128966000Y-105343800D01*
X122108000Y-106651900D02*
X122616000Y-106651900D01*
X126426000Y-105343800D02*
X125918000Y-105343800D01*
X122108000Y-99755800D02*
X122616000Y-99755800D01*
X121346000Y-98447700D02*
X120838000Y-98447700D01*
X118298000Y-106651900D02*
X118806000Y-106651900D01*
X128966000Y-105343800D02*
X128458000Y-105343800D01*
X122108000Y-105343800D02*
X122108000Y-106651900D01*
X121346000Y-106651900D02*
X121346000Y-105343800D01*
X125156000Y-99755800D02*
X125156000Y-98447700D01*
X126426000Y-98447700D02*
X125918000Y-98447700D01*
X130236000Y-99755800D02*
X130236000Y-98447700D01*
X127696000Y-106651900D02*
X127696000Y-105343800D01*
X118806000Y-98447700D02*
X118298000Y-98447700D01*
X121346000Y-99755800D02*
X121346000Y-98447700D01*
X120838000Y-106651900D02*
X121346000Y-106651900D01*
X128458000Y-99755800D02*
X128966000Y-99755800D01*
X129728000Y-99755800D02*
X130236000Y-99755800D01*
X122616000Y-99755800D02*
X122616000Y-98447700D01*
X123378000Y-105343800D02*
X123378000Y-106651900D01*
X128966000Y-99755800D02*
X128966000Y-98447700D01*
X124648000Y-99755800D02*
X125156000Y-99755800D01*
X117815400Y-105343800D02*
X130718600Y-105343800D01*
X126426000Y-106651900D02*
X126426000Y-105343800D01*
X128966000Y-98447700D02*
X128458000Y-98447700D01*
X123886000Y-105343800D02*
X123378000Y-105343800D01*
X127696000Y-99755800D02*
X127696000Y-98447700D01*
X129728000Y-106651900D02*
X130236000Y-106651900D01*
X125156000Y-98447700D02*
X124648000Y-98447700D01*
X124648000Y-105343800D02*
X124648000Y-106651900D01*
X123886000Y-99755800D02*
X123886000Y-98447700D01*
X120076000Y-99755800D02*
X120076000Y-98447700D01*
X124648000Y-106651900D02*
X125156000Y-106651900D01*
X119568000Y-106651900D02*
X120076000Y-106651900D01*
X127696000Y-105343800D02*
X127188000Y-105343800D01*
X130236000Y-106651900D02*
X130236000Y-105343800D01*
X123378000Y-98447700D02*
X123378000Y-99755800D01*
X120838000Y-99755800D02*
X121346000Y-99755800D01*
X129728000Y-105343800D02*
X129728000Y-106651900D01*
X122108000Y-98447700D02*
X122108000Y-99755800D01*
X119568000Y-105343800D02*
X119568000Y-106651900D01*
X127696000Y-98447700D02*
X127188000Y-98447700D01*
X128458000Y-106651900D02*
X128966000Y-106651900D01*
X118806000Y-106651900D02*
X118806000Y-105343800D01*
X118806000Y-105343800D02*
X118298000Y-105343800D01*
X123378000Y-106651900D02*
X123886000Y-106651900D01*
X125918000Y-99755800D02*
X126426000Y-99755800D01*
X122616000Y-98447700D02*
X122108000Y-98447700D01*
X125156000Y-105343800D02*
X124648000Y-105343800D01*
X119568000Y-99755800D02*
X120076000Y-99755800D01*
X127188000Y-105343800D02*
X127188000Y-106651900D01*
X118298000Y-105343800D02*
X118298000Y-106651900D01*
X127188000Y-99755800D02*
X127696000Y-99755800D01*
X121346000Y-105343800D02*
X120838000Y-105343800D01*
X129728000Y-98447700D02*
X129728000Y-99755800D01*
X130236000Y-105343800D02*
X129728000Y-105343800D01*
X124648000Y-98447700D02*
X124648000Y-99755800D01*
X123886000Y-106651900D02*
X123886000Y-105343800D01*
X120076000Y-105343800D02*
X119568000Y-105343800D01*
X118806000Y-99755800D02*
X118806000Y-98447700D01*
X130718600Y-99755800D02*
X117815400Y-99755800D01*
X126426000Y-99755800D02*
X126426000Y-98447700D01*
X125918000Y-105343800D02*
X125918000Y-106651900D01*
X119568000Y-98447700D02*
X119568000Y-99755800D01*
X125918000Y-106651900D02*
X126426000Y-106651900D01*
X120838000Y-105343800D02*
X120838000Y-106651900D01*
X122616000Y-106651900D02*
X122616000Y-105343800D01*
X120076000Y-98447700D02*
X119568000Y-98447700D01*
X122616000Y-105343800D02*
X122108000Y-105343800D01*
X125918000Y-98447700D02*
X125918000Y-99755800D01*
X120076000Y-106651900D02*
X120076000Y-105343800D01*
X130718600Y-105343800D02*
X130718600Y-99755800D01*
X128458000Y-98447700D02*
X128458000Y-99755800D01*
X123378000Y-99755800D02*
X123886000Y-99755800D01*
X117815400Y-99755800D02*
X117815400Y-105343800D01*
X128458000Y-105343800D02*
X128458000Y-106651900D01*
X125156000Y-106651900D02*
X125156000Y-105343800D01*
X123886000Y-98447700D02*
X123378000Y-98447700D01*
X118298000Y-99755800D02*
X118806000Y-99755800D01*
X130718600Y-102245000D02*
G75*
G03*
X130718600Y-102854600I0J-304800D01*
G01*
D15*
X94417000Y-99949800D02*
X94417000Y-103874800D01*
X90517000Y-104849800D02*
X90517000Y-99949800D01*
X94417000Y-103874800D02*
X93442000Y-104849800D01*
X93442000Y-104849800D02*
X90517000Y-104849800D01*
X90517000Y-99949800D02*
X94417000Y-99949800D01*
D17*
X124227000Y-71099800D02*
X162307000Y-71099800D01*
X124227000Y-62299800D02*
X124227000Y-71099800D01*
X124227000Y-71349800D02*
X162307000Y-71349800D01*
X162307000Y-71349800D02*
X162307000Y-71099800D01*
X124227000Y-71099800D02*
X124227000Y-71349800D01*
X162307000Y-71099800D02*
X162307000Y-62299800D01*
X162307000Y-62299800D02*
X124227000Y-62299800D01*
D18*
X157337000Y-61619800D02*
G75*
G03*
X157337000Y-61619800I-100000J0D01*
G01*
D15*
X196762000Y-105569800D02*
X189142000Y-105569800D01*
X189142000Y-105569800D02*
X189142000Y-103029800D01*
X196762000Y-103664800D02*
X196762000Y-105569800D01*
X196127000Y-103029800D02*
X196762000Y-103664800D01*
X189142000Y-103029800D02*
X196127000Y-103029800D01*
X78517000Y-79999800D02*
X79517000Y-80624800D01*
X73767000Y-77549800D02*
X73767000Y-89949800D01*
X73767000Y-89949800D02*
X79517000Y-89949800D01*
X79517000Y-77549800D02*
X73767000Y-77549800D01*
X79517000Y-89949800D02*
X79517000Y-77549800D01*
X79517000Y-79374800D02*
X78517000Y-79999800D01*
X214897000Y-120449800D02*
X214897000Y-113464800D01*
X217437000Y-112829800D02*
X217437000Y-120449800D01*
X215532000Y-112829800D02*
X217437000Y-112829800D01*
X214897000Y-113464800D02*
X215532000Y-112829800D01*
X217437000Y-120449800D02*
X214897000Y-120449800D01*
X70867000Y-111699800D02*
X70867000Y-92199800D01*
X76605000Y-95154800D02*
X74512000Y-93061800D01*
X70867000Y-92199800D02*
X71367000Y-91699800D01*
X80667000Y-91699800D02*
X80667000Y-111699800D01*
X80667000Y-111699800D02*
X70867000Y-111699800D01*
X76422000Y-100337800D02*
X74329000Y-98245800D01*
X76605000Y-100154800D02*
X74512000Y-98062800D01*
X72867000Y-91699800D02*
X72867000Y-111699800D01*
X71367000Y-91699800D02*
X80667000Y-91699800D01*
X76422000Y-95337800D02*
X74329000Y-93244800D01*
X76605000Y-110154800D02*
X74512000Y-108062800D01*
X76422000Y-110337800D02*
X74329000Y-108245800D01*
X71367000Y-91699800D02*
X71367000Y-111699800D01*
X77767000Y-91699800D02*
X77767000Y-111699800D01*
X76422000Y-105337800D02*
X74329000Y-103245800D01*
X76605000Y-105154800D02*
X74512000Y-103062800D01*
X76967000Y-109199800D02*
G75*
G03*
X76967000Y-109199800I-1500000J0D01*
G01*
X76967000Y-104199800D02*
G75*
G03*
X76967000Y-104199800I-1500000J0D01*
G01*
X76967000Y-99199800D02*
G75*
G03*
X76967000Y-99199800I-1500000J0D01*
G01*
X76967000Y-94199800D02*
G75*
G03*
X76967000Y-94199800I-1500000J0D01*
G01*
X82429500Y-107449800D02*
X82429500Y-109049800D01*
X82429500Y-109049800D02*
X81604500Y-109049800D01*
X81604500Y-107449800D02*
X82429500Y-107449800D01*
X81604500Y-109049800D02*
X81604500Y-107449800D01*
X82429500Y-105649800D02*
X81604500Y-105649800D01*
X82429500Y-104049800D02*
X82429500Y-105649800D01*
X81604500Y-105649800D02*
X81604500Y-104049800D01*
X81604500Y-104049800D02*
X82429500Y-104049800D01*
X175667000Y-101812300D02*
X174067000Y-101812300D01*
X175667000Y-100987300D02*
X175667000Y-101812300D01*
X174067000Y-100987300D02*
X175667000Y-100987300D01*
X174067000Y-101812300D02*
X174067000Y-100987300D01*
X187567000Y-102849800D02*
X187567000Y-97249800D01*
X181967000Y-103849800D02*
X180967000Y-102849800D01*
X182937000Y-103254638D02*
X182937000Y-102624638D01*
X181967000Y-103849800D02*
X186567000Y-103849800D01*
X180967000Y-97249800D02*
X187567000Y-97249800D01*
X182622000Y-102939638D02*
X183252000Y-102939638D01*
X180967000Y-102849800D02*
X180967000Y-97249800D01*
X186567000Y-103849800D02*
X187567000Y-102849800D01*
X187417000Y-100549800D02*
G75*
G03*
X187417000Y-100549800I-3150000J0D01*
G01*
X199979500Y-101656338D02*
X199979500Y-100656338D01*
X199479500Y-101156338D02*
X200479500Y-101156338D01*
X207167000Y-97367477D02*
G75*
G03*
X207167000Y-97367477I-5000000J0D01*
G01*
X82967000Y-77487300D02*
X82967000Y-78312300D01*
X81367000Y-77487300D02*
X82967000Y-77487300D01*
X81367000Y-78312300D02*
X81367000Y-77487300D01*
X82967000Y-78312300D02*
X81367000Y-78312300D01*
X215292000Y-82737300D02*
X215292000Y-81912300D01*
X216892000Y-81912300D02*
X216892000Y-82737300D01*
X216892000Y-82737300D02*
X215292000Y-82737300D01*
X215292000Y-81912300D02*
X216892000Y-81912300D01*
X215292000Y-80237300D02*
X216892000Y-80237300D01*
X216892000Y-80237300D02*
X216892000Y-81062300D01*
X215292000Y-81062300D02*
X215292000Y-80237300D01*
X216892000Y-81062300D02*
X215292000Y-81062300D01*
X174467000Y-111212300D02*
X172867000Y-111212300D01*
X172867000Y-111212300D02*
X172867000Y-110387300D01*
X174467000Y-110387300D02*
X174467000Y-111212300D01*
X172867000Y-110387300D02*
X174467000Y-110387300D01*
X122692000Y-110437300D02*
X124292000Y-110437300D01*
X124292000Y-110437300D02*
X124292000Y-111262300D01*
X124292000Y-111262300D02*
X122692000Y-111262300D01*
X122692000Y-111262300D02*
X122692000Y-110437300D01*
X130567000Y-110437300D02*
X132167000Y-110437300D01*
X132167000Y-111262300D02*
X130567000Y-111262300D01*
X130567000Y-111262300D02*
X130567000Y-110437300D01*
X132167000Y-110437300D02*
X132167000Y-111262300D01*
X97267000Y-110437300D02*
X98867000Y-110437300D01*
X97267000Y-111262300D02*
X97267000Y-110437300D01*
X98867000Y-111262300D02*
X97267000Y-111262300D01*
X98867000Y-110437300D02*
X98867000Y-111262300D01*
X105242000Y-111262300D02*
X103642000Y-111262300D01*
X105242000Y-110437300D02*
X105242000Y-111262300D01*
X103642000Y-111262300D02*
X103642000Y-110437300D01*
X103642000Y-110437300D02*
X105242000Y-110437300D01*
X204367000Y-110849800D02*
X204367000Y-109549800D01*
X204367000Y-109549800D02*
X206942000Y-109549800D01*
X207267000Y-109874800D02*
X207267000Y-110849800D01*
X206942000Y-109549800D02*
X207267000Y-109874800D01*
X207267000Y-110849800D02*
X204367000Y-110849800D01*
X117567000Y-111262300D02*
X117567000Y-110437300D01*
X119167000Y-111262300D02*
X117567000Y-111262300D01*
X117567000Y-110437300D02*
X119167000Y-110437300D01*
X119167000Y-110437300D02*
X119167000Y-111262300D01*
X161417000Y-110487300D02*
X161417000Y-111312300D01*
X159817000Y-110487300D02*
X161417000Y-110487300D01*
X161417000Y-111312300D02*
X159817000Y-111312300D01*
X159817000Y-111312300D02*
X159817000Y-110487300D01*
X135767000Y-111262300D02*
X134167000Y-111262300D01*
X134167000Y-111262300D02*
X134167000Y-110437300D01*
X134167000Y-110437300D02*
X135767000Y-110437300D01*
X135767000Y-110437300D02*
X135767000Y-111262300D01*
X155417000Y-110487300D02*
X157017000Y-110487300D01*
X155417000Y-111312300D02*
X155417000Y-110487300D01*
X157017000Y-110487300D02*
X157017000Y-111312300D01*
X157017000Y-111312300D02*
X155417000Y-111312300D01*
X110417000Y-111262300D02*
X110417000Y-110437300D01*
X112017000Y-111262300D02*
X110417000Y-111262300D01*
X110417000Y-110437300D02*
X112017000Y-110437300D01*
X112017000Y-110437300D02*
X112017000Y-111262300D01*
X164867000Y-111312300D02*
X163267000Y-111312300D01*
X163267000Y-111312300D02*
X163267000Y-110487300D01*
X163267000Y-110487300D02*
X164867000Y-110487300D01*
X164867000Y-110487300D02*
X164867000Y-111312300D01*
X194667000Y-111212300D02*
X193067000Y-111212300D01*
X193067000Y-110387300D02*
X194667000Y-110387300D01*
X194667000Y-110387300D02*
X194667000Y-111212300D01*
X193067000Y-111212300D02*
X193067000Y-110387300D01*
X209229500Y-106949800D02*
X208404500Y-106949800D01*
X209229500Y-105349800D02*
X209229500Y-106949800D01*
X208404500Y-105349800D02*
X209229500Y-105349800D01*
X208404500Y-106949800D02*
X208404500Y-105349800D01*
X191117000Y-111212300D02*
X189517000Y-111212300D01*
X189517000Y-111212300D02*
X189517000Y-110387300D01*
X189517000Y-110387300D02*
X191117000Y-110387300D01*
X191117000Y-110387300D02*
X191117000Y-111212300D01*
X185717000Y-111212300D02*
X185717000Y-110387300D01*
X187317000Y-110387300D02*
X187317000Y-111212300D01*
X185717000Y-110387300D02*
X187317000Y-110387300D01*
X187317000Y-111212300D02*
X185717000Y-111212300D01*
X177967000Y-111262300D02*
X177967000Y-110437300D01*
X179567000Y-110437300D02*
X179567000Y-111262300D01*
X177967000Y-110437300D02*
X179567000Y-110437300D01*
X179567000Y-111262300D02*
X177967000Y-111262300D01*
X127117000Y-110437300D02*
X128717000Y-110437300D01*
X127117000Y-111262300D02*
X127117000Y-110437300D01*
X128717000Y-110437300D02*
X128717000Y-111262300D01*
X128717000Y-111262300D02*
X127117000Y-111262300D01*
M02*
