M48
; DRILL file {KiCad (6.0.9)} date Fri Feb  3 00:01:36 2023
; FORMAT={-:-/ absolute / inch / decimal}
; #@! TF.CreationDate,2023-02-03T00:01:36-05:00
; #@! TF.GenerationSoftware,Kicad,Pcbnew,(6.0.9)
; #@! TF.FileFunction,Plated,1,2,PTH
FMAT,2
INCH
; #@! TA.AperFunction,Plated,PTH,ViaDrill
T1C0.0157
; #@! TA.AperFunction,Plated,PTH,ComponentDrill
T2C0.0299
; #@! TA.AperFunction,Plated,PTH,ComponentDrill
T3C0.0300
; #@! TA.AperFunction,Plated,PTH,ComponentDrill
T4C0.0310
; #@! TA.AperFunction,Plated,PTH,ComponentDrill
T5C0.0315
; #@! TA.AperFunction,Plated,PTH,ComponentDrill
T6C0.0354
; #@! TA.AperFunction,Plated,PTH,ComponentDrill
T7C0.0374
; #@! TA.AperFunction,Plated,PTH,ComponentDrill
T8C0.0394
; #@! TA.AperFunction,Plated,PTH,ComponentDrill
T9C0.0402
; #@! TA.AperFunction,Plated,PTH,ComponentDrill
T10C0.0433
; #@! TA.AperFunction,Plated,PTH,ComponentDrill
T11C0.0472
; #@! TA.AperFunction,Plated,PTH,ComponentDrill
T12C0.0512
; #@! TA.AperFunction,Plated,PTH,ComponentDrill
T13C0.0551
; #@! TA.AperFunction,Plated,PTH,ComponentDrill
T14C0.0630
; #@! TA.AperFunction,Plated,PTH,ComponentDrill
T15C0.0650
; #@! TA.AperFunction,Plated,PTH,ComponentDrill
T16C0.0669
; #@! TA.AperFunction,Plated,PTH,ComponentDrill
T17C0.1250
%
G90
G05
T1
X-5.1122Y3.571
X-5.1004Y-0.1298
X-5.0925Y0.8427
X-5.0847Y3.2848
X-5.0665Y2.1911
X-5.0626Y2.5986
X-5.0532Y1.697
X-5.0532Y1.0238
X-4.95Y3.3561
X-4.9114Y2.1616
X-4.8823Y2.3466
X-4.8563Y0.7403
X-4.8524Y0.8545
X-4.8287Y0.9608
X-4.7894Y1.134
X-4.687Y-0.3502
X-4.6673Y3.1635
X-4.6083Y2.1616
X-4.6043Y2.2679
X-4.5984Y2.9627
X-4.5925Y1.2718
X-4.5768Y1.0435
X-4.5768Y-0.3502
X-4.5752Y0.9194
X-4.563Y0.8131
X-4.5285Y1.5805
X-4.5213Y3.3675
X-4.4823Y-0.3502
X-4.4508Y2.012
X-4.45Y3.2395
X-4.4469Y2.5986
X-4.439Y2.8466
X-4.4311Y3.1064
X-4.3681Y1.4923
X-4.3524Y0.9686
X-4.3327Y2.8505
X-4.3169Y2.4982
X-4.313Y0.8072
X-4.2579Y1.8931
X-4.2563Y3.6226
X-4.2185Y2.1183
X-4.1732Y3.4864
X-4.1516Y2.8683
X-4.1496Y3.1438
X-4.0787Y0.9155
X-4.0453Y1.7167
X-4.042Y0.5979
X-4.0341Y0.3794
X-4.0341Y3.6281
X-4.0276Y2.2442
X-3.9921Y3.1458
X-3.9193Y1.823
X-3.8524Y2.6576
X-3.8051Y2.9372
X-3.8012Y2.1025
X-3.7299Y3.1466
X-3.6752Y1.8387
X-3.5962Y1.8476
X-3.5177Y2.6517
X-3.5099Y2.9293
X-3.5099Y1.0651
X-3.4862Y1.7521
X-3.435Y2.2206
X-3.3957Y2.5198
X-3.3642Y1.886
X-3.3445Y2.3663
X-3.3445Y1.5907
X-3.2106Y2.1222
X-3.2047Y1.8249
X-3.187Y1.508
X-3.128Y2.886
X-3.0532Y2.9293
X-3.0413Y2.76
X-2.998Y2.9214
X-2.9193Y2.3702
X-2.9154Y1.945
X-2.9081Y0.6235
X-2.9075Y1.7738
X-2.853Y0.3794
X-2.7658Y1.0749
X-2.7476Y3.4915
X-2.7465Y3.3041
X-2.7224Y2.4844
X-2.7146Y2.8938
X-2.687Y1.5809
X-2.6492Y1.2124
X-2.628Y2.1891
X-2.4921Y1.0749
X-2.4902Y1.319
X-2.4587Y3.3053
X-2.4587Y1.76
X-2.3996Y2.6064
X-2.3957Y3.0671
X-2.3878Y0.9529
X-2.3819Y3.4942
X-2.3484Y1.9214
X-2.3215Y0.1353
X-2.2979Y0.3183
X-2.2821Y0.6215
X-2.252Y3.5474
X-2.2303Y2.012
X-2.2185Y1.6025
X-2.1929Y0.7049
X-2.187Y2.8151
X-2.1221Y0.9765
X-2.0768Y1.1419
X-2.0374Y2.2442
X-2.0295Y2.0435
X-1.9193Y1.7639
X-1.8878Y2.508
X-1.8471Y0.7258
X-1.774Y2.0143
X-1.7661Y2.3486
X-1.7303Y3.0907
X-1.6995Y0.6766
X-1.6975Y0.338
X-1.6595Y1.882
X-1.6358Y1.1458
X-1.5386Y2.4789
X-1.4398Y2.7037
X-1.4382Y2.8438
X-1.4374Y2.3927
X-1.4276Y2.5033
X-1.3799Y1.8269
X-1.3524Y3.3309
X-1.3333Y0.7357
X-1.3169Y3.3702
X-1.3169Y2.4903
X-1.29Y0.1707
X-1.2635Y2.7332
X-1.2592Y2.8789
X-1.2539Y1.1438
X-1.2083Y3.0962
X-1.2075Y2.9486
X-1.2025Y2.6679
X-1.1281Y2.9722
X-1.1004Y0.7305
X-1.0951Y0.5861
X-1.0925Y2.3966
X-1.0728Y1.3092
X-1.065Y1.0789
X-1.0335Y3.2403
X-1.0102Y2.9163
X-1.0043Y2.669
X-0.9575Y2.51
X-0.8799Y2.2222
X-0.8728Y3.2332
X-0.8287Y3.2826
X-0.7776Y3.2826
X-0.7736Y2.3387
X-0.7697Y0.7265
X-0.7449Y2.0068
X-0.7256Y3.2446
X-0.6917Y3.0108
X-0.6161Y0.9057
X-0.5453Y0.7246
X-0.5341Y0.3577
X-0.5335Y2.8033
X-0.5264Y1.7249
X-0.5209Y3.0214
X-0.4764Y0.9372
X-0.4311Y2.1734
X-0.3768Y3.1643
X-0.3642Y2.2561
X-0.3642Y1.7364
X-0.3445Y0.7049
X-0.3366Y2.8383
X-0.3287Y2.3427
X-0.2933Y0.9293
X-0.2421Y1.4076
X-0.2343Y2.0297
X-0.2331Y3.0222
X-0.2106Y3.3427
X-0.2021Y0.7723
X-0.1508Y1.0009
X-0.0886Y1.9608
X-0.0443Y2.3624
X-0.0413Y-0.303
X-0.0374Y2.9332
X-0.0177Y3.319
X-0.0177Y2.1301
X-0.0122Y2.4434
X-0.0099Y2.3116
X-0.0099Y0.7994
X0.0295Y1.8131
X0.0295Y0.9726
X0.0295Y0.132
X0.061Y-0.303
X0.065Y2.012
X0.1122Y0.6675
X0.1201Y2.8584
X0.1713Y1.3328
X0.1713Y1.1557
X0.1791Y-0.303
X0.252Y1.8584
X0.2579Y0.7797
X0.2795Y0.9962
X0.3409Y3.3234
X0.3839Y1.4805
X0.4055Y1.9883
X0.4055Y1.8643
X0.4527Y0.7915
X0.5Y0.4864
X0.5964Y1.7521
X0.6024Y1.4903
X0.624Y0.8505
X0.6437Y2.8584
X0.6457Y3.3309
X0.6476Y3.5671
X0.6484Y3.1435
T2
X-4.6906Y1.6639
X-4.6406Y1.7639
X-4.5906Y1.6639
X-4.5406Y1.7639
X-4.4906Y1.6639
X-4.4406Y1.7639
X-4.3906Y1.6639
X-4.3406Y1.7639
X-3.911Y1.6679
X-3.861Y1.7679
X-3.811Y1.6679
X-3.761Y1.7679
X-3.711Y1.6679
X-3.661Y1.7679
X-3.611Y1.6679
X-3.561Y1.7679
T3
X0.4536Y1.3994
X0.4536Y1.2933
X0.4536Y1.1873
X0.4536Y1.0812
X0.6036Y1.3903
X0.6036Y1.2903
X0.6036Y1.1903
X0.6036Y1.0903
T4
X-3.4646Y1.2925
X-3.4646Y0.9925
X-3.3646Y1.2925
X-3.3646Y0.9925
X-3.2646Y1.2925
X-3.2646Y0.9925
X-3.1646Y1.2925
X-3.1646Y0.9925
X-3.0646Y1.2925
X-3.0646Y0.9925
X-2.9646Y1.2925
X-2.9646Y0.9925
X-2.8646Y1.2925
X-2.8646Y0.9925
X-2.7646Y1.2925
X-2.7646Y0.9925
X-2.6646Y1.2925
X-2.6646Y0.9925
X-2.5646Y1.2925
X-2.5646Y0.9925
X-2.0446Y1.3025
X-2.0446Y1.0025
X-1.9446Y1.3025
X-1.9446Y1.0025
X-1.8446Y1.3025
X-1.8446Y1.0025
X-1.7446Y1.3025
X-1.7446Y1.0025
X-1.6446Y1.3025
X-1.6446Y1.0025
X-1.5446Y1.3025
X-1.5446Y1.0025
X-1.4446Y1.3025
X-1.4446Y1.0025
X-1.3446Y1.3025
X-1.3446Y1.0025
X-1.2446Y1.3025
X-1.2446Y1.0025
X-1.1446Y1.3025
X-1.1446Y1.0025
T5
X-5.063Y2.7305
X-5.063Y2.4305
X-4.8102Y0.0556
X-4.8102Y-0.2444
X-4.5039Y2.9576
X-4.5039Y2.6576
X-4.487Y0.9726
X-4.4862Y1.1104
X-4.3583Y3.0639
X-4.3583Y2.7639
X-4.2488Y2.8651
X-4.2488Y2.7651
X-4.2488Y2.6651
X-4.2488Y2.5651
X-4.187Y0.9726
X-4.1862Y1.1104
X-4.1557Y0.8185
X-4.1516Y2.447
X-4.128Y1.2561
X-4.0557Y0.8185
X-4.0327Y1.5001
X-3.9557Y0.8185
X-3.9547Y2.447
X-3.9488Y2.8651
X-3.9488Y2.7651
X-3.9488Y2.6651
X-3.9488Y2.5651
X-3.9327Y1.5001
X-3.8557Y0.8185
X-3.8327Y1.5001
X-3.828Y1.2561
X-3.7557Y0.8185
X-3.7327Y1.5001
X-3.6557Y0.8185
X-3.6327Y1.5001
X-3.5557Y0.8185
X-3.5327Y1.5001
X-3.4557Y0.8185
X-3.4327Y1.5001
X-3.3327Y1.5001
X-3.3175Y0.8185
X-3.2862Y2.523
X-3.2862Y2.423
X-3.2862Y2.323
X-3.2862Y2.223
X-3.2862Y2.123
X-3.2862Y2.023
X-3.2862Y1.923
X-3.2862Y1.823
X-3.2854Y1.6891
X-3.2175Y0.8185
X-3.1175Y0.8185
X-3.0886Y1.6891
X-3.0175Y0.8185
X-2.9862Y2.523
X-2.9862Y2.423
X-2.9862Y2.323
X-2.9862Y2.223
X-2.9862Y2.123
X-2.9862Y2.023
X-2.9862Y1.923
X-2.9862Y1.823
X-2.9175Y0.8185
X-2.8175Y0.8185
X-2.7175Y0.8185
X-2.6175Y0.8185
X-2.4046Y1.2394
X-2.4046Y1.0425
X-1.8752Y0.8185
X-1.7752Y0.8185
X-1.6752Y0.8185
X-1.5752Y0.8185
X-1.4752Y0.8185
X-1.3752Y0.8185
X-1.2752Y0.8185
X-1.1752Y0.8185
X-1.0356Y0.8185
X-0.9746Y1.2394
X-0.9746Y1.0425
X-0.9356Y0.8185
X-0.8356Y0.8185
X-0.811Y1.262
X-0.811Y1.1832
X-0.7356Y0.8185
X-0.6356Y0.8185
X-0.547Y2.2182
X-0.547Y2.0962
X-0.5423Y2.6434
X-0.5423Y2.5434
X-0.5423Y2.4434
X-0.5423Y2.3434
X-0.5356Y0.8185
X-0.4406Y2.7573
X-0.4356Y0.8185
X-0.3356Y0.8185
X-0.247Y2.2182
X-0.247Y2.0962
X-0.2438Y2.7573
X-0.2423Y2.6434
X-0.2423Y2.5434
X-0.2423Y2.4434
X-0.2423Y2.3434
X-0.1559Y1.9883
X0.1441Y1.9883
X0.3318Y0.0546
X0.3318Y-0.2454
X0.3319Y1.8624
X0.3327Y1.9883
X0.6319Y1.8624
X0.6327Y1.9883
T6
X-5.0177Y1.9844
X-5.0177Y1.886
X-5.0177Y1.7875
X-4.8878Y1.9844
X-4.8878Y1.886
X-4.8878Y1.7875
X-4.7932Y0.2756
X-4.7932Y0.1756
X-3.7284Y1.2523
X-3.6284Y1.2523
X0.3388Y0.2666
X0.3388Y0.1666
T7
X-4.9744Y3.2127
X-4.9744Y3.1143
X-4.9744Y3.0159
X-4.9744Y2.9175
T8
X-1.3563Y2.5907
X-1.2579Y2.5907
X-1.1555Y2.5907
X-1.0571Y2.5907
X-0.6083Y1.1222
X-0.4114Y1.1222
X-0.0964Y1.3403
X-0.0964Y1.2403
X-0.0964Y1.1403
X-0.013Y0.8899
X0.087Y0.8899
X0.1768Y3.2324
X0.187Y0.8899
X0.2768Y3.2324
X0.3768Y3.2324
X0.4768Y3.2324
X0.5768Y3.2324
X0.5925Y0.6025
X0.5925Y0.5025
X0.5925Y0.4025
T9
X-4.0244Y3.4242
X-4.0244Y3.3242
X-3.9244Y3.4242
X-3.9244Y3.3242
X-3.8244Y3.4242
X-3.8244Y3.3242
X-3.7244Y3.4242
X-3.7244Y3.3242
X-3.6244Y3.4242
X-3.6244Y3.3242
X-3.5244Y3.4242
X-3.5244Y3.3242
X-3.4244Y3.4242
X-3.4244Y3.3242
X-3.3244Y3.4242
X-3.3244Y3.3242
X-3.2244Y3.4242
X-3.2244Y3.3242
X-3.1244Y3.4242
X-3.1244Y3.3242
X-3.0244Y3.4242
X-3.0244Y3.3242
X-2.9244Y3.4242
X-2.9244Y3.3242
T10
X-2.1274Y3.5395
X-2.1274Y3.4395
X-2.1274Y1.6395
X-2.1274Y1.5395
X-2.0274Y3.5395
X-2.0274Y3.4395
X-2.0274Y1.6395
X-2.0274Y1.5395
X-1.9274Y3.5395
X-1.9274Y3.4395
X-1.9274Y1.6395
X-1.9274Y1.5395
X-1.8274Y3.5395
X-1.8274Y3.4395
X-1.8274Y1.6395
X-1.8274Y1.5395
X-1.7274Y3.5395
X-1.7274Y3.4395
X-1.7274Y1.6395
X-1.7274Y1.5395
X-1.7067Y2.134
X-1.7067Y1.9568
X-1.6274Y3.5395
X-1.6274Y3.4395
X-1.6274Y1.6395
X-1.6274Y1.5395
X-1.5274Y3.5395
X-1.5274Y3.4395
X-1.5274Y1.6395
X-1.5274Y1.5395
X-1.4508Y2.134
X-1.4508Y1.9568
X-1.4274Y3.5395
X-1.4274Y3.4395
X-1.4274Y1.6395
X-1.4274Y1.5395
X-1.3274Y3.5395
X-1.3274Y3.4395
X-1.3274Y1.6395
X-1.3274Y1.5395
X-1.3091Y2.2836
X-1.3091Y2.1064
X-1.3091Y1.9647
X-1.3091Y1.7875
X-1.2274Y3.5395
X-1.2274Y3.4395
X-1.2274Y1.6395
X-1.2274Y1.5395
X-1.1274Y3.5395
X-1.1274Y3.4395
X-1.1274Y1.6395
X-1.1274Y1.5395
X-1.0532Y2.2836
X-1.0532Y2.1064
X-1.0532Y1.9647
X-1.0532Y1.7875
X-1.0274Y3.5395
X-1.0274Y3.4395
X-1.0274Y1.6395
X-1.0274Y1.5395
X-0.9274Y3.5395
X-0.9274Y3.4395
X-0.9274Y1.6395
X-0.9274Y1.5395
X-0.9193Y2.1261
X-0.9193Y1.949
X-0.8274Y3.5395
X-0.8274Y3.4395
X-0.8274Y1.6395
X-0.8274Y1.5395
X-0.7274Y3.5395
X-0.7274Y3.4395
X-0.7274Y1.6395
X-0.7274Y1.5395
X-0.6634Y2.1261
X-0.6634Y1.949
X-0.6274Y3.5395
X-0.6274Y3.4395
X-0.6274Y1.6395
X-0.6274Y1.5395
X-0.5274Y3.5395
X-0.5274Y3.4395
X-0.5274Y1.6395
X-0.5274Y1.5395
X-0.5217Y3.2836
X-0.5217Y3.1064
X-0.4274Y3.5395
X-0.4274Y3.4395
X-0.4274Y1.6395
X-0.4274Y1.5395
X-0.3274Y3.5395
X-0.3274Y3.4395
X-0.3274Y1.6395
X-0.3274Y1.5395
X-0.2658Y3.2836
X-0.2658Y3.1064
X-0.2274Y3.5395
X-0.2274Y3.4395
X-0.2274Y1.6395
X-0.2274Y1.5395
X-0.1274Y3.5395
X-0.1274Y3.4395
X-0.1274Y1.6395
X-0.1274Y1.5395
X-0.0274Y3.5395
X-0.0274Y3.4395
X-0.0274Y1.6395
X-0.0274Y1.5395
X0.0726Y3.5395
X0.0726Y3.4395
X0.0726Y1.6395
X0.0726Y1.5395
X0.5512Y0.9373
X0.5512Y0.7873
T11
X-4.4101Y0.5119
X-4.4101Y0.0001
X-4.2723Y0.5119
X-4.2723Y0.0001
X-4.1345Y0.5119
X-4.1345Y0.0001
X-3.8196Y0.5119
X-3.8196Y0.0001
X-3.6818Y0.5119
X-3.6818Y0.0001
X-3.544Y0.5119
X-3.544Y0.0001
X-3.229Y0.5119
X-3.2245Y0.0001
X-3.0912Y0.5119
X-3.0867Y0.0001
X-2.9534Y0.5119
X-2.9489Y0.0001
X-2.6385Y0.5119
X-2.6385Y0.0001
X-2.5007Y0.5119
X-2.5007Y0.0001
X-2.3629Y0.5119
X-2.3629Y0.0001
X-2.0479Y0.5119
X-2.0479Y0.0001
X-1.9101Y0.5119
X-1.9101Y0.0001
X-1.7723Y0.5119
X-1.7723Y0.0001
X-1.4574Y0.5119
X-1.4574Y0.0001
X-1.3196Y0.5119
X-1.3196Y0.0001
X-1.1818Y0.5119
X-1.1818Y0.0001
X-0.8668Y0.5119
X-0.8668Y0.0001
X-0.729Y0.5119
X-0.729Y0.0001
X-0.5912Y0.5119
X-0.5912Y0.0001
X-0.2763Y0.5119
X-0.2763Y0.0001
X-0.1385Y0.5119
X-0.1385Y0.0001
X-0.0007Y0.5119
X-0.0007Y0.0001
T12
X-4.9469Y1.3938
X-4.9469Y1.197
X-4.9469Y1.0001
X-4.9469Y0.8033
T13
X-0.2492Y1.8151
X0.1508Y1.8151
T14
X-3.2986Y-0.349
X-3.2986Y-0.849
X-1.1523Y-0.3544
X-1.1523Y-0.8544
T15
X-4.9935Y0.2466
X-4.9935Y0.101
X-4.9935Y-0.0762
X-4.9935Y-0.2219
X-4.2084Y-0.3459
X-4.2084Y-0.4915
X-4.2084Y-0.6687
X-4.2084Y-0.8144
X-3.9823Y-0.3465
X-3.9823Y-0.4921
X-3.9823Y-0.6693
X-3.9823Y-0.815
X-3.7618Y-0.3465
X-3.7618Y-0.4921
X-3.7618Y-0.6693
X-3.7618Y-0.815
X-3.5413Y-0.3465
X-3.5413Y-0.4921
X-3.5413Y-0.6693
X-3.5413Y-0.815
X-3.0553Y-0.3463
X-3.0553Y-0.4919
X-3.0553Y-0.6691
X-3.0553Y-0.8148
X-2.8128Y-0.3463
X-2.8128Y-0.4919
X-2.8128Y-0.6691
X-2.8128Y-0.8148
X-2.5718Y-0.3463
X-2.5718Y-0.4919
X-2.5718Y-0.6691
X-2.5718Y-0.8148
X-2.3356Y-0.3463
X-2.3356Y-0.4919
X-2.3356Y-0.6691
X-2.3356Y-0.8148
X-2.0911Y-0.3463
X-2.0911Y-0.4919
X-2.0911Y-0.6691
X-2.0911Y-0.8148
X-1.8525Y-0.3463
X-1.8525Y-0.4919
X-1.8525Y-0.6691
X-1.8525Y-0.8148
X-1.621Y-0.3463
X-1.621Y-0.4919
X-1.621Y-0.6691
X-1.621Y-0.8148
X-1.392Y-0.3463
X-1.392Y-0.4919
X-1.392Y-0.6691
X-1.392Y-0.8148
X-0.9161Y-0.3488
X-0.9161Y-0.4945
X-0.9161Y-0.6717
X-0.9161Y-0.8173
X-0.6915Y-0.3488
X-0.6915Y-0.4945
X-0.6915Y-0.6717
X-0.6915Y-0.8173
X-0.4715Y-0.3488
X-0.4715Y-0.4945
X-0.4715Y-0.6717
X-0.4715Y-0.8173
X-0.2515Y-0.3488
X-0.2515Y-0.4945
X-0.2515Y-0.6717
X-0.2515Y-0.8173
X0.5374Y0.2383
X0.5374Y0.0927
X0.5374Y-0.0845
X0.5374Y-0.2302
T16
X-4.9232Y-0.6219
X-4.5492Y-0.6219
X0.0964Y-0.6219
X0.4705Y-0.6219
T17
X-2.3274Y3.3645
X-2.3274Y1.7145
X0.2726Y3.4895
X0.2726Y1.5895
T0
M30
