%TF.GenerationSoftware,KiCad,Pcbnew,(6.0.6)*%
%TF.CreationDate,2022-08-05T23:41:30-04:00*%
%TF.ProjectId,BBB_16,4242425f-3136-42e6-9b69-6361645f7063,v2.1*%
%TF.SameCoordinates,Original*%
%TF.FileFunction,Soldermask,Bot*%
%TF.FilePolarity,Negative*%
%FSLAX46Y46*%
G04 Gerber Fmt 4.6, Leading zero omitted, Abs format (unit mm)*
G04 Created by KiCad (PCBNEW (6.0.6)) date 2022-08-05 23:41:30*
%MOMM*%
%LPD*%
G01*
G04 APERTURE LIST*
G04 Aperture macros list*
%AMRoundRect*
0 Rectangle with rounded corners*
0 $1 Rounding radius*
0 $2 $3 $4 $5 $6 $7 $8 $9 X,Y pos of 4 corners*
0 Add a 4 corners polygon primitive as box body*
4,1,4,$2,$3,$4,$5,$6,$7,$8,$9,$2,$3,0*
0 Add four circle primitives for the rounded corners*
1,1,$1+$1,$2,$3*
1,1,$1+$1,$4,$5*
1,1,$1+$1,$6,$7*
1,1,$1+$1,$8,$9*
0 Add four rect primitives between the rounded corners*
20,1,$1+$1,$2,$3,$4,$5,0*
20,1,$1+$1,$4,$5,$6,$7,0*
20,1,$1+$1,$6,$7,$8,$9,0*
20,1,$1+$1,$8,$9,$2,$3,0*%
G04 Aperture macros list end*
%ADD10C,1.702000*%
%ADD11C,2.577000*%
%ADD12RoundRect,0.301000X-0.650000X-1.550000X0.650000X-1.550000X0.650000X1.550000X-0.650000X1.550000X0*%
%ADD13O,1.902000X3.702000*%
%ADD14RoundRect,0.051000X1.600000X-1.600000X1.600000X1.600000X-1.600000X1.600000X-1.600000X-1.600000X0*%
%ADD15O,3.302000X3.302000*%
%ADD16RoundRect,0.051000X-0.800000X-0.800000X0.800000X-0.800000X0.800000X0.800000X-0.800000X0.800000X0*%
%ADD17O,1.702000X1.702000*%
%ADD18RoundRect,0.051000X-0.850000X0.850000X-0.850000X-0.850000X0.850000X-0.850000X0.850000X0.850000X0*%
%ADD19O,1.802000X1.802000*%
%ADD20C,3.802000*%
%ADD21C,5.000000*%
%ADD22C,1.802000*%
%ADD23RoundRect,0.051000X-0.900000X0.900000X-0.900000X-0.900000X0.900000X-0.900000X0.900000X0.900000X0*%
%ADD24C,1.902000*%
%ADD25RoundRect,0.051000X-0.900000X-0.900000X0.900000X-0.900000X0.900000X0.900000X-0.900000X0.900000X0*%
%ADD26RoundRect,0.051000X1.400000X1.400000X-1.400000X1.400000X-1.400000X-1.400000X1.400000X-1.400000X0*%
%ADD27O,2.902000X2.902000*%
%ADD28C,2.102000*%
%ADD29RoundRect,0.051000X-0.647700X0.647700X-0.647700X-0.647700X0.647700X-0.647700X0.647700X0.647700X0*%
%ADD30C,1.397400*%
%ADD31RoundRect,0.051000X0.800000X0.800000X-0.800000X0.800000X-0.800000X-0.800000X0.800000X-0.800000X0*%
%ADD32C,3.302000*%
%ADD33RoundRect,0.051000X0.750000X0.750000X-0.750000X0.750000X-0.750000X-0.750000X0.750000X-0.750000X0*%
%ADD34C,1.602000*%
%ADD35RoundRect,0.051000X2.000000X2.000000X-2.000000X2.000000X-2.000000X-2.000000X2.000000X-2.000000X0*%
%ADD36C,4.102000*%
%ADD37RoundRect,0.051000X-2.000000X-2.000000X2.000000X-2.000000X2.000000X2.000000X-2.000000X2.000000X0*%
%ADD38RoundRect,0.051000X0.765000X0.765000X-0.765000X0.765000X-0.765000X-0.765000X0.765000X-0.765000X0*%
%ADD39C,1.632000*%
%ADD40C,4.674000*%
%ADD41RoundRect,0.051000X1.000000X-0.952500X1.000000X0.952500X-1.000000X0.952500X-1.000000X-0.952500X0*%
%ADD42O,2.102000X2.007000*%
%ADD43RoundRect,0.301000X-0.725000X0.600000X-0.725000X-0.600000X0.725000X-0.600000X0.725000X0.600000X0*%
%ADD44O,2.052000X1.802000*%
%ADD45C,2.006000*%
%ADD46RoundRect,0.051000X-0.850000X-0.850000X0.850000X-0.850000X0.850000X0.850000X-0.850000X0.850000X0*%
%ADD47RoundRect,0.051000X-1.300000X1.300000X-1.300000X-1.300000X1.300000X-1.300000X1.300000X1.300000X0*%
%ADD48C,2.702000*%
%ADD49RoundRect,0.051000X0.700000X-0.700000X0.700000X0.700000X-0.700000X0.700000X-0.700000X-0.700000X0*%
%ADD50C,1.502000*%
%ADD51RoundRect,0.051000X-0.800000X0.800000X-0.800000X-0.800000X0.800000X-0.800000X0.800000X0.800000X0*%
%ADD52RoundRect,0.051000X1.000000X1.000000X-1.000000X1.000000X-1.000000X-1.000000X1.000000X-1.000000X0*%
%ADD53C,0.902000*%
G04 APERTURE END LIST*
D10*
%TO.C,C4*%
X140041000Y-103123800D03*
X140041000Y-98123800D03*
%TD*%
D11*
%TO.C,F18*%
X74282600Y-135238600D03*
X74282600Y-131538600D03*
X74282600Y-127038600D03*
X74282600Y-123338600D03*
%TD*%
D12*
%TO.C,J2*%
X89100000Y-129600000D03*
D13*
X92600000Y-129600000D03*
X96100000Y-129600000D03*
%TD*%
D12*
%TO.C,J5*%
X119100000Y-116600000D03*
D13*
X122600000Y-116600000D03*
X126100000Y-116600000D03*
%TD*%
D12*
%TO.C,J6*%
X119214342Y-129600000D03*
D13*
X122714342Y-129600000D03*
X126214342Y-129600000D03*
%TD*%
D12*
%TO.C,J7*%
X134100000Y-116600000D03*
D13*
X137600000Y-116600000D03*
X141100000Y-116600000D03*
%TD*%
D12*
%TO.C,J8*%
X134100000Y-129600000D03*
D13*
X137600000Y-129600000D03*
X141100000Y-129600000D03*
%TD*%
D12*
%TO.C,J9*%
X149100000Y-116600000D03*
D13*
X152600000Y-116600000D03*
X156100000Y-116600000D03*
%TD*%
D12*
%TO.C,J10*%
X149100000Y-129600000D03*
D13*
X152600000Y-129600000D03*
X156100000Y-129600000D03*
%TD*%
D12*
%TO.C,J11*%
X164100000Y-116600000D03*
D13*
X167600000Y-116600000D03*
X171100000Y-116600000D03*
%TD*%
D12*
%TO.C,J12*%
X164100000Y-129600000D03*
D13*
X167600000Y-129600000D03*
X171100000Y-129600000D03*
%TD*%
D12*
%TO.C,J13*%
X179100000Y-116600000D03*
D13*
X182600000Y-116600000D03*
X186100000Y-116600000D03*
%TD*%
D12*
%TO.C,J14*%
X179100000Y-129600000D03*
D13*
X182600000Y-129600000D03*
X186100000Y-129600000D03*
%TD*%
D12*
%TO.C,J15*%
X194100000Y-116600000D03*
D13*
X197600000Y-116600000D03*
X201100000Y-116600000D03*
%TD*%
D12*
%TO.C,J16*%
X194100000Y-129600000D03*
D13*
X197600000Y-129600000D03*
X201100000Y-129600000D03*
%TD*%
D11*
%TO.C,F1*%
X94222600Y-150288600D03*
X94222600Y-146588600D03*
X94222600Y-142088600D03*
X94222600Y-138388600D03*
%TD*%
%TO.C,F7*%
X135792600Y-150298600D03*
X135792600Y-146598600D03*
X135792600Y-142098600D03*
X135792600Y-138398600D03*
%TD*%
%TO.C,F14*%
X183553100Y-150363600D03*
X183553100Y-146663600D03*
X183553100Y-142163600D03*
X183553100Y-138463600D03*
%TD*%
D14*
%TO.C,D2*%
X171847600Y-151305000D03*
D15*
X171847600Y-138605000D03*
%TD*%
D10*
%TO.C,C3*%
X176363000Y-103123800D03*
X176363000Y-98123800D03*
%TD*%
D11*
%TO.C,F2*%
X99967600Y-150303600D03*
X99967600Y-146603600D03*
X99967600Y-142103600D03*
X99967600Y-138403600D03*
%TD*%
%TO.C,F6*%
X129672600Y-150298600D03*
X129672600Y-146598600D03*
X129672600Y-142098600D03*
X129672600Y-138398600D03*
%TD*%
%TO.C,F8*%
X141793100Y-150298600D03*
X141793100Y-146598600D03*
X141793100Y-142098600D03*
X141793100Y-138398600D03*
%TD*%
%TO.C,F9*%
X148002600Y-150298600D03*
X148002600Y-146598600D03*
X148002600Y-142098600D03*
X148002600Y-138398600D03*
%TD*%
%TO.C,F10*%
X154062600Y-150298600D03*
X154062600Y-146598600D03*
X154062600Y-142098600D03*
X154062600Y-138398600D03*
%TD*%
%TO.C,F16*%
X194729100Y-150363600D03*
X194729100Y-146663600D03*
X194729100Y-142163600D03*
X194729100Y-138463600D03*
%TD*%
%TO.C,F5*%
X123512600Y-150298600D03*
X123512600Y-146598600D03*
X123512600Y-142098600D03*
X123512600Y-138398600D03*
%TD*%
%TO.C,F3*%
X105567600Y-150303600D03*
X105567600Y-146603600D03*
X105567600Y-142103600D03*
X105567600Y-138403600D03*
%TD*%
%TO.C,F13*%
X177847600Y-150363600D03*
X177847600Y-146663600D03*
X177847600Y-142163600D03*
X177847600Y-138463600D03*
%TD*%
D16*
%TO.C,RN1*%
X95561500Y-108813600D03*
D17*
X98101500Y-108813600D03*
X100641500Y-108813600D03*
X103181500Y-108813600D03*
X105721500Y-108813600D03*
X108261500Y-108813600D03*
X110801500Y-108813600D03*
X113341500Y-108813600D03*
%TD*%
D11*
%TO.C,F11*%
X159942600Y-150298600D03*
X159942600Y-146598600D03*
X159942600Y-142098600D03*
X159942600Y-138398600D03*
%TD*%
D16*
%TO.C,RN3*%
X153486200Y-108813600D03*
D17*
X156026200Y-108813600D03*
X158566200Y-108813600D03*
X161106200Y-108813600D03*
X163646200Y-108813600D03*
X166186200Y-108813600D03*
X168726200Y-108813600D03*
X171266200Y-108813600D03*
%TD*%
D16*
%TO.C,RN4*%
X174812600Y-108813600D03*
D17*
X177352600Y-108813600D03*
X179892600Y-108813600D03*
X182432600Y-108813600D03*
X184972600Y-108813600D03*
X187512600Y-108813600D03*
X190052600Y-108813600D03*
X192592600Y-108813600D03*
%TD*%
D16*
%TO.C,RN2*%
X116852700Y-108813600D03*
D17*
X119392700Y-108813600D03*
X121932700Y-108813600D03*
X124472700Y-108813600D03*
X127012700Y-108813600D03*
X129552700Y-108813600D03*
X132092700Y-108813600D03*
X134632700Y-108813600D03*
%TD*%
D11*
%TO.C,F4*%
X111167600Y-150303600D03*
X111167600Y-146603600D03*
X111167600Y-142103600D03*
X111167600Y-138403600D03*
%TD*%
D12*
%TO.C,J1*%
X89100000Y-116600000D03*
D13*
X92600000Y-116600000D03*
X96100000Y-116600000D03*
%TD*%
D12*
%TO.C,J3*%
X104100000Y-116600000D03*
D13*
X107600000Y-116600000D03*
X111100000Y-116600000D03*
%TD*%
D12*
%TO.C,J4*%
X104100000Y-129600000D03*
D13*
X107600000Y-129600000D03*
X111100000Y-129600000D03*
%TD*%
D14*
%TO.C,D1*%
X117332600Y-151168600D03*
D15*
X117332600Y-138468600D03*
%TD*%
D10*
%TO.C,R1*%
X86717000Y-62099800D03*
D17*
X86717000Y-54479800D03*
%TD*%
D10*
%TO.C,R2*%
X90417000Y-59399800D03*
D17*
X90417000Y-51779800D03*
%TD*%
D18*
%TO.C,J25*%
X215767000Y-47499800D03*
D19*
X213227000Y-47499800D03*
X210687000Y-47499800D03*
X208147000Y-47499800D03*
X205607000Y-47499800D03*
%TD*%
D11*
%TO.C,F15*%
X189141100Y-150363600D03*
X189141100Y-146663600D03*
X189141100Y-142163600D03*
X189141100Y-138463600D03*
%TD*%
%TO.C,F12*%
X165761100Y-150298600D03*
X165761100Y-146598600D03*
X165761100Y-142098600D03*
X165761100Y-138398600D03*
%TD*%
D20*
%TO.C,REF\u002A\u002A*%
X81427600Y-66318600D03*
%TD*%
%TO.C,REF\u002A\u002A*%
X106527600Y-66318600D03*
%TD*%
D21*
%TO.C,J26*%
X182117000Y-63299800D03*
X158817000Y-63299800D03*
D22*
X166667000Y-63799800D03*
X169167000Y-63799800D03*
X171767000Y-63799800D03*
X174267000Y-63799800D03*
%TD*%
D23*
%TO.C,D5*%
X79370200Y-122604000D03*
D24*
X79370200Y-125144000D03*
%TD*%
D23*
%TO.C,D6*%
X209722200Y-122831000D03*
D24*
X209722200Y-125371000D03*
%TD*%
D20*
%TO.C,REF\u002A\u002A*%
X81127600Y-117118600D03*
%TD*%
D10*
%TO.C,R4*%
X78938400Y-128192000D03*
D17*
X78938400Y-135812000D03*
%TD*%
D10*
%TO.C,R5*%
X209544400Y-128215800D03*
D17*
X209544400Y-135835800D03*
%TD*%
D25*
%TO.C,D4*%
X106416900Y-97795900D03*
D24*
X108956900Y-97795900D03*
%TD*%
D11*
%TO.C,F17*%
X214726000Y-135181800D03*
X214726000Y-131481800D03*
X214726000Y-126981800D03*
X214726000Y-123281800D03*
%TD*%
D10*
%TO.C,R7*%
X194843740Y-76360500D03*
D17*
X187223740Y-76360500D03*
%TD*%
D10*
%TO.C,C5*%
X100667000Y-67449800D03*
X95667000Y-67449800D03*
%TD*%
D26*
%TO.C,D3*%
X190167000Y-97699800D03*
D27*
X180007000Y-97699800D03*
%TD*%
D28*
%TO.C,SW5*%
X194367000Y-46199800D03*
X187867000Y-46199800D03*
X194367000Y-50699800D03*
X187867000Y-50699800D03*
%TD*%
D29*
%TO.C,U4*%
X172045000Y-96519800D03*
D30*
X169505000Y-96519800D03*
X166965000Y-96519800D03*
X164425000Y-96519800D03*
X161885000Y-96519800D03*
X159345000Y-96519800D03*
X156805000Y-96519800D03*
X154265000Y-96519800D03*
X151725000Y-96519800D03*
X149185000Y-96519800D03*
X149185000Y-104139800D03*
X151725000Y-104139800D03*
X154265000Y-104139800D03*
X156805000Y-104139800D03*
X159345000Y-104139800D03*
X161885000Y-104139800D03*
X164425000Y-104139800D03*
X166965000Y-104139800D03*
X169505000Y-104139800D03*
X172045000Y-104139800D03*
%TD*%
D10*
%TO.C,C6*%
X194925280Y-59569000D03*
X189925280Y-59569000D03*
%TD*%
%TO.C,R6*%
X194843740Y-73260500D03*
D17*
X187223740Y-73260500D03*
%TD*%
D16*
%TO.C,U6*%
X187343740Y-62460500D03*
D17*
X187343740Y-65000500D03*
X187343740Y-67540500D03*
X187343740Y-70080500D03*
X194963740Y-70080500D03*
X194963740Y-67540500D03*
X194963740Y-65000500D03*
X194963740Y-62460500D03*
%TD*%
D29*
%TO.C,U3*%
X135977000Y-96773800D03*
D30*
X133437000Y-96773800D03*
X130897000Y-96773800D03*
X128357000Y-96773800D03*
X125817000Y-96773800D03*
X123277000Y-96773800D03*
X120737000Y-96773800D03*
X118197000Y-96773800D03*
X115657000Y-96773800D03*
X113117000Y-96773800D03*
X113117000Y-104393800D03*
X115657000Y-104393800D03*
X118197000Y-104393800D03*
X120737000Y-104393800D03*
X123277000Y-104393800D03*
X125817000Y-104393800D03*
X128357000Y-104393800D03*
X130897000Y-104393800D03*
X133437000Y-104393800D03*
X135977000Y-104393800D03*
%TD*%
D31*
%TO.C,U5*%
X100817000Y-64449800D03*
D17*
X100817000Y-61909800D03*
X100817000Y-59369800D03*
X100817000Y-56829800D03*
X93197000Y-56829800D03*
X93197000Y-59369800D03*
X93197000Y-61909800D03*
X93197000Y-64449800D03*
%TD*%
D28*
%TO.C,SW3*%
X167867000Y-79699800D03*
X174367000Y-79699800D03*
X174367000Y-84199800D03*
X167867000Y-84199800D03*
%TD*%
D32*
%TO.C,J20*%
X92137000Y-78449800D03*
X80707000Y-78449800D03*
D33*
X90867000Y-84799800D03*
D34*
X89597000Y-87339800D03*
X88327000Y-84799800D03*
X87057000Y-87339800D03*
X85787000Y-84799800D03*
X84517000Y-87339800D03*
X83247000Y-84799800D03*
X81977000Y-87339800D03*
%TD*%
D10*
%TO.C,C7*%
X117667000Y-86699800D03*
X122667000Y-86699800D03*
%TD*%
D35*
%TO.C,J17*%
X85567000Y-145399800D03*
D36*
X76067000Y-145399800D03*
%TD*%
D37*
%TO.C,J18*%
X203567000Y-145399800D03*
D36*
X213067000Y-145399800D03*
%TD*%
D32*
%TO.C,J21*%
X111937000Y-78349800D03*
X100507000Y-78349800D03*
D33*
X110667000Y-84699800D03*
D34*
X109397000Y-87239800D03*
X108127000Y-84699800D03*
X106857000Y-87239800D03*
X105587000Y-84699800D03*
X104317000Y-87239800D03*
X103047000Y-84699800D03*
X101777000Y-87239800D03*
%TD*%
D31*
%TO.C,RN5*%
X116467000Y-91499800D03*
D17*
X113927000Y-91499800D03*
X111387000Y-91499800D03*
X108847000Y-91499800D03*
X106307000Y-91499800D03*
X103767000Y-91499800D03*
X101227000Y-91499800D03*
X98687000Y-91499800D03*
%TD*%
D31*
%TO.C,U7*%
X125267000Y-83299800D03*
D17*
X125267000Y-80759800D03*
X125267000Y-78219800D03*
X125267000Y-75679800D03*
X125267000Y-73139800D03*
X125267000Y-70599800D03*
X125267000Y-68059800D03*
X125267000Y-65519800D03*
X117647000Y-65519800D03*
X117647000Y-68059800D03*
X117647000Y-70599800D03*
X117647000Y-73139800D03*
X117647000Y-75679800D03*
X117647000Y-78219800D03*
X117647000Y-80759800D03*
X117647000Y-83299800D03*
%TD*%
D38*
%TO.C,J24*%
X126837000Y-42629800D03*
D39*
X126837000Y-45169800D03*
X124297000Y-42629800D03*
X124297000Y-45169800D03*
X121757000Y-42629800D03*
X121757000Y-45169800D03*
X119217000Y-42629800D03*
X119217000Y-45169800D03*
X116677000Y-42629800D03*
X116677000Y-45169800D03*
X114137000Y-42629800D03*
X114137000Y-45169800D03*
X111597000Y-42629800D03*
X111597000Y-45169800D03*
X109057000Y-42629800D03*
X109057000Y-45169800D03*
X106517000Y-42629800D03*
X106517000Y-45169800D03*
X103977000Y-42629800D03*
X103977000Y-45169800D03*
X101437000Y-42629800D03*
X101437000Y-45169800D03*
X98897000Y-42629800D03*
X98897000Y-45169800D03*
%TD*%
D25*
%TO.C,U1*%
X202962000Y-87959800D03*
D24*
X202962000Y-90499800D03*
X200422000Y-87959800D03*
X200422000Y-90499800D03*
X197882000Y-87959800D03*
X197882000Y-90499800D03*
X195342000Y-87959800D03*
X195342000Y-90499800D03*
X192802000Y-87959800D03*
X192802000Y-90499800D03*
X190262000Y-87959800D03*
X190262000Y-90499800D03*
X187722000Y-87959800D03*
X187722000Y-90499800D03*
X185182000Y-87959800D03*
X185182000Y-90499800D03*
X182642000Y-87959800D03*
X182642000Y-90499800D03*
X180102000Y-87959800D03*
X180102000Y-90499800D03*
X177562000Y-87959800D03*
X177562000Y-90499800D03*
X175022000Y-87959800D03*
X175022000Y-90499800D03*
X172482000Y-87959800D03*
X172482000Y-90499800D03*
X169942000Y-87959800D03*
X169942000Y-90499800D03*
X167402000Y-87959800D03*
X167402000Y-90499800D03*
X164862000Y-87959800D03*
X164862000Y-90499800D03*
X162322000Y-87959800D03*
X162322000Y-90499800D03*
X159782000Y-87959800D03*
X159782000Y-90499800D03*
X157242000Y-87959800D03*
X157242000Y-90499800D03*
X154702000Y-87959800D03*
X154702000Y-90499800D03*
X152162000Y-87959800D03*
X152162000Y-90499800D03*
X149622000Y-87959800D03*
X149622000Y-90499800D03*
X147082000Y-87959800D03*
X147082000Y-90499800D03*
D25*
X202962000Y-39699800D03*
D24*
X202962000Y-42239800D03*
X200422000Y-39699800D03*
X200422000Y-42239800D03*
X197882000Y-39699800D03*
X197882000Y-42239800D03*
X195342000Y-39699800D03*
X195342000Y-42239800D03*
X192802000Y-39699800D03*
X192802000Y-42239800D03*
X190262000Y-39699800D03*
X190262000Y-42239800D03*
X187722000Y-39699800D03*
X187722000Y-42239800D03*
X185182000Y-39699800D03*
X185182000Y-42239800D03*
X182642000Y-39699800D03*
X182642000Y-42239800D03*
X180102000Y-39699800D03*
X180102000Y-42239800D03*
X177562000Y-39699800D03*
X177562000Y-42239800D03*
X175022000Y-39699800D03*
X175022000Y-42239800D03*
X172482000Y-39699800D03*
X172482000Y-42239800D03*
X169942000Y-39699800D03*
X169942000Y-42239800D03*
X167402000Y-39699800D03*
X167402000Y-42239800D03*
X164862000Y-39699800D03*
X164862000Y-42239800D03*
X162322000Y-39699800D03*
X162322000Y-42239800D03*
X159782000Y-39699800D03*
X159782000Y-42239800D03*
X157242000Y-39699800D03*
X157242000Y-42239800D03*
X154702000Y-39699800D03*
X154702000Y-42239800D03*
X152162000Y-39699800D03*
X152162000Y-42239800D03*
X149622000Y-39699800D03*
X149622000Y-42239800D03*
X147082000Y-39699800D03*
X147082000Y-42239800D03*
D40*
X142002000Y-44144800D03*
X208042000Y-40969800D03*
X208042000Y-89229800D03*
X142002000Y-86054800D03*
%TD*%
D28*
%TO.C,SW2*%
X174367000Y-71599800D03*
X167867000Y-71599800D03*
X167867000Y-76099800D03*
X174367000Y-76099800D03*
%TD*%
%TO.C,SW1*%
X164267000Y-75399800D03*
X157767000Y-75399800D03*
X164267000Y-79899800D03*
X157767000Y-79899800D03*
%TD*%
%TO.C,SW4*%
X177767000Y-75599800D03*
X184267000Y-75599800D03*
X177767000Y-80099800D03*
X184267000Y-80099800D03*
%TD*%
D20*
%TO.C,REF\u002A\u002A*%
X208127600Y-117118600D03*
%TD*%
D18*
%TO.C,J23*%
X205867000Y-106999800D03*
D19*
X203327000Y-106999800D03*
X200787000Y-106999800D03*
%TD*%
D41*
%TO.C,U2*%
X214467000Y-99899800D03*
D42*
X214467000Y-97359800D03*
X214467000Y-94819800D03*
%TD*%
D43*
%TO.C,J19*%
X74767000Y-47999800D03*
D44*
X74767000Y-50499800D03*
X74767000Y-52999800D03*
X74767000Y-55499800D03*
%TD*%
D45*
%TO.C,J27*%
X215117459Y-109205360D03*
X215117459Y-105395360D03*
%TD*%
D46*
%TO.C,J28*%
X216167000Y-114099800D03*
D19*
X216167000Y-116639800D03*
X216167000Y-119179800D03*
%TD*%
D32*
%TO.C,S2*%
X147167000Y-80599800D03*
%TD*%
D47*
%TO.C,J22*%
X75467000Y-94199800D03*
D48*
X75467000Y-99199800D03*
X75467000Y-104199800D03*
X75467000Y-109199800D03*
%TD*%
D10*
%TO.C,R9*%
X94767000Y-104899800D03*
D17*
X87147000Y-104899800D03*
%TD*%
D10*
%TO.C,R10*%
X87167000Y-101399800D03*
D17*
X94787000Y-101399800D03*
%TD*%
D49*
%TO.C,SW6*%
X73667000Y-84199800D03*
D50*
X73667000Y-81699800D03*
X73667000Y-79199800D03*
X76967000Y-84199800D03*
X76967000Y-81699800D03*
X76967000Y-79199800D03*
%TD*%
D10*
%TO.C,R3*%
X96267000Y-97699800D03*
D17*
X103887000Y-97699800D03*
%TD*%
D51*
%TO.C,C2*%
X192967000Y-102399800D03*
D10*
X192967000Y-104399800D03*
%TD*%
D52*
%TO.C,C1*%
X203367000Y-98299800D03*
D28*
X198367000Y-98299800D03*
%TD*%
D10*
%TO.C,R8*%
X72517000Y-60249800D03*
D17*
X72517000Y-67869800D03*
%TD*%
D10*
%TO.C,R11*%
X199367000Y-82299800D03*
D17*
X206987000Y-82299800D03*
%TD*%
D10*
%TO.C,R12*%
X217167000Y-82299800D03*
D17*
X209547000Y-82299800D03*
%TD*%
D10*
%TO.C,R13*%
X209567000Y-79099800D03*
D17*
X217187000Y-79099800D03*
%TD*%
D20*
%TO.C,REF\u002A\u002A*%
X81427600Y-40918600D03*
%TD*%
D53*
X200167000Y-55099800D03*
X88067000Y-78499800D03*
X157951000Y-112417800D03*
X200867000Y-109299800D03*
X152367000Y-84799800D03*
X196167000Y-78099800D03*
X91567000Y-109099800D03*
X154201000Y-111167800D03*
X91067000Y-57199800D03*
X95717000Y-49749800D03*
X216967000Y-107999800D03*
X131967000Y-66499800D03*
X71767000Y-108199800D03*
X173301000Y-114717800D03*
X72767000Y-86499800D03*
X132167000Y-56099800D03*
X190167000Y-74399800D03*
X191867000Y-85499800D03*
X142151000Y-126167800D03*
X149567000Y-77699800D03*
X166267000Y-53899800D03*
X166067000Y-83199800D03*
X82067000Y-138499800D03*
X137867000Y-45399800D03*
X161667000Y-68199800D03*
X134367000Y-73999800D03*
X201867000Y-104899800D03*
X98817000Y-72599800D03*
X98451000Y-114417800D03*
X101567000Y-83299800D03*
X88567000Y-50699800D03*
X140267000Y-51699800D03*
X188067000Y-100599800D03*
X77867000Y-107899800D03*
X208867000Y-108099800D03*
X116167000Y-89199800D03*
X126967000Y-69399800D03*
X90567000Y-104999800D03*
X166167000Y-58599800D03*
X116167000Y-69499800D03*
X95117000Y-41049800D03*
X112567000Y-85099800D03*
X84867000Y-138499800D03*
X137967000Y-41599800D03*
X173467000Y-66599800D03*
X115667000Y-81699800D03*
X145567000Y-58099800D03*
X78467000Y-105199800D03*
X120167000Y-91299800D03*
X88167000Y-63599800D03*
X71267000Y-38899800D03*
X79467000Y-100799800D03*
X90167000Y-91699800D03*
X187567000Y-58399800D03*
X175167000Y-53299800D03*
X187551000Y-120517800D03*
X111767000Y-62249800D03*
X168351000Y-125267800D03*
X114867000Y-65599800D03*
X71567000Y-132899800D03*
X127067000Y-80199800D03*
X216267000Y-85099800D03*
X111967000Y-55199800D03*
X200667000Y-45299800D03*
X103267000Y-62099800D03*
X178267000Y-104199800D03*
X104567000Y-76199800D03*
X176067000Y-61899800D03*
X202667000Y-137299800D03*
X204167000Y-56999800D03*
X181467000Y-70199800D03*
X88367000Y-57299800D03*
X141467000Y-80799800D03*
X104467000Y-54999800D03*
X87267000Y-138499800D03*
X84167000Y-71999800D03*
X144767000Y-88899800D03*
X84067000Y-74699800D03*
X86093940Y-89458600D03*
X113867000Y-73199800D03*
X205667000Y-137299800D03*
X142751000Y-121517800D03*
X165167000Y-65799800D03*
X149367000Y-72599800D03*
X200667000Y-75499800D03*
X127251000Y-113767800D03*
X98651000Y-119967800D03*
X158001000Y-121017800D03*
X217467000Y-56999800D03*
X144467000Y-78499800D03*
X143151000Y-113817800D03*
X72767000Y-103599800D03*
X99717000Y-49699800D03*
X211067000Y-92899800D03*
X93967000Y-75799800D03*
X192767000Y-70099800D03*
X84317000Y-54349800D03*
X206367000Y-101299800D03*
X128651000Y-119967800D03*
X98367000Y-85999800D03*
X192867000Y-96299800D03*
X140167000Y-63399800D03*
X121667000Y-56299800D03*
X217567000Y-38999800D03*
X216567000Y-102199800D03*
X91467000Y-66149800D03*
X77767000Y-110799800D03*
X216767000Y-92999800D03*
X95667000Y-56749800D03*
X174867000Y-47299800D03*
X84867000Y-103099800D03*
X158967000Y-81799800D03*
X76367000Y-74699800D03*
X138667000Y-84899800D03*
X200067000Y-137299800D03*
X157167000Y-51099800D03*
X167251000Y-110917800D03*
X123867000Y-59499800D03*
X178667000Y-71699800D03*
X195567000Y-92699800D03*
X153167000Y-65899800D03*
X124967000Y-55399800D03*
X123567000Y-55199800D03*
X195767000Y-44699800D03*
X98651382Y-37449789D03*
X191867000Y-72299800D03*
X180067000Y-46224843D03*
X199991999Y-69599800D03*
X200807700Y-67540500D03*
X181367000Y-46224843D03*
X166767000Y-44999800D03*
X167667000Y-43999800D03*
X107767000Y-82899800D03*
X109773454Y-82674790D03*
M02*
