G04 #@! TF.GenerationSoftware,KiCad,Pcbnew,(6.0.5)*
G04 #@! TF.CreationDate,2022-06-02T22:07:04-04:00*
G04 #@! TF.ProjectId,PB_16,50425f31-362e-46b6-9963-61645f706362,v1*
G04 #@! TF.SameCoordinates,Original*
G04 #@! TF.FileFunction,Soldermask,Bot*
G04 #@! TF.FilePolarity,Negative*
%FSLAX46Y46*%
G04 Gerber Fmt 4.6, Leading zero omitted, Abs format (unit mm)*
G04 Created by KiCad (PCBNEW (6.0.5)) date 2022-06-02 22:07:04*
%MOMM*%
%LPD*%
G01*
G04 APERTURE LIST*
G04 Aperture macros list*
%AMRoundRect*
0 Rectangle with rounded corners*
0 $1 Rounding radius*
0 $2 $3 $4 $5 $6 $7 $8 $9 X,Y pos of 4 corners*
0 Add a 4 corners polygon primitive as box body*
4,1,4,$2,$3,$4,$5,$6,$7,$8,$9,$2,$3,0*
0 Add four circle primitives for the rounded corners*
1,1,$1+$1,$2,$3*
1,1,$1+$1,$4,$5*
1,1,$1+$1,$6,$7*
1,1,$1+$1,$8,$9*
0 Add four rect primitives between the rounded corners*
20,1,$1+$1,$2,$3,$4,$5,0*
20,1,$1+$1,$4,$5,$6,$7,0*
20,1,$1+$1,$6,$7,$8,$9,0*
20,1,$1+$1,$8,$9,$2,$3,0*%
G04 Aperture macros list end*
%ADD10RoundRect,0.301000X-0.650000X-1.550000X0.650000X-1.550000X0.650000X1.550000X-0.650000X1.550000X0*%
%ADD11O,1.902000X3.702000*%
%ADD12C,2.577000*%
%ADD13RoundRect,0.051000X-0.800000X-0.800000X0.800000X-0.800000X0.800000X0.800000X-0.800000X0.800000X0*%
%ADD14O,1.702000X1.702000*%
%ADD15C,3.802000*%
%ADD16RoundRect,0.051000X2.000000X2.000000X-2.000000X2.000000X-2.000000X-2.000000X2.000000X-2.000000X0*%
%ADD17C,4.102000*%
%ADD18RoundRect,0.051000X-2.000000X-2.000000X2.000000X-2.000000X2.000000X2.000000X-2.000000X2.000000X0*%
%ADD19RoundRect,0.051000X-0.765000X-0.765000X0.765000X-0.765000X0.765000X0.765000X-0.765000X0.765000X0*%
%ADD20C,1.632000*%
G04 APERTURE END LIST*
D10*
X89100000Y-129600000D03*
D11*
X92600000Y-129600000D03*
X96100000Y-129600000D03*
D10*
X119100000Y-116600000D03*
D11*
X122600000Y-116600000D03*
X126100000Y-116600000D03*
D10*
X119214342Y-129600000D03*
D11*
X122714342Y-129600000D03*
X126214342Y-129600000D03*
D10*
X134100000Y-116600000D03*
D11*
X137600000Y-116600000D03*
X141100000Y-116600000D03*
D10*
X134100000Y-129600000D03*
D11*
X137600000Y-129600000D03*
X141100000Y-129600000D03*
D10*
X149100000Y-116600000D03*
D11*
X152600000Y-116600000D03*
X156100000Y-116600000D03*
D10*
X149100000Y-129600000D03*
D11*
X152600000Y-129600000D03*
X156100000Y-129600000D03*
D10*
X164100000Y-116600000D03*
D11*
X167600000Y-116600000D03*
X171100000Y-116600000D03*
D10*
X164100000Y-129600000D03*
D11*
X167600000Y-129600000D03*
X171100000Y-129600000D03*
D10*
X179100000Y-116600000D03*
D11*
X182600000Y-116600000D03*
X186100000Y-116600000D03*
D10*
X179100000Y-129600000D03*
D11*
X182600000Y-129600000D03*
X186100000Y-129600000D03*
D10*
X194100000Y-116600000D03*
D11*
X197600000Y-116600000D03*
X201100000Y-116600000D03*
D10*
X194100000Y-129600000D03*
D11*
X197600000Y-129600000D03*
X201100000Y-129600000D03*
D12*
X94222600Y-150288600D03*
X94222600Y-146588600D03*
X94222600Y-142088600D03*
X94222600Y-138388600D03*
X134425198Y-150298600D03*
X134425198Y-146598600D03*
X134425198Y-142098600D03*
X134425198Y-138398600D03*
X181328229Y-150363600D03*
X181328229Y-146663600D03*
X181328229Y-142163600D03*
X181328229Y-138463600D03*
X100923033Y-150303600D03*
X100923033Y-146603600D03*
X100923033Y-142103600D03*
X100923033Y-138403600D03*
X127724765Y-150298600D03*
X127724765Y-146598600D03*
X127724765Y-142098600D03*
X127724765Y-138398600D03*
X141125631Y-150298600D03*
X141125631Y-146598600D03*
X141125631Y-142098600D03*
X141125631Y-138398600D03*
X147826064Y-150298600D03*
X147826064Y-146598600D03*
X147826064Y-142098600D03*
X147826064Y-138398600D03*
X154526497Y-150298600D03*
X154526497Y-146598600D03*
X154526497Y-142098600D03*
X154526497Y-138398600D03*
X194729100Y-150363600D03*
X194729100Y-146663600D03*
X194729100Y-142163600D03*
X194729100Y-138463600D03*
X121024332Y-150298600D03*
X121024332Y-146598600D03*
X121024332Y-142098600D03*
X121024332Y-138398600D03*
X107623466Y-150303600D03*
X107623466Y-146603600D03*
X107623466Y-142103600D03*
X107623466Y-138403600D03*
X174627796Y-150363600D03*
X174627796Y-146663600D03*
X174627796Y-142163600D03*
X174627796Y-138463600D03*
D13*
X95561500Y-108813600D03*
D14*
X98101500Y-108813600D03*
X100641500Y-108813600D03*
X103181500Y-108813600D03*
X105721500Y-108813600D03*
X108261500Y-108813600D03*
X110801500Y-108813600D03*
X113341500Y-108813600D03*
D12*
X161226930Y-150298600D03*
X161226930Y-146598600D03*
X161226930Y-142098600D03*
X161226930Y-138398600D03*
D13*
X153486200Y-108813600D03*
D14*
X156026200Y-108813600D03*
X158566200Y-108813600D03*
X161106200Y-108813600D03*
X163646200Y-108813600D03*
X166186200Y-108813600D03*
X168726200Y-108813600D03*
X171266200Y-108813600D03*
D13*
X174812600Y-108813600D03*
D14*
X177352600Y-108813600D03*
X179892600Y-108813600D03*
X182432600Y-108813600D03*
X184972600Y-108813600D03*
X187512600Y-108813600D03*
X190052600Y-108813600D03*
X192592600Y-108813600D03*
D13*
X116852700Y-108813600D03*
D14*
X119392700Y-108813600D03*
X121932700Y-108813600D03*
X124472700Y-108813600D03*
X127012700Y-108813600D03*
X129552700Y-108813600D03*
X132092700Y-108813600D03*
X134632700Y-108813600D03*
D12*
X114323899Y-150303600D03*
X114323899Y-146603600D03*
X114323899Y-142103600D03*
X114323899Y-138403600D03*
D10*
X89100000Y-116600000D03*
D11*
X92600000Y-116600000D03*
X96100000Y-116600000D03*
D10*
X104100000Y-116600000D03*
D11*
X107600000Y-116600000D03*
X111100000Y-116600000D03*
D10*
X104100000Y-129600000D03*
D11*
X107600000Y-129600000D03*
X111100000Y-129600000D03*
D12*
X188028662Y-150363600D03*
X188028662Y-146663600D03*
X188028662Y-142163600D03*
X188028662Y-138463600D03*
X167927363Y-150298600D03*
X167927363Y-146598600D03*
X167927363Y-142098600D03*
X167927363Y-138398600D03*
D15*
X81113000Y-82066600D03*
X208113000Y-82066600D03*
D16*
X85601000Y-145517800D03*
D17*
X76101000Y-145517800D03*
D15*
X208127600Y-132866600D03*
D18*
X203401000Y-145417800D03*
D17*
X212901000Y-145417800D03*
D19*
X130931000Y-87160300D03*
D20*
X130931000Y-84620300D03*
X133471000Y-87160300D03*
X133471000Y-84620300D03*
X136011000Y-87160300D03*
X136011000Y-84620300D03*
X138551000Y-87160300D03*
X138551000Y-84620300D03*
X141091000Y-87160300D03*
X141091000Y-84620300D03*
X143631000Y-87160300D03*
X143631000Y-84620300D03*
X146171000Y-87160300D03*
X146171000Y-84620300D03*
X148711000Y-87160300D03*
X148711000Y-84620300D03*
X151251000Y-87160300D03*
X151251000Y-84620300D03*
X153791000Y-87160300D03*
X153791000Y-84620300D03*
X156331000Y-87160300D03*
X156331000Y-84620300D03*
X158871000Y-87160300D03*
X158871000Y-84620300D03*
D15*
X81127600Y-132866600D03*
M02*
