G04 #@! TF.GenerationSoftware,KiCad,Pcbnew,(5.1.5)-3*
G04 #@! TF.CreationDate,2020-04-18T22:31:02-04:00*
G04 #@! TF.ProjectId,Single_Receiver_Out,53696e67-6c65-45f5-9265-636569766572,v1*
G04 #@! TF.SameCoordinates,Original*
G04 #@! TF.FileFunction,Legend,Top*
G04 #@! TF.FilePolarity,Positive*
%FSLAX46Y46*%
G04 Gerber Fmt 4.6, Leading zero omitted, Abs format (unit mm)*
G04 Created by KiCad (PCBNEW (5.1.5)-3) date 2020-04-18 22:31:02*
%MOMM*%
%LPD*%
G04 APERTURE LIST*
%ADD10C,0.150000*%
%ADD11C,0.120000*%
G04 APERTURE END LIST*
D10*
X63805761Y-153270180D02*
X63853380Y-153127323D01*
X63853380Y-152889228D01*
X63805761Y-152793990D01*
X63758142Y-152746371D01*
X63662904Y-152698752D01*
X63567666Y-152698752D01*
X63472428Y-152746371D01*
X63424809Y-152793990D01*
X63377190Y-152889228D01*
X63329571Y-153079704D01*
X63281952Y-153174942D01*
X63234333Y-153222561D01*
X63139095Y-153270180D01*
X63043857Y-153270180D01*
X62948619Y-153222561D01*
X62901000Y-153174942D01*
X62853380Y-153079704D01*
X62853380Y-152841609D01*
X62901000Y-152698752D01*
X63853380Y-152270180D02*
X63186714Y-152270180D01*
X62853380Y-152270180D02*
X62901000Y-152317800D01*
X62948619Y-152270180D01*
X62901000Y-152222561D01*
X62853380Y-152270180D01*
X62948619Y-152270180D01*
X63186714Y-151793990D02*
X63853380Y-151793990D01*
X63281952Y-151793990D02*
X63234333Y-151746371D01*
X63186714Y-151651133D01*
X63186714Y-151508276D01*
X63234333Y-151413038D01*
X63329571Y-151365419D01*
X63853380Y-151365419D01*
X63186714Y-150460657D02*
X63996238Y-150460657D01*
X64091476Y-150508276D01*
X64139095Y-150555895D01*
X64186714Y-150651133D01*
X64186714Y-150793990D01*
X64139095Y-150889228D01*
X63805761Y-150460657D02*
X63853380Y-150555895D01*
X63853380Y-150746371D01*
X63805761Y-150841609D01*
X63758142Y-150889228D01*
X63662904Y-150936847D01*
X63377190Y-150936847D01*
X63281952Y-150889228D01*
X63234333Y-150841609D01*
X63186714Y-150746371D01*
X63186714Y-150555895D01*
X63234333Y-150460657D01*
X63853380Y-149841609D02*
X63805761Y-149936847D01*
X63710523Y-149984466D01*
X62853380Y-149984466D01*
X63805761Y-149079704D02*
X63853380Y-149174942D01*
X63853380Y-149365419D01*
X63805761Y-149460657D01*
X63710523Y-149508276D01*
X63329571Y-149508276D01*
X63234333Y-149460657D01*
X63186714Y-149365419D01*
X63186714Y-149174942D01*
X63234333Y-149079704D01*
X63329571Y-149032085D01*
X63424809Y-149032085D01*
X63520047Y-149508276D01*
X63853380Y-147841609D02*
X62853380Y-147841609D01*
X62853380Y-147603514D01*
X62901000Y-147460657D01*
X62996238Y-147365419D01*
X63091476Y-147317800D01*
X63281952Y-147270180D01*
X63424809Y-147270180D01*
X63615285Y-147317800D01*
X63710523Y-147365419D01*
X63805761Y-147460657D01*
X63853380Y-147603514D01*
X63853380Y-147841609D01*
X63853380Y-146841609D02*
X63186714Y-146841609D01*
X62853380Y-146841609D02*
X62901000Y-146889228D01*
X62948619Y-146841609D01*
X62901000Y-146793990D01*
X62853380Y-146841609D01*
X62948619Y-146841609D01*
X63186714Y-146508276D02*
X63186714Y-146127323D01*
X63853380Y-146365419D02*
X62996238Y-146365419D01*
X62901000Y-146317800D01*
X62853380Y-146222561D01*
X62853380Y-146127323D01*
X63186714Y-145936847D02*
X63186714Y-145555895D01*
X63853380Y-145793990D02*
X62996238Y-145793990D01*
X62901000Y-145746371D01*
X62853380Y-145651133D01*
X62853380Y-145555895D01*
X62853380Y-144270180D02*
X62853380Y-144079704D01*
X62901000Y-143984466D01*
X62996238Y-143889228D01*
X63186714Y-143841609D01*
X63520047Y-143841609D01*
X63710523Y-143889228D01*
X63805761Y-143984466D01*
X63853380Y-144079704D01*
X63853380Y-144270180D01*
X63805761Y-144365419D01*
X63710523Y-144460657D01*
X63520047Y-144508276D01*
X63186714Y-144508276D01*
X62996238Y-144460657D01*
X62901000Y-144365419D01*
X62853380Y-144270180D01*
X63186714Y-142984466D02*
X63853380Y-142984466D01*
X63186714Y-143413038D02*
X63710523Y-143413038D01*
X63805761Y-143365419D01*
X63853380Y-143270180D01*
X63853380Y-143127323D01*
X63805761Y-143032085D01*
X63758142Y-142984466D01*
X63186714Y-142651133D02*
X63186714Y-142270180D01*
X62853380Y-142508276D02*
X63710523Y-142508276D01*
X63805761Y-142460657D01*
X63853380Y-142365419D01*
X63853380Y-142270180D01*
X50848619Y-111979704D02*
X51848619Y-111979704D01*
X51848619Y-111741609D01*
X51801000Y-111598752D01*
X51705761Y-111503514D01*
X51610523Y-111455895D01*
X51420047Y-111408276D01*
X51277190Y-111408276D01*
X51086714Y-111455895D01*
X50991476Y-111503514D01*
X50896238Y-111598752D01*
X50848619Y-111741609D01*
X50848619Y-111979704D01*
X55281952Y-111789228D02*
X54520047Y-111789228D01*
X54901000Y-112170180D02*
X54901000Y-111408276D01*
X48281952Y-111789228D02*
X47520047Y-111789228D01*
X56058142Y-122070180D02*
X56058142Y-122784466D01*
X56010523Y-122927323D01*
X55915285Y-123022561D01*
X55772428Y-123070180D01*
X55677190Y-123070180D01*
X56534333Y-123070180D02*
X56534333Y-122070180D01*
X56867666Y-122784466D01*
X57201000Y-122070180D01*
X57201000Y-123070180D01*
X57677190Y-123070180D02*
X57677190Y-122070180D01*
X58058142Y-122070180D01*
X58153380Y-122117800D01*
X58201000Y-122165419D01*
X58248619Y-122260657D01*
X58248619Y-122403514D01*
X58201000Y-122498752D01*
X58153380Y-122546371D01*
X58058142Y-122593990D01*
X57677190Y-122593990D01*
X59296238Y-122403514D02*
X59677190Y-122403514D01*
X59439095Y-123070180D02*
X59439095Y-122213038D01*
X59486714Y-122117800D01*
X59581952Y-122070180D01*
X59677190Y-122070180D01*
X60153380Y-123070180D02*
X60058142Y-123022561D01*
X60010523Y-122974942D01*
X59962904Y-122879704D01*
X59962904Y-122593990D01*
X60010523Y-122498752D01*
X60058142Y-122451133D01*
X60153380Y-122403514D01*
X60296238Y-122403514D01*
X60391476Y-122451133D01*
X60439095Y-122498752D01*
X60486714Y-122593990D01*
X60486714Y-122879704D01*
X60439095Y-122974942D01*
X60391476Y-123022561D01*
X60296238Y-123070180D01*
X60153380Y-123070180D01*
X60915285Y-123070180D02*
X60915285Y-122403514D01*
X60915285Y-122593990D02*
X60962904Y-122498752D01*
X61010523Y-122451133D01*
X61105761Y-122403514D01*
X61201000Y-122403514D01*
X62772428Y-122070180D02*
X62296238Y-122070180D01*
X62248619Y-122546371D01*
X62296238Y-122498752D01*
X62391476Y-122451133D01*
X62629571Y-122451133D01*
X62724809Y-122498752D01*
X62772428Y-122546371D01*
X62820047Y-122641609D01*
X62820047Y-122879704D01*
X62772428Y-122974942D01*
X62724809Y-123022561D01*
X62629571Y-123070180D01*
X62391476Y-123070180D01*
X62296238Y-123022561D01*
X62248619Y-122974942D01*
X63105761Y-122070180D02*
X63439095Y-123070180D01*
X63772428Y-122070180D01*
X61367666Y-132670180D02*
X61986714Y-132670180D01*
X61653380Y-133051133D01*
X61796238Y-133051133D01*
X61891476Y-133098752D01*
X61939095Y-133146371D01*
X61986714Y-133241609D01*
X61986714Y-133479704D01*
X61939095Y-133574942D01*
X61891476Y-133622561D01*
X61796238Y-133670180D01*
X61510523Y-133670180D01*
X61415285Y-133622561D01*
X61367666Y-133574942D01*
X61415285Y-134165419D02*
X61462904Y-134117800D01*
X61558142Y-134070180D01*
X61796238Y-134070180D01*
X61891476Y-134117800D01*
X61939095Y-134165419D01*
X61986714Y-134260657D01*
X61986714Y-134355895D01*
X61939095Y-134498752D01*
X61367666Y-135070180D01*
X61986714Y-135070180D01*
X61986714Y-136470180D02*
X61415285Y-136470180D01*
X61701000Y-136470180D02*
X61701000Y-135470180D01*
X61605761Y-135613038D01*
X61510523Y-135708276D01*
X61415285Y-135755895D01*
D11*
X61931000Y-123287800D02*
X61931000Y-124617800D01*
X60601000Y-123287800D02*
X61931000Y-123287800D01*
X59331000Y-123287800D02*
X59331000Y-125947800D01*
X59331000Y-125947800D02*
X56731000Y-125947800D01*
X59331000Y-123287800D02*
X56731000Y-123287800D01*
X56731000Y-123287800D02*
X56731000Y-125947800D01*
X62021000Y-137897800D02*
X62021000Y-140137800D01*
X54781000Y-137897800D02*
X54781000Y-140137800D01*
X54781000Y-140137800D02*
X62021000Y-140137800D01*
X54781000Y-137897800D02*
X62021000Y-137897800D01*
X56384960Y-131552840D02*
X56384960Y-129312840D01*
X63624960Y-131552840D02*
X63624960Y-129312840D01*
X63624960Y-129312840D02*
X56384960Y-129312840D01*
X63624960Y-131552840D02*
X56384960Y-131552840D01*
X56384960Y-128921400D02*
X56384960Y-126681400D01*
X63624960Y-128921400D02*
X63624960Y-126681400D01*
X63624960Y-126681400D02*
X56384960Y-126681400D01*
X63624960Y-128921400D02*
X56384960Y-128921400D01*
X53081000Y-123087800D02*
X53081000Y-122757800D01*
X46541000Y-123087800D02*
X53081000Y-123087800D01*
X46541000Y-122757800D02*
X46541000Y-123087800D01*
X53081000Y-120347800D02*
X53081000Y-120677800D01*
X46541000Y-120347800D02*
X53081000Y-120347800D01*
X46541000Y-120677800D02*
X46541000Y-120347800D01*
X61039478Y-132709322D02*
G75*
G03X56601000Y-134547800I-1838478J-1838478D01*
G01*
X61039478Y-136386278D02*
G75*
G02X56601000Y-134547800I-1838478J1838478D01*
G01*
X61051000Y-136347800D02*
X61051000Y-132747800D01*
X52409240Y-126640080D02*
X50759240Y-126640080D01*
X52409240Y-136920080D02*
X52409240Y-126640080D01*
X47109240Y-136920080D02*
X52409240Y-136920080D01*
X47109240Y-126640080D02*
X47109240Y-136920080D01*
X48759240Y-126640080D02*
X47109240Y-126640080D01*
X50759240Y-126640080D02*
G75*
G02X48759240Y-126640080I-1000000J0D01*
G01*
X52942880Y-140187800D02*
X52942880Y-139857800D01*
X46402880Y-140187800D02*
X52942880Y-140187800D01*
X46402880Y-139857800D02*
X46402880Y-140187800D01*
X52942880Y-137447800D02*
X52942880Y-137777800D01*
X46402880Y-137447800D02*
X52942880Y-137447800D01*
X46402880Y-137777800D02*
X46402880Y-137447800D01*
X44883920Y-111967800D02*
X46883920Y-111967800D01*
X44883920Y-113217800D02*
X44883920Y-111967800D01*
X56333920Y-118967800D02*
X55583920Y-118967800D01*
X56333920Y-114667800D02*
X56333920Y-118967800D01*
X55583920Y-114667800D02*
X56333920Y-114667800D01*
X55583920Y-114317800D02*
X55583920Y-114667800D01*
X56083920Y-114317800D02*
X55583920Y-114317800D01*
X56333920Y-113317800D02*
X56083920Y-114317800D01*
X53333920Y-113317800D02*
X56333920Y-113317800D01*
X53583920Y-114317800D02*
X53333920Y-113317800D01*
X54083920Y-114317800D02*
X53583920Y-114317800D01*
X54083920Y-114667800D02*
X54083920Y-114317800D01*
X53333920Y-114667800D02*
X54083920Y-114667800D01*
X53333920Y-118967800D02*
X53333920Y-114667800D01*
X54083920Y-118967800D02*
X53333920Y-118967800D01*
X52833920Y-118967800D02*
X52083920Y-118967800D01*
X52833920Y-114667800D02*
X52833920Y-118967800D01*
X52083920Y-114667800D02*
X52833920Y-114667800D01*
X52083920Y-114317800D02*
X52083920Y-114667800D01*
X52583920Y-114317800D02*
X52083920Y-114317800D01*
X52833920Y-113317800D02*
X52583920Y-114317800D01*
X49833920Y-113317800D02*
X52833920Y-113317800D01*
X50083920Y-114317800D02*
X49833920Y-113317800D01*
X50583920Y-114317800D02*
X50083920Y-114317800D01*
X50583920Y-114667800D02*
X50583920Y-114317800D01*
X49833920Y-114667800D02*
X50583920Y-114667800D01*
X49833920Y-118967800D02*
X49833920Y-114667800D01*
X50583920Y-118967800D02*
X49833920Y-118967800D01*
X49333920Y-118967800D02*
X48583920Y-118967800D01*
X49333920Y-114667800D02*
X49333920Y-118967800D01*
X48583920Y-114667800D02*
X49333920Y-114667800D01*
X48583920Y-114317800D02*
X48583920Y-114667800D01*
X49083920Y-114317800D02*
X48583920Y-114317800D01*
X49333920Y-113317800D02*
X49083920Y-114317800D01*
X46333920Y-113317800D02*
X49333920Y-113317800D01*
X46583920Y-114317800D02*
X46333920Y-113317800D01*
X47083920Y-114317800D02*
X46583920Y-114317800D01*
X47083920Y-114667800D02*
X47083920Y-114317800D01*
X46333920Y-114667800D02*
X47083920Y-114667800D01*
X46333920Y-118967800D02*
X46333920Y-114667800D01*
X47083920Y-118967800D02*
X46333920Y-118967800D01*
X57393920Y-112357800D02*
X45273920Y-112357800D01*
X57393920Y-119827800D02*
X57393920Y-112357800D01*
X45273920Y-119827800D02*
X57393920Y-119827800D01*
X45273920Y-112357800D02*
X45273920Y-119827800D01*
X55583567Y-118967645D02*
G75*
G03X54083920Y-118967800I-749647J-1700155D01*
G01*
X52083567Y-118967645D02*
G75*
G03X50583920Y-118967800I-749647J-1700155D01*
G01*
X48583567Y-118967645D02*
G75*
G03X47083920Y-118967800I-749647J-1700155D01*
G01*
X46586000Y-140889640D02*
X46586000Y-158849640D01*
X62106000Y-140889640D02*
X46586000Y-140889640D01*
X62106000Y-140889640D02*
X62106000Y-158849640D01*
X46586000Y-158849640D02*
X62106000Y-158849640D01*
X46401000Y-144769640D02*
X45901000Y-144269640D01*
X45901000Y-144269640D02*
X45901000Y-145269640D01*
X45901000Y-145269640D02*
X46401000Y-144769640D01*
X47408600Y-125762680D02*
X47408600Y-123522680D01*
X54648600Y-125762680D02*
X54648600Y-123522680D01*
X54648600Y-123522680D02*
X47408600Y-123522680D01*
X54648600Y-125762680D02*
X47408600Y-125762680D01*
D10*
X62383380Y-124951133D02*
X63097666Y-124951133D01*
X63240523Y-124998752D01*
X63335761Y-125093990D01*
X63383380Y-125236847D01*
X63383380Y-125332085D01*
X62383380Y-124570180D02*
X62383380Y-123951133D01*
X62764333Y-124284466D01*
X62764333Y-124141609D01*
X62811952Y-124046371D01*
X62859571Y-123998752D01*
X62954809Y-123951133D01*
X63192904Y-123951133D01*
X63288142Y-123998752D01*
X63335761Y-124046371D01*
X63383380Y-124141609D01*
X63383380Y-124427323D01*
X63335761Y-124522561D01*
X63288142Y-124570180D01*
X62934333Y-139474942D02*
X62886714Y-139522561D01*
X62743857Y-139570180D01*
X62648619Y-139570180D01*
X62505761Y-139522561D01*
X62410523Y-139427323D01*
X62362904Y-139332085D01*
X62315285Y-139141609D01*
X62315285Y-138998752D01*
X62362904Y-138808276D01*
X62410523Y-138713038D01*
X62505761Y-138617800D01*
X62648619Y-138570180D01*
X62743857Y-138570180D01*
X62886714Y-138617800D01*
X62934333Y-138665419D01*
X63267666Y-138570180D02*
X63886714Y-138570180D01*
X63553380Y-138951133D01*
X63696238Y-138951133D01*
X63791476Y-138998752D01*
X63839095Y-139046371D01*
X63886714Y-139141609D01*
X63886714Y-139379704D01*
X63839095Y-139474942D01*
X63791476Y-139522561D01*
X63696238Y-139570180D01*
X63410523Y-139570180D01*
X63315285Y-139522561D01*
X63267666Y-139474942D01*
X57058142Y-138470180D02*
X57153380Y-138470180D01*
X57248619Y-138517800D01*
X57296238Y-138565419D01*
X57343857Y-138660657D01*
X57391476Y-138851133D01*
X57391476Y-139089228D01*
X57343857Y-139279704D01*
X57296238Y-139374942D01*
X57248619Y-139422561D01*
X57153380Y-139470180D01*
X57058142Y-139470180D01*
X56962904Y-139422561D01*
X56915285Y-139374942D01*
X56867666Y-139279704D01*
X56820047Y-139089228D01*
X56820047Y-138851133D01*
X56867666Y-138660657D01*
X56915285Y-138565419D01*
X56962904Y-138517800D01*
X57058142Y-138470180D01*
X57820047Y-139374942D02*
X57867666Y-139422561D01*
X57820047Y-139470180D01*
X57772428Y-139422561D01*
X57820047Y-139374942D01*
X57820047Y-139470180D01*
X58820047Y-139470180D02*
X58248619Y-139470180D01*
X58534333Y-139470180D02*
X58534333Y-138470180D01*
X58439095Y-138613038D01*
X58343857Y-138708276D01*
X58248619Y-138755895D01*
X59677190Y-138803514D02*
X59677190Y-139470180D01*
X59248619Y-138803514D02*
X59248619Y-139327323D01*
X59296238Y-139422561D01*
X59391476Y-139470180D01*
X59534333Y-139470180D01*
X59629571Y-139422561D01*
X59677190Y-139374942D01*
X60486714Y-138946371D02*
X60153380Y-138946371D01*
X60153380Y-139470180D02*
X60153380Y-138470180D01*
X60629571Y-138470180D01*
X55134333Y-130174942D02*
X55086714Y-130222561D01*
X54943857Y-130270180D01*
X54848619Y-130270180D01*
X54705761Y-130222561D01*
X54610523Y-130127323D01*
X54562904Y-130032085D01*
X54515285Y-129841609D01*
X54515285Y-129698752D01*
X54562904Y-129508276D01*
X54610523Y-129413038D01*
X54705761Y-129317800D01*
X54848619Y-129270180D01*
X54943857Y-129270180D01*
X55086714Y-129317800D01*
X55134333Y-129365419D01*
X55515285Y-129365419D02*
X55562904Y-129317800D01*
X55658142Y-129270180D01*
X55896238Y-129270180D01*
X55991476Y-129317800D01*
X56039095Y-129365419D01*
X56086714Y-129460657D01*
X56086714Y-129555895D01*
X56039095Y-129698752D01*
X55467666Y-130270180D01*
X56086714Y-130270180D01*
X58458142Y-129870180D02*
X58553380Y-129870180D01*
X58648619Y-129917800D01*
X58696238Y-129965419D01*
X58743857Y-130060657D01*
X58791476Y-130251133D01*
X58791476Y-130489228D01*
X58743857Y-130679704D01*
X58696238Y-130774942D01*
X58648619Y-130822561D01*
X58553380Y-130870180D01*
X58458142Y-130870180D01*
X58362904Y-130822561D01*
X58315285Y-130774942D01*
X58267666Y-130679704D01*
X58220047Y-130489228D01*
X58220047Y-130251133D01*
X58267666Y-130060657D01*
X58315285Y-129965419D01*
X58362904Y-129917800D01*
X58458142Y-129870180D01*
X59220047Y-130774942D02*
X59267666Y-130822561D01*
X59220047Y-130870180D01*
X59172428Y-130822561D01*
X59220047Y-130774942D01*
X59220047Y-130870180D01*
X60220047Y-130870180D02*
X59648619Y-130870180D01*
X59934333Y-130870180D02*
X59934333Y-129870180D01*
X59839095Y-130013038D01*
X59743857Y-130108276D01*
X59648619Y-130155895D01*
X61077190Y-130203514D02*
X61077190Y-130870180D01*
X60648619Y-130203514D02*
X60648619Y-130727323D01*
X60696238Y-130822561D01*
X60791476Y-130870180D01*
X60934333Y-130870180D01*
X61029571Y-130822561D01*
X61077190Y-130774942D01*
X61886714Y-130346371D02*
X61553380Y-130346371D01*
X61553380Y-130870180D02*
X61553380Y-129870180D01*
X62029571Y-129870180D01*
X55334333Y-127774942D02*
X55286714Y-127822561D01*
X55143857Y-127870180D01*
X55048619Y-127870180D01*
X54905761Y-127822561D01*
X54810523Y-127727323D01*
X54762904Y-127632085D01*
X54715285Y-127441609D01*
X54715285Y-127298752D01*
X54762904Y-127108276D01*
X54810523Y-127013038D01*
X54905761Y-126917800D01*
X55048619Y-126870180D01*
X55143857Y-126870180D01*
X55286714Y-126917800D01*
X55334333Y-126965419D01*
X56286714Y-127870180D02*
X55715285Y-127870180D01*
X56001000Y-127870180D02*
X56001000Y-126870180D01*
X55905761Y-127013038D01*
X55810523Y-127108276D01*
X55715285Y-127155895D01*
X59029571Y-128270180D02*
X58458142Y-128270180D01*
X58743857Y-128270180D02*
X58743857Y-127270180D01*
X58648619Y-127413038D01*
X58553380Y-127508276D01*
X58458142Y-127555895D01*
X59648619Y-127270180D02*
X59743857Y-127270180D01*
X59839095Y-127317800D01*
X59886714Y-127365419D01*
X59934333Y-127460657D01*
X59981952Y-127651133D01*
X59981952Y-127889228D01*
X59934333Y-128079704D01*
X59886714Y-128174942D01*
X59839095Y-128222561D01*
X59743857Y-128270180D01*
X59648619Y-128270180D01*
X59553380Y-128222561D01*
X59505761Y-128174942D01*
X59458142Y-128079704D01*
X59410523Y-127889228D01*
X59410523Y-127651133D01*
X59458142Y-127460657D01*
X59505761Y-127365419D01*
X59553380Y-127317800D01*
X59648619Y-127270180D01*
X60839095Y-127603514D02*
X60839095Y-128270180D01*
X60410523Y-127603514D02*
X60410523Y-128127323D01*
X60458142Y-128222561D01*
X60553380Y-128270180D01*
X60696238Y-128270180D01*
X60791476Y-128222561D01*
X60839095Y-128174942D01*
X61648619Y-127746371D02*
X61315285Y-127746371D01*
X61315285Y-128270180D02*
X61315285Y-127270180D01*
X61791476Y-127270180D01*
X55534333Y-121470180D02*
X55201000Y-120993990D01*
X54962904Y-121470180D02*
X54962904Y-120470180D01*
X55343857Y-120470180D01*
X55439095Y-120517800D01*
X55486714Y-120565419D01*
X55534333Y-120660657D01*
X55534333Y-120803514D01*
X55486714Y-120898752D01*
X55439095Y-120946371D01*
X55343857Y-120993990D01*
X54962904Y-120993990D01*
X55915285Y-120565419D02*
X55962904Y-120517800D01*
X56058142Y-120470180D01*
X56296238Y-120470180D01*
X56391476Y-120517800D01*
X56439095Y-120565419D01*
X56486714Y-120660657D01*
X56486714Y-120755895D01*
X56439095Y-120898752D01*
X55867666Y-121470180D01*
X56486714Y-121470180D01*
X48891476Y-121270180D02*
X49510523Y-121270180D01*
X49177190Y-121651133D01*
X49320047Y-121651133D01*
X49415285Y-121698752D01*
X49462904Y-121746371D01*
X49510523Y-121841609D01*
X49510523Y-122079704D01*
X49462904Y-122174942D01*
X49415285Y-122222561D01*
X49320047Y-122270180D01*
X49034333Y-122270180D01*
X48939095Y-122222561D01*
X48891476Y-122174942D01*
X49843857Y-121270180D02*
X50462904Y-121270180D01*
X50129571Y-121651133D01*
X50272428Y-121651133D01*
X50367666Y-121698752D01*
X50415285Y-121746371D01*
X50462904Y-121841609D01*
X50462904Y-122079704D01*
X50415285Y-122174942D01*
X50367666Y-122222561D01*
X50272428Y-122270180D01*
X49986714Y-122270180D01*
X49891476Y-122222561D01*
X49843857Y-122174942D01*
X55339095Y-136270180D02*
X55339095Y-137079704D01*
X55386714Y-137174942D01*
X55434333Y-137222561D01*
X55529571Y-137270180D01*
X55720047Y-137270180D01*
X55815285Y-137222561D01*
X55862904Y-137174942D01*
X55910523Y-137079704D01*
X55910523Y-136270180D01*
X56339095Y-136365419D02*
X56386714Y-136317800D01*
X56481952Y-136270180D01*
X56720047Y-136270180D01*
X56815285Y-136317800D01*
X56862904Y-136365419D01*
X56910523Y-136460657D01*
X56910523Y-136555895D01*
X56862904Y-136698752D01*
X56291476Y-137270180D01*
X56910523Y-137270180D01*
X63953380Y-136617800D02*
X63953380Y-137093990D01*
X62953380Y-137093990D01*
X62953380Y-136379704D02*
X62953380Y-135713038D01*
X63953380Y-136141609D01*
X63381952Y-135189228D02*
X63334333Y-135284466D01*
X63286714Y-135332085D01*
X63191476Y-135379704D01*
X63143857Y-135379704D01*
X63048619Y-135332085D01*
X63001000Y-135284466D01*
X62953380Y-135189228D01*
X62953380Y-134998752D01*
X63001000Y-134903514D01*
X63048619Y-134855895D01*
X63143857Y-134808276D01*
X63191476Y-134808276D01*
X63286714Y-134855895D01*
X63334333Y-134903514D01*
X63381952Y-134998752D01*
X63381952Y-135189228D01*
X63429571Y-135284466D01*
X63477190Y-135332085D01*
X63572428Y-135379704D01*
X63762904Y-135379704D01*
X63858142Y-135332085D01*
X63905761Y-135284466D01*
X63953380Y-135189228D01*
X63953380Y-134998752D01*
X63905761Y-134903514D01*
X63858142Y-134855895D01*
X63762904Y-134808276D01*
X63572428Y-134808276D01*
X63477190Y-134855895D01*
X63429571Y-134903514D01*
X63381952Y-134998752D01*
X63953380Y-133903514D02*
X63953380Y-134379704D01*
X62953380Y-134379704D01*
X62953380Y-133379704D02*
X62953380Y-133284466D01*
X63001000Y-133189228D01*
X63048619Y-133141609D01*
X63143857Y-133093990D01*
X63334333Y-133046371D01*
X63572428Y-133046371D01*
X63762904Y-133093990D01*
X63858142Y-133141609D01*
X63905761Y-133189228D01*
X63953380Y-133284466D01*
X63953380Y-133379704D01*
X63905761Y-133474942D01*
X63858142Y-133522561D01*
X63762904Y-133570180D01*
X63572428Y-133617800D01*
X63334333Y-133617800D01*
X63143857Y-133570180D01*
X63048619Y-133522561D01*
X63001000Y-133474942D01*
X62953380Y-133379704D01*
X62953380Y-132141609D02*
X62953380Y-132617800D01*
X63429571Y-132665419D01*
X63381952Y-132617800D01*
X63334333Y-132522561D01*
X63334333Y-132284466D01*
X63381952Y-132189228D01*
X63429571Y-132141609D01*
X63524809Y-132093990D01*
X63762904Y-132093990D01*
X63858142Y-132141609D01*
X63905761Y-132189228D01*
X63953380Y-132284466D01*
X63953380Y-132522561D01*
X63905761Y-132617800D01*
X63858142Y-132665419D01*
X44939095Y-125270180D02*
X44939095Y-126079704D01*
X44986714Y-126174942D01*
X45034333Y-126222561D01*
X45129571Y-126270180D01*
X45320047Y-126270180D01*
X45415285Y-126222561D01*
X45462904Y-126174942D01*
X45510523Y-126079704D01*
X45510523Y-125270180D01*
X46510523Y-126270180D02*
X45939095Y-126270180D01*
X46224809Y-126270180D02*
X46224809Y-125270180D01*
X46129571Y-125413038D01*
X46034333Y-125508276D01*
X45939095Y-125555895D01*
X48705761Y-136336847D02*
X48753380Y-136193990D01*
X48753380Y-135955895D01*
X48705761Y-135860657D01*
X48658142Y-135813038D01*
X48562904Y-135765419D01*
X48467666Y-135765419D01*
X48372428Y-135813038D01*
X48324809Y-135860657D01*
X48277190Y-135955895D01*
X48229571Y-136146371D01*
X48181952Y-136241609D01*
X48134333Y-136289228D01*
X48039095Y-136336847D01*
X47943857Y-136336847D01*
X47848619Y-136289228D01*
X47801000Y-136241609D01*
X47753380Y-136146371D01*
X47753380Y-135908276D01*
X47801000Y-135765419D01*
X48753380Y-135336847D02*
X47753380Y-135336847D01*
X48753380Y-134765419D01*
X47753380Y-134765419D01*
X47753380Y-134384466D02*
X47753380Y-133717800D01*
X48753380Y-134146371D01*
X47753380Y-132860657D02*
X47753380Y-133336847D01*
X48229571Y-133384466D01*
X48181952Y-133336847D01*
X48134333Y-133241609D01*
X48134333Y-133003514D01*
X48181952Y-132908276D01*
X48229571Y-132860657D01*
X48324809Y-132813038D01*
X48562904Y-132813038D01*
X48658142Y-132860657D01*
X48705761Y-132908276D01*
X48753380Y-133003514D01*
X48753380Y-133241609D01*
X48705761Y-133336847D01*
X48658142Y-133384466D01*
X48753380Y-131860657D02*
X48753380Y-132432085D01*
X48753380Y-132146371D02*
X47753380Y-132146371D01*
X47896238Y-132241609D01*
X47991476Y-132336847D01*
X48039095Y-132432085D01*
X47753380Y-131527323D02*
X47753380Y-130860657D01*
X48753380Y-131289228D01*
X47753380Y-130051133D02*
X47753380Y-130241609D01*
X47801000Y-130336847D01*
X47848619Y-130384466D01*
X47991476Y-130479704D01*
X48181952Y-130527323D01*
X48562904Y-130527323D01*
X48658142Y-130479704D01*
X48705761Y-130432085D01*
X48753380Y-130336847D01*
X48753380Y-130146371D01*
X48705761Y-130051133D01*
X48658142Y-130003514D01*
X48562904Y-129955895D01*
X48324809Y-129955895D01*
X48229571Y-130003514D01*
X48181952Y-130051133D01*
X48134333Y-130146371D01*
X48134333Y-130336847D01*
X48181952Y-130432085D01*
X48229571Y-130479704D01*
X48324809Y-130527323D01*
X48467666Y-129574942D02*
X48467666Y-129098752D01*
X48753380Y-129670180D02*
X47753380Y-129336847D01*
X48753380Y-129003514D01*
X48753380Y-128670180D02*
X47753380Y-128670180D01*
X47753380Y-128289228D01*
X47801000Y-128193990D01*
X47848619Y-128146371D01*
X47943857Y-128098752D01*
X48086714Y-128098752D01*
X48181952Y-128146371D01*
X48229571Y-128193990D01*
X48277190Y-128289228D01*
X48277190Y-128670180D01*
X45334333Y-140870180D02*
X45001000Y-140393990D01*
X44762904Y-140870180D02*
X44762904Y-139870180D01*
X45143857Y-139870180D01*
X45239095Y-139917800D01*
X45286714Y-139965419D01*
X45334333Y-140060657D01*
X45334333Y-140203514D01*
X45286714Y-140298752D01*
X45239095Y-140346371D01*
X45143857Y-140393990D01*
X44762904Y-140393990D01*
X46286714Y-140870180D02*
X45715285Y-140870180D01*
X46001000Y-140870180D02*
X46001000Y-139870180D01*
X45905761Y-140013038D01*
X45810523Y-140108276D01*
X45715285Y-140155895D01*
X49434333Y-139270180D02*
X48862904Y-139270180D01*
X49148619Y-139270180D02*
X49148619Y-138270180D01*
X49053380Y-138413038D01*
X48958142Y-138508276D01*
X48862904Y-138555895D01*
X49815285Y-138365419D02*
X49862904Y-138317800D01*
X49958142Y-138270180D01*
X50196238Y-138270180D01*
X50291476Y-138317800D01*
X50339095Y-138365419D01*
X50386714Y-138460657D01*
X50386714Y-138555895D01*
X50339095Y-138698752D01*
X49767666Y-139270180D01*
X50386714Y-139270180D01*
X51005761Y-138270180D02*
X51101000Y-138270180D01*
X51196238Y-138317800D01*
X51243857Y-138365419D01*
X51291476Y-138460657D01*
X51339095Y-138651133D01*
X51339095Y-138889228D01*
X51291476Y-139079704D01*
X51243857Y-139174942D01*
X51196238Y-139222561D01*
X51101000Y-139270180D01*
X51005761Y-139270180D01*
X50910523Y-139222561D01*
X50862904Y-139174942D01*
X50815285Y-139079704D01*
X50767666Y-138889228D01*
X50767666Y-138651133D01*
X50815285Y-138460657D01*
X50862904Y-138365419D01*
X50910523Y-138317800D01*
X51005761Y-138270180D01*
X58567666Y-111470180D02*
X58567666Y-112184466D01*
X58520047Y-112327323D01*
X58424809Y-112422561D01*
X58281952Y-112470180D01*
X58186714Y-112470180D01*
X58996238Y-111565419D02*
X59043857Y-111517800D01*
X59139095Y-111470180D01*
X59377190Y-111470180D01*
X59472428Y-111517800D01*
X59520047Y-111565419D01*
X59567666Y-111660657D01*
X59567666Y-111755895D01*
X59520047Y-111898752D01*
X58948619Y-112470180D01*
X59567666Y-112470180D01*
X45042066Y-142070180D02*
X45042066Y-142784466D01*
X44994447Y-142927323D01*
X44899209Y-143022561D01*
X44756352Y-143070180D01*
X44661114Y-143070180D01*
X46042066Y-143070180D02*
X45470638Y-143070180D01*
X45756352Y-143070180D02*
X45756352Y-142070180D01*
X45661114Y-142213038D01*
X45565876Y-142308276D01*
X45470638Y-142355895D01*
X45734333Y-124574942D02*
X45686714Y-124622561D01*
X45543857Y-124670180D01*
X45448619Y-124670180D01*
X45305761Y-124622561D01*
X45210523Y-124527323D01*
X45162904Y-124432085D01*
X45115285Y-124241609D01*
X45115285Y-124098752D01*
X45162904Y-123908276D01*
X45210523Y-123813038D01*
X45305761Y-123717800D01*
X45448619Y-123670180D01*
X45543857Y-123670180D01*
X45686714Y-123717800D01*
X45734333Y-123765419D01*
X46591476Y-124003514D02*
X46591476Y-124670180D01*
X46353380Y-123622561D02*
X46115285Y-124336847D01*
X46734333Y-124336847D01*
X49458142Y-123870180D02*
X49553380Y-123870180D01*
X49648619Y-123917800D01*
X49696238Y-123965419D01*
X49743857Y-124060657D01*
X49791476Y-124251133D01*
X49791476Y-124489228D01*
X49743857Y-124679704D01*
X49696238Y-124774942D01*
X49648619Y-124822561D01*
X49553380Y-124870180D01*
X49458142Y-124870180D01*
X49362904Y-124822561D01*
X49315285Y-124774942D01*
X49267666Y-124679704D01*
X49220047Y-124489228D01*
X49220047Y-124251133D01*
X49267666Y-124060657D01*
X49315285Y-123965419D01*
X49362904Y-123917800D01*
X49458142Y-123870180D01*
X50220047Y-124774942D02*
X50267666Y-124822561D01*
X50220047Y-124870180D01*
X50172428Y-124822561D01*
X50220047Y-124774942D01*
X50220047Y-124870180D01*
X51220047Y-124870180D02*
X50648619Y-124870180D01*
X50934333Y-124870180D02*
X50934333Y-123870180D01*
X50839095Y-124013038D01*
X50743857Y-124108276D01*
X50648619Y-124155895D01*
X52077190Y-124203514D02*
X52077190Y-124870180D01*
X51648619Y-124203514D02*
X51648619Y-124727323D01*
X51696238Y-124822561D01*
X51791476Y-124870180D01*
X51934333Y-124870180D01*
X52029571Y-124822561D01*
X52077190Y-124774942D01*
X52886714Y-124346371D02*
X52553380Y-124346371D01*
X52553380Y-124870180D02*
X52553380Y-123870180D01*
X53029571Y-123870180D01*
M02*
