G04 #@! TF.GenerationSoftware,KiCad,Pcbnew,(5.1.5)-3*
G04 #@! TF.CreationDate,2020-04-18T22:31:02-04:00*
G04 #@! TF.ProjectId,Single_Receiver_Out,53696e67-6c65-45f5-9265-636569766572,v1*
G04 #@! TF.SameCoordinates,Original*
G04 #@! TF.FileFunction,Legend,Bot*
G04 #@! TF.FilePolarity,Positive*
%FSLAX46Y46*%
G04 Gerber Fmt 4.6, Leading zero omitted, Abs format (unit mm)*
G04 Created by KiCad (PCBNEW (5.1.5)-3) date 2020-04-18 22:31:02*
%MOMM*%
%LPD*%
G04 APERTURE LIST*
%ADD10C,0.010000*%
G04 APERTURE END LIST*
D10*
G36*
X54304910Y-153575452D02*
G01*
X54383454Y-153575022D01*
X54440298Y-153573858D01*
X54479105Y-153571593D01*
X54503538Y-153567860D01*
X54517262Y-153562294D01*
X54523940Y-153554527D01*
X54527236Y-153544195D01*
X54527556Y-153542857D01*
X54532562Y-153518721D01*
X54541829Y-153471099D01*
X54554392Y-153405059D01*
X54569287Y-153325672D01*
X54585551Y-153238004D01*
X54586119Y-153234925D01*
X54602410Y-153149011D01*
X54617652Y-153073104D01*
X54630861Y-153011755D01*
X54641054Y-152969518D01*
X54647248Y-152950945D01*
X54647543Y-152950616D01*
X54665788Y-152941547D01*
X54703405Y-152926433D01*
X54752271Y-152908538D01*
X54752543Y-152908442D01*
X54814093Y-152885307D01*
X54886657Y-152855835D01*
X54955057Y-152826203D01*
X54958294Y-152824738D01*
X55069702Y-152774174D01*
X55316399Y-152942640D01*
X55392077Y-152993997D01*
X55460631Y-153039911D01*
X55518088Y-153077770D01*
X55560476Y-153104963D01*
X55583825Y-153118879D01*
X55586042Y-153119911D01*
X55603010Y-153115316D01*
X55634701Y-153093145D01*
X55682352Y-153052353D01*
X55747198Y-152991895D01*
X55813397Y-152927573D01*
X55877214Y-152864188D01*
X55934329Y-152806349D01*
X55981305Y-152757625D01*
X56014703Y-152721590D01*
X56031085Y-152701816D01*
X56031694Y-152700798D01*
X56033505Y-152687228D01*
X56026683Y-152665067D01*
X56009540Y-152631322D01*
X55980393Y-152583000D01*
X55937555Y-152517108D01*
X55880448Y-152432283D01*
X55829766Y-152357623D01*
X55784461Y-152290660D01*
X55747150Y-152235284D01*
X55720452Y-152195380D01*
X55706985Y-152174838D01*
X55706137Y-152173444D01*
X55707781Y-152153762D01*
X55720245Y-152115507D01*
X55741048Y-152065911D01*
X55748462Y-152050072D01*
X55780814Y-151979510D01*
X55815328Y-151899447D01*
X55843365Y-151830171D01*
X55863568Y-151778755D01*
X55879615Y-151739681D01*
X55888888Y-151719259D01*
X55890041Y-151717686D01*
X55907096Y-151715079D01*
X55947298Y-151707937D01*
X56005302Y-151697277D01*
X56075763Y-151684115D01*
X56153335Y-151669467D01*
X56232672Y-151654351D01*
X56308431Y-151639782D01*
X56375264Y-151626778D01*
X56427828Y-151616355D01*
X56460776Y-151609530D01*
X56468857Y-151607601D01*
X56477205Y-151602838D01*
X56483506Y-151592082D01*
X56488045Y-151571702D01*
X56491104Y-151538066D01*
X56492967Y-151487545D01*
X56493918Y-151416508D01*
X56494240Y-151321324D01*
X56494257Y-151282308D01*
X56494257Y-150965001D01*
X56418057Y-150949961D01*
X56375663Y-150941805D01*
X56312400Y-150929901D01*
X56235962Y-150915684D01*
X56154043Y-150900590D01*
X56131400Y-150896445D01*
X56055806Y-150881747D01*
X55989953Y-150867295D01*
X55939366Y-150854425D01*
X55909574Y-150844478D01*
X55904612Y-150841513D01*
X55892426Y-150820517D01*
X55874953Y-150779833D01*
X55855577Y-150727478D01*
X55851734Y-150716200D01*
X55826339Y-150646277D01*
X55794817Y-150567382D01*
X55763969Y-150496534D01*
X55763817Y-150496205D01*
X55712447Y-150385067D01*
X55881399Y-150136547D01*
X56050352Y-149888028D01*
X55833429Y-149670742D01*
X55767819Y-149606074D01*
X55707979Y-149549067D01*
X55657267Y-149502767D01*
X55619046Y-149470216D01*
X55596675Y-149454457D01*
X55593466Y-149453457D01*
X55574626Y-149461331D01*
X55536180Y-149483222D01*
X55482330Y-149516533D01*
X55417276Y-149558669D01*
X55346940Y-149605857D01*
X55275555Y-149653990D01*
X55211908Y-149695872D01*
X55160041Y-149728929D01*
X55123995Y-149750582D01*
X55107867Y-149758257D01*
X55088189Y-149751763D01*
X55050875Y-149734650D01*
X55003621Y-149710474D01*
X54998612Y-149707787D01*
X54934977Y-149675873D01*
X54891341Y-149660221D01*
X54864202Y-149660055D01*
X54850057Y-149674596D01*
X54849975Y-149674800D01*
X54842905Y-149692021D01*
X54826042Y-149732901D01*
X54800695Y-149794275D01*
X54768171Y-149872981D01*
X54729778Y-149965853D01*
X54686822Y-150069728D01*
X54645222Y-150170298D01*
X54599504Y-150281284D01*
X54557526Y-150384097D01*
X54520548Y-150475585D01*
X54489827Y-150552599D01*
X54466622Y-150611985D01*
X54452190Y-150650591D01*
X54447743Y-150665000D01*
X54458896Y-150681528D01*
X54488069Y-150707870D01*
X54526971Y-150736913D01*
X54637757Y-150828761D01*
X54724351Y-150934041D01*
X54785716Y-151050534D01*
X54820815Y-151176024D01*
X54828608Y-151308293D01*
X54822943Y-151369343D01*
X54792078Y-151496005D01*
X54738920Y-151607859D01*
X54666767Y-151703799D01*
X54578917Y-151782724D01*
X54478665Y-151843530D01*
X54369310Y-151885113D01*
X54254147Y-151906372D01*
X54136475Y-151906201D01*
X54019590Y-151883499D01*
X53906789Y-151837162D01*
X53801369Y-151766087D01*
X53757368Y-151725889D01*
X53672979Y-151622671D01*
X53614222Y-151509875D01*
X53580704Y-151390790D01*
X53572035Y-151268705D01*
X53587823Y-151146907D01*
X53627678Y-151028684D01*
X53691207Y-150917325D01*
X53778021Y-150816116D01*
X53875029Y-150736913D01*
X53915437Y-150706638D01*
X53943982Y-150680581D01*
X53954257Y-150664975D01*
X53948877Y-150647957D01*
X53933575Y-150607300D01*
X53909612Y-150546158D01*
X53878244Y-150467681D01*
X53840732Y-150375020D01*
X53798333Y-150271328D01*
X53756663Y-150170274D01*
X53710690Y-150059193D01*
X53668107Y-149956259D01*
X53630221Y-149864635D01*
X53598340Y-149787484D01*
X53573771Y-149727969D01*
X53557820Y-149689256D01*
X53551910Y-149674800D01*
X53537948Y-149660115D01*
X53510940Y-149660158D01*
X53467413Y-149675701D01*
X53403890Y-149707516D01*
X53403388Y-149707787D01*
X53355560Y-149732477D01*
X53316897Y-149750462D01*
X53295095Y-149758186D01*
X53294133Y-149758257D01*
X53277721Y-149750422D01*
X53241487Y-149728635D01*
X53189474Y-149695472D01*
X53125725Y-149653509D01*
X53055060Y-149605857D01*
X52983116Y-149557609D01*
X52918274Y-149515649D01*
X52864735Y-149482573D01*
X52826697Y-149460979D01*
X52808533Y-149453457D01*
X52791808Y-149463343D01*
X52758180Y-149490974D01*
X52711010Y-149533305D01*
X52653658Y-149587295D01*
X52589484Y-149649901D01*
X52568497Y-149670817D01*
X52351499Y-149888177D01*
X52516668Y-150130580D01*
X52566864Y-150205019D01*
X52610919Y-150271828D01*
X52646362Y-150327135D01*
X52670719Y-150367071D01*
X52681522Y-150387764D01*
X52681838Y-150389237D01*
X52676143Y-150408742D01*
X52660826Y-150447978D01*
X52638537Y-150500370D01*
X52622893Y-150535445D01*
X52593641Y-150602599D01*
X52566094Y-150670442D01*
X52544737Y-150727766D01*
X52538935Y-150745228D01*
X52522452Y-150791862D01*
X52506340Y-150827895D01*
X52497490Y-150841513D01*
X52477960Y-150849848D01*
X52435334Y-150861663D01*
X52375145Y-150875619D01*
X52302922Y-150890378D01*
X52270600Y-150896445D01*
X52188522Y-150911527D01*
X52109795Y-150926131D01*
X52042109Y-150938820D01*
X51993160Y-150948158D01*
X51983943Y-150949961D01*
X51907743Y-150965001D01*
X51907743Y-151282308D01*
X51907914Y-151386646D01*
X51908616Y-151465587D01*
X51910134Y-151522762D01*
X51912749Y-151561801D01*
X51916746Y-151586335D01*
X51922409Y-151599995D01*
X51930020Y-151606411D01*
X51933143Y-151607601D01*
X51951978Y-151611820D01*
X51993588Y-151620238D01*
X52052630Y-151631839D01*
X52123757Y-151645605D01*
X52201625Y-151660520D01*
X52280887Y-151675568D01*
X52356198Y-151689731D01*
X52422213Y-151701994D01*
X52473587Y-151711339D01*
X52504975Y-151716750D01*
X52511959Y-151717686D01*
X52518285Y-151730204D01*
X52532290Y-151763554D01*
X52551355Y-151811423D01*
X52558634Y-151830171D01*
X52587996Y-151902605D01*
X52622571Y-151982630D01*
X52653537Y-152050072D01*
X52676323Y-152101641D01*
X52691482Y-152144015D01*
X52696542Y-152169966D01*
X52695736Y-152173444D01*
X52685041Y-152189864D01*
X52660620Y-152226383D01*
X52625095Y-152279113D01*
X52581087Y-152344165D01*
X52531217Y-152417649D01*
X52521356Y-152432155D01*
X52463492Y-152518096D01*
X52420956Y-152583539D01*
X52392054Y-152631496D01*
X52375090Y-152664980D01*
X52368367Y-152687005D01*
X52370190Y-152700583D01*
X52370236Y-152700669D01*
X52384586Y-152718503D01*
X52416323Y-152752983D01*
X52462010Y-152800532D01*
X52518204Y-152857578D01*
X52581468Y-152920545D01*
X52588602Y-152927573D01*
X52668330Y-153004780D01*
X52729857Y-153061470D01*
X52774421Y-153098690D01*
X52803257Y-153117485D01*
X52815958Y-153119911D01*
X52834494Y-153109329D01*
X52872961Y-153084884D01*
X52927386Y-153049188D01*
X52993798Y-153004853D01*
X53068225Y-152954489D01*
X53085601Y-152942640D01*
X53332297Y-152774174D01*
X53443706Y-152824738D01*
X53511457Y-152854205D01*
X53584183Y-152883841D01*
X53646703Y-152907470D01*
X53649457Y-152908442D01*
X53698360Y-152926343D01*
X53736057Y-152941480D01*
X53754425Y-152950590D01*
X53754456Y-152950616D01*
X53760285Y-152967083D01*
X53770192Y-153007581D01*
X53783195Y-153067558D01*
X53798309Y-153142460D01*
X53814552Y-153227736D01*
X53815881Y-153234925D01*
X53832175Y-153322786D01*
X53847133Y-153402540D01*
X53859791Y-153469119D01*
X53869186Y-153517453D01*
X53874354Y-153542475D01*
X53874444Y-153542857D01*
X53877589Y-153553501D01*
X53883704Y-153561538D01*
X53896453Y-153567333D01*
X53919500Y-153571253D01*
X53956509Y-153573665D01*
X54011144Y-153574935D01*
X54087067Y-153575429D01*
X54187944Y-153575514D01*
X54201000Y-153575514D01*
X54304910Y-153575452D01*
G37*
X54304910Y-153575452D02*
X54383454Y-153575022D01*
X54440298Y-153573858D01*
X54479105Y-153571593D01*
X54503538Y-153567860D01*
X54517262Y-153562294D01*
X54523940Y-153554527D01*
X54527236Y-153544195D01*
X54527556Y-153542857D01*
X54532562Y-153518721D01*
X54541829Y-153471099D01*
X54554392Y-153405059D01*
X54569287Y-153325672D01*
X54585551Y-153238004D01*
X54586119Y-153234925D01*
X54602410Y-153149011D01*
X54617652Y-153073104D01*
X54630861Y-153011755D01*
X54641054Y-152969518D01*
X54647248Y-152950945D01*
X54647543Y-152950616D01*
X54665788Y-152941547D01*
X54703405Y-152926433D01*
X54752271Y-152908538D01*
X54752543Y-152908442D01*
X54814093Y-152885307D01*
X54886657Y-152855835D01*
X54955057Y-152826203D01*
X54958294Y-152824738D01*
X55069702Y-152774174D01*
X55316399Y-152942640D01*
X55392077Y-152993997D01*
X55460631Y-153039911D01*
X55518088Y-153077770D01*
X55560476Y-153104963D01*
X55583825Y-153118879D01*
X55586042Y-153119911D01*
X55603010Y-153115316D01*
X55634701Y-153093145D01*
X55682352Y-153052353D01*
X55747198Y-152991895D01*
X55813397Y-152927573D01*
X55877214Y-152864188D01*
X55934329Y-152806349D01*
X55981305Y-152757625D01*
X56014703Y-152721590D01*
X56031085Y-152701816D01*
X56031694Y-152700798D01*
X56033505Y-152687228D01*
X56026683Y-152665067D01*
X56009540Y-152631322D01*
X55980393Y-152583000D01*
X55937555Y-152517108D01*
X55880448Y-152432283D01*
X55829766Y-152357623D01*
X55784461Y-152290660D01*
X55747150Y-152235284D01*
X55720452Y-152195380D01*
X55706985Y-152174838D01*
X55706137Y-152173444D01*
X55707781Y-152153762D01*
X55720245Y-152115507D01*
X55741048Y-152065911D01*
X55748462Y-152050072D01*
X55780814Y-151979510D01*
X55815328Y-151899447D01*
X55843365Y-151830171D01*
X55863568Y-151778755D01*
X55879615Y-151739681D01*
X55888888Y-151719259D01*
X55890041Y-151717686D01*
X55907096Y-151715079D01*
X55947298Y-151707937D01*
X56005302Y-151697277D01*
X56075763Y-151684115D01*
X56153335Y-151669467D01*
X56232672Y-151654351D01*
X56308431Y-151639782D01*
X56375264Y-151626778D01*
X56427828Y-151616355D01*
X56460776Y-151609530D01*
X56468857Y-151607601D01*
X56477205Y-151602838D01*
X56483506Y-151592082D01*
X56488045Y-151571702D01*
X56491104Y-151538066D01*
X56492967Y-151487545D01*
X56493918Y-151416508D01*
X56494240Y-151321324D01*
X56494257Y-151282308D01*
X56494257Y-150965001D01*
X56418057Y-150949961D01*
X56375663Y-150941805D01*
X56312400Y-150929901D01*
X56235962Y-150915684D01*
X56154043Y-150900590D01*
X56131400Y-150896445D01*
X56055806Y-150881747D01*
X55989953Y-150867295D01*
X55939366Y-150854425D01*
X55909574Y-150844478D01*
X55904612Y-150841513D01*
X55892426Y-150820517D01*
X55874953Y-150779833D01*
X55855577Y-150727478D01*
X55851734Y-150716200D01*
X55826339Y-150646277D01*
X55794817Y-150567382D01*
X55763969Y-150496534D01*
X55763817Y-150496205D01*
X55712447Y-150385067D01*
X55881399Y-150136547D01*
X56050352Y-149888028D01*
X55833429Y-149670742D01*
X55767819Y-149606074D01*
X55707979Y-149549067D01*
X55657267Y-149502767D01*
X55619046Y-149470216D01*
X55596675Y-149454457D01*
X55593466Y-149453457D01*
X55574626Y-149461331D01*
X55536180Y-149483222D01*
X55482330Y-149516533D01*
X55417276Y-149558669D01*
X55346940Y-149605857D01*
X55275555Y-149653990D01*
X55211908Y-149695872D01*
X55160041Y-149728929D01*
X55123995Y-149750582D01*
X55107867Y-149758257D01*
X55088189Y-149751763D01*
X55050875Y-149734650D01*
X55003621Y-149710474D01*
X54998612Y-149707787D01*
X54934977Y-149675873D01*
X54891341Y-149660221D01*
X54864202Y-149660055D01*
X54850057Y-149674596D01*
X54849975Y-149674800D01*
X54842905Y-149692021D01*
X54826042Y-149732901D01*
X54800695Y-149794275D01*
X54768171Y-149872981D01*
X54729778Y-149965853D01*
X54686822Y-150069728D01*
X54645222Y-150170298D01*
X54599504Y-150281284D01*
X54557526Y-150384097D01*
X54520548Y-150475585D01*
X54489827Y-150552599D01*
X54466622Y-150611985D01*
X54452190Y-150650591D01*
X54447743Y-150665000D01*
X54458896Y-150681528D01*
X54488069Y-150707870D01*
X54526971Y-150736913D01*
X54637757Y-150828761D01*
X54724351Y-150934041D01*
X54785716Y-151050534D01*
X54820815Y-151176024D01*
X54828608Y-151308293D01*
X54822943Y-151369343D01*
X54792078Y-151496005D01*
X54738920Y-151607859D01*
X54666767Y-151703799D01*
X54578917Y-151782724D01*
X54478665Y-151843530D01*
X54369310Y-151885113D01*
X54254147Y-151906372D01*
X54136475Y-151906201D01*
X54019590Y-151883499D01*
X53906789Y-151837162D01*
X53801369Y-151766087D01*
X53757368Y-151725889D01*
X53672979Y-151622671D01*
X53614222Y-151509875D01*
X53580704Y-151390790D01*
X53572035Y-151268705D01*
X53587823Y-151146907D01*
X53627678Y-151028684D01*
X53691207Y-150917325D01*
X53778021Y-150816116D01*
X53875029Y-150736913D01*
X53915437Y-150706638D01*
X53943982Y-150680581D01*
X53954257Y-150664975D01*
X53948877Y-150647957D01*
X53933575Y-150607300D01*
X53909612Y-150546158D01*
X53878244Y-150467681D01*
X53840732Y-150375020D01*
X53798333Y-150271328D01*
X53756663Y-150170274D01*
X53710690Y-150059193D01*
X53668107Y-149956259D01*
X53630221Y-149864635D01*
X53598340Y-149787484D01*
X53573771Y-149727969D01*
X53557820Y-149689256D01*
X53551910Y-149674800D01*
X53537948Y-149660115D01*
X53510940Y-149660158D01*
X53467413Y-149675701D01*
X53403890Y-149707516D01*
X53403388Y-149707787D01*
X53355560Y-149732477D01*
X53316897Y-149750462D01*
X53295095Y-149758186D01*
X53294133Y-149758257D01*
X53277721Y-149750422D01*
X53241487Y-149728635D01*
X53189474Y-149695472D01*
X53125725Y-149653509D01*
X53055060Y-149605857D01*
X52983116Y-149557609D01*
X52918274Y-149515649D01*
X52864735Y-149482573D01*
X52826697Y-149460979D01*
X52808533Y-149453457D01*
X52791808Y-149463343D01*
X52758180Y-149490974D01*
X52711010Y-149533305D01*
X52653658Y-149587295D01*
X52589484Y-149649901D01*
X52568497Y-149670817D01*
X52351499Y-149888177D01*
X52516668Y-150130580D01*
X52566864Y-150205019D01*
X52610919Y-150271828D01*
X52646362Y-150327135D01*
X52670719Y-150367071D01*
X52681522Y-150387764D01*
X52681838Y-150389237D01*
X52676143Y-150408742D01*
X52660826Y-150447978D01*
X52638537Y-150500370D01*
X52622893Y-150535445D01*
X52593641Y-150602599D01*
X52566094Y-150670442D01*
X52544737Y-150727766D01*
X52538935Y-150745228D01*
X52522452Y-150791862D01*
X52506340Y-150827895D01*
X52497490Y-150841513D01*
X52477960Y-150849848D01*
X52435334Y-150861663D01*
X52375145Y-150875619D01*
X52302922Y-150890378D01*
X52270600Y-150896445D01*
X52188522Y-150911527D01*
X52109795Y-150926131D01*
X52042109Y-150938820D01*
X51993160Y-150948158D01*
X51983943Y-150949961D01*
X51907743Y-150965001D01*
X51907743Y-151282308D01*
X51907914Y-151386646D01*
X51908616Y-151465587D01*
X51910134Y-151522762D01*
X51912749Y-151561801D01*
X51916746Y-151586335D01*
X51922409Y-151599995D01*
X51930020Y-151606411D01*
X51933143Y-151607601D01*
X51951978Y-151611820D01*
X51993588Y-151620238D01*
X52052630Y-151631839D01*
X52123757Y-151645605D01*
X52201625Y-151660520D01*
X52280887Y-151675568D01*
X52356198Y-151689731D01*
X52422213Y-151701994D01*
X52473587Y-151711339D01*
X52504975Y-151716750D01*
X52511959Y-151717686D01*
X52518285Y-151730204D01*
X52532290Y-151763554D01*
X52551355Y-151811423D01*
X52558634Y-151830171D01*
X52587996Y-151902605D01*
X52622571Y-151982630D01*
X52653537Y-152050072D01*
X52676323Y-152101641D01*
X52691482Y-152144015D01*
X52696542Y-152169966D01*
X52695736Y-152173444D01*
X52685041Y-152189864D01*
X52660620Y-152226383D01*
X52625095Y-152279113D01*
X52581087Y-152344165D01*
X52531217Y-152417649D01*
X52521356Y-152432155D01*
X52463492Y-152518096D01*
X52420956Y-152583539D01*
X52392054Y-152631496D01*
X52375090Y-152664980D01*
X52368367Y-152687005D01*
X52370190Y-152700583D01*
X52370236Y-152700669D01*
X52384586Y-152718503D01*
X52416323Y-152752983D01*
X52462010Y-152800532D01*
X52518204Y-152857578D01*
X52581468Y-152920545D01*
X52588602Y-152927573D01*
X52668330Y-153004780D01*
X52729857Y-153061470D01*
X52774421Y-153098690D01*
X52803257Y-153117485D01*
X52815958Y-153119911D01*
X52834494Y-153109329D01*
X52872961Y-153084884D01*
X52927386Y-153049188D01*
X52993798Y-153004853D01*
X53068225Y-152954489D01*
X53085601Y-152942640D01*
X53332297Y-152774174D01*
X53443706Y-152824738D01*
X53511457Y-152854205D01*
X53584183Y-152883841D01*
X53646703Y-152907470D01*
X53649457Y-152908442D01*
X53698360Y-152926343D01*
X53736057Y-152941480D01*
X53754425Y-152950590D01*
X53754456Y-152950616D01*
X53760285Y-152967083D01*
X53770192Y-153007581D01*
X53783195Y-153067558D01*
X53798309Y-153142460D01*
X53814552Y-153227736D01*
X53815881Y-153234925D01*
X53832175Y-153322786D01*
X53847133Y-153402540D01*
X53859791Y-153469119D01*
X53869186Y-153517453D01*
X53874354Y-153542475D01*
X53874444Y-153542857D01*
X53877589Y-153553501D01*
X53883704Y-153561538D01*
X53896453Y-153567333D01*
X53919500Y-153571253D01*
X53956509Y-153573665D01*
X54011144Y-153574935D01*
X54087067Y-153575429D01*
X54187944Y-153575514D01*
X54201000Y-153575514D01*
X54304910Y-153575452D01*
G36*
X57354595Y-148850834D02*
G01*
X57412021Y-148813303D01*
X57439719Y-148779704D01*
X57461662Y-148718736D01*
X57463405Y-148670492D01*
X57459457Y-148605984D01*
X57310686Y-148540866D01*
X57238349Y-148507598D01*
X57191084Y-148480836D01*
X57166507Y-148457656D01*
X57162237Y-148435133D01*
X57175889Y-148410345D01*
X57190943Y-148393914D01*
X57234746Y-148367565D01*
X57282389Y-148365719D01*
X57326145Y-148386254D01*
X57358289Y-148427048D01*
X57364038Y-148441453D01*
X57391576Y-148486444D01*
X57423258Y-148505618D01*
X57466714Y-148522021D01*
X57466714Y-148459834D01*
X57462872Y-148417517D01*
X57447823Y-148381831D01*
X57416280Y-148340857D01*
X57411592Y-148335533D01*
X57376506Y-148299080D01*
X57346347Y-148279517D01*
X57308615Y-148270517D01*
X57277335Y-148267570D01*
X57221385Y-148266835D01*
X57181555Y-148276140D01*
X57156708Y-148289954D01*
X57117656Y-148320333D01*
X57090625Y-148353187D01*
X57073517Y-148394506D01*
X57064238Y-148450279D01*
X57060693Y-148526495D01*
X57060410Y-148565178D01*
X57061372Y-148611553D01*
X57149007Y-148611553D01*
X57150023Y-148586674D01*
X57152556Y-148582600D01*
X57169274Y-148588135D01*
X57205249Y-148602783D01*
X57253331Y-148623610D01*
X57263386Y-148628086D01*
X57324152Y-148658986D01*
X57357632Y-148686143D01*
X57364990Y-148711580D01*
X57347391Y-148737319D01*
X57332856Y-148748691D01*
X57280410Y-148771436D01*
X57231322Y-148767678D01*
X57190227Y-148739916D01*
X57161758Y-148690648D01*
X57152631Y-148651543D01*
X57149007Y-148611553D01*
X57061372Y-148611553D01*
X57062285Y-148655551D01*
X57069196Y-148722416D01*
X57082884Y-148771105D01*
X57105096Y-148806951D01*
X57137574Y-148835287D01*
X57151733Y-148844445D01*
X57216053Y-148868293D01*
X57286473Y-148869794D01*
X57354595Y-148850834D01*
G37*
X57354595Y-148850834D02*
X57412021Y-148813303D01*
X57439719Y-148779704D01*
X57461662Y-148718736D01*
X57463405Y-148670492D01*
X57459457Y-148605984D01*
X57310686Y-148540866D01*
X57238349Y-148507598D01*
X57191084Y-148480836D01*
X57166507Y-148457656D01*
X57162237Y-148435133D01*
X57175889Y-148410345D01*
X57190943Y-148393914D01*
X57234746Y-148367565D01*
X57282389Y-148365719D01*
X57326145Y-148386254D01*
X57358289Y-148427048D01*
X57364038Y-148441453D01*
X57391576Y-148486444D01*
X57423258Y-148505618D01*
X57466714Y-148522021D01*
X57466714Y-148459834D01*
X57462872Y-148417517D01*
X57447823Y-148381831D01*
X57416280Y-148340857D01*
X57411592Y-148335533D01*
X57376506Y-148299080D01*
X57346347Y-148279517D01*
X57308615Y-148270517D01*
X57277335Y-148267570D01*
X57221385Y-148266835D01*
X57181555Y-148276140D01*
X57156708Y-148289954D01*
X57117656Y-148320333D01*
X57090625Y-148353187D01*
X57073517Y-148394506D01*
X57064238Y-148450279D01*
X57060693Y-148526495D01*
X57060410Y-148565178D01*
X57061372Y-148611553D01*
X57149007Y-148611553D01*
X57150023Y-148586674D01*
X57152556Y-148582600D01*
X57169274Y-148588135D01*
X57205249Y-148602783D01*
X57253331Y-148623610D01*
X57263386Y-148628086D01*
X57324152Y-148658986D01*
X57357632Y-148686143D01*
X57364990Y-148711580D01*
X57347391Y-148737319D01*
X57332856Y-148748691D01*
X57280410Y-148771436D01*
X57231322Y-148767678D01*
X57190227Y-148739916D01*
X57161758Y-148690648D01*
X57152631Y-148651543D01*
X57149007Y-148611553D01*
X57061372Y-148611553D01*
X57062285Y-148655551D01*
X57069196Y-148722416D01*
X57082884Y-148771105D01*
X57105096Y-148806951D01*
X57137574Y-148835287D01*
X57151733Y-148844445D01*
X57216053Y-148868293D01*
X57286473Y-148869794D01*
X57354595Y-148850834D01*
G36*
X56853600Y-148859048D02*
G01*
X56870948Y-148851466D01*
X56912356Y-148818672D01*
X56947765Y-148771253D01*
X56969664Y-148720649D01*
X56973229Y-148695702D01*
X56961279Y-148660873D01*
X56935067Y-148642443D01*
X56906964Y-148631284D01*
X56894095Y-148629228D01*
X56887829Y-148644151D01*
X56875456Y-148676625D01*
X56870028Y-148691298D01*
X56839590Y-148742056D01*
X56795520Y-148767373D01*
X56739010Y-148766594D01*
X56734825Y-148765597D01*
X56704655Y-148751293D01*
X56682476Y-148723407D01*
X56667327Y-148678513D01*
X56658250Y-148613185D01*
X56654286Y-148523996D01*
X56653914Y-148476539D01*
X56653730Y-148401729D01*
X56652522Y-148350731D01*
X56649309Y-148318329D01*
X56643109Y-148299305D01*
X56632940Y-148288444D01*
X56617819Y-148280528D01*
X56616946Y-148280130D01*
X56587828Y-148267819D01*
X56573403Y-148263286D01*
X56571186Y-148276991D01*
X56569289Y-148314875D01*
X56567847Y-148372085D01*
X56566998Y-148443773D01*
X56566829Y-148496235D01*
X56567692Y-148597753D01*
X56571070Y-148674768D01*
X56578142Y-148731777D01*
X56590088Y-148773274D01*
X56608090Y-148803757D01*
X56633327Y-148827720D01*
X56658247Y-148844445D01*
X56718171Y-148866703D01*
X56787911Y-148871724D01*
X56853600Y-148859048D01*
G37*
X56853600Y-148859048D02*
X56870948Y-148851466D01*
X56912356Y-148818672D01*
X56947765Y-148771253D01*
X56969664Y-148720649D01*
X56973229Y-148695702D01*
X56961279Y-148660873D01*
X56935067Y-148642443D01*
X56906964Y-148631284D01*
X56894095Y-148629228D01*
X56887829Y-148644151D01*
X56875456Y-148676625D01*
X56870028Y-148691298D01*
X56839590Y-148742056D01*
X56795520Y-148767373D01*
X56739010Y-148766594D01*
X56734825Y-148765597D01*
X56704655Y-148751293D01*
X56682476Y-148723407D01*
X56667327Y-148678513D01*
X56658250Y-148613185D01*
X56654286Y-148523996D01*
X56653914Y-148476539D01*
X56653730Y-148401729D01*
X56652522Y-148350731D01*
X56649309Y-148318329D01*
X56643109Y-148299305D01*
X56632940Y-148288444D01*
X56617819Y-148280528D01*
X56616946Y-148280130D01*
X56587828Y-148267819D01*
X56573403Y-148263286D01*
X56571186Y-148276991D01*
X56569289Y-148314875D01*
X56567847Y-148372085D01*
X56566998Y-148443773D01*
X56566829Y-148496235D01*
X56567692Y-148597753D01*
X56571070Y-148674768D01*
X56578142Y-148731777D01*
X56590088Y-148773274D01*
X56608090Y-148803757D01*
X56633327Y-148827720D01*
X56658247Y-148844445D01*
X56718171Y-148866703D01*
X56787911Y-148871724D01*
X56853600Y-148859048D01*
G36*
X56345876Y-148861465D02*
G01*
X56387667Y-148842456D01*
X56420469Y-148819422D01*
X56444503Y-148793667D01*
X56461097Y-148760442D01*
X56471577Y-148715000D01*
X56477271Y-148652593D01*
X56479507Y-148568473D01*
X56479743Y-148513079D01*
X56479743Y-148296974D01*
X56442774Y-148280130D01*
X56413656Y-148267819D01*
X56399231Y-148263286D01*
X56396472Y-148276775D01*
X56394282Y-148313147D01*
X56392942Y-148366258D01*
X56392657Y-148408428D01*
X56391434Y-148469353D01*
X56388136Y-148517685D01*
X56383321Y-148547282D01*
X56379496Y-148553571D01*
X56353783Y-148547148D01*
X56313418Y-148530675D01*
X56266679Y-148508342D01*
X56221845Y-148484343D01*
X56187193Y-148462870D01*
X56171002Y-148448115D01*
X56170938Y-148447955D01*
X56172330Y-148420648D01*
X56184818Y-148394581D01*
X56206743Y-148373408D01*
X56238743Y-148366326D01*
X56266092Y-148367151D01*
X56304826Y-148367758D01*
X56325158Y-148358684D01*
X56337369Y-148334708D01*
X56338909Y-148330187D01*
X56344203Y-148295994D01*
X56330047Y-148275232D01*
X56293148Y-148265338D01*
X56253289Y-148263508D01*
X56181562Y-148277073D01*
X56144432Y-148296445D01*
X56098576Y-148341955D01*
X56074256Y-148397817D01*
X56072073Y-148456843D01*
X56092629Y-148511847D01*
X56123549Y-148546314D01*
X56154420Y-148565611D01*
X56202942Y-148590041D01*
X56259485Y-148614815D01*
X56268910Y-148618601D01*
X56331019Y-148646009D01*
X56366822Y-148670166D01*
X56378337Y-148694181D01*
X56367580Y-148721165D01*
X56349114Y-148742257D01*
X56305469Y-148768228D01*
X56257446Y-148770176D01*
X56213406Y-148750163D01*
X56181709Y-148710249D01*
X56177549Y-148699952D01*
X56153327Y-148662076D01*
X56117965Y-148633958D01*
X56073343Y-148610883D01*
X56073343Y-148676315D01*
X56075969Y-148716294D01*
X56087230Y-148747803D01*
X56112199Y-148781422D01*
X56136169Y-148807316D01*
X56173441Y-148843983D01*
X56202401Y-148863679D01*
X56233505Y-148871580D01*
X56268713Y-148872886D01*
X56345876Y-148861465D01*
G37*
X56345876Y-148861465D02*
X56387667Y-148842456D01*
X56420469Y-148819422D01*
X56444503Y-148793667D01*
X56461097Y-148760442D01*
X56471577Y-148715000D01*
X56477271Y-148652593D01*
X56479507Y-148568473D01*
X56479743Y-148513079D01*
X56479743Y-148296974D01*
X56442774Y-148280130D01*
X56413656Y-148267819D01*
X56399231Y-148263286D01*
X56396472Y-148276775D01*
X56394282Y-148313147D01*
X56392942Y-148366258D01*
X56392657Y-148408428D01*
X56391434Y-148469353D01*
X56388136Y-148517685D01*
X56383321Y-148547282D01*
X56379496Y-148553571D01*
X56353783Y-148547148D01*
X56313418Y-148530675D01*
X56266679Y-148508342D01*
X56221845Y-148484343D01*
X56187193Y-148462870D01*
X56171002Y-148448115D01*
X56170938Y-148447955D01*
X56172330Y-148420648D01*
X56184818Y-148394581D01*
X56206743Y-148373408D01*
X56238743Y-148366326D01*
X56266092Y-148367151D01*
X56304826Y-148367758D01*
X56325158Y-148358684D01*
X56337369Y-148334708D01*
X56338909Y-148330187D01*
X56344203Y-148295994D01*
X56330047Y-148275232D01*
X56293148Y-148265338D01*
X56253289Y-148263508D01*
X56181562Y-148277073D01*
X56144432Y-148296445D01*
X56098576Y-148341955D01*
X56074256Y-148397817D01*
X56072073Y-148456843D01*
X56092629Y-148511847D01*
X56123549Y-148546314D01*
X56154420Y-148565611D01*
X56202942Y-148590041D01*
X56259485Y-148614815D01*
X56268910Y-148618601D01*
X56331019Y-148646009D01*
X56366822Y-148670166D01*
X56378337Y-148694181D01*
X56367580Y-148721165D01*
X56349114Y-148742257D01*
X56305469Y-148768228D01*
X56257446Y-148770176D01*
X56213406Y-148750163D01*
X56181709Y-148710249D01*
X56177549Y-148699952D01*
X56153327Y-148662076D01*
X56117965Y-148633958D01*
X56073343Y-148610883D01*
X56073343Y-148676315D01*
X56075969Y-148716294D01*
X56087230Y-148747803D01*
X56112199Y-148781422D01*
X56136169Y-148807316D01*
X56173441Y-148843983D01*
X56202401Y-148863679D01*
X56233505Y-148871580D01*
X56268713Y-148872886D01*
X56345876Y-148861465D01*
G36*
X55980833Y-148859137D02*
G01*
X55983048Y-148820950D01*
X55984784Y-148762914D01*
X55985899Y-148689620D01*
X55986257Y-148612745D01*
X55986257Y-148352604D01*
X55940326Y-148306673D01*
X55908675Y-148278371D01*
X55880890Y-148266907D01*
X55842915Y-148267632D01*
X55827840Y-148269479D01*
X55780726Y-148274852D01*
X55741756Y-148277931D01*
X55732257Y-148278215D01*
X55700233Y-148276355D01*
X55654432Y-148271686D01*
X55636674Y-148269479D01*
X55593057Y-148266065D01*
X55563745Y-148273480D01*
X55534680Y-148296373D01*
X55524188Y-148306673D01*
X55478257Y-148352604D01*
X55478257Y-148839198D01*
X55515226Y-148856042D01*
X55547059Y-148868518D01*
X55565683Y-148872886D01*
X55570458Y-148859082D01*
X55574921Y-148820514D01*
X55578775Y-148761444D01*
X55581722Y-148686137D01*
X55583143Y-148622514D01*
X55587114Y-148372143D01*
X55621759Y-148367244D01*
X55653268Y-148370669D01*
X55668708Y-148381759D01*
X55673023Y-148402492D01*
X55676708Y-148446655D01*
X55679469Y-148508654D01*
X55681012Y-148582891D01*
X55681235Y-148621094D01*
X55681457Y-148841017D01*
X55727166Y-148856951D01*
X55759518Y-148867785D01*
X55777115Y-148872838D01*
X55777623Y-148872886D01*
X55779388Y-148859152D01*
X55781329Y-148821070D01*
X55783282Y-148763318D01*
X55785084Y-148690573D01*
X55786343Y-148622514D01*
X55790314Y-148372143D01*
X55877400Y-148372143D01*
X55881396Y-148600560D01*
X55885392Y-148828978D01*
X55927847Y-148850932D01*
X55959192Y-148866007D01*
X55977744Y-148872849D01*
X55978279Y-148872886D01*
X55980833Y-148859137D01*
G37*
X55980833Y-148859137D02*
X55983048Y-148820950D01*
X55984784Y-148762914D01*
X55985899Y-148689620D01*
X55986257Y-148612745D01*
X55986257Y-148352604D01*
X55940326Y-148306673D01*
X55908675Y-148278371D01*
X55880890Y-148266907D01*
X55842915Y-148267632D01*
X55827840Y-148269479D01*
X55780726Y-148274852D01*
X55741756Y-148277931D01*
X55732257Y-148278215D01*
X55700233Y-148276355D01*
X55654432Y-148271686D01*
X55636674Y-148269479D01*
X55593057Y-148266065D01*
X55563745Y-148273480D01*
X55534680Y-148296373D01*
X55524188Y-148306673D01*
X55478257Y-148352604D01*
X55478257Y-148839198D01*
X55515226Y-148856042D01*
X55547059Y-148868518D01*
X55565683Y-148872886D01*
X55570458Y-148859082D01*
X55574921Y-148820514D01*
X55578775Y-148761444D01*
X55581722Y-148686137D01*
X55583143Y-148622514D01*
X55587114Y-148372143D01*
X55621759Y-148367244D01*
X55653268Y-148370669D01*
X55668708Y-148381759D01*
X55673023Y-148402492D01*
X55676708Y-148446655D01*
X55679469Y-148508654D01*
X55681012Y-148582891D01*
X55681235Y-148621094D01*
X55681457Y-148841017D01*
X55727166Y-148856951D01*
X55759518Y-148867785D01*
X55777115Y-148872838D01*
X55777623Y-148872886D01*
X55779388Y-148859152D01*
X55781329Y-148821070D01*
X55783282Y-148763318D01*
X55785084Y-148690573D01*
X55786343Y-148622514D01*
X55790314Y-148372143D01*
X55877400Y-148372143D01*
X55881396Y-148600560D01*
X55885392Y-148828978D01*
X55927847Y-148850932D01*
X55959192Y-148866007D01*
X55977744Y-148872849D01*
X55978279Y-148872886D01*
X55980833Y-148859137D01*
G36*
X55391117Y-148752442D02*
G01*
X55390933Y-148643963D01*
X55390219Y-148560513D01*
X55388675Y-148498096D01*
X55386001Y-148452715D01*
X55381894Y-148420371D01*
X55376055Y-148397067D01*
X55368182Y-148378805D01*
X55362221Y-148368382D01*
X55312855Y-148311855D01*
X55250264Y-148276423D01*
X55181013Y-148263710D01*
X55111668Y-148275337D01*
X55070375Y-148296232D01*
X55027025Y-148332378D01*
X54997481Y-148376524D01*
X54979655Y-148434338D01*
X54971463Y-148511487D01*
X54970302Y-148568086D01*
X54970458Y-148572153D01*
X55071857Y-148572153D01*
X55072476Y-148507250D01*
X55075314Y-148464286D01*
X55081840Y-148436178D01*
X55093523Y-148415847D01*
X55107483Y-148400512D01*
X55154365Y-148370910D01*
X55204701Y-148368381D01*
X55252276Y-148393095D01*
X55255979Y-148396444D01*
X55271783Y-148413865D01*
X55281693Y-148434591D01*
X55287058Y-148465438D01*
X55289228Y-148513223D01*
X55289571Y-148566052D01*
X55288827Y-148632419D01*
X55285748Y-148676694D01*
X55279061Y-148705791D01*
X55267496Y-148726627D01*
X55258013Y-148737693D01*
X55213960Y-148765602D01*
X55163224Y-148768957D01*
X55114796Y-148747641D01*
X55105450Y-148739727D01*
X55089540Y-148722153D01*
X55079610Y-148701213D01*
X55074278Y-148670018D01*
X55072163Y-148621678D01*
X55071857Y-148572153D01*
X54970458Y-148572153D01*
X54973810Y-148659232D01*
X54985726Y-148727714D01*
X55008135Y-148779200D01*
X55043124Y-148819357D01*
X55070375Y-148839939D01*
X55119907Y-148862175D01*
X55177316Y-148872496D01*
X55230682Y-148869733D01*
X55260543Y-148858588D01*
X55272261Y-148855417D01*
X55280037Y-148867243D01*
X55285465Y-148898934D01*
X55289571Y-148947207D01*
X55294067Y-149000971D01*
X55300313Y-149033318D01*
X55311676Y-149051815D01*
X55331528Y-149064030D01*
X55344000Y-149069438D01*
X55391171Y-149089199D01*
X55391117Y-148752442D01*
G37*
X55391117Y-148752442D02*
X55390933Y-148643963D01*
X55390219Y-148560513D01*
X55388675Y-148498096D01*
X55386001Y-148452715D01*
X55381894Y-148420371D01*
X55376055Y-148397067D01*
X55368182Y-148378805D01*
X55362221Y-148368382D01*
X55312855Y-148311855D01*
X55250264Y-148276423D01*
X55181013Y-148263710D01*
X55111668Y-148275337D01*
X55070375Y-148296232D01*
X55027025Y-148332378D01*
X54997481Y-148376524D01*
X54979655Y-148434338D01*
X54971463Y-148511487D01*
X54970302Y-148568086D01*
X54970458Y-148572153D01*
X55071857Y-148572153D01*
X55072476Y-148507250D01*
X55075314Y-148464286D01*
X55081840Y-148436178D01*
X55093523Y-148415847D01*
X55107483Y-148400512D01*
X55154365Y-148370910D01*
X55204701Y-148368381D01*
X55252276Y-148393095D01*
X55255979Y-148396444D01*
X55271783Y-148413865D01*
X55281693Y-148434591D01*
X55287058Y-148465438D01*
X55289228Y-148513223D01*
X55289571Y-148566052D01*
X55288827Y-148632419D01*
X55285748Y-148676694D01*
X55279061Y-148705791D01*
X55267496Y-148726627D01*
X55258013Y-148737693D01*
X55213960Y-148765602D01*
X55163224Y-148768957D01*
X55114796Y-148747641D01*
X55105450Y-148739727D01*
X55089540Y-148722153D01*
X55079610Y-148701213D01*
X55074278Y-148670018D01*
X55072163Y-148621678D01*
X55071857Y-148572153D01*
X54970458Y-148572153D01*
X54973810Y-148659232D01*
X54985726Y-148727714D01*
X55008135Y-148779200D01*
X55043124Y-148819357D01*
X55070375Y-148839939D01*
X55119907Y-148862175D01*
X55177316Y-148872496D01*
X55230682Y-148869733D01*
X55260543Y-148858588D01*
X55272261Y-148855417D01*
X55280037Y-148867243D01*
X55285465Y-148898934D01*
X55289571Y-148947207D01*
X55294067Y-149000971D01*
X55300313Y-149033318D01*
X55311676Y-149051815D01*
X55331528Y-149064030D01*
X55344000Y-149069438D01*
X55391171Y-149089199D01*
X55391117Y-148752442D01*
G36*
X54730926Y-148868045D02*
G01*
X54796858Y-148843716D01*
X54850273Y-148800683D01*
X54871164Y-148770391D01*
X54893939Y-148714806D01*
X54893466Y-148674614D01*
X54869562Y-148647583D01*
X54860717Y-148642987D01*
X54822530Y-148628656D01*
X54803028Y-148632328D01*
X54796422Y-148656393D01*
X54796086Y-148669686D01*
X54783992Y-148718590D01*
X54752471Y-148752801D01*
X54708659Y-148769324D01*
X54659695Y-148765166D01*
X54619894Y-148743573D01*
X54606450Y-148731256D01*
X54596921Y-148716313D01*
X54590485Y-148693725D01*
X54586317Y-148658472D01*
X54583597Y-148605534D01*
X54581502Y-148529893D01*
X54580960Y-148505943D01*
X54578981Y-148424010D01*
X54576731Y-148366345D01*
X54573357Y-148328192D01*
X54568006Y-148304796D01*
X54559824Y-148291402D01*
X54547959Y-148283255D01*
X54540362Y-148279656D01*
X54508102Y-148267348D01*
X54489111Y-148263286D01*
X54482836Y-148276852D01*
X54479006Y-148317866D01*
X54477600Y-148386801D01*
X54478598Y-148484131D01*
X54478908Y-148499143D01*
X54481101Y-148587941D01*
X54483693Y-148652781D01*
X54487382Y-148698733D01*
X54492864Y-148730865D01*
X54500835Y-148754247D01*
X54511993Y-148773948D01*
X54517830Y-148782390D01*
X54551296Y-148819743D01*
X54588727Y-148848797D01*
X54593309Y-148851333D01*
X54660426Y-148871357D01*
X54730926Y-148868045D01*
G37*
X54730926Y-148868045D02*
X54796858Y-148843716D01*
X54850273Y-148800683D01*
X54871164Y-148770391D01*
X54893939Y-148714806D01*
X54893466Y-148674614D01*
X54869562Y-148647583D01*
X54860717Y-148642987D01*
X54822530Y-148628656D01*
X54803028Y-148632328D01*
X54796422Y-148656393D01*
X54796086Y-148669686D01*
X54783992Y-148718590D01*
X54752471Y-148752801D01*
X54708659Y-148769324D01*
X54659695Y-148765166D01*
X54619894Y-148743573D01*
X54606450Y-148731256D01*
X54596921Y-148716313D01*
X54590485Y-148693725D01*
X54586317Y-148658472D01*
X54583597Y-148605534D01*
X54581502Y-148529893D01*
X54580960Y-148505943D01*
X54578981Y-148424010D01*
X54576731Y-148366345D01*
X54573357Y-148328192D01*
X54568006Y-148304796D01*
X54559824Y-148291402D01*
X54547959Y-148283255D01*
X54540362Y-148279656D01*
X54508102Y-148267348D01*
X54489111Y-148263286D01*
X54482836Y-148276852D01*
X54479006Y-148317866D01*
X54477600Y-148386801D01*
X54478598Y-148484131D01*
X54478908Y-148499143D01*
X54481101Y-148587941D01*
X54483693Y-148652781D01*
X54487382Y-148698733D01*
X54492864Y-148730865D01*
X54500835Y-148754247D01*
X54511993Y-148773948D01*
X54517830Y-148782390D01*
X54551296Y-148819743D01*
X54588727Y-148848797D01*
X54593309Y-148851333D01*
X54660426Y-148871357D01*
X54730926Y-148868045D01*
G36*
X54240744Y-148866832D02*
G01*
X54297616Y-148845713D01*
X54298267Y-148845307D01*
X54333440Y-148819420D01*
X54359407Y-148789167D01*
X54377670Y-148749742D01*
X54389732Y-148696338D01*
X54397096Y-148624149D01*
X54401264Y-148528368D01*
X54401629Y-148514722D01*
X54406876Y-148308958D01*
X54362716Y-148286122D01*
X54330763Y-148270690D01*
X54311470Y-148263377D01*
X54310578Y-148263286D01*
X54307239Y-148276778D01*
X54304587Y-148313174D01*
X54302956Y-148366348D01*
X54302600Y-148409407D01*
X54302592Y-148479159D01*
X54299403Y-148522963D01*
X54288288Y-148543856D01*
X54264501Y-148544875D01*
X54223296Y-148529059D01*
X54161086Y-148499985D01*
X54115341Y-148475837D01*
X54091813Y-148454887D01*
X54084896Y-148432053D01*
X54084886Y-148430923D01*
X54096299Y-148391588D01*
X54130092Y-148370338D01*
X54181809Y-148367261D01*
X54219061Y-148367794D01*
X54238703Y-148357065D01*
X54250952Y-148331295D01*
X54258002Y-148298463D01*
X54247842Y-148279834D01*
X54244017Y-148277168D01*
X54208001Y-148266460D01*
X54157566Y-148264944D01*
X54105626Y-148272041D01*
X54068822Y-148285012D01*
X54017938Y-148328215D01*
X53989014Y-148388354D01*
X53983286Y-148435338D01*
X53987657Y-148477718D01*
X54003475Y-148512312D01*
X54034797Y-148543037D01*
X54085678Y-148573810D01*
X54160176Y-148608548D01*
X54164714Y-148610512D01*
X54231821Y-148641513D01*
X54273232Y-148666938D01*
X54290981Y-148689786D01*
X54287107Y-148713055D01*
X54263643Y-148739744D01*
X54256627Y-148745886D01*
X54209630Y-148769700D01*
X54160933Y-148768697D01*
X54118522Y-148745349D01*
X54090384Y-148702125D01*
X54087769Y-148693640D01*
X54062308Y-148652492D01*
X54030001Y-148632672D01*
X53983286Y-148613030D01*
X53983286Y-148663850D01*
X53997496Y-148737718D01*
X54039675Y-148805473D01*
X54061624Y-148828139D01*
X54111517Y-148857231D01*
X54174967Y-148870400D01*
X54240744Y-148866832D01*
G37*
X54240744Y-148866832D02*
X54297616Y-148845713D01*
X54298267Y-148845307D01*
X54333440Y-148819420D01*
X54359407Y-148789167D01*
X54377670Y-148749742D01*
X54389732Y-148696338D01*
X54397096Y-148624149D01*
X54401264Y-148528368D01*
X54401629Y-148514722D01*
X54406876Y-148308958D01*
X54362716Y-148286122D01*
X54330763Y-148270690D01*
X54311470Y-148263377D01*
X54310578Y-148263286D01*
X54307239Y-148276778D01*
X54304587Y-148313174D01*
X54302956Y-148366348D01*
X54302600Y-148409407D01*
X54302592Y-148479159D01*
X54299403Y-148522963D01*
X54288288Y-148543856D01*
X54264501Y-148544875D01*
X54223296Y-148529059D01*
X54161086Y-148499985D01*
X54115341Y-148475837D01*
X54091813Y-148454887D01*
X54084896Y-148432053D01*
X54084886Y-148430923D01*
X54096299Y-148391588D01*
X54130092Y-148370338D01*
X54181809Y-148367261D01*
X54219061Y-148367794D01*
X54238703Y-148357065D01*
X54250952Y-148331295D01*
X54258002Y-148298463D01*
X54247842Y-148279834D01*
X54244017Y-148277168D01*
X54208001Y-148266460D01*
X54157566Y-148264944D01*
X54105626Y-148272041D01*
X54068822Y-148285012D01*
X54017938Y-148328215D01*
X53989014Y-148388354D01*
X53983286Y-148435338D01*
X53987657Y-148477718D01*
X54003475Y-148512312D01*
X54034797Y-148543037D01*
X54085678Y-148573810D01*
X54160176Y-148608548D01*
X54164714Y-148610512D01*
X54231821Y-148641513D01*
X54273232Y-148666938D01*
X54290981Y-148689786D01*
X54287107Y-148713055D01*
X54263643Y-148739744D01*
X54256627Y-148745886D01*
X54209630Y-148769700D01*
X54160933Y-148768697D01*
X54118522Y-148745349D01*
X54090384Y-148702125D01*
X54087769Y-148693640D01*
X54062308Y-148652492D01*
X54030001Y-148632672D01*
X53983286Y-148613030D01*
X53983286Y-148663850D01*
X53997496Y-148737718D01*
X54039675Y-148805473D01*
X54061624Y-148828139D01*
X54111517Y-148857231D01*
X54174967Y-148870400D01*
X54240744Y-148866832D01*
G36*
X53576886Y-148966511D02*
G01*
X53581139Y-148907187D01*
X53586025Y-148872228D01*
X53592795Y-148856980D01*
X53602702Y-148856785D01*
X53605914Y-148858605D01*
X53648644Y-148871785D01*
X53704227Y-148871015D01*
X53760737Y-148857467D01*
X53796082Y-148839939D01*
X53832321Y-148811939D01*
X53858813Y-148780251D01*
X53876999Y-148739987D01*
X53888322Y-148686257D01*
X53894222Y-148614174D01*
X53896143Y-148518849D01*
X53896177Y-148500563D01*
X53896200Y-148295154D01*
X53850491Y-148279220D01*
X53818027Y-148268380D01*
X53800215Y-148263332D01*
X53799691Y-148263286D01*
X53797937Y-148276972D01*
X53796444Y-148314724D01*
X53795326Y-148371576D01*
X53794697Y-148442566D01*
X53794600Y-148485727D01*
X53794398Y-148570827D01*
X53793358Y-148631819D01*
X53790831Y-148673623D01*
X53786164Y-148701158D01*
X53778707Y-148719344D01*
X53767811Y-148733102D01*
X53761007Y-148739727D01*
X53714272Y-148766425D01*
X53663272Y-148768425D01*
X53617001Y-148745845D01*
X53608444Y-148737693D01*
X53595893Y-148722364D01*
X53587188Y-148704182D01*
X53581631Y-148677891D01*
X53578526Y-148638238D01*
X53577176Y-148579968D01*
X53576886Y-148499627D01*
X53576886Y-148295154D01*
X53531177Y-148279220D01*
X53498713Y-148268380D01*
X53480901Y-148263332D01*
X53480377Y-148263286D01*
X53479037Y-148277177D01*
X53477828Y-148316361D01*
X53476801Y-148377100D01*
X53476002Y-148455659D01*
X53475481Y-148548302D01*
X53475286Y-148651291D01*
X53475286Y-149048458D01*
X53522457Y-149068356D01*
X53569629Y-149088253D01*
X53576886Y-148966511D01*
G37*
X53576886Y-148966511D02*
X53581139Y-148907187D01*
X53586025Y-148872228D01*
X53592795Y-148856980D01*
X53602702Y-148856785D01*
X53605914Y-148858605D01*
X53648644Y-148871785D01*
X53704227Y-148871015D01*
X53760737Y-148857467D01*
X53796082Y-148839939D01*
X53832321Y-148811939D01*
X53858813Y-148780251D01*
X53876999Y-148739987D01*
X53888322Y-148686257D01*
X53894222Y-148614174D01*
X53896143Y-148518849D01*
X53896177Y-148500563D01*
X53896200Y-148295154D01*
X53850491Y-148279220D01*
X53818027Y-148268380D01*
X53800215Y-148263332D01*
X53799691Y-148263286D01*
X53797937Y-148276972D01*
X53796444Y-148314724D01*
X53795326Y-148371576D01*
X53794697Y-148442566D01*
X53794600Y-148485727D01*
X53794398Y-148570827D01*
X53793358Y-148631819D01*
X53790831Y-148673623D01*
X53786164Y-148701158D01*
X53778707Y-148719344D01*
X53767811Y-148733102D01*
X53761007Y-148739727D01*
X53714272Y-148766425D01*
X53663272Y-148768425D01*
X53617001Y-148745845D01*
X53608444Y-148737693D01*
X53595893Y-148722364D01*
X53587188Y-148704182D01*
X53581631Y-148677891D01*
X53578526Y-148638238D01*
X53577176Y-148579968D01*
X53576886Y-148499627D01*
X53576886Y-148295154D01*
X53531177Y-148279220D01*
X53498713Y-148268380D01*
X53480901Y-148263332D01*
X53480377Y-148263286D01*
X53479037Y-148277177D01*
X53477828Y-148316361D01*
X53476801Y-148377100D01*
X53476002Y-148455659D01*
X53475481Y-148548302D01*
X53475286Y-148651291D01*
X53475286Y-149048458D01*
X53522457Y-149068356D01*
X53569629Y-149088253D01*
X53576886Y-148966511D01*
G36*
X52369303Y-148886561D02*
G01*
X52426527Y-148848065D01*
X52470749Y-148792465D01*
X52497167Y-148721714D01*
X52502510Y-148669638D01*
X52501903Y-148647907D01*
X52496822Y-148631269D01*
X52482855Y-148616363D01*
X52455589Y-148599827D01*
X52410612Y-148578302D01*
X52343511Y-148548426D01*
X52343171Y-148548276D01*
X52281407Y-148519987D01*
X52230759Y-148494867D01*
X52196404Y-148475621D01*
X52183518Y-148464952D01*
X52183514Y-148464866D01*
X52194872Y-148441634D01*
X52221431Y-148416026D01*
X52251923Y-148397579D01*
X52267370Y-148393914D01*
X52309515Y-148406588D01*
X52345808Y-148438329D01*
X52363517Y-148473228D01*
X52380552Y-148498955D01*
X52413922Y-148528254D01*
X52453149Y-148553565D01*
X52487756Y-148567329D01*
X52494993Y-148568086D01*
X52503139Y-148555640D01*
X52503630Y-148523828D01*
X52497643Y-148480934D01*
X52486357Y-148435242D01*
X52470950Y-148395039D01*
X52470171Y-148393478D01*
X52423804Y-148328738D01*
X52363711Y-148284703D01*
X52295465Y-148263089D01*
X52224638Y-148265615D01*
X52156804Y-148293996D01*
X52153788Y-148295992D01*
X52100427Y-148344352D01*
X52065340Y-148407448D01*
X52045922Y-148490413D01*
X52043316Y-148513722D01*
X52038701Y-148623745D01*
X52044233Y-148675052D01*
X52183514Y-148675052D01*
X52185324Y-148643047D01*
X52195222Y-148633707D01*
X52219898Y-148640695D01*
X52258795Y-148657213D01*
X52302275Y-148677919D01*
X52303356Y-148678467D01*
X52340209Y-148697851D01*
X52355000Y-148710787D01*
X52351353Y-148724349D01*
X52335995Y-148742168D01*
X52296923Y-148767955D01*
X52254846Y-148769850D01*
X52217103Y-148751083D01*
X52191034Y-148714885D01*
X52183514Y-148675052D01*
X52044233Y-148675052D01*
X52048194Y-148711773D01*
X52072550Y-148781588D01*
X52106456Y-148830498D01*
X52167653Y-148879922D01*
X52235063Y-148904441D01*
X52303880Y-148906003D01*
X52369303Y-148886561D01*
G37*
X52369303Y-148886561D02*
X52426527Y-148848065D01*
X52470749Y-148792465D01*
X52497167Y-148721714D01*
X52502510Y-148669638D01*
X52501903Y-148647907D01*
X52496822Y-148631269D01*
X52482855Y-148616363D01*
X52455589Y-148599827D01*
X52410612Y-148578302D01*
X52343511Y-148548426D01*
X52343171Y-148548276D01*
X52281407Y-148519987D01*
X52230759Y-148494867D01*
X52196404Y-148475621D01*
X52183518Y-148464952D01*
X52183514Y-148464866D01*
X52194872Y-148441634D01*
X52221431Y-148416026D01*
X52251923Y-148397579D01*
X52267370Y-148393914D01*
X52309515Y-148406588D01*
X52345808Y-148438329D01*
X52363517Y-148473228D01*
X52380552Y-148498955D01*
X52413922Y-148528254D01*
X52453149Y-148553565D01*
X52487756Y-148567329D01*
X52494993Y-148568086D01*
X52503139Y-148555640D01*
X52503630Y-148523828D01*
X52497643Y-148480934D01*
X52486357Y-148435242D01*
X52470950Y-148395039D01*
X52470171Y-148393478D01*
X52423804Y-148328738D01*
X52363711Y-148284703D01*
X52295465Y-148263089D01*
X52224638Y-148265615D01*
X52156804Y-148293996D01*
X52153788Y-148295992D01*
X52100427Y-148344352D01*
X52065340Y-148407448D01*
X52045922Y-148490413D01*
X52043316Y-148513722D01*
X52038701Y-148623745D01*
X52044233Y-148675052D01*
X52183514Y-148675052D01*
X52185324Y-148643047D01*
X52195222Y-148633707D01*
X52219898Y-148640695D01*
X52258795Y-148657213D01*
X52302275Y-148677919D01*
X52303356Y-148678467D01*
X52340209Y-148697851D01*
X52355000Y-148710787D01*
X52351353Y-148724349D01*
X52335995Y-148742168D01*
X52296923Y-148767955D01*
X52254846Y-148769850D01*
X52217103Y-148751083D01*
X52191034Y-148714885D01*
X52183514Y-148675052D01*
X52044233Y-148675052D01*
X52048194Y-148711773D01*
X52072550Y-148781588D01*
X52106456Y-148830498D01*
X52167653Y-148879922D01*
X52235063Y-148904441D01*
X52303880Y-148906003D01*
X52369303Y-148886561D01*
G36*
X51242115Y-148895838D02*
G01*
X51310145Y-148860067D01*
X51360351Y-148802499D01*
X51378185Y-148765488D01*
X51392063Y-148709918D01*
X51399167Y-148639704D01*
X51399840Y-148563073D01*
X51394427Y-148488248D01*
X51383270Y-148423458D01*
X51366714Y-148376927D01*
X51361626Y-148368913D01*
X51301355Y-148309093D01*
X51229769Y-148273265D01*
X51152092Y-148262780D01*
X51073548Y-148278990D01*
X51051689Y-148288708D01*
X51009122Y-148318657D01*
X50971763Y-148358367D01*
X50968232Y-148363403D01*
X50953881Y-148387676D01*
X50944394Y-148413622D01*
X50938790Y-148447778D01*
X50936086Y-148496681D01*
X50935299Y-148566865D01*
X50935286Y-148582600D01*
X50935322Y-148587608D01*
X51080429Y-148587608D01*
X51081273Y-148521370D01*
X51084596Y-148477414D01*
X51091583Y-148449021D01*
X51103416Y-148429475D01*
X51109457Y-148422943D01*
X51144186Y-148398120D01*
X51177903Y-148399252D01*
X51211995Y-148420784D01*
X51232329Y-148443771D01*
X51244371Y-148477322D01*
X51251134Y-148530231D01*
X51251598Y-148536401D01*
X51252752Y-148632287D01*
X51240688Y-148703501D01*
X51215570Y-148749606D01*
X51177560Y-148770165D01*
X51163992Y-148771286D01*
X51128364Y-148765648D01*
X51103994Y-148746114D01*
X51089093Y-148708758D01*
X51081875Y-148649650D01*
X51080429Y-148587608D01*
X50935322Y-148587608D01*
X50935826Y-148657387D01*
X50938096Y-148709641D01*
X50943068Y-148745851D01*
X50951713Y-148772501D01*
X50965005Y-148796078D01*
X50967943Y-148800462D01*
X51017313Y-148859551D01*
X51071109Y-148893853D01*
X51136602Y-148907469D01*
X51158842Y-148908135D01*
X51242115Y-148895838D01*
G37*
X51242115Y-148895838D02*
X51310145Y-148860067D01*
X51360351Y-148802499D01*
X51378185Y-148765488D01*
X51392063Y-148709918D01*
X51399167Y-148639704D01*
X51399840Y-148563073D01*
X51394427Y-148488248D01*
X51383270Y-148423458D01*
X51366714Y-148376927D01*
X51361626Y-148368913D01*
X51301355Y-148309093D01*
X51229769Y-148273265D01*
X51152092Y-148262780D01*
X51073548Y-148278990D01*
X51051689Y-148288708D01*
X51009122Y-148318657D01*
X50971763Y-148358367D01*
X50968232Y-148363403D01*
X50953881Y-148387676D01*
X50944394Y-148413622D01*
X50938790Y-148447778D01*
X50936086Y-148496681D01*
X50935299Y-148566865D01*
X50935286Y-148582600D01*
X50935322Y-148587608D01*
X51080429Y-148587608D01*
X51081273Y-148521370D01*
X51084596Y-148477414D01*
X51091583Y-148449021D01*
X51103416Y-148429475D01*
X51109457Y-148422943D01*
X51144186Y-148398120D01*
X51177903Y-148399252D01*
X51211995Y-148420784D01*
X51232329Y-148443771D01*
X51244371Y-148477322D01*
X51251134Y-148530231D01*
X51251598Y-148536401D01*
X51252752Y-148632287D01*
X51240688Y-148703501D01*
X51215570Y-148749606D01*
X51177560Y-148770165D01*
X51163992Y-148771286D01*
X51128364Y-148765648D01*
X51103994Y-148746114D01*
X51089093Y-148708758D01*
X51081875Y-148649650D01*
X51080429Y-148587608D01*
X50935322Y-148587608D01*
X50935826Y-148657387D01*
X50938096Y-148709641D01*
X50943068Y-148745851D01*
X50951713Y-148772501D01*
X50965005Y-148796078D01*
X50967943Y-148800462D01*
X51017313Y-148859551D01*
X51071109Y-148893853D01*
X51136602Y-148907469D01*
X51158842Y-148908135D01*
X51242115Y-148895838D01*
G36*
X52917093Y-148890020D02*
G01*
X52963672Y-148863077D01*
X52996057Y-148836334D01*
X53019742Y-148808316D01*
X53036059Y-148774052D01*
X53046339Y-148728573D01*
X53051914Y-148666908D01*
X53054116Y-148584089D01*
X53054371Y-148524554D01*
X53054371Y-148305409D01*
X52992686Y-148277756D01*
X52931000Y-148250103D01*
X52923743Y-148490130D01*
X52920744Y-148579772D01*
X52917598Y-148644838D01*
X52913701Y-148689774D01*
X52908447Y-148719030D01*
X52901231Y-148737052D01*
X52891450Y-148748289D01*
X52888312Y-148750721D01*
X52840761Y-148769717D01*
X52792697Y-148762200D01*
X52764086Y-148742257D01*
X52752447Y-148728125D01*
X52744391Y-148709580D01*
X52739271Y-148681466D01*
X52736441Y-148638627D01*
X52735256Y-148575905D01*
X52735057Y-148510539D01*
X52735018Y-148428532D01*
X52733614Y-148370484D01*
X52728914Y-148331335D01*
X52718987Y-148306020D01*
X52701903Y-148289477D01*
X52675732Y-148276644D01*
X52640775Y-148263309D01*
X52602596Y-148248793D01*
X52607141Y-148506411D01*
X52608971Y-148599281D01*
X52611112Y-148667911D01*
X52614181Y-148717089D01*
X52618794Y-148751602D01*
X52625568Y-148776238D01*
X52635119Y-148795784D01*
X52646634Y-148813030D01*
X52702190Y-148868120D01*
X52769980Y-148899978D01*
X52843713Y-148907609D01*
X52917093Y-148890020D01*
G37*
X52917093Y-148890020D02*
X52963672Y-148863077D01*
X52996057Y-148836334D01*
X53019742Y-148808316D01*
X53036059Y-148774052D01*
X53046339Y-148728573D01*
X53051914Y-148666908D01*
X53054116Y-148584089D01*
X53054371Y-148524554D01*
X53054371Y-148305409D01*
X52992686Y-148277756D01*
X52931000Y-148250103D01*
X52923743Y-148490130D01*
X52920744Y-148579772D01*
X52917598Y-148644838D01*
X52913701Y-148689774D01*
X52908447Y-148719030D01*
X52901231Y-148737052D01*
X52891450Y-148748289D01*
X52888312Y-148750721D01*
X52840761Y-148769717D01*
X52792697Y-148762200D01*
X52764086Y-148742257D01*
X52752447Y-148728125D01*
X52744391Y-148709580D01*
X52739271Y-148681466D01*
X52736441Y-148638627D01*
X52735256Y-148575905D01*
X52735057Y-148510539D01*
X52735018Y-148428532D01*
X52733614Y-148370484D01*
X52728914Y-148331335D01*
X52718987Y-148306020D01*
X52701903Y-148289477D01*
X52675732Y-148276644D01*
X52640775Y-148263309D01*
X52602596Y-148248793D01*
X52607141Y-148506411D01*
X52608971Y-148599281D01*
X52611112Y-148667911D01*
X52614181Y-148717089D01*
X52618794Y-148751602D01*
X52625568Y-148776238D01*
X52635119Y-148795784D01*
X52646634Y-148813030D01*
X52702190Y-148868120D01*
X52769980Y-148899978D01*
X52843713Y-148907609D01*
X52917093Y-148890020D01*
G36*
X51800744Y-148897882D02*
G01*
X51856201Y-148870232D01*
X51905148Y-148819320D01*
X51918629Y-148800462D01*
X51933314Y-148775785D01*
X51942842Y-148748984D01*
X51948293Y-148713213D01*
X51950747Y-148661631D01*
X51951286Y-148593533D01*
X51948852Y-148500212D01*
X51940394Y-148430143D01*
X51924174Y-148377869D01*
X51898454Y-148337931D01*
X51861497Y-148304871D01*
X51858782Y-148302914D01*
X51822360Y-148282892D01*
X51778502Y-148272985D01*
X51722724Y-148270543D01*
X51632048Y-148270543D01*
X51632010Y-148182517D01*
X51631166Y-148133492D01*
X51626024Y-148104735D01*
X51612587Y-148087489D01*
X51586858Y-148072992D01*
X51580679Y-148070031D01*
X51551764Y-148056152D01*
X51529376Y-148047386D01*
X51512729Y-148046629D01*
X51501036Y-148056777D01*
X51493510Y-148080727D01*
X51489366Y-148121374D01*
X51487815Y-148181614D01*
X51488071Y-148264345D01*
X51489349Y-148372461D01*
X51489748Y-148404800D01*
X51491185Y-148516276D01*
X51492472Y-148589197D01*
X51631971Y-148589197D01*
X51632755Y-148527301D01*
X51636240Y-148486803D01*
X51644124Y-148460092D01*
X51658105Y-148439556D01*
X51667597Y-148429540D01*
X51706404Y-148400233D01*
X51740763Y-148397848D01*
X51776216Y-148422050D01*
X51777114Y-148422943D01*
X51791539Y-148441647D01*
X51800313Y-148467068D01*
X51804739Y-148506216D01*
X51806118Y-148566103D01*
X51806143Y-148579370D01*
X51802812Y-148661899D01*
X51791969Y-148719109D01*
X51772340Y-148754034D01*
X51742650Y-148769706D01*
X51725491Y-148771286D01*
X51684766Y-148763874D01*
X51656832Y-148739470D01*
X51640017Y-148694820D01*
X51632650Y-148626670D01*
X51631971Y-148589197D01*
X51492472Y-148589197D01*
X51492708Y-148602555D01*
X51494677Y-148667467D01*
X51497450Y-148714842D01*
X51501388Y-148748510D01*
X51506849Y-148772302D01*
X51514192Y-148790047D01*
X51523777Y-148805576D01*
X51527887Y-148811419D01*
X51582405Y-148866615D01*
X51651336Y-148897910D01*
X51731072Y-148906635D01*
X51800744Y-148897882D01*
G37*
X51800744Y-148897882D02*
X51856201Y-148870232D01*
X51905148Y-148819320D01*
X51918629Y-148800462D01*
X51933314Y-148775785D01*
X51942842Y-148748984D01*
X51948293Y-148713213D01*
X51950747Y-148661631D01*
X51951286Y-148593533D01*
X51948852Y-148500212D01*
X51940394Y-148430143D01*
X51924174Y-148377869D01*
X51898454Y-148337931D01*
X51861497Y-148304871D01*
X51858782Y-148302914D01*
X51822360Y-148282892D01*
X51778502Y-148272985D01*
X51722724Y-148270543D01*
X51632048Y-148270543D01*
X51632010Y-148182517D01*
X51631166Y-148133492D01*
X51626024Y-148104735D01*
X51612587Y-148087489D01*
X51586858Y-148072992D01*
X51580679Y-148070031D01*
X51551764Y-148056152D01*
X51529376Y-148047386D01*
X51512729Y-148046629D01*
X51501036Y-148056777D01*
X51493510Y-148080727D01*
X51489366Y-148121374D01*
X51487815Y-148181614D01*
X51488071Y-148264345D01*
X51489349Y-148372461D01*
X51489748Y-148404800D01*
X51491185Y-148516276D01*
X51492472Y-148589197D01*
X51631971Y-148589197D01*
X51632755Y-148527301D01*
X51636240Y-148486803D01*
X51644124Y-148460092D01*
X51658105Y-148439556D01*
X51667597Y-148429540D01*
X51706404Y-148400233D01*
X51740763Y-148397848D01*
X51776216Y-148422050D01*
X51777114Y-148422943D01*
X51791539Y-148441647D01*
X51800313Y-148467068D01*
X51804739Y-148506216D01*
X51806118Y-148566103D01*
X51806143Y-148579370D01*
X51802812Y-148661899D01*
X51791969Y-148719109D01*
X51772340Y-148754034D01*
X51742650Y-148769706D01*
X51725491Y-148771286D01*
X51684766Y-148763874D01*
X51656832Y-148739470D01*
X51640017Y-148694820D01*
X51632650Y-148626670D01*
X51631971Y-148589197D01*
X51492472Y-148589197D01*
X51492708Y-148602555D01*
X51494677Y-148667467D01*
X51497450Y-148714842D01*
X51501388Y-148748510D01*
X51506849Y-148772302D01*
X51514192Y-148790047D01*
X51523777Y-148805576D01*
X51527887Y-148811419D01*
X51582405Y-148866615D01*
X51651336Y-148897910D01*
X51731072Y-148906635D01*
X51800744Y-148897882D01*
M02*
