G04 #@! TF.GenerationSoftware,KiCad,Pcbnew,(5.1.5)-3*
G04 #@! TF.CreationDate,2020-04-18T22:31:02-04:00*
G04 #@! TF.ProjectId,Single_Receiver_Out,53696e67-6c65-45f5-9265-636569766572,v1*
G04 #@! TF.SameCoordinates,Original*
G04 #@! TF.FileFunction,Copper,L1,Top*
G04 #@! TF.FilePolarity,Positive*
%FSLAX46Y46*%
G04 Gerber Fmt 4.6, Leading zero omitted, Abs format (unit mm)*
G04 Created by KiCad (PCBNEW (5.1.5)-3) date 2020-04-18 22:31:02*
%MOMM*%
%LPD*%
G04 APERTURE LIST*
%ADD10O,1.700000X1.700000*%
%ADD11R,1.700000X1.700000*%
%ADD12C,1.600000*%
%ADD13O,1.600000X1.600000*%
%ADD14R,1.500000X1.050000*%
%ADD15O,1.500000X1.050000*%
%ADD16R,1.600000X1.600000*%
%ADD17O,1.800000X3.600000*%
%ADD18C,0.100000*%
%ADD19C,1.500000*%
%ADD20R,1.500000X1.500000*%
%ADD21C,1.000000*%
%ADD22C,0.200000*%
G04 APERTURE END LIST*
D10*
X58061000Y-124617800D03*
D11*
X60601000Y-124617800D03*
D12*
X60901000Y-139017800D03*
X55901000Y-139017800D03*
X57504960Y-130432840D03*
X62504960Y-130432840D03*
X57504960Y-127801400D03*
X62504960Y-127801400D03*
D13*
X53621000Y-121717800D03*
D12*
X46001000Y-121717800D03*
D14*
X59201000Y-135817800D03*
D15*
X59201000Y-133277800D03*
X59201000Y-134547800D03*
D13*
X53569240Y-127970080D03*
X45949240Y-135590080D03*
X53569240Y-130510080D03*
X45949240Y-133050080D03*
X53569240Y-133050080D03*
X45949240Y-130510080D03*
X53569240Y-135590080D03*
D16*
X45949240Y-127970080D03*
D13*
X53482880Y-138817800D03*
D12*
X45862880Y-138817800D03*
D17*
X54833920Y-116717800D03*
X51333920Y-116717800D03*
G04 #@! TA.AperFunction,ComponentPad*
D18*
G36*
X48508424Y-114919004D02*
G01*
X48532693Y-114922604D01*
X48556491Y-114928565D01*
X48579591Y-114936830D01*
X48601769Y-114947320D01*
X48622813Y-114959933D01*
X48642518Y-114974547D01*
X48660697Y-114991023D01*
X48677173Y-115009202D01*
X48691787Y-115028907D01*
X48704400Y-115049951D01*
X48714890Y-115072129D01*
X48723155Y-115095229D01*
X48729116Y-115119027D01*
X48732716Y-115143296D01*
X48733920Y-115167800D01*
X48733920Y-118267800D01*
X48732716Y-118292304D01*
X48729116Y-118316573D01*
X48723155Y-118340371D01*
X48714890Y-118363471D01*
X48704400Y-118385649D01*
X48691787Y-118406693D01*
X48677173Y-118426398D01*
X48660697Y-118444577D01*
X48642518Y-118461053D01*
X48622813Y-118475667D01*
X48601769Y-118488280D01*
X48579591Y-118498770D01*
X48556491Y-118507035D01*
X48532693Y-118512996D01*
X48508424Y-118516596D01*
X48483920Y-118517800D01*
X47183920Y-118517800D01*
X47159416Y-118516596D01*
X47135147Y-118512996D01*
X47111349Y-118507035D01*
X47088249Y-118498770D01*
X47066071Y-118488280D01*
X47045027Y-118475667D01*
X47025322Y-118461053D01*
X47007143Y-118444577D01*
X46990667Y-118426398D01*
X46976053Y-118406693D01*
X46963440Y-118385649D01*
X46952950Y-118363471D01*
X46944685Y-118340371D01*
X46938724Y-118316573D01*
X46935124Y-118292304D01*
X46933920Y-118267800D01*
X46933920Y-115167800D01*
X46935124Y-115143296D01*
X46938724Y-115119027D01*
X46944685Y-115095229D01*
X46952950Y-115072129D01*
X46963440Y-115049951D01*
X46976053Y-115028907D01*
X46990667Y-115009202D01*
X47007143Y-114991023D01*
X47025322Y-114974547D01*
X47045027Y-114959933D01*
X47066071Y-114947320D01*
X47088249Y-114936830D01*
X47111349Y-114928565D01*
X47135147Y-114922604D01*
X47159416Y-114919004D01*
X47183920Y-114917800D01*
X48483920Y-114917800D01*
X48508424Y-114919004D01*
G37*
G04 #@! TD.AperFunction*
D19*
X58791000Y-142229640D03*
X57521000Y-144769640D03*
X56251000Y-142229640D03*
X54981000Y-144769640D03*
X53711000Y-142229640D03*
X52441000Y-144769640D03*
X51171000Y-142229640D03*
D20*
X49901000Y-144769640D03*
D12*
X48528600Y-124642680D03*
X53528600Y-124642680D03*
D21*
X53640360Y-124754440D02*
X53528600Y-124642680D01*
D22*
G36*
X64176000Y-153892800D02*
G01*
X44626000Y-153892800D01*
X44626000Y-150932506D01*
X46731000Y-150932506D01*
X46731000Y-151306774D01*
X46804016Y-151673849D01*
X46947242Y-152019627D01*
X47155174Y-152330819D01*
X47419821Y-152595466D01*
X47731013Y-152803398D01*
X48076791Y-152946624D01*
X48443866Y-153019640D01*
X48818134Y-153019640D01*
X49185209Y-152946624D01*
X49530987Y-152803398D01*
X49842179Y-152595466D01*
X50106826Y-152330819D01*
X50314758Y-152019627D01*
X50457984Y-151673849D01*
X50531000Y-151306774D01*
X50531000Y-150932506D01*
X58161000Y-150932506D01*
X58161000Y-151306774D01*
X58234016Y-151673849D01*
X58377242Y-152019627D01*
X58585174Y-152330819D01*
X58849821Y-152595466D01*
X59161013Y-152803398D01*
X59506791Y-152946624D01*
X59873866Y-153019640D01*
X60248134Y-153019640D01*
X60615209Y-152946624D01*
X60960987Y-152803398D01*
X61272179Y-152595466D01*
X61536826Y-152330819D01*
X61744758Y-152019627D01*
X61887984Y-151673849D01*
X61961000Y-151306774D01*
X61961000Y-150932506D01*
X61887984Y-150565431D01*
X61744758Y-150219653D01*
X61536826Y-149908461D01*
X61272179Y-149643814D01*
X60960987Y-149435882D01*
X60615209Y-149292656D01*
X60248134Y-149219640D01*
X59873866Y-149219640D01*
X59506791Y-149292656D01*
X59161013Y-149435882D01*
X58849821Y-149643814D01*
X58585174Y-149908461D01*
X58377242Y-150219653D01*
X58234016Y-150565431D01*
X58161000Y-150932506D01*
X50531000Y-150932506D01*
X50457984Y-150565431D01*
X50314758Y-150219653D01*
X50106826Y-149908461D01*
X49842179Y-149643814D01*
X49530987Y-149435882D01*
X49185209Y-149292656D01*
X48818134Y-149219640D01*
X48443866Y-149219640D01*
X48076791Y-149292656D01*
X47731013Y-149435882D01*
X47419821Y-149643814D01*
X47155174Y-149908461D01*
X46947242Y-150219653D01*
X46804016Y-150565431D01*
X46731000Y-150932506D01*
X44626000Y-150932506D01*
X44626000Y-144019640D01*
X48849549Y-144019640D01*
X48849549Y-145519640D01*
X48855341Y-145578450D01*
X48872496Y-145635000D01*
X48900353Y-145687117D01*
X48937842Y-145732798D01*
X48983523Y-145770287D01*
X49035640Y-145798144D01*
X49092190Y-145815299D01*
X49151000Y-145821091D01*
X50651000Y-145821091D01*
X50709810Y-145815299D01*
X50766360Y-145798144D01*
X50818477Y-145770287D01*
X50864158Y-145732798D01*
X50901647Y-145687117D01*
X50929504Y-145635000D01*
X50946659Y-145578450D01*
X50952451Y-145519640D01*
X50952451Y-144666224D01*
X51391000Y-144666224D01*
X51391000Y-144873056D01*
X51431350Y-145075914D01*
X51510502Y-145267002D01*
X51625411Y-145438976D01*
X51771664Y-145585229D01*
X51943638Y-145700138D01*
X52134726Y-145779290D01*
X52337584Y-145819640D01*
X52544416Y-145819640D01*
X52747274Y-145779290D01*
X52938362Y-145700138D01*
X53110336Y-145585229D01*
X53256589Y-145438976D01*
X53371498Y-145267002D01*
X53450650Y-145075914D01*
X53491000Y-144873056D01*
X53491000Y-144666224D01*
X53489041Y-144656375D01*
X53831000Y-144656375D01*
X53831000Y-144882905D01*
X53875194Y-145105083D01*
X53961884Y-145314369D01*
X54087737Y-145502722D01*
X54247918Y-145662903D01*
X54436271Y-145788756D01*
X54645557Y-145875446D01*
X54867735Y-145919640D01*
X55094265Y-145919640D01*
X55316443Y-145875446D01*
X55525729Y-145788756D01*
X55655806Y-145701841D01*
X57013063Y-145701841D01*
X57102879Y-145855525D01*
X57322758Y-145916231D01*
X57550256Y-145932874D01*
X57776630Y-145904816D01*
X57939121Y-145855525D01*
X58028937Y-145701841D01*
X57521000Y-145193904D01*
X57013063Y-145701841D01*
X55655806Y-145701841D01*
X55714082Y-145662903D01*
X55874263Y-145502722D01*
X56000116Y-145314369D01*
X56086806Y-145105083D01*
X56131000Y-144882905D01*
X56131000Y-144798896D01*
X56357766Y-144798896D01*
X56385824Y-145025270D01*
X56435115Y-145187761D01*
X56588799Y-145277577D01*
X57096736Y-144769640D01*
X57945264Y-144769640D01*
X58453201Y-145277577D01*
X58606885Y-145187761D01*
X58667591Y-144967882D01*
X58684234Y-144740384D01*
X58656176Y-144514010D01*
X58606885Y-144351519D01*
X58453201Y-144261703D01*
X57945264Y-144769640D01*
X57096736Y-144769640D01*
X56588799Y-144261703D01*
X56435115Y-144351519D01*
X56374409Y-144571398D01*
X56357766Y-144798896D01*
X56131000Y-144798896D01*
X56131000Y-144656375D01*
X56086806Y-144434197D01*
X56000116Y-144224911D01*
X55874263Y-144036558D01*
X55714082Y-143876377D01*
X55655807Y-143837439D01*
X57013063Y-143837439D01*
X57521000Y-144345376D01*
X58028937Y-143837439D01*
X57939121Y-143683755D01*
X57719242Y-143623049D01*
X57491744Y-143606406D01*
X57265370Y-143634464D01*
X57102879Y-143683755D01*
X57013063Y-143837439D01*
X55655807Y-143837439D01*
X55525729Y-143750524D01*
X55316443Y-143663834D01*
X55094265Y-143619640D01*
X54867735Y-143619640D01*
X54645557Y-143663834D01*
X54436271Y-143750524D01*
X54247918Y-143876377D01*
X54087737Y-144036558D01*
X53961884Y-144224911D01*
X53875194Y-144434197D01*
X53831000Y-144656375D01*
X53489041Y-144656375D01*
X53450650Y-144463366D01*
X53371498Y-144272278D01*
X53256589Y-144100304D01*
X53110336Y-143954051D01*
X52938362Y-143839142D01*
X52747274Y-143759990D01*
X52544416Y-143719640D01*
X52337584Y-143719640D01*
X52134726Y-143759990D01*
X51943638Y-143839142D01*
X51771664Y-143954051D01*
X51625411Y-144100304D01*
X51510502Y-144272278D01*
X51431350Y-144463366D01*
X51391000Y-144666224D01*
X50952451Y-144666224D01*
X50952451Y-144019640D01*
X50946659Y-143960830D01*
X50929504Y-143904280D01*
X50901647Y-143852163D01*
X50864158Y-143806482D01*
X50818477Y-143768993D01*
X50766360Y-143741136D01*
X50709810Y-143723981D01*
X50651000Y-143718189D01*
X49151000Y-143718189D01*
X49092190Y-143723981D01*
X49035640Y-143741136D01*
X48983523Y-143768993D01*
X48937842Y-143806482D01*
X48900353Y-143852163D01*
X48872496Y-143904280D01*
X48855341Y-143960830D01*
X48849549Y-144019640D01*
X44626000Y-144019640D01*
X44626000Y-142126224D01*
X50121000Y-142126224D01*
X50121000Y-142333056D01*
X50161350Y-142535914D01*
X50240502Y-142727002D01*
X50355411Y-142898976D01*
X50501664Y-143045229D01*
X50673638Y-143160138D01*
X50864726Y-143239290D01*
X51067584Y-143279640D01*
X51274416Y-143279640D01*
X51477274Y-143239290D01*
X51668362Y-143160138D01*
X51840336Y-143045229D01*
X51986589Y-142898976D01*
X52101498Y-142727002D01*
X52180650Y-142535914D01*
X52221000Y-142333056D01*
X52221000Y-142126224D01*
X52219041Y-142116375D01*
X52561000Y-142116375D01*
X52561000Y-142342905D01*
X52605194Y-142565083D01*
X52691884Y-142774369D01*
X52817737Y-142962722D01*
X52977918Y-143122903D01*
X53166271Y-143248756D01*
X53375557Y-143335446D01*
X53597735Y-143379640D01*
X53824265Y-143379640D01*
X54046443Y-143335446D01*
X54255729Y-143248756D01*
X54444082Y-143122903D01*
X54604263Y-142962722D01*
X54730116Y-142774369D01*
X54816806Y-142565083D01*
X54861000Y-142342905D01*
X54861000Y-142126224D01*
X55201000Y-142126224D01*
X55201000Y-142333056D01*
X55241350Y-142535914D01*
X55320502Y-142727002D01*
X55435411Y-142898976D01*
X55581664Y-143045229D01*
X55753638Y-143160138D01*
X55944726Y-143239290D01*
X56147584Y-143279640D01*
X56354416Y-143279640D01*
X56557274Y-143239290D01*
X56744250Y-143161841D01*
X58283063Y-143161841D01*
X58372879Y-143315525D01*
X58592758Y-143376231D01*
X58820256Y-143392874D01*
X59046630Y-143364816D01*
X59209121Y-143315525D01*
X59298937Y-143161841D01*
X58791000Y-142653904D01*
X58283063Y-143161841D01*
X56744250Y-143161841D01*
X56748362Y-143160138D01*
X56920336Y-143045229D01*
X57066589Y-142898976D01*
X57181498Y-142727002D01*
X57260650Y-142535914D01*
X57301000Y-142333056D01*
X57301000Y-142258896D01*
X57627766Y-142258896D01*
X57655824Y-142485270D01*
X57705115Y-142647761D01*
X57858799Y-142737577D01*
X58366736Y-142229640D01*
X59215264Y-142229640D01*
X59723201Y-142737577D01*
X59876885Y-142647761D01*
X59937591Y-142427882D01*
X59954234Y-142200384D01*
X59926176Y-141974010D01*
X59876885Y-141811519D01*
X59723201Y-141721703D01*
X59215264Y-142229640D01*
X58366736Y-142229640D01*
X57858799Y-141721703D01*
X57705115Y-141811519D01*
X57644409Y-142031398D01*
X57627766Y-142258896D01*
X57301000Y-142258896D01*
X57301000Y-142126224D01*
X57260650Y-141923366D01*
X57181498Y-141732278D01*
X57066589Y-141560304D01*
X56920336Y-141414051D01*
X56748362Y-141299142D01*
X56744251Y-141297439D01*
X58283063Y-141297439D01*
X58791000Y-141805376D01*
X59298937Y-141297439D01*
X59209121Y-141143755D01*
X58989242Y-141083049D01*
X58761744Y-141066406D01*
X58535370Y-141094464D01*
X58372879Y-141143755D01*
X58283063Y-141297439D01*
X56744251Y-141297439D01*
X56557274Y-141219990D01*
X56354416Y-141179640D01*
X56147584Y-141179640D01*
X55944726Y-141219990D01*
X55753638Y-141299142D01*
X55581664Y-141414051D01*
X55435411Y-141560304D01*
X55320502Y-141732278D01*
X55241350Y-141923366D01*
X55201000Y-142126224D01*
X54861000Y-142126224D01*
X54861000Y-142116375D01*
X54816806Y-141894197D01*
X54730116Y-141684911D01*
X54604263Y-141496558D01*
X54444082Y-141336377D01*
X54255729Y-141210524D01*
X54046443Y-141123834D01*
X53824265Y-141079640D01*
X53597735Y-141079640D01*
X53375557Y-141123834D01*
X53166271Y-141210524D01*
X52977918Y-141336377D01*
X52817737Y-141496558D01*
X52691884Y-141684911D01*
X52605194Y-141894197D01*
X52561000Y-142116375D01*
X52219041Y-142116375D01*
X52180650Y-141923366D01*
X52101498Y-141732278D01*
X51986589Y-141560304D01*
X51840336Y-141414051D01*
X51668362Y-141299142D01*
X51477274Y-141219990D01*
X51274416Y-141179640D01*
X51067584Y-141179640D01*
X50864726Y-141219990D01*
X50673638Y-141299142D01*
X50501664Y-141414051D01*
X50355411Y-141560304D01*
X50240502Y-141732278D01*
X50161350Y-141923366D01*
X50121000Y-142126224D01*
X44626000Y-142126224D01*
X44626000Y-138709459D01*
X44762880Y-138709459D01*
X44762880Y-138926141D01*
X44805153Y-139138658D01*
X44888073Y-139338845D01*
X45008455Y-139519009D01*
X45161671Y-139672225D01*
X45341835Y-139792607D01*
X45542022Y-139875527D01*
X45754539Y-139917800D01*
X45971221Y-139917800D01*
X46183738Y-139875527D01*
X46383925Y-139792607D01*
X46564089Y-139672225D01*
X46717305Y-139519009D01*
X46837687Y-139338845D01*
X46920607Y-139138658D01*
X46962880Y-138926141D01*
X46962880Y-138709459D01*
X52382880Y-138709459D01*
X52382880Y-138926141D01*
X52425153Y-139138658D01*
X52508073Y-139338845D01*
X52628455Y-139519009D01*
X52781671Y-139672225D01*
X52961835Y-139792607D01*
X53162022Y-139875527D01*
X53374539Y-139917800D01*
X53591221Y-139917800D01*
X53803738Y-139875527D01*
X54003925Y-139792607D01*
X54184089Y-139672225D01*
X54337305Y-139519009D01*
X54457687Y-139338845D01*
X54540607Y-139138658D01*
X54582880Y-138926141D01*
X54582880Y-138899610D01*
X54701000Y-138899610D01*
X54701000Y-139135990D01*
X54747116Y-139367827D01*
X54837574Y-139586213D01*
X54968899Y-139782755D01*
X55136045Y-139949901D01*
X55332587Y-140081226D01*
X55550973Y-140171684D01*
X55782810Y-140217800D01*
X56019190Y-140217800D01*
X56251027Y-140171684D01*
X56469413Y-140081226D01*
X56610483Y-139986966D01*
X60356099Y-139986966D01*
X60452358Y-140145693D01*
X60681020Y-140211546D01*
X60918136Y-140231525D01*
X61154593Y-140204860D01*
X61349642Y-140145693D01*
X61445901Y-139986966D01*
X60901000Y-139442064D01*
X60356099Y-139986966D01*
X56610483Y-139986966D01*
X56665955Y-139949901D01*
X56833101Y-139782755D01*
X56964426Y-139586213D01*
X57054884Y-139367827D01*
X57101000Y-139135990D01*
X57101000Y-139034936D01*
X59687275Y-139034936D01*
X59713940Y-139271393D01*
X59773107Y-139466442D01*
X59931834Y-139562701D01*
X60476736Y-139017800D01*
X61325264Y-139017800D01*
X61870166Y-139562701D01*
X62028893Y-139466442D01*
X62094746Y-139237780D01*
X62114725Y-139000664D01*
X62088060Y-138764207D01*
X62028893Y-138569158D01*
X61870166Y-138472899D01*
X61325264Y-139017800D01*
X60476736Y-139017800D01*
X59931834Y-138472899D01*
X59773107Y-138569158D01*
X59707254Y-138797820D01*
X59687275Y-139034936D01*
X57101000Y-139034936D01*
X57101000Y-138899610D01*
X57054884Y-138667773D01*
X56964426Y-138449387D01*
X56833101Y-138252845D01*
X56665955Y-138085699D01*
X56610484Y-138048634D01*
X60356099Y-138048634D01*
X60901000Y-138593536D01*
X61445901Y-138048634D01*
X61349642Y-137889907D01*
X61120980Y-137824054D01*
X60883864Y-137804075D01*
X60647407Y-137830740D01*
X60452358Y-137889907D01*
X60356099Y-138048634D01*
X56610484Y-138048634D01*
X56469413Y-137954374D01*
X56251027Y-137863916D01*
X56019190Y-137817800D01*
X55782810Y-137817800D01*
X55550973Y-137863916D01*
X55332587Y-137954374D01*
X55136045Y-138085699D01*
X54968899Y-138252845D01*
X54837574Y-138449387D01*
X54747116Y-138667773D01*
X54701000Y-138899610D01*
X54582880Y-138899610D01*
X54582880Y-138709459D01*
X54540607Y-138496942D01*
X54457687Y-138296755D01*
X54337305Y-138116591D01*
X54184089Y-137963375D01*
X54003925Y-137842993D01*
X53803738Y-137760073D01*
X53591221Y-137717800D01*
X53374539Y-137717800D01*
X53162022Y-137760073D01*
X52961835Y-137842993D01*
X52781671Y-137963375D01*
X52628455Y-138116591D01*
X52508073Y-138296755D01*
X52425153Y-138496942D01*
X52382880Y-138709459D01*
X46962880Y-138709459D01*
X46920607Y-138496942D01*
X46837687Y-138296755D01*
X46717305Y-138116591D01*
X46564089Y-137963375D01*
X46383925Y-137842993D01*
X46183738Y-137760073D01*
X45971221Y-137717800D01*
X45754539Y-137717800D01*
X45542022Y-137760073D01*
X45341835Y-137842993D01*
X45161671Y-137963375D01*
X45008455Y-138116591D01*
X44888073Y-138296755D01*
X44805153Y-138496942D01*
X44762880Y-138709459D01*
X44626000Y-138709459D01*
X44626000Y-135481739D01*
X44849240Y-135481739D01*
X44849240Y-135698421D01*
X44891513Y-135910938D01*
X44974433Y-136111125D01*
X45094815Y-136291289D01*
X45248031Y-136444505D01*
X45428195Y-136564887D01*
X45628382Y-136647807D01*
X45840899Y-136690080D01*
X46057581Y-136690080D01*
X46270098Y-136647807D01*
X46470285Y-136564887D01*
X46650449Y-136444505D01*
X46803665Y-136291289D01*
X46924047Y-136111125D01*
X46941313Y-136069439D01*
X52460421Y-136069439D01*
X52554631Y-136245722D01*
X52702036Y-136431064D01*
X52882767Y-136584088D01*
X53089879Y-136698913D01*
X53269240Y-136658250D01*
X53269240Y-135890080D01*
X53869240Y-135890080D01*
X53869240Y-136658250D01*
X54048601Y-136698913D01*
X54255713Y-136584088D01*
X54436444Y-136431064D01*
X54583849Y-136245722D01*
X54678059Y-136069439D01*
X54633776Y-135890080D01*
X53869240Y-135890080D01*
X53269240Y-135890080D01*
X52504704Y-135890080D01*
X52460421Y-136069439D01*
X46941313Y-136069439D01*
X47006967Y-135910938D01*
X47049240Y-135698421D01*
X47049240Y-135481739D01*
X47011658Y-135292800D01*
X58049065Y-135292800D01*
X58049065Y-136342800D01*
X58056788Y-136421214D01*
X58079660Y-136496614D01*
X58116803Y-136566103D01*
X58166789Y-136627011D01*
X58227697Y-136676997D01*
X58297186Y-136714140D01*
X58372586Y-136737012D01*
X58451000Y-136744735D01*
X59951000Y-136744735D01*
X60029414Y-136737012D01*
X60104814Y-136714140D01*
X60174303Y-136676997D01*
X60235211Y-136627011D01*
X60285197Y-136566103D01*
X60322340Y-136496614D01*
X60345212Y-136421214D01*
X60352935Y-136342800D01*
X60352935Y-135292800D01*
X60345212Y-135214386D01*
X60322340Y-135138986D01*
X60285197Y-135069497D01*
X60235211Y-135008589D01*
X60232537Y-135006395D01*
X60251646Y-134982309D01*
X60200959Y-134847800D01*
X59501000Y-134847800D01*
X59501000Y-134867800D01*
X58901000Y-134867800D01*
X58901000Y-134847800D01*
X58201041Y-134847800D01*
X58150354Y-134982309D01*
X58169463Y-135006395D01*
X58166789Y-135008589D01*
X58116803Y-135069497D01*
X58079660Y-135138986D01*
X58056788Y-135214386D01*
X58049065Y-135292800D01*
X47011658Y-135292800D01*
X47006967Y-135269222D01*
X46941314Y-135110721D01*
X52460421Y-135110721D01*
X52504704Y-135290080D01*
X53269240Y-135290080D01*
X53269240Y-134521910D01*
X53869240Y-134521910D01*
X53869240Y-135290080D01*
X54633776Y-135290080D01*
X54678059Y-135110721D01*
X54583849Y-134934438D01*
X54436444Y-134749096D01*
X54255713Y-134596072D01*
X54048601Y-134481247D01*
X53869240Y-134521910D01*
X53269240Y-134521910D01*
X53089879Y-134481247D01*
X52882767Y-134596072D01*
X52702036Y-134749096D01*
X52554631Y-134934438D01*
X52460421Y-135110721D01*
X46941314Y-135110721D01*
X46924047Y-135069035D01*
X46803665Y-134888871D01*
X46650449Y-134735655D01*
X46470285Y-134615273D01*
X46270098Y-134532353D01*
X46057581Y-134490080D01*
X45840899Y-134490080D01*
X45628382Y-134532353D01*
X45428195Y-134615273D01*
X45248031Y-134735655D01*
X45094815Y-134888871D01*
X44974433Y-135069035D01*
X44891513Y-135269222D01*
X44849240Y-135481739D01*
X44626000Y-135481739D01*
X44626000Y-133529439D01*
X44840421Y-133529439D01*
X44934631Y-133705722D01*
X45082036Y-133891064D01*
X45262767Y-134044088D01*
X45469879Y-134158913D01*
X45649240Y-134118250D01*
X45649240Y-133350080D01*
X46249240Y-133350080D01*
X46249240Y-134118250D01*
X46428601Y-134158913D01*
X46635713Y-134044088D01*
X46816444Y-133891064D01*
X46963849Y-133705722D01*
X47058059Y-133529439D01*
X47013776Y-133350080D01*
X46249240Y-133350080D01*
X45649240Y-133350080D01*
X44884704Y-133350080D01*
X44840421Y-133529439D01*
X44626000Y-133529439D01*
X44626000Y-132941739D01*
X52469240Y-132941739D01*
X52469240Y-133158421D01*
X52511513Y-133370938D01*
X52594433Y-133571125D01*
X52714815Y-133751289D01*
X52868031Y-133904505D01*
X53048195Y-134024887D01*
X53248382Y-134107807D01*
X53460899Y-134150080D01*
X53677581Y-134150080D01*
X53890098Y-134107807D01*
X54090285Y-134024887D01*
X54270449Y-133904505D01*
X54423665Y-133751289D01*
X54544047Y-133571125D01*
X54626967Y-133370938D01*
X54645493Y-133277800D01*
X58046525Y-133277800D01*
X58064385Y-133459132D01*
X58117277Y-133633495D01*
X58203170Y-133794189D01*
X58303126Y-133915986D01*
X58295840Y-133922496D01*
X58186918Y-134067204D01*
X58150354Y-134113291D01*
X58201041Y-134247800D01*
X58901000Y-134247800D01*
X58901000Y-134227800D01*
X59501000Y-134227800D01*
X59501000Y-134247800D01*
X60200959Y-134247800D01*
X60251646Y-134113291D01*
X60215082Y-134067204D01*
X60106160Y-133922496D01*
X60098874Y-133915986D01*
X60198830Y-133794189D01*
X60284723Y-133633495D01*
X60337615Y-133459132D01*
X60355475Y-133277800D01*
X60337615Y-133096468D01*
X60284723Y-132922105D01*
X60198830Y-132761411D01*
X60083238Y-132620562D01*
X59942389Y-132504970D01*
X59781695Y-132419077D01*
X59607332Y-132366185D01*
X59471435Y-132352800D01*
X58930565Y-132352800D01*
X58794668Y-132366185D01*
X58620305Y-132419077D01*
X58459611Y-132504970D01*
X58318762Y-132620562D01*
X58203170Y-132761411D01*
X58117277Y-132922105D01*
X58064385Y-133096468D01*
X58046525Y-133277800D01*
X54645493Y-133277800D01*
X54669240Y-133158421D01*
X54669240Y-132941739D01*
X54626967Y-132729222D01*
X54544047Y-132529035D01*
X54423665Y-132348871D01*
X54270449Y-132195655D01*
X54090285Y-132075273D01*
X53890098Y-131992353D01*
X53677581Y-131950080D01*
X53460899Y-131950080D01*
X53248382Y-131992353D01*
X53048195Y-132075273D01*
X52868031Y-132195655D01*
X52714815Y-132348871D01*
X52594433Y-132529035D01*
X52511513Y-132729222D01*
X52469240Y-132941739D01*
X44626000Y-132941739D01*
X44626000Y-132570721D01*
X44840421Y-132570721D01*
X44884704Y-132750080D01*
X45649240Y-132750080D01*
X45649240Y-131981910D01*
X46249240Y-131981910D01*
X46249240Y-132750080D01*
X47013776Y-132750080D01*
X47058059Y-132570721D01*
X46963849Y-132394438D01*
X46816444Y-132209096D01*
X46635713Y-132056072D01*
X46428601Y-131941247D01*
X46249240Y-131981910D01*
X45649240Y-131981910D01*
X45469879Y-131941247D01*
X45262767Y-132056072D01*
X45082036Y-132209096D01*
X44934631Y-132394438D01*
X44840421Y-132570721D01*
X44626000Y-132570721D01*
X44626000Y-130989439D01*
X44840421Y-130989439D01*
X44934631Y-131165722D01*
X45082036Y-131351064D01*
X45262767Y-131504088D01*
X45469879Y-131618913D01*
X45649240Y-131578250D01*
X45649240Y-130810080D01*
X46249240Y-130810080D01*
X46249240Y-131578250D01*
X46428601Y-131618913D01*
X46635713Y-131504088D01*
X46816444Y-131351064D01*
X46963849Y-131165722D01*
X47058059Y-130989439D01*
X47013776Y-130810080D01*
X46249240Y-130810080D01*
X45649240Y-130810080D01*
X44884704Y-130810080D01*
X44840421Y-130989439D01*
X44626000Y-130989439D01*
X44626000Y-130401739D01*
X52469240Y-130401739D01*
X52469240Y-130618421D01*
X52511513Y-130830938D01*
X52594433Y-131031125D01*
X52714815Y-131211289D01*
X52868031Y-131364505D01*
X53048195Y-131484887D01*
X53248382Y-131567807D01*
X53460899Y-131610080D01*
X53677581Y-131610080D01*
X53890098Y-131567807D01*
X54090285Y-131484887D01*
X54214324Y-131402006D01*
X56960059Y-131402006D01*
X57056318Y-131560733D01*
X57284980Y-131626586D01*
X57522096Y-131646565D01*
X57758553Y-131619900D01*
X57953602Y-131560733D01*
X58049861Y-131402006D01*
X57504960Y-130857104D01*
X56960059Y-131402006D01*
X54214324Y-131402006D01*
X54270449Y-131364505D01*
X54423665Y-131211289D01*
X54544047Y-131031125D01*
X54626967Y-130830938D01*
X54669240Y-130618421D01*
X54669240Y-130449976D01*
X56291235Y-130449976D01*
X56317900Y-130686433D01*
X56377067Y-130881482D01*
X56535794Y-130977741D01*
X57080696Y-130432840D01*
X57929224Y-130432840D01*
X58474126Y-130977741D01*
X58632853Y-130881482D01*
X58698706Y-130652820D01*
X58718685Y-130415704D01*
X58707290Y-130314650D01*
X61304960Y-130314650D01*
X61304960Y-130551030D01*
X61351076Y-130782867D01*
X61441534Y-131001253D01*
X61572859Y-131197795D01*
X61740005Y-131364941D01*
X61936547Y-131496266D01*
X62154933Y-131586724D01*
X62386770Y-131632840D01*
X62623150Y-131632840D01*
X62854987Y-131586724D01*
X63073373Y-131496266D01*
X63269915Y-131364941D01*
X63437061Y-131197795D01*
X63568386Y-131001253D01*
X63658844Y-130782867D01*
X63704960Y-130551030D01*
X63704960Y-130314650D01*
X63658844Y-130082813D01*
X63568386Y-129864427D01*
X63437061Y-129667885D01*
X63269915Y-129500739D01*
X63073373Y-129369414D01*
X62854987Y-129278956D01*
X62623150Y-129232840D01*
X62386770Y-129232840D01*
X62154933Y-129278956D01*
X61936547Y-129369414D01*
X61740005Y-129500739D01*
X61572859Y-129667885D01*
X61441534Y-129864427D01*
X61351076Y-130082813D01*
X61304960Y-130314650D01*
X58707290Y-130314650D01*
X58692020Y-130179247D01*
X58632853Y-129984198D01*
X58474126Y-129887939D01*
X57929224Y-130432840D01*
X57080696Y-130432840D01*
X56535794Y-129887939D01*
X56377067Y-129984198D01*
X56311214Y-130212860D01*
X56291235Y-130449976D01*
X54669240Y-130449976D01*
X54669240Y-130401739D01*
X54626967Y-130189222D01*
X54544047Y-129989035D01*
X54423665Y-129808871D01*
X54270449Y-129655655D01*
X54090285Y-129535273D01*
X53917430Y-129463674D01*
X56960059Y-129463674D01*
X57504960Y-130008576D01*
X58049861Y-129463674D01*
X57953602Y-129304947D01*
X57724940Y-129239094D01*
X57487824Y-129219115D01*
X57251367Y-129245780D01*
X57056318Y-129304947D01*
X56960059Y-129463674D01*
X53917430Y-129463674D01*
X53890098Y-129452353D01*
X53677581Y-129410080D01*
X53460899Y-129410080D01*
X53248382Y-129452353D01*
X53048195Y-129535273D01*
X52868031Y-129655655D01*
X52714815Y-129808871D01*
X52594433Y-129989035D01*
X52511513Y-130189222D01*
X52469240Y-130401739D01*
X44626000Y-130401739D01*
X44626000Y-130030721D01*
X44840421Y-130030721D01*
X44884704Y-130210080D01*
X45649240Y-130210080D01*
X45649240Y-129441910D01*
X46249240Y-129441910D01*
X46249240Y-130210080D01*
X47013776Y-130210080D01*
X47058059Y-130030721D01*
X46963849Y-129854438D01*
X46816444Y-129669096D01*
X46635713Y-129516072D01*
X46428601Y-129401247D01*
X46249240Y-129441910D01*
X45649240Y-129441910D01*
X45469879Y-129401247D01*
X45262767Y-129516072D01*
X45082036Y-129669096D01*
X44934631Y-129854438D01*
X44840421Y-130030721D01*
X44626000Y-130030721D01*
X44626000Y-127170080D01*
X44847789Y-127170080D01*
X44847789Y-128770080D01*
X44853581Y-128828890D01*
X44870736Y-128885440D01*
X44898593Y-128937557D01*
X44936082Y-128983238D01*
X44981763Y-129020727D01*
X45033880Y-129048584D01*
X45090430Y-129065739D01*
X45149240Y-129071531D01*
X46749240Y-129071531D01*
X46808050Y-129065739D01*
X46864600Y-129048584D01*
X46916717Y-129020727D01*
X46962398Y-128983238D01*
X46999887Y-128937557D01*
X47027744Y-128885440D01*
X47044899Y-128828890D01*
X47050691Y-128770080D01*
X47050691Y-127851890D01*
X52369240Y-127851890D01*
X52369240Y-128088270D01*
X52415356Y-128320107D01*
X52505814Y-128538493D01*
X52637139Y-128735035D01*
X52804285Y-128902181D01*
X53000827Y-129033506D01*
X53219213Y-129123964D01*
X53451050Y-129170080D01*
X53687430Y-129170080D01*
X53919267Y-129123964D01*
X54137653Y-129033506D01*
X54334195Y-128902181D01*
X54465810Y-128770566D01*
X56960059Y-128770566D01*
X57056318Y-128929293D01*
X57284980Y-128995146D01*
X57522096Y-129015125D01*
X57758553Y-128988460D01*
X57953602Y-128929293D01*
X58049861Y-128770566D01*
X57504960Y-128225664D01*
X56960059Y-128770566D01*
X54465810Y-128770566D01*
X54501341Y-128735035D01*
X54632666Y-128538493D01*
X54723124Y-128320107D01*
X54769240Y-128088270D01*
X54769240Y-127851890D01*
X54762606Y-127818536D01*
X56291235Y-127818536D01*
X56317900Y-128054993D01*
X56377067Y-128250042D01*
X56535794Y-128346301D01*
X57080696Y-127801400D01*
X57929224Y-127801400D01*
X58474126Y-128346301D01*
X58632853Y-128250042D01*
X58698706Y-128021380D01*
X58718685Y-127784264D01*
X58707290Y-127683210D01*
X61304960Y-127683210D01*
X61304960Y-127919590D01*
X61351076Y-128151427D01*
X61441534Y-128369813D01*
X61572859Y-128566355D01*
X61740005Y-128733501D01*
X61936547Y-128864826D01*
X62154933Y-128955284D01*
X62386770Y-129001400D01*
X62623150Y-129001400D01*
X62854987Y-128955284D01*
X63073373Y-128864826D01*
X63269915Y-128733501D01*
X63437061Y-128566355D01*
X63568386Y-128369813D01*
X63658844Y-128151427D01*
X63704960Y-127919590D01*
X63704960Y-127683210D01*
X63658844Y-127451373D01*
X63568386Y-127232987D01*
X63437061Y-127036445D01*
X63269915Y-126869299D01*
X63073373Y-126737974D01*
X62854987Y-126647516D01*
X62623150Y-126601400D01*
X62386770Y-126601400D01*
X62154933Y-126647516D01*
X61936547Y-126737974D01*
X61740005Y-126869299D01*
X61572859Y-127036445D01*
X61441534Y-127232987D01*
X61351076Y-127451373D01*
X61304960Y-127683210D01*
X58707290Y-127683210D01*
X58692020Y-127547807D01*
X58632853Y-127352758D01*
X58474126Y-127256499D01*
X57929224Y-127801400D01*
X57080696Y-127801400D01*
X56535794Y-127256499D01*
X56377067Y-127352758D01*
X56311214Y-127581420D01*
X56291235Y-127818536D01*
X54762606Y-127818536D01*
X54723124Y-127620053D01*
X54632666Y-127401667D01*
X54501341Y-127205125D01*
X54334195Y-127037979D01*
X54137653Y-126906654D01*
X53957987Y-126832234D01*
X56960059Y-126832234D01*
X57504960Y-127377136D01*
X58049861Y-126832234D01*
X57953602Y-126673507D01*
X57724940Y-126607654D01*
X57487824Y-126587675D01*
X57251367Y-126614340D01*
X57056318Y-126673507D01*
X56960059Y-126832234D01*
X53957987Y-126832234D01*
X53919267Y-126816196D01*
X53687430Y-126770080D01*
X53451050Y-126770080D01*
X53219213Y-126816196D01*
X53000827Y-126906654D01*
X52804285Y-127037979D01*
X52637139Y-127205125D01*
X52505814Y-127401667D01*
X52415356Y-127620053D01*
X52369240Y-127851890D01*
X47050691Y-127851890D01*
X47050691Y-127170080D01*
X47044899Y-127111270D01*
X47027744Y-127054720D01*
X46999887Y-127002603D01*
X46962398Y-126956922D01*
X46916717Y-126919433D01*
X46864600Y-126891576D01*
X46808050Y-126874421D01*
X46749240Y-126868629D01*
X45149240Y-126868629D01*
X45090430Y-126874421D01*
X45033880Y-126891576D01*
X44981763Y-126919433D01*
X44936082Y-126956922D01*
X44898593Y-127002603D01*
X44870736Y-127054720D01*
X44853581Y-127111270D01*
X44847789Y-127170080D01*
X44626000Y-127170080D01*
X44626000Y-125611846D01*
X47983699Y-125611846D01*
X48079958Y-125770573D01*
X48308620Y-125836426D01*
X48545736Y-125856405D01*
X48782193Y-125829740D01*
X48977242Y-125770573D01*
X49073501Y-125611846D01*
X48528600Y-125066944D01*
X47983699Y-125611846D01*
X44626000Y-125611846D01*
X44626000Y-124659816D01*
X47314875Y-124659816D01*
X47341540Y-124896273D01*
X47400707Y-125091322D01*
X47559434Y-125187581D01*
X48104336Y-124642680D01*
X48952864Y-124642680D01*
X49497766Y-125187581D01*
X49656493Y-125091322D01*
X49722346Y-124862660D01*
X49742325Y-124625544D01*
X49730930Y-124524490D01*
X52328600Y-124524490D01*
X52328600Y-124760870D01*
X52374716Y-124992707D01*
X52465174Y-125211093D01*
X52596499Y-125407635D01*
X52763645Y-125574781D01*
X52960187Y-125706106D01*
X53178573Y-125796564D01*
X53410410Y-125842680D01*
X53646790Y-125842680D01*
X53878627Y-125796564D01*
X54097013Y-125706106D01*
X54293555Y-125574781D01*
X54460701Y-125407635D01*
X54592026Y-125211093D01*
X54682484Y-124992707D01*
X54728600Y-124760870D01*
X54728600Y-124524490D01*
X54722672Y-124494686D01*
X56811000Y-124494686D01*
X56811000Y-124740914D01*
X56859037Y-124982411D01*
X56953265Y-125209897D01*
X57090062Y-125414628D01*
X57264172Y-125588738D01*
X57468903Y-125725535D01*
X57696389Y-125819763D01*
X57937886Y-125867800D01*
X58184114Y-125867800D01*
X58425611Y-125819763D01*
X58653097Y-125725535D01*
X58857828Y-125588738D01*
X59031938Y-125414628D01*
X59168735Y-125209897D01*
X59262963Y-124982411D01*
X59311000Y-124740914D01*
X59311000Y-124494686D01*
X59262963Y-124253189D01*
X59168735Y-124025703D01*
X59031938Y-123820972D01*
X58978766Y-123767800D01*
X59349065Y-123767800D01*
X59349065Y-125467800D01*
X59356788Y-125546214D01*
X59379660Y-125621614D01*
X59416803Y-125691103D01*
X59466789Y-125752011D01*
X59527697Y-125801997D01*
X59597186Y-125839140D01*
X59672586Y-125862012D01*
X59751000Y-125869735D01*
X61451000Y-125869735D01*
X61529414Y-125862012D01*
X61604814Y-125839140D01*
X61674303Y-125801997D01*
X61735211Y-125752011D01*
X61785197Y-125691103D01*
X61822340Y-125621614D01*
X61845212Y-125546214D01*
X61852935Y-125467800D01*
X61852935Y-123767800D01*
X61845212Y-123689386D01*
X61822340Y-123613986D01*
X61785197Y-123544497D01*
X61735211Y-123483589D01*
X61674303Y-123433603D01*
X61604814Y-123396460D01*
X61529414Y-123373588D01*
X61451000Y-123365865D01*
X59751000Y-123365865D01*
X59672586Y-123373588D01*
X59597186Y-123396460D01*
X59527697Y-123433603D01*
X59466789Y-123483589D01*
X59416803Y-123544497D01*
X59379660Y-123613986D01*
X59356788Y-123689386D01*
X59349065Y-123767800D01*
X58978766Y-123767800D01*
X58857828Y-123646862D01*
X58653097Y-123510065D01*
X58425611Y-123415837D01*
X58184114Y-123367800D01*
X57937886Y-123367800D01*
X57696389Y-123415837D01*
X57468903Y-123510065D01*
X57264172Y-123646862D01*
X57090062Y-123820972D01*
X56953265Y-124025703D01*
X56859037Y-124253189D01*
X56811000Y-124494686D01*
X54722672Y-124494686D01*
X54682484Y-124292653D01*
X54592026Y-124074267D01*
X54460701Y-123877725D01*
X54293555Y-123710579D01*
X54097013Y-123579254D01*
X53878627Y-123488796D01*
X53646790Y-123442680D01*
X53410410Y-123442680D01*
X53178573Y-123488796D01*
X52960187Y-123579254D01*
X52763645Y-123710579D01*
X52596499Y-123877725D01*
X52465174Y-124074267D01*
X52374716Y-124292653D01*
X52328600Y-124524490D01*
X49730930Y-124524490D01*
X49715660Y-124389087D01*
X49656493Y-124194038D01*
X49497766Y-124097779D01*
X48952864Y-124642680D01*
X48104336Y-124642680D01*
X47559434Y-124097779D01*
X47400707Y-124194038D01*
X47334854Y-124422700D01*
X47314875Y-124659816D01*
X44626000Y-124659816D01*
X44626000Y-123673514D01*
X47983699Y-123673514D01*
X48528600Y-124218416D01*
X49073501Y-123673514D01*
X48977242Y-123514787D01*
X48748580Y-123448934D01*
X48511464Y-123428955D01*
X48275007Y-123455620D01*
X48079958Y-123514787D01*
X47983699Y-123673514D01*
X44626000Y-123673514D01*
X44626000Y-121609459D01*
X44901000Y-121609459D01*
X44901000Y-121826141D01*
X44943273Y-122038658D01*
X45026193Y-122238845D01*
X45146575Y-122419009D01*
X45299791Y-122572225D01*
X45479955Y-122692607D01*
X45680142Y-122775527D01*
X45892659Y-122817800D01*
X46109341Y-122817800D01*
X46321858Y-122775527D01*
X46522045Y-122692607D01*
X46702209Y-122572225D01*
X46855425Y-122419009D01*
X46975807Y-122238845D01*
X47058727Y-122038658D01*
X47101000Y-121826141D01*
X47101000Y-121609459D01*
X52521000Y-121609459D01*
X52521000Y-121826141D01*
X52563273Y-122038658D01*
X52646193Y-122238845D01*
X52766575Y-122419009D01*
X52919791Y-122572225D01*
X53099955Y-122692607D01*
X53300142Y-122775527D01*
X53512659Y-122817800D01*
X53729341Y-122817800D01*
X53941858Y-122775527D01*
X54142045Y-122692607D01*
X54322209Y-122572225D01*
X54475425Y-122419009D01*
X54595807Y-122238845D01*
X54678727Y-122038658D01*
X54721000Y-121826141D01*
X54721000Y-121609459D01*
X54678727Y-121396942D01*
X54595807Y-121196755D01*
X54475425Y-121016591D01*
X54322209Y-120863375D01*
X54142045Y-120742993D01*
X53941858Y-120660073D01*
X53729341Y-120617800D01*
X53512659Y-120617800D01*
X53300142Y-120660073D01*
X53099955Y-120742993D01*
X52919791Y-120863375D01*
X52766575Y-121016591D01*
X52646193Y-121196755D01*
X52563273Y-121396942D01*
X52521000Y-121609459D01*
X47101000Y-121609459D01*
X47058727Y-121396942D01*
X46975807Y-121196755D01*
X46855425Y-121016591D01*
X46702209Y-120863375D01*
X46522045Y-120742993D01*
X46321858Y-120660073D01*
X46109341Y-120617800D01*
X45892659Y-120617800D01*
X45680142Y-120660073D01*
X45479955Y-120742993D01*
X45299791Y-120863375D01*
X45146575Y-121016591D01*
X45026193Y-121196755D01*
X44943273Y-121396942D01*
X44901000Y-121609459D01*
X44626000Y-121609459D01*
X44626000Y-118517800D01*
X46523946Y-118517800D01*
X46531824Y-118597782D01*
X46555153Y-118674690D01*
X46593039Y-118745569D01*
X46644025Y-118807695D01*
X46706151Y-118858681D01*
X46777030Y-118896567D01*
X46853938Y-118919896D01*
X46933920Y-118927774D01*
X47431920Y-118925800D01*
X47533920Y-118823800D01*
X47533920Y-117017800D01*
X48133920Y-117017800D01*
X48133920Y-118823800D01*
X48235920Y-118925800D01*
X48733920Y-118927774D01*
X48813902Y-118919896D01*
X48890810Y-118896567D01*
X48961689Y-118858681D01*
X49023815Y-118807695D01*
X49074801Y-118745569D01*
X49112687Y-118674690D01*
X49136016Y-118597782D01*
X49143894Y-118517800D01*
X49141920Y-117119800D01*
X49039920Y-117017800D01*
X48133920Y-117017800D01*
X47533920Y-117017800D01*
X46627920Y-117017800D01*
X46525920Y-117119800D01*
X46523946Y-118517800D01*
X44626000Y-118517800D01*
X44626000Y-114917800D01*
X46523946Y-114917800D01*
X46525920Y-116315800D01*
X46627920Y-116417800D01*
X47533920Y-116417800D01*
X47533920Y-114611800D01*
X48133920Y-114611800D01*
X48133920Y-116417800D01*
X49039920Y-116417800D01*
X49141920Y-116315800D01*
X49142706Y-115758851D01*
X50133920Y-115758851D01*
X50133920Y-117676750D01*
X50151284Y-117853041D01*
X50219902Y-118079242D01*
X50331330Y-118287710D01*
X50481287Y-118470434D01*
X50664011Y-118620391D01*
X50872479Y-118731819D01*
X51098680Y-118800437D01*
X51333920Y-118823606D01*
X51569161Y-118800437D01*
X51795362Y-118731819D01*
X52003830Y-118620391D01*
X52186554Y-118470434D01*
X52336511Y-118287710D01*
X52447939Y-118079242D01*
X52516557Y-117853041D01*
X52533920Y-117676750D01*
X52533920Y-115758850D01*
X52533437Y-115753937D01*
X53533920Y-115753937D01*
X53533920Y-117681664D01*
X53552731Y-117872645D01*
X53627066Y-118117696D01*
X53747781Y-118343536D01*
X53910234Y-118541487D01*
X54108185Y-118703940D01*
X54334025Y-118824655D01*
X54579076Y-118898990D01*
X54833920Y-118924090D01*
X55088765Y-118898990D01*
X55333816Y-118824655D01*
X55559656Y-118703940D01*
X55757607Y-118541487D01*
X55920060Y-118343536D01*
X56040775Y-118117696D01*
X56115110Y-117872645D01*
X56133920Y-117681664D01*
X56133920Y-116106043D01*
X59151000Y-116106043D01*
X59151000Y-116529557D01*
X59233623Y-116944932D01*
X59395695Y-117336207D01*
X59630986Y-117688345D01*
X59930455Y-117987814D01*
X60282593Y-118223105D01*
X60673868Y-118385177D01*
X61089243Y-118467800D01*
X61512757Y-118467800D01*
X61928132Y-118385177D01*
X62319407Y-118223105D01*
X62671545Y-117987814D01*
X62971014Y-117688345D01*
X63206305Y-117336207D01*
X63368377Y-116944932D01*
X63451000Y-116529557D01*
X63451000Y-116106043D01*
X63368377Y-115690668D01*
X63206305Y-115299393D01*
X62971014Y-114947255D01*
X62671545Y-114647786D01*
X62319407Y-114412495D01*
X61928132Y-114250423D01*
X61512757Y-114167800D01*
X61089243Y-114167800D01*
X60673868Y-114250423D01*
X60282593Y-114412495D01*
X59930455Y-114647786D01*
X59630986Y-114947255D01*
X59395695Y-115299393D01*
X59233623Y-115690668D01*
X59151000Y-116106043D01*
X56133920Y-116106043D01*
X56133920Y-115753936D01*
X56115110Y-115562955D01*
X56040775Y-115317904D01*
X55920060Y-115092064D01*
X55757607Y-114894113D01*
X55559655Y-114731660D01*
X55333815Y-114610945D01*
X55088764Y-114536610D01*
X54833920Y-114511510D01*
X54579075Y-114536610D01*
X54334024Y-114610945D01*
X54108184Y-114731660D01*
X53910233Y-114894113D01*
X53747780Y-115092065D01*
X53627065Y-115317905D01*
X53552730Y-115562956D01*
X53533920Y-115753937D01*
X52533437Y-115753937D01*
X52516557Y-115582559D01*
X52447939Y-115356358D01*
X52336511Y-115147890D01*
X52186554Y-114965166D01*
X52003829Y-114815209D01*
X51795361Y-114703781D01*
X51569160Y-114635163D01*
X51333920Y-114611994D01*
X51098679Y-114635163D01*
X50872478Y-114703781D01*
X50664010Y-114815209D01*
X50481286Y-114965166D01*
X50331329Y-115147891D01*
X50219901Y-115356359D01*
X50151283Y-115582560D01*
X50133920Y-115758851D01*
X49142706Y-115758851D01*
X49143894Y-114917800D01*
X49136016Y-114837818D01*
X49112687Y-114760910D01*
X49074801Y-114690031D01*
X49023815Y-114627905D01*
X48961689Y-114576919D01*
X48890810Y-114539033D01*
X48813902Y-114515704D01*
X48733920Y-114507826D01*
X48235920Y-114509800D01*
X48133920Y-114611800D01*
X47533920Y-114611800D01*
X47431920Y-114509800D01*
X46933920Y-114507826D01*
X46853938Y-114515704D01*
X46777030Y-114539033D01*
X46706151Y-114576919D01*
X46644025Y-114627905D01*
X46593039Y-114690031D01*
X46555153Y-114760910D01*
X46531824Y-114837818D01*
X46523946Y-114917800D01*
X44626000Y-114917800D01*
X44626000Y-111542800D01*
X64176001Y-111542800D01*
X64176000Y-153892800D01*
G37*
X64176000Y-153892800D02*
X44626000Y-153892800D01*
X44626000Y-150932506D01*
X46731000Y-150932506D01*
X46731000Y-151306774D01*
X46804016Y-151673849D01*
X46947242Y-152019627D01*
X47155174Y-152330819D01*
X47419821Y-152595466D01*
X47731013Y-152803398D01*
X48076791Y-152946624D01*
X48443866Y-153019640D01*
X48818134Y-153019640D01*
X49185209Y-152946624D01*
X49530987Y-152803398D01*
X49842179Y-152595466D01*
X50106826Y-152330819D01*
X50314758Y-152019627D01*
X50457984Y-151673849D01*
X50531000Y-151306774D01*
X50531000Y-150932506D01*
X58161000Y-150932506D01*
X58161000Y-151306774D01*
X58234016Y-151673849D01*
X58377242Y-152019627D01*
X58585174Y-152330819D01*
X58849821Y-152595466D01*
X59161013Y-152803398D01*
X59506791Y-152946624D01*
X59873866Y-153019640D01*
X60248134Y-153019640D01*
X60615209Y-152946624D01*
X60960987Y-152803398D01*
X61272179Y-152595466D01*
X61536826Y-152330819D01*
X61744758Y-152019627D01*
X61887984Y-151673849D01*
X61961000Y-151306774D01*
X61961000Y-150932506D01*
X61887984Y-150565431D01*
X61744758Y-150219653D01*
X61536826Y-149908461D01*
X61272179Y-149643814D01*
X60960987Y-149435882D01*
X60615209Y-149292656D01*
X60248134Y-149219640D01*
X59873866Y-149219640D01*
X59506791Y-149292656D01*
X59161013Y-149435882D01*
X58849821Y-149643814D01*
X58585174Y-149908461D01*
X58377242Y-150219653D01*
X58234016Y-150565431D01*
X58161000Y-150932506D01*
X50531000Y-150932506D01*
X50457984Y-150565431D01*
X50314758Y-150219653D01*
X50106826Y-149908461D01*
X49842179Y-149643814D01*
X49530987Y-149435882D01*
X49185209Y-149292656D01*
X48818134Y-149219640D01*
X48443866Y-149219640D01*
X48076791Y-149292656D01*
X47731013Y-149435882D01*
X47419821Y-149643814D01*
X47155174Y-149908461D01*
X46947242Y-150219653D01*
X46804016Y-150565431D01*
X46731000Y-150932506D01*
X44626000Y-150932506D01*
X44626000Y-144019640D01*
X48849549Y-144019640D01*
X48849549Y-145519640D01*
X48855341Y-145578450D01*
X48872496Y-145635000D01*
X48900353Y-145687117D01*
X48937842Y-145732798D01*
X48983523Y-145770287D01*
X49035640Y-145798144D01*
X49092190Y-145815299D01*
X49151000Y-145821091D01*
X50651000Y-145821091D01*
X50709810Y-145815299D01*
X50766360Y-145798144D01*
X50818477Y-145770287D01*
X50864158Y-145732798D01*
X50901647Y-145687117D01*
X50929504Y-145635000D01*
X50946659Y-145578450D01*
X50952451Y-145519640D01*
X50952451Y-144666224D01*
X51391000Y-144666224D01*
X51391000Y-144873056D01*
X51431350Y-145075914D01*
X51510502Y-145267002D01*
X51625411Y-145438976D01*
X51771664Y-145585229D01*
X51943638Y-145700138D01*
X52134726Y-145779290D01*
X52337584Y-145819640D01*
X52544416Y-145819640D01*
X52747274Y-145779290D01*
X52938362Y-145700138D01*
X53110336Y-145585229D01*
X53256589Y-145438976D01*
X53371498Y-145267002D01*
X53450650Y-145075914D01*
X53491000Y-144873056D01*
X53491000Y-144666224D01*
X53489041Y-144656375D01*
X53831000Y-144656375D01*
X53831000Y-144882905D01*
X53875194Y-145105083D01*
X53961884Y-145314369D01*
X54087737Y-145502722D01*
X54247918Y-145662903D01*
X54436271Y-145788756D01*
X54645557Y-145875446D01*
X54867735Y-145919640D01*
X55094265Y-145919640D01*
X55316443Y-145875446D01*
X55525729Y-145788756D01*
X55655806Y-145701841D01*
X57013063Y-145701841D01*
X57102879Y-145855525D01*
X57322758Y-145916231D01*
X57550256Y-145932874D01*
X57776630Y-145904816D01*
X57939121Y-145855525D01*
X58028937Y-145701841D01*
X57521000Y-145193904D01*
X57013063Y-145701841D01*
X55655806Y-145701841D01*
X55714082Y-145662903D01*
X55874263Y-145502722D01*
X56000116Y-145314369D01*
X56086806Y-145105083D01*
X56131000Y-144882905D01*
X56131000Y-144798896D01*
X56357766Y-144798896D01*
X56385824Y-145025270D01*
X56435115Y-145187761D01*
X56588799Y-145277577D01*
X57096736Y-144769640D01*
X57945264Y-144769640D01*
X58453201Y-145277577D01*
X58606885Y-145187761D01*
X58667591Y-144967882D01*
X58684234Y-144740384D01*
X58656176Y-144514010D01*
X58606885Y-144351519D01*
X58453201Y-144261703D01*
X57945264Y-144769640D01*
X57096736Y-144769640D01*
X56588799Y-144261703D01*
X56435115Y-144351519D01*
X56374409Y-144571398D01*
X56357766Y-144798896D01*
X56131000Y-144798896D01*
X56131000Y-144656375D01*
X56086806Y-144434197D01*
X56000116Y-144224911D01*
X55874263Y-144036558D01*
X55714082Y-143876377D01*
X55655807Y-143837439D01*
X57013063Y-143837439D01*
X57521000Y-144345376D01*
X58028937Y-143837439D01*
X57939121Y-143683755D01*
X57719242Y-143623049D01*
X57491744Y-143606406D01*
X57265370Y-143634464D01*
X57102879Y-143683755D01*
X57013063Y-143837439D01*
X55655807Y-143837439D01*
X55525729Y-143750524D01*
X55316443Y-143663834D01*
X55094265Y-143619640D01*
X54867735Y-143619640D01*
X54645557Y-143663834D01*
X54436271Y-143750524D01*
X54247918Y-143876377D01*
X54087737Y-144036558D01*
X53961884Y-144224911D01*
X53875194Y-144434197D01*
X53831000Y-144656375D01*
X53489041Y-144656375D01*
X53450650Y-144463366D01*
X53371498Y-144272278D01*
X53256589Y-144100304D01*
X53110336Y-143954051D01*
X52938362Y-143839142D01*
X52747274Y-143759990D01*
X52544416Y-143719640D01*
X52337584Y-143719640D01*
X52134726Y-143759990D01*
X51943638Y-143839142D01*
X51771664Y-143954051D01*
X51625411Y-144100304D01*
X51510502Y-144272278D01*
X51431350Y-144463366D01*
X51391000Y-144666224D01*
X50952451Y-144666224D01*
X50952451Y-144019640D01*
X50946659Y-143960830D01*
X50929504Y-143904280D01*
X50901647Y-143852163D01*
X50864158Y-143806482D01*
X50818477Y-143768993D01*
X50766360Y-143741136D01*
X50709810Y-143723981D01*
X50651000Y-143718189D01*
X49151000Y-143718189D01*
X49092190Y-143723981D01*
X49035640Y-143741136D01*
X48983523Y-143768993D01*
X48937842Y-143806482D01*
X48900353Y-143852163D01*
X48872496Y-143904280D01*
X48855341Y-143960830D01*
X48849549Y-144019640D01*
X44626000Y-144019640D01*
X44626000Y-142126224D01*
X50121000Y-142126224D01*
X50121000Y-142333056D01*
X50161350Y-142535914D01*
X50240502Y-142727002D01*
X50355411Y-142898976D01*
X50501664Y-143045229D01*
X50673638Y-143160138D01*
X50864726Y-143239290D01*
X51067584Y-143279640D01*
X51274416Y-143279640D01*
X51477274Y-143239290D01*
X51668362Y-143160138D01*
X51840336Y-143045229D01*
X51986589Y-142898976D01*
X52101498Y-142727002D01*
X52180650Y-142535914D01*
X52221000Y-142333056D01*
X52221000Y-142126224D01*
X52219041Y-142116375D01*
X52561000Y-142116375D01*
X52561000Y-142342905D01*
X52605194Y-142565083D01*
X52691884Y-142774369D01*
X52817737Y-142962722D01*
X52977918Y-143122903D01*
X53166271Y-143248756D01*
X53375557Y-143335446D01*
X53597735Y-143379640D01*
X53824265Y-143379640D01*
X54046443Y-143335446D01*
X54255729Y-143248756D01*
X54444082Y-143122903D01*
X54604263Y-142962722D01*
X54730116Y-142774369D01*
X54816806Y-142565083D01*
X54861000Y-142342905D01*
X54861000Y-142126224D01*
X55201000Y-142126224D01*
X55201000Y-142333056D01*
X55241350Y-142535914D01*
X55320502Y-142727002D01*
X55435411Y-142898976D01*
X55581664Y-143045229D01*
X55753638Y-143160138D01*
X55944726Y-143239290D01*
X56147584Y-143279640D01*
X56354416Y-143279640D01*
X56557274Y-143239290D01*
X56744250Y-143161841D01*
X58283063Y-143161841D01*
X58372879Y-143315525D01*
X58592758Y-143376231D01*
X58820256Y-143392874D01*
X59046630Y-143364816D01*
X59209121Y-143315525D01*
X59298937Y-143161841D01*
X58791000Y-142653904D01*
X58283063Y-143161841D01*
X56744250Y-143161841D01*
X56748362Y-143160138D01*
X56920336Y-143045229D01*
X57066589Y-142898976D01*
X57181498Y-142727002D01*
X57260650Y-142535914D01*
X57301000Y-142333056D01*
X57301000Y-142258896D01*
X57627766Y-142258896D01*
X57655824Y-142485270D01*
X57705115Y-142647761D01*
X57858799Y-142737577D01*
X58366736Y-142229640D01*
X59215264Y-142229640D01*
X59723201Y-142737577D01*
X59876885Y-142647761D01*
X59937591Y-142427882D01*
X59954234Y-142200384D01*
X59926176Y-141974010D01*
X59876885Y-141811519D01*
X59723201Y-141721703D01*
X59215264Y-142229640D01*
X58366736Y-142229640D01*
X57858799Y-141721703D01*
X57705115Y-141811519D01*
X57644409Y-142031398D01*
X57627766Y-142258896D01*
X57301000Y-142258896D01*
X57301000Y-142126224D01*
X57260650Y-141923366D01*
X57181498Y-141732278D01*
X57066589Y-141560304D01*
X56920336Y-141414051D01*
X56748362Y-141299142D01*
X56744251Y-141297439D01*
X58283063Y-141297439D01*
X58791000Y-141805376D01*
X59298937Y-141297439D01*
X59209121Y-141143755D01*
X58989242Y-141083049D01*
X58761744Y-141066406D01*
X58535370Y-141094464D01*
X58372879Y-141143755D01*
X58283063Y-141297439D01*
X56744251Y-141297439D01*
X56557274Y-141219990D01*
X56354416Y-141179640D01*
X56147584Y-141179640D01*
X55944726Y-141219990D01*
X55753638Y-141299142D01*
X55581664Y-141414051D01*
X55435411Y-141560304D01*
X55320502Y-141732278D01*
X55241350Y-141923366D01*
X55201000Y-142126224D01*
X54861000Y-142126224D01*
X54861000Y-142116375D01*
X54816806Y-141894197D01*
X54730116Y-141684911D01*
X54604263Y-141496558D01*
X54444082Y-141336377D01*
X54255729Y-141210524D01*
X54046443Y-141123834D01*
X53824265Y-141079640D01*
X53597735Y-141079640D01*
X53375557Y-141123834D01*
X53166271Y-141210524D01*
X52977918Y-141336377D01*
X52817737Y-141496558D01*
X52691884Y-141684911D01*
X52605194Y-141894197D01*
X52561000Y-142116375D01*
X52219041Y-142116375D01*
X52180650Y-141923366D01*
X52101498Y-141732278D01*
X51986589Y-141560304D01*
X51840336Y-141414051D01*
X51668362Y-141299142D01*
X51477274Y-141219990D01*
X51274416Y-141179640D01*
X51067584Y-141179640D01*
X50864726Y-141219990D01*
X50673638Y-141299142D01*
X50501664Y-141414051D01*
X50355411Y-141560304D01*
X50240502Y-141732278D01*
X50161350Y-141923366D01*
X50121000Y-142126224D01*
X44626000Y-142126224D01*
X44626000Y-138709459D01*
X44762880Y-138709459D01*
X44762880Y-138926141D01*
X44805153Y-139138658D01*
X44888073Y-139338845D01*
X45008455Y-139519009D01*
X45161671Y-139672225D01*
X45341835Y-139792607D01*
X45542022Y-139875527D01*
X45754539Y-139917800D01*
X45971221Y-139917800D01*
X46183738Y-139875527D01*
X46383925Y-139792607D01*
X46564089Y-139672225D01*
X46717305Y-139519009D01*
X46837687Y-139338845D01*
X46920607Y-139138658D01*
X46962880Y-138926141D01*
X46962880Y-138709459D01*
X52382880Y-138709459D01*
X52382880Y-138926141D01*
X52425153Y-139138658D01*
X52508073Y-139338845D01*
X52628455Y-139519009D01*
X52781671Y-139672225D01*
X52961835Y-139792607D01*
X53162022Y-139875527D01*
X53374539Y-139917800D01*
X53591221Y-139917800D01*
X53803738Y-139875527D01*
X54003925Y-139792607D01*
X54184089Y-139672225D01*
X54337305Y-139519009D01*
X54457687Y-139338845D01*
X54540607Y-139138658D01*
X54582880Y-138926141D01*
X54582880Y-138899610D01*
X54701000Y-138899610D01*
X54701000Y-139135990D01*
X54747116Y-139367827D01*
X54837574Y-139586213D01*
X54968899Y-139782755D01*
X55136045Y-139949901D01*
X55332587Y-140081226D01*
X55550973Y-140171684D01*
X55782810Y-140217800D01*
X56019190Y-140217800D01*
X56251027Y-140171684D01*
X56469413Y-140081226D01*
X56610483Y-139986966D01*
X60356099Y-139986966D01*
X60452358Y-140145693D01*
X60681020Y-140211546D01*
X60918136Y-140231525D01*
X61154593Y-140204860D01*
X61349642Y-140145693D01*
X61445901Y-139986966D01*
X60901000Y-139442064D01*
X60356099Y-139986966D01*
X56610483Y-139986966D01*
X56665955Y-139949901D01*
X56833101Y-139782755D01*
X56964426Y-139586213D01*
X57054884Y-139367827D01*
X57101000Y-139135990D01*
X57101000Y-139034936D01*
X59687275Y-139034936D01*
X59713940Y-139271393D01*
X59773107Y-139466442D01*
X59931834Y-139562701D01*
X60476736Y-139017800D01*
X61325264Y-139017800D01*
X61870166Y-139562701D01*
X62028893Y-139466442D01*
X62094746Y-139237780D01*
X62114725Y-139000664D01*
X62088060Y-138764207D01*
X62028893Y-138569158D01*
X61870166Y-138472899D01*
X61325264Y-139017800D01*
X60476736Y-139017800D01*
X59931834Y-138472899D01*
X59773107Y-138569158D01*
X59707254Y-138797820D01*
X59687275Y-139034936D01*
X57101000Y-139034936D01*
X57101000Y-138899610D01*
X57054884Y-138667773D01*
X56964426Y-138449387D01*
X56833101Y-138252845D01*
X56665955Y-138085699D01*
X56610484Y-138048634D01*
X60356099Y-138048634D01*
X60901000Y-138593536D01*
X61445901Y-138048634D01*
X61349642Y-137889907D01*
X61120980Y-137824054D01*
X60883864Y-137804075D01*
X60647407Y-137830740D01*
X60452358Y-137889907D01*
X60356099Y-138048634D01*
X56610484Y-138048634D01*
X56469413Y-137954374D01*
X56251027Y-137863916D01*
X56019190Y-137817800D01*
X55782810Y-137817800D01*
X55550973Y-137863916D01*
X55332587Y-137954374D01*
X55136045Y-138085699D01*
X54968899Y-138252845D01*
X54837574Y-138449387D01*
X54747116Y-138667773D01*
X54701000Y-138899610D01*
X54582880Y-138899610D01*
X54582880Y-138709459D01*
X54540607Y-138496942D01*
X54457687Y-138296755D01*
X54337305Y-138116591D01*
X54184089Y-137963375D01*
X54003925Y-137842993D01*
X53803738Y-137760073D01*
X53591221Y-137717800D01*
X53374539Y-137717800D01*
X53162022Y-137760073D01*
X52961835Y-137842993D01*
X52781671Y-137963375D01*
X52628455Y-138116591D01*
X52508073Y-138296755D01*
X52425153Y-138496942D01*
X52382880Y-138709459D01*
X46962880Y-138709459D01*
X46920607Y-138496942D01*
X46837687Y-138296755D01*
X46717305Y-138116591D01*
X46564089Y-137963375D01*
X46383925Y-137842993D01*
X46183738Y-137760073D01*
X45971221Y-137717800D01*
X45754539Y-137717800D01*
X45542022Y-137760073D01*
X45341835Y-137842993D01*
X45161671Y-137963375D01*
X45008455Y-138116591D01*
X44888073Y-138296755D01*
X44805153Y-138496942D01*
X44762880Y-138709459D01*
X44626000Y-138709459D01*
X44626000Y-135481739D01*
X44849240Y-135481739D01*
X44849240Y-135698421D01*
X44891513Y-135910938D01*
X44974433Y-136111125D01*
X45094815Y-136291289D01*
X45248031Y-136444505D01*
X45428195Y-136564887D01*
X45628382Y-136647807D01*
X45840899Y-136690080D01*
X46057581Y-136690080D01*
X46270098Y-136647807D01*
X46470285Y-136564887D01*
X46650449Y-136444505D01*
X46803665Y-136291289D01*
X46924047Y-136111125D01*
X46941313Y-136069439D01*
X52460421Y-136069439D01*
X52554631Y-136245722D01*
X52702036Y-136431064D01*
X52882767Y-136584088D01*
X53089879Y-136698913D01*
X53269240Y-136658250D01*
X53269240Y-135890080D01*
X53869240Y-135890080D01*
X53869240Y-136658250D01*
X54048601Y-136698913D01*
X54255713Y-136584088D01*
X54436444Y-136431064D01*
X54583849Y-136245722D01*
X54678059Y-136069439D01*
X54633776Y-135890080D01*
X53869240Y-135890080D01*
X53269240Y-135890080D01*
X52504704Y-135890080D01*
X52460421Y-136069439D01*
X46941313Y-136069439D01*
X47006967Y-135910938D01*
X47049240Y-135698421D01*
X47049240Y-135481739D01*
X47011658Y-135292800D01*
X58049065Y-135292800D01*
X58049065Y-136342800D01*
X58056788Y-136421214D01*
X58079660Y-136496614D01*
X58116803Y-136566103D01*
X58166789Y-136627011D01*
X58227697Y-136676997D01*
X58297186Y-136714140D01*
X58372586Y-136737012D01*
X58451000Y-136744735D01*
X59951000Y-136744735D01*
X60029414Y-136737012D01*
X60104814Y-136714140D01*
X60174303Y-136676997D01*
X60235211Y-136627011D01*
X60285197Y-136566103D01*
X60322340Y-136496614D01*
X60345212Y-136421214D01*
X60352935Y-136342800D01*
X60352935Y-135292800D01*
X60345212Y-135214386D01*
X60322340Y-135138986D01*
X60285197Y-135069497D01*
X60235211Y-135008589D01*
X60232537Y-135006395D01*
X60251646Y-134982309D01*
X60200959Y-134847800D01*
X59501000Y-134847800D01*
X59501000Y-134867800D01*
X58901000Y-134867800D01*
X58901000Y-134847800D01*
X58201041Y-134847800D01*
X58150354Y-134982309D01*
X58169463Y-135006395D01*
X58166789Y-135008589D01*
X58116803Y-135069497D01*
X58079660Y-135138986D01*
X58056788Y-135214386D01*
X58049065Y-135292800D01*
X47011658Y-135292800D01*
X47006967Y-135269222D01*
X46941314Y-135110721D01*
X52460421Y-135110721D01*
X52504704Y-135290080D01*
X53269240Y-135290080D01*
X53269240Y-134521910D01*
X53869240Y-134521910D01*
X53869240Y-135290080D01*
X54633776Y-135290080D01*
X54678059Y-135110721D01*
X54583849Y-134934438D01*
X54436444Y-134749096D01*
X54255713Y-134596072D01*
X54048601Y-134481247D01*
X53869240Y-134521910D01*
X53269240Y-134521910D01*
X53089879Y-134481247D01*
X52882767Y-134596072D01*
X52702036Y-134749096D01*
X52554631Y-134934438D01*
X52460421Y-135110721D01*
X46941314Y-135110721D01*
X46924047Y-135069035D01*
X46803665Y-134888871D01*
X46650449Y-134735655D01*
X46470285Y-134615273D01*
X46270098Y-134532353D01*
X46057581Y-134490080D01*
X45840899Y-134490080D01*
X45628382Y-134532353D01*
X45428195Y-134615273D01*
X45248031Y-134735655D01*
X45094815Y-134888871D01*
X44974433Y-135069035D01*
X44891513Y-135269222D01*
X44849240Y-135481739D01*
X44626000Y-135481739D01*
X44626000Y-133529439D01*
X44840421Y-133529439D01*
X44934631Y-133705722D01*
X45082036Y-133891064D01*
X45262767Y-134044088D01*
X45469879Y-134158913D01*
X45649240Y-134118250D01*
X45649240Y-133350080D01*
X46249240Y-133350080D01*
X46249240Y-134118250D01*
X46428601Y-134158913D01*
X46635713Y-134044088D01*
X46816444Y-133891064D01*
X46963849Y-133705722D01*
X47058059Y-133529439D01*
X47013776Y-133350080D01*
X46249240Y-133350080D01*
X45649240Y-133350080D01*
X44884704Y-133350080D01*
X44840421Y-133529439D01*
X44626000Y-133529439D01*
X44626000Y-132941739D01*
X52469240Y-132941739D01*
X52469240Y-133158421D01*
X52511513Y-133370938D01*
X52594433Y-133571125D01*
X52714815Y-133751289D01*
X52868031Y-133904505D01*
X53048195Y-134024887D01*
X53248382Y-134107807D01*
X53460899Y-134150080D01*
X53677581Y-134150080D01*
X53890098Y-134107807D01*
X54090285Y-134024887D01*
X54270449Y-133904505D01*
X54423665Y-133751289D01*
X54544047Y-133571125D01*
X54626967Y-133370938D01*
X54645493Y-133277800D01*
X58046525Y-133277800D01*
X58064385Y-133459132D01*
X58117277Y-133633495D01*
X58203170Y-133794189D01*
X58303126Y-133915986D01*
X58295840Y-133922496D01*
X58186918Y-134067204D01*
X58150354Y-134113291D01*
X58201041Y-134247800D01*
X58901000Y-134247800D01*
X58901000Y-134227800D01*
X59501000Y-134227800D01*
X59501000Y-134247800D01*
X60200959Y-134247800D01*
X60251646Y-134113291D01*
X60215082Y-134067204D01*
X60106160Y-133922496D01*
X60098874Y-133915986D01*
X60198830Y-133794189D01*
X60284723Y-133633495D01*
X60337615Y-133459132D01*
X60355475Y-133277800D01*
X60337615Y-133096468D01*
X60284723Y-132922105D01*
X60198830Y-132761411D01*
X60083238Y-132620562D01*
X59942389Y-132504970D01*
X59781695Y-132419077D01*
X59607332Y-132366185D01*
X59471435Y-132352800D01*
X58930565Y-132352800D01*
X58794668Y-132366185D01*
X58620305Y-132419077D01*
X58459611Y-132504970D01*
X58318762Y-132620562D01*
X58203170Y-132761411D01*
X58117277Y-132922105D01*
X58064385Y-133096468D01*
X58046525Y-133277800D01*
X54645493Y-133277800D01*
X54669240Y-133158421D01*
X54669240Y-132941739D01*
X54626967Y-132729222D01*
X54544047Y-132529035D01*
X54423665Y-132348871D01*
X54270449Y-132195655D01*
X54090285Y-132075273D01*
X53890098Y-131992353D01*
X53677581Y-131950080D01*
X53460899Y-131950080D01*
X53248382Y-131992353D01*
X53048195Y-132075273D01*
X52868031Y-132195655D01*
X52714815Y-132348871D01*
X52594433Y-132529035D01*
X52511513Y-132729222D01*
X52469240Y-132941739D01*
X44626000Y-132941739D01*
X44626000Y-132570721D01*
X44840421Y-132570721D01*
X44884704Y-132750080D01*
X45649240Y-132750080D01*
X45649240Y-131981910D01*
X46249240Y-131981910D01*
X46249240Y-132750080D01*
X47013776Y-132750080D01*
X47058059Y-132570721D01*
X46963849Y-132394438D01*
X46816444Y-132209096D01*
X46635713Y-132056072D01*
X46428601Y-131941247D01*
X46249240Y-131981910D01*
X45649240Y-131981910D01*
X45469879Y-131941247D01*
X45262767Y-132056072D01*
X45082036Y-132209096D01*
X44934631Y-132394438D01*
X44840421Y-132570721D01*
X44626000Y-132570721D01*
X44626000Y-130989439D01*
X44840421Y-130989439D01*
X44934631Y-131165722D01*
X45082036Y-131351064D01*
X45262767Y-131504088D01*
X45469879Y-131618913D01*
X45649240Y-131578250D01*
X45649240Y-130810080D01*
X46249240Y-130810080D01*
X46249240Y-131578250D01*
X46428601Y-131618913D01*
X46635713Y-131504088D01*
X46816444Y-131351064D01*
X46963849Y-131165722D01*
X47058059Y-130989439D01*
X47013776Y-130810080D01*
X46249240Y-130810080D01*
X45649240Y-130810080D01*
X44884704Y-130810080D01*
X44840421Y-130989439D01*
X44626000Y-130989439D01*
X44626000Y-130401739D01*
X52469240Y-130401739D01*
X52469240Y-130618421D01*
X52511513Y-130830938D01*
X52594433Y-131031125D01*
X52714815Y-131211289D01*
X52868031Y-131364505D01*
X53048195Y-131484887D01*
X53248382Y-131567807D01*
X53460899Y-131610080D01*
X53677581Y-131610080D01*
X53890098Y-131567807D01*
X54090285Y-131484887D01*
X54214324Y-131402006D01*
X56960059Y-131402006D01*
X57056318Y-131560733D01*
X57284980Y-131626586D01*
X57522096Y-131646565D01*
X57758553Y-131619900D01*
X57953602Y-131560733D01*
X58049861Y-131402006D01*
X57504960Y-130857104D01*
X56960059Y-131402006D01*
X54214324Y-131402006D01*
X54270449Y-131364505D01*
X54423665Y-131211289D01*
X54544047Y-131031125D01*
X54626967Y-130830938D01*
X54669240Y-130618421D01*
X54669240Y-130449976D01*
X56291235Y-130449976D01*
X56317900Y-130686433D01*
X56377067Y-130881482D01*
X56535794Y-130977741D01*
X57080696Y-130432840D01*
X57929224Y-130432840D01*
X58474126Y-130977741D01*
X58632853Y-130881482D01*
X58698706Y-130652820D01*
X58718685Y-130415704D01*
X58707290Y-130314650D01*
X61304960Y-130314650D01*
X61304960Y-130551030D01*
X61351076Y-130782867D01*
X61441534Y-131001253D01*
X61572859Y-131197795D01*
X61740005Y-131364941D01*
X61936547Y-131496266D01*
X62154933Y-131586724D01*
X62386770Y-131632840D01*
X62623150Y-131632840D01*
X62854987Y-131586724D01*
X63073373Y-131496266D01*
X63269915Y-131364941D01*
X63437061Y-131197795D01*
X63568386Y-131001253D01*
X63658844Y-130782867D01*
X63704960Y-130551030D01*
X63704960Y-130314650D01*
X63658844Y-130082813D01*
X63568386Y-129864427D01*
X63437061Y-129667885D01*
X63269915Y-129500739D01*
X63073373Y-129369414D01*
X62854987Y-129278956D01*
X62623150Y-129232840D01*
X62386770Y-129232840D01*
X62154933Y-129278956D01*
X61936547Y-129369414D01*
X61740005Y-129500739D01*
X61572859Y-129667885D01*
X61441534Y-129864427D01*
X61351076Y-130082813D01*
X61304960Y-130314650D01*
X58707290Y-130314650D01*
X58692020Y-130179247D01*
X58632853Y-129984198D01*
X58474126Y-129887939D01*
X57929224Y-130432840D01*
X57080696Y-130432840D01*
X56535794Y-129887939D01*
X56377067Y-129984198D01*
X56311214Y-130212860D01*
X56291235Y-130449976D01*
X54669240Y-130449976D01*
X54669240Y-130401739D01*
X54626967Y-130189222D01*
X54544047Y-129989035D01*
X54423665Y-129808871D01*
X54270449Y-129655655D01*
X54090285Y-129535273D01*
X53917430Y-129463674D01*
X56960059Y-129463674D01*
X57504960Y-130008576D01*
X58049861Y-129463674D01*
X57953602Y-129304947D01*
X57724940Y-129239094D01*
X57487824Y-129219115D01*
X57251367Y-129245780D01*
X57056318Y-129304947D01*
X56960059Y-129463674D01*
X53917430Y-129463674D01*
X53890098Y-129452353D01*
X53677581Y-129410080D01*
X53460899Y-129410080D01*
X53248382Y-129452353D01*
X53048195Y-129535273D01*
X52868031Y-129655655D01*
X52714815Y-129808871D01*
X52594433Y-129989035D01*
X52511513Y-130189222D01*
X52469240Y-130401739D01*
X44626000Y-130401739D01*
X44626000Y-130030721D01*
X44840421Y-130030721D01*
X44884704Y-130210080D01*
X45649240Y-130210080D01*
X45649240Y-129441910D01*
X46249240Y-129441910D01*
X46249240Y-130210080D01*
X47013776Y-130210080D01*
X47058059Y-130030721D01*
X46963849Y-129854438D01*
X46816444Y-129669096D01*
X46635713Y-129516072D01*
X46428601Y-129401247D01*
X46249240Y-129441910D01*
X45649240Y-129441910D01*
X45469879Y-129401247D01*
X45262767Y-129516072D01*
X45082036Y-129669096D01*
X44934631Y-129854438D01*
X44840421Y-130030721D01*
X44626000Y-130030721D01*
X44626000Y-127170080D01*
X44847789Y-127170080D01*
X44847789Y-128770080D01*
X44853581Y-128828890D01*
X44870736Y-128885440D01*
X44898593Y-128937557D01*
X44936082Y-128983238D01*
X44981763Y-129020727D01*
X45033880Y-129048584D01*
X45090430Y-129065739D01*
X45149240Y-129071531D01*
X46749240Y-129071531D01*
X46808050Y-129065739D01*
X46864600Y-129048584D01*
X46916717Y-129020727D01*
X46962398Y-128983238D01*
X46999887Y-128937557D01*
X47027744Y-128885440D01*
X47044899Y-128828890D01*
X47050691Y-128770080D01*
X47050691Y-127851890D01*
X52369240Y-127851890D01*
X52369240Y-128088270D01*
X52415356Y-128320107D01*
X52505814Y-128538493D01*
X52637139Y-128735035D01*
X52804285Y-128902181D01*
X53000827Y-129033506D01*
X53219213Y-129123964D01*
X53451050Y-129170080D01*
X53687430Y-129170080D01*
X53919267Y-129123964D01*
X54137653Y-129033506D01*
X54334195Y-128902181D01*
X54465810Y-128770566D01*
X56960059Y-128770566D01*
X57056318Y-128929293D01*
X57284980Y-128995146D01*
X57522096Y-129015125D01*
X57758553Y-128988460D01*
X57953602Y-128929293D01*
X58049861Y-128770566D01*
X57504960Y-128225664D01*
X56960059Y-128770566D01*
X54465810Y-128770566D01*
X54501341Y-128735035D01*
X54632666Y-128538493D01*
X54723124Y-128320107D01*
X54769240Y-128088270D01*
X54769240Y-127851890D01*
X54762606Y-127818536D01*
X56291235Y-127818536D01*
X56317900Y-128054993D01*
X56377067Y-128250042D01*
X56535794Y-128346301D01*
X57080696Y-127801400D01*
X57929224Y-127801400D01*
X58474126Y-128346301D01*
X58632853Y-128250042D01*
X58698706Y-128021380D01*
X58718685Y-127784264D01*
X58707290Y-127683210D01*
X61304960Y-127683210D01*
X61304960Y-127919590D01*
X61351076Y-128151427D01*
X61441534Y-128369813D01*
X61572859Y-128566355D01*
X61740005Y-128733501D01*
X61936547Y-128864826D01*
X62154933Y-128955284D01*
X62386770Y-129001400D01*
X62623150Y-129001400D01*
X62854987Y-128955284D01*
X63073373Y-128864826D01*
X63269915Y-128733501D01*
X63437061Y-128566355D01*
X63568386Y-128369813D01*
X63658844Y-128151427D01*
X63704960Y-127919590D01*
X63704960Y-127683210D01*
X63658844Y-127451373D01*
X63568386Y-127232987D01*
X63437061Y-127036445D01*
X63269915Y-126869299D01*
X63073373Y-126737974D01*
X62854987Y-126647516D01*
X62623150Y-126601400D01*
X62386770Y-126601400D01*
X62154933Y-126647516D01*
X61936547Y-126737974D01*
X61740005Y-126869299D01*
X61572859Y-127036445D01*
X61441534Y-127232987D01*
X61351076Y-127451373D01*
X61304960Y-127683210D01*
X58707290Y-127683210D01*
X58692020Y-127547807D01*
X58632853Y-127352758D01*
X58474126Y-127256499D01*
X57929224Y-127801400D01*
X57080696Y-127801400D01*
X56535794Y-127256499D01*
X56377067Y-127352758D01*
X56311214Y-127581420D01*
X56291235Y-127818536D01*
X54762606Y-127818536D01*
X54723124Y-127620053D01*
X54632666Y-127401667D01*
X54501341Y-127205125D01*
X54334195Y-127037979D01*
X54137653Y-126906654D01*
X53957987Y-126832234D01*
X56960059Y-126832234D01*
X57504960Y-127377136D01*
X58049861Y-126832234D01*
X57953602Y-126673507D01*
X57724940Y-126607654D01*
X57487824Y-126587675D01*
X57251367Y-126614340D01*
X57056318Y-126673507D01*
X56960059Y-126832234D01*
X53957987Y-126832234D01*
X53919267Y-126816196D01*
X53687430Y-126770080D01*
X53451050Y-126770080D01*
X53219213Y-126816196D01*
X53000827Y-126906654D01*
X52804285Y-127037979D01*
X52637139Y-127205125D01*
X52505814Y-127401667D01*
X52415356Y-127620053D01*
X52369240Y-127851890D01*
X47050691Y-127851890D01*
X47050691Y-127170080D01*
X47044899Y-127111270D01*
X47027744Y-127054720D01*
X46999887Y-127002603D01*
X46962398Y-126956922D01*
X46916717Y-126919433D01*
X46864600Y-126891576D01*
X46808050Y-126874421D01*
X46749240Y-126868629D01*
X45149240Y-126868629D01*
X45090430Y-126874421D01*
X45033880Y-126891576D01*
X44981763Y-126919433D01*
X44936082Y-126956922D01*
X44898593Y-127002603D01*
X44870736Y-127054720D01*
X44853581Y-127111270D01*
X44847789Y-127170080D01*
X44626000Y-127170080D01*
X44626000Y-125611846D01*
X47983699Y-125611846D01*
X48079958Y-125770573D01*
X48308620Y-125836426D01*
X48545736Y-125856405D01*
X48782193Y-125829740D01*
X48977242Y-125770573D01*
X49073501Y-125611846D01*
X48528600Y-125066944D01*
X47983699Y-125611846D01*
X44626000Y-125611846D01*
X44626000Y-124659816D01*
X47314875Y-124659816D01*
X47341540Y-124896273D01*
X47400707Y-125091322D01*
X47559434Y-125187581D01*
X48104336Y-124642680D01*
X48952864Y-124642680D01*
X49497766Y-125187581D01*
X49656493Y-125091322D01*
X49722346Y-124862660D01*
X49742325Y-124625544D01*
X49730930Y-124524490D01*
X52328600Y-124524490D01*
X52328600Y-124760870D01*
X52374716Y-124992707D01*
X52465174Y-125211093D01*
X52596499Y-125407635D01*
X52763645Y-125574781D01*
X52960187Y-125706106D01*
X53178573Y-125796564D01*
X53410410Y-125842680D01*
X53646790Y-125842680D01*
X53878627Y-125796564D01*
X54097013Y-125706106D01*
X54293555Y-125574781D01*
X54460701Y-125407635D01*
X54592026Y-125211093D01*
X54682484Y-124992707D01*
X54728600Y-124760870D01*
X54728600Y-124524490D01*
X54722672Y-124494686D01*
X56811000Y-124494686D01*
X56811000Y-124740914D01*
X56859037Y-124982411D01*
X56953265Y-125209897D01*
X57090062Y-125414628D01*
X57264172Y-125588738D01*
X57468903Y-125725535D01*
X57696389Y-125819763D01*
X57937886Y-125867800D01*
X58184114Y-125867800D01*
X58425611Y-125819763D01*
X58653097Y-125725535D01*
X58857828Y-125588738D01*
X59031938Y-125414628D01*
X59168735Y-125209897D01*
X59262963Y-124982411D01*
X59311000Y-124740914D01*
X59311000Y-124494686D01*
X59262963Y-124253189D01*
X59168735Y-124025703D01*
X59031938Y-123820972D01*
X58978766Y-123767800D01*
X59349065Y-123767800D01*
X59349065Y-125467800D01*
X59356788Y-125546214D01*
X59379660Y-125621614D01*
X59416803Y-125691103D01*
X59466789Y-125752011D01*
X59527697Y-125801997D01*
X59597186Y-125839140D01*
X59672586Y-125862012D01*
X59751000Y-125869735D01*
X61451000Y-125869735D01*
X61529414Y-125862012D01*
X61604814Y-125839140D01*
X61674303Y-125801997D01*
X61735211Y-125752011D01*
X61785197Y-125691103D01*
X61822340Y-125621614D01*
X61845212Y-125546214D01*
X61852935Y-125467800D01*
X61852935Y-123767800D01*
X61845212Y-123689386D01*
X61822340Y-123613986D01*
X61785197Y-123544497D01*
X61735211Y-123483589D01*
X61674303Y-123433603D01*
X61604814Y-123396460D01*
X61529414Y-123373588D01*
X61451000Y-123365865D01*
X59751000Y-123365865D01*
X59672586Y-123373588D01*
X59597186Y-123396460D01*
X59527697Y-123433603D01*
X59466789Y-123483589D01*
X59416803Y-123544497D01*
X59379660Y-123613986D01*
X59356788Y-123689386D01*
X59349065Y-123767800D01*
X58978766Y-123767800D01*
X58857828Y-123646862D01*
X58653097Y-123510065D01*
X58425611Y-123415837D01*
X58184114Y-123367800D01*
X57937886Y-123367800D01*
X57696389Y-123415837D01*
X57468903Y-123510065D01*
X57264172Y-123646862D01*
X57090062Y-123820972D01*
X56953265Y-124025703D01*
X56859037Y-124253189D01*
X56811000Y-124494686D01*
X54722672Y-124494686D01*
X54682484Y-124292653D01*
X54592026Y-124074267D01*
X54460701Y-123877725D01*
X54293555Y-123710579D01*
X54097013Y-123579254D01*
X53878627Y-123488796D01*
X53646790Y-123442680D01*
X53410410Y-123442680D01*
X53178573Y-123488796D01*
X52960187Y-123579254D01*
X52763645Y-123710579D01*
X52596499Y-123877725D01*
X52465174Y-124074267D01*
X52374716Y-124292653D01*
X52328600Y-124524490D01*
X49730930Y-124524490D01*
X49715660Y-124389087D01*
X49656493Y-124194038D01*
X49497766Y-124097779D01*
X48952864Y-124642680D01*
X48104336Y-124642680D01*
X47559434Y-124097779D01*
X47400707Y-124194038D01*
X47334854Y-124422700D01*
X47314875Y-124659816D01*
X44626000Y-124659816D01*
X44626000Y-123673514D01*
X47983699Y-123673514D01*
X48528600Y-124218416D01*
X49073501Y-123673514D01*
X48977242Y-123514787D01*
X48748580Y-123448934D01*
X48511464Y-123428955D01*
X48275007Y-123455620D01*
X48079958Y-123514787D01*
X47983699Y-123673514D01*
X44626000Y-123673514D01*
X44626000Y-121609459D01*
X44901000Y-121609459D01*
X44901000Y-121826141D01*
X44943273Y-122038658D01*
X45026193Y-122238845D01*
X45146575Y-122419009D01*
X45299791Y-122572225D01*
X45479955Y-122692607D01*
X45680142Y-122775527D01*
X45892659Y-122817800D01*
X46109341Y-122817800D01*
X46321858Y-122775527D01*
X46522045Y-122692607D01*
X46702209Y-122572225D01*
X46855425Y-122419009D01*
X46975807Y-122238845D01*
X47058727Y-122038658D01*
X47101000Y-121826141D01*
X47101000Y-121609459D01*
X52521000Y-121609459D01*
X52521000Y-121826141D01*
X52563273Y-122038658D01*
X52646193Y-122238845D01*
X52766575Y-122419009D01*
X52919791Y-122572225D01*
X53099955Y-122692607D01*
X53300142Y-122775527D01*
X53512659Y-122817800D01*
X53729341Y-122817800D01*
X53941858Y-122775527D01*
X54142045Y-122692607D01*
X54322209Y-122572225D01*
X54475425Y-122419009D01*
X54595807Y-122238845D01*
X54678727Y-122038658D01*
X54721000Y-121826141D01*
X54721000Y-121609459D01*
X54678727Y-121396942D01*
X54595807Y-121196755D01*
X54475425Y-121016591D01*
X54322209Y-120863375D01*
X54142045Y-120742993D01*
X53941858Y-120660073D01*
X53729341Y-120617800D01*
X53512659Y-120617800D01*
X53300142Y-120660073D01*
X53099955Y-120742993D01*
X52919791Y-120863375D01*
X52766575Y-121016591D01*
X52646193Y-121196755D01*
X52563273Y-121396942D01*
X52521000Y-121609459D01*
X47101000Y-121609459D01*
X47058727Y-121396942D01*
X46975807Y-121196755D01*
X46855425Y-121016591D01*
X46702209Y-120863375D01*
X46522045Y-120742993D01*
X46321858Y-120660073D01*
X46109341Y-120617800D01*
X45892659Y-120617800D01*
X45680142Y-120660073D01*
X45479955Y-120742993D01*
X45299791Y-120863375D01*
X45146575Y-121016591D01*
X45026193Y-121196755D01*
X44943273Y-121396942D01*
X44901000Y-121609459D01*
X44626000Y-121609459D01*
X44626000Y-118517800D01*
X46523946Y-118517800D01*
X46531824Y-118597782D01*
X46555153Y-118674690D01*
X46593039Y-118745569D01*
X46644025Y-118807695D01*
X46706151Y-118858681D01*
X46777030Y-118896567D01*
X46853938Y-118919896D01*
X46933920Y-118927774D01*
X47431920Y-118925800D01*
X47533920Y-118823800D01*
X47533920Y-117017800D01*
X48133920Y-117017800D01*
X48133920Y-118823800D01*
X48235920Y-118925800D01*
X48733920Y-118927774D01*
X48813902Y-118919896D01*
X48890810Y-118896567D01*
X48961689Y-118858681D01*
X49023815Y-118807695D01*
X49074801Y-118745569D01*
X49112687Y-118674690D01*
X49136016Y-118597782D01*
X49143894Y-118517800D01*
X49141920Y-117119800D01*
X49039920Y-117017800D01*
X48133920Y-117017800D01*
X47533920Y-117017800D01*
X46627920Y-117017800D01*
X46525920Y-117119800D01*
X46523946Y-118517800D01*
X44626000Y-118517800D01*
X44626000Y-114917800D01*
X46523946Y-114917800D01*
X46525920Y-116315800D01*
X46627920Y-116417800D01*
X47533920Y-116417800D01*
X47533920Y-114611800D01*
X48133920Y-114611800D01*
X48133920Y-116417800D01*
X49039920Y-116417800D01*
X49141920Y-116315800D01*
X49142706Y-115758851D01*
X50133920Y-115758851D01*
X50133920Y-117676750D01*
X50151284Y-117853041D01*
X50219902Y-118079242D01*
X50331330Y-118287710D01*
X50481287Y-118470434D01*
X50664011Y-118620391D01*
X50872479Y-118731819D01*
X51098680Y-118800437D01*
X51333920Y-118823606D01*
X51569161Y-118800437D01*
X51795362Y-118731819D01*
X52003830Y-118620391D01*
X52186554Y-118470434D01*
X52336511Y-118287710D01*
X52447939Y-118079242D01*
X52516557Y-117853041D01*
X52533920Y-117676750D01*
X52533920Y-115758850D01*
X52533437Y-115753937D01*
X53533920Y-115753937D01*
X53533920Y-117681664D01*
X53552731Y-117872645D01*
X53627066Y-118117696D01*
X53747781Y-118343536D01*
X53910234Y-118541487D01*
X54108185Y-118703940D01*
X54334025Y-118824655D01*
X54579076Y-118898990D01*
X54833920Y-118924090D01*
X55088765Y-118898990D01*
X55333816Y-118824655D01*
X55559656Y-118703940D01*
X55757607Y-118541487D01*
X55920060Y-118343536D01*
X56040775Y-118117696D01*
X56115110Y-117872645D01*
X56133920Y-117681664D01*
X56133920Y-116106043D01*
X59151000Y-116106043D01*
X59151000Y-116529557D01*
X59233623Y-116944932D01*
X59395695Y-117336207D01*
X59630986Y-117688345D01*
X59930455Y-117987814D01*
X60282593Y-118223105D01*
X60673868Y-118385177D01*
X61089243Y-118467800D01*
X61512757Y-118467800D01*
X61928132Y-118385177D01*
X62319407Y-118223105D01*
X62671545Y-117987814D01*
X62971014Y-117688345D01*
X63206305Y-117336207D01*
X63368377Y-116944932D01*
X63451000Y-116529557D01*
X63451000Y-116106043D01*
X63368377Y-115690668D01*
X63206305Y-115299393D01*
X62971014Y-114947255D01*
X62671545Y-114647786D01*
X62319407Y-114412495D01*
X61928132Y-114250423D01*
X61512757Y-114167800D01*
X61089243Y-114167800D01*
X60673868Y-114250423D01*
X60282593Y-114412495D01*
X59930455Y-114647786D01*
X59630986Y-114947255D01*
X59395695Y-115299393D01*
X59233623Y-115690668D01*
X59151000Y-116106043D01*
X56133920Y-116106043D01*
X56133920Y-115753936D01*
X56115110Y-115562955D01*
X56040775Y-115317904D01*
X55920060Y-115092064D01*
X55757607Y-114894113D01*
X55559655Y-114731660D01*
X55333815Y-114610945D01*
X55088764Y-114536610D01*
X54833920Y-114511510D01*
X54579075Y-114536610D01*
X54334024Y-114610945D01*
X54108184Y-114731660D01*
X53910233Y-114894113D01*
X53747780Y-115092065D01*
X53627065Y-115317905D01*
X53552730Y-115562956D01*
X53533920Y-115753937D01*
X52533437Y-115753937D01*
X52516557Y-115582559D01*
X52447939Y-115356358D01*
X52336511Y-115147890D01*
X52186554Y-114965166D01*
X52003829Y-114815209D01*
X51795361Y-114703781D01*
X51569160Y-114635163D01*
X51333920Y-114611994D01*
X51098679Y-114635163D01*
X50872478Y-114703781D01*
X50664010Y-114815209D01*
X50481286Y-114965166D01*
X50331329Y-115147891D01*
X50219901Y-115356359D01*
X50151283Y-115582560D01*
X50133920Y-115758851D01*
X49142706Y-115758851D01*
X49143894Y-114917800D01*
X49136016Y-114837818D01*
X49112687Y-114760910D01*
X49074801Y-114690031D01*
X49023815Y-114627905D01*
X48961689Y-114576919D01*
X48890810Y-114539033D01*
X48813902Y-114515704D01*
X48733920Y-114507826D01*
X48235920Y-114509800D01*
X48133920Y-114611800D01*
X47533920Y-114611800D01*
X47431920Y-114509800D01*
X46933920Y-114507826D01*
X46853938Y-114515704D01*
X46777030Y-114539033D01*
X46706151Y-114576919D01*
X46644025Y-114627905D01*
X46593039Y-114690031D01*
X46555153Y-114760910D01*
X46531824Y-114837818D01*
X46523946Y-114917800D01*
X44626000Y-114917800D01*
X44626000Y-111542800D01*
X64176001Y-111542800D01*
X64176000Y-153892800D01*
M02*
