G04 #@! TF.GenerationSoftware,KiCad,Pcbnew,(6.0.5)*
G04 #@! TF.CreationDate,2022-06-02T01:00:37-04:00*
G04 #@! TF.ProjectId,Receiver_Out,52656365-6976-4657-925f-4f75742e6b69,v1*
G04 #@! TF.SameCoordinates,Original*
G04 #@! TF.FileFunction,OtherDrawing,Comment*
%FSLAX46Y46*%
G04 Gerber Fmt 4.6, Leading zero omitted, Abs format (unit mm)*
G04 Created by KiCad (PCBNEW (6.0.5)) date 2022-06-02 01:00:37*
%MOMM*%
%LPD*%
G01*
G04 APERTURE LIST*
%ADD10C,0.300000*%
%ADD11C,0.215900*%
G04 APERTURE END LIST*
D10*
X115718428Y-99585800D02*
X115573285Y-99513228D01*
X115355571Y-99513228D01*
X115137857Y-99585800D01*
X114992714Y-99730942D01*
X114920142Y-99876085D01*
X114847571Y-100166371D01*
X114847571Y-100384085D01*
X114920142Y-100674371D01*
X114992714Y-100819514D01*
X115137857Y-100964657D01*
X115355571Y-101037228D01*
X115500714Y-101037228D01*
X115718428Y-100964657D01*
X115791000Y-100892085D01*
X115791000Y-100384085D01*
X115500714Y-100384085D01*
X116661857Y-99513228D02*
X116661857Y-99876085D01*
X116299000Y-99730942D02*
X116661857Y-99876085D01*
X117024714Y-99730942D01*
X116444142Y-100166371D02*
X116661857Y-99876085D01*
X116879571Y-100166371D01*
X117823000Y-99513228D02*
X117823000Y-99876085D01*
X117460142Y-99730942D02*
X117823000Y-99876085D01*
X118185857Y-99730942D01*
X117605285Y-100166371D02*
X117823000Y-99876085D01*
X118040714Y-100166371D01*
X118984142Y-99513228D02*
X118984142Y-99876085D01*
X118621285Y-99730942D02*
X118984142Y-99876085D01*
X119347000Y-99730942D01*
X118766428Y-100166371D02*
X118984142Y-99876085D01*
X119201857Y-100166371D01*
D11*
X116302333Y-130165942D02*
X116302333Y-129295085D01*
X118080333Y-129730514D02*
X116302333Y-129730514D01*
X117149000Y-128279085D02*
X117233666Y-128061371D01*
X117318333Y-127988800D01*
X117487666Y-127916228D01*
X117741666Y-127916228D01*
X117911000Y-127988800D01*
X117995666Y-128061371D01*
X118080333Y-128206514D01*
X118080333Y-128787085D01*
X116302333Y-128787085D01*
X116302333Y-128279085D01*
X116387000Y-128133942D01*
X116471666Y-128061371D01*
X116641000Y-127988800D01*
X116810333Y-127988800D01*
X116979666Y-128061371D01*
X117064333Y-128133942D01*
X117149000Y-128279085D01*
X117149000Y-128787085D01*
X118080333Y-126464800D02*
X118080333Y-127335657D01*
X118080333Y-126900228D02*
X116302333Y-126900228D01*
X116556333Y-127045371D01*
X116725666Y-127190514D01*
X116810333Y-127335657D01*
M02*
