M48
; DRILL file {KiCad (5.1.10)-1} date 08/29/21 14:04:33
; FORMAT={-:-/ absolute / metric / decimal}
; #@! TF.CreationDate,2021-08-29T14:04:33-04:00
; #@! TF.GenerationSoftware,Kicad,Pcbnew,(5.1.10)-1
; #@! TF.FileFunction,Plated,1,2,PTH
FMAT,2
METRIC
T1C0.600
T2C0.760
T3C1.000
T4C1.200
T5C1.500
T6C1.650
%
G90
G05
T1
X69.937Y-138.176
X70.191Y-130.048
X71.461Y-85.598
X71.461Y-95.758
X71.461Y-100.838
X71.461Y-105.918
X71.701Y-112.018
X71.701Y-114.818
X73.101Y-112.018
X74.901Y-110.018
X75.801Y-123.718
X76.101Y-119.418
X76.541Y-85.598
X76.541Y-90.678
X76.541Y-95.758
X76.541Y-105.918
X77.701Y-121.818
X79.081Y-113.538
X79.335Y-129.794
X80.097Y-99.06
X80.097Y-140.208
X81.621Y-103.124
X81.875Y-121.92
X82.891Y-136.144
X83.796Y-95.645
X83.801Y-108.018
X84.161Y-85.598
X84.701Y-97.718
X84.926Y-102.718
X85.275Y-107.974
X85.301Y-99.118
X85.431Y-138.684
X86.551Y-107.968
X86.701Y-85.598
X86.701Y-113.538
X87.407Y-96.718
X87.801Y-107.918
X89.301Y-96.218
X89.401Y-108.318
X90.701Y-108.318
X90.901Y-100.918
X91.781Y-138.938
X92.301Y-100.218
X92.301Y-105.918
X93.801Y-107.968
X94.051Y-105.718
X94.321Y-113.538
X94.321Y-126.238
X95.301Y-97.918
X96.301Y-100.518
X96.501Y-96.118
X96.861Y-85.598
X96.861Y-90.678
X97.623Y-138.938
X99.101Y-100.518
X99.401Y-113.538
X101.941Y-85.598
X101.941Y-90.678
X101.941Y-113.538
X101.941Y-133.858
X102.301Y-103.118
X103.211Y-138.938
X104.301Y-95.918
X104.901Y-100.318
X105.701Y-95.918
X106.701Y-104.118
X106.701Y-105.518
X107.021Y-85.598
X107.021Y-90.678
X108.301Y-145.718
X108.301Y-150.718
X109.561Y-138.938
X112.101Y-85.598
X112.101Y-90.678
X112.101Y-95.758
X112.101Y-100.838
X112.101Y-105.718
X112.101Y-110.998
X112.101Y-116.078
X112.101Y-123.698
X113.301Y-120.718
X113.301Y-130.718
X113.301Y-133.218
X113.301Y-135.718
X113.301Y-140.718
X113.301Y-145.718
X113.301Y-150.718
X113.901Y-125.918
X114.133Y-110.998
X114.801Y-115.618
X115.801Y-120.718
X115.801Y-135.718
X115.901Y-112.318
X115.911Y-109.518
X116.001Y-117.118
X116.101Y-114.118
X117.181Y-85.598
X117.181Y-90.678
X117.181Y-95.758
X117.181Y-100.838
X117.301Y-105.718
X118.301Y-120.718
X118.301Y-135.718
X118.301Y-140.718
X118.301Y-145.718
X118.301Y-150.718
X120.801Y-120.718
X120.801Y-130.718
X120.801Y-133.218
X120.801Y-135.718
X122.101Y-125.918
X122.261Y-85.598
X122.261Y-95.758
X122.261Y-100.838
X122.261Y-105.918
X122.261Y-118.618
X122.261Y-123.698
X123.301Y-130.718
X123.301Y-135.718
X123.301Y-145.718
X123.301Y-150.718
T2
X80.861Y-93.776
X82.131Y-91.236
X83.401Y-93.776
X84.671Y-91.236
X85.941Y-93.776
X87.211Y-91.236
X88.481Y-93.776
X89.751Y-91.236
T3
X75.151Y-128.288
X75.151Y-130.828
X75.151Y-133.368
T4
X86.3Y-116.6
X86.3Y-129.6
X89.8Y-116.6
X89.8Y-129.6
X93.3Y-116.6
X93.3Y-129.6
X101.3Y-116.6
X101.3Y-129.6
X104.8Y-116.6
X104.8Y-129.6
X108.3Y-116.6
X108.3Y-129.6
T5
X117.165Y-124.366
X117.165Y-132.616
T6
X89.309Y-138.339
X89.309Y-142.039
X89.309Y-146.539
X89.309Y-150.239
X94.897Y-138.354
X94.897Y-142.054
X94.897Y-146.554
X94.897Y-150.254
X100.485Y-138.354
X100.485Y-142.054
X100.485Y-146.554
X100.485Y-150.254
X106.073Y-138.354
X106.073Y-142.054
X106.073Y-146.554
X106.073Y-150.254
T0
M30
