G04 #@! TF.GenerationSoftware,KiCad,Pcbnew,(6.0.5)*
G04 #@! TF.CreationDate,2022-06-02T01:00:37-04:00*
G04 #@! TF.ProjectId,Receiver_Out,52656365-6976-4657-925f-4f75742e6b69,v1*
G04 #@! TF.SameCoordinates,Original*
G04 #@! TF.FileFunction,AssemblyDrawing,Top*
%FSLAX46Y46*%
G04 Gerber Fmt 4.6, Leading zero omitted, Abs format (unit mm)*
G04 Created by KiCad (PCBNEW (6.0.5)) date 2022-06-02 01:00:37*
%MOMM*%
%LPD*%
G01*
G04 APERTURE LIST*
%ADD10C,0.120000*%
%ADD11C,0.150000*%
%ADD12C,0.152400*%
%ADD13C,0.050000*%
%ADD14C,0.080000*%
%ADD15C,0.060000*%
%ADD16C,0.040000*%
%ADD17C,0.100000*%
G04 APERTURE END LIST*
D10*
X69931000Y-140969800D02*
X120731000Y-140969800D01*
X71431000Y-142239800D02*
X122231000Y-142239800D01*
D11*
X69619666Y-136850180D02*
X69286333Y-136373990D01*
X69048238Y-136850180D02*
X69048238Y-135850180D01*
X69429190Y-135850180D01*
X69524428Y-135897800D01*
X69572047Y-135945419D01*
X69619666Y-136040657D01*
X69619666Y-136183514D01*
X69572047Y-136278752D01*
X69524428Y-136326371D01*
X69429190Y-136373990D01*
X69048238Y-136373990D01*
X70048238Y-136326371D02*
X70381571Y-136326371D01*
X70524428Y-136850180D02*
X70048238Y-136850180D01*
X70048238Y-135850180D01*
X70524428Y-135850180D01*
X71286333Y-136326371D02*
X70953000Y-136326371D01*
X70953000Y-136850180D02*
X70953000Y-135850180D01*
X71429190Y-135850180D01*
X71953000Y-135850180D02*
X71953000Y-136088276D01*
X71714904Y-135993038D02*
X71953000Y-136088276D01*
X72191095Y-135993038D01*
X71810142Y-136278752D02*
X71953000Y-136088276D01*
X72095857Y-136278752D01*
X72714904Y-135850180D02*
X72714904Y-136088276D01*
X72476809Y-135993038D02*
X72714904Y-136088276D01*
X72953000Y-135993038D01*
X72572047Y-136278752D02*
X72714904Y-136088276D01*
X72857761Y-136278752D01*
X65040523Y-147392180D02*
X65040523Y-146392180D01*
X65373857Y-147106466D01*
X65707190Y-146392180D01*
X65707190Y-147392180D01*
X66326238Y-147392180D02*
X66230999Y-147344561D01*
X66183380Y-147296942D01*
X66135761Y-147201704D01*
X66135761Y-146915990D01*
X66183380Y-146820752D01*
X66230999Y-146773133D01*
X66326238Y-146725514D01*
X66469095Y-146725514D01*
X66564333Y-146773133D01*
X66611952Y-146820752D01*
X66659571Y-146915990D01*
X66659571Y-147201704D01*
X66611952Y-147296942D01*
X66564333Y-147344561D01*
X66469095Y-147392180D01*
X66326238Y-147392180D01*
X67516714Y-146725514D02*
X67516714Y-147392180D01*
X67088142Y-146725514D02*
X67088142Y-147249323D01*
X67135761Y-147344561D01*
X67231000Y-147392180D01*
X67373857Y-147392180D01*
X67469095Y-147344561D01*
X67516714Y-147296942D01*
X67992904Y-146725514D02*
X67992904Y-147392180D01*
X67992904Y-146820752D02*
X68040523Y-146773133D01*
X68135761Y-146725514D01*
X68278619Y-146725514D01*
X68373857Y-146773133D01*
X68421476Y-146868371D01*
X68421476Y-147392180D01*
X68754809Y-146725514D02*
X69135761Y-146725514D01*
X68897666Y-146392180D02*
X68897666Y-147249323D01*
X68945285Y-147344561D01*
X69040523Y-147392180D01*
X69135761Y-147392180D01*
X69469095Y-147392180D02*
X69469095Y-146725514D01*
X69469095Y-146392180D02*
X69421476Y-146439800D01*
X69469095Y-146487419D01*
X69516714Y-146439800D01*
X69469095Y-146392180D01*
X69469095Y-146487419D01*
X69945285Y-146725514D02*
X69945285Y-147392180D01*
X69945285Y-146820752D02*
X69992904Y-146773133D01*
X70088142Y-146725514D01*
X70231000Y-146725514D01*
X70326238Y-146773133D01*
X70373857Y-146868371D01*
X70373857Y-147392180D01*
X71278619Y-146725514D02*
X71278619Y-147535038D01*
X71231000Y-147630276D01*
X71183380Y-147677895D01*
X71088142Y-147725514D01*
X70945285Y-147725514D01*
X70850047Y-147677895D01*
X71278619Y-147344561D02*
X71183380Y-147392180D01*
X70992904Y-147392180D01*
X70897666Y-147344561D01*
X70850047Y-147296942D01*
X70802428Y-147201704D01*
X70802428Y-146915990D01*
X70850047Y-146820752D01*
X70897666Y-146773133D01*
X70992904Y-146725514D01*
X71183380Y-146725514D01*
X71278619Y-146773133D01*
X71754809Y-147392180D02*
X71754809Y-146392180D01*
X71754809Y-146868371D02*
X72326238Y-146868371D01*
X72326238Y-147392180D02*
X72326238Y-146392180D01*
X72945285Y-147392180D02*
X72850047Y-147344561D01*
X72802428Y-147296942D01*
X72754809Y-147201704D01*
X72754809Y-146915990D01*
X72802428Y-146820752D01*
X72850047Y-146773133D01*
X72945285Y-146725514D01*
X73088142Y-146725514D01*
X73183380Y-146773133D01*
X73231000Y-146820752D01*
X73278619Y-146915990D01*
X73278619Y-147201704D01*
X73231000Y-147296942D01*
X73183380Y-147344561D01*
X73088142Y-147392180D01*
X72945285Y-147392180D01*
X73850047Y-147392180D02*
X73754809Y-147344561D01*
X73707190Y-147249323D01*
X73707190Y-146392180D01*
X74611952Y-147344561D02*
X74516714Y-147392180D01*
X74326238Y-147392180D01*
X74231000Y-147344561D01*
X74183380Y-147249323D01*
X74183380Y-146868371D01*
X74231000Y-146773133D01*
X74326238Y-146725514D01*
X74516714Y-146725514D01*
X74611952Y-146773133D01*
X74659571Y-146868371D01*
X74659571Y-146963609D01*
X74183380Y-147058847D01*
X74850047Y-147487419D02*
X75611952Y-147487419D01*
X75754809Y-146392180D02*
X76373857Y-146392180D01*
X76040523Y-146773133D01*
X76183380Y-146773133D01*
X76278619Y-146820752D01*
X76326238Y-146868371D01*
X76373857Y-146963609D01*
X76373857Y-147201704D01*
X76326238Y-147296942D01*
X76278619Y-147344561D01*
X76183380Y-147392180D01*
X75897666Y-147392180D01*
X75802428Y-147344561D01*
X75754809Y-147296942D01*
X76802428Y-147296942D02*
X76850047Y-147344561D01*
X76802428Y-147392180D01*
X76754809Y-147344561D01*
X76802428Y-147296942D01*
X76802428Y-147392180D01*
X77183380Y-146392180D02*
X77850047Y-146392180D01*
X77421476Y-147392180D01*
X78230999Y-147392180D02*
X78230999Y-146725514D01*
X78230999Y-146820752D02*
X78278619Y-146773133D01*
X78373857Y-146725514D01*
X78516714Y-146725514D01*
X78611952Y-146773133D01*
X78659571Y-146868371D01*
X78659571Y-147392180D01*
X78659571Y-146868371D02*
X78707190Y-146773133D01*
X78802428Y-146725514D01*
X78945285Y-146725514D01*
X79040523Y-146773133D01*
X79088142Y-146868371D01*
X79088142Y-147392180D01*
X79564333Y-147392180D02*
X79564333Y-146725514D01*
X79564333Y-146820752D02*
X79611952Y-146773133D01*
X79707190Y-146725514D01*
X79850047Y-146725514D01*
X79945285Y-146773133D01*
X79992904Y-146868371D01*
X79992904Y-147392180D01*
X79992904Y-146868371D02*
X80040523Y-146773133D01*
X80135761Y-146725514D01*
X80278619Y-146725514D01*
X80373857Y-146773133D01*
X80421476Y-146868371D01*
X80421476Y-147392180D01*
X71697666Y-143200180D02*
X71364333Y-142723990D01*
X71126238Y-143200180D02*
X71126238Y-142200180D01*
X71507190Y-142200180D01*
X71602428Y-142247800D01*
X71650047Y-142295419D01*
X71697666Y-142390657D01*
X71697666Y-142533514D01*
X71650047Y-142628752D01*
X71602428Y-142676371D01*
X71507190Y-142723990D01*
X71126238Y-142723990D01*
X72126238Y-142676371D02*
X72459571Y-142676371D01*
X72602428Y-143200180D02*
X72126238Y-143200180D01*
X72126238Y-142200180D01*
X72602428Y-142200180D01*
X73364333Y-142676371D02*
X73031000Y-142676371D01*
X73031000Y-143200180D02*
X73031000Y-142200180D01*
X73507190Y-142200180D01*
X74031000Y-142200180D02*
X74031000Y-142438276D01*
X73792904Y-142343038D02*
X74031000Y-142438276D01*
X74269095Y-142343038D01*
X73888142Y-142628752D02*
X74031000Y-142438276D01*
X74173857Y-142628752D01*
X74792904Y-142200180D02*
X74792904Y-142438276D01*
X74554809Y-142343038D02*
X74792904Y-142438276D01*
X75031000Y-142343038D01*
X74650047Y-142628752D02*
X74792904Y-142438276D01*
X74935761Y-142628752D01*
X122197666Y-87192180D02*
X121864333Y-86715990D01*
X121626238Y-87192180D02*
X121626238Y-86192180D01*
X122007190Y-86192180D01*
X122102428Y-86239800D01*
X122150047Y-86287419D01*
X122197666Y-86382657D01*
X122197666Y-86525514D01*
X122150047Y-86620752D01*
X122102428Y-86668371D01*
X122007190Y-86715990D01*
X121626238Y-86715990D01*
X122626238Y-86668371D02*
X122959571Y-86668371D01*
X123102428Y-87192180D02*
X122626238Y-87192180D01*
X122626238Y-86192180D01*
X123102428Y-86192180D01*
X123864333Y-86668371D02*
X123531000Y-86668371D01*
X123531000Y-87192180D02*
X123531000Y-86192180D01*
X124007190Y-86192180D01*
X124531000Y-86192180D02*
X124531000Y-86430276D01*
X124292904Y-86335038D02*
X124531000Y-86430276D01*
X124769095Y-86335038D01*
X124388142Y-86620752D02*
X124531000Y-86430276D01*
X124673857Y-86620752D01*
X125292904Y-86192180D02*
X125292904Y-86430276D01*
X125054809Y-86335038D02*
X125292904Y-86430276D01*
X125531000Y-86335038D01*
X125150047Y-86620752D02*
X125292904Y-86430276D01*
X125435761Y-86620752D01*
X115840523Y-96592180D02*
X115840523Y-95592180D01*
X116173857Y-96306466D01*
X116507190Y-95592180D01*
X116507190Y-96592180D01*
X117126238Y-96592180D02*
X117031000Y-96544561D01*
X116983380Y-96496942D01*
X116935761Y-96401704D01*
X116935761Y-96115990D01*
X116983380Y-96020752D01*
X117031000Y-95973133D01*
X117126238Y-95925514D01*
X117269095Y-95925514D01*
X117364333Y-95973133D01*
X117411952Y-96020752D01*
X117459571Y-96115990D01*
X117459571Y-96401704D01*
X117411952Y-96496942D01*
X117364333Y-96544561D01*
X117269095Y-96592180D01*
X117126238Y-96592180D01*
X118316714Y-95925514D02*
X118316714Y-96592180D01*
X117888142Y-95925514D02*
X117888142Y-96449323D01*
X117935761Y-96544561D01*
X118031000Y-96592180D01*
X118173857Y-96592180D01*
X118269095Y-96544561D01*
X118316714Y-96496942D01*
X118792904Y-95925514D02*
X118792904Y-96592180D01*
X118792904Y-96020752D02*
X118840523Y-95973133D01*
X118935761Y-95925514D01*
X119078619Y-95925514D01*
X119173857Y-95973133D01*
X119221476Y-96068371D01*
X119221476Y-96592180D01*
X119554809Y-95925514D02*
X119935761Y-95925514D01*
X119697666Y-95592180D02*
X119697666Y-96449323D01*
X119745285Y-96544561D01*
X119840523Y-96592180D01*
X119935761Y-96592180D01*
X120269095Y-96592180D02*
X120269095Y-95925514D01*
X120269095Y-95592180D02*
X120221476Y-95639800D01*
X120269095Y-95687419D01*
X120316714Y-95639800D01*
X120269095Y-95592180D01*
X120269095Y-95687419D01*
X120745285Y-95925514D02*
X120745285Y-96592180D01*
X120745285Y-96020752D02*
X120792904Y-95973133D01*
X120888142Y-95925514D01*
X121031000Y-95925514D01*
X121126238Y-95973133D01*
X121173857Y-96068371D01*
X121173857Y-96592180D01*
X122078619Y-95925514D02*
X122078619Y-96735038D01*
X122031000Y-96830276D01*
X121983380Y-96877895D01*
X121888142Y-96925514D01*
X121745285Y-96925514D01*
X121650047Y-96877895D01*
X122078619Y-96544561D02*
X121983380Y-96592180D01*
X121792904Y-96592180D01*
X121697666Y-96544561D01*
X121650047Y-96496942D01*
X121602428Y-96401704D01*
X121602428Y-96115990D01*
X121650047Y-96020752D01*
X121697666Y-95973133D01*
X121792904Y-95925514D01*
X121983380Y-95925514D01*
X122078619Y-95973133D01*
X122554809Y-96592180D02*
X122554809Y-95592180D01*
X122554809Y-96068371D02*
X123126238Y-96068371D01*
X123126238Y-96592180D02*
X123126238Y-95592180D01*
X123745285Y-96592180D02*
X123650047Y-96544561D01*
X123602428Y-96496942D01*
X123554809Y-96401704D01*
X123554809Y-96115990D01*
X123602428Y-96020752D01*
X123650047Y-95973133D01*
X123745285Y-95925514D01*
X123888142Y-95925514D01*
X123983380Y-95973133D01*
X124031000Y-96020752D01*
X124078619Y-96115990D01*
X124078619Y-96401704D01*
X124031000Y-96496942D01*
X123983380Y-96544561D01*
X123888142Y-96592180D01*
X123745285Y-96592180D01*
X124650047Y-96592180D02*
X124554809Y-96544561D01*
X124507190Y-96449323D01*
X124507190Y-95592180D01*
X125411952Y-96544561D02*
X125316714Y-96592180D01*
X125126238Y-96592180D01*
X125031000Y-96544561D01*
X124983380Y-96449323D01*
X124983380Y-96068371D01*
X125031000Y-95973133D01*
X125126238Y-95925514D01*
X125316714Y-95925514D01*
X125411952Y-95973133D01*
X125459571Y-96068371D01*
X125459571Y-96163609D01*
X124983380Y-96258847D01*
X125650047Y-96687419D02*
X126411952Y-96687419D01*
X126554809Y-95592180D02*
X127173857Y-95592180D01*
X126840523Y-95973133D01*
X126983380Y-95973133D01*
X127078619Y-96020752D01*
X127126238Y-96068371D01*
X127173857Y-96163609D01*
X127173857Y-96401704D01*
X127126238Y-96496942D01*
X127078619Y-96544561D01*
X126983380Y-96592180D01*
X126697666Y-96592180D01*
X126602428Y-96544561D01*
X126554809Y-96496942D01*
X127602428Y-96496942D02*
X127650047Y-96544561D01*
X127602428Y-96592180D01*
X127554809Y-96544561D01*
X127602428Y-96496942D01*
X127602428Y-96592180D01*
X127983380Y-95592180D02*
X128650047Y-95592180D01*
X128221476Y-96592180D01*
X129030999Y-96592180D02*
X129030999Y-95925514D01*
X129030999Y-96020752D02*
X129078619Y-95973133D01*
X129173857Y-95925514D01*
X129316714Y-95925514D01*
X129411952Y-95973133D01*
X129459571Y-96068371D01*
X129459571Y-96592180D01*
X129459571Y-96068371D02*
X129507190Y-95973133D01*
X129602428Y-95925514D01*
X129745285Y-95925514D01*
X129840523Y-95973133D01*
X129888142Y-96068371D01*
X129888142Y-96592180D01*
X130364333Y-96592180D02*
X130364333Y-95925514D01*
X130364333Y-96020752D02*
X130411952Y-95973133D01*
X130507190Y-95925514D01*
X130650047Y-95925514D01*
X130745285Y-95973133D01*
X130792904Y-96068371D01*
X130792904Y-96592180D01*
X130792904Y-96068371D02*
X130840523Y-95973133D01*
X130935761Y-95925514D01*
X131078619Y-95925514D01*
X131173857Y-95973133D01*
X131221476Y-96068371D01*
X131221476Y-96592180D01*
X122497666Y-91892180D02*
X122164333Y-91415990D01*
X121926238Y-91892180D02*
X121926238Y-90892180D01*
X122307190Y-90892180D01*
X122402428Y-90939800D01*
X122450047Y-90987419D01*
X122497666Y-91082657D01*
X122497666Y-91225514D01*
X122450047Y-91320752D01*
X122402428Y-91368371D01*
X122307190Y-91415990D01*
X121926238Y-91415990D01*
X122926238Y-91368371D02*
X123259571Y-91368371D01*
X123402428Y-91892180D02*
X122926238Y-91892180D01*
X122926238Y-90892180D01*
X123402428Y-90892180D01*
X124164333Y-91368371D02*
X123831000Y-91368371D01*
X123831000Y-91892180D02*
X123831000Y-90892180D01*
X124307190Y-90892180D01*
X124831000Y-90892180D02*
X124831000Y-91130276D01*
X124592904Y-91035038D02*
X124831000Y-91130276D01*
X125069095Y-91035038D01*
X124688142Y-91320752D02*
X124831000Y-91130276D01*
X124973857Y-91320752D01*
X125592904Y-90892180D02*
X125592904Y-91130276D01*
X125354809Y-91035038D02*
X125592904Y-91130276D01*
X125831000Y-91035038D01*
X125450047Y-91320752D02*
X125592904Y-91130276D01*
X125735761Y-91320752D01*
X71397666Y-87192180D02*
X71064333Y-86715990D01*
X70826238Y-87192180D02*
X70826238Y-86192180D01*
X71207190Y-86192180D01*
X71302428Y-86239800D01*
X71350047Y-86287419D01*
X71397666Y-86382657D01*
X71397666Y-86525514D01*
X71350047Y-86620752D01*
X71302428Y-86668371D01*
X71207190Y-86715990D01*
X70826238Y-86715990D01*
X71826238Y-86668371D02*
X72159571Y-86668371D01*
X72302428Y-87192180D02*
X71826238Y-87192180D01*
X71826238Y-86192180D01*
X72302428Y-86192180D01*
X73064333Y-86668371D02*
X72731000Y-86668371D01*
X72731000Y-87192180D02*
X72731000Y-86192180D01*
X73207190Y-86192180D01*
X73731000Y-86192180D02*
X73731000Y-86430276D01*
X73492904Y-86335038D02*
X73731000Y-86430276D01*
X73969095Y-86335038D01*
X73588142Y-86620752D02*
X73731000Y-86430276D01*
X73873857Y-86620752D01*
X74492904Y-86192180D02*
X74492904Y-86430276D01*
X74254809Y-86335038D02*
X74492904Y-86430276D01*
X74731000Y-86335038D01*
X74350047Y-86620752D02*
X74492904Y-86430276D01*
X74635761Y-86620752D01*
X68353380Y-99608276D02*
X67353380Y-99608276D01*
X68067666Y-99274942D01*
X67353380Y-98941609D01*
X68353380Y-98941609D01*
X68353380Y-98322561D02*
X68305761Y-98417800D01*
X68258142Y-98465419D01*
X68162904Y-98513038D01*
X67877190Y-98513038D01*
X67781952Y-98465419D01*
X67734333Y-98417800D01*
X67686714Y-98322561D01*
X67686714Y-98179704D01*
X67734333Y-98084466D01*
X67781952Y-98036847D01*
X67877190Y-97989228D01*
X68162904Y-97989228D01*
X68258142Y-98036847D01*
X68305761Y-98084466D01*
X68353380Y-98179704D01*
X68353380Y-98322561D01*
X67686714Y-97132085D02*
X68353380Y-97132085D01*
X67686714Y-97560657D02*
X68210523Y-97560657D01*
X68305761Y-97513038D01*
X68353380Y-97417800D01*
X68353380Y-97274942D01*
X68305761Y-97179704D01*
X68258142Y-97132085D01*
X67686714Y-96655895D02*
X68353380Y-96655895D01*
X67781952Y-96655895D02*
X67734333Y-96608276D01*
X67686714Y-96513038D01*
X67686714Y-96370180D01*
X67734333Y-96274942D01*
X67829571Y-96227323D01*
X68353380Y-96227323D01*
X67686714Y-95893990D02*
X67686714Y-95513038D01*
X67353380Y-95751133D02*
X68210523Y-95751133D01*
X68305761Y-95703514D01*
X68353380Y-95608276D01*
X68353380Y-95513038D01*
X68353380Y-95179704D02*
X67686714Y-95179704D01*
X67353380Y-95179704D02*
X67401000Y-95227323D01*
X67448619Y-95179704D01*
X67401000Y-95132085D01*
X67353380Y-95179704D01*
X67448619Y-95179704D01*
X67686714Y-94703514D02*
X68353380Y-94703514D01*
X67781952Y-94703514D02*
X67734333Y-94655895D01*
X67686714Y-94560657D01*
X67686714Y-94417800D01*
X67734333Y-94322561D01*
X67829571Y-94274942D01*
X68353380Y-94274942D01*
X67686714Y-93370180D02*
X68496238Y-93370180D01*
X68591476Y-93417800D01*
X68639095Y-93465419D01*
X68686714Y-93560657D01*
X68686714Y-93703514D01*
X68639095Y-93798752D01*
X68305761Y-93370180D02*
X68353380Y-93465419D01*
X68353380Y-93655895D01*
X68305761Y-93751133D01*
X68258142Y-93798752D01*
X68162904Y-93846371D01*
X67877190Y-93846371D01*
X67781952Y-93798752D01*
X67734333Y-93751133D01*
X67686714Y-93655895D01*
X67686714Y-93465419D01*
X67734333Y-93370180D01*
X68353380Y-92893990D02*
X67353380Y-92893990D01*
X67829571Y-92893990D02*
X67829571Y-92322561D01*
X68353380Y-92322561D02*
X67353380Y-92322561D01*
X68353380Y-91703514D02*
X68305761Y-91798752D01*
X68258142Y-91846371D01*
X68162904Y-91893990D01*
X67877190Y-91893990D01*
X67781952Y-91846371D01*
X67734333Y-91798752D01*
X67686714Y-91703514D01*
X67686714Y-91560657D01*
X67734333Y-91465419D01*
X67781952Y-91417800D01*
X67877190Y-91370180D01*
X68162904Y-91370180D01*
X68258142Y-91417800D01*
X68305761Y-91465419D01*
X68353380Y-91560657D01*
X68353380Y-91703514D01*
X68353380Y-90798752D02*
X68305761Y-90893990D01*
X68210523Y-90941609D01*
X67353380Y-90941609D01*
X68305761Y-90036847D02*
X68353380Y-90132085D01*
X68353380Y-90322561D01*
X68305761Y-90417800D01*
X68210523Y-90465419D01*
X67829571Y-90465419D01*
X67734333Y-90417800D01*
X67686714Y-90322561D01*
X67686714Y-90132085D01*
X67734333Y-90036847D01*
X67829571Y-89989228D01*
X67924809Y-89989228D01*
X68020047Y-90465419D01*
X68448619Y-89798752D02*
X68448619Y-89036847D01*
X67353380Y-88893990D02*
X67353380Y-88274942D01*
X67734333Y-88608276D01*
X67734333Y-88465419D01*
X67781952Y-88370180D01*
X67829571Y-88322561D01*
X67924809Y-88274942D01*
X68162904Y-88274942D01*
X68258142Y-88322561D01*
X68305761Y-88370180D01*
X68353380Y-88465419D01*
X68353380Y-88751133D01*
X68305761Y-88846371D01*
X68258142Y-88893990D01*
X68258142Y-87846371D02*
X68305761Y-87798752D01*
X68353380Y-87846371D01*
X68305761Y-87893990D01*
X68258142Y-87846371D01*
X68353380Y-87846371D01*
X67353380Y-87465419D02*
X67353380Y-86798752D01*
X68353380Y-87227323D01*
X68353380Y-86417800D02*
X67686714Y-86417800D01*
X67781952Y-86417800D02*
X67734333Y-86370180D01*
X67686714Y-86274942D01*
X67686714Y-86132085D01*
X67734333Y-86036847D01*
X67829571Y-85989228D01*
X68353380Y-85989228D01*
X67829571Y-85989228D02*
X67734333Y-85941609D01*
X67686714Y-85846371D01*
X67686714Y-85703514D01*
X67734333Y-85608276D01*
X67829571Y-85560657D01*
X68353380Y-85560657D01*
X68353380Y-85084466D02*
X67686714Y-85084466D01*
X67781952Y-85084466D02*
X67734333Y-85036847D01*
X67686714Y-84941609D01*
X67686714Y-84798752D01*
X67734333Y-84703514D01*
X67829571Y-84655895D01*
X68353380Y-84655895D01*
X67829571Y-84655895D02*
X67734333Y-84608276D01*
X67686714Y-84513038D01*
X67686714Y-84370180D01*
X67734333Y-84274942D01*
X67829571Y-84227323D01*
X68353380Y-84227323D01*
X71697666Y-91892180D02*
X71364333Y-91415990D01*
X71126238Y-91892180D02*
X71126238Y-90892180D01*
X71507190Y-90892180D01*
X71602428Y-90939800D01*
X71650047Y-90987419D01*
X71697666Y-91082657D01*
X71697666Y-91225514D01*
X71650047Y-91320752D01*
X71602428Y-91368371D01*
X71507190Y-91415990D01*
X71126238Y-91415990D01*
X72126238Y-91368371D02*
X72459571Y-91368371D01*
X72602428Y-91892180D02*
X72126238Y-91892180D01*
X72126238Y-90892180D01*
X72602428Y-90892180D01*
X73364333Y-91368371D02*
X73031000Y-91368371D01*
X73031000Y-91892180D02*
X73031000Y-90892180D01*
X73507190Y-90892180D01*
X74031000Y-90892180D02*
X74031000Y-91130276D01*
X73792904Y-91035038D02*
X74031000Y-91130276D01*
X74269095Y-91035038D01*
X73888142Y-91320752D02*
X74031000Y-91130276D01*
X74173857Y-91320752D01*
X74792904Y-90892180D02*
X74792904Y-91130276D01*
X74554809Y-91035038D02*
X74792904Y-91130276D01*
X75031000Y-91035038D01*
X74650047Y-91320752D02*
X74792904Y-91130276D01*
X74935761Y-91320752D01*
X87300000Y-134204761D02*
X87442857Y-134252380D01*
X87680952Y-134252380D01*
X87776190Y-134204761D01*
X87823809Y-134157142D01*
X87871428Y-134061904D01*
X87871428Y-133966666D01*
X87823809Y-133871428D01*
X87776190Y-133823809D01*
X87680952Y-133776190D01*
X87490476Y-133728571D01*
X87395238Y-133680952D01*
X87347619Y-133633333D01*
X87300000Y-133538095D01*
X87300000Y-133442857D01*
X87347619Y-133347619D01*
X87395238Y-133300000D01*
X87490476Y-133252380D01*
X87728571Y-133252380D01*
X87871428Y-133300000D01*
X88157142Y-133585714D02*
X88538095Y-133585714D01*
X88300000Y-133252380D02*
X88300000Y-134109523D01*
X88347619Y-134204761D01*
X88442857Y-134252380D01*
X88538095Y-134252380D01*
X88871428Y-134252380D02*
X88871428Y-133585714D01*
X88871428Y-133776190D02*
X88919047Y-133680952D01*
X88966666Y-133633333D01*
X89061904Y-133585714D01*
X89157142Y-133585714D01*
X89490476Y-134252380D02*
X89490476Y-133585714D01*
X89490476Y-133252380D02*
X89442857Y-133300000D01*
X89490476Y-133347619D01*
X89538095Y-133300000D01*
X89490476Y-133252380D01*
X89490476Y-133347619D01*
X89966666Y-133585714D02*
X89966666Y-134252380D01*
X89966666Y-133680952D02*
X90014285Y-133633333D01*
X90109523Y-133585714D01*
X90252380Y-133585714D01*
X90347619Y-133633333D01*
X90395238Y-133728571D01*
X90395238Y-134252380D01*
X91300000Y-133585714D02*
X91300000Y-134395238D01*
X91252380Y-134490476D01*
X91204761Y-134538095D01*
X91109523Y-134585714D01*
X90966666Y-134585714D01*
X90871428Y-134538095D01*
X91300000Y-134204761D02*
X91204761Y-134252380D01*
X91014285Y-134252380D01*
X90919047Y-134204761D01*
X90871428Y-134157142D01*
X90823809Y-134061904D01*
X90823809Y-133776190D01*
X90871428Y-133680952D01*
X90919047Y-133633333D01*
X91014285Y-133585714D01*
X91204761Y-133585714D01*
X91300000Y-133633333D01*
X91728571Y-133347619D02*
X91776190Y-133300000D01*
X91871428Y-133252380D01*
X92109523Y-133252380D01*
X92204761Y-133300000D01*
X92252380Y-133347619D01*
X92300000Y-133442857D01*
X92300000Y-133538095D01*
X92252380Y-133680952D01*
X91680952Y-134252380D01*
X92300000Y-134252380D01*
X89125166Y-126393680D02*
X89125166Y-127107966D01*
X89077547Y-127250823D01*
X88982309Y-127346061D01*
X88839452Y-127393680D01*
X88744214Y-127393680D01*
X89553738Y-126488919D02*
X89601357Y-126441300D01*
X89696595Y-126393680D01*
X89934690Y-126393680D01*
X90029928Y-126441300D01*
X90077547Y-126488919D01*
X90125166Y-126584157D01*
X90125166Y-126679395D01*
X90077547Y-126822252D01*
X89506119Y-127393680D01*
X90125166Y-127393680D01*
X102300000Y-134204761D02*
X102442857Y-134252380D01*
X102680952Y-134252380D01*
X102776190Y-134204761D01*
X102823809Y-134157142D01*
X102871428Y-134061904D01*
X102871428Y-133966666D01*
X102823809Y-133871428D01*
X102776190Y-133823809D01*
X102680952Y-133776190D01*
X102490476Y-133728571D01*
X102395238Y-133680952D01*
X102347619Y-133633333D01*
X102300000Y-133538095D01*
X102300000Y-133442857D01*
X102347619Y-133347619D01*
X102395238Y-133300000D01*
X102490476Y-133252380D01*
X102728571Y-133252380D01*
X102871428Y-133300000D01*
X103157142Y-133585714D02*
X103538095Y-133585714D01*
X103300000Y-133252380D02*
X103300000Y-134109523D01*
X103347619Y-134204761D01*
X103442857Y-134252380D01*
X103538095Y-134252380D01*
X103871428Y-134252380D02*
X103871428Y-133585714D01*
X103871428Y-133776190D02*
X103919047Y-133680952D01*
X103966666Y-133633333D01*
X104061904Y-133585714D01*
X104157142Y-133585714D01*
X104490476Y-134252380D02*
X104490476Y-133585714D01*
X104490476Y-133252380D02*
X104442857Y-133300000D01*
X104490476Y-133347619D01*
X104538095Y-133300000D01*
X104490476Y-133252380D01*
X104490476Y-133347619D01*
X104966666Y-133585714D02*
X104966666Y-134252380D01*
X104966666Y-133680952D02*
X105014285Y-133633333D01*
X105109523Y-133585714D01*
X105252380Y-133585714D01*
X105347619Y-133633333D01*
X105395238Y-133728571D01*
X105395238Y-134252380D01*
X106300000Y-133585714D02*
X106300000Y-134395238D01*
X106252380Y-134490476D01*
X106204761Y-134538095D01*
X106109523Y-134585714D01*
X105966666Y-134585714D01*
X105871428Y-134538095D01*
X106300000Y-134204761D02*
X106204761Y-134252380D01*
X106014285Y-134252380D01*
X105919047Y-134204761D01*
X105871428Y-134157142D01*
X105823809Y-134061904D01*
X105823809Y-133776190D01*
X105871428Y-133680952D01*
X105919047Y-133633333D01*
X106014285Y-133585714D01*
X106204761Y-133585714D01*
X106300000Y-133633333D01*
X107204761Y-133585714D02*
X107204761Y-134252380D01*
X106966666Y-133204761D02*
X106728571Y-133919047D01*
X107347619Y-133919047D01*
X104466666Y-125502380D02*
X104466666Y-126216666D01*
X104419047Y-126359523D01*
X104323809Y-126454761D01*
X104180952Y-126502380D01*
X104085714Y-126502380D01*
X105371428Y-125835714D02*
X105371428Y-126502380D01*
X105133333Y-125454761D02*
X104895238Y-126169047D01*
X105514285Y-126169047D01*
X102300000Y-121204761D02*
X102442857Y-121252380D01*
X102680952Y-121252380D01*
X102776190Y-121204761D01*
X102823809Y-121157142D01*
X102871428Y-121061904D01*
X102871428Y-120966666D01*
X102823809Y-120871428D01*
X102776190Y-120823809D01*
X102680952Y-120776190D01*
X102490476Y-120728571D01*
X102395238Y-120680952D01*
X102347619Y-120633333D01*
X102300000Y-120538095D01*
X102300000Y-120442857D01*
X102347619Y-120347619D01*
X102395238Y-120300000D01*
X102490476Y-120252380D01*
X102728571Y-120252380D01*
X102871428Y-120300000D01*
X103157142Y-120585714D02*
X103538095Y-120585714D01*
X103300000Y-120252380D02*
X103300000Y-121109523D01*
X103347619Y-121204761D01*
X103442857Y-121252380D01*
X103538095Y-121252380D01*
X103871428Y-121252380D02*
X103871428Y-120585714D01*
X103871428Y-120776190D02*
X103919047Y-120680952D01*
X103966666Y-120633333D01*
X104061904Y-120585714D01*
X104157142Y-120585714D01*
X104490476Y-121252380D02*
X104490476Y-120585714D01*
X104490476Y-120252380D02*
X104442857Y-120300000D01*
X104490476Y-120347619D01*
X104538095Y-120300000D01*
X104490476Y-120252380D01*
X104490476Y-120347619D01*
X104966666Y-120585714D02*
X104966666Y-121252380D01*
X104966666Y-120680952D02*
X105014285Y-120633333D01*
X105109523Y-120585714D01*
X105252380Y-120585714D01*
X105347619Y-120633333D01*
X105395238Y-120728571D01*
X105395238Y-121252380D01*
X106300000Y-120585714D02*
X106300000Y-121395238D01*
X106252380Y-121490476D01*
X106204761Y-121538095D01*
X106109523Y-121585714D01*
X105966666Y-121585714D01*
X105871428Y-121538095D01*
X106300000Y-121204761D02*
X106204761Y-121252380D01*
X106014285Y-121252380D01*
X105919047Y-121204761D01*
X105871428Y-121157142D01*
X105823809Y-121061904D01*
X105823809Y-120776190D01*
X105871428Y-120680952D01*
X105919047Y-120633333D01*
X106014285Y-120585714D01*
X106204761Y-120585714D01*
X106300000Y-120633333D01*
X106680952Y-120252380D02*
X107300000Y-120252380D01*
X106966666Y-120633333D01*
X107109523Y-120633333D01*
X107204761Y-120680952D01*
X107252380Y-120728571D01*
X107300000Y-120823809D01*
X107300000Y-121061904D01*
X107252380Y-121157142D01*
X107204761Y-121204761D01*
X107109523Y-121252380D01*
X106823809Y-121252380D01*
X106728571Y-121204761D01*
X106680952Y-121157142D01*
X106186666Y-112502380D02*
X106186666Y-113216666D01*
X106139047Y-113359523D01*
X106043809Y-113454761D01*
X105900952Y-113502380D01*
X105805714Y-113502380D01*
X106567619Y-112502380D02*
X107186666Y-112502380D01*
X106853333Y-112883333D01*
X106996190Y-112883333D01*
X107091428Y-112930952D01*
X107139047Y-112978571D01*
X107186666Y-113073809D01*
X107186666Y-113311904D01*
X107139047Y-113407142D01*
X107091428Y-113454761D01*
X106996190Y-113502380D01*
X106710476Y-113502380D01*
X106615238Y-113454761D01*
X106567619Y-113407142D01*
X87300000Y-121204761D02*
X87442857Y-121252380D01*
X87680952Y-121252380D01*
X87776190Y-121204761D01*
X87823809Y-121157142D01*
X87871428Y-121061904D01*
X87871428Y-120966666D01*
X87823809Y-120871428D01*
X87776190Y-120823809D01*
X87680952Y-120776190D01*
X87490476Y-120728571D01*
X87395238Y-120680952D01*
X87347619Y-120633333D01*
X87300000Y-120538095D01*
X87300000Y-120442857D01*
X87347619Y-120347619D01*
X87395238Y-120300000D01*
X87490476Y-120252380D01*
X87728571Y-120252380D01*
X87871428Y-120300000D01*
X88157142Y-120585714D02*
X88538095Y-120585714D01*
X88300000Y-120252380D02*
X88300000Y-121109523D01*
X88347619Y-121204761D01*
X88442857Y-121252380D01*
X88538095Y-121252380D01*
X88871428Y-121252380D02*
X88871428Y-120585714D01*
X88871428Y-120776190D02*
X88919047Y-120680952D01*
X88966666Y-120633333D01*
X89061904Y-120585714D01*
X89157142Y-120585714D01*
X89490476Y-121252380D02*
X89490476Y-120585714D01*
X89490476Y-120252380D02*
X89442857Y-120300000D01*
X89490476Y-120347619D01*
X89538095Y-120300000D01*
X89490476Y-120252380D01*
X89490476Y-120347619D01*
X89966666Y-120585714D02*
X89966666Y-121252380D01*
X89966666Y-120680952D02*
X90014285Y-120633333D01*
X90109523Y-120585714D01*
X90252380Y-120585714D01*
X90347619Y-120633333D01*
X90395238Y-120728571D01*
X90395238Y-121252380D01*
X91300000Y-120585714D02*
X91300000Y-121395238D01*
X91252380Y-121490476D01*
X91204761Y-121538095D01*
X91109523Y-121585714D01*
X90966666Y-121585714D01*
X90871428Y-121538095D01*
X91300000Y-121204761D02*
X91204761Y-121252380D01*
X91014285Y-121252380D01*
X90919047Y-121204761D01*
X90871428Y-121157142D01*
X90823809Y-121061904D01*
X90823809Y-120776190D01*
X90871428Y-120680952D01*
X90919047Y-120633333D01*
X91014285Y-120585714D01*
X91204761Y-120585714D01*
X91300000Y-120633333D01*
X92300000Y-121252380D02*
X91728571Y-121252380D01*
X92014285Y-121252380D02*
X92014285Y-120252380D01*
X91919047Y-120395238D01*
X91823809Y-120490476D01*
X91728571Y-120538095D01*
X89466666Y-112502380D02*
X89466666Y-113216666D01*
X89419047Y-113359523D01*
X89323809Y-113454761D01*
X89180952Y-113502380D01*
X89085714Y-113502380D01*
X90466666Y-113502380D02*
X89895238Y-113502380D01*
X90180952Y-113502380D02*
X90180952Y-112502380D01*
X90085714Y-112645238D01*
X89990476Y-112740476D01*
X89895238Y-112788095D01*
D12*
X121046180Y-131259019D02*
X120046180Y-131259019D01*
X120046180Y-130878066D01*
X120093800Y-130782828D01*
X120141419Y-130735209D01*
X120236657Y-130687590D01*
X120379514Y-130687590D01*
X120474752Y-130735209D01*
X120522371Y-130782828D01*
X120569990Y-130878066D01*
X120569990Y-131259019D01*
X121046180Y-130116161D02*
X120998561Y-130211400D01*
X120950942Y-130259019D01*
X120855704Y-130306638D01*
X120569990Y-130306638D01*
X120474752Y-130259019D01*
X120427133Y-130211400D01*
X120379514Y-130116161D01*
X120379514Y-129973304D01*
X120427133Y-129878066D01*
X120474752Y-129830447D01*
X120569990Y-129782828D01*
X120855704Y-129782828D01*
X120950942Y-129830447D01*
X120998561Y-129878066D01*
X121046180Y-129973304D01*
X121046180Y-130116161D01*
X120379514Y-129449495D02*
X121046180Y-129259019D01*
X120569990Y-129068542D01*
X121046180Y-128878066D01*
X120379514Y-128687590D01*
X120998561Y-127925685D02*
X121046180Y-128020923D01*
X121046180Y-128211400D01*
X120998561Y-128306638D01*
X120903323Y-128354257D01*
X120522371Y-128354257D01*
X120427133Y-128306638D01*
X120379514Y-128211400D01*
X120379514Y-128020923D01*
X120427133Y-127925685D01*
X120522371Y-127878066D01*
X120617609Y-127878066D01*
X120712847Y-128354257D01*
X121046180Y-127449495D02*
X120379514Y-127449495D01*
X120569990Y-127449495D02*
X120474752Y-127401876D01*
X120427133Y-127354257D01*
X120379514Y-127259019D01*
X120379514Y-127163780D01*
X121046180Y-126068542D02*
X120046180Y-126068542D01*
X120379514Y-125592352D02*
X121046180Y-125592352D01*
X120474752Y-125592352D02*
X120427133Y-125544733D01*
X120379514Y-125449495D01*
X120379514Y-125306638D01*
X120427133Y-125211400D01*
X120522371Y-125163780D01*
X121046180Y-125163780D01*
D13*
X97099380Y-147191942D02*
X97099380Y-146572895D01*
X97480333Y-146906228D01*
X97480333Y-146763371D01*
X97527952Y-146668133D01*
X97575571Y-146620514D01*
X97670809Y-146572895D01*
X97908904Y-146572895D01*
X98004142Y-146620514D01*
X98051761Y-146668133D01*
X98099380Y-146763371D01*
X98099380Y-147049085D01*
X98051761Y-147144323D01*
X98004142Y-147191942D01*
X97099380Y-145668133D02*
X97099380Y-146144323D01*
X97575571Y-146191942D01*
X97527952Y-146144323D01*
X97480333Y-146049085D01*
X97480333Y-145810990D01*
X97527952Y-145715752D01*
X97575571Y-145668133D01*
X97670809Y-145620514D01*
X97908904Y-145620514D01*
X98004142Y-145668133D01*
X98051761Y-145715752D01*
X98099380Y-145810990D01*
X98099380Y-146049085D01*
X98051761Y-146144323D01*
X98004142Y-146191942D01*
X97432714Y-144763371D02*
X98099380Y-144763371D01*
X97051761Y-145001466D02*
X97766047Y-145239561D01*
X97766047Y-144620514D01*
X97432714Y-143810990D02*
X98099380Y-143810990D01*
X97051761Y-144049085D02*
X97766047Y-144287180D01*
X97766047Y-143668133D01*
X97718428Y-143287180D02*
X97718428Y-142525276D01*
X97194619Y-142096704D02*
X97147000Y-142049085D01*
X97099380Y-141953847D01*
X97099380Y-141715752D01*
X97147000Y-141620514D01*
X97194619Y-141572895D01*
X97289857Y-141525276D01*
X97385095Y-141525276D01*
X97527952Y-141572895D01*
X98099380Y-142144323D01*
X98099380Y-141525276D01*
X108075380Y-147203842D02*
X108075380Y-146584795D01*
X108456333Y-146918128D01*
X108456333Y-146775271D01*
X108503952Y-146680033D01*
X108551571Y-146632414D01*
X108646809Y-146584795D01*
X108884904Y-146584795D01*
X108980142Y-146632414D01*
X109027761Y-146680033D01*
X109075380Y-146775271D01*
X109075380Y-147060985D01*
X109027761Y-147156223D01*
X108980142Y-147203842D01*
X108075380Y-145680033D02*
X108075380Y-146156223D01*
X108551571Y-146203842D01*
X108503952Y-146156223D01*
X108456333Y-146060985D01*
X108456333Y-145822890D01*
X108503952Y-145727652D01*
X108551571Y-145680033D01*
X108646809Y-145632414D01*
X108884904Y-145632414D01*
X108980142Y-145680033D01*
X109027761Y-145727652D01*
X109075380Y-145822890D01*
X109075380Y-146060985D01*
X109027761Y-146156223D01*
X108980142Y-146203842D01*
X108408714Y-144775271D02*
X109075380Y-144775271D01*
X108027761Y-145013366D02*
X108742047Y-145251461D01*
X108742047Y-144632414D01*
X108408714Y-143822890D02*
X109075380Y-143822890D01*
X108027761Y-144060985D02*
X108742047Y-144299080D01*
X108742047Y-143680033D01*
X108694428Y-143299080D02*
X108694428Y-142537176D01*
X108170619Y-142108604D02*
X108123000Y-142060985D01*
X108075380Y-141965747D01*
X108075380Y-141727652D01*
X108123000Y-141632414D01*
X108170619Y-141584795D01*
X108265857Y-141537176D01*
X108361095Y-141537176D01*
X108503952Y-141584795D01*
X109075380Y-142156223D01*
X109075380Y-141537176D01*
X91401280Y-147038842D02*
X91401280Y-146419795D01*
X91782233Y-146753128D01*
X91782233Y-146610271D01*
X91829852Y-146515033D01*
X91877471Y-146467414D01*
X91972709Y-146419795D01*
X92210804Y-146419795D01*
X92306042Y-146467414D01*
X92353661Y-146515033D01*
X92401280Y-146610271D01*
X92401280Y-146895985D01*
X92353661Y-146991223D01*
X92306042Y-147038842D01*
X91401280Y-145515033D02*
X91401280Y-145991223D01*
X91877471Y-146038842D01*
X91829852Y-145991223D01*
X91782233Y-145895985D01*
X91782233Y-145657890D01*
X91829852Y-145562652D01*
X91877471Y-145515033D01*
X91972709Y-145467414D01*
X92210804Y-145467414D01*
X92306042Y-145515033D01*
X92353661Y-145562652D01*
X92401280Y-145657890D01*
X92401280Y-145895985D01*
X92353661Y-145991223D01*
X92306042Y-146038842D01*
X91734614Y-144610271D02*
X92401280Y-144610271D01*
X91353661Y-144848366D02*
X92067947Y-145086461D01*
X92067947Y-144467414D01*
X91734614Y-143657890D02*
X92401280Y-143657890D01*
X91353661Y-143895985D02*
X92067947Y-144134080D01*
X92067947Y-143515033D01*
X92020328Y-143134080D02*
X92020328Y-142372176D01*
X91496519Y-141943604D02*
X91448900Y-141895985D01*
X91401280Y-141800747D01*
X91401280Y-141562652D01*
X91448900Y-141467414D01*
X91496519Y-141419795D01*
X91591757Y-141372176D01*
X91686995Y-141372176D01*
X91829852Y-141419795D01*
X92401280Y-141991223D01*
X92401280Y-141372176D01*
X102487380Y-147141142D02*
X102487380Y-146522095D01*
X102868333Y-146855428D01*
X102868333Y-146712571D01*
X102915952Y-146617333D01*
X102963571Y-146569714D01*
X103058809Y-146522095D01*
X103296904Y-146522095D01*
X103392142Y-146569714D01*
X103439761Y-146617333D01*
X103487380Y-146712571D01*
X103487380Y-146998285D01*
X103439761Y-147093523D01*
X103392142Y-147141142D01*
X102487380Y-145617333D02*
X102487380Y-146093523D01*
X102963571Y-146141142D01*
X102915952Y-146093523D01*
X102868333Y-145998285D01*
X102868333Y-145760190D01*
X102915952Y-145664952D01*
X102963571Y-145617333D01*
X103058809Y-145569714D01*
X103296904Y-145569714D01*
X103392142Y-145617333D01*
X103439761Y-145664952D01*
X103487380Y-145760190D01*
X103487380Y-145998285D01*
X103439761Y-146093523D01*
X103392142Y-146141142D01*
X102820714Y-144712571D02*
X103487380Y-144712571D01*
X102439761Y-144950666D02*
X103154047Y-145188761D01*
X103154047Y-144569714D01*
X102820714Y-143760190D02*
X103487380Y-143760190D01*
X102439761Y-143998285D02*
X103154047Y-144236380D01*
X103154047Y-143617333D01*
X103106428Y-143236380D02*
X103106428Y-142474476D01*
X102582619Y-142045904D02*
X102535000Y-141998285D01*
X102487380Y-141903047D01*
X102487380Y-141664952D01*
X102535000Y-141569714D01*
X102582619Y-141522095D01*
X102677857Y-141474476D01*
X102773095Y-141474476D01*
X102915952Y-141522095D01*
X103487380Y-142093523D01*
X103487380Y-141474476D01*
D11*
X73829571Y-125370180D02*
X73258142Y-125370180D01*
X73543857Y-125370180D02*
X73543857Y-124370180D01*
X73448619Y-124513038D01*
X73353380Y-124608276D01*
X73258142Y-124655895D01*
X74448619Y-124370180D02*
X74543857Y-124370180D01*
X74639095Y-124417800D01*
X74686714Y-124465419D01*
X74734333Y-124560657D01*
X74781952Y-124751133D01*
X74781952Y-124989228D01*
X74734333Y-125179704D01*
X74686714Y-125274942D01*
X74639095Y-125322561D01*
X74543857Y-125370180D01*
X74448619Y-125370180D01*
X74353380Y-125322561D01*
X74305761Y-125274942D01*
X74258142Y-125179704D01*
X74210523Y-124989228D01*
X74210523Y-124751133D01*
X74258142Y-124560657D01*
X74305761Y-124465419D01*
X74353380Y-124417800D01*
X74448619Y-124370180D01*
X75639095Y-124703514D02*
X75639095Y-125370180D01*
X75210523Y-124703514D02*
X75210523Y-125227323D01*
X75258142Y-125322561D01*
X75353380Y-125370180D01*
X75496238Y-125370180D01*
X75591476Y-125322561D01*
X75639095Y-125274942D01*
X76448619Y-124846371D02*
X76115285Y-124846371D01*
X76115285Y-125370180D02*
X76115285Y-124370180D01*
X76591476Y-124370180D01*
D14*
X74617666Y-121996371D02*
X74593857Y-122020180D01*
X74522428Y-122043990D01*
X74474809Y-122043990D01*
X74403380Y-122020180D01*
X74355761Y-121972561D01*
X74331952Y-121924942D01*
X74308142Y-121829704D01*
X74308142Y-121758276D01*
X74331952Y-121663038D01*
X74355761Y-121615419D01*
X74403380Y-121567800D01*
X74474809Y-121543990D01*
X74522428Y-121543990D01*
X74593857Y-121567800D01*
X74617666Y-121591609D01*
X75093857Y-122043990D02*
X74808142Y-122043990D01*
X74951000Y-122043990D02*
X74951000Y-121543990D01*
X74903380Y-121615419D01*
X74855761Y-121663038D01*
X74808142Y-121686847D01*
D11*
X72183380Y-135047895D02*
X73183380Y-134714561D01*
X72183380Y-134381228D01*
X73183380Y-134047895D02*
X72183380Y-134047895D01*
X73183380Y-133571704D02*
X72183380Y-133571704D01*
X73183380Y-133000276D01*
X72183380Y-133000276D01*
X73278619Y-132762180D02*
X73278619Y-132000276D01*
X72183380Y-131905038D02*
X73183380Y-131571704D01*
X72183380Y-131238371D01*
X73183380Y-130762180D02*
X73135761Y-130857419D01*
X73088142Y-130905038D01*
X72992904Y-130952657D01*
X72707190Y-130952657D01*
X72611952Y-130905038D01*
X72564333Y-130857419D01*
X72516714Y-130762180D01*
X72516714Y-130619323D01*
X72564333Y-130524085D01*
X72611952Y-130476466D01*
X72707190Y-130428847D01*
X72992904Y-130428847D01*
X73088142Y-130476466D01*
X73135761Y-130524085D01*
X73183380Y-130619323D01*
X73183380Y-130762180D01*
X73183380Y-129857419D02*
X73135761Y-129952657D01*
X73040523Y-130000276D01*
X72183380Y-130000276D01*
X72516714Y-129619323D02*
X72516714Y-129238371D01*
X72183380Y-129476466D02*
X73040523Y-129476466D01*
X73135761Y-129428847D01*
X73183380Y-129333609D01*
X73183380Y-129238371D01*
X73183380Y-128476466D02*
X72659571Y-128476466D01*
X72564333Y-128524085D01*
X72516714Y-128619323D01*
X72516714Y-128809800D01*
X72564333Y-128905038D01*
X73135761Y-128476466D02*
X73183380Y-128571704D01*
X73183380Y-128809800D01*
X73135761Y-128905038D01*
X73040523Y-128952657D01*
X72945285Y-128952657D01*
X72850047Y-128905038D01*
X72802428Y-128809800D01*
X72802428Y-128571704D01*
X72754809Y-128476466D01*
X72516714Y-127571704D02*
X73326238Y-127571704D01*
X73421476Y-127619323D01*
X73469095Y-127666942D01*
X73516714Y-127762180D01*
X73516714Y-127905038D01*
X73469095Y-128000276D01*
X73135761Y-127571704D02*
X73183380Y-127666942D01*
X73183380Y-127857419D01*
X73135761Y-127952657D01*
X73088142Y-128000276D01*
X72992904Y-128047895D01*
X72707190Y-128047895D01*
X72611952Y-128000276D01*
X72564333Y-127952657D01*
X72516714Y-127857419D01*
X72516714Y-127666942D01*
X72564333Y-127571704D01*
X73135761Y-126714561D02*
X73183380Y-126809800D01*
X73183380Y-127000276D01*
X73135761Y-127095514D01*
X73040523Y-127143133D01*
X72659571Y-127143133D01*
X72564333Y-127095514D01*
X72516714Y-127000276D01*
X72516714Y-126809800D01*
X72564333Y-126714561D01*
X72659571Y-126666942D01*
X72754809Y-126666942D01*
X72850047Y-127143133D01*
X74603380Y-131161133D02*
X75317666Y-131161133D01*
X75460523Y-131208752D01*
X75555761Y-131303990D01*
X75603380Y-131446847D01*
X75603380Y-131542085D01*
X74603380Y-130256371D02*
X74603380Y-130446847D01*
X74651000Y-130542085D01*
X74698619Y-130589704D01*
X74841476Y-130684942D01*
X75031952Y-130732561D01*
X75412904Y-130732561D01*
X75508142Y-130684942D01*
X75555761Y-130637323D01*
X75603380Y-130542085D01*
X75603380Y-130351609D01*
X75555761Y-130256371D01*
X75508142Y-130208752D01*
X75412904Y-130161133D01*
X75174809Y-130161133D01*
X75079571Y-130208752D01*
X75031952Y-130256371D01*
X74984333Y-130351609D01*
X74984333Y-130542085D01*
X75031952Y-130637323D01*
X75079571Y-130684942D01*
X75174809Y-130732561D01*
X74879571Y-114044180D02*
X74308142Y-114044180D01*
X74593857Y-114044180D02*
X74593857Y-113044180D01*
X74498619Y-113187038D01*
X74403380Y-113282276D01*
X74308142Y-113329895D01*
X75498619Y-113044180D02*
X75593857Y-113044180D01*
X75689095Y-113091800D01*
X75736714Y-113139419D01*
X75784333Y-113234657D01*
X75831952Y-113425133D01*
X75831952Y-113663228D01*
X75784333Y-113853704D01*
X75736714Y-113948942D01*
X75689095Y-113996561D01*
X75593857Y-114044180D01*
X75498619Y-114044180D01*
X75403380Y-113996561D01*
X75355761Y-113948942D01*
X75308142Y-113853704D01*
X75260523Y-113663228D01*
X75260523Y-113425133D01*
X75308142Y-113234657D01*
X75355761Y-113139419D01*
X75403380Y-113091800D01*
X75498619Y-113044180D01*
X76689095Y-113377514D02*
X76689095Y-114044180D01*
X76260523Y-113377514D02*
X76260523Y-113901323D01*
X76308142Y-113996561D01*
X76403380Y-114044180D01*
X76546238Y-114044180D01*
X76641476Y-113996561D01*
X76689095Y-113948942D01*
X77498619Y-113520371D02*
X77165285Y-113520371D01*
X77165285Y-114044180D02*
X77165285Y-113044180D01*
X77641476Y-113044180D01*
D14*
X75867666Y-112246371D02*
X75843857Y-112270180D01*
X75772428Y-112293990D01*
X75724809Y-112293990D01*
X75653380Y-112270180D01*
X75605761Y-112222561D01*
X75581952Y-112174942D01*
X75558142Y-112079704D01*
X75558142Y-112008276D01*
X75581952Y-111913038D01*
X75605761Y-111865419D01*
X75653380Y-111817800D01*
X75724809Y-111793990D01*
X75772428Y-111793990D01*
X75843857Y-111817800D01*
X75867666Y-111841609D01*
X76058142Y-111841609D02*
X76081952Y-111817800D01*
X76129571Y-111793990D01*
X76248619Y-111793990D01*
X76296238Y-111817800D01*
X76320047Y-111841609D01*
X76343857Y-111889228D01*
X76343857Y-111936847D01*
X76320047Y-112008276D01*
X76034333Y-112293990D01*
X76343857Y-112293990D01*
D15*
X116851333Y-115750752D02*
X116718000Y-115560276D01*
X116622761Y-115750752D02*
X116622761Y-115350752D01*
X116775142Y-115350752D01*
X116813238Y-115369800D01*
X116832285Y-115388847D01*
X116851333Y-115426942D01*
X116851333Y-115484085D01*
X116832285Y-115522180D01*
X116813238Y-115541228D01*
X116775142Y-115560276D01*
X116622761Y-115560276D01*
X117232285Y-115750752D02*
X117003714Y-115750752D01*
X117118000Y-115750752D02*
X117118000Y-115350752D01*
X117079904Y-115407895D01*
X117041809Y-115445990D01*
X117003714Y-115465038D01*
X120905761Y-111093753D02*
X120905761Y-110693753D01*
X121001000Y-110693753D01*
X121058142Y-110712801D01*
X121096238Y-110750896D01*
X121115285Y-110788991D01*
X121134333Y-110865181D01*
X121134333Y-110922324D01*
X121115285Y-110998515D01*
X121096238Y-111036610D01*
X121058142Y-111074705D01*
X121001000Y-111093753D01*
X120905761Y-111093753D01*
X121267666Y-110693753D02*
X121515285Y-110693753D01*
X121381952Y-110846134D01*
X121439095Y-110846134D01*
X121477190Y-110865181D01*
X121496238Y-110884229D01*
X121515285Y-110922324D01*
X121515285Y-111017562D01*
X121496238Y-111055658D01*
X121477190Y-111074705D01*
X121439095Y-111093753D01*
X121324809Y-111093753D01*
X121286714Y-111074705D01*
X121267666Y-111055658D01*
X116851333Y-111093753D02*
X116718000Y-110903277D01*
X116622761Y-111093753D02*
X116622761Y-110693753D01*
X116775142Y-110693753D01*
X116813238Y-110712801D01*
X116832285Y-110731848D01*
X116851333Y-110769943D01*
X116851333Y-110827086D01*
X116832285Y-110865181D01*
X116813238Y-110884229D01*
X116775142Y-110903277D01*
X116622761Y-110903277D01*
X117003714Y-110731848D02*
X117022761Y-110712801D01*
X117060857Y-110693753D01*
X117156095Y-110693753D01*
X117194190Y-110712801D01*
X117213238Y-110731848D01*
X117232285Y-110769943D01*
X117232285Y-110808039D01*
X117213238Y-110865181D01*
X116984666Y-111093753D01*
X117232285Y-111093753D01*
X120905761Y-115705752D02*
X120905761Y-115305752D01*
X121001000Y-115305752D01*
X121058142Y-115324800D01*
X121096238Y-115362895D01*
X121115285Y-115400990D01*
X121134333Y-115477180D01*
X121134333Y-115534323D01*
X121115285Y-115610514D01*
X121096238Y-115648609D01*
X121058142Y-115686704D01*
X121001000Y-115705752D01*
X120905761Y-115705752D01*
X121286714Y-115343847D02*
X121305761Y-115324800D01*
X121343857Y-115305752D01*
X121439095Y-115305752D01*
X121477190Y-115324800D01*
X121496238Y-115343847D01*
X121515285Y-115381942D01*
X121515285Y-115420038D01*
X121496238Y-115477180D01*
X121267666Y-115705752D01*
X121515285Y-115705752D01*
D11*
X84717666Y-87438180D02*
X84717666Y-88152466D01*
X84670047Y-88295323D01*
X84574809Y-88390561D01*
X84431952Y-88438180D01*
X84336714Y-88438180D01*
X85098619Y-87438180D02*
X85765285Y-87438180D01*
X85336714Y-88438180D01*
X81707333Y-99670180D02*
X81135904Y-99670180D01*
X81421619Y-99670180D02*
X81421619Y-98670180D01*
X81326380Y-98813038D01*
X81231142Y-98908276D01*
X81135904Y-98955895D01*
X82088285Y-98765419D02*
X82135904Y-98717800D01*
X82231142Y-98670180D01*
X82469238Y-98670180D01*
X82564476Y-98717800D01*
X82612095Y-98765419D01*
X82659714Y-98860657D01*
X82659714Y-98955895D01*
X82612095Y-99098752D01*
X82040666Y-99670180D01*
X82659714Y-99670180D01*
X83278761Y-98670180D02*
X83374000Y-98670180D01*
X83469238Y-98717800D01*
X83516857Y-98765419D01*
X83564476Y-98860657D01*
X83612095Y-99051133D01*
X83612095Y-99289228D01*
X83564476Y-99479704D01*
X83516857Y-99574942D01*
X83469238Y-99622561D01*
X83374000Y-99670180D01*
X83278761Y-99670180D01*
X83183523Y-99622561D01*
X83135904Y-99574942D01*
X83088285Y-99479704D01*
X83040666Y-99289228D01*
X83040666Y-99051133D01*
X83088285Y-98860657D01*
X83135904Y-98765419D01*
X83183523Y-98717800D01*
X83278761Y-98670180D01*
D15*
X82307333Y-97970752D02*
X82174000Y-97780276D01*
X82078761Y-97970752D02*
X82078761Y-97570752D01*
X82231142Y-97570752D01*
X82269238Y-97589800D01*
X82288285Y-97608847D01*
X82307333Y-97646942D01*
X82307333Y-97704085D01*
X82288285Y-97742180D01*
X82269238Y-97761228D01*
X82231142Y-97780276D01*
X82078761Y-97780276D01*
X82440666Y-97570752D02*
X82688285Y-97570752D01*
X82554952Y-97723133D01*
X82612095Y-97723133D01*
X82650190Y-97742180D01*
X82669238Y-97761228D01*
X82688285Y-97799323D01*
X82688285Y-97894561D01*
X82669238Y-97932657D01*
X82650190Y-97951704D01*
X82612095Y-97970752D01*
X82497809Y-97970752D01*
X82459714Y-97951704D01*
X82440666Y-97932657D01*
D11*
X89534333Y-99570180D02*
X88962904Y-99570180D01*
X89248619Y-99570180D02*
X89248619Y-98570180D01*
X89153380Y-98713038D01*
X89058142Y-98808276D01*
X88962904Y-98855895D01*
X89915285Y-98665419D02*
X89962904Y-98617800D01*
X90058142Y-98570180D01*
X90296238Y-98570180D01*
X90391476Y-98617800D01*
X90439095Y-98665419D01*
X90486714Y-98760657D01*
X90486714Y-98855895D01*
X90439095Y-98998752D01*
X89867666Y-99570180D01*
X90486714Y-99570180D01*
X91105761Y-98570180D02*
X91201000Y-98570180D01*
X91296238Y-98617800D01*
X91343857Y-98665419D01*
X91391476Y-98760657D01*
X91439095Y-98951133D01*
X91439095Y-99189228D01*
X91391476Y-99379704D01*
X91343857Y-99474942D01*
X91296238Y-99522561D01*
X91201000Y-99570180D01*
X91105761Y-99570180D01*
X91010523Y-99522561D01*
X90962904Y-99474942D01*
X90915285Y-99379704D01*
X90867666Y-99189228D01*
X90867666Y-98951133D01*
X90915285Y-98760657D01*
X90962904Y-98665419D01*
X91010523Y-98617800D01*
X91105761Y-98570180D01*
D15*
X90395333Y-98148752D02*
X90262000Y-97958276D01*
X90166761Y-98148752D02*
X90166761Y-97748752D01*
X90319142Y-97748752D01*
X90357238Y-97767800D01*
X90376285Y-97786847D01*
X90395333Y-97824942D01*
X90395333Y-97882085D01*
X90376285Y-97920180D01*
X90357238Y-97939228D01*
X90319142Y-97958276D01*
X90166761Y-97958276D01*
X90738190Y-97882085D02*
X90738190Y-98148752D01*
X90642952Y-97729704D02*
X90547714Y-98015419D01*
X90795333Y-98015419D01*
D11*
X86134333Y-99672180D02*
X85562904Y-99672180D01*
X85848619Y-99672180D02*
X85848619Y-98672180D01*
X85753380Y-98815038D01*
X85658142Y-98910276D01*
X85562904Y-98957895D01*
X86515285Y-98767419D02*
X86562904Y-98719800D01*
X86658142Y-98672180D01*
X86896238Y-98672180D01*
X86991476Y-98719800D01*
X87039095Y-98767419D01*
X87086714Y-98862657D01*
X87086714Y-98957895D01*
X87039095Y-99100752D01*
X86467666Y-99672180D01*
X87086714Y-99672180D01*
X87705761Y-98672180D02*
X87801000Y-98672180D01*
X87896238Y-98719800D01*
X87943857Y-98767419D01*
X87991476Y-98862657D01*
X88039095Y-99053133D01*
X88039095Y-99291228D01*
X87991476Y-99481704D01*
X87943857Y-99576942D01*
X87896238Y-99624561D01*
X87801000Y-99672180D01*
X87705761Y-99672180D01*
X87610523Y-99624561D01*
X87562904Y-99576942D01*
X87515285Y-99481704D01*
X87467666Y-99291228D01*
X87467666Y-99053133D01*
X87515285Y-98862657D01*
X87562904Y-98767419D01*
X87610523Y-98719800D01*
X87705761Y-98672180D01*
D15*
X86734333Y-97970752D02*
X86601000Y-97780276D01*
X86505761Y-97970752D02*
X86505761Y-97570752D01*
X86658142Y-97570752D01*
X86696238Y-97589800D01*
X86715285Y-97608847D01*
X86734333Y-97646942D01*
X86734333Y-97704085D01*
X86715285Y-97742180D01*
X86696238Y-97761228D01*
X86658142Y-97780276D01*
X86505761Y-97780276D01*
X87096238Y-97570752D02*
X86905761Y-97570752D01*
X86886714Y-97761228D01*
X86905761Y-97742180D01*
X86943857Y-97723133D01*
X87039095Y-97723133D01*
X87077190Y-97742180D01*
X87096238Y-97761228D01*
X87115285Y-97799323D01*
X87115285Y-97894561D01*
X87096238Y-97932657D01*
X87077190Y-97951704D01*
X87039095Y-97970752D01*
X86943857Y-97970752D01*
X86905761Y-97951704D01*
X86886714Y-97932657D01*
D11*
X77135333Y-99672180D02*
X76563904Y-99672180D01*
X76849619Y-99672180D02*
X76849619Y-98672180D01*
X76754380Y-98815038D01*
X76659142Y-98910276D01*
X76563904Y-98957895D01*
X77516285Y-98767419D02*
X77563904Y-98719800D01*
X77659142Y-98672180D01*
X77897238Y-98672180D01*
X77992476Y-98719800D01*
X78040095Y-98767419D01*
X78087714Y-98862657D01*
X78087714Y-98957895D01*
X78040095Y-99100752D01*
X77468666Y-99672180D01*
X78087714Y-99672180D01*
X78706761Y-98672180D02*
X78802000Y-98672180D01*
X78897238Y-98719800D01*
X78944857Y-98767419D01*
X78992476Y-98862657D01*
X79040095Y-99053133D01*
X79040095Y-99291228D01*
X78992476Y-99481704D01*
X78944857Y-99576942D01*
X78897238Y-99624561D01*
X78802000Y-99672180D01*
X78706761Y-99672180D01*
X78611523Y-99624561D01*
X78563904Y-99576942D01*
X78516285Y-99481704D01*
X78468666Y-99291228D01*
X78468666Y-99053133D01*
X78516285Y-98862657D01*
X78563904Y-98767419D01*
X78611523Y-98719800D01*
X78706761Y-98672180D01*
D15*
X77735333Y-97970752D02*
X77602000Y-97780276D01*
X77506761Y-97970752D02*
X77506761Y-97570752D01*
X77659142Y-97570752D01*
X77697238Y-97589800D01*
X77716285Y-97608847D01*
X77735333Y-97646942D01*
X77735333Y-97704085D01*
X77716285Y-97742180D01*
X77697238Y-97761228D01*
X77659142Y-97780276D01*
X77506761Y-97780276D01*
X78078190Y-97570752D02*
X78002000Y-97570752D01*
X77963904Y-97589800D01*
X77944857Y-97608847D01*
X77906761Y-97665990D01*
X77887714Y-97742180D01*
X77887714Y-97894561D01*
X77906761Y-97932657D01*
X77925809Y-97951704D01*
X77963904Y-97970752D01*
X78040095Y-97970752D01*
X78078190Y-97951704D01*
X78097238Y-97932657D01*
X78116285Y-97894561D01*
X78116285Y-97799323D01*
X78097238Y-97761228D01*
X78078190Y-97742180D01*
X78040095Y-97723133D01*
X77963904Y-97723133D01*
X77925809Y-97742180D01*
X77906761Y-97761228D01*
X77887714Y-97799323D01*
D11*
X84132333Y-104124466D02*
X84925666Y-104124466D01*
X85019000Y-104077800D01*
X85065666Y-104031133D01*
X85112333Y-103937800D01*
X85112333Y-103751133D01*
X85065666Y-103657800D01*
X85019000Y-103611133D01*
X84925666Y-103564466D01*
X84132333Y-103564466D01*
X84132333Y-103191133D02*
X84132333Y-102584466D01*
X84505666Y-102911133D01*
X84505666Y-102771133D01*
X84552333Y-102677800D01*
X84599000Y-102631133D01*
X84692333Y-102584466D01*
X84925666Y-102584466D01*
X85019000Y-102631133D01*
X85065666Y-102677800D01*
X85112333Y-102771133D01*
X85112333Y-103051133D01*
X85065666Y-103144466D01*
X85019000Y-103191133D01*
X88558142Y-109070180D02*
X88653380Y-109070180D01*
X88748619Y-109117800D01*
X88796238Y-109165419D01*
X88843857Y-109260657D01*
X88891476Y-109451133D01*
X88891476Y-109689228D01*
X88843857Y-109879704D01*
X88796238Y-109974942D01*
X88748619Y-110022561D01*
X88653380Y-110070180D01*
X88558142Y-110070180D01*
X88462904Y-110022561D01*
X88415285Y-109974942D01*
X88367666Y-109879704D01*
X88320047Y-109689228D01*
X88320047Y-109451133D01*
X88367666Y-109260657D01*
X88415285Y-109165419D01*
X88462904Y-109117800D01*
X88558142Y-109070180D01*
X89320047Y-109974942D02*
X89367666Y-110022561D01*
X89320047Y-110070180D01*
X89272428Y-110022561D01*
X89320047Y-109974942D01*
X89320047Y-110070180D01*
X90320047Y-110070180D02*
X89748619Y-110070180D01*
X90034333Y-110070180D02*
X90034333Y-109070180D01*
X89939095Y-109213038D01*
X89843857Y-109308276D01*
X89748619Y-109355895D01*
X91177190Y-109403514D02*
X91177190Y-110070180D01*
X90748619Y-109403514D02*
X90748619Y-109927323D01*
X90796238Y-110022561D01*
X90891476Y-110070180D01*
X91034333Y-110070180D01*
X91129571Y-110022561D01*
X91177190Y-109974942D01*
X91986714Y-109546371D02*
X91653380Y-109546371D01*
X91653380Y-110070180D02*
X91653380Y-109070180D01*
X92129571Y-109070180D01*
D16*
X90790285Y-106509466D02*
X90802190Y-106521371D01*
X90814095Y-106557085D01*
X90814095Y-106580895D01*
X90802190Y-106616609D01*
X90778380Y-106640419D01*
X90754571Y-106652323D01*
X90706952Y-106664228D01*
X90671238Y-106664228D01*
X90623619Y-106652323D01*
X90599809Y-106640419D01*
X90576000Y-106616609D01*
X90564095Y-106580895D01*
X90564095Y-106557085D01*
X90576000Y-106521371D01*
X90587904Y-106509466D01*
X90564095Y-106426133D02*
X90564095Y-106271371D01*
X90659333Y-106354704D01*
X90659333Y-106318990D01*
X90671238Y-106295180D01*
X90683142Y-106283276D01*
X90706952Y-106271371D01*
X90766476Y-106271371D01*
X90790285Y-106283276D01*
X90802190Y-106295180D01*
X90814095Y-106318990D01*
X90814095Y-106390419D01*
X90802190Y-106414228D01*
X90790285Y-106426133D01*
D11*
X74896238Y-139496371D02*
X75039095Y-139543990D01*
X75086714Y-139591609D01*
X75134333Y-139686847D01*
X75134333Y-139829704D01*
X75086714Y-139924942D01*
X75039095Y-139972561D01*
X74943857Y-140020180D01*
X74562904Y-140020180D01*
X74562904Y-139020180D01*
X74896238Y-139020180D01*
X74991476Y-139067800D01*
X75039095Y-139115419D01*
X75086714Y-139210657D01*
X75086714Y-139305895D01*
X75039095Y-139401133D01*
X74991476Y-139448752D01*
X74896238Y-139496371D01*
X74562904Y-139496371D01*
X76039095Y-139020180D02*
X75562904Y-139020180D01*
X75515285Y-139496371D01*
X75562904Y-139448752D01*
X75658142Y-139401133D01*
X75896238Y-139401133D01*
X75991476Y-139448752D01*
X76039095Y-139496371D01*
X76086714Y-139591609D01*
X76086714Y-139829704D01*
X76039095Y-139924942D01*
X75991476Y-139972561D01*
X75896238Y-140020180D01*
X75658142Y-140020180D01*
X75562904Y-139972561D01*
X75515285Y-139924942D01*
X76658142Y-139448752D02*
X76562904Y-139401133D01*
X76515285Y-139353514D01*
X76467666Y-139258276D01*
X76467666Y-139210657D01*
X76515285Y-139115419D01*
X76562904Y-139067800D01*
X76658142Y-139020180D01*
X76848619Y-139020180D01*
X76943857Y-139067800D01*
X76991476Y-139115419D01*
X77039095Y-139210657D01*
X77039095Y-139258276D01*
X76991476Y-139353514D01*
X76943857Y-139401133D01*
X76848619Y-139448752D01*
X76658142Y-139448752D01*
X76562904Y-139496371D01*
X76515285Y-139543990D01*
X76467666Y-139639228D01*
X76467666Y-139829704D01*
X76515285Y-139924942D01*
X76562904Y-139972561D01*
X76658142Y-140020180D01*
X76848619Y-140020180D01*
X76943857Y-139972561D01*
X76991476Y-139924942D01*
X77039095Y-139829704D01*
X77039095Y-139639228D01*
X76991476Y-139543990D01*
X76943857Y-139496371D01*
X76848619Y-139448752D01*
X77991476Y-140020180D02*
X77420047Y-140020180D01*
X77705761Y-140020180D02*
X77705761Y-139020180D01*
X77610523Y-139163038D01*
X77515285Y-139258276D01*
X77420047Y-139305895D01*
X78467666Y-140020180D02*
X78658142Y-140020180D01*
X78753380Y-139972561D01*
X78801000Y-139924942D01*
X78896238Y-139782085D01*
X78943857Y-139591609D01*
X78943857Y-139210657D01*
X78896238Y-139115419D01*
X78848619Y-139067800D01*
X78753380Y-139020180D01*
X78562904Y-139020180D01*
X78467666Y-139067800D01*
X78420047Y-139115419D01*
X78372428Y-139210657D01*
X78372428Y-139448752D01*
X78420047Y-139543990D01*
X78467666Y-139591609D01*
X78562904Y-139639228D01*
X78753380Y-139639228D01*
X78848619Y-139591609D01*
X78896238Y-139543990D01*
X78943857Y-139448752D01*
X79277190Y-139020180D02*
X79515285Y-140020180D01*
X79705761Y-139305895D01*
X79896238Y-140020180D01*
X80134333Y-139020180D01*
X76562904Y-135920180D02*
X76562904Y-134920180D01*
X76801000Y-134920180D01*
X76943857Y-134967800D01*
X77039095Y-135063038D01*
X77086714Y-135158276D01*
X77134333Y-135348752D01*
X77134333Y-135491609D01*
X77086714Y-135682085D01*
X77039095Y-135777323D01*
X76943857Y-135872561D01*
X76801000Y-135920180D01*
X76562904Y-135920180D01*
X78086714Y-135920180D02*
X77515285Y-135920180D01*
X77801000Y-135920180D02*
X77801000Y-134920180D01*
X77705761Y-135063038D01*
X77610523Y-135158276D01*
X77515285Y-135205895D01*
X94820047Y-107370180D02*
X95439095Y-107370180D01*
X95105761Y-107751133D01*
X95248619Y-107751133D01*
X95343857Y-107798752D01*
X95391476Y-107846371D01*
X95439095Y-107941609D01*
X95439095Y-108179704D01*
X95391476Y-108274942D01*
X95343857Y-108322561D01*
X95248619Y-108370180D01*
X94962904Y-108370180D01*
X94867666Y-108322561D01*
X94820047Y-108274942D01*
X95772428Y-107370180D02*
X96391476Y-107370180D01*
X96058142Y-107751133D01*
X96201000Y-107751133D01*
X96296238Y-107798752D01*
X96343857Y-107846371D01*
X96391476Y-107941609D01*
X96391476Y-108179704D01*
X96343857Y-108274942D01*
X96296238Y-108322561D01*
X96201000Y-108370180D01*
X95915285Y-108370180D01*
X95820047Y-108322561D01*
X95772428Y-108274942D01*
X96962904Y-108370180D02*
X96867666Y-108322561D01*
X96820047Y-108274942D01*
X96772428Y-108179704D01*
X96772428Y-107893990D01*
X96820047Y-107798752D01*
X96867666Y-107751133D01*
X96962904Y-107703514D01*
X97105761Y-107703514D01*
X97201000Y-107751133D01*
X97248619Y-107798752D01*
X97296238Y-107893990D01*
X97296238Y-108179704D01*
X97248619Y-108274942D01*
X97201000Y-108322561D01*
X97105761Y-108370180D01*
X96962904Y-108370180D01*
X97724809Y-108370180D02*
X97724809Y-107370180D01*
X98153380Y-108370180D02*
X98153380Y-107846371D01*
X98105761Y-107751133D01*
X98010523Y-107703514D01*
X97867666Y-107703514D01*
X97772428Y-107751133D01*
X97724809Y-107798752D01*
X98629571Y-108370180D02*
X98629571Y-107703514D01*
X98629571Y-107798752D02*
X98677190Y-107751133D01*
X98772428Y-107703514D01*
X98915285Y-107703514D01*
X99010523Y-107751133D01*
X99058142Y-107846371D01*
X99058142Y-108370180D01*
X99058142Y-107846371D02*
X99105761Y-107751133D01*
X99201000Y-107703514D01*
X99343857Y-107703514D01*
X99439095Y-107751133D01*
X99486714Y-107846371D01*
X99486714Y-108370180D01*
D15*
X96554333Y-110318752D02*
X96421000Y-110128276D01*
X96325761Y-110318752D02*
X96325761Y-109918752D01*
X96478142Y-109918752D01*
X96516238Y-109937800D01*
X96535285Y-109956847D01*
X96554333Y-109994942D01*
X96554333Y-110052085D01*
X96535285Y-110090180D01*
X96516238Y-110109228D01*
X96478142Y-110128276D01*
X96325761Y-110128276D01*
X96687666Y-109918752D02*
X96954333Y-109918752D01*
X96782904Y-110318752D01*
D11*
X98545047Y-106470180D02*
X99164095Y-106470180D01*
X98830761Y-106851133D01*
X98973619Y-106851133D01*
X99068857Y-106898752D01*
X99116476Y-106946371D01*
X99164095Y-107041609D01*
X99164095Y-107279704D01*
X99116476Y-107374942D01*
X99068857Y-107422561D01*
X98973619Y-107470180D01*
X98687904Y-107470180D01*
X98592666Y-107422561D01*
X98545047Y-107374942D01*
X99497428Y-106470180D02*
X100116476Y-106470180D01*
X99783142Y-106851133D01*
X99926000Y-106851133D01*
X100021238Y-106898752D01*
X100068857Y-106946371D01*
X100116476Y-107041609D01*
X100116476Y-107279704D01*
X100068857Y-107374942D01*
X100021238Y-107422561D01*
X99926000Y-107470180D01*
X99640285Y-107470180D01*
X99545047Y-107422561D01*
X99497428Y-107374942D01*
X100687904Y-107470180D02*
X100592666Y-107422561D01*
X100545047Y-107374942D01*
X100497428Y-107279704D01*
X100497428Y-106993990D01*
X100545047Y-106898752D01*
X100592666Y-106851133D01*
X100687904Y-106803514D01*
X100830761Y-106803514D01*
X100926000Y-106851133D01*
X100973619Y-106898752D01*
X101021238Y-106993990D01*
X101021238Y-107279704D01*
X100973619Y-107374942D01*
X100926000Y-107422561D01*
X100830761Y-107470180D01*
X100687904Y-107470180D01*
X101449809Y-107470180D02*
X101449809Y-106470180D01*
X101878380Y-107470180D02*
X101878380Y-106946371D01*
X101830761Y-106851133D01*
X101735523Y-106803514D01*
X101592666Y-106803514D01*
X101497428Y-106851133D01*
X101449809Y-106898752D01*
X102354571Y-107470180D02*
X102354571Y-106803514D01*
X102354571Y-106898752D02*
X102402190Y-106851133D01*
X102497428Y-106803514D01*
X102640285Y-106803514D01*
X102735523Y-106851133D01*
X102783142Y-106946371D01*
X102783142Y-107470180D01*
X102783142Y-106946371D02*
X102830761Y-106851133D01*
X102926000Y-106803514D01*
X103068857Y-106803514D01*
X103164095Y-106851133D01*
X103211714Y-106946371D01*
X103211714Y-107470180D01*
D15*
X99184333Y-110398752D02*
X99051000Y-110208276D01*
X98955761Y-110398752D02*
X98955761Y-109998752D01*
X99108142Y-109998752D01*
X99146238Y-110017800D01*
X99165285Y-110036847D01*
X99184333Y-110074942D01*
X99184333Y-110132085D01*
X99165285Y-110170180D01*
X99146238Y-110189228D01*
X99108142Y-110208276D01*
X98955761Y-110208276D01*
X99412904Y-110170180D02*
X99374809Y-110151133D01*
X99355761Y-110132085D01*
X99336714Y-110093990D01*
X99336714Y-110074942D01*
X99355761Y-110036847D01*
X99374809Y-110017800D01*
X99412904Y-109998752D01*
X99489095Y-109998752D01*
X99527190Y-110017800D01*
X99546238Y-110036847D01*
X99565285Y-110074942D01*
X99565285Y-110093990D01*
X99546238Y-110132085D01*
X99527190Y-110151133D01*
X99489095Y-110170180D01*
X99412904Y-110170180D01*
X99374809Y-110189228D01*
X99355761Y-110208276D01*
X99336714Y-110246371D01*
X99336714Y-110322561D01*
X99355761Y-110360657D01*
X99374809Y-110379704D01*
X99412904Y-110398752D01*
X99489095Y-110398752D01*
X99527190Y-110379704D01*
X99546238Y-110360657D01*
X99565285Y-110322561D01*
X99565285Y-110246371D01*
X99546238Y-110208276D01*
X99527190Y-110189228D01*
X99489095Y-110170180D01*
D11*
X106920047Y-108570180D02*
X107539095Y-108570180D01*
X107205761Y-108951133D01*
X107348619Y-108951133D01*
X107443857Y-108998752D01*
X107491476Y-109046371D01*
X107539095Y-109141609D01*
X107539095Y-109379704D01*
X107491476Y-109474942D01*
X107443857Y-109522561D01*
X107348619Y-109570180D01*
X107062904Y-109570180D01*
X106967666Y-109522561D01*
X106920047Y-109474942D01*
X107872428Y-108570180D02*
X108491476Y-108570180D01*
X108158142Y-108951133D01*
X108301000Y-108951133D01*
X108396238Y-108998752D01*
X108443857Y-109046371D01*
X108491476Y-109141609D01*
X108491476Y-109379704D01*
X108443857Y-109474942D01*
X108396238Y-109522561D01*
X108301000Y-109570180D01*
X108015285Y-109570180D01*
X107920047Y-109522561D01*
X107872428Y-109474942D01*
X109062904Y-109570180D02*
X108967666Y-109522561D01*
X108920047Y-109474942D01*
X108872428Y-109379704D01*
X108872428Y-109093990D01*
X108920047Y-108998752D01*
X108967666Y-108951133D01*
X109062904Y-108903514D01*
X109205761Y-108903514D01*
X109301000Y-108951133D01*
X109348619Y-108998752D01*
X109396238Y-109093990D01*
X109396238Y-109379704D01*
X109348619Y-109474942D01*
X109301000Y-109522561D01*
X109205761Y-109570180D01*
X109062904Y-109570180D01*
X109824809Y-109570180D02*
X109824809Y-108570180D01*
X110253380Y-109570180D02*
X110253380Y-109046371D01*
X110205761Y-108951133D01*
X110110523Y-108903514D01*
X109967666Y-108903514D01*
X109872428Y-108951133D01*
X109824809Y-108998752D01*
X110729571Y-109570180D02*
X110729571Y-108903514D01*
X110729571Y-108998752D02*
X110777190Y-108951133D01*
X110872428Y-108903514D01*
X111015285Y-108903514D01*
X111110523Y-108951133D01*
X111158142Y-109046371D01*
X111158142Y-109570180D01*
X111158142Y-109046371D02*
X111205761Y-108951133D01*
X111301000Y-108903514D01*
X111443857Y-108903514D01*
X111539095Y-108951133D01*
X111586714Y-109046371D01*
X111586714Y-109570180D01*
D15*
X107043857Y-110398752D02*
X106910523Y-110208276D01*
X106815285Y-110398752D02*
X106815285Y-109998752D01*
X106967666Y-109998752D01*
X107005761Y-110017800D01*
X107024809Y-110036847D01*
X107043857Y-110074942D01*
X107043857Y-110132085D01*
X107024809Y-110170180D01*
X107005761Y-110189228D01*
X106967666Y-110208276D01*
X106815285Y-110208276D01*
X107424809Y-110398752D02*
X107196238Y-110398752D01*
X107310523Y-110398752D02*
X107310523Y-109998752D01*
X107272428Y-110055895D01*
X107234333Y-110093990D01*
X107196238Y-110113038D01*
X107672428Y-109998752D02*
X107710523Y-109998752D01*
X107748619Y-110017800D01*
X107767666Y-110036847D01*
X107786714Y-110074942D01*
X107805761Y-110151133D01*
X107805761Y-110246371D01*
X107786714Y-110322561D01*
X107767666Y-110360657D01*
X107748619Y-110379704D01*
X107710523Y-110398752D01*
X107672428Y-110398752D01*
X107634333Y-110379704D01*
X107615285Y-110360657D01*
X107596238Y-110322561D01*
X107577190Y-110246371D01*
X107577190Y-110151133D01*
X107596238Y-110074942D01*
X107615285Y-110036847D01*
X107634333Y-110017800D01*
X107672428Y-109998752D01*
D11*
X55501000Y-119684466D02*
X55977190Y-119684466D01*
X55405761Y-119970180D02*
X55739095Y-118970180D01*
X56072428Y-119970180D01*
X56405761Y-119970180D02*
X56405761Y-118970180D01*
X56739095Y-119684466D01*
X57072428Y-118970180D01*
X57072428Y-119970180D01*
X57501000Y-119922561D02*
X57643857Y-119970180D01*
X57881952Y-119970180D01*
X57977190Y-119922561D01*
X58024809Y-119874942D01*
X58072428Y-119779704D01*
X58072428Y-119684466D01*
X58024809Y-119589228D01*
X57977190Y-119541609D01*
X57881952Y-119493990D01*
X57691476Y-119446371D01*
X57596238Y-119398752D01*
X57548619Y-119351133D01*
X57501000Y-119255895D01*
X57501000Y-119160657D01*
X57548619Y-119065419D01*
X57596238Y-119017800D01*
X57691476Y-118970180D01*
X57929571Y-118970180D01*
X58072428Y-119017800D01*
X59024809Y-119970180D02*
X58453380Y-119970180D01*
X58739095Y-119970180D02*
X58739095Y-118970180D01*
X58643857Y-119113038D01*
X58548619Y-119208276D01*
X58453380Y-119255895D01*
X59977190Y-119970180D02*
X59405761Y-119970180D01*
X59691476Y-119970180D02*
X59691476Y-118970180D01*
X59596238Y-119113038D01*
X59501000Y-119208276D01*
X59405761Y-119255895D01*
X60929571Y-119970180D02*
X60358142Y-119970180D01*
X60643857Y-119970180D02*
X60643857Y-118970180D01*
X60548619Y-119113038D01*
X60453380Y-119208276D01*
X60358142Y-119255895D01*
X61262904Y-118970180D02*
X61929571Y-118970180D01*
X61500999Y-119970180D01*
X62310523Y-119589228D02*
X63072428Y-119589228D01*
X64024809Y-118970180D02*
X63548619Y-118970180D01*
X63500999Y-119446371D01*
X63548619Y-119398752D01*
X63643857Y-119351133D01*
X63881952Y-119351133D01*
X63977190Y-119398752D01*
X64024809Y-119446371D01*
X64072428Y-119541609D01*
X64072428Y-119779704D01*
X64024809Y-119874942D01*
X63977190Y-119922561D01*
X63881952Y-119970180D01*
X63643857Y-119970180D01*
X63548619Y-119922561D01*
X63500999Y-119874942D01*
X64501000Y-119874942D02*
X64548619Y-119922561D01*
X64501000Y-119970180D01*
X64453380Y-119922561D01*
X64501000Y-119874942D01*
X64501000Y-119970180D01*
X65167666Y-118970180D02*
X65262904Y-118970180D01*
X65358142Y-119017800D01*
X65405761Y-119065419D01*
X65453380Y-119160657D01*
X65500999Y-119351133D01*
X65500999Y-119589228D01*
X65453380Y-119779704D01*
X65405761Y-119874942D01*
X65358142Y-119922561D01*
X65262904Y-119970180D01*
X65167666Y-119970180D01*
X65072428Y-119922561D01*
X65024809Y-119874942D01*
X64977190Y-119779704D01*
X64929571Y-119589228D01*
X64929571Y-119351133D01*
X64977190Y-119160657D01*
X65024809Y-119065419D01*
X65072428Y-119017800D01*
X65167666Y-118970180D01*
D10*
X75512904Y-118177323D02*
X76160523Y-118177323D01*
X76236714Y-118139228D01*
X76274809Y-118101133D01*
X76312904Y-118024942D01*
X76312904Y-117872561D01*
X76274809Y-117796371D01*
X76236714Y-117758276D01*
X76160523Y-117720180D01*
X75512904Y-117720180D01*
X75589095Y-117377323D02*
X75551000Y-117339228D01*
X75512904Y-117263038D01*
X75512904Y-117072561D01*
X75551000Y-116996371D01*
X75589095Y-116958276D01*
X75665285Y-116920180D01*
X75741476Y-116920180D01*
X75855761Y-116958276D01*
X76312904Y-117415419D01*
X76312904Y-116920180D01*
D11*
X101753380Y-103479704D02*
X102562904Y-103479704D01*
X102658142Y-103432085D01*
X102705761Y-103384466D01*
X102753380Y-103289228D01*
X102753380Y-103098752D01*
X102705761Y-103003514D01*
X102658142Y-102955895D01*
X102562904Y-102908276D01*
X101753380Y-102908276D01*
X102753380Y-101908276D02*
X102753380Y-102479704D01*
X102753380Y-102193990D02*
X101753380Y-102193990D01*
X101896238Y-102289228D01*
X101991476Y-102384466D01*
X102039095Y-102479704D01*
X105893142Y-94250180D02*
X105988380Y-94250180D01*
X106083619Y-94297800D01*
X106131238Y-94345419D01*
X106178857Y-94440657D01*
X106226476Y-94631133D01*
X106226476Y-94869228D01*
X106178857Y-95059704D01*
X106131238Y-95154942D01*
X106083619Y-95202561D01*
X105988380Y-95250180D01*
X105893142Y-95250180D01*
X105797904Y-95202561D01*
X105750285Y-95154942D01*
X105702666Y-95059704D01*
X105655047Y-94869228D01*
X105655047Y-94631133D01*
X105702666Y-94440657D01*
X105750285Y-94345419D01*
X105797904Y-94297800D01*
X105893142Y-94250180D01*
X106655047Y-95154942D02*
X106702666Y-95202561D01*
X106655047Y-95250180D01*
X106607428Y-95202561D01*
X106655047Y-95154942D01*
X106655047Y-95250180D01*
X107655047Y-95250180D02*
X107083619Y-95250180D01*
X107369333Y-95250180D02*
X107369333Y-94250180D01*
X107274095Y-94393038D01*
X107178857Y-94488276D01*
X107083619Y-94535895D01*
X108512190Y-94583514D02*
X108512190Y-95250180D01*
X108083619Y-94583514D02*
X108083619Y-95107323D01*
X108131238Y-95202561D01*
X108226476Y-95250180D01*
X108369333Y-95250180D01*
X108464571Y-95202561D01*
X108512190Y-95154942D01*
X109321714Y-94726371D02*
X108988380Y-94726371D01*
X108988380Y-95250180D02*
X108988380Y-94250180D01*
X109464571Y-94250180D01*
D16*
X107744333Y-96057085D02*
X107732428Y-96068990D01*
X107696714Y-96080895D01*
X107672904Y-96080895D01*
X107637190Y-96068990D01*
X107613380Y-96045180D01*
X107601476Y-96021371D01*
X107589571Y-95973752D01*
X107589571Y-95938038D01*
X107601476Y-95890419D01*
X107613380Y-95866609D01*
X107637190Y-95842800D01*
X107672904Y-95830895D01*
X107696714Y-95830895D01*
X107732428Y-95842800D01*
X107744333Y-95854704D01*
X107958619Y-95914228D02*
X107958619Y-96080895D01*
X107899095Y-95818990D02*
X107839571Y-95997561D01*
X107994333Y-95997561D01*
D11*
X101520047Y-108370180D02*
X102139095Y-108370180D01*
X101805761Y-108751133D01*
X101948619Y-108751133D01*
X102043857Y-108798752D01*
X102091476Y-108846371D01*
X102139095Y-108941609D01*
X102139095Y-109179704D01*
X102091476Y-109274942D01*
X102043857Y-109322561D01*
X101948619Y-109370180D01*
X101662904Y-109370180D01*
X101567666Y-109322561D01*
X101520047Y-109274942D01*
X102472428Y-108370180D02*
X103091476Y-108370180D01*
X102758142Y-108751133D01*
X102901000Y-108751133D01*
X102996238Y-108798752D01*
X103043857Y-108846371D01*
X103091476Y-108941609D01*
X103091476Y-109179704D01*
X103043857Y-109274942D01*
X102996238Y-109322561D01*
X102901000Y-109370180D01*
X102615285Y-109370180D01*
X102520047Y-109322561D01*
X102472428Y-109274942D01*
X103662904Y-109370180D02*
X103567666Y-109322561D01*
X103520047Y-109274942D01*
X103472428Y-109179704D01*
X103472428Y-108893990D01*
X103520047Y-108798752D01*
X103567666Y-108751133D01*
X103662904Y-108703514D01*
X103805761Y-108703514D01*
X103901000Y-108751133D01*
X103948619Y-108798752D01*
X103996238Y-108893990D01*
X103996238Y-109179704D01*
X103948619Y-109274942D01*
X103901000Y-109322561D01*
X103805761Y-109370180D01*
X103662904Y-109370180D01*
X104424809Y-109370180D02*
X104424809Y-108370180D01*
X104853380Y-109370180D02*
X104853380Y-108846371D01*
X104805761Y-108751133D01*
X104710523Y-108703514D01*
X104567666Y-108703514D01*
X104472428Y-108751133D01*
X104424809Y-108798752D01*
X105329571Y-109370180D02*
X105329571Y-108703514D01*
X105329571Y-108798752D02*
X105377190Y-108751133D01*
X105472428Y-108703514D01*
X105615285Y-108703514D01*
X105710523Y-108751133D01*
X105758142Y-108846371D01*
X105758142Y-109370180D01*
X105758142Y-108846371D02*
X105805761Y-108751133D01*
X105901000Y-108703514D01*
X106043857Y-108703514D01*
X106139095Y-108751133D01*
X106186714Y-108846371D01*
X106186714Y-109370180D01*
D15*
X103734333Y-109750751D02*
X103601000Y-109560275D01*
X103505761Y-109750751D02*
X103505761Y-109350751D01*
X103658142Y-109350751D01*
X103696238Y-109369799D01*
X103715285Y-109388846D01*
X103734333Y-109426941D01*
X103734333Y-109484084D01*
X103715285Y-109522179D01*
X103696238Y-109541227D01*
X103658142Y-109560275D01*
X103505761Y-109560275D01*
X103924809Y-109750751D02*
X104001000Y-109750751D01*
X104039095Y-109731703D01*
X104058142Y-109712656D01*
X104096238Y-109655513D01*
X104115285Y-109579322D01*
X104115285Y-109426941D01*
X104096238Y-109388846D01*
X104077190Y-109369799D01*
X104039095Y-109350751D01*
X103962904Y-109350751D01*
X103924809Y-109369799D01*
X103905761Y-109388846D01*
X103886714Y-109426941D01*
X103886714Y-109522179D01*
X103905761Y-109560275D01*
X103924809Y-109579322D01*
X103962904Y-109598370D01*
X104039095Y-109598370D01*
X104077190Y-109579322D01*
X104096238Y-109560275D01*
X104115285Y-109522179D01*
D11*
X122067666Y-145645180D02*
X121734333Y-145168990D01*
X121496238Y-145645180D02*
X121496238Y-144645180D01*
X121877190Y-144645180D01*
X121972428Y-144692800D01*
X122020047Y-144740419D01*
X122067666Y-144835657D01*
X122067666Y-144978514D01*
X122020047Y-145073752D01*
X121972428Y-145121371D01*
X121877190Y-145168990D01*
X121496238Y-145168990D01*
X122496238Y-145121371D02*
X122829571Y-145121371D01*
X122972428Y-145645180D02*
X122496238Y-145645180D01*
X122496238Y-144645180D01*
X122972428Y-144645180D01*
X123734333Y-145121371D02*
X123401000Y-145121371D01*
X123401000Y-145645180D02*
X123401000Y-144645180D01*
X123877190Y-144645180D01*
X124401000Y-144645180D02*
X124401000Y-144883276D01*
X124162904Y-144788038D02*
X124401000Y-144883276D01*
X124639095Y-144788038D01*
X124258142Y-145073752D02*
X124401000Y-144883276D01*
X124543857Y-145073752D01*
X125162904Y-144645180D02*
X125162904Y-144883276D01*
X124924809Y-144788038D02*
X125162904Y-144883276D01*
X125401000Y-144788038D01*
X125020047Y-145073752D02*
X125162904Y-144883276D01*
X125305761Y-145073752D01*
X115840523Y-147392180D02*
X115840523Y-146392180D01*
X116173857Y-147106466D01*
X116507190Y-146392180D01*
X116507190Y-147392180D01*
X117126238Y-147392180D02*
X117031000Y-147344561D01*
X116983380Y-147296942D01*
X116935761Y-147201704D01*
X116935761Y-146915990D01*
X116983380Y-146820752D01*
X117031000Y-146773133D01*
X117126238Y-146725514D01*
X117269095Y-146725514D01*
X117364333Y-146773133D01*
X117411952Y-146820752D01*
X117459571Y-146915990D01*
X117459571Y-147201704D01*
X117411952Y-147296942D01*
X117364333Y-147344561D01*
X117269095Y-147392180D01*
X117126238Y-147392180D01*
X118316714Y-146725514D02*
X118316714Y-147392180D01*
X117888142Y-146725514D02*
X117888142Y-147249323D01*
X117935761Y-147344561D01*
X118031000Y-147392180D01*
X118173857Y-147392180D01*
X118269095Y-147344561D01*
X118316714Y-147296942D01*
X118792904Y-146725514D02*
X118792904Y-147392180D01*
X118792904Y-146820752D02*
X118840523Y-146773133D01*
X118935761Y-146725514D01*
X119078619Y-146725514D01*
X119173857Y-146773133D01*
X119221476Y-146868371D01*
X119221476Y-147392180D01*
X119554809Y-146725514D02*
X119935761Y-146725514D01*
X119697666Y-146392180D02*
X119697666Y-147249323D01*
X119745285Y-147344561D01*
X119840523Y-147392180D01*
X119935761Y-147392180D01*
X120269095Y-147392180D02*
X120269095Y-146725514D01*
X120269095Y-146392180D02*
X120221476Y-146439800D01*
X120269095Y-146487419D01*
X120316714Y-146439800D01*
X120269095Y-146392180D01*
X120269095Y-146487419D01*
X120745285Y-146725514D02*
X120745285Y-147392180D01*
X120745285Y-146820752D02*
X120792904Y-146773133D01*
X120888142Y-146725514D01*
X121031000Y-146725514D01*
X121126238Y-146773133D01*
X121173857Y-146868371D01*
X121173857Y-147392180D01*
X122078619Y-146725514D02*
X122078619Y-147535038D01*
X122031000Y-147630276D01*
X121983380Y-147677895D01*
X121888142Y-147725514D01*
X121745285Y-147725514D01*
X121650047Y-147677895D01*
X122078619Y-147344561D02*
X121983380Y-147392180D01*
X121792904Y-147392180D01*
X121697666Y-147344561D01*
X121650047Y-147296942D01*
X121602428Y-147201704D01*
X121602428Y-146915990D01*
X121650047Y-146820752D01*
X121697666Y-146773133D01*
X121792904Y-146725514D01*
X121983380Y-146725514D01*
X122078619Y-146773133D01*
X122554809Y-147392180D02*
X122554809Y-146392180D01*
X122554809Y-146868371D02*
X123126238Y-146868371D01*
X123126238Y-147392180D02*
X123126238Y-146392180D01*
X123745285Y-147392180D02*
X123650047Y-147344561D01*
X123602428Y-147296942D01*
X123554809Y-147201704D01*
X123554809Y-146915990D01*
X123602428Y-146820752D01*
X123650047Y-146773133D01*
X123745285Y-146725514D01*
X123888142Y-146725514D01*
X123983380Y-146773133D01*
X124031000Y-146820752D01*
X124078619Y-146915990D01*
X124078619Y-147201704D01*
X124031000Y-147296942D01*
X123983380Y-147344561D01*
X123888142Y-147392180D01*
X123745285Y-147392180D01*
X124650047Y-147392180D02*
X124554809Y-147344561D01*
X124507190Y-147249323D01*
X124507190Y-146392180D01*
X125411952Y-147344561D02*
X125316714Y-147392180D01*
X125126238Y-147392180D01*
X125031000Y-147344561D01*
X124983380Y-147249323D01*
X124983380Y-146868371D01*
X125031000Y-146773133D01*
X125126238Y-146725514D01*
X125316714Y-146725514D01*
X125411952Y-146773133D01*
X125459571Y-146868371D01*
X125459571Y-146963609D01*
X124983380Y-147058847D01*
X125650047Y-147487419D02*
X126411952Y-147487419D01*
X126554809Y-146392180D02*
X127173857Y-146392180D01*
X126840523Y-146773133D01*
X126983380Y-146773133D01*
X127078619Y-146820752D01*
X127126238Y-146868371D01*
X127173857Y-146963609D01*
X127173857Y-147201704D01*
X127126238Y-147296942D01*
X127078619Y-147344561D01*
X126983380Y-147392180D01*
X126697666Y-147392180D01*
X126602428Y-147344561D01*
X126554809Y-147296942D01*
X127602428Y-147296942D02*
X127650047Y-147344561D01*
X127602428Y-147392180D01*
X127554809Y-147344561D01*
X127602428Y-147296942D01*
X127602428Y-147392180D01*
X127983380Y-146392180D02*
X128650047Y-146392180D01*
X128221476Y-147392180D01*
X129030999Y-147392180D02*
X129030999Y-146725514D01*
X129030999Y-146820752D02*
X129078619Y-146773133D01*
X129173857Y-146725514D01*
X129316714Y-146725514D01*
X129411952Y-146773133D01*
X129459571Y-146868371D01*
X129459571Y-147392180D01*
X129459571Y-146868371D02*
X129507190Y-146773133D01*
X129602428Y-146725514D01*
X129745285Y-146725514D01*
X129840523Y-146773133D01*
X129888142Y-146868371D01*
X129888142Y-147392180D01*
X130364333Y-147392180D02*
X130364333Y-146725514D01*
X130364333Y-146820752D02*
X130411952Y-146773133D01*
X130507190Y-146725514D01*
X130650047Y-146725514D01*
X130745285Y-146773133D01*
X130792904Y-146868371D01*
X130792904Y-147392180D01*
X130792904Y-146868371D02*
X130840523Y-146773133D01*
X130935761Y-146725514D01*
X131078619Y-146725514D01*
X131173857Y-146773133D01*
X131221476Y-146868371D01*
X131221476Y-147392180D01*
X122092666Y-145620180D02*
X121759333Y-145143990D01*
X121521238Y-145620180D02*
X121521238Y-144620180D01*
X121902190Y-144620180D01*
X121997428Y-144667800D01*
X122045047Y-144715419D01*
X122092666Y-144810657D01*
X122092666Y-144953514D01*
X122045047Y-145048752D01*
X121997428Y-145096371D01*
X121902190Y-145143990D01*
X121521238Y-145143990D01*
X122521238Y-145096371D02*
X122854571Y-145096371D01*
X122997428Y-145620180D02*
X122521238Y-145620180D01*
X122521238Y-144620180D01*
X122997428Y-144620180D01*
X123759333Y-145096371D02*
X123426000Y-145096371D01*
X123426000Y-145620180D02*
X123426000Y-144620180D01*
X123902190Y-144620180D01*
X124426000Y-144620180D02*
X124426000Y-144858276D01*
X124187904Y-144763038D02*
X124426000Y-144858276D01*
X124664095Y-144763038D01*
X124283142Y-145048752D02*
X124426000Y-144858276D01*
X124568857Y-145048752D01*
X125187904Y-144620180D02*
X125187904Y-144858276D01*
X124949809Y-144763038D02*
X125187904Y-144858276D01*
X125426000Y-144763038D01*
X125045047Y-145048752D02*
X125187904Y-144858276D01*
X125330761Y-145048752D01*
D17*
X95750000Y-132600000D02*
X95750000Y-125350000D01*
X83850000Y-132600000D02*
X95750000Y-132600000D01*
X83850000Y-125350000D02*
X83850000Y-132600000D01*
X83350000Y-126100000D02*
X83350000Y-124850000D01*
X95750000Y-125350000D02*
X83850000Y-125350000D01*
X83350000Y-124850000D02*
X85350000Y-124850000D01*
X110750000Y-132600000D02*
X110750000Y-125350000D01*
X98350000Y-126100000D02*
X98350000Y-124850000D01*
X110750000Y-125350000D02*
X98850000Y-125350000D01*
X98350000Y-124850000D02*
X100350000Y-124850000D01*
X98850000Y-125350000D02*
X98850000Y-132600000D01*
X98850000Y-132600000D02*
X110750000Y-132600000D01*
X98850000Y-119600000D02*
X110750000Y-119600000D01*
X110750000Y-112350000D02*
X98850000Y-112350000D01*
X110750000Y-119600000D02*
X110750000Y-112350000D01*
X98350000Y-113100000D02*
X98350000Y-111850000D01*
X98850000Y-112350000D02*
X98850000Y-119600000D01*
X98350000Y-111850000D02*
X100350000Y-111850000D01*
X95750000Y-119600000D02*
X95750000Y-112350000D01*
X83350000Y-111850000D02*
X85350000Y-111850000D01*
X83850000Y-112350000D02*
X83850000Y-119600000D01*
X95750000Y-112350000D02*
X83850000Y-112350000D01*
X83350000Y-113100000D02*
X83350000Y-111850000D01*
X83850000Y-119600000D02*
X95750000Y-119600000D01*
X73701000Y-121217800D02*
X75701000Y-121217800D01*
X73701000Y-122417800D02*
X73701000Y-121217800D01*
X75701000Y-121217800D02*
X75701000Y-122417800D01*
X75701000Y-122417800D02*
X73701000Y-122417800D01*
X73881000Y-134637800D02*
X73881000Y-127017800D01*
X76421000Y-134002800D02*
X75786000Y-134637800D01*
X73881000Y-127017800D02*
X76421000Y-127017800D01*
X75786000Y-134637800D02*
X73881000Y-134637800D01*
X76421000Y-127017800D02*
X76421000Y-134002800D01*
X74951000Y-111467800D02*
X76951000Y-111467800D01*
X74951000Y-112667800D02*
X74951000Y-111467800D01*
X76951000Y-111467800D02*
X76951000Y-112667800D01*
X76951000Y-112667800D02*
X74951000Y-112667800D01*
X117718000Y-115969800D02*
X116118000Y-115969800D01*
X116118000Y-115169800D02*
X117718000Y-115169800D01*
X116118000Y-115969800D02*
X116118000Y-115169800D01*
X117718000Y-115169800D02*
X117718000Y-115969800D01*
X120701000Y-110512801D02*
X120401000Y-110812801D01*
X122001000Y-111312801D02*
X122001000Y-110512801D01*
X120401000Y-111312801D02*
X122001000Y-111312801D01*
X120401000Y-110812801D02*
X120401000Y-111312801D01*
X122001000Y-110512801D02*
X120701000Y-110512801D01*
X117718000Y-110512801D02*
X117718000Y-111312801D01*
X116118000Y-111312801D02*
X116118000Y-110512801D01*
X116118000Y-110512801D02*
X117718000Y-110512801D01*
X117718000Y-111312801D02*
X116118000Y-111312801D01*
X120701000Y-115124800D02*
X120401000Y-115424800D01*
X120401000Y-115424800D02*
X120401000Y-115924800D01*
X122001000Y-115124800D02*
X120701000Y-115124800D01*
X122001000Y-115924800D02*
X122001000Y-115124800D01*
X120401000Y-115924800D02*
X122001000Y-115924800D01*
D10*
X92956000Y-77265800D02*
X92956000Y-94005800D01*
X92956000Y-94005800D02*
X91956000Y-95005800D01*
X91956000Y-95005800D02*
X77656000Y-95005800D01*
X77656000Y-95005800D02*
X77656000Y-77265800D01*
X77656000Y-77265800D02*
X92956000Y-77265800D01*
D17*
X81574000Y-97389800D02*
X83174000Y-97389800D01*
X83174000Y-97389800D02*
X83174000Y-98189800D01*
X81574000Y-98189800D02*
X81574000Y-97389800D01*
X83174000Y-98189800D02*
X81574000Y-98189800D01*
X90976000Y-97389800D02*
X90976000Y-98189800D01*
X89376000Y-97389800D02*
X90976000Y-97389800D01*
X90976000Y-98189800D02*
X89376000Y-98189800D01*
X89376000Y-98189800D02*
X89376000Y-97389800D01*
X86001000Y-98189800D02*
X86001000Y-97389800D01*
X87601000Y-98189800D02*
X86001000Y-98189800D01*
X87601000Y-97389800D02*
X87601000Y-98189800D01*
X86001000Y-97389800D02*
X87601000Y-97389800D01*
X78602000Y-98189800D02*
X77002000Y-98189800D01*
X77002000Y-98189800D02*
X77002000Y-97389800D01*
X77002000Y-97389800D02*
X78602000Y-97389800D01*
X78602000Y-97389800D02*
X78602000Y-98189800D01*
X79719000Y-105327800D02*
X79719000Y-101427800D01*
X89619000Y-105327800D02*
X79719000Y-105327800D01*
X89619000Y-102402800D02*
X89619000Y-105327800D01*
X79719000Y-101427800D02*
X88644000Y-101427800D01*
X88644000Y-101427800D02*
X89619000Y-102402800D01*
X90451000Y-106952800D02*
X90451000Y-105952800D01*
X90951000Y-106952800D02*
X90451000Y-106952800D01*
X90451000Y-105952800D02*
X90951000Y-105952800D01*
X90951000Y-105952800D02*
X90951000Y-106952800D01*
X76551000Y-137467800D02*
X76951000Y-137467800D01*
X77551000Y-137467800D02*
X78051000Y-137467800D01*
X76951000Y-137467800D02*
X77551000Y-137067800D01*
X75901000Y-136567800D02*
X78701000Y-136567800D01*
X78701000Y-138367800D02*
X75901000Y-138367800D01*
X77551000Y-137067800D02*
X77551000Y-137867800D01*
X77551000Y-137867800D02*
X76951000Y-137467800D01*
X75901000Y-138367800D02*
X75901000Y-136567800D01*
X76951000Y-137467800D02*
X76951000Y-136917800D01*
X76951000Y-137467800D02*
X76951000Y-138017800D01*
X78701000Y-136567800D02*
X78701000Y-138367800D01*
X94701000Y-109817800D02*
X96301000Y-109817800D01*
X96301000Y-110617800D02*
X94701000Y-110617800D01*
X96301000Y-109817800D02*
X96301000Y-110617800D01*
X94701000Y-110617800D02*
X94701000Y-109817800D01*
X98701000Y-109817800D02*
X100301000Y-109817800D01*
X100301000Y-110617800D02*
X98701000Y-110617800D01*
X100301000Y-109817800D02*
X100301000Y-110617800D01*
X98701000Y-110617800D02*
X98701000Y-109817800D01*
X108101000Y-110617800D02*
X106501000Y-110617800D01*
X108101000Y-109817800D02*
X108101000Y-110617800D01*
X106501000Y-109817800D02*
X108101000Y-109817800D01*
X106501000Y-110617800D02*
X106501000Y-109817800D01*
X75101000Y-120417800D02*
X78801000Y-120417800D01*
X75101000Y-114717800D02*
X75101000Y-120417800D01*
X78801000Y-113717800D02*
X78801000Y-120417800D01*
X76101000Y-113717800D02*
X78801000Y-113717800D01*
X75101000Y-114717800D02*
X76101000Y-113717800D01*
X107701000Y-98967800D02*
X108701000Y-99967800D01*
X95901000Y-98967800D02*
X107701000Y-98967800D01*
X95901000Y-106467800D02*
X95901000Y-98967800D01*
X108701000Y-106467800D02*
X95901000Y-106467800D01*
X108701000Y-99967800D02*
X108701000Y-106467800D01*
X108036000Y-96217800D02*
X107036000Y-96217800D01*
X107036000Y-95717800D02*
X108036000Y-95717800D01*
X107036000Y-96217800D02*
X107036000Y-95717800D01*
X108036000Y-95717800D02*
X108036000Y-96217800D01*
X104601000Y-109817800D02*
X104601000Y-110617800D01*
X103001000Y-110617800D02*
X103001000Y-109817800D01*
X104601000Y-110617800D02*
X103001000Y-110617800D01*
X103001000Y-109817800D02*
X104601000Y-109817800D01*
M02*
