G04 #@! TF.GenerationSoftware,KiCad,Pcbnew,(6.0.5)*
G04 #@! TF.CreationDate,2022-06-02T01:00:37-04:00*
G04 #@! TF.ProjectId,Receiver_Out,52656365-6976-4657-925f-4f75742e6b69,v1*
G04 #@! TF.SameCoordinates,Original*
G04 #@! TF.FileFunction,Soldermask,Top*
G04 #@! TF.FilePolarity,Negative*
%FSLAX46Y46*%
G04 Gerber Fmt 4.6, Leading zero omitted, Abs format (unit mm)*
G04 Created by KiCad (PCBNEW (6.0.5)) date 2022-06-02 01:00:37*
%MOMM*%
%LPD*%
G01*
G04 APERTURE LIST*
G04 Aperture macros list*
%AMRoundRect*
0 Rectangle with rounded corners*
0 $1 Rounding radius*
0 $2 $3 $4 $5 $6 $7 $8 $9 X,Y pos of 4 corners*
0 Add a 4 corners polygon primitive as box body*
4,1,4,$2,$3,$4,$5,$6,$7,$8,$9,$2,$3,0*
0 Add four circle primitives for the rounded corners*
1,1,$1+$1,$2,$3*
1,1,$1+$1,$4,$5*
1,1,$1+$1,$6,$7*
1,1,$1+$1,$8,$9*
0 Add four rect primitives between the rounded corners*
20,1,$1+$1,$2,$3,$4,$5,0*
20,1,$1+$1,$4,$5,$6,$7,0*
20,1,$1+$1,$6,$7,$8,$9,0*
20,1,$1+$1,$8,$9,$2,$3,0*%
G04 Aperture macros list end*
%ADD10C,3.802000*%
%ADD11RoundRect,0.301000X-0.650000X-1.550000X0.650000X-1.550000X0.650000X1.550000X-0.650000X1.550000X0*%
%ADD12O,1.902000X3.702000*%
%ADD13RoundRect,0.051000X1.500000X-1.500000X1.500000X1.500000X-1.500000X1.500000X-1.500000X-1.500000X0*%
%ADD14C,3.102000*%
%ADD15C,2.577000*%
%ADD16RoundRect,0.301000X-0.325000X-0.450000X0.325000X-0.450000X0.325000X0.450000X-0.325000X0.450000X0*%
%ADD17RoundRect,0.051000X0.850000X0.850000X-0.850000X0.850000X-0.850000X-0.850000X0.850000X-0.850000X0*%
%ADD18O,1.802000X1.802000*%
%ADD19RoundRect,0.301000X0.325000X0.450000X-0.325000X0.450000X-0.325000X-0.450000X0.325000X-0.450000X0*%
%ADD20RoundRect,0.288500X-0.287500X-0.237500X0.287500X-0.237500X0.287500X0.237500X-0.287500X0.237500X0*%
%ADD21RoundRect,0.263500X-0.400000X-0.212500X0.400000X-0.212500X0.400000X0.212500X-0.400000X0.212500X0*%
%ADD22C,3.302000*%
%ADD23RoundRect,0.051000X0.750000X0.750000X-0.750000X0.750000X-0.750000X-0.750000X0.750000X-0.750000X0*%
%ADD24C,1.602000*%
%ADD25RoundRect,0.288500X0.287500X0.237500X-0.287500X0.237500X-0.287500X-0.237500X0.287500X-0.237500X0*%
%ADD26RoundRect,0.201000X-0.150000X0.825000X-0.150000X-0.825000X0.150000X-0.825000X0.150000X0.825000X0*%
%ADD27RoundRect,0.198500X-0.172500X0.147500X-0.172500X-0.147500X0.172500X-0.147500X0.172500X0.147500X0*%
%ADD28RoundRect,0.051000X-0.450000X-0.600000X0.450000X-0.600000X0.450000X0.600000X-0.450000X0.600000X0*%
%ADD29RoundRect,0.051000X-1.000000X-0.750000X1.000000X-0.750000X1.000000X0.750000X-1.000000X0.750000X0*%
%ADD30RoundRect,0.051000X-1.000000X-1.900000X1.000000X-1.900000X1.000000X1.900000X-1.000000X1.900000X0*%
%ADD31RoundRect,0.201000X-0.150000X0.875000X-0.150000X-0.875000X0.150000X-0.875000X0.150000X0.875000X0*%
%ADD32RoundRect,0.198500X0.147500X0.172500X-0.147500X0.172500X-0.147500X-0.172500X0.147500X-0.172500X0*%
G04 APERTURE END LIST*
D10*
X72731000Y-142239800D03*
X123531000Y-91439800D03*
X72731000Y-91439800D03*
D11*
X86300000Y-129600000D03*
D12*
X89800000Y-129600000D03*
X93300000Y-129600000D03*
D11*
X101300000Y-129600000D03*
D12*
X104800000Y-129600000D03*
X108300000Y-129600000D03*
D11*
X101300000Y-116600000D03*
D12*
X104800000Y-116600000D03*
X108300000Y-116600000D03*
D11*
X86300000Y-116600000D03*
D12*
X89800000Y-116600000D03*
X93300000Y-116600000D03*
D13*
X117164800Y-132615760D03*
D14*
X117164800Y-124365840D03*
D15*
X94897000Y-150253600D03*
X94897000Y-146553600D03*
X94897000Y-142053600D03*
X94897000Y-138353600D03*
X106073000Y-150253600D03*
X106073000Y-146553600D03*
X106073000Y-142053600D03*
X106073000Y-138353600D03*
X89309000Y-150238600D03*
X89309000Y-146538600D03*
X89309000Y-142038600D03*
X89309000Y-138338600D03*
X100485000Y-150253600D03*
X100485000Y-146553600D03*
X100485000Y-142053600D03*
X100485000Y-138353600D03*
D16*
X73676000Y-121817800D03*
X75726000Y-121817800D03*
D17*
X75151000Y-133367800D03*
D18*
X75151000Y-130827800D03*
X75151000Y-128287800D03*
D19*
X76976000Y-112067800D03*
X74926000Y-112067800D03*
D20*
X116043000Y-115569800D03*
X117793000Y-115569800D03*
D21*
X120388500Y-110912801D03*
X122013500Y-110912801D03*
D20*
X116043000Y-110912801D03*
X117793000Y-110912801D03*
D21*
X120388500Y-115524800D03*
X122013500Y-115524800D03*
D22*
X79591000Y-84885800D03*
X91021000Y-84885800D03*
D23*
X89751000Y-91235800D03*
D24*
X88481000Y-93775800D03*
X87211000Y-91235800D03*
X85941000Y-93775800D03*
X84671000Y-91235800D03*
X83401000Y-93775800D03*
X82131000Y-91235800D03*
X80861000Y-93775800D03*
D25*
X83249000Y-97789800D03*
X81499000Y-97789800D03*
X91051000Y-97789800D03*
X89301000Y-97789800D03*
D20*
X85926000Y-97789800D03*
X87676000Y-97789800D03*
X76927000Y-97789800D03*
X78677000Y-97789800D03*
D26*
X89114000Y-100902800D03*
X87844000Y-100902800D03*
X86574000Y-100902800D03*
X85304000Y-100902800D03*
X84034000Y-100902800D03*
X82764000Y-100902800D03*
X81494000Y-100902800D03*
X80224000Y-100902800D03*
X80224000Y-105852800D03*
X81494000Y-105852800D03*
X82764000Y-105852800D03*
X84034000Y-105852800D03*
X85304000Y-105852800D03*
X86574000Y-105852800D03*
X87844000Y-105852800D03*
X89114000Y-105852800D03*
D27*
X90701000Y-105967800D03*
X90701000Y-106937800D03*
D28*
X75651000Y-137467800D03*
X78951000Y-137467800D03*
D20*
X94626000Y-110217800D03*
X96376000Y-110217800D03*
X98626000Y-110217800D03*
X100376000Y-110217800D03*
D25*
X108176000Y-110217800D03*
X106426000Y-110217800D03*
D29*
X73801000Y-114767800D03*
D30*
X80101000Y-117067800D03*
D29*
X73801000Y-117067800D03*
X73801000Y-119367800D03*
D31*
X108016000Y-98067800D03*
X106746000Y-98067800D03*
X105476000Y-98067800D03*
X104206000Y-98067800D03*
X102936000Y-98067800D03*
X101666000Y-98067800D03*
X100396000Y-98067800D03*
X99126000Y-98067800D03*
X97856000Y-98067800D03*
X96586000Y-98067800D03*
X96586000Y-107367800D03*
X97856000Y-107367800D03*
X99126000Y-107367800D03*
X100396000Y-107367800D03*
X101666000Y-107367800D03*
X102936000Y-107367800D03*
X104206000Y-107367800D03*
X105476000Y-107367800D03*
X106746000Y-107367800D03*
X108016000Y-107367800D03*
D32*
X108021000Y-95967800D03*
X107051000Y-95967800D03*
D25*
X104676000Y-110217800D03*
X102926000Y-110217800D03*
D10*
X123531000Y-142239800D03*
M02*
