G04 #@! TF.GenerationSoftware,KiCad,Pcbnew,(6.0.5)*
G04 #@! TF.CreationDate,2022-06-02T13:00:58-04:00*
G04 #@! TF.ProjectId,PB_16,50425f31-362e-46b6-9963-61645f706362,v5*
G04 #@! TF.SameCoordinates,Original*
G04 #@! TF.FileFunction,OtherDrawing,Comment*
%FSLAX46Y46*%
G04 Gerber Fmt 4.6, Leading zero omitted, Abs format (unit mm)*
G04 Created by KiCad (PCBNEW (6.0.5)) date 2022-06-02 13:00:58*
%MOMM*%
%LPD*%
G01*
G04 APERTURE LIST*
%ADD10C,0.300000*%
%ADD11C,0.120000*%
G04 APERTURE END LIST*
D10*
X99728428Y-90985800D02*
X99583285Y-90913228D01*
X99365571Y-90913228D01*
X99147857Y-90985800D01*
X99002714Y-91130942D01*
X98930142Y-91276085D01*
X98857571Y-91566371D01*
X98857571Y-91784085D01*
X98930142Y-92074371D01*
X99002714Y-92219514D01*
X99147857Y-92364657D01*
X99365571Y-92437228D01*
X99510714Y-92437228D01*
X99728428Y-92364657D01*
X99801000Y-92292085D01*
X99801000Y-91784085D01*
X99510714Y-91784085D01*
X100671857Y-90913228D02*
X100671857Y-91276085D01*
X100309000Y-91130942D02*
X100671857Y-91276085D01*
X101034714Y-91130942D01*
X100454142Y-91566371D02*
X100671857Y-91276085D01*
X100889571Y-91566371D01*
X101833000Y-90913228D02*
X101833000Y-91276085D01*
X101470142Y-91130942D02*
X101833000Y-91276085D01*
X102195857Y-91130942D01*
X101615285Y-91566371D02*
X101833000Y-91276085D01*
X102050714Y-91566371D01*
X102994142Y-90913228D02*
X102994142Y-91276085D01*
X102631285Y-91130942D02*
X102994142Y-91276085D01*
X103357000Y-91130942D01*
X102776428Y-91566371D02*
X102994142Y-91276085D01*
X103211857Y-91566371D01*
D11*
X82101000Y-146017800D02*
X88901000Y-146017800D01*
X82101000Y-145117800D02*
X88901000Y-145117800D01*
X79501000Y-145117800D02*
X72701000Y-145117800D01*
X79501000Y-146017800D02*
X72701000Y-146017800D01*
X89002428Y-145517800D02*
G75*
G03*
X89002428Y-145517800I-3501428J0D01*
G01*
X79601000Y-145517800D02*
G75*
G03*
X79601000Y-145517800I-3500000J0D01*
G01*
X209501000Y-145817800D02*
X216301000Y-145817800D01*
X209501000Y-144917800D02*
X216301000Y-144917800D01*
X206901000Y-144917800D02*
X200101000Y-144917800D01*
X206901000Y-145817800D02*
X200101000Y-145817800D01*
X207002428Y-145417800D02*
G75*
G03*
X207002428Y-145417800I-3501428J0D01*
G01*
X216401000Y-145417800D02*
G75*
G03*
X216401000Y-145417800I-3500000J0D01*
G01*
M02*
