M48
; DRILL file {KiCad (5.1.4)-1} date 12/4/2019 11:15:59 PM
; FORMAT={-:-/ absolute / inch / decimal}
; #@! TF.CreationDate,2019-12-04T23:15:59-05:00
; #@! TF.GenerationSoftware,Kicad,Pcbnew,(5.1.4)-1
; #@! TF.FileFunction,Plated,1,2,PTH
FMAT,2
INCH
T1C0.0157
T2C0.0310
T3C0.0315
T4C0.0354
T5C0.0400
T6C0.0472
T7C0.0512
T8C0.0630
T9C0.0650
%
G90
G05
T1
X3.6083Y-4.3019
X3.7244Y-4.3767
X3.876Y-4.5046
X3.8839Y-4.7231
X4.1772Y-4.1444
X4.4706Y-3.7753
X4.563Y-3.7487
X4.6654Y-3.7251
X4.6969Y-3.3708
X4.6969Y-3.5755
X4.7599Y-3.7094
X4.8563Y-4.357
X4.8622Y-3.6857
X4.9213Y-3.6621
X4.9725Y-3.6424
X5.0099Y-4.479
X5.065Y-4.7231
X5.0847Y-3.9318
X5.2402Y-4.357
X5.2579Y-4.2054
X5.4193Y-4.0913
X5.5Y-4.3708
X5.5965Y-4.9672
X5.6201Y-4.7842
X5.6359Y-4.481
X6.0099Y-3.9338
X6.0709Y-4.3767
X6.2126Y-4.0873
X6.2185Y-4.4259
X6.2205Y-4.7645
X6.5197Y-3.6306
X6.567Y-3.6424
X6.5847Y-4.3668
X6.628Y-4.9318
X6.6339Y-3.6621
X6.7126Y-3.6857
X6.7993Y-3.7172
X6.8229Y-4.5164
X6.8898Y-3.729
X6.9567Y-3.7645
X6.9961Y-3.3393
X7.067Y-3.4653
X7.0748Y-3.796
X7.2796Y-3.4889
X7.3839Y-4.7448
X7.4882Y-4.1877
X7.5906Y-4.0794
X7.8209Y-4.3137
X7.8642Y-5.4279
X8.002Y-5.4239
X8.0197Y-4.4023
X8.2363Y-4.4003
X8.3898Y-3.9436
T2
X6.4001Y-3.861
X6.4001Y-4.161
X6.5001Y-3.861
X6.5001Y-4.161
X6.6001Y-3.861
X6.6001Y-4.161
X6.7001Y-3.861
X6.7001Y-4.161
X6.8001Y-3.861
X6.8001Y-4.161
X6.9001Y-3.861
X6.9001Y-4.161
X7.0001Y-3.861
X7.0001Y-4.161
X7.1001Y-3.861
X7.1001Y-4.161
X7.2001Y-3.861
X7.2001Y-4.161
X7.3001Y-3.861
X7.3001Y-4.161
X4.2643Y-3.861
X4.2643Y-4.161
X4.3643Y-3.861
X4.3643Y-4.161
X4.4643Y-3.861
X4.4643Y-4.161
X4.5643Y-3.861
X4.5643Y-4.161
X4.6643Y-3.861
X4.6643Y-4.161
X4.7643Y-3.861
X4.7643Y-4.161
X4.8643Y-3.861
X4.8643Y-4.161
X4.9643Y-3.861
X4.9643Y-4.161
X5.0643Y-3.861
X5.0643Y-4.161
X5.1643Y-3.861
X5.1643Y-4.161
T3
X4.6005Y-4.284
X4.7005Y-4.284
X4.8005Y-4.284
X4.9005Y-4.284
X5.0005Y-4.284
X5.1005Y-4.284
X5.2005Y-4.284
X5.3005Y-4.284
X3.1339Y-5.0509
X3.1339Y-5.3509
X6.8824Y-4.284
X6.9824Y-4.284
X7.0824Y-4.284
X7.1824Y-4.284
X7.2824Y-4.284
X7.3824Y-4.284
X7.4824Y-4.284
X7.5824Y-4.284
X3.7623Y-4.284
X3.8623Y-4.284
X3.9623Y-4.284
X4.0623Y-4.284
X4.1623Y-4.284
X4.2623Y-4.284
X4.3623Y-4.284
X4.4623Y-4.284
X7.456Y-3.9096
X7.456Y-4.1065
X8.1199Y-5.0479
X8.1199Y-5.3479
X7.7087Y-3.7007
X7.7087Y-4.0007
X6.0428Y-4.284
X6.1428Y-4.284
X6.2428Y-4.284
X6.3428Y-4.284
X6.4428Y-4.284
X6.5428Y-4.284
X6.6428Y-4.284
X6.7428Y-4.284
X5.3245Y-3.9106
X5.3245Y-4.1075
T4
X3.2469Y-4.8309
X3.2469Y-4.9309
X8.1269Y-4.8359
X8.1269Y-4.9359
X7.4315Y-3.7015
X7.5315Y-3.7015
T5
X4.852Y-3.4495
X4.852Y-3.5495
X4.952Y-3.4495
X4.952Y-3.5495
X5.052Y-3.4495
X5.052Y-3.5495
X5.152Y-3.4495
X5.152Y-3.5495
X5.252Y-3.4495
X5.252Y-3.5495
X5.352Y-3.4495
X5.352Y-3.5495
X5.452Y-3.4495
X5.452Y-3.5495
X5.552Y-3.4495
X5.552Y-3.5495
X5.652Y-3.4495
X5.652Y-3.5495
X5.752Y-3.4495
X5.752Y-3.5495
X5.852Y-3.4495
X5.852Y-3.5495
X5.952Y-3.4495
X5.952Y-3.5495
X6.052Y-3.4495
X6.052Y-3.5495
X6.152Y-3.4495
X6.152Y-3.5495
X6.252Y-3.4495
X6.252Y-3.5495
X6.352Y-3.4495
X6.352Y-3.5495
X6.452Y-3.4495
X6.452Y-3.5495
X6.552Y-3.4495
X6.552Y-3.5495
X6.652Y-3.4495
X6.652Y-3.5495
X6.752Y-3.4495
X6.752Y-3.5495
T6
X7.0512Y-4.5906
X7.189Y-4.5906
X7.3268Y-4.5906
X4.689Y-4.5906
X4.8268Y-4.5906
X4.9646Y-4.5906
X5.2795Y-4.5906
X5.4173Y-4.5906
X5.5551Y-4.5906
X6.4606Y-5.1024
X6.5984Y-5.1024
X6.7362Y-5.1024
X5.8701Y-4.5906
X6.0079Y-4.5906
X6.1457Y-4.5906
X7.6417Y-5.1024
X7.7795Y-5.1024
X7.9173Y-5.1024
X4.0984Y-4.5906
X4.2362Y-4.5906
X4.374Y-4.5906
X7.6417Y-4.5906
X7.7795Y-4.5906
X7.9173Y-4.5906
X6.4606Y-4.5906
X6.5984Y-4.5906
X6.7362Y-4.5906
X5.2795Y-5.1024
X5.4173Y-5.1024
X5.5551Y-5.1024
X4.6935Y-5.1024
X4.8313Y-5.1024
X4.9691Y-5.1024
X4.0984Y-5.1024
X4.2362Y-5.1024
X4.374Y-5.1024
X3.5079Y-5.1024
X3.6457Y-5.1024
X3.7835Y-5.1024
X3.5079Y-4.5906
X3.6457Y-4.5906
X3.7835Y-4.5906
X7.0512Y-5.1024
X7.189Y-5.1024
X7.3268Y-5.1024
X5.8701Y-5.1024
X6.0079Y-5.1024
X6.1457Y-5.1024
T7
X7.9365Y-5.6104
X8.1865Y-5.6104
X3.1922Y-5.6141
X3.4422Y-5.6141
T8
X4.6194Y-5.4515
X4.6194Y-5.9515
X6.7657Y-5.4569
X6.7657Y-5.9569
T9
X4.3767Y-5.449
X4.3767Y-5.5946
X4.3767Y-5.7718
X4.3767Y-5.9175
X5.5824Y-5.4488
X5.5824Y-5.5944
X5.5824Y-5.7716
X5.5824Y-5.9173
X6.526Y-5.4488
X6.526Y-5.5944
X6.526Y-5.7716
X6.526Y-5.9173
X6.297Y-5.4488
X6.297Y-5.5944
X6.297Y-5.7716
X6.297Y-5.9173
X5.3462Y-5.4488
X5.3462Y-5.5944
X5.3462Y-5.7716
X5.3462Y-5.9173
X4.1562Y-5.449
X4.1562Y-5.5946
X4.1562Y-5.7718
X4.1562Y-5.9175
X7.0019Y-5.4513
X7.0019Y-5.597
X7.0019Y-5.7742
X7.0019Y-5.9198
X3.7096Y-5.4484
X3.7096Y-5.594
X3.7096Y-5.7712
X3.7096Y-5.9169
X6.0655Y-5.4488
X6.0655Y-5.5944
X6.0655Y-5.7716
X6.0655Y-5.9173
X5.8269Y-5.4488
X5.8269Y-5.5944
X5.8269Y-5.7716
X5.8269Y-5.9173
X7.4465Y-5.4513
X7.4465Y-5.597
X7.4465Y-5.7742
X7.4465Y-5.9198
X3.9357Y-5.449
X3.9357Y-5.5946
X3.9357Y-5.7718
X3.9357Y-5.9175
X7.6665Y-5.4513
X7.6665Y-5.597
X7.6665Y-5.7742
X7.6665Y-5.9198
X5.1052Y-5.4488
X5.1052Y-5.5944
X5.1052Y-5.7716
X5.1052Y-5.9173
X7.2265Y-5.4513
X7.2265Y-5.597
X7.2265Y-5.7742
X7.2265Y-5.9198
X4.8627Y-5.4488
X4.8627Y-5.5944
X4.8627Y-5.7716
X4.8627Y-5.9173
T0
M30
