M48
; DRILL file {KiCad (5.1.10)-1} date 08/29/21 15:26:35
; FORMAT={-:-/ absolute / metric / decimal}
; #@! TF.CreationDate,2021-08-29T15:26:35-04:00
; #@! TF.GenerationSoftware,Kicad,Pcbnew,(5.1.10)-1
; #@! TF.FileFunction,Plated,1,2,PTH
FMAT,2
METRIC
T1C0.400
T2C0.787
T3C0.800
T4C0.900
T5C1.016
T6C1.020
T7C1.200
T8C1.600
T9C1.650
T10C1.700
%
G90
G05
T1
X73.051Y-87.718
X73.051Y-101.718
X77.551Y-133.218
X81.113Y-138.43
X83.145Y-138.43
X84.551Y-110.218
X85.177Y-138.43
X90.801Y-80.218
X91.651Y-109.268
X94.601Y-111.168
X98.451Y-114.418
X98.651Y-119.968
X103.301Y-110.918
X106.101Y-105.268
X109.101Y-110.918
X116.301Y-111.018
X119.301Y-85.618
X119.301Y-90.818
X123.351Y-110.668
X127.251Y-113.768
X128.651Y-119.968
X128.801Y-111.218
X129.151Y-99.868
X133.101Y-110.668
X133.551Y-106.818
X137.651Y-103.918
X139.701Y-111.018
X142.151Y-126.168
X142.751Y-121.518
X143.151Y-113.818
X152.651Y-99.918
X154.201Y-111.168
X157.801Y-103.818
X157.951Y-112.418
X158.001Y-121.018
X161.501Y-111.018
X167.251Y-110.918
X168.351Y-125.268
X173.301Y-114.718
X177.701Y-84.818
X179.301Y-92.818
X179.501Y-88.018
X181.901Y-110.918
X183.301Y-99.918
X184.901Y-88.618
X186.201Y-110.618
X187.551Y-120.518
X190.201Y-106.368
X192.801Y-103.618
X198.651Y-109.568
X199.751Y-137.868
X201.051Y-79.968
X203.251Y-137.768
X203.701Y-111.818
X207.605Y-137.414
X209.201Y-111.768
X216.301Y-86.218
X216.801Y-99.718
T2
X108.313Y-98.069
X108.313Y-105.689
X110.853Y-98.069
X110.853Y-105.689
X113.393Y-98.069
X113.393Y-105.689
X115.933Y-98.069
X115.933Y-105.689
X118.473Y-98.069
X118.473Y-105.689
X121.013Y-98.069
X121.013Y-105.689
X123.553Y-98.069
X123.553Y-105.689
X126.093Y-98.069
X126.093Y-105.689
X128.633Y-98.069
X128.633Y-105.689
X131.173Y-98.069
X131.173Y-105.689
X162.563Y-98.069
X162.563Y-105.689
X165.103Y-98.069
X165.103Y-105.689
X167.643Y-98.069
X167.643Y-105.689
X170.183Y-98.069
X170.183Y-105.689
X172.723Y-98.069
X172.723Y-105.689
X175.263Y-98.069
X175.263Y-105.689
X177.803Y-98.069
X177.803Y-105.689
X180.343Y-98.069
X180.343Y-105.689
X182.883Y-98.069
X182.883Y-105.689
X185.423Y-98.069
X185.423Y-105.689
T3
X72.601Y-128.392
X72.601Y-136.012
X95.561Y-108.814
X98.102Y-108.814
X100.641Y-108.814
X103.181Y-108.814
X105.721Y-108.814
X108.261Y-108.814
X110.801Y-108.814
X113.341Y-108.814
X116.853Y-108.814
X119.393Y-108.814
X121.933Y-108.814
X124.473Y-108.814
X127.013Y-108.814
X129.553Y-108.814
X132.093Y-108.814
X134.633Y-108.814
X135.242Y-99.331
X135.242Y-104.331
X153.486Y-108.814
X156.026Y-108.814
X158.566Y-108.814
X161.106Y-108.814
X163.646Y-108.814
X166.186Y-108.814
X168.726Y-108.814
X171.266Y-108.814
X174.813Y-108.814
X177.353Y-108.814
X179.893Y-108.814
X182.433Y-108.814
X184.973Y-108.814
X187.513Y-108.814
X189.382Y-99.305
X189.382Y-104.305
X190.053Y-108.814
X192.593Y-108.814
X195.801Y-93.998
X195.801Y-101.618
X216.401Y-128.392
X216.401Y-136.012
T4
X72.601Y-122.831
X72.601Y-125.371
X188.761Y-94.018
X191.301Y-94.018
X216.401Y-122.831
X216.401Y-125.371
T5
X123.241Y-87.618
X123.241Y-90.158
X125.781Y-87.618
X125.781Y-90.158
X128.321Y-87.618
X128.321Y-90.158
X130.861Y-87.618
X130.861Y-90.158
X133.401Y-87.618
X133.401Y-90.158
X135.941Y-87.618
X135.941Y-90.158
X138.481Y-87.618
X138.481Y-90.158
X141.021Y-87.618
X141.021Y-90.158
X143.561Y-87.618
X143.561Y-90.158
X146.101Y-87.618
X146.101Y-90.158
X148.641Y-87.618
X148.641Y-90.158
X151.181Y-87.618
X151.181Y-90.158
X153.721Y-87.618
X153.721Y-90.158
X156.261Y-87.618
X156.261Y-90.158
X158.801Y-87.618
X158.801Y-90.158
X161.341Y-87.618
X161.341Y-90.158
X163.881Y-87.618
X163.881Y-90.158
X166.421Y-87.618
X166.421Y-90.158
X168.961Y-87.618
X168.961Y-90.158
X171.501Y-87.618
X171.501Y-90.158
T6
X133.431Y-77.548
X133.431Y-80.088
X135.971Y-77.548
X135.971Y-80.088
X138.511Y-77.548
X138.511Y-80.088
X141.051Y-77.548
X141.051Y-80.088
X143.591Y-77.548
X143.591Y-80.088
X146.131Y-77.548
X146.131Y-80.088
X148.671Y-77.548
X148.671Y-80.088
X151.211Y-77.548
X151.211Y-80.088
X153.751Y-77.548
X153.751Y-80.088
X156.291Y-77.548
X156.291Y-80.088
X158.831Y-77.548
X158.831Y-80.088
X161.371Y-77.548
X161.371Y-80.088
T7
X89.1Y-116.6
X89.1Y-129.6
X92.6Y-116.6
X92.6Y-129.6
X96.1Y-116.6
X96.1Y-129.6
X104.1Y-116.6
X104.1Y-129.6
X107.6Y-116.6
X107.6Y-129.6
X111.1Y-116.6
X111.1Y-129.6
X119.1Y-116.6
X119.214Y-129.6
X122.6Y-116.6
X122.714Y-129.6
X126.1Y-116.6
X126.214Y-129.6
X134.1Y-116.6
X134.1Y-129.6
X137.6Y-116.6
X137.6Y-129.6
X141.1Y-116.6
X141.1Y-129.6
X149.1Y-116.6
X149.1Y-129.6
X152.6Y-116.6
X152.6Y-129.6
X156.1Y-116.6
X156.1Y-129.6
X164.1Y-116.6
X164.1Y-129.6
X167.6Y-116.6
X167.6Y-129.6
X171.1Y-116.6
X171.1Y-129.6
X179.1Y-116.6
X179.1Y-129.6
X182.6Y-116.6
X182.6Y-129.6
X186.1Y-116.6
X186.1Y-129.6
X194.1Y-116.6
X194.1Y-129.6
X197.6Y-116.6
X197.6Y-129.6
X201.1Y-116.6
X201.1Y-129.6
T8
X117.333Y-138.469
X117.333Y-151.169
X171.848Y-138.605
X171.848Y-151.305
T9
X94.223Y-138.389
X94.223Y-142.089
X94.223Y-146.589
X94.223Y-150.289
X99.968Y-138.404
X99.968Y-142.104
X99.968Y-146.604
X99.968Y-150.304
X105.568Y-138.404
X105.568Y-142.104
X105.568Y-146.604
X105.568Y-150.304
X111.168Y-138.404
X111.168Y-142.104
X111.168Y-146.604
X111.168Y-150.304
X123.513Y-138.399
X123.513Y-142.099
X123.513Y-146.599
X123.513Y-150.299
X129.673Y-138.399
X129.673Y-142.099
X129.673Y-146.599
X129.673Y-150.299
X135.793Y-138.399
X135.793Y-142.099
X135.793Y-146.599
X135.793Y-150.299
X141.793Y-138.399
X141.793Y-142.099
X141.793Y-146.599
X141.793Y-150.299
X148.003Y-138.399
X148.003Y-142.099
X148.003Y-146.599
X148.003Y-150.299
X154.063Y-138.399
X154.063Y-142.099
X154.063Y-146.599
X154.063Y-150.299
X159.943Y-138.399
X159.943Y-142.099
X159.943Y-146.599
X159.943Y-150.299
X165.761Y-138.399
X165.761Y-142.099
X165.761Y-146.599
X165.761Y-150.299
X177.848Y-138.464
X177.848Y-142.164
X177.848Y-146.664
X177.848Y-150.364
X183.553Y-138.464
X183.553Y-142.164
X183.553Y-146.664
X183.553Y-150.364
X189.141Y-138.464
X189.141Y-142.164
X189.141Y-146.664
X189.141Y-150.364
X194.729Y-138.464
X194.729Y-142.164
X194.729Y-146.664
X194.729Y-150.364
T10
X76.101Y-145.518
X85.601Y-145.518
X203.401Y-145.418
X212.901Y-145.418
T0
M30
