G04 #@! TF.GenerationSoftware,KiCad,Pcbnew,(6.0.5)*
G04 #@! TF.CreationDate,2022-06-02T13:00:58-04:00*
G04 #@! TF.ProjectId,PB_16,50425f31-362e-46b6-9963-61645f706362,v5*
G04 #@! TF.SameCoordinates,Original*
G04 #@! TF.FileFunction,AssemblyDrawing,Top*
%FSLAX46Y46*%
G04 Gerber Fmt 4.6, Leading zero omitted, Abs format (unit mm)*
G04 Created by KiCad (PCBNEW (6.0.5)) date 2022-06-02 13:00:58*
%MOMM*%
%LPD*%
G01*
G04 APERTURE LIST*
%ADD10C,0.150000*%
%ADD11C,0.050000*%
%ADD12C,0.120000*%
%ADD13C,0.100000*%
%ADD14C,0.152400*%
G04 APERTURE END LIST*
D10*
X189787142Y-101971766D02*
X189834761Y-102019385D01*
X189882380Y-102162242D01*
X189882380Y-102257480D01*
X189834761Y-102400338D01*
X189739523Y-102495576D01*
X189644285Y-102543195D01*
X189453809Y-102590814D01*
X189310952Y-102590814D01*
X189120476Y-102543195D01*
X189025238Y-102495576D01*
X188930000Y-102400338D01*
X188882380Y-102257480D01*
X188882380Y-102162242D01*
X188930000Y-102019385D01*
X188977619Y-101971766D01*
X188977619Y-101590814D02*
X188930000Y-101543195D01*
X188882380Y-101447957D01*
X188882380Y-101209861D01*
X188930000Y-101114623D01*
X188977619Y-101067004D01*
X189072857Y-101019385D01*
X189168095Y-101019385D01*
X189310952Y-101067004D01*
X189882380Y-101638433D01*
X189882380Y-101019385D01*
X90100000Y-134204761D02*
X90242857Y-134252380D01*
X90480952Y-134252380D01*
X90576190Y-134204761D01*
X90623809Y-134157142D01*
X90671428Y-134061904D01*
X90671428Y-133966666D01*
X90623809Y-133871428D01*
X90576190Y-133823809D01*
X90480952Y-133776190D01*
X90290476Y-133728571D01*
X90195238Y-133680952D01*
X90147619Y-133633333D01*
X90100000Y-133538095D01*
X90100000Y-133442857D01*
X90147619Y-133347619D01*
X90195238Y-133300000D01*
X90290476Y-133252380D01*
X90528571Y-133252380D01*
X90671428Y-133300000D01*
X90957142Y-133585714D02*
X91338095Y-133585714D01*
X91100000Y-133252380D02*
X91100000Y-134109523D01*
X91147619Y-134204761D01*
X91242857Y-134252380D01*
X91338095Y-134252380D01*
X91671428Y-134252380D02*
X91671428Y-133585714D01*
X91671428Y-133776190D02*
X91719047Y-133680952D01*
X91766666Y-133633333D01*
X91861904Y-133585714D01*
X91957142Y-133585714D01*
X92290476Y-134252380D02*
X92290476Y-133585714D01*
X92290476Y-133252380D02*
X92242857Y-133300000D01*
X92290476Y-133347619D01*
X92338095Y-133300000D01*
X92290476Y-133252380D01*
X92290476Y-133347619D01*
X92766666Y-133585714D02*
X92766666Y-134252380D01*
X92766666Y-133680952D02*
X92814285Y-133633333D01*
X92909523Y-133585714D01*
X93052380Y-133585714D01*
X93147619Y-133633333D01*
X93195238Y-133728571D01*
X93195238Y-134252380D01*
X94100000Y-133585714D02*
X94100000Y-134395238D01*
X94052380Y-134490476D01*
X94004761Y-134538095D01*
X93909523Y-134585714D01*
X93766666Y-134585714D01*
X93671428Y-134538095D01*
X94100000Y-134204761D02*
X94004761Y-134252380D01*
X93814285Y-134252380D01*
X93719047Y-134204761D01*
X93671428Y-134157142D01*
X93623809Y-134061904D01*
X93623809Y-133776190D01*
X93671428Y-133680952D01*
X93719047Y-133633333D01*
X93814285Y-133585714D01*
X94004761Y-133585714D01*
X94100000Y-133633333D01*
X94528571Y-133347619D02*
X94576190Y-133300000D01*
X94671428Y-133252380D01*
X94909523Y-133252380D01*
X95004761Y-133300000D01*
X95052380Y-133347619D01*
X95100000Y-133442857D01*
X95100000Y-133538095D01*
X95052380Y-133680952D01*
X94480952Y-134252380D01*
X95100000Y-134252380D01*
X91925166Y-126393680D02*
X91925166Y-127107966D01*
X91877547Y-127250823D01*
X91782309Y-127346061D01*
X91639452Y-127393680D01*
X91544214Y-127393680D01*
X92353738Y-126488919D02*
X92401357Y-126441300D01*
X92496595Y-126393680D01*
X92734690Y-126393680D01*
X92829928Y-126441300D01*
X92877547Y-126488919D01*
X92925166Y-126584157D01*
X92925166Y-126679395D01*
X92877547Y-126822252D01*
X92306119Y-127393680D01*
X92925166Y-127393680D01*
X120100000Y-121204761D02*
X120242857Y-121252380D01*
X120480952Y-121252380D01*
X120576190Y-121204761D01*
X120623809Y-121157142D01*
X120671428Y-121061904D01*
X120671428Y-120966666D01*
X120623809Y-120871428D01*
X120576190Y-120823809D01*
X120480952Y-120776190D01*
X120290476Y-120728571D01*
X120195238Y-120680952D01*
X120147619Y-120633333D01*
X120100000Y-120538095D01*
X120100000Y-120442857D01*
X120147619Y-120347619D01*
X120195238Y-120300000D01*
X120290476Y-120252380D01*
X120528571Y-120252380D01*
X120671428Y-120300000D01*
X120957142Y-120585714D02*
X121338095Y-120585714D01*
X121100000Y-120252380D02*
X121100000Y-121109523D01*
X121147619Y-121204761D01*
X121242857Y-121252380D01*
X121338095Y-121252380D01*
X121671428Y-121252380D02*
X121671428Y-120585714D01*
X121671428Y-120776190D02*
X121719047Y-120680952D01*
X121766666Y-120633333D01*
X121861904Y-120585714D01*
X121957142Y-120585714D01*
X122290476Y-121252380D02*
X122290476Y-120585714D01*
X122290476Y-120252380D02*
X122242857Y-120300000D01*
X122290476Y-120347619D01*
X122338095Y-120300000D01*
X122290476Y-120252380D01*
X122290476Y-120347619D01*
X122766666Y-120585714D02*
X122766666Y-121252380D01*
X122766666Y-120680952D02*
X122814285Y-120633333D01*
X122909523Y-120585714D01*
X123052380Y-120585714D01*
X123147619Y-120633333D01*
X123195238Y-120728571D01*
X123195238Y-121252380D01*
X124100000Y-120585714D02*
X124100000Y-121395238D01*
X124052380Y-121490476D01*
X124004761Y-121538095D01*
X123909523Y-121585714D01*
X123766666Y-121585714D01*
X123671428Y-121538095D01*
X124100000Y-121204761D02*
X124004761Y-121252380D01*
X123814285Y-121252380D01*
X123719047Y-121204761D01*
X123671428Y-121157142D01*
X123623809Y-121061904D01*
X123623809Y-120776190D01*
X123671428Y-120680952D01*
X123719047Y-120633333D01*
X123814285Y-120585714D01*
X124004761Y-120585714D01*
X124100000Y-120633333D01*
X125052380Y-120252380D02*
X124576190Y-120252380D01*
X124528571Y-120728571D01*
X124576190Y-120680952D01*
X124671428Y-120633333D01*
X124909523Y-120633333D01*
X125004761Y-120680952D01*
X125052380Y-120728571D01*
X125100000Y-120823809D01*
X125100000Y-121061904D01*
X125052380Y-121157142D01*
X125004761Y-121204761D01*
X124909523Y-121252380D01*
X124671428Y-121252380D01*
X124576190Y-121204761D01*
X124528571Y-121157142D01*
X122266666Y-112502380D02*
X122266666Y-113216666D01*
X122219047Y-113359523D01*
X122123809Y-113454761D01*
X121980952Y-113502380D01*
X121885714Y-113502380D01*
X123219047Y-112502380D02*
X122742857Y-112502380D01*
X122695238Y-112978571D01*
X122742857Y-112930952D01*
X122838095Y-112883333D01*
X123076190Y-112883333D01*
X123171428Y-112930952D01*
X123219047Y-112978571D01*
X123266666Y-113073809D01*
X123266666Y-113311904D01*
X123219047Y-113407142D01*
X123171428Y-113454761D01*
X123076190Y-113502380D01*
X122838095Y-113502380D01*
X122742857Y-113454761D01*
X122695238Y-113407142D01*
X120214342Y-134204761D02*
X120357199Y-134252380D01*
X120595294Y-134252380D01*
X120690532Y-134204761D01*
X120738151Y-134157142D01*
X120785770Y-134061904D01*
X120785770Y-133966666D01*
X120738151Y-133871428D01*
X120690532Y-133823809D01*
X120595294Y-133776190D01*
X120404818Y-133728571D01*
X120309580Y-133680952D01*
X120261961Y-133633333D01*
X120214342Y-133538095D01*
X120214342Y-133442857D01*
X120261961Y-133347619D01*
X120309580Y-133300000D01*
X120404818Y-133252380D01*
X120642913Y-133252380D01*
X120785770Y-133300000D01*
X121071484Y-133585714D02*
X121452437Y-133585714D01*
X121214342Y-133252380D02*
X121214342Y-134109523D01*
X121261961Y-134204761D01*
X121357199Y-134252380D01*
X121452437Y-134252380D01*
X121785770Y-134252380D02*
X121785770Y-133585714D01*
X121785770Y-133776190D02*
X121833389Y-133680952D01*
X121881008Y-133633333D01*
X121976246Y-133585714D01*
X122071484Y-133585714D01*
X122404818Y-134252380D02*
X122404818Y-133585714D01*
X122404818Y-133252380D02*
X122357199Y-133300000D01*
X122404818Y-133347619D01*
X122452437Y-133300000D01*
X122404818Y-133252380D01*
X122404818Y-133347619D01*
X122881008Y-133585714D02*
X122881008Y-134252380D01*
X122881008Y-133680952D02*
X122928627Y-133633333D01*
X123023865Y-133585714D01*
X123166722Y-133585714D01*
X123261961Y-133633333D01*
X123309580Y-133728571D01*
X123309580Y-134252380D01*
X124214342Y-133585714D02*
X124214342Y-134395238D01*
X124166722Y-134490476D01*
X124119103Y-134538095D01*
X124023865Y-134585714D01*
X123881008Y-134585714D01*
X123785770Y-134538095D01*
X124214342Y-134204761D02*
X124119103Y-134252380D01*
X123928627Y-134252380D01*
X123833389Y-134204761D01*
X123785770Y-134157142D01*
X123738151Y-134061904D01*
X123738151Y-133776190D01*
X123785770Y-133680952D01*
X123833389Y-133633333D01*
X123928627Y-133585714D01*
X124119103Y-133585714D01*
X124214342Y-133633333D01*
X125119103Y-133252380D02*
X124928627Y-133252380D01*
X124833389Y-133300000D01*
X124785770Y-133347619D01*
X124690532Y-133490476D01*
X124642913Y-133680952D01*
X124642913Y-134061904D01*
X124690532Y-134157142D01*
X124738151Y-134204761D01*
X124833389Y-134252380D01*
X125023865Y-134252380D01*
X125119103Y-134204761D01*
X125166722Y-134157142D01*
X125214342Y-134061904D01*
X125214342Y-133823809D01*
X125166722Y-133728571D01*
X125119103Y-133680952D01*
X125023865Y-133633333D01*
X124833389Y-133633333D01*
X124738151Y-133680952D01*
X124690532Y-133728571D01*
X124642913Y-133823809D01*
X122381008Y-125502380D02*
X122381008Y-126216666D01*
X122333389Y-126359523D01*
X122238151Y-126454761D01*
X122095294Y-126502380D01*
X122000056Y-126502380D01*
X123285770Y-125502380D02*
X123095294Y-125502380D01*
X123000056Y-125550000D01*
X122952437Y-125597619D01*
X122857199Y-125740476D01*
X122809580Y-125930952D01*
X122809580Y-126311904D01*
X122857199Y-126407142D01*
X122904818Y-126454761D01*
X123000056Y-126502380D01*
X123190532Y-126502380D01*
X123285770Y-126454761D01*
X123333389Y-126407142D01*
X123381008Y-126311904D01*
X123381008Y-126073809D01*
X123333389Y-125978571D01*
X123285770Y-125930952D01*
X123190532Y-125883333D01*
X123000056Y-125883333D01*
X122904818Y-125930952D01*
X122857199Y-125978571D01*
X122809580Y-126073809D01*
X135100000Y-121204761D02*
X135242857Y-121252380D01*
X135480952Y-121252380D01*
X135576190Y-121204761D01*
X135623809Y-121157142D01*
X135671428Y-121061904D01*
X135671428Y-120966666D01*
X135623809Y-120871428D01*
X135576190Y-120823809D01*
X135480952Y-120776190D01*
X135290476Y-120728571D01*
X135195238Y-120680952D01*
X135147619Y-120633333D01*
X135100000Y-120538095D01*
X135100000Y-120442857D01*
X135147619Y-120347619D01*
X135195238Y-120300000D01*
X135290476Y-120252380D01*
X135528571Y-120252380D01*
X135671428Y-120300000D01*
X135957142Y-120585714D02*
X136338095Y-120585714D01*
X136100000Y-120252380D02*
X136100000Y-121109523D01*
X136147619Y-121204761D01*
X136242857Y-121252380D01*
X136338095Y-121252380D01*
X136671428Y-121252380D02*
X136671428Y-120585714D01*
X136671428Y-120776190D02*
X136719047Y-120680952D01*
X136766666Y-120633333D01*
X136861904Y-120585714D01*
X136957142Y-120585714D01*
X137290476Y-121252380D02*
X137290476Y-120585714D01*
X137290476Y-120252380D02*
X137242857Y-120300000D01*
X137290476Y-120347619D01*
X137338095Y-120300000D01*
X137290476Y-120252380D01*
X137290476Y-120347619D01*
X137766666Y-120585714D02*
X137766666Y-121252380D01*
X137766666Y-120680952D02*
X137814285Y-120633333D01*
X137909523Y-120585714D01*
X138052380Y-120585714D01*
X138147619Y-120633333D01*
X138195238Y-120728571D01*
X138195238Y-121252380D01*
X139100000Y-120585714D02*
X139100000Y-121395238D01*
X139052380Y-121490476D01*
X139004761Y-121538095D01*
X138909523Y-121585714D01*
X138766666Y-121585714D01*
X138671428Y-121538095D01*
X139100000Y-121204761D02*
X139004761Y-121252380D01*
X138814285Y-121252380D01*
X138719047Y-121204761D01*
X138671428Y-121157142D01*
X138623809Y-121061904D01*
X138623809Y-120776190D01*
X138671428Y-120680952D01*
X138719047Y-120633333D01*
X138814285Y-120585714D01*
X139004761Y-120585714D01*
X139100000Y-120633333D01*
X139480952Y-120252380D02*
X140147619Y-120252380D01*
X139719047Y-121252380D01*
X137266666Y-112502380D02*
X137266666Y-113216666D01*
X137219047Y-113359523D01*
X137123809Y-113454761D01*
X136980952Y-113502380D01*
X136885714Y-113502380D01*
X137647619Y-112502380D02*
X138314285Y-112502380D01*
X137885714Y-113502380D01*
X135100000Y-134204761D02*
X135242857Y-134252380D01*
X135480952Y-134252380D01*
X135576190Y-134204761D01*
X135623809Y-134157142D01*
X135671428Y-134061904D01*
X135671428Y-133966666D01*
X135623809Y-133871428D01*
X135576190Y-133823809D01*
X135480952Y-133776190D01*
X135290476Y-133728571D01*
X135195238Y-133680952D01*
X135147619Y-133633333D01*
X135100000Y-133538095D01*
X135100000Y-133442857D01*
X135147619Y-133347619D01*
X135195238Y-133300000D01*
X135290476Y-133252380D01*
X135528571Y-133252380D01*
X135671428Y-133300000D01*
X135957142Y-133585714D02*
X136338095Y-133585714D01*
X136100000Y-133252380D02*
X136100000Y-134109523D01*
X136147619Y-134204761D01*
X136242857Y-134252380D01*
X136338095Y-134252380D01*
X136671428Y-134252380D02*
X136671428Y-133585714D01*
X136671428Y-133776190D02*
X136719047Y-133680952D01*
X136766666Y-133633333D01*
X136861904Y-133585714D01*
X136957142Y-133585714D01*
X137290476Y-134252380D02*
X137290476Y-133585714D01*
X137290476Y-133252380D02*
X137242857Y-133300000D01*
X137290476Y-133347619D01*
X137338095Y-133300000D01*
X137290476Y-133252380D01*
X137290476Y-133347619D01*
X137766666Y-133585714D02*
X137766666Y-134252380D01*
X137766666Y-133680952D02*
X137814285Y-133633333D01*
X137909523Y-133585714D01*
X138052380Y-133585714D01*
X138147619Y-133633333D01*
X138195238Y-133728571D01*
X138195238Y-134252380D01*
X139100000Y-133585714D02*
X139100000Y-134395238D01*
X139052380Y-134490476D01*
X139004761Y-134538095D01*
X138909523Y-134585714D01*
X138766666Y-134585714D01*
X138671428Y-134538095D01*
X139100000Y-134204761D02*
X139004761Y-134252380D01*
X138814285Y-134252380D01*
X138719047Y-134204761D01*
X138671428Y-134157142D01*
X138623809Y-134061904D01*
X138623809Y-133776190D01*
X138671428Y-133680952D01*
X138719047Y-133633333D01*
X138814285Y-133585714D01*
X139004761Y-133585714D01*
X139100000Y-133633333D01*
X139719047Y-133680952D02*
X139623809Y-133633333D01*
X139576190Y-133585714D01*
X139528571Y-133490476D01*
X139528571Y-133442857D01*
X139576190Y-133347619D01*
X139623809Y-133300000D01*
X139719047Y-133252380D01*
X139909523Y-133252380D01*
X140004761Y-133300000D01*
X140052380Y-133347619D01*
X140100000Y-133442857D01*
X140100000Y-133490476D01*
X140052380Y-133585714D01*
X140004761Y-133633333D01*
X139909523Y-133680952D01*
X139719047Y-133680952D01*
X139623809Y-133728571D01*
X139576190Y-133776190D01*
X139528571Y-133871428D01*
X139528571Y-134061904D01*
X139576190Y-134157142D01*
X139623809Y-134204761D01*
X139719047Y-134252380D01*
X139909523Y-134252380D01*
X140004761Y-134204761D01*
X140052380Y-134157142D01*
X140100000Y-134061904D01*
X140100000Y-133871428D01*
X140052380Y-133776190D01*
X140004761Y-133728571D01*
X139909523Y-133680952D01*
X137266666Y-125502380D02*
X137266666Y-126216666D01*
X137219047Y-126359523D01*
X137123809Y-126454761D01*
X136980952Y-126502380D01*
X136885714Y-126502380D01*
X137885714Y-125930952D02*
X137790476Y-125883333D01*
X137742857Y-125835714D01*
X137695238Y-125740476D01*
X137695238Y-125692857D01*
X137742857Y-125597619D01*
X137790476Y-125550000D01*
X137885714Y-125502380D01*
X138076190Y-125502380D01*
X138171428Y-125550000D01*
X138219047Y-125597619D01*
X138266666Y-125692857D01*
X138266666Y-125740476D01*
X138219047Y-125835714D01*
X138171428Y-125883333D01*
X138076190Y-125930952D01*
X137885714Y-125930952D01*
X137790476Y-125978571D01*
X137742857Y-126026190D01*
X137695238Y-126121428D01*
X137695238Y-126311904D01*
X137742857Y-126407142D01*
X137790476Y-126454761D01*
X137885714Y-126502380D01*
X138076190Y-126502380D01*
X138171428Y-126454761D01*
X138219047Y-126407142D01*
X138266666Y-126311904D01*
X138266666Y-126121428D01*
X138219047Y-126026190D01*
X138171428Y-125978571D01*
X138076190Y-125930952D01*
X150100000Y-121204761D02*
X150242857Y-121252380D01*
X150480952Y-121252380D01*
X150576190Y-121204761D01*
X150623809Y-121157142D01*
X150671428Y-121061904D01*
X150671428Y-120966666D01*
X150623809Y-120871428D01*
X150576190Y-120823809D01*
X150480952Y-120776190D01*
X150290476Y-120728571D01*
X150195238Y-120680952D01*
X150147619Y-120633333D01*
X150100000Y-120538095D01*
X150100000Y-120442857D01*
X150147619Y-120347619D01*
X150195238Y-120300000D01*
X150290476Y-120252380D01*
X150528571Y-120252380D01*
X150671428Y-120300000D01*
X150957142Y-120585714D02*
X151338095Y-120585714D01*
X151100000Y-120252380D02*
X151100000Y-121109523D01*
X151147619Y-121204761D01*
X151242857Y-121252380D01*
X151338095Y-121252380D01*
X151671428Y-121252380D02*
X151671428Y-120585714D01*
X151671428Y-120776190D02*
X151719047Y-120680952D01*
X151766666Y-120633333D01*
X151861904Y-120585714D01*
X151957142Y-120585714D01*
X152290476Y-121252380D02*
X152290476Y-120585714D01*
X152290476Y-120252380D02*
X152242857Y-120300000D01*
X152290476Y-120347619D01*
X152338095Y-120300000D01*
X152290476Y-120252380D01*
X152290476Y-120347619D01*
X152766666Y-120585714D02*
X152766666Y-121252380D01*
X152766666Y-120680952D02*
X152814285Y-120633333D01*
X152909523Y-120585714D01*
X153052380Y-120585714D01*
X153147619Y-120633333D01*
X153195238Y-120728571D01*
X153195238Y-121252380D01*
X154100000Y-120585714D02*
X154100000Y-121395238D01*
X154052380Y-121490476D01*
X154004761Y-121538095D01*
X153909523Y-121585714D01*
X153766666Y-121585714D01*
X153671428Y-121538095D01*
X154100000Y-121204761D02*
X154004761Y-121252380D01*
X153814285Y-121252380D01*
X153719047Y-121204761D01*
X153671428Y-121157142D01*
X153623809Y-121061904D01*
X153623809Y-120776190D01*
X153671428Y-120680952D01*
X153719047Y-120633333D01*
X153814285Y-120585714D01*
X154004761Y-120585714D01*
X154100000Y-120633333D01*
X154623809Y-121252380D02*
X154814285Y-121252380D01*
X154909523Y-121204761D01*
X154957142Y-121157142D01*
X155052380Y-121014285D01*
X155100000Y-120823809D01*
X155100000Y-120442857D01*
X155052380Y-120347619D01*
X155004761Y-120300000D01*
X154909523Y-120252380D01*
X154719047Y-120252380D01*
X154623809Y-120300000D01*
X154576190Y-120347619D01*
X154528571Y-120442857D01*
X154528571Y-120680952D01*
X154576190Y-120776190D01*
X154623809Y-120823809D01*
X154719047Y-120871428D01*
X154909523Y-120871428D01*
X155004761Y-120823809D01*
X155052380Y-120776190D01*
X155100000Y-120680952D01*
X152266666Y-112502380D02*
X152266666Y-113216666D01*
X152219047Y-113359523D01*
X152123809Y-113454761D01*
X151980952Y-113502380D01*
X151885714Y-113502380D01*
X152790476Y-113502380D02*
X152980952Y-113502380D01*
X153076190Y-113454761D01*
X153123809Y-113407142D01*
X153219047Y-113264285D01*
X153266666Y-113073809D01*
X153266666Y-112692857D01*
X153219047Y-112597619D01*
X153171428Y-112550000D01*
X153076190Y-112502380D01*
X152885714Y-112502380D01*
X152790476Y-112550000D01*
X152742857Y-112597619D01*
X152695238Y-112692857D01*
X152695238Y-112930952D01*
X152742857Y-113026190D01*
X152790476Y-113073809D01*
X152885714Y-113121428D01*
X153076190Y-113121428D01*
X153171428Y-113073809D01*
X153219047Y-113026190D01*
X153266666Y-112930952D01*
X149623809Y-134204761D02*
X149766666Y-134252380D01*
X150004761Y-134252380D01*
X150100000Y-134204761D01*
X150147619Y-134157142D01*
X150195238Y-134061904D01*
X150195238Y-133966666D01*
X150147619Y-133871428D01*
X150100000Y-133823809D01*
X150004761Y-133776190D01*
X149814285Y-133728571D01*
X149719047Y-133680952D01*
X149671428Y-133633333D01*
X149623809Y-133538095D01*
X149623809Y-133442857D01*
X149671428Y-133347619D01*
X149719047Y-133300000D01*
X149814285Y-133252380D01*
X150052380Y-133252380D01*
X150195238Y-133300000D01*
X150480952Y-133585714D02*
X150861904Y-133585714D01*
X150623809Y-133252380D02*
X150623809Y-134109523D01*
X150671428Y-134204761D01*
X150766666Y-134252380D01*
X150861904Y-134252380D01*
X151195238Y-134252380D02*
X151195238Y-133585714D01*
X151195238Y-133776190D02*
X151242857Y-133680952D01*
X151290476Y-133633333D01*
X151385714Y-133585714D01*
X151480952Y-133585714D01*
X151814285Y-134252380D02*
X151814285Y-133585714D01*
X151814285Y-133252380D02*
X151766666Y-133300000D01*
X151814285Y-133347619D01*
X151861904Y-133300000D01*
X151814285Y-133252380D01*
X151814285Y-133347619D01*
X152290476Y-133585714D02*
X152290476Y-134252380D01*
X152290476Y-133680952D02*
X152338095Y-133633333D01*
X152433333Y-133585714D01*
X152576190Y-133585714D01*
X152671428Y-133633333D01*
X152719047Y-133728571D01*
X152719047Y-134252380D01*
X153623809Y-133585714D02*
X153623809Y-134395238D01*
X153576190Y-134490476D01*
X153528571Y-134538095D01*
X153433333Y-134585714D01*
X153290476Y-134585714D01*
X153195238Y-134538095D01*
X153623809Y-134204761D02*
X153528571Y-134252380D01*
X153338095Y-134252380D01*
X153242857Y-134204761D01*
X153195238Y-134157142D01*
X153147619Y-134061904D01*
X153147619Y-133776190D01*
X153195238Y-133680952D01*
X153242857Y-133633333D01*
X153338095Y-133585714D01*
X153528571Y-133585714D01*
X153623809Y-133633333D01*
X154623809Y-134252380D02*
X154052380Y-134252380D01*
X154338095Y-134252380D02*
X154338095Y-133252380D01*
X154242857Y-133395238D01*
X154147619Y-133490476D01*
X154052380Y-133538095D01*
X155242857Y-133252380D02*
X155338095Y-133252380D01*
X155433333Y-133300000D01*
X155480952Y-133347619D01*
X155528571Y-133442857D01*
X155576190Y-133633333D01*
X155576190Y-133871428D01*
X155528571Y-134061904D01*
X155480952Y-134157142D01*
X155433333Y-134204761D01*
X155338095Y-134252380D01*
X155242857Y-134252380D01*
X155147619Y-134204761D01*
X155100000Y-134157142D01*
X155052380Y-134061904D01*
X155004761Y-133871428D01*
X155004761Y-133633333D01*
X155052380Y-133442857D01*
X155100000Y-133347619D01*
X155147619Y-133300000D01*
X155242857Y-133252380D01*
X151790476Y-125502380D02*
X151790476Y-126216666D01*
X151742857Y-126359523D01*
X151647619Y-126454761D01*
X151504761Y-126502380D01*
X151409523Y-126502380D01*
X152790476Y-126502380D02*
X152219047Y-126502380D01*
X152504761Y-126502380D02*
X152504761Y-125502380D01*
X152409523Y-125645238D01*
X152314285Y-125740476D01*
X152219047Y-125788095D01*
X153409523Y-125502380D02*
X153504761Y-125502380D01*
X153600000Y-125550000D01*
X153647619Y-125597619D01*
X153695238Y-125692857D01*
X153742857Y-125883333D01*
X153742857Y-126121428D01*
X153695238Y-126311904D01*
X153647619Y-126407142D01*
X153600000Y-126454761D01*
X153504761Y-126502380D01*
X153409523Y-126502380D01*
X153314285Y-126454761D01*
X153266666Y-126407142D01*
X153219047Y-126311904D01*
X153171428Y-126121428D01*
X153171428Y-125883333D01*
X153219047Y-125692857D01*
X153266666Y-125597619D01*
X153314285Y-125550000D01*
X153409523Y-125502380D01*
X164623809Y-121204761D02*
X164766666Y-121252380D01*
X165004761Y-121252380D01*
X165100000Y-121204761D01*
X165147619Y-121157142D01*
X165195238Y-121061904D01*
X165195238Y-120966666D01*
X165147619Y-120871428D01*
X165100000Y-120823809D01*
X165004761Y-120776190D01*
X164814285Y-120728571D01*
X164719047Y-120680952D01*
X164671428Y-120633333D01*
X164623809Y-120538095D01*
X164623809Y-120442857D01*
X164671428Y-120347619D01*
X164719047Y-120300000D01*
X164814285Y-120252380D01*
X165052380Y-120252380D01*
X165195238Y-120300000D01*
X165480952Y-120585714D02*
X165861904Y-120585714D01*
X165623809Y-120252380D02*
X165623809Y-121109523D01*
X165671428Y-121204761D01*
X165766666Y-121252380D01*
X165861904Y-121252380D01*
X166195238Y-121252380D02*
X166195238Y-120585714D01*
X166195238Y-120776190D02*
X166242857Y-120680952D01*
X166290476Y-120633333D01*
X166385714Y-120585714D01*
X166480952Y-120585714D01*
X166814285Y-121252380D02*
X166814285Y-120585714D01*
X166814285Y-120252380D02*
X166766666Y-120300000D01*
X166814285Y-120347619D01*
X166861904Y-120300000D01*
X166814285Y-120252380D01*
X166814285Y-120347619D01*
X167290476Y-120585714D02*
X167290476Y-121252380D01*
X167290476Y-120680952D02*
X167338095Y-120633333D01*
X167433333Y-120585714D01*
X167576190Y-120585714D01*
X167671428Y-120633333D01*
X167719047Y-120728571D01*
X167719047Y-121252380D01*
X168623809Y-120585714D02*
X168623809Y-121395238D01*
X168576190Y-121490476D01*
X168528571Y-121538095D01*
X168433333Y-121585714D01*
X168290476Y-121585714D01*
X168195238Y-121538095D01*
X168623809Y-121204761D02*
X168528571Y-121252380D01*
X168338095Y-121252380D01*
X168242857Y-121204761D01*
X168195238Y-121157142D01*
X168147619Y-121061904D01*
X168147619Y-120776190D01*
X168195238Y-120680952D01*
X168242857Y-120633333D01*
X168338095Y-120585714D01*
X168528571Y-120585714D01*
X168623809Y-120633333D01*
X169623809Y-121252380D02*
X169052380Y-121252380D01*
X169338095Y-121252380D02*
X169338095Y-120252380D01*
X169242857Y-120395238D01*
X169147619Y-120490476D01*
X169052380Y-120538095D01*
X170576190Y-121252380D02*
X170004761Y-121252380D01*
X170290476Y-121252380D02*
X170290476Y-120252380D01*
X170195238Y-120395238D01*
X170100000Y-120490476D01*
X170004761Y-120538095D01*
X166790476Y-112502380D02*
X166790476Y-113216666D01*
X166742857Y-113359523D01*
X166647619Y-113454761D01*
X166504761Y-113502380D01*
X166409523Y-113502380D01*
X167790476Y-113502380D02*
X167219047Y-113502380D01*
X167504761Y-113502380D02*
X167504761Y-112502380D01*
X167409523Y-112645238D01*
X167314285Y-112740476D01*
X167219047Y-112788095D01*
X168742857Y-113502380D02*
X168171428Y-113502380D01*
X168457142Y-113502380D02*
X168457142Y-112502380D01*
X168361904Y-112645238D01*
X168266666Y-112740476D01*
X168171428Y-112788095D01*
X164623809Y-134204761D02*
X164766666Y-134252380D01*
X165004761Y-134252380D01*
X165100000Y-134204761D01*
X165147619Y-134157142D01*
X165195238Y-134061904D01*
X165195238Y-133966666D01*
X165147619Y-133871428D01*
X165100000Y-133823809D01*
X165004761Y-133776190D01*
X164814285Y-133728571D01*
X164719047Y-133680952D01*
X164671428Y-133633333D01*
X164623809Y-133538095D01*
X164623809Y-133442857D01*
X164671428Y-133347619D01*
X164719047Y-133300000D01*
X164814285Y-133252380D01*
X165052380Y-133252380D01*
X165195238Y-133300000D01*
X165480952Y-133585714D02*
X165861904Y-133585714D01*
X165623809Y-133252380D02*
X165623809Y-134109523D01*
X165671428Y-134204761D01*
X165766666Y-134252380D01*
X165861904Y-134252380D01*
X166195238Y-134252380D02*
X166195238Y-133585714D01*
X166195238Y-133776190D02*
X166242857Y-133680952D01*
X166290476Y-133633333D01*
X166385714Y-133585714D01*
X166480952Y-133585714D01*
X166814285Y-134252380D02*
X166814285Y-133585714D01*
X166814285Y-133252380D02*
X166766666Y-133300000D01*
X166814285Y-133347619D01*
X166861904Y-133300000D01*
X166814285Y-133252380D01*
X166814285Y-133347619D01*
X167290476Y-133585714D02*
X167290476Y-134252380D01*
X167290476Y-133680952D02*
X167338095Y-133633333D01*
X167433333Y-133585714D01*
X167576190Y-133585714D01*
X167671428Y-133633333D01*
X167719047Y-133728571D01*
X167719047Y-134252380D01*
X168623809Y-133585714D02*
X168623809Y-134395238D01*
X168576190Y-134490476D01*
X168528571Y-134538095D01*
X168433333Y-134585714D01*
X168290476Y-134585714D01*
X168195238Y-134538095D01*
X168623809Y-134204761D02*
X168528571Y-134252380D01*
X168338095Y-134252380D01*
X168242857Y-134204761D01*
X168195238Y-134157142D01*
X168147619Y-134061904D01*
X168147619Y-133776190D01*
X168195238Y-133680952D01*
X168242857Y-133633333D01*
X168338095Y-133585714D01*
X168528571Y-133585714D01*
X168623809Y-133633333D01*
X169623809Y-134252380D02*
X169052380Y-134252380D01*
X169338095Y-134252380D02*
X169338095Y-133252380D01*
X169242857Y-133395238D01*
X169147619Y-133490476D01*
X169052380Y-133538095D01*
X170004761Y-133347619D02*
X170052380Y-133300000D01*
X170147619Y-133252380D01*
X170385714Y-133252380D01*
X170480952Y-133300000D01*
X170528571Y-133347619D01*
X170576190Y-133442857D01*
X170576190Y-133538095D01*
X170528571Y-133680952D01*
X169957142Y-134252380D01*
X170576190Y-134252380D01*
X166790476Y-125502380D02*
X166790476Y-126216666D01*
X166742857Y-126359523D01*
X166647619Y-126454761D01*
X166504761Y-126502380D01*
X166409523Y-126502380D01*
X167790476Y-126502380D02*
X167219047Y-126502380D01*
X167504761Y-126502380D02*
X167504761Y-125502380D01*
X167409523Y-125645238D01*
X167314285Y-125740476D01*
X167219047Y-125788095D01*
X168171428Y-125597619D02*
X168219047Y-125550000D01*
X168314285Y-125502380D01*
X168552380Y-125502380D01*
X168647619Y-125550000D01*
X168695238Y-125597619D01*
X168742857Y-125692857D01*
X168742857Y-125788095D01*
X168695238Y-125930952D01*
X168123809Y-126502380D01*
X168742857Y-126502380D01*
X179623809Y-121204761D02*
X179766666Y-121252380D01*
X180004761Y-121252380D01*
X180100000Y-121204761D01*
X180147619Y-121157142D01*
X180195238Y-121061904D01*
X180195238Y-120966666D01*
X180147619Y-120871428D01*
X180100000Y-120823809D01*
X180004761Y-120776190D01*
X179814285Y-120728571D01*
X179719047Y-120680952D01*
X179671428Y-120633333D01*
X179623809Y-120538095D01*
X179623809Y-120442857D01*
X179671428Y-120347619D01*
X179719047Y-120300000D01*
X179814285Y-120252380D01*
X180052380Y-120252380D01*
X180195238Y-120300000D01*
X180480952Y-120585714D02*
X180861904Y-120585714D01*
X180623809Y-120252380D02*
X180623809Y-121109523D01*
X180671428Y-121204761D01*
X180766666Y-121252380D01*
X180861904Y-121252380D01*
X181195238Y-121252380D02*
X181195238Y-120585714D01*
X181195238Y-120776190D02*
X181242857Y-120680952D01*
X181290476Y-120633333D01*
X181385714Y-120585714D01*
X181480952Y-120585714D01*
X181814285Y-121252380D02*
X181814285Y-120585714D01*
X181814285Y-120252380D02*
X181766666Y-120300000D01*
X181814285Y-120347619D01*
X181861904Y-120300000D01*
X181814285Y-120252380D01*
X181814285Y-120347619D01*
X182290476Y-120585714D02*
X182290476Y-121252380D01*
X182290476Y-120680952D02*
X182338095Y-120633333D01*
X182433333Y-120585714D01*
X182576190Y-120585714D01*
X182671428Y-120633333D01*
X182719047Y-120728571D01*
X182719047Y-121252380D01*
X183623809Y-120585714D02*
X183623809Y-121395238D01*
X183576190Y-121490476D01*
X183528571Y-121538095D01*
X183433333Y-121585714D01*
X183290476Y-121585714D01*
X183195238Y-121538095D01*
X183623809Y-121204761D02*
X183528571Y-121252380D01*
X183338095Y-121252380D01*
X183242857Y-121204761D01*
X183195238Y-121157142D01*
X183147619Y-121061904D01*
X183147619Y-120776190D01*
X183195238Y-120680952D01*
X183242857Y-120633333D01*
X183338095Y-120585714D01*
X183528571Y-120585714D01*
X183623809Y-120633333D01*
X184623809Y-121252380D02*
X184052380Y-121252380D01*
X184338095Y-121252380D02*
X184338095Y-120252380D01*
X184242857Y-120395238D01*
X184147619Y-120490476D01*
X184052380Y-120538095D01*
X184957142Y-120252380D02*
X185576190Y-120252380D01*
X185242857Y-120633333D01*
X185385714Y-120633333D01*
X185480952Y-120680952D01*
X185528571Y-120728571D01*
X185576190Y-120823809D01*
X185576190Y-121061904D01*
X185528571Y-121157142D01*
X185480952Y-121204761D01*
X185385714Y-121252380D01*
X185100000Y-121252380D01*
X185004761Y-121204761D01*
X184957142Y-121157142D01*
X181790476Y-112502380D02*
X181790476Y-113216666D01*
X181742857Y-113359523D01*
X181647619Y-113454761D01*
X181504761Y-113502380D01*
X181409523Y-113502380D01*
X182790476Y-113502380D02*
X182219047Y-113502380D01*
X182504761Y-113502380D02*
X182504761Y-112502380D01*
X182409523Y-112645238D01*
X182314285Y-112740476D01*
X182219047Y-112788095D01*
X183123809Y-112502380D02*
X183742857Y-112502380D01*
X183409523Y-112883333D01*
X183552380Y-112883333D01*
X183647619Y-112930952D01*
X183695238Y-112978571D01*
X183742857Y-113073809D01*
X183742857Y-113311904D01*
X183695238Y-113407142D01*
X183647619Y-113454761D01*
X183552380Y-113502380D01*
X183266666Y-113502380D01*
X183171428Y-113454761D01*
X183123809Y-113407142D01*
X179623809Y-134204761D02*
X179766666Y-134252380D01*
X180004761Y-134252380D01*
X180100000Y-134204761D01*
X180147619Y-134157142D01*
X180195238Y-134061904D01*
X180195238Y-133966666D01*
X180147619Y-133871428D01*
X180100000Y-133823809D01*
X180004761Y-133776190D01*
X179814285Y-133728571D01*
X179719047Y-133680952D01*
X179671428Y-133633333D01*
X179623809Y-133538095D01*
X179623809Y-133442857D01*
X179671428Y-133347619D01*
X179719047Y-133300000D01*
X179814285Y-133252380D01*
X180052380Y-133252380D01*
X180195238Y-133300000D01*
X180480952Y-133585714D02*
X180861904Y-133585714D01*
X180623809Y-133252380D02*
X180623809Y-134109523D01*
X180671428Y-134204761D01*
X180766666Y-134252380D01*
X180861904Y-134252380D01*
X181195238Y-134252380D02*
X181195238Y-133585714D01*
X181195238Y-133776190D02*
X181242857Y-133680952D01*
X181290476Y-133633333D01*
X181385714Y-133585714D01*
X181480952Y-133585714D01*
X181814285Y-134252380D02*
X181814285Y-133585714D01*
X181814285Y-133252380D02*
X181766666Y-133300000D01*
X181814285Y-133347619D01*
X181861904Y-133300000D01*
X181814285Y-133252380D01*
X181814285Y-133347619D01*
X182290476Y-133585714D02*
X182290476Y-134252380D01*
X182290476Y-133680952D02*
X182338095Y-133633333D01*
X182433333Y-133585714D01*
X182576190Y-133585714D01*
X182671428Y-133633333D01*
X182719047Y-133728571D01*
X182719047Y-134252380D01*
X183623809Y-133585714D02*
X183623809Y-134395238D01*
X183576190Y-134490476D01*
X183528571Y-134538095D01*
X183433333Y-134585714D01*
X183290476Y-134585714D01*
X183195238Y-134538095D01*
X183623809Y-134204761D02*
X183528571Y-134252380D01*
X183338095Y-134252380D01*
X183242857Y-134204761D01*
X183195238Y-134157142D01*
X183147619Y-134061904D01*
X183147619Y-133776190D01*
X183195238Y-133680952D01*
X183242857Y-133633333D01*
X183338095Y-133585714D01*
X183528571Y-133585714D01*
X183623809Y-133633333D01*
X184623809Y-134252380D02*
X184052380Y-134252380D01*
X184338095Y-134252380D02*
X184338095Y-133252380D01*
X184242857Y-133395238D01*
X184147619Y-133490476D01*
X184052380Y-133538095D01*
X185480952Y-133585714D02*
X185480952Y-134252380D01*
X185242857Y-133204761D02*
X185004761Y-133919047D01*
X185623809Y-133919047D01*
X181790476Y-125502380D02*
X181790476Y-126216666D01*
X181742857Y-126359523D01*
X181647619Y-126454761D01*
X181504761Y-126502380D01*
X181409523Y-126502380D01*
X182790476Y-126502380D02*
X182219047Y-126502380D01*
X182504761Y-126502380D02*
X182504761Y-125502380D01*
X182409523Y-125645238D01*
X182314285Y-125740476D01*
X182219047Y-125788095D01*
X183647619Y-125835714D02*
X183647619Y-126502380D01*
X183409523Y-125454761D02*
X183171428Y-126169047D01*
X183790476Y-126169047D01*
X194623809Y-121204761D02*
X194766666Y-121252380D01*
X195004761Y-121252380D01*
X195100000Y-121204761D01*
X195147619Y-121157142D01*
X195195238Y-121061904D01*
X195195238Y-120966666D01*
X195147619Y-120871428D01*
X195100000Y-120823809D01*
X195004761Y-120776190D01*
X194814285Y-120728571D01*
X194719047Y-120680952D01*
X194671428Y-120633333D01*
X194623809Y-120538095D01*
X194623809Y-120442857D01*
X194671428Y-120347619D01*
X194719047Y-120300000D01*
X194814285Y-120252380D01*
X195052380Y-120252380D01*
X195195238Y-120300000D01*
X195480952Y-120585714D02*
X195861904Y-120585714D01*
X195623809Y-120252380D02*
X195623809Y-121109523D01*
X195671428Y-121204761D01*
X195766666Y-121252380D01*
X195861904Y-121252380D01*
X196195238Y-121252380D02*
X196195238Y-120585714D01*
X196195238Y-120776190D02*
X196242857Y-120680952D01*
X196290476Y-120633333D01*
X196385714Y-120585714D01*
X196480952Y-120585714D01*
X196814285Y-121252380D02*
X196814285Y-120585714D01*
X196814285Y-120252380D02*
X196766666Y-120300000D01*
X196814285Y-120347619D01*
X196861904Y-120300000D01*
X196814285Y-120252380D01*
X196814285Y-120347619D01*
X197290476Y-120585714D02*
X197290476Y-121252380D01*
X197290476Y-120680952D02*
X197338095Y-120633333D01*
X197433333Y-120585714D01*
X197576190Y-120585714D01*
X197671428Y-120633333D01*
X197719047Y-120728571D01*
X197719047Y-121252380D01*
X198623809Y-120585714D02*
X198623809Y-121395238D01*
X198576190Y-121490476D01*
X198528571Y-121538095D01*
X198433333Y-121585714D01*
X198290476Y-121585714D01*
X198195238Y-121538095D01*
X198623809Y-121204761D02*
X198528571Y-121252380D01*
X198338095Y-121252380D01*
X198242857Y-121204761D01*
X198195238Y-121157142D01*
X198147619Y-121061904D01*
X198147619Y-120776190D01*
X198195238Y-120680952D01*
X198242857Y-120633333D01*
X198338095Y-120585714D01*
X198528571Y-120585714D01*
X198623809Y-120633333D01*
X199623809Y-121252380D02*
X199052380Y-121252380D01*
X199338095Y-121252380D02*
X199338095Y-120252380D01*
X199242857Y-120395238D01*
X199147619Y-120490476D01*
X199052380Y-120538095D01*
X200528571Y-120252380D02*
X200052380Y-120252380D01*
X200004761Y-120728571D01*
X200052380Y-120680952D01*
X200147619Y-120633333D01*
X200385714Y-120633333D01*
X200480952Y-120680952D01*
X200528571Y-120728571D01*
X200576190Y-120823809D01*
X200576190Y-121061904D01*
X200528571Y-121157142D01*
X200480952Y-121204761D01*
X200385714Y-121252380D01*
X200147619Y-121252380D01*
X200052380Y-121204761D01*
X200004761Y-121157142D01*
X196790476Y-112502380D02*
X196790476Y-113216666D01*
X196742857Y-113359523D01*
X196647619Y-113454761D01*
X196504761Y-113502380D01*
X196409523Y-113502380D01*
X197790476Y-113502380D02*
X197219047Y-113502380D01*
X197504761Y-113502380D02*
X197504761Y-112502380D01*
X197409523Y-112645238D01*
X197314285Y-112740476D01*
X197219047Y-112788095D01*
X198695238Y-112502380D02*
X198219047Y-112502380D01*
X198171428Y-112978571D01*
X198219047Y-112930952D01*
X198314285Y-112883333D01*
X198552380Y-112883333D01*
X198647619Y-112930952D01*
X198695238Y-112978571D01*
X198742857Y-113073809D01*
X198742857Y-113311904D01*
X198695238Y-113407142D01*
X198647619Y-113454761D01*
X198552380Y-113502380D01*
X198314285Y-113502380D01*
X198219047Y-113454761D01*
X198171428Y-113407142D01*
X194623809Y-134204761D02*
X194766666Y-134252380D01*
X195004761Y-134252380D01*
X195100000Y-134204761D01*
X195147619Y-134157142D01*
X195195238Y-134061904D01*
X195195238Y-133966666D01*
X195147619Y-133871428D01*
X195100000Y-133823809D01*
X195004761Y-133776190D01*
X194814285Y-133728571D01*
X194719047Y-133680952D01*
X194671428Y-133633333D01*
X194623809Y-133538095D01*
X194623809Y-133442857D01*
X194671428Y-133347619D01*
X194719047Y-133300000D01*
X194814285Y-133252380D01*
X195052380Y-133252380D01*
X195195238Y-133300000D01*
X195480952Y-133585714D02*
X195861904Y-133585714D01*
X195623809Y-133252380D02*
X195623809Y-134109523D01*
X195671428Y-134204761D01*
X195766666Y-134252380D01*
X195861904Y-134252380D01*
X196195238Y-134252380D02*
X196195238Y-133585714D01*
X196195238Y-133776190D02*
X196242857Y-133680952D01*
X196290476Y-133633333D01*
X196385714Y-133585714D01*
X196480952Y-133585714D01*
X196814285Y-134252380D02*
X196814285Y-133585714D01*
X196814285Y-133252380D02*
X196766666Y-133300000D01*
X196814285Y-133347619D01*
X196861904Y-133300000D01*
X196814285Y-133252380D01*
X196814285Y-133347619D01*
X197290476Y-133585714D02*
X197290476Y-134252380D01*
X197290476Y-133680952D02*
X197338095Y-133633333D01*
X197433333Y-133585714D01*
X197576190Y-133585714D01*
X197671428Y-133633333D01*
X197719047Y-133728571D01*
X197719047Y-134252380D01*
X198623809Y-133585714D02*
X198623809Y-134395238D01*
X198576190Y-134490476D01*
X198528571Y-134538095D01*
X198433333Y-134585714D01*
X198290476Y-134585714D01*
X198195238Y-134538095D01*
X198623809Y-134204761D02*
X198528571Y-134252380D01*
X198338095Y-134252380D01*
X198242857Y-134204761D01*
X198195238Y-134157142D01*
X198147619Y-134061904D01*
X198147619Y-133776190D01*
X198195238Y-133680952D01*
X198242857Y-133633333D01*
X198338095Y-133585714D01*
X198528571Y-133585714D01*
X198623809Y-133633333D01*
X199623809Y-134252380D02*
X199052380Y-134252380D01*
X199338095Y-134252380D02*
X199338095Y-133252380D01*
X199242857Y-133395238D01*
X199147619Y-133490476D01*
X199052380Y-133538095D01*
X200480952Y-133252380D02*
X200290476Y-133252380D01*
X200195238Y-133300000D01*
X200147619Y-133347619D01*
X200052380Y-133490476D01*
X200004761Y-133680952D01*
X200004761Y-134061904D01*
X200052380Y-134157142D01*
X200100000Y-134204761D01*
X200195238Y-134252380D01*
X200385714Y-134252380D01*
X200480952Y-134204761D01*
X200528571Y-134157142D01*
X200576190Y-134061904D01*
X200576190Y-133823809D01*
X200528571Y-133728571D01*
X200480952Y-133680952D01*
X200385714Y-133633333D01*
X200195238Y-133633333D01*
X200100000Y-133680952D01*
X200052380Y-133728571D01*
X200004761Y-133823809D01*
X196790476Y-125502380D02*
X196790476Y-126216666D01*
X196742857Y-126359523D01*
X196647619Y-126454761D01*
X196504761Y-126502380D01*
X196409523Y-126502380D01*
X197790476Y-126502380D02*
X197219047Y-126502380D01*
X197504761Y-126502380D02*
X197504761Y-125502380D01*
X197409523Y-125645238D01*
X197314285Y-125740476D01*
X197219047Y-125788095D01*
X198647619Y-125502380D02*
X198457142Y-125502380D01*
X198361904Y-125550000D01*
X198314285Y-125597619D01*
X198219047Y-125740476D01*
X198171428Y-125930952D01*
X198171428Y-126311904D01*
X198219047Y-126407142D01*
X198266666Y-126454761D01*
X198361904Y-126502380D01*
X198552380Y-126502380D01*
X198647619Y-126454761D01*
X198695238Y-126407142D01*
X198742857Y-126311904D01*
X198742857Y-126073809D01*
X198695238Y-125978571D01*
X198647619Y-125930952D01*
X198552380Y-125883333D01*
X198361904Y-125883333D01*
X198266666Y-125930952D01*
X198219047Y-125978571D01*
X198171428Y-126073809D01*
X184874980Y-98830600D02*
X185113076Y-98830600D01*
X185017838Y-99068695D02*
X185113076Y-98830600D01*
X185017838Y-98592504D01*
X185303552Y-98973457D02*
X185113076Y-98830600D01*
X185303552Y-98687742D01*
D11*
X96314880Y-147088842D02*
X96314880Y-146469795D01*
X96695833Y-146803128D01*
X96695833Y-146660271D01*
X96743452Y-146565033D01*
X96791071Y-146517414D01*
X96886309Y-146469795D01*
X97124404Y-146469795D01*
X97219642Y-146517414D01*
X97267261Y-146565033D01*
X97314880Y-146660271D01*
X97314880Y-146945985D01*
X97267261Y-147041223D01*
X97219642Y-147088842D01*
X96314880Y-145565033D02*
X96314880Y-146041223D01*
X96791071Y-146088842D01*
X96743452Y-146041223D01*
X96695833Y-145945985D01*
X96695833Y-145707890D01*
X96743452Y-145612652D01*
X96791071Y-145565033D01*
X96886309Y-145517414D01*
X97124404Y-145517414D01*
X97219642Y-145565033D01*
X97267261Y-145612652D01*
X97314880Y-145707890D01*
X97314880Y-145945985D01*
X97267261Y-146041223D01*
X97219642Y-146088842D01*
X96648214Y-144660271D02*
X97314880Y-144660271D01*
X96267261Y-144898366D02*
X96981547Y-145136461D01*
X96981547Y-144517414D01*
X96648214Y-143707890D02*
X97314880Y-143707890D01*
X96267261Y-143945985D02*
X96981547Y-144184080D01*
X96981547Y-143565033D01*
X96933928Y-143184080D02*
X96933928Y-142422176D01*
X96410119Y-141993604D02*
X96362500Y-141945985D01*
X96314880Y-141850747D01*
X96314880Y-141612652D01*
X96362500Y-141517414D01*
X96410119Y-141469795D01*
X96505357Y-141422176D01*
X96600595Y-141422176D01*
X96743452Y-141469795D01*
X97314880Y-142041223D01*
X97314880Y-141422176D01*
X138068380Y-147186142D02*
X138068380Y-146567095D01*
X138449333Y-146900428D01*
X138449333Y-146757571D01*
X138496952Y-146662333D01*
X138544571Y-146614714D01*
X138639809Y-146567095D01*
X138877904Y-146567095D01*
X138973142Y-146614714D01*
X139020761Y-146662333D01*
X139068380Y-146757571D01*
X139068380Y-147043285D01*
X139020761Y-147138523D01*
X138973142Y-147186142D01*
X138068380Y-145662333D02*
X138068380Y-146138523D01*
X138544571Y-146186142D01*
X138496952Y-146138523D01*
X138449333Y-146043285D01*
X138449333Y-145805190D01*
X138496952Y-145709952D01*
X138544571Y-145662333D01*
X138639809Y-145614714D01*
X138877904Y-145614714D01*
X138973142Y-145662333D01*
X139020761Y-145709952D01*
X139068380Y-145805190D01*
X139068380Y-146043285D01*
X139020761Y-146138523D01*
X138973142Y-146186142D01*
X138401714Y-144757571D02*
X139068380Y-144757571D01*
X138020761Y-144995666D02*
X138735047Y-145233761D01*
X138735047Y-144614714D01*
X138401714Y-143805190D02*
X139068380Y-143805190D01*
X138020761Y-144043285D02*
X138735047Y-144281380D01*
X138735047Y-143662333D01*
X138687428Y-143281380D02*
X138687428Y-142519476D01*
X138163619Y-142090904D02*
X138116000Y-142043285D01*
X138068380Y-141948047D01*
X138068380Y-141709952D01*
X138116000Y-141614714D01*
X138163619Y-141567095D01*
X138258857Y-141519476D01*
X138354095Y-141519476D01*
X138496952Y-141567095D01*
X139068380Y-142138523D01*
X139068380Y-141519476D01*
X185404280Y-146775742D02*
X185404280Y-146156695D01*
X185785233Y-146490028D01*
X185785233Y-146347171D01*
X185832852Y-146251933D01*
X185880471Y-146204314D01*
X185975709Y-146156695D01*
X186213804Y-146156695D01*
X186309042Y-146204314D01*
X186356661Y-146251933D01*
X186404280Y-146347171D01*
X186404280Y-146632885D01*
X186356661Y-146728123D01*
X186309042Y-146775742D01*
X185404280Y-145251933D02*
X185404280Y-145728123D01*
X185880471Y-145775742D01*
X185832852Y-145728123D01*
X185785233Y-145632885D01*
X185785233Y-145394790D01*
X185832852Y-145299552D01*
X185880471Y-145251933D01*
X185975709Y-145204314D01*
X186213804Y-145204314D01*
X186309042Y-145251933D01*
X186356661Y-145299552D01*
X186404280Y-145394790D01*
X186404280Y-145632885D01*
X186356661Y-145728123D01*
X186309042Y-145775742D01*
X185737614Y-144347171D02*
X186404280Y-144347171D01*
X185356661Y-144585266D02*
X186070947Y-144823361D01*
X186070947Y-144204314D01*
X185737614Y-143394790D02*
X186404280Y-143394790D01*
X185356661Y-143632885D02*
X186070947Y-143870980D01*
X186070947Y-143251933D01*
X186023328Y-142870980D02*
X186023328Y-142109076D01*
X185499519Y-141680504D02*
X185451900Y-141632885D01*
X185404280Y-141537647D01*
X185404280Y-141299552D01*
X185451900Y-141204314D01*
X185499519Y-141156695D01*
X185594757Y-141109076D01*
X185689995Y-141109076D01*
X185832852Y-141156695D01*
X186404280Y-141728123D01*
X186404280Y-141109076D01*
D10*
X175972361Y-148645476D02*
X176019980Y-148502619D01*
X176019980Y-148264523D01*
X175972361Y-148169285D01*
X175924742Y-148121666D01*
X175829504Y-148074047D01*
X175734266Y-148074047D01*
X175639028Y-148121666D01*
X175591409Y-148169285D01*
X175543790Y-148264523D01*
X175496171Y-148455000D01*
X175448552Y-148550238D01*
X175400933Y-148597857D01*
X175305695Y-148645476D01*
X175210457Y-148645476D01*
X175115219Y-148597857D01*
X175067600Y-148550238D01*
X175019980Y-148455000D01*
X175019980Y-148216904D01*
X175067600Y-148074047D01*
X175496171Y-147312142D02*
X175543790Y-147169285D01*
X175591409Y-147121666D01*
X175686647Y-147074047D01*
X175829504Y-147074047D01*
X175924742Y-147121666D01*
X175972361Y-147169285D01*
X176019980Y-147264523D01*
X176019980Y-147645476D01*
X175019980Y-147645476D01*
X175019980Y-147312142D01*
X175067600Y-147216904D01*
X175115219Y-147169285D01*
X175210457Y-147121666D01*
X175305695Y-147121666D01*
X175400933Y-147169285D01*
X175448552Y-147216904D01*
X175496171Y-147312142D01*
X175496171Y-147645476D01*
X175019980Y-146169285D02*
X175019980Y-146645476D01*
X175496171Y-146693095D01*
X175448552Y-146645476D01*
X175400933Y-146550238D01*
X175400933Y-146312142D01*
X175448552Y-146216904D01*
X175496171Y-146169285D01*
X175591409Y-146121666D01*
X175829504Y-146121666D01*
X175924742Y-146169285D01*
X175972361Y-146216904D01*
X176019980Y-146312142D01*
X176019980Y-146550238D01*
X175972361Y-146645476D01*
X175924742Y-146693095D01*
X176019980Y-145169285D02*
X176019980Y-145740714D01*
X176019980Y-145455000D02*
X175019980Y-145455000D01*
X175162838Y-145550238D01*
X175258076Y-145645476D01*
X175305695Y-145740714D01*
X175019980Y-144550238D02*
X175019980Y-144455000D01*
X175067600Y-144359761D01*
X175115219Y-144312142D01*
X175210457Y-144264523D01*
X175400933Y-144216904D01*
X175639028Y-144216904D01*
X175829504Y-144264523D01*
X175924742Y-144312142D01*
X175972361Y-144359761D01*
X176019980Y-144455000D01*
X176019980Y-144550238D01*
X175972361Y-144645476D01*
X175924742Y-144693095D01*
X175829504Y-144740714D01*
X175639028Y-144788333D01*
X175400933Y-144788333D01*
X175210457Y-144740714D01*
X175115219Y-144693095D01*
X175067600Y-144645476D01*
X175019980Y-144550238D01*
X175019980Y-143597857D02*
X175019980Y-143502619D01*
X175067600Y-143407380D01*
X175115219Y-143359761D01*
X175210457Y-143312142D01*
X175400933Y-143264523D01*
X175639028Y-143264523D01*
X175829504Y-143312142D01*
X175924742Y-143359761D01*
X175972361Y-143407380D01*
X176019980Y-143502619D01*
X176019980Y-143597857D01*
X175972361Y-143693095D01*
X175924742Y-143740714D01*
X175829504Y-143788333D01*
X175639028Y-143835952D01*
X175400933Y-143835952D01*
X175210457Y-143788333D01*
X175115219Y-143740714D01*
X175067600Y-143693095D01*
X175019980Y-143597857D01*
X175639028Y-142835952D02*
X175639028Y-142074047D01*
X175019980Y-141740714D02*
X175019980Y-141169285D01*
X176019980Y-141455000D02*
X175019980Y-141455000D01*
X172299980Y-144980595D02*
X171299980Y-144980595D01*
X171299980Y-144742500D01*
X171347600Y-144599642D01*
X171442838Y-144504404D01*
X171538076Y-144456785D01*
X171728552Y-144409166D01*
X171871409Y-144409166D01*
X172061885Y-144456785D01*
X172157123Y-144504404D01*
X172252361Y-144599642D01*
X172299980Y-144742500D01*
X172299980Y-144980595D01*
X171395219Y-144028214D02*
X171347600Y-143980595D01*
X171299980Y-143885357D01*
X171299980Y-143647261D01*
X171347600Y-143552023D01*
X171395219Y-143504404D01*
X171490457Y-143456785D01*
X171585695Y-143456785D01*
X171728552Y-143504404D01*
X172299980Y-144075833D01*
X172299980Y-143456785D01*
X173935695Y-151657380D02*
X173935695Y-150657380D01*
X174507123Y-151657380D02*
X174078552Y-151085952D01*
X174507123Y-150657380D02*
X173935695Y-151228809D01*
X135643342Y-102013066D02*
X135690961Y-102060685D01*
X135738580Y-102203542D01*
X135738580Y-102298780D01*
X135690961Y-102441638D01*
X135595723Y-102536876D01*
X135500485Y-102584495D01*
X135310009Y-102632114D01*
X135167152Y-102632114D01*
X134976676Y-102584495D01*
X134881438Y-102536876D01*
X134786200Y-102441638D01*
X134738580Y-102298780D01*
X134738580Y-102203542D01*
X134786200Y-102060685D01*
X134833819Y-102013066D01*
X135738580Y-101060685D02*
X135738580Y-101632114D01*
X135738580Y-101346400D02*
X134738580Y-101346400D01*
X134881438Y-101441638D01*
X134976676Y-101536876D01*
X135024295Y-101632114D01*
D11*
X102169980Y-147241942D02*
X102169980Y-146622895D01*
X102550933Y-146956228D01*
X102550933Y-146813371D01*
X102598552Y-146718133D01*
X102646171Y-146670514D01*
X102741409Y-146622895D01*
X102979504Y-146622895D01*
X103074742Y-146670514D01*
X103122361Y-146718133D01*
X103169980Y-146813371D01*
X103169980Y-147099085D01*
X103122361Y-147194323D01*
X103074742Y-147241942D01*
X102169980Y-145718133D02*
X102169980Y-146194323D01*
X102646171Y-146241942D01*
X102598552Y-146194323D01*
X102550933Y-146099085D01*
X102550933Y-145860990D01*
X102598552Y-145765752D01*
X102646171Y-145718133D01*
X102741409Y-145670514D01*
X102979504Y-145670514D01*
X103074742Y-145718133D01*
X103122361Y-145765752D01*
X103169980Y-145860990D01*
X103169980Y-146099085D01*
X103122361Y-146194323D01*
X103074742Y-146241942D01*
X102503314Y-144813371D02*
X103169980Y-144813371D01*
X102122361Y-145051466D02*
X102836647Y-145289561D01*
X102836647Y-144670514D01*
X102503314Y-143860990D02*
X103169980Y-143860990D01*
X102122361Y-144099085D02*
X102836647Y-144337180D01*
X102836647Y-143718133D01*
X102789028Y-143337180D02*
X102789028Y-142575276D01*
X102265219Y-142146704D02*
X102217600Y-142099085D01*
X102169980Y-142003847D01*
X102169980Y-141765752D01*
X102217600Y-141670514D01*
X102265219Y-141622895D01*
X102360457Y-141575276D01*
X102455695Y-141575276D01*
X102598552Y-141622895D01*
X103169980Y-142194323D01*
X103169980Y-141575276D01*
X132299980Y-147248042D02*
X132299980Y-146628995D01*
X132680933Y-146962328D01*
X132680933Y-146819471D01*
X132728552Y-146724233D01*
X132776171Y-146676614D01*
X132871409Y-146628995D01*
X133109504Y-146628995D01*
X133204742Y-146676614D01*
X133252361Y-146724233D01*
X133299980Y-146819471D01*
X133299980Y-147105185D01*
X133252361Y-147200423D01*
X133204742Y-147248042D01*
X132299980Y-145724233D02*
X132299980Y-146200423D01*
X132776171Y-146248042D01*
X132728552Y-146200423D01*
X132680933Y-146105185D01*
X132680933Y-145867090D01*
X132728552Y-145771852D01*
X132776171Y-145724233D01*
X132871409Y-145676614D01*
X133109504Y-145676614D01*
X133204742Y-145724233D01*
X133252361Y-145771852D01*
X133299980Y-145867090D01*
X133299980Y-146105185D01*
X133252361Y-146200423D01*
X133204742Y-146248042D01*
X132633314Y-144819471D02*
X133299980Y-144819471D01*
X132252361Y-145057566D02*
X132966647Y-145295661D01*
X132966647Y-144676614D01*
X132633314Y-143867090D02*
X133299980Y-143867090D01*
X132252361Y-144105185D02*
X132966647Y-144343280D01*
X132966647Y-143724233D01*
X132919028Y-143343280D02*
X132919028Y-142581376D01*
X132395219Y-142152804D02*
X132347600Y-142105185D01*
X132299980Y-142009947D01*
X132299980Y-141771852D01*
X132347600Y-141676614D01*
X132395219Y-141628995D01*
X132490457Y-141581376D01*
X132585695Y-141581376D01*
X132728552Y-141628995D01*
X133299980Y-142200423D01*
X133299980Y-141581376D01*
X143893480Y-146710742D02*
X143893480Y-146091695D01*
X144274433Y-146425028D01*
X144274433Y-146282171D01*
X144322052Y-146186933D01*
X144369671Y-146139314D01*
X144464909Y-146091695D01*
X144703004Y-146091695D01*
X144798242Y-146139314D01*
X144845861Y-146186933D01*
X144893480Y-146282171D01*
X144893480Y-146567885D01*
X144845861Y-146663123D01*
X144798242Y-146710742D01*
X143893480Y-145186933D02*
X143893480Y-145663123D01*
X144369671Y-145710742D01*
X144322052Y-145663123D01*
X144274433Y-145567885D01*
X144274433Y-145329790D01*
X144322052Y-145234552D01*
X144369671Y-145186933D01*
X144464909Y-145139314D01*
X144703004Y-145139314D01*
X144798242Y-145186933D01*
X144845861Y-145234552D01*
X144893480Y-145329790D01*
X144893480Y-145567885D01*
X144845861Y-145663123D01*
X144798242Y-145710742D01*
X144226814Y-144282171D02*
X144893480Y-144282171D01*
X143845861Y-144520266D02*
X144560147Y-144758361D01*
X144560147Y-144139314D01*
X144226814Y-143329790D02*
X144893480Y-143329790D01*
X143845861Y-143567885D02*
X144560147Y-143805980D01*
X144560147Y-143186933D01*
X144512528Y-142805980D02*
X144512528Y-142044076D01*
X143988719Y-141615504D02*
X143941100Y-141567885D01*
X143893480Y-141472647D01*
X143893480Y-141234552D01*
X143941100Y-141139314D01*
X143988719Y-141091695D01*
X144083957Y-141044076D01*
X144179195Y-141044076D01*
X144322052Y-141091695D01*
X144893480Y-141663123D01*
X144893480Y-141044076D01*
X150772880Y-146060742D02*
X150772880Y-145441695D01*
X151153833Y-145775028D01*
X151153833Y-145632171D01*
X151201452Y-145536933D01*
X151249071Y-145489314D01*
X151344309Y-145441695D01*
X151582404Y-145441695D01*
X151677642Y-145489314D01*
X151725261Y-145536933D01*
X151772880Y-145632171D01*
X151772880Y-145917885D01*
X151725261Y-146013123D01*
X151677642Y-146060742D01*
X150772880Y-144536933D02*
X150772880Y-145013123D01*
X151249071Y-145060742D01*
X151201452Y-145013123D01*
X151153833Y-144917885D01*
X151153833Y-144679790D01*
X151201452Y-144584552D01*
X151249071Y-144536933D01*
X151344309Y-144489314D01*
X151582404Y-144489314D01*
X151677642Y-144536933D01*
X151725261Y-144584552D01*
X151772880Y-144679790D01*
X151772880Y-144917885D01*
X151725261Y-145013123D01*
X151677642Y-145060742D01*
X151106214Y-143632171D02*
X151772880Y-143632171D01*
X150725261Y-143870266D02*
X151439547Y-144108361D01*
X151439547Y-143489314D01*
X151106214Y-142679790D02*
X151772880Y-142679790D01*
X150725261Y-142917885D02*
X151439547Y-143155980D01*
X151439547Y-142536933D01*
X151391928Y-142155980D02*
X151391928Y-141394076D01*
X150868119Y-140965504D02*
X150820500Y-140917885D01*
X150772880Y-140822647D01*
X150772880Y-140584552D01*
X150820500Y-140489314D01*
X150868119Y-140441695D01*
X150963357Y-140394076D01*
X151058595Y-140394076D01*
X151201452Y-140441695D01*
X151772880Y-141013123D01*
X151772880Y-140394076D01*
X156414980Y-147110742D02*
X156414980Y-146491695D01*
X156795933Y-146825028D01*
X156795933Y-146682171D01*
X156843552Y-146586933D01*
X156891171Y-146539314D01*
X156986409Y-146491695D01*
X157224504Y-146491695D01*
X157319742Y-146539314D01*
X157367361Y-146586933D01*
X157414980Y-146682171D01*
X157414980Y-146967885D01*
X157367361Y-147063123D01*
X157319742Y-147110742D01*
X156414980Y-145586933D02*
X156414980Y-146063123D01*
X156891171Y-146110742D01*
X156843552Y-146063123D01*
X156795933Y-145967885D01*
X156795933Y-145729790D01*
X156843552Y-145634552D01*
X156891171Y-145586933D01*
X156986409Y-145539314D01*
X157224504Y-145539314D01*
X157319742Y-145586933D01*
X157367361Y-145634552D01*
X157414980Y-145729790D01*
X157414980Y-145967885D01*
X157367361Y-146063123D01*
X157319742Y-146110742D01*
X156748314Y-144682171D02*
X157414980Y-144682171D01*
X156367361Y-144920266D02*
X157081647Y-145158361D01*
X157081647Y-144539314D01*
X156748314Y-143729790D02*
X157414980Y-143729790D01*
X156367361Y-143967885D02*
X157081647Y-144205980D01*
X157081647Y-143586933D01*
X157034028Y-143205980D02*
X157034028Y-142444076D01*
X156510219Y-142015504D02*
X156462600Y-141967885D01*
X156414980Y-141872647D01*
X156414980Y-141634552D01*
X156462600Y-141539314D01*
X156510219Y-141491695D01*
X156605457Y-141444076D01*
X156700695Y-141444076D01*
X156843552Y-141491695D01*
X157414980Y-142063123D01*
X157414980Y-141444076D01*
X196576380Y-147475742D02*
X196576380Y-146856695D01*
X196957333Y-147190028D01*
X196957333Y-147047171D01*
X197004952Y-146951933D01*
X197052571Y-146904314D01*
X197147809Y-146856695D01*
X197385904Y-146856695D01*
X197481142Y-146904314D01*
X197528761Y-146951933D01*
X197576380Y-147047171D01*
X197576380Y-147332885D01*
X197528761Y-147428123D01*
X197481142Y-147475742D01*
X196576380Y-145951933D02*
X196576380Y-146428123D01*
X197052571Y-146475742D01*
X197004952Y-146428123D01*
X196957333Y-146332885D01*
X196957333Y-146094790D01*
X197004952Y-145999552D01*
X197052571Y-145951933D01*
X197147809Y-145904314D01*
X197385904Y-145904314D01*
X197481142Y-145951933D01*
X197528761Y-145999552D01*
X197576380Y-146094790D01*
X197576380Y-146332885D01*
X197528761Y-146428123D01*
X197481142Y-146475742D01*
X196909714Y-145047171D02*
X197576380Y-145047171D01*
X196528761Y-145285266D02*
X197243047Y-145523361D01*
X197243047Y-144904314D01*
X196909714Y-144094790D02*
X197576380Y-144094790D01*
X196528761Y-144332885D02*
X197243047Y-144570980D01*
X197243047Y-143951933D01*
X197195428Y-143570980D02*
X197195428Y-142809076D01*
X196671619Y-142380504D02*
X196624000Y-142332885D01*
X196576380Y-142237647D01*
X196576380Y-141999552D01*
X196624000Y-141904314D01*
X196671619Y-141856695D01*
X196766857Y-141809076D01*
X196862095Y-141809076D01*
X197004952Y-141856695D01*
X197576380Y-142428123D01*
X197576380Y-141809076D01*
X125824080Y-147710742D02*
X125824080Y-147091695D01*
X126205033Y-147425028D01*
X126205033Y-147282171D01*
X126252652Y-147186933D01*
X126300271Y-147139314D01*
X126395509Y-147091695D01*
X126633604Y-147091695D01*
X126728842Y-147139314D01*
X126776461Y-147186933D01*
X126824080Y-147282171D01*
X126824080Y-147567885D01*
X126776461Y-147663123D01*
X126728842Y-147710742D01*
X125824080Y-146186933D02*
X125824080Y-146663123D01*
X126300271Y-146710742D01*
X126252652Y-146663123D01*
X126205033Y-146567885D01*
X126205033Y-146329790D01*
X126252652Y-146234552D01*
X126300271Y-146186933D01*
X126395509Y-146139314D01*
X126633604Y-146139314D01*
X126728842Y-146186933D01*
X126776461Y-146234552D01*
X126824080Y-146329790D01*
X126824080Y-146567885D01*
X126776461Y-146663123D01*
X126728842Y-146710742D01*
X126157414Y-145282171D02*
X126824080Y-145282171D01*
X125776461Y-145520266D02*
X126490747Y-145758361D01*
X126490747Y-145139314D01*
X126157414Y-144329790D02*
X126824080Y-144329790D01*
X125776461Y-144567885D02*
X126490747Y-144805980D01*
X126490747Y-144186933D01*
X126443128Y-143805980D02*
X126443128Y-143044076D01*
X125919319Y-142615504D02*
X125871700Y-142567885D01*
X125824080Y-142472647D01*
X125824080Y-142234552D01*
X125871700Y-142139314D01*
X125919319Y-142091695D01*
X126014557Y-142044076D01*
X126109795Y-142044076D01*
X126252652Y-142091695D01*
X126824080Y-142663123D01*
X126824080Y-142044076D01*
X107569980Y-147191142D02*
X107569980Y-146572095D01*
X107950933Y-146905428D01*
X107950933Y-146762571D01*
X107998552Y-146667333D01*
X108046171Y-146619714D01*
X108141409Y-146572095D01*
X108379504Y-146572095D01*
X108474742Y-146619714D01*
X108522361Y-146667333D01*
X108569980Y-146762571D01*
X108569980Y-147048285D01*
X108522361Y-147143523D01*
X108474742Y-147191142D01*
X107569980Y-145667333D02*
X107569980Y-146143523D01*
X108046171Y-146191142D01*
X107998552Y-146143523D01*
X107950933Y-146048285D01*
X107950933Y-145810190D01*
X107998552Y-145714952D01*
X108046171Y-145667333D01*
X108141409Y-145619714D01*
X108379504Y-145619714D01*
X108474742Y-145667333D01*
X108522361Y-145714952D01*
X108569980Y-145810190D01*
X108569980Y-146048285D01*
X108522361Y-146143523D01*
X108474742Y-146191142D01*
X107903314Y-144762571D02*
X108569980Y-144762571D01*
X107522361Y-145000666D02*
X108236647Y-145238761D01*
X108236647Y-144619714D01*
X107903314Y-143810190D02*
X108569980Y-143810190D01*
X107522361Y-144048285D02*
X108236647Y-144286380D01*
X108236647Y-143667333D01*
X108189028Y-143286380D02*
X108189028Y-142524476D01*
X107665219Y-142095904D02*
X107617600Y-142048285D01*
X107569980Y-141953047D01*
X107569980Y-141714952D01*
X107617600Y-141619714D01*
X107665219Y-141572095D01*
X107760457Y-141524476D01*
X107855695Y-141524476D01*
X107998552Y-141572095D01*
X108569980Y-142143523D01*
X108569980Y-141524476D01*
X180081280Y-146675742D02*
X180081280Y-146056695D01*
X180462233Y-146390028D01*
X180462233Y-146247171D01*
X180509852Y-146151933D01*
X180557471Y-146104314D01*
X180652709Y-146056695D01*
X180890804Y-146056695D01*
X180986042Y-146104314D01*
X181033661Y-146151933D01*
X181081280Y-146247171D01*
X181081280Y-146532885D01*
X181033661Y-146628123D01*
X180986042Y-146675742D01*
X180081280Y-145151933D02*
X180081280Y-145628123D01*
X180557471Y-145675742D01*
X180509852Y-145628123D01*
X180462233Y-145532885D01*
X180462233Y-145294790D01*
X180509852Y-145199552D01*
X180557471Y-145151933D01*
X180652709Y-145104314D01*
X180890804Y-145104314D01*
X180986042Y-145151933D01*
X181033661Y-145199552D01*
X181081280Y-145294790D01*
X181081280Y-145532885D01*
X181033661Y-145628123D01*
X180986042Y-145675742D01*
X180414614Y-144247171D02*
X181081280Y-144247171D01*
X180033661Y-144485266D02*
X180747947Y-144723361D01*
X180747947Y-144104314D01*
X180414614Y-143294790D02*
X181081280Y-143294790D01*
X180033661Y-143532885D02*
X180747947Y-143770980D01*
X180747947Y-143151933D01*
X180700328Y-142770980D02*
X180700328Y-142009076D01*
X180176519Y-141580504D02*
X180128900Y-141532885D01*
X180081280Y-141437647D01*
X180081280Y-141199552D01*
X180128900Y-141104314D01*
X180176519Y-141056695D01*
X180271757Y-141009076D01*
X180366995Y-141009076D01*
X180509852Y-141056695D01*
X181081280Y-141628123D01*
X181081280Y-141009076D01*
D10*
X103761023Y-109265980D02*
X103427690Y-108789790D01*
X103189595Y-109265980D02*
X103189595Y-108265980D01*
X103570547Y-108265980D01*
X103665785Y-108313600D01*
X103713404Y-108361219D01*
X103761023Y-108456457D01*
X103761023Y-108599314D01*
X103713404Y-108694552D01*
X103665785Y-108742171D01*
X103570547Y-108789790D01*
X103189595Y-108789790D01*
X104189595Y-109265980D02*
X104189595Y-108265980D01*
X104761023Y-109265980D01*
X104761023Y-108265980D01*
X105761023Y-109265980D02*
X105189595Y-109265980D01*
X105475309Y-109265980D02*
X105475309Y-108265980D01*
X105380071Y-108408838D01*
X105284833Y-108504076D01*
X105189595Y-108551695D01*
D11*
X162594980Y-147160742D02*
X162594980Y-146541695D01*
X162975933Y-146875028D01*
X162975933Y-146732171D01*
X163023552Y-146636933D01*
X163071171Y-146589314D01*
X163166409Y-146541695D01*
X163404504Y-146541695D01*
X163499742Y-146589314D01*
X163547361Y-146636933D01*
X163594980Y-146732171D01*
X163594980Y-147017885D01*
X163547361Y-147113123D01*
X163499742Y-147160742D01*
X162594980Y-145636933D02*
X162594980Y-146113123D01*
X163071171Y-146160742D01*
X163023552Y-146113123D01*
X162975933Y-146017885D01*
X162975933Y-145779790D01*
X163023552Y-145684552D01*
X163071171Y-145636933D01*
X163166409Y-145589314D01*
X163404504Y-145589314D01*
X163499742Y-145636933D01*
X163547361Y-145684552D01*
X163594980Y-145779790D01*
X163594980Y-146017885D01*
X163547361Y-146113123D01*
X163499742Y-146160742D01*
X162928314Y-144732171D02*
X163594980Y-144732171D01*
X162547361Y-144970266D02*
X163261647Y-145208361D01*
X163261647Y-144589314D01*
X162928314Y-143779790D02*
X163594980Y-143779790D01*
X162547361Y-144017885D02*
X163261647Y-144255980D01*
X163261647Y-143636933D01*
X163214028Y-143255980D02*
X163214028Y-142494076D01*
X162690219Y-142065504D02*
X162642600Y-142017885D01*
X162594980Y-141922647D01*
X162594980Y-141684552D01*
X162642600Y-141589314D01*
X162690219Y-141541695D01*
X162785457Y-141494076D01*
X162880695Y-141494076D01*
X163023552Y-141541695D01*
X163594980Y-142113123D01*
X163594980Y-141494076D01*
D10*
X161685723Y-109265980D02*
X161352390Y-108789790D01*
X161114295Y-109265980D02*
X161114295Y-108265980D01*
X161495247Y-108265980D01*
X161590485Y-108313600D01*
X161638104Y-108361219D01*
X161685723Y-108456457D01*
X161685723Y-108599314D01*
X161638104Y-108694552D01*
X161590485Y-108742171D01*
X161495247Y-108789790D01*
X161114295Y-108789790D01*
X162114295Y-109265980D02*
X162114295Y-108265980D01*
X162685723Y-109265980D01*
X162685723Y-108265980D01*
X163066676Y-108265980D02*
X163685723Y-108265980D01*
X163352390Y-108646933D01*
X163495247Y-108646933D01*
X163590485Y-108694552D01*
X163638104Y-108742171D01*
X163685723Y-108837409D01*
X163685723Y-109075504D01*
X163638104Y-109170742D01*
X163590485Y-109218361D01*
X163495247Y-109265980D01*
X163209533Y-109265980D01*
X163114295Y-109218361D01*
X163066676Y-109170742D01*
X183012123Y-109265980D02*
X182678790Y-108789790D01*
X182440695Y-109265980D02*
X182440695Y-108265980D01*
X182821647Y-108265980D01*
X182916885Y-108313600D01*
X182964504Y-108361219D01*
X183012123Y-108456457D01*
X183012123Y-108599314D01*
X182964504Y-108694552D01*
X182916885Y-108742171D01*
X182821647Y-108789790D01*
X182440695Y-108789790D01*
X183440695Y-109265980D02*
X183440695Y-108265980D01*
X184012123Y-109265980D01*
X184012123Y-108265980D01*
X184916885Y-108599314D02*
X184916885Y-109265980D01*
X184678790Y-108218361D02*
X184440695Y-108932647D01*
X185059742Y-108932647D01*
X125052223Y-109265980D02*
X124718890Y-108789790D01*
X124480795Y-109265980D02*
X124480795Y-108265980D01*
X124861747Y-108265980D01*
X124956985Y-108313600D01*
X125004604Y-108361219D01*
X125052223Y-108456457D01*
X125052223Y-108599314D01*
X125004604Y-108694552D01*
X124956985Y-108742171D01*
X124861747Y-108789790D01*
X124480795Y-108789790D01*
X125480795Y-109265980D02*
X125480795Y-108265980D01*
X126052223Y-109265980D01*
X126052223Y-108265980D01*
X126480795Y-108361219D02*
X126528414Y-108313600D01*
X126623652Y-108265980D01*
X126861747Y-108265980D01*
X126956985Y-108313600D01*
X127004604Y-108361219D01*
X127052223Y-108456457D01*
X127052223Y-108551695D01*
X127004604Y-108694552D01*
X126433176Y-109265980D01*
X127052223Y-109265980D01*
D11*
X113169980Y-147253842D02*
X113169980Y-146634795D01*
X113550933Y-146968128D01*
X113550933Y-146825271D01*
X113598552Y-146730033D01*
X113646171Y-146682414D01*
X113741409Y-146634795D01*
X113979504Y-146634795D01*
X114074742Y-146682414D01*
X114122361Y-146730033D01*
X114169980Y-146825271D01*
X114169980Y-147110985D01*
X114122361Y-147206223D01*
X114074742Y-147253842D01*
X113169980Y-145730033D02*
X113169980Y-146206223D01*
X113646171Y-146253842D01*
X113598552Y-146206223D01*
X113550933Y-146110985D01*
X113550933Y-145872890D01*
X113598552Y-145777652D01*
X113646171Y-145730033D01*
X113741409Y-145682414D01*
X113979504Y-145682414D01*
X114074742Y-145730033D01*
X114122361Y-145777652D01*
X114169980Y-145872890D01*
X114169980Y-146110985D01*
X114122361Y-146206223D01*
X114074742Y-146253842D01*
X113503314Y-144825271D02*
X114169980Y-144825271D01*
X113122361Y-145063366D02*
X113836647Y-145301461D01*
X113836647Y-144682414D01*
X113503314Y-143872890D02*
X114169980Y-143872890D01*
X113122361Y-144110985D02*
X113836647Y-144349080D01*
X113836647Y-143730033D01*
X113789028Y-143349080D02*
X113789028Y-142587176D01*
X113265219Y-142158604D02*
X113217600Y-142110985D01*
X113169980Y-142015747D01*
X113169980Y-141777652D01*
X113217600Y-141682414D01*
X113265219Y-141634795D01*
X113360457Y-141587176D01*
X113455695Y-141587176D01*
X113598552Y-141634795D01*
X114169980Y-142206223D01*
X114169980Y-141587176D01*
D10*
X90100000Y-121204761D02*
X90242857Y-121252380D01*
X90480952Y-121252380D01*
X90576190Y-121204761D01*
X90623809Y-121157142D01*
X90671428Y-121061904D01*
X90671428Y-120966666D01*
X90623809Y-120871428D01*
X90576190Y-120823809D01*
X90480952Y-120776190D01*
X90290476Y-120728571D01*
X90195238Y-120680952D01*
X90147619Y-120633333D01*
X90100000Y-120538095D01*
X90100000Y-120442857D01*
X90147619Y-120347619D01*
X90195238Y-120300000D01*
X90290476Y-120252380D01*
X90528571Y-120252380D01*
X90671428Y-120300000D01*
X90957142Y-120585714D02*
X91338095Y-120585714D01*
X91100000Y-120252380D02*
X91100000Y-121109523D01*
X91147619Y-121204761D01*
X91242857Y-121252380D01*
X91338095Y-121252380D01*
X91671428Y-121252380D02*
X91671428Y-120585714D01*
X91671428Y-120776190D02*
X91719047Y-120680952D01*
X91766666Y-120633333D01*
X91861904Y-120585714D01*
X91957142Y-120585714D01*
X92290476Y-121252380D02*
X92290476Y-120585714D01*
X92290476Y-120252380D02*
X92242857Y-120300000D01*
X92290476Y-120347619D01*
X92338095Y-120300000D01*
X92290476Y-120252380D01*
X92290476Y-120347619D01*
X92766666Y-120585714D02*
X92766666Y-121252380D01*
X92766666Y-120680952D02*
X92814285Y-120633333D01*
X92909523Y-120585714D01*
X93052380Y-120585714D01*
X93147619Y-120633333D01*
X93195238Y-120728571D01*
X93195238Y-121252380D01*
X94100000Y-120585714D02*
X94100000Y-121395238D01*
X94052380Y-121490476D01*
X94004761Y-121538095D01*
X93909523Y-121585714D01*
X93766666Y-121585714D01*
X93671428Y-121538095D01*
X94100000Y-121204761D02*
X94004761Y-121252380D01*
X93814285Y-121252380D01*
X93719047Y-121204761D01*
X93671428Y-121157142D01*
X93623809Y-121061904D01*
X93623809Y-120776190D01*
X93671428Y-120680952D01*
X93719047Y-120633333D01*
X93814285Y-120585714D01*
X94004761Y-120585714D01*
X94100000Y-120633333D01*
X95100000Y-121252380D02*
X94528571Y-121252380D01*
X94814285Y-121252380D02*
X94814285Y-120252380D01*
X94719047Y-120395238D01*
X94623809Y-120490476D01*
X94528571Y-120538095D01*
X92266666Y-112502380D02*
X92266666Y-113216666D01*
X92219047Y-113359523D01*
X92123809Y-113454761D01*
X91980952Y-113502380D01*
X91885714Y-113502380D01*
X93266666Y-113502380D02*
X92695238Y-113502380D01*
X92980952Y-113502380D02*
X92980952Y-112502380D01*
X92885714Y-112645238D01*
X92790476Y-112740476D01*
X92695238Y-112788095D01*
X105100000Y-121204761D02*
X105242857Y-121252380D01*
X105480952Y-121252380D01*
X105576190Y-121204761D01*
X105623809Y-121157142D01*
X105671428Y-121061904D01*
X105671428Y-120966666D01*
X105623809Y-120871428D01*
X105576190Y-120823809D01*
X105480952Y-120776190D01*
X105290476Y-120728571D01*
X105195238Y-120680952D01*
X105147619Y-120633333D01*
X105100000Y-120538095D01*
X105100000Y-120442857D01*
X105147619Y-120347619D01*
X105195238Y-120300000D01*
X105290476Y-120252380D01*
X105528571Y-120252380D01*
X105671428Y-120300000D01*
X105957142Y-120585714D02*
X106338095Y-120585714D01*
X106100000Y-120252380D02*
X106100000Y-121109523D01*
X106147619Y-121204761D01*
X106242857Y-121252380D01*
X106338095Y-121252380D01*
X106671428Y-121252380D02*
X106671428Y-120585714D01*
X106671428Y-120776190D02*
X106719047Y-120680952D01*
X106766666Y-120633333D01*
X106861904Y-120585714D01*
X106957142Y-120585714D01*
X107290476Y-121252380D02*
X107290476Y-120585714D01*
X107290476Y-120252380D02*
X107242857Y-120300000D01*
X107290476Y-120347619D01*
X107338095Y-120300000D01*
X107290476Y-120252380D01*
X107290476Y-120347619D01*
X107766666Y-120585714D02*
X107766666Y-121252380D01*
X107766666Y-120680952D02*
X107814285Y-120633333D01*
X107909523Y-120585714D01*
X108052380Y-120585714D01*
X108147619Y-120633333D01*
X108195238Y-120728571D01*
X108195238Y-121252380D01*
X109100000Y-120585714D02*
X109100000Y-121395238D01*
X109052380Y-121490476D01*
X109004761Y-121538095D01*
X108909523Y-121585714D01*
X108766666Y-121585714D01*
X108671428Y-121538095D01*
X109100000Y-121204761D02*
X109004761Y-121252380D01*
X108814285Y-121252380D01*
X108719047Y-121204761D01*
X108671428Y-121157142D01*
X108623809Y-121061904D01*
X108623809Y-120776190D01*
X108671428Y-120680952D01*
X108719047Y-120633333D01*
X108814285Y-120585714D01*
X109004761Y-120585714D01*
X109100000Y-120633333D01*
X109480952Y-120252380D02*
X110100000Y-120252380D01*
X109766666Y-120633333D01*
X109909523Y-120633333D01*
X110004761Y-120680952D01*
X110052380Y-120728571D01*
X110100000Y-120823809D01*
X110100000Y-121061904D01*
X110052380Y-121157142D01*
X110004761Y-121204761D01*
X109909523Y-121252380D01*
X109623809Y-121252380D01*
X109528571Y-121204761D01*
X109480952Y-121157142D01*
X108986666Y-112502380D02*
X108986666Y-113216666D01*
X108939047Y-113359523D01*
X108843809Y-113454761D01*
X108700952Y-113502380D01*
X108605714Y-113502380D01*
X109367619Y-112502380D02*
X109986666Y-112502380D01*
X109653333Y-112883333D01*
X109796190Y-112883333D01*
X109891428Y-112930952D01*
X109939047Y-112978571D01*
X109986666Y-113073809D01*
X109986666Y-113311904D01*
X109939047Y-113407142D01*
X109891428Y-113454761D01*
X109796190Y-113502380D01*
X109510476Y-113502380D01*
X109415238Y-113454761D01*
X109367619Y-113407142D01*
X105100000Y-134204761D02*
X105242857Y-134252380D01*
X105480952Y-134252380D01*
X105576190Y-134204761D01*
X105623809Y-134157142D01*
X105671428Y-134061904D01*
X105671428Y-133966666D01*
X105623809Y-133871428D01*
X105576190Y-133823809D01*
X105480952Y-133776190D01*
X105290476Y-133728571D01*
X105195238Y-133680952D01*
X105147619Y-133633333D01*
X105100000Y-133538095D01*
X105100000Y-133442857D01*
X105147619Y-133347619D01*
X105195238Y-133300000D01*
X105290476Y-133252380D01*
X105528571Y-133252380D01*
X105671428Y-133300000D01*
X105957142Y-133585714D02*
X106338095Y-133585714D01*
X106100000Y-133252380D02*
X106100000Y-134109523D01*
X106147619Y-134204761D01*
X106242857Y-134252380D01*
X106338095Y-134252380D01*
X106671428Y-134252380D02*
X106671428Y-133585714D01*
X106671428Y-133776190D02*
X106719047Y-133680952D01*
X106766666Y-133633333D01*
X106861904Y-133585714D01*
X106957142Y-133585714D01*
X107290476Y-134252380D02*
X107290476Y-133585714D01*
X107290476Y-133252380D02*
X107242857Y-133300000D01*
X107290476Y-133347619D01*
X107338095Y-133300000D01*
X107290476Y-133252380D01*
X107290476Y-133347619D01*
X107766666Y-133585714D02*
X107766666Y-134252380D01*
X107766666Y-133680952D02*
X107814285Y-133633333D01*
X107909523Y-133585714D01*
X108052380Y-133585714D01*
X108147619Y-133633333D01*
X108195238Y-133728571D01*
X108195238Y-134252380D01*
X109100000Y-133585714D02*
X109100000Y-134395238D01*
X109052380Y-134490476D01*
X109004761Y-134538095D01*
X108909523Y-134585714D01*
X108766666Y-134585714D01*
X108671428Y-134538095D01*
X109100000Y-134204761D02*
X109004761Y-134252380D01*
X108814285Y-134252380D01*
X108719047Y-134204761D01*
X108671428Y-134157142D01*
X108623809Y-134061904D01*
X108623809Y-133776190D01*
X108671428Y-133680952D01*
X108719047Y-133633333D01*
X108814285Y-133585714D01*
X109004761Y-133585714D01*
X109100000Y-133633333D01*
X110004761Y-133585714D02*
X110004761Y-134252380D01*
X109766666Y-133204761D02*
X109528571Y-133919047D01*
X110147619Y-133919047D01*
X107266666Y-125502380D02*
X107266666Y-126216666D01*
X107219047Y-126359523D01*
X107123809Y-126454761D01*
X106980952Y-126502380D01*
X106885714Y-126502380D01*
X108171428Y-125835714D02*
X108171428Y-126502380D01*
X107933333Y-125454761D02*
X107695238Y-126169047D01*
X108314285Y-126169047D01*
X121457361Y-148509076D02*
X121504980Y-148366219D01*
X121504980Y-148128123D01*
X121457361Y-148032885D01*
X121409742Y-147985266D01*
X121314504Y-147937647D01*
X121219266Y-147937647D01*
X121124028Y-147985266D01*
X121076409Y-148032885D01*
X121028790Y-148128123D01*
X120981171Y-148318600D01*
X120933552Y-148413838D01*
X120885933Y-148461457D01*
X120790695Y-148509076D01*
X120695457Y-148509076D01*
X120600219Y-148461457D01*
X120552600Y-148413838D01*
X120504980Y-148318600D01*
X120504980Y-148080504D01*
X120552600Y-147937647D01*
X120981171Y-147175742D02*
X121028790Y-147032885D01*
X121076409Y-146985266D01*
X121171647Y-146937647D01*
X121314504Y-146937647D01*
X121409742Y-146985266D01*
X121457361Y-147032885D01*
X121504980Y-147128123D01*
X121504980Y-147509076D01*
X120504980Y-147509076D01*
X120504980Y-147175742D01*
X120552600Y-147080504D01*
X120600219Y-147032885D01*
X120695457Y-146985266D01*
X120790695Y-146985266D01*
X120885933Y-147032885D01*
X120933552Y-147080504D01*
X120981171Y-147175742D01*
X120981171Y-147509076D01*
X120504980Y-146032885D02*
X120504980Y-146509076D01*
X120981171Y-146556695D01*
X120933552Y-146509076D01*
X120885933Y-146413838D01*
X120885933Y-146175742D01*
X120933552Y-146080504D01*
X120981171Y-146032885D01*
X121076409Y-145985266D01*
X121314504Y-145985266D01*
X121409742Y-146032885D01*
X121457361Y-146080504D01*
X121504980Y-146175742D01*
X121504980Y-146413838D01*
X121457361Y-146509076D01*
X121409742Y-146556695D01*
X121504980Y-145032885D02*
X121504980Y-145604314D01*
X121504980Y-145318600D02*
X120504980Y-145318600D01*
X120647838Y-145413838D01*
X120743076Y-145509076D01*
X120790695Y-145604314D01*
X120504980Y-144413838D02*
X120504980Y-144318600D01*
X120552600Y-144223361D01*
X120600219Y-144175742D01*
X120695457Y-144128123D01*
X120885933Y-144080504D01*
X121124028Y-144080504D01*
X121314504Y-144128123D01*
X121409742Y-144175742D01*
X121457361Y-144223361D01*
X121504980Y-144318600D01*
X121504980Y-144413838D01*
X121457361Y-144509076D01*
X121409742Y-144556695D01*
X121314504Y-144604314D01*
X121124028Y-144651933D01*
X120885933Y-144651933D01*
X120695457Y-144604314D01*
X120600219Y-144556695D01*
X120552600Y-144509076D01*
X120504980Y-144413838D01*
X120504980Y-143461457D02*
X120504980Y-143366219D01*
X120552600Y-143270980D01*
X120600219Y-143223361D01*
X120695457Y-143175742D01*
X120885933Y-143128123D01*
X121124028Y-143128123D01*
X121314504Y-143175742D01*
X121409742Y-143223361D01*
X121457361Y-143270980D01*
X121504980Y-143366219D01*
X121504980Y-143461457D01*
X121457361Y-143556695D01*
X121409742Y-143604314D01*
X121314504Y-143651933D01*
X121124028Y-143699552D01*
X120885933Y-143699552D01*
X120695457Y-143651933D01*
X120600219Y-143604314D01*
X120552600Y-143556695D01*
X120504980Y-143461457D01*
X121124028Y-142699552D02*
X121124028Y-141937647D01*
X120504980Y-141604314D02*
X120504980Y-141032885D01*
X121504980Y-141318600D02*
X120504980Y-141318600D01*
X117985380Y-144438595D02*
X116985380Y-144438595D01*
X116985380Y-144200500D01*
X117033000Y-144057642D01*
X117128238Y-143962404D01*
X117223476Y-143914785D01*
X117413952Y-143867166D01*
X117556809Y-143867166D01*
X117747285Y-143914785D01*
X117842523Y-143962404D01*
X117937761Y-144057642D01*
X117985380Y-144200500D01*
X117985380Y-144438595D01*
X117985380Y-142914785D02*
X117985380Y-143486214D01*
X117985380Y-143200500D02*
X116985380Y-143200500D01*
X117128238Y-143295738D01*
X117223476Y-143390976D01*
X117271095Y-143486214D01*
X119721095Y-151920980D02*
X119721095Y-150920980D01*
X120292523Y-151920980D02*
X119863952Y-151349552D01*
X120292523Y-150920980D02*
X119721095Y-151492409D01*
D11*
X191599480Y-147375742D02*
X191599480Y-146756695D01*
X191980433Y-147090028D01*
X191980433Y-146947171D01*
X192028052Y-146851933D01*
X192075671Y-146804314D01*
X192170909Y-146756695D01*
X192409004Y-146756695D01*
X192504242Y-146804314D01*
X192551861Y-146851933D01*
X192599480Y-146947171D01*
X192599480Y-147232885D01*
X192551861Y-147328123D01*
X192504242Y-147375742D01*
X191599480Y-145851933D02*
X191599480Y-146328123D01*
X192075671Y-146375742D01*
X192028052Y-146328123D01*
X191980433Y-146232885D01*
X191980433Y-145994790D01*
X192028052Y-145899552D01*
X192075671Y-145851933D01*
X192170909Y-145804314D01*
X192409004Y-145804314D01*
X192504242Y-145851933D01*
X192551861Y-145899552D01*
X192599480Y-145994790D01*
X192599480Y-146232885D01*
X192551861Y-146328123D01*
X192504242Y-146375742D01*
X191932814Y-144947171D02*
X192599480Y-144947171D01*
X191551861Y-145185266D02*
X192266147Y-145423361D01*
X192266147Y-144804314D01*
X191932814Y-143994790D02*
X192599480Y-143994790D01*
X191551861Y-144232885D02*
X192266147Y-144470980D01*
X192266147Y-143851933D01*
X192218528Y-143470980D02*
X192218528Y-142709076D01*
X191694719Y-142280504D02*
X191647100Y-142232885D01*
X191599480Y-142137647D01*
X191599480Y-141899552D01*
X191647100Y-141804314D01*
X191694719Y-141756695D01*
X191789957Y-141709076D01*
X191885195Y-141709076D01*
X192028052Y-141756695D01*
X192599480Y-142328123D01*
X192599480Y-141709076D01*
X167913480Y-147298842D02*
X167913480Y-146679795D01*
X168294433Y-147013128D01*
X168294433Y-146870271D01*
X168342052Y-146775033D01*
X168389671Y-146727414D01*
X168484909Y-146679795D01*
X168723004Y-146679795D01*
X168818242Y-146727414D01*
X168865861Y-146775033D01*
X168913480Y-146870271D01*
X168913480Y-147155985D01*
X168865861Y-147251223D01*
X168818242Y-147298842D01*
X167913480Y-145775033D02*
X167913480Y-146251223D01*
X168389671Y-146298842D01*
X168342052Y-146251223D01*
X168294433Y-146155985D01*
X168294433Y-145917890D01*
X168342052Y-145822652D01*
X168389671Y-145775033D01*
X168484909Y-145727414D01*
X168723004Y-145727414D01*
X168818242Y-145775033D01*
X168865861Y-145822652D01*
X168913480Y-145917890D01*
X168913480Y-146155985D01*
X168865861Y-146251223D01*
X168818242Y-146298842D01*
X168246814Y-144870271D02*
X168913480Y-144870271D01*
X167865861Y-145108366D02*
X168580147Y-145346461D01*
X168580147Y-144727414D01*
X168246814Y-143917890D02*
X168913480Y-143917890D01*
X167865861Y-144155985D02*
X168580147Y-144394080D01*
X168580147Y-143775033D01*
X168532528Y-143394080D02*
X168532528Y-142632176D01*
X168008719Y-142203604D02*
X167961100Y-142155985D01*
X167913480Y-142060747D01*
X167913480Y-141822652D01*
X167961100Y-141727414D01*
X168008719Y-141679795D01*
X168103957Y-141632176D01*
X168199195Y-141632176D01*
X168342052Y-141679795D01*
X168913480Y-142251223D01*
X168913480Y-141632176D01*
D10*
X73717980Y-90941133D02*
X73241790Y-91274466D01*
X73717980Y-91512561D02*
X72717980Y-91512561D01*
X72717980Y-91131609D01*
X72765600Y-91036371D01*
X72813219Y-90988752D01*
X72908457Y-90941133D01*
X73051314Y-90941133D01*
X73146552Y-90988752D01*
X73194171Y-91036371D01*
X73241790Y-91131609D01*
X73241790Y-91512561D01*
X73194171Y-90512561D02*
X73194171Y-90179228D01*
X73717980Y-90036371D02*
X73717980Y-90512561D01*
X72717980Y-90512561D01*
X72717980Y-90036371D01*
X73194171Y-89274466D02*
X73194171Y-89607800D01*
X73717980Y-89607800D02*
X72717980Y-89607800D01*
X72717980Y-89131609D01*
X72717980Y-88607800D02*
X72956076Y-88607800D01*
X72860838Y-88845895D02*
X72956076Y-88607800D01*
X72860838Y-88369704D01*
X73146552Y-88750657D02*
X72956076Y-88607800D01*
X73146552Y-88464942D01*
X72717980Y-87845895D02*
X72956076Y-87845895D01*
X72860838Y-88083990D02*
X72956076Y-87845895D01*
X72860838Y-87607800D01*
X73146552Y-87988752D02*
X72956076Y-87845895D01*
X73146552Y-87703038D01*
X73717980Y-86376276D02*
X72717980Y-86376276D01*
X73432266Y-86042942D01*
X72717980Y-85709609D01*
X73717980Y-85709609D01*
X73717980Y-85090561D02*
X73670361Y-85185800D01*
X73622742Y-85233419D01*
X73527504Y-85281038D01*
X73241790Y-85281038D01*
X73146552Y-85233419D01*
X73098933Y-85185800D01*
X73051314Y-85090561D01*
X73051314Y-84947704D01*
X73098933Y-84852466D01*
X73146552Y-84804847D01*
X73241790Y-84757228D01*
X73527504Y-84757228D01*
X73622742Y-84804847D01*
X73670361Y-84852466D01*
X73717980Y-84947704D01*
X73717980Y-85090561D01*
X73051314Y-83900085D02*
X73717980Y-83900085D01*
X73051314Y-84328657D02*
X73575123Y-84328657D01*
X73670361Y-84281038D01*
X73717980Y-84185800D01*
X73717980Y-84042942D01*
X73670361Y-83947704D01*
X73622742Y-83900085D01*
X73051314Y-83423895D02*
X73717980Y-83423895D01*
X73146552Y-83423895D02*
X73098933Y-83376276D01*
X73051314Y-83281038D01*
X73051314Y-83138180D01*
X73098933Y-83042942D01*
X73194171Y-82995323D01*
X73717980Y-82995323D01*
X73051314Y-82661990D02*
X73051314Y-82281038D01*
X72717980Y-82519133D02*
X73575123Y-82519133D01*
X73670361Y-82471514D01*
X73717980Y-82376276D01*
X73717980Y-82281038D01*
X73717980Y-81947704D02*
X73051314Y-81947704D01*
X72717980Y-81947704D02*
X72765600Y-81995323D01*
X72813219Y-81947704D01*
X72765600Y-81900085D01*
X72717980Y-81947704D01*
X72813219Y-81947704D01*
X73051314Y-81471514D02*
X73717980Y-81471514D01*
X73146552Y-81471514D02*
X73098933Y-81423895D01*
X73051314Y-81328657D01*
X73051314Y-81185800D01*
X73098933Y-81090561D01*
X73194171Y-81042942D01*
X73717980Y-81042942D01*
X73051314Y-80138180D02*
X73860838Y-80138180D01*
X73956076Y-80185800D01*
X74003695Y-80233419D01*
X74051314Y-80328657D01*
X74051314Y-80471514D01*
X74003695Y-80566752D01*
X73670361Y-80138180D02*
X73717980Y-80233419D01*
X73717980Y-80423895D01*
X73670361Y-80519133D01*
X73622742Y-80566752D01*
X73527504Y-80614371D01*
X73241790Y-80614371D01*
X73146552Y-80566752D01*
X73098933Y-80519133D01*
X73051314Y-80423895D01*
X73051314Y-80233419D01*
X73098933Y-80138180D01*
X73717980Y-79661990D02*
X72717980Y-79661990D01*
X73194171Y-79661990D02*
X73194171Y-79090561D01*
X73717980Y-79090561D02*
X72717980Y-79090561D01*
X73717980Y-78471514D02*
X73670361Y-78566752D01*
X73622742Y-78614371D01*
X73527504Y-78661990D01*
X73241790Y-78661990D01*
X73146552Y-78614371D01*
X73098933Y-78566752D01*
X73051314Y-78471514D01*
X73051314Y-78328657D01*
X73098933Y-78233419D01*
X73146552Y-78185800D01*
X73241790Y-78138180D01*
X73527504Y-78138180D01*
X73622742Y-78185800D01*
X73670361Y-78233419D01*
X73717980Y-78328657D01*
X73717980Y-78471514D01*
X73717980Y-77566752D02*
X73670361Y-77661990D01*
X73575123Y-77709609D01*
X72717980Y-77709609D01*
X73670361Y-76804847D02*
X73717980Y-76900085D01*
X73717980Y-77090561D01*
X73670361Y-77185800D01*
X73575123Y-77233419D01*
X73194171Y-77233419D01*
X73098933Y-77185800D01*
X73051314Y-77090561D01*
X73051314Y-76900085D01*
X73098933Y-76804847D01*
X73194171Y-76757228D01*
X73289409Y-76757228D01*
X73384647Y-77233419D01*
X73813219Y-76566752D02*
X73813219Y-75804847D01*
X72717980Y-75661990D02*
X72717980Y-75042942D01*
X73098933Y-75376276D01*
X73098933Y-75233419D01*
X73146552Y-75138180D01*
X73194171Y-75090561D01*
X73289409Y-75042942D01*
X73527504Y-75042942D01*
X73622742Y-75090561D01*
X73670361Y-75138180D01*
X73717980Y-75233419D01*
X73717980Y-75519133D01*
X73670361Y-75614371D01*
X73622742Y-75661990D01*
X73622742Y-74614371D02*
X73670361Y-74566752D01*
X73717980Y-74614371D01*
X73670361Y-74661990D01*
X73622742Y-74614371D01*
X73717980Y-74614371D01*
X72717980Y-74233419D02*
X72717980Y-73566752D01*
X73717980Y-73995323D01*
X73717980Y-73185800D02*
X73051314Y-73185800D01*
X73146552Y-73185800D02*
X73098933Y-73138180D01*
X73051314Y-73042942D01*
X73051314Y-72900085D01*
X73098933Y-72804847D01*
X73194171Y-72757228D01*
X73717980Y-72757228D01*
X73194171Y-72757228D02*
X73098933Y-72709609D01*
X73051314Y-72614371D01*
X73051314Y-72471514D01*
X73098933Y-72376276D01*
X73194171Y-72328657D01*
X73717980Y-72328657D01*
X73717980Y-71852466D02*
X73051314Y-71852466D01*
X73146552Y-71852466D02*
X73098933Y-71804847D01*
X73051314Y-71709609D01*
X73051314Y-71566752D01*
X73098933Y-71471514D01*
X73194171Y-71423895D01*
X73717980Y-71423895D01*
X73194171Y-71423895D02*
X73098933Y-71376276D01*
X73051314Y-71281038D01*
X73051314Y-71138180D01*
X73098933Y-71042942D01*
X73194171Y-70995323D01*
X73717980Y-70995323D01*
X79857066Y-79849380D02*
X79523733Y-79373190D01*
X79285638Y-79849380D02*
X79285638Y-78849380D01*
X79666590Y-78849380D01*
X79761828Y-78897000D01*
X79809447Y-78944619D01*
X79857066Y-79039857D01*
X79857066Y-79182714D01*
X79809447Y-79277952D01*
X79761828Y-79325571D01*
X79666590Y-79373190D01*
X79285638Y-79373190D01*
X80285638Y-79325571D02*
X80618971Y-79325571D01*
X80761828Y-79849380D02*
X80285638Y-79849380D01*
X80285638Y-78849380D01*
X80761828Y-78849380D01*
X81523733Y-79325571D02*
X81190400Y-79325571D01*
X81190400Y-79849380D02*
X81190400Y-78849380D01*
X81666590Y-78849380D01*
X82190400Y-78849380D02*
X82190400Y-79087476D01*
X81952304Y-78992238D02*
X82190400Y-79087476D01*
X82428495Y-78992238D01*
X82047542Y-79277952D02*
X82190400Y-79087476D01*
X82333257Y-79277952D01*
X82952304Y-78849380D02*
X82952304Y-79087476D01*
X82714209Y-78992238D02*
X82952304Y-79087476D01*
X83190400Y-78992238D01*
X82809447Y-79277952D02*
X82952304Y-79087476D01*
X83095161Y-79277952D01*
X215851580Y-94192333D02*
X215375390Y-94525666D01*
X215851580Y-94763761D02*
X214851580Y-94763761D01*
X214851580Y-94382809D01*
X214899200Y-94287571D01*
X214946819Y-94239952D01*
X215042057Y-94192333D01*
X215184914Y-94192333D01*
X215280152Y-94239952D01*
X215327771Y-94287571D01*
X215375390Y-94382809D01*
X215375390Y-94763761D01*
X215327771Y-93763761D02*
X215327771Y-93430428D01*
X215851580Y-93287571D02*
X215851580Y-93763761D01*
X214851580Y-93763761D01*
X214851580Y-93287571D01*
X215327771Y-92525666D02*
X215327771Y-92859000D01*
X215851580Y-92859000D02*
X214851580Y-92859000D01*
X214851580Y-92382809D01*
X214851580Y-91859000D02*
X215089676Y-91859000D01*
X214994438Y-92097095D02*
X215089676Y-91859000D01*
X214994438Y-91620904D01*
X215280152Y-92001857D02*
X215089676Y-91859000D01*
X215280152Y-91716142D01*
X214851580Y-91097095D02*
X215089676Y-91097095D01*
X214994438Y-91335190D02*
X215089676Y-91097095D01*
X214994438Y-90859000D01*
X215280152Y-91239952D02*
X215089676Y-91097095D01*
X215280152Y-90954238D01*
X215851580Y-90084676D02*
X214851580Y-90084676D01*
X215565866Y-89751342D01*
X214851580Y-89418009D01*
X215851580Y-89418009D01*
X215851580Y-88798961D02*
X215803961Y-88894200D01*
X215756342Y-88941819D01*
X215661104Y-88989438D01*
X215375390Y-88989438D01*
X215280152Y-88941819D01*
X215232533Y-88894200D01*
X215184914Y-88798961D01*
X215184914Y-88656104D01*
X215232533Y-88560866D01*
X215280152Y-88513247D01*
X215375390Y-88465628D01*
X215661104Y-88465628D01*
X215756342Y-88513247D01*
X215803961Y-88560866D01*
X215851580Y-88656104D01*
X215851580Y-88798961D01*
X215184914Y-87608485D02*
X215851580Y-87608485D01*
X215184914Y-88037057D02*
X215708723Y-88037057D01*
X215803961Y-87989438D01*
X215851580Y-87894200D01*
X215851580Y-87751342D01*
X215803961Y-87656104D01*
X215756342Y-87608485D01*
X215184914Y-87132295D02*
X215851580Y-87132295D01*
X215280152Y-87132295D02*
X215232533Y-87084676D01*
X215184914Y-86989438D01*
X215184914Y-86846580D01*
X215232533Y-86751342D01*
X215327771Y-86703723D01*
X215851580Y-86703723D01*
X215184914Y-86370390D02*
X215184914Y-85989438D01*
X214851580Y-86227533D02*
X215708723Y-86227533D01*
X215803961Y-86179914D01*
X215851580Y-86084676D01*
X215851580Y-85989438D01*
X215851580Y-85656104D02*
X215184914Y-85656104D01*
X214851580Y-85656104D02*
X214899200Y-85703723D01*
X214946819Y-85656104D01*
X214899200Y-85608485D01*
X214851580Y-85656104D01*
X214946819Y-85656104D01*
X215184914Y-85179914D02*
X215851580Y-85179914D01*
X215280152Y-85179914D02*
X215232533Y-85132295D01*
X215184914Y-85037057D01*
X215184914Y-84894200D01*
X215232533Y-84798961D01*
X215327771Y-84751342D01*
X215851580Y-84751342D01*
X215184914Y-83846580D02*
X215994438Y-83846580D01*
X216089676Y-83894200D01*
X216137295Y-83941819D01*
X216184914Y-84037057D01*
X216184914Y-84179914D01*
X216137295Y-84275152D01*
X215803961Y-83846580D02*
X215851580Y-83941819D01*
X215851580Y-84132295D01*
X215803961Y-84227533D01*
X215756342Y-84275152D01*
X215661104Y-84322771D01*
X215375390Y-84322771D01*
X215280152Y-84275152D01*
X215232533Y-84227533D01*
X215184914Y-84132295D01*
X215184914Y-83941819D01*
X215232533Y-83846580D01*
X215851580Y-83370390D02*
X214851580Y-83370390D01*
X215327771Y-83370390D02*
X215327771Y-82798961D01*
X215851580Y-82798961D02*
X214851580Y-82798961D01*
X215851580Y-82179914D02*
X215803961Y-82275152D01*
X215756342Y-82322771D01*
X215661104Y-82370390D01*
X215375390Y-82370390D01*
X215280152Y-82322771D01*
X215232533Y-82275152D01*
X215184914Y-82179914D01*
X215184914Y-82037057D01*
X215232533Y-81941819D01*
X215280152Y-81894200D01*
X215375390Y-81846580D01*
X215661104Y-81846580D01*
X215756342Y-81894200D01*
X215803961Y-81941819D01*
X215851580Y-82037057D01*
X215851580Y-82179914D01*
X215851580Y-81275152D02*
X215803961Y-81370390D01*
X215708723Y-81418009D01*
X214851580Y-81418009D01*
X215803961Y-80513247D02*
X215851580Y-80608485D01*
X215851580Y-80798961D01*
X215803961Y-80894200D01*
X215708723Y-80941819D01*
X215327771Y-80941819D01*
X215232533Y-80894200D01*
X215184914Y-80798961D01*
X215184914Y-80608485D01*
X215232533Y-80513247D01*
X215327771Y-80465628D01*
X215423009Y-80465628D01*
X215518247Y-80941819D01*
X215946819Y-80275152D02*
X215946819Y-79513247D01*
X214851580Y-79370390D02*
X214851580Y-78751342D01*
X215232533Y-79084676D01*
X215232533Y-78941819D01*
X215280152Y-78846580D01*
X215327771Y-78798961D01*
X215423009Y-78751342D01*
X215661104Y-78751342D01*
X215756342Y-78798961D01*
X215803961Y-78846580D01*
X215851580Y-78941819D01*
X215851580Y-79227533D01*
X215803961Y-79322771D01*
X215756342Y-79370390D01*
X215756342Y-78322771D02*
X215803961Y-78275152D01*
X215851580Y-78322771D01*
X215803961Y-78370390D01*
X215756342Y-78322771D01*
X215851580Y-78322771D01*
X214851580Y-77941819D02*
X214851580Y-77275152D01*
X215851580Y-77703723D01*
X215851580Y-76894200D02*
X215184914Y-76894200D01*
X215280152Y-76894200D02*
X215232533Y-76846580D01*
X215184914Y-76751342D01*
X215184914Y-76608485D01*
X215232533Y-76513247D01*
X215327771Y-76465628D01*
X215851580Y-76465628D01*
X215327771Y-76465628D02*
X215232533Y-76418009D01*
X215184914Y-76322771D01*
X215184914Y-76179914D01*
X215232533Y-76084676D01*
X215327771Y-76037057D01*
X215851580Y-76037057D01*
X215851580Y-75560866D02*
X215184914Y-75560866D01*
X215280152Y-75560866D02*
X215232533Y-75513247D01*
X215184914Y-75418009D01*
X215184914Y-75275152D01*
X215232533Y-75179914D01*
X215327771Y-75132295D01*
X215851580Y-75132295D01*
X215327771Y-75132295D02*
X215232533Y-75084676D01*
X215184914Y-74989438D01*
X215184914Y-74846580D01*
X215232533Y-74751342D01*
X215327771Y-74703723D01*
X215851580Y-74703723D01*
X215851580Y-73415133D02*
X215375390Y-73748466D01*
X215851580Y-73986561D02*
X214851580Y-73986561D01*
X214851580Y-73605609D01*
X214899200Y-73510371D01*
X214946819Y-73462752D01*
X215042057Y-73415133D01*
X215184914Y-73415133D01*
X215280152Y-73462752D01*
X215327771Y-73510371D01*
X215375390Y-73605609D01*
X215375390Y-73986561D01*
X215327771Y-72986561D02*
X215327771Y-72653228D01*
X215851580Y-72510371D02*
X215851580Y-72986561D01*
X214851580Y-72986561D01*
X214851580Y-72510371D01*
X215327771Y-71748466D02*
X215327771Y-72081800D01*
X215851580Y-72081800D02*
X214851580Y-72081800D01*
X214851580Y-71605609D01*
X214851580Y-71081800D02*
X215089676Y-71081800D01*
X214994438Y-71319895D02*
X215089676Y-71081800D01*
X214994438Y-70843704D01*
X215280152Y-71224657D02*
X215089676Y-71081800D01*
X215280152Y-70938942D01*
X214851580Y-70319895D02*
X215089676Y-70319895D01*
X214994438Y-70557990D02*
X215089676Y-70319895D01*
X214994438Y-70081800D01*
X215280152Y-70462752D02*
X215089676Y-70319895D01*
X215280152Y-70177038D01*
X130624980Y-98830600D02*
X130863076Y-98830600D01*
X130767838Y-99068695D02*
X130863076Y-98830600D01*
X130767838Y-98592504D01*
X131053552Y-98973457D02*
X130863076Y-98830600D01*
X131053552Y-98687742D01*
D12*
X72962904Y-124891476D02*
X72162904Y-124891476D01*
X72162904Y-124701000D01*
X72201000Y-124586714D01*
X72277190Y-124510523D01*
X72353380Y-124472428D01*
X72505761Y-124434333D01*
X72620047Y-124434333D01*
X72772428Y-124472428D01*
X72848619Y-124510523D01*
X72924809Y-124586714D01*
X72962904Y-124701000D01*
X72962904Y-124891476D01*
X72162904Y-124167666D02*
X72162904Y-123672428D01*
X72467666Y-123939095D01*
X72467666Y-123824809D01*
X72505761Y-123748619D01*
X72543857Y-123710523D01*
X72620047Y-123672428D01*
X72810523Y-123672428D01*
X72886714Y-123710523D01*
X72924809Y-123748619D01*
X72962904Y-123824809D01*
X72962904Y-124053380D01*
X72924809Y-124129571D01*
X72886714Y-124167666D01*
D10*
X72415980Y-132784466D02*
X71939790Y-133117800D01*
X72415980Y-133355895D02*
X71415980Y-133355895D01*
X71415980Y-132974942D01*
X71463600Y-132879704D01*
X71511219Y-132832085D01*
X71606457Y-132784466D01*
X71749314Y-132784466D01*
X71844552Y-132832085D01*
X71892171Y-132879704D01*
X71939790Y-132974942D01*
X71939790Y-133355895D01*
X72415980Y-131832085D02*
X72415980Y-132403514D01*
X72415980Y-132117800D02*
X71415980Y-132117800D01*
X71558838Y-132213038D01*
X71654076Y-132308276D01*
X71701695Y-132403514D01*
D12*
X194940523Y-101279704D02*
X194940523Y-100479704D01*
X195131000Y-100479704D01*
X195245285Y-100517800D01*
X195321476Y-100593990D01*
X195359571Y-100670180D01*
X195397666Y-100822561D01*
X195397666Y-100936847D01*
X195359571Y-101089228D01*
X195321476Y-101165419D01*
X195245285Y-101241609D01*
X195131000Y-101279704D01*
X194940523Y-101279704D01*
X196121476Y-100479704D02*
X195740523Y-100479704D01*
X195702428Y-100860657D01*
X195740523Y-100822561D01*
X195816714Y-100784466D01*
X196007190Y-100784466D01*
X196083380Y-100822561D01*
X196121476Y-100860657D01*
X196159571Y-100936847D01*
X196159571Y-101127323D01*
X196121476Y-101203514D01*
X196083380Y-101241609D01*
X196007190Y-101279704D01*
X195816714Y-101279704D01*
X195740523Y-101241609D01*
X195702428Y-101203514D01*
D10*
X144783380Y-86597323D02*
X145497666Y-86597323D01*
X145640523Y-86644942D01*
X145735761Y-86740180D01*
X145783380Y-86883038D01*
X145783380Y-86978276D01*
X145783380Y-85597323D02*
X145783380Y-86168752D01*
X145783380Y-85883038D02*
X144783380Y-85883038D01*
X144926238Y-85978276D01*
X145021476Y-86073514D01*
X145069095Y-86168752D01*
X145783380Y-85121133D02*
X145783380Y-84930657D01*
X145735761Y-84835419D01*
X145688142Y-84787800D01*
X145545285Y-84692561D01*
X145354809Y-84644942D01*
X144973857Y-84644942D01*
X144878619Y-84692561D01*
X144831000Y-84740180D01*
X144783380Y-84835419D01*
X144783380Y-85025895D01*
X144831000Y-85121133D01*
X144878619Y-85168752D01*
X144973857Y-85216371D01*
X145211952Y-85216371D01*
X145307190Y-85168752D01*
X145354809Y-85121133D01*
X145402428Y-85025895D01*
X145402428Y-84835419D01*
X145354809Y-84740180D01*
X145307190Y-84692561D01*
X145211952Y-84644942D01*
X201390333Y-105334180D02*
X201057000Y-104857990D01*
X200818904Y-105334180D02*
X200818904Y-104334180D01*
X201199857Y-104334180D01*
X201295095Y-104381800D01*
X201342714Y-104429419D01*
X201390333Y-104524657D01*
X201390333Y-104667514D01*
X201342714Y-104762752D01*
X201295095Y-104810371D01*
X201199857Y-104857990D01*
X200818904Y-104857990D01*
X201723666Y-104334180D02*
X202342714Y-104334180D01*
X202009380Y-104715133D01*
X202152238Y-104715133D01*
X202247476Y-104762752D01*
X202295095Y-104810371D01*
X202342714Y-104905609D01*
X202342714Y-105143704D01*
X202295095Y-105238942D01*
X202247476Y-105286561D01*
X202152238Y-105334180D01*
X201866523Y-105334180D01*
X201771285Y-105286561D01*
X201723666Y-105238942D01*
X80339095Y-140246371D02*
X80672428Y-140246371D01*
X80815285Y-140770180D02*
X80339095Y-140770180D01*
X80339095Y-139770180D01*
X80815285Y-139770180D01*
X81243857Y-140770180D02*
X81243857Y-139770180D01*
X81481952Y-139770180D01*
X81624809Y-139817800D01*
X81720047Y-139913038D01*
X81767666Y-140008276D01*
X81815285Y-140198752D01*
X81815285Y-140341609D01*
X81767666Y-140532085D01*
X81720047Y-140627323D01*
X81624809Y-140722561D01*
X81481952Y-140770180D01*
X81243857Y-140770180D01*
X82196238Y-139865419D02*
X82243857Y-139817800D01*
X82339095Y-139770180D01*
X82577190Y-139770180D01*
X82672428Y-139817800D01*
X82720047Y-139865419D01*
X82767666Y-139960657D01*
X82767666Y-140055895D01*
X82720047Y-140198752D01*
X82148619Y-140770180D01*
X82767666Y-140770180D01*
X83243857Y-140770180D02*
X83434333Y-140770180D01*
X83529571Y-140722561D01*
X83577190Y-140674942D01*
X83672428Y-140532085D01*
X83720047Y-140341609D01*
X83720047Y-139960657D01*
X83672428Y-139865419D01*
X83624809Y-139817800D01*
X83529571Y-139770180D01*
X83339095Y-139770180D01*
X83243857Y-139817800D01*
X83196238Y-139865419D01*
X83148619Y-139960657D01*
X83148619Y-140198752D01*
X83196238Y-140293990D01*
X83243857Y-140341609D01*
X83339095Y-140389228D01*
X83529571Y-140389228D01*
X83624809Y-140341609D01*
X83672428Y-140293990D01*
X83720047Y-140198752D01*
X84624809Y-139770180D02*
X84148619Y-139770180D01*
X84101000Y-140246371D01*
X84148619Y-140198752D01*
X84243857Y-140151133D01*
X84481952Y-140151133D01*
X84577190Y-140198752D01*
X84624809Y-140246371D01*
X84672428Y-140341609D01*
X84672428Y-140579704D01*
X84624809Y-140674942D01*
X84577190Y-140722561D01*
X84481952Y-140770180D01*
X84243857Y-140770180D01*
X84148619Y-140722561D01*
X84101000Y-140674942D01*
X85005761Y-139770180D02*
X85624809Y-139770180D01*
X85291476Y-140151133D01*
X85434333Y-140151133D01*
X85529571Y-140198752D01*
X85577190Y-140246371D01*
X85624809Y-140341609D01*
X85624809Y-140579704D01*
X85577190Y-140674942D01*
X85529571Y-140722561D01*
X85434333Y-140770180D01*
X85148619Y-140770180D01*
X85053380Y-140722561D01*
X85005761Y-140674942D01*
X86053380Y-140389228D02*
X86815285Y-140389228D01*
X87291476Y-140770180D02*
X87291476Y-139770180D01*
X87862904Y-140770180D01*
X87862904Y-139770180D01*
X88339095Y-140770180D02*
X88339095Y-139770180D01*
X88577190Y-139770180D01*
X88720047Y-139817800D01*
X88815285Y-139913038D01*
X88862904Y-140008276D01*
X88910523Y-140198752D01*
X88910523Y-140341609D01*
X88862904Y-140532085D01*
X88815285Y-140627323D01*
X88720047Y-140722561D01*
X88577190Y-140770180D01*
X88339095Y-140770180D01*
X201083380Y-121827533D02*
X200607190Y-122160866D01*
X201083380Y-122398961D02*
X200083380Y-122398961D01*
X200083380Y-122018009D01*
X200131000Y-121922771D01*
X200178619Y-121875152D01*
X200273857Y-121827533D01*
X200416714Y-121827533D01*
X200511952Y-121875152D01*
X200559571Y-121922771D01*
X200607190Y-122018009D01*
X200607190Y-122398961D01*
X200559571Y-121398961D02*
X200559571Y-121065628D01*
X201083380Y-120922771D02*
X201083380Y-121398961D01*
X200083380Y-121398961D01*
X200083380Y-120922771D01*
X200559571Y-120160866D02*
X200559571Y-120494200D01*
X201083380Y-120494200D02*
X200083380Y-120494200D01*
X200083380Y-120018009D01*
X200083380Y-119494200D02*
X200321476Y-119494200D01*
X200226238Y-119732295D02*
X200321476Y-119494200D01*
X200226238Y-119256104D01*
X200511952Y-119637057D02*
X200321476Y-119494200D01*
X200511952Y-119351342D01*
X200083380Y-118732295D02*
X200321476Y-118732295D01*
X200226238Y-118970390D02*
X200321476Y-118732295D01*
X200226238Y-118494200D01*
X200511952Y-118875152D02*
X200321476Y-118732295D01*
X200511952Y-118589438D01*
X200774980Y-138547076D02*
X199774980Y-138547076D01*
X200489266Y-138213742D01*
X199774980Y-137880409D01*
X200774980Y-137880409D01*
X200774980Y-137261361D02*
X200727361Y-137356600D01*
X200679742Y-137404219D01*
X200584504Y-137451838D01*
X200298790Y-137451838D01*
X200203552Y-137404219D01*
X200155933Y-137356600D01*
X200108314Y-137261361D01*
X200108314Y-137118504D01*
X200155933Y-137023266D01*
X200203552Y-136975647D01*
X200298790Y-136928028D01*
X200584504Y-136928028D01*
X200679742Y-136975647D01*
X200727361Y-137023266D01*
X200774980Y-137118504D01*
X200774980Y-137261361D01*
X200108314Y-136070885D02*
X200774980Y-136070885D01*
X200108314Y-136499457D02*
X200632123Y-136499457D01*
X200727361Y-136451838D01*
X200774980Y-136356600D01*
X200774980Y-136213742D01*
X200727361Y-136118504D01*
X200679742Y-136070885D01*
X200108314Y-135594695D02*
X200774980Y-135594695D01*
X200203552Y-135594695D02*
X200155933Y-135547076D01*
X200108314Y-135451838D01*
X200108314Y-135308980D01*
X200155933Y-135213742D01*
X200251171Y-135166123D01*
X200774980Y-135166123D01*
X200108314Y-134832790D02*
X200108314Y-134451838D01*
X199774980Y-134689933D02*
X200632123Y-134689933D01*
X200727361Y-134642314D01*
X200774980Y-134547076D01*
X200774980Y-134451838D01*
X200774980Y-134118504D02*
X200108314Y-134118504D01*
X199774980Y-134118504D02*
X199822600Y-134166123D01*
X199870219Y-134118504D01*
X199822600Y-134070885D01*
X199774980Y-134118504D01*
X199870219Y-134118504D01*
X200108314Y-133642314D02*
X200774980Y-133642314D01*
X200203552Y-133642314D02*
X200155933Y-133594695D01*
X200108314Y-133499457D01*
X200108314Y-133356600D01*
X200155933Y-133261361D01*
X200251171Y-133213742D01*
X200774980Y-133213742D01*
X200108314Y-132308980D02*
X200917838Y-132308980D01*
X201013076Y-132356600D01*
X201060695Y-132404219D01*
X201108314Y-132499457D01*
X201108314Y-132642314D01*
X201060695Y-132737552D01*
X200727361Y-132308980D02*
X200774980Y-132404219D01*
X200774980Y-132594695D01*
X200727361Y-132689933D01*
X200679742Y-132737552D01*
X200584504Y-132785171D01*
X200298790Y-132785171D01*
X200203552Y-132737552D01*
X200155933Y-132689933D01*
X200108314Y-132594695D01*
X200108314Y-132404219D01*
X200155933Y-132308980D01*
X200774980Y-131832790D02*
X199774980Y-131832790D01*
X200251171Y-131832790D02*
X200251171Y-131261361D01*
X200774980Y-131261361D02*
X199774980Y-131261361D01*
X200774980Y-130642314D02*
X200727361Y-130737552D01*
X200679742Y-130785171D01*
X200584504Y-130832790D01*
X200298790Y-130832790D01*
X200203552Y-130785171D01*
X200155933Y-130737552D01*
X200108314Y-130642314D01*
X200108314Y-130499457D01*
X200155933Y-130404219D01*
X200203552Y-130356600D01*
X200298790Y-130308980D01*
X200584504Y-130308980D01*
X200679742Y-130356600D01*
X200727361Y-130404219D01*
X200774980Y-130499457D01*
X200774980Y-130642314D01*
X200774980Y-129737552D02*
X200727361Y-129832790D01*
X200632123Y-129880409D01*
X199774980Y-129880409D01*
X200727361Y-128975647D02*
X200774980Y-129070885D01*
X200774980Y-129261361D01*
X200727361Y-129356600D01*
X200632123Y-129404219D01*
X200251171Y-129404219D01*
X200155933Y-129356600D01*
X200108314Y-129261361D01*
X200108314Y-129070885D01*
X200155933Y-128975647D01*
X200251171Y-128928028D01*
X200346409Y-128928028D01*
X200441647Y-129404219D01*
X200870219Y-128737552D02*
X200870219Y-127975647D01*
X199774980Y-127832790D02*
X199774980Y-127213742D01*
X200155933Y-127547076D01*
X200155933Y-127404219D01*
X200203552Y-127308980D01*
X200251171Y-127261361D01*
X200346409Y-127213742D01*
X200584504Y-127213742D01*
X200679742Y-127261361D01*
X200727361Y-127308980D01*
X200774980Y-127404219D01*
X200774980Y-127689933D01*
X200727361Y-127785171D01*
X200679742Y-127832790D01*
X200679742Y-126785171D02*
X200727361Y-126737552D01*
X200774980Y-126785171D01*
X200727361Y-126832790D01*
X200679742Y-126785171D01*
X200774980Y-126785171D01*
X199774980Y-126404219D02*
X199774980Y-125737552D01*
X200774980Y-126166123D01*
X200774980Y-125356600D02*
X200108314Y-125356600D01*
X200203552Y-125356600D02*
X200155933Y-125308980D01*
X200108314Y-125213742D01*
X200108314Y-125070885D01*
X200155933Y-124975647D01*
X200251171Y-124928028D01*
X200774980Y-124928028D01*
X200251171Y-124928028D02*
X200155933Y-124880409D01*
X200108314Y-124785171D01*
X200108314Y-124642314D01*
X200155933Y-124547076D01*
X200251171Y-124499457D01*
X200774980Y-124499457D01*
X200774980Y-124023266D02*
X200108314Y-124023266D01*
X200203552Y-124023266D02*
X200155933Y-123975647D01*
X200108314Y-123880409D01*
X200108314Y-123737552D01*
X200155933Y-123642314D01*
X200251171Y-123594695D01*
X200774980Y-123594695D01*
X200251171Y-123594695D02*
X200155933Y-123547076D01*
X200108314Y-123451838D01*
X200108314Y-123308980D01*
X200155933Y-123213742D01*
X200251171Y-123166123D01*
X200774980Y-123166123D01*
X201083380Y-117357133D02*
X200607190Y-117690466D01*
X201083380Y-117928561D02*
X200083380Y-117928561D01*
X200083380Y-117547609D01*
X200131000Y-117452371D01*
X200178619Y-117404752D01*
X200273857Y-117357133D01*
X200416714Y-117357133D01*
X200511952Y-117404752D01*
X200559571Y-117452371D01*
X200607190Y-117547609D01*
X200607190Y-117928561D01*
X200559571Y-116928561D02*
X200559571Y-116595228D01*
X201083380Y-116452371D02*
X201083380Y-116928561D01*
X200083380Y-116928561D01*
X200083380Y-116452371D01*
X200559571Y-115690466D02*
X200559571Y-116023800D01*
X201083380Y-116023800D02*
X200083380Y-116023800D01*
X200083380Y-115547609D01*
X200083380Y-115023800D02*
X200321476Y-115023800D01*
X200226238Y-115261895D02*
X200321476Y-115023800D01*
X200226238Y-114785704D01*
X200511952Y-115166657D02*
X200321476Y-115023800D01*
X200511952Y-114880942D01*
X200083380Y-114261895D02*
X200321476Y-114261895D01*
X200226238Y-114499990D02*
X200321476Y-114261895D01*
X200226238Y-114023800D01*
X200511952Y-114404752D02*
X200321476Y-114261895D01*
X200511952Y-114119038D01*
X200139095Y-150546371D02*
X200472428Y-150546371D01*
X200615285Y-151070180D02*
X200139095Y-151070180D01*
X200139095Y-150070180D01*
X200615285Y-150070180D01*
X201043857Y-151070180D02*
X201043857Y-150070180D01*
X201281952Y-150070180D01*
X201424809Y-150117800D01*
X201520047Y-150213038D01*
X201567666Y-150308276D01*
X201615285Y-150498752D01*
X201615285Y-150641609D01*
X201567666Y-150832085D01*
X201520047Y-150927323D01*
X201424809Y-151022561D01*
X201281952Y-151070180D01*
X201043857Y-151070180D01*
X201996238Y-150165419D02*
X202043857Y-150117800D01*
X202139095Y-150070180D01*
X202377190Y-150070180D01*
X202472428Y-150117800D01*
X202520047Y-150165419D01*
X202567666Y-150260657D01*
X202567666Y-150355895D01*
X202520047Y-150498752D01*
X201948619Y-151070180D01*
X202567666Y-151070180D01*
X203043857Y-151070180D02*
X203234333Y-151070180D01*
X203329571Y-151022561D01*
X203377190Y-150974942D01*
X203472428Y-150832085D01*
X203520047Y-150641609D01*
X203520047Y-150260657D01*
X203472428Y-150165419D01*
X203424809Y-150117800D01*
X203329571Y-150070180D01*
X203139095Y-150070180D01*
X203043857Y-150117800D01*
X202996238Y-150165419D01*
X202948619Y-150260657D01*
X202948619Y-150498752D01*
X202996238Y-150593990D01*
X203043857Y-150641609D01*
X203139095Y-150689228D01*
X203329571Y-150689228D01*
X203424809Y-150641609D01*
X203472428Y-150593990D01*
X203520047Y-150498752D01*
X204424809Y-150070180D02*
X203948619Y-150070180D01*
X203901000Y-150546371D01*
X203948619Y-150498752D01*
X204043857Y-150451133D01*
X204281952Y-150451133D01*
X204377190Y-150498752D01*
X204424809Y-150546371D01*
X204472428Y-150641609D01*
X204472428Y-150879704D01*
X204424809Y-150974942D01*
X204377190Y-151022561D01*
X204281952Y-151070180D01*
X204043857Y-151070180D01*
X203948619Y-151022561D01*
X203901000Y-150974942D01*
X204805761Y-150070180D02*
X205424809Y-150070180D01*
X205091476Y-150451133D01*
X205234333Y-150451133D01*
X205329571Y-150498752D01*
X205377190Y-150546371D01*
X205424809Y-150641609D01*
X205424809Y-150879704D01*
X205377190Y-150974942D01*
X205329571Y-151022561D01*
X205234333Y-151070180D01*
X204948619Y-151070180D01*
X204853380Y-151022561D01*
X204805761Y-150974942D01*
X205853380Y-150689228D02*
X206615285Y-150689228D01*
X207091476Y-151070180D02*
X207091476Y-150070180D01*
X207662904Y-151070180D01*
X207662904Y-150070180D01*
X208139095Y-151070180D02*
X208139095Y-150070180D01*
X208377190Y-150070180D01*
X208520047Y-150117800D01*
X208615285Y-150213038D01*
X208662904Y-150308276D01*
X208710523Y-150498752D01*
X208710523Y-150641609D01*
X208662904Y-150832085D01*
X208615285Y-150927323D01*
X208520047Y-151022561D01*
X208377190Y-151070180D01*
X208139095Y-151070180D01*
X217081980Y-132902066D02*
X216605790Y-133235400D01*
X217081980Y-133473495D02*
X216081980Y-133473495D01*
X216081980Y-133092542D01*
X216129600Y-132997304D01*
X216177219Y-132949685D01*
X216272457Y-132902066D01*
X216415314Y-132902066D01*
X216510552Y-132949685D01*
X216558171Y-132997304D01*
X216605790Y-133092542D01*
X216605790Y-133473495D01*
X216177219Y-132521114D02*
X216129600Y-132473495D01*
X216081980Y-132378257D01*
X216081980Y-132140161D01*
X216129600Y-132044923D01*
X216177219Y-131997304D01*
X216272457Y-131949685D01*
X216367695Y-131949685D01*
X216510552Y-131997304D01*
X217081980Y-132568733D01*
X217081980Y-131949685D01*
D12*
X216762904Y-124891476D02*
X215962904Y-124891476D01*
X215962904Y-124701000D01*
X216001000Y-124586714D01*
X216077190Y-124510523D01*
X216153380Y-124472428D01*
X216305761Y-124434333D01*
X216420047Y-124434333D01*
X216572428Y-124472428D01*
X216648619Y-124510523D01*
X216724809Y-124586714D01*
X216762904Y-124701000D01*
X216762904Y-124891476D01*
X216229571Y-123748619D02*
X216762904Y-123748619D01*
X215924809Y-123939095D02*
X216496238Y-124129571D01*
X216496238Y-123634333D01*
D10*
X74083380Y-121827533D02*
X73607190Y-122160866D01*
X74083380Y-122398961D02*
X73083380Y-122398961D01*
X73083380Y-122018009D01*
X73131000Y-121922771D01*
X73178619Y-121875152D01*
X73273857Y-121827533D01*
X73416714Y-121827533D01*
X73511952Y-121875152D01*
X73559571Y-121922771D01*
X73607190Y-122018009D01*
X73607190Y-122398961D01*
X73559571Y-121398961D02*
X73559571Y-121065628D01*
X74083380Y-120922771D02*
X74083380Y-121398961D01*
X73083380Y-121398961D01*
X73083380Y-120922771D01*
X73559571Y-120160866D02*
X73559571Y-120494200D01*
X74083380Y-120494200D02*
X73083380Y-120494200D01*
X73083380Y-120018009D01*
X73083380Y-119494200D02*
X73321476Y-119494200D01*
X73226238Y-119732295D02*
X73321476Y-119494200D01*
X73226238Y-119256104D01*
X73511952Y-119637057D02*
X73321476Y-119494200D01*
X73511952Y-119351342D01*
X73083380Y-118732295D02*
X73321476Y-118732295D01*
X73226238Y-118970390D02*
X73321476Y-118732295D01*
X73226238Y-118494200D01*
X73511952Y-118875152D02*
X73321476Y-118732295D01*
X73511952Y-118589438D01*
X73774980Y-138547076D02*
X72774980Y-138547076D01*
X73489266Y-138213742D01*
X72774980Y-137880409D01*
X73774980Y-137880409D01*
X73774980Y-137261361D02*
X73727361Y-137356600D01*
X73679742Y-137404219D01*
X73584504Y-137451838D01*
X73298790Y-137451838D01*
X73203552Y-137404219D01*
X73155933Y-137356600D01*
X73108314Y-137261361D01*
X73108314Y-137118504D01*
X73155933Y-137023266D01*
X73203552Y-136975647D01*
X73298790Y-136928028D01*
X73584504Y-136928028D01*
X73679742Y-136975647D01*
X73727361Y-137023266D01*
X73774980Y-137118504D01*
X73774980Y-137261361D01*
X73108314Y-136070885D02*
X73774980Y-136070885D01*
X73108314Y-136499457D02*
X73632123Y-136499457D01*
X73727361Y-136451838D01*
X73774980Y-136356600D01*
X73774980Y-136213742D01*
X73727361Y-136118504D01*
X73679742Y-136070885D01*
X73108314Y-135594695D02*
X73774980Y-135594695D01*
X73203552Y-135594695D02*
X73155933Y-135547076D01*
X73108314Y-135451838D01*
X73108314Y-135308980D01*
X73155933Y-135213742D01*
X73251171Y-135166123D01*
X73774980Y-135166123D01*
X73108314Y-134832790D02*
X73108314Y-134451838D01*
X72774980Y-134689933D02*
X73632123Y-134689933D01*
X73727361Y-134642314D01*
X73774980Y-134547076D01*
X73774980Y-134451838D01*
X73774980Y-134118504D02*
X73108314Y-134118504D01*
X72774980Y-134118504D02*
X72822600Y-134166123D01*
X72870219Y-134118504D01*
X72822600Y-134070885D01*
X72774980Y-134118504D01*
X72870219Y-134118504D01*
X73108314Y-133642314D02*
X73774980Y-133642314D01*
X73203552Y-133642314D02*
X73155933Y-133594695D01*
X73108314Y-133499457D01*
X73108314Y-133356600D01*
X73155933Y-133261361D01*
X73251171Y-133213742D01*
X73774980Y-133213742D01*
X73108314Y-132308980D02*
X73917838Y-132308980D01*
X74013076Y-132356600D01*
X74060695Y-132404219D01*
X74108314Y-132499457D01*
X74108314Y-132642314D01*
X74060695Y-132737552D01*
X73727361Y-132308980D02*
X73774980Y-132404219D01*
X73774980Y-132594695D01*
X73727361Y-132689933D01*
X73679742Y-132737552D01*
X73584504Y-132785171D01*
X73298790Y-132785171D01*
X73203552Y-132737552D01*
X73155933Y-132689933D01*
X73108314Y-132594695D01*
X73108314Y-132404219D01*
X73155933Y-132308980D01*
X73774980Y-131832790D02*
X72774980Y-131832790D01*
X73251171Y-131832790D02*
X73251171Y-131261361D01*
X73774980Y-131261361D02*
X72774980Y-131261361D01*
X73774980Y-130642314D02*
X73727361Y-130737552D01*
X73679742Y-130785171D01*
X73584504Y-130832790D01*
X73298790Y-130832790D01*
X73203552Y-130785171D01*
X73155933Y-130737552D01*
X73108314Y-130642314D01*
X73108314Y-130499457D01*
X73155933Y-130404219D01*
X73203552Y-130356600D01*
X73298790Y-130308980D01*
X73584504Y-130308980D01*
X73679742Y-130356600D01*
X73727361Y-130404219D01*
X73774980Y-130499457D01*
X73774980Y-130642314D01*
X73774980Y-129737552D02*
X73727361Y-129832790D01*
X73632123Y-129880409D01*
X72774980Y-129880409D01*
X73727361Y-128975647D02*
X73774980Y-129070885D01*
X73774980Y-129261361D01*
X73727361Y-129356600D01*
X73632123Y-129404219D01*
X73251171Y-129404219D01*
X73155933Y-129356600D01*
X73108314Y-129261361D01*
X73108314Y-129070885D01*
X73155933Y-128975647D01*
X73251171Y-128928028D01*
X73346409Y-128928028D01*
X73441647Y-129404219D01*
X73870219Y-128737552D02*
X73870219Y-127975647D01*
X72774980Y-127832790D02*
X72774980Y-127213742D01*
X73155933Y-127547076D01*
X73155933Y-127404219D01*
X73203552Y-127308980D01*
X73251171Y-127261361D01*
X73346409Y-127213742D01*
X73584504Y-127213742D01*
X73679742Y-127261361D01*
X73727361Y-127308980D01*
X73774980Y-127404219D01*
X73774980Y-127689933D01*
X73727361Y-127785171D01*
X73679742Y-127832790D01*
X73679742Y-126785171D02*
X73727361Y-126737552D01*
X73774980Y-126785171D01*
X73727361Y-126832790D01*
X73679742Y-126785171D01*
X73774980Y-126785171D01*
X72774980Y-126404219D02*
X72774980Y-125737552D01*
X73774980Y-126166123D01*
X73774980Y-125356600D02*
X73108314Y-125356600D01*
X73203552Y-125356600D02*
X73155933Y-125308980D01*
X73108314Y-125213742D01*
X73108314Y-125070885D01*
X73155933Y-124975647D01*
X73251171Y-124928028D01*
X73774980Y-124928028D01*
X73251171Y-124928028D02*
X73155933Y-124880409D01*
X73108314Y-124785171D01*
X73108314Y-124642314D01*
X73155933Y-124547076D01*
X73251171Y-124499457D01*
X73774980Y-124499457D01*
X73774980Y-124023266D02*
X73108314Y-124023266D01*
X73203552Y-124023266D02*
X73155933Y-123975647D01*
X73108314Y-123880409D01*
X73108314Y-123737552D01*
X73155933Y-123642314D01*
X73251171Y-123594695D01*
X73774980Y-123594695D01*
X73251171Y-123594695D02*
X73155933Y-123547076D01*
X73108314Y-123451838D01*
X73108314Y-123308980D01*
X73155933Y-123213742D01*
X73251171Y-123166123D01*
X73774980Y-123166123D01*
X74083380Y-117357133D02*
X73607190Y-117690466D01*
X74083380Y-117928561D02*
X73083380Y-117928561D01*
X73083380Y-117547609D01*
X73131000Y-117452371D01*
X73178619Y-117404752D01*
X73273857Y-117357133D01*
X73416714Y-117357133D01*
X73511952Y-117404752D01*
X73559571Y-117452371D01*
X73607190Y-117547609D01*
X73607190Y-117928561D01*
X73559571Y-116928561D02*
X73559571Y-116595228D01*
X74083380Y-116452371D02*
X74083380Y-116928561D01*
X73083380Y-116928561D01*
X73083380Y-116452371D01*
X73559571Y-115690466D02*
X73559571Y-116023800D01*
X74083380Y-116023800D02*
X73083380Y-116023800D01*
X73083380Y-115547609D01*
X73083380Y-115023800D02*
X73321476Y-115023800D01*
X73226238Y-115261895D02*
X73321476Y-115023800D01*
X73226238Y-114785704D01*
X73511952Y-115166657D02*
X73321476Y-115023800D01*
X73511952Y-114880942D01*
X73083380Y-114261895D02*
X73321476Y-114261895D01*
X73226238Y-114499990D02*
X73321476Y-114261895D01*
X73226238Y-114023800D01*
X73511952Y-114404752D02*
X73321476Y-114261895D01*
X73511952Y-114119038D01*
D13*
X188382400Y-105305100D02*
X190382400Y-105305100D01*
X190382400Y-105305100D02*
X190382400Y-98305100D01*
X190382400Y-98305100D02*
X188382400Y-98305100D01*
X188382400Y-98305100D02*
X188382400Y-105305100D01*
X98550000Y-132600000D02*
X98550000Y-125350000D01*
X86650000Y-132600000D02*
X98550000Y-132600000D01*
X86650000Y-125350000D02*
X86650000Y-132600000D01*
X86150000Y-126100000D02*
X86150000Y-124850000D01*
X86150000Y-124850000D02*
X88150000Y-124850000D01*
X98550000Y-125350000D02*
X86650000Y-125350000D01*
X116650000Y-112350000D02*
X116650000Y-119600000D01*
X116150000Y-113100000D02*
X116150000Y-111850000D01*
X116650000Y-119600000D02*
X128550000Y-119600000D01*
X116150000Y-111850000D02*
X118150000Y-111850000D01*
X128550000Y-112350000D02*
X116650000Y-112350000D01*
X128550000Y-119600000D02*
X128550000Y-112350000D01*
X116264342Y-126100000D02*
X116264342Y-124850000D01*
X128664342Y-125350000D02*
X116764342Y-125350000D01*
X128664342Y-132600000D02*
X128664342Y-125350000D01*
X116764342Y-132600000D02*
X128664342Y-132600000D01*
X116264342Y-124850000D02*
X118264342Y-124850000D01*
X116764342Y-125350000D02*
X116764342Y-132600000D01*
X131150000Y-113100000D02*
X131150000Y-111850000D01*
X143550000Y-119600000D02*
X143550000Y-112350000D01*
X131650000Y-119600000D02*
X143550000Y-119600000D01*
X143550000Y-112350000D02*
X131650000Y-112350000D01*
X131150000Y-111850000D02*
X133150000Y-111850000D01*
X131650000Y-112350000D02*
X131650000Y-119600000D01*
X131650000Y-132600000D02*
X143550000Y-132600000D01*
X143550000Y-132600000D02*
X143550000Y-125350000D01*
X131150000Y-124850000D02*
X133150000Y-124850000D01*
X131650000Y-125350000D02*
X131650000Y-132600000D01*
X143550000Y-125350000D02*
X131650000Y-125350000D01*
X131150000Y-126100000D02*
X131150000Y-124850000D01*
X146650000Y-119600000D02*
X158550000Y-119600000D01*
X146150000Y-113100000D02*
X146150000Y-111850000D01*
X146150000Y-111850000D02*
X148150000Y-111850000D01*
X158550000Y-119600000D02*
X158550000Y-112350000D01*
X146650000Y-112350000D02*
X146650000Y-119600000D01*
X158550000Y-112350000D02*
X146650000Y-112350000D01*
X158550000Y-125350000D02*
X146650000Y-125350000D01*
X146150000Y-126100000D02*
X146150000Y-124850000D01*
X146150000Y-124850000D02*
X148150000Y-124850000D01*
X146650000Y-125350000D02*
X146650000Y-132600000D01*
X158550000Y-132600000D02*
X158550000Y-125350000D01*
X146650000Y-132600000D02*
X158550000Y-132600000D01*
X161150000Y-111850000D02*
X163150000Y-111850000D01*
X161150000Y-113100000D02*
X161150000Y-111850000D01*
X161650000Y-119600000D02*
X173550000Y-119600000D01*
X161650000Y-112350000D02*
X161650000Y-119600000D01*
X173550000Y-112350000D02*
X161650000Y-112350000D01*
X173550000Y-119600000D02*
X173550000Y-112350000D01*
X161650000Y-125350000D02*
X161650000Y-132600000D01*
X161150000Y-126100000D02*
X161150000Y-124850000D01*
X173550000Y-125350000D02*
X161650000Y-125350000D01*
X161650000Y-132600000D02*
X173550000Y-132600000D01*
X173550000Y-132600000D02*
X173550000Y-125350000D01*
X161150000Y-124850000D02*
X163150000Y-124850000D01*
X176150000Y-113100000D02*
X176150000Y-111850000D01*
X188550000Y-112350000D02*
X176650000Y-112350000D01*
X176150000Y-111850000D02*
X178150000Y-111850000D01*
X176650000Y-119600000D02*
X188550000Y-119600000D01*
X176650000Y-112350000D02*
X176650000Y-119600000D01*
X188550000Y-119600000D02*
X188550000Y-112350000D01*
X176150000Y-124850000D02*
X178150000Y-124850000D01*
X188550000Y-125350000D02*
X176650000Y-125350000D01*
X176650000Y-132600000D02*
X188550000Y-132600000D01*
X176150000Y-126100000D02*
X176150000Y-124850000D01*
X188550000Y-132600000D02*
X188550000Y-125350000D01*
X176650000Y-125350000D02*
X176650000Y-132600000D01*
X191150000Y-113100000D02*
X191150000Y-111850000D01*
X191150000Y-111850000D02*
X193150000Y-111850000D01*
X191650000Y-112350000D02*
X191650000Y-119600000D01*
X191650000Y-119600000D02*
X203550000Y-119600000D01*
X203550000Y-119600000D02*
X203550000Y-112350000D01*
X203550000Y-112350000D02*
X191650000Y-112350000D01*
X191150000Y-124850000D02*
X193150000Y-124850000D01*
X191650000Y-125350000D02*
X191650000Y-132600000D01*
X191650000Y-132600000D02*
X203550000Y-132600000D01*
X203550000Y-132600000D02*
X203550000Y-125350000D01*
X191150000Y-126100000D02*
X191150000Y-124850000D01*
X203550000Y-125350000D02*
X191650000Y-125350000D01*
D14*
X164708900Y-98576600D02*
X165496300Y-98576600D01*
X179948900Y-105180600D02*
X179948900Y-106082300D01*
X162956300Y-106082300D02*
X162956300Y-105180600D01*
X174868900Y-106082300D02*
X175656300Y-106082300D01*
X183276300Y-105180600D02*
X182488900Y-105180600D01*
X173116300Y-97674900D02*
X172328900Y-97674900D01*
X169788900Y-98576600D02*
X170576300Y-98576600D01*
X160530600Y-105180600D02*
X187454600Y-105180600D01*
X185028900Y-97674900D02*
X185028900Y-98576600D01*
X182488900Y-105180600D02*
X182488900Y-106082300D01*
X165496300Y-97674900D02*
X164708900Y-97674900D01*
X172328900Y-97674900D02*
X172328900Y-98576600D01*
X180736300Y-98576600D02*
X180736300Y-97674900D01*
X167248900Y-106082300D02*
X168036300Y-106082300D01*
X162956300Y-105180600D02*
X162168900Y-105180600D01*
X182488900Y-97674900D02*
X182488900Y-98576600D01*
X185028900Y-106082300D02*
X185816300Y-106082300D01*
X165496300Y-106082300D02*
X165496300Y-105180600D01*
X170576300Y-97674900D02*
X169788900Y-97674900D01*
X183276300Y-98576600D02*
X183276300Y-97674900D01*
X185816300Y-105180600D02*
X185028900Y-105180600D01*
X185816300Y-97674900D02*
X185028900Y-97674900D01*
X170576300Y-98576600D02*
X170576300Y-97674900D01*
X168036300Y-106082300D02*
X168036300Y-105180600D01*
X177408900Y-97674900D02*
X177408900Y-98576600D01*
X175656300Y-97674900D02*
X174868900Y-97674900D01*
X178196300Y-98576600D02*
X178196300Y-97674900D01*
X179948900Y-98576600D02*
X180736300Y-98576600D01*
X167248900Y-97674900D02*
X167248900Y-98576600D01*
X162168900Y-106082300D02*
X162956300Y-106082300D01*
X170576300Y-106082300D02*
X170576300Y-105180600D01*
X185816300Y-106082300D02*
X185816300Y-105180600D01*
X173116300Y-106082300D02*
X173116300Y-105180600D01*
X174868900Y-105180600D02*
X174868900Y-106082300D01*
X164708900Y-106082300D02*
X165496300Y-106082300D01*
X169788900Y-106082300D02*
X170576300Y-106082300D01*
X183276300Y-97674900D02*
X182488900Y-97674900D01*
X177408900Y-106082300D02*
X178196300Y-106082300D01*
X169788900Y-97674900D02*
X169788900Y-98576600D01*
X178196300Y-106082300D02*
X178196300Y-105180600D01*
X187454600Y-105180600D02*
X187454600Y-98576600D01*
X169788900Y-105180600D02*
X169788900Y-106082300D01*
X175656300Y-105180600D02*
X174868900Y-105180600D01*
X182488900Y-106082300D02*
X183276300Y-106082300D01*
X164708900Y-105180600D02*
X164708900Y-106082300D01*
X175656300Y-98576600D02*
X175656300Y-97674900D01*
X167248900Y-98576600D02*
X168036300Y-98576600D01*
X174868900Y-98576600D02*
X175656300Y-98576600D01*
X170576300Y-105180600D02*
X169788900Y-105180600D01*
X182488900Y-98576600D02*
X183276300Y-98576600D01*
X174868900Y-97674900D02*
X174868900Y-98576600D01*
X179948900Y-97674900D02*
X179948900Y-98576600D01*
X165496300Y-98576600D02*
X165496300Y-97674900D01*
X168036300Y-105180600D02*
X167248900Y-105180600D01*
X172328900Y-106082300D02*
X173116300Y-106082300D01*
X162168900Y-105180600D02*
X162168900Y-106082300D01*
X185028900Y-105180600D02*
X185028900Y-106082300D01*
X177408900Y-105180600D02*
X177408900Y-106082300D01*
X183276300Y-106082300D02*
X183276300Y-105180600D01*
X173116300Y-98576600D02*
X173116300Y-97674900D01*
X172328900Y-105180600D02*
X172328900Y-106082300D01*
X162168900Y-98576600D02*
X162956300Y-98576600D01*
X178196300Y-97674900D02*
X177408900Y-97674900D01*
X179948900Y-106082300D02*
X180736300Y-106082300D01*
X173116300Y-105180600D02*
X172328900Y-105180600D01*
X187454600Y-98576600D02*
X160530600Y-98576600D01*
X175656300Y-106082300D02*
X175656300Y-105180600D01*
X178196300Y-105180600D02*
X177408900Y-105180600D01*
X185816300Y-98576600D02*
X185816300Y-97674900D01*
X180736300Y-97674900D02*
X179948900Y-97674900D01*
X165496300Y-105180600D02*
X164708900Y-105180600D01*
X168036300Y-97674900D02*
X167248900Y-97674900D01*
X162168900Y-97674900D02*
X162168900Y-98576600D01*
X180736300Y-106082300D02*
X180736300Y-105180600D01*
X160530600Y-98576600D02*
X160530600Y-105180600D01*
X167248900Y-105180600D02*
X167248900Y-106082300D01*
X177408900Y-98576600D02*
X178196300Y-98576600D01*
X180736300Y-105180600D02*
X179948900Y-105180600D01*
X185028900Y-98576600D02*
X185816300Y-98576600D01*
X162956300Y-97674900D02*
X162168900Y-97674900D01*
X168036300Y-98576600D02*
X168036300Y-97674900D01*
X164708900Y-97674900D02*
X164708900Y-98576600D01*
X162956300Y-98576600D02*
X162956300Y-97674900D01*
X172328900Y-98576600D02*
X173116300Y-98576600D01*
X187454600Y-101573800D02*
G75*
G03*
X187454600Y-102183400I0J-304800D01*
G01*
D13*
X171847600Y-151305000D02*
X171847600Y-149705000D01*
X169247600Y-148280000D02*
X174447600Y-148280000D01*
X171847600Y-138605000D02*
X171847600Y-140205000D01*
X174447600Y-140205000D02*
X169247600Y-140205000D01*
X174447600Y-149705000D02*
X174447600Y-140205000D01*
X169247600Y-149705000D02*
X174447600Y-149705000D01*
X169247600Y-148180000D02*
X174447600Y-148180000D01*
X169247600Y-140205000D02*
X169247600Y-149705000D01*
X169247600Y-148380000D02*
X174447600Y-148380000D01*
X136242300Y-98330500D02*
X134242300Y-98330500D01*
X136242300Y-105330500D02*
X136242300Y-98330500D01*
X134242300Y-105330500D02*
X136242300Y-105330500D01*
X134242300Y-98330500D02*
X134242300Y-105330500D01*
X114631500Y-110063600D02*
X114631500Y-107563600D01*
X94271500Y-107563600D02*
X94271500Y-110063600D01*
X96831500Y-107563600D02*
X96831500Y-110063600D01*
X94271500Y-110063600D02*
X114631500Y-110063600D01*
X114631500Y-107563600D02*
X94271500Y-107563600D01*
X172556200Y-110063600D02*
X172556200Y-107563600D01*
X154756200Y-107563600D02*
X154756200Y-110063600D01*
X152196200Y-110063600D02*
X172556200Y-110063600D01*
X152196200Y-107563600D02*
X152196200Y-110063600D01*
X172556200Y-107563600D02*
X152196200Y-107563600D01*
X193882600Y-110063600D02*
X193882600Y-107563600D01*
X193882600Y-107563600D02*
X173522600Y-107563600D01*
X173522600Y-107563600D02*
X173522600Y-110063600D01*
X173522600Y-110063600D02*
X193882600Y-110063600D01*
X176082600Y-107563600D02*
X176082600Y-110063600D01*
X135922700Y-110063600D02*
X135922700Y-107563600D01*
X118122700Y-107563600D02*
X118122700Y-110063600D01*
X135922700Y-107563600D02*
X115562700Y-107563600D01*
X115562700Y-110063600D02*
X135922700Y-110063600D01*
X115562700Y-107563600D02*
X115562700Y-110063600D01*
X86650000Y-112350000D02*
X86650000Y-119600000D01*
X98550000Y-119600000D02*
X98550000Y-112350000D01*
X86150000Y-111850000D02*
X88150000Y-111850000D01*
X98550000Y-112350000D02*
X86650000Y-112350000D01*
X86650000Y-119600000D02*
X98550000Y-119600000D01*
X86150000Y-113100000D02*
X86150000Y-111850000D01*
X113550000Y-112350000D02*
X101650000Y-112350000D01*
X101150000Y-111850000D02*
X103150000Y-111850000D01*
X101150000Y-113100000D02*
X101150000Y-111850000D01*
X113550000Y-119600000D02*
X113550000Y-112350000D01*
X101650000Y-119600000D02*
X113550000Y-119600000D01*
X101650000Y-112350000D02*
X101650000Y-119600000D01*
X113550000Y-132600000D02*
X113550000Y-125350000D01*
X101150000Y-124850000D02*
X103150000Y-124850000D01*
X101150000Y-126100000D02*
X101150000Y-124850000D01*
X101650000Y-132600000D02*
X113550000Y-132600000D01*
X101650000Y-125350000D02*
X101650000Y-132600000D01*
X113550000Y-125350000D02*
X101650000Y-125350000D01*
X119932600Y-149568600D02*
X119932600Y-140068600D01*
X114732600Y-149568600D02*
X119932600Y-149568600D01*
X119932600Y-140068600D02*
X114732600Y-140068600D01*
X114732600Y-140068600D02*
X114732600Y-149568600D01*
X117332600Y-151168600D02*
X117332600Y-149568600D01*
X114732600Y-148143600D02*
X119932600Y-148143600D01*
X114732600Y-148243600D02*
X119932600Y-148243600D01*
X117332600Y-138468600D02*
X117332600Y-140068600D01*
X114732600Y-148043600D02*
X119932600Y-148043600D01*
D14*
X107918900Y-97674900D02*
X107918900Y-98576600D01*
X133204600Y-98576600D02*
X106280600Y-98576600D01*
X118078900Y-105180600D02*
X118078900Y-106082300D01*
X118078900Y-97674900D02*
X118078900Y-98576600D01*
X112998900Y-106082300D02*
X113786300Y-106082300D01*
X131566300Y-98576600D02*
X131566300Y-97674900D01*
X126486300Y-106082300D02*
X126486300Y-105180600D01*
X121406300Y-98576600D02*
X121406300Y-97674900D01*
X130778900Y-97674900D02*
X130778900Y-98576600D01*
X121406300Y-97674900D02*
X120618900Y-97674900D01*
X128238900Y-105180600D02*
X128238900Y-106082300D01*
X111246300Y-97674900D02*
X110458900Y-97674900D01*
X125698900Y-105180600D02*
X125698900Y-106082300D01*
X126486300Y-97674900D02*
X125698900Y-97674900D01*
X113786300Y-97674900D02*
X112998900Y-97674900D01*
X123158900Y-105180600D02*
X123158900Y-106082300D01*
X106280600Y-98576600D02*
X106280600Y-105180600D01*
X116326300Y-105180600D02*
X115538900Y-105180600D01*
X118866300Y-98576600D02*
X118866300Y-97674900D01*
X123946300Y-98576600D02*
X123946300Y-97674900D01*
X133204600Y-105180600D02*
X133204600Y-98576600D01*
X121406300Y-106082300D02*
X121406300Y-105180600D01*
X121406300Y-105180600D02*
X120618900Y-105180600D01*
X125698900Y-98576600D02*
X126486300Y-98576600D01*
X131566300Y-106082300D02*
X131566300Y-105180600D01*
X128238900Y-98576600D02*
X129026300Y-98576600D01*
X107918900Y-98576600D02*
X108706300Y-98576600D01*
X130778900Y-106082300D02*
X131566300Y-106082300D01*
X111246300Y-98576600D02*
X111246300Y-97674900D01*
X108706300Y-97674900D02*
X107918900Y-97674900D01*
X107918900Y-106082300D02*
X108706300Y-106082300D01*
X108706300Y-105180600D02*
X107918900Y-105180600D01*
X111246300Y-105180600D02*
X110458900Y-105180600D01*
X128238900Y-106082300D02*
X129026300Y-106082300D01*
X106280600Y-105180600D02*
X133204600Y-105180600D01*
X115538900Y-98576600D02*
X116326300Y-98576600D01*
X110458900Y-106082300D02*
X111246300Y-106082300D01*
X126486300Y-98576600D02*
X126486300Y-97674900D01*
X116326300Y-106082300D02*
X116326300Y-105180600D01*
X120618900Y-97674900D02*
X120618900Y-98576600D01*
X115538900Y-105180600D02*
X115538900Y-106082300D01*
X113786300Y-98576600D02*
X113786300Y-97674900D01*
X112998900Y-98576600D02*
X113786300Y-98576600D01*
X125698900Y-97674900D02*
X125698900Y-98576600D01*
X125698900Y-106082300D02*
X126486300Y-106082300D01*
X120618900Y-98576600D02*
X121406300Y-98576600D01*
X130778900Y-98576600D02*
X131566300Y-98576600D01*
X129026300Y-105180600D02*
X128238900Y-105180600D01*
X108706300Y-98576600D02*
X108706300Y-97674900D01*
X129026300Y-97674900D02*
X128238900Y-97674900D01*
X118866300Y-106082300D02*
X118866300Y-105180600D01*
X120618900Y-106082300D02*
X121406300Y-106082300D01*
X113786300Y-105180600D02*
X112998900Y-105180600D01*
X120618900Y-105180600D02*
X120618900Y-106082300D01*
X118078900Y-98576600D02*
X118866300Y-98576600D01*
X129026300Y-98576600D02*
X129026300Y-97674900D01*
X112998900Y-97674900D02*
X112998900Y-98576600D01*
X115538900Y-97674900D02*
X115538900Y-98576600D01*
X116326300Y-97674900D02*
X115538900Y-97674900D01*
X118866300Y-105180600D02*
X118078900Y-105180600D01*
X116326300Y-98576600D02*
X116326300Y-97674900D01*
X131566300Y-105180600D02*
X130778900Y-105180600D01*
X112998900Y-105180600D02*
X112998900Y-106082300D01*
X123946300Y-106082300D02*
X123946300Y-105180600D01*
X123946300Y-97674900D02*
X123158900Y-97674900D01*
X130778900Y-105180600D02*
X130778900Y-106082300D01*
X131566300Y-97674900D02*
X130778900Y-97674900D01*
X110458900Y-105180600D02*
X110458900Y-106082300D01*
X108706300Y-106082300D02*
X108706300Y-105180600D01*
X129026300Y-106082300D02*
X129026300Y-105180600D01*
X115538900Y-106082300D02*
X116326300Y-106082300D01*
X126486300Y-105180600D02*
X125698900Y-105180600D01*
X123946300Y-105180600D02*
X123158900Y-105180600D01*
X118078900Y-106082300D02*
X118866300Y-106082300D01*
X107918900Y-105180600D02*
X107918900Y-106082300D01*
X123158900Y-97674900D02*
X123158900Y-98576600D01*
X128238900Y-97674900D02*
X128238900Y-98576600D01*
X110458900Y-98576600D02*
X111246300Y-98576600D01*
X123158900Y-98576600D02*
X123946300Y-98576600D01*
X118866300Y-97674900D02*
X118078900Y-97674900D01*
X123158900Y-106082300D02*
X123946300Y-106082300D01*
X110458900Y-97674900D02*
X110458900Y-98576600D01*
X111246300Y-106082300D02*
X111246300Y-105180600D01*
X113786300Y-106082300D02*
X113786300Y-105180600D01*
X133204600Y-101573800D02*
G75*
G03*
X133204600Y-102183400I0J-304800D01*
G01*
D13*
X73767190Y-122601000D02*
X71434810Y-122601000D01*
X71435524Y-122600445D02*
G75*
G03*
X73767190Y-122601000I1165476J-1500555D01*
G01*
X74101000Y-124101000D02*
G75*
G03*
X74101000Y-124101000I-1500000J0D01*
G01*
X71351000Y-129052000D02*
X71351000Y-135352000D01*
X72601000Y-128392000D02*
X72601000Y-129052000D01*
X73851000Y-135352000D02*
X73851000Y-129052000D01*
X72601000Y-136012000D02*
X72601000Y-135352000D01*
X73851000Y-129052000D02*
X71351000Y-129052000D01*
X71351000Y-135352000D02*
X73851000Y-135352000D01*
X197231000Y-102083990D02*
X197231000Y-99751610D01*
X197231555Y-99752324D02*
G75*
G03*
X197231000Y-102083990I-1500555J-1165476D01*
G01*
X197231000Y-100917800D02*
G75*
G03*
X197231000Y-100917800I-1500000J0D01*
G01*
X116641000Y-81912800D02*
X174001000Y-81912800D01*
X174561000Y-81362800D02*
X174561000Y-90212800D01*
X174561000Y-81362800D02*
X174001000Y-81912800D01*
X116101000Y-81362800D02*
X174561000Y-81362800D01*
X143081000Y-89662800D02*
X143081000Y-90212800D01*
X116641000Y-89662800D02*
X143081000Y-89662800D01*
X147581000Y-89662800D02*
X174001000Y-89662800D01*
X116101000Y-81362800D02*
X116101000Y-90212800D01*
X116101000Y-90212800D02*
X116641000Y-89662800D01*
X147581000Y-89662800D02*
X147581000Y-90212800D01*
X174561000Y-90212800D02*
X174001000Y-89662800D01*
X116641000Y-81912800D02*
X116641000Y-89662800D01*
X174001000Y-81912800D02*
X174001000Y-89662800D01*
X116101000Y-81362800D02*
X116641000Y-81912800D01*
X116101000Y-90212800D02*
X174561000Y-90212800D01*
X201501000Y-108517800D02*
X201501000Y-107857800D01*
X200251000Y-101557800D02*
X200251000Y-107857800D01*
X202751000Y-101557800D02*
X200251000Y-101557800D01*
X201501000Y-100897800D02*
X201501000Y-101557800D01*
X202751000Y-107857800D02*
X202751000Y-101557800D01*
X200251000Y-107857800D02*
X202751000Y-107857800D01*
X217651000Y-129052000D02*
X215151000Y-129052000D01*
X216401000Y-136012000D02*
X216401000Y-135352000D01*
X215151000Y-129052000D02*
X215151000Y-135352000D01*
X216401000Y-128392000D02*
X216401000Y-129052000D01*
X217651000Y-135352000D02*
X217651000Y-129052000D01*
X215151000Y-135352000D02*
X217651000Y-135352000D01*
X217567190Y-122601000D02*
X215234810Y-122601000D01*
X215235524Y-122600445D02*
G75*
G03*
X217567190Y-122601000I1165476J-1500555D01*
G01*
X217901000Y-124101000D02*
G75*
G03*
X217901000Y-124101000I-1500000J0D01*
G01*
M02*
