M48
; DRILL file {KiCad (6.0.7)} date Sat Aug 20 02:00:59 2022
; FORMAT={-:-/ absolute / inch / decimal}
; #@! TF.CreationDate,2022-08-20T02:00:59-04:00
; #@! TF.GenerationSoftware,Kicad,Pcbnew,(6.0.7)
; #@! TF.FileFunction,Plated,1,2,PTH
FMAT,2
INCH
; #@! TA.AperFunction,Plated,PTH,ViaDrill
T1C0.0157
; #@! TA.AperFunction,Plated,PTH,ComponentDrill
T2C0.0299
; #@! TA.AperFunction,Plated,PTH,ComponentDrill
T3C0.0300
; #@! TA.AperFunction,Plated,PTH,ComponentDrill
T4C0.0394
; #@! TA.AperFunction,Plated,PTH,ComponentDrill
T5C0.0433
; #@! TA.AperFunction,Plated,PTH,ComponentDrill
T6C0.0472
; #@! TA.AperFunction,Plated,PTH,ComponentDrill
T7C0.0650
; #@! TA.AperFunction,Plated,PTH,ComponentDrill
T8C0.0669
%
G90
G05
T1
X2.9133Y-2.4489
X2.9133Y-2.6851
X2.9133Y-2.9607
X2.9133Y-3.2757
X2.9133Y-3.63
X2.9133Y-3.9056
X2.9133Y-4.3387
X2.9133Y-4.693
X2.9637Y-5.3958
X2.9637Y-5.5533
X2.9637Y-5.8682
X3.0818Y-5.8682
X3.2Y-5.8682
X3.2283Y-5.0867
X3.2314Y-4.9273
X3.2669Y-5.3013
X3.2944Y-5.4155
X3.307Y-2.9607
X3.307Y-3.2757
X3.307Y-3.63
X3.307Y-3.9056
X3.307Y-4.3387
X3.3574Y-5.5533
X3.3574Y-5.9076
X3.4007Y-4.7462
X3.4755Y-5.5533
X3.4755Y-5.9076
X3.574Y-5.4155
X3.5937Y-5.5533
X3.5937Y-5.9076
X3.7263Y-3.4233
X3.7263Y-4.3347
X3.7283Y-3.5749
X3.7657Y-3.882
X3.8181Y-4.9706
X3.8326Y-4.3721
X3.872Y-2.5966
X3.872Y-2.884
X3.874Y-3.1162
X3.9192Y-4.0355
X3.9409Y-3.7403
X3.9626Y-3.2383
X3.9724Y-4.7757
X3.9901Y-2.5001
X3.994Y-4.2225
X3.998Y-3.8899
X4.0019Y-4.3721
X4.0728Y-3.0454
X4.119Y-2.7944
X4.121Y-3.5424
X4.122Y-3.819
X4.1259Y-4.3781
X4.1574Y-2.4489
X4.183Y-2.8187
X4.185Y-4.1733
X4.2082Y-2.6599
X4.2116Y-2.7038
X4.2145Y-2.7599
X4.2165Y-2.9922
X4.2204Y-3.3997
X4.2204Y-3.4597
X4.2244Y-3.1655
X4.2253Y-3.5021
X4.2257Y-3.5428
X4.2322Y-3.8918
X4.244Y-4.0414
X4.2519Y-3.7383
X4.2657Y-3.2481
X4.3149Y-2.4568
X4.3267Y-4.8958
X4.3326Y-4.3151
X4.3602Y-3.0552
X4.3799Y-2.7659
X4.3897Y-3.7757
X4.3897Y-3.8997
X4.3917Y-2.5946
X4.3937Y-3.5592
X4.4094Y-2.9056
X4.4114Y-3.3426
X4.4192Y-2.7954
X4.4212Y-3.0198
X4.4212Y-4.3721
X4.4224Y-4.9844
X4.4281Y-2.7107
X4.4291Y-2.6615
X4.4301Y-2.8633
X4.4389Y-3.7344
X4.4448Y-3.6123
X4.4448Y-3.6556
X4.4537Y-3.5503
X4.4547Y-3.4115
X4.4547Y-3.4627
X4.5236Y-4.0316
X4.5551Y-4.3721
X4.557Y-2.571
X4.5649Y-2.9509
X4.5669Y-2.7659
X4.5669Y-2.8741
X4.5708Y-2.4588
X4.5767Y-3.2855
X4.5846Y-4.1674
X4.5885Y-4.2777
X4.5905Y-3.382
X4.5944Y-3.2088
X4.5984Y-3.6084
X4.6102Y-3.8603
X4.6397Y-2.5375
X4.6633Y-3.7678
X4.687Y-4.3781
X4.7303Y-3.7403
X4.7421Y-2.7698
X4.7677Y-4.2206
X4.7755Y-4.3761
X4.7913Y-3.0296
X4.8011Y-3.6162
X4.8149Y-2.88
X4.8425Y-2.9647
X4.8653Y-5.256
X4.8838Y-4.3761
X4.9448Y-2.8662
X4.9547Y-4.2186
X4.9626Y-3.2048
X5.0059Y-2.8033
X5.0187Y-4.0382
X5.0236Y-4.8958
X5.0393Y-4.38
X5.0647Y-4.0372
X5.0787Y-3.571
X5.0944Y-4.2048
X5.1673Y-3.2875
X5.1791Y-3.5847
X5.1909Y-3.9036
X5.1929Y-4.3781
X5.2126Y-3.8328
X5.2401Y-3.5847
X5.2755Y-2.4883
X5.2755Y-3.2954
X5.3051Y-4.195
X5.3464Y-3.2659
X5.3622Y-3.6084
X5.3968Y-4.0375
X5.4901Y-3.2816
X5.5137Y-4.8879
X5.5295Y-4.3643
X5.5511Y-3.8662
X5.5649Y-3.2777
X5.5877Y-4.9804
X5.6122Y-3.6084
X5.6299Y-2.4883
X5.6417Y-4.3013
X5.6653Y-4.8859
X5.6948Y-3.13
X5.8149Y-2.9981
X5.8917Y-3.7934
X5.9291Y-3.8938
X5.933Y-3.13
X5.935Y-4.0552
X5.9637Y-4.4588
X6.0236Y-2.4883
X6.0807Y-3.6084
X6.1763Y-4.9765
X6.2086Y-3.8347
X6.2106Y-3.8958
X6.2539Y-3.6123
X6.2637Y-3.0001
X6.2874Y-3.13
X6.4566Y-2.4883
X6.6007Y-4.0395
X6.6141Y-3.8697
X6.6338Y-4.1989
X6.6358Y-3.006
X6.683Y-4.3761
X6.759Y-4.9765
X6.7618Y-3.2973
X6.8503Y-2.4883
X6.8563Y-3.13
X6.874Y-3.3033
X6.8838Y-4.3721
X6.9901Y-3.1792
X7.0177Y-3.693
X7.0311Y-4.0449
X7.0649Y-3.7442
X7.0767Y-3.0119
X7.0793Y-4.0437
X7.0944Y-4.2088
X7.1023Y-4.3702
X7.1082Y-3.2698
X7.1141Y-3.695
X7.196Y-3.8918
X7.2145Y-3.1753
X7.2236Y-3.7816
X7.2321Y-4.1013
X7.244Y-3.0847
X7.2677Y-3.6084
X7.2854Y-2.7816
X7.2893Y-4.382
X7.2963Y-4.0485
X7.3149Y-3.6517
X7.3543Y-3.2777
X7.3614Y-4.9548
X7.3909Y-3.5671
X7.4055Y-3.8781
X7.4271Y-2.9942
X7.4271Y-3.0985
X7.4862Y-3.8505
X7.4874Y-4.2068
X7.5Y-3.1635
X7.5039Y-3.7147
X7.5098Y-2.6655
X7.5177Y-2.7383
X7.5196Y-2.8367
X7.5307Y-4.0336
X7.5393Y-3.8505
X7.561Y-3.7127
X7.5708Y-2.9922
X7.5826Y-2.4332
X7.6015Y-3.6281
X7.6082Y-3.8485
X7.6102Y-3.7107
X7.6102Y-4.3662
X7.6141Y-3.1044
X7.6153Y-3.9096
X7.622Y-2.6733
X7.637Y-4.1635
X7.6732Y-5.4324
X7.6881Y-5.5533
X7.6881Y-5.9076
X7.6929Y-2.8525
X7.6929Y-3.2363
X7.7263Y-3.1182
X7.7279Y-2.817
X7.7322Y-2.7403
X7.7472Y-4.2501
X7.759Y-4.38
X7.7775Y-3.5533
X7.7834Y-2.5198
X7.8063Y-5.9076
X7.8102Y-4.0808
X7.8405Y-2.88
X7.8464Y-2.697
X7.8503Y-2.6123
X7.8889Y-4.9194
X7.9173Y-3.695
X7.9212Y-2.5198
X7.9244Y-5.5533
X7.9244Y-5.9076
X7.9527Y-5.4351
X7.9559Y-4.38
X7.9724Y-3.0572
X7.9874Y-4.1281
X8.0Y-3.2383
X8.0149Y-3.9509
X8.0228Y-5.2816
X8.0267Y-4.069
X8.0307Y-4.9273
X8.0452Y-3.132
X8.0492Y-2.8249
X8.0582Y-4.7186
X8.0661Y-4.4824
X8.0818Y-5.8682
X8.0905Y-2.4332
X8.1059Y-4.2199
X8.1239Y-4.8569
X8.1842Y-4.4627
X8.1889Y-5.3623
X8.1909Y-2.821
X8.2Y-5.8682
X8.2059Y-3.8699
X8.2159Y-4.2299
X8.2177Y-5.0966
X8.2196Y-4.9253
X8.2759Y-4.0299
X8.2759Y-4.1899
X8.2905Y-4.4155
X8.2933Y-3.0592
X8.3023Y-4.7422
X8.3181Y-5.4745
X8.3181Y-5.5926
X8.3181Y-5.8682
X8.3681Y-2.4371
X8.3779Y-2.8111
X8.3779Y-3.134
X8.385Y-5.0867
X8.3909Y-3.8682
T2
X3.9507Y-2.5904
X3.9507Y-2.6904
X3.9507Y-2.7904
X3.9507Y-2.8904
X3.9517Y-3.3185
X3.9517Y-3.4185
X3.9517Y-3.5185
X3.9517Y-3.6185
X4.0507Y-2.6404
X4.0507Y-2.7404
X4.0507Y-2.8404
X4.0507Y-2.9404
X4.0517Y-3.3685
X4.0517Y-3.4685
X4.0517Y-3.5685
X4.0517Y-3.6685
T3
X8.1484Y-3.2563
X8.1484Y-3.3624
X8.1484Y-3.4685
X8.1484Y-3.5746
X8.2984Y-3.2655
X8.2984Y-3.3655
X8.2984Y-3.4655
X8.2984Y-3.5655
T4
X5.0143Y-3.3849
X5.0143Y-3.4849
X5.1143Y-3.3849
X5.1143Y-3.4849
X5.2143Y-3.3849
X5.2143Y-3.4849
X5.3143Y-3.3849
X5.3143Y-3.4849
X5.4143Y-3.3849
X5.4143Y-3.4849
X5.5143Y-3.3849
X5.5143Y-3.4849
X5.6143Y-3.3849
X5.6143Y-3.4849
X5.7143Y-3.3849
X5.7143Y-3.4849
X5.8143Y-3.3849
X5.8143Y-3.4849
X5.9143Y-3.3849
X5.9143Y-3.4849
X6.0143Y-3.3849
X6.0143Y-3.4849
X6.1143Y-3.3849
X6.1143Y-3.4849
X6.2143Y-3.3849
X6.2143Y-3.4849
X6.3143Y-3.3849
X6.3143Y-3.4849
X6.4143Y-3.3849
X6.4143Y-3.4849
X6.5143Y-3.3849
X6.5143Y-3.4849
X6.6143Y-3.3849
X6.6143Y-3.4849
X6.7143Y-3.3849
X6.7143Y-3.4849
X6.8143Y-3.3849
X6.8143Y-3.4849
X6.9143Y-3.3849
X6.9143Y-3.4849
X7.5984Y-3.3155
X7.5984Y-3.4155
X7.5984Y-3.5155
X7.6822Y-2.4499
X7.7204Y-4.1779
X7.7433Y-3.8446
X7.7822Y-2.4499
X7.8204Y-4.1779
X7.8822Y-2.4499
X7.9204Y-4.1779
X7.9401Y-3.8446
X7.9822Y-2.4499
X8.3574Y-4.1659
X8.3574Y-4.2659
X8.3574Y-4.3659
T5
X8.2767Y-3.7657
X8.2767Y-3.9157
T6
X3.5079Y-4.5906
X3.5079Y-5.1024
X3.6457Y-4.5906
X3.6457Y-5.1024
X3.7835Y-4.5906
X3.7835Y-5.1024
X4.0984Y-4.5906
X4.0984Y-5.1024
X4.2362Y-4.5906
X4.2362Y-5.1024
X4.374Y-4.5906
X4.374Y-5.1024
X4.689Y-4.5906
X4.6935Y-5.1024
X4.8268Y-4.5906
X4.8313Y-5.1024
X4.9646Y-4.5906
X4.9691Y-5.1024
X5.2795Y-4.5906
X5.2795Y-5.1024
X5.4173Y-4.5906
X5.4173Y-5.1024
X5.5551Y-4.5906
X5.5551Y-5.1024
X5.8701Y-4.5906
X5.8701Y-5.1024
X6.0079Y-4.5906
X6.0079Y-5.1024
X6.1457Y-4.5906
X6.1457Y-5.1024
X6.4606Y-4.5906
X6.4606Y-5.1024
X6.5984Y-4.5906
X6.5984Y-5.1024
X6.7362Y-4.5906
X6.7362Y-5.1024
X7.0512Y-4.5906
X7.0512Y-5.1024
X7.189Y-4.5906
X7.189Y-5.1024
X7.3268Y-4.5906
X7.3268Y-5.1024
X7.6417Y-4.5906
X7.6417Y-5.1024
X7.7795Y-4.5906
X7.7795Y-5.1024
X7.9173Y-4.5906
X7.9173Y-5.1024
T7
X3.7748Y-5.4489
X3.7748Y-5.5946
X3.7748Y-5.7718
X3.7748Y-5.9174
X4.023Y-5.4489
X4.023Y-5.5946
X4.023Y-5.7718
X4.023Y-5.9174
X4.2713Y-5.449
X4.2713Y-5.5946
X4.2713Y-5.7718
X4.2713Y-5.9175
X4.5196Y-5.449
X4.5196Y-5.5946
X4.5196Y-5.7718
X4.5196Y-5.9175
X4.7679Y-5.4488
X4.7679Y-5.5944
X4.7679Y-5.7716
X4.7679Y-5.9173
X5.0162Y-5.4488
X5.0162Y-5.5944
X5.0162Y-5.7716
X5.0162Y-5.9173
X5.2645Y-5.4488
X5.2645Y-5.5944
X5.2645Y-5.7716
X5.2645Y-5.9173
X5.5128Y-5.4488
X5.5128Y-5.5944
X5.5128Y-5.7716
X5.5128Y-5.9173
X5.7611Y-5.4488
X5.7611Y-5.5944
X5.7611Y-5.7716
X5.7611Y-5.9173
X6.0094Y-5.4488
X6.0094Y-5.5944
X6.0094Y-5.7716
X6.0094Y-5.9173
X6.2577Y-5.4488
X6.2577Y-5.5944
X6.2577Y-5.7716
X6.2577Y-5.9173
X6.506Y-5.4486
X6.506Y-5.5943
X6.506Y-5.7714
X6.506Y-5.9171
X6.7543Y-5.4513
X6.7543Y-5.597
X6.7543Y-5.7742
X6.7543Y-5.9198
X7.0026Y-5.4513
X7.0026Y-5.597
X7.0026Y-5.7742
X7.0026Y-5.9198
X7.2509Y-5.4513
X7.2509Y-5.597
X7.2509Y-5.7742
X7.2509Y-5.9198
X7.4992Y-5.4513
X7.4992Y-5.597
X7.4992Y-5.7742
X7.4992Y-5.9198
X8.3239Y-4.8387
X8.3239Y-4.9844
X8.3239Y-5.1615
X8.3239Y-5.3072
T8
X3.0661Y-5.6989
X3.4401Y-5.6989
X7.8299Y-5.6989
X8.2039Y-5.6989
T0
M30
