G04 #@! TF.GenerationSoftware,KiCad,Pcbnew,(6.0.7)*
G04 #@! TF.CreationDate,2022-09-25T23:52:59-04:00*
G04 #@! TF.ProjectId,Input_Adapter,496e7075-745f-4416-9461-707465722e6b,v4*
G04 #@! TF.SameCoordinates,Original*
G04 #@! TF.FileFunction,Soldermask,Top*
G04 #@! TF.FilePolarity,Negative*
%FSLAX46Y46*%
G04 Gerber Fmt 4.6, Leading zero omitted, Abs format (unit mm)*
G04 Created by KiCad (PCBNEW (6.0.7)) date 2022-09-25 23:52:59*
%MOMM*%
%LPD*%
G01*
G04 APERTURE LIST*
G04 #@! TA.AperFunction,Profile*
%ADD10C,0.100000*%
G04 #@! TD*
%ADD11O,1.700000X1.700000*%
%ADD12R,1.700000X1.700000*%
%ADD13C,5.250000*%
%ADD14C,3.200000*%
%ADD15R,1.530000X1.530000*%
%ADD16C,1.530000*%
%ADD17R,1.500000X2.000000*%
%ADD18R,3.800000X2.000000*%
%ADD19C,1.700000*%
%ADD20O,1.700000X1.950000*%
G04 APERTURE END LIST*
D10*
X99000000Y-132000000D02*
X99000000Y-32500000D01*
X160000000Y-32500000D02*
X160000000Y-132000000D01*
X99000000Y-32500000D02*
X160000000Y-32500000D01*
X160000000Y-132000000D02*
X99000000Y-132000000D01*
D11*
G04 #@! TO.C,J1*
X103660000Y-68140000D03*
X106200000Y-68140000D03*
X103660000Y-70680000D03*
X106200000Y-70680000D03*
X103660000Y-73220000D03*
X106200000Y-73220000D03*
X103660000Y-75760000D03*
X106200000Y-75760000D03*
X103660000Y-78300000D03*
X106200000Y-78300000D03*
X103660000Y-80840000D03*
X106200000Y-80840000D03*
X103660000Y-83380000D03*
X106200000Y-83380000D03*
X103660000Y-85920000D03*
X106200000Y-85920000D03*
X103660000Y-88460000D03*
X106200000Y-88460000D03*
X103660000Y-91000000D03*
X106200000Y-91000000D03*
X103660000Y-93540000D03*
X106200000Y-93540000D03*
X103660000Y-96080000D03*
X106200000Y-96080000D03*
X103660000Y-98620000D03*
X106200000Y-98620000D03*
X103660000Y-101160000D03*
X106200000Y-101160000D03*
X103660000Y-103700000D03*
X106200000Y-103700000D03*
X103660000Y-106240000D03*
X106200000Y-106240000D03*
X103660000Y-108780000D03*
X106200000Y-108780000D03*
X103660000Y-111320000D03*
X106200000Y-111320000D03*
X103660000Y-113860000D03*
X106200000Y-113860000D03*
X103660000Y-116400000D03*
D12*
X106200000Y-116400000D03*
D13*
X153930000Y-121270000D03*
X104930000Y-121270000D03*
X153930000Y-63270000D03*
X104930000Y-63270000D03*
G04 #@! TD*
G04 #@! TO.C,JP1*
G36*
X103210000Y-37470000D02*
G01*
X102710000Y-37470000D01*
X102710000Y-37465033D01*
X102630059Y-37463568D01*
X102494744Y-37421293D01*
X102376734Y-37342738D01*
X102285514Y-37234219D01*
X102228419Y-37104460D01*
X102210836Y-36970000D01*
X102210000Y-36970000D01*
X102210000Y-36470000D01*
X102210836Y-36470000D01*
X102210037Y-36463891D01*
X102231848Y-36323814D01*
X102292096Y-36195489D01*
X102385940Y-36089231D01*
X102505835Y-36013583D01*
X102642142Y-35974626D01*
X102710000Y-35975041D01*
X102710000Y-35970000D01*
X103210000Y-35970000D01*
X103210000Y-37470000D01*
G37*
G36*
X104010000Y-35975041D02*
G01*
X104083905Y-35975492D01*
X104219726Y-36016111D01*
X104338688Y-36093218D01*
X104431226Y-36200615D01*
X104489903Y-36329667D01*
X104510000Y-36470000D01*
X104510000Y-36970000D01*
X104509851Y-36982216D01*
X104486331Y-37122017D01*
X104424519Y-37249596D01*
X104329384Y-37354700D01*
X104208574Y-37428877D01*
X104071801Y-37466166D01*
X104010000Y-37465033D01*
X104010000Y-37470000D01*
X103510000Y-37470000D01*
X103510000Y-35970000D01*
X104010000Y-35970000D01*
X104010000Y-35975041D01*
G37*
G04 #@! TD*
D12*
G04 #@! TO.C,J5*
X109775000Y-36715000D03*
D11*
X109775000Y-34175000D03*
X112315000Y-36715000D03*
X112315000Y-34175000D03*
X114855000Y-36715000D03*
X114855000Y-34175000D03*
X117395000Y-36715000D03*
X117395000Y-34175000D03*
X119935000Y-36715000D03*
X119935000Y-34175000D03*
X122475000Y-36715000D03*
X122475000Y-34175000D03*
X125015000Y-36715000D03*
X125015000Y-34175000D03*
X127555000Y-36715000D03*
X127555000Y-34175000D03*
G04 #@! TD*
D14*
G04 #@! TO.C,H1*
X155000000Y-128500000D03*
G04 #@! TD*
D15*
G04 #@! TO.C,J2*
X115630000Y-55470000D03*
D16*
X115630000Y-52930000D03*
X118170000Y-55470000D03*
X118170000Y-52930000D03*
X120710000Y-55470000D03*
X120710000Y-52930000D03*
X123250000Y-55470000D03*
X123250000Y-52930000D03*
X125790000Y-55470000D03*
X125790000Y-52930000D03*
X128330000Y-55470000D03*
X128330000Y-52930000D03*
X130870000Y-55470000D03*
X130870000Y-52930000D03*
X133410000Y-55470000D03*
X133410000Y-52930000D03*
X135950000Y-55470000D03*
X135950000Y-52930000D03*
X138490000Y-55470000D03*
X138490000Y-52930000D03*
X141030000Y-55470000D03*
X141030000Y-52930000D03*
X143570000Y-55470000D03*
X143570000Y-52930000D03*
G04 #@! TD*
D14*
G04 #@! TO.C,H2*
X104000000Y-52500000D03*
G04 #@! TD*
G04 #@! TO.C,H3*
X155000000Y-52500000D03*
G04 #@! TD*
G04 #@! TO.C,C1*
G36*
G01*
X119865000Y-111545000D02*
X118915000Y-111545000D01*
G75*
G02*
X118665000Y-111295000I0J250000D01*
G01*
X118665000Y-110620000D01*
G75*
G02*
X118915000Y-110370000I250000J0D01*
G01*
X119865000Y-110370000D01*
G75*
G02*
X120115000Y-110620000I0J-250000D01*
G01*
X120115000Y-111295000D01*
G75*
G02*
X119865000Y-111545000I-250000J0D01*
G01*
G37*
G36*
G01*
X119865000Y-109470000D02*
X118915000Y-109470000D01*
G75*
G02*
X118665000Y-109220000I0J250000D01*
G01*
X118665000Y-108545000D01*
G75*
G02*
X118915000Y-108295000I250000J0D01*
G01*
X119865000Y-108295000D01*
G75*
G02*
X120115000Y-108545000I0J-250000D01*
G01*
X120115000Y-109220000D01*
G75*
G02*
X119865000Y-109470000I-250000J0D01*
G01*
G37*
G04 #@! TD*
D17*
G04 #@! TO.C,U1*
X112290000Y-111070000D03*
X114590000Y-111070000D03*
D18*
X114590000Y-104770000D03*
D17*
X116890000Y-111070000D03*
G04 #@! TD*
G04 #@! TO.C,J3*
G36*
G01*
X105870000Y-46152500D02*
X104670000Y-46152500D01*
G75*
G02*
X104420000Y-45902500I0J250000D01*
G01*
X104420000Y-44702500D01*
G75*
G02*
X104670000Y-44452500I250000J0D01*
G01*
X105870000Y-44452500D01*
G75*
G02*
X106120000Y-44702500I0J-250000D01*
G01*
X106120000Y-45902500D01*
G75*
G02*
X105870000Y-46152500I-250000J0D01*
G01*
G37*
D19*
X105270000Y-42762500D03*
X107810000Y-45302500D03*
X107810000Y-42762500D03*
X110350000Y-45302500D03*
X110350000Y-42762500D03*
X112890000Y-45302500D03*
X112890000Y-42762500D03*
X115430000Y-45302500D03*
X115430000Y-42762500D03*
X117970000Y-45302500D03*
X117970000Y-42762500D03*
X120510000Y-45302500D03*
X120510000Y-42762500D03*
X123050000Y-45302500D03*
X123050000Y-42762500D03*
X125590000Y-45302500D03*
X125590000Y-42762500D03*
X128130000Y-45302500D03*
X128130000Y-42762500D03*
X130670000Y-45302500D03*
X130670000Y-42762500D03*
X133210000Y-45302500D03*
X133210000Y-42762500D03*
X135750000Y-45302500D03*
X135750000Y-42762500D03*
X138290000Y-45302500D03*
X138290000Y-42762500D03*
X140830000Y-45302500D03*
X140830000Y-42762500D03*
X143370000Y-45302500D03*
X143370000Y-42762500D03*
X145910000Y-45302500D03*
X145910000Y-42762500D03*
X148450000Y-45302500D03*
X148450000Y-42762500D03*
X150990000Y-45302500D03*
X150990000Y-42762500D03*
X153530000Y-45302500D03*
X153530000Y-42762500D03*
G04 #@! TD*
G04 #@! TO.C,J4*
G36*
G01*
X149350000Y-35475000D02*
X149350000Y-36925000D01*
G75*
G02*
X149100000Y-37175000I-250000J0D01*
G01*
X147900000Y-37175000D01*
G75*
G02*
X147650000Y-36925000I0J250000D01*
G01*
X147650000Y-35475000D01*
G75*
G02*
X147900000Y-35225000I250000J0D01*
G01*
X149100000Y-35225000D01*
G75*
G02*
X149350000Y-35475000I0J-250000D01*
G01*
G37*
D20*
X146000000Y-36200000D03*
X143500000Y-36200000D03*
X141000000Y-36200000D03*
X138500000Y-36200000D03*
X136000000Y-36200000D03*
G04 #@! TD*
D14*
G04 #@! TO.C,H4*
X104000000Y-128500000D03*
G04 #@! TD*
G04 #@! TO.C,C2*
G36*
G01*
X115115000Y-112945000D02*
X115115000Y-113895000D01*
G75*
G02*
X114865000Y-114145000I-250000J0D01*
G01*
X114190000Y-114145000D01*
G75*
G02*
X113940000Y-113895000I0J250000D01*
G01*
X113940000Y-112945000D01*
G75*
G02*
X114190000Y-112695000I250000J0D01*
G01*
X114865000Y-112695000D01*
G75*
G02*
X115115000Y-112945000I0J-250000D01*
G01*
G37*
G36*
G01*
X113040000Y-112945000D02*
X113040000Y-113895000D01*
G75*
G02*
X112790000Y-114145000I-250000J0D01*
G01*
X112115000Y-114145000D01*
G75*
G02*
X111865000Y-113895000I0J250000D01*
G01*
X111865000Y-112945000D01*
G75*
G02*
X112115000Y-112695000I250000J0D01*
G01*
X112790000Y-112695000D01*
G75*
G02*
X113040000Y-112945000I0J-250000D01*
G01*
G37*
G04 #@! TD*
M02*
