G04 #@! TF.GenerationSoftware,KiCad,Pcbnew,(6.0.4)*
G04 #@! TF.CreationDate,2022-04-21T22:41:51-04:00*
G04 #@! TF.ProjectId,Input_Adapter,496e7075-745f-4416-9461-707465722e6b,v2*
G04 #@! TF.SameCoordinates,Original*
G04 #@! TF.FileFunction,Soldermask,Top*
G04 #@! TF.FilePolarity,Negative*
%FSLAX46Y46*%
G04 Gerber Fmt 4.6, Leading zero omitted, Abs format (unit mm)*
G04 Created by KiCad (PCBNEW (6.0.4)) date 2022-04-21 22:41:51*
%MOMM*%
%LPD*%
G01*
G04 APERTURE LIST*
%ADD10C,6.000000*%
%ADD11R,1.700000X1.700000*%
%ADD12O,1.700000X1.700000*%
%ADD13R,1.500000X2.000000*%
%ADD14R,3.800000X2.000000*%
%ADD15C,4.300000*%
%ADD16R,1.530000X1.530000*%
%ADD17C,1.530000*%
%ADD18C,1.700000*%
G04 APERTURE END LIST*
D10*
G04 #@! TO.C,J1*
X153930000Y-121270000D03*
X153930000Y-63270000D03*
X104930000Y-121270000D03*
X104930000Y-63270000D03*
D11*
X106200000Y-116400000D03*
D12*
X103660000Y-116400000D03*
X106200000Y-113860000D03*
X103660000Y-113860000D03*
X106200000Y-111320000D03*
X103660000Y-111320000D03*
X106200000Y-108780000D03*
X103660000Y-108780000D03*
X106200000Y-106240000D03*
X103660000Y-106240000D03*
X106200000Y-103700000D03*
X103660000Y-103700000D03*
X106200000Y-101160000D03*
X103660000Y-101160000D03*
X106200000Y-98620000D03*
X103660000Y-98620000D03*
X106200000Y-96080000D03*
X103660000Y-96080000D03*
X106200000Y-93540000D03*
X103660000Y-93540000D03*
X106200000Y-91000000D03*
X103660000Y-91000000D03*
X106200000Y-88460000D03*
X103660000Y-88460000D03*
X106200000Y-85920000D03*
X103660000Y-85920000D03*
X106200000Y-83380000D03*
X103660000Y-83380000D03*
X106200000Y-80840000D03*
X103660000Y-80840000D03*
X106200000Y-78300000D03*
X103660000Y-78300000D03*
X106200000Y-75760000D03*
X103660000Y-75760000D03*
X106200000Y-73220000D03*
X103660000Y-73220000D03*
X106200000Y-70680000D03*
X103660000Y-70680000D03*
X106200000Y-68140000D03*
X103660000Y-68140000D03*
G04 #@! TD*
D13*
G04 #@! TO.C,U1*
X116900000Y-112850000D03*
X114600000Y-112850000D03*
D14*
X114600000Y-106550000D03*
D13*
X112300000Y-112850000D03*
G04 #@! TD*
G04 #@! TO.C,C2*
G36*
G01*
X115125000Y-114725000D02*
X115125000Y-115675000D01*
G75*
G02*
X114875000Y-115925000I-250000J0D01*
G01*
X114200000Y-115925000D01*
G75*
G02*
X113950000Y-115675000I0J250000D01*
G01*
X113950000Y-114725000D01*
G75*
G02*
X114200000Y-114475000I250000J0D01*
G01*
X114875000Y-114475000D01*
G75*
G02*
X115125000Y-114725000I0J-250000D01*
G01*
G37*
G36*
G01*
X113050000Y-114725000D02*
X113050000Y-115675000D01*
G75*
G02*
X112800000Y-115925000I-250000J0D01*
G01*
X112125000Y-115925000D01*
G75*
G02*
X111875000Y-115675000I0J250000D01*
G01*
X111875000Y-114725000D01*
G75*
G02*
X112125000Y-114475000I250000J0D01*
G01*
X112800000Y-114475000D01*
G75*
G02*
X113050000Y-114725000I0J-250000D01*
G01*
G37*
G04 #@! TD*
G04 #@! TO.C,C1*
G36*
G01*
X119875000Y-113325000D02*
X118925000Y-113325000D01*
G75*
G02*
X118675000Y-113075000I0J250000D01*
G01*
X118675000Y-112400000D01*
G75*
G02*
X118925000Y-112150000I250000J0D01*
G01*
X119875000Y-112150000D01*
G75*
G02*
X120125000Y-112400000I0J-250000D01*
G01*
X120125000Y-113075000D01*
G75*
G02*
X119875000Y-113325000I-250000J0D01*
G01*
G37*
G36*
G01*
X119875000Y-111250000D02*
X118925000Y-111250000D01*
G75*
G02*
X118675000Y-111000000I0J250000D01*
G01*
X118675000Y-110325000D01*
G75*
G02*
X118925000Y-110075000I250000J0D01*
G01*
X119875000Y-110075000D01*
G75*
G02*
X120125000Y-110325000I0J-250000D01*
G01*
X120125000Y-111000000D01*
G75*
G02*
X119875000Y-111250000I-250000J0D01*
G01*
G37*
G04 #@! TD*
D15*
G04 #@! TO.C,H1*
X155000000Y-130000000D03*
G04 #@! TD*
D16*
G04 #@! TO.C,J2*
X115630000Y-55470000D03*
D17*
X115630000Y-52930000D03*
X118170000Y-55470000D03*
X118170000Y-52930000D03*
X120710000Y-55470000D03*
X120710000Y-52930000D03*
X123250000Y-55470000D03*
X123250000Y-52930000D03*
X125790000Y-55470000D03*
X125790000Y-52930000D03*
X128330000Y-55470000D03*
X128330000Y-52930000D03*
X130870000Y-55470000D03*
X130870000Y-52930000D03*
X133410000Y-55470000D03*
X133410000Y-52930000D03*
X135950000Y-55470000D03*
X135950000Y-52930000D03*
X138490000Y-55470000D03*
X138490000Y-52930000D03*
X141030000Y-55470000D03*
X141030000Y-52930000D03*
X143570000Y-55470000D03*
X143570000Y-52930000D03*
G04 #@! TD*
D15*
G04 #@! TO.C,H2*
X104000000Y-54000000D03*
G04 #@! TD*
G04 #@! TO.C,H3*
X155000000Y-54000000D03*
G04 #@! TD*
G04 #@! TO.C,J3*
G36*
G01*
X105870000Y-46002500D02*
X104670000Y-46002500D01*
G75*
G02*
X104420000Y-45752500I0J250000D01*
G01*
X104420000Y-44552500D01*
G75*
G02*
X104670000Y-44302500I250000J0D01*
G01*
X105870000Y-44302500D01*
G75*
G02*
X106120000Y-44552500I0J-250000D01*
G01*
X106120000Y-45752500D01*
G75*
G02*
X105870000Y-46002500I-250000J0D01*
G01*
G37*
D18*
X105270000Y-42612500D03*
X107810000Y-45152500D03*
X107810000Y-42612500D03*
X110350000Y-45152500D03*
X110350000Y-42612500D03*
X112890000Y-45152500D03*
X112890000Y-42612500D03*
X115430000Y-45152500D03*
X115430000Y-42612500D03*
X117970000Y-45152500D03*
X117970000Y-42612500D03*
X120510000Y-45152500D03*
X120510000Y-42612500D03*
X123050000Y-45152500D03*
X123050000Y-42612500D03*
X125590000Y-45152500D03*
X125590000Y-42612500D03*
X128130000Y-45152500D03*
X128130000Y-42612500D03*
X130670000Y-45152500D03*
X130670000Y-42612500D03*
X133210000Y-45152500D03*
X133210000Y-42612500D03*
X135750000Y-45152500D03*
X135750000Y-42612500D03*
X138290000Y-45152500D03*
X138290000Y-42612500D03*
X140830000Y-45152500D03*
X140830000Y-42612500D03*
X143370000Y-45152500D03*
X143370000Y-42612500D03*
X145910000Y-45152500D03*
X145910000Y-42612500D03*
X148450000Y-45152500D03*
X148450000Y-42612500D03*
X150990000Y-45152500D03*
X150990000Y-42612500D03*
X153530000Y-45152500D03*
X153530000Y-42612500D03*
G04 #@! TD*
D15*
G04 #@! TO.C,H4*
X104000000Y-130000000D03*
G04 #@! TD*
M02*
