G04 #@! TF.GenerationSoftware,KiCad,Pcbnew,(6.0.4)*
G04 #@! TF.CreationDate,2022-04-21T23:03:09-04:00*
G04 #@! TF.ProjectId,Input_Adapter,496e7075-745f-4416-9461-707465722e6b,v2*
G04 #@! TF.SameCoordinates,Original*
G04 #@! TF.FileFunction,Paste,Top*
G04 #@! TF.FilePolarity,Positive*
%FSLAX46Y46*%
G04 Gerber Fmt 4.6, Leading zero omitted, Abs format (unit mm)*
G04 Created by KiCad (PCBNEW (6.0.4)) date 2022-04-21 23:03:09*
%MOMM*%
%LPD*%
G01*
G04 APERTURE LIST*
%ADD10R,1.500000X2.000000*%
%ADD11R,3.800000X2.000000*%
G04 APERTURE END LIST*
D10*
G04 #@! TO.C,U1*
X116900000Y-112850000D03*
X114600000Y-112850000D03*
D11*
X114600000Y-106550000D03*
D10*
X112300000Y-112850000D03*
G04 #@! TD*
G04 #@! TO.C,C2*
G36*
G01*
X115125000Y-114725000D02*
X115125000Y-115675000D01*
G75*
G02*
X114875000Y-115925000I-250000J0D01*
G01*
X114200000Y-115925000D01*
G75*
G02*
X113950000Y-115675000I0J250000D01*
G01*
X113950000Y-114725000D01*
G75*
G02*
X114200000Y-114475000I250000J0D01*
G01*
X114875000Y-114475000D01*
G75*
G02*
X115125000Y-114725000I0J-250000D01*
G01*
G37*
G36*
G01*
X113050000Y-114725000D02*
X113050000Y-115675000D01*
G75*
G02*
X112800000Y-115925000I-250000J0D01*
G01*
X112125000Y-115925000D01*
G75*
G02*
X111875000Y-115675000I0J250000D01*
G01*
X111875000Y-114725000D01*
G75*
G02*
X112125000Y-114475000I250000J0D01*
G01*
X112800000Y-114475000D01*
G75*
G02*
X113050000Y-114725000I0J-250000D01*
G01*
G37*
G04 #@! TD*
G04 #@! TO.C,C1*
G36*
G01*
X119875000Y-113325000D02*
X118925000Y-113325000D01*
G75*
G02*
X118675000Y-113075000I0J250000D01*
G01*
X118675000Y-112400000D01*
G75*
G02*
X118925000Y-112150000I250000J0D01*
G01*
X119875000Y-112150000D01*
G75*
G02*
X120125000Y-112400000I0J-250000D01*
G01*
X120125000Y-113075000D01*
G75*
G02*
X119875000Y-113325000I-250000J0D01*
G01*
G37*
G36*
G01*
X119875000Y-111250000D02*
X118925000Y-111250000D01*
G75*
G02*
X118675000Y-111000000I0J250000D01*
G01*
X118675000Y-110325000D01*
G75*
G02*
X118925000Y-110075000I250000J0D01*
G01*
X119875000Y-110075000D01*
G75*
G02*
X120125000Y-110325000I0J-250000D01*
G01*
X120125000Y-111000000D01*
G75*
G02*
X119875000Y-111250000I-250000J0D01*
G01*
G37*
G04 #@! TD*
M02*
