G04 #@! TF.GenerationSoftware,KiCad,Pcbnew,(6.0.5)*
G04 #@! TF.CreationDate,2022-06-03T01:26:25-04:00*
G04 #@! TF.ProjectId,BBB_16_Flex,4242425f-3136-45f4-966c-65782e6b6963,v2*
G04 #@! TF.SameCoordinates,Original*
G04 #@! TF.FileFunction,Paste,Bot*
G04 #@! TF.FilePolarity,Positive*
%FSLAX46Y46*%
G04 Gerber Fmt 4.6, Leading zero omitted, Abs format (unit mm)*
G04 Created by KiCad (PCBNEW (6.0.5)) date 2022-06-03 01:26:25*
%MOMM*%
%LPD*%
G01*
G04 APERTURE LIST*
%ADD10C,0.150000*%
G04 APERTURE END LIST*
D10*
X188202000Y-116356571D02*
X188344857Y-116404190D01*
X188392476Y-116451809D01*
X188440095Y-116547047D01*
X188440095Y-116689904D01*
X188392476Y-116785142D01*
X188344857Y-116832761D01*
X188249619Y-116880380D01*
X187868666Y-116880380D01*
X187868666Y-115880380D01*
X188202000Y-115880380D01*
X188297238Y-115928000D01*
X188344857Y-115975619D01*
X188392476Y-116070857D01*
X188392476Y-116166095D01*
X188344857Y-116261333D01*
X188297238Y-116308952D01*
X188202000Y-116356571D01*
X187868666Y-116356571D01*
X189297238Y-116880380D02*
X189297238Y-116356571D01*
X189249619Y-116261333D01*
X189154380Y-116213714D01*
X188963904Y-116213714D01*
X188868666Y-116261333D01*
X189297238Y-116832761D02*
X189202000Y-116880380D01*
X188963904Y-116880380D01*
X188868666Y-116832761D01*
X188821047Y-116737523D01*
X188821047Y-116642285D01*
X188868666Y-116547047D01*
X188963904Y-116499428D01*
X189202000Y-116499428D01*
X189297238Y-116451809D01*
X190202000Y-116832761D02*
X190106761Y-116880380D01*
X189916285Y-116880380D01*
X189821047Y-116832761D01*
X189773428Y-116785142D01*
X189725809Y-116689904D01*
X189725809Y-116404190D01*
X189773428Y-116308952D01*
X189821047Y-116261333D01*
X189916285Y-116213714D01*
X190106761Y-116213714D01*
X190202000Y-116261333D01*
X190630571Y-116880380D02*
X190630571Y-115880380D01*
X190725809Y-116499428D02*
X191011523Y-116880380D01*
X191011523Y-116213714D02*
X190630571Y-116594666D01*
X192535333Y-116356571D02*
X192678190Y-116404190D01*
X192725809Y-116451809D01*
X192773428Y-116547047D01*
X192773428Y-116689904D01*
X192725809Y-116785142D01*
X192678190Y-116832761D01*
X192582952Y-116880380D01*
X192202000Y-116880380D01*
X192202000Y-115880380D01*
X192535333Y-115880380D01*
X192630571Y-115928000D01*
X192678190Y-115975619D01*
X192725809Y-116070857D01*
X192725809Y-116166095D01*
X192678190Y-116261333D01*
X192630571Y-116308952D01*
X192535333Y-116356571D01*
X192202000Y-116356571D01*
X193059142Y-115880380D02*
X193630571Y-115880380D01*
X193344857Y-116880380D02*
X193344857Y-115880380D01*
X193963904Y-116880380D02*
X193963904Y-115880380D01*
X194535333Y-116880380D01*
X194535333Y-115880380D01*
M02*
