M48
; DRILL file {KiCad 8.0.4} date 2024-12-02T02:55:28-0500
; FORMAT={-:-/ absolute / inch / decimal}
; #@! TF.CreationDate,2024-12-02T02:55:28-05:00
; #@! TF.GenerationSoftware,Kicad,Pcbnew,8.0.4
; #@! TF.FileFunction,Plated,1,2,PTH
FMAT,2
INCH
; #@! TA.AperFunction,Plated,PTH,ViaDrill
T1C0.0157
; #@! TA.AperFunction,Plated,PTH,ComponentDrill
T2C0.0299
; #@! TA.AperFunction,Plated,PTH,ComponentDrill
T3C0.0315
; #@! TA.AperFunction,Plated,PTH,ComponentDrill
T4C0.0394
%
G90
G05
T1
X4.4843Y-3.9016
X4.5Y-3.3898
X4.5315Y-3.1654
X4.6378Y-3.811
X4.6811Y-3.248
X4.7087Y-3.1339
X4.9606Y-3.1339
X5.0787Y-3.7205
X5.2244Y-3.7244
X5.3307Y-3.2402
X5.3937Y-3.4724
X5.3937Y-3.5472
X5.4016Y-3.3543
X5.4921Y-3.1339
X5.5197Y-3.3543
X5.5394Y-3.2402
X5.8031Y-3.1417
X5.937Y-3.7244
X5.9882Y-3.8543
X6.0984Y-3.3622
X6.1142Y-3.7835
X6.1654Y-3.1496
X6.3543Y-3.5197
X6.4055Y-4.2165
X6.4134Y-3.378
T2
X4.7556Y-3.3835
X4.8056Y-3.2835
X4.8556Y-3.3835
X4.9056Y-3.2835
X4.9556Y-3.3835
X5.0056Y-3.2835
X5.0556Y-3.3835
X5.1056Y-3.2835
X5.713Y-3.3835
X5.763Y-3.2835
X5.813Y-3.3835
X5.863Y-3.2835
X5.913Y-3.3835
X5.963Y-3.2835
X6.013Y-3.3835
X6.063Y-3.2835
T3
X4.5825Y-3.6417
X4.5825Y-3.9417
X4.5913Y-3.5236
X4.6825Y-3.6417
X4.6825Y-3.9417
X4.6913Y-3.5236
X4.7825Y-3.6417
X4.7825Y-3.9417
X4.7913Y-3.5236
X4.8825Y-3.6417
X4.8825Y-3.9417
X4.8913Y-3.5236
X4.9825Y-3.6417
X4.9825Y-3.9417
X4.9913Y-3.5236
X5.0825Y-3.6417
X5.0825Y-3.9417
X5.0913Y-3.5236
X5.1825Y-3.6417
X5.1825Y-3.9417
X5.1913Y-3.5236
X5.2825Y-3.6417
X5.2825Y-3.9417
X5.2913Y-3.5236
X5.3976Y-3.7244
X5.3976Y-3.9213
X5.5402Y-3.6378
X5.5402Y-3.9378
X5.5559Y-3.5236
X5.6402Y-3.6378
X5.6402Y-3.9378
X5.6559Y-3.5236
X5.7402Y-3.6378
X5.7402Y-3.9378
X5.7559Y-3.5236
X5.8402Y-3.6378
X5.8402Y-3.9378
X5.8559Y-3.5236
X5.9402Y-3.6378
X5.9402Y-3.9378
X5.9559Y-3.5236
X6.0402Y-3.6378
X6.0402Y-3.9378
X6.0559Y-3.5236
X6.1402Y-3.6378
X6.1402Y-3.9378
X6.1559Y-3.5236
X6.2402Y-3.6378
X6.2402Y-3.9378
X6.2559Y-3.5236
X6.3583Y-3.7126
X6.3583Y-3.9094
T4
X4.4386Y-4.0591
X4.4386Y-4.1591
X4.5386Y-4.0591
X4.5386Y-4.1591
X4.6386Y-4.0591
X4.6386Y-4.1591
X4.7386Y-4.0591
X4.7386Y-4.1591
X4.8386Y-4.0591
X4.8386Y-4.1591
X4.9386Y-4.0591
X4.9386Y-4.1591
X5.0386Y-4.0591
X5.0386Y-4.1591
X5.1386Y-4.0591
X5.1386Y-4.1591
X5.2386Y-4.0591
X5.2386Y-4.1591
X5.3386Y-4.0591
X5.3386Y-4.1591
X5.4386Y-4.0591
X5.4386Y-4.1591
X5.5386Y-4.0591
X5.5386Y-4.1591
X5.6386Y-4.0591
X5.6386Y-4.1591
X5.7386Y-4.0591
X5.7386Y-4.1591
X5.8386Y-4.0591
X5.8386Y-4.1591
X5.9386Y-4.0591
X5.9386Y-4.1591
X6.0386Y-4.0591
X6.0386Y-4.1591
X6.1386Y-4.0591
X6.1386Y-4.1591
X6.2386Y-4.0591
X6.2386Y-4.1591
X6.3386Y-4.0591
X6.3386Y-4.1591
M30
