G04 #@! TF.GenerationSoftware,KiCad,Pcbnew,8.0.4*
G04 #@! TF.CreationDate,2024-12-02T02:55:26-05:00*
G04 #@! TF.ProjectId,Quad_Diff_Out,51756164-5f44-4696-9666-5f4f75742e6b,v1*
G04 #@! TF.SameCoordinates,Original*
G04 #@! TF.FileFunction,Legend,Top*
G04 #@! TF.FilePolarity,Positive*
%FSLAX46Y46*%
G04 Gerber Fmt 4.6, Leading zero omitted, Abs format (unit mm)*
G04 Created by KiCad (PCBNEW 8.0.4) date 2024-12-02 02:55:26*
%MOMM*%
%LPD*%
G01*
G04 APERTURE LIST*
%ADD10C,0.150000*%
%ADD11C,0.300000*%
%ADD12C,0.120000*%
G04 APERTURE END LIST*
D10*
X112945180Y-78509523D02*
X112945180Y-78699999D01*
X112945180Y-78699999D02*
X112897561Y-78795237D01*
X112897561Y-78795237D02*
X112802323Y-78890475D01*
X112802323Y-78890475D02*
X112611847Y-78938094D01*
X112611847Y-78938094D02*
X112278514Y-78938094D01*
X112278514Y-78938094D02*
X112088038Y-78890475D01*
X112088038Y-78890475D02*
X111992800Y-78795237D01*
X111992800Y-78795237D02*
X111945180Y-78699999D01*
X111945180Y-78699999D02*
X111945180Y-78509523D01*
X111945180Y-78509523D02*
X111992800Y-78414285D01*
X111992800Y-78414285D02*
X112088038Y-78319047D01*
X112088038Y-78319047D02*
X112278514Y-78271428D01*
X112278514Y-78271428D02*
X112611847Y-78271428D01*
X112611847Y-78271428D02*
X112802323Y-78319047D01*
X112802323Y-78319047D02*
X112897561Y-78414285D01*
X112897561Y-78414285D02*
X112945180Y-78509523D01*
X111992800Y-79795237D02*
X111945180Y-79699999D01*
X111945180Y-79699999D02*
X111945180Y-79509523D01*
X111945180Y-79509523D02*
X111992800Y-79414285D01*
X111992800Y-79414285D02*
X112040419Y-79366666D01*
X112040419Y-79366666D02*
X112135657Y-79319047D01*
X112135657Y-79319047D02*
X112421371Y-79319047D01*
X112421371Y-79319047D02*
X112516609Y-79366666D01*
X112516609Y-79366666D02*
X112564228Y-79414285D01*
X112564228Y-79414285D02*
X112611847Y-79509523D01*
X112611847Y-79509523D02*
X112611847Y-79699999D01*
X112611847Y-79699999D02*
X112564228Y-79795237D01*
X112611847Y-80080952D02*
X112611847Y-80461904D01*
X112945180Y-80223809D02*
X112088038Y-80223809D01*
X112088038Y-80223809D02*
X111992800Y-80271428D01*
X111992800Y-80271428D02*
X111945180Y-80366666D01*
X111945180Y-80366666D02*
X111945180Y-80461904D01*
X111945180Y-80938095D02*
X111992800Y-80842857D01*
X111992800Y-80842857D02*
X112040419Y-80795238D01*
X112040419Y-80795238D02*
X112135657Y-80747619D01*
X112135657Y-80747619D02*
X112421371Y-80747619D01*
X112421371Y-80747619D02*
X112516609Y-80795238D01*
X112516609Y-80795238D02*
X112564228Y-80842857D01*
X112564228Y-80842857D02*
X112611847Y-80938095D01*
X112611847Y-80938095D02*
X112611847Y-81080952D01*
X112611847Y-81080952D02*
X112564228Y-81176190D01*
X112564228Y-81176190D02*
X112516609Y-81223809D01*
X112516609Y-81223809D02*
X112421371Y-81271428D01*
X112421371Y-81271428D02*
X112135657Y-81271428D01*
X112135657Y-81271428D02*
X112040419Y-81223809D01*
X112040419Y-81223809D02*
X111992800Y-81176190D01*
X111992800Y-81176190D02*
X111945180Y-81080952D01*
X111945180Y-81080952D02*
X111945180Y-80938095D01*
X111945180Y-82461905D02*
X112945180Y-82461905D01*
X112945180Y-82461905D02*
X112945180Y-82700000D01*
X112945180Y-82700000D02*
X112897561Y-82842857D01*
X112897561Y-82842857D02*
X112802323Y-82938095D01*
X112802323Y-82938095D02*
X112707085Y-82985714D01*
X112707085Y-82985714D02*
X112516609Y-83033333D01*
X112516609Y-83033333D02*
X112373752Y-83033333D01*
X112373752Y-83033333D02*
X112183276Y-82985714D01*
X112183276Y-82985714D02*
X112088038Y-82938095D01*
X112088038Y-82938095D02*
X111992800Y-82842857D01*
X111992800Y-82842857D02*
X111945180Y-82700000D01*
X111945180Y-82700000D02*
X111945180Y-82461905D01*
X111945180Y-83461905D02*
X112611847Y-83461905D01*
X112945180Y-83461905D02*
X112897561Y-83414286D01*
X112897561Y-83414286D02*
X112849942Y-83461905D01*
X112849942Y-83461905D02*
X112897561Y-83509524D01*
X112897561Y-83509524D02*
X112945180Y-83461905D01*
X112945180Y-83461905D02*
X112849942Y-83461905D01*
X112611847Y-83795238D02*
X112611847Y-84176190D01*
X111945180Y-83938095D02*
X112802323Y-83938095D01*
X112802323Y-83938095D02*
X112897561Y-83985714D01*
X112897561Y-83985714D02*
X112945180Y-84080952D01*
X112945180Y-84080952D02*
X112945180Y-84176190D01*
X112611847Y-84366667D02*
X112611847Y-84747619D01*
X111945180Y-84509524D02*
X112802323Y-84509524D01*
X112802323Y-84509524D02*
X112897561Y-84557143D01*
X112897561Y-84557143D02*
X112945180Y-84652381D01*
X112945180Y-84652381D02*
X112945180Y-84747619D01*
X112611847Y-85747620D02*
X111945180Y-85985715D01*
X111945180Y-85985715D02*
X112611847Y-86223810D01*
X111945180Y-87128572D02*
X111945180Y-86557144D01*
X111945180Y-86842858D02*
X112945180Y-86842858D01*
X112945180Y-86842858D02*
X112802323Y-86747620D01*
X112802323Y-86747620D02*
X112707085Y-86652382D01*
X112707085Y-86652382D02*
X112659466Y-86557144D01*
D11*
X161971429Y-104921185D02*
X162042857Y-104849757D01*
X162042857Y-104849757D02*
X162185715Y-104778328D01*
X162185715Y-104778328D02*
X162542857Y-104778328D01*
X162542857Y-104778328D02*
X162685715Y-104849757D01*
X162685715Y-104849757D02*
X162757143Y-104921185D01*
X162757143Y-104921185D02*
X162828572Y-105064042D01*
X162828572Y-105064042D02*
X162828572Y-105206900D01*
X162828572Y-105206900D02*
X162757143Y-105421185D01*
X162757143Y-105421185D02*
X161900000Y-106278328D01*
X161900000Y-106278328D02*
X162828572Y-106278328D01*
D10*
X145499999Y-107231009D02*
X145833332Y-107231009D01*
X145976189Y-107754819D02*
X145499999Y-107754819D01*
X145499999Y-107754819D02*
X145499999Y-106754819D01*
X145499999Y-106754819D02*
X145976189Y-106754819D01*
X146309523Y-107754819D02*
X146833332Y-107088152D01*
X146309523Y-107088152D02*
X146833332Y-107754819D01*
X147214285Y-107088152D02*
X147214285Y-108088152D01*
X147214285Y-107135771D02*
X147309523Y-107088152D01*
X147309523Y-107088152D02*
X147499999Y-107088152D01*
X147499999Y-107088152D02*
X147595237Y-107135771D01*
X147595237Y-107135771D02*
X147642856Y-107183390D01*
X147642856Y-107183390D02*
X147690475Y-107278628D01*
X147690475Y-107278628D02*
X147690475Y-107564342D01*
X147690475Y-107564342D02*
X147642856Y-107659580D01*
X147642856Y-107659580D02*
X147595237Y-107707200D01*
X147595237Y-107707200D02*
X147499999Y-107754819D01*
X147499999Y-107754819D02*
X147309523Y-107754819D01*
X147309523Y-107754819D02*
X147214285Y-107707200D01*
X148547618Y-107754819D02*
X148547618Y-107231009D01*
X148547618Y-107231009D02*
X148499999Y-107135771D01*
X148499999Y-107135771D02*
X148404761Y-107088152D01*
X148404761Y-107088152D02*
X148214285Y-107088152D01*
X148214285Y-107088152D02*
X148119047Y-107135771D01*
X148547618Y-107707200D02*
X148452380Y-107754819D01*
X148452380Y-107754819D02*
X148214285Y-107754819D01*
X148214285Y-107754819D02*
X148119047Y-107707200D01*
X148119047Y-107707200D02*
X148071428Y-107611961D01*
X148071428Y-107611961D02*
X148071428Y-107516723D01*
X148071428Y-107516723D02*
X148119047Y-107421485D01*
X148119047Y-107421485D02*
X148214285Y-107373866D01*
X148214285Y-107373866D02*
X148452380Y-107373866D01*
X148452380Y-107373866D02*
X148547618Y-107326247D01*
X149023809Y-107088152D02*
X149023809Y-107754819D01*
X149023809Y-107183390D02*
X149071428Y-107135771D01*
X149071428Y-107135771D02*
X149166666Y-107088152D01*
X149166666Y-107088152D02*
X149309523Y-107088152D01*
X149309523Y-107088152D02*
X149404761Y-107135771D01*
X149404761Y-107135771D02*
X149452380Y-107231009D01*
X149452380Y-107231009D02*
X149452380Y-107754819D01*
X149880952Y-107707200D02*
X149976190Y-107754819D01*
X149976190Y-107754819D02*
X150166666Y-107754819D01*
X150166666Y-107754819D02*
X150261904Y-107707200D01*
X150261904Y-107707200D02*
X150309523Y-107611961D01*
X150309523Y-107611961D02*
X150309523Y-107564342D01*
X150309523Y-107564342D02*
X150261904Y-107469104D01*
X150261904Y-107469104D02*
X150166666Y-107421485D01*
X150166666Y-107421485D02*
X150023809Y-107421485D01*
X150023809Y-107421485D02*
X149928571Y-107373866D01*
X149928571Y-107373866D02*
X149880952Y-107278628D01*
X149880952Y-107278628D02*
X149880952Y-107231009D01*
X149880952Y-107231009D02*
X149928571Y-107135771D01*
X149928571Y-107135771D02*
X150023809Y-107088152D01*
X150023809Y-107088152D02*
X150166666Y-107088152D01*
X150166666Y-107088152D02*
X150261904Y-107135771D01*
X150738095Y-107754819D02*
X150738095Y-107088152D01*
X150738095Y-106754819D02*
X150690476Y-106802438D01*
X150690476Y-106802438D02*
X150738095Y-106850057D01*
X150738095Y-106850057D02*
X150785714Y-106802438D01*
X150785714Y-106802438D02*
X150738095Y-106754819D01*
X150738095Y-106754819D02*
X150738095Y-106850057D01*
X151357142Y-107754819D02*
X151261904Y-107707200D01*
X151261904Y-107707200D02*
X151214285Y-107659580D01*
X151214285Y-107659580D02*
X151166666Y-107564342D01*
X151166666Y-107564342D02*
X151166666Y-107278628D01*
X151166666Y-107278628D02*
X151214285Y-107183390D01*
X151214285Y-107183390D02*
X151261904Y-107135771D01*
X151261904Y-107135771D02*
X151357142Y-107088152D01*
X151357142Y-107088152D02*
X151499999Y-107088152D01*
X151499999Y-107088152D02*
X151595237Y-107135771D01*
X151595237Y-107135771D02*
X151642856Y-107183390D01*
X151642856Y-107183390D02*
X151690475Y-107278628D01*
X151690475Y-107278628D02*
X151690475Y-107564342D01*
X151690475Y-107564342D02*
X151642856Y-107659580D01*
X151642856Y-107659580D02*
X151595237Y-107707200D01*
X151595237Y-107707200D02*
X151499999Y-107754819D01*
X151499999Y-107754819D02*
X151357142Y-107754819D01*
X152119047Y-107088152D02*
X152119047Y-107754819D01*
X152119047Y-107183390D02*
X152166666Y-107135771D01*
X152166666Y-107135771D02*
X152261904Y-107088152D01*
X152261904Y-107088152D02*
X152404761Y-107088152D01*
X152404761Y-107088152D02*
X152499999Y-107135771D01*
X152499999Y-107135771D02*
X152547618Y-107231009D01*
X152547618Y-107231009D02*
X152547618Y-107754819D01*
X153785714Y-107754819D02*
X153785714Y-106754819D01*
X153785714Y-107231009D02*
X154357142Y-107231009D01*
X154357142Y-107754819D02*
X154357142Y-106754819D01*
X155214285Y-107707200D02*
X155119047Y-107754819D01*
X155119047Y-107754819D02*
X154928571Y-107754819D01*
X154928571Y-107754819D02*
X154833333Y-107707200D01*
X154833333Y-107707200D02*
X154785714Y-107611961D01*
X154785714Y-107611961D02*
X154785714Y-107231009D01*
X154785714Y-107231009D02*
X154833333Y-107135771D01*
X154833333Y-107135771D02*
X154928571Y-107088152D01*
X154928571Y-107088152D02*
X155119047Y-107088152D01*
X155119047Y-107088152D02*
X155214285Y-107135771D01*
X155214285Y-107135771D02*
X155261904Y-107231009D01*
X155261904Y-107231009D02*
X155261904Y-107326247D01*
X155261904Y-107326247D02*
X154785714Y-107421485D01*
X156119047Y-107754819D02*
X156119047Y-107231009D01*
X156119047Y-107231009D02*
X156071428Y-107135771D01*
X156071428Y-107135771D02*
X155976190Y-107088152D01*
X155976190Y-107088152D02*
X155785714Y-107088152D01*
X155785714Y-107088152D02*
X155690476Y-107135771D01*
X156119047Y-107707200D02*
X156023809Y-107754819D01*
X156023809Y-107754819D02*
X155785714Y-107754819D01*
X155785714Y-107754819D02*
X155690476Y-107707200D01*
X155690476Y-107707200D02*
X155642857Y-107611961D01*
X155642857Y-107611961D02*
X155642857Y-107516723D01*
X155642857Y-107516723D02*
X155690476Y-107421485D01*
X155690476Y-107421485D02*
X155785714Y-107373866D01*
X155785714Y-107373866D02*
X156023809Y-107373866D01*
X156023809Y-107373866D02*
X156119047Y-107326247D01*
X157023809Y-107754819D02*
X157023809Y-106754819D01*
X157023809Y-107707200D02*
X156928571Y-107754819D01*
X156928571Y-107754819D02*
X156738095Y-107754819D01*
X156738095Y-107754819D02*
X156642857Y-107707200D01*
X156642857Y-107707200D02*
X156595238Y-107659580D01*
X156595238Y-107659580D02*
X156547619Y-107564342D01*
X156547619Y-107564342D02*
X156547619Y-107278628D01*
X156547619Y-107278628D02*
X156595238Y-107183390D01*
X156595238Y-107183390D02*
X156642857Y-107135771D01*
X156642857Y-107135771D02*
X156738095Y-107088152D01*
X156738095Y-107088152D02*
X156928571Y-107088152D01*
X156928571Y-107088152D02*
X157023809Y-107135771D01*
X157880952Y-107707200D02*
X157785714Y-107754819D01*
X157785714Y-107754819D02*
X157595238Y-107754819D01*
X157595238Y-107754819D02*
X157500000Y-107707200D01*
X157500000Y-107707200D02*
X157452381Y-107611961D01*
X157452381Y-107611961D02*
X157452381Y-107231009D01*
X157452381Y-107231009D02*
X157500000Y-107135771D01*
X157500000Y-107135771D02*
X157595238Y-107088152D01*
X157595238Y-107088152D02*
X157785714Y-107088152D01*
X157785714Y-107088152D02*
X157880952Y-107135771D01*
X157880952Y-107135771D02*
X157928571Y-107231009D01*
X157928571Y-107231009D02*
X157928571Y-107326247D01*
X157928571Y-107326247D02*
X157452381Y-107421485D01*
X158357143Y-107754819D02*
X158357143Y-107088152D01*
X158357143Y-107278628D02*
X158404762Y-107183390D01*
X158404762Y-107183390D02*
X158452381Y-107135771D01*
X158452381Y-107135771D02*
X158547619Y-107088152D01*
X158547619Y-107088152D02*
X158642857Y-107088152D01*
D11*
X162928572Y-103778328D02*
X162071429Y-103778328D01*
X162500000Y-103778328D02*
X162500000Y-102278328D01*
X162500000Y-102278328D02*
X162357143Y-102492614D01*
X162357143Y-102492614D02*
X162214286Y-102635471D01*
X162214286Y-102635471D02*
X162071429Y-102706900D01*
D10*
X161433333Y-91359580D02*
X161385714Y-91407200D01*
X161385714Y-91407200D02*
X161242857Y-91454819D01*
X161242857Y-91454819D02*
X161147619Y-91454819D01*
X161147619Y-91454819D02*
X161004762Y-91407200D01*
X161004762Y-91407200D02*
X160909524Y-91311961D01*
X160909524Y-91311961D02*
X160861905Y-91216723D01*
X160861905Y-91216723D02*
X160814286Y-91026247D01*
X160814286Y-91026247D02*
X160814286Y-90883390D01*
X160814286Y-90883390D02*
X160861905Y-90692914D01*
X160861905Y-90692914D02*
X160909524Y-90597676D01*
X160909524Y-90597676D02*
X161004762Y-90502438D01*
X161004762Y-90502438D02*
X161147619Y-90454819D01*
X161147619Y-90454819D02*
X161242857Y-90454819D01*
X161242857Y-90454819D02*
X161385714Y-90502438D01*
X161385714Y-90502438D02*
X161433333Y-90550057D01*
X162385714Y-91454819D02*
X161814286Y-91454819D01*
X162100000Y-91454819D02*
X162100000Y-90454819D01*
X162100000Y-90454819D02*
X162004762Y-90597676D01*
X162004762Y-90597676D02*
X161909524Y-90692914D01*
X161909524Y-90692914D02*
X161814286Y-90740533D01*
X159757143Y-91754819D02*
X159852381Y-91754819D01*
X159852381Y-91754819D02*
X159947619Y-91802438D01*
X159947619Y-91802438D02*
X159995238Y-91850057D01*
X159995238Y-91850057D02*
X160042857Y-91945295D01*
X160042857Y-91945295D02*
X160090476Y-92135771D01*
X160090476Y-92135771D02*
X160090476Y-92373866D01*
X160090476Y-92373866D02*
X160042857Y-92564342D01*
X160042857Y-92564342D02*
X159995238Y-92659580D01*
X159995238Y-92659580D02*
X159947619Y-92707200D01*
X159947619Y-92707200D02*
X159852381Y-92754819D01*
X159852381Y-92754819D02*
X159757143Y-92754819D01*
X159757143Y-92754819D02*
X159661905Y-92707200D01*
X159661905Y-92707200D02*
X159614286Y-92659580D01*
X159614286Y-92659580D02*
X159566667Y-92564342D01*
X159566667Y-92564342D02*
X159519048Y-92373866D01*
X159519048Y-92373866D02*
X159519048Y-92135771D01*
X159519048Y-92135771D02*
X159566667Y-91945295D01*
X159566667Y-91945295D02*
X159614286Y-91850057D01*
X159614286Y-91850057D02*
X159661905Y-91802438D01*
X159661905Y-91802438D02*
X159757143Y-91754819D01*
X160519048Y-92659580D02*
X160566667Y-92707200D01*
X160566667Y-92707200D02*
X160519048Y-92754819D01*
X160519048Y-92754819D02*
X160471429Y-92707200D01*
X160471429Y-92707200D02*
X160519048Y-92659580D01*
X160519048Y-92659580D02*
X160519048Y-92754819D01*
X161519047Y-92754819D02*
X160947619Y-92754819D01*
X161233333Y-92754819D02*
X161233333Y-91754819D01*
X161233333Y-91754819D02*
X161138095Y-91897676D01*
X161138095Y-91897676D02*
X161042857Y-91992914D01*
X161042857Y-91992914D02*
X160947619Y-92040533D01*
X162376190Y-92088152D02*
X162376190Y-92754819D01*
X161947619Y-92088152D02*
X161947619Y-92611961D01*
X161947619Y-92611961D02*
X161995238Y-92707200D01*
X161995238Y-92707200D02*
X162090476Y-92754819D01*
X162090476Y-92754819D02*
X162233333Y-92754819D01*
X162233333Y-92754819D02*
X162328571Y-92707200D01*
X162328571Y-92707200D02*
X162376190Y-92659580D01*
X163185714Y-92231009D02*
X162852381Y-92231009D01*
X162852381Y-92754819D02*
X162852381Y-91754819D01*
X162852381Y-91754819D02*
X163328571Y-91754819D01*
X159466666Y-77754819D02*
X159466666Y-78469104D01*
X159466666Y-78469104D02*
X159419047Y-78611961D01*
X159419047Y-78611961D02*
X159323809Y-78707200D01*
X159323809Y-78707200D02*
X159180952Y-78754819D01*
X159180952Y-78754819D02*
X159085714Y-78754819D01*
X160466666Y-78754819D02*
X159895238Y-78754819D01*
X160180952Y-78754819D02*
X160180952Y-77754819D01*
X160180952Y-77754819D02*
X160085714Y-77897676D01*
X160085714Y-77897676D02*
X159990476Y-77992914D01*
X159990476Y-77992914D02*
X159895238Y-78040533D01*
X158776190Y-80354819D02*
X158442857Y-79878628D01*
X158204762Y-80354819D02*
X158204762Y-79354819D01*
X158204762Y-79354819D02*
X158585714Y-79354819D01*
X158585714Y-79354819D02*
X158680952Y-79402438D01*
X158680952Y-79402438D02*
X158728571Y-79450057D01*
X158728571Y-79450057D02*
X158776190Y-79545295D01*
X158776190Y-79545295D02*
X158776190Y-79688152D01*
X158776190Y-79688152D02*
X158728571Y-79783390D01*
X158728571Y-79783390D02*
X158680952Y-79831009D01*
X158680952Y-79831009D02*
X158585714Y-79878628D01*
X158585714Y-79878628D02*
X158204762Y-79878628D01*
X159490476Y-79354819D02*
X159490476Y-80069104D01*
X159490476Y-80069104D02*
X159442857Y-80211961D01*
X159442857Y-80211961D02*
X159347619Y-80307200D01*
X159347619Y-80307200D02*
X159204762Y-80354819D01*
X159204762Y-80354819D02*
X159109524Y-80354819D01*
X160395238Y-79688152D02*
X160395238Y-80354819D01*
X160157143Y-79307200D02*
X159919048Y-80021485D01*
X159919048Y-80021485D02*
X160538095Y-80021485D01*
X161395238Y-79354819D02*
X160919048Y-79354819D01*
X160919048Y-79354819D02*
X160871429Y-79831009D01*
X160871429Y-79831009D02*
X160919048Y-79783390D01*
X160919048Y-79783390D02*
X161014286Y-79735771D01*
X161014286Y-79735771D02*
X161252381Y-79735771D01*
X161252381Y-79735771D02*
X161347619Y-79783390D01*
X161347619Y-79783390D02*
X161395238Y-79831009D01*
X161395238Y-79831009D02*
X161442857Y-79926247D01*
X161442857Y-79926247D02*
X161442857Y-80164342D01*
X161442857Y-80164342D02*
X161395238Y-80259580D01*
X161395238Y-80259580D02*
X161347619Y-80307200D01*
X161347619Y-80307200D02*
X161252381Y-80354819D01*
X161252381Y-80354819D02*
X161014286Y-80354819D01*
X161014286Y-80354819D02*
X160919048Y-80307200D01*
X160919048Y-80307200D02*
X160871429Y-80259580D01*
X159809523Y-86254819D02*
X159476190Y-85778628D01*
X159238095Y-86254819D02*
X159238095Y-85254819D01*
X159238095Y-85254819D02*
X159619047Y-85254819D01*
X159619047Y-85254819D02*
X159714285Y-85302438D01*
X159714285Y-85302438D02*
X159761904Y-85350057D01*
X159761904Y-85350057D02*
X159809523Y-85445295D01*
X159809523Y-85445295D02*
X159809523Y-85588152D01*
X159809523Y-85588152D02*
X159761904Y-85683390D01*
X159761904Y-85683390D02*
X159714285Y-85731009D01*
X159714285Y-85731009D02*
X159619047Y-85778628D01*
X159619047Y-85778628D02*
X159238095Y-85778628D01*
X160238095Y-86254819D02*
X160238095Y-85254819D01*
X160238095Y-85254819D02*
X160809523Y-86254819D01*
X160809523Y-86254819D02*
X160809523Y-85254819D01*
X161809523Y-86254819D02*
X161238095Y-86254819D01*
X161523809Y-86254819D02*
X161523809Y-85254819D01*
X161523809Y-85254819D02*
X161428571Y-85397676D01*
X161428571Y-85397676D02*
X161333333Y-85492914D01*
X161333333Y-85492914D02*
X161238095Y-85540533D01*
X159733333Y-87654819D02*
X159161905Y-87654819D01*
X159447619Y-87654819D02*
X159447619Y-86654819D01*
X159447619Y-86654819D02*
X159352381Y-86797676D01*
X159352381Y-86797676D02*
X159257143Y-86892914D01*
X159257143Y-86892914D02*
X159161905Y-86940533D01*
X160114286Y-86750057D02*
X160161905Y-86702438D01*
X160161905Y-86702438D02*
X160257143Y-86654819D01*
X160257143Y-86654819D02*
X160495238Y-86654819D01*
X160495238Y-86654819D02*
X160590476Y-86702438D01*
X160590476Y-86702438D02*
X160638095Y-86750057D01*
X160638095Y-86750057D02*
X160685714Y-86845295D01*
X160685714Y-86845295D02*
X160685714Y-86940533D01*
X160685714Y-86940533D02*
X160638095Y-87083390D01*
X160638095Y-87083390D02*
X160066667Y-87654819D01*
X160066667Y-87654819D02*
X160685714Y-87654819D01*
X161304762Y-86654819D02*
X161400000Y-86654819D01*
X161400000Y-86654819D02*
X161495238Y-86702438D01*
X161495238Y-86702438D02*
X161542857Y-86750057D01*
X161542857Y-86750057D02*
X161590476Y-86845295D01*
X161590476Y-86845295D02*
X161638095Y-87035771D01*
X161638095Y-87035771D02*
X161638095Y-87273866D01*
X161638095Y-87273866D02*
X161590476Y-87464342D01*
X161590476Y-87464342D02*
X161542857Y-87559580D01*
X161542857Y-87559580D02*
X161495238Y-87607200D01*
X161495238Y-87607200D02*
X161400000Y-87654819D01*
X161400000Y-87654819D02*
X161304762Y-87654819D01*
X161304762Y-87654819D02*
X161209524Y-87607200D01*
X161209524Y-87607200D02*
X161161905Y-87559580D01*
X161161905Y-87559580D02*
X161114286Y-87464342D01*
X161114286Y-87464342D02*
X161066667Y-87273866D01*
X161066667Y-87273866D02*
X161066667Y-87035771D01*
X161066667Y-87035771D02*
X161114286Y-86845295D01*
X161114286Y-86845295D02*
X161161905Y-86750057D01*
X161161905Y-86750057D02*
X161209524Y-86702438D01*
X161209524Y-86702438D02*
X161304762Y-86654819D01*
X138223810Y-101954819D02*
X138223810Y-100954819D01*
X139271428Y-101859580D02*
X139223809Y-101907200D01*
X139223809Y-101907200D02*
X139080952Y-101954819D01*
X139080952Y-101954819D02*
X138985714Y-101954819D01*
X138985714Y-101954819D02*
X138842857Y-101907200D01*
X138842857Y-101907200D02*
X138747619Y-101811961D01*
X138747619Y-101811961D02*
X138700000Y-101716723D01*
X138700000Y-101716723D02*
X138652381Y-101526247D01*
X138652381Y-101526247D02*
X138652381Y-101383390D01*
X138652381Y-101383390D02*
X138700000Y-101192914D01*
X138700000Y-101192914D02*
X138747619Y-101097676D01*
X138747619Y-101097676D02*
X138842857Y-101002438D01*
X138842857Y-101002438D02*
X138985714Y-100954819D01*
X138985714Y-100954819D02*
X139080952Y-100954819D01*
X139080952Y-100954819D02*
X139223809Y-101002438D01*
X139223809Y-101002438D02*
X139271428Y-101050057D01*
X140223809Y-101954819D02*
X139652381Y-101954819D01*
X139938095Y-101954819D02*
X139938095Y-100954819D01*
X139938095Y-100954819D02*
X139842857Y-101097676D01*
X139842857Y-101097676D02*
X139747619Y-101192914D01*
X139747619Y-101192914D02*
X139652381Y-101240533D01*
X153385714Y-101769104D02*
X153861904Y-101769104D01*
X153290476Y-102054819D02*
X153623809Y-101054819D01*
X153623809Y-101054819D02*
X153957142Y-102054819D01*
X154290476Y-102054819D02*
X154290476Y-101054819D01*
X154290476Y-101054819D02*
X154623809Y-101769104D01*
X154623809Y-101769104D02*
X154957142Y-101054819D01*
X154957142Y-101054819D02*
X154957142Y-102054819D01*
X155385714Y-101150057D02*
X155433333Y-101102438D01*
X155433333Y-101102438D02*
X155528571Y-101054819D01*
X155528571Y-101054819D02*
X155766666Y-101054819D01*
X155766666Y-101054819D02*
X155861904Y-101102438D01*
X155861904Y-101102438D02*
X155909523Y-101150057D01*
X155909523Y-101150057D02*
X155957142Y-101245295D01*
X155957142Y-101245295D02*
X155957142Y-101340533D01*
X155957142Y-101340533D02*
X155909523Y-101483390D01*
X155909523Y-101483390D02*
X155338095Y-102054819D01*
X155338095Y-102054819D02*
X155957142Y-102054819D01*
X156814285Y-101054819D02*
X156623809Y-101054819D01*
X156623809Y-101054819D02*
X156528571Y-101102438D01*
X156528571Y-101102438D02*
X156480952Y-101150057D01*
X156480952Y-101150057D02*
X156385714Y-101292914D01*
X156385714Y-101292914D02*
X156338095Y-101483390D01*
X156338095Y-101483390D02*
X156338095Y-101864342D01*
X156338095Y-101864342D02*
X156385714Y-101959580D01*
X156385714Y-101959580D02*
X156433333Y-102007200D01*
X156433333Y-102007200D02*
X156528571Y-102054819D01*
X156528571Y-102054819D02*
X156719047Y-102054819D01*
X156719047Y-102054819D02*
X156814285Y-102007200D01*
X156814285Y-102007200D02*
X156861904Y-101959580D01*
X156861904Y-101959580D02*
X156909523Y-101864342D01*
X156909523Y-101864342D02*
X156909523Y-101626247D01*
X156909523Y-101626247D02*
X156861904Y-101531009D01*
X156861904Y-101531009D02*
X156814285Y-101483390D01*
X156814285Y-101483390D02*
X156719047Y-101435771D01*
X156719047Y-101435771D02*
X156528571Y-101435771D01*
X156528571Y-101435771D02*
X156433333Y-101483390D01*
X156433333Y-101483390D02*
X156385714Y-101531009D01*
X156385714Y-101531009D02*
X156338095Y-101626247D01*
X157909523Y-101959580D02*
X157861904Y-102007200D01*
X157861904Y-102007200D02*
X157719047Y-102054819D01*
X157719047Y-102054819D02*
X157623809Y-102054819D01*
X157623809Y-102054819D02*
X157480952Y-102007200D01*
X157480952Y-102007200D02*
X157385714Y-101911961D01*
X157385714Y-101911961D02*
X157338095Y-101816723D01*
X157338095Y-101816723D02*
X157290476Y-101626247D01*
X157290476Y-101626247D02*
X157290476Y-101483390D01*
X157290476Y-101483390D02*
X157338095Y-101292914D01*
X157338095Y-101292914D02*
X157385714Y-101197676D01*
X157385714Y-101197676D02*
X157480952Y-101102438D01*
X157480952Y-101102438D02*
X157623809Y-101054819D01*
X157623809Y-101054819D02*
X157719047Y-101054819D01*
X157719047Y-101054819D02*
X157861904Y-101102438D01*
X157861904Y-101102438D02*
X157909523Y-101150057D01*
X158242857Y-101054819D02*
X158861904Y-101054819D01*
X158861904Y-101054819D02*
X158528571Y-101435771D01*
X158528571Y-101435771D02*
X158671428Y-101435771D01*
X158671428Y-101435771D02*
X158766666Y-101483390D01*
X158766666Y-101483390D02*
X158814285Y-101531009D01*
X158814285Y-101531009D02*
X158861904Y-101626247D01*
X158861904Y-101626247D02*
X158861904Y-101864342D01*
X158861904Y-101864342D02*
X158814285Y-101959580D01*
X158814285Y-101959580D02*
X158766666Y-102007200D01*
X158766666Y-102007200D02*
X158671428Y-102054819D01*
X158671428Y-102054819D02*
X158385714Y-102054819D01*
X158385714Y-102054819D02*
X158290476Y-102007200D01*
X158290476Y-102007200D02*
X158242857Y-101959580D01*
X159814285Y-102054819D02*
X159242857Y-102054819D01*
X159528571Y-102054819D02*
X159528571Y-101054819D01*
X159528571Y-101054819D02*
X159433333Y-101197676D01*
X159433333Y-101197676D02*
X159338095Y-101292914D01*
X159338095Y-101292914D02*
X159242857Y-101340533D01*
X134509523Y-86254819D02*
X134176190Y-85778628D01*
X133938095Y-86254819D02*
X133938095Y-85254819D01*
X133938095Y-85254819D02*
X134319047Y-85254819D01*
X134319047Y-85254819D02*
X134414285Y-85302438D01*
X134414285Y-85302438D02*
X134461904Y-85350057D01*
X134461904Y-85350057D02*
X134509523Y-85445295D01*
X134509523Y-85445295D02*
X134509523Y-85588152D01*
X134509523Y-85588152D02*
X134461904Y-85683390D01*
X134461904Y-85683390D02*
X134414285Y-85731009D01*
X134414285Y-85731009D02*
X134319047Y-85778628D01*
X134319047Y-85778628D02*
X133938095Y-85778628D01*
X134938095Y-86254819D02*
X134938095Y-85254819D01*
X134938095Y-85254819D02*
X135509523Y-86254819D01*
X135509523Y-86254819D02*
X135509523Y-85254819D01*
X135938095Y-85350057D02*
X135985714Y-85302438D01*
X135985714Y-85302438D02*
X136080952Y-85254819D01*
X136080952Y-85254819D02*
X136319047Y-85254819D01*
X136319047Y-85254819D02*
X136414285Y-85302438D01*
X136414285Y-85302438D02*
X136461904Y-85350057D01*
X136461904Y-85350057D02*
X136509523Y-85445295D01*
X136509523Y-85445295D02*
X136509523Y-85540533D01*
X136509523Y-85540533D02*
X136461904Y-85683390D01*
X136461904Y-85683390D02*
X135890476Y-86254819D01*
X135890476Y-86254819D02*
X136509523Y-86254819D01*
X134433333Y-87654819D02*
X133861905Y-87654819D01*
X134147619Y-87654819D02*
X134147619Y-86654819D01*
X134147619Y-86654819D02*
X134052381Y-86797676D01*
X134052381Y-86797676D02*
X133957143Y-86892914D01*
X133957143Y-86892914D02*
X133861905Y-86940533D01*
X134814286Y-86750057D02*
X134861905Y-86702438D01*
X134861905Y-86702438D02*
X134957143Y-86654819D01*
X134957143Y-86654819D02*
X135195238Y-86654819D01*
X135195238Y-86654819D02*
X135290476Y-86702438D01*
X135290476Y-86702438D02*
X135338095Y-86750057D01*
X135338095Y-86750057D02*
X135385714Y-86845295D01*
X135385714Y-86845295D02*
X135385714Y-86940533D01*
X135385714Y-86940533D02*
X135338095Y-87083390D01*
X135338095Y-87083390D02*
X134766667Y-87654819D01*
X134766667Y-87654819D02*
X135385714Y-87654819D01*
X136004762Y-86654819D02*
X136100000Y-86654819D01*
X136100000Y-86654819D02*
X136195238Y-86702438D01*
X136195238Y-86702438D02*
X136242857Y-86750057D01*
X136242857Y-86750057D02*
X136290476Y-86845295D01*
X136290476Y-86845295D02*
X136338095Y-87035771D01*
X136338095Y-87035771D02*
X136338095Y-87273866D01*
X136338095Y-87273866D02*
X136290476Y-87464342D01*
X136290476Y-87464342D02*
X136242857Y-87559580D01*
X136242857Y-87559580D02*
X136195238Y-87607200D01*
X136195238Y-87607200D02*
X136100000Y-87654819D01*
X136100000Y-87654819D02*
X136004762Y-87654819D01*
X136004762Y-87654819D02*
X135909524Y-87607200D01*
X135909524Y-87607200D02*
X135861905Y-87559580D01*
X135861905Y-87559580D02*
X135814286Y-87464342D01*
X135814286Y-87464342D02*
X135766667Y-87273866D01*
X135766667Y-87273866D02*
X135766667Y-87035771D01*
X135766667Y-87035771D02*
X135814286Y-86845295D01*
X135814286Y-86845295D02*
X135861905Y-86750057D01*
X135861905Y-86750057D02*
X135909524Y-86702438D01*
X135909524Y-86702438D02*
X136004762Y-86654819D01*
X134866666Y-78054819D02*
X134866666Y-78769104D01*
X134866666Y-78769104D02*
X134819047Y-78911961D01*
X134819047Y-78911961D02*
X134723809Y-79007200D01*
X134723809Y-79007200D02*
X134580952Y-79054819D01*
X134580952Y-79054819D02*
X134485714Y-79054819D01*
X135247619Y-78054819D02*
X135866666Y-78054819D01*
X135866666Y-78054819D02*
X135533333Y-78435771D01*
X135533333Y-78435771D02*
X135676190Y-78435771D01*
X135676190Y-78435771D02*
X135771428Y-78483390D01*
X135771428Y-78483390D02*
X135819047Y-78531009D01*
X135819047Y-78531009D02*
X135866666Y-78626247D01*
X135866666Y-78626247D02*
X135866666Y-78864342D01*
X135866666Y-78864342D02*
X135819047Y-78959580D01*
X135819047Y-78959580D02*
X135771428Y-79007200D01*
X135771428Y-79007200D02*
X135676190Y-79054819D01*
X135676190Y-79054819D02*
X135390476Y-79054819D01*
X135390476Y-79054819D02*
X135295238Y-79007200D01*
X135295238Y-79007200D02*
X135247619Y-78959580D01*
X134276190Y-80454819D02*
X133942857Y-79978628D01*
X133704762Y-80454819D02*
X133704762Y-79454819D01*
X133704762Y-79454819D02*
X134085714Y-79454819D01*
X134085714Y-79454819D02*
X134180952Y-79502438D01*
X134180952Y-79502438D02*
X134228571Y-79550057D01*
X134228571Y-79550057D02*
X134276190Y-79645295D01*
X134276190Y-79645295D02*
X134276190Y-79788152D01*
X134276190Y-79788152D02*
X134228571Y-79883390D01*
X134228571Y-79883390D02*
X134180952Y-79931009D01*
X134180952Y-79931009D02*
X134085714Y-79978628D01*
X134085714Y-79978628D02*
X133704762Y-79978628D01*
X134990476Y-79454819D02*
X134990476Y-80169104D01*
X134990476Y-80169104D02*
X134942857Y-80311961D01*
X134942857Y-80311961D02*
X134847619Y-80407200D01*
X134847619Y-80407200D02*
X134704762Y-80454819D01*
X134704762Y-80454819D02*
X134609524Y-80454819D01*
X135895238Y-79788152D02*
X135895238Y-80454819D01*
X135657143Y-79407200D02*
X135419048Y-80121485D01*
X135419048Y-80121485D02*
X136038095Y-80121485D01*
X136895238Y-79454819D02*
X136419048Y-79454819D01*
X136419048Y-79454819D02*
X136371429Y-79931009D01*
X136371429Y-79931009D02*
X136419048Y-79883390D01*
X136419048Y-79883390D02*
X136514286Y-79835771D01*
X136514286Y-79835771D02*
X136752381Y-79835771D01*
X136752381Y-79835771D02*
X136847619Y-79883390D01*
X136847619Y-79883390D02*
X136895238Y-79931009D01*
X136895238Y-79931009D02*
X136942857Y-80026247D01*
X136942857Y-80026247D02*
X136942857Y-80264342D01*
X136942857Y-80264342D02*
X136895238Y-80359580D01*
X136895238Y-80359580D02*
X136847619Y-80407200D01*
X136847619Y-80407200D02*
X136752381Y-80454819D01*
X136752381Y-80454819D02*
X136514286Y-80454819D01*
X136514286Y-80454819D02*
X136419048Y-80407200D01*
X136419048Y-80407200D02*
X136371429Y-80359580D01*
X112623810Y-100754819D02*
X112623810Y-99754819D01*
X113671428Y-100659580D02*
X113623809Y-100707200D01*
X113623809Y-100707200D02*
X113480952Y-100754819D01*
X113480952Y-100754819D02*
X113385714Y-100754819D01*
X113385714Y-100754819D02*
X113242857Y-100707200D01*
X113242857Y-100707200D02*
X113147619Y-100611961D01*
X113147619Y-100611961D02*
X113100000Y-100516723D01*
X113100000Y-100516723D02*
X113052381Y-100326247D01*
X113052381Y-100326247D02*
X113052381Y-100183390D01*
X113052381Y-100183390D02*
X113100000Y-99992914D01*
X113100000Y-99992914D02*
X113147619Y-99897676D01*
X113147619Y-99897676D02*
X113242857Y-99802438D01*
X113242857Y-99802438D02*
X113385714Y-99754819D01*
X113385714Y-99754819D02*
X113480952Y-99754819D01*
X113480952Y-99754819D02*
X113623809Y-99802438D01*
X113623809Y-99802438D02*
X113671428Y-99850057D01*
X114052381Y-99850057D02*
X114100000Y-99802438D01*
X114100000Y-99802438D02*
X114195238Y-99754819D01*
X114195238Y-99754819D02*
X114433333Y-99754819D01*
X114433333Y-99754819D02*
X114528571Y-99802438D01*
X114528571Y-99802438D02*
X114576190Y-99850057D01*
X114576190Y-99850057D02*
X114623809Y-99945295D01*
X114623809Y-99945295D02*
X114623809Y-100040533D01*
X114623809Y-100040533D02*
X114576190Y-100183390D01*
X114576190Y-100183390D02*
X114004762Y-100754819D01*
X114004762Y-100754819D02*
X114623809Y-100754819D01*
X114369104Y-98414285D02*
X114369104Y-97938095D01*
X114654819Y-98509523D02*
X113654819Y-98176190D01*
X113654819Y-98176190D02*
X114654819Y-97842857D01*
X114654819Y-97509523D02*
X113654819Y-97509523D01*
X113654819Y-97509523D02*
X114369104Y-97176190D01*
X114369104Y-97176190D02*
X113654819Y-96842857D01*
X113654819Y-96842857D02*
X114654819Y-96842857D01*
X113750057Y-96414285D02*
X113702438Y-96366666D01*
X113702438Y-96366666D02*
X113654819Y-96271428D01*
X113654819Y-96271428D02*
X113654819Y-96033333D01*
X113654819Y-96033333D02*
X113702438Y-95938095D01*
X113702438Y-95938095D02*
X113750057Y-95890476D01*
X113750057Y-95890476D02*
X113845295Y-95842857D01*
X113845295Y-95842857D02*
X113940533Y-95842857D01*
X113940533Y-95842857D02*
X114083390Y-95890476D01*
X114083390Y-95890476D02*
X114654819Y-96461904D01*
X114654819Y-96461904D02*
X114654819Y-95842857D01*
X113654819Y-94985714D02*
X113654819Y-95176190D01*
X113654819Y-95176190D02*
X113702438Y-95271428D01*
X113702438Y-95271428D02*
X113750057Y-95319047D01*
X113750057Y-95319047D02*
X113892914Y-95414285D01*
X113892914Y-95414285D02*
X114083390Y-95461904D01*
X114083390Y-95461904D02*
X114464342Y-95461904D01*
X114464342Y-95461904D02*
X114559580Y-95414285D01*
X114559580Y-95414285D02*
X114607200Y-95366666D01*
X114607200Y-95366666D02*
X114654819Y-95271428D01*
X114654819Y-95271428D02*
X114654819Y-95080952D01*
X114654819Y-95080952D02*
X114607200Y-94985714D01*
X114607200Y-94985714D02*
X114559580Y-94938095D01*
X114559580Y-94938095D02*
X114464342Y-94890476D01*
X114464342Y-94890476D02*
X114226247Y-94890476D01*
X114226247Y-94890476D02*
X114131009Y-94938095D01*
X114131009Y-94938095D02*
X114083390Y-94985714D01*
X114083390Y-94985714D02*
X114035771Y-95080952D01*
X114035771Y-95080952D02*
X114035771Y-95271428D01*
X114035771Y-95271428D02*
X114083390Y-95366666D01*
X114083390Y-95366666D02*
X114131009Y-95414285D01*
X114131009Y-95414285D02*
X114226247Y-95461904D01*
X114559580Y-93890476D02*
X114607200Y-93938095D01*
X114607200Y-93938095D02*
X114654819Y-94080952D01*
X114654819Y-94080952D02*
X114654819Y-94176190D01*
X114654819Y-94176190D02*
X114607200Y-94319047D01*
X114607200Y-94319047D02*
X114511961Y-94414285D01*
X114511961Y-94414285D02*
X114416723Y-94461904D01*
X114416723Y-94461904D02*
X114226247Y-94509523D01*
X114226247Y-94509523D02*
X114083390Y-94509523D01*
X114083390Y-94509523D02*
X113892914Y-94461904D01*
X113892914Y-94461904D02*
X113797676Y-94414285D01*
X113797676Y-94414285D02*
X113702438Y-94319047D01*
X113702438Y-94319047D02*
X113654819Y-94176190D01*
X113654819Y-94176190D02*
X113654819Y-94080952D01*
X113654819Y-94080952D02*
X113702438Y-93938095D01*
X113702438Y-93938095D02*
X113750057Y-93890476D01*
X113654819Y-93557142D02*
X113654819Y-92938095D01*
X113654819Y-92938095D02*
X114035771Y-93271428D01*
X114035771Y-93271428D02*
X114035771Y-93128571D01*
X114035771Y-93128571D02*
X114083390Y-93033333D01*
X114083390Y-93033333D02*
X114131009Y-92985714D01*
X114131009Y-92985714D02*
X114226247Y-92938095D01*
X114226247Y-92938095D02*
X114464342Y-92938095D01*
X114464342Y-92938095D02*
X114559580Y-92985714D01*
X114559580Y-92985714D02*
X114607200Y-93033333D01*
X114607200Y-93033333D02*
X114654819Y-93128571D01*
X114654819Y-93128571D02*
X114654819Y-93414285D01*
X114654819Y-93414285D02*
X114607200Y-93509523D01*
X114607200Y-93509523D02*
X114559580Y-93557142D01*
X114654819Y-91985714D02*
X114654819Y-92557142D01*
X114654819Y-92271428D02*
X113654819Y-92271428D01*
X113654819Y-92271428D02*
X113797676Y-92366666D01*
X113797676Y-92366666D02*
X113892914Y-92461904D01*
X113892914Y-92461904D02*
X113940533Y-92557142D01*
X136933333Y-91759580D02*
X136885714Y-91807200D01*
X136885714Y-91807200D02*
X136742857Y-91854819D01*
X136742857Y-91854819D02*
X136647619Y-91854819D01*
X136647619Y-91854819D02*
X136504762Y-91807200D01*
X136504762Y-91807200D02*
X136409524Y-91711961D01*
X136409524Y-91711961D02*
X136361905Y-91616723D01*
X136361905Y-91616723D02*
X136314286Y-91426247D01*
X136314286Y-91426247D02*
X136314286Y-91283390D01*
X136314286Y-91283390D02*
X136361905Y-91092914D01*
X136361905Y-91092914D02*
X136409524Y-90997676D01*
X136409524Y-90997676D02*
X136504762Y-90902438D01*
X136504762Y-90902438D02*
X136647619Y-90854819D01*
X136647619Y-90854819D02*
X136742857Y-90854819D01*
X136742857Y-90854819D02*
X136885714Y-90902438D01*
X136885714Y-90902438D02*
X136933333Y-90950057D01*
X137314286Y-90950057D02*
X137361905Y-90902438D01*
X137361905Y-90902438D02*
X137457143Y-90854819D01*
X137457143Y-90854819D02*
X137695238Y-90854819D01*
X137695238Y-90854819D02*
X137790476Y-90902438D01*
X137790476Y-90902438D02*
X137838095Y-90950057D01*
X137838095Y-90950057D02*
X137885714Y-91045295D01*
X137885714Y-91045295D02*
X137885714Y-91140533D01*
X137885714Y-91140533D02*
X137838095Y-91283390D01*
X137838095Y-91283390D02*
X137266667Y-91854819D01*
X137266667Y-91854819D02*
X137885714Y-91854819D01*
X135757143Y-92154819D02*
X135852381Y-92154819D01*
X135852381Y-92154819D02*
X135947619Y-92202438D01*
X135947619Y-92202438D02*
X135995238Y-92250057D01*
X135995238Y-92250057D02*
X136042857Y-92345295D01*
X136042857Y-92345295D02*
X136090476Y-92535771D01*
X136090476Y-92535771D02*
X136090476Y-92773866D01*
X136090476Y-92773866D02*
X136042857Y-92964342D01*
X136042857Y-92964342D02*
X135995238Y-93059580D01*
X135995238Y-93059580D02*
X135947619Y-93107200D01*
X135947619Y-93107200D02*
X135852381Y-93154819D01*
X135852381Y-93154819D02*
X135757143Y-93154819D01*
X135757143Y-93154819D02*
X135661905Y-93107200D01*
X135661905Y-93107200D02*
X135614286Y-93059580D01*
X135614286Y-93059580D02*
X135566667Y-92964342D01*
X135566667Y-92964342D02*
X135519048Y-92773866D01*
X135519048Y-92773866D02*
X135519048Y-92535771D01*
X135519048Y-92535771D02*
X135566667Y-92345295D01*
X135566667Y-92345295D02*
X135614286Y-92250057D01*
X135614286Y-92250057D02*
X135661905Y-92202438D01*
X135661905Y-92202438D02*
X135757143Y-92154819D01*
X136519048Y-93059580D02*
X136566667Y-93107200D01*
X136566667Y-93107200D02*
X136519048Y-93154819D01*
X136519048Y-93154819D02*
X136471429Y-93107200D01*
X136471429Y-93107200D02*
X136519048Y-93059580D01*
X136519048Y-93059580D02*
X136519048Y-93154819D01*
X137519047Y-93154819D02*
X136947619Y-93154819D01*
X137233333Y-93154819D02*
X137233333Y-92154819D01*
X137233333Y-92154819D02*
X137138095Y-92297676D01*
X137138095Y-92297676D02*
X137042857Y-92392914D01*
X137042857Y-92392914D02*
X136947619Y-92440533D01*
X138376190Y-92488152D02*
X138376190Y-93154819D01*
X137947619Y-92488152D02*
X137947619Y-93011961D01*
X137947619Y-93011961D02*
X137995238Y-93107200D01*
X137995238Y-93107200D02*
X138090476Y-93154819D01*
X138090476Y-93154819D02*
X138233333Y-93154819D01*
X138233333Y-93154819D02*
X138328571Y-93107200D01*
X138328571Y-93107200D02*
X138376190Y-93059580D01*
X139185714Y-92631009D02*
X138852381Y-92631009D01*
X138852381Y-93154819D02*
X138852381Y-92154819D01*
X138852381Y-92154819D02*
X139328571Y-92154819D01*
D12*
X160380000Y-93180000D02*
X162620000Y-93180000D01*
X160380000Y-100420000D02*
X160380000Y-93180000D01*
X160380000Y-100420000D02*
X162620000Y-100420000D01*
X162620000Y-100420000D02*
X162620000Y-93180000D01*
X141795000Y-87280000D02*
X141795000Y-69320000D01*
X141795000Y-87280000D02*
X157315000Y-87280000D01*
X157315000Y-69320000D02*
X141795000Y-69320000D01*
X157315000Y-87280000D02*
X157315000Y-69320000D01*
X157500000Y-83400000D02*
X158000000Y-83900000D01*
X158000000Y-82900000D02*
X157500000Y-83400000D01*
X158000000Y-83900000D02*
X158000000Y-82900000D01*
X139680000Y-88100000D02*
X139680000Y-90900000D01*
X139680000Y-90900000D02*
X160340000Y-90900000D01*
X157630000Y-90900000D02*
X157630000Y-88100000D01*
X160340000Y-88100000D02*
X139680000Y-88100000D01*
X160340000Y-90900000D02*
X160340000Y-88100000D01*
X139390000Y-93560000D02*
X139390000Y-98860000D01*
X139390000Y-98860000D02*
X159830000Y-98860000D01*
X159830000Y-93560000D02*
X139390000Y-93560000D01*
X159830000Y-95210000D02*
X159830000Y-93560000D01*
X159830000Y-98860000D02*
X159830000Y-97210000D01*
X159830000Y-97210000D02*
G75*
G02*
X159830000Y-95210000I0J1000000D01*
G01*
X115180000Y-88100000D02*
X115180000Y-90900000D01*
X115180000Y-90900000D02*
X135840000Y-90900000D01*
X133130000Y-90900000D02*
X133130000Y-88100000D01*
X135840000Y-88100000D02*
X115180000Y-88100000D01*
X135840000Y-90900000D02*
X135840000Y-88100000D01*
X117477500Y-87280000D02*
X117477500Y-69320000D01*
X117477500Y-87280000D02*
X132997500Y-87280000D01*
X132997500Y-69320000D02*
X117477500Y-69320000D01*
X132997500Y-87280000D02*
X132997500Y-69320000D01*
X133182500Y-83400000D02*
X133682500Y-83900000D01*
X133682500Y-82900000D02*
X133182500Y-83400000D01*
X133682500Y-83900000D02*
X133682500Y-82900000D01*
X115065000Y-93660000D02*
X115065000Y-98960000D01*
X115065000Y-98960000D02*
X135505000Y-98960000D01*
X135505000Y-93660000D02*
X115065000Y-93660000D01*
X135505000Y-95310000D02*
X135505000Y-93660000D01*
X135505000Y-98960000D02*
X135505000Y-97310000D01*
X135505000Y-97310000D02*
G75*
G02*
X135505000Y-95310000I0J1000000D01*
G01*
X135980000Y-93480000D02*
X138220000Y-93480000D01*
X135980000Y-100720000D02*
X135980000Y-93480000D01*
X135980000Y-100720000D02*
X138220000Y-100720000D01*
X138220000Y-100720000D02*
X138220000Y-93480000D01*
M02*
