%TF.GenerationSoftware,KiCad,Pcbnew,(6.0.7)*%
%TF.CreationDate,2022-09-08T00:59:07-04:00*%
%TF.ProjectId,Pi_Adapter,50695f41-6461-4707-9465-722e6b696361,v1*%
%TF.SameCoordinates,Original*%
%TF.FileFunction,Legend,Bot*%
%TF.FilePolarity,Positive*%
%FSLAX46Y46*%
G04 Gerber Fmt 4.6, Leading zero omitted, Abs format (unit mm)*
G04 Created by KiCad (PCBNEW (6.0.7)) date 2022-09-08 00:59:07*
%MOMM*%
%LPD*%
G01*
G04 APERTURE LIST*
G04 Aperture macros list*
%AMRoundRect*
0 Rectangle with rounded corners*
0 $1 Rounding radius*
0 $2 $3 $4 $5 $6 $7 $8 $9 X,Y pos of 4 corners*
0 Add a 4 corners polygon primitive as box body*
4,1,4,$2,$3,$4,$5,$6,$7,$8,$9,$2,$3,0*
0 Add four circle primitives for the rounded corners*
1,1,$1+$1,$2,$3*
1,1,$1+$1,$4,$5*
1,1,$1+$1,$6,$7*
1,1,$1+$1,$8,$9*
0 Add four rect primitives between the rounded corners*
20,1,$1+$1,$2,$3,$4,$5,0*
20,1,$1+$1,$4,$5,$6,$7,0*
20,1,$1+$1,$6,$7,$8,$9,0*
20,1,$1+$1,$8,$9,$2,$3,0*%
G04 Aperture macros list end*
%ADD10C,0.300000*%
%ADD11C,0.150000*%
%ADD12C,0.010000*%
%ADD13C,0.120000*%
%ADD14C,3.100000*%
%ADD15RoundRect,0.050000X-1.300000X1.300000X-1.300000X-1.300000X1.300000X-1.300000X1.300000X1.300000X0*%
%ADD16C,2.700000*%
%ADD17RoundRect,0.050000X-0.850000X0.850000X-0.850000X-0.850000X0.850000X-0.850000X0.850000X0.850000X0*%
%ADD18O,1.800000X1.800000*%
%ADD19RoundRect,0.300000X-0.600000X0.600000X-0.600000X-0.600000X0.600000X-0.600000X0.600000X0.600000X0*%
%ADD20C,1.800000*%
G04 APERTURE END LIST*
D10*
X97121428Y-71171071D02*
X97121428Y-69671071D01*
X96550000Y-69671071D01*
X96407142Y-69742500D01*
X96335714Y-69813928D01*
X96264285Y-69956785D01*
X96264285Y-70171071D01*
X96335714Y-70313928D01*
X96407142Y-70385357D01*
X96550000Y-70456785D01*
X97121428Y-70456785D01*
X95621428Y-71171071D02*
X95621428Y-70171071D01*
X95621428Y-69671071D02*
X95692857Y-69742500D01*
X95621428Y-69813928D01*
X95550000Y-69742500D01*
X95621428Y-69671071D01*
X95621428Y-69813928D01*
X93764285Y-70385357D02*
X93264285Y-70385357D01*
X93050000Y-71171071D02*
X93764285Y-71171071D01*
X93764285Y-69671071D01*
X93050000Y-69671071D01*
X92550000Y-71171071D02*
X91764285Y-70171071D01*
X92550000Y-70171071D02*
X91764285Y-71171071D01*
X91192857Y-70171071D02*
X91192857Y-71671071D01*
X91192857Y-70242500D02*
X91050000Y-70171071D01*
X90764285Y-70171071D01*
X90621428Y-70242500D01*
X90550000Y-70313928D01*
X90478571Y-70456785D01*
X90478571Y-70885357D01*
X90550000Y-71028214D01*
X90621428Y-71099642D01*
X90764285Y-71171071D01*
X91050000Y-71171071D01*
X91192857Y-71099642D01*
X89192857Y-71171071D02*
X89192857Y-70385357D01*
X89264285Y-70242500D01*
X89407142Y-70171071D01*
X89692857Y-70171071D01*
X89835714Y-70242500D01*
X89192857Y-71099642D02*
X89335714Y-71171071D01*
X89692857Y-71171071D01*
X89835714Y-71099642D01*
X89907142Y-70956785D01*
X89907142Y-70813928D01*
X89835714Y-70671071D01*
X89692857Y-70599642D01*
X89335714Y-70599642D01*
X89192857Y-70528214D01*
X88478571Y-70171071D02*
X88478571Y-71171071D01*
X88478571Y-70313928D02*
X88407142Y-70242500D01*
X88264285Y-70171071D01*
X88050000Y-70171071D01*
X87907142Y-70242500D01*
X87835714Y-70385357D01*
X87835714Y-71171071D01*
X87192857Y-71099642D02*
X87050000Y-71171071D01*
X86764285Y-71171071D01*
X86621428Y-71099642D01*
X86550000Y-70956785D01*
X86550000Y-70885357D01*
X86621428Y-70742500D01*
X86764285Y-70671071D01*
X86978571Y-70671071D01*
X87121428Y-70599642D01*
X87192857Y-70456785D01*
X87192857Y-70385357D01*
X87121428Y-70242500D01*
X86978571Y-70171071D01*
X86764285Y-70171071D01*
X86621428Y-70242500D01*
X85907142Y-71171071D02*
X85907142Y-70171071D01*
X85907142Y-69671071D02*
X85978571Y-69742500D01*
X85907142Y-69813928D01*
X85835714Y-69742500D01*
X85907142Y-69671071D01*
X85907142Y-69813928D01*
X84978571Y-71171071D02*
X85121428Y-71099642D01*
X85192857Y-71028214D01*
X85264285Y-70885357D01*
X85264285Y-70456785D01*
X85192857Y-70313928D01*
X85121428Y-70242500D01*
X84978571Y-70171071D01*
X84764285Y-70171071D01*
X84621428Y-70242500D01*
X84550000Y-70313928D01*
X84478571Y-70456785D01*
X84478571Y-70885357D01*
X84550000Y-71028214D01*
X84621428Y-71099642D01*
X84764285Y-71171071D01*
X84978571Y-71171071D01*
X83835714Y-70171071D02*
X83835714Y-71171071D01*
X83835714Y-70313928D02*
X83764285Y-70242500D01*
X83621428Y-70171071D01*
X83407142Y-70171071D01*
X83264285Y-70242500D01*
X83192857Y-70385357D01*
X83192857Y-71171071D01*
X81478571Y-70171071D02*
X81121428Y-71171071D01*
X80764285Y-70171071D01*
X79407142Y-71171071D02*
X80264285Y-71171071D01*
X79835714Y-71171071D02*
X79835714Y-69671071D01*
X79978571Y-69885357D01*
X80121428Y-70028214D01*
X80264285Y-70099642D01*
X97335714Y-73586071D02*
X97335714Y-72086071D01*
X97335714Y-72657500D02*
X97192857Y-72586071D01*
X96907142Y-72586071D01*
X96764285Y-72657500D01*
X96692857Y-72728928D01*
X96621428Y-72871785D01*
X96621428Y-73300357D01*
X96692857Y-73443214D01*
X96764285Y-73514642D01*
X96907142Y-73586071D01*
X97192857Y-73586071D01*
X97335714Y-73514642D01*
X96121428Y-72586071D02*
X95764285Y-73586071D01*
X95407142Y-72586071D02*
X95764285Y-73586071D01*
X95907142Y-73943214D01*
X95978571Y-74014642D01*
X96121428Y-74086071D01*
X93764285Y-73514642D02*
X93550000Y-73586071D01*
X93192857Y-73586071D01*
X93050000Y-73514642D01*
X92978571Y-73443214D01*
X92907142Y-73300357D01*
X92907142Y-73157500D01*
X92978571Y-73014642D01*
X93050000Y-72943214D01*
X93192857Y-72871785D01*
X93478571Y-72800357D01*
X93621428Y-72728928D01*
X93692857Y-72657500D01*
X93764285Y-72514642D01*
X93764285Y-72371785D01*
X93692857Y-72228928D01*
X93621428Y-72157500D01*
X93478571Y-72086071D01*
X93121428Y-72086071D01*
X92907142Y-72157500D01*
X91621428Y-73514642D02*
X91764285Y-73586071D01*
X92050000Y-73586071D01*
X92192857Y-73514642D01*
X92264285Y-73443214D01*
X92335714Y-73300357D01*
X92335714Y-72871785D01*
X92264285Y-72728928D01*
X92192857Y-72657500D01*
X92050000Y-72586071D01*
X91764285Y-72586071D01*
X91621428Y-72657500D01*
X90764285Y-73586071D02*
X90907142Y-73514642D01*
X90978571Y-73443214D01*
X91050000Y-73300357D01*
X91050000Y-72871785D01*
X90978571Y-72728928D01*
X90907142Y-72657500D01*
X90764285Y-72586071D01*
X90550000Y-72586071D01*
X90407142Y-72657500D01*
X90335714Y-72728928D01*
X90264285Y-72871785D01*
X90264285Y-73300357D01*
X90335714Y-73443214D01*
X90407142Y-73514642D01*
X90550000Y-73586071D01*
X90764285Y-73586071D01*
X89835714Y-72586071D02*
X89264285Y-72586071D01*
X89621428Y-72086071D02*
X89621428Y-73371785D01*
X89550000Y-73514642D01*
X89407142Y-73586071D01*
X89264285Y-73586071D01*
X88978571Y-72586071D02*
X88407142Y-72586071D01*
X88764285Y-72086071D02*
X88764285Y-73371785D01*
X88692857Y-73514642D01*
X88550000Y-73586071D01*
X88407142Y-73586071D01*
X86764285Y-73586071D02*
X86764285Y-72086071D01*
X86764285Y-72800357D02*
X85907142Y-72800357D01*
X85907142Y-73586071D02*
X85907142Y-72086071D01*
X84550000Y-73586071D02*
X84550000Y-72800357D01*
X84621428Y-72657500D01*
X84764285Y-72586071D01*
X85050000Y-72586071D01*
X85192857Y-72657500D01*
X84550000Y-73514642D02*
X84692857Y-73586071D01*
X85050000Y-73586071D01*
X85192857Y-73514642D01*
X85264285Y-73371785D01*
X85264285Y-73228928D01*
X85192857Y-73086071D01*
X85050000Y-73014642D01*
X84692857Y-73014642D01*
X84550000Y-72943214D01*
X83835714Y-72586071D02*
X83835714Y-73586071D01*
X83835714Y-72728928D02*
X83764285Y-72657500D01*
X83621428Y-72586071D01*
X83407142Y-72586071D01*
X83264285Y-72657500D01*
X83192857Y-72800357D01*
X83192857Y-73586071D01*
X82550000Y-73514642D02*
X82407142Y-73586071D01*
X82121428Y-73586071D01*
X81978571Y-73514642D01*
X81907142Y-73371785D01*
X81907142Y-73300357D01*
X81978571Y-73157500D01*
X82121428Y-73086071D01*
X82335714Y-73086071D01*
X82478571Y-73014642D01*
X82550000Y-72871785D01*
X82550000Y-72800357D01*
X82478571Y-72657500D01*
X82335714Y-72586071D01*
X82121428Y-72586071D01*
X81978571Y-72657500D01*
X81050000Y-73586071D02*
X81192857Y-73514642D01*
X81264285Y-73443214D01*
X81335714Y-73300357D01*
X81335714Y-72871785D01*
X81264285Y-72728928D01*
X81192857Y-72657500D01*
X81050000Y-72586071D01*
X80835714Y-72586071D01*
X80692857Y-72657500D01*
X80621428Y-72728928D01*
X80550000Y-72871785D01*
X80550000Y-73300357D01*
X80621428Y-73443214D01*
X80692857Y-73514642D01*
X80835714Y-73586071D01*
X81050000Y-73586071D01*
X79907142Y-72586071D02*
X79907142Y-73586071D01*
X79907142Y-72728928D02*
X79835714Y-72657500D01*
X79692857Y-72586071D01*
X79478571Y-72586071D01*
X79335714Y-72657500D01*
X79264285Y-72800357D01*
X79264285Y-73586071D01*
X79728571Y-47207142D02*
X80871428Y-47207142D01*
X80300000Y-47778571D02*
X80300000Y-46635714D01*
X80292857Y-41628571D02*
X80292857Y-42771428D01*
D11*
%TO.C,J1*%
X84733333Y-61652380D02*
X84733333Y-62366666D01*
X84780952Y-62509523D01*
X84876190Y-62604761D01*
X85019047Y-62652380D01*
X85114285Y-62652380D01*
X83733333Y-62652380D02*
X84304761Y-62652380D01*
X84019047Y-62652380D02*
X84019047Y-61652380D01*
X84114285Y-61795238D01*
X84209523Y-61890476D01*
X84304761Y-61938095D01*
%TO.C,REF\u002A\u002A*%
G36*
X112079734Y-73291645D02*
G01*
X112085366Y-73297835D01*
X112090456Y-73306041D01*
X112094543Y-73317817D01*
X112097721Y-73335276D01*
X112100087Y-73360530D01*
X112101738Y-73395690D01*
X112102769Y-73442869D01*
X112103277Y-73504177D01*
X112103359Y-73581727D01*
X112103109Y-73677631D01*
X112102625Y-73794000D01*
X112102557Y-73808175D01*
X112101971Y-73869937D01*
X112100648Y-73913620D01*
X112098103Y-73943001D01*
X112093848Y-73961855D01*
X112087396Y-73973959D01*
X112078262Y-73983089D01*
X112044804Y-74000506D01*
X112009856Y-73997604D01*
X111978953Y-73973100D01*
X111969944Y-73959897D01*
X111962492Y-73941361D01*
X111958124Y-73915333D01*
X111956069Y-73876787D01*
X111955556Y-73820700D01*
X111955556Y-73698045D01*
X111458845Y-73698045D01*
X111458845Y-73832871D01*
X111458772Y-73868662D01*
X111458009Y-73914992D01*
X111455833Y-73945526D01*
X111451536Y-73964557D01*
X111444412Y-73976374D01*
X111433755Y-73985271D01*
X111401504Y-74000341D01*
X111366217Y-73997673D01*
X111335486Y-73973100D01*
X111330831Y-73966845D01*
X111324895Y-73956321D01*
X111320364Y-73942391D01*
X111317048Y-73922317D01*
X111314759Y-73893360D01*
X111313308Y-73852780D01*
X111312505Y-73797840D01*
X111312162Y-73725799D01*
X111312089Y-73633920D01*
X111312089Y-73324485D01*
X111339798Y-73296776D01*
X111371177Y-73274533D01*
X111404406Y-73271844D01*
X111436267Y-73291645D01*
X111444553Y-73301415D01*
X111451965Y-73317307D01*
X111456302Y-73341275D01*
X111458338Y-73378148D01*
X111458845Y-73432756D01*
X111458845Y-73551289D01*
X111955556Y-73551289D01*
X111955556Y-73435776D01*
X111955994Y-73384078D01*
X111957958Y-73349554D01*
X111962474Y-73326978D01*
X111970567Y-73311126D01*
X111983265Y-73296776D01*
X112014643Y-73274533D01*
X112047872Y-73271844D01*
X112079734Y-73291645D01*
G37*
D12*
X112079734Y-73291645D02*
X112085366Y-73297835D01*
X112090456Y-73306041D01*
X112094543Y-73317817D01*
X112097721Y-73335276D01*
X112100087Y-73360530D01*
X112101738Y-73395690D01*
X112102769Y-73442869D01*
X112103277Y-73504177D01*
X112103359Y-73581727D01*
X112103109Y-73677631D01*
X112102625Y-73794000D01*
X112102557Y-73808175D01*
X112101971Y-73869937D01*
X112100648Y-73913620D01*
X112098103Y-73943001D01*
X112093848Y-73961855D01*
X112087396Y-73973959D01*
X112078262Y-73983089D01*
X112044804Y-74000506D01*
X112009856Y-73997604D01*
X111978953Y-73973100D01*
X111969944Y-73959897D01*
X111962492Y-73941361D01*
X111958124Y-73915333D01*
X111956069Y-73876787D01*
X111955556Y-73820700D01*
X111955556Y-73698045D01*
X111458845Y-73698045D01*
X111458845Y-73832871D01*
X111458772Y-73868662D01*
X111458009Y-73914992D01*
X111455833Y-73945526D01*
X111451536Y-73964557D01*
X111444412Y-73976374D01*
X111433755Y-73985271D01*
X111401504Y-74000341D01*
X111366217Y-73997673D01*
X111335486Y-73973100D01*
X111330831Y-73966845D01*
X111324895Y-73956321D01*
X111320364Y-73942391D01*
X111317048Y-73922317D01*
X111314759Y-73893360D01*
X111313308Y-73852780D01*
X111312505Y-73797840D01*
X111312162Y-73725799D01*
X111312089Y-73633920D01*
X111312089Y-73324485D01*
X111339798Y-73296776D01*
X111371177Y-73274533D01*
X111404406Y-73271844D01*
X111436267Y-73291645D01*
X111444553Y-73301415D01*
X111451965Y-73317307D01*
X111456302Y-73341275D01*
X111458338Y-73378148D01*
X111458845Y-73432756D01*
X111458845Y-73551289D01*
X111955556Y-73551289D01*
X111955556Y-73435776D01*
X111955994Y-73384078D01*
X111957958Y-73349554D01*
X111962474Y-73326978D01*
X111970567Y-73311126D01*
X111983265Y-73296776D01*
X112014643Y-73274533D01*
X112047872Y-73271844D01*
X112079734Y-73291645D01*
G36*
X112755767Y-73269068D02*
G01*
X112849890Y-73269158D01*
X112924405Y-73269498D01*
X112981811Y-73270239D01*
X113024611Y-73271535D01*
X113055304Y-73273537D01*
X113076391Y-73276396D01*
X113090373Y-73280266D01*
X113099750Y-73285298D01*
X113107022Y-73291645D01*
X113125828Y-73324362D01*
X113127275Y-73361939D01*
X113110917Y-73395178D01*
X113109557Y-73396631D01*
X113098354Y-73404992D01*
X113081252Y-73410547D01*
X113054082Y-73413840D01*
X113012678Y-73415418D01*
X112952873Y-73415822D01*
X112813511Y-73415822D01*
X112813511Y-73679589D01*
X112813436Y-73755417D01*
X112813028Y-73822083D01*
X112812046Y-73871867D01*
X112810250Y-73907784D01*
X112807399Y-73932850D01*
X112803253Y-73950081D01*
X112797571Y-73962492D01*
X112790114Y-73973100D01*
X112787824Y-73975906D01*
X112756646Y-73998548D01*
X112722266Y-74000112D01*
X112689334Y-73980267D01*
X112682355Y-73972191D01*
X112676883Y-73961593D01*
X112672863Y-73945749D01*
X112670072Y-73921773D01*
X112668288Y-73886774D01*
X112667289Y-73837864D01*
X112666852Y-73772154D01*
X112666756Y-73686756D01*
X112666756Y-73415822D01*
X112520820Y-73415822D01*
X112509720Y-73415821D01*
X112453202Y-73415596D01*
X112414358Y-73414457D01*
X112388965Y-73411657D01*
X112372804Y-73406450D01*
X112361652Y-73398089D01*
X112351289Y-73385826D01*
X112335441Y-73355138D01*
X112338543Y-73321358D01*
X112364187Y-73288822D01*
X112369129Y-73285105D01*
X112379338Y-73280269D01*
X112394764Y-73276506D01*
X112417886Y-73273683D01*
X112451183Y-73271670D01*
X112497137Y-73270333D01*
X112558228Y-73269542D01*
X112636935Y-73269163D01*
X112735740Y-73269067D01*
X112755767Y-73269068D01*
G37*
X112755767Y-73269068D02*
X112849890Y-73269158D01*
X112924405Y-73269498D01*
X112981811Y-73270239D01*
X113024611Y-73271535D01*
X113055304Y-73273537D01*
X113076391Y-73276396D01*
X113090373Y-73280266D01*
X113099750Y-73285298D01*
X113107022Y-73291645D01*
X113125828Y-73324362D01*
X113127275Y-73361939D01*
X113110917Y-73395178D01*
X113109557Y-73396631D01*
X113098354Y-73404992D01*
X113081252Y-73410547D01*
X113054082Y-73413840D01*
X113012678Y-73415418D01*
X112952873Y-73415822D01*
X112813511Y-73415822D01*
X112813511Y-73679589D01*
X112813436Y-73755417D01*
X112813028Y-73822083D01*
X112812046Y-73871867D01*
X112810250Y-73907784D01*
X112807399Y-73932850D01*
X112803253Y-73950081D01*
X112797571Y-73962492D01*
X112790114Y-73973100D01*
X112787824Y-73975906D01*
X112756646Y-73998548D01*
X112722266Y-74000112D01*
X112689334Y-73980267D01*
X112682355Y-73972191D01*
X112676883Y-73961593D01*
X112672863Y-73945749D01*
X112670072Y-73921773D01*
X112668288Y-73886774D01*
X112667289Y-73837864D01*
X112666852Y-73772154D01*
X112666756Y-73686756D01*
X112666756Y-73415822D01*
X112520820Y-73415822D01*
X112509720Y-73415821D01*
X112453202Y-73415596D01*
X112414358Y-73414457D01*
X112388965Y-73411657D01*
X112372804Y-73406450D01*
X112361652Y-73398089D01*
X112351289Y-73385826D01*
X112335441Y-73355138D01*
X112338543Y-73321358D01*
X112364187Y-73288822D01*
X112369129Y-73285105D01*
X112379338Y-73280269D01*
X112394764Y-73276506D01*
X112417886Y-73273683D01*
X112451183Y-73271670D01*
X112497137Y-73270333D01*
X112558228Y-73269542D01*
X112636935Y-73269163D01*
X112735740Y-73269067D01*
X112755767Y-73269068D01*
G36*
X113455406Y-73274949D02*
G01*
X113481127Y-73290647D01*
X113507778Y-73312227D01*
X113507778Y-73959684D01*
X113481127Y-73981264D01*
X113449767Y-73998739D01*
X113413966Y-73999575D01*
X113382528Y-73979082D01*
X113378652Y-73974416D01*
X113373186Y-73964949D01*
X113368979Y-73951267D01*
X113365867Y-73930748D01*
X113363687Y-73900768D01*
X113362276Y-73858704D01*
X113361471Y-73801932D01*
X113361107Y-73727830D01*
X113361022Y-73633773D01*
X113361022Y-73312227D01*
X113387673Y-73290647D01*
X113411386Y-73275877D01*
X113434400Y-73269067D01*
X113455406Y-73274949D01*
G37*
X113455406Y-73274949D02*
X113481127Y-73290647D01*
X113507778Y-73312227D01*
X113507778Y-73959684D01*
X113481127Y-73981264D01*
X113449767Y-73998739D01*
X113413966Y-73999575D01*
X113382528Y-73979082D01*
X113378652Y-73974416D01*
X113373186Y-73964949D01*
X113368979Y-73951267D01*
X113365867Y-73930748D01*
X113363687Y-73900768D01*
X113362276Y-73858704D01*
X113361471Y-73801932D01*
X113361107Y-73727830D01*
X113361022Y-73633773D01*
X113361022Y-73312227D01*
X113387673Y-73290647D01*
X113411386Y-73275877D01*
X113434400Y-73269067D01*
X113455406Y-73274949D01*
G36*
X113889702Y-73278478D02*
G01*
X113907663Y-73296989D01*
X113928263Y-73328071D01*
X113953095Y-73373756D01*
X113983750Y-73436078D01*
X114021820Y-73517071D01*
X114036454Y-73548454D01*
X114066203Y-73611638D01*
X114092297Y-73666244D01*
X114113292Y-73709290D01*
X114127739Y-73737793D01*
X114134191Y-73748770D01*
X114135550Y-73748189D01*
X114145542Y-73734242D01*
X114162833Y-73704704D01*
X114185430Y-73663087D01*
X114211338Y-73612903D01*
X114227311Y-73581414D01*
X114256261Y-73526061D01*
X114278749Y-73487044D01*
X114296965Y-73461566D01*
X114313096Y-73446831D01*
X114329330Y-73440042D01*
X114347857Y-73438400D01*
X114358360Y-73438875D01*
X114374476Y-73443082D01*
X114389790Y-73453946D01*
X114406388Y-73474219D01*
X114426357Y-73506654D01*
X114451783Y-73554004D01*
X114484752Y-73619022D01*
X114494485Y-73638277D01*
X114518943Y-73684946D01*
X114539178Y-73721109D01*
X114553311Y-73743497D01*
X114559460Y-73748845D01*
X114560827Y-73745573D01*
X114570202Y-73724664D01*
X114587062Y-73687725D01*
X114609979Y-73637874D01*
X114637520Y-73578226D01*
X114668255Y-73511898D01*
X114694970Y-73454677D01*
X114724593Y-73392688D01*
X114747664Y-73346949D01*
X114765643Y-73314908D01*
X114779990Y-73294014D01*
X114792166Y-73281718D01*
X114803632Y-73275466D01*
X114813042Y-73272574D01*
X114838147Y-73272425D01*
X114865290Y-73287768D01*
X114866590Y-73288753D01*
X114888674Y-73311388D01*
X114899723Y-73333613D01*
X114899769Y-73334253D01*
X114895228Y-73351915D01*
X114882364Y-73386481D01*
X114862605Y-73434826D01*
X114837381Y-73493825D01*
X114808119Y-73560355D01*
X114776250Y-73631291D01*
X114743201Y-73703507D01*
X114710401Y-73773880D01*
X114679280Y-73839285D01*
X114651265Y-73896597D01*
X114627786Y-73942692D01*
X114610272Y-73974446D01*
X114600151Y-73988733D01*
X114565743Y-74002102D01*
X114524046Y-73995741D01*
X114518681Y-73991044D01*
X114502852Y-73968893D01*
X114480650Y-73932132D01*
X114454233Y-73884415D01*
X114425760Y-73829393D01*
X114345986Y-73670150D01*
X114272799Y-73816742D01*
X114263103Y-73836032D01*
X114236125Y-73888380D01*
X114212096Y-73933170D01*
X114193332Y-73966154D01*
X114182146Y-73983089D01*
X114181000Y-73984332D01*
X114152879Y-73999619D01*
X114117817Y-74001302D01*
X114086776Y-73988733D01*
X114084350Y-73985884D01*
X114072090Y-73965259D01*
X114052352Y-73927708D01*
X114026448Y-73875880D01*
X113995685Y-73812423D01*
X113961375Y-73739985D01*
X113924825Y-73661216D01*
X113904585Y-73617093D01*
X113867812Y-73536365D01*
X113839355Y-73472687D01*
X113818331Y-73423752D01*
X113803854Y-73387257D01*
X113795039Y-73360895D01*
X113791004Y-73342361D01*
X113790862Y-73329352D01*
X113793730Y-73319561D01*
X113808387Y-73298678D01*
X113834990Y-73278377D01*
X113835745Y-73278035D01*
X113855335Y-73271034D01*
X113872790Y-73270504D01*
X113889702Y-73278478D01*
G37*
X113889702Y-73278478D02*
X113907663Y-73296989D01*
X113928263Y-73328071D01*
X113953095Y-73373756D01*
X113983750Y-73436078D01*
X114021820Y-73517071D01*
X114036454Y-73548454D01*
X114066203Y-73611638D01*
X114092297Y-73666244D01*
X114113292Y-73709290D01*
X114127739Y-73737793D01*
X114134191Y-73748770D01*
X114135550Y-73748189D01*
X114145542Y-73734242D01*
X114162833Y-73704704D01*
X114185430Y-73663087D01*
X114211338Y-73612903D01*
X114227311Y-73581414D01*
X114256261Y-73526061D01*
X114278749Y-73487044D01*
X114296965Y-73461566D01*
X114313096Y-73446831D01*
X114329330Y-73440042D01*
X114347857Y-73438400D01*
X114358360Y-73438875D01*
X114374476Y-73443082D01*
X114389790Y-73453946D01*
X114406388Y-73474219D01*
X114426357Y-73506654D01*
X114451783Y-73554004D01*
X114484752Y-73619022D01*
X114494485Y-73638277D01*
X114518943Y-73684946D01*
X114539178Y-73721109D01*
X114553311Y-73743497D01*
X114559460Y-73748845D01*
X114560827Y-73745573D01*
X114570202Y-73724664D01*
X114587062Y-73687725D01*
X114609979Y-73637874D01*
X114637520Y-73578226D01*
X114668255Y-73511898D01*
X114694970Y-73454677D01*
X114724593Y-73392688D01*
X114747664Y-73346949D01*
X114765643Y-73314908D01*
X114779990Y-73294014D01*
X114792166Y-73281718D01*
X114803632Y-73275466D01*
X114813042Y-73272574D01*
X114838147Y-73272425D01*
X114865290Y-73287768D01*
X114866590Y-73288753D01*
X114888674Y-73311388D01*
X114899723Y-73333613D01*
X114899769Y-73334253D01*
X114895228Y-73351915D01*
X114882364Y-73386481D01*
X114862605Y-73434826D01*
X114837381Y-73493825D01*
X114808119Y-73560355D01*
X114776250Y-73631291D01*
X114743201Y-73703507D01*
X114710401Y-73773880D01*
X114679280Y-73839285D01*
X114651265Y-73896597D01*
X114627786Y-73942692D01*
X114610272Y-73974446D01*
X114600151Y-73988733D01*
X114565743Y-74002102D01*
X114524046Y-73995741D01*
X114518681Y-73991044D01*
X114502852Y-73968893D01*
X114480650Y-73932132D01*
X114454233Y-73884415D01*
X114425760Y-73829393D01*
X114345986Y-73670150D01*
X114272799Y-73816742D01*
X114263103Y-73836032D01*
X114236125Y-73888380D01*
X114212096Y-73933170D01*
X114193332Y-73966154D01*
X114182146Y-73983089D01*
X114181000Y-73984332D01*
X114152879Y-73999619D01*
X114117817Y-74001302D01*
X114086776Y-73988733D01*
X114084350Y-73985884D01*
X114072090Y-73965259D01*
X114052352Y-73927708D01*
X114026448Y-73875880D01*
X113995685Y-73812423D01*
X113961375Y-73739985D01*
X113924825Y-73661216D01*
X113904585Y-73617093D01*
X113867812Y-73536365D01*
X113839355Y-73472687D01*
X113818331Y-73423752D01*
X113803854Y-73387257D01*
X113795039Y-73360895D01*
X113791004Y-73342361D01*
X113790862Y-73329352D01*
X113793730Y-73319561D01*
X113808387Y-73298678D01*
X113834990Y-73278377D01*
X113835745Y-73278035D01*
X113855335Y-73271034D01*
X113872790Y-73270504D01*
X113889702Y-73278478D01*
G36*
X116783163Y-73913175D02*
G01*
X116780235Y-73936095D01*
X116776158Y-73951897D01*
X116770743Y-73963319D01*
X116763803Y-73973100D01*
X116740406Y-74002845D01*
X116574714Y-74002251D01*
X116539918Y-74001953D01*
X116441435Y-73998522D01*
X116360473Y-73990839D01*
X116293379Y-73978282D01*
X116236496Y-73960227D01*
X116186169Y-73936052D01*
X116182810Y-73934135D01*
X116124998Y-73897417D01*
X116082644Y-73860451D01*
X116049828Y-73816966D01*
X116020628Y-73760689D01*
X116016346Y-73751073D01*
X115993769Y-73687887D01*
X115988034Y-73642333D01*
X116137279Y-73642333D01*
X116142892Y-73667061D01*
X116148618Y-73682939D01*
X116181548Y-73742847D01*
X116228886Y-73788600D01*
X116292652Y-73821736D01*
X116374861Y-73843790D01*
X116377655Y-73844292D01*
X116423940Y-73850255D01*
X116480336Y-73854483D01*
X116535274Y-73856089D01*
X116629156Y-73856089D01*
X116629156Y-73415822D01*
X116541667Y-73416270D01*
X116474747Y-73418746D01*
X116382349Y-73429998D01*
X116303034Y-73449537D01*
X116241060Y-73476511D01*
X116210120Y-73497240D01*
X116182000Y-73527006D01*
X116158660Y-73569434D01*
X116151533Y-73585400D01*
X116139709Y-73617902D01*
X116137279Y-73642333D01*
X115988034Y-73642333D01*
X115986797Y-73632509D01*
X115995399Y-73577483D01*
X116019541Y-73515351D01*
X116020337Y-73513658D01*
X116060788Y-73444236D01*
X116111473Y-73387638D01*
X116174198Y-73343070D01*
X116250774Y-73309741D01*
X116343009Y-73286861D01*
X116452712Y-73273636D01*
X116581691Y-73269275D01*
X116585263Y-73269270D01*
X116645283Y-73269410D01*
X116687214Y-73270446D01*
X116715328Y-73273040D01*
X116733897Y-73277853D01*
X116747194Y-73285544D01*
X116759491Y-73296776D01*
X116787200Y-73324485D01*
X116787200Y-73633920D01*
X116787175Y-73695526D01*
X116786950Y-73774311D01*
X116786332Y-73835021D01*
X116785775Y-73856089D01*
X116785133Y-73880396D01*
X116783163Y-73913175D01*
G37*
X116783163Y-73913175D02*
X116780235Y-73936095D01*
X116776158Y-73951897D01*
X116770743Y-73963319D01*
X116763803Y-73973100D01*
X116740406Y-74002845D01*
X116574714Y-74002251D01*
X116539918Y-74001953D01*
X116441435Y-73998522D01*
X116360473Y-73990839D01*
X116293379Y-73978282D01*
X116236496Y-73960227D01*
X116186169Y-73936052D01*
X116182810Y-73934135D01*
X116124998Y-73897417D01*
X116082644Y-73860451D01*
X116049828Y-73816966D01*
X116020628Y-73760689D01*
X116016346Y-73751073D01*
X115993769Y-73687887D01*
X115988034Y-73642333D01*
X116137279Y-73642333D01*
X116142892Y-73667061D01*
X116148618Y-73682939D01*
X116181548Y-73742847D01*
X116228886Y-73788600D01*
X116292652Y-73821736D01*
X116374861Y-73843790D01*
X116377655Y-73844292D01*
X116423940Y-73850255D01*
X116480336Y-73854483D01*
X116535274Y-73856089D01*
X116629156Y-73856089D01*
X116629156Y-73415822D01*
X116541667Y-73416270D01*
X116474747Y-73418746D01*
X116382349Y-73429998D01*
X116303034Y-73449537D01*
X116241060Y-73476511D01*
X116210120Y-73497240D01*
X116182000Y-73527006D01*
X116158660Y-73569434D01*
X116151533Y-73585400D01*
X116139709Y-73617902D01*
X116137279Y-73642333D01*
X115988034Y-73642333D01*
X115986797Y-73632509D01*
X115995399Y-73577483D01*
X116019541Y-73515351D01*
X116020337Y-73513658D01*
X116060788Y-73444236D01*
X116111473Y-73387638D01*
X116174198Y-73343070D01*
X116250774Y-73309741D01*
X116343009Y-73286861D01*
X116452712Y-73273636D01*
X116581691Y-73269275D01*
X116585263Y-73269270D01*
X116645283Y-73269410D01*
X116687214Y-73270446D01*
X116715328Y-73273040D01*
X116733897Y-73277853D01*
X116747194Y-73285544D01*
X116759491Y-73296776D01*
X116787200Y-73324485D01*
X116787200Y-73633920D01*
X116787175Y-73695526D01*
X116786950Y-73774311D01*
X116786332Y-73835021D01*
X116785775Y-73856089D01*
X116785133Y-73880396D01*
X116783163Y-73913175D01*
G36*
X117779803Y-73298811D02*
G01*
X117784752Y-73305495D01*
X117790596Y-73316066D01*
X117795057Y-73330153D01*
X117798321Y-73350478D01*
X117800574Y-73379765D01*
X117802002Y-73420737D01*
X117802792Y-73476117D01*
X117803129Y-73548628D01*
X117803200Y-73640994D01*
X117803171Y-73706911D01*
X117802939Y-73785228D01*
X117802319Y-73845496D01*
X117801126Y-73890393D01*
X117799179Y-73922602D01*
X117796294Y-73944800D01*
X117792288Y-73959669D01*
X117786979Y-73969889D01*
X117780183Y-73978138D01*
X117775668Y-73982795D01*
X117767438Y-73989282D01*
X117756078Y-73994194D01*
X117738810Y-73997749D01*
X117712855Y-74000167D01*
X117675436Y-74001667D01*
X117623773Y-74002467D01*
X117555089Y-74002787D01*
X117466606Y-74002845D01*
X117446931Y-74002838D01*
X117359906Y-74002572D01*
X117292254Y-74001806D01*
X117241299Y-74000392D01*
X117204367Y-73998180D01*
X117178783Y-73995022D01*
X117161871Y-73990769D01*
X117150957Y-73985271D01*
X117140464Y-73975285D01*
X117127203Y-73944168D01*
X117128386Y-73908280D01*
X117144550Y-73876733D01*
X117146739Y-73874457D01*
X117155427Y-73868189D01*
X117168769Y-73863523D01*
X117189752Y-73860227D01*
X117221363Y-73858068D01*
X117266590Y-73856814D01*
X117328420Y-73856231D01*
X117409839Y-73856089D01*
X117656445Y-73856089D01*
X117656445Y-73698045D01*
X117494006Y-73698045D01*
X117458338Y-73697964D01*
X117402568Y-73697167D01*
X117363430Y-73695162D01*
X117336976Y-73691521D01*
X117319259Y-73685812D01*
X117306329Y-73677607D01*
X117302686Y-73674423D01*
X117284278Y-73643448D01*
X117283644Y-73607112D01*
X117301183Y-73573493D01*
X117301245Y-73573424D01*
X117310916Y-73564798D01*
X117324209Y-73558742D01*
X117344917Y-73554811D01*
X117376828Y-73552556D01*
X117423734Y-73551531D01*
X117489424Y-73551289D01*
X117657571Y-73551289D01*
X117654186Y-73486378D01*
X117650800Y-73421467D01*
X117408723Y-73418414D01*
X117383707Y-73418086D01*
X117302087Y-73416606D01*
X117239768Y-73414222D01*
X117194154Y-73410227D01*
X117162652Y-73403913D01*
X117142667Y-73394574D01*
X117131604Y-73381503D01*
X117126869Y-73363992D01*
X117125867Y-73341335D01*
X117125873Y-73338970D01*
X117127027Y-73318939D01*
X117131824Y-73303146D01*
X117142632Y-73291090D01*
X117161817Y-73282267D01*
X117191745Y-73276175D01*
X117234783Y-73272311D01*
X117293299Y-73270174D01*
X117369657Y-73269260D01*
X117466226Y-73269067D01*
X117756406Y-73269067D01*
X117779803Y-73298811D01*
G37*
X117779803Y-73298811D02*
X117784752Y-73305495D01*
X117790596Y-73316066D01*
X117795057Y-73330153D01*
X117798321Y-73350478D01*
X117800574Y-73379765D01*
X117802002Y-73420737D01*
X117802792Y-73476117D01*
X117803129Y-73548628D01*
X117803200Y-73640994D01*
X117803171Y-73706911D01*
X117802939Y-73785228D01*
X117802319Y-73845496D01*
X117801126Y-73890393D01*
X117799179Y-73922602D01*
X117796294Y-73944800D01*
X117792288Y-73959669D01*
X117786979Y-73969889D01*
X117780183Y-73978138D01*
X117775668Y-73982795D01*
X117767438Y-73989282D01*
X117756078Y-73994194D01*
X117738810Y-73997749D01*
X117712855Y-74000167D01*
X117675436Y-74001667D01*
X117623773Y-74002467D01*
X117555089Y-74002787D01*
X117466606Y-74002845D01*
X117446931Y-74002838D01*
X117359906Y-74002572D01*
X117292254Y-74001806D01*
X117241299Y-74000392D01*
X117204367Y-73998180D01*
X117178783Y-73995022D01*
X117161871Y-73990769D01*
X117150957Y-73985271D01*
X117140464Y-73975285D01*
X117127203Y-73944168D01*
X117128386Y-73908280D01*
X117144550Y-73876733D01*
X117146739Y-73874457D01*
X117155427Y-73868189D01*
X117168769Y-73863523D01*
X117189752Y-73860227D01*
X117221363Y-73858068D01*
X117266590Y-73856814D01*
X117328420Y-73856231D01*
X117409839Y-73856089D01*
X117656445Y-73856089D01*
X117656445Y-73698045D01*
X117494006Y-73698045D01*
X117458338Y-73697964D01*
X117402568Y-73697167D01*
X117363430Y-73695162D01*
X117336976Y-73691521D01*
X117319259Y-73685812D01*
X117306329Y-73677607D01*
X117302686Y-73674423D01*
X117284278Y-73643448D01*
X117283644Y-73607112D01*
X117301183Y-73573493D01*
X117301245Y-73573424D01*
X117310916Y-73564798D01*
X117324209Y-73558742D01*
X117344917Y-73554811D01*
X117376828Y-73552556D01*
X117423734Y-73551531D01*
X117489424Y-73551289D01*
X117657571Y-73551289D01*
X117654186Y-73486378D01*
X117650800Y-73421467D01*
X117408723Y-73418414D01*
X117383707Y-73418086D01*
X117302087Y-73416606D01*
X117239768Y-73414222D01*
X117194154Y-73410227D01*
X117162652Y-73403913D01*
X117142667Y-73394574D01*
X117131604Y-73381503D01*
X117126869Y-73363992D01*
X117125867Y-73341335D01*
X117125873Y-73338970D01*
X117127027Y-73318939D01*
X117131824Y-73303146D01*
X117142632Y-73291090D01*
X117161817Y-73282267D01*
X117191745Y-73276175D01*
X117234783Y-73272311D01*
X117293299Y-73270174D01*
X117369657Y-73269260D01*
X117466226Y-73269067D01*
X117756406Y-73269067D01*
X117779803Y-73298811D01*
G36*
X118931893Y-73267892D02*
G01*
X118943301Y-73274029D01*
X118953850Y-73284691D01*
X118965136Y-73298811D01*
X118969589Y-73304772D01*
X118975588Y-73315268D01*
X118980167Y-73329093D01*
X118983519Y-73348998D01*
X118985833Y-73377732D01*
X118987301Y-73418045D01*
X118988113Y-73472687D01*
X118988460Y-73544407D01*
X118988534Y-73635956D01*
X118988511Y-73694486D01*
X118988292Y-73773573D01*
X118987683Y-73834516D01*
X118986492Y-73880062D01*
X118984529Y-73912963D01*
X118981603Y-73935968D01*
X118977523Y-73951826D01*
X118972097Y-73963286D01*
X118965136Y-73973100D01*
X118934708Y-73997493D01*
X118899765Y-74000372D01*
X118862784Y-73981282D01*
X118858600Y-73977807D01*
X118850424Y-73969279D01*
X118844364Y-73957728D01*
X118839981Y-73939896D01*
X118836839Y-73912524D01*
X118834502Y-73872354D01*
X118832531Y-73816128D01*
X118830489Y-73740589D01*
X118824845Y-73521458D01*
X118559556Y-73762099D01*
X118485722Y-73828875D01*
X118420542Y-73886991D01*
X118368348Y-73931949D01*
X118327273Y-73964871D01*
X118295455Y-73986879D01*
X118271026Y-73999094D01*
X118252124Y-74002639D01*
X118236883Y-73998636D01*
X118223439Y-73988207D01*
X118209927Y-73972474D01*
X118203682Y-73963991D01*
X118198050Y-73953413D01*
X118193839Y-73939255D01*
X118190887Y-73918803D01*
X118189032Y-73889342D01*
X118188113Y-73848161D01*
X118187968Y-73792544D01*
X118188435Y-73719779D01*
X118189352Y-73627151D01*
X118192667Y-73312199D01*
X118219318Y-73290633D01*
X118245383Y-73274441D01*
X118278241Y-73271670D01*
X118312772Y-73290623D01*
X118317084Y-73294208D01*
X118325216Y-73302737D01*
X118331245Y-73314329D01*
X118335606Y-73332235D01*
X118338734Y-73359706D01*
X118341063Y-73399994D01*
X118343029Y-73456351D01*
X118345067Y-73532029D01*
X118350711Y-73751878D01*
X118531334Y-73588084D01*
X118618072Y-73509451D01*
X118693843Y-73441058D01*
X118755980Y-73385708D01*
X118806078Y-73342338D01*
X118845735Y-73309881D01*
X118876548Y-73287273D01*
X118900114Y-73273448D01*
X118918030Y-73267343D01*
X118931893Y-73267892D01*
G37*
X118931893Y-73267892D02*
X118943301Y-73274029D01*
X118953850Y-73284691D01*
X118965136Y-73298811D01*
X118969589Y-73304772D01*
X118975588Y-73315268D01*
X118980167Y-73329093D01*
X118983519Y-73348998D01*
X118985833Y-73377732D01*
X118987301Y-73418045D01*
X118988113Y-73472687D01*
X118988460Y-73544407D01*
X118988534Y-73635956D01*
X118988511Y-73694486D01*
X118988292Y-73773573D01*
X118987683Y-73834516D01*
X118986492Y-73880062D01*
X118984529Y-73912963D01*
X118981603Y-73935968D01*
X118977523Y-73951826D01*
X118972097Y-73963286D01*
X118965136Y-73973100D01*
X118934708Y-73997493D01*
X118899765Y-74000372D01*
X118862784Y-73981282D01*
X118858600Y-73977807D01*
X118850424Y-73969279D01*
X118844364Y-73957728D01*
X118839981Y-73939896D01*
X118836839Y-73912524D01*
X118834502Y-73872354D01*
X118832531Y-73816128D01*
X118830489Y-73740589D01*
X118824845Y-73521458D01*
X118559556Y-73762099D01*
X118485722Y-73828875D01*
X118420542Y-73886991D01*
X118368348Y-73931949D01*
X118327273Y-73964871D01*
X118295455Y-73986879D01*
X118271026Y-73999094D01*
X118252124Y-74002639D01*
X118236883Y-73998636D01*
X118223439Y-73988207D01*
X118209927Y-73972474D01*
X118203682Y-73963991D01*
X118198050Y-73953413D01*
X118193839Y-73939255D01*
X118190887Y-73918803D01*
X118189032Y-73889342D01*
X118188113Y-73848161D01*
X118187968Y-73792544D01*
X118188435Y-73719779D01*
X118189352Y-73627151D01*
X118192667Y-73312199D01*
X118219318Y-73290633D01*
X118245383Y-73274441D01*
X118278241Y-73271670D01*
X118312772Y-73290623D01*
X118317084Y-73294208D01*
X118325216Y-73302737D01*
X118331245Y-73314329D01*
X118335606Y-73332235D01*
X118338734Y-73359706D01*
X118341063Y-73399994D01*
X118343029Y-73456351D01*
X118345067Y-73532029D01*
X118350711Y-73751878D01*
X118531334Y-73588084D01*
X118618072Y-73509451D01*
X118693843Y-73441058D01*
X118755980Y-73385708D01*
X118806078Y-73342338D01*
X118845735Y-73309881D01*
X118876548Y-73287273D01*
X118900114Y-73273448D01*
X118918030Y-73267343D01*
X118931893Y-73267892D01*
G36*
X119729150Y-73274179D02*
G01*
X119835157Y-73290494D01*
X119928969Y-73318545D01*
X120007765Y-73357452D01*
X120068719Y-73406334D01*
X120094789Y-73439195D01*
X120124297Y-73488394D01*
X120149568Y-73542252D01*
X120167218Y-73593419D01*
X120173858Y-73634544D01*
X120172298Y-73654259D01*
X120159357Y-73705592D01*
X120136194Y-73762118D01*
X120106302Y-73816035D01*
X120073173Y-73859539D01*
X120062977Y-73869887D01*
X119995892Y-73921662D01*
X119915766Y-73961554D01*
X119829556Y-73985956D01*
X119774592Y-73994068D01*
X119681139Y-74000673D01*
X119591358Y-73998586D01*
X119508869Y-73988340D01*
X119437286Y-73970470D01*
X119380228Y-73945508D01*
X119341311Y-73913988D01*
X119339936Y-73912012D01*
X119332848Y-73886786D01*
X119328609Y-73839535D01*
X119327200Y-73770071D01*
X119328060Y-73707838D01*
X119332780Y-73660456D01*
X119344470Y-73628353D01*
X119366239Y-73608800D01*
X119401198Y-73599070D01*
X119452456Y-73596433D01*
X119523123Y-73598161D01*
X119571743Y-73601173D01*
X119621939Y-73609366D01*
X119654433Y-73623419D01*
X119671892Y-73644654D01*
X119676983Y-73674394D01*
X119676877Y-73678936D01*
X119668175Y-73713730D01*
X119644165Y-73737147D01*
X119602900Y-73750347D01*
X119542431Y-73754489D01*
X119473956Y-73754489D01*
X119473956Y-73792841D01*
X119474006Y-73801976D01*
X119476227Y-73819227D01*
X119485494Y-73829521D01*
X119506875Y-73836459D01*
X119545436Y-73843641D01*
X119550910Y-73844575D01*
X119647860Y-73854478D01*
X119737852Y-73851559D01*
X119818760Y-73836829D01*
X119888459Y-73811299D01*
X119944824Y-73775978D01*
X119985729Y-73731879D01*
X120009051Y-73680012D01*
X120012663Y-73621388D01*
X120007145Y-73592494D01*
X119980461Y-73536604D01*
X119934273Y-73490945D01*
X119869291Y-73456108D01*
X119786229Y-73432690D01*
X119761555Y-73428241D01*
X119672226Y-73417742D01*
X119592419Y-73418971D01*
X119514326Y-73431906D01*
X119479183Y-73438696D01*
X119433745Y-73439713D01*
X119402430Y-73427182D01*
X119382277Y-73400395D01*
X119375893Y-73372148D01*
X119385379Y-73340924D01*
X119394708Y-73327499D01*
X119428943Y-73303967D01*
X119481565Y-73286095D01*
X119550081Y-73274599D01*
X119632000Y-73270192D01*
X119729150Y-73274179D01*
G37*
X119729150Y-73274179D02*
X119835157Y-73290494D01*
X119928969Y-73318545D01*
X120007765Y-73357452D01*
X120068719Y-73406334D01*
X120094789Y-73439195D01*
X120124297Y-73488394D01*
X120149568Y-73542252D01*
X120167218Y-73593419D01*
X120173858Y-73634544D01*
X120172298Y-73654259D01*
X120159357Y-73705592D01*
X120136194Y-73762118D01*
X120106302Y-73816035D01*
X120073173Y-73859539D01*
X120062977Y-73869887D01*
X119995892Y-73921662D01*
X119915766Y-73961554D01*
X119829556Y-73985956D01*
X119774592Y-73994068D01*
X119681139Y-74000673D01*
X119591358Y-73998586D01*
X119508869Y-73988340D01*
X119437286Y-73970470D01*
X119380228Y-73945508D01*
X119341311Y-73913988D01*
X119339936Y-73912012D01*
X119332848Y-73886786D01*
X119328609Y-73839535D01*
X119327200Y-73770071D01*
X119328060Y-73707838D01*
X119332780Y-73660456D01*
X119344470Y-73628353D01*
X119366239Y-73608800D01*
X119401198Y-73599070D01*
X119452456Y-73596433D01*
X119523123Y-73598161D01*
X119571743Y-73601173D01*
X119621939Y-73609366D01*
X119654433Y-73623419D01*
X119671892Y-73644654D01*
X119676983Y-73674394D01*
X119676877Y-73678936D01*
X119668175Y-73713730D01*
X119644165Y-73737147D01*
X119602900Y-73750347D01*
X119542431Y-73754489D01*
X119473956Y-73754489D01*
X119473956Y-73792841D01*
X119474006Y-73801976D01*
X119476227Y-73819227D01*
X119485494Y-73829521D01*
X119506875Y-73836459D01*
X119545436Y-73843641D01*
X119550910Y-73844575D01*
X119647860Y-73854478D01*
X119737852Y-73851559D01*
X119818760Y-73836829D01*
X119888459Y-73811299D01*
X119944824Y-73775978D01*
X119985729Y-73731879D01*
X120009051Y-73680012D01*
X120012663Y-73621388D01*
X120007145Y-73592494D01*
X119980461Y-73536604D01*
X119934273Y-73490945D01*
X119869291Y-73456108D01*
X119786229Y-73432690D01*
X119761555Y-73428241D01*
X119672226Y-73417742D01*
X119592419Y-73418971D01*
X119514326Y-73431906D01*
X119479183Y-73438696D01*
X119433745Y-73439713D01*
X119402430Y-73427182D01*
X119382277Y-73400395D01*
X119375893Y-73372148D01*
X119385379Y-73340924D01*
X119394708Y-73327499D01*
X119428943Y-73303967D01*
X119481565Y-73286095D01*
X119550081Y-73274599D01*
X119632000Y-73270192D01*
X119729150Y-73274179D01*
G36*
X120586137Y-73273463D02*
G01*
X120620291Y-73296776D01*
X120648000Y-73324485D01*
X120648000Y-73637537D01*
X120647959Y-73721567D01*
X120647701Y-73795789D01*
X120647030Y-73852541D01*
X120645752Y-73894512D01*
X120643673Y-73924389D01*
X120640599Y-73944861D01*
X120636334Y-73958614D01*
X120630684Y-73968337D01*
X120623455Y-73976717D01*
X120591991Y-73998181D01*
X120556826Y-73999947D01*
X120523822Y-73980267D01*
X120518516Y-73974398D01*
X120513066Y-73965314D01*
X120508900Y-73951973D01*
X120505846Y-73931757D01*
X120503732Y-73902049D01*
X120502386Y-73860232D01*
X120501638Y-73803689D01*
X120501314Y-73729802D01*
X120501245Y-73635956D01*
X120501284Y-73560294D01*
X120501539Y-73482385D01*
X120502183Y-73422375D01*
X120503387Y-73377648D01*
X120505324Y-73345585D01*
X120508164Y-73323571D01*
X120512079Y-73308987D01*
X120517242Y-73299218D01*
X120523822Y-73291645D01*
X120553006Y-73272623D01*
X120586137Y-73273463D01*
G37*
X120586137Y-73273463D02*
X120620291Y-73296776D01*
X120648000Y-73324485D01*
X120648000Y-73637537D01*
X120647959Y-73721567D01*
X120647701Y-73795789D01*
X120647030Y-73852541D01*
X120645752Y-73894512D01*
X120643673Y-73924389D01*
X120640599Y-73944861D01*
X120636334Y-73958614D01*
X120630684Y-73968337D01*
X120623455Y-73976717D01*
X120591991Y-73998181D01*
X120556826Y-73999947D01*
X120523822Y-73980267D01*
X120518516Y-73974398D01*
X120513066Y-73965314D01*
X120508900Y-73951973D01*
X120505846Y-73931757D01*
X120503732Y-73902049D01*
X120502386Y-73860232D01*
X120501638Y-73803689D01*
X120501314Y-73729802D01*
X120501245Y-73635956D01*
X120501284Y-73560294D01*
X120501539Y-73482385D01*
X120502183Y-73422375D01*
X120503387Y-73377648D01*
X120505324Y-73345585D01*
X120508164Y-73323571D01*
X120512079Y-73308987D01*
X120517242Y-73299218D01*
X120523822Y-73291645D01*
X120553006Y-73272623D01*
X120586137Y-73273463D01*
G36*
X121440853Y-73269936D02*
G01*
X121507100Y-73275366D01*
X121562400Y-73284964D01*
X121613283Y-73299825D01*
X121684595Y-73332958D01*
X121735752Y-73375640D01*
X121766575Y-73427705D01*
X121776889Y-73488983D01*
X121775952Y-73520232D01*
X121770160Y-73545029D01*
X121755353Y-73566699D01*
X121727380Y-73594049D01*
X121719402Y-73601378D01*
X121695692Y-73622281D01*
X121673298Y-73639251D01*
X121649265Y-73653205D01*
X121620637Y-73665056D01*
X121584460Y-73675720D01*
X121537780Y-73686111D01*
X121477641Y-73697146D01*
X121401090Y-73709738D01*
X121305171Y-73724804D01*
X121286808Y-73727838D01*
X121224478Y-73741458D01*
X121179260Y-73757192D01*
X121152976Y-73774263D01*
X121147447Y-73791897D01*
X121150068Y-73796168D01*
X121168000Y-73811233D01*
X121196126Y-73827867D01*
X121208926Y-73833857D01*
X121230224Y-73841050D01*
X121256610Y-73845827D01*
X121292454Y-73848646D01*
X121342128Y-73849964D01*
X121410000Y-73850237D01*
X121427785Y-73850164D01*
X121495406Y-73849053D01*
X121560345Y-73846828D01*
X121615970Y-73843762D01*
X121655651Y-73840127D01*
X121691162Y-73836059D01*
X121720415Y-73835276D01*
X121739315Y-73839876D01*
X121754429Y-73850551D01*
X121758085Y-73854144D01*
X121774427Y-73885918D01*
X121773107Y-73921572D01*
X121754150Y-73952190D01*
X121733780Y-73963796D01*
X121697796Y-73976491D01*
X121655372Y-73986541D01*
X121651922Y-73987140D01*
X121609252Y-73992356D01*
X121551866Y-73996730D01*
X121486849Y-73999818D01*
X121421289Y-74001177D01*
X121405057Y-74001218D01*
X121306744Y-73998741D01*
X121226692Y-73990735D01*
X121161513Y-73976203D01*
X121107817Y-73954149D01*
X121062216Y-73923576D01*
X121021323Y-73883486D01*
X121001202Y-73857259D01*
X120989576Y-73827712D01*
X120986667Y-73787995D01*
X120986808Y-73776026D01*
X120990681Y-73743345D01*
X121003065Y-73716819D01*
X121028230Y-73685971D01*
X121049442Y-73663831D01*
X121075838Y-73641285D01*
X121105555Y-73622917D01*
X121141785Y-73607661D01*
X121187717Y-73594449D01*
X121246544Y-73582214D01*
X121321456Y-73569889D01*
X121415645Y-73556406D01*
X121460957Y-73549396D01*
X121528911Y-73534837D01*
X121578047Y-73518337D01*
X121607614Y-73500439D01*
X121616864Y-73481685D01*
X121605048Y-73462615D01*
X121571416Y-73443771D01*
X121568370Y-73442557D01*
X121522011Y-73430479D01*
X121459361Y-73422279D01*
X121385927Y-73418119D01*
X121307217Y-73418161D01*
X121228739Y-73422569D01*
X121156000Y-73431505D01*
X121152073Y-73432154D01*
X121103257Y-73439861D01*
X121071005Y-73443473D01*
X121050008Y-73442876D01*
X121034954Y-73437954D01*
X121020534Y-73428596D01*
X121019364Y-73427725D01*
X120994847Y-73397351D01*
X120990054Y-73361850D01*
X121005860Y-73327269D01*
X121010406Y-73322813D01*
X121040020Y-73307673D01*
X121087002Y-73294550D01*
X121147306Y-73283750D01*
X121216888Y-73275581D01*
X121291703Y-73270351D01*
X121367706Y-73268367D01*
X121440853Y-73269936D01*
G37*
X121440853Y-73269936D02*
X121507100Y-73275366D01*
X121562400Y-73284964D01*
X121613283Y-73299825D01*
X121684595Y-73332958D01*
X121735752Y-73375640D01*
X121766575Y-73427705D01*
X121776889Y-73488983D01*
X121775952Y-73520232D01*
X121770160Y-73545029D01*
X121755353Y-73566699D01*
X121727380Y-73594049D01*
X121719402Y-73601378D01*
X121695692Y-73622281D01*
X121673298Y-73639251D01*
X121649265Y-73653205D01*
X121620637Y-73665056D01*
X121584460Y-73675720D01*
X121537780Y-73686111D01*
X121477641Y-73697146D01*
X121401090Y-73709738D01*
X121305171Y-73724804D01*
X121286808Y-73727838D01*
X121224478Y-73741458D01*
X121179260Y-73757192D01*
X121152976Y-73774263D01*
X121147447Y-73791897D01*
X121150068Y-73796168D01*
X121168000Y-73811233D01*
X121196126Y-73827867D01*
X121208926Y-73833857D01*
X121230224Y-73841050D01*
X121256610Y-73845827D01*
X121292454Y-73848646D01*
X121342128Y-73849964D01*
X121410000Y-73850237D01*
X121427785Y-73850164D01*
X121495406Y-73849053D01*
X121560345Y-73846828D01*
X121615970Y-73843762D01*
X121655651Y-73840127D01*
X121691162Y-73836059D01*
X121720415Y-73835276D01*
X121739315Y-73839876D01*
X121754429Y-73850551D01*
X121758085Y-73854144D01*
X121774427Y-73885918D01*
X121773107Y-73921572D01*
X121754150Y-73952190D01*
X121733780Y-73963796D01*
X121697796Y-73976491D01*
X121655372Y-73986541D01*
X121651922Y-73987140D01*
X121609252Y-73992356D01*
X121551866Y-73996730D01*
X121486849Y-73999818D01*
X121421289Y-74001177D01*
X121405057Y-74001218D01*
X121306744Y-73998741D01*
X121226692Y-73990735D01*
X121161513Y-73976203D01*
X121107817Y-73954149D01*
X121062216Y-73923576D01*
X121021323Y-73883486D01*
X121001202Y-73857259D01*
X120989576Y-73827712D01*
X120986667Y-73787995D01*
X120986808Y-73776026D01*
X120990681Y-73743345D01*
X121003065Y-73716819D01*
X121028230Y-73685971D01*
X121049442Y-73663831D01*
X121075838Y-73641285D01*
X121105555Y-73622917D01*
X121141785Y-73607661D01*
X121187717Y-73594449D01*
X121246544Y-73582214D01*
X121321456Y-73569889D01*
X121415645Y-73556406D01*
X121460957Y-73549396D01*
X121528911Y-73534837D01*
X121578047Y-73518337D01*
X121607614Y-73500439D01*
X121616864Y-73481685D01*
X121605048Y-73462615D01*
X121571416Y-73443771D01*
X121568370Y-73442557D01*
X121522011Y-73430479D01*
X121459361Y-73422279D01*
X121385927Y-73418119D01*
X121307217Y-73418161D01*
X121228739Y-73422569D01*
X121156000Y-73431505D01*
X121152073Y-73432154D01*
X121103257Y-73439861D01*
X121071005Y-73443473D01*
X121050008Y-73442876D01*
X121034954Y-73437954D01*
X121020534Y-73428596D01*
X121019364Y-73427725D01*
X120994847Y-73397351D01*
X120990054Y-73361850D01*
X121005860Y-73327269D01*
X121010406Y-73322813D01*
X121040020Y-73307673D01*
X121087002Y-73294550D01*
X121147306Y-73283750D01*
X121216888Y-73275581D01*
X121291703Y-73270351D01*
X121367706Y-73268367D01*
X121440853Y-73269936D01*
G36*
X122456734Y-73269083D02*
G01*
X122533831Y-73269275D01*
X122592777Y-73269860D01*
X122636364Y-73271051D01*
X122667383Y-73273064D01*
X122688625Y-73276112D01*
X122702882Y-73280409D01*
X122712945Y-73286172D01*
X122721606Y-73293612D01*
X122723391Y-73295293D01*
X122730635Y-73302832D01*
X122736277Y-73311850D01*
X122740517Y-73324984D01*
X122743556Y-73344872D01*
X122745594Y-73374151D01*
X122746830Y-73415458D01*
X122747465Y-73471431D01*
X122747700Y-73544707D01*
X122747734Y-73637923D01*
X122747697Y-73710713D01*
X122747448Y-73788889D01*
X122746812Y-73849103D01*
X122745615Y-73893982D01*
X122743684Y-73926152D01*
X122740846Y-73948239D01*
X122736927Y-73962870D01*
X122731755Y-73972670D01*
X122725156Y-73980267D01*
X122721822Y-73983444D01*
X122713300Y-73989554D01*
X122701298Y-73994229D01*
X122683087Y-73997659D01*
X122655940Y-74000036D01*
X122617129Y-74001552D01*
X122563924Y-74002398D01*
X122493598Y-74002765D01*
X122403422Y-74002845D01*
X122361314Y-74002833D01*
X122280167Y-74002651D01*
X122217675Y-74002098D01*
X122171109Y-74000982D01*
X122137741Y-73999113D01*
X122114844Y-73996298D01*
X122099688Y-73992346D01*
X122089546Y-73987066D01*
X122081689Y-73980267D01*
X122066963Y-73958667D01*
X122059111Y-73929467D01*
X122064610Y-73905560D01*
X122081689Y-73878667D01*
X122086668Y-73874059D01*
X122096443Y-73867772D01*
X122110559Y-73863146D01*
X122132054Y-73859930D01*
X122163968Y-73857870D01*
X122209342Y-73856712D01*
X122271213Y-73856202D01*
X122352622Y-73856089D01*
X122600978Y-73856089D01*
X122600978Y-73698045D01*
X122439801Y-73698045D01*
X122403983Y-73697899D01*
X122338359Y-73696176D01*
X122291118Y-73691741D01*
X122259383Y-73683637D01*
X122240277Y-73670906D01*
X122230923Y-73652592D01*
X122228445Y-73627738D01*
X122229242Y-73607482D01*
X122234494Y-73585656D01*
X122247288Y-73570304D01*
X122270628Y-73560309D01*
X122307517Y-73554553D01*
X122360959Y-73551919D01*
X122433958Y-73551289D01*
X122602105Y-73551289D01*
X122598719Y-73486378D01*
X122595334Y-73421467D01*
X122347617Y-73418418D01*
X122285026Y-73417539D01*
X122216565Y-73416095D01*
X122165661Y-73414164D01*
X122129408Y-73411514D01*
X122104901Y-73407910D01*
X122089235Y-73403121D01*
X122079506Y-73396913D01*
X122073491Y-73390510D01*
X122060482Y-73358828D01*
X122064043Y-73323142D01*
X122083818Y-73292084D01*
X122087069Y-73289161D01*
X122096049Y-73282810D01*
X122108153Y-73277957D01*
X122126159Y-73274403D01*
X122152847Y-73271946D01*
X122190997Y-73270385D01*
X122243386Y-73269518D01*
X122312794Y-73269146D01*
X122402001Y-73269067D01*
X122456734Y-73269083D01*
G37*
X122456734Y-73269083D02*
X122533831Y-73269275D01*
X122592777Y-73269860D01*
X122636364Y-73271051D01*
X122667383Y-73273064D01*
X122688625Y-73276112D01*
X122702882Y-73280409D01*
X122712945Y-73286172D01*
X122721606Y-73293612D01*
X122723391Y-73295293D01*
X122730635Y-73302832D01*
X122736277Y-73311850D01*
X122740517Y-73324984D01*
X122743556Y-73344872D01*
X122745594Y-73374151D01*
X122746830Y-73415458D01*
X122747465Y-73471431D01*
X122747700Y-73544707D01*
X122747734Y-73637923D01*
X122747697Y-73710713D01*
X122747448Y-73788889D01*
X122746812Y-73849103D01*
X122745615Y-73893982D01*
X122743684Y-73926152D01*
X122740846Y-73948239D01*
X122736927Y-73962870D01*
X122731755Y-73972670D01*
X122725156Y-73980267D01*
X122721822Y-73983444D01*
X122713300Y-73989554D01*
X122701298Y-73994229D01*
X122683087Y-73997659D01*
X122655940Y-74000036D01*
X122617129Y-74001552D01*
X122563924Y-74002398D01*
X122493598Y-74002765D01*
X122403422Y-74002845D01*
X122361314Y-74002833D01*
X122280167Y-74002651D01*
X122217675Y-74002098D01*
X122171109Y-74000982D01*
X122137741Y-73999113D01*
X122114844Y-73996298D01*
X122099688Y-73992346D01*
X122089546Y-73987066D01*
X122081689Y-73980267D01*
X122066963Y-73958667D01*
X122059111Y-73929467D01*
X122064610Y-73905560D01*
X122081689Y-73878667D01*
X122086668Y-73874059D01*
X122096443Y-73867772D01*
X122110559Y-73863146D01*
X122132054Y-73859930D01*
X122163968Y-73857870D01*
X122209342Y-73856712D01*
X122271213Y-73856202D01*
X122352622Y-73856089D01*
X122600978Y-73856089D01*
X122600978Y-73698045D01*
X122439801Y-73698045D01*
X122403983Y-73697899D01*
X122338359Y-73696176D01*
X122291118Y-73691741D01*
X122259383Y-73683637D01*
X122240277Y-73670906D01*
X122230923Y-73652592D01*
X122228445Y-73627738D01*
X122229242Y-73607482D01*
X122234494Y-73585656D01*
X122247288Y-73570304D01*
X122270628Y-73560309D01*
X122307517Y-73554553D01*
X122360959Y-73551919D01*
X122433958Y-73551289D01*
X122602105Y-73551289D01*
X122598719Y-73486378D01*
X122595334Y-73421467D01*
X122347617Y-73418418D01*
X122285026Y-73417539D01*
X122216565Y-73416095D01*
X122165661Y-73414164D01*
X122129408Y-73411514D01*
X122104901Y-73407910D01*
X122089235Y-73403121D01*
X122079506Y-73396913D01*
X122073491Y-73390510D01*
X122060482Y-73358828D01*
X122064043Y-73323142D01*
X122083818Y-73292084D01*
X122087069Y-73289161D01*
X122096049Y-73282810D01*
X122108153Y-73277957D01*
X122126159Y-73274403D01*
X122152847Y-73271946D01*
X122190997Y-73270385D01*
X122243386Y-73269518D01*
X122312794Y-73269146D01*
X122402001Y-73269067D01*
X122456734Y-73269083D01*
G36*
X123876870Y-73535041D02*
G01*
X123876622Y-73635956D01*
X123876583Y-73711617D01*
X123876328Y-73789526D01*
X123875684Y-73849536D01*
X123874480Y-73894264D01*
X123872543Y-73926326D01*
X123869703Y-73948340D01*
X123865788Y-73962924D01*
X123860626Y-73972694D01*
X123854045Y-73980267D01*
X123847077Y-73986501D01*
X123834079Y-73993801D01*
X123814931Y-73998554D01*
X123785528Y-74001292D01*
X123741762Y-74002545D01*
X123679528Y-74002845D01*
X123630582Y-74002469D01*
X123523722Y-73998041D01*
X123434494Y-73987953D01*
X123359696Y-73971365D01*
X123296125Y-73947435D01*
X123240579Y-73915321D01*
X123189854Y-73874182D01*
X123183866Y-73868330D01*
X123146999Y-73819821D01*
X123115899Y-73759013D01*
X123094417Y-73694769D01*
X123089136Y-73656026D01*
X123236353Y-73656026D01*
X123254635Y-73706961D01*
X123284305Y-73752878D01*
X123331002Y-73795287D01*
X123392392Y-73825090D01*
X123471538Y-73844226D01*
X123473028Y-73844464D01*
X123521999Y-73850256D01*
X123580693Y-73854396D01*
X123636734Y-73856004D01*
X123729867Y-73856089D01*
X123729867Y-73415822D01*
X123653667Y-73415808D01*
X123650639Y-73415817D01*
X123599519Y-73417782D01*
X123539416Y-73422507D01*
X123482708Y-73429035D01*
X123432750Y-73438331D01*
X123357998Y-73464600D01*
X123300489Y-73503899D01*
X123258988Y-73556933D01*
X123237771Y-73608200D01*
X123236353Y-73656026D01*
X123089136Y-73656026D01*
X123086400Y-73635956D01*
X123087679Y-73614739D01*
X123099991Y-73557323D01*
X123122520Y-73497413D01*
X123151750Y-73443363D01*
X123184167Y-73403532D01*
X123203708Y-73386510D01*
X123258420Y-73347322D01*
X123318723Y-73317193D01*
X123387919Y-73295232D01*
X123469311Y-73280550D01*
X123566200Y-73272259D01*
X123681889Y-73269467D01*
X123721371Y-73269066D01*
X123767082Y-73268653D01*
X123802883Y-73270457D01*
X123829974Y-73276739D01*
X123849556Y-73289759D01*
X123862830Y-73311778D01*
X123870998Y-73345055D01*
X123875260Y-73391851D01*
X123875857Y-73415822D01*
X123876817Y-73454427D01*
X123876870Y-73535041D01*
G37*
X123876870Y-73535041D02*
X123876622Y-73635956D01*
X123876583Y-73711617D01*
X123876328Y-73789526D01*
X123875684Y-73849536D01*
X123874480Y-73894264D01*
X123872543Y-73926326D01*
X123869703Y-73948340D01*
X123865788Y-73962924D01*
X123860626Y-73972694D01*
X123854045Y-73980267D01*
X123847077Y-73986501D01*
X123834079Y-73993801D01*
X123814931Y-73998554D01*
X123785528Y-74001292D01*
X123741762Y-74002545D01*
X123679528Y-74002845D01*
X123630582Y-74002469D01*
X123523722Y-73998041D01*
X123434494Y-73987953D01*
X123359696Y-73971365D01*
X123296125Y-73947435D01*
X123240579Y-73915321D01*
X123189854Y-73874182D01*
X123183866Y-73868330D01*
X123146999Y-73819821D01*
X123115899Y-73759013D01*
X123094417Y-73694769D01*
X123089136Y-73656026D01*
X123236353Y-73656026D01*
X123254635Y-73706961D01*
X123284305Y-73752878D01*
X123331002Y-73795287D01*
X123392392Y-73825090D01*
X123471538Y-73844226D01*
X123473028Y-73844464D01*
X123521999Y-73850256D01*
X123580693Y-73854396D01*
X123636734Y-73856004D01*
X123729867Y-73856089D01*
X123729867Y-73415822D01*
X123653667Y-73415808D01*
X123650639Y-73415817D01*
X123599519Y-73417782D01*
X123539416Y-73422507D01*
X123482708Y-73429035D01*
X123432750Y-73438331D01*
X123357998Y-73464600D01*
X123300489Y-73503899D01*
X123258988Y-73556933D01*
X123237771Y-73608200D01*
X123236353Y-73656026D01*
X123089136Y-73656026D01*
X123086400Y-73635956D01*
X123087679Y-73614739D01*
X123099991Y-73557323D01*
X123122520Y-73497413D01*
X123151750Y-73443363D01*
X123184167Y-73403532D01*
X123203708Y-73386510D01*
X123258420Y-73347322D01*
X123318723Y-73317193D01*
X123387919Y-73295232D01*
X123469311Y-73280550D01*
X123566200Y-73272259D01*
X123681889Y-73269467D01*
X123721371Y-73269066D01*
X123767082Y-73268653D01*
X123802883Y-73270457D01*
X123829974Y-73276739D01*
X123849556Y-73289759D01*
X123862830Y-73311778D01*
X123870998Y-73345055D01*
X123875260Y-73391851D01*
X123875857Y-73415822D01*
X123876817Y-73454427D01*
X123876870Y-73535041D01*
G36*
X120054562Y-68032850D02*
G01*
X120137313Y-68060053D01*
X120212406Y-68105484D01*
X120284298Y-68171302D01*
X120322846Y-68215567D01*
X120362256Y-68273961D01*
X120387446Y-68334586D01*
X120400861Y-68403865D01*
X120404948Y-68488222D01*
X120404669Y-68534307D01*
X120402460Y-68575450D01*
X120396894Y-68607582D01*
X120386586Y-68638122D01*
X120370148Y-68674489D01*
X120356200Y-68701728D01*
X120297665Y-68787429D01*
X120225619Y-68856617D01*
X120141947Y-68907741D01*
X120048531Y-68939250D01*
X120015434Y-68946225D01*
X119974960Y-68953094D01*
X119941999Y-68954919D01*
X119907698Y-68951947D01*
X119863200Y-68944426D01*
X119811934Y-68932002D01*
X119721434Y-68894112D01*
X119642345Y-68839836D01*
X119576528Y-68771770D01*
X119525840Y-68692511D01*
X119492140Y-68604654D01*
X119477286Y-68510795D01*
X119483136Y-68413530D01*
X119509399Y-68317220D01*
X119554418Y-68228494D01*
X119615373Y-68153419D01*
X119690184Y-68093641D01*
X119776768Y-68050809D01*
X119873043Y-68026571D01*
X119976928Y-68022576D01*
X120054562Y-68032850D01*
G37*
X120054562Y-68032850D02*
X120137313Y-68060053D01*
X120212406Y-68105484D01*
X120284298Y-68171302D01*
X120322846Y-68215567D01*
X120362256Y-68273961D01*
X120387446Y-68334586D01*
X120400861Y-68403865D01*
X120404948Y-68488222D01*
X120404669Y-68534307D01*
X120402460Y-68575450D01*
X120396894Y-68607582D01*
X120386586Y-68638122D01*
X120370148Y-68674489D01*
X120356200Y-68701728D01*
X120297665Y-68787429D01*
X120225619Y-68856617D01*
X120141947Y-68907741D01*
X120048531Y-68939250D01*
X120015434Y-68946225D01*
X119974960Y-68953094D01*
X119941999Y-68954919D01*
X119907698Y-68951947D01*
X119863200Y-68944426D01*
X119811934Y-68932002D01*
X119721434Y-68894112D01*
X119642345Y-68839836D01*
X119576528Y-68771770D01*
X119525840Y-68692511D01*
X119492140Y-68604654D01*
X119477286Y-68510795D01*
X119483136Y-68413530D01*
X119509399Y-68317220D01*
X119554418Y-68228494D01*
X119615373Y-68153419D01*
X119690184Y-68093641D01*
X119776768Y-68050809D01*
X119873043Y-68026571D01*
X119976928Y-68022576D01*
X120054562Y-68032850D01*
G36*
X113785268Y-71320158D02*
G01*
X113776689Y-71471594D01*
X113757833Y-71608283D01*
X113727837Y-71734276D01*
X113685836Y-71853625D01*
X113630969Y-71970381D01*
X113564167Y-72081179D01*
X113473363Y-72194739D01*
X113369708Y-72290211D01*
X113253887Y-72367073D01*
X113126586Y-72424797D01*
X112988489Y-72462858D01*
X112950793Y-72468666D01*
X112871752Y-72474396D01*
X112783629Y-72474583D01*
X112694236Y-72469539D01*
X112611384Y-72459578D01*
X112542887Y-72445012D01*
X112512035Y-72435364D01*
X112434730Y-72405123D01*
X112357679Y-72367617D01*
X112288200Y-72326614D01*
X112233615Y-72285879D01*
X112210916Y-72266505D01*
X112188201Y-72248662D01*
X112176779Y-72241778D01*
X112175537Y-72243424D01*
X112172728Y-72261205D01*
X112170776Y-72294370D01*
X112170045Y-72337733D01*
X112170045Y-72433689D01*
X111311896Y-72433689D01*
X111346161Y-72372974D01*
X111351355Y-72363868D01*
X111359715Y-72349249D01*
X111367288Y-72335173D01*
X111374112Y-72320540D01*
X111380227Y-72304249D01*
X111385673Y-72285198D01*
X111390487Y-72262286D01*
X111394708Y-72234413D01*
X111398377Y-72200478D01*
X111401531Y-72159379D01*
X111404211Y-72110015D01*
X111406454Y-72051286D01*
X111408299Y-71982090D01*
X111409787Y-71901326D01*
X111410955Y-71807894D01*
X111411678Y-71720721D01*
X112215200Y-71720721D01*
X112285756Y-71767089D01*
X112326417Y-71790791D01*
X112380546Y-71816639D01*
X112429689Y-71834829D01*
X112493165Y-71850551D01*
X112589331Y-71861541D01*
X112673900Y-71853365D01*
X112747219Y-71825805D01*
X112809637Y-71778642D01*
X112861502Y-71711658D01*
X112903160Y-71624633D01*
X112934962Y-71517350D01*
X112937545Y-71505009D01*
X112946000Y-71443772D01*
X112951663Y-71366692D01*
X112954576Y-71279002D01*
X112954783Y-71185934D01*
X112952330Y-71092720D01*
X112947261Y-71004594D01*
X112939619Y-70926788D01*
X112929448Y-70864533D01*
X112928167Y-70858666D01*
X112899126Y-70748121D01*
X112864610Y-70657575D01*
X112823456Y-70584953D01*
X112774499Y-70528181D01*
X112716574Y-70485184D01*
X112684620Y-70469615D01*
X112611784Y-70450722D01*
X112530443Y-70447465D01*
X112445319Y-70459389D01*
X112361133Y-70486040D01*
X112282608Y-70526962D01*
X112215200Y-70570530D01*
X112215200Y-71720721D01*
X111411678Y-71720721D01*
X111411844Y-71700692D01*
X111412491Y-71578620D01*
X111412936Y-71440576D01*
X111413218Y-71285459D01*
X111413375Y-71112168D01*
X111413448Y-70919603D01*
X111413474Y-70706662D01*
X111413493Y-70472245D01*
X111413689Y-68787378D01*
X112319017Y-68787378D01*
X112294585Y-68824067D01*
X112288318Y-68833647D01*
X112262208Y-68879981D01*
X112244469Y-68927102D01*
X112232908Y-68982251D01*
X112225331Y-69052667D01*
X112224839Y-69059650D01*
X112223062Y-69097641D01*
X112221444Y-69151576D01*
X112219999Y-69218703D01*
X112218740Y-69296271D01*
X112217680Y-69381528D01*
X112216829Y-69471724D01*
X112216203Y-69564107D01*
X112215812Y-69655925D01*
X112215670Y-69744427D01*
X112215790Y-69826862D01*
X112216183Y-69900479D01*
X112216862Y-69962526D01*
X112217841Y-70010251D01*
X112219132Y-70040904D01*
X112220747Y-70051733D01*
X112228957Y-70047333D01*
X112250647Y-70032362D01*
X112280014Y-70010448D01*
X112328879Y-69976236D01*
X112417125Y-69929714D01*
X112515916Y-69896046D01*
X112628510Y-69874231D01*
X112758164Y-69863265D01*
X112850670Y-69862219D01*
X112972011Y-69872014D01*
X113082099Y-69896174D01*
X113185389Y-69935785D01*
X113286338Y-69991932D01*
X113331503Y-70022883D01*
X113436911Y-70114115D01*
X113528538Y-70223106D01*
X113606332Y-70349726D01*
X113670241Y-70493845D01*
X113720214Y-70655332D01*
X113756198Y-70834059D01*
X113778143Y-71029895D01*
X113783900Y-71185934D01*
X113785994Y-71242711D01*
X113785268Y-71320158D01*
G37*
X113785268Y-71320158D02*
X113776689Y-71471594D01*
X113757833Y-71608283D01*
X113727837Y-71734276D01*
X113685836Y-71853625D01*
X113630969Y-71970381D01*
X113564167Y-72081179D01*
X113473363Y-72194739D01*
X113369708Y-72290211D01*
X113253887Y-72367073D01*
X113126586Y-72424797D01*
X112988489Y-72462858D01*
X112950793Y-72468666D01*
X112871752Y-72474396D01*
X112783629Y-72474583D01*
X112694236Y-72469539D01*
X112611384Y-72459578D01*
X112542887Y-72445012D01*
X112512035Y-72435364D01*
X112434730Y-72405123D01*
X112357679Y-72367617D01*
X112288200Y-72326614D01*
X112233615Y-72285879D01*
X112210916Y-72266505D01*
X112188201Y-72248662D01*
X112176779Y-72241778D01*
X112175537Y-72243424D01*
X112172728Y-72261205D01*
X112170776Y-72294370D01*
X112170045Y-72337733D01*
X112170045Y-72433689D01*
X111311896Y-72433689D01*
X111346161Y-72372974D01*
X111351355Y-72363868D01*
X111359715Y-72349249D01*
X111367288Y-72335173D01*
X111374112Y-72320540D01*
X111380227Y-72304249D01*
X111385673Y-72285198D01*
X111390487Y-72262286D01*
X111394708Y-72234413D01*
X111398377Y-72200478D01*
X111401531Y-72159379D01*
X111404211Y-72110015D01*
X111406454Y-72051286D01*
X111408299Y-71982090D01*
X111409787Y-71901326D01*
X111410955Y-71807894D01*
X111411678Y-71720721D01*
X112215200Y-71720721D01*
X112285756Y-71767089D01*
X112326417Y-71790791D01*
X112380546Y-71816639D01*
X112429689Y-71834829D01*
X112493165Y-71850551D01*
X112589331Y-71861541D01*
X112673900Y-71853365D01*
X112747219Y-71825805D01*
X112809637Y-71778642D01*
X112861502Y-71711658D01*
X112903160Y-71624633D01*
X112934962Y-71517350D01*
X112937545Y-71505009D01*
X112946000Y-71443772D01*
X112951663Y-71366692D01*
X112954576Y-71279002D01*
X112954783Y-71185934D01*
X112952330Y-71092720D01*
X112947261Y-71004594D01*
X112939619Y-70926788D01*
X112929448Y-70864533D01*
X112928167Y-70858666D01*
X112899126Y-70748121D01*
X112864610Y-70657575D01*
X112823456Y-70584953D01*
X112774499Y-70528181D01*
X112716574Y-70485184D01*
X112684620Y-70469615D01*
X112611784Y-70450722D01*
X112530443Y-70447465D01*
X112445319Y-70459389D01*
X112361133Y-70486040D01*
X112282608Y-70526962D01*
X112215200Y-70570530D01*
X112215200Y-71720721D01*
X111411678Y-71720721D01*
X111411844Y-71700692D01*
X111412491Y-71578620D01*
X111412936Y-71440576D01*
X111413218Y-71285459D01*
X111413375Y-71112168D01*
X111413448Y-70919603D01*
X111413474Y-70706662D01*
X111413493Y-70472245D01*
X111413689Y-68787378D01*
X112319017Y-68787378D01*
X112294585Y-68824067D01*
X112288318Y-68833647D01*
X112262208Y-68879981D01*
X112244469Y-68927102D01*
X112232908Y-68982251D01*
X112225331Y-69052667D01*
X112224839Y-69059650D01*
X112223062Y-69097641D01*
X112221444Y-69151576D01*
X112219999Y-69218703D01*
X112218740Y-69296271D01*
X112217680Y-69381528D01*
X112216829Y-69471724D01*
X112216203Y-69564107D01*
X112215812Y-69655925D01*
X112215670Y-69744427D01*
X112215790Y-69826862D01*
X112216183Y-69900479D01*
X112216862Y-69962526D01*
X112217841Y-70010251D01*
X112219132Y-70040904D01*
X112220747Y-70051733D01*
X112228957Y-70047333D01*
X112250647Y-70032362D01*
X112280014Y-70010448D01*
X112328879Y-69976236D01*
X112417125Y-69929714D01*
X112515916Y-69896046D01*
X112628510Y-69874231D01*
X112758164Y-69863265D01*
X112850670Y-69862219D01*
X112972011Y-69872014D01*
X113082099Y-69896174D01*
X113185389Y-69935785D01*
X113286338Y-69991932D01*
X113331503Y-70022883D01*
X113436911Y-70114115D01*
X113528538Y-70223106D01*
X113606332Y-70349726D01*
X113670241Y-70493845D01*
X113720214Y-70655332D01*
X113756198Y-70834059D01*
X113778143Y-71029895D01*
X113783900Y-71185934D01*
X113785994Y-71242711D01*
X113785268Y-71320158D01*
G36*
X116327261Y-71677363D02*
G01*
X116323632Y-71752202D01*
X116316022Y-71814401D01*
X116303688Y-71870984D01*
X116259313Y-71997076D01*
X116196400Y-72111679D01*
X116116238Y-72212568D01*
X116019740Y-72298924D01*
X115907822Y-72369932D01*
X115781397Y-72424776D01*
X115641378Y-72462638D01*
X115605149Y-72468351D01*
X115526155Y-72474313D01*
X115437841Y-72474646D01*
X115348075Y-72469659D01*
X115264722Y-72459666D01*
X115195651Y-72444978D01*
X115109187Y-72414749D01*
X114999286Y-72360057D01*
X114901956Y-72292543D01*
X114839867Y-72241556D01*
X114836605Y-72337622D01*
X114833343Y-72433689D01*
X114410450Y-72433689D01*
X114399543Y-72433686D01*
X114305056Y-72433380D01*
X114218331Y-72432616D01*
X114141837Y-72431451D01*
X114078043Y-72429942D01*
X114029418Y-72428147D01*
X113998433Y-72426121D01*
X113987556Y-72423922D01*
X113987578Y-72423463D01*
X113994614Y-72407910D01*
X114010434Y-72385071D01*
X114014734Y-72379638D01*
X114025777Y-72365606D01*
X114035311Y-72352186D01*
X114043461Y-72337722D01*
X114050352Y-72320556D01*
X114056111Y-72299034D01*
X114060862Y-72271498D01*
X114064731Y-72236292D01*
X114067844Y-72191760D01*
X114070325Y-72136246D01*
X114072300Y-72068093D01*
X114073894Y-71985645D01*
X114075234Y-71887246D01*
X114076444Y-71771239D01*
X114076896Y-71720462D01*
X114879378Y-71720462D01*
X114924048Y-71776973D01*
X114936785Y-71792212D01*
X114983604Y-71834844D01*
X115044255Y-71870672D01*
X115054897Y-71875850D01*
X115093676Y-71892745D01*
X115128692Y-71902909D01*
X115168722Y-71908325D01*
X115222541Y-71910978D01*
X115240648Y-71911383D01*
X115316011Y-71908540D01*
X115376743Y-71896620D01*
X115428452Y-71874037D01*
X115476746Y-71839211D01*
X115481803Y-71834798D01*
X115530272Y-71779160D01*
X115558459Y-71715333D01*
X115567752Y-71640282D01*
X115560520Y-71568693D01*
X115535796Y-71505645D01*
X115491249Y-71447758D01*
X115436319Y-71400808D01*
X115363894Y-71360961D01*
X115277340Y-71333263D01*
X115174670Y-71317096D01*
X115053894Y-71311842D01*
X115045007Y-71311857D01*
X114989660Y-71312655D01*
X114942736Y-71314488D01*
X114908953Y-71317111D01*
X114893028Y-71320274D01*
X114888943Y-71326741D01*
X114884572Y-71348875D01*
X114881604Y-71387988D01*
X114879914Y-71445939D01*
X114879378Y-71524586D01*
X114879378Y-71720462D01*
X114076896Y-71720462D01*
X114077649Y-71635968D01*
X114078975Y-71479778D01*
X114080228Y-71337012D01*
X114081651Y-71191942D01*
X114083176Y-71066027D01*
X114084933Y-70957436D01*
X114087051Y-70864334D01*
X114089660Y-70784891D01*
X114092890Y-70717273D01*
X114096869Y-70659649D01*
X114101728Y-70610185D01*
X114107597Y-70567050D01*
X114114604Y-70528410D01*
X114122880Y-70492434D01*
X114132554Y-70457289D01*
X114143756Y-70421142D01*
X114156616Y-70382161D01*
X114172090Y-70339091D01*
X114214994Y-70246871D01*
X114268735Y-70167099D01*
X114337576Y-70092965D01*
X114415185Y-70029405D01*
X114519761Y-69967725D01*
X114639244Y-69920202D01*
X114774508Y-69886567D01*
X114926426Y-69866552D01*
X115095872Y-69859889D01*
X115153890Y-69860287D01*
X115219398Y-69862335D01*
X115280693Y-69866704D01*
X115342097Y-69874035D01*
X115407932Y-69884969D01*
X115482520Y-69900147D01*
X115570184Y-69920209D01*
X115675245Y-69945797D01*
X115703806Y-69952820D01*
X115779054Y-69970776D01*
X115849388Y-69986820D01*
X115910567Y-70000028D01*
X115958354Y-70009474D01*
X115988511Y-70014231D01*
X116016783Y-70017910D01*
X116043060Y-70023187D01*
X116053059Y-70027942D01*
X116049952Y-70036781D01*
X116039194Y-70064072D01*
X116021864Y-70106906D01*
X115999126Y-70162425D01*
X115972147Y-70227772D01*
X115942090Y-70300089D01*
X115935493Y-70315879D01*
X115896907Y-70406484D01*
X115865768Y-70476217D01*
X115841917Y-70525405D01*
X115825198Y-70554374D01*
X115815454Y-70563452D01*
X115807766Y-70561405D01*
X115781415Y-70551760D01*
X115742982Y-70536190D01*
X115697822Y-70516815D01*
X115603293Y-70478814D01*
X115466480Y-70437780D01*
X115325289Y-70412612D01*
X115287314Y-70408611D01*
X115184059Y-70406447D01*
X115096952Y-70419622D01*
X115025129Y-70448756D01*
X114967731Y-70494466D01*
X114923896Y-70557372D01*
X114892762Y-70638092D01*
X114873470Y-70737245D01*
X114866050Y-70796224D01*
X115027936Y-70789445D01*
X115154495Y-70787813D01*
X115305951Y-70794194D01*
X115454396Y-70808777D01*
X115590578Y-70830882D01*
X115655245Y-70845821D01*
X115787490Y-70888741D01*
X115909762Y-70945340D01*
X116019685Y-71014017D01*
X116114883Y-71093170D01*
X116192980Y-71181196D01*
X116251599Y-71276493D01*
X116275595Y-71328864D01*
X116301232Y-71399590D01*
X116317478Y-71470812D01*
X116325822Y-71549712D01*
X116327690Y-71640282D01*
X116327755Y-71643467D01*
X116327261Y-71677363D01*
G37*
X116327261Y-71677363D02*
X116323632Y-71752202D01*
X116316022Y-71814401D01*
X116303688Y-71870984D01*
X116259313Y-71997076D01*
X116196400Y-72111679D01*
X116116238Y-72212568D01*
X116019740Y-72298924D01*
X115907822Y-72369932D01*
X115781397Y-72424776D01*
X115641378Y-72462638D01*
X115605149Y-72468351D01*
X115526155Y-72474313D01*
X115437841Y-72474646D01*
X115348075Y-72469659D01*
X115264722Y-72459666D01*
X115195651Y-72444978D01*
X115109187Y-72414749D01*
X114999286Y-72360057D01*
X114901956Y-72292543D01*
X114839867Y-72241556D01*
X114836605Y-72337622D01*
X114833343Y-72433689D01*
X114410450Y-72433689D01*
X114399543Y-72433686D01*
X114305056Y-72433380D01*
X114218331Y-72432616D01*
X114141837Y-72431451D01*
X114078043Y-72429942D01*
X114029418Y-72428147D01*
X113998433Y-72426121D01*
X113987556Y-72423922D01*
X113987578Y-72423463D01*
X113994614Y-72407910D01*
X114010434Y-72385071D01*
X114014734Y-72379638D01*
X114025777Y-72365606D01*
X114035311Y-72352186D01*
X114043461Y-72337722D01*
X114050352Y-72320556D01*
X114056111Y-72299034D01*
X114060862Y-72271498D01*
X114064731Y-72236292D01*
X114067844Y-72191760D01*
X114070325Y-72136246D01*
X114072300Y-72068093D01*
X114073894Y-71985645D01*
X114075234Y-71887246D01*
X114076444Y-71771239D01*
X114076896Y-71720462D01*
X114879378Y-71720462D01*
X114924048Y-71776973D01*
X114936785Y-71792212D01*
X114983604Y-71834844D01*
X115044255Y-71870672D01*
X115054897Y-71875850D01*
X115093676Y-71892745D01*
X115128692Y-71902909D01*
X115168722Y-71908325D01*
X115222541Y-71910978D01*
X115240648Y-71911383D01*
X115316011Y-71908540D01*
X115376743Y-71896620D01*
X115428452Y-71874037D01*
X115476746Y-71839211D01*
X115481803Y-71834798D01*
X115530272Y-71779160D01*
X115558459Y-71715333D01*
X115567752Y-71640282D01*
X115560520Y-71568693D01*
X115535796Y-71505645D01*
X115491249Y-71447758D01*
X115436319Y-71400808D01*
X115363894Y-71360961D01*
X115277340Y-71333263D01*
X115174670Y-71317096D01*
X115053894Y-71311842D01*
X115045007Y-71311857D01*
X114989660Y-71312655D01*
X114942736Y-71314488D01*
X114908953Y-71317111D01*
X114893028Y-71320274D01*
X114888943Y-71326741D01*
X114884572Y-71348875D01*
X114881604Y-71387988D01*
X114879914Y-71445939D01*
X114879378Y-71524586D01*
X114879378Y-71720462D01*
X114076896Y-71720462D01*
X114077649Y-71635968D01*
X114078975Y-71479778D01*
X114080228Y-71337012D01*
X114081651Y-71191942D01*
X114083176Y-71066027D01*
X114084933Y-70957436D01*
X114087051Y-70864334D01*
X114089660Y-70784891D01*
X114092890Y-70717273D01*
X114096869Y-70659649D01*
X114101728Y-70610185D01*
X114107597Y-70567050D01*
X114114604Y-70528410D01*
X114122880Y-70492434D01*
X114132554Y-70457289D01*
X114143756Y-70421142D01*
X114156616Y-70382161D01*
X114172090Y-70339091D01*
X114214994Y-70246871D01*
X114268735Y-70167099D01*
X114337576Y-70092965D01*
X114415185Y-70029405D01*
X114519761Y-69967725D01*
X114639244Y-69920202D01*
X114774508Y-69886567D01*
X114926426Y-69866552D01*
X115095872Y-69859889D01*
X115153890Y-69860287D01*
X115219398Y-69862335D01*
X115280693Y-69866704D01*
X115342097Y-69874035D01*
X115407932Y-69884969D01*
X115482520Y-69900147D01*
X115570184Y-69920209D01*
X115675245Y-69945797D01*
X115703806Y-69952820D01*
X115779054Y-69970776D01*
X115849388Y-69986820D01*
X115910567Y-70000028D01*
X115958354Y-70009474D01*
X115988511Y-70014231D01*
X116016783Y-70017910D01*
X116043060Y-70023187D01*
X116053059Y-70027942D01*
X116049952Y-70036781D01*
X116039194Y-70064072D01*
X116021864Y-70106906D01*
X115999126Y-70162425D01*
X115972147Y-70227772D01*
X115942090Y-70300089D01*
X115935493Y-70315879D01*
X115896907Y-70406484D01*
X115865768Y-70476217D01*
X115841917Y-70525405D01*
X115825198Y-70554374D01*
X115815454Y-70563452D01*
X115807766Y-70561405D01*
X115781415Y-70551760D01*
X115742982Y-70536190D01*
X115697822Y-70516815D01*
X115603293Y-70478814D01*
X115466480Y-70437780D01*
X115325289Y-70412612D01*
X115287314Y-70408611D01*
X115184059Y-70406447D01*
X115096952Y-70419622D01*
X115025129Y-70448756D01*
X114967731Y-70494466D01*
X114923896Y-70557372D01*
X114892762Y-70638092D01*
X114873470Y-70737245D01*
X114866050Y-70796224D01*
X115027936Y-70789445D01*
X115154495Y-70787813D01*
X115305951Y-70794194D01*
X115454396Y-70808777D01*
X115590578Y-70830882D01*
X115655245Y-70845821D01*
X115787490Y-70888741D01*
X115909762Y-70945340D01*
X116019685Y-71014017D01*
X116114883Y-71093170D01*
X116192980Y-71181196D01*
X116251599Y-71276493D01*
X116275595Y-71328864D01*
X116301232Y-71399590D01*
X116317478Y-71470812D01*
X116325822Y-71549712D01*
X116327690Y-71640282D01*
X116327755Y-71643467D01*
X116327261Y-71677363D01*
G36*
X117588711Y-68962033D02*
G01*
X117684268Y-68979523D01*
X117848558Y-69024564D01*
X118002589Y-69087656D01*
X118148509Y-69169915D01*
X118288466Y-69272457D01*
X118424608Y-69396399D01*
X118468473Y-69441661D01*
X118580758Y-69573865D01*
X118673972Y-69711832D01*
X118750719Y-69859750D01*
X118813603Y-70021803D01*
X118817420Y-70033391D01*
X118867507Y-70219392D01*
X118900899Y-70415521D01*
X118917584Y-70617568D01*
X118917551Y-70821325D01*
X118900791Y-71022581D01*
X118867292Y-71217128D01*
X118817044Y-71400756D01*
X118773190Y-71518053D01*
X118695348Y-71680951D01*
X118601828Y-71834866D01*
X118494822Y-71976671D01*
X118376519Y-72103239D01*
X118249111Y-72211441D01*
X118171606Y-72264120D01*
X118044725Y-72333750D01*
X117907243Y-72392468D01*
X117765716Y-72437587D01*
X117626702Y-72466422D01*
X117612597Y-72468106D01*
X117569153Y-72471434D01*
X117511723Y-72474275D01*
X117446122Y-72476373D01*
X117378167Y-72477468D01*
X117251378Y-72475140D01*
X117103673Y-72462136D01*
X116965779Y-72437133D01*
X116832014Y-72399318D01*
X116808562Y-72390889D01*
X116760612Y-72371408D01*
X116704140Y-72346473D01*
X116642379Y-72317722D01*
X116578563Y-72286790D01*
X116515926Y-72255315D01*
X116457703Y-72224934D01*
X116407127Y-72197283D01*
X116367433Y-72173999D01*
X116341854Y-72156718D01*
X116333625Y-72147079D01*
X116335076Y-72143984D01*
X116346250Y-72124079D01*
X116367134Y-72088420D01*
X116396265Y-72039459D01*
X116432181Y-71979646D01*
X116473420Y-71911433D01*
X116518517Y-71837271D01*
X116699785Y-71540008D01*
X116746315Y-71584539D01*
X116837723Y-71662865D01*
X116951334Y-71737439D01*
X117069122Y-71791474D01*
X117189559Y-71824290D01*
X117311117Y-71835211D01*
X117352585Y-71833868D01*
X117470080Y-71815612D01*
X117580089Y-71776617D01*
X117681430Y-71717670D01*
X117772921Y-71639557D01*
X117853380Y-71543064D01*
X117921627Y-71428978D01*
X117937908Y-71394724D01*
X117983982Y-71271240D01*
X118019106Y-71132918D01*
X118043197Y-70983561D01*
X118056173Y-70826973D01*
X118057949Y-70666956D01*
X118048443Y-70507314D01*
X118027572Y-70351850D01*
X117995252Y-70204366D01*
X117951399Y-70068667D01*
X117913982Y-69982076D01*
X117849185Y-69868688D01*
X117773772Y-69775070D01*
X117687418Y-69700959D01*
X117589795Y-69646094D01*
X117480577Y-69610212D01*
X117359439Y-69593051D01*
X117290038Y-69591880D01*
X117167168Y-69606141D01*
X117051664Y-69641241D01*
X116944953Y-69696682D01*
X116848464Y-69771964D01*
X116832720Y-69786440D01*
X116802150Y-69812962D01*
X116779809Y-69830138D01*
X116769691Y-69834787D01*
X116767706Y-69832597D01*
X116753241Y-69813721D01*
X116729400Y-69780397D01*
X116698029Y-69735380D01*
X116660974Y-69681425D01*
X116620083Y-69621285D01*
X116577202Y-69557718D01*
X116534178Y-69493476D01*
X116492857Y-69431315D01*
X116455086Y-69373991D01*
X116422712Y-69324257D01*
X116397582Y-69284868D01*
X116381542Y-69258580D01*
X116376439Y-69248147D01*
X116381050Y-69243941D01*
X116400267Y-69238933D01*
X116409838Y-69236386D01*
X116437809Y-69225249D01*
X116479448Y-69206802D01*
X116530995Y-69182725D01*
X116588690Y-69154699D01*
X116599957Y-69149154D01*
X116777687Y-69069889D01*
X116947490Y-69010385D01*
X117111430Y-68970245D01*
X117271571Y-68949071D01*
X117429977Y-68946466D01*
X117588711Y-68962033D01*
G37*
X117588711Y-68962033D02*
X117684268Y-68979523D01*
X117848558Y-69024564D01*
X118002589Y-69087656D01*
X118148509Y-69169915D01*
X118288466Y-69272457D01*
X118424608Y-69396399D01*
X118468473Y-69441661D01*
X118580758Y-69573865D01*
X118673972Y-69711832D01*
X118750719Y-69859750D01*
X118813603Y-70021803D01*
X118817420Y-70033391D01*
X118867507Y-70219392D01*
X118900899Y-70415521D01*
X118917584Y-70617568D01*
X118917551Y-70821325D01*
X118900791Y-71022581D01*
X118867292Y-71217128D01*
X118817044Y-71400756D01*
X118773190Y-71518053D01*
X118695348Y-71680951D01*
X118601828Y-71834866D01*
X118494822Y-71976671D01*
X118376519Y-72103239D01*
X118249111Y-72211441D01*
X118171606Y-72264120D01*
X118044725Y-72333750D01*
X117907243Y-72392468D01*
X117765716Y-72437587D01*
X117626702Y-72466422D01*
X117612597Y-72468106D01*
X117569153Y-72471434D01*
X117511723Y-72474275D01*
X117446122Y-72476373D01*
X117378167Y-72477468D01*
X117251378Y-72475140D01*
X117103673Y-72462136D01*
X116965779Y-72437133D01*
X116832014Y-72399318D01*
X116808562Y-72390889D01*
X116760612Y-72371408D01*
X116704140Y-72346473D01*
X116642379Y-72317722D01*
X116578563Y-72286790D01*
X116515926Y-72255315D01*
X116457703Y-72224934D01*
X116407127Y-72197283D01*
X116367433Y-72173999D01*
X116341854Y-72156718D01*
X116333625Y-72147079D01*
X116335076Y-72143984D01*
X116346250Y-72124079D01*
X116367134Y-72088420D01*
X116396265Y-72039459D01*
X116432181Y-71979646D01*
X116473420Y-71911433D01*
X116518517Y-71837271D01*
X116699785Y-71540008D01*
X116746315Y-71584539D01*
X116837723Y-71662865D01*
X116951334Y-71737439D01*
X117069122Y-71791474D01*
X117189559Y-71824290D01*
X117311117Y-71835211D01*
X117352585Y-71833868D01*
X117470080Y-71815612D01*
X117580089Y-71776617D01*
X117681430Y-71717670D01*
X117772921Y-71639557D01*
X117853380Y-71543064D01*
X117921627Y-71428978D01*
X117937908Y-71394724D01*
X117983982Y-71271240D01*
X118019106Y-71132918D01*
X118043197Y-70983561D01*
X118056173Y-70826973D01*
X118057949Y-70666956D01*
X118048443Y-70507314D01*
X118027572Y-70351850D01*
X117995252Y-70204366D01*
X117951399Y-70068667D01*
X117913982Y-69982076D01*
X117849185Y-69868688D01*
X117773772Y-69775070D01*
X117687418Y-69700959D01*
X117589795Y-69646094D01*
X117480577Y-69610212D01*
X117359439Y-69593051D01*
X117290038Y-69591880D01*
X117167168Y-69606141D01*
X117051664Y-69641241D01*
X116944953Y-69696682D01*
X116848464Y-69771964D01*
X116832720Y-69786440D01*
X116802150Y-69812962D01*
X116779809Y-69830138D01*
X116769691Y-69834787D01*
X116767706Y-69832597D01*
X116753241Y-69813721D01*
X116729400Y-69780397D01*
X116698029Y-69735380D01*
X116660974Y-69681425D01*
X116620083Y-69621285D01*
X116577202Y-69557718D01*
X116534178Y-69493476D01*
X116492857Y-69431315D01*
X116455086Y-69373991D01*
X116422712Y-69324257D01*
X116397582Y-69284868D01*
X116381542Y-69258580D01*
X116376439Y-69248147D01*
X116381050Y-69243941D01*
X116400267Y-69238933D01*
X116409838Y-69236386D01*
X116437809Y-69225249D01*
X116479448Y-69206802D01*
X116530995Y-69182725D01*
X116588690Y-69154699D01*
X116599957Y-69149154D01*
X116777687Y-69069889D01*
X116947490Y-69010385D01*
X117111430Y-68970245D01*
X117271571Y-68949071D01*
X117429977Y-68946466D01*
X117588711Y-68962033D01*
G36*
X123876059Y-69243011D02*
G01*
X123876362Y-69390216D01*
X123876548Y-69554349D01*
X123876642Y-69736352D01*
X123876671Y-69937165D01*
X123876661Y-70157732D01*
X123876636Y-70398992D01*
X123876622Y-70661889D01*
X123876622Y-70704040D01*
X123876646Y-70964668D01*
X123876685Y-71203796D01*
X123876708Y-71422360D01*
X123876687Y-71621295D01*
X123876593Y-71801535D01*
X123876395Y-71964015D01*
X123876063Y-72109670D01*
X123875569Y-72239434D01*
X123874883Y-72354243D01*
X123873976Y-72455030D01*
X123872817Y-72542730D01*
X123871378Y-72618279D01*
X123869629Y-72682611D01*
X123867540Y-72736661D01*
X123865083Y-72781363D01*
X123862227Y-72817652D01*
X123858943Y-72846463D01*
X123855202Y-72868731D01*
X123850974Y-72885390D01*
X123846229Y-72897375D01*
X123840939Y-72905621D01*
X123835073Y-72911062D01*
X123828602Y-72914634D01*
X123821497Y-72917270D01*
X123813728Y-72919906D01*
X123805266Y-72923477D01*
X123800908Y-72925145D01*
X123792395Y-72927111D01*
X123779694Y-72928911D01*
X123761885Y-72930555D01*
X123738049Y-72932047D01*
X123707266Y-72933397D01*
X123668617Y-72934611D01*
X123621182Y-72935697D01*
X123564043Y-72936661D01*
X123496279Y-72937511D01*
X123416971Y-72938253D01*
X123325199Y-72938897D01*
X123220044Y-72939447D01*
X123100587Y-72939913D01*
X122965908Y-72940300D01*
X122815088Y-72940616D01*
X122647206Y-72940869D01*
X122461345Y-72941066D01*
X122256583Y-72941213D01*
X122032002Y-72941318D01*
X121786682Y-72941389D01*
X121519704Y-72941432D01*
X121481321Y-72941437D01*
X121215922Y-72941480D01*
X120972050Y-72941525D01*
X120748783Y-72941548D01*
X120545196Y-72941524D01*
X120360367Y-72941430D01*
X120193373Y-72941243D01*
X120043290Y-72940939D01*
X119909196Y-72940494D01*
X119790166Y-72939885D01*
X119685279Y-72939089D01*
X119593610Y-72938080D01*
X119514237Y-72936837D01*
X119446237Y-72935335D01*
X119388686Y-72933551D01*
X119340662Y-72931461D01*
X119301240Y-72929042D01*
X119269499Y-72926270D01*
X119244514Y-72923121D01*
X119225364Y-72919572D01*
X119211123Y-72915598D01*
X119200871Y-72911178D01*
X119193682Y-72906286D01*
X119188635Y-72900900D01*
X119184805Y-72894996D01*
X119181271Y-72888549D01*
X119177108Y-72881537D01*
X119176025Y-72879687D01*
X119173813Y-72874180D01*
X119171786Y-72865868D01*
X119169938Y-72853809D01*
X119168261Y-72837063D01*
X119166745Y-72814687D01*
X119165383Y-72785740D01*
X119164167Y-72749280D01*
X119163089Y-72704367D01*
X119162140Y-72650057D01*
X119161312Y-72585410D01*
X119160597Y-72509484D01*
X119159987Y-72421338D01*
X119159942Y-72412493D01*
X119451378Y-72412493D01*
X119455260Y-72413765D01*
X119478520Y-72415791D01*
X119520874Y-72417626D01*
X119580132Y-72419227D01*
X119654107Y-72420549D01*
X119740610Y-72421548D01*
X119837452Y-72422180D01*
X119942445Y-72422400D01*
X120640651Y-72422400D01*
X121795090Y-72422400D01*
X121794456Y-72346200D01*
X121795574Y-72304160D01*
X121801304Y-72268334D01*
X121813890Y-72230772D01*
X121835568Y-72182577D01*
X121838789Y-72175897D01*
X121864188Y-72126359D01*
X121890996Y-72078369D01*
X121913917Y-72041466D01*
X121918485Y-72034834D01*
X121940516Y-72003593D01*
X121972693Y-71958654D01*
X122013457Y-71902147D01*
X122061245Y-71836204D01*
X122114498Y-71762957D01*
X122171655Y-71684536D01*
X122231155Y-71603072D01*
X122291437Y-71520698D01*
X122350940Y-71439544D01*
X122408105Y-71361742D01*
X122461370Y-71289423D01*
X122509174Y-71224718D01*
X122549957Y-71169759D01*
X122582158Y-71126676D01*
X122604216Y-71097602D01*
X122614571Y-71084667D01*
X122619044Y-71080351D01*
X122623236Y-71078312D01*
X122626643Y-71080926D01*
X122629325Y-71089986D01*
X122631341Y-71107285D01*
X122632748Y-71134614D01*
X122633605Y-71173765D01*
X122633970Y-71226533D01*
X122633903Y-71294707D01*
X122633460Y-71380082D01*
X122632702Y-71484449D01*
X122631685Y-71609600D01*
X122631308Y-71654300D01*
X122630169Y-71775395D01*
X122628972Y-71876688D01*
X122627636Y-71960262D01*
X122626077Y-72028204D01*
X122624215Y-72082599D01*
X122621966Y-72125532D01*
X122619248Y-72159089D01*
X122615979Y-72185355D01*
X122612078Y-72206416D01*
X122607461Y-72224357D01*
X122599192Y-72250770D01*
X122575583Y-72312772D01*
X122549685Y-72365573D01*
X122524535Y-72402645D01*
X122523339Y-72404075D01*
X122521168Y-72408424D01*
X122523328Y-72412026D01*
X122531644Y-72414951D01*
X122547940Y-72417269D01*
X122574041Y-72419051D01*
X122611771Y-72420367D01*
X122662956Y-72421286D01*
X122729420Y-72421878D01*
X122812987Y-72422215D01*
X122915483Y-72422365D01*
X123038732Y-72422400D01*
X123570296Y-72422400D01*
X123531523Y-72364783D01*
X123525432Y-72355893D01*
X123514976Y-72341069D01*
X123505579Y-72327422D01*
X123497183Y-72313765D01*
X123489733Y-72298911D01*
X123483173Y-72281670D01*
X123477446Y-72260855D01*
X123472495Y-72235280D01*
X123468266Y-72203755D01*
X123464701Y-72165093D01*
X123461744Y-72118107D01*
X123459340Y-72061608D01*
X123457431Y-71994409D01*
X123455962Y-71915322D01*
X123454876Y-71823160D01*
X123454118Y-71716734D01*
X123453630Y-71594857D01*
X123453358Y-71456341D01*
X123453243Y-71299999D01*
X123453231Y-71124642D01*
X123453265Y-70929082D01*
X123453289Y-70712133D01*
X123453280Y-70589513D01*
X123453243Y-70384447D01*
X123453227Y-70200116D01*
X123453288Y-70035334D01*
X123453484Y-69888916D01*
X123453870Y-69759674D01*
X123454505Y-69646422D01*
X123455444Y-69547975D01*
X123456745Y-69463144D01*
X123458464Y-69390744D01*
X123460659Y-69329589D01*
X123463385Y-69278492D01*
X123466701Y-69236267D01*
X123470662Y-69201727D01*
X123475325Y-69173686D01*
X123480747Y-69150958D01*
X123486986Y-69132356D01*
X123494097Y-69116693D01*
X123502138Y-69102784D01*
X123511166Y-69089441D01*
X123521236Y-69075479D01*
X123532407Y-69059711D01*
X123572197Y-69001867D01*
X122512314Y-69001867D01*
X122550311Y-69064966D01*
X122564993Y-69090005D01*
X122579531Y-69117586D01*
X122591627Y-69145700D01*
X122601532Y-69176551D01*
X122609494Y-69212344D01*
X122615761Y-69255283D01*
X122620582Y-69307574D01*
X122624206Y-69371419D01*
X122626881Y-69449025D01*
X122628857Y-69542594D01*
X122630382Y-69654333D01*
X122631704Y-69786445D01*
X122632613Y-69906434D01*
X122633020Y-70023063D01*
X122632767Y-70118531D01*
X122631857Y-70192556D01*
X122630293Y-70244855D01*
X122628079Y-70275149D01*
X122625220Y-70283156D01*
X122622161Y-70279858D01*
X122604006Y-70258408D01*
X122574275Y-70221889D01*
X122534639Y-70172442D01*
X122486771Y-70112207D01*
X122432343Y-70043327D01*
X122373027Y-69967943D01*
X122310495Y-69888196D01*
X122246421Y-69806228D01*
X122182475Y-69724180D01*
X122120331Y-69644194D01*
X122061661Y-69568411D01*
X122008137Y-69498973D01*
X121961430Y-69438021D01*
X121923214Y-69387696D01*
X121895161Y-69350140D01*
X121878943Y-69327495D01*
X121833635Y-69255212D01*
X121793661Y-69175463D01*
X121772130Y-69107188D01*
X121768827Y-69049844D01*
X121774116Y-69001867D01*
X120642356Y-69002117D01*
X120681867Y-69032722D01*
X120691248Y-69040089D01*
X120754183Y-69094438D01*
X120822997Y-69162259D01*
X120899596Y-69245516D01*
X120985888Y-69346178D01*
X121003052Y-69366847D01*
X121043833Y-69416409D01*
X121093588Y-69477326D01*
X121150955Y-69547898D01*
X121214569Y-69626424D01*
X121283069Y-69711204D01*
X121355090Y-69800537D01*
X121429270Y-69892722D01*
X121444517Y-69911702D01*
X121504246Y-69986060D01*
X121578653Y-70078848D01*
X121651131Y-70169388D01*
X121720314Y-70255978D01*
X121784841Y-70336918D01*
X121843347Y-70410506D01*
X121894470Y-70475044D01*
X121936847Y-70528829D01*
X121969115Y-70570162D01*
X121989910Y-70597342D01*
X121997869Y-70608668D01*
X121996111Y-70612771D01*
X121983230Y-70633334D01*
X121958885Y-70669561D01*
X121924247Y-70719824D01*
X121880486Y-70782492D01*
X121828775Y-70855936D01*
X121770284Y-70938527D01*
X121706184Y-71028636D01*
X121637646Y-71124631D01*
X121565843Y-71224885D01*
X121491944Y-71327768D01*
X121417121Y-71431650D01*
X121342545Y-71534901D01*
X121269387Y-71635892D01*
X121198819Y-71732994D01*
X121132011Y-71824577D01*
X121070135Y-71909011D01*
X121014361Y-71984667D01*
X120965862Y-72049916D01*
X120925807Y-72103128D01*
X120895369Y-72142673D01*
X120874944Y-72168026D01*
X120828899Y-72222295D01*
X120778612Y-72278775D01*
X120731815Y-72328669D01*
X120640651Y-72422400D01*
X119942445Y-72422400D01*
X120011356Y-72422349D01*
X120109607Y-72422091D01*
X120199030Y-72421637D01*
X120277333Y-72421010D01*
X120342223Y-72420235D01*
X120391411Y-72419335D01*
X120422604Y-72418334D01*
X120433511Y-72417257D01*
X120432322Y-72414037D01*
X120422176Y-72396452D01*
X120405040Y-72370158D01*
X120396540Y-72357691D01*
X120387329Y-72343622D01*
X120379233Y-72329351D01*
X120372185Y-72313479D01*
X120366117Y-72294609D01*
X120360961Y-72271341D01*
X120356651Y-72242278D01*
X120353119Y-72206021D01*
X120350297Y-72161170D01*
X120348118Y-72106328D01*
X120346514Y-72040097D01*
X120345419Y-71961077D01*
X120344765Y-71867871D01*
X120344484Y-71759079D01*
X120344509Y-71633303D01*
X120344772Y-71489145D01*
X120345206Y-71325207D01*
X120345745Y-71140089D01*
X120346279Y-70961232D01*
X120346805Y-70802374D01*
X120347350Y-70663316D01*
X120347945Y-70542665D01*
X120348619Y-70439028D01*
X120349403Y-70351011D01*
X120350326Y-70277223D01*
X120351419Y-70216269D01*
X120352712Y-70166757D01*
X120354235Y-70127293D01*
X120356019Y-70096484D01*
X120358092Y-70072938D01*
X120360486Y-70055260D01*
X120363230Y-70042059D01*
X120366356Y-70031940D01*
X120369892Y-70023511D01*
X120373791Y-70015375D01*
X120393438Y-69978544D01*
X120412225Y-69948391D01*
X120413272Y-69946908D01*
X120427602Y-69924659D01*
X120433511Y-69911702D01*
X120432504Y-69911249D01*
X120415305Y-69909803D01*
X120378656Y-69908480D01*
X120324962Y-69907316D01*
X120256630Y-69906347D01*
X120176064Y-69905611D01*
X120085670Y-69905142D01*
X119987853Y-69904978D01*
X119542195Y-69904978D01*
X119539120Y-71081845D01*
X119536045Y-72258711D01*
X119509407Y-72317622D01*
X119497485Y-72342183D01*
X119480246Y-72372434D01*
X119467074Y-72389560D01*
X119459076Y-72397591D01*
X119451378Y-72412493D01*
X119159942Y-72412493D01*
X119159474Y-72320029D01*
X119159050Y-72204617D01*
X119158706Y-72074160D01*
X119158434Y-71927716D01*
X119158227Y-71764344D01*
X119158076Y-71583101D01*
X119157972Y-71383048D01*
X119157908Y-71163241D01*
X119157876Y-70922739D01*
X119157867Y-70660602D01*
X119157867Y-68469031D01*
X119196249Y-68430649D01*
X119223355Y-68406911D01*
X119250253Y-68395111D01*
X119286560Y-68392267D01*
X119338489Y-68392267D01*
X119338489Y-68480206D01*
X119340427Y-68530102D01*
X119359199Y-68640523D01*
X119396217Y-68741987D01*
X119449369Y-68833152D01*
X119516546Y-68912673D01*
X119595638Y-68979205D01*
X119684534Y-69031406D01*
X119781125Y-69067930D01*
X119883300Y-69087434D01*
X119988950Y-69088573D01*
X120095964Y-69070005D01*
X120202232Y-69030384D01*
X120299219Y-68972516D01*
X120384293Y-68897684D01*
X120453015Y-68809615D01*
X120503918Y-68710616D01*
X120535535Y-68602993D01*
X120546400Y-68489054D01*
X120546400Y-68392267D01*
X122166753Y-68392267D01*
X122377897Y-68392280D01*
X122582020Y-68392330D01*
X122765686Y-68392430D01*
X122929991Y-68392592D01*
X123076029Y-68392829D01*
X123204894Y-68393153D01*
X123317683Y-68393575D01*
X123415488Y-68394109D01*
X123499404Y-68394767D01*
X123570527Y-68395561D01*
X123629950Y-68396504D01*
X123678768Y-68397608D01*
X123718077Y-68398884D01*
X123748969Y-68400347D01*
X123772541Y-68402007D01*
X123789886Y-68403878D01*
X123802099Y-68405972D01*
X123810275Y-68408300D01*
X123815508Y-68410876D01*
X123821504Y-68414445D01*
X123828279Y-68417978D01*
X123834478Y-68421488D01*
X123840126Y-68425918D01*
X123845247Y-68432208D01*
X123849869Y-68441301D01*
X123854015Y-68454139D01*
X123857713Y-68471662D01*
X123860987Y-68494813D01*
X123863863Y-68524534D01*
X123866367Y-68561765D01*
X123868524Y-68607449D01*
X123870360Y-68662527D01*
X123871900Y-68727941D01*
X123873170Y-68804633D01*
X123874195Y-68893544D01*
X123875001Y-68995617D01*
X123875034Y-69001867D01*
X123875614Y-69111792D01*
X123876059Y-69243011D01*
G37*
X123876059Y-69243011D02*
X123876362Y-69390216D01*
X123876548Y-69554349D01*
X123876642Y-69736352D01*
X123876671Y-69937165D01*
X123876661Y-70157732D01*
X123876636Y-70398992D01*
X123876622Y-70661889D01*
X123876622Y-70704040D01*
X123876646Y-70964668D01*
X123876685Y-71203796D01*
X123876708Y-71422360D01*
X123876687Y-71621295D01*
X123876593Y-71801535D01*
X123876395Y-71964015D01*
X123876063Y-72109670D01*
X123875569Y-72239434D01*
X123874883Y-72354243D01*
X123873976Y-72455030D01*
X123872817Y-72542730D01*
X123871378Y-72618279D01*
X123869629Y-72682611D01*
X123867540Y-72736661D01*
X123865083Y-72781363D01*
X123862227Y-72817652D01*
X123858943Y-72846463D01*
X123855202Y-72868731D01*
X123850974Y-72885390D01*
X123846229Y-72897375D01*
X123840939Y-72905621D01*
X123835073Y-72911062D01*
X123828602Y-72914634D01*
X123821497Y-72917270D01*
X123813728Y-72919906D01*
X123805266Y-72923477D01*
X123800908Y-72925145D01*
X123792395Y-72927111D01*
X123779694Y-72928911D01*
X123761885Y-72930555D01*
X123738049Y-72932047D01*
X123707266Y-72933397D01*
X123668617Y-72934611D01*
X123621182Y-72935697D01*
X123564043Y-72936661D01*
X123496279Y-72937511D01*
X123416971Y-72938253D01*
X123325199Y-72938897D01*
X123220044Y-72939447D01*
X123100587Y-72939913D01*
X122965908Y-72940300D01*
X122815088Y-72940616D01*
X122647206Y-72940869D01*
X122461345Y-72941066D01*
X122256583Y-72941213D01*
X122032002Y-72941318D01*
X121786682Y-72941389D01*
X121519704Y-72941432D01*
X121481321Y-72941437D01*
X121215922Y-72941480D01*
X120972050Y-72941525D01*
X120748783Y-72941548D01*
X120545196Y-72941524D01*
X120360367Y-72941430D01*
X120193373Y-72941243D01*
X120043290Y-72940939D01*
X119909196Y-72940494D01*
X119790166Y-72939885D01*
X119685279Y-72939089D01*
X119593610Y-72938080D01*
X119514237Y-72936837D01*
X119446237Y-72935335D01*
X119388686Y-72933551D01*
X119340662Y-72931461D01*
X119301240Y-72929042D01*
X119269499Y-72926270D01*
X119244514Y-72923121D01*
X119225364Y-72919572D01*
X119211123Y-72915598D01*
X119200871Y-72911178D01*
X119193682Y-72906286D01*
X119188635Y-72900900D01*
X119184805Y-72894996D01*
X119181271Y-72888549D01*
X119177108Y-72881537D01*
X119176025Y-72879687D01*
X119173813Y-72874180D01*
X119171786Y-72865868D01*
X119169938Y-72853809D01*
X119168261Y-72837063D01*
X119166745Y-72814687D01*
X119165383Y-72785740D01*
X119164167Y-72749280D01*
X119163089Y-72704367D01*
X119162140Y-72650057D01*
X119161312Y-72585410D01*
X119160597Y-72509484D01*
X119159987Y-72421338D01*
X119159942Y-72412493D01*
X119451378Y-72412493D01*
X119455260Y-72413765D01*
X119478520Y-72415791D01*
X119520874Y-72417626D01*
X119580132Y-72419227D01*
X119654107Y-72420549D01*
X119740610Y-72421548D01*
X119837452Y-72422180D01*
X119942445Y-72422400D01*
X120640651Y-72422400D01*
X121795090Y-72422400D01*
X121794456Y-72346200D01*
X121795574Y-72304160D01*
X121801304Y-72268334D01*
X121813890Y-72230772D01*
X121835568Y-72182577D01*
X121838789Y-72175897D01*
X121864188Y-72126359D01*
X121890996Y-72078369D01*
X121913917Y-72041466D01*
X121918485Y-72034834D01*
X121940516Y-72003593D01*
X121972693Y-71958654D01*
X122013457Y-71902147D01*
X122061245Y-71836204D01*
X122114498Y-71762957D01*
X122171655Y-71684536D01*
X122231155Y-71603072D01*
X122291437Y-71520698D01*
X122350940Y-71439544D01*
X122408105Y-71361742D01*
X122461370Y-71289423D01*
X122509174Y-71224718D01*
X122549957Y-71169759D01*
X122582158Y-71126676D01*
X122604216Y-71097602D01*
X122614571Y-71084667D01*
X122619044Y-71080351D01*
X122623236Y-71078312D01*
X122626643Y-71080926D01*
X122629325Y-71089986D01*
X122631341Y-71107285D01*
X122632748Y-71134614D01*
X122633605Y-71173765D01*
X122633970Y-71226533D01*
X122633903Y-71294707D01*
X122633460Y-71380082D01*
X122632702Y-71484449D01*
X122631685Y-71609600D01*
X122631308Y-71654300D01*
X122630169Y-71775395D01*
X122628972Y-71876688D01*
X122627636Y-71960262D01*
X122626077Y-72028204D01*
X122624215Y-72082599D01*
X122621966Y-72125532D01*
X122619248Y-72159089D01*
X122615979Y-72185355D01*
X122612078Y-72206416D01*
X122607461Y-72224357D01*
X122599192Y-72250770D01*
X122575583Y-72312772D01*
X122549685Y-72365573D01*
X122524535Y-72402645D01*
X122523339Y-72404075D01*
X122521168Y-72408424D01*
X122523328Y-72412026D01*
X122531644Y-72414951D01*
X122547940Y-72417269D01*
X122574041Y-72419051D01*
X122611771Y-72420367D01*
X122662956Y-72421286D01*
X122729420Y-72421878D01*
X122812987Y-72422215D01*
X122915483Y-72422365D01*
X123038732Y-72422400D01*
X123570296Y-72422400D01*
X123531523Y-72364783D01*
X123525432Y-72355893D01*
X123514976Y-72341069D01*
X123505579Y-72327422D01*
X123497183Y-72313765D01*
X123489733Y-72298911D01*
X123483173Y-72281670D01*
X123477446Y-72260855D01*
X123472495Y-72235280D01*
X123468266Y-72203755D01*
X123464701Y-72165093D01*
X123461744Y-72118107D01*
X123459340Y-72061608D01*
X123457431Y-71994409D01*
X123455962Y-71915322D01*
X123454876Y-71823160D01*
X123454118Y-71716734D01*
X123453630Y-71594857D01*
X123453358Y-71456341D01*
X123453243Y-71299999D01*
X123453231Y-71124642D01*
X123453265Y-70929082D01*
X123453289Y-70712133D01*
X123453280Y-70589513D01*
X123453243Y-70384447D01*
X123453227Y-70200116D01*
X123453288Y-70035334D01*
X123453484Y-69888916D01*
X123453870Y-69759674D01*
X123454505Y-69646422D01*
X123455444Y-69547975D01*
X123456745Y-69463144D01*
X123458464Y-69390744D01*
X123460659Y-69329589D01*
X123463385Y-69278492D01*
X123466701Y-69236267D01*
X123470662Y-69201727D01*
X123475325Y-69173686D01*
X123480747Y-69150958D01*
X123486986Y-69132356D01*
X123494097Y-69116693D01*
X123502138Y-69102784D01*
X123511166Y-69089441D01*
X123521236Y-69075479D01*
X123532407Y-69059711D01*
X123572197Y-69001867D01*
X122512314Y-69001867D01*
X122550311Y-69064966D01*
X122564993Y-69090005D01*
X122579531Y-69117586D01*
X122591627Y-69145700D01*
X122601532Y-69176551D01*
X122609494Y-69212344D01*
X122615761Y-69255283D01*
X122620582Y-69307574D01*
X122624206Y-69371419D01*
X122626881Y-69449025D01*
X122628857Y-69542594D01*
X122630382Y-69654333D01*
X122631704Y-69786445D01*
X122632613Y-69906434D01*
X122633020Y-70023063D01*
X122632767Y-70118531D01*
X122631857Y-70192556D01*
X122630293Y-70244855D01*
X122628079Y-70275149D01*
X122625220Y-70283156D01*
X122622161Y-70279858D01*
X122604006Y-70258408D01*
X122574275Y-70221889D01*
X122534639Y-70172442D01*
X122486771Y-70112207D01*
X122432343Y-70043327D01*
X122373027Y-69967943D01*
X122310495Y-69888196D01*
X122246421Y-69806228D01*
X122182475Y-69724180D01*
X122120331Y-69644194D01*
X122061661Y-69568411D01*
X122008137Y-69498973D01*
X121961430Y-69438021D01*
X121923214Y-69387696D01*
X121895161Y-69350140D01*
X121878943Y-69327495D01*
X121833635Y-69255212D01*
X121793661Y-69175463D01*
X121772130Y-69107188D01*
X121768827Y-69049844D01*
X121774116Y-69001867D01*
X120642356Y-69002117D01*
X120681867Y-69032722D01*
X120691248Y-69040089D01*
X120754183Y-69094438D01*
X120822997Y-69162259D01*
X120899596Y-69245516D01*
X120985888Y-69346178D01*
X121003052Y-69366847D01*
X121043833Y-69416409D01*
X121093588Y-69477326D01*
X121150955Y-69547898D01*
X121214569Y-69626424D01*
X121283069Y-69711204D01*
X121355090Y-69800537D01*
X121429270Y-69892722D01*
X121444517Y-69911702D01*
X121504246Y-69986060D01*
X121578653Y-70078848D01*
X121651131Y-70169388D01*
X121720314Y-70255978D01*
X121784841Y-70336918D01*
X121843347Y-70410506D01*
X121894470Y-70475044D01*
X121936847Y-70528829D01*
X121969115Y-70570162D01*
X121989910Y-70597342D01*
X121997869Y-70608668D01*
X121996111Y-70612771D01*
X121983230Y-70633334D01*
X121958885Y-70669561D01*
X121924247Y-70719824D01*
X121880486Y-70782492D01*
X121828775Y-70855936D01*
X121770284Y-70938527D01*
X121706184Y-71028636D01*
X121637646Y-71124631D01*
X121565843Y-71224885D01*
X121491944Y-71327768D01*
X121417121Y-71431650D01*
X121342545Y-71534901D01*
X121269387Y-71635892D01*
X121198819Y-71732994D01*
X121132011Y-71824577D01*
X121070135Y-71909011D01*
X121014361Y-71984667D01*
X120965862Y-72049916D01*
X120925807Y-72103128D01*
X120895369Y-72142673D01*
X120874944Y-72168026D01*
X120828899Y-72222295D01*
X120778612Y-72278775D01*
X120731815Y-72328669D01*
X120640651Y-72422400D01*
X119942445Y-72422400D01*
X120011356Y-72422349D01*
X120109607Y-72422091D01*
X120199030Y-72421637D01*
X120277333Y-72421010D01*
X120342223Y-72420235D01*
X120391411Y-72419335D01*
X120422604Y-72418334D01*
X120433511Y-72417257D01*
X120432322Y-72414037D01*
X120422176Y-72396452D01*
X120405040Y-72370158D01*
X120396540Y-72357691D01*
X120387329Y-72343622D01*
X120379233Y-72329351D01*
X120372185Y-72313479D01*
X120366117Y-72294609D01*
X120360961Y-72271341D01*
X120356651Y-72242278D01*
X120353119Y-72206021D01*
X120350297Y-72161170D01*
X120348118Y-72106328D01*
X120346514Y-72040097D01*
X120345419Y-71961077D01*
X120344765Y-71867871D01*
X120344484Y-71759079D01*
X120344509Y-71633303D01*
X120344772Y-71489145D01*
X120345206Y-71325207D01*
X120345745Y-71140089D01*
X120346279Y-70961232D01*
X120346805Y-70802374D01*
X120347350Y-70663316D01*
X120347945Y-70542665D01*
X120348619Y-70439028D01*
X120349403Y-70351011D01*
X120350326Y-70277223D01*
X120351419Y-70216269D01*
X120352712Y-70166757D01*
X120354235Y-70127293D01*
X120356019Y-70096484D01*
X120358092Y-70072938D01*
X120360486Y-70055260D01*
X120363230Y-70042059D01*
X120366356Y-70031940D01*
X120369892Y-70023511D01*
X120373791Y-70015375D01*
X120393438Y-69978544D01*
X120412225Y-69948391D01*
X120413272Y-69946908D01*
X120427602Y-69924659D01*
X120433511Y-69911702D01*
X120432504Y-69911249D01*
X120415305Y-69909803D01*
X120378656Y-69908480D01*
X120324962Y-69907316D01*
X120256630Y-69906347D01*
X120176064Y-69905611D01*
X120085670Y-69905142D01*
X119987853Y-69904978D01*
X119542195Y-69904978D01*
X119539120Y-71081845D01*
X119536045Y-72258711D01*
X119509407Y-72317622D01*
X119497485Y-72342183D01*
X119480246Y-72372434D01*
X119467074Y-72389560D01*
X119459076Y-72397591D01*
X119451378Y-72412493D01*
X119159942Y-72412493D01*
X119159474Y-72320029D01*
X119159050Y-72204617D01*
X119158706Y-72074160D01*
X119158434Y-71927716D01*
X119158227Y-71764344D01*
X119158076Y-71583101D01*
X119157972Y-71383048D01*
X119157908Y-71163241D01*
X119157876Y-70922739D01*
X119157867Y-70660602D01*
X119157867Y-68469031D01*
X119196249Y-68430649D01*
X119223355Y-68406911D01*
X119250253Y-68395111D01*
X119286560Y-68392267D01*
X119338489Y-68392267D01*
X119338489Y-68480206D01*
X119340427Y-68530102D01*
X119359199Y-68640523D01*
X119396217Y-68741987D01*
X119449369Y-68833152D01*
X119516546Y-68912673D01*
X119595638Y-68979205D01*
X119684534Y-69031406D01*
X119781125Y-69067930D01*
X119883300Y-69087434D01*
X119988950Y-69088573D01*
X120095964Y-69070005D01*
X120202232Y-69030384D01*
X120299219Y-68972516D01*
X120384293Y-68897684D01*
X120453015Y-68809615D01*
X120503918Y-68710616D01*
X120535535Y-68602993D01*
X120546400Y-68489054D01*
X120546400Y-68392267D01*
X122166753Y-68392267D01*
X122377897Y-68392280D01*
X122582020Y-68392330D01*
X122765686Y-68392430D01*
X122929991Y-68392592D01*
X123076029Y-68392829D01*
X123204894Y-68393153D01*
X123317683Y-68393575D01*
X123415488Y-68394109D01*
X123499404Y-68394767D01*
X123570527Y-68395561D01*
X123629950Y-68396504D01*
X123678768Y-68397608D01*
X123718077Y-68398884D01*
X123748969Y-68400347D01*
X123772541Y-68402007D01*
X123789886Y-68403878D01*
X123802099Y-68405972D01*
X123810275Y-68408300D01*
X123815508Y-68410876D01*
X123821504Y-68414445D01*
X123828279Y-68417978D01*
X123834478Y-68421488D01*
X123840126Y-68425918D01*
X123845247Y-68432208D01*
X123849869Y-68441301D01*
X123854015Y-68454139D01*
X123857713Y-68471662D01*
X123860987Y-68494813D01*
X123863863Y-68524534D01*
X123866367Y-68561765D01*
X123868524Y-68607449D01*
X123870360Y-68662527D01*
X123871900Y-68727941D01*
X123873170Y-68804633D01*
X123874195Y-68893544D01*
X123875001Y-68995617D01*
X123875034Y-69001867D01*
X123875614Y-69111792D01*
X123876059Y-69243011D01*
D13*
%TO.C,J1*%
X85590000Y-65590000D02*
X85590000Y-66920000D01*
X85590000Y-66920000D02*
X86920000Y-66920000D01*
X85590000Y-64320000D02*
X88190000Y-64320000D01*
X88190000Y-64320000D02*
X88190000Y-66920000D01*
X88190000Y-66920000D02*
X136510000Y-66920000D01*
X136510000Y-61720000D02*
X136510000Y-66920000D01*
X85590000Y-61720000D02*
X136510000Y-61720000D01*
X85590000Y-61720000D02*
X85590000Y-64320000D01*
%TD*%
%LPC*%
D14*
%TO.C,H3*%
X140040000Y-44310000D03*
%TD*%
D15*
%TO.C,J2*%
X83395000Y-42100000D03*
D16*
X83395000Y-47100000D03*
%TD*%
D17*
%TO.C,J6*%
X135200000Y-69625000D03*
D18*
X132660000Y-69625000D03*
X130120000Y-69625000D03*
X127580000Y-69625000D03*
%TD*%
D19*
%TO.C,J5*%
X122700000Y-43850000D03*
D20*
X122700000Y-46390000D03*
X120160000Y-43850000D03*
X120160000Y-46390000D03*
X117620000Y-43850000D03*
X117620000Y-46390000D03*
X115080000Y-43850000D03*
X115080000Y-46390000D03*
X112540000Y-43850000D03*
X112540000Y-46390000D03*
X110000000Y-43850000D03*
X110000000Y-46390000D03*
X107460000Y-43850000D03*
X107460000Y-46390000D03*
X104920000Y-43850000D03*
X104920000Y-46390000D03*
X102380000Y-43850000D03*
X102380000Y-46390000D03*
X99840000Y-43850000D03*
X99840000Y-46390000D03*
X97300000Y-43850000D03*
X97300000Y-46390000D03*
X94760000Y-43850000D03*
X94760000Y-46390000D03*
%TD*%
D19*
%TO.C,J4*%
X134000000Y-54400000D03*
D20*
X134000000Y-56940000D03*
X131460000Y-54400000D03*
X131460000Y-56940000D03*
X128920000Y-54400000D03*
X128920000Y-56940000D03*
X126380000Y-54400000D03*
X126380000Y-56940000D03*
X123840000Y-54400000D03*
X123840000Y-56940000D03*
X121300000Y-54400000D03*
X121300000Y-56940000D03*
X118760000Y-54400000D03*
X118760000Y-56940000D03*
X116220000Y-54400000D03*
X116220000Y-56940000D03*
X113680000Y-54400000D03*
X113680000Y-56940000D03*
X111140000Y-54400000D03*
X111140000Y-56940000D03*
X108600000Y-54400000D03*
X108600000Y-56940000D03*
X106060000Y-54400000D03*
X106060000Y-56940000D03*
X103520000Y-54400000D03*
X103520000Y-56940000D03*
X100980000Y-54400000D03*
X100980000Y-56940000D03*
X98440000Y-54400000D03*
X98440000Y-56940000D03*
X95900000Y-54400000D03*
X95900000Y-56940000D03*
X93360000Y-54400000D03*
X93360000Y-56940000D03*
X90820000Y-54400000D03*
X90820000Y-56940000D03*
X88280000Y-54400000D03*
X88280000Y-56940000D03*
X85740000Y-54400000D03*
X85740000Y-56940000D03*
%TD*%
D18*
%TO.C,J3*%
X99380000Y-69400000D03*
X101920000Y-69400000D03*
X104460000Y-69400000D03*
D17*
X107000000Y-69400000D03*
%TD*%
D14*
%TO.C,H2*%
X140040000Y-64310000D03*
%TD*%
%TO.C,H1*%
X82040000Y-64310000D03*
%TD*%
D18*
%TO.C,J1*%
X135180000Y-63050000D03*
X135180000Y-65590000D03*
X132640000Y-63050000D03*
X132640000Y-65590000D03*
X130100000Y-63050000D03*
X130100000Y-65590000D03*
X127560000Y-63050000D03*
X127560000Y-65590000D03*
X125020000Y-63050000D03*
X125020000Y-65590000D03*
X122480000Y-63050000D03*
X122480000Y-65590000D03*
X119940000Y-63050000D03*
X119940000Y-65590000D03*
X117400000Y-63050000D03*
X117400000Y-65590000D03*
X114860000Y-63050000D03*
X114860000Y-65590000D03*
X112320000Y-63050000D03*
X112320000Y-65590000D03*
X109780000Y-63050000D03*
X109780000Y-65590000D03*
X107240000Y-63050000D03*
X107240000Y-65590000D03*
X104700000Y-63050000D03*
X104700000Y-65590000D03*
X102160000Y-63050000D03*
X102160000Y-65590000D03*
X99620000Y-63050000D03*
X99620000Y-65590000D03*
X97080000Y-63050000D03*
X97080000Y-65590000D03*
X94540000Y-63050000D03*
X94540000Y-65590000D03*
X92000000Y-63050000D03*
X92000000Y-65590000D03*
X89460000Y-63050000D03*
X89460000Y-65590000D03*
X86920000Y-63050000D03*
D17*
X86920000Y-65590000D03*
%TD*%
M02*
