G04 #@! TF.GenerationSoftware,KiCad,Pcbnew,(5.1.12)-1*
G04 #@! TF.CreationDate,2022-01-07T20:10:54-05:00*
G04 #@! TF.ProjectId,Four_Out,466f7572-5f4f-4757-942e-6b696361645f,v4*
G04 #@! TF.SameCoordinates,Original*
G04 #@! TF.FileFunction,Other,User*
%FSLAX46Y46*%
G04 Gerber Fmt 4.6, Leading zero omitted, Abs format (unit mm)*
G04 Created by KiCad (PCBNEW (5.1.12)-1) date 2022-01-07 20:10:54*
%MOMM*%
%LPD*%
G01*
G04 APERTURE LIST*
%ADD10C,0.050000*%
G04 APERTURE END LIST*
D10*
X117591000Y-85817800D02*
X79011000Y-85817800D01*
X117591000Y-95367800D02*
X117591000Y-85817800D01*
X79011000Y-95367800D02*
X117591000Y-95367800D01*
X79011000Y-85817800D02*
X79011000Y-95367800D01*
X70301000Y-126967800D02*
X70301000Y-129467800D01*
X70301000Y-129467800D02*
X77801000Y-129467800D01*
X77801000Y-129467800D02*
X77801000Y-126967800D01*
X77801000Y-126967800D02*
X70301000Y-126967800D01*
X114901000Y-135197800D02*
X128401000Y-135197800D01*
X128401000Y-135197800D02*
X128401000Y-121487800D01*
X128401000Y-121487800D02*
X114901000Y-121487800D01*
X114901000Y-121487800D02*
X114901000Y-135197800D01*
X80751000Y-126417800D02*
X80751000Y-108067800D01*
X80751000Y-108067800D02*
X70201000Y-108067800D01*
X70201000Y-108067800D02*
X70201000Y-126417800D01*
X70201000Y-126417800D02*
X80751000Y-126417800D01*
X127481000Y-91439800D02*
G75*
G03*
X127481000Y-91439800I-3950000J0D01*
G01*
X76681000Y-91439800D02*
G75*
G03*
X76681000Y-91439800I-3950000J0D01*
G01*
X127481000Y-142239800D02*
G75*
G03*
X127481000Y-142239800I-3950000J0D01*
G01*
X76681000Y-142239800D02*
G75*
G03*
X76681000Y-142239800I-3950000J0D01*
G01*
X112225000Y-107191800D02*
X112225000Y-110191800D01*
X112225000Y-110191800D02*
X121945000Y-110191800D01*
X121945000Y-110191800D02*
X121945000Y-107191800D01*
X121945000Y-107191800D02*
X112225000Y-107191800D01*
X122651000Y-112917800D02*
X122651000Y-117417800D01*
X122651000Y-117417800D02*
X127501000Y-117417800D01*
X127501000Y-117417800D02*
X127501000Y-112917800D01*
X127501000Y-112917800D02*
X122651000Y-112917800D01*
X122539000Y-106441800D02*
X122539000Y-110941800D01*
X122539000Y-110941800D02*
X127389000Y-110941800D01*
X127389000Y-110941800D02*
X127389000Y-106441800D01*
X127389000Y-106441800D02*
X122539000Y-106441800D01*
X112351000Y-113667800D02*
X112351000Y-116667800D01*
X112351000Y-116667800D02*
X122071000Y-116667800D01*
X122071000Y-116667800D02*
X122071000Y-113667800D01*
X122071000Y-113667800D02*
X112351000Y-113667800D01*
X68371000Y-95707800D02*
X127331000Y-95707800D01*
X127331000Y-95707800D02*
X127331000Y-105067800D01*
X127331000Y-105067800D02*
X68371000Y-105067800D01*
X68371000Y-105067800D02*
X68371000Y-95707800D01*
X98350000Y-111850000D02*
X98350000Y-120100000D01*
X98350000Y-120100000D02*
X111250000Y-120100000D01*
X111250000Y-120100000D02*
X111250000Y-111850000D01*
X111250000Y-111850000D02*
X98350000Y-111850000D01*
X79051000Y-152767800D02*
X84751000Y-152767800D01*
X84751000Y-152767800D02*
X84751000Y-136367800D01*
X84751000Y-136367800D02*
X79051000Y-136367800D01*
X79051000Y-136367800D02*
X79051000Y-152767800D01*
X90101000Y-107163600D02*
X90101000Y-110463600D01*
X90101000Y-110463600D02*
X111301000Y-110463600D01*
X111301000Y-110463600D02*
X111301000Y-107163600D01*
X111301000Y-107163600D02*
X90101000Y-107163600D01*
X98350000Y-124850000D02*
X98350000Y-133100000D01*
X98350000Y-133100000D02*
X111250000Y-133100000D01*
X111250000Y-133100000D02*
X111250000Y-124850000D01*
X111250000Y-124850000D02*
X98350000Y-124850000D01*
X83350000Y-124850000D02*
X83350000Y-133100000D01*
X83350000Y-133100000D02*
X96250000Y-133100000D01*
X96250000Y-133100000D02*
X96250000Y-124850000D01*
X96250000Y-124850000D02*
X83350000Y-124850000D01*
X83350000Y-111850000D02*
X83350000Y-120100000D01*
X83350000Y-120100000D02*
X96250000Y-120100000D01*
X96250000Y-120100000D02*
X96250000Y-111850000D01*
X96250000Y-111850000D02*
X83350000Y-111850000D01*
M02*
