G04 #@! TF.GenerationSoftware,KiCad,Pcbnew,(6.0.5)*
G04 #@! TF.CreationDate,2022-06-03T00:54:08-04:00*
G04 #@! TF.ProjectId,Four_Out,466f7572-5f4f-4757-942e-6b696361645f,v4*
G04 #@! TF.SameCoordinates,Original*
G04 #@! TF.FileFunction,Soldermask,Top*
G04 #@! TF.FilePolarity,Negative*
%FSLAX46Y46*%
G04 Gerber Fmt 4.6, Leading zero omitted, Abs format (unit mm)*
G04 Created by KiCad (PCBNEW (6.0.5)) date 2022-06-03 00:54:08*
%MOMM*%
%LPD*%
G01*
G04 APERTURE LIST*
G04 Aperture macros list*
%AMRoundRect*
0 Rectangle with rounded corners*
0 $1 Rounding radius*
0 $2 $3 $4 $5 $6 $7 $8 $9 X,Y pos of 4 corners*
0 Add a 4 corners polygon primitive as box body*
4,1,4,$2,$3,$4,$5,$6,$7,$8,$9,$2,$3,0*
0 Add four circle primitives for the rounded corners*
1,1,$1+$1,$2,$3*
1,1,$1+$1,$4,$5*
1,1,$1+$1,$6,$7*
1,1,$1+$1,$8,$9*
0 Add four rect primitives between the rounded corners*
20,1,$1+$1,$2,$3,$4,$5,0*
20,1,$1+$1,$4,$5,$6,$7,0*
20,1,$1+$1,$6,$7,$8,$9,0*
20,1,$1+$1,$8,$9,$2,$3,0*%
G04 Aperture macros list end*
%ADD10C,1.702000*%
%ADD11RoundRect,0.051000X0.863600X-0.863600X0.863600X0.863600X-0.863600X0.863600X-0.863600X-0.863600X0*%
%ADD12O,1.829200X1.829200*%
%ADD13O,1.702000X1.702000*%
%ADD14RoundRect,0.051000X-0.900000X-0.900000X0.900000X-0.900000X0.900000X0.900000X-0.900000X0.900000X0*%
%ADD15C,1.902000*%
%ADD16C,3.802000*%
%ADD17RoundRect,0.051000X1.250000X-1.250000X1.250000X1.250000X-1.250000X1.250000X-1.250000X-1.250000X0*%
%ADD18C,2.602000*%
%ADD19RoundRect,0.051000X1.200000X0.800000X-1.200000X0.800000X-1.200000X-0.800000X1.200000X-0.800000X0*%
%ADD20O,2.502000X1.702000*%
%ADD21RoundRect,0.301000X-0.650000X-1.550000X0.650000X-1.550000X0.650000X1.550000X-0.650000X1.550000X0*%
%ADD22O,1.902000X3.702000*%
%ADD23RoundRect,0.051000X1.500000X-1.500000X1.500000X1.500000X-1.500000X1.500000X-1.500000X-1.500000X0*%
%ADD24C,3.102000*%
%ADD25RoundRect,0.051000X1.600000X-1.600000X1.600000X1.600000X-1.600000X1.600000X-1.600000X-1.600000X0*%
%ADD26O,3.302000X3.302000*%
%ADD27RoundRect,0.051000X-0.800000X-0.800000X0.800000X-0.800000X0.800000X0.800000X-0.800000X0.800000X0*%
%ADD28C,2.577000*%
%ADD29RoundRect,0.051000X-0.765000X-0.765000X0.765000X-0.765000X0.765000X0.765000X-0.765000X0.765000X0*%
%ADD30C,1.632000*%
G04 APERTURE END LIST*
D10*
X71551000Y-128217800D03*
X76551000Y-128217800D03*
D11*
X73721000Y-101657800D03*
D12*
X73721000Y-99117800D03*
X76261000Y-101657800D03*
X76261000Y-99117800D03*
X78801000Y-101657800D03*
X78801000Y-99117800D03*
X81341000Y-101657800D03*
X81341000Y-99117800D03*
X83881000Y-101657800D03*
X83881000Y-99117800D03*
X86421000Y-101657800D03*
X86421000Y-99117800D03*
X88961000Y-101657800D03*
X88961000Y-99117800D03*
X91501000Y-101657800D03*
X91501000Y-99117800D03*
X94041000Y-101657800D03*
X94041000Y-99117800D03*
X96581000Y-101657800D03*
X96581000Y-99117800D03*
X99121000Y-101657800D03*
X99121000Y-99117800D03*
X101661000Y-101657800D03*
X101661000Y-99117800D03*
X104201000Y-101657800D03*
X104201000Y-99117800D03*
X106741000Y-101657800D03*
X106741000Y-99117800D03*
X109281000Y-101657800D03*
X109281000Y-99117800D03*
X111821000Y-101657800D03*
X111821000Y-99117800D03*
X114361000Y-101657800D03*
X114361000Y-99117800D03*
X116901000Y-101657800D03*
X116901000Y-99117800D03*
X119441000Y-101657800D03*
X119441000Y-99117800D03*
X121981000Y-101657800D03*
X121981000Y-99117800D03*
D10*
X113401000Y-115167800D03*
D13*
X121021000Y-115167800D03*
D14*
X123689000Y-108691800D03*
D15*
X126229000Y-108691800D03*
D10*
X113275000Y-108691800D03*
D13*
X120895000Y-108691800D03*
D16*
X72731000Y-142239800D03*
X123531000Y-91439800D03*
X72731000Y-91439800D03*
D14*
X123801000Y-115167800D03*
D15*
X126341000Y-115167800D03*
D17*
X119901000Y-131517800D03*
D18*
X119901000Y-125167800D03*
D19*
X79301000Y-124867800D03*
D20*
X79301000Y-122327800D03*
X79301000Y-119787800D03*
X79301000Y-117247800D03*
X79301000Y-114707800D03*
X79301000Y-112167800D03*
X79301000Y-109627800D03*
X71681000Y-109627800D03*
X71681000Y-112167800D03*
X71681000Y-114707800D03*
X71681000Y-117247800D03*
X71681000Y-119787800D03*
X71681000Y-122327800D03*
X71681000Y-124867800D03*
D21*
X86300000Y-129600000D03*
D22*
X89800000Y-129600000D03*
X93300000Y-129600000D03*
D21*
X101300000Y-129600000D03*
D22*
X104800000Y-129600000D03*
X108300000Y-129600000D03*
D21*
X101300000Y-116600000D03*
D22*
X104800000Y-116600000D03*
X108300000Y-116600000D03*
D21*
X86300000Y-116600000D03*
D22*
X89800000Y-116600000D03*
X93300000Y-116600000D03*
D23*
X115414800Y-132615760D03*
D24*
X115414800Y-124365840D03*
D25*
X81901000Y-150917800D03*
D26*
X81901000Y-138217800D03*
D27*
X91801000Y-108813600D03*
D13*
X94341000Y-108813600D03*
X96881000Y-108813600D03*
X99421000Y-108813600D03*
X101961000Y-108813600D03*
X104501000Y-108813600D03*
X107041000Y-108813600D03*
X109581000Y-108813600D03*
D28*
X94897000Y-150253600D03*
X94897000Y-146553600D03*
X94897000Y-142053600D03*
X94897000Y-138353600D03*
X106073000Y-150253600D03*
X106073000Y-146553600D03*
X106073000Y-142053600D03*
X106073000Y-138353600D03*
X89309000Y-150238600D03*
X89309000Y-146538600D03*
X89309000Y-142038600D03*
X89309000Y-138338600D03*
X100485000Y-150253600D03*
X100485000Y-146553600D03*
X100485000Y-142053600D03*
X100485000Y-138353600D03*
D29*
X84331000Y-91987800D03*
D30*
X84331000Y-89447800D03*
X86871000Y-91987800D03*
X86871000Y-89447800D03*
X89411000Y-91987800D03*
X89411000Y-89447800D03*
X91951000Y-91987800D03*
X91951000Y-89447800D03*
X94491000Y-91987800D03*
X94491000Y-89447800D03*
X97031000Y-91987800D03*
X97031000Y-89447800D03*
X99571000Y-91987800D03*
X99571000Y-89447800D03*
X102111000Y-91987800D03*
X102111000Y-89447800D03*
X104651000Y-91987800D03*
X104651000Y-89447800D03*
X107191000Y-91987800D03*
X107191000Y-89447800D03*
X109731000Y-91987800D03*
X109731000Y-89447800D03*
X112271000Y-91987800D03*
X112271000Y-89447800D03*
D16*
X123531000Y-142239800D03*
M02*
