M48
; DRILL file {KiCad (5.1.5)-3} date 1/1/2020 12:23:00 AM
; FORMAT={-:-/ absolute / inch / decimal}
; #@! TF.CreationDate,2020-01-01T00:23:00-05:00
; #@! TF.GenerationSoftware,Kicad,Pcbnew,(5.1.5)-3
; #@! TF.FileFunction,Plated,1,2,PTH
FMAT,2
INCH
T1C0.0236
T2C0.0315
T3C0.0354
T4C0.0400
T5C0.0472
T6C0.0512
T7C0.0630
T8C0.0650
T9C0.0790
%
G90
G05
T1
X3.0512Y-4.2212
X3.252Y-4.2172
X3.3504Y-4.1464
X3.4213Y-4.1464
T2
X4.4596Y-4.2792
X4.7596Y-4.2792
X2.8221Y-4.3161
X2.8221Y-4.4161
X2.8221Y-4.5161
X2.8221Y-4.6161
X2.8221Y-4.7161
X2.8221Y-4.8161
X2.8221Y-4.9161
X3.1221Y-4.3161
X3.1221Y-4.4161
X3.1221Y-4.5161
X3.1221Y-4.6161
X3.1221Y-4.7161
X3.1221Y-4.8161
X3.1221Y-4.9161
X4.4646Y-4.5342
X4.7646Y-4.5342
X2.817Y-5.0479
X3.0138Y-5.0479
X3.6142Y-4.284
X3.7142Y-4.284
X3.8142Y-4.284
X3.9142Y-4.284
X4.0142Y-4.284
X4.1142Y-4.284
X4.2142Y-4.284
X4.3142Y-4.284
T3
X4.8696Y-4.2792
X4.9696Y-4.2792
X4.8741Y-4.5342
X4.9741Y-4.5342
T4
X2.9024Y-3.9023
X2.9024Y-4.0023
X3.0024Y-3.9023
X3.0024Y-4.0023
X3.1024Y-3.9023
X3.1024Y-4.0023
X3.2024Y-3.9023
X3.2024Y-4.0023
X3.3024Y-3.9023
X3.3024Y-4.0023
X3.4024Y-3.9023
X3.4024Y-4.0023
X3.5024Y-3.9023
X3.5024Y-4.0023
X3.6024Y-3.9023
X3.6024Y-4.0023
X3.7024Y-3.9023
X3.7024Y-4.0023
X3.8024Y-3.9023
X3.8024Y-4.0023
X3.9024Y-3.9023
X3.9024Y-4.0023
X4.0024Y-3.9023
X4.0024Y-4.0023
X4.1024Y-3.9023
X4.1024Y-4.0023
X4.2024Y-3.9023
X4.2024Y-4.0023
X4.3024Y-3.9023
X4.3024Y-4.0023
X4.4024Y-3.9023
X4.4024Y-4.0023
X4.5024Y-3.9023
X4.5024Y-4.0023
X4.6024Y-3.9023
X4.6024Y-4.0023
X4.7024Y-3.9023
X4.7024Y-4.0023
X4.8024Y-3.9023
X4.8024Y-4.0023
T5
X3.9882Y-4.5906
X4.126Y-4.5906
X4.2638Y-4.5906
X3.3976Y-5.1024
X3.5354Y-5.1024
X3.6732Y-5.1024
X3.9882Y-5.1024
X4.126Y-5.1024
X4.2638Y-5.1024
X3.3976Y-4.5906
X3.5354Y-4.5906
X3.6732Y-4.5906
T6
X4.7205Y-4.9279
X4.7205Y-5.1779
T7
X3.2244Y-5.4416
X3.2244Y-5.9416
T8
X3.9561Y-5.447
X3.9561Y-5.5927
X3.9561Y-5.7698
X3.9561Y-5.9155
X4.1761Y-5.447
X4.1761Y-5.5927
X4.1761Y-5.7698
X4.1761Y-5.9155
X3.5161Y-5.4464
X3.5161Y-5.5921
X3.5161Y-5.7692
X3.5161Y-5.9149
X3.7361Y-5.447
X3.7361Y-5.5927
X3.7361Y-5.7698
X3.7361Y-5.9155
T9
X4.5439Y-4.8963
X4.5439Y-5.2211
T0
M30
