G04 #@! TF.GenerationSoftware,KiCad,Pcbnew,(5.1.9)-1*
G04 #@! TF.CreationDate,2021-01-27T23:54:18-05:00*
G04 #@! TF.ProjectId,Multi_Expansion,4d756c74-695f-4457-9870-616e73696f6e,v2*
G04 #@! TF.SameCoordinates,Original*
G04 #@! TF.FileFunction,Other,Fab,Top*
%FSLAX46Y46*%
G04 Gerber Fmt 4.6, Leading zero omitted, Abs format (unit mm)*
G04 Created by KiCad (PCBNEW (5.1.9)-1) date 2021-01-27 23:54:18*
%MOMM*%
%LPD*%
G01*
G04 APERTURE LIST*
%ADD10C,0.120000*%
%ADD11C,0.100000*%
%ADD12C,0.152400*%
%ADD13C,0.150000*%
%ADD14C,0.050000*%
G04 APERTURE END LIST*
D10*
X148931000Y-64769800D02*
X148931000Y-140969800D01*
X74131000Y-64769800D02*
X150331000Y-64769800D01*
X72754000Y-141012400D02*
X72754000Y-64812400D01*
X72731000Y-140969800D02*
X148931000Y-140969800D01*
D11*
X152301000Y-131517800D02*
G75*
G03*
X152301000Y-131517800I-2000000J0D01*
G01*
X152301000Y-125167800D02*
G75*
G03*
X152301000Y-125167800I-2000000J0D01*
G01*
X145801000Y-134692800D02*
X145801000Y-121992800D01*
X145801000Y-121992800D02*
X158301000Y-121992800D01*
X158301000Y-121992800D02*
X158301000Y-134192800D01*
X158301000Y-134192800D02*
X157801000Y-134692800D01*
X157801000Y-134692800D02*
X145801000Y-134692800D01*
X157801000Y-134692800D02*
X157801000Y-121992800D01*
X152801000Y-134692800D02*
X152801000Y-121992800D01*
X147801000Y-134692800D02*
X147801000Y-121992800D01*
X149028000Y-130000800D02*
X151818000Y-132790800D01*
X148784000Y-130244800D02*
X151574000Y-133034800D01*
X145801000Y-132517800D02*
X146801000Y-132517800D01*
X146801000Y-132517800D02*
X146801000Y-130517800D01*
X146801000Y-130517800D02*
X145801000Y-130517800D01*
X145801000Y-130517800D02*
X145801000Y-132517800D01*
X149028000Y-123650800D02*
X151818000Y-126439800D01*
X148784000Y-123894800D02*
X151574000Y-126683800D01*
X145801000Y-126167800D02*
X146801000Y-126167800D01*
X146801000Y-126167800D02*
X146801000Y-124167800D01*
X146801000Y-124167800D02*
X145801000Y-124167800D01*
X145801000Y-124167800D02*
X145801000Y-126167800D01*
D10*
X128510000Y-103747800D02*
X128510000Y-87007800D01*
X143810000Y-103747800D02*
X128510000Y-103747800D01*
X143810000Y-86007800D02*
X143810000Y-103747800D01*
X129510000Y-86007800D02*
X143810000Y-86007800D01*
X128510000Y-87007800D02*
X129510000Y-86007800D01*
D11*
X127125000Y-81827800D02*
X127125000Y-84327800D01*
X127125000Y-84327800D02*
X147485000Y-84327800D01*
X147485000Y-84327800D02*
X147485000Y-81827800D01*
X147485000Y-81827800D02*
X127125000Y-81827800D01*
X129685000Y-81827800D02*
X129685000Y-84327800D01*
X100261000Y-81827800D02*
X100261000Y-84327800D01*
X100261000Y-84327800D02*
X120621000Y-84327800D01*
X120621000Y-84327800D02*
X120621000Y-81827800D01*
X120621000Y-81827800D02*
X100261000Y-81827800D01*
X102821000Y-81827800D02*
X102821000Y-84327800D01*
D10*
X103046000Y-103747800D02*
X103046000Y-87007800D01*
X118346000Y-103747800D02*
X103046000Y-103747800D01*
X118346000Y-86007800D02*
X118346000Y-103747800D01*
X104046000Y-86007800D02*
X118346000Y-86007800D01*
X103046000Y-87007800D02*
X104046000Y-86007800D01*
D11*
X126995000Y-77392800D02*
X126995000Y-72042800D01*
X126995000Y-72042800D02*
X147315000Y-72042800D01*
X147315000Y-72042800D02*
X147315000Y-78392800D01*
X147315000Y-78392800D02*
X127995000Y-78392800D01*
X127995000Y-78392800D02*
X126995000Y-77392800D01*
X100081000Y-77392800D02*
X100081000Y-72042800D01*
X100081000Y-72042800D02*
X120401000Y-72042800D01*
X120401000Y-72042800D02*
X120401000Y-78392800D01*
X120401000Y-78392800D02*
X101081000Y-78392800D01*
X101081000Y-78392800D02*
X100081000Y-77392800D01*
X99479000Y-71643800D02*
X97479000Y-71643800D01*
X97479000Y-71643800D02*
X97479000Y-78643800D01*
X97479000Y-78643800D02*
X99479000Y-78643800D01*
X99479000Y-78643800D02*
X99479000Y-71643800D01*
X124763000Y-71897800D02*
X122763000Y-71897800D01*
X122763000Y-71897800D02*
X122763000Y-78897800D01*
X122763000Y-78897800D02*
X124763000Y-78897800D01*
X124763000Y-78897800D02*
X124763000Y-71897800D01*
X72233000Y-85431800D02*
X74733000Y-85431800D01*
X74733000Y-85431800D02*
X74733000Y-79131800D01*
X74733000Y-79131800D02*
X72233000Y-79131800D01*
X72233000Y-79131800D02*
X72233000Y-85431800D01*
X73483000Y-86091800D02*
X73483000Y-85431800D01*
X73483000Y-78471800D02*
X73483000Y-79131800D01*
X74677190Y-91557800D02*
X72344810Y-91557800D01*
X75011000Y-93057800D02*
G75*
G03*
X75011000Y-93057800I-1500000J0D01*
G01*
X72345524Y-91557245D02*
G75*
G03*
X74677190Y-91557800I1165476J-1500555D01*
G01*
X72366810Y-74661800D02*
X74699190Y-74661800D01*
X75033000Y-73161800D02*
G75*
G03*
X75033000Y-73161800I-1500000J0D01*
G01*
X74698476Y-74662355D02*
G75*
G03*
X72366810Y-74661800I-1165476J1500555D01*
G01*
X74781000Y-99477800D02*
X72281000Y-99477800D01*
X72281000Y-99477800D02*
X72281000Y-105777800D01*
X72281000Y-105777800D02*
X74781000Y-105777800D01*
X74781000Y-105777800D02*
X74781000Y-99477800D01*
X73531000Y-98817800D02*
X73531000Y-99477800D01*
X73531000Y-106437800D02*
X73531000Y-105777800D01*
D12*
X86089000Y-81351500D02*
X86089000Y-80564100D01*
X86089000Y-80564100D02*
X85187300Y-80564100D01*
X85187300Y-80564100D02*
X85187300Y-81351500D01*
X85187300Y-81351500D02*
X86089000Y-81351500D01*
X86089000Y-83891500D02*
X86089000Y-83104100D01*
X86089000Y-83104100D02*
X85187300Y-83104100D01*
X85187300Y-83104100D02*
X85187300Y-83891500D01*
X85187300Y-83891500D02*
X86089000Y-83891500D01*
X86089000Y-86431500D02*
X86089000Y-85644100D01*
X86089000Y-85644100D02*
X85187300Y-85644100D01*
X85187300Y-85644100D02*
X85187300Y-86431500D01*
X85187300Y-86431500D02*
X86089000Y-86431500D01*
X86089000Y-88971500D02*
X86089000Y-88184100D01*
X86089000Y-88184100D02*
X85187300Y-88184100D01*
X85187300Y-88184100D02*
X85187300Y-88971500D01*
X85187300Y-88971500D02*
X86089000Y-88971500D01*
X86089000Y-91511500D02*
X86089000Y-90724100D01*
X86089000Y-90724100D02*
X85187300Y-90724100D01*
X85187300Y-90724100D02*
X85187300Y-91511500D01*
X85187300Y-91511500D02*
X86089000Y-91511500D01*
X86089000Y-94051500D02*
X86089000Y-93264100D01*
X86089000Y-93264100D02*
X85187300Y-93264100D01*
X85187300Y-93264100D02*
X85187300Y-94051500D01*
X85187300Y-94051500D02*
X86089000Y-94051500D01*
X86089000Y-96591500D02*
X86089000Y-95804100D01*
X86089000Y-95804100D02*
X85187300Y-95804100D01*
X85187300Y-95804100D02*
X85187300Y-96591500D01*
X85187300Y-96591500D02*
X86089000Y-96591500D01*
X86089000Y-99131500D02*
X86089000Y-98344100D01*
X86089000Y-98344100D02*
X85187300Y-98344100D01*
X85187300Y-98344100D02*
X85187300Y-99131500D01*
X85187300Y-99131500D02*
X86089000Y-99131500D01*
X86089000Y-101671500D02*
X86089000Y-100884100D01*
X86089000Y-100884100D02*
X85187300Y-100884100D01*
X85187300Y-100884100D02*
X85187300Y-101671500D01*
X85187300Y-101671500D02*
X86089000Y-101671500D01*
X86089000Y-104211500D02*
X86089000Y-103424100D01*
X86089000Y-103424100D02*
X85187300Y-103424100D01*
X85187300Y-103424100D02*
X85187300Y-104211500D01*
X85187300Y-104211500D02*
X86089000Y-104211500D01*
X92693000Y-103424100D02*
X92693000Y-104211500D01*
X92693000Y-104211500D02*
X93594700Y-104211500D01*
X93594700Y-104211500D02*
X93594700Y-103424100D01*
X93594700Y-103424100D02*
X92693000Y-103424100D01*
X92693000Y-100884100D02*
X92693000Y-101671500D01*
X92693000Y-101671500D02*
X93594700Y-101671500D01*
X93594700Y-101671500D02*
X93594700Y-100884100D01*
X93594700Y-100884100D02*
X92693000Y-100884100D01*
X92693000Y-98344100D02*
X92693000Y-99131500D01*
X92693000Y-99131500D02*
X93594700Y-99131500D01*
X93594700Y-99131500D02*
X93594700Y-98344100D01*
X93594700Y-98344100D02*
X92693000Y-98344100D01*
X92693000Y-95804100D02*
X92693000Y-96591500D01*
X92693000Y-96591500D02*
X93594700Y-96591500D01*
X93594700Y-96591500D02*
X93594700Y-95804100D01*
X93594700Y-95804100D02*
X92693000Y-95804100D01*
X92693000Y-93264100D02*
X92693000Y-94051500D01*
X92693000Y-94051500D02*
X93594700Y-94051500D01*
X93594700Y-94051500D02*
X93594700Y-93264100D01*
X93594700Y-93264100D02*
X92693000Y-93264100D01*
X92693000Y-90724100D02*
X92693000Y-91511500D01*
X92693000Y-91511500D02*
X93594700Y-91511500D01*
X93594700Y-91511500D02*
X93594700Y-90724100D01*
X93594700Y-90724100D02*
X92693000Y-90724100D01*
X92693000Y-88184100D02*
X92693000Y-88971500D01*
X92693000Y-88971500D02*
X93594700Y-88971500D01*
X93594700Y-88971500D02*
X93594700Y-88184100D01*
X93594700Y-88184100D02*
X92693000Y-88184100D01*
X92693000Y-85644100D02*
X92693000Y-86431500D01*
X92693000Y-86431500D02*
X93594700Y-86431500D01*
X93594700Y-86431500D02*
X93594700Y-85644100D01*
X93594700Y-85644100D02*
X92693000Y-85644100D01*
X92693000Y-83104100D02*
X92693000Y-83891500D01*
X92693000Y-83891500D02*
X93594700Y-83891500D01*
X93594700Y-83891500D02*
X93594700Y-83104100D01*
X93594700Y-83104100D02*
X92693000Y-83104100D01*
X92693000Y-80564100D02*
X92693000Y-81351500D01*
X92693000Y-81351500D02*
X93594700Y-81351500D01*
X93594700Y-81351500D02*
X93594700Y-80564100D01*
X93594700Y-80564100D02*
X92693000Y-80564100D01*
X86089000Y-105849800D02*
X92693000Y-105849800D01*
X92693000Y-105849800D02*
X92693000Y-78925800D01*
X92693000Y-78925800D02*
X86089000Y-78925800D01*
X86089000Y-78925800D02*
X86089000Y-105849800D01*
X89086200Y-78925800D02*
G75*
G03*
X89695800Y-78925800I304800J0D01*
G01*
D11*
X82141000Y-58322800D02*
X140601000Y-58322800D01*
X82681000Y-58872800D02*
X140041000Y-58872800D01*
X82141000Y-67172800D02*
X140601000Y-67172800D01*
X82681000Y-66622800D02*
X109121000Y-66622800D01*
X113621000Y-66622800D02*
X140041000Y-66622800D01*
X109121000Y-66622800D02*
X109121000Y-67172800D01*
X113621000Y-66622800D02*
X113621000Y-67172800D01*
X82141000Y-58322800D02*
X82141000Y-67172800D01*
X82681000Y-58872800D02*
X82681000Y-66622800D01*
X140601000Y-58322800D02*
X140601000Y-67172800D01*
X140041000Y-58872800D02*
X140041000Y-66622800D01*
X82141000Y-58322800D02*
X82681000Y-58872800D01*
X140601000Y-58322800D02*
X140041000Y-58872800D01*
X82141000Y-67172800D02*
X82681000Y-66622800D01*
X140601000Y-67172800D02*
X140041000Y-66622800D01*
X101650000Y-112350000D02*
X101650000Y-119600000D01*
X101650000Y-119600000D02*
X113550000Y-119600000D01*
X113550000Y-119600000D02*
X113550000Y-112350000D01*
X113550000Y-112350000D02*
X101650000Y-112350000D01*
X101150000Y-113100000D02*
X101150000Y-111850000D01*
X101150000Y-111850000D02*
X103150000Y-111850000D01*
X114732600Y-149568600D02*
X119932600Y-149568600D01*
X119932600Y-149568600D02*
X119932600Y-140068600D01*
X119932600Y-140068600D02*
X114732600Y-140068600D01*
X114732600Y-140068600D02*
X114732600Y-149568600D01*
X117332600Y-151168600D02*
X117332600Y-149568600D01*
X117332600Y-138468600D02*
X117332600Y-140068600D01*
X114732600Y-148143600D02*
X119932600Y-148143600D01*
X114732600Y-148043600D02*
X119932600Y-148043600D01*
X114732600Y-148243600D02*
X119932600Y-148243600D01*
X94201000Y-77217800D02*
X94201000Y-75217800D01*
X94201000Y-75217800D02*
X87201000Y-75217800D01*
X87201000Y-75217800D02*
X87201000Y-77217800D01*
X87201000Y-77217800D02*
X94201000Y-77217800D01*
X115562700Y-107563600D02*
X115562700Y-110063600D01*
X115562700Y-110063600D02*
X135922700Y-110063600D01*
X135922700Y-110063600D02*
X135922700Y-107563600D01*
X135922700Y-107563600D02*
X115562700Y-107563600D01*
X118122700Y-107563600D02*
X118122700Y-110063600D01*
X94271500Y-107563600D02*
X94271500Y-110063600D01*
X94271500Y-110063600D02*
X114631500Y-110063600D01*
X114631500Y-110063600D02*
X114631500Y-107563600D01*
X114631500Y-107563600D02*
X94271500Y-107563600D01*
X96831500Y-107563600D02*
X96831500Y-110063600D01*
X131650000Y-125350000D02*
X131650000Y-132600000D01*
X131650000Y-132600000D02*
X143550000Y-132600000D01*
X143550000Y-132600000D02*
X143550000Y-125350000D01*
X143550000Y-125350000D02*
X131650000Y-125350000D01*
X131150000Y-126100000D02*
X131150000Y-124850000D01*
X131150000Y-124850000D02*
X133150000Y-124850000D01*
X131650000Y-112350000D02*
X131650000Y-119600000D01*
X131650000Y-119600000D02*
X143550000Y-119600000D01*
X143550000Y-119600000D02*
X143550000Y-112350000D01*
X143550000Y-112350000D02*
X131650000Y-112350000D01*
X131150000Y-113100000D02*
X131150000Y-111850000D01*
X131150000Y-111850000D02*
X133150000Y-111850000D01*
X116764342Y-125350000D02*
X116764342Y-132600000D01*
X116764342Y-132600000D02*
X128664342Y-132600000D01*
X128664342Y-132600000D02*
X128664342Y-125350000D01*
X128664342Y-125350000D02*
X116764342Y-125350000D01*
X116264342Y-126100000D02*
X116264342Y-124850000D01*
X116264342Y-124850000D02*
X118264342Y-124850000D01*
X116650000Y-112350000D02*
X116650000Y-119600000D01*
X116650000Y-119600000D02*
X128550000Y-119600000D01*
X128550000Y-119600000D02*
X128550000Y-112350000D01*
X128550000Y-112350000D02*
X116650000Y-112350000D01*
X116150000Y-113100000D02*
X116150000Y-111850000D01*
X116150000Y-111850000D02*
X118150000Y-111850000D01*
X101650000Y-125350000D02*
X101650000Y-132600000D01*
X101650000Y-132600000D02*
X113550000Y-132600000D01*
X113550000Y-132600000D02*
X113550000Y-125350000D01*
X113550000Y-125350000D02*
X101650000Y-125350000D01*
X101150000Y-126100000D02*
X101150000Y-124850000D01*
X101150000Y-124850000D02*
X103150000Y-124850000D01*
X86650000Y-125350000D02*
X86650000Y-132600000D01*
X86650000Y-132600000D02*
X98550000Y-132600000D01*
X98550000Y-132600000D02*
X98550000Y-125350000D01*
X98550000Y-125350000D02*
X86650000Y-125350000D01*
X86150000Y-126100000D02*
X86150000Y-124850000D01*
X86150000Y-124850000D02*
X88150000Y-124850000D01*
X86650000Y-112350000D02*
X86650000Y-119600000D01*
X86650000Y-119600000D02*
X98550000Y-119600000D01*
X98550000Y-119600000D02*
X98550000Y-112350000D01*
X98550000Y-112350000D02*
X86650000Y-112350000D01*
X86150000Y-113100000D02*
X86150000Y-111850000D01*
X86150000Y-111850000D02*
X88150000Y-111850000D01*
D13*
X70729571Y-126879704D02*
X70729571Y-126546371D01*
X71253380Y-126403514D02*
X71253380Y-126879704D01*
X70253380Y-126879704D01*
X70253380Y-126403514D01*
X71253380Y-125974942D02*
X70253380Y-125974942D01*
X70253380Y-125736847D01*
X70301000Y-125593990D01*
X70396238Y-125498752D01*
X70491476Y-125451133D01*
X70681952Y-125403514D01*
X70824809Y-125403514D01*
X71015285Y-125451133D01*
X71110523Y-125498752D01*
X71205761Y-125593990D01*
X71253380Y-125736847D01*
X71253380Y-125974942D01*
X70348619Y-125022561D02*
X70301000Y-124974942D01*
X70253380Y-124879704D01*
X70253380Y-124641609D01*
X70301000Y-124546371D01*
X70348619Y-124498752D01*
X70443857Y-124451133D01*
X70539095Y-124451133D01*
X70681952Y-124498752D01*
X71253380Y-125070180D01*
X71253380Y-124451133D01*
X71253380Y-123974942D02*
X71253380Y-123784466D01*
X71205761Y-123689228D01*
X71158142Y-123641609D01*
X71015285Y-123546371D01*
X70824809Y-123498752D01*
X70443857Y-123498752D01*
X70348619Y-123546371D01*
X70301000Y-123593990D01*
X70253380Y-123689228D01*
X70253380Y-123879704D01*
X70301000Y-123974942D01*
X70348619Y-124022561D01*
X70443857Y-124070180D01*
X70681952Y-124070180D01*
X70777190Y-124022561D01*
X70824809Y-123974942D01*
X70872428Y-123879704D01*
X70872428Y-123689228D01*
X70824809Y-123593990D01*
X70777190Y-123546371D01*
X70681952Y-123498752D01*
X70253380Y-122593990D02*
X70253380Y-123070180D01*
X70729571Y-123117800D01*
X70681952Y-123070180D01*
X70634333Y-122974942D01*
X70634333Y-122736847D01*
X70681952Y-122641609D01*
X70729571Y-122593990D01*
X70824809Y-122546371D01*
X71062904Y-122546371D01*
X71158142Y-122593990D01*
X71205761Y-122641609D01*
X71253380Y-122736847D01*
X71253380Y-122974942D01*
X71205761Y-123070180D01*
X71158142Y-123117800D01*
X70253380Y-122213038D02*
X70253380Y-121593990D01*
X70634333Y-121927323D01*
X70634333Y-121784466D01*
X70681952Y-121689228D01*
X70729571Y-121641609D01*
X70824809Y-121593990D01*
X71062904Y-121593990D01*
X71158142Y-121641609D01*
X71205761Y-121689228D01*
X71253380Y-121784466D01*
X71253380Y-122070180D01*
X71205761Y-122165419D01*
X71158142Y-122213038D01*
X70872428Y-121165419D02*
X70872428Y-120403514D01*
X71253380Y-119927323D02*
X70253380Y-119927323D01*
X71253380Y-119355895D01*
X70253380Y-119355895D01*
X71253380Y-118879704D02*
X70253380Y-118879704D01*
X70253380Y-118641609D01*
X70301000Y-118498752D01*
X70396238Y-118403514D01*
X70491476Y-118355895D01*
X70681952Y-118308276D01*
X70824809Y-118308276D01*
X71015285Y-118355895D01*
X71110523Y-118403514D01*
X71205761Y-118498752D01*
X71253380Y-118641609D01*
X71253380Y-118879704D01*
X146567666Y-135470180D02*
X146567666Y-136184466D01*
X146520047Y-136327323D01*
X146424809Y-136422561D01*
X146281952Y-136470180D01*
X146186714Y-136470180D01*
X147091476Y-136470180D02*
X147281952Y-136470180D01*
X147377190Y-136422561D01*
X147424809Y-136374942D01*
X147520047Y-136232085D01*
X147567666Y-136041609D01*
X147567666Y-135660657D01*
X147520047Y-135565419D01*
X147472428Y-135517800D01*
X147377190Y-135470180D01*
X147186714Y-135470180D01*
X147091476Y-135517800D01*
X147043857Y-135565419D01*
X146996238Y-135660657D01*
X146996238Y-135898752D01*
X147043857Y-135993990D01*
X147091476Y-136041609D01*
X147186714Y-136089228D01*
X147377190Y-136089228D01*
X147472428Y-136041609D01*
X147520047Y-135993990D01*
X147567666Y-135898752D01*
X147597666Y-60522180D02*
X147264333Y-60045990D01*
X147026238Y-60522180D02*
X147026238Y-59522180D01*
X147407190Y-59522180D01*
X147502428Y-59569800D01*
X147550047Y-59617419D01*
X147597666Y-59712657D01*
X147597666Y-59855514D01*
X147550047Y-59950752D01*
X147502428Y-59998371D01*
X147407190Y-60045990D01*
X147026238Y-60045990D01*
X148026238Y-59998371D02*
X148359571Y-59998371D01*
X148502428Y-60522180D02*
X148026238Y-60522180D01*
X148026238Y-59522180D01*
X148502428Y-59522180D01*
X149264333Y-59998371D02*
X148931000Y-59998371D01*
X148931000Y-60522180D02*
X148931000Y-59522180D01*
X149407190Y-59522180D01*
X149931000Y-59522180D02*
X149931000Y-59760276D01*
X149692904Y-59665038D02*
X149931000Y-59760276D01*
X150169095Y-59665038D01*
X149788142Y-59950752D02*
X149931000Y-59760276D01*
X150073857Y-59950752D01*
X150692904Y-59522180D02*
X150692904Y-59760276D01*
X150454809Y-59665038D02*
X150692904Y-59760276D01*
X150931000Y-59665038D01*
X150550047Y-59950752D02*
X150692904Y-59760276D01*
X150835761Y-59950752D01*
X141240523Y-69922180D02*
X141240523Y-68922180D01*
X141573857Y-69636466D01*
X141907190Y-68922180D01*
X141907190Y-69922180D01*
X142526238Y-69922180D02*
X142431000Y-69874561D01*
X142383380Y-69826942D01*
X142335761Y-69731704D01*
X142335761Y-69445990D01*
X142383380Y-69350752D01*
X142431000Y-69303133D01*
X142526238Y-69255514D01*
X142669095Y-69255514D01*
X142764333Y-69303133D01*
X142811952Y-69350752D01*
X142859571Y-69445990D01*
X142859571Y-69731704D01*
X142811952Y-69826942D01*
X142764333Y-69874561D01*
X142669095Y-69922180D01*
X142526238Y-69922180D01*
X143716714Y-69255514D02*
X143716714Y-69922180D01*
X143288142Y-69255514D02*
X143288142Y-69779323D01*
X143335761Y-69874561D01*
X143431000Y-69922180D01*
X143573857Y-69922180D01*
X143669095Y-69874561D01*
X143716714Y-69826942D01*
X144192904Y-69255514D02*
X144192904Y-69922180D01*
X144192904Y-69350752D02*
X144240523Y-69303133D01*
X144335761Y-69255514D01*
X144478619Y-69255514D01*
X144573857Y-69303133D01*
X144621476Y-69398371D01*
X144621476Y-69922180D01*
X144954809Y-69255514D02*
X145335761Y-69255514D01*
X145097666Y-68922180D02*
X145097666Y-69779323D01*
X145145285Y-69874561D01*
X145240523Y-69922180D01*
X145335761Y-69922180D01*
X145669095Y-69922180D02*
X145669095Y-69255514D01*
X145669095Y-68922180D02*
X145621476Y-68969800D01*
X145669095Y-69017419D01*
X145716714Y-68969800D01*
X145669095Y-68922180D01*
X145669095Y-69017419D01*
X146145285Y-69255514D02*
X146145285Y-69922180D01*
X146145285Y-69350752D02*
X146192904Y-69303133D01*
X146288142Y-69255514D01*
X146431000Y-69255514D01*
X146526238Y-69303133D01*
X146573857Y-69398371D01*
X146573857Y-69922180D01*
X147478619Y-69255514D02*
X147478619Y-70065038D01*
X147431000Y-70160276D01*
X147383380Y-70207895D01*
X147288142Y-70255514D01*
X147145285Y-70255514D01*
X147050047Y-70207895D01*
X147478619Y-69874561D02*
X147383380Y-69922180D01*
X147192904Y-69922180D01*
X147097666Y-69874561D01*
X147050047Y-69826942D01*
X147002428Y-69731704D01*
X147002428Y-69445990D01*
X147050047Y-69350752D01*
X147097666Y-69303133D01*
X147192904Y-69255514D01*
X147383380Y-69255514D01*
X147478619Y-69303133D01*
X147954809Y-69922180D02*
X147954809Y-68922180D01*
X147954809Y-69398371D02*
X148526238Y-69398371D01*
X148526238Y-69922180D02*
X148526238Y-68922180D01*
X149145285Y-69922180D02*
X149050047Y-69874561D01*
X149002428Y-69826942D01*
X148954809Y-69731704D01*
X148954809Y-69445990D01*
X149002428Y-69350752D01*
X149050047Y-69303133D01*
X149145285Y-69255514D01*
X149288142Y-69255514D01*
X149383380Y-69303133D01*
X149431000Y-69350752D01*
X149478619Y-69445990D01*
X149478619Y-69731704D01*
X149431000Y-69826942D01*
X149383380Y-69874561D01*
X149288142Y-69922180D01*
X149145285Y-69922180D01*
X150050047Y-69922180D02*
X149954809Y-69874561D01*
X149907190Y-69779323D01*
X149907190Y-68922180D01*
X150811952Y-69874561D02*
X150716714Y-69922180D01*
X150526238Y-69922180D01*
X150431000Y-69874561D01*
X150383380Y-69779323D01*
X150383380Y-69398371D01*
X150431000Y-69303133D01*
X150526238Y-69255514D01*
X150716714Y-69255514D01*
X150811952Y-69303133D01*
X150859571Y-69398371D01*
X150859571Y-69493609D01*
X150383380Y-69588847D01*
X151050047Y-70017419D02*
X151811952Y-70017419D01*
X151954809Y-68922180D02*
X152573857Y-68922180D01*
X152240523Y-69303133D01*
X152383380Y-69303133D01*
X152478619Y-69350752D01*
X152526238Y-69398371D01*
X152573857Y-69493609D01*
X152573857Y-69731704D01*
X152526238Y-69826942D01*
X152478619Y-69874561D01*
X152383380Y-69922180D01*
X152097666Y-69922180D01*
X152002428Y-69874561D01*
X151954809Y-69826942D01*
X153002428Y-69826942D02*
X153050047Y-69874561D01*
X153002428Y-69922180D01*
X152954809Y-69874561D01*
X153002428Y-69826942D01*
X153002428Y-69922180D01*
X153383380Y-68922180D02*
X154050047Y-68922180D01*
X153621476Y-69922180D01*
X154431000Y-69922180D02*
X154431000Y-69255514D01*
X154431000Y-69350752D02*
X154478619Y-69303133D01*
X154573857Y-69255514D01*
X154716714Y-69255514D01*
X154811952Y-69303133D01*
X154859571Y-69398371D01*
X154859571Y-69922180D01*
X154859571Y-69398371D02*
X154907190Y-69303133D01*
X155002428Y-69255514D01*
X155145285Y-69255514D01*
X155240523Y-69303133D01*
X155288142Y-69398371D01*
X155288142Y-69922180D01*
X155764333Y-69922180D02*
X155764333Y-69255514D01*
X155764333Y-69350752D02*
X155811952Y-69303133D01*
X155907190Y-69255514D01*
X156050047Y-69255514D01*
X156145285Y-69303133D01*
X156192904Y-69398371D01*
X156192904Y-69922180D01*
X156192904Y-69398371D02*
X156240523Y-69303133D01*
X156335761Y-69255514D01*
X156478619Y-69255514D01*
X156573857Y-69303133D01*
X156621476Y-69398371D01*
X156621476Y-69922180D01*
X147897666Y-65222180D02*
X147564333Y-64745990D01*
X147326238Y-65222180D02*
X147326238Y-64222180D01*
X147707190Y-64222180D01*
X147802428Y-64269800D01*
X147850047Y-64317419D01*
X147897666Y-64412657D01*
X147897666Y-64555514D01*
X147850047Y-64650752D01*
X147802428Y-64698371D01*
X147707190Y-64745990D01*
X147326238Y-64745990D01*
X148326238Y-64698371D02*
X148659571Y-64698371D01*
X148802428Y-65222180D02*
X148326238Y-65222180D01*
X148326238Y-64222180D01*
X148802428Y-64222180D01*
X149564333Y-64698371D02*
X149231000Y-64698371D01*
X149231000Y-65222180D02*
X149231000Y-64222180D01*
X149707190Y-64222180D01*
X150231000Y-64222180D02*
X150231000Y-64460276D01*
X149992904Y-64365038D02*
X150231000Y-64460276D01*
X150469095Y-64365038D01*
X150088142Y-64650752D02*
X150231000Y-64460276D01*
X150373857Y-64650752D01*
X150992904Y-64222180D02*
X150992904Y-64460276D01*
X150754809Y-64365038D02*
X150992904Y-64460276D01*
X151231000Y-64365038D01*
X150850047Y-64650752D02*
X150992904Y-64460276D01*
X151135761Y-64650752D01*
X71397666Y-60522180D02*
X71064333Y-60045990D01*
X70826238Y-60522180D02*
X70826238Y-59522180D01*
X71207190Y-59522180D01*
X71302428Y-59569800D01*
X71350047Y-59617419D01*
X71397666Y-59712657D01*
X71397666Y-59855514D01*
X71350047Y-59950752D01*
X71302428Y-59998371D01*
X71207190Y-60045990D01*
X70826238Y-60045990D01*
X71826238Y-59998371D02*
X72159571Y-59998371D01*
X72302428Y-60522180D02*
X71826238Y-60522180D01*
X71826238Y-59522180D01*
X72302428Y-59522180D01*
X73064333Y-59998371D02*
X72731000Y-59998371D01*
X72731000Y-60522180D02*
X72731000Y-59522180D01*
X73207190Y-59522180D01*
X73731000Y-59522180D02*
X73731000Y-59760276D01*
X73492904Y-59665038D02*
X73731000Y-59760276D01*
X73969095Y-59665038D01*
X73588142Y-59950752D02*
X73731000Y-59760276D01*
X73873857Y-59950752D01*
X74492904Y-59522180D02*
X74492904Y-59760276D01*
X74254809Y-59665038D02*
X74492904Y-59760276D01*
X74731000Y-59665038D01*
X74350047Y-59950752D02*
X74492904Y-59760276D01*
X74635761Y-59950752D01*
X64786523Y-55824180D02*
X64786523Y-54824180D01*
X65119857Y-55538466D01*
X65453190Y-54824180D01*
X65453190Y-55824180D01*
X66072238Y-55824180D02*
X65976999Y-55776561D01*
X65929380Y-55728942D01*
X65881761Y-55633704D01*
X65881761Y-55347990D01*
X65929380Y-55252752D01*
X65976999Y-55205133D01*
X66072238Y-55157514D01*
X66215095Y-55157514D01*
X66310333Y-55205133D01*
X66357952Y-55252752D01*
X66405571Y-55347990D01*
X66405571Y-55633704D01*
X66357952Y-55728942D01*
X66310333Y-55776561D01*
X66215095Y-55824180D01*
X66072238Y-55824180D01*
X67262714Y-55157514D02*
X67262714Y-55824180D01*
X66834142Y-55157514D02*
X66834142Y-55681323D01*
X66881761Y-55776561D01*
X66976999Y-55824180D01*
X67119857Y-55824180D01*
X67215095Y-55776561D01*
X67262714Y-55728942D01*
X67738904Y-55157514D02*
X67738904Y-55824180D01*
X67738904Y-55252752D02*
X67786523Y-55205133D01*
X67881761Y-55157514D01*
X68024619Y-55157514D01*
X68119857Y-55205133D01*
X68167476Y-55300371D01*
X68167476Y-55824180D01*
X68500809Y-55157514D02*
X68881761Y-55157514D01*
X68643666Y-54824180D02*
X68643666Y-55681323D01*
X68691285Y-55776561D01*
X68786523Y-55824180D01*
X68881761Y-55824180D01*
X69215095Y-55824180D02*
X69215095Y-55157514D01*
X69215095Y-54824180D02*
X69167476Y-54871800D01*
X69215095Y-54919419D01*
X69262714Y-54871800D01*
X69215095Y-54824180D01*
X69215095Y-54919419D01*
X69691285Y-55157514D02*
X69691285Y-55824180D01*
X69691285Y-55252752D02*
X69738904Y-55205133D01*
X69834142Y-55157514D01*
X69977000Y-55157514D01*
X70072238Y-55205133D01*
X70119857Y-55300371D01*
X70119857Y-55824180D01*
X71024619Y-55157514D02*
X71024619Y-55967038D01*
X70977000Y-56062276D01*
X70929380Y-56109895D01*
X70834142Y-56157514D01*
X70691285Y-56157514D01*
X70596047Y-56109895D01*
X71024619Y-55776561D02*
X70929380Y-55824180D01*
X70738904Y-55824180D01*
X70643666Y-55776561D01*
X70596047Y-55728942D01*
X70548428Y-55633704D01*
X70548428Y-55347990D01*
X70596047Y-55252752D01*
X70643666Y-55205133D01*
X70738904Y-55157514D01*
X70929380Y-55157514D01*
X71024619Y-55205133D01*
X71500809Y-55824180D02*
X71500809Y-54824180D01*
X71500809Y-55300371D02*
X72072238Y-55300371D01*
X72072238Y-55824180D02*
X72072238Y-54824180D01*
X72691285Y-55824180D02*
X72596047Y-55776561D01*
X72548428Y-55728942D01*
X72500809Y-55633704D01*
X72500809Y-55347990D01*
X72548428Y-55252752D01*
X72596047Y-55205133D01*
X72691285Y-55157514D01*
X72834142Y-55157514D01*
X72929380Y-55205133D01*
X72977000Y-55252752D01*
X73024619Y-55347990D01*
X73024619Y-55633704D01*
X72977000Y-55728942D01*
X72929380Y-55776561D01*
X72834142Y-55824180D01*
X72691285Y-55824180D01*
X73596047Y-55824180D02*
X73500809Y-55776561D01*
X73453190Y-55681323D01*
X73453190Y-54824180D01*
X74357952Y-55776561D02*
X74262714Y-55824180D01*
X74072238Y-55824180D01*
X73977000Y-55776561D01*
X73929380Y-55681323D01*
X73929380Y-55300371D01*
X73977000Y-55205133D01*
X74072238Y-55157514D01*
X74262714Y-55157514D01*
X74357952Y-55205133D01*
X74405571Y-55300371D01*
X74405571Y-55395609D01*
X73929380Y-55490847D01*
X74596047Y-55919419D02*
X75357952Y-55919419D01*
X75500809Y-54824180D02*
X76119857Y-54824180D01*
X75786523Y-55205133D01*
X75929380Y-55205133D01*
X76024619Y-55252752D01*
X76072238Y-55300371D01*
X76119857Y-55395609D01*
X76119857Y-55633704D01*
X76072238Y-55728942D01*
X76024619Y-55776561D01*
X75929380Y-55824180D01*
X75643666Y-55824180D01*
X75548428Y-55776561D01*
X75500809Y-55728942D01*
X76548428Y-55728942D02*
X76596047Y-55776561D01*
X76548428Y-55824180D01*
X76500809Y-55776561D01*
X76548428Y-55728942D01*
X76548428Y-55824180D01*
X76929380Y-54824180D02*
X77596047Y-54824180D01*
X77167476Y-55824180D01*
X77976999Y-55824180D02*
X77976999Y-55157514D01*
X77976999Y-55252752D02*
X78024619Y-55205133D01*
X78119857Y-55157514D01*
X78262714Y-55157514D01*
X78357952Y-55205133D01*
X78405571Y-55300371D01*
X78405571Y-55824180D01*
X78405571Y-55300371D02*
X78453190Y-55205133D01*
X78548428Y-55157514D01*
X78691285Y-55157514D01*
X78786523Y-55205133D01*
X78834142Y-55300371D01*
X78834142Y-55824180D01*
X79310333Y-55824180D02*
X79310333Y-55157514D01*
X79310333Y-55252752D02*
X79357952Y-55205133D01*
X79453190Y-55157514D01*
X79596047Y-55157514D01*
X79691285Y-55205133D01*
X79738904Y-55300371D01*
X79738904Y-55824180D01*
X79738904Y-55300371D02*
X79786523Y-55205133D01*
X79881761Y-55157514D01*
X80024619Y-55157514D01*
X80119857Y-55205133D01*
X80167476Y-55300371D01*
X80167476Y-55824180D01*
X71697666Y-65222180D02*
X71364333Y-64745990D01*
X71126238Y-65222180D02*
X71126238Y-64222180D01*
X71507190Y-64222180D01*
X71602428Y-64269800D01*
X71650047Y-64317419D01*
X71697666Y-64412657D01*
X71697666Y-64555514D01*
X71650047Y-64650752D01*
X71602428Y-64698371D01*
X71507190Y-64745990D01*
X71126238Y-64745990D01*
X72126238Y-64698371D02*
X72459571Y-64698371D01*
X72602428Y-65222180D02*
X72126238Y-65222180D01*
X72126238Y-64222180D01*
X72602428Y-64222180D01*
X73364333Y-64698371D02*
X73031000Y-64698371D01*
X73031000Y-65222180D02*
X73031000Y-64222180D01*
X73507190Y-64222180D01*
X74031000Y-64222180D02*
X74031000Y-64460276D01*
X73792904Y-64365038D02*
X74031000Y-64460276D01*
X74269095Y-64365038D01*
X73888142Y-64650752D02*
X74031000Y-64460276D01*
X74173857Y-64650752D01*
X74792904Y-64222180D02*
X74792904Y-64460276D01*
X74554809Y-64365038D02*
X74792904Y-64460276D01*
X75031000Y-64365038D01*
X74650047Y-64650752D02*
X74792904Y-64460276D01*
X74935761Y-64650752D01*
X154455666Y-138628180D02*
X154122333Y-138151990D01*
X153884238Y-138628180D02*
X153884238Y-137628180D01*
X154265190Y-137628180D01*
X154360428Y-137675800D01*
X154408047Y-137723419D01*
X154455666Y-137818657D01*
X154455666Y-137961514D01*
X154408047Y-138056752D01*
X154360428Y-138104371D01*
X154265190Y-138151990D01*
X153884238Y-138151990D01*
X154884238Y-138104371D02*
X155217571Y-138104371D01*
X155360428Y-138628180D02*
X154884238Y-138628180D01*
X154884238Y-137628180D01*
X155360428Y-137628180D01*
X156122333Y-138104371D02*
X155789000Y-138104371D01*
X155789000Y-138628180D02*
X155789000Y-137628180D01*
X156265190Y-137628180D01*
X156789000Y-137628180D02*
X156789000Y-137866276D01*
X156550904Y-137771038D02*
X156789000Y-137866276D01*
X157027095Y-137771038D01*
X156646142Y-138056752D02*
X156789000Y-137866276D01*
X156931857Y-138056752D01*
X157550904Y-137628180D02*
X157550904Y-137866276D01*
X157312809Y-137771038D02*
X157550904Y-137866276D01*
X157789000Y-137771038D01*
X157408047Y-138056752D02*
X157550904Y-137866276D01*
X157693761Y-138056752D01*
X141240523Y-146122180D02*
X141240523Y-145122180D01*
X141573857Y-145836466D01*
X141907190Y-145122180D01*
X141907190Y-146122180D01*
X142526238Y-146122180D02*
X142431000Y-146074561D01*
X142383380Y-146026942D01*
X142335761Y-145931704D01*
X142335761Y-145645990D01*
X142383380Y-145550752D01*
X142431000Y-145503133D01*
X142526238Y-145455514D01*
X142669095Y-145455514D01*
X142764333Y-145503133D01*
X142811952Y-145550752D01*
X142859571Y-145645990D01*
X142859571Y-145931704D01*
X142811952Y-146026942D01*
X142764333Y-146074561D01*
X142669095Y-146122180D01*
X142526238Y-146122180D01*
X143716714Y-145455514D02*
X143716714Y-146122180D01*
X143288142Y-145455514D02*
X143288142Y-145979323D01*
X143335761Y-146074561D01*
X143431000Y-146122180D01*
X143573857Y-146122180D01*
X143669095Y-146074561D01*
X143716714Y-146026942D01*
X144192904Y-145455514D02*
X144192904Y-146122180D01*
X144192904Y-145550752D02*
X144240523Y-145503133D01*
X144335761Y-145455514D01*
X144478619Y-145455514D01*
X144573857Y-145503133D01*
X144621476Y-145598371D01*
X144621476Y-146122180D01*
X144954809Y-145455514D02*
X145335761Y-145455514D01*
X145097666Y-145122180D02*
X145097666Y-145979323D01*
X145145285Y-146074561D01*
X145240523Y-146122180D01*
X145335761Y-146122180D01*
X145669095Y-146122180D02*
X145669095Y-145455514D01*
X145669095Y-145122180D02*
X145621476Y-145169800D01*
X145669095Y-145217419D01*
X145716714Y-145169800D01*
X145669095Y-145122180D01*
X145669095Y-145217419D01*
X146145285Y-145455514D02*
X146145285Y-146122180D01*
X146145285Y-145550752D02*
X146192904Y-145503133D01*
X146288142Y-145455514D01*
X146431000Y-145455514D01*
X146526238Y-145503133D01*
X146573857Y-145598371D01*
X146573857Y-146122180D01*
X147478619Y-145455514D02*
X147478619Y-146265038D01*
X147431000Y-146360276D01*
X147383380Y-146407895D01*
X147288142Y-146455514D01*
X147145285Y-146455514D01*
X147050047Y-146407895D01*
X147478619Y-146074561D02*
X147383380Y-146122180D01*
X147192904Y-146122180D01*
X147097666Y-146074561D01*
X147050047Y-146026942D01*
X147002428Y-145931704D01*
X147002428Y-145645990D01*
X147050047Y-145550752D01*
X147097666Y-145503133D01*
X147192904Y-145455514D01*
X147383380Y-145455514D01*
X147478619Y-145503133D01*
X147954809Y-146122180D02*
X147954809Y-145122180D01*
X147954809Y-145598371D02*
X148526238Y-145598371D01*
X148526238Y-146122180D02*
X148526238Y-145122180D01*
X149145285Y-146122180D02*
X149050047Y-146074561D01*
X149002428Y-146026942D01*
X148954809Y-145931704D01*
X148954809Y-145645990D01*
X149002428Y-145550752D01*
X149050047Y-145503133D01*
X149145285Y-145455514D01*
X149288142Y-145455514D01*
X149383380Y-145503133D01*
X149431000Y-145550752D01*
X149478619Y-145645990D01*
X149478619Y-145931704D01*
X149431000Y-146026942D01*
X149383380Y-146074561D01*
X149288142Y-146122180D01*
X149145285Y-146122180D01*
X150050047Y-146122180D02*
X149954809Y-146074561D01*
X149907190Y-145979323D01*
X149907190Y-145122180D01*
X150811952Y-146074561D02*
X150716714Y-146122180D01*
X150526238Y-146122180D01*
X150431000Y-146074561D01*
X150383380Y-145979323D01*
X150383380Y-145598371D01*
X150431000Y-145503133D01*
X150526238Y-145455514D01*
X150716714Y-145455514D01*
X150811952Y-145503133D01*
X150859571Y-145598371D01*
X150859571Y-145693609D01*
X150383380Y-145788847D01*
X151050047Y-146217419D02*
X151811952Y-146217419D01*
X151954809Y-145122180D02*
X152573857Y-145122180D01*
X152240523Y-145503133D01*
X152383380Y-145503133D01*
X152478619Y-145550752D01*
X152526238Y-145598371D01*
X152573857Y-145693609D01*
X152573857Y-145931704D01*
X152526238Y-146026942D01*
X152478619Y-146074561D01*
X152383380Y-146122180D01*
X152097666Y-146122180D01*
X152002428Y-146074561D01*
X151954809Y-146026942D01*
X153002428Y-146026942D02*
X153050047Y-146074561D01*
X153002428Y-146122180D01*
X152954809Y-146074561D01*
X153002428Y-146026942D01*
X153002428Y-146122180D01*
X153383380Y-145122180D02*
X154050047Y-145122180D01*
X153621476Y-146122180D01*
X154431000Y-146122180D02*
X154431000Y-145455514D01*
X154431000Y-145550752D02*
X154478619Y-145503133D01*
X154573857Y-145455514D01*
X154716714Y-145455514D01*
X154811952Y-145503133D01*
X154859571Y-145598371D01*
X154859571Y-146122180D01*
X154859571Y-145598371D02*
X154907190Y-145503133D01*
X155002428Y-145455514D01*
X155145285Y-145455514D01*
X155240523Y-145503133D01*
X155288142Y-145598371D01*
X155288142Y-146122180D01*
X155764333Y-146122180D02*
X155764333Y-145455514D01*
X155764333Y-145550752D02*
X155811952Y-145503133D01*
X155907190Y-145455514D01*
X156050047Y-145455514D01*
X156145285Y-145503133D01*
X156192904Y-145598371D01*
X156192904Y-146122180D01*
X156192904Y-145598371D02*
X156240523Y-145503133D01*
X156335761Y-145455514D01*
X156478619Y-145455514D01*
X156573857Y-145503133D01*
X156621476Y-145598371D01*
X156621476Y-146122180D01*
X154201666Y-134818180D02*
X153868333Y-134341990D01*
X153630238Y-134818180D02*
X153630238Y-133818180D01*
X154011190Y-133818180D01*
X154106428Y-133865800D01*
X154154047Y-133913419D01*
X154201666Y-134008657D01*
X154201666Y-134151514D01*
X154154047Y-134246752D01*
X154106428Y-134294371D01*
X154011190Y-134341990D01*
X153630238Y-134341990D01*
X154630238Y-134294371D02*
X154963571Y-134294371D01*
X155106428Y-134818180D02*
X154630238Y-134818180D01*
X154630238Y-133818180D01*
X155106428Y-133818180D01*
X155868333Y-134294371D02*
X155535000Y-134294371D01*
X155535000Y-134818180D02*
X155535000Y-133818180D01*
X156011190Y-133818180D01*
X156535000Y-133818180D02*
X156535000Y-134056276D01*
X156296904Y-133961038D02*
X156535000Y-134056276D01*
X156773095Y-133961038D01*
X156392142Y-134246752D02*
X156535000Y-134056276D01*
X156677857Y-134246752D01*
X157296904Y-133818180D02*
X157296904Y-134056276D01*
X157058809Y-133961038D02*
X157296904Y-134056276D01*
X157535000Y-133961038D01*
X157154047Y-134246752D02*
X157296904Y-134056276D01*
X157439761Y-134246752D01*
X69619666Y-135580180D02*
X69286333Y-135103990D01*
X69048238Y-135580180D02*
X69048238Y-134580180D01*
X69429190Y-134580180D01*
X69524428Y-134627800D01*
X69572047Y-134675419D01*
X69619666Y-134770657D01*
X69619666Y-134913514D01*
X69572047Y-135008752D01*
X69524428Y-135056371D01*
X69429190Y-135103990D01*
X69048238Y-135103990D01*
X70048238Y-135056371D02*
X70381571Y-135056371D01*
X70524428Y-135580180D02*
X70048238Y-135580180D01*
X70048238Y-134580180D01*
X70524428Y-134580180D01*
X71286333Y-135056371D02*
X70953000Y-135056371D01*
X70953000Y-135580180D02*
X70953000Y-134580180D01*
X71429190Y-134580180D01*
X71953000Y-134580180D02*
X71953000Y-134818276D01*
X71714904Y-134723038D02*
X71953000Y-134818276D01*
X72191095Y-134723038D01*
X71810142Y-135008752D02*
X71953000Y-134818276D01*
X72095857Y-135008752D01*
X72714904Y-134580180D02*
X72714904Y-134818276D01*
X72476809Y-134723038D02*
X72714904Y-134818276D01*
X72953000Y-134723038D01*
X72572047Y-135008752D02*
X72714904Y-134818276D01*
X72857761Y-135008752D01*
X65040523Y-146122180D02*
X65040523Y-145122180D01*
X65373857Y-145836466D01*
X65707190Y-145122180D01*
X65707190Y-146122180D01*
X66326238Y-146122180D02*
X66230999Y-146074561D01*
X66183380Y-146026942D01*
X66135761Y-145931704D01*
X66135761Y-145645990D01*
X66183380Y-145550752D01*
X66230999Y-145503133D01*
X66326238Y-145455514D01*
X66469095Y-145455514D01*
X66564333Y-145503133D01*
X66611952Y-145550752D01*
X66659571Y-145645990D01*
X66659571Y-145931704D01*
X66611952Y-146026942D01*
X66564333Y-146074561D01*
X66469095Y-146122180D01*
X66326238Y-146122180D01*
X67516714Y-145455514D02*
X67516714Y-146122180D01*
X67088142Y-145455514D02*
X67088142Y-145979323D01*
X67135761Y-146074561D01*
X67231000Y-146122180D01*
X67373857Y-146122180D01*
X67469095Y-146074561D01*
X67516714Y-146026942D01*
X67992904Y-145455514D02*
X67992904Y-146122180D01*
X67992904Y-145550752D02*
X68040523Y-145503133D01*
X68135761Y-145455514D01*
X68278619Y-145455514D01*
X68373857Y-145503133D01*
X68421476Y-145598371D01*
X68421476Y-146122180D01*
X68754809Y-145455514D02*
X69135761Y-145455514D01*
X68897666Y-145122180D02*
X68897666Y-145979323D01*
X68945285Y-146074561D01*
X69040523Y-146122180D01*
X69135761Y-146122180D01*
X69469095Y-146122180D02*
X69469095Y-145455514D01*
X69469095Y-145122180D02*
X69421476Y-145169800D01*
X69469095Y-145217419D01*
X69516714Y-145169800D01*
X69469095Y-145122180D01*
X69469095Y-145217419D01*
X69945285Y-145455514D02*
X69945285Y-146122180D01*
X69945285Y-145550752D02*
X69992904Y-145503133D01*
X70088142Y-145455514D01*
X70231000Y-145455514D01*
X70326238Y-145503133D01*
X70373857Y-145598371D01*
X70373857Y-146122180D01*
X71278619Y-145455514D02*
X71278619Y-146265038D01*
X71231000Y-146360276D01*
X71183380Y-146407895D01*
X71088142Y-146455514D01*
X70945285Y-146455514D01*
X70850047Y-146407895D01*
X71278619Y-146074561D02*
X71183380Y-146122180D01*
X70992904Y-146122180D01*
X70897666Y-146074561D01*
X70850047Y-146026942D01*
X70802428Y-145931704D01*
X70802428Y-145645990D01*
X70850047Y-145550752D01*
X70897666Y-145503133D01*
X70992904Y-145455514D01*
X71183380Y-145455514D01*
X71278619Y-145503133D01*
X71754809Y-146122180D02*
X71754809Y-145122180D01*
X71754809Y-145598371D02*
X72326238Y-145598371D01*
X72326238Y-146122180D02*
X72326238Y-145122180D01*
X72945285Y-146122180D02*
X72850047Y-146074561D01*
X72802428Y-146026942D01*
X72754809Y-145931704D01*
X72754809Y-145645990D01*
X72802428Y-145550752D01*
X72850047Y-145503133D01*
X72945285Y-145455514D01*
X73088142Y-145455514D01*
X73183380Y-145503133D01*
X73231000Y-145550752D01*
X73278619Y-145645990D01*
X73278619Y-145931704D01*
X73231000Y-146026942D01*
X73183380Y-146074561D01*
X73088142Y-146122180D01*
X72945285Y-146122180D01*
X73850047Y-146122180D02*
X73754809Y-146074561D01*
X73707190Y-145979323D01*
X73707190Y-145122180D01*
X74611952Y-146074561D02*
X74516714Y-146122180D01*
X74326238Y-146122180D01*
X74231000Y-146074561D01*
X74183380Y-145979323D01*
X74183380Y-145598371D01*
X74231000Y-145503133D01*
X74326238Y-145455514D01*
X74516714Y-145455514D01*
X74611952Y-145503133D01*
X74659571Y-145598371D01*
X74659571Y-145693609D01*
X74183380Y-145788847D01*
X74850047Y-146217419D02*
X75611952Y-146217419D01*
X75754809Y-145122180D02*
X76373857Y-145122180D01*
X76040523Y-145503133D01*
X76183380Y-145503133D01*
X76278619Y-145550752D01*
X76326238Y-145598371D01*
X76373857Y-145693609D01*
X76373857Y-145931704D01*
X76326238Y-146026942D01*
X76278619Y-146074561D01*
X76183380Y-146122180D01*
X75897666Y-146122180D01*
X75802428Y-146074561D01*
X75754809Y-146026942D01*
X76802428Y-146026942D02*
X76850047Y-146074561D01*
X76802428Y-146122180D01*
X76754809Y-146074561D01*
X76802428Y-146026942D01*
X76802428Y-146122180D01*
X77183380Y-145122180D02*
X77850047Y-145122180D01*
X77421476Y-146122180D01*
X78230999Y-146122180D02*
X78230999Y-145455514D01*
X78230999Y-145550752D02*
X78278619Y-145503133D01*
X78373857Y-145455514D01*
X78516714Y-145455514D01*
X78611952Y-145503133D01*
X78659571Y-145598371D01*
X78659571Y-146122180D01*
X78659571Y-145598371D02*
X78707190Y-145503133D01*
X78802428Y-145455514D01*
X78945285Y-145455514D01*
X79040523Y-145503133D01*
X79088142Y-145598371D01*
X79088142Y-146122180D01*
X79564333Y-146122180D02*
X79564333Y-145455514D01*
X79564333Y-145550752D02*
X79611952Y-145503133D01*
X79707190Y-145455514D01*
X79850047Y-145455514D01*
X79945285Y-145503133D01*
X79992904Y-145598371D01*
X79992904Y-146122180D01*
X79992904Y-145598371D02*
X80040523Y-145503133D01*
X80135761Y-145455514D01*
X80278619Y-145455514D01*
X80373857Y-145503133D01*
X80421476Y-145598371D01*
X80421476Y-146122180D01*
X71697666Y-141422180D02*
X71364333Y-140945990D01*
X71126238Y-141422180D02*
X71126238Y-140422180D01*
X71507190Y-140422180D01*
X71602428Y-140469800D01*
X71650047Y-140517419D01*
X71697666Y-140612657D01*
X71697666Y-140755514D01*
X71650047Y-140850752D01*
X71602428Y-140898371D01*
X71507190Y-140945990D01*
X71126238Y-140945990D01*
X72126238Y-140898371D02*
X72459571Y-140898371D01*
X72602428Y-141422180D02*
X72126238Y-141422180D01*
X72126238Y-140422180D01*
X72602428Y-140422180D01*
X73364333Y-140898371D02*
X73031000Y-140898371D01*
X73031000Y-141422180D02*
X73031000Y-140422180D01*
X73507190Y-140422180D01*
X74031000Y-140422180D02*
X74031000Y-140660276D01*
X73792904Y-140565038D02*
X74031000Y-140660276D01*
X74269095Y-140565038D01*
X73888142Y-140850752D02*
X74031000Y-140660276D01*
X74173857Y-140850752D01*
X74792904Y-140422180D02*
X74792904Y-140660276D01*
X74554809Y-140565038D02*
X74792904Y-140660276D01*
X75031000Y-140565038D01*
X74650047Y-140850752D02*
X74792904Y-140660276D01*
X74935761Y-140850752D01*
X135136190Y-94230180D02*
X134802857Y-93753990D01*
X134564761Y-94230180D02*
X134564761Y-93230180D01*
X134945714Y-93230180D01*
X135040952Y-93277800D01*
X135088571Y-93325419D01*
X135136190Y-93420657D01*
X135136190Y-93563514D01*
X135088571Y-93658752D01*
X135040952Y-93706371D01*
X134945714Y-93753990D01*
X134564761Y-93753990D01*
X135850476Y-93230180D02*
X135850476Y-93944466D01*
X135802857Y-94087323D01*
X135707619Y-94182561D01*
X135564761Y-94230180D01*
X135469523Y-94230180D01*
X136755238Y-93563514D02*
X136755238Y-94230180D01*
X136517142Y-93182561D02*
X136279047Y-93896847D01*
X136898095Y-93896847D01*
X137755238Y-93230180D02*
X137279047Y-93230180D01*
X137231428Y-93706371D01*
X137279047Y-93658752D01*
X137374285Y-93611133D01*
X137612380Y-93611133D01*
X137707619Y-93658752D01*
X137755238Y-93706371D01*
X137802857Y-93801609D01*
X137802857Y-94039704D01*
X137755238Y-94134942D01*
X137707619Y-94182561D01*
X137612380Y-94230180D01*
X137374285Y-94230180D01*
X137279047Y-94182561D01*
X137231428Y-94134942D01*
X135350476Y-91230180D02*
X135350476Y-91944466D01*
X135302857Y-92087323D01*
X135207619Y-92182561D01*
X135064761Y-92230180D01*
X134969523Y-92230180D01*
X136350476Y-92230180D02*
X135779047Y-92230180D01*
X136064761Y-92230180D02*
X136064761Y-91230180D01*
X135969523Y-91373038D01*
X135874285Y-91468276D01*
X135779047Y-91515895D01*
X137302857Y-92230180D02*
X136731428Y-92230180D01*
X137017142Y-92230180D02*
X137017142Y-91230180D01*
X136921904Y-91373038D01*
X136826666Y-91468276D01*
X136731428Y-91515895D01*
X136614523Y-83530180D02*
X136281190Y-83053990D01*
X136043095Y-83530180D02*
X136043095Y-82530180D01*
X136424047Y-82530180D01*
X136519285Y-82577800D01*
X136566904Y-82625419D01*
X136614523Y-82720657D01*
X136614523Y-82863514D01*
X136566904Y-82958752D01*
X136519285Y-83006371D01*
X136424047Y-83053990D01*
X136043095Y-83053990D01*
X137043095Y-83530180D02*
X137043095Y-82530180D01*
X137614523Y-83530180D01*
X137614523Y-82530180D01*
X138519285Y-82863514D02*
X138519285Y-83530180D01*
X138281190Y-82482561D02*
X138043095Y-83196847D01*
X138662142Y-83196847D01*
X109750523Y-83530180D02*
X109417190Y-83053990D01*
X109179095Y-83530180D02*
X109179095Y-82530180D01*
X109560047Y-82530180D01*
X109655285Y-82577800D01*
X109702904Y-82625419D01*
X109750523Y-82720657D01*
X109750523Y-82863514D01*
X109702904Y-82958752D01*
X109655285Y-83006371D01*
X109560047Y-83053990D01*
X109179095Y-83053990D01*
X110179095Y-83530180D02*
X110179095Y-82530180D01*
X110750523Y-83530180D01*
X110750523Y-82530180D01*
X111131476Y-82530180D02*
X111750523Y-82530180D01*
X111417190Y-82911133D01*
X111560047Y-82911133D01*
X111655285Y-82958752D01*
X111702904Y-83006371D01*
X111750523Y-83101609D01*
X111750523Y-83339704D01*
X111702904Y-83434942D01*
X111655285Y-83482561D01*
X111560047Y-83530180D01*
X111274333Y-83530180D01*
X111179095Y-83482561D01*
X111131476Y-83434942D01*
X109672190Y-94130180D02*
X109338857Y-93653990D01*
X109100761Y-94130180D02*
X109100761Y-93130180D01*
X109481714Y-93130180D01*
X109576952Y-93177800D01*
X109624571Y-93225419D01*
X109672190Y-93320657D01*
X109672190Y-93463514D01*
X109624571Y-93558752D01*
X109576952Y-93606371D01*
X109481714Y-93653990D01*
X109100761Y-93653990D01*
X110386476Y-93130180D02*
X110386476Y-93844466D01*
X110338857Y-93987323D01*
X110243619Y-94082561D01*
X110100761Y-94130180D01*
X110005523Y-94130180D01*
X111291238Y-93463514D02*
X111291238Y-94130180D01*
X111053142Y-93082561D02*
X110815047Y-93796847D01*
X111434095Y-93796847D01*
X112291238Y-93130180D02*
X111815047Y-93130180D01*
X111767428Y-93606371D01*
X111815047Y-93558752D01*
X111910285Y-93511133D01*
X112148380Y-93511133D01*
X112243619Y-93558752D01*
X112291238Y-93606371D01*
X112338857Y-93701609D01*
X112338857Y-93939704D01*
X112291238Y-94034942D01*
X112243619Y-94082561D01*
X112148380Y-94130180D01*
X111910285Y-94130180D01*
X111815047Y-94082561D01*
X111767428Y-94034942D01*
X109886476Y-91230180D02*
X109886476Y-91944466D01*
X109838857Y-92087323D01*
X109743619Y-92182561D01*
X109600761Y-92230180D01*
X109505523Y-92230180D01*
X110886476Y-92230180D02*
X110315047Y-92230180D01*
X110600761Y-92230180D02*
X110600761Y-91230180D01*
X110505523Y-91373038D01*
X110410285Y-91468276D01*
X110315047Y-91515895D01*
X111505523Y-91230180D02*
X111600761Y-91230180D01*
X111696000Y-91277800D01*
X111743619Y-91325419D01*
X111791238Y-91420657D01*
X111838857Y-91611133D01*
X111838857Y-91849228D01*
X111791238Y-92039704D01*
X111743619Y-92134942D01*
X111696000Y-92182561D01*
X111600761Y-92230180D01*
X111505523Y-92230180D01*
X111410285Y-92182561D01*
X111362666Y-92134942D01*
X111315047Y-92039704D01*
X111267428Y-91849228D01*
X111267428Y-91611133D01*
X111315047Y-91420657D01*
X111362666Y-91325419D01*
X111410285Y-91277800D01*
X111505523Y-91230180D01*
X136607380Y-75979704D02*
X137416904Y-75979704D01*
X137512142Y-75932085D01*
X137559761Y-75884466D01*
X137607380Y-75789228D01*
X137607380Y-75598752D01*
X137559761Y-75503514D01*
X137512142Y-75455895D01*
X137416904Y-75408276D01*
X136607380Y-75408276D01*
X136702619Y-74979704D02*
X136655000Y-74932085D01*
X136607380Y-74836847D01*
X136607380Y-74598752D01*
X136655000Y-74503514D01*
X136702619Y-74455895D01*
X136797857Y-74408276D01*
X136893095Y-74408276D01*
X137035952Y-74455895D01*
X137607380Y-75027323D01*
X137607380Y-74408276D01*
X109693380Y-75979704D02*
X110502904Y-75979704D01*
X110598142Y-75932085D01*
X110645761Y-75884466D01*
X110693380Y-75789228D01*
X110693380Y-75598752D01*
X110645761Y-75503514D01*
X110598142Y-75455895D01*
X110502904Y-75408276D01*
X109693380Y-75408276D01*
X110693380Y-74408276D02*
X110693380Y-74979704D01*
X110693380Y-74693990D02*
X109693380Y-74693990D01*
X109836238Y-74789228D01*
X109931476Y-74884466D01*
X109979095Y-74979704D01*
X98836142Y-75174466D02*
X98883761Y-75222085D01*
X98931380Y-75364942D01*
X98931380Y-75460180D01*
X98883761Y-75603038D01*
X98788523Y-75698276D01*
X98693285Y-75745895D01*
X98502809Y-75793514D01*
X98359952Y-75793514D01*
X98169476Y-75745895D01*
X98074238Y-75698276D01*
X97979000Y-75603038D01*
X97931380Y-75460180D01*
X97931380Y-75364942D01*
X97979000Y-75222085D01*
X98026619Y-75174466D01*
X98026619Y-74793514D02*
X97979000Y-74745895D01*
X97931380Y-74650657D01*
X97931380Y-74412561D01*
X97979000Y-74317323D01*
X98026619Y-74269704D01*
X98121857Y-74222085D01*
X98217095Y-74222085D01*
X98359952Y-74269704D01*
X98931380Y-74841133D01*
X98931380Y-74222085D01*
X123646333Y-75794942D02*
X123598714Y-75842561D01*
X123455857Y-75890180D01*
X123360619Y-75890180D01*
X123217761Y-75842561D01*
X123122523Y-75747323D01*
X123074904Y-75652085D01*
X123027285Y-75461609D01*
X123027285Y-75318752D01*
X123074904Y-75128276D01*
X123122523Y-75033038D01*
X123217761Y-74937800D01*
X123360619Y-74890180D01*
X123455857Y-74890180D01*
X123598714Y-74937800D01*
X123646333Y-74985419D01*
X124598714Y-75890180D02*
X124027285Y-75890180D01*
X124313000Y-75890180D02*
X124313000Y-74890180D01*
X124217761Y-75033038D01*
X124122523Y-75128276D01*
X124027285Y-75175895D01*
X73935380Y-82448466D02*
X73459190Y-82781800D01*
X73935380Y-83019895D02*
X72935380Y-83019895D01*
X72935380Y-82638942D01*
X72983000Y-82543704D01*
X73030619Y-82496085D01*
X73125857Y-82448466D01*
X73268714Y-82448466D01*
X73363952Y-82496085D01*
X73411571Y-82543704D01*
X73459190Y-82638942D01*
X73459190Y-83019895D01*
X73030619Y-82067514D02*
X72983000Y-82019895D01*
X72935380Y-81924657D01*
X72935380Y-81686561D01*
X72983000Y-81591323D01*
X73030619Y-81543704D01*
X73125857Y-81496085D01*
X73221095Y-81496085D01*
X73363952Y-81543704D01*
X73935380Y-82115133D01*
X73935380Y-81496085D01*
D10*
X73872904Y-93848276D02*
X73072904Y-93848276D01*
X73072904Y-93657800D01*
X73111000Y-93543514D01*
X73187190Y-93467323D01*
X73263380Y-93429228D01*
X73415761Y-93391133D01*
X73530047Y-93391133D01*
X73682428Y-93429228D01*
X73758619Y-93467323D01*
X73834809Y-93543514D01*
X73872904Y-93657800D01*
X73872904Y-93848276D01*
X73149095Y-93086371D02*
X73111000Y-93048276D01*
X73072904Y-92972085D01*
X73072904Y-92781609D01*
X73111000Y-92705419D01*
X73149095Y-92667323D01*
X73225285Y-92629228D01*
X73301476Y-92629228D01*
X73415761Y-92667323D01*
X73872904Y-93124466D01*
X73872904Y-92629228D01*
X73894904Y-73552276D02*
X73094904Y-73552276D01*
X73094904Y-73361800D01*
X73133000Y-73247514D01*
X73209190Y-73171323D01*
X73285380Y-73133228D01*
X73437761Y-73095133D01*
X73552047Y-73095133D01*
X73704428Y-73133228D01*
X73780619Y-73171323D01*
X73856809Y-73247514D01*
X73894904Y-73361800D01*
X73894904Y-73552276D01*
X73094904Y-72828466D02*
X73094904Y-72333228D01*
X73399666Y-72599895D01*
X73399666Y-72485609D01*
X73437761Y-72409419D01*
X73475857Y-72371323D01*
X73552047Y-72333228D01*
X73742523Y-72333228D01*
X73818714Y-72371323D01*
X73856809Y-72409419D01*
X73894904Y-72485609D01*
X73894904Y-72714180D01*
X73856809Y-72790371D01*
X73818714Y-72828466D01*
D13*
X73983380Y-102794466D02*
X73507190Y-103127800D01*
X73983380Y-103365895D02*
X72983380Y-103365895D01*
X72983380Y-102984942D01*
X73031000Y-102889704D01*
X73078619Y-102842085D01*
X73173857Y-102794466D01*
X73316714Y-102794466D01*
X73411952Y-102842085D01*
X73459571Y-102889704D01*
X73507190Y-102984942D01*
X73507190Y-103365895D01*
X73983380Y-101842085D02*
X73983380Y-102413514D01*
X73983380Y-102127800D02*
X72983380Y-102127800D01*
X73126238Y-102223038D01*
X73221476Y-102318276D01*
X73269095Y-102413514D01*
X86343000Y-80410180D02*
X86343000Y-80648276D01*
X86104904Y-80553038D02*
X86343000Y-80648276D01*
X86581095Y-80553038D01*
X86200142Y-80838752D02*
X86343000Y-80648276D01*
X86485857Y-80838752D01*
X110823380Y-63557323D02*
X111537666Y-63557323D01*
X111680523Y-63604942D01*
X111775761Y-63700180D01*
X111823380Y-63843038D01*
X111823380Y-63938276D01*
X111823380Y-62557323D02*
X111823380Y-63128752D01*
X111823380Y-62843038D02*
X110823380Y-62843038D01*
X110966238Y-62938276D01*
X111061476Y-63033514D01*
X111109095Y-63128752D01*
X110918619Y-62176371D02*
X110871000Y-62128752D01*
X110823380Y-62033514D01*
X110823380Y-61795419D01*
X110871000Y-61700180D01*
X110918619Y-61652561D01*
X111013857Y-61604942D01*
X111109095Y-61604942D01*
X111251952Y-61652561D01*
X111823380Y-62223990D01*
X111823380Y-61604942D01*
D14*
X125824080Y-147710742D02*
X125824080Y-147091695D01*
X126205033Y-147425028D01*
X126205033Y-147282171D01*
X126252652Y-147186933D01*
X126300271Y-147139314D01*
X126395509Y-147091695D01*
X126633604Y-147091695D01*
X126728842Y-147139314D01*
X126776461Y-147186933D01*
X126824080Y-147282171D01*
X126824080Y-147567885D01*
X126776461Y-147663123D01*
X126728842Y-147710742D01*
X125824080Y-146186933D02*
X125824080Y-146663123D01*
X126300271Y-146710742D01*
X126252652Y-146663123D01*
X126205033Y-146567885D01*
X126205033Y-146329790D01*
X126252652Y-146234552D01*
X126300271Y-146186933D01*
X126395509Y-146139314D01*
X126633604Y-146139314D01*
X126728842Y-146186933D01*
X126776461Y-146234552D01*
X126824080Y-146329790D01*
X126824080Y-146567885D01*
X126776461Y-146663123D01*
X126728842Y-146710742D01*
X126157414Y-145282171D02*
X126824080Y-145282171D01*
X125776461Y-145520266D02*
X126490747Y-145758361D01*
X126490747Y-145139314D01*
X126157414Y-144329790D02*
X126824080Y-144329790D01*
X125776461Y-144567885D02*
X126490747Y-144805980D01*
X126490747Y-144186933D01*
X126443128Y-143805980D02*
X126443128Y-143044076D01*
X125919319Y-142615504D02*
X125871700Y-142567885D01*
X125824080Y-142472647D01*
X125824080Y-142234552D01*
X125871700Y-142139314D01*
X125919319Y-142091695D01*
X126014557Y-142044076D01*
X126109795Y-142044076D01*
X126252652Y-142091695D01*
X126824080Y-142663123D01*
X126824080Y-142044076D01*
D13*
X105100000Y-121204761D02*
X105242857Y-121252380D01*
X105480952Y-121252380D01*
X105576190Y-121204761D01*
X105623809Y-121157142D01*
X105671428Y-121061904D01*
X105671428Y-120966666D01*
X105623809Y-120871428D01*
X105576190Y-120823809D01*
X105480952Y-120776190D01*
X105290476Y-120728571D01*
X105195238Y-120680952D01*
X105147619Y-120633333D01*
X105100000Y-120538095D01*
X105100000Y-120442857D01*
X105147619Y-120347619D01*
X105195238Y-120300000D01*
X105290476Y-120252380D01*
X105528571Y-120252380D01*
X105671428Y-120300000D01*
X105957142Y-120585714D02*
X106338095Y-120585714D01*
X106100000Y-120252380D02*
X106100000Y-121109523D01*
X106147619Y-121204761D01*
X106242857Y-121252380D01*
X106338095Y-121252380D01*
X106671428Y-121252380D02*
X106671428Y-120585714D01*
X106671428Y-120776190D02*
X106719047Y-120680952D01*
X106766666Y-120633333D01*
X106861904Y-120585714D01*
X106957142Y-120585714D01*
X107290476Y-121252380D02*
X107290476Y-120585714D01*
X107290476Y-120252380D02*
X107242857Y-120300000D01*
X107290476Y-120347619D01*
X107338095Y-120300000D01*
X107290476Y-120252380D01*
X107290476Y-120347619D01*
X107766666Y-120585714D02*
X107766666Y-121252380D01*
X107766666Y-120680952D02*
X107814285Y-120633333D01*
X107909523Y-120585714D01*
X108052380Y-120585714D01*
X108147619Y-120633333D01*
X108195238Y-120728571D01*
X108195238Y-121252380D01*
X109100000Y-120585714D02*
X109100000Y-121395238D01*
X109052380Y-121490476D01*
X109004761Y-121538095D01*
X108909523Y-121585714D01*
X108766666Y-121585714D01*
X108671428Y-121538095D01*
X109100000Y-121204761D02*
X109004761Y-121252380D01*
X108814285Y-121252380D01*
X108719047Y-121204761D01*
X108671428Y-121157142D01*
X108623809Y-121061904D01*
X108623809Y-120776190D01*
X108671428Y-120680952D01*
X108719047Y-120633333D01*
X108814285Y-120585714D01*
X109004761Y-120585714D01*
X109100000Y-120633333D01*
X109480952Y-120252380D02*
X110100000Y-120252380D01*
X109766666Y-120633333D01*
X109909523Y-120633333D01*
X110004761Y-120680952D01*
X110052380Y-120728571D01*
X110100000Y-120823809D01*
X110100000Y-121061904D01*
X110052380Y-121157142D01*
X110004761Y-121204761D01*
X109909523Y-121252380D01*
X109623809Y-121252380D01*
X109528571Y-121204761D01*
X109480952Y-121157142D01*
X108986666Y-112502380D02*
X108986666Y-113216666D01*
X108939047Y-113359523D01*
X108843809Y-113454761D01*
X108700952Y-113502380D01*
X108605714Y-113502380D01*
X109367619Y-112502380D02*
X109986666Y-112502380D01*
X109653333Y-112883333D01*
X109796190Y-112883333D01*
X109891428Y-112930952D01*
X109939047Y-112978571D01*
X109986666Y-113073809D01*
X109986666Y-113311904D01*
X109939047Y-113407142D01*
X109891428Y-113454761D01*
X109796190Y-113502380D01*
X109510476Y-113502380D01*
X109415238Y-113454761D01*
X109367619Y-113407142D01*
D14*
X107569980Y-147191142D02*
X107569980Y-146572095D01*
X107950933Y-146905428D01*
X107950933Y-146762571D01*
X107998552Y-146667333D01*
X108046171Y-146619714D01*
X108141409Y-146572095D01*
X108379504Y-146572095D01*
X108474742Y-146619714D01*
X108522361Y-146667333D01*
X108569980Y-146762571D01*
X108569980Y-147048285D01*
X108522361Y-147143523D01*
X108474742Y-147191142D01*
X107569980Y-145667333D02*
X107569980Y-146143523D01*
X108046171Y-146191142D01*
X107998552Y-146143523D01*
X107950933Y-146048285D01*
X107950933Y-145810190D01*
X107998552Y-145714952D01*
X108046171Y-145667333D01*
X108141409Y-145619714D01*
X108379504Y-145619714D01*
X108474742Y-145667333D01*
X108522361Y-145714952D01*
X108569980Y-145810190D01*
X108569980Y-146048285D01*
X108522361Y-146143523D01*
X108474742Y-146191142D01*
X107903314Y-144762571D02*
X108569980Y-144762571D01*
X107522361Y-145000666D02*
X108236647Y-145238761D01*
X108236647Y-144619714D01*
X107903314Y-143810190D02*
X108569980Y-143810190D01*
X107522361Y-144048285D02*
X108236647Y-144286380D01*
X108236647Y-143667333D01*
X108189028Y-143286380D02*
X108189028Y-142524476D01*
X107665219Y-142095904D02*
X107617600Y-142048285D01*
X107569980Y-141953047D01*
X107569980Y-141714952D01*
X107617600Y-141619714D01*
X107665219Y-141572095D01*
X107760457Y-141524476D01*
X107855695Y-141524476D01*
X107998552Y-141572095D01*
X108569980Y-142143523D01*
X108569980Y-141524476D01*
D13*
X121457361Y-148509076D02*
X121504980Y-148366219D01*
X121504980Y-148128123D01*
X121457361Y-148032885D01*
X121409742Y-147985266D01*
X121314504Y-147937647D01*
X121219266Y-147937647D01*
X121124028Y-147985266D01*
X121076409Y-148032885D01*
X121028790Y-148128123D01*
X120981171Y-148318600D01*
X120933552Y-148413838D01*
X120885933Y-148461457D01*
X120790695Y-148509076D01*
X120695457Y-148509076D01*
X120600219Y-148461457D01*
X120552600Y-148413838D01*
X120504980Y-148318600D01*
X120504980Y-148080504D01*
X120552600Y-147937647D01*
X120981171Y-147175742D02*
X121028790Y-147032885D01*
X121076409Y-146985266D01*
X121171647Y-146937647D01*
X121314504Y-146937647D01*
X121409742Y-146985266D01*
X121457361Y-147032885D01*
X121504980Y-147128123D01*
X121504980Y-147509076D01*
X120504980Y-147509076D01*
X120504980Y-147175742D01*
X120552600Y-147080504D01*
X120600219Y-147032885D01*
X120695457Y-146985266D01*
X120790695Y-146985266D01*
X120885933Y-147032885D01*
X120933552Y-147080504D01*
X120981171Y-147175742D01*
X120981171Y-147509076D01*
X120504980Y-146032885D02*
X120504980Y-146509076D01*
X120981171Y-146556695D01*
X120933552Y-146509076D01*
X120885933Y-146413838D01*
X120885933Y-146175742D01*
X120933552Y-146080504D01*
X120981171Y-146032885D01*
X121076409Y-145985266D01*
X121314504Y-145985266D01*
X121409742Y-146032885D01*
X121457361Y-146080504D01*
X121504980Y-146175742D01*
X121504980Y-146413838D01*
X121457361Y-146509076D01*
X121409742Y-146556695D01*
X121504980Y-145032885D02*
X121504980Y-145604314D01*
X121504980Y-145318600D02*
X120504980Y-145318600D01*
X120647838Y-145413838D01*
X120743076Y-145509076D01*
X120790695Y-145604314D01*
X120504980Y-144413838D02*
X120504980Y-144318600D01*
X120552600Y-144223361D01*
X120600219Y-144175742D01*
X120695457Y-144128123D01*
X120885933Y-144080504D01*
X121124028Y-144080504D01*
X121314504Y-144128123D01*
X121409742Y-144175742D01*
X121457361Y-144223361D01*
X121504980Y-144318600D01*
X121504980Y-144413838D01*
X121457361Y-144509076D01*
X121409742Y-144556695D01*
X121314504Y-144604314D01*
X121124028Y-144651933D01*
X120885933Y-144651933D01*
X120695457Y-144604314D01*
X120600219Y-144556695D01*
X120552600Y-144509076D01*
X120504980Y-144413838D01*
X120504980Y-143461457D02*
X120504980Y-143366219D01*
X120552600Y-143270980D01*
X120600219Y-143223361D01*
X120695457Y-143175742D01*
X120885933Y-143128123D01*
X121124028Y-143128123D01*
X121314504Y-143175742D01*
X121409742Y-143223361D01*
X121457361Y-143270980D01*
X121504980Y-143366219D01*
X121504980Y-143461457D01*
X121457361Y-143556695D01*
X121409742Y-143604314D01*
X121314504Y-143651933D01*
X121124028Y-143699552D01*
X120885933Y-143699552D01*
X120695457Y-143651933D01*
X120600219Y-143604314D01*
X120552600Y-143556695D01*
X120504980Y-143461457D01*
X121124028Y-142699552D02*
X121124028Y-141937647D01*
X120504980Y-141604314D02*
X120504980Y-141032885D01*
X121504980Y-141318600D02*
X120504980Y-141318600D01*
X119721095Y-151920980D02*
X119721095Y-150920980D01*
X120292523Y-151920980D02*
X119863952Y-151349552D01*
X120292523Y-150920980D02*
X119721095Y-151492409D01*
X117985380Y-144438595D02*
X116985380Y-144438595D01*
X116985380Y-144200500D01*
X117033000Y-144057642D01*
X117128238Y-143962404D01*
X117223476Y-143914785D01*
X117413952Y-143867166D01*
X117556809Y-143867166D01*
X117747285Y-143914785D01*
X117842523Y-143962404D01*
X117937761Y-144057642D01*
X117985380Y-144200500D01*
X117985380Y-144438595D01*
X117985380Y-142914785D02*
X117985380Y-143486214D01*
X117985380Y-143200500D02*
X116985380Y-143200500D01*
X117128238Y-143295738D01*
X117223476Y-143390976D01*
X117271095Y-143486214D01*
X90584333Y-76224942D02*
X90536714Y-76272561D01*
X90393857Y-76320180D01*
X90298619Y-76320180D01*
X90155761Y-76272561D01*
X90060523Y-76177323D01*
X90012904Y-76082085D01*
X89965285Y-75891609D01*
X89965285Y-75748752D01*
X90012904Y-75558276D01*
X90060523Y-75463038D01*
X90155761Y-75367800D01*
X90298619Y-75320180D01*
X90393857Y-75320180D01*
X90536714Y-75367800D01*
X90584333Y-75415419D01*
X90917666Y-75320180D02*
X91536714Y-75320180D01*
X91203380Y-75701133D01*
X91346238Y-75701133D01*
X91441476Y-75748752D01*
X91489095Y-75796371D01*
X91536714Y-75891609D01*
X91536714Y-76129704D01*
X91489095Y-76224942D01*
X91441476Y-76272561D01*
X91346238Y-76320180D01*
X91060523Y-76320180D01*
X90965285Y-76272561D01*
X90917666Y-76224942D01*
X125052223Y-109265980D02*
X124718890Y-108789790D01*
X124480795Y-109265980D02*
X124480795Y-108265980D01*
X124861747Y-108265980D01*
X124956985Y-108313600D01*
X125004604Y-108361219D01*
X125052223Y-108456457D01*
X125052223Y-108599314D01*
X125004604Y-108694552D01*
X124956985Y-108742171D01*
X124861747Y-108789790D01*
X124480795Y-108789790D01*
X125480795Y-109265980D02*
X125480795Y-108265980D01*
X126052223Y-109265980D01*
X126052223Y-108265980D01*
X126480795Y-108361219D02*
X126528414Y-108313600D01*
X126623652Y-108265980D01*
X126861747Y-108265980D01*
X126956985Y-108313600D01*
X127004604Y-108361219D01*
X127052223Y-108456457D01*
X127052223Y-108551695D01*
X127004604Y-108694552D01*
X126433176Y-109265980D01*
X127052223Y-109265980D01*
X103761023Y-109265980D02*
X103427690Y-108789790D01*
X103189595Y-109265980D02*
X103189595Y-108265980D01*
X103570547Y-108265980D01*
X103665785Y-108313600D01*
X103713404Y-108361219D01*
X103761023Y-108456457D01*
X103761023Y-108599314D01*
X103713404Y-108694552D01*
X103665785Y-108742171D01*
X103570547Y-108789790D01*
X103189595Y-108789790D01*
X104189595Y-109265980D02*
X104189595Y-108265980D01*
X104761023Y-109265980D01*
X104761023Y-108265980D01*
X105761023Y-109265980D02*
X105189595Y-109265980D01*
X105475309Y-109265980D02*
X105475309Y-108265980D01*
X105380071Y-108408838D01*
X105284833Y-108504076D01*
X105189595Y-108551695D01*
X135100000Y-134204761D02*
X135242857Y-134252380D01*
X135480952Y-134252380D01*
X135576190Y-134204761D01*
X135623809Y-134157142D01*
X135671428Y-134061904D01*
X135671428Y-133966666D01*
X135623809Y-133871428D01*
X135576190Y-133823809D01*
X135480952Y-133776190D01*
X135290476Y-133728571D01*
X135195238Y-133680952D01*
X135147619Y-133633333D01*
X135100000Y-133538095D01*
X135100000Y-133442857D01*
X135147619Y-133347619D01*
X135195238Y-133300000D01*
X135290476Y-133252380D01*
X135528571Y-133252380D01*
X135671428Y-133300000D01*
X135957142Y-133585714D02*
X136338095Y-133585714D01*
X136100000Y-133252380D02*
X136100000Y-134109523D01*
X136147619Y-134204761D01*
X136242857Y-134252380D01*
X136338095Y-134252380D01*
X136671428Y-134252380D02*
X136671428Y-133585714D01*
X136671428Y-133776190D02*
X136719047Y-133680952D01*
X136766666Y-133633333D01*
X136861904Y-133585714D01*
X136957142Y-133585714D01*
X137290476Y-134252380D02*
X137290476Y-133585714D01*
X137290476Y-133252380D02*
X137242857Y-133300000D01*
X137290476Y-133347619D01*
X137338095Y-133300000D01*
X137290476Y-133252380D01*
X137290476Y-133347619D01*
X137766666Y-133585714D02*
X137766666Y-134252380D01*
X137766666Y-133680952D02*
X137814285Y-133633333D01*
X137909523Y-133585714D01*
X138052380Y-133585714D01*
X138147619Y-133633333D01*
X138195238Y-133728571D01*
X138195238Y-134252380D01*
X139100000Y-133585714D02*
X139100000Y-134395238D01*
X139052380Y-134490476D01*
X139004761Y-134538095D01*
X138909523Y-134585714D01*
X138766666Y-134585714D01*
X138671428Y-134538095D01*
X139100000Y-134204761D02*
X139004761Y-134252380D01*
X138814285Y-134252380D01*
X138719047Y-134204761D01*
X138671428Y-134157142D01*
X138623809Y-134061904D01*
X138623809Y-133776190D01*
X138671428Y-133680952D01*
X138719047Y-133633333D01*
X138814285Y-133585714D01*
X139004761Y-133585714D01*
X139100000Y-133633333D01*
X139719047Y-133680952D02*
X139623809Y-133633333D01*
X139576190Y-133585714D01*
X139528571Y-133490476D01*
X139528571Y-133442857D01*
X139576190Y-133347619D01*
X139623809Y-133300000D01*
X139719047Y-133252380D01*
X139909523Y-133252380D01*
X140004761Y-133300000D01*
X140052380Y-133347619D01*
X140100000Y-133442857D01*
X140100000Y-133490476D01*
X140052380Y-133585714D01*
X140004761Y-133633333D01*
X139909523Y-133680952D01*
X139719047Y-133680952D01*
X139623809Y-133728571D01*
X139576190Y-133776190D01*
X139528571Y-133871428D01*
X139528571Y-134061904D01*
X139576190Y-134157142D01*
X139623809Y-134204761D01*
X139719047Y-134252380D01*
X139909523Y-134252380D01*
X140004761Y-134204761D01*
X140052380Y-134157142D01*
X140100000Y-134061904D01*
X140100000Y-133871428D01*
X140052380Y-133776190D01*
X140004761Y-133728571D01*
X139909523Y-133680952D01*
X137266666Y-125502380D02*
X137266666Y-126216666D01*
X137219047Y-126359523D01*
X137123809Y-126454761D01*
X136980952Y-126502380D01*
X136885714Y-126502380D01*
X137885714Y-125930952D02*
X137790476Y-125883333D01*
X137742857Y-125835714D01*
X137695238Y-125740476D01*
X137695238Y-125692857D01*
X137742857Y-125597619D01*
X137790476Y-125550000D01*
X137885714Y-125502380D01*
X138076190Y-125502380D01*
X138171428Y-125550000D01*
X138219047Y-125597619D01*
X138266666Y-125692857D01*
X138266666Y-125740476D01*
X138219047Y-125835714D01*
X138171428Y-125883333D01*
X138076190Y-125930952D01*
X137885714Y-125930952D01*
X137790476Y-125978571D01*
X137742857Y-126026190D01*
X137695238Y-126121428D01*
X137695238Y-126311904D01*
X137742857Y-126407142D01*
X137790476Y-126454761D01*
X137885714Y-126502380D01*
X138076190Y-126502380D01*
X138171428Y-126454761D01*
X138219047Y-126407142D01*
X138266666Y-126311904D01*
X138266666Y-126121428D01*
X138219047Y-126026190D01*
X138171428Y-125978571D01*
X138076190Y-125930952D01*
X135100000Y-121204761D02*
X135242857Y-121252380D01*
X135480952Y-121252380D01*
X135576190Y-121204761D01*
X135623809Y-121157142D01*
X135671428Y-121061904D01*
X135671428Y-120966666D01*
X135623809Y-120871428D01*
X135576190Y-120823809D01*
X135480952Y-120776190D01*
X135290476Y-120728571D01*
X135195238Y-120680952D01*
X135147619Y-120633333D01*
X135100000Y-120538095D01*
X135100000Y-120442857D01*
X135147619Y-120347619D01*
X135195238Y-120300000D01*
X135290476Y-120252380D01*
X135528571Y-120252380D01*
X135671428Y-120300000D01*
X135957142Y-120585714D02*
X136338095Y-120585714D01*
X136100000Y-120252380D02*
X136100000Y-121109523D01*
X136147619Y-121204761D01*
X136242857Y-121252380D01*
X136338095Y-121252380D01*
X136671428Y-121252380D02*
X136671428Y-120585714D01*
X136671428Y-120776190D02*
X136719047Y-120680952D01*
X136766666Y-120633333D01*
X136861904Y-120585714D01*
X136957142Y-120585714D01*
X137290476Y-121252380D02*
X137290476Y-120585714D01*
X137290476Y-120252380D02*
X137242857Y-120300000D01*
X137290476Y-120347619D01*
X137338095Y-120300000D01*
X137290476Y-120252380D01*
X137290476Y-120347619D01*
X137766666Y-120585714D02*
X137766666Y-121252380D01*
X137766666Y-120680952D02*
X137814285Y-120633333D01*
X137909523Y-120585714D01*
X138052380Y-120585714D01*
X138147619Y-120633333D01*
X138195238Y-120728571D01*
X138195238Y-121252380D01*
X139100000Y-120585714D02*
X139100000Y-121395238D01*
X139052380Y-121490476D01*
X139004761Y-121538095D01*
X138909523Y-121585714D01*
X138766666Y-121585714D01*
X138671428Y-121538095D01*
X139100000Y-121204761D02*
X139004761Y-121252380D01*
X138814285Y-121252380D01*
X138719047Y-121204761D01*
X138671428Y-121157142D01*
X138623809Y-121061904D01*
X138623809Y-120776190D01*
X138671428Y-120680952D01*
X138719047Y-120633333D01*
X138814285Y-120585714D01*
X139004761Y-120585714D01*
X139100000Y-120633333D01*
X139480952Y-120252380D02*
X140147619Y-120252380D01*
X139719047Y-121252380D01*
X137266666Y-112502380D02*
X137266666Y-113216666D01*
X137219047Y-113359523D01*
X137123809Y-113454761D01*
X136980952Y-113502380D01*
X136885714Y-113502380D01*
X137647619Y-112502380D02*
X138314285Y-112502380D01*
X137885714Y-113502380D01*
X120214342Y-134204761D02*
X120357199Y-134252380D01*
X120595294Y-134252380D01*
X120690532Y-134204761D01*
X120738151Y-134157142D01*
X120785770Y-134061904D01*
X120785770Y-133966666D01*
X120738151Y-133871428D01*
X120690532Y-133823809D01*
X120595294Y-133776190D01*
X120404818Y-133728571D01*
X120309580Y-133680952D01*
X120261961Y-133633333D01*
X120214342Y-133538095D01*
X120214342Y-133442857D01*
X120261961Y-133347619D01*
X120309580Y-133300000D01*
X120404818Y-133252380D01*
X120642913Y-133252380D01*
X120785770Y-133300000D01*
X121071484Y-133585714D02*
X121452437Y-133585714D01*
X121214342Y-133252380D02*
X121214342Y-134109523D01*
X121261961Y-134204761D01*
X121357199Y-134252380D01*
X121452437Y-134252380D01*
X121785770Y-134252380D02*
X121785770Y-133585714D01*
X121785770Y-133776190D02*
X121833389Y-133680952D01*
X121881008Y-133633333D01*
X121976246Y-133585714D01*
X122071484Y-133585714D01*
X122404818Y-134252380D02*
X122404818Y-133585714D01*
X122404818Y-133252380D02*
X122357199Y-133300000D01*
X122404818Y-133347619D01*
X122452437Y-133300000D01*
X122404818Y-133252380D01*
X122404818Y-133347619D01*
X122881008Y-133585714D02*
X122881008Y-134252380D01*
X122881008Y-133680952D02*
X122928627Y-133633333D01*
X123023865Y-133585714D01*
X123166722Y-133585714D01*
X123261961Y-133633333D01*
X123309580Y-133728571D01*
X123309580Y-134252380D01*
X124214342Y-133585714D02*
X124214342Y-134395238D01*
X124166722Y-134490476D01*
X124119103Y-134538095D01*
X124023865Y-134585714D01*
X123881008Y-134585714D01*
X123785770Y-134538095D01*
X124214342Y-134204761D02*
X124119103Y-134252380D01*
X123928627Y-134252380D01*
X123833389Y-134204761D01*
X123785770Y-134157142D01*
X123738151Y-134061904D01*
X123738151Y-133776190D01*
X123785770Y-133680952D01*
X123833389Y-133633333D01*
X123928627Y-133585714D01*
X124119103Y-133585714D01*
X124214342Y-133633333D01*
X125119103Y-133252380D02*
X124928627Y-133252380D01*
X124833389Y-133300000D01*
X124785770Y-133347619D01*
X124690532Y-133490476D01*
X124642913Y-133680952D01*
X124642913Y-134061904D01*
X124690532Y-134157142D01*
X124738151Y-134204761D01*
X124833389Y-134252380D01*
X125023865Y-134252380D01*
X125119103Y-134204761D01*
X125166722Y-134157142D01*
X125214342Y-134061904D01*
X125214342Y-133823809D01*
X125166722Y-133728571D01*
X125119103Y-133680952D01*
X125023865Y-133633333D01*
X124833389Y-133633333D01*
X124738151Y-133680952D01*
X124690532Y-133728571D01*
X124642913Y-133823809D01*
X122381008Y-125502380D02*
X122381008Y-126216666D01*
X122333389Y-126359523D01*
X122238151Y-126454761D01*
X122095294Y-126502380D01*
X122000056Y-126502380D01*
X123285770Y-125502380D02*
X123095294Y-125502380D01*
X123000056Y-125550000D01*
X122952437Y-125597619D01*
X122857199Y-125740476D01*
X122809580Y-125930952D01*
X122809580Y-126311904D01*
X122857199Y-126407142D01*
X122904818Y-126454761D01*
X123000056Y-126502380D01*
X123190532Y-126502380D01*
X123285770Y-126454761D01*
X123333389Y-126407142D01*
X123381008Y-126311904D01*
X123381008Y-126073809D01*
X123333389Y-125978571D01*
X123285770Y-125930952D01*
X123190532Y-125883333D01*
X123000056Y-125883333D01*
X122904818Y-125930952D01*
X122857199Y-125978571D01*
X122809580Y-126073809D01*
X120100000Y-121204761D02*
X120242857Y-121252380D01*
X120480952Y-121252380D01*
X120576190Y-121204761D01*
X120623809Y-121157142D01*
X120671428Y-121061904D01*
X120671428Y-120966666D01*
X120623809Y-120871428D01*
X120576190Y-120823809D01*
X120480952Y-120776190D01*
X120290476Y-120728571D01*
X120195238Y-120680952D01*
X120147619Y-120633333D01*
X120100000Y-120538095D01*
X120100000Y-120442857D01*
X120147619Y-120347619D01*
X120195238Y-120300000D01*
X120290476Y-120252380D01*
X120528571Y-120252380D01*
X120671428Y-120300000D01*
X120957142Y-120585714D02*
X121338095Y-120585714D01*
X121100000Y-120252380D02*
X121100000Y-121109523D01*
X121147619Y-121204761D01*
X121242857Y-121252380D01*
X121338095Y-121252380D01*
X121671428Y-121252380D02*
X121671428Y-120585714D01*
X121671428Y-120776190D02*
X121719047Y-120680952D01*
X121766666Y-120633333D01*
X121861904Y-120585714D01*
X121957142Y-120585714D01*
X122290476Y-121252380D02*
X122290476Y-120585714D01*
X122290476Y-120252380D02*
X122242857Y-120300000D01*
X122290476Y-120347619D01*
X122338095Y-120300000D01*
X122290476Y-120252380D01*
X122290476Y-120347619D01*
X122766666Y-120585714D02*
X122766666Y-121252380D01*
X122766666Y-120680952D02*
X122814285Y-120633333D01*
X122909523Y-120585714D01*
X123052380Y-120585714D01*
X123147619Y-120633333D01*
X123195238Y-120728571D01*
X123195238Y-121252380D01*
X124100000Y-120585714D02*
X124100000Y-121395238D01*
X124052380Y-121490476D01*
X124004761Y-121538095D01*
X123909523Y-121585714D01*
X123766666Y-121585714D01*
X123671428Y-121538095D01*
X124100000Y-121204761D02*
X124004761Y-121252380D01*
X123814285Y-121252380D01*
X123719047Y-121204761D01*
X123671428Y-121157142D01*
X123623809Y-121061904D01*
X123623809Y-120776190D01*
X123671428Y-120680952D01*
X123719047Y-120633333D01*
X123814285Y-120585714D01*
X124004761Y-120585714D01*
X124100000Y-120633333D01*
X125052380Y-120252380D02*
X124576190Y-120252380D01*
X124528571Y-120728571D01*
X124576190Y-120680952D01*
X124671428Y-120633333D01*
X124909523Y-120633333D01*
X125004761Y-120680952D01*
X125052380Y-120728571D01*
X125100000Y-120823809D01*
X125100000Y-121061904D01*
X125052380Y-121157142D01*
X125004761Y-121204761D01*
X124909523Y-121252380D01*
X124671428Y-121252380D01*
X124576190Y-121204761D01*
X124528571Y-121157142D01*
X122266666Y-112502380D02*
X122266666Y-113216666D01*
X122219047Y-113359523D01*
X122123809Y-113454761D01*
X121980952Y-113502380D01*
X121885714Y-113502380D01*
X123219047Y-112502380D02*
X122742857Y-112502380D01*
X122695238Y-112978571D01*
X122742857Y-112930952D01*
X122838095Y-112883333D01*
X123076190Y-112883333D01*
X123171428Y-112930952D01*
X123219047Y-112978571D01*
X123266666Y-113073809D01*
X123266666Y-113311904D01*
X123219047Y-113407142D01*
X123171428Y-113454761D01*
X123076190Y-113502380D01*
X122838095Y-113502380D01*
X122742857Y-113454761D01*
X122695238Y-113407142D01*
X105100000Y-134204761D02*
X105242857Y-134252380D01*
X105480952Y-134252380D01*
X105576190Y-134204761D01*
X105623809Y-134157142D01*
X105671428Y-134061904D01*
X105671428Y-133966666D01*
X105623809Y-133871428D01*
X105576190Y-133823809D01*
X105480952Y-133776190D01*
X105290476Y-133728571D01*
X105195238Y-133680952D01*
X105147619Y-133633333D01*
X105100000Y-133538095D01*
X105100000Y-133442857D01*
X105147619Y-133347619D01*
X105195238Y-133300000D01*
X105290476Y-133252380D01*
X105528571Y-133252380D01*
X105671428Y-133300000D01*
X105957142Y-133585714D02*
X106338095Y-133585714D01*
X106100000Y-133252380D02*
X106100000Y-134109523D01*
X106147619Y-134204761D01*
X106242857Y-134252380D01*
X106338095Y-134252380D01*
X106671428Y-134252380D02*
X106671428Y-133585714D01*
X106671428Y-133776190D02*
X106719047Y-133680952D01*
X106766666Y-133633333D01*
X106861904Y-133585714D01*
X106957142Y-133585714D01*
X107290476Y-134252380D02*
X107290476Y-133585714D01*
X107290476Y-133252380D02*
X107242857Y-133300000D01*
X107290476Y-133347619D01*
X107338095Y-133300000D01*
X107290476Y-133252380D01*
X107290476Y-133347619D01*
X107766666Y-133585714D02*
X107766666Y-134252380D01*
X107766666Y-133680952D02*
X107814285Y-133633333D01*
X107909523Y-133585714D01*
X108052380Y-133585714D01*
X108147619Y-133633333D01*
X108195238Y-133728571D01*
X108195238Y-134252380D01*
X109100000Y-133585714D02*
X109100000Y-134395238D01*
X109052380Y-134490476D01*
X109004761Y-134538095D01*
X108909523Y-134585714D01*
X108766666Y-134585714D01*
X108671428Y-134538095D01*
X109100000Y-134204761D02*
X109004761Y-134252380D01*
X108814285Y-134252380D01*
X108719047Y-134204761D01*
X108671428Y-134157142D01*
X108623809Y-134061904D01*
X108623809Y-133776190D01*
X108671428Y-133680952D01*
X108719047Y-133633333D01*
X108814285Y-133585714D01*
X109004761Y-133585714D01*
X109100000Y-133633333D01*
X110004761Y-133585714D02*
X110004761Y-134252380D01*
X109766666Y-133204761D02*
X109528571Y-133919047D01*
X110147619Y-133919047D01*
X107266666Y-125502380D02*
X107266666Y-126216666D01*
X107219047Y-126359523D01*
X107123809Y-126454761D01*
X106980952Y-126502380D01*
X106885714Y-126502380D01*
X108171428Y-125835714D02*
X108171428Y-126502380D01*
X107933333Y-125454761D02*
X107695238Y-126169047D01*
X108314285Y-126169047D01*
X90100000Y-134204761D02*
X90242857Y-134252380D01*
X90480952Y-134252380D01*
X90576190Y-134204761D01*
X90623809Y-134157142D01*
X90671428Y-134061904D01*
X90671428Y-133966666D01*
X90623809Y-133871428D01*
X90576190Y-133823809D01*
X90480952Y-133776190D01*
X90290476Y-133728571D01*
X90195238Y-133680952D01*
X90147619Y-133633333D01*
X90100000Y-133538095D01*
X90100000Y-133442857D01*
X90147619Y-133347619D01*
X90195238Y-133300000D01*
X90290476Y-133252380D01*
X90528571Y-133252380D01*
X90671428Y-133300000D01*
X90957142Y-133585714D02*
X91338095Y-133585714D01*
X91100000Y-133252380D02*
X91100000Y-134109523D01*
X91147619Y-134204761D01*
X91242857Y-134252380D01*
X91338095Y-134252380D01*
X91671428Y-134252380D02*
X91671428Y-133585714D01*
X91671428Y-133776190D02*
X91719047Y-133680952D01*
X91766666Y-133633333D01*
X91861904Y-133585714D01*
X91957142Y-133585714D01*
X92290476Y-134252380D02*
X92290476Y-133585714D01*
X92290476Y-133252380D02*
X92242857Y-133300000D01*
X92290476Y-133347619D01*
X92338095Y-133300000D01*
X92290476Y-133252380D01*
X92290476Y-133347619D01*
X92766666Y-133585714D02*
X92766666Y-134252380D01*
X92766666Y-133680952D02*
X92814285Y-133633333D01*
X92909523Y-133585714D01*
X93052380Y-133585714D01*
X93147619Y-133633333D01*
X93195238Y-133728571D01*
X93195238Y-134252380D01*
X94100000Y-133585714D02*
X94100000Y-134395238D01*
X94052380Y-134490476D01*
X94004761Y-134538095D01*
X93909523Y-134585714D01*
X93766666Y-134585714D01*
X93671428Y-134538095D01*
X94100000Y-134204761D02*
X94004761Y-134252380D01*
X93814285Y-134252380D01*
X93719047Y-134204761D01*
X93671428Y-134157142D01*
X93623809Y-134061904D01*
X93623809Y-133776190D01*
X93671428Y-133680952D01*
X93719047Y-133633333D01*
X93814285Y-133585714D01*
X94004761Y-133585714D01*
X94100000Y-133633333D01*
X94528571Y-133347619D02*
X94576190Y-133300000D01*
X94671428Y-133252380D01*
X94909523Y-133252380D01*
X95004761Y-133300000D01*
X95052380Y-133347619D01*
X95100000Y-133442857D01*
X95100000Y-133538095D01*
X95052380Y-133680952D01*
X94480952Y-134252380D01*
X95100000Y-134252380D01*
X91925166Y-126393680D02*
X91925166Y-127107966D01*
X91877547Y-127250823D01*
X91782309Y-127346061D01*
X91639452Y-127393680D01*
X91544214Y-127393680D01*
X92353738Y-126488919D02*
X92401357Y-126441300D01*
X92496595Y-126393680D01*
X92734690Y-126393680D01*
X92829928Y-126441300D01*
X92877547Y-126488919D01*
X92925166Y-126584157D01*
X92925166Y-126679395D01*
X92877547Y-126822252D01*
X92306119Y-127393680D01*
X92925166Y-127393680D01*
X90100000Y-121204761D02*
X90242857Y-121252380D01*
X90480952Y-121252380D01*
X90576190Y-121204761D01*
X90623809Y-121157142D01*
X90671428Y-121061904D01*
X90671428Y-120966666D01*
X90623809Y-120871428D01*
X90576190Y-120823809D01*
X90480952Y-120776190D01*
X90290476Y-120728571D01*
X90195238Y-120680952D01*
X90147619Y-120633333D01*
X90100000Y-120538095D01*
X90100000Y-120442857D01*
X90147619Y-120347619D01*
X90195238Y-120300000D01*
X90290476Y-120252380D01*
X90528571Y-120252380D01*
X90671428Y-120300000D01*
X90957142Y-120585714D02*
X91338095Y-120585714D01*
X91100000Y-120252380D02*
X91100000Y-121109523D01*
X91147619Y-121204761D01*
X91242857Y-121252380D01*
X91338095Y-121252380D01*
X91671428Y-121252380D02*
X91671428Y-120585714D01*
X91671428Y-120776190D02*
X91719047Y-120680952D01*
X91766666Y-120633333D01*
X91861904Y-120585714D01*
X91957142Y-120585714D01*
X92290476Y-121252380D02*
X92290476Y-120585714D01*
X92290476Y-120252380D02*
X92242857Y-120300000D01*
X92290476Y-120347619D01*
X92338095Y-120300000D01*
X92290476Y-120252380D01*
X92290476Y-120347619D01*
X92766666Y-120585714D02*
X92766666Y-121252380D01*
X92766666Y-120680952D02*
X92814285Y-120633333D01*
X92909523Y-120585714D01*
X93052380Y-120585714D01*
X93147619Y-120633333D01*
X93195238Y-120728571D01*
X93195238Y-121252380D01*
X94100000Y-120585714D02*
X94100000Y-121395238D01*
X94052380Y-121490476D01*
X94004761Y-121538095D01*
X93909523Y-121585714D01*
X93766666Y-121585714D01*
X93671428Y-121538095D01*
X94100000Y-121204761D02*
X94004761Y-121252380D01*
X93814285Y-121252380D01*
X93719047Y-121204761D01*
X93671428Y-121157142D01*
X93623809Y-121061904D01*
X93623809Y-120776190D01*
X93671428Y-120680952D01*
X93719047Y-120633333D01*
X93814285Y-120585714D01*
X94004761Y-120585714D01*
X94100000Y-120633333D01*
X95100000Y-121252380D02*
X94528571Y-121252380D01*
X94814285Y-121252380D02*
X94814285Y-120252380D01*
X94719047Y-120395238D01*
X94623809Y-120490476D01*
X94528571Y-120538095D01*
X92266666Y-112502380D02*
X92266666Y-113216666D01*
X92219047Y-113359523D01*
X92123809Y-113454761D01*
X91980952Y-113502380D01*
X91885714Y-113502380D01*
X93266666Y-113502380D02*
X92695238Y-113502380D01*
X92980952Y-113502380D02*
X92980952Y-112502380D01*
X92885714Y-112645238D01*
X92790476Y-112740476D01*
X92695238Y-112788095D01*
D14*
X143893480Y-146710742D02*
X143893480Y-146091695D01*
X144274433Y-146425028D01*
X144274433Y-146282171D01*
X144322052Y-146186933D01*
X144369671Y-146139314D01*
X144464909Y-146091695D01*
X144703004Y-146091695D01*
X144798242Y-146139314D01*
X144845861Y-146186933D01*
X144893480Y-146282171D01*
X144893480Y-146567885D01*
X144845861Y-146663123D01*
X144798242Y-146710742D01*
X143893480Y-145186933D02*
X143893480Y-145663123D01*
X144369671Y-145710742D01*
X144322052Y-145663123D01*
X144274433Y-145567885D01*
X144274433Y-145329790D01*
X144322052Y-145234552D01*
X144369671Y-145186933D01*
X144464909Y-145139314D01*
X144703004Y-145139314D01*
X144798242Y-145186933D01*
X144845861Y-145234552D01*
X144893480Y-145329790D01*
X144893480Y-145567885D01*
X144845861Y-145663123D01*
X144798242Y-145710742D01*
X144226814Y-144282171D02*
X144893480Y-144282171D01*
X143845861Y-144520266D02*
X144560147Y-144758361D01*
X144560147Y-144139314D01*
X144226814Y-143329790D02*
X144893480Y-143329790D01*
X143845861Y-143567885D02*
X144560147Y-143805980D01*
X144560147Y-143186933D01*
X144512528Y-142805980D02*
X144512528Y-142044076D01*
X143988719Y-141615504D02*
X143941100Y-141567885D01*
X143893480Y-141472647D01*
X143893480Y-141234552D01*
X143941100Y-141139314D01*
X143988719Y-141091695D01*
X144083957Y-141044076D01*
X144179195Y-141044076D01*
X144322052Y-141091695D01*
X144893480Y-141663123D01*
X144893480Y-141044076D01*
X138068380Y-147186142D02*
X138068380Y-146567095D01*
X138449333Y-146900428D01*
X138449333Y-146757571D01*
X138496952Y-146662333D01*
X138544571Y-146614714D01*
X138639809Y-146567095D01*
X138877904Y-146567095D01*
X138973142Y-146614714D01*
X139020761Y-146662333D01*
X139068380Y-146757571D01*
X139068380Y-147043285D01*
X139020761Y-147138523D01*
X138973142Y-147186142D01*
X138068380Y-145662333D02*
X138068380Y-146138523D01*
X138544571Y-146186142D01*
X138496952Y-146138523D01*
X138449333Y-146043285D01*
X138449333Y-145805190D01*
X138496952Y-145709952D01*
X138544571Y-145662333D01*
X138639809Y-145614714D01*
X138877904Y-145614714D01*
X138973142Y-145662333D01*
X139020761Y-145709952D01*
X139068380Y-145805190D01*
X139068380Y-146043285D01*
X139020761Y-146138523D01*
X138973142Y-146186142D01*
X138401714Y-144757571D02*
X139068380Y-144757571D01*
X138020761Y-144995666D02*
X138735047Y-145233761D01*
X138735047Y-144614714D01*
X138401714Y-143805190D02*
X139068380Y-143805190D01*
X138020761Y-144043285D02*
X138735047Y-144281380D01*
X138735047Y-143662333D01*
X138687428Y-143281380D02*
X138687428Y-142519476D01*
X138163619Y-142090904D02*
X138116000Y-142043285D01*
X138068380Y-141948047D01*
X138068380Y-141709952D01*
X138116000Y-141614714D01*
X138163619Y-141567095D01*
X138258857Y-141519476D01*
X138354095Y-141519476D01*
X138496952Y-141567095D01*
X139068380Y-142138523D01*
X139068380Y-141519476D01*
X132299980Y-147248042D02*
X132299980Y-146628995D01*
X132680933Y-146962328D01*
X132680933Y-146819471D01*
X132728552Y-146724233D01*
X132776171Y-146676614D01*
X132871409Y-146628995D01*
X133109504Y-146628995D01*
X133204742Y-146676614D01*
X133252361Y-146724233D01*
X133299980Y-146819471D01*
X133299980Y-147105185D01*
X133252361Y-147200423D01*
X133204742Y-147248042D01*
X132299980Y-145724233D02*
X132299980Y-146200423D01*
X132776171Y-146248042D01*
X132728552Y-146200423D01*
X132680933Y-146105185D01*
X132680933Y-145867090D01*
X132728552Y-145771852D01*
X132776171Y-145724233D01*
X132871409Y-145676614D01*
X133109504Y-145676614D01*
X133204742Y-145724233D01*
X133252361Y-145771852D01*
X133299980Y-145867090D01*
X133299980Y-146105185D01*
X133252361Y-146200423D01*
X133204742Y-146248042D01*
X132633314Y-144819471D02*
X133299980Y-144819471D01*
X132252361Y-145057566D02*
X132966647Y-145295661D01*
X132966647Y-144676614D01*
X132633314Y-143867090D02*
X133299980Y-143867090D01*
X132252361Y-144105185D02*
X132966647Y-144343280D01*
X132966647Y-143724233D01*
X132919028Y-143343280D02*
X132919028Y-142581376D01*
X132395219Y-142152804D02*
X132347600Y-142105185D01*
X132299980Y-142009947D01*
X132299980Y-141771852D01*
X132347600Y-141676614D01*
X132395219Y-141628995D01*
X132490457Y-141581376D01*
X132585695Y-141581376D01*
X132728552Y-141628995D01*
X133299980Y-142200423D01*
X133299980Y-141581376D01*
X113169980Y-147253842D02*
X113169980Y-146634795D01*
X113550933Y-146968128D01*
X113550933Y-146825271D01*
X113598552Y-146730033D01*
X113646171Y-146682414D01*
X113741409Y-146634795D01*
X113979504Y-146634795D01*
X114074742Y-146682414D01*
X114122361Y-146730033D01*
X114169980Y-146825271D01*
X114169980Y-147110985D01*
X114122361Y-147206223D01*
X114074742Y-147253842D01*
X113169980Y-145730033D02*
X113169980Y-146206223D01*
X113646171Y-146253842D01*
X113598552Y-146206223D01*
X113550933Y-146110985D01*
X113550933Y-145872890D01*
X113598552Y-145777652D01*
X113646171Y-145730033D01*
X113741409Y-145682414D01*
X113979504Y-145682414D01*
X114074742Y-145730033D01*
X114122361Y-145777652D01*
X114169980Y-145872890D01*
X114169980Y-146110985D01*
X114122361Y-146206223D01*
X114074742Y-146253842D01*
X113503314Y-144825271D02*
X114169980Y-144825271D01*
X113122361Y-145063366D02*
X113836647Y-145301461D01*
X113836647Y-144682414D01*
X113503314Y-143872890D02*
X114169980Y-143872890D01*
X113122361Y-144110985D02*
X113836647Y-144349080D01*
X113836647Y-143730033D01*
X113789028Y-143349080D02*
X113789028Y-142587176D01*
X113265219Y-142158604D02*
X113217600Y-142110985D01*
X113169980Y-142015747D01*
X113169980Y-141777652D01*
X113217600Y-141682414D01*
X113265219Y-141634795D01*
X113360457Y-141587176D01*
X113455695Y-141587176D01*
X113598552Y-141634795D01*
X114169980Y-142206223D01*
X114169980Y-141587176D01*
X102169980Y-147241942D02*
X102169980Y-146622895D01*
X102550933Y-146956228D01*
X102550933Y-146813371D01*
X102598552Y-146718133D01*
X102646171Y-146670514D01*
X102741409Y-146622895D01*
X102979504Y-146622895D01*
X103074742Y-146670514D01*
X103122361Y-146718133D01*
X103169980Y-146813371D01*
X103169980Y-147099085D01*
X103122361Y-147194323D01*
X103074742Y-147241942D01*
X102169980Y-145718133D02*
X102169980Y-146194323D01*
X102646171Y-146241942D01*
X102598552Y-146194323D01*
X102550933Y-146099085D01*
X102550933Y-145860990D01*
X102598552Y-145765752D01*
X102646171Y-145718133D01*
X102741409Y-145670514D01*
X102979504Y-145670514D01*
X103074742Y-145718133D01*
X103122361Y-145765752D01*
X103169980Y-145860990D01*
X103169980Y-146099085D01*
X103122361Y-146194323D01*
X103074742Y-146241942D01*
X102503314Y-144813371D02*
X103169980Y-144813371D01*
X102122361Y-145051466D02*
X102836647Y-145289561D01*
X102836647Y-144670514D01*
X102503314Y-143860990D02*
X103169980Y-143860990D01*
X102122361Y-144099085D02*
X102836647Y-144337180D01*
X102836647Y-143718133D01*
X102789028Y-143337180D02*
X102789028Y-142575276D01*
X102265219Y-142146704D02*
X102217600Y-142099085D01*
X102169980Y-142003847D01*
X102169980Y-141765752D01*
X102217600Y-141670514D01*
X102265219Y-141622895D01*
X102360457Y-141575276D01*
X102455695Y-141575276D01*
X102598552Y-141622895D01*
X103169980Y-142194323D01*
X103169980Y-141575276D01*
X96314880Y-147088842D02*
X96314880Y-146469795D01*
X96695833Y-146803128D01*
X96695833Y-146660271D01*
X96743452Y-146565033D01*
X96791071Y-146517414D01*
X96886309Y-146469795D01*
X97124404Y-146469795D01*
X97219642Y-146517414D01*
X97267261Y-146565033D01*
X97314880Y-146660271D01*
X97314880Y-146945985D01*
X97267261Y-147041223D01*
X97219642Y-147088842D01*
X96314880Y-145565033D02*
X96314880Y-146041223D01*
X96791071Y-146088842D01*
X96743452Y-146041223D01*
X96695833Y-145945985D01*
X96695833Y-145707890D01*
X96743452Y-145612652D01*
X96791071Y-145565033D01*
X96886309Y-145517414D01*
X97124404Y-145517414D01*
X97219642Y-145565033D01*
X97267261Y-145612652D01*
X97314880Y-145707890D01*
X97314880Y-145945985D01*
X97267261Y-146041223D01*
X97219642Y-146088842D01*
X96648214Y-144660271D02*
X97314880Y-144660271D01*
X96267261Y-144898366D02*
X96981547Y-145136461D01*
X96981547Y-144517414D01*
X96648214Y-143707890D02*
X97314880Y-143707890D01*
X96267261Y-143945985D02*
X96981547Y-144184080D01*
X96981547Y-143565033D01*
X96933928Y-143184080D02*
X96933928Y-142422176D01*
X96410119Y-141993604D02*
X96362500Y-141945985D01*
X96314880Y-141850747D01*
X96314880Y-141612652D01*
X96362500Y-141517414D01*
X96410119Y-141469795D01*
X96505357Y-141422176D01*
X96600595Y-141422176D01*
X96743452Y-141469795D01*
X97314880Y-142041223D01*
X97314880Y-141422176D01*
M02*
