%TF.GenerationSoftware,KiCad,Pcbnew,(6.0.9)*%
%TF.CreationDate,2023-01-01T21:08:56-05:00*%
%TF.ProjectId,Teensy_16,5465656e-7379-45f3-9136-2e6b69636164,v1*%
%TF.SameCoordinates,Original*%
%TF.FileFunction,Soldermask,Top*%
%TF.FilePolarity,Negative*%
%FSLAX46Y46*%
G04 Gerber Fmt 4.6, Leading zero omitted, Abs format (unit mm)*
G04 Created by KiCad (PCBNEW (6.0.9)) date 2023-01-01 21:08:56*
%MOMM*%
%LPD*%
G01*
G04 APERTURE LIST*
G04 Aperture macros list*
%AMRoundRect*
0 Rectangle with rounded corners*
0 $1 Rounding radius*
0 $2 $3 $4 $5 $6 $7 $8 $9 X,Y pos of 4 corners*
0 Add a 4 corners polygon primitive as box body*
4,1,4,$2,$3,$4,$5,$6,$7,$8,$9,$2,$3,0*
0 Add four circle primitives for the rounded corners*
1,1,$1+$1,$2,$3*
1,1,$1+$1,$4,$5*
1,1,$1+$1,$6,$7*
1,1,$1+$1,$8,$9*
0 Add four rect primitives between the rounded corners*
20,1,$1+$1,$2,$3,$4,$5,0*
20,1,$1+$1,$4,$5,$6,$7,0*
20,1,$1+$1,$6,$7,$8,$9,0*
20,1,$1+$1,$8,$9,$2,$3,0*%
G04 Aperture macros list end*
%ADD10RoundRect,0.288500X-0.300000X-0.237500X0.300000X-0.237500X0.300000X0.237500X-0.300000X0.237500X0*%
%ADD11C,2.577000*%
%ADD12RoundRect,0.301000X-0.650000X-1.550000X0.650000X-1.550000X0.650000X1.550000X-0.650000X1.550000X0*%
%ADD13O,1.902000X3.702000*%
%ADD14RoundRect,0.051000X-0.450000X-0.600000X0.450000X-0.600000X0.450000X0.600000X-0.450000X0.600000X0*%
%ADD15RoundRect,0.288500X0.237500X-0.250000X0.237500X0.250000X-0.237500X0.250000X-0.237500X-0.250000X0*%
%ADD16C,3.802000*%
%ADD17C,5.000000*%
%ADD18C,1.802000*%
%ADD19RoundRect,0.288500X-0.237500X0.287500X-0.237500X-0.287500X0.237500X-0.287500X0.237500X0.287500X0*%
%ADD20RoundRect,0.288500X-0.237500X0.250000X-0.237500X-0.250000X0.237500X-0.250000X0.237500X0.250000X0*%
%ADD21RoundRect,0.288500X-0.287500X-0.237500X0.287500X-0.237500X0.287500X0.237500X-0.287500X0.237500X0*%
%ADD22RoundRect,0.301000X0.250000X0.475000X-0.250000X0.475000X-0.250000X-0.475000X0.250000X-0.475000X0*%
%ADD23RoundRect,0.051000X-0.279400X1.079500X-0.279400X-1.079500X0.279400X-1.079500X0.279400X1.079500X0*%
%ADD24RoundRect,0.201000X0.825000X0.150000X-0.825000X0.150000X-0.825000X-0.150000X0.825000X-0.150000X0*%
%ADD25C,3.352000*%
%ADD26RoundRect,0.301500X-0.499500X0.499500X-0.499500X-0.499500X0.499500X-0.499500X0.499500X0.499500X0*%
%ADD27C,1.602000*%
%ADD28C,2.602000*%
%ADD29RoundRect,0.051000X0.750000X-0.500000X0.750000X0.500000X-0.750000X0.500000X-0.750000X-0.500000X0*%
%ADD30RoundRect,0.051000X-0.750000X0.500000X-0.750000X-0.500000X0.750000X-0.500000X0.750000X0.500000X0*%
%ADD31RoundRect,0.051000X2.000000X2.000000X-2.000000X2.000000X-2.000000X-2.000000X2.000000X-2.000000X0*%
%ADD32C,4.102000*%
%ADD33RoundRect,0.051000X-2.000000X-2.000000X2.000000X-2.000000X2.000000X2.000000X-2.000000X2.000000X0*%
%ADD34RoundRect,0.051000X0.765000X0.765000X-0.765000X0.765000X-0.765000X-0.765000X0.765000X-0.765000X0*%
%ADD35C,1.632000*%
%ADD36RoundRect,0.051000X-0.800000X-0.800000X0.800000X-0.800000X0.800000X0.800000X-0.800000X0.800000X0*%
%ADD37C,1.702000*%
%ADD38RoundRect,0.051000X-0.650000X-0.650000X0.650000X-0.650000X0.650000X0.650000X-0.650000X0.650000X0*%
%ADD39C,1.402000*%
%ADD40RoundRect,0.051000X-0.850000X0.850000X-0.850000X-0.850000X0.850000X-0.850000X0.850000X0.850000X0*%
%ADD41O,1.802000X1.802000*%
%ADD42RoundRect,0.051000X-1.000000X-0.750000X1.000000X-0.750000X1.000000X0.750000X-1.000000X0.750000X0*%
%ADD43RoundRect,0.051000X-1.000000X-1.900000X1.000000X-1.900000X1.000000X1.900000X-1.000000X1.900000X0*%
%ADD44RoundRect,0.301000X-0.725000X0.600000X-0.725000X-0.600000X0.725000X-0.600000X0.725000X0.600000X0*%
%ADD45O,2.052000X1.802000*%
%ADD46C,2.006000*%
%ADD47RoundRect,0.051000X-0.850000X-0.850000X0.850000X-0.850000X0.850000X0.850000X-0.850000X0.850000X0*%
%ADD48RoundRect,0.051000X-1.300000X1.300000X-1.300000X-1.300000X1.300000X-1.300000X1.300000X1.300000X0*%
%ADD49C,2.702000*%
%ADD50RoundRect,0.288500X-0.250000X-0.237500X0.250000X-0.237500X0.250000X0.237500X-0.250000X0.237500X0*%
%ADD51RoundRect,0.301000X0.550000X-1.500000X0.550000X1.500000X-0.550000X1.500000X-0.550000X-1.500000X0*%
%ADD52RoundRect,0.051000X1.000000X-1.000000X1.000000X1.000000X-1.000000X1.000000X-1.000000X-1.000000X0*%
%ADD53C,2.102000*%
%ADD54RoundRect,0.288500X0.250000X0.237500X-0.250000X0.237500X-0.250000X-0.237500X0.250000X-0.237500X0*%
%ADD55RoundRect,0.201000X-0.150000X0.587500X-0.150000X-0.587500X0.150000X-0.587500X0.150000X0.587500X0*%
G04 APERTURE END LIST*
D10*
%TO.C,C4*%
X-69087700Y23653700D03*
X-67362700Y23653700D03*
%TD*%
D11*
%TO.C,F18*%
X-126834600Y-5635100D03*
X-126834600Y-1935100D03*
X-126834600Y2564900D03*
X-126834600Y6264900D03*
%TD*%
D12*
%TO.C,J2*%
X-112017200Y3500D03*
D13*
X-108517200Y3500D03*
X-105017200Y3500D03*
%TD*%
D12*
%TO.C,J5*%
X-82017200Y13003500D03*
D13*
X-78517200Y13003500D03*
X-75017200Y13003500D03*
%TD*%
D12*
%TO.C,J6*%
X-81902858Y3500D03*
D13*
X-78402858Y3500D03*
X-74902858Y3500D03*
%TD*%
D12*
%TO.C,J7*%
X-67017200Y13003500D03*
D13*
X-63517200Y13003500D03*
X-60017200Y13003500D03*
%TD*%
D12*
%TO.C,J8*%
X-67017200Y3500D03*
D13*
X-63517200Y3500D03*
X-60017200Y3500D03*
%TD*%
D12*
%TO.C,J9*%
X-52017200Y13003500D03*
D13*
X-48517200Y13003500D03*
X-45017200Y13003500D03*
%TD*%
D12*
%TO.C,J10*%
X-52017200Y3500D03*
D13*
X-48517200Y3500D03*
X-45017200Y3500D03*
%TD*%
D12*
%TO.C,J11*%
X-37017200Y13003500D03*
D13*
X-33517200Y13003500D03*
X-30017200Y13003500D03*
%TD*%
D12*
%TO.C,J12*%
X-37017200Y3500D03*
D13*
X-33517200Y3500D03*
X-30017200Y3500D03*
%TD*%
D12*
%TO.C,J13*%
X-22017200Y13003500D03*
D13*
X-18517200Y13003500D03*
X-15017200Y13003500D03*
%TD*%
D12*
%TO.C,J14*%
X-22017200Y3500D03*
D13*
X-18517200Y3500D03*
X-15017200Y3500D03*
%TD*%
D12*
%TO.C,J15*%
X-7017200Y13003500D03*
D13*
X-3517200Y13003500D03*
X-17200Y13003500D03*
%TD*%
D12*
%TO.C,J16*%
X-7017200Y3500D03*
D13*
X-3517200Y3500D03*
X-17200Y3500D03*
%TD*%
D11*
%TO.C,F1*%
X-106894600Y-20685100D03*
X-106894600Y-16985100D03*
X-106894600Y-12485100D03*
X-106894600Y-8785100D03*
%TD*%
%TO.C,F7*%
X-66692002Y-20695100D03*
X-66692002Y-16995100D03*
X-66692002Y-12495100D03*
X-66692002Y-8795100D03*
%TD*%
%TO.C,F14*%
X-19788971Y-20760100D03*
X-19788971Y-17060100D03*
X-19788971Y-12560100D03*
X-19788971Y-8860100D03*
%TD*%
D10*
%TO.C,C3*%
X-27812700Y23703700D03*
X-26087700Y23703700D03*
%TD*%
D11*
%TO.C,F2*%
X-100194167Y-20700100D03*
X-100194167Y-17000100D03*
X-100194167Y-12500100D03*
X-100194167Y-8800100D03*
%TD*%
%TO.C,F6*%
X-73392435Y-20695100D03*
X-73392435Y-16995100D03*
X-73392435Y-12495100D03*
X-73392435Y-8795100D03*
%TD*%
%TO.C,F8*%
X-59991569Y-20695100D03*
X-59991569Y-16995100D03*
X-59991569Y-12495100D03*
X-59991569Y-8795100D03*
%TD*%
%TO.C,F9*%
X-53291136Y-20695100D03*
X-53291136Y-16995100D03*
X-53291136Y-12495100D03*
X-53291136Y-8795100D03*
%TD*%
%TO.C,F10*%
X-46590703Y-20695100D03*
X-46590703Y-16995100D03*
X-46590703Y-12495100D03*
X-46590703Y-8795100D03*
%TD*%
%TO.C,F16*%
X-6388100Y-20760100D03*
X-6388100Y-17060100D03*
X-6388100Y-12560100D03*
X-6388100Y-8860100D03*
%TD*%
%TO.C,F5*%
X-80092868Y-20695100D03*
X-80092868Y-16995100D03*
X-80092868Y-12495100D03*
X-80092868Y-8795100D03*
%TD*%
%TO.C,F3*%
X-93493734Y-20700100D03*
X-93493734Y-17000100D03*
X-93493734Y-12500100D03*
X-93493734Y-8800100D03*
%TD*%
%TO.C,F13*%
X-26489404Y-20760100D03*
X-26489404Y-17060100D03*
X-26489404Y-12560100D03*
X-26489404Y-8860100D03*
%TD*%
%TO.C,F11*%
X-39890270Y-20695100D03*
X-39890270Y-16995100D03*
X-39890270Y-12495100D03*
X-39890270Y-8795100D03*
%TD*%
%TO.C,F4*%
X-86793301Y-20700100D03*
X-86793301Y-17000100D03*
X-86793301Y-12500100D03*
X-86793301Y-8800100D03*
%TD*%
D12*
%TO.C,J1*%
X-112017200Y13003500D03*
D13*
X-108517200Y13003500D03*
X-105017200Y13003500D03*
%TD*%
D12*
%TO.C,J3*%
X-97017200Y13003500D03*
D13*
X-93517200Y13003500D03*
X-90017200Y13003500D03*
%TD*%
D12*
%TO.C,J4*%
X-97017200Y3500D03*
D13*
X-93517200Y3500D03*
X-90017200Y3500D03*
%TD*%
D14*
%TO.C,D1*%
X2849800Y22553700D03*
X6149800Y22553700D03*
%TD*%
D15*
%TO.C,R2*%
X-114950200Y27791200D03*
X-114950200Y29616200D03*
%TD*%
D11*
%TO.C,F15*%
X-13088538Y-20760100D03*
X-13088538Y-17060100D03*
X-13088538Y-12560100D03*
X-13088538Y-8860100D03*
%TD*%
%TO.C,F12*%
X-33189837Y-20695100D03*
X-33189837Y-16995100D03*
X-33189837Y-12495100D03*
X-33189837Y-8795100D03*
%TD*%
D16*
%TO.C,H4*%
X-119689600Y63284900D03*
%TD*%
D17*
%TO.C,J26*%
X-22300200Y42703700D03*
X999800Y42703700D03*
D18*
X-14450200Y42203700D03*
X-11950200Y42203700D03*
X-9350200Y42203700D03*
X-6850200Y42203700D03*
%TD*%
D19*
%TO.C,D5*%
X-122550200Y3378700D03*
X-122550200Y1628700D03*
%TD*%
%TO.C,D6*%
X8849800Y3578700D03*
X8849800Y1828700D03*
%TD*%
D16*
%TO.C,H2*%
X-119989600Y12484900D03*
%TD*%
D20*
%TO.C,R4*%
X-122550200Y-83800D03*
X-122550200Y-1908800D03*
%TD*%
%TO.C,R5*%
X8849800Y16200D03*
X8849800Y-1808800D03*
%TD*%
D21*
%TO.C,D4*%
X-23525200Y28203700D03*
X-21775200Y28203700D03*
%TD*%
D11*
%TO.C,F17*%
X13608800Y-5578300D03*
X13608800Y-1878300D03*
X13608800Y2621700D03*
X13608800Y6321700D03*
%TD*%
D22*
%TO.C,C5*%
X-89900200Y62003700D03*
X-91800200Y62003700D03*
%TD*%
D23*
%TO.C,U4*%
X-29785200Y30431900D03*
X-31055200Y30431900D03*
X-32325200Y30431900D03*
X-33595200Y30431900D03*
X-34865200Y30431900D03*
X-36135200Y30431900D03*
X-37405200Y30431900D03*
X-38675200Y30431900D03*
X-39945200Y30431900D03*
X-41215200Y30431900D03*
X-41215200Y23675500D03*
X-39945200Y23675500D03*
X-38675200Y23675500D03*
X-37405200Y23675500D03*
X-36135200Y23675500D03*
X-34865200Y23675500D03*
X-33595200Y23675500D03*
X-32325200Y23675500D03*
X-31055200Y23675500D03*
X-29785200Y23675500D03*
%TD*%
%TO.C,U3*%
X-71135200Y30431900D03*
X-72405200Y30431900D03*
X-73675200Y30431900D03*
X-74945200Y30431900D03*
X-76215200Y30431900D03*
X-77485200Y30431900D03*
X-78755200Y30431900D03*
X-80025200Y30431900D03*
X-81295200Y30431900D03*
X-82565200Y30431900D03*
X-82565200Y23675500D03*
X-81295200Y23675500D03*
X-80025200Y23675500D03*
X-78755200Y23675500D03*
X-77485200Y23675500D03*
X-76215200Y23675500D03*
X-74945200Y23675500D03*
X-73675200Y23675500D03*
X-72405200Y23675500D03*
X-71135200Y23675500D03*
%TD*%
D24*
%TO.C,U5*%
X-106175200Y25298700D03*
X-106175200Y26568700D03*
X-106175200Y27838700D03*
X-106175200Y29108700D03*
X-111125200Y29108700D03*
X-111125200Y27838700D03*
X-111125200Y26568700D03*
X-111125200Y25298700D03*
%TD*%
D25*
%TO.C,J20*%
X-103950200Y64618700D03*
X-103950200Y53188700D03*
D26*
X-97600200Y63348700D03*
D27*
X-95060200Y62078700D03*
X-97600200Y60808700D03*
X-95060200Y59538700D03*
X-97600200Y58268700D03*
X-95060200Y56998700D03*
X-97600200Y55728700D03*
X-95060200Y54458700D03*
X-109030200Y65228700D03*
X-107330200Y62688700D03*
X-109030200Y55118700D03*
X-107330200Y52578700D03*
D28*
X-100900200Y51028700D03*
X-100900200Y66778700D03*
%TD*%
D29*
%TO.C,PIN4*%
X-4792700Y49103700D03*
X-4792700Y50403700D03*
X-4792700Y51703700D03*
%TD*%
D30*
%TO.C,PIN3*%
X-11892700Y51703700D03*
X-11892700Y50403700D03*
X-11892700Y49103700D03*
%TD*%
D31*
%TO.C,J17*%
X-115550200Y-15796300D03*
D32*
X-125050200Y-15796300D03*
%TD*%
D33*
%TO.C,J18*%
X2449800Y-15796300D03*
D32*
X11949800Y-15796300D03*
%TD*%
D34*
%TO.C,J24*%
X-43880200Y64173700D03*
D35*
X-43880200Y61633700D03*
X-46420200Y64173700D03*
X-46420200Y61633700D03*
X-48960200Y64173700D03*
X-48960200Y61633700D03*
X-51500200Y64173700D03*
X-51500200Y61633700D03*
X-54040200Y64173700D03*
X-54040200Y61633700D03*
X-56580200Y64173700D03*
X-56580200Y61633700D03*
X-59120200Y64173700D03*
X-59120200Y61633700D03*
X-61660200Y64173700D03*
X-61660200Y61633700D03*
X-64200200Y64173700D03*
X-64200200Y61633700D03*
X-66740200Y64173700D03*
X-66740200Y61633700D03*
X-69280200Y64173700D03*
X-69280200Y61633700D03*
X-71820200Y64173700D03*
X-71820200Y61633700D03*
%TD*%
D36*
%TO.C,U1*%
X-90860200Y35583700D03*
D37*
X-88320200Y35583700D03*
X-85780200Y35583700D03*
X-83240200Y35583700D03*
X-80700200Y35583700D03*
X-78160200Y35583700D03*
X-75620200Y35583700D03*
X-73080200Y35583700D03*
X-70540200Y35583700D03*
X-68000200Y35583700D03*
X-65460200Y35583700D03*
X-62920200Y35583700D03*
X-60380200Y35583700D03*
X-57840200Y35583700D03*
X-55300200Y35583700D03*
X-52760200Y35583700D03*
X-50220200Y35583700D03*
X-47680200Y35583700D03*
X-45140200Y35583700D03*
X-42600200Y35583700D03*
X-40060200Y35583700D03*
X-37520200Y35583700D03*
X-34980200Y35583700D03*
X-32440200Y35583700D03*
X-32440200Y50823700D03*
X-34980200Y50823700D03*
X-37520200Y50823700D03*
X-40060200Y50823700D03*
X-42600200Y50823700D03*
X-45140200Y50823700D03*
X-47680200Y50823700D03*
X-50220200Y50823700D03*
X-52760200Y50823700D03*
X-55300200Y50823700D03*
X-57840200Y50823700D03*
X-60380200Y50823700D03*
X-62920200Y50823700D03*
X-65460200Y50823700D03*
X-68000200Y50823700D03*
X-70540200Y50823700D03*
X-73080200Y50823700D03*
X-75620200Y50823700D03*
X-78160200Y50823700D03*
X-80700200Y50823700D03*
X-83240200Y50823700D03*
X-85780200Y50823700D03*
X-88320200Y50823700D03*
X-90860200Y50823700D03*
X-88320200Y48283700D03*
X-45140200Y38123700D03*
X-45140200Y40663700D03*
X-45140200Y43203700D03*
X-45140200Y45743700D03*
X-45140200Y48283700D03*
D36*
X-84561000Y38634500D03*
D37*
X-82021000Y38634500D03*
X-79481000Y38634500D03*
X-76941000Y38634500D03*
X-74401000Y38634500D03*
D38*
X-77890200Y48385300D03*
D39*
X-77890200Y46385300D03*
X-77890200Y44385300D03*
X-75890200Y44385300D03*
X-75890200Y46385300D03*
X-75890200Y48385300D03*
X-90130200Y44473700D03*
X-90130200Y41933700D03*
%TD*%
D16*
%TO.C,H1*%
X7010400Y12484900D03*
%TD*%
D40*
%TO.C,J23*%
X-5625200Y25303700D03*
D41*
X-8165200Y25303700D03*
X-10705200Y25303700D03*
%TD*%
D42*
%TO.C,U2*%
X8699800Y34503700D03*
D43*
X14999800Y32203700D03*
D42*
X8699800Y32203700D03*
X8699800Y29903700D03*
%TD*%
D44*
%TO.C,J19*%
X-123950200Y49603700D03*
D45*
X-123950200Y47103700D03*
X-123950200Y44603700D03*
X-123950200Y42103700D03*
%TD*%
D46*
%TO.C,J27*%
X14000259Y20398140D03*
X14000259Y24208140D03*
%TD*%
D47*
%TO.C,J28*%
X15049800Y15503700D03*
D41*
X15049800Y12963700D03*
X15049800Y10423700D03*
%TD*%
D48*
%TO.C,J22*%
X-125650200Y35403700D03*
D49*
X-125650200Y30403700D03*
X-125650200Y25403700D03*
X-125650200Y20403700D03*
%TD*%
D15*
%TO.C,R9*%
X-119100200Y20441200D03*
X-119100200Y22266200D03*
%TD*%
%TO.C,R10*%
X-119100200Y23841200D03*
X-119100200Y25666200D03*
%TD*%
D50*
%TO.C,R3*%
X-27162700Y28203700D03*
X-25337700Y28203700D03*
%TD*%
D51*
%TO.C,C2*%
X-16850200Y26353700D03*
X-16850200Y31753700D03*
%TD*%
D52*
%TO.C,C1*%
X1049800Y29736023D03*
D53*
X1049800Y34736023D03*
%TD*%
D54*
%TO.C,R8*%
X-118037700Y51703700D03*
X-119862700Y51703700D03*
%TD*%
%TO.C,R12*%
X15887300Y47278700D03*
X14062300Y47278700D03*
%TD*%
D50*
%TO.C,R13*%
X14062300Y48953700D03*
X15887300Y48953700D03*
%TD*%
D16*
%TO.C,H5*%
X7010400Y63284887D03*
%TD*%
D50*
%TO.C,R31*%
X-28362700Y18803700D03*
X-26537700Y18803700D03*
%TD*%
D54*
%TO.C,R22*%
X-76712700Y18753700D03*
X-78537700Y18753700D03*
%TD*%
D50*
%TO.C,R20*%
X-70662700Y18753700D03*
X-68837700Y18753700D03*
%TD*%
D54*
%TO.C,R26*%
X-102137700Y18753700D03*
X-103962700Y18753700D03*
%TD*%
%TO.C,R25*%
X-95762700Y18753700D03*
X-97587700Y18753700D03*
%TD*%
D55*
%TO.C,Q1*%
X5649800Y20341200D03*
X3749800Y20341200D03*
X4699800Y18466200D03*
%TD*%
D54*
%TO.C,R23*%
X-81837700Y18753700D03*
X-83662700Y18753700D03*
%TD*%
%TO.C,R33*%
X-39587700Y18703700D03*
X-41412700Y18703700D03*
%TD*%
D50*
%TO.C,R19*%
X-67062700Y18753700D03*
X-65237700Y18753700D03*
%TD*%
%TO.C,R11*%
X10337300Y48903700D03*
X12162300Y48903700D03*
%TD*%
D54*
%TO.C,R34*%
X-43987700Y18703700D03*
X-45812700Y18703700D03*
%TD*%
%TO.C,R24*%
X-88987700Y18753700D03*
X-90812700Y18753700D03*
%TD*%
D50*
%TO.C,R32*%
X-37962700Y18703700D03*
X-36137700Y18703700D03*
%TD*%
%TO.C,R27*%
X-8162700Y18803700D03*
X-6337700Y18803700D03*
%TD*%
D20*
%TO.C,R14*%
X7699800Y24366200D03*
X7699800Y22541200D03*
%TD*%
D50*
%TO.C,R28*%
X-11712700Y18803700D03*
X-9887700Y18803700D03*
%TD*%
%TO.C,R29*%
X-15512700Y18803700D03*
X-13687700Y18803700D03*
%TD*%
%TO.C,R30*%
X-23262700Y18753700D03*
X-21437700Y18753700D03*
%TD*%
%TO.C,R21*%
X-74112700Y18753700D03*
X-72287700Y18753700D03*
%TD*%
G36*
X-11126032Y49857035D02*
G01*
X-11125642Y49855073D01*
X-11126001Y49854433D01*
X-11169189Y49802754D01*
X-11177820Y49734039D01*
X-11147856Y49671409D01*
X-11127018Y49653352D01*
X-11126364Y49651462D01*
X-11127674Y49649951D01*
X-11128718Y49649879D01*
X-11142899Y49652700D01*
X-12642501Y49652700D01*
X-12657474Y49649722D01*
X-12659368Y49650365D01*
X-12659758Y49652327D01*
X-12659399Y49652967D01*
X-12616211Y49704646D01*
X-12607580Y49773361D01*
X-12637544Y49835991D01*
X-12658382Y49854048D01*
X-12659036Y49855938D01*
X-12657726Y49857449D01*
X-12656682Y49857521D01*
X-12642501Y49854700D01*
X-11142899Y49854700D01*
X-11127926Y49857678D01*
X-11126032Y49857035D01*
G37*
G36*
X-4026032Y49857035D02*
G01*
X-4025642Y49855073D01*
X-4026001Y49854433D01*
X-4069189Y49802754D01*
X-4077820Y49734039D01*
X-4047856Y49671409D01*
X-4027018Y49653352D01*
X-4026364Y49651462D01*
X-4027674Y49649951D01*
X-4028718Y49649879D01*
X-4042899Y49652700D01*
X-5542501Y49652700D01*
X-5557474Y49649722D01*
X-5559368Y49650365D01*
X-5559758Y49652327D01*
X-5559399Y49652967D01*
X-5516211Y49704646D01*
X-5507580Y49773361D01*
X-5537544Y49835991D01*
X-5558382Y49854048D01*
X-5559036Y49855938D01*
X-5557726Y49857449D01*
X-5556682Y49857521D01*
X-5542501Y49854700D01*
X-4042899Y49854700D01*
X-4027926Y49857678D01*
X-4026032Y49857035D01*
G37*
G36*
X-11126032Y51157035D02*
G01*
X-11125642Y51155073D01*
X-11126001Y51154433D01*
X-11169189Y51102754D01*
X-11177820Y51034039D01*
X-11147856Y50971409D01*
X-11127018Y50953352D01*
X-11126364Y50951462D01*
X-11127674Y50949951D01*
X-11128718Y50949879D01*
X-11142899Y50952700D01*
X-12642501Y50952700D01*
X-12657474Y50949722D01*
X-12659368Y50950365D01*
X-12659758Y50952327D01*
X-12659399Y50952967D01*
X-12616211Y51004646D01*
X-12607580Y51073361D01*
X-12637544Y51135991D01*
X-12658382Y51154048D01*
X-12659036Y51155938D01*
X-12657726Y51157449D01*
X-12656682Y51157521D01*
X-12642501Y51154700D01*
X-11142899Y51154700D01*
X-11127926Y51157678D01*
X-11126032Y51157035D01*
G37*
G36*
X-4026032Y51157035D02*
G01*
X-4025642Y51155073D01*
X-4026001Y51154433D01*
X-4069189Y51102754D01*
X-4077820Y51034039D01*
X-4047856Y50971409D01*
X-4027018Y50953352D01*
X-4026364Y50951462D01*
X-4027674Y50949951D01*
X-4028718Y50949879D01*
X-4042899Y50952700D01*
X-5542501Y50952700D01*
X-5557474Y50949722D01*
X-5559368Y50950365D01*
X-5559758Y50952327D01*
X-5559399Y50952967D01*
X-5516211Y51004646D01*
X-5507580Y51073361D01*
X-5537544Y51135991D01*
X-5558382Y51154048D01*
X-5559036Y51155938D01*
X-5557726Y51157449D01*
X-5556682Y51157521D01*
X-5542501Y51154700D01*
X-4042899Y51154700D01*
X-4027926Y51157678D01*
X-4026032Y51157035D01*
G37*
M02*
