%TF.GenerationSoftware,KiCad,Pcbnew,(6.0.5)*%
%TF.CreationDate,2022-06-14T19:11:02-05:00*%
%TF.ProjectId,BBB_16_Expansion,4242425f-3136-45f4-9578-70616e73696f,v1*%
%TF.SameCoordinates,Original*%
%TF.FileFunction,Soldermask,Bot*%
%TF.FilePolarity,Negative*%
%FSLAX46Y46*%
G04 Gerber Fmt 4.6, Leading zero omitted, Abs format (unit mm)*
G04 Created by KiCad (PCBNEW (6.0.5)) date 2022-06-14 19:11:02*
%MOMM*%
%LPD*%
G01*
G04 APERTURE LIST*
G04 Aperture macros list*
%AMRoundRect*
0 Rectangle with rounded corners*
0 $1 Rounding radius*
0 $2 $3 $4 $5 $6 $7 $8 $9 X,Y pos of 4 corners*
0 Add a 4 corners polygon primitive as box body*
4,1,4,$2,$3,$4,$5,$6,$7,$8,$9,$2,$3,0*
0 Add four circle primitives for the rounded corners*
1,1,$1+$1,$2,$3*
1,1,$1+$1,$4,$5*
1,1,$1+$1,$6,$7*
1,1,$1+$1,$8,$9*
0 Add four rect primitives between the rounded corners*
20,1,$1+$1,$2,$3,$4,$5,0*
20,1,$1+$1,$4,$5,$6,$7,0*
20,1,$1+$1,$6,$7,$8,$9,0*
20,1,$1+$1,$8,$9,$2,$3,0*%
G04 Aperture macros list end*
%ADD10RoundRect,0.051000X1.000000X-1.000000X1.000000X1.000000X-1.000000X1.000000X-1.000000X-1.000000X0*%
%ADD11C,2.102000*%
%ADD12RoundRect,0.051000X-0.850000X0.850000X-0.850000X-0.850000X0.850000X-0.850000X0.850000X0.850000X0*%
%ADD13O,1.802000X1.802000*%
%ADD14RoundRect,0.301000X-1.550000X0.650000X-1.550000X-0.650000X1.550000X-0.650000X1.550000X0.650000X0*%
%ADD15O,3.702000X1.902000*%
%ADD16C,3.602000*%
%ADD17RoundRect,0.051000X0.850000X0.850000X-0.850000X0.850000X-0.850000X-0.850000X0.850000X-0.850000X0*%
%ADD18RoundRect,0.051000X1.300000X1.300000X-1.300000X1.300000X-1.300000X-1.300000X1.300000X-1.300000X0*%
%ADD19C,2.702000*%
%ADD20C,5.000000*%
%ADD21C,1.802000*%
%ADD22RoundRect,0.051000X-0.765000X-0.765000X0.765000X-0.765000X0.765000X0.765000X-0.765000X0.765000X0*%
%ADD23C,1.632000*%
%ADD24RoundRect,0.051000X-0.765000X0.765000X-0.765000X-0.765000X0.765000X-0.765000X0.765000X0.765000X0*%
%ADD25RoundRect,0.051000X-0.900000X-0.900000X0.900000X-0.900000X0.900000X0.900000X-0.900000X0.900000X0*%
%ADD26C,1.902000*%
%ADD27C,4.674000*%
%ADD28C,2.577000*%
%ADD29RoundRect,0.051000X-0.900000X0.900000X-0.900000X-0.900000X0.900000X-0.900000X0.900000X0.900000X0*%
%ADD30C,1.626000*%
G04 APERTURE END LIST*
D10*
%TO.C,C1*%
X186716000Y-66801677D03*
D11*
X186716000Y-61801677D03*
%TD*%
D12*
%TO.C,J4*%
X236591000Y-69334000D03*
D13*
X234051000Y-69334000D03*
X231511000Y-69334000D03*
X228971000Y-69334000D03*
X226431000Y-69334000D03*
%TD*%
D14*
%TO.C,J7*%
X145916000Y-108334000D03*
D15*
X145916000Y-111834000D03*
X145916000Y-115334000D03*
%TD*%
D14*
%TO.C,J8*%
X145873500Y-121251500D03*
D15*
X145873500Y-124751500D03*
X145873500Y-128251500D03*
%TD*%
D11*
%TO.C,SW1*%
X226566000Y-88084000D03*
X220066000Y-88084000D03*
X226566000Y-92584000D03*
X220066000Y-92584000D03*
%TD*%
%TO.C,SW5*%
X213510000Y-109474000D03*
X207010000Y-109474000D03*
X213510000Y-113974000D03*
X207010000Y-113974000D03*
%TD*%
%TO.C,SW4*%
X193952000Y-109728000D03*
X187452000Y-109728000D03*
X193952000Y-114228000D03*
X187452000Y-114228000D03*
%TD*%
%TO.C,SW2*%
X203604000Y-105156000D03*
X197104000Y-105156000D03*
X203604000Y-109656000D03*
X197104000Y-109656000D03*
%TD*%
%TO.C,SW3*%
X203604000Y-113030000D03*
X197104000Y-113030000D03*
X203604000Y-117530000D03*
X197104000Y-117530000D03*
%TD*%
D16*
%TO.C,H3*%
X233416000Y-60234000D03*
%TD*%
D17*
%TO.C,J10*%
X177116000Y-65821041D03*
D13*
X177116000Y-63281041D03*
X177116000Y-60741041D03*
%TD*%
D16*
%TO.C,H1*%
X144416000Y-136234000D03*
%TD*%
%TO.C,H2*%
X233416000Y-136234000D03*
%TD*%
%TO.C,H4*%
X144416000Y-60234000D03*
%TD*%
D18*
%TO.C,J6*%
X156216000Y-60834000D03*
D19*
X151216000Y-60834000D03*
%TD*%
D20*
%TO.C,J5*%
X212310000Y-97544000D03*
X189010000Y-97544000D03*
D21*
X196860000Y-98044000D03*
X199360000Y-98044000D03*
X201960000Y-98044000D03*
X204460000Y-98044000D03*
%TD*%
D22*
%TO.C,J2*%
X157546000Y-137004000D03*
D23*
X157546000Y-134464000D03*
X160086000Y-137004000D03*
X160086000Y-134464000D03*
X162626000Y-137004000D03*
X162626000Y-134464000D03*
X165166000Y-137004000D03*
X165166000Y-134464000D03*
X167706000Y-137004000D03*
X167706000Y-134464000D03*
X170246000Y-137004000D03*
X170246000Y-134464000D03*
X172786000Y-137004000D03*
X172786000Y-134464000D03*
X175326000Y-137004000D03*
X175326000Y-134464000D03*
X177866000Y-137004000D03*
X177866000Y-134464000D03*
X180406000Y-137004000D03*
X180406000Y-134464000D03*
X182946000Y-137004000D03*
X182946000Y-134464000D03*
X185486000Y-137004000D03*
X185486000Y-134464000D03*
%TD*%
D24*
%TO.C,J1*%
X144446000Y-71864000D03*
D23*
X146986000Y-71864000D03*
X144446000Y-74404000D03*
X146986000Y-74404000D03*
X144446000Y-76944000D03*
X146986000Y-76944000D03*
X144446000Y-79484000D03*
X146986000Y-79484000D03*
X144446000Y-82024000D03*
X146986000Y-82024000D03*
X144446000Y-84564000D03*
X146986000Y-84564000D03*
X144446000Y-87104000D03*
X146986000Y-87104000D03*
X144446000Y-89644000D03*
X146986000Y-89644000D03*
X144446000Y-92184000D03*
X146986000Y-92184000D03*
X144446000Y-94724000D03*
X146986000Y-94724000D03*
X144446000Y-97264000D03*
X146986000Y-97264000D03*
X144446000Y-99804000D03*
X146986000Y-99804000D03*
%TD*%
D22*
%TO.C,J3*%
X196346000Y-136926500D03*
D23*
X196346000Y-134386500D03*
X198886000Y-136926500D03*
X198886000Y-134386500D03*
X201426000Y-136926500D03*
X201426000Y-134386500D03*
X203966000Y-136926500D03*
X203966000Y-134386500D03*
X206506000Y-136926500D03*
X206506000Y-134386500D03*
X209046000Y-136926500D03*
X209046000Y-134386500D03*
X211586000Y-136926500D03*
X211586000Y-134386500D03*
X214126000Y-136926500D03*
X214126000Y-134386500D03*
X216666000Y-136926500D03*
X216666000Y-134386500D03*
X219206000Y-136926500D03*
X219206000Y-134386500D03*
X221746000Y-136926500D03*
X221746000Y-134386500D03*
X224286000Y-136926500D03*
X224286000Y-134386500D03*
%TD*%
D25*
%TO.C,U1*%
X218567000Y-124968000D03*
D26*
X218567000Y-127508000D03*
X216027000Y-124968000D03*
X216027000Y-127508000D03*
X213487000Y-124968000D03*
X213487000Y-127508000D03*
X210947000Y-124968000D03*
X210947000Y-127508000D03*
X208407000Y-124968000D03*
X208407000Y-127508000D03*
X205867000Y-124968000D03*
X205867000Y-127508000D03*
X203327000Y-124968000D03*
X203327000Y-127508000D03*
X200787000Y-124968000D03*
X200787000Y-127508000D03*
X198247000Y-124968000D03*
X198247000Y-127508000D03*
X195707000Y-124968000D03*
X195707000Y-127508000D03*
X193167000Y-124968000D03*
X193167000Y-127508000D03*
X190627000Y-124968000D03*
X190627000Y-127508000D03*
X188087000Y-124968000D03*
X188087000Y-127508000D03*
X185547000Y-124968000D03*
X185547000Y-127508000D03*
X183007000Y-124968000D03*
X183007000Y-127508000D03*
X180467000Y-124968000D03*
X180467000Y-127508000D03*
X177927000Y-124968000D03*
X177927000Y-127508000D03*
X175387000Y-124968000D03*
X175387000Y-127508000D03*
X172847000Y-124968000D03*
X172847000Y-127508000D03*
X170307000Y-124968000D03*
X170307000Y-127508000D03*
X167767000Y-124968000D03*
X167767000Y-127508000D03*
X165227000Y-124968000D03*
X165227000Y-127508000D03*
X162687000Y-124968000D03*
X162687000Y-127508000D03*
D25*
X218567000Y-76708000D03*
D26*
X218567000Y-79248000D03*
X216027000Y-76708000D03*
X216027000Y-79248000D03*
X213487000Y-76708000D03*
X213487000Y-79248000D03*
X210947000Y-76708000D03*
X210947000Y-79248000D03*
X208407000Y-76708000D03*
X208407000Y-79248000D03*
X205867000Y-76708000D03*
X205867000Y-79248000D03*
X203327000Y-76708000D03*
X203327000Y-79248000D03*
X200787000Y-76708000D03*
X200787000Y-79248000D03*
X198247000Y-76708000D03*
X198247000Y-79248000D03*
X195707000Y-76708000D03*
X195707000Y-79248000D03*
X193167000Y-76708000D03*
X193167000Y-79248000D03*
X190627000Y-76708000D03*
X190627000Y-79248000D03*
X188087000Y-76708000D03*
X188087000Y-79248000D03*
X185547000Y-76708000D03*
X185547000Y-79248000D03*
X183007000Y-76708000D03*
X183007000Y-79248000D03*
X180467000Y-76708000D03*
X180467000Y-79248000D03*
X177927000Y-76708000D03*
X177927000Y-79248000D03*
X175387000Y-76708000D03*
X175387000Y-79248000D03*
X172847000Y-76708000D03*
X172847000Y-79248000D03*
X170307000Y-76708000D03*
X170307000Y-79248000D03*
X167767000Y-76708000D03*
X167767000Y-79248000D03*
X165227000Y-76708000D03*
X165227000Y-79248000D03*
X162687000Y-76708000D03*
X162687000Y-79248000D03*
D27*
X223647000Y-77978000D03*
X223647000Y-126238000D03*
%TD*%
D28*
%TO.C,F1*%
X160949210Y-61721041D03*
X164649210Y-61721041D03*
X169149210Y-61721041D03*
X172849210Y-61721041D03*
%TD*%
D29*
%TO.C,U4*%
X193724000Y-66984000D03*
D26*
X193724000Y-64444000D03*
X193724000Y-61904000D03*
D30*
X211504000Y-60634000D03*
X211504000Y-63174000D03*
X211504000Y-65714000D03*
X211504000Y-68254000D03*
X207694000Y-60402060D03*
X207694000Y-63097000D03*
X207694000Y-65791000D03*
X207694000Y-68485940D03*
%TD*%
M02*
