M48
; DRILL file {KiCad (6.0.5)} date Tue Jun 14 19:11:02 2022
; FORMAT={-:-/ absolute / inch / decimal}
; #@! TF.CreationDate,2022-06-14T19:11:02-05:00
; #@! TF.GenerationSoftware,Kicad,Pcbnew,(6.0.5)
; #@! TF.FileFunction,Plated,1,2,PTH
FMAT,2
INCH
; #@! TA.AperFunction,Plated,PTH,ViaDrill
T1C0.0157
; #@! TA.AperFunction,Plated,PTH,ComponentDrill
T2C0.0300
; #@! TA.AperFunction,Plated,PTH,ComponentDrill
T3C0.0394
; #@! TA.AperFunction,Plated,PTH,ComponentDrill
T4C0.0402
; #@! TA.AperFunction,Plated,PTH,ComponentDrill
T5C0.0433
; #@! TA.AperFunction,Plated,PTH,ComponentDrill
T6C0.0472
; #@! TA.AperFunction,Plated,PTH,ComponentDrill
T7C0.0512
; #@! TA.AperFunction,Plated,PTH,ComponentDrill
T8C0.0650
; #@! TA.AperFunction,Plated,PTH,ComponentDrill
T9C0.1250
%
G90
G05
T1
X5.5085Y-2.2139
X5.5085Y-2.7257
X5.5124Y-3.9305
X5.5282Y-4.0053
X5.5872Y-5.5998
X5.725Y-2.588
X5.8431Y-4.0053
X5.8628Y-5.5998
X5.8825Y-3.1194
X5.9022Y-4.1037
X5.9219Y-2.1943
X5.9613Y-2.8754
X6.0203Y-4.2415
X6.0597Y-4.6943
X6.1187Y-3.71
X6.1384Y-2.7454
X6.2172Y-3.8084
X6.2172Y-5.5998
X6.2369Y-3.4344
X6.2565Y-4.9108
X6.3746Y-3.4344
X6.3746Y-3.8872
X6.4494Y-2.2966
X6.5124Y-3.5131
X6.573Y-2.7376
X6.5912Y-2.1943
X6.6345Y-2.6864
X6.7487Y-3.5131
X6.7487Y-5.5998
X6.8235Y-2.3006
X6.9691Y-2.7533
X6.9928Y-3.7651
X7.04Y-3.8202
X7.1126Y-2.6864
X7.1345Y-3.4502
X7.1817Y-2.7494
X7.2014Y-3.4856
X7.292Y-5.5525
X7.37Y-4.62
X7.3786Y-5.5998
X7.4731Y-3.2572
X7.5243Y-3.2612
X7.5378Y-2.6982
X7.5636Y-3.3793
X7.5754Y-4.6116
X7.5951Y-2.1943
X7.6227Y-3.4383
X7.6345Y-3.4935
X7.6542Y-3.2572
X7.66Y-3.86
X7.69Y-3.62
X7.7211Y-2.2809
X7.7762Y-3.2454
X7.7802Y-4.8399
X7.7841Y-3.5919
X7.7841Y-3.7887
X7.8117Y-5.5998
X7.8431Y-3.2257
X7.8825Y-4.6628
X7.918Y-3.5013
X7.9219Y-3.7809
X7.9337Y-3.2966
X7.977Y-2.7651
X7.9777Y-3.38
X8.0Y-4.83
X8.0282Y-3.5013
X8.0439Y-2.2809
X8.0872Y-2.1943
X8.0912Y-3.7809
X8.1265Y-3.3005
X8.15Y-3.5
X8.2565Y-2.3281
X8.3038Y-5.5998
X8.3195Y-3.1903
X8.3235Y-2.7651
X8.34Y-2.95
X8.3471Y-3.2218
X8.4416Y-2.1943
X8.4731Y-2.9069
X8.477Y-2.7927
X8.5361Y-2.8517
X8.5754Y-2.2297
X8.5794Y-4.6549
X8.5951Y-2.7927
X8.6187Y-2.5604
X8.6227Y-2.3242
X8.6227Y-2.458
X8.662Y-2.3242
X8.662Y-2.458
X8.6778Y-4.5368
X8.7014Y-2.3242
X8.7014Y-2.458
X8.7014Y-2.7336
X8.7408Y-2.3242
X8.7408Y-2.458
X8.7565Y-4.8124
X8.7762Y-5.5998
X8.788Y-2.3714
X8.788Y-2.4147
X8.9337Y-2.1943
X8.9731Y-5.2257
X8.9731Y-5.4226
X9.2487Y-4.5565
X9.2487Y-5.0683
X9.3077Y-2.588
X9.3077Y-3.0998
X9.3077Y-3.6313
T2
X8.1769Y-2.378
X8.1769Y-2.4841
X8.1769Y-2.5902
X8.1769Y-2.6963
X8.3269Y-2.3872
X8.3269Y-2.4872
X8.3269Y-2.5872
X8.3269Y-2.6872
T3
X6.9731Y-2.3914
X6.9731Y-2.4914
X6.9731Y-2.5914
X7.351Y-2.4331
X7.351Y-2.63
X7.6269Y-2.4372
X7.6269Y-2.5372
X7.6269Y-2.6372
X7.7504Y-3.86
X7.8488Y-3.86
X7.9512Y-3.86
X8.0496Y-3.86
X8.9146Y-2.7297
X9.0146Y-2.7297
X9.1146Y-2.7297
X9.2146Y-2.7297
X9.3146Y-2.7297
T4
X5.6869Y-2.8293
X5.6869Y-2.9293
X5.6869Y-3.0293
X5.6869Y-3.1293
X5.6869Y-3.2293
X5.6869Y-3.3293
X5.6869Y-3.4293
X5.6869Y-3.5293
X5.6869Y-3.6293
X5.6869Y-3.7293
X5.6869Y-3.8293
X5.6869Y-3.9293
X5.7869Y-2.8293
X5.7869Y-2.9293
X5.7869Y-3.0293
X5.7869Y-3.1293
X5.7869Y-3.2293
X5.7869Y-3.3293
X5.7869Y-3.4293
X5.7869Y-3.5293
X5.7869Y-3.6293
X5.7869Y-3.7293
X5.7869Y-3.8293
X5.7869Y-3.9293
X6.2026Y-5.2939
X6.2026Y-5.3939
X6.3026Y-5.2939
X6.3026Y-5.3939
X6.4026Y-5.2939
X6.4026Y-5.3939
X6.5026Y-5.2939
X6.5026Y-5.3939
X6.6026Y-5.2939
X6.6026Y-5.3939
X6.7026Y-5.2939
X6.7026Y-5.3939
X6.8026Y-5.2939
X6.8026Y-5.3939
X6.9026Y-5.2939
X6.9026Y-5.3939
X7.0026Y-5.2939
X7.0026Y-5.3939
X7.1026Y-5.2939
X7.1026Y-5.3939
X7.2026Y-5.2939
X7.2026Y-5.3939
X7.3026Y-5.2939
X7.3026Y-5.3939
X7.7302Y-5.2908
X7.7302Y-5.3908
X7.8302Y-5.2908
X7.8302Y-5.3908
X7.9302Y-5.2908
X7.9302Y-5.3908
X8.0302Y-5.2908
X8.0302Y-5.3908
X8.1302Y-5.2908
X8.1302Y-5.3908
X8.2302Y-5.2908
X8.2302Y-5.3908
X8.3302Y-5.2908
X8.3302Y-5.3908
X8.4302Y-5.2908
X8.4302Y-5.3908
X8.5302Y-5.2908
X8.5302Y-5.3908
X8.6302Y-5.2908
X8.6302Y-5.3908
X8.7302Y-5.2908
X8.7302Y-5.3908
X8.8302Y-5.2908
X8.8302Y-5.3908
T5
X6.405Y-3.02
X6.405Y-3.12
X6.405Y-4.92
X6.405Y-5.02
X6.505Y-3.02
X6.505Y-3.12
X6.505Y-4.92
X6.505Y-5.02
X6.605Y-3.02
X6.605Y-3.12
X6.605Y-4.92
X6.605Y-5.02
X6.705Y-3.02
X6.705Y-3.12
X6.705Y-4.92
X6.705Y-5.02
X6.805Y-3.02
X6.805Y-3.12
X6.805Y-4.92
X6.805Y-5.02
X6.905Y-3.02
X6.905Y-3.12
X6.905Y-4.92
X6.905Y-5.02
X7.005Y-3.02
X7.005Y-3.12
X7.005Y-4.92
X7.005Y-5.02
X7.105Y-3.02
X7.105Y-3.12
X7.105Y-4.92
X7.105Y-5.02
X7.205Y-3.02
X7.205Y-3.12
X7.205Y-4.92
X7.205Y-5.02
X7.305Y-3.02
X7.305Y-3.12
X7.305Y-4.92
X7.305Y-5.02
X7.38Y-4.32
X7.38Y-4.4972
X7.405Y-3.02
X7.405Y-3.12
X7.405Y-4.92
X7.405Y-5.02
X7.505Y-3.02
X7.505Y-3.12
X7.505Y-4.92
X7.505Y-5.02
X7.605Y-3.02
X7.605Y-3.12
X7.605Y-4.92
X7.605Y-5.02
X7.6359Y-4.32
X7.6359Y-4.4972
X7.705Y-3.02
X7.705Y-3.12
X7.705Y-4.92
X7.705Y-5.02
X7.76Y-4.14
X7.76Y-4.3172
X7.76Y-4.45
X7.76Y-4.6272
X7.805Y-3.02
X7.805Y-3.12
X7.805Y-4.92
X7.805Y-5.02
X7.905Y-3.02
X7.905Y-3.12
X7.905Y-4.92
X7.905Y-5.02
X8.005Y-3.02
X8.005Y-3.12
X8.005Y-4.92
X8.005Y-5.02
X8.0159Y-4.14
X8.0159Y-4.3172
X8.0159Y-4.45
X8.0159Y-4.6272
X8.105Y-3.02
X8.105Y-3.12
X8.105Y-4.92
X8.105Y-5.02
X8.15Y-4.31
X8.15Y-4.4872
X8.205Y-3.02
X8.205Y-3.12
X8.205Y-4.92
X8.205Y-5.02
X8.305Y-3.02
X8.305Y-3.12
X8.305Y-4.92
X8.305Y-5.02
X8.405Y-3.02
X8.405Y-3.12
X8.405Y-4.92
X8.405Y-5.02
X8.4059Y-4.31
X8.4059Y-4.4872
X8.505Y-3.02
X8.505Y-3.12
X8.505Y-4.92
X8.505Y-5.02
X8.605Y-3.02
X8.605Y-3.12
X8.605Y-4.92
X8.605Y-5.02
X8.664Y-3.4679
X8.664Y-3.645
X8.9199Y-3.4679
X8.9199Y-3.645
T6
X5.7431Y-4.7737
X5.7431Y-4.9115
X5.7431Y-5.0493
X5.7447Y-4.2651
X5.7447Y-4.4029
X5.7447Y-4.5407
T7
X5.9534Y-2.395
X6.1502Y-2.395
T8
X6.3366Y-2.43
X6.4823Y-2.43
X6.6594Y-2.43
X6.8051Y-2.43
T9
X8.805Y-3.07
X8.805Y-4.97
T0
M30
