G04 #@! TF.GenerationSoftware,KiCad,Pcbnew,(5.1.5)-3*
G04 #@! TF.CreationDate,2020-04-19T01:14:23-04:00*
G04 #@! TF.ProjectId,Pwr_Diff_Expansion,5077725f-4469-4666-965f-457870616e73,v1*
G04 #@! TF.SameCoordinates,Original*
G04 #@! TF.FileFunction,Soldermask,Top*
G04 #@! TF.FilePolarity,Negative*
%FSLAX46Y46*%
G04 Gerber Fmt 4.6, Leading zero omitted, Abs format (unit mm)*
G04 Created by KiCad (PCBNEW (5.1.5)-3) date 2020-04-19 01:14:23*
%MOMM*%
%LPD*%
G04 APERTURE LIST*
%ADD10C,0.100000*%
G04 APERTURE END LIST*
D10*
G36*
X121522000Y-151578800D02*
G01*
X118220000Y-151578800D01*
X118220000Y-148276800D01*
X121522000Y-148276800D01*
X121522000Y-151578800D01*
G37*
G36*
X113710885Y-148995805D02*
G01*
X113876842Y-149028816D01*
X114111334Y-149125946D01*
X114322371Y-149266956D01*
X114501844Y-149446429D01*
X114642854Y-149657466D01*
X114739984Y-149891958D01*
X114789500Y-150140894D01*
X114789500Y-150394706D01*
X114739984Y-150643642D01*
X114642854Y-150878134D01*
X114501844Y-151089171D01*
X114322371Y-151268644D01*
X114111334Y-151409654D01*
X113876842Y-151506784D01*
X113710885Y-151539795D01*
X113627907Y-151556300D01*
X113374093Y-151556300D01*
X113291115Y-151539795D01*
X113125158Y-151506784D01*
X112890666Y-151409654D01*
X112679629Y-151268644D01*
X112500156Y-151089171D01*
X112359146Y-150878134D01*
X112262016Y-150643642D01*
X112212500Y-150394706D01*
X112212500Y-150140894D01*
X112262016Y-149891958D01*
X112359146Y-149657466D01*
X112500156Y-149446429D01*
X112679629Y-149266956D01*
X112890666Y-149125946D01*
X113125158Y-149028816D01*
X113291115Y-148995805D01*
X113374093Y-148979300D01*
X113627907Y-148979300D01*
X113710885Y-148995805D01*
G37*
G36*
X105744217Y-148995805D02*
G01*
X105910174Y-149028816D01*
X106144666Y-149125946D01*
X106355703Y-149266956D01*
X106535176Y-149446429D01*
X106676186Y-149657466D01*
X106773316Y-149891958D01*
X106822832Y-150140894D01*
X106822832Y-150394706D01*
X106773316Y-150643642D01*
X106676186Y-150878134D01*
X106535176Y-151089171D01*
X106355703Y-151268644D01*
X106144666Y-151409654D01*
X105910174Y-151506784D01*
X105744217Y-151539795D01*
X105661239Y-151556300D01*
X105407425Y-151556300D01*
X105324447Y-151539795D01*
X105158490Y-151506784D01*
X104923998Y-151409654D01*
X104712961Y-151268644D01*
X104533488Y-151089171D01*
X104392478Y-150878134D01*
X104295348Y-150643642D01*
X104245832Y-150394706D01*
X104245832Y-150140894D01*
X104295348Y-149891958D01*
X104392478Y-149657466D01*
X104533488Y-149446429D01*
X104712961Y-149266956D01*
X104923998Y-149125946D01*
X105158490Y-149028816D01*
X105324447Y-148995805D01*
X105407425Y-148979300D01*
X105661239Y-148979300D01*
X105744217Y-148995805D01*
G37*
G36*
X97777551Y-148995805D02*
G01*
X97943508Y-149028816D01*
X98178000Y-149125946D01*
X98389037Y-149266956D01*
X98568510Y-149446429D01*
X98709520Y-149657466D01*
X98806650Y-149891958D01*
X98856166Y-150140894D01*
X98856166Y-150394706D01*
X98806650Y-150643642D01*
X98709520Y-150878134D01*
X98568510Y-151089171D01*
X98389037Y-151268644D01*
X98178000Y-151409654D01*
X97943508Y-151506784D01*
X97777551Y-151539795D01*
X97694573Y-151556300D01*
X97440759Y-151556300D01*
X97357781Y-151539795D01*
X97191824Y-151506784D01*
X96957332Y-151409654D01*
X96746295Y-151268644D01*
X96566822Y-151089171D01*
X96425812Y-150878134D01*
X96328682Y-150643642D01*
X96279166Y-150394706D01*
X96279166Y-150140894D01*
X96328682Y-149891958D01*
X96425812Y-149657466D01*
X96566822Y-149446429D01*
X96746295Y-149266956D01*
X96957332Y-149125946D01*
X97191824Y-149028816D01*
X97357781Y-148995805D01*
X97440759Y-148979300D01*
X97694573Y-148979300D01*
X97777551Y-148995805D01*
G37*
G36*
X89810885Y-148995805D02*
G01*
X89976842Y-149028816D01*
X90211334Y-149125946D01*
X90422371Y-149266956D01*
X90601844Y-149446429D01*
X90742854Y-149657466D01*
X90839984Y-149891958D01*
X90889500Y-150140894D01*
X90889500Y-150394706D01*
X90839984Y-150643642D01*
X90742854Y-150878134D01*
X90601844Y-151089171D01*
X90422371Y-151268644D01*
X90211334Y-151409654D01*
X89976842Y-151506784D01*
X89810885Y-151539795D01*
X89727907Y-151556300D01*
X89474093Y-151556300D01*
X89391115Y-151539795D01*
X89225158Y-151506784D01*
X88990666Y-151409654D01*
X88779629Y-151268644D01*
X88600156Y-151089171D01*
X88459146Y-150878134D01*
X88362016Y-150643642D01*
X88312500Y-150394706D01*
X88312500Y-150140894D01*
X88362016Y-149891958D01*
X88459146Y-149657466D01*
X88600156Y-149446429D01*
X88779629Y-149266956D01*
X88990666Y-149125946D01*
X89225158Y-149028816D01*
X89391115Y-148995805D01*
X89474093Y-148979300D01*
X89727907Y-148979300D01*
X89810885Y-148995805D01*
G37*
G36*
X129315501Y-147591854D02*
G01*
X129661461Y-147735156D01*
X129972817Y-147943197D01*
X130237603Y-148207983D01*
X130445644Y-148519339D01*
X130588946Y-148865299D01*
X130662000Y-149232568D01*
X130662000Y-149607032D01*
X130588946Y-149974301D01*
X130445644Y-150320261D01*
X130237603Y-150631617D01*
X129972817Y-150896403D01*
X129661461Y-151104444D01*
X129315501Y-151247746D01*
X129210444Y-151268643D01*
X128948233Y-151320800D01*
X128573767Y-151320800D01*
X128311556Y-151268643D01*
X128206499Y-151247746D01*
X127860539Y-151104444D01*
X127549183Y-150896403D01*
X127284397Y-150631617D01*
X127076356Y-150320261D01*
X126933054Y-149974301D01*
X126860000Y-149607032D01*
X126860000Y-149232568D01*
X126933054Y-148865299D01*
X127076356Y-148519339D01*
X127284397Y-148207983D01*
X127549183Y-147943197D01*
X127860539Y-147735156D01*
X128206499Y-147591854D01*
X128573767Y-147518800D01*
X128948233Y-147518800D01*
X129315501Y-147591854D01*
G37*
G36*
X78515501Y-147591854D02*
G01*
X78861461Y-147735156D01*
X79172817Y-147943197D01*
X79437603Y-148207983D01*
X79645644Y-148519339D01*
X79788946Y-148865299D01*
X79862000Y-149232568D01*
X79862000Y-149607032D01*
X79788946Y-149974301D01*
X79645644Y-150320261D01*
X79437603Y-150631617D01*
X79172817Y-150896403D01*
X78861461Y-151104444D01*
X78515501Y-151247746D01*
X78410444Y-151268643D01*
X78148233Y-151320800D01*
X77773767Y-151320800D01*
X77511556Y-151268643D01*
X77406499Y-151247746D01*
X77060539Y-151104444D01*
X76749183Y-150896403D01*
X76484397Y-150631617D01*
X76276356Y-150320261D01*
X76133054Y-149974301D01*
X76060000Y-149607032D01*
X76060000Y-149232568D01*
X76133054Y-148865299D01*
X76276356Y-148519339D01*
X76484397Y-148207983D01*
X76749183Y-147943197D01*
X77060539Y-147735156D01*
X77406499Y-147591854D01*
X77773767Y-147518800D01*
X78148233Y-147518800D01*
X78515501Y-147591854D01*
G37*
G36*
X105744217Y-145295805D02*
G01*
X105910174Y-145328816D01*
X106144666Y-145425946D01*
X106355703Y-145566956D01*
X106535176Y-145746429D01*
X106676186Y-145957466D01*
X106773316Y-146191958D01*
X106822832Y-146440894D01*
X106822832Y-146694706D01*
X106773316Y-146943642D01*
X106676186Y-147178134D01*
X106535176Y-147389171D01*
X106355703Y-147568644D01*
X106144666Y-147709654D01*
X105910174Y-147806784D01*
X105744217Y-147839795D01*
X105661239Y-147856300D01*
X105407425Y-147856300D01*
X105324447Y-147839795D01*
X105158490Y-147806784D01*
X104923998Y-147709654D01*
X104712961Y-147568644D01*
X104533488Y-147389171D01*
X104392478Y-147178134D01*
X104295348Y-146943642D01*
X104245832Y-146694706D01*
X104245832Y-146440894D01*
X104295348Y-146191958D01*
X104392478Y-145957466D01*
X104533488Y-145746429D01*
X104712961Y-145566956D01*
X104923998Y-145425946D01*
X105158490Y-145328816D01*
X105324447Y-145295805D01*
X105407425Y-145279300D01*
X105661239Y-145279300D01*
X105744217Y-145295805D01*
G37*
G36*
X97777551Y-145295805D02*
G01*
X97943508Y-145328816D01*
X98178000Y-145425946D01*
X98389037Y-145566956D01*
X98568510Y-145746429D01*
X98709520Y-145957466D01*
X98806650Y-146191958D01*
X98856166Y-146440894D01*
X98856166Y-146694706D01*
X98806650Y-146943642D01*
X98709520Y-147178134D01*
X98568510Y-147389171D01*
X98389037Y-147568644D01*
X98178000Y-147709654D01*
X97943508Y-147806784D01*
X97777551Y-147839795D01*
X97694573Y-147856300D01*
X97440759Y-147856300D01*
X97357781Y-147839795D01*
X97191824Y-147806784D01*
X96957332Y-147709654D01*
X96746295Y-147568644D01*
X96566822Y-147389171D01*
X96425812Y-147178134D01*
X96328682Y-146943642D01*
X96279166Y-146694706D01*
X96279166Y-146440894D01*
X96328682Y-146191958D01*
X96425812Y-145957466D01*
X96566822Y-145746429D01*
X96746295Y-145566956D01*
X96957332Y-145425946D01*
X97191824Y-145328816D01*
X97357781Y-145295805D01*
X97440759Y-145279300D01*
X97694573Y-145279300D01*
X97777551Y-145295805D01*
G37*
G36*
X89810885Y-145295805D02*
G01*
X89976842Y-145328816D01*
X90211334Y-145425946D01*
X90422371Y-145566956D01*
X90601844Y-145746429D01*
X90742854Y-145957466D01*
X90839984Y-146191958D01*
X90889500Y-146440894D01*
X90889500Y-146694706D01*
X90839984Y-146943642D01*
X90742854Y-147178134D01*
X90601844Y-147389171D01*
X90422371Y-147568644D01*
X90211334Y-147709654D01*
X89976842Y-147806784D01*
X89810885Y-147839795D01*
X89727907Y-147856300D01*
X89474093Y-147856300D01*
X89391115Y-147839795D01*
X89225158Y-147806784D01*
X88990666Y-147709654D01*
X88779629Y-147568644D01*
X88600156Y-147389171D01*
X88459146Y-147178134D01*
X88362016Y-146943642D01*
X88312500Y-146694706D01*
X88312500Y-146440894D01*
X88362016Y-146191958D01*
X88459146Y-145957466D01*
X88600156Y-145746429D01*
X88779629Y-145566956D01*
X88990666Y-145425946D01*
X89225158Y-145328816D01*
X89391115Y-145295805D01*
X89474093Y-145279300D01*
X89727907Y-145279300D01*
X89810885Y-145295805D01*
G37*
G36*
X113710885Y-145295805D02*
G01*
X113876842Y-145328816D01*
X114111334Y-145425946D01*
X114322371Y-145566956D01*
X114501844Y-145746429D01*
X114642854Y-145957466D01*
X114739984Y-146191958D01*
X114789500Y-146440894D01*
X114789500Y-146694706D01*
X114739984Y-146943642D01*
X114642854Y-147178134D01*
X114501844Y-147389171D01*
X114322371Y-147568644D01*
X114111334Y-147709654D01*
X113876842Y-147806784D01*
X113710885Y-147839795D01*
X113627907Y-147856300D01*
X113374093Y-147856300D01*
X113291115Y-147839795D01*
X113125158Y-147806784D01*
X112890666Y-147709654D01*
X112679629Y-147568644D01*
X112500156Y-147389171D01*
X112359146Y-147178134D01*
X112262016Y-146943642D01*
X112212500Y-146694706D01*
X112212500Y-146440894D01*
X112262016Y-146191958D01*
X112359146Y-145957466D01*
X112500156Y-145746429D01*
X112679629Y-145566956D01*
X112890666Y-145425946D01*
X113125158Y-145328816D01*
X113291115Y-145295805D01*
X113374093Y-145279300D01*
X113627907Y-145279300D01*
X113710885Y-145295805D01*
G37*
G36*
X113710885Y-140795805D02*
G01*
X113876842Y-140828816D01*
X114111334Y-140925946D01*
X114322371Y-141066956D01*
X114501844Y-141246429D01*
X114642854Y-141457466D01*
X114739984Y-141691958D01*
X114789500Y-141940894D01*
X114789500Y-142194706D01*
X114739984Y-142443642D01*
X114642854Y-142678134D01*
X114501844Y-142889171D01*
X114322371Y-143068644D01*
X114111334Y-143209654D01*
X113876842Y-143306784D01*
X113710885Y-143339795D01*
X113627907Y-143356300D01*
X113374093Y-143356300D01*
X113291115Y-143339795D01*
X113125158Y-143306784D01*
X112890666Y-143209654D01*
X112679629Y-143068644D01*
X112500156Y-142889171D01*
X112359146Y-142678134D01*
X112262016Y-142443642D01*
X112212500Y-142194706D01*
X112212500Y-141940894D01*
X112262016Y-141691958D01*
X112359146Y-141457466D01*
X112500156Y-141246429D01*
X112679629Y-141066956D01*
X112890666Y-140925946D01*
X113125158Y-140828816D01*
X113291115Y-140795805D01*
X113374093Y-140779300D01*
X113627907Y-140779300D01*
X113710885Y-140795805D01*
G37*
G36*
X97777551Y-140795805D02*
G01*
X97943508Y-140828816D01*
X98178000Y-140925946D01*
X98389037Y-141066956D01*
X98568510Y-141246429D01*
X98709520Y-141457466D01*
X98806650Y-141691958D01*
X98856166Y-141940894D01*
X98856166Y-142194706D01*
X98806650Y-142443642D01*
X98709520Y-142678134D01*
X98568510Y-142889171D01*
X98389037Y-143068644D01*
X98178000Y-143209654D01*
X97943508Y-143306784D01*
X97777551Y-143339795D01*
X97694573Y-143356300D01*
X97440759Y-143356300D01*
X97357781Y-143339795D01*
X97191824Y-143306784D01*
X96957332Y-143209654D01*
X96746295Y-143068644D01*
X96566822Y-142889171D01*
X96425812Y-142678134D01*
X96328682Y-142443642D01*
X96279166Y-142194706D01*
X96279166Y-141940894D01*
X96328682Y-141691958D01*
X96425812Y-141457466D01*
X96566822Y-141246429D01*
X96746295Y-141066956D01*
X96957332Y-140925946D01*
X97191824Y-140828816D01*
X97357781Y-140795805D01*
X97440759Y-140779300D01*
X97694573Y-140779300D01*
X97777551Y-140795805D01*
G37*
G36*
X105744217Y-140795805D02*
G01*
X105910174Y-140828816D01*
X106144666Y-140925946D01*
X106355703Y-141066956D01*
X106535176Y-141246429D01*
X106676186Y-141457466D01*
X106773316Y-141691958D01*
X106822832Y-141940894D01*
X106822832Y-142194706D01*
X106773316Y-142443642D01*
X106676186Y-142678134D01*
X106535176Y-142889171D01*
X106355703Y-143068644D01*
X106144666Y-143209654D01*
X105910174Y-143306784D01*
X105744217Y-143339795D01*
X105661239Y-143356300D01*
X105407425Y-143356300D01*
X105324447Y-143339795D01*
X105158490Y-143306784D01*
X104923998Y-143209654D01*
X104712961Y-143068644D01*
X104533488Y-142889171D01*
X104392478Y-142678134D01*
X104295348Y-142443642D01*
X104245832Y-142194706D01*
X104245832Y-141940894D01*
X104295348Y-141691958D01*
X104392478Y-141457466D01*
X104533488Y-141246429D01*
X104712961Y-141066956D01*
X104923998Y-140925946D01*
X105158490Y-140828816D01*
X105324447Y-140795805D01*
X105407425Y-140779300D01*
X105661239Y-140779300D01*
X105744217Y-140795805D01*
G37*
G36*
X89810885Y-140795805D02*
G01*
X89976842Y-140828816D01*
X90211334Y-140925946D01*
X90422371Y-141066956D01*
X90601844Y-141246429D01*
X90742854Y-141457466D01*
X90839984Y-141691958D01*
X90889500Y-141940894D01*
X90889500Y-142194706D01*
X90839984Y-142443642D01*
X90742854Y-142678134D01*
X90601844Y-142889171D01*
X90422371Y-143068644D01*
X90211334Y-143209654D01*
X89976842Y-143306784D01*
X89810885Y-143339795D01*
X89727907Y-143356300D01*
X89474093Y-143356300D01*
X89391115Y-143339795D01*
X89225158Y-143306784D01*
X88990666Y-143209654D01*
X88779629Y-143068644D01*
X88600156Y-142889171D01*
X88459146Y-142678134D01*
X88362016Y-142443642D01*
X88312500Y-142194706D01*
X88312500Y-141940894D01*
X88362016Y-141691958D01*
X88459146Y-141457466D01*
X88600156Y-141246429D01*
X88779629Y-141066956D01*
X88990666Y-140925946D01*
X89225158Y-140828816D01*
X89391115Y-140795805D01*
X89474093Y-140779300D01*
X89727907Y-140779300D01*
X89810885Y-140795805D01*
G37*
G36*
X113710885Y-137095805D02*
G01*
X113876842Y-137128816D01*
X114111334Y-137225946D01*
X114322371Y-137366956D01*
X114501844Y-137546429D01*
X114642854Y-137757466D01*
X114739984Y-137991958D01*
X114789500Y-138240894D01*
X114789500Y-138494706D01*
X114739984Y-138743642D01*
X114642854Y-138978134D01*
X114501844Y-139189171D01*
X114322371Y-139368644D01*
X114111334Y-139509654D01*
X113876842Y-139606784D01*
X113710885Y-139639795D01*
X113627907Y-139656300D01*
X113374093Y-139656300D01*
X113291115Y-139639795D01*
X113125158Y-139606784D01*
X112890666Y-139509654D01*
X112679629Y-139368644D01*
X112500156Y-139189171D01*
X112359146Y-138978134D01*
X112262016Y-138743642D01*
X112212500Y-138494706D01*
X112212500Y-138240894D01*
X112262016Y-137991958D01*
X112359146Y-137757466D01*
X112500156Y-137546429D01*
X112679629Y-137366956D01*
X112890666Y-137225946D01*
X113125158Y-137128816D01*
X113291115Y-137095805D01*
X113374093Y-137079300D01*
X113627907Y-137079300D01*
X113710885Y-137095805D01*
G37*
G36*
X89810885Y-137095805D02*
G01*
X89976842Y-137128816D01*
X90211334Y-137225946D01*
X90422371Y-137366956D01*
X90601844Y-137546429D01*
X90742854Y-137757466D01*
X90839984Y-137991958D01*
X90889500Y-138240894D01*
X90889500Y-138494706D01*
X90839984Y-138743642D01*
X90742854Y-138978134D01*
X90601844Y-139189171D01*
X90422371Y-139368644D01*
X90211334Y-139509654D01*
X89976842Y-139606784D01*
X89810885Y-139639795D01*
X89727907Y-139656300D01*
X89474093Y-139656300D01*
X89391115Y-139639795D01*
X89225158Y-139606784D01*
X88990666Y-139509654D01*
X88779629Y-139368644D01*
X88600156Y-139189171D01*
X88459146Y-138978134D01*
X88362016Y-138743642D01*
X88312500Y-138494706D01*
X88312500Y-138240894D01*
X88362016Y-137991958D01*
X88459146Y-137757466D01*
X88600156Y-137546429D01*
X88779629Y-137366956D01*
X88990666Y-137225946D01*
X89225158Y-137128816D01*
X89391115Y-137095805D01*
X89474093Y-137079300D01*
X89727907Y-137079300D01*
X89810885Y-137095805D01*
G37*
G36*
X97777551Y-137095805D02*
G01*
X97943508Y-137128816D01*
X98178000Y-137225946D01*
X98389037Y-137366956D01*
X98568510Y-137546429D01*
X98709520Y-137757466D01*
X98806650Y-137991958D01*
X98856166Y-138240894D01*
X98856166Y-138494706D01*
X98806650Y-138743642D01*
X98709520Y-138978134D01*
X98568510Y-139189171D01*
X98389037Y-139368644D01*
X98178000Y-139509654D01*
X97943508Y-139606784D01*
X97777551Y-139639795D01*
X97694573Y-139656300D01*
X97440759Y-139656300D01*
X97357781Y-139639795D01*
X97191824Y-139606784D01*
X96957332Y-139509654D01*
X96746295Y-139368644D01*
X96566822Y-139189171D01*
X96425812Y-138978134D01*
X96328682Y-138743642D01*
X96279166Y-138494706D01*
X96279166Y-138240894D01*
X96328682Y-137991958D01*
X96425812Y-137757466D01*
X96566822Y-137546429D01*
X96746295Y-137366956D01*
X96957332Y-137225946D01*
X97191824Y-137128816D01*
X97357781Y-137095805D01*
X97440759Y-137079300D01*
X97694573Y-137079300D01*
X97777551Y-137095805D01*
G37*
G36*
X105744217Y-137095805D02*
G01*
X105910174Y-137128816D01*
X106144666Y-137225946D01*
X106355703Y-137366956D01*
X106535176Y-137546429D01*
X106676186Y-137757466D01*
X106773316Y-137991958D01*
X106822832Y-138240894D01*
X106822832Y-138494706D01*
X106773316Y-138743642D01*
X106676186Y-138978134D01*
X106535176Y-139189171D01*
X106355703Y-139368644D01*
X106144666Y-139509654D01*
X105910174Y-139606784D01*
X105744217Y-139639795D01*
X105661239Y-139656300D01*
X105407425Y-139656300D01*
X105324447Y-139639795D01*
X105158490Y-139606784D01*
X104923998Y-139509654D01*
X104712961Y-139368644D01*
X104533488Y-139189171D01*
X104392478Y-138978134D01*
X104295348Y-138743642D01*
X104245832Y-138494706D01*
X104245832Y-138240894D01*
X104295348Y-137991958D01*
X104392478Y-137757466D01*
X104533488Y-137546429D01*
X104712961Y-137366956D01*
X104923998Y-137225946D01*
X105158490Y-137128816D01*
X105324447Y-137095805D01*
X105407425Y-137079300D01*
X105661239Y-137079300D01*
X105744217Y-137095805D01*
G37*
G36*
X120246256Y-135619098D02*
G01*
X120352579Y-135640247D01*
X120653042Y-135764703D01*
X120923451Y-135945385D01*
X121153415Y-136175349D01*
X121334097Y-136445758D01*
X121458553Y-136746221D01*
X121522000Y-137065191D01*
X121522000Y-137390409D01*
X121458553Y-137709379D01*
X121334097Y-138009842D01*
X121153415Y-138280251D01*
X120923451Y-138510215D01*
X120653042Y-138690897D01*
X120352579Y-138815353D01*
X120246256Y-138836502D01*
X120033611Y-138878800D01*
X119708389Y-138878800D01*
X119495744Y-138836502D01*
X119389421Y-138815353D01*
X119088958Y-138690897D01*
X118818549Y-138510215D01*
X118588585Y-138280251D01*
X118407903Y-138009842D01*
X118283447Y-137709379D01*
X118220000Y-137390409D01*
X118220000Y-137065191D01*
X118283447Y-136746221D01*
X118407903Y-136445758D01*
X118588585Y-136175349D01*
X118818549Y-135945385D01*
X119088958Y-135764703D01*
X119389421Y-135640247D01*
X119495744Y-135619098D01*
X119708389Y-135576800D01*
X120033611Y-135576800D01*
X120246256Y-135619098D01*
G37*
G36*
X129167778Y-133298347D02*
G01*
X129334224Y-133367291D01*
X129484022Y-133467383D01*
X129611417Y-133594778D01*
X129711509Y-133744576D01*
X129780453Y-133911022D01*
X129815600Y-134087718D01*
X129815600Y-134267882D01*
X129780453Y-134444578D01*
X129711509Y-134611024D01*
X129611417Y-134760822D01*
X129484022Y-134888217D01*
X129334224Y-134988309D01*
X129167778Y-135057253D01*
X128991082Y-135092400D01*
X128810918Y-135092400D01*
X128634222Y-135057253D01*
X128467776Y-134988309D01*
X128317978Y-134888217D01*
X128190583Y-134760822D01*
X128090491Y-134611024D01*
X128021547Y-134444578D01*
X127986400Y-134267882D01*
X127986400Y-134087718D01*
X128021547Y-133911022D01*
X128090491Y-133744576D01*
X128190583Y-133594778D01*
X128317978Y-133467383D01*
X128467776Y-133367291D01*
X128634222Y-133298347D01*
X128810918Y-133263200D01*
X128991082Y-133263200D01*
X129167778Y-133298347D01*
G37*
G36*
X131707778Y-133298347D02*
G01*
X131874224Y-133367291D01*
X132024022Y-133467383D01*
X132151417Y-133594778D01*
X132251509Y-133744576D01*
X132320453Y-133911022D01*
X132355600Y-134087718D01*
X132355600Y-134267882D01*
X132320453Y-134444578D01*
X132251509Y-134611024D01*
X132151417Y-134760822D01*
X132024022Y-134888217D01*
X131874224Y-134988309D01*
X131707778Y-135057253D01*
X131531082Y-135092400D01*
X131350918Y-135092400D01*
X131174222Y-135057253D01*
X131007776Y-134988309D01*
X130857978Y-134888217D01*
X130730583Y-134760822D01*
X130630491Y-134611024D01*
X130561547Y-134444578D01*
X130526400Y-134267882D01*
X130526400Y-134087718D01*
X130561547Y-133911022D01*
X130630491Y-133744576D01*
X130730583Y-133594778D01*
X130857978Y-133467383D01*
X131007776Y-133367291D01*
X131174222Y-133298347D01*
X131350918Y-133263200D01*
X131531082Y-133263200D01*
X131707778Y-133298347D01*
G37*
G36*
X131707778Y-130758347D02*
G01*
X131874224Y-130827291D01*
X132024022Y-130927383D01*
X132151417Y-131054778D01*
X132251509Y-131204576D01*
X132320453Y-131371022D01*
X132355600Y-131547718D01*
X132355600Y-131727882D01*
X132320453Y-131904578D01*
X132251509Y-132071024D01*
X132151417Y-132220822D01*
X132024022Y-132348217D01*
X131874224Y-132448309D01*
X131707778Y-132517253D01*
X131531082Y-132552400D01*
X131350918Y-132552400D01*
X131174222Y-132517253D01*
X131007776Y-132448309D01*
X130857978Y-132348217D01*
X130730583Y-132220822D01*
X130630491Y-132071024D01*
X130561547Y-131904578D01*
X130526400Y-131727882D01*
X130526400Y-131547718D01*
X130561547Y-131371022D01*
X130630491Y-131204576D01*
X130730583Y-131054778D01*
X130857978Y-130927383D01*
X131007776Y-130827291D01*
X131174222Y-130758347D01*
X131350918Y-130723200D01*
X131531082Y-130723200D01*
X131707778Y-130758347D01*
G37*
G36*
X129167778Y-130758347D02*
G01*
X129334224Y-130827291D01*
X129484022Y-130927383D01*
X129611417Y-131054778D01*
X129711509Y-131204576D01*
X129780453Y-131371022D01*
X129815600Y-131547718D01*
X129815600Y-131727882D01*
X129780453Y-131904578D01*
X129711509Y-132071024D01*
X129611417Y-132220822D01*
X129484022Y-132348217D01*
X129334224Y-132448309D01*
X129167778Y-132517253D01*
X128991082Y-132552400D01*
X128810918Y-132552400D01*
X128634222Y-132517253D01*
X128467776Y-132448309D01*
X128317978Y-132348217D01*
X128190583Y-132220822D01*
X128090491Y-132071024D01*
X128021547Y-131904578D01*
X127986400Y-131727882D01*
X127986400Y-131547718D01*
X128021547Y-131371022D01*
X128090491Y-131204576D01*
X128190583Y-131054778D01*
X128317978Y-130927383D01*
X128467776Y-130827291D01*
X128634222Y-130758347D01*
X128810918Y-130723200D01*
X128991082Y-130723200D01*
X129167778Y-130758347D01*
G37*
G36*
X82589785Y-129148562D02*
G01*
X82739610Y-129178364D01*
X83021874Y-129295281D01*
X83275905Y-129465019D01*
X83491941Y-129681055D01*
X83661679Y-129935086D01*
X83693703Y-130012400D01*
X83778596Y-130217351D01*
X83838200Y-130516999D01*
X83838200Y-130822521D01*
X83817341Y-130927384D01*
X83778596Y-131122170D01*
X83661679Y-131404434D01*
X83491941Y-131658465D01*
X83275905Y-131874501D01*
X83021874Y-132044239D01*
X82739610Y-132161156D01*
X82589785Y-132190958D01*
X82439961Y-132220760D01*
X82134439Y-132220760D01*
X81984615Y-132190958D01*
X81834790Y-132161156D01*
X81552526Y-132044239D01*
X81298495Y-131874501D01*
X81082459Y-131658465D01*
X80912721Y-131404434D01*
X80795804Y-131122170D01*
X80757059Y-130927384D01*
X80736200Y-130822521D01*
X80736200Y-130516999D01*
X80795804Y-130217351D01*
X80880697Y-130012400D01*
X80912721Y-129935086D01*
X81082459Y-129681055D01*
X81298495Y-129465019D01*
X81552526Y-129295281D01*
X81834790Y-129178364D01*
X81984615Y-129148562D01*
X82134439Y-129118760D01*
X82439961Y-129118760D01*
X82589785Y-129148562D01*
G37*
G36*
X129167778Y-128218347D02*
G01*
X129334224Y-128287291D01*
X129484022Y-128387383D01*
X129611417Y-128514778D01*
X129711509Y-128664576D01*
X129780453Y-128831022D01*
X129815600Y-129007718D01*
X129815600Y-129187882D01*
X129780453Y-129364578D01*
X129711509Y-129531024D01*
X129611417Y-129680822D01*
X129484022Y-129808217D01*
X129334224Y-129908309D01*
X129167778Y-129977253D01*
X128991082Y-130012400D01*
X128810918Y-130012400D01*
X128634222Y-129977253D01*
X128467776Y-129908309D01*
X128317978Y-129808217D01*
X128190583Y-129680822D01*
X128090491Y-129531024D01*
X128021547Y-129364578D01*
X127986400Y-129187882D01*
X127986400Y-129007718D01*
X128021547Y-128831022D01*
X128090491Y-128664576D01*
X128190583Y-128514778D01*
X128317978Y-128387383D01*
X128467776Y-128287291D01*
X128634222Y-128218347D01*
X128810918Y-128183200D01*
X128991082Y-128183200D01*
X129167778Y-128218347D01*
G37*
G36*
X131707778Y-128218347D02*
G01*
X131874224Y-128287291D01*
X132024022Y-128387383D01*
X132151417Y-128514778D01*
X132251509Y-128664576D01*
X132320453Y-128831022D01*
X132355600Y-129007718D01*
X132355600Y-129187882D01*
X132320453Y-129364578D01*
X132251509Y-129531024D01*
X132151417Y-129680822D01*
X132024022Y-129808217D01*
X131874224Y-129908309D01*
X131707778Y-129977253D01*
X131531082Y-130012400D01*
X131350918Y-130012400D01*
X131174222Y-129977253D01*
X131007776Y-129908309D01*
X130857978Y-129808217D01*
X130730583Y-129680822D01*
X130630491Y-129531024D01*
X130561547Y-129364578D01*
X130526400Y-129187882D01*
X130526400Y-129007718D01*
X130561547Y-128831022D01*
X130630491Y-128664576D01*
X130730583Y-128514778D01*
X130857978Y-128387383D01*
X131007776Y-128287291D01*
X131174222Y-128218347D01*
X131350918Y-128183200D01*
X131531082Y-128183200D01*
X131707778Y-128218347D01*
G37*
G36*
X102436256Y-125459098D02*
G01*
X102542579Y-125480247D01*
X102843042Y-125604703D01*
X103113451Y-125785385D01*
X103343415Y-126015349D01*
X103416398Y-126124576D01*
X103524098Y-126285760D01*
X103648553Y-126586222D01*
X103695966Y-126824579D01*
X103712000Y-126905191D01*
X103712000Y-127230409D01*
X103648553Y-127549379D01*
X103524097Y-127849842D01*
X103343415Y-128120251D01*
X103113451Y-128350215D01*
X102843042Y-128530897D01*
X102542579Y-128655353D01*
X102436256Y-128676502D01*
X102223611Y-128718800D01*
X101898389Y-128718800D01*
X101685744Y-128676502D01*
X101579421Y-128655353D01*
X101278958Y-128530897D01*
X101008549Y-128350215D01*
X100778585Y-128120251D01*
X100597903Y-127849842D01*
X100473447Y-127549379D01*
X100410000Y-127230409D01*
X100410000Y-126905191D01*
X100426035Y-126824579D01*
X100473447Y-126586222D01*
X100597902Y-126285760D01*
X100705602Y-126124576D01*
X100778585Y-126015349D01*
X101008549Y-125785385D01*
X101278958Y-125604703D01*
X101579421Y-125480247D01*
X101685744Y-125459098D01*
X101898389Y-125416800D01*
X102223611Y-125416800D01*
X102436256Y-125459098D01*
G37*
G36*
X91006256Y-125459098D02*
G01*
X91112579Y-125480247D01*
X91413042Y-125604703D01*
X91683451Y-125785385D01*
X91913415Y-126015349D01*
X91986398Y-126124576D01*
X92094098Y-126285760D01*
X92218553Y-126586222D01*
X92265966Y-126824579D01*
X92282000Y-126905191D01*
X92282000Y-127230409D01*
X92218553Y-127549379D01*
X92094097Y-127849842D01*
X91913415Y-128120251D01*
X91683451Y-128350215D01*
X91413042Y-128530897D01*
X91112579Y-128655353D01*
X91006256Y-128676502D01*
X90793611Y-128718800D01*
X90468389Y-128718800D01*
X90255744Y-128676502D01*
X90149421Y-128655353D01*
X89848958Y-128530897D01*
X89578549Y-128350215D01*
X89348585Y-128120251D01*
X89167903Y-127849842D01*
X89043447Y-127549379D01*
X88980000Y-127230409D01*
X88980000Y-126905191D01*
X88996035Y-126824579D01*
X89043447Y-126586222D01*
X89167902Y-126285760D01*
X89275602Y-126124576D01*
X89348585Y-126015349D01*
X89578549Y-125785385D01*
X89848958Y-125604703D01*
X90149421Y-125480247D01*
X90255744Y-125459098D01*
X90468389Y-125416800D01*
X90793611Y-125416800D01*
X91006256Y-125459098D01*
G37*
G36*
X120246256Y-125459098D02*
G01*
X120352579Y-125480247D01*
X120653042Y-125604703D01*
X120923451Y-125785385D01*
X121153415Y-126015349D01*
X121226398Y-126124576D01*
X121334098Y-126285760D01*
X121458553Y-126586222D01*
X121505966Y-126824579D01*
X121522000Y-126905191D01*
X121522000Y-127230409D01*
X121458553Y-127549379D01*
X121334097Y-127849842D01*
X121153415Y-128120251D01*
X120923451Y-128350215D01*
X120653042Y-128530897D01*
X120352579Y-128655353D01*
X120246256Y-128676502D01*
X120033611Y-128718800D01*
X119708389Y-128718800D01*
X119495744Y-128676502D01*
X119389421Y-128655353D01*
X119088958Y-128530897D01*
X118818549Y-128350215D01*
X118588585Y-128120251D01*
X118407903Y-127849842D01*
X118283447Y-127549379D01*
X118220000Y-127230409D01*
X118220000Y-126905191D01*
X118236035Y-126824579D01*
X118283447Y-126586222D01*
X118407902Y-126285760D01*
X118515602Y-126124576D01*
X118588585Y-126015349D01*
X118818549Y-125785385D01*
X119088958Y-125604703D01*
X119389421Y-125480247D01*
X119495744Y-125459098D01*
X119708389Y-125416800D01*
X120033611Y-125416800D01*
X120246256Y-125459098D01*
G37*
G36*
X108816256Y-125459098D02*
G01*
X108922579Y-125480247D01*
X109223042Y-125604703D01*
X109493451Y-125785385D01*
X109723415Y-126015349D01*
X109796398Y-126124576D01*
X109904098Y-126285760D01*
X110028553Y-126586222D01*
X110075966Y-126824579D01*
X110092000Y-126905191D01*
X110092000Y-127230409D01*
X110028553Y-127549379D01*
X109904097Y-127849842D01*
X109723415Y-128120251D01*
X109493451Y-128350215D01*
X109223042Y-128530897D01*
X108922579Y-128655353D01*
X108816256Y-128676502D01*
X108603611Y-128718800D01*
X108278389Y-128718800D01*
X108065744Y-128676502D01*
X107959421Y-128655353D01*
X107658958Y-128530897D01*
X107388549Y-128350215D01*
X107158585Y-128120251D01*
X106977903Y-127849842D01*
X106853447Y-127549379D01*
X106790000Y-127230409D01*
X106790000Y-126905191D01*
X106806035Y-126824579D01*
X106853447Y-126586222D01*
X106977902Y-126285760D01*
X107085602Y-126124576D01*
X107158585Y-126015349D01*
X107388549Y-125785385D01*
X107658958Y-125604703D01*
X107959421Y-125480247D01*
X108065744Y-125459098D01*
X108278389Y-125416800D01*
X108603611Y-125416800D01*
X108816256Y-125459098D01*
G37*
G36*
X131707778Y-125678347D02*
G01*
X131874224Y-125747291D01*
X132024022Y-125847383D01*
X132151417Y-125974778D01*
X132251509Y-126124576D01*
X132320453Y-126291022D01*
X132355600Y-126467718D01*
X132355600Y-126647882D01*
X132320453Y-126824578D01*
X132251509Y-126991024D01*
X132151417Y-127140822D01*
X132024022Y-127268217D01*
X131874224Y-127368309D01*
X131707778Y-127437253D01*
X131531082Y-127472400D01*
X131350918Y-127472400D01*
X131174222Y-127437253D01*
X131007776Y-127368309D01*
X130857978Y-127268217D01*
X130730583Y-127140822D01*
X130630491Y-126991024D01*
X130561547Y-126824578D01*
X130526400Y-126647882D01*
X130526400Y-126467718D01*
X130561547Y-126291022D01*
X130630491Y-126124576D01*
X130730583Y-125974778D01*
X130857978Y-125847383D01*
X131007776Y-125747291D01*
X131174222Y-125678347D01*
X131350918Y-125643200D01*
X131531082Y-125643200D01*
X131707778Y-125678347D01*
G37*
G36*
X129167778Y-125678347D02*
G01*
X129334224Y-125747291D01*
X129484022Y-125847383D01*
X129611417Y-125974778D01*
X129711509Y-126124576D01*
X129780453Y-126291022D01*
X129815600Y-126467718D01*
X129815600Y-126647882D01*
X129780453Y-126824578D01*
X129711509Y-126991024D01*
X129611417Y-127140822D01*
X129484022Y-127268217D01*
X129334224Y-127368309D01*
X129167778Y-127437253D01*
X128991082Y-127472400D01*
X128810918Y-127472400D01*
X128634222Y-127437253D01*
X128467776Y-127368309D01*
X128317978Y-127268217D01*
X128190583Y-127140822D01*
X128090491Y-126991024D01*
X128021547Y-126824578D01*
X127986400Y-126647882D01*
X127986400Y-126467718D01*
X128021547Y-126291022D01*
X128090491Y-126124576D01*
X128190583Y-125974778D01*
X128317978Y-125847383D01*
X128467776Y-125747291D01*
X128634222Y-125678347D01*
X128810918Y-125643200D01*
X128991082Y-125643200D01*
X129167778Y-125678347D01*
G37*
G36*
X129167778Y-123138347D02*
G01*
X129334224Y-123207291D01*
X129484022Y-123307383D01*
X129611417Y-123434778D01*
X129711509Y-123584576D01*
X129780453Y-123751022D01*
X129815600Y-123927718D01*
X129815600Y-124107882D01*
X129780453Y-124284578D01*
X129711509Y-124451024D01*
X129611417Y-124600822D01*
X129484022Y-124728217D01*
X129334224Y-124828309D01*
X129167778Y-124897253D01*
X128991082Y-124932400D01*
X128810918Y-124932400D01*
X128634222Y-124897253D01*
X128467776Y-124828309D01*
X128317978Y-124728217D01*
X128190583Y-124600822D01*
X128090491Y-124451024D01*
X128021547Y-124284578D01*
X127986400Y-124107882D01*
X127986400Y-123927718D01*
X128021547Y-123751022D01*
X128090491Y-123584576D01*
X128190583Y-123434778D01*
X128317978Y-123307383D01*
X128467776Y-123207291D01*
X128634222Y-123138347D01*
X128810918Y-123103200D01*
X128991082Y-123103200D01*
X129167778Y-123138347D01*
G37*
G36*
X131707778Y-123138347D02*
G01*
X131874224Y-123207291D01*
X132024022Y-123307383D01*
X132151417Y-123434778D01*
X132251509Y-123584576D01*
X132320453Y-123751022D01*
X132355600Y-123927718D01*
X132355600Y-124107882D01*
X132320453Y-124284578D01*
X132251509Y-124451024D01*
X132151417Y-124600822D01*
X132024022Y-124728217D01*
X131874224Y-124828309D01*
X131707778Y-124897253D01*
X131531082Y-124932400D01*
X131350918Y-124932400D01*
X131174222Y-124897253D01*
X131007776Y-124828309D01*
X130857978Y-124728217D01*
X130730583Y-124600822D01*
X130630491Y-124451024D01*
X130561547Y-124284578D01*
X130526400Y-124107882D01*
X130526400Y-123927718D01*
X130561547Y-123751022D01*
X130630491Y-123584576D01*
X130730583Y-123434778D01*
X130857978Y-123307383D01*
X131007776Y-123207291D01*
X131174222Y-123138347D01*
X131350918Y-123103200D01*
X131531082Y-123103200D01*
X131707778Y-123138347D01*
G37*
G36*
X83838200Y-123970840D02*
G01*
X80736200Y-123970840D01*
X80736200Y-120868840D01*
X83838200Y-120868840D01*
X83838200Y-123970840D01*
G37*
G36*
X131707778Y-120598347D02*
G01*
X131874224Y-120667291D01*
X132024022Y-120767383D01*
X132151417Y-120894778D01*
X132251509Y-121044576D01*
X132320453Y-121211022D01*
X132355600Y-121387718D01*
X132355600Y-121567882D01*
X132320453Y-121744578D01*
X132251509Y-121911024D01*
X132151417Y-122060822D01*
X132024022Y-122188217D01*
X131874224Y-122288309D01*
X131707778Y-122357253D01*
X131531082Y-122392400D01*
X131350918Y-122392400D01*
X131174222Y-122357253D01*
X131007776Y-122288309D01*
X130857978Y-122188217D01*
X130730583Y-122060822D01*
X130630491Y-121911024D01*
X130561547Y-121744578D01*
X130526400Y-121567882D01*
X130526400Y-121387718D01*
X130561547Y-121211022D01*
X130630491Y-121044576D01*
X130730583Y-120894778D01*
X130857978Y-120767383D01*
X131007776Y-120667291D01*
X131174222Y-120598347D01*
X131350918Y-120563200D01*
X131531082Y-120563200D01*
X131707778Y-120598347D01*
G37*
G36*
X129167778Y-120598347D02*
G01*
X129334224Y-120667291D01*
X129484022Y-120767383D01*
X129611417Y-120894778D01*
X129711509Y-121044576D01*
X129780453Y-121211022D01*
X129815600Y-121387718D01*
X129815600Y-121567882D01*
X129780453Y-121744578D01*
X129711509Y-121911024D01*
X129611417Y-122060822D01*
X129484022Y-122188217D01*
X129334224Y-122288309D01*
X129167778Y-122357253D01*
X128991082Y-122392400D01*
X128810918Y-122392400D01*
X128634222Y-122357253D01*
X128467776Y-122288309D01*
X128317978Y-122188217D01*
X128190583Y-122060822D01*
X128090491Y-121911024D01*
X128021547Y-121744578D01*
X127986400Y-121567882D01*
X127986400Y-121387718D01*
X128021547Y-121211022D01*
X128090491Y-121044576D01*
X128190583Y-120894778D01*
X128317978Y-120767383D01*
X128467776Y-120667291D01*
X128634222Y-120598347D01*
X128810918Y-120563200D01*
X128991082Y-120563200D01*
X129167778Y-120598347D01*
G37*
G36*
X99754642Y-119947581D02*
G01*
X99900414Y-120007962D01*
X99900416Y-120007963D01*
X100031608Y-120095622D01*
X100143178Y-120207192D01*
X100230837Y-120338384D01*
X100230838Y-120338386D01*
X100291219Y-120484158D01*
X100322000Y-120638907D01*
X100322000Y-120796693D01*
X100291219Y-120951442D01*
X100252642Y-121044575D01*
X100230837Y-121097216D01*
X100143178Y-121228408D01*
X100031608Y-121339978D01*
X99900416Y-121427637D01*
X99900415Y-121427638D01*
X99900414Y-121427638D01*
X99754642Y-121488019D01*
X99599893Y-121518800D01*
X99442107Y-121518800D01*
X99287358Y-121488019D01*
X99141586Y-121427638D01*
X99141585Y-121427638D01*
X99141584Y-121427637D01*
X99010392Y-121339978D01*
X98898822Y-121228408D01*
X98811163Y-121097216D01*
X98789358Y-121044575D01*
X98750781Y-120951442D01*
X98720000Y-120796693D01*
X98720000Y-120638907D01*
X98750781Y-120484158D01*
X98811162Y-120338386D01*
X98811163Y-120338384D01*
X98898822Y-120207192D01*
X99010392Y-120095622D01*
X99141584Y-120007963D01*
X99141586Y-120007962D01*
X99287358Y-119947581D01*
X99442107Y-119916800D01*
X99599893Y-119916800D01*
X99754642Y-119947581D01*
G37*
G36*
X97214642Y-119947581D02*
G01*
X97360414Y-120007962D01*
X97360416Y-120007963D01*
X97491608Y-120095622D01*
X97603178Y-120207192D01*
X97690837Y-120338384D01*
X97690838Y-120338386D01*
X97751219Y-120484158D01*
X97782000Y-120638907D01*
X97782000Y-120796693D01*
X97751219Y-120951442D01*
X97712642Y-121044575D01*
X97690837Y-121097216D01*
X97603178Y-121228408D01*
X97491608Y-121339978D01*
X97360416Y-121427637D01*
X97360415Y-121427638D01*
X97360414Y-121427638D01*
X97214642Y-121488019D01*
X97059893Y-121518800D01*
X96902107Y-121518800D01*
X96747358Y-121488019D01*
X96601586Y-121427638D01*
X96601585Y-121427638D01*
X96601584Y-121427637D01*
X96470392Y-121339978D01*
X96358822Y-121228408D01*
X96271163Y-121097216D01*
X96249358Y-121044575D01*
X96210781Y-120951442D01*
X96180000Y-120796693D01*
X96180000Y-120638907D01*
X96210781Y-120484158D01*
X96271162Y-120338386D01*
X96271163Y-120338384D01*
X96358822Y-120207192D01*
X96470392Y-120095622D01*
X96601584Y-120007963D01*
X96601586Y-120007962D01*
X96747358Y-119947581D01*
X96902107Y-119916800D01*
X97059893Y-119916800D01*
X97214642Y-119947581D01*
G37*
G36*
X94674642Y-119947581D02*
G01*
X94820414Y-120007962D01*
X94820416Y-120007963D01*
X94951608Y-120095622D01*
X95063178Y-120207192D01*
X95150837Y-120338384D01*
X95150838Y-120338386D01*
X95211219Y-120484158D01*
X95242000Y-120638907D01*
X95242000Y-120796693D01*
X95211219Y-120951442D01*
X95172642Y-121044575D01*
X95150837Y-121097216D01*
X95063178Y-121228408D01*
X94951608Y-121339978D01*
X94820416Y-121427637D01*
X94820415Y-121427638D01*
X94820414Y-121427638D01*
X94674642Y-121488019D01*
X94519893Y-121518800D01*
X94362107Y-121518800D01*
X94207358Y-121488019D01*
X94061586Y-121427638D01*
X94061585Y-121427638D01*
X94061584Y-121427637D01*
X93930392Y-121339978D01*
X93818822Y-121228408D01*
X93731163Y-121097216D01*
X93709358Y-121044575D01*
X93670781Y-120951442D01*
X93640000Y-120796693D01*
X93640000Y-120638907D01*
X93670781Y-120484158D01*
X93731162Y-120338386D01*
X93731163Y-120338384D01*
X93818822Y-120207192D01*
X93930392Y-120095622D01*
X94061584Y-120007963D01*
X94061586Y-120007962D01*
X94207358Y-119947581D01*
X94362107Y-119916800D01*
X94519893Y-119916800D01*
X94674642Y-119947581D01*
G37*
G36*
X92702000Y-121518800D02*
G01*
X91100000Y-121518800D01*
X91100000Y-119916800D01*
X92702000Y-119916800D01*
X92702000Y-121518800D01*
G37*
G36*
X117564642Y-119947581D02*
G01*
X117710414Y-120007962D01*
X117710416Y-120007963D01*
X117841608Y-120095622D01*
X117953178Y-120207192D01*
X118040837Y-120338384D01*
X118040838Y-120338386D01*
X118101219Y-120484158D01*
X118132000Y-120638907D01*
X118132000Y-120796693D01*
X118101219Y-120951442D01*
X118062642Y-121044575D01*
X118040837Y-121097216D01*
X117953178Y-121228408D01*
X117841608Y-121339978D01*
X117710416Y-121427637D01*
X117710415Y-121427638D01*
X117710414Y-121427638D01*
X117564642Y-121488019D01*
X117409893Y-121518800D01*
X117252107Y-121518800D01*
X117097358Y-121488019D01*
X116951586Y-121427638D01*
X116951585Y-121427638D01*
X116951584Y-121427637D01*
X116820392Y-121339978D01*
X116708822Y-121228408D01*
X116621163Y-121097216D01*
X116599358Y-121044575D01*
X116560781Y-120951442D01*
X116530000Y-120796693D01*
X116530000Y-120638907D01*
X116560781Y-120484158D01*
X116621162Y-120338386D01*
X116621163Y-120338384D01*
X116708822Y-120207192D01*
X116820392Y-120095622D01*
X116951584Y-120007963D01*
X116951586Y-120007962D01*
X117097358Y-119947581D01*
X117252107Y-119916800D01*
X117409893Y-119916800D01*
X117564642Y-119947581D01*
G37*
G36*
X115024642Y-119947581D02*
G01*
X115170414Y-120007962D01*
X115170416Y-120007963D01*
X115301608Y-120095622D01*
X115413178Y-120207192D01*
X115500837Y-120338384D01*
X115500838Y-120338386D01*
X115561219Y-120484158D01*
X115592000Y-120638907D01*
X115592000Y-120796693D01*
X115561219Y-120951442D01*
X115522642Y-121044575D01*
X115500837Y-121097216D01*
X115413178Y-121228408D01*
X115301608Y-121339978D01*
X115170416Y-121427637D01*
X115170415Y-121427638D01*
X115170414Y-121427638D01*
X115024642Y-121488019D01*
X114869893Y-121518800D01*
X114712107Y-121518800D01*
X114557358Y-121488019D01*
X114411586Y-121427638D01*
X114411585Y-121427638D01*
X114411584Y-121427637D01*
X114280392Y-121339978D01*
X114168822Y-121228408D01*
X114081163Y-121097216D01*
X114059358Y-121044575D01*
X114020781Y-120951442D01*
X113990000Y-120796693D01*
X113990000Y-120638907D01*
X114020781Y-120484158D01*
X114081162Y-120338386D01*
X114081163Y-120338384D01*
X114168822Y-120207192D01*
X114280392Y-120095622D01*
X114411584Y-120007963D01*
X114411586Y-120007962D01*
X114557358Y-119947581D01*
X114712107Y-119916800D01*
X114869893Y-119916800D01*
X115024642Y-119947581D01*
G37*
G36*
X112484642Y-119947581D02*
G01*
X112630414Y-120007962D01*
X112630416Y-120007963D01*
X112761608Y-120095622D01*
X112873178Y-120207192D01*
X112960837Y-120338384D01*
X112960838Y-120338386D01*
X113021219Y-120484158D01*
X113052000Y-120638907D01*
X113052000Y-120796693D01*
X113021219Y-120951442D01*
X112982642Y-121044575D01*
X112960837Y-121097216D01*
X112873178Y-121228408D01*
X112761608Y-121339978D01*
X112630416Y-121427637D01*
X112630415Y-121427638D01*
X112630414Y-121427638D01*
X112484642Y-121488019D01*
X112329893Y-121518800D01*
X112172107Y-121518800D01*
X112017358Y-121488019D01*
X111871586Y-121427638D01*
X111871585Y-121427638D01*
X111871584Y-121427637D01*
X111740392Y-121339978D01*
X111628822Y-121228408D01*
X111541163Y-121097216D01*
X111519358Y-121044575D01*
X111480781Y-120951442D01*
X111450000Y-120796693D01*
X111450000Y-120638907D01*
X111480781Y-120484158D01*
X111541162Y-120338386D01*
X111541163Y-120338384D01*
X111628822Y-120207192D01*
X111740392Y-120095622D01*
X111871584Y-120007963D01*
X111871586Y-120007962D01*
X112017358Y-119947581D01*
X112172107Y-119916800D01*
X112329893Y-119916800D01*
X112484642Y-119947581D01*
G37*
G36*
X110512000Y-121518800D02*
G01*
X108910000Y-121518800D01*
X108910000Y-119916800D01*
X110512000Y-119916800D01*
X110512000Y-121518800D01*
G37*
G36*
X129167778Y-118058347D02*
G01*
X129334224Y-118127291D01*
X129484022Y-118227383D01*
X129611417Y-118354778D01*
X129711509Y-118504576D01*
X129780453Y-118671022D01*
X129815600Y-118847718D01*
X129815600Y-119027882D01*
X129780453Y-119204578D01*
X129711509Y-119371024D01*
X129611417Y-119520822D01*
X129484022Y-119648217D01*
X129334224Y-119748309D01*
X129167778Y-119817253D01*
X128991082Y-119852400D01*
X128810918Y-119852400D01*
X128634222Y-119817253D01*
X128467776Y-119748309D01*
X128317978Y-119648217D01*
X128190583Y-119520822D01*
X128090491Y-119371024D01*
X128021547Y-119204578D01*
X127986400Y-119027882D01*
X127986400Y-118847718D01*
X128021547Y-118671022D01*
X128090491Y-118504576D01*
X128190583Y-118354778D01*
X128317978Y-118227383D01*
X128467776Y-118127291D01*
X128634222Y-118058347D01*
X128810918Y-118023200D01*
X128991082Y-118023200D01*
X129167778Y-118058347D01*
G37*
G36*
X131707778Y-118058347D02*
G01*
X131874224Y-118127291D01*
X132024022Y-118227383D01*
X132151417Y-118354778D01*
X132251509Y-118504576D01*
X132320453Y-118671022D01*
X132355600Y-118847718D01*
X132355600Y-119027882D01*
X132320453Y-119204578D01*
X132251509Y-119371024D01*
X132151417Y-119520822D01*
X132024022Y-119648217D01*
X131874224Y-119748309D01*
X131707778Y-119817253D01*
X131531082Y-119852400D01*
X131350918Y-119852400D01*
X131174222Y-119817253D01*
X131007776Y-119748309D01*
X130857978Y-119648217D01*
X130730583Y-119520822D01*
X130630491Y-119371024D01*
X130561547Y-119204578D01*
X130526400Y-119027882D01*
X130526400Y-118847718D01*
X130561547Y-118671022D01*
X130630491Y-118504576D01*
X130730583Y-118354778D01*
X130857978Y-118227383D01*
X131007776Y-118127291D01*
X131174222Y-118058347D01*
X131350918Y-118023200D01*
X131531082Y-118023200D01*
X131707778Y-118058347D01*
G37*
G36*
X116294642Y-117407581D02*
G01*
X116440414Y-117467962D01*
X116440416Y-117467963D01*
X116571608Y-117555622D01*
X116683178Y-117667192D01*
X116770837Y-117798384D01*
X116770838Y-117798386D01*
X116831219Y-117944158D01*
X116862000Y-118098907D01*
X116862000Y-118256693D01*
X116831219Y-118411442D01*
X116792642Y-118504575D01*
X116770837Y-118557216D01*
X116683178Y-118688408D01*
X116571608Y-118799978D01*
X116440416Y-118887637D01*
X116440415Y-118887638D01*
X116440414Y-118887638D01*
X116294642Y-118948019D01*
X116139893Y-118978800D01*
X115982107Y-118978800D01*
X115827358Y-118948019D01*
X115681586Y-118887638D01*
X115681585Y-118887638D01*
X115681584Y-118887637D01*
X115550392Y-118799978D01*
X115438822Y-118688408D01*
X115351163Y-118557216D01*
X115329358Y-118504575D01*
X115290781Y-118411442D01*
X115260000Y-118256693D01*
X115260000Y-118098907D01*
X115290781Y-117944158D01*
X115351162Y-117798386D01*
X115351163Y-117798384D01*
X115438822Y-117667192D01*
X115550392Y-117555622D01*
X115681584Y-117467963D01*
X115681586Y-117467962D01*
X115827358Y-117407581D01*
X115982107Y-117376800D01*
X116139893Y-117376800D01*
X116294642Y-117407581D01*
G37*
G36*
X93404642Y-117407581D02*
G01*
X93550414Y-117467962D01*
X93550416Y-117467963D01*
X93681608Y-117555622D01*
X93793178Y-117667192D01*
X93880837Y-117798384D01*
X93880838Y-117798386D01*
X93941219Y-117944158D01*
X93972000Y-118098907D01*
X93972000Y-118256693D01*
X93941219Y-118411442D01*
X93902642Y-118504575D01*
X93880837Y-118557216D01*
X93793178Y-118688408D01*
X93681608Y-118799978D01*
X93550416Y-118887637D01*
X93550415Y-118887638D01*
X93550414Y-118887638D01*
X93404642Y-118948019D01*
X93249893Y-118978800D01*
X93092107Y-118978800D01*
X92937358Y-118948019D01*
X92791586Y-118887638D01*
X92791585Y-118887638D01*
X92791584Y-118887637D01*
X92660392Y-118799978D01*
X92548822Y-118688408D01*
X92461163Y-118557216D01*
X92439358Y-118504575D01*
X92400781Y-118411442D01*
X92370000Y-118256693D01*
X92370000Y-118098907D01*
X92400781Y-117944158D01*
X92461162Y-117798386D01*
X92461163Y-117798384D01*
X92548822Y-117667192D01*
X92660392Y-117555622D01*
X92791584Y-117467963D01*
X92791586Y-117467962D01*
X92937358Y-117407581D01*
X93092107Y-117376800D01*
X93249893Y-117376800D01*
X93404642Y-117407581D01*
G37*
G36*
X118834642Y-117407581D02*
G01*
X118980414Y-117467962D01*
X118980416Y-117467963D01*
X119111608Y-117555622D01*
X119223178Y-117667192D01*
X119310837Y-117798384D01*
X119310838Y-117798386D01*
X119371219Y-117944158D01*
X119402000Y-118098907D01*
X119402000Y-118256693D01*
X119371219Y-118411442D01*
X119332642Y-118504575D01*
X119310837Y-118557216D01*
X119223178Y-118688408D01*
X119111608Y-118799978D01*
X118980416Y-118887637D01*
X118980415Y-118887638D01*
X118980414Y-118887638D01*
X118834642Y-118948019D01*
X118679893Y-118978800D01*
X118522107Y-118978800D01*
X118367358Y-118948019D01*
X118221586Y-118887638D01*
X118221585Y-118887638D01*
X118221584Y-118887637D01*
X118090392Y-118799978D01*
X117978822Y-118688408D01*
X117891163Y-118557216D01*
X117869358Y-118504575D01*
X117830781Y-118411442D01*
X117800000Y-118256693D01*
X117800000Y-118098907D01*
X117830781Y-117944158D01*
X117891162Y-117798386D01*
X117891163Y-117798384D01*
X117978822Y-117667192D01*
X118090392Y-117555622D01*
X118221584Y-117467963D01*
X118221586Y-117467962D01*
X118367358Y-117407581D01*
X118522107Y-117376800D01*
X118679893Y-117376800D01*
X118834642Y-117407581D01*
G37*
G36*
X113754642Y-117407581D02*
G01*
X113900414Y-117467962D01*
X113900416Y-117467963D01*
X114031608Y-117555622D01*
X114143178Y-117667192D01*
X114230837Y-117798384D01*
X114230838Y-117798386D01*
X114291219Y-117944158D01*
X114322000Y-118098907D01*
X114322000Y-118256693D01*
X114291219Y-118411442D01*
X114252642Y-118504575D01*
X114230837Y-118557216D01*
X114143178Y-118688408D01*
X114031608Y-118799978D01*
X113900416Y-118887637D01*
X113900415Y-118887638D01*
X113900414Y-118887638D01*
X113754642Y-118948019D01*
X113599893Y-118978800D01*
X113442107Y-118978800D01*
X113287358Y-118948019D01*
X113141586Y-118887638D01*
X113141585Y-118887638D01*
X113141584Y-118887637D01*
X113010392Y-118799978D01*
X112898822Y-118688408D01*
X112811163Y-118557216D01*
X112789358Y-118504575D01*
X112750781Y-118411442D01*
X112720000Y-118256693D01*
X112720000Y-118098907D01*
X112750781Y-117944158D01*
X112811162Y-117798386D01*
X112811163Y-117798384D01*
X112898822Y-117667192D01*
X113010392Y-117555622D01*
X113141584Y-117467963D01*
X113141586Y-117467962D01*
X113287358Y-117407581D01*
X113442107Y-117376800D01*
X113599893Y-117376800D01*
X113754642Y-117407581D01*
G37*
G36*
X101024642Y-117407581D02*
G01*
X101170414Y-117467962D01*
X101170416Y-117467963D01*
X101301608Y-117555622D01*
X101413178Y-117667192D01*
X101500837Y-117798384D01*
X101500838Y-117798386D01*
X101561219Y-117944158D01*
X101592000Y-118098907D01*
X101592000Y-118256693D01*
X101561219Y-118411442D01*
X101522642Y-118504575D01*
X101500837Y-118557216D01*
X101413178Y-118688408D01*
X101301608Y-118799978D01*
X101170416Y-118887637D01*
X101170415Y-118887638D01*
X101170414Y-118887638D01*
X101024642Y-118948019D01*
X100869893Y-118978800D01*
X100712107Y-118978800D01*
X100557358Y-118948019D01*
X100411586Y-118887638D01*
X100411585Y-118887638D01*
X100411584Y-118887637D01*
X100280392Y-118799978D01*
X100168822Y-118688408D01*
X100081163Y-118557216D01*
X100059358Y-118504575D01*
X100020781Y-118411442D01*
X99990000Y-118256693D01*
X99990000Y-118098907D01*
X100020781Y-117944158D01*
X100081162Y-117798386D01*
X100081163Y-117798384D01*
X100168822Y-117667192D01*
X100280392Y-117555622D01*
X100411584Y-117467963D01*
X100411586Y-117467962D01*
X100557358Y-117407581D01*
X100712107Y-117376800D01*
X100869893Y-117376800D01*
X101024642Y-117407581D01*
G37*
G36*
X98484642Y-117407581D02*
G01*
X98630414Y-117467962D01*
X98630416Y-117467963D01*
X98761608Y-117555622D01*
X98873178Y-117667192D01*
X98960837Y-117798384D01*
X98960838Y-117798386D01*
X99021219Y-117944158D01*
X99052000Y-118098907D01*
X99052000Y-118256693D01*
X99021219Y-118411442D01*
X98982642Y-118504575D01*
X98960837Y-118557216D01*
X98873178Y-118688408D01*
X98761608Y-118799978D01*
X98630416Y-118887637D01*
X98630415Y-118887638D01*
X98630414Y-118887638D01*
X98484642Y-118948019D01*
X98329893Y-118978800D01*
X98172107Y-118978800D01*
X98017358Y-118948019D01*
X97871586Y-118887638D01*
X97871585Y-118887638D01*
X97871584Y-118887637D01*
X97740392Y-118799978D01*
X97628822Y-118688408D01*
X97541163Y-118557216D01*
X97519358Y-118504575D01*
X97480781Y-118411442D01*
X97450000Y-118256693D01*
X97450000Y-118098907D01*
X97480781Y-117944158D01*
X97541162Y-117798386D01*
X97541163Y-117798384D01*
X97628822Y-117667192D01*
X97740392Y-117555622D01*
X97871584Y-117467963D01*
X97871586Y-117467962D01*
X98017358Y-117407581D01*
X98172107Y-117376800D01*
X98329893Y-117376800D01*
X98484642Y-117407581D01*
G37*
G36*
X95944642Y-117407581D02*
G01*
X96090414Y-117467962D01*
X96090416Y-117467963D01*
X96221608Y-117555622D01*
X96333178Y-117667192D01*
X96420837Y-117798384D01*
X96420838Y-117798386D01*
X96481219Y-117944158D01*
X96512000Y-118098907D01*
X96512000Y-118256693D01*
X96481219Y-118411442D01*
X96442642Y-118504575D01*
X96420837Y-118557216D01*
X96333178Y-118688408D01*
X96221608Y-118799978D01*
X96090416Y-118887637D01*
X96090415Y-118887638D01*
X96090414Y-118887638D01*
X95944642Y-118948019D01*
X95789893Y-118978800D01*
X95632107Y-118978800D01*
X95477358Y-118948019D01*
X95331586Y-118887638D01*
X95331585Y-118887638D01*
X95331584Y-118887637D01*
X95200392Y-118799978D01*
X95088822Y-118688408D01*
X95001163Y-118557216D01*
X94979358Y-118504575D01*
X94940781Y-118411442D01*
X94910000Y-118256693D01*
X94910000Y-118098907D01*
X94940781Y-117944158D01*
X95001162Y-117798386D01*
X95001163Y-117798384D01*
X95088822Y-117667192D01*
X95200392Y-117555622D01*
X95331584Y-117467963D01*
X95331586Y-117467962D01*
X95477358Y-117407581D01*
X95632107Y-117376800D01*
X95789893Y-117376800D01*
X95944642Y-117407581D01*
G37*
G36*
X111214642Y-117407581D02*
G01*
X111360414Y-117467962D01*
X111360416Y-117467963D01*
X111491608Y-117555622D01*
X111603178Y-117667192D01*
X111690837Y-117798384D01*
X111690838Y-117798386D01*
X111751219Y-117944158D01*
X111782000Y-118098907D01*
X111782000Y-118256693D01*
X111751219Y-118411442D01*
X111712642Y-118504575D01*
X111690837Y-118557216D01*
X111603178Y-118688408D01*
X111491608Y-118799978D01*
X111360416Y-118887637D01*
X111360415Y-118887638D01*
X111360414Y-118887638D01*
X111214642Y-118948019D01*
X111059893Y-118978800D01*
X110902107Y-118978800D01*
X110747358Y-118948019D01*
X110601586Y-118887638D01*
X110601585Y-118887638D01*
X110601584Y-118887637D01*
X110470392Y-118799978D01*
X110358822Y-118688408D01*
X110271163Y-118557216D01*
X110249358Y-118504575D01*
X110210781Y-118411442D01*
X110180000Y-118256693D01*
X110180000Y-118098907D01*
X110210781Y-117944158D01*
X110271162Y-117798386D01*
X110271163Y-117798384D01*
X110358822Y-117667192D01*
X110470392Y-117555622D01*
X110601584Y-117467963D01*
X110601586Y-117467962D01*
X110747358Y-117407581D01*
X110902107Y-117376800D01*
X111059893Y-117376800D01*
X111214642Y-117407581D01*
G37*
G36*
X131707778Y-115518347D02*
G01*
X131874224Y-115587291D01*
X132024022Y-115687383D01*
X132151417Y-115814778D01*
X132251509Y-115964576D01*
X132320453Y-116131022D01*
X132355600Y-116307718D01*
X132355600Y-116487882D01*
X132320453Y-116664578D01*
X132251509Y-116831024D01*
X132151417Y-116980822D01*
X132024022Y-117108217D01*
X131874224Y-117208309D01*
X131707778Y-117277253D01*
X131531082Y-117312400D01*
X131350918Y-117312400D01*
X131174222Y-117277253D01*
X131007776Y-117208309D01*
X130857978Y-117108217D01*
X130730583Y-116980822D01*
X130630491Y-116831024D01*
X130561547Y-116664578D01*
X130526400Y-116487882D01*
X130526400Y-116307718D01*
X130561547Y-116131022D01*
X130630491Y-115964576D01*
X130730583Y-115814778D01*
X130857978Y-115687383D01*
X131007776Y-115587291D01*
X131174222Y-115518347D01*
X131350918Y-115483200D01*
X131531082Y-115483200D01*
X131707778Y-115518347D01*
G37*
G36*
X129167778Y-115518347D02*
G01*
X129334224Y-115587291D01*
X129484022Y-115687383D01*
X129611417Y-115814778D01*
X129711509Y-115964576D01*
X129780453Y-116131022D01*
X129815600Y-116307718D01*
X129815600Y-116487882D01*
X129780453Y-116664578D01*
X129711509Y-116831024D01*
X129611417Y-116980822D01*
X129484022Y-117108217D01*
X129334224Y-117208309D01*
X129167778Y-117277253D01*
X128991082Y-117312400D01*
X128810918Y-117312400D01*
X128634222Y-117277253D01*
X128467776Y-117208309D01*
X128317978Y-117108217D01*
X128190583Y-116980822D01*
X128090491Y-116831024D01*
X128021547Y-116664578D01*
X127986400Y-116487882D01*
X127986400Y-116307718D01*
X128021547Y-116131022D01*
X128090491Y-115964576D01*
X128190583Y-115814778D01*
X128317978Y-115687383D01*
X128467776Y-115587291D01*
X128634222Y-115518347D01*
X128810918Y-115483200D01*
X128991082Y-115483200D01*
X129167778Y-115518347D01*
G37*
G36*
X131707778Y-112978347D02*
G01*
X131874224Y-113047291D01*
X132024022Y-113147383D01*
X132151417Y-113274778D01*
X132251509Y-113424576D01*
X132320453Y-113591022D01*
X132355600Y-113767718D01*
X132355600Y-113947882D01*
X132320453Y-114124578D01*
X132251509Y-114291024D01*
X132151417Y-114440822D01*
X132024022Y-114568217D01*
X131874224Y-114668309D01*
X131707778Y-114737253D01*
X131531082Y-114772400D01*
X131350918Y-114772400D01*
X131174222Y-114737253D01*
X131007776Y-114668309D01*
X130857978Y-114568217D01*
X130730583Y-114440822D01*
X130630491Y-114291024D01*
X130561547Y-114124578D01*
X130526400Y-113947882D01*
X130526400Y-113767718D01*
X130561547Y-113591022D01*
X130630491Y-113424576D01*
X130730583Y-113274778D01*
X130857978Y-113147383D01*
X131007776Y-113047291D01*
X131174222Y-112978347D01*
X131350918Y-112943200D01*
X131531082Y-112943200D01*
X131707778Y-112978347D01*
G37*
G36*
X129167778Y-112978347D02*
G01*
X129334224Y-113047291D01*
X129484022Y-113147383D01*
X129611417Y-113274778D01*
X129711509Y-113424576D01*
X129780453Y-113591022D01*
X129815600Y-113767718D01*
X129815600Y-113947882D01*
X129780453Y-114124578D01*
X129711509Y-114291024D01*
X129611417Y-114440822D01*
X129484022Y-114568217D01*
X129334224Y-114668309D01*
X129167778Y-114737253D01*
X128991082Y-114772400D01*
X128810918Y-114772400D01*
X128634222Y-114737253D01*
X128467776Y-114668309D01*
X128317978Y-114568217D01*
X128190583Y-114440822D01*
X128090491Y-114291024D01*
X128021547Y-114124578D01*
X127986400Y-113947882D01*
X127986400Y-113767718D01*
X128021547Y-113591022D01*
X128090491Y-113424576D01*
X128190583Y-113274778D01*
X128317978Y-113147383D01*
X128467776Y-113047291D01*
X128634222Y-112978347D01*
X128810918Y-112943200D01*
X128991082Y-112943200D01*
X129167778Y-112978347D01*
G37*
G36*
X76297228Y-113064503D02*
G01*
X76452100Y-113128653D01*
X76591481Y-113221785D01*
X76710015Y-113340319D01*
X76803147Y-113479700D01*
X76867297Y-113634572D01*
X76900000Y-113798984D01*
X76900000Y-113966616D01*
X76867297Y-114131028D01*
X76803147Y-114285900D01*
X76710015Y-114425281D01*
X76591481Y-114543815D01*
X76452100Y-114636947D01*
X76297228Y-114701097D01*
X76132816Y-114733800D01*
X75965184Y-114733800D01*
X75800772Y-114701097D01*
X75645900Y-114636947D01*
X75506519Y-114543815D01*
X75387985Y-114425281D01*
X75294853Y-114285900D01*
X75230703Y-114131028D01*
X75198000Y-113966616D01*
X75198000Y-113798984D01*
X75230703Y-113634572D01*
X75294853Y-113479700D01*
X75387985Y-113340319D01*
X75506519Y-113221785D01*
X75645900Y-113128653D01*
X75800772Y-113064503D01*
X75965184Y-113031800D01*
X76132816Y-113031800D01*
X76297228Y-113064503D01*
G37*
G36*
X131707778Y-110438347D02*
G01*
X131874224Y-110507291D01*
X132024022Y-110607383D01*
X132151417Y-110734778D01*
X132251509Y-110884576D01*
X132320453Y-111051022D01*
X132355600Y-111227718D01*
X132355600Y-111407882D01*
X132320453Y-111584578D01*
X132251509Y-111751024D01*
X132151417Y-111900822D01*
X132024022Y-112028217D01*
X131874224Y-112128309D01*
X131707778Y-112197253D01*
X131531082Y-112232400D01*
X131350918Y-112232400D01*
X131174222Y-112197253D01*
X131007776Y-112128309D01*
X130857978Y-112028217D01*
X130730583Y-111900822D01*
X130630491Y-111751024D01*
X130561547Y-111584578D01*
X130526400Y-111407882D01*
X130526400Y-111227718D01*
X130561547Y-111051022D01*
X130630491Y-110884576D01*
X130730583Y-110734778D01*
X130857978Y-110607383D01*
X131007776Y-110507291D01*
X131174222Y-110438347D01*
X131350918Y-110403200D01*
X131531082Y-110403200D01*
X131707778Y-110438347D01*
G37*
G36*
X129167778Y-110438347D02*
G01*
X129334224Y-110507291D01*
X129484022Y-110607383D01*
X129611417Y-110734778D01*
X129711509Y-110884576D01*
X129780453Y-111051022D01*
X129815600Y-111227718D01*
X129815600Y-111407882D01*
X129780453Y-111584578D01*
X129711509Y-111751024D01*
X129611417Y-111900822D01*
X129484022Y-112028217D01*
X129334224Y-112128309D01*
X129167778Y-112197253D01*
X128991082Y-112232400D01*
X128810918Y-112232400D01*
X128634222Y-112197253D01*
X128467776Y-112128309D01*
X128317978Y-112028217D01*
X128190583Y-111900822D01*
X128090491Y-111751024D01*
X128021547Y-111584578D01*
X127986400Y-111407882D01*
X127986400Y-111227718D01*
X128021547Y-111051022D01*
X128090491Y-110884576D01*
X128190583Y-110734778D01*
X128317978Y-110607383D01*
X128467776Y-110507291D01*
X128634222Y-110438347D01*
X128810918Y-110403200D01*
X128991082Y-110403200D01*
X129167778Y-110438347D01*
G37*
G36*
X129167778Y-107898347D02*
G01*
X129334224Y-107967291D01*
X129484022Y-108067383D01*
X129611417Y-108194778D01*
X129711509Y-108344576D01*
X129780453Y-108511022D01*
X129815600Y-108687718D01*
X129815600Y-108867882D01*
X129780453Y-109044578D01*
X129711509Y-109211024D01*
X129611417Y-109360822D01*
X129484022Y-109488217D01*
X129334224Y-109588309D01*
X129167778Y-109657253D01*
X128991082Y-109692400D01*
X128810918Y-109692400D01*
X128634222Y-109657253D01*
X128467776Y-109588309D01*
X128317978Y-109488217D01*
X128190583Y-109360822D01*
X128090491Y-109211024D01*
X128021547Y-109044578D01*
X127986400Y-108867882D01*
X127986400Y-108687718D01*
X128021547Y-108511022D01*
X128090491Y-108344576D01*
X128190583Y-108194778D01*
X128317978Y-108067383D01*
X128467776Y-107967291D01*
X128634222Y-107898347D01*
X128810918Y-107863200D01*
X128991082Y-107863200D01*
X129167778Y-107898347D01*
G37*
G36*
X131707778Y-107898347D02*
G01*
X131874224Y-107967291D01*
X132024022Y-108067383D01*
X132151417Y-108194778D01*
X132251509Y-108344576D01*
X132320453Y-108511022D01*
X132355600Y-108687718D01*
X132355600Y-108867882D01*
X132320453Y-109044578D01*
X132251509Y-109211024D01*
X132151417Y-109360822D01*
X132024022Y-109488217D01*
X131874224Y-109588309D01*
X131707778Y-109657253D01*
X131531082Y-109692400D01*
X131350918Y-109692400D01*
X131174222Y-109657253D01*
X131007776Y-109588309D01*
X130857978Y-109488217D01*
X130730583Y-109360822D01*
X130630491Y-109211024D01*
X130561547Y-109044578D01*
X130526400Y-108867882D01*
X130526400Y-108687718D01*
X130561547Y-108511022D01*
X130630491Y-108344576D01*
X130730583Y-108194778D01*
X130857978Y-108067383D01*
X131007776Y-107967291D01*
X131174222Y-107898347D01*
X131350918Y-107863200D01*
X131531082Y-107863200D01*
X131707778Y-107898347D01*
G37*
G36*
X120246256Y-105774098D02*
G01*
X120352579Y-105795247D01*
X120653042Y-105919703D01*
X120923451Y-106100385D01*
X121153415Y-106330349D01*
X121164284Y-106346616D01*
X121334098Y-106600760D01*
X121361080Y-106665900D01*
X121425251Y-106820822D01*
X121458553Y-106901222D01*
X121501525Y-107117253D01*
X121522000Y-107220191D01*
X121522000Y-107545409D01*
X121458553Y-107864379D01*
X121334097Y-108164842D01*
X121153415Y-108435251D01*
X120923451Y-108665215D01*
X120653042Y-108845897D01*
X120653041Y-108845898D01*
X120653040Y-108845898D01*
X120599966Y-108867882D01*
X120352579Y-108970353D01*
X120246256Y-108991502D01*
X120033611Y-109033800D01*
X119708389Y-109033800D01*
X119495744Y-108991502D01*
X119389421Y-108970353D01*
X119142034Y-108867882D01*
X119088960Y-108845898D01*
X119088959Y-108845898D01*
X119088958Y-108845897D01*
X118818549Y-108665215D01*
X118588585Y-108435251D01*
X118407903Y-108164842D01*
X118283447Y-107864379D01*
X118220000Y-107545409D01*
X118220000Y-107220191D01*
X118240476Y-107117253D01*
X118283447Y-106901222D01*
X118316750Y-106820822D01*
X118380920Y-106665900D01*
X118407902Y-106600760D01*
X118577716Y-106346616D01*
X118588585Y-106330349D01*
X118818549Y-106100385D01*
X119088958Y-105919703D01*
X119389421Y-105795247D01*
X119495744Y-105774098D01*
X119708389Y-105731800D01*
X120033611Y-105731800D01*
X120246256Y-105774098D01*
G37*
G36*
X108816256Y-105774098D02*
G01*
X108922579Y-105795247D01*
X109223042Y-105919703D01*
X109493451Y-106100385D01*
X109723415Y-106330349D01*
X109734284Y-106346616D01*
X109904098Y-106600760D01*
X109931080Y-106665900D01*
X109995251Y-106820822D01*
X110028553Y-106901222D01*
X110071525Y-107117253D01*
X110092000Y-107220191D01*
X110092000Y-107545409D01*
X110028553Y-107864379D01*
X109904097Y-108164842D01*
X109723415Y-108435251D01*
X109493451Y-108665215D01*
X109223042Y-108845897D01*
X109223041Y-108845898D01*
X109223040Y-108845898D01*
X109169966Y-108867882D01*
X108922579Y-108970353D01*
X108816256Y-108991502D01*
X108603611Y-109033800D01*
X108278389Y-109033800D01*
X108065744Y-108991502D01*
X107959421Y-108970353D01*
X107712034Y-108867882D01*
X107658960Y-108845898D01*
X107658959Y-108845898D01*
X107658958Y-108845897D01*
X107388549Y-108665215D01*
X107158585Y-108435251D01*
X106977903Y-108164842D01*
X106853447Y-107864379D01*
X106790000Y-107545409D01*
X106790000Y-107220191D01*
X106810476Y-107117253D01*
X106853447Y-106901222D01*
X106886750Y-106820822D01*
X106950920Y-106665900D01*
X106977902Y-106600760D01*
X107147716Y-106346616D01*
X107158585Y-106330349D01*
X107388549Y-106100385D01*
X107658958Y-105919703D01*
X107959421Y-105795247D01*
X108065744Y-105774098D01*
X108278389Y-105731800D01*
X108603611Y-105731800D01*
X108816256Y-105774098D01*
G37*
G36*
X102466256Y-105774098D02*
G01*
X102572579Y-105795247D01*
X102873042Y-105919703D01*
X103143451Y-106100385D01*
X103373415Y-106330349D01*
X103384284Y-106346616D01*
X103554098Y-106600760D01*
X103581080Y-106665900D01*
X103645251Y-106820822D01*
X103678553Y-106901222D01*
X103721525Y-107117253D01*
X103742000Y-107220191D01*
X103742000Y-107545409D01*
X103678553Y-107864379D01*
X103554097Y-108164842D01*
X103373415Y-108435251D01*
X103143451Y-108665215D01*
X102873042Y-108845897D01*
X102873041Y-108845898D01*
X102873040Y-108845898D01*
X102819966Y-108867882D01*
X102572579Y-108970353D01*
X102466256Y-108991502D01*
X102253611Y-109033800D01*
X101928389Y-109033800D01*
X101715744Y-108991502D01*
X101609421Y-108970353D01*
X101362034Y-108867882D01*
X101308960Y-108845898D01*
X101308959Y-108845898D01*
X101308958Y-108845897D01*
X101038549Y-108665215D01*
X100808585Y-108435251D01*
X100627903Y-108164842D01*
X100503447Y-107864379D01*
X100440000Y-107545409D01*
X100440000Y-107220191D01*
X100460476Y-107117253D01*
X100503447Y-106901222D01*
X100536750Y-106820822D01*
X100600920Y-106665900D01*
X100627902Y-106600760D01*
X100797716Y-106346616D01*
X100808585Y-106330349D01*
X101038549Y-106100385D01*
X101308958Y-105919703D01*
X101609421Y-105795247D01*
X101715744Y-105774098D01*
X101928389Y-105731800D01*
X102253611Y-105731800D01*
X102466256Y-105774098D01*
G37*
G36*
X91036256Y-105774098D02*
G01*
X91142579Y-105795247D01*
X91443042Y-105919703D01*
X91713451Y-106100385D01*
X91943415Y-106330349D01*
X91954284Y-106346616D01*
X92124098Y-106600760D01*
X92151080Y-106665900D01*
X92215251Y-106820822D01*
X92248553Y-106901222D01*
X92291525Y-107117253D01*
X92312000Y-107220191D01*
X92312000Y-107545409D01*
X92248553Y-107864379D01*
X92124097Y-108164842D01*
X91943415Y-108435251D01*
X91713451Y-108665215D01*
X91443042Y-108845897D01*
X91443041Y-108845898D01*
X91443040Y-108845898D01*
X91389966Y-108867882D01*
X91142579Y-108970353D01*
X91036256Y-108991502D01*
X90823611Y-109033800D01*
X90498389Y-109033800D01*
X90285744Y-108991502D01*
X90179421Y-108970353D01*
X89932034Y-108867882D01*
X89878960Y-108845898D01*
X89878959Y-108845898D01*
X89878958Y-108845897D01*
X89608549Y-108665215D01*
X89378585Y-108435251D01*
X89197903Y-108164842D01*
X89073447Y-107864379D01*
X89010000Y-107545409D01*
X89010000Y-107220191D01*
X89030476Y-107117253D01*
X89073447Y-106901222D01*
X89106750Y-106820822D01*
X89170920Y-106665900D01*
X89197902Y-106600760D01*
X89367716Y-106346616D01*
X89378585Y-106330349D01*
X89608549Y-106100385D01*
X89878958Y-105919703D01*
X90179421Y-105795247D01*
X90285744Y-105774098D01*
X90498389Y-105731800D01*
X90823611Y-105731800D01*
X91036256Y-105774098D01*
G37*
G36*
X131707778Y-105358347D02*
G01*
X131874224Y-105427291D01*
X132024022Y-105527383D01*
X132151417Y-105654778D01*
X132251509Y-105804576D01*
X132320453Y-105971022D01*
X132355600Y-106147718D01*
X132355600Y-106327882D01*
X132320453Y-106504578D01*
X132251509Y-106671024D01*
X132151417Y-106820822D01*
X132024022Y-106948217D01*
X131874224Y-107048309D01*
X131707778Y-107117253D01*
X131531082Y-107152400D01*
X131350918Y-107152400D01*
X131174222Y-107117253D01*
X131007776Y-107048309D01*
X130857978Y-106948217D01*
X130730583Y-106820822D01*
X130630491Y-106671024D01*
X130561547Y-106504578D01*
X130526400Y-106327882D01*
X130526400Y-106147718D01*
X130561547Y-105971022D01*
X130630491Y-105804576D01*
X130730583Y-105654778D01*
X130857978Y-105527383D01*
X131007776Y-105427291D01*
X131174222Y-105358347D01*
X131350918Y-105323200D01*
X131531082Y-105323200D01*
X131707778Y-105358347D01*
G37*
G36*
X129167778Y-105358347D02*
G01*
X129334224Y-105427291D01*
X129484022Y-105527383D01*
X129611417Y-105654778D01*
X129711509Y-105804576D01*
X129780453Y-105971022D01*
X129815600Y-106147718D01*
X129815600Y-106327882D01*
X129780453Y-106504578D01*
X129711509Y-106671024D01*
X129611417Y-106820822D01*
X129484022Y-106948217D01*
X129334224Y-107048309D01*
X129167778Y-107117253D01*
X128991082Y-107152400D01*
X128810918Y-107152400D01*
X128634222Y-107117253D01*
X128467776Y-107048309D01*
X128317978Y-106948217D01*
X128190583Y-106820822D01*
X128090491Y-106671024D01*
X128021547Y-106504578D01*
X127986400Y-106327882D01*
X127986400Y-106147718D01*
X128021547Y-105971022D01*
X128090491Y-105804576D01*
X128190583Y-105654778D01*
X128317978Y-105527383D01*
X128467776Y-105427291D01*
X128634222Y-105358347D01*
X128810918Y-105323200D01*
X128991082Y-105323200D01*
X129167778Y-105358347D01*
G37*
G36*
X76297228Y-105444503D02*
G01*
X76452100Y-105508653D01*
X76591481Y-105601785D01*
X76710015Y-105720319D01*
X76803147Y-105859700D01*
X76867297Y-106014572D01*
X76900000Y-106178984D01*
X76900000Y-106346616D01*
X76867297Y-106511028D01*
X76803147Y-106665900D01*
X76710015Y-106805281D01*
X76591481Y-106923815D01*
X76452100Y-107016947D01*
X76297228Y-107081097D01*
X76132816Y-107113800D01*
X75965184Y-107113800D01*
X75800772Y-107081097D01*
X75645900Y-107016947D01*
X75506519Y-106923815D01*
X75387985Y-106805281D01*
X75294853Y-106665900D01*
X75230703Y-106511028D01*
X75198000Y-106346616D01*
X75198000Y-106178984D01*
X75230703Y-106014572D01*
X75294853Y-105859700D01*
X75387985Y-105720319D01*
X75506519Y-105601785D01*
X75645900Y-105508653D01*
X75800772Y-105444503D01*
X75965184Y-105411800D01*
X76132816Y-105411800D01*
X76297228Y-105444503D01*
G37*
G36*
X129167778Y-102818347D02*
G01*
X129334224Y-102887291D01*
X129484022Y-102987383D01*
X129611417Y-103114778D01*
X129711509Y-103264576D01*
X129780453Y-103431022D01*
X129815600Y-103607718D01*
X129815600Y-103787882D01*
X129780453Y-103964578D01*
X129711509Y-104131024D01*
X129611417Y-104280822D01*
X129484022Y-104408217D01*
X129334224Y-104508309D01*
X129167778Y-104577253D01*
X128991082Y-104612400D01*
X128810918Y-104612400D01*
X128634222Y-104577253D01*
X128467776Y-104508309D01*
X128317978Y-104408217D01*
X128190583Y-104280822D01*
X128090491Y-104131024D01*
X128021547Y-103964578D01*
X127986400Y-103787882D01*
X127986400Y-103607718D01*
X128021547Y-103431022D01*
X128090491Y-103264576D01*
X128190583Y-103114778D01*
X128317978Y-102987383D01*
X128467776Y-102887291D01*
X128634222Y-102818347D01*
X128810918Y-102783200D01*
X128991082Y-102783200D01*
X129167778Y-102818347D01*
G37*
G36*
X131707778Y-102818347D02*
G01*
X131874224Y-102887291D01*
X132024022Y-102987383D01*
X132151417Y-103114778D01*
X132251509Y-103264576D01*
X132320453Y-103431022D01*
X132355600Y-103607718D01*
X132355600Y-103787882D01*
X132320453Y-103964578D01*
X132251509Y-104131024D01*
X132151417Y-104280822D01*
X132024022Y-104408217D01*
X131874224Y-104508309D01*
X131707778Y-104577253D01*
X131531082Y-104612400D01*
X131350918Y-104612400D01*
X131174222Y-104577253D01*
X131007776Y-104508309D01*
X130857978Y-104408217D01*
X130730583Y-104280822D01*
X130630491Y-104131024D01*
X130561547Y-103964578D01*
X130526400Y-103787882D01*
X130526400Y-103607718D01*
X130561547Y-103431022D01*
X130630491Y-103264576D01*
X130730583Y-103114778D01*
X130857978Y-102987383D01*
X131007776Y-102887291D01*
X131174222Y-102818347D01*
X131350918Y-102783200D01*
X131531082Y-102783200D01*
X131707778Y-102818347D01*
G37*
G36*
X76306395Y-100858346D02*
G01*
X76479466Y-100930034D01*
X76479467Y-100930035D01*
X76635227Y-101034110D01*
X76767690Y-101166573D01*
X76767691Y-101166575D01*
X76871766Y-101322334D01*
X76943454Y-101495405D01*
X76980000Y-101679133D01*
X76980000Y-101866467D01*
X76943454Y-102050195D01*
X76871766Y-102223266D01*
X76871765Y-102223267D01*
X76767690Y-102379027D01*
X76635227Y-102511490D01*
X76556818Y-102563881D01*
X76479466Y-102615566D01*
X76306395Y-102687254D01*
X76122667Y-102723800D01*
X75935333Y-102723800D01*
X75751605Y-102687254D01*
X75578534Y-102615566D01*
X75501182Y-102563881D01*
X75422773Y-102511490D01*
X75290310Y-102379027D01*
X75186235Y-102223267D01*
X75186234Y-102223266D01*
X75114546Y-102050195D01*
X75078000Y-101866467D01*
X75078000Y-101679133D01*
X75114546Y-101495405D01*
X75186234Y-101322334D01*
X75290309Y-101166575D01*
X75290310Y-101166573D01*
X75422773Y-101034110D01*
X75578533Y-100930035D01*
X75578534Y-100930034D01*
X75751605Y-100858346D01*
X75935333Y-100821800D01*
X76122667Y-100821800D01*
X76306395Y-100858346D01*
G37*
G36*
X129167778Y-100278347D02*
G01*
X129334224Y-100347291D01*
X129484022Y-100447383D01*
X129611417Y-100574778D01*
X129711509Y-100724576D01*
X129780453Y-100891022D01*
X129815600Y-101067718D01*
X129815600Y-101247882D01*
X129780453Y-101424578D01*
X129711509Y-101591024D01*
X129611417Y-101740822D01*
X129484022Y-101868217D01*
X129334224Y-101968309D01*
X129167778Y-102037253D01*
X128991082Y-102072400D01*
X128810918Y-102072400D01*
X128634222Y-102037253D01*
X128467776Y-101968309D01*
X128317978Y-101868217D01*
X128190583Y-101740822D01*
X128090491Y-101591024D01*
X128021547Y-101424578D01*
X127986400Y-101247882D01*
X127986400Y-101067718D01*
X128021547Y-100891022D01*
X128090491Y-100724576D01*
X128190583Y-100574778D01*
X128317978Y-100447383D01*
X128467776Y-100347291D01*
X128634222Y-100278347D01*
X128810918Y-100243200D01*
X128991082Y-100243200D01*
X129167778Y-100278347D01*
G37*
G36*
X131707778Y-100278347D02*
G01*
X131874224Y-100347291D01*
X132024022Y-100447383D01*
X132151417Y-100574778D01*
X132251509Y-100724576D01*
X132320453Y-100891022D01*
X132355600Y-101067718D01*
X132355600Y-101247882D01*
X132320453Y-101424578D01*
X132251509Y-101591024D01*
X132151417Y-101740822D01*
X132024022Y-101868217D01*
X131874224Y-101968309D01*
X131707778Y-102037253D01*
X131531082Y-102072400D01*
X131350918Y-102072400D01*
X131174222Y-102037253D01*
X131007776Y-101968309D01*
X130857978Y-101868217D01*
X130730583Y-101740822D01*
X130630491Y-101591024D01*
X130561547Y-101424578D01*
X130526400Y-101247882D01*
X130526400Y-101067718D01*
X130561547Y-100891022D01*
X130630491Y-100724576D01*
X130730583Y-100574778D01*
X130857978Y-100447383D01*
X131007776Y-100347291D01*
X131174222Y-100278347D01*
X131350918Y-100243200D01*
X131531082Y-100243200D01*
X131707778Y-100278347D01*
G37*
G36*
X115024642Y-100262581D02*
G01*
X115170414Y-100322962D01*
X115170416Y-100322963D01*
X115301608Y-100410622D01*
X115413178Y-100522192D01*
X115500837Y-100653384D01*
X115500838Y-100653386D01*
X115561219Y-100799158D01*
X115592000Y-100953907D01*
X115592000Y-101111693D01*
X115561219Y-101266442D01*
X115500838Y-101412214D01*
X115500837Y-101412216D01*
X115413178Y-101543408D01*
X115301608Y-101654978D01*
X115170416Y-101742637D01*
X115170415Y-101742638D01*
X115170414Y-101742638D01*
X115024642Y-101803019D01*
X114869893Y-101833800D01*
X114712107Y-101833800D01*
X114557358Y-101803019D01*
X114411586Y-101742638D01*
X114411585Y-101742638D01*
X114411584Y-101742637D01*
X114280392Y-101654978D01*
X114168822Y-101543408D01*
X114081163Y-101412216D01*
X114081162Y-101412214D01*
X114020781Y-101266442D01*
X113990000Y-101111693D01*
X113990000Y-100953907D01*
X114020781Y-100799158D01*
X114081162Y-100653386D01*
X114081163Y-100653384D01*
X114168822Y-100522192D01*
X114280392Y-100410622D01*
X114411584Y-100322963D01*
X114411586Y-100322962D01*
X114557358Y-100262581D01*
X114712107Y-100231800D01*
X114869893Y-100231800D01*
X115024642Y-100262581D01*
G37*
G36*
X117564642Y-100262581D02*
G01*
X117710414Y-100322962D01*
X117710416Y-100322963D01*
X117841608Y-100410622D01*
X117953178Y-100522192D01*
X118040837Y-100653384D01*
X118040838Y-100653386D01*
X118101219Y-100799158D01*
X118132000Y-100953907D01*
X118132000Y-101111693D01*
X118101219Y-101266442D01*
X118040838Y-101412214D01*
X118040837Y-101412216D01*
X117953178Y-101543408D01*
X117841608Y-101654978D01*
X117710416Y-101742637D01*
X117710415Y-101742638D01*
X117710414Y-101742638D01*
X117564642Y-101803019D01*
X117409893Y-101833800D01*
X117252107Y-101833800D01*
X117097358Y-101803019D01*
X116951586Y-101742638D01*
X116951585Y-101742638D01*
X116951584Y-101742637D01*
X116820392Y-101654978D01*
X116708822Y-101543408D01*
X116621163Y-101412216D01*
X116621162Y-101412214D01*
X116560781Y-101266442D01*
X116530000Y-101111693D01*
X116530000Y-100953907D01*
X116560781Y-100799158D01*
X116621162Y-100653386D01*
X116621163Y-100653384D01*
X116708822Y-100522192D01*
X116820392Y-100410622D01*
X116951584Y-100322963D01*
X116951586Y-100322962D01*
X117097358Y-100262581D01*
X117252107Y-100231800D01*
X117409893Y-100231800D01*
X117564642Y-100262581D01*
G37*
G36*
X97244642Y-100262581D02*
G01*
X97390414Y-100322962D01*
X97390416Y-100322963D01*
X97521608Y-100410622D01*
X97633178Y-100522192D01*
X97720837Y-100653384D01*
X97720838Y-100653386D01*
X97781219Y-100799158D01*
X97812000Y-100953907D01*
X97812000Y-101111693D01*
X97781219Y-101266442D01*
X97720838Y-101412214D01*
X97720837Y-101412216D01*
X97633178Y-101543408D01*
X97521608Y-101654978D01*
X97390416Y-101742637D01*
X97390415Y-101742638D01*
X97390414Y-101742638D01*
X97244642Y-101803019D01*
X97089893Y-101833800D01*
X96932107Y-101833800D01*
X96777358Y-101803019D01*
X96631586Y-101742638D01*
X96631585Y-101742638D01*
X96631584Y-101742637D01*
X96500392Y-101654978D01*
X96388822Y-101543408D01*
X96301163Y-101412216D01*
X96301162Y-101412214D01*
X96240781Y-101266442D01*
X96210000Y-101111693D01*
X96210000Y-100953907D01*
X96240781Y-100799158D01*
X96301162Y-100653386D01*
X96301163Y-100653384D01*
X96388822Y-100522192D01*
X96500392Y-100410622D01*
X96631584Y-100322963D01*
X96631586Y-100322962D01*
X96777358Y-100262581D01*
X96932107Y-100231800D01*
X97089893Y-100231800D01*
X97244642Y-100262581D01*
G37*
G36*
X99784642Y-100262581D02*
G01*
X99930414Y-100322962D01*
X99930416Y-100322963D01*
X100061608Y-100410622D01*
X100173178Y-100522192D01*
X100260837Y-100653384D01*
X100260838Y-100653386D01*
X100321219Y-100799158D01*
X100352000Y-100953907D01*
X100352000Y-101111693D01*
X100321219Y-101266442D01*
X100260838Y-101412214D01*
X100260837Y-101412216D01*
X100173178Y-101543408D01*
X100061608Y-101654978D01*
X99930416Y-101742637D01*
X99930415Y-101742638D01*
X99930414Y-101742638D01*
X99784642Y-101803019D01*
X99629893Y-101833800D01*
X99472107Y-101833800D01*
X99317358Y-101803019D01*
X99171586Y-101742638D01*
X99171585Y-101742638D01*
X99171584Y-101742637D01*
X99040392Y-101654978D01*
X98928822Y-101543408D01*
X98841163Y-101412216D01*
X98841162Y-101412214D01*
X98780781Y-101266442D01*
X98750000Y-101111693D01*
X98750000Y-100953907D01*
X98780781Y-100799158D01*
X98841162Y-100653386D01*
X98841163Y-100653384D01*
X98928822Y-100522192D01*
X99040392Y-100410622D01*
X99171584Y-100322963D01*
X99171586Y-100322962D01*
X99317358Y-100262581D01*
X99472107Y-100231800D01*
X99629893Y-100231800D01*
X99784642Y-100262581D01*
G37*
G36*
X110512000Y-101833800D02*
G01*
X108910000Y-101833800D01*
X108910000Y-100231800D01*
X110512000Y-100231800D01*
X110512000Y-101833800D01*
G37*
G36*
X112484642Y-100262581D02*
G01*
X112630414Y-100322962D01*
X112630416Y-100322963D01*
X112761608Y-100410622D01*
X112873178Y-100522192D01*
X112960837Y-100653384D01*
X112960838Y-100653386D01*
X113021219Y-100799158D01*
X113052000Y-100953907D01*
X113052000Y-101111693D01*
X113021219Y-101266442D01*
X112960838Y-101412214D01*
X112960837Y-101412216D01*
X112873178Y-101543408D01*
X112761608Y-101654978D01*
X112630416Y-101742637D01*
X112630415Y-101742638D01*
X112630414Y-101742638D01*
X112484642Y-101803019D01*
X112329893Y-101833800D01*
X112172107Y-101833800D01*
X112017358Y-101803019D01*
X111871586Y-101742638D01*
X111871585Y-101742638D01*
X111871584Y-101742637D01*
X111740392Y-101654978D01*
X111628822Y-101543408D01*
X111541163Y-101412216D01*
X111541162Y-101412214D01*
X111480781Y-101266442D01*
X111450000Y-101111693D01*
X111450000Y-100953907D01*
X111480781Y-100799158D01*
X111541162Y-100653386D01*
X111541163Y-100653384D01*
X111628822Y-100522192D01*
X111740392Y-100410622D01*
X111871584Y-100322963D01*
X111871586Y-100322962D01*
X112017358Y-100262581D01*
X112172107Y-100231800D01*
X112329893Y-100231800D01*
X112484642Y-100262581D01*
G37*
G36*
X94704642Y-100262581D02*
G01*
X94850414Y-100322962D01*
X94850416Y-100322963D01*
X94981608Y-100410622D01*
X95093178Y-100522192D01*
X95180837Y-100653384D01*
X95180838Y-100653386D01*
X95241219Y-100799158D01*
X95272000Y-100953907D01*
X95272000Y-101111693D01*
X95241219Y-101266442D01*
X95180838Y-101412214D01*
X95180837Y-101412216D01*
X95093178Y-101543408D01*
X94981608Y-101654978D01*
X94850416Y-101742637D01*
X94850415Y-101742638D01*
X94850414Y-101742638D01*
X94704642Y-101803019D01*
X94549893Y-101833800D01*
X94392107Y-101833800D01*
X94237358Y-101803019D01*
X94091586Y-101742638D01*
X94091585Y-101742638D01*
X94091584Y-101742637D01*
X93960392Y-101654978D01*
X93848822Y-101543408D01*
X93761163Y-101412216D01*
X93761162Y-101412214D01*
X93700781Y-101266442D01*
X93670000Y-101111693D01*
X93670000Y-100953907D01*
X93700781Y-100799158D01*
X93761162Y-100653386D01*
X93761163Y-100653384D01*
X93848822Y-100522192D01*
X93960392Y-100410622D01*
X94091584Y-100322963D01*
X94091586Y-100322962D01*
X94237358Y-100262581D01*
X94392107Y-100231800D01*
X94549893Y-100231800D01*
X94704642Y-100262581D01*
G37*
G36*
X92732000Y-101833800D02*
G01*
X91130000Y-101833800D01*
X91130000Y-100231800D01*
X92732000Y-100231800D01*
X92732000Y-101833800D01*
G37*
G36*
X76980000Y-100183800D02*
G01*
X75078000Y-100183800D01*
X75078000Y-98281800D01*
X76980000Y-98281800D01*
X76980000Y-100183800D01*
G37*
G36*
X131707778Y-97738347D02*
G01*
X131874224Y-97807291D01*
X132024022Y-97907383D01*
X132151417Y-98034778D01*
X132251509Y-98184576D01*
X132320453Y-98351022D01*
X132355600Y-98527718D01*
X132355600Y-98707882D01*
X132320453Y-98884578D01*
X132251509Y-99051024D01*
X132151417Y-99200822D01*
X132024022Y-99328217D01*
X131874224Y-99428309D01*
X131707778Y-99497253D01*
X131531082Y-99532400D01*
X131350918Y-99532400D01*
X131174222Y-99497253D01*
X131007776Y-99428309D01*
X130857978Y-99328217D01*
X130730583Y-99200822D01*
X130630491Y-99051024D01*
X130561547Y-98884578D01*
X130526400Y-98707882D01*
X130526400Y-98527718D01*
X130561547Y-98351022D01*
X130630491Y-98184576D01*
X130730583Y-98034778D01*
X130857978Y-97907383D01*
X131007776Y-97807291D01*
X131174222Y-97738347D01*
X131350918Y-97703200D01*
X131531082Y-97703200D01*
X131707778Y-97738347D01*
G37*
G36*
X129167778Y-97738347D02*
G01*
X129334224Y-97807291D01*
X129484022Y-97907383D01*
X129611417Y-98034778D01*
X129711509Y-98184576D01*
X129780453Y-98351022D01*
X129815600Y-98527718D01*
X129815600Y-98707882D01*
X129780453Y-98884578D01*
X129711509Y-99051024D01*
X129611417Y-99200822D01*
X129484022Y-99328217D01*
X129334224Y-99428309D01*
X129167778Y-99497253D01*
X128991082Y-99532400D01*
X128810918Y-99532400D01*
X128634222Y-99497253D01*
X128467776Y-99428309D01*
X128317978Y-99328217D01*
X128190583Y-99200822D01*
X128090491Y-99051024D01*
X128021547Y-98884578D01*
X127986400Y-98707882D01*
X127986400Y-98527718D01*
X128021547Y-98351022D01*
X128090491Y-98184576D01*
X128190583Y-98034778D01*
X128317978Y-97907383D01*
X128467776Y-97807291D01*
X128634222Y-97738347D01*
X128810918Y-97703200D01*
X128991082Y-97703200D01*
X129167778Y-97738347D01*
G37*
G36*
X118834642Y-97722581D02*
G01*
X118980414Y-97782962D01*
X118980416Y-97782963D01*
X119111608Y-97870622D01*
X119223178Y-97982192D01*
X119310837Y-98113384D01*
X119310838Y-98113386D01*
X119371219Y-98259158D01*
X119402000Y-98413907D01*
X119402000Y-98571693D01*
X119371219Y-98726442D01*
X119310838Y-98872214D01*
X119310837Y-98872216D01*
X119223178Y-99003408D01*
X119111608Y-99114978D01*
X118980416Y-99202637D01*
X118980415Y-99202638D01*
X118980414Y-99202638D01*
X118834642Y-99263019D01*
X118679893Y-99293800D01*
X118522107Y-99293800D01*
X118367358Y-99263019D01*
X118221586Y-99202638D01*
X118221585Y-99202638D01*
X118221584Y-99202637D01*
X118090392Y-99114978D01*
X117978822Y-99003408D01*
X117891163Y-98872216D01*
X117891162Y-98872214D01*
X117830781Y-98726442D01*
X117800000Y-98571693D01*
X117800000Y-98413907D01*
X117830781Y-98259158D01*
X117891162Y-98113386D01*
X117891163Y-98113384D01*
X117978822Y-97982192D01*
X118090392Y-97870622D01*
X118221584Y-97782963D01*
X118221586Y-97782962D01*
X118367358Y-97722581D01*
X118522107Y-97691800D01*
X118679893Y-97691800D01*
X118834642Y-97722581D01*
G37*
G36*
X111214642Y-97722581D02*
G01*
X111360414Y-97782962D01*
X111360416Y-97782963D01*
X111491608Y-97870622D01*
X111603178Y-97982192D01*
X111690837Y-98113384D01*
X111690838Y-98113386D01*
X111751219Y-98259158D01*
X111782000Y-98413907D01*
X111782000Y-98571693D01*
X111751219Y-98726442D01*
X111690838Y-98872214D01*
X111690837Y-98872216D01*
X111603178Y-99003408D01*
X111491608Y-99114978D01*
X111360416Y-99202637D01*
X111360415Y-99202638D01*
X111360414Y-99202638D01*
X111214642Y-99263019D01*
X111059893Y-99293800D01*
X110902107Y-99293800D01*
X110747358Y-99263019D01*
X110601586Y-99202638D01*
X110601585Y-99202638D01*
X110601584Y-99202637D01*
X110470392Y-99114978D01*
X110358822Y-99003408D01*
X110271163Y-98872216D01*
X110271162Y-98872214D01*
X110210781Y-98726442D01*
X110180000Y-98571693D01*
X110180000Y-98413907D01*
X110210781Y-98259158D01*
X110271162Y-98113386D01*
X110271163Y-98113384D01*
X110358822Y-97982192D01*
X110470392Y-97870622D01*
X110601584Y-97782963D01*
X110601586Y-97782962D01*
X110747358Y-97722581D01*
X110902107Y-97691800D01*
X111059893Y-97691800D01*
X111214642Y-97722581D01*
G37*
G36*
X116294642Y-97722581D02*
G01*
X116440414Y-97782962D01*
X116440416Y-97782963D01*
X116571608Y-97870622D01*
X116683178Y-97982192D01*
X116770837Y-98113384D01*
X116770838Y-98113386D01*
X116831219Y-98259158D01*
X116862000Y-98413907D01*
X116862000Y-98571693D01*
X116831219Y-98726442D01*
X116770838Y-98872214D01*
X116770837Y-98872216D01*
X116683178Y-99003408D01*
X116571608Y-99114978D01*
X116440416Y-99202637D01*
X116440415Y-99202638D01*
X116440414Y-99202638D01*
X116294642Y-99263019D01*
X116139893Y-99293800D01*
X115982107Y-99293800D01*
X115827358Y-99263019D01*
X115681586Y-99202638D01*
X115681585Y-99202638D01*
X115681584Y-99202637D01*
X115550392Y-99114978D01*
X115438822Y-99003408D01*
X115351163Y-98872216D01*
X115351162Y-98872214D01*
X115290781Y-98726442D01*
X115260000Y-98571693D01*
X115260000Y-98413907D01*
X115290781Y-98259158D01*
X115351162Y-98113386D01*
X115351163Y-98113384D01*
X115438822Y-97982192D01*
X115550392Y-97870622D01*
X115681584Y-97782963D01*
X115681586Y-97782962D01*
X115827358Y-97722581D01*
X115982107Y-97691800D01*
X116139893Y-97691800D01*
X116294642Y-97722581D01*
G37*
G36*
X113754642Y-97722581D02*
G01*
X113900414Y-97782962D01*
X113900416Y-97782963D01*
X114031608Y-97870622D01*
X114143178Y-97982192D01*
X114230837Y-98113384D01*
X114230838Y-98113386D01*
X114291219Y-98259158D01*
X114322000Y-98413907D01*
X114322000Y-98571693D01*
X114291219Y-98726442D01*
X114230838Y-98872214D01*
X114230837Y-98872216D01*
X114143178Y-99003408D01*
X114031608Y-99114978D01*
X113900416Y-99202637D01*
X113900415Y-99202638D01*
X113900414Y-99202638D01*
X113754642Y-99263019D01*
X113599893Y-99293800D01*
X113442107Y-99293800D01*
X113287358Y-99263019D01*
X113141586Y-99202638D01*
X113141585Y-99202638D01*
X113141584Y-99202637D01*
X113010392Y-99114978D01*
X112898822Y-99003408D01*
X112811163Y-98872216D01*
X112811162Y-98872214D01*
X112750781Y-98726442D01*
X112720000Y-98571693D01*
X112720000Y-98413907D01*
X112750781Y-98259158D01*
X112811162Y-98113386D01*
X112811163Y-98113384D01*
X112898822Y-97982192D01*
X113010392Y-97870622D01*
X113141584Y-97782963D01*
X113141586Y-97782962D01*
X113287358Y-97722581D01*
X113442107Y-97691800D01*
X113599893Y-97691800D01*
X113754642Y-97722581D01*
G37*
G36*
X93434642Y-97722581D02*
G01*
X93580414Y-97782962D01*
X93580416Y-97782963D01*
X93711608Y-97870622D01*
X93823178Y-97982192D01*
X93910837Y-98113384D01*
X93910838Y-98113386D01*
X93971219Y-98259158D01*
X94002000Y-98413907D01*
X94002000Y-98571693D01*
X93971219Y-98726442D01*
X93910838Y-98872214D01*
X93910837Y-98872216D01*
X93823178Y-99003408D01*
X93711608Y-99114978D01*
X93580416Y-99202637D01*
X93580415Y-99202638D01*
X93580414Y-99202638D01*
X93434642Y-99263019D01*
X93279893Y-99293800D01*
X93122107Y-99293800D01*
X92967358Y-99263019D01*
X92821586Y-99202638D01*
X92821585Y-99202638D01*
X92821584Y-99202637D01*
X92690392Y-99114978D01*
X92578822Y-99003408D01*
X92491163Y-98872216D01*
X92491162Y-98872214D01*
X92430781Y-98726442D01*
X92400000Y-98571693D01*
X92400000Y-98413907D01*
X92430781Y-98259158D01*
X92491162Y-98113386D01*
X92491163Y-98113384D01*
X92578822Y-97982192D01*
X92690392Y-97870622D01*
X92821584Y-97782963D01*
X92821586Y-97782962D01*
X92967358Y-97722581D01*
X93122107Y-97691800D01*
X93279893Y-97691800D01*
X93434642Y-97722581D01*
G37*
G36*
X95974642Y-97722581D02*
G01*
X96120414Y-97782962D01*
X96120416Y-97782963D01*
X96251608Y-97870622D01*
X96363178Y-97982192D01*
X96450837Y-98113384D01*
X96450838Y-98113386D01*
X96511219Y-98259158D01*
X96542000Y-98413907D01*
X96542000Y-98571693D01*
X96511219Y-98726442D01*
X96450838Y-98872214D01*
X96450837Y-98872216D01*
X96363178Y-99003408D01*
X96251608Y-99114978D01*
X96120416Y-99202637D01*
X96120415Y-99202638D01*
X96120414Y-99202638D01*
X95974642Y-99263019D01*
X95819893Y-99293800D01*
X95662107Y-99293800D01*
X95507358Y-99263019D01*
X95361586Y-99202638D01*
X95361585Y-99202638D01*
X95361584Y-99202637D01*
X95230392Y-99114978D01*
X95118822Y-99003408D01*
X95031163Y-98872216D01*
X95031162Y-98872214D01*
X94970781Y-98726442D01*
X94940000Y-98571693D01*
X94940000Y-98413907D01*
X94970781Y-98259158D01*
X95031162Y-98113386D01*
X95031163Y-98113384D01*
X95118822Y-97982192D01*
X95230392Y-97870622D01*
X95361584Y-97782963D01*
X95361586Y-97782962D01*
X95507358Y-97722581D01*
X95662107Y-97691800D01*
X95819893Y-97691800D01*
X95974642Y-97722581D01*
G37*
G36*
X98514642Y-97722581D02*
G01*
X98660414Y-97782962D01*
X98660416Y-97782963D01*
X98791608Y-97870622D01*
X98903178Y-97982192D01*
X98990837Y-98113384D01*
X98990838Y-98113386D01*
X99051219Y-98259158D01*
X99082000Y-98413907D01*
X99082000Y-98571693D01*
X99051219Y-98726442D01*
X98990838Y-98872214D01*
X98990837Y-98872216D01*
X98903178Y-99003408D01*
X98791608Y-99114978D01*
X98660416Y-99202637D01*
X98660415Y-99202638D01*
X98660414Y-99202638D01*
X98514642Y-99263019D01*
X98359893Y-99293800D01*
X98202107Y-99293800D01*
X98047358Y-99263019D01*
X97901586Y-99202638D01*
X97901585Y-99202638D01*
X97901584Y-99202637D01*
X97770392Y-99114978D01*
X97658822Y-99003408D01*
X97571163Y-98872216D01*
X97571162Y-98872214D01*
X97510781Y-98726442D01*
X97480000Y-98571693D01*
X97480000Y-98413907D01*
X97510781Y-98259158D01*
X97571162Y-98113386D01*
X97571163Y-98113384D01*
X97658822Y-97982192D01*
X97770392Y-97870622D01*
X97901584Y-97782963D01*
X97901586Y-97782962D01*
X98047358Y-97722581D01*
X98202107Y-97691800D01*
X98359893Y-97691800D01*
X98514642Y-97722581D01*
G37*
G36*
X101054642Y-97722581D02*
G01*
X101200414Y-97782962D01*
X101200416Y-97782963D01*
X101331608Y-97870622D01*
X101443178Y-97982192D01*
X101530837Y-98113384D01*
X101530838Y-98113386D01*
X101591219Y-98259158D01*
X101622000Y-98413907D01*
X101622000Y-98571693D01*
X101591219Y-98726442D01*
X101530838Y-98872214D01*
X101530837Y-98872216D01*
X101443178Y-99003408D01*
X101331608Y-99114978D01*
X101200416Y-99202637D01*
X101200415Y-99202638D01*
X101200414Y-99202638D01*
X101054642Y-99263019D01*
X100899893Y-99293800D01*
X100742107Y-99293800D01*
X100587358Y-99263019D01*
X100441586Y-99202638D01*
X100441585Y-99202638D01*
X100441584Y-99202637D01*
X100310392Y-99114978D01*
X100198822Y-99003408D01*
X100111163Y-98872216D01*
X100111162Y-98872214D01*
X100050781Y-98726442D01*
X100020000Y-98571693D01*
X100020000Y-98413907D01*
X100050781Y-98259158D01*
X100111162Y-98113386D01*
X100111163Y-98113384D01*
X100198822Y-97982192D01*
X100310392Y-97870622D01*
X100441584Y-97782963D01*
X100441586Y-97782962D01*
X100587358Y-97722581D01*
X100742107Y-97691800D01*
X100899893Y-97691800D01*
X101054642Y-97722581D01*
G37*
G36*
X129167778Y-95198347D02*
G01*
X129334224Y-95267291D01*
X129484022Y-95367383D01*
X129611417Y-95494778D01*
X129711509Y-95644576D01*
X129780453Y-95811022D01*
X129815600Y-95987718D01*
X129815600Y-96167882D01*
X129780453Y-96344578D01*
X129711509Y-96511024D01*
X129611417Y-96660822D01*
X129484022Y-96788217D01*
X129334224Y-96888309D01*
X129167778Y-96957253D01*
X128991082Y-96992400D01*
X128810918Y-96992400D01*
X128634222Y-96957253D01*
X128467776Y-96888309D01*
X128317978Y-96788217D01*
X128190583Y-96660822D01*
X128090491Y-96511024D01*
X128021547Y-96344578D01*
X127986400Y-96167882D01*
X127986400Y-95987718D01*
X128021547Y-95811022D01*
X128090491Y-95644576D01*
X128190583Y-95494778D01*
X128317978Y-95367383D01*
X128467776Y-95267291D01*
X128634222Y-95198347D01*
X128810918Y-95163200D01*
X128991082Y-95163200D01*
X129167778Y-95198347D01*
G37*
G36*
X131707778Y-95198347D02*
G01*
X131874224Y-95267291D01*
X132024022Y-95367383D01*
X132151417Y-95494778D01*
X132251509Y-95644576D01*
X132320453Y-95811022D01*
X132355600Y-95987718D01*
X132355600Y-96167882D01*
X132320453Y-96344578D01*
X132251509Y-96511024D01*
X132151417Y-96660822D01*
X132024022Y-96788217D01*
X131874224Y-96888309D01*
X131707778Y-96957253D01*
X131531082Y-96992400D01*
X131350918Y-96992400D01*
X131174222Y-96957253D01*
X131007776Y-96888309D01*
X130857978Y-96788217D01*
X130730583Y-96660822D01*
X130630491Y-96511024D01*
X130561547Y-96344578D01*
X130526400Y-96167882D01*
X130526400Y-95987718D01*
X130561547Y-95811022D01*
X130630491Y-95644576D01*
X130730583Y-95494778D01*
X130857978Y-95367383D01*
X131007776Y-95267291D01*
X131174222Y-95198347D01*
X131350918Y-95163200D01*
X131531082Y-95163200D01*
X131707778Y-95198347D01*
G37*
G36*
X97100000Y-95152800D02*
G01*
X95398000Y-95152800D01*
X95398000Y-93450800D01*
X97100000Y-93450800D01*
X97100000Y-95152800D01*
G37*
G36*
X99037228Y-93483503D02*
G01*
X99192100Y-93547653D01*
X99331481Y-93640785D01*
X99450015Y-93759319D01*
X99543147Y-93898700D01*
X99607297Y-94053572D01*
X99640000Y-94217984D01*
X99640000Y-94385616D01*
X99607297Y-94550028D01*
X99543147Y-94704900D01*
X99450015Y-94844281D01*
X99331481Y-94962815D01*
X99192100Y-95055947D01*
X99037228Y-95120097D01*
X98872816Y-95152800D01*
X98705184Y-95152800D01*
X98540772Y-95120097D01*
X98385900Y-95055947D01*
X98246519Y-94962815D01*
X98127985Y-94844281D01*
X98034853Y-94704900D01*
X97970703Y-94550028D01*
X97938000Y-94385616D01*
X97938000Y-94217984D01*
X97970703Y-94053572D01*
X98034853Y-93898700D01*
X98127985Y-93759319D01*
X98246519Y-93640785D01*
X98385900Y-93547653D01*
X98540772Y-93483503D01*
X98705184Y-93450800D01*
X98872816Y-93450800D01*
X99037228Y-93483503D01*
G37*
G36*
X101577228Y-93483503D02*
G01*
X101732100Y-93547653D01*
X101871481Y-93640785D01*
X101990015Y-93759319D01*
X102083147Y-93898700D01*
X102147297Y-94053572D01*
X102180000Y-94217984D01*
X102180000Y-94385616D01*
X102147297Y-94550028D01*
X102083147Y-94704900D01*
X101990015Y-94844281D01*
X101871481Y-94962815D01*
X101732100Y-95055947D01*
X101577228Y-95120097D01*
X101412816Y-95152800D01*
X101245184Y-95152800D01*
X101080772Y-95120097D01*
X100925900Y-95055947D01*
X100786519Y-94962815D01*
X100667985Y-94844281D01*
X100574853Y-94704900D01*
X100510703Y-94550028D01*
X100478000Y-94385616D01*
X100478000Y-94217984D01*
X100510703Y-94053572D01*
X100574853Y-93898700D01*
X100667985Y-93759319D01*
X100786519Y-93640785D01*
X100925900Y-93547653D01*
X101080772Y-93483503D01*
X101245184Y-93450800D01*
X101412816Y-93450800D01*
X101577228Y-93483503D01*
G37*
G36*
X106657228Y-93483503D02*
G01*
X106812100Y-93547653D01*
X106951481Y-93640785D01*
X107070015Y-93759319D01*
X107163147Y-93898700D01*
X107227297Y-94053572D01*
X107260000Y-94217984D01*
X107260000Y-94385616D01*
X107227297Y-94550028D01*
X107163147Y-94704900D01*
X107070015Y-94844281D01*
X106951481Y-94962815D01*
X106812100Y-95055947D01*
X106657228Y-95120097D01*
X106492816Y-95152800D01*
X106325184Y-95152800D01*
X106160772Y-95120097D01*
X106005900Y-95055947D01*
X105866519Y-94962815D01*
X105747985Y-94844281D01*
X105654853Y-94704900D01*
X105590703Y-94550028D01*
X105558000Y-94385616D01*
X105558000Y-94217984D01*
X105590703Y-94053572D01*
X105654853Y-93898700D01*
X105747985Y-93759319D01*
X105866519Y-93640785D01*
X106005900Y-93547653D01*
X106160772Y-93483503D01*
X106325184Y-93450800D01*
X106492816Y-93450800D01*
X106657228Y-93483503D01*
G37*
G36*
X114277228Y-93483503D02*
G01*
X114432100Y-93547653D01*
X114571481Y-93640785D01*
X114690015Y-93759319D01*
X114783147Y-93898700D01*
X114847297Y-94053572D01*
X114880000Y-94217984D01*
X114880000Y-94385616D01*
X114847297Y-94550028D01*
X114783147Y-94704900D01*
X114690015Y-94844281D01*
X114571481Y-94962815D01*
X114432100Y-95055947D01*
X114277228Y-95120097D01*
X114112816Y-95152800D01*
X113945184Y-95152800D01*
X113780772Y-95120097D01*
X113625900Y-95055947D01*
X113486519Y-94962815D01*
X113367985Y-94844281D01*
X113274853Y-94704900D01*
X113210703Y-94550028D01*
X113178000Y-94385616D01*
X113178000Y-94217984D01*
X113210703Y-94053572D01*
X113274853Y-93898700D01*
X113367985Y-93759319D01*
X113486519Y-93640785D01*
X113625900Y-93547653D01*
X113780772Y-93483503D01*
X113945184Y-93450800D01*
X114112816Y-93450800D01*
X114277228Y-93483503D01*
G37*
G36*
X109197228Y-93483503D02*
G01*
X109352100Y-93547653D01*
X109491481Y-93640785D01*
X109610015Y-93759319D01*
X109703147Y-93898700D01*
X109767297Y-94053572D01*
X109800000Y-94217984D01*
X109800000Y-94385616D01*
X109767297Y-94550028D01*
X109703147Y-94704900D01*
X109610015Y-94844281D01*
X109491481Y-94962815D01*
X109352100Y-95055947D01*
X109197228Y-95120097D01*
X109032816Y-95152800D01*
X108865184Y-95152800D01*
X108700772Y-95120097D01*
X108545900Y-95055947D01*
X108406519Y-94962815D01*
X108287985Y-94844281D01*
X108194853Y-94704900D01*
X108130703Y-94550028D01*
X108098000Y-94385616D01*
X108098000Y-94217984D01*
X108130703Y-94053572D01*
X108194853Y-93898700D01*
X108287985Y-93759319D01*
X108406519Y-93640785D01*
X108545900Y-93547653D01*
X108700772Y-93483503D01*
X108865184Y-93450800D01*
X109032816Y-93450800D01*
X109197228Y-93483503D01*
G37*
G36*
X104117228Y-93483503D02*
G01*
X104272100Y-93547653D01*
X104411481Y-93640785D01*
X104530015Y-93759319D01*
X104623147Y-93898700D01*
X104687297Y-94053572D01*
X104720000Y-94217984D01*
X104720000Y-94385616D01*
X104687297Y-94550028D01*
X104623147Y-94704900D01*
X104530015Y-94844281D01*
X104411481Y-94962815D01*
X104272100Y-95055947D01*
X104117228Y-95120097D01*
X103952816Y-95152800D01*
X103785184Y-95152800D01*
X103620772Y-95120097D01*
X103465900Y-95055947D01*
X103326519Y-94962815D01*
X103207985Y-94844281D01*
X103114853Y-94704900D01*
X103050703Y-94550028D01*
X103018000Y-94385616D01*
X103018000Y-94217984D01*
X103050703Y-94053572D01*
X103114853Y-93898700D01*
X103207985Y-93759319D01*
X103326519Y-93640785D01*
X103465900Y-93547653D01*
X103620772Y-93483503D01*
X103785184Y-93450800D01*
X103952816Y-93450800D01*
X104117228Y-93483503D01*
G37*
G36*
X111737228Y-93483503D02*
G01*
X111892100Y-93547653D01*
X112031481Y-93640785D01*
X112150015Y-93759319D01*
X112243147Y-93898700D01*
X112307297Y-94053572D01*
X112340000Y-94217984D01*
X112340000Y-94385616D01*
X112307297Y-94550028D01*
X112243147Y-94704900D01*
X112150015Y-94844281D01*
X112031481Y-94962815D01*
X111892100Y-95055947D01*
X111737228Y-95120097D01*
X111572816Y-95152800D01*
X111405184Y-95152800D01*
X111240772Y-95120097D01*
X111085900Y-95055947D01*
X110946519Y-94962815D01*
X110827985Y-94844281D01*
X110734853Y-94704900D01*
X110670703Y-94550028D01*
X110638000Y-94385616D01*
X110638000Y-94217984D01*
X110670703Y-94053572D01*
X110734853Y-93898700D01*
X110827985Y-93759319D01*
X110946519Y-93640785D01*
X111085900Y-93547653D01*
X111240772Y-93483503D01*
X111405184Y-93450800D01*
X111572816Y-93450800D01*
X111737228Y-93483503D01*
G37*
G36*
X131707778Y-92658347D02*
G01*
X131874224Y-92727291D01*
X132024022Y-92827383D01*
X132151417Y-92954778D01*
X132251509Y-93104576D01*
X132320453Y-93271022D01*
X132355600Y-93447718D01*
X132355600Y-93627882D01*
X132320453Y-93804578D01*
X132251509Y-93971024D01*
X132151417Y-94120822D01*
X132024022Y-94248217D01*
X131874224Y-94348309D01*
X131707778Y-94417253D01*
X131531082Y-94452400D01*
X131350918Y-94452400D01*
X131174222Y-94417253D01*
X131007776Y-94348309D01*
X130857978Y-94248217D01*
X130730583Y-94120822D01*
X130630491Y-93971024D01*
X130561547Y-93804578D01*
X130526400Y-93627882D01*
X130526400Y-93447718D01*
X130561547Y-93271022D01*
X130630491Y-93104576D01*
X130730583Y-92954778D01*
X130857978Y-92827383D01*
X131007776Y-92727291D01*
X131174222Y-92658347D01*
X131350918Y-92623200D01*
X131531082Y-92623200D01*
X131707778Y-92658347D01*
G37*
G36*
X129167778Y-92658347D02*
G01*
X129334224Y-92727291D01*
X129484022Y-92827383D01*
X129611417Y-92954778D01*
X129711509Y-93104576D01*
X129780453Y-93271022D01*
X129815600Y-93447718D01*
X129815600Y-93627882D01*
X129780453Y-93804578D01*
X129711509Y-93971024D01*
X129611417Y-94120822D01*
X129484022Y-94248217D01*
X129334224Y-94348309D01*
X129167778Y-94417253D01*
X128991082Y-94452400D01*
X128810918Y-94452400D01*
X128634222Y-94417253D01*
X128467776Y-94348309D01*
X128317978Y-94248217D01*
X128190583Y-94120822D01*
X128090491Y-93971024D01*
X128021547Y-93804578D01*
X127986400Y-93627882D01*
X127986400Y-93447718D01*
X128021547Y-93271022D01*
X128090491Y-93104576D01*
X128190583Y-92954778D01*
X128317978Y-92827383D01*
X128467776Y-92727291D01*
X128634222Y-92658347D01*
X128810918Y-92623200D01*
X128991082Y-92623200D01*
X129167778Y-92658347D01*
G37*
G36*
X131707778Y-90118347D02*
G01*
X131874224Y-90187291D01*
X132024022Y-90287383D01*
X132151417Y-90414778D01*
X132251509Y-90564576D01*
X132320453Y-90731022D01*
X132355600Y-90907718D01*
X132355600Y-91087882D01*
X132320453Y-91264578D01*
X132251509Y-91431024D01*
X132151417Y-91580822D01*
X132024022Y-91708217D01*
X131874224Y-91808309D01*
X131707778Y-91877253D01*
X131531082Y-91912400D01*
X131350918Y-91912400D01*
X131174222Y-91877253D01*
X131007776Y-91808309D01*
X130857978Y-91708217D01*
X130730583Y-91580822D01*
X130630491Y-91431024D01*
X130561547Y-91264578D01*
X130526400Y-91087882D01*
X130526400Y-90907718D01*
X130561547Y-90731022D01*
X130630491Y-90564576D01*
X130730583Y-90414778D01*
X130857978Y-90287383D01*
X131007776Y-90187291D01*
X131174222Y-90118347D01*
X131350918Y-90083200D01*
X131531082Y-90083200D01*
X131707778Y-90118347D01*
G37*
G36*
X129167778Y-90118347D02*
G01*
X129334224Y-90187291D01*
X129484022Y-90287383D01*
X129611417Y-90414778D01*
X129711509Y-90564576D01*
X129780453Y-90731022D01*
X129815600Y-90907718D01*
X129815600Y-91087882D01*
X129780453Y-91264578D01*
X129711509Y-91431024D01*
X129611417Y-91580822D01*
X129484022Y-91708217D01*
X129334224Y-91808309D01*
X129167778Y-91877253D01*
X128991082Y-91912400D01*
X128810918Y-91912400D01*
X128634222Y-91877253D01*
X128467776Y-91808309D01*
X128317978Y-91708217D01*
X128190583Y-91580822D01*
X128090491Y-91431024D01*
X128021547Y-91264578D01*
X127986400Y-91087882D01*
X127986400Y-90907718D01*
X128021547Y-90731022D01*
X128090491Y-90564576D01*
X128190583Y-90414778D01*
X128317978Y-90287383D01*
X128467776Y-90187291D01*
X128634222Y-90118347D01*
X128810918Y-90083200D01*
X128991082Y-90083200D01*
X129167778Y-90118347D01*
G37*
G36*
X106529228Y-89419503D02*
G01*
X106684100Y-89483653D01*
X106823481Y-89576785D01*
X106942015Y-89695319D01*
X107035147Y-89834700D01*
X107099297Y-89989572D01*
X107132000Y-90153984D01*
X107132000Y-90321616D01*
X107099297Y-90486028D01*
X107035147Y-90640900D01*
X106942015Y-90780281D01*
X106823481Y-90898815D01*
X106684100Y-90991947D01*
X106529228Y-91056097D01*
X106364816Y-91088800D01*
X106197184Y-91088800D01*
X106032772Y-91056097D01*
X105877900Y-90991947D01*
X105738519Y-90898815D01*
X105619985Y-90780281D01*
X105526853Y-90640900D01*
X105462703Y-90486028D01*
X105430000Y-90321616D01*
X105430000Y-90153984D01*
X105462703Y-89989572D01*
X105526853Y-89834700D01*
X105619985Y-89695319D01*
X105738519Y-89576785D01*
X105877900Y-89483653D01*
X106032772Y-89419503D01*
X106197184Y-89386800D01*
X106364816Y-89386800D01*
X106529228Y-89419503D01*
G37*
G36*
X103989228Y-89419503D02*
G01*
X104144100Y-89483653D01*
X104283481Y-89576785D01*
X104402015Y-89695319D01*
X104495147Y-89834700D01*
X104559297Y-89989572D01*
X104592000Y-90153984D01*
X104592000Y-90321616D01*
X104559297Y-90486028D01*
X104495147Y-90640900D01*
X104402015Y-90780281D01*
X104283481Y-90898815D01*
X104144100Y-90991947D01*
X103989228Y-91056097D01*
X103824816Y-91088800D01*
X103657184Y-91088800D01*
X103492772Y-91056097D01*
X103337900Y-90991947D01*
X103198519Y-90898815D01*
X103079985Y-90780281D01*
X102986853Y-90640900D01*
X102922703Y-90486028D01*
X102890000Y-90321616D01*
X102890000Y-90153984D01*
X102922703Y-89989572D01*
X102986853Y-89834700D01*
X103079985Y-89695319D01*
X103198519Y-89576785D01*
X103337900Y-89483653D01*
X103492772Y-89419503D01*
X103657184Y-89386800D01*
X103824816Y-89386800D01*
X103989228Y-89419503D01*
G37*
G36*
X101449228Y-89419503D02*
G01*
X101604100Y-89483653D01*
X101743481Y-89576785D01*
X101862015Y-89695319D01*
X101955147Y-89834700D01*
X102019297Y-89989572D01*
X102052000Y-90153984D01*
X102052000Y-90321616D01*
X102019297Y-90486028D01*
X101955147Y-90640900D01*
X101862015Y-90780281D01*
X101743481Y-90898815D01*
X101604100Y-90991947D01*
X101449228Y-91056097D01*
X101284816Y-91088800D01*
X101117184Y-91088800D01*
X100952772Y-91056097D01*
X100797900Y-90991947D01*
X100658519Y-90898815D01*
X100539985Y-90780281D01*
X100446853Y-90640900D01*
X100382703Y-90486028D01*
X100350000Y-90321616D01*
X100350000Y-90153984D01*
X100382703Y-89989572D01*
X100446853Y-89834700D01*
X100539985Y-89695319D01*
X100658519Y-89576785D01*
X100797900Y-89483653D01*
X100952772Y-89419503D01*
X101117184Y-89386800D01*
X101284816Y-89386800D01*
X101449228Y-89419503D01*
G37*
G36*
X98909228Y-89419503D02*
G01*
X99064100Y-89483653D01*
X99203481Y-89576785D01*
X99322015Y-89695319D01*
X99415147Y-89834700D01*
X99479297Y-89989572D01*
X99512000Y-90153984D01*
X99512000Y-90321616D01*
X99479297Y-90486028D01*
X99415147Y-90640900D01*
X99322015Y-90780281D01*
X99203481Y-90898815D01*
X99064100Y-90991947D01*
X98909228Y-91056097D01*
X98744816Y-91088800D01*
X98577184Y-91088800D01*
X98412772Y-91056097D01*
X98257900Y-90991947D01*
X98118519Y-90898815D01*
X97999985Y-90780281D01*
X97906853Y-90640900D01*
X97842703Y-90486028D01*
X97810000Y-90321616D01*
X97810000Y-90153984D01*
X97842703Y-89989572D01*
X97906853Y-89834700D01*
X97999985Y-89695319D01*
X98118519Y-89576785D01*
X98257900Y-89483653D01*
X98412772Y-89419503D01*
X98577184Y-89386800D01*
X98744816Y-89386800D01*
X98909228Y-89419503D01*
G37*
G36*
X96369228Y-89419503D02*
G01*
X96524100Y-89483653D01*
X96663481Y-89576785D01*
X96782015Y-89695319D01*
X96875147Y-89834700D01*
X96939297Y-89989572D01*
X96972000Y-90153984D01*
X96972000Y-90321616D01*
X96939297Y-90486028D01*
X96875147Y-90640900D01*
X96782015Y-90780281D01*
X96663481Y-90898815D01*
X96524100Y-90991947D01*
X96369228Y-91056097D01*
X96204816Y-91088800D01*
X96037184Y-91088800D01*
X95872772Y-91056097D01*
X95717900Y-90991947D01*
X95578519Y-90898815D01*
X95459985Y-90780281D01*
X95366853Y-90640900D01*
X95302703Y-90486028D01*
X95270000Y-90321616D01*
X95270000Y-90153984D01*
X95302703Y-89989572D01*
X95366853Y-89834700D01*
X95459985Y-89695319D01*
X95578519Y-89576785D01*
X95717900Y-89483653D01*
X95872772Y-89419503D01*
X96037184Y-89386800D01*
X96204816Y-89386800D01*
X96369228Y-89419503D01*
G37*
G36*
X109069228Y-89419503D02*
G01*
X109224100Y-89483653D01*
X109363481Y-89576785D01*
X109482015Y-89695319D01*
X109575147Y-89834700D01*
X109639297Y-89989572D01*
X109672000Y-90153984D01*
X109672000Y-90321616D01*
X109639297Y-90486028D01*
X109575147Y-90640900D01*
X109482015Y-90780281D01*
X109363481Y-90898815D01*
X109224100Y-90991947D01*
X109069228Y-91056097D01*
X108904816Y-91088800D01*
X108737184Y-91088800D01*
X108572772Y-91056097D01*
X108417900Y-90991947D01*
X108278519Y-90898815D01*
X108159985Y-90780281D01*
X108066853Y-90640900D01*
X108002703Y-90486028D01*
X107970000Y-90321616D01*
X107970000Y-90153984D01*
X108002703Y-89989572D01*
X108066853Y-89834700D01*
X108159985Y-89695319D01*
X108278519Y-89576785D01*
X108417900Y-89483653D01*
X108572772Y-89419503D01*
X108737184Y-89386800D01*
X108904816Y-89386800D01*
X109069228Y-89419503D01*
G37*
G36*
X111609228Y-89419503D02*
G01*
X111764100Y-89483653D01*
X111903481Y-89576785D01*
X112022015Y-89695319D01*
X112115147Y-89834700D01*
X112179297Y-89989572D01*
X112212000Y-90153984D01*
X112212000Y-90321616D01*
X112179297Y-90486028D01*
X112115147Y-90640900D01*
X112022015Y-90780281D01*
X111903481Y-90898815D01*
X111764100Y-90991947D01*
X111609228Y-91056097D01*
X111444816Y-91088800D01*
X111277184Y-91088800D01*
X111112772Y-91056097D01*
X110957900Y-90991947D01*
X110818519Y-90898815D01*
X110699985Y-90780281D01*
X110606853Y-90640900D01*
X110542703Y-90486028D01*
X110510000Y-90321616D01*
X110510000Y-90153984D01*
X110542703Y-89989572D01*
X110606853Y-89834700D01*
X110699985Y-89695319D01*
X110818519Y-89576785D01*
X110957900Y-89483653D01*
X111112772Y-89419503D01*
X111277184Y-89386800D01*
X111444816Y-89386800D01*
X111609228Y-89419503D01*
G37*
G36*
X114149228Y-89419503D02*
G01*
X114304100Y-89483653D01*
X114443481Y-89576785D01*
X114562015Y-89695319D01*
X114655147Y-89834700D01*
X114719297Y-89989572D01*
X114752000Y-90153984D01*
X114752000Y-90321616D01*
X114719297Y-90486028D01*
X114655147Y-90640900D01*
X114562015Y-90780281D01*
X114443481Y-90898815D01*
X114304100Y-90991947D01*
X114149228Y-91056097D01*
X113984816Y-91088800D01*
X113817184Y-91088800D01*
X113652772Y-91056097D01*
X113497900Y-90991947D01*
X113358519Y-90898815D01*
X113239985Y-90780281D01*
X113146853Y-90640900D01*
X113082703Y-90486028D01*
X113050000Y-90321616D01*
X113050000Y-90153984D01*
X113082703Y-89989572D01*
X113146853Y-89834700D01*
X113239985Y-89695319D01*
X113358519Y-89576785D01*
X113497900Y-89483653D01*
X113652772Y-89419503D01*
X113817184Y-89386800D01*
X113984816Y-89386800D01*
X114149228Y-89419503D01*
G37*
G36*
X117249228Y-87895503D02*
G01*
X117404100Y-87959653D01*
X117543481Y-88052785D01*
X117662015Y-88171319D01*
X117755147Y-88310700D01*
X117819297Y-88465572D01*
X117852000Y-88629984D01*
X117852000Y-88797616D01*
X117819297Y-88962028D01*
X117755147Y-89116900D01*
X117662015Y-89256281D01*
X117543481Y-89374815D01*
X117404100Y-89467947D01*
X117249228Y-89532097D01*
X117084816Y-89564800D01*
X116917184Y-89564800D01*
X116752772Y-89532097D01*
X116597900Y-89467947D01*
X116458519Y-89374815D01*
X116339985Y-89256281D01*
X116246853Y-89116900D01*
X116182703Y-88962028D01*
X116150000Y-88797616D01*
X116150000Y-88629984D01*
X116182703Y-88465572D01*
X116246853Y-88310700D01*
X116339985Y-88171319D01*
X116458519Y-88052785D01*
X116597900Y-87959653D01*
X116752772Y-87895503D01*
X116917184Y-87862800D01*
X117084816Y-87862800D01*
X117249228Y-87895503D01*
G37*
G36*
X131707778Y-87578347D02*
G01*
X131874224Y-87647291D01*
X132024022Y-87747383D01*
X132151417Y-87874778D01*
X132251509Y-88024576D01*
X132320453Y-88191022D01*
X132355600Y-88367718D01*
X132355600Y-88547882D01*
X132320453Y-88724578D01*
X132251509Y-88891024D01*
X132151417Y-89040822D01*
X132024022Y-89168217D01*
X131874224Y-89268309D01*
X131707778Y-89337253D01*
X131531082Y-89372400D01*
X131350918Y-89372400D01*
X131174222Y-89337253D01*
X131007776Y-89268309D01*
X130857978Y-89168217D01*
X130730583Y-89040822D01*
X130630491Y-88891024D01*
X130561547Y-88724578D01*
X130526400Y-88547882D01*
X130526400Y-88367718D01*
X130561547Y-88191022D01*
X130630491Y-88024576D01*
X130730583Y-87874778D01*
X130857978Y-87747383D01*
X131007776Y-87647291D01*
X131174222Y-87578347D01*
X131350918Y-87543200D01*
X131531082Y-87543200D01*
X131707778Y-87578347D01*
G37*
G36*
X129167778Y-87578347D02*
G01*
X129334224Y-87647291D01*
X129484022Y-87747383D01*
X129611417Y-87874778D01*
X129711509Y-88024576D01*
X129780453Y-88191022D01*
X129815600Y-88367718D01*
X129815600Y-88547882D01*
X129780453Y-88724578D01*
X129711509Y-88891024D01*
X129611417Y-89040822D01*
X129484022Y-89168217D01*
X129334224Y-89268309D01*
X129167778Y-89337253D01*
X128991082Y-89372400D01*
X128810918Y-89372400D01*
X128634222Y-89337253D01*
X128467776Y-89268309D01*
X128317978Y-89168217D01*
X128190583Y-89040822D01*
X128090491Y-88891024D01*
X128021547Y-88724578D01*
X127986400Y-88547882D01*
X127986400Y-88367718D01*
X128021547Y-88191022D01*
X128090491Y-88024576D01*
X128190583Y-87874778D01*
X128317978Y-87747383D01*
X128467776Y-87647291D01*
X128634222Y-87578347D01*
X128810918Y-87543200D01*
X128991082Y-87543200D01*
X129167778Y-87578347D01*
G37*
G36*
X131707778Y-85038347D02*
G01*
X131874224Y-85107291D01*
X132024022Y-85207383D01*
X132151417Y-85334778D01*
X132251509Y-85484576D01*
X132320453Y-85651022D01*
X132355600Y-85827718D01*
X132355600Y-86007882D01*
X132320453Y-86184578D01*
X132251509Y-86351024D01*
X132151417Y-86500822D01*
X132024022Y-86628217D01*
X131874224Y-86728309D01*
X131707778Y-86797253D01*
X131531082Y-86832400D01*
X131350918Y-86832400D01*
X131174222Y-86797253D01*
X131007776Y-86728309D01*
X130857978Y-86628217D01*
X130730583Y-86500822D01*
X130630491Y-86351024D01*
X130561547Y-86184578D01*
X130526400Y-86007882D01*
X130526400Y-85827718D01*
X130561547Y-85651022D01*
X130630491Y-85484576D01*
X130730583Y-85334778D01*
X130857978Y-85207383D01*
X131007776Y-85107291D01*
X131174222Y-85038347D01*
X131350918Y-85003200D01*
X131531082Y-85003200D01*
X131707778Y-85038347D01*
G37*
G36*
X129815600Y-86832400D02*
G01*
X127986400Y-86832400D01*
X127986400Y-85003200D01*
X129815600Y-85003200D01*
X129815600Y-86832400D01*
G37*
G36*
X117249228Y-82895503D02*
G01*
X117404100Y-82959653D01*
X117543481Y-83052785D01*
X117662015Y-83171319D01*
X117755147Y-83310700D01*
X117819297Y-83465572D01*
X117852000Y-83629984D01*
X117852000Y-83797616D01*
X117819297Y-83962028D01*
X117755147Y-84116900D01*
X117662015Y-84256281D01*
X117543481Y-84374815D01*
X117404100Y-84467947D01*
X117249228Y-84532097D01*
X117084816Y-84564800D01*
X116917184Y-84564800D01*
X116752772Y-84532097D01*
X116597900Y-84467947D01*
X116458519Y-84374815D01*
X116339985Y-84256281D01*
X116246853Y-84116900D01*
X116182703Y-83962028D01*
X116150000Y-83797616D01*
X116150000Y-83629984D01*
X116182703Y-83465572D01*
X116246853Y-83310700D01*
X116339985Y-83171319D01*
X116458519Y-83052785D01*
X116597900Y-82959653D01*
X116752772Y-82895503D01*
X116917184Y-82862800D01*
X117084816Y-82862800D01*
X117249228Y-82895503D01*
G37*
G36*
X98909228Y-81799503D02*
G01*
X99064100Y-81863653D01*
X99203481Y-81956785D01*
X99322015Y-82075319D01*
X99415147Y-82214700D01*
X99479297Y-82369572D01*
X99512000Y-82533984D01*
X99512000Y-82701616D01*
X99479297Y-82866028D01*
X99415147Y-83020900D01*
X99322015Y-83160281D01*
X99203481Y-83278815D01*
X99064100Y-83371947D01*
X98909228Y-83436097D01*
X98744816Y-83468800D01*
X98577184Y-83468800D01*
X98412772Y-83436097D01*
X98257900Y-83371947D01*
X98118519Y-83278815D01*
X97999985Y-83160281D01*
X97906853Y-83020900D01*
X97842703Y-82866028D01*
X97810000Y-82701616D01*
X97810000Y-82533984D01*
X97842703Y-82369572D01*
X97906853Y-82214700D01*
X97999985Y-82075319D01*
X98118519Y-81956785D01*
X98257900Y-81863653D01*
X98412772Y-81799503D01*
X98577184Y-81766800D01*
X98744816Y-81766800D01*
X98909228Y-81799503D01*
G37*
G36*
X103989228Y-81799503D02*
G01*
X104144100Y-81863653D01*
X104283481Y-81956785D01*
X104402015Y-82075319D01*
X104495147Y-82214700D01*
X104559297Y-82369572D01*
X104592000Y-82533984D01*
X104592000Y-82701616D01*
X104559297Y-82866028D01*
X104495147Y-83020900D01*
X104402015Y-83160281D01*
X104283481Y-83278815D01*
X104144100Y-83371947D01*
X103989228Y-83436097D01*
X103824816Y-83468800D01*
X103657184Y-83468800D01*
X103492772Y-83436097D01*
X103337900Y-83371947D01*
X103198519Y-83278815D01*
X103079985Y-83160281D01*
X102986853Y-83020900D01*
X102922703Y-82866028D01*
X102890000Y-82701616D01*
X102890000Y-82533984D01*
X102922703Y-82369572D01*
X102986853Y-82214700D01*
X103079985Y-82075319D01*
X103198519Y-81956785D01*
X103337900Y-81863653D01*
X103492772Y-81799503D01*
X103657184Y-81766800D01*
X103824816Y-81766800D01*
X103989228Y-81799503D01*
G37*
G36*
X96369228Y-81799503D02*
G01*
X96524100Y-81863653D01*
X96663481Y-81956785D01*
X96782015Y-82075319D01*
X96875147Y-82214700D01*
X96939297Y-82369572D01*
X96972000Y-82533984D01*
X96972000Y-82701616D01*
X96939297Y-82866028D01*
X96875147Y-83020900D01*
X96782015Y-83160281D01*
X96663481Y-83278815D01*
X96524100Y-83371947D01*
X96369228Y-83436097D01*
X96204816Y-83468800D01*
X96037184Y-83468800D01*
X95872772Y-83436097D01*
X95717900Y-83371947D01*
X95578519Y-83278815D01*
X95459985Y-83160281D01*
X95366853Y-83020900D01*
X95302703Y-82866028D01*
X95270000Y-82701616D01*
X95270000Y-82533984D01*
X95302703Y-82369572D01*
X95366853Y-82214700D01*
X95459985Y-82075319D01*
X95578519Y-81956785D01*
X95717900Y-81863653D01*
X95872772Y-81799503D01*
X96037184Y-81766800D01*
X96204816Y-81766800D01*
X96369228Y-81799503D01*
G37*
G36*
X106529228Y-81799503D02*
G01*
X106684100Y-81863653D01*
X106823481Y-81956785D01*
X106942015Y-82075319D01*
X107035147Y-82214700D01*
X107099297Y-82369572D01*
X107132000Y-82533984D01*
X107132000Y-82701616D01*
X107099297Y-82866028D01*
X107035147Y-83020900D01*
X106942015Y-83160281D01*
X106823481Y-83278815D01*
X106684100Y-83371947D01*
X106529228Y-83436097D01*
X106364816Y-83468800D01*
X106197184Y-83468800D01*
X106032772Y-83436097D01*
X105877900Y-83371947D01*
X105738519Y-83278815D01*
X105619985Y-83160281D01*
X105526853Y-83020900D01*
X105462703Y-82866028D01*
X105430000Y-82701616D01*
X105430000Y-82533984D01*
X105462703Y-82369572D01*
X105526853Y-82214700D01*
X105619985Y-82075319D01*
X105738519Y-81956785D01*
X105877900Y-81863653D01*
X106032772Y-81799503D01*
X106197184Y-81766800D01*
X106364816Y-81766800D01*
X106529228Y-81799503D01*
G37*
G36*
X114752000Y-83468800D02*
G01*
X113050000Y-83468800D01*
X113050000Y-81766800D01*
X114752000Y-81766800D01*
X114752000Y-83468800D01*
G37*
G36*
X101449228Y-81799503D02*
G01*
X101604100Y-81863653D01*
X101743481Y-81956785D01*
X101862015Y-82075319D01*
X101955147Y-82214700D01*
X102019297Y-82369572D01*
X102052000Y-82533984D01*
X102052000Y-82701616D01*
X102019297Y-82866028D01*
X101955147Y-83020900D01*
X101862015Y-83160281D01*
X101743481Y-83278815D01*
X101604100Y-83371947D01*
X101449228Y-83436097D01*
X101284816Y-83468800D01*
X101117184Y-83468800D01*
X100952772Y-83436097D01*
X100797900Y-83371947D01*
X100658519Y-83278815D01*
X100539985Y-83160281D01*
X100446853Y-83020900D01*
X100382703Y-82866028D01*
X100350000Y-82701616D01*
X100350000Y-82533984D01*
X100382703Y-82369572D01*
X100446853Y-82214700D01*
X100539985Y-82075319D01*
X100658519Y-81956785D01*
X100797900Y-81863653D01*
X100952772Y-81799503D01*
X101117184Y-81766800D01*
X101284816Y-81766800D01*
X101449228Y-81799503D01*
G37*
G36*
X109069228Y-81799503D02*
G01*
X109224100Y-81863653D01*
X109363481Y-81956785D01*
X109482015Y-82075319D01*
X109575147Y-82214700D01*
X109639297Y-82369572D01*
X109672000Y-82533984D01*
X109672000Y-82701616D01*
X109639297Y-82866028D01*
X109575147Y-83020900D01*
X109482015Y-83160281D01*
X109363481Y-83278815D01*
X109224100Y-83371947D01*
X109069228Y-83436097D01*
X108904816Y-83468800D01*
X108737184Y-83468800D01*
X108572772Y-83436097D01*
X108417900Y-83371947D01*
X108278519Y-83278815D01*
X108159985Y-83160281D01*
X108066853Y-83020900D01*
X108002703Y-82866028D01*
X107970000Y-82701616D01*
X107970000Y-82533984D01*
X108002703Y-82369572D01*
X108066853Y-82214700D01*
X108159985Y-82075319D01*
X108278519Y-81956785D01*
X108417900Y-81863653D01*
X108572772Y-81799503D01*
X108737184Y-81766800D01*
X108904816Y-81766800D01*
X109069228Y-81799503D01*
G37*
G36*
X111609228Y-81799503D02*
G01*
X111764100Y-81863653D01*
X111903481Y-81956785D01*
X112022015Y-82075319D01*
X112115147Y-82214700D01*
X112179297Y-82369572D01*
X112212000Y-82533984D01*
X112212000Y-82701616D01*
X112179297Y-82866028D01*
X112115147Y-83020900D01*
X112022015Y-83160281D01*
X111903481Y-83278815D01*
X111764100Y-83371947D01*
X111609228Y-83436097D01*
X111444816Y-83468800D01*
X111277184Y-83468800D01*
X111112772Y-83436097D01*
X110957900Y-83371947D01*
X110818519Y-83278815D01*
X110699985Y-83160281D01*
X110606853Y-83020900D01*
X110542703Y-82866028D01*
X110510000Y-82701616D01*
X110510000Y-82533984D01*
X110542703Y-82369572D01*
X110606853Y-82214700D01*
X110699985Y-82075319D01*
X110818519Y-81956785D01*
X110957900Y-81863653D01*
X111112772Y-81799503D01*
X111277184Y-81766800D01*
X111444816Y-81766800D01*
X111609228Y-81799503D01*
G37*
G36*
X120593000Y-79540800D02*
G01*
X118691000Y-79540800D01*
X118691000Y-77638800D01*
X120593000Y-77638800D01*
X120593000Y-79540800D01*
G37*
G36*
X122459395Y-77675346D02*
G01*
X122632466Y-77747034D01*
X122632467Y-77747035D01*
X122788227Y-77851110D01*
X122920690Y-77983573D01*
X122920691Y-77983575D01*
X123024766Y-78139334D01*
X123096454Y-78312405D01*
X123133000Y-78496133D01*
X123133000Y-78683467D01*
X123096454Y-78867195D01*
X123024766Y-79040266D01*
X123024765Y-79040267D01*
X122920690Y-79196027D01*
X122788227Y-79328490D01*
X122709818Y-79380881D01*
X122632466Y-79432566D01*
X122459395Y-79504254D01*
X122275667Y-79540800D01*
X122088333Y-79540800D01*
X121904605Y-79504254D01*
X121731534Y-79432566D01*
X121654182Y-79380881D01*
X121575773Y-79328490D01*
X121443310Y-79196027D01*
X121339235Y-79040267D01*
X121339234Y-79040266D01*
X121267546Y-78867195D01*
X121231000Y-78683467D01*
X121231000Y-78496133D01*
X121267546Y-78312405D01*
X121339234Y-78139334D01*
X121443309Y-77983575D01*
X121443310Y-77983573D01*
X121575773Y-77851110D01*
X121731533Y-77747035D01*
X121731534Y-77747034D01*
X121904605Y-77675346D01*
X122088333Y-77638800D01*
X122275667Y-77638800D01*
X122459395Y-77675346D01*
G37*
G36*
X116369228Y-77399503D02*
G01*
X116524100Y-77463653D01*
X116663481Y-77556785D01*
X116782015Y-77675319D01*
X116875147Y-77814700D01*
X116939297Y-77969572D01*
X116972000Y-78133984D01*
X116972000Y-78301616D01*
X116939297Y-78466028D01*
X116875147Y-78620900D01*
X116782015Y-78760281D01*
X116663481Y-78878815D01*
X116524100Y-78971947D01*
X116369228Y-79036097D01*
X116204816Y-79068800D01*
X116037184Y-79068800D01*
X115872772Y-79036097D01*
X115717900Y-78971947D01*
X115578519Y-78878815D01*
X115459985Y-78760281D01*
X115366853Y-78620900D01*
X115302703Y-78466028D01*
X115270000Y-78301616D01*
X115270000Y-78133984D01*
X115302703Y-77969572D01*
X115366853Y-77814700D01*
X115459985Y-77675319D01*
X115578519Y-77556785D01*
X115717900Y-77463653D01*
X115872772Y-77399503D01*
X116037184Y-77366800D01*
X116204816Y-77366800D01*
X116369228Y-77399503D01*
G37*
G36*
X108749228Y-77399503D02*
G01*
X108904100Y-77463653D01*
X109043481Y-77556785D01*
X109162015Y-77675319D01*
X109255147Y-77814700D01*
X109319297Y-77969572D01*
X109352000Y-78133984D01*
X109352000Y-78301616D01*
X109319297Y-78466028D01*
X109255147Y-78620900D01*
X109162015Y-78760281D01*
X109043481Y-78878815D01*
X108904100Y-78971947D01*
X108749228Y-79036097D01*
X108584816Y-79068800D01*
X108417184Y-79068800D01*
X108252772Y-79036097D01*
X108097900Y-78971947D01*
X107958519Y-78878815D01*
X107839985Y-78760281D01*
X107746853Y-78620900D01*
X107682703Y-78466028D01*
X107650000Y-78301616D01*
X107650000Y-78133984D01*
X107682703Y-77969572D01*
X107746853Y-77814700D01*
X107839985Y-77675319D01*
X107958519Y-77556785D01*
X108097900Y-77463653D01*
X108252772Y-77399503D01*
X108417184Y-77366800D01*
X108584816Y-77366800D01*
X108749228Y-77399503D01*
G37*
G36*
X78515501Y-71391854D02*
G01*
X78861461Y-71535156D01*
X79172817Y-71743197D01*
X79437603Y-72007983D01*
X79645644Y-72319339D01*
X79788946Y-72665299D01*
X79862000Y-73032568D01*
X79862000Y-73407032D01*
X79788946Y-73774301D01*
X79645644Y-74120261D01*
X79437603Y-74431617D01*
X79172817Y-74696403D01*
X78861461Y-74904444D01*
X78515501Y-75047746D01*
X78331866Y-75084273D01*
X78148233Y-75120800D01*
X77773767Y-75120800D01*
X77590134Y-75084273D01*
X77406499Y-75047746D01*
X77060539Y-74904444D01*
X76749183Y-74696403D01*
X76484397Y-74431617D01*
X76276356Y-74120261D01*
X76133054Y-73774301D01*
X76060000Y-73407032D01*
X76060000Y-73032568D01*
X76133054Y-72665299D01*
X76276356Y-72319339D01*
X76484397Y-72007983D01*
X76749183Y-71743197D01*
X77060539Y-71535156D01*
X77406499Y-71391854D01*
X77773767Y-71318800D01*
X78148233Y-71318800D01*
X78515501Y-71391854D01*
G37*
G36*
X129315501Y-71391854D02*
G01*
X129661461Y-71535156D01*
X129972817Y-71743197D01*
X130237603Y-72007983D01*
X130445644Y-72319339D01*
X130588946Y-72665299D01*
X130662000Y-73032568D01*
X130662000Y-73407032D01*
X130588946Y-73774301D01*
X130445644Y-74120261D01*
X130237603Y-74431617D01*
X129972817Y-74696403D01*
X129661461Y-74904444D01*
X129315501Y-75047746D01*
X129131866Y-75084273D01*
X128948233Y-75120800D01*
X128573767Y-75120800D01*
X128390134Y-75084273D01*
X128206499Y-75047746D01*
X127860539Y-74904444D01*
X127549183Y-74696403D01*
X127284397Y-74431617D01*
X127076356Y-74120261D01*
X126933054Y-73774301D01*
X126860000Y-73407032D01*
X126860000Y-73032568D01*
X126933054Y-72665299D01*
X127076356Y-72319339D01*
X127284397Y-72007983D01*
X127549183Y-71743197D01*
X127860539Y-71535156D01*
X128206499Y-71391854D01*
X128573767Y-71318800D01*
X128948233Y-71318800D01*
X129315501Y-71391854D01*
G37*
M02*
