0
SECTION
2
ENTITIES
0
LINE
8
0
10
0.000000
20
0.000000
30
0
11
2562.598425
21
0.000000
31
0
0
LINE
8
0
10
0.000000
20
0.000000
30
0
11
0.000000
21
-1413.385827
31
0
0
LINE
8
0
10
2562.598425
20
0.000000
30
0
11
2562.598425
21
-1413.385827
31
0
0
LINE
8
0
10
0.000000
20
-1413.385827
30
0
11
2562.598425
21
-1413.385827
31
0
0
LINE
8
1
10
2163.327913
20
-365.061417
30
0
11
2179.725000
21
-365.061417
31
0
0
LINE
8
1
10
2163.327913
20
-365.061417
30
0
11
2163.327913
21
-383.149724
31
0
0
LINE
8
1
10
2179.725000
20
-365.061417
30
0
11
2179.725000
21
-383.149724
31
0
0
LINE
8
1
10
2163.327913
20
-383.149724
30
0
11
2179.725000
21
-383.149724
31
0
0
LINE
8
1
10
1997.868819
20
-18.721024
30
0
11
2372.107953
21
-18.721024
31
0
0
LINE
8
1
10
1997.868819
20
-18.721024
30
0
11
1997.868819
21
-383.111496
31
0
0
LINE
8
1
10
2372.107953
20
-18.721024
30
0
11
2372.107953
21
-383.111496
31
0
0
LINE
8
1
10
1997.868819
20
-383.111496
30
0
11
2372.107953
21
-383.111496
31
0
0
LINE
8
1
10
2188.638622
20
-127.201102
30
0
11
2264.475748
21
-127.201102
31
0
0
LINE
8
1
10
2188.638622
20
-127.201102
30
0
11
2188.638622
21
-160.100354
31
0
0
LINE
8
1
10
2264.475748
20
-127.201102
30
0
11
2264.475748
21
-160.100354
31
0
0
LINE
8
1
10
2188.638622
20
-160.100354
30
0
11
2264.475748
21
-160.100354
31
0
0
LINE
8
1
10
2299.274803
20
-256.876299
30
0
11
2331.785354
21
-256.876299
31
0
0
LINE
8
1
10
2299.274803
20
-256.876299
30
0
11
2299.274803
21
-370.184724
31
0
0
LINE
8
1
10
2331.785354
20
-256.876299
30
0
11
2331.785354
21
-370.184724
31
0
0
LINE
8
1
10
2299.274803
20
-370.184724
30
0
11
2331.785354
21
-370.184724
31
0
0
LINE
8
1
10
2318.835000
20
-239.393543
30
0
11
2342.091142
21
-239.393543
31
0
0
LINE
8
1
10
2318.835000
20
-239.393543
30
0
11
2318.835000
21
-261.461929
31
0
0
LINE
8
1
10
2342.091142
20
-239.393543
30
0
11
2342.091142
21
-261.461929
31
0
0
LINE
8
1
10
2318.835000
20
-261.461929
30
0
11
2342.091142
21
-261.461929
31
0
0
LINE
8
1
10
2270.689331
20
-103.060000
30
0
11
2293.280827
21
-103.060000
31
0
0
LINE
8
1
10
2270.689331
20
-103.060000
30
0
11
2270.689331
21
-125.921535
31
0
0
LINE
8
1
10
2293.280827
20
-103.060000
30
0
11
2293.280827
21
-125.921535
31
0
0
LINE
8
1
10
2270.689331
20
-125.921535
30
0
11
2293.280827
21
-125.921535
31
0
0
LINE
8
1
10
1393.503937
20
-1178.700787
30
0
11
1448.228346
21
-1178.700787
31
0
0
LINE
8
1
10
1393.503937
20
-1178.700787
30
0
11
1393.503937
21
-1183.425197
31
0
0
LINE
8
1
10
1448.228346
20
-1178.700787
30
0
11
1448.228346
21
-1183.425197
31
0
0
LINE
8
1
10
1393.503937
20
-1183.425197
30
0
11
1448.228346
21
-1183.425197
31
0
0
LINE
8
1
10
1393.503937
20
-1178.700787
30
0
11
1398.228346
21
-1178.700787
31
0
0
LINE
8
1
10
1393.503937
20
-1178.700787
30
0
11
1393.503937
21
-1313.425197
31
0
0
LINE
8
1
10
1398.228346
20
-1178.700787
30
0
11
1398.228346
21
-1313.425197
31
0
0
LINE
8
1
10
1393.503937
20
-1313.425197
30
0
11
1398.228346
21
-1313.425197
31
0
0
LINE
8
1
10
1393.503937
20
-1308.700787
30
0
11
1448.228346
21
-1308.700787
31
0
0
LINE
8
1
10
1393.503937
20
-1308.700787
30
0
11
1393.503937
21
-1313.425197
31
0
0
LINE
8
1
10
1448.228346
20
-1308.700787
30
0
11
1448.228346
21
-1313.425197
31
0
0
LINE
8
1
10
1393.503937
20
-1313.425197
30
0
11
1448.228346
21
-1313.425197
31
0
0
LINE
8
1
10
1443.503937
20
-1178.700787
30
0
11
1448.228346
21
-1178.700787
31
0
0
LINE
8
1
10
1443.503937
20
-1178.700787
30
0
11
1443.503937
21
-1313.425197
31
0
0
LINE
8
1
10
1448.228346
20
-1178.700787
30
0
11
1448.228346
21
-1313.425197
31
0
0
LINE
8
1
10
1443.503937
20
-1313.425197
30
0
11
1448.228346
21
-1313.425197
31
0
0
LINE
8
1
10
1275.393701
20
-1178.700787
30
0
11
1330.118110
21
-1178.700787
31
0
0
LINE
8
1
10
1275.393701
20
-1178.700787
30
0
11
1275.393701
21
-1183.425197
31
0
0
LINE
8
1
10
1330.118110
20
-1178.700787
30
0
11
1330.118110
21
-1183.425197
31
0
0
LINE
8
1
10
1275.393701
20
-1183.425197
30
0
11
1330.118110
21
-1183.425197
31
0
0
LINE
8
1
10
1275.393701
20
-1178.700787
30
0
11
1280.118110
21
-1178.700787
31
0
0
LINE
8
1
10
1275.393701
20
-1178.700787
30
0
11
1275.393701
21
-1313.425197
31
0
0
LINE
8
1
10
1280.118110
20
-1178.700787
30
0
11
1280.118110
21
-1313.425197
31
0
0
LINE
8
1
10
1275.393701
20
-1313.425197
30
0
11
1280.118110
21
-1313.425197
31
0
0
LINE
8
1
10
1275.393701
20
-1308.700787
30
0
11
1330.118110
21
-1308.700787
31
0
0
LINE
8
1
10
1275.393701
20
-1308.700787
30
0
11
1275.393701
21
-1313.425197
31
0
0
LINE
8
1
10
1330.118110
20
-1308.700787
30
0
11
1330.118110
21
-1313.425197
31
0
0
LINE
8
1
10
1275.393701
20
-1313.425197
30
0
11
1330.118110
21
-1313.425197
31
0
0
LINE
8
1
10
1325.393701
20
-1178.700787
30
0
11
1330.118110
21
-1178.700787
31
0
0
LINE
8
1
10
1325.393701
20
-1178.700787
30
0
11
1325.393701
21
-1313.425197
31
0
0
LINE
8
1
10
1330.118110
20
-1178.700787
30
0
11
1330.118110
21
-1313.425197
31
0
0
LINE
8
1
10
1325.393701
20
-1313.425197
30
0
11
1330.118110
21
-1313.425197
31
0
0
CIRCLE
8
0
10
2422.440945
20
-211.023622
30
0
40
59.055118
0
LINE
8
1
10
397.086614
20
-20.866142
30
0
11
401.811024
21
-20.866142
31
0
0
LINE
8
1
10
397.086614
20
-20.866142
30
0
11
397.086614
21
-424.015748
31
0
0
LINE
8
1
10
401.811024
20
-20.866142
30
0
11
401.811024
21
-424.015748
31
0
0
LINE
8
1
10
397.086614
20
-424.015748
30
0
11
401.811024
21
-424.015748
31
0
0
LINE
8
1
10
6.496063
20
-20.866142
30
0
11
11.220472
21
-20.866142
31
0
0
LINE
8
1
10
6.496063
20
-20.866142
30
0
11
6.496063
21
-424.015748
31
0
0
LINE
8
1
10
11.220472
20
-20.866142
30
0
11
11.220472
21
-424.015748
31
0
0
LINE
8
1
10
6.496063
20
-424.015748
30
0
11
11.220472
21
-424.015748
31
0
0
LINE
8
1
10
147.874016
20
-268.346457
30
0
11
154.409449
21
-268.346457
31
0
0
LINE
8
1
10
147.874016
20
-268.346457
30
0
11
147.874016
21
-274.921260
31
0
0
LINE
8
1
10
154.409449
20
-268.346457
30
0
11
154.409449
21
-274.921260
31
0
0
LINE
8
1
10
147.874016
20
-274.921260
30
0
11
154.409449
21
-274.921260
31
0
0
LINE
8
1
10
87.598425
20
-20.866142
30
0
11
92.322835
21
-20.866142
31
0
0
LINE
8
1
10
87.598425
20
-20.866142
30
0
11
87.598425
21
-424.015748
31
0
0
LINE
8
1
10
92.322835
20
-20.866142
30
0
11
92.322835
21
-424.015748
31
0
0
LINE
8
1
10
87.598425
20
-424.015748
30
0
11
92.322835
21
-424.015748
31
0
0
LINE
8
1
10
139.803150
20
-276.417323
30
0
11
145.905512
21
-276.417323
31
0
0
LINE
8
1
10
139.803150
20
-276.417323
30
0
11
139.803150
21
-282.519685
31
0
0
LINE
8
1
10
145.905512
20
-276.417323
30
0
11
145.905512
21
-282.519685
31
0
0
LINE
8
1
10
139.803150
20
-282.519685
30
0
11
145.905512
21
-282.519685
31
0
0
LINE
8
1
10
6.496063
20
-20.866142
30
0
11
401.811024
21
-20.866142
31
0
0
LINE
8
1
10
6.496063
20
-20.866142
30
0
11
6.496063
21
-25.590551
31
0
0
LINE
8
1
10
401.811024
20
-20.866142
30
0
11
401.811024
21
-25.590551
31
0
0
LINE
8
1
10
6.496063
20
-25.590551
30
0
11
401.811024
21
-25.590551
31
0
0
LINE
8
1
10
6.496063
20
-419.291339
30
0
11
401.811024
21
-419.291339
31
0
0
LINE
8
1
10
6.496063
20
-419.291339
30
0
11
6.496063
21
-424.015748
31
0
0
LINE
8
1
10
401.811024
20
-419.291339
30
0
11
401.811024
21
-424.015748
31
0
0
LINE
8
1
10
6.496063
20
-424.015748
30
0
11
401.811024
21
-424.015748
31
0
0
LINE
8
1
10
230.236220
20
-366.850394
30
0
11
236.771654
21
-366.850394
31
0
0
LINE
8
1
10
230.236220
20
-366.850394
30
0
11
230.236220
21
-373.425197
31
0
0
LINE
8
1
10
236.771654
20
-366.850394
30
0
11
236.771654
21
-373.425197
31
0
0
LINE
8
1
10
230.236220
20
-373.425197
30
0
11
236.771654
21
-373.425197
31
0
0
LINE
8
1
10
238.740157
20
-359.251969
30
0
11
244.881890
21
-359.251969
31
0
0
LINE
8
1
10
238.740157
20
-359.251969
30
0
11
238.740157
21
-365.354331
31
0
0
LINE
8
1
10
244.881890
20
-359.251969
30
0
11
244.881890
21
-365.354331
31
0
0
LINE
8
1
10
238.740157
20
-365.354331
30
0
11
244.881890
21
-365.354331
31
0
0
LINE
8
1
10
280.551181
20
-20.866142
30
0
11
285.275591
21
-20.866142
31
0
0
LINE
8
1
10
280.551181
20
-20.866142
30
0
11
280.551181
21
-424.015748
31
0
0
LINE
8
1
10
285.275591
20
-20.866142
30
0
11
285.275591
21
-424.015748
31
0
0
LINE
8
1
10
280.551181
20
-424.015748
30
0
11
285.275591
21
-424.015748
31
0
0
LINE
8
1
10
28.543307
20
-20.866142
30
0
11
33.267717
21
-20.866142
31
0
0
LINE
8
1
10
28.543307
20
-20.866142
30
0
11
28.543307
21
-424.015748
31
0
0
LINE
8
1
10
33.267717
20
-20.866142
30
0
11
33.267717
21
-424.015748
31
0
0
LINE
8
1
10
28.543307
20
-424.015748
30
0
11
33.267717
21
-424.015748
31
0
0
LINE
8
1
10
163.031496
20
-182.086614
30
0
11
221.576457
21
-182.086614
31
0
0
LINE
8
1
10
163.031496
20
-182.086614
30
0
11
163.031496
21
-192.539409
31
0
0
LINE
8
1
10
221.576457
20
-182.086614
30
0
11
221.576457
21
-192.539409
31
0
0
LINE
8
1
10
163.031496
20
-192.539409
30
0
11
221.576457
21
-192.539409
31
0
0
LINE
8
1
10
123.799213
20
-94.724409
30
0
11
134.251969
21
-94.724409
31
0
0
LINE
8
1
10
123.799213
20
-94.724409
30
0
11
123.799213
21
-127.512008
31
0
0
LINE
8
1
10
134.251969
20
-94.724409
30
0
11
134.251969
21
-127.512008
31
0
0
LINE
8
1
10
123.799213
20
-127.512008
30
0
11
134.251969
21
-127.512008
31
0
0
LINE
8
1
10
123.818898
20
-121.653543
30
0
11
134.261575
21
-121.653543
31
0
0
LINE
8
1
10
123.818898
20
-121.653543
30
0
11
123.818898
21
-153.280236
31
0
0
LINE
8
1
10
134.261575
20
-121.653543
30
0
11
134.261575
21
-153.280236
31
0
0
LINE
8
1
10
123.818898
20
-153.280236
30
0
11
134.261575
21
-153.280236
31
0
0
LINE
8
1
10
163.069213
20
-55.492087
30
0
11
221.614173
21
-55.492087
31
0
0
LINE
8
1
10
163.069213
20
-55.492087
30
0
11
163.069213
21
-65.944882
31
0
0
LINE
8
1
10
221.614173
20
-55.492087
30
0
11
221.614173
21
-65.944882
31
0
0
LINE
8
1
10
163.069213
20
-65.944882
30
0
11
221.614173
21
-65.944882
31
0
0
LINE
8
1
10
250.393701
20
-94.762126
30
0
11
260.846496
21
-94.762126
31
0
0
LINE
8
1
10
250.393701
20
-94.762126
30
0
11
250.393701
21
-153.307087
31
0
0
LINE
8
1
10
260.846496
20
-94.762126
30
0
11
260.846496
21
-153.307087
31
0
0
LINE
8
1
10
250.393701
20
-153.307087
30
0
11
260.846496
21
-153.307087
31
0
0
LINE
8
1
10
123.818898
20
-252.362205
30
0
11
260.826772
21
-252.362205
31
0
0
LINE
8
1
10
123.818898
20
-252.362205
30
0
11
123.818898
21
-389.370079
31
0
0
LINE
8
1
10
260.826772
20
-252.362205
30
0
11
260.826772
21
-389.370079
31
0
0
LINE
8
1
10
123.818898
20
-389.370079
30
0
11
260.826772
21
-389.370079
31
0
0
LINE
8
1
10
2281.889764
20
-1205.314961
30
0
11
2286.614173
21
-1205.314961
31
0
0
LINE
8
1
10
2281.889764
20
-1205.314961
30
0
11
2281.889764
21
-1262.401575
31
0
0
LINE
8
1
10
2286.614173
20
-1205.314961
30
0
11
2286.614173
21
-1262.401575
31
0
0
LINE
8
1
10
2281.889764
20
-1262.401575
30
0
11
2286.614173
21
-1262.401575
31
0
0
LINE
8
1
10
2229.527559
20
-1257.677165
30
0
11
2286.614173
21
-1257.677165
31
0
0
LINE
8
1
10
2229.527559
20
-1257.677165
30
0
11
2229.527559
21
-1262.401575
31
0
0
LINE
8
1
10
2286.614173
20
-1257.677165
30
0
11
2286.614173
21
-1262.401575
31
0
0
LINE
8
1
10
2229.527559
20
-1262.401575
30
0
11
2286.614173
21
-1262.401575
31
0
0
LINE
8
1
10
1877.165354
20
-1152.952756
30
0
11
2184.251969
21
-1152.952756
31
0
0
LINE
8
1
10
1877.165354
20
-1152.952756
30
0
11
1877.165354
21
-1157.677165
31
0
0
LINE
8
1
10
2184.251969
20
-1152.952756
30
0
11
2184.251969
21
-1157.677165
31
0
0
LINE
8
1
10
1877.165354
20
-1157.677165
30
0
11
2184.251969
21
-1157.677165
31
0
0
LINE
8
1
10
2179.527559
20
-1152.952756
30
0
11
2184.251969
21
-1152.952756
31
0
0
LINE
8
1
10
2179.527559
20
-1152.952756
30
0
11
2179.527559
21
-1262.401575
31
0
0
LINE
8
1
10
2184.251969
20
-1152.952756
30
0
11
2184.251969
21
-1262.401575
31
0
0
LINE
8
1
10
2179.527559
20
-1262.401575
30
0
11
2184.251969
21
-1262.401575
31
0
0
LINE
8
1
10
1877.165354
20
-1257.677165
30
0
11
2184.251969
21
-1257.677165
31
0
0
LINE
8
1
10
1877.165354
20
-1257.677165
30
0
11
1877.165354
21
-1262.401575
31
0
0
LINE
8
1
10
2184.251969
20
-1257.677165
30
0
11
2184.251969
21
-1262.401575
31
0
0
LINE
8
1
10
1877.165354
20
-1262.401575
30
0
11
2184.251969
21
-1262.401575
31
0
0
LINE
8
1
10
1877.165354
20
-1152.952756
30
0
11
1881.889764
21
-1152.952756
31
0
0
LINE
8
1
10
1877.165354
20
-1152.952756
30
0
11
1877.165354
21
-1262.401575
31
0
0
LINE
8
1
10
1881.889764
20
-1152.952756
30
0
11
1881.889764
21
-1262.401575
31
0
0
LINE
8
1
10
1877.165354
20
-1262.401575
30
0
11
1881.889764
21
-1262.401575
31
0
0
LINE
8
1
10
190.157480
20
-1188.188976
30
0
11
271.653543
21
-1188.188976
31
0
0
LINE
8
1
10
190.157480
20
-1188.188976
30
0
11
190.157480
21
-1192.913386
31
0
0
LINE
8
1
10
271.653543
20
-1188.188976
30
0
11
271.653543
21
-1192.913386
31
0
0
LINE
8
1
10
190.157480
20
-1192.913386
30
0
11
271.653543
21
-1192.913386
31
0
0
LINE
8
1
10
190.157480
20
-1389.763780
30
0
11
271.653543
21
-1389.763780
31
0
0
LINE
8
1
10
190.157480
20
-1389.763780
30
0
11
190.157480
21
-1394.488189
31
0
0
LINE
8
1
10
271.653543
20
-1389.763780
30
0
11
271.653543
21
-1394.488189
31
0
0
LINE
8
1
10
190.157480
20
-1394.488189
30
0
11
271.653543
21
-1394.488189
31
0
0
LINE
8
1
10
54.330709
20
-1188.188976
30
0
11
194.881890
21
-1188.188976
31
0
0
LINE
8
1
10
54.330709
20
-1188.188976
30
0
11
54.330709
21
-1192.913386
31
0
0
LINE
8
1
10
194.881890
20
-1188.188976
30
0
11
194.881890
21
-1192.913386
31
0
0
LINE
8
1
10
54.330709
20
-1192.913386
30
0
11
194.881890
21
-1192.913386
31
0
0
LINE
8
1
10
113.385827
20
-1389.763780
30
0
11
194.881890
21
-1389.763780
31
0
0
LINE
8
1
10
113.385827
20
-1389.763780
30
0
11
113.385827
21
-1394.488189
31
0
0
LINE
8
1
10
194.881890
20
-1389.763780
30
0
11
194.881890
21
-1394.488189
31
0
0
LINE
8
1
10
113.385827
20
-1394.488189
30
0
11
194.881890
21
-1394.488189
31
0
0
LINE
8
1
10
519.980315
20
-1181.999055
30
0
11
524.704724
21
-1181.999055
31
0
0
LINE
8
1
10
519.980315
20
-1181.999055
30
0
11
519.980315
21
-1206.780472
31
0
0
LINE
8
1
10
524.704724
20
-1181.999055
30
0
11
524.704724
21
-1206.780472
31
0
0
LINE
8
1
10
519.980315
20
-1206.780472
30
0
11
524.704724
21
-1206.780472
31
0
0
LINE
8
1
10
561.122047
20
-1181.999055
30
0
11
565.846457
21
-1181.999055
31
0
0
LINE
8
1
10
561.122047
20
-1181.999055
30
0
11
561.122047
21
-1206.780472
31
0
0
LINE
8
1
10
565.846457
20
-1181.999055
30
0
11
565.846457
21
-1206.780472
31
0
0
LINE
8
1
10
561.122047
20
-1206.780472
30
0
11
565.846457
21
-1206.780472
31
0
0
LINE
8
1
10
482.381890
20
-1182.491181
30
0
11
487.106299
21
-1182.491181
31
0
0
LINE
8
1
10
482.381890
20
-1182.491181
30
0
11
482.381890
21
-1207.272598
31
0
0
LINE
8
1
10
487.106299
20
-1182.491181
30
0
11
487.106299
21
-1207.272598
31
0
0
LINE
8
1
10
482.381890
20
-1207.272598
30
0
11
487.106299
21
-1207.272598
31
0
0
LINE
8
1
10
441.240157
20
-1182.491181
30
0
11
445.964567
21
-1182.491181
31
0
0
LINE
8
1
10
441.240157
20
-1182.491181
30
0
11
441.240157
21
-1207.272598
31
0
0
LINE
8
1
10
445.964567
20
-1182.491181
30
0
11
445.964567
21
-1207.272598
31
0
0
LINE
8
1
10
441.240157
20
-1207.272598
30
0
11
445.964567
21
-1207.272598
31
0
0
LINE
8
1
10
249.359567
20
-1171.259843
30
0
11
265.601063
21
-1171.259843
31
0
0
LINE
8
1
10
249.359567
20
-1171.259843
30
0
11
249.359567
21
-1175.984252
31
0
0
LINE
8
1
10
265.601063
20
-1171.259843
30
0
11
265.601063
21
-1175.984252
31
0
0
LINE
8
1
10
249.359567
20
-1175.984252
30
0
11
265.601063
21
-1175.984252
31
0
0
LINE
8
1
10
249.359567
20
-1131.102362
30
0
11
265.601063
21
-1131.102362
31
0
0
LINE
8
1
10
249.359567
20
-1131.102362
30
0
11
249.359567
21
-1135.826772
31
0
0
LINE
8
1
10
265.601063
20
-1131.102362
30
0
11
265.601063
21
-1135.826772
31
0
0
LINE
8
1
10
249.359567
20
-1135.826772
30
0
11
265.601063
21
-1135.826772
31
0
0
LINE
8
1
10
1737.401575
20
-6.299213
30
0
11
1761.811024
21
-6.299213
31
0
0
LINE
8
1
10
1737.401575
20
-6.299213
30
0
11
1737.401575
21
-50.393701
31
0
0
LINE
8
1
10
1761.811024
20
-6.299213
30
0
11
1761.811024
21
-50.393701
31
0
0
LINE
8
1
10
1737.401575
20
-50.393701
30
0
11
1761.811024
21
-50.393701
31
0
0
LINE
8
1
10
1717.716535
20
-6.299213
30
0
11
1761.811024
21
-6.299213
31
0
0
LINE
8
1
10
1717.716535
20
-6.299213
30
0
11
1717.716535
21
-11.023622
31
0
0
LINE
8
1
10
1761.811024
20
-6.299213
30
0
11
1761.811024
21
-11.023622
31
0
0
LINE
8
1
10
1717.716535
20
-11.023622
30
0
11
1761.811024
21
-11.023622
31
0
0
LINE
8
1
10
483.464567
20
-368.503937
30
0
11
1896.062992
21
-368.503937
31
0
0
LINE
8
1
10
483.464567
20
-368.503937
30
0
11
483.464567
21
-373.228346
31
0
0
LINE
8
1
10
1896.062992
20
-368.503937
30
0
11
1896.062992
21
-373.228346
31
0
0
LINE
8
1
10
483.464567
20
-373.228346
30
0
11
1896.062992
21
-373.228346
31
0
0
LINE
8
1
10
432.283465
20
-61.023622
30
0
11
1947.244094
21
-61.023622
31
0
0
LINE
8
1
10
432.283465
20
-61.023622
30
0
11
432.283465
21
-65.748031
31
0
0
LINE
8
1
10
1947.244094
20
-61.023622
30
0
11
1947.244094
21
-65.748031
31
0
0
LINE
8
1
10
432.283465
20
-65.748031
30
0
11
1947.244094
21
-65.748031
31
0
0
LINE
8
1
10
483.464567
20
-112.598425
30
0
11
1111.417323
21
-112.598425
31
0
0
LINE
8
1
10
483.464567
20
-112.598425
30
0
11
483.464567
21
-117.322835
31
0
0
LINE
8
1
10
1111.417323
20
-112.598425
30
0
11
1111.417323
21
-117.322835
31
0
0
LINE
8
1
10
483.464567
20
-117.322835
30
0
11
1111.417323
21
-117.322835
31
0
0
LINE
8
1
10
1268.110236
20
-112.598425
30
0
11
1896.062992
21
-112.598425
31
0
0
LINE
8
1
10
1268.110236
20
-112.598425
30
0
11
1268.110236
21
-117.322835
31
0
0
LINE
8
1
10
1896.062992
20
-112.598425
30
0
11
1896.062992
21
-117.322835
31
0
0
LINE
8
1
10
1268.110236
20
-117.322835
30
0
11
1896.062992
21
-117.322835
31
0
0
LINE
8
1
10
1942.519685
20
-61.023622
30
0
11
1947.244094
21
-61.023622
31
0
0
LINE
8
1
10
1942.519685
20
-61.023622
30
0
11
1942.519685
21
-424.803150
31
0
0
LINE
8
1
10
1947.244094
20
-61.023622
30
0
11
1947.244094
21
-424.803150
31
0
0
LINE
8
1
10
1942.519685
20
-424.803150
30
0
11
1947.244094
21
-424.803150
31
0
0
LINE
8
1
10
432.283465
20
-61.023622
30
0
11
437.007874
21
-61.023622
31
0
0
LINE
8
1
10
432.283465
20
-61.023622
30
0
11
432.283465
21
-424.803150
31
0
0
LINE
8
1
10
437.007874
20
-61.023622
30
0
11
437.007874
21
-424.803150
31
0
0
LINE
8
1
10
432.283465
20
-424.803150
30
0
11
437.007874
21
-424.803150
31
0
0
LINE
8
1
10
1268.110236
20
-61.023622
30
0
11
1272.834646
21
-61.023622
31
0
0
LINE
8
1
10
1268.110236
20
-61.023622
30
0
11
1268.110236
21
-117.322835
31
0
0
LINE
8
1
10
1272.834646
20
-61.023622
30
0
11
1272.834646
21
-117.322835
31
0
0
LINE
8
1
10
1268.110236
20
-117.322835
30
0
11
1272.834646
21
-117.322835
31
0
0
LINE
8
1
10
432.283465
20
-420.078740
30
0
11
1947.244094
21
-420.078740
31
0
0
LINE
8
1
10
432.283465
20
-420.078740
30
0
11
432.283465
21
-424.803150
31
0
0
LINE
8
1
10
1947.244094
20
-420.078740
30
0
11
1947.244094
21
-424.803150
31
0
0
LINE
8
1
10
432.283465
20
-424.803150
30
0
11
1947.244094
21
-424.803150
31
0
0
LINE
8
1
10
1717.716535
20
-6.299213
30
0
11
1742.125984
21
-6.299213
31
0
0
LINE
8
1
10
1717.716535
20
-6.299213
30
0
11
1717.716535
21
-50.393701
31
0
0
LINE
8
1
10
1742.125984
20
-6.299213
30
0
11
1742.125984
21
-50.393701
31
0
0
LINE
8
1
10
1717.716535
20
-50.393701
30
0
11
1742.125984
21
-50.393701
31
0
0
LINE
8
1
10
1106.692913
20
-112.598425
30
0
11
1111.417323
21
-112.598425
31
0
0
LINE
8
1
10
1106.692913
20
-112.598425
30
0
11
1106.692913
21
-117.322835
31
0
0
LINE
8
1
10
1111.417323
20
-112.598425
30
0
11
1111.417323
21
-117.322835
31
0
0
LINE
8
1
10
1106.692913
20
-117.322835
30
0
11
1111.417323
21
-117.322835
31
0
0
LINE
8
1
10
483.464567
20
-112.598425
30
0
11
488.188976
21
-112.598425
31
0
0
LINE
8
1
10
483.464567
20
-112.598425
30
0
11
483.464567
21
-373.228346
31
0
0
LINE
8
1
10
488.188976
20
-112.598425
30
0
11
488.188976
21
-373.228346
31
0
0
LINE
8
1
10
483.464567
20
-373.228346
30
0
11
488.188976
21
-373.228346
31
0
0
LINE
8
1
10
1106.692913
20
-61.023622
30
0
11
1111.417323
21
-61.023622
31
0
0
LINE
8
1
10
1106.692913
20
-61.023622
30
0
11
1106.692913
21
-117.322835
31
0
0
LINE
8
1
10
1111.417323
20
-61.023622
30
0
11
1111.417323
21
-117.322835
31
0
0
LINE
8
1
10
1106.692913
20
-117.322835
30
0
11
1111.417323
21
-117.322835
31
0
0
LINE
8
1
10
1891.338583
20
-112.598425
30
0
11
1896.062992
21
-112.598425
31
0
0
LINE
8
1
10
1891.338583
20
-112.598425
30
0
11
1891.338583
21
-373.228346
31
0
0
LINE
8
1
10
1896.062992
20
-112.598425
30
0
11
1896.062992
21
-373.228346
31
0
0
LINE
8
1
10
1891.338583
20
-373.228346
30
0
11
1896.062992
21
-373.228346
31
0
0
LINE
8
1
10
2162.598425
20
-421.653543
30
0
11
2206.692913
21
-421.653543
31
0
0
LINE
8
1
10
2162.598425
20
-421.653543
30
0
11
2162.598425
21
-426.377953
31
0
0
LINE
8
1
10
2206.692913
20
-421.653543
30
0
11
2206.692913
21
-426.377953
31
0
0
LINE
8
1
10
2162.598425
20
-426.377953
30
0
11
2206.692913
21
-426.377953
31
0
0
LINE
8
1
10
1312.992126
20
-476.377953
30
0
11
1317.716535
21
-476.377953
31
0
0
LINE
8
1
10
1312.992126
20
-476.377953
30
0
11
1312.992126
21
-532.677165
31
0
0
LINE
8
1
10
1317.716535
20
-476.377953
30
0
11
1317.716535
21
-532.677165
31
0
0
LINE
8
1
10
1312.992126
20
-532.677165
30
0
11
1317.716535
21
-532.677165
31
0
0
LINE
8
1
10
2182.283465
20
-421.653543
30
0
11
2206.692913
21
-421.653543
31
0
0
LINE
8
1
10
2182.283465
20
-421.653543
30
0
11
2182.283465
21
-465.748031
31
0
0
LINE
8
1
10
2206.692913
20
-421.653543
30
0
11
2206.692913
21
-465.748031
31
0
0
LINE
8
1
10
2182.283465
20
-465.748031
30
0
11
2206.692913
21
-465.748031
31
0
0
LINE
8
1
10
1151.574803
20
-476.377953
30
0
11
1156.299213
21
-476.377953
31
0
0
LINE
8
1
10
1151.574803
20
-476.377953
30
0
11
1151.574803
21
-532.677165
31
0
0
LINE
8
1
10
1156.299213
20
-476.377953
30
0
11
1156.299213
21
-532.677165
31
0
0
LINE
8
1
10
1151.574803
20
-532.677165
30
0
11
1156.299213
21
-532.677165
31
0
0
LINE
8
1
10
77.165354
20
-835.433071
30
0
11
2392.125984
21
-835.433071
31
0
0
LINE
8
1
10
77.165354
20
-835.433071
30
0
11
77.165354
21
-840.157480
31
0
0
LINE
8
1
10
2392.125984
20
-835.433071
30
0
11
2392.125984
21
-840.157480
31
0
0
LINE
8
1
10
77.165354
20
-840.157480
30
0
11
2392.125984
21
-840.157480
31
0
0
LINE
8
1
10
77.165354
20
-476.377953
30
0
11
2392.125984
21
-476.377953
31
0
0
LINE
8
1
10
77.165354
20
-476.377953
30
0
11
77.165354
21
-481.102362
31
0
0
LINE
8
1
10
2392.125984
20
-476.377953
30
0
11
2392.125984
21
-481.102362
31
0
0
LINE
8
1
10
77.165354
20
-481.102362
30
0
11
2392.125984
21
-481.102362
31
0
0
LINE
8
1
10
1312.992126
20
-527.952756
30
0
11
2340.944882
21
-527.952756
31
0
0
LINE
8
1
10
1312.992126
20
-527.952756
30
0
11
1312.992126
21
-532.677165
31
0
0
LINE
8
1
10
2340.944882
20
-527.952756
30
0
11
2340.944882
21
-532.677165
31
0
0
LINE
8
1
10
1312.992126
20
-532.677165
30
0
11
2340.944882
21
-532.677165
31
0
0
LINE
8
1
10
2336.220472
20
-527.952756
30
0
11
2340.944882
21
-527.952756
31
0
0
LINE
8
1
10
2336.220472
20
-527.952756
30
0
11
2336.220472
21
-788.582677
31
0
0
LINE
8
1
10
2340.944882
20
-527.952756
30
0
11
2340.944882
21
-788.582677
31
0
0
LINE
8
1
10
2336.220472
20
-788.582677
30
0
11
2340.944882
21
-788.582677
31
0
0
LINE
8
1
10
77.165354
20
-476.377953
30
0
11
81.889764
21
-476.377953
31
0
0
LINE
8
1
10
77.165354
20
-476.377953
30
0
11
77.165354
21
-840.157480
31
0
0
LINE
8
1
10
81.889764
20
-476.377953
30
0
11
81.889764
21
-840.157480
31
0
0
LINE
8
1
10
77.165354
20
-840.157480
30
0
11
81.889764
21
-840.157480
31
0
0
LINE
8
1
10
1151.574803
20
-527.952756
30
0
11
1156.299213
21
-527.952756
31
0
0
LINE
8
1
10
1151.574803
20
-527.952756
30
0
11
1151.574803
21
-532.677165
31
0
0
LINE
8
1
10
1156.299213
20
-527.952756
30
0
11
1156.299213
21
-532.677165
31
0
0
LINE
8
1
10
1151.574803
20
-532.677165
30
0
11
1156.299213
21
-532.677165
31
0
0
LINE
8
1
10
128.346457
20
-783.858268
30
0
11
2340.944882
21
-783.858268
31
0
0
LINE
8
1
10
128.346457
20
-783.858268
30
0
11
128.346457
21
-788.582677
31
0
0
LINE
8
1
10
2340.944882
20
-783.858268
30
0
11
2340.944882
21
-788.582677
31
0
0
LINE
8
1
10
128.346457
20
-788.582677
30
0
11
2340.944882
21
-788.582677
31
0
0
LINE
8
1
10
2162.598425
20
-421.653543
30
0
11
2187.007874
21
-421.653543
31
0
0
LINE
8
1
10
2162.598425
20
-421.653543
30
0
11
2162.598425
21
-465.748031
31
0
0
LINE
8
1
10
2187.007874
20
-421.653543
30
0
11
2187.007874
21
-465.748031
31
0
0
LINE
8
1
10
2162.598425
20
-465.748031
30
0
11
2187.007874
21
-465.748031
31
0
0
LINE
8
1
10
2387.401575
20
-476.377953
30
0
11
2392.125984
21
-476.377953
31
0
0
LINE
8
1
10
2387.401575
20
-476.377953
30
0
11
2387.401575
21
-840.157480
31
0
0
LINE
8
1
10
2392.125984
20
-476.377953
30
0
11
2392.125984
21
-840.157480
31
0
0
LINE
8
1
10
2387.401575
20
-840.157480
30
0
11
2392.125984
21
-840.157480
31
0
0
LINE
8
1
10
128.346457
20
-527.952756
30
0
11
1156.299213
21
-527.952756
31
0
0
LINE
8
1
10
128.346457
20
-527.952756
30
0
11
128.346457
21
-532.677165
31
0
0
LINE
8
1
10
1156.299213
20
-527.952756
30
0
11
1156.299213
21
-532.677165
31
0
0
LINE
8
1
10
128.346457
20
-532.677165
30
0
11
1156.299213
21
-532.677165
31
0
0
LINE
8
1
10
128.346457
20
-527.952756
30
0
11
133.070866
21
-527.952756
31
0
0
LINE
8
1
10
128.346457
20
-527.952756
30
0
11
128.346457
21
-788.582677
31
0
0
LINE
8
1
10
133.070866
20
-527.952756
30
0
11
133.070866
21
-788.582677
31
0
0
LINE
8
1
10
128.346457
20
-788.582677
30
0
11
133.070866
21
-788.582677
31
0
0
LINE
8
1
10
2330.383583
20
-1192.412835
30
0
11
2511.348701
21
-1192.412835
31
0
0
LINE
8
1
10
2330.383583
20
-1192.412835
30
0
11
2330.383583
21
-1355.092244
31
0
0
LINE
8
1
10
2511.348701
20
-1192.412835
30
0
11
2511.348701
21
-1355.092244
31
0
0
LINE
8
1
10
2330.383583
20
-1355.092244
30
0
11
2511.348701
21
-1355.092244
31
0
0
LINE
8
1
10
2533.244488
20
-1377.677402
30
0
11
2549.634409
21
-1377.677402
31
0
0
LINE
8
1
10
2533.244488
20
-1377.677402
30
0
11
2533.244488
21
-1401.809646
31
0
0
LINE
8
1
10
2549.634409
20
-1377.677402
30
0
11
2549.634409
21
-1401.809646
31
0
0
LINE
8
1
10
2533.244488
20
-1401.809646
30
0
11
2549.634409
21
-1401.809646
31
0
0
LINE
8
1
10
2513.812165
20
-1377.601417
30
0
11
2530.205866
21
-1377.601417
31
0
0
LINE
8
1
10
2513.812165
20
-1377.601417
30
0
11
2513.812165
21
-1401.949370
31
0
0
LINE
8
1
10
2530.205866
20
-1377.601417
30
0
11
2530.205866
21
-1401.949370
31
0
0
LINE
8
1
10
2513.812165
20
-1401.949370
30
0
11
2530.205866
21
-1401.949370
31
0
0
LINE
8
1
10
2494.333583
20
-1377.555669
30
0
11
2510.777283
21
-1377.555669
31
0
0
LINE
8
1
10
2494.333583
20
-1377.555669
30
0
11
2494.333583
21
-1401.949370
31
0
0
LINE
8
1
10
2510.777283
20
-1377.555669
30
0
11
2510.777283
21
-1401.949370
31
0
0
LINE
8
1
10
2494.333583
20
-1401.949370
30
0
11
2510.777283
21
-1401.949370
31
0
0
LINE
8
1
10
2470.955000
20
-1377.555669
30
0
11
2491.348701
21
-1377.555669
31
0
0
LINE
8
1
10
2470.955000
20
-1377.555669
30
0
11
2470.955000
21
-1401.839961
31
0
0
LINE
8
1
10
2491.348701
20
-1377.555669
30
0
11
2491.348701
21
-1401.839961
31
0
0
LINE
8
1
10
2470.955000
20
-1401.839961
30
0
11
2491.348701
21
-1401.839961
31
0
0
LINE
8
1
10
2450.956772
20
-1369.039409
30
0
11
2467.920118
21
-1369.039409
31
0
0
LINE
8
1
10
2450.956772
20
-1369.039409
30
0
11
2450.956772
21
-1401.932677
31
0
0
LINE
8
1
10
2467.920118
20
-1369.039409
30
0
11
2467.920118
21
-1401.932677
31
0
0
LINE
8
1
10
2450.956772
20
-1401.932677
30
0
11
2467.920118
21
-1401.932677
31
0
0
LINE
8
1
10
2431.559055
20
-1377.615866
30
0
11
2448.344055
21
-1377.615866
31
0
0
LINE
8
1
10
2431.559055
20
-1377.615866
30
0
11
2431.559055
21
-1401.949370
31
0
0
LINE
8
1
10
2448.344055
20
-1377.615866
30
0
11
2448.344055
21
-1401.949370
31
0
0
LINE
8
1
10
2431.559055
20
-1401.949370
30
0
11
2448.344055
21
-1401.949370
31
0
0
LINE
8
1
10
2412.097874
20
-1377.653543
30
0
11
2429.168346
21
-1377.653543
31
0
0
LINE
8
1
10
2412.097874
20
-1377.653543
30
0
11
2412.097874
21
-1401.949370
31
0
0
LINE
8
1
10
2429.168346
20
-1377.653543
30
0
11
2429.168346
21
-1401.949370
31
0
0
LINE
8
1
10
2412.097874
20
-1401.949370
30
0
11
2429.168346
21
-1401.949370
31
0
0
LINE
8
1
10
2392.097874
20
-1369.076654
30
0
11
2409.062992
21
-1369.076654
31
0
0
LINE
8
1
10
2392.097874
20
-1369.076654
30
0
11
2392.097874
21
-1401.949370
31
0
0
LINE
8
1
10
2409.062992
20
-1369.076654
30
0
11
2409.062992
21
-1401.949370
31
0
0
LINE
8
1
10
2392.097874
20
-1401.949370
30
0
11
2409.062992
21
-1401.949370
31
0
0
LINE
8
1
10
2335.539409
20
-1376.251850
30
0
11
2354.237402
21
-1376.251850
31
0
0
LINE
8
1
10
2335.539409
20
-1376.251850
30
0
11
2335.539409
21
-1401.957126
31
0
0
LINE
8
1
10
2354.237402
20
-1376.251850
30
0
11
2354.237402
21
-1401.957126
31
0
0
LINE
8
1
10
2335.539409
20
-1401.957126
30
0
11
2354.237402
21
-1401.957126
31
0
0
LINE
8
1
10
2292.097874
20
-1376.167913
30
0
11
2310.781102
21
-1376.167913
31
0
0
LINE
8
1
10
2292.097874
20
-1376.167913
30
0
11
2292.097874
21
-1401.969291
31
0
0
LINE
8
1
10
2310.781102
20
-1376.167913
30
0
11
2310.781102
21
-1401.969291
31
0
0
LINE
8
1
10
2292.097874
20
-1401.969291
30
0
11
2310.781102
21
-1401.969291
31
0
0
LINE
8
1
10
2357.740000
20
-1376.188622
30
0
11
2375.920118
21
-1376.188622
31
0
0
LINE
8
1
10
2357.740000
20
-1376.188622
30
0
11
2357.740000
21
-1402.519961
31
0
0
LINE
8
1
10
2375.920118
20
-1376.188622
30
0
11
2375.920118
21
-1402.519961
31
0
0
LINE
8
1
10
2357.740000
20
-1402.519961
30
0
11
2375.920118
21
-1402.519961
31
0
0
LINE
8
1
10
2313.850984
20
-1376.226969
30
0
11
2332.491575
21
-1376.226969
31
0
0
LINE
8
1
10
2313.850984
20
-1376.226969
30
0
11
2313.850984
21
-1410.479173
31
0
0
LINE
8
1
10
2332.491575
20
-1376.226969
30
0
11
2332.491575
21
-1410.479173
31
0
0
LINE
8
1
10
2313.850984
20
-1410.479173
30
0
11
2332.491575
21
-1410.479173
31
0
0
LINE
8
1
10
1291.223976
20
-1351.056850
30
0
11
1322.770039
21
-1351.056850
31
0
0
LINE
8
1
10
1291.223976
20
-1351.056850
30
0
11
1291.223976
21
-1380.138031
31
0
0
LINE
8
1
10
1322.770039
20
-1351.056850
30
0
11
1322.770039
21
-1380.138031
31
0
0
LINE
8
1
10
1291.223976
20
-1380.138031
30
0
11
1322.770039
21
-1380.138031
31
0
0
LINE
8
1
10
1331.513425
20
-1350.947520
30
0
11
1363.081693
21
-1350.947520
31
0
0
LINE
8
1
10
1331.513425
20
-1350.947520
30
0
11
1331.513425
21
-1380.122520
31
0
0
LINE
8
1
10
1363.081693
20
-1350.947520
30
0
11
1363.081693
21
-1380.122520
31
0
0
LINE
8
1
10
1331.513425
20
-1380.122520
30
0
11
1363.081693
21
-1380.122520
31
0
0
LINE
8
1
10
1371.890630
20
-1350.947520
30
0
11
1378.062126
21
-1350.947520
31
0
0
LINE
8
1
10
1371.890630
20
-1350.947520
30
0
11
1371.890630
21
-1380.101378
31
0
0
LINE
8
1
10
1378.062126
20
-1350.947520
30
0
11
1378.062126
21
-1380.101378
31
0
0
LINE
8
1
10
1371.890630
20
-1380.101378
30
0
11
1378.062126
21
-1380.101378
31
0
0
LINE
8
1
10
1388.813465
20
-1351.004094
30
0
11
1432.864921
21
-1351.004094
31
0
0
LINE
8
1
10
1388.813465
20
-1351.004094
30
0
11
1388.813465
21
-1380.200866
31
0
0
LINE
8
1
10
1432.864921
20
-1351.004094
30
0
11
1432.864921
21
-1380.200866
31
0
0
LINE
8
1
10
1388.813465
20
-1380.200866
30
0
11
1432.864921
21
-1380.200866
31
0
0
LINE
8
1
10
1475.267598
20
-1350.955512
30
0
11
1507.173228
21
-1350.955512
31
0
0
LINE
8
1
10
1475.267598
20
-1350.955512
30
0
11
1475.267598
21
-1380.230118
31
0
0
LINE
8
1
10
1507.173228
20
-1350.955512
30
0
11
1507.173228
21
-1380.230118
31
0
0
LINE
8
1
10
1475.267598
20
-1380.230118
30
0
11
1507.173228
21
-1380.230118
31
0
0
LINE
8
1
10
1520.112874
20
-1350.947520
30
0
11
1547.173228
21
-1350.947520
31
0
0
LINE
8
1
10
1520.112874
20
-1350.947520
30
0
11
1520.112874
21
-1380.230118
31
0
0
LINE
8
1
10
1547.173228
20
-1350.947520
30
0
11
1547.173228
21
-1380.230118
31
0
0
LINE
8
1
10
1520.112874
20
-1380.230118
30
0
11
1547.173228
21
-1380.230118
31
0
0
LINE
8
1
10
1561.927874
20
-1350.879646
30
0
11
1593.839921
21
-1350.879646
31
0
0
LINE
8
1
10
1561.927874
20
-1350.879646
30
0
11
1561.927874
21
-1380.222008
31
0
0
LINE
8
1
10
1593.839921
20
-1350.879646
30
0
11
1593.839921
21
-1380.222008
31
0
0
LINE
8
1
10
1561.927874
20
-1380.222008
30
0
11
1593.839921
21
-1380.222008
31
0
0
LINE
8
1
10
1606.779528
20
-1350.991811
30
0
11
1640.506220
21
-1350.991811
31
0
0
LINE
8
1
10
1606.779528
20
-1350.991811
30
0
11
1606.779528
21
-1380.144606
31
0
0
LINE
8
1
10
1640.506220
20
-1350.991811
30
0
11
1640.506220
21
-1380.144606
31
0
0
LINE
8
1
10
1606.779528
20
-1380.144606
30
0
11
1640.506220
21
-1380.144606
31
0
0
LINE
8
1
10
1653.001772
20
-1351.087520
30
0
11
1659.173228
21
-1351.087520
31
0
0
LINE
8
1
10
1653.001772
20
-1351.087520
30
0
11
1653.001772
21
-1380.116024
31
0
0
LINE
8
1
10
1659.173228
20
-1351.087520
30
0
11
1659.173228
21
-1380.116024
31
0
0
LINE
8
1
10
1653.001772
20
-1380.116024
30
0
11
1659.173228
21
-1380.116024
31
0
0
LINE
8
1
10
1672.112874
20
-1350.919961
30
0
11
1703.617677
21
-1350.919961
31
0
0
LINE
8
1
10
1672.112874
20
-1350.919961
30
0
11
1672.112874
21
-1380.166063
31
0
0
LINE
8
1
10
1703.617677
20
-1350.919961
30
0
11
1703.617677
21
-1380.166063
31
0
0
LINE
8
1
10
1672.112874
20
-1380.166063
30
0
11
1703.617677
21
-1380.166063
31
0
0
LINE
8
1
10
1714.335079
20
-1350.947520
30
0
11
1741.839921
21
-1350.947520
31
0
0
LINE
8
1
10
1714.335079
20
-1350.947520
30
0
11
1714.335079
21
-1380.230118
31
0
0
LINE
8
1
10
1741.839921
20
-1350.947520
30
0
11
1741.839921
21
-1380.230118
31
0
0
LINE
8
1
10
1714.335079
20
-1380.230118
30
0
11
1741.839921
21
-1380.230118
31
0
0
LINE
8
1
10
1754.779528
20
-1350.931220
30
0
11
1786.294094
21
-1350.931220
31
0
0
LINE
8
1
10
1754.779528
20
-1350.931220
30
0
11
1754.779528
21
-1380.230118
31
0
0
LINE
8
1
10
1786.294094
20
-1350.931220
30
0
11
1786.294094
21
-1380.230118
31
0
0
LINE
8
1
10
1754.779528
20
-1380.230118
30
0
11
1786.294094
21
-1380.230118
31
0
0
LINE
8
1
10
1612.688425
20
-1144.392756
30
0
11
1649.604252
21
-1144.392756
31
0
0
LINE
8
1
10
1612.688425
20
-1144.392756
30
0
11
1612.688425
21
-1181.492874
31
0
0
LINE
8
1
10
1649.604252
20
-1144.392756
30
0
11
1649.604252
21
-1181.492874
31
0
0
LINE
8
1
10
1612.688425
20
-1181.492874
30
0
11
1649.604252
21
-1181.492874
31
0
0
LINE
8
1
10
1291.216378
20
-1174.503071
30
0
11
1389.015512
21
-1174.503071
31
0
0
LINE
8
1
10
1291.216378
20
-1174.503071
30
0
11
1291.216378
21
-1320.062323
31
0
0
LINE
8
1
10
1389.015512
20
-1174.503071
30
0
11
1389.015512
21
-1320.062323
31
0
0
LINE
8
1
10
1291.216378
20
-1320.062323
30
0
11
1389.015512
21
-1320.062323
31
0
0
LINE
8
1
10
1396.557323
20
-1216.727913
30
0
11
1489.084843
21
-1216.727913
31
0
0
LINE
8
1
10
1396.557323
20
-1216.727913
30
0
11
1396.557323
21
-1320.064803
31
0
0
LINE
8
1
10
1489.084843
20
-1216.727913
30
0
11
1489.084843
21
-1320.064803
31
0
0
LINE
8
1
10
1396.557323
20
-1320.064803
30
0
11
1489.084843
21
-1320.064803
31
0
0
LINE
8
1
10
1488.922244
20
-1180.766378
30
0
11
1591.046614
21
-1180.766378
31
0
0
LINE
8
1
10
1488.922244
20
-1180.766378
30
0
11
1488.922244
21
-1320.175906
31
0
0
LINE
8
1
10
1591.046614
20
-1180.766378
30
0
11
1591.046614
21
-1320.175906
31
0
0
LINE
8
1
10
1488.922244
20
-1320.175906
30
0
11
1591.046614
21
-1320.175906
31
0
0
LINE
8
1
10
1600.112874
20
-1158.947520
30
0
11
1786.287717
21
-1158.947520
31
0
0
LINE
8
1
10
1600.112874
20
-1158.947520
30
0
11
1600.112874
21
-1338.446772
31
0
0
LINE
8
1
10
1786.287717
20
-1158.947520
30
0
11
1786.287717
21
-1338.446772
31
0
0
LINE
8
1
10
1600.112874
20
-1338.446772
30
0
11
1786.287717
21
-1338.446772
31
0
0
LINE
8
1
10
1069.291339
20
-1144.094488
30
0
11
1074.015748
21
-1144.094488
31
0
0
LINE
8
1
10
1069.291339
20
-1144.094488
30
0
11
1069.291339
21
-1253.543307
31
0
0
LINE
8
1
10
1074.015748
20
-1144.094488
30
0
11
1074.015748
21
-1253.543307
31
0
0
LINE
8
1
10
1069.291339
20
-1253.543307
30
0
11
1074.015748
21
-1253.543307
31
0
0
LINE
8
1
10
766.929134
20
-1144.094488
30
0
11
1074.015748
21
-1144.094488
31
0
0
LINE
8
1
10
766.929134
20
-1144.094488
30
0
11
766.929134
21
-1148.818898
31
0
0
LINE
8
1
10
1074.015748
20
-1144.094488
30
0
11
1074.015748
21
-1148.818898
31
0
0
LINE
8
1
10
766.929134
20
-1148.818898
30
0
11
1074.015748
21
-1148.818898
31
0
0
LINE
8
1
10
766.929134
20
-1144.094488
30
0
11
771.653543
21
-1144.094488
31
0
0
LINE
8
1
10
766.929134
20
-1144.094488
30
0
11
766.929134
21
-1253.543307
31
0
0
LINE
8
1
10
771.653543
20
-1144.094488
30
0
11
771.653543
21
-1253.543307
31
0
0
LINE
8
1
10
766.929134
20
-1253.543307
30
0
11
771.653543
21
-1253.543307
31
0
0
LINE
8
1
10
766.929134
20
-1248.818898
30
0
11
1074.015748
21
-1248.818898
31
0
0
LINE
8
1
10
766.929134
20
-1248.818898
30
0
11
766.929134
21
-1253.543307
31
0
0
LINE
8
1
10
1074.015748
20
-1248.818898
30
0
11
1074.015748
21
-1253.543307
31
0
0
LINE
8
1
10
766.929134
20
-1253.543307
30
0
11
1074.015748
21
-1253.543307
31
0
0
LINE
8
1
10
1119.291339
20
-1248.818898
30
0
11
1176.377953
21
-1248.818898
31
0
0
LINE
8
1
10
1119.291339
20
-1248.818898
30
0
11
1119.291339
21
-1253.543307
31
0
0
LINE
8
1
10
1176.377953
20
-1248.818898
30
0
11
1176.377953
21
-1253.543307
31
0
0
LINE
8
1
10
1119.291339
20
-1253.543307
30
0
11
1176.377953
21
-1253.543307
31
0
0
LINE
8
1
10
1171.653543
20
-1196.456693
30
0
11
1176.377953
21
-1196.456693
31
0
0
LINE
8
1
10
1171.653543
20
-1196.456693
30
0
11
1171.653543
21
-1253.543307
31
0
0
LINE
8
1
10
1176.377953
20
-1196.456693
30
0
11
1176.377953
21
-1253.543307
31
0
0
LINE
8
1
10
1171.653543
20
-1253.543307
30
0
11
1176.377953
21
-1253.543307
31
0
0
CIRCLE
8
0
10
2422.440945
20
-998.425197
30
0
40
59.055118
0
CIRCLE
8
0
10
138.976378
20
-998.425197
30
0
40
59.055118
0
LINE
8
1
10
276.377953
20
-1046.456693
30
0
11
281.102362
21
-1046.456693
31
0
0
LINE
8
1
10
276.377953
20
-1046.456693
30
0
11
276.377953
21
-1103.543307
31
0
0
LINE
8
1
10
281.102362
20
-1046.456693
30
0
11
281.102362
21
-1103.543307
31
0
0
LINE
8
1
10
276.377953
20
-1103.543307
30
0
11
281.102362
21
-1103.543307
31
0
0
LINE
8
1
10
276.377953
20
-1098.818898
30
0
11
333.464567
21
-1098.818898
31
0
0
LINE
8
1
10
276.377953
20
-1098.818898
30
0
11
276.377953
21
-1103.543307
31
0
0
LINE
8
1
10
333.464567
20
-1098.818898
30
0
11
333.464567
21
-1103.543307
31
0
0
LINE
8
1
10
276.377953
20
-1103.543307
30
0
11
333.464567
21
-1103.543307
31
0
0
LINE
8
1
10
276.377953
20
-996.456693
30
0
11
383.464567
21
-996.456693
31
0
0
LINE
8
1
10
276.377953
20
-996.456693
30
0
11
276.377953
21
-1001.181102
31
0
0
LINE
8
1
10
383.464567
20
-996.456693
30
0
11
383.464567
21
-1001.181102
31
0
0
LINE
8
1
10
276.377953
20
-1001.181102
30
0
11
383.464567
21
-1001.181102
31
0
0
LINE
8
1
10
378.740157
20
-996.456693
30
0
11
383.464567
21
-996.456693
31
0
0
LINE
8
1
10
378.740157
20
-996.456693
30
0
11
378.740157
21
-1103.543307
31
0
0
LINE
8
1
10
383.464567
20
-996.456693
30
0
11
383.464567
21
-1103.543307
31
0
0
LINE
8
1
10
378.740157
20
-1103.543307
30
0
11
383.464567
21
-1103.543307
31
0
0
LINE
8
1
10
378.740157
20
-1098.818898
30
0
11
2285.826772
21
-1098.818898
31
0
0
LINE
8
1
10
378.740157
20
-1098.818898
30
0
11
378.740157
21
-1103.543307
31
0
0
LINE
8
1
10
2285.826772
20
-1098.818898
30
0
11
2285.826772
21
-1103.543307
31
0
0
LINE
8
1
10
378.740157
20
-1103.543307
30
0
11
2285.826772
21
-1103.543307
31
0
0
LINE
8
1
10
2281.102362
20
-894.094488
30
0
11
2285.826772
21
-894.094488
31
0
0
LINE
8
1
10
2281.102362
20
-894.094488
30
0
11
2281.102362
21
-1103.543307
31
0
0
LINE
8
1
10
2285.826772
20
-894.094488
30
0
11
2285.826772
21
-1103.543307
31
0
0
LINE
8
1
10
2281.102362
20
-1103.543307
30
0
11
2285.826772
21
-1103.543307
31
0
0
LINE
8
1
10
276.377953
20
-894.094488
30
0
11
2285.826772
21
-894.094488
31
0
0
LINE
8
1
10
276.377953
20
-894.094488
30
0
11
276.377953
21
-898.818898
31
0
0
LINE
8
1
10
2285.826772
20
-894.094488
30
0
11
2285.826772
21
-898.818898
31
0
0
LINE
8
1
10
276.377953
20
-898.818898
30
0
11
2285.826772
21
-898.818898
31
0
0
LINE
8
1
10
276.377953
20
-894.094488
30
0
11
281.102362
21
-894.094488
31
0
0
LINE
8
1
10
276.377953
20
-894.094488
30
0
11
276.377953
21
-1001.181102
31
0
0
LINE
8
1
10
281.102362
20
-894.094488
30
0
11
281.102362
21
-1001.181102
31
0
0
LINE
8
1
10
276.377953
20
-1001.181102
30
0
11
281.102362
21
-1001.181102
31
0
0
ENDSEC
0
EOF
