M48
; DRILL file {KiCad (6.0.7)} date Wed Aug 24 09:29:56 2022
; FORMAT={-:-/ absolute / inch / decimal}
; #@! TF.CreationDate,2022-08-24T09:29:56-04:00
; #@! TF.GenerationSoftware,Kicad,Pcbnew,(6.0.7)
; #@! TF.FileFunction,Plated,1,2,PTH
FMAT,2
INCH
; #@! TA.AperFunction,Plated,PTH,ViaDrill
T1C0.0157
; #@! TA.AperFunction,Plated,PTH,ComponentDrill
T2C0.0394
; #@! TA.AperFunction,Plated,PTH,ComponentDrill
T3C0.0402
; #@! TA.AperFunction,Plated,PTH,ComponentDrill
T4C0.0433
; #@! TA.AperFunction,Plated,PTH,ComponentDrill
T5C0.0472
; #@! TA.AperFunction,Plated,PTH,ComponentDrill
T6C0.1250
%
G90
G05
T1
X3.8077Y-2.8793
X3.8313Y-3.273
X3.9494Y-3.3872
X3.9613Y-2.8754
X4.0Y-3.89
X4.0Y-4.05
X4.0Y-4.2
X4.0164Y-3.5958
X4.05Y-3.83
X4.1345Y-3.5407
X4.1345Y-3.8242
X4.1463Y-3.2494
X4.15Y-4.64
X4.1626Y-4.1174
X4.1896Y-2.8635
X4.2Y-3.78
X4.23Y-3.98
X4.2959Y-3.0761
X4.2959Y-3.3714
X4.3668Y-2.9817
X4.38Y-3.54
X4.38Y-3.65
X4.44Y-3.79
X4.6502Y-2.9777
X4.6502Y-3.1549
X4.91Y-3.64
X4.91Y-3.79
X4.91Y-4.98
X4.94Y-4.35
X5.03Y-2.83
X5.2369Y-2.9738
X5.2369Y-3.1234
X5.28Y-4.97
X5.33Y-3.78
X5.6Y-3.41
X5.73Y-3.79
X5.84Y-4.59
X5.91Y-4.11
X5.9494Y-2.8242
X5.9894Y-3.0421
X5.9894Y-3.0921
X5.9894Y-3.1421
X6.03Y-3.79
X6.14Y-4.59
X6.1494Y-3.0421
X6.1494Y-3.0921
X6.1494Y-3.1421
X6.2054Y-2.8242
X6.31Y-3.41
X6.32Y-3.12
X6.32Y-3.79
X6.32Y-4.12
X6.32Y-4.97
X6.54Y-4.58
X6.66Y-3.19
X6.67Y-4.12
X6.68Y-3.79
X6.83Y-2.83
X6.96Y-3.19
X7.03Y-3.41
X7.05Y-2.95
X7.21Y-3.77
X7.33Y-3.49
X7.37Y-4.62
X7.48Y-3.33
X7.5754Y-4.6116
X7.6345Y-3.2139
X7.66Y-3.86
X7.69Y-3.62
X7.7802Y-4.8399
X7.7841Y-3.5919
X7.7841Y-3.7887
X7.86Y-2.95
X7.8825Y-4.6628
X7.91Y-3.5
X7.9219Y-3.7809
X7.94Y-3.33
X7.9777Y-3.38
X8.0Y-4.83
X8.03Y-3.5
X8.05Y-2.83
X8.05Y-2.95
X8.0565Y-3.42
X8.0912Y-3.7809
X8.15Y-3.5
X8.1849Y-3.2449
X8.19Y-3.38
X8.25Y-3.3
X8.33Y-4.82
X8.34Y-2.95
X8.46Y-3.5
X8.5Y-4.06
X8.51Y-3.23
X8.55Y-3.7
X8.57Y-2.89
X8.59Y-4.54
X8.72Y-3.4
X8.74Y-2.9
X8.78Y-3.29
X8.87Y-3.5
X8.87Y-3.7
X8.89Y-2.91
X9.02Y-4.54
X9.13Y-5.04
X9.19Y-3.29
X9.2Y-3.4
X9.23Y-3.5
X9.23Y-3.7
X9.38Y-4.56
X9.45Y-2.89
X9.59Y-3.7
X9.61Y-3.4
X9.61Y-3.5
X9.68Y-2.88
X9.71Y-5.05
X9.75Y-4.56
T2
X3.9613Y-3.0407
X3.9613Y-3.1407
X3.9613Y-3.2407
X7.7504Y-3.86
X7.8488Y-3.86
X7.9512Y-3.86
X8.0496Y-3.86
X9.696Y-3.2485
X9.696Y-3.3485
X9.696Y-3.4485
X9.696Y-3.5485
X9.696Y-3.6485
T3
X4.42Y-3.36
X4.42Y-3.46
X4.42Y-3.98
X4.42Y-4.08
X4.42Y-4.6
X4.42Y-4.7
X4.52Y-3.36
X4.52Y-3.46
X4.52Y-3.98
X4.52Y-4.08
X4.52Y-4.6
X4.52Y-4.7
X4.62Y-3.36
X4.62Y-3.46
X4.62Y-3.98
X4.62Y-4.08
X4.62Y-4.6
X4.62Y-4.7
X4.72Y-3.36
X4.72Y-3.46
X4.72Y-3.98
X4.72Y-4.08
X4.72Y-4.6
X4.72Y-4.7
X4.82Y-3.36
X4.82Y-3.46
X4.82Y-3.98
X4.82Y-4.08
X4.82Y-4.6
X4.82Y-4.7
X4.92Y-3.36
X4.92Y-3.46
X4.92Y-3.98
X4.92Y-4.08
X4.92Y-4.6
X4.92Y-4.7
X5.02Y-3.36
X5.02Y-3.46
X5.02Y-3.98
X5.02Y-4.08
X5.02Y-4.6
X5.02Y-4.7
X5.12Y-3.36
X5.12Y-3.46
X5.12Y-3.98
X5.12Y-4.08
X5.12Y-4.6
X5.12Y-4.7
X5.22Y-3.36
X5.22Y-3.46
X5.22Y-3.98
X5.22Y-4.08
X5.22Y-4.6
X5.22Y-4.7
X5.32Y-3.36
X5.32Y-3.46
X5.32Y-3.98
X5.32Y-4.08
X5.32Y-4.6
X5.32Y-4.7
X5.42Y-3.36
X5.42Y-3.46
X5.42Y-3.98
X5.42Y-4.08
X5.42Y-4.6
X5.42Y-4.7
X5.52Y-3.36
X5.52Y-3.46
X5.52Y-3.98
X5.52Y-4.08
X5.52Y-4.6
X5.52Y-4.7
T4
X6.405Y-3.02
X6.405Y-3.12
X6.405Y-4.92
X6.405Y-5.02
X6.505Y-3.02
X6.505Y-3.12
X6.505Y-4.92
X6.505Y-5.02
X6.605Y-3.02
X6.605Y-3.12
X6.605Y-4.92
X6.605Y-5.02
X6.705Y-3.02
X6.705Y-3.12
X6.705Y-4.92
X6.705Y-5.02
X6.805Y-3.02
X6.805Y-3.12
X6.805Y-4.92
X6.805Y-5.02
X6.905Y-3.02
X6.905Y-3.12
X6.905Y-4.92
X6.905Y-5.02
X7.005Y-3.02
X7.005Y-3.12
X7.005Y-4.92
X7.005Y-5.02
X7.105Y-3.02
X7.105Y-3.12
X7.105Y-4.92
X7.105Y-5.02
X7.205Y-3.02
X7.205Y-3.12
X7.205Y-4.92
X7.205Y-5.02
X7.305Y-3.02
X7.305Y-3.12
X7.305Y-4.92
X7.305Y-5.02
X7.38Y-4.32
X7.38Y-4.4972
X7.405Y-3.02
X7.405Y-3.12
X7.405Y-4.92
X7.405Y-5.02
X7.505Y-3.02
X7.505Y-3.12
X7.505Y-4.92
X7.505Y-5.02
X7.605Y-3.02
X7.605Y-3.12
X7.605Y-4.92
X7.605Y-5.02
X7.6359Y-4.32
X7.6359Y-4.4972
X7.705Y-3.02
X7.705Y-3.12
X7.705Y-4.92
X7.705Y-5.02
X7.76Y-4.14
X7.76Y-4.3172
X7.76Y-4.45
X7.76Y-4.6272
X7.805Y-3.02
X7.805Y-3.12
X7.805Y-4.92
X7.805Y-5.02
X7.905Y-3.02
X7.905Y-3.12
X7.905Y-4.92
X7.905Y-5.02
X8.005Y-3.02
X8.005Y-3.12
X8.005Y-4.92
X8.005Y-5.02
X8.0159Y-4.14
X8.0159Y-4.3172
X8.0159Y-4.45
X8.0159Y-4.6272
X8.105Y-3.02
X8.105Y-3.12
X8.105Y-4.92
X8.105Y-5.02
X8.15Y-4.31
X8.15Y-4.4872
X8.205Y-3.02
X8.205Y-3.12
X8.205Y-4.92
X8.205Y-5.02
X8.305Y-3.02
X8.305Y-3.12
X8.305Y-4.92
X8.305Y-5.02
X8.405Y-3.02
X8.405Y-3.12
X8.405Y-4.92
X8.405Y-5.02
X8.4059Y-4.31
X8.4059Y-4.4872
X8.505Y-3.02
X8.505Y-3.12
X8.505Y-4.92
X8.505Y-5.02
X8.605Y-3.02
X8.605Y-3.12
X8.605Y-4.92
X8.605Y-5.02
X9.03Y-2.92
X9.03Y-3.0972
X9.2859Y-2.92
X9.2859Y-3.0972
T5
X3.6271Y-3.9916
X3.6271Y-4.1294
X3.6271Y-4.2672
X3.6279Y-3.4148
X3.6279Y-3.5526
X3.6279Y-3.6904
T6
X8.805Y-3.07
X8.805Y-4.97
T0
M30
