%TF.GenerationSoftware,KiCad,Pcbnew,(6.0.7)*%
%TF.CreationDate,2022-08-24T09:29:56-04:00*%
%TF.ProjectId,BBB_16_Flex,4242425f-3136-45f4-966c-65782e6b6963,v2*%
%TF.SameCoordinates,Original*%
%TF.FileFunction,Soldermask,Top*%
%TF.FilePolarity,Negative*%
%FSLAX46Y46*%
G04 Gerber Fmt 4.6, Leading zero omitted, Abs format (unit mm)*
G04 Created by KiCad (PCBNEW (6.0.7)) date 2022-08-24 09:29:56*
%MOMM*%
%LPD*%
G01*
G04 APERTURE LIST*
G04 Aperture macros list*
%AMRoundRect*
0 Rectangle with rounded corners*
0 $1 Rounding radius*
0 $2 $3 $4 $5 $6 $7 $8 $9 X,Y pos of 4 corners*
0 Add a 4 corners polygon primitive as box body*
4,1,4,$2,$3,$4,$5,$6,$7,$8,$9,$2,$3,0*
0 Add four circle primitives for the rounded corners*
1,1,$1+$1,$2,$3*
1,1,$1+$1,$4,$5*
1,1,$1+$1,$6,$7*
1,1,$1+$1,$8,$9*
0 Add four rect primitives between the rounded corners*
20,1,$1+$1,$2,$3,$4,$5,0*
20,1,$1+$1,$4,$5,$6,$7,0*
20,1,$1+$1,$6,$7,$8,$9,0*
20,1,$1+$1,$8,$9,$2,$3,0*%
G04 Aperture macros list end*
%ADD10RoundRect,0.301000X-0.550000X1.500000X-0.550000X-1.500000X0.550000X-1.500000X0.550000X1.500000X0*%
%ADD11RoundRect,0.300999X-0.325001X-0.450001X0.325001X-0.450001X0.325001X0.450001X-0.325001X0.450001X0*%
%ADD12C,5.000000*%
%ADD13C,1.802000*%
%ADD14RoundRect,0.051000X0.850000X0.850000X-0.850000X0.850000X-0.850000X-0.850000X0.850000X-0.850000X0*%
%ADD15O,1.802000X1.802000*%
%ADD16C,3.302000*%
%ADD17RoundRect,0.300999X-0.450001X0.325001X-0.450001X-0.325001X0.450001X-0.325001X0.450001X0.325001X0*%
%ADD18RoundRect,0.300999X0.450001X-0.325001X0.450001X0.325001X-0.450001X0.325001X-0.450001X-0.325001X0*%
%ADD19RoundRect,0.201000X0.150000X-0.825000X0.150000X0.825000X-0.150000X0.825000X-0.150000X-0.825000X0*%
%ADD20RoundRect,0.301000X1.550000X-0.650000X1.550000X0.650000X-1.550000X0.650000X-1.550000X-0.650000X0*%
%ADD21O,3.702000X1.902000*%
%ADD22RoundRect,0.201000X0.825000X0.150000X-0.825000X0.150000X-0.825000X-0.150000X0.825000X-0.150000X0*%
%ADD23RoundRect,0.300999X0.325001X0.450001X-0.325001X0.450001X-0.325001X-0.450001X0.325001X-0.450001X0*%
%ADD24RoundRect,0.051000X0.750000X-0.500000X0.750000X0.500000X-0.750000X0.500000X-0.750000X-0.500000X0*%
%ADD25C,2.102000*%
%ADD26RoundRect,0.051000X-0.765000X-0.765000X0.765000X-0.765000X0.765000X0.765000X-0.765000X0.765000X0*%
%ADD27C,1.632000*%
%ADD28RoundRect,0.051000X-0.850000X-0.850000X0.850000X-0.850000X0.850000X0.850000X-0.850000X0.850000X0*%
%ADD29RoundRect,0.051000X-0.900000X-0.900000X0.900000X-0.900000X0.900000X0.900000X-0.900000X0.900000X0*%
%ADD30C,1.902000*%
%ADD31C,4.674000*%
%ADD32C,2.302000*%
G04 APERTURE END LIST*
D10*
%TO.C,C1*%
X154164000Y-73300000D03*
X154164000Y-78700000D03*
%TD*%
D11*
%TO.C,D1*%
X146201600Y-76820000D03*
X148251600Y-76820000D03*
%TD*%
D12*
%TO.C,J5*%
X189010000Y-97544000D03*
X212310000Y-97544000D03*
D13*
X196860000Y-98044000D03*
X199360000Y-98044000D03*
X201960000Y-98044000D03*
X204460000Y-98044000D03*
%TD*%
D14*
%TO.C,J4*%
X246278400Y-92671900D03*
D15*
X246278400Y-90131900D03*
X246278400Y-87591900D03*
X246278400Y-85051900D03*
X246278400Y-82511900D03*
%TD*%
D16*
%TO.C,REF\u002A\u002A*%
X92710000Y-117348000D03*
%TD*%
%TO.C,REF\u002A\u002A*%
X242824000Y-117348000D03*
%TD*%
%TO.C,REF\u002A\u002A*%
X92710000Y-77343000D03*
%TD*%
D17*
%TO.C,R4*%
X203070000Y-82420900D03*
X203070000Y-84470900D03*
%TD*%
D18*
%TO.C,C3*%
X193646600Y-86083800D03*
X193646600Y-84033800D03*
%TD*%
D19*
%TO.C,U3*%
X195551600Y-88956200D03*
X196821600Y-88956200D03*
X198091600Y-88956200D03*
X199361600Y-88956200D03*
X199361600Y-84006200D03*
X198091600Y-84006200D03*
X196821600Y-84006200D03*
X195551600Y-84006200D03*
%TD*%
D11*
%TO.C,R1*%
X141883600Y-76820000D03*
X143933600Y-76820000D03*
%TD*%
D20*
%TO.C,J7*%
X92127280Y-108386120D03*
D21*
X92127280Y-104886120D03*
X92127280Y-101386120D03*
%TD*%
D16*
%TO.C,REF\u002A\u002A*%
X242824000Y-77343000D03*
%TD*%
D18*
%TO.C,R3*%
X98015000Y-93033200D03*
X98015000Y-90983200D03*
%TD*%
D11*
%TO.C,C4*%
X213605000Y-73406000D03*
X215655000Y-73406000D03*
%TD*%
D22*
%TO.C,U2*%
X103944400Y-102625400D03*
X103944400Y-101355400D03*
X103944400Y-100085400D03*
X103944400Y-98815400D03*
X98994400Y-98815400D03*
X98994400Y-100085400D03*
X98994400Y-101355400D03*
X98994400Y-102625400D03*
%TD*%
D23*
%TO.C,C5*%
X103916800Y-104581200D03*
X101866800Y-104581200D03*
%TD*%
D20*
%TO.C,J8*%
X92147600Y-93735400D03*
D21*
X92147600Y-90235400D03*
X92147600Y-86735400D03*
%TD*%
D18*
%TO.C,R2*%
X98015000Y-107460400D03*
X98015000Y-105410400D03*
%TD*%
D24*
%TO.C,JP1*%
X205486000Y-94361000D03*
X205486000Y-92964000D03*
X205486000Y-91567000D03*
%TD*%
%TO.C,JP2*%
X201168000Y-94361000D03*
X201168000Y-92964000D03*
X201168000Y-91567000D03*
%TD*%
D25*
%TO.C,SW1*%
X235862000Y-74168000D03*
X229362000Y-74168000D03*
X229362000Y-78668000D03*
X235862000Y-78668000D03*
%TD*%
D26*
%TO.C,J2*%
X112268000Y-103632000D03*
D27*
X112268000Y-101092000D03*
X114808000Y-103632000D03*
X114808000Y-101092000D03*
X117348000Y-103632000D03*
X117348000Y-101092000D03*
X119888000Y-103632000D03*
X119888000Y-101092000D03*
X122428000Y-103632000D03*
X122428000Y-101092000D03*
X124968000Y-103632000D03*
X124968000Y-101092000D03*
X127508000Y-103632000D03*
X127508000Y-101092000D03*
X130048000Y-103632000D03*
X130048000Y-101092000D03*
X132588000Y-103632000D03*
X132588000Y-101092000D03*
X135128000Y-103632000D03*
X135128000Y-101092000D03*
X137668000Y-103632000D03*
X137668000Y-101092000D03*
X140208000Y-103632000D03*
X140208000Y-101092000D03*
%TD*%
D28*
%TO.C,J9*%
X100616000Y-77234000D03*
D15*
X100616000Y-79774000D03*
X100616000Y-82314000D03*
%TD*%
D26*
%TO.C,J1*%
X112268000Y-87884000D03*
D27*
X112268000Y-85344000D03*
X114808000Y-87884000D03*
X114808000Y-85344000D03*
X117348000Y-87884000D03*
X117348000Y-85344000D03*
X119888000Y-87884000D03*
X119888000Y-85344000D03*
X122428000Y-87884000D03*
X122428000Y-85344000D03*
X124968000Y-87884000D03*
X124968000Y-85344000D03*
X127508000Y-87884000D03*
X127508000Y-85344000D03*
X130048000Y-87884000D03*
X130048000Y-85344000D03*
X132588000Y-87884000D03*
X132588000Y-85344000D03*
X135128000Y-87884000D03*
X135128000Y-85344000D03*
X137668000Y-87884000D03*
X137668000Y-85344000D03*
X140208000Y-87884000D03*
X140208000Y-85344000D03*
%TD*%
D26*
%TO.C,J3*%
X112268000Y-119380000D03*
D27*
X112268000Y-116840000D03*
X114808000Y-119380000D03*
X114808000Y-116840000D03*
X117348000Y-119380000D03*
X117348000Y-116840000D03*
X119888000Y-119380000D03*
X119888000Y-116840000D03*
X122428000Y-119380000D03*
X122428000Y-116840000D03*
X124968000Y-119380000D03*
X124968000Y-116840000D03*
X127508000Y-119380000D03*
X127508000Y-116840000D03*
X130048000Y-119380000D03*
X130048000Y-116840000D03*
X132588000Y-119380000D03*
X132588000Y-116840000D03*
X135128000Y-119380000D03*
X135128000Y-116840000D03*
X137668000Y-119380000D03*
X137668000Y-116840000D03*
X140208000Y-119380000D03*
X140208000Y-116840000D03*
%TD*%
D29*
%TO.C,U1*%
X218567000Y-124968000D03*
D30*
X218567000Y-127508000D03*
X216027000Y-124968000D03*
X216027000Y-127508000D03*
X213487000Y-124968000D03*
X213487000Y-127508000D03*
X210947000Y-124968000D03*
X210947000Y-127508000D03*
X208407000Y-124968000D03*
X208407000Y-127508000D03*
X205867000Y-124968000D03*
X205867000Y-127508000D03*
X203327000Y-124968000D03*
X203327000Y-127508000D03*
X200787000Y-124968000D03*
X200787000Y-127508000D03*
X198247000Y-124968000D03*
X198247000Y-127508000D03*
X195707000Y-124968000D03*
X195707000Y-127508000D03*
X193167000Y-124968000D03*
X193167000Y-127508000D03*
X190627000Y-124968000D03*
X190627000Y-127508000D03*
X188087000Y-124968000D03*
X188087000Y-127508000D03*
X185547000Y-124968000D03*
X185547000Y-127508000D03*
X183007000Y-124968000D03*
X183007000Y-127508000D03*
X180467000Y-124968000D03*
X180467000Y-127508000D03*
X177927000Y-124968000D03*
X177927000Y-127508000D03*
X175387000Y-124968000D03*
X175387000Y-127508000D03*
X172847000Y-124968000D03*
X172847000Y-127508000D03*
X170307000Y-124968000D03*
X170307000Y-127508000D03*
X167767000Y-124968000D03*
X167767000Y-127508000D03*
X165227000Y-124968000D03*
X165227000Y-127508000D03*
X162687000Y-124968000D03*
X162687000Y-127508000D03*
D29*
X218567000Y-76708000D03*
D30*
X218567000Y-79248000D03*
X216027000Y-76708000D03*
X216027000Y-79248000D03*
X213487000Y-76708000D03*
X213487000Y-79248000D03*
X210947000Y-76708000D03*
X210947000Y-79248000D03*
X208407000Y-76708000D03*
X208407000Y-79248000D03*
X205867000Y-76708000D03*
X205867000Y-79248000D03*
X203327000Y-76708000D03*
X203327000Y-79248000D03*
X200787000Y-76708000D03*
X200787000Y-79248000D03*
X198247000Y-76708000D03*
X198247000Y-79248000D03*
X195707000Y-76708000D03*
X195707000Y-79248000D03*
X193167000Y-76708000D03*
X193167000Y-79248000D03*
X190627000Y-76708000D03*
X190627000Y-79248000D03*
X188087000Y-76708000D03*
X188087000Y-79248000D03*
X185547000Y-76708000D03*
X185547000Y-79248000D03*
X183007000Y-76708000D03*
X183007000Y-79248000D03*
X180467000Y-76708000D03*
X180467000Y-79248000D03*
X177927000Y-76708000D03*
X177927000Y-79248000D03*
X175387000Y-76708000D03*
X175387000Y-79248000D03*
X172847000Y-76708000D03*
X172847000Y-79248000D03*
X170307000Y-76708000D03*
X170307000Y-79248000D03*
X167767000Y-76708000D03*
X167767000Y-79248000D03*
X165227000Y-76708000D03*
X165227000Y-79248000D03*
X162687000Y-76708000D03*
X162687000Y-79248000D03*
D31*
X223647000Y-77978000D03*
X223647000Y-126238000D03*
%TD*%
D25*
%TO.C,SW5*%
X207010000Y-109474000D03*
X213510000Y-109474000D03*
X213510000Y-113974000D03*
X207010000Y-113974000D03*
%TD*%
%TO.C,SW4*%
X193952000Y-109728000D03*
X187452000Y-109728000D03*
X187452000Y-114228000D03*
X193952000Y-114228000D03*
%TD*%
%TO.C,SW2*%
X197104000Y-105156000D03*
X203604000Y-105156000D03*
X197104000Y-109656000D03*
X203604000Y-109656000D03*
%TD*%
%TO.C,SW3*%
X197104000Y-113030000D03*
X203604000Y-113030000D03*
X203604000Y-117530000D03*
X197104000Y-117530000D03*
%TD*%
D17*
%TO.C,R5*%
X205267100Y-82420900D03*
X205267100Y-84470900D03*
%TD*%
D32*
%TO.C,S2*%
X162216000Y-117634000D03*
%TD*%
M02*
