M48
; DRILL file {KiCad (5.1.5)-3} date 12/31/2019 11:17:43 AM
; FORMAT={-:-/ absolute / inch / decimal}
; #@! TF.CreationDate,2019-12-31T11:17:43-05:00
; #@! TF.GenerationSoftware,Kicad,Pcbnew,(5.1.5)-3
; #@! TF.FileFunction,Plated,1,2,PTH
FMAT,2
INCH
T1C0.0236
T2C0.0299
T3C0.0315
T4C0.0354
T5C0.0394
T6C0.0433
T7C0.0472
T8C0.0512
T9C0.0630
T10C0.0650
T11C0.0790
%
G90
G05
T1
X3.4311Y-3.8944
X3.5315Y-3.9977
X4.252Y-4.0086
T2
X3.1835Y-3.522
X3.2335Y-3.422
X3.2835Y-3.522
X3.3335Y-3.422
X3.3835Y-3.522
X3.4335Y-3.422
X3.4835Y-3.522
X3.5335Y-3.422
T3
X4.4311Y-4.3432
X4.7311Y-4.3432
X3.0284Y-3.8019
X3.0284Y-4.1019
X3.1284Y-3.8019
X3.1284Y-4.1019
X3.2284Y-3.8019
X3.2284Y-4.1019
X3.3284Y-3.8019
X3.3284Y-4.1019
X3.4284Y-3.8019
X3.4284Y-4.1019
X3.5284Y-3.8019
X3.5284Y-4.1019
X3.6284Y-3.8019
X3.6284Y-4.1019
X3.7284Y-3.8019
X3.7284Y-4.1019
X3.1103Y-4.3983
X3.1103Y-4.4771
X3.1083Y-4.6877
X3.1083Y-4.7664
X3.8622Y-3.8609
X3.8622Y-4.0578
X4.004Y-3.807
X4.004Y-4.107
X4.104Y-3.807
X4.104Y-4.107
X4.204Y-3.807
X4.204Y-4.107
X4.304Y-3.807
X4.304Y-4.107
X4.404Y-3.807
X4.404Y-4.107
X4.504Y-3.807
X4.504Y-4.107
X4.604Y-3.807
X4.604Y-4.107
X4.004Y-3.6818
X4.2008Y-3.6818
X3.1071Y-3.67
X3.2071Y-3.67
X3.3071Y-3.67
X3.4071Y-3.67
X3.5071Y-3.67
X3.6071Y-3.67
X3.7071Y-3.67
X3.8071Y-3.67
X3.6142Y-4.284
X3.7142Y-4.284
X3.8142Y-4.284
X3.9142Y-4.284
X4.0142Y-4.284
X4.1142Y-4.284
X4.2142Y-4.284
X4.3142Y-4.284
X4.4292Y-4.5657
X4.7292Y-4.5657
T4
X4.8662Y-4.3432
X4.9662Y-4.3432
X4.8662Y-4.5657
X4.9662Y-4.5657
T5
X2.9587Y-5.0507
X2.9587Y-5.1507
X2.9587Y-5.2507
T6
X2.8642Y-4.4523
X2.8642Y-4.5523
X2.8642Y-4.6523
T7
X3.3976Y-4.5906
X3.5354Y-4.5906
X3.6732Y-4.5906
X3.9882Y-5.1024
X4.126Y-5.1024
X4.2638Y-5.1024
X3.9882Y-4.5906
X4.126Y-4.5906
X4.2638Y-4.5906
X3.3976Y-5.1024
X3.5354Y-5.1024
X3.6732Y-5.1024
T8
X4.7205Y-4.9279
X4.7205Y-5.1779
T9
X3.2244Y-5.4416
X3.2244Y-5.9416
T10
X3.5161Y-5.4464
X3.5161Y-5.5921
X3.5161Y-5.7692
X3.5161Y-5.9149
X4.1761Y-5.447
X4.1761Y-5.5927
X4.1761Y-5.7698
X4.1761Y-5.9155
X3.9561Y-5.447
X3.9561Y-5.5927
X3.9561Y-5.7698
X3.9561Y-5.9155
X3.7361Y-5.447
X3.7361Y-5.5927
X3.7361Y-5.7698
X3.7361Y-5.9155
T11
X4.5439Y-4.8963
X4.5439Y-5.2211
T0
M30
