M48
; DRILL file {KiCad (5.1.9)-1} date 03/28/21 23:40:48
; FORMAT={-:-/ absolute / inch / decimal}
; #@! TF.CreationDate,2021-03-28T23:40:48-04:00
; #@! TF.GenerationSoftware,Kicad,Pcbnew,(5.1.9)-1
; #@! TF.FileFunction,Plated,1,2,PTH
FMAT,2
INCH
T1C0.0157
T2C0.0197
T3C0.0280
T4C0.0299
T5C0.0300
T6C0.0315
T7C0.0354
T8C0.0394
T9C0.0433
T10C0.0512
%
G90
G05
T1
X4.0945Y-2.4016
X4.0945Y-2.6772
X4.0945Y-4.1339
X4.0945Y-4.5669
X4.1142Y-3.7008
X4.1732Y-3.4055
X4.2717Y-3.5827
X4.3307Y-2.4016
X4.3307Y-2.6772
X4.3701Y-3.0315
X4.4488Y-3.7992
X4.6063Y-4.1339
X4.6063Y-4.5669
X4.6457Y-2.4016
X4.6457Y-2.6772
X4.6654Y-3.7992
X4.7638Y-3.622
X4.8327Y-4.1339
X4.9016Y-3.7205
X5.0Y-3.8425
X5.0197Y-3.4449
X5.0787Y-3.622
X5.0787Y-3.7008
X5.0984Y-4.0551
X5.1476Y-4.3602
X5.1575Y-2.7756
X5.1969Y-4.5669
X5.248Y-3.9213
X5.248Y-4.0354
X5.311Y-4.252
X5.4528Y-3.9173
X5.4921Y-4.0748
X5.5197Y-2.4016
X5.5315Y-2.6181
X5.5472Y-3.9173
X5.5748Y-4.3583
X5.7323Y-3.0866
X5.7362Y-3.4331
X5.7421Y-2.4783
X5.7795Y-3.7362
X5.8346Y-3.4331
X5.8425Y-3.0866
X5.8937Y-3.2087
X5.9291Y-3.7362
X5.9449Y-3.4331
X5.9921Y-3.2047
X6.0236Y-3.0079
X6.0315Y-3.4331
X6.0394Y-4.0354
X6.0433Y-4.3307
X6.1417Y-3.1969
X6.1417Y-3.315
X6.1417Y-3.4331
X6.1909Y-3.2606
X6.2008Y-4.2913
X6.2598Y-3.4961
X6.2756Y-3.4252
X6.3504Y-4.2913
X6.3543Y-4.0354
X6.4488Y-3.7244
X6.5354Y-4.3307
X6.5433Y-3.4449
X6.6378Y-3.7244
X6.6535Y-3.3858
X6.8701Y-4.0276
X6.872Y-2.437
X7.0315Y-4.0276
X7.126Y-2.9724
X7.1654Y-3.3858
X7.1811Y-3.4921
X7.189Y-2.3917
X7.189Y-4.0472
X7.2441Y-2.7165
X7.2756Y-4.0472
X7.4409Y-3.1102
X7.4409Y-3.3858
X7.4803Y-3.5039
X7.5394Y-4.4291
X7.622Y-2.3898
X7.6575Y-3.5827
X7.6772Y-3.3465
X7.6772Y-4.3701
X7.9606Y-3.2047
X7.9724Y-2.6772
X7.9921Y-4.3504
X7.9961Y-3.4961
X7.9961Y-3.752
X7.9961Y-4.0197
T2
X4.9016Y-3.563
X5.1673Y-3.6909
X6.4055Y-3.4291
X6.9409Y-3.0236
X7.0394Y-3.0236
X7.0472Y-3.376
T3
X7.2402Y-2.4961
X7.4409Y-2.5591
T4
X4.3622Y-3.6358
X4.4122Y-3.5358
X4.4622Y-3.6358
X4.5122Y-3.5358
X4.5622Y-3.6358
X4.6122Y-3.5358
X4.6622Y-3.6358
X4.7122Y-3.5358
T5
X5.6406Y-2.8783
X5.6406Y-3.5783
X5.7406Y-2.8783
X5.7406Y-3.5783
X5.8406Y-2.8783
X5.8406Y-3.5783
X5.9406Y-2.8783
X5.9406Y-3.5783
X6.0406Y-2.8783
X6.0406Y-3.5783
X6.1406Y-2.8783
X6.1406Y-3.5783
X6.2406Y-2.8783
X6.2406Y-3.5783
X6.3406Y-2.8783
X6.3406Y-3.5783
X6.4406Y-2.8783
X6.4406Y-3.5783
X6.5406Y-2.8783
X6.5406Y-3.5783
X6.6406Y-2.8783
X6.6406Y-3.5783
X6.7406Y-2.8783
X6.7406Y-3.5783
X6.8406Y-2.8783
X6.8406Y-3.5783
X6.9406Y-2.8783
X6.9406Y-3.5783
X7.0406Y-2.8783
X7.0406Y-3.5783
X7.1406Y-2.8783
X7.1406Y-3.5783
X7.2406Y-2.8783
X7.2406Y-3.5783
X7.3406Y-2.8783
X7.3406Y-3.5783
X7.4406Y-2.8783
X7.4406Y-3.5783
X7.5406Y-2.8783
X7.5406Y-3.5783
T6
X4.1713Y-2.8543
X4.1713Y-3.0512
X4.2972Y-2.8614
X4.2972Y-3.1614
X4.3012Y-3.3425
X4.3972Y-2.8614
X4.3972Y-3.1614
X4.4012Y-3.3425
X4.4972Y-2.8614
X4.4972Y-3.1614
X4.5012Y-3.3425
X4.5972Y-2.8614
X4.5972Y-3.1614
X4.6012Y-3.3425
X4.6972Y-2.8614
X4.6972Y-3.1614
X4.7012Y-3.3425
X4.7972Y-2.8614
X4.7972Y-3.1614
X4.8012Y-3.3425
X4.8972Y-2.8614
X4.8972Y-3.1614
X4.9012Y-3.3425
X4.9803Y-3.9764
X4.9803Y-4.1732
X4.9972Y-2.8614
X4.9972Y-3.1614
X5.0012Y-3.3425
X5.0984Y-3.8535
X5.0984Y-4.1535
X5.1693Y-3.5984
X5.1724Y-2.8606
X5.1724Y-2.9606
X5.1724Y-3.0606
X5.1724Y-3.1606
X5.1724Y-3.2606
X5.1724Y-3.3606
X5.1724Y-3.4606
X5.1984Y-3.8535
X5.1984Y-4.1535
X5.2984Y-3.8535
X5.2984Y-4.1535
X5.3661Y-3.5984
X5.3984Y-3.8535
X5.3984Y-4.1535
X5.4724Y-2.8606
X5.4724Y-2.9606
X5.4724Y-3.0606
X5.4724Y-3.1606
X5.4724Y-3.2606
X5.4724Y-3.3606
X5.4724Y-3.4606
X5.4984Y-3.8535
X5.4984Y-4.1535
X5.5984Y-3.8535
X5.5984Y-4.1535
X5.6984Y-3.8535
X5.6984Y-4.1535
X5.8189Y-3.9764
X5.8189Y-4.1732
X5.8339Y-2.685
X5.937Y-3.8535
X5.937Y-4.1535
X6.037Y-3.8535
X6.037Y-4.1535
X6.1339Y-2.685
X6.137Y-3.8535
X6.137Y-4.1535
X6.237Y-3.8535
X6.237Y-4.1535
X6.337Y-3.8535
X6.337Y-4.1535
X6.3484Y-2.4803
X6.3484Y-2.5591
X6.437Y-3.8535
X6.437Y-4.1535
X6.537Y-3.8535
X6.537Y-4.1535
X6.6575Y-3.9764
X6.6575Y-4.1732
X6.7756Y-3.8535
X6.7756Y-4.1535
X6.8756Y-3.8535
X6.8756Y-4.1535
X6.9756Y-3.8535
X6.9756Y-4.1535
X7.0374Y-2.4803
X7.0374Y-2.5591
X7.0472Y-2.7008
X7.0756Y-3.8535
X7.0756Y-4.1535
X7.1575Y-3.7283
X7.1756Y-3.8535
X7.1756Y-4.1535
X7.2756Y-3.8535
X7.2756Y-4.1535
X7.3472Y-2.7008
X7.3543Y-3.7283
X7.3756Y-3.8535
X7.3756Y-4.1535
T7
X5.6283Y-2.6811
X5.7283Y-2.6811
X7.4449Y-2.7008
X7.5449Y-2.7008
T8
X5.5236Y-4.4276
X5.5236Y-4.5276
X5.6236Y-4.4276
X5.6236Y-4.5276
X5.7236Y-4.4276
X5.7236Y-4.5276
X5.8236Y-4.4276
X5.8236Y-4.5276
X5.8335Y-2.4803
X5.9236Y-4.4276
X5.9236Y-4.5276
X5.9335Y-2.4803
X6.0236Y-4.4276
X6.0236Y-4.5276
X6.0335Y-2.4803
X6.1236Y-4.4276
X6.1236Y-4.5276
X6.2236Y-4.4276
X6.2236Y-4.5276
X6.3236Y-4.4276
X6.3236Y-4.5276
X6.3425Y-2.7126
X6.4236Y-4.4276
X6.4236Y-4.5276
X6.4425Y-2.7126
X6.5236Y-4.4276
X6.5236Y-4.5276
X6.5425Y-2.7126
X6.6236Y-4.4276
X6.6236Y-4.5276
X6.6425Y-2.7126
X6.7236Y-4.4276
X6.7236Y-4.5276
X6.7425Y-2.7126
X6.8236Y-4.4276
X6.8236Y-4.5276
X6.8425Y-2.7126
X6.9236Y-4.4276
X6.9236Y-4.5276
X7.0236Y-4.4276
X7.0236Y-4.5276
X7.1236Y-4.4276
X7.1236Y-4.5276
X7.2236Y-4.4276
X7.2236Y-4.5276
X7.3236Y-4.4276
X7.3236Y-4.5276
X7.4236Y-4.4276
X7.4236Y-4.5276
X7.8346Y-3.1929
X7.8346Y-3.2929
X7.8346Y-3.3929
X7.8346Y-3.4929
X7.8386Y-3.7008
X7.8386Y-3.8008
X7.8386Y-3.9008
X7.8386Y-4.0008
X7.8386Y-4.1008
X7.8386Y-4.2008
T9
X6.5945Y-2.5197
X6.6945Y-2.5197
X6.7945Y-2.5197
X7.5118Y-3.7244
X7.5118Y-3.9803
X7.689Y-3.7244
X7.689Y-3.9803
X7.7008Y-2.7913
X7.7008Y-2.9685
X7.9567Y-2.7913
X7.9567Y-2.9685
T10
X5.1673Y-2.5197
X5.3642Y-2.5197
T0
M30
