%TF.GenerationSoftware,KiCad,Pcbnew,(5.1.9)-1*%
%TF.CreationDate,2021-03-28T23:40:50-04:00*%
%TF.ProjectId,Smart_Reciever_Max,536d6172-745f-4526-9563-69657665725f,v2*%
%TF.SameCoordinates,Original*%
%TF.FileFunction,Legend,Bot*%
%TF.FilePolarity,Positive*%
%FSLAX46Y46*%
G04 Gerber Fmt 4.6, Leading zero omitted, Abs format (unit mm)*
G04 Created by KiCad (PCBNEW (5.1.9)-1) date 2021-03-28 23:40:50*
%MOMM*%
%LPD*%
G01*
G04 APERTURE LIST*
%ADD10C,0.100000*%
%ADD11C,0.300000*%
%ADD12C,0.120000*%
%ADD13C,0.150000*%
G04 APERTURE END LIST*
D10*
X163975000Y-71635714D02*
X164010714Y-71707142D01*
X164010714Y-71814285D01*
X163975000Y-71921428D01*
X163903571Y-71992857D01*
X163832142Y-72028571D01*
X163689285Y-72064285D01*
X163582142Y-72064285D01*
X163439285Y-72028571D01*
X163367857Y-71992857D01*
X163296428Y-71921428D01*
X163260714Y-71814285D01*
X163260714Y-71742857D01*
X163296428Y-71635714D01*
X163332142Y-71600000D01*
X163582142Y-71600000D01*
X163582142Y-71742857D01*
X163260714Y-71278571D02*
X164010714Y-71278571D01*
X164010714Y-70992857D01*
X163975000Y-70921428D01*
X163939285Y-70885714D01*
X163867857Y-70850000D01*
X163760714Y-70850000D01*
X163689285Y-70885714D01*
X163653571Y-70921428D01*
X163617857Y-70992857D01*
X163617857Y-71278571D01*
X163260714Y-70492857D02*
X163260714Y-70350000D01*
X163296428Y-70278571D01*
X163332142Y-70242857D01*
X163439285Y-70171428D01*
X163582142Y-70135714D01*
X163867857Y-70135714D01*
X163939285Y-70171428D01*
X163975000Y-70207142D01*
X164010714Y-70278571D01*
X164010714Y-70421428D01*
X163975000Y-70492857D01*
X163939285Y-70528571D01*
X163867857Y-70564285D01*
X163689285Y-70564285D01*
X163617857Y-70528571D01*
X163582142Y-70492857D01*
X163546428Y-70421428D01*
X163546428Y-70278571D01*
X163582142Y-70207142D01*
X163617857Y-70171428D01*
X163689285Y-70135714D01*
X166375000Y-71635714D02*
X166410714Y-71707142D01*
X166410714Y-71814285D01*
X166375000Y-71921428D01*
X166303571Y-71992857D01*
X166232142Y-72028571D01*
X166089285Y-72064285D01*
X165982142Y-72064285D01*
X165839285Y-72028571D01*
X165767857Y-71992857D01*
X165696428Y-71921428D01*
X165660714Y-71814285D01*
X165660714Y-71742857D01*
X165696428Y-71635714D01*
X165732142Y-71600000D01*
X165982142Y-71600000D01*
X165982142Y-71742857D01*
X165660714Y-71278571D02*
X166410714Y-71278571D01*
X166410714Y-70992857D01*
X166375000Y-70921428D01*
X166339285Y-70885714D01*
X166267857Y-70850000D01*
X166160714Y-70850000D01*
X166089285Y-70885714D01*
X166053571Y-70921428D01*
X166017857Y-70992857D01*
X166017857Y-71278571D01*
X166089285Y-70421428D02*
X166125000Y-70492857D01*
X166160714Y-70528571D01*
X166232142Y-70564285D01*
X166267857Y-70564285D01*
X166339285Y-70528571D01*
X166375000Y-70492857D01*
X166410714Y-70421428D01*
X166410714Y-70278571D01*
X166375000Y-70207142D01*
X166339285Y-70171428D01*
X166267857Y-70135714D01*
X166232142Y-70135714D01*
X166160714Y-70171428D01*
X166125000Y-70207142D01*
X166089285Y-70278571D01*
X166089285Y-70421428D01*
X166053571Y-70492857D01*
X166017857Y-70528571D01*
X165946428Y-70564285D01*
X165803571Y-70564285D01*
X165732142Y-70528571D01*
X165696428Y-70492857D01*
X165660714Y-70421428D01*
X165660714Y-70278571D01*
X165696428Y-70207142D01*
X165732142Y-70171428D01*
X165803571Y-70135714D01*
X165946428Y-70135714D01*
X166017857Y-70171428D01*
X166053571Y-70207142D01*
X166089285Y-70278571D01*
X171525000Y-71635714D02*
X171560714Y-71707142D01*
X171560714Y-71814285D01*
X171525000Y-71921428D01*
X171453571Y-71992857D01*
X171382142Y-72028571D01*
X171239285Y-72064285D01*
X171132142Y-72064285D01*
X170989285Y-72028571D01*
X170917857Y-71992857D01*
X170846428Y-71921428D01*
X170810714Y-71814285D01*
X170810714Y-71742857D01*
X170846428Y-71635714D01*
X170882142Y-71600000D01*
X171132142Y-71600000D01*
X171132142Y-71742857D01*
X170810714Y-71278571D02*
X171560714Y-71278571D01*
X171560714Y-70992857D01*
X171525000Y-70921428D01*
X171489285Y-70885714D01*
X171417857Y-70850000D01*
X171310714Y-70850000D01*
X171239285Y-70885714D01*
X171203571Y-70921428D01*
X171167857Y-70992857D01*
X171167857Y-71278571D01*
X171560714Y-70207142D02*
X171560714Y-70350000D01*
X171525000Y-70421428D01*
X171489285Y-70457142D01*
X171382142Y-70528571D01*
X171239285Y-70564285D01*
X170953571Y-70564285D01*
X170882142Y-70528571D01*
X170846428Y-70492857D01*
X170810714Y-70421428D01*
X170810714Y-70278571D01*
X170846428Y-70207142D01*
X170882142Y-70171428D01*
X170953571Y-70135714D01*
X171132142Y-70135714D01*
X171203571Y-70171428D01*
X171239285Y-70207142D01*
X171275000Y-70278571D01*
X171275000Y-70421428D01*
X171239285Y-70492857D01*
X171203571Y-70528571D01*
X171132142Y-70564285D01*
X169025000Y-71635714D02*
X169060714Y-71707142D01*
X169060714Y-71814285D01*
X169025000Y-71921428D01*
X168953571Y-71992857D01*
X168882142Y-72028571D01*
X168739285Y-72064285D01*
X168632142Y-72064285D01*
X168489285Y-72028571D01*
X168417857Y-71992857D01*
X168346428Y-71921428D01*
X168310714Y-71814285D01*
X168310714Y-71742857D01*
X168346428Y-71635714D01*
X168382142Y-71600000D01*
X168632142Y-71600000D01*
X168632142Y-71742857D01*
X168310714Y-71278571D02*
X169060714Y-71278571D01*
X169060714Y-70992857D01*
X169025000Y-70921428D01*
X168989285Y-70885714D01*
X168917857Y-70850000D01*
X168810714Y-70850000D01*
X168739285Y-70885714D01*
X168703571Y-70921428D01*
X168667857Y-70992857D01*
X168667857Y-71278571D01*
X169060714Y-70600000D02*
X169060714Y-70100000D01*
X168310714Y-70421428D01*
X161375000Y-71571428D02*
X161410714Y-71642857D01*
X161410714Y-71750000D01*
X161375000Y-71857142D01*
X161303571Y-71928571D01*
X161232142Y-71964285D01*
X161089285Y-72000000D01*
X160982142Y-72000000D01*
X160839285Y-71964285D01*
X160767857Y-71928571D01*
X160696428Y-71857142D01*
X160660714Y-71750000D01*
X160660714Y-71678571D01*
X160696428Y-71571428D01*
X160732142Y-71535714D01*
X160982142Y-71535714D01*
X160982142Y-71678571D01*
X160660714Y-71214285D02*
X161410714Y-71214285D01*
X160660714Y-70785714D01*
X161410714Y-70785714D01*
X160660714Y-70428571D02*
X161410714Y-70428571D01*
X161410714Y-70250000D01*
X161375000Y-70142857D01*
X161303571Y-70071428D01*
X161232142Y-70035714D01*
X161089285Y-70000000D01*
X160982142Y-70000000D01*
X160839285Y-70035714D01*
X160767857Y-70071428D01*
X160696428Y-70142857D01*
X160660714Y-70250000D01*
X160660714Y-70428571D01*
X176010714Y-69142857D02*
X176010714Y-69500000D01*
X175653571Y-69535714D01*
X175689285Y-69500000D01*
X175725000Y-69428571D01*
X175725000Y-69250000D01*
X175689285Y-69178571D01*
X175653571Y-69142857D01*
X175582142Y-69107142D01*
X175403571Y-69107142D01*
X175332142Y-69142857D01*
X175296428Y-69178571D01*
X175260714Y-69250000D01*
X175260714Y-69428571D01*
X175296428Y-69500000D01*
X175332142Y-69535714D01*
X176010714Y-68892857D02*
X175260714Y-68642857D01*
X176010714Y-68392857D01*
D11*
X126614285Y-95978571D02*
X127328571Y-95978571D01*
X127400000Y-96692857D01*
X127328571Y-96621428D01*
X127185714Y-96550000D01*
X126828571Y-96550000D01*
X126685714Y-96621428D01*
X126614285Y-96692857D01*
X126542857Y-96835714D01*
X126542857Y-97192857D01*
X126614285Y-97335714D01*
X126685714Y-97407142D01*
X126828571Y-97478571D01*
X127185714Y-97478571D01*
X127328571Y-97407142D01*
X127400000Y-97335714D01*
X126042857Y-96478571D02*
X125685714Y-97478571D01*
X125328571Y-96478571D01*
X128585714Y-87378571D02*
X127657142Y-87378571D01*
X128157142Y-87950000D01*
X127942857Y-87950000D01*
X127800000Y-88021428D01*
X127728571Y-88092857D01*
X127657142Y-88235714D01*
X127657142Y-88592857D01*
X127728571Y-88735714D01*
X127800000Y-88807142D01*
X127942857Y-88878571D01*
X128371428Y-88878571D01*
X128514285Y-88807142D01*
X128585714Y-88735714D01*
X127157142Y-87878571D02*
X126800000Y-88878571D01*
X126442857Y-87878571D01*
X126014285Y-87378571D02*
X125085714Y-87378571D01*
X125585714Y-87950000D01*
X125371428Y-87950000D01*
X125228571Y-88021428D01*
X125157142Y-88092857D01*
X125085714Y-88235714D01*
X125085714Y-88592857D01*
X125157142Y-88735714D01*
X125228571Y-88807142D01*
X125371428Y-88878571D01*
X125800000Y-88878571D01*
X125942857Y-88807142D01*
X126014285Y-88735714D01*
X130728571Y-60692857D02*
X131871428Y-60692857D01*
X135678571Y-60642857D02*
X136821428Y-60642857D01*
X136250000Y-60071428D02*
X136250000Y-61214285D01*
D12*
%TO.C,TP6*%
X178300000Y-86450000D02*
X179700000Y-86450000D01*
X179700000Y-86450000D02*
X179700000Y-85050000D01*
X179700000Y-85050000D02*
X178300000Y-85050000D01*
X178300000Y-85050000D02*
X178300000Y-86450000D01*
%TO.C,TP5*%
X123800000Y-89800000D02*
X123800000Y-91200000D01*
X125200000Y-89800000D02*
X123800000Y-89800000D01*
X125200000Y-91200000D02*
X125200000Y-89800000D01*
X123800000Y-91200000D02*
X125200000Y-91200000D01*
%TO.C,TP4*%
X130550000Y-93050000D02*
X130550000Y-94450000D01*
X131950000Y-93050000D02*
X130550000Y-93050000D01*
X131950000Y-94450000D02*
X131950000Y-93050000D01*
X130550000Y-94450000D02*
X131950000Y-94450000D01*
%TO.C,TP3*%
X163400000Y-87800000D02*
X163400000Y-86400000D01*
X162000000Y-87800000D02*
X163400000Y-87800000D01*
X162000000Y-86400000D02*
X162000000Y-87800000D01*
X163400000Y-86400000D02*
X162000000Y-86400000D01*
%TO.C,TP2*%
X175600000Y-76100000D02*
X175600000Y-77500000D01*
X177000000Y-76100000D02*
X175600000Y-76100000D01*
X177000000Y-77500000D02*
X177000000Y-76100000D01*
X175600000Y-77500000D02*
X177000000Y-77500000D01*
%TO.C,TP1*%
X178100000Y-76100000D02*
X178100000Y-77500000D01*
X179500000Y-76100000D02*
X178100000Y-76100000D01*
X179500000Y-77500000D02*
X179500000Y-76100000D01*
X178100000Y-77500000D02*
X179500000Y-77500000D01*
%TO.C,JP5*%
X136300000Y-82525000D02*
X136300000Y-79725000D01*
X136300000Y-79725000D02*
X134300000Y-79725000D01*
X134300000Y-79725000D02*
X134300000Y-82525000D01*
X134300000Y-82525000D02*
X136300000Y-82525000D01*
%TO.C,JP4*%
X136200000Y-74600000D02*
X136200000Y-71800000D01*
X136200000Y-71800000D02*
X134200000Y-71800000D01*
X134200000Y-71800000D02*
X134200000Y-74600000D01*
X134200000Y-74600000D02*
X136200000Y-74600000D01*
%TO.C,JP3*%
X136200000Y-78325000D02*
X136200000Y-75525000D01*
X136200000Y-75525000D02*
X134200000Y-75525000D01*
X134200000Y-75525000D02*
X134200000Y-78325000D01*
X134200000Y-78325000D02*
X136200000Y-78325000D01*
%TO.C,JP2*%
X136200000Y-86125000D02*
X136200000Y-83325000D01*
X136200000Y-83325000D02*
X134200000Y-83325000D01*
X134200000Y-83325000D02*
X134200000Y-86125000D01*
X134200000Y-86125000D02*
X136200000Y-86125000D01*
%TO.C,JP1*%
X128000000Y-95150000D02*
X128000000Y-89650000D01*
X128000000Y-89650000D02*
X126050000Y-89650000D01*
X126050000Y-89650000D02*
X126050000Y-95150000D01*
X126050000Y-95150000D02*
X128000000Y-95150000D01*
X125800000Y-93800000D02*
X125500000Y-94100000D01*
X125500000Y-94100000D02*
X125500000Y-93500000D01*
X125500000Y-93500000D02*
X125800000Y-93800000D01*
%TO.C,TP6*%
D13*
X179761904Y-83700000D02*
X179857142Y-83652380D01*
X180000000Y-83652380D01*
X180142857Y-83700000D01*
X180238095Y-83795238D01*
X180285714Y-83890476D01*
X180333333Y-84080952D01*
X180333333Y-84223809D01*
X180285714Y-84414285D01*
X180238095Y-84509523D01*
X180142857Y-84604761D01*
X180000000Y-84652380D01*
X179904761Y-84652380D01*
X179761904Y-84604761D01*
X179714285Y-84557142D01*
X179714285Y-84223809D01*
X179904761Y-84223809D01*
X179285714Y-84652380D02*
X179285714Y-83652380D01*
X178714285Y-84652380D01*
X178714285Y-83652380D01*
X178238095Y-84652380D02*
X178238095Y-83652380D01*
X178000000Y-83652380D01*
X177857142Y-83700000D01*
X177761904Y-83795238D01*
X177714285Y-83890476D01*
X177666666Y-84080952D01*
X177666666Y-84223809D01*
X177714285Y-84414285D01*
X177761904Y-84509523D01*
X177857142Y-84604761D01*
X178000000Y-84652380D01*
X178238095Y-84652380D01*
%TO.C,TP5*%
X122761904Y-90000000D02*
X122857142Y-89952380D01*
X123000000Y-89952380D01*
X123142857Y-90000000D01*
X123238095Y-90095238D01*
X123285714Y-90190476D01*
X123333333Y-90380952D01*
X123333333Y-90523809D01*
X123285714Y-90714285D01*
X123238095Y-90809523D01*
X123142857Y-90904761D01*
X123000000Y-90952380D01*
X122904761Y-90952380D01*
X122761904Y-90904761D01*
X122714285Y-90857142D01*
X122714285Y-90523809D01*
X122904761Y-90523809D01*
X122285714Y-90952380D02*
X122285714Y-89952380D01*
X121714285Y-90952380D01*
X121714285Y-89952380D01*
X121238095Y-90952380D02*
X121238095Y-89952380D01*
X121000000Y-89952380D01*
X120857142Y-90000000D01*
X120761904Y-90095238D01*
X120714285Y-90190476D01*
X120666666Y-90380952D01*
X120666666Y-90523809D01*
X120714285Y-90714285D01*
X120761904Y-90809523D01*
X120857142Y-90904761D01*
X121000000Y-90952380D01*
X121238095Y-90952380D01*
%TO.C,TP4*%
X132440476Y-94702380D02*
X131821428Y-94702380D01*
X132154761Y-95083333D01*
X132011904Y-95083333D01*
X131916666Y-95130952D01*
X131869047Y-95178571D01*
X131821428Y-95273809D01*
X131821428Y-95511904D01*
X131869047Y-95607142D01*
X131916666Y-95654761D01*
X132011904Y-95702380D01*
X132297619Y-95702380D01*
X132392857Y-95654761D01*
X132440476Y-95607142D01*
X131488095Y-95035714D02*
X131250000Y-95702380D01*
X131011904Y-95035714D01*
X130726190Y-94702380D02*
X130107142Y-94702380D01*
X130440476Y-95083333D01*
X130297619Y-95083333D01*
X130202380Y-95130952D01*
X130154761Y-95178571D01*
X130107142Y-95273809D01*
X130107142Y-95511904D01*
X130154761Y-95607142D01*
X130202380Y-95654761D01*
X130297619Y-95702380D01*
X130583333Y-95702380D01*
X130678571Y-95654761D01*
X130726190Y-95607142D01*
%TO.C,TP3*%
X163890476Y-85052380D02*
X163271428Y-85052380D01*
X163604761Y-85433333D01*
X163461904Y-85433333D01*
X163366666Y-85480952D01*
X163319047Y-85528571D01*
X163271428Y-85623809D01*
X163271428Y-85861904D01*
X163319047Y-85957142D01*
X163366666Y-86004761D01*
X163461904Y-86052380D01*
X163747619Y-86052380D01*
X163842857Y-86004761D01*
X163890476Y-85957142D01*
X162938095Y-85385714D02*
X162700000Y-86052380D01*
X162461904Y-85385714D01*
X162176190Y-85052380D02*
X161557142Y-85052380D01*
X161890476Y-85433333D01*
X161747619Y-85433333D01*
X161652380Y-85480952D01*
X161604761Y-85528571D01*
X161557142Y-85623809D01*
X161557142Y-85861904D01*
X161604761Y-85957142D01*
X161652380Y-86004761D01*
X161747619Y-86052380D01*
X162033333Y-86052380D01*
X162128571Y-86004761D01*
X162176190Y-85957142D01*
%TO.C,TP2*%
X176514285Y-77900000D02*
X176609523Y-77852380D01*
X176752380Y-77852380D01*
X176895238Y-77900000D01*
X176990476Y-77995238D01*
X177038095Y-78090476D01*
X177085714Y-78280952D01*
X177085714Y-78423809D01*
X177038095Y-78614285D01*
X176990476Y-78709523D01*
X176895238Y-78804761D01*
X176752380Y-78852380D01*
X176657142Y-78852380D01*
X176514285Y-78804761D01*
X176466666Y-78757142D01*
X176466666Y-78423809D01*
X176657142Y-78423809D01*
X176038095Y-78852380D02*
X176038095Y-77852380D01*
X175657142Y-77852380D01*
X175561904Y-77900000D01*
X175514285Y-77947619D01*
X175466666Y-78042857D01*
X175466666Y-78185714D01*
X175514285Y-78280952D01*
X175561904Y-78328571D01*
X175657142Y-78376190D01*
X176038095Y-78376190D01*
X174561904Y-77852380D02*
X175038095Y-77852380D01*
X175085714Y-78328571D01*
X175038095Y-78280952D01*
X174942857Y-78233333D01*
X174704761Y-78233333D01*
X174609523Y-78280952D01*
X174561904Y-78328571D01*
X174514285Y-78423809D01*
X174514285Y-78661904D01*
X174561904Y-78757142D01*
X174609523Y-78804761D01*
X174704761Y-78852380D01*
X174942857Y-78852380D01*
X175038095Y-78804761D01*
X175085714Y-78757142D01*
%TO.C,TP1*%
X179714285Y-77900000D02*
X179809523Y-77852380D01*
X179952380Y-77852380D01*
X180095238Y-77900000D01*
X180190476Y-77995238D01*
X180238095Y-78090476D01*
X180285714Y-78280952D01*
X180285714Y-78423809D01*
X180238095Y-78614285D01*
X180190476Y-78709523D01*
X180095238Y-78804761D01*
X179952380Y-78852380D01*
X179857142Y-78852380D01*
X179714285Y-78804761D01*
X179666666Y-78757142D01*
X179666666Y-78423809D01*
X179857142Y-78423809D01*
X179238095Y-78852380D02*
X179238095Y-77852380D01*
X178857142Y-77852380D01*
X178761904Y-77900000D01*
X178714285Y-77947619D01*
X178666666Y-78042857D01*
X178666666Y-78185714D01*
X178714285Y-78280952D01*
X178761904Y-78328571D01*
X178857142Y-78376190D01*
X179238095Y-78376190D01*
X177809523Y-78185714D02*
X177809523Y-78852380D01*
X178047619Y-77804761D02*
X178285714Y-78519047D01*
X177666666Y-78519047D01*
%TO.C,JP5*%
X136552380Y-80291666D02*
X137266666Y-80291666D01*
X137409523Y-80244047D01*
X137504761Y-80148809D01*
X137552380Y-80005952D01*
X137552380Y-79910714D01*
X137552380Y-80767857D02*
X136552380Y-80767857D01*
X136552380Y-81148809D01*
X136600000Y-81244047D01*
X136647619Y-81291666D01*
X136742857Y-81339285D01*
X136885714Y-81339285D01*
X136980952Y-81291666D01*
X137028571Y-81244047D01*
X137076190Y-81148809D01*
X137076190Y-80767857D01*
X136552380Y-82244047D02*
X136552380Y-81767857D01*
X137028571Y-81720238D01*
X136980952Y-81767857D01*
X136933333Y-81863095D01*
X136933333Y-82101190D01*
X136980952Y-82196428D01*
X137028571Y-82244047D01*
X137123809Y-82291666D01*
X137361904Y-82291666D01*
X137457142Y-82244047D01*
X137504761Y-82196428D01*
X137552380Y-82101190D01*
X137552380Y-81863095D01*
X137504761Y-81767857D01*
X137457142Y-81720238D01*
%TO.C,JP4*%
X136452380Y-72366666D02*
X137166666Y-72366666D01*
X137309523Y-72319047D01*
X137404761Y-72223809D01*
X137452380Y-72080952D01*
X137452380Y-71985714D01*
X137452380Y-72842857D02*
X136452380Y-72842857D01*
X136452380Y-73223809D01*
X136500000Y-73319047D01*
X136547619Y-73366666D01*
X136642857Y-73414285D01*
X136785714Y-73414285D01*
X136880952Y-73366666D01*
X136928571Y-73319047D01*
X136976190Y-73223809D01*
X136976190Y-72842857D01*
X136785714Y-74271428D02*
X137452380Y-74271428D01*
X136404761Y-74033333D02*
X137119047Y-73795238D01*
X137119047Y-74414285D01*
%TO.C,JP3*%
X136452380Y-76091666D02*
X137166666Y-76091666D01*
X137309523Y-76044047D01*
X137404761Y-75948809D01*
X137452380Y-75805952D01*
X137452380Y-75710714D01*
X137452380Y-76567857D02*
X136452380Y-76567857D01*
X136452380Y-76948809D01*
X136500000Y-77044047D01*
X136547619Y-77091666D01*
X136642857Y-77139285D01*
X136785714Y-77139285D01*
X136880952Y-77091666D01*
X136928571Y-77044047D01*
X136976190Y-76948809D01*
X136976190Y-76567857D01*
X136452380Y-77472619D02*
X136452380Y-78091666D01*
X136833333Y-77758333D01*
X136833333Y-77901190D01*
X136880952Y-77996428D01*
X136928571Y-78044047D01*
X137023809Y-78091666D01*
X137261904Y-78091666D01*
X137357142Y-78044047D01*
X137404761Y-77996428D01*
X137452380Y-77901190D01*
X137452380Y-77615476D01*
X137404761Y-77520238D01*
X137357142Y-77472619D01*
%TO.C,JP2*%
X136452380Y-83891666D02*
X137166666Y-83891666D01*
X137309523Y-83844047D01*
X137404761Y-83748809D01*
X137452380Y-83605952D01*
X137452380Y-83510714D01*
X137452380Y-84367857D02*
X136452380Y-84367857D01*
X136452380Y-84748809D01*
X136500000Y-84844047D01*
X136547619Y-84891666D01*
X136642857Y-84939285D01*
X136785714Y-84939285D01*
X136880952Y-84891666D01*
X136928571Y-84844047D01*
X136976190Y-84748809D01*
X136976190Y-84367857D01*
X136547619Y-85320238D02*
X136500000Y-85367857D01*
X136452380Y-85463095D01*
X136452380Y-85701190D01*
X136500000Y-85796428D01*
X136547619Y-85844047D01*
X136642857Y-85891666D01*
X136738095Y-85891666D01*
X136880952Y-85844047D01*
X137452380Y-85272619D01*
X137452380Y-85891666D01*
%TO.C,JP1*%
X128227380Y-90841666D02*
X128941666Y-90841666D01*
X129084523Y-90794047D01*
X129179761Y-90698809D01*
X129227380Y-90555952D01*
X129227380Y-90460714D01*
X129227380Y-91317857D02*
X128227380Y-91317857D01*
X128227380Y-91698809D01*
X128275000Y-91794047D01*
X128322619Y-91841666D01*
X128417857Y-91889285D01*
X128560714Y-91889285D01*
X128655952Y-91841666D01*
X128703571Y-91794047D01*
X128751190Y-91698809D01*
X128751190Y-91317857D01*
X129227380Y-92841666D02*
X129227380Y-92270238D01*
X129227380Y-92555952D02*
X128227380Y-92555952D01*
X128370238Y-92460714D01*
X128465476Y-92365476D01*
X128513095Y-92270238D01*
%TD*%
M02*
