%TF.GenerationSoftware,KiCad,Pcbnew,(6.0.2)*%
%TF.CreationDate,2022-03-08T14:05:25-05:00*%
%TF.ProjectId,Receiver_Out,52656365-6976-4657-925f-4f75742e6b69,v1*%
%TF.SameCoordinates,Original*%
%TF.FileFunction,Paste,Top*%
%TF.FilePolarity,Positive*%
%FSLAX46Y46*%
G04 Gerber Fmt 4.6, Leading zero omitted, Abs format (unit mm)*
G04 Created by KiCad (PCBNEW (6.0.2)) date 2022-03-08 14:05:25*
%MOMM*%
%LPD*%
G01*
G04 APERTURE LIST*
G04 Aperture macros list*
%AMRoundRect*
0 Rectangle with rounded corners*
0 $1 Rounding radius*
0 $2 $3 $4 $5 $6 $7 $8 $9 X,Y pos of 4 corners*
0 Add a 4 corners polygon primitive as box body*
4,1,4,$2,$3,$4,$5,$6,$7,$8,$9,$2,$3,0*
0 Add four circle primitives for the rounded corners*
1,1,$1+$1,$2,$3*
1,1,$1+$1,$4,$5*
1,1,$1+$1,$6,$7*
1,1,$1+$1,$8,$9*
0 Add four rect primitives between the rounded corners*
20,1,$1+$1,$2,$3,$4,$5,0*
20,1,$1+$1,$4,$5,$6,$7,0*
20,1,$1+$1,$6,$7,$8,$9,0*
20,1,$1+$1,$8,$9,$2,$3,0*%
G04 Aperture macros list end*
%ADD10RoundRect,0.147500X0.147500X0.172500X-0.147500X0.172500X-0.147500X-0.172500X0.147500X-0.172500X0*%
%ADD11RoundRect,0.150000X-0.150000X0.875000X-0.150000X-0.875000X0.150000X-0.875000X0.150000X0.875000X0*%
%ADD12RoundRect,0.237500X-0.287500X-0.237500X0.287500X-0.237500X0.287500X0.237500X-0.287500X0.237500X0*%
%ADD13R,2.000000X1.500000*%
%ADD14R,2.000000X3.800000*%
%ADD15RoundRect,0.237500X0.287500X0.237500X-0.287500X0.237500X-0.287500X-0.237500X0.287500X-0.237500X0*%
%ADD16RoundRect,0.212500X-0.400000X-0.212500X0.400000X-0.212500X0.400000X0.212500X-0.400000X0.212500X0*%
%ADD17R,0.900000X1.200000*%
%ADD18RoundRect,0.147500X-0.172500X0.147500X-0.172500X-0.147500X0.172500X-0.147500X0.172500X0.147500X0*%
%ADD19RoundRect,0.150000X-0.150000X0.825000X-0.150000X-0.825000X0.150000X-0.825000X0.150000X0.825000X0*%
%ADD20RoundRect,0.250000X0.325000X0.450000X-0.325000X0.450000X-0.325000X-0.450000X0.325000X-0.450000X0*%
%ADD21RoundRect,0.250000X-0.325000X-0.450000X0.325000X-0.450000X0.325000X0.450000X-0.325000X0.450000X0*%
G04 APERTURE END LIST*
D10*
%TO.C,C4*%
X107051000Y-95967800D03*
X108021000Y-95967800D03*
%TD*%
D11*
%TO.C,U1*%
X108016000Y-107367800D03*
X106746000Y-107367800D03*
X105476000Y-107367800D03*
X104206000Y-107367800D03*
X102936000Y-107367800D03*
X101666000Y-107367800D03*
X100396000Y-107367800D03*
X99126000Y-107367800D03*
X97856000Y-107367800D03*
X96586000Y-107367800D03*
X96586000Y-98067800D03*
X97856000Y-98067800D03*
X99126000Y-98067800D03*
X100396000Y-98067800D03*
X101666000Y-98067800D03*
X102936000Y-98067800D03*
X104206000Y-98067800D03*
X105476000Y-98067800D03*
X106746000Y-98067800D03*
X108016000Y-98067800D03*
%TD*%
D12*
%TO.C,R1*%
X117793000Y-115569800D03*
X116043000Y-115569800D03*
%TD*%
D13*
%TO.C,U2*%
X73801000Y-114767800D03*
X73801000Y-119367800D03*
X73801000Y-117067800D03*
D14*
X80101000Y-117067800D03*
%TD*%
D15*
%TO.C,R10*%
X106426000Y-110217800D03*
X108176000Y-110217800D03*
%TD*%
%TO.C,R9*%
X102926000Y-110217800D03*
X104676000Y-110217800D03*
%TD*%
D12*
%TO.C,R8*%
X100376000Y-110217800D03*
X98626000Y-110217800D03*
%TD*%
%TO.C,R7*%
X96376000Y-110217800D03*
X94626000Y-110217800D03*
%TD*%
%TO.C,R6*%
X78677000Y-97789800D03*
X76927000Y-97789800D03*
%TD*%
%TO.C,R5*%
X87676000Y-97789800D03*
X85926000Y-97789800D03*
%TD*%
D15*
%TO.C,R4*%
X89301000Y-97789800D03*
X91051000Y-97789800D03*
%TD*%
%TO.C,R3*%
X81499000Y-97789800D03*
X83249000Y-97789800D03*
%TD*%
D12*
%TO.C,R2*%
X117793000Y-110912801D03*
X116043000Y-110912801D03*
%TD*%
D16*
%TO.C,D3*%
X122013500Y-110912801D03*
X120388500Y-110912801D03*
%TD*%
%TO.C,D2*%
X122013500Y-115524800D03*
X120388500Y-115524800D03*
%TD*%
D17*
%TO.C,D1*%
X78951000Y-137467800D03*
X75651000Y-137467800D03*
%TD*%
D18*
%TO.C,C3*%
X90701000Y-106937800D03*
X90701000Y-105967800D03*
%TD*%
D19*
%TO.C,U3*%
X89114000Y-105852800D03*
X87844000Y-105852800D03*
X86574000Y-105852800D03*
X85304000Y-105852800D03*
X84034000Y-105852800D03*
X82764000Y-105852800D03*
X81494000Y-105852800D03*
X80224000Y-105852800D03*
X80224000Y-100902800D03*
X81494000Y-100902800D03*
X82764000Y-100902800D03*
X84034000Y-100902800D03*
X85304000Y-100902800D03*
X86574000Y-100902800D03*
X87844000Y-100902800D03*
X89114000Y-100902800D03*
%TD*%
D20*
%TO.C,C2*%
X74926000Y-112067800D03*
X76976000Y-112067800D03*
%TD*%
D21*
%TO.C,C1*%
X75726000Y-121817800D03*
X73676000Y-121817800D03*
%TD*%
M02*
