M48
; DRILL file {KiCad 9.0.6} date 2025-12-29T09:33:38-0500
; FORMAT={-:-/ absolute / inch / decimal}
; #@! TF.CreationDate,2025-12-29T09:33:38-05:00
; #@! TF.GenerationSoftware,Kicad,Pcbnew,9.0.6
; #@! TF.FileFunction,Plated,1,2,PTH
FMAT,2
INCH
; #@! TA.AperFunction,Plated,PTH,ViaDrill
T1C0.0118
; #@! TA.AperFunction,Plated,PTH,ViaDrill
T2C0.0236
; #@! TA.AperFunction,Plated,PTH,ComponentDrill
T3C0.0299
; #@! TA.AperFunction,Plated,PTH,ComponentDrill
T4C0.0394
; #@! TA.AperFunction,Plated,PTH,ComponentDrill
T5C0.0472
; #@! TA.AperFunction,Plated,PTH,ComponentDrill
T6C0.0591
; #@! TA.AperFunction,Plated,PTH,ComponentDrill
T7C0.0650
%
G90
G05
T1
X-3.7794Y1.0774
X-3.7794Y1.0435
X-3.7459Y1.0435
X-3.7455Y1.077
T2
X-5.1646Y-0.3375
X-5.1546Y-0.0175
X-5.1046Y1.7325
X-5.1046Y1.3325
X-5.1046Y1.1325
X-5.1046Y0.9325
X-5.0971Y0.6388
X-5.0951Y0.6924
X-5.0951Y0.5821
X-5.04Y0.6924
X-4.9691Y0.7711
X-4.9337Y0.2317
X-4.9219Y0.401
X-4.9046Y1.7325
X-4.9046Y1.5325
X-4.9046Y1.3325
X-4.9046Y0.9325
X-4.8597Y0.4038
X-4.8589Y0.3065
X-4.7946Y-0.0075
X-4.7861Y0.6451
X-4.7646Y1.2025
X-4.7646Y-0.4175
X-4.7376Y0.8069
X-4.7172Y1.0486
X-4.6946Y0.3025
X-4.6802Y0.6451
X-4.677Y0.8616
X-4.6546Y-0.2575
X-4.6189Y1.337
X-4.6046Y1.7325
X-4.5841Y1.1998
X-4.5833Y1.2553
X-4.5745Y1.0585
X-4.5607Y0.8516
X-4.5546Y-0.3575
X-4.5105Y0.8518
X-4.5046Y1.7325
X-4.5046Y0.6325
X-4.4768Y1.2947
X-4.4613Y0.8538
X-4.4022Y1.3144
X-4.4014Y0.8447
X-4.3617Y0.7857
X-4.3546Y0.8471
X-4.3455Y1.1443
X-4.3046Y-0.3675
X-4.2841Y1.1569
X-4.2841Y0.9325
X-4.2813Y1.3183
X-4.2152Y1.1668
X-4.2046Y0.6325
X-4.2046Y0.1325
X-4.166Y1.2475
X-4.1495Y1.1046
X-4.1313Y0.8467
X-4.1069Y1.4286
X-4.1069Y1.3144
X-4.1046Y1.7325
X-4.1046Y1.5325
X-4.0971Y1.0486
X-4.0746Y-0.3675
X-4.0518Y1.2475
X-4.041Y1.0477
X-4.0085Y1.3105
X-4.0046Y0.6325
X-3.9731Y1.0053
X-3.9317Y1.2475
X-3.9317Y0.8577
X-3.9219Y1.0427
X-3.9046Y1.7325
X-3.9046Y1.5325
X-3.9046Y0.6325
X-3.9046Y-0.1675
X-3.9022Y1.4266
X-3.8845Y1.1727
X-3.8825Y1.1126
X-3.8711Y0.8573
X-3.8546Y-0.3675
X-3.7707Y0.9321
X-3.7341Y1.4195
X-3.7325Y1.5321
X-3.7077Y0.8967
X-3.7046Y1.7325
X-3.6959Y0.7892
X-3.6542Y-0.6344
X-3.6542Y-0.8313
X-3.6093Y1.2116
X-3.6077Y1.0577
X-3.605Y0.2809
X-3.6046Y-0.3675
X-3.603Y1.1057
X-3.5979Y1.3219
X-3.5164Y1.4522
X-3.5054Y0.7904
X-3.5046Y1.7325
X-3.5026Y1.2081
X-3.4869Y0.6654
X-3.4869Y0.5325
X-3.477Y0.2325
X-3.4573Y0.3498
X-3.4573Y-0.0439
X-3.4573Y-0.1423
X-3.4573Y-0.2407
X-3.4573Y-0.4376
X-3.4573Y-0.6344
X-3.4573Y-0.8313
X-3.4337Y0.1451
X-3.4176Y1.3211
X-3.4081Y0.6687
X-3.4058Y0.4995
X-3.4022Y0.8981
X-3.3717Y1.0526
X-3.3717Y0.9965
X-3.3589Y0.3498
X-3.3589Y-0.2407
X-3.3556Y0.6134
X-3.3552Y0.7236
X-3.354Y1.2101
X-3.3507Y0.4405
X-3.3468Y0.5586
X-3.3046Y1.7325
X-3.3046Y1.5325
X-3.2605Y0.3498
X-3.2605Y-0.2407
X-3.2605Y-0.4376
X-3.2605Y-0.6344
X-3.2605Y-0.8313
X-3.2317Y1.3979
X-3.1979Y0.7782
X-3.1916Y1.2498
X-3.1621Y0.3498
X-3.1621Y-0.0439
X-3.1621Y-0.1423
X-3.1621Y-0.2407
X-3.118Y0.8648
X-3.1109Y0.1451
X-3.1046Y1.7325
X-3.1046Y0.4325
X-3.1046Y0.2325
X-3.0636Y-0.0439
X-3.0636Y-0.2407
X-3.0636Y-0.6344
X-3.0636Y-0.8313
X-2.9967Y1.0979
X-2.9652Y1.2553
X-2.9652Y0.8223
X-2.9652Y0.6057
X-2.9337Y1.0388
T3
X-4.7345Y1.4105
X-4.6845Y1.5105
X-4.6345Y1.4105
X-4.5845Y1.5105
X-4.5345Y1.4105
X-4.4845Y1.5105
X-4.4345Y1.4105
X-4.3845Y1.5105
T4
X-4.9593Y0.0518
X-4.9593Y-0.0482
X-4.9593Y-0.1482
X-3.2546Y1.1471
X-3.2546Y1.0471
X-3.2546Y0.9471
T5
X-4.5204Y0.5119
X-4.5204Y0.0001
X-4.3826Y0.5119
X-4.3826Y0.0001
X-4.2448Y0.5119
X-4.2448Y0.0001
X-3.9298Y0.5119
X-3.9298Y0.0001
X-3.792Y0.5119
X-3.792Y0.0001
X-3.6542Y0.5119
X-3.6542Y0.0001
T6
X-3.3052Y0.2062
X-3.3052Y-0.1186
T7
X-4.4019Y-0.3439
X-4.4019Y-0.4896
X-4.4019Y-0.6667
X-4.4019Y-0.8124
X-4.1819Y-0.3445
X-4.1819Y-0.4902
X-4.1819Y-0.6673
X-4.1819Y-0.813
X-3.9619Y-0.3445
X-3.9619Y-0.4902
X-3.9619Y-0.6673
X-3.9619Y-0.813
X-3.7419Y-0.3445
X-3.7419Y-0.4902
X-3.7419Y-0.6673
X-3.7419Y-0.813
M30
