%TF.GenerationSoftware,KiCad,Pcbnew,8.0.4*%
%TF.CreationDate,2024-12-02T02:38:28-05:00*%
%TF.ProjectId,Receiver_Out,52656365-6976-4657-925f-4f75742e6b69,v2*%
%TF.SameCoordinates,Original*%
%TF.FileFunction,Copper,L1,Top*%
%TF.FilePolarity,Positive*%
%FSLAX46Y46*%
G04 Gerber Fmt 4.6, Leading zero omitted, Abs format (unit mm)*
G04 Created by KiCad (PCBNEW 8.0.4) date 2024-12-02 02:38:28*
%MOMM*%
%LPD*%
G01*
G04 APERTURE LIST*
G04 Aperture macros list*
%AMRoundRect*
0 Rectangle with rounded corners*
0 $1 Rounding radius*
0 $2 $3 $4 $5 $6 $7 $8 $9 X,Y pos of 4 corners*
0 Add a 4 corners polygon primitive as box body*
4,1,4,$2,$3,$4,$5,$6,$7,$8,$9,$2,$3,0*
0 Add four circle primitives for the rounded corners*
1,1,$1+$1,$2,$3*
1,1,$1+$1,$4,$5*
1,1,$1+$1,$6,$7*
1,1,$1+$1,$8,$9*
0 Add four rect primitives between the rounded corners*
20,1,$1+$1,$2,$3,$4,$5,0*
20,1,$1+$1,$4,$5,$6,$7,0*
20,1,$1+$1,$6,$7,$8,$9,0*
20,1,$1+$1,$8,$9,$2,$3,0*%
G04 Aperture macros list end*
%TA.AperFunction,ComponentPad*%
%ADD10RoundRect,0.250000X-0.650000X-1.550000X0.650000X-1.550000X0.650000X1.550000X-0.650000X1.550000X0*%
%TD*%
%TA.AperFunction,ComponentPad*%
%ADD11O,1.800000X3.600000*%
%TD*%
%TA.AperFunction,ComponentPad*%
%ADD12R,3.000000X3.000000*%
%TD*%
%TA.AperFunction,ComponentPad*%
%ADD13C,3.000000*%
%TD*%
%TA.AperFunction,ComponentPad*%
%ADD14C,2.475000*%
%TD*%
%TA.AperFunction,SMDPad,CuDef*%
%ADD15RoundRect,0.250000X-0.325000X-0.450000X0.325000X-0.450000X0.325000X0.450000X-0.325000X0.450000X0*%
%TD*%
%TA.AperFunction,ComponentPad*%
%ADD16R,1.700000X1.700000*%
%TD*%
%TA.AperFunction,ComponentPad*%
%ADD17O,1.700000X1.700000*%
%TD*%
%TA.AperFunction,SMDPad,CuDef*%
%ADD18RoundRect,0.250000X0.325000X0.450000X-0.325000X0.450000X-0.325000X-0.450000X0.325000X-0.450000X0*%
%TD*%
%TA.AperFunction,SMDPad,CuDef*%
%ADD19RoundRect,0.237500X-0.287500X-0.237500X0.287500X-0.237500X0.287500X0.237500X-0.287500X0.237500X0*%
%TD*%
%TA.AperFunction,SMDPad,CuDef*%
%ADD20RoundRect,0.212500X-0.400000X-0.212500X0.400000X-0.212500X0.400000X0.212500X-0.400000X0.212500X0*%
%TD*%
%TA.AperFunction,ComponentPad*%
%ADD21R,1.500000X1.500000*%
%TD*%
%TA.AperFunction,ComponentPad*%
%ADD22C,1.500000*%
%TD*%
%TA.AperFunction,SMDPad,CuDef*%
%ADD23RoundRect,0.237500X0.287500X0.237500X-0.287500X0.237500X-0.287500X-0.237500X0.287500X-0.237500X0*%
%TD*%
%TA.AperFunction,SMDPad,CuDef*%
%ADD24RoundRect,0.150000X-0.150000X0.825000X-0.150000X-0.825000X0.150000X-0.825000X0.150000X0.825000X0*%
%TD*%
%TA.AperFunction,SMDPad,CuDef*%
%ADD25RoundRect,0.147500X-0.172500X0.147500X-0.172500X-0.147500X0.172500X-0.147500X0.172500X0.147500X0*%
%TD*%
%TA.AperFunction,SMDPad,CuDef*%
%ADD26R,0.900000X1.200000*%
%TD*%
%TA.AperFunction,SMDPad,CuDef*%
%ADD27R,2.000000X1.500000*%
%TD*%
%TA.AperFunction,SMDPad,CuDef*%
%ADD28R,2.000000X3.800000*%
%TD*%
%TA.AperFunction,SMDPad,CuDef*%
%ADD29RoundRect,0.147500X0.172500X-0.147500X0.172500X0.147500X-0.172500X0.147500X-0.172500X-0.147500X0*%
%TD*%
%TA.AperFunction,SMDPad,CuDef*%
%ADD30RoundRect,0.100000X-0.100000X0.637500X-0.100000X-0.637500X0.100000X-0.637500X0.100000X0.637500X0*%
%TD*%
%TA.AperFunction,ViaPad*%
%ADD31C,1.000000*%
%TD*%
%TA.AperFunction,Conductor*%
%ADD32C,0.400000*%
%TD*%
%TA.AperFunction,Conductor*%
%ADD33C,0.500000*%
%TD*%
%TA.AperFunction,Conductor*%
%ADD34C,1.000000*%
%TD*%
%TA.AperFunction,Conductor*%
%ADD35C,0.350000*%
%TD*%
%TA.AperFunction,Conductor*%
%ADD36C,2.999999*%
%TD*%
%TA.AperFunction,Conductor*%
%ADD37C,3.000000*%
%TD*%
G04 APERTURE END LIST*
D10*
%TO.P,J2,1,Pin_1*%
%TO.N,GND*%
X-114817200Y3500D03*
D11*
%TO.P,J2,2,Pin_2*%
%TO.N,/Outputs/DOUT2*%
X-111317200Y3500D03*
%TO.P,J2,3,Pin_3*%
%TO.N,/Outputs/VOUT2*%
X-107817200Y3500D03*
%TD*%
D10*
%TO.P,J4,1,Pin_1*%
%TO.N,GND*%
X-99817200Y3500D03*
D11*
%TO.P,J4,2,Pin_2*%
%TO.N,/Outputs/DOUT4*%
X-96317200Y3500D03*
%TO.P,J4,3,Pin_3*%
%TO.N,/Outputs/VOUT4*%
X-92817200Y3500D03*
%TD*%
D10*
%TO.P,J3,1,Pin_1*%
%TO.N,GND*%
X-99817200Y13003500D03*
D11*
%TO.P,J3,2,Pin_2*%
%TO.N,/Outputs/DOUT3*%
X-96317200Y13003500D03*
%TO.P,J3,3,Pin_3*%
%TO.N,/Outputs/VOUT3*%
X-92817200Y13003500D03*
%TD*%
D10*
%TO.P,J1,1,Pin_1*%
%TO.N,GND*%
X-114817200Y13003500D03*
D11*
%TO.P,J1,2,Pin_2*%
%TO.N,/Outputs/DOUT1*%
X-111317200Y13003500D03*
%TO.P,J1,3,Pin_3*%
%TO.N,/Outputs/VOUT1*%
X-107817200Y13003500D03*
%TD*%
D12*
%TO.P,TB1,1,P1*%
%TO.N,VIN1*%
X-83952400Y-3012260D03*
D13*
%TO.P,TB1,2,P2*%
%TO.N,GND*%
X-83952400Y5237660D03*
%TD*%
D14*
%TO.P,F2,1_1,1*%
%TO.N,VIN1*%
X-106220200Y-20650100D03*
%TO.P,F2,1_2,1*%
X-106220200Y-16950100D03*
%TO.P,F2,2_1,2*%
%TO.N,/Outputs/VOUT2*%
X-106220200Y-12450100D03*
%TO.P,F2,2_2,2*%
X-106220200Y-8750100D03*
%TD*%
%TO.P,F4,1_1,1*%
%TO.N,VIN1*%
X-95044200Y-20650100D03*
%TO.P,F4,1_2,1*%
X-95044200Y-16950100D03*
%TO.P,F4,2_1,2*%
%TO.N,/Outputs/VOUT4*%
X-95044200Y-12450100D03*
%TO.P,F4,2_2,2*%
X-95044200Y-8750100D03*
%TD*%
%TO.P,F1,1_1,1*%
%TO.N,VIN1*%
X-111808200Y-20635100D03*
%TO.P,F1,1_2,1*%
X-111808200Y-16935100D03*
%TO.P,F1,2_1,2*%
%TO.N,/Outputs/VOUT1*%
X-111808200Y-12435100D03*
%TO.P,F1,2_2,2*%
X-111808200Y-8735100D03*
%TD*%
%TO.P,F3,1_1,1*%
%TO.N,VIN1*%
X-100632200Y-20650100D03*
%TO.P,F3,1_2,1*%
X-100632200Y-16950100D03*
%TO.P,F3,2_1,2*%
%TO.N,/Outputs/VOUT3*%
X-100632200Y-12450100D03*
%TO.P,F3,2_2,2*%
X-100632200Y-8750100D03*
%TD*%
D15*
%TO.P,C1,1*%
%TO.N,/PWR*%
X-127441200Y7785700D03*
%TO.P,C1,2*%
%TO.N,GND*%
X-125391200Y7785700D03*
%TD*%
D16*
%TO.P,J6,1,Pin_1*%
%TO.N,/PWR*%
X-125966200Y-3764300D03*
D17*
%TO.P,J6,2,Pin_2*%
%TO.N,/VIN*%
X-125966200Y-1224300D03*
%TO.P,J6,3,Pin_3*%
%TO.N,+5V*%
X-125966200Y1315700D03*
%TD*%
D18*
%TO.P,C2,1*%
%TO.N,+5V*%
X-124141200Y17535700D03*
%TO.P,C2,2*%
%TO.N,GND*%
X-126191200Y17535700D03*
%TD*%
D19*
%TO.P,R1,1*%
%TO.N,GND*%
X-85074200Y14033700D03*
%TO.P,R1,2*%
%TO.N,Net-(D2-K)*%
X-83324200Y14033700D03*
%TD*%
D20*
%TO.P,D3,1,K*%
%TO.N,Net-(D3-K)*%
X-80728700Y18690699D03*
%TO.P,D3,2,A*%
%TO.N,+5V*%
X-79103700Y18690699D03*
%TD*%
D19*
%TO.P,R2,1*%
%TO.N,GND*%
X-85074200Y18690699D03*
%TO.P,R2,2*%
%TO.N,Net-(D3-K)*%
X-83324200Y18690699D03*
%TD*%
D20*
%TO.P,D2,1,K*%
%TO.N,Net-(D2-K)*%
X-80728700Y14078700D03*
%TO.P,D2,2,A*%
%TO.N,VIN1*%
X-79103700Y14078700D03*
%TD*%
D21*
%TO.P,J7,1*%
%TO.N,/Diff In/Serial1_P*%
X-111366200Y38367700D03*
D22*
%TO.P,J7,2*%
%TO.N,/Diff In/Serial1_N*%
X-112636200Y35827700D03*
%TO.P,J7,3*%
%TO.N,/Diff In/Serial2_P*%
X-113906200Y38367700D03*
%TO.P,J7,4*%
%TO.N,/Diff In/Serial3_N*%
X-115176200Y35827700D03*
%TO.P,J7,5*%
%TO.N,/Diff In/Serial3_P*%
X-116446200Y38367700D03*
%TO.P,J7,6*%
%TO.N,/Diff In/Serial2_N*%
X-117716200Y35827700D03*
%TO.P,J7,7*%
%TO.N,/Diff In/Serial4_P*%
X-118986200Y38367700D03*
%TO.P,J7,8*%
%TO.N,/Diff In/Serial4_N*%
X-120256200Y35827700D03*
%TD*%
D23*
%TO.P,R3,1*%
%TO.N,/Diff In/Serial3_P*%
X-117868200Y31813700D03*
%TO.P,R3,2*%
%TO.N,/Diff In/Serial3_N*%
X-119618200Y31813700D03*
%TD*%
%TO.P,R4,1*%
%TO.N,/Diff In/Serial1_N*%
X-110066200Y31813700D03*
%TO.P,R4,2*%
%TO.N,/Diff In/Serial1_P*%
X-111816200Y31813700D03*
%TD*%
D19*
%TO.P,R5,1*%
%TO.N,/Diff In/Serial2_P*%
X-115191200Y31813700D03*
%TO.P,R5,2*%
%TO.N,/Diff In/Serial2_N*%
X-113441200Y31813700D03*
%TD*%
%TO.P,R6,1*%
%TO.N,/Diff In/Serial4_N*%
X-124190200Y31813700D03*
%TO.P,R6,2*%
%TO.N,/Diff In/Serial4_P*%
X-122440200Y31813700D03*
%TD*%
D24*
%TO.P,U3,1,INPUT_A-*%
%TO.N,/Diff In/Serial1_N*%
X-112003200Y28700700D03*
%TO.P,U3,2,INPUT_A+*%
%TO.N,/Diff In/Serial1_P*%
X-113273200Y28700700D03*
%TO.P,U3,3,OUT_A*%
%TO.N,OUT17*%
X-114543200Y28700700D03*
%TO.P,U3,4,EN*%
%TO.N,GND*%
X-115813200Y28700700D03*
%TO.P,U3,5,OUT_C*%
%TO.N,OUT19*%
X-117083200Y28700700D03*
%TO.P,U3,6,INPUT_C+*%
%TO.N,/Diff In/Serial3_P*%
X-118353200Y28700700D03*
%TO.P,U3,7,INPUT_C-*%
%TO.N,/Diff In/Serial3_N*%
X-119623200Y28700700D03*
%TO.P,U3,8,GND*%
%TO.N,GND*%
X-120893200Y28700700D03*
%TO.P,U3,9,INPUT_D-*%
%TO.N,/Diff In/Serial4_N*%
X-120893200Y23750700D03*
%TO.P,U3,10,INPUT_D+*%
%TO.N,/Diff In/Serial4_P*%
X-119623200Y23750700D03*
%TO.P,U3,11,OUT_D*%
%TO.N,OUT20*%
X-118353200Y23750700D03*
%TO.P,U3,12,EN_2*%
%TO.N,GND*%
X-117083200Y23750700D03*
%TO.P,U3,13,OUT_B*%
%TO.N,OUT18*%
X-115813200Y23750700D03*
%TO.P,U3,14,INPUT_B+*%
%TO.N,/Diff In/Serial2_P*%
X-114543200Y23750700D03*
%TO.P,U3,15,INPUT_B-*%
%TO.N,/Diff In/Serial2_N*%
X-113273200Y23750700D03*
%TO.P,U3,16,VCC*%
%TO.N,+5V*%
X-112003200Y23750700D03*
%TD*%
D25*
%TO.P,C3,1*%
%TO.N,+5V*%
X-110416200Y23635700D03*
%TO.P,C3,2*%
%TO.N,GND*%
X-110416200Y22665700D03*
%TD*%
D26*
%TO.P,D1,1,K*%
%TO.N,/VIN*%
X-125466200Y-7864300D03*
%TO.P,D1,2,A*%
%TO.N,VIN1*%
X-122166200Y-7864300D03*
%TD*%
D19*
%TO.P,R7,1*%
%TO.N,/Outputs/DOUT1*%
X-107641200Y19385700D03*
%TO.P,R7,2*%
%TO.N,Net-(U4-Y7)*%
X-105891200Y19385700D03*
%TD*%
%TO.P,R8,1*%
%TO.N,/Outputs/DOUT2*%
X-103841200Y19385700D03*
%TO.P,R8,2*%
%TO.N,Net-(U4-Y4)*%
X-102091200Y19385700D03*
%TD*%
D23*
%TO.P,R10,1*%
%TO.N,/Outputs/DOUT4*%
X-93141200Y19385700D03*
%TO.P,R10,2*%
%TO.N,Net-(U4-Y0)*%
X-94891200Y19385700D03*
%TD*%
D27*
%TO.P,U2,1,GND*%
%TO.N,GND*%
X-127316200Y14835700D03*
%TO.P,U2,2,VO*%
%TO.N,+5V*%
X-127316200Y12535700D03*
D28*
X-121016200Y12535700D03*
D27*
%TO.P,U2,3,VI*%
%TO.N,/PWR*%
X-127316200Y10235700D03*
%TD*%
D29*
%TO.P,C4,1*%
%TO.N,+5V*%
X-95316200Y23800700D03*
%TO.P,C4,2*%
%TO.N,GND*%
X-95316200Y24770700D03*
%TD*%
D23*
%TO.P,R9,1*%
%TO.N,/Outputs/DOUT3*%
X-96591200Y19385700D03*
%TO.P,R9,2*%
%TO.N,Net-(U4-Y2)*%
X-98341200Y19385700D03*
%TD*%
D30*
%TO.P,U4,1,G1*%
%TO.N,GND*%
X-96866200Y29610700D03*
%TO.P,U4,2,A0*%
%TO.N,OUT20*%
X-97516200Y29610700D03*
%TO.P,U4,3,A1*%
%TO.N,GND*%
X-98166200Y29610700D03*
%TO.P,U4,4,A2*%
%TO.N,OUT19*%
X-98816200Y29610700D03*
%TO.P,U4,5,A3*%
%TO.N,GND*%
X-99466200Y29610700D03*
%TO.P,U4,6,A4*%
%TO.N,OUT18*%
X-100116200Y29610700D03*
%TO.P,U4,7,A5*%
%TO.N,GND*%
X-100766200Y29610700D03*
%TO.P,U4,8,A6*%
X-101416200Y29610700D03*
%TO.P,U4,9,A7*%
%TO.N,OUT17*%
X-102066200Y29610700D03*
%TO.P,U4,10,GND*%
%TO.N,GND*%
X-102716200Y29610700D03*
%TO.P,U4,11,Y7*%
%TO.N,Net-(U4-Y7)*%
X-102716200Y23885700D03*
%TO.P,U4,12,Y6*%
%TO.N,unconnected-(U4-Y6-Pad12)*%
X-102066200Y23885700D03*
%TO.P,U4,13,Y5*%
%TO.N,unconnected-(U4-Y5-Pad13)*%
X-101416200Y23885700D03*
%TO.P,U4,14,Y4*%
%TO.N,Net-(U4-Y4)*%
X-100766200Y23885700D03*
%TO.P,U4,15,Y3*%
%TO.N,unconnected-(U4-Y3-Pad15)*%
X-100116200Y23885700D03*
%TO.P,U4,16,Y2*%
%TO.N,Net-(U4-Y2)*%
X-99466200Y23885700D03*
%TO.P,U4,17,Y1*%
%TO.N,unconnected-(U4-Y1-Pad17)*%
X-98816200Y23885700D03*
%TO.P,U4,18,Y0*%
%TO.N,Net-(U4-Y0)*%
X-98166200Y23885700D03*
%TO.P,U4,19,G2*%
%TO.N,GND*%
X-97516200Y23885700D03*
%TO.P,U4,20,VCC*%
%TO.N,+5V*%
X-96866200Y23885700D03*
%TD*%
D31*
%TO.N,GND*%
X-115816200Y30485700D03*
X-89016200Y33845700D03*
X-89016200Y28765700D03*
X-83936200Y33845700D03*
X-119496200Y26479700D03*
X-109336200Y-9334300D03*
X-129656200Y33845700D03*
X-99176200Y16065700D03*
X-115686200Y-9080300D03*
X-126216200Y19585700D03*
X-124576200Y23685700D03*
X-117316200Y21585700D03*
X-110416200Y21285700D03*
X-80316200Y8885700D03*
X-85016200Y15485700D03*
X-89016200Y5905700D03*
X-114416200Y44005700D03*
X-114416200Y16065700D03*
X-91556200Y-9334300D03*
X-83816200Y23885700D03*
X-104256200Y44005700D03*
X-129656200Y23685700D03*
X-78856200Y10985700D03*
X-130926200Y-444300D03*
X-125316200Y5885700D03*
X-129656200Y28765700D03*
X-129416200Y14785700D03*
X-121782200Y-190300D03*
X-124576200Y44005700D03*
X-106796200Y16065700D03*
X-95416200Y25885700D03*
X-89016200Y18605700D03*
X-87216200Y3685700D03*
X-122036200Y16065700D03*
X-107066200Y23885700D03*
X-97906200Y-9334300D03*
X-83936200Y38925700D03*
X-83936200Y44005700D03*
X-107316200Y21635700D03*
X-103916200Y29585700D03*
X-121020200Y30543700D03*
X-94096200Y44005700D03*
X-89016200Y13525700D03*
X-85216200Y17285700D03*
X-116956200Y44005700D03*
X-78856200Y28765700D03*
X-131180200Y-8572300D03*
X-89016200Y38925700D03*
X-119242200Y7683700D03*
X-78856200Y23685700D03*
X-82816200Y8885700D03*
X-83936200Y28765700D03*
X-111716200Y21285700D03*
X-95316200Y22385700D03*
X-123416200Y7785700D03*
X-95716200Y29585700D03*
X-86984200Y18605700D03*
X-129656200Y44005700D03*
X-89016200Y23885700D03*
X-86516200Y13985700D03*
X-96516200Y25885700D03*
X-78856200Y33845700D03*
X-106796200Y3365700D03*
X-99176200Y44005700D03*
X-102916200Y31685700D03*
X-103494200Y-9334300D03*
X-89016200Y44005700D03*
X-96816200Y31485700D03*
X-118226200Y-6540300D03*
X-121020200Y-10604300D03*
X-79016200Y3685700D03*
X-98616200Y25585700D03*
X-94096200Y38925700D03*
X-78856200Y5905700D03*
X-101716200Y16065700D03*
X-124576200Y38925700D03*
X-99176200Y38925700D03*
X-125016200Y10185700D03*
X-124576200Y33845700D03*
X-129416200Y17585700D03*
X-78856200Y44005700D03*
X-105816200Y31685700D03*
X-110216200Y28685700D03*
X-85316200Y8885700D03*
X-104256200Y38925700D03*
X-99176200Y-4254300D03*
X-87816200Y8885700D03*
X-128016200Y17585700D03*
X-85116200Y12485700D03*
X-85206200Y20085700D03*
%TO.N,+5V*%
X-108816200Y23685700D03*
X-108816200Y29385700D03*
%TO.N,VIN1*%
X-82816200Y-16114300D03*
X-82816200Y-11114300D03*
X-82816200Y-6114300D03*
X-87816200Y-21114300D03*
X-80316200Y-1114300D03*
X-85316200Y-6114300D03*
X-92816200Y-21114300D03*
X-77816200Y-1114300D03*
X-87816200Y-16114300D03*
X-87816200Y-11114300D03*
X-87816200Y-3614300D03*
X-77816200Y-16114300D03*
X-77816200Y-21114300D03*
X-77816200Y-6114300D03*
X-87816200Y-6114300D03*
X-82816200Y-21114300D03*
X-80316200Y-6114300D03*
X-92816200Y-16114300D03*
X-87816200Y-1114300D03*
X-80316200Y-3614300D03*
%TO.N,OUT18*%
X-116191190Y26885700D03*
X-115842639Y21629933D03*
%TO.N,/Diff In/Serial2_N*%
X-113710241Y32885686D03*
X-113316200Y21685700D03*
%TO.N,/Diff In/Serial3_N*%
X-117321210Y33958710D03*
%TO.N,/Diff In/Serial2_P*%
X-116416200Y31885704D03*
X-114566200Y21635700D03*
%TO.N,/Diff In/Serial1_P*%
X-111816200Y33385700D03*
%TD*%
D32*
%TO.N,GND*%
X-97516200Y24885700D02*
X-96516200Y25885700D01*
X-115813200Y28700700D02*
X-115813200Y29187674D01*
X-115813200Y29187674D02*
X-115813200Y27982700D01*
X-103891200Y29610700D02*
X-103916200Y29585700D01*
X-97516200Y23885700D02*
X-97516200Y24885700D01*
X-102716200Y29610700D02*
X-103891200Y29610700D01*
D33*
%TO.N,+5V*%
X-94916200Y33085700D02*
X-107216200Y33085700D01*
D34*
X-109116200Y19485700D02*
X-109116200Y23385700D01*
X-129166200Y12535700D02*
X-127316200Y12535700D01*
D32*
X-96731200Y23800700D02*
X-96816200Y23885700D01*
D34*
X-124141200Y12560700D02*
X-124166200Y12535700D01*
D33*
X-93916200Y32085700D02*
X-94916200Y33085700D01*
X-79103700Y18690699D02*
X-79103700Y20473200D01*
D34*
X-125966200Y1315700D02*
X-128946200Y1315700D01*
D33*
X-95316200Y23800700D02*
X-96731200Y23800700D01*
X-111888200Y23635700D02*
X-112003200Y23750700D01*
X-110416200Y23635700D02*
X-108866200Y23635700D01*
D34*
X-129816200Y11885700D02*
X-129166200Y12535700D01*
D33*
X-92266200Y22135700D02*
X-93916200Y23785700D01*
X-93916200Y23785700D02*
X-93916200Y32085700D01*
X-79103700Y20473200D02*
X-80766200Y22135700D01*
X-95316200Y23800700D02*
X-93931200Y23800700D01*
X-80766200Y22135700D02*
X-92266200Y22135700D01*
D34*
X-109616200Y18985700D02*
X-109116200Y19485700D01*
D33*
X-107216200Y33085700D02*
X-108816200Y31485700D01*
D34*
X-129816200Y2185700D02*
X-129816200Y11885700D01*
X-109116200Y23385700D02*
X-108816200Y23685700D01*
X-128946200Y1315700D02*
X-129816200Y2185700D01*
X-121016200Y12535700D02*
X-127316200Y12535700D01*
D33*
X-108816200Y31485700D02*
X-108816200Y29385700D01*
X-108866200Y23635700D02*
X-108816200Y23685700D01*
D32*
X-93931200Y23800700D02*
X-93916200Y23785700D01*
D34*
X-124141200Y17535700D02*
X-124141200Y12560700D01*
X-124141200Y17535700D02*
X-122691200Y18985700D01*
X-124166200Y12535700D02*
X-127316200Y12535700D01*
X-122691200Y18985700D02*
X-109616200Y18985700D01*
D33*
X-110416200Y23635700D02*
X-111888200Y23635700D01*
D34*
%TO.N,VIN1*%
X-76491200Y14078700D02*
X-73866210Y11453710D01*
X-79103700Y14078700D02*
X-76491200Y14078700D01*
X-111808200Y-16772300D02*
X-111808200Y-16935100D01*
X-122166200Y-7864300D02*
X-120716200Y-7864300D01*
X-73866210Y11453710D02*
X-73866210Y-1114300D01*
X-73866210Y-1114300D02*
X-77816200Y-1114300D01*
X-120716200Y-7864300D02*
X-111808200Y-16772300D01*
D35*
%TO.N,OUT20*%
X-97516200Y28185700D02*
X-97516200Y29610700D01*
X-118353200Y24848700D02*
X-118001190Y25200710D01*
X-100501190Y25200710D02*
X-97516200Y28185700D01*
X-118001190Y25200710D02*
X-100501190Y25200710D01*
X-118353200Y23750700D02*
X-118353200Y24848700D01*
%TO.N,OUT19*%
X-98816200Y28285700D02*
X-98816200Y29610700D01*
X-116476225Y25750721D02*
X-101351179Y25750721D01*
X-101351179Y25750721D02*
X-98816200Y28285700D01*
X-117083200Y28700700D02*
X-117083200Y26357696D01*
X-117083200Y26357696D02*
X-116476225Y25750721D01*
%TO.N,OUT18*%
X-100116200Y27985700D02*
X-100116200Y29610700D01*
X-115813200Y23750700D02*
X-115813200Y21659372D01*
X-115591190Y26285700D02*
X-101816200Y26285700D01*
X-116191190Y26885700D02*
X-115591190Y26285700D01*
X-115813200Y21659372D02*
X-115842639Y21629933D01*
X-101816200Y26285700D02*
X-100116200Y27985700D01*
%TO.N,OUT17*%
X-114543200Y28700700D02*
X-114543200Y27725700D01*
X-102066200Y28235700D02*
X-102066200Y29610700D01*
X-114543200Y27725700D02*
X-114168200Y27350700D01*
X-102951200Y27350700D02*
X-102066200Y28235700D01*
X-114168200Y27350700D02*
X-102951200Y27350700D01*
%TO.N,Net-(D2-K)*%
X-80773700Y14033700D02*
X-80728700Y14078700D01*
X-83411700Y14033700D02*
X-80773700Y14033700D01*
%TO.N,Net-(D3-K)*%
X-83324200Y18690699D02*
X-80728700Y18690699D01*
D36*
%TO.N,/Outputs/VOUT1*%
X-115817200Y7003500D02*
X-118457200Y4363500D01*
D37*
X-110968200Y7003500D02*
X-107817200Y10154500D01*
X-107817200Y10154500D02*
X-107817200Y13003500D01*
X-115817200Y7003500D02*
X-110968200Y7003500D01*
X-111808200Y-12435100D02*
X-111808200Y-8735100D01*
X-118457200Y4363500D02*
X-118457200Y-2473300D01*
X-118457200Y-2473300D02*
X-112195400Y-8735100D01*
X-112195400Y-8735100D02*
X-111808200Y-8735100D01*
%TO.N,/Outputs/VOUT2*%
X-106220200Y-12450100D02*
X-106220200Y-8750100D01*
X-106220200Y-8750100D02*
X-107817200Y-7153100D01*
X-107817200Y-7153100D02*
X-107817200Y3500D01*
%TO.N,/Outputs/VOUT3*%
X-103232200Y-6150100D02*
X-103232200Y4162300D01*
X-100632200Y-8750100D02*
X-103232200Y-6150100D01*
X-100604600Y6789900D02*
X-96404600Y6789900D01*
X-92817200Y10377300D02*
X-92817200Y13003500D01*
X-96404600Y6789900D02*
X-92817200Y10377300D01*
X-100632200Y-12450100D02*
X-100632200Y-8750100D01*
X-103232200Y4162300D02*
X-100604600Y6789900D01*
%TO.N,/Outputs/VOUT4*%
X-95044200Y-4650100D02*
X-95044200Y-8750100D01*
X-95044200Y-8750100D02*
X-95044200Y-12450100D01*
X-92817200Y-2423100D02*
X-95044200Y-4650100D01*
X-92817200Y3500D02*
X-92817200Y-2423100D01*
D33*
%TO.N,/Outputs/DOUT1*%
X-111317200Y14584700D02*
X-111317200Y13003500D01*
X-107641200Y18260700D02*
X-111317200Y14584700D01*
X-107641200Y19385700D02*
X-107641200Y18260700D01*
%TO.N,/Outputs/DOUT2*%
X-103816200Y19360700D02*
X-103816200Y10085700D01*
X-111317200Y2584700D02*
X-111317200Y3500D01*
X-103816200Y10085700D02*
X-111317200Y2584700D01*
X-103841200Y19385700D02*
X-103816200Y19360700D01*
%TO.N,/Outputs/DOUT3*%
X-96416200Y13102500D02*
X-96317200Y13003500D01*
X-96441200Y19235700D02*
X-96441200Y13127500D01*
X-96441200Y13127500D02*
X-96317200Y13003500D01*
X-96591200Y19385700D02*
X-96441200Y19235700D01*
%TO.N,/Outputs/DOUT4*%
X-96317200Y2634700D02*
X-96317200Y3500D01*
X-93141200Y19110700D02*
X-90316200Y16285700D01*
X-90316200Y8635700D02*
X-96317200Y2634700D01*
X-93141200Y19385700D02*
X-93141200Y19110700D01*
X-90316200Y16285700D02*
X-90316200Y8635700D01*
D34*
%TO.N,/PWR*%
X-124594200Y-3764300D02*
X-123616200Y-2786300D01*
X-123616200Y2085700D02*
X-127441200Y5910700D01*
X-127316200Y10235700D02*
X-127316200Y7910700D01*
X-127441200Y5910700D02*
X-127441200Y7785700D01*
D33*
X-127316200Y7910700D02*
X-127441200Y7785700D01*
D34*
X-125966200Y-3764300D02*
X-124594200Y-3764300D01*
X-123616200Y-2786300D02*
X-123616200Y2085700D01*
D35*
%TO.N,/Diff In/Serial4_N*%
X-120256200Y35827700D02*
X-124270200Y31813700D01*
X-124340200Y27197700D02*
X-120893200Y23750700D01*
X-124340200Y31813700D02*
X-124340200Y27197700D01*
X-124270200Y31813700D02*
X-124340200Y31813700D01*
%TO.N,/Diff In/Serial4_P*%
X-118986200Y35117700D02*
X-122290200Y31813700D01*
X-119623200Y23750700D02*
X-119623200Y24198178D01*
X-122290200Y26865178D02*
X-122290200Y31813700D01*
X-118986200Y38367700D02*
X-118986200Y35117700D01*
X-119623200Y24198178D02*
X-122290200Y26865178D01*
%TO.N,/Diff In/Serial2_N*%
X-113273200Y23750700D02*
X-113273200Y21728700D01*
X-113710241Y32082741D02*
X-113710241Y32885686D01*
X-113273200Y21728700D02*
X-113316200Y21685700D01*
X-113441200Y31813700D02*
X-113710241Y32082741D01*
%TO.N,/Diff In/Serial3_P*%
X-116446200Y33300704D02*
X-118353200Y31393704D01*
X-118353200Y31393704D02*
X-118353200Y29675700D01*
X-116446200Y38367700D02*
X-116446200Y33300704D01*
X-118353200Y29675700D02*
X-118353200Y28700700D01*
%TO.N,/Diff In/Serial3_N*%
X-119768200Y31813700D02*
X-119768200Y32513700D01*
X-119768200Y32513700D02*
X-118323190Y33958710D01*
X-118323190Y33958710D02*
X-117321210Y33958710D01*
X-119623200Y31668700D02*
X-119768200Y31813700D01*
X-119623200Y28700700D02*
X-119623200Y31668700D01*
%TO.N,/Diff In/Serial2_P*%
X-113906200Y38367700D02*
X-113906200Y34995700D01*
X-114543200Y21658700D02*
X-114566200Y21635700D01*
X-113906200Y34995700D02*
X-115191200Y33710700D01*
X-115191200Y33710700D02*
X-115191200Y31813700D01*
X-116344196Y31813700D02*
X-116416200Y31885704D01*
X-114543200Y23750700D02*
X-114543200Y21658700D01*
X-115191200Y31813700D02*
X-116344196Y31813700D01*
%TO.N,/Diff In/Serial1_N*%
X-112636200Y35827700D02*
X-110066200Y33257700D01*
X-112003200Y29876700D02*
X-110066200Y31813700D01*
X-110066200Y33257700D02*
X-110066200Y31813700D01*
X-112003200Y28700700D02*
X-112003200Y29876700D01*
%TO.N,/Diff In/Serial1_P*%
X-111816200Y31813700D02*
X-111816200Y33385700D01*
X-111816200Y31338700D02*
X-111816200Y31813700D01*
X-113273200Y28700700D02*
X-113273200Y29881700D01*
X-113273200Y29881700D02*
X-111816200Y31338700D01*
D33*
%TO.N,Net-(U4-Y7)*%
X-102716200Y22560700D02*
X-105891200Y19385700D01*
X-102716200Y23885700D02*
X-102716200Y22560700D01*
%TO.N,Net-(U4-Y4)*%
X-100766200Y20710700D02*
X-102091200Y19385700D01*
X-100766200Y23885700D02*
X-100766200Y20710700D01*
%TO.N,Net-(U4-Y2)*%
X-98341200Y19385700D02*
X-98341200Y19410700D01*
X-98341200Y19410700D02*
X-99466200Y20535700D01*
X-99466200Y20535700D02*
X-99466200Y23885700D01*
%TO.N,Net-(U4-Y0)*%
X-98166200Y22660700D02*
X-94891200Y19385700D01*
X-98166200Y23885700D02*
X-98166200Y22660700D01*
D34*
%TO.N,/VIN*%
X-127566200Y-7864300D02*
X-128616200Y-6814300D01*
X-128616200Y-6814300D02*
X-128616200Y-2114300D01*
X-127726200Y-1224300D02*
X-125966200Y-1224300D01*
X-128616200Y-2114300D02*
X-127726200Y-1224300D01*
X-125466200Y-7864300D02*
X-127566200Y-7864300D01*
%TD*%
%TA.AperFunction,Conductor*%
%TO.N,GND*%
G36*
X-73807507Y47754775D02*
G01*
X-73670385Y47713180D01*
X-73647578Y47703733D01*
X-73522047Y47636636D01*
X-73496573Y47623019D01*
X-73476035Y47609296D01*
X-73343686Y47500680D01*
X-73326221Y47483215D01*
X-73217605Y47350866D01*
X-73203882Y47330328D01*
X-73123172Y47179331D01*
X-73113720Y47156511D01*
X-73072126Y47019394D01*
X-73066700Y46982818D01*
X-73066700Y12019757D01*
X-73086702Y11951636D01*
X-73140358Y11905143D01*
X-73210632Y11895039D01*
X-73275212Y11924533D01*
X-73281795Y11930662D01*
X-73387794Y12036661D01*
X-76012780Y14661649D01*
X-76012784Y14661652D01*
X-76086471Y14710887D01*
X-76119994Y14733286D01*
X-76135705Y14743784D01*
X-76135707Y14743785D01*
X-76272284Y14800357D01*
X-76272287Y14800358D01*
X-76417282Y14829200D01*
X-79177618Y14829200D01*
X-79225950Y14819586D01*
X-79322615Y14800358D01*
X-79322620Y14800356D01*
X-79410894Y14763791D01*
X-79459112Y14754200D01*
X-79559475Y14754200D01*
X-79590754Y14751267D01*
X-79722486Y14705171D01*
X-79722489Y14705170D01*
X-79722489Y14705169D01*
X-79745880Y14687906D01*
X-79834791Y14622288D01*
X-79850155Y14601470D01*
X-79906700Y14558539D01*
X-79977480Y14552994D01*
X-80040022Y14586595D01*
X-80040628Y14587198D01*
X-80082920Y14629490D01*
X-80199484Y14688882D01*
X-80218828Y14691946D01*
X-80296197Y14704200D01*
X-80296201Y14704200D01*
X-81161201Y14704200D01*
X-81257914Y14688883D01*
X-81374481Y14629490D01*
X-81466988Y14536983D01*
X-81466991Y14536979D01*
X-81497042Y14477998D01*
X-81545790Y14426382D01*
X-81609309Y14409200D01*
X-82532708Y14409200D01*
X-82600829Y14429202D01*
X-82639091Y14470864D01*
X-82639477Y14470578D01*
X-82642132Y14474176D01*
X-82644108Y14476327D01*
X-82645083Y14478171D01*
X-82645084Y14478175D01*
X-82723489Y14584411D01*
X-82807673Y14646541D01*
X-82829726Y14662817D01*
X-82829725Y14662817D01*
X-82954346Y14706424D01*
X-82954351Y14706425D01*
X-82983942Y14709200D01*
X-82983944Y14709200D01*
X-83664456Y14709200D01*
X-83664459Y14709200D01*
X-83694050Y14706425D01*
X-83694055Y14706424D01*
X-83818675Y14662817D01*
X-83924911Y14584411D01*
X-84003317Y14478175D01*
X-84046924Y14353555D01*
X-84046925Y14353550D01*
X-84049700Y14323959D01*
X-84049700Y13743442D01*
X-84046925Y13713851D01*
X-84046924Y13713846D01*
X-84003317Y13589226D01*
X-83989277Y13570203D01*
X-83924911Y13482989D01*
X-83818675Y13404584D01*
X-83818676Y13404584D01*
X-83694055Y13360977D01*
X-83694049Y13360975D01*
X-83664456Y13358200D01*
X-83664453Y13358200D01*
X-82983947Y13358200D01*
X-82983944Y13358200D01*
X-82954351Y13360975D01*
X-82829725Y13404584D01*
X-82723489Y13482989D01*
X-82645084Y13589225D01*
X-82645082Y13589233D01*
X-82644108Y13591073D01*
X-82642502Y13592724D01*
X-82639477Y13596822D01*
X-82638917Y13596409D01*
X-82594594Y13641955D01*
X-82532708Y13658200D01*
X-81556961Y13658200D01*
X-81488840Y13638198D01*
X-81467866Y13621296D01*
X-81466990Y13620420D01*
X-81466989Y13620419D01*
X-81374481Y13527911D01*
X-81257915Y13468518D01*
X-81161203Y13453200D01*
X-80296198Y13453201D01*
X-80199485Y13468518D01*
X-80082919Y13527911D01*
X-80040625Y13570206D01*
X-79978317Y13604228D01*
X-79907502Y13599164D01*
X-79850666Y13556618D01*
X-79850172Y13555955D01*
X-79834789Y13535111D01*
X-79722489Y13452231D01*
X-79722486Y13452230D01*
X-79590753Y13406134D01*
X-79590751Y13406134D01*
X-79590749Y13406133D01*
X-79559472Y13403200D01*
X-79459112Y13403200D01*
X-79410894Y13393609D01*
X-79358503Y13371908D01*
X-79322613Y13357042D01*
X-79177618Y13328200D01*
X-76854258Y13328200D01*
X-76786137Y13308198D01*
X-76765163Y13291295D01*
X-74653615Y11179748D01*
X-74619590Y11117436D01*
X-74616710Y11090653D01*
X-74616710Y2511700D01*
X-74636712Y2443579D01*
X-74690368Y2397086D01*
X-74742710Y2385700D01*
X-90816200Y2385700D01*
X-90816200Y1385707D01*
X-90816200Y-10608112D01*
X-90816807Y-10620463D01*
X-90834199Y-10797038D01*
X-90839017Y-10821262D01*
X-90888718Y-10985108D01*
X-90898171Y-11007929D01*
X-90978882Y-11158927D01*
X-90992605Y-11179465D01*
X-91101221Y-11311814D01*
X-91118686Y-11329279D01*
X-91251035Y-11437895D01*
X-91271573Y-11451618D01*
X-91422571Y-11532329D01*
X-91445392Y-11541782D01*
X-91609238Y-11591483D01*
X-91633462Y-11596301D01*
X-91781927Y-11610924D01*
X-91810039Y-11613693D01*
X-91822387Y-11614300D01*
X-93217700Y-11614300D01*
X-93285821Y-11594298D01*
X-93332314Y-11540642D01*
X-93343700Y-11488300D01*
X-93343700Y-5406659D01*
X-93323698Y-5338538D01*
X-93306800Y-5317569D01*
X-91699045Y-3709813D01*
X-91699027Y-3709798D01*
X-91535963Y-3546734D01*
X-91535953Y-3546724D01*
X-91400252Y-3369874D01*
X-91288795Y-3176826D01*
X-91233214Y-3042642D01*
X-91203489Y-2970880D01*
X-91145796Y-2755563D01*
X-91116699Y-2534556D01*
X-91116699Y-2311643D01*
X-91116699Y-2307742D01*
X-91116700Y-2307708D01*
X-91116700Y114950D01*
X-91116700Y114957D01*
X-91145796Y335963D01*
X-91203490Y551281D01*
X-91288795Y757226D01*
X-91400252Y950274D01*
X-91535953Y1127124D01*
X-91535954Y1127125D01*
X-91535963Y1127135D01*
X-91693566Y1284738D01*
X-91693583Y1284753D01*
X-91806845Y1371661D01*
X-91842409Y1414422D01*
X-91875968Y1480288D01*
X-91977786Y1620428D01*
X-91977788Y1620431D01*
X-92100270Y1742913D01*
X-92240412Y1844732D01*
X-92394748Y1923370D01*
X-92394752Y1923372D01*
X-92394755Y1923373D01*
X-92559499Y1976902D01*
X-92730589Y2004000D01*
X-92903811Y2004000D01*
X-93074901Y1976902D01*
X-93074904Y1976902D01*
X-93074905Y1976901D01*
X-93153947Y1951219D01*
X-93239645Y1923373D01*
X-93239647Y1923373D01*
X-93239653Y1923370D01*
X-93393989Y1844732D01*
X-93534131Y1742913D01*
X-93656613Y1620431D01*
X-93758432Y1480289D01*
X-93791995Y1414419D01*
X-93827556Y1371661D01*
X-93940825Y1284746D01*
X-93940840Y1284733D01*
X-94098438Y1127135D01*
X-94098447Y1127125D01*
X-94234151Y950271D01*
X-94345599Y757238D01*
X-94345604Y757228D01*
X-94345605Y757226D01*
X-94408118Y606306D01*
X-94430910Y551281D01*
X-94488606Y335957D01*
X-94517700Y114960D01*
X-94517700Y-1666539D01*
X-94537702Y-1734660D01*
X-94554605Y-1755634D01*
X-95383726Y-2584755D01*
X-96167820Y-3368849D01*
X-96167824Y-3368853D01*
X-96219041Y-3420070D01*
X-96325445Y-3526473D01*
X-96325447Y-3526475D01*
X-96461151Y-3703329D01*
X-96572599Y-3896362D01*
X-96572604Y-3896372D01*
X-96657910Y-4102319D01*
X-96715606Y-4317644D01*
X-96744701Y-4538642D01*
X-96744701Y-4766013D01*
X-96744700Y-4766042D01*
X-96744700Y-11488300D01*
X-96764702Y-11556421D01*
X-96818358Y-11602914D01*
X-96870700Y-11614300D01*
X-98805700Y-11614300D01*
X-98873821Y-11594298D01*
X-98920314Y-11540642D01*
X-98931700Y-11488300D01*
X-98931700Y-8638650D01*
X-98931700Y-8638643D01*
X-98960796Y-8417637D01*
X-99018490Y-8202319D01*
X-99103795Y-7996374D01*
X-99137374Y-7938213D01*
X-99215250Y-7803329D01*
X-99225184Y-7790383D01*
X-99350953Y-7626476D01*
X-99350954Y-7626475D01*
X-99350963Y-7626465D01*
X-99511022Y-7466406D01*
X-99511061Y-7466369D01*
X-101494795Y-5482635D01*
X-101528821Y-5420323D01*
X-101531700Y-5393540D01*
X-101531700Y-1600709D01*
X-100917199Y-1600709D01*
X-100914349Y-1631106D01*
X-100914348Y-1631109D01*
X-100869547Y-1759144D01*
X-100869547Y-1759145D01*
X-100788993Y-1868292D01*
X-100679848Y-1948844D01*
X-100567200Y-1988261D01*
X-99067200Y-1988261D01*
X-98954553Y-1948844D01*
X-98845408Y-1868292D01*
X-98764854Y-1759145D01*
X-98764854Y-1759144D01*
X-98720053Y-1631110D01*
X-98720052Y-1631105D01*
X-98717201Y-1600705D01*
X-98717200Y-1600699D01*
X-98717200Y-746500D01*
X-99067200Y-746500D01*
X-99067200Y-1988261D01*
X-100567200Y-1988261D01*
X-100567200Y-746500D01*
X-100917199Y-746500D01*
X-100917199Y-1600709D01*
X-101531700Y-1600709D01*
X-101531700Y82491D01*
X-100417200Y82491D01*
X-100417200Y-75491D01*
X-100376311Y-228091D01*
X-100297319Y-364908D01*
X-100185608Y-476619D01*
X-100048791Y-555611D01*
X-99896191Y-596500D01*
X-99738209Y-596500D01*
X-99585609Y-555611D01*
X-99448792Y-476619D01*
X-99337081Y-364908D01*
X-99258089Y-228091D01*
X-99217200Y-75491D01*
X-99217200Y82491D01*
X-99258089Y235091D01*
X-99337081Y371908D01*
X-99448792Y483619D01*
X-99585609Y562611D01*
X-99738209Y603500D01*
X-99896191Y603500D01*
X-100048791Y562611D01*
X-100185608Y483619D01*
X-100297319Y371908D01*
X-100376311Y235091D01*
X-100417200Y82491D01*
X-101531700Y82491D01*
X-101531700Y1607706D01*
X-100917200Y1607706D01*
X-100917200Y753500D01*
X-100567200Y753500D01*
X-99067200Y753500D01*
X-98717201Y753500D01*
X-98717201Y990111D01*
X-97417700Y990111D01*
X-97417700Y-983111D01*
X-97390602Y-1154201D01*
X-97337073Y-1318945D01*
X-97337072Y-1318948D01*
X-97337070Y-1318952D01*
X-97258432Y-1473288D01*
X-97156613Y-1613430D01*
X-97034131Y-1735912D01*
X-97034128Y-1735914D01*
X-96893988Y-1837732D01*
X-96739645Y-1916373D01*
X-96574901Y-1969902D01*
X-96403811Y-1997000D01*
X-96403808Y-1997000D01*
X-96230592Y-1997000D01*
X-96230589Y-1997000D01*
X-96059499Y-1969902D01*
X-95894755Y-1916373D01*
X-95740412Y-1837732D01*
X-95600272Y-1735914D01*
X-95477786Y-1613428D01*
X-95375968Y-1473288D01*
X-95297327Y-1318945D01*
X-95243798Y-1154201D01*
X-95216700Y-983111D01*
X-95216700Y990111D01*
X-95243798Y1161201D01*
X-95297327Y1325945D01*
X-95375968Y1480288D01*
X-95477786Y1620428D01*
X-95477788Y1620431D01*
X-95600270Y1742913D01*
X-95740410Y1844731D01*
X-95797903Y1874025D01*
X-95849518Y1922774D01*
X-95866700Y1986292D01*
X-95866700Y2395907D01*
X-95846698Y2464028D01*
X-95829795Y2485002D01*
X-94686822Y3627975D01*
X-84501426Y3627975D01*
X-84331753Y3575637D01*
X-84331745Y3575636D01*
X-84079793Y3537660D01*
X-83825007Y3537660D01*
X-83573056Y3575636D01*
X-83573048Y3575637D01*
X-83403375Y3627976D01*
X-83952399Y4177000D01*
X-83952400Y4177000D01*
X-84501426Y3627975D01*
X-94686822Y3627975D01*
X-93077137Y5237660D01*
X-85657167Y5237660D01*
X-85638125Y4983574D01*
X-85581430Y4735173D01*
X-85581428Y4735168D01*
X-85562862Y4687861D01*
X-85562861Y4687861D01*
X-85013060Y5237661D01*
X-85086928Y5311529D01*
X-84702400Y5311529D01*
X-84702400Y5163791D01*
X-84673578Y5018893D01*
X-84617041Y4882402D01*
X-84534963Y4759563D01*
X-84430497Y4655097D01*
X-84307658Y4573019D01*
X-84171167Y4516482D01*
X-84026269Y4487660D01*
X-83878531Y4487660D01*
X-83733633Y4516482D01*
X-83597142Y4573019D01*
X-83474303Y4655097D01*
X-83369837Y4759563D01*
X-83287759Y4882402D01*
X-83231222Y5018893D01*
X-83202400Y5163791D01*
X-83202400Y5237661D01*
X-82891740Y5237661D01*
X-82341940Y4687861D01*
X-82323374Y4735164D01*
X-82323370Y4735178D01*
X-82266676Y4983574D01*
X-82247634Y5237660D01*
X-82266676Y5491747D01*
X-82323371Y5740147D01*
X-82341940Y5787461D01*
X-82341941Y5787461D01*
X-82891740Y5237661D01*
X-83202400Y5237661D01*
X-83202400Y5311529D01*
X-83231222Y5456427D01*
X-83287759Y5592918D01*
X-83369837Y5715757D01*
X-83474303Y5820223D01*
X-83597142Y5902301D01*
X-83733633Y5958838D01*
X-83878531Y5987660D01*
X-84026269Y5987660D01*
X-84171167Y5958838D01*
X-84307658Y5902301D01*
X-84430497Y5820223D01*
X-84534963Y5715757D01*
X-84617041Y5592918D01*
X-84673578Y5456427D01*
X-84702400Y5311529D01*
X-85086928Y5311529D01*
X-85562860Y5787461D01*
X-85562862Y5787461D01*
X-85581430Y5740148D01*
X-85581430Y5740147D01*
X-85638125Y5491747D01*
X-85657167Y5237660D01*
X-93077137Y5237660D01*
X-91467450Y6847346D01*
X-84501427Y6847346D01*
X-83952401Y6298320D01*
X-83952400Y6298320D01*
X-83403376Y6847346D01*
X-83573044Y6899683D01*
X-83573056Y6899685D01*
X-83825007Y6937660D01*
X-84079793Y6937660D01*
X-84331745Y6899685D01*
X-84331757Y6899683D01*
X-84501426Y6847347D01*
X-84501427Y6847346D01*
X-91467450Y6847346D01*
X-89955717Y8359079D01*
X-89955717Y8359080D01*
X-89955710Y8359086D01*
X-89896401Y8461814D01*
X-89892056Y8478031D01*
X-89865700Y8576391D01*
X-89865700Y13558700D01*
X-85730167Y13558700D01*
X-85674555Y13483346D01*
X-85568442Y13405032D01*
X-85568442Y13405031D01*
X-85549201Y13398299D01*
X-85549200Y13398299D01*
X-84599200Y13398299D01*
X-84579959Y13405031D01*
X-84579959Y13405032D01*
X-84473846Y13483346D01*
X-84418233Y13558700D01*
X-84599200Y13558700D01*
X-84599200Y13398299D01*
X-85549200Y13398299D01*
X-85549200Y13558700D01*
X-85730167Y13558700D01*
X-89865700Y13558700D01*
X-89865700Y14508701D01*
X-85730167Y14508701D01*
X-85730166Y14508700D01*
X-85549200Y14508700D01*
X-84599200Y14508700D01*
X-84418234Y14508700D01*
X-84418234Y14508701D01*
X-84473846Y14584055D01*
X-84579961Y14662371D01*
X-84579960Y14662371D01*
X-84599200Y14669104D01*
X-84599200Y14508700D01*
X-85549200Y14508700D01*
X-85549200Y14669104D01*
X-85549201Y14669104D01*
X-85568440Y14662371D01*
X-85674555Y14584055D01*
X-85730167Y14508701D01*
X-89865700Y14508701D01*
X-89865700Y16345009D01*
X-89896401Y16459586D01*
X-89946190Y16545823D01*
X-89955711Y16562314D01*
X-89955714Y16562317D01*
X-89955717Y16562321D01*
X-91609096Y18215699D01*
X-85730167Y18215699D01*
X-85674555Y18140345D01*
X-85568442Y18062031D01*
X-85568442Y18062030D01*
X-85549201Y18055298D01*
X-85549200Y18055298D01*
X-84599200Y18055298D01*
X-84579959Y18062030D01*
X-84579959Y18062031D01*
X-84473846Y18140345D01*
X-84418233Y18215699D01*
X-84599200Y18215699D01*
X-84599200Y18055298D01*
X-85549200Y18055298D01*
X-85549200Y18215699D01*
X-85730167Y18215699D01*
X-91609096Y18215699D01*
X-92380086Y18986689D01*
X-92414111Y19049001D01*
X-92416440Y19087554D01*
X-92415701Y19095436D01*
X-92415700Y19095444D01*
X-92415700Y19165700D01*
X-85730167Y19165700D01*
X-85730166Y19165699D01*
X-85549200Y19165699D01*
X-84599200Y19165699D01*
X-84418234Y19165699D01*
X-84418234Y19165700D01*
X-84473846Y19241054D01*
X-84579961Y19319370D01*
X-84579960Y19319370D01*
X-84599200Y19326103D01*
X-84599200Y19165699D01*
X-85549200Y19165699D01*
X-85549200Y19326103D01*
X-85549201Y19326103D01*
X-85568440Y19319370D01*
X-85674555Y19241054D01*
X-85730167Y19165700D01*
X-92415700Y19165700D01*
X-92415700Y19675956D01*
X-92418475Y19705549D01*
X-92429415Y19736812D01*
X-92462084Y19830175D01*
X-92523810Y19913811D01*
X-92540489Y19936411D01*
X-92642500Y20011698D01*
X-92646726Y20014817D01*
X-92646725Y20014817D01*
X-92771346Y20058424D01*
X-92771351Y20058425D01*
X-92800942Y20061200D01*
X-92800944Y20061200D01*
X-93481456Y20061200D01*
X-93481459Y20061200D01*
X-93511050Y20058425D01*
X-93511055Y20058424D01*
X-93635675Y20014817D01*
X-93741911Y19936411D01*
X-93820317Y19830175D01*
X-93863924Y19705555D01*
X-93863925Y19705550D01*
X-93866700Y19675959D01*
X-93866700Y19095442D01*
X-93863925Y19065851D01*
X-93863924Y19065846D01*
X-93820317Y18941226D01*
X-93820316Y18941225D01*
X-93741911Y18834989D01*
X-93635675Y18756584D01*
X-93635676Y18756584D01*
X-93526084Y18718236D01*
X-93511049Y18712975D01*
X-93481456Y18710200D01*
X-93429993Y18710200D01*
X-93361872Y18690198D01*
X-93340898Y18673295D01*
X-90803605Y16136002D01*
X-90769579Y16073690D01*
X-90766700Y16046907D01*
X-90766700Y8874494D01*
X-90786702Y8806373D01*
X-90803605Y8785399D01*
X-96677684Y2911321D01*
X-96677692Y2911311D01*
X-96737000Y2808587D01*
X-96736999Y2808586D01*
X-96750396Y2758586D01*
X-96767700Y2694008D01*
X-96767700Y1986292D01*
X-96787702Y1918171D01*
X-96836497Y1874025D01*
X-96893991Y1844731D01*
X-97034131Y1742913D01*
X-97156613Y1620431D01*
X-97258432Y1480289D01*
X-97337070Y1325953D01*
X-97337073Y1325947D01*
X-97337073Y1325945D01*
X-97390602Y1161201D01*
X-97417700Y990111D01*
X-98717201Y990111D01*
X-98717201Y1607695D01*
X-98717202Y1607710D01*
X-98720052Y1638107D01*
X-98720053Y1638110D01*
X-98764854Y1766145D01*
X-98764854Y1766146D01*
X-98845408Y1875293D01*
X-98954552Y1955844D01*
X-98954554Y1955846D01*
X-99067200Y1995263D01*
X-99067200Y753500D01*
X-100567200Y753500D01*
X-100567200Y1995263D01*
X-100679847Y1955846D01*
X-100679849Y1955844D01*
X-100788993Y1875293D01*
X-100869547Y1766146D01*
X-100869547Y1766145D01*
X-100914348Y1638111D01*
X-100914349Y1638106D01*
X-100917200Y1607706D01*
X-101531700Y1607706D01*
X-101531700Y3405740D01*
X-101511698Y3473861D01*
X-101494795Y3494835D01*
X-99937135Y5052495D01*
X-99874823Y5086521D01*
X-99848040Y5089400D01*
X-96519990Y5089400D01*
X-96519958Y5089399D01*
X-96516056Y5089399D01*
X-96293151Y5089399D01*
X-96293144Y5089399D01*
X-96072137Y5118496D01*
X-95856819Y5176190D01*
X-95650874Y5261495D01*
X-95457826Y5372952D01*
X-95457826Y5372953D01*
X-95457821Y5372955D01*
X-95412922Y5407409D01*
X-95380503Y5432284D01*
X-95280976Y5508653D01*
X-95123353Y5666276D01*
X-95117902Y5671727D01*
X-95117887Y5671745D01*
X-91699045Y9090587D01*
X-91699027Y9090602D01*
X-91535963Y9253666D01*
X-91535953Y9253676D01*
X-91400252Y9430526D01*
X-91288795Y9623574D01*
X-91203490Y9829519D01*
X-91145796Y10044837D01*
X-91132608Y10145009D01*
X-91116699Y10265844D01*
X-91116699Y10488756D01*
X-91116699Y10492657D01*
X-91116700Y10492691D01*
X-91116700Y13114950D01*
X-91116700Y13114957D01*
X-91145796Y13335963D01*
X-91203490Y13551281D01*
X-91288795Y13757226D01*
X-91362970Y13885700D01*
X-91400250Y13950271D01*
X-91489051Y14065999D01*
X-91535953Y14127124D01*
X-91535954Y14127125D01*
X-91535963Y14127135D01*
X-91693566Y14284738D01*
X-91693583Y14284753D01*
X-91806845Y14371661D01*
X-91842409Y14414422D01*
X-91862872Y14454584D01*
X-91875966Y14480285D01*
X-91875969Y14480289D01*
X-91876170Y14480565D01*
X-91969095Y14608466D01*
X-91977788Y14620431D01*
X-92100270Y14742913D01*
X-92240412Y14844732D01*
X-92394748Y14923370D01*
X-92394752Y14923372D01*
X-92394755Y14923373D01*
X-92559499Y14976902D01*
X-92730589Y15004000D01*
X-92903811Y15004000D01*
X-93074901Y14976902D01*
X-93074904Y14976902D01*
X-93074905Y14976901D01*
X-93143699Y14954548D01*
X-93239645Y14923373D01*
X-93239647Y14923373D01*
X-93239653Y14923370D01*
X-93393989Y14844732D01*
X-93534131Y14742913D01*
X-93656613Y14620431D01*
X-93758432Y14480289D01*
X-93791995Y14414419D01*
X-93827556Y14371661D01*
X-93940825Y14284746D01*
X-93940840Y14284733D01*
X-94098438Y14127135D01*
X-94098447Y14127125D01*
X-94234151Y13950271D01*
X-94345599Y13757238D01*
X-94345604Y13757228D01*
X-94345605Y13757226D01*
X-94417653Y13583286D01*
X-94430910Y13551281D01*
X-94488606Y13335957D01*
X-94517700Y13114960D01*
X-94517700Y11133860D01*
X-94537702Y11065739D01*
X-94554605Y11044765D01*
X-97072065Y8527305D01*
X-97134377Y8493279D01*
X-97161160Y8490400D01*
X-100489209Y8490400D01*
X-100489241Y8490401D01*
X-100493143Y8490401D01*
X-100716056Y8490401D01*
X-100716058Y8490401D01*
X-100937057Y8461306D01*
X-101080608Y8422842D01*
X-101152380Y8403611D01*
X-101152382Y8403611D01*
X-101152383Y8403610D01*
X-101236781Y8368652D01*
X-101236780Y8368651D01*
X-101358328Y8318304D01*
X-101358332Y8318302D01*
X-101551371Y8206851D01*
X-101728225Y8071147D01*
X-101728227Y8071145D01*
X-101807037Y7992335D01*
X-101885847Y7913524D01*
X-101885851Y7913520D01*
X-104355820Y5443551D01*
X-104355824Y5443547D01*
X-104409580Y5389791D01*
X-104513445Y5285927D01*
X-104513453Y5285918D01*
X-104597647Y5176191D01*
X-104597648Y5176190D01*
X-104649147Y5109077D01*
X-104649151Y5109071D01*
X-104760599Y4916038D01*
X-104760604Y4916028D01*
X-104760605Y4916026D01*
X-104835517Y4735173D01*
X-104845910Y4710081D01*
X-104903606Y4494756D01*
X-104932701Y4273758D01*
X-104932701Y4046387D01*
X-104932700Y4046358D01*
X-104932700Y-6034709D01*
X-104932701Y-6034743D01*
X-104932701Y-6261557D01*
X-104915537Y-6391926D01*
X-104903606Y-6482555D01*
X-104903605Y-6482561D01*
X-104903604Y-6482563D01*
X-104845910Y-6697881D01*
X-104760605Y-6903826D01*
X-104760604Y-6903827D01*
X-104760599Y-6903837D01*
X-104649151Y-7096870D01*
X-104513447Y-7273724D01*
X-104513438Y-7273734D01*
X-104352678Y-7434494D01*
X-104352648Y-7434522D01*
X-102369605Y-9417565D01*
X-102335579Y-9479877D01*
X-102332700Y-9506660D01*
X-102332700Y-11488300D01*
X-102352702Y-11556421D01*
X-102406358Y-11602914D01*
X-102458700Y-11614300D01*
X-104393700Y-11614300D01*
X-104461821Y-11594298D01*
X-104508314Y-11540642D01*
X-104519700Y-11488300D01*
X-104519700Y-8866042D01*
X-104519699Y-8866013D01*
X-104519699Y-8638651D01*
X-104519699Y-8638650D01*
X-104519699Y-8638644D01*
X-104548796Y-8417637D01*
X-104606490Y-8202319D01*
X-104691795Y-7996374D01*
X-104725374Y-7938213D01*
X-104803250Y-7803329D01*
X-104813184Y-7790383D01*
X-104938953Y-7626476D01*
X-104938954Y-7626475D01*
X-104938963Y-7626465D01*
X-105099022Y-7466406D01*
X-105099061Y-7466369D01*
X-106079795Y-6485635D01*
X-106113821Y-6423323D01*
X-106116700Y-6396540D01*
X-106116700Y114950D01*
X-106116700Y114957D01*
X-106145796Y335963D01*
X-106203490Y551281D01*
X-106288795Y757226D01*
X-106400252Y950274D01*
X-106535953Y1127124D01*
X-106535954Y1127125D01*
X-106535963Y1127135D01*
X-106693566Y1284738D01*
X-106693583Y1284753D01*
X-106806845Y1371661D01*
X-106842409Y1414422D01*
X-106875968Y1480288D01*
X-106977786Y1620428D01*
X-106977788Y1620431D01*
X-107100270Y1742913D01*
X-107240412Y1844732D01*
X-107394748Y1923370D01*
X-107394752Y1923372D01*
X-107394755Y1923373D01*
X-107559499Y1976902D01*
X-107730589Y2004000D01*
X-107903811Y2004000D01*
X-108074901Y1976902D01*
X-108074904Y1976902D01*
X-108074905Y1976901D01*
X-108153947Y1951219D01*
X-108239645Y1923373D01*
X-108239647Y1923373D01*
X-108239653Y1923370D01*
X-108393989Y1844732D01*
X-108534131Y1742913D01*
X-108656613Y1620431D01*
X-108758432Y1480289D01*
X-108791995Y1414419D01*
X-108827556Y1371661D01*
X-108940825Y1284746D01*
X-108940840Y1284733D01*
X-109098438Y1127135D01*
X-109098447Y1127125D01*
X-109234151Y950271D01*
X-109345599Y757238D01*
X-109345604Y757228D01*
X-109345605Y757226D01*
X-109408118Y606306D01*
X-109430910Y551281D01*
X-109488606Y335957D01*
X-109517700Y114960D01*
X-109517700Y-7037709D01*
X-109517701Y-7037743D01*
X-109517701Y-7264557D01*
X-109488606Y-7485555D01*
X-109488605Y-7485561D01*
X-109488604Y-7485563D01*
X-109430910Y-7700881D01*
X-109345605Y-7906826D01*
X-109345604Y-7906827D01*
X-109345599Y-7906837D01*
X-109234151Y-8099870D01*
X-109234149Y-8099873D01*
X-109234148Y-8099874D01*
X-109188506Y-8159356D01*
X-109098447Y-8276724D01*
X-109098438Y-8276734D01*
X-108937678Y-8437494D01*
X-108937648Y-8437522D01*
X-107957605Y-9417565D01*
X-107923579Y-9479877D01*
X-107920700Y-9506660D01*
X-107920700Y-11488300D01*
X-107940702Y-11556421D01*
X-107994358Y-11602914D01*
X-108046700Y-11614300D01*
X-109981700Y-11614300D01*
X-110049821Y-11594298D01*
X-110096314Y-11540642D01*
X-110107700Y-11488300D01*
X-110107700Y-8623650D01*
X-110107700Y-8623643D01*
X-110136796Y-8402637D01*
X-110194490Y-8187319D01*
X-110279795Y-7981374D01*
X-110382590Y-7803329D01*
X-110391250Y-7788329D01*
X-110458352Y-7700880D01*
X-110526953Y-7611476D01*
X-110526954Y-7611475D01*
X-110526963Y-7611465D01*
X-110684566Y-7453862D01*
X-110684576Y-7453853D01*
X-110861430Y-7318149D01*
X-111054463Y-7206701D01*
X-111054468Y-7206698D01*
X-111054474Y-7206695D01*
X-111260419Y-7121390D01*
X-111260423Y-7121389D01*
X-111260425Y-7121388D01*
X-111424274Y-7077484D01*
X-111480757Y-7044873D01*
X-116719795Y-1805835D01*
X-116753821Y-1743523D01*
X-116756700Y-1716740D01*
X-116756700Y-1600709D01*
X-115917199Y-1600709D01*
X-115914349Y-1631106D01*
X-115914348Y-1631109D01*
X-115869547Y-1759144D01*
X-115869547Y-1759145D01*
X-115788993Y-1868292D01*
X-115679848Y-1948844D01*
X-115567200Y-1988261D01*
X-114067200Y-1988261D01*
X-113954553Y-1948844D01*
X-113845408Y-1868292D01*
X-113764854Y-1759145D01*
X-113764854Y-1759144D01*
X-113720053Y-1631110D01*
X-113720052Y-1631105D01*
X-113717201Y-1600705D01*
X-113717200Y-1600699D01*
X-113717200Y-746500D01*
X-114067200Y-746500D01*
X-114067200Y-1988261D01*
X-115567200Y-1988261D01*
X-115567200Y-746500D01*
X-115917199Y-746500D01*
X-115917199Y-1600709D01*
X-116756700Y-1600709D01*
X-116756700Y82491D01*
X-115417200Y82491D01*
X-115417200Y-75491D01*
X-115376311Y-228091D01*
X-115297319Y-364908D01*
X-115185608Y-476619D01*
X-115048791Y-555611D01*
X-114896191Y-596500D01*
X-114738209Y-596500D01*
X-114585609Y-555611D01*
X-114448792Y-476619D01*
X-114337081Y-364908D01*
X-114258089Y-228091D01*
X-114217200Y-75491D01*
X-114217200Y82491D01*
X-114258089Y235091D01*
X-114337081Y371908D01*
X-114448792Y483619D01*
X-114585609Y562611D01*
X-114738209Y603500D01*
X-114896191Y603500D01*
X-115048791Y562611D01*
X-115185608Y483619D01*
X-115297319Y371908D01*
X-115376311Y235091D01*
X-115417200Y82491D01*
X-116756700Y82491D01*
X-116756700Y1607706D01*
X-115917200Y1607706D01*
X-115917200Y753500D01*
X-115567200Y753500D01*
X-114067200Y753500D01*
X-113717201Y753500D01*
X-113717201Y1607695D01*
X-113717202Y1607710D01*
X-113720052Y1638107D01*
X-113720053Y1638110D01*
X-113764854Y1766145D01*
X-113764854Y1766146D01*
X-113845408Y1875293D01*
X-113954552Y1955844D01*
X-113954554Y1955846D01*
X-114067200Y1995263D01*
X-114067200Y753500D01*
X-115567200Y753500D01*
X-115567200Y1995263D01*
X-115679847Y1955846D01*
X-115679849Y1955844D01*
X-115788993Y1875293D01*
X-115869547Y1766146D01*
X-115869547Y1766145D01*
X-115914348Y1638111D01*
X-115914349Y1638106D01*
X-115917200Y1607706D01*
X-116756700Y1607706D01*
X-116756700Y3606942D01*
X-116736698Y3675063D01*
X-116719795Y3696037D01*
X-115149736Y5266095D01*
X-115087424Y5300121D01*
X-115060641Y5303000D01*
X-111083590Y5303000D01*
X-111083558Y5302999D01*
X-111079656Y5302999D01*
X-110856751Y5302999D01*
X-110856744Y5302999D01*
X-110635737Y5332096D01*
X-110420419Y5389790D01*
X-110214474Y5475095D01*
X-110021426Y5586552D01*
X-109844576Y5722253D01*
X-109686953Y5879876D01*
X-109681502Y5885327D01*
X-109681487Y5885345D01*
X-106699045Y8867787D01*
X-106699027Y8867802D01*
X-106535963Y9030866D01*
X-106535953Y9030876D01*
X-106400252Y9207726D01*
X-106288795Y9400774D01*
X-106203490Y9606719D01*
X-106145796Y9822037D01*
X-106144811Y9829519D01*
X-106116699Y10043044D01*
X-106116699Y10265956D01*
X-106116699Y10269857D01*
X-106116700Y10269891D01*
X-106116700Y13114950D01*
X-106116700Y13114957D01*
X-106145796Y13335963D01*
X-106203490Y13551281D01*
X-106288795Y13757226D01*
X-106362970Y13885700D01*
X-106400250Y13950271D01*
X-106489051Y14065999D01*
X-106535953Y14127124D01*
X-106535954Y14127125D01*
X-106535963Y14127135D01*
X-106693566Y14284738D01*
X-106693583Y14284753D01*
X-106806845Y14371661D01*
X-106842409Y14414422D01*
X-106862872Y14454584D01*
X-106875966Y14480285D01*
X-106875969Y14480289D01*
X-106876170Y14480565D01*
X-106969095Y14608466D01*
X-106977788Y14620431D01*
X-107100270Y14742913D01*
X-107240412Y14844732D01*
X-107394748Y14923370D01*
X-107394752Y14923372D01*
X-107394755Y14923373D01*
X-107559499Y14976902D01*
X-107730589Y15004000D01*
X-107903811Y15004000D01*
X-108074901Y14976902D01*
X-108074904Y14976902D01*
X-108074905Y14976901D01*
X-108143699Y14954548D01*
X-108239645Y14923373D01*
X-108239647Y14923373D01*
X-108239653Y14923370D01*
X-108393989Y14844732D01*
X-108534131Y14742913D01*
X-108656613Y14620431D01*
X-108758432Y14480289D01*
X-108791995Y14414419D01*
X-108827556Y14371661D01*
X-108940825Y14284746D01*
X-108940840Y14284733D01*
X-109098438Y14127135D01*
X-109098447Y14127125D01*
X-109234151Y13950271D01*
X-109345599Y13757238D01*
X-109345604Y13757228D01*
X-109345605Y13757226D01*
X-109417653Y13583286D01*
X-109430910Y13551281D01*
X-109488606Y13335957D01*
X-109517700Y13114960D01*
X-109517700Y10911060D01*
X-109537702Y10842939D01*
X-109554605Y10821965D01*
X-111635665Y8740905D01*
X-111697977Y8706879D01*
X-111724760Y8704000D01*
X-115928660Y8704000D01*
X-116149657Y8674906D01*
X-116364981Y8617210D01*
X-116509155Y8557491D01*
X-116570928Y8531904D01*
X-116570938Y8531899D01*
X-116763971Y8420451D01*
X-116940825Y8284747D01*
X-116940835Y8284738D01*
X-117099897Y8125675D01*
X-117099960Y8125611D01*
X-119578771Y5646799D01*
X-119578839Y5646734D01*
X-119738438Y5487135D01*
X-119738447Y5487125D01*
X-119874151Y5310271D01*
X-119985599Y5117238D01*
X-119985604Y5117228D01*
X-119985605Y5117226D01*
X-119988983Y5109071D01*
X-120070910Y4911281D01*
X-120128606Y4695957D01*
X-120157700Y4474960D01*
X-120157700Y-2357909D01*
X-120157701Y-2357943D01*
X-120157701Y-2584755D01*
X-120135213Y-2755563D01*
X-120135213Y-2755564D01*
X-120128606Y-2805756D01*
X-120128604Y-2805763D01*
X-120070910Y-3021081D01*
X-119985605Y-3227026D01*
X-119985604Y-3227027D01*
X-119985599Y-3227037D01*
X-119874151Y-3420070D01*
X-119738447Y-3596924D01*
X-119738438Y-3596934D01*
X-119577678Y-3757694D01*
X-119577648Y-3757722D01*
X-113545605Y-9789765D01*
X-113511579Y-9852077D01*
X-113508700Y-9878860D01*
X-113508700Y-11488300D01*
X-113528702Y-11556421D01*
X-113582358Y-11602914D01*
X-113634700Y-11614300D01*
X-115852642Y-11614300D01*
X-115920763Y-11594298D01*
X-115941737Y-11577395D01*
X-120237780Y-7281351D01*
X-120237784Y-7281348D01*
X-120327063Y-7221695D01*
X-120349512Y-7206695D01*
X-120360705Y-7199216D01*
X-120360707Y-7199215D01*
X-120497284Y-7142643D01*
X-120497287Y-7142642D01*
X-120642282Y-7113800D01*
X-120642284Y-7113800D01*
X-121453307Y-7113800D01*
X-121521428Y-7093798D01*
X-121526004Y-7090110D01*
X-121618461Y-7028333D01*
X-121691523Y-7013800D01*
X-121691526Y-7013800D01*
X-122640874Y-7013800D01*
X-122640878Y-7013800D01*
X-122713940Y-7028333D01*
X-122796801Y-7083699D01*
X-122852167Y-7166560D01*
X-122866700Y-7239622D01*
X-122866700Y-7569243D01*
X-122876291Y-7617460D01*
X-122887856Y-7645379D01*
X-122887858Y-7645386D01*
X-122887858Y-7645387D01*
X-122916700Y-7790382D01*
X-122916700Y-7938218D01*
X-122887858Y-8083213D01*
X-122876291Y-8111139D01*
X-122866700Y-8159356D01*
X-122866700Y-8488977D01*
X-122852167Y-8562039D01*
X-122852166Y-8562040D01*
X-122796801Y-8644901D01*
X-122713940Y-8700266D01*
X-122640874Y-8714800D01*
X-121691526Y-8714800D01*
X-121618460Y-8700266D01*
X-121535599Y-8644901D01*
X-121535599Y-8644900D01*
X-121525280Y-8638006D01*
X-121523151Y-8641192D01*
X-121480090Y-8617679D01*
X-121453307Y-8614800D01*
X-121079258Y-8614800D01*
X-121011137Y-8634802D01*
X-120990163Y-8651705D01*
X-118242663Y-11399205D01*
X-118208637Y-11461517D01*
X-118213702Y-11532332D01*
X-118256249Y-11589168D01*
X-118322769Y-11613979D01*
X-118331758Y-11614300D01*
X-131360013Y-11614300D01*
X-131372362Y-11613693D01*
X-131405105Y-11610468D01*
X-131548939Y-11596301D01*
X-131573163Y-11591483D01*
X-131737009Y-11541782D01*
X-131759828Y-11532330D01*
X-131842202Y-11488300D01*
X-131910828Y-11451618D01*
X-131931366Y-11437895D01*
X-132063715Y-11329279D01*
X-132081180Y-11311814D01*
X-132189796Y-11179465D01*
X-132203519Y-11158927D01*
X-132284229Y-11007930D01*
X-132293682Y-10985109D01*
X-132336352Y-10844443D01*
X-132341777Y-10807885D01*
X-132342514Y-2040383D01*
X-129366700Y-2040383D01*
X-129366700Y-6888216D01*
X-129337858Y-7033213D01*
X-129337857Y-7033216D01*
X-129281286Y-7169792D01*
X-129281285Y-7169794D01*
X-129281284Y-7169795D01*
X-129256628Y-7206695D01*
X-129217968Y-7264556D01*
X-129199152Y-7292716D01*
X-128149151Y-8342716D01*
X-128044616Y-8447251D01*
X-127921695Y-8529384D01*
X-127785113Y-8585958D01*
X-127640118Y-8614800D01*
X-126179093Y-8614800D01*
X-126110972Y-8634802D01*
X-126106397Y-8638489D01*
X-126096802Y-8644900D01*
X-126096801Y-8644901D01*
X-126013940Y-8700266D01*
X-125940874Y-8714800D01*
X-124991526Y-8714800D01*
X-124918460Y-8700266D01*
X-124835599Y-8644901D01*
X-124780234Y-8562040D01*
X-124765700Y-8488974D01*
X-124765700Y-8159356D01*
X-124756110Y-8111139D01*
X-124744542Y-8083213D01*
X-124715700Y-7938218D01*
X-124715700Y-7790382D01*
X-124744542Y-7645387D01*
X-124752375Y-7626475D01*
X-124756109Y-7617460D01*
X-124765700Y-7569243D01*
X-124765700Y-7239625D01*
X-124765701Y-7239622D01*
X-124780234Y-7166560D01*
X-124796215Y-7142643D01*
X-124835599Y-7083699D01*
X-124918460Y-7028334D01*
X-124918461Y-7028333D01*
X-124991523Y-7013800D01*
X-124991526Y-7013800D01*
X-125940874Y-7013800D01*
X-125940878Y-7013800D01*
X-126013940Y-7028333D01*
X-126107120Y-7090594D01*
X-126109250Y-7087407D01*
X-126152310Y-7110921D01*
X-126179093Y-7113800D01*
X-127203142Y-7113800D01*
X-127271263Y-7093798D01*
X-127292238Y-7076895D01*
X-127828796Y-6540336D01*
X-127862821Y-6478024D01*
X-127865700Y-6451241D01*
X-127865700Y-2477358D01*
X-127845698Y-2409237D01*
X-127828795Y-2388263D01*
X-127452237Y-2011705D01*
X-127389925Y-1977679D01*
X-127363142Y-1974800D01*
X-126825282Y-1974800D01*
X-126757161Y-1994802D01*
X-126740396Y-2007685D01*
X-126632241Y-2106281D01*
X-126632240Y-2106282D01*
X-126458849Y-2213641D01*
X-126458846Y-2213642D01*
X-126458837Y-2213648D01*
X-126268656Y-2287324D01*
X-126068176Y-2324800D01*
X-126068174Y-2324800D01*
X-125864226Y-2324800D01*
X-125864224Y-2324800D01*
X-125663744Y-2287324D01*
X-125473563Y-2213648D01*
X-125300159Y-2106281D01*
X-125149436Y-1968879D01*
X-125026527Y-1806121D01*
X-124935618Y-1623550D01*
X-124879803Y-1427383D01*
X-124860985Y-1224300D01*
X-124879803Y-1021217D01*
X-124935618Y-825050D01*
X-125026527Y-642479D01*
X-125027381Y-641348D01*
X-125149435Y-479721D01*
X-125300160Y-342318D01*
X-125300161Y-342317D01*
X-125473552Y-234958D01*
X-125473559Y-234954D01*
X-125473563Y-234952D01*
X-125642977Y-169321D01*
X-125663743Y-161276D01*
X-125747015Y-145710D01*
X-125864224Y-123800D01*
X-126068176Y-123800D01*
X-126168416Y-142538D01*
X-126268658Y-161276D01*
X-126416010Y-218360D01*
X-126458837Y-234952D01*
X-126458838Y-234952D01*
X-126458839Y-234953D01*
X-126458849Y-234958D01*
X-126632240Y-342317D01*
X-126632241Y-342318D01*
X-126740396Y-440915D01*
X-126804213Y-472026D01*
X-126825282Y-473800D01*
X-127800118Y-473800D01*
X-127829884Y-479721D01*
X-127945114Y-502642D01*
X-127945117Y-502643D01*
X-128081695Y-559215D01*
X-128102696Y-573248D01*
X-128109762Y-577970D01*
X-128204617Y-641348D01*
X-128204621Y-641351D01*
X-129199150Y-1635880D01*
X-129221645Y-1669549D01*
X-129221646Y-1669550D01*
X-129281284Y-1758804D01*
X-129337857Y-1895383D01*
X-129337858Y-1895386D01*
X-129348492Y-1948844D01*
X-129358070Y-1997000D01*
X-129366700Y-2040383D01*
X-132342514Y-2040383D01*
X-132343691Y11964545D01*
X-130616700Y11964545D01*
X-130616700Y11964542D01*
X-130616700Y2264542D01*
X-130616700Y2106858D01*
X-130585937Y1952203D01*
X-130525594Y1806521D01*
X-130437989Y1675411D01*
X-129456489Y693911D01*
X-129325379Y606306D01*
X-129179697Y545963D01*
X-129025042Y515200D01*
X-128867357Y515200D01*
X-126844650Y515200D01*
X-126776529Y495198D01*
X-126759764Y482315D01*
X-126662501Y393647D01*
X-126662499Y393646D01*
X-126481226Y281406D01*
X-126481225Y281406D01*
X-126481219Y281402D01*
X-126282398Y204379D01*
X-126072810Y165200D01*
X-126072807Y165200D01*
X-125859593Y165200D01*
X-125859590Y165200D01*
X-125650002Y204379D01*
X-125451181Y281402D01*
X-125269898Y393648D01*
X-125112328Y537293D01*
X-124983834Y707445D01*
X-124888795Y898311D01*
X-124830444Y1103390D01*
X-124810771Y1315700D01*
X-124830444Y1528010D01*
X-124888795Y1733089D01*
X-124983834Y1923955D01*
X-125112328Y2094107D01*
X-125138508Y2117974D01*
X-125269900Y2237754D01*
X-125269902Y2237755D01*
X-125451175Y2349995D01*
X-125451179Y2349997D01*
X-125451181Y2349998D01*
X-125575340Y2398097D01*
X-125650001Y2427021D01*
X-125725826Y2441195D01*
X-125859590Y2466200D01*
X-126072810Y2466200D01*
X-126193821Y2443579D01*
X-126282400Y2427021D01*
X-126389061Y2385700D01*
X-126481219Y2349998D01*
X-126481220Y2349998D01*
X-126481221Y2349997D01*
X-126481226Y2349995D01*
X-126662499Y2237755D01*
X-126662501Y2237754D01*
X-126746050Y2161588D01*
X-126755354Y2153105D01*
X-126759764Y2149085D01*
X-126823581Y2117974D01*
X-126844650Y2116200D01*
X-128562432Y2116200D01*
X-128630553Y2136202D01*
X-128651527Y2153105D01*
X-128978795Y2480373D01*
X-129012821Y2542685D01*
X-129015700Y2569468D01*
X-129015700Y11501932D01*
X-128995698Y11570053D01*
X-128978795Y11591027D01*
X-128871527Y11698295D01*
X-128809215Y11732321D01*
X-128782432Y11735200D01*
X-128704493Y11735200D01*
X-128636372Y11715198D01*
X-128589879Y11661542D01*
X-128589229Y11660094D01*
X-128568407Y11612935D01*
X-128488968Y11533496D01*
X-128488966Y11533495D01*
X-128488965Y11533494D01*
X-128386191Y11488115D01*
X-128361076Y11485201D01*
X-128361072Y11485201D01*
X-128361065Y11485200D01*
X-128361059Y11485201D01*
X-128360298Y11485156D01*
X-128360110Y11485089D01*
X-128357449Y11484780D01*
X-128357521Y11484164D01*
X-128293440Y11461270D01*
X-128250110Y11405030D01*
X-128244064Y11334291D01*
X-128277222Y11271513D01*
X-128339057Y11236628D01*
X-128342960Y11235787D01*
X-128413937Y11221668D01*
X-128413940Y11221667D01*
X-128496801Y11166301D01*
X-128552167Y11083440D01*
X-128566700Y11010378D01*
X-128566700Y9461023D01*
X-128552167Y9387961D01*
X-128552166Y9387960D01*
X-128496801Y9305099D01*
X-128413940Y9249734D01*
X-128340874Y9235200D01*
X-128192700Y9235200D01*
X-128124579Y9215198D01*
X-128078086Y9161542D01*
X-128066700Y9109200D01*
X-128066700Y8699022D01*
X-128086702Y8630901D01*
X-128117187Y8598157D01*
X-128123742Y8593250D01*
X-128123743Y8593250D01*
X-128123746Y8593247D01*
X-128123746Y8593246D01*
X-128209996Y8478031D01*
X-128209996Y8478030D01*
X-128209999Y8478027D01*
X-128260291Y8343185D01*
X-128266700Y8283579D01*
X-128266700Y7287836D01*
X-128266698Y7287815D01*
X-128260292Y7228221D01*
X-128260292Y7228219D01*
X-128260291Y7228217D01*
X-128227126Y7139297D01*
X-128209997Y7093371D01*
X-128207111Y7088087D01*
X-128191700Y7027703D01*
X-128191700Y5836784D01*
X-128162858Y5691787D01*
X-128162857Y5691784D01*
X-128143378Y5644757D01*
X-128106284Y5555205D01*
X-128075181Y5508656D01*
X-128075180Y5508655D01*
X-128075179Y5508653D01*
X-128024152Y5432284D01*
X-128024149Y5432280D01*
X-124403605Y1811737D01*
X-124369579Y1749425D01*
X-124366700Y1722642D01*
X-124366700Y-2423242D01*
X-124386702Y-2491363D01*
X-124403601Y-2512332D01*
X-124555068Y-2663800D01*
X-124702615Y-2811347D01*
X-124764927Y-2845372D01*
X-124835743Y-2840307D01*
X-124892578Y-2797760D01*
X-124896476Y-2792252D01*
X-124920990Y-2755564D01*
X-124935599Y-2733699D01*
X-125018460Y-2678334D01*
X-125018461Y-2678333D01*
X-125091523Y-2663800D01*
X-125091526Y-2663800D01*
X-126840874Y-2663800D01*
X-126840878Y-2663800D01*
X-126913940Y-2678333D01*
X-126996801Y-2733699D01*
X-127052167Y-2816560D01*
X-127066700Y-2889622D01*
X-127066700Y-4638977D01*
X-127052167Y-4712039D01*
X-127052166Y-4712040D01*
X-126996801Y-4794901D01*
X-126913940Y-4850266D01*
X-126840874Y-4864800D01*
X-125091526Y-4864800D01*
X-125018460Y-4850266D01*
X-124935599Y-4794901D01*
X-124880234Y-4712040D01*
X-124865700Y-4638974D01*
X-124865700Y-4638966D01*
X-124865094Y-4632819D01*
X-124863406Y-4632985D01*
X-124845698Y-4572679D01*
X-124792042Y-4526186D01*
X-124739700Y-4514800D01*
X-124520287Y-4514800D01*
X-124520283Y-4514800D01*
X-124520282Y-4514800D01*
X-124375287Y-4485958D01*
X-124238705Y-4429384D01*
X-124149155Y-4369549D01*
X-124115784Y-4347252D01*
X-123033248Y-3264716D01*
X-122960943Y-3156502D01*
X-122951116Y-3141795D01*
X-122894542Y-3005213D01*
X-122865700Y-2860218D01*
X-122865700Y2159618D01*
X-122894542Y2304613D01*
X-122951116Y2441195D01*
X-122984325Y2490896D01*
X-123001953Y2517278D01*
X-123033246Y2564113D01*
X-123033252Y2564121D01*
X-126653795Y6184664D01*
X-126687821Y6246976D01*
X-126690700Y6273759D01*
X-126690700Y7027703D01*
X-126675289Y7088087D01*
X-126672409Y7093364D01*
X-126672404Y7093369D01*
X-126628642Y7210700D01*
X-126149214Y7210700D01*
X-126118546Y7123053D01*
X-126037994Y7013910D01*
X-125966201Y6960924D01*
X-125966200Y6960924D01*
X-124816200Y6960924D01*
X-124744407Y7013910D01*
X-124663855Y7123053D01*
X-124633186Y7210700D01*
X-124816200Y7210700D01*
X-124816200Y6960924D01*
X-125966200Y6960924D01*
X-125966200Y7210700D01*
X-126149214Y7210700D01*
X-126628642Y7210700D01*
X-126622109Y7228217D01*
X-126615700Y7287827D01*
X-126615701Y7615645D01*
X-126606110Y7663862D01*
X-126594542Y7691787D01*
X-126565700Y7836782D01*
X-126565700Y8360700D01*
X-126149214Y8360700D01*
X-125966200Y8360700D01*
X-124816200Y8360700D01*
X-124633186Y8360700D01*
X-124663855Y8448348D01*
X-124744407Y8557491D01*
X-124816200Y8610479D01*
X-124816200Y8360700D01*
X-125966200Y8360700D01*
X-125966200Y8610479D01*
X-126037994Y8557491D01*
X-126118546Y8448348D01*
X-126149214Y8360700D01*
X-126565700Y8360700D01*
X-126565700Y9109200D01*
X-126545698Y9177321D01*
X-126492042Y9223814D01*
X-126439700Y9235200D01*
X-126291526Y9235200D01*
X-126218460Y9249734D01*
X-126135599Y9305099D01*
X-126080234Y9387960D01*
X-126065700Y9461026D01*
X-126065700Y11010374D01*
X-126080234Y11083440D01*
X-126135599Y11166301D01*
X-126218460Y11221666D01*
X-126218461Y11221667D01*
X-126289445Y11235787D01*
X-126352355Y11268696D01*
X-126387485Y11330392D01*
X-126383684Y11401286D01*
X-126342158Y11458872D01*
X-126276090Y11484865D01*
X-126272108Y11485157D01*
X-126271348Y11485201D01*
X-126271336Y11485201D01*
X-126246209Y11488115D01*
X-126143435Y11533494D01*
X-126063994Y11612935D01*
X-126043171Y11660094D01*
X-125997358Y11714331D01*
X-125929494Y11735190D01*
X-125927907Y11735200D01*
X-124245042Y11735200D01*
X-124087358Y11735200D01*
X-122442699Y11735200D01*
X-122374578Y11715198D01*
X-122328085Y11661542D01*
X-122316699Y11609200D01*
X-122316699Y10590834D01*
X-122313786Y10565710D01*
X-122313784Y10565706D01*
X-122268407Y10462935D01*
X-122188968Y10383496D01*
X-122188966Y10383495D01*
X-122188965Y10383494D01*
X-122086191Y10338115D01*
X-122061065Y10335200D01*
X-119971336Y10335201D01*
X-119946209Y10338115D01*
X-119843435Y10383494D01*
X-119763994Y10462935D01*
X-119718615Y10565709D01*
X-119715700Y10590835D01*
X-119715700Y11399291D01*
X-115917199Y11399291D01*
X-115914349Y11368894D01*
X-115914348Y11368891D01*
X-115869547Y11240856D01*
X-115869547Y11240855D01*
X-115788993Y11131708D01*
X-115679848Y11051156D01*
X-115567200Y11011739D01*
X-114067200Y11011739D01*
X-113954553Y11051156D01*
X-113845408Y11131708D01*
X-113764854Y11240855D01*
X-113764854Y11240856D01*
X-113720053Y11368890D01*
X-113720052Y11368895D01*
X-113717201Y11399295D01*
X-113717200Y11399301D01*
X-113717200Y12253500D01*
X-114067200Y12253500D01*
X-114067200Y11011739D01*
X-115567200Y11011739D01*
X-115567200Y12253500D01*
X-115917199Y12253500D01*
X-115917199Y11399291D01*
X-119715700Y11399291D01*
X-119715701Y13082491D01*
X-115417200Y13082491D01*
X-115417200Y12924509D01*
X-115376311Y12771909D01*
X-115297319Y12635092D01*
X-115185608Y12523381D01*
X-115048791Y12444389D01*
X-114896191Y12403500D01*
X-114738209Y12403500D01*
X-114585609Y12444389D01*
X-114448792Y12523381D01*
X-114337081Y12635092D01*
X-114258089Y12771909D01*
X-114217200Y12924509D01*
X-114217200Y13082491D01*
X-114258089Y13235091D01*
X-114337081Y13371908D01*
X-114448792Y13483619D01*
X-114585609Y13562611D01*
X-114738209Y13603500D01*
X-114896191Y13603500D01*
X-115048791Y13562611D01*
X-115185608Y13483619D01*
X-115297319Y13371908D01*
X-115376311Y13235091D01*
X-115417200Y13082491D01*
X-119715701Y13082491D01*
X-119715701Y14480564D01*
X-119718615Y14505691D01*
X-119739501Y14552994D01*
X-119763658Y14607706D01*
X-115917200Y14607706D01*
X-115917200Y13753500D01*
X-115567200Y13753500D01*
X-114067200Y13753500D01*
X-113717201Y13753500D01*
X-113717201Y14607695D01*
X-113717202Y14607710D01*
X-113720052Y14638107D01*
X-113720053Y14638110D01*
X-113764854Y14766145D01*
X-113764854Y14766146D01*
X-113845408Y14875293D01*
X-113954552Y14955844D01*
X-113954554Y14955846D01*
X-114067200Y14995263D01*
X-114067200Y13753500D01*
X-115567200Y13753500D01*
X-115567200Y14995263D01*
X-115679847Y14955846D01*
X-115679849Y14955844D01*
X-115788993Y14875293D01*
X-115869547Y14766146D01*
X-115869547Y14766145D01*
X-115914348Y14638111D01*
X-115914349Y14638106D01*
X-115917200Y14607706D01*
X-119763658Y14607706D01*
X-119763994Y14608466D01*
X-119843433Y14687905D01*
X-119843435Y14687906D01*
X-119946211Y14733286D01*
X-119946210Y14733286D01*
X-119971332Y14736200D01*
X-122061060Y14736200D01*
X-122061067Y14736199D01*
X-122086191Y14733286D01*
X-122086195Y14733284D01*
X-122188966Y14687907D01*
X-122268405Y14608468D01*
X-122268406Y14608466D01*
X-122313786Y14505691D01*
X-122316700Y14480571D01*
X-122316700Y13462200D01*
X-122336702Y13394079D01*
X-122390358Y13347586D01*
X-122442700Y13336200D01*
X-123214700Y13336200D01*
X-123282821Y13356202D01*
X-123329314Y13409858D01*
X-123340700Y13462200D01*
X-123340700Y16766941D01*
X-123331915Y16813165D01*
X-123276323Y16954136D01*
X-123275535Y16960700D01*
X-123265700Y17042598D01*
X-123265700Y17226932D01*
X-123245698Y17295053D01*
X-123228795Y17316027D01*
X-122396527Y18148295D01*
X-122334215Y18182321D01*
X-122307432Y18185200D01*
X-109537359Y18185200D01*
X-109537358Y18185200D01*
X-109382703Y18215963D01*
X-109237021Y18276306D01*
X-109105911Y18363911D01*
X-108512288Y18957535D01*
X-108449979Y18991557D01*
X-108379164Y18986493D01*
X-108322328Y18943946D01*
X-108321817Y18943258D01*
X-108263140Y18863753D01*
X-108241911Y18834989D01*
X-108142877Y18761900D01*
X-108099947Y18705357D01*
X-108091700Y18660522D01*
X-108091700Y18499494D01*
X-108111702Y18431373D01*
X-108128605Y18410399D01*
X-111534551Y15004454D01*
X-111584709Y14973716D01*
X-111696354Y14937440D01*
X-111739645Y14923373D01*
X-111739647Y14923373D01*
X-111739653Y14923370D01*
X-111893989Y14844732D01*
X-112034131Y14742913D01*
X-112156613Y14620431D01*
X-112258432Y14480289D01*
X-112337070Y14325953D01*
X-112337073Y14325947D01*
X-112337073Y14325945D01*
X-112390602Y14161201D01*
X-112417700Y13990111D01*
X-112417700Y12016889D01*
X-112390602Y11845799D01*
X-112337073Y11681055D01*
X-112337072Y11681052D01*
X-112337070Y11681048D01*
X-112258432Y11526712D01*
X-112156613Y11386570D01*
X-112034131Y11264088D01*
X-111995746Y11236200D01*
X-111893988Y11162268D01*
X-111739645Y11083627D01*
X-111574901Y11030098D01*
X-111403811Y11003000D01*
X-111403808Y11003000D01*
X-111230592Y11003000D01*
X-111230589Y11003000D01*
X-111059499Y11030098D01*
X-110894755Y11083627D01*
X-110740412Y11162268D01*
X-110600272Y11264086D01*
X-110477786Y11386572D01*
X-110375968Y11526712D01*
X-110297327Y11681055D01*
X-110243798Y11845799D01*
X-110216700Y12016889D01*
X-110216700Y13990111D01*
X-110243798Y14161201D01*
X-110297327Y14325945D01*
X-110375968Y14480288D01*
X-110477786Y14620428D01*
X-110477789Y14620431D01*
X-110478887Y14621717D01*
X-110479152Y14622307D01*
X-110480696Y14624433D01*
X-110480250Y14624758D01*
X-110507913Y14686509D01*
X-110497302Y14756708D01*
X-110472167Y14792632D01*
X-107280711Y17984086D01*
X-107221401Y18086813D01*
X-107207153Y18139988D01*
X-107190700Y18201391D01*
X-107190700Y18660522D01*
X-107170698Y18728643D01*
X-107139525Y18761898D01*
X-107040489Y18834989D01*
X-106962084Y18941225D01*
X-106918475Y19065851D01*
X-106915700Y19095444D01*
X-106915700Y19675956D01*
X-106918475Y19705549D01*
X-106929415Y19736812D01*
X-106962084Y19830175D01*
X-107023810Y19913811D01*
X-107040489Y19936411D01*
X-107142500Y20011698D01*
X-107146726Y20014817D01*
X-107146725Y20014817D01*
X-107271346Y20058424D01*
X-107271351Y20058425D01*
X-107300942Y20061200D01*
X-107300944Y20061200D01*
X-107981456Y20061200D01*
X-107981459Y20061200D01*
X-108011050Y20058425D01*
X-108011055Y20058424D01*
X-108144587Y20011698D01*
X-108145529Y20014390D01*
X-108200403Y20003234D01*
X-108266579Y20028951D01*
X-108308346Y20086362D01*
X-108315700Y20128779D01*
X-108315700Y23001932D01*
X-108295698Y23070053D01*
X-108278795Y23091027D01*
X-108194411Y23175411D01*
X-108186384Y23183438D01*
X-108145295Y23248833D01*
X-108143398Y23251758D01*
X-108106811Y23306514D01*
X-108106806Y23306521D01*
X-108106545Y23307153D01*
X-108096820Y23325980D01*
X-108090411Y23336178D01*
X-108069197Y23396806D01*
X-108066703Y23403341D01*
X-108046463Y23452203D01*
X-108043777Y23465712D01*
X-108039132Y23482729D01*
X-108030832Y23506445D01*
X-108025101Y23557320D01*
X-108023472Y23567787D01*
X-108023340Y23568455D01*
X-108015700Y23606858D01*
X-108015700Y23633669D01*
X-108014908Y23647776D01*
X-108014834Y23648440D01*
X-108010635Y23685700D01*
X-108014908Y23723625D01*
X-108015700Y23737732D01*
X-108015700Y23764543D01*
X-108015701Y23764548D01*
X-108023472Y23803612D01*
X-108025099Y23814070D01*
X-108030832Y23864955D01*
X-108039130Y23888667D01*
X-108043780Y23905705D01*
X-108046463Y23919197D01*
X-108066697Y23968046D01*
X-108069190Y23974576D01*
X-108090411Y24035222D01*
X-108096820Y24045422D01*
X-108106542Y24064240D01*
X-108106806Y24064879D01*
X-108106808Y24064882D01*
X-108106810Y24064887D01*
X-108143394Y24119637D01*
X-108145299Y24122575D01*
X-108186384Y24187962D01*
X-108186385Y24187964D01*
X-108313937Y24315516D01*
X-108379332Y24356607D01*
X-108382296Y24358528D01*
X-108437022Y24395095D01*
X-108437025Y24395097D01*
X-108437674Y24395365D01*
X-108456476Y24405079D01*
X-108466678Y24411489D01*
X-108466679Y24411490D01*
X-108527281Y24432696D01*
X-108533879Y24435215D01*
X-108582697Y24455435D01*
X-108582702Y24455437D01*
X-108582703Y24455437D01*
X-108582705Y24455438D01*
X-108582707Y24455438D01*
X-108596210Y24458124D01*
X-108613237Y24462773D01*
X-108636945Y24471068D01*
X-108636948Y24471069D01*
X-108687823Y24476802D01*
X-108698293Y24478430D01*
X-108737354Y24486200D01*
X-108737358Y24486200D01*
X-108764169Y24486200D01*
X-108778275Y24486992D01*
X-108816200Y24491265D01*
X-108854126Y24486992D01*
X-108868231Y24486200D01*
X-108895044Y24486200D01*
X-108934110Y24478430D01*
X-108944575Y24476803D01*
X-108995449Y24471069D01*
X-108995452Y24471069D01*
X-108995455Y24471068D01*
X-108995459Y24471067D01*
X-108995462Y24471066D01*
X-109019170Y24462771D01*
X-109036191Y24458125D01*
X-109049688Y24455440D01*
X-109049702Y24455436D01*
X-109098517Y24435217D01*
X-109105114Y24432699D01*
X-109165717Y24411492D01*
X-109165727Y24411487D01*
X-109175933Y24405075D01*
X-109194719Y24395369D01*
X-109195367Y24395101D01*
X-109195385Y24395091D01*
X-109250159Y24358494D01*
X-109253120Y24356575D01*
X-109318462Y24315517D01*
X-109321778Y24312200D01*
X-109326489Y24307489D01*
X-109410873Y24223105D01*
X-109473185Y24189079D01*
X-109499968Y24186200D01*
X-110017573Y24186200D01*
X-110059188Y24193271D01*
X-110159471Y24228362D01*
X-110189737Y24231200D01*
X-110189739Y24231200D01*
X-110642654Y24231200D01*
X-110642672Y24231199D01*
X-110672932Y24228362D01*
X-110773212Y24193271D01*
X-110814828Y24186200D01*
X-111276700Y24186200D01*
X-111344821Y24206202D01*
X-111391314Y24259858D01*
X-111402700Y24312200D01*
X-111402700Y24629965D01*
X-111402700Y24629966D01*
X-111405554Y24660399D01*
X-111405556Y24660404D01*
X-111407190Y24667889D01*
X-111405122Y24668341D01*
X-111408191Y24728503D01*
X-111372899Y24790107D01*
X-111309905Y24822852D01*
X-111285643Y24825210D01*
X-103204709Y24825210D01*
X-103136588Y24805208D01*
X-103090095Y24751552D01*
X-103079991Y24681278D01*
X-103089445Y24648316D01*
X-103113786Y24593191D01*
X-103116700Y24568071D01*
X-103116700Y24126775D01*
X-103133580Y24063777D01*
X-103135998Y24059590D01*
X-103135999Y24059586D01*
X-103165514Y23949433D01*
X-103166700Y23945008D01*
X-103166700Y22799493D01*
X-103186702Y22731372D01*
X-103203605Y22710398D01*
X-105815898Y20098105D01*
X-105878210Y20064079D01*
X-105904993Y20061200D01*
X-106231459Y20061200D01*
X-106261050Y20058425D01*
X-106261055Y20058424D01*
X-106385675Y20014817D01*
X-106491911Y19936411D01*
X-106570317Y19830175D01*
X-106613924Y19705555D01*
X-106613925Y19705550D01*
X-106616700Y19675959D01*
X-106616700Y19095442D01*
X-106613925Y19065851D01*
X-106613924Y19065846D01*
X-106570317Y18941226D01*
X-106570316Y18941225D01*
X-106491911Y18834989D01*
X-106385675Y18756584D01*
X-106385676Y18756584D01*
X-106276084Y18718236D01*
X-106261049Y18712975D01*
X-106231456Y18710200D01*
X-106231453Y18710200D01*
X-105550947Y18710200D01*
X-105550944Y18710200D01*
X-105521351Y18712975D01*
X-105396725Y18756584D01*
X-105290489Y18834989D01*
X-105212084Y18941225D01*
X-105168475Y19065851D01*
X-105165700Y19095444D01*
X-105165700Y19421907D01*
X-105145698Y19490028D01*
X-105128801Y19510997D01*
X-104754945Y19884853D01*
X-104692636Y19918875D01*
X-104621821Y19913811D01*
X-104564985Y19871264D01*
X-104540174Y19804744D01*
X-104546923Y19754141D01*
X-104563924Y19705554D01*
X-104563925Y19705550D01*
X-104566700Y19675959D01*
X-104566700Y19095442D01*
X-104563925Y19065851D01*
X-104563924Y19065846D01*
X-104520317Y18941226D01*
X-104520316Y18941225D01*
X-104441911Y18834989D01*
X-104335675Y18756584D01*
X-104335666Y18756581D01*
X-104333835Y18755613D01*
X-104332187Y18754009D01*
X-104328077Y18750976D01*
X-104328492Y18750415D01*
X-104282950Y18706103D01*
X-104266700Y18644208D01*
X-104266700Y10324494D01*
X-104286702Y10256373D01*
X-104303605Y10235399D01*
X-111677684Y2861321D01*
X-111677692Y2861311D01*
X-111737000Y2758587D01*
X-111736999Y2758586D01*
X-111767700Y2644008D01*
X-111767700Y1986292D01*
X-111787702Y1918171D01*
X-111836497Y1874025D01*
X-111893991Y1844731D01*
X-112034131Y1742913D01*
X-112156613Y1620431D01*
X-112258432Y1480289D01*
X-112337070Y1325953D01*
X-112337073Y1325947D01*
X-112337073Y1325945D01*
X-112390602Y1161201D01*
X-112417700Y990111D01*
X-112417700Y-983111D01*
X-112390602Y-1154201D01*
X-112337073Y-1318945D01*
X-112337072Y-1318948D01*
X-112337070Y-1318952D01*
X-112258432Y-1473288D01*
X-112156613Y-1613430D01*
X-112034131Y-1735912D01*
X-112034128Y-1735914D01*
X-111893988Y-1837732D01*
X-111739645Y-1916373D01*
X-111574901Y-1969902D01*
X-111403811Y-1997000D01*
X-111403808Y-1997000D01*
X-111230592Y-1997000D01*
X-111230589Y-1997000D01*
X-111059499Y-1969902D01*
X-110894755Y-1916373D01*
X-110740412Y-1837732D01*
X-110600272Y-1735914D01*
X-110477786Y-1613428D01*
X-110375968Y-1473288D01*
X-110297327Y-1318945D01*
X-110243798Y-1154201D01*
X-110216700Y-983111D01*
X-110216700Y990111D01*
X-110243798Y1161201D01*
X-110297327Y1325945D01*
X-110375968Y1480288D01*
X-110477786Y1620428D01*
X-110477788Y1620431D01*
X-110600270Y1742913D01*
X-110740410Y1844731D01*
X-110797903Y1874025D01*
X-110849518Y1922774D01*
X-110866700Y1986292D01*
X-110866700Y2345907D01*
X-110846698Y2414028D01*
X-110829795Y2435002D01*
X-103455717Y9809080D01*
X-103455711Y9809086D01*
X-103396401Y9911813D01*
X-103389915Y9936025D01*
X-103389914Y9936025D01*
X-103389914Y9936029D01*
X-103365700Y10026391D01*
X-103365700Y11399291D01*
X-100917199Y11399291D01*
X-100914349Y11368894D01*
X-100914348Y11368891D01*
X-100869547Y11240856D01*
X-100869547Y11240855D01*
X-100788993Y11131708D01*
X-100679848Y11051156D01*
X-100567200Y11011739D01*
X-99067200Y11011739D01*
X-98954553Y11051156D01*
X-98845408Y11131708D01*
X-98764854Y11240855D01*
X-98764854Y11240856D01*
X-98720053Y11368890D01*
X-98720052Y11368895D01*
X-98717201Y11399295D01*
X-98717200Y11399301D01*
X-98717200Y12253500D01*
X-99067200Y12253500D01*
X-99067200Y11011739D01*
X-100567200Y11011739D01*
X-100567200Y12253500D01*
X-100917199Y12253500D01*
X-100917199Y11399291D01*
X-103365700Y11399291D01*
X-103365700Y13082491D01*
X-100417200Y13082491D01*
X-100417200Y12924509D01*
X-100376311Y12771909D01*
X-100297319Y12635092D01*
X-100185608Y12523381D01*
X-100048791Y12444389D01*
X-99896191Y12403500D01*
X-99738209Y12403500D01*
X-99585609Y12444389D01*
X-99448792Y12523381D01*
X-99337081Y12635092D01*
X-99258089Y12771909D01*
X-99217200Y12924509D01*
X-99217200Y13082491D01*
X-99258089Y13235091D01*
X-99337081Y13371908D01*
X-99448792Y13483619D01*
X-99585609Y13562611D01*
X-99738209Y13603500D01*
X-99896191Y13603500D01*
X-100048791Y13562611D01*
X-100185608Y13483619D01*
X-100297319Y13371908D01*
X-100376311Y13235091D01*
X-100417200Y13082491D01*
X-103365700Y13082491D01*
X-103365700Y14607706D01*
X-100917200Y14607706D01*
X-100917200Y13753500D01*
X-100567200Y13753500D01*
X-99067200Y13753500D01*
X-98717201Y13753500D01*
X-98717201Y14607695D01*
X-98717202Y14607710D01*
X-98720052Y14638107D01*
X-98720053Y14638110D01*
X-98764854Y14766145D01*
X-98764854Y14766146D01*
X-98845408Y14875293D01*
X-98954552Y14955844D01*
X-98954554Y14955846D01*
X-99067200Y14995263D01*
X-99067200Y13753500D01*
X-100567200Y13753500D01*
X-100567200Y14995263D01*
X-100679847Y14955846D01*
X-100679849Y14955844D01*
X-100788993Y14875293D01*
X-100869547Y14766146D01*
X-100869547Y14766145D01*
X-100914348Y14638111D01*
X-100914349Y14638106D01*
X-100917200Y14607706D01*
X-103365700Y14607706D01*
X-103365700Y18678973D01*
X-103345698Y18747094D01*
X-103314526Y18780348D01*
X-103240489Y18834989D01*
X-103162084Y18941225D01*
X-103118475Y19065851D01*
X-103115700Y19095444D01*
X-103115700Y19675956D01*
X-103118475Y19705549D01*
X-103129415Y19736812D01*
X-103162084Y19830175D01*
X-103223810Y19913811D01*
X-103240489Y19936411D01*
X-103342500Y20011698D01*
X-103346726Y20014817D01*
X-103346725Y20014817D01*
X-103471346Y20058424D01*
X-103471351Y20058425D01*
X-103500942Y20061200D01*
X-103500944Y20061200D01*
X-104181456Y20061200D01*
X-104181459Y20061200D01*
X-104211050Y20058425D01*
X-104211054Y20058424D01*
X-104259641Y20041423D01*
X-104330546Y20037805D01*
X-104392150Y20073095D01*
X-104424897Y20136088D01*
X-104418387Y20206786D01*
X-104390352Y20249446D01*
X-102355711Y22284086D01*
X-102296401Y22386813D01*
X-102289915Y22411025D01*
X-102289914Y22411025D01*
X-102289914Y22411029D01*
X-102265700Y22501391D01*
X-102265700Y22821701D01*
X-102245698Y22889822D01*
X-102192042Y22936315D01*
X-102139704Y22947701D01*
X-101921336Y22947701D01*
X-101896209Y22950615D01*
X-101793435Y22995994D01*
X-101793433Y22995997D01*
X-101792095Y22996587D01*
X-101721699Y23005805D01*
X-101690305Y22996587D01*
X-101688968Y22995997D01*
X-101688965Y22995994D01*
X-101586191Y22950615D01*
X-101561065Y22947700D01*
X-101342701Y22947701D01*
X-101274580Y22927699D01*
X-101228087Y22874044D01*
X-101216700Y22821701D01*
X-101216700Y20949493D01*
X-101236702Y20881372D01*
X-101253605Y20860398D01*
X-102015898Y20098105D01*
X-102078210Y20064079D01*
X-102104993Y20061200D01*
X-102431459Y20061200D01*
X-102461050Y20058425D01*
X-102461055Y20058424D01*
X-102585675Y20014817D01*
X-102691911Y19936411D01*
X-102770317Y19830175D01*
X-102813924Y19705555D01*
X-102813925Y19705550D01*
X-102816700Y19675959D01*
X-102816700Y19095442D01*
X-102813925Y19065851D01*
X-102813924Y19065846D01*
X-102770317Y18941226D01*
X-102770316Y18941225D01*
X-102691911Y18834989D01*
X-102585675Y18756584D01*
X-102585676Y18756584D01*
X-102476084Y18718236D01*
X-102461049Y18712975D01*
X-102431456Y18710200D01*
X-102431453Y18710200D01*
X-101750947Y18710200D01*
X-101750944Y18710200D01*
X-101721351Y18712975D01*
X-101596725Y18756584D01*
X-101490489Y18834989D01*
X-101412084Y18941225D01*
X-101368475Y19065851D01*
X-101365700Y19095444D01*
X-101365700Y19421907D01*
X-101345698Y19490028D01*
X-101328800Y19510998D01*
X-100405711Y20434086D01*
X-100346401Y20536813D01*
X-100330808Y20595009D01*
X-100315700Y20651391D01*
X-100315700Y22821701D01*
X-100295698Y22889822D01*
X-100242042Y22936315D01*
X-100189704Y22947701D01*
X-100042700Y22947701D01*
X-99974579Y22927699D01*
X-99928086Y22874043D01*
X-99916700Y22821701D01*
X-99916700Y20476391D01*
X-99892487Y20386027D01*
X-99885999Y20361813D01*
X-99885998Y20361811D01*
X-99885997Y20361809D01*
X-99826692Y20259090D01*
X-99826690Y20259088D01*
X-99826689Y20259086D01*
X-99103604Y19536001D01*
X-99069580Y19473690D01*
X-99066700Y19446907D01*
X-99066700Y19095442D01*
X-99063925Y19065851D01*
X-99063924Y19065846D01*
X-99020317Y18941226D01*
X-99020316Y18941225D01*
X-98941911Y18834989D01*
X-98835675Y18756584D01*
X-98835676Y18756584D01*
X-98726084Y18718236D01*
X-98711049Y18712975D01*
X-98681456Y18710200D01*
X-98681453Y18710200D01*
X-98000947Y18710200D01*
X-98000944Y18710200D01*
X-97971351Y18712975D01*
X-97846725Y18756584D01*
X-97740489Y18834989D01*
X-97662084Y18941225D01*
X-97618475Y19065851D01*
X-97615700Y19095444D01*
X-97615700Y19675956D01*
X-97618475Y19705549D01*
X-97629415Y19736812D01*
X-97662084Y19830175D01*
X-97723810Y19913811D01*
X-97740489Y19936411D01*
X-97842500Y20011698D01*
X-97846726Y20014817D01*
X-97846725Y20014817D01*
X-97971346Y20058424D01*
X-97971351Y20058425D01*
X-98000942Y20061200D01*
X-98000944Y20061200D01*
X-98302407Y20061200D01*
X-98370528Y20081202D01*
X-98391502Y20098105D01*
X-98978795Y20685398D01*
X-99012821Y20747710D01*
X-99015700Y20774493D01*
X-99015700Y22821701D01*
X-98995698Y22889822D01*
X-98942042Y22936315D01*
X-98889704Y22947701D01*
X-98742700Y22947701D01*
X-98674579Y22927699D01*
X-98628086Y22874043D01*
X-98616700Y22821701D01*
X-98616700Y22601391D01*
X-98595671Y22522909D01*
X-98595670Y22522908D01*
X-98585999Y22486814D01*
X-98585997Y22486809D01*
X-98526692Y22384090D01*
X-98526684Y22384080D01*
X-96418898Y20276295D01*
X-96384873Y20213983D01*
X-96389937Y20143168D01*
X-96432484Y20086332D01*
X-96499004Y20061521D01*
X-96507993Y20061200D01*
X-96931459Y20061200D01*
X-96961050Y20058425D01*
X-96961055Y20058424D01*
X-97085675Y20014817D01*
X-97191911Y19936411D01*
X-97270317Y19830175D01*
X-97313924Y19705555D01*
X-97313925Y19705550D01*
X-97316700Y19675959D01*
X-97316700Y19095442D01*
X-97313925Y19065851D01*
X-97313924Y19065846D01*
X-97270317Y18941226D01*
X-97270316Y18941225D01*
X-97191911Y18834989D01*
X-97135345Y18793242D01*
X-97085675Y18756584D01*
X-97085674Y18756583D01*
X-96976085Y18718236D01*
X-96918393Y18676858D01*
X-96892231Y18610858D01*
X-96891700Y18599307D01*
X-96891700Y14910595D01*
X-96911702Y14842474D01*
X-96943638Y14808659D01*
X-97034135Y14742909D01*
X-97156613Y14620431D01*
X-97258432Y14480289D01*
X-97337070Y14325953D01*
X-97337073Y14325947D01*
X-97337073Y14325945D01*
X-97390602Y14161201D01*
X-97417700Y13990111D01*
X-97417700Y12016889D01*
X-97390602Y11845799D01*
X-97337073Y11681055D01*
X-97337072Y11681052D01*
X-97337070Y11681048D01*
X-97258432Y11526712D01*
X-97156613Y11386570D01*
X-97034131Y11264088D01*
X-96995746Y11236200D01*
X-96893988Y11162268D01*
X-96739645Y11083627D01*
X-96574901Y11030098D01*
X-96403811Y11003000D01*
X-96403808Y11003000D01*
X-96230592Y11003000D01*
X-96230589Y11003000D01*
X-96059499Y11030098D01*
X-95894755Y11083627D01*
X-95740412Y11162268D01*
X-95600272Y11264086D01*
X-95477786Y11386572D01*
X-95375968Y11526712D01*
X-95297327Y11681055D01*
X-95243798Y11845799D01*
X-95216700Y12016889D01*
X-95216700Y13990111D01*
X-95243798Y14161201D01*
X-95297327Y14325945D01*
X-95375968Y14480288D01*
X-95469095Y14608466D01*
X-95477788Y14620431D01*
X-95600270Y14742913D01*
X-95740412Y14844732D01*
X-95894754Y14923373D01*
X-95894759Y14923375D01*
X-95903639Y14926260D01*
X-95962244Y14966335D01*
X-95989879Y15031732D01*
X-95990700Y15046092D01*
X-95990700Y18793242D01*
X-95970698Y18861363D01*
X-95966079Y18868063D01*
X-95939545Y18904018D01*
X-95912084Y18941225D01*
X-95868475Y19065851D01*
X-95866650Y19085316D01*
X-95840375Y19151271D01*
X-95782613Y19192551D01*
X-95711702Y19196050D01*
X-95650157Y19160656D01*
X-95617518Y19097607D01*
X-95615750Y19085315D01*
X-95613925Y19065851D01*
X-95613924Y19065846D01*
X-95570317Y18941226D01*
X-95570316Y18941225D01*
X-95491911Y18834989D01*
X-95385675Y18756584D01*
X-95385676Y18756584D01*
X-95276084Y18718236D01*
X-95261049Y18712975D01*
X-95231456Y18710200D01*
X-95231453Y18710200D01*
X-94550947Y18710200D01*
X-94550944Y18710200D01*
X-94521351Y18712975D01*
X-94396725Y18756584D01*
X-94290489Y18834989D01*
X-94212084Y18941225D01*
X-94168475Y19065851D01*
X-94165700Y19095444D01*
X-94165700Y19675956D01*
X-94168475Y19705549D01*
X-94179415Y19736812D01*
X-94212084Y19830175D01*
X-94273810Y19913811D01*
X-94290489Y19936411D01*
X-94392500Y20011698D01*
X-94396726Y20014817D01*
X-94396725Y20014817D01*
X-94521346Y20058424D01*
X-94521351Y20058425D01*
X-94550942Y20061200D01*
X-94550944Y20061200D01*
X-94877407Y20061200D01*
X-94945528Y20081202D01*
X-94966502Y20098105D01*
X-97678795Y22810398D01*
X-97712821Y22872710D01*
X-97715700Y22899493D01*
X-97715700Y23949433D01*
X-97716200Y23957063D01*
X-97716200Y24806989D01*
X-97789689Y24774541D01*
X-97860085Y24765325D01*
X-97891475Y24774541D01*
X-97964964Y24806989D01*
X-97996209Y24820785D01*
X-97996210Y24820786D01*
X-97996212Y24820786D01*
X-98021332Y24823700D01*
X-98311061Y24823700D01*
X-98311067Y24823699D01*
X-98336190Y24820786D01*
X-98336195Y24820784D01*
X-98440307Y24774814D01*
X-98510703Y24765596D01*
X-98542095Y24774814D01*
X-98543435Y24775406D01*
X-98625622Y24811695D01*
X-98646211Y24820786D01*
X-98646209Y24820786D01*
X-98671332Y24823700D01*
X-98961061Y24823700D01*
X-98961067Y24823699D01*
X-98986190Y24820786D01*
X-98986195Y24820784D01*
X-99090307Y24774814D01*
X-99160703Y24765596D01*
X-99192095Y24774814D01*
X-99193435Y24775406D01*
X-99275622Y24811695D01*
X-99296211Y24820786D01*
X-99296209Y24820786D01*
X-99321332Y24823700D01*
X-99611061Y24823700D01*
X-99611067Y24823699D01*
X-99636190Y24820786D01*
X-99636195Y24820784D01*
X-99740307Y24774814D01*
X-99810703Y24765596D01*
X-99842095Y24774814D01*
X-99843435Y24775406D01*
X-99925622Y24811695D01*
X-99946211Y24820786D01*
X-99946209Y24820786D01*
X-99971331Y24823700D01*
X-100042974Y24823700D01*
X-100111095Y24843702D01*
X-100157588Y24897358D01*
X-100167692Y24967632D01*
X-100138198Y25032212D01*
X-100132083Y25038781D01*
X-100105164Y25065700D01*
X-95803344Y25065700D01*
X-95611200Y25065700D01*
X-95021200Y25065700D01*
X-94829056Y25065700D01*
X-94854654Y25120595D01*
X-94941306Y25207247D01*
X-95021200Y25244503D01*
X-95021200Y25065700D01*
X-95611200Y25065700D01*
X-95611200Y25244503D01*
X-95691095Y25207247D01*
X-95777747Y25120595D01*
X-95803344Y25065700D01*
X-100105164Y25065700D01*
X-97215726Y27955137D01*
X-97215725Y27955138D01*
X-97166290Y28040762D01*
X-97140700Y28136265D01*
X-97140700Y28572581D01*
X-97120698Y28640702D01*
X-97083488Y28678147D01*
X-97066200Y28689413D01*
X-96666200Y28689413D01*
X-96593723Y28721413D01*
X-96514413Y28800723D01*
X-96469110Y28903327D01*
X-96466201Y28928402D01*
X-96466200Y28928405D01*
X-96466200Y29410700D01*
X-96666200Y29410700D01*
X-96666200Y28689413D01*
X-97066200Y28689413D01*
X-97066200Y29810700D01*
X-96666200Y29810700D01*
X-96466201Y29810700D01*
X-96466201Y30292989D01*
X-96466202Y30292995D01*
X-96469110Y30318074D01*
X-96469112Y30318079D01*
X-96514413Y30420677D01*
X-96593723Y30499988D01*
X-96593724Y30499989D01*
X-96666200Y30531990D01*
X-96666200Y29810700D01*
X-97066200Y29810700D01*
X-97066200Y30531989D01*
X-97139689Y30499541D01*
X-97210085Y30490325D01*
X-97241475Y30499541D01*
X-97346207Y30545784D01*
X-97346209Y30545785D01*
X-97346210Y30545786D01*
X-97346212Y30545786D01*
X-97371332Y30548700D01*
X-97661061Y30548700D01*
X-97661067Y30548699D01*
X-97686190Y30545786D01*
X-97686198Y30545784D01*
X-97790926Y30499542D01*
X-97861322Y30490325D01*
X-97892712Y30499542D01*
X-97966200Y30531990D01*
X-97966200Y28689413D01*
X-97948912Y28678147D01*
X-97902758Y28624199D01*
X-97891700Y28572581D01*
X-97891700Y28393427D01*
X-97911702Y28325306D01*
X-97928601Y28304337D01*
X-98125602Y28107335D01*
X-98300594Y27932343D01*
X-98362906Y27898318D01*
X-98433722Y27903383D01*
X-98490557Y27945930D01*
X-98515368Y28012450D01*
X-98500276Y28081825D01*
X-98498807Y28084440D01*
X-98466292Y28140758D01*
X-98466293Y28140758D01*
X-98466289Y28140763D01*
X-98440700Y28236264D01*
X-98440700Y28335136D01*
X-98440700Y28572581D01*
X-98420698Y28640702D01*
X-98383488Y28678147D01*
X-98366200Y28689413D01*
X-98366200Y30531989D01*
X-98439689Y30499541D01*
X-98510085Y30490325D01*
X-98541475Y30499541D01*
X-98646207Y30545784D01*
X-98646209Y30545785D01*
X-98646210Y30545786D01*
X-98646212Y30545786D01*
X-98671332Y30548700D01*
X-98961061Y30548700D01*
X-98961067Y30548699D01*
X-98986190Y30545786D01*
X-98986198Y30545784D01*
X-99090926Y30499542D01*
X-99161322Y30490325D01*
X-99192712Y30499542D01*
X-99266200Y30531990D01*
X-99266200Y28689413D01*
X-99248912Y28678147D01*
X-99202758Y28624199D01*
X-99191700Y28572581D01*
X-99191700Y28493430D01*
X-99211702Y28425309D01*
X-99228605Y28404335D01*
X-99525605Y28107335D01*
X-99587917Y28073309D01*
X-99658732Y28078374D01*
X-99715568Y28120921D01*
X-99740379Y28187441D01*
X-99740700Y28196430D01*
X-99740700Y28572581D01*
X-99720698Y28640702D01*
X-99683488Y28678147D01*
X-99666200Y28689413D01*
X-99666200Y30531989D01*
X-99739689Y30499541D01*
X-99810085Y30490325D01*
X-99841475Y30499541D01*
X-99946207Y30545784D01*
X-99946209Y30545785D01*
X-99946210Y30545786D01*
X-99946212Y30545786D01*
X-99971332Y30548700D01*
X-100261061Y30548700D01*
X-100261067Y30548699D01*
X-100286190Y30545786D01*
X-100286198Y30545784D01*
X-100390926Y30499542D01*
X-100461322Y30490325D01*
X-100492712Y30499542D01*
X-100566200Y30531990D01*
X-100566200Y28689413D01*
X-100548912Y28678147D01*
X-100502758Y28624199D01*
X-100491700Y28572581D01*
X-100491700Y28193427D01*
X-100511702Y28125306D01*
X-100528605Y28104332D01*
X-101934832Y26698105D01*
X-101997144Y26664079D01*
X-102023927Y26661200D01*
X-115370580Y26661200D01*
X-115438701Y26681202D01*
X-115485194Y26734858D01*
X-115495661Y26802388D01*
X-115485545Y26885698D01*
X-115485545Y26885703D01*
X-115506050Y27054572D01*
X-115566370Y27213626D01*
X-115566372Y27213628D01*
X-115566372Y27213630D01*
X-115652637Y27338605D01*
X-115674871Y27406026D01*
X-115657124Y27474769D01*
X-115605030Y27523005D01*
X-115567100Y27534862D01*
X-115561954Y27535612D01*
X-115561952Y27535613D01*
X-115457010Y27586915D01*
X-115374415Y27669510D01*
X-115374414Y27669512D01*
X-115323114Y27774449D01*
X-115323113Y27774451D01*
X-115313201Y27842480D01*
X-115313200Y27842486D01*
X-115313200Y28400700D01*
X-116313199Y28400700D01*
X-116313199Y27842484D01*
X-116303289Y27774453D01*
X-116303287Y27774450D01*
X-116286837Y27740800D01*
X-116274888Y27670816D01*
X-116302672Y27605481D01*
X-116361368Y27565540D01*
X-116369880Y27563122D01*
X-116441413Y27545491D01*
X-116441414Y27545491D01*
X-116448223Y27541917D01*
X-116454500Y27538623D01*
X-116524112Y27524677D01*
X-116590214Y27550581D01*
X-116631818Y27608110D01*
X-116635715Y27679000D01*
X-116626250Y27705530D01*
X-116616145Y27726200D01*
X-116592627Y27774307D01*
X-116582700Y27842440D01*
X-116582700Y29558921D01*
X-116313200Y29558921D01*
X-116313200Y29000700D01*
X-116113200Y29000700D01*
X-115513200Y29000700D01*
X-115313201Y29000700D01*
X-115313201Y29558917D01*
X-115323112Y29626948D01*
X-115323113Y29626949D01*
X-115374415Y29731891D01*
X-115457009Y29814485D01*
X-115513200Y29841956D01*
X-115513200Y29000700D01*
X-116113200Y29000700D01*
X-116113200Y29841956D01*
X-116169391Y29814485D01*
X-116169392Y29814485D01*
X-116251986Y29731891D01*
X-116251987Y29731889D01*
X-116303287Y29626952D01*
X-116303288Y29626950D01*
X-116313200Y29558921D01*
X-116582700Y29558921D01*
X-116582700Y29558960D01*
X-116592627Y29627093D01*
X-116644002Y29732183D01*
X-116644004Y29732186D01*
X-116726715Y29814897D01*
X-116726718Y29814899D01*
X-116831806Y29866273D01*
X-116899939Y29876200D01*
X-116899940Y29876200D01*
X-117266460Y29876200D01*
X-117266462Y29876200D01*
X-117334595Y29866273D01*
X-117439683Y29814899D01*
X-117439686Y29814897D01*
X-117522397Y29732186D01*
X-117522399Y29732183D01*
X-117573773Y29627095D01*
X-117583700Y29558962D01*
X-117583700Y27842439D01*
X-117573773Y27774306D01*
X-117522400Y27669219D01*
X-117522399Y27669218D01*
X-117522398Y27669217D01*
X-117495605Y27642424D01*
X-117461580Y27580114D01*
X-117458700Y27553329D01*
X-117458700Y26308261D01*
X-117439968Y26238351D01*
X-117433111Y26212761D01*
X-117433109Y26212756D01*
X-117417200Y26185200D01*
X-117391543Y26140762D01*
X-117383674Y26127133D01*
X-117047845Y25791304D01*
X-117013821Y25728993D01*
X-117018885Y25658178D01*
X-117061432Y25601342D01*
X-117127952Y25576531D01*
X-117136941Y25576210D01*
X-118050627Y25576210D01*
X-118098379Y25563415D01*
X-118098380Y25563416D01*
X-118146127Y25550621D01*
X-118231749Y25501188D01*
X-118231752Y25501185D01*
X-118231753Y25501184D01*
X-118583762Y25149175D01*
X-118604615Y25128322D01*
X-118653674Y25079264D01*
X-118653678Y25079259D01*
X-118703110Y24993638D01*
X-118703111Y24993638D01*
X-118703110Y24993637D01*
X-118725829Y24908846D01*
X-118728132Y24900252D01*
X-118728138Y24900231D01*
X-118728700Y24898135D01*
X-118728700Y24898072D01*
X-118728716Y24898020D01*
X-118729779Y24889944D01*
X-118731038Y24890110D01*
X-118748702Y24829951D01*
X-118765605Y24808977D01*
X-118792397Y24782186D01*
X-118792399Y24782183D01*
X-118843773Y24677095D01*
X-118853700Y24608962D01*
X-118853700Y22892439D01*
X-118843773Y22824306D01*
X-118792399Y22719218D01*
X-118792397Y22719215D01*
X-118709686Y22636504D01*
X-118709683Y22636502D01*
X-118604593Y22585127D01*
X-118536460Y22575200D01*
X-118536455Y22575200D01*
X-118169945Y22575200D01*
X-118169940Y22575200D01*
X-118101807Y22585127D01*
X-117996717Y22636502D01*
X-117914002Y22719217D01*
X-117862627Y22824307D01*
X-117852700Y22892440D01*
X-117852700Y22892484D01*
X-117583199Y22892484D01*
X-117573289Y22824453D01*
X-117573288Y22824452D01*
X-117521986Y22719510D01*
X-117439391Y22636915D01*
X-117383201Y22609445D01*
X-117383200Y22609445D01*
X-116783200Y22609445D01*
X-116727010Y22636915D01*
X-116644415Y22719510D01*
X-116644414Y22719512D01*
X-116593114Y22824449D01*
X-116593113Y22824451D01*
X-116583201Y22892480D01*
X-116583200Y22892486D01*
X-116583200Y23450700D01*
X-116783200Y23450700D01*
X-116783200Y22609445D01*
X-117383200Y22609445D01*
X-117383200Y23450700D01*
X-117583199Y23450700D01*
X-117583199Y22892484D01*
X-117852700Y22892484D01*
X-117852700Y24608960D01*
X-117862627Y24677093D01*
X-117862628Y24677095D01*
X-117863203Y24681043D01*
X-117853231Y24751336D01*
X-117806839Y24805079D01*
X-117738756Y24825210D01*
X-117697375Y24825210D01*
X-117629254Y24805208D01*
X-117582761Y24751552D01*
X-117572657Y24681278D01*
X-117572692Y24681043D01*
X-117583199Y24608932D01*
X-117583200Y24608915D01*
X-117583200Y24050700D01*
X-116583201Y24050700D01*
X-116583201Y24608917D01*
X-116593709Y24681046D01*
X-116583736Y24751338D01*
X-116537343Y24805081D01*
X-116469260Y24825210D01*
X-116427881Y24825210D01*
X-116359760Y24805208D01*
X-116313267Y24751552D01*
X-116303163Y24681278D01*
X-116303197Y24681043D01*
X-116303773Y24677095D01*
X-116303773Y24677093D01*
X-116313700Y24608962D01*
X-116313700Y24608960D01*
X-116313700Y22892439D01*
X-116303773Y22824306D01*
X-116252400Y22719219D01*
X-116252399Y22719218D01*
X-116252398Y22719217D01*
X-116225605Y22692424D01*
X-116191580Y22630114D01*
X-116188700Y22603329D01*
X-116188700Y22314617D01*
X-116208702Y22246496D01*
X-116238117Y22216094D01*
X-116237787Y22215721D01*
X-116242616Y22211444D01*
X-116243116Y22210926D01*
X-116243494Y22210666D01*
X-116370821Y22097864D01*
X-116370823Y22097862D01*
X-116467458Y21957863D01*
X-116467460Y21957859D01*
X-116527780Y21798805D01*
X-116548284Y21629936D01*
X-116548284Y21629931D01*
X-116527780Y21461062D01*
X-116467460Y21302008D01*
X-116467458Y21302004D01*
X-116370823Y21162005D01*
X-116370821Y21162003D01*
X-116250007Y21054971D01*
X-116243491Y21049199D01*
X-116092864Y20970143D01*
X-116092863Y20970143D01*
X-116092861Y20970142D01*
X-116009083Y20949493D01*
X-115927695Y20929433D01*
X-115927692Y20929433D01*
X-115757586Y20929433D01*
X-115757583Y20929433D01*
X-115592414Y20970143D01*
X-115441787Y21049199D01*
X-115314456Y21162004D01*
X-115306127Y21174071D01*
X-115250973Y21218772D01*
X-115180405Y21226558D01*
X-115116829Y21194956D01*
X-115098736Y21174076D01*
X-115094388Y21167777D01*
X-115094382Y21167770D01*
X-115087874Y21162004D01*
X-114967052Y21054966D01*
X-114816425Y20975910D01*
X-114816424Y20975910D01*
X-114816422Y20975909D01*
X-114709246Y20949493D01*
X-114651256Y20935200D01*
X-114651253Y20935200D01*
X-114481147Y20935200D01*
X-114481144Y20935200D01*
X-114315975Y20975910D01*
X-114165348Y21054966D01*
X-114038017Y21167771D01*
X-114023917Y21188200D01*
X-113968762Y21232899D01*
X-113898193Y21240684D01*
X-113836669Y21210937D01*
X-113717052Y21104966D01*
X-113566425Y21025910D01*
X-113566424Y21025910D01*
X-113566422Y21025909D01*
X-113409739Y20987291D01*
X-113401256Y20985200D01*
X-113401253Y20985200D01*
X-113231147Y20985200D01*
X-113231144Y20985200D01*
X-113065975Y21025910D01*
X-112915348Y21104966D01*
X-112788017Y21217771D01*
X-112691382Y21357770D01*
X-112631060Y21516828D01*
X-112610555Y21685700D01*
X-112624289Y21798805D01*
X-112631060Y21854572D01*
X-112691380Y22013626D01*
X-112691382Y22013630D01*
X-112788016Y22153628D01*
X-112855254Y22213196D01*
X-112892979Y22273341D01*
X-112897700Y22307508D01*
X-112897700Y22370700D01*
X-110903344Y22370700D01*
X-110877747Y22315807D01*
X-110791092Y22229153D01*
X-110791093Y22229153D01*
X-110711200Y22191900D01*
X-110711200Y22370700D01*
X-110903344Y22370700D01*
X-112897700Y22370700D01*
X-112897700Y22603329D01*
X-112877698Y22671450D01*
X-112860799Y22692421D01*
X-112834002Y22719217D01*
X-112805766Y22776976D01*
X-112757881Y22829388D01*
X-112689258Y22847592D01*
X-112621686Y22825807D01*
X-112576620Y22770947D01*
X-112573641Y22763252D01*
X-112555993Y22712817D01*
X-112555992Y22712815D01*
X-112475351Y22603550D01*
X-112366086Y22522909D01*
X-112366082Y22522907D01*
X-112262920Y22486809D01*
X-112237899Y22478054D01*
X-112207466Y22475200D01*
X-112207464Y22475200D01*
X-111798936Y22475200D01*
X-111798934Y22475200D01*
X-111768501Y22478054D01*
X-111640318Y22522907D01*
X-111640259Y22522950D01*
X-111531050Y22603550D01*
X-111450409Y22712815D01*
X-111450407Y22712819D01*
X-111448167Y22719219D01*
X-111405554Y22841001D01*
X-111402700Y22871434D01*
X-111402700Y22959200D01*
X-111382698Y23027321D01*
X-111329042Y23073814D01*
X-111276700Y23085200D01*
X-111043069Y23085200D01*
X-110974948Y23065198D01*
X-110928455Y23011542D01*
X-110926334Y22996785D01*
X-110903345Y22960700D01*
X-110247200Y22960700D01*
X-110179079Y22940698D01*
X-110132586Y22887042D01*
X-110121200Y22834700D01*
X-110121200Y22191900D01*
X-110095949Y22203674D01*
X-110025758Y22214335D01*
X-109960945Y22185355D01*
X-109922089Y22125935D01*
X-109916700Y22089479D01*
X-109916700Y19912200D01*
X-109936702Y19844079D01*
X-109990358Y19797586D01*
X-110042700Y19786200D01*
X-122770048Y19786200D01*
X-122902604Y19759833D01*
X-122924697Y19755438D01*
X-123045138Y19705549D01*
X-123070381Y19695093D01*
X-123201485Y19607492D01*
X-123201492Y19607487D01*
X-124235873Y18573105D01*
X-124298185Y18539079D01*
X-124324968Y18536200D01*
X-124509306Y18536200D01*
X-124597765Y18525578D01*
X-124738542Y18470062D01*
X-124738546Y18470059D01*
X-124859123Y18378623D01*
X-124950559Y18258046D01*
X-124950562Y18258042D01*
X-125006078Y18117265D01*
X-125016700Y18028806D01*
X-125016700Y17042595D01*
X-125006078Y16954136D01*
X-124950485Y16813165D01*
X-124941700Y16766941D01*
X-124941700Y13462200D01*
X-124961702Y13394079D01*
X-125015358Y13347586D01*
X-125067700Y13336200D01*
X-125927907Y13336200D01*
X-125996028Y13356202D01*
X-126042521Y13409858D01*
X-126043171Y13411306D01*
X-126063994Y13458466D01*
X-126143433Y13537905D01*
X-126143435Y13537906D01*
X-126246211Y13583286D01*
X-126246210Y13583286D01*
X-126271332Y13586200D01*
X-128361060Y13586200D01*
X-128361067Y13586199D01*
X-128386191Y13583286D01*
X-128386195Y13583284D01*
X-128488966Y13537907D01*
X-128568407Y13458466D01*
X-128589229Y13411306D01*
X-128635042Y13357069D01*
X-128702906Y13336210D01*
X-128704493Y13336200D01*
X-129245045Y13336200D01*
X-129399698Y13305437D01*
X-129399703Y13305435D01*
X-129545380Y13245094D01*
X-129676485Y13157492D01*
X-129676492Y13157487D01*
X-130437987Y12395992D01*
X-130437992Y12395985D01*
X-130525594Y12264880D01*
X-130585935Y12119203D01*
X-130585937Y12119198D01*
X-130616700Y11964545D01*
X-132343691Y11964545D01*
X-132343868Y14065999D01*
X-128516200Y14065999D01*
X-128504596Y14007664D01*
X-128460393Y13941508D01*
X-128394237Y13897305D01*
X-128335902Y13885701D01*
X-128335897Y13885700D01*
X-128066200Y13885700D01*
X-126566200Y13885700D01*
X-126296503Y13885700D01*
X-126296499Y13885701D01*
X-126238164Y13897305D01*
X-126172008Y13941508D01*
X-126127805Y14007664D01*
X-126116201Y14065999D01*
X-126116200Y14066004D01*
X-126116200Y14085700D01*
X-126566200Y14085700D01*
X-126566200Y13885700D01*
X-128066200Y13885700D01*
X-128066200Y14085700D01*
X-128516200Y14085700D01*
X-128516200Y14065999D01*
X-132343868Y14065999D01*
X-132343997Y15605402D01*
X-128516200Y15605402D01*
X-128516200Y15585700D01*
X-128066200Y15585700D01*
X-126566200Y15585700D01*
X-126116200Y15585700D01*
X-126116200Y15605397D01*
X-126116201Y15605402D01*
X-126127805Y15663737D01*
X-126172008Y15729893D01*
X-126238164Y15774096D01*
X-126296499Y15785700D01*
X-126566200Y15785700D01*
X-126566200Y15585700D01*
X-128066200Y15585700D01*
X-128066200Y15785700D01*
X-128335902Y15785700D01*
X-128394237Y15774096D01*
X-128460393Y15729893D01*
X-128504596Y15663737D01*
X-128516200Y15605402D01*
X-132343997Y15605402D01*
X-132344111Y16960700D01*
X-126949214Y16960700D01*
X-126918546Y16873053D01*
X-126837994Y16763910D01*
X-126766201Y16710924D01*
X-126766200Y16710924D01*
X-125616200Y16710924D01*
X-125544407Y16763910D01*
X-125463855Y16873053D01*
X-125433186Y16960700D01*
X-125616200Y16960700D01*
X-125616200Y16710924D01*
X-126766200Y16710924D01*
X-126766200Y16960700D01*
X-126949214Y16960700D01*
X-132344111Y16960700D01*
X-132344208Y18110700D01*
X-126949214Y18110700D01*
X-126766200Y18110700D01*
X-125616200Y18110700D01*
X-125433186Y18110700D01*
X-125463855Y18198348D01*
X-125544407Y18307491D01*
X-125616200Y18360479D01*
X-125616200Y18110700D01*
X-126766200Y18110700D01*
X-126766200Y18360479D01*
X-126837994Y18307491D01*
X-126918546Y18198348D01*
X-126949214Y18110700D01*
X-132344208Y18110700D01*
X-132345384Y32103959D01*
X-124915700Y32103959D01*
X-124915700Y31523442D01*
X-124912925Y31493851D01*
X-124912924Y31493846D01*
X-124869317Y31369225D01*
X-124869315Y31369222D01*
X-124790913Y31262990D01*
X-124783711Y31257675D01*
X-124766881Y31245254D01*
X-124723948Y31188711D01*
X-124715700Y31143874D01*
X-124715700Y27148265D01*
X-124708163Y27120138D01*
X-124690111Y27052765D01*
X-124690108Y27052758D01*
X-124640678Y26967142D01*
X-124640674Y26967137D01*
X-121430605Y23757068D01*
X-121396579Y23694756D01*
X-121393700Y23667973D01*
X-121393700Y22892439D01*
X-121383773Y22824306D01*
X-121332399Y22719218D01*
X-121332397Y22719215D01*
X-121249686Y22636504D01*
X-121249683Y22636502D01*
X-121144593Y22585127D01*
X-121076460Y22575200D01*
X-121076455Y22575200D01*
X-120709945Y22575200D01*
X-120709940Y22575200D01*
X-120641807Y22585127D01*
X-120536717Y22636502D01*
X-120454002Y22719217D01*
X-120402627Y22824307D01*
X-120392700Y22892440D01*
X-120392700Y24132451D01*
X-120372698Y24200572D01*
X-120319042Y24247065D01*
X-120248768Y24257169D01*
X-120184188Y24227675D01*
X-120177605Y24221546D01*
X-120160605Y24204546D01*
X-120126579Y24142234D01*
X-120123700Y24115451D01*
X-120123700Y22892439D01*
X-120113773Y22824306D01*
X-120062399Y22719218D01*
X-120062397Y22719215D01*
X-119979686Y22636504D01*
X-119979683Y22636502D01*
X-119874593Y22585127D01*
X-119806460Y22575200D01*
X-119806455Y22575200D01*
X-119439945Y22575200D01*
X-119439940Y22575200D01*
X-119371807Y22585127D01*
X-119266717Y22636502D01*
X-119184002Y22719217D01*
X-119132627Y22824307D01*
X-119122700Y22892440D01*
X-119122700Y24608960D01*
X-119132627Y24677093D01*
X-119184002Y24782183D01*
X-119184004Y24782186D01*
X-119266715Y24864897D01*
X-119266718Y24864899D01*
X-119371806Y24916273D01*
X-119439939Y24926200D01*
X-119439940Y24926200D01*
X-119767995Y24926200D01*
X-119836116Y24946202D01*
X-119857090Y24963105D01*
X-121877795Y26983810D01*
X-121911821Y27046122D01*
X-121914700Y27072905D01*
X-121914700Y27842484D01*
X-121393199Y27842484D01*
X-121383289Y27774453D01*
X-121383288Y27774452D01*
X-121331986Y27669510D01*
X-121249391Y27586915D01*
X-121193201Y27559445D01*
X-121193200Y27559445D01*
X-120593200Y27559445D01*
X-120537010Y27586915D01*
X-120454415Y27669510D01*
X-120454414Y27669512D01*
X-120403114Y27774449D01*
X-120403113Y27774451D01*
X-120393201Y27842480D01*
X-120393200Y27842486D01*
X-120393200Y28400700D01*
X-120593200Y28400700D01*
X-120593200Y27559445D01*
X-121193200Y27559445D01*
X-121193200Y28400700D01*
X-121393199Y28400700D01*
X-121393199Y27842484D01*
X-121914700Y27842484D01*
X-121914700Y29558921D01*
X-121393200Y29558921D01*
X-121393200Y29000700D01*
X-121193200Y29000700D01*
X-120593200Y29000700D01*
X-120393201Y29000700D01*
X-120393201Y29558917D01*
X-120403112Y29626948D01*
X-120403113Y29626949D01*
X-120454415Y29731891D01*
X-120537009Y29814485D01*
X-120593200Y29841956D01*
X-120593200Y29000700D01*
X-121193200Y29000700D01*
X-121193200Y29841956D01*
X-121249391Y29814485D01*
X-121249392Y29814485D01*
X-121331986Y29731891D01*
X-121331987Y29731889D01*
X-121383287Y29626952D01*
X-121383288Y29626950D01*
X-121393200Y29558921D01*
X-121914700Y29558921D01*
X-121914700Y31143874D01*
X-121894698Y31211995D01*
X-121863521Y31245254D01*
X-121839489Y31262989D01*
X-121839487Y31262991D01*
X-121761086Y31369222D01*
X-121761084Y31369225D01*
X-121744096Y31417774D01*
X-121717475Y31493851D01*
X-121714700Y31523444D01*
X-121714700Y31805973D01*
X-121694698Y31874094D01*
X-121677795Y31895068D01*
X-118685731Y34887132D01*
X-118685725Y34887138D01*
X-118636289Y34972763D01*
X-118610700Y35068264D01*
X-118610700Y35068267D01*
X-118609622Y35076453D01*
X-118608071Y35076249D01*
X-118590698Y35135416D01*
X-118537042Y35181909D01*
X-118466768Y35192013D01*
X-118402188Y35162519D01*
X-118395605Y35156390D01*
X-118391563Y35152348D01*
X-118391558Y35152344D01*
X-118391557Y35152343D01*
X-118246825Y35033564D01*
X-118133066Y34972759D01*
X-118081701Y34945304D01*
X-118081697Y34945302D01*
X-117902535Y34890954D01*
X-117902534Y34890954D01*
X-117902531Y34890953D01*
X-117902528Y34890953D01*
X-117902524Y34890952D01*
X-117716203Y34872601D01*
X-117716200Y34872601D01*
X-117716197Y34872601D01*
X-117529877Y34890952D01*
X-117529875Y34890953D01*
X-117529869Y34890953D01*
X-117501751Y34899483D01*
X-117350704Y34945302D01*
X-117350702Y34945304D01*
X-117350699Y34945304D01*
X-117185575Y35033564D01*
X-117040843Y35152343D01*
X-117040841Y35152346D01*
X-117040838Y35152348D01*
X-117036795Y35156390D01*
X-116974483Y35190416D01*
X-116903668Y35185351D01*
X-116846832Y35142804D01*
X-116822021Y35076284D01*
X-116821700Y35067295D01*
X-116821700Y34696094D01*
X-116841702Y34627973D01*
X-116895358Y34581480D01*
X-116965632Y34571376D01*
X-117006256Y34584527D01*
X-117070985Y34618500D01*
X-117070989Y34618502D01*
X-117236151Y34659210D01*
X-117236154Y34659210D01*
X-117406266Y34659210D01*
X-117406270Y34659210D01*
X-117571432Y34618502D01*
X-117571436Y34618500D01*
X-117722062Y34539445D01*
X-117722064Y34539443D01*
X-117849392Y34426641D01*
X-117849393Y34426640D01*
X-117875628Y34388632D01*
X-117930787Y34343933D01*
X-117979323Y34334210D01*
X-118273754Y34334210D01*
X-118372626Y34334210D01*
X-118431077Y34318549D01*
X-118468132Y34308620D01*
X-118553750Y34259188D01*
X-118553756Y34259183D01*
X-118801763Y34011175D01*
X-119998762Y32814175D01*
X-120018221Y32794716D01*
X-120068674Y32744264D01*
X-120068678Y32744259D01*
X-120118108Y32658643D01*
X-120118111Y32658636D01*
X-120143700Y32563134D01*
X-120143700Y32483527D01*
X-120163702Y32415406D01*
X-120194879Y32382148D01*
X-120218907Y32364415D01*
X-120218910Y32364413D01*
X-120297317Y32258175D01*
X-120340924Y32133555D01*
X-120340925Y32133550D01*
X-120343700Y32103959D01*
X-120343700Y31523442D01*
X-120340925Y31493851D01*
X-120340924Y31493846D01*
X-120297317Y31369226D01*
X-120297316Y31369225D01*
X-120218911Y31262989D01*
X-120168674Y31225913D01*
X-120112676Y31184584D01*
X-120098846Y31179745D01*
X-120083086Y31174231D01*
X-120025394Y31132854D01*
X-119999231Y31066854D01*
X-119998700Y31055301D01*
X-119998700Y29848072D01*
X-120018702Y29779951D01*
X-120035605Y29758977D01*
X-120062397Y29732186D01*
X-120062399Y29732183D01*
X-120113773Y29627095D01*
X-120123700Y29558962D01*
X-120123700Y27842439D01*
X-120113773Y27774306D01*
X-120062399Y27669218D01*
X-120062397Y27669215D01*
X-119979686Y27586504D01*
X-119979683Y27586502D01*
X-119874593Y27535127D01*
X-119806460Y27525200D01*
X-119806455Y27525200D01*
X-119439945Y27525200D01*
X-119439940Y27525200D01*
X-119371807Y27535127D01*
X-119266717Y27586502D01*
X-119184002Y27669217D01*
X-119132627Y27774307D01*
X-119122700Y27842440D01*
X-119122700Y29558960D01*
X-119132627Y29627093D01*
X-119184002Y29732183D01*
X-119184004Y29732186D01*
X-119210795Y29758977D01*
X-119244821Y29821289D01*
X-119247700Y29848072D01*
X-119247700Y31051802D01*
X-119227698Y31119923D01*
X-119174042Y31166416D01*
X-119163324Y31170728D01*
X-119123725Y31184584D01*
X-119017489Y31262989D01*
X-118956079Y31346197D01*
X-118899534Y31389129D01*
X-118828755Y31394676D01*
X-118766213Y31361075D01*
X-118731764Y31298996D01*
X-118728700Y31271376D01*
X-118728700Y29848072D01*
X-118748702Y29779951D01*
X-118765605Y29758977D01*
X-118792397Y29732186D01*
X-118792399Y29732183D01*
X-118843773Y29627095D01*
X-118853700Y29558962D01*
X-118853700Y27842439D01*
X-118843773Y27774306D01*
X-118792399Y27669218D01*
X-118792397Y27669215D01*
X-118709686Y27586504D01*
X-118709683Y27586502D01*
X-118604593Y27535127D01*
X-118536460Y27525200D01*
X-118536455Y27525200D01*
X-118169945Y27525200D01*
X-118169940Y27525200D01*
X-118101807Y27535127D01*
X-117996717Y27586502D01*
X-117914002Y27669217D01*
X-117862627Y27774307D01*
X-117852700Y27842440D01*
X-117852700Y29558960D01*
X-117862627Y29627093D01*
X-117914002Y29732183D01*
X-117914004Y29732186D01*
X-117940795Y29758977D01*
X-117974821Y29821289D01*
X-117977700Y29848072D01*
X-117977700Y31012200D01*
X-117957698Y31080321D01*
X-117904042Y31126814D01*
X-117851700Y31138200D01*
X-117527947Y31138200D01*
X-117527944Y31138200D01*
X-117498351Y31140975D01*
X-117373725Y31184584D01*
X-117267489Y31262989D01*
X-117189084Y31369225D01*
X-117177341Y31402785D01*
X-117135964Y31460475D01*
X-117069964Y31486638D01*
X-117000296Y31472966D01*
X-116954716Y31432745D01*
X-116944384Y31417776D01*
X-116944382Y31417774D01*
X-116889583Y31369226D01*
X-116817052Y31304970D01*
X-116666425Y31225914D01*
X-116666424Y31225914D01*
X-116666422Y31225913D01*
X-116519866Y31189791D01*
X-116501256Y31185204D01*
X-116501253Y31185204D01*
X-116331147Y31185204D01*
X-116331144Y31185204D01*
X-116165975Y31225914D01*
X-116015348Y31304970D01*
X-116002104Y31316704D01*
X-115937852Y31346906D01*
X-115867471Y31337576D01*
X-115817170Y31297214D01*
X-115791913Y31262991D01*
X-115791912Y31262991D01*
X-115791911Y31262989D01*
X-115685675Y31184584D01*
X-115685676Y31184584D01*
X-115575244Y31145942D01*
X-115561049Y31140975D01*
X-115531456Y31138200D01*
X-115531453Y31138200D01*
X-114850947Y31138200D01*
X-114850944Y31138200D01*
X-114821351Y31140975D01*
X-114696725Y31184584D01*
X-114590489Y31262989D01*
X-114512084Y31369225D01*
X-114468475Y31493851D01*
X-114465700Y31523444D01*
X-114465700Y32103956D01*
X-114468475Y32133549D01*
X-114498825Y32220282D01*
X-114512084Y32258175D01*
X-114540049Y32296066D01*
X-114590489Y32364411D01*
X-114696722Y32442814D01*
X-114696723Y32442815D01*
X-114696725Y32442816D01*
X-114731319Y32454921D01*
X-114789008Y32496299D01*
X-114815170Y32562300D01*
X-114815700Y32573849D01*
X-114815700Y33502973D01*
X-114795698Y33571094D01*
X-114778795Y33592068D01*
X-113605732Y34765131D01*
X-113605726Y34765137D01*
X-113575653Y34817225D01*
X-113556290Y34850762D01*
X-113530700Y34946265D01*
X-113530700Y35067295D01*
X-113510698Y35135416D01*
X-113457042Y35181909D01*
X-113386768Y35192013D01*
X-113322188Y35162519D01*
X-113315605Y35156390D01*
X-113311563Y35152348D01*
X-113311558Y35152344D01*
X-113311557Y35152343D01*
X-113166825Y35033564D01*
X-113053066Y34972759D01*
X-113001701Y34945304D01*
X-113001697Y34945302D01*
X-112822535Y34890954D01*
X-112822534Y34890954D01*
X-112822531Y34890953D01*
X-112822528Y34890953D01*
X-112822524Y34890952D01*
X-112636203Y34872601D01*
X-112636200Y34872601D01*
X-112636197Y34872601D01*
X-112449874Y34890952D01*
X-112449872Y34890953D01*
X-112449869Y34890953D01*
X-112353820Y34920091D01*
X-112282826Y34920724D01*
X-112228148Y34888611D01*
X-111640832Y34301295D01*
X-111606806Y34238983D01*
X-111611871Y34168168D01*
X-111654418Y34111332D01*
X-111720938Y34086521D01*
X-111729927Y34086200D01*
X-111901260Y34086200D01*
X-112066422Y34045492D01*
X-112066426Y34045490D01*
X-112217052Y33966435D01*
X-112217058Y33966430D01*
X-112344382Y33853631D01*
X-112344384Y33853629D01*
X-112441019Y33713630D01*
X-112441021Y33713626D01*
X-112501341Y33554572D01*
X-112521845Y33385703D01*
X-112521845Y33385698D01*
X-112501341Y33216829D01*
X-112441021Y33057775D01*
X-112441019Y33057771D01*
X-112362357Y32943810D01*
X-112344383Y32917771D01*
X-112234146Y32820110D01*
X-112196421Y32759968D01*
X-112191700Y32725799D01*
X-112191700Y32573849D01*
X-112211702Y32505728D01*
X-112265358Y32459235D01*
X-112276074Y32454924D01*
X-112307606Y32443891D01*
X-112310678Y32442815D01*
X-112310679Y32442814D01*
X-112416911Y32364411D01*
X-112495317Y32258175D01*
X-112509771Y32216867D01*
X-112551150Y32159176D01*
X-112617150Y32133013D01*
X-112686818Y32146687D01*
X-112738033Y32195855D01*
X-112747629Y32216867D01*
X-112762084Y32258175D01*
X-112790049Y32296066D01*
X-112840489Y32364411D01*
X-112946722Y32442814D01*
X-112946726Y32442817D01*
X-112985609Y32456423D01*
X-113043301Y32497802D01*
X-113069463Y32563803D01*
X-113061805Y32620032D01*
X-113046700Y32659862D01*
X-113025101Y32716814D01*
X-113016013Y32791661D01*
X-113004596Y32885684D01*
X-113004596Y32885689D01*
X-113025101Y33054558D01*
X-113085421Y33213612D01*
X-113085423Y33213616D01*
X-113182058Y33353615D01*
X-113182060Y33353617D01*
X-113309384Y33466416D01*
X-113309390Y33466421D01*
X-113460016Y33545476D01*
X-113460020Y33545478D01*
X-113625182Y33586186D01*
X-113625185Y33586186D01*
X-113795297Y33586186D01*
X-113795301Y33586186D01*
X-113960463Y33545478D01*
X-113960467Y33545476D01*
X-114111093Y33466421D01*
X-114111099Y33466416D01*
X-114238423Y33353617D01*
X-114238425Y33353615D01*
X-114335060Y33213616D01*
X-114335062Y33213612D01*
X-114395382Y33054558D01*
X-114415886Y32885689D01*
X-114415886Y32885684D01*
X-114395382Y32716815D01*
X-114335062Y32557761D01*
X-114335060Y32557757D01*
X-114238425Y32417758D01*
X-114238423Y32417756D01*
X-114168952Y32356210D01*
X-114131226Y32296066D01*
X-114132006Y32225074D01*
X-114133576Y32220282D01*
X-114163924Y32133555D01*
X-114163925Y32133550D01*
X-114166700Y32103959D01*
X-114166700Y31523442D01*
X-114163925Y31493851D01*
X-114163924Y31493846D01*
X-114120317Y31369226D01*
X-114120316Y31369225D01*
X-114041911Y31262989D01*
X-113935675Y31184584D01*
X-113935676Y31184584D01*
X-113825244Y31145942D01*
X-113811049Y31140975D01*
X-113781456Y31138200D01*
X-113781453Y31138200D01*
X-113100947Y31138200D01*
X-113100944Y31138200D01*
X-113071351Y31140975D01*
X-112946725Y31184584D01*
X-112840489Y31262989D01*
X-112762084Y31369225D01*
X-112750341Y31402783D01*
X-112747629Y31410533D01*
X-112706251Y31468225D01*
X-112640251Y31494387D01*
X-112570583Y31480714D01*
X-112519367Y31431547D01*
X-112509771Y31410533D01*
X-112495318Y31369227D01*
X-112483864Y31353708D01*
X-112459506Y31287021D01*
X-112475068Y31217751D01*
X-112496148Y31189791D01*
X-113503762Y30182175D01*
X-113538718Y30147219D01*
X-113573674Y30112264D01*
X-113573678Y30112259D01*
X-113623108Y30026643D01*
X-113623111Y30026636D01*
X-113648700Y29931134D01*
X-113648700Y29848072D01*
X-113668702Y29779951D01*
X-113685605Y29758977D01*
X-113712397Y29732186D01*
X-113712399Y29732183D01*
X-113763773Y29627095D01*
X-113773700Y29558962D01*
X-113773700Y27852200D01*
X-113793702Y27784079D01*
X-113847358Y27737586D01*
X-113899700Y27726200D01*
X-113916700Y27726200D01*
X-113984821Y27746202D01*
X-114031314Y27799858D01*
X-114042700Y27852200D01*
X-114042700Y29558956D01*
X-114042700Y29558960D01*
X-114052627Y29627093D01*
X-114104002Y29732183D01*
X-114104004Y29732186D01*
X-114186715Y29814897D01*
X-114186718Y29814899D01*
X-114291806Y29866273D01*
X-114359939Y29876200D01*
X-114359940Y29876200D01*
X-114726460Y29876200D01*
X-114726462Y29876200D01*
X-114794595Y29866273D01*
X-114899683Y29814899D01*
X-114899686Y29814897D01*
X-114982397Y29732186D01*
X-114982399Y29732183D01*
X-115033773Y29627095D01*
X-115043700Y29558962D01*
X-115043700Y27842439D01*
X-115033773Y27774306D01*
X-114982399Y27669218D01*
X-114982397Y27669215D01*
X-114903702Y27590520D01*
X-114883678Y27564425D01*
X-114843984Y27495672D01*
X-114843983Y27495672D01*
X-114843963Y27495637D01*
X-114843674Y27495137D01*
X-114468675Y27120138D01*
X-114398762Y27050225D01*
X-114398761Y27050224D01*
X-114398759Y27050223D01*
X-114371618Y27034554D01*
X-114313138Y27000790D01*
X-114301201Y26997592D01*
X-114265390Y26987995D01*
X-114265389Y26987995D01*
X-114249769Y26983810D01*
X-114217636Y26975200D01*
X-114217635Y26975200D01*
X-102901765Y26975200D01*
X-102901764Y26975200D01*
X-102854014Y26987995D01*
X-102854012Y26987995D01*
X-102816359Y26998085D01*
X-102806262Y27000790D01*
X-102720638Y27050225D01*
X-102650725Y27120138D01*
X-101765726Y28005137D01*
X-101748406Y28035136D01*
X-101716290Y28090762D01*
X-101690700Y28186265D01*
X-101690700Y28572581D01*
X-101670698Y28640702D01*
X-101633488Y28678147D01*
X-101616200Y28689413D01*
X-101216200Y28689413D01*
X-101142092Y28722133D01*
X-101071697Y28731349D01*
X-101040308Y28722133D01*
X-100966200Y28689413D01*
X-100966200Y29410700D01*
X-101216200Y29410700D01*
X-101216200Y28689413D01*
X-101616200Y28689413D01*
X-101616200Y30531989D01*
X-101216200Y30531989D01*
X-101216200Y29810700D01*
X-100966200Y29810700D01*
X-100966200Y30531989D01*
X-101040307Y30499268D01*
X-101110703Y30490052D01*
X-101142093Y30499268D01*
X-101216200Y30531989D01*
X-101616200Y30531989D01*
X-101689689Y30499541D01*
X-101760085Y30490325D01*
X-101791475Y30499541D01*
X-101896207Y30545784D01*
X-101896209Y30545785D01*
X-101896210Y30545786D01*
X-101896212Y30545786D01*
X-101921332Y30548700D01*
X-102211061Y30548700D01*
X-102211067Y30548699D01*
X-102236190Y30545786D01*
X-102236198Y30545784D01*
X-102340926Y30499542D01*
X-102411322Y30490325D01*
X-102442712Y30499542D01*
X-102516200Y30531990D01*
X-102516200Y28689413D01*
X-102498912Y28678147D01*
X-102452758Y28624199D01*
X-102441700Y28572581D01*
X-102441700Y28443427D01*
X-102461702Y28375306D01*
X-102478605Y28354332D01*
X-103069832Y27763105D01*
X-103132144Y27729079D01*
X-103158927Y27726200D01*
X-111376700Y27726200D01*
X-111444821Y27746202D01*
X-111491314Y27799858D01*
X-111502700Y27852200D01*
X-111502700Y29558956D01*
X-111502700Y29558960D01*
X-111512627Y29627093D01*
X-111541790Y29686746D01*
X-111553737Y29756729D01*
X-111525952Y29822063D01*
X-111517706Y29831157D01*
X-110247565Y31101298D01*
X-110185255Y31135321D01*
X-110158472Y31138200D01*
X-109725947Y31138200D01*
X-109725944Y31138200D01*
X-109696351Y31140975D01*
X-109571725Y31184584D01*
X-109570885Y31185204D01*
X-109567524Y31187684D01*
X-109500837Y31212044D01*
X-109431567Y31196483D01*
X-109381706Y31145942D01*
X-109366700Y31086307D01*
X-109366700Y30019469D01*
X-109386702Y29951348D01*
X-109403605Y29930374D01*
X-109446017Y29887963D01*
X-109446018Y29887961D01*
X-109541988Y29735226D01*
X-109541989Y29735223D01*
X-109579876Y29626948D01*
X-109601568Y29564955D01*
X-109621765Y29385700D01*
X-109601568Y29206445D01*
X-109601567Y29206443D01*
X-109541989Y29036178D01*
X-109541988Y29036175D01*
X-109446018Y28883440D01*
X-109446017Y28883438D01*
X-109318463Y28755884D01*
X-109318461Y28755883D01*
X-109165726Y28659913D01*
X-109165725Y28659913D01*
X-109165722Y28659911D01*
X-108995455Y28600332D01*
X-108816200Y28580135D01*
X-108636945Y28600332D01*
X-108466678Y28659911D01*
X-108313938Y28755884D01*
X-108186384Y28883438D01*
X-108158129Y28928406D01*
X-103116199Y28928406D01*
X-103113291Y28903327D01*
X-103113289Y28903322D01*
X-103067988Y28800724D01*
X-102988678Y28721413D01*
X-102916200Y28689413D01*
X-102916200Y29410700D01*
X-103116199Y29410700D01*
X-103116199Y28928406D01*
X-108158129Y28928406D01*
X-108090411Y29036178D01*
X-108030832Y29206445D01*
X-108010635Y29385700D01*
X-108030832Y29564955D01*
X-108090411Y29735222D01*
X-108090413Y29735225D01*
X-108090413Y29735226D01*
X-108186383Y29887961D01*
X-108186384Y29887963D01*
X-108228795Y29930374D01*
X-108262821Y29992686D01*
X-108265700Y30019469D01*
X-108265700Y30292999D01*
X-103116200Y30292999D01*
X-103116200Y29810700D01*
X-102916200Y29810700D01*
X-102916200Y30531989D01*
X-102916201Y30531990D01*
X-102988677Y30499989D01*
X-103067988Y30420678D01*
X-103113291Y30318074D01*
X-103116200Y30292999D01*
X-108265700Y30292999D01*
X-108265700Y31205485D01*
X-108245698Y31273606D01*
X-108228795Y31294580D01*
X-107025080Y32498295D01*
X-106962768Y32532321D01*
X-106935985Y32535200D01*
X-95196416Y32535200D01*
X-95128295Y32515198D01*
X-95107321Y32498296D01*
X-94503605Y31894581D01*
X-94469580Y31832268D01*
X-94466700Y31805485D01*
X-94466700Y24477200D01*
X-94486702Y24409079D01*
X-94540358Y24362586D01*
X-94592700Y24351200D01*
X-94689331Y24351200D01*
X-94757452Y24371202D01*
X-94803945Y24424858D01*
X-94806067Y24439616D01*
X-94829056Y24475700D01*
X-95803344Y24475700D01*
X-95830059Y24433769D01*
X-95847192Y24395447D01*
X-95906611Y24356590D01*
X-95943069Y24351200D01*
X-96239701Y24351200D01*
X-96307822Y24371202D01*
X-96354315Y24424858D01*
X-96365701Y24477200D01*
X-96365701Y24554717D01*
X-96374291Y24608960D01*
X-96380554Y24648504D01*
X-96421316Y24728503D01*
X-96438150Y24761543D01*
X-96527858Y24851251D01*
X-96619875Y24898135D01*
X-96640896Y24908846D01*
X-96734681Y24923700D01*
X-96734685Y24923700D01*
X-96997717Y24923700D01*
X-97091503Y24908847D01*
X-97204544Y24851249D01*
X-97208420Y24847373D01*
X-97270733Y24813351D01*
X-97302903Y24815654D01*
X-97316200Y24806989D01*
X-97316200Y24748714D01*
X-97329933Y24691512D01*
X-97351845Y24648508D01*
X-97351846Y24648506D01*
X-97351846Y24648504D01*
X-97360606Y24593191D01*
X-97366700Y24554716D01*
X-97366700Y23216684D01*
X-97351847Y23122896D01*
X-97329934Y23079892D01*
X-97316200Y23022688D01*
X-97316200Y22964413D01*
X-97303419Y22956084D01*
X-97278012Y22959411D01*
X-97213808Y22929108D01*
X-97208417Y22924024D01*
X-97204543Y22920150D01*
X-97165901Y22900462D01*
X-97091504Y22862554D01*
X-96997719Y22847700D01*
X-96734682Y22847701D01*
X-96640896Y22862554D01*
X-96527858Y22920150D01*
X-96438150Y23009858D01*
X-96380554Y23122896D01*
X-96377226Y23143914D01*
X-96346813Y23208065D01*
X-96286544Y23245591D01*
X-96252777Y23250200D01*
X-95714827Y23250200D01*
X-95673213Y23243130D01*
X-95572929Y23208038D01*
X-95542663Y23205200D01*
X-95089738Y23205201D01*
X-95059471Y23208038D01*
X-94959188Y23243129D01*
X-94917572Y23250200D01*
X-94211415Y23250200D01*
X-94143294Y23230198D01*
X-94122320Y23213295D01*
X-92604222Y21695196D01*
X-92604217Y21695192D01*
X-92604215Y21695190D01*
X-92604214Y21695189D01*
X-92604212Y21695188D01*
X-92502151Y21636264D01*
X-92492765Y21630845D01*
X-92478691Y21622719D01*
X-92478690Y21622719D01*
X-92478685Y21622716D01*
X-92338675Y21585200D01*
X-81046415Y21585200D01*
X-80978294Y21565198D01*
X-80957320Y21548295D01*
X-79691105Y20282080D01*
X-79657079Y20219768D01*
X-79654200Y20192985D01*
X-79654200Y19482070D01*
X-79674202Y19413949D01*
X-79727858Y19367456D01*
X-79736161Y19364017D01*
X-79746015Y19360342D01*
X-79752086Y19358077D01*
X-79752087Y19358077D01*
X-79870178Y19269674D01*
X-79886182Y19248296D01*
X-79943018Y19205750D01*
X-80013834Y19200687D01*
X-80076143Y19234712D01*
X-80082920Y19241489D01*
X-80199484Y19300881D01*
X-80218828Y19303945D01*
X-80296197Y19316199D01*
X-80296201Y19316199D01*
X-81161201Y19316199D01*
X-81257914Y19300882D01*
X-81374481Y19241489D01*
X-81466988Y19148982D01*
X-81466989Y19148980D01*
X-81474023Y19135174D01*
X-81474114Y19134996D01*
X-81522863Y19083381D01*
X-81586381Y19066199D01*
X-82532708Y19066199D01*
X-82600829Y19086201D01*
X-82639091Y19127863D01*
X-82639477Y19127577D01*
X-82642132Y19131175D01*
X-82644108Y19133326D01*
X-82645083Y19135170D01*
X-82645084Y19135174D01*
X-82723489Y19241410D01*
X-82829725Y19319815D01*
X-82829726Y19319816D01*
X-82829725Y19319816D01*
X-82954346Y19363423D01*
X-82954351Y19363424D01*
X-82983942Y19366199D01*
X-82983944Y19366199D01*
X-83664456Y19366199D01*
X-83664459Y19366199D01*
X-83694050Y19363424D01*
X-83694055Y19363423D01*
X-83818675Y19319816D01*
X-83924911Y19241410D01*
X-84003317Y19135174D01*
X-84046924Y19010554D01*
X-84046925Y19010549D01*
X-84049700Y18980958D01*
X-84049700Y18400441D01*
X-84046925Y18370850D01*
X-84046924Y18370845D01*
X-84003317Y18246225D01*
X-83991204Y18229812D01*
X-83924911Y18139988D01*
X-83818675Y18061583D01*
X-83818676Y18061583D01*
X-83709327Y18023320D01*
X-83694049Y18017974D01*
X-83664456Y18015199D01*
X-83664453Y18015199D01*
X-82983947Y18015199D01*
X-82983944Y18015199D01*
X-82954351Y18017974D01*
X-82829725Y18061583D01*
X-82723489Y18139988D01*
X-82645084Y18246224D01*
X-82645082Y18246232D01*
X-82644108Y18248072D01*
X-82642502Y18249723D01*
X-82639477Y18253821D01*
X-82638917Y18253408D01*
X-82594594Y18298954D01*
X-82532708Y18315199D01*
X-81586381Y18315199D01*
X-81518260Y18295197D01*
X-81474115Y18246403D01*
X-81466989Y18232418D01*
X-81374481Y18139910D01*
X-81257915Y18080517D01*
X-81161203Y18065199D01*
X-80296198Y18065200D01*
X-80199485Y18080517D01*
X-80082919Y18139910D01*
X-80076143Y18146687D01*
X-80013836Y18180712D01*
X-79943020Y18175649D01*
X-79886183Y18133105D01*
X-79886181Y18133103D01*
X-79874325Y18117265D01*
X-79870175Y18111722D01*
X-79752088Y18023323D01*
X-79752087Y18023323D01*
X-79752083Y18023320D01*
X-79613867Y17971768D01*
X-79613864Y17971768D01*
X-79613862Y17971767D01*
X-79586497Y17968826D01*
X-79552765Y17965199D01*
X-78654636Y17965200D01*
X-78627681Y17968098D01*
X-78593539Y17971767D01*
X-78593538Y17971768D01*
X-78593533Y17971768D01*
X-78455317Y18023320D01*
X-78337224Y18111723D01*
X-78248821Y18229816D01*
X-78197269Y18368032D01*
X-78196966Y18370845D01*
X-78190701Y18429123D01*
X-78190701Y18429125D01*
X-78190700Y18429134D01*
X-78190701Y18952263D01*
X-78196966Y19010549D01*
X-78197268Y19013361D01*
X-78197269Y19013363D01*
X-78197269Y19013366D01*
X-78248821Y19151582D01*
X-78248824Y19151586D01*
X-78248824Y19151587D01*
X-78337224Y19269676D01*
X-78455314Y19358077D01*
X-78461386Y19360342D01*
X-78471236Y19364016D01*
X-78528070Y19406563D01*
X-78552879Y19473084D01*
X-78553200Y19482070D01*
X-78553200Y20545674D01*
X-78566419Y20595009D01*
X-78590716Y20685685D01*
X-78590717Y20685687D01*
X-78604516Y20709588D01*
X-78663188Y20811212D01*
X-78663196Y20811222D01*
X-80428179Y22576205D01*
X-80428189Y22576213D01*
X-80553714Y22648684D01*
X-80656802Y22676307D01*
X-80656803Y22676307D01*
X-80693722Y22686200D01*
X-80693725Y22686200D01*
X-91985985Y22686200D01*
X-92054106Y22706202D01*
X-92075080Y22723105D01*
X-93328795Y23976820D01*
X-93362821Y24039132D01*
X-93365700Y24065915D01*
X-93365700Y32158174D01*
X-93369423Y32172069D01*
X-93403216Y32298185D01*
X-93435229Y32353633D01*
X-93475690Y32423714D01*
X-93475694Y32423718D01*
X-93475696Y32423721D01*
X-94578179Y33526205D01*
X-94578189Y33526213D01*
X-94703712Y33598683D01*
X-94703715Y33598684D01*
X-94708770Y33600039D01*
X-94741467Y33608801D01*
X-94741467Y33608800D01*
X-94775554Y33617934D01*
X-94843725Y33636200D01*
X-107288675Y33636200D01*
X-107356847Y33617934D01*
X-107390933Y33608800D01*
X-107390934Y33608801D01*
X-107428689Y33598683D01*
X-107554212Y33526213D01*
X-107554222Y33526205D01*
X-109125605Y31954821D01*
X-109187917Y31920795D01*
X-109258732Y31925860D01*
X-109315568Y31968407D01*
X-109340379Y32034927D01*
X-109340700Y32043916D01*
X-109340700Y32103953D01*
X-109340700Y32103956D01*
X-109343475Y32133549D01*
X-109373825Y32220282D01*
X-109387084Y32258175D01*
X-109415049Y32296066D01*
X-109465489Y32364411D01*
X-109571722Y32442814D01*
X-109571723Y32442815D01*
X-109571725Y32442816D01*
X-109606319Y32454921D01*
X-109664008Y32496299D01*
X-109690170Y32562300D01*
X-109690700Y32573849D01*
X-109690700Y33307134D01*
X-109690700Y33307135D01*
X-109716290Y33402638D01*
X-109741118Y33445641D01*
X-109765725Y33488263D01*
X-111697113Y35419650D01*
X-111731136Y35481960D01*
X-111728590Y35545320D01*
X-111699453Y35641369D01*
X-111699453Y35641372D01*
X-111699452Y35641374D01*
X-111681101Y35827697D01*
X-111681101Y35827704D01*
X-111699452Y36014024D01*
X-111699454Y36014035D01*
X-111753802Y36193197D01*
X-111753804Y36193201D01*
X-111842065Y36358326D01*
X-111928287Y36463387D01*
X-111960843Y36503057D01*
X-112105575Y36621836D01*
X-112270700Y36710097D01*
X-112270704Y36710099D01*
X-112449866Y36764447D01*
X-112449877Y36764449D01*
X-112636197Y36782799D01*
X-112636203Y36782799D01*
X-112822524Y36764449D01*
X-112822535Y36764447D01*
X-113001697Y36710099D01*
X-113001701Y36710097D01*
X-113166826Y36621836D01*
X-113311563Y36503053D01*
X-113315605Y36499010D01*
X-113377917Y36464984D01*
X-113448732Y36470049D01*
X-113505568Y36512596D01*
X-113530379Y36579116D01*
X-113530700Y36588105D01*
X-113530700Y37415128D01*
X-113510698Y37483249D01*
X-113464099Y37526248D01*
X-113375575Y37573564D01*
X-113230843Y37692343D01*
X-113112064Y37837075D01*
X-113023804Y38002199D01*
X-112969453Y38181369D01*
X-112951101Y38367700D01*
X-112969453Y38554031D01*
X-112969454Y38554035D01*
X-113023802Y38733197D01*
X-113023804Y38733201D01*
X-113112065Y38898326D01*
X-113230843Y39043057D01*
X-113345862Y39137451D01*
X-112316700Y39137451D01*
X-112316700Y37597950D01*
X-112311850Y37573566D01*
X-112305067Y37539469D01*
X-112260752Y37473148D01*
X-112194431Y37428833D01*
X-112135948Y37417200D01*
X-112135947Y37417200D01*
X-110596453Y37417200D01*
X-110596452Y37417200D01*
X-110537969Y37428833D01*
X-110471648Y37473148D01*
X-110427333Y37539469D01*
X-110415700Y37597952D01*
X-110415700Y39137448D01*
X-110427333Y39195931D01*
X-110471648Y39262252D01*
X-110537969Y39306567D01*
X-110537972Y39306568D01*
X-110596450Y39318200D01*
X-110596452Y39318200D01*
X-112135948Y39318200D01*
X-112135951Y39318200D01*
X-112194429Y39306568D01*
X-112194432Y39306567D01*
X-112260752Y39262252D01*
X-112305067Y39195932D01*
X-112305068Y39195929D01*
X-112316700Y39137451D01*
X-113345862Y39137451D01*
X-113375575Y39161836D01*
X-113439359Y39195929D01*
X-113540700Y39250097D01*
X-113540704Y39250099D01*
X-113719866Y39304447D01*
X-113719877Y39304449D01*
X-113906197Y39322799D01*
X-113906203Y39322799D01*
X-114092524Y39304449D01*
X-114092535Y39304447D01*
X-114271697Y39250099D01*
X-114271701Y39250097D01*
X-114436826Y39161836D01*
X-114581557Y39043057D01*
X-114700336Y38898326D01*
X-114788597Y38733201D01*
X-114788599Y38733197D01*
X-114842947Y38554035D01*
X-114842949Y38554024D01*
X-114861299Y38367704D01*
X-114861299Y38367697D01*
X-114842949Y38181377D01*
X-114842947Y38181366D01*
X-114788599Y38002204D01*
X-114788597Y38002200D01*
X-114788596Y38002199D01*
X-114700336Y37837075D01*
X-114581557Y37692343D01*
X-114482567Y37611104D01*
X-114436828Y37573566D01*
X-114436827Y37573566D01*
X-114436825Y37573564D01*
X-114348303Y37526249D01*
X-114297656Y37476499D01*
X-114281700Y37415128D01*
X-114281700Y36588105D01*
X-114301702Y36519984D01*
X-114355358Y36473491D01*
X-114425632Y36463387D01*
X-114490212Y36492881D01*
X-114496795Y36499010D01*
X-114500838Y36503053D01*
X-114645575Y36621836D01*
X-114810700Y36710097D01*
X-114810704Y36710099D01*
X-114989866Y36764447D01*
X-114989877Y36764449D01*
X-115176197Y36782799D01*
X-115176203Y36782799D01*
X-115362524Y36764449D01*
X-115362535Y36764447D01*
X-115541697Y36710099D01*
X-115541701Y36710097D01*
X-115706826Y36621836D01*
X-115851563Y36503053D01*
X-115855605Y36499010D01*
X-115917917Y36464984D01*
X-115988732Y36470049D01*
X-116045568Y36512596D01*
X-116070379Y36579116D01*
X-116070700Y36588105D01*
X-116070700Y37415128D01*
X-116050698Y37483249D01*
X-116004099Y37526248D01*
X-115915575Y37573564D01*
X-115770843Y37692343D01*
X-115652064Y37837075D01*
X-115563804Y38002199D01*
X-115509453Y38181369D01*
X-115491101Y38367700D01*
X-115509453Y38554031D01*
X-115509454Y38554035D01*
X-115563802Y38733197D01*
X-115563804Y38733201D01*
X-115652065Y38898326D01*
X-115770843Y39043057D01*
X-115915575Y39161836D01*
X-115979359Y39195929D01*
X-116080700Y39250097D01*
X-116080704Y39250099D01*
X-116259866Y39304447D01*
X-116259877Y39304449D01*
X-116446197Y39322799D01*
X-116446203Y39322799D01*
X-116632524Y39304449D01*
X-116632535Y39304447D01*
X-116811697Y39250099D01*
X-116811701Y39250097D01*
X-116976826Y39161836D01*
X-117121557Y39043057D01*
X-117240336Y38898326D01*
X-117328597Y38733201D01*
X-117328599Y38733197D01*
X-117382947Y38554035D01*
X-117382949Y38554024D01*
X-117401299Y38367704D01*
X-117401299Y38367697D01*
X-117382949Y38181377D01*
X-117382947Y38181366D01*
X-117328599Y38002204D01*
X-117328597Y38002200D01*
X-117328596Y38002199D01*
X-117240336Y37837075D01*
X-117121557Y37692343D01*
X-117022567Y37611104D01*
X-116976828Y37573566D01*
X-116976827Y37573566D01*
X-116976825Y37573564D01*
X-116888303Y37526249D01*
X-116837656Y37476499D01*
X-116821700Y37415128D01*
X-116821700Y36588105D01*
X-116841702Y36519984D01*
X-116895358Y36473491D01*
X-116965632Y36463387D01*
X-117030212Y36492881D01*
X-117036795Y36499010D01*
X-117040838Y36503053D01*
X-117185575Y36621836D01*
X-117350700Y36710097D01*
X-117350704Y36710099D01*
X-117529866Y36764447D01*
X-117529877Y36764449D01*
X-117716197Y36782799D01*
X-117716203Y36782799D01*
X-117902524Y36764449D01*
X-117902535Y36764447D01*
X-118081697Y36710099D01*
X-118081701Y36710097D01*
X-118246826Y36621836D01*
X-118391563Y36503053D01*
X-118395605Y36499010D01*
X-118457917Y36464984D01*
X-118528732Y36470049D01*
X-118585568Y36512596D01*
X-118610379Y36579116D01*
X-118610700Y36588105D01*
X-118610700Y37415128D01*
X-118590698Y37483249D01*
X-118544099Y37526248D01*
X-118455575Y37573564D01*
X-118310843Y37692343D01*
X-118192064Y37837075D01*
X-118103804Y38002199D01*
X-118049453Y38181369D01*
X-118031101Y38367700D01*
X-118049453Y38554031D01*
X-118049454Y38554035D01*
X-118103802Y38733197D01*
X-118103804Y38733201D01*
X-118192065Y38898326D01*
X-118310843Y39043057D01*
X-118455575Y39161836D01*
X-118519359Y39195929D01*
X-118620700Y39250097D01*
X-118620704Y39250099D01*
X-118799866Y39304447D01*
X-118799877Y39304449D01*
X-118986197Y39322799D01*
X-118986203Y39322799D01*
X-119172524Y39304449D01*
X-119172535Y39304447D01*
X-119351697Y39250099D01*
X-119351701Y39250097D01*
X-119516826Y39161836D01*
X-119661557Y39043057D01*
X-119780336Y38898326D01*
X-119868597Y38733201D01*
X-119868599Y38733197D01*
X-119922947Y38554035D01*
X-119922949Y38554024D01*
X-119941299Y38367704D01*
X-119941299Y38367697D01*
X-119922949Y38181377D01*
X-119922947Y38181366D01*
X-119868599Y38002204D01*
X-119868597Y38002200D01*
X-119868596Y38002199D01*
X-119780336Y37837075D01*
X-119661557Y37692343D01*
X-119562567Y37611104D01*
X-119516828Y37573566D01*
X-119516827Y37573566D01*
X-119516825Y37573564D01*
X-119428303Y37526249D01*
X-119377656Y37476499D01*
X-119361700Y37415128D01*
X-119361700Y36588105D01*
X-119381702Y36519984D01*
X-119435358Y36473491D01*
X-119505632Y36463387D01*
X-119570212Y36492881D01*
X-119576795Y36499010D01*
X-119580838Y36503053D01*
X-119725575Y36621836D01*
X-119890700Y36710097D01*
X-119890704Y36710099D01*
X-120069866Y36764447D01*
X-120069877Y36764449D01*
X-120256197Y36782799D01*
X-120256203Y36782799D01*
X-120442524Y36764449D01*
X-120442535Y36764447D01*
X-120621697Y36710099D01*
X-120621701Y36710097D01*
X-120786826Y36621836D01*
X-120931557Y36503057D01*
X-121050336Y36358326D01*
X-121138597Y36193201D01*
X-121138599Y36193197D01*
X-121192947Y36014035D01*
X-121192949Y36014024D01*
X-121211299Y35827704D01*
X-121211299Y35827697D01*
X-121192949Y35641378D01*
X-121192948Y35641373D01*
X-121192947Y35641369D01*
X-121163810Y35545318D01*
X-121163177Y35474326D01*
X-121195290Y35419649D01*
X-124088832Y32526105D01*
X-124151144Y32492080D01*
X-124177927Y32489200D01*
X-124530459Y32489200D01*
X-124560050Y32486425D01*
X-124560055Y32486424D01*
X-124684675Y32442817D01*
X-124790911Y32364411D01*
X-124869317Y32258175D01*
X-124912924Y32133555D01*
X-124912925Y32133550D01*
X-124915700Y32103959D01*
X-132345384Y32103959D01*
X-132346454Y44838991D01*
X-123376700Y44838991D01*
X-123376700Y44596410D01*
X-123345040Y44355918D01*
X-123282256Y44121605D01*
X-123282255Y44121603D01*
X-123282254Y44121600D01*
X-123189424Y43897488D01*
X-123189423Y43897487D01*
X-123189418Y43897476D01*
X-123068139Y43687415D01*
X-123068137Y43687412D01*
X-123068136Y43687411D01*
X-122920465Y43494962D01*
X-122920461Y43494958D01*
X-122920456Y43494952D01*
X-122748949Y43323445D01*
X-122748944Y43323441D01*
X-122748938Y43323435D01*
X-122556489Y43175764D01*
X-122556486Y43175762D01*
X-122346425Y43054483D01*
X-122346421Y43054482D01*
X-122346412Y43054476D01*
X-122122300Y42961646D01*
X-121887989Y42898862D01*
X-121887985Y42898862D01*
X-121887983Y42898861D01*
X-121825998Y42890701D01*
X-121647488Y42867200D01*
X-121647481Y42867200D01*
X-121404919Y42867200D01*
X-121404912Y42867200D01*
X-121187563Y42895815D01*
X-121164418Y42898861D01*
X-121164418Y42898862D01*
X-121164411Y42898862D01*
X-120930100Y42961646D01*
X-120705988Y43054476D01*
X-120495911Y43175764D01*
X-120303462Y43323435D01*
X-120131935Y43494962D01*
X-119984264Y43687411D01*
X-119862976Y43897488D01*
X-119770146Y44121600D01*
X-119707362Y44355911D01*
X-119675700Y44596412D01*
X-119675700Y44838988D01*
X-119675700Y44838991D01*
X-111946700Y44838991D01*
X-111946700Y44596410D01*
X-111915040Y44355918D01*
X-111852256Y44121605D01*
X-111852255Y44121603D01*
X-111852254Y44121600D01*
X-111759424Y43897488D01*
X-111759423Y43897487D01*
X-111759418Y43897476D01*
X-111638139Y43687415D01*
X-111638137Y43687412D01*
X-111638136Y43687411D01*
X-111490465Y43494962D01*
X-111490461Y43494958D01*
X-111490456Y43494952D01*
X-111318949Y43323445D01*
X-111318944Y43323441D01*
X-111318938Y43323435D01*
X-111126489Y43175764D01*
X-111126486Y43175762D01*
X-110916425Y43054483D01*
X-110916421Y43054482D01*
X-110916412Y43054476D01*
X-110692300Y42961646D01*
X-110457989Y42898862D01*
X-110457985Y42898862D01*
X-110457983Y42898861D01*
X-110395998Y42890701D01*
X-110217488Y42867200D01*
X-110217481Y42867200D01*
X-109974919Y42867200D01*
X-109974912Y42867200D01*
X-109757563Y42895815D01*
X-109734418Y42898861D01*
X-109734418Y42898862D01*
X-109734411Y42898862D01*
X-109500100Y42961646D01*
X-109275988Y43054476D01*
X-109065911Y43175764D01*
X-108873462Y43323435D01*
X-108701935Y43494962D01*
X-108554264Y43687411D01*
X-108432976Y43897488D01*
X-108340146Y44121600D01*
X-108277362Y44355911D01*
X-108245700Y44596412D01*
X-108245700Y44838988D01*
X-108277362Y45079489D01*
X-108340146Y45313800D01*
X-108432976Y45537912D01*
X-108432982Y45537921D01*
X-108432983Y45537925D01*
X-108554262Y45747986D01*
X-108554264Y45747989D01*
X-108701935Y45940438D01*
X-108701941Y45940444D01*
X-108701945Y45940449D01*
X-108873452Y46111956D01*
X-108873458Y46111961D01*
X-108873462Y46111965D01*
X-109065911Y46259636D01*
X-109065912Y46259637D01*
X-109065915Y46259639D01*
X-109275976Y46380918D01*
X-109275984Y46380922D01*
X-109275988Y46380924D01*
X-109500100Y46473754D01*
X-109500103Y46473755D01*
X-109500105Y46473756D01*
X-109734418Y46536540D01*
X-109974910Y46568200D01*
X-109974912Y46568200D01*
X-110217488Y46568200D01*
X-110217491Y46568200D01*
X-110457983Y46536540D01*
X-110692296Y46473756D01*
X-110692300Y46473754D01*
X-110916414Y46380923D01*
X-110916425Y46380918D01*
X-111126486Y46259639D01*
X-111318938Y46111965D01*
X-111318949Y46111956D01*
X-111490456Y45940449D01*
X-111490465Y45940438D01*
X-111638139Y45747986D01*
X-111759418Y45537925D01*
X-111759423Y45537914D01*
X-111852254Y45313800D01*
X-111852256Y45313796D01*
X-111915040Y45079483D01*
X-111946700Y44838991D01*
X-119675700Y44838991D01*
X-119707362Y45079489D01*
X-119770146Y45313800D01*
X-119862976Y45537912D01*
X-119862982Y45537921D01*
X-119862983Y45537925D01*
X-119984262Y45747986D01*
X-119984264Y45747989D01*
X-120131935Y45940438D01*
X-120131941Y45940444D01*
X-120131945Y45940449D01*
X-120303452Y46111956D01*
X-120303458Y46111961D01*
X-120303462Y46111965D01*
X-120495911Y46259636D01*
X-120495912Y46259637D01*
X-120495915Y46259639D01*
X-120705976Y46380918D01*
X-120705984Y46380922D01*
X-120705988Y46380924D01*
X-120930100Y46473754D01*
X-120930103Y46473755D01*
X-120930105Y46473756D01*
X-121164418Y46536540D01*
X-121404910Y46568200D01*
X-121404912Y46568200D01*
X-121647488Y46568200D01*
X-121647491Y46568200D01*
X-121887983Y46536540D01*
X-122122296Y46473756D01*
X-122122300Y46473754D01*
X-122346414Y46380923D01*
X-122346425Y46380918D01*
X-122556486Y46259639D01*
X-122748938Y46111965D01*
X-122748949Y46111956D01*
X-122920456Y45940449D01*
X-122920465Y45940438D01*
X-123068139Y45747986D01*
X-123189418Y45537925D01*
X-123189423Y45537914D01*
X-123282254Y45313800D01*
X-123282256Y45313796D01*
X-123345040Y45079483D01*
X-123376700Y44838991D01*
X-132346454Y44838991D01*
X-132346632Y46963262D01*
X-132341206Y46999842D01*
X-132293681Y47156511D01*
X-132284232Y47179325D01*
X-132203518Y47330331D01*
X-132189802Y47350858D01*
X-132081175Y47483221D01*
X-132063721Y47500675D01*
X-131931358Y47609302D01*
X-131910831Y47623018D01*
X-131759820Y47703735D01*
X-131737019Y47713179D01*
X-131599893Y47754775D01*
X-131563318Y47760200D01*
X-73844082Y47760200D01*
X-73807507Y47754775D01*
G37*
%TD.AperFunction*%
%TD*%
%TA.AperFunction,Conductor*%
%TO.N,VIN1*%
G36*
X-74035038Y385094D02*
G01*
X-73858460Y367702D01*
X-73834241Y362885D01*
X-73670385Y313180D01*
X-73647578Y303733D01*
X-73522047Y236636D01*
X-73496573Y223019D01*
X-73476035Y209296D01*
X-73343686Y100680D01*
X-73326221Y83215D01*
X-73217605Y-49134D01*
X-73203882Y-69672D01*
X-73123172Y-220669D01*
X-73113720Y-243489D01*
X-73072126Y-380606D01*
X-73066700Y-417182D01*
X-73066700Y-22811418D01*
X-73072125Y-22847994D01*
X-73113718Y-22985109D01*
X-73123171Y-23007929D01*
X-73203882Y-23158927D01*
X-73217605Y-23179465D01*
X-73326221Y-23311814D01*
X-73343686Y-23329279D01*
X-73476035Y-23437895D01*
X-73496573Y-23451618D01*
X-73647571Y-23532329D01*
X-73670391Y-23541781D01*
X-73807508Y-23583375D01*
X-73844082Y-23588800D01*
X-113713318Y-23588800D01*
X-113749893Y-23583375D01*
X-113887009Y-23541782D01*
X-113909828Y-23532330D01*
X-113958189Y-23506480D01*
X-114060828Y-23451618D01*
X-114081366Y-23437895D01*
X-114213715Y-23329279D01*
X-114231180Y-23311814D01*
X-114339796Y-23179465D01*
X-114353519Y-23158927D01*
X-114367136Y-23133453D01*
X-114434233Y-23007922D01*
X-114443680Y-22985115D01*
X-114493385Y-22821259D01*
X-114498202Y-22797037D01*
X-114515593Y-22620462D01*
X-114516200Y-22608112D01*
X-114516200Y-22035743D01*
X-112148184Y-22035743D01*
X-111927317Y-22072600D01*
X-111689083Y-22072600D01*
X-111558105Y-22050743D01*
X-106560184Y-22050743D01*
X-106339317Y-22087600D01*
X-106101083Y-22087600D01*
X-105880218Y-22050743D01*
X-100972184Y-22050743D01*
X-100751317Y-22087600D01*
X-100513083Y-22087600D01*
X-100292218Y-22050743D01*
X-95384184Y-22050743D01*
X-95163317Y-22087600D01*
X-94925083Y-22087600D01*
X-94704218Y-22050743D01*
X-94704217Y-22050742D01*
X-95044199Y-21710760D01*
X-95044200Y-21710760D01*
X-95384184Y-22050743D01*
X-100292218Y-22050743D01*
X-100292217Y-22050742D01*
X-100632199Y-21710760D01*
X-100632200Y-21710760D01*
X-100972184Y-22050743D01*
X-105880218Y-22050743D01*
X-105880217Y-22050742D01*
X-106220199Y-21710760D01*
X-106220200Y-21710760D01*
X-106560184Y-22050743D01*
X-111558105Y-22050743D01*
X-111468218Y-22035743D01*
X-111468217Y-22035742D01*
X-111808199Y-21695760D01*
X-111808200Y-21695760D01*
X-112148184Y-22035743D01*
X-114516200Y-22035743D01*
X-114516200Y-20635100D01*
X-113250627Y-20635100D01*
X-113230953Y-20872523D01*
X-113205762Y-20971999D01*
X-113205761Y-20972000D01*
X-112868860Y-20635099D01*
X-112950114Y-20553845D01*
X-112633200Y-20553845D01*
X-112633200Y-20716355D01*
X-112601496Y-20875744D01*
X-112539306Y-21025884D01*
X-112449019Y-21161007D01*
X-112334107Y-21275919D01*
X-112198984Y-21366206D01*
X-112048844Y-21428396D01*
X-111889455Y-21460100D01*
X-111726945Y-21460100D01*
X-111567556Y-21428396D01*
X-111417416Y-21366206D01*
X-111282293Y-21275919D01*
X-111167381Y-21161007D01*
X-111077094Y-21025884D01*
X-111014904Y-20875744D01*
X-110983200Y-20716355D01*
X-110983200Y-20635099D01*
X-110747540Y-20635099D01*
X-110410640Y-20971999D01*
X-110385448Y-20872522D01*
X-110385447Y-20872520D01*
X-110367017Y-20650100D01*
X-107662627Y-20650100D01*
X-107642953Y-20887523D01*
X-107617762Y-20986999D01*
X-107617761Y-20987000D01*
X-107280860Y-20650099D01*
X-107362114Y-20568845D01*
X-107045200Y-20568845D01*
X-107045200Y-20731355D01*
X-107013496Y-20890744D01*
X-106951306Y-21040884D01*
X-106861019Y-21176007D01*
X-106746107Y-21290919D01*
X-106610984Y-21381206D01*
X-106460844Y-21443396D01*
X-106301455Y-21475100D01*
X-106138945Y-21475100D01*
X-105979556Y-21443396D01*
X-105829416Y-21381206D01*
X-105694293Y-21290919D01*
X-105579381Y-21176007D01*
X-105489094Y-21040884D01*
X-105426904Y-20890744D01*
X-105395200Y-20731355D01*
X-105395200Y-20650099D01*
X-105159540Y-20650099D01*
X-104822640Y-20986999D01*
X-104797448Y-20887522D01*
X-104797447Y-20887520D01*
X-104777774Y-20650100D01*
X-102074627Y-20650100D01*
X-102054953Y-20887523D01*
X-102029762Y-20986999D01*
X-102029761Y-20987000D01*
X-101692860Y-20650099D01*
X-101774114Y-20568845D01*
X-101457200Y-20568845D01*
X-101457200Y-20731355D01*
X-101425496Y-20890744D01*
X-101363306Y-21040884D01*
X-101273019Y-21176007D01*
X-101158107Y-21290919D01*
X-101022984Y-21381206D01*
X-100872844Y-21443396D01*
X-100713455Y-21475100D01*
X-100550945Y-21475100D01*
X-100391556Y-21443396D01*
X-100241416Y-21381206D01*
X-100106293Y-21290919D01*
X-99991381Y-21176007D01*
X-99901094Y-21040884D01*
X-99838904Y-20890744D01*
X-99807200Y-20731355D01*
X-99807200Y-20650099D01*
X-99571540Y-20650099D01*
X-99234640Y-20986999D01*
X-99209448Y-20887522D01*
X-99209447Y-20887520D01*
X-99189774Y-20650100D01*
X-96486627Y-20650100D01*
X-96466953Y-20887523D01*
X-96441762Y-20986999D01*
X-96441761Y-20987000D01*
X-96104860Y-20650099D01*
X-96186114Y-20568845D01*
X-95869200Y-20568845D01*
X-95869200Y-20731355D01*
X-95837496Y-20890744D01*
X-95775306Y-21040884D01*
X-95685019Y-21176007D01*
X-95570107Y-21290919D01*
X-95434984Y-21381206D01*
X-95284844Y-21443396D01*
X-95125455Y-21475100D01*
X-94962945Y-21475100D01*
X-94803556Y-21443396D01*
X-94653416Y-21381206D01*
X-94518293Y-21290919D01*
X-94403381Y-21176007D01*
X-94313094Y-21040884D01*
X-94250904Y-20890744D01*
X-94219200Y-20731355D01*
X-94219200Y-20650099D01*
X-93983540Y-20650099D01*
X-93646640Y-20986999D01*
X-93621448Y-20887522D01*
X-93621447Y-20887520D01*
X-93601774Y-20650100D01*
X-93621447Y-20412679D01*
X-93621448Y-20412677D01*
X-93646640Y-20313199D01*
X-93983540Y-20650099D01*
X-94219200Y-20650099D01*
X-94219200Y-20568845D01*
X-94250904Y-20409456D01*
X-94313094Y-20259316D01*
X-94403381Y-20124193D01*
X-94518293Y-20009281D01*
X-94653416Y-19918994D01*
X-94803556Y-19856804D01*
X-94962945Y-19825100D01*
X-95125455Y-19825100D01*
X-95284844Y-19856804D01*
X-95434984Y-19918994D01*
X-95570107Y-20009281D01*
X-95685019Y-20124193D01*
X-95775306Y-20259316D01*
X-95837496Y-20409456D01*
X-95869200Y-20568845D01*
X-96186114Y-20568845D01*
X-96441761Y-20313198D01*
X-96441762Y-20313199D01*
X-96466953Y-20412676D01*
X-96486627Y-20650100D01*
X-99189774Y-20650100D01*
X-99209447Y-20412679D01*
X-99209448Y-20412677D01*
X-99234640Y-20313199D01*
X-99571540Y-20650099D01*
X-99807200Y-20650099D01*
X-99807200Y-20568845D01*
X-99838904Y-20409456D01*
X-99901094Y-20259316D01*
X-99991381Y-20124193D01*
X-100106293Y-20009281D01*
X-100241416Y-19918994D01*
X-100391556Y-19856804D01*
X-100550945Y-19825100D01*
X-100713455Y-19825100D01*
X-100872844Y-19856804D01*
X-101022984Y-19918994D01*
X-101158107Y-20009281D01*
X-101273019Y-20124193D01*
X-101363306Y-20259316D01*
X-101425496Y-20409456D01*
X-101457200Y-20568845D01*
X-101774114Y-20568845D01*
X-102029761Y-20313198D01*
X-102029762Y-20313199D01*
X-102054953Y-20412676D01*
X-102074627Y-20650100D01*
X-104777774Y-20650100D01*
X-104797447Y-20412679D01*
X-104797448Y-20412677D01*
X-104822640Y-20313199D01*
X-105159540Y-20650099D01*
X-105395200Y-20650099D01*
X-105395200Y-20568845D01*
X-105426904Y-20409456D01*
X-105489094Y-20259316D01*
X-105579381Y-20124193D01*
X-105694293Y-20009281D01*
X-105829416Y-19918994D01*
X-105979556Y-19856804D01*
X-106138945Y-19825100D01*
X-106301455Y-19825100D01*
X-106460844Y-19856804D01*
X-106610984Y-19918994D01*
X-106746107Y-20009281D01*
X-106861019Y-20124193D01*
X-106951306Y-20259316D01*
X-107013496Y-20409456D01*
X-107045200Y-20568845D01*
X-107362114Y-20568845D01*
X-107617761Y-20313198D01*
X-107617762Y-20313199D01*
X-107642953Y-20412676D01*
X-107662627Y-20650100D01*
X-110367017Y-20650100D01*
X-110365774Y-20635100D01*
X-110385447Y-20397679D01*
X-110385448Y-20397677D01*
X-110410640Y-20298199D01*
X-110747540Y-20635099D01*
X-110983200Y-20635099D01*
X-110983200Y-20553845D01*
X-111014904Y-20394456D01*
X-111077094Y-20244316D01*
X-111167381Y-20109193D01*
X-111282293Y-19994281D01*
X-111417416Y-19903994D01*
X-111567556Y-19841804D01*
X-111726945Y-19810100D01*
X-111889455Y-19810100D01*
X-112048844Y-19841804D01*
X-112198984Y-19903994D01*
X-112334107Y-19994281D01*
X-112449019Y-20109193D01*
X-112539306Y-20244316D01*
X-112601496Y-20394456D01*
X-112633200Y-20553845D01*
X-112950114Y-20553845D01*
X-113205761Y-20298198D01*
X-113205762Y-20298199D01*
X-113230953Y-20397676D01*
X-113250627Y-20635100D01*
X-114516200Y-20635100D01*
X-114516200Y-19234456D01*
X-112148185Y-19234456D01*
X-111808201Y-19574440D01*
X-111808200Y-19574440D01*
X-111483218Y-19249456D01*
X-106560185Y-19249456D01*
X-106220201Y-19589440D01*
X-106220200Y-19589440D01*
X-105880218Y-19249456D01*
X-100972185Y-19249456D01*
X-100632201Y-19589440D01*
X-100632200Y-19589440D01*
X-100292218Y-19249456D01*
X-95384185Y-19249456D01*
X-95044201Y-19589440D01*
X-95044200Y-19589440D01*
X-94704218Y-19249456D01*
X-94925089Y-19212600D01*
X-95163311Y-19212600D01*
X-95384185Y-19249456D01*
X-100292218Y-19249456D01*
X-100513089Y-19212600D01*
X-100751311Y-19212600D01*
X-100972185Y-19249456D01*
X-105880218Y-19249456D01*
X-106101089Y-19212600D01*
X-106339311Y-19212600D01*
X-106560185Y-19249456D01*
X-111483218Y-19249456D01*
X-111468218Y-19234456D01*
X-111689089Y-19197600D01*
X-111927311Y-19197600D01*
X-112148185Y-19234456D01*
X-114516200Y-19234456D01*
X-114516200Y-18335743D01*
X-112148184Y-18335743D01*
X-111927317Y-18372600D01*
X-111689083Y-18372600D01*
X-111558105Y-18350743D01*
X-106560184Y-18350743D01*
X-106339317Y-18387600D01*
X-106101083Y-18387600D01*
X-105880218Y-18350743D01*
X-100972184Y-18350743D01*
X-100751317Y-18387600D01*
X-100513083Y-18387600D01*
X-100292218Y-18350743D01*
X-95384184Y-18350743D01*
X-95163317Y-18387600D01*
X-94925083Y-18387600D01*
X-94704218Y-18350743D01*
X-94704217Y-18350742D01*
X-95044199Y-18010760D01*
X-95044200Y-18010760D01*
X-95384184Y-18350743D01*
X-100292218Y-18350743D01*
X-100292217Y-18350742D01*
X-100632199Y-18010760D01*
X-100632200Y-18010760D01*
X-100972184Y-18350743D01*
X-105880218Y-18350743D01*
X-105880217Y-18350742D01*
X-106220199Y-18010760D01*
X-106220200Y-18010760D01*
X-106560184Y-18350743D01*
X-111558105Y-18350743D01*
X-111468218Y-18335743D01*
X-111468217Y-18335742D01*
X-111808199Y-17995760D01*
X-111808200Y-17995760D01*
X-112148184Y-18335743D01*
X-114516200Y-18335743D01*
X-114516200Y-16935100D01*
X-113250627Y-16935100D01*
X-113230953Y-17172523D01*
X-113205762Y-17271999D01*
X-113205761Y-17272000D01*
X-112868860Y-16935099D01*
X-112950114Y-16853845D01*
X-112633200Y-16853845D01*
X-112633200Y-17016355D01*
X-112601496Y-17175744D01*
X-112539306Y-17325884D01*
X-112449019Y-17461007D01*
X-112334107Y-17575919D01*
X-112198984Y-17666206D01*
X-112048844Y-17728396D01*
X-111889455Y-17760100D01*
X-111726945Y-17760100D01*
X-111567556Y-17728396D01*
X-111417416Y-17666206D01*
X-111282293Y-17575919D01*
X-111167381Y-17461007D01*
X-111077094Y-17325884D01*
X-111014904Y-17175744D01*
X-110983200Y-17016355D01*
X-110983200Y-16935099D01*
X-110747540Y-16935099D01*
X-110410640Y-17271999D01*
X-110385448Y-17172522D01*
X-110385447Y-17172520D01*
X-110367017Y-16950100D01*
X-107662627Y-16950100D01*
X-107642953Y-17187523D01*
X-107617762Y-17286999D01*
X-107617761Y-17287000D01*
X-107280860Y-16950099D01*
X-107362114Y-16868845D01*
X-107045200Y-16868845D01*
X-107045200Y-17031355D01*
X-107013496Y-17190744D01*
X-106951306Y-17340884D01*
X-106861019Y-17476007D01*
X-106746107Y-17590919D01*
X-106610984Y-17681206D01*
X-106460844Y-17743396D01*
X-106301455Y-17775100D01*
X-106138945Y-17775100D01*
X-105979556Y-17743396D01*
X-105829416Y-17681206D01*
X-105694293Y-17590919D01*
X-105579381Y-17476007D01*
X-105489094Y-17340884D01*
X-105426904Y-17190744D01*
X-105395200Y-17031355D01*
X-105395200Y-16950099D01*
X-105159540Y-16950099D01*
X-104822640Y-17286999D01*
X-104797448Y-17187522D01*
X-104797447Y-17187520D01*
X-104777774Y-16950100D01*
X-102074627Y-16950100D01*
X-102054953Y-17187523D01*
X-102029762Y-17286999D01*
X-102029761Y-17287000D01*
X-101692860Y-16950099D01*
X-101774114Y-16868845D01*
X-101457200Y-16868845D01*
X-101457200Y-17031355D01*
X-101425496Y-17190744D01*
X-101363306Y-17340884D01*
X-101273019Y-17476007D01*
X-101158107Y-17590919D01*
X-101022984Y-17681206D01*
X-100872844Y-17743396D01*
X-100713455Y-17775100D01*
X-100550945Y-17775100D01*
X-100391556Y-17743396D01*
X-100241416Y-17681206D01*
X-100106293Y-17590919D01*
X-99991381Y-17476007D01*
X-99901094Y-17340884D01*
X-99838904Y-17190744D01*
X-99807200Y-17031355D01*
X-99807200Y-16950099D01*
X-99571540Y-16950099D01*
X-99234640Y-17286999D01*
X-99209448Y-17187522D01*
X-99209447Y-17187520D01*
X-99189774Y-16950100D01*
X-96486627Y-16950100D01*
X-96466953Y-17187523D01*
X-96441762Y-17286999D01*
X-96441761Y-17287000D01*
X-96104860Y-16950099D01*
X-96186114Y-16868845D01*
X-95869200Y-16868845D01*
X-95869200Y-17031355D01*
X-95837496Y-17190744D01*
X-95775306Y-17340884D01*
X-95685019Y-17476007D01*
X-95570107Y-17590919D01*
X-95434984Y-17681206D01*
X-95284844Y-17743396D01*
X-95125455Y-17775100D01*
X-94962945Y-17775100D01*
X-94803556Y-17743396D01*
X-94653416Y-17681206D01*
X-94518293Y-17590919D01*
X-94403381Y-17476007D01*
X-94313094Y-17340884D01*
X-94250904Y-17190744D01*
X-94219200Y-17031355D01*
X-94219200Y-16950099D01*
X-93983540Y-16950099D01*
X-93646640Y-17286999D01*
X-93621448Y-17187522D01*
X-93621447Y-17187520D01*
X-93601774Y-16950100D01*
X-93621447Y-16712679D01*
X-93621448Y-16712677D01*
X-93646640Y-16613199D01*
X-93983540Y-16950099D01*
X-94219200Y-16950099D01*
X-94219200Y-16868845D01*
X-94250904Y-16709456D01*
X-94313094Y-16559316D01*
X-94403381Y-16424193D01*
X-94518293Y-16309281D01*
X-94653416Y-16218994D01*
X-94803556Y-16156804D01*
X-94962945Y-16125100D01*
X-95125455Y-16125100D01*
X-95284844Y-16156804D01*
X-95434984Y-16218994D01*
X-95570107Y-16309281D01*
X-95685019Y-16424193D01*
X-95775306Y-16559316D01*
X-95837496Y-16709456D01*
X-95869200Y-16868845D01*
X-96186114Y-16868845D01*
X-96441761Y-16613198D01*
X-96441762Y-16613199D01*
X-96466953Y-16712676D01*
X-96486627Y-16950100D01*
X-99189774Y-16950100D01*
X-99209447Y-16712679D01*
X-99209448Y-16712677D01*
X-99234640Y-16613199D01*
X-99571540Y-16950099D01*
X-99807200Y-16950099D01*
X-99807200Y-16868845D01*
X-99838904Y-16709456D01*
X-99901094Y-16559316D01*
X-99991381Y-16424193D01*
X-100106293Y-16309281D01*
X-100241416Y-16218994D01*
X-100391556Y-16156804D01*
X-100550945Y-16125100D01*
X-100713455Y-16125100D01*
X-100872844Y-16156804D01*
X-101022984Y-16218994D01*
X-101158107Y-16309281D01*
X-101273019Y-16424193D01*
X-101363306Y-16559316D01*
X-101425496Y-16709456D01*
X-101457200Y-16868845D01*
X-101774114Y-16868845D01*
X-102029761Y-16613198D01*
X-102029762Y-16613199D01*
X-102054953Y-16712676D01*
X-102074627Y-16950100D01*
X-104777774Y-16950100D01*
X-104797447Y-16712679D01*
X-104797448Y-16712677D01*
X-104822640Y-16613199D01*
X-105159540Y-16950099D01*
X-105395200Y-16950099D01*
X-105395200Y-16868845D01*
X-105426904Y-16709456D01*
X-105489094Y-16559316D01*
X-105579381Y-16424193D01*
X-105694293Y-16309281D01*
X-105829416Y-16218994D01*
X-105979556Y-16156804D01*
X-106138945Y-16125100D01*
X-106301455Y-16125100D01*
X-106460844Y-16156804D01*
X-106610984Y-16218994D01*
X-106746107Y-16309281D01*
X-106861019Y-16424193D01*
X-106951306Y-16559316D01*
X-107013496Y-16709456D01*
X-107045200Y-16868845D01*
X-107362114Y-16868845D01*
X-107617761Y-16613198D01*
X-107617762Y-16613199D01*
X-107642953Y-16712676D01*
X-107662627Y-16950100D01*
X-110367017Y-16950100D01*
X-110365774Y-16935100D01*
X-110385447Y-16697679D01*
X-110385448Y-16697677D01*
X-110410640Y-16598199D01*
X-110747540Y-16935099D01*
X-110983200Y-16935099D01*
X-110983200Y-16853845D01*
X-111014904Y-16694456D01*
X-111077094Y-16544316D01*
X-111167381Y-16409193D01*
X-111282293Y-16294281D01*
X-111417416Y-16203994D01*
X-111567556Y-16141804D01*
X-111726945Y-16110100D01*
X-111889455Y-16110100D01*
X-112048844Y-16141804D01*
X-112198984Y-16203994D01*
X-112334107Y-16294281D01*
X-112449019Y-16409193D01*
X-112539306Y-16544316D01*
X-112601496Y-16694456D01*
X-112633200Y-16853845D01*
X-112950114Y-16853845D01*
X-113205761Y-16598198D01*
X-113205762Y-16598199D01*
X-113230953Y-16697676D01*
X-113250627Y-16935100D01*
X-114516200Y-16935100D01*
X-114516200Y-15534456D01*
X-112148185Y-15534456D01*
X-111808201Y-15874440D01*
X-111808200Y-15874440D01*
X-111483218Y-15549456D01*
X-106560185Y-15549456D01*
X-106220201Y-15889440D01*
X-106220200Y-15889440D01*
X-105880218Y-15549456D01*
X-100972185Y-15549456D01*
X-100632201Y-15889440D01*
X-100632200Y-15889440D01*
X-100292218Y-15549456D01*
X-95384185Y-15549456D01*
X-95044201Y-15889440D01*
X-95044200Y-15889440D01*
X-94704218Y-15549456D01*
X-94925089Y-15512600D01*
X-95163311Y-15512600D01*
X-95384185Y-15549456D01*
X-100292218Y-15549456D01*
X-100513089Y-15512600D01*
X-100751311Y-15512600D01*
X-100972185Y-15549456D01*
X-105880218Y-15549456D01*
X-106101089Y-15512600D01*
X-106339311Y-15512600D01*
X-106560185Y-15549456D01*
X-111483218Y-15549456D01*
X-111468218Y-15534456D01*
X-111689089Y-15497600D01*
X-111927311Y-15497600D01*
X-112148185Y-15534456D01*
X-114516200Y-15534456D01*
X-114516200Y-14620487D01*
X-114515593Y-14608137D01*
X-114498202Y-14431562D01*
X-114493386Y-14407342D01*
X-114443679Y-14243481D01*
X-114434235Y-14220680D01*
X-114353518Y-14069669D01*
X-114339802Y-14049142D01*
X-114231175Y-13916779D01*
X-114213721Y-13899325D01*
X-114081358Y-13790698D01*
X-114060831Y-13776982D01*
X-113909820Y-13696265D01*
X-113887019Y-13686821D01*
X-113723158Y-13637114D01*
X-113698943Y-13632298D01*
X-113522363Y-13614906D01*
X-113510013Y-13614300D01*
X-113156770Y-13614300D01*
X-113088649Y-13634302D01*
X-113067680Y-13651200D01*
X-112964865Y-13754015D01*
X-112964853Y-13754026D01*
X-112782816Y-13893708D01*
X-112782809Y-13893713D01*
X-112584101Y-14008437D01*
X-112584097Y-14008438D01*
X-112584088Y-14008444D01*
X-112372087Y-14096258D01*
X-112150438Y-14155648D01*
X-112150434Y-14155648D01*
X-112150432Y-14155649D01*
X-112091802Y-14163367D01*
X-111922934Y-14185600D01*
X-111922927Y-14185600D01*
X-111693473Y-14185600D01*
X-111693466Y-14185600D01*
X-111487855Y-14158530D01*
X-111465969Y-14155649D01*
X-111465969Y-14155648D01*
X-111465962Y-14155648D01*
X-111244313Y-14096258D01*
X-111032312Y-14008444D01*
X-110833588Y-13893711D01*
X-110651539Y-13754019D01*
X-110548724Y-13651203D01*
X-110486414Y-13617180D01*
X-110459630Y-13614300D01*
X-107583770Y-13614300D01*
X-107515649Y-13634302D01*
X-107494680Y-13651200D01*
X-107391865Y-13754015D01*
X-107376865Y-13769015D01*
X-107376853Y-13769026D01*
X-107194816Y-13908708D01*
X-107194809Y-13908713D01*
X-106996101Y-14023437D01*
X-106996097Y-14023438D01*
X-106996088Y-14023444D01*
X-106784087Y-14111258D01*
X-106562438Y-14170648D01*
X-106562434Y-14170648D01*
X-106562432Y-14170649D01*
X-106503802Y-14178367D01*
X-106334934Y-14200600D01*
X-106334927Y-14200600D01*
X-106105473Y-14200600D01*
X-106105466Y-14200600D01*
X-105899855Y-14173530D01*
X-105877969Y-14170649D01*
X-105877969Y-14170648D01*
X-105877962Y-14170648D01*
X-105656313Y-14111258D01*
X-105444312Y-14023444D01*
X-105245588Y-13908711D01*
X-105085156Y-13785606D01*
X-105063548Y-13769026D01*
X-105063548Y-13769025D01*
X-105063539Y-13769019D01*
X-104945724Y-13651203D01*
X-104883414Y-13617180D01*
X-104856630Y-13614300D01*
X-101995770Y-13614300D01*
X-101927649Y-13634302D01*
X-101906680Y-13651200D01*
X-101803865Y-13754015D01*
X-101788865Y-13769015D01*
X-101788853Y-13769026D01*
X-101606816Y-13908708D01*
X-101606809Y-13908713D01*
X-101408101Y-14023437D01*
X-101408097Y-14023438D01*
X-101408088Y-14023444D01*
X-101196087Y-14111258D01*
X-100974438Y-14170648D01*
X-100974434Y-14170648D01*
X-100974432Y-14170649D01*
X-100915802Y-14178367D01*
X-100746934Y-14200600D01*
X-100746927Y-14200600D01*
X-100517473Y-14200600D01*
X-100517466Y-14200600D01*
X-100311855Y-14173530D01*
X-100289969Y-14170649D01*
X-100289969Y-14170648D01*
X-100289962Y-14170648D01*
X-100068313Y-14111258D01*
X-99856312Y-14023444D01*
X-99657588Y-13908711D01*
X-99497156Y-13785606D01*
X-99475548Y-13769026D01*
X-99475548Y-13769025D01*
X-99475539Y-13769019D01*
X-99357724Y-13651203D01*
X-99295414Y-13617180D01*
X-99268630Y-13614300D01*
X-96407770Y-13614300D01*
X-96339649Y-13634302D01*
X-96318680Y-13651200D01*
X-96215865Y-13754015D01*
X-96200865Y-13769015D01*
X-96200853Y-13769026D01*
X-96018816Y-13908708D01*
X-96018809Y-13908713D01*
X-95820101Y-14023437D01*
X-95820097Y-14023438D01*
X-95820088Y-14023444D01*
X-95608087Y-14111258D01*
X-95386438Y-14170648D01*
X-95386434Y-14170648D01*
X-95386432Y-14170649D01*
X-95327802Y-14178367D01*
X-95158934Y-14200600D01*
X-95158927Y-14200600D01*
X-94929473Y-14200600D01*
X-94929466Y-14200600D01*
X-94723855Y-14173530D01*
X-94701969Y-14170649D01*
X-94701969Y-14170648D01*
X-94701962Y-14170648D01*
X-94480313Y-14111258D01*
X-94268312Y-14023444D01*
X-94069588Y-13908711D01*
X-93909156Y-13785606D01*
X-93887548Y-13769026D01*
X-93887548Y-13769025D01*
X-93887539Y-13769019D01*
X-93769724Y-13651203D01*
X-93707414Y-13617180D01*
X-93680630Y-13614300D01*
X-89816209Y-13614300D01*
X-89816200Y-13614300D01*
X-88816200Y-13614300D01*
X-88816200Y-4531961D01*
X-85652400Y-4531961D01*
X-85640796Y-4590296D01*
X-85596593Y-4656452D01*
X-85530437Y-4700655D01*
X-85472102Y-4712259D01*
X-85472097Y-4712260D01*
X-84702400Y-4712260D01*
X-83202400Y-4712260D01*
X-82432703Y-4712260D01*
X-82432699Y-4712259D01*
X-82374364Y-4700655D01*
X-82308208Y-4656452D01*
X-82264005Y-4590296D01*
X-82252401Y-4531961D01*
X-82252400Y-4531956D01*
X-82252400Y-3762260D01*
X-83202400Y-3762260D01*
X-83202400Y-4712260D01*
X-84702400Y-4712260D01*
X-84702400Y-3762260D01*
X-85652400Y-3762260D01*
X-85652400Y-4531961D01*
X-88816200Y-4531961D01*
X-88816200Y-2938391D01*
X-84702400Y-2938391D01*
X-84702400Y-3086129D01*
X-84673578Y-3231027D01*
X-84617041Y-3367518D01*
X-84534963Y-3490357D01*
X-84430497Y-3594823D01*
X-84307658Y-3676901D01*
X-84171167Y-3733438D01*
X-84026269Y-3762260D01*
X-83878531Y-3762260D01*
X-83733633Y-3733438D01*
X-83597142Y-3676901D01*
X-83474303Y-3594823D01*
X-83369837Y-3490357D01*
X-83287759Y-3367518D01*
X-83231222Y-3231027D01*
X-83202400Y-3086129D01*
X-83202400Y-2938391D01*
X-83231222Y-2793493D01*
X-83287759Y-2657002D01*
X-83369837Y-2534163D01*
X-83474303Y-2429697D01*
X-83597142Y-2347619D01*
X-83733633Y-2291082D01*
X-83878531Y-2262260D01*
X-83202400Y-2262260D01*
X-82252400Y-2262260D01*
X-82252400Y-1492563D01*
X-82252401Y-1492558D01*
X-82264005Y-1434223D01*
X-82308208Y-1368067D01*
X-82374364Y-1323864D01*
X-82432699Y-1312260D01*
X-83202400Y-1312260D01*
X-83202400Y-2262260D01*
X-83878531Y-2262260D01*
X-84026269Y-2262260D01*
X-84171167Y-2291082D01*
X-84307658Y-2347619D01*
X-84430497Y-2429697D01*
X-84534963Y-2534163D01*
X-84617041Y-2657002D01*
X-84673578Y-2793493D01*
X-84702400Y-2938391D01*
X-88816200Y-2938391D01*
X-88816200Y-1492558D01*
X-85652400Y-1492558D01*
X-85652400Y-2262260D01*
X-84702400Y-2262260D01*
X-84702400Y-1312260D01*
X-85472102Y-1312260D01*
X-85530437Y-1323864D01*
X-85596593Y-1368067D01*
X-85640796Y-1434223D01*
X-85652400Y-1492558D01*
X-88816200Y-1492558D01*
X-88816200Y-620487D01*
X-88815593Y-608137D01*
X-88798202Y-431562D01*
X-88793386Y-407342D01*
X-88743679Y-243481D01*
X-88734235Y-220680D01*
X-88653518Y-69669D01*
X-88639802Y-49142D01*
X-88531175Y83221D01*
X-88513721Y100675D01*
X-88381358Y209302D01*
X-88360831Y223018D01*
X-88209820Y303735D01*
X-88187019Y313179D01*
X-88023158Y362886D01*
X-87998943Y367702D01*
X-87822363Y385094D01*
X-87810013Y385700D01*
X-74047387Y385700D01*
X-74035038Y385094D01*
G37*
%TD.AperFunction*%
%TD*%
M02*
