M48
; DRILL file {KiCad (5.1.4)-1} date 9/27/2019 9:40:59 AM
; FORMAT={-:-/ absolute / inch / decimal}
; #@! TF.CreationDate,2019-09-27T09:40:59-04:00
; #@! TF.GenerationSoftware,Kicad,Pcbnew,(5.1.4)-1
; #@! TF.FileFunction,Plated,1,2,PTH
FMAT,2
INCH
T1C0.0299
T2C0.0315
T3C0.0394
%
G90
G05
T1
X5.713Y-3.3835
X5.763Y-3.2835
X5.813Y-3.3835
X5.863Y-3.2835
X5.913Y-3.3835
X5.963Y-3.2835
X6.013Y-3.3835
X6.063Y-3.2835
T2
X5.5402Y-3.6378
X5.5402Y-3.9378
X5.6402Y-3.6378
X5.6402Y-3.9378
X5.7402Y-3.6378
X5.7402Y-3.9378
X5.8402Y-3.6378
X5.8402Y-3.9378
X5.9402Y-3.6378
X5.9402Y-3.9378
X6.0402Y-3.6378
X6.0402Y-3.9378
X6.1402Y-3.6378
X6.1402Y-3.9378
X6.2402Y-3.6378
X6.2402Y-3.9378
X6.3583Y-3.7126
X6.3583Y-3.9094
X5.5559Y-3.5236
X5.6559Y-3.5236
X5.7559Y-3.5236
X5.8559Y-3.5236
X5.9559Y-3.5236
X6.0559Y-3.5236
X6.1559Y-3.5236
X6.2559Y-3.5236
T3
X5.6386Y-4.0575
X5.6386Y-4.1575
X5.7386Y-4.0575
X5.7386Y-4.1575
X5.8386Y-4.0575
X5.8386Y-4.1575
X5.9386Y-4.0575
X5.9386Y-4.1575
X6.0386Y-4.0575
X6.0386Y-4.1575
X6.1386Y-4.0575
X6.1386Y-4.1575
X6.2386Y-4.0575
X6.2386Y-4.1575
X6.3386Y-4.0575
X6.3386Y-4.1575
T0
M30
