G04 #@! TF.GenerationSoftware,KiCad,Pcbnew,(5.1.4)-1*
G04 #@! TF.CreationDate,2019-10-03T07:27:34-04:00*
G04 #@! TF.ProjectId,Quad_Diff_Out,51756164-5f44-4696-9666-5f4f75742e6b,v3*
G04 #@! TF.SameCoordinates,Original*
G04 #@! TF.FileFunction,Legend,Top*
G04 #@! TF.FilePolarity,Positive*
%FSLAX46Y46*%
G04 Gerber Fmt 4.6, Leading zero omitted, Abs format (unit mm)*
G04 Created by KiCad (PCBNEW (5.1.4)-1) date 2019-10-03 07:27:34*
%MOMM*%
%LPD*%
G04 APERTURE LIST*
%ADD10C,0.150000*%
%ADD11C,0.300000*%
%ADD12C,0.120000*%
%ADD13C,0.010000*%
G04 APERTURE END LIST*
D10*
X145500000Y-107228571D02*
X145833333Y-107228571D01*
X145976190Y-107752380D02*
X145500000Y-107752380D01*
X145500000Y-106752380D01*
X145976190Y-106752380D01*
X146309523Y-107752380D02*
X146833333Y-107085714D01*
X146309523Y-107085714D02*
X146833333Y-107752380D01*
X147214285Y-107085714D02*
X147214285Y-108085714D01*
X147214285Y-107133333D02*
X147309523Y-107085714D01*
X147500000Y-107085714D01*
X147595238Y-107133333D01*
X147642857Y-107180952D01*
X147690476Y-107276190D01*
X147690476Y-107561904D01*
X147642857Y-107657142D01*
X147595238Y-107704761D01*
X147500000Y-107752380D01*
X147309523Y-107752380D01*
X147214285Y-107704761D01*
X148547619Y-107752380D02*
X148547619Y-107228571D01*
X148500000Y-107133333D01*
X148404761Y-107085714D01*
X148214285Y-107085714D01*
X148119047Y-107133333D01*
X148547619Y-107704761D02*
X148452380Y-107752380D01*
X148214285Y-107752380D01*
X148119047Y-107704761D01*
X148071428Y-107609523D01*
X148071428Y-107514285D01*
X148119047Y-107419047D01*
X148214285Y-107371428D01*
X148452380Y-107371428D01*
X148547619Y-107323809D01*
X149023809Y-107085714D02*
X149023809Y-107752380D01*
X149023809Y-107180952D02*
X149071428Y-107133333D01*
X149166666Y-107085714D01*
X149309523Y-107085714D01*
X149404761Y-107133333D01*
X149452380Y-107228571D01*
X149452380Y-107752380D01*
X149880952Y-107704761D02*
X149976190Y-107752380D01*
X150166666Y-107752380D01*
X150261904Y-107704761D01*
X150309523Y-107609523D01*
X150309523Y-107561904D01*
X150261904Y-107466666D01*
X150166666Y-107419047D01*
X150023809Y-107419047D01*
X149928571Y-107371428D01*
X149880952Y-107276190D01*
X149880952Y-107228571D01*
X149928571Y-107133333D01*
X150023809Y-107085714D01*
X150166666Y-107085714D01*
X150261904Y-107133333D01*
X150738095Y-107752380D02*
X150738095Y-107085714D01*
X150738095Y-106752380D02*
X150690476Y-106800000D01*
X150738095Y-106847619D01*
X150785714Y-106800000D01*
X150738095Y-106752380D01*
X150738095Y-106847619D01*
X151357142Y-107752380D02*
X151261904Y-107704761D01*
X151214285Y-107657142D01*
X151166666Y-107561904D01*
X151166666Y-107276190D01*
X151214285Y-107180952D01*
X151261904Y-107133333D01*
X151357142Y-107085714D01*
X151500000Y-107085714D01*
X151595238Y-107133333D01*
X151642857Y-107180952D01*
X151690476Y-107276190D01*
X151690476Y-107561904D01*
X151642857Y-107657142D01*
X151595238Y-107704761D01*
X151500000Y-107752380D01*
X151357142Y-107752380D01*
X152119047Y-107085714D02*
X152119047Y-107752380D01*
X152119047Y-107180952D02*
X152166666Y-107133333D01*
X152261904Y-107085714D01*
X152404761Y-107085714D01*
X152500000Y-107133333D01*
X152547619Y-107228571D01*
X152547619Y-107752380D01*
X153785714Y-107752380D02*
X153785714Y-106752380D01*
X153785714Y-107228571D02*
X154357142Y-107228571D01*
X154357142Y-107752380D02*
X154357142Y-106752380D01*
X155214285Y-107704761D02*
X155119047Y-107752380D01*
X154928571Y-107752380D01*
X154833333Y-107704761D01*
X154785714Y-107609523D01*
X154785714Y-107228571D01*
X154833333Y-107133333D01*
X154928571Y-107085714D01*
X155119047Y-107085714D01*
X155214285Y-107133333D01*
X155261904Y-107228571D01*
X155261904Y-107323809D01*
X154785714Y-107419047D01*
X156119047Y-107752380D02*
X156119047Y-107228571D01*
X156071428Y-107133333D01*
X155976190Y-107085714D01*
X155785714Y-107085714D01*
X155690476Y-107133333D01*
X156119047Y-107704761D02*
X156023809Y-107752380D01*
X155785714Y-107752380D01*
X155690476Y-107704761D01*
X155642857Y-107609523D01*
X155642857Y-107514285D01*
X155690476Y-107419047D01*
X155785714Y-107371428D01*
X156023809Y-107371428D01*
X156119047Y-107323809D01*
X157023809Y-107752380D02*
X157023809Y-106752380D01*
X157023809Y-107704761D02*
X156928571Y-107752380D01*
X156738095Y-107752380D01*
X156642857Y-107704761D01*
X156595238Y-107657142D01*
X156547619Y-107561904D01*
X156547619Y-107276190D01*
X156595238Y-107180952D01*
X156642857Y-107133333D01*
X156738095Y-107085714D01*
X156928571Y-107085714D01*
X157023809Y-107133333D01*
X157880952Y-107704761D02*
X157785714Y-107752380D01*
X157595238Y-107752380D01*
X157500000Y-107704761D01*
X157452380Y-107609523D01*
X157452380Y-107228571D01*
X157500000Y-107133333D01*
X157595238Y-107085714D01*
X157785714Y-107085714D01*
X157880952Y-107133333D01*
X157928571Y-107228571D01*
X157928571Y-107323809D01*
X157452380Y-107419047D01*
X158357142Y-107752380D02*
X158357142Y-107085714D01*
X158357142Y-107276190D02*
X158404761Y-107180952D01*
X158452380Y-107133333D01*
X158547619Y-107085714D01*
X158642857Y-107085714D01*
D11*
X161971428Y-104921428D02*
X162042857Y-104850000D01*
X162185714Y-104778571D01*
X162542857Y-104778571D01*
X162685714Y-104850000D01*
X162757142Y-104921428D01*
X162828571Y-105064285D01*
X162828571Y-105207142D01*
X162757142Y-105421428D01*
X161900000Y-106278571D01*
X162828571Y-106278571D01*
X162928571Y-103778571D02*
X162071428Y-103778571D01*
X162500000Y-103778571D02*
X162500000Y-102278571D01*
X162357142Y-102492857D01*
X162214285Y-102635714D01*
X162071428Y-102707142D01*
D10*
X139752380Y-70595238D02*
X139800000Y-70500000D01*
X139895238Y-70404761D01*
X140038095Y-70261904D01*
X140085714Y-70166666D01*
X140085714Y-70071428D01*
X139847619Y-70119047D02*
X139895238Y-70023809D01*
X139990476Y-69928571D01*
X140180952Y-69880952D01*
X140514285Y-69880952D01*
X140704761Y-69928571D01*
X140800000Y-70023809D01*
X140847619Y-70119047D01*
X140847619Y-70309523D01*
X140800000Y-70404761D01*
X140704761Y-70500000D01*
X140514285Y-70547619D01*
X140180952Y-70547619D01*
X139990476Y-70500000D01*
X139895238Y-70404761D01*
X139847619Y-70309523D01*
X139847619Y-70119047D01*
X140514285Y-71404761D02*
X139847619Y-71404761D01*
X140514285Y-70976190D02*
X139990476Y-70976190D01*
X139895238Y-71023809D01*
X139847619Y-71119047D01*
X139847619Y-71261904D01*
X139895238Y-71357142D01*
X139942857Y-71404761D01*
X139847619Y-72309523D02*
X140371428Y-72309523D01*
X140466666Y-72261904D01*
X140514285Y-72166666D01*
X140514285Y-71976190D01*
X140466666Y-71880952D01*
X139895238Y-72309523D02*
X139847619Y-72214285D01*
X139847619Y-71976190D01*
X139895238Y-71880952D01*
X139990476Y-71833333D01*
X140085714Y-71833333D01*
X140180952Y-71880952D01*
X140228571Y-71976190D01*
X140228571Y-72214285D01*
X140276190Y-72309523D01*
X139847619Y-73214285D02*
X140847619Y-73214285D01*
X139895238Y-73214285D02*
X139847619Y-73119047D01*
X139847619Y-72928571D01*
X139895238Y-72833333D01*
X139942857Y-72785714D01*
X140038095Y-72738095D01*
X140323809Y-72738095D01*
X140419047Y-72785714D01*
X140466666Y-72833333D01*
X140514285Y-72928571D01*
X140514285Y-73119047D01*
X140466666Y-73214285D01*
X139847619Y-74452380D02*
X140847619Y-74452380D01*
X140847619Y-74690476D01*
X140800000Y-74833333D01*
X140704761Y-74928571D01*
X140609523Y-74976190D01*
X140419047Y-75023809D01*
X140276190Y-75023809D01*
X140085714Y-74976190D01*
X139990476Y-74928571D01*
X139895238Y-74833333D01*
X139847619Y-74690476D01*
X139847619Y-74452380D01*
X139847619Y-75452380D02*
X140514285Y-75452380D01*
X140847619Y-75452380D02*
X140800000Y-75404761D01*
X140752380Y-75452380D01*
X140800000Y-75500000D01*
X140847619Y-75452380D01*
X140752380Y-75452380D01*
X140514285Y-75785714D02*
X140514285Y-76166666D01*
X139847619Y-75928571D02*
X140704761Y-75928571D01*
X140800000Y-75976190D01*
X140847619Y-76071428D01*
X140847619Y-76166666D01*
X140514285Y-76357142D02*
X140514285Y-76738095D01*
X139847619Y-76500000D02*
X140704761Y-76500000D01*
X140800000Y-76547619D01*
X140847619Y-76642857D01*
X140847619Y-76738095D01*
X140514285Y-77738095D02*
X139847619Y-77976190D01*
X140514285Y-78214285D01*
X140847619Y-78500000D02*
X140847619Y-79119047D01*
X140466666Y-78785714D01*
X140466666Y-78928571D01*
X140419047Y-79023809D01*
X140371428Y-79071428D01*
X140276190Y-79119047D01*
X140038095Y-79119047D01*
X139942857Y-79071428D01*
X139895238Y-79023809D01*
X139847619Y-78928571D01*
X139847619Y-78642857D01*
X139895238Y-78547619D01*
X139942857Y-78500000D01*
D12*
X159830000Y-98860000D02*
X159830000Y-97210000D01*
X139390000Y-98860000D02*
X159830000Y-98860000D01*
X139390000Y-93560000D02*
X139390000Y-98860000D01*
X159830000Y-93560000D02*
X139390000Y-93560000D01*
X159830000Y-95210000D02*
X159830000Y-93560000D01*
X159830000Y-97210000D02*
G75*
G02X159830000Y-95210000I0J1000000D01*
G01*
X157630000Y-90900000D02*
X157630000Y-88100000D01*
X139680000Y-90900000D02*
X160340000Y-90900000D01*
X139680000Y-88100000D02*
X139680000Y-90900000D01*
X160340000Y-88100000D02*
X139680000Y-88100000D01*
X160340000Y-90900000D02*
X160340000Y-88100000D01*
D13*
G36*
X162957652Y-72703910D02*
G01*
X162957222Y-72782454D01*
X162956058Y-72839298D01*
X162953793Y-72878105D01*
X162950060Y-72902538D01*
X162944494Y-72916262D01*
X162936727Y-72922940D01*
X162926395Y-72926236D01*
X162925057Y-72926556D01*
X162900921Y-72931562D01*
X162853299Y-72940829D01*
X162787259Y-72953392D01*
X162707872Y-72968287D01*
X162620204Y-72984551D01*
X162617125Y-72985119D01*
X162531211Y-73001410D01*
X162455304Y-73016652D01*
X162393955Y-73029861D01*
X162351718Y-73040054D01*
X162333145Y-73046248D01*
X162332816Y-73046543D01*
X162323747Y-73064788D01*
X162308633Y-73102405D01*
X162290738Y-73151271D01*
X162290642Y-73151543D01*
X162267507Y-73213093D01*
X162238035Y-73285657D01*
X162208403Y-73354057D01*
X162206938Y-73357294D01*
X162156374Y-73468702D01*
X162324840Y-73715399D01*
X162376197Y-73791077D01*
X162422111Y-73859631D01*
X162459970Y-73917088D01*
X162487163Y-73959476D01*
X162501079Y-73982825D01*
X162502111Y-73985042D01*
X162497516Y-74002010D01*
X162475345Y-74033701D01*
X162434553Y-74081352D01*
X162374095Y-74146198D01*
X162309773Y-74212397D01*
X162246388Y-74276214D01*
X162188549Y-74333329D01*
X162139825Y-74380305D01*
X162103790Y-74413703D01*
X162084016Y-74430085D01*
X162082998Y-74430694D01*
X162069428Y-74432505D01*
X162047267Y-74425683D01*
X162013522Y-74408540D01*
X161965200Y-74379393D01*
X161899308Y-74336555D01*
X161814483Y-74279448D01*
X161739823Y-74228766D01*
X161672860Y-74183461D01*
X161617484Y-74146150D01*
X161577580Y-74119452D01*
X161557038Y-74105985D01*
X161555644Y-74105137D01*
X161535962Y-74106781D01*
X161497707Y-74119245D01*
X161448111Y-74140048D01*
X161432272Y-74147462D01*
X161361710Y-74179814D01*
X161281647Y-74214328D01*
X161212371Y-74242365D01*
X161160955Y-74262568D01*
X161121881Y-74278615D01*
X161101459Y-74287888D01*
X161099886Y-74289041D01*
X161097279Y-74306096D01*
X161090137Y-74346298D01*
X161079477Y-74404302D01*
X161066315Y-74474763D01*
X161051667Y-74552335D01*
X161036551Y-74631672D01*
X161021982Y-74707431D01*
X161008978Y-74774264D01*
X160998555Y-74826828D01*
X160991730Y-74859776D01*
X160989801Y-74867857D01*
X160985038Y-74876205D01*
X160974282Y-74882506D01*
X160953902Y-74887045D01*
X160920266Y-74890104D01*
X160869745Y-74891967D01*
X160798708Y-74892918D01*
X160703524Y-74893240D01*
X160664508Y-74893257D01*
X160347201Y-74893257D01*
X160332161Y-74817057D01*
X160324005Y-74774663D01*
X160312101Y-74711400D01*
X160297884Y-74634962D01*
X160282790Y-74553043D01*
X160278645Y-74530400D01*
X160263947Y-74454806D01*
X160249495Y-74388953D01*
X160236625Y-74338366D01*
X160226678Y-74308574D01*
X160223713Y-74303612D01*
X160202717Y-74291426D01*
X160162033Y-74273953D01*
X160109678Y-74254577D01*
X160098400Y-74250734D01*
X160028477Y-74225339D01*
X159949582Y-74193817D01*
X159878734Y-74162969D01*
X159878405Y-74162817D01*
X159767267Y-74111447D01*
X159518747Y-74280399D01*
X159270228Y-74449352D01*
X159052942Y-74232429D01*
X158988274Y-74166819D01*
X158931267Y-74106979D01*
X158884967Y-74056267D01*
X158852416Y-74018046D01*
X158836657Y-73995675D01*
X158835657Y-73992466D01*
X158843531Y-73973626D01*
X158865422Y-73935180D01*
X158898733Y-73881330D01*
X158940869Y-73816276D01*
X158988057Y-73745940D01*
X159036190Y-73674555D01*
X159078072Y-73610908D01*
X159111129Y-73559041D01*
X159132782Y-73522995D01*
X159140457Y-73506867D01*
X159133963Y-73487189D01*
X159116850Y-73449875D01*
X159092674Y-73402621D01*
X159089987Y-73397612D01*
X159058073Y-73333977D01*
X159042421Y-73290341D01*
X159042255Y-73263202D01*
X159056796Y-73249057D01*
X159057000Y-73248975D01*
X159074221Y-73241905D01*
X159115101Y-73225042D01*
X159176475Y-73199695D01*
X159255181Y-73167171D01*
X159348053Y-73128778D01*
X159451928Y-73085822D01*
X159552498Y-73044222D01*
X159663484Y-72998504D01*
X159766297Y-72956526D01*
X159857785Y-72919548D01*
X159934799Y-72888827D01*
X159994185Y-72865622D01*
X160032791Y-72851190D01*
X160047200Y-72846743D01*
X160063728Y-72857896D01*
X160090070Y-72887069D01*
X160119113Y-72925971D01*
X160210961Y-73036757D01*
X160316241Y-73123351D01*
X160432734Y-73184716D01*
X160558224Y-73219815D01*
X160690493Y-73227608D01*
X160751543Y-73221943D01*
X160878205Y-73191078D01*
X160990059Y-73137920D01*
X161085999Y-73065767D01*
X161164924Y-72977917D01*
X161225730Y-72877665D01*
X161267313Y-72768310D01*
X161288572Y-72653147D01*
X161288401Y-72535475D01*
X161265699Y-72418590D01*
X161219362Y-72305789D01*
X161148287Y-72200369D01*
X161108089Y-72156368D01*
X161004871Y-72071979D01*
X160892075Y-72013222D01*
X160772990Y-71979704D01*
X160650905Y-71971035D01*
X160529107Y-71986823D01*
X160410884Y-72026678D01*
X160299525Y-72090207D01*
X160198316Y-72177021D01*
X160119113Y-72274029D01*
X160088838Y-72314437D01*
X160062781Y-72342982D01*
X160047175Y-72353257D01*
X160030157Y-72347877D01*
X159989500Y-72332575D01*
X159928358Y-72308612D01*
X159849881Y-72277244D01*
X159757220Y-72239732D01*
X159653528Y-72197333D01*
X159552474Y-72155663D01*
X159441393Y-72109690D01*
X159338459Y-72067107D01*
X159246835Y-72029221D01*
X159169684Y-71997340D01*
X159110169Y-71972771D01*
X159071456Y-71956820D01*
X159057000Y-71950910D01*
X159042315Y-71936948D01*
X159042358Y-71909940D01*
X159057901Y-71866413D01*
X159089716Y-71802890D01*
X159089987Y-71802388D01*
X159114677Y-71754560D01*
X159132662Y-71715897D01*
X159140386Y-71694095D01*
X159140457Y-71693133D01*
X159132622Y-71676721D01*
X159110835Y-71640487D01*
X159077672Y-71588474D01*
X159035709Y-71524725D01*
X158988057Y-71454060D01*
X158939809Y-71382116D01*
X158897849Y-71317274D01*
X158864773Y-71263735D01*
X158843179Y-71225697D01*
X158835657Y-71207533D01*
X158845543Y-71190808D01*
X158873174Y-71157180D01*
X158915505Y-71110010D01*
X158969495Y-71052658D01*
X159032101Y-70988484D01*
X159053017Y-70967497D01*
X159270377Y-70750499D01*
X159512780Y-70915668D01*
X159587219Y-70965864D01*
X159654028Y-71009919D01*
X159709335Y-71045362D01*
X159749271Y-71069719D01*
X159769964Y-71080522D01*
X159771437Y-71080838D01*
X159790942Y-71075143D01*
X159830178Y-71059826D01*
X159882570Y-71037537D01*
X159917645Y-71021893D01*
X159984799Y-70992641D01*
X160052642Y-70965094D01*
X160109966Y-70943737D01*
X160127428Y-70937935D01*
X160174062Y-70921452D01*
X160210095Y-70905340D01*
X160223713Y-70896490D01*
X160232048Y-70876960D01*
X160243863Y-70834334D01*
X160257819Y-70774145D01*
X160272578Y-70701922D01*
X160278645Y-70669600D01*
X160293727Y-70587522D01*
X160308331Y-70508795D01*
X160321020Y-70441109D01*
X160330358Y-70392160D01*
X160332161Y-70382943D01*
X160347201Y-70306743D01*
X160664508Y-70306743D01*
X160768846Y-70306914D01*
X160847787Y-70307616D01*
X160904962Y-70309134D01*
X160944001Y-70311749D01*
X160968535Y-70315746D01*
X160982195Y-70321409D01*
X160988611Y-70329020D01*
X160989801Y-70332143D01*
X160994020Y-70350978D01*
X161002438Y-70392588D01*
X161014039Y-70451630D01*
X161027805Y-70522757D01*
X161042720Y-70600625D01*
X161057768Y-70679887D01*
X161071931Y-70755198D01*
X161084194Y-70821213D01*
X161093539Y-70872587D01*
X161098950Y-70903975D01*
X161099886Y-70910959D01*
X161112404Y-70917285D01*
X161145754Y-70931290D01*
X161193623Y-70950355D01*
X161212371Y-70957634D01*
X161284805Y-70986996D01*
X161364830Y-71021571D01*
X161432272Y-71052537D01*
X161483841Y-71075323D01*
X161526215Y-71090482D01*
X161552166Y-71095542D01*
X161555644Y-71094736D01*
X161572064Y-71084041D01*
X161608583Y-71059620D01*
X161661313Y-71024095D01*
X161726365Y-70980087D01*
X161799849Y-70930217D01*
X161814355Y-70920356D01*
X161900296Y-70862492D01*
X161965739Y-70819956D01*
X162013696Y-70791054D01*
X162047180Y-70774090D01*
X162069205Y-70767367D01*
X162082783Y-70769190D01*
X162082869Y-70769236D01*
X162100703Y-70783586D01*
X162135183Y-70815323D01*
X162182732Y-70861010D01*
X162239778Y-70917204D01*
X162302745Y-70980468D01*
X162309773Y-70987602D01*
X162386980Y-71067330D01*
X162443670Y-71128857D01*
X162480890Y-71173421D01*
X162499685Y-71202257D01*
X162502111Y-71214958D01*
X162491529Y-71233494D01*
X162467084Y-71271961D01*
X162431388Y-71326386D01*
X162387053Y-71392798D01*
X162336689Y-71467225D01*
X162324840Y-71484601D01*
X162156374Y-71731297D01*
X162206938Y-71842706D01*
X162236405Y-71910457D01*
X162266041Y-71983183D01*
X162289670Y-72045703D01*
X162290642Y-72048457D01*
X162308543Y-72097360D01*
X162323680Y-72135057D01*
X162332790Y-72153425D01*
X162332816Y-72153456D01*
X162349283Y-72159285D01*
X162389781Y-72169192D01*
X162449758Y-72182195D01*
X162524660Y-72197309D01*
X162609936Y-72213552D01*
X162617125Y-72214881D01*
X162704986Y-72231175D01*
X162784740Y-72246133D01*
X162851319Y-72258791D01*
X162899653Y-72268186D01*
X162924675Y-72273354D01*
X162925057Y-72273444D01*
X162935701Y-72276589D01*
X162943738Y-72282704D01*
X162949533Y-72295453D01*
X162953453Y-72318500D01*
X162955865Y-72355509D01*
X162957135Y-72410144D01*
X162957629Y-72486067D01*
X162957714Y-72586944D01*
X162957714Y-72600000D01*
X162957652Y-72703910D01*
X162957652Y-72703910D01*
G37*
X162957652Y-72703910D02*
X162957222Y-72782454D01*
X162956058Y-72839298D01*
X162953793Y-72878105D01*
X162950060Y-72902538D01*
X162944494Y-72916262D01*
X162936727Y-72922940D01*
X162926395Y-72926236D01*
X162925057Y-72926556D01*
X162900921Y-72931562D01*
X162853299Y-72940829D01*
X162787259Y-72953392D01*
X162707872Y-72968287D01*
X162620204Y-72984551D01*
X162617125Y-72985119D01*
X162531211Y-73001410D01*
X162455304Y-73016652D01*
X162393955Y-73029861D01*
X162351718Y-73040054D01*
X162333145Y-73046248D01*
X162332816Y-73046543D01*
X162323747Y-73064788D01*
X162308633Y-73102405D01*
X162290738Y-73151271D01*
X162290642Y-73151543D01*
X162267507Y-73213093D01*
X162238035Y-73285657D01*
X162208403Y-73354057D01*
X162206938Y-73357294D01*
X162156374Y-73468702D01*
X162324840Y-73715399D01*
X162376197Y-73791077D01*
X162422111Y-73859631D01*
X162459970Y-73917088D01*
X162487163Y-73959476D01*
X162501079Y-73982825D01*
X162502111Y-73985042D01*
X162497516Y-74002010D01*
X162475345Y-74033701D01*
X162434553Y-74081352D01*
X162374095Y-74146198D01*
X162309773Y-74212397D01*
X162246388Y-74276214D01*
X162188549Y-74333329D01*
X162139825Y-74380305D01*
X162103790Y-74413703D01*
X162084016Y-74430085D01*
X162082998Y-74430694D01*
X162069428Y-74432505D01*
X162047267Y-74425683D01*
X162013522Y-74408540D01*
X161965200Y-74379393D01*
X161899308Y-74336555D01*
X161814483Y-74279448D01*
X161739823Y-74228766D01*
X161672860Y-74183461D01*
X161617484Y-74146150D01*
X161577580Y-74119452D01*
X161557038Y-74105985D01*
X161555644Y-74105137D01*
X161535962Y-74106781D01*
X161497707Y-74119245D01*
X161448111Y-74140048D01*
X161432272Y-74147462D01*
X161361710Y-74179814D01*
X161281647Y-74214328D01*
X161212371Y-74242365D01*
X161160955Y-74262568D01*
X161121881Y-74278615D01*
X161101459Y-74287888D01*
X161099886Y-74289041D01*
X161097279Y-74306096D01*
X161090137Y-74346298D01*
X161079477Y-74404302D01*
X161066315Y-74474763D01*
X161051667Y-74552335D01*
X161036551Y-74631672D01*
X161021982Y-74707431D01*
X161008978Y-74774264D01*
X160998555Y-74826828D01*
X160991730Y-74859776D01*
X160989801Y-74867857D01*
X160985038Y-74876205D01*
X160974282Y-74882506D01*
X160953902Y-74887045D01*
X160920266Y-74890104D01*
X160869745Y-74891967D01*
X160798708Y-74892918D01*
X160703524Y-74893240D01*
X160664508Y-74893257D01*
X160347201Y-74893257D01*
X160332161Y-74817057D01*
X160324005Y-74774663D01*
X160312101Y-74711400D01*
X160297884Y-74634962D01*
X160282790Y-74553043D01*
X160278645Y-74530400D01*
X160263947Y-74454806D01*
X160249495Y-74388953D01*
X160236625Y-74338366D01*
X160226678Y-74308574D01*
X160223713Y-74303612D01*
X160202717Y-74291426D01*
X160162033Y-74273953D01*
X160109678Y-74254577D01*
X160098400Y-74250734D01*
X160028477Y-74225339D01*
X159949582Y-74193817D01*
X159878734Y-74162969D01*
X159878405Y-74162817D01*
X159767267Y-74111447D01*
X159518747Y-74280399D01*
X159270228Y-74449352D01*
X159052942Y-74232429D01*
X158988274Y-74166819D01*
X158931267Y-74106979D01*
X158884967Y-74056267D01*
X158852416Y-74018046D01*
X158836657Y-73995675D01*
X158835657Y-73992466D01*
X158843531Y-73973626D01*
X158865422Y-73935180D01*
X158898733Y-73881330D01*
X158940869Y-73816276D01*
X158988057Y-73745940D01*
X159036190Y-73674555D01*
X159078072Y-73610908D01*
X159111129Y-73559041D01*
X159132782Y-73522995D01*
X159140457Y-73506867D01*
X159133963Y-73487189D01*
X159116850Y-73449875D01*
X159092674Y-73402621D01*
X159089987Y-73397612D01*
X159058073Y-73333977D01*
X159042421Y-73290341D01*
X159042255Y-73263202D01*
X159056796Y-73249057D01*
X159057000Y-73248975D01*
X159074221Y-73241905D01*
X159115101Y-73225042D01*
X159176475Y-73199695D01*
X159255181Y-73167171D01*
X159348053Y-73128778D01*
X159451928Y-73085822D01*
X159552498Y-73044222D01*
X159663484Y-72998504D01*
X159766297Y-72956526D01*
X159857785Y-72919548D01*
X159934799Y-72888827D01*
X159994185Y-72865622D01*
X160032791Y-72851190D01*
X160047200Y-72846743D01*
X160063728Y-72857896D01*
X160090070Y-72887069D01*
X160119113Y-72925971D01*
X160210961Y-73036757D01*
X160316241Y-73123351D01*
X160432734Y-73184716D01*
X160558224Y-73219815D01*
X160690493Y-73227608D01*
X160751543Y-73221943D01*
X160878205Y-73191078D01*
X160990059Y-73137920D01*
X161085999Y-73065767D01*
X161164924Y-72977917D01*
X161225730Y-72877665D01*
X161267313Y-72768310D01*
X161288572Y-72653147D01*
X161288401Y-72535475D01*
X161265699Y-72418590D01*
X161219362Y-72305789D01*
X161148287Y-72200369D01*
X161108089Y-72156368D01*
X161004871Y-72071979D01*
X160892075Y-72013222D01*
X160772990Y-71979704D01*
X160650905Y-71971035D01*
X160529107Y-71986823D01*
X160410884Y-72026678D01*
X160299525Y-72090207D01*
X160198316Y-72177021D01*
X160119113Y-72274029D01*
X160088838Y-72314437D01*
X160062781Y-72342982D01*
X160047175Y-72353257D01*
X160030157Y-72347877D01*
X159989500Y-72332575D01*
X159928358Y-72308612D01*
X159849881Y-72277244D01*
X159757220Y-72239732D01*
X159653528Y-72197333D01*
X159552474Y-72155663D01*
X159441393Y-72109690D01*
X159338459Y-72067107D01*
X159246835Y-72029221D01*
X159169684Y-71997340D01*
X159110169Y-71972771D01*
X159071456Y-71956820D01*
X159057000Y-71950910D01*
X159042315Y-71936948D01*
X159042358Y-71909940D01*
X159057901Y-71866413D01*
X159089716Y-71802890D01*
X159089987Y-71802388D01*
X159114677Y-71754560D01*
X159132662Y-71715897D01*
X159140386Y-71694095D01*
X159140457Y-71693133D01*
X159132622Y-71676721D01*
X159110835Y-71640487D01*
X159077672Y-71588474D01*
X159035709Y-71524725D01*
X158988057Y-71454060D01*
X158939809Y-71382116D01*
X158897849Y-71317274D01*
X158864773Y-71263735D01*
X158843179Y-71225697D01*
X158835657Y-71207533D01*
X158845543Y-71190808D01*
X158873174Y-71157180D01*
X158915505Y-71110010D01*
X158969495Y-71052658D01*
X159032101Y-70988484D01*
X159053017Y-70967497D01*
X159270377Y-70750499D01*
X159512780Y-70915668D01*
X159587219Y-70965864D01*
X159654028Y-71009919D01*
X159709335Y-71045362D01*
X159749271Y-71069719D01*
X159769964Y-71080522D01*
X159771437Y-71080838D01*
X159790942Y-71075143D01*
X159830178Y-71059826D01*
X159882570Y-71037537D01*
X159917645Y-71021893D01*
X159984799Y-70992641D01*
X160052642Y-70965094D01*
X160109966Y-70943737D01*
X160127428Y-70937935D01*
X160174062Y-70921452D01*
X160210095Y-70905340D01*
X160223713Y-70896490D01*
X160232048Y-70876960D01*
X160243863Y-70834334D01*
X160257819Y-70774145D01*
X160272578Y-70701922D01*
X160278645Y-70669600D01*
X160293727Y-70587522D01*
X160308331Y-70508795D01*
X160321020Y-70441109D01*
X160330358Y-70392160D01*
X160332161Y-70382943D01*
X160347201Y-70306743D01*
X160664508Y-70306743D01*
X160768846Y-70306914D01*
X160847787Y-70307616D01*
X160904962Y-70309134D01*
X160944001Y-70311749D01*
X160968535Y-70315746D01*
X160982195Y-70321409D01*
X160988611Y-70329020D01*
X160989801Y-70332143D01*
X160994020Y-70350978D01*
X161002438Y-70392588D01*
X161014039Y-70451630D01*
X161027805Y-70522757D01*
X161042720Y-70600625D01*
X161057768Y-70679887D01*
X161071931Y-70755198D01*
X161084194Y-70821213D01*
X161093539Y-70872587D01*
X161098950Y-70903975D01*
X161099886Y-70910959D01*
X161112404Y-70917285D01*
X161145754Y-70931290D01*
X161193623Y-70950355D01*
X161212371Y-70957634D01*
X161284805Y-70986996D01*
X161364830Y-71021571D01*
X161432272Y-71052537D01*
X161483841Y-71075323D01*
X161526215Y-71090482D01*
X161552166Y-71095542D01*
X161555644Y-71094736D01*
X161572064Y-71084041D01*
X161608583Y-71059620D01*
X161661313Y-71024095D01*
X161726365Y-70980087D01*
X161799849Y-70930217D01*
X161814355Y-70920356D01*
X161900296Y-70862492D01*
X161965739Y-70819956D01*
X162013696Y-70791054D01*
X162047180Y-70774090D01*
X162069205Y-70767367D01*
X162082783Y-70769190D01*
X162082869Y-70769236D01*
X162100703Y-70783586D01*
X162135183Y-70815323D01*
X162182732Y-70861010D01*
X162239778Y-70917204D01*
X162302745Y-70980468D01*
X162309773Y-70987602D01*
X162386980Y-71067330D01*
X162443670Y-71128857D01*
X162480890Y-71173421D01*
X162499685Y-71202257D01*
X162502111Y-71214958D01*
X162491529Y-71233494D01*
X162467084Y-71271961D01*
X162431388Y-71326386D01*
X162387053Y-71392798D01*
X162336689Y-71467225D01*
X162324840Y-71484601D01*
X162156374Y-71731297D01*
X162206938Y-71842706D01*
X162236405Y-71910457D01*
X162266041Y-71983183D01*
X162289670Y-72045703D01*
X162290642Y-72048457D01*
X162308543Y-72097360D01*
X162323680Y-72135057D01*
X162332790Y-72153425D01*
X162332816Y-72153456D01*
X162349283Y-72159285D01*
X162389781Y-72169192D01*
X162449758Y-72182195D01*
X162524660Y-72197309D01*
X162609936Y-72213552D01*
X162617125Y-72214881D01*
X162704986Y-72231175D01*
X162784740Y-72246133D01*
X162851319Y-72258791D01*
X162899653Y-72268186D01*
X162924675Y-72273354D01*
X162925057Y-72273444D01*
X162935701Y-72276589D01*
X162943738Y-72282704D01*
X162949533Y-72295453D01*
X162953453Y-72318500D01*
X162955865Y-72355509D01*
X162957135Y-72410144D01*
X162957629Y-72486067D01*
X162957714Y-72586944D01*
X162957714Y-72600000D01*
X162957652Y-72703910D01*
G36*
X158233034Y-75753595D02*
G01*
X158195503Y-75811021D01*
X158161904Y-75838719D01*
X158100936Y-75860662D01*
X158052692Y-75862405D01*
X157988184Y-75858457D01*
X157923066Y-75709686D01*
X157889798Y-75637349D01*
X157863036Y-75590084D01*
X157839856Y-75565507D01*
X157817333Y-75561237D01*
X157792545Y-75574889D01*
X157776114Y-75589943D01*
X157749765Y-75633746D01*
X157747919Y-75681389D01*
X157768454Y-75725145D01*
X157809248Y-75757289D01*
X157823653Y-75763038D01*
X157868644Y-75790576D01*
X157887818Y-75822258D01*
X157904221Y-75865714D01*
X157842034Y-75865714D01*
X157799717Y-75861872D01*
X157764031Y-75846823D01*
X157723057Y-75815280D01*
X157717733Y-75810592D01*
X157681280Y-75775506D01*
X157661717Y-75745347D01*
X157652717Y-75707615D01*
X157649770Y-75676335D01*
X157649035Y-75620385D01*
X157658340Y-75580555D01*
X157672154Y-75555708D01*
X157702533Y-75516656D01*
X157735387Y-75489625D01*
X157776706Y-75472517D01*
X157832479Y-75463238D01*
X157908695Y-75459693D01*
X157947378Y-75459410D01*
X157993753Y-75460372D01*
X157993753Y-75548007D01*
X157968874Y-75549023D01*
X157964800Y-75551556D01*
X157970335Y-75568274D01*
X157984983Y-75604249D01*
X158005810Y-75652331D01*
X158010286Y-75662386D01*
X158041186Y-75723152D01*
X158068343Y-75756632D01*
X158093780Y-75763990D01*
X158119519Y-75746391D01*
X158130891Y-75731856D01*
X158153636Y-75679410D01*
X158149878Y-75630322D01*
X158122116Y-75589227D01*
X158072848Y-75560758D01*
X158033743Y-75551631D01*
X157993753Y-75548007D01*
X157993753Y-75460372D01*
X158037751Y-75461285D01*
X158104616Y-75468196D01*
X158153305Y-75481884D01*
X158189151Y-75504096D01*
X158217487Y-75536574D01*
X158226645Y-75550733D01*
X158250493Y-75615053D01*
X158251994Y-75685473D01*
X158233034Y-75753595D01*
X158233034Y-75753595D01*
G37*
X158233034Y-75753595D02*
X158195503Y-75811021D01*
X158161904Y-75838719D01*
X158100936Y-75860662D01*
X158052692Y-75862405D01*
X157988184Y-75858457D01*
X157923066Y-75709686D01*
X157889798Y-75637349D01*
X157863036Y-75590084D01*
X157839856Y-75565507D01*
X157817333Y-75561237D01*
X157792545Y-75574889D01*
X157776114Y-75589943D01*
X157749765Y-75633746D01*
X157747919Y-75681389D01*
X157768454Y-75725145D01*
X157809248Y-75757289D01*
X157823653Y-75763038D01*
X157868644Y-75790576D01*
X157887818Y-75822258D01*
X157904221Y-75865714D01*
X157842034Y-75865714D01*
X157799717Y-75861872D01*
X157764031Y-75846823D01*
X157723057Y-75815280D01*
X157717733Y-75810592D01*
X157681280Y-75775506D01*
X157661717Y-75745347D01*
X157652717Y-75707615D01*
X157649770Y-75676335D01*
X157649035Y-75620385D01*
X157658340Y-75580555D01*
X157672154Y-75555708D01*
X157702533Y-75516656D01*
X157735387Y-75489625D01*
X157776706Y-75472517D01*
X157832479Y-75463238D01*
X157908695Y-75459693D01*
X157947378Y-75459410D01*
X157993753Y-75460372D01*
X157993753Y-75548007D01*
X157968874Y-75549023D01*
X157964800Y-75551556D01*
X157970335Y-75568274D01*
X157984983Y-75604249D01*
X158005810Y-75652331D01*
X158010286Y-75662386D01*
X158041186Y-75723152D01*
X158068343Y-75756632D01*
X158093780Y-75763990D01*
X158119519Y-75746391D01*
X158130891Y-75731856D01*
X158153636Y-75679410D01*
X158149878Y-75630322D01*
X158122116Y-75589227D01*
X158072848Y-75560758D01*
X158033743Y-75551631D01*
X157993753Y-75548007D01*
X157993753Y-75460372D01*
X158037751Y-75461285D01*
X158104616Y-75468196D01*
X158153305Y-75481884D01*
X158189151Y-75504096D01*
X158217487Y-75536574D01*
X158226645Y-75550733D01*
X158250493Y-75615053D01*
X158251994Y-75685473D01*
X158233034Y-75753595D01*
G36*
X158241248Y-75252600D02*
G01*
X158233666Y-75269948D01*
X158200872Y-75311356D01*
X158153453Y-75346765D01*
X158102849Y-75368664D01*
X158077902Y-75372229D01*
X158043073Y-75360279D01*
X158024643Y-75334067D01*
X158013484Y-75305964D01*
X158011428Y-75293095D01*
X158026351Y-75286829D01*
X158058825Y-75274456D01*
X158073498Y-75269028D01*
X158124256Y-75238590D01*
X158149573Y-75194520D01*
X158148794Y-75138010D01*
X158147797Y-75133825D01*
X158133493Y-75103655D01*
X158105607Y-75081476D01*
X158060713Y-75066327D01*
X157995385Y-75057250D01*
X157906196Y-75053286D01*
X157858739Y-75052914D01*
X157783929Y-75052730D01*
X157732931Y-75051522D01*
X157700529Y-75048309D01*
X157681505Y-75042109D01*
X157670644Y-75031940D01*
X157662728Y-75016819D01*
X157662330Y-75015946D01*
X157650019Y-74986828D01*
X157645486Y-74972403D01*
X157659191Y-74970186D01*
X157697075Y-74968289D01*
X157754285Y-74966847D01*
X157825973Y-74965998D01*
X157878435Y-74965829D01*
X157979953Y-74966692D01*
X158056968Y-74970070D01*
X158113977Y-74977142D01*
X158155474Y-74989088D01*
X158185957Y-75007090D01*
X158209920Y-75032327D01*
X158226645Y-75057247D01*
X158248903Y-75117171D01*
X158253924Y-75186911D01*
X158241248Y-75252600D01*
X158241248Y-75252600D01*
G37*
X158241248Y-75252600D02*
X158233666Y-75269948D01*
X158200872Y-75311356D01*
X158153453Y-75346765D01*
X158102849Y-75368664D01*
X158077902Y-75372229D01*
X158043073Y-75360279D01*
X158024643Y-75334067D01*
X158013484Y-75305964D01*
X158011428Y-75293095D01*
X158026351Y-75286829D01*
X158058825Y-75274456D01*
X158073498Y-75269028D01*
X158124256Y-75238590D01*
X158149573Y-75194520D01*
X158148794Y-75138010D01*
X158147797Y-75133825D01*
X158133493Y-75103655D01*
X158105607Y-75081476D01*
X158060713Y-75066327D01*
X157995385Y-75057250D01*
X157906196Y-75053286D01*
X157858739Y-75052914D01*
X157783929Y-75052730D01*
X157732931Y-75051522D01*
X157700529Y-75048309D01*
X157681505Y-75042109D01*
X157670644Y-75031940D01*
X157662728Y-75016819D01*
X157662330Y-75015946D01*
X157650019Y-74986828D01*
X157645486Y-74972403D01*
X157659191Y-74970186D01*
X157697075Y-74968289D01*
X157754285Y-74966847D01*
X157825973Y-74965998D01*
X157878435Y-74965829D01*
X157979953Y-74966692D01*
X158056968Y-74970070D01*
X158113977Y-74977142D01*
X158155474Y-74989088D01*
X158185957Y-75007090D01*
X158209920Y-75032327D01*
X158226645Y-75057247D01*
X158248903Y-75117171D01*
X158253924Y-75186911D01*
X158241248Y-75252600D01*
G36*
X158243665Y-74744876D02*
G01*
X158224656Y-74786667D01*
X158201622Y-74819469D01*
X158175867Y-74843503D01*
X158142642Y-74860097D01*
X158097200Y-74870577D01*
X158034793Y-74876271D01*
X157950673Y-74878507D01*
X157895279Y-74878743D01*
X157679174Y-74878743D01*
X157662330Y-74841774D01*
X157650019Y-74812656D01*
X157645486Y-74798231D01*
X157658975Y-74795472D01*
X157695347Y-74793282D01*
X157748458Y-74791942D01*
X157790628Y-74791657D01*
X157851553Y-74790434D01*
X157899885Y-74787136D01*
X157929482Y-74782321D01*
X157935771Y-74778496D01*
X157929348Y-74752783D01*
X157912875Y-74712418D01*
X157890542Y-74665679D01*
X157866543Y-74620845D01*
X157845070Y-74586193D01*
X157830315Y-74570002D01*
X157830155Y-74569938D01*
X157802848Y-74571330D01*
X157776781Y-74583818D01*
X157755608Y-74605743D01*
X157748526Y-74637743D01*
X157749351Y-74665092D01*
X157749958Y-74703826D01*
X157740884Y-74724158D01*
X157716908Y-74736369D01*
X157712387Y-74737909D01*
X157678194Y-74743203D01*
X157657432Y-74729047D01*
X157647538Y-74692148D01*
X157645708Y-74652289D01*
X157659273Y-74580562D01*
X157678645Y-74543432D01*
X157724155Y-74497576D01*
X157780017Y-74473256D01*
X157839043Y-74471073D01*
X157894047Y-74491629D01*
X157928514Y-74522549D01*
X157947811Y-74553420D01*
X157972241Y-74601942D01*
X157997015Y-74658485D01*
X158000801Y-74667910D01*
X158028209Y-74730019D01*
X158052366Y-74765822D01*
X158076381Y-74777337D01*
X158103365Y-74766580D01*
X158124457Y-74748114D01*
X158150428Y-74704469D01*
X158152376Y-74656446D01*
X158132363Y-74612406D01*
X158092449Y-74580709D01*
X158082152Y-74576549D01*
X158044276Y-74552327D01*
X158016158Y-74516965D01*
X157993083Y-74472343D01*
X158058515Y-74472343D01*
X158098494Y-74474969D01*
X158130003Y-74486230D01*
X158163622Y-74511199D01*
X158189516Y-74535169D01*
X158226183Y-74572441D01*
X158245879Y-74601401D01*
X158253780Y-74632505D01*
X158255086Y-74667713D01*
X158243665Y-74744876D01*
X158243665Y-74744876D01*
G37*
X158243665Y-74744876D02*
X158224656Y-74786667D01*
X158201622Y-74819469D01*
X158175867Y-74843503D01*
X158142642Y-74860097D01*
X158097200Y-74870577D01*
X158034793Y-74876271D01*
X157950673Y-74878507D01*
X157895279Y-74878743D01*
X157679174Y-74878743D01*
X157662330Y-74841774D01*
X157650019Y-74812656D01*
X157645486Y-74798231D01*
X157658975Y-74795472D01*
X157695347Y-74793282D01*
X157748458Y-74791942D01*
X157790628Y-74791657D01*
X157851553Y-74790434D01*
X157899885Y-74787136D01*
X157929482Y-74782321D01*
X157935771Y-74778496D01*
X157929348Y-74752783D01*
X157912875Y-74712418D01*
X157890542Y-74665679D01*
X157866543Y-74620845D01*
X157845070Y-74586193D01*
X157830315Y-74570002D01*
X157830155Y-74569938D01*
X157802848Y-74571330D01*
X157776781Y-74583818D01*
X157755608Y-74605743D01*
X157748526Y-74637743D01*
X157749351Y-74665092D01*
X157749958Y-74703826D01*
X157740884Y-74724158D01*
X157716908Y-74736369D01*
X157712387Y-74737909D01*
X157678194Y-74743203D01*
X157657432Y-74729047D01*
X157647538Y-74692148D01*
X157645708Y-74652289D01*
X157659273Y-74580562D01*
X157678645Y-74543432D01*
X157724155Y-74497576D01*
X157780017Y-74473256D01*
X157839043Y-74471073D01*
X157894047Y-74491629D01*
X157928514Y-74522549D01*
X157947811Y-74553420D01*
X157972241Y-74601942D01*
X157997015Y-74658485D01*
X158000801Y-74667910D01*
X158028209Y-74730019D01*
X158052366Y-74765822D01*
X158076381Y-74777337D01*
X158103365Y-74766580D01*
X158124457Y-74748114D01*
X158150428Y-74704469D01*
X158152376Y-74656446D01*
X158132363Y-74612406D01*
X158092449Y-74580709D01*
X158082152Y-74576549D01*
X158044276Y-74552327D01*
X158016158Y-74516965D01*
X157993083Y-74472343D01*
X158058515Y-74472343D01*
X158098494Y-74474969D01*
X158130003Y-74486230D01*
X158163622Y-74511199D01*
X158189516Y-74535169D01*
X158226183Y-74572441D01*
X158245879Y-74601401D01*
X158253780Y-74632505D01*
X158255086Y-74667713D01*
X158243665Y-74744876D01*
G36*
X158241337Y-74379833D02*
G01*
X158203150Y-74382048D01*
X158145114Y-74383784D01*
X158071820Y-74384899D01*
X157994945Y-74385257D01*
X157734804Y-74385257D01*
X157688873Y-74339326D01*
X157660571Y-74307675D01*
X157649107Y-74279890D01*
X157649832Y-74241915D01*
X157651679Y-74226840D01*
X157657052Y-74179726D01*
X157660131Y-74140756D01*
X157660415Y-74131257D01*
X157658555Y-74099233D01*
X157653886Y-74053432D01*
X157651679Y-74035674D01*
X157648265Y-73992057D01*
X157655680Y-73962745D01*
X157678573Y-73933680D01*
X157688873Y-73923188D01*
X157734804Y-73877257D01*
X158221398Y-73877257D01*
X158238242Y-73914226D01*
X158250718Y-73946059D01*
X158255086Y-73964683D01*
X158241282Y-73969458D01*
X158202714Y-73973921D01*
X158143644Y-73977775D01*
X158068337Y-73980722D01*
X158004714Y-73982143D01*
X157754343Y-73986114D01*
X157749444Y-74020759D01*
X157752869Y-74052268D01*
X157763959Y-74067708D01*
X157784692Y-74072023D01*
X157828855Y-74075708D01*
X157890854Y-74078469D01*
X157965091Y-74080012D01*
X158003294Y-74080235D01*
X158223217Y-74080457D01*
X158239151Y-74126166D01*
X158249985Y-74158518D01*
X158255038Y-74176115D01*
X158255086Y-74176623D01*
X158241352Y-74178388D01*
X158203270Y-74180329D01*
X158145518Y-74182282D01*
X158072773Y-74184084D01*
X158004714Y-74185343D01*
X157754343Y-74189314D01*
X157754343Y-74276400D01*
X157982760Y-74280396D01*
X158211178Y-74284392D01*
X158233132Y-74326847D01*
X158248207Y-74358192D01*
X158255049Y-74376744D01*
X158255086Y-74377279D01*
X158241337Y-74379833D01*
X158241337Y-74379833D01*
G37*
X158241337Y-74379833D02*
X158203150Y-74382048D01*
X158145114Y-74383784D01*
X158071820Y-74384899D01*
X157994945Y-74385257D01*
X157734804Y-74385257D01*
X157688873Y-74339326D01*
X157660571Y-74307675D01*
X157649107Y-74279890D01*
X157649832Y-74241915D01*
X157651679Y-74226840D01*
X157657052Y-74179726D01*
X157660131Y-74140756D01*
X157660415Y-74131257D01*
X157658555Y-74099233D01*
X157653886Y-74053432D01*
X157651679Y-74035674D01*
X157648265Y-73992057D01*
X157655680Y-73962745D01*
X157678573Y-73933680D01*
X157688873Y-73923188D01*
X157734804Y-73877257D01*
X158221398Y-73877257D01*
X158238242Y-73914226D01*
X158250718Y-73946059D01*
X158255086Y-73964683D01*
X158241282Y-73969458D01*
X158202714Y-73973921D01*
X158143644Y-73977775D01*
X158068337Y-73980722D01*
X158004714Y-73982143D01*
X157754343Y-73986114D01*
X157749444Y-74020759D01*
X157752869Y-74052268D01*
X157763959Y-74067708D01*
X157784692Y-74072023D01*
X157828855Y-74075708D01*
X157890854Y-74078469D01*
X157965091Y-74080012D01*
X158003294Y-74080235D01*
X158223217Y-74080457D01*
X158239151Y-74126166D01*
X158249985Y-74158518D01*
X158255038Y-74176115D01*
X158255086Y-74176623D01*
X158241352Y-74178388D01*
X158203270Y-74180329D01*
X158145518Y-74182282D01*
X158072773Y-74184084D01*
X158004714Y-74185343D01*
X157754343Y-74189314D01*
X157754343Y-74276400D01*
X157982760Y-74280396D01*
X158211178Y-74284392D01*
X158233132Y-74326847D01*
X158248207Y-74358192D01*
X158255049Y-74376744D01*
X158255086Y-74377279D01*
X158241337Y-74379833D01*
G36*
X158134642Y-73790117D02*
G01*
X158026163Y-73789933D01*
X157942713Y-73789219D01*
X157880296Y-73787675D01*
X157834915Y-73785001D01*
X157802571Y-73780894D01*
X157779267Y-73775055D01*
X157761005Y-73767182D01*
X157750582Y-73761221D01*
X157694055Y-73711855D01*
X157658623Y-73649264D01*
X157645910Y-73580013D01*
X157657537Y-73510668D01*
X157678432Y-73469375D01*
X157714578Y-73426025D01*
X157758724Y-73396481D01*
X157816538Y-73378655D01*
X157893687Y-73370463D01*
X157950286Y-73369302D01*
X157954353Y-73369458D01*
X157954353Y-73470857D01*
X157889450Y-73471476D01*
X157846486Y-73474314D01*
X157818378Y-73480840D01*
X157798047Y-73492523D01*
X157782712Y-73506483D01*
X157753110Y-73553365D01*
X157750581Y-73603701D01*
X157775295Y-73651276D01*
X157778644Y-73654979D01*
X157796065Y-73670783D01*
X157816791Y-73680693D01*
X157847638Y-73686058D01*
X157895423Y-73688228D01*
X157948252Y-73688571D01*
X158014619Y-73687827D01*
X158058894Y-73684748D01*
X158087991Y-73678061D01*
X158108827Y-73666496D01*
X158119893Y-73657013D01*
X158147802Y-73612960D01*
X158151157Y-73562224D01*
X158129841Y-73513796D01*
X158121927Y-73504450D01*
X158104353Y-73488540D01*
X158083413Y-73478610D01*
X158052218Y-73473278D01*
X158003878Y-73471163D01*
X157954353Y-73470857D01*
X157954353Y-73369458D01*
X158041432Y-73372810D01*
X158109914Y-73384726D01*
X158161400Y-73407135D01*
X158201557Y-73442124D01*
X158222139Y-73469375D01*
X158244375Y-73518907D01*
X158254696Y-73576316D01*
X158251933Y-73629682D01*
X158240788Y-73659543D01*
X158237617Y-73671261D01*
X158249443Y-73679037D01*
X158281134Y-73684465D01*
X158329407Y-73688571D01*
X158383171Y-73693067D01*
X158415518Y-73699313D01*
X158434015Y-73710676D01*
X158446230Y-73730528D01*
X158451638Y-73743000D01*
X158471399Y-73790171D01*
X158134642Y-73790117D01*
X158134642Y-73790117D01*
G37*
X158134642Y-73790117D02*
X158026163Y-73789933D01*
X157942713Y-73789219D01*
X157880296Y-73787675D01*
X157834915Y-73785001D01*
X157802571Y-73780894D01*
X157779267Y-73775055D01*
X157761005Y-73767182D01*
X157750582Y-73761221D01*
X157694055Y-73711855D01*
X157658623Y-73649264D01*
X157645910Y-73580013D01*
X157657537Y-73510668D01*
X157678432Y-73469375D01*
X157714578Y-73426025D01*
X157758724Y-73396481D01*
X157816538Y-73378655D01*
X157893687Y-73370463D01*
X157950286Y-73369302D01*
X157954353Y-73369458D01*
X157954353Y-73470857D01*
X157889450Y-73471476D01*
X157846486Y-73474314D01*
X157818378Y-73480840D01*
X157798047Y-73492523D01*
X157782712Y-73506483D01*
X157753110Y-73553365D01*
X157750581Y-73603701D01*
X157775295Y-73651276D01*
X157778644Y-73654979D01*
X157796065Y-73670783D01*
X157816791Y-73680693D01*
X157847638Y-73686058D01*
X157895423Y-73688228D01*
X157948252Y-73688571D01*
X158014619Y-73687827D01*
X158058894Y-73684748D01*
X158087991Y-73678061D01*
X158108827Y-73666496D01*
X158119893Y-73657013D01*
X158147802Y-73612960D01*
X158151157Y-73562224D01*
X158129841Y-73513796D01*
X158121927Y-73504450D01*
X158104353Y-73488540D01*
X158083413Y-73478610D01*
X158052218Y-73473278D01*
X158003878Y-73471163D01*
X157954353Y-73470857D01*
X157954353Y-73369458D01*
X158041432Y-73372810D01*
X158109914Y-73384726D01*
X158161400Y-73407135D01*
X158201557Y-73442124D01*
X158222139Y-73469375D01*
X158244375Y-73518907D01*
X158254696Y-73576316D01*
X158251933Y-73629682D01*
X158240788Y-73659543D01*
X158237617Y-73671261D01*
X158249443Y-73679037D01*
X158281134Y-73684465D01*
X158329407Y-73688571D01*
X158383171Y-73693067D01*
X158415518Y-73699313D01*
X158434015Y-73710676D01*
X158446230Y-73730528D01*
X158451638Y-73743000D01*
X158471399Y-73790171D01*
X158134642Y-73790117D01*
G36*
X158250245Y-73129926D02*
G01*
X158225916Y-73195858D01*
X158182883Y-73249273D01*
X158152591Y-73270164D01*
X158097006Y-73292939D01*
X158056814Y-73292466D01*
X158029783Y-73268562D01*
X158025187Y-73259717D01*
X158010856Y-73221530D01*
X158014528Y-73202028D01*
X158038593Y-73195422D01*
X158051886Y-73195086D01*
X158100790Y-73182992D01*
X158135001Y-73151471D01*
X158151524Y-73107659D01*
X158147366Y-73058695D01*
X158125773Y-73018894D01*
X158113456Y-73005450D01*
X158098513Y-72995921D01*
X158075925Y-72989485D01*
X158040672Y-72985317D01*
X157987734Y-72982597D01*
X157912093Y-72980502D01*
X157888143Y-72979960D01*
X157806210Y-72977981D01*
X157748545Y-72975731D01*
X157710392Y-72972357D01*
X157686996Y-72967006D01*
X157673602Y-72958824D01*
X157665455Y-72946959D01*
X157661856Y-72939362D01*
X157649548Y-72907102D01*
X157645486Y-72888111D01*
X157659052Y-72881836D01*
X157700066Y-72878006D01*
X157769001Y-72876600D01*
X157866331Y-72877598D01*
X157881343Y-72877908D01*
X157970141Y-72880101D01*
X158034981Y-72882693D01*
X158080933Y-72886382D01*
X158113065Y-72891864D01*
X158136447Y-72899835D01*
X158156148Y-72910993D01*
X158164590Y-72916830D01*
X158201943Y-72950296D01*
X158230997Y-72987727D01*
X158233533Y-72992309D01*
X158253557Y-73059426D01*
X158250245Y-73129926D01*
X158250245Y-73129926D01*
G37*
X158250245Y-73129926D02*
X158225916Y-73195858D01*
X158182883Y-73249273D01*
X158152591Y-73270164D01*
X158097006Y-73292939D01*
X158056814Y-73292466D01*
X158029783Y-73268562D01*
X158025187Y-73259717D01*
X158010856Y-73221530D01*
X158014528Y-73202028D01*
X158038593Y-73195422D01*
X158051886Y-73195086D01*
X158100790Y-73182992D01*
X158135001Y-73151471D01*
X158151524Y-73107659D01*
X158147366Y-73058695D01*
X158125773Y-73018894D01*
X158113456Y-73005450D01*
X158098513Y-72995921D01*
X158075925Y-72989485D01*
X158040672Y-72985317D01*
X157987734Y-72982597D01*
X157912093Y-72980502D01*
X157888143Y-72979960D01*
X157806210Y-72977981D01*
X157748545Y-72975731D01*
X157710392Y-72972357D01*
X157686996Y-72967006D01*
X157673602Y-72958824D01*
X157665455Y-72946959D01*
X157661856Y-72939362D01*
X157649548Y-72907102D01*
X157645486Y-72888111D01*
X157659052Y-72881836D01*
X157700066Y-72878006D01*
X157769001Y-72876600D01*
X157866331Y-72877598D01*
X157881343Y-72877908D01*
X157970141Y-72880101D01*
X158034981Y-72882693D01*
X158080933Y-72886382D01*
X158113065Y-72891864D01*
X158136447Y-72899835D01*
X158156148Y-72910993D01*
X158164590Y-72916830D01*
X158201943Y-72950296D01*
X158230997Y-72987727D01*
X158233533Y-72992309D01*
X158253557Y-73059426D01*
X158250245Y-73129926D01*
G36*
X158249032Y-72639744D02*
G01*
X158227913Y-72696616D01*
X158227507Y-72697267D01*
X158201620Y-72732440D01*
X158171367Y-72758407D01*
X158131942Y-72776670D01*
X158078538Y-72788732D01*
X158006349Y-72796096D01*
X157910568Y-72800264D01*
X157896922Y-72800629D01*
X157691158Y-72805876D01*
X157668322Y-72761716D01*
X157652890Y-72729763D01*
X157645577Y-72710470D01*
X157645486Y-72709578D01*
X157658978Y-72706239D01*
X157695374Y-72703587D01*
X157748548Y-72701956D01*
X157791607Y-72701600D01*
X157861359Y-72701592D01*
X157905163Y-72698403D01*
X157926056Y-72687288D01*
X157927075Y-72663501D01*
X157911259Y-72622296D01*
X157882185Y-72560086D01*
X157858037Y-72514341D01*
X157837087Y-72490813D01*
X157814253Y-72483896D01*
X157813123Y-72483886D01*
X157773788Y-72495299D01*
X157752538Y-72529092D01*
X157749461Y-72580809D01*
X157749994Y-72618061D01*
X157739265Y-72637703D01*
X157713495Y-72649952D01*
X157680663Y-72657002D01*
X157662034Y-72646842D01*
X157659368Y-72643017D01*
X157648660Y-72607001D01*
X157647144Y-72556566D01*
X157654241Y-72504626D01*
X157667212Y-72467822D01*
X157710415Y-72416938D01*
X157770554Y-72388014D01*
X157817538Y-72382286D01*
X157859918Y-72386657D01*
X157894512Y-72402475D01*
X157925237Y-72433797D01*
X157956010Y-72484678D01*
X157990748Y-72559176D01*
X157992712Y-72563714D01*
X158023713Y-72630821D01*
X158049138Y-72672232D01*
X158071986Y-72689981D01*
X158095255Y-72686107D01*
X158121944Y-72662643D01*
X158128086Y-72655627D01*
X158151900Y-72608630D01*
X158150897Y-72559933D01*
X158127549Y-72517522D01*
X158084325Y-72489384D01*
X158075840Y-72486769D01*
X158034692Y-72461308D01*
X158014872Y-72429001D01*
X157995230Y-72382286D01*
X158046050Y-72382286D01*
X158119918Y-72396496D01*
X158187673Y-72438675D01*
X158210339Y-72460624D01*
X158239431Y-72510517D01*
X158252600Y-72573967D01*
X158249032Y-72639744D01*
X158249032Y-72639744D01*
G37*
X158249032Y-72639744D02*
X158227913Y-72696616D01*
X158227507Y-72697267D01*
X158201620Y-72732440D01*
X158171367Y-72758407D01*
X158131942Y-72776670D01*
X158078538Y-72788732D01*
X158006349Y-72796096D01*
X157910568Y-72800264D01*
X157896922Y-72800629D01*
X157691158Y-72805876D01*
X157668322Y-72761716D01*
X157652890Y-72729763D01*
X157645577Y-72710470D01*
X157645486Y-72709578D01*
X157658978Y-72706239D01*
X157695374Y-72703587D01*
X157748548Y-72701956D01*
X157791607Y-72701600D01*
X157861359Y-72701592D01*
X157905163Y-72698403D01*
X157926056Y-72687288D01*
X157927075Y-72663501D01*
X157911259Y-72622296D01*
X157882185Y-72560086D01*
X157858037Y-72514341D01*
X157837087Y-72490813D01*
X157814253Y-72483896D01*
X157813123Y-72483886D01*
X157773788Y-72495299D01*
X157752538Y-72529092D01*
X157749461Y-72580809D01*
X157749994Y-72618061D01*
X157739265Y-72637703D01*
X157713495Y-72649952D01*
X157680663Y-72657002D01*
X157662034Y-72646842D01*
X157659368Y-72643017D01*
X157648660Y-72607001D01*
X157647144Y-72556566D01*
X157654241Y-72504626D01*
X157667212Y-72467822D01*
X157710415Y-72416938D01*
X157770554Y-72388014D01*
X157817538Y-72382286D01*
X157859918Y-72386657D01*
X157894512Y-72402475D01*
X157925237Y-72433797D01*
X157956010Y-72484678D01*
X157990748Y-72559176D01*
X157992712Y-72563714D01*
X158023713Y-72630821D01*
X158049138Y-72672232D01*
X158071986Y-72689981D01*
X158095255Y-72686107D01*
X158121944Y-72662643D01*
X158128086Y-72655627D01*
X158151900Y-72608630D01*
X158150897Y-72559933D01*
X158127549Y-72517522D01*
X158084325Y-72489384D01*
X158075840Y-72486769D01*
X158034692Y-72461308D01*
X158014872Y-72429001D01*
X157995230Y-72382286D01*
X158046050Y-72382286D01*
X158119918Y-72396496D01*
X158187673Y-72438675D01*
X158210339Y-72460624D01*
X158239431Y-72510517D01*
X158252600Y-72573967D01*
X158249032Y-72639744D01*
G36*
X158348711Y-71975886D02*
G01*
X158289387Y-71980139D01*
X158254428Y-71985025D01*
X158239180Y-71991795D01*
X158238985Y-72001702D01*
X158240805Y-72004914D01*
X158253985Y-72047644D01*
X158253215Y-72103227D01*
X158239667Y-72159737D01*
X158222139Y-72195082D01*
X158194139Y-72231321D01*
X158162451Y-72257813D01*
X158122187Y-72275999D01*
X158068457Y-72287322D01*
X157996374Y-72293222D01*
X157901049Y-72295143D01*
X157882763Y-72295177D01*
X157677354Y-72295200D01*
X157661420Y-72249491D01*
X157650580Y-72217027D01*
X157645532Y-72199215D01*
X157645486Y-72198691D01*
X157659172Y-72196937D01*
X157696924Y-72195444D01*
X157753776Y-72194326D01*
X157824766Y-72193697D01*
X157867927Y-72193600D01*
X157953027Y-72193398D01*
X158014019Y-72192358D01*
X158055823Y-72189831D01*
X158083358Y-72185164D01*
X158101544Y-72177707D01*
X158115302Y-72166811D01*
X158121927Y-72160007D01*
X158148625Y-72113272D01*
X158150625Y-72062272D01*
X158128045Y-72016001D01*
X158119893Y-72007444D01*
X158104564Y-71994893D01*
X158086382Y-71986188D01*
X158060091Y-71980631D01*
X158020438Y-71977526D01*
X157962168Y-71976176D01*
X157881827Y-71975886D01*
X157677354Y-71975886D01*
X157661420Y-71930177D01*
X157650580Y-71897713D01*
X157645532Y-71879901D01*
X157645486Y-71879377D01*
X157659377Y-71878037D01*
X157698561Y-71876828D01*
X157759300Y-71875801D01*
X157837859Y-71875002D01*
X157930502Y-71874481D01*
X158033491Y-71874286D01*
X158430658Y-71874286D01*
X158450556Y-71921457D01*
X158470453Y-71968629D01*
X158348711Y-71975886D01*
X158348711Y-71975886D01*
G37*
X158348711Y-71975886D02*
X158289387Y-71980139D01*
X158254428Y-71985025D01*
X158239180Y-71991795D01*
X158238985Y-72001702D01*
X158240805Y-72004914D01*
X158253985Y-72047644D01*
X158253215Y-72103227D01*
X158239667Y-72159737D01*
X158222139Y-72195082D01*
X158194139Y-72231321D01*
X158162451Y-72257813D01*
X158122187Y-72275999D01*
X158068457Y-72287322D01*
X157996374Y-72293222D01*
X157901049Y-72295143D01*
X157882763Y-72295177D01*
X157677354Y-72295200D01*
X157661420Y-72249491D01*
X157650580Y-72217027D01*
X157645532Y-72199215D01*
X157645486Y-72198691D01*
X157659172Y-72196937D01*
X157696924Y-72195444D01*
X157753776Y-72194326D01*
X157824766Y-72193697D01*
X157867927Y-72193600D01*
X157953027Y-72193398D01*
X158014019Y-72192358D01*
X158055823Y-72189831D01*
X158083358Y-72185164D01*
X158101544Y-72177707D01*
X158115302Y-72166811D01*
X158121927Y-72160007D01*
X158148625Y-72113272D01*
X158150625Y-72062272D01*
X158128045Y-72016001D01*
X158119893Y-72007444D01*
X158104564Y-71994893D01*
X158086382Y-71986188D01*
X158060091Y-71980631D01*
X158020438Y-71977526D01*
X157962168Y-71976176D01*
X157881827Y-71975886D01*
X157677354Y-71975886D01*
X157661420Y-71930177D01*
X157650580Y-71897713D01*
X157645532Y-71879901D01*
X157645486Y-71879377D01*
X157659377Y-71878037D01*
X157698561Y-71876828D01*
X157759300Y-71875801D01*
X157837859Y-71875002D01*
X157930502Y-71874481D01*
X158033491Y-71874286D01*
X158430658Y-71874286D01*
X158450556Y-71921457D01*
X158470453Y-71968629D01*
X158348711Y-71975886D01*
G36*
X158268761Y-70768303D02*
G01*
X158230265Y-70825527D01*
X158174665Y-70869749D01*
X158103914Y-70896167D01*
X158051838Y-70901510D01*
X158030107Y-70900903D01*
X158013469Y-70895822D01*
X157998563Y-70881855D01*
X157982027Y-70854589D01*
X157960502Y-70809612D01*
X157930626Y-70742511D01*
X157930476Y-70742171D01*
X157902187Y-70680407D01*
X157877067Y-70629759D01*
X157857821Y-70595404D01*
X157847152Y-70582518D01*
X157847066Y-70582514D01*
X157823834Y-70593872D01*
X157798226Y-70620431D01*
X157779779Y-70650923D01*
X157776114Y-70666370D01*
X157788788Y-70708515D01*
X157820529Y-70744808D01*
X157855428Y-70762517D01*
X157881155Y-70779552D01*
X157910454Y-70812922D01*
X157935765Y-70852149D01*
X157949529Y-70886756D01*
X157950286Y-70893993D01*
X157937840Y-70902139D01*
X157906028Y-70902630D01*
X157863134Y-70896643D01*
X157817442Y-70885357D01*
X157777239Y-70869950D01*
X157775678Y-70869171D01*
X157710938Y-70822804D01*
X157666903Y-70762711D01*
X157645289Y-70694465D01*
X157647815Y-70623638D01*
X157676196Y-70555804D01*
X157678192Y-70552788D01*
X157726552Y-70499427D01*
X157789648Y-70464340D01*
X157872613Y-70444922D01*
X157895922Y-70442316D01*
X158005945Y-70437701D01*
X158057252Y-70443233D01*
X158057252Y-70582514D01*
X158025247Y-70584324D01*
X158015907Y-70594222D01*
X158022895Y-70618898D01*
X158039413Y-70657795D01*
X158060119Y-70701275D01*
X158060667Y-70702356D01*
X158080051Y-70739209D01*
X158092987Y-70754000D01*
X158106549Y-70750353D01*
X158124368Y-70734995D01*
X158150155Y-70695923D01*
X158152050Y-70653846D01*
X158133283Y-70616103D01*
X158097085Y-70590034D01*
X158057252Y-70582514D01*
X158057252Y-70443233D01*
X158093973Y-70447194D01*
X158163788Y-70471550D01*
X158212698Y-70505456D01*
X158262122Y-70566653D01*
X158286641Y-70634063D01*
X158288203Y-70702880D01*
X158268761Y-70768303D01*
X158268761Y-70768303D01*
G37*
X158268761Y-70768303D02*
X158230265Y-70825527D01*
X158174665Y-70869749D01*
X158103914Y-70896167D01*
X158051838Y-70901510D01*
X158030107Y-70900903D01*
X158013469Y-70895822D01*
X157998563Y-70881855D01*
X157982027Y-70854589D01*
X157960502Y-70809612D01*
X157930626Y-70742511D01*
X157930476Y-70742171D01*
X157902187Y-70680407D01*
X157877067Y-70629759D01*
X157857821Y-70595404D01*
X157847152Y-70582518D01*
X157847066Y-70582514D01*
X157823834Y-70593872D01*
X157798226Y-70620431D01*
X157779779Y-70650923D01*
X157776114Y-70666370D01*
X157788788Y-70708515D01*
X157820529Y-70744808D01*
X157855428Y-70762517D01*
X157881155Y-70779552D01*
X157910454Y-70812922D01*
X157935765Y-70852149D01*
X157949529Y-70886756D01*
X157950286Y-70893993D01*
X157937840Y-70902139D01*
X157906028Y-70902630D01*
X157863134Y-70896643D01*
X157817442Y-70885357D01*
X157777239Y-70869950D01*
X157775678Y-70869171D01*
X157710938Y-70822804D01*
X157666903Y-70762711D01*
X157645289Y-70694465D01*
X157647815Y-70623638D01*
X157676196Y-70555804D01*
X157678192Y-70552788D01*
X157726552Y-70499427D01*
X157789648Y-70464340D01*
X157872613Y-70444922D01*
X157895922Y-70442316D01*
X158005945Y-70437701D01*
X158057252Y-70443233D01*
X158057252Y-70582514D01*
X158025247Y-70584324D01*
X158015907Y-70594222D01*
X158022895Y-70618898D01*
X158039413Y-70657795D01*
X158060119Y-70701275D01*
X158060667Y-70702356D01*
X158080051Y-70739209D01*
X158092987Y-70754000D01*
X158106549Y-70750353D01*
X158124368Y-70734995D01*
X158150155Y-70695923D01*
X158152050Y-70653846D01*
X158133283Y-70616103D01*
X158097085Y-70590034D01*
X158057252Y-70582514D01*
X158057252Y-70443233D01*
X158093973Y-70447194D01*
X158163788Y-70471550D01*
X158212698Y-70505456D01*
X158262122Y-70566653D01*
X158286641Y-70634063D01*
X158288203Y-70702880D01*
X158268761Y-70768303D01*
G36*
X158278038Y-69641115D02*
G01*
X158242267Y-69709145D01*
X158184699Y-69759351D01*
X158147688Y-69777185D01*
X158092118Y-69791063D01*
X158021904Y-69798167D01*
X157945273Y-69798840D01*
X157870448Y-69793427D01*
X157805658Y-69782270D01*
X157759127Y-69765714D01*
X157751113Y-69760626D01*
X157691293Y-69700355D01*
X157655465Y-69628769D01*
X157644980Y-69551092D01*
X157661190Y-69472548D01*
X157670908Y-69450689D01*
X157700857Y-69408122D01*
X157740567Y-69370763D01*
X157745603Y-69367232D01*
X157769876Y-69352881D01*
X157795822Y-69343394D01*
X157829978Y-69337790D01*
X157878881Y-69335086D01*
X157949065Y-69334299D01*
X157964800Y-69334286D01*
X157969808Y-69334322D01*
X157969808Y-69479429D01*
X157903570Y-69480273D01*
X157859614Y-69483596D01*
X157831221Y-69490583D01*
X157811675Y-69502416D01*
X157805143Y-69508457D01*
X157780320Y-69543186D01*
X157781452Y-69576903D01*
X157802984Y-69610995D01*
X157825971Y-69631329D01*
X157859522Y-69643371D01*
X157912431Y-69650134D01*
X157918601Y-69650598D01*
X158014487Y-69651752D01*
X158085701Y-69639688D01*
X158131806Y-69614570D01*
X158152365Y-69576560D01*
X158153486Y-69562992D01*
X158147848Y-69527364D01*
X158128314Y-69502994D01*
X158090958Y-69488093D01*
X158031850Y-69480875D01*
X157969808Y-69479429D01*
X157969808Y-69334322D01*
X158039587Y-69334826D01*
X158091841Y-69337096D01*
X158128051Y-69342068D01*
X158154701Y-69350713D01*
X158178278Y-69364005D01*
X158182662Y-69366943D01*
X158241751Y-69416313D01*
X158276053Y-69470109D01*
X158289669Y-69535602D01*
X158290335Y-69557842D01*
X158278038Y-69641115D01*
X158278038Y-69641115D01*
G37*
X158278038Y-69641115D02*
X158242267Y-69709145D01*
X158184699Y-69759351D01*
X158147688Y-69777185D01*
X158092118Y-69791063D01*
X158021904Y-69798167D01*
X157945273Y-69798840D01*
X157870448Y-69793427D01*
X157805658Y-69782270D01*
X157759127Y-69765714D01*
X157751113Y-69760626D01*
X157691293Y-69700355D01*
X157655465Y-69628769D01*
X157644980Y-69551092D01*
X157661190Y-69472548D01*
X157670908Y-69450689D01*
X157700857Y-69408122D01*
X157740567Y-69370763D01*
X157745603Y-69367232D01*
X157769876Y-69352881D01*
X157795822Y-69343394D01*
X157829978Y-69337790D01*
X157878881Y-69335086D01*
X157949065Y-69334299D01*
X157964800Y-69334286D01*
X157969808Y-69334322D01*
X157969808Y-69479429D01*
X157903570Y-69480273D01*
X157859614Y-69483596D01*
X157831221Y-69490583D01*
X157811675Y-69502416D01*
X157805143Y-69508457D01*
X157780320Y-69543186D01*
X157781452Y-69576903D01*
X157802984Y-69610995D01*
X157825971Y-69631329D01*
X157859522Y-69643371D01*
X157912431Y-69650134D01*
X157918601Y-69650598D01*
X158014487Y-69651752D01*
X158085701Y-69639688D01*
X158131806Y-69614570D01*
X158152365Y-69576560D01*
X158153486Y-69562992D01*
X158147848Y-69527364D01*
X158128314Y-69502994D01*
X158090958Y-69488093D01*
X158031850Y-69480875D01*
X157969808Y-69479429D01*
X157969808Y-69334322D01*
X158039587Y-69334826D01*
X158091841Y-69337096D01*
X158128051Y-69342068D01*
X158154701Y-69350713D01*
X158178278Y-69364005D01*
X158182662Y-69366943D01*
X158241751Y-69416313D01*
X158276053Y-69470109D01*
X158289669Y-69535602D01*
X158290335Y-69557842D01*
X158278038Y-69641115D01*
G36*
X158272220Y-71316093D02*
G01*
X158245277Y-71362672D01*
X158218534Y-71395057D01*
X158190516Y-71418742D01*
X158156252Y-71435059D01*
X158110773Y-71445339D01*
X158049108Y-71450914D01*
X157966289Y-71453116D01*
X157906754Y-71453371D01*
X157687609Y-71453371D01*
X157659956Y-71391686D01*
X157632303Y-71330000D01*
X157872330Y-71322743D01*
X157961972Y-71319744D01*
X158027038Y-71316598D01*
X158071974Y-71312701D01*
X158101230Y-71307447D01*
X158119252Y-71300231D01*
X158130489Y-71290450D01*
X158132921Y-71287312D01*
X158151917Y-71239761D01*
X158144400Y-71191697D01*
X158124457Y-71163086D01*
X158110325Y-71151447D01*
X158091780Y-71143391D01*
X158063666Y-71138271D01*
X158020827Y-71135441D01*
X157958105Y-71134256D01*
X157892739Y-71134057D01*
X157810732Y-71134018D01*
X157752684Y-71132614D01*
X157713535Y-71127914D01*
X157688220Y-71117987D01*
X157671677Y-71100903D01*
X157658844Y-71074732D01*
X157645509Y-71039775D01*
X157630993Y-71001596D01*
X157888611Y-71006141D01*
X157981481Y-71007971D01*
X158050111Y-71010112D01*
X158099289Y-71013181D01*
X158133802Y-71017794D01*
X158158438Y-71024568D01*
X158177984Y-71034119D01*
X158195230Y-71045634D01*
X158250320Y-71101190D01*
X158282178Y-71168980D01*
X158289809Y-71242713D01*
X158272220Y-71316093D01*
X158272220Y-71316093D01*
G37*
X158272220Y-71316093D02*
X158245277Y-71362672D01*
X158218534Y-71395057D01*
X158190516Y-71418742D01*
X158156252Y-71435059D01*
X158110773Y-71445339D01*
X158049108Y-71450914D01*
X157966289Y-71453116D01*
X157906754Y-71453371D01*
X157687609Y-71453371D01*
X157659956Y-71391686D01*
X157632303Y-71330000D01*
X157872330Y-71322743D01*
X157961972Y-71319744D01*
X158027038Y-71316598D01*
X158071974Y-71312701D01*
X158101230Y-71307447D01*
X158119252Y-71300231D01*
X158130489Y-71290450D01*
X158132921Y-71287312D01*
X158151917Y-71239761D01*
X158144400Y-71191697D01*
X158124457Y-71163086D01*
X158110325Y-71151447D01*
X158091780Y-71143391D01*
X158063666Y-71138271D01*
X158020827Y-71135441D01*
X157958105Y-71134256D01*
X157892739Y-71134057D01*
X157810732Y-71134018D01*
X157752684Y-71132614D01*
X157713535Y-71127914D01*
X157688220Y-71117987D01*
X157671677Y-71100903D01*
X157658844Y-71074732D01*
X157645509Y-71039775D01*
X157630993Y-71001596D01*
X157888611Y-71006141D01*
X157981481Y-71007971D01*
X158050111Y-71010112D01*
X158099289Y-71013181D01*
X158133802Y-71017794D01*
X158158438Y-71024568D01*
X158177984Y-71034119D01*
X158195230Y-71045634D01*
X158250320Y-71101190D01*
X158282178Y-71168980D01*
X158289809Y-71242713D01*
X158272220Y-71316093D01*
G36*
X158280082Y-70199744D02*
G01*
X158252432Y-70255201D01*
X158201520Y-70304148D01*
X158182662Y-70317629D01*
X158157985Y-70332314D01*
X158131184Y-70341842D01*
X158095413Y-70347293D01*
X158043831Y-70349747D01*
X157975733Y-70350286D01*
X157882412Y-70347852D01*
X157812343Y-70339394D01*
X157760069Y-70323174D01*
X157720131Y-70297454D01*
X157687071Y-70260497D01*
X157685114Y-70257782D01*
X157665092Y-70221360D01*
X157655185Y-70177502D01*
X157652743Y-70121724D01*
X157652743Y-70031048D01*
X157564717Y-70031010D01*
X157515692Y-70030166D01*
X157486935Y-70025024D01*
X157469689Y-70011587D01*
X157455192Y-69985858D01*
X157452231Y-69979679D01*
X157438352Y-69950764D01*
X157429586Y-69928376D01*
X157428829Y-69911729D01*
X157438977Y-69900036D01*
X157462927Y-69892510D01*
X157503574Y-69888366D01*
X157563814Y-69886815D01*
X157646545Y-69887071D01*
X157754661Y-69888349D01*
X157787000Y-69888748D01*
X157898476Y-69890185D01*
X157971397Y-69891472D01*
X157971397Y-70030971D01*
X157909501Y-70031755D01*
X157869003Y-70035240D01*
X157842292Y-70043124D01*
X157821756Y-70057105D01*
X157811740Y-70066597D01*
X157782433Y-70105404D01*
X157780048Y-70139763D01*
X157804250Y-70175216D01*
X157805143Y-70176114D01*
X157823847Y-70190539D01*
X157849268Y-70199313D01*
X157888416Y-70203739D01*
X157948303Y-70205118D01*
X157961570Y-70205143D01*
X158044099Y-70201812D01*
X158101309Y-70190969D01*
X158136234Y-70171340D01*
X158151906Y-70141650D01*
X158153486Y-70124491D01*
X158146074Y-70083766D01*
X158121670Y-70055832D01*
X158077020Y-70039017D01*
X158008870Y-70031650D01*
X157971397Y-70030971D01*
X157971397Y-69891472D01*
X157984755Y-69891708D01*
X158049667Y-69893677D01*
X158097042Y-69896450D01*
X158130710Y-69900388D01*
X158154502Y-69905849D01*
X158172247Y-69913192D01*
X158187776Y-69922777D01*
X158193619Y-69926887D01*
X158248815Y-69981405D01*
X158280110Y-70050336D01*
X158288835Y-70130072D01*
X158280082Y-70199744D01*
X158280082Y-70199744D01*
G37*
X158280082Y-70199744D02*
X158252432Y-70255201D01*
X158201520Y-70304148D01*
X158182662Y-70317629D01*
X158157985Y-70332314D01*
X158131184Y-70341842D01*
X158095413Y-70347293D01*
X158043831Y-70349747D01*
X157975733Y-70350286D01*
X157882412Y-70347852D01*
X157812343Y-70339394D01*
X157760069Y-70323174D01*
X157720131Y-70297454D01*
X157687071Y-70260497D01*
X157685114Y-70257782D01*
X157665092Y-70221360D01*
X157655185Y-70177502D01*
X157652743Y-70121724D01*
X157652743Y-70031048D01*
X157564717Y-70031010D01*
X157515692Y-70030166D01*
X157486935Y-70025024D01*
X157469689Y-70011587D01*
X157455192Y-69985858D01*
X157452231Y-69979679D01*
X157438352Y-69950764D01*
X157429586Y-69928376D01*
X157428829Y-69911729D01*
X157438977Y-69900036D01*
X157462927Y-69892510D01*
X157503574Y-69888366D01*
X157563814Y-69886815D01*
X157646545Y-69887071D01*
X157754661Y-69888349D01*
X157787000Y-69888748D01*
X157898476Y-69890185D01*
X157971397Y-69891472D01*
X157971397Y-70030971D01*
X157909501Y-70031755D01*
X157869003Y-70035240D01*
X157842292Y-70043124D01*
X157821756Y-70057105D01*
X157811740Y-70066597D01*
X157782433Y-70105404D01*
X157780048Y-70139763D01*
X157804250Y-70175216D01*
X157805143Y-70176114D01*
X157823847Y-70190539D01*
X157849268Y-70199313D01*
X157888416Y-70203739D01*
X157948303Y-70205118D01*
X157961570Y-70205143D01*
X158044099Y-70201812D01*
X158101309Y-70190969D01*
X158136234Y-70171340D01*
X158151906Y-70141650D01*
X158153486Y-70124491D01*
X158146074Y-70083766D01*
X158121670Y-70055832D01*
X158077020Y-70039017D01*
X158008870Y-70031650D01*
X157971397Y-70030971D01*
X157971397Y-69891472D01*
X157984755Y-69891708D01*
X158049667Y-69893677D01*
X158097042Y-69896450D01*
X158130710Y-69900388D01*
X158154502Y-69905849D01*
X158172247Y-69913192D01*
X158187776Y-69922777D01*
X158193619Y-69926887D01*
X158248815Y-69981405D01*
X158280110Y-70050336D01*
X158288835Y-70130072D01*
X158280082Y-70199744D01*
D12*
X157315000Y-87280000D02*
X157315000Y-69320000D01*
X141795000Y-87280000D02*
X157315000Y-87280000D01*
X141795000Y-87280000D02*
X141795000Y-69320000D01*
X157315000Y-69320000D02*
X141795000Y-69320000D01*
X157500000Y-83400000D02*
X158000000Y-83900000D01*
X158000000Y-83900000D02*
X158000000Y-82900000D01*
X158000000Y-82900000D02*
X157500000Y-83400000D01*
X160380000Y-93180000D02*
X162620000Y-93180000D01*
X160380000Y-100420000D02*
X162620000Y-100420000D01*
X162620000Y-100420000D02*
X162620000Y-93180000D01*
X160380000Y-100420000D02*
X160380000Y-93180000D01*
D10*
X139323809Y-102352380D02*
X139323809Y-101352380D01*
X140371428Y-102257142D02*
X140323809Y-102304761D01*
X140180952Y-102352380D01*
X140085714Y-102352380D01*
X139942857Y-102304761D01*
X139847619Y-102209523D01*
X139800000Y-102114285D01*
X139752380Y-101923809D01*
X139752380Y-101780952D01*
X139800000Y-101590476D01*
X139847619Y-101495238D01*
X139942857Y-101400000D01*
X140085714Y-101352380D01*
X140180952Y-101352380D01*
X140323809Y-101400000D01*
X140371428Y-101447619D01*
X141323809Y-102352380D02*
X140752380Y-102352380D01*
X141038095Y-102352380D02*
X141038095Y-101352380D01*
X140942857Y-101495238D01*
X140847619Y-101590476D01*
X140752380Y-101638095D01*
X153385714Y-101766666D02*
X153861904Y-101766666D01*
X153290476Y-102052380D02*
X153623809Y-101052380D01*
X153957142Y-102052380D01*
X154290476Y-102052380D02*
X154290476Y-101052380D01*
X154623809Y-101766666D01*
X154957142Y-101052380D01*
X154957142Y-102052380D01*
X155385714Y-101147619D02*
X155433333Y-101100000D01*
X155528571Y-101052380D01*
X155766666Y-101052380D01*
X155861904Y-101100000D01*
X155909523Y-101147619D01*
X155957142Y-101242857D01*
X155957142Y-101338095D01*
X155909523Y-101480952D01*
X155338095Y-102052380D01*
X155957142Y-102052380D01*
X156814285Y-101052380D02*
X156623809Y-101052380D01*
X156528571Y-101100000D01*
X156480952Y-101147619D01*
X156385714Y-101290476D01*
X156338095Y-101480952D01*
X156338095Y-101861904D01*
X156385714Y-101957142D01*
X156433333Y-102004761D01*
X156528571Y-102052380D01*
X156719047Y-102052380D01*
X156814285Y-102004761D01*
X156861904Y-101957142D01*
X156909523Y-101861904D01*
X156909523Y-101623809D01*
X156861904Y-101528571D01*
X156814285Y-101480952D01*
X156719047Y-101433333D01*
X156528571Y-101433333D01*
X156433333Y-101480952D01*
X156385714Y-101528571D01*
X156338095Y-101623809D01*
X157909523Y-101957142D02*
X157861904Y-102004761D01*
X157719047Y-102052380D01*
X157623809Y-102052380D01*
X157480952Y-102004761D01*
X157385714Y-101909523D01*
X157338095Y-101814285D01*
X157290476Y-101623809D01*
X157290476Y-101480952D01*
X157338095Y-101290476D01*
X157385714Y-101195238D01*
X157480952Y-101100000D01*
X157623809Y-101052380D01*
X157719047Y-101052380D01*
X157861904Y-101100000D01*
X157909523Y-101147619D01*
X158242857Y-101052380D02*
X158861904Y-101052380D01*
X158528571Y-101433333D01*
X158671428Y-101433333D01*
X158766666Y-101480952D01*
X158814285Y-101528571D01*
X158861904Y-101623809D01*
X158861904Y-101861904D01*
X158814285Y-101957142D01*
X158766666Y-102004761D01*
X158671428Y-102052380D01*
X158385714Y-102052380D01*
X158290476Y-102004761D01*
X158242857Y-101957142D01*
X159814285Y-102052380D02*
X159242857Y-102052380D01*
X159528571Y-102052380D02*
X159528571Y-101052380D01*
X159433333Y-101195238D01*
X159338095Y-101290476D01*
X159242857Y-101338095D01*
X159809523Y-86252380D02*
X159476190Y-85776190D01*
X159238095Y-86252380D02*
X159238095Y-85252380D01*
X159619047Y-85252380D01*
X159714285Y-85300000D01*
X159761904Y-85347619D01*
X159809523Y-85442857D01*
X159809523Y-85585714D01*
X159761904Y-85680952D01*
X159714285Y-85728571D01*
X159619047Y-85776190D01*
X159238095Y-85776190D01*
X160238095Y-86252380D02*
X160238095Y-85252380D01*
X160809523Y-86252380D01*
X160809523Y-85252380D01*
X161809523Y-86252380D02*
X161238095Y-86252380D01*
X161523809Y-86252380D02*
X161523809Y-85252380D01*
X161428571Y-85395238D01*
X161333333Y-85490476D01*
X161238095Y-85538095D01*
X159733333Y-87752380D02*
X159161904Y-87752380D01*
X159447619Y-87752380D02*
X159447619Y-86752380D01*
X159352380Y-86895238D01*
X159257142Y-86990476D01*
X159161904Y-87038095D01*
X160114285Y-86847619D02*
X160161904Y-86800000D01*
X160257142Y-86752380D01*
X160495238Y-86752380D01*
X160590476Y-86800000D01*
X160638095Y-86847619D01*
X160685714Y-86942857D01*
X160685714Y-87038095D01*
X160638095Y-87180952D01*
X160066666Y-87752380D01*
X160685714Y-87752380D01*
X161304761Y-86752380D02*
X161400000Y-86752380D01*
X161495238Y-86800000D01*
X161542857Y-86847619D01*
X161590476Y-86942857D01*
X161638095Y-87133333D01*
X161638095Y-87371428D01*
X161590476Y-87561904D01*
X161542857Y-87657142D01*
X161495238Y-87704761D01*
X161400000Y-87752380D01*
X161304761Y-87752380D01*
X161209523Y-87704761D01*
X161161904Y-87657142D01*
X161114285Y-87561904D01*
X161066666Y-87371428D01*
X161066666Y-87133333D01*
X161114285Y-86942857D01*
X161161904Y-86847619D01*
X161209523Y-86800000D01*
X161304761Y-86752380D01*
X159466666Y-77752380D02*
X159466666Y-78466666D01*
X159419047Y-78609523D01*
X159323809Y-78704761D01*
X159180952Y-78752380D01*
X159085714Y-78752380D01*
X160466666Y-78752380D02*
X159895238Y-78752380D01*
X160180952Y-78752380D02*
X160180952Y-77752380D01*
X160085714Y-77895238D01*
X159990476Y-77990476D01*
X159895238Y-78038095D01*
X158776190Y-80352380D02*
X158442857Y-79876190D01*
X158204761Y-80352380D02*
X158204761Y-79352380D01*
X158585714Y-79352380D01*
X158680952Y-79400000D01*
X158728571Y-79447619D01*
X158776190Y-79542857D01*
X158776190Y-79685714D01*
X158728571Y-79780952D01*
X158680952Y-79828571D01*
X158585714Y-79876190D01*
X158204761Y-79876190D01*
X159490476Y-79352380D02*
X159490476Y-80066666D01*
X159442857Y-80209523D01*
X159347619Y-80304761D01*
X159204761Y-80352380D01*
X159109523Y-80352380D01*
X160395238Y-79685714D02*
X160395238Y-80352380D01*
X160157142Y-79304761D02*
X159919047Y-80019047D01*
X160538095Y-80019047D01*
X161395238Y-79352380D02*
X160919047Y-79352380D01*
X160871428Y-79828571D01*
X160919047Y-79780952D01*
X161014285Y-79733333D01*
X161252380Y-79733333D01*
X161347619Y-79780952D01*
X161395238Y-79828571D01*
X161442857Y-79923809D01*
X161442857Y-80161904D01*
X161395238Y-80257142D01*
X161347619Y-80304761D01*
X161252380Y-80352380D01*
X161014285Y-80352380D01*
X160919047Y-80304761D01*
X160871428Y-80257142D01*
X161433333Y-91357142D02*
X161385714Y-91404761D01*
X161242857Y-91452380D01*
X161147619Y-91452380D01*
X161004761Y-91404761D01*
X160909523Y-91309523D01*
X160861904Y-91214285D01*
X160814285Y-91023809D01*
X160814285Y-90880952D01*
X160861904Y-90690476D01*
X160909523Y-90595238D01*
X161004761Y-90500000D01*
X161147619Y-90452380D01*
X161242857Y-90452380D01*
X161385714Y-90500000D01*
X161433333Y-90547619D01*
X162385714Y-91452380D02*
X161814285Y-91452380D01*
X162100000Y-91452380D02*
X162100000Y-90452380D01*
X162004761Y-90595238D01*
X161909523Y-90690476D01*
X161814285Y-90738095D01*
X159857142Y-91752380D02*
X159952380Y-91752380D01*
X160047619Y-91800000D01*
X160095238Y-91847619D01*
X160142857Y-91942857D01*
X160190476Y-92133333D01*
X160190476Y-92371428D01*
X160142857Y-92561904D01*
X160095238Y-92657142D01*
X160047619Y-92704761D01*
X159952380Y-92752380D01*
X159857142Y-92752380D01*
X159761904Y-92704761D01*
X159714285Y-92657142D01*
X159666666Y-92561904D01*
X159619047Y-92371428D01*
X159619047Y-92133333D01*
X159666666Y-91942857D01*
X159714285Y-91847619D01*
X159761904Y-91800000D01*
X159857142Y-91752380D01*
X160619047Y-92657142D02*
X160666666Y-92704761D01*
X160619047Y-92752380D01*
X160571428Y-92704761D01*
X160619047Y-92657142D01*
X160619047Y-92752380D01*
X161619047Y-92752380D02*
X161047619Y-92752380D01*
X161333333Y-92752380D02*
X161333333Y-91752380D01*
X161238095Y-91895238D01*
X161142857Y-91990476D01*
X161047619Y-92038095D01*
X162476190Y-92085714D02*
X162476190Y-92752380D01*
X162047619Y-92085714D02*
X162047619Y-92609523D01*
X162095238Y-92704761D01*
X162190476Y-92752380D01*
X162333333Y-92752380D01*
X162428571Y-92704761D01*
X162476190Y-92657142D01*
X163285714Y-92228571D02*
X162952380Y-92228571D01*
X162952380Y-92752380D02*
X162952380Y-91752380D01*
X163428571Y-91752380D01*
M02*
