M48
; DRILL file {KiCad 9.0.7} date 2026-02-20T16:36:17-0500
; FORMAT={-:-/ absolute / inch / decimal}
; #@! TF.CreationDate,2026-02-20T16:36:17-05:00
; #@! TF.GenerationSoftware,Kicad,Pcbnew,9.0.7
; #@! TF.FileFunction,Plated,1,2,PTH
FMAT,2
INCH
; #@! TA.AperFunction,Plated,PTH,ViaDrill
T1C0.0157
; #@! TA.AperFunction,Plated,PTH,ComponentDrill
T2C0.0280
; #@! TA.AperFunction,Plated,PTH,ComponentDrill
T3C0.0299
; #@! TA.AperFunction,Plated,PTH,ComponentDrill
T4C0.0300
; #@! TA.AperFunction,Plated,PTH,ComponentDrill
T5C0.0315
; #@! TA.AperFunction,Plated,PTH,ComponentDrill
T6C0.0354
; #@! TA.AperFunction,Plated,PTH,ComponentDrill
T7C0.0374
; #@! TA.AperFunction,Plated,PTH,ComponentDrill
T8C0.0394
; #@! TA.AperFunction,Plated,PTH,ComponentDrill
T9C0.0433
; #@! TA.AperFunction,Plated,PTH,ComponentDrill
T10C0.0512
; #@! TA.AperFunction,Plated,PTH,ComponentDrill
T11C0.0551
; #@! TA.AperFunction,Plated,PTH,ComponentDrill
T12C0.0650
%
G90
G05
T1
X7.3976Y-2.6496
X7.5551Y-2.5354
X7.8242Y-2.6837
X7.8543Y-2.7386
X7.8898Y-2.9784
X7.9252Y-3.0784
X7.9606Y-3.3784
X7.9961Y-3.4291
X8.248Y-3.4291
X8.2835Y-1.6575
X8.2874Y-3.3583
X8.3396Y-2.6784
X8.3396Y-2.9784
X8.3622Y-2.4961
X8.3829Y-2.374
X8.4567Y-2.2756
X8.4724Y-1.5118
X8.4764Y-1.6142
X8.5354Y-2.5591
X8.5394Y-2.4291
X8.5472Y-2.2717
T2
X8.999Y-3.892
X9.1998Y-3.955
T3
X6.5906Y-2.248
X6.5906Y-2.348
X6.5906Y-2.448
X6.5906Y-2.548
X6.6906Y-2.298
X6.6906Y-2.398
X6.6906Y-2.498
X6.6906Y-2.598
T4
X8.9713Y-2.9392
X8.9713Y-3.0392
X8.9713Y-3.1392
X8.9713Y-3.2392
X9.1213Y-2.93
X9.1213Y-3.0361
X9.1213Y-3.1422
X9.1213Y-3.2483
T5
X6.878Y-2.0866
X6.878Y-2.1866
X6.878Y-2.2866
X6.878Y-2.3866
X6.878Y-2.4866
X6.878Y-2.5866
X6.878Y-2.6866
X6.878Y-2.7866
X6.9913Y-2.0953
X6.9913Y-2.1953
X6.9913Y-2.2953
X6.9913Y-2.3953
X6.9913Y-2.4953
X6.9913Y-2.5953
X6.9913Y-2.6953
X6.9913Y-2.7953
X7.0Y-2.9173
X7.1969Y-2.9173
X7.2913Y-2.0953
X7.2913Y-2.1953
X7.2913Y-2.2953
X7.2913Y-2.3953
X7.2913Y-2.4953
X7.2913Y-2.5953
X7.2913Y-2.6953
X7.2913Y-2.7953
X7.8836Y-2.0415
X7.8836Y-2.1415
X7.8836Y-2.2415
X7.8836Y-2.3415
X7.8836Y-2.4667
X7.8836Y-2.5868
X7.8915Y-1.8898
X8.0883Y-1.8898
X8.1836Y-2.0415
X8.1836Y-2.1415
X8.1836Y-2.2415
X8.1836Y-2.3415
X8.1836Y-2.4667
X8.1836Y-2.5868
X8.8553Y-4.0534
X8.8553Y-4.2503
X8.9911Y-3.7523
X9.0429Y-3.3839
X9.188Y-3.7523
X9.3429Y-3.3839
X9.6779Y-3.4252
X9.7567Y-3.4252
T6
X7.6189Y-2.1784
X7.6189Y-2.2784
X7.6189Y-2.3784
X7.6189Y-2.4784
X7.6189Y-2.5784
X7.6189Y-2.6784
X7.6189Y-2.7784
X7.6189Y-2.8784
X7.6189Y-2.9784
X7.6189Y-3.0784
X7.6189Y-3.1784
X7.6189Y-3.2784
X7.6189Y-3.3784
X7.6189Y-3.4784
X7.6189Y-3.5784
X7.6189Y-3.6784
X7.6189Y-3.7784
X7.6189Y-3.8784
X7.7189Y-2.1784
X7.7189Y-2.2784
X7.7189Y-2.3784
X7.7189Y-2.4784
X7.7189Y-2.5784
X7.7189Y-2.6784
X7.7189Y-2.7784
X7.7189Y-2.8784
X7.7189Y-2.9784
X7.7189Y-3.0784
X7.7189Y-3.1784
X7.7189Y-3.2784
X7.7189Y-3.3784
X7.7189Y-3.4784
X7.7189Y-3.5784
X7.7189Y-3.6784
X7.7189Y-3.7784
X7.7189Y-3.8784
X8.6189Y-2.1784
X8.6189Y-2.2784
X8.6189Y-2.3784
X8.6189Y-2.4784
X8.6189Y-2.5784
X8.6189Y-2.6784
X8.6189Y-2.7784
X8.6189Y-2.8784
X8.6189Y-2.9784
X8.6189Y-3.0784
X8.6189Y-3.1784
X8.6189Y-3.2784
X8.6189Y-3.3784
X8.6189Y-3.4784
X8.6189Y-3.5784
X8.6189Y-3.6784
X8.6189Y-3.7784
X8.6189Y-3.8784
X8.7189Y-2.1784
X8.7189Y-2.2784
X8.7189Y-2.3784
X8.7189Y-2.4784
X8.7189Y-2.5784
X8.7189Y-2.6784
X8.7189Y-2.7784
X8.7189Y-2.8784
X8.7189Y-2.9784
X8.7189Y-3.0784
X8.7189Y-3.1784
X8.7189Y-3.2784
X8.7189Y-3.3784
X8.7189Y-3.4784
X8.7189Y-3.5784
X8.7189Y-3.6784
X8.7189Y-3.7784
X8.7189Y-3.8784
X9.4459Y-3.3957
X9.5378Y-3.6654
X9.5378Y-3.7638
X9.5378Y-3.8425
X9.5378Y-3.9409
X9.5459Y-3.3957
T7
X9.2953Y-4.2431
X9.3937Y-4.2431
X9.4921Y-4.2431
X9.5906Y-4.2431
T8
X6.9882Y-1.8701
X6.9927Y-1.5515
X7.0Y-3.374
X7.0Y-3.474
X7.0Y-3.574
X7.0Y-3.674
X7.0Y-3.774
X7.0Y-3.874
X7.0Y-3.974
X7.0Y-4.074
X7.0Y-4.174
X7.0Y-4.274
X7.0Y-4.374
X7.0Y-4.474
X7.0882Y-1.8701
X7.0927Y-1.5515
X7.1Y-3.374
X7.1Y-3.474
X7.1Y-3.574
X7.1Y-3.674
X7.1Y-3.774
X7.1Y-3.874
X7.1Y-3.974
X7.1Y-4.074
X7.1Y-4.174
X7.1Y-4.274
X7.1Y-4.374
X7.1Y-4.474
X7.1882Y-1.8701
X7.1927Y-1.5515
X7.2882Y-1.8701
X7.2927Y-1.5515
X7.3927Y-1.5515
X7.6992Y-4.4882
X7.6992Y-4.5882
X7.7992Y-4.4882
X7.7992Y-4.5882
X7.8992Y-4.4882
X7.8992Y-4.5882
X7.9992Y-4.4882
X7.9992Y-4.5882
X8.0541Y-1.5475
X8.0992Y-4.4882
X8.0992Y-4.5882
X8.1541Y-1.5475
X8.1992Y-4.4882
X8.1992Y-4.5882
X8.2541Y-1.5475
X8.2992Y-4.4882
X8.2992Y-4.5882
X8.3541Y-1.5475
X8.3992Y-4.4882
X8.3992Y-4.5882
X8.4992Y-4.4882
X8.4992Y-4.5882
X8.5992Y-4.4882
X8.5992Y-4.5882
X8.6992Y-4.4882
X8.6992Y-4.5882
X8.7992Y-4.4882
X8.7992Y-4.5882
X9.1604Y-2.3041
X9.1683Y-2.6516
X9.2604Y-2.3041
X9.3604Y-2.3041
X9.3652Y-2.6516
X9.6713Y-2.9892
X9.6713Y-3.0892
X9.6713Y-3.1892
T9
X9.0167Y-1.4941
X9.0167Y-1.6713
X9.0167Y-1.8527
X9.0167Y-2.0298
X9.2726Y-1.4941
X9.2726Y-1.6713
X9.2726Y-1.8527
X9.2726Y-2.0298
X9.686Y-1.8295
X9.686Y-1.9795
T11
X9.685Y-3.6425
X9.685Y-4.0425
T12
X9.6909Y-2.1302
X9.6909Y-2.2759
X9.6909Y-2.4531
X9.6909Y-2.5987
T10
G00X9.3496Y-3.8228
M15
G01X9.3496Y-3.7835
M16
G05
G00X9.4945Y-3.5445
M15
G01X9.5339Y-3.5445
M16
G05
G00X9.5339Y-4.0618
M15
G01X9.4945Y-4.0618
M16
G05
M30
