%TF.GenerationSoftware,KiCad,Pcbnew,9.0.6*%
%TF.CreationDate,2025-12-29T09:33:38-05:00*%
%TF.ProjectId,Receiver_Out,52656365-6976-4657-925f-4f75742e6b69,v3*%
%TF.SameCoordinates,Original*%
%TF.FileFunction,Copper,L1,Top*%
%TF.FilePolarity,Positive*%
%FSLAX46Y46*%
G04 Gerber Fmt 4.6, Leading zero omitted, Abs format (unit mm)*
G04 Created by KiCad (PCBNEW 9.0.6) date 2025-12-29 09:33:38*
%MOMM*%
%LPD*%
G01*
G04 APERTURE LIST*
G04 Aperture macros list*
%AMRoundRect*
0 Rectangle with rounded corners*
0 $1 Rounding radius*
0 $2 $3 $4 $5 $6 $7 $8 $9 X,Y pos of 4 corners*
0 Add a 4 corners polygon primitive as box body*
4,1,4,$2,$3,$4,$5,$6,$7,$8,$9,$2,$3,0*
0 Add four circle primitives for the rounded corners*
1,1,$1+$1,$2,$3*
1,1,$1+$1,$4,$5*
1,1,$1+$1,$6,$7*
1,1,$1+$1,$8,$9*
0 Add four rect primitives between the rounded corners*
20,1,$1+$1,$2,$3,$4,$5,0*
20,1,$1+$1,$4,$5,$6,$7,0*
20,1,$1+$1,$6,$7,$8,$9,0*
20,1,$1+$1,$8,$9,$2,$3,0*%
%AMFreePoly0*
4,1,14,0.334644,0.085355,0.385355,0.034644,0.400000,-0.000711,0.400000,-0.050000,0.385355,-0.085355,0.350000,-0.100000,-0.350000,-0.100000,-0.385355,-0.085355,-0.400000,-0.050000,-0.400000,0.050000,-0.385355,0.085355,-0.350000,0.100000,0.299289,0.100000,0.334644,0.085355,0.334644,0.085355,$1*%
%AMFreePoly1*
4,1,14,0.385355,0.085355,0.400000,0.050000,0.400000,0.000711,0.385355,-0.034644,0.334644,-0.085355,0.299289,-0.100000,-0.350000,-0.100000,-0.385355,-0.085355,-0.400000,-0.050000,-0.400000,0.050000,-0.385355,0.085355,-0.350000,0.100000,0.350000,0.100000,0.385355,0.085355,0.385355,0.085355,$1*%
%AMFreePoly2*
4,1,14,0.085355,0.385355,0.100000,0.350000,0.100000,-0.350000,0.085355,-0.385355,0.050000,-0.400000,-0.050000,-0.400000,-0.085355,-0.385355,-0.100000,-0.350000,-0.100000,0.299289,-0.085355,0.334644,-0.034644,0.385355,0.000711,0.400000,0.050000,0.400000,0.085355,0.385355,0.085355,0.385355,$1*%
%AMFreePoly3*
4,1,14,0.034644,0.385355,0.085355,0.334644,0.100000,0.299289,0.100000,-0.350000,0.085355,-0.385355,0.050000,-0.400000,-0.050000,-0.400000,-0.085355,-0.385355,-0.100000,-0.350000,-0.100000,0.350000,-0.085355,0.385355,-0.050000,0.400000,-0.000711,0.400000,0.034644,0.385355,0.034644,0.385355,$1*%
%AMFreePoly4*
4,1,14,0.385355,0.085355,0.400000,0.050000,0.400000,-0.050000,0.385355,-0.085355,0.350000,-0.100000,-0.299289,-0.100000,-0.334644,-0.085355,-0.385355,-0.034644,-0.400000,0.000711,-0.400000,0.050000,-0.385355,0.085355,-0.350000,0.100000,0.350000,0.100000,0.385355,0.085355,0.385355,0.085355,$1*%
%AMFreePoly5*
4,1,14,0.385355,0.085355,0.400000,0.050000,0.400000,-0.050000,0.385355,-0.085355,0.350000,-0.100000,-0.350000,-0.100000,-0.385355,-0.085355,-0.400000,-0.050000,-0.400000,-0.000711,-0.385355,0.034644,-0.334644,0.085355,-0.299289,0.100000,0.350000,0.100000,0.385355,0.085355,0.385355,0.085355,$1*%
%AMFreePoly6*
4,1,14,0.085355,0.385355,0.100000,0.350000,0.100000,-0.299289,0.085355,-0.334644,0.034644,-0.385355,-0.000711,-0.400000,-0.050000,-0.400000,-0.085355,-0.385355,-0.100000,-0.350000,-0.100000,0.350000,-0.085355,0.385355,-0.050000,0.400000,0.050000,0.400000,0.085355,0.385355,0.085355,0.385355,$1*%
%AMFreePoly7*
4,1,14,0.085355,0.385355,0.100000,0.350000,0.100000,-0.350000,0.085355,-0.385355,0.050000,-0.400000,0.000711,-0.400000,-0.034644,-0.385355,-0.085355,-0.334644,-0.100000,-0.299289,-0.100000,0.350000,-0.085355,0.385355,-0.050000,0.400000,0.050000,0.400000,0.085355,0.385355,0.085355,0.385355,$1*%
G04 Aperture macros list end*
%TA.AperFunction,ComponentPad*%
%ADD10RoundRect,0.250000X-0.650000X-1.550000X0.650000X-1.550000X0.650000X1.550000X-0.650000X1.550000X0*%
%TD*%
%TA.AperFunction,ComponentPad*%
%ADD11O,1.800000X3.600000*%
%TD*%
%TA.AperFunction,ComponentPad*%
%ADD12R,3.000000X3.000000*%
%TD*%
%TA.AperFunction,ComponentPad*%
%ADD13C,3.000000*%
%TD*%
%TA.AperFunction,ComponentPad*%
%ADD14C,2.475000*%
%TD*%
%TA.AperFunction,SMDPad,CuDef*%
%ADD15RoundRect,0.250000X-0.250000X-0.475000X0.250000X-0.475000X0.250000X0.475000X-0.250000X0.475000X0*%
%TD*%
%TA.AperFunction,ComponentPad*%
%ADD16R,1.700000X1.700000*%
%TD*%
%TA.AperFunction,ComponentPad*%
%ADD17O,1.700000X1.700000*%
%TD*%
%TA.AperFunction,SMDPad,CuDef*%
%ADD18RoundRect,0.250000X0.250000X0.475000X-0.250000X0.475000X-0.250000X-0.475000X0.250000X-0.475000X0*%
%TD*%
%TA.AperFunction,SMDPad,CuDef*%
%ADD19RoundRect,0.200000X-0.200000X-0.275000X0.200000X-0.275000X0.200000X0.275000X-0.200000X0.275000X0*%
%TD*%
%TA.AperFunction,SMDPad,CuDef*%
%ADD20RoundRect,0.218750X-0.218750X-0.256250X0.218750X-0.256250X0.218750X0.256250X-0.218750X0.256250X0*%
%TD*%
%TA.AperFunction,ComponentPad*%
%ADD21R,1.500000X1.500000*%
%TD*%
%TA.AperFunction,ComponentPad*%
%ADD22C,1.500000*%
%TD*%
%TA.AperFunction,SMDPad,CuDef*%
%ADD23RoundRect,0.200000X0.200000X0.275000X-0.200000X0.275000X-0.200000X-0.275000X0.200000X-0.275000X0*%
%TD*%
%TA.AperFunction,SMDPad,CuDef*%
%ADD24RoundRect,0.150000X-0.150000X0.825000X-0.150000X-0.825000X0.150000X-0.825000X0.150000X0.825000X0*%
%TD*%
%TA.AperFunction,SMDPad,CuDef*%
%ADD25RoundRect,0.140000X-0.170000X0.140000X-0.170000X-0.140000X0.170000X-0.140000X0.170000X0.140000X0*%
%TD*%
%TA.AperFunction,SMDPad,CuDef*%
%ADD26RoundRect,0.225000X-0.225000X-0.375000X0.225000X-0.375000X0.225000X0.375000X-0.225000X0.375000X0*%
%TD*%
%TA.AperFunction,SMDPad,CuDef*%
%ADD27RoundRect,0.375000X-0.625000X-0.375000X0.625000X-0.375000X0.625000X0.375000X-0.625000X0.375000X0*%
%TD*%
%TA.AperFunction,SMDPad,CuDef*%
%ADD28RoundRect,0.500000X-0.500000X-1.400000X0.500000X-1.400000X0.500000X1.400000X-0.500000X1.400000X0*%
%TD*%
%TA.AperFunction,SMDPad,CuDef*%
%ADD29RoundRect,0.100000X-0.100000X0.637500X-0.100000X-0.637500X0.100000X-0.637500X0.100000X0.637500X0*%
%TD*%
%TA.AperFunction,SMDPad,CuDef*%
%ADD30RoundRect,0.218750X-0.256250X0.218750X-0.256250X-0.218750X0.256250X-0.218750X0.256250X0.218750X0*%
%TD*%
%TA.AperFunction,SMDPad,CuDef*%
%ADD31R,1.550000X1.300000*%
%TD*%
%TA.AperFunction,SMDPad,CuDef*%
%ADD32FreePoly0,180.000000*%
%TD*%
%TA.AperFunction,SMDPad,CuDef*%
%ADD33RoundRect,0.050000X0.350000X0.050000X-0.350000X0.050000X-0.350000X-0.050000X0.350000X-0.050000X0*%
%TD*%
%TA.AperFunction,SMDPad,CuDef*%
%ADD34FreePoly1,180.000000*%
%TD*%
%TA.AperFunction,SMDPad,CuDef*%
%ADD35FreePoly2,180.000000*%
%TD*%
%TA.AperFunction,SMDPad,CuDef*%
%ADD36RoundRect,0.050000X0.050000X0.350000X-0.050000X0.350000X-0.050000X-0.350000X0.050000X-0.350000X0*%
%TD*%
%TA.AperFunction,SMDPad,CuDef*%
%ADD37FreePoly3,180.000000*%
%TD*%
%TA.AperFunction,SMDPad,CuDef*%
%ADD38FreePoly4,180.000000*%
%TD*%
%TA.AperFunction,SMDPad,CuDef*%
%ADD39FreePoly5,180.000000*%
%TD*%
%TA.AperFunction,SMDPad,CuDef*%
%ADD40FreePoly6,180.000000*%
%TD*%
%TA.AperFunction,SMDPad,CuDef*%
%ADD41FreePoly7,180.000000*%
%TD*%
%TA.AperFunction,HeatsinkPad*%
%ADD42R,1.700000X1.700000*%
%TD*%
%TA.AperFunction,SMDPad,CuDef*%
%ADD43RoundRect,0.200000X0.275000X-0.200000X0.275000X0.200000X-0.275000X0.200000X-0.275000X-0.200000X0*%
%TD*%
%TA.AperFunction,ConnectorPad*%
%ADD44C,0.787400*%
%TD*%
%TA.AperFunction,ViaPad*%
%ADD45C,1.000000*%
%TD*%
%TA.AperFunction,ViaPad*%
%ADD46C,0.400000*%
%TD*%
%TA.AperFunction,Conductor*%
%ADD47C,0.200000*%
%TD*%
%TA.AperFunction,Conductor*%
%ADD48C,0.400000*%
%TD*%
%TA.AperFunction,Conductor*%
%ADD49C,0.500000*%
%TD*%
%TA.AperFunction,Conductor*%
%ADD50C,0.350000*%
%TD*%
%TA.AperFunction,Conductor*%
%ADD51C,1.000000*%
%TD*%
%TA.AperFunction,Conductor*%
%ADD52C,0.750000*%
%TD*%
%TA.AperFunction,Conductor*%
%ADD53C,2.999999*%
%TD*%
%TA.AperFunction,Conductor*%
%ADD54C,3.000000*%
%TD*%
G04 APERTURE END LIST*
D10*
%TO.P,J2,1,Pin_1*%
%TO.N,GND*%
X-114817200Y3500D03*
D11*
%TO.P,J2,2,Pin_2*%
%TO.N,/Outputs/DOUT2*%
X-111317200Y3500D03*
%TO.P,J2,3,Pin_3*%
%TO.N,/Outputs/VOUT2*%
X-107817200Y3500D03*
%TD*%
D10*
%TO.P,J4,1,Pin_1*%
%TO.N,GND*%
X-99817200Y3500D03*
D11*
%TO.P,J4,2,Pin_2*%
%TO.N,/Outputs/DOUT4*%
X-96317200Y3500D03*
%TO.P,J4,3,Pin_3*%
%TO.N,/Outputs/VOUT4*%
X-92817200Y3500D03*
%TD*%
D10*
%TO.P,J3,1,Pin_1*%
%TO.N,GND*%
X-99817200Y13003500D03*
D11*
%TO.P,J3,2,Pin_2*%
%TO.N,/Outputs/DOUT3*%
X-96317200Y13003500D03*
%TO.P,J3,3,Pin_3*%
%TO.N,/Outputs/VOUT3*%
X-92817200Y13003500D03*
%TD*%
D10*
%TO.P,J1,1,Pin_1*%
%TO.N,GND*%
X-114817200Y13003500D03*
D11*
%TO.P,J1,2,Pin_2*%
%TO.N,/Outputs/DOUT1*%
X-111317200Y13003500D03*
%TO.P,J1,3,Pin_3*%
%TO.N,/Outputs/VOUT1*%
X-107817200Y13003500D03*
%TD*%
D12*
%TO.P,TB1,1,P1*%
%TO.N,VIN1*%
X-83952400Y-3012260D03*
D13*
%TO.P,TB1,2,P2*%
%TO.N,GND*%
X-83952400Y5237660D03*
%TD*%
D14*
%TO.P,F2,1_1,1*%
%TO.N,VIN1*%
X-106220200Y-20650100D03*
%TO.P,F2,1_2,1*%
X-106220200Y-16950100D03*
%TO.P,F2,2_1,2*%
%TO.N,/Outputs/VOUT2*%
X-106220200Y-12450100D03*
%TO.P,F2,2_2,2*%
X-106220200Y-8750100D03*
%TD*%
%TO.P,F4,1_1,1*%
%TO.N,VIN1*%
X-95044200Y-20650100D03*
%TO.P,F4,1_2,1*%
X-95044200Y-16950100D03*
%TO.P,F4,2_1,2*%
%TO.N,/Outputs/VOUT4*%
X-95044200Y-12450100D03*
%TO.P,F4,2_2,2*%
X-95044200Y-8750100D03*
%TD*%
%TO.P,F1,1_1,1*%
%TO.N,VIN1*%
X-111808200Y-20635100D03*
%TO.P,F1,1_2,1*%
X-111808200Y-16935100D03*
%TO.P,F1,2_1,2*%
%TO.N,/Outputs/VOUT1*%
X-111808200Y-12435100D03*
%TO.P,F1,2_2,2*%
X-111808200Y-8735100D03*
%TD*%
%TO.P,F3,1_1,1*%
%TO.N,VIN1*%
X-100632200Y-20650100D03*
%TO.P,F3,1_2,1*%
X-100632200Y-16950100D03*
%TO.P,F3,2_1,2*%
%TO.N,/Outputs/VOUT3*%
X-100632200Y-12450100D03*
%TO.P,F3,2_2,2*%
X-100632200Y-8750100D03*
%TD*%
D15*
%TO.P,C1,1*%
%TO.N,/PWR*%
X-127366200Y7785700D03*
%TO.P,C1,2*%
%TO.N,GND*%
X-125466200Y7785700D03*
%TD*%
D16*
%TO.P,J6,1,Pin_1*%
%TO.N,/PWR*%
X-125966200Y-3764300D03*
D17*
%TO.P,J6,2,Pin_2*%
%TO.N,/VIN*%
X-125966200Y-1224300D03*
%TO.P,J6,3,Pin_3*%
%TO.N,+5V*%
X-125966200Y1315700D03*
%TD*%
D18*
%TO.P,C2,1*%
%TO.N,+5V*%
X-124216200Y17535700D03*
%TO.P,C2,2*%
%TO.N,GND*%
X-126116200Y17535700D03*
%TD*%
D19*
%TO.P,R1,1*%
%TO.N,GND*%
X-85016200Y12735700D03*
%TO.P,R1,2*%
%TO.N,Net-(D2-K)*%
X-83366200Y12735700D03*
%TD*%
D20*
%TO.P,D3,1,K*%
%TO.N,Net-(D3-K)*%
X-80720700Y16985700D03*
%TO.P,D3,2,A*%
%TO.N,+5V*%
X-79145700Y16985700D03*
%TD*%
D19*
%TO.P,R2,1*%
%TO.N,GND*%
X-85041200Y16985700D03*
%TO.P,R2,2*%
%TO.N,Net-(D3-K)*%
X-83391200Y16985700D03*
%TD*%
D20*
%TO.P,D2,1,K*%
%TO.N,Net-(D2-K)*%
X-80695700Y12780700D03*
%TO.P,D2,2,A*%
%TO.N,VIN1*%
X-79120700Y12780700D03*
%TD*%
D21*
%TO.P,J7,1*%
%TO.N,/Diff In/Serial1_P*%
X-111366200Y38367700D03*
D22*
%TO.P,J7,2*%
%TO.N,/Diff In/Serial1_N*%
X-112636200Y35827700D03*
%TO.P,J7,3*%
%TO.N,/Diff In/Serial2_P*%
X-113906200Y38367700D03*
%TO.P,J7,4*%
%TO.N,/Diff In/Serial3_N*%
X-115176200Y35827700D03*
%TO.P,J7,5*%
%TO.N,/Diff In/Serial3_P*%
X-116446200Y38367700D03*
%TO.P,J7,6*%
%TO.N,/Diff In/Serial2_N*%
X-117716200Y35827700D03*
%TO.P,J7,7*%
%TO.N,/Diff In/Serial4_P*%
X-118986200Y38367700D03*
%TO.P,J7,8*%
%TO.N,/Diff In/Serial4_N*%
X-120256200Y35827700D03*
%TD*%
D23*
%TO.P,R3,1*%
%TO.N,/Diff In/Serial3_P*%
X-117918200Y31813700D03*
%TO.P,R3,2*%
%TO.N,/Diff In/Serial3_N*%
X-119568200Y31813700D03*
%TD*%
%TO.P,R4,1*%
%TO.N,/Diff In/Serial1_N*%
X-110116200Y31813700D03*
%TO.P,R4,2*%
%TO.N,/Diff In/Serial1_P*%
X-111766200Y31813700D03*
%TD*%
D19*
%TO.P,R5,1*%
%TO.N,/Diff In/Serial2_P*%
X-115141200Y31813700D03*
%TO.P,R5,2*%
%TO.N,/Diff In/Serial2_N*%
X-113491200Y31813700D03*
%TD*%
%TO.P,R6,1*%
%TO.N,/Diff In/Serial4_N*%
X-124140200Y31813700D03*
%TO.P,R6,2*%
%TO.N,/Diff In/Serial4_P*%
X-122490200Y31813700D03*
%TD*%
D24*
%TO.P,U3,1,INPUT_A-*%
%TO.N,/Diff In/Serial1_N*%
X-112003200Y28700700D03*
%TO.P,U3,2,INPUT_A+*%
%TO.N,/Diff In/Serial1_P*%
X-113273200Y28700700D03*
%TO.P,U3,3,OUT_A*%
%TO.N,OUT17*%
X-114543200Y28700700D03*
%TO.P,U3,4,EN*%
%TO.N,GND*%
X-115813200Y28700700D03*
%TO.P,U3,5,OUT_C*%
%TO.N,OUT19*%
X-117083200Y28700700D03*
%TO.P,U3,6,INPUT_C+*%
%TO.N,/Diff In/Serial3_P*%
X-118353200Y28700700D03*
%TO.P,U3,7,INPUT_C-*%
%TO.N,/Diff In/Serial3_N*%
X-119623200Y28700700D03*
%TO.P,U3,8,GND*%
%TO.N,GND*%
X-120893200Y28700700D03*
%TO.P,U3,9,INPUT_D-*%
%TO.N,/Diff In/Serial4_N*%
X-120893200Y23750700D03*
%TO.P,U3,10,INPUT_D+*%
%TO.N,/Diff In/Serial4_P*%
X-119623200Y23750700D03*
%TO.P,U3,11,OUT_D*%
%TO.N,OUT20*%
X-118353200Y23750700D03*
%TO.P,U3,12,EN_2*%
%TO.N,OUT_EN*%
X-117083200Y23750700D03*
%TO.P,U3,13,OUT_B*%
%TO.N,OUT18*%
X-115813200Y23750700D03*
%TO.P,U3,14,INPUT_B+*%
%TO.N,/Diff In/Serial2_P*%
X-114543200Y23750700D03*
%TO.P,U3,15,INPUT_B-*%
%TO.N,/Diff In/Serial2_N*%
X-113273200Y23750700D03*
%TO.P,U3,16,VCC*%
%TO.N,+5V*%
X-112003200Y23750700D03*
%TD*%
D25*
%TO.P,C3,1*%
%TO.N,+5V*%
X-110416200Y23630700D03*
%TO.P,C3,2*%
%TO.N,GND*%
X-110416200Y22670700D03*
%TD*%
D26*
%TO.P,D1,1,K*%
%TO.N,/VIN*%
X-125466200Y-7864300D03*
%TO.P,D1,2,A*%
%TO.N,VIN1*%
X-122166200Y-7864300D03*
%TD*%
D19*
%TO.P,R7,1*%
%TO.N,/Outputs/DOUT1*%
X-107841200Y19365700D03*
%TO.P,R7,2*%
%TO.N,Net-(U4-Y7)*%
X-106191200Y19365700D03*
%TD*%
D23*
%TO.P,R8,1*%
%TO.N,/Outputs/DOUT2*%
X-102541200Y19375700D03*
%TO.P,R8,2*%
%TO.N,Net-(U4-Y4)*%
X-104191200Y19375700D03*
%TD*%
%TO.P,R10,1*%
%TO.N,/Outputs/DOUT4*%
X-96316200Y19385700D03*
%TO.P,R10,2*%
%TO.N,Net-(U4-Y0)*%
X-97966200Y19385700D03*
%TD*%
D27*
%TO.P,U2,1,GND*%
%TO.N,GND*%
X-127316200Y14835700D03*
%TO.P,U2,2,VO*%
%TO.N,+5V*%
X-127316200Y12535700D03*
D28*
X-121016200Y12535700D03*
D27*
%TO.P,U2,3,VI*%
%TO.N,/PWR*%
X-127316200Y10235700D03*
%TD*%
D25*
%TO.P,C4,1*%
%TO.N,+5V*%
X-98316200Y23865700D03*
%TO.P,C4,2*%
%TO.N,GND*%
X-98316200Y22905700D03*
%TD*%
D23*
%TO.P,R9,1*%
%TO.N,/Outputs/DOUT3*%
X-99491200Y19385700D03*
%TO.P,R9,2*%
%TO.N,Net-(U4-Y2)*%
X-101141200Y19385700D03*
%TD*%
D29*
%TO.P,U4,1,G1*%
%TO.N,GND*%
X-99841200Y29598200D03*
%TO.P,U4,2,A0*%
%TO.N,OUT20*%
X-100491200Y29598200D03*
%TO.P,U4,3,A1*%
%TO.N,GND*%
X-101141200Y29598200D03*
%TO.P,U4,4,A2*%
%TO.N,OUT19*%
X-101791200Y29598200D03*
%TO.P,U4,5,A3*%
%TO.N,GND*%
X-102441200Y29598200D03*
%TO.P,U4,6,A4*%
%TO.N,OUT18*%
X-103091200Y29598200D03*
%TO.P,U4,7,A5*%
%TO.N,GND*%
X-103741200Y29598200D03*
%TO.P,U4,8,A6*%
X-104391200Y29598200D03*
%TO.P,U4,9,A7*%
%TO.N,OUT17*%
X-105041200Y29598200D03*
%TO.P,U4,10,GND*%
%TO.N,GND*%
X-105691200Y29598200D03*
%TO.P,U4,11,Y7*%
%TO.N,Net-(U4-Y7)*%
X-105691200Y23873200D03*
%TO.P,U4,12,Y6*%
%TO.N,unconnected-(U4-Y6-Pad12)*%
X-105041200Y23873200D03*
%TO.P,U4,13,Y5*%
%TO.N,unconnected-(U4-Y5-Pad13)*%
X-104391200Y23873200D03*
%TO.P,U4,14,Y4*%
%TO.N,Net-(U4-Y4)*%
X-103741200Y23873200D03*
%TO.P,U4,15,Y3*%
%TO.N,unconnected-(U4-Y3-Pad15)*%
X-103091200Y23873200D03*
%TO.P,U4,16,Y2*%
%TO.N,Net-(U4-Y2)*%
X-102441200Y23873200D03*
%TO.P,U4,17,Y1*%
%TO.N,unconnected-(U4-Y1-Pad17)*%
X-101791200Y23873200D03*
%TO.P,U4,18,Y0*%
%TO.N,Net-(U4-Y0)*%
X-101141200Y23873200D03*
%TO.P,U4,19,G2*%
%TO.N,GND*%
X-100491200Y23873200D03*
%TO.P,U4,20,VCC*%
%TO.N,+5V*%
X-99841200Y23873200D03*
%TD*%
D25*
%TO.P,C5,1*%
%TO.N,+5V*%
X-92926200Y27625700D03*
%TO.P,C5,2*%
%TO.N,GND*%
X-92926200Y26665700D03*
%TD*%
D30*
%TO.P,D4,1,K*%
%TO.N,Net-(D4-K)*%
X-88866200Y26935700D03*
%TO.P,D4,2,A*%
%TO.N,TESTLED*%
X-88866200Y25360700D03*
%TD*%
D16*
%TO.P,J5,1,Pin_1*%
%TO.N,+5V*%
X-82666200Y29135700D03*
D17*
%TO.P,J5,2,Pin_2*%
%TO.N,UPDI_DATA*%
X-82666200Y26595700D03*
%TO.P,J5,3,Pin_3*%
%TO.N,GND*%
X-82666200Y24055700D03*
%TD*%
D31*
%TO.P,SW1,1,1*%
%TO.N,Net-(U5-PA2)*%
X-85091200Y32485700D03*
X-93041200Y32485700D03*
%TO.P,SW1,2,2*%
%TO.N,GND*%
X-85091200Y36985700D03*
X-93041200Y36985700D03*
%TD*%
D32*
%TO.P,U5,1,PA2*%
%TO.N,Net-(U5-PA2)*%
X-94116200Y26135700D03*
D33*
%TO.P,U5,2,PA3*%
%TO.N,unconnected-(U5-PA3-Pad2)*%
X-94116200Y26535700D03*
%TO.P,U5,3,GND*%
%TO.N,GND*%
X-94116200Y26935700D03*
%TO.P,U5,4,VCC*%
%TO.N,+5V*%
X-94116200Y27335700D03*
D34*
%TO.P,U5,5,PA4*%
%TO.N,unconnected-(U5-PA4-Pad5)*%
X-94116200Y27735700D03*
D35*
%TO.P,U5,6,PA5*%
%TO.N,unconnected-(U5-PA5-Pad6)*%
X-94766200Y28385700D03*
D36*
%TO.P,U5,7,PA6*%
%TO.N,unconnected-(U5-PA6-Pad7)*%
X-95166200Y28385700D03*
%TO.P,U5,8,PA7*%
%TO.N,SIGNLED*%
X-95566200Y28385700D03*
%TO.P,U5,9,PB5*%
%TO.N,unconnected-(U5-PB5-Pad9)*%
X-95966200Y28385700D03*
D37*
%TO.P,U5,10,PB4*%
%TO.N,unconnected-(U5-PB4-Pad10)*%
X-96366200Y28385700D03*
D38*
%TO.P,U5,11,PB3*%
%TO.N,OUT17*%
X-97016200Y27735700D03*
D33*
%TO.P,U5,12,PB2*%
%TO.N,OUT20*%
X-97016200Y27335700D03*
%TO.P,U5,13,PB1*%
%TO.N,OUT19*%
X-97016200Y26935700D03*
%TO.P,U5,14,PB0*%
%TO.N,OUT18*%
X-97016200Y26535700D03*
D39*
%TO.P,U5,15,PC0*%
%TO.N,unconnected-(U5-PC0-Pad15)*%
X-97016200Y26135700D03*
D40*
%TO.P,U5,16,PC1*%
%TO.N,OUT_EN*%
X-96366200Y25485700D03*
D36*
%TO.P,U5,17,PC2*%
%TO.N,unconnected-(U5-PC2-Pad17)*%
X-95966200Y25485700D03*
%TO.P,U5,18,PC3*%
%TO.N,unconnected-(U5-PC3-Pad18)*%
X-95566200Y25485700D03*
%TO.P,U5,19,~{RESET}/PA0*%
%TO.N,UPDI_DATA*%
X-95166200Y25485700D03*
D41*
%TO.P,U5,20,PA1*%
%TO.N,TESTLED*%
X-94766200Y25485700D03*
D42*
%TO.P,U5,21,GND*%
%TO.N,GND*%
X-95566200Y26935700D03*
%TD*%
D19*
%TO.P,R13,1*%
%TO.N,GND*%
X-100291200Y33185700D03*
%TO.P,R13,2*%
%TO.N,Net-(D5-K)*%
X-98641200Y33185700D03*
%TD*%
D43*
%TO.P,R11,1*%
%TO.N,GND*%
X-87116200Y25323200D03*
%TO.P,R11,2*%
%TO.N,Net-(D4-K)*%
X-87116200Y26973200D03*
%TD*%
D30*
%TO.P,D5,1,K*%
%TO.N,Net-(D5-K)*%
X-96916200Y33235700D03*
%TO.P,D5,2,A*%
%TO.N,SIGNLED*%
X-96916200Y31660700D03*
%TD*%
D44*
%TO.P,J8,1,VCC*%
%TO.N,+5V*%
X-78686200Y27885700D03*
%TO.P,J8,2,SWDIO*%
%TO.N,UPDI_DATA*%
X-77416200Y27885700D03*
%TO.P,J8,3,~{RESET}*%
%TO.N,unconnected-(J8-~{RESET}-Pad3)*%
X-78686200Y26615700D03*
%TO.P,J8,4,SWCLK*%
%TO.N,unconnected-(J8-SWCLK-Pad4)*%
X-77416200Y26615700D03*
%TO.P,J8,5,GND*%
%TO.N,GND*%
X-78686200Y25345700D03*
%TO.P,J8,6,SWO*%
%TO.N,unconnected-(J8-SWO-Pad6)*%
X-77416200Y25345700D03*
%TD*%
D23*
%TO.P,R12,1*%
%TO.N,OUT_EN*%
X-117081200Y20545700D03*
%TO.P,R12,2*%
%TO.N,GND*%
X-118731200Y20545700D03*
%TD*%
D45*
%TO.N,GND*%
X-101816200Y33285700D03*
X-119816200Y26635700D03*
X-109336200Y-9334300D03*
X-129656200Y33845700D03*
X-99176200Y16065700D03*
X-115686200Y-9080300D03*
X-86806200Y33555700D03*
X-126216200Y19585700D03*
X-85191200Y30735700D03*
X-124576200Y23685700D03*
X-104936200Y21505700D03*
X-120336200Y20495700D03*
X-110606200Y21515700D03*
X-80316200Y8885700D03*
X-91676200Y30775700D03*
X-85008200Y14187700D03*
X-88316200Y5905700D03*
X-104316200Y33385700D03*
X-114416200Y44005700D03*
X-114416200Y16065700D03*
X-91556200Y-9334300D03*
X-85641200Y25310700D03*
X-104256200Y44005700D03*
X-129656200Y23685700D03*
X-78856200Y10985700D03*
X-130926200Y-444300D03*
X-98666200Y29785700D03*
X-125316200Y5885700D03*
D46*
X-95136200Y27355700D03*
D45*
X-129656200Y28765700D03*
X-129416200Y14785700D03*
X-86416200Y22810700D03*
X-121782200Y-190300D03*
X-124576200Y44005700D03*
X-99116200Y36235700D03*
X-106796200Y16065700D03*
X-88566200Y16900701D03*
X-87216200Y3685700D03*
X-121566200Y16385700D03*
X-97906200Y-9334300D03*
X-104316200Y36285700D03*
X-83936200Y38925700D03*
X-83936200Y44005700D03*
X-107066200Y29635700D03*
X-93876200Y20045700D03*
X-121020200Y30543700D03*
X-79196200Y21965700D03*
X-94096200Y44005700D03*
X-88566200Y13525700D03*
X-85233200Y15580701D03*
X-116956200Y44005700D03*
X-131180200Y-8572300D03*
X-91566200Y7135700D03*
X-129466200Y16225700D03*
X-119242200Y7683700D03*
D46*
X-95996200Y27365700D03*
D45*
X-74516200Y26385700D03*
X-88966200Y30685700D03*
D46*
X-95146200Y26505700D03*
D45*
X-89036200Y20075700D03*
X-82816200Y8885700D03*
X-111796200Y21455700D03*
X-99866200Y31685700D03*
X-85641200Y26735700D03*
X-91516200Y28085700D03*
X-118796200Y21885700D03*
X-123416200Y7785700D03*
X-86566200Y16985700D03*
X-129656200Y44005700D03*
X-86508200Y12687700D03*
X-123436200Y10255700D03*
X-106796200Y3365700D03*
X-99176200Y44005700D03*
X-102916200Y31685700D03*
X-103494200Y-9334300D03*
X-89016200Y44005700D03*
X-81226200Y19765700D03*
X-118226200Y-6540300D03*
X-121020200Y-10604300D03*
X-79016200Y3685700D03*
X-94806200Y38915700D03*
X-78856200Y5905700D03*
X-91636200Y26865700D03*
X-99866200Y21785700D03*
D46*
X-95996200Y26505700D03*
D45*
X-118876200Y16385700D03*
X-91386200Y33575700D03*
X-101716200Y16065700D03*
X-124576200Y38925700D03*
X-116436200Y30475700D03*
X-99176200Y38925700D03*
X-125016200Y10185700D03*
X-75316200Y31885700D03*
X-124576200Y33845700D03*
X-75316200Y20885700D03*
X-129416200Y17585700D03*
X-98326200Y21775700D03*
X-81066200Y31745700D03*
X-78856200Y44005700D03*
X-105816200Y31685700D03*
X-110376200Y29065700D03*
X-85316200Y8885700D03*
X-89316200Y36885700D03*
X-104256200Y38925700D03*
X-94176200Y22775700D03*
X-99176200Y-4254300D03*
X-82086200Y35505700D03*
X-108746200Y33485700D03*
X-87816200Y8885700D03*
X-128016200Y17585700D03*
X-85108200Y11187700D03*
X-94846200Y36055700D03*
X-85223200Y18380701D03*
X-75316200Y15385700D03*
%TO.N,+5V*%
X-108816200Y23685700D03*
X-108816200Y29385700D03*
%TO.N,VIN1*%
X-82816200Y-16114300D03*
X-82816200Y-11114300D03*
X-82816200Y-6114300D03*
X-87816200Y-21114300D03*
X-80316200Y-1114300D03*
X-85316200Y-6114300D03*
X-92816200Y-21114300D03*
X-77816200Y-1114300D03*
X-87816200Y-16114300D03*
X-87816200Y-11114300D03*
X-87816200Y-3614300D03*
X-77816200Y-16114300D03*
X-77816200Y-21114300D03*
X-77816200Y-6114300D03*
X-87816200Y-6114300D03*
X-82816200Y-21114300D03*
X-80316200Y-6114300D03*
X-92816200Y-16114300D03*
X-87816200Y-1114300D03*
X-80316200Y-3614300D03*
%TO.N,OUT19*%
X-102641200Y26610700D03*
X-99616187Y26485726D03*
%TO.N,OUT18*%
X-116191190Y26885700D03*
X-115842639Y21629933D03*
X-104066200Y26635700D03*
X-100916200Y25535700D03*
%TO.N,OUT17*%
X-105396200Y28055700D03*
X-98616200Y28260700D03*
%TO.N,/Diff In/Serial2_N*%
X-113710241Y32885686D03*
X-113316200Y21685700D03*
%TO.N,/Diff In/Serial3_N*%
X-117321210Y33958710D03*
%TO.N,/Diff In/Serial2_P*%
X-116416200Y31885704D03*
X-114566200Y21635700D03*
%TO.N,/Diff In/Serial1_P*%
X-111816200Y33385700D03*
%TO.N,UPDI_DATA*%
X-76116200Y27885700D03*
%TO.N,OUT_EN*%
X-95776200Y23675700D03*
X-110786200Y19955700D03*
%TD*%
D47*
%TO.N,SIGNLED*%
X-95566200Y29335700D02*
X-95566200Y28385700D01*
D48*
X-96916200Y30685700D02*
X-95566200Y29335700D01*
X-96916200Y31660700D02*
X-96916200Y30685700D01*
D49*
%TO.N,Net-(D5-K)*%
X-96966200Y33185700D02*
X-96916200Y33235700D01*
X-98641200Y33185700D02*
X-96966200Y33185700D01*
%TO.N,GND*%
X-85041200Y16985700D02*
X-86566200Y16985700D01*
D50*
X-120893200Y28700700D02*
X-120893200Y30416700D01*
D49*
X-94276200Y20445700D02*
X-93876200Y20045700D01*
D50*
X-101416200Y31685700D02*
X-102916200Y31685700D01*
D48*
X-107066200Y29635700D02*
X-107041200Y29610700D01*
D49*
X-96996200Y20445700D02*
X-94276200Y20445700D01*
D50*
X-105691200Y29598200D02*
X-107028700Y29598200D01*
X-99866200Y21785700D02*
X-98336200Y21785700D01*
X-101141200Y31410700D02*
X-101416200Y31685700D01*
X-99841200Y31660700D02*
X-99866200Y31685700D01*
X-104391200Y31510700D02*
X-103091200Y31510700D01*
D49*
X-85641200Y25310700D02*
X-85641200Y26735700D01*
D50*
X-105691200Y29598200D02*
X-105691200Y31560700D01*
D49*
X-91516200Y28085700D02*
X-91516200Y26985700D01*
X-98316200Y22900700D02*
X-98316200Y21785700D01*
X-87116200Y25323200D02*
X-85653700Y25323200D01*
D50*
X-120893200Y30416700D02*
X-121020200Y30543700D01*
X-103741200Y29598200D02*
X-103741200Y30860700D01*
X-120310200Y26479700D02*
X-120893200Y27062700D01*
X-120893200Y27062700D02*
X-120893200Y28700700D01*
D49*
X-115813200Y29852700D02*
X-116436200Y30475700D01*
D48*
X-100491200Y23873200D02*
X-100491200Y21785700D01*
D50*
X-102441200Y31210700D02*
X-102916200Y31685700D01*
D49*
X-98326200Y21775700D02*
X-96996200Y20445700D01*
D50*
X-102441200Y29598200D02*
X-102441200Y31210700D01*
X-105691200Y31560700D02*
X-105816200Y31685700D01*
X-103741200Y30860700D02*
X-102916200Y31685700D01*
D49*
X-91836200Y26665700D02*
X-92926200Y26665700D01*
X-85653700Y25323200D02*
X-85641200Y25310700D01*
D50*
X-110416200Y22665700D02*
X-110416200Y21285700D01*
X-103091200Y31510700D02*
X-102916200Y31685700D01*
D47*
X-93036200Y26665700D02*
X-93306200Y26935700D01*
X-92926200Y26665700D02*
X-93036200Y26665700D01*
D49*
X-91516200Y26985700D02*
X-91636200Y26865700D01*
D50*
X-98853700Y29598200D02*
X-98666200Y29785700D01*
D49*
X-91636200Y26865700D02*
X-91836200Y26665700D01*
X-98316200Y21785700D02*
X-98326200Y21775700D01*
D47*
X-93306200Y26935700D02*
X-94066200Y26935700D01*
D49*
X-89036200Y20075700D02*
X-93846200Y20075700D01*
D50*
X-99841200Y29598200D02*
X-99841200Y31660700D01*
D49*
X-93846200Y20075700D02*
X-93876200Y20045700D01*
D50*
X-100491200Y21785700D02*
X-99866200Y21785700D01*
X-107028700Y29598200D02*
X-107066200Y29635700D01*
X-104391200Y29598200D02*
X-104391200Y31510700D01*
X-120086200Y26479700D02*
X-120310200Y26479700D01*
X-101141200Y29598200D02*
X-101141200Y31410700D01*
X-98336200Y21785700D02*
X-98326200Y21775700D01*
X-99841200Y29598200D02*
X-98853700Y29598200D01*
D49*
X-115813200Y28700700D02*
X-115813200Y29852700D01*
D51*
%TO.N,+5V*%
X-110016200Y18585700D02*
X-109116200Y19485700D01*
X-129166200Y12535700D02*
X-127316200Y12535700D01*
D49*
X-99626200Y23865700D02*
X-99621200Y23870700D01*
D52*
X-108816200Y29725700D02*
X-108816200Y29385700D01*
X-80761200Y21405700D02*
X-80741200Y21385700D01*
D47*
X-93196200Y27565700D02*
X-92986200Y27565700D01*
D49*
X-78686200Y27885700D02*
X-80666200Y27885700D01*
D52*
X-82666200Y29135700D02*
X-80841200Y29135700D01*
D51*
X-125966200Y1315700D02*
X-128946200Y1315700D01*
D52*
X-83586200Y34785700D02*
X-82716200Y33915700D01*
D49*
X-111888200Y23635700D02*
X-112003200Y23750700D01*
X-95406200Y34785700D02*
X-95406200Y31225700D01*
D51*
X-109116200Y19485700D02*
X-109116200Y23385700D01*
D52*
X-80716200Y21285700D02*
X-79120700Y19690200D01*
D49*
X-110416200Y23635700D02*
X-108866200Y23635700D01*
D47*
X-94116200Y27335700D02*
X-93426200Y27335700D01*
D52*
X-95256200Y21405700D02*
X-80761200Y21405700D01*
D51*
X-129816200Y11885700D02*
X-129166200Y12535700D01*
D49*
X-95406200Y31225700D02*
X-92926200Y28745700D01*
D51*
X-124141200Y17535700D02*
X-123091200Y18585700D01*
D52*
X-107876200Y30665700D02*
X-108816200Y29725700D01*
X-80716200Y27935700D02*
X-80716200Y21285700D01*
D49*
X-80666200Y27885700D02*
X-80741200Y27960700D01*
D52*
X-105066200Y34785700D02*
X-107876200Y31975700D01*
X-80741200Y29035700D02*
X-80741200Y27960700D01*
X-94766200Y34785700D02*
X-83586200Y34785700D01*
D49*
X-92926200Y28745700D02*
X-92926200Y27625700D01*
D52*
X-82716200Y29185700D02*
X-82666200Y29135700D01*
D49*
X-94766200Y34785700D02*
X-95406200Y34785700D01*
X-79120700Y16985700D02*
X-79120700Y17057426D01*
D47*
X-92986200Y27565700D02*
X-92926200Y27625700D01*
D51*
X-109116200Y23385700D02*
X-108816200Y23685700D01*
X-117066200Y18585700D02*
X-110016200Y18585700D01*
D52*
X-80841200Y29135700D02*
X-80741200Y29035700D01*
D51*
X-124141200Y12560700D02*
X-124141200Y17535700D01*
D52*
X-82716200Y33915700D02*
X-82716200Y29185700D01*
D51*
X-129816200Y2185700D02*
X-129816200Y11885700D01*
D52*
X-107876200Y31975700D02*
X-107876200Y30665700D01*
D49*
X-99621200Y23870700D02*
X-98316200Y23870700D01*
D52*
X-80741200Y27960700D02*
X-80716200Y27935700D01*
D51*
X-128946200Y1315700D02*
X-129816200Y2185700D01*
X-121016200Y12535700D02*
X-127316200Y12535700D01*
D52*
X-97721200Y23870700D02*
X-95256200Y21405700D01*
D49*
X-108866200Y23635700D02*
X-108816200Y23685700D01*
D51*
X-123091200Y18585700D02*
X-117066200Y18585700D01*
D47*
X-93426200Y27335700D02*
X-93196200Y27565700D01*
D52*
X-94766200Y34785700D02*
X-105066200Y34785700D01*
D51*
X-124166200Y12535700D02*
X-124141200Y12560700D01*
D52*
X-79120700Y19690200D02*
X-79120700Y16985700D01*
D51*
X-127316200Y12535700D02*
X-124166200Y12535700D01*
D49*
X-110416200Y23635700D02*
X-111888200Y23635700D01*
D52*
X-98316200Y23870700D02*
X-97721200Y23870700D01*
D51*
%TO.N,VIN1*%
X-111808200Y-16772300D02*
X-111808200Y-16935100D01*
X-79095700Y12780700D02*
X-75193200Y12780700D01*
X-122166200Y-7864300D02*
X-120716200Y-7864300D01*
X-73866210Y11453710D02*
X-73866210Y-1114300D01*
X-75193200Y12780700D02*
X-73866210Y11453710D01*
X-73866210Y-1114300D02*
X-77816200Y-1114300D01*
X-120716200Y-7864300D02*
X-111808200Y-16772300D01*
D47*
%TO.N,OUT20*%
X-97016200Y27335700D02*
X-100386200Y27335700D01*
D50*
X-100516200Y27385700D02*
X-100476200Y27425700D01*
X-100476200Y27425700D02*
X-100476200Y29583200D01*
X-102701190Y25200710D02*
X-100516200Y27385700D01*
X-118001190Y25200710D02*
X-102701190Y25200710D01*
X-118353200Y24848700D02*
X-118001190Y25200710D01*
X-118353200Y23750700D02*
X-118353200Y24848700D01*
D47*
X-100386200Y27335700D02*
X-100476200Y27425700D01*
D50*
X-100476200Y29583200D02*
X-100491200Y29598200D01*
%TO.N,OUT19*%
X-101786200Y27465700D02*
X-101786200Y29593200D01*
X-117083200Y26357696D02*
X-116476225Y25750721D01*
D47*
X-99166213Y26935700D02*
X-99616187Y26485726D01*
X-97016200Y26935700D02*
X-99166213Y26935700D01*
D50*
X-103501179Y25750721D02*
X-101786200Y27465700D01*
X-101786200Y29593200D02*
X-101791200Y29598200D01*
X-116476225Y25750721D02*
X-103501179Y25750721D01*
X-117083200Y28700700D02*
X-117083200Y26357696D01*
%TO.N,OUT18*%
X-115813200Y23750700D02*
X-115813200Y21659372D01*
D47*
X-97016200Y26535700D02*
X-98041200Y26535700D01*
X-99041200Y25535700D02*
X-100916200Y25535700D01*
D50*
X-104066200Y26635700D02*
X-103076200Y27625700D01*
X-115941190Y26635700D02*
X-104066200Y26635700D01*
X-103076200Y27625700D02*
X-103076200Y29583200D01*
X-116191190Y26885700D02*
X-115941190Y26635700D01*
X-115813200Y21659372D02*
X-115842639Y21629933D01*
X-103076200Y29583200D02*
X-103091200Y29598200D01*
D47*
X-98041200Y26535700D02*
X-99041200Y25535700D01*
%TO.N,OUT17*%
X-98091200Y27735700D02*
X-98616200Y28260700D01*
D50*
X-114543200Y27725700D02*
X-114543200Y28700700D01*
X-105396200Y28055700D02*
X-105041200Y28410700D01*
D47*
X-97016200Y27735700D02*
X-98091200Y27735700D01*
D50*
X-106101200Y27350700D02*
X-114168200Y27350700D01*
X-105396200Y28055700D02*
X-106101200Y27350700D01*
X-114168200Y27350700D02*
X-114543200Y27725700D01*
X-105041200Y28410700D02*
X-105041200Y29598200D01*
D49*
%TO.N,Net-(D2-K)*%
X-80765700Y12735700D02*
X-80720700Y12780700D01*
X-83403700Y12735700D02*
X-80765700Y12735700D01*
%TO.N,Net-(D3-K)*%
X-83391200Y16985700D02*
X-80745700Y16985700D01*
D53*
%TO.N,/Outputs/VOUT1*%
X-115817200Y7003500D02*
X-118457200Y4363500D01*
D54*
X-110968200Y7003500D02*
X-107817200Y10154500D01*
X-107817200Y10154500D02*
X-107817200Y13003500D01*
X-115817200Y7003500D02*
X-110968200Y7003500D01*
X-111808200Y-12435100D02*
X-111808200Y-8735100D01*
X-118457200Y4363500D02*
X-118457200Y-2473300D01*
X-118457200Y-2473300D02*
X-112195400Y-8735100D01*
X-112195400Y-8735100D02*
X-111808200Y-8735100D01*
%TO.N,/Outputs/VOUT2*%
X-106220200Y-12450100D02*
X-106220200Y-8750100D01*
X-106220200Y-8750100D02*
X-107817200Y-7153100D01*
X-107817200Y-7153100D02*
X-107817200Y3500D01*
%TO.N,/Outputs/VOUT3*%
X-103232200Y-6150100D02*
X-103232200Y4162300D01*
X-100632200Y-8750100D02*
X-103232200Y-6150100D01*
X-100604600Y6789900D02*
X-96404600Y6789900D01*
X-92817200Y10377300D02*
X-92817200Y13003500D01*
X-96404600Y6789900D02*
X-92817200Y10377300D01*
X-100632200Y-12450100D02*
X-100632200Y-8750100D01*
X-103232200Y4162300D02*
X-100604600Y6789900D01*
%TO.N,/Outputs/VOUT4*%
X-95044200Y-4650100D02*
X-95044200Y-8750100D01*
X-95044200Y-8750100D02*
X-95044200Y-12450100D01*
X-92817200Y-2423100D02*
X-95044200Y-4650100D01*
X-92817200Y3500D02*
X-92817200Y-2423100D01*
D49*
%TO.N,/Outputs/DOUT1*%
X-111317200Y14584700D02*
X-111317200Y13003500D01*
X-107741200Y18160700D02*
X-111317200Y14584700D01*
X-107741200Y19385700D02*
X-107741200Y18160700D01*
%TO.N,/Outputs/DOUT2*%
X-103816200Y18210700D02*
X-103816200Y10085700D01*
X-103816200Y10085700D02*
X-111317200Y2584700D01*
X-102641200Y19385700D02*
X-103816200Y18210700D01*
X-111317200Y2584700D02*
X-111317200Y3500D01*
%TO.N,/Outputs/DOUT3*%
X-96441200Y13127500D02*
X-96317200Y13003500D01*
X-96441200Y16335700D02*
X-96441200Y13127500D01*
X-96416200Y13102500D02*
X-96317200Y13003500D01*
X-99491200Y19385700D02*
X-96441200Y16335700D01*
%TO.N,/Outputs/DOUT4*%
X-90066200Y14510700D02*
X-90066200Y6254500D01*
X-90066200Y6254500D02*
X-96317200Y3500D01*
X-94941200Y19385700D02*
X-90066200Y14510700D01*
X-96316200Y19385700D02*
X-94941200Y19385700D01*
D51*
%TO.N,/PWR*%
X-124594200Y-3764300D02*
X-123616200Y-2786300D01*
X-123616200Y2085700D02*
X-127441200Y5910700D01*
X-127316200Y10235700D02*
X-127316200Y7910700D01*
X-127441200Y5910700D02*
X-127441200Y7785700D01*
D49*
X-127316200Y7910700D02*
X-127441200Y7785700D01*
D51*
X-125966200Y-3764300D02*
X-124594200Y-3764300D01*
X-123616200Y-2786300D02*
X-123616200Y2085700D01*
D50*
%TO.N,/Diff In/Serial4_N*%
X-124140200Y26997700D02*
X-120893200Y23750700D01*
X-120256200Y35827700D02*
X-124140200Y31943700D01*
X-124140200Y31943700D02*
X-124140200Y31813700D01*
X-124140200Y31813700D02*
X-124140200Y26997700D01*
%TO.N,/Diff In/Serial4_P*%
X-122490200Y31813700D02*
X-122290200Y31813700D01*
X-119623200Y23750700D02*
X-119623200Y24382700D01*
X-122486200Y27245700D02*
X-122486200Y31809700D01*
X-118986200Y35117700D02*
X-118986200Y38367700D01*
X-122486200Y31809700D02*
X-122490200Y31813700D01*
X-122290200Y31813700D02*
X-118986200Y35117700D01*
X-119623200Y24382700D02*
X-122486200Y27245700D01*
%TO.N,/Diff In/Serial2_N*%
X-113273200Y23750700D02*
X-113273200Y21728700D01*
X-113491200Y31863700D02*
X-113491200Y32666645D01*
X-113441200Y31813700D02*
X-113491200Y31863700D01*
X-113491200Y32666645D02*
X-113710241Y32885686D01*
X-113273200Y21728700D02*
X-113316200Y21685700D01*
%TO.N,/Diff In/Serial3_P*%
X-116446200Y33300704D02*
X-118353200Y31393704D01*
X-118353200Y31393704D02*
X-118353200Y29675700D01*
X-116446200Y38367700D02*
X-116446200Y33300704D01*
X-118353200Y29675700D02*
X-118353200Y28700700D01*
%TO.N,/Diff In/Serial3_N*%
X-119623200Y28700700D02*
X-119576200Y28747700D01*
X-119576200Y28747700D02*
X-119576200Y32540700D01*
X-118158190Y33958710D02*
X-117321210Y33958710D01*
X-119576200Y32540700D02*
X-118158190Y33958710D01*
%TO.N,/Diff In/Serial2_P*%
X-113906200Y38367700D02*
X-113906200Y34995700D01*
X-114543200Y21658700D02*
X-114566200Y21635700D01*
X-113906200Y34995700D02*
X-115191200Y33710700D01*
X-115191200Y33710700D02*
X-115191200Y31813700D01*
X-116344196Y31813700D02*
X-116416200Y31885704D01*
X-114543200Y23750700D02*
X-114543200Y21658700D01*
X-115191200Y31813700D02*
X-116344196Y31813700D01*
%TO.N,/Diff In/Serial1_N*%
X-110146200Y33337700D02*
X-110146200Y31733700D01*
X-110146200Y31733700D02*
X-112003200Y29876700D01*
X-112003200Y29876700D02*
X-112003200Y28700700D01*
X-112636200Y35827700D02*
X-110146200Y33337700D01*
%TO.N,/Diff In/Serial1_P*%
X-111766200Y33335700D02*
X-111816200Y33385700D01*
X-113273200Y28700700D02*
X-113273200Y29881700D01*
X-111816200Y31813700D02*
X-111766200Y31863700D01*
X-113273200Y29881700D02*
X-111816200Y31338700D01*
X-111816200Y31338700D02*
X-111816200Y31813700D01*
X-111766200Y31863700D02*
X-111766200Y33335700D01*
D48*
%TO.N,Net-(U4-Y7)*%
X-106191200Y22150700D02*
X-106191200Y19365700D01*
X-105691200Y22650700D02*
X-106191200Y22150700D01*
X-105691200Y23873200D02*
X-105691200Y22650700D01*
%TO.N,Net-(U4-Y4)*%
X-103741200Y23873200D02*
X-103741200Y20035700D01*
X-103741200Y20035700D02*
X-104391200Y19385700D01*
%TO.N,Net-(U4-Y2)*%
X-101141200Y19385700D02*
X-101141200Y19690700D01*
X-102441200Y20990700D02*
X-102441200Y23873200D01*
X-101141200Y19690700D02*
X-102441200Y20990700D01*
%TO.N,Net-(U4-Y0)*%
X-101141200Y20960700D02*
X-100606200Y20425700D01*
X-101141200Y23873200D02*
X-101141200Y20960700D01*
X-99006200Y20425700D02*
X-97966200Y19385700D01*
X-100606200Y20425700D02*
X-99006200Y20425700D01*
D51*
%TO.N,/VIN*%
X-127566200Y-7864300D02*
X-128616200Y-6814300D01*
X-128616200Y-6814300D02*
X-128616200Y-2114300D01*
X-127726200Y-1224300D02*
X-125966200Y-1224300D01*
X-128616200Y-2114300D02*
X-127726200Y-1224300D01*
X-125466200Y-7864300D02*
X-127566200Y-7864300D01*
D49*
%TO.N,TESTLED*%
X-94071200Y24855700D02*
X-89371200Y24855700D01*
X-89371200Y24855700D02*
X-88866200Y25360700D01*
X-94616200Y25400700D02*
X-94071200Y24855700D01*
%TO.N,Net-(D4-K)*%
X-88866200Y26935700D02*
X-87153700Y26935700D01*
X-87153700Y26935700D02*
X-87116200Y26973200D01*
D47*
%TO.N,UPDI_DATA*%
X-95101200Y24670700D02*
X-95166200Y24735700D01*
X-95166200Y24735700D02*
X-95166200Y25485700D01*
D49*
X-95101200Y24670700D02*
X-94526200Y24095700D01*
X-94526200Y24095700D02*
X-85081200Y24095700D01*
X-82666200Y26510700D02*
X-82666200Y26595700D01*
X-77416200Y27885700D02*
X-76116200Y27885700D01*
X-85081200Y24095700D02*
X-82666200Y26510700D01*
%TO.N,OUT_EN*%
X-117083200Y20656200D02*
X-117083200Y23750700D01*
X-111146200Y20315700D02*
X-116742700Y20315700D01*
X-116742700Y20315700D02*
X-117083200Y20656200D01*
X-110786200Y19955700D02*
X-111146200Y20315700D01*
D47*
X-96366200Y24265700D02*
X-96366200Y25485700D01*
X-95776200Y23675700D02*
X-96366200Y24265700D01*
D49*
%TO.N,Net-(U5-PA2)*%
X-90316200Y32485700D02*
X-93041200Y32485700D01*
X-93566200Y25585700D02*
X-93946200Y25965700D01*
D47*
X-94116200Y26135700D02*
X-93946200Y25965700D01*
D49*
X-93566200Y25585700D02*
X-90916200Y25585700D01*
X-90916200Y25585700D02*
X-90316200Y26185700D01*
X-85091200Y32485700D02*
X-93041200Y32485700D01*
X-90316200Y26185700D02*
X-90316200Y32485700D01*
%TD*%
%TA.AperFunction,Conductor*%
%TO.N,GND*%
G36*
X-73807507Y47754775D02*
G01*
X-73670385Y47713180D01*
X-73647578Y47703733D01*
X-73522047Y47636636D01*
X-73496573Y47623019D01*
X-73476035Y47609296D01*
X-73343686Y47500680D01*
X-73326221Y47483215D01*
X-73217605Y47350866D01*
X-73203882Y47330328D01*
X-73123172Y47179331D01*
X-73113720Y47156511D01*
X-73072126Y47019394D01*
X-73066700Y46982818D01*
X-73066700Y12161180D01*
X-73086702Y12093059D01*
X-73140358Y12046566D01*
X-73210632Y12036462D01*
X-73275212Y12065956D01*
X-73281795Y12072085D01*
X-74651033Y13441323D01*
X-74651039Y13441328D01*
X-74790337Y13534404D01*
X-74907705Y13583019D01*
X-74945113Y13598514D01*
X-74945118Y13598516D01*
X-75109431Y13631200D01*
X-75109433Y13631200D01*
X-79179467Y13631200D01*
X-79179473Y13631200D01*
X-79292985Y13608621D01*
X-79317564Y13606200D01*
X-79376751Y13606200D01*
X-79376765Y13606199D01*
X-79488053Y13591549D01*
X-79488054Y13591548D01*
X-79626530Y13534190D01*
X-79626533Y13534188D01*
X-79723401Y13459858D01*
X-79745444Y13442944D01*
X-79805030Y13365289D01*
X-79808237Y13361110D01*
X-79865575Y13319243D01*
X-79936446Y13315021D01*
X-79998349Y13349785D01*
X-80008163Y13361110D01*
X-80011365Y13365283D01*
X-80070956Y13442944D01*
X-80189869Y13534189D01*
X-80229435Y13550578D01*
X-80328348Y13591549D01*
X-80400800Y13601087D01*
X-80439639Y13606200D01*
X-80439642Y13606200D01*
X-80951760Y13606200D01*
X-80951769Y13606199D01*
X-81051925Y13593014D01*
X-81063054Y13591548D01*
X-81201530Y13534190D01*
X-81201533Y13534188D01*
X-81320447Y13442942D01*
X-81364526Y13385496D01*
X-81421864Y13343629D01*
X-81464488Y13336200D01*
X-82659567Y13336200D01*
X-82727688Y13356202D01*
X-82759964Y13386065D01*
X-82773280Y13403624D01*
X-82893855Y13495059D01*
X-82893859Y13495062D01*
X-83034636Y13550578D01*
X-83034635Y13550578D01*
X-83123095Y13561200D01*
X-83123098Y13561200D01*
X-83609302Y13561200D01*
X-83609306Y13561200D01*
X-83697765Y13550578D01*
X-83838542Y13495062D01*
X-83838546Y13495059D01*
X-83959123Y13403623D01*
X-84050559Y13283046D01*
X-84050562Y13283042D01*
X-84106078Y13142265D01*
X-84116700Y13053806D01*
X-84116700Y12417595D01*
X-84106078Y12329136D01*
X-84050562Y12188359D01*
X-84050559Y12188355D01*
X-83959123Y12067778D01*
X-83838546Y11976342D01*
X-83838542Y11976339D01*
X-83697765Y11920823D01*
X-83697766Y11920823D01*
X-83669806Y11917466D01*
X-83609302Y11910200D01*
X-83609299Y11910200D01*
X-83123101Y11910200D01*
X-83123098Y11910200D01*
X-83034636Y11920823D01*
X-82893858Y11976339D01*
X-82773278Y12067778D01*
X-82759964Y12085335D01*
X-82702864Y12127527D01*
X-82659567Y12135200D01*
X-81385036Y12135200D01*
X-81316915Y12115198D01*
X-81308332Y12109162D01*
X-81213588Y12036462D01*
X-81201531Y12027211D01*
X-81063054Y11969852D01*
X-80951761Y11955200D01*
X-80439640Y11955201D01*
X-80328346Y11969852D01*
X-80189869Y12027211D01*
X-80070956Y12118456D01*
X-80008163Y12200291D01*
X-79950825Y12242158D01*
X-79879954Y12246380D01*
X-79818051Y12211616D01*
X-79808240Y12200294D01*
X-79799079Y12188355D01*
X-79752405Y12127527D01*
X-79745444Y12118456D01*
X-79626531Y12027211D01*
X-79488054Y11969852D01*
X-79376761Y11955200D01*
X-79317565Y11955201D01*
X-79292983Y11952781D01*
X-79179467Y11930200D01*
X-75597680Y11930200D01*
X-75529559Y11910198D01*
X-75508585Y11893296D01*
X-74753615Y11138327D01*
X-74719590Y11076014D01*
X-74716710Y11049231D01*
X-74716710Y2511700D01*
X-74736712Y2443579D01*
X-74790368Y2397086D01*
X-74842710Y2385700D01*
X-90816200Y2385700D01*
X-90816200Y641183D01*
X-90836202Y573062D01*
X-90889858Y526569D01*
X-90960132Y516465D01*
X-91024712Y545959D01*
X-91058520Y596224D01*
X-91059568Y595789D01*
X-91061145Y599597D01*
X-91061146Y599600D01*
X-91153976Y823712D01*
X-91153982Y823721D01*
X-91153983Y823725D01*
X-91275262Y1033786D01*
X-91275869Y1034577D01*
X-91422935Y1226238D01*
X-91422941Y1226244D01*
X-91422945Y1226249D01*
X-91594452Y1397756D01*
X-91594462Y1397765D01*
X-91610643Y1410181D01*
X-91688605Y1470003D01*
X-91724166Y1512762D01*
X-91747676Y1558905D01*
X-91863372Y1718146D01*
X-91863374Y1718149D01*
X-92002552Y1857327D01*
X-92161792Y1973022D01*
X-92161793Y1973023D01*
X-92161795Y1973024D01*
X-92337175Y2062384D01*
X-92524374Y2123209D01*
X-92718783Y2154000D01*
X-92915617Y2154000D01*
X-92981740Y2143528D01*
X-93010079Y2139039D01*
X-93080490Y2148139D01*
X-93134804Y2193861D01*
X-93155776Y2261690D01*
X-93136748Y2330089D01*
X-93118888Y2352579D01*
X-91845591Y3625876D01*
X-84503526Y3625876D01*
X-84500023Y3624425D01*
X-84284759Y3566746D01*
X-84063827Y3537661D01*
X-84063817Y3537660D01*
X-83840983Y3537660D01*
X-83840974Y3537661D01*
X-83620042Y3566746D01*
X-83404779Y3624425D01*
X-83401276Y3625876D01*
X-83401276Y3625877D01*
X-83952399Y4177000D01*
X-83952400Y4177000D01*
X-84503526Y3625876D01*
X-91845591Y3625876D01*
X-90122380Y5349087D01*
X-85652400Y5349087D01*
X-85652400Y5126234D01*
X-85623315Y4905302D01*
X-85565636Y4690038D01*
X-85565633Y4690029D01*
X-85564186Y4686537D01*
X-85564186Y4686536D01*
X-85013060Y5237661D01*
X-85086928Y5311529D01*
X-84702400Y5311529D01*
X-84702400Y5163791D01*
X-84673578Y5018893D01*
X-84617041Y4882402D01*
X-84534963Y4759563D01*
X-84430497Y4655097D01*
X-84307658Y4573019D01*
X-84171167Y4516482D01*
X-84026269Y4487660D01*
X-83878531Y4487660D01*
X-83733633Y4516482D01*
X-83597142Y4573019D01*
X-83474303Y4655097D01*
X-83369837Y4759563D01*
X-83287759Y4882402D01*
X-83231222Y5018893D01*
X-83202400Y5163791D01*
X-83202400Y5237661D01*
X-82891740Y5237661D01*
X-82891740Y5237659D01*
X-82340617Y4686536D01*
X-82340616Y4686536D01*
X-82339165Y4690039D01*
X-82281486Y4905302D01*
X-82252401Y5126234D01*
X-82252400Y5126243D01*
X-82252400Y5349077D01*
X-82252401Y5349087D01*
X-82281486Y5570019D01*
X-82339165Y5785282D01*
X-82339165Y5785284D01*
X-82340616Y5788786D01*
X-82891740Y5237661D01*
X-83202400Y5237661D01*
X-83202400Y5311529D01*
X-83231222Y5456427D01*
X-83287759Y5592918D01*
X-83369837Y5715757D01*
X-83474303Y5820223D01*
X-83597142Y5902301D01*
X-83733633Y5958838D01*
X-83878531Y5987660D01*
X-84026269Y5987660D01*
X-84171167Y5958838D01*
X-84307658Y5902301D01*
X-84430497Y5820223D01*
X-84534963Y5715757D01*
X-84617041Y5592918D01*
X-84673578Y5456427D01*
X-84702400Y5311529D01*
X-85086928Y5311529D01*
X-85564185Y5788786D01*
X-85564186Y5788786D01*
X-85565635Y5785287D01*
X-85623315Y5570019D01*
X-85652400Y5349087D01*
X-90122380Y5349087D01*
X-89707861Y5763606D01*
X-89707851Y5763613D01*
X-89585686Y5885778D01*
X-89585680Y5885784D01*
X-89522932Y5994467D01*
X-89506623Y6022715D01*
X-89465699Y6175443D01*
X-89465699Y6333557D01*
X-89465699Y6341274D01*
X-89465700Y6341292D01*
X-89465700Y6849446D01*
X-84503526Y6849446D01*
X-84503526Y6849445D01*
X-83952401Y6298320D01*
X-83952400Y6298320D01*
X-83401276Y6849446D01*
X-83404769Y6850893D01*
X-83404778Y6850896D01*
X-83620042Y6908575D01*
X-83840974Y6937660D01*
X-84063827Y6937660D01*
X-84284759Y6908575D01*
X-84500027Y6850895D01*
X-84503526Y6849446D01*
X-89465700Y6849446D01*
X-89465700Y12335700D01*
X-85601389Y12335700D01*
X-85601366Y12335553D01*
X-85543840Y12222654D01*
X-85543839Y12222652D01*
X-85454248Y12133061D01*
X-85454245Y12133059D01*
X-85416200Y12113675D01*
X-85416200Y12113676D01*
X-84616200Y12113676D01*
X-84578156Y12133059D01*
X-84578153Y12133061D01*
X-84488562Y12222652D01*
X-84488561Y12222654D01*
X-84431035Y12335553D01*
X-84431012Y12335700D01*
X-84616200Y12335700D01*
X-84616200Y12113676D01*
X-85416200Y12113676D01*
X-85416200Y12335700D01*
X-85601389Y12335700D01*
X-89465700Y12335700D01*
X-89465700Y13135701D01*
X-85601389Y13135701D01*
X-85601387Y13135700D01*
X-85416200Y13135700D01*
X-84616200Y13135700D01*
X-84431013Y13135700D01*
X-84431012Y13135701D01*
X-84431035Y13135848D01*
X-84488561Y13248747D01*
X-84488562Y13248749D01*
X-84578155Y13338342D01*
X-84616200Y13357726D01*
X-84616200Y13135700D01*
X-85416200Y13135700D01*
X-85416200Y13357726D01*
X-85416201Y13357726D01*
X-85454246Y13338342D01*
X-85543839Y13248749D01*
X-85543840Y13248747D01*
X-85601366Y13135848D01*
X-85601389Y13135701D01*
X-89465700Y13135701D01*
X-89465700Y14589756D01*
X-89465700Y14589757D01*
X-89486323Y14666724D01*
X-89486323Y14666725D01*
X-89486323Y14666726D01*
X-89506621Y14742478D01*
X-89506622Y14742479D01*
X-89506623Y14742485D01*
X-89549347Y14816485D01*
X-89549347Y14816486D01*
X-89585676Y14879410D01*
X-89585679Y14879413D01*
X-89585680Y14879416D01*
X-89585683Y14879419D01*
X-89585686Y14879423D01*
X-89701873Y14995610D01*
X-89701896Y14995631D01*
X-91291965Y16585700D01*
X-85626389Y16585700D01*
X-85626366Y16585553D01*
X-85568840Y16472654D01*
X-85568839Y16472652D01*
X-85479248Y16383061D01*
X-85479245Y16383059D01*
X-85441200Y16363675D01*
X-85441200Y16363676D01*
X-84641200Y16363676D01*
X-84603156Y16383059D01*
X-84603153Y16383061D01*
X-84513562Y16472652D01*
X-84513561Y16472654D01*
X-84456035Y16585553D01*
X-84456012Y16585700D01*
X-84641200Y16585700D01*
X-84641200Y16363676D01*
X-85441200Y16363676D01*
X-85441200Y16585700D01*
X-85626389Y16585700D01*
X-91291965Y16585700D01*
X-92091966Y17385701D01*
X-85626389Y17385701D01*
X-85626387Y17385700D01*
X-85441200Y17385700D01*
X-84641200Y17385700D01*
X-84456013Y17385700D01*
X-84456012Y17385701D01*
X-84456035Y17385848D01*
X-84513561Y17498747D01*
X-84513562Y17498749D01*
X-84603155Y17588342D01*
X-84641200Y17607726D01*
X-84641200Y17385700D01*
X-85441200Y17385700D01*
X-85441200Y17607726D01*
X-85441201Y17607726D01*
X-85479246Y17588342D01*
X-85568839Y17498749D01*
X-85568840Y17498747D01*
X-85626366Y17385848D01*
X-85626389Y17385701D01*
X-92091966Y17385701D01*
X-94453492Y19747227D01*
X-94453504Y19747241D01*
X-94572478Y19866215D01*
X-94572488Y19866223D01*
X-94688224Y19933042D01*
X-94688224Y19933043D01*
X-94688227Y19933044D01*
X-94709415Y19945277D01*
X-94862143Y19986201D01*
X-95020257Y19986201D01*
X-95027975Y19986201D01*
X-95027991Y19986200D01*
X-95609567Y19986200D01*
X-95677688Y20006202D01*
X-95709964Y20036065D01*
X-95715695Y20043622D01*
X-95723278Y20053622D01*
X-95723280Y20053623D01*
X-95723280Y20053624D01*
X-95843855Y20145059D01*
X-95843859Y20145062D01*
X-95984636Y20200578D01*
X-95984635Y20200578D01*
X-96073095Y20211200D01*
X-96073098Y20211200D01*
X-96559302Y20211200D01*
X-96559306Y20211200D01*
X-96647765Y20200578D01*
X-96788542Y20145062D01*
X-96788546Y20145059D01*
X-96909123Y20053623D01*
X-97000559Y19933046D01*
X-97000560Y19933044D01*
X-97000561Y19933043D01*
X-97000561Y19933042D01*
X-97008446Y19913046D01*
X-97023985Y19873643D01*
X-97067584Y19817610D01*
X-97134555Y19794043D01*
X-97203635Y19810425D01*
X-97252893Y19861554D01*
X-97258415Y19873643D01*
X-97269527Y19901820D01*
X-97281839Y19933042D01*
X-97337318Y20006202D01*
X-97373278Y20053623D01*
X-97493855Y20145059D01*
X-97493859Y20145062D01*
X-97634636Y20200578D01*
X-97634635Y20200578D01*
X-97723095Y20211200D01*
X-97723098Y20211200D01*
X-97960985Y20211200D01*
X-98029106Y20231202D01*
X-98050076Y20248101D01*
X-98668185Y20866210D01*
X-98668187Y20866211D01*
X-98668189Y20866213D01*
X-98793714Y20938684D01*
X-98806269Y20942048D01*
X-98806270Y20942049D01*
X-98887074Y20963700D01*
X-98933725Y20976200D01*
X-98933727Y20976200D01*
X-100325985Y20976200D01*
X-100355901Y20984984D01*
X-100386370Y20991612D01*
X-100391466Y20995427D01*
X-100394106Y20996202D01*
X-100415080Y21013105D01*
X-100553795Y21151820D01*
X-100587821Y21214132D01*
X-100590700Y21240915D01*
X-100590700Y22625700D01*
X-98796065Y22625700D01*
X-98769008Y22567675D01*
X-98684227Y22482894D01*
X-98596200Y22441847D01*
X-98596200Y22625700D01*
X-98796065Y22625700D01*
X-100590700Y22625700D01*
X-100590700Y22986283D01*
X-100570698Y23054404D01*
X-100517042Y23100897D01*
X-100446768Y23111001D01*
X-100382188Y23081507D01*
X-100345771Y23027898D01*
X-100343994Y23022819D01*
X-100343992Y23022815D01*
X-100263351Y22913550D01*
X-100154086Y22832909D01*
X-100154082Y22832907D01*
X-100025899Y22788054D01*
X-99995466Y22785200D01*
X-99995464Y22785200D01*
X-99686936Y22785200D01*
X-99686934Y22785200D01*
X-99656501Y22788054D01*
X-99528318Y22832907D01*
X-99419050Y22913550D01*
X-99355099Y23000201D01*
X-99338409Y23022815D01*
X-99338407Y23022819D01*
X-99338058Y23023814D01*
X-99293554Y23151001D01*
X-99293089Y23155962D01*
X-99291900Y23158948D01*
X-99292357Y23162132D01*
X-99278852Y23191705D01*
X-99266816Y23221918D01*
X-99264198Y23223790D01*
X-99262863Y23226712D01*
X-99235520Y23244285D01*
X-99209054Y23263199D01*
X-99205031Y23263880D01*
X-99203137Y23265096D01*
X-99167639Y23270200D01*
X-98919024Y23270200D01*
X-98850903Y23250198D01*
X-98812757Y23211900D01*
X-98796066Y23185700D01*
X-98583348Y23185700D01*
X-98535128Y23176108D01*
X-98527820Y23173081D01*
X-98441753Y23155961D01*
X-98417618Y23151160D01*
X-98354708Y23118252D01*
X-98319577Y23056557D01*
X-98316200Y23027581D01*
X-98316200Y22905700D01*
X-98162200Y22905700D01*
X-98094079Y22885698D01*
X-98047586Y22832042D01*
X-98036200Y22779700D01*
X-98036200Y22441847D01*
X-97948174Y22482894D01*
X-97863393Y22567675D01*
X-97808645Y22685081D01*
X-97806637Y22684145D01*
X-97775380Y22733010D01*
X-97710862Y22762641D01*
X-97640567Y22752687D01*
X-97603569Y22727057D01*
X-95718680Y20842168D01*
X-95622967Y20778215D01*
X-95599853Y20762771D01*
X-95467820Y20708081D01*
X-95327655Y20680200D01*
X-81188902Y20680200D01*
X-81120781Y20660198D01*
X-81099807Y20643295D01*
X-79883105Y19426594D01*
X-79849080Y19364282D01*
X-79846200Y19337499D01*
X-79846200Y17693640D01*
X-79866202Y17625519D01*
X-79919858Y17579026D01*
X-79990132Y17568922D01*
X-80054712Y17598416D01*
X-80072162Y17616936D01*
X-80095954Y17647942D01*
X-80095956Y17647943D01*
X-80095956Y17647944D01*
X-80214869Y17739189D01*
X-80229047Y17745062D01*
X-80353348Y17796549D01*
X-80425800Y17806087D01*
X-80464639Y17811200D01*
X-80464642Y17811200D01*
X-80976760Y17811200D01*
X-80976769Y17811199D01*
X-81076925Y17798014D01*
X-81088054Y17796548D01*
X-81226530Y17739190D01*
X-81226533Y17739188D01*
X-81345446Y17647943D01*
X-81354995Y17635497D01*
X-81412333Y17593629D01*
X-81454958Y17586200D01*
X-82684567Y17586200D01*
X-82752688Y17606202D01*
X-82784964Y17636065D01*
X-82793971Y17647942D01*
X-82798278Y17653622D01*
X-82798280Y17653623D01*
X-82798280Y17653624D01*
X-82918855Y17745059D01*
X-82918859Y17745062D01*
X-83059636Y17800578D01*
X-83059635Y17800578D01*
X-83148095Y17811200D01*
X-83148098Y17811200D01*
X-83634302Y17811200D01*
X-83634306Y17811200D01*
X-83722765Y17800578D01*
X-83863542Y17745062D01*
X-83863546Y17745059D01*
X-83984123Y17653623D01*
X-84075559Y17533046D01*
X-84075562Y17533042D01*
X-84131078Y17392265D01*
X-84141700Y17303806D01*
X-84141700Y16667595D01*
X-84131078Y16579136D01*
X-84075562Y16438359D01*
X-84075559Y16438355D01*
X-83984123Y16317778D01*
X-83863546Y16226342D01*
X-83863542Y16226339D01*
X-83722765Y16170823D01*
X-83722766Y16170823D01*
X-83694806Y16167466D01*
X-83634302Y16160200D01*
X-83634299Y16160200D01*
X-83148101Y16160200D01*
X-83148098Y16160200D01*
X-83059636Y16170823D01*
X-82918858Y16226339D01*
X-82798278Y16317778D01*
X-82784964Y16335335D01*
X-82727864Y16377527D01*
X-82684567Y16385200D01*
X-81454958Y16385200D01*
X-81386837Y16365198D01*
X-81354995Y16335903D01*
X-81345444Y16323456D01*
X-81226531Y16232211D01*
X-81088054Y16174852D01*
X-80976761Y16160200D01*
X-80464640Y16160201D01*
X-80353346Y16174852D01*
X-80214869Y16232211D01*
X-80095956Y16323456D01*
X-80033163Y16405291D01*
X-79975825Y16447158D01*
X-79904954Y16451380D01*
X-79843051Y16416616D01*
X-79833240Y16405294D01*
X-79770444Y16323456D01*
X-79651531Y16232211D01*
X-79513054Y16174852D01*
X-79401761Y16160200D01*
X-78889640Y16160201D01*
X-78778346Y16174852D01*
X-78639869Y16232211D01*
X-78520956Y16323456D01*
X-78429711Y16442369D01*
X-78372352Y16580846D01*
X-78357700Y16692139D01*
X-78357701Y17279260D01*
X-78358201Y17283055D01*
X-78360932Y17303806D01*
X-78372352Y17390554D01*
X-78385609Y17422560D01*
X-78395200Y17470778D01*
X-78395200Y19761656D01*
X-78395201Y19761659D01*
X-78423081Y19901820D01*
X-78477771Y20033853D01*
X-78557168Y20152679D01*
X-78658221Y20253732D01*
X-79280719Y20876230D01*
X-79953795Y21549307D01*
X-79987821Y21611619D01*
X-79990700Y21638402D01*
X-79990700Y23722911D01*
X-79970698Y23791032D01*
X-79917042Y23837525D01*
X-79846768Y23847629D01*
X-79782188Y23818135D01*
X-79748292Y23771131D01*
X-79738998Y23748693D01*
X-79728120Y23722431D01*
X-79646502Y23600281D01*
X-79646497Y23600275D01*
X-79542626Y23496404D01*
X-79542620Y23496399D01*
X-79420469Y23414780D01*
X-79284742Y23358560D01*
X-79160679Y23333883D01*
X-79140661Y23329901D01*
X-79140658Y23329901D01*
X-79140655Y23329900D01*
X-79140654Y23329900D01*
X-78993746Y23329900D01*
X-78993745Y23329900D01*
X-78849658Y23358560D01*
X-78713931Y23414780D01*
X-78591780Y23496399D01*
X-78487899Y23600280D01*
X-78406280Y23722431D01*
X-78350060Y23858158D01*
X-78321400Y24002245D01*
X-78321400Y24149155D01*
X-78350060Y24293242D01*
X-78406280Y24428969D01*
X-78487899Y24551120D01*
X-78487904Y24551126D01*
X-78591778Y24655000D01*
X-78592441Y24655544D01*
X-78592696Y24655918D01*
X-78596156Y24659378D01*
X-78595500Y24660035D01*
X-78632408Y24714222D01*
X-78632983Y24735708D01*
X-78686199Y24788924D01*
X-78698195Y24788924D01*
X-78734091Y24769324D01*
X-78804906Y24774390D01*
X-78809089Y24776036D01*
X-78849653Y24792838D01*
X-78849654Y24792839D01*
X-78849658Y24792840D01*
X-78897162Y24802289D01*
X-78993740Y24821500D01*
X-78993745Y24821500D01*
X-79140655Y24821500D01*
X-79140661Y24821500D01*
X-79264159Y24796935D01*
X-79284742Y24792840D01*
X-79284745Y24792840D01*
X-79284748Y24792838D01*
X-79420469Y24736620D01*
X-79542620Y24655002D01*
X-79542626Y24654997D01*
X-79646497Y24551126D01*
X-79646502Y24551120D01*
X-79728120Y24428969D01*
X-79748291Y24380272D01*
X-79792840Y24324991D01*
X-79860203Y24302570D01*
X-79928994Y24320128D01*
X-79977373Y24372091D01*
X-79990700Y24428490D01*
X-79990700Y25308776D01*
X-79279900Y25308776D01*
X-79242976Y25345699D01*
X-79242976Y25345701D01*
X-79279900Y25382625D01*
X-79279900Y25308776D01*
X-79990700Y25308776D01*
X-79990700Y27159200D01*
X-79970698Y27227321D01*
X-79917042Y27273814D01*
X-79864700Y27285200D01*
X-79369626Y27285200D01*
X-79301505Y27265198D01*
X-79255012Y27211542D01*
X-79244908Y27141268D01*
X-79264861Y27089198D01*
X-79345702Y26968212D01*
X-79401799Y26832781D01*
X-79401801Y26832776D01*
X-79430400Y26689000D01*
X-79430400Y26542401D01*
X-79401801Y26398625D01*
X-79401799Y26398620D01*
X-79396447Y26385700D01*
X-79345702Y26263189D01*
X-79307624Y26206202D01*
X-79264259Y26141301D01*
X-79264254Y26141295D01*
X-79160606Y26037647D01*
X-79160600Y26037642D01*
X-79038711Y25956198D01*
X-78903275Y25900099D01*
X-78787619Y25877094D01*
X-78724709Y25844187D01*
X-78689577Y25782492D01*
X-78686200Y25753515D01*
X-78686200Y25345700D01*
X-78278385Y25345700D01*
X-78210264Y25325698D01*
X-78163771Y25272042D01*
X-78154807Y25244283D01*
X-78131801Y25128625D01*
X-78075702Y24993189D01*
X-78035649Y24933246D01*
X-77994259Y24871301D01*
X-77994254Y24871295D01*
X-77890606Y24767647D01*
X-77890600Y24767642D01*
X-77768711Y24686198D01*
X-77722046Y24666869D01*
X-77719084Y24665642D01*
X-77663803Y24621094D01*
X-77641382Y24553730D01*
X-77658940Y24484939D01*
X-77662536Y24479233D01*
X-77696119Y24428972D01*
X-77696120Y24428970D01*
X-77752338Y24293248D01*
X-77752340Y24293241D01*
X-77781000Y24149161D01*
X-77781000Y24002240D01*
X-77760529Y23899326D01*
X-77752340Y23858158D01*
X-77696120Y23722431D01*
X-77677748Y23694936D01*
X-77614502Y23600281D01*
X-77614497Y23600275D01*
X-77510626Y23496404D01*
X-77510620Y23496399D01*
X-77388469Y23414780D01*
X-77252742Y23358560D01*
X-77128679Y23333883D01*
X-77108661Y23329901D01*
X-77108658Y23329901D01*
X-77108655Y23329900D01*
X-77108654Y23329900D01*
X-76961746Y23329900D01*
X-76961745Y23329900D01*
X-76817658Y23358560D01*
X-76681931Y23414780D01*
X-76559780Y23496399D01*
X-76455899Y23600280D01*
X-76374280Y23722431D01*
X-76318060Y23858158D01*
X-76289400Y24002245D01*
X-76289400Y24149155D01*
X-76318060Y24293242D01*
X-76374280Y24428969D01*
X-76455899Y24551120D01*
X-76455904Y24551126D01*
X-76559775Y24654997D01*
X-76559781Y24655002D01*
X-76681932Y24736621D01*
X-76681937Y24736623D01*
X-76732919Y24757741D01*
X-76788200Y24802289D01*
X-76810620Y24869653D01*
X-76793061Y24938444D01*
X-76789488Y24944117D01*
X-76756698Y24993189D01*
X-76700599Y25128625D01*
X-76672000Y25272403D01*
X-76672000Y25418997D01*
X-76700599Y25562775D01*
X-76756698Y25698211D01*
X-76838142Y25820100D01*
X-76909649Y25891607D01*
X-76943672Y25953916D01*
X-76938608Y26024732D01*
X-76909649Y26069794D01*
X-76838142Y26141300D01*
X-76756698Y26263189D01*
X-76700599Y26398625D01*
X-76672000Y26542403D01*
X-76672000Y26688997D01*
X-76700599Y26832775D01*
X-76756698Y26968211D01*
X-76794152Y27024264D01*
X-76815366Y27092016D01*
X-76796583Y27160483D01*
X-76743766Y27207926D01*
X-76673683Y27219283D01*
X-76619386Y27199031D01*
X-76519063Y27131997D01*
X-76364282Y27067884D01*
X-76199967Y27035200D01*
X-76199966Y27035200D01*
X-76032434Y27035200D01*
X-76032433Y27035200D01*
X-75868118Y27067884D01*
X-75713337Y27131997D01*
X-75574038Y27225074D01*
X-75455574Y27343538D01*
X-75362497Y27482837D01*
X-75298384Y27637618D01*
X-75265700Y27801933D01*
X-75265700Y27969467D01*
X-75298384Y28133782D01*
X-75362497Y28288563D01*
X-75455574Y28427862D01*
X-75455579Y28427868D01*
X-75574033Y28546322D01*
X-75574039Y28546327D01*
X-75687075Y28621855D01*
X-75713337Y28639403D01*
X-75855738Y28698388D01*
X-75868115Y28703515D01*
X-75868117Y28703516D01*
X-75868118Y28703516D01*
X-75976523Y28725079D01*
X-76032431Y28736200D01*
X-76032433Y28736200D01*
X-76199967Y28736200D01*
X-76199970Y28736200D01*
X-76322370Y28711853D01*
X-76364282Y28703516D01*
X-76364283Y28703516D01*
X-76364286Y28703515D01*
X-76519065Y28639402D01*
X-76658362Y28546327D01*
X-76658368Y28546322D01*
X-76681584Y28523105D01*
X-76708953Y28508161D01*
X-76735181Y28491304D01*
X-76741480Y28490399D01*
X-76743896Y28489079D01*
X-76770679Y28486200D01*
X-76937165Y28486200D01*
X-77005286Y28506202D01*
X-77007167Y28507435D01*
X-77030619Y28523105D01*
X-77063689Y28545202D01*
X-77199125Y28601301D01*
X-77302459Y28621856D01*
X-77365367Y28654763D01*
X-77400499Y28716458D01*
X-77396699Y28787353D01*
X-77392586Y28796686D01*
X-77392649Y28796712D01*
X-77390280Y28802431D01*
X-77334060Y28938158D01*
X-77305400Y29082245D01*
X-77305400Y29229155D01*
X-77334060Y29373242D01*
X-77390280Y29508969D01*
X-77471899Y29631120D01*
X-77471904Y29631126D01*
X-77575775Y29734997D01*
X-77575781Y29735002D01*
X-77641074Y29778629D01*
X-77697931Y29816620D01*
X-77833658Y29872840D01*
X-77875698Y29881202D01*
X-77977740Y29901500D01*
X-77977745Y29901500D01*
X-78124655Y29901500D01*
X-78124661Y29901500D01*
X-78248159Y29876935D01*
X-78268742Y29872840D01*
X-78268745Y29872840D01*
X-78268748Y29872838D01*
X-78404469Y29816620D01*
X-78526620Y29735002D01*
X-78526626Y29734997D01*
X-78630497Y29631126D01*
X-78630502Y29631120D01*
X-78712120Y29508969D01*
X-78768338Y29373248D01*
X-78768340Y29373241D01*
X-78797000Y29229161D01*
X-78797000Y29082240D01*
X-78780780Y29000700D01*
X-78768340Y28938158D01*
X-78768339Y28938154D01*
X-78768338Y28938153D01*
X-78748735Y28890827D01*
X-78712299Y28802862D01*
X-78709751Y28796712D01*
X-78711554Y28795966D01*
X-78698933Y28735305D01*
X-78724346Y28669012D01*
X-78781566Y28626983D01*
X-78799943Y28621855D01*
X-78903276Y28601301D01*
X-78903281Y28601299D01*
X-79038711Y28545202D01*
X-79095233Y28507435D01*
X-79162986Y28486220D01*
X-79165235Y28486200D01*
X-79889700Y28486200D01*
X-79957821Y28506202D01*
X-80004314Y28559858D01*
X-80015700Y28612200D01*
X-80015700Y29107156D01*
X-80015701Y29107159D01*
X-80017144Y29114413D01*
X-80043581Y29247320D01*
X-80098271Y29379353D01*
X-80098273Y29379355D01*
X-80098273Y29379357D01*
X-80110275Y29397319D01*
X-80124229Y29418202D01*
X-80177668Y29498180D01*
X-80177673Y29498185D01*
X-80177675Y29498188D01*
X-80378713Y29699226D01*
X-80378719Y29699231D01*
X-80378720Y29699232D01*
X-80497547Y29778629D01*
X-80607533Y29824187D01*
X-80629577Y29833318D01*
X-80629580Y29833319D01*
X-80769742Y29861200D01*
X-80769745Y29861200D01*
X-81339700Y29861200D01*
X-81407821Y29881202D01*
X-81454314Y29934858D01*
X-81465700Y29987200D01*
X-81465700Y30018956D01*
X-81465700Y30018960D01*
X-81475627Y30087093D01*
X-81527002Y30192183D01*
X-81527004Y30192186D01*
X-81609715Y30274897D01*
X-81609718Y30274899D01*
X-81714806Y30326273D01*
X-81782939Y30336200D01*
X-81782940Y30336200D01*
X-81864700Y30336200D01*
X-81932821Y30356202D01*
X-81979314Y30409858D01*
X-81990700Y30462200D01*
X-81990700Y33987156D01*
X-81990701Y33987159D01*
X-81993717Y34002321D01*
X-82018581Y34127320D01*
X-82073271Y34259353D01*
X-82087984Y34281372D01*
X-82087985Y34281376D01*
X-82087986Y34281375D01*
X-82152668Y34378180D01*
X-82152669Y34378181D01*
X-82152672Y34378185D01*
X-83123713Y35349226D01*
X-83123719Y35349231D01*
X-83123720Y35349232D01*
X-83242547Y35428629D01*
X-83325806Y35463116D01*
X-83374577Y35483318D01*
X-83374580Y35483319D01*
X-83514742Y35511200D01*
X-83514745Y35511200D01*
X-94694745Y35511200D01*
X-105137655Y35511200D01*
X-105137659Y35511200D01*
X-105277821Y35483319D01*
X-105277824Y35483318D01*
X-105409853Y35428629D01*
X-105528682Y35349231D01*
X-105528688Y35349226D01*
X-108439726Y32438188D01*
X-108439731Y32438182D01*
X-108505867Y32339201D01*
X-108505868Y32339202D01*
X-108519127Y32319358D01*
X-108519129Y32319354D01*
X-108573818Y32187324D01*
X-108573819Y32187321D01*
X-108601700Y32047159D01*
X-108601700Y31018403D01*
X-108621702Y30950282D01*
X-108638605Y30929308D01*
X-109379729Y30188185D01*
X-109379732Y30188181D01*
X-109432837Y30108701D01*
X-109432838Y30108700D01*
X-109459129Y30069353D01*
X-109513819Y29937320D01*
X-109513821Y29937313D01*
X-109527291Y29869601D01*
X-109546101Y29824187D01*
X-109569904Y29788562D01*
X-109634015Y29633786D01*
X-109634016Y29633783D01*
X-109634016Y29633782D01*
X-109635375Y29626950D01*
X-109666700Y29469470D01*
X-109666700Y29301931D01*
X-109651609Y29226065D01*
X-109635348Y29144313D01*
X-109634015Y29137615D01*
X-109619689Y29103030D01*
X-109569903Y28982837D01*
X-109569902Y28982836D01*
X-109476827Y28843539D01*
X-109476822Y28843533D01*
X-109358368Y28725079D01*
X-109358362Y28725074D01*
X-109219063Y28631997D01*
X-109064282Y28567884D01*
X-108899967Y28535200D01*
X-108899966Y28535200D01*
X-108732434Y28535200D01*
X-108732433Y28535200D01*
X-108568118Y28567884D01*
X-108413337Y28631997D01*
X-108274038Y28725074D01*
X-108155574Y28843538D01*
X-108062497Y28982837D01*
X-107998384Y29137618D01*
X-107965700Y29301933D01*
X-107965700Y29469467D01*
X-107965952Y29470733D01*
X-107965892Y29471407D01*
X-107966307Y29475623D01*
X-107965508Y29475702D01*
X-107959632Y29541445D01*
X-107931475Y29584415D01*
X-107312668Y30203221D01*
X-107261032Y30280499D01*
X-106091200Y30280499D01*
X-106091200Y29798200D01*
X-105891200Y29798200D01*
X-105891200Y30519489D01*
X-105891201Y30519490D01*
X-105963677Y30487489D01*
X-106042988Y30408178D01*
X-106088291Y30305574D01*
X-106091200Y30280499D01*
X-107261032Y30280499D01*
X-107233271Y30322047D01*
X-107178581Y30454080D01*
X-107150700Y30594245D01*
X-107150700Y30737155D01*
X-107150700Y31622998D01*
X-107130698Y31691119D01*
X-107113795Y31712093D01*
X-106040188Y32785700D01*
X-100876389Y32785700D01*
X-100876366Y32785553D01*
X-100818840Y32672654D01*
X-100818839Y32672652D01*
X-100729248Y32583061D01*
X-100729245Y32583059D01*
X-100691200Y32563675D01*
X-100691200Y32563676D01*
X-99891200Y32563676D01*
X-99853156Y32583059D01*
X-99853153Y32583061D01*
X-99763562Y32672652D01*
X-99763561Y32672654D01*
X-99706035Y32785553D01*
X-99706012Y32785700D01*
X-99891200Y32785700D01*
X-99891200Y32563676D01*
X-100691200Y32563676D01*
X-100691200Y32785700D01*
X-100876389Y32785700D01*
X-106040188Y32785700D01*
X-104802593Y34023295D01*
X-104740281Y34057321D01*
X-104713498Y34060200D01*
X-100720520Y34060200D01*
X-100652399Y34040198D01*
X-100605906Y33986542D01*
X-100595802Y33916268D01*
X-100625296Y33851688D01*
X-100663317Y33821933D01*
X-100729247Y33788340D01*
X-100729249Y33788339D01*
X-100818839Y33698749D01*
X-100818840Y33698747D01*
X-100876366Y33585848D01*
X-100876389Y33585701D01*
X-100876387Y33585700D01*
X-99706013Y33585700D01*
X-99706012Y33585701D01*
X-99706035Y33585848D01*
X-99763561Y33698747D01*
X-99763562Y33698749D01*
X-99853152Y33788339D01*
X-99853154Y33788340D01*
X-99919083Y33821933D01*
X-99970698Y33870682D01*
X-99987764Y33939597D01*
X-99964863Y34006798D01*
X-99909265Y34050950D01*
X-99861880Y34060200D01*
X-99331149Y34060200D01*
X-99263028Y34040198D01*
X-99216535Y33986542D01*
X-99206431Y33916268D01*
X-99230752Y33858066D01*
X-99325559Y33733046D01*
X-99325562Y33733042D01*
X-99381078Y33592265D01*
X-99391700Y33503806D01*
X-99391700Y32867595D01*
X-99381078Y32779136D01*
X-99325562Y32638359D01*
X-99325559Y32638355D01*
X-99234123Y32517778D01*
X-99113546Y32426342D01*
X-99113542Y32426339D01*
X-98972765Y32370823D01*
X-98972766Y32370823D01*
X-98944806Y32367466D01*
X-98884302Y32360200D01*
X-98884299Y32360200D01*
X-98398101Y32360200D01*
X-98398098Y32360200D01*
X-98309636Y32370823D01*
X-98168858Y32426339D01*
X-98048278Y32517778D01*
X-98034964Y32535335D01*
X-97977864Y32577527D01*
X-97934567Y32585200D01*
X-97587650Y32585200D01*
X-97565364Y32578657D01*
X-97542218Y32576724D01*
X-97524065Y32566530D01*
X-97519529Y32565198D01*
X-97510948Y32559164D01*
X-97496612Y32548164D01*
X-97454743Y32490827D01*
X-97450520Y32419956D01*
X-97485283Y32358052D01*
X-97496607Y32348240D01*
X-97534253Y32319353D01*
X-97578444Y32285444D01*
X-97669688Y32166533D01*
X-97669690Y32166530D01*
X-97727049Y32028053D01*
X-97741700Y31916764D01*
X-97741700Y31404641D01*
X-97741699Y31404632D01*
X-97731315Y31325757D01*
X-97727048Y31293346D01*
X-97669689Y31154869D01*
X-97578445Y31035958D01*
X-97578443Y31035955D01*
X-97515997Y30988039D01*
X-97474129Y30930701D01*
X-97466700Y30888076D01*
X-97466700Y30613228D01*
X-97466701Y30613228D01*
X-97429183Y30473211D01*
X-97356713Y30347689D01*
X-97356705Y30347679D01*
X-96368217Y29359192D01*
X-96334192Y29296880D01*
X-96339256Y29226065D01*
X-96381803Y29169229D01*
X-96432586Y29148595D01*
X-96432196Y29146912D01*
X-96438226Y29145518D01*
X-96438227Y29145517D01*
X-96443431Y29144313D01*
X-96552241Y29119141D01*
X-96552243Y29119140D01*
X-96581177Y29107155D01*
X-96591136Y29103030D01*
X-96591153Y29103022D01*
X-96630715Y29083682D01*
X-96721562Y29009907D01*
X-96783532Y28910633D01*
X-96783534Y28910629D01*
X-96799636Y28871754D01*
X-96807439Y28851129D01*
X-96818081Y28787353D01*
X-96826700Y28735700D01*
X-96826700Y28735697D01*
X-96826700Y28322200D01*
X-96846702Y28254079D01*
X-96900358Y28207586D01*
X-96952700Y28196200D01*
X-97366200Y28196200D01*
X-97385636Y28195598D01*
X-97388229Y28195517D01*
X-97414487Y28189442D01*
X-97442886Y28186200D01*
X-97639700Y28186200D01*
X-97707821Y28206202D01*
X-97754314Y28259858D01*
X-97765700Y28312200D01*
X-97765700Y28344466D01*
X-97765701Y28344470D01*
X-97768810Y28360100D01*
X-97798384Y28508782D01*
X-97862497Y28663563D01*
X-97955574Y28802862D01*
X-97955579Y28802868D01*
X-98074033Y28921322D01*
X-98074039Y28921327D01*
X-98192829Y29000700D01*
X-98213337Y29014403D01*
X-98322780Y29059736D01*
X-98368115Y29078515D01*
X-98368117Y29078516D01*
X-98368118Y29078516D01*
X-98450832Y29094969D01*
X-98532431Y29111200D01*
X-98532433Y29111200D01*
X-98699967Y29111200D01*
X-98699970Y29111200D01*
X-98822370Y29086853D01*
X-98864282Y29078516D01*
X-98864283Y29078516D01*
X-98864286Y29078515D01*
X-99019065Y29014402D01*
X-99158362Y28921327D01*
X-99158368Y28921322D01*
X-99226105Y28853584D01*
X-99288417Y28819558D01*
X-99359232Y28824623D01*
X-99416068Y28867170D01*
X-99440879Y28933690D01*
X-99441200Y28942679D01*
X-99441200Y29398200D01*
X-99715200Y29398200D01*
X-99783321Y29418202D01*
X-99828010Y29468077D01*
X-99927510Y29668077D01*
X-99927891Y29670216D01*
X-99929314Y29671858D01*
X-99940700Y29724200D01*
X-99940700Y29798200D01*
X-99641200Y29798200D01*
X-99441201Y29798200D01*
X-99441201Y30280489D01*
X-99441202Y30280495D01*
X-99444110Y30305574D01*
X-99444112Y30305579D01*
X-99489413Y30408177D01*
X-99568723Y30487488D01*
X-99568724Y30487489D01*
X-99641200Y30519490D01*
X-99641200Y29798200D01*
X-99940700Y29798200D01*
X-99940700Y30289965D01*
X-99940700Y30289966D01*
X-99943554Y30320399D01*
X-99988407Y30448582D01*
X-100017121Y30487488D01*
X-100035916Y30512955D01*
X-100035917Y30512956D01*
X-100069050Y30557850D01*
X-100069052Y30557851D01*
X-100069052Y30557852D01*
X-100178315Y30638492D01*
X-100178319Y30638494D01*
X-100306496Y30683345D01*
X-100306500Y30683346D01*
X-100336934Y30686200D01*
X-100645466Y30686200D01*
X-100645467Y30686200D01*
X-100675901Y30683346D01*
X-100675905Y30683345D01*
X-100804082Y30638494D01*
X-100804086Y30638492D01*
X-100913351Y30557851D01*
X-100993992Y30448586D01*
X-100993994Y30448582D01*
X-101022271Y30367770D01*
X-101063649Y30310078D01*
X-101129650Y30283916D01*
X-101199317Y30297589D01*
X-101250533Y30346757D01*
X-101260129Y30367770D01*
X-101288407Y30448582D01*
X-101288409Y30448586D01*
X-101369050Y30557851D01*
X-101478315Y30638492D01*
X-101478319Y30638494D01*
X-101606496Y30683345D01*
X-101606500Y30683346D01*
X-101636934Y30686200D01*
X-101945466Y30686200D01*
X-101945467Y30686200D01*
X-101975901Y30683346D01*
X-101975905Y30683345D01*
X-102104082Y30638494D01*
X-102104086Y30638492D01*
X-102213351Y30557851D01*
X-102293992Y30448586D01*
X-102293994Y30448582D01*
X-102322271Y30367770D01*
X-102363649Y30310078D01*
X-102429650Y30283916D01*
X-102499317Y30297589D01*
X-102550533Y30346757D01*
X-102560129Y30367770D01*
X-102588407Y30448582D01*
X-102588409Y30448586D01*
X-102669050Y30557851D01*
X-102778315Y30638492D01*
X-102778319Y30638494D01*
X-102906496Y30683345D01*
X-102906500Y30683346D01*
X-102936934Y30686200D01*
X-103245466Y30686200D01*
X-103245467Y30686200D01*
X-103275901Y30683346D01*
X-103275905Y30683345D01*
X-103404082Y30638494D01*
X-103404086Y30638492D01*
X-103513351Y30557851D01*
X-103593992Y30448586D01*
X-103593994Y30448582D01*
X-103638845Y30320405D01*
X-103638846Y30320401D01*
X-103641700Y30289967D01*
X-103641700Y29724200D01*
X-103654890Y29668077D01*
X-103754390Y29468077D01*
X-103759206Y29462880D01*
X-103761202Y29456079D01*
X-103783021Y29437174D01*
X-103802640Y29415996D01*
X-103809503Y29414227D01*
X-103814858Y29409586D01*
X-103867200Y29398200D01*
X-104265200Y29398200D01*
X-104333321Y29418202D01*
X-104379814Y29471858D01*
X-104391200Y29524200D01*
X-104391200Y29598201D01*
X-104402215Y29609216D01*
X-104432821Y29618202D01*
X-104479314Y29671858D01*
X-104490700Y29724200D01*
X-104490700Y30289965D01*
X-104490700Y30289966D01*
X-104493554Y30320399D01*
X-104538407Y30448582D01*
X-104567121Y30487488D01*
X-104585916Y30512955D01*
X-104585917Y30512956D01*
X-104590739Y30519489D01*
X-104191200Y30519489D01*
X-104191200Y29798200D01*
X-103941200Y29798200D01*
X-103941200Y30519489D01*
X-104015307Y30486768D01*
X-104085703Y30477552D01*
X-104117093Y30486768D01*
X-104191200Y30519489D01*
X-104590739Y30519489D01*
X-104619050Y30557850D01*
X-104619052Y30557851D01*
X-104619052Y30557852D01*
X-104728315Y30638492D01*
X-104728319Y30638494D01*
X-104856496Y30683345D01*
X-104856500Y30683346D01*
X-104886934Y30686200D01*
X-105195466Y30686200D01*
X-105195467Y30686200D01*
X-105225901Y30683346D01*
X-105225905Y30683345D01*
X-105354082Y30638494D01*
X-105354086Y30638492D01*
X-105463351Y30557851D01*
X-105543992Y30448586D01*
X-105543994Y30448582D01*
X-105588845Y30320405D01*
X-105588846Y30320401D01*
X-105591700Y30289967D01*
X-105591700Y29724200D01*
X-105604890Y29668077D01*
X-105704390Y29468077D01*
X-105709206Y29462880D01*
X-105711202Y29456079D01*
X-105733021Y29437174D01*
X-105752640Y29415996D01*
X-105759503Y29414227D01*
X-105764858Y29409586D01*
X-105817200Y29398200D01*
X-106091199Y29398200D01*
X-106091199Y28915906D01*
X-106088291Y28890827D01*
X-106088289Y28890822D01*
X-106042988Y28788223D01*
X-106036389Y28778591D01*
X-106037640Y28777735D01*
X-106009797Y28726746D01*
X-106014862Y28655931D01*
X-106043817Y28610873D01*
X-106056824Y28597866D01*
X-106056828Y28597861D01*
X-106149902Y28458565D01*
X-106214015Y28303786D01*
X-106246700Y28139470D01*
X-106246700Y28002200D01*
X-106266702Y27934079D01*
X-106320358Y27887586D01*
X-106372700Y27876200D01*
X-111226700Y27876200D01*
X-111294821Y27896202D01*
X-111341314Y27949858D01*
X-111352700Y28002200D01*
X-111352701Y29573565D01*
X-111352701Y29573572D01*
X-111359109Y29633183D01*
X-111370051Y29662518D01*
X-111375114Y29733332D01*
X-111341091Y29795642D01*
X-110185434Y30951296D01*
X-110123122Y30985321D01*
X-110096339Y30988200D01*
X-109873101Y30988200D01*
X-109873098Y30988200D01*
X-109784636Y30998823D01*
X-109643858Y31054339D01*
X-109523278Y31145778D01*
X-109431839Y31266358D01*
X-109376323Y31407136D01*
X-109365700Y31495598D01*
X-109365700Y32131802D01*
X-109375272Y32211513D01*
X-109376323Y32220265D01*
X-109431839Y32361042D01*
X-109431842Y32361046D01*
X-109523277Y32481621D01*
X-109523280Y32481623D01*
X-109570835Y32517686D01*
X-109613027Y32574785D01*
X-109620700Y32618083D01*
X-109620700Y33258354D01*
X-109620699Y33258367D01*
X-109620699Y33406882D01*
X-109620699Y33406883D01*
X-109656511Y33540535D01*
X-109682588Y33585701D01*
X-109725693Y33660362D01*
X-109725698Y33660368D01*
X-110125530Y34060200D01*
X-111527321Y35461990D01*
X-111561344Y35524300D01*
X-111562673Y35570790D01*
X-111535700Y35741089D01*
X-111535700Y35914311D01*
X-111562798Y36085401D01*
X-111616327Y36250145D01*
X-111649881Y36315999D01*
X-94016200Y36315999D01*
X-94004596Y36257664D01*
X-93960393Y36191508D01*
X-93894237Y36147305D01*
X-93835902Y36135701D01*
X-93835897Y36135700D01*
X-93691200Y36135700D01*
X-92391200Y36135700D01*
X-92246503Y36135700D01*
X-92246499Y36135701D01*
X-92188164Y36147305D01*
X-92122008Y36191508D01*
X-92077805Y36257664D01*
X-92066201Y36315999D01*
X-86066200Y36315999D01*
X-86054596Y36257664D01*
X-86010393Y36191508D01*
X-85944237Y36147305D01*
X-85885902Y36135701D01*
X-85885897Y36135700D01*
X-85741200Y36135700D01*
X-84441200Y36135700D01*
X-84296503Y36135700D01*
X-84296499Y36135701D01*
X-84238164Y36147305D01*
X-84172008Y36191508D01*
X-84127805Y36257664D01*
X-84116201Y36315999D01*
X-84116200Y36316004D01*
X-84116200Y36335700D01*
X-84441200Y36335700D01*
X-84441200Y36135700D01*
X-85741200Y36135700D01*
X-85741200Y36335700D01*
X-86066200Y36335700D01*
X-86066200Y36315999D01*
X-92066201Y36315999D01*
X-92066200Y36316004D01*
X-92066200Y36335700D01*
X-92391200Y36335700D01*
X-92391200Y36135700D01*
X-93691200Y36135700D01*
X-93691200Y36335700D01*
X-94016200Y36335700D01*
X-94016200Y36315999D01*
X-111649881Y36315999D01*
X-111694968Y36404488D01*
X-111796786Y36544628D01*
X-111796788Y36544631D01*
X-111919270Y36667113D01*
X-112059412Y36768932D01*
X-112213748Y36847570D01*
X-112213752Y36847572D01*
X-112213755Y36847573D01*
X-112378499Y36901102D01*
X-112549589Y36928200D01*
X-112722811Y36928200D01*
X-112893901Y36901102D01*
X-112893904Y36901102D01*
X-112893905Y36901101D01*
X-112930864Y36889092D01*
X-113058645Y36847573D01*
X-113058647Y36847573D01*
X-113058653Y36847570D01*
X-113197498Y36776825D01*
X-113267275Y36763721D01*
X-113333059Y36790422D01*
X-113373965Y36848449D01*
X-113380700Y36889092D01*
X-113380700Y37325005D01*
X-113360698Y37393126D01*
X-113328761Y37426941D01*
X-113246004Y37487068D01*
X-113189272Y37528286D01*
X-113066786Y37650772D01*
X-112964968Y37790912D01*
X-112886327Y37945255D01*
X-112832798Y38109999D01*
X-112805700Y38281089D01*
X-112805700Y38454311D01*
X-112832798Y38625401D01*
X-112886327Y38790145D01*
X-112964968Y38944488D01*
X-113066786Y39084628D01*
X-113066788Y39084631D01*
X-113133119Y39150962D01*
X-112466700Y39150962D01*
X-112466700Y37584439D01*
X-112456773Y37516306D01*
X-112405399Y37411218D01*
X-112405397Y37411215D01*
X-112322686Y37328504D01*
X-112322683Y37328502D01*
X-112217593Y37277127D01*
X-112149460Y37267200D01*
X-112149455Y37267200D01*
X-110582945Y37267200D01*
X-110582940Y37267200D01*
X-110514807Y37277127D01*
X-110409717Y37328502D01*
X-110327002Y37411217D01*
X-110275627Y37516307D01*
X-110265700Y37584440D01*
X-110265700Y37655402D01*
X-94016200Y37655402D01*
X-94016200Y37635700D01*
X-93691200Y37635700D01*
X-92391200Y37635700D01*
X-92066200Y37635700D01*
X-92066200Y37655397D01*
X-92066201Y37655402D01*
X-86066200Y37655402D01*
X-86066200Y37635700D01*
X-85741200Y37635700D01*
X-84441200Y37635700D01*
X-84116200Y37635700D01*
X-84116200Y37655397D01*
X-84116201Y37655402D01*
X-84127805Y37713737D01*
X-84172008Y37779893D01*
X-84238164Y37824096D01*
X-84296499Y37835700D01*
X-84441200Y37835700D01*
X-84441200Y37635700D01*
X-85741200Y37635700D01*
X-85741200Y37835700D01*
X-85885902Y37835700D01*
X-85944237Y37824096D01*
X-86010393Y37779893D01*
X-86054596Y37713737D01*
X-86066200Y37655402D01*
X-92066201Y37655402D01*
X-92077805Y37713737D01*
X-92122008Y37779893D01*
X-92188164Y37824096D01*
X-92246499Y37835700D01*
X-92391200Y37835700D01*
X-92391200Y37635700D01*
X-93691200Y37635700D01*
X-93691200Y37835700D01*
X-93835902Y37835700D01*
X-93894237Y37824096D01*
X-93960393Y37779893D01*
X-94004596Y37713737D01*
X-94016200Y37655402D01*
X-110265700Y37655402D01*
X-110265700Y38301377D01*
X-79686700Y38301377D01*
X-79686700Y38026024D01*
X-79650762Y37753041D01*
X-79628170Y37668727D01*
X-79579495Y37487068D01*
X-79548077Y37411218D01*
X-79474123Y37232678D01*
X-79474117Y37232667D01*
X-79336452Y36994225D01*
X-79168828Y36775772D01*
X-79168819Y36775762D01*
X-78974139Y36581082D01*
X-78974129Y36581073D01*
X-78755676Y36413449D01*
X-78517234Y36275784D01*
X-78517223Y36275778D01*
X-78517221Y36275777D01*
X-78262832Y36170405D01*
X-77996866Y36099140D01*
X-77996862Y36099140D01*
X-77996860Y36099139D01*
X-77926504Y36089877D01*
X-77723874Y36063200D01*
X-77723867Y36063200D01*
X-77448533Y36063200D01*
X-77448526Y36063200D01*
X-77201809Y36095681D01*
X-77175541Y36099139D01*
X-77175541Y36099140D01*
X-77175534Y36099140D01*
X-76909568Y36170405D01*
X-76655179Y36275777D01*
X-76416721Y36413451D01*
X-76198272Y36581072D01*
X-76003572Y36775772D01*
X-75835951Y36994221D01*
X-75698277Y37232679D01*
X-75592905Y37487068D01*
X-75521640Y37753034D01*
X-75485700Y38026026D01*
X-75485700Y38301374D01*
X-75521640Y38574366D01*
X-75592905Y38840332D01*
X-75698277Y39094721D01*
X-75698278Y39094723D01*
X-75698284Y39094734D01*
X-75835949Y39333176D01*
X-75877687Y39387570D01*
X-76003572Y39551628D01*
X-76003573Y39551629D01*
X-76003582Y39551639D01*
X-76198262Y39746319D01*
X-76198272Y39746328D01*
X-76416725Y39913952D01*
X-76655167Y40051617D01*
X-76655178Y40051623D01*
X-76782374Y40104309D01*
X-76909568Y40156995D01*
X-77175534Y40228260D01*
X-77175541Y40228262D01*
X-77448524Y40264200D01*
X-77448526Y40264200D01*
X-77723874Y40264200D01*
X-77723877Y40264200D01*
X-77996860Y40228262D01*
X-78262832Y40156995D01*
X-78517223Y40051623D01*
X-78517234Y40051617D01*
X-78755676Y39913952D01*
X-78974129Y39746328D01*
X-78974139Y39746319D01*
X-79168819Y39551639D01*
X-79168828Y39551629D01*
X-79336452Y39333176D01*
X-79474117Y39094734D01*
X-79474123Y39094723D01*
X-79579495Y38840332D01*
X-79650762Y38574360D01*
X-79686700Y38301377D01*
X-110265700Y38301377D01*
X-110265700Y39150960D01*
X-110275627Y39219093D01*
X-110327002Y39324183D01*
X-110327004Y39324186D01*
X-110409715Y39406897D01*
X-110409718Y39406899D01*
X-110514806Y39458273D01*
X-110582939Y39468200D01*
X-110582940Y39468200D01*
X-112149460Y39468200D01*
X-112149462Y39468200D01*
X-112217595Y39458273D01*
X-112322683Y39406899D01*
X-112322686Y39406897D01*
X-112405397Y39324186D01*
X-112405399Y39324183D01*
X-112456773Y39219095D01*
X-112466700Y39150962D01*
X-113133119Y39150962D01*
X-113189270Y39207113D01*
X-113329412Y39308932D01*
X-113483748Y39387570D01*
X-113483752Y39387572D01*
X-113483755Y39387573D01*
X-113648499Y39441102D01*
X-113819589Y39468200D01*
X-113992811Y39468200D01*
X-114163901Y39441102D01*
X-114163904Y39441102D01*
X-114163905Y39441101D01*
X-114242947Y39415419D01*
X-114328645Y39387573D01*
X-114328647Y39387573D01*
X-114328653Y39387570D01*
X-114482989Y39308932D01*
X-114623131Y39207113D01*
X-114745613Y39084631D01*
X-114847432Y38944489D01*
X-114926070Y38790153D01*
X-114926073Y38790147D01*
X-114926073Y38790145D01*
X-114979602Y38625401D01*
X-115006700Y38454311D01*
X-115006700Y38281089D01*
X-114979602Y38109999D01*
X-114926073Y37945255D01*
X-114926072Y37945252D01*
X-114926070Y37945248D01*
X-114847432Y37790912D01*
X-114745613Y37650770D01*
X-114623131Y37528288D01*
X-114483639Y37426941D01*
X-114440285Y37370718D01*
X-114431700Y37325005D01*
X-114431700Y36889092D01*
X-114451702Y36820971D01*
X-114505358Y36774478D01*
X-114575632Y36764374D01*
X-114614902Y36776825D01*
X-114753748Y36847570D01*
X-114753752Y36847572D01*
X-114753755Y36847573D01*
X-114918499Y36901102D01*
X-115089589Y36928200D01*
X-115262811Y36928200D01*
X-115433901Y36901102D01*
X-115433904Y36901102D01*
X-115433905Y36901101D01*
X-115470864Y36889092D01*
X-115598645Y36847573D01*
X-115598647Y36847573D01*
X-115598653Y36847570D01*
X-115737498Y36776825D01*
X-115807275Y36763721D01*
X-115873059Y36790422D01*
X-115913965Y36848449D01*
X-115920700Y36889092D01*
X-115920700Y37325005D01*
X-115900698Y37393126D01*
X-115868761Y37426941D01*
X-115786004Y37487068D01*
X-115729272Y37528286D01*
X-115606786Y37650772D01*
X-115504968Y37790912D01*
X-115426327Y37945255D01*
X-115372798Y38109999D01*
X-115345700Y38281089D01*
X-115345700Y38454311D01*
X-115372798Y38625401D01*
X-115426327Y38790145D01*
X-115504968Y38944488D01*
X-115606786Y39084628D01*
X-115606788Y39084631D01*
X-115729270Y39207113D01*
X-115869412Y39308932D01*
X-116023748Y39387570D01*
X-116023752Y39387572D01*
X-116023755Y39387573D01*
X-116188499Y39441102D01*
X-116359589Y39468200D01*
X-116532811Y39468200D01*
X-116703901Y39441102D01*
X-116703904Y39441102D01*
X-116703905Y39441101D01*
X-116782947Y39415419D01*
X-116868645Y39387573D01*
X-116868647Y39387573D01*
X-116868653Y39387570D01*
X-117022989Y39308932D01*
X-117163131Y39207113D01*
X-117285613Y39084631D01*
X-117387432Y38944489D01*
X-117466070Y38790153D01*
X-117466073Y38790147D01*
X-117466073Y38790145D01*
X-117519602Y38625401D01*
X-117546700Y38454311D01*
X-117546700Y38281089D01*
X-117519602Y38109999D01*
X-117466073Y37945255D01*
X-117466072Y37945252D01*
X-117466070Y37945248D01*
X-117387432Y37790912D01*
X-117285613Y37650770D01*
X-117163131Y37528288D01*
X-117023639Y37426941D01*
X-116980285Y37370718D01*
X-116971700Y37325005D01*
X-116971700Y36889092D01*
X-116991702Y36820971D01*
X-117045358Y36774478D01*
X-117115632Y36764374D01*
X-117154902Y36776825D01*
X-117293748Y36847570D01*
X-117293752Y36847572D01*
X-117293755Y36847573D01*
X-117458499Y36901102D01*
X-117629589Y36928200D01*
X-117802811Y36928200D01*
X-117973901Y36901102D01*
X-117973904Y36901102D01*
X-117973905Y36901101D01*
X-118010864Y36889092D01*
X-118138645Y36847573D01*
X-118138647Y36847573D01*
X-118138653Y36847570D01*
X-118277498Y36776825D01*
X-118347275Y36763721D01*
X-118413059Y36790422D01*
X-118453965Y36848449D01*
X-118460700Y36889092D01*
X-118460700Y37325005D01*
X-118440698Y37393126D01*
X-118408761Y37426941D01*
X-118326004Y37487068D01*
X-118269272Y37528286D01*
X-118146786Y37650772D01*
X-118044968Y37790912D01*
X-117966327Y37945255D01*
X-117912798Y38109999D01*
X-117885700Y38281089D01*
X-117885700Y38454311D01*
X-117912798Y38625401D01*
X-117966327Y38790145D01*
X-118044968Y38944488D01*
X-118146786Y39084628D01*
X-118146788Y39084631D01*
X-118269270Y39207113D01*
X-118409412Y39308932D01*
X-118563748Y39387570D01*
X-118563752Y39387572D01*
X-118563755Y39387573D01*
X-118728499Y39441102D01*
X-118899589Y39468200D01*
X-119072811Y39468200D01*
X-119243901Y39441102D01*
X-119243904Y39441102D01*
X-119243905Y39441101D01*
X-119322947Y39415419D01*
X-119408645Y39387573D01*
X-119408647Y39387573D01*
X-119408653Y39387570D01*
X-119562989Y39308932D01*
X-119703131Y39207113D01*
X-119825613Y39084631D01*
X-119927432Y38944489D01*
X-120006070Y38790153D01*
X-120006073Y38790147D01*
X-120006073Y38790145D01*
X-120059602Y38625401D01*
X-120086700Y38454311D01*
X-120086700Y38281089D01*
X-120059602Y38109999D01*
X-120006073Y37945255D01*
X-120006072Y37945252D01*
X-120006070Y37945248D01*
X-119927432Y37790912D01*
X-119825613Y37650770D01*
X-119703131Y37528288D01*
X-119563639Y37426941D01*
X-119520285Y37370718D01*
X-119511700Y37325005D01*
X-119511700Y36889092D01*
X-119531702Y36820971D01*
X-119585358Y36774478D01*
X-119655632Y36764374D01*
X-119694902Y36776825D01*
X-119833748Y36847570D01*
X-119833752Y36847572D01*
X-119833755Y36847573D01*
X-119998499Y36901102D01*
X-120169589Y36928200D01*
X-120342811Y36928200D01*
X-120513901Y36901102D01*
X-120513904Y36901102D01*
X-120513905Y36901101D01*
X-120550864Y36889092D01*
X-120678645Y36847573D01*
X-120678647Y36847573D01*
X-120678653Y36847570D01*
X-120832989Y36768932D01*
X-120973131Y36667113D01*
X-121095613Y36544631D01*
X-121197432Y36404489D01*
X-121276070Y36250153D01*
X-121276073Y36250144D01*
X-121329601Y36085405D01*
X-121356700Y35914308D01*
X-121356700Y35741092D01*
X-121329728Y35570794D01*
X-121338828Y35500383D01*
X-121365082Y35461989D01*
X-124150964Y32676105D01*
X-124213276Y32642080D01*
X-124240059Y32639200D01*
X-124383306Y32639200D01*
X-124471765Y32628578D01*
X-124612542Y32573062D01*
X-124612546Y32573059D01*
X-124733123Y32481623D01*
X-124824559Y32361046D01*
X-124824562Y32361042D01*
X-124880078Y32220265D01*
X-124890700Y32131806D01*
X-124890700Y31495595D01*
X-124880078Y31407136D01*
X-124824562Y31266359D01*
X-124824559Y31266355D01*
X-124733913Y31146820D01*
X-124733122Y31145778D01*
X-124715568Y31132467D01*
X-124673374Y31075368D01*
X-124665700Y31032068D01*
X-124665700Y27074618D01*
X-124665701Y27074600D01*
X-124665701Y26928514D01*
X-124641591Y26838537D01*
X-124629890Y26794871D01*
X-124629888Y26794864D01*
X-124629887Y26794862D01*
X-124629886Y26794860D01*
X-124560708Y26675039D01*
X-124560700Y26675029D01*
X-124455690Y26570019D01*
X-124455676Y26570007D01*
X-121580605Y23694936D01*
X-121546579Y23632624D01*
X-121543700Y23605841D01*
X-121543700Y22877836D01*
X-121543698Y22877815D01*
X-121537292Y22818220D01*
X-121537292Y22818219D01*
X-121486999Y22683374D01*
X-121486997Y22683371D01*
X-121486996Y22683369D01*
X-121477512Y22670700D01*
X-121400747Y22568154D01*
X-121369416Y22544700D01*
X-121285531Y22481904D01*
X-121285529Y22481904D01*
X-121285527Y22481902D01*
X-121225170Y22459391D01*
X-121150686Y22431610D01*
X-121150683Y22431609D01*
X-121091073Y22425200D01*
X-120695328Y22425201D01*
X-120635717Y22431609D01*
X-120500869Y22481904D01*
X-120385654Y22568154D01*
X-120359066Y22603672D01*
X-120302233Y22646215D01*
X-120231417Y22651281D01*
X-120169105Y22617256D01*
X-120157343Y22603683D01*
X-120130746Y22568154D01*
X-120015531Y22481904D01*
X-120015529Y22481904D01*
X-120015527Y22481902D01*
X-119955170Y22459391D01*
X-119880686Y22431610D01*
X-119880683Y22431609D01*
X-119821073Y22425200D01*
X-119425328Y22425201D01*
X-119365717Y22431609D01*
X-119230869Y22481904D01*
X-119115654Y22568154D01*
X-119089066Y22603672D01*
X-119032233Y22646215D01*
X-118961417Y22651281D01*
X-118899105Y22617256D01*
X-118887343Y22603683D01*
X-118860746Y22568154D01*
X-118745531Y22481904D01*
X-118745529Y22481904D01*
X-118745527Y22481902D01*
X-118685170Y22459391D01*
X-118610686Y22431610D01*
X-118610683Y22431609D01*
X-118551073Y22425200D01*
X-118155328Y22425201D01*
X-118095717Y22431609D01*
X-117960869Y22481904D01*
X-117885209Y22538544D01*
X-117818690Y22563355D01*
X-117749316Y22548264D01*
X-117699113Y22498062D01*
X-117683700Y22437676D01*
X-117683700Y21243364D01*
X-117703702Y21175243D01*
X-117709302Y21167231D01*
X-117765562Y21093042D01*
X-117821078Y20952265D01*
X-117831700Y20863806D01*
X-117831700Y20227595D01*
X-117821078Y20139137D01*
X-117815526Y20125059D01*
X-117787355Y20053623D01*
X-117784985Y20047615D01*
X-117776200Y20001390D01*
X-117776200Y19562200D01*
X-117796202Y19494079D01*
X-117849858Y19447586D01*
X-117902200Y19436200D01*
X-123174970Y19436200D01*
X-123339283Y19403516D01*
X-123339288Y19403514D01*
X-123416673Y19371460D01*
X-123494063Y19339405D01*
X-123633364Y19246325D01*
X-124231587Y18648104D01*
X-124293899Y18614079D01*
X-124320681Y18611200D01*
X-124505560Y18611200D01*
X-124505569Y18611199D01*
X-124611222Y18597290D01*
X-124622962Y18595744D01*
X-124769040Y18535237D01*
X-124769043Y18535235D01*
X-124894482Y18438982D01*
X-124990735Y18313543D01*
X-124990737Y18313540D01*
X-125051245Y18167461D01*
X-125066700Y18050064D01*
X-125066700Y17021341D01*
X-125066699Y17021332D01*
X-125054335Y16927419D01*
X-125051244Y16903938D01*
X-125014910Y16816220D01*
X-125001291Y16783342D01*
X-124991700Y16735124D01*
X-124991700Y13512200D01*
X-125011702Y13444079D01*
X-125065358Y13397586D01*
X-125117700Y13386200D01*
X-126088498Y13386200D01*
X-126156619Y13406202D01*
X-126177589Y13423101D01*
X-126238156Y13483668D01*
X-126382503Y13572703D01*
X-126543492Y13626049D01*
X-126543496Y13626050D01*
X-126543498Y13626050D01*
X-126643515Y13636269D01*
X-126709250Y13663091D01*
X-126750048Y13721195D01*
X-126752957Y13792132D01*
X-126717052Y13853380D01*
X-126653734Y13885494D01*
X-126647153Y13886538D01*
X-126541096Y13900500D01*
X-126401220Y13958437D01*
X-126281110Y14050602D01*
X-126281105Y14050607D01*
X-126254176Y14085700D01*
X-128378224Y14085700D01*
X-128351296Y14050607D01*
X-128351291Y14050602D01*
X-128231181Y13958437D01*
X-128091306Y13900501D01*
X-127985242Y13886537D01*
X-127920315Y13857815D01*
X-127881223Y13798550D01*
X-127880378Y13727558D01*
X-127918048Y13667379D01*
X-127982273Y13637120D01*
X-127988883Y13636267D01*
X-128088905Y13626050D01*
X-128249897Y13572703D01*
X-128394245Y13483668D01*
X-128394246Y13483667D01*
X-128418054Y13459858D01*
X-128454809Y13423104D01*
X-128517118Y13389080D01*
X-128543902Y13386200D01*
X-129249970Y13386200D01*
X-129414282Y13353516D01*
X-129414283Y13353516D01*
X-129446243Y13340277D01*
X-129569064Y13289404D01*
X-129708362Y13196328D01*
X-129708368Y13196323D01*
X-130476823Y12427868D01*
X-130476828Y12427862D01*
X-130569903Y12288565D01*
X-130595072Y12227801D01*
X-130634014Y12133788D01*
X-130634016Y12133783D01*
X-130666700Y11969470D01*
X-130666700Y2101928D01*
X-130654703Y2041618D01*
X-130641059Y1973024D01*
X-130638712Y1961223D01*
X-130634016Y1937617D01*
X-130569904Y1782837D01*
X-130476828Y1643539D01*
X-130476823Y1643533D01*
X-129488368Y655078D01*
X-129488362Y655073D01*
X-129349063Y561996D01*
X-129263533Y526569D01*
X-129244313Y518608D01*
X-129244311Y518606D01*
X-129198856Y499779D01*
X-129194282Y497884D01*
X-129029967Y465200D01*
X-128862433Y465200D01*
X-126865654Y465200D01*
X-126797533Y445198D01*
X-126776559Y428295D01*
X-126748276Y400012D01*
X-126658240Y334597D01*
X-126595399Y288940D01*
X-126427032Y203153D01*
X-126344646Y176384D01*
X-126311250Y165533D01*
X-126252645Y125459D01*
X-126225008Y60063D01*
X-126237115Y-9894D01*
X-126285121Y-62200D01*
X-126311250Y-74133D01*
X-126427031Y-111752D01*
X-126595403Y-197542D01*
X-126748276Y-308611D01*
X-126748279Y-308614D01*
X-126776559Y-336895D01*
X-126838871Y-370921D01*
X-126865654Y-373800D01*
X-127809970Y-373800D01*
X-127925180Y-396717D01*
X-127974282Y-406484D01*
X-127974283Y-406484D01*
X-127974286Y-406485D01*
X-128000109Y-417182D01*
X-128000110Y-417182D01*
X-128129063Y-470596D01*
X-128268366Y-563676D01*
X-128268368Y-563678D01*
X-129276823Y-1572132D01*
X-129276828Y-1572138D01*
X-129369904Y-1711436D01*
X-129415238Y-1820884D01*
X-129434014Y-1866212D01*
X-129434016Y-1866217D01*
X-129466700Y-2030530D01*
X-129466700Y-6898069D01*
X-129434016Y-7062381D01*
X-129434014Y-7062386D01*
X-129369904Y-7217163D01*
X-129276828Y-7356461D01*
X-129276823Y-7356467D01*
X-128108368Y-8524921D01*
X-128108365Y-8524923D01*
X-128108362Y-8524926D01*
X-127969063Y-8618004D01*
X-127892419Y-8649750D01*
X-127892418Y-8649751D01*
X-127892417Y-8649751D01*
X-127814282Y-8682116D01*
X-127649967Y-8714800D01*
X-126059649Y-8714800D01*
X-125991528Y-8734802D01*
X-125982949Y-8740835D01*
X-125981433Y-8741998D01*
X-125841436Y-8799987D01*
X-125728920Y-8814800D01*
X-125728913Y-8814800D01*
X-125203487Y-8814800D01*
X-125203480Y-8814800D01*
X-125090964Y-8799987D01*
X-124950967Y-8741998D01*
X-124830749Y-8649751D01*
X-124738502Y-8529533D01*
X-124680513Y-8389536D01*
X-124665700Y-8277020D01*
X-124665700Y-8179250D01*
X-124656108Y-8131030D01*
X-124648386Y-8112387D01*
X-124648386Y-8112386D01*
X-124648384Y-8112382D01*
X-124615700Y-7948067D01*
X-124615700Y-7780533D01*
X-124648384Y-7616218D01*
X-124648387Y-7616211D01*
X-124648388Y-7616207D01*
X-124656109Y-7597566D01*
X-124665700Y-7549349D01*
X-124665700Y-7451587D01*
X-124665700Y-7451580D01*
X-124680513Y-7339064D01*
X-124738502Y-7199067D01*
X-124738507Y-7199060D01*
X-124830749Y-7078848D01*
X-124950961Y-6986606D01*
X-124950969Y-6986601D01*
X-125090966Y-6928612D01*
X-125203478Y-6913800D01*
X-125203480Y-6913800D01*
X-125728920Y-6913800D01*
X-125728923Y-6913800D01*
X-125841435Y-6928612D01*
X-125981432Y-6986601D01*
X-125981436Y-6986604D01*
X-125982943Y-6987761D01*
X-125984445Y-6988341D01*
X-125988587Y-6990733D01*
X-125988960Y-6990087D01*
X-126049163Y-7013363D01*
X-126059649Y-7013800D01*
X-127161721Y-7013800D01*
X-127229842Y-6993798D01*
X-127250817Y-6976895D01*
X-127728796Y-6498915D01*
X-127762821Y-6436603D01*
X-127765700Y-6409820D01*
X-127765700Y-2518778D01*
X-127745698Y-2450657D01*
X-127728795Y-2429683D01*
X-127410817Y-2111705D01*
X-127348505Y-2077679D01*
X-127321722Y-2074800D01*
X-126865654Y-2074800D01*
X-126797533Y-2094802D01*
X-126776559Y-2111705D01*
X-126748276Y-2139988D01*
X-126748273Y-2139990D01*
X-126595399Y-2251060D01*
X-126449235Y-2325534D01*
X-126397621Y-2374281D01*
X-126380555Y-2443196D01*
X-126403456Y-2510398D01*
X-126459053Y-2554550D01*
X-126506439Y-2563800D01*
X-126849462Y-2563800D01*
X-126917595Y-2573727D01*
X-127022683Y-2625101D01*
X-127022686Y-2625103D01*
X-127105397Y-2707814D01*
X-127105399Y-2707817D01*
X-127156773Y-2812905D01*
X-127166700Y-2881038D01*
X-127166700Y-4647561D01*
X-127156773Y-4715694D01*
X-127105399Y-4820782D01*
X-127105397Y-4820785D01*
X-127022686Y-4903496D01*
X-127022683Y-4903498D01*
X-126917593Y-4954873D01*
X-126849460Y-4964800D01*
X-126849455Y-4964800D01*
X-125082945Y-4964800D01*
X-125082940Y-4964800D01*
X-125014807Y-4954873D01*
X-124909717Y-4903498D01*
X-124827002Y-4820783D01*
X-124775627Y-4715693D01*
X-124772737Y-4706342D01*
X-124769608Y-4707309D01*
X-124747008Y-4658092D01*
X-124687203Y-4619831D01*
X-124651954Y-4614800D01*
X-124510434Y-4614800D01*
X-124510433Y-4614800D01*
X-124346118Y-4582116D01*
X-124300791Y-4563339D01*
X-124300785Y-4563338D01*
X-124300785Y-4563337D01*
X-124191337Y-4518004D01*
X-124052038Y-4424927D01*
X-122955573Y-3328462D01*
X-122862496Y-3189163D01*
X-122805315Y-3051115D01*
X-122798384Y-3034382D01*
X-122765700Y-2870067D01*
X-122765700Y2169467D01*
X-122798384Y2333782D01*
X-122839805Y2433781D01*
X-122862496Y2488563D01*
X-122955573Y2627862D01*
X-122955578Y2627868D01*
X-126553795Y6226085D01*
X-126587821Y6288397D01*
X-126590700Y6315180D01*
X-126590700Y6985124D01*
X-126581109Y7033342D01*
X-126554304Y7098055D01*
X-126531156Y7153938D01*
X-126517655Y7256491D01*
X-126166199Y7256491D01*
X-126163349Y7226094D01*
X-126163348Y7226091D01*
X-126118547Y7098056D01*
X-126118547Y7098055D01*
X-126037994Y6988910D01*
X-125966201Y6935924D01*
X-125966200Y6935924D01*
X-124966200Y6935924D01*
X-124894407Y6988910D01*
X-124813854Y7098055D01*
X-124813854Y7098056D01*
X-124769053Y7226090D01*
X-124769052Y7226095D01*
X-124766201Y7256495D01*
X-124766200Y7256501D01*
X-124766200Y7285700D01*
X-124966200Y7285700D01*
X-124966200Y6935924D01*
X-125966200Y6935924D01*
X-125966200Y7285700D01*
X-126166199Y7285700D01*
X-126166199Y7256491D01*
X-126517655Y7256491D01*
X-126515700Y7271339D01*
X-126515701Y7595751D01*
X-126506108Y7643972D01*
X-126498386Y7662614D01*
X-126498384Y7662618D01*
X-126465700Y7826933D01*
X-126465700Y8314906D01*
X-126166200Y8314906D01*
X-126166200Y8285700D01*
X-125966200Y8285700D01*
X-124966200Y8285700D01*
X-124766201Y8285700D01*
X-124766201Y8314895D01*
X-124766202Y8314910D01*
X-124769052Y8345307D01*
X-124769053Y8345310D01*
X-124813854Y8473345D01*
X-124813854Y8473346D01*
X-124894407Y8582491D01*
X-124966200Y8635479D01*
X-124966200Y8285700D01*
X-125966200Y8285700D01*
X-125966200Y8635479D01*
X-126037994Y8582491D01*
X-126118547Y8473346D01*
X-126118547Y8473345D01*
X-126163348Y8345311D01*
X-126163349Y8345306D01*
X-126166200Y8314906D01*
X-126465700Y8314906D01*
X-126465700Y9080144D01*
X-126445698Y9148265D01*
X-126392042Y9194758D01*
X-126385143Y9197468D01*
X-126382515Y9198694D01*
X-126382503Y9198697D01*
X-126238156Y9287732D01*
X-126118232Y9407656D01*
X-126029197Y9552003D01*
X-125975851Y9712992D01*
X-125965700Y9812355D01*
X-125965701Y10659044D01*
X-125975851Y10758408D01*
X-126029197Y10919397D01*
X-126118232Y11063744D01*
X-126118233Y11063745D01*
X-126118238Y11063751D01*
X-126238150Y11183663D01*
X-126238156Y11183668D01*
X-126330870Y11240855D01*
X-126382503Y11272703D01*
X-126382506Y11272704D01*
X-126388749Y11276555D01*
X-126387665Y11278313D01*
X-126433216Y11318414D01*
X-126452682Y11386689D01*
X-126432146Y11454651D01*
X-126387708Y11493157D01*
X-126388749Y11494845D01*
X-126382506Y11498697D01*
X-126382503Y11498697D01*
X-126238156Y11587732D01*
X-126177592Y11648297D01*
X-126115282Y11682320D01*
X-126088498Y11685200D01*
X-124249967Y11685200D01*
X-124082433Y11685200D01*
X-122492700Y11685200D01*
X-122424579Y11665198D01*
X-122378086Y11611542D01*
X-122366700Y11559200D01*
X-122366700Y11061737D01*
X-122363884Y11020211D01*
X-122363884Y11020206D01*
X-122319237Y10840679D01*
X-122237044Y10674949D01*
X-122224259Y10659044D01*
X-122121140Y10530760D01*
X-122000599Y10433865D01*
X-121976952Y10414857D01*
X-121920028Y10386626D01*
X-121811221Y10332663D01*
X-121631695Y10288017D01*
X-121621310Y10287313D01*
X-121590163Y10285200D01*
X-121590154Y10285200D01*
X-120442237Y10285200D01*
X-120417322Y10286891D01*
X-120400705Y10288017D01*
X-120221179Y10332663D01*
X-120055447Y10414858D01*
X-119911260Y10530760D01*
X-119795358Y10674947D01*
X-119713163Y10840679D01*
X-119668517Y11020205D01*
X-119667391Y11036822D01*
X-119665700Y11061737D01*
X-119665700Y11399291D01*
X-115917199Y11399291D01*
X-115914349Y11368894D01*
X-115914348Y11368891D01*
X-115869547Y11240856D01*
X-115869547Y11240855D01*
X-115788993Y11131708D01*
X-115679848Y11051156D01*
X-115567200Y11011739D01*
X-114067200Y11011739D01*
X-113954553Y11051156D01*
X-113845408Y11131708D01*
X-113764854Y11240855D01*
X-113764854Y11240856D01*
X-113720053Y11368890D01*
X-113720052Y11368895D01*
X-113717201Y11399295D01*
X-113717200Y11399301D01*
X-113717200Y12253500D01*
X-114067200Y12253500D01*
X-114067200Y11011739D01*
X-115567200Y11011739D01*
X-115567200Y12253500D01*
X-115917199Y12253500D01*
X-115917199Y11399291D01*
X-119665700Y11399291D01*
X-119665700Y13082491D01*
X-115417200Y13082491D01*
X-115417200Y12924509D01*
X-115376311Y12771909D01*
X-115297319Y12635092D01*
X-115185608Y12523381D01*
X-115048791Y12444389D01*
X-114896191Y12403500D01*
X-114738209Y12403500D01*
X-114585609Y12444389D01*
X-114448792Y12523381D01*
X-114337081Y12635092D01*
X-114258089Y12771909D01*
X-114217200Y12924509D01*
X-114217200Y13082491D01*
X-114258089Y13235091D01*
X-114337081Y13371908D01*
X-114448792Y13483619D01*
X-114585609Y13562611D01*
X-114738209Y13603500D01*
X-114896191Y13603500D01*
X-115048791Y13562611D01*
X-115185608Y13483619D01*
X-115297319Y13371908D01*
X-115376311Y13235091D01*
X-115417200Y13082491D01*
X-119665700Y13082491D01*
X-119665700Y14009664D01*
X-119668517Y14051190D01*
X-119668517Y14051195D01*
X-119677098Y14085700D01*
X-119713163Y14230721D01*
X-119795358Y14396453D01*
X-119911260Y14540640D01*
X-119994693Y14607706D01*
X-115917200Y14607706D01*
X-115917200Y13753500D01*
X-115567200Y13753500D01*
X-114067200Y13753500D01*
X-113717201Y13753500D01*
X-113717201Y14607695D01*
X-113717202Y14607710D01*
X-113720052Y14638107D01*
X-113720053Y14638110D01*
X-113764854Y14766145D01*
X-113764854Y14766146D01*
X-113845408Y14875293D01*
X-113954552Y14955844D01*
X-113954554Y14955846D01*
X-114067200Y14995263D01*
X-114067200Y13753500D01*
X-115567200Y13753500D01*
X-115567200Y14995263D01*
X-115679847Y14955846D01*
X-115679849Y14955844D01*
X-115788993Y14875293D01*
X-115869547Y14766146D01*
X-115869547Y14766145D01*
X-115914348Y14638111D01*
X-115914349Y14638106D01*
X-115917200Y14607706D01*
X-119994693Y14607706D01*
X-120002989Y14614375D01*
X-120055449Y14656544D01*
X-120221179Y14738737D01*
X-120400709Y14783384D01*
X-120442237Y14786200D01*
X-120442246Y14786200D01*
X-121590154Y14786200D01*
X-121590163Y14786200D01*
X-121631690Y14783384D01*
X-121631695Y14783384D01*
X-121811222Y14738737D01*
X-121976952Y14656544D01*
X-122121140Y14540640D01*
X-122237044Y14396452D01*
X-122319237Y14230722D01*
X-122363884Y14051195D01*
X-122363884Y14051190D01*
X-122366700Y14009664D01*
X-122366700Y13512200D01*
X-122386702Y13444079D01*
X-122440358Y13397586D01*
X-122492700Y13386200D01*
X-123164700Y13386200D01*
X-123232821Y13406202D01*
X-123279314Y13459858D01*
X-123290700Y13512200D01*
X-123290700Y17131222D01*
X-123270698Y17199343D01*
X-123253795Y17220317D01*
X-122775817Y17698295D01*
X-122713505Y17732321D01*
X-122686722Y17735200D01*
X-109932434Y17735200D01*
X-109932433Y17735200D01*
X-109768118Y17767884D01*
X-109709936Y17791984D01*
X-109613337Y17831996D01*
X-109474038Y17925073D01*
X-108651543Y18747571D01*
X-108589232Y18781594D01*
X-108518417Y18776530D01*
X-108474012Y18748223D01*
X-108467539Y18741845D01*
X-108434122Y18697778D01*
X-108385068Y18660579D01*
X-108379263Y18654859D01*
X-108365821Y18630667D01*
X-108349374Y18608410D01*
X-108347464Y18597628D01*
X-108344780Y18592799D01*
X-108345266Y18585228D01*
X-108341700Y18565110D01*
X-108341700Y18461626D01*
X-108361702Y18393505D01*
X-108378605Y18372531D01*
X-111615152Y15135985D01*
X-111665310Y15105247D01*
X-111797224Y15062385D01*
X-111972609Y14973022D01*
X-112131849Y14857327D01*
X-112271027Y14718149D01*
X-112386722Y14558909D01*
X-112476083Y14383527D01*
X-112476084Y14383524D01*
X-112527186Y14226249D01*
X-112536909Y14196326D01*
X-112567700Y14001917D01*
X-112567700Y12005083D01*
X-112536909Y11810674D01*
X-112476084Y11623475D01*
X-112410544Y11494845D01*
X-112386722Y11448092D01*
X-112271027Y11288852D01*
X-112131849Y11149674D01*
X-112131846Y11149672D01*
X-111972605Y11033976D01*
X-111797225Y10944616D01*
X-111610026Y10883791D01*
X-111415617Y10853000D01*
X-111415614Y10853000D01*
X-111218786Y10853000D01*
X-111218783Y10853000D01*
X-111024374Y10883791D01*
X-110837175Y10944616D01*
X-110661795Y11033976D01*
X-110502554Y11149672D01*
X-110363372Y11288854D01*
X-110247676Y11448095D01*
X-110158316Y11623475D01*
X-110097491Y11810674D01*
X-110066700Y12005083D01*
X-110066700Y14001917D01*
X-110097491Y14196326D01*
X-110158316Y14383525D01*
X-110247676Y14558905D01*
X-110252683Y14565796D01*
X-110287977Y14614375D01*
X-110311836Y14681243D01*
X-110295755Y14750394D01*
X-110275143Y14777524D01*
X-107260680Y17791984D01*
X-107181623Y17928916D01*
X-107140699Y18081643D01*
X-107140699Y18239758D01*
X-107140699Y18247475D01*
X-107140700Y18247493D01*
X-107140700Y18827729D01*
X-107120698Y18895850D01*
X-107067042Y18942343D01*
X-106996768Y18952447D01*
X-106932188Y18922953D01*
X-106897485Y18873953D01*
X-106875562Y18818359D01*
X-106875559Y18818355D01*
X-106784123Y18697778D01*
X-106663546Y18606342D01*
X-106663542Y18606339D01*
X-106522765Y18550823D01*
X-106522766Y18550823D01*
X-106494806Y18547466D01*
X-106434302Y18540200D01*
X-106434299Y18540200D01*
X-105948101Y18540200D01*
X-105948098Y18540200D01*
X-105859636Y18550823D01*
X-105718858Y18606339D01*
X-105598278Y18697778D01*
X-105506839Y18818358D01*
X-105451323Y18959136D01*
X-105440700Y19047598D01*
X-105440700Y19683802D01*
X-105451323Y19772264D01*
X-105452025Y19774043D01*
X-105506839Y19913042D01*
X-105506842Y19913046D01*
X-105598280Y20033625D01*
X-105603795Y20039140D01*
X-105637821Y20101452D01*
X-105640700Y20128235D01*
X-105640700Y21870485D01*
X-105620698Y21938606D01*
X-105603800Y21959576D01*
X-105250690Y22312685D01*
X-105178216Y22438215D01*
X-105166904Y22480433D01*
X-105140700Y22578225D01*
X-105140700Y22668246D01*
X-105139409Y22677193D01*
X-105128255Y22701588D01*
X-105120698Y22727321D01*
X-105113723Y22733365D01*
X-105109884Y22741760D01*
X-105087311Y22756252D01*
X-105067042Y22773814D01*
X-105056320Y22776147D01*
X-105050139Y22780114D01*
X-105038108Y22780109D01*
X-105014700Y22785200D01*
X-104886936Y22785200D01*
X-104886934Y22785200D01*
X-104856501Y22788054D01*
X-104757814Y22822587D01*
X-104686912Y22826206D01*
X-104674598Y22822590D01*
X-104575899Y22788054D01*
X-104545466Y22785200D01*
X-104417700Y22785200D01*
X-104349579Y22765198D01*
X-104303086Y22711542D01*
X-104291700Y22659200D01*
X-104291700Y20327200D01*
X-104311702Y20259079D01*
X-104365358Y20212586D01*
X-104417700Y20201200D01*
X-104434306Y20201200D01*
X-104522765Y20190578D01*
X-104663542Y20135062D01*
X-104663546Y20135059D01*
X-104784123Y20043623D01*
X-104875559Y19923046D01*
X-104875562Y19923042D01*
X-104931078Y19782265D01*
X-104941700Y19693806D01*
X-104941700Y19057595D01*
X-104931078Y18969136D01*
X-104875562Y18828359D01*
X-104875559Y18828355D01*
X-104784123Y18707778D01*
X-104663546Y18616342D01*
X-104663542Y18616339D01*
X-104522765Y18560823D01*
X-104512683Y18559613D01*
X-104493941Y18557362D01*
X-104428691Y18529382D01*
X-104388926Y18470567D01*
X-104387255Y18399650D01*
X-104416701Y18289756D01*
X-104416701Y18121493D01*
X-104416700Y18121480D01*
X-104416700Y10386626D01*
X-104436702Y10318505D01*
X-104453605Y10297531D01*
X-108195710Y6555426D01*
X-111685914Y3065222D01*
X-111685916Y3065220D01*
X-111741818Y3009319D01*
X-111797719Y2953418D01*
X-111797723Y2953413D01*
X-111847840Y2866605D01*
X-111876777Y2816487D01*
X-111897239Y2740121D01*
X-111917701Y2663757D01*
X-111917701Y2663755D01*
X-111917701Y2495493D01*
X-111917700Y2495480D01*
X-111917700Y2077116D01*
X-111937702Y2008995D01*
X-111969638Y1975180D01*
X-112131853Y1857323D01*
X-112271027Y1718149D01*
X-112386722Y1558909D01*
X-112476083Y1383527D01*
X-112476084Y1383524D01*
X-112528819Y1221223D01*
X-112536909Y1196326D01*
X-112567700Y1001917D01*
X-112567700Y-994917D01*
X-112536909Y-1189326D01*
X-112476084Y-1376525D01*
X-112386724Y-1551905D01*
X-112386722Y-1551908D01*
X-112271027Y-1711148D01*
X-112131849Y-1850326D01*
X-112027240Y-1926329D01*
X-111972605Y-1966024D01*
X-111797225Y-2055384D01*
X-111610026Y-2116209D01*
X-111415617Y-2147000D01*
X-111415614Y-2147000D01*
X-111218786Y-2147000D01*
X-111218783Y-2147000D01*
X-111024374Y-2116209D01*
X-110837175Y-2055384D01*
X-110661795Y-1966024D01*
X-110502554Y-1850328D01*
X-110363372Y-1711146D01*
X-110247676Y-1551905D01*
X-110158316Y-1376525D01*
X-110097491Y-1189326D01*
X-110066700Y-994917D01*
X-110066700Y1001917D01*
X-110097491Y1196326D01*
X-110158316Y1383525D01*
X-110247676Y1558905D01*
X-110309166Y1643538D01*
X-110363374Y1718149D01*
X-110502548Y1857323D01*
X-110502552Y1857326D01*
X-110502554Y1857328D01*
X-110623084Y1944899D01*
X-110664762Y1975180D01*
X-110668158Y1979584D01*
X-110673212Y1981892D01*
X-110689599Y2007390D01*
X-110708115Y2031403D01*
X-110709389Y2038183D01*
X-110711596Y2041618D01*
X-110716700Y2077116D01*
X-110716700Y2283776D01*
X-110696698Y2351897D01*
X-110679800Y2372866D01*
X-103457861Y9594806D01*
X-103457851Y9594813D01*
X-103335686Y9716978D01*
X-103335680Y9716984D01*
X-103280617Y9812356D01*
X-103256623Y9853915D01*
X-103215699Y10006643D01*
X-103215699Y10164757D01*
X-103215699Y10172474D01*
X-103215700Y10172492D01*
X-103215700Y11399291D01*
X-100917199Y11399291D01*
X-100914349Y11368894D01*
X-100914348Y11368891D01*
X-100869547Y11240856D01*
X-100869547Y11240855D01*
X-100788993Y11131708D01*
X-100679848Y11051156D01*
X-100567200Y11011739D01*
X-99067200Y11011739D01*
X-98954553Y11051156D01*
X-98845408Y11131708D01*
X-98764854Y11240855D01*
X-98764854Y11240856D01*
X-98720053Y11368890D01*
X-98720052Y11368895D01*
X-98717201Y11399295D01*
X-98717200Y11399301D01*
X-98717200Y12253500D01*
X-99067200Y12253500D01*
X-99067200Y11011739D01*
X-100567200Y11011739D01*
X-100567200Y12253500D01*
X-100917199Y12253500D01*
X-100917199Y11399291D01*
X-103215700Y11399291D01*
X-103215700Y13082491D01*
X-100417200Y13082491D01*
X-100417200Y12924509D01*
X-100376311Y12771909D01*
X-100297319Y12635092D01*
X-100185608Y12523381D01*
X-100048791Y12444389D01*
X-99896191Y12403500D01*
X-99738209Y12403500D01*
X-99585609Y12444389D01*
X-99448792Y12523381D01*
X-99337081Y12635092D01*
X-99258089Y12771909D01*
X-99217200Y12924509D01*
X-99217200Y13082491D01*
X-99258089Y13235091D01*
X-99337081Y13371908D01*
X-99448792Y13483619D01*
X-99585609Y13562611D01*
X-99738209Y13603500D01*
X-99896191Y13603500D01*
X-100048791Y13562611D01*
X-100185608Y13483619D01*
X-100297319Y13371908D01*
X-100376311Y13235091D01*
X-100417200Y13082491D01*
X-103215700Y13082491D01*
X-103215700Y14607706D01*
X-100917200Y14607706D01*
X-100917200Y13753500D01*
X-100567200Y13753500D01*
X-99067200Y13753500D01*
X-98717201Y13753500D01*
X-98717201Y14607695D01*
X-98717202Y14607710D01*
X-98720052Y14638107D01*
X-98720053Y14638110D01*
X-98764854Y14766145D01*
X-98764854Y14766146D01*
X-98845408Y14875293D01*
X-98954552Y14955844D01*
X-98954554Y14955846D01*
X-99067200Y14995263D01*
X-99067200Y13753500D01*
X-100567200Y13753500D01*
X-100567200Y14995263D01*
X-100679847Y14955846D01*
X-100679849Y14955844D01*
X-100788993Y14875293D01*
X-100869547Y14766146D01*
X-100869547Y14766145D01*
X-100914348Y14638111D01*
X-100914349Y14638106D01*
X-100917200Y14607706D01*
X-103215700Y14607706D01*
X-103215700Y17909775D01*
X-103195698Y17977896D01*
X-103178795Y17998870D01*
X-102664370Y18513295D01*
X-102602058Y18547321D01*
X-102575275Y18550200D01*
X-102298101Y18550200D01*
X-102298098Y18550200D01*
X-102209636Y18560823D01*
X-102068858Y18616339D01*
X-101948278Y18707778D01*
X-101937808Y18721586D01*
X-101880711Y18763780D01*
X-101809865Y18768407D01*
X-101747764Y18733997D01*
X-101737013Y18721590D01*
X-101734122Y18717778D01*
X-101613546Y18626342D01*
X-101613542Y18626339D01*
X-101472765Y18570823D01*
X-101472766Y18570823D01*
X-101444806Y18567466D01*
X-101384302Y18560200D01*
X-101384299Y18560200D01*
X-100898101Y18560200D01*
X-100898098Y18560200D01*
X-100809636Y18570823D01*
X-100668858Y18626339D01*
X-100548278Y18717778D01*
X-100456839Y18838358D01*
X-100433415Y18897758D01*
X-100389817Y18953790D01*
X-100322846Y18977358D01*
X-100253765Y18960977D01*
X-100204507Y18909848D01*
X-100198985Y18897757D01*
X-100175562Y18838359D01*
X-100175559Y18838355D01*
X-100084123Y18717778D01*
X-99963546Y18626342D01*
X-99963542Y18626339D01*
X-99822765Y18570823D01*
X-99822766Y18570823D01*
X-99794806Y18567466D01*
X-99734302Y18560200D01*
X-99567125Y18560200D01*
X-99499004Y18540198D01*
X-99478030Y18523295D01*
X-97078605Y16123870D01*
X-97044579Y16061558D01*
X-97041700Y16034775D01*
X-97041700Y14987025D01*
X-97061702Y14918904D01*
X-97093637Y14885091D01*
X-97131840Y14857334D01*
X-97131850Y14857326D01*
X-97271027Y14718149D01*
X-97386722Y14558909D01*
X-97476083Y14383527D01*
X-97476084Y14383524D01*
X-97527186Y14226249D01*
X-97536909Y14196326D01*
X-97567700Y14001917D01*
X-97567700Y12005083D01*
X-97536909Y11810674D01*
X-97476084Y11623475D01*
X-97410544Y11494845D01*
X-97386722Y11448092D01*
X-97271027Y11288852D01*
X-97131849Y11149674D01*
X-97131846Y11149672D01*
X-96972605Y11033976D01*
X-96797225Y10944616D01*
X-96610026Y10883791D01*
X-96415617Y10853000D01*
X-96415614Y10853000D01*
X-96218786Y10853000D01*
X-96218783Y10853000D01*
X-96024374Y10883791D01*
X-95837175Y10944616D01*
X-95661795Y11033976D01*
X-95502554Y11149672D01*
X-95363372Y11288854D01*
X-95247676Y11448095D01*
X-95158316Y11623475D01*
X-95097491Y11810674D01*
X-95066700Y12005083D01*
X-95066700Y14001917D01*
X-95097491Y14196326D01*
X-95158316Y14383525D01*
X-95247676Y14558905D01*
X-95318615Y14656544D01*
X-95363374Y14718149D01*
X-95502552Y14857327D01*
X-95661792Y14973022D01*
X-95661793Y14973023D01*
X-95661795Y14973024D01*
X-95771905Y15029128D01*
X-95823518Y15077874D01*
X-95840700Y15141393D01*
X-95840700Y16414755D01*
X-95840700Y16414757D01*
X-95843745Y16426120D01*
X-95843745Y16426124D01*
X-95843746Y16426123D01*
X-95873231Y16536164D01*
X-95873231Y16536165D01*
X-95881623Y16567483D01*
X-95881624Y16567486D01*
X-95960678Y16704413D01*
X-95960686Y16704423D01*
X-96076873Y16820610D01*
X-96076896Y16820631D01*
X-97636822Y18380557D01*
X-97670848Y18442869D01*
X-97665783Y18513684D01*
X-97623236Y18570520D01*
X-97593951Y18586867D01*
X-97539323Y18608410D01*
X-97493858Y18626339D01*
X-97373278Y18717778D01*
X-97281839Y18838358D01*
X-97258415Y18897758D01*
X-97214817Y18953790D01*
X-97147846Y18977358D01*
X-97078765Y18960977D01*
X-97029507Y18909848D01*
X-97023985Y18897757D01*
X-97000562Y18838359D01*
X-97000559Y18838355D01*
X-96909123Y18717778D01*
X-96788546Y18626342D01*
X-96788542Y18626339D01*
X-96647765Y18570823D01*
X-96647766Y18570823D01*
X-96619806Y18567466D01*
X-96559302Y18560200D01*
X-96559299Y18560200D01*
X-96073101Y18560200D01*
X-96073098Y18560200D01*
X-95984636Y18570823D01*
X-95843858Y18626339D01*
X-95723278Y18717778D01*
X-95709964Y18735335D01*
X-95652864Y18777527D01*
X-95609567Y18785200D01*
X-95242125Y18785200D01*
X-95174004Y18765198D01*
X-95153030Y18748295D01*
X-90703605Y14298870D01*
X-90669579Y14236558D01*
X-90666700Y14209775D01*
X-90666700Y6555426D01*
X-90686702Y6487305D01*
X-90703605Y6466331D01*
X-95318486Y1851451D01*
X-95380798Y1817425D01*
X-95451613Y1822490D01*
X-95496676Y1851451D01*
X-95502552Y1857327D01*
X-95661792Y1973022D01*
X-95661793Y1973023D01*
X-95661795Y1973024D01*
X-95837175Y2062384D01*
X-96024374Y2123209D01*
X-96218783Y2154000D01*
X-96415617Y2154000D01*
X-96610026Y2123209D01*
X-96610029Y2123209D01*
X-96610030Y2123208D01*
X-96699846Y2094025D01*
X-96797225Y2062384D01*
X-96797227Y2062384D01*
X-96797227Y2062383D01*
X-96972609Y1973022D01*
X-97131849Y1857327D01*
X-97271027Y1718149D01*
X-97386722Y1558909D01*
X-97476083Y1383527D01*
X-97476084Y1383524D01*
X-97528819Y1221223D01*
X-97536909Y1196326D01*
X-97567700Y1001917D01*
X-97567700Y-994917D01*
X-97536909Y-1189326D01*
X-97476084Y-1376525D01*
X-97386724Y-1551905D01*
X-97386722Y-1551908D01*
X-97271027Y-1711148D01*
X-97131849Y-1850326D01*
X-97027240Y-1926329D01*
X-96972605Y-1966024D01*
X-96797225Y-2055384D01*
X-96610026Y-2116209D01*
X-96415617Y-2147000D01*
X-96415614Y-2147000D01*
X-96218786Y-2147000D01*
X-96218783Y-2147000D01*
X-96024374Y-2116209D01*
X-95837175Y-2055384D01*
X-95661795Y-1966024D01*
X-95502554Y-1850328D01*
X-95363372Y-1711146D01*
X-95247676Y-1551905D01*
X-95158316Y-1376525D01*
X-95097491Y-1189326D01*
X-95066700Y-994917D01*
X-95066700Y352576D01*
X-95046698Y420697D01*
X-95029800Y441667D01*
X-94796462Y675004D01*
X-94734151Y709029D01*
X-94663336Y703964D01*
X-94606500Y661417D01*
X-94581689Y594897D01*
X-94585661Y553297D01*
X-94636040Y365283D01*
X-94667700Y124791D01*
X-94667700Y-1604406D01*
X-94687702Y-1672527D01*
X-94704605Y-1693501D01*
X-96284661Y-3273556D01*
X-96284663Y-3273559D01*
X-96438456Y-3427351D01*
X-96438465Y-3427362D01*
X-96586139Y-3619814D01*
X-96708809Y-3832286D01*
X-96710584Y-3837517D01*
X-96800254Y-4054000D01*
X-96800256Y-4054004D01*
X-96863040Y-4288318D01*
X-96894701Y-4528809D01*
X-96894701Y-4775845D01*
X-96894700Y-4775874D01*
X-96894700Y-11488300D01*
X-96914702Y-11556421D01*
X-96968358Y-11602914D01*
X-97020700Y-11614300D01*
X-98655700Y-11614300D01*
X-98723821Y-11594298D01*
X-98770314Y-11540642D01*
X-98781700Y-11488300D01*
X-98781700Y-8628819D01*
X-98781700Y-8628812D01*
X-98813362Y-8388311D01*
X-98876146Y-8154000D01*
X-98968976Y-7929888D01*
X-98968982Y-7929879D01*
X-98968983Y-7929875D01*
X-99090262Y-7719814D01*
X-99169754Y-7616218D01*
X-99237935Y-7527362D01*
X-99237941Y-7527356D01*
X-99237945Y-7527351D01*
X-99411908Y-7353388D01*
X-99411947Y-7353351D01*
X-101344795Y-5420502D01*
X-101378821Y-5358190D01*
X-101381700Y-5331407D01*
X-101381700Y-1600709D01*
X-100917199Y-1600709D01*
X-100914349Y-1631106D01*
X-100914348Y-1631109D01*
X-100869547Y-1759144D01*
X-100869547Y-1759145D01*
X-100788993Y-1868292D01*
X-100679848Y-1948844D01*
X-100567200Y-1988261D01*
X-99067200Y-1988261D01*
X-98954553Y-1948844D01*
X-98845408Y-1868292D01*
X-98764854Y-1759145D01*
X-98764854Y-1759144D01*
X-98720053Y-1631110D01*
X-98720052Y-1631105D01*
X-98717201Y-1600705D01*
X-98717200Y-1600699D01*
X-98717200Y-746500D01*
X-99067200Y-746500D01*
X-99067200Y-1988261D01*
X-100567200Y-1988261D01*
X-100567200Y-746500D01*
X-100917199Y-746500D01*
X-100917199Y-1600709D01*
X-101381700Y-1600709D01*
X-101381700Y82491D01*
X-100417200Y82491D01*
X-100417200Y-75491D01*
X-100376311Y-228091D01*
X-100297319Y-364908D01*
X-100185608Y-476619D01*
X-100048791Y-555611D01*
X-99896191Y-596500D01*
X-99738209Y-596500D01*
X-99585609Y-555611D01*
X-99448792Y-476619D01*
X-99337081Y-364908D01*
X-99258089Y-228091D01*
X-99217200Y-75491D01*
X-99217200Y82491D01*
X-99258089Y235091D01*
X-99337081Y371908D01*
X-99448792Y483619D01*
X-99585609Y562611D01*
X-99738209Y603500D01*
X-99896191Y603500D01*
X-100048791Y562611D01*
X-100185608Y483619D01*
X-100297319Y371908D01*
X-100376311Y235091D01*
X-100417200Y82491D01*
X-101381700Y82491D01*
X-101381700Y1607706D01*
X-100917200Y1607706D01*
X-100917200Y753500D01*
X-100567200Y753500D01*
X-99067200Y753500D01*
X-98717201Y753500D01*
X-98717201Y1607695D01*
X-98717202Y1607710D01*
X-98720052Y1638107D01*
X-98720053Y1638110D01*
X-98764854Y1766145D01*
X-98764854Y1766146D01*
X-98845408Y1875293D01*
X-98954552Y1955844D01*
X-98954554Y1955846D01*
X-99067200Y1995263D01*
X-99067200Y753500D01*
X-100567200Y753500D01*
X-100567200Y1995263D01*
X-100679847Y1955846D01*
X-100679849Y1955844D01*
X-100788993Y1875293D01*
X-100869547Y1766146D01*
X-100869547Y1766145D01*
X-100914348Y1638111D01*
X-100914349Y1638106D01*
X-100917200Y1607706D01*
X-101381700Y1607706D01*
X-101381700Y3343608D01*
X-101361698Y3411729D01*
X-101344795Y3432703D01*
X-99875003Y4902495D01*
X-99812691Y4936521D01*
X-99785908Y4939400D01*
X-96529822Y4939400D01*
X-96529790Y4939399D01*
X-96525888Y4939399D01*
X-96283319Y4939399D01*
X-96283312Y4939399D01*
X-96042811Y4971062D01*
X-95808500Y5033846D01*
X-95744876Y5060200D01*
X-95584388Y5126676D01*
X-95374311Y5247964D01*
X-95181862Y5395635D01*
X-95010335Y5567162D01*
X-94992615Y5584882D01*
X-94992613Y5584886D01*
X-91599931Y8977569D01*
X-91599913Y8977584D01*
X-91422945Y9154552D01*
X-91422935Y9154562D01*
X-91275264Y9347011D01*
X-91153976Y9557088D01*
X-91153432Y9558400D01*
X-91134056Y9605180D01*
X-91115525Y9649919D01*
X-91061145Y9781201D01*
X-90998362Y10015511D01*
X-90966699Y10256012D01*
X-90966699Y10498588D01*
X-90966699Y10502489D01*
X-90966700Y10502523D01*
X-90966700Y13124781D01*
X-90966700Y13124788D01*
X-90998362Y13365289D01*
X-91061146Y13599600D01*
X-91153976Y13823712D01*
X-91153982Y13823721D01*
X-91153983Y13823725D01*
X-91275262Y14033786D01*
X-91288169Y14050607D01*
X-91422935Y14226238D01*
X-91422941Y14226244D01*
X-91422945Y14226249D01*
X-91594452Y14397756D01*
X-91594462Y14397765D01*
X-91594465Y14397767D01*
X-91688605Y14470003D01*
X-91724166Y14512762D01*
X-91747676Y14558905D01*
X-91818615Y14656544D01*
X-91863374Y14718149D01*
X-92002552Y14857327D01*
X-92161792Y14973022D01*
X-92161793Y14973023D01*
X-92161795Y14973024D01*
X-92337175Y15062384D01*
X-92524374Y15123209D01*
X-92718783Y15154000D01*
X-92915617Y15154000D01*
X-93110026Y15123209D01*
X-93110029Y15123209D01*
X-93110030Y15123208D01*
X-93165307Y15105247D01*
X-93297225Y15062384D01*
X-93297227Y15062384D01*
X-93297227Y15062383D01*
X-93472609Y14973022D01*
X-93631849Y14857327D01*
X-93771027Y14718149D01*
X-93886723Y14558908D01*
X-93910238Y14512758D01*
X-93945799Y14470001D01*
X-94039936Y14397767D01*
X-94039951Y14397754D01*
X-94211456Y14226249D01*
X-94211465Y14226238D01*
X-94359139Y14033786D01*
X-94480418Y13823725D01*
X-94480423Y13823714D01*
X-94573254Y13599600D01*
X-94573256Y13599596D01*
X-94636040Y13365283D01*
X-94667700Y13124791D01*
X-94667700Y11195993D01*
X-94687702Y11127872D01*
X-94704605Y11106898D01*
X-97134198Y8677305D01*
X-97196510Y8643279D01*
X-97223293Y8640400D01*
X-100479378Y8640400D01*
X-100479410Y8640401D01*
X-100483312Y8640401D01*
X-100725888Y8640401D01*
X-100725891Y8640401D01*
X-100966382Y8608740D01*
X-101200699Y8545955D01*
X-101331981Y8491577D01*
X-101331981Y8491576D01*
X-101375994Y8473345D01*
X-101424819Y8453121D01*
X-101424825Y8453118D01*
X-101634886Y8331839D01*
X-101827338Y8184165D01*
X-101827341Y8184163D01*
X-101875561Y8135942D01*
X-101998865Y8012638D01*
X-101998869Y8012634D01*
X-104472661Y5538844D01*
X-104472663Y5538841D01*
X-104626456Y5385049D01*
X-104626465Y5385038D01*
X-104774139Y5192586D01*
X-104895418Y4982525D01*
X-104895427Y4982506D01*
X-104913283Y4939400D01*
X-104913282Y4939399D01*
X-104988254Y4758400D01*
X-104988256Y4758396D01*
X-105051040Y4524082D01*
X-105082701Y4283591D01*
X-105082701Y4036555D01*
X-105082700Y4036526D01*
X-105082700Y-6024877D01*
X-105082701Y-6024911D01*
X-105082701Y-6271390D01*
X-105070721Y-6362383D01*
X-105051040Y-6511881D01*
X-104988256Y-6746195D01*
X-104988255Y-6746197D01*
X-104988254Y-6746200D01*
X-104895424Y-6970312D01*
X-104895423Y-6970313D01*
X-104895418Y-6970323D01*
X-104814431Y-7110596D01*
X-104774139Y-7180385D01*
X-104774137Y-7180388D01*
X-104774136Y-7180389D01*
X-104626465Y-7372838D01*
X-104626461Y-7372842D01*
X-104626456Y-7372848D01*
X-102519605Y-9479697D01*
X-102485580Y-9542009D01*
X-102482700Y-9568792D01*
X-102482700Y-11488300D01*
X-102502702Y-11556421D01*
X-102556358Y-11602914D01*
X-102608700Y-11614300D01*
X-104243700Y-11614300D01*
X-104311821Y-11594298D01*
X-104358314Y-11540642D01*
X-104369700Y-11488300D01*
X-104369700Y-8875874D01*
X-104369699Y-8875845D01*
X-104369699Y-8628819D01*
X-104369699Y-8628812D01*
X-104401362Y-8388311D01*
X-104464146Y-8154000D01*
X-104527686Y-8000600D01*
X-104556976Y-7929888D01*
X-104556980Y-7929881D01*
X-104556983Y-7929875D01*
X-104678262Y-7719814D01*
X-104757754Y-7616218D01*
X-104825935Y-7527362D01*
X-104997462Y-7355835D01*
X-105929795Y-6423502D01*
X-105963821Y-6361190D01*
X-105966700Y-6334407D01*
X-105966700Y124781D01*
X-105966700Y124788D01*
X-105998362Y365289D01*
X-106061146Y599600D01*
X-106153976Y823712D01*
X-106153982Y823721D01*
X-106153983Y823725D01*
X-106275262Y1033786D01*
X-106275869Y1034577D01*
X-106422935Y1226238D01*
X-106422941Y1226244D01*
X-106422945Y1226249D01*
X-106594452Y1397756D01*
X-106594462Y1397765D01*
X-106610643Y1410181D01*
X-106688605Y1470003D01*
X-106724166Y1512762D01*
X-106747676Y1558905D01*
X-106863372Y1718146D01*
X-106863374Y1718149D01*
X-107002552Y1857327D01*
X-107161792Y1973022D01*
X-107161793Y1973023D01*
X-107161795Y1973024D01*
X-107337175Y2062384D01*
X-107524374Y2123209D01*
X-107718783Y2154000D01*
X-107915617Y2154000D01*
X-108110026Y2123209D01*
X-108110029Y2123209D01*
X-108110030Y2123208D01*
X-108199846Y2094025D01*
X-108297225Y2062384D01*
X-108297227Y2062384D01*
X-108297227Y2062383D01*
X-108472609Y1973022D01*
X-108631849Y1857327D01*
X-108771027Y1718149D01*
X-108886723Y1558908D01*
X-108910238Y1512758D01*
X-108945799Y1470001D01*
X-109039936Y1397767D01*
X-109039951Y1397754D01*
X-109211456Y1226249D01*
X-109211465Y1226238D01*
X-109359139Y1033786D01*
X-109480418Y823725D01*
X-109480423Y823714D01*
X-109480424Y823712D01*
X-109537260Y686498D01*
X-109573254Y599600D01*
X-109573256Y599596D01*
X-109636040Y365283D01*
X-109667700Y124791D01*
X-109667700Y-7027877D01*
X-109667701Y-7027911D01*
X-109667701Y-7274390D01*
X-109654202Y-7376922D01*
X-109636040Y-7514881D01*
X-109573256Y-7749195D01*
X-109573255Y-7749197D01*
X-109573254Y-7749200D01*
X-109560275Y-7780533D01*
X-109480426Y-7973308D01*
X-109480420Y-7973319D01*
X-109464672Y-8000597D01*
X-109464669Y-8000600D01*
X-109359139Y-8183385D01*
X-109359137Y-8183388D01*
X-109359136Y-8183389D01*
X-109211465Y-8375838D01*
X-109211461Y-8375842D01*
X-109211456Y-8375848D01*
X-108107605Y-9479698D01*
X-108073580Y-9542010D01*
X-108070700Y-9568793D01*
X-108070700Y-11488300D01*
X-108090702Y-11556421D01*
X-108144358Y-11602914D01*
X-108196700Y-11614300D01*
X-109831700Y-11614300D01*
X-109899821Y-11594298D01*
X-109946314Y-11540642D01*
X-109957700Y-11488300D01*
X-109957700Y-8613819D01*
X-109957700Y-8613812D01*
X-109989362Y-8373311D01*
X-110052146Y-8139000D01*
X-110144976Y-7914888D01*
X-110144982Y-7914879D01*
X-110144983Y-7914875D01*
X-110266262Y-7704814D01*
X-110334244Y-7616218D01*
X-110413935Y-7512362D01*
X-110413941Y-7512356D01*
X-110413945Y-7512351D01*
X-110585452Y-7340844D01*
X-110585458Y-7340839D01*
X-110585462Y-7340835D01*
X-110777911Y-7193164D01*
X-110777912Y-7193163D01*
X-110777915Y-7193161D01*
X-110987976Y-7071882D01*
X-110987984Y-7071878D01*
X-110987988Y-7071876D01*
X-111212100Y-6979046D01*
X-111212106Y-6979044D01*
X-111212116Y-6979041D01*
X-111346629Y-6942997D01*
X-111403112Y-6910386D01*
X-116569795Y-1743702D01*
X-116603821Y-1681390D01*
X-116606700Y-1654607D01*
X-116606700Y-1600709D01*
X-115917199Y-1600709D01*
X-115914349Y-1631106D01*
X-115914348Y-1631109D01*
X-115869547Y-1759144D01*
X-115869547Y-1759145D01*
X-115788993Y-1868292D01*
X-115679848Y-1948844D01*
X-115567200Y-1988261D01*
X-114067200Y-1988261D01*
X-113954553Y-1948844D01*
X-113845408Y-1868292D01*
X-113764854Y-1759145D01*
X-113764854Y-1759144D01*
X-113720053Y-1631110D01*
X-113720052Y-1631105D01*
X-113717201Y-1600705D01*
X-113717200Y-1600699D01*
X-113717200Y-746500D01*
X-114067200Y-746500D01*
X-114067200Y-1988261D01*
X-115567200Y-1988261D01*
X-115567200Y-746500D01*
X-115917199Y-746500D01*
X-115917199Y-1600709D01*
X-116606700Y-1600709D01*
X-116606700Y82491D01*
X-115417200Y82491D01*
X-115417200Y-75491D01*
X-115376311Y-228091D01*
X-115297319Y-364908D01*
X-115185608Y-476619D01*
X-115048791Y-555611D01*
X-114896191Y-596500D01*
X-114738209Y-596500D01*
X-114585609Y-555611D01*
X-114448792Y-476619D01*
X-114337081Y-364908D01*
X-114258089Y-228091D01*
X-114217200Y-75491D01*
X-114217200Y82491D01*
X-114258089Y235091D01*
X-114337081Y371908D01*
X-114448792Y483619D01*
X-114585609Y562611D01*
X-114738209Y603500D01*
X-114896191Y603500D01*
X-115048791Y562611D01*
X-115185608Y483619D01*
X-115297319Y371908D01*
X-115376311Y235091D01*
X-115417200Y82491D01*
X-116606700Y82491D01*
X-116606700Y1607706D01*
X-115917200Y1607706D01*
X-115917200Y753500D01*
X-115567200Y753500D01*
X-114067200Y753500D01*
X-113717201Y753500D01*
X-113717201Y1607695D01*
X-113717202Y1607710D01*
X-113720052Y1638107D01*
X-113720053Y1638110D01*
X-113764854Y1766145D01*
X-113764854Y1766146D01*
X-113845408Y1875293D01*
X-113954552Y1955844D01*
X-113954554Y1955846D01*
X-114067200Y1995263D01*
X-114067200Y753500D01*
X-115567200Y753500D01*
X-115567200Y1995263D01*
X-115679847Y1955846D01*
X-115679849Y1955844D01*
X-115788993Y1875293D01*
X-115869547Y1766146D01*
X-115869547Y1766145D01*
X-115914348Y1638111D01*
X-115914349Y1638106D01*
X-115917200Y1607706D01*
X-116606700Y1607706D01*
X-116606700Y3544809D01*
X-116586698Y3612930D01*
X-116569795Y3633904D01*
X-115087604Y5116095D01*
X-115025292Y5150121D01*
X-114998509Y5153000D01*
X-111093422Y5153000D01*
X-111093390Y5152999D01*
X-111089488Y5152999D01*
X-110846919Y5152999D01*
X-110846912Y5152999D01*
X-110606411Y5184662D01*
X-110372100Y5247446D01*
X-110365755Y5250074D01*
X-110147988Y5340276D01*
X-109937911Y5461564D01*
X-109745462Y5609235D01*
X-109573935Y5780762D01*
X-109556215Y5798482D01*
X-109556213Y5798486D01*
X-106599931Y8754769D01*
X-106599913Y8754784D01*
X-106422945Y8931752D01*
X-106422935Y8931762D01*
X-106275264Y9124211D01*
X-106153976Y9334288D01*
X-106061146Y9558400D01*
X-105998362Y9792711D01*
X-105990304Y9853916D01*
X-105966699Y10033212D01*
X-105966699Y10275788D01*
X-105966699Y10279689D01*
X-105966700Y10279723D01*
X-105966700Y13124781D01*
X-105966700Y13124788D01*
X-105998362Y13365289D01*
X-106061146Y13599600D01*
X-106153976Y13823712D01*
X-106153982Y13823721D01*
X-106153983Y13823725D01*
X-106275262Y14033786D01*
X-106288169Y14050607D01*
X-106422935Y14226238D01*
X-106422941Y14226244D01*
X-106422945Y14226249D01*
X-106594452Y14397756D01*
X-106594462Y14397765D01*
X-106594465Y14397767D01*
X-106688605Y14470003D01*
X-106724166Y14512762D01*
X-106747676Y14558905D01*
X-106818615Y14656544D01*
X-106863374Y14718149D01*
X-107002552Y14857327D01*
X-107161792Y14973022D01*
X-107161793Y14973023D01*
X-107161795Y14973024D01*
X-107337175Y15062384D01*
X-107524374Y15123209D01*
X-107718783Y15154000D01*
X-107915617Y15154000D01*
X-108110026Y15123209D01*
X-108110029Y15123209D01*
X-108110030Y15123208D01*
X-108165307Y15105247D01*
X-108297225Y15062384D01*
X-108297227Y15062384D01*
X-108297227Y15062383D01*
X-108472609Y14973022D01*
X-108631849Y14857327D01*
X-108771027Y14718149D01*
X-108886723Y14558908D01*
X-108910238Y14512758D01*
X-108945799Y14470001D01*
X-109039936Y14397767D01*
X-109039951Y14397754D01*
X-109211456Y14226249D01*
X-109211465Y14226238D01*
X-109359139Y14033786D01*
X-109480418Y13823725D01*
X-109480423Y13823714D01*
X-109573254Y13599600D01*
X-109573256Y13599596D01*
X-109636040Y13365283D01*
X-109667700Y13124791D01*
X-109667700Y10973193D01*
X-109687702Y10905072D01*
X-109704605Y10884098D01*
X-111697798Y8890905D01*
X-111760110Y8856879D01*
X-111786893Y8854000D01*
X-115938491Y8854000D01*
X-116178983Y8822340D01*
X-116413296Y8759556D01*
X-116413300Y8759554D01*
X-116637414Y8666723D01*
X-116637425Y8666718D01*
X-116847486Y8545439D01*
X-117039938Y8397765D01*
X-117039949Y8397756D01*
X-117212915Y8224789D01*
X-117212978Y8224725D01*
X-119678425Y5759278D01*
X-119678489Y5759215D01*
X-119851456Y5586249D01*
X-119851465Y5586238D01*
X-119999139Y5393786D01*
X-120120418Y5183725D01*
X-120120423Y5183714D01*
X-120120424Y5183712D01*
X-120133145Y5153000D01*
X-120213254Y4959600D01*
X-120213256Y4959596D01*
X-120276040Y4725283D01*
X-120307700Y4484791D01*
X-120307700Y-2348077D01*
X-120307701Y-2348111D01*
X-120307701Y-2594589D01*
X-120280710Y-2799601D01*
X-120280710Y-2799602D01*
X-120276040Y-2835079D01*
X-120276039Y-2835084D01*
X-120276038Y-2835089D01*
X-120266665Y-2870069D01*
X-120213256Y-3069395D01*
X-120213255Y-3069397D01*
X-120213254Y-3069400D01*
X-120120424Y-3293512D01*
X-120120423Y-3293513D01*
X-120120422Y-3293517D01*
X-120100246Y-3328462D01*
X-120038906Y-3434705D01*
X-119999136Y-3503589D01*
X-119851465Y-3696038D01*
X-119851461Y-3696042D01*
X-119851456Y-3696048D01*
X-113695605Y-9851897D01*
X-113661579Y-9914209D01*
X-113658700Y-9940992D01*
X-113658700Y-11488300D01*
X-113678702Y-11556421D01*
X-113732358Y-11602914D01*
X-113784700Y-11614300D01*
X-115711222Y-11614300D01*
X-115779343Y-11594298D01*
X-115800317Y-11577395D01*
X-120174033Y-7203677D01*
X-120174039Y-7203672D01*
X-120313337Y-7110596D01*
X-120429739Y-7062381D01*
X-120429740Y-7062381D01*
X-120468118Y-7046484D01*
X-120550276Y-7030142D01*
X-120632431Y-7013800D01*
X-120632433Y-7013800D01*
X-121572751Y-7013800D01*
X-121640872Y-6993798D01*
X-121649457Y-6987761D01*
X-121650962Y-6986606D01*
X-121650967Y-6986602D01*
X-121669208Y-6979046D01*
X-121790966Y-6928612D01*
X-121903478Y-6913800D01*
X-121903480Y-6913800D01*
X-122428920Y-6913800D01*
X-122428923Y-6913800D01*
X-122541435Y-6928612D01*
X-122681432Y-6986601D01*
X-122681440Y-6986606D01*
X-122801652Y-7078848D01*
X-122893894Y-7199060D01*
X-122893899Y-7199068D01*
X-122951888Y-7339065D01*
X-122966700Y-7451577D01*
X-122966700Y-7549349D01*
X-122976291Y-7597566D01*
X-122984013Y-7616207D01*
X-122984016Y-7616217D01*
X-123016700Y-7780530D01*
X-123016700Y-7948069D01*
X-122984015Y-8112387D01*
X-122976292Y-8131030D01*
X-122966700Y-8179250D01*
X-122966700Y-8277022D01*
X-122951888Y-8389534D01*
X-122893899Y-8529531D01*
X-122893894Y-8529539D01*
X-122801652Y-8649751D01*
X-122681440Y-8741993D01*
X-122681433Y-8741998D01*
X-122541436Y-8799987D01*
X-122428920Y-8814800D01*
X-122428913Y-8814800D01*
X-121903487Y-8814800D01*
X-121903480Y-8814800D01*
X-121790964Y-8799987D01*
X-121650967Y-8741998D01*
X-121649457Y-8740838D01*
X-121647956Y-8740258D01*
X-121643813Y-8737867D01*
X-121643441Y-8738512D01*
X-121583237Y-8715237D01*
X-121572751Y-8714800D01*
X-121120679Y-8714800D01*
X-121052558Y-8734802D01*
X-121031584Y-8751705D01*
X-118384084Y-11399205D01*
X-118350058Y-11461517D01*
X-118355123Y-11532332D01*
X-118397670Y-11589168D01*
X-118464190Y-11613979D01*
X-118473179Y-11614300D01*
X-126478058Y-11614300D01*
X-126546179Y-11594298D01*
X-126587177Y-11551300D01*
X-126635949Y-11466824D01*
X-126687835Y-11399205D01*
X-126803572Y-11248372D01*
X-126803573Y-11248371D01*
X-126803582Y-11248361D01*
X-126998262Y-11053681D01*
X-126998272Y-11053672D01*
X-127057886Y-11007929D01*
X-127216721Y-10886051D01*
X-127216722Y-10886050D01*
X-127216725Y-10886048D01*
X-127455167Y-10748383D01*
X-127455178Y-10748377D01*
X-127582374Y-10695691D01*
X-127709568Y-10643005D01*
X-127975534Y-10571740D01*
X-127975541Y-10571738D01*
X-128248524Y-10535800D01*
X-128248526Y-10535800D01*
X-128523874Y-10535800D01*
X-128523877Y-10535800D01*
X-128796860Y-10571738D01*
X-129062832Y-10643005D01*
X-129317223Y-10748377D01*
X-129317234Y-10748383D01*
X-129555676Y-10886048D01*
X-129774129Y-11053672D01*
X-129774139Y-11053681D01*
X-129968819Y-11248361D01*
X-129968828Y-11248371D01*
X-130136452Y-11466824D01*
X-130185223Y-11551300D01*
X-130236605Y-11600293D01*
X-130294342Y-11614300D01*
X-131360013Y-11614300D01*
X-131372362Y-11613693D01*
X-131405105Y-11610468D01*
X-131548939Y-11596301D01*
X-131573163Y-11591483D01*
X-131737009Y-11541782D01*
X-131759828Y-11532330D01*
X-131842202Y-11488300D01*
X-131910828Y-11451618D01*
X-131931366Y-11437895D01*
X-132063715Y-11329279D01*
X-132081180Y-11311814D01*
X-132133246Y-11248371D01*
X-132189798Y-11179462D01*
X-132203519Y-11158927D01*
X-132284229Y-11007930D01*
X-132293682Y-10985109D01*
X-132336352Y-10844443D01*
X-132341777Y-10807885D01*
X-132343995Y15585700D01*
X-128378225Y15585700D01*
X-128066200Y15585700D01*
X-126566200Y15585700D01*
X-126254176Y15585700D01*
X-126281105Y15620794D01*
X-126281110Y15620799D01*
X-126401220Y15712964D01*
X-126541094Y15770900D01*
X-126566200Y15774207D01*
X-126566200Y15585700D01*
X-128066200Y15585700D01*
X-128066200Y15774206D01*
X-128066201Y15774207D01*
X-128091306Y15770900D01*
X-128091308Y15770900D01*
X-128231181Y15712964D01*
X-128351291Y15620799D01*
X-128351296Y15620794D01*
X-128378225Y15585700D01*
X-132343995Y15585700D01*
X-132344114Y17006491D01*
X-126816199Y17006491D01*
X-126813349Y16976094D01*
X-126813348Y16976091D01*
X-126768547Y16848056D01*
X-126768547Y16848055D01*
X-126687994Y16738910D01*
X-126616201Y16685924D01*
X-126616200Y16685924D01*
X-125616200Y16685924D01*
X-125544407Y16738910D01*
X-125463854Y16848055D01*
X-125463854Y16848056D01*
X-125419053Y16976090D01*
X-125419052Y16976095D01*
X-125416201Y17006495D01*
X-125416200Y17006501D01*
X-125416200Y17035700D01*
X-125616200Y17035700D01*
X-125616200Y16685924D01*
X-126616200Y16685924D01*
X-126616200Y17035700D01*
X-126816199Y17035700D01*
X-126816199Y17006491D01*
X-132344114Y17006491D01*
X-132344203Y18064906D01*
X-126816200Y18064906D01*
X-126816200Y18035700D01*
X-126616200Y18035700D01*
X-125616200Y18035700D01*
X-125416201Y18035700D01*
X-125416201Y18064895D01*
X-125416202Y18064910D01*
X-125419052Y18095307D01*
X-125419053Y18095310D01*
X-125463854Y18223345D01*
X-125463854Y18223346D01*
X-125544407Y18332491D01*
X-125616200Y18385479D01*
X-125616200Y18035700D01*
X-126616200Y18035700D01*
X-126616200Y18385479D01*
X-126687994Y18332491D01*
X-126768547Y18223346D01*
X-126768547Y18223345D01*
X-126813348Y18095311D01*
X-126813349Y18095306D01*
X-126816200Y18064906D01*
X-132344203Y18064906D01*
X-132344378Y20145700D01*
X-119316389Y20145700D01*
X-119316366Y20145553D01*
X-119258840Y20032654D01*
X-119258839Y20032652D01*
X-119169248Y19943061D01*
X-119169245Y19943059D01*
X-119131200Y19923675D01*
X-119131200Y19923676D01*
X-118331200Y19923676D01*
X-118293156Y19943059D01*
X-118293153Y19943061D01*
X-118203562Y20032652D01*
X-118203561Y20032654D01*
X-118146035Y20145553D01*
X-118146012Y20145700D01*
X-118331200Y20145700D01*
X-118331200Y19923676D01*
X-119131200Y19923676D01*
X-119131200Y20145700D01*
X-119316389Y20145700D01*
X-132344378Y20145700D01*
X-132344445Y20945701D01*
X-119316389Y20945701D01*
X-119316387Y20945700D01*
X-119131200Y20945700D01*
X-118331200Y20945700D01*
X-118146013Y20945700D01*
X-118146012Y20945701D01*
X-118146035Y20945848D01*
X-118203561Y21058747D01*
X-118203562Y21058749D01*
X-118293155Y21148342D01*
X-118331200Y21167726D01*
X-118331200Y20945700D01*
X-119131200Y20945700D01*
X-119131200Y21167726D01*
X-119131201Y21167726D01*
X-119169246Y21148342D01*
X-119258839Y21058749D01*
X-119258840Y21058747D01*
X-119316366Y20945848D01*
X-119316389Y20945701D01*
X-132344445Y20945701D01*
X-132345904Y38301377D01*
X-130486700Y38301377D01*
X-130486700Y38026024D01*
X-130450762Y37753041D01*
X-130428170Y37668727D01*
X-130379495Y37487068D01*
X-130348077Y37411218D01*
X-130274123Y37232678D01*
X-130274117Y37232667D01*
X-130136452Y36994225D01*
X-129968828Y36775772D01*
X-129968819Y36775762D01*
X-129774139Y36581082D01*
X-129774129Y36581073D01*
X-129555676Y36413449D01*
X-129317234Y36275784D01*
X-129317223Y36275778D01*
X-129317221Y36275777D01*
X-129062832Y36170405D01*
X-128796866Y36099140D01*
X-128796862Y36099140D01*
X-128796860Y36099139D01*
X-128726504Y36089877D01*
X-128523874Y36063200D01*
X-128523867Y36063200D01*
X-128248533Y36063200D01*
X-128248526Y36063200D01*
X-128001809Y36095681D01*
X-127975541Y36099139D01*
X-127975541Y36099140D01*
X-127975534Y36099140D01*
X-127709568Y36170405D01*
X-127455179Y36275777D01*
X-127216721Y36413451D01*
X-126998272Y36581072D01*
X-126803572Y36775772D01*
X-126635951Y36994221D01*
X-126498277Y37232679D01*
X-126392905Y37487068D01*
X-126321640Y37753034D01*
X-126285700Y38026026D01*
X-126285700Y38301374D01*
X-126321640Y38574366D01*
X-126392905Y38840332D01*
X-126498277Y39094721D01*
X-126498278Y39094723D01*
X-126498284Y39094734D01*
X-126635949Y39333176D01*
X-126677687Y39387570D01*
X-126803572Y39551628D01*
X-126803573Y39551629D01*
X-126803582Y39551639D01*
X-126998262Y39746319D01*
X-126998272Y39746328D01*
X-127216725Y39913952D01*
X-127455167Y40051617D01*
X-127455178Y40051623D01*
X-127582374Y40104309D01*
X-127709568Y40156995D01*
X-127975534Y40228260D01*
X-127975541Y40228262D01*
X-128248524Y40264200D01*
X-128248526Y40264200D01*
X-128523874Y40264200D01*
X-128523877Y40264200D01*
X-128796860Y40228262D01*
X-129062832Y40156995D01*
X-129317223Y40051623D01*
X-129317234Y40051617D01*
X-129555676Y39913952D01*
X-129774129Y39746328D01*
X-129774139Y39746319D01*
X-129968819Y39551639D01*
X-129968828Y39551629D01*
X-130136452Y39333176D01*
X-130274117Y39094734D01*
X-130274123Y39094723D01*
X-130379495Y38840332D01*
X-130450762Y38574360D01*
X-130486700Y38301377D01*
X-132345904Y38301377D01*
X-132346454Y44842268D01*
X-123426700Y44842268D01*
X-123426700Y44593133D01*
X-123394184Y44346142D01*
X-123394182Y44346135D01*
X-123329702Y44105493D01*
X-123234364Y43875327D01*
X-123234363Y43875326D01*
X-123234358Y43875315D01*
X-123109802Y43659577D01*
X-123109800Y43659574D01*
X-123109799Y43659573D01*
X-122958138Y43461924D01*
X-122958134Y43461920D01*
X-122958129Y43461914D01*
X-122781987Y43285772D01*
X-122781982Y43285768D01*
X-122781976Y43285762D01*
X-122584327Y43134101D01*
X-122584324Y43134099D01*
X-122368586Y43009543D01*
X-122368582Y43009542D01*
X-122368573Y43009536D01*
X-122138407Y42914198D01*
X-121897765Y42849718D01*
X-121897761Y42849718D01*
X-121897759Y42849717D01*
X-121834101Y42841337D01*
X-121650765Y42817200D01*
X-121650758Y42817200D01*
X-121401642Y42817200D01*
X-121401635Y42817200D01*
X-121178410Y42846589D01*
X-121154642Y42849717D01*
X-121154642Y42849718D01*
X-121154635Y42849718D01*
X-120913993Y42914198D01*
X-120683827Y43009536D01*
X-120468073Y43134101D01*
X-120270424Y43285762D01*
X-120094262Y43461924D01*
X-119942601Y43659573D01*
X-119818036Y43875327D01*
X-119722698Y44105493D01*
X-119658218Y44346135D01*
X-119625700Y44593135D01*
X-119625700Y44842265D01*
X-119625700Y44842268D01*
X-111996700Y44842268D01*
X-111996700Y44593133D01*
X-111964184Y44346142D01*
X-111964182Y44346135D01*
X-111899702Y44105493D01*
X-111804364Y43875327D01*
X-111804363Y43875326D01*
X-111804358Y43875315D01*
X-111679802Y43659577D01*
X-111679800Y43659574D01*
X-111679799Y43659573D01*
X-111528138Y43461924D01*
X-111528134Y43461920D01*
X-111528129Y43461914D01*
X-111351987Y43285772D01*
X-111351982Y43285768D01*
X-111351976Y43285762D01*
X-111154327Y43134101D01*
X-111154324Y43134099D01*
X-110938586Y43009543D01*
X-110938582Y43009542D01*
X-110938573Y43009536D01*
X-110708407Y42914198D01*
X-110467765Y42849718D01*
X-110467761Y42849718D01*
X-110467759Y42849717D01*
X-110404101Y42841337D01*
X-110220765Y42817200D01*
X-110220758Y42817200D01*
X-109971642Y42817200D01*
X-109971635Y42817200D01*
X-109748410Y42846589D01*
X-109724642Y42849717D01*
X-109724642Y42849718D01*
X-109724635Y42849718D01*
X-109483993Y42914198D01*
X-109253827Y43009536D01*
X-109038073Y43134101D01*
X-108840424Y43285762D01*
X-108664262Y43461924D01*
X-108512601Y43659573D01*
X-108388036Y43875327D01*
X-108292698Y44105493D01*
X-108228218Y44346135D01*
X-108195700Y44593135D01*
X-108195700Y44842265D01*
X-108228218Y45089265D01*
X-108292698Y45329907D01*
X-108388036Y45560073D01*
X-108388042Y45560082D01*
X-108388043Y45560086D01*
X-108512599Y45775824D01*
X-108512601Y45775827D01*
X-108664262Y45973476D01*
X-108664268Y45973482D01*
X-108664272Y45973487D01*
X-108840414Y46149629D01*
X-108840420Y46149634D01*
X-108840424Y46149638D01*
X-109038073Y46301299D01*
X-109038074Y46301300D01*
X-109038077Y46301302D01*
X-109253815Y46425858D01*
X-109253823Y46425862D01*
X-109253827Y46425864D01*
X-109483993Y46521202D01*
X-109724635Y46585682D01*
X-109724642Y46585684D01*
X-109971633Y46618200D01*
X-109971635Y46618200D01*
X-110220765Y46618200D01*
X-110220768Y46618200D01*
X-110467759Y46585684D01*
X-110708403Y46521203D01*
X-110708407Y46521202D01*
X-110938575Y46425863D01*
X-110938586Y46425858D01*
X-111154324Y46301302D01*
X-111351976Y46149638D01*
X-111351987Y46149629D01*
X-111528129Y45973487D01*
X-111528138Y45973476D01*
X-111679802Y45775824D01*
X-111804358Y45560086D01*
X-111804363Y45560075D01*
X-111899702Y45329907D01*
X-111899703Y45329903D01*
X-111964184Y45089259D01*
X-111996700Y44842268D01*
X-119625700Y44842268D01*
X-119658218Y45089265D01*
X-119722698Y45329907D01*
X-119818036Y45560073D01*
X-119818042Y45560082D01*
X-119818043Y45560086D01*
X-119942599Y45775824D01*
X-119942601Y45775827D01*
X-120094262Y45973476D01*
X-120094268Y45973482D01*
X-120094272Y45973487D01*
X-120270414Y46149629D01*
X-120270420Y46149634D01*
X-120270424Y46149638D01*
X-120468073Y46301299D01*
X-120468074Y46301300D01*
X-120468077Y46301302D01*
X-120683815Y46425858D01*
X-120683823Y46425862D01*
X-120683827Y46425864D01*
X-120913993Y46521202D01*
X-121154635Y46585682D01*
X-121154642Y46585684D01*
X-121401633Y46618200D01*
X-121401635Y46618200D01*
X-121650765Y46618200D01*
X-121650768Y46618200D01*
X-121897759Y46585684D01*
X-122138403Y46521203D01*
X-122138407Y46521202D01*
X-122368575Y46425863D01*
X-122368586Y46425858D01*
X-122584324Y46301302D01*
X-122781976Y46149638D01*
X-122781987Y46149629D01*
X-122958129Y45973487D01*
X-122958138Y45973476D01*
X-123109802Y45775824D01*
X-123234358Y45560086D01*
X-123234363Y45560075D01*
X-123329702Y45329907D01*
X-123329703Y45329903D01*
X-123394184Y45089259D01*
X-123426700Y44842268D01*
X-132346454Y44842268D01*
X-132346632Y46963262D01*
X-132346520Y46964013D01*
X-132346627Y46964391D01*
X-132341206Y46999842D01*
X-132293681Y47156511D01*
X-132284232Y47179325D01*
X-132203518Y47330331D01*
X-132189802Y47350858D01*
X-132081175Y47483221D01*
X-132063721Y47500675D01*
X-131931358Y47609302D01*
X-131910831Y47623018D01*
X-131759820Y47703735D01*
X-131737019Y47713179D01*
X-131599893Y47754775D01*
X-131563318Y47760200D01*
X-73844082Y47760200D01*
X-73807507Y47754775D01*
G37*
%TD.AperFunction*%
%TA.AperFunction,Conductor*%
G36*
X-90885141Y-2948444D02*
G01*
X-90833463Y-2997126D01*
X-90816200Y-3060784D01*
X-90816200Y-10608112D01*
X-90816807Y-10620463D01*
X-90834199Y-10797038D01*
X-90839017Y-10821262D01*
X-90888718Y-10985108D01*
X-90898171Y-11007929D01*
X-90978882Y-11158927D01*
X-90992605Y-11179465D01*
X-91101221Y-11311814D01*
X-91118686Y-11329279D01*
X-91251035Y-11437895D01*
X-91271573Y-11451618D01*
X-91422571Y-11532329D01*
X-91445392Y-11541782D01*
X-91609238Y-11591483D01*
X-91633462Y-11596301D01*
X-91781927Y-11610924D01*
X-91810039Y-11613693D01*
X-91822387Y-11614300D01*
X-93067700Y-11614300D01*
X-93135821Y-11594298D01*
X-93182314Y-11540642D01*
X-93193700Y-11488300D01*
X-93193700Y-5468792D01*
X-93173698Y-5400671D01*
X-93156795Y-5379697D01*
X-92391897Y-4614799D01*
X-91597624Y-3820526D01*
X-91597609Y-3820512D01*
X-91422945Y-3645848D01*
X-91422935Y-3645838D01*
X-91275264Y-3453389D01*
X-91153976Y-3243312D01*
X-91096136Y-3103674D01*
X-91061145Y-3019199D01*
X-91061145Y-3019197D01*
X-91059567Y-3015389D01*
X-91058408Y-3015869D01*
X-91020685Y-2962213D01*
X-90954934Y-2935429D01*
X-90885141Y-2948444D01*
G37*
%TD.AperFunction*%
%TA.AperFunction,Conductor*%
G36*
X-110950903Y23015198D02*
G01*
X-110912757Y22976900D01*
X-110896066Y22950700D01*
X-110542200Y22950700D01*
X-110474079Y22930698D01*
X-110427586Y22877042D01*
X-110416200Y22824700D01*
X-110416200Y22670700D01*
X-110262200Y22670700D01*
X-110194079Y22650698D01*
X-110147586Y22597042D01*
X-110136200Y22544700D01*
X-110136200Y22206846D01*
X-110132316Y22204371D01*
X-110075759Y22212961D01*
X-110010946Y22183981D01*
X-109972089Y22124562D01*
X-109966700Y22088105D01*
X-109966700Y20643179D01*
X-109986702Y20575058D01*
X-110040358Y20528565D01*
X-110110632Y20518461D01*
X-110175212Y20547955D01*
X-110181795Y20554084D01*
X-110244033Y20616322D01*
X-110244039Y20616327D01*
X-110339633Y20680201D01*
X-110383337Y20709403D01*
X-110492780Y20754736D01*
X-110538115Y20773515D01*
X-110538117Y20773516D01*
X-110538118Y20773516D01*
X-110624619Y20790722D01*
X-110702431Y20806200D01*
X-110702433Y20806200D01*
X-110761009Y20806200D01*
X-110776747Y20810417D01*
X-110790713Y20809751D01*
X-110824008Y20823080D01*
X-110829776Y20826410D01*
X-110864296Y20846340D01*
X-110864298Y20846342D01*
X-110864299Y20846342D01*
X-110898707Y20866208D01*
X-110914412Y20875276D01*
X-110914415Y20875277D01*
X-110917972Y20876230D01*
X-111067143Y20916201D01*
X-111225257Y20916201D01*
X-111232975Y20916201D01*
X-111232991Y20916200D01*
X-112578721Y20916200D01*
X-112646842Y20936202D01*
X-112693335Y20989858D01*
X-112703439Y21060132D01*
X-112673945Y21124712D01*
X-112667816Y21131295D01*
X-112655579Y21143533D01*
X-112655574Y21143538D01*
X-112562497Y21282837D01*
X-112498384Y21437618D01*
X-112465700Y21601933D01*
X-112465700Y21769467D01*
X-112498384Y21933782D01*
X-112562497Y22088563D01*
X-112655574Y22227862D01*
X-112655579Y22227868D01*
X-112710795Y22283084D01*
X-112725740Y22310453D01*
X-112742596Y22336681D01*
X-112743502Y22342980D01*
X-112744821Y22345396D01*
X-112747700Y22372179D01*
X-112747700Y22390700D01*
X-110896065Y22390700D01*
X-110869008Y22332675D01*
X-110784227Y22247894D01*
X-110696200Y22206847D01*
X-110696200Y22390700D01*
X-110896065Y22390700D01*
X-112747700Y22390700D01*
X-112747700Y22506119D01*
X-112727698Y22574240D01*
X-112674042Y22620733D01*
X-112603768Y22630837D01*
X-112539188Y22601343D01*
X-112520836Y22581633D01*
X-112510746Y22568154D01*
X-112510745Y22568153D01*
X-112484176Y22548264D01*
X-112395531Y22481904D01*
X-112395529Y22481904D01*
X-112395527Y22481902D01*
X-112335170Y22459391D01*
X-112260686Y22431610D01*
X-112260683Y22431609D01*
X-112201073Y22425200D01*
X-111805328Y22425201D01*
X-111745717Y22431609D01*
X-111610869Y22481904D01*
X-111495654Y22568154D01*
X-111409404Y22683369D01*
X-111409114Y22684145D01*
X-111398896Y22711542D01*
X-111359109Y22818217D01*
X-111352700Y22877827D01*
X-111352700Y22909200D01*
X-111350109Y22918026D01*
X-111351418Y22927132D01*
X-111340263Y22951558D01*
X-111332698Y22977321D01*
X-111325745Y22983346D01*
X-111321924Y22991712D01*
X-111299339Y23006227D01*
X-111279042Y23023814D01*
X-111268356Y23026139D01*
X-111262198Y23030096D01*
X-111226700Y23035200D01*
X-111019024Y23035200D01*
X-110950903Y23015198D01*
G37*
%TD.AperFunction*%
%TA.AperFunction,Conductor*%
G36*
X-81479886Y25941237D02*
G01*
X-81444974Y25879417D01*
X-81441700Y25850879D01*
X-81441700Y22257200D01*
X-81461702Y22189079D01*
X-81515358Y22142586D01*
X-81567700Y22131200D01*
X-94903498Y22131200D01*
X-94971619Y22151202D01*
X-94992593Y22168105D01*
X-95503852Y22679364D01*
X-95537878Y22741676D01*
X-95532813Y22812491D01*
X-95490266Y22869327D01*
X-95462980Y22884866D01*
X-95373337Y22921997D01*
X-95234038Y23015074D01*
X-95115574Y23133538D01*
X-95022497Y23272837D01*
X-94958384Y23427618D01*
X-94952685Y23456274D01*
X-94919779Y23519182D01*
X-94858085Y23554315D01*
X-94787190Y23550517D01*
X-94766113Y23540816D01*
X-94757985Y23536123D01*
X-94605257Y23495199D01*
X-94605254Y23495199D01*
X-94439424Y23495199D01*
X-94439408Y23495200D01*
X-85167991Y23495200D01*
X-85167975Y23495199D01*
X-85160257Y23495199D01*
X-85002146Y23495199D01*
X-85002143Y23495199D01*
X-84849415Y23536123D01*
X-84817907Y23554315D01*
X-84799319Y23565047D01*
X-84799309Y23565055D01*
X-84799296Y23565061D01*
X-84712484Y23615180D01*
X-84600680Y23726984D01*
X-84600680Y23726986D01*
X-84590310Y23737355D01*
X-84590307Y23737360D01*
X-83734033Y24593633D01*
X-83671724Y24627657D01*
X-83600909Y24622592D01*
X-83544073Y24580045D01*
X-83519262Y24513525D01*
X-83528532Y24456319D01*
X-83579692Y24332807D01*
X-83579694Y24332798D01*
X-83585085Y24305701D01*
X-83585084Y24305700D01*
X-83099212Y24305700D01*
X-83132125Y24248693D01*
X-83166200Y24121526D01*
X-83166200Y23989874D01*
X-83132125Y23862707D01*
X-83099212Y23805700D01*
X-83585085Y23805700D01*
X-83579694Y23778603D01*
X-83579693Y23778598D01*
X-83508079Y23605706D01*
X-83404116Y23450115D01*
X-83404111Y23450108D01*
X-83271793Y23317790D01*
X-83271786Y23317785D01*
X-83116194Y23213822D01*
X-82943306Y23142209D01*
X-82943307Y23142209D01*
X-82916200Y23136818D01*
X-82916200Y23622688D01*
X-82859193Y23589775D01*
X-82732026Y23555700D01*
X-82600374Y23555700D01*
X-82473207Y23589775D01*
X-82416200Y23622688D01*
X-82416200Y23136819D01*
X-82389094Y23142209D01*
X-82216207Y23213822D01*
X-82060615Y23317785D01*
X-82060608Y23317790D01*
X-81928290Y23450108D01*
X-81928285Y23450115D01*
X-81824322Y23605706D01*
X-81752708Y23778598D01*
X-81752707Y23778603D01*
X-81747316Y23805700D01*
X-82233188Y23805700D01*
X-82200275Y23862707D01*
X-82166200Y23989874D01*
X-82166200Y24121526D01*
X-82200275Y24248693D01*
X-82233188Y24305700D01*
X-81747316Y24305700D01*
X-81747316Y24305701D01*
X-81752707Y24332798D01*
X-81752708Y24332803D01*
X-81824322Y24505695D01*
X-81928285Y24661286D01*
X-81928290Y24661293D01*
X-82060608Y24793611D01*
X-82060615Y24793616D01*
X-82216206Y24897579D01*
X-82389098Y24969193D01*
X-82389103Y24969194D01*
X-82416200Y24974585D01*
X-82416200Y24488712D01*
X-82473207Y24521625D01*
X-82600374Y24555700D01*
X-82732026Y24555700D01*
X-82859193Y24521625D01*
X-82916200Y24488712D01*
X-82916200Y24974584D01*
X-82916201Y24974585D01*
X-82943298Y24969194D01*
X-82943307Y24969192D01*
X-83066818Y24918032D01*
X-83137407Y24910443D01*
X-83200894Y24942223D01*
X-83237121Y25003281D01*
X-83234587Y25074232D01*
X-83204132Y25123534D01*
X-82954372Y25373294D01*
X-82892062Y25407318D01*
X-82845574Y25408646D01*
X-82760681Y25395200D01*
X-82760677Y25395200D01*
X-82571722Y25395200D01*
X-82571719Y25395200D01*
X-82385082Y25424760D01*
X-82205368Y25483153D01*
X-82037001Y25568940D01*
X-81884127Y25680010D01*
X-81750510Y25813627D01*
X-81669636Y25924941D01*
X-81613413Y25968294D01*
X-81542677Y25974369D01*
X-81479886Y25941237D01*
G37*
%TD.AperFunction*%
%TA.AperFunction,Conductor*%
G36*
X-83870781Y34040198D02*
G01*
X-83849807Y34023295D01*
X-83478605Y33652093D01*
X-83444579Y33589781D01*
X-83441700Y33562998D01*
X-83441700Y30460873D01*
X-83461702Y30392752D01*
X-83515358Y30346259D01*
X-83549533Y30336190D01*
X-83578675Y30331944D01*
X-83617595Y30326273D01*
X-83722683Y30274899D01*
X-83722686Y30274897D01*
X-83805397Y30192186D01*
X-83805399Y30192183D01*
X-83856773Y30087095D01*
X-83866700Y30018962D01*
X-83866700Y28252439D01*
X-83856773Y28184306D01*
X-83805399Y28079218D01*
X-83805397Y28079215D01*
X-83722686Y27996504D01*
X-83722683Y27996502D01*
X-83617593Y27945127D01*
X-83549460Y27935200D01*
X-83549455Y27935200D01*
X-83206439Y27935200D01*
X-83138318Y27915198D01*
X-83091825Y27861542D01*
X-83081721Y27791268D01*
X-83111215Y27726688D01*
X-83149235Y27696935D01*
X-83270393Y27635201D01*
X-83295403Y27622458D01*
X-83448276Y27511389D01*
X-83581889Y27377776D01*
X-83692958Y27224903D01*
X-83778749Y27056529D01*
X-83837139Y26876824D01*
X-83837140Y26876819D01*
X-83837140Y26876818D01*
X-83866700Y26690181D01*
X-83866700Y26501219D01*
X-83840336Y26334763D01*
X-83837139Y26314576D01*
X-83830202Y26293226D01*
X-83828176Y26222258D01*
X-83860940Y26165198D01*
X-85293030Y24733105D01*
X-85355343Y24699080D01*
X-85382126Y24696200D01*
X-86404223Y24696200D01*
X-86472344Y24716202D01*
X-86518837Y24769858D01*
X-86528941Y24840132D01*
X-86516490Y24879403D01*
X-86494175Y24923200D01*
X-86990200Y24923200D01*
X-87058321Y24943202D01*
X-87104814Y24996858D01*
X-87116200Y25049200D01*
X-87116200Y25323200D01*
X-87390200Y25323200D01*
X-87458321Y25343202D01*
X-87504814Y25396858D01*
X-87516200Y25449200D01*
X-87516200Y25723200D01*
X-86716200Y25723200D01*
X-86494175Y25723200D01*
X-86494175Y25723201D01*
X-86513559Y25761246D01*
X-86603152Y25850839D01*
X-86603154Y25850840D01*
X-86716055Y25908366D01*
X-86716200Y25908390D01*
X-86716200Y25723200D01*
X-87516200Y25723200D01*
X-87516200Y25908389D01*
X-87516201Y25908390D01*
X-87516346Y25908366D01*
X-87629247Y25850840D01*
X-87629249Y25850839D01*
X-87718839Y25761249D01*
X-87718840Y25761247D01*
X-87776366Y25648347D01*
X-87790252Y25560666D01*
X-87820664Y25496513D01*
X-87880932Y25458986D01*
X-87951921Y25459999D01*
X-88011093Y25499231D01*
X-88039662Y25564226D01*
X-88040701Y25580376D01*
X-88040701Y25616760D01*
X-88040702Y25616769D01*
X-88045761Y25655198D01*
X-88055352Y25728054D01*
X-88112711Y25866531D01*
X-88203956Y25985444D01*
X-88203958Y25985445D01*
X-88203958Y25985446D01*
X-88255157Y26024732D01*
X-88285791Y26048238D01*
X-88300771Y26068754D01*
X-88318949Y26086504D01*
X-88321348Y26096934D01*
X-88327658Y26105575D01*
X-88329169Y26130934D01*
X-88334864Y26155694D01*
X-88331244Y26165765D01*
X-88331880Y26176446D01*
X-88319441Y26198596D01*
X-88310846Y26222504D01*
X-88299475Y26234149D01*
X-88297116Y26238349D01*
X-88285790Y26248163D01*
X-88270548Y26259858D01*
X-88232779Y26288839D01*
X-88206292Y26309163D01*
X-88140072Y26334763D01*
X-88129589Y26335200D01*
X-87767050Y26335200D01*
X-87698929Y26315198D01*
X-87690916Y26309597D01*
X-87663546Y26288842D01*
X-87663542Y26288839D01*
X-87522765Y26233323D01*
X-87522766Y26233323D01*
X-87498032Y26230353D01*
X-87434302Y26222700D01*
X-87434299Y26222700D01*
X-86798101Y26222700D01*
X-86798098Y26222700D01*
X-86709636Y26233323D01*
X-86568858Y26288839D01*
X-86448278Y26380278D01*
X-86356839Y26500858D01*
X-86301323Y26641636D01*
X-86290700Y26730098D01*
X-86290700Y27216302D01*
X-86301323Y27304764D01*
X-86301493Y27305194D01*
X-86356839Y27445542D01*
X-86356842Y27445546D01*
X-86448278Y27566123D01*
X-86568855Y27657559D01*
X-86568859Y27657562D01*
X-86709636Y27713078D01*
X-86709635Y27713078D01*
X-86798095Y27723700D01*
X-86798098Y27723700D01*
X-87434302Y27723700D01*
X-87434306Y27723700D01*
X-87522765Y27713078D01*
X-87663542Y27657562D01*
X-87663546Y27657559D01*
X-87789818Y27561803D01*
X-87856183Y27536579D01*
X-87865952Y27536200D01*
X-88129589Y27536200D01*
X-88197710Y27556202D01*
X-88206293Y27562237D01*
X-88216761Y27570269D01*
X-88322869Y27651689D01*
X-88324247Y27652260D01*
X-88461348Y27709049D01*
X-88537896Y27719126D01*
X-88572639Y27723700D01*
X-88572642Y27723700D01*
X-89159760Y27723700D01*
X-89159769Y27723699D01*
X-89259925Y27710514D01*
X-89271054Y27709048D01*
X-89409530Y27651690D01*
X-89409538Y27651685D01*
X-89512997Y27572298D01*
X-89579217Y27546698D01*
X-89648766Y27560963D01*
X-89699562Y27610565D01*
X-89715700Y27672261D01*
X-89715700Y31759200D01*
X-89695698Y31827321D01*
X-89642042Y31873814D01*
X-89589700Y31885200D01*
X-86337730Y31885200D01*
X-86269609Y31865198D01*
X-86223116Y31811542D01*
X-86213048Y31777369D01*
X-86208061Y31743141D01*
X-86206773Y31734306D01*
X-86155399Y31629218D01*
X-86155397Y31629215D01*
X-86072686Y31546504D01*
X-86072683Y31546502D01*
X-85967593Y31495127D01*
X-85899460Y31485200D01*
X-85899455Y31485200D01*
X-84282945Y31485200D01*
X-84282940Y31485200D01*
X-84214807Y31495127D01*
X-84109717Y31546502D01*
X-84027002Y31629217D01*
X-83975627Y31734307D01*
X-83965700Y31802440D01*
X-83965700Y33168960D01*
X-83975627Y33237093D01*
X-84027002Y33342183D01*
X-84027004Y33342186D01*
X-84109715Y33424897D01*
X-84109718Y33424899D01*
X-84214806Y33476273D01*
X-84282939Y33486200D01*
X-84282940Y33486200D01*
X-85899460Y33486200D01*
X-85899462Y33486200D01*
X-85967595Y33476273D01*
X-86072683Y33424899D01*
X-86072686Y33424897D01*
X-86155397Y33342186D01*
X-86155399Y33342183D01*
X-86206773Y33237095D01*
X-86206773Y33237093D01*
X-86213047Y33194034D01*
X-86242660Y33129509D01*
X-86302458Y33091238D01*
X-86337730Y33086200D01*
X-91794670Y33086200D01*
X-91862791Y33106202D01*
X-91909284Y33159858D01*
X-91919353Y33194032D01*
X-91925627Y33237093D01*
X-91977002Y33342183D01*
X-91977004Y33342186D01*
X-92059715Y33424897D01*
X-92059718Y33424899D01*
X-92164806Y33476273D01*
X-92232939Y33486200D01*
X-92232940Y33486200D01*
X-93849460Y33486200D01*
X-93849462Y33486200D01*
X-93917595Y33476273D01*
X-94022683Y33424899D01*
X-94022686Y33424897D01*
X-94105397Y33342186D01*
X-94105399Y33342183D01*
X-94156773Y33237095D01*
X-94166700Y33168962D01*
X-94166700Y31802439D01*
X-94156773Y31734306D01*
X-94105399Y31629218D01*
X-94105397Y31629215D01*
X-94022686Y31546504D01*
X-94022683Y31546502D01*
X-93917593Y31495127D01*
X-93849460Y31485200D01*
X-93849455Y31485200D01*
X-92232945Y31485200D01*
X-92232940Y31485200D01*
X-92164807Y31495127D01*
X-92059717Y31546502D01*
X-91977002Y31629217D01*
X-91925627Y31734307D01*
X-91919354Y31777367D01*
X-91889740Y31841891D01*
X-91829942Y31880162D01*
X-91794670Y31885200D01*
X-91042700Y31885200D01*
X-90974579Y31865198D01*
X-90928086Y31811542D01*
X-90916700Y31759200D01*
X-90916700Y26486625D01*
X-90925484Y26456710D01*
X-90932112Y26426240D01*
X-90935927Y26421145D01*
X-90936702Y26418504D01*
X-90953605Y26397530D01*
X-91128030Y26223105D01*
X-91190342Y26189079D01*
X-91217125Y26186200D01*
X-92341583Y26186200D01*
X-92409704Y26206202D01*
X-92456197Y26259858D01*
X-92466301Y26330132D01*
X-92455778Y26365450D01*
X-92446335Y26385700D01*
X-92800200Y26385700D01*
X-92868321Y26405702D01*
X-92914814Y26459358D01*
X-92926200Y26511700D01*
X-92926200Y26819700D01*
X-92906198Y26887821D01*
X-92852542Y26934314D01*
X-92800200Y26945700D01*
X-92446335Y26945700D01*
X-92458119Y26970970D01*
X-92468781Y27041162D01*
X-92439802Y27105975D01*
X-92419431Y27125091D01*
X-92405797Y27135297D01*
X-92387904Y27159200D01*
X-92321271Y27248211D01*
X-92271981Y27380365D01*
X-92265700Y27438785D01*
X-92265701Y27812614D01*
X-92269359Y27846639D01*
X-92271980Y27871029D01*
X-92271981Y27871031D01*
X-92271981Y27871035D01*
X-92317756Y27993765D01*
X-92325700Y28037796D01*
X-92325700Y28656479D01*
X-92325699Y28656492D01*
X-92325699Y28824757D01*
X-92325700Y28824761D01*
X-92366623Y28977484D01*
X-92366624Y28977487D01*
X-92445678Y29114413D01*
X-92445686Y29114423D01*
X-94768795Y31437532D01*
X-94802821Y31499844D01*
X-94805700Y31526627D01*
X-94805700Y33934200D01*
X-94785698Y34002321D01*
X-94732042Y34048814D01*
X-94679700Y34060200D01*
X-83938902Y34060200D01*
X-83870781Y34040198D01*
G37*
%TD.AperFunction*%
%TA.AperFunction,Conductor*%
G36*
X-118334709Y34916781D02*
G01*
X-118292988Y34886468D01*
X-118138645Y34807827D01*
X-117984164Y34757633D01*
X-117981857Y34756056D01*
X-117979070Y34755856D01*
X-117952723Y34736134D01*
X-117925558Y34717559D01*
X-117924471Y34714986D01*
X-117922233Y34713311D01*
X-117910732Y34682476D01*
X-117897921Y34652163D01*
X-117898398Y34649410D01*
X-117897421Y34646791D01*
X-117904417Y34614630D01*
X-117910028Y34582206D01*
X-117912099Y34579313D01*
X-117912511Y34577417D01*
X-117934003Y34548706D01*
X-117961592Y34521116D01*
X-118023904Y34487090D01*
X-118050689Y34484210D01*
X-118081273Y34484210D01*
X-118081289Y34484211D01*
X-118089007Y34484211D01*
X-118227373Y34484211D01*
X-118271923Y34472275D01*
X-118332781Y34455968D01*
X-118332782Y34455967D01*
X-118361026Y34448398D01*
X-118361027Y34448398D01*
X-118361029Y34448397D01*
X-118361030Y34448397D01*
X-118480852Y34379218D01*
X-118480857Y34379214D01*
X-118529776Y34330295D01*
X-118578695Y34281375D01*
X-118578697Y34281373D01*
X-119898863Y32961207D01*
X-119898865Y32961205D01*
X-119947785Y32912286D01*
X-119996704Y32863367D01*
X-119996708Y32863362D01*
X-120065887Y32743540D01*
X-120069551Y32729866D01*
X-120069552Y32729867D01*
X-120101701Y32609887D01*
X-120101701Y32589266D01*
X-120121703Y32521145D01*
X-120151563Y32488872D01*
X-120161123Y32481623D01*
X-120252559Y32361046D01*
X-120252562Y32361042D01*
X-120308078Y32220265D01*
X-120318700Y32131806D01*
X-120318700Y31495595D01*
X-120308078Y31407136D01*
X-120252562Y31266359D01*
X-120252559Y31266355D01*
X-120161123Y31145778D01*
X-120151566Y31138531D01*
X-120109373Y31081432D01*
X-120101700Y31038134D01*
X-120101700Y29963983D01*
X-120107085Y29945646D01*
X-120107393Y29926537D01*
X-120119868Y29902112D01*
X-120121702Y29895862D01*
X-120122816Y29894160D01*
X-120129422Y29884238D01*
X-120130746Y29883246D01*
X-120216996Y29768031D01*
X-120230010Y29733142D01*
X-120238091Y29721001D01*
X-120254574Y29707178D01*
X-120267468Y29689954D01*
X-120281234Y29684821D01*
X-120292490Y29675380D01*
X-120313833Y29672663D01*
X-120333989Y29665145D01*
X-120348344Y29668268D01*
X-120362918Y29666412D01*
X-120382343Y29675665D01*
X-120403363Y29680238D01*
X-120413751Y29690626D01*
X-120427014Y29696944D01*
X-120438352Y29715229D01*
X-120447277Y29724154D01*
X-120448345Y29723390D01*
X-120452919Y29729796D01*
X-120453564Y29730441D01*
X-120454049Y29731378D01*
X-120454415Y29731891D01*
X-120537009Y29814485D01*
X-120593200Y29841956D01*
X-120593200Y27559445D01*
X-120537010Y27586915D01*
X-120454415Y27669510D01*
X-120448345Y27678010D01*
X-120446393Y27676616D01*
X-120408301Y27718320D01*
X-120339681Y27736534D01*
X-120272106Y27714758D01*
X-120227032Y27659905D01*
X-120224920Y27654611D01*
X-120216999Y27633375D01*
X-120216997Y27633371D01*
X-120216996Y27633369D01*
X-120208828Y27622458D01*
X-120130747Y27518154D01*
X-120091502Y27488776D01*
X-120015531Y27431904D01*
X-120015529Y27431904D01*
X-120015527Y27431902D01*
X-119955170Y27409391D01*
X-119880686Y27381610D01*
X-119880683Y27381609D01*
X-119821073Y27375200D01*
X-119425328Y27375201D01*
X-119365717Y27381609D01*
X-119230869Y27431904D01*
X-119115654Y27518154D01*
X-119089066Y27553672D01*
X-119032233Y27596215D01*
X-118961417Y27601281D01*
X-118899105Y27567256D01*
X-118887343Y27553683D01*
X-118860746Y27518154D01*
X-118745531Y27431904D01*
X-118745529Y27431904D01*
X-118745527Y27431902D01*
X-118685170Y27409391D01*
X-118610686Y27381610D01*
X-118610683Y27381609D01*
X-118551073Y27375200D01*
X-118155328Y27375201D01*
X-118095717Y27381609D01*
X-117960869Y27431904D01*
X-117845654Y27518154D01*
X-117835568Y27531628D01*
X-117778735Y27574174D01*
X-117707919Y27579240D01*
X-117645606Y27545216D01*
X-117611580Y27482904D01*
X-117608700Y27456119D01*
X-117608700Y26434614D01*
X-117608701Y26434596D01*
X-117608701Y26288510D01*
X-117588011Y26211298D01*
X-117581152Y26185700D01*
X-117573111Y26155694D01*
X-117572888Y26154860D01*
X-117503708Y26035035D01*
X-117503700Y26035025D01*
X-117409980Y25941305D01*
X-117375954Y25878993D01*
X-117381019Y25808178D01*
X-117423566Y25751342D01*
X-117490086Y25726531D01*
X-117499075Y25726210D01*
X-118070375Y25726210D01*
X-118132413Y25709587D01*
X-118132414Y25709588D01*
X-118204028Y25690398D01*
X-118323852Y25621218D01*
X-118323857Y25621214D01*
X-118364694Y25580376D01*
X-118421695Y25523375D01*
X-118421697Y25523373D01*
X-118675863Y25269207D01*
X-118675865Y25269205D01*
X-118700789Y25244281D01*
X-118773704Y25171367D01*
X-118773708Y25171362D01*
X-118842886Y25051541D01*
X-118842889Y25051533D01*
X-118848128Y25031981D01*
X-118848129Y25031982D01*
X-118870996Y24946642D01*
X-118907947Y24886019D01*
X-118971808Y24854998D01*
X-119042303Y24863428D01*
X-119093568Y24903743D01*
X-119115654Y24933246D01*
X-119230869Y25019496D01*
X-119230871Y25019497D01*
X-119230874Y25019499D01*
X-119365717Y25069791D01*
X-119365714Y25069791D01*
X-119425322Y25076200D01*
X-119425327Y25076200D01*
X-119521341Y25076200D01*
X-119589462Y25096202D01*
X-119610436Y25113105D01*
X-121923795Y27426464D01*
X-121957821Y27488776D01*
X-121960700Y27515559D01*
X-121960700Y27842484D01*
X-121393199Y27842484D01*
X-121383289Y27774453D01*
X-121383288Y27774452D01*
X-121331986Y27669510D01*
X-121249391Y27586915D01*
X-121193201Y27559445D01*
X-121193200Y27559445D01*
X-121193200Y28400700D01*
X-121393199Y28400700D01*
X-121393199Y27842484D01*
X-121960700Y27842484D01*
X-121960700Y29558921D01*
X-121393200Y29558921D01*
X-121393200Y29000700D01*
X-121193200Y29000700D01*
X-121193200Y29841956D01*
X-121249391Y29814485D01*
X-121249392Y29814485D01*
X-121331986Y29731891D01*
X-121331987Y29731889D01*
X-121383287Y29626952D01*
X-121383288Y29626950D01*
X-121393200Y29558921D01*
X-121960700Y29558921D01*
X-121960700Y31035101D01*
X-121940698Y31103222D01*
X-121910833Y31135499D01*
X-121906835Y31138531D01*
X-121897278Y31145778D01*
X-121805839Y31266358D01*
X-121750323Y31407136D01*
X-121739700Y31495598D01*
X-121739700Y31568841D01*
X-121719698Y31636962D01*
X-121702795Y31657936D01*
X-118565701Y34795029D01*
X-118565701Y34795030D01*
X-118565695Y34795035D01*
X-118517885Y34877846D01*
X-118466506Y34926836D01*
X-118396792Y34940273D01*
X-118334709Y34916781D01*
G37*
%TD.AperFunction*%
%TA.AperFunction,Conductor*%
G36*
X-95741507Y27650056D02*
G01*
X-95741504Y27650054D01*
X-95647719Y27635200D01*
X-95484682Y27635201D01*
X-95396964Y27649093D01*
X-95385907Y27650844D01*
X-95346487Y27650844D01*
X-95341507Y27650056D01*
X-95341504Y27650054D01*
X-95247719Y27635200D01*
X-95084682Y27635201D01*
X-94996965Y27649093D01*
X-94926555Y27639993D01*
X-94872242Y27594270D01*
X-94851270Y27526442D01*
X-94852808Y27504935D01*
X-94866700Y27417219D01*
X-94866700Y27254184D01*
X-94851847Y27160398D01*
X-94794251Y27047358D01*
X-94771688Y27024795D01*
X-94737662Y26962483D01*
X-94742727Y26891668D01*
X-94771688Y26846605D01*
X-94794249Y26824045D01*
X-94794251Y26824043D01*
X-94829218Y26755414D01*
X-94851846Y26711004D01*
X-94866700Y26617219D01*
X-94866700Y26617216D01*
X-94866700Y26454183D01*
X-94852808Y26366464D01*
X-94861909Y26296053D01*
X-94907632Y26241740D01*
X-94975461Y26220769D01*
X-94996960Y26222307D01*
X-95084681Y26236200D01*
X-95084685Y26236200D01*
X-95247718Y26236200D01*
X-95346492Y26220557D01*
X-95385909Y26220557D01*
X-95469301Y26233765D01*
X-95484681Y26236200D01*
X-95484682Y26236200D01*
X-95647718Y26236200D01*
X-95746492Y26220557D01*
X-95785909Y26220557D01*
X-95869301Y26233765D01*
X-95884681Y26236200D01*
X-95884682Y26236200D01*
X-96047719Y26236200D01*
X-96135438Y26222308D01*
X-96205848Y26231409D01*
X-96260161Y26277132D01*
X-96281132Y26344961D01*
X-96279593Y26366464D01*
X-96265700Y26454181D01*
X-96265701Y26617218D01*
X-96269568Y26641636D01*
X-96281344Y26715995D01*
X-96281344Y26755414D01*
X-96280556Y26760394D01*
X-96280554Y26760396D01*
X-96265700Y26854181D01*
X-96265701Y27017218D01*
X-96269493Y27041162D01*
X-96281344Y27115995D01*
X-96281344Y27155414D01*
X-96280556Y27160394D01*
X-96280554Y27160396D01*
X-96265700Y27254181D01*
X-96265701Y27417218D01*
X-96279593Y27504936D01*
X-96270493Y27575346D01*
X-96224770Y27629659D01*
X-96156941Y27650631D01*
X-96135440Y27649094D01*
X-96047719Y27635200D01*
X-95884682Y27635201D01*
X-95796964Y27649093D01*
X-95785907Y27650844D01*
X-95746487Y27650844D01*
X-95741507Y27650056D01*
G37*
%TD.AperFunction*%
%TD*%
%TA.AperFunction,Conductor*%
%TO.N,VIN1*%
G36*
X-74035038Y385094D02*
G01*
X-73858460Y367702D01*
X-73834241Y362885D01*
X-73670385Y313180D01*
X-73647578Y303733D01*
X-73522047Y236636D01*
X-73496573Y223019D01*
X-73476035Y209296D01*
X-73343686Y100680D01*
X-73326221Y83215D01*
X-73217605Y-49134D01*
X-73203882Y-69672D01*
X-73123172Y-220669D01*
X-73113720Y-243489D01*
X-73072126Y-380606D01*
X-73066700Y-417182D01*
X-73066700Y-22811418D01*
X-73072125Y-22847994D01*
X-73113718Y-22985109D01*
X-73123171Y-23007929D01*
X-73203882Y-23158927D01*
X-73217605Y-23179465D01*
X-73326221Y-23311814D01*
X-73343686Y-23329279D01*
X-73476035Y-23437895D01*
X-73496573Y-23451618D01*
X-73647571Y-23532329D01*
X-73670391Y-23541781D01*
X-73807508Y-23583375D01*
X-73844082Y-23588800D01*
X-113713318Y-23588800D01*
X-113714068Y-23588688D01*
X-113714442Y-23588795D01*
X-113749893Y-23583375D01*
X-113887009Y-23541782D01*
X-113909828Y-23532330D01*
X-113958189Y-23506480D01*
X-114060828Y-23451618D01*
X-114081366Y-23437895D01*
X-114213715Y-23329279D01*
X-114231180Y-23311814D01*
X-114339796Y-23179465D01*
X-114353519Y-23158927D01*
X-114367136Y-23133453D01*
X-114434233Y-23007922D01*
X-114443680Y-22985115D01*
X-114493385Y-22821259D01*
X-114498202Y-22797037D01*
X-114515593Y-22620462D01*
X-114516200Y-22608112D01*
X-114516200Y-22036019D01*
X-112148461Y-22036019D01*
X-112144826Y-22037201D01*
X-112144819Y-22037202D01*
X-111921331Y-22072600D01*
X-111695069Y-22072600D01*
X-111558816Y-22051019D01*
X-106560461Y-22051019D01*
X-106556826Y-22052201D01*
X-106556819Y-22052202D01*
X-106333331Y-22087600D01*
X-106107069Y-22087600D01*
X-105883587Y-22052203D01*
X-105879944Y-22051019D01*
X-100972461Y-22051019D01*
X-100968826Y-22052201D01*
X-100968819Y-22052202D01*
X-100745331Y-22087600D01*
X-100519069Y-22087600D01*
X-100295587Y-22052203D01*
X-100291944Y-22051019D01*
X-95384461Y-22051019D01*
X-95380826Y-22052201D01*
X-95380819Y-22052202D01*
X-95157331Y-22087600D01*
X-94931069Y-22087600D01*
X-94707587Y-22052203D01*
X-94703941Y-22051018D01*
X-95044199Y-21710760D01*
X-95044200Y-21710760D01*
X-95384461Y-22051019D01*
X-100291944Y-22051019D01*
X-100291941Y-22051018D01*
X-100632199Y-21710760D01*
X-100632200Y-21710760D01*
X-100972461Y-22051019D01*
X-105879944Y-22051019D01*
X-105879941Y-22051018D01*
X-106220199Y-21710760D01*
X-106220200Y-21710760D01*
X-106560461Y-22051019D01*
X-111558816Y-22051019D01*
X-111471587Y-22037203D01*
X-111467942Y-22036018D01*
X-111467941Y-22036018D01*
X-111808199Y-21695760D01*
X-111808200Y-21695760D01*
X-112148461Y-22036019D01*
X-114516200Y-22036019D01*
X-114516200Y-20521969D01*
X-113245700Y-20521969D01*
X-113245700Y-20748230D01*
X-113210303Y-20971720D01*
X-113209121Y-20975358D01*
X-112868860Y-20635099D01*
X-112950114Y-20553845D01*
X-112633200Y-20553845D01*
X-112633200Y-20716355D01*
X-112601496Y-20875744D01*
X-112539306Y-21025884D01*
X-112449019Y-21161007D01*
X-112334107Y-21275919D01*
X-112198984Y-21366206D01*
X-112048844Y-21428396D01*
X-111889455Y-21460100D01*
X-111726945Y-21460100D01*
X-111567556Y-21428396D01*
X-111417416Y-21366206D01*
X-111282293Y-21275919D01*
X-111167381Y-21161007D01*
X-111077094Y-21025884D01*
X-111014904Y-20875744D01*
X-110983200Y-20716355D01*
X-110983200Y-20635099D01*
X-110747540Y-20635099D01*
X-110747540Y-20635101D01*
X-110407282Y-20975359D01*
X-110406097Y-20971713D01*
X-110370700Y-20748230D01*
X-110370700Y-20536969D01*
X-107657700Y-20536969D01*
X-107657700Y-20763230D01*
X-107622303Y-20986720D01*
X-107621121Y-20990358D01*
X-107280860Y-20650099D01*
X-107362114Y-20568845D01*
X-107045200Y-20568845D01*
X-107045200Y-20731355D01*
X-107013496Y-20890744D01*
X-106951306Y-21040884D01*
X-106861019Y-21176007D01*
X-106746107Y-21290919D01*
X-106610984Y-21381206D01*
X-106460844Y-21443396D01*
X-106301455Y-21475100D01*
X-106138945Y-21475100D01*
X-105979556Y-21443396D01*
X-105829416Y-21381206D01*
X-105694293Y-21290919D01*
X-105579381Y-21176007D01*
X-105489094Y-21040884D01*
X-105426904Y-20890744D01*
X-105395200Y-20731355D01*
X-105395200Y-20650099D01*
X-105159540Y-20650099D01*
X-105159540Y-20650101D01*
X-104819282Y-20990359D01*
X-104818097Y-20986713D01*
X-104782700Y-20763230D01*
X-104782700Y-20536969D01*
X-102069700Y-20536969D01*
X-102069700Y-20763230D01*
X-102034303Y-20986720D01*
X-102033121Y-20990358D01*
X-101692860Y-20650099D01*
X-101774114Y-20568845D01*
X-101457200Y-20568845D01*
X-101457200Y-20731355D01*
X-101425496Y-20890744D01*
X-101363306Y-21040884D01*
X-101273019Y-21176007D01*
X-101158107Y-21290919D01*
X-101022984Y-21381206D01*
X-100872844Y-21443396D01*
X-100713455Y-21475100D01*
X-100550945Y-21475100D01*
X-100391556Y-21443396D01*
X-100241416Y-21381206D01*
X-100106293Y-21290919D01*
X-99991381Y-21176007D01*
X-99901094Y-21040884D01*
X-99838904Y-20890744D01*
X-99807200Y-20731355D01*
X-99807200Y-20650099D01*
X-99571540Y-20650099D01*
X-99571540Y-20650101D01*
X-99231282Y-20990359D01*
X-99230097Y-20986713D01*
X-99194700Y-20763230D01*
X-99194700Y-20536969D01*
X-96481700Y-20536969D01*
X-96481700Y-20763230D01*
X-96446303Y-20986720D01*
X-96445121Y-20990358D01*
X-96104860Y-20650099D01*
X-96186114Y-20568845D01*
X-95869200Y-20568845D01*
X-95869200Y-20731355D01*
X-95837496Y-20890744D01*
X-95775306Y-21040884D01*
X-95685019Y-21176007D01*
X-95570107Y-21290919D01*
X-95434984Y-21381206D01*
X-95284844Y-21443396D01*
X-95125455Y-21475100D01*
X-94962945Y-21475100D01*
X-94803556Y-21443396D01*
X-94653416Y-21381206D01*
X-94518293Y-21290919D01*
X-94403381Y-21176007D01*
X-94313094Y-21040884D01*
X-94250904Y-20890744D01*
X-94219200Y-20731355D01*
X-94219200Y-20650099D01*
X-93983540Y-20650099D01*
X-93983540Y-20650101D01*
X-93643282Y-20990359D01*
X-93642097Y-20986713D01*
X-93606700Y-20763230D01*
X-93606700Y-20536969D01*
X-93642098Y-20313481D01*
X-93642099Y-20313474D01*
X-93643281Y-20309839D01*
X-93983540Y-20650099D01*
X-94219200Y-20650099D01*
X-94219200Y-20568845D01*
X-94250904Y-20409456D01*
X-94313094Y-20259316D01*
X-94403381Y-20124193D01*
X-94518293Y-20009281D01*
X-94653416Y-19918994D01*
X-94803556Y-19856804D01*
X-94962945Y-19825100D01*
X-95125455Y-19825100D01*
X-95284844Y-19856804D01*
X-95434984Y-19918994D01*
X-95570107Y-20009281D01*
X-95685019Y-20124193D01*
X-95775306Y-20259316D01*
X-95837496Y-20409456D01*
X-95869200Y-20568845D01*
X-96186114Y-20568845D01*
X-96445120Y-20309839D01*
X-96446305Y-20313488D01*
X-96481700Y-20536969D01*
X-99194700Y-20536969D01*
X-99230098Y-20313481D01*
X-99230099Y-20313474D01*
X-99231281Y-20309839D01*
X-99571540Y-20650099D01*
X-99807200Y-20650099D01*
X-99807200Y-20568845D01*
X-99838904Y-20409456D01*
X-99901094Y-20259316D01*
X-99991381Y-20124193D01*
X-100106293Y-20009281D01*
X-100241416Y-19918994D01*
X-100391556Y-19856804D01*
X-100550945Y-19825100D01*
X-100713455Y-19825100D01*
X-100872844Y-19856804D01*
X-101022984Y-19918994D01*
X-101158107Y-20009281D01*
X-101273019Y-20124193D01*
X-101363306Y-20259316D01*
X-101425496Y-20409456D01*
X-101457200Y-20568845D01*
X-101774114Y-20568845D01*
X-102033120Y-20309839D01*
X-102034305Y-20313488D01*
X-102069700Y-20536969D01*
X-104782700Y-20536969D01*
X-104818098Y-20313481D01*
X-104818099Y-20313474D01*
X-104819281Y-20309839D01*
X-105159540Y-20650099D01*
X-105395200Y-20650099D01*
X-105395200Y-20568845D01*
X-105426904Y-20409456D01*
X-105489094Y-20259316D01*
X-105579381Y-20124193D01*
X-105694293Y-20009281D01*
X-105829416Y-19918994D01*
X-105979556Y-19856804D01*
X-106138945Y-19825100D01*
X-106301455Y-19825100D01*
X-106460844Y-19856804D01*
X-106610984Y-19918994D01*
X-106746107Y-20009281D01*
X-106861019Y-20124193D01*
X-106951306Y-20259316D01*
X-107013496Y-20409456D01*
X-107045200Y-20568845D01*
X-107362114Y-20568845D01*
X-107621120Y-20309839D01*
X-107622305Y-20313488D01*
X-107657700Y-20536969D01*
X-110370700Y-20536969D01*
X-110370700Y-20521969D01*
X-110406098Y-20298481D01*
X-110406099Y-20298474D01*
X-110407281Y-20294839D01*
X-110747540Y-20635099D01*
X-110983200Y-20635099D01*
X-110983200Y-20553845D01*
X-111014904Y-20394456D01*
X-111077094Y-20244316D01*
X-111167381Y-20109193D01*
X-111282293Y-19994281D01*
X-111417416Y-19903994D01*
X-111567556Y-19841804D01*
X-111726945Y-19810100D01*
X-111889455Y-19810100D01*
X-112048844Y-19841804D01*
X-112198984Y-19903994D01*
X-112334107Y-19994281D01*
X-112449019Y-20109193D01*
X-112539306Y-20244316D01*
X-112601496Y-20394456D01*
X-112633200Y-20553845D01*
X-112950114Y-20553845D01*
X-113209120Y-20294839D01*
X-113210305Y-20298488D01*
X-113245700Y-20521969D01*
X-114516200Y-20521969D01*
X-114516200Y-19234180D01*
X-112148461Y-19234180D01*
X-111808201Y-19574440D01*
X-111808200Y-19574440D01*
X-111482943Y-19249180D01*
X-106560461Y-19249180D01*
X-106220201Y-19589440D01*
X-106220200Y-19589440D01*
X-105879943Y-19249180D01*
X-100972461Y-19249180D01*
X-100632201Y-19589440D01*
X-100632200Y-19589440D01*
X-100291943Y-19249180D01*
X-95384461Y-19249180D01*
X-95044201Y-19589440D01*
X-95044200Y-19589440D01*
X-94703942Y-19249179D01*
X-94707581Y-19247997D01*
X-94707578Y-19247997D01*
X-94931069Y-19212600D01*
X-95157331Y-19212600D01*
X-95380812Y-19247995D01*
X-95384461Y-19249180D01*
X-100291943Y-19249180D01*
X-100291942Y-19249179D01*
X-100295581Y-19247997D01*
X-100295578Y-19247997D01*
X-100519069Y-19212600D01*
X-100745331Y-19212600D01*
X-100968812Y-19247995D01*
X-100972461Y-19249180D01*
X-105879943Y-19249180D01*
X-105879942Y-19249179D01*
X-105883581Y-19247997D01*
X-105883578Y-19247997D01*
X-106107069Y-19212600D01*
X-106333331Y-19212600D01*
X-106556812Y-19247995D01*
X-106560461Y-19249180D01*
X-111482943Y-19249180D01*
X-111467942Y-19234179D01*
X-111471581Y-19232997D01*
X-111471578Y-19232997D01*
X-111695069Y-19197600D01*
X-111921331Y-19197600D01*
X-112144812Y-19232995D01*
X-112148461Y-19234180D01*
X-114516200Y-19234180D01*
X-114516200Y-18336019D01*
X-112148461Y-18336019D01*
X-112144826Y-18337201D01*
X-112144819Y-18337202D01*
X-111921331Y-18372600D01*
X-111695069Y-18372600D01*
X-111558816Y-18351019D01*
X-106560461Y-18351019D01*
X-106556826Y-18352201D01*
X-106556819Y-18352202D01*
X-106333331Y-18387600D01*
X-106107069Y-18387600D01*
X-105883587Y-18352203D01*
X-105879944Y-18351019D01*
X-100972461Y-18351019D01*
X-100968826Y-18352201D01*
X-100968819Y-18352202D01*
X-100745331Y-18387600D01*
X-100519069Y-18387600D01*
X-100295587Y-18352203D01*
X-100291944Y-18351019D01*
X-95384461Y-18351019D01*
X-95380826Y-18352201D01*
X-95380819Y-18352202D01*
X-95157331Y-18387600D01*
X-94931069Y-18387600D01*
X-94707587Y-18352203D01*
X-94703941Y-18351018D01*
X-95044199Y-18010760D01*
X-95044200Y-18010760D01*
X-95384461Y-18351019D01*
X-100291944Y-18351019D01*
X-100291941Y-18351018D01*
X-100632199Y-18010760D01*
X-100632200Y-18010760D01*
X-100972461Y-18351019D01*
X-105879944Y-18351019D01*
X-105879941Y-18351018D01*
X-106220199Y-18010760D01*
X-106220200Y-18010760D01*
X-106560461Y-18351019D01*
X-111558816Y-18351019D01*
X-111471587Y-18337203D01*
X-111467942Y-18336018D01*
X-111467941Y-18336018D01*
X-111808199Y-17995760D01*
X-111808200Y-17995760D01*
X-112148461Y-18336019D01*
X-114516200Y-18336019D01*
X-114516200Y-16821969D01*
X-113245700Y-16821969D01*
X-113245700Y-17048230D01*
X-113210303Y-17271720D01*
X-113209121Y-17275358D01*
X-112868860Y-16935099D01*
X-112950114Y-16853845D01*
X-112633200Y-16853845D01*
X-112633200Y-17016355D01*
X-112601496Y-17175744D01*
X-112539306Y-17325884D01*
X-112449019Y-17461007D01*
X-112334107Y-17575919D01*
X-112198984Y-17666206D01*
X-112048844Y-17728396D01*
X-111889455Y-17760100D01*
X-111726945Y-17760100D01*
X-111567556Y-17728396D01*
X-111417416Y-17666206D01*
X-111282293Y-17575919D01*
X-111167381Y-17461007D01*
X-111077094Y-17325884D01*
X-111014904Y-17175744D01*
X-110983200Y-17016355D01*
X-110983200Y-16935099D01*
X-110747540Y-16935099D01*
X-110747540Y-16935101D01*
X-110407282Y-17275359D01*
X-110406097Y-17271713D01*
X-110370700Y-17048230D01*
X-110370700Y-16836969D01*
X-107657700Y-16836969D01*
X-107657700Y-17063230D01*
X-107622303Y-17286720D01*
X-107621121Y-17290358D01*
X-107280860Y-16950099D01*
X-107362114Y-16868845D01*
X-107045200Y-16868845D01*
X-107045200Y-17031355D01*
X-107013496Y-17190744D01*
X-106951306Y-17340884D01*
X-106861019Y-17476007D01*
X-106746107Y-17590919D01*
X-106610984Y-17681206D01*
X-106460844Y-17743396D01*
X-106301455Y-17775100D01*
X-106138945Y-17775100D01*
X-105979556Y-17743396D01*
X-105829416Y-17681206D01*
X-105694293Y-17590919D01*
X-105579381Y-17476007D01*
X-105489094Y-17340884D01*
X-105426904Y-17190744D01*
X-105395200Y-17031355D01*
X-105395200Y-16950099D01*
X-105159540Y-16950099D01*
X-105159540Y-16950101D01*
X-104819282Y-17290359D01*
X-104818097Y-17286713D01*
X-104782700Y-17063230D01*
X-104782700Y-16836969D01*
X-102069700Y-16836969D01*
X-102069700Y-17063230D01*
X-102034303Y-17286720D01*
X-102033121Y-17290358D01*
X-101692860Y-16950099D01*
X-101774114Y-16868845D01*
X-101457200Y-16868845D01*
X-101457200Y-17031355D01*
X-101425496Y-17190744D01*
X-101363306Y-17340884D01*
X-101273019Y-17476007D01*
X-101158107Y-17590919D01*
X-101022984Y-17681206D01*
X-100872844Y-17743396D01*
X-100713455Y-17775100D01*
X-100550945Y-17775100D01*
X-100391556Y-17743396D01*
X-100241416Y-17681206D01*
X-100106293Y-17590919D01*
X-99991381Y-17476007D01*
X-99901094Y-17340884D01*
X-99838904Y-17190744D01*
X-99807200Y-17031355D01*
X-99807200Y-16950099D01*
X-99571540Y-16950099D01*
X-99571540Y-16950101D01*
X-99231282Y-17290359D01*
X-99230097Y-17286713D01*
X-99194700Y-17063230D01*
X-99194700Y-16836969D01*
X-96481700Y-16836969D01*
X-96481700Y-17063230D01*
X-96446303Y-17286720D01*
X-96445121Y-17290358D01*
X-96104860Y-16950099D01*
X-96186114Y-16868845D01*
X-95869200Y-16868845D01*
X-95869200Y-17031355D01*
X-95837496Y-17190744D01*
X-95775306Y-17340884D01*
X-95685019Y-17476007D01*
X-95570107Y-17590919D01*
X-95434984Y-17681206D01*
X-95284844Y-17743396D01*
X-95125455Y-17775100D01*
X-94962945Y-17775100D01*
X-94803556Y-17743396D01*
X-94653416Y-17681206D01*
X-94518293Y-17590919D01*
X-94403381Y-17476007D01*
X-94313094Y-17340884D01*
X-94250904Y-17190744D01*
X-94219200Y-17031355D01*
X-94219200Y-16950099D01*
X-93983540Y-16950099D01*
X-93983540Y-16950101D01*
X-93643282Y-17290359D01*
X-93642097Y-17286713D01*
X-93606700Y-17063230D01*
X-93606700Y-16836969D01*
X-93642098Y-16613481D01*
X-93642099Y-16613474D01*
X-93643281Y-16609839D01*
X-93983540Y-16950099D01*
X-94219200Y-16950099D01*
X-94219200Y-16868845D01*
X-94250904Y-16709456D01*
X-94313094Y-16559316D01*
X-94403381Y-16424193D01*
X-94518293Y-16309281D01*
X-94653416Y-16218994D01*
X-94803556Y-16156804D01*
X-94962945Y-16125100D01*
X-95125455Y-16125100D01*
X-95284844Y-16156804D01*
X-95434984Y-16218994D01*
X-95570107Y-16309281D01*
X-95685019Y-16424193D01*
X-95775306Y-16559316D01*
X-95837496Y-16709456D01*
X-95869200Y-16868845D01*
X-96186114Y-16868845D01*
X-96445120Y-16609839D01*
X-96446305Y-16613488D01*
X-96481700Y-16836969D01*
X-99194700Y-16836969D01*
X-99230098Y-16613481D01*
X-99230099Y-16613474D01*
X-99231281Y-16609839D01*
X-99571540Y-16950099D01*
X-99807200Y-16950099D01*
X-99807200Y-16868845D01*
X-99838904Y-16709456D01*
X-99901094Y-16559316D01*
X-99991381Y-16424193D01*
X-100106293Y-16309281D01*
X-100241416Y-16218994D01*
X-100391556Y-16156804D01*
X-100550945Y-16125100D01*
X-100713455Y-16125100D01*
X-100872844Y-16156804D01*
X-101022984Y-16218994D01*
X-101158107Y-16309281D01*
X-101273019Y-16424193D01*
X-101363306Y-16559316D01*
X-101425496Y-16709456D01*
X-101457200Y-16868845D01*
X-101774114Y-16868845D01*
X-102033120Y-16609839D01*
X-102034305Y-16613488D01*
X-102069700Y-16836969D01*
X-104782700Y-16836969D01*
X-104818098Y-16613481D01*
X-104818099Y-16613474D01*
X-104819281Y-16609839D01*
X-105159540Y-16950099D01*
X-105395200Y-16950099D01*
X-105395200Y-16868845D01*
X-105426904Y-16709456D01*
X-105489094Y-16559316D01*
X-105579381Y-16424193D01*
X-105694293Y-16309281D01*
X-105829416Y-16218994D01*
X-105979556Y-16156804D01*
X-106138945Y-16125100D01*
X-106301455Y-16125100D01*
X-106460844Y-16156804D01*
X-106610984Y-16218994D01*
X-106746107Y-16309281D01*
X-106861019Y-16424193D01*
X-106951306Y-16559316D01*
X-107013496Y-16709456D01*
X-107045200Y-16868845D01*
X-107362114Y-16868845D01*
X-107621120Y-16609839D01*
X-107622305Y-16613488D01*
X-107657700Y-16836969D01*
X-110370700Y-16836969D01*
X-110370700Y-16821969D01*
X-110406098Y-16598481D01*
X-110406099Y-16598474D01*
X-110407281Y-16594839D01*
X-110747540Y-16935099D01*
X-110983200Y-16935099D01*
X-110983200Y-16853845D01*
X-111014904Y-16694456D01*
X-111077094Y-16544316D01*
X-111167381Y-16409193D01*
X-111282293Y-16294281D01*
X-111417416Y-16203994D01*
X-111567556Y-16141804D01*
X-111726945Y-16110100D01*
X-111889455Y-16110100D01*
X-112048844Y-16141804D01*
X-112198984Y-16203994D01*
X-112334107Y-16294281D01*
X-112449019Y-16409193D01*
X-112539306Y-16544316D01*
X-112601496Y-16694456D01*
X-112633200Y-16853845D01*
X-112950114Y-16853845D01*
X-113209120Y-16594839D01*
X-113210305Y-16598488D01*
X-113245700Y-16821969D01*
X-114516200Y-16821969D01*
X-114516200Y-15534180D01*
X-112148461Y-15534180D01*
X-111808201Y-15874440D01*
X-111808200Y-15874440D01*
X-111482943Y-15549180D01*
X-106560461Y-15549180D01*
X-106220201Y-15889440D01*
X-106220200Y-15889440D01*
X-105879943Y-15549180D01*
X-100972461Y-15549180D01*
X-100632201Y-15889440D01*
X-100632200Y-15889440D01*
X-100291943Y-15549180D01*
X-95384461Y-15549180D01*
X-95044201Y-15889440D01*
X-95044200Y-15889440D01*
X-94703942Y-15549179D01*
X-94707581Y-15547997D01*
X-94707578Y-15547997D01*
X-94931069Y-15512600D01*
X-95157331Y-15512600D01*
X-95380812Y-15547995D01*
X-95384461Y-15549180D01*
X-100291943Y-15549180D01*
X-100291942Y-15549179D01*
X-100295581Y-15547997D01*
X-100295578Y-15547997D01*
X-100519069Y-15512600D01*
X-100745331Y-15512600D01*
X-100968812Y-15547995D01*
X-100972461Y-15549180D01*
X-105879943Y-15549180D01*
X-105879942Y-15549179D01*
X-105883581Y-15547997D01*
X-105883578Y-15547997D01*
X-106107069Y-15512600D01*
X-106333331Y-15512600D01*
X-106556812Y-15547995D01*
X-106560461Y-15549180D01*
X-111482943Y-15549180D01*
X-111467942Y-15534179D01*
X-111471581Y-15532997D01*
X-111471578Y-15532997D01*
X-111695069Y-15497600D01*
X-111921331Y-15497600D01*
X-112144812Y-15532995D01*
X-112148461Y-15534180D01*
X-114516200Y-15534180D01*
X-114516200Y-14620487D01*
X-114515593Y-14608137D01*
X-114507328Y-14524222D01*
X-114498202Y-14431557D01*
X-114493386Y-14407342D01*
X-114443679Y-14243481D01*
X-114434235Y-14220680D01*
X-114353518Y-14069669D01*
X-114339802Y-14049142D01*
X-114231175Y-13916779D01*
X-114213721Y-13899325D01*
X-114081358Y-13790698D01*
X-114060831Y-13776982D01*
X-113909820Y-13696265D01*
X-113887019Y-13686821D01*
X-113723158Y-13637114D01*
X-113698943Y-13632298D01*
X-113522363Y-13614906D01*
X-113510013Y-13614300D01*
X-113156770Y-13614300D01*
X-113088649Y-13634302D01*
X-113067680Y-13651200D01*
X-112964865Y-13754015D01*
X-112964853Y-13754026D01*
X-112782816Y-13893708D01*
X-112782809Y-13893713D01*
X-112584101Y-14008437D01*
X-112584097Y-14008438D01*
X-112584088Y-14008444D01*
X-112372087Y-14096258D01*
X-112150438Y-14155648D01*
X-112150434Y-14155648D01*
X-112150432Y-14155649D01*
X-112091802Y-14163367D01*
X-111922934Y-14185600D01*
X-111922927Y-14185600D01*
X-111693473Y-14185600D01*
X-111693466Y-14185600D01*
X-111487855Y-14158530D01*
X-111465969Y-14155649D01*
X-111465969Y-14155648D01*
X-111465962Y-14155648D01*
X-111244313Y-14096258D01*
X-111032312Y-14008444D01*
X-110833588Y-13893711D01*
X-110651539Y-13754019D01*
X-110548724Y-13651203D01*
X-110486414Y-13617180D01*
X-110459630Y-13614300D01*
X-107583770Y-13614300D01*
X-107515649Y-13634302D01*
X-107494680Y-13651200D01*
X-107391865Y-13754015D01*
X-107376865Y-13769015D01*
X-107376853Y-13769026D01*
X-107194816Y-13908708D01*
X-107194809Y-13908713D01*
X-106996101Y-14023437D01*
X-106996097Y-14023438D01*
X-106996088Y-14023444D01*
X-106784087Y-14111258D01*
X-106562438Y-14170648D01*
X-106562434Y-14170648D01*
X-106562432Y-14170649D01*
X-106503802Y-14178367D01*
X-106334934Y-14200600D01*
X-106334927Y-14200600D01*
X-106105473Y-14200600D01*
X-106105466Y-14200600D01*
X-105899855Y-14173530D01*
X-105877969Y-14170649D01*
X-105877969Y-14170648D01*
X-105877962Y-14170648D01*
X-105656313Y-14111258D01*
X-105444312Y-14023444D01*
X-105245588Y-13908711D01*
X-105085156Y-13785606D01*
X-105063548Y-13769026D01*
X-105063548Y-13769025D01*
X-105063539Y-13769019D01*
X-104945724Y-13651203D01*
X-104883414Y-13617180D01*
X-104856630Y-13614300D01*
X-101995770Y-13614300D01*
X-101927649Y-13634302D01*
X-101906680Y-13651200D01*
X-101803865Y-13754015D01*
X-101788865Y-13769015D01*
X-101788853Y-13769026D01*
X-101606816Y-13908708D01*
X-101606809Y-13908713D01*
X-101408101Y-14023437D01*
X-101408097Y-14023438D01*
X-101408088Y-14023444D01*
X-101196087Y-14111258D01*
X-100974438Y-14170648D01*
X-100974434Y-14170648D01*
X-100974432Y-14170649D01*
X-100915802Y-14178367D01*
X-100746934Y-14200600D01*
X-100746927Y-14200600D01*
X-100517473Y-14200600D01*
X-100517466Y-14200600D01*
X-100311855Y-14173530D01*
X-100289969Y-14170649D01*
X-100289969Y-14170648D01*
X-100289962Y-14170648D01*
X-100068313Y-14111258D01*
X-99856312Y-14023444D01*
X-99657588Y-13908711D01*
X-99497156Y-13785606D01*
X-99475548Y-13769026D01*
X-99475548Y-13769025D01*
X-99475539Y-13769019D01*
X-99357724Y-13651203D01*
X-99295414Y-13617180D01*
X-99268630Y-13614300D01*
X-96407770Y-13614300D01*
X-96339649Y-13634302D01*
X-96318680Y-13651200D01*
X-96215865Y-13754015D01*
X-96200865Y-13769015D01*
X-96200853Y-13769026D01*
X-96018816Y-13908708D01*
X-96018809Y-13908713D01*
X-95820101Y-14023437D01*
X-95820097Y-14023438D01*
X-95820088Y-14023444D01*
X-95608087Y-14111258D01*
X-95386438Y-14170648D01*
X-95386434Y-14170648D01*
X-95386432Y-14170649D01*
X-95327802Y-14178367D01*
X-95158934Y-14200600D01*
X-95158927Y-14200600D01*
X-94929473Y-14200600D01*
X-94929466Y-14200600D01*
X-94723855Y-14173530D01*
X-94701969Y-14170649D01*
X-94701969Y-14170648D01*
X-94701962Y-14170648D01*
X-94480313Y-14111258D01*
X-94268312Y-14023444D01*
X-94069588Y-13908711D01*
X-93909156Y-13785606D01*
X-93887548Y-13769026D01*
X-93887548Y-13769025D01*
X-93887539Y-13769019D01*
X-93769724Y-13651203D01*
X-93707414Y-13617180D01*
X-93680630Y-13614300D01*
X-88816200Y-13614300D01*
X-88816200Y-12498623D01*
X-79686700Y-12498623D01*
X-79686700Y-12773976D01*
X-79650762Y-13046959D01*
X-79579495Y-13312931D01*
X-79474123Y-13567322D01*
X-79474117Y-13567333D01*
X-79336452Y-13805775D01*
X-79168828Y-14024228D01*
X-79168819Y-14024238D01*
X-78974139Y-14218918D01*
X-78974129Y-14218927D01*
X-78974128Y-14218928D01*
X-78942130Y-14243481D01*
X-78755676Y-14386551D01*
X-78517234Y-14524216D01*
X-78517223Y-14524222D01*
X-78517221Y-14524223D01*
X-78262832Y-14629595D01*
X-77996866Y-14700860D01*
X-77996862Y-14700860D01*
X-77996860Y-14700861D01*
X-77926504Y-14710123D01*
X-77723874Y-14736800D01*
X-77723867Y-14736800D01*
X-77448533Y-14736800D01*
X-77448526Y-14736800D01*
X-77201809Y-14704319D01*
X-77175541Y-14700861D01*
X-77175541Y-14700860D01*
X-77175534Y-14700860D01*
X-76909568Y-14629595D01*
X-76655179Y-14524223D01*
X-76416721Y-14386549D01*
X-76198272Y-14218928D01*
X-76003572Y-14024228D01*
X-75835951Y-13805779D01*
X-75698277Y-13567321D01*
X-75592905Y-13312932D01*
X-75521640Y-13046966D01*
X-75485700Y-12773974D01*
X-75485700Y-12498626D01*
X-75521640Y-12225634D01*
X-75592905Y-11959668D01*
X-75698277Y-11705279D01*
X-75698278Y-11705277D01*
X-75698284Y-11705266D01*
X-75835949Y-11466824D01*
X-76003573Y-11248371D01*
X-76003582Y-11248361D01*
X-76198262Y-11053681D01*
X-76198272Y-11053672D01*
X-76416725Y-10886048D01*
X-76655167Y-10748383D01*
X-76655178Y-10748377D01*
X-76782374Y-10695691D01*
X-76909568Y-10643005D01*
X-77175534Y-10571740D01*
X-77175541Y-10571738D01*
X-77448524Y-10535800D01*
X-77448526Y-10535800D01*
X-77723874Y-10535800D01*
X-77723877Y-10535800D01*
X-77996860Y-10571738D01*
X-78262832Y-10643005D01*
X-78517223Y-10748377D01*
X-78517234Y-10748383D01*
X-78755676Y-10886048D01*
X-78974129Y-11053672D01*
X-78974139Y-11053681D01*
X-79168819Y-11248361D01*
X-79168828Y-11248371D01*
X-79336452Y-11466824D01*
X-79474117Y-11705266D01*
X-79474123Y-11705277D01*
X-79579495Y-11959668D01*
X-79650762Y-12225640D01*
X-79686700Y-12498623D01*
X-88816200Y-12498623D01*
X-88816200Y-4531961D01*
X-85652400Y-4531961D01*
X-85640796Y-4590296D01*
X-85596593Y-4656452D01*
X-85530437Y-4700655D01*
X-85472102Y-4712259D01*
X-85472097Y-4712260D01*
X-84702400Y-4712260D01*
X-83202400Y-4712260D01*
X-82432703Y-4712260D01*
X-82432699Y-4712259D01*
X-82374364Y-4700655D01*
X-82308208Y-4656452D01*
X-82264005Y-4590296D01*
X-82252401Y-4531961D01*
X-82252400Y-4531956D01*
X-82252400Y-3762260D01*
X-83202400Y-3762260D01*
X-83202400Y-4712260D01*
X-84702400Y-4712260D01*
X-84702400Y-3762260D01*
X-85652400Y-3762260D01*
X-85652400Y-4531961D01*
X-88816200Y-4531961D01*
X-88816200Y-2938391D01*
X-84702400Y-2938391D01*
X-84702400Y-3086129D01*
X-84673578Y-3231027D01*
X-84617041Y-3367518D01*
X-84534963Y-3490357D01*
X-84430497Y-3594823D01*
X-84307658Y-3676901D01*
X-84171167Y-3733438D01*
X-84026269Y-3762260D01*
X-83878531Y-3762260D01*
X-83733633Y-3733438D01*
X-83597142Y-3676901D01*
X-83474303Y-3594823D01*
X-83369837Y-3490357D01*
X-83287759Y-3367518D01*
X-83231222Y-3231027D01*
X-83202400Y-3086129D01*
X-83202400Y-2938391D01*
X-83231222Y-2793493D01*
X-83287759Y-2657002D01*
X-83369837Y-2534163D01*
X-83474303Y-2429697D01*
X-83597142Y-2347619D01*
X-83733633Y-2291082D01*
X-83878531Y-2262260D01*
X-83202400Y-2262260D01*
X-82252400Y-2262260D01*
X-82252400Y-1492563D01*
X-82252401Y-1492558D01*
X-82264005Y-1434223D01*
X-82308208Y-1368067D01*
X-82374364Y-1323864D01*
X-82432699Y-1312260D01*
X-83202400Y-1312260D01*
X-83202400Y-2262260D01*
X-83878531Y-2262260D01*
X-84026269Y-2262260D01*
X-84171167Y-2291082D01*
X-84307658Y-2347619D01*
X-84430497Y-2429697D01*
X-84534963Y-2534163D01*
X-84617041Y-2657002D01*
X-84673578Y-2793493D01*
X-84702400Y-2938391D01*
X-88816200Y-2938391D01*
X-88816200Y-1492558D01*
X-85652400Y-1492558D01*
X-85652400Y-2262260D01*
X-84702400Y-2262260D01*
X-84702400Y-1312260D01*
X-85472102Y-1312260D01*
X-85530437Y-1323864D01*
X-85596593Y-1368067D01*
X-85640796Y-1434223D01*
X-85652400Y-1492558D01*
X-88816200Y-1492558D01*
X-88816200Y-620487D01*
X-88815593Y-608137D01*
X-88798202Y-431562D01*
X-88793386Y-407342D01*
X-88743679Y-243481D01*
X-88734235Y-220680D01*
X-88653518Y-69669D01*
X-88639802Y-49142D01*
X-88531175Y83221D01*
X-88513721Y100675D01*
X-88381358Y209302D01*
X-88360831Y223018D01*
X-88209820Y303735D01*
X-88187019Y313179D01*
X-88023158Y362886D01*
X-87998943Y367702D01*
X-87822363Y385094D01*
X-87810013Y385700D01*
X-74047387Y385700D01*
X-74035038Y385094D01*
G37*
%TD.AperFunction*%
%TD*%
M02*
