%TF.GenerationSoftware,KiCad,Pcbnew,(6.0.7)*%
%TF.CreationDate,2022-08-14T01:50:46-04:00*%
%TF.ProjectId,Multi_Expansion,4d756c74-695f-4457-9870-616e73696f6e,v3*%
%TF.SameCoordinates,Original*%
%TF.FileFunction,Soldermask,Bot*%
%TF.FilePolarity,Negative*%
%FSLAX46Y46*%
G04 Gerber Fmt 4.6, Leading zero omitted, Abs format (unit mm)*
G04 Created by KiCad (PCBNEW (6.0.7)) date 2022-08-14 01:50:46*
%MOMM*%
%LPD*%
G01*
G04 APERTURE LIST*
G04 Aperture macros list*
%AMRoundRect*
0 Rectangle with rounded corners*
0 $1 Rounding radius*
0 $2 $3 $4 $5 $6 $7 $8 $9 X,Y pos of 4 corners*
0 Add a 4 corners polygon primitive as box body*
4,1,4,$2,$3,$4,$5,$6,$7,$8,$9,$2,$3,0*
0 Add four circle primitives for the rounded corners*
1,1,$1+$1,$2,$3*
1,1,$1+$1,$4,$5*
1,1,$1+$1,$6,$7*
1,1,$1+$1,$8,$9*
0 Add four rect primitives between the rounded corners*
20,1,$1+$1,$2,$3,$4,$5,0*
20,1,$1+$1,$4,$5,$6,$7,0*
20,1,$1+$1,$6,$7,$8,$9,0*
20,1,$1+$1,$8,$9,$2,$3,0*%
G04 Aperture macros list end*
%ADD10RoundRect,0.301000X-0.650000X-1.550000X0.650000X-1.550000X0.650000X1.550000X-0.650000X1.550000X0*%
%ADD11O,1.902000X3.702000*%
%ADD12C,2.577000*%
%ADD13C,1.702000*%
%ADD14RoundRect,0.051000X-0.800000X-0.800000X0.800000X-0.800000X0.800000X0.800000X-0.800000X0.800000X0*%
%ADD15O,1.702000X1.702000*%
%ADD16RoundRect,0.051000X1.600000X-1.600000X1.600000X1.600000X-1.600000X1.600000X-1.600000X-1.600000X0*%
%ADD17O,3.302000X3.302000*%
%ADD18RoundRect,0.051000X0.900000X-0.900000X0.900000X0.900000X-0.900000X0.900000X-0.900000X-0.900000X0*%
%ADD19C,1.902000*%
%ADD20RoundRect,0.051000X-0.647700X-0.647700X0.647700X-0.647700X0.647700X0.647700X-0.647700X0.647700X0*%
%ADD21C,1.397400*%
%ADD22C,3.802000*%
%ADD23RoundRect,0.051000X-2.000000X2.000000X-2.000000X-2.000000X2.000000X-2.000000X2.000000X2.000000X0*%
%ADD24C,4.102000*%
%ADD25RoundRect,0.051000X-0.900000X0.900000X-0.900000X-0.900000X0.900000X-0.900000X0.900000X0.900000X0*%
%ADD26RoundRect,0.051000X0.800000X-0.800000X0.800000X0.800000X-0.800000X0.800000X-0.800000X-0.800000X0*%
%ADD27C,3.402000*%
%ADD28RoundRect,0.051000X-0.750000X-0.750000X0.750000X-0.750000X0.750000X0.750000X-0.750000X0.750000X0*%
%ADD29C,1.602000*%
%ADD30RoundRect,0.051000X1.250000X-1.250000X1.250000X1.250000X-1.250000X1.250000X-1.250000X-1.250000X0*%
%ADD31C,2.602000*%
%ADD32RoundRect,0.301000X0.600000X-0.600000X0.600000X0.600000X-0.600000X0.600000X-0.600000X-0.600000X0*%
%ADD33C,1.802000*%
%ADD34RoundRect,0.051000X-0.765000X-0.765000X0.765000X-0.765000X0.765000X0.765000X-0.765000X0.765000X0*%
%ADD35C,1.632000*%
%ADD36C,0.902000*%
G04 APERTURE END LIST*
D10*
%TO.C,J2*%
X89100000Y-129600000D03*
D11*
X92600000Y-129600000D03*
X96100000Y-129600000D03*
%TD*%
D10*
%TO.C,J5*%
X119100000Y-116600000D03*
D11*
X122600000Y-116600000D03*
X126100000Y-116600000D03*
%TD*%
D10*
%TO.C,J6*%
X119214342Y-129600000D03*
D11*
X122714342Y-129600000D03*
X126214342Y-129600000D03*
%TD*%
D10*
%TO.C,J7*%
X134100000Y-116600000D03*
D11*
X137600000Y-116600000D03*
X141100000Y-116600000D03*
%TD*%
D10*
%TO.C,J8*%
X134100000Y-129600000D03*
D11*
X137600000Y-129600000D03*
X141100000Y-129600000D03*
%TD*%
D12*
%TO.C,F1*%
X94222600Y-150288600D03*
X94222600Y-146588600D03*
X94222600Y-142088600D03*
X94222600Y-138388600D03*
%TD*%
%TO.C,F7*%
X135792600Y-150298600D03*
X135792600Y-146598600D03*
X135792600Y-142098600D03*
X135792600Y-138398600D03*
%TD*%
D13*
%TO.C,C3*%
X93201000Y-78867800D03*
X88201000Y-78867800D03*
%TD*%
D12*
%TO.C,F2*%
X99967600Y-150303600D03*
X99967600Y-146603600D03*
X99967600Y-142103600D03*
X99967600Y-138403600D03*
%TD*%
%TO.C,F6*%
X129672600Y-150298600D03*
X129672600Y-146598600D03*
X129672600Y-142098600D03*
X129672600Y-138398600D03*
%TD*%
%TO.C,F8*%
X141793100Y-150298600D03*
X141793100Y-146598600D03*
X141793100Y-142098600D03*
X141793100Y-138398600D03*
%TD*%
%TO.C,F5*%
X123512600Y-150298600D03*
X123512600Y-146598600D03*
X123512600Y-142098600D03*
X123512600Y-138398600D03*
%TD*%
%TO.C,F3*%
X105567600Y-150303600D03*
X105567600Y-146603600D03*
X105567600Y-142103600D03*
X105567600Y-138403600D03*
%TD*%
D14*
%TO.C,RN1*%
X95561500Y-109367800D03*
D15*
X98101500Y-109367800D03*
X100641500Y-109367800D03*
X103181500Y-109367800D03*
X105721500Y-109367800D03*
X108261500Y-109367800D03*
X110801500Y-109367800D03*
X113341500Y-109367800D03*
%TD*%
D12*
%TO.C,F4*%
X111167600Y-150303600D03*
X111167600Y-146603600D03*
X111167600Y-142103600D03*
X111167600Y-138403600D03*
%TD*%
D10*
%TO.C,J1*%
X89100000Y-116600000D03*
D11*
X92600000Y-116600000D03*
X96100000Y-116600000D03*
%TD*%
D10*
%TO.C,J3*%
X104100000Y-116600000D03*
D11*
X107600000Y-116600000D03*
X111100000Y-116600000D03*
%TD*%
D10*
%TO.C,J4*%
X104100000Y-129600000D03*
D11*
X107600000Y-129600000D03*
X111100000Y-129600000D03*
%TD*%
D16*
%TO.C,D1*%
X117332600Y-151168600D03*
D17*
X117332600Y-138468600D03*
%TD*%
D13*
%TO.C,R1*%
X73531000Y-98817800D03*
D15*
X73531000Y-106437800D03*
%TD*%
D18*
%TO.C,D3*%
X73517133Y-76181833D03*
D19*
X73517133Y-73641833D03*
%TD*%
D13*
%TO.C,R2*%
X73467133Y-87841833D03*
D15*
X73467133Y-80221833D03*
%TD*%
D20*
%TO.C,U3*%
X85565133Y-82707833D03*
D21*
X85565133Y-85247833D03*
X85565133Y-87787833D03*
X85565133Y-90327833D03*
X85565133Y-92867833D03*
X85565133Y-95407833D03*
X85565133Y-97947833D03*
X85565133Y-100487833D03*
X85565133Y-103027833D03*
X85565133Y-105567833D03*
X93185133Y-105567833D03*
X93185133Y-103027833D03*
X93185133Y-100487833D03*
X93185133Y-97947833D03*
X93185133Y-95407833D03*
X93185133Y-92867833D03*
X93185133Y-90327833D03*
X93185133Y-87787833D03*
X93185133Y-85247833D03*
X93185133Y-82707833D03*
%TD*%
D22*
%TO.C,REF\u002A\u002A*%
X72731000Y-140969800D03*
%TD*%
%TO.C,REF\u002A\u002A*%
X148931000Y-64769800D03*
%TD*%
D14*
%TO.C,RN2*%
X116876000Y-109367800D03*
D15*
X119416000Y-109367800D03*
X121956000Y-109367800D03*
X124496000Y-109367800D03*
X127036000Y-109367800D03*
X129576000Y-109367800D03*
X132116000Y-109367800D03*
X134656000Y-109367800D03*
%TD*%
D23*
%TO.C,TB1*%
X76001000Y-121617800D03*
D24*
X76001000Y-131117800D03*
%TD*%
D25*
%TO.C,D2*%
X73501000Y-91792800D03*
D19*
X73501000Y-94332800D03*
%TD*%
D26*
%TO.C,U1*%
X101290867Y-83917767D03*
D15*
X103830867Y-83917767D03*
X106370867Y-83917767D03*
X108910867Y-83917767D03*
X111450867Y-83917767D03*
X113990867Y-83917767D03*
X116530867Y-83917767D03*
X119070867Y-83917767D03*
X119070867Y-76297767D03*
X116530867Y-76297767D03*
X113990867Y-76297767D03*
X111450867Y-76297767D03*
X108910867Y-76297767D03*
X106370867Y-76297767D03*
X103830867Y-76297767D03*
X101290867Y-76297767D03*
%TD*%
D13*
%TO.C,C2*%
X98351000Y-77442800D03*
X98351000Y-82442800D03*
%TD*%
%TO.C,C1*%
X125226000Y-77442800D03*
X125226000Y-82442800D03*
%TD*%
D26*
%TO.C,U2*%
X128239000Y-83917767D03*
D15*
X130779000Y-83917767D03*
X133319000Y-83917767D03*
X135859000Y-83917767D03*
X138399000Y-83917767D03*
X140939000Y-83917767D03*
X143479000Y-83917767D03*
X146019000Y-83917767D03*
X146019000Y-76297767D03*
X143479000Y-76297767D03*
X140939000Y-76297767D03*
X138399000Y-76297767D03*
X135859000Y-76297767D03*
X133319000Y-76297767D03*
X130779000Y-76297767D03*
X128239000Y-76297767D03*
%TD*%
D14*
%TO.C,RN3*%
X101515867Y-86842767D03*
D15*
X104055867Y-86842767D03*
X106595867Y-86842767D03*
X109135867Y-86842767D03*
X111675867Y-86842767D03*
X114215867Y-86842767D03*
X116755867Y-86842767D03*
X119295867Y-86842767D03*
%TD*%
D14*
%TO.C,RN4*%
X128390867Y-86842767D03*
D15*
X130930867Y-86842767D03*
X133470867Y-86842767D03*
X136010867Y-86842767D03*
X138550867Y-86842767D03*
X141090867Y-86842767D03*
X143630867Y-86842767D03*
X146170867Y-86842767D03*
%TD*%
D27*
%TO.C,J11*%
X141849000Y-99292767D03*
X130419000Y-99292767D03*
D28*
X131689000Y-92942767D03*
D29*
X132959000Y-90402767D03*
X134229000Y-92942767D03*
X135499000Y-90402767D03*
X136769000Y-92942767D03*
X138039000Y-90402767D03*
X139309000Y-92942767D03*
X140579000Y-90402767D03*
%TD*%
D27*
%TO.C,J10*%
X104888367Y-99292767D03*
X116318367Y-99292767D03*
D28*
X106158367Y-92942767D03*
D29*
X107428367Y-90402767D03*
X108698367Y-92942767D03*
X109968367Y-90402767D03*
X111238367Y-92942767D03*
X112508367Y-90402767D03*
X113778367Y-92942767D03*
X115048367Y-90402767D03*
%TD*%
D30*
%TO.C,J9*%
X150301000Y-131517800D03*
D31*
X150301000Y-125167800D03*
%TD*%
D32*
%TO.C,J12*%
X87241000Y-69545300D03*
D33*
X87241000Y-67005300D03*
X89781000Y-69545300D03*
X89781000Y-67005300D03*
X92321000Y-69545300D03*
X92321000Y-67005300D03*
X94861000Y-69545300D03*
X94861000Y-67005300D03*
X97401000Y-69545300D03*
X97401000Y-67005300D03*
X99941000Y-69545300D03*
X99941000Y-67005300D03*
X102481000Y-69545300D03*
X102481000Y-67005300D03*
X105021000Y-69545300D03*
X105021000Y-67005300D03*
X107561000Y-69545300D03*
X107561000Y-67005300D03*
X110101000Y-69545300D03*
X110101000Y-67005300D03*
X112641000Y-69545300D03*
X112641000Y-67005300D03*
X115181000Y-69545300D03*
X115181000Y-67005300D03*
X117721000Y-69545300D03*
X117721000Y-67005300D03*
X120261000Y-69545300D03*
X120261000Y-67005300D03*
X122801000Y-69545300D03*
X122801000Y-67005300D03*
X125341000Y-69545300D03*
X125341000Y-67005300D03*
X127881000Y-69545300D03*
X127881000Y-67005300D03*
X130421000Y-69545300D03*
X130421000Y-67005300D03*
X132961000Y-69545300D03*
X132961000Y-67005300D03*
X135501000Y-69545300D03*
X135501000Y-67005300D03*
%TD*%
D34*
%TO.C,J13*%
X98081000Y-59912800D03*
D35*
X98081000Y-57372800D03*
X100621000Y-59912800D03*
X100621000Y-57372800D03*
X103161000Y-59912800D03*
X103161000Y-57372800D03*
X105701000Y-59912800D03*
X105701000Y-57372800D03*
X108241000Y-59912800D03*
X108241000Y-57372800D03*
X110781000Y-59912800D03*
X110781000Y-57372800D03*
X113321000Y-59912800D03*
X113321000Y-57372800D03*
X115861000Y-59912800D03*
X115861000Y-57372800D03*
X118401000Y-59912800D03*
X118401000Y-57372800D03*
X120941000Y-59912800D03*
X120941000Y-57372800D03*
X123481000Y-59912800D03*
X123481000Y-57372800D03*
X126021000Y-59912800D03*
X126021000Y-57372800D03*
%TD*%
D22*
%TO.C,REF\u002A\u002A*%
X148931000Y-140969800D03*
%TD*%
%TO.C,REF\u002A\u002A*%
X72731000Y-64769800D03*
%TD*%
D36*
X147901000Y-101917800D03*
X141901000Y-102917800D03*
X133901000Y-102917800D03*
X154901000Y-54917800D03*
X143901000Y-54917800D03*
X69901000Y-58917800D03*
X76901000Y-54917800D03*
X83901000Y-54917800D03*
X69901000Y-92917800D03*
X69901000Y-82917800D03*
X84901000Y-119917800D03*
X83901000Y-121917800D03*
X82901000Y-123917800D03*
X145901000Y-119917800D03*
X156901000Y-119917800D03*
X156901000Y-109917800D03*
X156901000Y-102917800D03*
X156901000Y-94917800D03*
X156901000Y-87917800D03*
X156901000Y-80917800D03*
X156901000Y-74917800D03*
X156901000Y-67917800D03*
X143541000Y-110327800D03*
X126921000Y-103437800D03*
X116761000Y-103467800D03*
X105241000Y-103207800D03*
X91371000Y-106307800D03*
X88241000Y-109597800D03*
X82761000Y-110287800D03*
X96301000Y-104297800D03*
X122591000Y-77447800D03*
X93371000Y-108357800D03*
X117191000Y-78257800D03*
X145121000Y-115061800D03*
X79911000Y-64827800D03*
X129421000Y-93037800D03*
X96541000Y-77067800D03*
X157601000Y-126617800D03*
X123277000Y-133349800D03*
X79585133Y-73067833D03*
X96681000Y-87237800D03*
X90091000Y-72187800D03*
X147401000Y-89377800D03*
X87571000Y-104257800D03*
X137961000Y-67577800D03*
X88001000Y-61667800D03*
X142151000Y-126167800D03*
X80911000Y-68787800D03*
X148221000Y-71107800D03*
X99551000Y-111342800D03*
X152741000Y-118363800D03*
X108291000Y-139191800D03*
X135631000Y-78187800D03*
X112355000Y-126491800D03*
X103701000Y-111417800D03*
X87841000Y-64817800D03*
X91521000Y-94287800D03*
X126011000Y-93307800D03*
X127251000Y-113767800D03*
X151181000Y-76167800D03*
X69601000Y-104717800D03*
X94821000Y-84977800D03*
X75845133Y-71457833D03*
X124301000Y-111417800D03*
X133481000Y-62377800D03*
X119841000Y-78097800D03*
X69785133Y-74167833D03*
X142327000Y-113537800D03*
X119681000Y-97427800D03*
X150800500Y-90368618D03*
X90131000Y-57977800D03*
X139721000Y-82157800D03*
X92231000Y-72627800D03*
X91801000Y-61857800D03*
X151261000Y-81897800D03*
X133321000Y-97087800D03*
X146221000Y-74277800D03*
X103691000Y-93557800D03*
X126551000Y-74237800D03*
X129026000Y-111442800D03*
X141591000Y-93497800D03*
X146186108Y-96456103D03*
X98651000Y-119967800D03*
X132411000Y-55057800D03*
X109276000Y-111417800D03*
X118635000Y-92612800D03*
X82401000Y-106277800D03*
X92797000Y-135635800D03*
X96861000Y-125983800D03*
X142327000Y-121919800D03*
X139181000Y-97197800D03*
X128291000Y-57097800D03*
X113511000Y-97427800D03*
X69001000Y-124817800D03*
X137571000Y-62187800D03*
X102461000Y-74047800D03*
X152217133Y-71091833D03*
X145951000Y-78247800D03*
X116561000Y-93657800D03*
X156385133Y-61567833D03*
X143721000Y-71997800D03*
X139701000Y-111017800D03*
X108981000Y-78247800D03*
X92311000Y-54617800D03*
X112771000Y-82177800D03*
X99541000Y-107417800D03*
X91501000Y-119617800D03*
X120071000Y-72137800D03*
X121661000Y-86207800D03*
X101961000Y-97217800D03*
X101231000Y-78387800D03*
X87571000Y-94577800D03*
X113371000Y-114807800D03*
X76091000Y-68167800D03*
X126833000Y-126237800D03*
X142911000Y-67687800D03*
X125661000Y-97177800D03*
X91801000Y-64517800D03*
X135141000Y-72187800D03*
X94601000Y-111392800D03*
X95021000Y-101977800D03*
X115376000Y-111492800D03*
X107771000Y-97257800D03*
X85051000Y-69077800D03*
X75275133Y-77937833D03*
X128651000Y-119967800D03*
X98451000Y-114417800D03*
X135776000Y-111417800D03*
X79485133Y-99367833D03*
X87475133Y-85507833D03*
X77585133Y-108227833D03*
X94081000Y-73317800D03*
X99821000Y-74027800D03*
X97571000Y-94207800D03*
X136982867Y-108162767D03*
M02*
