%TF.GenerationSoftware,KiCad,Pcbnew,9.0.7*%
%TF.CreationDate,2026-01-15T23:58:57-05:00*%
%TF.ProjectId,PB_16,50425f31-362e-46b6-9963-61645f706362,v5*%
%TF.SameCoordinates,Original*%
%TF.FileFunction,Copper,L1,Top*%
%TF.FilePolarity,Positive*%
%FSLAX46Y46*%
G04 Gerber Fmt 4.6, Leading zero omitted, Abs format (unit mm)*
G04 Created by KiCad (PCBNEW 9.0.7) date 2026-01-15 23:58:57*
%MOMM*%
%LPD*%
G01*
G04 APERTURE LIST*
G04 Aperture macros list*
%AMRoundRect*
0 Rectangle with rounded corners*
0 $1 Rounding radius*
0 $2 $3 $4 $5 $6 $7 $8 $9 X,Y pos of 4 corners*
0 Add a 4 corners polygon primitive as box body*
4,1,4,$2,$3,$4,$5,$6,$7,$8,$9,$2,$3,0*
0 Add four circle primitives for the rounded corners*
1,1,$1+$1,$2,$3*
1,1,$1+$1,$4,$5*
1,1,$1+$1,$6,$7*
1,1,$1+$1,$8,$9*
0 Add four rect primitives between the rounded corners*
20,1,$1+$1,$2,$3,$4,$5,0*
20,1,$1+$1,$4,$5,$6,$7,0*
20,1,$1+$1,$6,$7,$8,$9,0*
20,1,$1+$1,$8,$9,$2,$3,0*%
G04 Aperture macros list end*
%TA.AperFunction,SMDPad,CuDef*%
%ADD10RoundRect,0.140000X0.170000X-0.140000X0.170000X0.140000X-0.170000X0.140000X-0.170000X-0.140000X0*%
%TD*%
%TA.AperFunction,ComponentPad*%
%ADD11RoundRect,0.291667X-0.758333X-1.508333X0.758333X-1.508333X0.758333X1.508333X-0.758333X1.508333X0*%
%TD*%
%TA.AperFunction,ComponentPad*%
%ADD12O,1.800000X3.600000*%
%TD*%
%TA.AperFunction,ComponentPad*%
%ADD13O,2.100000X3.600000*%
%TD*%
%TA.AperFunction,ComponentPad*%
%ADD14C,2.475000*%
%TD*%
%TA.AperFunction,SMDPad,CuDef*%
%ADD15RoundRect,0.218750X-0.256250X0.218750X-0.256250X-0.218750X0.256250X-0.218750X0.256250X0.218750X0*%
%TD*%
%TA.AperFunction,SMDPad,CuDef*%
%ADD16RoundRect,0.200000X-0.275000X0.200000X-0.275000X-0.200000X0.275000X-0.200000X0.275000X0.200000X0*%
%TD*%
%TA.AperFunction,SMDPad,CuDef*%
%ADD17RoundRect,0.218750X0.218750X0.256250X-0.218750X0.256250X-0.218750X-0.256250X0.218750X-0.256250X0*%
%TD*%
%TA.AperFunction,ComponentPad*%
%ADD18RoundRect,0.250000X0.600000X-0.600000X0.600000X0.600000X-0.600000X0.600000X-0.600000X-0.600000X0*%
%TD*%
%TA.AperFunction,ComponentPad*%
%ADD19C,1.700000*%
%TD*%
%TA.AperFunction,SMDPad,CuDef*%
%ADD20RoundRect,0.200000X0.200000X0.275000X-0.200000X0.275000X-0.200000X-0.275000X0.200000X-0.275000X0*%
%TD*%
%TA.AperFunction,ComponentPad*%
%ADD21R,4.000000X4.000000*%
%TD*%
%TA.AperFunction,ComponentPad*%
%ADD22C,4.000000*%
%TD*%
%TA.AperFunction,SMDPad,CuDef*%
%ADD23RoundRect,0.100000X-0.100000X0.637500X-0.100000X-0.637500X0.100000X-0.637500X0.100000X0.637500X0*%
%TD*%
%TA.AperFunction,SMDPad,CuDef*%
%ADD24RoundRect,0.200000X-0.200000X-0.275000X0.200000X-0.275000X0.200000X0.275000X-0.200000X0.275000X0*%
%TD*%
%TA.AperFunction,SMDPad,CuDef*%
%ADD25RoundRect,0.250000X-1.050000X-0.550000X1.050000X-0.550000X1.050000X0.550000X-1.050000X0.550000X0*%
%TD*%
%TA.AperFunction,ViaPad*%
%ADD26C,0.800000*%
%TD*%
%TA.AperFunction,Conductor*%
%ADD27C,1.000000*%
%TD*%
%TA.AperFunction,Conductor*%
%ADD28C,0.350000*%
%TD*%
%TA.AperFunction,Conductor*%
%ADD29C,0.500000*%
%TD*%
%TA.AperFunction,Conductor*%
%ADD30C,1.500000*%
%TD*%
%TA.AperFunction,Conductor*%
%ADD31C,3.000000*%
%TD*%
%TA.AperFunction,Conductor*%
%ADD32C,2.999999*%
%TD*%
G04 APERTURE END LIST*
D10*
%TO.P,C2,1*%
%TO.N,+5V*%
X-23236200Y25865700D03*
%TO.P,C2,2*%
%TO.N,GND*%
X-23236200Y26825700D03*
%TD*%
D11*
%TO.P,J2,1,Pin_1*%
%TO.N,GND*%
X-112657200Y33500D03*
D12*
%TO.P,J2,2,Pin_2*%
%TO.N,/Output 1-8/DOUT2*%
X-108997200Y33500D03*
D13*
%TO.P,J2,3,Pin_3*%
%TO.N,/Output 1-8/VOUT2*%
X-105337200Y33500D03*
%TD*%
D11*
%TO.P,J5,1,Pin_1*%
%TO.N,GND*%
X-82657200Y13033500D03*
D12*
%TO.P,J5,2,Pin_2*%
%TO.N,/Output 1-8/DOUT5*%
X-78997200Y13033500D03*
D13*
%TO.P,J5,3,Pin_3*%
%TO.N,/Output 1-8/VOUT5*%
X-75337200Y13033500D03*
%TD*%
D11*
%TO.P,J6,1,Pin_1*%
%TO.N,GND*%
X-82542858Y33500D03*
D12*
%TO.P,J6,2,Pin_2*%
%TO.N,/Output 1-8/DOUT6*%
X-78882858Y33500D03*
D13*
%TO.P,J6,3,Pin_3*%
%TO.N,/Output 1-8/VOUT6*%
X-75222858Y33500D03*
%TD*%
D11*
%TO.P,J7,1,Pin_1*%
%TO.N,GND*%
X-67657200Y13033500D03*
D12*
%TO.P,J7,2,Pin_2*%
%TO.N,/Output 1-8/DOUT7*%
X-63997200Y13033500D03*
D13*
%TO.P,J7,3,Pin_3*%
%TO.N,/Output 1-8/VOUT7*%
X-60337200Y13033500D03*
%TD*%
D11*
%TO.P,J8,1,Pin_1*%
%TO.N,GND*%
X-67657200Y33500D03*
D12*
%TO.P,J8,2,Pin_2*%
%TO.N,/Output 1-8/DOUT8*%
X-63997200Y33500D03*
D13*
%TO.P,J8,3,Pin_3*%
%TO.N,/Output 1-8/VOUT8*%
X-60337200Y33500D03*
%TD*%
D11*
%TO.P,J9,1,Pin_1*%
%TO.N,GND*%
X-52657200Y13033500D03*
D12*
%TO.P,J9,2,Pin_2*%
%TO.N,/Output 9-16/DOUT9*%
X-48997200Y13033500D03*
D13*
%TO.P,J9,3,Pin_3*%
%TO.N,/Output 9-16/VOUT9*%
X-45337200Y13033500D03*
%TD*%
D11*
%TO.P,J10,1,Pin_1*%
%TO.N,GND*%
X-52657200Y33500D03*
D12*
%TO.P,J10,2,Pin_2*%
%TO.N,/Output 9-16/DOUT10*%
X-48997200Y33500D03*
D13*
%TO.P,J10,3,Pin_3*%
%TO.N,/Output 9-16/VOUT10*%
X-45337200Y33500D03*
%TD*%
D11*
%TO.P,J11,1,Pin_1*%
%TO.N,GND*%
X-37657200Y13033500D03*
D12*
%TO.P,J11,2,Pin_2*%
%TO.N,/Output 9-16/DOUT11*%
X-33997200Y13033500D03*
D13*
%TO.P,J11,3,Pin_3*%
%TO.N,/Output 9-16/VOUT11*%
X-30337200Y13033500D03*
%TD*%
D11*
%TO.P,J12,1,Pin_1*%
%TO.N,GND*%
X-37657200Y33500D03*
D12*
%TO.P,J12,2,Pin_2*%
%TO.N,/Output 9-16/DOUT12*%
X-33997200Y33500D03*
D13*
%TO.P,J12,3,Pin_3*%
%TO.N,/Output 9-16/VOUT12*%
X-30337200Y33500D03*
%TD*%
D11*
%TO.P,J13,1,Pin_1*%
%TO.N,GND*%
X-22657200Y13033500D03*
D12*
%TO.P,J13,2,Pin_2*%
%TO.N,/Output 9-16/DOUT13*%
X-18997200Y13033500D03*
D13*
%TO.P,J13,3,Pin_3*%
%TO.N,/Output 9-16/VOUT13*%
X-15337200Y13033500D03*
%TD*%
D11*
%TO.P,J14,1,Pin_1*%
%TO.N,GND*%
X-22657200Y33500D03*
D12*
%TO.P,J14,2,Pin_2*%
%TO.N,/Output 9-16/DOUT14*%
X-18997200Y33500D03*
D13*
%TO.P,J14,3,Pin_3*%
%TO.N,/Output 9-16/VOUT14*%
X-15337200Y33500D03*
%TD*%
D11*
%TO.P,J15,1,Pin_1*%
%TO.N,GND*%
X-7657200Y13033500D03*
D12*
%TO.P,J15,2,Pin_2*%
%TO.N,/Output 9-16/DOUT15*%
X-3997200Y13033500D03*
D13*
%TO.P,J15,3,Pin_3*%
%TO.N,/Output 9-16/VOUT15*%
X-337200Y13033500D03*
%TD*%
D11*
%TO.P,J16,1,Pin_1*%
%TO.N,GND*%
X-7657200Y33500D03*
D12*
%TO.P,J16,2,Pin_2*%
%TO.N,/Output 9-16/DOUT16*%
X-3997200Y33500D03*
D13*
%TO.P,J16,3,Pin_3*%
%TO.N,/Output 9-16/VOUT16*%
X-337200Y33500D03*
%TD*%
D14*
%TO.P,F1,1_1,1*%
%TO.N,VIN1*%
X-106894600Y-20685100D03*
%TO.P,F1,1_2,1*%
X-106894600Y-16985100D03*
%TO.P,F1,2_1,2*%
%TO.N,/Output 1-8/VOUT1*%
X-106894600Y-12485100D03*
%TO.P,F1,2_2,2*%
X-106894600Y-8785100D03*
%TD*%
%TO.P,F7,1_1,1*%
%TO.N,VIN1*%
X-66692002Y-20695100D03*
%TO.P,F7,1_2,1*%
X-66692002Y-16995100D03*
%TO.P,F7,2_1,2*%
%TO.N,/Output 1-8/VOUT7*%
X-66692002Y-12495100D03*
%TO.P,F7,2_2,2*%
X-66692002Y-8795100D03*
%TD*%
%TO.P,F14,1_1,1*%
%TO.N,VIN2*%
X-19788971Y-20760100D03*
%TO.P,F14,1_2,1*%
X-19788971Y-17060100D03*
%TO.P,F14,2_1,2*%
%TO.N,/Output 9-16/VOUT14*%
X-19788971Y-12560100D03*
%TO.P,F14,2_2,2*%
X-19788971Y-8860100D03*
%TD*%
D10*
%TO.P,C1,1*%
%TO.N,+5V*%
X-82076200Y25755700D03*
%TO.P,C1,2*%
%TO.N,GND*%
X-82076200Y26715700D03*
%TD*%
D14*
%TO.P,F2,1_1,1*%
%TO.N,VIN1*%
X-100194167Y-20700100D03*
%TO.P,F2,1_2,1*%
X-100194167Y-17000100D03*
%TO.P,F2,2_1,2*%
%TO.N,/Output 1-8/VOUT2*%
X-100194167Y-12500100D03*
%TO.P,F2,2_2,2*%
X-100194167Y-8800100D03*
%TD*%
%TO.P,F6,1_1,1*%
%TO.N,VIN1*%
X-73392435Y-20695100D03*
%TO.P,F6,1_2,1*%
X-73392435Y-16995100D03*
%TO.P,F6,2_1,2*%
%TO.N,/Output 1-8/VOUT6*%
X-73392435Y-12495100D03*
%TO.P,F6,2_2,2*%
X-73392435Y-8795100D03*
%TD*%
%TO.P,F8,1_1,1*%
%TO.N,VIN1*%
X-59991569Y-20695100D03*
%TO.P,F8,1_2,1*%
X-59991569Y-16995100D03*
%TO.P,F8,2_1,2*%
%TO.N,/Output 1-8/VOUT8*%
X-59991569Y-12495100D03*
%TO.P,F8,2_2,2*%
X-59991569Y-8795100D03*
%TD*%
%TO.P,F9,1_1,1*%
%TO.N,VIN2*%
X-53291136Y-20695100D03*
%TO.P,F9,1_2,1*%
X-53291136Y-16995100D03*
%TO.P,F9,2_1,2*%
%TO.N,/Output 9-16/VOUT9*%
X-53291136Y-12495100D03*
%TO.P,F9,2_2,2*%
X-53291136Y-8795100D03*
%TD*%
%TO.P,F10,1_1,1*%
%TO.N,VIN2*%
X-46590703Y-20695100D03*
%TO.P,F10,1_2,1*%
X-46590703Y-16995100D03*
%TO.P,F10,2_1,2*%
%TO.N,/Output 9-16/VOUT10*%
X-46590703Y-12495100D03*
%TO.P,F10,2_2,2*%
X-46590703Y-8795100D03*
%TD*%
%TO.P,F16,1_1,1*%
%TO.N,VIN2*%
X-6388100Y-20760100D03*
%TO.P,F16,1_2,1*%
X-6388100Y-17060100D03*
%TO.P,F16,2_1,2*%
%TO.N,/Output 9-16/VOUT16*%
X-6388100Y-12560100D03*
%TO.P,F16,2_2,2*%
X-6388100Y-8860100D03*
%TD*%
%TO.P,F5,1_1,1*%
%TO.N,VIN1*%
X-80092868Y-20695100D03*
%TO.P,F5,1_2,1*%
X-80092868Y-16995100D03*
%TO.P,F5,2_1,2*%
%TO.N,/Output 1-8/VOUT5*%
X-80092868Y-12495100D03*
%TO.P,F5,2_2,2*%
X-80092868Y-8795100D03*
%TD*%
%TO.P,F3,1_1,1*%
%TO.N,VIN1*%
X-93493734Y-20700100D03*
%TO.P,F3,1_2,1*%
X-93493734Y-17000100D03*
%TO.P,F3,2_1,2*%
%TO.N,/Output 1-8/VOUT3*%
X-93493734Y-12500100D03*
%TO.P,F3,2_2,2*%
X-93493734Y-8800100D03*
%TD*%
%TO.P,F13,1_1,1*%
%TO.N,VIN2*%
X-26489404Y-20760100D03*
%TO.P,F13,1_2,1*%
X-26489404Y-17060100D03*
%TO.P,F13,2_1,2*%
%TO.N,/Output 9-16/VOUT13*%
X-26489404Y-12560100D03*
%TO.P,F13,2_2,2*%
X-26489404Y-8860100D03*
%TD*%
%TO.P,F11,1_1,1*%
%TO.N,VIN2*%
X-39890270Y-20695100D03*
%TO.P,F11,1_2,1*%
X-39890270Y-16995100D03*
%TO.P,F11,2_1,2*%
%TO.N,/Output 9-16/VOUT11*%
X-39890270Y-12495100D03*
%TO.P,F11,2_2,2*%
X-39890270Y-8795100D03*
%TD*%
%TO.P,F4,1_1,1*%
%TO.N,VIN1*%
X-86793301Y-20700100D03*
%TO.P,F4,1_2,1*%
X-86793301Y-17000100D03*
%TO.P,F4,2_1,2*%
%TO.N,/Output 1-8/VOUT4*%
X-86793301Y-12500100D03*
%TO.P,F4,2_2,2*%
X-86793301Y-8800100D03*
%TD*%
D11*
%TO.P,J1,1,Pin_1*%
%TO.N,GND*%
X-112657200Y13033500D03*
D12*
%TO.P,J1,2,Pin_2*%
%TO.N,/Output 1-8/DOUT1*%
X-108997200Y13033500D03*
D13*
%TO.P,J1,3,Pin_3*%
%TO.N,/Output 1-8/VOUT1*%
X-105337200Y13033500D03*
%TD*%
D11*
%TO.P,J3,1,Pin_1*%
%TO.N,GND*%
X-97657200Y13033500D03*
D12*
%TO.P,J3,2,Pin_2*%
%TO.N,/Output 1-8/DOUT3*%
X-93997200Y13033500D03*
D13*
%TO.P,J3,3,Pin_3*%
%TO.N,/Output 1-8/VOUT3*%
X-90337200Y13033500D03*
%TD*%
D11*
%TO.P,J4,1,Pin_1*%
%TO.N,GND*%
X-97657200Y33500D03*
D12*
%TO.P,J4,2,Pin_2*%
%TO.N,/Output 1-8/DOUT4*%
X-93997200Y33500D03*
D13*
%TO.P,J4,3,Pin_3*%
%TO.N,/Output 1-8/VOUT4*%
X-90337200Y33500D03*
%TD*%
D14*
%TO.P,F15,1_1,1*%
%TO.N,VIN2*%
X-13088538Y-20760100D03*
%TO.P,F15,1_2,1*%
X-13088538Y-17060100D03*
%TO.P,F15,2_1,2*%
%TO.N,/Output 9-16/VOUT15*%
X-13088538Y-12560100D03*
%TO.P,F15,2_2,2*%
X-13088538Y-8860100D03*
%TD*%
%TO.P,F12,1_1,1*%
%TO.N,VIN2*%
X-33189837Y-20695100D03*
%TO.P,F12,1_2,1*%
X-33189837Y-16995100D03*
%TO.P,F12,2_1,2*%
%TO.N,/Output 9-16/VOUT12*%
X-33189837Y-12495100D03*
%TO.P,F12,2_2,2*%
X-33189837Y-8795100D03*
%TD*%
D15*
%TO.P,D3,1,K*%
%TO.N,GND*%
X-128516200Y7560000D03*
%TO.P,D3,2,A*%
%TO.N,Net-(D3-A)*%
X-128516200Y5985000D03*
%TD*%
D16*
%TO.P,R1,1*%
%TO.N,Net-(D3-A)*%
X-128516200Y2036500D03*
%TO.P,R1,2*%
%TO.N,VIN1*%
X-128516200Y386500D03*
%TD*%
D17*
%TO.P,D5,1,K*%
%TO.N,Net-(D5-K)*%
X-18738700Y25645700D03*
%TO.P,D5,2,A*%
%TO.N,+5V*%
X-20313700Y25645700D03*
%TD*%
D18*
%TO.P,J19,1,Pin_1*%
%TO.N,unconnected-(J19-Pin_1-Pad1)*%
X-79816200Y42695700D03*
D19*
%TO.P,J19,2,Pin_2*%
%TO.N,+5V*%
X-79816200Y45235700D03*
%TO.P,J19,3,Pin_3*%
%TO.N,GND*%
X-77276200Y42695700D03*
%TO.P,J19,4,Pin_4*%
%TO.N,+5V*%
X-77276200Y45235700D03*
%TO.P,J19,5,Pin_5*%
%TO.N,GND*%
X-74736200Y42695700D03*
%TO.P,J19,6,Pin_6*%
%TO.N,OUT17*%
X-74736200Y45235700D03*
%TO.P,J19,7,Pin_7*%
%TO.N,GND*%
X-72196200Y42695700D03*
%TO.P,J19,8,Pin_8*%
%TO.N,OUT18*%
X-72196200Y45235700D03*
%TO.P,J19,9,Pin_9*%
%TO.N,GND*%
X-69656200Y42695700D03*
%TO.P,J19,10,Pin_10*%
%TO.N,OUT19*%
X-69656200Y45235700D03*
%TO.P,J19,11,Pin_11*%
%TO.N,GND*%
X-67116200Y42695700D03*
%TO.P,J19,12,Pin_12*%
%TO.N,OUT20*%
X-67116200Y45235700D03*
%TO.P,J19,13,Pin_13*%
%TO.N,GND*%
X-64576200Y42695700D03*
%TO.P,J19,14,Pin_14*%
%TO.N,OUT21*%
X-64576200Y45235700D03*
%TO.P,J19,15,Pin_15*%
%TO.N,GND*%
X-62036200Y42695700D03*
%TO.P,J19,16,Pin_16*%
%TO.N,OUT22*%
X-62036200Y45235700D03*
%TO.P,J19,17,Pin_17*%
%TO.N,GND*%
X-59496200Y42695700D03*
%TO.P,J19,18,Pin_18*%
%TO.N,OUT23*%
X-59496200Y45235700D03*
%TO.P,J19,19,Pin_19*%
%TO.N,GND*%
X-56956200Y42695700D03*
%TO.P,J19,20,Pin_20*%
%TO.N,OUT24*%
X-56956200Y45235700D03*
%TO.P,J19,21,Pin_21*%
%TO.N,GND*%
X-54416200Y42695700D03*
%TO.P,J19,22,Pin_22*%
%TO.N,OUT25*%
X-54416200Y45235700D03*
%TO.P,J19,23,Pin_23*%
%TO.N,GND*%
X-51876200Y42695700D03*
%TO.P,J19,24,Pin_24*%
%TO.N,OUT26*%
X-51876200Y45235700D03*
%TO.P,J19,25,Pin_25*%
%TO.N,GND*%
X-49336200Y42695700D03*
%TO.P,J19,26,Pin_26*%
%TO.N,OUT27*%
X-49336200Y45235700D03*
%TO.P,J19,27,Pin_27*%
%TO.N,GND*%
X-46796200Y42695700D03*
%TO.P,J19,28,Pin_28*%
%TO.N,OUT28*%
X-46796200Y45235700D03*
%TO.P,J19,29,Pin_29*%
%TO.N,GND*%
X-44256200Y42695700D03*
%TO.P,J19,30,Pin_30*%
%TO.N,unconnected-(J19-Pin_30-Pad30)*%
X-44256200Y45235700D03*
%TO.P,J19,31,Pin_31*%
%TO.N,OUT29*%
X-41716200Y42695700D03*
%TO.P,J19,32,Pin_32*%
%TO.N,OUT30*%
X-41716200Y45235700D03*
%TO.P,J19,33,Pin_33*%
%TO.N,GND*%
X-39176200Y42695700D03*
%TO.P,J19,34,Pin_34*%
%TO.N,OUT31*%
X-39176200Y45235700D03*
%TO.P,J19,35,Pin_35*%
%TO.N,GND*%
X-36636200Y42695700D03*
%TO.P,J19,36,Pin_36*%
%TO.N,OUT32*%
X-36636200Y45235700D03*
%TO.P,J19,37,Pin_37*%
%TO.N,GND*%
X-34096200Y42695700D03*
%TO.P,J19,38,Pin_38*%
X-34096200Y45235700D03*
%TO.P,J19,39,Pin_39*%
%TO.N,+5V*%
X-31556200Y42695700D03*
%TO.P,J19,40,Pin_40*%
X-31556200Y45235700D03*
%TD*%
D20*
%TO.P,R3,1*%
%TO.N,GND*%
X-14591200Y25645700D03*
%TO.P,R3,2*%
%TO.N,Net-(D5-K)*%
X-16241200Y25645700D03*
%TD*%
D21*
%TO.P,J17,1,P1*%
%TO.N,VIN1*%
X-115516200Y-15914300D03*
D22*
%TO.P,J17,2,P2*%
%TO.N,GND*%
X-125016200Y-15914300D03*
%TD*%
D21*
%TO.P,J18,1,P1*%
%TO.N,VIN2*%
X2283800Y-15814300D03*
D22*
%TO.P,J18,2,P2*%
%TO.N,GND*%
X11783800Y-15814300D03*
%TD*%
D16*
%TO.P,R2,1*%
%TO.N,Net-(D4-A)*%
X15283800Y2036500D03*
%TO.P,R2,2*%
%TO.N,VIN2*%
X15283800Y386500D03*
%TD*%
D15*
%TO.P,D4,1,K*%
%TO.N,GND*%
X15283800Y7560000D03*
%TO.P,D4,2,A*%
%TO.N,Net-(D4-A)*%
X15283800Y5985000D03*
%TD*%
D23*
%TO.P,U2,1,G1*%
%TO.N,GND*%
X-24891200Y31348200D03*
%TO.P,U2,2,A0*%
%TO.N,Net-(U2-A0)*%
X-25541200Y31348200D03*
%TO.P,U2,3,A1*%
%TO.N,Net-(U2-A1)*%
X-26191200Y31348200D03*
%TO.P,U2,4,A2*%
%TO.N,Net-(U2-A2)*%
X-26841200Y31348200D03*
%TO.P,U2,5,A3*%
%TO.N,Net-(U2-A3)*%
X-27491200Y31348200D03*
%TO.P,U2,6,A4*%
%TO.N,Net-(U2-A4)*%
X-28141200Y31348200D03*
%TO.P,U2,7,A5*%
%TO.N,Net-(U2-A5)*%
X-28791200Y31348200D03*
%TO.P,U2,8,A6*%
%TO.N,Net-(U2-A6)*%
X-29441200Y31348200D03*
%TO.P,U2,9,A7*%
%TO.N,Net-(U2-A7)*%
X-30091200Y31348200D03*
%TO.P,U2,10,GND*%
%TO.N,GND*%
X-30741200Y31348200D03*
%TO.P,U2,11,Y7*%
%TO.N,Net-(U2-Y7)*%
X-30741200Y25623200D03*
%TO.P,U2,12,Y6*%
%TO.N,Net-(U2-Y6)*%
X-30091200Y25623200D03*
%TO.P,U2,13,Y5*%
%TO.N,Net-(U2-Y5)*%
X-29441200Y25623200D03*
%TO.P,U2,14,Y4*%
%TO.N,Net-(U2-Y4)*%
X-28791200Y25623200D03*
%TO.P,U2,15,Y3*%
%TO.N,Net-(U2-Y3)*%
X-28141200Y25623200D03*
%TO.P,U2,16,Y2*%
%TO.N,Net-(U2-Y2)*%
X-27491200Y25623200D03*
%TO.P,U2,17,Y1*%
%TO.N,Net-(U2-Y1)*%
X-26841200Y25623200D03*
%TO.P,U2,18,Y0*%
%TO.N,Net-(U2-Y0)*%
X-26191200Y25623200D03*
%TO.P,U2,19,G2*%
%TO.N,GND*%
X-25541200Y25623200D03*
%TO.P,U2,20,VCC*%
%TO.N,+5V*%
X-24891200Y25623200D03*
%TD*%
%TO.P,U1,1,G1*%
%TO.N,GND*%
X-84101200Y31348200D03*
%TO.P,U1,2,A0*%
%TO.N,Net-(U1-A0)*%
X-84751200Y31348200D03*
%TO.P,U1,3,A1*%
%TO.N,Net-(U1-A1)*%
X-85401200Y31348200D03*
%TO.P,U1,4,A2*%
%TO.N,Net-(U1-A2)*%
X-86051200Y31348200D03*
%TO.P,U1,5,A3*%
%TO.N,Net-(U1-A3)*%
X-86701200Y31348200D03*
%TO.P,U1,6,A4*%
%TO.N,Net-(U1-A4)*%
X-87351200Y31348200D03*
%TO.P,U1,7,A5*%
%TO.N,Net-(U1-A5)*%
X-88001200Y31348200D03*
%TO.P,U1,8,A6*%
%TO.N,Net-(U1-A6)*%
X-88651200Y31348200D03*
%TO.P,U1,9,A7*%
%TO.N,Net-(U1-A7)*%
X-89301200Y31348200D03*
%TO.P,U1,10,GND*%
%TO.N,GND*%
X-89951200Y31348200D03*
%TO.P,U1,11,Y7*%
%TO.N,Net-(U1-Y7)*%
X-89951200Y25623200D03*
%TO.P,U1,12,Y6*%
%TO.N,Net-(U1-Y6)*%
X-89301200Y25623200D03*
%TO.P,U1,13,Y5*%
%TO.N,Net-(U1-Y5)*%
X-88651200Y25623200D03*
%TO.P,U1,14,Y4*%
%TO.N,Net-(U1-Y4)*%
X-88001200Y25623200D03*
%TO.P,U1,15,Y3*%
%TO.N,Net-(U1-Y3)*%
X-87351200Y25623200D03*
%TO.P,U1,16,Y2*%
%TO.N,Net-(U1-Y2)*%
X-86701200Y25623200D03*
%TO.P,U1,17,Y1*%
%TO.N,Net-(U1-Y1)*%
X-86051200Y25623200D03*
%TO.P,U1,18,Y0*%
%TO.N,Net-(U1-Y0)*%
X-85401200Y25623200D03*
%TO.P,U1,19,G2*%
%TO.N,GND*%
X-84751200Y25623200D03*
%TO.P,U1,20,VCC*%
%TO.N,+5V*%
X-84101200Y25623200D03*
%TD*%
D16*
%TO.P,R23,1*%
%TO.N,OUT21*%
X-67416200Y38260700D03*
%TO.P,R23,2*%
%TO.N,Net-(U1-A3)*%
X-67416200Y36610700D03*
%TD*%
D20*
%TO.P,R15,1*%
%TO.N,/Output 9-16/DOUT12*%
X-27381200Y20895700D03*
%TO.P,R15,2*%
%TO.N,Net-(U2-Y4)*%
X-29031200Y20895700D03*
%TD*%
D16*
%TO.P,R35,1*%
%TO.N,OUT25*%
X-51516200Y38260700D03*
%TO.P,R35,2*%
%TO.N,Net-(U2-A7)*%
X-51516200Y36610700D03*
%TD*%
D24*
%TO.P,R14,1*%
%TO.N,/Output 9-16/DOUT11*%
X-33161200Y20895700D03*
%TO.P,R14,2*%
%TO.N,Net-(U2-Y5)*%
X-31511200Y20895700D03*
%TD*%
D20*
%TO.P,R19,1*%
%TO.N,/Output 9-16/DOUT16*%
X-14426200Y20895700D03*
%TO.P,R19,2*%
%TO.N,Net-(U2-Y0)*%
X-16076200Y20895700D03*
%TD*%
%TO.P,R10,1*%
%TO.N,/Output 1-8/DOUT7*%
X-77571200Y20895700D03*
%TO.P,R10,2*%
%TO.N,Net-(U1-Y1)*%
X-79221200Y20895700D03*
%TD*%
%TO.P,R25,1*%
%TO.N,OUT19*%
X-73391200Y37035700D03*
%TO.P,R25,2*%
%TO.N,Net-(U1-A5)*%
X-75041200Y37035700D03*
%TD*%
D24*
%TO.P,R5,1*%
%TO.N,/Output 1-8/DOUT2*%
X-96561200Y20895700D03*
%TO.P,R5,2*%
%TO.N,Net-(U1-Y6)*%
X-94911200Y20895700D03*
%TD*%
D16*
%TO.P,R34,1*%
%TO.N,OUT26*%
X-49216200Y38260700D03*
%TO.P,R34,2*%
%TO.N,Net-(U2-A6)*%
X-49216200Y36610700D03*
%TD*%
D20*
%TO.P,R11,1*%
%TO.N,/Output 1-8/DOUT8*%
X-73241200Y20895700D03*
%TO.P,R11,2*%
%TO.N,Net-(U1-Y0)*%
X-74891200Y20895700D03*
%TD*%
D16*
%TO.P,R20,1*%
%TO.N,OUT24*%
X-59416200Y38260700D03*
%TO.P,R20,2*%
%TO.N,Net-(U1-A0)*%
X-59416200Y36610700D03*
%TD*%
D20*
%TO.P,R9,1*%
%TO.N,/Output 1-8/DOUT6*%
X-81426200Y20895700D03*
%TO.P,R9,2*%
%TO.N,Net-(U1-Y2)*%
X-83076200Y20895700D03*
%TD*%
D24*
%TO.P,R7,1*%
%TO.N,/Output 1-8/DOUT4*%
X-89921200Y20895700D03*
%TO.P,R7,2*%
%TO.N,Net-(U1-Y4)*%
X-88271200Y20895700D03*
%TD*%
D20*
%TO.P,R17,1*%
%TO.N,/Output 9-16/DOUT14*%
X-21151200Y20895700D03*
%TO.P,R17,2*%
%TO.N,Net-(U2-Y2)*%
X-22801200Y20895700D03*
%TD*%
%TO.P,R27,1*%
%TO.N,OUT17*%
X-81391200Y38435700D03*
%TO.P,R27,2*%
%TO.N,Net-(U1-A7)*%
X-83041200Y38435700D03*
%TD*%
D25*
%TO.P,C3,1*%
%TO.N,+5V*%
X-21476200Y33645700D03*
%TO.P,C3,2*%
%TO.N,GND*%
X-17876200Y33645700D03*
%TD*%
D24*
%TO.P,R12,1*%
%TO.N,/Output 9-16/DOUT9*%
X-43761200Y20895700D03*
%TO.P,R12,2*%
%TO.N,Net-(U2-Y7)*%
X-42111200Y20895700D03*
%TD*%
D20*
%TO.P,R18,1*%
%TO.N,/Output 9-16/DOUT15*%
X-17881200Y20895700D03*
%TO.P,R18,2*%
%TO.N,Net-(U2-Y1)*%
X-19531200Y20895700D03*
%TD*%
D24*
%TO.P,R13,1*%
%TO.N,/Output 9-16/DOUT10*%
X-39021200Y20895700D03*
%TO.P,R13,2*%
%TO.N,Net-(U2-Y6)*%
X-37371200Y20895700D03*
%TD*%
D16*
%TO.P,R21,1*%
%TO.N,OUT23*%
X-62116200Y38260700D03*
%TO.P,R21,2*%
%TO.N,Net-(U1-A1)*%
X-62116200Y36610700D03*
%TD*%
%TO.P,R22,1*%
%TO.N,OUT22*%
X-64716200Y38260700D03*
%TO.P,R22,2*%
%TO.N,Net-(U1-A2)*%
X-64716200Y36610700D03*
%TD*%
D24*
%TO.P,R29,1*%
%TO.N,OUT31*%
X-33991200Y37865700D03*
%TO.P,R29,2*%
%TO.N,Net-(U2-A1)*%
X-32341200Y37865700D03*
%TD*%
%TO.P,R28,1*%
%TO.N,OUT32*%
X-28861200Y37865700D03*
%TO.P,R28,2*%
%TO.N,Net-(U2-A0)*%
X-27211200Y37865700D03*
%TD*%
D16*
%TO.P,R32,1*%
%TO.N,OUT28*%
X-44316200Y38260700D03*
%TO.P,R32,2*%
%TO.N,Net-(U2-A4)*%
X-44316200Y36610700D03*
%TD*%
D24*
%TO.P,R4,1*%
%TO.N,/Output 1-8/DOUT1*%
X-100121200Y20895700D03*
%TO.P,R4,2*%
%TO.N,Net-(U1-Y7)*%
X-98471200Y20895700D03*
%TD*%
D20*
%TO.P,R16,1*%
%TO.N,/Output 9-16/DOUT13*%
X-24281200Y20895700D03*
%TO.P,R16,2*%
%TO.N,Net-(U2-Y3)*%
X-25931200Y20895700D03*
%TD*%
D16*
%TO.P,R33,1*%
%TO.N,OUT27*%
X-47016200Y38260700D03*
%TO.P,R33,2*%
%TO.N,Net-(U2-A5)*%
X-47016200Y36610700D03*
%TD*%
D24*
%TO.P,R6,1*%
%TO.N,/Output 1-8/DOUT3*%
X-93081200Y20895700D03*
%TO.P,R6,2*%
%TO.N,Net-(U1-Y5)*%
X-91431200Y20895700D03*
%TD*%
D20*
%TO.P,R8,1*%
%TO.N,/Output 1-8/DOUT5*%
X-85116200Y20895700D03*
%TO.P,R8,2*%
%TO.N,Net-(U1-Y3)*%
X-86766200Y20895700D03*
%TD*%
D16*
%TO.P,R31,1*%
%TO.N,OUT29*%
X-40416200Y38260700D03*
%TO.P,R31,2*%
%TO.N,Net-(U2-A3)*%
X-40416200Y36610700D03*
%TD*%
D24*
%TO.P,R30,1*%
%TO.N,OUT30*%
X-37921200Y37835700D03*
%TO.P,R30,2*%
%TO.N,Net-(U2-A2)*%
X-36271200Y37835700D03*
%TD*%
D16*
%TO.P,R24,1*%
%TO.N,OUT20*%
X-69516200Y38260700D03*
%TO.P,R24,2*%
%TO.N,Net-(U1-A4)*%
X-69516200Y36610700D03*
%TD*%
D20*
%TO.P,R26,1*%
%TO.N,OUT18*%
X-77791200Y37635700D03*
%TO.P,R26,2*%
%TO.N,Net-(U1-A6)*%
X-79441200Y37635700D03*
%TD*%
D26*
%TO.N,GND*%
X-91216200Y31415700D03*
X-15576200Y34345700D03*
X15293800Y9265700D03*
X-90006200Y29355700D03*
X-16576200Y31685700D03*
X-17826200Y31685700D03*
X-19016200Y31685700D03*
X-24566200Y32995700D03*
X-128516200Y8965700D03*
X-15576200Y33045700D03*
X-82086200Y27885700D03*
X-31896200Y31348200D03*
X-18976200Y35685700D03*
X-25446200Y27215700D03*
X-16516200Y35685700D03*
X-23786200Y31335700D03*
X-17816200Y35685700D03*
X-84101200Y29715700D03*
X-13116200Y25645700D03*
X-82646200Y31335700D03*
%TD*%
D27*
%TO.N,+5V*%
X-20236200Y25660700D02*
X-24566200Y25660700D01*
X-21456200Y28585700D02*
X-21406200Y28635700D01*
X-21596200Y28585700D02*
X-21456200Y28585700D01*
X-44216200Y28635700D02*
X-21646200Y28635700D01*
X-21646200Y28635700D02*
X-21596200Y28585700D01*
X-47346200Y25505700D02*
X-44216200Y28635700D01*
X-83766200Y25505700D02*
X-47346200Y25505700D01*
D28*
%TO.N,Net-(U1-Y0)*%
X-76851200Y22745700D02*
X-83676200Y22745700D01*
X-83676200Y22745700D02*
X-85401200Y24470700D01*
X-85401200Y24470700D02*
X-85401200Y25623200D01*
X-75001200Y20895700D02*
X-76851200Y22745700D01*
X-74891200Y20895700D02*
X-75001200Y20895700D01*
%TO.N,GND*%
X-24891200Y31348200D02*
X-23798700Y31348200D01*
X-91148700Y31348200D02*
X-91216200Y31415700D01*
D29*
X-23626200Y27215700D02*
X-25446200Y27215700D01*
D28*
X-84751200Y27820700D02*
X-84736200Y27835700D01*
D29*
X-23236200Y26825700D02*
X-23626200Y27215700D01*
D28*
X15293800Y7570000D02*
X15283800Y7560000D01*
X-84101200Y31348200D02*
X-82658700Y31348200D01*
X-84736200Y27835700D02*
X-82136200Y27835700D01*
X-25541200Y27120700D02*
X-25446200Y27215700D01*
X-82076200Y26715700D02*
X-82076200Y27875700D01*
X-89951200Y31348200D02*
X-89951200Y29410700D01*
X-31896200Y31348200D02*
X-30741200Y31348200D01*
X-24891200Y32670700D02*
X-24891200Y31348200D01*
X-82076200Y27875700D02*
X-82086200Y27885700D01*
D29*
X-14591200Y25645700D02*
X-13116200Y25645700D01*
D28*
X-23798700Y31348200D02*
X-23786200Y31335700D01*
X-89951200Y31348200D02*
X-91148700Y31348200D01*
D29*
X-128516200Y8965700D02*
X-128516200Y7560000D01*
D28*
X-24566200Y32995700D02*
X-24891200Y32670700D01*
D29*
X15293800Y9265700D02*
X15293800Y7570000D01*
D28*
X-82658700Y31348200D02*
X-82646200Y31335700D01*
X-84751200Y25623200D02*
X-84751200Y27820700D01*
D29*
X-25541200Y25623200D02*
X-25541200Y27120700D01*
D28*
X-84101200Y29715700D02*
X-84101200Y31348200D01*
X-89951200Y29410700D02*
X-90006200Y29355700D01*
X-82136200Y27835700D02*
X-82086200Y27885700D01*
D30*
%TO.N,+5V*%
X-33659886Y48560700D02*
X-75816200Y48560700D01*
X-31556200Y46457014D02*
X-33659886Y48560700D01*
X-75816200Y48560700D02*
X-77276200Y47100700D01*
X-77276200Y47100700D02*
X-77276200Y45235700D01*
X-31556200Y45235700D02*
X-31556200Y46457014D01*
X-21536200Y25915700D02*
X-21536200Y37405700D01*
X-77276200Y45235700D02*
X-79816200Y45235700D01*
X-26826200Y42695700D02*
X-31556200Y42695700D01*
X-21536200Y37405700D02*
X-26826200Y42695700D01*
X-31556200Y42695700D02*
X-31556200Y45235700D01*
D29*
%TO.N,VIN1*%
X-130341190Y-23437305D02*
X-118359361Y-23437460D01*
X-130341190Y-539290D02*
X-130341190Y-23437305D01*
X-128516200Y386500D02*
X-128545400Y415700D01*
X-128545400Y415700D02*
X-129386200Y415700D01*
X-118359361Y-23437460D02*
X-115516200Y-20594300D01*
X-115516200Y-20594300D02*
X-115516200Y-15914300D01*
X-129386200Y415700D02*
X-130341190Y-539290D01*
D31*
%TO.N,/Output 1-8/VOUT1*%
X-113017200Y7003500D02*
X-108168200Y7003500D01*
X-105337200Y9834500D02*
X-108168200Y7003500D01*
X-111014600Y-8785100D02*
X-106894600Y-8785100D01*
X-115657200Y4363500D02*
X-115657200Y-4142500D01*
X-115657200Y-4142500D02*
X-111014600Y-8785100D01*
X-106894600Y-8785100D02*
X-106894600Y-12485100D01*
D32*
X-113017200Y7003500D02*
X-115657200Y4363500D01*
D31*
X-105337200Y13033500D02*
X-105337200Y9834500D01*
%TO.N,/Output 1-8/VOUT2*%
X-101013600Y-8800100D02*
X-105316200Y-4497500D01*
X-105316200Y-4497500D02*
X-105316200Y12500D01*
X-100194167Y-12500100D02*
X-100194167Y-8800100D01*
X-100194167Y-8800100D02*
X-101013600Y-8800100D01*
X-105316200Y12500D02*
X-105337200Y33500D01*
%TO.N,/Output 1-8/VOUT3*%
X-100996200Y-3334300D02*
X-99216200Y-5114300D01*
X-99216200Y-5114300D02*
X-97179534Y-5114300D01*
X-100996200Y3598300D02*
X-100996200Y-3334300D01*
X-90337200Y9484700D02*
X-93032000Y6789900D01*
X-97179534Y-5114300D02*
X-93493734Y-8800100D01*
X-97804600Y6789900D02*
X-100996200Y3598300D01*
X-90337200Y13033500D02*
X-90337200Y9484700D01*
X-93032000Y6789900D02*
X-97804600Y6789900D01*
X-93493734Y-12500100D02*
X-93493734Y-8800100D01*
%TO.N,/Output 1-8/VOUT4*%
X-90337200Y-4476500D02*
X-86793301Y-8020399D01*
X-86793301Y-8020399D02*
X-86793301Y-8800100D01*
X-90337200Y33500D02*
X-90337200Y-4476500D01*
X-86793301Y-12500100D02*
X-86793301Y-8800100D01*
%TO.N,/Output 1-8/VOUT5*%
X-86326200Y3444500D02*
X-86326200Y-2561768D01*
X-80092868Y-12495100D02*
X-80092868Y-8795100D01*
X-75337200Y13033500D02*
X-75337200Y10257300D01*
X-75337200Y10257300D02*
X-78591000Y7003500D01*
X-82767200Y7003500D02*
X-86326200Y3444500D01*
X-78591000Y7003500D02*
X-82767200Y7003500D01*
X-86326200Y-2561768D02*
X-80092868Y-8795100D01*
%TO.N,/Output 1-8/VOUT6*%
X-73392435Y-6847265D02*
X-75222858Y-5016842D01*
X-73392435Y-8795100D02*
X-73392435Y-6847265D01*
X-73392435Y-8795100D02*
X-73392435Y-12495100D01*
X-75222858Y-5016842D02*
X-75222858Y33500D01*
%TO.N,/Output 1-8/VOUT7*%
X-66692002Y-7427698D02*
X-66692002Y-8795100D01*
X-63391000Y7253500D02*
X-67767200Y7253500D01*
X-71476200Y3544500D02*
X-71476200Y-2643500D01*
X-60337200Y10307300D02*
X-63391000Y7253500D01*
X-66692002Y-8795100D02*
X-66692002Y-12495100D01*
X-71476200Y-2643500D02*
X-66692002Y-7427698D01*
X-67767200Y7253500D02*
X-71476200Y3544500D01*
X-60337200Y13033500D02*
X-60337200Y10307300D01*
D29*
%TO.N,VIN2*%
X2283800Y-21386300D02*
X2283800Y-15814300D01*
X17104381Y-7334881D02*
X17108638Y-23439276D01*
X17108790Y-339290D02*
X17108790Y-7330472D01*
X17108638Y-23439276D02*
X4336611Y-23439111D01*
X15283800Y386500D02*
X15462200Y386500D01*
X16393800Y375700D02*
X17108790Y-339290D01*
X17108790Y-7330472D02*
X17104381Y-7334881D01*
X15462200Y386500D02*
X15473000Y375700D01*
X4336611Y-23439111D02*
X2283800Y-21386300D01*
X15473000Y375700D02*
X16393800Y375700D01*
D31*
%TO.N,/Output 1-8/VOUT8*%
X-60337200Y33500D02*
X-60337200Y-8449469D01*
X-59991569Y-8795100D02*
X-59991569Y-12495100D01*
X-60337200Y-8449469D02*
X-59991569Y-8795100D01*
%TO.N,/Output 9-16/VOUT9*%
X-53291136Y-8795100D02*
X-53291136Y-12495100D01*
X-56017200Y2777300D02*
X-51541000Y7253500D01*
X-48391000Y7253500D02*
X-45337200Y10307300D01*
X-53291136Y-8795100D02*
X-53291136Y-8618564D01*
X-56017200Y-5892500D02*
X-56017200Y2777300D01*
X-53291136Y-8618564D02*
X-56017200Y-5892500D01*
X-51541000Y7253500D02*
X-48391000Y7253500D01*
X-45337200Y10307300D02*
X-45337200Y13033500D01*
%TO.N,/Output 9-16/VOUT10*%
X-46590703Y-8795100D02*
X-45337200Y-7541597D01*
X-46590703Y-8795100D02*
X-46590703Y-12495100D01*
X-45337200Y-7541597D02*
X-45337200Y33500D01*
%TO.N,/Output 9-16/VOUT11*%
X-39890270Y-12495100D02*
X-39890270Y-8795100D01*
X-40586200Y-8099170D02*
X-40586200Y3473300D01*
X-30337200Y10007300D02*
X-30337200Y13033500D01*
X-33091000Y7253500D02*
X-30337200Y10007300D01*
X-39890270Y-8795100D02*
X-40586200Y-8099170D01*
X-40586200Y3473300D02*
X-36806000Y7253500D01*
X-36806000Y7253500D02*
X-33091000Y7253500D01*
%TO.N,/Output 9-16/VOUT12*%
X-33189837Y-8795100D02*
X-33189837Y-12495100D01*
X-33189837Y-6693837D02*
X-30337200Y-3841200D01*
X-33189837Y-8795100D02*
X-33189837Y-6693837D01*
X-30337200Y-3841200D02*
X-30337200Y33500D01*
%TO.N,/Output 9-16/VOUT13*%
X-15337200Y9284700D02*
X-15337200Y13033500D01*
X-25506200Y3753300D02*
X-22006000Y7253500D01*
X-22006000Y7253500D02*
X-17368400Y7253500D01*
X-26489404Y-8860100D02*
X-26489404Y-7697504D01*
X-26489404Y-12560100D02*
X-26489404Y-8860100D01*
X-17368400Y7253500D02*
X-15337200Y9284700D01*
X-25516200Y-6724300D02*
X-25516200Y-3756611D01*
X-26489404Y-7697504D02*
X-25516200Y-6724300D01*
X-25506200Y-3746611D02*
X-25506200Y3753300D01*
X-25516200Y-3756611D02*
X-25506200Y-3746611D01*
%TO.N,/Output 9-16/VOUT14*%
X-19788971Y-8860100D02*
X-19788971Y-12560100D01*
X-19788971Y-8860100D02*
X-19788971Y-8129471D01*
X-15336200Y32500D02*
X-15337200Y33500D01*
X-19788971Y-8129471D02*
X-15336200Y-3676700D01*
X-15336200Y-3676700D02*
X-15336200Y32500D01*
%TO.N,/Output 9-16/VOUT15*%
X-10738601Y-6510163D02*
X-10738601Y3520899D01*
X-13088538Y-8860100D02*
X-10738601Y-6510163D01*
X-10738601Y3520899D02*
X-6756000Y7503500D01*
X-326200Y9055700D02*
X-337200Y9066700D01*
X-6756000Y7503500D02*
X-1878400Y7503500D01*
X-337200Y9066700D02*
X-337200Y13033500D01*
X-13088538Y-8860100D02*
X-13088538Y-12560100D01*
X-1878400Y7503500D02*
X-326200Y9055700D01*
%TO.N,/Output 9-16/VOUT16*%
X-337200Y-2809200D02*
X-337200Y33500D01*
X-6388100Y-12560100D02*
X-6388100Y-8860100D01*
X-6388100Y-8860100D02*
X-337200Y-2809200D01*
D28*
%TO.N,/Output 1-8/DOUT1*%
X-108997200Y13033500D02*
X-108997200Y15634700D01*
X-103736200Y20895700D02*
X-100121200Y20895700D01*
X-108997200Y15634700D02*
X-103736200Y20895700D01*
%TO.N,/Output 1-8/DOUT2*%
X-100475700Y18803630D02*
X-101092200Y18187130D01*
X-101092200Y9152300D02*
X-108997200Y1247300D01*
X-96561200Y20895700D02*
X-96561200Y20890700D01*
X-96561200Y20890700D02*
X-98648270Y18803630D01*
X-108997200Y1247300D02*
X-108997200Y33500D01*
X-98648270Y18803630D02*
X-100475700Y18803630D01*
X-101092200Y18187130D02*
X-101092200Y9152300D01*
%TO.N,/Output 1-8/DOUT3*%
X-93081200Y20895700D02*
X-93081200Y17529500D01*
X-93081200Y17529500D02*
X-94006200Y16604500D01*
X-94006200Y16604500D02*
X-94006200Y13042500D01*
X-94006200Y13042500D02*
X-93997200Y13033500D01*
%TO.N,/Output 1-8/DOUT4*%
X-87376200Y16961500D02*
X-87376200Y7044500D01*
X-89921200Y19506500D02*
X-87376200Y16961500D01*
X-93997200Y423500D02*
X-93997200Y33500D01*
X-87376200Y7044500D02*
X-93997200Y423500D01*
X-89921200Y20895700D02*
X-89921200Y19506500D01*
%TO.N,/Output 1-8/DOUT5*%
X-85116200Y20895700D02*
X-78997200Y14776700D01*
X-78997200Y14776700D02*
X-78997200Y13033500D01*
%TO.N,/Output 1-8/DOUT6*%
X-78882858Y1511642D02*
X-78882858Y33500D01*
X-78636200Y17925700D02*
X-73793000Y17925700D01*
X-71876200Y8518300D02*
X-78882858Y1511642D01*
X-71876200Y16008900D02*
X-71876200Y8518300D01*
X-81426200Y20835700D02*
X-81426200Y20715700D01*
X-81426200Y20715700D02*
X-78636200Y17925700D01*
X-73793000Y17925700D02*
X-71876200Y16008900D01*
%TO.N,/Output 1-8/DOUT7*%
X-77571200Y20645700D02*
X-75651200Y18725700D01*
X-75651200Y18725700D02*
X-67089400Y18725700D01*
X-77571200Y20865700D02*
X-77571200Y20645700D01*
X-63997200Y15633500D02*
X-63997200Y13033500D01*
X-67089400Y18725700D02*
X-63997200Y15633500D01*
%TO.N,/Output 1-8/DOUT8*%
X-73241200Y20895700D02*
X-60910400Y20895700D01*
X-56996200Y16981500D02*
X-56996200Y7424500D01*
X-60910400Y20895700D02*
X-56996200Y16981500D01*
X-63997200Y423500D02*
X-63997200Y33500D01*
X-56996200Y7424500D02*
X-63997200Y423500D01*
%TO.N,/Output 9-16/DOUT9*%
X-48997200Y17394700D02*
X-48997200Y13033500D01*
X-43771200Y20885700D02*
X-45506200Y20885700D01*
X-43761200Y20895700D02*
X-43771200Y20885700D01*
X-45506200Y20885700D02*
X-48997200Y17394700D01*
%TO.N,/Output 9-16/DOUT10*%
X-39021200Y20800700D02*
X-41736200Y18085700D01*
X-48997200Y823500D02*
X-48997200Y33500D01*
X-41736200Y8084500D02*
X-48997200Y823500D01*
X-39021200Y20895700D02*
X-39021200Y20800700D01*
X-41736200Y18085700D02*
X-41736200Y8084500D01*
%TO.N,/Output 9-16/DOUT11*%
X-33997200Y20074700D02*
X-33997200Y13033500D01*
X-33176200Y20895700D02*
X-33997200Y20074700D01*
X-33161200Y20895700D02*
X-33176200Y20895700D01*
%TO.N,/Output 9-16/DOUT12*%
X-33997200Y1150700D02*
X-33517200Y1630700D01*
X-26696200Y8451700D02*
X-33517200Y1630700D01*
X-33517200Y1630700D02*
X-33517200Y1627572D01*
X-27381200Y20895700D02*
X-27381200Y19000700D01*
X-33997200Y33500D02*
X-33997200Y1150700D01*
X-27381200Y19000700D02*
X-26696200Y18315700D01*
X-26696200Y18315700D02*
X-26696200Y8451700D01*
%TO.N,/Output 9-16/DOUT13*%
X-18997200Y13033500D02*
X-18997200Y15036700D01*
X-24281200Y20320700D02*
X-24281200Y20895700D01*
X-18997200Y15036700D02*
X-24281200Y20320700D01*
%TO.N,/Output 9-16/DOUT14*%
X-18997200Y33500D02*
X-18997200Y1673500D01*
X-18997200Y1673500D02*
X-12204600Y8466100D01*
X-17906200Y17235700D02*
X-21151200Y20480700D01*
X-13026200Y17235700D02*
X-17906200Y17235700D01*
X-12204600Y16414100D02*
X-13026200Y17235700D01*
X-21151200Y20480700D02*
X-21151200Y20895700D01*
X-12204600Y8466100D02*
X-12204600Y16414100D01*
%TO.N,/Output 9-16/DOUT15*%
X-17881200Y20895700D02*
X-17881200Y20650700D01*
X-7483400Y18595700D02*
X-3997200Y15109500D01*
X-15826200Y18595700D02*
X-7483400Y18595700D01*
X-3997200Y15109500D02*
X-3997200Y13033500D01*
X-17881200Y20650700D02*
X-15826200Y18595700D01*
%TO.N,/Output 9-16/DOUT16*%
X-3997200Y1864700D02*
X-3997200Y33500D01*
X2303800Y8165700D02*
X-3997200Y1864700D01*
X-14426200Y20895700D02*
X-14406200Y20875700D01*
X-3159400Y20875700D02*
X2303800Y15412500D01*
X-14406200Y20875700D02*
X-3159400Y20875700D01*
X2303800Y15412500D02*
X2303800Y8165700D01*
%TO.N,OUT32*%
X-35334311Y41453811D02*
X-35334311Y43933811D01*
X-33116200Y39235700D02*
X-35334311Y41453811D01*
X-30231200Y39235700D02*
X-33116200Y39235700D01*
X-35334311Y43933811D02*
X-36636200Y45235700D01*
X-28861200Y37865700D02*
X-30231200Y39235700D01*
%TO.N,OUT24*%
X-59403700Y38348200D02*
X-59416200Y38348200D01*
X-55717600Y42034300D02*
X-59403700Y38348200D01*
X-56956200Y45235700D02*
X-55717600Y43997100D01*
X-55717600Y43997100D02*
X-55717600Y42034300D01*
%TO.N,OUT31*%
X-39176200Y45235700D02*
X-37937599Y43997099D01*
X-33991200Y37907902D02*
X-33991200Y37865700D01*
X-37937599Y41854301D02*
X-33991200Y37907902D01*
X-37937599Y43997099D02*
X-37937599Y41854301D01*
%TO.N,OUT23*%
X-58257599Y42101171D02*
X-62010570Y38348200D01*
X-62010570Y38348200D02*
X-62116200Y38348200D01*
X-59496200Y45235700D02*
X-58257599Y43997099D01*
X-58257599Y43997099D02*
X-58257599Y42101171D01*
%TO.N,OUT30*%
X-37921200Y37835700D02*
X-37921200Y37850700D01*
X-37921200Y37850700D02*
X-40477599Y40407099D01*
X-40477599Y43997099D02*
X-41716200Y45235700D01*
X-40477599Y40407099D02*
X-40477599Y43997099D01*
%TO.N,OUT22*%
X-64550570Y38348200D02*
X-64716200Y38348200D01*
X-60797599Y42101171D02*
X-64550570Y38348200D01*
X-60797599Y43997099D02*
X-60797599Y42101171D01*
X-62036200Y45235700D02*
X-60797599Y43997099D01*
%TO.N,OUT21*%
X-67090570Y38348200D02*
X-67416200Y38348200D01*
X-63337599Y42101171D02*
X-67090570Y38348200D01*
X-64576200Y45235700D02*
X-63337599Y43997099D01*
X-63337599Y43997099D02*
X-63337599Y42101171D01*
%TO.N,OUT20*%
X-69293103Y38685667D02*
X-65877599Y42101171D01*
X-65877599Y43997099D02*
X-67116200Y45235700D01*
X-65877599Y42101171D02*
X-65877599Y43997099D01*
%TO.N,OUT27*%
X-48097599Y43997099D02*
X-48097599Y39429599D01*
X-48097599Y39429599D02*
X-47016200Y38348200D01*
X-49336200Y45235700D02*
X-48097599Y43997099D01*
%TO.N,OUT19*%
X-73303700Y37215070D02*
X-73303700Y37035700D01*
X-68354801Y43934301D02*
X-68354801Y42163969D01*
X-68354801Y42163969D02*
X-73303700Y37215070D01*
X-69656200Y45235700D02*
X-68354801Y43934301D01*
%TO.N,OUT26*%
X-51876200Y45235700D02*
X-50574311Y43933811D01*
X-50574311Y43933811D02*
X-50574311Y40093811D01*
X-50574311Y40093811D02*
X-49216200Y38735700D01*
X-49216200Y38735700D02*
X-49216200Y38348200D01*
%TO.N,OUT18*%
X-70957599Y43997099D02*
X-70957599Y42101171D01*
X-72196200Y45235700D02*
X-70957599Y43997099D01*
X-74723070Y38335700D02*
X-77003700Y38335700D01*
X-77003700Y38335700D02*
X-77703700Y37635700D01*
X-70957599Y42101171D02*
X-74723070Y38335700D01*
%TO.N,OUT25*%
X-53114311Y43933811D02*
X-53114311Y39946311D01*
X-54416200Y45235700D02*
X-53114311Y43933811D01*
X-53114311Y39946311D02*
X-51516200Y38348200D01*
%TO.N,OUT17*%
X-73497599Y42101171D02*
X-73497599Y43997099D01*
X-73497599Y43997099D02*
X-74736200Y45235700D01*
X-76463070Y39135700D02*
X-73497599Y42101171D01*
X-80603700Y39135700D02*
X-76463070Y39135700D01*
X-81303700Y38435700D02*
X-80603700Y39135700D01*
%TO.N,OUT29*%
X-40416200Y38735700D02*
X-41716200Y40035700D01*
X-40416200Y38348200D02*
X-40416200Y38735700D01*
X-41716200Y40035700D02*
X-41716200Y42695700D01*
%TO.N,OUT28*%
X-44316200Y40435700D02*
X-45557599Y41677099D01*
X-45557599Y43997099D02*
X-45557599Y41677099D01*
X-44316200Y38348200D02*
X-44316200Y40435700D01*
X-46796200Y45235700D02*
X-45557599Y43997099D01*
D29*
%TO.N,Net-(D3-A)*%
X-128516200Y2236500D02*
X-128516200Y5747500D01*
%TO.N,Net-(D4-A)*%
X15283800Y2236500D02*
X15283800Y5747500D01*
%TO.N,Net-(D5-K)*%
X-16241200Y25645700D02*
X-18751200Y25645700D01*
D28*
%TO.N,Net-(U1-A0)*%
X-84741200Y31358200D02*
X-84741200Y32180700D01*
X-83186200Y33735700D02*
X-62203700Y33735700D01*
X-84751200Y31348200D02*
X-84741200Y31358200D01*
X-84741200Y32180700D02*
X-83186200Y33735700D01*
X-62203700Y33735700D02*
X-59416200Y36523200D01*
%TO.N,Net-(U1-A1)*%
X-85391200Y31358200D02*
X-85401200Y31348200D01*
X-62116200Y36523200D02*
X-64202702Y34436698D01*
X-85391200Y32440700D02*
X-85391200Y31358200D01*
X-64202702Y34436698D02*
X-83395202Y34436698D01*
X-83395202Y34436698D02*
X-85391200Y32440700D01*
%TO.N,Net-(U1-A2)*%
X-86041200Y31358200D02*
X-86051200Y31348200D01*
X-66253201Y34986199D02*
X-83815701Y34986199D01*
X-83815701Y34986199D02*
X-86041200Y32760700D01*
X-64716200Y36523200D02*
X-66253201Y34986199D01*
X-86041200Y32760700D02*
X-86041200Y31358200D01*
%TO.N,Net-(U1-A3)*%
X-86691200Y33060700D02*
X-84216200Y35535700D01*
X-68403700Y35535700D02*
X-67416200Y36523200D01*
X-84216200Y35535700D02*
X-68403700Y35535700D01*
X-86691200Y31358200D02*
X-86691200Y33060700D01*
X-86701200Y31348200D02*
X-86691200Y31358200D01*
%TO.N,Net-(U1-A4)*%
X-87341200Y31358200D02*
X-87351200Y31348200D01*
X-87341200Y33270700D02*
X-87341200Y31358200D01*
X-69903700Y36135700D02*
X-84476200Y36135700D01*
X-69516200Y36523200D02*
X-69903700Y36135700D01*
X-84476200Y36135700D02*
X-87341200Y33270700D01*
%TO.N,Net-(U1-A5)*%
X-84796200Y36735700D02*
X-87986200Y33545700D01*
X-87986200Y33545700D02*
X-87986200Y31363200D01*
X-87986200Y31363200D02*
X-88001200Y31348200D01*
X-75428700Y36735700D02*
X-84796200Y36735700D01*
X-75128700Y37035700D02*
X-75428700Y36735700D01*
%TO.N,Net-(U1-A6)*%
X-88636200Y33865700D02*
X-84966200Y37535700D01*
X-88651200Y31348200D02*
X-88636200Y31363200D01*
X-84966200Y37535700D02*
X-79628700Y37535700D01*
X-79628700Y37535700D02*
X-79528700Y37635700D01*
X-88636200Y31363200D02*
X-88636200Y33865700D01*
%TO.N,Net-(U1-A7)*%
X-84986200Y38435700D02*
X-89296200Y34125700D01*
X-89296200Y31353200D02*
X-89301200Y31348200D01*
X-89296200Y34125700D02*
X-89296200Y31353200D01*
X-83128700Y38435700D02*
X-84986200Y38435700D01*
%TO.N,Net-(U2-A0)*%
X-25541200Y33680700D02*
X-25541200Y31348200D01*
X-27211200Y37865700D02*
X-27216200Y37860700D01*
X-27216200Y37860700D02*
X-27216200Y35355700D01*
X-27216200Y35355700D02*
X-25541200Y33680700D01*
%TO.N,Net-(U2-A1)*%
X-32341200Y37865700D02*
X-31046200Y37865700D01*
X-26191200Y33010700D02*
X-26191200Y31348200D01*
X-31046200Y37865700D02*
X-26191200Y33010700D01*
%TO.N,Net-(U2-A2)*%
X-36216200Y37835700D02*
X-34716200Y36335700D01*
X-34716200Y36335700D02*
X-30294018Y36335700D01*
X-30294018Y36335700D02*
X-26841200Y32882882D01*
X-26841200Y32882882D02*
X-26841200Y31348200D01*
X-36271200Y37835700D02*
X-36216200Y37835700D01*
%TO.N,Net-(U2-A3)*%
X-40416200Y36523200D02*
X-39678700Y35785700D01*
X-39678700Y35785700D02*
X-30521836Y35785700D01*
X-30521836Y35785700D02*
X-27491200Y32755064D01*
X-27491200Y32755064D02*
X-27491200Y31348200D01*
%TO.N,Net-(U2-A4)*%
X-44316200Y36523200D02*
X-42927203Y35134203D01*
X-42927203Y35134203D02*
X-30648157Y35134203D01*
X-28141200Y32627246D02*
X-28141200Y31348200D01*
X-30648157Y35134203D02*
X-28141200Y32627246D01*
%TO.N,Net-(U2-A5)*%
X-30876474Y34584702D02*
X-28791200Y32499428D01*
X-45077702Y34584702D02*
X-30876474Y34584702D01*
X-47016200Y36523200D02*
X-45077702Y34584702D01*
X-28791200Y32499428D02*
X-28791200Y31348200D01*
%TO.N,Net-(U2-A6)*%
X-45305519Y34034702D02*
X-31104292Y34034702D01*
X-49216200Y36523200D02*
X-46728201Y34035201D01*
X-45306019Y34035201D02*
X-45305519Y34034702D01*
X-31104292Y34034702D02*
X-29441200Y32371610D01*
X-29441200Y32371610D02*
X-29441200Y31348200D01*
X-46728201Y34035201D02*
X-45306019Y34035201D01*
%TO.N,Net-(U2-A7)*%
X-45533337Y33484701D02*
X-45533837Y33485201D01*
X-31332109Y33484701D02*
X-45533337Y33484701D01*
X-30091200Y32243792D02*
X-31332109Y33484701D01*
X-46956019Y33485201D02*
X-46956518Y33485700D01*
X-48478700Y33485700D02*
X-51516200Y36523200D01*
X-46956518Y33485700D02*
X-48478700Y33485700D01*
X-45533837Y33485201D02*
X-46956019Y33485201D01*
X-30091200Y31348200D02*
X-30091200Y32243792D01*
%TO.N,Net-(U1-Y7)*%
X-94216200Y22925700D02*
X-91426200Y22925700D01*
X-89951200Y24400700D02*
X-89951200Y25623200D01*
X-97256200Y22085700D02*
X-95056200Y22085700D01*
X-98446200Y20895700D02*
X-97256200Y22085700D01*
X-95056200Y22085700D02*
X-94216200Y22925700D01*
X-98471200Y20895700D02*
X-98446200Y20895700D01*
X-91426200Y22925700D02*
X-89951200Y24400700D01*
%TO.N,Net-(U1-Y6)*%
X-94911200Y20980700D02*
X-94911200Y20895700D01*
X-93866200Y22025700D02*
X-94911200Y20980700D01*
X-89301200Y25623200D02*
X-89301200Y24020700D01*
X-91296200Y22025700D02*
X-93866200Y22025700D01*
X-89301200Y24020700D02*
X-91296200Y22025700D01*
%TO.N,Net-(U1-Y5)*%
X-88651200Y23670700D02*
X-91426200Y20895700D01*
X-88651200Y25623200D02*
X-88651200Y23670700D01*
X-91426200Y20895700D02*
X-91431200Y20895700D01*
%TO.N,Net-(U1-Y4)*%
X-88001200Y22630700D02*
X-88271200Y22360700D01*
X-88001200Y25623200D02*
X-88001200Y22630700D01*
X-88271200Y22360700D02*
X-88271200Y20895700D01*
%TO.N,Net-(U1-Y3)*%
X-86776200Y20905700D02*
X-86776200Y22055700D01*
X-86766200Y20895700D02*
X-86776200Y20905700D01*
X-86776200Y22055700D02*
X-87351200Y22630700D01*
X-87351200Y22630700D02*
X-87351200Y25623200D01*
%TO.N,Net-(U1-Y2)*%
X-86701200Y24170700D02*
X-86701200Y25623200D01*
X-83076200Y20835700D02*
X-83366200Y20835700D01*
X-83366200Y20835700D02*
X-86701200Y24170700D01*
%TO.N,Net-(U1-Y1)*%
X-86051200Y24320700D02*
X-86051200Y25623200D01*
X-83716200Y21985700D02*
X-86051200Y24320700D01*
X-79221200Y20865700D02*
X-79441200Y20865700D01*
X-79441200Y20865700D02*
X-80561200Y21985700D01*
X-80561200Y21985700D02*
X-83716200Y21985700D01*
%TO.N,Net-(U2-Y7)*%
X-30741200Y25623200D02*
X-30741200Y24320700D01*
X-31706200Y23355700D02*
X-38926200Y23355700D01*
X-30741200Y24320700D02*
X-31706200Y23355700D01*
X-41386200Y20895700D02*
X-42111200Y20895700D01*
X-38926200Y23355700D02*
X-41386200Y20895700D01*
%TO.N,Net-(U2-Y6)*%
X-35386200Y20895700D02*
X-37371200Y20895700D01*
X-30091200Y25623200D02*
X-30091200Y23990700D01*
X-30091200Y23990700D02*
X-31356200Y22725700D01*
X-31356200Y22725700D02*
X-33556200Y22725700D01*
X-33556200Y22725700D02*
X-35386200Y20895700D01*
%TO.N,Net-(U2-Y5)*%
X-29441200Y25623200D02*
X-29441200Y23290700D01*
X-29441200Y23290700D02*
X-31511200Y21220700D01*
X-31511200Y21220700D02*
X-31511200Y20895700D01*
%TO.N,Net-(U2-Y4)*%
X-28791200Y25623200D02*
X-28791200Y22350700D01*
X-29036200Y22105700D02*
X-29036200Y21435700D01*
X-29031200Y21430700D02*
X-29031200Y20895700D01*
X-28791200Y22350700D02*
X-29036200Y22105700D01*
X-29036200Y21435700D02*
X-29031200Y21430700D01*
%TO.N,Net-(U2-Y3)*%
X-25931200Y21180700D02*
X-25931200Y20895700D01*
X-28141200Y23390700D02*
X-25931200Y21180700D01*
X-28141200Y25623200D02*
X-28141200Y23390700D01*
%TO.N,Net-(U2-Y2)*%
X-27491200Y23815065D02*
X-25691835Y22015700D01*
X-22801200Y21170700D02*
X-22801200Y20895700D01*
X-27491200Y25623200D02*
X-27491200Y23815065D01*
X-23646200Y22015700D02*
X-22801200Y21170700D01*
X-25691835Y22015700D02*
X-23646200Y22015700D01*
%TO.N,Net-(U2-Y1)*%
X-19531200Y21470700D02*
X-19531200Y20895700D01*
X-25484018Y22605700D02*
X-20666200Y22605700D01*
X-26841200Y23962882D02*
X-25484018Y22605700D01*
X-20666200Y22605700D02*
X-19531200Y21470700D01*
X-26841200Y25623200D02*
X-26841200Y23962882D01*
%TO.N,Net-(U2-Y0)*%
X-18466200Y23185700D02*
X-16176200Y20895700D01*
X-25196200Y23185700D02*
X-18466200Y23185700D01*
X-16176200Y20895700D02*
X-16076200Y20895700D01*
X-26191200Y24180700D02*
X-25196200Y23185700D01*
X-26191200Y25623200D02*
X-26191200Y24180700D01*
%TD*%
%TA.AperFunction,Conductor*%
%TO.N,VIN1*%
G36*
X-111802924Y-10623890D02*
G01*
X-111659019Y-10683498D01*
X-111405716Y-10751371D01*
X-111283749Y-10767427D01*
X-111283748Y-10767428D01*
X-111259082Y-10770675D01*
X-111145720Y-10785600D01*
X-110809853Y-10785600D01*
X-110806137Y-10786691D01*
X-110802363Y-10785823D01*
X-110772344Y-10796613D01*
X-110741732Y-10805602D01*
X-110738137Y-10808909D01*
X-110735551Y-10809839D01*
X-110709894Y-10834892D01*
X-110694359Y-10855137D01*
X-110677912Y-10883623D01*
X-110639858Y-10975494D01*
X-110631345Y-11007265D01*
X-110617278Y-11114111D01*
X-110616200Y-11130558D01*
X-110616200Y-14514300D01*
X-57832637Y-14514300D01*
X-57816192Y-14515378D01*
X-57795592Y-14518089D01*
X-57709344Y-14529444D01*
X-57677584Y-14537954D01*
X-57585708Y-14576009D01*
X-57557226Y-14592453D01*
X-57478337Y-14652984D01*
X-57455078Y-14676242D01*
X-57394543Y-14755129D01*
X-57378097Y-14783613D01*
X-57340042Y-14875478D01*
X-57331528Y-14907249D01*
X-57317458Y-15014088D01*
X-57316379Y-15030534D01*
X-57316022Y-23498018D01*
X-57317099Y-23514464D01*
X-57331162Y-23621318D01*
X-57339675Y-23653092D01*
X-57377725Y-23744960D01*
X-57394170Y-23773446D01*
X-57454705Y-23852341D01*
X-57477965Y-23875602D01*
X-57556857Y-23936139D01*
X-57585341Y-23952585D01*
X-57606464Y-23961334D01*
X-57649614Y-23979208D01*
X-57697831Y-23988800D01*
X-119234390Y-23988800D01*
X-119242700Y-23987147D01*
X-119247859Y-23988078D01*
X-119282606Y-23979209D01*
X-119346878Y-23952587D01*
X-119375361Y-23936142D01*
X-119386099Y-23927902D01*
X-119454254Y-23875605D01*
X-119477506Y-23852353D01*
X-119538044Y-23773458D01*
X-119554487Y-23744979D01*
X-119592545Y-23653099D01*
X-119601055Y-23621337D01*
X-119615122Y-23514487D01*
X-119616200Y-23498041D01*
X-119616200Y-20571969D01*
X-108332100Y-20571969D01*
X-108332100Y-20798230D01*
X-108296703Y-21021718D01*
X-108226784Y-21236906D01*
X-108202052Y-21285444D01*
X-107713522Y-20796914D01*
X-107687896Y-20925744D01*
X-107625706Y-21075884D01*
X-107535419Y-21211007D01*
X-107420507Y-21325919D01*
X-107285384Y-21416206D01*
X-107135244Y-21478396D01*
X-107006416Y-21504021D01*
X-107494946Y-21992550D01*
X-107446409Y-22017282D01*
X-107231219Y-22087202D01*
X-107007731Y-22122600D01*
X-106781469Y-22122600D01*
X-106557982Y-22087202D01*
X-106342789Y-22017281D01*
X-106294255Y-21992551D01*
X-106294255Y-21992550D01*
X-106782784Y-21504021D01*
X-106653956Y-21478396D01*
X-106503816Y-21416206D01*
X-106368693Y-21325919D01*
X-106253781Y-21211007D01*
X-106163494Y-21075884D01*
X-106101304Y-20925744D01*
X-106075679Y-20796916D01*
X-105587150Y-21285445D01*
X-105587149Y-21285445D01*
X-105562419Y-21236911D01*
X-105492498Y-21021718D01*
X-105457100Y-20798230D01*
X-105457100Y-20586969D01*
X-101631667Y-20586969D01*
X-101631667Y-20813230D01*
X-101596270Y-21036718D01*
X-101526351Y-21251906D01*
X-101501619Y-21300444D01*
X-101013089Y-20811914D01*
X-100987463Y-20940744D01*
X-100925273Y-21090884D01*
X-100834986Y-21226007D01*
X-100720074Y-21340919D01*
X-100584951Y-21431206D01*
X-100434811Y-21493396D01*
X-100305983Y-21519021D01*
X-100794513Y-22007550D01*
X-100745976Y-22032282D01*
X-100530786Y-22102202D01*
X-100307298Y-22137600D01*
X-100081036Y-22137600D01*
X-99857549Y-22102202D01*
X-99642356Y-22032281D01*
X-99593822Y-22007551D01*
X-99593822Y-22007550D01*
X-100082351Y-21519021D01*
X-99953523Y-21493396D01*
X-99803383Y-21431206D01*
X-99668260Y-21340919D01*
X-99553348Y-21226007D01*
X-99463061Y-21090884D01*
X-99400871Y-20940744D01*
X-99375246Y-20811916D01*
X-98886717Y-21300445D01*
X-98886716Y-21300445D01*
X-98861986Y-21251911D01*
X-98792065Y-21036718D01*
X-98756667Y-20813230D01*
X-98756667Y-20586969D01*
X-94931234Y-20586969D01*
X-94931234Y-20813230D01*
X-94895837Y-21036718D01*
X-94825918Y-21251906D01*
X-94801186Y-21300444D01*
X-94312656Y-20811914D01*
X-94287030Y-20940744D01*
X-94224840Y-21090884D01*
X-94134553Y-21226007D01*
X-94019641Y-21340919D01*
X-93884518Y-21431206D01*
X-93734378Y-21493396D01*
X-93605550Y-21519021D01*
X-94094080Y-22007550D01*
X-94045543Y-22032282D01*
X-93830353Y-22102202D01*
X-93606865Y-22137600D01*
X-93380603Y-22137600D01*
X-93157116Y-22102202D01*
X-92941923Y-22032281D01*
X-92893389Y-22007551D01*
X-92893389Y-22007550D01*
X-93381918Y-21519021D01*
X-93253090Y-21493396D01*
X-93102950Y-21431206D01*
X-92967827Y-21340919D01*
X-92852915Y-21226007D01*
X-92762628Y-21090884D01*
X-92700438Y-20940744D01*
X-92674813Y-20811916D01*
X-92186284Y-21300445D01*
X-92186283Y-21300445D01*
X-92161553Y-21251911D01*
X-92091632Y-21036718D01*
X-92056234Y-20813230D01*
X-92056234Y-20586969D01*
X-88230801Y-20586969D01*
X-88230801Y-20813230D01*
X-88195404Y-21036718D01*
X-88125485Y-21251906D01*
X-88100753Y-21300444D01*
X-87612223Y-20811914D01*
X-87586597Y-20940744D01*
X-87524407Y-21090884D01*
X-87434120Y-21226007D01*
X-87319208Y-21340919D01*
X-87184085Y-21431206D01*
X-87033945Y-21493396D01*
X-86905117Y-21519021D01*
X-87393647Y-22007550D01*
X-87345110Y-22032282D01*
X-87129920Y-22102202D01*
X-86906432Y-22137600D01*
X-86680170Y-22137600D01*
X-86456683Y-22102202D01*
X-86241490Y-22032281D01*
X-86192956Y-22007551D01*
X-86192956Y-22007550D01*
X-86681485Y-21519021D01*
X-86552657Y-21493396D01*
X-86402517Y-21431206D01*
X-86267394Y-21340919D01*
X-86152482Y-21226007D01*
X-86062195Y-21090884D01*
X-86000005Y-20940744D01*
X-85974380Y-20811916D01*
X-85485851Y-21300445D01*
X-85485850Y-21300445D01*
X-85461120Y-21251911D01*
X-85391199Y-21036718D01*
X-85355801Y-20813230D01*
X-85355801Y-20586976D01*
X-85355803Y-20586961D01*
X-85356594Y-20581969D01*
X-81530368Y-20581969D01*
X-81530368Y-20808230D01*
X-81494971Y-21031718D01*
X-81425052Y-21246906D01*
X-81400320Y-21295444D01*
X-80911790Y-20806914D01*
X-80886164Y-20935744D01*
X-80823974Y-21085884D01*
X-80733687Y-21221007D01*
X-80618775Y-21335919D01*
X-80483652Y-21426206D01*
X-80333512Y-21488396D01*
X-80204684Y-21514021D01*
X-80693214Y-22002550D01*
X-80644677Y-22027282D01*
X-80429487Y-22097202D01*
X-80205999Y-22132600D01*
X-79979737Y-22132600D01*
X-79756250Y-22097202D01*
X-79541057Y-22027281D01*
X-79492523Y-22002551D01*
X-79492523Y-22002550D01*
X-79981052Y-21514021D01*
X-79852224Y-21488396D01*
X-79702084Y-21426206D01*
X-79566961Y-21335919D01*
X-79452049Y-21221007D01*
X-79361762Y-21085884D01*
X-79299572Y-20935744D01*
X-79273947Y-20806916D01*
X-78785418Y-21295445D01*
X-78785417Y-21295445D01*
X-78760687Y-21246911D01*
X-78690766Y-21031718D01*
X-78655368Y-20808230D01*
X-78655368Y-20581969D01*
X-74829935Y-20581969D01*
X-74829935Y-20808230D01*
X-74794538Y-21031718D01*
X-74724619Y-21246906D01*
X-74699887Y-21295444D01*
X-74211357Y-20806914D01*
X-74185731Y-20935744D01*
X-74123541Y-21085884D01*
X-74033254Y-21221007D01*
X-73918342Y-21335919D01*
X-73783219Y-21426206D01*
X-73633079Y-21488396D01*
X-73504251Y-21514021D01*
X-73992781Y-22002550D01*
X-73944244Y-22027282D01*
X-73729054Y-22097202D01*
X-73505566Y-22132600D01*
X-73279304Y-22132600D01*
X-73055817Y-22097202D01*
X-72840624Y-22027281D01*
X-72792090Y-22002551D01*
X-72792090Y-22002550D01*
X-73280619Y-21514021D01*
X-73151791Y-21488396D01*
X-73001651Y-21426206D01*
X-72866528Y-21335919D01*
X-72751616Y-21221007D01*
X-72661329Y-21085884D01*
X-72599139Y-20935744D01*
X-72573514Y-20806916D01*
X-72084985Y-21295445D01*
X-72084984Y-21295445D01*
X-72060254Y-21246911D01*
X-71990333Y-21031718D01*
X-71954935Y-20808230D01*
X-71954935Y-20581969D01*
X-68129502Y-20581969D01*
X-68129502Y-20808230D01*
X-68094105Y-21031718D01*
X-68024186Y-21246906D01*
X-67999454Y-21295444D01*
X-67510924Y-20806914D01*
X-67485298Y-20935744D01*
X-67423108Y-21085884D01*
X-67332821Y-21221007D01*
X-67217909Y-21335919D01*
X-67082786Y-21426206D01*
X-66932646Y-21488396D01*
X-66803818Y-21514021D01*
X-67292348Y-22002550D01*
X-67243811Y-22027282D01*
X-67028621Y-22097202D01*
X-66805133Y-22132600D01*
X-66578871Y-22132600D01*
X-66355384Y-22097202D01*
X-66140191Y-22027281D01*
X-66091657Y-22002551D01*
X-66091657Y-22002550D01*
X-66580186Y-21514021D01*
X-66451358Y-21488396D01*
X-66301218Y-21426206D01*
X-66166095Y-21335919D01*
X-66051183Y-21221007D01*
X-65960896Y-21085884D01*
X-65898706Y-20935744D01*
X-65873081Y-20806916D01*
X-65384552Y-21295445D01*
X-65384551Y-21295445D01*
X-65359821Y-21246911D01*
X-65289900Y-21031718D01*
X-65254502Y-20808230D01*
X-65254502Y-20581969D01*
X-61429069Y-20581969D01*
X-61429069Y-20808230D01*
X-61393672Y-21031718D01*
X-61323753Y-21246906D01*
X-61299021Y-21295444D01*
X-60810491Y-20806914D01*
X-60784865Y-20935744D01*
X-60722675Y-21085884D01*
X-60632388Y-21221007D01*
X-60517476Y-21335919D01*
X-60382353Y-21426206D01*
X-60232213Y-21488396D01*
X-60103385Y-21514021D01*
X-60591915Y-22002550D01*
X-60543378Y-22027282D01*
X-60328188Y-22097202D01*
X-60104700Y-22132600D01*
X-59878438Y-22132600D01*
X-59654951Y-22097202D01*
X-59439758Y-22027281D01*
X-59391224Y-22002551D01*
X-59391224Y-22002550D01*
X-59879753Y-21514021D01*
X-59750925Y-21488396D01*
X-59600785Y-21426206D01*
X-59465662Y-21335919D01*
X-59350750Y-21221007D01*
X-59260463Y-21085884D01*
X-59198273Y-20935744D01*
X-59172648Y-20806916D01*
X-58684119Y-21295445D01*
X-58684118Y-21295445D01*
X-58659388Y-21246911D01*
X-58589467Y-21031718D01*
X-58554069Y-20808230D01*
X-58554069Y-20581969D01*
X-58589467Y-20358481D01*
X-58659387Y-20143291D01*
X-58659387Y-20143290D01*
X-58684119Y-20094754D01*
X-59172648Y-20583283D01*
X-59198273Y-20454456D01*
X-59260463Y-20304316D01*
X-59350750Y-20169193D01*
X-59465662Y-20054281D01*
X-59600785Y-19963994D01*
X-59750925Y-19901804D01*
X-59879755Y-19876178D01*
X-59391225Y-19387648D01*
X-59439763Y-19362916D01*
X-59654951Y-19292997D01*
X-59878438Y-19257600D01*
X-60104700Y-19257600D01*
X-60328188Y-19292997D01*
X-60543381Y-19362918D01*
X-60591915Y-19387647D01*
X-60591915Y-19387649D01*
X-60103386Y-19876178D01*
X-60232213Y-19901804D01*
X-60382353Y-19963994D01*
X-60517476Y-20054281D01*
X-60632388Y-20169193D01*
X-60722675Y-20304316D01*
X-60784865Y-20454456D01*
X-60810491Y-20583283D01*
X-61299020Y-20094754D01*
X-61299022Y-20094754D01*
X-61323751Y-20143288D01*
X-61393672Y-20358481D01*
X-61429069Y-20581969D01*
X-65254502Y-20581969D01*
X-65289900Y-20358481D01*
X-65359820Y-20143291D01*
X-65359820Y-20143290D01*
X-65384552Y-20094754D01*
X-65873081Y-20583283D01*
X-65898706Y-20454456D01*
X-65960896Y-20304316D01*
X-66051183Y-20169193D01*
X-66166095Y-20054281D01*
X-66301218Y-19963994D01*
X-66451358Y-19901804D01*
X-66580188Y-19876178D01*
X-66091658Y-19387648D01*
X-66140196Y-19362916D01*
X-66355384Y-19292997D01*
X-66578871Y-19257600D01*
X-66805133Y-19257600D01*
X-67028621Y-19292997D01*
X-67243814Y-19362918D01*
X-67292348Y-19387647D01*
X-67292348Y-19387649D01*
X-66803819Y-19876178D01*
X-66932646Y-19901804D01*
X-67082786Y-19963994D01*
X-67217909Y-20054281D01*
X-67332821Y-20169193D01*
X-67423108Y-20304316D01*
X-67485298Y-20454456D01*
X-67510924Y-20583283D01*
X-67999453Y-20094754D01*
X-67999455Y-20094754D01*
X-68024184Y-20143288D01*
X-68094105Y-20358481D01*
X-68129502Y-20581969D01*
X-71954935Y-20581969D01*
X-71990333Y-20358481D01*
X-72060253Y-20143291D01*
X-72060253Y-20143290D01*
X-72084985Y-20094754D01*
X-72573514Y-20583283D01*
X-72599139Y-20454456D01*
X-72661329Y-20304316D01*
X-72751616Y-20169193D01*
X-72866528Y-20054281D01*
X-73001651Y-19963994D01*
X-73151791Y-19901804D01*
X-73280621Y-19876178D01*
X-72792091Y-19387648D01*
X-72840629Y-19362916D01*
X-73055817Y-19292997D01*
X-73279304Y-19257600D01*
X-73505566Y-19257600D01*
X-73729054Y-19292997D01*
X-73944247Y-19362918D01*
X-73992781Y-19387647D01*
X-73992781Y-19387649D01*
X-73504252Y-19876178D01*
X-73633079Y-19901804D01*
X-73783219Y-19963994D01*
X-73918342Y-20054281D01*
X-74033254Y-20169193D01*
X-74123541Y-20304316D01*
X-74185731Y-20454456D01*
X-74211357Y-20583283D01*
X-74699886Y-20094754D01*
X-74699888Y-20094754D01*
X-74724617Y-20143288D01*
X-74794538Y-20358481D01*
X-74829935Y-20581969D01*
X-78655368Y-20581969D01*
X-78690766Y-20358481D01*
X-78760686Y-20143291D01*
X-78760686Y-20143290D01*
X-78785418Y-20094754D01*
X-79273947Y-20583283D01*
X-79299572Y-20454456D01*
X-79361762Y-20304316D01*
X-79452049Y-20169193D01*
X-79566961Y-20054281D01*
X-79702084Y-19963994D01*
X-79852224Y-19901804D01*
X-79981054Y-19876178D01*
X-79492524Y-19387648D01*
X-79541062Y-19362916D01*
X-79756250Y-19292997D01*
X-79979737Y-19257600D01*
X-80205999Y-19257600D01*
X-80429487Y-19292997D01*
X-80644680Y-19362918D01*
X-80693214Y-19387647D01*
X-80693214Y-19387649D01*
X-80204685Y-19876178D01*
X-80333512Y-19901804D01*
X-80483652Y-19963994D01*
X-80618775Y-20054281D01*
X-80733687Y-20169193D01*
X-80823974Y-20304316D01*
X-80886164Y-20454456D01*
X-80911790Y-20583283D01*
X-81400319Y-20094754D01*
X-81400321Y-20094754D01*
X-81425050Y-20143288D01*
X-81494971Y-20358481D01*
X-81530368Y-20581969D01*
X-85356594Y-20581969D01*
X-85391199Y-20363481D01*
X-85461119Y-20148291D01*
X-85461119Y-20148290D01*
X-85485851Y-20099754D01*
X-85974380Y-20588283D01*
X-86000005Y-20459456D01*
X-86062195Y-20309316D01*
X-86152482Y-20174193D01*
X-86267394Y-20059281D01*
X-86402517Y-19968994D01*
X-86552657Y-19906804D01*
X-86681487Y-19881178D01*
X-86192957Y-19392648D01*
X-86241495Y-19367916D01*
X-86456683Y-19297997D01*
X-86680170Y-19262600D01*
X-86906432Y-19262600D01*
X-87129920Y-19297997D01*
X-87345113Y-19367918D01*
X-87393647Y-19392647D01*
X-87393647Y-19392649D01*
X-86905118Y-19881178D01*
X-87033945Y-19906804D01*
X-87184085Y-19968994D01*
X-87319208Y-20059281D01*
X-87434120Y-20174193D01*
X-87524407Y-20309316D01*
X-87586597Y-20459456D01*
X-87612223Y-20588283D01*
X-88100752Y-20099754D01*
X-88100754Y-20099754D01*
X-88125483Y-20148288D01*
X-88195404Y-20363481D01*
X-88230801Y-20586969D01*
X-92056234Y-20586969D01*
X-92091632Y-20363481D01*
X-92161552Y-20148291D01*
X-92161552Y-20148290D01*
X-92186284Y-20099754D01*
X-92674813Y-20588283D01*
X-92700438Y-20459456D01*
X-92762628Y-20309316D01*
X-92852915Y-20174193D01*
X-92967827Y-20059281D01*
X-93102950Y-19968994D01*
X-93253090Y-19906804D01*
X-93381920Y-19881178D01*
X-92893390Y-19392648D01*
X-92941928Y-19367916D01*
X-93157116Y-19297997D01*
X-93380603Y-19262600D01*
X-93606865Y-19262600D01*
X-93830353Y-19297997D01*
X-94045546Y-19367918D01*
X-94094080Y-19392647D01*
X-94094080Y-19392649D01*
X-93605551Y-19881178D01*
X-93734378Y-19906804D01*
X-93884518Y-19968994D01*
X-94019641Y-20059281D01*
X-94134553Y-20174193D01*
X-94224840Y-20309316D01*
X-94287030Y-20459456D01*
X-94312656Y-20588283D01*
X-94801185Y-20099754D01*
X-94801187Y-20099754D01*
X-94825916Y-20148288D01*
X-94895837Y-20363481D01*
X-94931234Y-20586969D01*
X-98756667Y-20586969D01*
X-98792065Y-20363481D01*
X-98861985Y-20148291D01*
X-98861985Y-20148290D01*
X-98886717Y-20099754D01*
X-99375246Y-20588283D01*
X-99400871Y-20459456D01*
X-99463061Y-20309316D01*
X-99553348Y-20174193D01*
X-99668260Y-20059281D01*
X-99803383Y-19968994D01*
X-99953523Y-19906804D01*
X-100082353Y-19881178D01*
X-99593823Y-19392648D01*
X-99642361Y-19367916D01*
X-99857549Y-19297997D01*
X-100081036Y-19262600D01*
X-100307298Y-19262600D01*
X-100530786Y-19297997D01*
X-100745979Y-19367918D01*
X-100794513Y-19392647D01*
X-100794513Y-19392649D01*
X-100305984Y-19881178D01*
X-100434811Y-19906804D01*
X-100584951Y-19968994D01*
X-100720074Y-20059281D01*
X-100834986Y-20174193D01*
X-100925273Y-20309316D01*
X-100987463Y-20459456D01*
X-101013089Y-20588283D01*
X-101501618Y-20099754D01*
X-101501620Y-20099754D01*
X-101526349Y-20148288D01*
X-101596270Y-20363481D01*
X-101631667Y-20586969D01*
X-105457100Y-20586969D01*
X-105457100Y-20571969D01*
X-105492498Y-20348481D01*
X-105562418Y-20133291D01*
X-105562418Y-20133290D01*
X-105587150Y-20084754D01*
X-106075679Y-20573283D01*
X-106101304Y-20444456D01*
X-106163494Y-20294316D01*
X-106253781Y-20159193D01*
X-106368693Y-20044281D01*
X-106503816Y-19953994D01*
X-106653956Y-19891804D01*
X-106782786Y-19866178D01*
X-106294256Y-19377648D01*
X-106342794Y-19352916D01*
X-106557982Y-19282997D01*
X-106781469Y-19247600D01*
X-107007731Y-19247600D01*
X-107231219Y-19282997D01*
X-107446412Y-19352918D01*
X-107494946Y-19377647D01*
X-107494946Y-19377649D01*
X-107006417Y-19866178D01*
X-107135244Y-19891804D01*
X-107285384Y-19953994D01*
X-107420507Y-20044281D01*
X-107535419Y-20159193D01*
X-107625706Y-20294316D01*
X-107687896Y-20444456D01*
X-107713522Y-20573283D01*
X-108202051Y-20084754D01*
X-108202053Y-20084754D01*
X-108226782Y-20133288D01*
X-108296703Y-20348481D01*
X-108332100Y-20571969D01*
X-119616200Y-20571969D01*
X-119616200Y-13894598D01*
X-117716200Y-13894598D01*
X-117716200Y-15414300D01*
X-116204397Y-15414300D01*
X-116269460Y-15511674D01*
X-116333535Y-15666364D01*
X-116366200Y-15830582D01*
X-116366200Y-15998018D01*
X-116333535Y-16162236D01*
X-116269460Y-16316926D01*
X-116204397Y-16414300D01*
X-117716200Y-16414300D01*
X-117716200Y-17934001D01*
X-117704596Y-17992336D01*
X-117660393Y-18058492D01*
X-117594237Y-18102695D01*
X-117535902Y-18114299D01*
X-117535897Y-18114300D01*
X-116016200Y-18114300D01*
X-116016200Y-16602497D01*
X-115918826Y-16667560D01*
X-115764136Y-16731635D01*
X-115599918Y-16764300D01*
X-115432482Y-16764300D01*
X-115268264Y-16731635D01*
X-115113574Y-16667560D01*
X-115016200Y-16602497D01*
X-115016200Y-18114300D01*
X-113496503Y-18114300D01*
X-113496499Y-18114299D01*
X-113438164Y-18102695D01*
X-113372008Y-18058492D01*
X-113327805Y-17992336D01*
X-113316201Y-17934001D01*
X-113316200Y-17933996D01*
X-113316200Y-16871969D01*
X-108332100Y-16871969D01*
X-108332100Y-17098230D01*
X-108296703Y-17321718D01*
X-108226784Y-17536906D01*
X-108202052Y-17585444D01*
X-107713522Y-17096914D01*
X-107687896Y-17225744D01*
X-107625706Y-17375884D01*
X-107535419Y-17511007D01*
X-107420507Y-17625919D01*
X-107285384Y-17716206D01*
X-107135244Y-17778396D01*
X-107006416Y-17804021D01*
X-107494946Y-18292550D01*
X-107446409Y-18317282D01*
X-107231219Y-18387202D01*
X-107007731Y-18422600D01*
X-106781469Y-18422600D01*
X-106557982Y-18387202D01*
X-106342789Y-18317281D01*
X-106294255Y-18292551D01*
X-106294255Y-18292550D01*
X-106782784Y-17804021D01*
X-106653956Y-17778396D01*
X-106503816Y-17716206D01*
X-106368693Y-17625919D01*
X-106253781Y-17511007D01*
X-106163494Y-17375884D01*
X-106101304Y-17225744D01*
X-106075679Y-17096916D01*
X-105587150Y-17585445D01*
X-105587149Y-17585445D01*
X-105562419Y-17536911D01*
X-105492498Y-17321718D01*
X-105457100Y-17098230D01*
X-105457100Y-16886969D01*
X-101631667Y-16886969D01*
X-101631667Y-17113230D01*
X-101596270Y-17336718D01*
X-101526351Y-17551906D01*
X-101501619Y-17600444D01*
X-101013089Y-17111914D01*
X-100987463Y-17240744D01*
X-100925273Y-17390884D01*
X-100834986Y-17526007D01*
X-100720074Y-17640919D01*
X-100584951Y-17731206D01*
X-100434811Y-17793396D01*
X-100305983Y-17819021D01*
X-100794513Y-18307550D01*
X-100745976Y-18332282D01*
X-100530786Y-18402202D01*
X-100307298Y-18437600D01*
X-100081036Y-18437600D01*
X-99857549Y-18402202D01*
X-99642356Y-18332281D01*
X-99593822Y-18307551D01*
X-99593822Y-18307550D01*
X-100082351Y-17819021D01*
X-99953523Y-17793396D01*
X-99803383Y-17731206D01*
X-99668260Y-17640919D01*
X-99553348Y-17526007D01*
X-99463061Y-17390884D01*
X-99400871Y-17240744D01*
X-99375246Y-17111916D01*
X-98886717Y-17600445D01*
X-98886716Y-17600445D01*
X-98861986Y-17551911D01*
X-98792065Y-17336718D01*
X-98756667Y-17113230D01*
X-98756667Y-16886969D01*
X-94931234Y-16886969D01*
X-94931234Y-17113230D01*
X-94895837Y-17336718D01*
X-94825918Y-17551906D01*
X-94801186Y-17600444D01*
X-94312656Y-17111914D01*
X-94287030Y-17240744D01*
X-94224840Y-17390884D01*
X-94134553Y-17526007D01*
X-94019641Y-17640919D01*
X-93884518Y-17731206D01*
X-93734378Y-17793396D01*
X-93605550Y-17819021D01*
X-94094080Y-18307550D01*
X-94045543Y-18332282D01*
X-93830353Y-18402202D01*
X-93606865Y-18437600D01*
X-93380603Y-18437600D01*
X-93157116Y-18402202D01*
X-92941923Y-18332281D01*
X-92893389Y-18307551D01*
X-92893389Y-18307550D01*
X-93381918Y-17819021D01*
X-93253090Y-17793396D01*
X-93102950Y-17731206D01*
X-92967827Y-17640919D01*
X-92852915Y-17526007D01*
X-92762628Y-17390884D01*
X-92700438Y-17240744D01*
X-92674813Y-17111916D01*
X-92186284Y-17600445D01*
X-92186283Y-17600445D01*
X-92161553Y-17551911D01*
X-92091632Y-17336718D01*
X-92056234Y-17113230D01*
X-92056234Y-16886969D01*
X-88230801Y-16886969D01*
X-88230801Y-17113230D01*
X-88195404Y-17336718D01*
X-88125485Y-17551906D01*
X-88100753Y-17600444D01*
X-87612223Y-17111914D01*
X-87586597Y-17240744D01*
X-87524407Y-17390884D01*
X-87434120Y-17526007D01*
X-87319208Y-17640919D01*
X-87184085Y-17731206D01*
X-87033945Y-17793396D01*
X-86905117Y-17819021D01*
X-87393647Y-18307550D01*
X-87345110Y-18332282D01*
X-87129920Y-18402202D01*
X-86906432Y-18437600D01*
X-86680170Y-18437600D01*
X-86456683Y-18402202D01*
X-86241490Y-18332281D01*
X-86192956Y-18307551D01*
X-86192956Y-18307550D01*
X-86681485Y-17819021D01*
X-86552657Y-17793396D01*
X-86402517Y-17731206D01*
X-86267394Y-17640919D01*
X-86152482Y-17526007D01*
X-86062195Y-17390884D01*
X-86000005Y-17240744D01*
X-85974380Y-17111916D01*
X-85485851Y-17600445D01*
X-85485850Y-17600445D01*
X-85461120Y-17551911D01*
X-85391199Y-17336718D01*
X-85355801Y-17113230D01*
X-85355801Y-16886976D01*
X-85355803Y-16886961D01*
X-85356594Y-16881969D01*
X-81530368Y-16881969D01*
X-81530368Y-17108230D01*
X-81494971Y-17331718D01*
X-81425052Y-17546906D01*
X-81400320Y-17595444D01*
X-80911790Y-17106914D01*
X-80886164Y-17235744D01*
X-80823974Y-17385884D01*
X-80733687Y-17521007D01*
X-80618775Y-17635919D01*
X-80483652Y-17726206D01*
X-80333512Y-17788396D01*
X-80204684Y-17814021D01*
X-80693214Y-18302550D01*
X-80644677Y-18327282D01*
X-80429487Y-18397202D01*
X-80205999Y-18432600D01*
X-79979737Y-18432600D01*
X-79756250Y-18397202D01*
X-79541057Y-18327281D01*
X-79492523Y-18302551D01*
X-79492523Y-18302550D01*
X-79981052Y-17814021D01*
X-79852224Y-17788396D01*
X-79702084Y-17726206D01*
X-79566961Y-17635919D01*
X-79452049Y-17521007D01*
X-79361762Y-17385884D01*
X-79299572Y-17235744D01*
X-79273947Y-17106916D01*
X-78785418Y-17595445D01*
X-78785417Y-17595445D01*
X-78760687Y-17546911D01*
X-78690766Y-17331718D01*
X-78655368Y-17108230D01*
X-78655368Y-16881969D01*
X-74829935Y-16881969D01*
X-74829935Y-17108230D01*
X-74794538Y-17331718D01*
X-74724619Y-17546906D01*
X-74699887Y-17595444D01*
X-74211357Y-17106914D01*
X-74185731Y-17235744D01*
X-74123541Y-17385884D01*
X-74033254Y-17521007D01*
X-73918342Y-17635919D01*
X-73783219Y-17726206D01*
X-73633079Y-17788396D01*
X-73504251Y-17814021D01*
X-73992781Y-18302550D01*
X-73944244Y-18327282D01*
X-73729054Y-18397202D01*
X-73505566Y-18432600D01*
X-73279304Y-18432600D01*
X-73055817Y-18397202D01*
X-72840624Y-18327281D01*
X-72792090Y-18302551D01*
X-72792090Y-18302550D01*
X-73280619Y-17814021D01*
X-73151791Y-17788396D01*
X-73001651Y-17726206D01*
X-72866528Y-17635919D01*
X-72751616Y-17521007D01*
X-72661329Y-17385884D01*
X-72599139Y-17235744D01*
X-72573514Y-17106916D01*
X-72084985Y-17595445D01*
X-72084984Y-17595445D01*
X-72060254Y-17546911D01*
X-71990333Y-17331718D01*
X-71954935Y-17108230D01*
X-71954935Y-16881969D01*
X-68129502Y-16881969D01*
X-68129502Y-17108230D01*
X-68094105Y-17331718D01*
X-68024186Y-17546906D01*
X-67999454Y-17595444D01*
X-67510924Y-17106914D01*
X-67485298Y-17235744D01*
X-67423108Y-17385884D01*
X-67332821Y-17521007D01*
X-67217909Y-17635919D01*
X-67082786Y-17726206D01*
X-66932646Y-17788396D01*
X-66803818Y-17814021D01*
X-67292348Y-18302550D01*
X-67243811Y-18327282D01*
X-67028621Y-18397202D01*
X-66805133Y-18432600D01*
X-66578871Y-18432600D01*
X-66355384Y-18397202D01*
X-66140191Y-18327281D01*
X-66091657Y-18302551D01*
X-66091657Y-18302550D01*
X-66580186Y-17814021D01*
X-66451358Y-17788396D01*
X-66301218Y-17726206D01*
X-66166095Y-17635919D01*
X-66051183Y-17521007D01*
X-65960896Y-17385884D01*
X-65898706Y-17235744D01*
X-65873081Y-17106916D01*
X-65384552Y-17595445D01*
X-65384551Y-17595445D01*
X-65359821Y-17546911D01*
X-65289900Y-17331718D01*
X-65254502Y-17108230D01*
X-65254502Y-16881969D01*
X-61429069Y-16881969D01*
X-61429069Y-17108230D01*
X-61393672Y-17331718D01*
X-61323753Y-17546906D01*
X-61299021Y-17595444D01*
X-60810491Y-17106914D01*
X-60784865Y-17235744D01*
X-60722675Y-17385884D01*
X-60632388Y-17521007D01*
X-60517476Y-17635919D01*
X-60382353Y-17726206D01*
X-60232213Y-17788396D01*
X-60103385Y-17814021D01*
X-60591915Y-18302550D01*
X-60543378Y-18327282D01*
X-60328188Y-18397202D01*
X-60104700Y-18432600D01*
X-59878438Y-18432600D01*
X-59654951Y-18397202D01*
X-59439758Y-18327281D01*
X-59391224Y-18302551D01*
X-59391224Y-18302550D01*
X-59879753Y-17814021D01*
X-59750925Y-17788396D01*
X-59600785Y-17726206D01*
X-59465662Y-17635919D01*
X-59350750Y-17521007D01*
X-59260463Y-17385884D01*
X-59198273Y-17235744D01*
X-59172648Y-17106916D01*
X-58684119Y-17595445D01*
X-58684118Y-17595445D01*
X-58659388Y-17546911D01*
X-58589467Y-17331718D01*
X-58554069Y-17108230D01*
X-58554069Y-16881969D01*
X-58589467Y-16658481D01*
X-58659387Y-16443291D01*
X-58659387Y-16443290D01*
X-58684119Y-16394754D01*
X-59172648Y-16883283D01*
X-59198273Y-16754456D01*
X-59260463Y-16604316D01*
X-59350750Y-16469193D01*
X-59465662Y-16354281D01*
X-59600785Y-16263994D01*
X-59750925Y-16201804D01*
X-59879755Y-16176178D01*
X-59391225Y-15687648D01*
X-59439763Y-15662916D01*
X-59654951Y-15592997D01*
X-59878438Y-15557600D01*
X-60104700Y-15557600D01*
X-60328188Y-15592997D01*
X-60543381Y-15662918D01*
X-60591915Y-15687647D01*
X-60591915Y-15687649D01*
X-60103386Y-16176178D01*
X-60232213Y-16201804D01*
X-60382353Y-16263994D01*
X-60517476Y-16354281D01*
X-60632388Y-16469193D01*
X-60722675Y-16604316D01*
X-60784865Y-16754456D01*
X-60810491Y-16883283D01*
X-61299020Y-16394754D01*
X-61299022Y-16394754D01*
X-61323751Y-16443288D01*
X-61393672Y-16658481D01*
X-61429069Y-16881969D01*
X-65254502Y-16881969D01*
X-65289900Y-16658481D01*
X-65359820Y-16443291D01*
X-65359820Y-16443290D01*
X-65384552Y-16394754D01*
X-65873081Y-16883283D01*
X-65898706Y-16754456D01*
X-65960896Y-16604316D01*
X-66051183Y-16469193D01*
X-66166095Y-16354281D01*
X-66301218Y-16263994D01*
X-66451358Y-16201804D01*
X-66580188Y-16176178D01*
X-66091658Y-15687648D01*
X-66140196Y-15662916D01*
X-66355384Y-15592997D01*
X-66578871Y-15557600D01*
X-66805133Y-15557600D01*
X-67028621Y-15592997D01*
X-67243814Y-15662918D01*
X-67292348Y-15687647D01*
X-67292348Y-15687649D01*
X-66803819Y-16176178D01*
X-66932646Y-16201804D01*
X-67082786Y-16263994D01*
X-67217909Y-16354281D01*
X-67332821Y-16469193D01*
X-67423108Y-16604316D01*
X-67485298Y-16754456D01*
X-67510924Y-16883283D01*
X-67999453Y-16394754D01*
X-67999455Y-16394754D01*
X-68024184Y-16443288D01*
X-68094105Y-16658481D01*
X-68129502Y-16881969D01*
X-71954935Y-16881969D01*
X-71990333Y-16658481D01*
X-72060253Y-16443291D01*
X-72060253Y-16443290D01*
X-72084985Y-16394754D01*
X-72573514Y-16883283D01*
X-72599139Y-16754456D01*
X-72661329Y-16604316D01*
X-72751616Y-16469193D01*
X-72866528Y-16354281D01*
X-73001651Y-16263994D01*
X-73151791Y-16201804D01*
X-73280621Y-16176178D01*
X-72792091Y-15687648D01*
X-72840629Y-15662916D01*
X-73055817Y-15592997D01*
X-73279304Y-15557600D01*
X-73505566Y-15557600D01*
X-73729054Y-15592997D01*
X-73944247Y-15662918D01*
X-73992781Y-15687647D01*
X-73992781Y-15687649D01*
X-73504252Y-16176178D01*
X-73633079Y-16201804D01*
X-73783219Y-16263994D01*
X-73918342Y-16354281D01*
X-74033254Y-16469193D01*
X-74123541Y-16604316D01*
X-74185731Y-16754456D01*
X-74211357Y-16883283D01*
X-74699886Y-16394754D01*
X-74699888Y-16394754D01*
X-74724617Y-16443288D01*
X-74794538Y-16658481D01*
X-74829935Y-16881969D01*
X-78655368Y-16881969D01*
X-78690766Y-16658481D01*
X-78760686Y-16443291D01*
X-78760686Y-16443290D01*
X-78785418Y-16394754D01*
X-79273947Y-16883283D01*
X-79299572Y-16754456D01*
X-79361762Y-16604316D01*
X-79452049Y-16469193D01*
X-79566961Y-16354281D01*
X-79702084Y-16263994D01*
X-79852224Y-16201804D01*
X-79981054Y-16176178D01*
X-79492524Y-15687648D01*
X-79541062Y-15662916D01*
X-79756250Y-15592997D01*
X-79979737Y-15557600D01*
X-80205999Y-15557600D01*
X-80429487Y-15592997D01*
X-80644680Y-15662918D01*
X-80693214Y-15687647D01*
X-80693214Y-15687649D01*
X-80204685Y-16176178D01*
X-80333512Y-16201804D01*
X-80483652Y-16263994D01*
X-80618775Y-16354281D01*
X-80733687Y-16469193D01*
X-80823974Y-16604316D01*
X-80886164Y-16754456D01*
X-80911790Y-16883283D01*
X-81400319Y-16394754D01*
X-81400321Y-16394754D01*
X-81425050Y-16443288D01*
X-81494971Y-16658481D01*
X-81530368Y-16881969D01*
X-85356594Y-16881969D01*
X-85391199Y-16663481D01*
X-85461119Y-16448291D01*
X-85461119Y-16448290D01*
X-85485851Y-16399754D01*
X-85974380Y-16888283D01*
X-86000005Y-16759456D01*
X-86062195Y-16609316D01*
X-86152482Y-16474193D01*
X-86267394Y-16359281D01*
X-86402517Y-16268994D01*
X-86552657Y-16206804D01*
X-86681487Y-16181178D01*
X-86192957Y-15692648D01*
X-86241495Y-15667916D01*
X-86456683Y-15597997D01*
X-86680170Y-15562600D01*
X-86906432Y-15562600D01*
X-87129920Y-15597997D01*
X-87345113Y-15667918D01*
X-87393647Y-15692647D01*
X-87393647Y-15692649D01*
X-86905118Y-16181178D01*
X-87033945Y-16206804D01*
X-87184085Y-16268994D01*
X-87319208Y-16359281D01*
X-87434120Y-16474193D01*
X-87524407Y-16609316D01*
X-87586597Y-16759456D01*
X-87612223Y-16888283D01*
X-88100752Y-16399754D01*
X-88100754Y-16399754D01*
X-88125483Y-16448288D01*
X-88195404Y-16663481D01*
X-88230801Y-16886969D01*
X-92056234Y-16886969D01*
X-92091632Y-16663481D01*
X-92161552Y-16448291D01*
X-92161552Y-16448290D01*
X-92186284Y-16399754D01*
X-92674813Y-16888283D01*
X-92700438Y-16759456D01*
X-92762628Y-16609316D01*
X-92852915Y-16474193D01*
X-92967827Y-16359281D01*
X-93102950Y-16268994D01*
X-93253090Y-16206804D01*
X-93381920Y-16181178D01*
X-92893390Y-15692648D01*
X-92941928Y-15667916D01*
X-93157116Y-15597997D01*
X-93380603Y-15562600D01*
X-93606865Y-15562600D01*
X-93830353Y-15597997D01*
X-94045546Y-15667918D01*
X-94094080Y-15692647D01*
X-94094080Y-15692649D01*
X-93605551Y-16181178D01*
X-93734378Y-16206804D01*
X-93884518Y-16268994D01*
X-94019641Y-16359281D01*
X-94134553Y-16474193D01*
X-94224840Y-16609316D01*
X-94287030Y-16759456D01*
X-94312656Y-16888283D01*
X-94801185Y-16399754D01*
X-94801187Y-16399754D01*
X-94825916Y-16448288D01*
X-94895837Y-16663481D01*
X-94931234Y-16886969D01*
X-98756667Y-16886969D01*
X-98792065Y-16663481D01*
X-98861985Y-16448291D01*
X-98861985Y-16448290D01*
X-98886717Y-16399754D01*
X-99375246Y-16888283D01*
X-99400871Y-16759456D01*
X-99463061Y-16609316D01*
X-99553348Y-16474193D01*
X-99668260Y-16359281D01*
X-99803383Y-16268994D01*
X-99953523Y-16206804D01*
X-100082353Y-16181178D01*
X-99593823Y-15692648D01*
X-99642361Y-15667916D01*
X-99857549Y-15597997D01*
X-100081036Y-15562600D01*
X-100307298Y-15562600D01*
X-100530786Y-15597997D01*
X-100745979Y-15667918D01*
X-100794513Y-15692647D01*
X-100794513Y-15692649D01*
X-100305984Y-16181178D01*
X-100434811Y-16206804D01*
X-100584951Y-16268994D01*
X-100720074Y-16359281D01*
X-100834986Y-16474193D01*
X-100925273Y-16609316D01*
X-100987463Y-16759456D01*
X-101013089Y-16888283D01*
X-101501618Y-16399754D01*
X-101501620Y-16399754D01*
X-101526349Y-16448288D01*
X-101596270Y-16663481D01*
X-101631667Y-16886969D01*
X-105457100Y-16886969D01*
X-105457100Y-16871969D01*
X-105492498Y-16648481D01*
X-105562418Y-16433291D01*
X-105562418Y-16433290D01*
X-105587150Y-16384754D01*
X-106075679Y-16873283D01*
X-106101304Y-16744456D01*
X-106163494Y-16594316D01*
X-106253781Y-16459193D01*
X-106368693Y-16344281D01*
X-106503816Y-16253994D01*
X-106653956Y-16191804D01*
X-106782786Y-16166178D01*
X-106294256Y-15677648D01*
X-106342794Y-15652916D01*
X-106557982Y-15582997D01*
X-106781469Y-15547600D01*
X-107007731Y-15547600D01*
X-107231219Y-15582997D01*
X-107446412Y-15652918D01*
X-107494946Y-15677647D01*
X-107494946Y-15677649D01*
X-107006417Y-16166178D01*
X-107135244Y-16191804D01*
X-107285384Y-16253994D01*
X-107420507Y-16344281D01*
X-107535419Y-16459193D01*
X-107625706Y-16594316D01*
X-107687896Y-16744456D01*
X-107713522Y-16873283D01*
X-108202051Y-16384754D01*
X-108202053Y-16384754D01*
X-108226782Y-16433288D01*
X-108296703Y-16648481D01*
X-108332100Y-16871969D01*
X-113316200Y-16871969D01*
X-113316200Y-16414300D01*
X-114828003Y-16414300D01*
X-114762940Y-16316926D01*
X-114698865Y-16162236D01*
X-114666200Y-15998018D01*
X-114666200Y-15830582D01*
X-114698865Y-15666364D01*
X-114762940Y-15511674D01*
X-114828003Y-15414300D01*
X-113316200Y-15414300D01*
X-113316200Y-13894603D01*
X-113316201Y-13894598D01*
X-113327805Y-13836263D01*
X-113372008Y-13770107D01*
X-113438164Y-13725904D01*
X-113496499Y-13714300D01*
X-115016200Y-13714300D01*
X-115016200Y-15226102D01*
X-115113574Y-15161040D01*
X-115268264Y-15096965D01*
X-115432482Y-15064300D01*
X-115599918Y-15064300D01*
X-115764136Y-15096965D01*
X-115918826Y-15161040D01*
X-116016200Y-15226102D01*
X-116016200Y-13714300D01*
X-117535902Y-13714300D01*
X-117594237Y-13725904D01*
X-117660393Y-13770107D01*
X-117704596Y-13836263D01*
X-117716200Y-13894598D01*
X-119616200Y-13894598D01*
X-119616200Y-11130558D01*
X-119615122Y-11114112D01*
X-119614969Y-11112949D01*
X-119601055Y-11007258D01*
X-119592546Y-10975502D01*
X-119554486Y-10883616D01*
X-119538047Y-10855144D01*
X-119477502Y-10776241D01*
X-119454259Y-10752998D01*
X-119375356Y-10692453D01*
X-119346884Y-10676014D01*
X-119254998Y-10637954D01*
X-119223240Y-10629445D01*
X-119132317Y-10617475D01*
X-119116387Y-10615378D01*
X-119099941Y-10614300D01*
X-111851140Y-10614300D01*
X-111802924Y-10623890D01*
G37*
%TD.AperFunction*%
%TD*%
%TA.AperFunction,Conductor*%
%TO.N,VIN2*%
G36*
X3122602Y-10012937D02*
G01*
X5867762Y-10014084D01*
X5884187Y-10015167D01*
X5991009Y-10029272D01*
X6022770Y-10037794D01*
X6114602Y-10075866D01*
X6143075Y-10092316D01*
X6221930Y-10152854D01*
X6245177Y-10176111D01*
X6305682Y-10254990D01*
X6322121Y-10283472D01*
X6360154Y-10375320D01*
X6368663Y-10407083D01*
X6382723Y-10513905D01*
X6383800Y-10530347D01*
X6383800Y-23497964D01*
X6382722Y-23514413D01*
X6368652Y-23621270D01*
X6360137Y-23653044D01*
X6322076Y-23744921D01*
X6305628Y-23773407D01*
X6245084Y-23852301D01*
X6221819Y-23875562D01*
X6142918Y-23936093D01*
X6114431Y-23952536D01*
X6050010Y-23979213D01*
X6001803Y-23988800D01*
X-55613324Y-23988800D01*
X-55621644Y-23987144D01*
X-55626811Y-23988076D01*
X-55661556Y-23979202D01*
X-55741222Y-23946191D01*
X-55747880Y-23943432D01*
X-55776361Y-23926983D01*
X-55855243Y-23866439D01*
X-55878499Y-23843177D01*
X-55939023Y-23764280D01*
X-55955465Y-23735795D01*
X-55993508Y-23643920D01*
X-56002015Y-23612159D01*
X-56016071Y-23505295D01*
X-56017146Y-23488875D01*
X-56016839Y-20581969D01*
X-54728636Y-20581969D01*
X-54728636Y-20808230D01*
X-54693239Y-21031718D01*
X-54623320Y-21246906D01*
X-54598588Y-21295444D01*
X-54110058Y-20806914D01*
X-54084432Y-20935744D01*
X-54022242Y-21085884D01*
X-53931955Y-21221007D01*
X-53817043Y-21335919D01*
X-53681920Y-21426206D01*
X-53531780Y-21488396D01*
X-53402952Y-21514021D01*
X-53891482Y-22002550D01*
X-53842945Y-22027282D01*
X-53627755Y-22097202D01*
X-53404267Y-22132600D01*
X-53178005Y-22132600D01*
X-52954518Y-22097202D01*
X-52739325Y-22027281D01*
X-52690791Y-22002551D01*
X-52690791Y-22002550D01*
X-53179320Y-21514021D01*
X-53050492Y-21488396D01*
X-52900352Y-21426206D01*
X-52765229Y-21335919D01*
X-52650317Y-21221007D01*
X-52560030Y-21085884D01*
X-52497840Y-20935744D01*
X-52472215Y-20806916D01*
X-51983686Y-21295445D01*
X-51983685Y-21295445D01*
X-51958955Y-21246911D01*
X-51889034Y-21031718D01*
X-51853636Y-20808230D01*
X-51853636Y-20581969D01*
X-48028203Y-20581969D01*
X-48028203Y-20808230D01*
X-47992806Y-21031718D01*
X-47922887Y-21246906D01*
X-47898155Y-21295444D01*
X-47409625Y-20806914D01*
X-47383999Y-20935744D01*
X-47321809Y-21085884D01*
X-47231522Y-21221007D01*
X-47116610Y-21335919D01*
X-46981487Y-21426206D01*
X-46831347Y-21488396D01*
X-46702519Y-21514021D01*
X-47191049Y-22002550D01*
X-47142512Y-22027282D01*
X-46927322Y-22097202D01*
X-46703834Y-22132600D01*
X-46477572Y-22132600D01*
X-46254085Y-22097202D01*
X-46038892Y-22027281D01*
X-45990358Y-22002551D01*
X-45990358Y-22002550D01*
X-46478887Y-21514021D01*
X-46350059Y-21488396D01*
X-46199919Y-21426206D01*
X-46064796Y-21335919D01*
X-45949884Y-21221007D01*
X-45859597Y-21085884D01*
X-45797407Y-20935744D01*
X-45771782Y-20806916D01*
X-45283253Y-21295445D01*
X-45283252Y-21295445D01*
X-45258522Y-21246911D01*
X-45188601Y-21031718D01*
X-45153203Y-20808230D01*
X-45153203Y-20581969D01*
X-41327770Y-20581969D01*
X-41327770Y-20808230D01*
X-41292373Y-21031718D01*
X-41222454Y-21246906D01*
X-41197722Y-21295444D01*
X-40709192Y-20806914D01*
X-40683566Y-20935744D01*
X-40621376Y-21085884D01*
X-40531089Y-21221007D01*
X-40416177Y-21335919D01*
X-40281054Y-21426206D01*
X-40130914Y-21488396D01*
X-40002086Y-21514021D01*
X-40490616Y-22002550D01*
X-40442079Y-22027282D01*
X-40226889Y-22097202D01*
X-40003401Y-22132600D01*
X-39777139Y-22132600D01*
X-39553652Y-22097202D01*
X-39338459Y-22027281D01*
X-39289925Y-22002551D01*
X-39289925Y-22002550D01*
X-39778454Y-21514021D01*
X-39649626Y-21488396D01*
X-39499486Y-21426206D01*
X-39364363Y-21335919D01*
X-39249451Y-21221007D01*
X-39159164Y-21085884D01*
X-39096974Y-20935744D01*
X-39071349Y-20806916D01*
X-38582820Y-21295445D01*
X-38582819Y-21295445D01*
X-38558089Y-21246911D01*
X-38488168Y-21031718D01*
X-38452770Y-20808230D01*
X-38452770Y-20581969D01*
X-34627337Y-20581969D01*
X-34627337Y-20808230D01*
X-34591940Y-21031718D01*
X-34522021Y-21246906D01*
X-34497289Y-21295444D01*
X-34008759Y-20806914D01*
X-33983133Y-20935744D01*
X-33920943Y-21085884D01*
X-33830656Y-21221007D01*
X-33715744Y-21335919D01*
X-33580621Y-21426206D01*
X-33430481Y-21488396D01*
X-33301653Y-21514021D01*
X-33790183Y-22002550D01*
X-33741646Y-22027282D01*
X-33526456Y-22097202D01*
X-33302968Y-22132600D01*
X-33076706Y-22132600D01*
X-32853219Y-22097202D01*
X-32638026Y-22027281D01*
X-32589492Y-22002551D01*
X-32589492Y-22002550D01*
X-33078021Y-21514021D01*
X-32949193Y-21488396D01*
X-32799053Y-21426206D01*
X-32663930Y-21335919D01*
X-32549018Y-21221007D01*
X-32458731Y-21085884D01*
X-32396541Y-20935744D01*
X-32370916Y-20806916D01*
X-31882387Y-21295445D01*
X-31882386Y-21295445D01*
X-31857656Y-21246911D01*
X-31787735Y-21031718D01*
X-31752337Y-20808230D01*
X-31752337Y-20646969D01*
X-27926904Y-20646969D01*
X-27926904Y-20873230D01*
X-27891507Y-21096718D01*
X-27821588Y-21311906D01*
X-27796856Y-21360444D01*
X-27308326Y-20871914D01*
X-27282700Y-21000744D01*
X-27220510Y-21150884D01*
X-27130223Y-21286007D01*
X-27015311Y-21400919D01*
X-26880188Y-21491206D01*
X-26730048Y-21553396D01*
X-26601220Y-21579021D01*
X-27089750Y-22067550D01*
X-27041213Y-22092282D01*
X-26826023Y-22162202D01*
X-26602535Y-22197600D01*
X-26376273Y-22197600D01*
X-26152786Y-22162202D01*
X-25937593Y-22092281D01*
X-25889059Y-22067551D01*
X-25889059Y-22067550D01*
X-26377588Y-21579021D01*
X-26248760Y-21553396D01*
X-26098620Y-21491206D01*
X-25963497Y-21400919D01*
X-25848585Y-21286007D01*
X-25758298Y-21150884D01*
X-25696108Y-21000744D01*
X-25670483Y-20871916D01*
X-25181954Y-21360445D01*
X-25181953Y-21360445D01*
X-25157223Y-21311911D01*
X-25087302Y-21096718D01*
X-25051904Y-20873230D01*
X-25051904Y-20646969D01*
X-21226471Y-20646969D01*
X-21226471Y-20873230D01*
X-21191074Y-21096718D01*
X-21121155Y-21311906D01*
X-21096423Y-21360444D01*
X-20607893Y-20871914D01*
X-20582267Y-21000744D01*
X-20520077Y-21150884D01*
X-20429790Y-21286007D01*
X-20314878Y-21400919D01*
X-20179755Y-21491206D01*
X-20029615Y-21553396D01*
X-19900787Y-21579021D01*
X-20389317Y-22067550D01*
X-20340780Y-22092282D01*
X-20125590Y-22162202D01*
X-19902102Y-22197600D01*
X-19675840Y-22197600D01*
X-19452353Y-22162202D01*
X-19237160Y-22092281D01*
X-19188626Y-22067551D01*
X-19188626Y-22067550D01*
X-19677155Y-21579021D01*
X-19548327Y-21553396D01*
X-19398187Y-21491206D01*
X-19263064Y-21400919D01*
X-19148152Y-21286007D01*
X-19057865Y-21150884D01*
X-18995675Y-21000744D01*
X-18970050Y-20871916D01*
X-18481521Y-21360445D01*
X-18481520Y-21360445D01*
X-18456790Y-21311911D01*
X-18386869Y-21096718D01*
X-18351471Y-20873230D01*
X-18351471Y-20646969D01*
X-14526038Y-20646969D01*
X-14526038Y-20873230D01*
X-14490641Y-21096718D01*
X-14420722Y-21311906D01*
X-14395990Y-21360444D01*
X-13907460Y-20871914D01*
X-13881834Y-21000744D01*
X-13819644Y-21150884D01*
X-13729357Y-21286007D01*
X-13614445Y-21400919D01*
X-13479322Y-21491206D01*
X-13329182Y-21553396D01*
X-13200354Y-21579021D01*
X-13688884Y-22067550D01*
X-13640347Y-22092282D01*
X-13425157Y-22162202D01*
X-13201669Y-22197600D01*
X-12975407Y-22197600D01*
X-12751920Y-22162202D01*
X-12536727Y-22092281D01*
X-12488193Y-22067551D01*
X-12488193Y-22067550D01*
X-12976722Y-21579021D01*
X-12847894Y-21553396D01*
X-12697754Y-21491206D01*
X-12562631Y-21400919D01*
X-12447719Y-21286007D01*
X-12357432Y-21150884D01*
X-12295242Y-21000744D01*
X-12269617Y-20871916D01*
X-11781088Y-21360445D01*
X-11781087Y-21360445D01*
X-11756357Y-21311911D01*
X-11686436Y-21096718D01*
X-11651038Y-20873230D01*
X-11651038Y-20646969D01*
X-7825600Y-20646969D01*
X-7825600Y-20873230D01*
X-7790203Y-21096718D01*
X-7720284Y-21311906D01*
X-7695552Y-21360444D01*
X-7207022Y-20871914D01*
X-7181396Y-21000744D01*
X-7119206Y-21150884D01*
X-7028919Y-21286007D01*
X-6914007Y-21400919D01*
X-6778884Y-21491206D01*
X-6628744Y-21553396D01*
X-6499916Y-21579021D01*
X-6988446Y-22067550D01*
X-6939909Y-22092282D01*
X-6724719Y-22162202D01*
X-6501231Y-22197600D01*
X-6274969Y-22197600D01*
X-6051482Y-22162202D01*
X-5836289Y-22092281D01*
X-5787755Y-22067551D01*
X-5787755Y-22067550D01*
X-6276284Y-21579021D01*
X-6147456Y-21553396D01*
X-5997316Y-21491206D01*
X-5862193Y-21400919D01*
X-5747281Y-21286007D01*
X-5656994Y-21150884D01*
X-5594804Y-21000744D01*
X-5569179Y-20871916D01*
X-5080650Y-21360445D01*
X-5080649Y-21360445D01*
X-5055919Y-21311911D01*
X-4985998Y-21096718D01*
X-4950600Y-20873230D01*
X-4950600Y-20646969D01*
X-4985998Y-20423481D01*
X-5055918Y-20208291D01*
X-5055918Y-20208290D01*
X-5080650Y-20159754D01*
X-5569179Y-20648283D01*
X-5594804Y-20519456D01*
X-5656994Y-20369316D01*
X-5747281Y-20234193D01*
X-5862193Y-20119281D01*
X-5997316Y-20028994D01*
X-6147456Y-19966804D01*
X-6276286Y-19941178D01*
X-5787756Y-19452648D01*
X-5836294Y-19427916D01*
X-6051482Y-19357997D01*
X-6274969Y-19322600D01*
X-6501231Y-19322600D01*
X-6724719Y-19357997D01*
X-6939912Y-19427918D01*
X-6988446Y-19452647D01*
X-6988446Y-19452649D01*
X-6499917Y-19941178D01*
X-6628744Y-19966804D01*
X-6778884Y-20028994D01*
X-6914007Y-20119281D01*
X-7028919Y-20234193D01*
X-7119206Y-20369316D01*
X-7181396Y-20519456D01*
X-7207022Y-20648283D01*
X-7695551Y-20159754D01*
X-7695553Y-20159754D01*
X-7720282Y-20208288D01*
X-7790203Y-20423481D01*
X-7825600Y-20646969D01*
X-11651038Y-20646969D01*
X-11686436Y-20423481D01*
X-11756356Y-20208291D01*
X-11756356Y-20208290D01*
X-11781088Y-20159754D01*
X-12269617Y-20648283D01*
X-12295242Y-20519456D01*
X-12357432Y-20369316D01*
X-12447719Y-20234193D01*
X-12562631Y-20119281D01*
X-12697754Y-20028994D01*
X-12847894Y-19966804D01*
X-12976724Y-19941178D01*
X-12488194Y-19452648D01*
X-12536732Y-19427916D01*
X-12751920Y-19357997D01*
X-12975407Y-19322600D01*
X-13201669Y-19322600D01*
X-13425157Y-19357997D01*
X-13640350Y-19427918D01*
X-13688884Y-19452647D01*
X-13688884Y-19452649D01*
X-13200355Y-19941178D01*
X-13329182Y-19966804D01*
X-13479322Y-20028994D01*
X-13614445Y-20119281D01*
X-13729357Y-20234193D01*
X-13819644Y-20369316D01*
X-13881834Y-20519456D01*
X-13907460Y-20648283D01*
X-14395989Y-20159754D01*
X-14395991Y-20159754D01*
X-14420720Y-20208288D01*
X-14490641Y-20423481D01*
X-14526038Y-20646969D01*
X-18351471Y-20646969D01*
X-18386869Y-20423481D01*
X-18456789Y-20208291D01*
X-18456789Y-20208290D01*
X-18481521Y-20159754D01*
X-18970050Y-20648283D01*
X-18995675Y-20519456D01*
X-19057865Y-20369316D01*
X-19148152Y-20234193D01*
X-19263064Y-20119281D01*
X-19398187Y-20028994D01*
X-19548327Y-19966804D01*
X-19677157Y-19941178D01*
X-19188627Y-19452648D01*
X-19237165Y-19427916D01*
X-19452353Y-19357997D01*
X-19675840Y-19322600D01*
X-19902102Y-19322600D01*
X-20125590Y-19357997D01*
X-20340783Y-19427918D01*
X-20389317Y-19452647D01*
X-20389317Y-19452649D01*
X-19900788Y-19941178D01*
X-20029615Y-19966804D01*
X-20179755Y-20028994D01*
X-20314878Y-20119281D01*
X-20429790Y-20234193D01*
X-20520077Y-20369316D01*
X-20582267Y-20519456D01*
X-20607893Y-20648283D01*
X-21096422Y-20159754D01*
X-21096424Y-20159754D01*
X-21121153Y-20208288D01*
X-21191074Y-20423481D01*
X-21226471Y-20646969D01*
X-25051904Y-20646969D01*
X-25087302Y-20423481D01*
X-25157222Y-20208291D01*
X-25157222Y-20208290D01*
X-25181954Y-20159754D01*
X-25670483Y-20648283D01*
X-25696108Y-20519456D01*
X-25758298Y-20369316D01*
X-25848585Y-20234193D01*
X-25963497Y-20119281D01*
X-26098620Y-20028994D01*
X-26248760Y-19966804D01*
X-26377590Y-19941178D01*
X-25889060Y-19452648D01*
X-25937598Y-19427916D01*
X-26152786Y-19357997D01*
X-26376273Y-19322600D01*
X-26602535Y-19322600D01*
X-26826023Y-19357997D01*
X-27041216Y-19427918D01*
X-27089750Y-19452647D01*
X-27089750Y-19452649D01*
X-26601221Y-19941178D01*
X-26730048Y-19966804D01*
X-26880188Y-20028994D01*
X-27015311Y-20119281D01*
X-27130223Y-20234193D01*
X-27220510Y-20369316D01*
X-27282700Y-20519456D01*
X-27308326Y-20648283D01*
X-27796855Y-20159754D01*
X-27796857Y-20159754D01*
X-27821586Y-20208288D01*
X-27891507Y-20423481D01*
X-27926904Y-20646969D01*
X-31752337Y-20646969D01*
X-31752337Y-20581969D01*
X-31787735Y-20358481D01*
X-31857655Y-20143291D01*
X-31857655Y-20143290D01*
X-31882387Y-20094754D01*
X-32370916Y-20583283D01*
X-32396541Y-20454456D01*
X-32458731Y-20304316D01*
X-32549018Y-20169193D01*
X-32663930Y-20054281D01*
X-32799053Y-19963994D01*
X-32949193Y-19901804D01*
X-33078022Y-19876178D01*
X-32609096Y-19407252D01*
X-32589492Y-19387648D01*
X-32638031Y-19362916D01*
X-32853219Y-19292997D01*
X-33076706Y-19257600D01*
X-33302968Y-19257600D01*
X-33526456Y-19292997D01*
X-33741649Y-19362918D01*
X-33790183Y-19387647D01*
X-33790183Y-19387649D01*
X-33301654Y-19876178D01*
X-33430481Y-19901804D01*
X-33580621Y-19963994D01*
X-33715744Y-20054281D01*
X-33830656Y-20169193D01*
X-33920943Y-20304316D01*
X-33983133Y-20454456D01*
X-34008759Y-20583283D01*
X-34497288Y-20094754D01*
X-34497290Y-20094754D01*
X-34522019Y-20143288D01*
X-34591940Y-20358481D01*
X-34627337Y-20581969D01*
X-38452770Y-20581969D01*
X-38488168Y-20358481D01*
X-38558088Y-20143291D01*
X-38558088Y-20143290D01*
X-38582820Y-20094754D01*
X-39071349Y-20583283D01*
X-39096974Y-20454456D01*
X-39159164Y-20304316D01*
X-39249451Y-20169193D01*
X-39364363Y-20054281D01*
X-39499486Y-19963994D01*
X-39649626Y-19901804D01*
X-39778456Y-19876178D01*
X-39289926Y-19387648D01*
X-39338464Y-19362916D01*
X-39553652Y-19292997D01*
X-39777139Y-19257600D01*
X-40003401Y-19257600D01*
X-40226889Y-19292997D01*
X-40442082Y-19362918D01*
X-40490616Y-19387647D01*
X-40490616Y-19387649D01*
X-40002087Y-19876178D01*
X-40130914Y-19901804D01*
X-40281054Y-19963994D01*
X-40416177Y-20054281D01*
X-40531089Y-20169193D01*
X-40621376Y-20304316D01*
X-40683566Y-20454456D01*
X-40709192Y-20583283D01*
X-41197721Y-20094754D01*
X-41197723Y-20094754D01*
X-41222452Y-20143288D01*
X-41292373Y-20358481D01*
X-41327770Y-20581969D01*
X-45153203Y-20581969D01*
X-45188601Y-20358481D01*
X-45258521Y-20143291D01*
X-45258521Y-20143290D01*
X-45283253Y-20094754D01*
X-45771782Y-20583283D01*
X-45797407Y-20454456D01*
X-45859597Y-20304316D01*
X-45949884Y-20169193D01*
X-46064796Y-20054281D01*
X-46199919Y-19963994D01*
X-46350059Y-19901804D01*
X-46478889Y-19876178D01*
X-45990359Y-19387648D01*
X-46038897Y-19362916D01*
X-46254085Y-19292997D01*
X-46477572Y-19257600D01*
X-46703834Y-19257600D01*
X-46927322Y-19292997D01*
X-47142515Y-19362918D01*
X-47191049Y-19387647D01*
X-47191049Y-19387649D01*
X-46702520Y-19876178D01*
X-46831347Y-19901804D01*
X-46981487Y-19963994D01*
X-47116610Y-20054281D01*
X-47231522Y-20169193D01*
X-47321809Y-20304316D01*
X-47383999Y-20454456D01*
X-47409625Y-20583283D01*
X-47898154Y-20094754D01*
X-47898156Y-20094754D01*
X-47922885Y-20143288D01*
X-47992806Y-20358481D01*
X-48028203Y-20581969D01*
X-51853636Y-20581969D01*
X-51889034Y-20358481D01*
X-51958954Y-20143291D01*
X-51958954Y-20143290D01*
X-51983686Y-20094754D01*
X-52472215Y-20583283D01*
X-52497840Y-20454456D01*
X-52560030Y-20304316D01*
X-52650317Y-20169193D01*
X-52765229Y-20054281D01*
X-52900352Y-19963994D01*
X-53050492Y-19901804D01*
X-53179322Y-19876178D01*
X-52690792Y-19387648D01*
X-52739330Y-19362916D01*
X-52954518Y-19292997D01*
X-53178005Y-19257600D01*
X-53404267Y-19257600D01*
X-53627755Y-19292997D01*
X-53842948Y-19362918D01*
X-53891482Y-19387647D01*
X-53891482Y-19387649D01*
X-53402953Y-19876178D01*
X-53531780Y-19901804D01*
X-53681920Y-19963994D01*
X-53817043Y-20054281D01*
X-53931955Y-20169193D01*
X-54022242Y-20304316D01*
X-54084432Y-20454456D01*
X-54110058Y-20583283D01*
X-54598587Y-20094754D01*
X-54598589Y-20094754D01*
X-54623318Y-20143288D01*
X-54693239Y-20358481D01*
X-54728636Y-20581969D01*
X-56016839Y-20581969D01*
X-56016715Y-19407252D01*
X-56016613Y-18432600D01*
X-56016450Y-16881969D01*
X-54728636Y-16881969D01*
X-54728636Y-17108230D01*
X-54693239Y-17331718D01*
X-54623320Y-17546906D01*
X-54598588Y-17595444D01*
X-54110058Y-17106914D01*
X-54084432Y-17235744D01*
X-54022242Y-17385884D01*
X-53931955Y-17521007D01*
X-53817043Y-17635919D01*
X-53681920Y-17726206D01*
X-53531780Y-17788396D01*
X-53402952Y-17814021D01*
X-53891482Y-18302550D01*
X-53842945Y-18327282D01*
X-53627755Y-18397202D01*
X-53404267Y-18432600D01*
X-53178005Y-18432600D01*
X-52954518Y-18397202D01*
X-52739325Y-18327281D01*
X-52690791Y-18302551D01*
X-52690791Y-18302550D01*
X-53179320Y-17814021D01*
X-53050492Y-17788396D01*
X-52900352Y-17726206D01*
X-52765229Y-17635919D01*
X-52650317Y-17521007D01*
X-52560030Y-17385884D01*
X-52497840Y-17235744D01*
X-52472215Y-17106916D01*
X-51983686Y-17595445D01*
X-51983685Y-17595445D01*
X-51958955Y-17546911D01*
X-51889034Y-17331718D01*
X-51853636Y-17108230D01*
X-51853636Y-16881969D01*
X-48028203Y-16881969D01*
X-48028203Y-17108230D01*
X-47992806Y-17331718D01*
X-47922887Y-17546906D01*
X-47898155Y-17595444D01*
X-47409625Y-17106914D01*
X-47383999Y-17235744D01*
X-47321809Y-17385884D01*
X-47231522Y-17521007D01*
X-47116610Y-17635919D01*
X-46981487Y-17726206D01*
X-46831347Y-17788396D01*
X-46702519Y-17814021D01*
X-47191049Y-18302550D01*
X-47142512Y-18327282D01*
X-46927322Y-18397202D01*
X-46703834Y-18432600D01*
X-46477572Y-18432600D01*
X-46254085Y-18397202D01*
X-46038892Y-18327281D01*
X-45990358Y-18302551D01*
X-45990358Y-18302550D01*
X-46478887Y-17814021D01*
X-46350059Y-17788396D01*
X-46199919Y-17726206D01*
X-46064796Y-17635919D01*
X-45949884Y-17521007D01*
X-45859597Y-17385884D01*
X-45797407Y-17235744D01*
X-45771782Y-17106916D01*
X-45283253Y-17595445D01*
X-45283252Y-17595445D01*
X-45258522Y-17546911D01*
X-45188601Y-17331718D01*
X-45153203Y-17108230D01*
X-45153203Y-16881969D01*
X-41327770Y-16881969D01*
X-41327770Y-17108230D01*
X-41292373Y-17331718D01*
X-41222454Y-17546906D01*
X-41197722Y-17595444D01*
X-40709192Y-17106914D01*
X-40683566Y-17235744D01*
X-40621376Y-17385884D01*
X-40531089Y-17521007D01*
X-40416177Y-17635919D01*
X-40281054Y-17726206D01*
X-40130914Y-17788396D01*
X-40002086Y-17814021D01*
X-40490616Y-18302550D01*
X-40442079Y-18327282D01*
X-40226889Y-18397202D01*
X-40003401Y-18432600D01*
X-39777139Y-18432600D01*
X-39553652Y-18397202D01*
X-39338459Y-18327281D01*
X-39289925Y-18302551D01*
X-39289925Y-18302550D01*
X-39778454Y-17814021D01*
X-39649626Y-17788396D01*
X-39499486Y-17726206D01*
X-39364363Y-17635919D01*
X-39249451Y-17521007D01*
X-39159164Y-17385884D01*
X-39096974Y-17235744D01*
X-39071349Y-17106916D01*
X-38582820Y-17595445D01*
X-38582819Y-17595445D01*
X-38558089Y-17546911D01*
X-38488168Y-17331718D01*
X-38452770Y-17108230D01*
X-38452770Y-16881969D01*
X-34627337Y-16881969D01*
X-34627337Y-17108230D01*
X-34591940Y-17331718D01*
X-34522021Y-17546906D01*
X-34497289Y-17595444D01*
X-34008759Y-17106914D01*
X-33983133Y-17235744D01*
X-33920943Y-17385884D01*
X-33830656Y-17521007D01*
X-33715744Y-17635919D01*
X-33580621Y-17726206D01*
X-33430481Y-17788396D01*
X-33301653Y-17814021D01*
X-33790183Y-18302550D01*
X-33741646Y-18327282D01*
X-33526456Y-18397202D01*
X-33302968Y-18432600D01*
X-33076706Y-18432600D01*
X-32853219Y-18397202D01*
X-32638026Y-18327281D01*
X-32589492Y-18302551D01*
X-32589492Y-18302550D01*
X-33078021Y-17814021D01*
X-32949193Y-17788396D01*
X-32799053Y-17726206D01*
X-32663930Y-17635919D01*
X-32549018Y-17521007D01*
X-32458731Y-17385884D01*
X-32396541Y-17235744D01*
X-32370916Y-17106916D01*
X-31882387Y-17595445D01*
X-31882386Y-17595445D01*
X-31857656Y-17546911D01*
X-31787735Y-17331718D01*
X-31752337Y-17108230D01*
X-31752337Y-16946969D01*
X-27926904Y-16946969D01*
X-27926904Y-17173230D01*
X-27891507Y-17396718D01*
X-27821588Y-17611906D01*
X-27796856Y-17660444D01*
X-27308326Y-17171914D01*
X-27282700Y-17300744D01*
X-27220510Y-17450884D01*
X-27130223Y-17586007D01*
X-27015311Y-17700919D01*
X-26880188Y-17791206D01*
X-26730048Y-17853396D01*
X-26601220Y-17879021D01*
X-27089750Y-18367550D01*
X-27041213Y-18392282D01*
X-26826023Y-18462202D01*
X-26602535Y-18497600D01*
X-26376273Y-18497600D01*
X-26152786Y-18462202D01*
X-25937593Y-18392281D01*
X-25889059Y-18367551D01*
X-25889059Y-18367550D01*
X-26377588Y-17879021D01*
X-26248760Y-17853396D01*
X-26098620Y-17791206D01*
X-25963497Y-17700919D01*
X-25848585Y-17586007D01*
X-25758298Y-17450884D01*
X-25696108Y-17300744D01*
X-25670483Y-17171916D01*
X-25181954Y-17660445D01*
X-25181953Y-17660445D01*
X-25157223Y-17611911D01*
X-25087302Y-17396718D01*
X-25051904Y-17173230D01*
X-25051904Y-16946969D01*
X-21226471Y-16946969D01*
X-21226471Y-17173230D01*
X-21191074Y-17396718D01*
X-21121155Y-17611906D01*
X-21096423Y-17660444D01*
X-20607893Y-17171914D01*
X-20582267Y-17300744D01*
X-20520077Y-17450884D01*
X-20429790Y-17586007D01*
X-20314878Y-17700919D01*
X-20179755Y-17791206D01*
X-20029615Y-17853396D01*
X-19900787Y-17879021D01*
X-20389317Y-18367550D01*
X-20340780Y-18392282D01*
X-20125590Y-18462202D01*
X-19902102Y-18497600D01*
X-19675840Y-18497600D01*
X-19452353Y-18462202D01*
X-19237160Y-18392281D01*
X-19188626Y-18367551D01*
X-19188626Y-18367550D01*
X-19677155Y-17879021D01*
X-19548327Y-17853396D01*
X-19398187Y-17791206D01*
X-19263064Y-17700919D01*
X-19148152Y-17586007D01*
X-19057865Y-17450884D01*
X-18995675Y-17300744D01*
X-18970050Y-17171916D01*
X-18481521Y-17660445D01*
X-18481520Y-17660445D01*
X-18456790Y-17611911D01*
X-18386869Y-17396718D01*
X-18351471Y-17173230D01*
X-18351471Y-16946969D01*
X-14526038Y-16946969D01*
X-14526038Y-17173230D01*
X-14490641Y-17396718D01*
X-14420722Y-17611906D01*
X-14395990Y-17660444D01*
X-13907460Y-17171914D01*
X-13881834Y-17300744D01*
X-13819644Y-17450884D01*
X-13729357Y-17586007D01*
X-13614445Y-17700919D01*
X-13479322Y-17791206D01*
X-13329182Y-17853396D01*
X-13200354Y-17879021D01*
X-13688884Y-18367550D01*
X-13640347Y-18392282D01*
X-13425157Y-18462202D01*
X-13201669Y-18497600D01*
X-12975407Y-18497600D01*
X-12751920Y-18462202D01*
X-12536727Y-18392281D01*
X-12488193Y-18367551D01*
X-12488193Y-18367550D01*
X-12976722Y-17879021D01*
X-12847894Y-17853396D01*
X-12697754Y-17791206D01*
X-12562631Y-17700919D01*
X-12447719Y-17586007D01*
X-12357432Y-17450884D01*
X-12295242Y-17300744D01*
X-12269617Y-17171916D01*
X-11781088Y-17660445D01*
X-11781087Y-17660445D01*
X-11756357Y-17611911D01*
X-11686436Y-17396718D01*
X-11651038Y-17173230D01*
X-11651038Y-16946969D01*
X-7825600Y-16946969D01*
X-7825600Y-17173230D01*
X-7790203Y-17396718D01*
X-7720284Y-17611906D01*
X-7695552Y-17660444D01*
X-7207022Y-17171914D01*
X-7181396Y-17300744D01*
X-7119206Y-17450884D01*
X-7028919Y-17586007D01*
X-6914007Y-17700919D01*
X-6778884Y-17791206D01*
X-6628744Y-17853396D01*
X-6499916Y-17879021D01*
X-6988446Y-18367550D01*
X-6939909Y-18392282D01*
X-6724719Y-18462202D01*
X-6501231Y-18497600D01*
X-6274969Y-18497600D01*
X-6051482Y-18462202D01*
X-5836289Y-18392281D01*
X-5787755Y-18367551D01*
X-5787755Y-18367550D01*
X-6276284Y-17879021D01*
X-6147456Y-17853396D01*
X-5997316Y-17791206D01*
X-5862193Y-17700919D01*
X-5747281Y-17586007D01*
X-5656994Y-17450884D01*
X-5594804Y-17300744D01*
X-5569179Y-17171916D01*
X-5080650Y-17660445D01*
X-5080649Y-17660445D01*
X-5055919Y-17611911D01*
X-4985998Y-17396718D01*
X-4950600Y-17173230D01*
X-4950600Y-16946969D01*
X-4985998Y-16723481D01*
X-5055918Y-16508291D01*
X-5055918Y-16508290D01*
X-5080650Y-16459754D01*
X-5569179Y-16948283D01*
X-5594804Y-16819456D01*
X-5656994Y-16669316D01*
X-5747281Y-16534193D01*
X-5862193Y-16419281D01*
X-5997316Y-16328994D01*
X-6147456Y-16266804D01*
X-6276285Y-16241178D01*
X-6208134Y-16173028D01*
X-6208120Y-16173014D01*
X-5787756Y-15752648D01*
X-5836294Y-15727916D01*
X-6051482Y-15657997D01*
X-6274969Y-15622600D01*
X-6501231Y-15622600D01*
X-6724719Y-15657997D01*
X-6939912Y-15727918D01*
X-6988446Y-15752647D01*
X-6988446Y-15752649D01*
X-6499917Y-16241178D01*
X-6628744Y-16266804D01*
X-6778884Y-16328994D01*
X-6914007Y-16419281D01*
X-7028919Y-16534193D01*
X-7119206Y-16669316D01*
X-7181396Y-16819456D01*
X-7207022Y-16948283D01*
X-7695551Y-16459754D01*
X-7695553Y-16459754D01*
X-7720282Y-16508288D01*
X-7790203Y-16723481D01*
X-7825600Y-16946969D01*
X-11651038Y-16946969D01*
X-11686436Y-16723481D01*
X-11756356Y-16508291D01*
X-11756356Y-16508290D01*
X-11781088Y-16459754D01*
X-12269617Y-16948283D01*
X-12295242Y-16819456D01*
X-12357432Y-16669316D01*
X-12447719Y-16534193D01*
X-12562631Y-16419281D01*
X-12697754Y-16328994D01*
X-12847894Y-16266804D01*
X-12976724Y-16241178D01*
X-12488194Y-15752648D01*
X-12536732Y-15727916D01*
X-12751920Y-15657997D01*
X-12975407Y-15622600D01*
X-13201669Y-15622600D01*
X-13425157Y-15657997D01*
X-13640350Y-15727918D01*
X-13688884Y-15752647D01*
X-13688884Y-15752649D01*
X-13200355Y-16241178D01*
X-13329182Y-16266804D01*
X-13479322Y-16328994D01*
X-13614445Y-16419281D01*
X-13729357Y-16534193D01*
X-13819644Y-16669316D01*
X-13881834Y-16819456D01*
X-13907460Y-16948283D01*
X-14395989Y-16459754D01*
X-14395991Y-16459754D01*
X-14420720Y-16508288D01*
X-14490641Y-16723481D01*
X-14526038Y-16946969D01*
X-18351471Y-16946969D01*
X-18386869Y-16723481D01*
X-18456789Y-16508291D01*
X-18456789Y-16508290D01*
X-18481521Y-16459754D01*
X-18970050Y-16948283D01*
X-18995675Y-16819456D01*
X-19057865Y-16669316D01*
X-19148152Y-16534193D01*
X-19263064Y-16419281D01*
X-19398187Y-16328994D01*
X-19548327Y-16266804D01*
X-19677157Y-16241178D01*
X-19188627Y-15752648D01*
X-19237165Y-15727916D01*
X-19452353Y-15657997D01*
X-19675840Y-15622600D01*
X-19902102Y-15622600D01*
X-20125590Y-15657997D01*
X-20340783Y-15727918D01*
X-20389317Y-15752647D01*
X-20389317Y-15752649D01*
X-19900788Y-16241178D01*
X-20029615Y-16266804D01*
X-20179755Y-16328994D01*
X-20314878Y-16419281D01*
X-20429790Y-16534193D01*
X-20520077Y-16669316D01*
X-20582267Y-16819456D01*
X-20607893Y-16948283D01*
X-21096422Y-16459754D01*
X-21096424Y-16459754D01*
X-21121153Y-16508288D01*
X-21191074Y-16723481D01*
X-21226471Y-16946969D01*
X-25051904Y-16946969D01*
X-25087302Y-16723481D01*
X-25157222Y-16508291D01*
X-25157222Y-16508290D01*
X-25181954Y-16459754D01*
X-25670483Y-16948283D01*
X-25696108Y-16819456D01*
X-25758298Y-16669316D01*
X-25848585Y-16534193D01*
X-25963497Y-16419281D01*
X-26098620Y-16328994D01*
X-26248760Y-16266804D01*
X-26377590Y-16241178D01*
X-25889060Y-15752648D01*
X-25937598Y-15727916D01*
X-26152786Y-15657997D01*
X-26376273Y-15622600D01*
X-26602535Y-15622600D01*
X-26826023Y-15657997D01*
X-27041216Y-15727918D01*
X-27089750Y-15752647D01*
X-27089750Y-15752649D01*
X-26601221Y-16241178D01*
X-26730048Y-16266804D01*
X-26880188Y-16328994D01*
X-27015311Y-16419281D01*
X-27130223Y-16534193D01*
X-27220510Y-16669316D01*
X-27282700Y-16819456D01*
X-27308326Y-16948283D01*
X-27796855Y-16459754D01*
X-27796857Y-16459754D01*
X-27821586Y-16508288D01*
X-27891507Y-16723481D01*
X-27926904Y-16946969D01*
X-31752337Y-16946969D01*
X-31752337Y-16881969D01*
X-31787735Y-16658481D01*
X-31857655Y-16443291D01*
X-31857655Y-16443290D01*
X-31882387Y-16394754D01*
X-32370916Y-16883283D01*
X-32396541Y-16754456D01*
X-32458731Y-16604316D01*
X-32549018Y-16469193D01*
X-32663930Y-16354281D01*
X-32799053Y-16263994D01*
X-32949193Y-16201804D01*
X-33078022Y-16176178D01*
X-32609096Y-15707252D01*
X-32589492Y-15687648D01*
X-32638031Y-15662916D01*
X-32853219Y-15592997D01*
X-33076706Y-15557600D01*
X-33302968Y-15557600D01*
X-33526456Y-15592997D01*
X-33741649Y-15662918D01*
X-33790183Y-15687647D01*
X-33790183Y-15687649D01*
X-33301654Y-16176178D01*
X-33430481Y-16201804D01*
X-33580621Y-16263994D01*
X-33715744Y-16354281D01*
X-33830656Y-16469193D01*
X-33920943Y-16604316D01*
X-33983133Y-16754456D01*
X-34008759Y-16883283D01*
X-34497288Y-16394754D01*
X-34497290Y-16394754D01*
X-34522019Y-16443288D01*
X-34591940Y-16658481D01*
X-34627337Y-16881969D01*
X-38452770Y-16881969D01*
X-38488168Y-16658481D01*
X-38558088Y-16443291D01*
X-38558088Y-16443290D01*
X-38582820Y-16394754D01*
X-39071349Y-16883283D01*
X-39096974Y-16754456D01*
X-39159164Y-16604316D01*
X-39249451Y-16469193D01*
X-39364363Y-16354281D01*
X-39499486Y-16263994D01*
X-39649626Y-16201804D01*
X-39778456Y-16176178D01*
X-39289926Y-15687648D01*
X-39338464Y-15662916D01*
X-39553652Y-15592997D01*
X-39777139Y-15557600D01*
X-40003401Y-15557600D01*
X-40226889Y-15592997D01*
X-40442082Y-15662918D01*
X-40490616Y-15687647D01*
X-40490616Y-15687649D01*
X-40002087Y-16176178D01*
X-40130914Y-16201804D01*
X-40281054Y-16263994D01*
X-40416177Y-16354281D01*
X-40531089Y-16469193D01*
X-40621376Y-16604316D01*
X-40683566Y-16754456D01*
X-40709192Y-16883283D01*
X-41197721Y-16394754D01*
X-41197723Y-16394754D01*
X-41222452Y-16443288D01*
X-41292373Y-16658481D01*
X-41327770Y-16881969D01*
X-45153203Y-16881969D01*
X-45188601Y-16658481D01*
X-45258521Y-16443291D01*
X-45258521Y-16443290D01*
X-45283253Y-16394754D01*
X-45771782Y-16883283D01*
X-45797407Y-16754456D01*
X-45859597Y-16604316D01*
X-45949884Y-16469193D01*
X-46064796Y-16354281D01*
X-46199919Y-16263994D01*
X-46350059Y-16201804D01*
X-46478889Y-16176178D01*
X-45990359Y-15687648D01*
X-46038897Y-15662916D01*
X-46254085Y-15592997D01*
X-46477572Y-15557600D01*
X-46703834Y-15557600D01*
X-46927322Y-15592997D01*
X-47142515Y-15662918D01*
X-47191049Y-15687647D01*
X-47191049Y-15687649D01*
X-46702520Y-16176178D01*
X-46831347Y-16201804D01*
X-46981487Y-16263994D01*
X-47116610Y-16354281D01*
X-47231522Y-16469193D01*
X-47321809Y-16604316D01*
X-47383999Y-16754456D01*
X-47409625Y-16883283D01*
X-47898154Y-16394754D01*
X-47898156Y-16394754D01*
X-47922885Y-16443288D01*
X-47992806Y-16658481D01*
X-48028203Y-16881969D01*
X-51853636Y-16881969D01*
X-51889034Y-16658481D01*
X-51958954Y-16443291D01*
X-51958954Y-16443290D01*
X-51983686Y-16394754D01*
X-52472215Y-16883283D01*
X-52497840Y-16754456D01*
X-52560030Y-16604316D01*
X-52650317Y-16469193D01*
X-52765229Y-16354281D01*
X-52900352Y-16263994D01*
X-53050492Y-16201804D01*
X-53179322Y-16176178D01*
X-52690792Y-15687648D01*
X-52739330Y-15662916D01*
X-52954518Y-15592997D01*
X-53178005Y-15557600D01*
X-53404267Y-15557600D01*
X-53627755Y-15592997D01*
X-53842948Y-15662918D01*
X-53891482Y-15687647D01*
X-53891482Y-15687649D01*
X-53402953Y-16176178D01*
X-53531780Y-16201804D01*
X-53681920Y-16263994D01*
X-53817043Y-16354281D01*
X-53931955Y-16469193D01*
X-54022242Y-16604316D01*
X-54084432Y-16754456D01*
X-54110058Y-16883283D01*
X-54598587Y-16394754D01*
X-54598589Y-16394754D01*
X-54623318Y-16443288D01*
X-54693239Y-16658481D01*
X-54728636Y-16881969D01*
X-56016450Y-16881969D01*
X-56016255Y-15030498D01*
X-56015175Y-15014055D01*
X-56001099Y-14907222D01*
X-55992587Y-14875461D01*
X-55954522Y-14783582D01*
X-55938084Y-14755116D01*
X-55877539Y-14676223D01*
X-55854289Y-14652976D01*
X-55806092Y-14615997D01*
X-55775396Y-14592446D01*
X-55746912Y-14576002D01*
X-55655048Y-14537953D01*
X-55623282Y-14529442D01*
X-55516443Y-14515377D01*
X-55499998Y-14514300D01*
X-26942155Y-14514300D01*
X-26909545Y-14518593D01*
X-26880516Y-14526371D01*
X-26792541Y-14537953D01*
X-26620524Y-14560600D01*
X-26620517Y-14560600D01*
X-26358291Y-14560600D01*
X-26358284Y-14560600D01*
X-26171714Y-14536036D01*
X-26098293Y-14526371D01*
X-26098291Y-14526370D01*
X-26098288Y-14526370D01*
X-26079570Y-14521354D01*
X-26069263Y-14518593D01*
X-26036653Y-14514300D01*
X-20241722Y-14514300D01*
X-20209112Y-14518593D01*
X-20180083Y-14526371D01*
X-20092108Y-14537953D01*
X-19920091Y-14560600D01*
X-19920084Y-14560600D01*
X-19657858Y-14560600D01*
X-19657851Y-14560600D01*
X-19471281Y-14536036D01*
X-19397860Y-14526371D01*
X-19397858Y-14526370D01*
X-19397855Y-14526370D01*
X-19379137Y-14521354D01*
X-19368830Y-14518593D01*
X-19336220Y-14514300D01*
X-13541289Y-14514300D01*
X-13508679Y-14518593D01*
X-13479650Y-14526371D01*
X-13391675Y-14537953D01*
X-13219658Y-14560600D01*
X-13219651Y-14560600D01*
X-12957425Y-14560600D01*
X-12957418Y-14560600D01*
X-12770848Y-14536036D01*
X-12697427Y-14526371D01*
X-12697425Y-14526370D01*
X-12697422Y-14526370D01*
X-12678704Y-14521354D01*
X-12668397Y-14518593D01*
X-12635787Y-14514300D01*
X-6840851Y-14514300D01*
X-6808241Y-14518593D01*
X-6779212Y-14526371D01*
X-6691237Y-14537953D01*
X-6519220Y-14560600D01*
X-6519213Y-14560600D01*
X-6256987Y-14560600D01*
X-6256980Y-14560600D01*
X-6070410Y-14536036D01*
X-5996989Y-14526371D01*
X-5996987Y-14526370D01*
X-5996984Y-14526370D01*
X-5978266Y-14521354D01*
X-5967959Y-14518593D01*
X-5935349Y-14514300D01*
X-3669600Y-14514300D01*
X-3669600Y-13794598D01*
X83800Y-13794598D01*
X83800Y-15314300D01*
X1595603Y-15314300D01*
X1530540Y-15411674D01*
X1466465Y-15566364D01*
X1433800Y-15730582D01*
X1433800Y-15898018D01*
X1466465Y-16062236D01*
X1530540Y-16216926D01*
X1595603Y-16314300D01*
X83800Y-16314300D01*
X83800Y-17834001D01*
X95404Y-17892336D01*
X139607Y-17958492D01*
X205763Y-18002695D01*
X264098Y-18014299D01*
X264103Y-18014300D01*
X1783800Y-18014300D01*
X1783800Y-16502497D01*
X1881174Y-16567560D01*
X2035864Y-16631635D01*
X2200082Y-16664300D01*
X2367518Y-16664300D01*
X2531736Y-16631635D01*
X2686426Y-16567560D01*
X2783800Y-16502497D01*
X2783800Y-18014300D01*
X4303497Y-18014300D01*
X4303501Y-18014299D01*
X4361836Y-18002695D01*
X4427992Y-17958492D01*
X4472195Y-17892336D01*
X4483799Y-17834001D01*
X4483800Y-17833996D01*
X4483800Y-16314300D01*
X2971997Y-16314300D01*
X3037060Y-16216926D01*
X3101135Y-16062236D01*
X3133800Y-15898018D01*
X3133800Y-15730582D01*
X3101135Y-15566364D01*
X3037060Y-15411674D01*
X2971997Y-15314300D01*
X4483800Y-15314300D01*
X4483800Y-13794603D01*
X4483799Y-13794598D01*
X4472195Y-13736263D01*
X4427992Y-13670107D01*
X4361836Y-13625904D01*
X4303501Y-13614300D01*
X2783800Y-13614300D01*
X2783800Y-15126102D01*
X2686426Y-15061040D01*
X2531736Y-14996965D01*
X2367518Y-14964300D01*
X2200082Y-14964300D01*
X2035864Y-14996965D01*
X1881174Y-15061040D01*
X1783800Y-15126102D01*
X1783800Y-13614300D01*
X264098Y-13614300D01*
X205763Y-13625904D01*
X139607Y-13670107D01*
X95404Y-13736263D01*
X83800Y-13794598D01*
X-3669600Y-13794598D01*
X-3669600Y-10526569D01*
X-3668523Y-10510133D01*
X-3654447Y-10403241D01*
X-3645931Y-10371472D01*
X-3607858Y-10279581D01*
X-3591407Y-10251093D01*
X-3530833Y-10172181D01*
X-3507576Y-10148934D01*
X-3428637Y-10088393D01*
X-3400152Y-10071958D01*
X-3308237Y-10033919D01*
X-3276458Y-10025416D01*
X-3169577Y-10011386D01*
X-3153139Y-10010315D01*
X3122602Y-10012937D01*
G37*
%TD.AperFunction*%
%TD*%
%TA.AperFunction,Conductor*%
%TO.N,GND*%
G36*
X-14908141Y36384639D02*
G01*
X-14802977Y36370794D01*
X-14771709Y36362416D01*
X-14681282Y36324960D01*
X-14653248Y36308775D01*
X-14575598Y36249191D01*
X-14552709Y36226302D01*
X-14493126Y36148652D01*
X-14476941Y36120619D01*
X-14439485Y36030192D01*
X-14431107Y35998925D01*
X-14417261Y35893761D01*
X-14416200Y35877575D01*
X-14416200Y31393826D01*
X-14417261Y31377640D01*
X-14431107Y31272476D01*
X-14439485Y31241209D01*
X-14476941Y31150782D01*
X-14493126Y31122749D01*
X-14552709Y31045099D01*
X-14575599Y31022209D01*
X-14653249Y30962626D01*
X-14681282Y30946441D01*
X-14771709Y30908985D01*
X-14802976Y30900607D01*
X-14896802Y30888254D01*
X-14908142Y30886761D01*
X-14924326Y30885700D01*
X-19204388Y30885700D01*
X-19220647Y30886771D01*
X-19234040Y30888543D01*
X-19326285Y30900744D01*
X-19357686Y30909198D01*
X-19361102Y30910621D01*
X-19448461Y30946993D01*
X-19476580Y30963318D01*
X-19554410Y31023415D01*
X-19577317Y31046490D01*
X-19636842Y31124750D01*
X-19652965Y31152991D01*
X-19690097Y31244038D01*
X-19698321Y31275492D01*
X-19711526Y31381234D01*
X-19712478Y31397497D01*
X-19703400Y32645702D01*
X-19700521Y33041504D01*
X-19376199Y33041504D01*
X-19373349Y33011094D01*
X-19328547Y32883055D01*
X-19247993Y32773908D01*
X-19138846Y32693354D01*
X-19010803Y32648551D01*
X-18980408Y32645701D01*
X-18376201Y32645701D01*
X-17376200Y32645701D01*
X-16772004Y32645701D01*
X-16741594Y32648552D01*
X-16613555Y32693354D01*
X-16504408Y32773908D01*
X-16423854Y32883055D01*
X-16379051Y33011096D01*
X-16379051Y33011100D01*
X-16376200Y33041494D01*
X-16376200Y33145700D01*
X-17376200Y33145700D01*
X-17376200Y32645701D01*
X-18376201Y32645701D01*
X-18376200Y32645702D01*
X-18376200Y33145700D01*
X-19376199Y33145700D01*
X-19376199Y33041504D01*
X-19700521Y33041504D01*
X-19691733Y34249907D01*
X-19376200Y34249907D01*
X-19376200Y34145700D01*
X-18376200Y34145700D01*
X-17376200Y34145700D01*
X-16376201Y34145700D01*
X-16376201Y34249897D01*
X-16379052Y34280307D01*
X-16423854Y34408346D01*
X-16504408Y34517493D01*
X-16613555Y34598047D01*
X-16741598Y34642850D01*
X-16771993Y34645700D01*
X-17376200Y34645700D01*
X-17376200Y34145700D01*
X-18376200Y34145700D01*
X-18376200Y34645700D01*
X-18980397Y34645700D01*
X-19010807Y34642849D01*
X-19138846Y34598047D01*
X-19247993Y34517493D01*
X-19328547Y34408346D01*
X-19373350Y34280305D01*
X-19373350Y34280301D01*
X-19376200Y34249907D01*
X-19691733Y34249907D01*
X-19679869Y35881249D01*
X-19678701Y35897348D01*
X-19664221Y36001945D01*
X-19655693Y36033012D01*
X-19617918Y36122820D01*
X-19601673Y36150645D01*
X-19542033Y36227692D01*
X-19519175Y36250385D01*
X-19441688Y36309470D01*
X-19413761Y36325504D01*
X-19323664Y36362632D01*
X-19292539Y36370930D01*
X-19232193Y36378838D01*
X-19187843Y36384649D01*
X-19171732Y36385700D01*
X-14924326Y36385700D01*
X-14908141Y36384639D01*
G37*
%TD.AperFunction*%
%TD*%
M02*
