M48
; DRILL file {KiCad 9.0.7} date 2026-01-15T23:58:57-0500
; FORMAT={-:-/ absolute / inch / decimal}
; #@! TF.CreationDate,2026-01-15T23:58:57-05:00
; #@! TF.GenerationSoftware,Kicad,Pcbnew,9.0.7
; #@! TF.FileFunction,Plated,1,2,PTH
FMAT,2
INCH
; #@! TA.AperFunction,Plated,PTH,ViaDrill
T1C0.0157
; #@! TA.AperFunction,Plated,PTH,ComponentDrill
T2C0.0394
; #@! TA.AperFunction,Plated,PTH,ComponentDrill
T3C0.0472
; #@! TA.AperFunction,Plated,PTH,ComponentDrill
T4C0.0650
; #@! TA.AperFunction,Plated,PTH,ComponentDrill
T5C0.0669
%
G90
G05
T1
X-5.0597Y0.353
X-3.5912Y1.2368
X-3.5436Y1.1557
X-3.3111Y1.1699
X-3.2538Y1.2337
X-3.2317Y1.0979
X-1.2558Y1.2342
X-1.0018Y1.0715
X-0.9672Y1.299
X-0.9365Y1.2337
X-0.7487Y1.2475
X-0.7471Y1.4049
X-0.7018Y1.2475
X-0.7014Y1.4049
X-0.6526Y1.2475
X-0.6502Y1.4049
X-0.6132Y1.3522
X-0.6132Y1.301
X-0.5164Y1.0097
X0.6021Y0.3648
T2
X-3.1424Y1.7809
X-3.1424Y1.6809
X-3.0424Y1.7809
X-3.0424Y1.6809
X-2.9424Y1.7809
X-2.9424Y1.6809
X-2.8424Y1.7809
X-2.8424Y1.6809
X-2.7424Y1.7809
X-2.7424Y1.6809
X-2.6424Y1.7809
X-2.6424Y1.6809
X-2.5424Y1.7809
X-2.5424Y1.6809
X-2.4424Y1.7809
X-2.4424Y1.6809
X-2.3424Y1.7809
X-2.3424Y1.6809
X-2.2424Y1.7809
X-2.2424Y1.6809
X-2.1424Y1.7809
X-2.1424Y1.6809
X-2.0424Y1.7809
X-2.0424Y1.6809
X-1.9424Y1.7809
X-1.9424Y1.6809
X-1.8424Y1.7809
X-1.8424Y1.6809
X-1.7424Y1.7809
X-1.7424Y1.6809
X-1.6424Y1.7809
X-1.6424Y1.6809
X-1.5424Y1.7809
X-1.5424Y1.6809
X-1.4424Y1.7809
X-1.4424Y1.6809
X-1.3424Y1.7809
X-1.3424Y1.6809
X-1.2424Y1.7809
X-1.2424Y1.6809
T3
X-4.2912Y0.5131
X-4.2912Y0.0013
X-3.7007Y0.5131
X-3.7007Y0.0013
X-3.1101Y0.5131
X-3.1056Y0.0013
X-2.5196Y0.5131
X-2.5196Y0.0013
X-1.929Y0.5131
X-1.929Y0.0013
X-1.3385Y0.5131
X-1.3385Y0.0013
X-0.7479Y0.5131
X-0.7479Y0.0013
X-0.1574Y0.5131
X-0.1574Y0.0013
T4
X-4.2084Y-0.3459
X-4.2084Y-0.4915
X-4.2084Y-0.6687
X-4.2084Y-0.8144
X-3.9447Y-0.3465
X-3.9447Y-0.4921
X-3.9447Y-0.6693
X-3.9447Y-0.815
X-3.6809Y-0.3465
X-3.6809Y-0.4921
X-3.6809Y-0.6693
X-3.6809Y-0.815
X-3.4171Y-0.3465
X-3.4171Y-0.4921
X-3.4171Y-0.6693
X-3.4171Y-0.815
X-3.1533Y-0.3463
X-3.1533Y-0.4919
X-3.1533Y-0.6691
X-3.1533Y-0.8148
X-2.8895Y-0.3463
X-2.8895Y-0.4919
X-2.8895Y-0.6691
X-2.8895Y-0.8148
X-2.6257Y-0.3463
X-2.6257Y-0.4919
X-2.6257Y-0.6691
X-2.6257Y-0.8148
X-2.3619Y-0.3463
X-2.3619Y-0.4919
X-2.3619Y-0.6691
X-2.3619Y-0.8148
X-2.0981Y-0.3463
X-2.0981Y-0.4919
X-2.0981Y-0.6691
X-2.0981Y-0.8148
X-1.8343Y-0.3463
X-1.8343Y-0.4919
X-1.8343Y-0.6691
X-1.8343Y-0.8148
X-1.5705Y-0.3463
X-1.5705Y-0.4919
X-1.5705Y-0.6691
X-1.5705Y-0.8148
X-1.3067Y-0.3463
X-1.3067Y-0.4919
X-1.3067Y-0.6691
X-1.3067Y-0.8148
X-1.0429Y-0.3488
X-1.0429Y-0.4945
X-1.0429Y-0.6717
X-1.0429Y-0.8173
X-0.7791Y-0.3488
X-0.7791Y-0.4945
X-0.7791Y-0.6717
X-0.7791Y-0.8173
X-0.5153Y-0.3488
X-0.5153Y-0.4945
X-0.5153Y-0.6717
X-0.5153Y-0.8173
X-0.2515Y-0.3488
X-0.2515Y-0.4945
X-0.2515Y-0.6717
X-0.2515Y-0.8173
T5
X-4.9219Y-0.6265
X-4.5479Y-0.6265
X0.0899Y-0.6226
X0.4639Y-0.6226
T3
G00X-4.4402Y0.5131
M15
G01X-4.4304Y0.5131
M16
G05
G00X-4.4402Y0.0013
M15
G01X-4.4304Y0.0013
M16
G05
G00X-4.1521Y0.5131
M15
G01X-4.1422Y0.5131
M16
G05
G00X-4.1521Y0.0013
M15
G01X-4.1422Y0.0013
M16
G05
G00X-3.8497Y0.5131
M15
G01X-3.8399Y0.5131
M16
G05
G00X-3.8497Y0.0013
M15
G01X-3.8399Y0.0013
M16
G05
G00X-3.5615Y0.5131
M15
G01X-3.5517Y0.5131
M16
G05
G00X-3.5615Y0.0013
M15
G01X-3.5517Y0.0013
M16
G05
G00X-3.2591Y0.5131
M15
G01X-3.2493Y0.5131
M16
G05
G00X-3.2546Y0.0013
M15
G01X-3.2448Y0.0013
M16
G05
G00X-2.971Y0.5131
M15
G01X-2.9611Y0.5131
M16
G05
G00X-2.9665Y0.0013
M15
G01X-2.9566Y0.0013
M16
G05
G00X-2.6686Y0.5131
M15
G01X-2.6587Y0.5131
M16
G05
G00X-2.6686Y0.0013
M15
G01X-2.6587Y0.0013
M16
G05
G00X-2.3804Y0.5131
M15
G01X-2.3706Y0.5131
M16
G05
G00X-2.3804Y0.0013
M15
G01X-2.3706Y0.0013
M16
G05
G00X-2.078Y0.5131
M15
G01X-2.0682Y0.5131
M16
G05
G00X-2.078Y0.0013
M15
G01X-2.0682Y0.0013
M16
G05
G00X-1.7899Y0.5131
M15
G01X-1.78Y0.5131
M16
G05
G00X-1.7899Y0.0013
M15
G01X-1.78Y0.0013
M16
G05
G00X-1.4875Y0.5131
M15
G01X-1.4776Y0.5131
M16
G05
G00X-1.4875Y0.0013
M15
G01X-1.4776Y0.0013
M16
G05
G00X-1.1993Y0.5131
M15
G01X-1.1895Y0.5131
M16
G05
G00X-1.1993Y0.0013
M15
G01X-1.1895Y0.0013
M16
G05
G00X-0.8969Y0.5131
M15
G01X-0.8871Y0.5131
M16
G05
G00X-0.8969Y0.0013
M15
G01X-0.8871Y0.0013
M16
G05
G00X-0.6087Y0.5131
M15
G01X-0.5989Y0.5131
M16
G05
G00X-0.6087Y0.0013
M15
G01X-0.5989Y0.0013
M16
G05
G00X-0.3064Y0.5131
M15
G01X-0.2965Y0.5131
M16
G05
G00X-0.3064Y0.0013
M15
G01X-0.2965Y0.0013
M16
G05
G00X-0.0182Y0.5131
M15
G01X-0.0084Y0.5131
M16
G05
G00X-0.0182Y0.0013
M15
G01X-0.0084Y0.0013
M16
G05
M30
