M48
; DRILL file {KiCad (6.0.5)} date Sun Jun  5 14:12:05 2022
; FORMAT={-:-/ absolute / inch / decimal}
; #@! TF.CreationDate,2022-06-05T14:12:05-04:00
; #@! TF.GenerationSoftware,Kicad,Pcbnew,(6.0.5)
; #@! TF.FileFunction,Plated,1,2,PTH
FMAT,2
INCH
; #@! TA.AperFunction,Plated,PTH,ViaDrill
T1C0.0157
; #@! TA.AperFunction,Plated,PTH,ComponentDrill
T2C0.0315
; #@! TA.AperFunction,Plated,PTH,ComponentDrill
T3C0.0400
; #@! TA.AperFunction,Plated,PTH,ComponentDrill
T4C0.0472
; #@! TA.AperFunction,Plated,PTH,ComponentDrill
T5C0.0650
; #@! TA.AperFunction,Plated,PTH,ComponentDrill
T6C0.0669
%
G90
G05
T1
X2.8544Y-4.7094
X2.876Y-3.4535
X2.876Y-4.0046
X2.8859Y-3.7094
X2.8859Y-4.2999
X2.9489Y-4.7881
X3.0532Y-5.2448
X3.1934Y-5.45
X3.2734Y-5.45
X3.3288Y-4.3393
X3.3534Y-5.45
X3.5552Y-3.4731
X3.5748Y-3.1582
X3.6083Y-4.3019
X3.7244Y-4.3767
X3.876Y-4.5046
X3.8839Y-4.7231
X3.9961Y-3.1306
X4.067Y-4.3668
X4.13Y-4.1109
X4.193Y-3.7487
X4.2638Y-3.8511
X4.2638Y-4.0164
X4.2658Y-3.5952
X4.2953Y-4.3668
X4.3839Y-3.4771
X4.5788Y-4.3708
X4.6378Y-3.1188
X4.6418Y-3.8432
X4.6496Y-4.0243
X4.6615Y-3.4594
X4.6654Y-3.3157
X4.8071Y-3.7409
X4.8229Y-3.9613
X4.8563Y-4.357
X4.9095Y-4.0401
X4.9174Y-3.0893
X5.0099Y-4.479
X5.0256Y-3.0853
X5.065Y-4.7231
X5.0709Y-4.3787
X5.1241Y-3.0853
X5.2244Y-3.0853
X5.2402Y-4.357
X5.2579Y-4.2054
X5.2599Y-3.7527
X5.3248Y-3.0834
X5.3741Y-4.0302
X5.4252Y-3.0853
X5.4941Y-3.6424
X5.5Y-4.3708
X5.5256Y-3.0853
X5.5965Y-4.9672
X5.6181Y-3.6877
X5.6181Y-4.042
X5.6201Y-4.7842
X5.626Y-3.0853
X5.6359Y-4.481
X5.7028Y-4.1976
X5.7244Y-3.0834
X5.8268Y-3.0814
X5.9252Y-3.0814
X5.9252Y-4.0322
X5.9685Y-3.6936
X5.9744Y-4.1877
X6.0256Y-3.0814
X6.0493Y-3.6523
X6.0709Y-4.3767
X6.126Y-3.0834
X6.1339Y-3.6306
X6.1752Y-4.0066
X6.1772Y-3.859
X6.2126Y-3.609
X6.2126Y-4.0873
X6.2185Y-4.4259
X6.2205Y-4.7645
X6.2264Y-3.0814
X6.3268Y-3.0814
X6.3327Y-3.5853
X6.3426Y-3.733
X6.3583Y-4.3708
X6.4272Y-3.0814
X6.4587Y-3.546
X6.504Y-4.0066
X6.5296Y-3.0814
X6.5414Y-3.5243
X6.5473Y-3.7566
X6.5847Y-4.3668
X6.5945Y-3.8432
X6.628Y-4.9318
X6.7363Y-3.4968
X6.7426Y-3.1976
X6.7737Y-3.3511
X6.8229Y-4.5164
X6.9331Y-4.0164
X6.943Y-3.3472
X6.9626Y-3.5066
X6.9725Y-3.8511
X6.9882Y-4.0164
X7.1142Y-3.9692
X7.1241Y-3.4101
X7.13Y-3.7094
X7.1615Y-4.3668
X7.193Y-3.1346
X7.2008Y-3.9692
X7.3248Y-3.5853
X7.3307Y-4.355
X7.3741Y-4.0243
X7.378Y-3.8747
X7.38Y-3.7468
X7.3839Y-4.7448
X7.4252Y-3.8747
X7.4272Y-3.7468
X7.4744Y-3.7468
X7.4744Y-3.8747
X7.4882Y-4.1877
X7.5138Y-3.7842
X7.5138Y-3.8353
X7.5315Y-3.5913
X7.7678Y-3.9613
X7.7678Y-4.1267
X7.7697Y-4.3255
X7.8465Y-4.0479
X7.8642Y-5.4279
X7.8859Y-4.9298
X7.9154Y-3.1483
X7.9252Y-3.5125
X8.002Y-5.4239
X8.0197Y-4.4023
X8.1734Y-5.41
X8.2008Y-3.9456
X8.2363Y-4.4003
X8.4292Y-4.796
X8.5158Y-3.3944
X8.5158Y-4.2605
X8.5237Y-4.7015
X8.5355Y-3.9259
T2
X3.7623Y-4.284
X3.8623Y-4.284
X3.9623Y-4.284
X4.0623Y-4.284
X4.1623Y-4.284
X4.2623Y-4.284
X4.3623Y-4.284
X4.4623Y-4.284
X4.6005Y-4.284
X4.7005Y-4.284
X4.8005Y-4.284
X4.9005Y-4.284
X5.0005Y-4.284
X5.1005Y-4.284
X5.2005Y-4.284
X5.3005Y-4.284
X6.0428Y-4.284
X6.1428Y-4.284
X6.2428Y-4.284
X6.3428Y-4.284
X6.4428Y-4.284
X6.5428Y-4.284
X6.6428Y-4.284
X6.7428Y-4.284
X6.8824Y-4.284
X6.9824Y-4.284
X7.0824Y-4.284
X7.1824Y-4.284
X7.2824Y-4.284
X7.3824Y-4.284
X7.4824Y-4.284
X7.5824Y-4.284
T3
X4.7756Y-3.3275
X4.7756Y-3.4275
X4.8756Y-3.3275
X4.8756Y-3.4275
X4.9756Y-3.3275
X4.9756Y-3.4275
X5.0756Y-3.3275
X5.0756Y-3.4275
X5.1756Y-3.3275
X5.1756Y-3.4275
X5.2756Y-3.3275
X5.2756Y-3.4275
X5.3756Y-3.3275
X5.3756Y-3.4275
X5.4756Y-3.3275
X5.4756Y-3.4275
X5.5756Y-3.3275
X5.5756Y-3.4275
X5.6756Y-3.3275
X5.6756Y-3.4275
X5.7756Y-3.3275
X5.7756Y-3.4275
X5.8756Y-3.3275
X5.8756Y-3.4275
X5.9756Y-3.3275
X5.9756Y-3.4275
X6.0756Y-3.3275
X6.0756Y-3.4275
X6.1756Y-3.3275
X6.1756Y-3.4275
X6.2756Y-3.3275
X6.2756Y-3.4275
X6.3756Y-3.3275
X6.3756Y-3.4275
X6.4756Y-3.3275
X6.4756Y-3.4275
X6.5756Y-3.3275
X6.5756Y-3.4275
X6.6756Y-3.3275
X6.6756Y-3.4275
T4
X3.5079Y-4.5906
X3.5079Y-5.1024
X3.6457Y-4.5906
X3.6457Y-5.1024
X3.7835Y-4.5906
X3.7835Y-5.1024
X4.0984Y-4.5906
X4.0984Y-5.1024
X4.2362Y-4.5906
X4.2362Y-5.1024
X4.374Y-4.5906
X4.374Y-5.1024
X4.689Y-4.5906
X4.6935Y-5.1024
X4.8268Y-4.5906
X4.8313Y-5.1024
X4.9646Y-4.5906
X4.9691Y-5.1024
X5.2795Y-4.5906
X5.2795Y-5.1024
X5.4173Y-4.5906
X5.4173Y-5.1024
X5.5551Y-4.5906
X5.5551Y-5.1024
X5.8701Y-4.5906
X5.8701Y-5.1024
X6.0079Y-4.5906
X6.0079Y-5.1024
X6.1457Y-4.5906
X6.1457Y-5.1024
X6.4606Y-4.5906
X6.4606Y-5.1024
X6.5984Y-4.5906
X6.5984Y-5.1024
X6.7362Y-4.5906
X6.7362Y-5.1024
X7.0512Y-4.5906
X7.0512Y-5.1024
X7.189Y-4.5906
X7.189Y-5.1024
X7.3268Y-4.5906
X7.3268Y-5.1024
X7.6417Y-4.5906
X7.6417Y-5.1024
X7.7795Y-4.5906
X7.7795Y-5.1024
X7.9173Y-4.5906
X7.9173Y-5.1024
T5
X3.7096Y-5.4484
X3.7096Y-5.594
X3.7096Y-5.7712
X3.7096Y-5.9169
X3.9733Y-5.449
X3.9733Y-5.5946
X3.9733Y-5.7718
X3.9733Y-5.9175
X4.2371Y-5.449
X4.2371Y-5.5946
X4.2371Y-5.7718
X4.2371Y-5.9175
X4.5009Y-5.449
X4.5009Y-5.5946
X4.5009Y-5.7718
X4.5009Y-5.9175
X4.7647Y-5.4488
X4.7647Y-5.5944
X4.7647Y-5.7716
X4.7647Y-5.9173
X5.0285Y-5.4488
X5.0285Y-5.5944
X5.0285Y-5.7716
X5.0285Y-5.9173
X5.2923Y-5.4488
X5.2923Y-5.5944
X5.2923Y-5.7716
X5.2923Y-5.9173
X5.5561Y-5.4488
X5.5561Y-5.5944
X5.5561Y-5.7716
X5.5561Y-5.9173
X5.8199Y-5.4488
X5.8199Y-5.5944
X5.8199Y-5.7716
X5.8199Y-5.9173
X6.0837Y-5.4488
X6.0837Y-5.5944
X6.0837Y-5.7716
X6.0837Y-5.9173
X6.3475Y-5.4488
X6.3475Y-5.5944
X6.3475Y-5.7716
X6.3475Y-5.9173
X6.6113Y-5.4488
X6.6113Y-5.5944
X6.6113Y-5.7716
X6.6113Y-5.9173
X6.8751Y-5.4513
X6.8751Y-5.597
X6.8751Y-5.7742
X6.8751Y-5.9198
X7.1389Y-5.4513
X7.1389Y-5.597
X7.1389Y-5.7742
X7.1389Y-5.9198
X7.4027Y-5.4513
X7.4027Y-5.597
X7.4027Y-5.7742
X7.4027Y-5.9198
X7.6665Y-5.4513
X7.6665Y-5.597
X7.6665Y-5.7742
X7.6665Y-5.9198
T6
X2.9961Y-5.729
X3.3701Y-5.729
X8.0079Y-5.7251
X8.3819Y-5.7251
T0
M30
