%TF.GenerationSoftware,KiCad,Pcbnew,9.0.7*%
%TF.CreationDate,2026-02-20T17:46:54-05:00*%
%TF.ProjectId,PB_16,50425f31-362e-46b6-9963-61645f706362,v1*%
%TF.SameCoordinates,Original*%
%TF.FileFunction,Soldermask,Bot*%
%TF.FilePolarity,Negative*%
%FSLAX46Y46*%
G04 Gerber Fmt 4.6, Leading zero omitted, Abs format (unit mm)*
G04 Created by KiCad (PCBNEW 9.0.7) date 2026-02-20 17:46:54*
%MOMM*%
%LPD*%
G01*
G04 APERTURE LIST*
G04 APERTURE END LIST*
G36*
X218442598Y-117538161D02*
G01*
X218454116Y-117538161D01*
X218499123Y-117547113D01*
X218596360Y-117562514D01*
X218627636Y-117572676D01*
X218656189Y-117578356D01*
X218696487Y-117595048D01*
X218753152Y-117613460D01*
X218806235Y-117640507D01*
X218846538Y-117657201D01*
X218870747Y-117673377D01*
X218900043Y-117688304D01*
X218979683Y-117746166D01*
X219017847Y-117771666D01*
X219025991Y-117779810D01*
X219033415Y-117785204D01*
X219149995Y-117901784D01*
X219155388Y-117909207D01*
X219163534Y-117917353D01*
X219189036Y-117955520D01*
X219246895Y-118035156D01*
X219261820Y-118064448D01*
X219277999Y-118088662D01*
X219294694Y-118128969D01*
X219321739Y-118182047D01*
X219340148Y-118238704D01*
X219356844Y-118279011D01*
X219362524Y-118307569D01*
X219372685Y-118338839D01*
X219388084Y-118436067D01*
X219397039Y-118481084D01*
X219397039Y-118492602D01*
X219398475Y-118501669D01*
X219398475Y-118666530D01*
X219397039Y-118675596D01*
X219397039Y-118687116D01*
X219388083Y-118732135D01*
X219372685Y-118829360D01*
X219362525Y-118860628D01*
X219356844Y-118889189D01*
X219340147Y-118929498D01*
X219321739Y-118986152D01*
X219294696Y-119039225D01*
X219277999Y-119079538D01*
X219261818Y-119103754D01*
X219246895Y-119133043D01*
X219189045Y-119212666D01*
X219163534Y-119250847D01*
X219155385Y-119258995D01*
X219149995Y-119266415D01*
X219033415Y-119382995D01*
X219025995Y-119388385D01*
X219017847Y-119396534D01*
X218979666Y-119422045D01*
X218900043Y-119479895D01*
X218870754Y-119494818D01*
X218846538Y-119510999D01*
X218806225Y-119527696D01*
X218753152Y-119554739D01*
X218696498Y-119573147D01*
X218656189Y-119589844D01*
X218627628Y-119595525D01*
X218596360Y-119605685D01*
X218499133Y-119621084D01*
X218454116Y-119630039D01*
X218442597Y-119630039D01*
X218433531Y-119631475D01*
X218268669Y-119631475D01*
X218259603Y-119630039D01*
X218248084Y-119630039D01*
X218203067Y-119621084D01*
X218105839Y-119605685D01*
X218074569Y-119595524D01*
X218046011Y-119589844D01*
X218005704Y-119573148D01*
X217949047Y-119554739D01*
X217895969Y-119527694D01*
X217855662Y-119510999D01*
X217831448Y-119494820D01*
X217802156Y-119479895D01*
X217722520Y-119422036D01*
X217684353Y-119396534D01*
X217676207Y-119388388D01*
X217668784Y-119382995D01*
X217552204Y-119266415D01*
X217546810Y-119258991D01*
X217538666Y-119250847D01*
X217513166Y-119212683D01*
X217455304Y-119133043D01*
X217440377Y-119103747D01*
X217424201Y-119079538D01*
X217407507Y-119039235D01*
X217380460Y-118986152D01*
X217362048Y-118929487D01*
X217345356Y-118889189D01*
X217339676Y-118860636D01*
X217329514Y-118829360D01*
X217314114Y-118732126D01*
X217305161Y-118687116D01*
X217305161Y-118675596D01*
X217303725Y-118666530D01*
X217303725Y-118501669D01*
X217305161Y-118492602D01*
X217305161Y-118481084D01*
X217314113Y-118436077D01*
X217329514Y-118338839D01*
X217339676Y-118307561D01*
X217345356Y-118279011D01*
X217362046Y-118238716D01*
X217380460Y-118182047D01*
X217407509Y-118128958D01*
X217424201Y-118088662D01*
X217440375Y-118064455D01*
X217455304Y-118035156D01*
X217513174Y-117955503D01*
X217538666Y-117917353D01*
X217546807Y-117909211D01*
X217552204Y-117901784D01*
X217668784Y-117785204D01*
X217676211Y-117779807D01*
X217684353Y-117771666D01*
X217722503Y-117746174D01*
X217802156Y-117688304D01*
X217831455Y-117673375D01*
X217855662Y-117657201D01*
X217895958Y-117640509D01*
X217949047Y-117613460D01*
X218005716Y-117595046D01*
X218046011Y-117578356D01*
X218074561Y-117572676D01*
X218105839Y-117562514D01*
X218203077Y-117547113D01*
X218248084Y-117538161D01*
X218259602Y-117538161D01*
X218268669Y-117536725D01*
X218433531Y-117536725D01*
X218442598Y-117538161D01*
G37*
G36*
X224942598Y-117538161D02*
G01*
X224954116Y-117538161D01*
X224999123Y-117547113D01*
X225096360Y-117562514D01*
X225127636Y-117572676D01*
X225156189Y-117578356D01*
X225196487Y-117595048D01*
X225253152Y-117613460D01*
X225306235Y-117640507D01*
X225346538Y-117657201D01*
X225370747Y-117673377D01*
X225400043Y-117688304D01*
X225479683Y-117746166D01*
X225517847Y-117771666D01*
X225525991Y-117779810D01*
X225533415Y-117785204D01*
X225649995Y-117901784D01*
X225655388Y-117909207D01*
X225663534Y-117917353D01*
X225689036Y-117955520D01*
X225746895Y-118035156D01*
X225761820Y-118064448D01*
X225777999Y-118088662D01*
X225794694Y-118128969D01*
X225821739Y-118182047D01*
X225840148Y-118238704D01*
X225856844Y-118279011D01*
X225862524Y-118307569D01*
X225872685Y-118338839D01*
X225888084Y-118436067D01*
X225897039Y-118481084D01*
X225897039Y-118492602D01*
X225898475Y-118501669D01*
X225898475Y-118666530D01*
X225897039Y-118675596D01*
X225897039Y-118687116D01*
X225888083Y-118732135D01*
X225872685Y-118829360D01*
X225862525Y-118860628D01*
X225856844Y-118889189D01*
X225840147Y-118929498D01*
X225821739Y-118986152D01*
X225794696Y-119039225D01*
X225777999Y-119079538D01*
X225761818Y-119103754D01*
X225746895Y-119133043D01*
X225689045Y-119212666D01*
X225663534Y-119250847D01*
X225655385Y-119258995D01*
X225649995Y-119266415D01*
X225533415Y-119382995D01*
X225525995Y-119388385D01*
X225517847Y-119396534D01*
X225479666Y-119422045D01*
X225400043Y-119479895D01*
X225370754Y-119494818D01*
X225346538Y-119510999D01*
X225306225Y-119527696D01*
X225253152Y-119554739D01*
X225196498Y-119573147D01*
X225156189Y-119589844D01*
X225127628Y-119595525D01*
X225096360Y-119605685D01*
X224999133Y-119621084D01*
X224954116Y-119630039D01*
X224942597Y-119630039D01*
X224933531Y-119631475D01*
X224768669Y-119631475D01*
X224759603Y-119630039D01*
X224748084Y-119630039D01*
X224703067Y-119621084D01*
X224605839Y-119605685D01*
X224574569Y-119595524D01*
X224546011Y-119589844D01*
X224505704Y-119573148D01*
X224449047Y-119554739D01*
X224395969Y-119527694D01*
X224355662Y-119510999D01*
X224331448Y-119494820D01*
X224302156Y-119479895D01*
X224222520Y-119422036D01*
X224184353Y-119396534D01*
X224176207Y-119388388D01*
X224168784Y-119382995D01*
X224052204Y-119266415D01*
X224046810Y-119258991D01*
X224038666Y-119250847D01*
X224013166Y-119212683D01*
X223955304Y-119133043D01*
X223940377Y-119103747D01*
X223924201Y-119079538D01*
X223907507Y-119039235D01*
X223880460Y-118986152D01*
X223862048Y-118929487D01*
X223845356Y-118889189D01*
X223839676Y-118860636D01*
X223829514Y-118829360D01*
X223814114Y-118732126D01*
X223805161Y-118687116D01*
X223805161Y-118675596D01*
X223803725Y-118666530D01*
X223803725Y-118501669D01*
X223805161Y-118492602D01*
X223805161Y-118481084D01*
X223814113Y-118436077D01*
X223829514Y-118338839D01*
X223839676Y-118307561D01*
X223845356Y-118279011D01*
X223862046Y-118238716D01*
X223880460Y-118182047D01*
X223907509Y-118128958D01*
X223924201Y-118088662D01*
X223940375Y-118064455D01*
X223955304Y-118035156D01*
X224013174Y-117955503D01*
X224038666Y-117917353D01*
X224046807Y-117909211D01*
X224052204Y-117901784D01*
X224168784Y-117785204D01*
X224176211Y-117779807D01*
X224184353Y-117771666D01*
X224222503Y-117746174D01*
X224302156Y-117688304D01*
X224331455Y-117673375D01*
X224355662Y-117657201D01*
X224395958Y-117640509D01*
X224449047Y-117613460D01*
X224505716Y-117595046D01*
X224546011Y-117578356D01*
X224574561Y-117572676D01*
X224605839Y-117562514D01*
X224703077Y-117547113D01*
X224748084Y-117538161D01*
X224759602Y-117538161D01*
X224768669Y-117536725D01*
X224933531Y-117536725D01*
X224942598Y-117538161D01*
G37*
G36*
X205221898Y-117525461D02*
G01*
X205233416Y-117525461D01*
X205278423Y-117534413D01*
X205375660Y-117549814D01*
X205406936Y-117559976D01*
X205435489Y-117565656D01*
X205475787Y-117582348D01*
X205532452Y-117600760D01*
X205585535Y-117627807D01*
X205625838Y-117644501D01*
X205650047Y-117660677D01*
X205679343Y-117675604D01*
X205758983Y-117733466D01*
X205797147Y-117758966D01*
X205805291Y-117767110D01*
X205812715Y-117772504D01*
X205929295Y-117889084D01*
X205934688Y-117896507D01*
X205942834Y-117904653D01*
X205968336Y-117942820D01*
X206026195Y-118022456D01*
X206041120Y-118051748D01*
X206057299Y-118075962D01*
X206073994Y-118116269D01*
X206101039Y-118169347D01*
X206119448Y-118226004D01*
X206136144Y-118266311D01*
X206141824Y-118294869D01*
X206151985Y-118326139D01*
X206167384Y-118423367D01*
X206176339Y-118468384D01*
X206176339Y-118479902D01*
X206177775Y-118488969D01*
X206177775Y-118653830D01*
X206176339Y-118662896D01*
X206176339Y-118674416D01*
X206167383Y-118719435D01*
X206151985Y-118816660D01*
X206141825Y-118847928D01*
X206136144Y-118876489D01*
X206119447Y-118916798D01*
X206101039Y-118973452D01*
X206073996Y-119026525D01*
X206057299Y-119066838D01*
X206041118Y-119091054D01*
X206026195Y-119120343D01*
X205968345Y-119199966D01*
X205942834Y-119238147D01*
X205934685Y-119246295D01*
X205929295Y-119253715D01*
X205812715Y-119370295D01*
X205805295Y-119375685D01*
X205797147Y-119383834D01*
X205758966Y-119409345D01*
X205679343Y-119467195D01*
X205650054Y-119482118D01*
X205625838Y-119498299D01*
X205585525Y-119514996D01*
X205532452Y-119542039D01*
X205475798Y-119560447D01*
X205435489Y-119577144D01*
X205406928Y-119582825D01*
X205375660Y-119592985D01*
X205278433Y-119608384D01*
X205233416Y-119617339D01*
X205221897Y-119617339D01*
X205212831Y-119618775D01*
X205047969Y-119618775D01*
X205038903Y-119617339D01*
X205027384Y-119617339D01*
X204982367Y-119608384D01*
X204885139Y-119592985D01*
X204853869Y-119582824D01*
X204825311Y-119577144D01*
X204785004Y-119560448D01*
X204728347Y-119542039D01*
X204675269Y-119514994D01*
X204634962Y-119498299D01*
X204610748Y-119482120D01*
X204581456Y-119467195D01*
X204501820Y-119409336D01*
X204463653Y-119383834D01*
X204455507Y-119375688D01*
X204448084Y-119370295D01*
X204331504Y-119253715D01*
X204326110Y-119246291D01*
X204317966Y-119238147D01*
X204292466Y-119199983D01*
X204234604Y-119120343D01*
X204219677Y-119091047D01*
X204203501Y-119066838D01*
X204186807Y-119026535D01*
X204159760Y-118973452D01*
X204141348Y-118916787D01*
X204124656Y-118876489D01*
X204118976Y-118847936D01*
X204108814Y-118816660D01*
X204093414Y-118719426D01*
X204084461Y-118674416D01*
X204084461Y-118662896D01*
X204083025Y-118653830D01*
X204083025Y-118488969D01*
X204084461Y-118479902D01*
X204084461Y-118468384D01*
X204093413Y-118423377D01*
X204108814Y-118326139D01*
X204118976Y-118294861D01*
X204124656Y-118266311D01*
X204141346Y-118226016D01*
X204159760Y-118169347D01*
X204186809Y-118116258D01*
X204203501Y-118075962D01*
X204219675Y-118051755D01*
X204234604Y-118022456D01*
X204292474Y-117942803D01*
X204317966Y-117904653D01*
X204326107Y-117896511D01*
X204331504Y-117889084D01*
X204448084Y-117772504D01*
X204455511Y-117767107D01*
X204463653Y-117758966D01*
X204501803Y-117733474D01*
X204581456Y-117675604D01*
X204610755Y-117660675D01*
X204634962Y-117644501D01*
X204675258Y-117627809D01*
X204728347Y-117600760D01*
X204785016Y-117582346D01*
X204825311Y-117565656D01*
X204853861Y-117559976D01*
X204885139Y-117549814D01*
X204982377Y-117534413D01*
X205027384Y-117525461D01*
X205038902Y-117525461D01*
X205047969Y-117524025D01*
X205212831Y-117524025D01*
X205221898Y-117525461D01*
G37*
G36*
X211721898Y-117525461D02*
G01*
X211733416Y-117525461D01*
X211778423Y-117534413D01*
X211875660Y-117549814D01*
X211906936Y-117559976D01*
X211935489Y-117565656D01*
X211975787Y-117582348D01*
X212032452Y-117600760D01*
X212085535Y-117627807D01*
X212125838Y-117644501D01*
X212150047Y-117660677D01*
X212179343Y-117675604D01*
X212258983Y-117733466D01*
X212297147Y-117758966D01*
X212305291Y-117767110D01*
X212312715Y-117772504D01*
X212429295Y-117889084D01*
X212434688Y-117896507D01*
X212442834Y-117904653D01*
X212468336Y-117942820D01*
X212526195Y-118022456D01*
X212541120Y-118051748D01*
X212557299Y-118075962D01*
X212573994Y-118116269D01*
X212601039Y-118169347D01*
X212619448Y-118226004D01*
X212636144Y-118266311D01*
X212641824Y-118294869D01*
X212651985Y-118326139D01*
X212667384Y-118423367D01*
X212676339Y-118468384D01*
X212676339Y-118479902D01*
X212677775Y-118488969D01*
X212677775Y-118653830D01*
X212676339Y-118662896D01*
X212676339Y-118674416D01*
X212667383Y-118719435D01*
X212651985Y-118816660D01*
X212641825Y-118847928D01*
X212636144Y-118876489D01*
X212619447Y-118916798D01*
X212601039Y-118973452D01*
X212573996Y-119026525D01*
X212557299Y-119066838D01*
X212541118Y-119091054D01*
X212526195Y-119120343D01*
X212468345Y-119199966D01*
X212442834Y-119238147D01*
X212434685Y-119246295D01*
X212429295Y-119253715D01*
X212312715Y-119370295D01*
X212305295Y-119375685D01*
X212297147Y-119383834D01*
X212258966Y-119409345D01*
X212179343Y-119467195D01*
X212150054Y-119482118D01*
X212125838Y-119498299D01*
X212085525Y-119514996D01*
X212032452Y-119542039D01*
X211975798Y-119560447D01*
X211935489Y-119577144D01*
X211906928Y-119582825D01*
X211875660Y-119592985D01*
X211778433Y-119608384D01*
X211733416Y-119617339D01*
X211721897Y-119617339D01*
X211712831Y-119618775D01*
X211547969Y-119618775D01*
X211538903Y-119617339D01*
X211527384Y-119617339D01*
X211482367Y-119608384D01*
X211385139Y-119592985D01*
X211353869Y-119582824D01*
X211325311Y-119577144D01*
X211285004Y-119560448D01*
X211228347Y-119542039D01*
X211175269Y-119514994D01*
X211134962Y-119498299D01*
X211110748Y-119482120D01*
X211081456Y-119467195D01*
X211001820Y-119409336D01*
X210963653Y-119383834D01*
X210955507Y-119375688D01*
X210948084Y-119370295D01*
X210831504Y-119253715D01*
X210826110Y-119246291D01*
X210817966Y-119238147D01*
X210792466Y-119199983D01*
X210734604Y-119120343D01*
X210719677Y-119091047D01*
X210703501Y-119066838D01*
X210686807Y-119026535D01*
X210659760Y-118973452D01*
X210641348Y-118916787D01*
X210624656Y-118876489D01*
X210618976Y-118847936D01*
X210608814Y-118816660D01*
X210593414Y-118719426D01*
X210584461Y-118674416D01*
X210584461Y-118662896D01*
X210583025Y-118653830D01*
X210583025Y-118488969D01*
X210584461Y-118479902D01*
X210584461Y-118468384D01*
X210593413Y-118423377D01*
X210608814Y-118326139D01*
X210618976Y-118294861D01*
X210624656Y-118266311D01*
X210641346Y-118226016D01*
X210659760Y-118169347D01*
X210686809Y-118116258D01*
X210703501Y-118075962D01*
X210719675Y-118051755D01*
X210734604Y-118022456D01*
X210792474Y-117942803D01*
X210817966Y-117904653D01*
X210826107Y-117896511D01*
X210831504Y-117889084D01*
X210948084Y-117772504D01*
X210955511Y-117767107D01*
X210963653Y-117758966D01*
X211001803Y-117733474D01*
X211081456Y-117675604D01*
X211110755Y-117660675D01*
X211134962Y-117644501D01*
X211175258Y-117627809D01*
X211228347Y-117600760D01*
X211285016Y-117582346D01*
X211325311Y-117565656D01*
X211353861Y-117559976D01*
X211385139Y-117549814D01*
X211482377Y-117534413D01*
X211527384Y-117525461D01*
X211538902Y-117525461D01*
X211547969Y-117524025D01*
X211712831Y-117524025D01*
X211721898Y-117525461D01*
G37*
G36*
X140013314Y-117539035D02*
G01*
X140029126Y-117546016D01*
X140036931Y-117547253D01*
X140069439Y-117563816D01*
X140114506Y-117583716D01*
X140192724Y-117661934D01*
X140212626Y-117707007D01*
X140229186Y-117739508D01*
X140230421Y-117747310D01*
X140237405Y-117763126D01*
X140245400Y-117832040D01*
X140245400Y-119282040D01*
X140237405Y-119350954D01*
X140230421Y-119366769D01*
X140229186Y-119374571D01*
X140212629Y-119407064D01*
X140192724Y-119452146D01*
X140114506Y-119530364D01*
X140069424Y-119550269D01*
X140036931Y-119566826D01*
X140029129Y-119568061D01*
X140013314Y-119575045D01*
X139944400Y-119583040D01*
X138744400Y-119583040D01*
X138675486Y-119575045D01*
X138659670Y-119568061D01*
X138651868Y-119566826D01*
X138619367Y-119550266D01*
X138574294Y-119530364D01*
X138496076Y-119452146D01*
X138476176Y-119407079D01*
X138459613Y-119374571D01*
X138458376Y-119366766D01*
X138451395Y-119350954D01*
X138443400Y-119282040D01*
X138443400Y-117832040D01*
X138451395Y-117763126D01*
X138458376Y-117747314D01*
X138459613Y-117739508D01*
X138476180Y-117706993D01*
X138496076Y-117661934D01*
X138574294Y-117583716D01*
X138619353Y-117563820D01*
X138651868Y-117547253D01*
X138659674Y-117546016D01*
X138675486Y-117539035D01*
X138744400Y-117531040D01*
X139944400Y-117531040D01*
X140013314Y-117539035D01*
G37*
G36*
X132105946Y-117569837D02*
G01*
X132269128Y-117637429D01*
X132415988Y-117735558D01*
X132540882Y-117860452D01*
X132639011Y-118007312D01*
X132706603Y-118170494D01*
X132741061Y-118343727D01*
X132745400Y-118432040D01*
X132745400Y-118682040D01*
X132741061Y-118770353D01*
X132706603Y-118943586D01*
X132639011Y-119106768D01*
X132540882Y-119253628D01*
X132415988Y-119378522D01*
X132269128Y-119476651D01*
X132105946Y-119544243D01*
X131932713Y-119578701D01*
X131756087Y-119578701D01*
X131582854Y-119544243D01*
X131419672Y-119476651D01*
X131272812Y-119378522D01*
X131147918Y-119253628D01*
X131049789Y-119106768D01*
X130982197Y-118943586D01*
X130947739Y-118770353D01*
X130943400Y-118682040D01*
X130943400Y-118432040D01*
X130947739Y-118343727D01*
X130982197Y-118170494D01*
X131049789Y-118007312D01*
X131147918Y-117860452D01*
X131272812Y-117735558D01*
X131419672Y-117637429D01*
X131582854Y-117569837D01*
X131756087Y-117535379D01*
X131932713Y-117535379D01*
X132105946Y-117569837D01*
G37*
G36*
X134605946Y-117569837D02*
G01*
X134769128Y-117637429D01*
X134915988Y-117735558D01*
X135040882Y-117860452D01*
X135139011Y-118007312D01*
X135206603Y-118170494D01*
X135241061Y-118343727D01*
X135245400Y-118432040D01*
X135245400Y-118682040D01*
X135241061Y-118770353D01*
X135206603Y-118943586D01*
X135139011Y-119106768D01*
X135040882Y-119253628D01*
X134915988Y-119378522D01*
X134769128Y-119476651D01*
X134605946Y-119544243D01*
X134432713Y-119578701D01*
X134256087Y-119578701D01*
X134082854Y-119544243D01*
X133919672Y-119476651D01*
X133772812Y-119378522D01*
X133647918Y-119253628D01*
X133549789Y-119106768D01*
X133482197Y-118943586D01*
X133447739Y-118770353D01*
X133443400Y-118682040D01*
X133443400Y-118432040D01*
X133447739Y-118343727D01*
X133482197Y-118170494D01*
X133549789Y-118007312D01*
X133647918Y-117860452D01*
X133772812Y-117735558D01*
X133919672Y-117637429D01*
X134082854Y-117569837D01*
X134256087Y-117535379D01*
X134432713Y-117535379D01*
X134605946Y-117569837D01*
G37*
G36*
X137105946Y-117569837D02*
G01*
X137269128Y-117637429D01*
X137415988Y-117735558D01*
X137540882Y-117860452D01*
X137639011Y-118007312D01*
X137706603Y-118170494D01*
X137741061Y-118343727D01*
X137745400Y-118432040D01*
X137745400Y-118682040D01*
X137741061Y-118770353D01*
X137706603Y-118943586D01*
X137639011Y-119106768D01*
X137540882Y-119253628D01*
X137415988Y-119378522D01*
X137269128Y-119476651D01*
X137105946Y-119544243D01*
X136932713Y-119578701D01*
X136756087Y-119578701D01*
X136582854Y-119544243D01*
X136419672Y-119476651D01*
X136272812Y-119378522D01*
X136147918Y-119253628D01*
X136049789Y-119106768D01*
X135982197Y-118943586D01*
X135947739Y-118770353D01*
X135943400Y-118682040D01*
X135943400Y-118432040D01*
X135947739Y-118343727D01*
X135982197Y-118170494D01*
X136049789Y-118007312D01*
X136147918Y-117860452D01*
X136272812Y-117735558D01*
X136419672Y-117637429D01*
X136582854Y-117569837D01*
X136756087Y-117535379D01*
X136932713Y-117535379D01*
X137105946Y-117569837D01*
G37*
G36*
X93080867Y-114975527D02*
G01*
X93321056Y-115039886D01*
X93550791Y-115135045D01*
X93766139Y-115259376D01*
X93963416Y-115410753D01*
X94139247Y-115586584D01*
X94290624Y-115783861D01*
X94414955Y-115999209D01*
X94510114Y-116228944D01*
X94574473Y-116469133D01*
X94606930Y-116715669D01*
X94606930Y-116964331D01*
X94574473Y-117210867D01*
X94510114Y-117451056D01*
X94414955Y-117680791D01*
X94290624Y-117896139D01*
X94139247Y-118093416D01*
X93963416Y-118269247D01*
X93766139Y-118420624D01*
X93550791Y-118544955D01*
X93321056Y-118640114D01*
X93080867Y-118704473D01*
X92834331Y-118736930D01*
X92585669Y-118736930D01*
X92339133Y-118704473D01*
X92098944Y-118640114D01*
X91869209Y-118544955D01*
X91653861Y-118420624D01*
X91456584Y-118269247D01*
X91280753Y-118093416D01*
X91129376Y-117896139D01*
X91005045Y-117680791D01*
X90909886Y-117451056D01*
X90845527Y-117210867D01*
X90813070Y-116964331D01*
X90813070Y-116715669D01*
X90845527Y-116469133D01*
X90909886Y-116228944D01*
X91005045Y-115999209D01*
X91129376Y-115783861D01*
X91280753Y-115586584D01*
X91456584Y-115410753D01*
X91653861Y-115259376D01*
X91869209Y-115135045D01*
X92098944Y-115039886D01*
X92339133Y-114975527D01*
X92585669Y-114943070D01*
X92834331Y-114943070D01*
X93080867Y-114975527D01*
G37*
G36*
X243194867Y-114975527D02*
G01*
X243435056Y-115039886D01*
X243664791Y-115135045D01*
X243880139Y-115259376D01*
X244077416Y-115410753D01*
X244253247Y-115586584D01*
X244404624Y-115783861D01*
X244528955Y-115999209D01*
X244624114Y-116228944D01*
X244688473Y-116469133D01*
X244720930Y-116715669D01*
X244720930Y-116964331D01*
X244688473Y-117210867D01*
X244624114Y-117451056D01*
X244528955Y-117680791D01*
X244404624Y-117896139D01*
X244253247Y-118093416D01*
X244077416Y-118269247D01*
X243880139Y-118420624D01*
X243664791Y-118544955D01*
X243435056Y-118640114D01*
X243194867Y-118704473D01*
X242948331Y-118736930D01*
X242699669Y-118736930D01*
X242453133Y-118704473D01*
X242212944Y-118640114D01*
X241983209Y-118544955D01*
X241767861Y-118420624D01*
X241570584Y-118269247D01*
X241394753Y-118093416D01*
X241243376Y-117896139D01*
X241119045Y-117680791D01*
X241023886Y-117451056D01*
X240959527Y-117210867D01*
X240927070Y-116964331D01*
X240927070Y-116715669D01*
X240959527Y-116469133D01*
X241023886Y-116228944D01*
X241119045Y-115999209D01*
X241243376Y-115783861D01*
X241394753Y-115586584D01*
X241570584Y-115410753D01*
X241767861Y-115259376D01*
X241983209Y-115135045D01*
X242212944Y-115039886D01*
X242453133Y-114975527D01*
X242699669Y-114943070D01*
X242948331Y-114943070D01*
X243194867Y-114975527D01*
G37*
G36*
X218442598Y-113038161D02*
G01*
X218454116Y-113038161D01*
X218499123Y-113047113D01*
X218596360Y-113062514D01*
X218627636Y-113072676D01*
X218656189Y-113078356D01*
X218696487Y-113095048D01*
X218753152Y-113113460D01*
X218806235Y-113140507D01*
X218846538Y-113157201D01*
X218870747Y-113173377D01*
X218900043Y-113188304D01*
X218979683Y-113246166D01*
X219017847Y-113271666D01*
X219025991Y-113279810D01*
X219033415Y-113285204D01*
X219149995Y-113401784D01*
X219155388Y-113409207D01*
X219163534Y-113417353D01*
X219189036Y-113455520D01*
X219246895Y-113535156D01*
X219261820Y-113564448D01*
X219277999Y-113588662D01*
X219294694Y-113628969D01*
X219321739Y-113682047D01*
X219340148Y-113738704D01*
X219356844Y-113779011D01*
X219362524Y-113807569D01*
X219372685Y-113838839D01*
X219388084Y-113936067D01*
X219397039Y-113981084D01*
X219397039Y-113992602D01*
X219398475Y-114001669D01*
X219398475Y-114166530D01*
X219397039Y-114175596D01*
X219397039Y-114187116D01*
X219388083Y-114232135D01*
X219372685Y-114329360D01*
X219362525Y-114360628D01*
X219356844Y-114389189D01*
X219340147Y-114429498D01*
X219321739Y-114486152D01*
X219294696Y-114539225D01*
X219277999Y-114579538D01*
X219261818Y-114603754D01*
X219246895Y-114633043D01*
X219189045Y-114712666D01*
X219163534Y-114750847D01*
X219155385Y-114758995D01*
X219149995Y-114766415D01*
X219033415Y-114882995D01*
X219025995Y-114888385D01*
X219017847Y-114896534D01*
X218979666Y-114922045D01*
X218900043Y-114979895D01*
X218870754Y-114994818D01*
X218846538Y-115010999D01*
X218806225Y-115027696D01*
X218753152Y-115054739D01*
X218696498Y-115073147D01*
X218656189Y-115089844D01*
X218627628Y-115095525D01*
X218596360Y-115105685D01*
X218499133Y-115121084D01*
X218454116Y-115130039D01*
X218442597Y-115130039D01*
X218433531Y-115131475D01*
X218268669Y-115131475D01*
X218259603Y-115130039D01*
X218248084Y-115130039D01*
X218203067Y-115121084D01*
X218105839Y-115105685D01*
X218074569Y-115095524D01*
X218046011Y-115089844D01*
X218005704Y-115073148D01*
X217949047Y-115054739D01*
X217895969Y-115027694D01*
X217855662Y-115010999D01*
X217831448Y-114994820D01*
X217802156Y-114979895D01*
X217722520Y-114922036D01*
X217684353Y-114896534D01*
X217676207Y-114888388D01*
X217668784Y-114882995D01*
X217552204Y-114766415D01*
X217546810Y-114758991D01*
X217538666Y-114750847D01*
X217513166Y-114712683D01*
X217455304Y-114633043D01*
X217440377Y-114603747D01*
X217424201Y-114579538D01*
X217407507Y-114539235D01*
X217380460Y-114486152D01*
X217362048Y-114429487D01*
X217345356Y-114389189D01*
X217339676Y-114360636D01*
X217329514Y-114329360D01*
X217314114Y-114232126D01*
X217305161Y-114187116D01*
X217305161Y-114175596D01*
X217303725Y-114166530D01*
X217303725Y-114001669D01*
X217305161Y-113992602D01*
X217305161Y-113981084D01*
X217314113Y-113936077D01*
X217329514Y-113838839D01*
X217339676Y-113807561D01*
X217345356Y-113779011D01*
X217362046Y-113738716D01*
X217380460Y-113682047D01*
X217407509Y-113628958D01*
X217424201Y-113588662D01*
X217440375Y-113564455D01*
X217455304Y-113535156D01*
X217513174Y-113455503D01*
X217538666Y-113417353D01*
X217546807Y-113409211D01*
X217552204Y-113401784D01*
X217668784Y-113285204D01*
X217676211Y-113279807D01*
X217684353Y-113271666D01*
X217722503Y-113246174D01*
X217802156Y-113188304D01*
X217831455Y-113173375D01*
X217855662Y-113157201D01*
X217895958Y-113140509D01*
X217949047Y-113113460D01*
X218005716Y-113095046D01*
X218046011Y-113078356D01*
X218074561Y-113072676D01*
X218105839Y-113062514D01*
X218203077Y-113047113D01*
X218248084Y-113038161D01*
X218259602Y-113038161D01*
X218268669Y-113036725D01*
X218433531Y-113036725D01*
X218442598Y-113038161D01*
G37*
G36*
X224942598Y-113038161D02*
G01*
X224954116Y-113038161D01*
X224999123Y-113047113D01*
X225096360Y-113062514D01*
X225127636Y-113072676D01*
X225156189Y-113078356D01*
X225196487Y-113095048D01*
X225253152Y-113113460D01*
X225306235Y-113140507D01*
X225346538Y-113157201D01*
X225370747Y-113173377D01*
X225400043Y-113188304D01*
X225479683Y-113246166D01*
X225517847Y-113271666D01*
X225525991Y-113279810D01*
X225533415Y-113285204D01*
X225649995Y-113401784D01*
X225655388Y-113409207D01*
X225663534Y-113417353D01*
X225689036Y-113455520D01*
X225746895Y-113535156D01*
X225761820Y-113564448D01*
X225777999Y-113588662D01*
X225794694Y-113628969D01*
X225821739Y-113682047D01*
X225840148Y-113738704D01*
X225856844Y-113779011D01*
X225862524Y-113807569D01*
X225872685Y-113838839D01*
X225888084Y-113936067D01*
X225897039Y-113981084D01*
X225897039Y-113992602D01*
X225898475Y-114001669D01*
X225898475Y-114166530D01*
X225897039Y-114175596D01*
X225897039Y-114187116D01*
X225888083Y-114232135D01*
X225872685Y-114329360D01*
X225862525Y-114360628D01*
X225856844Y-114389189D01*
X225840147Y-114429498D01*
X225821739Y-114486152D01*
X225794696Y-114539225D01*
X225777999Y-114579538D01*
X225761818Y-114603754D01*
X225746895Y-114633043D01*
X225689045Y-114712666D01*
X225663534Y-114750847D01*
X225655385Y-114758995D01*
X225649995Y-114766415D01*
X225533415Y-114882995D01*
X225525995Y-114888385D01*
X225517847Y-114896534D01*
X225479666Y-114922045D01*
X225400043Y-114979895D01*
X225370754Y-114994818D01*
X225346538Y-115010999D01*
X225306225Y-115027696D01*
X225253152Y-115054739D01*
X225196498Y-115073147D01*
X225156189Y-115089844D01*
X225127628Y-115095525D01*
X225096360Y-115105685D01*
X224999133Y-115121084D01*
X224954116Y-115130039D01*
X224942597Y-115130039D01*
X224933531Y-115131475D01*
X224768669Y-115131475D01*
X224759603Y-115130039D01*
X224748084Y-115130039D01*
X224703067Y-115121084D01*
X224605839Y-115105685D01*
X224574569Y-115095524D01*
X224546011Y-115089844D01*
X224505704Y-115073148D01*
X224449047Y-115054739D01*
X224395969Y-115027694D01*
X224355662Y-115010999D01*
X224331448Y-114994820D01*
X224302156Y-114979895D01*
X224222520Y-114922036D01*
X224184353Y-114896534D01*
X224176207Y-114888388D01*
X224168784Y-114882995D01*
X224052204Y-114766415D01*
X224046810Y-114758991D01*
X224038666Y-114750847D01*
X224013166Y-114712683D01*
X223955304Y-114633043D01*
X223940377Y-114603747D01*
X223924201Y-114579538D01*
X223907507Y-114539235D01*
X223880460Y-114486152D01*
X223862048Y-114429487D01*
X223845356Y-114389189D01*
X223839676Y-114360636D01*
X223829514Y-114329360D01*
X223814114Y-114232126D01*
X223805161Y-114187116D01*
X223805161Y-114175596D01*
X223803725Y-114166530D01*
X223803725Y-114001669D01*
X223805161Y-113992602D01*
X223805161Y-113981084D01*
X223814113Y-113936077D01*
X223829514Y-113838839D01*
X223839676Y-113807561D01*
X223845356Y-113779011D01*
X223862046Y-113738716D01*
X223880460Y-113682047D01*
X223907509Y-113628958D01*
X223924201Y-113588662D01*
X223940375Y-113564455D01*
X223955304Y-113535156D01*
X224013174Y-113455503D01*
X224038666Y-113417353D01*
X224046807Y-113409211D01*
X224052204Y-113401784D01*
X224168784Y-113285204D01*
X224176211Y-113279807D01*
X224184353Y-113271666D01*
X224222503Y-113246174D01*
X224302156Y-113188304D01*
X224331455Y-113173375D01*
X224355662Y-113157201D01*
X224395958Y-113140509D01*
X224449047Y-113113460D01*
X224505716Y-113095046D01*
X224546011Y-113078356D01*
X224574561Y-113072676D01*
X224605839Y-113062514D01*
X224703077Y-113047113D01*
X224748084Y-113038161D01*
X224759602Y-113038161D01*
X224768669Y-113036725D01*
X224933531Y-113036725D01*
X224942598Y-113038161D01*
G37*
G36*
X205221898Y-113025461D02*
G01*
X205233416Y-113025461D01*
X205278423Y-113034413D01*
X205375660Y-113049814D01*
X205406936Y-113059976D01*
X205435489Y-113065656D01*
X205475787Y-113082348D01*
X205532452Y-113100760D01*
X205585535Y-113127807D01*
X205625838Y-113144501D01*
X205650047Y-113160677D01*
X205679343Y-113175604D01*
X205758983Y-113233466D01*
X205797147Y-113258966D01*
X205805291Y-113267110D01*
X205812715Y-113272504D01*
X205929295Y-113389084D01*
X205934688Y-113396507D01*
X205942834Y-113404653D01*
X205968336Y-113442820D01*
X206026195Y-113522456D01*
X206041120Y-113551748D01*
X206057299Y-113575962D01*
X206073994Y-113616269D01*
X206101039Y-113669347D01*
X206119448Y-113726004D01*
X206136144Y-113766311D01*
X206141824Y-113794869D01*
X206151985Y-113826139D01*
X206167384Y-113923367D01*
X206176339Y-113968384D01*
X206176339Y-113979902D01*
X206177775Y-113988969D01*
X206177775Y-114153830D01*
X206176339Y-114162896D01*
X206176339Y-114174416D01*
X206167383Y-114219435D01*
X206151985Y-114316660D01*
X206141825Y-114347928D01*
X206136144Y-114376489D01*
X206119447Y-114416798D01*
X206101039Y-114473452D01*
X206073996Y-114526525D01*
X206057299Y-114566838D01*
X206041118Y-114591054D01*
X206026195Y-114620343D01*
X205968345Y-114699966D01*
X205942834Y-114738147D01*
X205934685Y-114746295D01*
X205929295Y-114753715D01*
X205812715Y-114870295D01*
X205805295Y-114875685D01*
X205797147Y-114883834D01*
X205758966Y-114909345D01*
X205679343Y-114967195D01*
X205650054Y-114982118D01*
X205625838Y-114998299D01*
X205585525Y-115014996D01*
X205532452Y-115042039D01*
X205475798Y-115060447D01*
X205435489Y-115077144D01*
X205406928Y-115082825D01*
X205375660Y-115092985D01*
X205278433Y-115108384D01*
X205233416Y-115117339D01*
X205221897Y-115117339D01*
X205212831Y-115118775D01*
X205047969Y-115118775D01*
X205038903Y-115117339D01*
X205027384Y-115117339D01*
X204982367Y-115108384D01*
X204885139Y-115092985D01*
X204853869Y-115082824D01*
X204825311Y-115077144D01*
X204785004Y-115060448D01*
X204728347Y-115042039D01*
X204675269Y-115014994D01*
X204634962Y-114998299D01*
X204610748Y-114982120D01*
X204581456Y-114967195D01*
X204501820Y-114909336D01*
X204463653Y-114883834D01*
X204455507Y-114875688D01*
X204448084Y-114870295D01*
X204331504Y-114753715D01*
X204326110Y-114746291D01*
X204317966Y-114738147D01*
X204292466Y-114699983D01*
X204234604Y-114620343D01*
X204219677Y-114591047D01*
X204203501Y-114566838D01*
X204186807Y-114526535D01*
X204159760Y-114473452D01*
X204141348Y-114416787D01*
X204124656Y-114376489D01*
X204118976Y-114347936D01*
X204108814Y-114316660D01*
X204093414Y-114219426D01*
X204084461Y-114174416D01*
X204084461Y-114162896D01*
X204083025Y-114153830D01*
X204083025Y-113988969D01*
X204084461Y-113979902D01*
X204084461Y-113968384D01*
X204093413Y-113923377D01*
X204108814Y-113826139D01*
X204118976Y-113794861D01*
X204124656Y-113766311D01*
X204141346Y-113726016D01*
X204159760Y-113669347D01*
X204186809Y-113616258D01*
X204203501Y-113575962D01*
X204219675Y-113551755D01*
X204234604Y-113522456D01*
X204292474Y-113442803D01*
X204317966Y-113404653D01*
X204326107Y-113396511D01*
X204331504Y-113389084D01*
X204448084Y-113272504D01*
X204455511Y-113267107D01*
X204463653Y-113258966D01*
X204501803Y-113233474D01*
X204581456Y-113175604D01*
X204610755Y-113160675D01*
X204634962Y-113144501D01*
X204675258Y-113127809D01*
X204728347Y-113100760D01*
X204785016Y-113082346D01*
X204825311Y-113065656D01*
X204853861Y-113059976D01*
X204885139Y-113049814D01*
X204982377Y-113034413D01*
X205027384Y-113025461D01*
X205038902Y-113025461D01*
X205047969Y-113024025D01*
X205212831Y-113024025D01*
X205221898Y-113025461D01*
G37*
G36*
X211721898Y-113025461D02*
G01*
X211733416Y-113025461D01*
X211778423Y-113034413D01*
X211875660Y-113049814D01*
X211906936Y-113059976D01*
X211935489Y-113065656D01*
X211975787Y-113082348D01*
X212032452Y-113100760D01*
X212085535Y-113127807D01*
X212125838Y-113144501D01*
X212150047Y-113160677D01*
X212179343Y-113175604D01*
X212258983Y-113233466D01*
X212297147Y-113258966D01*
X212305291Y-113267110D01*
X212312715Y-113272504D01*
X212429295Y-113389084D01*
X212434688Y-113396507D01*
X212442834Y-113404653D01*
X212468336Y-113442820D01*
X212526195Y-113522456D01*
X212541120Y-113551748D01*
X212557299Y-113575962D01*
X212573994Y-113616269D01*
X212601039Y-113669347D01*
X212619448Y-113726004D01*
X212636144Y-113766311D01*
X212641824Y-113794869D01*
X212651985Y-113826139D01*
X212667384Y-113923367D01*
X212676339Y-113968384D01*
X212676339Y-113979902D01*
X212677775Y-113988969D01*
X212677775Y-114153830D01*
X212676339Y-114162896D01*
X212676339Y-114174416D01*
X212667383Y-114219435D01*
X212651985Y-114316660D01*
X212641825Y-114347928D01*
X212636144Y-114376489D01*
X212619447Y-114416798D01*
X212601039Y-114473452D01*
X212573996Y-114526525D01*
X212557299Y-114566838D01*
X212541118Y-114591054D01*
X212526195Y-114620343D01*
X212468345Y-114699966D01*
X212442834Y-114738147D01*
X212434685Y-114746295D01*
X212429295Y-114753715D01*
X212312715Y-114870295D01*
X212305295Y-114875685D01*
X212297147Y-114883834D01*
X212258966Y-114909345D01*
X212179343Y-114967195D01*
X212150054Y-114982118D01*
X212125838Y-114998299D01*
X212085525Y-115014996D01*
X212032452Y-115042039D01*
X211975798Y-115060447D01*
X211935489Y-115077144D01*
X211906928Y-115082825D01*
X211875660Y-115092985D01*
X211778433Y-115108384D01*
X211733416Y-115117339D01*
X211721897Y-115117339D01*
X211712831Y-115118775D01*
X211547969Y-115118775D01*
X211538903Y-115117339D01*
X211527384Y-115117339D01*
X211482367Y-115108384D01*
X211385139Y-115092985D01*
X211353869Y-115082824D01*
X211325311Y-115077144D01*
X211285004Y-115060448D01*
X211228347Y-115042039D01*
X211175269Y-115014994D01*
X211134962Y-114998299D01*
X211110748Y-114982120D01*
X211081456Y-114967195D01*
X211001820Y-114909336D01*
X210963653Y-114883834D01*
X210955507Y-114875688D01*
X210948084Y-114870295D01*
X210831504Y-114753715D01*
X210826110Y-114746291D01*
X210817966Y-114738147D01*
X210792466Y-114699983D01*
X210734604Y-114620343D01*
X210719677Y-114591047D01*
X210703501Y-114566838D01*
X210686807Y-114526535D01*
X210659760Y-114473452D01*
X210641348Y-114416787D01*
X210624656Y-114376489D01*
X210618976Y-114347936D01*
X210608814Y-114316660D01*
X210593414Y-114219426D01*
X210584461Y-114174416D01*
X210584461Y-114162896D01*
X210583025Y-114153830D01*
X210583025Y-113988969D01*
X210584461Y-113979902D01*
X210584461Y-113968384D01*
X210593413Y-113923377D01*
X210608814Y-113826139D01*
X210618976Y-113794861D01*
X210624656Y-113766311D01*
X210641346Y-113726016D01*
X210659760Y-113669347D01*
X210686809Y-113616258D01*
X210703501Y-113575962D01*
X210719675Y-113551755D01*
X210734604Y-113522456D01*
X210792474Y-113442803D01*
X210817966Y-113404653D01*
X210826107Y-113396511D01*
X210831504Y-113389084D01*
X210948084Y-113272504D01*
X210955511Y-113267107D01*
X210963653Y-113258966D01*
X211001803Y-113233474D01*
X211081456Y-113175604D01*
X211110755Y-113160675D01*
X211134962Y-113144501D01*
X211175258Y-113127809D01*
X211228347Y-113100760D01*
X211285016Y-113082346D01*
X211325311Y-113065656D01*
X211353861Y-113059976D01*
X211385139Y-113049814D01*
X211482377Y-113034413D01*
X211527384Y-113025461D01*
X211538902Y-113025461D01*
X211547969Y-113024025D01*
X211712831Y-113024025D01*
X211721898Y-113025461D01*
G37*
G36*
X239386482Y-110757781D02*
G01*
X239397690Y-110757781D01*
X239452888Y-110766523D01*
X239578534Y-110783065D01*
X239609189Y-110791279D01*
X239638074Y-110795854D01*
X239693620Y-110813902D01*
X239774467Y-110835565D01*
X239826050Y-110856931D01*
X239869542Y-110871063D01*
X239910286Y-110891823D01*
X239961870Y-110913190D01*
X240034353Y-110955038D01*
X240086395Y-110981555D01*
X240110055Y-110998745D01*
X240137539Y-111014613D01*
X240238074Y-111091756D01*
X240283294Y-111124610D01*
X240291219Y-111132535D01*
X240298466Y-111138096D01*
X240441903Y-111281533D01*
X240447463Y-111288779D01*
X240455390Y-111296706D01*
X240488247Y-111341930D01*
X240565386Y-111442460D01*
X240581252Y-111469941D01*
X240598445Y-111493605D01*
X240624964Y-111545652D01*
X240666809Y-111618129D01*
X240688173Y-111669706D01*
X240708937Y-111710458D01*
X240723070Y-111753955D01*
X240744434Y-111805532D01*
X240766093Y-111886366D01*
X240784146Y-111941926D01*
X240788721Y-111970816D01*
X240796934Y-112001465D01*
X240813474Y-112127099D01*
X240822219Y-112182310D01*
X240822219Y-112193518D01*
X240823412Y-112202580D01*
X240823412Y-112405419D01*
X240822219Y-112414480D01*
X240822219Y-112425690D01*
X240813473Y-112480905D01*
X240796934Y-112606534D01*
X240788722Y-112637180D01*
X240784146Y-112666074D01*
X240766091Y-112721638D01*
X240744434Y-112802467D01*
X240723071Y-112854039D01*
X240708937Y-112897542D01*
X240688171Y-112938297D01*
X240666809Y-112989870D01*
X240624968Y-113062338D01*
X240598445Y-113114395D01*
X240581249Y-113138062D01*
X240565386Y-113165539D01*
X240488261Y-113266050D01*
X240455390Y-113311294D01*
X240447459Y-113319224D01*
X240441903Y-113326466D01*
X240298466Y-113469903D01*
X240291224Y-113475459D01*
X240283294Y-113483390D01*
X240238050Y-113516261D01*
X240137539Y-113593386D01*
X240110062Y-113609249D01*
X240086395Y-113626445D01*
X240034338Y-113652968D01*
X239961870Y-113694809D01*
X239910297Y-113716171D01*
X239869542Y-113736937D01*
X239826039Y-113751071D01*
X239774467Y-113772434D01*
X239693638Y-113794091D01*
X239638074Y-113812146D01*
X239609180Y-113816722D01*
X239578534Y-113824934D01*
X239452902Y-113841474D01*
X239397690Y-113850219D01*
X239386481Y-113850219D01*
X239377420Y-113851412D01*
X239174580Y-113851412D01*
X239165519Y-113850219D01*
X239154310Y-113850219D01*
X239099099Y-113841474D01*
X238973465Y-113824934D01*
X238942816Y-113816721D01*
X238913926Y-113812146D01*
X238858366Y-113794093D01*
X238777532Y-113772434D01*
X238725955Y-113751070D01*
X238682458Y-113736937D01*
X238641706Y-113716173D01*
X238590129Y-113694809D01*
X238517652Y-113652964D01*
X238465605Y-113626445D01*
X238441941Y-113609252D01*
X238414460Y-113593386D01*
X238313930Y-113516247D01*
X238268706Y-113483390D01*
X238260779Y-113475463D01*
X238253533Y-113469903D01*
X238110096Y-113326466D01*
X238104535Y-113319219D01*
X238096610Y-113311294D01*
X238063756Y-113266074D01*
X237986613Y-113165539D01*
X237970745Y-113138055D01*
X237953555Y-113114395D01*
X237927038Y-113062353D01*
X237885190Y-112989870D01*
X237863823Y-112938286D01*
X237843063Y-112897542D01*
X237828931Y-112854050D01*
X237807565Y-112802467D01*
X237785902Y-112721620D01*
X237767854Y-112666074D01*
X237763279Y-112637189D01*
X237755065Y-112606534D01*
X237738524Y-112480891D01*
X237729781Y-112425690D01*
X237729781Y-112414480D01*
X237728588Y-112405419D01*
X237728588Y-112202580D01*
X237729781Y-112193518D01*
X237729781Y-112182310D01*
X237738523Y-112127113D01*
X237755065Y-112001465D01*
X237763279Y-111970807D01*
X237767854Y-111941926D01*
X237785900Y-111886383D01*
X237807565Y-111805532D01*
X237828933Y-111753944D01*
X237843063Y-111710458D01*
X237863821Y-111669717D01*
X237885190Y-111618129D01*
X237927042Y-111545637D01*
X237953555Y-111493605D01*
X237970742Y-111469948D01*
X237986613Y-111442460D01*
X238063770Y-111341906D01*
X238096610Y-111296706D01*
X238104532Y-111288783D01*
X238110096Y-111281533D01*
X238253533Y-111138096D01*
X238260783Y-111132532D01*
X238268706Y-111124610D01*
X238313906Y-111091770D01*
X238414460Y-111014613D01*
X238441948Y-110998742D01*
X238465605Y-110981555D01*
X238517637Y-110955042D01*
X238590129Y-110913190D01*
X238641717Y-110891821D01*
X238682458Y-110871063D01*
X238725944Y-110856933D01*
X238777532Y-110835565D01*
X238858383Y-110813900D01*
X238913926Y-110795854D01*
X238942807Y-110791279D01*
X238973465Y-110783065D01*
X239099113Y-110766523D01*
X239154310Y-110757781D01*
X239165518Y-110757781D01*
X239174580Y-110756588D01*
X239377420Y-110756588D01*
X239386482Y-110757781D01*
G37*
G36*
X237385517Y-108386882D02*
G01*
X237402062Y-108397938D01*
X237413118Y-108414483D01*
X237417000Y-108434000D01*
X237417000Y-110034000D01*
X237413118Y-110053517D01*
X237402062Y-110070062D01*
X237385517Y-110081118D01*
X237366000Y-110085000D01*
X235766000Y-110085000D01*
X235746483Y-110081118D01*
X235729938Y-110070062D01*
X235718882Y-110053517D01*
X235715000Y-110034000D01*
X235715000Y-108434000D01*
X235718882Y-108414483D01*
X235729938Y-108397938D01*
X235746483Y-108386882D01*
X235766000Y-108383000D01*
X237366000Y-108383000D01*
X237385517Y-108386882D01*
G37*
G36*
X212654717Y-107814882D02*
G01*
X212671262Y-107825938D01*
X212682318Y-107842483D01*
X212686200Y-107862000D01*
X212686200Y-109562000D01*
X212682318Y-109581517D01*
X212671262Y-109598062D01*
X212654717Y-109609118D01*
X212635200Y-109613000D01*
X210935200Y-109613000D01*
X210915683Y-109609118D01*
X210899138Y-109598062D01*
X210888082Y-109581517D01*
X210884200Y-109562000D01*
X210884200Y-107862000D01*
X210888082Y-107842483D01*
X210899138Y-107825938D01*
X210915683Y-107814882D01*
X210935200Y-107811000D01*
X212635200Y-107811000D01*
X212654717Y-107814882D01*
G37*
G36*
X214586746Y-107849797D02*
G01*
X214749928Y-107917389D01*
X214896788Y-108015518D01*
X215021682Y-108140412D01*
X215119811Y-108287272D01*
X215187403Y-108450454D01*
X215221861Y-108623687D01*
X215221861Y-108800313D01*
X215187403Y-108973546D01*
X215119811Y-109136728D01*
X215021682Y-109283588D01*
X214896788Y-109408482D01*
X214749928Y-109506611D01*
X214586746Y-109574203D01*
X214413513Y-109608661D01*
X214236887Y-109608661D01*
X214063654Y-109574203D01*
X213900472Y-109506611D01*
X213753612Y-109408482D01*
X213628718Y-109283588D01*
X213530589Y-109136728D01*
X213462997Y-108973546D01*
X213428539Y-108800313D01*
X213428539Y-108623687D01*
X213462997Y-108450454D01*
X213530589Y-108287272D01*
X213628718Y-108140412D01*
X213753612Y-108015518D01*
X213900472Y-107917389D01*
X214063654Y-107849797D01*
X214236887Y-107815339D01*
X214413513Y-107815339D01*
X214586746Y-107849797D01*
G37*
G36*
X217126746Y-107849797D02*
G01*
X217289928Y-107917389D01*
X217436788Y-108015518D01*
X217561682Y-108140412D01*
X217659811Y-108287272D01*
X217727403Y-108450454D01*
X217761861Y-108623687D01*
X217761861Y-108800313D01*
X217727403Y-108973546D01*
X217659811Y-109136728D01*
X217561682Y-109283588D01*
X217436788Y-109408482D01*
X217289928Y-109506611D01*
X217126746Y-109574203D01*
X216953513Y-109608661D01*
X216776887Y-109608661D01*
X216603654Y-109574203D01*
X216440472Y-109506611D01*
X216293612Y-109408482D01*
X216168718Y-109283588D01*
X216070589Y-109136728D01*
X216002997Y-108973546D01*
X215968539Y-108800313D01*
X215968539Y-108623687D01*
X216002997Y-108450454D01*
X216070589Y-108287272D01*
X216168718Y-108140412D01*
X216293612Y-108015518D01*
X216440472Y-107917389D01*
X216603654Y-107849797D01*
X216776887Y-107815339D01*
X216953513Y-107815339D01*
X217126746Y-107849797D01*
G37*
G36*
X219666746Y-107849797D02*
G01*
X219829928Y-107917389D01*
X219976788Y-108015518D01*
X220101682Y-108140412D01*
X220199811Y-108287272D01*
X220267403Y-108450454D01*
X220301861Y-108623687D01*
X220301861Y-108800313D01*
X220267403Y-108973546D01*
X220199811Y-109136728D01*
X220101682Y-109283588D01*
X219976788Y-109408482D01*
X219829928Y-109506611D01*
X219666746Y-109574203D01*
X219493513Y-109608661D01*
X219316887Y-109608661D01*
X219143654Y-109574203D01*
X218980472Y-109506611D01*
X218833612Y-109408482D01*
X218708718Y-109283588D01*
X218610589Y-109136728D01*
X218542997Y-108973546D01*
X218508539Y-108800313D01*
X218508539Y-108623687D01*
X218542997Y-108450454D01*
X218610589Y-108287272D01*
X218708718Y-108140412D01*
X218833612Y-108015518D01*
X218980472Y-107917389D01*
X219143654Y-107849797D01*
X219316887Y-107815339D01*
X219493513Y-107815339D01*
X219666746Y-107849797D01*
G37*
G36*
X146595717Y-107275082D02*
G01*
X146612262Y-107286138D01*
X146623318Y-107302683D01*
X146627200Y-107322200D01*
X146627200Y-108730200D01*
X146623318Y-108749717D01*
X146612262Y-108766262D01*
X146595717Y-108777318D01*
X146576200Y-108781200D01*
X145168200Y-108781200D01*
X145148683Y-108777318D01*
X145132138Y-108766262D01*
X145121082Y-108749717D01*
X145117200Y-108730200D01*
X145117200Y-107322200D01*
X145121082Y-107302683D01*
X145132138Y-107286138D01*
X145148683Y-107275082D01*
X145168200Y-107271200D01*
X146576200Y-107271200D01*
X146595717Y-107275082D01*
G37*
G36*
X148631365Y-107303710D02*
G01*
X148768105Y-107360349D01*
X148891167Y-107442577D01*
X148995823Y-107547233D01*
X149078051Y-107670295D01*
X149134690Y-107807035D01*
X149163564Y-107952197D01*
X149163564Y-108100203D01*
X149134690Y-108245365D01*
X149078051Y-108382105D01*
X148995823Y-108505167D01*
X148891167Y-108609823D01*
X148768105Y-108692051D01*
X148631365Y-108748690D01*
X148486203Y-108777564D01*
X148338197Y-108777564D01*
X148193035Y-108748690D01*
X148056295Y-108692051D01*
X147933233Y-108609823D01*
X147828577Y-108505167D01*
X147746349Y-108382105D01*
X147689710Y-108245365D01*
X147660836Y-108100203D01*
X147660836Y-107952197D01*
X147689710Y-107807035D01*
X147746349Y-107670295D01*
X147828577Y-107547233D01*
X147933233Y-107442577D01*
X148056295Y-107360349D01*
X148193035Y-107303710D01*
X148338197Y-107274836D01*
X148486203Y-107274836D01*
X148631365Y-107303710D01*
G37*
G36*
X151171365Y-107303710D02*
G01*
X151308105Y-107360349D01*
X151431167Y-107442577D01*
X151535823Y-107547233D01*
X151618051Y-107670295D01*
X151674690Y-107807035D01*
X151703564Y-107952197D01*
X151703564Y-108100203D01*
X151674690Y-108245365D01*
X151618051Y-108382105D01*
X151535823Y-108505167D01*
X151431167Y-108609823D01*
X151308105Y-108692051D01*
X151171365Y-108748690D01*
X151026203Y-108777564D01*
X150878197Y-108777564D01*
X150733035Y-108748690D01*
X150596295Y-108692051D01*
X150473233Y-108609823D01*
X150368577Y-108505167D01*
X150286349Y-108382105D01*
X150229710Y-108245365D01*
X150200836Y-108100203D01*
X150200836Y-107952197D01*
X150229710Y-107807035D01*
X150286349Y-107670295D01*
X150368577Y-107547233D01*
X150473233Y-107442577D01*
X150596295Y-107360349D01*
X150733035Y-107303710D01*
X150878197Y-107274836D01*
X151026203Y-107274836D01*
X151171365Y-107303710D01*
G37*
G36*
X153711365Y-107303710D02*
G01*
X153848105Y-107360349D01*
X153971167Y-107442577D01*
X154075823Y-107547233D01*
X154158051Y-107670295D01*
X154214690Y-107807035D01*
X154243564Y-107952197D01*
X154243564Y-108100203D01*
X154214690Y-108245365D01*
X154158051Y-108382105D01*
X154075823Y-108505167D01*
X153971167Y-108609823D01*
X153848105Y-108692051D01*
X153711365Y-108748690D01*
X153566203Y-108777564D01*
X153418197Y-108777564D01*
X153273035Y-108748690D01*
X153136295Y-108692051D01*
X153013233Y-108609823D01*
X152908577Y-108505167D01*
X152826349Y-108382105D01*
X152769710Y-108245365D01*
X152740836Y-108100203D01*
X152740836Y-107952197D01*
X152769710Y-107807035D01*
X152826349Y-107670295D01*
X152908577Y-107547233D01*
X153013233Y-107442577D01*
X153136295Y-107360349D01*
X153273035Y-107303710D01*
X153418197Y-107274836D01*
X153566203Y-107274836D01*
X153711365Y-107303710D01*
G37*
G36*
X156251365Y-107303710D02*
G01*
X156388105Y-107360349D01*
X156511167Y-107442577D01*
X156615823Y-107547233D01*
X156698051Y-107670295D01*
X156754690Y-107807035D01*
X156783564Y-107952197D01*
X156783564Y-108100203D01*
X156754690Y-108245365D01*
X156698051Y-108382105D01*
X156615823Y-108505167D01*
X156511167Y-108609823D01*
X156388105Y-108692051D01*
X156251365Y-108748690D01*
X156106203Y-108777564D01*
X155958197Y-108777564D01*
X155813035Y-108748690D01*
X155676295Y-108692051D01*
X155553233Y-108609823D01*
X155448577Y-108505167D01*
X155366349Y-108382105D01*
X155309710Y-108245365D01*
X155280836Y-108100203D01*
X155280836Y-107952197D01*
X155309710Y-107807035D01*
X155366349Y-107670295D01*
X155448577Y-107547233D01*
X155553233Y-107442577D01*
X155676295Y-107360349D01*
X155813035Y-107303710D01*
X155958197Y-107274836D01*
X156106203Y-107274836D01*
X156251365Y-107303710D01*
G37*
G36*
X158791365Y-107303710D02*
G01*
X158928105Y-107360349D01*
X159051167Y-107442577D01*
X159155823Y-107547233D01*
X159238051Y-107670295D01*
X159294690Y-107807035D01*
X159323564Y-107952197D01*
X159323564Y-108100203D01*
X159294690Y-108245365D01*
X159238051Y-108382105D01*
X159155823Y-108505167D01*
X159051167Y-108609823D01*
X158928105Y-108692051D01*
X158791365Y-108748690D01*
X158646203Y-108777564D01*
X158498197Y-108777564D01*
X158353035Y-108748690D01*
X158216295Y-108692051D01*
X158093233Y-108609823D01*
X157988577Y-108505167D01*
X157906349Y-108382105D01*
X157849710Y-108245365D01*
X157820836Y-108100203D01*
X157820836Y-107952197D01*
X157849710Y-107807035D01*
X157906349Y-107670295D01*
X157988577Y-107547233D01*
X158093233Y-107442577D01*
X158216295Y-107360349D01*
X158353035Y-107303710D01*
X158498197Y-107274836D01*
X158646203Y-107274836D01*
X158791365Y-107303710D01*
G37*
G36*
X161331365Y-107303710D02*
G01*
X161468105Y-107360349D01*
X161591167Y-107442577D01*
X161695823Y-107547233D01*
X161778051Y-107670295D01*
X161834690Y-107807035D01*
X161863564Y-107952197D01*
X161863564Y-108100203D01*
X161834690Y-108245365D01*
X161778051Y-108382105D01*
X161695823Y-108505167D01*
X161591167Y-108609823D01*
X161468105Y-108692051D01*
X161331365Y-108748690D01*
X161186203Y-108777564D01*
X161038197Y-108777564D01*
X160893035Y-108748690D01*
X160756295Y-108692051D01*
X160633233Y-108609823D01*
X160528577Y-108505167D01*
X160446349Y-108382105D01*
X160389710Y-108245365D01*
X160360836Y-108100203D01*
X160360836Y-107952197D01*
X160389710Y-107807035D01*
X160446349Y-107670295D01*
X160528577Y-107547233D01*
X160633233Y-107442577D01*
X160756295Y-107360349D01*
X160893035Y-107303710D01*
X161038197Y-107274836D01*
X161186203Y-107274836D01*
X161331365Y-107303710D01*
G37*
G36*
X163871365Y-107303710D02*
G01*
X164008105Y-107360349D01*
X164131167Y-107442577D01*
X164235823Y-107547233D01*
X164318051Y-107670295D01*
X164374690Y-107807035D01*
X164403564Y-107952197D01*
X164403564Y-108100203D01*
X164374690Y-108245365D01*
X164318051Y-108382105D01*
X164235823Y-108505167D01*
X164131167Y-108609823D01*
X164008105Y-108692051D01*
X163871365Y-108748690D01*
X163726203Y-108777564D01*
X163578197Y-108777564D01*
X163433035Y-108748690D01*
X163296295Y-108692051D01*
X163173233Y-108609823D01*
X163068577Y-108505167D01*
X162986349Y-108382105D01*
X162929710Y-108245365D01*
X162900836Y-108100203D01*
X162900836Y-107952197D01*
X162929710Y-107807035D01*
X162986349Y-107670295D01*
X163068577Y-107547233D01*
X163173233Y-107442577D01*
X163296295Y-107360349D01*
X163433035Y-107303710D01*
X163578197Y-107274836D01*
X163726203Y-107274836D01*
X163871365Y-107303710D01*
G37*
G36*
X166411365Y-107303710D02*
G01*
X166548105Y-107360349D01*
X166671167Y-107442577D01*
X166775823Y-107547233D01*
X166858051Y-107670295D01*
X166914690Y-107807035D01*
X166943564Y-107952197D01*
X166943564Y-108100203D01*
X166914690Y-108245365D01*
X166858051Y-108382105D01*
X166775823Y-108505167D01*
X166671167Y-108609823D01*
X166548105Y-108692051D01*
X166411365Y-108748690D01*
X166266203Y-108777564D01*
X166118197Y-108777564D01*
X165973035Y-108748690D01*
X165836295Y-108692051D01*
X165713233Y-108609823D01*
X165608577Y-108505167D01*
X165526349Y-108382105D01*
X165469710Y-108245365D01*
X165440836Y-108100203D01*
X165440836Y-107952197D01*
X165469710Y-107807035D01*
X165526349Y-107670295D01*
X165608577Y-107547233D01*
X165713233Y-107442577D01*
X165836295Y-107360349D01*
X165973035Y-107303710D01*
X166118197Y-107274836D01*
X166266203Y-107274836D01*
X166411365Y-107303710D01*
G37*
G36*
X168951365Y-107303710D02*
G01*
X169088105Y-107360349D01*
X169211167Y-107442577D01*
X169315823Y-107547233D01*
X169398051Y-107670295D01*
X169454690Y-107807035D01*
X169483564Y-107952197D01*
X169483564Y-108100203D01*
X169454690Y-108245365D01*
X169398051Y-108382105D01*
X169315823Y-108505167D01*
X169211167Y-108609823D01*
X169088105Y-108692051D01*
X168951365Y-108748690D01*
X168806203Y-108777564D01*
X168658197Y-108777564D01*
X168513035Y-108748690D01*
X168376295Y-108692051D01*
X168253233Y-108609823D01*
X168148577Y-108505167D01*
X168066349Y-108382105D01*
X168009710Y-108245365D01*
X167980836Y-108100203D01*
X167980836Y-107952197D01*
X168009710Y-107807035D01*
X168066349Y-107670295D01*
X168148577Y-107547233D01*
X168253233Y-107442577D01*
X168376295Y-107360349D01*
X168513035Y-107303710D01*
X168658197Y-107274836D01*
X168806203Y-107274836D01*
X168951365Y-107303710D01*
G37*
G36*
X171491365Y-107303710D02*
G01*
X171628105Y-107360349D01*
X171751167Y-107442577D01*
X171855823Y-107547233D01*
X171938051Y-107670295D01*
X171994690Y-107807035D01*
X172023564Y-107952197D01*
X172023564Y-108100203D01*
X171994690Y-108245365D01*
X171938051Y-108382105D01*
X171855823Y-108505167D01*
X171751167Y-108609823D01*
X171628105Y-108692051D01*
X171491365Y-108748690D01*
X171346203Y-108777564D01*
X171198197Y-108777564D01*
X171053035Y-108748690D01*
X170916295Y-108692051D01*
X170793233Y-108609823D01*
X170688577Y-108505167D01*
X170606349Y-108382105D01*
X170549710Y-108245365D01*
X170520836Y-108100203D01*
X170520836Y-107952197D01*
X170549710Y-107807035D01*
X170606349Y-107670295D01*
X170688577Y-107547233D01*
X170793233Y-107442577D01*
X170916295Y-107360349D01*
X171053035Y-107303710D01*
X171198197Y-107274836D01*
X171346203Y-107274836D01*
X171491365Y-107303710D01*
G37*
G36*
X174031365Y-107303710D02*
G01*
X174168105Y-107360349D01*
X174291167Y-107442577D01*
X174395823Y-107547233D01*
X174478051Y-107670295D01*
X174534690Y-107807035D01*
X174563564Y-107952197D01*
X174563564Y-108100203D01*
X174534690Y-108245365D01*
X174478051Y-108382105D01*
X174395823Y-108505167D01*
X174291167Y-108609823D01*
X174168105Y-108692051D01*
X174031365Y-108748690D01*
X173886203Y-108777564D01*
X173738197Y-108777564D01*
X173593035Y-108748690D01*
X173456295Y-108692051D01*
X173333233Y-108609823D01*
X173228577Y-108505167D01*
X173146349Y-108382105D01*
X173089710Y-108245365D01*
X173060836Y-108100203D01*
X173060836Y-107952197D01*
X173089710Y-107807035D01*
X173146349Y-107670295D01*
X173228577Y-107547233D01*
X173333233Y-107442577D01*
X173456295Y-107360349D01*
X173593035Y-107303710D01*
X173738197Y-107274836D01*
X173886203Y-107274836D01*
X174031365Y-107303710D01*
G37*
G36*
X176571365Y-107303710D02*
G01*
X176708105Y-107360349D01*
X176831167Y-107442577D01*
X176935823Y-107547233D01*
X177018051Y-107670295D01*
X177074690Y-107807035D01*
X177103564Y-107952197D01*
X177103564Y-108100203D01*
X177074690Y-108245365D01*
X177018051Y-108382105D01*
X176935823Y-108505167D01*
X176831167Y-108609823D01*
X176708105Y-108692051D01*
X176571365Y-108748690D01*
X176426203Y-108777564D01*
X176278197Y-108777564D01*
X176133035Y-108748690D01*
X175996295Y-108692051D01*
X175873233Y-108609823D01*
X175768577Y-108505167D01*
X175686349Y-108382105D01*
X175629710Y-108245365D01*
X175600836Y-108100203D01*
X175600836Y-107952197D01*
X175629710Y-107807035D01*
X175686349Y-107670295D01*
X175768577Y-107547233D01*
X175873233Y-107442577D01*
X175996295Y-107360349D01*
X176133035Y-107303710D01*
X176278197Y-107274836D01*
X176426203Y-107274836D01*
X176571365Y-107303710D01*
G37*
G36*
X179111365Y-107303710D02*
G01*
X179248105Y-107360349D01*
X179371167Y-107442577D01*
X179475823Y-107547233D01*
X179558051Y-107670295D01*
X179614690Y-107807035D01*
X179643564Y-107952197D01*
X179643564Y-108100203D01*
X179614690Y-108245365D01*
X179558051Y-108382105D01*
X179475823Y-108505167D01*
X179371167Y-108609823D01*
X179248105Y-108692051D01*
X179111365Y-108748690D01*
X178966203Y-108777564D01*
X178818197Y-108777564D01*
X178673035Y-108748690D01*
X178536295Y-108692051D01*
X178413233Y-108609823D01*
X178308577Y-108505167D01*
X178226349Y-108382105D01*
X178169710Y-108245365D01*
X178140836Y-108100203D01*
X178140836Y-107952197D01*
X178169710Y-107807035D01*
X178226349Y-107670295D01*
X178308577Y-107547233D01*
X178413233Y-107442577D01*
X178536295Y-107360349D01*
X178673035Y-107303710D01*
X178818197Y-107274836D01*
X178966203Y-107274836D01*
X179111365Y-107303710D01*
G37*
G36*
X181651365Y-107303710D02*
G01*
X181788105Y-107360349D01*
X181911167Y-107442577D01*
X182015823Y-107547233D01*
X182098051Y-107670295D01*
X182154690Y-107807035D01*
X182183564Y-107952197D01*
X182183564Y-108100203D01*
X182154690Y-108245365D01*
X182098051Y-108382105D01*
X182015823Y-108505167D01*
X181911167Y-108609823D01*
X181788105Y-108692051D01*
X181651365Y-108748690D01*
X181506203Y-108777564D01*
X181358197Y-108777564D01*
X181213035Y-108748690D01*
X181076295Y-108692051D01*
X180953233Y-108609823D01*
X180848577Y-108505167D01*
X180766349Y-108382105D01*
X180709710Y-108245365D01*
X180680836Y-108100203D01*
X180680836Y-107952197D01*
X180709710Y-107807035D01*
X180766349Y-107670295D01*
X180848577Y-107547233D01*
X180953233Y-107442577D01*
X181076295Y-107360349D01*
X181213035Y-107303710D01*
X181358197Y-107274836D01*
X181506203Y-107274836D01*
X181651365Y-107303710D01*
G37*
G36*
X184191365Y-107303710D02*
G01*
X184328105Y-107360349D01*
X184451167Y-107442577D01*
X184555823Y-107547233D01*
X184638051Y-107670295D01*
X184694690Y-107807035D01*
X184723564Y-107952197D01*
X184723564Y-108100203D01*
X184694690Y-108245365D01*
X184638051Y-108382105D01*
X184555823Y-108505167D01*
X184451167Y-108609823D01*
X184328105Y-108692051D01*
X184191365Y-108748690D01*
X184046203Y-108777564D01*
X183898197Y-108777564D01*
X183753035Y-108748690D01*
X183616295Y-108692051D01*
X183493233Y-108609823D01*
X183388577Y-108505167D01*
X183306349Y-108382105D01*
X183249710Y-108245365D01*
X183220836Y-108100203D01*
X183220836Y-107952197D01*
X183249710Y-107807035D01*
X183306349Y-107670295D01*
X183388577Y-107547233D01*
X183493233Y-107442577D01*
X183616295Y-107360349D01*
X183753035Y-107303710D01*
X183898197Y-107274836D01*
X184046203Y-107274836D01*
X184191365Y-107303710D01*
G37*
G36*
X186731365Y-107303710D02*
G01*
X186868105Y-107360349D01*
X186991167Y-107442577D01*
X187095823Y-107547233D01*
X187178051Y-107670295D01*
X187234690Y-107807035D01*
X187263564Y-107952197D01*
X187263564Y-108100203D01*
X187234690Y-108245365D01*
X187178051Y-108382105D01*
X187095823Y-108505167D01*
X186991167Y-108609823D01*
X186868105Y-108692051D01*
X186731365Y-108748690D01*
X186586203Y-108777564D01*
X186438197Y-108777564D01*
X186293035Y-108748690D01*
X186156295Y-108692051D01*
X186033233Y-108609823D01*
X185928577Y-108505167D01*
X185846349Y-108382105D01*
X185789710Y-108245365D01*
X185760836Y-108100203D01*
X185760836Y-107952197D01*
X185789710Y-107807035D01*
X185846349Y-107670295D01*
X185928577Y-107547233D01*
X186033233Y-107442577D01*
X186156295Y-107360349D01*
X186293035Y-107303710D01*
X186438197Y-107274836D01*
X186586203Y-107274836D01*
X186731365Y-107303710D01*
G37*
G36*
X189271365Y-107303710D02*
G01*
X189408105Y-107360349D01*
X189531167Y-107442577D01*
X189635823Y-107547233D01*
X189718051Y-107670295D01*
X189774690Y-107807035D01*
X189803564Y-107952197D01*
X189803564Y-108100203D01*
X189774690Y-108245365D01*
X189718051Y-108382105D01*
X189635823Y-108505167D01*
X189531167Y-108609823D01*
X189408105Y-108692051D01*
X189271365Y-108748690D01*
X189126203Y-108777564D01*
X188978197Y-108777564D01*
X188833035Y-108748690D01*
X188696295Y-108692051D01*
X188573233Y-108609823D01*
X188468577Y-108505167D01*
X188386349Y-108382105D01*
X188329710Y-108245365D01*
X188300836Y-108100203D01*
X188300836Y-107952197D01*
X188329710Y-107807035D01*
X188386349Y-107670295D01*
X188468577Y-107547233D01*
X188573233Y-107442577D01*
X188696295Y-107360349D01*
X188833035Y-107303710D01*
X188978197Y-107274836D01*
X189126203Y-107274836D01*
X189271365Y-107303710D01*
G37*
G36*
X236813032Y-105919644D02*
G01*
X236967159Y-105983485D01*
X237105869Y-106076168D01*
X237223832Y-106194131D01*
X237316515Y-106332841D01*
X237380356Y-106486968D01*
X237412902Y-106650587D01*
X237412902Y-106817413D01*
X237380356Y-106981032D01*
X237316515Y-107135159D01*
X237223832Y-107273869D01*
X237105869Y-107391832D01*
X236967159Y-107484515D01*
X236813032Y-107548356D01*
X236649413Y-107580902D01*
X236482587Y-107580902D01*
X236318968Y-107548356D01*
X236164841Y-107484515D01*
X236026131Y-107391832D01*
X235908168Y-107273869D01*
X235815485Y-107135159D01*
X235751644Y-106981032D01*
X235719098Y-106817413D01*
X235719098Y-106650587D01*
X235751644Y-106486968D01*
X235815485Y-106332841D01*
X235908168Y-106194131D01*
X236026131Y-106076168D01*
X236164841Y-105983485D01*
X236318968Y-105919644D01*
X236482587Y-105887098D01*
X236649413Y-105887098D01*
X236813032Y-105919644D01*
G37*
G36*
X146091365Y-104763710D02*
G01*
X146228105Y-104820349D01*
X146351167Y-104902577D01*
X146455823Y-105007233D01*
X146538051Y-105130295D01*
X146594690Y-105267035D01*
X146623564Y-105412197D01*
X146623564Y-105560203D01*
X146594690Y-105705365D01*
X146538051Y-105842105D01*
X146455823Y-105965167D01*
X146351167Y-106069823D01*
X146228105Y-106152051D01*
X146091365Y-106208690D01*
X145946203Y-106237564D01*
X145798197Y-106237564D01*
X145653035Y-106208690D01*
X145516295Y-106152051D01*
X145393233Y-106069823D01*
X145288577Y-105965167D01*
X145206349Y-105842105D01*
X145149710Y-105705365D01*
X145120836Y-105560203D01*
X145120836Y-105412197D01*
X145149710Y-105267035D01*
X145206349Y-105130295D01*
X145288577Y-105007233D01*
X145393233Y-104902577D01*
X145516295Y-104820349D01*
X145653035Y-104763710D01*
X145798197Y-104734836D01*
X145946203Y-104734836D01*
X146091365Y-104763710D01*
G37*
G36*
X148631365Y-104763710D02*
G01*
X148768105Y-104820349D01*
X148891167Y-104902577D01*
X148995823Y-105007233D01*
X149078051Y-105130295D01*
X149134690Y-105267035D01*
X149163564Y-105412197D01*
X149163564Y-105560203D01*
X149134690Y-105705365D01*
X149078051Y-105842105D01*
X148995823Y-105965167D01*
X148891167Y-106069823D01*
X148768105Y-106152051D01*
X148631365Y-106208690D01*
X148486203Y-106237564D01*
X148338197Y-106237564D01*
X148193035Y-106208690D01*
X148056295Y-106152051D01*
X147933233Y-106069823D01*
X147828577Y-105965167D01*
X147746349Y-105842105D01*
X147689710Y-105705365D01*
X147660836Y-105560203D01*
X147660836Y-105412197D01*
X147689710Y-105267035D01*
X147746349Y-105130295D01*
X147828577Y-105007233D01*
X147933233Y-104902577D01*
X148056295Y-104820349D01*
X148193035Y-104763710D01*
X148338197Y-104734836D01*
X148486203Y-104734836D01*
X148631365Y-104763710D01*
G37*
G36*
X151171365Y-104763710D02*
G01*
X151308105Y-104820349D01*
X151431167Y-104902577D01*
X151535823Y-105007233D01*
X151618051Y-105130295D01*
X151674690Y-105267035D01*
X151703564Y-105412197D01*
X151703564Y-105560203D01*
X151674690Y-105705365D01*
X151618051Y-105842105D01*
X151535823Y-105965167D01*
X151431167Y-106069823D01*
X151308105Y-106152051D01*
X151171365Y-106208690D01*
X151026203Y-106237564D01*
X150878197Y-106237564D01*
X150733035Y-106208690D01*
X150596295Y-106152051D01*
X150473233Y-106069823D01*
X150368577Y-105965167D01*
X150286349Y-105842105D01*
X150229710Y-105705365D01*
X150200836Y-105560203D01*
X150200836Y-105412197D01*
X150229710Y-105267035D01*
X150286349Y-105130295D01*
X150368577Y-105007233D01*
X150473233Y-104902577D01*
X150596295Y-104820349D01*
X150733035Y-104763710D01*
X150878197Y-104734836D01*
X151026203Y-104734836D01*
X151171365Y-104763710D01*
G37*
G36*
X153711365Y-104763710D02*
G01*
X153848105Y-104820349D01*
X153971167Y-104902577D01*
X154075823Y-105007233D01*
X154158051Y-105130295D01*
X154214690Y-105267035D01*
X154243564Y-105412197D01*
X154243564Y-105560203D01*
X154214690Y-105705365D01*
X154158051Y-105842105D01*
X154075823Y-105965167D01*
X153971167Y-106069823D01*
X153848105Y-106152051D01*
X153711365Y-106208690D01*
X153566203Y-106237564D01*
X153418197Y-106237564D01*
X153273035Y-106208690D01*
X153136295Y-106152051D01*
X153013233Y-106069823D01*
X152908577Y-105965167D01*
X152826349Y-105842105D01*
X152769710Y-105705365D01*
X152740836Y-105560203D01*
X152740836Y-105412197D01*
X152769710Y-105267035D01*
X152826349Y-105130295D01*
X152908577Y-105007233D01*
X153013233Y-104902577D01*
X153136295Y-104820349D01*
X153273035Y-104763710D01*
X153418197Y-104734836D01*
X153566203Y-104734836D01*
X153711365Y-104763710D01*
G37*
G36*
X156251365Y-104763710D02*
G01*
X156388105Y-104820349D01*
X156511167Y-104902577D01*
X156615823Y-105007233D01*
X156698051Y-105130295D01*
X156754690Y-105267035D01*
X156783564Y-105412197D01*
X156783564Y-105560203D01*
X156754690Y-105705365D01*
X156698051Y-105842105D01*
X156615823Y-105965167D01*
X156511167Y-106069823D01*
X156388105Y-106152051D01*
X156251365Y-106208690D01*
X156106203Y-106237564D01*
X155958197Y-106237564D01*
X155813035Y-106208690D01*
X155676295Y-106152051D01*
X155553233Y-106069823D01*
X155448577Y-105965167D01*
X155366349Y-105842105D01*
X155309710Y-105705365D01*
X155280836Y-105560203D01*
X155280836Y-105412197D01*
X155309710Y-105267035D01*
X155366349Y-105130295D01*
X155448577Y-105007233D01*
X155553233Y-104902577D01*
X155676295Y-104820349D01*
X155813035Y-104763710D01*
X155958197Y-104734836D01*
X156106203Y-104734836D01*
X156251365Y-104763710D01*
G37*
G36*
X158791365Y-104763710D02*
G01*
X158928105Y-104820349D01*
X159051167Y-104902577D01*
X159155823Y-105007233D01*
X159238051Y-105130295D01*
X159294690Y-105267035D01*
X159323564Y-105412197D01*
X159323564Y-105560203D01*
X159294690Y-105705365D01*
X159238051Y-105842105D01*
X159155823Y-105965167D01*
X159051167Y-106069823D01*
X158928105Y-106152051D01*
X158791365Y-106208690D01*
X158646203Y-106237564D01*
X158498197Y-106237564D01*
X158353035Y-106208690D01*
X158216295Y-106152051D01*
X158093233Y-106069823D01*
X157988577Y-105965167D01*
X157906349Y-105842105D01*
X157849710Y-105705365D01*
X157820836Y-105560203D01*
X157820836Y-105412197D01*
X157849710Y-105267035D01*
X157906349Y-105130295D01*
X157988577Y-105007233D01*
X158093233Y-104902577D01*
X158216295Y-104820349D01*
X158353035Y-104763710D01*
X158498197Y-104734836D01*
X158646203Y-104734836D01*
X158791365Y-104763710D01*
G37*
G36*
X161331365Y-104763710D02*
G01*
X161468105Y-104820349D01*
X161591167Y-104902577D01*
X161695823Y-105007233D01*
X161778051Y-105130295D01*
X161834690Y-105267035D01*
X161863564Y-105412197D01*
X161863564Y-105560203D01*
X161834690Y-105705365D01*
X161778051Y-105842105D01*
X161695823Y-105965167D01*
X161591167Y-106069823D01*
X161468105Y-106152051D01*
X161331365Y-106208690D01*
X161186203Y-106237564D01*
X161038197Y-106237564D01*
X160893035Y-106208690D01*
X160756295Y-106152051D01*
X160633233Y-106069823D01*
X160528577Y-105965167D01*
X160446349Y-105842105D01*
X160389710Y-105705365D01*
X160360836Y-105560203D01*
X160360836Y-105412197D01*
X160389710Y-105267035D01*
X160446349Y-105130295D01*
X160528577Y-105007233D01*
X160633233Y-104902577D01*
X160756295Y-104820349D01*
X160893035Y-104763710D01*
X161038197Y-104734836D01*
X161186203Y-104734836D01*
X161331365Y-104763710D01*
G37*
G36*
X163871365Y-104763710D02*
G01*
X164008105Y-104820349D01*
X164131167Y-104902577D01*
X164235823Y-105007233D01*
X164318051Y-105130295D01*
X164374690Y-105267035D01*
X164403564Y-105412197D01*
X164403564Y-105560203D01*
X164374690Y-105705365D01*
X164318051Y-105842105D01*
X164235823Y-105965167D01*
X164131167Y-106069823D01*
X164008105Y-106152051D01*
X163871365Y-106208690D01*
X163726203Y-106237564D01*
X163578197Y-106237564D01*
X163433035Y-106208690D01*
X163296295Y-106152051D01*
X163173233Y-106069823D01*
X163068577Y-105965167D01*
X162986349Y-105842105D01*
X162929710Y-105705365D01*
X162900836Y-105560203D01*
X162900836Y-105412197D01*
X162929710Y-105267035D01*
X162986349Y-105130295D01*
X163068577Y-105007233D01*
X163173233Y-104902577D01*
X163296295Y-104820349D01*
X163433035Y-104763710D01*
X163578197Y-104734836D01*
X163726203Y-104734836D01*
X163871365Y-104763710D01*
G37*
G36*
X166411365Y-104763710D02*
G01*
X166548105Y-104820349D01*
X166671167Y-104902577D01*
X166775823Y-105007233D01*
X166858051Y-105130295D01*
X166914690Y-105267035D01*
X166943564Y-105412197D01*
X166943564Y-105560203D01*
X166914690Y-105705365D01*
X166858051Y-105842105D01*
X166775823Y-105965167D01*
X166671167Y-106069823D01*
X166548105Y-106152051D01*
X166411365Y-106208690D01*
X166266203Y-106237564D01*
X166118197Y-106237564D01*
X165973035Y-106208690D01*
X165836295Y-106152051D01*
X165713233Y-106069823D01*
X165608577Y-105965167D01*
X165526349Y-105842105D01*
X165469710Y-105705365D01*
X165440836Y-105560203D01*
X165440836Y-105412197D01*
X165469710Y-105267035D01*
X165526349Y-105130295D01*
X165608577Y-105007233D01*
X165713233Y-104902577D01*
X165836295Y-104820349D01*
X165973035Y-104763710D01*
X166118197Y-104734836D01*
X166266203Y-104734836D01*
X166411365Y-104763710D01*
G37*
G36*
X168951365Y-104763710D02*
G01*
X169088105Y-104820349D01*
X169211167Y-104902577D01*
X169315823Y-105007233D01*
X169398051Y-105130295D01*
X169454690Y-105267035D01*
X169483564Y-105412197D01*
X169483564Y-105560203D01*
X169454690Y-105705365D01*
X169398051Y-105842105D01*
X169315823Y-105965167D01*
X169211167Y-106069823D01*
X169088105Y-106152051D01*
X168951365Y-106208690D01*
X168806203Y-106237564D01*
X168658197Y-106237564D01*
X168513035Y-106208690D01*
X168376295Y-106152051D01*
X168253233Y-106069823D01*
X168148577Y-105965167D01*
X168066349Y-105842105D01*
X168009710Y-105705365D01*
X167980836Y-105560203D01*
X167980836Y-105412197D01*
X168009710Y-105267035D01*
X168066349Y-105130295D01*
X168148577Y-105007233D01*
X168253233Y-104902577D01*
X168376295Y-104820349D01*
X168513035Y-104763710D01*
X168658197Y-104734836D01*
X168806203Y-104734836D01*
X168951365Y-104763710D01*
G37*
G36*
X171491365Y-104763710D02*
G01*
X171628105Y-104820349D01*
X171751167Y-104902577D01*
X171855823Y-105007233D01*
X171938051Y-105130295D01*
X171994690Y-105267035D01*
X172023564Y-105412197D01*
X172023564Y-105560203D01*
X171994690Y-105705365D01*
X171938051Y-105842105D01*
X171855823Y-105965167D01*
X171751167Y-106069823D01*
X171628105Y-106152051D01*
X171491365Y-106208690D01*
X171346203Y-106237564D01*
X171198197Y-106237564D01*
X171053035Y-106208690D01*
X170916295Y-106152051D01*
X170793233Y-106069823D01*
X170688577Y-105965167D01*
X170606349Y-105842105D01*
X170549710Y-105705365D01*
X170520836Y-105560203D01*
X170520836Y-105412197D01*
X170549710Y-105267035D01*
X170606349Y-105130295D01*
X170688577Y-105007233D01*
X170793233Y-104902577D01*
X170916295Y-104820349D01*
X171053035Y-104763710D01*
X171198197Y-104734836D01*
X171346203Y-104734836D01*
X171491365Y-104763710D01*
G37*
G36*
X174031365Y-104763710D02*
G01*
X174168105Y-104820349D01*
X174291167Y-104902577D01*
X174395823Y-105007233D01*
X174478051Y-105130295D01*
X174534690Y-105267035D01*
X174563564Y-105412197D01*
X174563564Y-105560203D01*
X174534690Y-105705365D01*
X174478051Y-105842105D01*
X174395823Y-105965167D01*
X174291167Y-106069823D01*
X174168105Y-106152051D01*
X174031365Y-106208690D01*
X173886203Y-106237564D01*
X173738197Y-106237564D01*
X173593035Y-106208690D01*
X173456295Y-106152051D01*
X173333233Y-106069823D01*
X173228577Y-105965167D01*
X173146349Y-105842105D01*
X173089710Y-105705365D01*
X173060836Y-105560203D01*
X173060836Y-105412197D01*
X173089710Y-105267035D01*
X173146349Y-105130295D01*
X173228577Y-105007233D01*
X173333233Y-104902577D01*
X173456295Y-104820349D01*
X173593035Y-104763710D01*
X173738197Y-104734836D01*
X173886203Y-104734836D01*
X174031365Y-104763710D01*
G37*
G36*
X176571365Y-104763710D02*
G01*
X176708105Y-104820349D01*
X176831167Y-104902577D01*
X176935823Y-105007233D01*
X177018051Y-105130295D01*
X177074690Y-105267035D01*
X177103564Y-105412197D01*
X177103564Y-105560203D01*
X177074690Y-105705365D01*
X177018051Y-105842105D01*
X176935823Y-105965167D01*
X176831167Y-106069823D01*
X176708105Y-106152051D01*
X176571365Y-106208690D01*
X176426203Y-106237564D01*
X176278197Y-106237564D01*
X176133035Y-106208690D01*
X175996295Y-106152051D01*
X175873233Y-106069823D01*
X175768577Y-105965167D01*
X175686349Y-105842105D01*
X175629710Y-105705365D01*
X175600836Y-105560203D01*
X175600836Y-105412197D01*
X175629710Y-105267035D01*
X175686349Y-105130295D01*
X175768577Y-105007233D01*
X175873233Y-104902577D01*
X175996295Y-104820349D01*
X176133035Y-104763710D01*
X176278197Y-104734836D01*
X176426203Y-104734836D01*
X176571365Y-104763710D01*
G37*
G36*
X179111365Y-104763710D02*
G01*
X179248105Y-104820349D01*
X179371167Y-104902577D01*
X179475823Y-105007233D01*
X179558051Y-105130295D01*
X179614690Y-105267035D01*
X179643564Y-105412197D01*
X179643564Y-105560203D01*
X179614690Y-105705365D01*
X179558051Y-105842105D01*
X179475823Y-105965167D01*
X179371167Y-106069823D01*
X179248105Y-106152051D01*
X179111365Y-106208690D01*
X178966203Y-106237564D01*
X178818197Y-106237564D01*
X178673035Y-106208690D01*
X178536295Y-106152051D01*
X178413233Y-106069823D01*
X178308577Y-105965167D01*
X178226349Y-105842105D01*
X178169710Y-105705365D01*
X178140836Y-105560203D01*
X178140836Y-105412197D01*
X178169710Y-105267035D01*
X178226349Y-105130295D01*
X178308577Y-105007233D01*
X178413233Y-104902577D01*
X178536295Y-104820349D01*
X178673035Y-104763710D01*
X178818197Y-104734836D01*
X178966203Y-104734836D01*
X179111365Y-104763710D01*
G37*
G36*
X181651365Y-104763710D02*
G01*
X181788105Y-104820349D01*
X181911167Y-104902577D01*
X182015823Y-105007233D01*
X182098051Y-105130295D01*
X182154690Y-105267035D01*
X182183564Y-105412197D01*
X182183564Y-105560203D01*
X182154690Y-105705365D01*
X182098051Y-105842105D01*
X182015823Y-105965167D01*
X181911167Y-106069823D01*
X181788105Y-106152051D01*
X181651365Y-106208690D01*
X181506203Y-106237564D01*
X181358197Y-106237564D01*
X181213035Y-106208690D01*
X181076295Y-106152051D01*
X180953233Y-106069823D01*
X180848577Y-105965167D01*
X180766349Y-105842105D01*
X180709710Y-105705365D01*
X180680836Y-105560203D01*
X180680836Y-105412197D01*
X180709710Y-105267035D01*
X180766349Y-105130295D01*
X180848577Y-105007233D01*
X180953233Y-104902577D01*
X181076295Y-104820349D01*
X181213035Y-104763710D01*
X181358197Y-104734836D01*
X181506203Y-104734836D01*
X181651365Y-104763710D01*
G37*
G36*
X184191365Y-104763710D02*
G01*
X184328105Y-104820349D01*
X184451167Y-104902577D01*
X184555823Y-105007233D01*
X184638051Y-105130295D01*
X184694690Y-105267035D01*
X184723564Y-105412197D01*
X184723564Y-105560203D01*
X184694690Y-105705365D01*
X184638051Y-105842105D01*
X184555823Y-105965167D01*
X184451167Y-106069823D01*
X184328105Y-106152051D01*
X184191365Y-106208690D01*
X184046203Y-106237564D01*
X183898197Y-106237564D01*
X183753035Y-106208690D01*
X183616295Y-106152051D01*
X183493233Y-106069823D01*
X183388577Y-105965167D01*
X183306349Y-105842105D01*
X183249710Y-105705365D01*
X183220836Y-105560203D01*
X183220836Y-105412197D01*
X183249710Y-105267035D01*
X183306349Y-105130295D01*
X183388577Y-105007233D01*
X183493233Y-104902577D01*
X183616295Y-104820349D01*
X183753035Y-104763710D01*
X183898197Y-104734836D01*
X184046203Y-104734836D01*
X184191365Y-104763710D01*
G37*
G36*
X186731365Y-104763710D02*
G01*
X186868105Y-104820349D01*
X186991167Y-104902577D01*
X187095823Y-105007233D01*
X187178051Y-105130295D01*
X187234690Y-105267035D01*
X187263564Y-105412197D01*
X187263564Y-105560203D01*
X187234690Y-105705365D01*
X187178051Y-105842105D01*
X187095823Y-105965167D01*
X186991167Y-106069823D01*
X186868105Y-106152051D01*
X186731365Y-106208690D01*
X186586203Y-106237564D01*
X186438197Y-106237564D01*
X186293035Y-106208690D01*
X186156295Y-106152051D01*
X186033233Y-106069823D01*
X185928577Y-105965167D01*
X185846349Y-105842105D01*
X185789710Y-105705365D01*
X185760836Y-105560203D01*
X185760836Y-105412197D01*
X185789710Y-105267035D01*
X185846349Y-105130295D01*
X185928577Y-105007233D01*
X186033233Y-104902577D01*
X186156295Y-104820349D01*
X186293035Y-104763710D01*
X186438197Y-104734836D01*
X186586203Y-104734836D01*
X186731365Y-104763710D01*
G37*
G36*
X189271365Y-104763710D02*
G01*
X189408105Y-104820349D01*
X189531167Y-104902577D01*
X189635823Y-105007233D01*
X189718051Y-105130295D01*
X189774690Y-105267035D01*
X189803564Y-105412197D01*
X189803564Y-105560203D01*
X189774690Y-105705365D01*
X189718051Y-105842105D01*
X189635823Y-105965167D01*
X189531167Y-106069823D01*
X189408105Y-106152051D01*
X189271365Y-106208690D01*
X189126203Y-106237564D01*
X188978197Y-106237564D01*
X188833035Y-106208690D01*
X188696295Y-106152051D01*
X188573233Y-106069823D01*
X188468577Y-105965167D01*
X188386349Y-105842105D01*
X188329710Y-105705365D01*
X188300836Y-105560203D01*
X188300836Y-105412197D01*
X188329710Y-105267035D01*
X188386349Y-105130295D01*
X188468577Y-105007233D01*
X188573233Y-104902577D01*
X188696295Y-104820349D01*
X188833035Y-104763710D01*
X188978197Y-104734836D01*
X189126203Y-104734836D01*
X189271365Y-104763710D01*
G37*
G36*
X236813032Y-103919644D02*
G01*
X236967159Y-103983485D01*
X237105869Y-104076168D01*
X237223832Y-104194131D01*
X237316515Y-104332841D01*
X237380356Y-104486968D01*
X237412902Y-104650587D01*
X237412902Y-104817413D01*
X237380356Y-104981032D01*
X237316515Y-105135159D01*
X237223832Y-105273869D01*
X237105869Y-105391832D01*
X236967159Y-105484515D01*
X236813032Y-105548356D01*
X236649413Y-105580902D01*
X236482587Y-105580902D01*
X236318968Y-105548356D01*
X236164841Y-105484515D01*
X236026131Y-105391832D01*
X235908168Y-105273869D01*
X235815485Y-105135159D01*
X235751644Y-104981032D01*
X235719098Y-104817413D01*
X235719098Y-104650587D01*
X235751644Y-104486968D01*
X235815485Y-104332841D01*
X235908168Y-104194131D01*
X236026131Y-104076168D01*
X236164841Y-103983485D01*
X236318968Y-103919644D01*
X236482587Y-103887098D01*
X236649413Y-103887098D01*
X236813032Y-103919644D01*
G37*
G36*
X236813032Y-101419644D02*
G01*
X236967159Y-101483485D01*
X237105869Y-101576168D01*
X237223832Y-101694131D01*
X237316515Y-101832841D01*
X237380356Y-101986968D01*
X237412902Y-102150587D01*
X237412902Y-102317413D01*
X237380356Y-102481032D01*
X237316515Y-102635159D01*
X237223832Y-102773869D01*
X237105869Y-102891832D01*
X236967159Y-102984515D01*
X236813032Y-103048356D01*
X236649413Y-103080902D01*
X236482587Y-103080902D01*
X236318968Y-103048356D01*
X236164841Y-102984515D01*
X236026131Y-102891832D01*
X235908168Y-102773869D01*
X235815485Y-102635159D01*
X235751644Y-102481032D01*
X235719098Y-102317413D01*
X235719098Y-102150587D01*
X235751644Y-101986968D01*
X235815485Y-101832841D01*
X235908168Y-101694131D01*
X236026131Y-101576168D01*
X236164841Y-101483485D01*
X236318968Y-101419644D01*
X236482587Y-101387098D01*
X236649413Y-101387098D01*
X236813032Y-101419644D01*
G37*
G36*
X216235517Y-100579882D02*
G01*
X216252062Y-100590938D01*
X216263118Y-100607483D01*
X216267000Y-100627000D01*
X216267000Y-101327000D01*
X216263118Y-101346517D01*
X216252062Y-101363062D01*
X216235517Y-101374118D01*
X216216000Y-101378000D01*
X215216000Y-101378000D01*
X215196483Y-101374118D01*
X215179938Y-101363062D01*
X215168882Y-101346517D01*
X215165000Y-101327000D01*
X215165000Y-100627000D01*
X215168882Y-100607483D01*
X215179938Y-100590938D01*
X215196483Y-100579882D01*
X215216000Y-100576000D01*
X216216000Y-100576000D01*
X216235517Y-100579882D01*
G37*
G36*
X219035517Y-100579882D02*
G01*
X219052062Y-100590938D01*
X219063118Y-100607483D01*
X219067000Y-100627000D01*
X219067000Y-101327000D01*
X219063118Y-101346517D01*
X219052062Y-101363062D01*
X219035517Y-101374118D01*
X219016000Y-101378000D01*
X218016000Y-101378000D01*
X217996483Y-101374118D01*
X217979938Y-101363062D01*
X217968882Y-101346517D01*
X217965000Y-101327000D01*
X217965000Y-100627000D01*
X217968882Y-100607483D01*
X217979938Y-100590938D01*
X217996483Y-100579882D01*
X218016000Y-100576000D01*
X219016000Y-100576000D01*
X219035517Y-100579882D01*
G37*
G36*
X239386482Y-97617781D02*
G01*
X239397690Y-97617781D01*
X239452888Y-97626523D01*
X239578534Y-97643065D01*
X239609189Y-97651279D01*
X239638074Y-97655854D01*
X239693620Y-97673902D01*
X239774467Y-97695565D01*
X239826050Y-97716931D01*
X239869542Y-97731063D01*
X239910286Y-97751823D01*
X239961870Y-97773190D01*
X240034353Y-97815038D01*
X240086395Y-97841555D01*
X240110055Y-97858745D01*
X240137539Y-97874613D01*
X240238074Y-97951756D01*
X240283294Y-97984610D01*
X240291219Y-97992535D01*
X240298466Y-97998096D01*
X240441903Y-98141533D01*
X240447463Y-98148779D01*
X240455390Y-98156706D01*
X240488247Y-98201930D01*
X240565386Y-98302460D01*
X240581252Y-98329941D01*
X240598445Y-98353605D01*
X240624964Y-98405652D01*
X240666809Y-98478129D01*
X240688173Y-98529706D01*
X240708937Y-98570458D01*
X240723070Y-98613955D01*
X240744434Y-98665532D01*
X240766093Y-98746366D01*
X240784146Y-98801926D01*
X240788721Y-98830816D01*
X240796934Y-98861465D01*
X240813474Y-98987099D01*
X240822219Y-99042310D01*
X240822219Y-99053518D01*
X240823412Y-99062580D01*
X240823412Y-99265419D01*
X240822219Y-99274480D01*
X240822219Y-99285690D01*
X240813473Y-99340905D01*
X240796934Y-99466534D01*
X240788722Y-99497180D01*
X240784146Y-99526074D01*
X240766091Y-99581638D01*
X240744434Y-99662467D01*
X240723071Y-99714039D01*
X240708937Y-99757542D01*
X240688171Y-99798297D01*
X240666809Y-99849870D01*
X240624968Y-99922338D01*
X240598445Y-99974395D01*
X240581249Y-99998062D01*
X240565386Y-100025539D01*
X240488261Y-100126050D01*
X240455390Y-100171294D01*
X240447459Y-100179224D01*
X240441903Y-100186466D01*
X240298466Y-100329903D01*
X240291224Y-100335459D01*
X240283294Y-100343390D01*
X240238050Y-100376261D01*
X240137539Y-100453386D01*
X240110062Y-100469249D01*
X240086395Y-100486445D01*
X240034338Y-100512968D01*
X239961870Y-100554809D01*
X239910297Y-100576171D01*
X239869542Y-100596937D01*
X239826039Y-100611071D01*
X239774467Y-100632434D01*
X239693638Y-100654091D01*
X239638074Y-100672146D01*
X239609180Y-100676722D01*
X239578534Y-100684934D01*
X239452902Y-100701474D01*
X239397690Y-100710219D01*
X239386481Y-100710219D01*
X239377420Y-100711412D01*
X239174580Y-100711412D01*
X239165519Y-100710219D01*
X239154310Y-100710219D01*
X239099099Y-100701474D01*
X238973465Y-100684934D01*
X238942816Y-100676721D01*
X238913926Y-100672146D01*
X238858366Y-100654093D01*
X238777532Y-100632434D01*
X238725955Y-100611070D01*
X238682458Y-100596937D01*
X238641706Y-100576173D01*
X238590129Y-100554809D01*
X238517652Y-100512964D01*
X238465605Y-100486445D01*
X238441941Y-100469252D01*
X238414460Y-100453386D01*
X238313930Y-100376247D01*
X238268706Y-100343390D01*
X238260779Y-100335463D01*
X238253533Y-100329903D01*
X238110096Y-100186466D01*
X238104535Y-100179219D01*
X238096610Y-100171294D01*
X238063754Y-100126071D01*
X237986613Y-100025539D01*
X237970745Y-99998055D01*
X237953555Y-99974395D01*
X237927038Y-99922353D01*
X237885190Y-99849870D01*
X237863823Y-99798286D01*
X237843063Y-99757542D01*
X237828931Y-99714050D01*
X237807565Y-99662467D01*
X237785902Y-99581620D01*
X237767854Y-99526074D01*
X237763279Y-99497189D01*
X237755065Y-99466534D01*
X237738524Y-99340891D01*
X237729781Y-99285690D01*
X237729781Y-99274480D01*
X237728588Y-99265419D01*
X237728588Y-99062580D01*
X237729781Y-99053518D01*
X237729781Y-99042310D01*
X237738523Y-98987113D01*
X237755065Y-98861465D01*
X237763279Y-98830807D01*
X237767854Y-98801926D01*
X237785900Y-98746383D01*
X237807565Y-98665532D01*
X237828933Y-98613944D01*
X237843063Y-98570458D01*
X237863821Y-98529717D01*
X237885190Y-98478129D01*
X237927042Y-98405637D01*
X237953555Y-98353605D01*
X237970742Y-98329948D01*
X237986613Y-98302460D01*
X238063770Y-98201906D01*
X238096610Y-98156706D01*
X238104532Y-98148783D01*
X238110096Y-98141533D01*
X238253533Y-97998096D01*
X238260783Y-97992532D01*
X238268706Y-97984610D01*
X238313906Y-97951770D01*
X238414460Y-97874613D01*
X238441948Y-97858742D01*
X238465605Y-97841555D01*
X238517637Y-97815042D01*
X238590129Y-97773190D01*
X238641717Y-97751821D01*
X238682458Y-97731063D01*
X238725944Y-97716933D01*
X238777532Y-97695565D01*
X238858383Y-97673900D01*
X238913926Y-97655854D01*
X238942807Y-97651279D01*
X238973465Y-97643065D01*
X239099113Y-97626523D01*
X239154310Y-97617781D01*
X239165518Y-97617781D01*
X239174580Y-97616588D01*
X239377420Y-97616588D01*
X239386482Y-97617781D01*
G37*
G36*
X216235517Y-99436882D02*
G01*
X216252062Y-99447938D01*
X216263118Y-99464483D01*
X216267000Y-99484000D01*
X216267000Y-100184000D01*
X216263118Y-100203517D01*
X216252062Y-100220062D01*
X216235517Y-100231118D01*
X216216000Y-100235000D01*
X215216000Y-100235000D01*
X215196483Y-100231118D01*
X215179938Y-100220062D01*
X215168882Y-100203517D01*
X215165000Y-100184000D01*
X215165000Y-99484000D01*
X215168882Y-99464483D01*
X215179938Y-99447938D01*
X215196483Y-99436882D01*
X215216000Y-99433000D01*
X216216000Y-99433000D01*
X216235517Y-99436882D01*
G37*
G36*
X219035517Y-99436882D02*
G01*
X219052062Y-99447938D01*
X219063118Y-99464483D01*
X219067000Y-99484000D01*
X219067000Y-100184000D01*
X219063118Y-100203517D01*
X219052062Y-100220062D01*
X219035517Y-100231118D01*
X219016000Y-100235000D01*
X218016000Y-100235000D01*
X217996483Y-100231118D01*
X217979938Y-100220062D01*
X217968882Y-100203517D01*
X217965000Y-100184000D01*
X217965000Y-99484000D01*
X217968882Y-99464483D01*
X217979938Y-99447938D01*
X217996483Y-99436882D01*
X218016000Y-99433000D01*
X219016000Y-99433000D01*
X219035517Y-99436882D01*
G37*
G36*
X103654517Y-98501882D02*
G01*
X103671062Y-98512938D01*
X103682118Y-98529483D01*
X103686000Y-98549000D01*
X103686000Y-100079000D01*
X103682118Y-100098517D01*
X103671062Y-100115062D01*
X103654517Y-100126118D01*
X103635000Y-100130000D01*
X102105000Y-100130000D01*
X102085483Y-100126118D01*
X102068938Y-100115062D01*
X102057882Y-100098517D01*
X102054000Y-100079000D01*
X102054000Y-98549000D01*
X102057882Y-98529483D01*
X102068938Y-98512938D01*
X102085483Y-98501882D01*
X102105000Y-98498000D01*
X103635000Y-98498000D01*
X103654517Y-98501882D01*
G37*
G36*
X105646872Y-98533137D02*
G01*
X105794660Y-98594352D01*
X105927665Y-98683223D01*
X106040777Y-98796335D01*
X106129648Y-98929340D01*
X106190863Y-99077128D01*
X106222071Y-99234018D01*
X106222071Y-99393982D01*
X106190863Y-99550872D01*
X106129648Y-99698660D01*
X106040777Y-99831665D01*
X105927665Y-99944777D01*
X105794660Y-100033648D01*
X105646872Y-100094863D01*
X105489982Y-100126071D01*
X105330018Y-100126071D01*
X105173128Y-100094863D01*
X105025340Y-100033648D01*
X104892335Y-99944777D01*
X104779223Y-99831665D01*
X104690352Y-99698660D01*
X104629137Y-99550872D01*
X104597929Y-99393982D01*
X104597929Y-99234018D01*
X104629137Y-99077128D01*
X104690352Y-98929340D01*
X104779223Y-98796335D01*
X104892335Y-98683223D01*
X105025340Y-98594352D01*
X105173128Y-98533137D01*
X105330018Y-98501929D01*
X105489982Y-98501929D01*
X105646872Y-98533137D01*
G37*
G36*
X108186872Y-98533137D02*
G01*
X108334660Y-98594352D01*
X108467665Y-98683223D01*
X108580777Y-98796335D01*
X108669648Y-98929340D01*
X108730863Y-99077128D01*
X108762071Y-99234018D01*
X108762071Y-99393982D01*
X108730863Y-99550872D01*
X108669648Y-99698660D01*
X108580777Y-99831665D01*
X108467665Y-99944777D01*
X108334660Y-100033648D01*
X108186872Y-100094863D01*
X108029982Y-100126071D01*
X107870018Y-100126071D01*
X107713128Y-100094863D01*
X107565340Y-100033648D01*
X107432335Y-99944777D01*
X107319223Y-99831665D01*
X107230352Y-99698660D01*
X107169137Y-99550872D01*
X107137929Y-99393982D01*
X107137929Y-99234018D01*
X107169137Y-99077128D01*
X107230352Y-98929340D01*
X107319223Y-98796335D01*
X107432335Y-98683223D01*
X107565340Y-98594352D01*
X107713128Y-98533137D01*
X107870018Y-98501929D01*
X108029982Y-98501929D01*
X108186872Y-98533137D01*
G37*
G36*
X110726872Y-98533137D02*
G01*
X110874660Y-98594352D01*
X111007665Y-98683223D01*
X111120777Y-98796335D01*
X111209648Y-98929340D01*
X111270863Y-99077128D01*
X111302071Y-99234018D01*
X111302071Y-99393982D01*
X111270863Y-99550872D01*
X111209648Y-99698660D01*
X111120777Y-99831665D01*
X111007665Y-99944777D01*
X110874660Y-100033648D01*
X110726872Y-100094863D01*
X110569982Y-100126071D01*
X110410018Y-100126071D01*
X110253128Y-100094863D01*
X110105340Y-100033648D01*
X109972335Y-99944777D01*
X109859223Y-99831665D01*
X109770352Y-99698660D01*
X109709137Y-99550872D01*
X109677929Y-99393982D01*
X109677929Y-99234018D01*
X109709137Y-99077128D01*
X109770352Y-98929340D01*
X109859223Y-98796335D01*
X109972335Y-98683223D01*
X110105340Y-98594352D01*
X110253128Y-98533137D01*
X110410018Y-98501929D01*
X110569982Y-98501929D01*
X110726872Y-98533137D01*
G37*
G36*
X113266872Y-98533137D02*
G01*
X113414660Y-98594352D01*
X113547665Y-98683223D01*
X113660777Y-98796335D01*
X113749648Y-98929340D01*
X113810863Y-99077128D01*
X113842071Y-99234018D01*
X113842071Y-99393982D01*
X113810863Y-99550872D01*
X113749648Y-99698660D01*
X113660777Y-99831665D01*
X113547665Y-99944777D01*
X113414660Y-100033648D01*
X113266872Y-100094863D01*
X113109982Y-100126071D01*
X112950018Y-100126071D01*
X112793128Y-100094863D01*
X112645340Y-100033648D01*
X112512335Y-99944777D01*
X112399223Y-99831665D01*
X112310352Y-99698660D01*
X112249137Y-99550872D01*
X112217929Y-99393982D01*
X112217929Y-99234018D01*
X112249137Y-99077128D01*
X112310352Y-98929340D01*
X112399223Y-98796335D01*
X112512335Y-98683223D01*
X112645340Y-98594352D01*
X112793128Y-98533137D01*
X112950018Y-98501929D01*
X113109982Y-98501929D01*
X113266872Y-98533137D01*
G37*
G36*
X115806872Y-98533137D02*
G01*
X115954660Y-98594352D01*
X116087665Y-98683223D01*
X116200777Y-98796335D01*
X116289648Y-98929340D01*
X116350863Y-99077128D01*
X116382071Y-99234018D01*
X116382071Y-99393982D01*
X116350863Y-99550872D01*
X116289648Y-99698660D01*
X116200777Y-99831665D01*
X116087665Y-99944777D01*
X115954660Y-100033648D01*
X115806872Y-100094863D01*
X115649982Y-100126071D01*
X115490018Y-100126071D01*
X115333128Y-100094863D01*
X115185340Y-100033648D01*
X115052335Y-99944777D01*
X114939223Y-99831665D01*
X114850352Y-99698660D01*
X114789137Y-99550872D01*
X114757929Y-99393982D01*
X114757929Y-99234018D01*
X114789137Y-99077128D01*
X114850352Y-98929340D01*
X114939223Y-98796335D01*
X115052335Y-98683223D01*
X115185340Y-98594352D01*
X115333128Y-98533137D01*
X115490018Y-98501929D01*
X115649982Y-98501929D01*
X115806872Y-98533137D01*
G37*
G36*
X118346872Y-98533137D02*
G01*
X118494660Y-98594352D01*
X118627665Y-98683223D01*
X118740777Y-98796335D01*
X118829648Y-98929340D01*
X118890863Y-99077128D01*
X118922071Y-99234018D01*
X118922071Y-99393982D01*
X118890863Y-99550872D01*
X118829648Y-99698660D01*
X118740777Y-99831665D01*
X118627665Y-99944777D01*
X118494660Y-100033648D01*
X118346872Y-100094863D01*
X118189982Y-100126071D01*
X118030018Y-100126071D01*
X117873128Y-100094863D01*
X117725340Y-100033648D01*
X117592335Y-99944777D01*
X117479223Y-99831665D01*
X117390352Y-99698660D01*
X117329137Y-99550872D01*
X117297929Y-99393982D01*
X117297929Y-99234018D01*
X117329137Y-99077128D01*
X117390352Y-98929340D01*
X117479223Y-98796335D01*
X117592335Y-98683223D01*
X117725340Y-98594352D01*
X117873128Y-98533137D01*
X118030018Y-98501929D01*
X118189982Y-98501929D01*
X118346872Y-98533137D01*
G37*
G36*
X120886872Y-98533137D02*
G01*
X121034660Y-98594352D01*
X121167665Y-98683223D01*
X121280777Y-98796335D01*
X121369648Y-98929340D01*
X121430863Y-99077128D01*
X121462071Y-99234018D01*
X121462071Y-99393982D01*
X121430863Y-99550872D01*
X121369648Y-99698660D01*
X121280777Y-99831665D01*
X121167665Y-99944777D01*
X121034660Y-100033648D01*
X120886872Y-100094863D01*
X120729982Y-100126071D01*
X120570018Y-100126071D01*
X120413128Y-100094863D01*
X120265340Y-100033648D01*
X120132335Y-99944777D01*
X120019223Y-99831665D01*
X119930352Y-99698660D01*
X119869137Y-99550872D01*
X119837929Y-99393982D01*
X119837929Y-99234018D01*
X119869137Y-99077128D01*
X119930352Y-98929340D01*
X120019223Y-98796335D01*
X120132335Y-98683223D01*
X120265340Y-98594352D01*
X120413128Y-98533137D01*
X120570018Y-98501929D01*
X120729982Y-98501929D01*
X120886872Y-98533137D01*
G37*
G36*
X123426872Y-98533137D02*
G01*
X123574660Y-98594352D01*
X123707665Y-98683223D01*
X123820777Y-98796335D01*
X123909648Y-98929340D01*
X123970863Y-99077128D01*
X124002071Y-99234018D01*
X124002071Y-99393982D01*
X123970863Y-99550872D01*
X123909648Y-99698660D01*
X123820777Y-99831665D01*
X123707665Y-99944777D01*
X123574660Y-100033648D01*
X123426872Y-100094863D01*
X123269982Y-100126071D01*
X123110018Y-100126071D01*
X122953128Y-100094863D01*
X122805340Y-100033648D01*
X122672335Y-99944777D01*
X122559223Y-99831665D01*
X122470352Y-99698660D01*
X122409137Y-99550872D01*
X122377929Y-99393982D01*
X122377929Y-99234018D01*
X122409137Y-99077128D01*
X122470352Y-98929340D01*
X122559223Y-98796335D01*
X122672335Y-98683223D01*
X122805340Y-98594352D01*
X122953128Y-98533137D01*
X123110018Y-98501929D01*
X123269982Y-98501929D01*
X123426872Y-98533137D01*
G37*
G36*
X125966872Y-98533137D02*
G01*
X126114660Y-98594352D01*
X126247665Y-98683223D01*
X126360777Y-98796335D01*
X126449648Y-98929340D01*
X126510863Y-99077128D01*
X126542071Y-99234018D01*
X126542071Y-99393982D01*
X126510863Y-99550872D01*
X126449648Y-99698660D01*
X126360777Y-99831665D01*
X126247665Y-99944777D01*
X126114660Y-100033648D01*
X125966872Y-100094863D01*
X125809982Y-100126071D01*
X125650018Y-100126071D01*
X125493128Y-100094863D01*
X125345340Y-100033648D01*
X125212335Y-99944777D01*
X125099223Y-99831665D01*
X125010352Y-99698660D01*
X124949137Y-99550872D01*
X124917929Y-99393982D01*
X124917929Y-99234018D01*
X124949137Y-99077128D01*
X125010352Y-98929340D01*
X125099223Y-98796335D01*
X125212335Y-98683223D01*
X125345340Y-98594352D01*
X125493128Y-98533137D01*
X125650018Y-98501929D01*
X125809982Y-98501929D01*
X125966872Y-98533137D01*
G37*
G36*
X128506872Y-98533137D02*
G01*
X128654660Y-98594352D01*
X128787665Y-98683223D01*
X128900777Y-98796335D01*
X128989648Y-98929340D01*
X129050863Y-99077128D01*
X129082071Y-99234018D01*
X129082071Y-99393982D01*
X129050863Y-99550872D01*
X128989648Y-99698660D01*
X128900777Y-99831665D01*
X128787665Y-99944777D01*
X128654660Y-100033648D01*
X128506872Y-100094863D01*
X128349982Y-100126071D01*
X128190018Y-100126071D01*
X128033128Y-100094863D01*
X127885340Y-100033648D01*
X127752335Y-99944777D01*
X127639223Y-99831665D01*
X127550352Y-99698660D01*
X127489137Y-99550872D01*
X127457929Y-99393982D01*
X127457929Y-99234018D01*
X127489137Y-99077128D01*
X127550352Y-98929340D01*
X127639223Y-98796335D01*
X127752335Y-98683223D01*
X127885340Y-98594352D01*
X128033128Y-98533137D01*
X128190018Y-98501929D01*
X128349982Y-98501929D01*
X128506872Y-98533137D01*
G37*
G36*
X131046872Y-98533137D02*
G01*
X131194660Y-98594352D01*
X131327665Y-98683223D01*
X131440777Y-98796335D01*
X131529648Y-98929340D01*
X131590863Y-99077128D01*
X131622071Y-99234018D01*
X131622071Y-99393982D01*
X131590863Y-99550872D01*
X131529648Y-99698660D01*
X131440777Y-99831665D01*
X131327665Y-99944777D01*
X131194660Y-100033648D01*
X131046872Y-100094863D01*
X130889982Y-100126071D01*
X130730018Y-100126071D01*
X130573128Y-100094863D01*
X130425340Y-100033648D01*
X130292335Y-99944777D01*
X130179223Y-99831665D01*
X130090352Y-99698660D01*
X130029137Y-99550872D01*
X129997929Y-99393982D01*
X129997929Y-99234018D01*
X130029137Y-99077128D01*
X130090352Y-98929340D01*
X130179223Y-98796335D01*
X130292335Y-98683223D01*
X130425340Y-98594352D01*
X130573128Y-98533137D01*
X130730018Y-98501929D01*
X130889982Y-98501929D01*
X131046872Y-98533137D01*
G37*
G36*
X216235517Y-98293882D02*
G01*
X216252062Y-98304938D01*
X216263118Y-98321483D01*
X216267000Y-98341000D01*
X216267000Y-99041000D01*
X216263118Y-99060517D01*
X216252062Y-99077062D01*
X216235517Y-99088118D01*
X216216000Y-99092000D01*
X215216000Y-99092000D01*
X215196483Y-99088118D01*
X215179938Y-99077062D01*
X215168882Y-99060517D01*
X215165000Y-99041000D01*
X215165000Y-98341000D01*
X215168882Y-98321483D01*
X215179938Y-98304938D01*
X215196483Y-98293882D01*
X215216000Y-98290000D01*
X216216000Y-98290000D01*
X216235517Y-98293882D01*
G37*
G36*
X219035517Y-98293882D02*
G01*
X219052062Y-98304938D01*
X219063118Y-98321483D01*
X219067000Y-98341000D01*
X219067000Y-99041000D01*
X219063118Y-99060517D01*
X219052062Y-99077062D01*
X219035517Y-99088118D01*
X219016000Y-99092000D01*
X218016000Y-99092000D01*
X217996483Y-99088118D01*
X217979938Y-99077062D01*
X217968882Y-99060517D01*
X217965000Y-99041000D01*
X217965000Y-98341000D01*
X217968882Y-98321483D01*
X217979938Y-98304938D01*
X217996483Y-98293882D01*
X218016000Y-98290000D01*
X219016000Y-98290000D01*
X219035517Y-98293882D01*
G37*
G36*
X103106872Y-95993137D02*
G01*
X103254660Y-96054352D01*
X103387665Y-96143223D01*
X103500777Y-96256335D01*
X103589648Y-96389340D01*
X103650863Y-96537128D01*
X103682071Y-96694018D01*
X103682071Y-96853982D01*
X103650863Y-97010872D01*
X103589648Y-97158660D01*
X103500777Y-97291665D01*
X103387665Y-97404777D01*
X103254660Y-97493648D01*
X103106872Y-97554863D01*
X102949982Y-97586071D01*
X102790018Y-97586071D01*
X102633128Y-97554863D01*
X102485340Y-97493648D01*
X102352335Y-97404777D01*
X102239223Y-97291665D01*
X102150352Y-97158660D01*
X102089137Y-97010872D01*
X102057929Y-96853982D01*
X102057929Y-96694018D01*
X102089137Y-96537128D01*
X102150352Y-96389340D01*
X102239223Y-96256335D01*
X102352335Y-96143223D01*
X102485340Y-96054352D01*
X102633128Y-95993137D01*
X102790018Y-95961929D01*
X102949982Y-95961929D01*
X103106872Y-95993137D01*
G37*
G36*
X105646872Y-95993137D02*
G01*
X105794660Y-96054352D01*
X105927665Y-96143223D01*
X106040777Y-96256335D01*
X106129648Y-96389340D01*
X106190863Y-96537128D01*
X106222071Y-96694018D01*
X106222071Y-96853982D01*
X106190863Y-97010872D01*
X106129648Y-97158660D01*
X106040777Y-97291665D01*
X105927665Y-97404777D01*
X105794660Y-97493648D01*
X105646872Y-97554863D01*
X105489982Y-97586071D01*
X105330018Y-97586071D01*
X105173128Y-97554863D01*
X105025340Y-97493648D01*
X104892335Y-97404777D01*
X104779223Y-97291665D01*
X104690352Y-97158660D01*
X104629137Y-97010872D01*
X104597929Y-96853982D01*
X104597929Y-96694018D01*
X104629137Y-96537128D01*
X104690352Y-96389340D01*
X104779223Y-96256335D01*
X104892335Y-96143223D01*
X105025340Y-96054352D01*
X105173128Y-95993137D01*
X105330018Y-95961929D01*
X105489982Y-95961929D01*
X105646872Y-95993137D01*
G37*
G36*
X108186872Y-95993137D02*
G01*
X108334660Y-96054352D01*
X108467665Y-96143223D01*
X108580777Y-96256335D01*
X108669648Y-96389340D01*
X108730863Y-96537128D01*
X108762071Y-96694018D01*
X108762071Y-96853982D01*
X108730863Y-97010872D01*
X108669648Y-97158660D01*
X108580777Y-97291665D01*
X108467665Y-97404777D01*
X108334660Y-97493648D01*
X108186872Y-97554863D01*
X108029982Y-97586071D01*
X107870018Y-97586071D01*
X107713128Y-97554863D01*
X107565340Y-97493648D01*
X107432335Y-97404777D01*
X107319223Y-97291665D01*
X107230352Y-97158660D01*
X107169137Y-97010872D01*
X107137929Y-96853982D01*
X107137929Y-96694018D01*
X107169137Y-96537128D01*
X107230352Y-96389340D01*
X107319223Y-96256335D01*
X107432335Y-96143223D01*
X107565340Y-96054352D01*
X107713128Y-95993137D01*
X107870018Y-95961929D01*
X108029982Y-95961929D01*
X108186872Y-95993137D01*
G37*
G36*
X110726872Y-95993137D02*
G01*
X110874660Y-96054352D01*
X111007665Y-96143223D01*
X111120777Y-96256335D01*
X111209648Y-96389340D01*
X111270863Y-96537128D01*
X111302071Y-96694018D01*
X111302071Y-96853982D01*
X111270863Y-97010872D01*
X111209648Y-97158660D01*
X111120777Y-97291665D01*
X111007665Y-97404777D01*
X110874660Y-97493648D01*
X110726872Y-97554863D01*
X110569982Y-97586071D01*
X110410018Y-97586071D01*
X110253128Y-97554863D01*
X110105340Y-97493648D01*
X109972335Y-97404777D01*
X109859223Y-97291665D01*
X109770352Y-97158660D01*
X109709137Y-97010872D01*
X109677929Y-96853982D01*
X109677929Y-96694018D01*
X109709137Y-96537128D01*
X109770352Y-96389340D01*
X109859223Y-96256335D01*
X109972335Y-96143223D01*
X110105340Y-96054352D01*
X110253128Y-95993137D01*
X110410018Y-95961929D01*
X110569982Y-95961929D01*
X110726872Y-95993137D01*
G37*
G36*
X113266872Y-95993137D02*
G01*
X113414660Y-96054352D01*
X113547665Y-96143223D01*
X113660777Y-96256335D01*
X113749648Y-96389340D01*
X113810863Y-96537128D01*
X113842071Y-96694018D01*
X113842071Y-96853982D01*
X113810863Y-97010872D01*
X113749648Y-97158660D01*
X113660777Y-97291665D01*
X113547665Y-97404777D01*
X113414660Y-97493648D01*
X113266872Y-97554863D01*
X113109982Y-97586071D01*
X112950018Y-97586071D01*
X112793128Y-97554863D01*
X112645340Y-97493648D01*
X112512335Y-97404777D01*
X112399223Y-97291665D01*
X112310352Y-97158660D01*
X112249137Y-97010872D01*
X112217929Y-96853982D01*
X112217929Y-96694018D01*
X112249137Y-96537128D01*
X112310352Y-96389340D01*
X112399223Y-96256335D01*
X112512335Y-96143223D01*
X112645340Y-96054352D01*
X112793128Y-95993137D01*
X112950018Y-95961929D01*
X113109982Y-95961929D01*
X113266872Y-95993137D01*
G37*
G36*
X115806872Y-95993137D02*
G01*
X115954660Y-96054352D01*
X116087665Y-96143223D01*
X116200777Y-96256335D01*
X116289648Y-96389340D01*
X116350863Y-96537128D01*
X116382071Y-96694018D01*
X116382071Y-96853982D01*
X116350863Y-97010872D01*
X116289648Y-97158660D01*
X116200777Y-97291665D01*
X116087665Y-97404777D01*
X115954660Y-97493648D01*
X115806872Y-97554863D01*
X115649982Y-97586071D01*
X115490018Y-97586071D01*
X115333128Y-97554863D01*
X115185340Y-97493648D01*
X115052335Y-97404777D01*
X114939223Y-97291665D01*
X114850352Y-97158660D01*
X114789137Y-97010872D01*
X114757929Y-96853982D01*
X114757929Y-96694018D01*
X114789137Y-96537128D01*
X114850352Y-96389340D01*
X114939223Y-96256335D01*
X115052335Y-96143223D01*
X115185340Y-96054352D01*
X115333128Y-95993137D01*
X115490018Y-95961929D01*
X115649982Y-95961929D01*
X115806872Y-95993137D01*
G37*
G36*
X118346872Y-95993137D02*
G01*
X118494660Y-96054352D01*
X118627665Y-96143223D01*
X118740777Y-96256335D01*
X118829648Y-96389340D01*
X118890863Y-96537128D01*
X118922071Y-96694018D01*
X118922071Y-96853982D01*
X118890863Y-97010872D01*
X118829648Y-97158660D01*
X118740777Y-97291665D01*
X118627665Y-97404777D01*
X118494660Y-97493648D01*
X118346872Y-97554863D01*
X118189982Y-97586071D01*
X118030018Y-97586071D01*
X117873128Y-97554863D01*
X117725340Y-97493648D01*
X117592335Y-97404777D01*
X117479223Y-97291665D01*
X117390352Y-97158660D01*
X117329137Y-97010872D01*
X117297929Y-96853982D01*
X117297929Y-96694018D01*
X117329137Y-96537128D01*
X117390352Y-96389340D01*
X117479223Y-96256335D01*
X117592335Y-96143223D01*
X117725340Y-96054352D01*
X117873128Y-95993137D01*
X118030018Y-95961929D01*
X118189982Y-95961929D01*
X118346872Y-95993137D01*
G37*
G36*
X120886872Y-95993137D02*
G01*
X121034660Y-96054352D01*
X121167665Y-96143223D01*
X121280777Y-96256335D01*
X121369648Y-96389340D01*
X121430863Y-96537128D01*
X121462071Y-96694018D01*
X121462071Y-96853982D01*
X121430863Y-97010872D01*
X121369648Y-97158660D01*
X121280777Y-97291665D01*
X121167665Y-97404777D01*
X121034660Y-97493648D01*
X120886872Y-97554863D01*
X120729982Y-97586071D01*
X120570018Y-97586071D01*
X120413128Y-97554863D01*
X120265340Y-97493648D01*
X120132335Y-97404777D01*
X120019223Y-97291665D01*
X119930352Y-97158660D01*
X119869137Y-97010872D01*
X119837929Y-96853982D01*
X119837929Y-96694018D01*
X119869137Y-96537128D01*
X119930352Y-96389340D01*
X120019223Y-96256335D01*
X120132335Y-96143223D01*
X120265340Y-96054352D01*
X120413128Y-95993137D01*
X120570018Y-95961929D01*
X120729982Y-95961929D01*
X120886872Y-95993137D01*
G37*
G36*
X123426872Y-95993137D02*
G01*
X123574660Y-96054352D01*
X123707665Y-96143223D01*
X123820777Y-96256335D01*
X123909648Y-96389340D01*
X123970863Y-96537128D01*
X124002071Y-96694018D01*
X124002071Y-96853982D01*
X123970863Y-97010872D01*
X123909648Y-97158660D01*
X123820777Y-97291665D01*
X123707665Y-97404777D01*
X123574660Y-97493648D01*
X123426872Y-97554863D01*
X123269982Y-97586071D01*
X123110018Y-97586071D01*
X122953128Y-97554863D01*
X122805340Y-97493648D01*
X122672335Y-97404777D01*
X122559223Y-97291665D01*
X122470352Y-97158660D01*
X122409137Y-97010872D01*
X122377929Y-96853982D01*
X122377929Y-96694018D01*
X122409137Y-96537128D01*
X122470352Y-96389340D01*
X122559223Y-96256335D01*
X122672335Y-96143223D01*
X122805340Y-96054352D01*
X122953128Y-95993137D01*
X123110018Y-95961929D01*
X123269982Y-95961929D01*
X123426872Y-95993137D01*
G37*
G36*
X125966872Y-95993137D02*
G01*
X126114660Y-96054352D01*
X126247665Y-96143223D01*
X126360777Y-96256335D01*
X126449648Y-96389340D01*
X126510863Y-96537128D01*
X126542071Y-96694018D01*
X126542071Y-96853982D01*
X126510863Y-97010872D01*
X126449648Y-97158660D01*
X126360777Y-97291665D01*
X126247665Y-97404777D01*
X126114660Y-97493648D01*
X125966872Y-97554863D01*
X125809982Y-97586071D01*
X125650018Y-97586071D01*
X125493128Y-97554863D01*
X125345340Y-97493648D01*
X125212335Y-97404777D01*
X125099223Y-97291665D01*
X125010352Y-97158660D01*
X124949137Y-97010872D01*
X124917929Y-96853982D01*
X124917929Y-96694018D01*
X124949137Y-96537128D01*
X125010352Y-96389340D01*
X125099223Y-96256335D01*
X125212335Y-96143223D01*
X125345340Y-96054352D01*
X125493128Y-95993137D01*
X125650018Y-95961929D01*
X125809982Y-95961929D01*
X125966872Y-95993137D01*
G37*
G36*
X128506872Y-95993137D02*
G01*
X128654660Y-96054352D01*
X128787665Y-96143223D01*
X128900777Y-96256335D01*
X128989648Y-96389340D01*
X129050863Y-96537128D01*
X129082071Y-96694018D01*
X129082071Y-96853982D01*
X129050863Y-97010872D01*
X128989648Y-97158660D01*
X128900777Y-97291665D01*
X128787665Y-97404777D01*
X128654660Y-97493648D01*
X128506872Y-97554863D01*
X128349982Y-97586071D01*
X128190018Y-97586071D01*
X128033128Y-97554863D01*
X127885340Y-97493648D01*
X127752335Y-97404777D01*
X127639223Y-97291665D01*
X127550352Y-97158660D01*
X127489137Y-97010872D01*
X127457929Y-96853982D01*
X127457929Y-96694018D01*
X127489137Y-96537128D01*
X127550352Y-96389340D01*
X127639223Y-96256335D01*
X127752335Y-96143223D01*
X127885340Y-96054352D01*
X128033128Y-95993137D01*
X128190018Y-95961929D01*
X128349982Y-95961929D01*
X128506872Y-95993137D01*
G37*
G36*
X131046872Y-95993137D02*
G01*
X131194660Y-96054352D01*
X131327665Y-96143223D01*
X131440777Y-96256335D01*
X131529648Y-96389340D01*
X131590863Y-96537128D01*
X131622071Y-96694018D01*
X131622071Y-96853982D01*
X131590863Y-97010872D01*
X131529648Y-97158660D01*
X131440777Y-97291665D01*
X131327665Y-97404777D01*
X131194660Y-97493648D01*
X131046872Y-97554863D01*
X130889982Y-97586071D01*
X130730018Y-97586071D01*
X130573128Y-97554863D01*
X130425340Y-97493648D01*
X130292335Y-97404777D01*
X130179223Y-97291665D01*
X130090352Y-97158660D01*
X130029137Y-97010872D01*
X129997929Y-96853982D01*
X129997929Y-96694018D01*
X130029137Y-96537128D01*
X130090352Y-96389340D01*
X130179223Y-96256335D01*
X130292335Y-96143223D01*
X130425340Y-96054352D01*
X130573128Y-95993137D01*
X130730018Y-95961929D01*
X130889982Y-95961929D01*
X131046872Y-95993137D01*
G37*
G36*
X93479546Y-92101797D02*
G01*
X93642728Y-92169389D01*
X93789588Y-92267518D01*
X93914482Y-92392412D01*
X94012611Y-92539272D01*
X94080203Y-92702454D01*
X94114661Y-92875687D01*
X94114661Y-93052313D01*
X94080203Y-93225546D01*
X94012611Y-93388728D01*
X93914482Y-93535588D01*
X93789588Y-93660482D01*
X93642728Y-93758611D01*
X93479546Y-93826203D01*
X93306313Y-93860661D01*
X93129687Y-93860661D01*
X92956454Y-93826203D01*
X92793272Y-93758611D01*
X92646412Y-93660482D01*
X92521518Y-93535588D01*
X92423389Y-93388728D01*
X92355797Y-93225546D01*
X92321339Y-93052313D01*
X92321339Y-92875687D01*
X92355797Y-92702454D01*
X92423389Y-92539272D01*
X92521518Y-92392412D01*
X92646412Y-92267518D01*
X92793272Y-92169389D01*
X92956454Y-92101797D01*
X93129687Y-92067339D01*
X93306313Y-92067339D01*
X93479546Y-92101797D01*
G37*
G36*
X247147917Y-91774782D02*
G01*
X247164462Y-91785838D01*
X247175518Y-91802383D01*
X247179400Y-91821900D01*
X247179400Y-93521900D01*
X247175518Y-93541417D01*
X247164462Y-93557962D01*
X247147917Y-93569018D01*
X247128400Y-93572900D01*
X245428400Y-93572900D01*
X245408883Y-93569018D01*
X245392338Y-93557962D01*
X245381282Y-93541417D01*
X245377400Y-93521900D01*
X245377400Y-91821900D01*
X245381282Y-91802383D01*
X245392338Y-91785838D01*
X245408883Y-91774782D01*
X245428400Y-91770900D01*
X247128400Y-91770900D01*
X247147917Y-91774782D01*
G37*
G36*
X93479546Y-89561797D02*
G01*
X93642728Y-89629389D01*
X93789588Y-89727518D01*
X93914482Y-89852412D01*
X94012611Y-89999272D01*
X94080203Y-90162454D01*
X94114661Y-90335687D01*
X94114661Y-90512313D01*
X94080203Y-90685546D01*
X94012611Y-90848728D01*
X93914482Y-90995588D01*
X93789588Y-91120482D01*
X93642728Y-91218611D01*
X93479546Y-91286203D01*
X93306313Y-91320661D01*
X93129687Y-91320661D01*
X92956454Y-91286203D01*
X92793272Y-91218611D01*
X92646412Y-91120482D01*
X92521518Y-90995588D01*
X92423389Y-90848728D01*
X92355797Y-90685546D01*
X92321339Y-90512313D01*
X92321339Y-90335687D01*
X92355797Y-90162454D01*
X92423389Y-89999272D01*
X92521518Y-89852412D01*
X92646412Y-89727518D01*
X92793272Y-89629389D01*
X92956454Y-89561797D01*
X93129687Y-89527339D01*
X93306313Y-89527339D01*
X93479546Y-89561797D01*
G37*
G36*
X246539946Y-89269697D02*
G01*
X246703128Y-89337289D01*
X246849988Y-89435418D01*
X246974882Y-89560312D01*
X247073011Y-89707172D01*
X247140603Y-89870354D01*
X247175061Y-90043587D01*
X247175061Y-90220213D01*
X247140603Y-90393446D01*
X247073011Y-90556628D01*
X246974882Y-90703488D01*
X246849988Y-90828382D01*
X246703128Y-90926511D01*
X246539946Y-90994103D01*
X246366713Y-91028561D01*
X246190087Y-91028561D01*
X246016854Y-90994103D01*
X245853672Y-90926511D01*
X245706812Y-90828382D01*
X245581918Y-90703488D01*
X245483789Y-90556628D01*
X245416197Y-90393446D01*
X245381739Y-90220213D01*
X245381739Y-90043587D01*
X245416197Y-89870354D01*
X245483789Y-89707172D01*
X245581918Y-89560312D01*
X245706812Y-89435418D01*
X245853672Y-89337289D01*
X246016854Y-89269697D01*
X246190087Y-89235239D01*
X246366713Y-89235239D01*
X246539946Y-89269697D01*
G37*
G36*
X94087517Y-86986882D02*
G01*
X94104062Y-86997938D01*
X94115118Y-87014483D01*
X94119000Y-87034000D01*
X94119000Y-88734000D01*
X94115118Y-88753517D01*
X94104062Y-88770062D01*
X94087517Y-88781118D01*
X94068000Y-88785000D01*
X92368000Y-88785000D01*
X92348483Y-88781118D01*
X92331938Y-88770062D01*
X92320882Y-88753517D01*
X92317000Y-88734000D01*
X92317000Y-87034000D01*
X92320882Y-87014483D01*
X92331938Y-86997938D01*
X92348483Y-86986882D01*
X92368000Y-86983000D01*
X94068000Y-86983000D01*
X94087517Y-86986882D01*
G37*
G36*
X246539946Y-86729697D02*
G01*
X246703128Y-86797289D01*
X246849988Y-86895418D01*
X246974882Y-87020312D01*
X247073011Y-87167172D01*
X247140603Y-87330354D01*
X247175061Y-87503587D01*
X247175061Y-87680213D01*
X247140603Y-87853446D01*
X247073011Y-88016628D01*
X246974882Y-88163488D01*
X246849988Y-88288382D01*
X246703128Y-88386511D01*
X246539946Y-88454103D01*
X246366713Y-88488561D01*
X246190087Y-88488561D01*
X246016854Y-88454103D01*
X245853672Y-88386511D01*
X245706812Y-88288382D01*
X245581918Y-88163488D01*
X245483789Y-88016628D01*
X245416197Y-87853446D01*
X245381739Y-87680213D01*
X245381739Y-87503587D01*
X245416197Y-87330354D01*
X245483789Y-87167172D01*
X245581918Y-87020312D01*
X245706812Y-86895418D01*
X245853672Y-86797289D01*
X246016854Y-86729697D01*
X246190087Y-86695239D01*
X246366713Y-86695239D01*
X246539946Y-86729697D01*
G37*
G36*
X246539946Y-84189697D02*
G01*
X246703128Y-84257289D01*
X246849988Y-84355418D01*
X246974882Y-84480312D01*
X247073011Y-84627172D01*
X247140603Y-84790354D01*
X247175061Y-84963587D01*
X247175061Y-85140213D01*
X247140603Y-85313446D01*
X247073011Y-85476628D01*
X246974882Y-85623488D01*
X246849988Y-85748382D01*
X246703128Y-85846511D01*
X246539946Y-85914103D01*
X246366713Y-85948561D01*
X246190087Y-85948561D01*
X246016854Y-85914103D01*
X245853672Y-85846511D01*
X245706812Y-85748382D01*
X245581918Y-85623488D01*
X245483789Y-85476628D01*
X245416197Y-85313446D01*
X245381739Y-85140213D01*
X245381739Y-84963587D01*
X245416197Y-84790354D01*
X245483789Y-84627172D01*
X245581918Y-84480312D01*
X245706812Y-84355418D01*
X245853672Y-84257289D01*
X246016854Y-84189697D01*
X246190087Y-84155239D01*
X246366713Y-84155239D01*
X246539946Y-84189697D01*
G37*
G36*
X103654517Y-83769882D02*
G01*
X103671062Y-83780938D01*
X103682118Y-83797483D01*
X103686000Y-83817000D01*
X103686000Y-85347000D01*
X103682118Y-85366517D01*
X103671062Y-85383062D01*
X103654517Y-85394118D01*
X103635000Y-85398000D01*
X102105000Y-85398000D01*
X102085483Y-85394118D01*
X102068938Y-85383062D01*
X102057882Y-85366517D01*
X102054000Y-85347000D01*
X102054000Y-83817000D01*
X102057882Y-83797483D01*
X102068938Y-83780938D01*
X102085483Y-83769882D01*
X102105000Y-83766000D01*
X103635000Y-83766000D01*
X103654517Y-83769882D01*
G37*
G36*
X105646872Y-83801137D02*
G01*
X105794660Y-83862352D01*
X105927665Y-83951223D01*
X106040777Y-84064335D01*
X106129648Y-84197340D01*
X106190863Y-84345128D01*
X106222071Y-84502018D01*
X106222071Y-84661982D01*
X106190863Y-84818872D01*
X106129648Y-84966660D01*
X106040777Y-85099665D01*
X105927665Y-85212777D01*
X105794660Y-85301648D01*
X105646872Y-85362863D01*
X105489982Y-85394071D01*
X105330018Y-85394071D01*
X105173128Y-85362863D01*
X105025340Y-85301648D01*
X104892335Y-85212777D01*
X104779223Y-85099665D01*
X104690352Y-84966660D01*
X104629137Y-84818872D01*
X104597929Y-84661982D01*
X104597929Y-84502018D01*
X104629137Y-84345128D01*
X104690352Y-84197340D01*
X104779223Y-84064335D01*
X104892335Y-83951223D01*
X105025340Y-83862352D01*
X105173128Y-83801137D01*
X105330018Y-83769929D01*
X105489982Y-83769929D01*
X105646872Y-83801137D01*
G37*
G36*
X108186872Y-83801137D02*
G01*
X108334660Y-83862352D01*
X108467665Y-83951223D01*
X108580777Y-84064335D01*
X108669648Y-84197340D01*
X108730863Y-84345128D01*
X108762071Y-84502018D01*
X108762071Y-84661982D01*
X108730863Y-84818872D01*
X108669648Y-84966660D01*
X108580777Y-85099665D01*
X108467665Y-85212777D01*
X108334660Y-85301648D01*
X108186872Y-85362863D01*
X108029982Y-85394071D01*
X107870018Y-85394071D01*
X107713128Y-85362863D01*
X107565340Y-85301648D01*
X107432335Y-85212777D01*
X107319223Y-85099665D01*
X107230352Y-84966660D01*
X107169137Y-84818872D01*
X107137929Y-84661982D01*
X107137929Y-84502018D01*
X107169137Y-84345128D01*
X107230352Y-84197340D01*
X107319223Y-84064335D01*
X107432335Y-83951223D01*
X107565340Y-83862352D01*
X107713128Y-83801137D01*
X107870018Y-83769929D01*
X108029982Y-83769929D01*
X108186872Y-83801137D01*
G37*
G36*
X110726872Y-83801137D02*
G01*
X110874660Y-83862352D01*
X111007665Y-83951223D01*
X111120777Y-84064335D01*
X111209648Y-84197340D01*
X111270863Y-84345128D01*
X111302071Y-84502018D01*
X111302071Y-84661982D01*
X111270863Y-84818872D01*
X111209648Y-84966660D01*
X111120777Y-85099665D01*
X111007665Y-85212777D01*
X110874660Y-85301648D01*
X110726872Y-85362863D01*
X110569982Y-85394071D01*
X110410018Y-85394071D01*
X110253128Y-85362863D01*
X110105340Y-85301648D01*
X109972335Y-85212777D01*
X109859223Y-85099665D01*
X109770352Y-84966660D01*
X109709137Y-84818872D01*
X109677929Y-84661982D01*
X109677929Y-84502018D01*
X109709137Y-84345128D01*
X109770352Y-84197340D01*
X109859223Y-84064335D01*
X109972335Y-83951223D01*
X110105340Y-83862352D01*
X110253128Y-83801137D01*
X110410018Y-83769929D01*
X110569982Y-83769929D01*
X110726872Y-83801137D01*
G37*
G36*
X113266872Y-83801137D02*
G01*
X113414660Y-83862352D01*
X113547665Y-83951223D01*
X113660777Y-84064335D01*
X113749648Y-84197340D01*
X113810863Y-84345128D01*
X113842071Y-84502018D01*
X113842071Y-84661982D01*
X113810863Y-84818872D01*
X113749648Y-84966660D01*
X113660777Y-85099665D01*
X113547665Y-85212777D01*
X113414660Y-85301648D01*
X113266872Y-85362863D01*
X113109982Y-85394071D01*
X112950018Y-85394071D01*
X112793128Y-85362863D01*
X112645340Y-85301648D01*
X112512335Y-85212777D01*
X112399223Y-85099665D01*
X112310352Y-84966660D01*
X112249137Y-84818872D01*
X112217929Y-84661982D01*
X112217929Y-84502018D01*
X112249137Y-84345128D01*
X112310352Y-84197340D01*
X112399223Y-84064335D01*
X112512335Y-83951223D01*
X112645340Y-83862352D01*
X112793128Y-83801137D01*
X112950018Y-83769929D01*
X113109982Y-83769929D01*
X113266872Y-83801137D01*
G37*
G36*
X115806872Y-83801137D02*
G01*
X115954660Y-83862352D01*
X116087665Y-83951223D01*
X116200777Y-84064335D01*
X116289648Y-84197340D01*
X116350863Y-84345128D01*
X116382071Y-84502018D01*
X116382071Y-84661982D01*
X116350863Y-84818872D01*
X116289648Y-84966660D01*
X116200777Y-85099665D01*
X116087665Y-85212777D01*
X115954660Y-85301648D01*
X115806872Y-85362863D01*
X115649982Y-85394071D01*
X115490018Y-85394071D01*
X115333128Y-85362863D01*
X115185340Y-85301648D01*
X115052335Y-85212777D01*
X114939223Y-85099665D01*
X114850352Y-84966660D01*
X114789137Y-84818872D01*
X114757929Y-84661982D01*
X114757929Y-84502018D01*
X114789137Y-84345128D01*
X114850352Y-84197340D01*
X114939223Y-84064335D01*
X115052335Y-83951223D01*
X115185340Y-83862352D01*
X115333128Y-83801137D01*
X115490018Y-83769929D01*
X115649982Y-83769929D01*
X115806872Y-83801137D01*
G37*
G36*
X118346872Y-83801137D02*
G01*
X118494660Y-83862352D01*
X118627665Y-83951223D01*
X118740777Y-84064335D01*
X118829648Y-84197340D01*
X118890863Y-84345128D01*
X118922071Y-84502018D01*
X118922071Y-84661982D01*
X118890863Y-84818872D01*
X118829648Y-84966660D01*
X118740777Y-85099665D01*
X118627665Y-85212777D01*
X118494660Y-85301648D01*
X118346872Y-85362863D01*
X118189982Y-85394071D01*
X118030018Y-85394071D01*
X117873128Y-85362863D01*
X117725340Y-85301648D01*
X117592335Y-85212777D01*
X117479223Y-85099665D01*
X117390352Y-84966660D01*
X117329137Y-84818872D01*
X117297929Y-84661982D01*
X117297929Y-84502018D01*
X117329137Y-84345128D01*
X117390352Y-84197340D01*
X117479223Y-84064335D01*
X117592335Y-83951223D01*
X117725340Y-83862352D01*
X117873128Y-83801137D01*
X118030018Y-83769929D01*
X118189982Y-83769929D01*
X118346872Y-83801137D01*
G37*
G36*
X120886872Y-83801137D02*
G01*
X121034660Y-83862352D01*
X121167665Y-83951223D01*
X121280777Y-84064335D01*
X121369648Y-84197340D01*
X121430863Y-84345128D01*
X121462071Y-84502018D01*
X121462071Y-84661982D01*
X121430863Y-84818872D01*
X121369648Y-84966660D01*
X121280777Y-85099665D01*
X121167665Y-85212777D01*
X121034660Y-85301648D01*
X120886872Y-85362863D01*
X120729982Y-85394071D01*
X120570018Y-85394071D01*
X120413128Y-85362863D01*
X120265340Y-85301648D01*
X120132335Y-85212777D01*
X120019223Y-85099665D01*
X119930352Y-84966660D01*
X119869137Y-84818872D01*
X119837929Y-84661982D01*
X119837929Y-84502018D01*
X119869137Y-84345128D01*
X119930352Y-84197340D01*
X120019223Y-84064335D01*
X120132335Y-83951223D01*
X120265340Y-83862352D01*
X120413128Y-83801137D01*
X120570018Y-83769929D01*
X120729982Y-83769929D01*
X120886872Y-83801137D01*
G37*
G36*
X123426872Y-83801137D02*
G01*
X123574660Y-83862352D01*
X123707665Y-83951223D01*
X123820777Y-84064335D01*
X123909648Y-84197340D01*
X123970863Y-84345128D01*
X124002071Y-84502018D01*
X124002071Y-84661982D01*
X123970863Y-84818872D01*
X123909648Y-84966660D01*
X123820777Y-85099665D01*
X123707665Y-85212777D01*
X123574660Y-85301648D01*
X123426872Y-85362863D01*
X123269982Y-85394071D01*
X123110018Y-85394071D01*
X122953128Y-85362863D01*
X122805340Y-85301648D01*
X122672335Y-85212777D01*
X122559223Y-85099665D01*
X122470352Y-84966660D01*
X122409137Y-84818872D01*
X122377929Y-84661982D01*
X122377929Y-84502018D01*
X122409137Y-84345128D01*
X122470352Y-84197340D01*
X122559223Y-84064335D01*
X122672335Y-83951223D01*
X122805340Y-83862352D01*
X122953128Y-83801137D01*
X123110018Y-83769929D01*
X123269982Y-83769929D01*
X123426872Y-83801137D01*
G37*
G36*
X125966872Y-83801137D02*
G01*
X126114660Y-83862352D01*
X126247665Y-83951223D01*
X126360777Y-84064335D01*
X126449648Y-84197340D01*
X126510863Y-84345128D01*
X126542071Y-84502018D01*
X126542071Y-84661982D01*
X126510863Y-84818872D01*
X126449648Y-84966660D01*
X126360777Y-85099665D01*
X126247665Y-85212777D01*
X126114660Y-85301648D01*
X125966872Y-85362863D01*
X125809982Y-85394071D01*
X125650018Y-85394071D01*
X125493128Y-85362863D01*
X125345340Y-85301648D01*
X125212335Y-85212777D01*
X125099223Y-85099665D01*
X125010352Y-84966660D01*
X124949137Y-84818872D01*
X124917929Y-84661982D01*
X124917929Y-84502018D01*
X124949137Y-84345128D01*
X125010352Y-84197340D01*
X125099223Y-84064335D01*
X125212335Y-83951223D01*
X125345340Y-83862352D01*
X125493128Y-83801137D01*
X125650018Y-83769929D01*
X125809982Y-83769929D01*
X125966872Y-83801137D01*
G37*
G36*
X128506872Y-83801137D02*
G01*
X128654660Y-83862352D01*
X128787665Y-83951223D01*
X128900777Y-84064335D01*
X128989648Y-84197340D01*
X129050863Y-84345128D01*
X129082071Y-84502018D01*
X129082071Y-84661982D01*
X129050863Y-84818872D01*
X128989648Y-84966660D01*
X128900777Y-85099665D01*
X128787665Y-85212777D01*
X128654660Y-85301648D01*
X128506872Y-85362863D01*
X128349982Y-85394071D01*
X128190018Y-85394071D01*
X128033128Y-85362863D01*
X127885340Y-85301648D01*
X127752335Y-85212777D01*
X127639223Y-85099665D01*
X127550352Y-84966660D01*
X127489137Y-84818872D01*
X127457929Y-84661982D01*
X127457929Y-84502018D01*
X127489137Y-84345128D01*
X127550352Y-84197340D01*
X127639223Y-84064335D01*
X127752335Y-83951223D01*
X127885340Y-83862352D01*
X128033128Y-83801137D01*
X128190018Y-83769929D01*
X128349982Y-83769929D01*
X128506872Y-83801137D01*
G37*
G36*
X131046872Y-83801137D02*
G01*
X131194660Y-83862352D01*
X131327665Y-83951223D01*
X131440777Y-84064335D01*
X131529648Y-84197340D01*
X131590863Y-84345128D01*
X131622071Y-84502018D01*
X131622071Y-84661982D01*
X131590863Y-84818872D01*
X131529648Y-84966660D01*
X131440777Y-85099665D01*
X131327665Y-85212777D01*
X131194660Y-85301648D01*
X131046872Y-85362863D01*
X130889982Y-85394071D01*
X130730018Y-85394071D01*
X130573128Y-85362863D01*
X130425340Y-85301648D01*
X130292335Y-85212777D01*
X130179223Y-85099665D01*
X130090352Y-84966660D01*
X130029137Y-84818872D01*
X129997929Y-84661982D01*
X129997929Y-84502018D01*
X130029137Y-84345128D01*
X130090352Y-84197340D01*
X130179223Y-84064335D01*
X130292335Y-83951223D01*
X130425340Y-83862352D01*
X130573128Y-83801137D01*
X130730018Y-83769929D01*
X130889982Y-83769929D01*
X131046872Y-83801137D01*
G37*
G36*
X246539946Y-81649697D02*
G01*
X246703128Y-81717289D01*
X246849988Y-81815418D01*
X246974882Y-81940312D01*
X247073011Y-82087172D01*
X247140603Y-82250354D01*
X247175061Y-82423587D01*
X247175061Y-82600213D01*
X247140603Y-82773446D01*
X247073011Y-82936628D01*
X246974882Y-83083488D01*
X246849988Y-83208382D01*
X246703128Y-83306511D01*
X246539946Y-83374103D01*
X246366713Y-83408561D01*
X246190087Y-83408561D01*
X246016854Y-83374103D01*
X245853672Y-83306511D01*
X245706812Y-83208382D01*
X245581918Y-83083488D01*
X245483789Y-82936628D01*
X245416197Y-82773446D01*
X245381739Y-82600213D01*
X245381739Y-82423587D01*
X245416197Y-82250354D01*
X245483789Y-82087172D01*
X245581918Y-81940312D01*
X245706812Y-81815418D01*
X245853672Y-81717289D01*
X246016854Y-81649697D01*
X246190087Y-81615239D01*
X246366713Y-81615239D01*
X246539946Y-81649697D01*
G37*
G36*
X146595717Y-81875082D02*
G01*
X146612262Y-81886138D01*
X146623318Y-81902683D01*
X146627200Y-81922200D01*
X146627200Y-83330200D01*
X146623318Y-83349717D01*
X146612262Y-83366262D01*
X146595717Y-83377318D01*
X146576200Y-83381200D01*
X145168200Y-83381200D01*
X145148683Y-83377318D01*
X145132138Y-83366262D01*
X145121082Y-83349717D01*
X145117200Y-83330200D01*
X145117200Y-81922200D01*
X145121082Y-81902683D01*
X145132138Y-81886138D01*
X145148683Y-81875082D01*
X145168200Y-81871200D01*
X146576200Y-81871200D01*
X146595717Y-81875082D01*
G37*
G36*
X148631365Y-81903710D02*
G01*
X148768105Y-81960349D01*
X148891167Y-82042577D01*
X148995823Y-82147233D01*
X149078051Y-82270295D01*
X149134690Y-82407035D01*
X149163564Y-82552197D01*
X149163564Y-82700203D01*
X149134690Y-82845365D01*
X149078051Y-82982105D01*
X148995823Y-83105167D01*
X148891167Y-83209823D01*
X148768105Y-83292051D01*
X148631365Y-83348690D01*
X148486203Y-83377564D01*
X148338197Y-83377564D01*
X148193035Y-83348690D01*
X148056295Y-83292051D01*
X147933233Y-83209823D01*
X147828577Y-83105167D01*
X147746349Y-82982105D01*
X147689710Y-82845365D01*
X147660836Y-82700203D01*
X147660836Y-82552197D01*
X147689710Y-82407035D01*
X147746349Y-82270295D01*
X147828577Y-82147233D01*
X147933233Y-82042577D01*
X148056295Y-81960349D01*
X148193035Y-81903710D01*
X148338197Y-81874836D01*
X148486203Y-81874836D01*
X148631365Y-81903710D01*
G37*
G36*
X151171365Y-81903710D02*
G01*
X151308105Y-81960349D01*
X151431167Y-82042577D01*
X151535823Y-82147233D01*
X151618051Y-82270295D01*
X151674690Y-82407035D01*
X151703564Y-82552197D01*
X151703564Y-82700203D01*
X151674690Y-82845365D01*
X151618051Y-82982105D01*
X151535823Y-83105167D01*
X151431167Y-83209823D01*
X151308105Y-83292051D01*
X151171365Y-83348690D01*
X151026203Y-83377564D01*
X150878197Y-83377564D01*
X150733035Y-83348690D01*
X150596295Y-83292051D01*
X150473233Y-83209823D01*
X150368577Y-83105167D01*
X150286349Y-82982105D01*
X150229710Y-82845365D01*
X150200836Y-82700203D01*
X150200836Y-82552197D01*
X150229710Y-82407035D01*
X150286349Y-82270295D01*
X150368577Y-82147233D01*
X150473233Y-82042577D01*
X150596295Y-81960349D01*
X150733035Y-81903710D01*
X150878197Y-81874836D01*
X151026203Y-81874836D01*
X151171365Y-81903710D01*
G37*
G36*
X153711365Y-81903710D02*
G01*
X153848105Y-81960349D01*
X153971167Y-82042577D01*
X154075823Y-82147233D01*
X154158051Y-82270295D01*
X154214690Y-82407035D01*
X154243564Y-82552197D01*
X154243564Y-82700203D01*
X154214690Y-82845365D01*
X154158051Y-82982105D01*
X154075823Y-83105167D01*
X153971167Y-83209823D01*
X153848105Y-83292051D01*
X153711365Y-83348690D01*
X153566203Y-83377564D01*
X153418197Y-83377564D01*
X153273035Y-83348690D01*
X153136295Y-83292051D01*
X153013233Y-83209823D01*
X152908577Y-83105167D01*
X152826349Y-82982105D01*
X152769710Y-82845365D01*
X152740836Y-82700203D01*
X152740836Y-82552197D01*
X152769710Y-82407035D01*
X152826349Y-82270295D01*
X152908577Y-82147233D01*
X153013233Y-82042577D01*
X153136295Y-81960349D01*
X153273035Y-81903710D01*
X153418197Y-81874836D01*
X153566203Y-81874836D01*
X153711365Y-81903710D01*
G37*
G36*
X156251365Y-81903710D02*
G01*
X156388105Y-81960349D01*
X156511167Y-82042577D01*
X156615823Y-82147233D01*
X156698051Y-82270295D01*
X156754690Y-82407035D01*
X156783564Y-82552197D01*
X156783564Y-82700203D01*
X156754690Y-82845365D01*
X156698051Y-82982105D01*
X156615823Y-83105167D01*
X156511167Y-83209823D01*
X156388105Y-83292051D01*
X156251365Y-83348690D01*
X156106203Y-83377564D01*
X155958197Y-83377564D01*
X155813035Y-83348690D01*
X155676295Y-83292051D01*
X155553233Y-83209823D01*
X155448577Y-83105167D01*
X155366349Y-82982105D01*
X155309710Y-82845365D01*
X155280836Y-82700203D01*
X155280836Y-82552197D01*
X155309710Y-82407035D01*
X155366349Y-82270295D01*
X155448577Y-82147233D01*
X155553233Y-82042577D01*
X155676295Y-81960349D01*
X155813035Y-81903710D01*
X155958197Y-81874836D01*
X156106203Y-81874836D01*
X156251365Y-81903710D01*
G37*
G36*
X158791365Y-81903710D02*
G01*
X158928105Y-81960349D01*
X159051167Y-82042577D01*
X159155823Y-82147233D01*
X159238051Y-82270295D01*
X159294690Y-82407035D01*
X159323564Y-82552197D01*
X159323564Y-82700203D01*
X159294690Y-82845365D01*
X159238051Y-82982105D01*
X159155823Y-83105167D01*
X159051167Y-83209823D01*
X158928105Y-83292051D01*
X158791365Y-83348690D01*
X158646203Y-83377564D01*
X158498197Y-83377564D01*
X158353035Y-83348690D01*
X158216295Y-83292051D01*
X158093233Y-83209823D01*
X157988577Y-83105167D01*
X157906349Y-82982105D01*
X157849710Y-82845365D01*
X157820836Y-82700203D01*
X157820836Y-82552197D01*
X157849710Y-82407035D01*
X157906349Y-82270295D01*
X157988577Y-82147233D01*
X158093233Y-82042577D01*
X158216295Y-81960349D01*
X158353035Y-81903710D01*
X158498197Y-81874836D01*
X158646203Y-81874836D01*
X158791365Y-81903710D01*
G37*
G36*
X161331365Y-81903710D02*
G01*
X161468105Y-81960349D01*
X161591167Y-82042577D01*
X161695823Y-82147233D01*
X161778051Y-82270295D01*
X161834690Y-82407035D01*
X161863564Y-82552197D01*
X161863564Y-82700203D01*
X161834690Y-82845365D01*
X161778051Y-82982105D01*
X161695823Y-83105167D01*
X161591167Y-83209823D01*
X161468105Y-83292051D01*
X161331365Y-83348690D01*
X161186203Y-83377564D01*
X161038197Y-83377564D01*
X160893035Y-83348690D01*
X160756295Y-83292051D01*
X160633233Y-83209823D01*
X160528577Y-83105167D01*
X160446349Y-82982105D01*
X160389710Y-82845365D01*
X160360836Y-82700203D01*
X160360836Y-82552197D01*
X160389710Y-82407035D01*
X160446349Y-82270295D01*
X160528577Y-82147233D01*
X160633233Y-82042577D01*
X160756295Y-81960349D01*
X160893035Y-81903710D01*
X161038197Y-81874836D01*
X161186203Y-81874836D01*
X161331365Y-81903710D01*
G37*
G36*
X163871365Y-81903710D02*
G01*
X164008105Y-81960349D01*
X164131167Y-82042577D01*
X164235823Y-82147233D01*
X164318051Y-82270295D01*
X164374690Y-82407035D01*
X164403564Y-82552197D01*
X164403564Y-82700203D01*
X164374690Y-82845365D01*
X164318051Y-82982105D01*
X164235823Y-83105167D01*
X164131167Y-83209823D01*
X164008105Y-83292051D01*
X163871365Y-83348690D01*
X163726203Y-83377564D01*
X163578197Y-83377564D01*
X163433035Y-83348690D01*
X163296295Y-83292051D01*
X163173233Y-83209823D01*
X163068577Y-83105167D01*
X162986349Y-82982105D01*
X162929710Y-82845365D01*
X162900836Y-82700203D01*
X162900836Y-82552197D01*
X162929710Y-82407035D01*
X162986349Y-82270295D01*
X163068577Y-82147233D01*
X163173233Y-82042577D01*
X163296295Y-81960349D01*
X163433035Y-81903710D01*
X163578197Y-81874836D01*
X163726203Y-81874836D01*
X163871365Y-81903710D01*
G37*
G36*
X166411365Y-81903710D02*
G01*
X166548105Y-81960349D01*
X166671167Y-82042577D01*
X166775823Y-82147233D01*
X166858051Y-82270295D01*
X166914690Y-82407035D01*
X166943564Y-82552197D01*
X166943564Y-82700203D01*
X166914690Y-82845365D01*
X166858051Y-82982105D01*
X166775823Y-83105167D01*
X166671167Y-83209823D01*
X166548105Y-83292051D01*
X166411365Y-83348690D01*
X166266203Y-83377564D01*
X166118197Y-83377564D01*
X165973035Y-83348690D01*
X165836295Y-83292051D01*
X165713233Y-83209823D01*
X165608577Y-83105167D01*
X165526349Y-82982105D01*
X165469710Y-82845365D01*
X165440836Y-82700203D01*
X165440836Y-82552197D01*
X165469710Y-82407035D01*
X165526349Y-82270295D01*
X165608577Y-82147233D01*
X165713233Y-82042577D01*
X165836295Y-81960349D01*
X165973035Y-81903710D01*
X166118197Y-81874836D01*
X166266203Y-81874836D01*
X166411365Y-81903710D01*
G37*
G36*
X168951365Y-81903710D02*
G01*
X169088105Y-81960349D01*
X169211167Y-82042577D01*
X169315823Y-82147233D01*
X169398051Y-82270295D01*
X169454690Y-82407035D01*
X169483564Y-82552197D01*
X169483564Y-82700203D01*
X169454690Y-82845365D01*
X169398051Y-82982105D01*
X169315823Y-83105167D01*
X169211167Y-83209823D01*
X169088105Y-83292051D01*
X168951365Y-83348690D01*
X168806203Y-83377564D01*
X168658197Y-83377564D01*
X168513035Y-83348690D01*
X168376295Y-83292051D01*
X168253233Y-83209823D01*
X168148577Y-83105167D01*
X168066349Y-82982105D01*
X168009710Y-82845365D01*
X167980836Y-82700203D01*
X167980836Y-82552197D01*
X168009710Y-82407035D01*
X168066349Y-82270295D01*
X168148577Y-82147233D01*
X168253233Y-82042577D01*
X168376295Y-81960349D01*
X168513035Y-81903710D01*
X168658197Y-81874836D01*
X168806203Y-81874836D01*
X168951365Y-81903710D01*
G37*
G36*
X171491365Y-81903710D02*
G01*
X171628105Y-81960349D01*
X171751167Y-82042577D01*
X171855823Y-82147233D01*
X171938051Y-82270295D01*
X171994690Y-82407035D01*
X172023564Y-82552197D01*
X172023564Y-82700203D01*
X171994690Y-82845365D01*
X171938051Y-82982105D01*
X171855823Y-83105167D01*
X171751167Y-83209823D01*
X171628105Y-83292051D01*
X171491365Y-83348690D01*
X171346203Y-83377564D01*
X171198197Y-83377564D01*
X171053035Y-83348690D01*
X170916295Y-83292051D01*
X170793233Y-83209823D01*
X170688577Y-83105167D01*
X170606349Y-82982105D01*
X170549710Y-82845365D01*
X170520836Y-82700203D01*
X170520836Y-82552197D01*
X170549710Y-82407035D01*
X170606349Y-82270295D01*
X170688577Y-82147233D01*
X170793233Y-82042577D01*
X170916295Y-81960349D01*
X171053035Y-81903710D01*
X171198197Y-81874836D01*
X171346203Y-81874836D01*
X171491365Y-81903710D01*
G37*
G36*
X174031365Y-81903710D02*
G01*
X174168105Y-81960349D01*
X174291167Y-82042577D01*
X174395823Y-82147233D01*
X174478051Y-82270295D01*
X174534690Y-82407035D01*
X174563564Y-82552197D01*
X174563564Y-82700203D01*
X174534690Y-82845365D01*
X174478051Y-82982105D01*
X174395823Y-83105167D01*
X174291167Y-83209823D01*
X174168105Y-83292051D01*
X174031365Y-83348690D01*
X173886203Y-83377564D01*
X173738197Y-83377564D01*
X173593035Y-83348690D01*
X173456295Y-83292051D01*
X173333233Y-83209823D01*
X173228577Y-83105167D01*
X173146349Y-82982105D01*
X173089710Y-82845365D01*
X173060836Y-82700203D01*
X173060836Y-82552197D01*
X173089710Y-82407035D01*
X173146349Y-82270295D01*
X173228577Y-82147233D01*
X173333233Y-82042577D01*
X173456295Y-81960349D01*
X173593035Y-81903710D01*
X173738197Y-81874836D01*
X173886203Y-81874836D01*
X174031365Y-81903710D01*
G37*
G36*
X176571365Y-81903710D02*
G01*
X176708105Y-81960349D01*
X176831167Y-82042577D01*
X176935823Y-82147233D01*
X177018051Y-82270295D01*
X177074690Y-82407035D01*
X177103564Y-82552197D01*
X177103564Y-82700203D01*
X177074690Y-82845365D01*
X177018051Y-82982105D01*
X176935823Y-83105167D01*
X176831167Y-83209823D01*
X176708105Y-83292051D01*
X176571365Y-83348690D01*
X176426203Y-83377564D01*
X176278197Y-83377564D01*
X176133035Y-83348690D01*
X175996295Y-83292051D01*
X175873233Y-83209823D01*
X175768577Y-83105167D01*
X175686349Y-82982105D01*
X175629710Y-82845365D01*
X175600836Y-82700203D01*
X175600836Y-82552197D01*
X175629710Y-82407035D01*
X175686349Y-82270295D01*
X175768577Y-82147233D01*
X175873233Y-82042577D01*
X175996295Y-81960349D01*
X176133035Y-81903710D01*
X176278197Y-81874836D01*
X176426203Y-81874836D01*
X176571365Y-81903710D01*
G37*
G36*
X179111365Y-81903710D02*
G01*
X179248105Y-81960349D01*
X179371167Y-82042577D01*
X179475823Y-82147233D01*
X179558051Y-82270295D01*
X179614690Y-82407035D01*
X179643564Y-82552197D01*
X179643564Y-82700203D01*
X179614690Y-82845365D01*
X179558051Y-82982105D01*
X179475823Y-83105167D01*
X179371167Y-83209823D01*
X179248105Y-83292051D01*
X179111365Y-83348690D01*
X178966203Y-83377564D01*
X178818197Y-83377564D01*
X178673035Y-83348690D01*
X178536295Y-83292051D01*
X178413233Y-83209823D01*
X178308577Y-83105167D01*
X178226349Y-82982105D01*
X178169710Y-82845365D01*
X178140836Y-82700203D01*
X178140836Y-82552197D01*
X178169710Y-82407035D01*
X178226349Y-82270295D01*
X178308577Y-82147233D01*
X178413233Y-82042577D01*
X178536295Y-81960349D01*
X178673035Y-81903710D01*
X178818197Y-81874836D01*
X178966203Y-81874836D01*
X179111365Y-81903710D01*
G37*
G36*
X181651365Y-81903710D02*
G01*
X181788105Y-81960349D01*
X181911167Y-82042577D01*
X182015823Y-82147233D01*
X182098051Y-82270295D01*
X182154690Y-82407035D01*
X182183564Y-82552197D01*
X182183564Y-82700203D01*
X182154690Y-82845365D01*
X182098051Y-82982105D01*
X182015823Y-83105167D01*
X181911167Y-83209823D01*
X181788105Y-83292051D01*
X181651365Y-83348690D01*
X181506203Y-83377564D01*
X181358197Y-83377564D01*
X181213035Y-83348690D01*
X181076295Y-83292051D01*
X180953233Y-83209823D01*
X180848577Y-83105167D01*
X180766349Y-82982105D01*
X180709710Y-82845365D01*
X180680836Y-82700203D01*
X180680836Y-82552197D01*
X180709710Y-82407035D01*
X180766349Y-82270295D01*
X180848577Y-82147233D01*
X180953233Y-82042577D01*
X181076295Y-81960349D01*
X181213035Y-81903710D01*
X181358197Y-81874836D01*
X181506203Y-81874836D01*
X181651365Y-81903710D01*
G37*
G36*
X184191365Y-81903710D02*
G01*
X184328105Y-81960349D01*
X184451167Y-82042577D01*
X184555823Y-82147233D01*
X184638051Y-82270295D01*
X184694690Y-82407035D01*
X184723564Y-82552197D01*
X184723564Y-82700203D01*
X184694690Y-82845365D01*
X184638051Y-82982105D01*
X184555823Y-83105167D01*
X184451167Y-83209823D01*
X184328105Y-83292051D01*
X184191365Y-83348690D01*
X184046203Y-83377564D01*
X183898197Y-83377564D01*
X183753035Y-83348690D01*
X183616295Y-83292051D01*
X183493233Y-83209823D01*
X183388577Y-83105167D01*
X183306349Y-82982105D01*
X183249710Y-82845365D01*
X183220836Y-82700203D01*
X183220836Y-82552197D01*
X183249710Y-82407035D01*
X183306349Y-82270295D01*
X183388577Y-82147233D01*
X183493233Y-82042577D01*
X183616295Y-81960349D01*
X183753035Y-81903710D01*
X183898197Y-81874836D01*
X184046203Y-81874836D01*
X184191365Y-81903710D01*
G37*
G36*
X186731365Y-81903710D02*
G01*
X186868105Y-81960349D01*
X186991167Y-82042577D01*
X187095823Y-82147233D01*
X187178051Y-82270295D01*
X187234690Y-82407035D01*
X187263564Y-82552197D01*
X187263564Y-82700203D01*
X187234690Y-82845365D01*
X187178051Y-82982105D01*
X187095823Y-83105167D01*
X186991167Y-83209823D01*
X186868105Y-83292051D01*
X186731365Y-83348690D01*
X186586203Y-83377564D01*
X186438197Y-83377564D01*
X186293035Y-83348690D01*
X186156295Y-83292051D01*
X186033233Y-83209823D01*
X185928577Y-83105167D01*
X185846349Y-82982105D01*
X185789710Y-82845365D01*
X185760836Y-82700203D01*
X185760836Y-82552197D01*
X185789710Y-82407035D01*
X185846349Y-82270295D01*
X185928577Y-82147233D01*
X186033233Y-82042577D01*
X186156295Y-81960349D01*
X186293035Y-81903710D01*
X186438197Y-81874836D01*
X186586203Y-81874836D01*
X186731365Y-81903710D01*
G37*
G36*
X189271365Y-81903710D02*
G01*
X189408105Y-81960349D01*
X189531167Y-82042577D01*
X189635823Y-82147233D01*
X189718051Y-82270295D01*
X189774690Y-82407035D01*
X189803564Y-82552197D01*
X189803564Y-82700203D01*
X189774690Y-82845365D01*
X189718051Y-82982105D01*
X189635823Y-83105167D01*
X189531167Y-83209823D01*
X189408105Y-83292051D01*
X189271365Y-83348690D01*
X189126203Y-83377564D01*
X188978197Y-83377564D01*
X188833035Y-83348690D01*
X188696295Y-83292051D01*
X188573233Y-83209823D01*
X188468577Y-83105167D01*
X188386349Y-82982105D01*
X188329710Y-82845365D01*
X188300836Y-82700203D01*
X188300836Y-82552197D01*
X188329710Y-82407035D01*
X188386349Y-82270295D01*
X188468577Y-82147233D01*
X188573233Y-82042577D01*
X188696295Y-81960349D01*
X188833035Y-81903710D01*
X188978197Y-81874836D01*
X189126203Y-81874836D01*
X189271365Y-81903710D01*
G37*
G36*
X103106872Y-81261137D02*
G01*
X103254660Y-81322352D01*
X103387665Y-81411223D01*
X103500777Y-81524335D01*
X103589648Y-81657340D01*
X103650863Y-81805128D01*
X103682071Y-81962018D01*
X103682071Y-82121982D01*
X103650863Y-82278872D01*
X103589648Y-82426660D01*
X103500777Y-82559665D01*
X103387665Y-82672777D01*
X103254660Y-82761648D01*
X103106872Y-82822863D01*
X102949982Y-82854071D01*
X102790018Y-82854071D01*
X102633128Y-82822863D01*
X102485340Y-82761648D01*
X102352335Y-82672777D01*
X102239223Y-82559665D01*
X102150352Y-82426660D01*
X102089137Y-82278872D01*
X102057929Y-82121982D01*
X102057929Y-81962018D01*
X102089137Y-81805128D01*
X102150352Y-81657340D01*
X102239223Y-81524335D01*
X102352335Y-81411223D01*
X102485340Y-81322352D01*
X102633128Y-81261137D01*
X102790018Y-81229929D01*
X102949982Y-81229929D01*
X103106872Y-81261137D01*
G37*
G36*
X105646872Y-81261137D02*
G01*
X105794660Y-81322352D01*
X105927665Y-81411223D01*
X106040777Y-81524335D01*
X106129648Y-81657340D01*
X106190863Y-81805128D01*
X106222071Y-81962018D01*
X106222071Y-82121982D01*
X106190863Y-82278872D01*
X106129648Y-82426660D01*
X106040777Y-82559665D01*
X105927665Y-82672777D01*
X105794660Y-82761648D01*
X105646872Y-82822863D01*
X105489982Y-82854071D01*
X105330018Y-82854071D01*
X105173128Y-82822863D01*
X105025340Y-82761648D01*
X104892335Y-82672777D01*
X104779223Y-82559665D01*
X104690352Y-82426660D01*
X104629137Y-82278872D01*
X104597929Y-82121982D01*
X104597929Y-81962018D01*
X104629137Y-81805128D01*
X104690352Y-81657340D01*
X104779223Y-81524335D01*
X104892335Y-81411223D01*
X105025340Y-81322352D01*
X105173128Y-81261137D01*
X105330018Y-81229929D01*
X105489982Y-81229929D01*
X105646872Y-81261137D01*
G37*
G36*
X108186872Y-81261137D02*
G01*
X108334660Y-81322352D01*
X108467665Y-81411223D01*
X108580777Y-81524335D01*
X108669648Y-81657340D01*
X108730863Y-81805128D01*
X108762071Y-81962018D01*
X108762071Y-82121982D01*
X108730863Y-82278872D01*
X108669648Y-82426660D01*
X108580777Y-82559665D01*
X108467665Y-82672777D01*
X108334660Y-82761648D01*
X108186872Y-82822863D01*
X108029982Y-82854071D01*
X107870018Y-82854071D01*
X107713128Y-82822863D01*
X107565340Y-82761648D01*
X107432335Y-82672777D01*
X107319223Y-82559665D01*
X107230352Y-82426660D01*
X107169137Y-82278872D01*
X107137929Y-82121982D01*
X107137929Y-81962018D01*
X107169137Y-81805128D01*
X107230352Y-81657340D01*
X107319223Y-81524335D01*
X107432335Y-81411223D01*
X107565340Y-81322352D01*
X107713128Y-81261137D01*
X107870018Y-81229929D01*
X108029982Y-81229929D01*
X108186872Y-81261137D01*
G37*
G36*
X110726872Y-81261137D02*
G01*
X110874660Y-81322352D01*
X111007665Y-81411223D01*
X111120777Y-81524335D01*
X111209648Y-81657340D01*
X111270863Y-81805128D01*
X111302071Y-81962018D01*
X111302071Y-82121982D01*
X111270863Y-82278872D01*
X111209648Y-82426660D01*
X111120777Y-82559665D01*
X111007665Y-82672777D01*
X110874660Y-82761648D01*
X110726872Y-82822863D01*
X110569982Y-82854071D01*
X110410018Y-82854071D01*
X110253128Y-82822863D01*
X110105340Y-82761648D01*
X109972335Y-82672777D01*
X109859223Y-82559665D01*
X109770352Y-82426660D01*
X109709137Y-82278872D01*
X109677929Y-82121982D01*
X109677929Y-81962018D01*
X109709137Y-81805128D01*
X109770352Y-81657340D01*
X109859223Y-81524335D01*
X109972335Y-81411223D01*
X110105340Y-81322352D01*
X110253128Y-81261137D01*
X110410018Y-81229929D01*
X110569982Y-81229929D01*
X110726872Y-81261137D01*
G37*
G36*
X113266872Y-81261137D02*
G01*
X113414660Y-81322352D01*
X113547665Y-81411223D01*
X113660777Y-81524335D01*
X113749648Y-81657340D01*
X113810863Y-81805128D01*
X113842071Y-81962018D01*
X113842071Y-82121982D01*
X113810863Y-82278872D01*
X113749648Y-82426660D01*
X113660777Y-82559665D01*
X113547665Y-82672777D01*
X113414660Y-82761648D01*
X113266872Y-82822863D01*
X113109982Y-82854071D01*
X112950018Y-82854071D01*
X112793128Y-82822863D01*
X112645340Y-82761648D01*
X112512335Y-82672777D01*
X112399223Y-82559665D01*
X112310352Y-82426660D01*
X112249137Y-82278872D01*
X112217929Y-82121982D01*
X112217929Y-81962018D01*
X112249137Y-81805128D01*
X112310352Y-81657340D01*
X112399223Y-81524335D01*
X112512335Y-81411223D01*
X112645340Y-81322352D01*
X112793128Y-81261137D01*
X112950018Y-81229929D01*
X113109982Y-81229929D01*
X113266872Y-81261137D01*
G37*
G36*
X115806872Y-81261137D02*
G01*
X115954660Y-81322352D01*
X116087665Y-81411223D01*
X116200777Y-81524335D01*
X116289648Y-81657340D01*
X116350863Y-81805128D01*
X116382071Y-81962018D01*
X116382071Y-82121982D01*
X116350863Y-82278872D01*
X116289648Y-82426660D01*
X116200777Y-82559665D01*
X116087665Y-82672777D01*
X115954660Y-82761648D01*
X115806872Y-82822863D01*
X115649982Y-82854071D01*
X115490018Y-82854071D01*
X115333128Y-82822863D01*
X115185340Y-82761648D01*
X115052335Y-82672777D01*
X114939223Y-82559665D01*
X114850352Y-82426660D01*
X114789137Y-82278872D01*
X114757929Y-82121982D01*
X114757929Y-81962018D01*
X114789137Y-81805128D01*
X114850352Y-81657340D01*
X114939223Y-81524335D01*
X115052335Y-81411223D01*
X115185340Y-81322352D01*
X115333128Y-81261137D01*
X115490018Y-81229929D01*
X115649982Y-81229929D01*
X115806872Y-81261137D01*
G37*
G36*
X118346872Y-81261137D02*
G01*
X118494660Y-81322352D01*
X118627665Y-81411223D01*
X118740777Y-81524335D01*
X118829648Y-81657340D01*
X118890863Y-81805128D01*
X118922071Y-81962018D01*
X118922071Y-82121982D01*
X118890863Y-82278872D01*
X118829648Y-82426660D01*
X118740777Y-82559665D01*
X118627665Y-82672777D01*
X118494660Y-82761648D01*
X118346872Y-82822863D01*
X118189982Y-82854071D01*
X118030018Y-82854071D01*
X117873128Y-82822863D01*
X117725340Y-82761648D01*
X117592335Y-82672777D01*
X117479223Y-82559665D01*
X117390352Y-82426660D01*
X117329137Y-82278872D01*
X117297929Y-82121982D01*
X117297929Y-81962018D01*
X117329137Y-81805128D01*
X117390352Y-81657340D01*
X117479223Y-81524335D01*
X117592335Y-81411223D01*
X117725340Y-81322352D01*
X117873128Y-81261137D01*
X118030018Y-81229929D01*
X118189982Y-81229929D01*
X118346872Y-81261137D01*
G37*
G36*
X120886872Y-81261137D02*
G01*
X121034660Y-81322352D01*
X121167665Y-81411223D01*
X121280777Y-81524335D01*
X121369648Y-81657340D01*
X121430863Y-81805128D01*
X121462071Y-81962018D01*
X121462071Y-82121982D01*
X121430863Y-82278872D01*
X121369648Y-82426660D01*
X121280777Y-82559665D01*
X121167665Y-82672777D01*
X121034660Y-82761648D01*
X120886872Y-82822863D01*
X120729982Y-82854071D01*
X120570018Y-82854071D01*
X120413128Y-82822863D01*
X120265340Y-82761648D01*
X120132335Y-82672777D01*
X120019223Y-82559665D01*
X119930352Y-82426660D01*
X119869137Y-82278872D01*
X119837929Y-82121982D01*
X119837929Y-81962018D01*
X119869137Y-81805128D01*
X119930352Y-81657340D01*
X120019223Y-81524335D01*
X120132335Y-81411223D01*
X120265340Y-81322352D01*
X120413128Y-81261137D01*
X120570018Y-81229929D01*
X120729982Y-81229929D01*
X120886872Y-81261137D01*
G37*
G36*
X123426872Y-81261137D02*
G01*
X123574660Y-81322352D01*
X123707665Y-81411223D01*
X123820777Y-81524335D01*
X123909648Y-81657340D01*
X123970863Y-81805128D01*
X124002071Y-81962018D01*
X124002071Y-82121982D01*
X123970863Y-82278872D01*
X123909648Y-82426660D01*
X123820777Y-82559665D01*
X123707665Y-82672777D01*
X123574660Y-82761648D01*
X123426872Y-82822863D01*
X123269982Y-82854071D01*
X123110018Y-82854071D01*
X122953128Y-82822863D01*
X122805340Y-82761648D01*
X122672335Y-82672777D01*
X122559223Y-82559665D01*
X122470352Y-82426660D01*
X122409137Y-82278872D01*
X122377929Y-82121982D01*
X122377929Y-81962018D01*
X122409137Y-81805128D01*
X122470352Y-81657340D01*
X122559223Y-81524335D01*
X122672335Y-81411223D01*
X122805340Y-81322352D01*
X122953128Y-81261137D01*
X123110018Y-81229929D01*
X123269982Y-81229929D01*
X123426872Y-81261137D01*
G37*
G36*
X125966872Y-81261137D02*
G01*
X126114660Y-81322352D01*
X126247665Y-81411223D01*
X126360777Y-81524335D01*
X126449648Y-81657340D01*
X126510863Y-81805128D01*
X126542071Y-81962018D01*
X126542071Y-82121982D01*
X126510863Y-82278872D01*
X126449648Y-82426660D01*
X126360777Y-82559665D01*
X126247665Y-82672777D01*
X126114660Y-82761648D01*
X125966872Y-82822863D01*
X125809982Y-82854071D01*
X125650018Y-82854071D01*
X125493128Y-82822863D01*
X125345340Y-82761648D01*
X125212335Y-82672777D01*
X125099223Y-82559665D01*
X125010352Y-82426660D01*
X124949137Y-82278872D01*
X124917929Y-82121982D01*
X124917929Y-81962018D01*
X124949137Y-81805128D01*
X125010352Y-81657340D01*
X125099223Y-81524335D01*
X125212335Y-81411223D01*
X125345340Y-81322352D01*
X125493128Y-81261137D01*
X125650018Y-81229929D01*
X125809982Y-81229929D01*
X125966872Y-81261137D01*
G37*
G36*
X128506872Y-81261137D02*
G01*
X128654660Y-81322352D01*
X128787665Y-81411223D01*
X128900777Y-81524335D01*
X128989648Y-81657340D01*
X129050863Y-81805128D01*
X129082071Y-81962018D01*
X129082071Y-82121982D01*
X129050863Y-82278872D01*
X128989648Y-82426660D01*
X128900777Y-82559665D01*
X128787665Y-82672777D01*
X128654660Y-82761648D01*
X128506872Y-82822863D01*
X128349982Y-82854071D01*
X128190018Y-82854071D01*
X128033128Y-82822863D01*
X127885340Y-82761648D01*
X127752335Y-82672777D01*
X127639223Y-82559665D01*
X127550352Y-82426660D01*
X127489137Y-82278872D01*
X127457929Y-82121982D01*
X127457929Y-81962018D01*
X127489137Y-81805128D01*
X127550352Y-81657340D01*
X127639223Y-81524335D01*
X127752335Y-81411223D01*
X127885340Y-81322352D01*
X128033128Y-81261137D01*
X128190018Y-81229929D01*
X128349982Y-81229929D01*
X128506872Y-81261137D01*
G37*
G36*
X131046872Y-81261137D02*
G01*
X131194660Y-81322352D01*
X131327665Y-81411223D01*
X131440777Y-81524335D01*
X131529648Y-81657340D01*
X131590863Y-81805128D01*
X131622071Y-81962018D01*
X131622071Y-82121982D01*
X131590863Y-82278872D01*
X131529648Y-82426660D01*
X131440777Y-82559665D01*
X131327665Y-82672777D01*
X131194660Y-82761648D01*
X131046872Y-82822863D01*
X130889982Y-82854071D01*
X130730018Y-82854071D01*
X130573128Y-82822863D01*
X130425340Y-82761648D01*
X130292335Y-82672777D01*
X130179223Y-82559665D01*
X130090352Y-82426660D01*
X130029137Y-82278872D01*
X129997929Y-82121982D01*
X129997929Y-81962018D01*
X130029137Y-81805128D01*
X130090352Y-81657340D01*
X130179223Y-81524335D01*
X130292335Y-81411223D01*
X130425340Y-81322352D01*
X130573128Y-81261137D01*
X130730018Y-81229929D01*
X130889982Y-81229929D01*
X131046872Y-81261137D01*
G37*
G36*
X146091365Y-79363710D02*
G01*
X146228105Y-79420349D01*
X146351167Y-79502577D01*
X146455823Y-79607233D01*
X146538051Y-79730295D01*
X146594690Y-79867035D01*
X146623564Y-80012197D01*
X146623564Y-80160203D01*
X146594690Y-80305365D01*
X146538051Y-80442105D01*
X146455823Y-80565167D01*
X146351167Y-80669823D01*
X146228105Y-80752051D01*
X146091365Y-80808690D01*
X145946203Y-80837564D01*
X145798197Y-80837564D01*
X145653035Y-80808690D01*
X145516295Y-80752051D01*
X145393233Y-80669823D01*
X145288577Y-80565167D01*
X145206349Y-80442105D01*
X145149710Y-80305365D01*
X145120836Y-80160203D01*
X145120836Y-80012197D01*
X145149710Y-79867035D01*
X145206349Y-79730295D01*
X145288577Y-79607233D01*
X145393233Y-79502577D01*
X145516295Y-79420349D01*
X145653035Y-79363710D01*
X145798197Y-79334836D01*
X145946203Y-79334836D01*
X146091365Y-79363710D01*
G37*
G36*
X148631365Y-79363710D02*
G01*
X148768105Y-79420349D01*
X148891167Y-79502577D01*
X148995823Y-79607233D01*
X149078051Y-79730295D01*
X149134690Y-79867035D01*
X149163564Y-80012197D01*
X149163564Y-80160203D01*
X149134690Y-80305365D01*
X149078051Y-80442105D01*
X148995823Y-80565167D01*
X148891167Y-80669823D01*
X148768105Y-80752051D01*
X148631365Y-80808690D01*
X148486203Y-80837564D01*
X148338197Y-80837564D01*
X148193035Y-80808690D01*
X148056295Y-80752051D01*
X147933233Y-80669823D01*
X147828577Y-80565167D01*
X147746349Y-80442105D01*
X147689710Y-80305365D01*
X147660836Y-80160203D01*
X147660836Y-80012197D01*
X147689710Y-79867035D01*
X147746349Y-79730295D01*
X147828577Y-79607233D01*
X147933233Y-79502577D01*
X148056295Y-79420349D01*
X148193035Y-79363710D01*
X148338197Y-79334836D01*
X148486203Y-79334836D01*
X148631365Y-79363710D01*
G37*
G36*
X151171365Y-79363710D02*
G01*
X151308105Y-79420349D01*
X151431167Y-79502577D01*
X151535823Y-79607233D01*
X151618051Y-79730295D01*
X151674690Y-79867035D01*
X151703564Y-80012197D01*
X151703564Y-80160203D01*
X151674690Y-80305365D01*
X151618051Y-80442105D01*
X151535823Y-80565167D01*
X151431167Y-80669823D01*
X151308105Y-80752051D01*
X151171365Y-80808690D01*
X151026203Y-80837564D01*
X150878197Y-80837564D01*
X150733035Y-80808690D01*
X150596295Y-80752051D01*
X150473233Y-80669823D01*
X150368577Y-80565167D01*
X150286349Y-80442105D01*
X150229710Y-80305365D01*
X150200836Y-80160203D01*
X150200836Y-80012197D01*
X150229710Y-79867035D01*
X150286349Y-79730295D01*
X150368577Y-79607233D01*
X150473233Y-79502577D01*
X150596295Y-79420349D01*
X150733035Y-79363710D01*
X150878197Y-79334836D01*
X151026203Y-79334836D01*
X151171365Y-79363710D01*
G37*
G36*
X153711365Y-79363710D02*
G01*
X153848105Y-79420349D01*
X153971167Y-79502577D01*
X154075823Y-79607233D01*
X154158051Y-79730295D01*
X154214690Y-79867035D01*
X154243564Y-80012197D01*
X154243564Y-80160203D01*
X154214690Y-80305365D01*
X154158051Y-80442105D01*
X154075823Y-80565167D01*
X153971167Y-80669823D01*
X153848105Y-80752051D01*
X153711365Y-80808690D01*
X153566203Y-80837564D01*
X153418197Y-80837564D01*
X153273035Y-80808690D01*
X153136295Y-80752051D01*
X153013233Y-80669823D01*
X152908577Y-80565167D01*
X152826349Y-80442105D01*
X152769710Y-80305365D01*
X152740836Y-80160203D01*
X152740836Y-80012197D01*
X152769710Y-79867035D01*
X152826349Y-79730295D01*
X152908577Y-79607233D01*
X153013233Y-79502577D01*
X153136295Y-79420349D01*
X153273035Y-79363710D01*
X153418197Y-79334836D01*
X153566203Y-79334836D01*
X153711365Y-79363710D01*
G37*
G36*
X156251365Y-79363710D02*
G01*
X156388105Y-79420349D01*
X156511167Y-79502577D01*
X156615823Y-79607233D01*
X156698051Y-79730295D01*
X156754690Y-79867035D01*
X156783564Y-80012197D01*
X156783564Y-80160203D01*
X156754690Y-80305365D01*
X156698051Y-80442105D01*
X156615823Y-80565167D01*
X156511167Y-80669823D01*
X156388105Y-80752051D01*
X156251365Y-80808690D01*
X156106203Y-80837564D01*
X155958197Y-80837564D01*
X155813035Y-80808690D01*
X155676295Y-80752051D01*
X155553233Y-80669823D01*
X155448577Y-80565167D01*
X155366349Y-80442105D01*
X155309710Y-80305365D01*
X155280836Y-80160203D01*
X155280836Y-80012197D01*
X155309710Y-79867035D01*
X155366349Y-79730295D01*
X155448577Y-79607233D01*
X155553233Y-79502577D01*
X155676295Y-79420349D01*
X155813035Y-79363710D01*
X155958197Y-79334836D01*
X156106203Y-79334836D01*
X156251365Y-79363710D01*
G37*
G36*
X158791365Y-79363710D02*
G01*
X158928105Y-79420349D01*
X159051167Y-79502577D01*
X159155823Y-79607233D01*
X159238051Y-79730295D01*
X159294690Y-79867035D01*
X159323564Y-80012197D01*
X159323564Y-80160203D01*
X159294690Y-80305365D01*
X159238051Y-80442105D01*
X159155823Y-80565167D01*
X159051167Y-80669823D01*
X158928105Y-80752051D01*
X158791365Y-80808690D01*
X158646203Y-80837564D01*
X158498197Y-80837564D01*
X158353035Y-80808690D01*
X158216295Y-80752051D01*
X158093233Y-80669823D01*
X157988577Y-80565167D01*
X157906349Y-80442105D01*
X157849710Y-80305365D01*
X157820836Y-80160203D01*
X157820836Y-80012197D01*
X157849710Y-79867035D01*
X157906349Y-79730295D01*
X157988577Y-79607233D01*
X158093233Y-79502577D01*
X158216295Y-79420349D01*
X158353035Y-79363710D01*
X158498197Y-79334836D01*
X158646203Y-79334836D01*
X158791365Y-79363710D01*
G37*
G36*
X161331365Y-79363710D02*
G01*
X161468105Y-79420349D01*
X161591167Y-79502577D01*
X161695823Y-79607233D01*
X161778051Y-79730295D01*
X161834690Y-79867035D01*
X161863564Y-80012197D01*
X161863564Y-80160203D01*
X161834690Y-80305365D01*
X161778051Y-80442105D01*
X161695823Y-80565167D01*
X161591167Y-80669823D01*
X161468105Y-80752051D01*
X161331365Y-80808690D01*
X161186203Y-80837564D01*
X161038197Y-80837564D01*
X160893035Y-80808690D01*
X160756295Y-80752051D01*
X160633233Y-80669823D01*
X160528577Y-80565167D01*
X160446349Y-80442105D01*
X160389710Y-80305365D01*
X160360836Y-80160203D01*
X160360836Y-80012197D01*
X160389710Y-79867035D01*
X160446349Y-79730295D01*
X160528577Y-79607233D01*
X160633233Y-79502577D01*
X160756295Y-79420349D01*
X160893035Y-79363710D01*
X161038197Y-79334836D01*
X161186203Y-79334836D01*
X161331365Y-79363710D01*
G37*
G36*
X163871365Y-79363710D02*
G01*
X164008105Y-79420349D01*
X164131167Y-79502577D01*
X164235823Y-79607233D01*
X164318051Y-79730295D01*
X164374690Y-79867035D01*
X164403564Y-80012197D01*
X164403564Y-80160203D01*
X164374690Y-80305365D01*
X164318051Y-80442105D01*
X164235823Y-80565167D01*
X164131167Y-80669823D01*
X164008105Y-80752051D01*
X163871365Y-80808690D01*
X163726203Y-80837564D01*
X163578197Y-80837564D01*
X163433035Y-80808690D01*
X163296295Y-80752051D01*
X163173233Y-80669823D01*
X163068577Y-80565167D01*
X162986349Y-80442105D01*
X162929710Y-80305365D01*
X162900836Y-80160203D01*
X162900836Y-80012197D01*
X162929710Y-79867035D01*
X162986349Y-79730295D01*
X163068577Y-79607233D01*
X163173233Y-79502577D01*
X163296295Y-79420349D01*
X163433035Y-79363710D01*
X163578197Y-79334836D01*
X163726203Y-79334836D01*
X163871365Y-79363710D01*
G37*
G36*
X166411365Y-79363710D02*
G01*
X166548105Y-79420349D01*
X166671167Y-79502577D01*
X166775823Y-79607233D01*
X166858051Y-79730295D01*
X166914690Y-79867035D01*
X166943564Y-80012197D01*
X166943564Y-80160203D01*
X166914690Y-80305365D01*
X166858051Y-80442105D01*
X166775823Y-80565167D01*
X166671167Y-80669823D01*
X166548105Y-80752051D01*
X166411365Y-80808690D01*
X166266203Y-80837564D01*
X166118197Y-80837564D01*
X165973035Y-80808690D01*
X165836295Y-80752051D01*
X165713233Y-80669823D01*
X165608577Y-80565167D01*
X165526349Y-80442105D01*
X165469710Y-80305365D01*
X165440836Y-80160203D01*
X165440836Y-80012197D01*
X165469710Y-79867035D01*
X165526349Y-79730295D01*
X165608577Y-79607233D01*
X165713233Y-79502577D01*
X165836295Y-79420349D01*
X165973035Y-79363710D01*
X166118197Y-79334836D01*
X166266203Y-79334836D01*
X166411365Y-79363710D01*
G37*
G36*
X168951365Y-79363710D02*
G01*
X169088105Y-79420349D01*
X169211167Y-79502577D01*
X169315823Y-79607233D01*
X169398051Y-79730295D01*
X169454690Y-79867035D01*
X169483564Y-80012197D01*
X169483564Y-80160203D01*
X169454690Y-80305365D01*
X169398051Y-80442105D01*
X169315823Y-80565167D01*
X169211167Y-80669823D01*
X169088105Y-80752051D01*
X168951365Y-80808690D01*
X168806203Y-80837564D01*
X168658197Y-80837564D01*
X168513035Y-80808690D01*
X168376295Y-80752051D01*
X168253233Y-80669823D01*
X168148577Y-80565167D01*
X168066349Y-80442105D01*
X168009710Y-80305365D01*
X167980836Y-80160203D01*
X167980836Y-80012197D01*
X168009710Y-79867035D01*
X168066349Y-79730295D01*
X168148577Y-79607233D01*
X168253233Y-79502577D01*
X168376295Y-79420349D01*
X168513035Y-79363710D01*
X168658197Y-79334836D01*
X168806203Y-79334836D01*
X168951365Y-79363710D01*
G37*
G36*
X171491365Y-79363710D02*
G01*
X171628105Y-79420349D01*
X171751167Y-79502577D01*
X171855823Y-79607233D01*
X171938051Y-79730295D01*
X171994690Y-79867035D01*
X172023564Y-80012197D01*
X172023564Y-80160203D01*
X171994690Y-80305365D01*
X171938051Y-80442105D01*
X171855823Y-80565167D01*
X171751167Y-80669823D01*
X171628105Y-80752051D01*
X171491365Y-80808690D01*
X171346203Y-80837564D01*
X171198197Y-80837564D01*
X171053035Y-80808690D01*
X170916295Y-80752051D01*
X170793233Y-80669823D01*
X170688577Y-80565167D01*
X170606349Y-80442105D01*
X170549710Y-80305365D01*
X170520836Y-80160203D01*
X170520836Y-80012197D01*
X170549710Y-79867035D01*
X170606349Y-79730295D01*
X170688577Y-79607233D01*
X170793233Y-79502577D01*
X170916295Y-79420349D01*
X171053035Y-79363710D01*
X171198197Y-79334836D01*
X171346203Y-79334836D01*
X171491365Y-79363710D01*
G37*
G36*
X174031365Y-79363710D02*
G01*
X174168105Y-79420349D01*
X174291167Y-79502577D01*
X174395823Y-79607233D01*
X174478051Y-79730295D01*
X174534690Y-79867035D01*
X174563564Y-80012197D01*
X174563564Y-80160203D01*
X174534690Y-80305365D01*
X174478051Y-80442105D01*
X174395823Y-80565167D01*
X174291167Y-80669823D01*
X174168105Y-80752051D01*
X174031365Y-80808690D01*
X173886203Y-80837564D01*
X173738197Y-80837564D01*
X173593035Y-80808690D01*
X173456295Y-80752051D01*
X173333233Y-80669823D01*
X173228577Y-80565167D01*
X173146349Y-80442105D01*
X173089710Y-80305365D01*
X173060836Y-80160203D01*
X173060836Y-80012197D01*
X173089710Y-79867035D01*
X173146349Y-79730295D01*
X173228577Y-79607233D01*
X173333233Y-79502577D01*
X173456295Y-79420349D01*
X173593035Y-79363710D01*
X173738197Y-79334836D01*
X173886203Y-79334836D01*
X174031365Y-79363710D01*
G37*
G36*
X176571365Y-79363710D02*
G01*
X176708105Y-79420349D01*
X176831167Y-79502577D01*
X176935823Y-79607233D01*
X177018051Y-79730295D01*
X177074690Y-79867035D01*
X177103564Y-80012197D01*
X177103564Y-80160203D01*
X177074690Y-80305365D01*
X177018051Y-80442105D01*
X176935823Y-80565167D01*
X176831167Y-80669823D01*
X176708105Y-80752051D01*
X176571365Y-80808690D01*
X176426203Y-80837564D01*
X176278197Y-80837564D01*
X176133035Y-80808690D01*
X175996295Y-80752051D01*
X175873233Y-80669823D01*
X175768577Y-80565167D01*
X175686349Y-80442105D01*
X175629710Y-80305365D01*
X175600836Y-80160203D01*
X175600836Y-80012197D01*
X175629710Y-79867035D01*
X175686349Y-79730295D01*
X175768577Y-79607233D01*
X175873233Y-79502577D01*
X175996295Y-79420349D01*
X176133035Y-79363710D01*
X176278197Y-79334836D01*
X176426203Y-79334836D01*
X176571365Y-79363710D01*
G37*
G36*
X179111365Y-79363710D02*
G01*
X179248105Y-79420349D01*
X179371167Y-79502577D01*
X179475823Y-79607233D01*
X179558051Y-79730295D01*
X179614690Y-79867035D01*
X179643564Y-80012197D01*
X179643564Y-80160203D01*
X179614690Y-80305365D01*
X179558051Y-80442105D01*
X179475823Y-80565167D01*
X179371167Y-80669823D01*
X179248105Y-80752051D01*
X179111365Y-80808690D01*
X178966203Y-80837564D01*
X178818197Y-80837564D01*
X178673035Y-80808690D01*
X178536295Y-80752051D01*
X178413233Y-80669823D01*
X178308577Y-80565167D01*
X178226349Y-80442105D01*
X178169710Y-80305365D01*
X178140836Y-80160203D01*
X178140836Y-80012197D01*
X178169710Y-79867035D01*
X178226349Y-79730295D01*
X178308577Y-79607233D01*
X178413233Y-79502577D01*
X178536295Y-79420349D01*
X178673035Y-79363710D01*
X178818197Y-79334836D01*
X178966203Y-79334836D01*
X179111365Y-79363710D01*
G37*
G36*
X181651365Y-79363710D02*
G01*
X181788105Y-79420349D01*
X181911167Y-79502577D01*
X182015823Y-79607233D01*
X182098051Y-79730295D01*
X182154690Y-79867035D01*
X182183564Y-80012197D01*
X182183564Y-80160203D01*
X182154690Y-80305365D01*
X182098051Y-80442105D01*
X182015823Y-80565167D01*
X181911167Y-80669823D01*
X181788105Y-80752051D01*
X181651365Y-80808690D01*
X181506203Y-80837564D01*
X181358197Y-80837564D01*
X181213035Y-80808690D01*
X181076295Y-80752051D01*
X180953233Y-80669823D01*
X180848577Y-80565167D01*
X180766349Y-80442105D01*
X180709710Y-80305365D01*
X180680836Y-80160203D01*
X180680836Y-80012197D01*
X180709710Y-79867035D01*
X180766349Y-79730295D01*
X180848577Y-79607233D01*
X180953233Y-79502577D01*
X181076295Y-79420349D01*
X181213035Y-79363710D01*
X181358197Y-79334836D01*
X181506203Y-79334836D01*
X181651365Y-79363710D01*
G37*
G36*
X184191365Y-79363710D02*
G01*
X184328105Y-79420349D01*
X184451167Y-79502577D01*
X184555823Y-79607233D01*
X184638051Y-79730295D01*
X184694690Y-79867035D01*
X184723564Y-80012197D01*
X184723564Y-80160203D01*
X184694690Y-80305365D01*
X184638051Y-80442105D01*
X184555823Y-80565167D01*
X184451167Y-80669823D01*
X184328105Y-80752051D01*
X184191365Y-80808690D01*
X184046203Y-80837564D01*
X183898197Y-80837564D01*
X183753035Y-80808690D01*
X183616295Y-80752051D01*
X183493233Y-80669823D01*
X183388577Y-80565167D01*
X183306349Y-80442105D01*
X183249710Y-80305365D01*
X183220836Y-80160203D01*
X183220836Y-80012197D01*
X183249710Y-79867035D01*
X183306349Y-79730295D01*
X183388577Y-79607233D01*
X183493233Y-79502577D01*
X183616295Y-79420349D01*
X183753035Y-79363710D01*
X183898197Y-79334836D01*
X184046203Y-79334836D01*
X184191365Y-79363710D01*
G37*
G36*
X186731365Y-79363710D02*
G01*
X186868105Y-79420349D01*
X186991167Y-79502577D01*
X187095823Y-79607233D01*
X187178051Y-79730295D01*
X187234690Y-79867035D01*
X187263564Y-80012197D01*
X187263564Y-80160203D01*
X187234690Y-80305365D01*
X187178051Y-80442105D01*
X187095823Y-80565167D01*
X186991167Y-80669823D01*
X186868105Y-80752051D01*
X186731365Y-80808690D01*
X186586203Y-80837564D01*
X186438197Y-80837564D01*
X186293035Y-80808690D01*
X186156295Y-80752051D01*
X186033233Y-80669823D01*
X185928577Y-80565167D01*
X185846349Y-80442105D01*
X185789710Y-80305365D01*
X185760836Y-80160203D01*
X185760836Y-80012197D01*
X185789710Y-79867035D01*
X185846349Y-79730295D01*
X185928577Y-79607233D01*
X186033233Y-79502577D01*
X186156295Y-79420349D01*
X186293035Y-79363710D01*
X186438197Y-79334836D01*
X186586203Y-79334836D01*
X186731365Y-79363710D01*
G37*
G36*
X189271365Y-79363710D02*
G01*
X189408105Y-79420349D01*
X189531167Y-79502577D01*
X189635823Y-79607233D01*
X189718051Y-79730295D01*
X189774690Y-79867035D01*
X189803564Y-80012197D01*
X189803564Y-80160203D01*
X189774690Y-80305365D01*
X189718051Y-80442105D01*
X189635823Y-80565167D01*
X189531167Y-80669823D01*
X189408105Y-80752051D01*
X189271365Y-80808690D01*
X189126203Y-80837564D01*
X188978197Y-80837564D01*
X188833035Y-80808690D01*
X188696295Y-80752051D01*
X188573233Y-80669823D01*
X188468577Y-80565167D01*
X188386349Y-80442105D01*
X188329710Y-80305365D01*
X188300836Y-80160203D01*
X188300836Y-80012197D01*
X188329710Y-79867035D01*
X188386349Y-79730295D01*
X188468577Y-79607233D01*
X188573233Y-79502577D01*
X188696295Y-79420349D01*
X188833035Y-79363710D01*
X188978197Y-79334836D01*
X189126203Y-79334836D01*
X189271365Y-79363710D01*
G37*
G36*
X93080867Y-74970527D02*
G01*
X93321056Y-75034886D01*
X93550791Y-75130045D01*
X93766139Y-75254376D01*
X93963416Y-75405753D01*
X94139247Y-75581584D01*
X94290624Y-75778861D01*
X94414955Y-75994209D01*
X94510114Y-76223944D01*
X94574473Y-76464133D01*
X94606930Y-76710669D01*
X94606930Y-76959331D01*
X94574473Y-77205867D01*
X94510114Y-77446056D01*
X94414955Y-77675791D01*
X94290624Y-77891139D01*
X94139247Y-78088416D01*
X93963416Y-78264247D01*
X93766139Y-78415624D01*
X93550791Y-78539955D01*
X93321056Y-78635114D01*
X93080867Y-78699473D01*
X92834331Y-78731930D01*
X92585669Y-78731930D01*
X92339133Y-78699473D01*
X92098944Y-78635114D01*
X91869209Y-78539955D01*
X91653861Y-78415624D01*
X91456584Y-78264247D01*
X91280753Y-78088416D01*
X91129376Y-77891139D01*
X91005045Y-77675791D01*
X90909886Y-77446056D01*
X90845527Y-77205867D01*
X90813070Y-76959331D01*
X90813070Y-76710669D01*
X90845527Y-76464133D01*
X90909886Y-76223944D01*
X91005045Y-75994209D01*
X91129376Y-75778861D01*
X91280753Y-75581584D01*
X91456584Y-75405753D01*
X91653861Y-75254376D01*
X91869209Y-75130045D01*
X92098944Y-75034886D01*
X92339133Y-74970527D01*
X92585669Y-74938070D01*
X92834331Y-74938070D01*
X93080867Y-74970527D01*
G37*
G36*
X243194867Y-74970527D02*
G01*
X243435056Y-75034886D01*
X243664791Y-75130045D01*
X243880139Y-75254376D01*
X244077416Y-75405753D01*
X244253247Y-75581584D01*
X244404624Y-75778861D01*
X244528955Y-75994209D01*
X244624114Y-76223944D01*
X244688473Y-76464133D01*
X244720930Y-76710669D01*
X244720930Y-76959331D01*
X244688473Y-77205867D01*
X244624114Y-77446056D01*
X244528955Y-77675791D01*
X244404624Y-77891139D01*
X244253247Y-78088416D01*
X244077416Y-78264247D01*
X243880139Y-78415624D01*
X243664791Y-78539955D01*
X243435056Y-78635114D01*
X243194867Y-78699473D01*
X242948331Y-78731930D01*
X242699669Y-78731930D01*
X242453133Y-78699473D01*
X242212944Y-78635114D01*
X241983209Y-78539955D01*
X241767861Y-78415624D01*
X241570584Y-78264247D01*
X241394753Y-78088416D01*
X241243376Y-77891139D01*
X241119045Y-77675791D01*
X241023886Y-77446056D01*
X240959527Y-77205867D01*
X240927070Y-76959331D01*
X240927070Y-76710669D01*
X240959527Y-76464133D01*
X241023886Y-76223944D01*
X241119045Y-75994209D01*
X241243376Y-75778861D01*
X241394753Y-75581584D01*
X241570584Y-75405753D01*
X241767861Y-75254376D01*
X241983209Y-75130045D01*
X242212944Y-75034886D01*
X242453133Y-74970527D01*
X242699669Y-74938070D01*
X242948331Y-74938070D01*
X243194867Y-74970527D01*
G37*
G36*
X213037514Y-73696595D02*
G01*
X213053326Y-73703576D01*
X213061131Y-73704813D01*
X213093639Y-73721376D01*
X213138706Y-73741276D01*
X213216924Y-73819494D01*
X213236826Y-73864567D01*
X213253386Y-73897068D01*
X213254621Y-73904870D01*
X213261605Y-73920686D01*
X213269600Y-73989600D01*
X213269600Y-77089600D01*
X213261605Y-77158514D01*
X213254621Y-77174329D01*
X213253386Y-77182131D01*
X213236829Y-77214624D01*
X213216924Y-77259706D01*
X213138706Y-77337924D01*
X213093624Y-77357829D01*
X213061131Y-77374386D01*
X213053329Y-77375621D01*
X213037514Y-77382605D01*
X212968600Y-77390600D01*
X211668600Y-77390600D01*
X211599686Y-77382605D01*
X211583870Y-77375621D01*
X211576068Y-77374386D01*
X211543567Y-77357826D01*
X211498494Y-77337924D01*
X211420276Y-77259706D01*
X211400376Y-77214639D01*
X211383813Y-77182131D01*
X211382576Y-77174326D01*
X211375595Y-77158514D01*
X211367600Y-77089600D01*
X211367600Y-73989600D01*
X211375595Y-73920686D01*
X211382576Y-73904874D01*
X211383813Y-73897068D01*
X211400380Y-73864553D01*
X211420276Y-73819494D01*
X211498494Y-73741276D01*
X211543553Y-73721380D01*
X211576068Y-73704813D01*
X211583874Y-73703576D01*
X211599686Y-73696595D01*
X211668600Y-73688600D01*
X212968600Y-73688600D01*
X213037514Y-73696595D01*
G37*
G36*
X215901153Y-73693179D02*
G01*
X215911814Y-73693179D01*
X215953465Y-73701464D01*
X216040516Y-73715251D01*
X216068518Y-73724349D01*
X216094661Y-73729550D01*
X216131556Y-73744832D01*
X216182384Y-73761348D01*
X216229999Y-73785609D01*
X216266898Y-73800893D01*
X216289063Y-73815703D01*
X216315293Y-73829068D01*
X216386590Y-73880868D01*
X216421908Y-73904467D01*
X216429446Y-73912005D01*
X216435970Y-73916745D01*
X216541454Y-74022229D01*
X216546193Y-74028752D01*
X216553733Y-74036292D01*
X216577334Y-74071614D01*
X216629131Y-74142906D01*
X216642494Y-74169133D01*
X216657307Y-74191302D01*
X216672593Y-74228205D01*
X216696851Y-74275815D01*
X216713364Y-74326635D01*
X216728650Y-74363539D01*
X216733851Y-74389686D01*
X216742948Y-74417683D01*
X216756733Y-74504723D01*
X216765021Y-74546386D01*
X216765780Y-74561841D01*
X216766668Y-74567447D01*
X216769116Y-74629750D01*
X216769600Y-74639600D01*
X216769600Y-76439600D01*
X216769115Y-76449453D01*
X216766668Y-76511752D01*
X216765780Y-76517356D01*
X216765021Y-76532814D01*
X216756732Y-76574480D01*
X216742948Y-76661516D01*
X216733851Y-76689510D01*
X216728650Y-76715661D01*
X216713362Y-76752568D01*
X216696851Y-76803384D01*
X216672595Y-76850988D01*
X216657307Y-76887898D01*
X216642492Y-76910070D01*
X216629131Y-76936293D01*
X216577342Y-77007573D01*
X216553733Y-77042908D01*
X216546191Y-77050449D01*
X216541454Y-77056970D01*
X216435970Y-77162454D01*
X216429449Y-77167191D01*
X216421908Y-77174733D01*
X216386573Y-77198342D01*
X216315293Y-77250131D01*
X216289070Y-77263492D01*
X216266898Y-77278307D01*
X216229988Y-77293595D01*
X216182384Y-77317851D01*
X216131568Y-77334362D01*
X216094661Y-77349650D01*
X216068510Y-77354851D01*
X216040516Y-77363948D01*
X215953475Y-77377733D01*
X215911814Y-77386021D01*
X215901153Y-77386021D01*
X215893185Y-77387283D01*
X215744015Y-77387283D01*
X215736047Y-77386021D01*
X215725386Y-77386021D01*
X215683725Y-77377734D01*
X215596683Y-77363948D01*
X215568686Y-77354851D01*
X215542539Y-77349650D01*
X215505635Y-77334364D01*
X215454815Y-77317851D01*
X215407205Y-77293593D01*
X215370302Y-77278307D01*
X215348133Y-77263494D01*
X215321906Y-77250131D01*
X215250614Y-77198334D01*
X215215292Y-77174733D01*
X215207752Y-77167193D01*
X215201229Y-77162454D01*
X215095745Y-77056970D01*
X215091005Y-77050446D01*
X215083467Y-77042908D01*
X215059868Y-77007590D01*
X215008068Y-76936293D01*
X214994703Y-76910063D01*
X214979893Y-76887898D01*
X214964609Y-76850999D01*
X214940348Y-76803384D01*
X214923832Y-76752556D01*
X214908550Y-76715661D01*
X214903349Y-76689518D01*
X214894251Y-76661516D01*
X214880462Y-76574456D01*
X214872179Y-76532814D01*
X214871420Y-76517365D01*
X214870531Y-76511752D01*
X214868083Y-76449437D01*
X214867600Y-76439600D01*
X214867600Y-74639600D01*
X214868083Y-74629766D01*
X214870531Y-74567447D01*
X214871420Y-74561832D01*
X214872179Y-74546386D01*
X214880461Y-74504747D01*
X214894251Y-74417683D01*
X214903350Y-74389678D01*
X214908550Y-74363539D01*
X214923831Y-74326646D01*
X214940348Y-74275815D01*
X214964611Y-74228195D01*
X214979893Y-74191302D01*
X214994701Y-74169139D01*
X215008068Y-74142906D01*
X215059877Y-74071596D01*
X215083467Y-74036292D01*
X215091002Y-74028756D01*
X215095745Y-74022229D01*
X215201229Y-73916745D01*
X215207756Y-73912002D01*
X215215292Y-73904467D01*
X215250596Y-73880877D01*
X215321906Y-73829068D01*
X215348139Y-73815701D01*
X215370302Y-73800893D01*
X215407195Y-73785611D01*
X215454815Y-73761348D01*
X215505646Y-73744831D01*
X215542539Y-73729550D01*
X215568678Y-73724350D01*
X215596683Y-73715251D01*
X215683736Y-73701463D01*
X215725386Y-73693179D01*
X215736047Y-73693179D01*
X215744015Y-73691917D01*
X215893185Y-73691917D01*
X215901153Y-73693179D01*
G37*
G36*
X219401153Y-73693179D02*
G01*
X219411814Y-73693179D01*
X219453465Y-73701464D01*
X219540516Y-73715251D01*
X219568518Y-73724349D01*
X219594661Y-73729550D01*
X219631556Y-73744832D01*
X219682384Y-73761348D01*
X219729999Y-73785609D01*
X219766898Y-73800893D01*
X219789063Y-73815703D01*
X219815293Y-73829068D01*
X219886590Y-73880868D01*
X219921908Y-73904467D01*
X219929446Y-73912005D01*
X219935970Y-73916745D01*
X220041454Y-74022229D01*
X220046193Y-74028752D01*
X220053733Y-74036292D01*
X220077334Y-74071614D01*
X220129131Y-74142906D01*
X220142494Y-74169133D01*
X220157307Y-74191302D01*
X220172593Y-74228205D01*
X220196851Y-74275815D01*
X220213364Y-74326635D01*
X220228650Y-74363539D01*
X220233851Y-74389686D01*
X220242948Y-74417683D01*
X220256733Y-74504723D01*
X220265021Y-74546386D01*
X220265780Y-74561841D01*
X220266668Y-74567447D01*
X220269116Y-74629750D01*
X220269600Y-74639600D01*
X220269600Y-76439600D01*
X220269115Y-76449453D01*
X220266668Y-76511752D01*
X220265780Y-76517356D01*
X220265021Y-76532814D01*
X220256732Y-76574480D01*
X220242948Y-76661516D01*
X220233851Y-76689510D01*
X220228650Y-76715661D01*
X220213362Y-76752568D01*
X220196851Y-76803384D01*
X220172595Y-76850988D01*
X220157307Y-76887898D01*
X220142492Y-76910070D01*
X220129131Y-76936293D01*
X220077342Y-77007573D01*
X220053733Y-77042908D01*
X220046191Y-77050449D01*
X220041454Y-77056970D01*
X219935970Y-77162454D01*
X219929449Y-77167191D01*
X219921908Y-77174733D01*
X219886573Y-77198342D01*
X219815293Y-77250131D01*
X219789070Y-77263492D01*
X219766898Y-77278307D01*
X219729988Y-77293595D01*
X219682384Y-77317851D01*
X219631568Y-77334362D01*
X219594661Y-77349650D01*
X219568510Y-77354851D01*
X219540516Y-77363948D01*
X219453475Y-77377733D01*
X219411814Y-77386021D01*
X219401153Y-77386021D01*
X219393185Y-77387283D01*
X219244015Y-77387283D01*
X219236047Y-77386021D01*
X219225386Y-77386021D01*
X219183725Y-77377734D01*
X219096683Y-77363948D01*
X219068686Y-77354851D01*
X219042539Y-77349650D01*
X219005635Y-77334364D01*
X218954815Y-77317851D01*
X218907205Y-77293593D01*
X218870302Y-77278307D01*
X218848133Y-77263494D01*
X218821906Y-77250131D01*
X218750614Y-77198334D01*
X218715292Y-77174733D01*
X218707752Y-77167193D01*
X218701229Y-77162454D01*
X218595745Y-77056970D01*
X218591005Y-77050446D01*
X218583467Y-77042908D01*
X218559868Y-77007590D01*
X218508068Y-76936293D01*
X218494703Y-76910063D01*
X218479893Y-76887898D01*
X218464609Y-76850999D01*
X218440348Y-76803384D01*
X218423832Y-76752556D01*
X218408550Y-76715661D01*
X218403349Y-76689518D01*
X218394251Y-76661516D01*
X218380462Y-76574456D01*
X218372179Y-76532814D01*
X218371420Y-76517365D01*
X218370531Y-76511752D01*
X218368083Y-76449437D01*
X218367600Y-76439600D01*
X218367600Y-74639600D01*
X218368083Y-74629766D01*
X218370531Y-74567447D01*
X218371420Y-74561832D01*
X218372179Y-74546386D01*
X218380461Y-74504747D01*
X218394251Y-74417683D01*
X218403350Y-74389678D01*
X218408550Y-74363539D01*
X218423831Y-74326646D01*
X218440348Y-74275815D01*
X218464611Y-74228195D01*
X218479893Y-74191302D01*
X218494701Y-74169139D01*
X218508068Y-74142906D01*
X218559877Y-74071596D01*
X218583467Y-74036292D01*
X218591002Y-74028756D01*
X218595745Y-74022229D01*
X218701229Y-73916745D01*
X218707756Y-73912002D01*
X218715292Y-73904467D01*
X218750596Y-73880877D01*
X218821906Y-73829068D01*
X218848139Y-73815701D01*
X218870302Y-73800893D01*
X218907195Y-73785611D01*
X218954815Y-73761348D01*
X219005646Y-73744831D01*
X219042539Y-73729550D01*
X219068678Y-73724350D01*
X219096683Y-73715251D01*
X219183736Y-73701463D01*
X219225386Y-73693179D01*
X219236047Y-73693179D01*
X219244015Y-73691917D01*
X219393185Y-73691917D01*
X219401153Y-73693179D01*
G37*
G36*
X198386794Y-73676275D02*
G01*
X198402606Y-73683256D01*
X198410411Y-73684493D01*
X198442919Y-73701056D01*
X198487986Y-73720956D01*
X198566204Y-73799174D01*
X198586106Y-73844247D01*
X198602666Y-73876748D01*
X198603901Y-73884550D01*
X198610885Y-73900366D01*
X198618880Y-73969280D01*
X198618880Y-77069280D01*
X198610885Y-77138194D01*
X198603901Y-77154009D01*
X198602666Y-77161811D01*
X198586109Y-77194304D01*
X198566204Y-77239386D01*
X198487986Y-77317604D01*
X198442904Y-77337509D01*
X198410411Y-77354066D01*
X198402609Y-77355301D01*
X198386794Y-77362285D01*
X198317880Y-77370280D01*
X197017880Y-77370280D01*
X196948966Y-77362285D01*
X196933150Y-77355301D01*
X196925348Y-77354066D01*
X196892847Y-77337506D01*
X196847774Y-77317604D01*
X196769556Y-77239386D01*
X196749656Y-77194319D01*
X196733093Y-77161811D01*
X196731856Y-77154006D01*
X196724875Y-77138194D01*
X196716880Y-77069280D01*
X196716880Y-73969280D01*
X196724875Y-73900366D01*
X196731856Y-73884554D01*
X196733093Y-73876748D01*
X196749660Y-73844233D01*
X196769556Y-73799174D01*
X196847774Y-73720956D01*
X196892833Y-73701060D01*
X196925348Y-73684493D01*
X196933154Y-73683256D01*
X196948966Y-73676275D01*
X197017880Y-73668280D01*
X198317880Y-73668280D01*
X198386794Y-73676275D01*
G37*
G36*
X201250433Y-73672859D02*
G01*
X201261094Y-73672859D01*
X201302745Y-73681144D01*
X201389796Y-73694931D01*
X201417798Y-73704029D01*
X201443941Y-73709230D01*
X201480836Y-73724512D01*
X201531664Y-73741028D01*
X201579279Y-73765289D01*
X201616178Y-73780573D01*
X201638343Y-73795383D01*
X201664573Y-73808748D01*
X201735870Y-73860548D01*
X201771188Y-73884147D01*
X201778726Y-73891685D01*
X201785250Y-73896425D01*
X201890734Y-74001909D01*
X201895473Y-74008432D01*
X201903013Y-74015972D01*
X201926614Y-74051294D01*
X201978411Y-74122586D01*
X201991774Y-74148813D01*
X202006587Y-74170982D01*
X202021873Y-74207885D01*
X202046131Y-74255495D01*
X202062644Y-74306315D01*
X202077930Y-74343219D01*
X202083131Y-74369366D01*
X202092228Y-74397363D01*
X202106013Y-74484403D01*
X202114301Y-74526066D01*
X202115060Y-74541521D01*
X202115948Y-74547127D01*
X202118396Y-74609430D01*
X202118880Y-74619280D01*
X202118880Y-76419280D01*
X202118395Y-76429133D01*
X202115948Y-76491432D01*
X202115060Y-76497036D01*
X202114301Y-76512494D01*
X202106012Y-76554160D01*
X202092228Y-76641196D01*
X202083131Y-76669190D01*
X202077930Y-76695341D01*
X202062642Y-76732248D01*
X202046131Y-76783064D01*
X202021875Y-76830668D01*
X202006587Y-76867578D01*
X201991772Y-76889750D01*
X201978411Y-76915973D01*
X201926622Y-76987253D01*
X201903013Y-77022588D01*
X201895471Y-77030129D01*
X201890734Y-77036650D01*
X201785250Y-77142134D01*
X201778729Y-77146871D01*
X201771188Y-77154413D01*
X201735853Y-77178022D01*
X201664573Y-77229811D01*
X201638350Y-77243172D01*
X201616178Y-77257987D01*
X201579268Y-77273275D01*
X201531664Y-77297531D01*
X201480848Y-77314042D01*
X201443941Y-77329330D01*
X201417790Y-77334531D01*
X201389796Y-77343628D01*
X201302755Y-77357413D01*
X201261094Y-77365701D01*
X201250433Y-77365701D01*
X201242465Y-77366963D01*
X201093295Y-77366963D01*
X201085327Y-77365701D01*
X201074666Y-77365701D01*
X201033005Y-77357414D01*
X200945963Y-77343628D01*
X200917966Y-77334531D01*
X200891819Y-77329330D01*
X200854915Y-77314044D01*
X200804095Y-77297531D01*
X200756485Y-77273273D01*
X200719582Y-77257987D01*
X200697413Y-77243174D01*
X200671186Y-77229811D01*
X200599894Y-77178014D01*
X200564572Y-77154413D01*
X200557032Y-77146873D01*
X200550509Y-77142134D01*
X200445025Y-77036650D01*
X200440285Y-77030126D01*
X200432747Y-77022588D01*
X200409148Y-76987270D01*
X200357348Y-76915973D01*
X200343983Y-76889743D01*
X200329173Y-76867578D01*
X200313889Y-76830679D01*
X200289628Y-76783064D01*
X200273112Y-76732236D01*
X200257830Y-76695341D01*
X200252629Y-76669198D01*
X200243531Y-76641196D01*
X200229742Y-76554136D01*
X200221459Y-76512494D01*
X200220700Y-76497045D01*
X200219811Y-76491432D01*
X200217363Y-76429117D01*
X200216880Y-76419280D01*
X200216880Y-74619280D01*
X200217363Y-74609446D01*
X200219811Y-74547127D01*
X200220700Y-74541512D01*
X200221459Y-74526066D01*
X200229741Y-74484427D01*
X200243531Y-74397363D01*
X200252630Y-74369358D01*
X200257830Y-74343219D01*
X200273111Y-74306326D01*
X200289628Y-74255495D01*
X200313891Y-74207875D01*
X200329173Y-74170982D01*
X200343981Y-74148819D01*
X200357348Y-74122586D01*
X200409157Y-74051276D01*
X200432747Y-74015972D01*
X200440282Y-74008436D01*
X200445025Y-74001909D01*
X200550509Y-73896425D01*
X200557036Y-73891682D01*
X200564572Y-73884147D01*
X200599876Y-73860557D01*
X200671186Y-73808748D01*
X200697419Y-73795381D01*
X200719582Y-73780573D01*
X200756475Y-73765291D01*
X200804095Y-73741028D01*
X200854926Y-73724511D01*
X200891819Y-73709230D01*
X200917958Y-73704030D01*
X200945963Y-73694931D01*
X201033016Y-73681143D01*
X201074666Y-73672859D01*
X201085327Y-73672859D01*
X201093295Y-73671597D01*
X201242465Y-73671597D01*
X201250433Y-73672859D01*
G37*
G36*
X204750433Y-73672859D02*
G01*
X204761094Y-73672859D01*
X204802745Y-73681144D01*
X204889796Y-73694931D01*
X204917798Y-73704029D01*
X204943941Y-73709230D01*
X204980836Y-73724512D01*
X205031664Y-73741028D01*
X205079279Y-73765289D01*
X205116178Y-73780573D01*
X205138343Y-73795383D01*
X205164573Y-73808748D01*
X205235870Y-73860548D01*
X205271188Y-73884147D01*
X205278726Y-73891685D01*
X205285250Y-73896425D01*
X205390734Y-74001909D01*
X205395473Y-74008432D01*
X205403013Y-74015972D01*
X205426614Y-74051294D01*
X205478411Y-74122586D01*
X205491774Y-74148813D01*
X205506587Y-74170982D01*
X205521873Y-74207885D01*
X205546131Y-74255495D01*
X205562644Y-74306315D01*
X205577930Y-74343219D01*
X205583131Y-74369366D01*
X205592228Y-74397363D01*
X205606013Y-74484403D01*
X205614301Y-74526066D01*
X205615060Y-74541521D01*
X205615948Y-74547127D01*
X205618396Y-74609430D01*
X205618880Y-74619280D01*
X205618880Y-76419280D01*
X205618395Y-76429133D01*
X205615948Y-76491432D01*
X205615060Y-76497036D01*
X205614301Y-76512494D01*
X205606012Y-76554160D01*
X205592228Y-76641196D01*
X205583131Y-76669190D01*
X205577930Y-76695341D01*
X205562642Y-76732248D01*
X205546131Y-76783064D01*
X205521875Y-76830668D01*
X205506587Y-76867578D01*
X205491772Y-76889750D01*
X205478411Y-76915973D01*
X205426622Y-76987253D01*
X205403013Y-77022588D01*
X205395471Y-77030129D01*
X205390734Y-77036650D01*
X205285250Y-77142134D01*
X205278729Y-77146871D01*
X205271188Y-77154413D01*
X205235853Y-77178022D01*
X205164573Y-77229811D01*
X205138350Y-77243172D01*
X205116178Y-77257987D01*
X205079268Y-77273275D01*
X205031664Y-77297531D01*
X204980848Y-77314042D01*
X204943941Y-77329330D01*
X204917790Y-77334531D01*
X204889796Y-77343628D01*
X204802755Y-77357413D01*
X204761094Y-77365701D01*
X204750433Y-77365701D01*
X204742465Y-77366963D01*
X204593295Y-77366963D01*
X204585327Y-77365701D01*
X204574666Y-77365701D01*
X204533005Y-77357414D01*
X204445963Y-77343628D01*
X204417966Y-77334531D01*
X204391819Y-77329330D01*
X204354915Y-77314044D01*
X204304095Y-77297531D01*
X204256485Y-77273273D01*
X204219582Y-77257987D01*
X204197413Y-77243174D01*
X204171186Y-77229811D01*
X204099894Y-77178014D01*
X204064572Y-77154413D01*
X204057032Y-77146873D01*
X204050509Y-77142134D01*
X203945025Y-77036650D01*
X203940285Y-77030126D01*
X203932747Y-77022588D01*
X203909148Y-76987270D01*
X203857348Y-76915973D01*
X203843983Y-76889743D01*
X203829173Y-76867578D01*
X203813889Y-76830679D01*
X203789628Y-76783064D01*
X203773112Y-76732236D01*
X203757830Y-76695341D01*
X203752629Y-76669198D01*
X203743531Y-76641196D01*
X203729742Y-76554136D01*
X203721459Y-76512494D01*
X203720700Y-76497045D01*
X203719811Y-76491432D01*
X203717363Y-76429117D01*
X203716880Y-76419280D01*
X203716880Y-74619280D01*
X203717363Y-74609446D01*
X203719811Y-74547127D01*
X203720700Y-74541512D01*
X203721459Y-74526066D01*
X203729741Y-74484427D01*
X203743531Y-74397363D01*
X203752630Y-74369358D01*
X203757830Y-74343219D01*
X203773111Y-74306326D01*
X203789628Y-74255495D01*
X203813891Y-74207875D01*
X203829173Y-74170982D01*
X203843981Y-74148819D01*
X203857348Y-74122586D01*
X203909157Y-74051276D01*
X203932747Y-74015972D01*
X203940282Y-74008436D01*
X203945025Y-74001909D01*
X204050509Y-73896425D01*
X204057036Y-73891682D01*
X204064572Y-73884147D01*
X204099876Y-73860557D01*
X204171186Y-73808748D01*
X204197419Y-73795381D01*
X204219582Y-73780573D01*
X204256475Y-73765291D01*
X204304095Y-73741028D01*
X204354926Y-73724511D01*
X204391819Y-73709230D01*
X204417958Y-73704030D01*
X204445963Y-73694931D01*
X204533016Y-73681143D01*
X204574666Y-73672859D01*
X204585327Y-73672859D01*
X204593295Y-73671597D01*
X204742465Y-73671597D01*
X204750433Y-73672859D01*
G37*
M02*
