M48
; DRILL file {KiCad 9.0.7} date 2026-02-20T17:46:54-0500
; FORMAT={-:-/ absolute / inch / decimal}
; #@! TF.CreationDate,2026-02-20T17:46:54-05:00
; #@! TF.GenerationSoftware,Kicad,Pcbnew,9.0.7
; #@! TF.FileFunction,Plated,1,2,PTH
FMAT,2
INCH
; #@! TA.AperFunction,Plated,PTH,ViaDrill
T1C0.0157
; #@! TA.AperFunction,Plated,PTH,ComponentDrill
T2C0.0354
; #@! TA.AperFunction,Plated,PTH,ComponentDrill
T3C0.0362
; #@! TA.AperFunction,Plated,PTH,ComponentDrill
T4C0.0374
; #@! TA.AperFunction,Plated,PTH,ComponentDrill
T5C0.0394
; #@! TA.AperFunction,Plated,PTH,ComponentDrill
T6C0.0402
; #@! TA.AperFunction,Plated,PTH,ComponentDrill
T7C0.0433
; #@! TA.AperFunction,Plated,PTH,ComponentDrill
T8C0.0472
; #@! TA.AperFunction,Plated,PTH,ComponentDrill
T9C0.0906
%
G90
G05
T1
X3.44Y-3.81
X3.54Y-2.91
X3.54Y-3.11
X3.54Y-3.41
X3.54Y-4.31
X3.54Y-4.71
X3.71Y-3.99
X3.71Y-4.13
X3.758Y-3.5585
X3.76Y-3.99
X3.76Y-4.13
X3.82Y-3.99
X3.82Y-4.13
X3.84Y-2.91
X3.84Y-3.11
X3.84Y-3.31
X3.87Y-4.06
X3.94Y-4.71
X4.04Y-4.41
X4.14Y-2.91
X4.14Y-3.11
X4.14Y-3.51
X4.14Y-3.71
X4.24Y-4.11
X4.24Y-4.51
X4.44Y-2.91
X4.44Y-3.51
X4.44Y-3.71
X4.536Y-4.661
X4.64Y-4.51
X4.683Y-3.7315
X4.74Y-2.91
X4.745Y-3.4165
X4.8Y-2.9529
X4.8508Y-2.9313
X4.894Y-3.5165
X4.93Y-2.84
X4.95Y-3.655
X4.9505Y-2.9096
X4.9652Y-4.1667
X5.0Y-3.695
X5.0026Y-2.9096
X5.05Y-3.52
X5.08Y-2.8645
X5.099Y-3.555
X5.197Y-2.8879
X5.215Y-3.475
X5.2723Y-4.3714
X5.281Y-3.246
X5.2935Y-3.7585
X5.4967Y-4.1588
X5.502Y-3.245
X5.5124Y-3.5565
X5.5439Y-3.521
X5.576Y-4.561
X5.6542Y-4.3242
X5.6542Y-4.4974
X5.662Y-3.5328
X5.7802Y-3.9069
X5.788Y-4.6313
X5.8431Y-4.6943
X5.9376Y-4.3281
X5.9613Y-3.8439
X6.015Y-4.594
X6.0164Y-4.6982
X6.04Y-4.4738
X6.054Y-4.594
X6.1546Y-4.3317
X6.1699Y-4.5053
X6.2054Y-3.5328
X6.2408Y-3.9492
X6.2565Y-4.584
X6.3471Y-4.6824
X6.442Y-4.5202
X6.5124Y-3.6076
X6.5243Y-3.8439
X6.5243Y-4.6785
X6.5872Y-3.6706
X6.5912Y-3.7179
X6.6424Y-3.962
X6.662Y-3.8163
X6.7132Y-3.6234
X6.7175Y-3.3815
X6.7762Y-4.5191
X6.8038Y-3.8124
X6.8195Y-3.6234
X6.8392Y-4.3517
X6.8431Y-3.3872
X6.8471Y-3.9147
X6.8746Y-3.7179
X6.9022Y-4.336
X6.9455Y-3.8714
X6.9895Y-4.334
X7.0439Y-3.8596
X7.0833Y-3.9767
X7.0833Y-4.6785
X7.1148Y-3.8478
X7.131Y-2.8515
X7.1463Y-3.9935
X7.148Y-3.379
X7.2073Y-4.5191
X7.2408Y-4.0535
X7.2842Y-4.0682
X7.311Y-3.3365
X7.3431Y-4.0643
X7.3943Y-4.0683
X7.4065Y-3.074
X7.414Y-3.8557
X7.437Y-4.652
X7.4967Y-4.0053
X7.5164Y-4.2454
X7.6813Y-4.386
X7.691Y-2.856
X7.743Y-3.2095
X7.7644Y-4.1722
X7.8392Y-3.6706
X7.8585Y-4.5124
X7.874Y-3.453
X7.8829Y-3.9356
X7.8865Y-4.6588
X7.8865Y-3.358
X7.901Y-4.3202
X7.997Y-3.458
X8.085Y-3.2535
X8.124Y-3.439
X8.1581Y-3.6431
X8.206Y-3.541
X8.2695Y-4.1698
X8.3392Y-4.1903
X8.414Y-3.8793
X8.47Y-4.67
X8.4928Y-4.0486
X8.5485Y-3.212
X8.5951Y-4.0486
X8.658Y-3.566
X8.72Y-3.68
X8.77Y-4.25
X8.87Y-2.9
X9.0361Y-4.2257
X9.04Y-4.71
X9.0412Y-3.6978
X9.048Y-4.4515
X9.1215Y-4.3795
X9.1227Y-4.038
X9.2077Y-3.7478
X9.2172Y-4.2336
X9.36Y-2.9
X9.375Y-3.5685
X9.72Y-2.9
X9.74Y-3.81
X9.74Y-4.51
X9.74Y-4.71
T2
X5.743Y-3.153
X5.743Y-3.253
X5.743Y-4.153
X5.743Y-4.253
X5.843Y-3.153
X5.843Y-3.253
X5.843Y-4.153
X5.843Y-4.253
X5.943Y-3.153
X5.943Y-3.253
X5.943Y-4.153
X5.943Y-4.253
X6.043Y-3.153
X6.043Y-3.253
X6.043Y-4.153
X6.043Y-4.253
X6.143Y-3.153
X6.143Y-3.253
X6.143Y-4.153
X6.143Y-4.253
X6.243Y-3.153
X6.243Y-3.253
X6.243Y-4.153
X6.243Y-4.253
X6.343Y-3.153
X6.343Y-3.253
X6.343Y-4.153
X6.343Y-4.253
X6.443Y-3.153
X6.443Y-3.253
X6.443Y-4.153
X6.443Y-4.253
X6.543Y-3.153
X6.543Y-3.253
X6.543Y-4.153
X6.543Y-4.253
X6.643Y-3.153
X6.643Y-3.253
X6.643Y-4.153
X6.643Y-4.253
X6.743Y-3.153
X6.743Y-3.253
X6.743Y-4.153
X6.743Y-4.253
X6.843Y-3.153
X6.843Y-3.253
X6.843Y-4.153
X6.843Y-4.253
X6.943Y-3.153
X6.943Y-3.253
X6.943Y-4.153
X6.943Y-4.253
X7.043Y-3.153
X7.043Y-3.253
X7.043Y-4.153
X7.043Y-4.253
X7.143Y-3.153
X7.143Y-3.253
X7.143Y-4.153
X7.143Y-4.253
X7.243Y-3.153
X7.243Y-3.253
X7.243Y-4.153
X7.243Y-4.253
X7.343Y-3.153
X7.343Y-3.253
X7.343Y-4.153
X7.343Y-4.253
X7.443Y-3.153
X7.443Y-3.253
X7.443Y-4.153
X7.443Y-4.253
T3
X9.3136Y-4.025
X9.3136Y-4.1234
X9.3136Y-4.2021
X9.3136Y-4.3006
T4
X5.1907Y-4.6676
X5.2891Y-4.6676
X5.3876Y-4.6676
X5.486Y-4.6676
T5
X3.67Y-3.46
X3.67Y-3.56
X3.67Y-3.66
X8.338Y-4.28
X8.438Y-4.28
X8.538Y-4.28
X8.638Y-4.28
X9.696Y-3.2485
X9.696Y-3.3485
X9.696Y-3.4485
X9.696Y-3.5485
X9.696Y-3.6485
T6
X4.05Y-3.23
X4.05Y-3.33
X4.05Y-3.81
X4.05Y-3.91
X4.15Y-3.23
X4.15Y-3.33
X4.15Y-3.81
X4.15Y-3.91
X4.25Y-3.23
X4.25Y-3.33
X4.25Y-3.81
X4.25Y-3.91
X4.35Y-3.23
X4.35Y-3.33
X4.35Y-3.81
X4.35Y-3.91
X4.45Y-3.23
X4.45Y-3.33
X4.45Y-3.81
X4.45Y-3.91
X4.55Y-3.23
X4.55Y-3.33
X4.55Y-3.81
X4.55Y-3.91
X4.65Y-3.23
X4.65Y-3.33
X4.65Y-3.81
X4.65Y-3.91
X4.75Y-3.23
X4.75Y-3.33
X4.75Y-3.81
X4.75Y-3.91
X4.85Y-3.23
X4.85Y-3.33
X4.85Y-3.81
X4.85Y-3.91
X4.95Y-3.23
X4.95Y-3.33
X4.95Y-3.81
X4.95Y-3.91
X5.05Y-3.23
X5.05Y-3.33
X5.05Y-3.81
X5.05Y-3.91
X5.15Y-3.23
X5.15Y-3.33
X5.15Y-3.81
X5.15Y-3.91
T7
X8.076Y-4.491
X8.076Y-4.6682
X8.3319Y-4.491
X8.3319Y-4.6682
X8.5965Y-4.4915
X8.5965Y-4.6687
X8.8524Y-4.4915
X8.8524Y-4.6687
T8
X7.7822Y-2.9732
X7.92Y-2.9732
X8.0578Y-2.9732
X8.359Y-2.974
X8.4968Y-2.974
X8.6346Y-2.974
T9
X9.4203Y-3.9041
X9.4203Y-4.4214
M30
