M48
; DRILL file {KiCad (5.1.9)-1} date 03/28/21 23:04:21
; FORMAT={-:-/ absolute / inch / decimal}
; #@! TF.CreationDate,2021-03-28T23:04:21-04:00
; #@! TF.GenerationSoftware,Kicad,Pcbnew,(5.1.9)-1
; #@! TF.FileFunction,Plated,1,2,PTH
FMAT,2
INCH
T1C0.0157
T2C0.0276
T3C0.0280
T4C0.0299
T5C0.0315
T6C0.0354
T7C0.0394
T8C0.0402
T9C0.0433
T10C0.0512
%
G90
G05
T1
X4.7244Y-2.4016
X4.7244Y-2.7559
X4.7244Y-3.7402
X4.7244Y-4.3307
X4.9213Y-3.7402
X4.9213Y-4.3307
X4.9409Y-2.9528
X4.9528Y-3.4016
X5.0591Y-2.9331
X5.0689Y-2.8051
X5.1181Y-4.5276
X5.1575Y-3.7402
X5.2047Y-4.0354
X5.2992Y-4.0354
X5.3346Y-4.6063
X5.4094Y-4.3543
X5.4173Y-4.0276
X5.4528Y-2.9528
X5.4528Y-3.3858
X5.4528Y-3.6102
X5.4724Y-3.2283
X5.4803Y-2.4685
X5.4823Y-2.6398
X5.561Y-3.3661
X5.6417Y-3.9567
X5.6988Y-2.6142
X5.6988Y-2.7205
X5.7165Y-3.4685
X5.7185Y-3.5728
X5.7421Y-2.4783
X5.7598Y-3.9961
X5.7657Y-2.8583
X5.7874Y-3.7795
X5.876Y-2.9921
X5.8858Y-3.2087
X5.8898Y-3.6772
X5.9154Y-2.7854
X5.9646Y-3.4252
X5.9764Y-3.5709
X5.9902Y-2.5551
X6.0118Y-4.3189
X6.0335Y-3.8287
X6.1299Y-3.5906
X6.1417Y-3.4252
X6.1457Y-4.3228
X6.252Y-4.0906
X6.2559Y-2.7559
X6.2598Y-3.7303
X6.3189Y-3.0807
X6.3917Y-3.5787
X6.3976Y-3.7303
X6.4213Y-4.3346
X6.4567Y-4.0827
X6.5157Y-2.7559
X6.5453Y-3.7205
X6.5709Y-4.0866
X6.5846Y-3.4252
X6.5925Y-3.5886
X6.5945Y-3.9961
X6.6831Y-3.7205
X6.6909Y-3.2677
X6.6929Y-2.7559
X6.6929Y-3.0807
X6.7402Y-4.3386
X6.7756Y-3.6319
X6.872Y-2.437
X6.8898Y-3.7618
X6.9783Y-3.4252
X7.0079Y-2.7205
X7.0374Y-3.0906
X7.1287Y-3.3575
X7.1614Y-4.0906
X7.185Y-3.9567
X7.189Y-2.3917
X7.2323Y-2.7992
X7.3169Y-2.4921
X7.3524Y-3.1004
X7.3524Y-4.2421
X7.3701Y-2.6181
X7.374Y-3.2165
X7.374Y-3.4213
X7.3858Y-2.7913
X7.4409Y-3.7795
X7.4606Y-4.0354
X7.5Y-3.1594
X7.5039Y-2.6142
X7.5039Y-2.7913
X7.5039Y-2.9173
X7.5079Y-3.5039
X7.5079Y-3.6417
X7.5118Y-3.2795
X7.5236Y-4.5
X7.5669Y-3.7795
X7.6181Y-3.9665
X7.622Y-2.3898
X7.6535Y-4.4646
X7.6772Y-3.3563
X7.7067Y-2.7264
X7.7205Y-2.8858
X7.748Y-3.1299
X7.8622Y-2.9331
X7.9173Y-3.811
X7.9252Y-3.2165
X7.9252Y-4.0197
T2
X6.0354Y-3.6339
X6.3091Y-3.1988
X6.3339Y-2.7657
X6.4339Y-2.7657
T3
X7.2402Y-2.4961
X7.4409Y-2.5591
T4
X4.9213Y-3.0315
X4.9213Y-3.1315
X4.9213Y-3.2315
X4.9213Y-3.3315
X5.0213Y-3.0815
X5.0213Y-3.1815
X5.0213Y-3.2815
X5.0213Y-3.3815
T5
X5.0709Y-3.8976
X5.0709Y-4.0945
X5.1969Y-2.9134
X5.1969Y-3.0134
X5.1969Y-3.1134
X5.1969Y-3.2134
X5.1969Y-3.3134
X5.1969Y-3.4134
X5.1969Y-3.5134
X5.1969Y-3.6134
X5.2087Y-3.8732
X5.2087Y-4.1732
X5.3087Y-3.8732
X5.3087Y-4.1732
X5.3346Y-2.9134
X5.3346Y-3.0134
X5.3346Y-3.1134
X5.3346Y-3.2134
X5.3346Y-3.3134
X5.3346Y-3.4134
X5.3346Y-3.5134
X5.3346Y-3.6134
X5.4087Y-3.8732
X5.4087Y-4.1732
X5.4528Y-2.7953
X5.5087Y-3.8732
X5.5087Y-4.1732
X5.6087Y-3.8732
X5.6087Y-4.1732
X5.6346Y-2.9134
X5.6346Y-3.0134
X5.6346Y-3.1134
X5.6346Y-3.2134
X5.6346Y-3.3134
X5.6346Y-3.4134
X5.6346Y-3.5134
X5.6346Y-3.6134
X5.6496Y-2.7953
X5.7087Y-3.8732
X5.7087Y-4.1732
X5.7728Y-2.6614
X5.8087Y-3.8732
X5.8087Y-4.1732
X5.9646Y-3.8976
X5.9646Y-4.0945
X6.0681Y-3.3563
X6.0728Y-2.6614
X6.1024Y-3.8732
X6.1024Y-4.1732
X6.2024Y-3.8732
X6.2024Y-4.1732
X6.3024Y-3.8732
X6.3024Y-4.1732
X6.3484Y-2.4803
X6.3484Y-2.5591
X6.3681Y-3.3563
X6.4024Y-3.8732
X6.4024Y-4.1732
X6.5024Y-3.8732
X6.5024Y-4.1732
X6.6024Y-3.8732
X6.6024Y-4.1732
X6.7024Y-3.8732
X6.7024Y-4.1732
X6.8071Y-2.7165
X6.8701Y-3.8976
X6.8701Y-4.0945
X7.0079Y-3.8732
X7.0079Y-4.1732
X7.0335Y-3.6354
X7.0374Y-2.4803
X7.0374Y-2.5591
X7.1071Y-2.7165
X7.1079Y-3.8732
X7.1079Y-4.1732
X7.2079Y-3.8732
X7.2079Y-4.1732
X7.2303Y-3.6354
X7.3079Y-3.8732
X7.3079Y-4.1732
X7.4079Y-3.8732
X7.4079Y-4.1732
X7.5079Y-3.8732
X7.5079Y-4.1732
X7.6079Y-3.8732
X7.6079Y-4.1732
T6
X5.6004Y-2.5614
X5.6004Y-2.6614
X7.2402Y-2.7165
X7.3402Y-2.7165
T7
X5.5236Y-4.4276
X5.5236Y-4.5276
X5.6236Y-4.4276
X5.6236Y-4.5276
X5.7236Y-4.4276
X5.7236Y-4.5276
X5.8236Y-4.4276
X5.8236Y-4.5276
X5.8335Y-2.4803
X5.9236Y-4.4276
X5.9236Y-4.5276
X5.9335Y-2.4803
X6.0236Y-4.4276
X6.0236Y-4.5276
X6.0335Y-2.4803
X6.1236Y-4.4276
X6.1236Y-4.5276
X6.2236Y-4.4276
X6.2236Y-4.5276
X6.3236Y-4.4276
X6.3236Y-4.5276
X6.4236Y-4.4276
X6.4236Y-4.5276
X6.5236Y-4.4276
X6.5236Y-4.5276
X6.6236Y-4.4276
X6.6236Y-4.5276
X6.7236Y-4.4276
X6.7236Y-4.5276
X6.8236Y-4.4276
X6.8236Y-4.5276
X6.9236Y-4.4276
X6.9236Y-4.5276
X7.0236Y-4.4276
X7.0236Y-4.5276
X7.1236Y-4.4276
X7.1236Y-4.5276
X7.2236Y-4.4276
X7.2236Y-4.5276
X7.3236Y-4.4276
X7.3236Y-4.5276
X7.4236Y-4.4276
X7.4236Y-4.5276
X7.8346Y-3.2165
X7.8346Y-3.3165
X7.8346Y-3.4165
X7.8346Y-3.5165
X7.8346Y-3.7559
X7.8346Y-3.8559
X7.8346Y-3.9559
X7.8346Y-4.0559
X7.8346Y-4.1559
X7.8346Y-4.2559
T8
X5.9339Y-2.9087
X5.9339Y-3.5087
X6.0339Y-2.9087
X6.0339Y-3.5087
X6.1339Y-2.9087
X6.1339Y-3.5087
X6.2339Y-2.9087
X6.2339Y-3.5087
X6.3339Y-2.9087
X6.3339Y-3.5087
X6.4339Y-2.9087
X6.4339Y-3.5087
X6.5339Y-2.9087
X6.5339Y-3.5087
X6.6339Y-2.9087
X6.6339Y-3.5087
X6.7339Y-2.9087
X6.7339Y-3.5087
X6.8339Y-2.9087
X6.8339Y-3.5087
X6.9339Y-2.9087
X6.9339Y-3.5087
X7.0339Y-2.9087
X7.0339Y-3.5087
X7.1339Y-2.9087
X7.1339Y-3.5087
X7.2339Y-2.9087
X7.2339Y-3.5087
X7.3339Y-2.9087
X7.3339Y-3.5087
T9
X6.5945Y-2.5197
X6.6945Y-2.5197
X6.7945Y-2.5197
X7.7874Y-2.7441
X7.7874Y-3.0
X7.9646Y-2.7441
X7.9646Y-3.0
T10
X5.1673Y-2.5197
X5.3642Y-2.5197
T0
M30
