%TF.GenerationSoftware,KiCad,Pcbnew,(5.1.9)-1*%
%TF.CreationDate,2021-01-05T14:12:52-05:00*%
%TF.ProjectId,Smart_Reciever_Max,536d6172-745f-4526-9563-69657665725f,v1*%
%TF.SameCoordinates,Original*%
%TF.FileFunction,Legend,Top*%
%TF.FilePolarity,Positive*%
%FSLAX46Y46*%
G04 Gerber Fmt 4.6, Leading zero omitted, Abs format (unit mm)*
G04 Created by KiCad (PCBNEW (5.1.9)-1) date 2021-01-05 14:12:52*
%MOMM*%
%LPD*%
G01*
G04 APERTURE LIST*
%ADD10C,0.100000*%
%ADD11C,0.300000*%
%ADD12C,0.150000*%
%ADD13C,0.120000*%
%ADD14C,0.254000*%
%ADD15C,0.400000*%
%ADD16C,0.127000*%
%ADD17C,0.200000*%
G04 APERTURE END LIST*
D10*
X201814285Y-105389285D02*
X201957142Y-105389285D01*
X202028571Y-105425000D01*
X202100000Y-105496428D01*
X202135714Y-105639285D01*
X202135714Y-105889285D01*
X202100000Y-106032142D01*
X202028571Y-106103571D01*
X201957142Y-106139285D01*
X201814285Y-106139285D01*
X201742857Y-106103571D01*
X201671428Y-106032142D01*
X201635714Y-105889285D01*
X201635714Y-105639285D01*
X201671428Y-105496428D01*
X201742857Y-105425000D01*
X201814285Y-105389285D01*
X202850000Y-106139285D02*
X202421428Y-106139285D01*
X202635714Y-106139285D02*
X202635714Y-105389285D01*
X202564285Y-105496428D01*
X202492857Y-105567857D01*
X202421428Y-105603571D01*
X203492857Y-105389285D02*
X203350000Y-105389285D01*
X203278571Y-105425000D01*
X203242857Y-105460714D01*
X203171428Y-105567857D01*
X203135714Y-105710714D01*
X203135714Y-105996428D01*
X203171428Y-106067857D01*
X203207142Y-106103571D01*
X203278571Y-106139285D01*
X203421428Y-106139285D01*
X203492857Y-106103571D01*
X203528571Y-106067857D01*
X203564285Y-105996428D01*
X203564285Y-105817857D01*
X203528571Y-105746428D01*
X203492857Y-105710714D01*
X203421428Y-105675000D01*
X203278571Y-105675000D01*
X203207142Y-105710714D01*
X203171428Y-105746428D01*
X203135714Y-105817857D01*
X201814285Y-102789285D02*
X201957142Y-102789285D01*
X202028571Y-102825000D01*
X202100000Y-102896428D01*
X202135714Y-103039285D01*
X202135714Y-103289285D01*
X202100000Y-103432142D01*
X202028571Y-103503571D01*
X201957142Y-103539285D01*
X201814285Y-103539285D01*
X201742857Y-103503571D01*
X201671428Y-103432142D01*
X201635714Y-103289285D01*
X201635714Y-103039285D01*
X201671428Y-102896428D01*
X201742857Y-102825000D01*
X201814285Y-102789285D01*
X202850000Y-103539285D02*
X202421428Y-103539285D01*
X202635714Y-103539285D02*
X202635714Y-102789285D01*
X202564285Y-102896428D01*
X202492857Y-102967857D01*
X202421428Y-103003571D01*
X203528571Y-102789285D02*
X203171428Y-102789285D01*
X203135714Y-103146428D01*
X203171428Y-103110714D01*
X203242857Y-103075000D01*
X203421428Y-103075000D01*
X203492857Y-103110714D01*
X203528571Y-103146428D01*
X203564285Y-103217857D01*
X203564285Y-103396428D01*
X203528571Y-103467857D01*
X203492857Y-103503571D01*
X203421428Y-103539285D01*
X203242857Y-103539285D01*
X203171428Y-103503571D01*
X203135714Y-103467857D01*
X201814285Y-100189285D02*
X201957142Y-100189285D01*
X202028571Y-100225000D01*
X202100000Y-100296428D01*
X202135714Y-100439285D01*
X202135714Y-100689285D01*
X202100000Y-100832142D01*
X202028571Y-100903571D01*
X201957142Y-100939285D01*
X201814285Y-100939285D01*
X201742857Y-100903571D01*
X201671428Y-100832142D01*
X201635714Y-100689285D01*
X201635714Y-100439285D01*
X201671428Y-100296428D01*
X201742857Y-100225000D01*
X201814285Y-100189285D01*
X202850000Y-100939285D02*
X202421428Y-100939285D01*
X202635714Y-100939285D02*
X202635714Y-100189285D01*
X202564285Y-100296428D01*
X202492857Y-100367857D01*
X202421428Y-100403571D01*
X203492857Y-100439285D02*
X203492857Y-100939285D01*
X203314285Y-100153571D02*
X203135714Y-100689285D01*
X203600000Y-100689285D01*
X201814285Y-97689285D02*
X201957142Y-97689285D01*
X202028571Y-97725000D01*
X202100000Y-97796428D01*
X202135714Y-97939285D01*
X202135714Y-98189285D01*
X202100000Y-98332142D01*
X202028571Y-98403571D01*
X201957142Y-98439285D01*
X201814285Y-98439285D01*
X201742857Y-98403571D01*
X201671428Y-98332142D01*
X201635714Y-98189285D01*
X201635714Y-97939285D01*
X201671428Y-97796428D01*
X201742857Y-97725000D01*
X201814285Y-97689285D01*
X202850000Y-98439285D02*
X202421428Y-98439285D01*
X202635714Y-98439285D02*
X202635714Y-97689285D01*
X202564285Y-97796428D01*
X202492857Y-97867857D01*
X202421428Y-97903571D01*
X203100000Y-97689285D02*
X203564285Y-97689285D01*
X203314285Y-97975000D01*
X203421428Y-97975000D01*
X203492857Y-98010714D01*
X203528571Y-98046428D01*
X203564285Y-98117857D01*
X203564285Y-98296428D01*
X203528571Y-98367857D01*
X203492857Y-98403571D01*
X203421428Y-98439285D01*
X203207142Y-98439285D01*
X203135714Y-98403571D01*
X203100000Y-98367857D01*
X202028571Y-108025000D02*
X201957142Y-107989285D01*
X201850000Y-107989285D01*
X201742857Y-108025000D01*
X201671428Y-108096428D01*
X201635714Y-108167857D01*
X201600000Y-108310714D01*
X201600000Y-108417857D01*
X201635714Y-108560714D01*
X201671428Y-108632142D01*
X201742857Y-108703571D01*
X201850000Y-108739285D01*
X201921428Y-108739285D01*
X202028571Y-108703571D01*
X202064285Y-108667857D01*
X202064285Y-108417857D01*
X201921428Y-108417857D01*
X202385714Y-108739285D02*
X202385714Y-107989285D01*
X202814285Y-108739285D01*
X202814285Y-107989285D01*
X203171428Y-108739285D02*
X203171428Y-107989285D01*
X203350000Y-107989285D01*
X203457142Y-108025000D01*
X203528571Y-108096428D01*
X203564285Y-108167857D01*
X203600000Y-108310714D01*
X203600000Y-108417857D01*
X203564285Y-108560714D01*
X203528571Y-108632142D01*
X203457142Y-108703571D01*
X203350000Y-108739285D01*
X203171428Y-108739285D01*
X202157142Y-95189285D02*
X201800000Y-95189285D01*
X201764285Y-95546428D01*
X201800000Y-95510714D01*
X201871428Y-95475000D01*
X202050000Y-95475000D01*
X202121428Y-95510714D01*
X202157142Y-95546428D01*
X202192857Y-95617857D01*
X202192857Y-95796428D01*
X202157142Y-95867857D01*
X202121428Y-95903571D01*
X202050000Y-95939285D01*
X201871428Y-95939285D01*
X201800000Y-95903571D01*
X201764285Y-95867857D01*
X202407142Y-95189285D02*
X202657142Y-95939285D01*
X202907142Y-95189285D01*
X202357142Y-72589285D02*
X202000000Y-72589285D01*
X201964285Y-72946428D01*
X202000000Y-72910714D01*
X202071428Y-72875000D01*
X202250000Y-72875000D01*
X202321428Y-72910714D01*
X202357142Y-72946428D01*
X202392857Y-73017857D01*
X202392857Y-73196428D01*
X202357142Y-73267857D01*
X202321428Y-73303571D01*
X202250000Y-73339285D01*
X202071428Y-73339285D01*
X202000000Y-73303571D01*
X201964285Y-73267857D01*
X202607142Y-72589285D02*
X202857142Y-73339285D01*
X203107142Y-72589285D01*
X201928571Y-85325000D02*
X201857142Y-85289285D01*
X201750000Y-85289285D01*
X201642857Y-85325000D01*
X201571428Y-85396428D01*
X201535714Y-85467857D01*
X201500000Y-85610714D01*
X201500000Y-85717857D01*
X201535714Y-85860714D01*
X201571428Y-85932142D01*
X201642857Y-86003571D01*
X201750000Y-86039285D01*
X201821428Y-86039285D01*
X201928571Y-86003571D01*
X201964285Y-85967857D01*
X201964285Y-85717857D01*
X201821428Y-85717857D01*
X202285714Y-86039285D02*
X202285714Y-85289285D01*
X202714285Y-86039285D01*
X202714285Y-85289285D01*
X203071428Y-86039285D02*
X203071428Y-85289285D01*
X203250000Y-85289285D01*
X203357142Y-85325000D01*
X203428571Y-85396428D01*
X203464285Y-85467857D01*
X203500000Y-85610714D01*
X203500000Y-85717857D01*
X203464285Y-85860714D01*
X203428571Y-85932142D01*
X203357142Y-86003571D01*
X203250000Y-86039285D01*
X203071428Y-86039285D01*
X201771428Y-83539285D02*
X201771428Y-82789285D01*
X202057142Y-82789285D01*
X202128571Y-82825000D01*
X202164285Y-82860714D01*
X202200000Y-82932142D01*
X202200000Y-83039285D01*
X202164285Y-83110714D01*
X202128571Y-83146428D01*
X202057142Y-83182142D01*
X201771428Y-83182142D01*
X202771428Y-83146428D02*
X202878571Y-83182142D01*
X202914285Y-83217857D01*
X202950000Y-83289285D01*
X202950000Y-83396428D01*
X202914285Y-83467857D01*
X202878571Y-83503571D01*
X202807142Y-83539285D01*
X202521428Y-83539285D01*
X202521428Y-82789285D01*
X202771428Y-82789285D01*
X202842857Y-82825000D01*
X202878571Y-82860714D01*
X202914285Y-82932142D01*
X202914285Y-83003571D01*
X202878571Y-83075000D01*
X202842857Y-83110714D01*
X202771428Y-83146428D01*
X202521428Y-83146428D01*
X203200000Y-82789285D02*
X203700000Y-82789285D01*
X203378571Y-83539285D01*
X201771428Y-81039285D02*
X201771428Y-80289285D01*
X202057142Y-80289285D01*
X202128571Y-80325000D01*
X202164285Y-80360714D01*
X202200000Y-80432142D01*
X202200000Y-80539285D01*
X202164285Y-80610714D01*
X202128571Y-80646428D01*
X202057142Y-80682142D01*
X201771428Y-80682142D01*
X202771428Y-80646428D02*
X202878571Y-80682142D01*
X202914285Y-80717857D01*
X202950000Y-80789285D01*
X202950000Y-80896428D01*
X202914285Y-80967857D01*
X202878571Y-81003571D01*
X202807142Y-81039285D01*
X202521428Y-81039285D01*
X202521428Y-80289285D01*
X202771428Y-80289285D01*
X202842857Y-80325000D01*
X202878571Y-80360714D01*
X202914285Y-80432142D01*
X202914285Y-80503571D01*
X202878571Y-80575000D01*
X202842857Y-80610714D01*
X202771428Y-80646428D01*
X202521428Y-80646428D01*
X203414285Y-80289285D02*
X203485714Y-80289285D01*
X203557142Y-80325000D01*
X203592857Y-80360714D01*
X203628571Y-80432142D01*
X203664285Y-80575000D01*
X203664285Y-80753571D01*
X203628571Y-80896428D01*
X203592857Y-80967857D01*
X203557142Y-81003571D01*
X203485714Y-81039285D01*
X203414285Y-81039285D01*
X203342857Y-81003571D01*
X203307142Y-80967857D01*
X203271428Y-80896428D01*
X203235714Y-80753571D01*
X203235714Y-80575000D01*
X203271428Y-80432142D01*
X203307142Y-80360714D01*
X203342857Y-80325000D01*
X203414285Y-80289285D01*
X201467857Y-78339285D02*
X201467857Y-77589285D01*
X201753571Y-77589285D01*
X201825000Y-77625000D01*
X201860714Y-77660714D01*
X201896428Y-77732142D01*
X201896428Y-77839285D01*
X201860714Y-77910714D01*
X201825000Y-77946428D01*
X201753571Y-77982142D01*
X201467857Y-77982142D01*
X202182142Y-78125000D02*
X202539285Y-78125000D01*
X202110714Y-78339285D02*
X202360714Y-77589285D01*
X202610714Y-78339285D01*
X203253571Y-78339285D02*
X202825000Y-78339285D01*
X203039285Y-78339285D02*
X203039285Y-77589285D01*
X202967857Y-77696428D01*
X202896428Y-77767857D01*
X202825000Y-77803571D01*
X203539285Y-77660714D02*
X203575000Y-77625000D01*
X203646428Y-77589285D01*
X203825000Y-77589285D01*
X203896428Y-77625000D01*
X203932142Y-77660714D01*
X203967857Y-77732142D01*
X203967857Y-77803571D01*
X203932142Y-77910714D01*
X203503571Y-78339285D01*
X203967857Y-78339285D01*
X201467857Y-75839285D02*
X201467857Y-75089285D01*
X201753571Y-75089285D01*
X201825000Y-75125000D01*
X201860714Y-75160714D01*
X201896428Y-75232142D01*
X201896428Y-75339285D01*
X201860714Y-75410714D01*
X201825000Y-75446428D01*
X201753571Y-75482142D01*
X201467857Y-75482142D01*
X202182142Y-75625000D02*
X202539285Y-75625000D01*
X202110714Y-75839285D02*
X202360714Y-75089285D01*
X202610714Y-75839285D01*
X203253571Y-75839285D02*
X202825000Y-75839285D01*
X203039285Y-75839285D02*
X203039285Y-75089285D01*
X202967857Y-75196428D01*
X202896428Y-75267857D01*
X202825000Y-75303571D01*
X203717857Y-75089285D02*
X203789285Y-75089285D01*
X203860714Y-75125000D01*
X203896428Y-75160714D01*
X203932142Y-75232142D01*
X203967857Y-75375000D01*
X203967857Y-75553571D01*
X203932142Y-75696428D01*
X203896428Y-75767857D01*
X203860714Y-75803571D01*
X203789285Y-75839285D01*
X203717857Y-75839285D01*
X203646428Y-75803571D01*
X203610714Y-75767857D01*
X203575000Y-75696428D01*
X203539285Y-75553571D01*
X203539285Y-75375000D01*
X203575000Y-75232142D01*
X203610714Y-75160714D01*
X203646428Y-75125000D01*
X203717857Y-75089285D01*
D11*
X123342857Y-92285714D02*
X123271428Y-92500000D01*
X123271428Y-92857142D01*
X123342857Y-93000000D01*
X123414285Y-93071428D01*
X123557142Y-93142857D01*
X123700000Y-93142857D01*
X123842857Y-93071428D01*
X123914285Y-93000000D01*
X123985714Y-92857142D01*
X124057142Y-92571428D01*
X124128571Y-92428571D01*
X124200000Y-92357142D01*
X124342857Y-92285714D01*
X124485714Y-92285714D01*
X124628571Y-92357142D01*
X124700000Y-92428571D01*
X124771428Y-92571428D01*
X124771428Y-92928571D01*
X124700000Y-93142857D01*
X123271428Y-93785714D02*
X124271428Y-93785714D01*
X124128571Y-93785714D02*
X124200000Y-93857142D01*
X124271428Y-94000000D01*
X124271428Y-94214285D01*
X124200000Y-94357142D01*
X124057142Y-94428571D01*
X123271428Y-94428571D01*
X124057142Y-94428571D02*
X124200000Y-94500000D01*
X124271428Y-94642857D01*
X124271428Y-94857142D01*
X124200000Y-95000000D01*
X124057142Y-95071428D01*
X123271428Y-95071428D01*
X123271428Y-96428571D02*
X124057142Y-96428571D01*
X124200000Y-96357142D01*
X124271428Y-96214285D01*
X124271428Y-95928571D01*
X124200000Y-95785714D01*
X123342857Y-96428571D02*
X123271428Y-96285714D01*
X123271428Y-95928571D01*
X123342857Y-95785714D01*
X123485714Y-95714285D01*
X123628571Y-95714285D01*
X123771428Y-95785714D01*
X123842857Y-95928571D01*
X123842857Y-96285714D01*
X123914285Y-96428571D01*
X123271428Y-97142857D02*
X124271428Y-97142857D01*
X123985714Y-97142857D02*
X124128571Y-97214285D01*
X124200000Y-97285714D01*
X124271428Y-97428571D01*
X124271428Y-97571428D01*
X124271428Y-97857142D02*
X124271428Y-98428571D01*
X124771428Y-98071428D02*
X123485714Y-98071428D01*
X123342857Y-98142857D01*
X123271428Y-98285714D01*
X123271428Y-98428571D01*
X123271428Y-100928571D02*
X123985714Y-100428571D01*
X123271428Y-100071428D02*
X124771428Y-100071428D01*
X124771428Y-100642857D01*
X124700000Y-100785714D01*
X124628571Y-100857142D01*
X124485714Y-100928571D01*
X124271428Y-100928571D01*
X124128571Y-100857142D01*
X124057142Y-100785714D01*
X123985714Y-100642857D01*
X123985714Y-100071428D01*
X123342857Y-102142857D02*
X123271428Y-102000000D01*
X123271428Y-101714285D01*
X123342857Y-101571428D01*
X123485714Y-101500000D01*
X124057142Y-101500000D01*
X124200000Y-101571428D01*
X124271428Y-101714285D01*
X124271428Y-102000000D01*
X124200000Y-102142857D01*
X124057142Y-102214285D01*
X123914285Y-102214285D01*
X123771428Y-101500000D01*
X123342857Y-103500000D02*
X123271428Y-103357142D01*
X123271428Y-103071428D01*
X123342857Y-102928571D01*
X123414285Y-102857142D01*
X123557142Y-102785714D01*
X123985714Y-102785714D01*
X124128571Y-102857142D01*
X124200000Y-102928571D01*
X124271428Y-103071428D01*
X124271428Y-103357142D01*
X124200000Y-103500000D01*
X123271428Y-104142857D02*
X124271428Y-104142857D01*
X124771428Y-104142857D02*
X124700000Y-104071428D01*
X124628571Y-104142857D01*
X124700000Y-104214285D01*
X124771428Y-104142857D01*
X124628571Y-104142857D01*
X124271428Y-104714285D02*
X123271428Y-105071428D01*
X124271428Y-105428571D01*
X123342857Y-106571428D02*
X123271428Y-106428571D01*
X123271428Y-106142857D01*
X123342857Y-106000000D01*
X123485714Y-105928571D01*
X124057142Y-105928571D01*
X124200000Y-106000000D01*
X124271428Y-106142857D01*
X124271428Y-106428571D01*
X124200000Y-106571428D01*
X124057142Y-106642857D01*
X123914285Y-106642857D01*
X123771428Y-105928571D01*
X123271428Y-107285714D02*
X124271428Y-107285714D01*
X123985714Y-107285714D02*
X124128571Y-107357142D01*
X124200000Y-107428571D01*
X124271428Y-107571428D01*
X124271428Y-107714285D01*
X120721428Y-94321428D02*
X122221428Y-94321428D01*
X121150000Y-94821428D01*
X122221428Y-95321428D01*
X120721428Y-95321428D01*
X120721428Y-96678571D02*
X121507142Y-96678571D01*
X121650000Y-96607142D01*
X121721428Y-96464285D01*
X121721428Y-96178571D01*
X121650000Y-96035714D01*
X120792857Y-96678571D02*
X120721428Y-96535714D01*
X120721428Y-96178571D01*
X120792857Y-96035714D01*
X120935714Y-95964285D01*
X121078571Y-95964285D01*
X121221428Y-96035714D01*
X121292857Y-96178571D01*
X121292857Y-96535714D01*
X121364285Y-96678571D01*
X120721428Y-97250000D02*
X121721428Y-98035714D01*
X121721428Y-97250000D02*
X120721428Y-98035714D01*
X121507142Y-99750000D02*
X121507142Y-100250000D01*
X120721428Y-100464285D02*
X120721428Y-99750000D01*
X122221428Y-99750000D01*
X122221428Y-100464285D01*
X120721428Y-100964285D02*
X121721428Y-101750000D01*
X121721428Y-100964285D02*
X120721428Y-101750000D01*
X121721428Y-102321428D02*
X120221428Y-102321428D01*
X121650000Y-102321428D02*
X121721428Y-102464285D01*
X121721428Y-102750000D01*
X121650000Y-102892857D01*
X121578571Y-102964285D01*
X121435714Y-103035714D01*
X121007142Y-103035714D01*
X120864285Y-102964285D01*
X120792857Y-102892857D01*
X120721428Y-102750000D01*
X120721428Y-102464285D01*
X120792857Y-102321428D01*
X121721428Y-104678571D02*
X120721428Y-105035714D01*
X121721428Y-105392857D01*
X120721428Y-106750000D02*
X120721428Y-105892857D01*
X120721428Y-106321428D02*
X122221428Y-106321428D01*
X122007142Y-106178571D01*
X121864285Y-106035714D01*
X121792857Y-105892857D01*
X118171428Y-91464285D02*
X119671428Y-91464285D01*
X119100000Y-91464285D02*
X119171428Y-91607142D01*
X119171428Y-91892857D01*
X119100000Y-92035714D01*
X119028571Y-92107142D01*
X118885714Y-92178571D01*
X118457142Y-92178571D01*
X118314285Y-92107142D01*
X118242857Y-92035714D01*
X118171428Y-91892857D01*
X118171428Y-91607142D01*
X118242857Y-91464285D01*
X119171428Y-92678571D02*
X118171428Y-93035714D01*
X119171428Y-93392857D02*
X118171428Y-93035714D01*
X117814285Y-92892857D01*
X117742857Y-92821428D01*
X117671428Y-92678571D01*
X118242857Y-95035714D02*
X118171428Y-95250000D01*
X118171428Y-95607142D01*
X118242857Y-95750000D01*
X118314285Y-95821428D01*
X118457142Y-95892857D01*
X118600000Y-95892857D01*
X118742857Y-95821428D01*
X118814285Y-95750000D01*
X118885714Y-95607142D01*
X118957142Y-95321428D01*
X119028571Y-95178571D01*
X119100000Y-95107142D01*
X119242857Y-95035714D01*
X119385714Y-95035714D01*
X119528571Y-95107142D01*
X119600000Y-95178571D01*
X119671428Y-95321428D01*
X119671428Y-95678571D01*
X119600000Y-95892857D01*
X118242857Y-97178571D02*
X118171428Y-97035714D01*
X118171428Y-96750000D01*
X118242857Y-96607142D01*
X118314285Y-96535714D01*
X118457142Y-96464285D01*
X118885714Y-96464285D01*
X119028571Y-96535714D01*
X119100000Y-96607142D01*
X119171428Y-96750000D01*
X119171428Y-97035714D01*
X119100000Y-97178571D01*
X118171428Y-98035714D02*
X118242857Y-97892857D01*
X118314285Y-97821428D01*
X118457142Y-97750000D01*
X118885714Y-97750000D01*
X119028571Y-97821428D01*
X119100000Y-97892857D01*
X119171428Y-98035714D01*
X119171428Y-98250000D01*
X119100000Y-98392857D01*
X119028571Y-98464285D01*
X118885714Y-98535714D01*
X118457142Y-98535714D01*
X118314285Y-98464285D01*
X118242857Y-98392857D01*
X118171428Y-98250000D01*
X118171428Y-98035714D01*
X119171428Y-98964285D02*
X119171428Y-99535714D01*
X119671428Y-99178571D02*
X118385714Y-99178571D01*
X118242857Y-99250000D01*
X118171428Y-99392857D01*
X118171428Y-99535714D01*
X119171428Y-99821428D02*
X119171428Y-100392857D01*
X119671428Y-100035714D02*
X118385714Y-100035714D01*
X118242857Y-100107142D01*
X118171428Y-100250000D01*
X118171428Y-100392857D01*
X118171428Y-102035714D02*
X119671428Y-102035714D01*
X118957142Y-102035714D02*
X118957142Y-102892857D01*
X118171428Y-102892857D02*
X119671428Y-102892857D01*
X118171428Y-104250000D02*
X118957142Y-104250000D01*
X119100000Y-104178571D01*
X119171428Y-104035714D01*
X119171428Y-103750000D01*
X119100000Y-103607142D01*
X118242857Y-104250000D02*
X118171428Y-104107142D01*
X118171428Y-103750000D01*
X118242857Y-103607142D01*
X118385714Y-103535714D01*
X118528571Y-103535714D01*
X118671428Y-103607142D01*
X118742857Y-103750000D01*
X118742857Y-104107142D01*
X118814285Y-104250000D01*
X119171428Y-104964285D02*
X118171428Y-104964285D01*
X119028571Y-104964285D02*
X119100000Y-105035714D01*
X119171428Y-105178571D01*
X119171428Y-105392857D01*
X119100000Y-105535714D01*
X118957142Y-105607142D01*
X118171428Y-105607142D01*
X118242857Y-106249999D02*
X118171428Y-106392857D01*
X118171428Y-106678571D01*
X118242857Y-106821428D01*
X118385714Y-106892857D01*
X118457142Y-106892857D01*
X118600000Y-106821428D01*
X118671428Y-106678571D01*
X118671428Y-106464285D01*
X118742857Y-106321428D01*
X118885714Y-106249999D01*
X118957142Y-106249999D01*
X119100000Y-106321428D01*
X119171428Y-106464285D01*
X119171428Y-106678571D01*
X119100000Y-106821428D01*
X118171428Y-107749999D02*
X118242857Y-107607142D01*
X118314285Y-107535714D01*
X118457142Y-107464285D01*
X118885714Y-107464285D01*
X119028571Y-107535714D01*
X119100000Y-107607142D01*
X119171428Y-107749999D01*
X119171428Y-107964285D01*
X119100000Y-108107142D01*
X119028571Y-108178571D01*
X118885714Y-108250000D01*
X118457142Y-108250000D01*
X118314285Y-108178571D01*
X118242857Y-108107142D01*
X118171428Y-107964285D01*
X118171428Y-107749999D01*
X119171428Y-108892857D02*
X118171428Y-108892857D01*
X119028571Y-108892857D02*
X119100000Y-108964285D01*
X119171428Y-109107142D01*
X119171428Y-109321428D01*
X119100000Y-109464285D01*
X118957142Y-109535714D01*
X118171428Y-109535714D01*
D12*
X143442857Y-64652380D02*
X143776190Y-65652380D01*
X144109523Y-64652380D01*
X144585714Y-65652380D02*
X144490476Y-65604761D01*
X144442857Y-65557142D01*
X144395238Y-65461904D01*
X144395238Y-65176190D01*
X144442857Y-65080952D01*
X144490476Y-65033333D01*
X144585714Y-64985714D01*
X144728571Y-64985714D01*
X144823809Y-65033333D01*
X144871428Y-65080952D01*
X144919047Y-65176190D01*
X144919047Y-65461904D01*
X144871428Y-65557142D01*
X144823809Y-65604761D01*
X144728571Y-65652380D01*
X144585714Y-65652380D01*
X145490476Y-65652380D02*
X145395238Y-65604761D01*
X145347619Y-65509523D01*
X145347619Y-64652380D01*
X145728571Y-64985714D02*
X146109523Y-64985714D01*
X145871428Y-64652380D02*
X145871428Y-65509523D01*
X145919047Y-65604761D01*
X146014285Y-65652380D01*
X146109523Y-65652380D01*
X146871428Y-65652380D02*
X146871428Y-65128571D01*
X146823809Y-65033333D01*
X146728571Y-64985714D01*
X146538095Y-64985714D01*
X146442857Y-65033333D01*
X146871428Y-65604761D02*
X146776190Y-65652380D01*
X146538095Y-65652380D01*
X146442857Y-65604761D01*
X146395238Y-65509523D01*
X146395238Y-65414285D01*
X146442857Y-65319047D01*
X146538095Y-65271428D01*
X146776190Y-65271428D01*
X146871428Y-65223809D01*
X147776190Y-64985714D02*
X147776190Y-65795238D01*
X147728571Y-65890476D01*
X147680952Y-65938095D01*
X147585714Y-65985714D01*
X147442857Y-65985714D01*
X147347619Y-65938095D01*
X147776190Y-65604761D02*
X147680952Y-65652380D01*
X147490476Y-65652380D01*
X147395238Y-65604761D01*
X147347619Y-65557142D01*
X147300000Y-65461904D01*
X147300000Y-65176190D01*
X147347619Y-65080952D01*
X147395238Y-65033333D01*
X147490476Y-64985714D01*
X147680952Y-64985714D01*
X147776190Y-65033333D01*
X148633333Y-65604761D02*
X148538095Y-65652380D01*
X148347619Y-65652380D01*
X148252380Y-65604761D01*
X148204761Y-65509523D01*
X148204761Y-65128571D01*
X148252380Y-65033333D01*
X148347619Y-64985714D01*
X148538095Y-64985714D01*
X148633333Y-65033333D01*
X148680952Y-65128571D01*
X148680952Y-65223809D01*
X148204761Y-65319047D01*
X149823809Y-65604761D02*
X149966666Y-65652380D01*
X150204761Y-65652380D01*
X150300000Y-65604761D01*
X150347619Y-65557142D01*
X150395238Y-65461904D01*
X150395238Y-65366666D01*
X150347619Y-65271428D01*
X150300000Y-65223809D01*
X150204761Y-65176190D01*
X150014285Y-65128571D01*
X149919047Y-65080952D01*
X149871428Y-65033333D01*
X149823809Y-64938095D01*
X149823809Y-64842857D01*
X149871428Y-64747619D01*
X149919047Y-64700000D01*
X150014285Y-64652380D01*
X150252380Y-64652380D01*
X150395238Y-64700000D01*
X151204761Y-65604761D02*
X151109523Y-65652380D01*
X150919047Y-65652380D01*
X150823809Y-65604761D01*
X150776190Y-65509523D01*
X150776190Y-65128571D01*
X150823809Y-65033333D01*
X150919047Y-64985714D01*
X151109523Y-64985714D01*
X151204761Y-65033333D01*
X151252380Y-65128571D01*
X151252380Y-65223809D01*
X150776190Y-65319047D01*
X151823809Y-65652380D02*
X151728571Y-65604761D01*
X151680952Y-65509523D01*
X151680952Y-64652380D01*
X152585714Y-65604761D02*
X152490476Y-65652380D01*
X152300000Y-65652380D01*
X152204761Y-65604761D01*
X152157142Y-65509523D01*
X152157142Y-65128571D01*
X152204761Y-65033333D01*
X152300000Y-64985714D01*
X152490476Y-64985714D01*
X152585714Y-65033333D01*
X152633333Y-65128571D01*
X152633333Y-65223809D01*
X152157142Y-65319047D01*
X153490476Y-65604761D02*
X153395238Y-65652380D01*
X153204761Y-65652380D01*
X153109523Y-65604761D01*
X153061904Y-65557142D01*
X153014285Y-65461904D01*
X153014285Y-65176190D01*
X153061904Y-65080952D01*
X153109523Y-65033333D01*
X153204761Y-64985714D01*
X153395238Y-64985714D01*
X153490476Y-65033333D01*
X153776190Y-64985714D02*
X154157142Y-64985714D01*
X153919047Y-64652380D02*
X153919047Y-65509523D01*
X153966666Y-65604761D01*
X154061904Y-65652380D01*
X154157142Y-65652380D01*
D11*
X150171428Y-61078571D02*
X149314285Y-61078571D01*
X149742857Y-61078571D02*
X149742857Y-59578571D01*
X149600000Y-59792857D01*
X149457142Y-59935714D01*
X149314285Y-60007142D01*
X150742857Y-59721428D02*
X150814285Y-59650000D01*
X150957142Y-59578571D01*
X151314285Y-59578571D01*
X151457142Y-59650000D01*
X151528571Y-59721428D01*
X151600000Y-59864285D01*
X151600000Y-60007142D01*
X151528571Y-60221428D01*
X150671428Y-61078571D01*
X151600000Y-61078571D01*
X152028571Y-59578571D02*
X152528571Y-61078571D01*
X153028571Y-59578571D01*
X146414285Y-59678571D02*
X145700000Y-59678571D01*
X145628571Y-60392857D01*
X145700000Y-60321428D01*
X145842857Y-60250000D01*
X146200000Y-60250000D01*
X146342857Y-60321428D01*
X146414285Y-60392857D01*
X146485714Y-60535714D01*
X146485714Y-60892857D01*
X146414285Y-61035714D01*
X146342857Y-61107142D01*
X146200000Y-61178571D01*
X145842857Y-61178571D01*
X145700000Y-61107142D01*
X145628571Y-61035714D01*
X146914285Y-59678571D02*
X147414285Y-61178571D01*
X147914285Y-59678571D01*
X133928571Y-59907142D02*
X135071428Y-59907142D01*
X134500000Y-60478571D02*
X134500000Y-59335714D01*
X130328571Y-59907142D02*
X131471428Y-59907142D01*
D13*
%TO.C,J4*%
X198670000Y-109560000D02*
X201330000Y-109560000D01*
X198670000Y-96800000D02*
X198670000Y-109560000D01*
X201330000Y-96800000D02*
X201330000Y-109560000D01*
X198670000Y-96800000D02*
X201330000Y-96800000D01*
X198670000Y-95530000D02*
X198670000Y-94200000D01*
X198670000Y-94200000D02*
X200000000Y-94200000D01*
%TO.C,J3*%
X198670000Y-87030000D02*
X201330000Y-87030000D01*
X198670000Y-74270000D02*
X198670000Y-87030000D01*
X201330000Y-74270000D02*
X201330000Y-87030000D01*
X198670000Y-74270000D02*
X201330000Y-74270000D01*
X198670000Y-73000000D02*
X198670000Y-71670000D01*
X198670000Y-71670000D02*
X200000000Y-71670000D01*
%TO.C,J2*%
X135090000Y-119290000D02*
X135090000Y-110170000D01*
X135090000Y-110170000D02*
X193770000Y-110170000D01*
X193770000Y-110170000D02*
X193770000Y-119290000D01*
X193770000Y-119290000D02*
X135090000Y-119290000D01*
X162380000Y-119290000D02*
X162380000Y-117980000D01*
X162380000Y-117980000D02*
X136390000Y-117980000D01*
X136390000Y-117980000D02*
X136390000Y-111480000D01*
X136390000Y-111480000D02*
X192470000Y-111480000D01*
X192470000Y-111480000D02*
X192470000Y-117980000D01*
X192470000Y-117980000D02*
X166480000Y-117980000D01*
X166480000Y-117980000D02*
X166480000Y-117980000D01*
X166480000Y-117980000D02*
X166480000Y-119290000D01*
X140300000Y-119680000D02*
X139800000Y-120680000D01*
X139800000Y-120680000D02*
X140800000Y-120680000D01*
X140800000Y-120680000D02*
X140300000Y-119680000D01*
D14*
%TO.C,J1*%
X136605480Y-60849480D02*
X128995480Y-60849480D01*
X128995480Y-60849480D02*
X128995480Y-68149480D01*
X128995480Y-68149480D02*
X136605480Y-68149480D01*
X136605480Y-68149480D02*
X136605480Y-60849480D01*
D15*
%TO.C,A1*%
X188980000Y-71340000D02*
G75*
G03*
X188980000Y-71340000I-200000J0D01*
G01*
D16*
X145855000Y-90770000D02*
X145855000Y-72230000D01*
X196145000Y-90770000D02*
X145855000Y-90770000D01*
X196145000Y-72230000D02*
X196145000Y-90770000D01*
X145855000Y-72230000D02*
X196145000Y-72230000D01*
D13*
%TO.C,C14*%
X175620000Y-105120000D02*
X173380000Y-105120000D01*
X175620000Y-97880000D02*
X173380000Y-97880000D01*
X173380000Y-97880000D02*
X173380000Y-105120000D01*
X175620000Y-97880000D02*
X175620000Y-105120000D01*
%TO.C,C3*%
X187620000Y-91380000D02*
X187620000Y-93620000D01*
X180380000Y-91380000D02*
X180380000Y-93620000D01*
X180380000Y-93620000D02*
X187620000Y-93620000D01*
X180380000Y-91380000D02*
X187620000Y-91380000D01*
%TO.C,U7*%
X176670000Y-99940000D02*
X176670000Y-101190000D01*
X194570000Y-99940000D02*
X176670000Y-99940000D01*
X194570000Y-104440000D02*
X194570000Y-99940000D01*
X176670000Y-104440000D02*
X194570000Y-104440000D01*
X176670000Y-103190000D02*
X176670000Y-104440000D01*
X176670000Y-101190000D02*
G75*
G02*
X176670000Y-103190000I0J-1000000D01*
G01*
%TO.C,U6*%
X153670000Y-99940000D02*
X153670000Y-101190000D01*
X171570000Y-99940000D02*
X153670000Y-99940000D01*
X171570000Y-104440000D02*
X171570000Y-99940000D01*
X153670000Y-104440000D02*
X171570000Y-104440000D01*
X153670000Y-103190000D02*
X153670000Y-104440000D01*
X153670000Y-101190000D02*
G75*
G02*
X153670000Y-103190000I0J-1000000D01*
G01*
%TO.C,U5*%
X130970000Y-99940000D02*
X130970000Y-101190000D01*
X148870000Y-99940000D02*
X130970000Y-99940000D01*
X148870000Y-104440000D02*
X148870000Y-99940000D01*
X130970000Y-104440000D02*
X148870000Y-104440000D01*
X130970000Y-103190000D02*
X130970000Y-104440000D01*
X130970000Y-101190000D02*
G75*
G02*
X130970000Y-103190000I0J-1000000D01*
G01*
%TO.C,U3*%
X141560000Y-72670000D02*
X140310000Y-72670000D01*
X141560000Y-93110000D02*
X141560000Y-72670000D01*
X137060000Y-93110000D02*
X141560000Y-93110000D01*
X137060000Y-72670000D02*
X137060000Y-93110000D01*
X138310000Y-72670000D02*
X137060000Y-72670000D01*
X140310000Y-72670000D02*
G75*
G02*
X138310000Y-72670000I-1000000J0D01*
G01*
%TO.C,RN4*%
X133400000Y-75270000D02*
X130600000Y-75270000D01*
X133400000Y-93220000D02*
X133400000Y-72560000D01*
X130600000Y-93220000D02*
X133400000Y-93220000D01*
X130600000Y-72560000D02*
X130600000Y-93220000D01*
X133400000Y-72560000D02*
X130600000Y-72560000D01*
%TO.C,R5*%
X182080000Y-70370000D02*
X182080000Y-70040000D01*
X175540000Y-70370000D02*
X182080000Y-70370000D01*
X175540000Y-70040000D02*
X175540000Y-70370000D01*
X182080000Y-67630000D02*
X182080000Y-67960000D01*
X175540000Y-67630000D02*
X182080000Y-67630000D01*
X175540000Y-67960000D02*
X175540000Y-67630000D01*
%TO.C,R3*%
X144920000Y-66230000D02*
X144920000Y-66560000D01*
X151460000Y-66230000D02*
X144920000Y-66230000D01*
X151460000Y-66560000D02*
X151460000Y-66230000D01*
X144920000Y-68970000D02*
X144920000Y-68640000D01*
X151460000Y-68970000D02*
X144920000Y-68970000D01*
X151460000Y-68640000D02*
X151460000Y-68970000D01*
%TO.C,F13*%
X190750000Y-66250000D02*
X182150000Y-66250000D01*
X190750000Y-66250000D02*
X190750000Y-62150000D01*
X182150000Y-66250000D02*
X182150000Y-62150000D01*
X190750000Y-62150000D02*
X182150000Y-62150000D01*
%TO.C,D5*%
X185710000Y-70080000D02*
X185710000Y-70236000D01*
X185710000Y-67764000D02*
X185710000Y-67920000D01*
X188311130Y-70079837D02*
G75*
G02*
X186229039Y-70080000I-1041130J1079837D01*
G01*
X188311130Y-67920163D02*
G75*
G03*
X186229039Y-67920000I-1041130J-1079837D01*
G01*
X188942335Y-70078608D02*
G75*
G02*
X185710000Y-70235516I-1672335J1078608D01*
G01*
X188942335Y-67921392D02*
G75*
G03*
X185710000Y-67764484I-1672335J-1078608D01*
G01*
%TO.C,D3*%
X141080000Y-67890000D02*
X141236000Y-67890000D01*
X138764000Y-67890000D02*
X138920000Y-67890000D01*
X141079837Y-65288870D02*
G75*
G02*
X141080000Y-67370961I-1079837J-1041130D01*
G01*
X138920163Y-65288870D02*
G75*
G03*
X138920000Y-67370961I1079837J-1041130D01*
G01*
X141078608Y-64657665D02*
G75*
G02*
X141235516Y-67890000I-1078608J-1672335D01*
G01*
X138921392Y-64657665D02*
G75*
G03*
X138764484Y-67890000I1078608J-1672335D01*
G01*
%TO.C,C13*%
X152620000Y-105120000D02*
X150380000Y-105120000D01*
X152620000Y-97880000D02*
X150380000Y-97880000D01*
X150380000Y-97880000D02*
X150380000Y-105120000D01*
X152620000Y-97880000D02*
X152620000Y-105120000D01*
%TO.C,C12*%
X129920000Y-105120000D02*
X127680000Y-105120000D01*
X129920000Y-97880000D02*
X127680000Y-97880000D01*
X127680000Y-97880000D02*
X127680000Y-105120000D01*
X129920000Y-97880000D02*
X129920000Y-105120000D01*
%TO.C,C4*%
X137380000Y-72120000D02*
X137380000Y-69880000D01*
X144620000Y-72120000D02*
X144620000Y-69880000D01*
X144620000Y-69880000D02*
X137380000Y-69880000D01*
X144620000Y-72120000D02*
X137380000Y-72120000D01*
%TO.C,C2*%
X179725000Y-61445225D02*
X179225000Y-61445225D01*
X179475000Y-61195225D02*
X179475000Y-61695225D01*
X178284000Y-66601000D02*
X177716000Y-66601000D01*
X178518000Y-66561000D02*
X177482000Y-66561000D01*
X178677000Y-66521000D02*
X177323000Y-66521000D01*
X178805000Y-66481000D02*
X177195000Y-66481000D01*
X178915000Y-66441000D02*
X177085000Y-66441000D01*
X179011000Y-66401000D02*
X176989000Y-66401000D01*
X179098000Y-66361000D02*
X176902000Y-66361000D01*
X179178000Y-66321000D02*
X176822000Y-66321000D01*
X179251000Y-66281000D02*
X176749000Y-66281000D01*
X179319000Y-66241000D02*
X176681000Y-66241000D01*
X179383000Y-66201000D02*
X176617000Y-66201000D01*
X179443000Y-66161000D02*
X176557000Y-66161000D01*
X179500000Y-66121000D02*
X176500000Y-66121000D01*
X179554000Y-66081000D02*
X176446000Y-66081000D01*
X179605000Y-66041000D02*
X176395000Y-66041000D01*
X176960000Y-66001000D02*
X176347000Y-66001000D01*
X179653000Y-66001000D02*
X179040000Y-66001000D01*
X176960000Y-65961000D02*
X176301000Y-65961000D01*
X179699000Y-65961000D02*
X179040000Y-65961000D01*
X176960000Y-65921000D02*
X176257000Y-65921000D01*
X179743000Y-65921000D02*
X179040000Y-65921000D01*
X176960000Y-65881000D02*
X176215000Y-65881000D01*
X179785000Y-65881000D02*
X179040000Y-65881000D01*
X176960000Y-65841000D02*
X176174000Y-65841000D01*
X179826000Y-65841000D02*
X179040000Y-65841000D01*
X176960000Y-65801000D02*
X176136000Y-65801000D01*
X179864000Y-65801000D02*
X179040000Y-65801000D01*
X176960000Y-65761000D02*
X176099000Y-65761000D01*
X179901000Y-65761000D02*
X179040000Y-65761000D01*
X176960000Y-65721000D02*
X176063000Y-65721000D01*
X179937000Y-65721000D02*
X179040000Y-65721000D01*
X176960000Y-65681000D02*
X176029000Y-65681000D01*
X179971000Y-65681000D02*
X179040000Y-65681000D01*
X176960000Y-65641000D02*
X175996000Y-65641000D01*
X180004000Y-65641000D02*
X179040000Y-65641000D01*
X176960000Y-65601000D02*
X175965000Y-65601000D01*
X180035000Y-65601000D02*
X179040000Y-65601000D01*
X176960000Y-65561000D02*
X175935000Y-65561000D01*
X180065000Y-65561000D02*
X179040000Y-65561000D01*
X176960000Y-65521000D02*
X175905000Y-65521000D01*
X180095000Y-65521000D02*
X179040000Y-65521000D01*
X176960000Y-65481000D02*
X175878000Y-65481000D01*
X180122000Y-65481000D02*
X179040000Y-65481000D01*
X176960000Y-65441000D02*
X175851000Y-65441000D01*
X180149000Y-65441000D02*
X179040000Y-65441000D01*
X176960000Y-65401000D02*
X175825000Y-65401000D01*
X180175000Y-65401000D02*
X179040000Y-65401000D01*
X176960000Y-65361000D02*
X175800000Y-65361000D01*
X180200000Y-65361000D02*
X179040000Y-65361000D01*
X176960000Y-65321000D02*
X175776000Y-65321000D01*
X180224000Y-65321000D02*
X179040000Y-65321000D01*
X176960000Y-65281000D02*
X175753000Y-65281000D01*
X180247000Y-65281000D02*
X179040000Y-65281000D01*
X176960000Y-65241000D02*
X175732000Y-65241000D01*
X180268000Y-65241000D02*
X179040000Y-65241000D01*
X176960000Y-65201000D02*
X175710000Y-65201000D01*
X180290000Y-65201000D02*
X179040000Y-65201000D01*
X176960000Y-65161000D02*
X175690000Y-65161000D01*
X180310000Y-65161000D02*
X179040000Y-65161000D01*
X176960000Y-65121000D02*
X175671000Y-65121000D01*
X180329000Y-65121000D02*
X179040000Y-65121000D01*
X176960000Y-65081000D02*
X175652000Y-65081000D01*
X180348000Y-65081000D02*
X179040000Y-65081000D01*
X176960000Y-65041000D02*
X175635000Y-65041000D01*
X180365000Y-65041000D02*
X179040000Y-65041000D01*
X176960000Y-65001000D02*
X175618000Y-65001000D01*
X180382000Y-65001000D02*
X179040000Y-65001000D01*
X176960000Y-64961000D02*
X175602000Y-64961000D01*
X180398000Y-64961000D02*
X179040000Y-64961000D01*
X176960000Y-64921000D02*
X175586000Y-64921000D01*
X180414000Y-64921000D02*
X179040000Y-64921000D01*
X176960000Y-64881000D02*
X175572000Y-64881000D01*
X180428000Y-64881000D02*
X179040000Y-64881000D01*
X176960000Y-64841000D02*
X175558000Y-64841000D01*
X180442000Y-64841000D02*
X179040000Y-64841000D01*
X176960000Y-64801000D02*
X175545000Y-64801000D01*
X180455000Y-64801000D02*
X179040000Y-64801000D01*
X176960000Y-64761000D02*
X175532000Y-64761000D01*
X180468000Y-64761000D02*
X179040000Y-64761000D01*
X176960000Y-64721000D02*
X175520000Y-64721000D01*
X180480000Y-64721000D02*
X179040000Y-64721000D01*
X176960000Y-64680000D02*
X175509000Y-64680000D01*
X180491000Y-64680000D02*
X179040000Y-64680000D01*
X176960000Y-64640000D02*
X175499000Y-64640000D01*
X180501000Y-64640000D02*
X179040000Y-64640000D01*
X176960000Y-64600000D02*
X175489000Y-64600000D01*
X180511000Y-64600000D02*
X179040000Y-64600000D01*
X176960000Y-64560000D02*
X175480000Y-64560000D01*
X180520000Y-64560000D02*
X179040000Y-64560000D01*
X176960000Y-64520000D02*
X175472000Y-64520000D01*
X180528000Y-64520000D02*
X179040000Y-64520000D01*
X176960000Y-64480000D02*
X175464000Y-64480000D01*
X180536000Y-64480000D02*
X179040000Y-64480000D01*
X176960000Y-64440000D02*
X175457000Y-64440000D01*
X180543000Y-64440000D02*
X179040000Y-64440000D01*
X176960000Y-64400000D02*
X175450000Y-64400000D01*
X180550000Y-64400000D02*
X179040000Y-64400000D01*
X176960000Y-64360000D02*
X175444000Y-64360000D01*
X180556000Y-64360000D02*
X179040000Y-64360000D01*
X176960000Y-64320000D02*
X175439000Y-64320000D01*
X180561000Y-64320000D02*
X179040000Y-64320000D01*
X176960000Y-64280000D02*
X175435000Y-64280000D01*
X180565000Y-64280000D02*
X179040000Y-64280000D01*
X176960000Y-64240000D02*
X175431000Y-64240000D01*
X180569000Y-64240000D02*
X179040000Y-64240000D01*
X176960000Y-64200000D02*
X175427000Y-64200000D01*
X180573000Y-64200000D02*
X179040000Y-64200000D01*
X176960000Y-64160000D02*
X175424000Y-64160000D01*
X180576000Y-64160000D02*
X179040000Y-64160000D01*
X176960000Y-64120000D02*
X175422000Y-64120000D01*
X180578000Y-64120000D02*
X179040000Y-64120000D01*
X176960000Y-64080000D02*
X175421000Y-64080000D01*
X180579000Y-64080000D02*
X179040000Y-64080000D01*
X180580000Y-64040000D02*
X179040000Y-64040000D01*
X176960000Y-64040000D02*
X175420000Y-64040000D01*
X180580000Y-64000000D02*
X179040000Y-64000000D01*
X176960000Y-64000000D02*
X175420000Y-64000000D01*
X180620000Y-64000000D02*
G75*
G03*
X180620000Y-64000000I-2620000J0D01*
G01*
%TO.C,C1*%
X160725000Y-61445225D02*
X160225000Y-61445225D01*
X160475000Y-61195225D02*
X160475000Y-61695225D01*
X159284000Y-66601000D02*
X158716000Y-66601000D01*
X159518000Y-66561000D02*
X158482000Y-66561000D01*
X159677000Y-66521000D02*
X158323000Y-66521000D01*
X159805000Y-66481000D02*
X158195000Y-66481000D01*
X159915000Y-66441000D02*
X158085000Y-66441000D01*
X160011000Y-66401000D02*
X157989000Y-66401000D01*
X160098000Y-66361000D02*
X157902000Y-66361000D01*
X160178000Y-66321000D02*
X157822000Y-66321000D01*
X160251000Y-66281000D02*
X157749000Y-66281000D01*
X160319000Y-66241000D02*
X157681000Y-66241000D01*
X160383000Y-66201000D02*
X157617000Y-66201000D01*
X160443000Y-66161000D02*
X157557000Y-66161000D01*
X160500000Y-66121000D02*
X157500000Y-66121000D01*
X160554000Y-66081000D02*
X157446000Y-66081000D01*
X160605000Y-66041000D02*
X157395000Y-66041000D01*
X157960000Y-66001000D02*
X157347000Y-66001000D01*
X160653000Y-66001000D02*
X160040000Y-66001000D01*
X157960000Y-65961000D02*
X157301000Y-65961000D01*
X160699000Y-65961000D02*
X160040000Y-65961000D01*
X157960000Y-65921000D02*
X157257000Y-65921000D01*
X160743000Y-65921000D02*
X160040000Y-65921000D01*
X157960000Y-65881000D02*
X157215000Y-65881000D01*
X160785000Y-65881000D02*
X160040000Y-65881000D01*
X157960000Y-65841000D02*
X157174000Y-65841000D01*
X160826000Y-65841000D02*
X160040000Y-65841000D01*
X157960000Y-65801000D02*
X157136000Y-65801000D01*
X160864000Y-65801000D02*
X160040000Y-65801000D01*
X157960000Y-65761000D02*
X157099000Y-65761000D01*
X160901000Y-65761000D02*
X160040000Y-65761000D01*
X157960000Y-65721000D02*
X157063000Y-65721000D01*
X160937000Y-65721000D02*
X160040000Y-65721000D01*
X157960000Y-65681000D02*
X157029000Y-65681000D01*
X160971000Y-65681000D02*
X160040000Y-65681000D01*
X157960000Y-65641000D02*
X156996000Y-65641000D01*
X161004000Y-65641000D02*
X160040000Y-65641000D01*
X157960000Y-65601000D02*
X156965000Y-65601000D01*
X161035000Y-65601000D02*
X160040000Y-65601000D01*
X157960000Y-65561000D02*
X156935000Y-65561000D01*
X161065000Y-65561000D02*
X160040000Y-65561000D01*
X157960000Y-65521000D02*
X156905000Y-65521000D01*
X161095000Y-65521000D02*
X160040000Y-65521000D01*
X157960000Y-65481000D02*
X156878000Y-65481000D01*
X161122000Y-65481000D02*
X160040000Y-65481000D01*
X157960000Y-65441000D02*
X156851000Y-65441000D01*
X161149000Y-65441000D02*
X160040000Y-65441000D01*
X157960000Y-65401000D02*
X156825000Y-65401000D01*
X161175000Y-65401000D02*
X160040000Y-65401000D01*
X157960000Y-65361000D02*
X156800000Y-65361000D01*
X161200000Y-65361000D02*
X160040000Y-65361000D01*
X157960000Y-65321000D02*
X156776000Y-65321000D01*
X161224000Y-65321000D02*
X160040000Y-65321000D01*
X157960000Y-65281000D02*
X156753000Y-65281000D01*
X161247000Y-65281000D02*
X160040000Y-65281000D01*
X157960000Y-65241000D02*
X156732000Y-65241000D01*
X161268000Y-65241000D02*
X160040000Y-65241000D01*
X157960000Y-65201000D02*
X156710000Y-65201000D01*
X161290000Y-65201000D02*
X160040000Y-65201000D01*
X157960000Y-65161000D02*
X156690000Y-65161000D01*
X161310000Y-65161000D02*
X160040000Y-65161000D01*
X157960000Y-65121000D02*
X156671000Y-65121000D01*
X161329000Y-65121000D02*
X160040000Y-65121000D01*
X157960000Y-65081000D02*
X156652000Y-65081000D01*
X161348000Y-65081000D02*
X160040000Y-65081000D01*
X157960000Y-65041000D02*
X156635000Y-65041000D01*
X161365000Y-65041000D02*
X160040000Y-65041000D01*
X157960000Y-65001000D02*
X156618000Y-65001000D01*
X161382000Y-65001000D02*
X160040000Y-65001000D01*
X157960000Y-64961000D02*
X156602000Y-64961000D01*
X161398000Y-64961000D02*
X160040000Y-64961000D01*
X157960000Y-64921000D02*
X156586000Y-64921000D01*
X161414000Y-64921000D02*
X160040000Y-64921000D01*
X157960000Y-64881000D02*
X156572000Y-64881000D01*
X161428000Y-64881000D02*
X160040000Y-64881000D01*
X157960000Y-64841000D02*
X156558000Y-64841000D01*
X161442000Y-64841000D02*
X160040000Y-64841000D01*
X157960000Y-64801000D02*
X156545000Y-64801000D01*
X161455000Y-64801000D02*
X160040000Y-64801000D01*
X157960000Y-64761000D02*
X156532000Y-64761000D01*
X161468000Y-64761000D02*
X160040000Y-64761000D01*
X157960000Y-64721000D02*
X156520000Y-64721000D01*
X161480000Y-64721000D02*
X160040000Y-64721000D01*
X157960000Y-64680000D02*
X156509000Y-64680000D01*
X161491000Y-64680000D02*
X160040000Y-64680000D01*
X157960000Y-64640000D02*
X156499000Y-64640000D01*
X161501000Y-64640000D02*
X160040000Y-64640000D01*
X157960000Y-64600000D02*
X156489000Y-64600000D01*
X161511000Y-64600000D02*
X160040000Y-64600000D01*
X157960000Y-64560000D02*
X156480000Y-64560000D01*
X161520000Y-64560000D02*
X160040000Y-64560000D01*
X157960000Y-64520000D02*
X156472000Y-64520000D01*
X161528000Y-64520000D02*
X160040000Y-64520000D01*
X157960000Y-64480000D02*
X156464000Y-64480000D01*
X161536000Y-64480000D02*
X160040000Y-64480000D01*
X157960000Y-64440000D02*
X156457000Y-64440000D01*
X161543000Y-64440000D02*
X160040000Y-64440000D01*
X157960000Y-64400000D02*
X156450000Y-64400000D01*
X161550000Y-64400000D02*
X160040000Y-64400000D01*
X157960000Y-64360000D02*
X156444000Y-64360000D01*
X161556000Y-64360000D02*
X160040000Y-64360000D01*
X157960000Y-64320000D02*
X156439000Y-64320000D01*
X161561000Y-64320000D02*
X160040000Y-64320000D01*
X157960000Y-64280000D02*
X156435000Y-64280000D01*
X161565000Y-64280000D02*
X160040000Y-64280000D01*
X157960000Y-64240000D02*
X156431000Y-64240000D01*
X161569000Y-64240000D02*
X160040000Y-64240000D01*
X157960000Y-64200000D02*
X156427000Y-64200000D01*
X161573000Y-64200000D02*
X160040000Y-64200000D01*
X157960000Y-64160000D02*
X156424000Y-64160000D01*
X161576000Y-64160000D02*
X160040000Y-64160000D01*
X157960000Y-64120000D02*
X156422000Y-64120000D01*
X161578000Y-64120000D02*
X160040000Y-64120000D01*
X157960000Y-64080000D02*
X156421000Y-64080000D01*
X161579000Y-64080000D02*
X160040000Y-64080000D01*
X161580000Y-64040000D02*
X160040000Y-64040000D01*
X157960000Y-64040000D02*
X156420000Y-64040000D01*
X161580000Y-64000000D02*
X160040000Y-64000000D01*
X157960000Y-64000000D02*
X156420000Y-64000000D01*
X161620000Y-64000000D02*
G75*
G03*
X161620000Y-64000000I-2620000J0D01*
G01*
%TO.C,U2*%
X170391000Y-60730000D02*
X170391000Y-62240000D01*
X166690000Y-60730000D02*
X166690000Y-62240000D01*
X163420000Y-62240000D02*
X173660000Y-62240000D01*
X173660000Y-60730000D02*
X173660000Y-65371000D01*
X163420000Y-60730000D02*
X163420000Y-65371000D01*
X163420000Y-65371000D02*
X173660000Y-65371000D01*
X163420000Y-60730000D02*
X173660000Y-60730000D01*
%TO.C,J15*%
X152330000Y-61670000D02*
X152330000Y-63000000D01*
X151000000Y-61670000D02*
X152330000Y-61670000D01*
X149730000Y-61670000D02*
X149730000Y-64330000D01*
X149730000Y-64330000D02*
X144590000Y-64330000D01*
X149730000Y-61670000D02*
X144590000Y-61670000D01*
X144590000Y-61670000D02*
X144590000Y-64330000D01*
%TO.C,J16*%
X128880000Y-73685000D02*
X110920000Y-73685000D01*
X128880000Y-89205000D02*
X128880000Y-73685000D01*
X128880000Y-89205000D02*
X110920000Y-89205000D01*
X110920000Y-73685000D02*
X110920000Y-89205000D01*
X125000000Y-73500000D02*
X125500000Y-73000000D01*
X125500000Y-73000000D02*
X124500000Y-73000000D01*
X124500000Y-73000000D02*
X125000000Y-73500000D01*
%TO.C,J4*%
D12*
X199666666Y-92652380D02*
X199666666Y-93366666D01*
X199619047Y-93509523D01*
X199523809Y-93604761D01*
X199380952Y-93652380D01*
X199285714Y-93652380D01*
X200571428Y-92985714D02*
X200571428Y-93652380D01*
X200333333Y-92604761D02*
X200095238Y-93319047D01*
X200714285Y-93319047D01*
X198452380Y-110488571D02*
X198785714Y-110488571D01*
X198928571Y-111012380D02*
X198452380Y-111012380D01*
X198452380Y-110012380D01*
X198928571Y-110012380D01*
X199261904Y-110012380D02*
X199928571Y-111012380D01*
X199928571Y-110012380D02*
X199261904Y-111012380D01*
X200166666Y-110012380D02*
X200738095Y-110012380D01*
X200452380Y-111012380D02*
X200452380Y-110012380D01*
X201023809Y-110107619D02*
X201071428Y-110060000D01*
X201166666Y-110012380D01*
X201404761Y-110012380D01*
X201500000Y-110060000D01*
X201547619Y-110107619D01*
X201595238Y-110202857D01*
X201595238Y-110298095D01*
X201547619Y-110440952D01*
X200976190Y-111012380D01*
X201595238Y-111012380D01*
%TO.C,J3*%
X199666666Y-70122380D02*
X199666666Y-70836666D01*
X199619047Y-70979523D01*
X199523809Y-71074761D01*
X199380952Y-71122380D01*
X199285714Y-71122380D01*
X200047619Y-70122380D02*
X200666666Y-70122380D01*
X200333333Y-70503333D01*
X200476190Y-70503333D01*
X200571428Y-70550952D01*
X200619047Y-70598571D01*
X200666666Y-70693809D01*
X200666666Y-70931904D01*
X200619047Y-71027142D01*
X200571428Y-71074761D01*
X200476190Y-71122380D01*
X200190476Y-71122380D01*
X200095238Y-71074761D01*
X200047619Y-71027142D01*
X198452380Y-87958571D02*
X198785714Y-87958571D01*
X198928571Y-88482380D02*
X198452380Y-88482380D01*
X198452380Y-87482380D01*
X198928571Y-87482380D01*
X199261904Y-87482380D02*
X199928571Y-88482380D01*
X199928571Y-87482380D02*
X199261904Y-88482380D01*
X200166666Y-87482380D02*
X200738095Y-87482380D01*
X200452380Y-88482380D02*
X200452380Y-87482380D01*
X201595238Y-88482380D02*
X201023809Y-88482380D01*
X201309523Y-88482380D02*
X201309523Y-87482380D01*
X201214285Y-87625238D01*
X201119047Y-87720476D01*
X201023809Y-87768095D01*
%TO.C,J2*%
X133652380Y-115063333D02*
X134366666Y-115063333D01*
X134509523Y-115110952D01*
X134604761Y-115206190D01*
X134652380Y-115349047D01*
X134652380Y-115444285D01*
X133747619Y-114634761D02*
X133700000Y-114587142D01*
X133652380Y-114491904D01*
X133652380Y-114253809D01*
X133700000Y-114158571D01*
X133747619Y-114110952D01*
X133842857Y-114063333D01*
X133938095Y-114063333D01*
X134080952Y-114110952D01*
X134652380Y-114682380D01*
X134652380Y-114063333D01*
X180600000Y-120328571D02*
X180933333Y-120328571D01*
X181076190Y-120852380D02*
X180600000Y-120852380D01*
X180600000Y-119852380D01*
X181076190Y-119852380D01*
X181409523Y-120852380D02*
X181933333Y-120185714D01*
X181409523Y-120185714D02*
X181933333Y-120852380D01*
X182314285Y-120185714D02*
X182314285Y-121185714D01*
X182314285Y-120233333D02*
X182409523Y-120185714D01*
X182600000Y-120185714D01*
X182695238Y-120233333D01*
X182742857Y-120280952D01*
X182790476Y-120376190D01*
X182790476Y-120661904D01*
X182742857Y-120757142D01*
X182695238Y-120804761D01*
X182600000Y-120852380D01*
X182409523Y-120852380D01*
X182314285Y-120804761D01*
X183647619Y-120852380D02*
X183647619Y-120328571D01*
X183600000Y-120233333D01*
X183504761Y-120185714D01*
X183314285Y-120185714D01*
X183219047Y-120233333D01*
X183647619Y-120804761D02*
X183552380Y-120852380D01*
X183314285Y-120852380D01*
X183219047Y-120804761D01*
X183171428Y-120709523D01*
X183171428Y-120614285D01*
X183219047Y-120519047D01*
X183314285Y-120471428D01*
X183552380Y-120471428D01*
X183647619Y-120423809D01*
X184123809Y-120185714D02*
X184123809Y-120852380D01*
X184123809Y-120280952D02*
X184171428Y-120233333D01*
X184266666Y-120185714D01*
X184409523Y-120185714D01*
X184504761Y-120233333D01*
X184552380Y-120328571D01*
X184552380Y-120852380D01*
X184980952Y-120804761D02*
X185076190Y-120852380D01*
X185266666Y-120852380D01*
X185361904Y-120804761D01*
X185409523Y-120709523D01*
X185409523Y-120661904D01*
X185361904Y-120566666D01*
X185266666Y-120519047D01*
X185123809Y-120519047D01*
X185028571Y-120471428D01*
X184980952Y-120376190D01*
X184980952Y-120328571D01*
X185028571Y-120233333D01*
X185123809Y-120185714D01*
X185266666Y-120185714D01*
X185361904Y-120233333D01*
X185838095Y-120852380D02*
X185838095Y-120185714D01*
X185838095Y-119852380D02*
X185790476Y-119900000D01*
X185838095Y-119947619D01*
X185885714Y-119900000D01*
X185838095Y-119852380D01*
X185838095Y-119947619D01*
X186457142Y-120852380D02*
X186361904Y-120804761D01*
X186314285Y-120757142D01*
X186266666Y-120661904D01*
X186266666Y-120376190D01*
X186314285Y-120280952D01*
X186361904Y-120233333D01*
X186457142Y-120185714D01*
X186600000Y-120185714D01*
X186695238Y-120233333D01*
X186742857Y-120280952D01*
X186790476Y-120376190D01*
X186790476Y-120661904D01*
X186742857Y-120757142D01*
X186695238Y-120804761D01*
X186600000Y-120852380D01*
X186457142Y-120852380D01*
X187219047Y-120185714D02*
X187219047Y-120852380D01*
X187219047Y-120280952D02*
X187266666Y-120233333D01*
X187361904Y-120185714D01*
X187504761Y-120185714D01*
X187600000Y-120233333D01*
X187647619Y-120328571D01*
X187647619Y-120852380D01*
X188885714Y-120852380D02*
X188885714Y-119852380D01*
X188885714Y-120328571D02*
X189457142Y-120328571D01*
X189457142Y-120852380D02*
X189457142Y-119852380D01*
X190314285Y-120804761D02*
X190219047Y-120852380D01*
X190028571Y-120852380D01*
X189933333Y-120804761D01*
X189885714Y-120709523D01*
X189885714Y-120328571D01*
X189933333Y-120233333D01*
X190028571Y-120185714D01*
X190219047Y-120185714D01*
X190314285Y-120233333D01*
X190361904Y-120328571D01*
X190361904Y-120423809D01*
X189885714Y-120519047D01*
X191219047Y-120852380D02*
X191219047Y-120328571D01*
X191171428Y-120233333D01*
X191076190Y-120185714D01*
X190885714Y-120185714D01*
X190790476Y-120233333D01*
X191219047Y-120804761D02*
X191123809Y-120852380D01*
X190885714Y-120852380D01*
X190790476Y-120804761D01*
X190742857Y-120709523D01*
X190742857Y-120614285D01*
X190790476Y-120519047D01*
X190885714Y-120471428D01*
X191123809Y-120471428D01*
X191219047Y-120423809D01*
X192123809Y-120852380D02*
X192123809Y-119852380D01*
X192123809Y-120804761D02*
X192028571Y-120852380D01*
X191838095Y-120852380D01*
X191742857Y-120804761D01*
X191695238Y-120757142D01*
X191647619Y-120661904D01*
X191647619Y-120376190D01*
X191695238Y-120280952D01*
X191742857Y-120233333D01*
X191838095Y-120185714D01*
X192028571Y-120185714D01*
X192123809Y-120233333D01*
X192980952Y-120804761D02*
X192885714Y-120852380D01*
X192695238Y-120852380D01*
X192600000Y-120804761D01*
X192552380Y-120709523D01*
X192552380Y-120328571D01*
X192600000Y-120233333D01*
X192695238Y-120185714D01*
X192885714Y-120185714D01*
X192980952Y-120233333D01*
X193028571Y-120328571D01*
X193028571Y-120423809D01*
X192552380Y-120519047D01*
X193457142Y-120852380D02*
X193457142Y-120185714D01*
X193457142Y-120376190D02*
X193504761Y-120280952D01*
X193552380Y-120233333D01*
X193647619Y-120185714D01*
X193742857Y-120185714D01*
%TO.C,J1*%
X129266070Y-68551400D02*
X129266070Y-69266965D01*
X129218365Y-69410077D01*
X129122957Y-69505486D01*
X128979844Y-69553190D01*
X128884435Y-69553190D01*
X130267860Y-69553190D02*
X129695408Y-69553190D01*
X129981634Y-69553190D02*
X129981634Y-68551400D01*
X129886225Y-68694513D01*
X129790817Y-68789922D01*
X129695408Y-68837626D01*
X128352584Y-67548990D02*
X127352134Y-67548990D01*
X127352134Y-67167866D01*
X127399775Y-67072585D01*
X127447415Y-67024945D01*
X127542696Y-66977304D01*
X127685617Y-66977304D01*
X127780898Y-67024945D01*
X127828539Y-67072585D01*
X127876179Y-67167866D01*
X127876179Y-67548990D01*
X128352584Y-66405619D02*
X128304944Y-66500900D01*
X128257303Y-66548540D01*
X128162022Y-66596180D01*
X127876179Y-66596180D01*
X127780898Y-66548540D01*
X127733258Y-66500900D01*
X127685617Y-66405619D01*
X127685617Y-66262697D01*
X127733258Y-66167416D01*
X127780898Y-66119776D01*
X127876179Y-66072135D01*
X128162022Y-66072135D01*
X128257303Y-66119776D01*
X128304944Y-66167416D01*
X128352584Y-66262697D01*
X128352584Y-66405619D01*
X127685617Y-65738652D02*
X128352584Y-65548090D01*
X127876179Y-65357528D01*
X128352584Y-65166966D01*
X127685617Y-64976404D01*
X128304944Y-64214157D02*
X128352584Y-64309438D01*
X128352584Y-64500000D01*
X128304944Y-64595280D01*
X128209663Y-64642921D01*
X127828539Y-64642921D01*
X127733258Y-64595280D01*
X127685617Y-64500000D01*
X127685617Y-64309438D01*
X127733258Y-64214157D01*
X127828539Y-64166516D01*
X127923820Y-64166516D01*
X128019101Y-64642921D01*
X128352584Y-63737752D02*
X127685617Y-63737752D01*
X127876179Y-63737752D02*
X127780898Y-63690111D01*
X127733258Y-63642471D01*
X127685617Y-63547190D01*
X127685617Y-63451909D01*
X128352584Y-62356178D02*
X127352134Y-62356178D01*
X127685617Y-61879773D02*
X128352584Y-61879773D01*
X127780898Y-61879773D02*
X127733258Y-61832133D01*
X127685617Y-61736852D01*
X127685617Y-61593930D01*
X127733258Y-61498650D01*
X127828539Y-61451009D01*
X128352584Y-61451009D01*
%TO.C,A1*%
D17*
X154398301Y-71233729D02*
X155066100Y-71233729D01*
X154264741Y-71634409D02*
X154732200Y-70232031D01*
X155199660Y-71634409D01*
X156401698Y-71634409D02*
X155600339Y-71634409D01*
X156001019Y-71634409D02*
X156001019Y-70232031D01*
X155867459Y-70432370D01*
X155733899Y-70565930D01*
X155600339Y-70632710D01*
X152214285Y-77678571D02*
X152214285Y-76178571D01*
X153071428Y-77678571D01*
X153071428Y-76178571D01*
X153785714Y-76178571D02*
X153785714Y-77392857D01*
X153857142Y-77535714D01*
X153928571Y-77607142D01*
X154071428Y-77678571D01*
X154357142Y-77678571D01*
X154500000Y-77607142D01*
X154571428Y-77535714D01*
X154642857Y-77392857D01*
X154642857Y-76178571D01*
X156214285Y-77535714D02*
X156142857Y-77607142D01*
X155928571Y-77678571D01*
X155785714Y-77678571D01*
X155571428Y-77607142D01*
X155428571Y-77464285D01*
X155357142Y-77321428D01*
X155285714Y-77035714D01*
X155285714Y-76821428D01*
X155357142Y-76535714D01*
X155428571Y-76392857D01*
X155571428Y-76250000D01*
X155785714Y-76178571D01*
X155928571Y-76178571D01*
X156142857Y-76250000D01*
X156214285Y-76321428D01*
X157571428Y-77678571D02*
X156857142Y-77678571D01*
X156857142Y-76178571D01*
X158071428Y-76892857D02*
X158571428Y-76892857D01*
X158785714Y-77678571D02*
X158071428Y-77678571D01*
X158071428Y-76178571D01*
X158785714Y-76178571D01*
X159714285Y-76178571D02*
X160000000Y-76178571D01*
X160142857Y-76250000D01*
X160285714Y-76392857D01*
X160357142Y-76678571D01*
X160357142Y-77178571D01*
X160285714Y-77464285D01*
X160142857Y-77607142D01*
X160000000Y-77678571D01*
X159714285Y-77678571D01*
X159571428Y-77607142D01*
X159428571Y-77464285D01*
X159357142Y-77178571D01*
X159357142Y-76678571D01*
X159428571Y-76392857D01*
X159571428Y-76250000D01*
X159714285Y-76178571D01*
X161000000Y-77107142D02*
X162142857Y-77107142D01*
X162714285Y-76178571D02*
X163642857Y-76178571D01*
X163142857Y-76750000D01*
X163357142Y-76750000D01*
X163500000Y-76821428D01*
X163571428Y-76892857D01*
X163642857Y-77035714D01*
X163642857Y-77392857D01*
X163571428Y-77535714D01*
X163500000Y-77607142D01*
X163357142Y-77678571D01*
X162928571Y-77678571D01*
X162785714Y-77607142D01*
X162714285Y-77535714D01*
X164214285Y-76321428D02*
X164285714Y-76250000D01*
X164428571Y-76178571D01*
X164785714Y-76178571D01*
X164928571Y-76250000D01*
X165000000Y-76321428D01*
X165071428Y-76464285D01*
X165071428Y-76607142D01*
X165000000Y-76821428D01*
X164142857Y-77678571D01*
X165071428Y-77678571D01*
X166785714Y-77607142D02*
X167000000Y-77678571D01*
X167357142Y-77678571D01*
X167500000Y-77607142D01*
X167571428Y-77535714D01*
X167642857Y-77392857D01*
X167642857Y-77250000D01*
X167571428Y-77107142D01*
X167500000Y-77035714D01*
X167357142Y-76964285D01*
X167071428Y-76892857D01*
X166928571Y-76821428D01*
X166857142Y-76750000D01*
X166785714Y-76607142D01*
X166785714Y-76464285D01*
X166857142Y-76321428D01*
X166928571Y-76250000D01*
X167071428Y-76178571D01*
X167428571Y-76178571D01*
X167642857Y-76250000D01*
X168071428Y-76178571D02*
X168928571Y-76178571D01*
X168500000Y-77678571D02*
X168500000Y-76178571D01*
X169428571Y-77678571D02*
X169428571Y-76178571D01*
X169928571Y-77250000D01*
X170428571Y-76178571D01*
X170428571Y-77678571D01*
X171000000Y-76178571D02*
X171928571Y-76178571D01*
X171428571Y-76750000D01*
X171642857Y-76750000D01*
X171785714Y-76821428D01*
X171857142Y-76892857D01*
X171928571Y-77035714D01*
X171928571Y-77392857D01*
X171857142Y-77535714D01*
X171785714Y-77607142D01*
X171642857Y-77678571D01*
X171214285Y-77678571D01*
X171071428Y-77607142D01*
X171000000Y-77535714D01*
X172500000Y-76321428D02*
X172571428Y-76250000D01*
X172714285Y-76178571D01*
X173071428Y-76178571D01*
X173214285Y-76250000D01*
X173285714Y-76321428D01*
X173357142Y-76464285D01*
X173357142Y-76607142D01*
X173285714Y-76821428D01*
X172428571Y-77678571D01*
X173357142Y-77678571D01*
X174714285Y-77678571D02*
X174000000Y-77678571D01*
X174000000Y-76178571D01*
X175857142Y-76678571D02*
X175857142Y-77678571D01*
X175500000Y-76107142D02*
X175142857Y-77178571D01*
X176071428Y-77178571D01*
X177428571Y-77678571D02*
X176571428Y-77678571D01*
X177000000Y-77678571D02*
X177000000Y-76178571D01*
X176857142Y-76392857D01*
X176714285Y-76535714D01*
X176571428Y-76607142D01*
X178000000Y-76321428D02*
X178071428Y-76250000D01*
X178214285Y-76178571D01*
X178571428Y-76178571D01*
X178714285Y-76250000D01*
X178785714Y-76321428D01*
X178857142Y-76464285D01*
X178857142Y-76607142D01*
X178785714Y-76821428D01*
X177928571Y-77678571D01*
X178857142Y-77678571D01*
X179500000Y-77678571D02*
X179500000Y-76178571D01*
X180357142Y-77678571D02*
X179714285Y-76821428D01*
X180357142Y-76178571D02*
X179500000Y-77035714D01*
X181500000Y-76892857D02*
X181714285Y-76964285D01*
X181785714Y-77035714D01*
X181857142Y-77178571D01*
X181857142Y-77392857D01*
X181785714Y-77535714D01*
X181714285Y-77607142D01*
X181571428Y-77678571D01*
X181000000Y-77678571D01*
X181000000Y-76178571D01*
X181500000Y-76178571D01*
X181642857Y-76250000D01*
X181714285Y-76321428D01*
X181785714Y-76464285D01*
X181785714Y-76607142D01*
X181714285Y-76750000D01*
X181642857Y-76821428D01*
X181500000Y-76892857D01*
X181000000Y-76892857D01*
%TO.C,C14*%
D12*
X172857142Y-95857142D02*
X172809523Y-95904761D01*
X172666666Y-95952380D01*
X172571428Y-95952380D01*
X172428571Y-95904761D01*
X172333333Y-95809523D01*
X172285714Y-95714285D01*
X172238095Y-95523809D01*
X172238095Y-95380952D01*
X172285714Y-95190476D01*
X172333333Y-95095238D01*
X172428571Y-95000000D01*
X172571428Y-94952380D01*
X172666666Y-94952380D01*
X172809523Y-95000000D01*
X172857142Y-95047619D01*
X173809523Y-95952380D02*
X173238095Y-95952380D01*
X173523809Y-95952380D02*
X173523809Y-94952380D01*
X173428571Y-95095238D01*
X173333333Y-95190476D01*
X173238095Y-95238095D01*
X174666666Y-95285714D02*
X174666666Y-95952380D01*
X174428571Y-94904761D02*
X174190476Y-95619047D01*
X174809523Y-95619047D01*
X171857142Y-96452380D02*
X171952380Y-96452380D01*
X172047619Y-96500000D01*
X172095238Y-96547619D01*
X172142857Y-96642857D01*
X172190476Y-96833333D01*
X172190476Y-97071428D01*
X172142857Y-97261904D01*
X172095238Y-97357142D01*
X172047619Y-97404761D01*
X171952380Y-97452380D01*
X171857142Y-97452380D01*
X171761904Y-97404761D01*
X171714285Y-97357142D01*
X171666666Y-97261904D01*
X171619047Y-97071428D01*
X171619047Y-96833333D01*
X171666666Y-96642857D01*
X171714285Y-96547619D01*
X171761904Y-96500000D01*
X171857142Y-96452380D01*
X172619047Y-97357142D02*
X172666666Y-97404761D01*
X172619047Y-97452380D01*
X172571428Y-97404761D01*
X172619047Y-97357142D01*
X172619047Y-97452380D01*
X173619047Y-97452380D02*
X173047619Y-97452380D01*
X173333333Y-97452380D02*
X173333333Y-96452380D01*
X173238095Y-96595238D01*
X173142857Y-96690476D01*
X173047619Y-96738095D01*
X174476190Y-96785714D02*
X174476190Y-97452380D01*
X174047619Y-96785714D02*
X174047619Y-97309523D01*
X174095238Y-97404761D01*
X174190476Y-97452380D01*
X174333333Y-97452380D01*
X174428571Y-97404761D01*
X174476190Y-97357142D01*
X175285714Y-96928571D02*
X174952380Y-96928571D01*
X174952380Y-97452380D02*
X174952380Y-96452380D01*
X175428571Y-96452380D01*
%TO.C,C3*%
X181333333Y-95357142D02*
X181285714Y-95404761D01*
X181142857Y-95452380D01*
X181047619Y-95452380D01*
X180904761Y-95404761D01*
X180809523Y-95309523D01*
X180761904Y-95214285D01*
X180714285Y-95023809D01*
X180714285Y-94880952D01*
X180761904Y-94690476D01*
X180809523Y-94595238D01*
X180904761Y-94500000D01*
X181047619Y-94452380D01*
X181142857Y-94452380D01*
X181285714Y-94500000D01*
X181333333Y-94547619D01*
X181666666Y-94452380D02*
X182285714Y-94452380D01*
X181952380Y-94833333D01*
X182095238Y-94833333D01*
X182190476Y-94880952D01*
X182238095Y-94928571D01*
X182285714Y-95023809D01*
X182285714Y-95261904D01*
X182238095Y-95357142D01*
X182190476Y-95404761D01*
X182095238Y-95452380D01*
X181809523Y-95452380D01*
X181714285Y-95404761D01*
X181666666Y-95357142D01*
X183857142Y-94202380D02*
X183952380Y-94202380D01*
X184047619Y-94250000D01*
X184095238Y-94297619D01*
X184142857Y-94392857D01*
X184190476Y-94583333D01*
X184190476Y-94821428D01*
X184142857Y-95011904D01*
X184095238Y-95107142D01*
X184047619Y-95154761D01*
X183952380Y-95202380D01*
X183857142Y-95202380D01*
X183761904Y-95154761D01*
X183714285Y-95107142D01*
X183666666Y-95011904D01*
X183619047Y-94821428D01*
X183619047Y-94583333D01*
X183666666Y-94392857D01*
X183714285Y-94297619D01*
X183761904Y-94250000D01*
X183857142Y-94202380D01*
X184619047Y-95107142D02*
X184666666Y-95154761D01*
X184619047Y-95202380D01*
X184571428Y-95154761D01*
X184619047Y-95107142D01*
X184619047Y-95202380D01*
X185619047Y-95202380D02*
X185047619Y-95202380D01*
X185333333Y-95202380D02*
X185333333Y-94202380D01*
X185238095Y-94345238D01*
X185142857Y-94440476D01*
X185047619Y-94488095D01*
X186476190Y-94535714D02*
X186476190Y-95202380D01*
X186047619Y-94535714D02*
X186047619Y-95059523D01*
X186095238Y-95154761D01*
X186190476Y-95202380D01*
X186333333Y-95202380D01*
X186428571Y-95154761D01*
X186476190Y-95107142D01*
X187285714Y-94678571D02*
X186952380Y-94678571D01*
X186952380Y-95202380D02*
X186952380Y-94202380D01*
X187428571Y-94202380D01*
%TO.C,U7*%
X177638095Y-95652380D02*
X177638095Y-96461904D01*
X177685714Y-96557142D01*
X177733333Y-96604761D01*
X177828571Y-96652380D01*
X178019047Y-96652380D01*
X178114285Y-96604761D01*
X178161904Y-96557142D01*
X178209523Y-96461904D01*
X178209523Y-95652380D01*
X178590476Y-95652380D02*
X179257142Y-95652380D01*
X178828571Y-96652380D01*
X195022380Y-105309047D02*
X195022380Y-104642380D01*
X196022380Y-105070952D01*
X195355714Y-103832857D02*
X196022380Y-103832857D01*
X194974761Y-104070952D02*
X195689047Y-104309047D01*
X195689047Y-103690000D01*
X196022380Y-102832857D02*
X196022380Y-103309047D01*
X195022380Y-103309047D01*
X195974761Y-102547142D02*
X196022380Y-102404285D01*
X196022380Y-102166190D01*
X195974761Y-102070952D01*
X195927142Y-102023333D01*
X195831904Y-101975714D01*
X195736666Y-101975714D01*
X195641428Y-102023333D01*
X195593809Y-102070952D01*
X195546190Y-102166190D01*
X195498571Y-102356666D01*
X195450952Y-102451904D01*
X195403333Y-102499523D01*
X195308095Y-102547142D01*
X195212857Y-102547142D01*
X195117619Y-102499523D01*
X195070000Y-102451904D01*
X195022380Y-102356666D01*
X195022380Y-102118571D01*
X195070000Y-101975714D01*
X196022380Y-101023333D02*
X196022380Y-101594761D01*
X196022380Y-101309047D02*
X195022380Y-101309047D01*
X195165238Y-101404285D01*
X195260476Y-101499523D01*
X195308095Y-101594761D01*
X195117619Y-100642380D02*
X195070000Y-100594761D01*
X195022380Y-100499523D01*
X195022380Y-100261428D01*
X195070000Y-100166190D01*
X195117619Y-100118571D01*
X195212857Y-100070952D01*
X195308095Y-100070952D01*
X195450952Y-100118571D01*
X196022380Y-100690000D01*
X196022380Y-100070952D01*
X195022380Y-99166190D02*
X195022380Y-99642380D01*
X195498571Y-99690000D01*
X195450952Y-99642380D01*
X195403333Y-99547142D01*
X195403333Y-99309047D01*
X195450952Y-99213809D01*
X195498571Y-99166190D01*
X195593809Y-99118571D01*
X195831904Y-99118571D01*
X195927142Y-99166190D01*
X195974761Y-99213809D01*
X196022380Y-99309047D01*
X196022380Y-99547142D01*
X195974761Y-99642380D01*
X195927142Y-99690000D01*
%TO.C,U6*%
X163538095Y-95552380D02*
X163538095Y-96361904D01*
X163585714Y-96457142D01*
X163633333Y-96504761D01*
X163728571Y-96552380D01*
X163919047Y-96552380D01*
X164014285Y-96504761D01*
X164061904Y-96457142D01*
X164109523Y-96361904D01*
X164109523Y-95552380D01*
X165014285Y-95552380D02*
X164823809Y-95552380D01*
X164728571Y-95600000D01*
X164680952Y-95647619D01*
X164585714Y-95790476D01*
X164538095Y-95980952D01*
X164538095Y-96361904D01*
X164585714Y-96457142D01*
X164633333Y-96504761D01*
X164728571Y-96552380D01*
X164919047Y-96552380D01*
X165014285Y-96504761D01*
X165061904Y-96457142D01*
X165109523Y-96361904D01*
X165109523Y-96123809D01*
X165061904Y-96028571D01*
X165014285Y-95980952D01*
X164919047Y-95933333D01*
X164728571Y-95933333D01*
X164633333Y-95980952D01*
X164585714Y-96028571D01*
X164538095Y-96123809D01*
X172022380Y-105309047D02*
X172022380Y-104642380D01*
X173022380Y-105070952D01*
X172355714Y-103832857D02*
X173022380Y-103832857D01*
X171974761Y-104070952D02*
X172689047Y-104309047D01*
X172689047Y-103690000D01*
X173022380Y-102832857D02*
X173022380Y-103309047D01*
X172022380Y-103309047D01*
X172974761Y-102547142D02*
X173022380Y-102404285D01*
X173022380Y-102166190D01*
X172974761Y-102070952D01*
X172927142Y-102023333D01*
X172831904Y-101975714D01*
X172736666Y-101975714D01*
X172641428Y-102023333D01*
X172593809Y-102070952D01*
X172546190Y-102166190D01*
X172498571Y-102356666D01*
X172450952Y-102451904D01*
X172403333Y-102499523D01*
X172308095Y-102547142D01*
X172212857Y-102547142D01*
X172117619Y-102499523D01*
X172070000Y-102451904D01*
X172022380Y-102356666D01*
X172022380Y-102118571D01*
X172070000Y-101975714D01*
X173022380Y-101023333D02*
X173022380Y-101594761D01*
X173022380Y-101309047D02*
X172022380Y-101309047D01*
X172165238Y-101404285D01*
X172260476Y-101499523D01*
X172308095Y-101594761D01*
X172117619Y-100642380D02*
X172070000Y-100594761D01*
X172022380Y-100499523D01*
X172022380Y-100261428D01*
X172070000Y-100166190D01*
X172117619Y-100118571D01*
X172212857Y-100070952D01*
X172308095Y-100070952D01*
X172450952Y-100118571D01*
X173022380Y-100690000D01*
X173022380Y-100070952D01*
X172022380Y-99166190D02*
X172022380Y-99642380D01*
X172498571Y-99690000D01*
X172450952Y-99642380D01*
X172403333Y-99547142D01*
X172403333Y-99309047D01*
X172450952Y-99213809D01*
X172498571Y-99166190D01*
X172593809Y-99118571D01*
X172831904Y-99118571D01*
X172927142Y-99166190D01*
X172974761Y-99213809D01*
X173022380Y-99309047D01*
X173022380Y-99547142D01*
X172974761Y-99642380D01*
X172927142Y-99690000D01*
%TO.C,U5*%
X138538095Y-95552380D02*
X138538095Y-96361904D01*
X138585714Y-96457142D01*
X138633333Y-96504761D01*
X138728571Y-96552380D01*
X138919047Y-96552380D01*
X139014285Y-96504761D01*
X139061904Y-96457142D01*
X139109523Y-96361904D01*
X139109523Y-95552380D01*
X140061904Y-95552380D02*
X139585714Y-95552380D01*
X139538095Y-96028571D01*
X139585714Y-95980952D01*
X139680952Y-95933333D01*
X139919047Y-95933333D01*
X140014285Y-95980952D01*
X140061904Y-96028571D01*
X140109523Y-96123809D01*
X140109523Y-96361904D01*
X140061904Y-96457142D01*
X140014285Y-96504761D01*
X139919047Y-96552380D01*
X139680952Y-96552380D01*
X139585714Y-96504761D01*
X139538095Y-96457142D01*
X149322380Y-105309047D02*
X149322380Y-104642380D01*
X150322380Y-105070952D01*
X149655714Y-103832857D02*
X150322380Y-103832857D01*
X149274761Y-104070952D02*
X149989047Y-104309047D01*
X149989047Y-103690000D01*
X150322380Y-102832857D02*
X150322380Y-103309047D01*
X149322380Y-103309047D01*
X150274761Y-102547142D02*
X150322380Y-102404285D01*
X150322380Y-102166190D01*
X150274761Y-102070952D01*
X150227142Y-102023333D01*
X150131904Y-101975714D01*
X150036666Y-101975714D01*
X149941428Y-102023333D01*
X149893809Y-102070952D01*
X149846190Y-102166190D01*
X149798571Y-102356666D01*
X149750952Y-102451904D01*
X149703333Y-102499523D01*
X149608095Y-102547142D01*
X149512857Y-102547142D01*
X149417619Y-102499523D01*
X149370000Y-102451904D01*
X149322380Y-102356666D01*
X149322380Y-102118571D01*
X149370000Y-101975714D01*
X150322380Y-101023333D02*
X150322380Y-101594761D01*
X150322380Y-101309047D02*
X149322380Y-101309047D01*
X149465238Y-101404285D01*
X149560476Y-101499523D01*
X149608095Y-101594761D01*
X149417619Y-100642380D02*
X149370000Y-100594761D01*
X149322380Y-100499523D01*
X149322380Y-100261428D01*
X149370000Y-100166190D01*
X149417619Y-100118571D01*
X149512857Y-100070952D01*
X149608095Y-100070952D01*
X149750952Y-100118571D01*
X150322380Y-100690000D01*
X150322380Y-100070952D01*
X149322380Y-99166190D02*
X149322380Y-99642380D01*
X149798571Y-99690000D01*
X149750952Y-99642380D01*
X149703333Y-99547142D01*
X149703333Y-99309047D01*
X149750952Y-99213809D01*
X149798571Y-99166190D01*
X149893809Y-99118571D01*
X150131904Y-99118571D01*
X150227142Y-99166190D01*
X150274761Y-99213809D01*
X150322380Y-99309047D01*
X150322380Y-99547142D01*
X150274761Y-99642380D01*
X150227142Y-99690000D01*
%TO.C,U3*%
X134238095Y-70952380D02*
X134238095Y-71761904D01*
X134285714Y-71857142D01*
X134333333Y-71904761D01*
X134428571Y-71952380D01*
X134619047Y-71952380D01*
X134714285Y-71904761D01*
X134761904Y-71857142D01*
X134809523Y-71761904D01*
X134809523Y-70952380D01*
X135190476Y-70952380D02*
X135809523Y-70952380D01*
X135476190Y-71333333D01*
X135619047Y-71333333D01*
X135714285Y-71380952D01*
X135761904Y-71428571D01*
X135809523Y-71523809D01*
X135809523Y-71761904D01*
X135761904Y-71857142D01*
X135714285Y-71904761D01*
X135619047Y-71952380D01*
X135333333Y-71952380D01*
X135238095Y-71904761D01*
X135190476Y-71857142D01*
%TO.C,RN4*%
X131309523Y-70452380D02*
X130976190Y-69976190D01*
X130738095Y-70452380D02*
X130738095Y-69452380D01*
X131119047Y-69452380D01*
X131214285Y-69500000D01*
X131261904Y-69547619D01*
X131309523Y-69642857D01*
X131309523Y-69785714D01*
X131261904Y-69880952D01*
X131214285Y-69928571D01*
X131119047Y-69976190D01*
X130738095Y-69976190D01*
X131738095Y-70452380D02*
X131738095Y-69452380D01*
X132309523Y-70452380D01*
X132309523Y-69452380D01*
X133214285Y-69785714D02*
X133214285Y-70452380D01*
X132976190Y-69404761D02*
X132738095Y-70119047D01*
X133357142Y-70119047D01*
X131333333Y-71952380D02*
X130761904Y-71952380D01*
X131047619Y-71952380D02*
X131047619Y-70952380D01*
X130952380Y-71095238D01*
X130857142Y-71190476D01*
X130761904Y-71238095D01*
X131714285Y-71047619D02*
X131761904Y-71000000D01*
X131857142Y-70952380D01*
X132095238Y-70952380D01*
X132190476Y-71000000D01*
X132238095Y-71047619D01*
X132285714Y-71142857D01*
X132285714Y-71238095D01*
X132238095Y-71380952D01*
X131666666Y-71952380D01*
X132285714Y-71952380D01*
X132904761Y-70952380D02*
X133000000Y-70952380D01*
X133095238Y-71000000D01*
X133142857Y-71047619D01*
X133190476Y-71142857D01*
X133238095Y-71333333D01*
X133238095Y-71571428D01*
X133190476Y-71761904D01*
X133142857Y-71857142D01*
X133095238Y-71904761D01*
X133000000Y-71952380D01*
X132904761Y-71952380D01*
X132809523Y-71904761D01*
X132761904Y-71857142D01*
X132714285Y-71761904D01*
X132666666Y-71571428D01*
X132666666Y-71333333D01*
X132714285Y-71142857D01*
X132761904Y-71047619D01*
X132809523Y-71000000D01*
X132904761Y-70952380D01*
%TO.C,R5*%
X180933333Y-67252380D02*
X180600000Y-66776190D01*
X180361904Y-67252380D02*
X180361904Y-66252380D01*
X180742857Y-66252380D01*
X180838095Y-66300000D01*
X180885714Y-66347619D01*
X180933333Y-66442857D01*
X180933333Y-66585714D01*
X180885714Y-66680952D01*
X180838095Y-66728571D01*
X180742857Y-66776190D01*
X180361904Y-66776190D01*
X181838095Y-66252380D02*
X181361904Y-66252380D01*
X181314285Y-66728571D01*
X181361904Y-66680952D01*
X181457142Y-66633333D01*
X181695238Y-66633333D01*
X181790476Y-66680952D01*
X181838095Y-66728571D01*
X181885714Y-66823809D01*
X181885714Y-67061904D01*
X181838095Y-67157142D01*
X181790476Y-67204761D01*
X181695238Y-67252380D01*
X181457142Y-67252380D01*
X181361904Y-67204761D01*
X181314285Y-67157142D01*
X178143333Y-71822380D02*
X177571904Y-71822380D01*
X177857619Y-71822380D02*
X177857619Y-70822380D01*
X177762380Y-70965238D01*
X177667142Y-71060476D01*
X177571904Y-71108095D01*
X178524285Y-70917619D02*
X178571904Y-70870000D01*
X178667142Y-70822380D01*
X178905238Y-70822380D01*
X179000476Y-70870000D01*
X179048095Y-70917619D01*
X179095714Y-71012857D01*
X179095714Y-71108095D01*
X179048095Y-71250952D01*
X178476666Y-71822380D01*
X179095714Y-71822380D01*
X179714761Y-70822380D02*
X179810000Y-70822380D01*
X179905238Y-70870000D01*
X179952857Y-70917619D01*
X180000476Y-71012857D01*
X180048095Y-71203333D01*
X180048095Y-71441428D01*
X180000476Y-71631904D01*
X179952857Y-71727142D01*
X179905238Y-71774761D01*
X179810000Y-71822380D01*
X179714761Y-71822380D01*
X179619523Y-71774761D01*
X179571904Y-71727142D01*
X179524285Y-71631904D01*
X179476666Y-71441428D01*
X179476666Y-71203333D01*
X179524285Y-71012857D01*
X179571904Y-70917619D01*
X179619523Y-70870000D01*
X179714761Y-70822380D01*
%TO.C,R3*%
X151833333Y-70352380D02*
X151500000Y-69876190D01*
X151261904Y-70352380D02*
X151261904Y-69352380D01*
X151642857Y-69352380D01*
X151738095Y-69400000D01*
X151785714Y-69447619D01*
X151833333Y-69542857D01*
X151833333Y-69685714D01*
X151785714Y-69780952D01*
X151738095Y-69828571D01*
X151642857Y-69876190D01*
X151261904Y-69876190D01*
X152166666Y-69352380D02*
X152785714Y-69352380D01*
X152452380Y-69733333D01*
X152595238Y-69733333D01*
X152690476Y-69780952D01*
X152738095Y-69828571D01*
X152785714Y-69923809D01*
X152785714Y-70161904D01*
X152738095Y-70257142D01*
X152690476Y-70304761D01*
X152595238Y-70352380D01*
X152309523Y-70352380D01*
X152214285Y-70304761D01*
X152166666Y-70257142D01*
X151685714Y-71752380D02*
X151114285Y-71752380D01*
X151400000Y-71752380D02*
X151400000Y-70752380D01*
X151304761Y-70895238D01*
X151209523Y-70990476D01*
X151114285Y-71038095D01*
X152114285Y-71752380D02*
X152114285Y-70752380D01*
X152685714Y-71752380D02*
X152257142Y-71180952D01*
X152685714Y-70752380D02*
X152114285Y-71323809D01*
%TO.C,F13*%
X184390476Y-61228571D02*
X184057142Y-61228571D01*
X184057142Y-61752380D02*
X184057142Y-60752380D01*
X184533333Y-60752380D01*
X185438095Y-61752380D02*
X184866666Y-61752380D01*
X185152380Y-61752380D02*
X185152380Y-60752380D01*
X185057142Y-60895238D01*
X184961904Y-60990476D01*
X184866666Y-61038095D01*
X185771428Y-60752380D02*
X186390476Y-60752380D01*
X186057142Y-61133333D01*
X186200000Y-61133333D01*
X186295238Y-61180952D01*
X186342857Y-61228571D01*
X186390476Y-61323809D01*
X186390476Y-61561904D01*
X186342857Y-61657142D01*
X186295238Y-61704761D01*
X186200000Y-61752380D01*
X185914285Y-61752380D01*
X185819047Y-61704761D01*
X185771428Y-61657142D01*
X187457142Y-61228571D02*
X187123809Y-61228571D01*
X187123809Y-61752380D02*
X187123809Y-60752380D01*
X187600000Y-60752380D01*
X188409523Y-61085714D02*
X188409523Y-61752380D01*
X187980952Y-61085714D02*
X187980952Y-61609523D01*
X188028571Y-61704761D01*
X188123809Y-61752380D01*
X188266666Y-61752380D01*
X188361904Y-61704761D01*
X188409523Y-61657142D01*
X188838095Y-61704761D02*
X188933333Y-61752380D01*
X189123809Y-61752380D01*
X189219047Y-61704761D01*
X189266666Y-61609523D01*
X189266666Y-61561904D01*
X189219047Y-61466666D01*
X189123809Y-61419047D01*
X188980952Y-61419047D01*
X188885714Y-61371428D01*
X188838095Y-61276190D01*
X188838095Y-61228571D01*
X188885714Y-61133333D01*
X188980952Y-61085714D01*
X189123809Y-61085714D01*
X189219047Y-61133333D01*
X190076190Y-61704761D02*
X189980952Y-61752380D01*
X189790476Y-61752380D01*
X189695238Y-61704761D01*
X189647619Y-61609523D01*
X189647619Y-61228571D01*
X189695238Y-61133333D01*
X189790476Y-61085714D01*
X189980952Y-61085714D01*
X190076190Y-61133333D01*
X190123809Y-61228571D01*
X190123809Y-61323809D01*
X189647619Y-61419047D01*
%TO.C,D5*%
X190161904Y-69052380D02*
X190161904Y-68052380D01*
X190400000Y-68052380D01*
X190542857Y-68100000D01*
X190638095Y-68195238D01*
X190685714Y-68290476D01*
X190733333Y-68480952D01*
X190733333Y-68623809D01*
X190685714Y-68814285D01*
X190638095Y-68909523D01*
X190542857Y-69004761D01*
X190400000Y-69052380D01*
X190161904Y-69052380D01*
X191638095Y-68052380D02*
X191161904Y-68052380D01*
X191114285Y-68528571D01*
X191161904Y-68480952D01*
X191257142Y-68433333D01*
X191495238Y-68433333D01*
X191590476Y-68480952D01*
X191638095Y-68528571D01*
X191685714Y-68623809D01*
X191685714Y-68861904D01*
X191638095Y-68957142D01*
X191590476Y-69004761D01*
X191495238Y-69052380D01*
X191257142Y-69052380D01*
X191161904Y-69004761D01*
X191114285Y-68957142D01*
X190052380Y-70804761D02*
X190195238Y-70852380D01*
X190433333Y-70852380D01*
X190528571Y-70804761D01*
X190576190Y-70757142D01*
X190623809Y-70661904D01*
X190623809Y-70566666D01*
X190576190Y-70471428D01*
X190528571Y-70423809D01*
X190433333Y-70376190D01*
X190242857Y-70328571D01*
X190147619Y-70280952D01*
X190100000Y-70233333D01*
X190052380Y-70138095D01*
X190052380Y-70042857D01*
X190100000Y-69947619D01*
X190147619Y-69900000D01*
X190242857Y-69852380D01*
X190480952Y-69852380D01*
X190623809Y-69900000D01*
X190909523Y-70185714D02*
X191290476Y-70185714D01*
X191052380Y-69852380D02*
X191052380Y-70709523D01*
X191100000Y-70804761D01*
X191195238Y-70852380D01*
X191290476Y-70852380D01*
X192052380Y-70852380D02*
X192052380Y-70328571D01*
X192004761Y-70233333D01*
X191909523Y-70185714D01*
X191719047Y-70185714D01*
X191623809Y-70233333D01*
X192052380Y-70804761D02*
X191957142Y-70852380D01*
X191719047Y-70852380D01*
X191623809Y-70804761D01*
X191576190Y-70709523D01*
X191576190Y-70614285D01*
X191623809Y-70519047D01*
X191719047Y-70471428D01*
X191957142Y-70471428D01*
X192052380Y-70423809D01*
X192385714Y-70185714D02*
X192766666Y-70185714D01*
X192528571Y-69852380D02*
X192528571Y-70709523D01*
X192576190Y-70804761D01*
X192671428Y-70852380D01*
X192766666Y-70852380D01*
X194338095Y-70852380D02*
X193861904Y-70852380D01*
X193861904Y-69852380D01*
X194671428Y-70328571D02*
X195004761Y-70328571D01*
X195147619Y-70852380D02*
X194671428Y-70852380D01*
X194671428Y-69852380D01*
X195147619Y-69852380D01*
X195576190Y-70852380D02*
X195576190Y-69852380D01*
X195814285Y-69852380D01*
X195957142Y-69900000D01*
X196052380Y-69995238D01*
X196100000Y-70090476D01*
X196147619Y-70280952D01*
X196147619Y-70423809D01*
X196100000Y-70614285D01*
X196052380Y-70709523D01*
X195957142Y-70804761D01*
X195814285Y-70852380D01*
X195576190Y-70852380D01*
%TO.C,D3*%
X137061904Y-69152380D02*
X137061904Y-68152380D01*
X137300000Y-68152380D01*
X137442857Y-68200000D01*
X137538095Y-68295238D01*
X137585714Y-68390476D01*
X137633333Y-68580952D01*
X137633333Y-68723809D01*
X137585714Y-68914285D01*
X137538095Y-69009523D01*
X137442857Y-69104761D01*
X137300000Y-69152380D01*
X137061904Y-69152380D01*
X137966666Y-68152380D02*
X138585714Y-68152380D01*
X138252380Y-68533333D01*
X138395238Y-68533333D01*
X138490476Y-68580952D01*
X138538095Y-68628571D01*
X138585714Y-68723809D01*
X138585714Y-68961904D01*
X138538095Y-69057142D01*
X138490476Y-69104761D01*
X138395238Y-69152380D01*
X138109523Y-69152380D01*
X138014285Y-69104761D01*
X137966666Y-69057142D01*
X137366666Y-62452380D02*
X137700000Y-63452380D01*
X138033333Y-62452380D01*
X138366666Y-63452380D02*
X138366666Y-62452380D01*
X138842857Y-63452380D02*
X138842857Y-62452380D01*
X139414285Y-63452380D01*
X139414285Y-62452380D01*
X141128571Y-63452380D02*
X140652380Y-63452380D01*
X140652380Y-62452380D01*
X141461904Y-62928571D02*
X141795238Y-62928571D01*
X141938095Y-63452380D02*
X141461904Y-63452380D01*
X141461904Y-62452380D01*
X141938095Y-62452380D01*
X142366666Y-63452380D02*
X142366666Y-62452380D01*
X142604761Y-62452380D01*
X142747619Y-62500000D01*
X142842857Y-62595238D01*
X142890476Y-62690476D01*
X142938095Y-62880952D01*
X142938095Y-63023809D01*
X142890476Y-63214285D01*
X142842857Y-63309523D01*
X142747619Y-63404761D01*
X142604761Y-63452380D01*
X142366666Y-63452380D01*
%TO.C,C13*%
X150357142Y-95857142D02*
X150309523Y-95904761D01*
X150166666Y-95952380D01*
X150071428Y-95952380D01*
X149928571Y-95904761D01*
X149833333Y-95809523D01*
X149785714Y-95714285D01*
X149738095Y-95523809D01*
X149738095Y-95380952D01*
X149785714Y-95190476D01*
X149833333Y-95095238D01*
X149928571Y-95000000D01*
X150071428Y-94952380D01*
X150166666Y-94952380D01*
X150309523Y-95000000D01*
X150357142Y-95047619D01*
X151309523Y-95952380D02*
X150738095Y-95952380D01*
X151023809Y-95952380D02*
X151023809Y-94952380D01*
X150928571Y-95095238D01*
X150833333Y-95190476D01*
X150738095Y-95238095D01*
X151642857Y-94952380D02*
X152261904Y-94952380D01*
X151928571Y-95333333D01*
X152071428Y-95333333D01*
X152166666Y-95380952D01*
X152214285Y-95428571D01*
X152261904Y-95523809D01*
X152261904Y-95761904D01*
X152214285Y-95857142D01*
X152166666Y-95904761D01*
X152071428Y-95952380D01*
X151785714Y-95952380D01*
X151690476Y-95904761D01*
X151642857Y-95857142D01*
X149357142Y-96452380D02*
X149452380Y-96452380D01*
X149547619Y-96500000D01*
X149595238Y-96547619D01*
X149642857Y-96642857D01*
X149690476Y-96833333D01*
X149690476Y-97071428D01*
X149642857Y-97261904D01*
X149595238Y-97357142D01*
X149547619Y-97404761D01*
X149452380Y-97452380D01*
X149357142Y-97452380D01*
X149261904Y-97404761D01*
X149214285Y-97357142D01*
X149166666Y-97261904D01*
X149119047Y-97071428D01*
X149119047Y-96833333D01*
X149166666Y-96642857D01*
X149214285Y-96547619D01*
X149261904Y-96500000D01*
X149357142Y-96452380D01*
X150119047Y-97357142D02*
X150166666Y-97404761D01*
X150119047Y-97452380D01*
X150071428Y-97404761D01*
X150119047Y-97357142D01*
X150119047Y-97452380D01*
X151119047Y-97452380D02*
X150547619Y-97452380D01*
X150833333Y-97452380D02*
X150833333Y-96452380D01*
X150738095Y-96595238D01*
X150642857Y-96690476D01*
X150547619Y-96738095D01*
X151976190Y-96785714D02*
X151976190Y-97452380D01*
X151547619Y-96785714D02*
X151547619Y-97309523D01*
X151595238Y-97404761D01*
X151690476Y-97452380D01*
X151833333Y-97452380D01*
X151928571Y-97404761D01*
X151976190Y-97357142D01*
X152785714Y-96928571D02*
X152452380Y-96928571D01*
X152452380Y-97452380D02*
X152452380Y-96452380D01*
X152928571Y-96452380D01*
%TO.C,C12*%
X127957142Y-95757142D02*
X127909523Y-95804761D01*
X127766666Y-95852380D01*
X127671428Y-95852380D01*
X127528571Y-95804761D01*
X127433333Y-95709523D01*
X127385714Y-95614285D01*
X127338095Y-95423809D01*
X127338095Y-95280952D01*
X127385714Y-95090476D01*
X127433333Y-94995238D01*
X127528571Y-94900000D01*
X127671428Y-94852380D01*
X127766666Y-94852380D01*
X127909523Y-94900000D01*
X127957142Y-94947619D01*
X128909523Y-95852380D02*
X128338095Y-95852380D01*
X128623809Y-95852380D02*
X128623809Y-94852380D01*
X128528571Y-94995238D01*
X128433333Y-95090476D01*
X128338095Y-95138095D01*
X129290476Y-94947619D02*
X129338095Y-94900000D01*
X129433333Y-94852380D01*
X129671428Y-94852380D01*
X129766666Y-94900000D01*
X129814285Y-94947619D01*
X129861904Y-95042857D01*
X129861904Y-95138095D01*
X129814285Y-95280952D01*
X129242857Y-95852380D01*
X129861904Y-95852380D01*
X127257142Y-96352380D02*
X127352380Y-96352380D01*
X127447619Y-96400000D01*
X127495238Y-96447619D01*
X127542857Y-96542857D01*
X127590476Y-96733333D01*
X127590476Y-96971428D01*
X127542857Y-97161904D01*
X127495238Y-97257142D01*
X127447619Y-97304761D01*
X127352380Y-97352380D01*
X127257142Y-97352380D01*
X127161904Y-97304761D01*
X127114285Y-97257142D01*
X127066666Y-97161904D01*
X127019047Y-96971428D01*
X127019047Y-96733333D01*
X127066666Y-96542857D01*
X127114285Y-96447619D01*
X127161904Y-96400000D01*
X127257142Y-96352380D01*
X128019047Y-97257142D02*
X128066666Y-97304761D01*
X128019047Y-97352380D01*
X127971428Y-97304761D01*
X128019047Y-97257142D01*
X128019047Y-97352380D01*
X129019047Y-97352380D02*
X128447619Y-97352380D01*
X128733333Y-97352380D02*
X128733333Y-96352380D01*
X128638095Y-96495238D01*
X128542857Y-96590476D01*
X128447619Y-96638095D01*
X129876190Y-96685714D02*
X129876190Y-97352380D01*
X129447619Y-96685714D02*
X129447619Y-97209523D01*
X129495238Y-97304761D01*
X129590476Y-97352380D01*
X129733333Y-97352380D01*
X129828571Y-97304761D01*
X129876190Y-97257142D01*
X130685714Y-96828571D02*
X130352380Y-96828571D01*
X130352380Y-97352380D02*
X130352380Y-96352380D01*
X130828571Y-96352380D01*
%TO.C,C4*%
X146033333Y-70257142D02*
X145985714Y-70304761D01*
X145842857Y-70352380D01*
X145747619Y-70352380D01*
X145604761Y-70304761D01*
X145509523Y-70209523D01*
X145461904Y-70114285D01*
X145414285Y-69923809D01*
X145414285Y-69780952D01*
X145461904Y-69590476D01*
X145509523Y-69495238D01*
X145604761Y-69400000D01*
X145747619Y-69352380D01*
X145842857Y-69352380D01*
X145985714Y-69400000D01*
X146033333Y-69447619D01*
X146890476Y-69685714D02*
X146890476Y-70352380D01*
X146652380Y-69304761D02*
X146414285Y-70019047D01*
X147033333Y-70019047D01*
X145457142Y-70752380D02*
X145552380Y-70752380D01*
X145647619Y-70800000D01*
X145695238Y-70847619D01*
X145742857Y-70942857D01*
X145790476Y-71133333D01*
X145790476Y-71371428D01*
X145742857Y-71561904D01*
X145695238Y-71657142D01*
X145647619Y-71704761D01*
X145552380Y-71752380D01*
X145457142Y-71752380D01*
X145361904Y-71704761D01*
X145314285Y-71657142D01*
X145266666Y-71561904D01*
X145219047Y-71371428D01*
X145219047Y-71133333D01*
X145266666Y-70942857D01*
X145314285Y-70847619D01*
X145361904Y-70800000D01*
X145457142Y-70752380D01*
X146219047Y-71657142D02*
X146266666Y-71704761D01*
X146219047Y-71752380D01*
X146171428Y-71704761D01*
X146219047Y-71657142D01*
X146219047Y-71752380D01*
X147219047Y-71752380D02*
X146647619Y-71752380D01*
X146933333Y-71752380D02*
X146933333Y-70752380D01*
X146838095Y-70895238D01*
X146742857Y-70990476D01*
X146647619Y-71038095D01*
X148076190Y-71085714D02*
X148076190Y-71752380D01*
X147647619Y-71085714D02*
X147647619Y-71609523D01*
X147695238Y-71704761D01*
X147790476Y-71752380D01*
X147933333Y-71752380D01*
X148028571Y-71704761D01*
X148076190Y-71657142D01*
X148885714Y-71228571D02*
X148552380Y-71228571D01*
X148552380Y-71752380D02*
X148552380Y-70752380D01*
X149028571Y-70752380D01*
%TO.C,C2*%
X175033333Y-61657142D02*
X174985714Y-61704761D01*
X174842857Y-61752380D01*
X174747619Y-61752380D01*
X174604761Y-61704761D01*
X174509523Y-61609523D01*
X174461904Y-61514285D01*
X174414285Y-61323809D01*
X174414285Y-61180952D01*
X174461904Y-60990476D01*
X174509523Y-60895238D01*
X174604761Y-60800000D01*
X174747619Y-60752380D01*
X174842857Y-60752380D01*
X174985714Y-60800000D01*
X175033333Y-60847619D01*
X175414285Y-60847619D02*
X175461904Y-60800000D01*
X175557142Y-60752380D01*
X175795238Y-60752380D01*
X175890476Y-60800000D01*
X175938095Y-60847619D01*
X175985714Y-60942857D01*
X175985714Y-61038095D01*
X175938095Y-61180952D01*
X175366666Y-61752380D01*
X175985714Y-61752380D01*
X172928571Y-67052380D02*
X172357142Y-67052380D01*
X172642857Y-67052380D02*
X172642857Y-66052380D01*
X172547619Y-66195238D01*
X172452380Y-66290476D01*
X172357142Y-66338095D01*
X173547619Y-66052380D02*
X173642857Y-66052380D01*
X173738095Y-66100000D01*
X173785714Y-66147619D01*
X173833333Y-66242857D01*
X173880952Y-66433333D01*
X173880952Y-66671428D01*
X173833333Y-66861904D01*
X173785714Y-66957142D01*
X173738095Y-67004761D01*
X173642857Y-67052380D01*
X173547619Y-67052380D01*
X173452380Y-67004761D01*
X173404761Y-66957142D01*
X173357142Y-66861904D01*
X173309523Y-66671428D01*
X173309523Y-66433333D01*
X173357142Y-66242857D01*
X173404761Y-66147619D01*
X173452380Y-66100000D01*
X173547619Y-66052380D01*
X174738095Y-66385714D02*
X174738095Y-67052380D01*
X174309523Y-66385714D02*
X174309523Y-66909523D01*
X174357142Y-67004761D01*
X174452380Y-67052380D01*
X174595238Y-67052380D01*
X174690476Y-67004761D01*
X174738095Y-66957142D01*
X175547619Y-66528571D02*
X175214285Y-66528571D01*
X175214285Y-67052380D02*
X175214285Y-66052380D01*
X175690476Y-66052380D01*
%TO.C,C1*%
X156333333Y-66957142D02*
X156285714Y-67004761D01*
X156142857Y-67052380D01*
X156047619Y-67052380D01*
X155904761Y-67004761D01*
X155809523Y-66909523D01*
X155761904Y-66814285D01*
X155714285Y-66623809D01*
X155714285Y-66480952D01*
X155761904Y-66290476D01*
X155809523Y-66195238D01*
X155904761Y-66100000D01*
X156047619Y-66052380D01*
X156142857Y-66052380D01*
X156285714Y-66100000D01*
X156333333Y-66147619D01*
X157285714Y-67052380D02*
X156714285Y-67052380D01*
X157000000Y-67052380D02*
X157000000Y-66052380D01*
X156904761Y-66195238D01*
X156809523Y-66290476D01*
X156714285Y-66338095D01*
X156052380Y-68552380D02*
X155480952Y-68552380D01*
X155766666Y-68552380D02*
X155766666Y-67552380D01*
X155671428Y-67695238D01*
X155576190Y-67790476D01*
X155480952Y-67838095D01*
X156671428Y-67552380D02*
X156766666Y-67552380D01*
X156861904Y-67600000D01*
X156909523Y-67647619D01*
X156957142Y-67742857D01*
X157004761Y-67933333D01*
X157004761Y-68171428D01*
X156957142Y-68361904D01*
X156909523Y-68457142D01*
X156861904Y-68504761D01*
X156766666Y-68552380D01*
X156671428Y-68552380D01*
X156576190Y-68504761D01*
X156528571Y-68457142D01*
X156480952Y-68361904D01*
X156433333Y-68171428D01*
X156433333Y-67933333D01*
X156480952Y-67742857D01*
X156528571Y-67647619D01*
X156576190Y-67600000D01*
X156671428Y-67552380D01*
X157623809Y-67552380D02*
X157719047Y-67552380D01*
X157814285Y-67600000D01*
X157861904Y-67647619D01*
X157909523Y-67742857D01*
X157957142Y-67933333D01*
X157957142Y-68171428D01*
X157909523Y-68361904D01*
X157861904Y-68457142D01*
X157814285Y-68504761D01*
X157719047Y-68552380D01*
X157623809Y-68552380D01*
X157528571Y-68504761D01*
X157480952Y-68457142D01*
X157433333Y-68361904D01*
X157385714Y-68171428D01*
X157385714Y-67933333D01*
X157433333Y-67742857D01*
X157480952Y-67647619D01*
X157528571Y-67600000D01*
X157623809Y-67552380D01*
X158814285Y-67885714D02*
X158814285Y-68552380D01*
X158385714Y-67885714D02*
X158385714Y-68409523D01*
X158433333Y-68504761D01*
X158528571Y-68552380D01*
X158671428Y-68552380D01*
X158766666Y-68504761D01*
X158814285Y-68457142D01*
X159623809Y-68028571D02*
X159290476Y-68028571D01*
X159290476Y-68552380D02*
X159290476Y-67552380D01*
X159766666Y-67552380D01*
%TO.C,U2*%
X167538095Y-65852380D02*
X167538095Y-66661904D01*
X167585714Y-66757142D01*
X167633333Y-66804761D01*
X167728571Y-66852380D01*
X167919047Y-66852380D01*
X168014285Y-66804761D01*
X168061904Y-66757142D01*
X168109523Y-66661904D01*
X168109523Y-65852380D01*
X168538095Y-65947619D02*
X168585714Y-65900000D01*
X168680952Y-65852380D01*
X168919047Y-65852380D01*
X169014285Y-65900000D01*
X169061904Y-65947619D01*
X169109523Y-66042857D01*
X169109523Y-66138095D01*
X169061904Y-66280952D01*
X168490476Y-66852380D01*
X169109523Y-66852380D01*
X166804761Y-68252380D02*
X166328571Y-68252380D01*
X166328571Y-67252380D01*
X167042857Y-67252380D02*
X167709523Y-67252380D01*
X167280952Y-68252380D01*
X168233333Y-67680952D02*
X168138095Y-67633333D01*
X168090476Y-67585714D01*
X168042857Y-67490476D01*
X168042857Y-67442857D01*
X168090476Y-67347619D01*
X168138095Y-67300000D01*
X168233333Y-67252380D01*
X168423809Y-67252380D01*
X168519047Y-67300000D01*
X168566666Y-67347619D01*
X168614285Y-67442857D01*
X168614285Y-67490476D01*
X168566666Y-67585714D01*
X168519047Y-67633333D01*
X168423809Y-67680952D01*
X168233333Y-67680952D01*
X168138095Y-67728571D01*
X168090476Y-67776190D01*
X168042857Y-67871428D01*
X168042857Y-68061904D01*
X168090476Y-68157142D01*
X168138095Y-68204761D01*
X168233333Y-68252380D01*
X168423809Y-68252380D01*
X168519047Y-68204761D01*
X168566666Y-68157142D01*
X168614285Y-68061904D01*
X168614285Y-67871428D01*
X168566666Y-67776190D01*
X168519047Y-67728571D01*
X168423809Y-67680952D01*
X169233333Y-67252380D02*
X169328571Y-67252380D01*
X169423809Y-67300000D01*
X169471428Y-67347619D01*
X169519047Y-67442857D01*
X169566666Y-67633333D01*
X169566666Y-67871428D01*
X169519047Y-68061904D01*
X169471428Y-68157142D01*
X169423809Y-68204761D01*
X169328571Y-68252380D01*
X169233333Y-68252380D01*
X169138095Y-68204761D01*
X169090476Y-68157142D01*
X169042857Y-68061904D01*
X168995238Y-67871428D01*
X168995238Y-67633333D01*
X169042857Y-67442857D01*
X169090476Y-67347619D01*
X169138095Y-67300000D01*
X169233333Y-67252380D01*
X170471428Y-67252380D02*
X169995238Y-67252380D01*
X169947619Y-67728571D01*
X169995238Y-67680952D01*
X170090476Y-67633333D01*
X170328571Y-67633333D01*
X170423809Y-67680952D01*
X170471428Y-67728571D01*
X170519047Y-67823809D01*
X170519047Y-68061904D01*
X170471428Y-68157142D01*
X170423809Y-68204761D01*
X170328571Y-68252380D01*
X170090476Y-68252380D01*
X169995238Y-68204761D01*
X169947619Y-68157142D01*
%TO.C,J15*%
X153290476Y-62652380D02*
X153290476Y-63366666D01*
X153242857Y-63509523D01*
X153147619Y-63604761D01*
X153004761Y-63652380D01*
X152909523Y-63652380D01*
X154290476Y-63652380D02*
X153719047Y-63652380D01*
X154004761Y-63652380D02*
X154004761Y-62652380D01*
X153909523Y-62795238D01*
X153814285Y-62890476D01*
X153719047Y-62938095D01*
X155195238Y-62652380D02*
X154719047Y-62652380D01*
X154671428Y-63128571D01*
X154719047Y-63080952D01*
X154814285Y-63033333D01*
X155052380Y-63033333D01*
X155147619Y-63080952D01*
X155195238Y-63128571D01*
X155242857Y-63223809D01*
X155242857Y-63461904D01*
X155195238Y-63557142D01*
X155147619Y-63604761D01*
X155052380Y-63652380D01*
X154814285Y-63652380D01*
X154719047Y-63604761D01*
X154671428Y-63557142D01*
%TO.C,J16*%
X117190476Y-72052380D02*
X117190476Y-72766666D01*
X117142857Y-72909523D01*
X117047619Y-73004761D01*
X116904761Y-73052380D01*
X116809523Y-73052380D01*
X118190476Y-73052380D02*
X117619047Y-73052380D01*
X117904761Y-73052380D02*
X117904761Y-72052380D01*
X117809523Y-72195238D01*
X117714285Y-72290476D01*
X117619047Y-72338095D01*
X119047619Y-72052380D02*
X118857142Y-72052380D01*
X118761904Y-72100000D01*
X118714285Y-72147619D01*
X118619047Y-72290476D01*
X118571428Y-72480952D01*
X118571428Y-72861904D01*
X118619047Y-72957142D01*
X118666666Y-73004761D01*
X118761904Y-73052380D01*
X118952380Y-73052380D01*
X119047619Y-73004761D01*
X119095238Y-72957142D01*
X119142857Y-72861904D01*
X119142857Y-72623809D01*
X119095238Y-72528571D01*
X119047619Y-72480952D01*
X118952380Y-72433333D01*
X118761904Y-72433333D01*
X118666666Y-72480952D01*
X118619047Y-72528571D01*
X118571428Y-72623809D01*
X120976190Y-73052380D02*
X120642857Y-72576190D01*
X120404761Y-73052380D02*
X120404761Y-72052380D01*
X120785714Y-72052380D01*
X120880952Y-72100000D01*
X120928571Y-72147619D01*
X120976190Y-72242857D01*
X120976190Y-72385714D01*
X120928571Y-72480952D01*
X120880952Y-72528571D01*
X120785714Y-72576190D01*
X120404761Y-72576190D01*
X121690476Y-72052380D02*
X121690476Y-72766666D01*
X121642857Y-72909523D01*
X121547619Y-73004761D01*
X121404761Y-73052380D01*
X121309523Y-73052380D01*
X122595238Y-72385714D02*
X122595238Y-73052380D01*
X122357142Y-72004761D02*
X122119047Y-72719047D01*
X122738095Y-72719047D01*
X123595238Y-72052380D02*
X123119047Y-72052380D01*
X123071428Y-72528571D01*
X123119047Y-72480952D01*
X123214285Y-72433333D01*
X123452380Y-72433333D01*
X123547619Y-72480952D01*
X123595238Y-72528571D01*
X123642857Y-72623809D01*
X123642857Y-72861904D01*
X123595238Y-72957142D01*
X123547619Y-73004761D01*
X123452380Y-73052380D01*
X123214285Y-73052380D01*
X123119047Y-73004761D01*
X123071428Y-72957142D01*
%TD*%
M02*
