M48
; DRILL file {KiCad 9.0.2} date 2025-08-10T10:42:45-0400
; FORMAT={-:-/ absolute / inch / decimal}
; #@! TF.CreationDate,2025-08-10T10:42:45-04:00
; #@! TF.GenerationSoftware,Kicad,Pcbnew,9.0.2
; #@! TF.FileFunction,Plated,1,2,PTH
FMAT,2
INCH
; #@! TA.AperFunction,Plated,PTH,ViaDrill
T1C0.0118
; #@! TA.AperFunction,Plated,PTH,ComponentDrill
T2C0.0315
; #@! TA.AperFunction,Plated,PTH,ComponentDrill
T3C0.0394
; #@! TA.AperFunction,Plated,PTH,ComponentDrill
T4C0.0402
; #@! TA.AperFunction,Plated,PTH,ComponentDrill
T5C0.0433
; #@! TA.AperFunction,Plated,PTH,ComponentDrill
T6C0.0472
; #@! TA.AperFunction,Plated,PTH,ComponentDrill
T7C0.0512
%
G90
G05
T1
X2.9764Y-4.8622
X3.0866Y-5.4409
X3.0866Y-5.4846
X3.0866Y-5.5319
X3.1457Y-5.3681
X3.2116Y-5.1053
X3.2116Y-5.1581
X3.2116Y-5.2108
X3.2116Y-5.2636
X3.2116Y-5.3163
X3.2116Y-5.3691
X3.2815Y-5.0837
X3.2835Y-5.3927
X3.3285Y-5.0837
X3.3305Y-5.3927
X3.3755Y-5.0837
X3.3775Y-5.3927
X3.4225Y-5.0837
X3.4245Y-5.3927
X3.4695Y-5.0837
X3.4715Y-5.3927
X3.5335Y-5.1634
X3.5344Y-5.3927
X3.5374Y-5.1083
X3.5374Y-5.2205
X3.5374Y-5.2766
X3.5374Y-5.3278
X3.7094Y-5.3331
X3.7094Y-5.3717
X3.7283Y-5.1457
X5.436Y-4.8868
T2
X3.9577Y-5.2435
X3.9577Y-5.5435
X4.0577Y-5.2435
X4.0577Y-5.5435
X4.1821Y-5.2435
X4.1821Y-5.5435
X4.2821Y-5.2435
X4.2821Y-5.5435
X4.4065Y-5.2435
X4.4065Y-5.5435
X4.5065Y-5.2435
X4.5065Y-5.5435
X4.6309Y-5.2437
X4.6309Y-5.5437
X4.7309Y-5.2437
X4.7309Y-5.5437
X4.8563Y-5.2437
X4.8563Y-5.5437
X4.9563Y-5.2437
X4.9563Y-5.5437
X5.0813Y-5.2435
X5.0813Y-5.5435
X5.1813Y-5.2435
X5.1813Y-5.5435
T3
X3.428Y-5.5512
X3.528Y-5.5512
X3.626Y-3.9035
X3.628Y-5.5512
X3.7244Y-3.9035
X3.7795Y-5.4504
X3.7795Y-5.5504
X3.7795Y-5.6504
X3.8268Y-3.9035
X3.9252Y-3.9035
X5.5768Y-5.1447
X5.5768Y-5.2447
X5.5768Y-5.3447
X5.5768Y-5.4447
T4
X3.4043Y-4.1854
X3.4043Y-4.8854
X3.5043Y-4.1854
X3.5043Y-4.8854
X3.6043Y-4.1854
X3.6043Y-4.8854
X3.7043Y-4.1854
X3.7043Y-4.8854
X3.8043Y-4.1854
X3.8043Y-4.8854
X3.9043Y-4.1854
X3.9043Y-4.8854
X4.0043Y-4.1854
X4.0043Y-4.8854
X4.1043Y-4.1854
X4.1043Y-4.8854
X4.2043Y-4.1854
X4.2043Y-4.8854
X4.3043Y-4.1854
X4.3043Y-4.8854
X4.4043Y-4.1854
X4.4043Y-4.8854
X4.5043Y-4.1854
X4.5043Y-4.8854
X4.6043Y-4.1854
X4.6043Y-4.8854
X4.7043Y-4.1854
X4.7043Y-4.8854
X4.8043Y-4.1854
X4.8043Y-4.8854
X4.9043Y-4.1854
X4.9043Y-4.8854
X5.0043Y-4.1854
X5.0043Y-4.8854
X5.1043Y-4.1854
X5.1043Y-4.8854
X5.2043Y-4.1854
X5.2043Y-4.8854
X5.3043Y-4.1854
X5.3043Y-4.8854
T5
X4.4331Y-3.815
X4.4331Y-3.9921
X4.689Y-3.815
X4.689Y-3.9921
T6
X3.7931Y-5.9333
X3.9931Y-5.9333
X4.1931Y-5.9333
X4.3931Y-5.9333
X4.5931Y-5.9333
X4.7931Y-5.9333
X4.9931Y-5.9333
X5.1931Y-5.9333
T7
X3.2813Y-5.8671
X3.4813Y-5.8671
M30
