%TF.GenerationSoftware,KiCad,Pcbnew,(6.0.7)*%
%TF.CreationDate,2022-08-24T09:25:49-04:00*%
%TF.ProjectId,PB_16,50425f31-362e-46b6-9963-61645f706362,v2*%
%TF.SameCoordinates,Original*%
%TF.FileFunction,Paste,Top*%
%TF.FilePolarity,Positive*%
%FSLAX46Y46*%
G04 Gerber Fmt 4.6, Leading zero omitted, Abs format (unit mm)*
G04 Created by KiCad (PCBNEW (6.0.7)) date 2022-08-24 09:25:49*
%MOMM*%
%LPD*%
G01*
G04 APERTURE LIST*
G04 Aperture macros list*
%AMRoundRect*
0 Rectangle with rounded corners*
0 $1 Rounding radius*
0 $2 $3 $4 $5 $6 $7 $8 $9 X,Y pos of 4 corners*
0 Add a 4 corners polygon primitive as box body*
4,1,4,$2,$3,$4,$5,$6,$7,$8,$9,$2,$3,0*
0 Add four circle primitives for the rounded corners*
1,1,$1+$1,$2,$3*
1,1,$1+$1,$4,$5*
1,1,$1+$1,$6,$7*
1,1,$1+$1,$8,$9*
0 Add four rect primitives between the rounded corners*
20,1,$1+$1,$2,$3,$4,$5,0*
20,1,$1+$1,$4,$5,$6,$7,0*
20,1,$1+$1,$6,$7,$8,$9,0*
20,1,$1+$1,$8,$9,$2,$3,0*%
G04 Aperture macros list end*
%ADD10RoundRect,0.237500X0.237500X-0.300000X0.237500X0.300000X-0.237500X0.300000X-0.237500X-0.300000X0*%
%ADD11RoundRect,0.237500X-0.237500X0.287500X-0.237500X-0.287500X0.237500X-0.287500X0.237500X0.287500X0*%
%ADD12RoundRect,0.237500X-0.237500X0.250000X-0.237500X-0.250000X0.237500X-0.250000X0.237500X0.250000X0*%
%ADD13RoundRect,0.237500X0.287500X0.237500X-0.287500X0.237500X-0.287500X-0.237500X0.287500X-0.237500X0*%
%ADD14RoundRect,0.237500X0.250000X0.237500X-0.250000X0.237500X-0.250000X-0.237500X0.250000X-0.237500X0*%
%ADD15RoundRect,0.150000X-0.150000X0.875000X-0.150000X-0.875000X0.150000X-0.875000X0.150000X0.875000X0*%
%ADD16RoundRect,0.237500X-0.250000X-0.237500X0.250000X-0.237500X0.250000X0.237500X-0.250000X0.237500X0*%
%ADD17RoundRect,0.237500X0.237500X-0.250000X0.237500X0.250000X-0.237500X0.250000X-0.237500X-0.250000X0*%
%ADD18RoundRect,0.250000X-1.050000X-0.550000X1.050000X-0.550000X1.050000X0.550000X-1.050000X0.550000X0*%
G04 APERTURE END LIST*
D10*
%TO.C,C2*%
X-19166200Y23893200D03*
X-19166200Y25618200D03*
%TD*%
%TO.C,C1*%
X-78566200Y23913200D03*
X-78566200Y25638200D03*
%TD*%
D11*
%TO.C,D3*%
X-128516200Y7647500D03*
X-128516200Y5897500D03*
%TD*%
D12*
%TO.C,R1*%
X-128516200Y2124000D03*
X-128516200Y299000D03*
%TD*%
D13*
%TO.C,D5*%
X-9091200Y25735700D03*
X-10841200Y25735700D03*
%TD*%
D14*
%TO.C,R3*%
X-4963700Y25745700D03*
X-6788700Y25745700D03*
%TD*%
D12*
%TO.C,R2*%
X15283800Y2124000D03*
X15283800Y299000D03*
%TD*%
D11*
%TO.C,D4*%
X15283800Y7647500D03*
X15283800Y5897500D03*
%TD*%
D15*
%TO.C,U2*%
X-22051200Y33185700D03*
X-23321200Y33185700D03*
X-24591200Y33185700D03*
X-25861200Y33185700D03*
X-27131200Y33185700D03*
X-28401200Y33185700D03*
X-29671200Y33185700D03*
X-30941200Y33185700D03*
X-32211200Y33185700D03*
X-33481200Y33185700D03*
X-33481200Y23885700D03*
X-32211200Y23885700D03*
X-30941200Y23885700D03*
X-29671200Y23885700D03*
X-28401200Y23885700D03*
X-27131200Y23885700D03*
X-25861200Y23885700D03*
X-24591200Y23885700D03*
X-23321200Y23885700D03*
X-22051200Y23885700D03*
%TD*%
%TO.C,U1*%
X-81251200Y33185700D03*
X-82521200Y33185700D03*
X-83791200Y33185700D03*
X-85061200Y33185700D03*
X-86331200Y33185700D03*
X-87601200Y33185700D03*
X-88871200Y33185700D03*
X-90141200Y33185700D03*
X-91411200Y33185700D03*
X-92681200Y33185700D03*
X-92681200Y23885700D03*
X-91411200Y23885700D03*
X-90141200Y23885700D03*
X-88871200Y23885700D03*
X-87601200Y23885700D03*
X-86331200Y23885700D03*
X-85061200Y23885700D03*
X-83791200Y23885700D03*
X-82521200Y23885700D03*
X-81251200Y23885700D03*
%TD*%
D14*
%TO.C,R14*%
X-32153700Y20060700D03*
X-33978700Y20060700D03*
%TD*%
D16*
%TO.C,R19*%
X-14503700Y20060700D03*
X-12678700Y20060700D03*
%TD*%
D12*
%TO.C,R23*%
X-87016201Y42998200D03*
X-87016201Y41173200D03*
%TD*%
D17*
%TO.C,R46*%
X-24316200Y41073200D03*
X-24316200Y42898200D03*
%TD*%
D16*
%TO.C,R11*%
X-68678700Y20060700D03*
X-66853700Y20060700D03*
%TD*%
D17*
%TO.C,R48*%
X-21316200Y41073200D03*
X-21316200Y42898200D03*
%TD*%
D12*
%TO.C,R37*%
X-37816200Y42898200D03*
X-37816200Y41073200D03*
%TD*%
D14*
%TO.C,R13*%
X-35578700Y20060700D03*
X-37403700Y20060700D03*
%TD*%
D17*
%TO.C,R32*%
X-64216204Y41173200D03*
X-64216204Y42998200D03*
%TD*%
D12*
%TO.C,R33*%
X-61682871Y42998200D03*
X-61682871Y41173200D03*
%TD*%
%TO.C,R39*%
X-34816200Y42898200D03*
X-34816200Y41073200D03*
%TD*%
D17*
%TO.C,R36*%
X-39316200Y41073200D03*
X-39316200Y42898200D03*
%TD*%
D12*
%TO.C,R45*%
X-25816200Y42898200D03*
X-25816200Y41073200D03*
%TD*%
%TO.C,R26*%
X-79416202Y42998200D03*
X-79416202Y41173200D03*
%TD*%
D17*
%TO.C,R42*%
X-30316200Y41073200D03*
X-30316200Y42898200D03*
%TD*%
D12*
%TO.C,R28*%
X-74349536Y42998200D03*
X-74349536Y41173200D03*
%TD*%
D14*
%TO.C,R5*%
X-93993700Y20060700D03*
X-95818700Y20060700D03*
%TD*%
D18*
%TO.C,C3*%
X-16116200Y31735700D03*
X-12516200Y31735700D03*
%TD*%
D14*
%TO.C,R6*%
X-90503700Y20060700D03*
X-92328700Y20060700D03*
%TD*%
D12*
%TO.C,R22*%
X-89549534Y42998200D03*
X-89549534Y41173200D03*
%TD*%
D17*
%TO.C,R40*%
X-33316200Y41073200D03*
X-33316200Y42898200D03*
%TD*%
D12*
%TO.C,R25*%
X-81949535Y42998200D03*
X-81949535Y41173200D03*
%TD*%
D16*
%TO.C,R17*%
X-23103700Y20060700D03*
X-21278700Y20060700D03*
%TD*%
D12*
%TO.C,R20*%
X-94616200Y42998200D03*
X-94616200Y41173200D03*
%TD*%
%TO.C,R49*%
X-19816200Y42898200D03*
X-19816200Y41073200D03*
%TD*%
D16*
%TO.C,R7*%
X-88928700Y20060700D03*
X-87103700Y20060700D03*
%TD*%
%TO.C,R8*%
X-84748700Y20060700D03*
X-82923700Y20060700D03*
%TD*%
D12*
%TO.C,R21*%
X-92082867Y42998200D03*
X-92082867Y41173200D03*
%TD*%
%TO.C,R35*%
X-56616200Y42998200D03*
X-56616200Y41173200D03*
%TD*%
%TO.C,R51*%
X-16816200Y42898200D03*
X-16816200Y41073200D03*
%TD*%
D16*
%TO.C,R16*%
X-26978700Y20060700D03*
X-25153700Y20060700D03*
%TD*%
D12*
%TO.C,R27*%
X-76882869Y42998200D03*
X-76882869Y41173200D03*
%TD*%
%TO.C,R31*%
X-66749537Y42998200D03*
X-66749537Y41173200D03*
%TD*%
D16*
%TO.C,R15*%
X-30578700Y20060700D03*
X-28753700Y20060700D03*
%TD*%
D12*
%TO.C,R41*%
X-31816200Y42898200D03*
X-31816200Y41073200D03*
%TD*%
%TO.C,R24*%
X-84482868Y42998200D03*
X-84482868Y41173200D03*
%TD*%
D14*
%TO.C,R12*%
X-42503700Y20060700D03*
X-44328700Y20060700D03*
%TD*%
D16*
%TO.C,R9*%
X-78728700Y20060700D03*
X-76903700Y20060700D03*
%TD*%
D17*
%TO.C,R50*%
X-18316200Y41073200D03*
X-18316200Y42898200D03*
%TD*%
D16*
%TO.C,R10*%
X-74588700Y20060700D03*
X-72763700Y20060700D03*
%TD*%
D12*
%TO.C,R47*%
X-22816200Y42898200D03*
X-22816200Y41073200D03*
%TD*%
%TO.C,R30*%
X-69282870Y42998200D03*
X-69282870Y41173200D03*
%TD*%
D14*
%TO.C,R4*%
X-99463700Y20060700D03*
X-101288700Y20060700D03*
%TD*%
D16*
%TO.C,R18*%
X-18103700Y20060700D03*
X-16278700Y20060700D03*
%TD*%
D12*
%TO.C,R29*%
X-71816203Y42998200D03*
X-71816203Y41173200D03*
%TD*%
%TO.C,R43*%
X-28816200Y42898200D03*
X-28816200Y41073200D03*
%TD*%
D17*
%TO.C,R44*%
X-27316200Y41073200D03*
X-27316200Y42898200D03*
%TD*%
D12*
%TO.C,R34*%
X-59149538Y42998200D03*
X-59149538Y41173200D03*
%TD*%
D17*
%TO.C,R38*%
X-36316200Y41073200D03*
X-36316200Y42898200D03*
%TD*%
M02*
