%TF.GenerationSoftware,KiCad,Pcbnew,(6.0.7)*%
%TF.CreationDate,2022-08-24T09:25:49-04:00*%
%TF.ProjectId,PB_16,50425f31-362e-46b6-9963-61645f706362,v2*%
%TF.SameCoordinates,Original*%
%TF.FileFunction,Soldermask,Bot*%
%TF.FilePolarity,Negative*%
%FSLAX46Y46*%
G04 Gerber Fmt 4.6, Leading zero omitted, Abs format (unit mm)*
G04 Created by KiCad (PCBNEW (6.0.7)) date 2022-08-24 09:25:49*
%MOMM*%
%LPD*%
G01*
G04 APERTURE LIST*
G04 Aperture macros list*
%AMRoundRect*
0 Rectangle with rounded corners*
0 $1 Rounding radius*
0 $2 $3 $4 $5 $6 $7 $8 $9 X,Y pos of 4 corners*
0 Add a 4 corners polygon primitive as box body*
4,1,4,$2,$3,$4,$5,$6,$7,$8,$9,$2,$3,0*
0 Add four circle primitives for the rounded corners*
1,1,$1+$1,$2,$3*
1,1,$1+$1,$4,$5*
1,1,$1+$1,$6,$7*
1,1,$1+$1,$8,$9*
0 Add four rect primitives between the rounded corners*
20,1,$1+$1,$2,$3,$4,$5,0*
20,1,$1+$1,$4,$5,$6,$7,0*
20,1,$1+$1,$6,$7,$8,$9,0*
20,1,$1+$1,$8,$9,$2,$3,0*%
G04 Aperture macros list end*
%ADD10RoundRect,0.301000X-0.650000X-1.550000X0.650000X-1.550000X0.650000X1.550000X-0.650000X1.550000X0*%
%ADD11O,1.902000X3.702000*%
%ADD12C,2.577000*%
%ADD13C,3.802000*%
%ADD14RoundRect,0.301000X0.600000X-0.600000X0.600000X0.600000X-0.600000X0.600000X-0.600000X-0.600000X0*%
%ADD15C,1.802000*%
%ADD16RoundRect,0.051000X2.000000X2.000000X-2.000000X2.000000X-2.000000X-2.000000X2.000000X-2.000000X0*%
%ADD17C,4.102000*%
%ADD18RoundRect,0.051000X-2.000000X-2.000000X2.000000X-2.000000X2.000000X2.000000X-2.000000X2.000000X0*%
%ADD19RoundRect,0.051000X-0.765000X-0.765000X0.765000X-0.765000X0.765000X0.765000X-0.765000X0.765000X0*%
%ADD20C,1.632000*%
G04 APERTURE END LIST*
D10*
%TO.C,J2*%
X-112017200Y3500D03*
D11*
X-108517200Y3500D03*
X-105017200Y3500D03*
%TD*%
D10*
%TO.C,J5*%
X-82017200Y13003500D03*
D11*
X-78517200Y13003500D03*
X-75017200Y13003500D03*
%TD*%
D10*
%TO.C,J6*%
X-81902858Y3500D03*
D11*
X-78402858Y3500D03*
X-74902858Y3500D03*
%TD*%
D10*
%TO.C,J7*%
X-67017200Y13003500D03*
D11*
X-63517200Y13003500D03*
X-60017200Y13003500D03*
%TD*%
D10*
%TO.C,J8*%
X-67017200Y3500D03*
D11*
X-63517200Y3500D03*
X-60017200Y3500D03*
%TD*%
D10*
%TO.C,J9*%
X-52017200Y13003500D03*
D11*
X-48517200Y13003500D03*
X-45017200Y13003500D03*
%TD*%
D10*
%TO.C,J10*%
X-52017200Y3500D03*
D11*
X-48517200Y3500D03*
X-45017200Y3500D03*
%TD*%
D10*
%TO.C,J11*%
X-37017200Y13003500D03*
D11*
X-33517200Y13003500D03*
X-30017200Y13003500D03*
%TD*%
D10*
%TO.C,J12*%
X-37017200Y3500D03*
D11*
X-33517200Y3500D03*
X-30017200Y3500D03*
%TD*%
D10*
%TO.C,J13*%
X-22017200Y13003500D03*
D11*
X-18517200Y13003500D03*
X-15017200Y13003500D03*
%TD*%
D10*
%TO.C,J14*%
X-22017200Y3500D03*
D11*
X-18517200Y3500D03*
X-15017200Y3500D03*
%TD*%
D10*
%TO.C,J15*%
X-7017200Y13003500D03*
D11*
X-3517200Y13003500D03*
X-17200Y13003500D03*
%TD*%
D10*
%TO.C,J16*%
X-7017200Y3500D03*
D11*
X-3517200Y3500D03*
X-17200Y3500D03*
%TD*%
D12*
%TO.C,F1*%
X-106894600Y-20685100D03*
X-106894600Y-16985100D03*
X-106894600Y-12485100D03*
X-106894600Y-8785100D03*
%TD*%
%TO.C,F7*%
X-66692002Y-20695100D03*
X-66692002Y-16995100D03*
X-66692002Y-12495100D03*
X-66692002Y-8795100D03*
%TD*%
%TO.C,F14*%
X-19788971Y-20760100D03*
X-19788971Y-17060100D03*
X-19788971Y-12560100D03*
X-19788971Y-8860100D03*
%TD*%
%TO.C,F2*%
X-100194167Y-20700100D03*
X-100194167Y-17000100D03*
X-100194167Y-12500100D03*
X-100194167Y-8800100D03*
%TD*%
%TO.C,F6*%
X-73392435Y-20695100D03*
X-73392435Y-16995100D03*
X-73392435Y-12495100D03*
X-73392435Y-8795100D03*
%TD*%
%TO.C,F8*%
X-59991569Y-20695100D03*
X-59991569Y-16995100D03*
X-59991569Y-12495100D03*
X-59991569Y-8795100D03*
%TD*%
%TO.C,F9*%
X-53291136Y-20695100D03*
X-53291136Y-16995100D03*
X-53291136Y-12495100D03*
X-53291136Y-8795100D03*
%TD*%
%TO.C,F10*%
X-46590703Y-20695100D03*
X-46590703Y-16995100D03*
X-46590703Y-12495100D03*
X-46590703Y-8795100D03*
%TD*%
%TO.C,F16*%
X-6388100Y-20760100D03*
X-6388100Y-17060100D03*
X-6388100Y-12560100D03*
X-6388100Y-8860100D03*
%TD*%
%TO.C,F5*%
X-80092868Y-20695100D03*
X-80092868Y-16995100D03*
X-80092868Y-12495100D03*
X-80092868Y-8795100D03*
%TD*%
%TO.C,F3*%
X-93493734Y-20700100D03*
X-93493734Y-17000100D03*
X-93493734Y-12500100D03*
X-93493734Y-8800100D03*
%TD*%
%TO.C,F13*%
X-26489404Y-20760100D03*
X-26489404Y-17060100D03*
X-26489404Y-12560100D03*
X-26489404Y-8860100D03*
%TD*%
%TO.C,F11*%
X-39890270Y-20695100D03*
X-39890270Y-16995100D03*
X-39890270Y-12495100D03*
X-39890270Y-8795100D03*
%TD*%
%TO.C,F4*%
X-86793301Y-20700100D03*
X-86793301Y-17000100D03*
X-86793301Y-12500100D03*
X-86793301Y-8800100D03*
%TD*%
D10*
%TO.C,J1*%
X-112017200Y13003500D03*
D11*
X-108517200Y13003500D03*
X-105017200Y13003500D03*
%TD*%
D10*
%TO.C,J3*%
X-97017200Y13003500D03*
D11*
X-93517200Y13003500D03*
X-90017200Y13003500D03*
%TD*%
D10*
%TO.C,J4*%
X-97017200Y3500D03*
D11*
X-93517200Y3500D03*
X-90017200Y3500D03*
%TD*%
D12*
%TO.C,F15*%
X-13088538Y-20760100D03*
X-13088538Y-17060100D03*
X-13088538Y-12560100D03*
X-13088538Y-8860100D03*
%TD*%
%TO.C,F12*%
X-33189837Y-20695100D03*
X-33189837Y-16995100D03*
X-33189837Y-12495100D03*
X-33189837Y-8795100D03*
%TD*%
D13*
%TO.C,REF\u002A\u002A*%
X-120004200Y47536900D03*
%TD*%
%TO.C,REF\u002A\u002A*%
X6995800Y47536900D03*
%TD*%
D14*
%TO.C,J19*%
X-101176200Y47295700D03*
D15*
X-101176200Y49835700D03*
X-98636200Y47295700D03*
X-98636200Y49835700D03*
X-96096200Y47295700D03*
X-96096200Y49835700D03*
X-93556200Y47295700D03*
X-93556200Y49835700D03*
X-91016200Y47295700D03*
X-91016200Y49835700D03*
X-88476200Y47295700D03*
X-88476200Y49835700D03*
X-85936200Y47295700D03*
X-85936200Y49835700D03*
X-83396200Y47295700D03*
X-83396200Y49835700D03*
X-80856200Y47295700D03*
X-80856200Y49835700D03*
X-78316200Y47295700D03*
X-78316200Y49835700D03*
X-75776200Y47295700D03*
X-75776200Y49835700D03*
X-73236200Y47295700D03*
X-73236200Y49835700D03*
X-70696200Y47295700D03*
X-70696200Y49835700D03*
X-68156200Y47295700D03*
X-68156200Y49835700D03*
X-65616200Y47295700D03*
X-65616200Y49835700D03*
X-63076200Y47295700D03*
X-63076200Y49835700D03*
X-60536200Y47295700D03*
X-60536200Y49835700D03*
X-57996200Y47295700D03*
X-57996200Y49835700D03*
X-55456200Y47295700D03*
X-55456200Y49835700D03*
X-52916200Y47295700D03*
X-52916200Y49835700D03*
%TD*%
D16*
%TO.C,J17*%
X-115516200Y-15914300D03*
D17*
X-125016200Y-15914300D03*
%TD*%
D13*
%TO.C,REF\u002A\u002A*%
X7010400Y-3263100D03*
%TD*%
D18*
%TO.C,J18*%
X2283800Y-15814300D03*
D17*
X11783800Y-15814300D03*
%TD*%
D19*
%TO.C,J20*%
X-41956200Y47115700D03*
D20*
X-41956200Y49655700D03*
X-39416200Y47115700D03*
X-39416200Y49655700D03*
X-36876200Y47115700D03*
X-36876200Y49655700D03*
X-34336200Y47115700D03*
X-34336200Y49655700D03*
X-31796200Y47115700D03*
X-31796200Y49655700D03*
X-29256200Y47115700D03*
X-29256200Y49655700D03*
X-26716200Y47115700D03*
X-26716200Y49655700D03*
X-24176200Y47115700D03*
X-24176200Y49655700D03*
X-21636200Y47115700D03*
X-21636200Y49655700D03*
X-19096200Y47115700D03*
X-19096200Y49655700D03*
X-16556200Y47115700D03*
X-16556200Y49655700D03*
X-14016200Y47115700D03*
X-14016200Y49655700D03*
%TD*%
D13*
%TO.C,REF\u002A\u002A*%
X-119989600Y-3263100D03*
%TD*%
M02*
