%TF.GenerationSoftware,KiCad,Pcbnew,9.0.7*%
%TF.CreationDate,2026-01-16T01:14:38-05:00*%
%TF.ProjectId,PB_16,50425f31-362e-46b6-9963-61645f706362,v3*%
%TF.SameCoordinates,Original*%
%TF.FileFunction,Copper,L1,Top*%
%TF.FilePolarity,Positive*%
%FSLAX46Y46*%
G04 Gerber Fmt 4.6, Leading zero omitted, Abs format (unit mm)*
G04 Created by KiCad (PCBNEW 9.0.7) date 2026-01-16 01:14:38*
%MOMM*%
%LPD*%
G01*
G04 APERTURE LIST*
G04 Aperture macros list*
%AMRoundRect*
0 Rectangle with rounded corners*
0 $1 Rounding radius*
0 $2 $3 $4 $5 $6 $7 $8 $9 X,Y pos of 4 corners*
0 Add a 4 corners polygon primitive as box body*
4,1,4,$2,$3,$4,$5,$6,$7,$8,$9,$2,$3,0*
0 Add four circle primitives for the rounded corners*
1,1,$1+$1,$2,$3*
1,1,$1+$1,$4,$5*
1,1,$1+$1,$6,$7*
1,1,$1+$1,$8,$9*
0 Add four rect primitives between the rounded corners*
20,1,$1+$1,$2,$3,$4,$5,0*
20,1,$1+$1,$4,$5,$6,$7,0*
20,1,$1+$1,$6,$7,$8,$9,0*
20,1,$1+$1,$8,$9,$2,$3,0*%
G04 Aperture macros list end*
%TA.AperFunction,ComponentPad*%
%ADD10RoundRect,0.250000X0.600000X-0.600000X0.600000X0.600000X-0.600000X0.600000X-0.600000X-0.600000X0*%
%TD*%
%TA.AperFunction,ComponentPad*%
%ADD11C,1.700000*%
%TD*%
%TA.AperFunction,SMDPad,CuDef*%
%ADD12RoundRect,0.100000X-0.100000X0.637500X-0.100000X-0.637500X0.100000X-0.637500X0.100000X0.637500X0*%
%TD*%
%TA.AperFunction,SMDPad,CuDef*%
%ADD13RoundRect,0.200000X-0.275000X0.200000X-0.275000X-0.200000X0.275000X-0.200000X0.275000X0.200000X0*%
%TD*%
%TA.AperFunction,SMDPad,CuDef*%
%ADD14RoundRect,0.200000X0.275000X-0.200000X0.275000X0.200000X-0.275000X0.200000X-0.275000X-0.200000X0*%
%TD*%
%TA.AperFunction,SMDPad,CuDef*%
%ADD15RoundRect,0.200000X-0.200000X-0.275000X0.200000X-0.275000X0.200000X0.275000X-0.200000X0.275000X0*%
%TD*%
%TA.AperFunction,SMDPad,CuDef*%
%ADD16RoundRect,0.200000X0.200000X0.275000X-0.200000X0.275000X-0.200000X-0.275000X0.200000X-0.275000X0*%
%TD*%
%TA.AperFunction,ComponentPad*%
%ADD17RoundRect,0.291667X-0.758333X-1.508333X0.758333X-1.508333X0.758333X1.508333X-0.758333X1.508333X0*%
%TD*%
%TA.AperFunction,ComponentPad*%
%ADD18O,1.800000X3.600000*%
%TD*%
%TA.AperFunction,ComponentPad*%
%ADD19O,2.100000X3.600000*%
%TD*%
%TA.AperFunction,ComponentPad*%
%ADD20C,2.475000*%
%TD*%
%TA.AperFunction,SMDPad,CuDef*%
%ADD21RoundRect,0.218750X0.218750X0.256250X-0.218750X0.256250X-0.218750X-0.256250X0.218750X-0.256250X0*%
%TD*%
%TA.AperFunction,SMDPad,CuDef*%
%ADD22RoundRect,0.218750X-0.256250X0.218750X-0.256250X-0.218750X0.256250X-0.218750X0.256250X0.218750X0*%
%TD*%
%TA.AperFunction,SMDPad,CuDef*%
%ADD23RoundRect,0.225000X-0.250000X0.225000X-0.250000X-0.225000X0.250000X-0.225000X0.250000X0.225000X0*%
%TD*%
%TA.AperFunction,SMDPad,CuDef*%
%ADD24RoundRect,0.250000X-1.050000X-0.550000X1.050000X-0.550000X1.050000X0.550000X-1.050000X0.550000X0*%
%TD*%
%TA.AperFunction,ComponentPad*%
%ADD25C,1.530000*%
%TD*%
%TA.AperFunction,ComponentPad*%
%ADD26R,1.530000X1.530000*%
%TD*%
%TA.AperFunction,ComponentPad*%
%ADD27R,4.000000X4.000000*%
%TD*%
%TA.AperFunction,ComponentPad*%
%ADD28C,4.000000*%
%TD*%
%TA.AperFunction,ViaPad*%
%ADD29C,0.800000*%
%TD*%
%TA.AperFunction,Conductor*%
%ADD30C,1.500000*%
%TD*%
%TA.AperFunction,Conductor*%
%ADD31C,0.350000*%
%TD*%
%TA.AperFunction,Conductor*%
%ADD32C,0.500000*%
%TD*%
%TA.AperFunction,Conductor*%
%ADD33C,1.000000*%
%TD*%
%TA.AperFunction,Conductor*%
%ADD34C,0.400000*%
%TD*%
%TA.AperFunction,Conductor*%
%ADD35C,3.000000*%
%TD*%
%TA.AperFunction,Conductor*%
%ADD36C,2.999999*%
%TD*%
G04 APERTURE END LIST*
D10*
%TO.P,J19,1,Pin_1*%
%TO.N,unconnected-(J19-Pin_1-Pad1)*%
X-101176200Y47295700D03*
D11*
%TO.P,J19,2,Pin_2*%
%TO.N,+5V*%
X-101176200Y49835700D03*
%TO.P,J19,3,Pin_3*%
%TO.N,GND*%
X-98636200Y47295700D03*
%TO.P,J19,4,Pin_4*%
%TO.N,+5V*%
X-98636200Y49835700D03*
%TO.P,J19,5,Pin_5*%
%TO.N,GND*%
X-96096200Y47295700D03*
%TO.P,J19,6,Pin_6*%
%TO.N,Net-(J19-Pin_6)*%
X-96096200Y49835700D03*
%TO.P,J19,7,Pin_7*%
%TO.N,GND*%
X-93556200Y47295700D03*
%TO.P,J19,8,Pin_8*%
%TO.N,Net-(J19-Pin_8)*%
X-93556200Y49835700D03*
%TO.P,J19,9,Pin_9*%
%TO.N,GND*%
X-91016200Y47295700D03*
%TO.P,J19,10,Pin_10*%
%TO.N,Net-(J19-Pin_10)*%
X-91016200Y49835700D03*
%TO.P,J19,11,Pin_11*%
%TO.N,GND*%
X-88476200Y47295700D03*
%TO.P,J19,12,Pin_12*%
%TO.N,Net-(J19-Pin_12)*%
X-88476200Y49835700D03*
%TO.P,J19,13,Pin_13*%
%TO.N,GND*%
X-85936200Y47295700D03*
%TO.P,J19,14,Pin_14*%
%TO.N,Net-(J19-Pin_14)*%
X-85936200Y49835700D03*
%TO.P,J19,15,Pin_15*%
%TO.N,GND*%
X-83396200Y47295700D03*
%TO.P,J19,16,Pin_16*%
%TO.N,Net-(J19-Pin_16)*%
X-83396200Y49835700D03*
%TO.P,J19,17,Pin_17*%
%TO.N,GND*%
X-80856200Y47295700D03*
%TO.P,J19,18,Pin_18*%
%TO.N,Net-(J19-Pin_18)*%
X-80856200Y49835700D03*
%TO.P,J19,19,Pin_19*%
%TO.N,GND*%
X-78316200Y47295700D03*
%TO.P,J19,20,Pin_20*%
%TO.N,Net-(J19-Pin_20)*%
X-78316200Y49835700D03*
%TO.P,J19,21,Pin_21*%
%TO.N,GND*%
X-75776200Y47295700D03*
%TO.P,J19,22,Pin_22*%
%TO.N,Net-(J19-Pin_22)*%
X-75776200Y49835700D03*
%TO.P,J19,23,Pin_23*%
%TO.N,GND*%
X-73236200Y47295700D03*
%TO.P,J19,24,Pin_24*%
%TO.N,Net-(J19-Pin_24)*%
X-73236200Y49835700D03*
%TO.P,J19,25,Pin_25*%
%TO.N,GND*%
X-70696200Y47295700D03*
%TO.P,J19,26,Pin_26*%
%TO.N,Net-(J19-Pin_26)*%
X-70696200Y49835700D03*
%TO.P,J19,27,Pin_27*%
%TO.N,GND*%
X-68156200Y47295700D03*
%TO.P,J19,28,Pin_28*%
%TO.N,Net-(J19-Pin_28)*%
X-68156200Y49835700D03*
%TO.P,J19,29,Pin_29*%
%TO.N,GND*%
X-65616200Y47295700D03*
%TO.P,J19,30,Pin_30*%
%TO.N,unconnected-(J19-Pin_30-Pad30)*%
X-65616200Y49835700D03*
%TO.P,J19,31,Pin_31*%
%TO.N,Net-(J19-Pin_31)*%
X-63076200Y47295700D03*
%TO.P,J19,32,Pin_32*%
%TO.N,Net-(J19-Pin_32)*%
X-63076200Y49835700D03*
%TO.P,J19,33,Pin_33*%
%TO.N,GND*%
X-60536200Y47295700D03*
%TO.P,J19,34,Pin_34*%
%TO.N,Net-(J19-Pin_34)*%
X-60536200Y49835700D03*
%TO.P,J19,35,Pin_35*%
%TO.N,GND*%
X-57996200Y47295700D03*
%TO.P,J19,36,Pin_36*%
%TO.N,Net-(J19-Pin_36)*%
X-57996200Y49835700D03*
%TO.P,J19,37,Pin_37*%
%TO.N,GND*%
X-55456200Y47295700D03*
%TO.P,J19,38,Pin_38*%
X-55456200Y49835700D03*
%TO.P,J19,39,Pin_39*%
%TO.N,+5V*%
X-52916200Y47295700D03*
%TO.P,J19,40,Pin_40*%
X-52916200Y49835700D03*
%TD*%
D12*
%TO.P,U2,1,G1*%
%TO.N,GND*%
X-24841200Y31398200D03*
%TO.P,U2,2,A0*%
%TO.N,OUT32*%
X-25491200Y31398200D03*
%TO.P,U2,3,A1*%
%TO.N,OUT31*%
X-26141200Y31398200D03*
%TO.P,U2,4,A2*%
%TO.N,OUT30*%
X-26791200Y31398200D03*
%TO.P,U2,5,A3*%
%TO.N,OUT29*%
X-27441200Y31398200D03*
%TO.P,U2,6,A4*%
%TO.N,OUT28*%
X-28091200Y31398200D03*
%TO.P,U2,7,A5*%
%TO.N,OUT27*%
X-28741200Y31398200D03*
%TO.P,U2,8,A6*%
%TO.N,OUT26*%
X-29391200Y31398200D03*
%TO.P,U2,9,A7*%
%TO.N,OUT25*%
X-30041200Y31398200D03*
%TO.P,U2,10,GND*%
%TO.N,GND*%
X-30691200Y31398200D03*
%TO.P,U2,11,Y7*%
%TO.N,Net-(U2-Y7)*%
X-30691200Y25673200D03*
%TO.P,U2,12,Y6*%
%TO.N,Net-(U2-Y6)*%
X-30041200Y25673200D03*
%TO.P,U2,13,Y5*%
%TO.N,Net-(U2-Y5)*%
X-29391200Y25673200D03*
%TO.P,U2,14,Y4*%
%TO.N,Net-(U2-Y4)*%
X-28741200Y25673200D03*
%TO.P,U2,15,Y3*%
%TO.N,Net-(U2-Y3)*%
X-28091200Y25673200D03*
%TO.P,U2,16,Y2*%
%TO.N,Net-(U2-Y2)*%
X-27441200Y25673200D03*
%TO.P,U2,17,Y1*%
%TO.N,Net-(U2-Y1)*%
X-26791200Y25673200D03*
%TO.P,U2,18,Y0*%
%TO.N,Net-(U2-Y0)*%
X-26141200Y25673200D03*
%TO.P,U2,19,G2*%
%TO.N,GND*%
X-25491200Y25673200D03*
%TO.P,U2,20,VCC*%
%TO.N,+5V*%
X-24841200Y25673200D03*
%TD*%
%TO.P,U1,1,G1*%
%TO.N,GND*%
X-84041200Y31398200D03*
%TO.P,U1,2,A0*%
%TO.N,OUT24*%
X-84691200Y31398200D03*
%TO.P,U1,3,A1*%
%TO.N,OUT23*%
X-85341200Y31398200D03*
%TO.P,U1,4,A2*%
%TO.N,OUT22*%
X-85991200Y31398200D03*
%TO.P,U1,5,A3*%
%TO.N,OUT21*%
X-86641200Y31398200D03*
%TO.P,U1,6,A4*%
%TO.N,OUT20*%
X-87291200Y31398200D03*
%TO.P,U1,7,A5*%
%TO.N,OUT19*%
X-87941200Y31398200D03*
%TO.P,U1,8,A6*%
%TO.N,OUT18*%
X-88591200Y31398200D03*
%TO.P,U1,9,A7*%
%TO.N,OUT17*%
X-89241200Y31398200D03*
%TO.P,U1,10,GND*%
%TO.N,GND*%
X-89891200Y31398200D03*
%TO.P,U1,11,Y7*%
%TO.N,Net-(U1-Y7)*%
X-89891200Y25673200D03*
%TO.P,U1,12,Y6*%
%TO.N,Net-(U1-Y6)*%
X-89241200Y25673200D03*
%TO.P,U1,13,Y5*%
%TO.N,Net-(U1-Y5)*%
X-88591200Y25673200D03*
%TO.P,U1,14,Y4*%
%TO.N,Net-(U1-Y4)*%
X-87941200Y25673200D03*
%TO.P,U1,15,Y3*%
%TO.N,Net-(U1-Y3)*%
X-87291200Y25673200D03*
%TO.P,U1,16,Y2*%
%TO.N,Net-(U1-Y2)*%
X-86641200Y25673200D03*
%TO.P,U1,17,Y1*%
%TO.N,Net-(U1-Y1)*%
X-85991200Y25673200D03*
%TO.P,U1,18,Y0*%
%TO.N,Net-(U1-Y0)*%
X-85341200Y25673200D03*
%TO.P,U1,19,G2*%
%TO.N,GND*%
X-84691200Y25673200D03*
%TO.P,U1,20,VCC*%
%TO.N,+5V*%
X-84041200Y25673200D03*
%TD*%
D13*
%TO.P,R51,1*%
%TO.N,Net-(J20-Pin_20)*%
X-16816200Y42810700D03*
%TO.P,R51,2*%
%TO.N,OUT32*%
X-16816200Y41160700D03*
%TD*%
D14*
%TO.P,R50,1*%
%TO.N,OUT31*%
X-18316200Y41160700D03*
%TO.P,R50,2*%
%TO.N,Net-(J20-Pin_19)*%
X-18316200Y42810700D03*
%TD*%
D13*
%TO.P,R49,1*%
%TO.N,Net-(J20-Pin_18)*%
X-19816200Y42810700D03*
%TO.P,R49,2*%
%TO.N,OUT30*%
X-19816200Y41160700D03*
%TD*%
D14*
%TO.P,R48,1*%
%TO.N,OUT29*%
X-21316200Y41160700D03*
%TO.P,R48,2*%
%TO.N,Net-(J20-Pin_17)*%
X-21316200Y42810700D03*
%TD*%
D13*
%TO.P,R47,1*%
%TO.N,Net-(J20-Pin_16)*%
X-22816200Y42810700D03*
%TO.P,R47,2*%
%TO.N,OUT28*%
X-22816200Y41160700D03*
%TD*%
D14*
%TO.P,R46,1*%
%TO.N,OUT27*%
X-24316200Y41160700D03*
%TO.P,R46,2*%
%TO.N,Net-(J20-Pin_15)*%
X-24316200Y42810700D03*
%TD*%
D13*
%TO.P,R45,1*%
%TO.N,Net-(J20-Pin_14)*%
X-25816200Y42810700D03*
%TO.P,R45,2*%
%TO.N,OUT26*%
X-25816200Y41160700D03*
%TD*%
D14*
%TO.P,R44,1*%
%TO.N,OUT25*%
X-27316200Y41160700D03*
%TO.P,R44,2*%
%TO.N,Net-(J20-Pin_13)*%
X-27316200Y42810700D03*
%TD*%
D13*
%TO.P,R43,1*%
%TO.N,Net-(J20-Pin_12)*%
X-28816200Y42810700D03*
%TO.P,R43,2*%
%TO.N,OUT24*%
X-28816200Y41160700D03*
%TD*%
D14*
%TO.P,R42,1*%
%TO.N,OUT23*%
X-30316200Y41160700D03*
%TO.P,R42,2*%
%TO.N,Net-(J20-Pin_11)*%
X-30316200Y42810700D03*
%TD*%
D13*
%TO.P,R41,1*%
%TO.N,Net-(J20-Pin_10)*%
X-31816200Y42810700D03*
%TO.P,R41,2*%
%TO.N,OUT22*%
X-31816200Y41160700D03*
%TD*%
D14*
%TO.P,R40,1*%
%TO.N,OUT21*%
X-33316200Y41160700D03*
%TO.P,R40,2*%
%TO.N,Net-(J20-Pin_9)*%
X-33316200Y42810700D03*
%TD*%
D13*
%TO.P,R39,1*%
%TO.N,Net-(J20-Pin_8)*%
X-34816200Y42810700D03*
%TO.P,R39,2*%
%TO.N,OUT20*%
X-34816200Y41160700D03*
%TD*%
D14*
%TO.P,R38,1*%
%TO.N,OUT19*%
X-36316200Y41160700D03*
%TO.P,R38,2*%
%TO.N,Net-(J20-Pin_7)*%
X-36316200Y42810700D03*
%TD*%
D13*
%TO.P,R37,1*%
%TO.N,Net-(J20-Pin_6)*%
X-37816200Y42810700D03*
%TO.P,R37,2*%
%TO.N,OUT18*%
X-37816200Y41160700D03*
%TD*%
D14*
%TO.P,R36,1*%
%TO.N,OUT17*%
X-39316200Y41160700D03*
%TO.P,R36,2*%
%TO.N,Net-(J20-Pin_5)*%
X-39316200Y42810700D03*
%TD*%
D13*
%TO.P,R35,1*%
%TO.N,Net-(J19-Pin_36)*%
X-56616200Y42910700D03*
%TO.P,R35,2*%
%TO.N,OUT32*%
X-56616200Y41260700D03*
%TD*%
%TO.P,R34,1*%
%TO.N,Net-(J19-Pin_34)*%
X-59149538Y42910700D03*
%TO.P,R34,2*%
%TO.N,OUT31*%
X-59149538Y41260700D03*
%TD*%
%TO.P,R33,1*%
%TO.N,Net-(J19-Pin_32)*%
X-61682871Y42910700D03*
%TO.P,R33,2*%
%TO.N,OUT30*%
X-61682871Y41260700D03*
%TD*%
D14*
%TO.P,R32,1*%
%TO.N,OUT29*%
X-64216204Y41260700D03*
%TO.P,R32,2*%
%TO.N,Net-(J19-Pin_31)*%
X-64216204Y42910700D03*
%TD*%
D13*
%TO.P,R31,1*%
%TO.N,Net-(J19-Pin_28)*%
X-66749537Y42910700D03*
%TO.P,R31,2*%
%TO.N,OUT28*%
X-66749537Y41260700D03*
%TD*%
%TO.P,R30,1*%
%TO.N,Net-(J19-Pin_26)*%
X-69282870Y42910700D03*
%TO.P,R30,2*%
%TO.N,OUT27*%
X-69282870Y41260700D03*
%TD*%
%TO.P,R29,1*%
%TO.N,Net-(J19-Pin_24)*%
X-71816203Y42910700D03*
%TO.P,R29,2*%
%TO.N,OUT26*%
X-71816203Y41260700D03*
%TD*%
%TO.P,R28,1*%
%TO.N,Net-(J19-Pin_22)*%
X-74349536Y42910700D03*
%TO.P,R28,2*%
%TO.N,OUT25*%
X-74349536Y41260700D03*
%TD*%
%TO.P,R27,1*%
%TO.N,Net-(J19-Pin_20)*%
X-76882869Y42910700D03*
%TO.P,R27,2*%
%TO.N,OUT24*%
X-76882869Y41260700D03*
%TD*%
%TO.P,R26,1*%
%TO.N,Net-(J19-Pin_18)*%
X-79416202Y42910700D03*
%TO.P,R26,2*%
%TO.N,OUT23*%
X-79416202Y41260700D03*
%TD*%
%TO.P,R25,1*%
%TO.N,Net-(J19-Pin_16)*%
X-81949535Y42910700D03*
%TO.P,R25,2*%
%TO.N,OUT22*%
X-81949535Y41260700D03*
%TD*%
%TO.P,R24,1*%
%TO.N,Net-(J19-Pin_14)*%
X-84482868Y42910700D03*
%TO.P,R24,2*%
%TO.N,OUT21*%
X-84482868Y41260700D03*
%TD*%
%TO.P,R23,1*%
%TO.N,Net-(J19-Pin_12)*%
X-87016201Y42910700D03*
%TO.P,R23,2*%
%TO.N,OUT20*%
X-87016201Y41260700D03*
%TD*%
%TO.P,R22,1*%
%TO.N,Net-(J19-Pin_10)*%
X-89549534Y42910700D03*
%TO.P,R22,2*%
%TO.N,OUT19*%
X-89549534Y41260700D03*
%TD*%
%TO.P,R21,1*%
%TO.N,Net-(J19-Pin_8)*%
X-92082867Y42910700D03*
%TO.P,R21,2*%
%TO.N,OUT18*%
X-92082867Y41260700D03*
%TD*%
%TO.P,R20,1*%
%TO.N,Net-(J19-Pin_6)*%
X-94616200Y42910700D03*
%TO.P,R20,2*%
%TO.N,OUT17*%
X-94616200Y41260700D03*
%TD*%
D15*
%TO.P,R19,1*%
%TO.N,Net-(U2-Y0)*%
X-14416200Y20060700D03*
%TO.P,R19,2*%
%TO.N,/Output 9-16/DOUT16*%
X-12766200Y20060700D03*
%TD*%
%TO.P,R18,1*%
%TO.N,Net-(U2-Y1)*%
X-18016200Y20060700D03*
%TO.P,R18,2*%
%TO.N,/Output 9-16/DOUT15*%
X-16366200Y20060700D03*
%TD*%
%TO.P,R17,1*%
%TO.N,Net-(U2-Y2)*%
X-23016200Y20060700D03*
%TO.P,R17,2*%
%TO.N,/Output 9-16/DOUT14*%
X-21366200Y20060700D03*
%TD*%
%TO.P,R16,1*%
%TO.N,Net-(U2-Y3)*%
X-26891200Y20060700D03*
%TO.P,R16,2*%
%TO.N,/Output 9-16/DOUT13*%
X-25241200Y20060700D03*
%TD*%
%TO.P,R15,1*%
%TO.N,Net-(U2-Y4)*%
X-30491200Y20060700D03*
%TO.P,R15,2*%
%TO.N,/Output 9-16/DOUT12*%
X-28841200Y20060700D03*
%TD*%
D16*
%TO.P,R14,1*%
%TO.N,Net-(U2-Y5)*%
X-32241200Y20060700D03*
%TO.P,R14,2*%
%TO.N,/Output 9-16/DOUT11*%
X-33891200Y20060700D03*
%TD*%
%TO.P,R13,1*%
%TO.N,Net-(U2-Y6)*%
X-35666200Y20060700D03*
%TO.P,R13,2*%
%TO.N,Net-(J10-Pin_2)*%
X-37316200Y20060700D03*
%TD*%
%TO.P,R12,1*%
%TO.N,Net-(U2-Y7)*%
X-42591200Y20060700D03*
%TO.P,R12,2*%
%TO.N,/Output 9-16/DOUT9*%
X-44241200Y20060700D03*
%TD*%
D15*
%TO.P,R11,1*%
%TO.N,Net-(U1-Y0)*%
X-68591200Y20060700D03*
%TO.P,R11,2*%
%TO.N,/Output 1-8/DOUT8*%
X-66941200Y20060700D03*
%TD*%
%TO.P,R10,1*%
%TO.N,Net-(U1-Y1)*%
X-74501200Y20060700D03*
%TO.P,R10,2*%
%TO.N,/Output 1-8/DOUT7*%
X-72851200Y20060700D03*
%TD*%
%TO.P,R9,1*%
%TO.N,Net-(U1-Y2)*%
X-78641200Y20060700D03*
%TO.P,R9,2*%
%TO.N,/Output 1-8/DOUT6*%
X-76991200Y20060700D03*
%TD*%
%TO.P,R8,1*%
%TO.N,Net-(U1-Y3)*%
X-84661200Y20060700D03*
%TO.P,R8,2*%
%TO.N,/Output 1-8/DOUT5*%
X-83011200Y20060700D03*
%TD*%
%TO.P,R7,1*%
%TO.N,Net-(U1-Y4)*%
X-88841200Y20060700D03*
%TO.P,R7,2*%
%TO.N,/Output 1-8/DOUT4*%
X-87191200Y20060700D03*
%TD*%
D16*
%TO.P,R6,1*%
%TO.N,Net-(U1-Y5)*%
X-90591200Y20060700D03*
%TO.P,R6,2*%
%TO.N,/Output 1-8/DOUT3*%
X-92241200Y20060700D03*
%TD*%
%TO.P,R5,1*%
%TO.N,Net-(U1-Y6)*%
X-94081200Y20060700D03*
%TO.P,R5,2*%
%TO.N,/Output 1-8/DOUT2*%
X-95731200Y20060700D03*
%TD*%
%TO.P,R4,1*%
%TO.N,Net-(U1-Y7)*%
X-99551200Y20060700D03*
%TO.P,R4,2*%
%TO.N,/Output 1-8/DOUT1*%
X-101201200Y20060700D03*
%TD*%
%TO.P,R3,1*%
%TO.N,GND*%
X-8091200Y25485700D03*
%TO.P,R3,2*%
%TO.N,Net-(D5-K)*%
X-9741200Y25485700D03*
%TD*%
D13*
%TO.P,R2,1*%
%TO.N,Net-(D4-A)*%
X15283800Y2036500D03*
%TO.P,R2,2*%
%TO.N,VIN2*%
X15283800Y386500D03*
%TD*%
%TO.P,R1,1*%
%TO.N,Net-(D3-A)*%
X-128516200Y2036500D03*
%TO.P,R1,2*%
%TO.N,VIN1*%
X-128516200Y386500D03*
%TD*%
D17*
%TO.P,J16,1,Pin_1*%
%TO.N,GND*%
X-7647200Y45700D03*
D18*
%TO.P,J16,2,Pin_2*%
%TO.N,/Output 9-16/DOUT16*%
X-3987200Y45700D03*
D19*
%TO.P,J16,3,Pin_3*%
%TO.N,/Output 9-16/VOUT16*%
X-327200Y45700D03*
%TD*%
D17*
%TO.P,J15,1,Pin_1*%
%TO.N,GND*%
X-7647200Y13045700D03*
D18*
%TO.P,J15,2,Pin_2*%
%TO.N,/Output 9-16/DOUT15*%
X-3987200Y13045700D03*
D19*
%TO.P,J15,3,Pin_3*%
%TO.N,/Output 9-16/VOUT15*%
X-327200Y13045700D03*
%TD*%
D17*
%TO.P,J14,1,Pin_1*%
%TO.N,GND*%
X-22647200Y45700D03*
D18*
%TO.P,J14,2,Pin_2*%
%TO.N,/Output 9-16/DOUT14*%
X-18987200Y45700D03*
D19*
%TO.P,J14,3,Pin_3*%
%TO.N,/Output 9-16/VOUT14*%
X-15327200Y45700D03*
%TD*%
D17*
%TO.P,J13,1,Pin_1*%
%TO.N,GND*%
X-22647200Y13045700D03*
D18*
%TO.P,J13,2,Pin_2*%
%TO.N,/Output 9-16/DOUT13*%
X-18987200Y13045700D03*
D19*
%TO.P,J13,3,Pin_3*%
%TO.N,/Output 9-16/VOUT13*%
X-15327200Y13045700D03*
%TD*%
D17*
%TO.P,J12,1,Pin_1*%
%TO.N,GND*%
X-37647200Y45700D03*
D18*
%TO.P,J12,2,Pin_2*%
%TO.N,/Output 9-16/DOUT12*%
X-33987200Y45700D03*
D19*
%TO.P,J12,3,Pin_3*%
%TO.N,/Output 9-16/VOUT12*%
X-30327200Y45700D03*
%TD*%
D17*
%TO.P,J11,1,Pin_1*%
%TO.N,GND*%
X-37647200Y13045700D03*
D18*
%TO.P,J11,2,Pin_2*%
%TO.N,/Output 9-16/DOUT11*%
X-33987200Y13045700D03*
D19*
%TO.P,J11,3,Pin_3*%
%TO.N,/Output 9-16/VOUT11*%
X-30327200Y13045700D03*
%TD*%
D17*
%TO.P,J10,1,Pin_1*%
%TO.N,GND*%
X-52647200Y45700D03*
D18*
%TO.P,J10,2,Pin_2*%
%TO.N,Net-(J10-Pin_2)*%
X-48987200Y45700D03*
D19*
%TO.P,J10,3,Pin_3*%
%TO.N,/Output 9-16/VOUT10*%
X-45327200Y45700D03*
%TD*%
D17*
%TO.P,J9,1,Pin_1*%
%TO.N,GND*%
X-52647200Y13045700D03*
D18*
%TO.P,J9,2,Pin_2*%
%TO.N,/Output 9-16/DOUT9*%
X-48987200Y13045700D03*
D19*
%TO.P,J9,3,Pin_3*%
%TO.N,/Output 9-16/VOUT9*%
X-45327200Y13045700D03*
%TD*%
D17*
%TO.P,J8,1,Pin_1*%
%TO.N,GND*%
X-67647200Y45700D03*
D18*
%TO.P,J8,2,Pin_2*%
%TO.N,/Output 1-8/DOUT8*%
X-63987200Y45700D03*
D19*
%TO.P,J8,3,Pin_3*%
%TO.N,/Output 1-8/VOUT8*%
X-60327200Y45700D03*
%TD*%
D17*
%TO.P,J7,1,Pin_1*%
%TO.N,GND*%
X-67647200Y13045700D03*
D18*
%TO.P,J7,2,Pin_2*%
%TO.N,/Output 1-8/DOUT7*%
X-63987200Y13045700D03*
D19*
%TO.P,J7,3,Pin_3*%
%TO.N,/Output 1-8/VOUT7*%
X-60327200Y13045700D03*
%TD*%
D17*
%TO.P,J6,1,Pin_1*%
%TO.N,GND*%
X-82532858Y45700D03*
D18*
%TO.P,J6,2,Pin_2*%
%TO.N,/Output 1-8/DOUT6*%
X-78872858Y45700D03*
D19*
%TO.P,J6,3,Pin_3*%
%TO.N,/Output 1-8/VOUT6*%
X-75212858Y45700D03*
%TD*%
D17*
%TO.P,J5,1,Pin_1*%
%TO.N,GND*%
X-82647200Y13045700D03*
D18*
%TO.P,J5,2,Pin_2*%
%TO.N,/Output 1-8/DOUT5*%
X-78987200Y13045700D03*
D19*
%TO.P,J5,3,Pin_3*%
%TO.N,/Output 1-8/VOUT5*%
X-75327200Y13045700D03*
%TD*%
D17*
%TO.P,J4,1,Pin_1*%
%TO.N,GND*%
X-97647200Y45700D03*
D18*
%TO.P,J4,2,Pin_2*%
%TO.N,/Output 1-8/DOUT4*%
X-93987200Y45700D03*
D19*
%TO.P,J4,3,Pin_3*%
%TO.N,/Output 1-8/VOUT4*%
X-90327200Y45700D03*
%TD*%
D17*
%TO.P,J3,1,Pin_1*%
%TO.N,GND*%
X-97647200Y13045700D03*
D18*
%TO.P,J3,2,Pin_2*%
%TO.N,/Output 1-8/DOUT3*%
X-93987200Y13045700D03*
D19*
%TO.P,J3,3,Pin_3*%
%TO.N,/Output 1-8/VOUT3*%
X-90327200Y13045700D03*
%TD*%
D17*
%TO.P,J2,1,Pin_1*%
%TO.N,GND*%
X-112647200Y45700D03*
D18*
%TO.P,J2,2,Pin_2*%
%TO.N,/Output 1-8/DOUT2*%
X-108987200Y45700D03*
D19*
%TO.P,J2,3,Pin_3*%
%TO.N,/Output 1-8/VOUT2*%
X-105327200Y45700D03*
%TD*%
D17*
%TO.P,J1,1,Pin_1*%
%TO.N,GND*%
X-112647200Y13045700D03*
D18*
%TO.P,J1,2,Pin_2*%
%TO.N,/Output 1-8/DOUT1*%
X-108987200Y13045700D03*
D19*
%TO.P,J1,3,Pin_3*%
%TO.N,/Output 1-8/VOUT1*%
X-105327200Y13045700D03*
%TD*%
D20*
%TO.P,F16,1_1,1*%
%TO.N,VIN2*%
X-6388100Y-20760100D03*
%TO.P,F16,1_2,1*%
X-6388100Y-17060100D03*
%TO.P,F16,2_1,2*%
%TO.N,/Output 9-16/VOUT16*%
X-6388100Y-12560100D03*
%TO.P,F16,2_2,2*%
X-6388100Y-8860100D03*
%TD*%
%TO.P,F15,1_1,1*%
%TO.N,VIN2*%
X-13088538Y-20760100D03*
%TO.P,F15,1_2,1*%
X-13088538Y-17060100D03*
%TO.P,F15,2_1,2*%
%TO.N,/Output 9-16/VOUT15*%
X-13088538Y-12560100D03*
%TO.P,F15,2_2,2*%
X-13088538Y-8860100D03*
%TD*%
%TO.P,F14,1_1,1*%
%TO.N,VIN2*%
X-19788971Y-20760100D03*
%TO.P,F14,1_2,1*%
X-19788971Y-17060100D03*
%TO.P,F14,2_1,2*%
%TO.N,/Output 9-16/VOUT14*%
X-19788971Y-12560100D03*
%TO.P,F14,2_2,2*%
X-19788971Y-8860100D03*
%TD*%
%TO.P,F13,1_1,1*%
%TO.N,VIN2*%
X-26489404Y-20760100D03*
%TO.P,F13,1_2,1*%
X-26489404Y-17060100D03*
%TO.P,F13,2_1,2*%
%TO.N,/Output 9-16/VOUT13*%
X-26489404Y-12560100D03*
%TO.P,F13,2_2,2*%
X-26489404Y-8860100D03*
%TD*%
%TO.P,F12,1_1,1*%
%TO.N,VIN2*%
X-33189837Y-20695100D03*
%TO.P,F12,1_2,1*%
X-33189837Y-16995100D03*
%TO.P,F12,2_1,2*%
%TO.N,/Output 9-16/VOUT12*%
X-33189837Y-12495100D03*
%TO.P,F12,2_2,2*%
X-33189837Y-8795100D03*
%TD*%
%TO.P,F11,1_1,1*%
%TO.N,VIN2*%
X-39890270Y-20695100D03*
%TO.P,F11,1_2,1*%
X-39890270Y-16995100D03*
%TO.P,F11,2_1,2*%
%TO.N,/Output 9-16/VOUT11*%
X-39890270Y-12495100D03*
%TO.P,F11,2_2,2*%
X-39890270Y-8795100D03*
%TD*%
%TO.P,F10,1_1,1*%
%TO.N,VIN2*%
X-46590703Y-20695100D03*
%TO.P,F10,1_2,1*%
X-46590703Y-16995100D03*
%TO.P,F10,2_1,2*%
%TO.N,/Output 9-16/VOUT10*%
X-46590703Y-12495100D03*
%TO.P,F10,2_2,2*%
X-46590703Y-8795100D03*
%TD*%
%TO.P,F9,1_1,1*%
%TO.N,VIN2*%
X-53291136Y-20695100D03*
%TO.P,F9,1_2,1*%
X-53291136Y-16995100D03*
%TO.P,F9,2_1,2*%
%TO.N,/Output 9-16/VOUT9*%
X-53291136Y-12495100D03*
%TO.P,F9,2_2,2*%
X-53291136Y-8795100D03*
%TD*%
%TO.P,F8,1_1,1*%
%TO.N,VIN1*%
X-59991569Y-20695100D03*
%TO.P,F8,1_2,1*%
X-59991569Y-16995100D03*
%TO.P,F8,2_1,2*%
%TO.N,/Output 1-8/VOUT8*%
X-59991569Y-12495100D03*
%TO.P,F8,2_2,2*%
X-59991569Y-8795100D03*
%TD*%
%TO.P,F7,1_1,1*%
%TO.N,VIN1*%
X-66692002Y-20695100D03*
%TO.P,F7,1_2,1*%
X-66692002Y-16995100D03*
%TO.P,F7,2_1,2*%
%TO.N,/Output 1-8/VOUT7*%
X-66692002Y-12495100D03*
%TO.P,F7,2_2,2*%
X-66692002Y-8795100D03*
%TD*%
%TO.P,F6,1_1,1*%
%TO.N,VIN1*%
X-73392435Y-20695100D03*
%TO.P,F6,1_2,1*%
X-73392435Y-16995100D03*
%TO.P,F6,2_1,2*%
%TO.N,/Output 1-8/VOUT6*%
X-73392435Y-12495100D03*
%TO.P,F6,2_2,2*%
X-73392435Y-8795100D03*
%TD*%
%TO.P,F5,1_1,1*%
%TO.N,VIN1*%
X-80092868Y-20695100D03*
%TO.P,F5,1_2,1*%
X-80092868Y-16995100D03*
%TO.P,F5,2_1,2*%
%TO.N,/Output 1-8/VOUT5*%
X-80092868Y-12495100D03*
%TO.P,F5,2_2,2*%
X-80092868Y-8795100D03*
%TD*%
%TO.P,F4,1_1,1*%
%TO.N,VIN1*%
X-86793301Y-20700100D03*
%TO.P,F4,1_2,1*%
X-86793301Y-17000100D03*
%TO.P,F4,2_1,2*%
%TO.N,/Output 1-8/VOUT4*%
X-86793301Y-12500100D03*
%TO.P,F4,2_2,2*%
X-86793301Y-8800100D03*
%TD*%
%TO.P,F3,1_1,1*%
%TO.N,VIN1*%
X-93493734Y-20700100D03*
%TO.P,F3,1_2,1*%
X-93493734Y-17000100D03*
%TO.P,F3,2_1,2*%
%TO.N,/Output 1-8/VOUT3*%
X-93493734Y-12500100D03*
%TO.P,F3,2_2,2*%
X-93493734Y-8800100D03*
%TD*%
%TO.P,F2,1_1,1*%
%TO.N,VIN1*%
X-100194167Y-20700100D03*
%TO.P,F2,1_2,1*%
X-100194167Y-17000100D03*
%TO.P,F2,2_1,2*%
%TO.N,/Output 1-8/VOUT2*%
X-100194167Y-12500100D03*
%TO.P,F2,2_2,2*%
X-100194167Y-8800100D03*
%TD*%
%TO.P,F1,1_1,1*%
%TO.N,VIN1*%
X-106894600Y-20685100D03*
%TO.P,F1,1_2,1*%
X-106894600Y-16985100D03*
%TO.P,F1,2_1,2*%
%TO.N,/Output 1-8/VOUT1*%
X-106894600Y-12485100D03*
%TO.P,F1,2_2,2*%
X-106894600Y-8785100D03*
%TD*%
D21*
%TO.P,D5,1,K*%
%TO.N,Net-(D5-K)*%
X-12128700Y25485700D03*
%TO.P,D5,2,A*%
%TO.N,+5V*%
X-13703700Y25485700D03*
%TD*%
D22*
%TO.P,D4,1,K*%
%TO.N,GND*%
X15283800Y7560000D03*
%TO.P,D4,2,A*%
%TO.N,Net-(D4-A)*%
X15283800Y5985000D03*
%TD*%
%TO.P,D3,1,K*%
%TO.N,GND*%
X-128516200Y7560000D03*
%TO.P,D3,2,A*%
%TO.N,Net-(D3-A)*%
X-128516200Y5985000D03*
%TD*%
D23*
%TO.P,C2,1*%
%TO.N,+5V*%
X-22876200Y25550700D03*
%TO.P,C2,2*%
%TO.N,GND*%
X-22876200Y24000700D03*
%TD*%
%TO.P,C1,1*%
%TO.N,+5V*%
X-82166200Y25690700D03*
%TO.P,C1,2*%
%TO.N,GND*%
X-82166200Y24140700D03*
%TD*%
D24*
%TO.P,C3,2*%
%TO.N,GND*%
X-12516200Y31735700D03*
%TO.P,C3,1*%
%TO.N,+5V*%
X-16116200Y31735700D03*
%TD*%
D25*
%TO.P,J20,24,Pin_24*%
%TO.N,unconnected-(J20-Pin_24-Pad24)*%
X-14016200Y49655700D03*
%TO.P,J20,23,Pin_23*%
%TO.N,unconnected-(J20-Pin_23-Pad23)*%
X-14016200Y47115700D03*
%TO.P,J20,22,Pin_22*%
%TO.N,GND*%
X-16556200Y49655700D03*
%TO.P,J20,21,Pin_21*%
%TO.N,unconnected-(J20-Pin_21-Pad21)*%
X-16556200Y47115700D03*
%TO.P,J20,20,Pin_20*%
%TO.N,Net-(J20-Pin_20)*%
X-19096200Y49655700D03*
%TO.P,J20,19,Pin_19*%
%TO.N,Net-(J20-Pin_19)*%
X-19096200Y47115700D03*
%TO.P,J20,18,Pin_18*%
%TO.N,Net-(J20-Pin_18)*%
X-21636200Y49655700D03*
%TO.P,J20,17,Pin_17*%
%TO.N,Net-(J20-Pin_17)*%
X-21636200Y47115700D03*
%TO.P,J20,16,Pin_16*%
%TO.N,Net-(J20-Pin_16)*%
X-24176200Y49655700D03*
%TO.P,J20,15,Pin_15*%
%TO.N,Net-(J20-Pin_15)*%
X-24176200Y47115700D03*
%TO.P,J20,14,Pin_14*%
%TO.N,Net-(J20-Pin_14)*%
X-26716200Y49655700D03*
%TO.P,J20,13,Pin_13*%
%TO.N,Net-(J20-Pin_13)*%
X-26716200Y47115700D03*
%TO.P,J20,12,Pin_12*%
%TO.N,Net-(J20-Pin_12)*%
X-29256200Y49655700D03*
%TO.P,J20,11,Pin_11*%
%TO.N,Net-(J20-Pin_11)*%
X-29256200Y47115700D03*
%TO.P,J20,10,Pin_10*%
%TO.N,Net-(J20-Pin_10)*%
X-31796200Y49655700D03*
%TO.P,J20,9,Pin_9*%
%TO.N,Net-(J20-Pin_9)*%
X-31796200Y47115700D03*
%TO.P,J20,8,Pin_8*%
%TO.N,Net-(J20-Pin_8)*%
X-34336200Y49655700D03*
%TO.P,J20,7,Pin_7*%
%TO.N,Net-(J20-Pin_7)*%
X-34336200Y47115700D03*
%TO.P,J20,6,Pin_6*%
%TO.N,Net-(J20-Pin_6)*%
X-36876200Y49655700D03*
%TO.P,J20,5,Pin_5*%
%TO.N,Net-(J20-Pin_5)*%
X-36876200Y47115700D03*
%TO.P,J20,4,Pin_4*%
%TO.N,+5V*%
X-39416200Y49655700D03*
%TO.P,J20,3,Pin_3*%
X-39416200Y47115700D03*
%TO.P,J20,2,Pin_2*%
%TO.N,GND*%
X-41956200Y49655700D03*
D26*
%TO.P,J20,1,Pin_1*%
X-41956200Y47115700D03*
%TD*%
D27*
%TO.P,J17,1,P1*%
%TO.N,VIN1*%
X-115516200Y-15914300D03*
D28*
%TO.P,J17,2,P2*%
%TO.N,GND*%
X-125016200Y-15914300D03*
%TD*%
D27*
%TO.P,J18,1,P1*%
%TO.N,VIN2*%
X2283800Y-15814300D03*
D28*
%TO.P,J18,2,P2*%
%TO.N,GND*%
X11783800Y-15814300D03*
%TD*%
D29*
%TO.N,OUT18*%
X-76866200Y38761200D03*
%TO.N,GND*%
X-21016200Y24035700D03*
X-24756200Y23935700D03*
X-80316200Y24135700D03*
X-84066200Y24005700D03*
X-23746200Y31398200D03*
X-6616200Y25485700D03*
X-10216200Y32435700D03*
X15223800Y9345700D03*
X-91106200Y31398200D03*
X-11216200Y30135700D03*
X-12466200Y30135700D03*
X-13666200Y30135700D03*
X-128536200Y9175700D03*
X-10216200Y31135700D03*
X-13616200Y33385700D03*
X-32016200Y31398200D03*
X-11216200Y33385700D03*
X-12416200Y33385700D03*
X-82346200Y31415700D03*
%TO.N,OUT32*%
X-18347450Y39541950D03*
X-40941200Y40585700D03*
%TO.N,OUT31*%
X-41891200Y39610700D03*
X-20822450Y38566950D03*
%TO.N,OUT23*%
X-81431045Y35500545D03*
X-84466200Y34975700D03*
%TO.N,OUT30*%
X-61541200Y39885700D03*
X-23184950Y37704450D03*
%TO.N,OUT22*%
X-84756200Y35995700D03*
X-80616200Y36185700D03*
%TO.N,OUT21*%
X-79766200Y36860700D03*
X-85616200Y36635700D03*
%TO.N,OUT20*%
X-87116200Y36465700D03*
X-78866200Y37560700D03*
%TO.N,OUT27*%
X-69266200Y39910700D03*
X-28776199Y36613201D03*
%TO.N,OUT19*%
X-77766200Y38035700D03*
X-87941200Y37585700D03*
%TO.N,OUT26*%
X-71766200Y39885700D03*
X-29646200Y35965700D03*
%TO.N,OUT18*%
X-89026200Y38515700D03*
%TO.N,OUT25*%
X-30636200Y35515700D03*
X-74141200Y40010700D03*
%TO.N,OUT17*%
X-91036200Y38885700D03*
X-76091200Y39535700D03*
%TO.N,OUT29*%
X-25697450Y36691950D03*
X-64266200Y39910700D03*
%TO.N,OUT28*%
X-66641200Y39885700D03*
X-27366200Y36585700D03*
%TD*%
D30*
%TO.N,+5V*%
X-51237514Y52735700D02*
X-52916200Y51057014D01*
X-41414327Y52735700D02*
X-51237514Y52735700D01*
D31*
%TO.N,OUT20*%
X-78414204Y37108704D02*
X-78866200Y37560700D01*
X-38780696Y37108704D02*
X-78414204Y37108704D01*
X-34816200Y41073200D02*
X-38780696Y37108704D01*
%TO.N,OUT21*%
X-33316200Y41073200D02*
X-37830197Y36559203D01*
X-37830197Y36559203D02*
X-79464703Y36559203D01*
X-79464703Y36559203D02*
X-79766200Y36860700D01*
%TO.N,OUT22*%
X-80239889Y35809389D02*
X-80616200Y36185700D01*
X-31816200Y41073200D02*
X-37080011Y35809389D01*
X-37080011Y35809389D02*
X-80239889Y35809389D01*
%TO.N,OUT17*%
X-89836200Y37655700D02*
X-91036200Y38855700D01*
X-89836200Y36833200D02*
X-89836200Y37655700D01*
X-89241200Y36238200D02*
X-89836200Y36833200D01*
X-89241200Y31398200D02*
X-89241200Y36238200D01*
X-91036200Y38855700D02*
X-91036200Y38885700D01*
%TO.N,OUT18*%
X-89026200Y38580700D02*
X-89026200Y38515700D01*
X-91618700Y41173200D02*
X-89026200Y38580700D01*
X-92082867Y41173200D02*
X-91618700Y41173200D01*
X-89026200Y37145700D02*
X-89026200Y38515700D01*
X-88591200Y36710700D02*
X-89026200Y37145700D01*
X-88591200Y31398200D02*
X-88591200Y36710700D01*
%TO.N,OUT21*%
X-86641200Y35525316D02*
X-86641200Y31398200D01*
X-85616200Y36550316D02*
X-86641200Y35525316D01*
X-85616200Y36635700D02*
X-85616200Y36550316D01*
X-84482868Y37969032D02*
X-84482868Y41173200D01*
X-85616200Y36835700D02*
X-84482868Y37969032D01*
X-85616200Y36635700D02*
X-85616200Y36835700D01*
%TO.N,OUT22*%
X-81949535Y38802365D02*
X-84756200Y35995700D01*
X-81949535Y41173200D02*
X-81949535Y38802365D01*
%TO.N,OUT19*%
X-39731195Y37658205D02*
X-36316200Y41073200D01*
X-77388705Y37658205D02*
X-39731195Y37658205D01*
X-77766200Y38035700D02*
X-77388705Y37658205D01*
%TO.N,OUT17*%
X-41632193Y38757207D02*
X-39316200Y41073200D01*
X-75337707Y38757207D02*
X-41632193Y38757207D01*
X-76091200Y39510700D02*
X-75337707Y38757207D01*
X-76091200Y39535700D02*
X-76091200Y39510700D01*
%TO.N,OUT18*%
X-76338206Y38207706D02*
X-40681694Y38207706D01*
X-40681694Y38207706D02*
X-37816200Y41073200D01*
X-76866200Y38761200D02*
X-76866200Y38735700D01*
X-76866200Y38735700D02*
X-76338206Y38207706D01*
D32*
%TO.N,GND*%
X-6616200Y25485700D02*
X-8091200Y25485700D01*
%TO.N,Net-(D5-K)*%
X-12128700Y25485700D02*
X-9741200Y25485700D01*
D33*
%TO.N,+5V*%
X-22881200Y25545700D02*
X-22876200Y25550700D01*
X-24486200Y25545700D02*
X-22881200Y25545700D01*
X-24456200Y25515700D02*
X-24486200Y25545700D01*
X-13816200Y25515700D02*
X-24456200Y25515700D01*
D34*
%TO.N,GND*%
X-21051200Y24000700D02*
X-21016200Y24035700D01*
X-22876200Y24000700D02*
X-21051200Y24000700D01*
X-24756200Y23935700D02*
X-22941200Y23935700D01*
X-22941200Y23935700D02*
X-22876200Y24000700D01*
X-25491200Y24670700D02*
X-24756200Y23935700D01*
X-25491200Y25673200D02*
X-25491200Y24670700D01*
D30*
%TO.N,+5V*%
X-11556200Y50665700D02*
X-13626200Y52735700D01*
X-13626200Y52735700D02*
X-41414327Y52735700D01*
X-16166200Y36685700D02*
X-11556200Y41295700D01*
X-16166200Y25605700D02*
X-16166200Y36685700D01*
X-11556200Y41295700D02*
X-11556200Y50665700D01*
D33*
X-48211200Y25690700D02*
X-83661200Y25690700D01*
X-46106200Y27795700D02*
X-48211200Y25690700D01*
X-22846200Y27795700D02*
X-46106200Y27795700D01*
X-22846200Y25580700D02*
X-22846200Y27795700D01*
X-22876200Y25550700D02*
X-22846200Y25580700D01*
D34*
%TO.N,GND*%
X-84056200Y23995700D02*
X-84066200Y24005700D01*
X-82311200Y23995700D02*
X-84056200Y23995700D01*
X-82166200Y24140700D02*
X-82311200Y23995700D01*
X-80321200Y24140700D02*
X-80316200Y24135700D01*
X-82166200Y24140700D02*
X-80321200Y24140700D01*
X-84691200Y24630700D02*
X-84066200Y24005700D01*
X-84691200Y25673200D02*
X-84691200Y24630700D01*
D30*
%TO.N,+5V*%
X-94816200Y28335700D02*
X-82426200Y28335700D01*
D33*
X-82166200Y28075700D02*
X-82426200Y28335700D01*
X-82166200Y25690700D02*
X-82166200Y28075700D01*
D32*
%TO.N,GND*%
X-128516200Y9155700D02*
X-128536200Y9175700D01*
X-128516200Y7560000D02*
X-128516200Y9155700D01*
X15283800Y9285700D02*
X15223800Y9345700D01*
X15283800Y7560000D02*
X15283800Y9285700D01*
D35*
%TO.N,/Output 1-8/VOUT1*%
X-111014600Y-8785100D02*
X-106894600Y-8785100D01*
X-116326200Y-3473500D02*
X-111014600Y-8785100D01*
X-116326200Y3694500D02*
X-116326200Y-3473500D01*
X-115657200Y4363500D02*
X-116326200Y3694500D01*
%TO.N,/Output 1-8/VOUT5*%
X-80635400Y-8795100D02*
X-80092868Y-8795100D01*
X-82767200Y7003500D02*
X-86396200Y3374500D01*
X-86396200Y-3034300D02*
X-80635400Y-8795100D01*
X-78591000Y7003500D02*
X-82767200Y7003500D01*
X-86396200Y3374500D02*
X-86396200Y-3034300D01*
X-75327200Y13045700D02*
X-75327200Y10267300D01*
X-75327200Y10267300D02*
X-78591000Y7003500D01*
%TO.N,/Output 1-8/VOUT7*%
X-71496200Y-2623500D02*
X-66692002Y-7427698D01*
X-67767200Y7253500D02*
X-71496200Y3524500D01*
X-60327200Y10317300D02*
X-63391000Y7253500D01*
X-71496200Y3524500D02*
X-71496200Y-2623500D01*
X-60327200Y13045700D02*
X-60327200Y10317300D01*
X-63391000Y7253500D02*
X-67767200Y7253500D01*
X-66692002Y-7427698D02*
X-66692002Y-8795100D01*
%TO.N,/Output 9-16/VOUT11*%
X-36806000Y7253500D02*
X-33091000Y7253500D01*
X-30327200Y10017300D02*
X-30327200Y13045700D01*
X-41586200Y-7099170D02*
X-41586200Y2473300D01*
X-41586200Y2473300D02*
X-36806000Y7253500D01*
X-33091000Y7253500D02*
X-30327200Y10017300D01*
X-39890270Y-8795100D02*
X-41586200Y-7099170D01*
%TO.N,/Output 9-16/VOUT13*%
X-15327200Y11192267D02*
X-15327200Y13045700D01*
X-19265967Y7253500D02*
X-15327200Y11192267D01*
X-22468400Y7253500D02*
X-19265967Y7253500D01*
X-26489404Y3232496D02*
X-22468400Y7253500D01*
X-26489404Y-8860100D02*
X-26489404Y3232496D01*
%TO.N,/Output 9-16/VOUT15*%
X-6756000Y7503500D02*
X-4015968Y7503500D01*
X-11536200Y2723300D02*
X-6756000Y7503500D01*
X-11536200Y-7307762D02*
X-11536200Y2723300D01*
X-13088538Y-8860100D02*
X-11536200Y-7307762D01*
%TO.N,/Output 9-16/VOUT16*%
X-6388100Y-7416200D02*
X-327200Y-1355300D01*
X-6388100Y-8860100D02*
X-6388100Y-7416200D01*
X-327200Y-1355300D02*
X-327200Y45700D01*
%TO.N,/Output 9-16/VOUT14*%
X-19788971Y-6787071D02*
X-15327200Y-2325300D01*
X-15327200Y-2325300D02*
X-15327200Y45700D01*
X-19788971Y-8860100D02*
X-19788971Y-6787071D01*
%TO.N,/Output 9-16/VOUT12*%
X-30326200Y44700D02*
X-30327200Y45700D01*
X-33189837Y-6693837D02*
X-30326200Y-3830200D01*
X-30326200Y-3830200D02*
X-30326200Y44700D01*
X-33189837Y-8795100D02*
X-33189837Y-6693837D01*
%TO.N,/Output 9-16/VOUT10*%
X-45327200Y-1296934D02*
X-45327200Y45700D01*
X-46606200Y-2575934D02*
X-45327200Y-1296934D01*
X-46606200Y-8779603D02*
X-46606200Y-2575934D01*
X-46590703Y-8795100D02*
X-46606200Y-8779603D01*
%TO.N,/Output 1-8/VOUT8*%
X-60326200Y-8460469D02*
X-59991569Y-8795100D01*
X-60326200Y44700D02*
X-60326200Y-8460469D01*
X-60327200Y45700D02*
X-60326200Y44700D01*
%TO.N,/Output 1-8/VOUT6*%
X-75206200Y39042D02*
X-75212858Y45700D01*
X-75206200Y-5033500D02*
X-75206200Y39042D01*
X-73392435Y-6847265D02*
X-75206200Y-5033500D01*
X-73392435Y-8795100D02*
X-73392435Y-6847265D01*
%TO.N,/Output 1-8/VOUT4*%
X-90336200Y-4477500D02*
X-86793301Y-8020399D01*
X-90336200Y36700D02*
X-90336200Y-4477500D01*
X-86793301Y-8020399D02*
X-86793301Y-8800100D01*
X-90327200Y45700D02*
X-90336200Y36700D01*
%TO.N,/Output 1-8/VOUT2*%
X-105296200Y14700D02*
X-105327200Y45700D01*
X-105296200Y-4517500D02*
X-105296200Y14700D01*
X-101013600Y-8800100D02*
X-105296200Y-4517500D01*
X-100194167Y-8800100D02*
X-101013600Y-8800100D01*
D36*
%TO.N,/Output 9-16/VOUT15*%
X-327200Y11192268D02*
X-4015968Y7503500D01*
X-327200Y13045700D02*
X-327200Y11192268D01*
D35*
%TO.N,/Output 9-16/VOUT9*%
X-45327200Y10317300D02*
X-45327200Y13045700D01*
X-51541000Y7253500D02*
X-48391000Y7253500D01*
X-56017200Y2777300D02*
X-51541000Y7253500D01*
X-56017200Y-5892500D02*
X-56017200Y2777300D01*
X-48391000Y7253500D02*
X-45327200Y10317300D01*
X-53291136Y-8795100D02*
X-53291136Y-8618564D01*
X-53291136Y-8618564D02*
X-56017200Y-5892500D01*
%TO.N,/Output 1-8/VOUT3*%
X-97179534Y-5114300D02*
X-93493734Y-8800100D01*
X-100787200Y-3543300D02*
X-99216200Y-5114300D01*
X-100787200Y3807300D02*
X-100787200Y-3543300D01*
X-99216200Y-5114300D02*
X-97179534Y-5114300D01*
X-91430800Y6789900D02*
X-97804600Y6789900D01*
X-90326200Y7894500D02*
X-91430800Y6789900D01*
X-90326200Y13044700D02*
X-90326200Y7894500D01*
X-97804600Y6789900D02*
X-100787200Y3807300D01*
X-90327200Y13045700D02*
X-90326200Y13044700D01*
%TO.N,/Output 1-8/VOUT1*%
X-105327200Y9844500D02*
X-105327200Y13045700D01*
X-113017200Y7003500D02*
X-108168200Y7003500D01*
X-108168200Y7003500D02*
X-105327200Y9844500D01*
D31*
%TO.N,/Output 9-16/DOUT15*%
X-8053600Y17539900D02*
X-3987200Y13473500D01*
X-3987200Y13473500D02*
X-3987200Y13045700D01*
X-16278700Y20060700D02*
X-13757900Y17539900D01*
X-13757900Y17539900D02*
X-8053600Y17539900D01*
%TO.N,/Output 9-16/DOUT13*%
X-18987200Y13986700D02*
X-18987200Y13045700D01*
X-25061200Y20060700D02*
X-18987200Y13986700D01*
X-25153700Y20060700D02*
X-25061200Y20060700D01*
X-18987200Y13045700D02*
X-18945000Y13003500D01*
%TO.N,/Output 9-16/DOUT11*%
X-33987200Y20052200D02*
X-33987200Y13045700D01*
X-33978700Y20060700D02*
X-33987200Y20052200D01*
X-33987200Y13045700D02*
X-33945000Y13003500D01*
%TO.N,/Output 9-16/DOUT9*%
X-44366200Y20060700D02*
X-48987200Y15439700D01*
X-44328700Y20060700D02*
X-44366200Y20060700D01*
X-48987200Y15439700D02*
X-48987200Y13045700D01*
%TO.N,/Output 1-8/DOUT7*%
X-63987200Y13176700D02*
X-63987200Y13045700D01*
X-70871200Y20060700D02*
X-63987200Y13176700D01*
X-72763700Y20060700D02*
X-70871200Y20060700D01*
%TO.N,/Output 1-8/DOUT5*%
X-78987200Y16124200D02*
X-78987200Y13045700D01*
X-82923700Y20060700D02*
X-78987200Y16124200D01*
%TO.N,/Output 1-8/DOUT3*%
X-93956200Y18433200D02*
X-92328700Y20060700D01*
X-93987200Y13045700D02*
X-93956200Y13076700D01*
X-93956200Y13076700D02*
X-93956200Y18433200D01*
%TO.N,/Output 1-8/DOUT1*%
X-104471200Y20060700D02*
X-101288700Y20060700D01*
X-108987200Y15544700D02*
X-104471200Y20060700D01*
X-108987200Y13045700D02*
X-108987200Y15544700D01*
%TO.N,/Output 1-8/DOUT2*%
X-108987200Y2074700D02*
X-108987200Y45700D01*
X-101092200Y9969700D02*
X-108987200Y2074700D01*
X-101092200Y14787200D02*
X-101092200Y9969700D01*
X-95818700Y20060700D02*
X-101092200Y14787200D01*
X-108987200Y45700D02*
X-108945000Y3500D01*
%TO.N,/Output 1-8/DOUT4*%
X-93987200Y944700D02*
X-93987200Y45700D01*
X-86354600Y19311600D02*
X-86354600Y8577300D01*
X-87103700Y20060700D02*
X-86354600Y19311600D01*
X-86354600Y8577300D02*
X-93987200Y944700D01*
%TO.N,/Output 1-8/DOUT6*%
X-78872858Y1521642D02*
X-78872858Y45700D01*
X-71204600Y9189900D02*
X-78872858Y1521642D01*
X-71204600Y14361600D02*
X-71204600Y9189900D01*
X-76903700Y20060700D02*
X-71204600Y14361600D01*
%TO.N,/Output 1-8/DOUT8*%
X-63987200Y1604700D02*
X-63987200Y45700D01*
X-56504600Y9087300D02*
X-63987200Y1604700D01*
X-56504600Y16324100D02*
X-56504600Y9087300D01*
X-60241200Y20060700D02*
X-56504600Y16324100D01*
X-66853700Y20060700D02*
X-60241200Y20060700D01*
%TO.N,Net-(J10-Pin_2)*%
X-48987200Y833500D02*
X-48987200Y45700D01*
X-41669600Y15794800D02*
X-41669600Y8151100D01*
X-37403700Y20060700D02*
X-41669600Y15794800D01*
X-41669600Y8151100D02*
X-48987200Y833500D01*
%TO.N,/Output 9-16/DOUT12*%
X-26354600Y17661600D02*
X-28753700Y20060700D01*
X-26354600Y8793300D02*
X-26354600Y17661600D01*
X-33987200Y1160700D02*
X-26354600Y8793300D01*
X-33987200Y45700D02*
X-33987200Y1160700D01*
%TO.N,/Output 9-16/DOUT14*%
X-19628700Y18410700D02*
X-21278700Y20060700D01*
X-16305400Y18410700D02*
X-19628700Y18410700D01*
X-12204600Y14309900D02*
X-16305400Y18410700D01*
X-12204600Y8466100D02*
X-12204600Y14309900D01*
X-18987200Y45700D02*
X-18987200Y1683500D01*
X-18987200Y1683500D02*
X-12204600Y8466100D01*
%TO.N,/Output 9-16/DOUT16*%
X2409400Y15306900D02*
X2409400Y9363300D01*
X-841800Y18558100D02*
X2409400Y15306900D01*
X-3987200Y45700D02*
X-3945000Y3500D01*
X-11176100Y18558100D02*
X-841800Y18558100D01*
X2409400Y9363300D02*
X-3987200Y2966700D01*
X-12678700Y20060700D02*
X-11176100Y18558100D01*
X-3987200Y2966700D02*
X-3987200Y45700D01*
D34*
%TO.N,GND*%
X-23746200Y31398200D02*
X-24841200Y31398200D01*
X-30691200Y31398200D02*
X-32016200Y31398200D01*
X-89891200Y31398200D02*
X-91106200Y31398200D01*
X-84041200Y31398200D02*
X-82363700Y31398200D01*
X-82363700Y31398200D02*
X-82346200Y31415700D01*
D31*
%TO.N,Net-(U2-Y7)*%
X-32606200Y22815700D02*
X-30691200Y24730700D01*
X-30691200Y24730700D02*
X-30691200Y25673200D01*
X-38986200Y22815700D02*
X-32606200Y22815700D01*
X-41741200Y20060700D02*
X-38986200Y22815700D01*
X-42503700Y20060700D02*
X-41741200Y20060700D01*
%TO.N,Net-(U2-Y6)*%
X-32156200Y21365700D02*
X-34233738Y21365700D01*
X-35538738Y20060700D02*
X-35578700Y20060700D01*
X-30041200Y23480700D02*
X-32156200Y21365700D01*
X-34233738Y21365700D02*
X-35538738Y20060700D01*
X-30041200Y25673200D02*
X-30041200Y23480700D01*
%TO.N,Net-(U2-Y5)*%
X-32121200Y20060700D02*
X-32153700Y20060700D01*
X-29391200Y22790700D02*
X-32121200Y20060700D01*
X-29391200Y25673200D02*
X-29391200Y22790700D01*
%TO.N,Net-(U2-Y4)*%
X-28741200Y21898200D02*
X-30578700Y20060700D01*
X-28741200Y25673200D02*
X-28741200Y21898200D01*
%TO.N,Net-(U2-Y0)*%
X-16653700Y22210700D02*
X-14503700Y20060700D01*
X-26141200Y23540700D02*
X-24811200Y22210700D01*
X-24811200Y22210700D02*
X-16653700Y22210700D01*
X-26141200Y25673200D02*
X-26141200Y23540700D01*
%TO.N,Net-(U2-Y1)*%
X-25266200Y21635700D02*
X-19678700Y21635700D01*
X-26791200Y23160700D02*
X-25266200Y21635700D01*
X-19678700Y21635700D02*
X-18103700Y20060700D01*
X-26791200Y25673200D02*
X-26791200Y23160700D01*
%TO.N,Net-(U2-Y2)*%
X-24128700Y21085700D02*
X-23103700Y20060700D01*
X-26066200Y21085700D02*
X-24128700Y21085700D01*
X-27441200Y22460700D02*
X-26066200Y21085700D01*
X-27441200Y25673200D02*
X-27441200Y22460700D01*
%TO.N,Net-(U2-Y3)*%
X-26991200Y20060700D02*
X-26978700Y20060700D01*
X-28091200Y21160700D02*
X-26991200Y20060700D01*
X-28091200Y25673200D02*
X-28091200Y21160700D01*
%TO.N,Net-(U1-Y7)*%
X-98148700Y21375700D02*
X-99463700Y20060700D01*
X-93536200Y21375700D02*
X-98148700Y21375700D01*
X-89891200Y25020700D02*
X-93536200Y21375700D01*
X-89891200Y25673200D02*
X-89891200Y25020700D01*
%TO.N,Net-(U1-Y6)*%
X-92578700Y21475700D02*
X-93993700Y20060700D01*
X-89241200Y23660700D02*
X-91426200Y21475700D01*
X-91426200Y21475700D02*
X-92578700Y21475700D01*
X-89241200Y25673200D02*
X-89241200Y23660700D01*
%TO.N,Net-(U1-Y5)*%
X-88591200Y23040700D02*
X-88591200Y25673200D01*
X-90546200Y20103200D02*
X-90546200Y21085700D01*
X-90546200Y21085700D02*
X-88591200Y23040700D01*
X-90503700Y20060700D02*
X-90546200Y20103200D01*
%TO.N,Net-(U1-Y4)*%
X-87941200Y22800700D02*
X-87941200Y25673200D01*
X-88928700Y21813200D02*
X-87941200Y22800700D01*
X-88928700Y20060700D02*
X-88928700Y21813200D01*
%TO.N,Net-(U1-Y0)*%
X-70866222Y22235722D02*
X-84416222Y22235722D01*
X-85341200Y23160700D02*
X-85341200Y25673200D01*
X-68691200Y20060700D02*
X-70866222Y22235722D01*
X-68678700Y20060700D02*
X-68691200Y20060700D01*
X-84416222Y22235722D02*
X-85341200Y23160700D01*
%TO.N,Net-(U1-Y2)*%
X-84871834Y21135700D02*
X-79803700Y21135700D01*
%TO.N,Net-(U1-Y1)*%
X-76213711Y21685711D02*
X-74588700Y20060700D01*
%TO.N,Net-(U1-Y2)*%
X-86641200Y25673200D02*
X-86641200Y22905066D01*
%TO.N,Net-(U1-Y1)*%
X-84644028Y21685711D02*
X-76213711Y21685711D01*
%TO.N,Net-(U1-Y2)*%
X-86641200Y22905066D02*
X-84871834Y21135700D01*
%TO.N,Net-(U1-Y1)*%
X-85991200Y23032883D02*
X-84644028Y21685711D01*
X-85991200Y25673200D02*
X-85991200Y23032883D01*
%TO.N,Net-(U1-Y2)*%
X-79803700Y21135700D02*
X-78728700Y20060700D01*
%TO.N,Net-(U1-Y3)*%
X-85091200Y20060700D02*
X-84748700Y20060700D01*
X-87291200Y22260700D02*
X-85091200Y20060700D01*
X-87291200Y25673200D02*
X-87291200Y22260700D01*
%TO.N,OUT17*%
X-92328700Y38885700D02*
X-91036200Y38885700D01*
X-94616200Y41173200D02*
X-92328700Y38885700D01*
%TO.N,OUT19*%
X-87941200Y39564866D02*
X-87941200Y31398200D01*
X-89549534Y41173200D02*
X-87941200Y39564866D01*
%TO.N,OUT20*%
X-87126200Y36475700D02*
X-87116200Y36465700D01*
X-87126200Y41063201D02*
X-87126200Y36475700D01*
X-87016201Y41173200D02*
X-87126200Y41063201D01*
X-87291200Y36290700D02*
X-87116200Y36465700D01*
X-87291200Y31398200D02*
X-87291200Y36290700D01*
%TO.N,OUT22*%
X-85991200Y34760700D02*
X-84756200Y35995700D01*
X-85991200Y31398200D02*
X-85991200Y34760700D01*
%TO.N,OUT23*%
X-84446200Y34975700D02*
X-84466200Y34975700D01*
X-79416202Y40005698D02*
X-84446200Y34975700D01*
X-79416202Y41173200D02*
X-79416202Y40005698D01*
X-85341200Y34100700D02*
X-84466200Y34975700D01*
X-85341200Y31398200D02*
X-85341200Y34100700D01*
%TO.N,OUT24*%
X-83491513Y34710387D02*
X-35179013Y34710387D01*
X-35179013Y34710387D02*
X-28816200Y41073200D01*
X-83516200Y34685700D02*
X-83491513Y34710387D01*
X-84691200Y33510700D02*
X-84691200Y31398200D01*
X-76882869Y41173200D02*
X-77028700Y41173200D01*
X-77028700Y41173200D02*
X-84691200Y33510700D01*
%TO.N,OUT25*%
X-30041200Y34920700D02*
X-30636200Y35515700D01*
X-30041200Y31398200D02*
X-30041200Y34920700D01*
X-27316200Y41073200D02*
X-30636200Y37753200D01*
X-30636200Y37753200D02*
X-30636200Y35515700D01*
%TO.N,OUT26*%
X-29391200Y31398200D02*
X-29391200Y35710700D01*
X-29391200Y35710700D02*
X-29646200Y35965700D01*
X-25878700Y41073200D02*
X-29646200Y37305700D01*
X-25816200Y41073200D02*
X-25878700Y41073200D01*
X-29646200Y37305700D02*
X-29646200Y35965700D01*
%TO.N,OUT27*%
X-28776200Y36613200D02*
X-28776200Y31433200D01*
X-24316200Y41073200D02*
X-28776200Y36613200D01*
X-28776200Y31433200D02*
X-28741200Y31398200D01*
%TO.N,OUT28*%
X-28096200Y31403200D02*
X-28091200Y31398200D01*
X-28096200Y35855700D02*
X-28096200Y31403200D01*
X-27366200Y36585700D02*
X-28096200Y35855700D01*
%TO.N,OUT32*%
X-18347450Y39541950D02*
X-25491200Y32398200D01*
X-25491200Y32398200D02*
X-25491200Y31398200D01*
%TO.N,OUT31*%
X-18316200Y41073200D02*
X-26166200Y33223200D01*
X-26166200Y33223200D02*
X-26166200Y31423200D01*
X-26166200Y31423200D02*
X-26141200Y31398200D01*
%TO.N,OUT30*%
X-26791200Y34098200D02*
X-26791200Y31398200D01*
X-23184950Y37704450D02*
X-26791200Y34098200D01*
%TO.N,OUT29*%
X-27446200Y31403200D02*
X-27441200Y31398200D01*
X-27446200Y34943200D02*
X-27446200Y31403200D01*
X-21316200Y41073200D02*
X-27446200Y34943200D01*
D32*
%TO.N,Net-(D3-A)*%
X-128516200Y2124000D02*
X-128516200Y5897500D01*
%TO.N,Net-(D4-A)*%
X15283800Y2124000D02*
X15283800Y5897500D01*
D31*
%TO.N,Net-(J19-Pin_20)*%
X-78316200Y49835700D02*
X-77077600Y48597100D01*
X-77077600Y48597100D02*
X-77077600Y43192931D01*
X-77077600Y43192931D02*
X-76882869Y42998200D01*
%TO.N,Net-(J19-Pin_22)*%
X-75776200Y49835700D02*
X-74537600Y48597100D01*
X-74537600Y48597100D02*
X-74537600Y43186264D01*
X-74537600Y43186264D02*
X-74349536Y42998200D01*
%TO.N,Net-(J19-Pin_26)*%
X-69457600Y48597100D02*
X-69457600Y43172930D01*
X-69457600Y43172930D02*
X-69282870Y42998200D01*
X-70696200Y49835700D02*
X-69457600Y48597100D01*
%TO.N,Net-(J19-Pin_32)*%
X-61837600Y43152929D02*
X-61682871Y42998200D01*
X-61837600Y48597100D02*
X-61837600Y43152929D01*
X-63076200Y49835700D02*
X-61837600Y48597100D01*
%TO.N,Net-(J19-Pin_18)*%
X-79617600Y48597100D02*
X-79617600Y43199598D01*
X-80856200Y49835700D02*
X-79617600Y48597100D01*
X-79617600Y43199598D02*
X-79416202Y42998200D01*
%TO.N,Net-(J19-Pin_14)*%
X-84697600Y48597100D02*
X-84697600Y43212932D01*
X-84697600Y43212932D02*
X-84482868Y42998200D01*
X-85936200Y49835700D02*
X-84697600Y48597100D01*
%TO.N,Net-(J19-Pin_36)*%
X-56757600Y43139600D02*
X-56616200Y42998200D01*
X-56757600Y48597100D02*
X-56757600Y43139600D01*
X-57996200Y49835700D02*
X-56757600Y48597100D01*
%TO.N,Net-(J19-Pin_12)*%
X-87237600Y43219599D02*
X-87016201Y42998200D01*
X-87237600Y48597100D02*
X-87237600Y43219599D01*
X-88476200Y49835700D02*
X-87237600Y48597100D01*
%TO.N,Net-(J19-Pin_16)*%
X-82157600Y43206265D02*
X-82157600Y48597100D01*
X-82157600Y48597100D02*
X-83396200Y49835700D01*
X-81949535Y42998200D02*
X-82157600Y43206265D01*
%TO.N,Net-(J19-Pin_31)*%
X-63076200Y44138204D02*
X-64216204Y42998200D01*
X-63076200Y47295700D02*
X-63076200Y44138204D01*
%TO.N,Net-(J19-Pin_10)*%
X-89777600Y43226266D02*
X-89777600Y48597100D01*
X-89549534Y42998200D02*
X-89777600Y43226266D01*
X-89777600Y48597100D02*
X-91016200Y49835700D01*
%TO.N,Net-(J19-Pin_24)*%
X-73236200Y49835700D02*
X-71997600Y48597100D01*
X-71997600Y48597100D02*
X-71997600Y43179597D01*
X-71997600Y43179597D02*
X-71816203Y42998200D01*
%TO.N,Net-(J19-Pin_34)*%
X-59297600Y48597100D02*
X-59297600Y43146262D01*
X-60536200Y49835700D02*
X-59297600Y48597100D01*
X-59297600Y43146262D02*
X-59149538Y42998200D01*
%TO.N,Net-(J19-Pin_28)*%
X-66917600Y48597100D02*
X-66917600Y43166263D01*
X-68156200Y49835700D02*
X-66917600Y48597100D01*
X-66917600Y43166263D02*
X-66749537Y42998200D01*
%TO.N,Net-(J19-Pin_8)*%
X-93556200Y49835700D02*
X-92317600Y48597100D01*
X-92317600Y48597100D02*
X-92317600Y43232933D01*
X-92317600Y43232933D02*
X-92082867Y42998200D01*
%TO.N,Net-(J19-Pin_6)*%
X-94857600Y43239600D02*
X-94857600Y48597100D01*
X-94616200Y42998200D02*
X-94857600Y43239600D01*
X-94857600Y48597100D02*
X-96096200Y49835700D01*
%TO.N,Net-(J20-Pin_20)*%
X-17841200Y48400700D02*
X-17841200Y43923200D01*
X-17841200Y43923200D02*
X-16816200Y42898200D01*
X-19096200Y49655700D02*
X-17841200Y48400700D01*
%TO.N,Net-(J20-Pin_18)*%
X-21636200Y49655700D02*
X-20366200Y48385700D01*
X-20366200Y48385700D02*
X-20366200Y43448200D01*
X-20366200Y43448200D02*
X-19816200Y42898200D01*
%TO.N,Net-(J20-Pin_8)*%
X-33091200Y48410700D02*
X-34336200Y49655700D01*
X-33091200Y44623200D02*
X-33091200Y48410700D01*
X-34816200Y42898200D02*
X-33091200Y44623200D01*
%TO.N,Net-(J20-Pin_11)*%
X-29256200Y43958200D02*
X-29256200Y47115700D01*
X-30316200Y42898200D02*
X-29256200Y43958200D01*
%TO.N,Net-(J20-Pin_19)*%
X-19096200Y47115700D02*
X-19096200Y43678200D01*
X-19096200Y43678200D02*
X-18316200Y42898200D01*
%TO.N,Net-(J20-Pin_6)*%
X-35616200Y45098200D02*
X-37816200Y42898200D01*
X-35616200Y48395700D02*
X-35616200Y45098200D01*
X-36876200Y49655700D02*
X-35616200Y48395700D01*
%TO.N,Net-(J20-Pin_10)*%
X-30541200Y48400700D02*
X-30541200Y44173200D01*
X-31796200Y49655700D02*
X-30541200Y48400700D01*
X-30541200Y44173200D02*
X-31816200Y42898200D01*
%TO.N,Net-(J20-Pin_16)*%
X-22916200Y48395700D02*
X-22916200Y42998200D01*
X-24176200Y49655700D02*
X-22916200Y48395700D01*
X-22916200Y42998200D02*
X-22816200Y42898200D01*
%TO.N,Net-(J20-Pin_5)*%
X-36876200Y45338200D02*
X-39316200Y42898200D01*
X-36876200Y47115700D02*
X-36876200Y45338200D01*
%TO.N,Net-(J20-Pin_9)*%
X-31796200Y44418200D02*
X-33316200Y42898200D01*
X-31796200Y47115700D02*
X-31796200Y44418200D01*
%TO.N,Net-(J20-Pin_17)*%
X-21316200Y42898200D02*
X-21636200Y43218200D01*
X-21636200Y43218200D02*
X-21636200Y47115700D01*
%TO.N,Net-(J20-Pin_12)*%
X-27991200Y43723200D02*
X-28816200Y42898200D01*
X-27991200Y48390700D02*
X-27991200Y43723200D01*
X-29256200Y49655700D02*
X-27991200Y48390700D01*
%TO.N,Net-(J20-Pin_14)*%
X-25441200Y48380700D02*
X-25441200Y43273200D01*
X-26716200Y49655700D02*
X-25441200Y48380700D01*
X-25441200Y43273200D02*
X-25816200Y42898200D01*
%TO.N,Net-(J20-Pin_7)*%
X-34336200Y44878200D02*
X-34336200Y47115700D01*
X-36316200Y42898200D02*
X-34336200Y44878200D01*
%TO.N,Net-(J20-Pin_13)*%
X-26716200Y47115700D02*
X-26716200Y43498200D01*
X-26716200Y43498200D02*
X-27316200Y42898200D01*
%TO.N,Net-(J20-Pin_15)*%
X-24316200Y42898200D02*
X-24176200Y43038200D01*
X-24176200Y43038200D02*
X-24176200Y47115700D01*
D30*
%TO.N,+5V*%
X-102378281Y49835700D02*
X-104291200Y47922781D01*
X-39416200Y52695700D02*
X-39416200Y49655700D01*
X-52916200Y51057014D02*
X-54569886Y52710700D01*
X-104291200Y47922781D02*
X-104291200Y37810700D01*
X-54569886Y52710700D02*
X-98151200Y52710700D01*
X-101176200Y49835700D02*
X-102378281Y49835700D01*
X-98151200Y52710700D02*
X-98636200Y52225700D01*
X-52916200Y49835700D02*
X-52916200Y51057014D01*
X-39416200Y47115700D02*
X-39416200Y49655700D01*
X-98636200Y49835700D02*
X-101176200Y49835700D01*
X-39456200Y52735700D02*
X-39416200Y52695700D01*
X-98636200Y52225700D02*
X-98636200Y49835700D01*
X-52916200Y47295700D02*
X-52916200Y49835700D01*
X-104291200Y37810700D02*
X-94816200Y28335700D01*
X-41414327Y52735700D02*
X-39456200Y52735700D01*
D32*
%TO.N,VIN1*%
X-130341190Y-539290D02*
X-130341190Y-23437305D01*
X-130341190Y-23437305D02*
X-118359361Y-23437460D01*
X-115516200Y-20594300D02*
X-115516200Y-15914300D01*
X-118359361Y-23437460D02*
X-115516200Y-20594300D01*
X-129502900Y299000D02*
X-130341190Y-539290D01*
X-128516200Y299000D02*
X-129502900Y299000D01*
D35*
%TO.N,/Output 1-8/VOUT1*%
X-106894600Y-8785100D02*
X-106894600Y-12485100D01*
D36*
X-113017200Y7003500D02*
X-115657200Y4363500D01*
D35*
%TO.N,/Output 1-8/VOUT2*%
X-100194167Y-12500100D02*
X-100194167Y-8800100D01*
%TO.N,/Output 1-8/VOUT3*%
X-93493734Y-12500100D02*
X-93493734Y-8800100D01*
%TO.N,/Output 1-8/VOUT4*%
X-86793301Y-12500100D02*
X-86793301Y-8800100D01*
%TO.N,/Output 1-8/VOUT5*%
X-80092868Y-12495100D02*
X-80092868Y-8795100D01*
%TO.N,/Output 1-8/VOUT6*%
X-73392435Y-8795100D02*
X-73392435Y-12495100D01*
%TO.N,/Output 1-8/VOUT7*%
X-66692002Y-8795100D02*
X-66692002Y-12495100D01*
D32*
%TO.N,VIN2*%
X4336611Y-23439111D02*
X2283800Y-21386300D01*
X2283800Y-21386300D02*
X2283800Y-15814300D01*
X15283800Y299000D02*
X16470500Y299000D01*
X17104381Y-7334881D02*
X17108638Y-23439276D01*
X16470500Y299000D02*
X17108790Y-339290D01*
X17108638Y-23439276D02*
X4336611Y-23439111D01*
X17108790Y-7330472D02*
X17104381Y-7334881D01*
X17108790Y-339290D02*
X17108790Y-7330472D01*
D35*
%TO.N,/Output 1-8/VOUT8*%
X-59991569Y-8795100D02*
X-59991569Y-12495100D01*
%TO.N,/Output 9-16/VOUT9*%
X-53291136Y-8795100D02*
X-53291136Y-12495100D01*
%TO.N,/Output 9-16/VOUT10*%
X-46590703Y-8795100D02*
X-46590703Y-12495100D01*
%TO.N,/Output 9-16/VOUT11*%
X-39890270Y-12495100D02*
X-39890270Y-8795100D01*
%TO.N,/Output 9-16/VOUT12*%
X-33189837Y-8795100D02*
X-33189837Y-12495100D01*
%TO.N,/Output 9-16/VOUT13*%
X-26489404Y-12560100D02*
X-26489404Y-8860100D01*
%TO.N,/Output 9-16/VOUT14*%
X-19788971Y-8860100D02*
X-19788971Y-12560100D01*
%TO.N,/Output 9-16/VOUT15*%
X-13088538Y-8860100D02*
X-13088538Y-12560100D01*
%TO.N,/Output 9-16/VOUT16*%
X-6388100Y-12560100D02*
X-6388100Y-8860100D01*
D31*
%TO.N,OUT32*%
X-16816200Y41073200D02*
X-18347450Y39541950D01*
X-40991200Y40535700D02*
X-40941200Y40585700D01*
X-56616200Y41173200D02*
X-55978700Y40535700D01*
X-55978700Y40535700D02*
X-40991200Y40535700D01*
%TO.N,OUT31*%
X-57587038Y39610700D02*
X-41891200Y39610700D01*
X-59149538Y41173200D02*
X-57587038Y39610700D01*
%TO.N,OUT23*%
X-30316200Y41073200D02*
X-36129512Y35259888D01*
X-36129512Y35259888D02*
X-81190388Y35259888D01*
X-81190388Y35259888D02*
X-81431045Y35500545D01*
%TO.N,OUT30*%
X-19816200Y41073200D02*
X-23184950Y37704450D01*
X-61666200Y40010700D02*
X-61541200Y39885700D01*
X-61682871Y41173200D02*
X-61666200Y41156529D01*
X-61666200Y41156529D02*
X-61666200Y40010700D01*
%TO.N,OUT27*%
X-69266200Y41156530D02*
X-69266200Y39910700D01*
X-69282870Y41173200D02*
X-69266200Y41156530D01*
%TO.N,OUT26*%
X-71766200Y41123197D02*
X-71766200Y39885700D01*
X-71816203Y41173200D02*
X-71766200Y41123197D01*
%TO.N,OUT25*%
X-74349536Y40219036D02*
X-74141200Y40010700D01*
X-74349536Y41173200D02*
X-74349536Y40219036D01*
%TO.N,OUT29*%
X-64216204Y41173200D02*
X-64216204Y39960696D01*
X-64216204Y39960696D02*
X-64266200Y39910700D01*
%TO.N,OUT28*%
X-22816200Y41073200D02*
X-22878700Y41073200D01*
X-66641200Y41064863D02*
X-66641200Y39885700D01*
X-66749537Y41173200D02*
X-66641200Y41064863D01*
X-22878700Y41073200D02*
X-27366200Y36585700D01*
%TD*%
%TA.AperFunction,Conductor*%
%TO.N,VIN1*%
G36*
X-111802924Y-10623890D02*
G01*
X-111659019Y-10683498D01*
X-111405715Y-10751371D01*
X-111292834Y-10766230D01*
X-111292833Y-10766231D01*
X-111292832Y-10766231D01*
X-111145720Y-10785600D01*
X-110809853Y-10785600D01*
X-110806137Y-10786691D01*
X-110802363Y-10785823D01*
X-110772344Y-10796613D01*
X-110741732Y-10805602D01*
X-110738137Y-10808909D01*
X-110735551Y-10809839D01*
X-110709894Y-10834892D01*
X-110694359Y-10855137D01*
X-110677912Y-10883623D01*
X-110639858Y-10975494D01*
X-110631345Y-11007265D01*
X-110617278Y-11114111D01*
X-110616200Y-11130558D01*
X-110616200Y-14514300D01*
X-57832637Y-14514300D01*
X-57816192Y-14515378D01*
X-57795592Y-14518089D01*
X-57709344Y-14529444D01*
X-57677584Y-14537954D01*
X-57585708Y-14576009D01*
X-57557226Y-14592453D01*
X-57478337Y-14652984D01*
X-57455078Y-14676242D01*
X-57394543Y-14755129D01*
X-57378097Y-14783613D01*
X-57340042Y-14875478D01*
X-57331528Y-14907249D01*
X-57317458Y-15014088D01*
X-57316379Y-15030534D01*
X-57316022Y-23498018D01*
X-57317099Y-23514464D01*
X-57331162Y-23621318D01*
X-57339675Y-23653092D01*
X-57377725Y-23744960D01*
X-57394170Y-23773446D01*
X-57454705Y-23852341D01*
X-57477965Y-23875602D01*
X-57556857Y-23936139D01*
X-57585341Y-23952585D01*
X-57606464Y-23961334D01*
X-57649614Y-23979208D01*
X-57697831Y-23988800D01*
X-119234390Y-23988800D01*
X-119242700Y-23987147D01*
X-119247859Y-23988078D01*
X-119282606Y-23979209D01*
X-119346878Y-23952587D01*
X-119375361Y-23936142D01*
X-119386099Y-23927902D01*
X-119454254Y-23875605D01*
X-119477506Y-23852353D01*
X-119538044Y-23773458D01*
X-119554487Y-23744979D01*
X-119592545Y-23653099D01*
X-119601055Y-23621337D01*
X-119615122Y-23514487D01*
X-119616200Y-23498041D01*
X-119616200Y-20571969D01*
X-108332100Y-20571969D01*
X-108332100Y-20798230D01*
X-108296703Y-21021718D01*
X-108226784Y-21236906D01*
X-108202052Y-21285444D01*
X-107713522Y-20796914D01*
X-107687896Y-20925744D01*
X-107625706Y-21075884D01*
X-107535419Y-21211007D01*
X-107420507Y-21325919D01*
X-107285384Y-21416206D01*
X-107135244Y-21478396D01*
X-107006416Y-21504021D01*
X-107494946Y-21992550D01*
X-107446409Y-22017282D01*
X-107231219Y-22087202D01*
X-107007731Y-22122600D01*
X-106781469Y-22122600D01*
X-106557982Y-22087202D01*
X-106342789Y-22017281D01*
X-106294255Y-21992551D01*
X-106294255Y-21992550D01*
X-106782784Y-21504021D01*
X-106653956Y-21478396D01*
X-106503816Y-21416206D01*
X-106368693Y-21325919D01*
X-106253781Y-21211007D01*
X-106163494Y-21075884D01*
X-106101304Y-20925744D01*
X-106075679Y-20796916D01*
X-105587150Y-21285445D01*
X-105587149Y-21285445D01*
X-105562419Y-21236911D01*
X-105492498Y-21021718D01*
X-105457100Y-20798230D01*
X-105457100Y-20586969D01*
X-101631667Y-20586969D01*
X-101631667Y-20813230D01*
X-101596270Y-21036718D01*
X-101526351Y-21251906D01*
X-101501619Y-21300444D01*
X-101013089Y-20811914D01*
X-100987463Y-20940744D01*
X-100925273Y-21090884D01*
X-100834986Y-21226007D01*
X-100720074Y-21340919D01*
X-100584951Y-21431206D01*
X-100434811Y-21493396D01*
X-100305983Y-21519021D01*
X-100794513Y-22007550D01*
X-100745976Y-22032282D01*
X-100530786Y-22102202D01*
X-100307298Y-22137600D01*
X-100081036Y-22137600D01*
X-99857549Y-22102202D01*
X-99642356Y-22032281D01*
X-99593822Y-22007551D01*
X-99593822Y-22007550D01*
X-100082351Y-21519021D01*
X-99953523Y-21493396D01*
X-99803383Y-21431206D01*
X-99668260Y-21340919D01*
X-99553348Y-21226007D01*
X-99463061Y-21090884D01*
X-99400871Y-20940744D01*
X-99375246Y-20811916D01*
X-98886717Y-21300445D01*
X-98886716Y-21300445D01*
X-98861986Y-21251911D01*
X-98792065Y-21036718D01*
X-98756667Y-20813230D01*
X-98756667Y-20586969D01*
X-94931234Y-20586969D01*
X-94931234Y-20813230D01*
X-94895837Y-21036718D01*
X-94825918Y-21251906D01*
X-94801186Y-21300444D01*
X-94312656Y-20811914D01*
X-94287030Y-20940744D01*
X-94224840Y-21090884D01*
X-94134553Y-21226007D01*
X-94019641Y-21340919D01*
X-93884518Y-21431206D01*
X-93734378Y-21493396D01*
X-93605550Y-21519021D01*
X-94094080Y-22007550D01*
X-94045543Y-22032282D01*
X-93830353Y-22102202D01*
X-93606865Y-22137600D01*
X-93380603Y-22137600D01*
X-93157116Y-22102202D01*
X-92941923Y-22032281D01*
X-92893389Y-22007551D01*
X-92893389Y-22007550D01*
X-93381918Y-21519021D01*
X-93253090Y-21493396D01*
X-93102950Y-21431206D01*
X-92967827Y-21340919D01*
X-92852915Y-21226007D01*
X-92762628Y-21090884D01*
X-92700438Y-20940744D01*
X-92674813Y-20811916D01*
X-92186284Y-21300445D01*
X-92186283Y-21300445D01*
X-92161553Y-21251911D01*
X-92091632Y-21036718D01*
X-92056234Y-20813230D01*
X-92056234Y-20586969D01*
X-88230801Y-20586969D01*
X-88230801Y-20813230D01*
X-88195404Y-21036718D01*
X-88125485Y-21251906D01*
X-88100753Y-21300444D01*
X-87612223Y-20811914D01*
X-87586597Y-20940744D01*
X-87524407Y-21090884D01*
X-87434120Y-21226007D01*
X-87319208Y-21340919D01*
X-87184085Y-21431206D01*
X-87033945Y-21493396D01*
X-86905117Y-21519021D01*
X-87393647Y-22007550D01*
X-87345110Y-22032282D01*
X-87129920Y-22102202D01*
X-86906432Y-22137600D01*
X-86680170Y-22137600D01*
X-86456683Y-22102202D01*
X-86241490Y-22032281D01*
X-86192956Y-22007551D01*
X-86192956Y-22007550D01*
X-86681485Y-21519021D01*
X-86552657Y-21493396D01*
X-86402517Y-21431206D01*
X-86267394Y-21340919D01*
X-86152482Y-21226007D01*
X-86062195Y-21090884D01*
X-86000005Y-20940744D01*
X-85974380Y-20811916D01*
X-85485851Y-21300445D01*
X-85485850Y-21300445D01*
X-85461120Y-21251911D01*
X-85391199Y-21036718D01*
X-85355801Y-20813230D01*
X-85355801Y-20586976D01*
X-85355803Y-20586961D01*
X-85356594Y-20581969D01*
X-81530368Y-20581969D01*
X-81530368Y-20808230D01*
X-81494971Y-21031718D01*
X-81425052Y-21246906D01*
X-81400320Y-21295444D01*
X-80911790Y-20806914D01*
X-80886164Y-20935744D01*
X-80823974Y-21085884D01*
X-80733687Y-21221007D01*
X-80618775Y-21335919D01*
X-80483652Y-21426206D01*
X-80333512Y-21488396D01*
X-80204684Y-21514021D01*
X-80693214Y-22002550D01*
X-80644677Y-22027282D01*
X-80429487Y-22097202D01*
X-80205999Y-22132600D01*
X-79979737Y-22132600D01*
X-79756250Y-22097202D01*
X-79541057Y-22027281D01*
X-79492523Y-22002551D01*
X-79492523Y-22002550D01*
X-79981052Y-21514021D01*
X-79852224Y-21488396D01*
X-79702084Y-21426206D01*
X-79566961Y-21335919D01*
X-79452049Y-21221007D01*
X-79361762Y-21085884D01*
X-79299572Y-20935744D01*
X-79273947Y-20806916D01*
X-78785418Y-21295445D01*
X-78785417Y-21295445D01*
X-78760687Y-21246911D01*
X-78690766Y-21031718D01*
X-78655368Y-20808230D01*
X-78655368Y-20581969D01*
X-74829935Y-20581969D01*
X-74829935Y-20808230D01*
X-74794538Y-21031718D01*
X-74724619Y-21246906D01*
X-74699887Y-21295444D01*
X-74211357Y-20806914D01*
X-74185731Y-20935744D01*
X-74123541Y-21085884D01*
X-74033254Y-21221007D01*
X-73918342Y-21335919D01*
X-73783219Y-21426206D01*
X-73633079Y-21488396D01*
X-73504251Y-21514021D01*
X-73992781Y-22002550D01*
X-73944244Y-22027282D01*
X-73729054Y-22097202D01*
X-73505566Y-22132600D01*
X-73279304Y-22132600D01*
X-73055817Y-22097202D01*
X-72840624Y-22027281D01*
X-72792090Y-22002551D01*
X-72792090Y-22002550D01*
X-73280619Y-21514021D01*
X-73151791Y-21488396D01*
X-73001651Y-21426206D01*
X-72866528Y-21335919D01*
X-72751616Y-21221007D01*
X-72661329Y-21085884D01*
X-72599139Y-20935744D01*
X-72573514Y-20806916D01*
X-72084985Y-21295445D01*
X-72084984Y-21295445D01*
X-72060254Y-21246911D01*
X-71990333Y-21031718D01*
X-71954935Y-20808230D01*
X-71954935Y-20581969D01*
X-68129502Y-20581969D01*
X-68129502Y-20808230D01*
X-68094105Y-21031718D01*
X-68024186Y-21246906D01*
X-67999454Y-21295444D01*
X-67510924Y-20806914D01*
X-67485298Y-20935744D01*
X-67423108Y-21085884D01*
X-67332821Y-21221007D01*
X-67217909Y-21335919D01*
X-67082786Y-21426206D01*
X-66932646Y-21488396D01*
X-66803818Y-21514021D01*
X-67292348Y-22002550D01*
X-67243811Y-22027282D01*
X-67028621Y-22097202D01*
X-66805133Y-22132600D01*
X-66578871Y-22132600D01*
X-66355384Y-22097202D01*
X-66140191Y-22027281D01*
X-66091657Y-22002551D01*
X-66091657Y-22002550D01*
X-66580186Y-21514021D01*
X-66451358Y-21488396D01*
X-66301218Y-21426206D01*
X-66166095Y-21335919D01*
X-66051183Y-21221007D01*
X-65960896Y-21085884D01*
X-65898706Y-20935744D01*
X-65873081Y-20806916D01*
X-65384552Y-21295445D01*
X-65384551Y-21295445D01*
X-65359821Y-21246911D01*
X-65289900Y-21031718D01*
X-65254502Y-20808230D01*
X-65254502Y-20581969D01*
X-61429069Y-20581969D01*
X-61429069Y-20808230D01*
X-61393672Y-21031718D01*
X-61323753Y-21246906D01*
X-61299021Y-21295444D01*
X-60810491Y-20806914D01*
X-60784865Y-20935744D01*
X-60722675Y-21085884D01*
X-60632388Y-21221007D01*
X-60517476Y-21335919D01*
X-60382353Y-21426206D01*
X-60232213Y-21488396D01*
X-60103385Y-21514021D01*
X-60591915Y-22002550D01*
X-60543378Y-22027282D01*
X-60328188Y-22097202D01*
X-60104700Y-22132600D01*
X-59878438Y-22132600D01*
X-59654951Y-22097202D01*
X-59439758Y-22027281D01*
X-59391224Y-22002551D01*
X-59391224Y-22002550D01*
X-59879753Y-21514021D01*
X-59750925Y-21488396D01*
X-59600785Y-21426206D01*
X-59465662Y-21335919D01*
X-59350750Y-21221007D01*
X-59260463Y-21085884D01*
X-59198273Y-20935744D01*
X-59172648Y-20806916D01*
X-58684119Y-21295445D01*
X-58684118Y-21295445D01*
X-58659388Y-21246911D01*
X-58589467Y-21031718D01*
X-58554069Y-20808230D01*
X-58554069Y-20581969D01*
X-58589467Y-20358481D01*
X-58659387Y-20143291D01*
X-58659387Y-20143290D01*
X-58684119Y-20094754D01*
X-59172648Y-20583283D01*
X-59198273Y-20454456D01*
X-59260463Y-20304316D01*
X-59350750Y-20169193D01*
X-59465662Y-20054281D01*
X-59600785Y-19963994D01*
X-59750925Y-19901804D01*
X-59879755Y-19876178D01*
X-59391225Y-19387648D01*
X-59439763Y-19362916D01*
X-59654951Y-19292997D01*
X-59878438Y-19257600D01*
X-60104700Y-19257600D01*
X-60328188Y-19292997D01*
X-60543381Y-19362918D01*
X-60591915Y-19387647D01*
X-60591915Y-19387649D01*
X-60103386Y-19876178D01*
X-60232213Y-19901804D01*
X-60382353Y-19963994D01*
X-60517476Y-20054281D01*
X-60632388Y-20169193D01*
X-60722675Y-20304316D01*
X-60784865Y-20454456D01*
X-60810491Y-20583283D01*
X-61299020Y-20094754D01*
X-61299022Y-20094754D01*
X-61323751Y-20143288D01*
X-61393672Y-20358481D01*
X-61429069Y-20581969D01*
X-65254502Y-20581969D01*
X-65289900Y-20358481D01*
X-65359820Y-20143291D01*
X-65359820Y-20143290D01*
X-65384552Y-20094754D01*
X-65873081Y-20583283D01*
X-65898706Y-20454456D01*
X-65960896Y-20304316D01*
X-66051183Y-20169193D01*
X-66166095Y-20054281D01*
X-66301218Y-19963994D01*
X-66451358Y-19901804D01*
X-66580188Y-19876178D01*
X-66091658Y-19387648D01*
X-66140196Y-19362916D01*
X-66355384Y-19292997D01*
X-66578871Y-19257600D01*
X-66805133Y-19257600D01*
X-67028621Y-19292997D01*
X-67243814Y-19362918D01*
X-67292348Y-19387647D01*
X-67292348Y-19387649D01*
X-66803819Y-19876178D01*
X-66932646Y-19901804D01*
X-67082786Y-19963994D01*
X-67217909Y-20054281D01*
X-67332821Y-20169193D01*
X-67423108Y-20304316D01*
X-67485298Y-20454456D01*
X-67510924Y-20583283D01*
X-67999453Y-20094754D01*
X-67999455Y-20094754D01*
X-68024184Y-20143288D01*
X-68094105Y-20358481D01*
X-68129502Y-20581969D01*
X-71954935Y-20581969D01*
X-71990333Y-20358481D01*
X-72060253Y-20143291D01*
X-72060253Y-20143290D01*
X-72084985Y-20094754D01*
X-72573514Y-20583283D01*
X-72599139Y-20454456D01*
X-72661329Y-20304316D01*
X-72751616Y-20169193D01*
X-72866528Y-20054281D01*
X-73001651Y-19963994D01*
X-73151791Y-19901804D01*
X-73280621Y-19876178D01*
X-72792091Y-19387648D01*
X-72840629Y-19362916D01*
X-73055817Y-19292997D01*
X-73279304Y-19257600D01*
X-73505566Y-19257600D01*
X-73729054Y-19292997D01*
X-73944247Y-19362918D01*
X-73992781Y-19387647D01*
X-73992781Y-19387649D01*
X-73504252Y-19876178D01*
X-73633079Y-19901804D01*
X-73783219Y-19963994D01*
X-73918342Y-20054281D01*
X-74033254Y-20169193D01*
X-74123541Y-20304316D01*
X-74185731Y-20454456D01*
X-74211357Y-20583283D01*
X-74699886Y-20094754D01*
X-74699888Y-20094754D01*
X-74724617Y-20143288D01*
X-74794538Y-20358481D01*
X-74829935Y-20581969D01*
X-78655368Y-20581969D01*
X-78690766Y-20358481D01*
X-78760686Y-20143291D01*
X-78760686Y-20143290D01*
X-78785418Y-20094754D01*
X-79273947Y-20583283D01*
X-79299572Y-20454456D01*
X-79361762Y-20304316D01*
X-79452049Y-20169193D01*
X-79566961Y-20054281D01*
X-79702084Y-19963994D01*
X-79852224Y-19901804D01*
X-79981054Y-19876178D01*
X-79492524Y-19387648D01*
X-79541062Y-19362916D01*
X-79756250Y-19292997D01*
X-79979737Y-19257600D01*
X-80205999Y-19257600D01*
X-80429487Y-19292997D01*
X-80644680Y-19362918D01*
X-80693214Y-19387647D01*
X-80693214Y-19387649D01*
X-80204685Y-19876178D01*
X-80333512Y-19901804D01*
X-80483652Y-19963994D01*
X-80618775Y-20054281D01*
X-80733687Y-20169193D01*
X-80823974Y-20304316D01*
X-80886164Y-20454456D01*
X-80911790Y-20583283D01*
X-81400319Y-20094754D01*
X-81400321Y-20094754D01*
X-81425050Y-20143288D01*
X-81494971Y-20358481D01*
X-81530368Y-20581969D01*
X-85356594Y-20581969D01*
X-85391199Y-20363481D01*
X-85461119Y-20148291D01*
X-85461119Y-20148290D01*
X-85485851Y-20099754D01*
X-85974380Y-20588283D01*
X-86000005Y-20459456D01*
X-86062195Y-20309316D01*
X-86152482Y-20174193D01*
X-86267394Y-20059281D01*
X-86402517Y-19968994D01*
X-86552657Y-19906804D01*
X-86681487Y-19881178D01*
X-86192957Y-19392648D01*
X-86241495Y-19367916D01*
X-86456683Y-19297997D01*
X-86680170Y-19262600D01*
X-86906432Y-19262600D01*
X-87129920Y-19297997D01*
X-87345113Y-19367918D01*
X-87393647Y-19392647D01*
X-87393647Y-19392649D01*
X-86905118Y-19881178D01*
X-87033945Y-19906804D01*
X-87184085Y-19968994D01*
X-87319208Y-20059281D01*
X-87434120Y-20174193D01*
X-87524407Y-20309316D01*
X-87586597Y-20459456D01*
X-87612223Y-20588283D01*
X-88100752Y-20099754D01*
X-88100754Y-20099754D01*
X-88125483Y-20148288D01*
X-88195404Y-20363481D01*
X-88230801Y-20586969D01*
X-92056234Y-20586969D01*
X-92091632Y-20363481D01*
X-92161552Y-20148291D01*
X-92161552Y-20148290D01*
X-92186284Y-20099754D01*
X-92674813Y-20588283D01*
X-92700438Y-20459456D01*
X-92762628Y-20309316D01*
X-92852915Y-20174193D01*
X-92967827Y-20059281D01*
X-93102950Y-19968994D01*
X-93253090Y-19906804D01*
X-93381920Y-19881178D01*
X-92893390Y-19392648D01*
X-92941928Y-19367916D01*
X-93157116Y-19297997D01*
X-93380603Y-19262600D01*
X-93606865Y-19262600D01*
X-93830353Y-19297997D01*
X-94045546Y-19367918D01*
X-94094080Y-19392647D01*
X-94094080Y-19392649D01*
X-93605551Y-19881178D01*
X-93734378Y-19906804D01*
X-93884518Y-19968994D01*
X-94019641Y-20059281D01*
X-94134553Y-20174193D01*
X-94224840Y-20309316D01*
X-94287030Y-20459456D01*
X-94312656Y-20588283D01*
X-94801185Y-20099754D01*
X-94801187Y-20099754D01*
X-94825916Y-20148288D01*
X-94895837Y-20363481D01*
X-94931234Y-20586969D01*
X-98756667Y-20586969D01*
X-98792065Y-20363481D01*
X-98861985Y-20148291D01*
X-98861985Y-20148290D01*
X-98886717Y-20099754D01*
X-99375246Y-20588283D01*
X-99400871Y-20459456D01*
X-99463061Y-20309316D01*
X-99553348Y-20174193D01*
X-99668260Y-20059281D01*
X-99803383Y-19968994D01*
X-99953523Y-19906804D01*
X-100082353Y-19881178D01*
X-99593823Y-19392648D01*
X-99642361Y-19367916D01*
X-99857549Y-19297997D01*
X-100081036Y-19262600D01*
X-100307298Y-19262600D01*
X-100530786Y-19297997D01*
X-100745979Y-19367918D01*
X-100794513Y-19392647D01*
X-100794513Y-19392649D01*
X-100305984Y-19881178D01*
X-100434811Y-19906804D01*
X-100584951Y-19968994D01*
X-100720074Y-20059281D01*
X-100834986Y-20174193D01*
X-100925273Y-20309316D01*
X-100987463Y-20459456D01*
X-101013089Y-20588283D01*
X-101501618Y-20099754D01*
X-101501620Y-20099754D01*
X-101526349Y-20148288D01*
X-101596270Y-20363481D01*
X-101631667Y-20586969D01*
X-105457100Y-20586969D01*
X-105457100Y-20571969D01*
X-105492498Y-20348481D01*
X-105562418Y-20133291D01*
X-105562418Y-20133290D01*
X-105587150Y-20084754D01*
X-106075679Y-20573283D01*
X-106101304Y-20444456D01*
X-106163494Y-20294316D01*
X-106253781Y-20159193D01*
X-106368693Y-20044281D01*
X-106503816Y-19953994D01*
X-106653956Y-19891804D01*
X-106782786Y-19866178D01*
X-106294256Y-19377648D01*
X-106342794Y-19352916D01*
X-106557982Y-19282997D01*
X-106781469Y-19247600D01*
X-107007731Y-19247600D01*
X-107231219Y-19282997D01*
X-107446412Y-19352918D01*
X-107494946Y-19377647D01*
X-107494946Y-19377649D01*
X-107006417Y-19866178D01*
X-107135244Y-19891804D01*
X-107285384Y-19953994D01*
X-107420507Y-20044281D01*
X-107535419Y-20159193D01*
X-107625706Y-20294316D01*
X-107687896Y-20444456D01*
X-107713522Y-20573283D01*
X-108202051Y-20084754D01*
X-108202053Y-20084754D01*
X-108226782Y-20133288D01*
X-108296703Y-20348481D01*
X-108332100Y-20571969D01*
X-119616200Y-20571969D01*
X-119616200Y-13894598D01*
X-117716200Y-13894598D01*
X-117716200Y-15414300D01*
X-116204397Y-15414300D01*
X-116269460Y-15511674D01*
X-116333535Y-15666364D01*
X-116366200Y-15830582D01*
X-116366200Y-15998018D01*
X-116333535Y-16162236D01*
X-116269460Y-16316926D01*
X-116204397Y-16414300D01*
X-117716200Y-16414300D01*
X-117716200Y-17934001D01*
X-117704596Y-17992336D01*
X-117660393Y-18058492D01*
X-117594237Y-18102695D01*
X-117535902Y-18114299D01*
X-117535897Y-18114300D01*
X-116016200Y-18114300D01*
X-116016200Y-16602497D01*
X-115918826Y-16667560D01*
X-115764136Y-16731635D01*
X-115599918Y-16764300D01*
X-115432482Y-16764300D01*
X-115268264Y-16731635D01*
X-115113574Y-16667560D01*
X-115016200Y-16602497D01*
X-115016200Y-18114300D01*
X-113496503Y-18114300D01*
X-113496499Y-18114299D01*
X-113438164Y-18102695D01*
X-113372008Y-18058492D01*
X-113327805Y-17992336D01*
X-113316201Y-17934001D01*
X-113316200Y-17933996D01*
X-113316200Y-16871969D01*
X-108332100Y-16871969D01*
X-108332100Y-17098230D01*
X-108296703Y-17321718D01*
X-108226784Y-17536906D01*
X-108202052Y-17585444D01*
X-107713522Y-17096914D01*
X-107687896Y-17225744D01*
X-107625706Y-17375884D01*
X-107535419Y-17511007D01*
X-107420507Y-17625919D01*
X-107285384Y-17716206D01*
X-107135244Y-17778396D01*
X-107006416Y-17804021D01*
X-107494946Y-18292550D01*
X-107446409Y-18317282D01*
X-107231219Y-18387202D01*
X-107007731Y-18422600D01*
X-106781469Y-18422600D01*
X-106557982Y-18387202D01*
X-106342789Y-18317281D01*
X-106294255Y-18292551D01*
X-106294255Y-18292550D01*
X-106782784Y-17804021D01*
X-106653956Y-17778396D01*
X-106503816Y-17716206D01*
X-106368693Y-17625919D01*
X-106253781Y-17511007D01*
X-106163494Y-17375884D01*
X-106101304Y-17225744D01*
X-106075679Y-17096916D01*
X-105587150Y-17585445D01*
X-105587149Y-17585445D01*
X-105562419Y-17536911D01*
X-105492498Y-17321718D01*
X-105457100Y-17098230D01*
X-105457100Y-16886969D01*
X-101631667Y-16886969D01*
X-101631667Y-17113230D01*
X-101596270Y-17336718D01*
X-101526351Y-17551906D01*
X-101501619Y-17600444D01*
X-101013089Y-17111914D01*
X-100987463Y-17240744D01*
X-100925273Y-17390884D01*
X-100834986Y-17526007D01*
X-100720074Y-17640919D01*
X-100584951Y-17731206D01*
X-100434811Y-17793396D01*
X-100305983Y-17819021D01*
X-100794513Y-18307550D01*
X-100745976Y-18332282D01*
X-100530786Y-18402202D01*
X-100307298Y-18437600D01*
X-100081036Y-18437600D01*
X-99857549Y-18402202D01*
X-99642356Y-18332281D01*
X-99593822Y-18307551D01*
X-99593822Y-18307550D01*
X-100082351Y-17819021D01*
X-99953523Y-17793396D01*
X-99803383Y-17731206D01*
X-99668260Y-17640919D01*
X-99553348Y-17526007D01*
X-99463061Y-17390884D01*
X-99400871Y-17240744D01*
X-99375246Y-17111916D01*
X-98886717Y-17600445D01*
X-98886716Y-17600445D01*
X-98861986Y-17551911D01*
X-98792065Y-17336718D01*
X-98756667Y-17113230D01*
X-98756667Y-16886969D01*
X-94931234Y-16886969D01*
X-94931234Y-17113230D01*
X-94895837Y-17336718D01*
X-94825918Y-17551906D01*
X-94801186Y-17600444D01*
X-94312656Y-17111914D01*
X-94287030Y-17240744D01*
X-94224840Y-17390884D01*
X-94134553Y-17526007D01*
X-94019641Y-17640919D01*
X-93884518Y-17731206D01*
X-93734378Y-17793396D01*
X-93605550Y-17819021D01*
X-94094080Y-18307550D01*
X-94045543Y-18332282D01*
X-93830353Y-18402202D01*
X-93606865Y-18437600D01*
X-93380603Y-18437600D01*
X-93157116Y-18402202D01*
X-92941923Y-18332281D01*
X-92893389Y-18307551D01*
X-92893389Y-18307550D01*
X-93381918Y-17819021D01*
X-93253090Y-17793396D01*
X-93102950Y-17731206D01*
X-92967827Y-17640919D01*
X-92852915Y-17526007D01*
X-92762628Y-17390884D01*
X-92700438Y-17240744D01*
X-92674813Y-17111916D01*
X-92186284Y-17600445D01*
X-92186283Y-17600445D01*
X-92161553Y-17551911D01*
X-92091632Y-17336718D01*
X-92056234Y-17113230D01*
X-92056234Y-16886969D01*
X-88230801Y-16886969D01*
X-88230801Y-17113230D01*
X-88195404Y-17336718D01*
X-88125485Y-17551906D01*
X-88100753Y-17600444D01*
X-87612223Y-17111914D01*
X-87586597Y-17240744D01*
X-87524407Y-17390884D01*
X-87434120Y-17526007D01*
X-87319208Y-17640919D01*
X-87184085Y-17731206D01*
X-87033945Y-17793396D01*
X-86905117Y-17819021D01*
X-87393647Y-18307550D01*
X-87345110Y-18332282D01*
X-87129920Y-18402202D01*
X-86906432Y-18437600D01*
X-86680170Y-18437600D01*
X-86456683Y-18402202D01*
X-86241490Y-18332281D01*
X-86192956Y-18307551D01*
X-86192956Y-18307550D01*
X-86681485Y-17819021D01*
X-86552657Y-17793396D01*
X-86402517Y-17731206D01*
X-86267394Y-17640919D01*
X-86152482Y-17526007D01*
X-86062195Y-17390884D01*
X-86000005Y-17240744D01*
X-85974380Y-17111916D01*
X-85485851Y-17600445D01*
X-85485850Y-17600445D01*
X-85461120Y-17551911D01*
X-85391199Y-17336718D01*
X-85355801Y-17113230D01*
X-85355801Y-16886976D01*
X-85355803Y-16886961D01*
X-85356594Y-16881969D01*
X-81530368Y-16881969D01*
X-81530368Y-17108230D01*
X-81494971Y-17331718D01*
X-81425052Y-17546906D01*
X-81400320Y-17595444D01*
X-80911790Y-17106914D01*
X-80886164Y-17235744D01*
X-80823974Y-17385884D01*
X-80733687Y-17521007D01*
X-80618775Y-17635919D01*
X-80483652Y-17726206D01*
X-80333512Y-17788396D01*
X-80204684Y-17814021D01*
X-80693214Y-18302550D01*
X-80644677Y-18327282D01*
X-80429487Y-18397202D01*
X-80205999Y-18432600D01*
X-79979737Y-18432600D01*
X-79756250Y-18397202D01*
X-79541057Y-18327281D01*
X-79492523Y-18302551D01*
X-79492523Y-18302550D01*
X-79981052Y-17814021D01*
X-79852224Y-17788396D01*
X-79702084Y-17726206D01*
X-79566961Y-17635919D01*
X-79452049Y-17521007D01*
X-79361762Y-17385884D01*
X-79299572Y-17235744D01*
X-79273947Y-17106916D01*
X-78785418Y-17595445D01*
X-78785417Y-17595445D01*
X-78760687Y-17546911D01*
X-78690766Y-17331718D01*
X-78655368Y-17108230D01*
X-78655368Y-16881969D01*
X-74829935Y-16881969D01*
X-74829935Y-17108230D01*
X-74794538Y-17331718D01*
X-74724619Y-17546906D01*
X-74699887Y-17595444D01*
X-74211357Y-17106914D01*
X-74185731Y-17235744D01*
X-74123541Y-17385884D01*
X-74033254Y-17521007D01*
X-73918342Y-17635919D01*
X-73783219Y-17726206D01*
X-73633079Y-17788396D01*
X-73504251Y-17814021D01*
X-73992781Y-18302550D01*
X-73944244Y-18327282D01*
X-73729054Y-18397202D01*
X-73505566Y-18432600D01*
X-73279304Y-18432600D01*
X-73055817Y-18397202D01*
X-72840624Y-18327281D01*
X-72792090Y-18302551D01*
X-72792090Y-18302550D01*
X-73280619Y-17814021D01*
X-73151791Y-17788396D01*
X-73001651Y-17726206D01*
X-72866528Y-17635919D01*
X-72751616Y-17521007D01*
X-72661329Y-17385884D01*
X-72599139Y-17235744D01*
X-72573514Y-17106916D01*
X-72084985Y-17595445D01*
X-72084984Y-17595445D01*
X-72060254Y-17546911D01*
X-71990333Y-17331718D01*
X-71954935Y-17108230D01*
X-71954935Y-16881969D01*
X-68129502Y-16881969D01*
X-68129502Y-17108230D01*
X-68094105Y-17331718D01*
X-68024186Y-17546906D01*
X-67999454Y-17595444D01*
X-67510924Y-17106914D01*
X-67485298Y-17235744D01*
X-67423108Y-17385884D01*
X-67332821Y-17521007D01*
X-67217909Y-17635919D01*
X-67082786Y-17726206D01*
X-66932646Y-17788396D01*
X-66803818Y-17814021D01*
X-67292348Y-18302550D01*
X-67243811Y-18327282D01*
X-67028621Y-18397202D01*
X-66805133Y-18432600D01*
X-66578871Y-18432600D01*
X-66355384Y-18397202D01*
X-66140191Y-18327281D01*
X-66091657Y-18302551D01*
X-66091657Y-18302550D01*
X-66580186Y-17814021D01*
X-66451358Y-17788396D01*
X-66301218Y-17726206D01*
X-66166095Y-17635919D01*
X-66051183Y-17521007D01*
X-65960896Y-17385884D01*
X-65898706Y-17235744D01*
X-65873081Y-17106916D01*
X-65384552Y-17595445D01*
X-65384551Y-17595445D01*
X-65359821Y-17546911D01*
X-65289900Y-17331718D01*
X-65254502Y-17108230D01*
X-65254502Y-16881969D01*
X-61429069Y-16881969D01*
X-61429069Y-17108230D01*
X-61393672Y-17331718D01*
X-61323753Y-17546906D01*
X-61299021Y-17595444D01*
X-60810491Y-17106914D01*
X-60784865Y-17235744D01*
X-60722675Y-17385884D01*
X-60632388Y-17521007D01*
X-60517476Y-17635919D01*
X-60382353Y-17726206D01*
X-60232213Y-17788396D01*
X-60103385Y-17814021D01*
X-60591915Y-18302550D01*
X-60543378Y-18327282D01*
X-60328188Y-18397202D01*
X-60104700Y-18432600D01*
X-59878438Y-18432600D01*
X-59654951Y-18397202D01*
X-59439758Y-18327281D01*
X-59391224Y-18302551D01*
X-59391224Y-18302550D01*
X-59879753Y-17814021D01*
X-59750925Y-17788396D01*
X-59600785Y-17726206D01*
X-59465662Y-17635919D01*
X-59350750Y-17521007D01*
X-59260463Y-17385884D01*
X-59198273Y-17235744D01*
X-59172648Y-17106916D01*
X-58684119Y-17595445D01*
X-58684118Y-17595445D01*
X-58659388Y-17546911D01*
X-58589467Y-17331718D01*
X-58554069Y-17108230D01*
X-58554069Y-16881969D01*
X-58589467Y-16658481D01*
X-58659387Y-16443291D01*
X-58659387Y-16443290D01*
X-58684119Y-16394754D01*
X-59172648Y-16883283D01*
X-59198273Y-16754456D01*
X-59260463Y-16604316D01*
X-59350750Y-16469193D01*
X-59465662Y-16354281D01*
X-59600785Y-16263994D01*
X-59750925Y-16201804D01*
X-59879755Y-16176178D01*
X-59391225Y-15687648D01*
X-59439763Y-15662916D01*
X-59654951Y-15592997D01*
X-59878438Y-15557600D01*
X-60104700Y-15557600D01*
X-60328188Y-15592997D01*
X-60543381Y-15662918D01*
X-60591915Y-15687647D01*
X-60591915Y-15687649D01*
X-60103386Y-16176178D01*
X-60232213Y-16201804D01*
X-60382353Y-16263994D01*
X-60517476Y-16354281D01*
X-60632388Y-16469193D01*
X-60722675Y-16604316D01*
X-60784865Y-16754456D01*
X-60810491Y-16883283D01*
X-61299020Y-16394754D01*
X-61299022Y-16394754D01*
X-61323751Y-16443288D01*
X-61393672Y-16658481D01*
X-61429069Y-16881969D01*
X-65254502Y-16881969D01*
X-65289900Y-16658481D01*
X-65359820Y-16443291D01*
X-65359820Y-16443290D01*
X-65384552Y-16394754D01*
X-65873081Y-16883283D01*
X-65898706Y-16754456D01*
X-65960896Y-16604316D01*
X-66051183Y-16469193D01*
X-66166095Y-16354281D01*
X-66301218Y-16263994D01*
X-66451358Y-16201804D01*
X-66580188Y-16176178D01*
X-66091658Y-15687648D01*
X-66140196Y-15662916D01*
X-66355384Y-15592997D01*
X-66578871Y-15557600D01*
X-66805133Y-15557600D01*
X-67028621Y-15592997D01*
X-67243814Y-15662918D01*
X-67292348Y-15687647D01*
X-67292348Y-15687649D01*
X-66803819Y-16176178D01*
X-66932646Y-16201804D01*
X-67082786Y-16263994D01*
X-67217909Y-16354281D01*
X-67332821Y-16469193D01*
X-67423108Y-16604316D01*
X-67485298Y-16754456D01*
X-67510924Y-16883283D01*
X-67999453Y-16394754D01*
X-67999455Y-16394754D01*
X-68024184Y-16443288D01*
X-68094105Y-16658481D01*
X-68129502Y-16881969D01*
X-71954935Y-16881969D01*
X-71990333Y-16658481D01*
X-72060253Y-16443291D01*
X-72060253Y-16443290D01*
X-72084985Y-16394754D01*
X-72573514Y-16883283D01*
X-72599139Y-16754456D01*
X-72661329Y-16604316D01*
X-72751616Y-16469193D01*
X-72866528Y-16354281D01*
X-73001651Y-16263994D01*
X-73151791Y-16201804D01*
X-73280621Y-16176178D01*
X-72792091Y-15687648D01*
X-72840629Y-15662916D01*
X-73055817Y-15592997D01*
X-73279304Y-15557600D01*
X-73505566Y-15557600D01*
X-73729054Y-15592997D01*
X-73944247Y-15662918D01*
X-73992781Y-15687647D01*
X-73992781Y-15687649D01*
X-73504252Y-16176178D01*
X-73633079Y-16201804D01*
X-73783219Y-16263994D01*
X-73918342Y-16354281D01*
X-74033254Y-16469193D01*
X-74123541Y-16604316D01*
X-74185731Y-16754456D01*
X-74211357Y-16883283D01*
X-74699886Y-16394754D01*
X-74699888Y-16394754D01*
X-74724617Y-16443288D01*
X-74794538Y-16658481D01*
X-74829935Y-16881969D01*
X-78655368Y-16881969D01*
X-78690766Y-16658481D01*
X-78760686Y-16443291D01*
X-78760686Y-16443290D01*
X-78785418Y-16394754D01*
X-79273947Y-16883283D01*
X-79299572Y-16754456D01*
X-79361762Y-16604316D01*
X-79452049Y-16469193D01*
X-79566961Y-16354281D01*
X-79702084Y-16263994D01*
X-79852224Y-16201804D01*
X-79981054Y-16176178D01*
X-79492524Y-15687648D01*
X-79541062Y-15662916D01*
X-79756250Y-15592997D01*
X-79979737Y-15557600D01*
X-80205999Y-15557600D01*
X-80429487Y-15592997D01*
X-80644680Y-15662918D01*
X-80693214Y-15687647D01*
X-80693214Y-15687649D01*
X-80204685Y-16176178D01*
X-80333512Y-16201804D01*
X-80483652Y-16263994D01*
X-80618775Y-16354281D01*
X-80733687Y-16469193D01*
X-80823974Y-16604316D01*
X-80886164Y-16754456D01*
X-80911790Y-16883283D01*
X-81400319Y-16394754D01*
X-81400321Y-16394754D01*
X-81425050Y-16443288D01*
X-81494971Y-16658481D01*
X-81530368Y-16881969D01*
X-85356594Y-16881969D01*
X-85391199Y-16663481D01*
X-85461119Y-16448291D01*
X-85461119Y-16448290D01*
X-85485851Y-16399754D01*
X-85974380Y-16888283D01*
X-86000005Y-16759456D01*
X-86062195Y-16609316D01*
X-86152482Y-16474193D01*
X-86267394Y-16359281D01*
X-86402517Y-16268994D01*
X-86552657Y-16206804D01*
X-86681487Y-16181178D01*
X-86192957Y-15692648D01*
X-86241495Y-15667916D01*
X-86456683Y-15597997D01*
X-86680170Y-15562600D01*
X-86906432Y-15562600D01*
X-87129920Y-15597997D01*
X-87345113Y-15667918D01*
X-87393647Y-15692647D01*
X-87393647Y-15692649D01*
X-86905118Y-16181178D01*
X-87033945Y-16206804D01*
X-87184085Y-16268994D01*
X-87319208Y-16359281D01*
X-87434120Y-16474193D01*
X-87524407Y-16609316D01*
X-87586597Y-16759456D01*
X-87612223Y-16888283D01*
X-88100752Y-16399754D01*
X-88100754Y-16399754D01*
X-88125483Y-16448288D01*
X-88195404Y-16663481D01*
X-88230801Y-16886969D01*
X-92056234Y-16886969D01*
X-92091632Y-16663481D01*
X-92161552Y-16448291D01*
X-92161552Y-16448290D01*
X-92186284Y-16399754D01*
X-92674813Y-16888283D01*
X-92700438Y-16759456D01*
X-92762628Y-16609316D01*
X-92852915Y-16474193D01*
X-92967827Y-16359281D01*
X-93102950Y-16268994D01*
X-93253090Y-16206804D01*
X-93381920Y-16181178D01*
X-92893390Y-15692648D01*
X-92941928Y-15667916D01*
X-93157116Y-15597997D01*
X-93380603Y-15562600D01*
X-93606865Y-15562600D01*
X-93830353Y-15597997D01*
X-94045546Y-15667918D01*
X-94094080Y-15692647D01*
X-94094080Y-15692649D01*
X-93605551Y-16181178D01*
X-93734378Y-16206804D01*
X-93884518Y-16268994D01*
X-94019641Y-16359281D01*
X-94134553Y-16474193D01*
X-94224840Y-16609316D01*
X-94287030Y-16759456D01*
X-94312656Y-16888283D01*
X-94801185Y-16399754D01*
X-94801187Y-16399754D01*
X-94825916Y-16448288D01*
X-94895837Y-16663481D01*
X-94931234Y-16886969D01*
X-98756667Y-16886969D01*
X-98792065Y-16663481D01*
X-98861985Y-16448291D01*
X-98861985Y-16448290D01*
X-98886717Y-16399754D01*
X-99375246Y-16888283D01*
X-99400871Y-16759456D01*
X-99463061Y-16609316D01*
X-99553348Y-16474193D01*
X-99668260Y-16359281D01*
X-99803383Y-16268994D01*
X-99953523Y-16206804D01*
X-100082353Y-16181178D01*
X-99593823Y-15692648D01*
X-99642361Y-15667916D01*
X-99857549Y-15597997D01*
X-100081036Y-15562600D01*
X-100307298Y-15562600D01*
X-100530786Y-15597997D01*
X-100745979Y-15667918D01*
X-100794513Y-15692647D01*
X-100794513Y-15692649D01*
X-100305984Y-16181178D01*
X-100434811Y-16206804D01*
X-100584951Y-16268994D01*
X-100720074Y-16359281D01*
X-100834986Y-16474193D01*
X-100925273Y-16609316D01*
X-100987463Y-16759456D01*
X-101013089Y-16888283D01*
X-101501618Y-16399754D01*
X-101501620Y-16399754D01*
X-101526349Y-16448288D01*
X-101596270Y-16663481D01*
X-101631667Y-16886969D01*
X-105457100Y-16886969D01*
X-105457100Y-16871969D01*
X-105492498Y-16648481D01*
X-105562418Y-16433291D01*
X-105562418Y-16433290D01*
X-105587150Y-16384754D01*
X-106075679Y-16873283D01*
X-106101304Y-16744456D01*
X-106163494Y-16594316D01*
X-106253781Y-16459193D01*
X-106368693Y-16344281D01*
X-106503816Y-16253994D01*
X-106653956Y-16191804D01*
X-106782786Y-16166178D01*
X-106294256Y-15677648D01*
X-106342794Y-15652916D01*
X-106557982Y-15582997D01*
X-106781469Y-15547600D01*
X-107007731Y-15547600D01*
X-107231219Y-15582997D01*
X-107446412Y-15652918D01*
X-107494946Y-15677647D01*
X-107494946Y-15677649D01*
X-107006417Y-16166178D01*
X-107135244Y-16191804D01*
X-107285384Y-16253994D01*
X-107420507Y-16344281D01*
X-107535419Y-16459193D01*
X-107625706Y-16594316D01*
X-107687896Y-16744456D01*
X-107713522Y-16873283D01*
X-108202051Y-16384754D01*
X-108202053Y-16384754D01*
X-108226782Y-16433288D01*
X-108296703Y-16648481D01*
X-108332100Y-16871969D01*
X-113316200Y-16871969D01*
X-113316200Y-16414300D01*
X-114828003Y-16414300D01*
X-114762940Y-16316926D01*
X-114698865Y-16162236D01*
X-114666200Y-15998018D01*
X-114666200Y-15830582D01*
X-114698865Y-15666364D01*
X-114762940Y-15511674D01*
X-114828003Y-15414300D01*
X-113316200Y-15414300D01*
X-113316200Y-13894603D01*
X-113316201Y-13894598D01*
X-113327805Y-13836263D01*
X-113372008Y-13770107D01*
X-113438164Y-13725904D01*
X-113496499Y-13714300D01*
X-115016200Y-13714300D01*
X-115016200Y-15226102D01*
X-115113574Y-15161040D01*
X-115268264Y-15096965D01*
X-115432482Y-15064300D01*
X-115599918Y-15064300D01*
X-115764136Y-15096965D01*
X-115918826Y-15161040D01*
X-116016200Y-15226102D01*
X-116016200Y-13714300D01*
X-117535902Y-13714300D01*
X-117594237Y-13725904D01*
X-117660393Y-13770107D01*
X-117704596Y-13836263D01*
X-117716200Y-13894598D01*
X-119616200Y-13894598D01*
X-119616200Y-11130558D01*
X-119615122Y-11114112D01*
X-119614969Y-11112949D01*
X-119601055Y-11007258D01*
X-119592546Y-10975502D01*
X-119554486Y-10883616D01*
X-119538047Y-10855144D01*
X-119477502Y-10776241D01*
X-119454259Y-10752998D01*
X-119375356Y-10692453D01*
X-119346884Y-10676014D01*
X-119254998Y-10637954D01*
X-119223240Y-10629445D01*
X-119132317Y-10617475D01*
X-119116387Y-10615378D01*
X-119099941Y-10614300D01*
X-111851140Y-10614300D01*
X-111802924Y-10623890D01*
G37*
%TD.AperFunction*%
%TD*%
%TA.AperFunction,Conductor*%
%TO.N,VIN2*%
G36*
X3122602Y-10012937D02*
G01*
X5867762Y-10014084D01*
X5884187Y-10015167D01*
X5991009Y-10029272D01*
X6022770Y-10037794D01*
X6114602Y-10075866D01*
X6143075Y-10092316D01*
X6221930Y-10152854D01*
X6245177Y-10176111D01*
X6305682Y-10254990D01*
X6322121Y-10283472D01*
X6360154Y-10375320D01*
X6368663Y-10407083D01*
X6382723Y-10513905D01*
X6383800Y-10530347D01*
X6383800Y-23497964D01*
X6382722Y-23514413D01*
X6368652Y-23621270D01*
X6360137Y-23653044D01*
X6322076Y-23744921D01*
X6305628Y-23773407D01*
X6245084Y-23852301D01*
X6221819Y-23875562D01*
X6142918Y-23936093D01*
X6114431Y-23952536D01*
X6050010Y-23979213D01*
X6001803Y-23988800D01*
X-55613324Y-23988800D01*
X-55621644Y-23987144D01*
X-55626811Y-23988076D01*
X-55661556Y-23979202D01*
X-55741222Y-23946191D01*
X-55747880Y-23943432D01*
X-55776361Y-23926983D01*
X-55855243Y-23866439D01*
X-55878499Y-23843177D01*
X-55939023Y-23764280D01*
X-55955465Y-23735795D01*
X-55993508Y-23643920D01*
X-56002015Y-23612159D01*
X-56016071Y-23505295D01*
X-56017146Y-23488875D01*
X-56016839Y-20581969D01*
X-54728636Y-20581969D01*
X-54728636Y-20808230D01*
X-54693239Y-21031718D01*
X-54623320Y-21246906D01*
X-54598588Y-21295444D01*
X-54110058Y-20806914D01*
X-54084432Y-20935744D01*
X-54022242Y-21085884D01*
X-53931955Y-21221007D01*
X-53817043Y-21335919D01*
X-53681920Y-21426206D01*
X-53531780Y-21488396D01*
X-53402952Y-21514021D01*
X-53891482Y-22002550D01*
X-53842945Y-22027282D01*
X-53627755Y-22097202D01*
X-53404267Y-22132600D01*
X-53178005Y-22132600D01*
X-52954518Y-22097202D01*
X-52739325Y-22027281D01*
X-52690791Y-22002551D01*
X-52690791Y-22002550D01*
X-53179320Y-21514021D01*
X-53050492Y-21488396D01*
X-52900352Y-21426206D01*
X-52765229Y-21335919D01*
X-52650317Y-21221007D01*
X-52560030Y-21085884D01*
X-52497840Y-20935744D01*
X-52472215Y-20806916D01*
X-51983686Y-21295445D01*
X-51983685Y-21295445D01*
X-51958955Y-21246911D01*
X-51889034Y-21031718D01*
X-51853636Y-20808230D01*
X-51853636Y-20581969D01*
X-48028203Y-20581969D01*
X-48028203Y-20808230D01*
X-47992806Y-21031718D01*
X-47922887Y-21246906D01*
X-47898155Y-21295444D01*
X-47409625Y-20806914D01*
X-47383999Y-20935744D01*
X-47321809Y-21085884D01*
X-47231522Y-21221007D01*
X-47116610Y-21335919D01*
X-46981487Y-21426206D01*
X-46831347Y-21488396D01*
X-46702519Y-21514021D01*
X-47191049Y-22002550D01*
X-47142512Y-22027282D01*
X-46927322Y-22097202D01*
X-46703834Y-22132600D01*
X-46477572Y-22132600D01*
X-46254085Y-22097202D01*
X-46038892Y-22027281D01*
X-45990358Y-22002551D01*
X-45990358Y-22002550D01*
X-46478887Y-21514021D01*
X-46350059Y-21488396D01*
X-46199919Y-21426206D01*
X-46064796Y-21335919D01*
X-45949884Y-21221007D01*
X-45859597Y-21085884D01*
X-45797407Y-20935744D01*
X-45771782Y-20806916D01*
X-45283253Y-21295445D01*
X-45283252Y-21295445D01*
X-45258522Y-21246911D01*
X-45188601Y-21031718D01*
X-45153203Y-20808230D01*
X-45153203Y-20581969D01*
X-41327770Y-20581969D01*
X-41327770Y-20808230D01*
X-41292373Y-21031718D01*
X-41222454Y-21246906D01*
X-41197722Y-21295444D01*
X-40709192Y-20806914D01*
X-40683566Y-20935744D01*
X-40621376Y-21085884D01*
X-40531089Y-21221007D01*
X-40416177Y-21335919D01*
X-40281054Y-21426206D01*
X-40130914Y-21488396D01*
X-40002086Y-21514021D01*
X-40490616Y-22002550D01*
X-40442079Y-22027282D01*
X-40226889Y-22097202D01*
X-40003401Y-22132600D01*
X-39777139Y-22132600D01*
X-39553652Y-22097202D01*
X-39338459Y-22027281D01*
X-39289925Y-22002551D01*
X-39289925Y-22002550D01*
X-39778454Y-21514021D01*
X-39649626Y-21488396D01*
X-39499486Y-21426206D01*
X-39364363Y-21335919D01*
X-39249451Y-21221007D01*
X-39159164Y-21085884D01*
X-39096974Y-20935744D01*
X-39071349Y-20806916D01*
X-38582820Y-21295445D01*
X-38582819Y-21295445D01*
X-38558089Y-21246911D01*
X-38488168Y-21031718D01*
X-38452770Y-20808230D01*
X-38452770Y-20581969D01*
X-34627337Y-20581969D01*
X-34627337Y-20808230D01*
X-34591940Y-21031718D01*
X-34522021Y-21246906D01*
X-34497289Y-21295444D01*
X-34008759Y-20806914D01*
X-33983133Y-20935744D01*
X-33920943Y-21085884D01*
X-33830656Y-21221007D01*
X-33715744Y-21335919D01*
X-33580621Y-21426206D01*
X-33430481Y-21488396D01*
X-33301653Y-21514021D01*
X-33790183Y-22002550D01*
X-33741646Y-22027282D01*
X-33526456Y-22097202D01*
X-33302968Y-22132600D01*
X-33076706Y-22132600D01*
X-32853219Y-22097202D01*
X-32638026Y-22027281D01*
X-32589492Y-22002551D01*
X-32589492Y-22002550D01*
X-33078021Y-21514021D01*
X-32949193Y-21488396D01*
X-32799053Y-21426206D01*
X-32663930Y-21335919D01*
X-32549018Y-21221007D01*
X-32458731Y-21085884D01*
X-32396541Y-20935744D01*
X-32370916Y-20806916D01*
X-31882387Y-21295445D01*
X-31882386Y-21295445D01*
X-31857656Y-21246911D01*
X-31787735Y-21031718D01*
X-31752337Y-20808230D01*
X-31752337Y-20646969D01*
X-27926904Y-20646969D01*
X-27926904Y-20873230D01*
X-27891507Y-21096718D01*
X-27821588Y-21311906D01*
X-27796856Y-21360444D01*
X-27308326Y-20871914D01*
X-27282700Y-21000744D01*
X-27220510Y-21150884D01*
X-27130223Y-21286007D01*
X-27015311Y-21400919D01*
X-26880188Y-21491206D01*
X-26730048Y-21553396D01*
X-26601220Y-21579021D01*
X-27089750Y-22067550D01*
X-27041213Y-22092282D01*
X-26826023Y-22162202D01*
X-26602535Y-22197600D01*
X-26376273Y-22197600D01*
X-26152786Y-22162202D01*
X-25937593Y-22092281D01*
X-25889059Y-22067551D01*
X-25889059Y-22067550D01*
X-26377588Y-21579021D01*
X-26248760Y-21553396D01*
X-26098620Y-21491206D01*
X-25963497Y-21400919D01*
X-25848585Y-21286007D01*
X-25758298Y-21150884D01*
X-25696108Y-21000744D01*
X-25670483Y-20871916D01*
X-25181954Y-21360445D01*
X-25181953Y-21360445D01*
X-25157223Y-21311911D01*
X-25087302Y-21096718D01*
X-25051904Y-20873230D01*
X-25051904Y-20646969D01*
X-21226471Y-20646969D01*
X-21226471Y-20873230D01*
X-21191074Y-21096718D01*
X-21121155Y-21311906D01*
X-21096423Y-21360444D01*
X-20607893Y-20871914D01*
X-20582267Y-21000744D01*
X-20520077Y-21150884D01*
X-20429790Y-21286007D01*
X-20314878Y-21400919D01*
X-20179755Y-21491206D01*
X-20029615Y-21553396D01*
X-19900787Y-21579021D01*
X-20389317Y-22067550D01*
X-20340780Y-22092282D01*
X-20125590Y-22162202D01*
X-19902102Y-22197600D01*
X-19675840Y-22197600D01*
X-19452353Y-22162202D01*
X-19237160Y-22092281D01*
X-19188626Y-22067551D01*
X-19188626Y-22067550D01*
X-19677155Y-21579021D01*
X-19548327Y-21553396D01*
X-19398187Y-21491206D01*
X-19263064Y-21400919D01*
X-19148152Y-21286007D01*
X-19057865Y-21150884D01*
X-18995675Y-21000744D01*
X-18970050Y-20871916D01*
X-18481521Y-21360445D01*
X-18481520Y-21360445D01*
X-18456790Y-21311911D01*
X-18386869Y-21096718D01*
X-18351471Y-20873230D01*
X-18351471Y-20646969D01*
X-14526038Y-20646969D01*
X-14526038Y-20873230D01*
X-14490641Y-21096718D01*
X-14420722Y-21311906D01*
X-14395990Y-21360444D01*
X-13907460Y-20871914D01*
X-13881834Y-21000744D01*
X-13819644Y-21150884D01*
X-13729357Y-21286007D01*
X-13614445Y-21400919D01*
X-13479322Y-21491206D01*
X-13329182Y-21553396D01*
X-13200354Y-21579021D01*
X-13688884Y-22067550D01*
X-13640347Y-22092282D01*
X-13425157Y-22162202D01*
X-13201669Y-22197600D01*
X-12975407Y-22197600D01*
X-12751920Y-22162202D01*
X-12536727Y-22092281D01*
X-12488193Y-22067551D01*
X-12488193Y-22067550D01*
X-12976722Y-21579021D01*
X-12847894Y-21553396D01*
X-12697754Y-21491206D01*
X-12562631Y-21400919D01*
X-12447719Y-21286007D01*
X-12357432Y-21150884D01*
X-12295242Y-21000744D01*
X-12269617Y-20871916D01*
X-11781088Y-21360445D01*
X-11781087Y-21360445D01*
X-11756357Y-21311911D01*
X-11686436Y-21096718D01*
X-11651038Y-20873230D01*
X-11651038Y-20646969D01*
X-7825600Y-20646969D01*
X-7825600Y-20873230D01*
X-7790203Y-21096718D01*
X-7720284Y-21311906D01*
X-7695552Y-21360444D01*
X-7207022Y-20871914D01*
X-7181396Y-21000744D01*
X-7119206Y-21150884D01*
X-7028919Y-21286007D01*
X-6914007Y-21400919D01*
X-6778884Y-21491206D01*
X-6628744Y-21553396D01*
X-6499916Y-21579021D01*
X-6988446Y-22067550D01*
X-6939909Y-22092282D01*
X-6724719Y-22162202D01*
X-6501231Y-22197600D01*
X-6274969Y-22197600D01*
X-6051482Y-22162202D01*
X-5836289Y-22092281D01*
X-5787755Y-22067551D01*
X-5787755Y-22067550D01*
X-6276284Y-21579021D01*
X-6147456Y-21553396D01*
X-5997316Y-21491206D01*
X-5862193Y-21400919D01*
X-5747281Y-21286007D01*
X-5656994Y-21150884D01*
X-5594804Y-21000744D01*
X-5569179Y-20871916D01*
X-5080650Y-21360445D01*
X-5080649Y-21360445D01*
X-5055919Y-21311911D01*
X-4985998Y-21096718D01*
X-4950600Y-20873230D01*
X-4950600Y-20646969D01*
X-4985998Y-20423481D01*
X-5055918Y-20208291D01*
X-5055918Y-20208290D01*
X-5080650Y-20159754D01*
X-5569179Y-20648283D01*
X-5594804Y-20519456D01*
X-5656994Y-20369316D01*
X-5747281Y-20234193D01*
X-5862193Y-20119281D01*
X-5997316Y-20028994D01*
X-6147456Y-19966804D01*
X-6276286Y-19941178D01*
X-5787756Y-19452648D01*
X-5836294Y-19427916D01*
X-6051482Y-19357997D01*
X-6274969Y-19322600D01*
X-6501231Y-19322600D01*
X-6724719Y-19357997D01*
X-6939912Y-19427918D01*
X-6988446Y-19452647D01*
X-6988446Y-19452649D01*
X-6499917Y-19941178D01*
X-6628744Y-19966804D01*
X-6778884Y-20028994D01*
X-6914007Y-20119281D01*
X-7028919Y-20234193D01*
X-7119206Y-20369316D01*
X-7181396Y-20519456D01*
X-7207022Y-20648283D01*
X-7695551Y-20159754D01*
X-7695553Y-20159754D01*
X-7720282Y-20208288D01*
X-7790203Y-20423481D01*
X-7825600Y-20646969D01*
X-11651038Y-20646969D01*
X-11686436Y-20423481D01*
X-11756356Y-20208291D01*
X-11756356Y-20208290D01*
X-11781088Y-20159754D01*
X-12269617Y-20648283D01*
X-12295242Y-20519456D01*
X-12357432Y-20369316D01*
X-12447719Y-20234193D01*
X-12562631Y-20119281D01*
X-12697754Y-20028994D01*
X-12847894Y-19966804D01*
X-12976724Y-19941178D01*
X-12488194Y-19452648D01*
X-12536732Y-19427916D01*
X-12751920Y-19357997D01*
X-12975407Y-19322600D01*
X-13201669Y-19322600D01*
X-13425157Y-19357997D01*
X-13640350Y-19427918D01*
X-13688884Y-19452647D01*
X-13688884Y-19452649D01*
X-13200355Y-19941178D01*
X-13329182Y-19966804D01*
X-13479322Y-20028994D01*
X-13614445Y-20119281D01*
X-13729357Y-20234193D01*
X-13819644Y-20369316D01*
X-13881834Y-20519456D01*
X-13907460Y-20648283D01*
X-14395989Y-20159754D01*
X-14395991Y-20159754D01*
X-14420720Y-20208288D01*
X-14490641Y-20423481D01*
X-14526038Y-20646969D01*
X-18351471Y-20646969D01*
X-18386869Y-20423481D01*
X-18456789Y-20208291D01*
X-18456789Y-20208290D01*
X-18481521Y-20159754D01*
X-18970050Y-20648283D01*
X-18995675Y-20519456D01*
X-19057865Y-20369316D01*
X-19148152Y-20234193D01*
X-19263064Y-20119281D01*
X-19398187Y-20028994D01*
X-19548327Y-19966804D01*
X-19677157Y-19941178D01*
X-19188627Y-19452648D01*
X-19237165Y-19427916D01*
X-19452353Y-19357997D01*
X-19675840Y-19322600D01*
X-19902102Y-19322600D01*
X-20125590Y-19357997D01*
X-20340783Y-19427918D01*
X-20389317Y-19452647D01*
X-20389317Y-19452649D01*
X-19900788Y-19941178D01*
X-20029615Y-19966804D01*
X-20179755Y-20028994D01*
X-20314878Y-20119281D01*
X-20429790Y-20234193D01*
X-20520077Y-20369316D01*
X-20582267Y-20519456D01*
X-20607893Y-20648283D01*
X-21096422Y-20159754D01*
X-21096424Y-20159754D01*
X-21121153Y-20208288D01*
X-21191074Y-20423481D01*
X-21226471Y-20646969D01*
X-25051904Y-20646969D01*
X-25087302Y-20423481D01*
X-25157222Y-20208291D01*
X-25157222Y-20208290D01*
X-25181954Y-20159754D01*
X-25670483Y-20648283D01*
X-25696108Y-20519456D01*
X-25758298Y-20369316D01*
X-25848585Y-20234193D01*
X-25963497Y-20119281D01*
X-26098620Y-20028994D01*
X-26248760Y-19966804D01*
X-26377590Y-19941178D01*
X-25889060Y-19452648D01*
X-25937598Y-19427916D01*
X-26152786Y-19357997D01*
X-26376273Y-19322600D01*
X-26602535Y-19322600D01*
X-26826023Y-19357997D01*
X-27041216Y-19427918D01*
X-27089750Y-19452647D01*
X-27089750Y-19452649D01*
X-26601221Y-19941178D01*
X-26730048Y-19966804D01*
X-26880188Y-20028994D01*
X-27015311Y-20119281D01*
X-27130223Y-20234193D01*
X-27220510Y-20369316D01*
X-27282700Y-20519456D01*
X-27308326Y-20648283D01*
X-27796855Y-20159754D01*
X-27796857Y-20159754D01*
X-27821586Y-20208288D01*
X-27891507Y-20423481D01*
X-27926904Y-20646969D01*
X-31752337Y-20646969D01*
X-31752337Y-20581969D01*
X-31787735Y-20358481D01*
X-31857655Y-20143291D01*
X-31857655Y-20143290D01*
X-31882387Y-20094754D01*
X-32370916Y-20583283D01*
X-32396541Y-20454456D01*
X-32458731Y-20304316D01*
X-32549018Y-20169193D01*
X-32663930Y-20054281D01*
X-32799053Y-19963994D01*
X-32949193Y-19901804D01*
X-33078022Y-19876178D01*
X-32609096Y-19407252D01*
X-32589492Y-19387648D01*
X-32638031Y-19362916D01*
X-32853219Y-19292997D01*
X-33076706Y-19257600D01*
X-33302968Y-19257600D01*
X-33526456Y-19292997D01*
X-33741649Y-19362918D01*
X-33790183Y-19387647D01*
X-33790183Y-19387649D01*
X-33301654Y-19876178D01*
X-33430481Y-19901804D01*
X-33580621Y-19963994D01*
X-33715744Y-20054281D01*
X-33830656Y-20169193D01*
X-33920943Y-20304316D01*
X-33983133Y-20454456D01*
X-34008759Y-20583283D01*
X-34497288Y-20094754D01*
X-34497290Y-20094754D01*
X-34522019Y-20143288D01*
X-34591940Y-20358481D01*
X-34627337Y-20581969D01*
X-38452770Y-20581969D01*
X-38488168Y-20358481D01*
X-38558088Y-20143291D01*
X-38558088Y-20143290D01*
X-38582820Y-20094754D01*
X-39071349Y-20583283D01*
X-39096974Y-20454456D01*
X-39159164Y-20304316D01*
X-39249451Y-20169193D01*
X-39364363Y-20054281D01*
X-39499486Y-19963994D01*
X-39649626Y-19901804D01*
X-39778456Y-19876178D01*
X-39289926Y-19387648D01*
X-39338464Y-19362916D01*
X-39553652Y-19292997D01*
X-39777139Y-19257600D01*
X-40003401Y-19257600D01*
X-40226889Y-19292997D01*
X-40442082Y-19362918D01*
X-40490616Y-19387647D01*
X-40490616Y-19387649D01*
X-40002087Y-19876178D01*
X-40130914Y-19901804D01*
X-40281054Y-19963994D01*
X-40416177Y-20054281D01*
X-40531089Y-20169193D01*
X-40621376Y-20304316D01*
X-40683566Y-20454456D01*
X-40709192Y-20583283D01*
X-41197721Y-20094754D01*
X-41197723Y-20094754D01*
X-41222452Y-20143288D01*
X-41292373Y-20358481D01*
X-41327770Y-20581969D01*
X-45153203Y-20581969D01*
X-45188601Y-20358481D01*
X-45258521Y-20143291D01*
X-45258521Y-20143290D01*
X-45283253Y-20094754D01*
X-45771782Y-20583283D01*
X-45797407Y-20454456D01*
X-45859597Y-20304316D01*
X-45949884Y-20169193D01*
X-46064796Y-20054281D01*
X-46199919Y-19963994D01*
X-46350059Y-19901804D01*
X-46478889Y-19876178D01*
X-45990359Y-19387648D01*
X-46038897Y-19362916D01*
X-46254085Y-19292997D01*
X-46477572Y-19257600D01*
X-46703834Y-19257600D01*
X-46927322Y-19292997D01*
X-47142515Y-19362918D01*
X-47191049Y-19387647D01*
X-47191049Y-19387649D01*
X-46702520Y-19876178D01*
X-46831347Y-19901804D01*
X-46981487Y-19963994D01*
X-47116610Y-20054281D01*
X-47231522Y-20169193D01*
X-47321809Y-20304316D01*
X-47383999Y-20454456D01*
X-47409625Y-20583283D01*
X-47898154Y-20094754D01*
X-47898156Y-20094754D01*
X-47922885Y-20143288D01*
X-47992806Y-20358481D01*
X-48028203Y-20581969D01*
X-51853636Y-20581969D01*
X-51889034Y-20358481D01*
X-51958954Y-20143291D01*
X-51958954Y-20143290D01*
X-51983686Y-20094754D01*
X-52472215Y-20583283D01*
X-52497840Y-20454456D01*
X-52560030Y-20304316D01*
X-52650317Y-20169193D01*
X-52765229Y-20054281D01*
X-52900352Y-19963994D01*
X-53050492Y-19901804D01*
X-53179322Y-19876178D01*
X-52690792Y-19387648D01*
X-52739330Y-19362916D01*
X-52954518Y-19292997D01*
X-53178005Y-19257600D01*
X-53404267Y-19257600D01*
X-53627755Y-19292997D01*
X-53842948Y-19362918D01*
X-53891482Y-19387647D01*
X-53891482Y-19387649D01*
X-53402953Y-19876178D01*
X-53531780Y-19901804D01*
X-53681920Y-19963994D01*
X-53817043Y-20054281D01*
X-53931955Y-20169193D01*
X-54022242Y-20304316D01*
X-54084432Y-20454456D01*
X-54110058Y-20583283D01*
X-54598587Y-20094754D01*
X-54598589Y-20094754D01*
X-54623318Y-20143288D01*
X-54693239Y-20358481D01*
X-54728636Y-20581969D01*
X-56016839Y-20581969D01*
X-56016715Y-19407252D01*
X-56016613Y-18432600D01*
X-56016450Y-16881969D01*
X-54728636Y-16881969D01*
X-54728636Y-17108230D01*
X-54693239Y-17331718D01*
X-54623320Y-17546906D01*
X-54598588Y-17595444D01*
X-54110058Y-17106914D01*
X-54084432Y-17235744D01*
X-54022242Y-17385884D01*
X-53931955Y-17521007D01*
X-53817043Y-17635919D01*
X-53681920Y-17726206D01*
X-53531780Y-17788396D01*
X-53402952Y-17814021D01*
X-53891482Y-18302550D01*
X-53842945Y-18327282D01*
X-53627755Y-18397202D01*
X-53404267Y-18432600D01*
X-53178005Y-18432600D01*
X-52954518Y-18397202D01*
X-52739325Y-18327281D01*
X-52690791Y-18302551D01*
X-52690791Y-18302550D01*
X-53179320Y-17814021D01*
X-53050492Y-17788396D01*
X-52900352Y-17726206D01*
X-52765229Y-17635919D01*
X-52650317Y-17521007D01*
X-52560030Y-17385884D01*
X-52497840Y-17235744D01*
X-52472215Y-17106916D01*
X-51983686Y-17595445D01*
X-51983685Y-17595445D01*
X-51958955Y-17546911D01*
X-51889034Y-17331718D01*
X-51853636Y-17108230D01*
X-51853636Y-16881969D01*
X-48028203Y-16881969D01*
X-48028203Y-17108230D01*
X-47992806Y-17331718D01*
X-47922887Y-17546906D01*
X-47898155Y-17595444D01*
X-47409625Y-17106914D01*
X-47383999Y-17235744D01*
X-47321809Y-17385884D01*
X-47231522Y-17521007D01*
X-47116610Y-17635919D01*
X-46981487Y-17726206D01*
X-46831347Y-17788396D01*
X-46702519Y-17814021D01*
X-47191049Y-18302550D01*
X-47142512Y-18327282D01*
X-46927322Y-18397202D01*
X-46703834Y-18432600D01*
X-46477572Y-18432600D01*
X-46254085Y-18397202D01*
X-46038892Y-18327281D01*
X-45990358Y-18302551D01*
X-45990358Y-18302550D01*
X-46478887Y-17814021D01*
X-46350059Y-17788396D01*
X-46199919Y-17726206D01*
X-46064796Y-17635919D01*
X-45949884Y-17521007D01*
X-45859597Y-17385884D01*
X-45797407Y-17235744D01*
X-45771782Y-17106916D01*
X-45283253Y-17595445D01*
X-45283252Y-17595445D01*
X-45258522Y-17546911D01*
X-45188601Y-17331718D01*
X-45153203Y-17108230D01*
X-45153203Y-16881969D01*
X-41327770Y-16881969D01*
X-41327770Y-17108230D01*
X-41292373Y-17331718D01*
X-41222454Y-17546906D01*
X-41197722Y-17595444D01*
X-40709192Y-17106914D01*
X-40683566Y-17235744D01*
X-40621376Y-17385884D01*
X-40531089Y-17521007D01*
X-40416177Y-17635919D01*
X-40281054Y-17726206D01*
X-40130914Y-17788396D01*
X-40002086Y-17814021D01*
X-40490616Y-18302550D01*
X-40442079Y-18327282D01*
X-40226889Y-18397202D01*
X-40003401Y-18432600D01*
X-39777139Y-18432600D01*
X-39553652Y-18397202D01*
X-39338459Y-18327281D01*
X-39289925Y-18302551D01*
X-39289925Y-18302550D01*
X-39778454Y-17814021D01*
X-39649626Y-17788396D01*
X-39499486Y-17726206D01*
X-39364363Y-17635919D01*
X-39249451Y-17521007D01*
X-39159164Y-17385884D01*
X-39096974Y-17235744D01*
X-39071349Y-17106916D01*
X-38582820Y-17595445D01*
X-38582819Y-17595445D01*
X-38558089Y-17546911D01*
X-38488168Y-17331718D01*
X-38452770Y-17108230D01*
X-38452770Y-16881969D01*
X-34627337Y-16881969D01*
X-34627337Y-17108230D01*
X-34591940Y-17331718D01*
X-34522021Y-17546906D01*
X-34497289Y-17595444D01*
X-34008759Y-17106914D01*
X-33983133Y-17235744D01*
X-33920943Y-17385884D01*
X-33830656Y-17521007D01*
X-33715744Y-17635919D01*
X-33580621Y-17726206D01*
X-33430481Y-17788396D01*
X-33301653Y-17814021D01*
X-33790183Y-18302550D01*
X-33741646Y-18327282D01*
X-33526456Y-18397202D01*
X-33302968Y-18432600D01*
X-33076706Y-18432600D01*
X-32853219Y-18397202D01*
X-32638026Y-18327281D01*
X-32589492Y-18302551D01*
X-32589492Y-18302550D01*
X-33078021Y-17814021D01*
X-32949193Y-17788396D01*
X-32799053Y-17726206D01*
X-32663930Y-17635919D01*
X-32549018Y-17521007D01*
X-32458731Y-17385884D01*
X-32396541Y-17235744D01*
X-32370916Y-17106916D01*
X-31882387Y-17595445D01*
X-31882386Y-17595445D01*
X-31857656Y-17546911D01*
X-31787735Y-17331718D01*
X-31752337Y-17108230D01*
X-31752337Y-16946969D01*
X-27926904Y-16946969D01*
X-27926904Y-17173230D01*
X-27891507Y-17396718D01*
X-27821588Y-17611906D01*
X-27796856Y-17660444D01*
X-27308326Y-17171914D01*
X-27282700Y-17300744D01*
X-27220510Y-17450884D01*
X-27130223Y-17586007D01*
X-27015311Y-17700919D01*
X-26880188Y-17791206D01*
X-26730048Y-17853396D01*
X-26601220Y-17879021D01*
X-27089750Y-18367550D01*
X-27041213Y-18392282D01*
X-26826023Y-18462202D01*
X-26602535Y-18497600D01*
X-26376273Y-18497600D01*
X-26152786Y-18462202D01*
X-25937593Y-18392281D01*
X-25889059Y-18367551D01*
X-25889059Y-18367550D01*
X-26377588Y-17879021D01*
X-26248760Y-17853396D01*
X-26098620Y-17791206D01*
X-25963497Y-17700919D01*
X-25848585Y-17586007D01*
X-25758298Y-17450884D01*
X-25696108Y-17300744D01*
X-25670483Y-17171916D01*
X-25181954Y-17660445D01*
X-25181953Y-17660445D01*
X-25157223Y-17611911D01*
X-25087302Y-17396718D01*
X-25051904Y-17173230D01*
X-25051904Y-16946969D01*
X-21226471Y-16946969D01*
X-21226471Y-17173230D01*
X-21191074Y-17396718D01*
X-21121155Y-17611906D01*
X-21096423Y-17660444D01*
X-20607893Y-17171914D01*
X-20582267Y-17300744D01*
X-20520077Y-17450884D01*
X-20429790Y-17586007D01*
X-20314878Y-17700919D01*
X-20179755Y-17791206D01*
X-20029615Y-17853396D01*
X-19900787Y-17879021D01*
X-20389317Y-18367550D01*
X-20340780Y-18392282D01*
X-20125590Y-18462202D01*
X-19902102Y-18497600D01*
X-19675840Y-18497600D01*
X-19452353Y-18462202D01*
X-19237160Y-18392281D01*
X-19188626Y-18367551D01*
X-19188626Y-18367550D01*
X-19677155Y-17879021D01*
X-19548327Y-17853396D01*
X-19398187Y-17791206D01*
X-19263064Y-17700919D01*
X-19148152Y-17586007D01*
X-19057865Y-17450884D01*
X-18995675Y-17300744D01*
X-18970050Y-17171916D01*
X-18481521Y-17660445D01*
X-18481520Y-17660445D01*
X-18456790Y-17611911D01*
X-18386869Y-17396718D01*
X-18351471Y-17173230D01*
X-18351471Y-16946969D01*
X-14526038Y-16946969D01*
X-14526038Y-17173230D01*
X-14490641Y-17396718D01*
X-14420722Y-17611906D01*
X-14395990Y-17660444D01*
X-13907460Y-17171914D01*
X-13881834Y-17300744D01*
X-13819644Y-17450884D01*
X-13729357Y-17586007D01*
X-13614445Y-17700919D01*
X-13479322Y-17791206D01*
X-13329182Y-17853396D01*
X-13200354Y-17879021D01*
X-13688884Y-18367550D01*
X-13640347Y-18392282D01*
X-13425157Y-18462202D01*
X-13201669Y-18497600D01*
X-12975407Y-18497600D01*
X-12751920Y-18462202D01*
X-12536727Y-18392281D01*
X-12488193Y-18367551D01*
X-12488193Y-18367550D01*
X-12976722Y-17879021D01*
X-12847894Y-17853396D01*
X-12697754Y-17791206D01*
X-12562631Y-17700919D01*
X-12447719Y-17586007D01*
X-12357432Y-17450884D01*
X-12295242Y-17300744D01*
X-12269617Y-17171916D01*
X-11781088Y-17660445D01*
X-11781087Y-17660445D01*
X-11756357Y-17611911D01*
X-11686436Y-17396718D01*
X-11651038Y-17173230D01*
X-11651038Y-16946969D01*
X-7825600Y-16946969D01*
X-7825600Y-17173230D01*
X-7790203Y-17396718D01*
X-7720284Y-17611906D01*
X-7695552Y-17660444D01*
X-7207022Y-17171914D01*
X-7181396Y-17300744D01*
X-7119206Y-17450884D01*
X-7028919Y-17586007D01*
X-6914007Y-17700919D01*
X-6778884Y-17791206D01*
X-6628744Y-17853396D01*
X-6499916Y-17879021D01*
X-6988446Y-18367550D01*
X-6939909Y-18392282D01*
X-6724719Y-18462202D01*
X-6501231Y-18497600D01*
X-6274969Y-18497600D01*
X-6051482Y-18462202D01*
X-5836289Y-18392281D01*
X-5787755Y-18367551D01*
X-5787755Y-18367550D01*
X-6276284Y-17879021D01*
X-6147456Y-17853396D01*
X-5997316Y-17791206D01*
X-5862193Y-17700919D01*
X-5747281Y-17586007D01*
X-5656994Y-17450884D01*
X-5594804Y-17300744D01*
X-5569179Y-17171916D01*
X-5080650Y-17660445D01*
X-5080649Y-17660445D01*
X-5055919Y-17611911D01*
X-4985998Y-17396718D01*
X-4950600Y-17173230D01*
X-4950600Y-16946969D01*
X-4985998Y-16723481D01*
X-5055918Y-16508291D01*
X-5055918Y-16508290D01*
X-5080650Y-16459754D01*
X-5569179Y-16948283D01*
X-5594804Y-16819456D01*
X-5656994Y-16669316D01*
X-5747281Y-16534193D01*
X-5862193Y-16419281D01*
X-5997316Y-16328994D01*
X-6147456Y-16266804D01*
X-6276285Y-16241178D01*
X-6208134Y-16173028D01*
X-6208120Y-16173014D01*
X-5787756Y-15752648D01*
X-5836294Y-15727916D01*
X-6051482Y-15657997D01*
X-6274969Y-15622600D01*
X-6501231Y-15622600D01*
X-6724719Y-15657997D01*
X-6939912Y-15727918D01*
X-6988446Y-15752647D01*
X-6988446Y-15752649D01*
X-6499917Y-16241178D01*
X-6628744Y-16266804D01*
X-6778884Y-16328994D01*
X-6914007Y-16419281D01*
X-7028919Y-16534193D01*
X-7119206Y-16669316D01*
X-7181396Y-16819456D01*
X-7207022Y-16948283D01*
X-7695551Y-16459754D01*
X-7695553Y-16459754D01*
X-7720282Y-16508288D01*
X-7790203Y-16723481D01*
X-7825600Y-16946969D01*
X-11651038Y-16946969D01*
X-11686436Y-16723481D01*
X-11756356Y-16508291D01*
X-11756356Y-16508290D01*
X-11781088Y-16459754D01*
X-12269617Y-16948283D01*
X-12295242Y-16819456D01*
X-12357432Y-16669316D01*
X-12447719Y-16534193D01*
X-12562631Y-16419281D01*
X-12697754Y-16328994D01*
X-12847894Y-16266804D01*
X-12976724Y-16241178D01*
X-12488194Y-15752648D01*
X-12536732Y-15727916D01*
X-12751920Y-15657997D01*
X-12975407Y-15622600D01*
X-13201669Y-15622600D01*
X-13425157Y-15657997D01*
X-13640350Y-15727918D01*
X-13688884Y-15752647D01*
X-13688884Y-15752649D01*
X-13200355Y-16241178D01*
X-13329182Y-16266804D01*
X-13479322Y-16328994D01*
X-13614445Y-16419281D01*
X-13729357Y-16534193D01*
X-13819644Y-16669316D01*
X-13881834Y-16819456D01*
X-13907460Y-16948283D01*
X-14395989Y-16459754D01*
X-14395991Y-16459754D01*
X-14420720Y-16508288D01*
X-14490641Y-16723481D01*
X-14526038Y-16946969D01*
X-18351471Y-16946969D01*
X-18386869Y-16723481D01*
X-18456789Y-16508291D01*
X-18456789Y-16508290D01*
X-18481521Y-16459754D01*
X-18970050Y-16948283D01*
X-18995675Y-16819456D01*
X-19057865Y-16669316D01*
X-19148152Y-16534193D01*
X-19263064Y-16419281D01*
X-19398187Y-16328994D01*
X-19548327Y-16266804D01*
X-19677157Y-16241178D01*
X-19188627Y-15752648D01*
X-19237165Y-15727916D01*
X-19452353Y-15657997D01*
X-19675840Y-15622600D01*
X-19902102Y-15622600D01*
X-20125590Y-15657997D01*
X-20340783Y-15727918D01*
X-20389317Y-15752647D01*
X-20389317Y-15752649D01*
X-19900788Y-16241178D01*
X-20029615Y-16266804D01*
X-20179755Y-16328994D01*
X-20314878Y-16419281D01*
X-20429790Y-16534193D01*
X-20520077Y-16669316D01*
X-20582267Y-16819456D01*
X-20607893Y-16948283D01*
X-21096422Y-16459754D01*
X-21096424Y-16459754D01*
X-21121153Y-16508288D01*
X-21191074Y-16723481D01*
X-21226471Y-16946969D01*
X-25051904Y-16946969D01*
X-25087302Y-16723481D01*
X-25157222Y-16508291D01*
X-25157222Y-16508290D01*
X-25181954Y-16459754D01*
X-25670483Y-16948283D01*
X-25696108Y-16819456D01*
X-25758298Y-16669316D01*
X-25848585Y-16534193D01*
X-25963497Y-16419281D01*
X-26098620Y-16328994D01*
X-26248760Y-16266804D01*
X-26377590Y-16241178D01*
X-25889060Y-15752648D01*
X-25937598Y-15727916D01*
X-26152786Y-15657997D01*
X-26376273Y-15622600D01*
X-26602535Y-15622600D01*
X-26826023Y-15657997D01*
X-27041216Y-15727918D01*
X-27089750Y-15752647D01*
X-27089750Y-15752649D01*
X-26601221Y-16241178D01*
X-26730048Y-16266804D01*
X-26880188Y-16328994D01*
X-27015311Y-16419281D01*
X-27130223Y-16534193D01*
X-27220510Y-16669316D01*
X-27282700Y-16819456D01*
X-27308326Y-16948283D01*
X-27796855Y-16459754D01*
X-27796857Y-16459754D01*
X-27821586Y-16508288D01*
X-27891507Y-16723481D01*
X-27926904Y-16946969D01*
X-31752337Y-16946969D01*
X-31752337Y-16881969D01*
X-31787735Y-16658481D01*
X-31857655Y-16443291D01*
X-31857655Y-16443290D01*
X-31882387Y-16394754D01*
X-32370916Y-16883283D01*
X-32396541Y-16754456D01*
X-32458731Y-16604316D01*
X-32549018Y-16469193D01*
X-32663930Y-16354281D01*
X-32799053Y-16263994D01*
X-32949193Y-16201804D01*
X-33078022Y-16176178D01*
X-32609096Y-15707252D01*
X-32589492Y-15687648D01*
X-32638031Y-15662916D01*
X-32853219Y-15592997D01*
X-33076706Y-15557600D01*
X-33302968Y-15557600D01*
X-33526456Y-15592997D01*
X-33741649Y-15662918D01*
X-33790183Y-15687647D01*
X-33790183Y-15687649D01*
X-33301654Y-16176178D01*
X-33430481Y-16201804D01*
X-33580621Y-16263994D01*
X-33715744Y-16354281D01*
X-33830656Y-16469193D01*
X-33920943Y-16604316D01*
X-33983133Y-16754456D01*
X-34008759Y-16883283D01*
X-34497288Y-16394754D01*
X-34497290Y-16394754D01*
X-34522019Y-16443288D01*
X-34591940Y-16658481D01*
X-34627337Y-16881969D01*
X-38452770Y-16881969D01*
X-38488168Y-16658481D01*
X-38558088Y-16443291D01*
X-38558088Y-16443290D01*
X-38582820Y-16394754D01*
X-39071349Y-16883283D01*
X-39096974Y-16754456D01*
X-39159164Y-16604316D01*
X-39249451Y-16469193D01*
X-39364363Y-16354281D01*
X-39499486Y-16263994D01*
X-39649626Y-16201804D01*
X-39778456Y-16176178D01*
X-39289926Y-15687648D01*
X-39338464Y-15662916D01*
X-39553652Y-15592997D01*
X-39777139Y-15557600D01*
X-40003401Y-15557600D01*
X-40226889Y-15592997D01*
X-40442082Y-15662918D01*
X-40490616Y-15687647D01*
X-40490616Y-15687649D01*
X-40002087Y-16176178D01*
X-40130914Y-16201804D01*
X-40281054Y-16263994D01*
X-40416177Y-16354281D01*
X-40531089Y-16469193D01*
X-40621376Y-16604316D01*
X-40683566Y-16754456D01*
X-40709192Y-16883283D01*
X-41197721Y-16394754D01*
X-41197723Y-16394754D01*
X-41222452Y-16443288D01*
X-41292373Y-16658481D01*
X-41327770Y-16881969D01*
X-45153203Y-16881969D01*
X-45188601Y-16658481D01*
X-45258521Y-16443291D01*
X-45258521Y-16443290D01*
X-45283253Y-16394754D01*
X-45771782Y-16883283D01*
X-45797407Y-16754456D01*
X-45859597Y-16604316D01*
X-45949884Y-16469193D01*
X-46064796Y-16354281D01*
X-46199919Y-16263994D01*
X-46350059Y-16201804D01*
X-46478889Y-16176178D01*
X-45990359Y-15687648D01*
X-46038897Y-15662916D01*
X-46254085Y-15592997D01*
X-46477572Y-15557600D01*
X-46703834Y-15557600D01*
X-46927322Y-15592997D01*
X-47142515Y-15662918D01*
X-47191049Y-15687647D01*
X-47191049Y-15687649D01*
X-46702520Y-16176178D01*
X-46831347Y-16201804D01*
X-46981487Y-16263994D01*
X-47116610Y-16354281D01*
X-47231522Y-16469193D01*
X-47321809Y-16604316D01*
X-47383999Y-16754456D01*
X-47409625Y-16883283D01*
X-47898154Y-16394754D01*
X-47898156Y-16394754D01*
X-47922885Y-16443288D01*
X-47992806Y-16658481D01*
X-48028203Y-16881969D01*
X-51853636Y-16881969D01*
X-51889034Y-16658481D01*
X-51958954Y-16443291D01*
X-51958954Y-16443290D01*
X-51983686Y-16394754D01*
X-52472215Y-16883283D01*
X-52497840Y-16754456D01*
X-52560030Y-16604316D01*
X-52650317Y-16469193D01*
X-52765229Y-16354281D01*
X-52900352Y-16263994D01*
X-53050492Y-16201804D01*
X-53179322Y-16176178D01*
X-52690792Y-15687648D01*
X-52739330Y-15662916D01*
X-52954518Y-15592997D01*
X-53178005Y-15557600D01*
X-53404267Y-15557600D01*
X-53627755Y-15592997D01*
X-53842948Y-15662918D01*
X-53891482Y-15687647D01*
X-53891482Y-15687649D01*
X-53402953Y-16176178D01*
X-53531780Y-16201804D01*
X-53681920Y-16263994D01*
X-53817043Y-16354281D01*
X-53931955Y-16469193D01*
X-54022242Y-16604316D01*
X-54084432Y-16754456D01*
X-54110058Y-16883283D01*
X-54598587Y-16394754D01*
X-54598589Y-16394754D01*
X-54623318Y-16443288D01*
X-54693239Y-16658481D01*
X-54728636Y-16881969D01*
X-56016450Y-16881969D01*
X-56016255Y-15030498D01*
X-56015175Y-15014055D01*
X-56001099Y-14907222D01*
X-55992587Y-14875461D01*
X-55954522Y-14783582D01*
X-55938084Y-14755116D01*
X-55877539Y-14676223D01*
X-55854289Y-14652976D01*
X-55806092Y-14615997D01*
X-55775396Y-14592446D01*
X-55746912Y-14576002D01*
X-55655048Y-14537953D01*
X-55623282Y-14529442D01*
X-55516443Y-14515377D01*
X-55499998Y-14514300D01*
X-26942155Y-14514300D01*
X-26909545Y-14518593D01*
X-26880516Y-14526371D01*
X-26792541Y-14537953D01*
X-26620524Y-14560600D01*
X-26620517Y-14560600D01*
X-26358291Y-14560600D01*
X-26358284Y-14560600D01*
X-26171714Y-14536036D01*
X-26098293Y-14526371D01*
X-26098291Y-14526370D01*
X-26098288Y-14526370D01*
X-26079570Y-14521354D01*
X-26069263Y-14518593D01*
X-26036653Y-14514300D01*
X-20241722Y-14514300D01*
X-20209112Y-14518593D01*
X-20180083Y-14526371D01*
X-20092108Y-14537953D01*
X-19920091Y-14560600D01*
X-19920084Y-14560600D01*
X-19657858Y-14560600D01*
X-19657851Y-14560600D01*
X-19471281Y-14536036D01*
X-19397860Y-14526371D01*
X-19397858Y-14526370D01*
X-19397855Y-14526370D01*
X-19379137Y-14521354D01*
X-19368830Y-14518593D01*
X-19336220Y-14514300D01*
X-13541289Y-14514300D01*
X-13508679Y-14518593D01*
X-13479650Y-14526371D01*
X-13391675Y-14537953D01*
X-13219658Y-14560600D01*
X-13219651Y-14560600D01*
X-12957425Y-14560600D01*
X-12957418Y-14560600D01*
X-12770848Y-14536036D01*
X-12697427Y-14526371D01*
X-12697425Y-14526370D01*
X-12697422Y-14526370D01*
X-12678704Y-14521354D01*
X-12668397Y-14518593D01*
X-12635787Y-14514300D01*
X-6840851Y-14514300D01*
X-6808241Y-14518593D01*
X-6779212Y-14526371D01*
X-6691237Y-14537953D01*
X-6519220Y-14560600D01*
X-6519213Y-14560600D01*
X-6256987Y-14560600D01*
X-6256980Y-14560600D01*
X-6070410Y-14536036D01*
X-5996989Y-14526371D01*
X-5996987Y-14526370D01*
X-5996984Y-14526370D01*
X-5978266Y-14521354D01*
X-5967959Y-14518593D01*
X-5935349Y-14514300D01*
X-3669600Y-14514300D01*
X-3669600Y-13794598D01*
X83800Y-13794598D01*
X83800Y-15314300D01*
X1595603Y-15314300D01*
X1530540Y-15411674D01*
X1466465Y-15566364D01*
X1433800Y-15730582D01*
X1433800Y-15898018D01*
X1466465Y-16062236D01*
X1530540Y-16216926D01*
X1595603Y-16314300D01*
X83800Y-16314300D01*
X83800Y-17834001D01*
X95404Y-17892336D01*
X139607Y-17958492D01*
X205763Y-18002695D01*
X264098Y-18014299D01*
X264103Y-18014300D01*
X1783800Y-18014300D01*
X1783800Y-16502497D01*
X1881174Y-16567560D01*
X2035864Y-16631635D01*
X2200082Y-16664300D01*
X2367518Y-16664300D01*
X2531736Y-16631635D01*
X2686426Y-16567560D01*
X2783800Y-16502497D01*
X2783800Y-18014300D01*
X4303497Y-18014300D01*
X4303501Y-18014299D01*
X4361836Y-18002695D01*
X4427992Y-17958492D01*
X4472195Y-17892336D01*
X4483799Y-17834001D01*
X4483800Y-17833996D01*
X4483800Y-16314300D01*
X2971997Y-16314300D01*
X3037060Y-16216926D01*
X3101135Y-16062236D01*
X3133800Y-15898018D01*
X3133800Y-15730582D01*
X3101135Y-15566364D01*
X3037060Y-15411674D01*
X2971997Y-15314300D01*
X4483800Y-15314300D01*
X4483800Y-13794603D01*
X4483799Y-13794598D01*
X4472195Y-13736263D01*
X4427992Y-13670107D01*
X4361836Y-13625904D01*
X4303501Y-13614300D01*
X2783800Y-13614300D01*
X2783800Y-15126102D01*
X2686426Y-15061040D01*
X2531736Y-14996965D01*
X2367518Y-14964300D01*
X2200082Y-14964300D01*
X2035864Y-14996965D01*
X1881174Y-15061040D01*
X1783800Y-15126102D01*
X1783800Y-13614300D01*
X264098Y-13614300D01*
X205763Y-13625904D01*
X139607Y-13670107D01*
X95404Y-13736263D01*
X83800Y-13794598D01*
X-3669600Y-13794598D01*
X-3669600Y-10526569D01*
X-3668523Y-10510133D01*
X-3654447Y-10403241D01*
X-3645931Y-10371472D01*
X-3607858Y-10279581D01*
X-3591407Y-10251093D01*
X-3530833Y-10172181D01*
X-3507576Y-10148934D01*
X-3428637Y-10088393D01*
X-3400152Y-10071958D01*
X-3308237Y-10033919D01*
X-3276458Y-10025416D01*
X-3169577Y-10011386D01*
X-3153139Y-10010315D01*
X3122602Y-10012937D01*
G37*
%TD.AperFunction*%
%TD*%
%TA.AperFunction,Conductor*%
%TO.N,GND*%
G36*
X-9557009Y34266793D02*
G01*
X-9521045Y34217293D01*
X-9516200Y34186700D01*
X-9516200Y29284700D01*
X-9535107Y29226509D01*
X-9584607Y29190545D01*
X-9615200Y29185700D01*
X-14217200Y29185700D01*
X-14275391Y29204607D01*
X-14311355Y29254107D01*
X-14316200Y29284700D01*
X-14316200Y31235699D01*
X-14016199Y31235699D01*
X-14016199Y31131497D01*
X-14013350Y31101100D01*
X-14013350Y31101098D01*
X-13968546Y30973053D01*
X-13887993Y30863910D01*
X-13887991Y30863908D01*
X-13778848Y30783355D01*
X-13650802Y30738551D01*
X-13620411Y30735701D01*
X-13016202Y30735701D01*
X-13016200Y30735702D01*
X-13016200Y31235699D01*
X-12016200Y31235699D01*
X-12016200Y30735702D01*
X-12016199Y30735701D01*
X-11411997Y30735701D01*
X-11381600Y30738551D01*
X-11381598Y30738551D01*
X-11253553Y30783355D01*
X-11144410Y30863908D01*
X-11144408Y30863910D01*
X-11063855Y30973053D01*
X-11019051Y31101099D01*
X-11016201Y31131489D01*
X-11016200Y31131490D01*
X-11016200Y31235699D01*
X-11016201Y31235700D01*
X-12016199Y31235700D01*
X-12016200Y31235699D01*
X-13016200Y31235699D01*
X-13016201Y31235700D01*
X-14016198Y31235700D01*
X-14016199Y31235699D01*
X-14316200Y31235699D01*
X-14316200Y32339912D01*
X-14016200Y32339912D01*
X-14016200Y32235701D01*
X-14016199Y32235700D01*
X-13016201Y32235700D01*
X-13016200Y32235701D01*
X-13016200Y32735699D01*
X-12016200Y32735699D01*
X-12016200Y32235701D01*
X-12016199Y32235700D01*
X-11016202Y32235700D01*
X-11016201Y32235701D01*
X-11016201Y32339904D01*
X-11019051Y32370301D01*
X-11019051Y32370303D01*
X-11063855Y32498348D01*
X-11144408Y32607491D01*
X-11144410Y32607493D01*
X-11253553Y32688046D01*
X-11381599Y32732850D01*
X-11411989Y32735700D01*
X-12016199Y32735700D01*
X-12016200Y32735699D01*
X-13016200Y32735699D01*
X-13016201Y32735700D01*
X-13620404Y32735700D01*
X-13650801Y32732850D01*
X-13650803Y32732850D01*
X-13778848Y32688046D01*
X-13887991Y32607493D01*
X-13887993Y32607491D01*
X-13968546Y32498348D01*
X-14013350Y32370302D01*
X-14016200Y32339912D01*
X-14316200Y32339912D01*
X-14316200Y34186700D01*
X-14297293Y34244891D01*
X-14247793Y34280855D01*
X-14217200Y34285700D01*
X-9615200Y34285700D01*
X-9557009Y34266793D01*
G37*
%TD.AperFunction*%
%TD*%
M02*
