0
SECTION
2
ENTITIES
0
LINE
8
0
10
0.000000
20
0.000000
30
0
11
3919.291339
21
0.000000
31
0
0
LINE
8
0
10
0.000000
20
0.000000
30
0
11
0.000000
21
-3486.220472
31
0
0
LINE
8
0
10
3919.291339
20
0.000000
30
0
11
3919.291339
21
-3486.220472
31
0
0
LINE
8
0
10
0.000000
20
-3486.220472
30
0
11
3919.291339
21
-3486.220472
31
0
0
LINE
8
1
10
1665.118110
20
-272.900669
30
0
11
1793.070866
21
-272.900669
31
0
0
LINE
8
1
10
1665.118110
20
-272.900669
30
0
11
1665.118110
21
-277.625079
31
0
0
LINE
8
1
10
1793.070866
20
-272.900669
30
0
11
1793.070866
21
-277.625079
31
0
0
LINE
8
1
10
1665.118110
20
-277.625079
30
0
11
1793.070866
21
-277.625079
31
0
0
LINE
8
1
10
1721.259843
20
-211.483346
30
0
11
1957.874016
21
-211.483346
31
0
0
LINE
8
1
10
1721.259843
20
-211.483346
30
0
11
1721.259843
21
-216.207756
31
0
0
LINE
8
1
10
1957.874016
20
-211.483346
30
0
11
1957.874016
21
-216.207756
31
0
0
LINE
8
1
10
1721.259843
20
-216.207756
30
0
11
1957.874016
21
-216.207756
31
0
0
LINE
8
1
10
1643.582677
20
-324.869173
30
0
11
1793.070866
21
-324.869173
31
0
0
LINE
8
1
10
1643.582677
20
-324.869173
30
0
11
1643.582677
21
-329.593583
31
0
0
LINE
8
1
10
1793.070866
20
-324.869173
30
0
11
1793.070866
21
-329.593583
31
0
0
LINE
8
1
10
1643.582677
20
-329.593583
30
0
11
1793.070866
21
-329.593583
31
0
0
LINE
8
1
10
1673.188976
20
-260.302244
30
0
11
1793.070866
21
-260.302244
31
0
0
LINE
8
1
10
1673.188976
20
-260.302244
30
0
11
1673.188976
21
-265.026654
31
0
0
LINE
8
1
10
1793.070866
20
-260.302244
30
0
11
1793.070866
21
-265.026654
31
0
0
LINE
8
1
10
1673.188976
20
-265.026654
30
0
11
1793.070866
21
-265.026654
31
0
0
LINE
8
1
10
1886.062992
20
-293.373110
30
0
11
2024.566929
21
-293.373110
31
0
0
LINE
8
1
10
1886.062992
20
-293.373110
30
0
11
1886.062992
21
-298.097520
31
0
0
LINE
8
1
10
2024.566929
20
-293.373110
30
0
11
2024.566929
21
-298.097520
31
0
0
LINE
8
1
10
1886.062992
20
-298.097520
30
0
11
2024.566929
21
-298.097520
31
0
0
LINE
8
1
10
1886.062992
20
-315.420354
30
0
11
2032.874016
21
-315.420354
31
0
0
LINE
8
1
10
1886.062992
20
-315.420354
30
0
11
1886.062992
21
-320.144764
31
0
0
LINE
8
1
10
2032.874016
20
-315.420354
30
0
11
2032.874016
21
-320.144764
31
0
0
LINE
8
1
10
1886.062992
20
-320.144764
30
0
11
2032.874016
21
-320.144764
31
0
0
LINE
8
1
10
1678.937008
20
-252.428228
30
0
11
1793.070866
21
-252.428228
31
0
0
LINE
8
1
10
1678.937008
20
-252.428228
30
0
11
1678.937008
21
-257.152638
31
0
0
LINE
8
1
10
1793.070866
20
-252.428228
30
0
11
1793.070866
21
-257.152638
31
0
0
LINE
8
1
10
1678.937008
20
-257.152638
30
0
11
1793.070866
21
-257.152638
31
0
0
LINE
8
1
10
1659.881890
20
-282.349488
30
0
11
1793.070866
21
-282.349488
31
0
0
LINE
8
1
10
1659.881890
20
-282.349488
30
0
11
1659.881890
21
-287.073898
31
0
0
LINE
8
1
10
1793.070866
20
-282.349488
30
0
11
1793.070866
21
-287.073898
31
0
0
LINE
8
1
10
1659.881890
20
-287.073898
30
0
11
1793.070866
21
-287.073898
31
0
0
LINE
8
1
10
1640.196850
20
-340.617205
30
0
11
2038.937008
21
-340.617205
31
0
0
LINE
8
1
10
1640.196850
20
-340.617205
30
0
11
1640.196850
21
-345.341614
31
0
0
LINE
8
1
10
2038.937008
20
-340.617205
30
0
11
2038.937008
21
-345.341614
31
0
0
LINE
8
1
10
1640.196850
20
-345.341614
30
0
11
2038.937008
21
-345.341614
31
0
0
LINE
8
1
10
1639.409449
20
-345.341614
30
0
11
2039.724409
21
-345.341614
31
0
0
LINE
8
1
10
1639.409449
20
-345.341614
30
0
11
1639.409449
21
-350.066024
31
0
0
LINE
8
1
10
2039.724409
20
-345.341614
30
0
11
2039.724409
21
-350.066024
31
0
0
LINE
8
1
10
1639.409449
20
-350.066024
30
0
11
2039.724409
21
-350.066024
31
0
0
LINE
8
1
10
1782.952756
20
-181.562087
30
0
11
1896.181102
21
-181.562087
31
0
0
LINE
8
1
10
1782.952756
20
-181.562087
30
0
11
1782.952756
21
-186.286496
31
0
0
LINE
8
1
10
1896.181102
20
-181.562087
30
0
11
1896.181102
21
-186.286496
31
0
0
LINE
8
1
10
1782.952756
20
-186.286496
30
0
11
1896.181102
21
-186.286496
31
0
0
LINE
8
1
10
1637.283465
20
-369.003031
30
0
11
2041.850394
21
-369.003031
31
0
0
LINE
8
1
10
1637.283465
20
-369.003031
30
0
11
1637.283465
21
-373.727441
31
0
0
LINE
8
1
10
2041.850394
20
-369.003031
30
0
11
2041.850394
21
-373.727441
31
0
0
LINE
8
1
10
1637.283465
20
-373.727441
30
0
11
2041.850394
21
-373.727441
31
0
0
LINE
8
1
10
1886.062992
20
-239.829803
30
0
11
1989.685039
21
-239.829803
31
0
0
LINE
8
1
10
1886.062992
20
-239.829803
30
0
11
1886.062992
21
-244.554213
31
0
0
LINE
8
1
10
1989.685039
20
-239.829803
30
0
11
1989.685039
21
-244.554213
31
0
0
LINE
8
1
10
1886.062992
20
-244.554213
30
0
11
1989.685039
21
-244.554213
31
0
0
LINE
8
1
10
1730.551181
20
-205.184134
30
0
11
1948.582677
21
-205.184134
31
0
0
LINE
8
1
10
1730.551181
20
-205.184134
30
0
11
1730.551181
21
-209.908543
31
0
0
LINE
8
1
10
1948.582677
20
-205.184134
30
0
11
1948.582677
21
-209.908543
31
0
0
LINE
8
1
10
1730.551181
20
-209.908543
30
0
11
1948.582677
21
-209.908543
31
0
0
LINE
8
1
10
1645.787402
20
-316.995157
30
0
11
1793.070866
21
-316.995157
31
0
0
LINE
8
1
10
1645.787402
20
-316.995157
30
0
11
1645.787402
21
-321.719567
31
0
0
LINE
8
1
10
1793.070866
20
-316.995157
30
0
11
1793.070866
21
-321.719567
31
0
0
LINE
8
1
10
1645.787402
20
-321.719567
30
0
11
1793.070866
21
-321.719567
31
0
0
LINE
8
1
10
1637.204724
20
-372.152638
30
0
11
2041.929134
21
-372.152638
31
0
0
LINE
8
1
10
1637.204724
20
-372.152638
30
0
11
1637.204724
21
-376.877047
31
0
0
LINE
8
1
10
2041.929134
20
-372.152638
30
0
11
2041.929134
21
-376.877047
31
0
0
LINE
8
1
10
1637.204724
20
-376.877047
30
0
11
2041.929134
21
-376.877047
31
0
0
LINE
8
1
10
1724.015748
20
-551.666260
30
0
11
1728.740157
21
-551.666260
31
0
0
LINE
8
1
10
1724.015748
20
-551.666260
30
0
11
1724.015748
21
-595.760748
31
0
0
LINE
8
1
10
1728.740157
20
-551.666260
30
0
11
1728.740157
21
-595.760748
31
0
0
LINE
8
1
10
1724.015748
20
-595.760748
30
0
11
1728.740157
21
-595.760748
31
0
0
LINE
8
1
10
1886.062992
20
-242.979409
30
0
11
1992.480315
21
-242.979409
31
0
0
LINE
8
1
10
1886.062992
20
-242.979409
30
0
11
1886.062992
21
-247.703819
31
0
0
LINE
8
1
10
1992.480315
20
-242.979409
30
0
11
1992.480315
21
-247.703819
31
0
0
LINE
8
1
10
1886.062992
20
-247.703819
30
0
11
1992.480315
21
-247.703819
31
0
0
LINE
8
1
10
1886.062992
20
-236.680197
30
0
11
1986.771654
21
-236.680197
31
0
0
LINE
8
1
10
1886.062992
20
-236.680197
30
0
11
1886.062992
21
-241.404606
31
0
0
LINE
8
1
10
1986.771654
20
-236.680197
30
0
11
1986.771654
21
-241.404606
31
0
0
LINE
8
1
10
1886.062992
20
-241.404606
30
0
11
1986.771654
21
-241.404606
31
0
0
LINE
8
1
10
1886.062992
20
-246.129016
30
0
11
1995.157480
21
-246.129016
31
0
0
LINE
8
1
10
1886.062992
20
-246.129016
30
0
11
1886.062992
21
-250.853425
31
0
0
LINE
8
1
10
1995.157480
20
-246.129016
30
0
11
1995.157480
21
-250.853425
31
0
0
LINE
8
1
10
1886.062992
20
-250.853425
30
0
11
1995.157480
21
-250.853425
31
0
0
LINE
8
1
10
1637.677165
20
-361.129016
30
0
11
2041.456693
21
-361.129016
31
0
0
LINE
8
1
10
1637.677165
20
-361.129016
30
0
11
1637.677165
21
-365.853425
31
0
0
LINE
8
1
10
2041.456693
20
-361.129016
30
0
11
2041.456693
21
-365.853425
31
0
0
LINE
8
1
10
1637.677165
20
-365.853425
30
0
11
2041.456693
21
-365.853425
31
0
0
LINE
8
1
10
1685.314961
20
-244.554213
30
0
11
1793.070866
21
-244.554213
31
0
0
LINE
8
1
10
1685.314961
20
-244.554213
30
0
11
1685.314961
21
-249.278622
31
0
0
LINE
8
1
10
1793.070866
20
-244.554213
30
0
11
1793.070866
21
-249.278622
31
0
0
LINE
8
1
10
1685.314961
20
-249.278622
30
0
11
1793.070866
21
-249.278622
31
0
0
LINE
8
1
10
1886.062992
20
-283.924291
30
0
11
2020.078740
21
-283.924291
31
0
0
LINE
8
1
10
1886.062992
20
-283.924291
30
0
11
1886.062992
21
-288.648701
31
0
0
LINE
8
1
10
2020.078740
20
-283.924291
30
0
11
2020.078740
21
-288.648701
31
0
0
LINE
8
1
10
1886.062992
20
-288.648701
30
0
11
2020.078740
21
-288.648701
31
0
0
LINE
8
1
10
1886.062992
20
-288.648701
30
0
11
2022.401575
21
-288.648701
31
0
0
LINE
8
1
10
1886.062992
20
-288.648701
30
0
11
1886.062992
21
-293.373110
31
0
0
LINE
8
1
10
2022.401575
20
-288.648701
30
0
11
2022.401575
21
-293.373110
31
0
0
LINE
8
1
10
1886.062992
20
-293.373110
30
0
11
2022.401575
21
-293.373110
31
0
0
LINE
8
1
10
1768.622047
20
-186.286496
30
0
11
1910.511811
21
-186.286496
31
0
0
LINE
8
1
10
1768.622047
20
-186.286496
30
0
11
1768.622047
21
-191.010906
31
0
0
LINE
8
1
10
1910.511811
20
-186.286496
30
0
11
1910.511811
21
-191.010906
31
0
0
LINE
8
1
10
1768.622047
20
-191.010906
30
0
11
1910.511811
21
-191.010906
31
0
0
LINE
8
1
10
1886.062992
20
-302.821929
30
0
11
2028.464567
21
-302.821929
31
0
0
LINE
8
1
10
1886.062992
20
-302.821929
30
0
11
1886.062992
21
-307.546339
31
0
0
LINE
8
1
10
2028.464567
20
-302.821929
30
0
11
2028.464567
21
-307.546339
31
0
0
LINE
8
1
10
1886.062992
20
-307.546339
30
0
11
2028.464567
21
-307.546339
31
0
0
LINE
8
1
10
1640.472441
20
-339.042402
30
0
11
2038.661417
21
-339.042402
31
0
0
LINE
8
1
10
1640.472441
20
-339.042402
30
0
11
1640.472441
21
-343.766811
31
0
0
LINE
8
1
10
2038.661417
20
-339.042402
30
0
11
2038.661417
21
-343.766811
31
0
0
LINE
8
1
10
1640.472441
20
-343.766811
30
0
11
2038.661417
21
-343.766811
31
0
0
LINE
8
1
10
1886.062992
20
-268.176260
30
0
11
2011.141732
21
-268.176260
31
0
0
LINE
8
1
10
1886.062992
20
-268.176260
30
0
11
1886.062992
21
-272.900669
31
0
0
LINE
8
1
10
2011.141732
20
-268.176260
30
0
11
2011.141732
21
-272.900669
31
0
0
LINE
8
1
10
1886.062992
20
-272.900669
30
0
11
2011.141732
21
-272.900669
31
0
0
LINE
8
1
10
1674.291339
20
-258.727441
30
0
11
1793.070866
21
-258.727441
31
0
0
LINE
8
1
10
1674.291339
20
-258.727441
30
0
11
1674.291339
21
-263.451850
31
0
0
LINE
8
1
10
1793.070866
20
-258.727441
30
0
11
1793.070866
21
-263.451850
31
0
0
LINE
8
1
10
1674.291339
20
-263.451850
30
0
11
1793.070866
21
-263.451850
31
0
0
LINE
8
1
10
1886.062992
20
-296.522717
30
0
11
2025.944882
21
-296.522717
31
0
0
LINE
8
1
10
1886.062992
20
-296.522717
30
0
11
1886.062992
21
-301.247126
31
0
0
LINE
8
1
10
2025.944882
20
-296.522717
30
0
11
2025.944882
21
-301.247126
31
0
0
LINE
8
1
10
1886.062992
20
-301.247126
30
0
11
2025.944882
21
-301.247126
31
0
0
LINE
8
1
10
1723.464567
20
-209.908543
30
0
11
1955.669291
21
-209.908543
31
0
0
LINE
8
1
10
1723.464567
20
-209.908543
30
0
11
1723.464567
21
-214.632953
31
0
0
LINE
8
1
10
1955.669291
20
-209.908543
30
0
11
1955.669291
21
-214.632953
31
0
0
LINE
8
1
10
1723.464567
20
-214.632953
30
0
11
1955.669291
21
-214.632953
31
0
0
LINE
8
1
10
1886.062992
20
-260.302244
30
0
11
2005.944882
21
-260.302244
31
0
0
LINE
8
1
10
1886.062992
20
-260.302244
30
0
11
1886.062992
21
-265.026654
31
0
0
LINE
8
1
10
2005.944882
20
-260.302244
30
0
11
2005.944882
21
-265.026654
31
0
0
LINE
8
1
10
1886.062992
20
-265.026654
30
0
11
2005.944882
21
-265.026654
31
0
0
LINE
8
1
10
1643.188976
20
-326.443976
30
0
11
2035.944882
21
-326.443976
31
0
0
LINE
8
1
10
1643.188976
20
-326.443976
30
0
11
1643.188976
21
-331.168386
31
0
0
LINE
8
1
10
2035.944882
20
-326.443976
30
0
11
2035.944882
21
-331.168386
31
0
0
LINE
8
1
10
1643.188976
20
-331.168386
30
0
11
2035.944882
21
-331.168386
31
0
0
LINE
8
1
10
1653.188976
20
-296.522717
30
0
11
1793.070866
21
-296.522717
31
0
0
LINE
8
1
10
1653.188976
20
-296.522717
30
0
11
1653.188976
21
-301.247126
31
0
0
LINE
8
1
10
1793.070866
20
-296.522717
30
0
11
1793.070866
21
-301.247126
31
0
0
LINE
8
1
10
1653.188976
20
-301.247126
30
0
11
1793.070866
21
-301.247126
31
0
0
LINE
8
1
10
1747.086614
20
-195.735315
30
0
11
1932.047244
21
-195.735315
31
0
0
LINE
8
1
10
1747.086614
20
-195.735315
30
0
11
1747.086614
21
-200.459724
31
0
0
LINE
8
1
10
1932.047244
20
-195.735315
30
0
11
1932.047244
21
-200.459724
31
0
0
LINE
8
1
10
1747.086614
20
-200.459724
30
0
11
1932.047244
21
-200.459724
31
0
0
LINE
8
1
10
1886.062992
20
-307.546339
30
0
11
2030.236220
21
-307.546339
31
0
0
LINE
8
1
10
1886.062992
20
-307.546339
30
0
11
1886.062992
21
-312.270748
31
0
0
LINE
8
1
10
2030.236220
20
-307.546339
30
0
11
2030.236220
21
-312.270748
31
0
0
LINE
8
1
10
1886.062992
20
-312.270748
30
0
11
2030.236220
21
-312.270748
31
0
0
LINE
8
1
10
1764.527559
20
-187.861299
30
0
11
1914.606299
21
-187.861299
31
0
0
LINE
8
1
10
1764.527559
20
-187.861299
30
0
11
1764.527559
21
-192.585709
31
0
0
LINE
8
1
10
1914.606299
20
-187.861299
30
0
11
1914.606299
21
-192.585709
31
0
0
LINE
8
1
10
1764.527559
20
-192.585709
30
0
11
1914.606299
21
-192.585709
31
0
0
LINE
8
1
10
1662.401575
20
-277.625079
30
0
11
1793.070866
21
-277.625079
31
0
0
LINE
8
1
10
1662.401575
20
-277.625079
30
0
11
1662.401575
21
-282.349488
31
0
0
LINE
8
1
10
1793.070866
20
-277.625079
30
0
11
1793.070866
21
-282.349488
31
0
0
LINE
8
1
10
1662.401575
20
-282.349488
30
0
11
1793.070866
21
-282.349488
31
0
0
LINE
8
1
10
1886.062992
20
-290.223504
30
0
11
2023.149606
21
-290.223504
31
0
0
LINE
8
1
10
1886.062992
20
-290.223504
30
0
11
1886.062992
21
-294.947913
31
0
0
LINE
8
1
10
2023.149606
20
-290.223504
30
0
11
2023.149606
21
-294.947913
31
0
0
LINE
8
1
10
1886.062992
20
-294.947913
30
0
11
2023.149606
21
-294.947913
31
0
0
LINE
8
1
10
1680.157480
20
-250.853425
30
0
11
1793.070866
21
-250.853425
31
0
0
LINE
8
1
10
1680.157480
20
-250.853425
30
0
11
1680.157480
21
-255.577835
31
0
0
LINE
8
1
10
1793.070866
20
-250.853425
30
0
11
1793.070866
21
-255.577835
31
0
0
LINE
8
1
10
1680.157480
20
-255.577835
30
0
11
1793.070866
21
-255.577835
31
0
0
LINE
8
1
10
1645.314961
20
-318.569961
30
0
11
1793.070866
21
-318.569961
31
0
0
LINE
8
1
10
1645.314961
20
-318.569961
30
0
11
1645.314961
21
-323.294370
31
0
0
LINE
8
1
10
1793.070866
20
-318.569961
30
0
11
1793.070866
21
-323.294370
31
0
0
LINE
8
1
10
1645.314961
20
-323.294370
30
0
11
1793.070866
21
-323.294370
31
0
0
LINE
8
1
10
1698.622047
20
-230.380984
30
0
11
1793.070866
21
-230.380984
31
0
0
LINE
8
1
10
1698.622047
20
-230.380984
30
0
11
1698.622047
21
-235.105394
31
0
0
LINE
8
1
10
1793.070866
20
-230.380984
30
0
11
1793.070866
21
-235.105394
31
0
0
LINE
8
1
10
1698.622047
20
-235.105394
30
0
11
1793.070866
21
-235.105394
31
0
0
LINE
8
1
10
1886.062992
20
-235.105394
30
0
11
1985.236220
21
-235.105394
31
0
0
LINE
8
1
10
1886.062992
20
-235.105394
30
0
11
1886.062992
21
-239.829803
31
0
0
LINE
8
1
10
1985.236220
20
-235.105394
30
0
11
1985.236220
21
-239.829803
31
0
0
LINE
8
1
10
1886.062992
20
-239.829803
30
0
11
1985.236220
21
-239.829803
31
0
0
LINE
8
1
10
1886.062992
20
-324.869173
30
0
11
2035.551181
21
-324.869173
31
0
0
LINE
8
1
10
1886.062992
20
-324.869173
30
0
11
1886.062992
21
-329.593583
31
0
0
LINE
8
1
10
2035.551181
20
-324.869173
30
0
11
2035.551181
21
-329.593583
31
0
0
LINE
8
1
10
1886.062992
20
-329.593583
30
0
11
2035.551181
21
-329.593583
31
0
0
LINE
8
1
10
1709.094488
20
-220.932165
30
0
11
1970.039370
21
-220.932165
31
0
0
LINE
8
1
10
1709.094488
20
-220.932165
30
0
11
1709.094488
21
-225.656575
31
0
0
LINE
8
1
10
1970.039370
20
-220.932165
30
0
11
1970.039370
21
-225.656575
31
0
0
LINE
8
1
10
1709.094488
20
-225.656575
30
0
11
1970.039370
21
-225.656575
31
0
0
LINE
8
1
10
1697.007874
20
-231.955787
30
0
11
1793.070866
21
-231.955787
31
0
0
LINE
8
1
10
1697.007874
20
-231.955787
30
0
11
1697.007874
21
-236.680197
31
0
0
LINE
8
1
10
1793.070866
20
-231.955787
30
0
11
1793.070866
21
-236.680197
31
0
0
LINE
8
1
10
1697.007874
20
-236.680197
30
0
11
1793.070866
21
-236.680197
31
0
0
LINE
8
1
10
1886.062992
20
-312.270748
30
0
11
2031.850394
21
-312.270748
31
0
0
LINE
8
1
10
1886.062992
20
-312.270748
30
0
11
1886.062992
21
-316.995157
31
0
0
LINE
8
1
10
2031.850394
20
-312.270748
30
0
11
2031.850394
21
-316.995157
31
0
0
LINE
8
1
10
1886.062992
20
-316.995157
30
0
11
2031.850394
21
-316.995157
31
0
0
LINE
8
1
10
1682.677165
20
-247.703819
30
0
11
1793.070866
21
-247.703819
31
0
0
LINE
8
1
10
1682.677165
20
-247.703819
30
0
11
1682.677165
21
-252.428228
31
0
0
LINE
8
1
10
1793.070866
20
-247.703819
30
0
11
1793.070866
21
-252.428228
31
0
0
LINE
8
1
10
1682.677165
20
-252.428228
30
0
11
1793.070866
21
-252.428228
31
0
0
LINE
8
1
10
1637.598425
20
-362.703819
30
0
11
2041.535433
21
-362.703819
31
0
0
LINE
8
1
10
1637.598425
20
-362.703819
30
0
11
1637.598425
21
-367.428228
31
0
0
LINE
8
1
10
2041.535433
20
-362.703819
30
0
11
2041.535433
21
-367.428228
31
0
0
LINE
8
1
10
1637.598425
20
-367.428228
30
0
11
2041.535433
21
-367.428228
31
0
0
LINE
8
1
10
1886.062992
20
-254.003031
30
0
11
2001.377953
21
-254.003031
31
0
0
LINE
8
1
10
1886.062992
20
-254.003031
30
0
11
1886.062992
21
-258.727441
31
0
0
LINE
8
1
10
2001.377953
20
-254.003031
30
0
11
2001.377953
21
-258.727441
31
0
0
LINE
8
1
10
1886.062992
20
-258.727441
30
0
11
2001.377953
21
-258.727441
31
0
0
LINE
8
1
10
1886.062992
20
-299.672323
30
0
11
2027.244094
21
-299.672323
31
0
0
LINE
8
1
10
1886.062992
20
-299.672323
30
0
11
1886.062992
21
-304.396732
31
0
0
LINE
8
1
10
2027.244094
20
-299.672323
30
0
11
2027.244094
21
-304.396732
31
0
0
LINE
8
1
10
1886.062992
20
-304.396732
30
0
11
2027.244094
21
-304.396732
31
0
0
LINE
8
1
10
1886.062992
20
-261.877047
30
0
11
2007.047244
21
-261.877047
31
0
0
LINE
8
1
10
1886.062992
20
-261.877047
30
0
11
1886.062992
21
-266.601457
31
0
0
LINE
8
1
10
2007.047244
20
-261.877047
30
0
11
2007.047244
21
-266.601457
31
0
0
LINE
8
1
10
1886.062992
20
-266.601457
30
0
11
2007.047244
21
-266.601457
31
0
0
LINE
8
1
10
1647.283465
20
-312.270748
30
0
11
1793.070866
21
-312.270748
31
0
0
LINE
8
1
10
1647.283465
20
-312.270748
30
0
11
1647.283465
21
-316.995157
31
0
0
LINE
8
1
10
1793.070866
20
-312.270748
30
0
11
1793.070866
21
-316.995157
31
0
0
LINE
8
1
10
1647.283465
20
-316.995157
30
0
11
1793.070866
21
-316.995157
31
0
0
LINE
8
1
10
1638.228346
20
-354.829803
30
0
11
2040.905512
21
-354.829803
31
0
0
LINE
8
1
10
1638.228346
20
-354.829803
30
0
11
1638.228346
21
-359.554213
31
0
0
LINE
8
1
10
2040.905512
20
-354.829803
30
0
11
2040.905512
21
-359.554213
31
0
0
LINE
8
1
10
1638.228346
20
-359.554213
30
0
11
2040.905512
21
-359.554213
31
0
0
LINE
8
1
10
1672.086614
20
-261.877047
30
0
11
1793.070866
21
-261.877047
31
0
0
LINE
8
1
10
1672.086614
20
-261.877047
30
0
11
1672.086614
21
-266.601457
31
0
0
LINE
8
1
10
1793.070866
20
-261.877047
30
0
11
1793.070866
21
-266.601457
31
0
0
LINE
8
1
10
1672.086614
20
-266.601457
30
0
11
1793.070866
21
-266.601457
31
0
0
LINE
8
1
10
1650.039370
20
-304.396732
30
0
11
1793.070866
21
-304.396732
31
0
0
LINE
8
1
10
1650.039370
20
-304.396732
30
0
11
1650.039370
21
-309.121142
31
0
0
LINE
8
1
10
1793.070866
20
-304.396732
30
0
11
1793.070866
21
-309.121142
31
0
0
LINE
8
1
10
1650.039370
20
-309.121142
30
0
11
1793.070866
21
-309.121142
31
0
0
LINE
8
1
10
1667.007874
20
-269.751063
30
0
11
1793.070866
21
-269.751063
31
0
0
LINE
8
1
10
1667.007874
20
-269.751063
30
0
11
1667.007874
21
-274.475472
31
0
0
LINE
8
1
10
1793.070866
20
-269.751063
30
0
11
1793.070866
21
-274.475472
31
0
0
LINE
8
1
10
1667.007874
20
-274.475472
30
0
11
1793.070866
21
-274.475472
31
0
0
LINE
8
1
10
1657.519685
20
-287.073898
30
0
11
1793.070866
21
-287.073898
31
0
0
LINE
8
1
10
1657.519685
20
-287.073898
30
0
11
1657.519685
21
-291.798307
31
0
0
LINE
8
1
10
1793.070866
20
-287.073898
30
0
11
1793.070866
21
-291.798307
31
0
0
LINE
8
1
10
1657.519685
20
-291.798307
30
0
11
1793.070866
21
-291.798307
31
0
0
LINE
8
1
10
1637.795276
20
-359.554213
30
0
11
2041.338583
21
-359.554213
31
0
0
LINE
8
1
10
1637.795276
20
-359.554213
30
0
11
1637.795276
21
-364.278622
31
0
0
LINE
8
1
10
2041.338583
20
-359.554213
30
0
11
2041.338583
21
-364.278622
31
0
0
LINE
8
1
10
1637.795276
20
-364.278622
30
0
11
2041.338583
21
-364.278622
31
0
0
LINE
8
1
10
1646.259843
20
-315.420354
30
0
11
1793.070866
21
-315.420354
31
0
0
LINE
8
1
10
1646.259843
20
-315.420354
30
0
11
1646.259843
21
-320.144764
31
0
0
LINE
8
1
10
1793.070866
20
-315.420354
30
0
11
1793.070866
21
-320.144764
31
0
0
LINE
8
1
10
1646.259843
20
-320.144764
30
0
11
1793.070866
21
-320.144764
31
0
0
LINE
8
1
10
1886.062992
20
-298.097520
30
0
11
2026.574803
21
-298.097520
31
0
0
LINE
8
1
10
1886.062992
20
-298.097520
30
0
11
1886.062992
21
-302.821929
31
0
0
LINE
8
1
10
2026.574803
20
-298.097520
30
0
11
2026.574803
21
-302.821929
31
0
0
LINE
8
1
10
1886.062992
20
-302.821929
30
0
11
2026.574803
21
-302.821929
31
0
0
LINE
8
1
10
1813.622047
20
-175.262874
30
0
11
1865.511811
21
-175.262874
31
0
0
LINE
8
1
10
1813.622047
20
-175.262874
30
0
11
1813.622047
21
-179.987283
31
0
0
LINE
8
1
10
1865.511811
20
-175.262874
30
0
11
1865.511811
21
-179.987283
31
0
0
LINE
8
1
10
1813.622047
20
-179.987283
30
0
11
1865.511811
21
-179.987283
31
0
0
LINE
8
1
10
1707.244094
20
-222.506969
30
0
11
1971.889764
21
-222.506969
31
0
0
LINE
8
1
10
1707.244094
20
-222.506969
30
0
11
1707.244094
21
-227.231378
31
0
0
LINE
8
1
10
1971.889764
20
-222.506969
30
0
11
1971.889764
21
-227.231378
31
0
0
LINE
8
1
10
1707.244094
20
-227.231378
30
0
11
1971.889764
21
-227.231378
31
0
0
LINE
8
1
10
1886.062992
20
-249.278622
30
0
11
1997.716535
21
-249.278622
31
0
0
LINE
8
1
10
1886.062992
20
-249.278622
30
0
11
1886.062992
21
-254.003031
31
0
0
LINE
8
1
10
1997.716535
20
-249.278622
30
0
11
1997.716535
21
-254.003031
31
0
0
LINE
8
1
10
1886.062992
20
-254.003031
30
0
11
1997.716535
21
-254.003031
31
0
0
LINE
8
1
10
1886.062992
20
-323.294370
30
0
11
2035.118110
21
-323.294370
31
0
0
LINE
8
1
10
1886.062992
20
-323.294370
30
0
11
1886.062992
21
-328.018780
31
0
0
LINE
8
1
10
2035.118110
20
-323.294370
30
0
11
2035.118110
21
-328.018780
31
0
0
LINE
8
1
10
1886.062992
20
-328.018780
30
0
11
2035.118110
21
-328.018780
31
0
0
LINE
8
1
10
1666.062992
20
-271.325866
30
0
11
1793.070866
21
-271.325866
31
0
0
LINE
8
1
10
1666.062992
20
-271.325866
30
0
11
1666.062992
21
-276.050276
31
0
0
LINE
8
1
10
1793.070866
20
-271.325866
30
0
11
1793.070866
21
-276.050276
31
0
0
LINE
8
1
10
1666.062992
20
-276.050276
30
0
11
1793.070866
21
-276.050276
31
0
0
LINE
8
1
10
1637.204724
20
-373.727441
30
0
11
2041.929134
21
-373.727441
31
0
0
LINE
8
1
10
1637.204724
20
-373.727441
30
0
11
1637.204724
21
-378.451850
31
0
0
LINE
8
1
10
2041.929134
20
-373.727441
30
0
11
2041.929134
21
-378.451850
31
0
0
LINE
8
1
10
1637.204724
20
-378.451850
30
0
11
2041.929134
21
-378.451850
31
0
0
LINE
8
1
10
1886.062992
20
-265.026654
30
0
11
2009.133858
21
-265.026654
31
0
0
LINE
8
1
10
1886.062992
20
-265.026654
30
0
11
1886.062992
21
-269.751063
31
0
0
LINE
8
1
10
2009.133858
20
-265.026654
30
0
11
2009.133858
21
-269.751063
31
0
0
LINE
8
1
10
1886.062992
20
-269.751063
30
0
11
2009.133858
21
-269.751063
31
0
0
LINE
8
1
10
1738.385827
20
-200.459724
30
0
11
1940.748031
21
-200.459724
31
0
0
LINE
8
1
10
1738.385827
20
-200.459724
30
0
11
1738.385827
21
-205.184134
31
0
0
LINE
8
1
10
1940.748031
20
-200.459724
30
0
11
1940.748031
21
-205.184134
31
0
0
LINE
8
1
10
1738.385827
20
-205.184134
30
0
11
1940.748031
21
-205.184134
31
0
0
LINE
8
1
10
1646.771654
20
-313.845551
30
0
11
1793.070866
21
-313.845551
31
0
0
LINE
8
1
10
1646.771654
20
-313.845551
30
0
11
1646.771654
21
-318.569961
31
0
0
LINE
8
1
10
1793.070866
20
-313.845551
30
0
11
1793.070866
21
-318.569961
31
0
0
LINE
8
1
10
1646.771654
20
-318.569961
30
0
11
1793.070866
21
-318.569961
31
0
0
LINE
8
1
10
1886.062992
20
-238.255000
30
0
11
1988.228346
21
-238.255000
31
0
0
LINE
8
1
10
1886.062992
20
-238.255000
30
0
11
1886.062992
21
-242.979409
31
0
0
LINE
8
1
10
1988.228346
20
-238.255000
30
0
11
1988.228346
21
-242.979409
31
0
0
LINE
8
1
10
1886.062992
20
-242.979409
30
0
11
1988.228346
21
-242.979409
31
0
0
LINE
8
1
10
1637.322835
20
-367.428228
30
0
11
2041.811024
21
-367.428228
31
0
0
LINE
8
1
10
1637.322835
20
-367.428228
30
0
11
1637.322835
21
-372.152638
31
0
0
LINE
8
1
10
2041.811024
20
-367.428228
30
0
11
2041.811024
21
-372.152638
31
0
0
LINE
8
1
10
1637.322835
20
-372.152638
30
0
11
2041.811024
21
-372.152638
31
0
0
LINE
8
1
10
1655.984252
20
-290.223504
30
0
11
1793.070866
21
-290.223504
31
0
0
LINE
8
1
10
1655.984252
20
-290.223504
30
0
11
1655.984252
21
-294.947913
31
0
0
LINE
8
1
10
1793.070866
20
-290.223504
30
0
11
1793.070866
21
-294.947913
31
0
0
LINE
8
1
10
1655.984252
20
-294.947913
30
0
11
1793.070866
21
-294.947913
31
0
0
LINE
8
1
10
1773.031496
20
-184.711693
30
0
11
1906.102362
21
-184.711693
31
0
0
LINE
8
1
10
1773.031496
20
-184.711693
30
0
11
1773.031496
21
-189.436102
31
0
0
LINE
8
1
10
1906.102362
20
-184.711693
30
0
11
1906.102362
21
-189.436102
31
0
0
LINE
8
1
10
1773.031496
20
-189.436102
30
0
11
1906.102362
21
-189.436102
31
0
0
LINE
8
1
10
1700.275591
20
-228.806181
30
0
11
1793.070866
21
-228.806181
31
0
0
LINE
8
1
10
1700.275591
20
-228.806181
30
0
11
1700.275591
21
-233.530591
31
0
0
LINE
8
1
10
1793.070866
20
-228.806181
30
0
11
1793.070866
21
-233.530591
31
0
0
LINE
8
1
10
1700.275591
20
-233.530591
30
0
11
1793.070866
21
-233.530591
31
0
0
LINE
8
1
10
1661.535433
20
-279.199882
30
0
11
1793.070866
21
-279.199882
31
0
0
LINE
8
1
10
1661.535433
20
-279.199882
30
0
11
1661.535433
21
-283.924291
31
0
0
LINE
8
1
10
1793.070866
20
-279.199882
30
0
11
1793.070866
21
-283.924291
31
0
0
LINE
8
1
10
1661.535433
20
-283.924291
30
0
11
1793.070866
21
-283.924291
31
0
0
LINE
8
1
10
1695.433071
20
-233.530591
30
0
11
1793.070866
21
-233.530591
31
0
0
LINE
8
1
10
1695.433071
20
-233.530591
30
0
11
1695.433071
21
-238.255000
31
0
0
LINE
8
1
10
1793.070866
20
-233.530591
30
0
11
1793.070866
21
-238.255000
31
0
0
LINE
8
1
10
1695.433071
20
-238.255000
30
0
11
1793.070866
21
-238.255000
31
0
0
LINE
8
1
10
1886.062992
20
-318.569961
30
0
11
2033.818898
21
-318.569961
31
0
0
LINE
8
1
10
1886.062992
20
-318.569961
30
0
11
1886.062992
21
-323.294370
31
0
0
LINE
8
1
10
2033.818898
20
-318.569961
30
0
11
2033.818898
21
-323.294370
31
0
0
LINE
8
1
10
1886.062992
20
-323.294370
30
0
11
2033.818898
21
-323.294370
31
0
0
LINE
8
1
10
1659.055118
20
-283.924291
30
0
11
1793.070866
21
-283.924291
31
0
0
LINE
8
1
10
1659.055118
20
-283.924291
30
0
11
1659.055118
21
-288.648701
31
0
0
LINE
8
1
10
1793.070866
20
-283.924291
30
0
11
1793.070866
21
-288.648701
31
0
0
LINE
8
1
10
1659.055118
20
-288.648701
30
0
11
1793.070866
21
-288.648701
31
0
0
LINE
8
1
10
1886.062992
20
-277.625079
30
0
11
2016.732283
21
-277.625079
31
0
0
LINE
8
1
10
1886.062992
20
-277.625079
30
0
11
1886.062992
21
-282.349488
31
0
0
LINE
8
1
10
2016.732283
20
-277.625079
30
0
11
2016.732283
21
-282.349488
31
0
0
LINE
8
1
10
1886.062992
20
-282.349488
30
0
11
2016.732283
21
-282.349488
31
0
0
LINE
8
1
10
1886.062992
20
-305.971535
30
0
11
2029.645669
21
-305.971535
31
0
0
LINE
8
1
10
1886.062992
20
-305.971535
30
0
11
1886.062992
21
-310.695945
31
0
0
LINE
8
1
10
2029.645669
20
-305.971535
30
0
11
2029.645669
21
-310.695945
31
0
0
LINE
8
1
10
1886.062992
20
-310.695945
30
0
11
2029.645669
21
-310.695945
31
0
0
LINE
8
1
10
1886.062992
20
-244.554213
30
0
11
1993.818898
21
-244.554213
31
0
0
LINE
8
1
10
1886.062992
20
-244.554213
30
0
11
1886.062992
21
-249.278622
31
0
0
LINE
8
1
10
1993.818898
20
-244.554213
30
0
11
1993.818898
21
-249.278622
31
0
0
LINE
8
1
10
1886.062992
20
-249.278622
30
0
11
1993.818898
21
-249.278622
31
0
0
LINE
8
1
10
1648.897638
20
-307.546339
30
0
11
1793.070866
21
-307.546339
31
0
0
LINE
8
1
10
1648.897638
20
-307.546339
30
0
11
1648.897638
21
-312.270748
31
0
0
LINE
8
1
10
1793.070866
20
-307.546339
30
0
11
1793.070866
21
-312.270748
31
0
0
LINE
8
1
10
1648.897638
20
-312.270748
30
0
11
1793.070866
21
-312.270748
31
0
0
LINE
8
1
10
1886.062992
20
-247.703819
30
0
11
1996.456693
21
-247.703819
31
0
0
LINE
8
1
10
1886.062992
20
-247.703819
30
0
11
1886.062992
21
-252.428228
31
0
0
LINE
8
1
10
1996.456693
20
-247.703819
30
0
11
1996.456693
21
-252.428228
31
0
0
LINE
8
1
10
1886.062992
20
-252.428228
30
0
11
1996.456693
21
-252.428228
31
0
0
LINE
8
1
10
1639.173228
20
-346.916417
30
0
11
2039.960630
21
-346.916417
31
0
0
LINE
8
1
10
1639.173228
20
-346.916417
30
0
11
1639.173228
21
-351.640827
31
0
0
LINE
8
1
10
2039.960630
20
-346.916417
30
0
11
2039.960630
21
-351.640827
31
0
0
LINE
8
1
10
1639.173228
20
-351.640827
30
0
11
2039.960630
21
-351.640827
31
0
0
LINE
8
1
10
1649.488189
20
-305.971535
30
0
11
1793.070866
21
-305.971535
31
0
0
LINE
8
1
10
1649.488189
20
-305.971535
30
0
11
1649.488189
21
-310.695945
31
0
0
LINE
8
1
10
1793.070866
20
-305.971535
30
0
11
1793.070866
21
-310.695945
31
0
0
LINE
8
1
10
1649.488189
20
-310.695945
30
0
11
1793.070866
21
-310.695945
31
0
0
LINE
8
1
10
1650.669291
20
-302.821929
30
0
11
1793.070866
21
-302.821929
31
0
0
LINE
8
1
10
1650.669291
20
-302.821929
30
0
11
1650.669291
21
-307.546339
31
0
0
LINE
8
1
10
1793.070866
20
-302.821929
30
0
11
1793.070866
21
-307.546339
31
0
0
LINE
8
1
10
1650.669291
20
-307.546339
30
0
11
1793.070866
21
-307.546339
31
0
0
LINE
8
1
10
1719.094488
20
-213.058150
30
0
11
1960.039370
21
-213.058150
31
0
0
LINE
8
1
10
1719.094488
20
-213.058150
30
0
11
1719.094488
21
-217.782559
31
0
0
LINE
8
1
10
1960.039370
20
-213.058150
30
0
11
1960.039370
21
-217.782559
31
0
0
LINE
8
1
10
1719.094488
20
-217.782559
30
0
11
1960.039370
21
-217.782559
31
0
0
LINE
8
1
10
1667.992126
20
-268.176260
30
0
11
1793.070866
21
-268.176260
31
0
0
LINE
8
1
10
1667.992126
20
-268.176260
30
0
11
1667.992126
21
-272.900669
31
0
0
LINE
8
1
10
1793.070866
20
-268.176260
30
0
11
1793.070866
21
-272.900669
31
0
0
LINE
8
1
10
1667.992126
20
-272.900669
30
0
11
1793.070866
21
-272.900669
31
0
0
LINE
8
1
10
1651.889764
20
-299.672323
30
0
11
1793.070866
21
-299.672323
31
0
0
LINE
8
1
10
1651.889764
20
-299.672323
30
0
11
1651.889764
21
-304.396732
31
0
0
LINE
8
1
10
1793.070866
20
-299.672323
30
0
11
1793.070866
21
-304.396732
31
0
0
LINE
8
1
10
1651.889764
20
-304.396732
30
0
11
1793.070866
21
-304.396732
31
0
0
LINE
8
1
10
1777.755906
20
-183.136890
30
0
11
1901.377953
21
-183.136890
31
0
0
LINE
8
1
10
1777.755906
20
-183.136890
30
0
11
1777.755906
21
-187.861299
31
0
0
LINE
8
1
10
1901.377953
20
-183.136890
30
0
11
1901.377953
21
-187.861299
31
0
0
LINE
8
1
10
1777.755906
20
-187.861299
30
0
11
1901.377953
21
-187.861299
31
0
0
LINE
8
1
10
1637.480315
20
-364.278622
30
0
11
2041.653543
21
-364.278622
31
0
0
LINE
8
1
10
1637.480315
20
-364.278622
30
0
11
1637.480315
21
-369.003031
31
0
0
LINE
8
1
10
2041.653543
20
-364.278622
30
0
11
2041.653543
21
-369.003031
31
0
0
LINE
8
1
10
1637.480315
20
-369.003031
30
0
11
2041.653543
21
-369.003031
31
0
0
LINE
8
1
10
1886.062992
20
-276.050276
30
0
11
2015.826772
21
-276.050276
31
0
0
LINE
8
1
10
1886.062992
20
-276.050276
30
0
11
1886.062992
21
-280.774685
31
0
0
LINE
8
1
10
2015.826772
20
-276.050276
30
0
11
2015.826772
21
-280.774685
31
0
0
LINE
8
1
10
1886.062992
20
-280.774685
30
0
11
2015.826772
21
-280.774685
31
0
0
LINE
8
1
10
1753.543307
20
-192.585709
30
0
11
1925.590551
21
-192.585709
31
0
0
LINE
8
1
10
1753.543307
20
-192.585709
30
0
11
1753.543307
21
-197.310118
31
0
0
LINE
8
1
10
1925.590551
20
-192.585709
30
0
11
1925.590551
21
-197.310118
31
0
0
LINE
8
1
10
1753.543307
20
-197.310118
30
0
11
1925.590551
21
-197.310118
31
0
0
LINE
8
1
10
1712.952756
20
-217.782559
30
0
11
1966.181102
21
-217.782559
31
0
0
LINE
8
1
10
1712.952756
20
-217.782559
30
0
11
1712.952756
21
-222.506969
31
0
0
LINE
8
1
10
1966.181102
20
-217.782559
30
0
11
1966.181102
21
-222.506969
31
0
0
LINE
8
1
10
1712.952756
20
-222.506969
30
0
11
1966.181102
21
-222.506969
31
0
0
LINE
8
1
10
1641.732283
20
-332.743189
30
0
11
2037.401575
21
-332.743189
31
0
0
LINE
8
1
10
1641.732283
20
-332.743189
30
0
11
1641.732283
21
-337.467598
31
0
0
LINE
8
1
10
2037.401575
20
-332.743189
30
0
11
2037.401575
21
-337.467598
31
0
0
LINE
8
1
10
1641.732283
20
-337.467598
30
0
11
2037.401575
21
-337.467598
31
0
0
LINE
8
1
10
1725.787402
20
-208.333740
30
0
11
1953.346457
21
-208.333740
31
0
0
LINE
8
1
10
1725.787402
20
-208.333740
30
0
11
1725.787402
21
-213.058150
31
0
0
LINE
8
1
10
1953.346457
20
-208.333740
30
0
11
1953.346457
21
-213.058150
31
0
0
LINE
8
1
10
1725.787402
20
-213.058150
30
0
11
1953.346457
21
-213.058150
31
0
0
LINE
8
1
10
1644.881890
20
-320.144764
30
0
11
1793.070866
21
-320.144764
31
0
0
LINE
8
1
10
1644.881890
20
-320.144764
30
0
11
1644.881890
21
-324.869173
31
0
0
LINE
8
1
10
1793.070866
20
-320.144764
30
0
11
1793.070866
21
-324.869173
31
0
0
LINE
8
1
10
1644.881890
20
-324.869173
30
0
11
1793.070866
21
-324.869173
31
0
0
LINE
8
1
10
1658.267717
20
-285.499094
30
0
11
1793.070866
21
-285.499094
31
0
0
LINE
8
1
10
1658.267717
20
-285.499094
30
0
11
1658.267717
21
-290.223504
31
0
0
LINE
8
1
10
1793.070866
20
-285.499094
30
0
11
1793.070866
21
-290.223504
31
0
0
LINE
8
1
10
1658.267717
20
-290.223504
30
0
11
1793.070866
21
-290.223504
31
0
0
LINE
8
1
10
1653.858268
20
-294.947913
30
0
11
1793.070866
21
-294.947913
31
0
0
LINE
8
1
10
1653.858268
20
-294.947913
30
0
11
1653.858268
21
-299.672323
31
0
0
LINE
8
1
10
1793.070866
20
-294.947913
30
0
11
1793.070866
21
-299.672323
31
0
0
LINE
8
1
10
1653.858268
20
-299.672323
30
0
11
1793.070866
21
-299.672323
31
0
0
LINE
8
1
10
1744.094488
20
-197.310118
30
0
11
1935.039370
21
-197.310118
31
0
0
LINE
8
1
10
1744.094488
20
-197.310118
30
0
11
1744.094488
21
-202.034528
31
0
0
LINE
8
1
10
1935.039370
20
-197.310118
30
0
11
1935.039370
21
-202.034528
31
0
0
LINE
8
1
10
1744.094488
20
-202.034528
30
0
11
1935.039370
21
-202.034528
31
0
0
LINE
8
1
10
1716.968504
20
-214.632953
30
0
11
1962.165354
21
-214.632953
31
0
0
LINE
8
1
10
1716.968504
20
-214.632953
30
0
11
1716.968504
21
-219.357362
31
0
0
LINE
8
1
10
1962.165354
20
-214.632953
30
0
11
1962.165354
21
-219.357362
31
0
0
LINE
8
1
10
1716.968504
20
-219.357362
30
0
11
1962.165354
21
-219.357362
31
0
0
LINE
8
1
10
1886.062992
20
-263.451850
30
0
11
2008.110236
21
-263.451850
31
0
0
LINE
8
1
10
1886.062992
20
-263.451850
30
0
11
1886.062992
21
-268.176260
31
0
0
LINE
8
1
10
2008.110236
20
-263.451850
30
0
11
2008.110236
21
-268.176260
31
0
0
LINE
8
1
10
1886.062992
20
-268.176260
30
0
11
2008.110236
21
-268.176260
31
0
0
LINE
8
1
10
1886.062992
20
-280.774685
30
0
11
2018.425197
21
-280.774685
31
0
0
LINE
8
1
10
1886.062992
20
-280.774685
30
0
11
1886.062992
21
-285.499094
31
0
0
LINE
8
1
10
2018.425197
20
-280.774685
30
0
11
2018.425197
21
-285.499094
31
0
0
LINE
8
1
10
1886.062992
20
-285.499094
30
0
11
2018.425197
21
-285.499094
31
0
0
LINE
8
1
10
1638.385827
20
-353.255000
30
0
11
2040.748031
21
-353.255000
31
0
0
LINE
8
1
10
1638.385827
20
-353.255000
30
0
11
1638.385827
21
-357.979409
31
0
0
LINE
8
1
10
2040.748031
20
-353.255000
30
0
11
2040.748031
21
-357.979409
31
0
0
LINE
8
1
10
1638.385827
20
-357.979409
30
0
11
2040.748031
21
-357.979409
31
0
0
LINE
8
1
10
1637.244094
20
-370.577835
30
0
11
2041.889764
21
-370.577835
31
0
0
LINE
8
1
10
1637.244094
20
-370.577835
30
0
11
1637.244094
21
-375.302244
31
0
0
LINE
8
1
10
2041.889764
20
-370.577835
30
0
11
2041.889764
21
-375.302244
31
0
0
LINE
8
1
10
1637.244094
20
-375.302244
30
0
11
2041.889764
21
-375.302244
31
0
0
LINE
8
1
10
1668.976378
20
-266.601457
30
0
11
1793.070866
21
-266.601457
31
0
0
LINE
8
1
10
1668.976378
20
-266.601457
30
0
11
1668.976378
21
-271.325866
31
0
0
LINE
8
1
10
1793.070866
20
-266.601457
30
0
11
1793.070866
21
-271.325866
31
0
0
LINE
8
1
10
1668.976378
20
-271.325866
30
0
11
1793.070866
21
-271.325866
31
0
0
LINE
8
1
10
1644.409449
20
-321.719567
30
0
11
1793.070866
21
-321.719567
31
0
0
LINE
8
1
10
1644.409449
20
-321.719567
30
0
11
1644.409449
21
-326.443976
31
0
0
LINE
8
1
10
1793.070866
20
-321.719567
30
0
11
1793.070866
21
-326.443976
31
0
0
LINE
8
1
10
1644.409449
20
-326.443976
30
0
11
1793.070866
21
-326.443976
31
0
0
LINE
8
1
10
1683.976378
20
-246.129016
30
0
11
1793.070866
21
-246.129016
31
0
0
LINE
8
1
10
1683.976378
20
-246.129016
30
0
11
1683.976378
21
-250.853425
31
0
0
LINE
8
1
10
1793.070866
20
-246.129016
30
0
11
1793.070866
21
-250.853425
31
0
0
LINE
8
1
10
1683.976378
20
-250.853425
30
0
11
1793.070866
21
-250.853425
31
0
0
LINE
8
1
10
1639.645669
20
-343.766811
30
0
11
2039.488189
21
-343.766811
31
0
0
LINE
8
1
10
1639.645669
20
-343.766811
30
0
11
1639.645669
21
-348.491220
31
0
0
LINE
8
1
10
2039.488189
20
-343.766811
30
0
11
2039.488189
21
-348.491220
31
0
0
LINE
8
1
10
1639.645669
20
-348.491220
30
0
11
2039.488189
21
-348.491220
31
0
0
LINE
8
1
10
1886.062992
20
-233.530591
30
0
11
1983.700787
21
-233.530591
31
0
0
LINE
8
1
10
1886.062992
20
-233.530591
30
0
11
1886.062992
21
-238.255000
31
0
0
LINE
8
1
10
1983.700787
20
-233.530591
30
0
11
1983.700787
21
-238.255000
31
0
0
LINE
8
1
10
1886.062992
20
-238.255000
30
0
11
1983.700787
21
-238.255000
31
0
0
LINE
8
1
10
1735.669291
20
-202.034528
30
0
11
1943.464567
21
-202.034528
31
0
0
LINE
8
1
10
1735.669291
20
-202.034528
30
0
11
1735.669291
21
-206.758937
31
0
0
LINE
8
1
10
1943.464567
20
-202.034528
30
0
11
1943.464567
21
-206.758937
31
0
0
LINE
8
1
10
1735.669291
20
-206.758937
30
0
11
1943.464567
21
-206.758937
31
0
0
LINE
8
1
10
1690.905512
20
-238.255000
30
0
11
1793.070866
21
-238.255000
31
0
0
LINE
8
1
10
1690.905512
20
-238.255000
30
0
11
1690.905512
21
-242.979409
31
0
0
LINE
8
1
10
1793.070866
20
-238.255000
30
0
11
1793.070866
21
-242.979409
31
0
0
LINE
8
1
10
1690.905512
20
-242.979409
30
0
11
1793.070866
21
-242.979409
31
0
0
LINE
8
1
10
1886.062992
20
-321.719567
30
0
11
2034.724409
21
-321.719567
31
0
0
LINE
8
1
10
1886.062992
20
-321.719567
30
0
11
1886.062992
21
-326.443976
31
0
0
LINE
8
1
10
2034.724409
20
-321.719567
30
0
11
2034.724409
21
-326.443976
31
0
0
LINE
8
1
10
1886.062992
20
-326.443976
30
0
11
2034.724409
21
-326.443976
31
0
0
LINE
8
1
10
1642.795276
20
-328.018780
30
0
11
2036.338583
21
-328.018780
31
0
0
LINE
8
1
10
1642.795276
20
-328.018780
30
0
11
1642.795276
21
-332.743189
31
0
0
LINE
8
1
10
2036.338583
20
-328.018780
30
0
11
2036.338583
21
-332.743189
31
0
0
LINE
8
1
10
1642.795276
20
-332.743189
30
0
11
2036.338583
21
-332.743189
31
0
0
LINE
8
1
10
1677.755906
20
-254.003031
30
0
11
1793.070866
21
-254.003031
31
0
0
LINE
8
1
10
1677.755906
20
-254.003031
30
0
11
1677.755906
21
-258.727441
31
0
0
LINE
8
1
10
1793.070866
20
-254.003031
30
0
11
1793.070866
21
-258.727441
31
0
0
LINE
8
1
10
1677.755906
20
-258.727441
30
0
11
1793.070866
21
-258.727441
31
0
0
LINE
8
1
10
1692.362205
20
-236.680197
30
0
11
1793.070866
21
-236.680197
31
0
0
LINE
8
1
10
1692.362205
20
-236.680197
30
0
11
1692.362205
21
-241.404606
31
0
0
LINE
8
1
10
1793.070866
20
-236.680197
30
0
11
1793.070866
21
-241.404606
31
0
0
LINE
8
1
10
1692.362205
20
-241.404606
30
0
11
1793.070866
21
-241.404606
31
0
0
LINE
8
1
10
1714.921260
20
-216.207756
30
0
11
1964.212598
21
-216.207756
31
0
0
LINE
8
1
10
1714.921260
20
-216.207756
30
0
11
1714.921260
21
-220.932165
31
0
0
LINE
8
1
10
1964.212598
20
-216.207756
30
0
11
1964.212598
21
-220.932165
31
0
0
LINE
8
1
10
1714.921260
20
-220.932165
30
0
11
1964.212598
21
-220.932165
31
0
0
LINE
8
1
10
1886.062992
20
-304.396732
30
0
11
2029.094488
21
-304.396732
31
0
0
LINE
8
1
10
1886.062992
20
-304.396732
30
0
11
1886.062992
21
-309.121142
31
0
0
LINE
8
1
10
2029.094488
20
-304.396732
30
0
11
2029.094488
21
-309.121142
31
0
0
LINE
8
1
10
1886.062992
20
-309.121142
30
0
11
2029.094488
21
-309.121142
31
0
0
LINE
8
1
10
1641.377953
20
-334.317992
30
0
11
2037.755906
21
-334.317992
31
0
0
LINE
8
1
10
1641.377953
20
-334.317992
30
0
11
1641.377953
21
-339.042402
31
0
0
LINE
8
1
10
2037.755906
20
-334.317992
30
0
11
2037.755906
21
-339.042402
31
0
0
LINE
8
1
10
1641.377953
20
-339.042402
30
0
11
2037.755906
21
-339.042402
31
0
0
LINE
8
1
10
1886.062992
20
-320.144764
30
0
11
2034.251969
21
-320.144764
31
0
0
LINE
8
1
10
1886.062992
20
-320.144764
30
0
11
1886.062992
21
-324.869173
31
0
0
LINE
8
1
10
2034.251969
20
-320.144764
30
0
11
2034.251969
21
-324.869173
31
0
0
LINE
8
1
10
1886.062992
20
-324.869173
30
0
11
2034.251969
21
-324.869173
31
0
0
LINE
8
1
10
1886.062992
20
-279.199882
30
0
11
2017.598425
21
-279.199882
31
0
0
LINE
8
1
10
1886.062992
20
-279.199882
30
0
11
1886.062992
21
-283.924291
31
0
0
LINE
8
1
10
2017.598425
20
-279.199882
30
0
11
2017.598425
21
-283.924291
31
0
0
LINE
8
1
10
1886.062992
20
-283.924291
30
0
11
2017.598425
21
-283.924291
31
0
0
LINE
8
1
10
1795.393701
20
-178.412480
30
0
11
1883.740157
21
-178.412480
31
0
0
LINE
8
1
10
1795.393701
20
-178.412480
30
0
11
1795.393701
21
-183.136890
31
0
0
LINE
8
1
10
1883.740157
20
-178.412480
30
0
11
1883.740157
21
-183.136890
31
0
0
LINE
8
1
10
1795.393701
20
-183.136890
30
0
11
1883.740157
21
-183.136890
31
0
0
LINE
8
1
10
1641.062992
20
-335.892795
30
0
11
2038.070866
21
-335.892795
31
0
0
LINE
8
1
10
1641.062992
20
-335.892795
30
0
11
1641.062992
21
-340.617205
31
0
0
LINE
8
1
10
2038.070866
20
-335.892795
30
0
11
2038.070866
21
-340.617205
31
0
0
LINE
8
1
10
1641.062992
20
-340.617205
30
0
11
2038.070866
21
-340.617205
31
0
0
LINE
8
1
10
1886.062992
20
-272.900669
30
0
11
2014.015748
21
-272.900669
31
0
0
LINE
8
1
10
1886.062992
20
-272.900669
30
0
11
1886.062992
21
-277.625079
31
0
0
LINE
8
1
10
2014.015748
20
-272.900669
30
0
11
2014.015748
21
-277.625079
31
0
0
LINE
8
1
10
1886.062992
20
-277.625079
30
0
11
2014.015748
21
-277.625079
31
0
0
LINE
8
1
10
1741.181102
20
-198.884921
30
0
11
1937.952756
21
-198.884921
31
0
0
LINE
8
1
10
1741.181102
20
-198.884921
30
0
11
1741.181102
21
-203.609331
31
0
0
LINE
8
1
10
1937.952756
20
-198.884921
30
0
11
1937.952756
21
-203.609331
31
0
0
LINE
8
1
10
1741.181102
20
-203.609331
30
0
11
1937.952756
21
-203.609331
31
0
0
LINE
8
1
10
1637.204724
20
-375.302244
30
0
11
2041.929134
21
-375.302244
31
0
0
LINE
8
1
10
1637.204724
20
-375.302244
30
0
11
1637.204724
21
-380.026654
31
0
0
LINE
8
1
10
2041.929134
20
-375.302244
30
0
11
2041.929134
21
-380.026654
31
0
0
LINE
8
1
10
1637.204724
20
-380.026654
30
0
11
2041.929134
21
-380.026654
31
0
0
LINE
8
1
10
1886.062992
20
-316.995157
30
0
11
2033.346457
21
-316.995157
31
0
0
LINE
8
1
10
1886.062992
20
-316.995157
30
0
11
1886.062992
21
-321.719567
31
0
0
LINE
8
1
10
2033.346457
20
-316.995157
30
0
11
2033.346457
21
-321.719567
31
0
0
LINE
8
1
10
1886.062992
20
-321.719567
30
0
11
2033.346457
21
-321.719567
31
0
0
LINE
8
1
10
1788.779528
20
-179.987283
30
0
11
1890.354331
21
-179.987283
31
0
0
LINE
8
1
10
1788.779528
20
-179.987283
30
0
11
1788.779528
21
-184.711693
31
0
0
LINE
8
1
10
1890.354331
20
-179.987283
30
0
11
1890.354331
21
-184.711693
31
0
0
LINE
8
1
10
1788.779528
20
-184.711693
30
0
11
1890.354331
21
-184.711693
31
0
0
LINE
8
1
10
1637.401575
20
-365.853425
30
0
11
2041.732283
21
-365.853425
31
0
0
LINE
8
1
10
1637.401575
20
-365.853425
30
0
11
1637.401575
21
-370.577835
31
0
0
LINE
8
1
10
2041.732283
20
-365.853425
30
0
11
2041.732283
21
-370.577835
31
0
0
LINE
8
1
10
1637.401575
20
-370.577835
30
0
11
2041.732283
21
-370.577835
31
0
0
LINE
8
1
10
1886.062992
20
-287.073898
30
0
11
2021.614173
21
-287.073898
31
0
0
LINE
8
1
10
1886.062992
20
-287.073898
30
0
11
1886.062992
21
-291.798307
31
0
0
LINE
8
1
10
2021.614173
20
-287.073898
30
0
11
2021.614173
21
-291.798307
31
0
0
LINE
8
1
10
1886.062992
20
-291.798307
30
0
11
2021.614173
21
-291.798307
31
0
0
LINE
8
1
10
1760.669291
20
-189.436102
30
0
11
1918.464567
21
-189.436102
31
0
0
LINE
8
1
10
1760.669291
20
-189.436102
30
0
11
1760.669291
21
-194.160512
31
0
0
LINE
8
1
10
1918.464567
20
-189.436102
30
0
11
1918.464567
21
-194.160512
31
0
0
LINE
8
1
10
1760.669291
20
-194.160512
30
0
11
1918.464567
21
-194.160512
31
0
0
LINE
8
1
10
1675.393701
20
-257.152638
30
0
11
1793.070866
21
-257.152638
31
0
0
LINE
8
1
10
1675.393701
20
-257.152638
30
0
11
1675.393701
21
-261.877047
31
0
0
LINE
8
1
10
1793.070866
20
-257.152638
30
0
11
1793.070866
21
-261.877047
31
0
0
LINE
8
1
10
1675.393701
20
-261.877047
30
0
11
1793.070866
21
-261.877047
31
0
0
LINE
8
1
10
1660.708661
20
-280.774685
30
0
11
1793.070866
21
-280.774685
31
0
0
LINE
8
1
10
1660.708661
20
-280.774685
30
0
11
1660.708661
21
-285.499094
31
0
0
LINE
8
1
10
1793.070866
20
-280.774685
30
0
11
1793.070866
21
-285.499094
31
0
0
LINE
8
1
10
1660.708661
20
-285.499094
30
0
11
1793.070866
21
-285.499094
31
0
0
LINE
8
1
10
1705.433071
20
-224.081772
30
0
11
1973.700787
21
-224.081772
31
0
0
LINE
8
1
10
1705.433071
20
-224.081772
30
0
11
1705.433071
21
-228.806181
31
0
0
LINE
8
1
10
1973.700787
20
-224.081772
30
0
11
1973.700787
21
-228.806181
31
0
0
LINE
8
1
10
1705.433071
20
-228.806181
30
0
11
1973.700787
21
-228.806181
31
0
0
LINE
8
1
10
1686.653543
20
-242.979409
30
0
11
1793.070866
21
-242.979409
31
0
0
LINE
8
1
10
1686.653543
20
-242.979409
30
0
11
1686.653543
21
-247.703819
31
0
0
LINE
8
1
10
1793.070866
20
-242.979409
30
0
11
1793.070866
21
-247.703819
31
0
0
LINE
8
1
10
1686.653543
20
-247.703819
30
0
11
1793.070866
21
-247.703819
31
0
0
LINE
8
1
10
1803.267717
20
-176.837677
30
0
11
1875.866142
21
-176.837677
31
0
0
LINE
8
1
10
1803.267717
20
-176.837677
30
0
11
1803.267717
21
-181.562087
31
0
0
LINE
8
1
10
1875.866142
20
-176.837677
30
0
11
1875.866142
21
-181.562087
31
0
0
LINE
8
1
10
1803.267717
20
-181.562087
30
0
11
1875.866142
21
-181.562087
31
0
0
LINE
8
1
10
1638.070866
20
-356.404606
30
0
11
2041.062992
21
-356.404606
31
0
0
LINE
8
1
10
1638.070866
20
-356.404606
30
0
11
1638.070866
21
-361.129016
31
0
0
LINE
8
1
10
2041.062992
20
-356.404606
30
0
11
2041.062992
21
-361.129016
31
0
0
LINE
8
1
10
1638.070866
20
-361.129016
30
0
11
2041.062992
21
-361.129016
31
0
0
LINE
8
1
10
1681.417323
20
-249.278622
30
0
11
1793.070866
21
-249.278622
31
0
0
LINE
8
1
10
1681.417323
20
-249.278622
30
0
11
1681.417323
21
-254.003031
31
0
0
LINE
8
1
10
1793.070866
20
-249.278622
30
0
11
1793.070866
21
-254.003031
31
0
0
LINE
8
1
10
1681.417323
20
-254.003031
30
0
11
1793.070866
21
-254.003031
31
0
0
LINE
8
1
10
1886.062992
20
-271.325866
30
0
11
2013.070866
21
-271.325866
31
0
0
LINE
8
1
10
1886.062992
20
-271.325866
30
0
11
1886.062992
21
-276.050276
31
0
0
LINE
8
1
10
2013.070866
20
-271.325866
30
0
11
2013.070866
21
-276.050276
31
0
0
LINE
8
1
10
1886.062992
20
-276.050276
30
0
11
2013.070866
21
-276.050276
31
0
0
LINE
8
1
10
1638.582677
20
-351.680197
30
0
11
2040.551181
21
-351.680197
31
0
0
LINE
8
1
10
1638.582677
20
-351.680197
30
0
11
1638.582677
21
-356.404606
31
0
0
LINE
8
1
10
2040.551181
20
-351.680197
30
0
11
2040.551181
21
-356.404606
31
0
0
LINE
8
1
10
1638.582677
20
-356.404606
30
0
11
2040.551181
21
-356.404606
31
0
0
LINE
8
1
10
1671.023622
20
-263.451850
30
0
11
1793.070866
21
-263.451850
31
0
0
LINE
8
1
10
1671.023622
20
-263.451850
30
0
11
1671.023622
21
-268.176260
31
0
0
LINE
8
1
10
1793.070866
20
-263.451850
30
0
11
1793.070866
21
-268.176260
31
0
0
LINE
8
1
10
1671.023622
20
-268.176260
30
0
11
1793.070866
21
-268.176260
31
0
0
LINE
8
1
10
1886.062992
20
-294.947913
30
0
11
2025.275591
21
-294.947913
31
0
0
LINE
8
1
10
1886.062992
20
-294.947913
30
0
11
1886.062992
21
-299.672323
31
0
0
LINE
8
1
10
2025.275591
20
-294.947913
30
0
11
2025.275591
21
-299.672323
31
0
0
LINE
8
1
10
1886.062992
20
-299.672323
30
0
11
2025.275591
21
-299.672323
31
0
0
LINE
8
1
10
1640.748031
20
-337.467598
30
0
11
2038.385827
21
-337.467598
31
0
0
LINE
8
1
10
1640.748031
20
-337.467598
30
0
11
1640.748031
21
-342.192008
31
0
0
LINE
8
1
10
2038.385827
20
-337.467598
30
0
11
2038.385827
21
-342.192008
31
0
0
LINE
8
1
10
1640.748031
20
-342.192008
30
0
11
2038.385827
21
-342.192008
31
0
0
LINE
8
1
10
1644.015748
20
-323.294370
30
0
11
1793.070866
21
-323.294370
31
0
0
LINE
8
1
10
1644.015748
20
-323.294370
30
0
11
1644.015748
21
-328.018780
31
0
0
LINE
8
1
10
1793.070866
20
-323.294370
30
0
11
1793.070866
21
-328.018780
31
0
0
LINE
8
1
10
1644.015748
20
-328.018780
30
0
11
1793.070866
21
-328.018780
31
0
0
LINE
8
1
10
1664.173228
20
-274.475472
30
0
11
1793.070866
21
-274.475472
31
0
0
LINE
8
1
10
1664.173228
20
-274.475472
30
0
11
1664.173228
21
-279.199882
31
0
0
LINE
8
1
10
1793.070866
20
-274.475472
30
0
11
1793.070866
21
-279.199882
31
0
0
LINE
8
1
10
1664.173228
20
-279.199882
30
0
11
1793.070866
21
-279.199882
31
0
0
LINE
8
1
10
1886.062992
20
-258.727441
30
0
11
2004.842520
21
-258.727441
31
0
0
LINE
8
1
10
1886.062992
20
-258.727441
30
0
11
1886.062992
21
-263.451850
31
0
0
LINE
8
1
10
2004.842520
20
-258.727441
30
0
11
2004.842520
21
-263.451850
31
0
0
LINE
8
1
10
1886.062992
20
-263.451850
30
0
11
2004.842520
21
-263.451850
31
0
0
LINE
8
1
10
1886.062992
20
-310.695945
30
0
11
2031.338583
21
-310.695945
31
0
0
LINE
8
1
10
1886.062992
20
-310.695945
30
0
11
1886.062992
21
-315.420354
31
0
0
LINE
8
1
10
2031.338583
20
-310.695945
30
0
11
2031.338583
21
-315.420354
31
0
0
LINE
8
1
10
1886.062992
20
-315.420354
30
0
11
2031.338583
21
-315.420354
31
0
0
LINE
8
1
10
1886.062992
20
-313.845551
30
0
11
2032.362205
21
-313.845551
31
0
0
LINE
8
1
10
1886.062992
20
-313.845551
30
0
11
1886.062992
21
-318.569961
31
0
0
LINE
8
1
10
2032.362205
20
-313.845551
30
0
11
2032.362205
21
-318.569961
31
0
0
LINE
8
1
10
1886.062992
20
-318.569961
30
0
11
2032.362205
21
-318.569961
31
0
0
LINE
8
1
10
1652.559055
20
-298.097520
30
0
11
1793.070866
21
-298.097520
31
0
0
LINE
8
1
10
1652.559055
20
-298.097520
30
0
11
1652.559055
21
-302.821929
31
0
0
LINE
8
1
10
1793.070866
20
-298.097520
30
0
11
1793.070866
21
-302.821929
31
0
0
LINE
8
1
10
1652.559055
20
-302.821929
30
0
11
1793.070866
21
-302.821929
31
0
0
LINE
8
1
10
1639.921260
20
-342.192008
30
0
11
2039.212598
21
-342.192008
31
0
0
LINE
8
1
10
1639.921260
20
-342.192008
30
0
11
1639.921260
21
-346.916417
31
0
0
LINE
8
1
10
2039.212598
20
-342.192008
30
0
11
2039.212598
21
-346.916417
31
0
0
LINE
8
1
10
1639.921260
20
-346.916417
30
0
11
2039.212598
21
-346.916417
31
0
0
LINE
8
1
10
1703.661417
20
-225.656575
30
0
11
1975.472441
21
-225.656575
31
0
0
LINE
8
1
10
1703.661417
20
-225.656575
30
0
11
1703.661417
21
-230.380984
31
0
0
LINE
8
1
10
1975.472441
20
-225.656575
30
0
11
1975.472441
21
-230.380984
31
0
0
LINE
8
1
10
1703.661417
20
-230.380984
30
0
11
1975.472441
21
-230.380984
31
0
0
LINE
8
1
10
1750.236220
20
-194.160512
30
0
11
1928.897638
21
-194.160512
31
0
0
LINE
8
1
10
1750.236220
20
-194.160512
30
0
11
1750.236220
21
-198.884921
31
0
0
LINE
8
1
10
1928.897638
20
-194.160512
30
0
11
1928.897638
21
-198.884921
31
0
0
LINE
8
1
10
1750.236220
20
-198.884921
30
0
11
1928.897638
21
-198.884921
31
0
0
LINE
8
1
10
1688.031496
20
-241.404606
30
0
11
1793.070866
21
-241.404606
31
0
0
LINE
8
1
10
1688.031496
20
-241.404606
30
0
11
1688.031496
21
-246.129016
31
0
0
LINE
8
1
10
1793.070866
20
-241.404606
30
0
11
1793.070866
21
-246.129016
31
0
0
LINE
8
1
10
1688.031496
20
-246.129016
30
0
11
1793.070866
21
-246.129016
31
0
0
LINE
8
1
10
1886.062992
20
-252.428228
30
0
11
2000.196850
21
-252.428228
31
0
0
LINE
8
1
10
1886.062992
20
-252.428228
30
0
11
1886.062992
21
-257.152638
31
0
0
LINE
8
1
10
2000.196850
20
-252.428228
30
0
11
2000.196850
21
-257.152638
31
0
0
LINE
8
1
10
1886.062992
20
-257.152638
30
0
11
2000.196850
21
-257.152638
31
0
0
LINE
8
1
10
1757.007874
20
-191.010906
30
0
11
1922.125984
21
-191.010906
31
0
0
LINE
8
1
10
1757.007874
20
-191.010906
30
0
11
1757.007874
21
-195.735315
31
0
0
LINE
8
1
10
1922.125984
20
-191.010906
30
0
11
1922.125984
21
-195.735315
31
0
0
LINE
8
1
10
1757.007874
20
-195.735315
30
0
11
1922.125984
21
-195.735315
31
0
0
LINE
8
1
10
1648.346457
20
-309.121142
30
0
11
1793.070866
21
-309.121142
31
0
0
LINE
8
1
10
1648.346457
20
-309.121142
30
0
11
1648.346457
21
-313.845551
31
0
0
LINE
8
1
10
1793.070866
20
-309.121142
30
0
11
1793.070866
21
-313.845551
31
0
0
LINE
8
1
10
1648.346457
20
-313.845551
30
0
11
1793.070866
21
-313.845551
31
0
0
LINE
8
1
10
1886.062992
20
-269.751063
30
0
11
2012.125984
21
-269.751063
31
0
0
LINE
8
1
10
1886.062992
20
-269.751063
30
0
11
1886.062992
21
-274.475472
31
0
0
LINE
8
1
10
2012.125984
20
-269.751063
30
0
11
2012.125984
21
-274.475472
31
0
0
LINE
8
1
10
1886.062992
20
-274.475472
30
0
11
2012.125984
21
-274.475472
31
0
0
LINE
8
1
10
1886.062992
20
-241.404606
30
0
11
1991.102362
21
-241.404606
31
0
0
LINE
8
1
10
1886.062992
20
-241.404606
30
0
11
1886.062992
21
-246.129016
31
0
0
LINE
8
1
10
1991.102362
20
-241.404606
30
0
11
1991.102362
21
-246.129016
31
0
0
LINE
8
1
10
1886.062992
20
-246.129016
30
0
11
1991.102362
21
-246.129016
31
0
0
LINE
8
1
10
1886.062992
20
-228.806181
30
0
11
1978.858268
21
-228.806181
31
0
0
LINE
8
1
10
1886.062992
20
-228.806181
30
0
11
1886.062992
21
-233.530591
31
0
0
LINE
8
1
10
1978.858268
20
-228.806181
30
0
11
1978.858268
21
-233.530591
31
0
0
LINE
8
1
10
1886.062992
20
-233.530591
30
0
11
1978.858268
21
-233.530591
31
0
0
LINE
8
1
10
1728.149606
20
-206.758937
30
0
11
1950.984252
21
-206.758937
31
0
0
LINE
8
1
10
1728.149606
20
-206.758937
30
0
11
1728.149606
21
-211.483346
31
0
0
LINE
8
1
10
1950.984252
20
-206.758937
30
0
11
1950.984252
21
-211.483346
31
0
0
LINE
8
1
10
1728.149606
20
-211.483346
30
0
11
1950.984252
21
-211.483346
31
0
0
LINE
8
1
10
1651.259843
20
-301.247126
30
0
11
1793.070866
21
-301.247126
31
0
0
LINE
8
1
10
1651.259843
20
-301.247126
30
0
11
1651.259843
21
-305.971535
31
0
0
LINE
8
1
10
1793.070866
20
-301.247126
30
0
11
1793.070866
21
-305.971535
31
0
0
LINE
8
1
10
1651.259843
20
-305.971535
30
0
11
1793.070866
21
-305.971535
31
0
0
LINE
8
1
10
1886.062992
20
-291.798307
30
0
11
2023.858268
21
-291.798307
31
0
0
LINE
8
1
10
1886.062992
20
-291.798307
30
0
11
1886.062992
21
-296.522717
31
0
0
LINE
8
1
10
2023.858268
20
-291.798307
30
0
11
2023.858268
21
-296.522717
31
0
0
LINE
8
1
10
1886.062992
20
-296.522717
30
0
11
2023.858268
21
-296.522717
31
0
0
LINE
8
1
10
1886.062992
20
-309.121142
30
0
11
2030.787402
21
-309.121142
31
0
0
LINE
8
1
10
1886.062992
20
-309.121142
30
0
11
1886.062992
21
-313.845551
31
0
0
LINE
8
1
10
2030.787402
20
-309.121142
30
0
11
2030.787402
21
-313.845551
31
0
0
LINE
8
1
10
1886.062992
20
-313.845551
30
0
11
2030.787402
21
-313.845551
31
0
0
LINE
8
1
10
1642.440945
20
-329.593583
30
0
11
2036.692913
21
-329.593583
31
0
0
LINE
8
1
10
1642.440945
20
-329.593583
30
0
11
1642.440945
21
-334.317992
31
0
0
LINE
8
1
10
2036.692913
20
-329.593583
30
0
11
2036.692913
21
-334.317992
31
0
0
LINE
8
1
10
1642.440945
20
-334.317992
30
0
11
2036.692913
21
-334.317992
31
0
0
LINE
8
1
10
1710.984252
20
-219.357362
30
0
11
1968.149606
21
-219.357362
31
0
0
LINE
8
1
10
1710.984252
20
-219.357362
30
0
11
1710.984252
21
-224.081772
31
0
0
LINE
8
1
10
1968.149606
20
-219.357362
30
0
11
1968.149606
21
-224.081772
31
0
0
LINE
8
1
10
1710.984252
20
-224.081772
30
0
11
1968.149606
21
-224.081772
31
0
0
LINE
8
1
10
1886.062992
20
-285.499094
30
0
11
2020.866142
21
-285.499094
31
0
0
LINE
8
1
10
1886.062992
20
-285.499094
30
0
11
1886.062992
21
-290.223504
31
0
0
LINE
8
1
10
2020.866142
20
-285.499094
30
0
11
2020.866142
21
-290.223504
31
0
0
LINE
8
1
10
1886.062992
20
-290.223504
30
0
11
2020.866142
21
-290.223504
31
0
0
LINE
8
1
10
1676.574803
20
-255.577835
30
0
11
1793.070866
21
-255.577835
31
0
0
LINE
8
1
10
1676.574803
20
-255.577835
30
0
11
1676.574803
21
-260.302244
31
0
0
LINE
8
1
10
1793.070866
20
-255.577835
30
0
11
1793.070866
21
-260.302244
31
0
0
LINE
8
1
10
1676.574803
20
-260.302244
30
0
11
1793.070866
21
-260.302244
31
0
0
LINE
8
1
10
1704.330709
20
-571.351299
30
0
11
1748.425197
21
-571.351299
31
0
0
LINE
8
1
10
1704.330709
20
-571.351299
30
0
11
1704.330709
21
-576.075709
31
0
0
LINE
8
1
10
1748.425197
20
-571.351299
30
0
11
1748.425197
21
-576.075709
31
0
0
LINE
8
1
10
1704.330709
20
-576.075709
30
0
11
1748.425197
21
-576.075709
31
0
0
LINE
8
1
10
1886.062992
20
-231.955787
30
0
11
1982.125984
21
-231.955787
31
0
0
LINE
8
1
10
1886.062992
20
-231.955787
30
0
11
1886.062992
21
-236.680197
31
0
0
LINE
8
1
10
1982.125984
20
-231.955787
30
0
11
1982.125984
21
-236.680197
31
0
0
LINE
8
1
10
1886.062992
20
-236.680197
30
0
11
1982.125984
21
-236.680197
31
0
0
LINE
8
1
10
1638.976378
20
-348.530591
30
0
11
2040.157480
21
-348.530591
31
0
0
LINE
8
1
10
1638.976378
20
-348.530591
30
0
11
1638.976378
21
-353.255000
31
0
0
LINE
8
1
10
2040.157480
20
-348.530591
30
0
11
2040.157480
21
-353.255000
31
0
0
LINE
8
1
10
1638.976378
20
-353.255000
30
0
11
2040.157480
21
-353.255000
31
0
0
LINE
8
1
10
1886.062992
20
-257.152638
30
0
11
2003.740157
21
-257.152638
31
0
0
LINE
8
1
10
1886.062992
20
-257.152638
30
0
11
1886.062992
21
-261.877047
31
0
0
LINE
8
1
10
2003.740157
20
-257.152638
30
0
11
2003.740157
21
-261.877047
31
0
0
LINE
8
1
10
1886.062992
20
-261.877047
30
0
11
2003.740157
21
-261.877047
31
0
0
LINE
8
1
10
1701.929134
20
-227.231378
30
0
11
1977.204724
21
-227.231378
31
0
0
LINE
8
1
10
1701.929134
20
-227.231378
30
0
11
1701.929134
21
-231.955787
31
0
0
LINE
8
1
10
1977.204724
20
-227.231378
30
0
11
1977.204724
21
-231.955787
31
0
0
LINE
8
1
10
1701.929134
20
-231.955787
30
0
11
1977.204724
21
-231.955787
31
0
0
LINE
8
1
10
1886.062992
20
-301.247126
30
0
11
2027.874016
21
-301.247126
31
0
0
LINE
8
1
10
1886.062992
20
-301.247126
30
0
11
1886.062992
21
-305.971535
31
0
0
LINE
8
1
10
2027.874016
20
-301.247126
30
0
11
2027.874016
21
-305.971535
31
0
0
LINE
8
1
10
1886.062992
20
-305.971535
30
0
11
2027.874016
21
-305.971535
31
0
0
LINE
8
1
10
1886.062992
20
-274.475472
30
0
11
2014.960630
21
-274.475472
31
0
0
LINE
8
1
10
1886.062992
20
-274.475472
30
0
11
1886.062992
21
-279.199882
31
0
0
LINE
8
1
10
2014.960630
20
-274.475472
30
0
11
2014.960630
21
-279.199882
31
0
0
LINE
8
1
10
1886.062992
20
-279.199882
30
0
11
2014.960630
21
-279.199882
31
0
0
LINE
8
1
10
1733.070866
20
-203.609331
30
0
11
1946.062992
21
-203.609331
31
0
0
LINE
8
1
10
1733.070866
20
-203.609331
30
0
11
1733.070866
21
-208.333740
31
0
0
LINE
8
1
10
1946.062992
20
-203.609331
30
0
11
1946.062992
21
-208.333740
31
0
0
LINE
8
1
10
1733.070866
20
-208.333740
30
0
11
1946.062992
21
-208.333740
31
0
0
LINE
8
1
10
1655.275591
20
-291.798307
30
0
11
1793.070866
21
-291.798307
31
0
0
LINE
8
1
10
1655.275591
20
-291.798307
30
0
11
1655.275591
21
-296.522717
31
0
0
LINE
8
1
10
1793.070866
20
-291.798307
30
0
11
1793.070866
21
-296.522717
31
0
0
LINE
8
1
10
1655.275591
20
-296.522717
30
0
11
1793.070866
21
-296.522717
31
0
0
LINE
8
1
10
1642.086614
20
-331.168386
30
0
11
2037.047244
21
-331.168386
31
0
0
LINE
8
1
10
1642.086614
20
-331.168386
30
0
11
1642.086614
21
-335.892795
31
0
0
LINE
8
1
10
2037.047244
20
-331.168386
30
0
11
2037.047244
21
-335.892795
31
0
0
LINE
8
1
10
1642.086614
20
-335.892795
30
0
11
2037.047244
21
-335.892795
31
0
0
LINE
8
1
10
1886.062992
20
-266.601457
30
0
11
2010.157480
21
-266.601457
31
0
0
LINE
8
1
10
1886.062992
20
-266.601457
30
0
11
1886.062992
21
-271.325866
31
0
0
LINE
8
1
10
2010.157480
20
-266.601457
30
0
11
2010.157480
21
-271.325866
31
0
0
LINE
8
1
10
1886.062992
20
-271.325866
30
0
11
2010.157480
21
-271.325866
31
0
0
LINE
8
1
10
1637.913386
20
-357.979409
30
0
11
2041.220472
21
-357.979409
31
0
0
LINE
8
1
10
1637.913386
20
-357.979409
30
0
11
1637.913386
21
-362.703819
31
0
0
LINE
8
1
10
2041.220472
20
-357.979409
30
0
11
2041.220472
21
-362.703819
31
0
0
LINE
8
1
10
1637.913386
20
-362.703819
30
0
11
2041.220472
21
-362.703819
31
0
0
LINE
8
1
10
1638.779528
20
-350.105394
30
0
11
2040.354331
21
-350.105394
31
0
0
LINE
8
1
10
1638.779528
20
-350.105394
30
0
11
1638.779528
21
-354.829803
31
0
0
LINE
8
1
10
2040.354331
20
-350.105394
30
0
11
2040.354331
21
-354.829803
31
0
0
LINE
8
1
10
1638.779528
20
-354.829803
30
0
11
2040.354331
21
-354.829803
31
0
0
LINE
8
1
10
1654.566929
20
-293.373110
30
0
11
1793.070866
21
-293.373110
31
0
0
LINE
8
1
10
1654.566929
20
-293.373110
30
0
11
1654.566929
21
-298.097520
31
0
0
LINE
8
1
10
1793.070866
20
-293.373110
30
0
11
1793.070866
21
-298.097520
31
0
0
LINE
8
1
10
1654.566929
20
-298.097520
30
0
11
1793.070866
21
-298.097520
31
0
0
LINE
8
1
10
1663.307087
20
-276.050276
30
0
11
1793.070866
21
-276.050276
31
0
0
LINE
8
1
10
1663.307087
20
-276.050276
30
0
11
1663.307087
21
-280.774685
31
0
0
LINE
8
1
10
1793.070866
20
-276.050276
30
0
11
1793.070866
21
-280.774685
31
0
0
LINE
8
1
10
1663.307087
20
-280.774685
30
0
11
1793.070866
21
-280.774685
31
0
0
LINE
8
1
10
1886.062992
20
-282.349488
30
0
11
2019.251969
21
-282.349488
31
0
0
LINE
8
1
10
1886.062992
20
-282.349488
30
0
11
1886.062992
21
-287.073898
31
0
0
LINE
8
1
10
2019.251969
20
-282.349488
30
0
11
2019.251969
21
-287.073898
31
0
0
LINE
8
1
10
1886.062992
20
-287.073898
30
0
11
2019.251969
21
-287.073898
31
0
0
LINE
8
1
10
1670.000000
20
-265.026654
30
0
11
1793.070866
21
-265.026654
31
0
0
LINE
8
1
10
1670.000000
20
-265.026654
30
0
11
1670.000000
21
-269.751063
31
0
0
LINE
8
1
10
1793.070866
20
-265.026654
30
0
11
1793.070866
21
-269.751063
31
0
0
LINE
8
1
10
1670.000000
20
-269.751063
30
0
11
1793.070866
21
-269.751063
31
0
0
LINE
8
1
10
1647.795276
20
-310.695945
30
0
11
1793.070866
21
-310.695945
31
0
0
LINE
8
1
10
1647.795276
20
-310.695945
30
0
11
1647.795276
21
-315.420354
31
0
0
LINE
8
1
10
1793.070866
20
-310.695945
30
0
11
1793.070866
21
-315.420354
31
0
0
LINE
8
1
10
1647.795276
20
-315.420354
30
0
11
1793.070866
21
-315.420354
31
0
0
LINE
8
1
10
1886.062992
20
-230.380984
30
0
11
1980.511811
21
-230.380984
31
0
0
LINE
8
1
10
1886.062992
20
-230.380984
30
0
11
1886.062992
21
-235.105394
31
0
0
LINE
8
1
10
1980.511811
20
-230.380984
30
0
11
1980.511811
21
-235.105394
31
0
0
LINE
8
1
10
1886.062992
20
-235.105394
30
0
11
1980.511811
21
-235.105394
31
0
0
LINE
8
1
10
1693.897638
20
-235.105394
30
0
11
1793.070866
21
-235.105394
31
0
0
LINE
8
1
10
1693.897638
20
-235.105394
30
0
11
1693.897638
21
-239.829803
31
0
0
LINE
8
1
10
1793.070866
20
-235.105394
30
0
11
1793.070866
21
-239.829803
31
0
0
LINE
8
1
10
1693.897638
20
-239.829803
30
0
11
1793.070866
21
-239.829803
31
0
0
LINE
8
1
10
1886.062992
20
-250.853425
30
0
11
1998.976378
21
-250.853425
31
0
0
LINE
8
1
10
1886.062992
20
-250.853425
30
0
11
1886.062992
21
-255.577835
31
0
0
LINE
8
1
10
1998.976378
20
-250.853425
30
0
11
1998.976378
21
-255.577835
31
0
0
LINE
8
1
10
1886.062992
20
-255.577835
30
0
11
1998.976378
21
-255.577835
31
0
0
LINE
8
1
10
1656.732283
20
-288.648701
30
0
11
1793.070866
21
-288.648701
31
0
0
LINE
8
1
10
1656.732283
20
-288.648701
30
0
11
1656.732283
21
-293.373110
31
0
0
LINE
8
1
10
1793.070866
20
-288.648701
30
0
11
1793.070866
21
-293.373110
31
0
0
LINE
8
1
10
1656.732283
20
-293.373110
30
0
11
1793.070866
21
-293.373110
31
0
0
LINE
8
1
10
1689.448819
20
-239.829803
30
0
11
1793.070866
21
-239.829803
31
0
0
LINE
8
1
10
1689.448819
20
-239.829803
30
0
11
1689.448819
21
-244.554213
31
0
0
LINE
8
1
10
1793.070866
20
-239.829803
30
0
11
1793.070866
21
-244.554213
31
0
0
LINE
8
1
10
1689.448819
20
-244.554213
30
0
11
1793.070866
21
-244.554213
31
0
0
LINE
8
1
10
1886.062992
20
-255.577835
30
0
11
2002.559055
21
-255.577835
31
0
0
LINE
8
1
10
1886.062992
20
-255.577835
30
0
11
1886.062992
21
-260.302244
31
0
0
LINE
8
1
10
2002.559055
20
-255.577835
30
0
11
2002.559055
21
-260.302244
31
0
0
LINE
8
1
10
1886.062992
20
-260.302244
30
0
11
2002.559055
21
-260.302244
31
0
0
LINE
8
1
10
1635.629921
20
-173.727441
30
0
11
2043.503937
21
-173.727441
31
0
0
LINE
8
1
10
1635.629921
20
-173.727441
30
0
11
1635.629921
21
-581.601457
31
0
0
LINE
8
1
10
2043.503937
20
-173.727441
30
0
11
2043.503937
21
-581.601457
31
0
0
LINE
8
1
10
1635.629921
20
-581.601457
30
0
11
2043.503937
21
-581.601457
31
0
0
LINE
8
1
10
2756.102362
20
-153.543307
30
0
11
2857.677165
21
-153.543307
31
0
0
LINE
8
1
10
2756.102362
20
-153.543307
30
0
11
2756.102362
21
-158.267717
31
0
0
LINE
8
1
10
2857.677165
20
-153.543307
30
0
11
2857.677165
21
-158.267717
31
0
0
LINE
8
1
10
2756.102362
20
-158.267717
30
0
11
2857.677165
21
-158.267717
31
0
0
LINE
8
1
10
2756.102362
20
-95.669291
30
0
11
2857.677165
21
-95.669291
31
0
0
LINE
8
1
10
2756.102362
20
-95.669291
30
0
11
2756.102362
21
-100.393701
31
0
0
LINE
8
1
10
2857.677165
20
-95.669291
30
0
11
2857.677165
21
-100.393701
31
0
0
LINE
8
1
10
2756.102362
20
-100.393701
30
0
11
2857.677165
21
-100.393701
31
0
0
LINE
8
1
10
2756.102362
20
-95.669291
30
0
11
2760.826772
21
-95.669291
31
0
0
LINE
8
1
10
2756.102362
20
-95.669291
30
0
11
2756.102362
21
-158.267717
31
0
0
LINE
8
1
10
2760.826772
20
-95.669291
30
0
11
2760.826772
21
-158.267717
31
0
0
LINE
8
1
10
2756.102362
20
-158.267717
30
0
11
2760.826772
21
-158.267717
31
0
0
LINE
8
1
10
2633.818898
20
-1650.196850
30
0
11
2638.543307
21
-1650.196850
31
0
0
LINE
8
1
10
2633.818898
20
-1650.196850
30
0
11
2633.818898
21
-1762.007874
31
0
0
LINE
8
1
10
2638.543307
20
-1650.196850
30
0
11
2638.543307
21
-1762.007874
31
0
0
LINE
8
1
10
2633.818898
20
-1762.007874
30
0
11
2638.543307
21
-1762.007874
31
0
0
LINE
8
1
10
2225.157480
20
-1757.283465
30
0
11
2638.543307
21
-1757.283465
31
0
0
LINE
8
1
10
2225.157480
20
-1757.283465
30
0
11
2225.157480
21
-1762.007874
31
0
0
LINE
8
1
10
2638.543307
20
-1757.283465
30
0
11
2638.543307
21
-1762.007874
31
0
0
LINE
8
1
10
2225.157480
20
-1762.007874
30
0
11
2638.543307
21
-1762.007874
31
0
0
LINE
8
1
10
2225.157480
20
-1650.196850
30
0
11
2229.881890
21
-1650.196850
31
0
0
LINE
8
1
10
2225.157480
20
-1650.196850
30
0
11
2225.157480
21
-1762.007874
31
0
0
LINE
8
1
10
2229.881890
20
-1650.196850
30
0
11
2229.881890
21
-1762.007874
31
0
0
LINE
8
1
10
2225.157480
20
-1762.007874
30
0
11
2229.881890
21
-1762.007874
31
0
0
LINE
8
1
10
2225.157480
20
-1650.196850
30
0
11
2638.543307
21
-1650.196850
31
0
0
LINE
8
1
10
2225.157480
20
-1650.196850
30
0
11
2225.157480
21
-1654.921260
31
0
0
LINE
8
1
10
2638.543307
20
-1650.196850
30
0
11
2638.543307
21
-1654.921260
31
0
0
LINE
8
1
10
2225.157480
20
-1654.921260
30
0
11
2638.543307
21
-1654.921260
31
0
0
LINE
8
1
10
3794.094488
20
-521.062992
30
0
11
3798.818898
21
-521.062992
31
0
0
LINE
8
1
10
3794.094488
20
-521.062992
30
0
11
3794.094488
21
-630.511811
31
0
0
LINE
8
1
10
3798.818898
20
-521.062992
30
0
11
3798.818898
21
-630.511811
31
0
0
LINE
8
1
10
3794.094488
20
-630.511811
30
0
11
3798.818898
21
-630.511811
31
0
0
LINE
8
1
10
3391.732283
20
-625.787402
30
0
11
3798.818898
21
-625.787402
31
0
0
LINE
8
1
10
3391.732283
20
-625.787402
30
0
11
3391.732283
21
-630.511811
31
0
0
LINE
8
1
10
3798.818898
20
-625.787402
30
0
11
3798.818898
21
-630.511811
31
0
0
LINE
8
1
10
3391.732283
20
-630.511811
30
0
11
3798.818898
21
-630.511811
31
0
0
LINE
8
1
10
3844.094488
20
-521.062992
30
0
11
3901.181102
21
-521.062992
31
0
0
LINE
8
1
10
3844.094488
20
-521.062992
30
0
11
3844.094488
21
-525.787402
31
0
0
LINE
8
1
10
3901.181102
20
-521.062992
30
0
11
3901.181102
21
-525.787402
31
0
0
LINE
8
1
10
3844.094488
20
-525.787402
30
0
11
3901.181102
21
-525.787402
31
0
0
LINE
8
1
10
3391.732283
20
-521.062992
30
0
11
3396.456693
21
-521.062992
31
0
0
LINE
8
1
10
3391.732283
20
-521.062992
30
0
11
3391.732283
21
-630.511811
31
0
0
LINE
8
1
10
3396.456693
20
-521.062992
30
0
11
3396.456693
21
-630.511811
31
0
0
LINE
8
1
10
3391.732283
20
-630.511811
30
0
11
3396.456693
21
-630.511811
31
0
0
LINE
8
1
10
3391.732283
20
-521.062992
30
0
11
3798.818898
21
-521.062992
31
0
0
LINE
8
1
10
3391.732283
20
-521.062992
30
0
11
3391.732283
21
-525.787402
31
0
0
LINE
8
1
10
3798.818898
20
-521.062992
30
0
11
3798.818898
21
-525.787402
31
0
0
LINE
8
1
10
3391.732283
20
-525.787402
30
0
11
3798.818898
21
-525.787402
31
0
0
LINE
8
1
10
3896.456693
20
-521.062992
30
0
11
3901.181102
21
-521.062992
31
0
0
LINE
8
1
10
3896.456693
20
-521.062992
30
0
11
3896.456693
21
-578.149606
31
0
0
LINE
8
1
10
3901.181102
20
-521.062992
30
0
11
3901.181102
21
-578.149606
31
0
0
LINE
8
1
10
3896.456693
20
-578.149606
30
0
11
3901.181102
21
-578.149606
31
0
0
LINE
8
1
10
2503.799213
20
-1118.983307
30
0
11
2508.523622
21
-1118.983307
31
0
0
LINE
8
1
10
2503.799213
20
-1118.983307
30
0
11
2503.799213
21
-1143.764724
31
0
0
LINE
8
1
10
2508.523622
20
-1118.983307
30
0
11
2508.523622
21
-1143.764724
31
0
0
LINE
8
1
10
2503.799213
20
-1143.764724
30
0
11
2508.523622
21
-1143.764724
31
0
0
LINE
8
1
10
2544.940945
20
-1118.983307
30
0
11
2549.665354
21
-1118.983307
31
0
0
LINE
8
1
10
2544.940945
20
-1118.983307
30
0
11
2544.940945
21
-1143.764724
31
0
0
LINE
8
1
10
2549.665354
20
-1118.983307
30
0
11
2549.665354
21
-1143.764724
31
0
0
LINE
8
1
10
2544.940945
20
-1143.764724
30
0
11
2549.665354
21
-1143.764724
31
0
0
LINE
8
1
10
2133.291339
20
-1186.753268
30
0
11
2138.015748
21
-1186.753268
31
0
0
LINE
8
1
10
2133.291339
20
-1186.753268
30
0
11
2133.291339
21
-1202.994764
31
0
0
LINE
8
1
10
2138.015748
20
-1186.753268
30
0
11
2138.015748
21
-1202.994764
31
0
0
LINE
8
1
10
2133.291339
20
-1202.994764
30
0
11
2138.015748
21
-1202.994764
31
0
0
LINE
8
1
10
2173.448819
20
-1186.753268
30
0
11
2178.173228
21
-1186.753268
31
0
0
LINE
8
1
10
2173.448819
20
-1186.753268
30
0
11
2173.448819
21
-1202.994764
31
0
0
LINE
8
1
10
2178.173228
20
-1186.753268
30
0
11
2178.173228
21
-1202.994764
31
0
0
LINE
8
1
10
2173.448819
20
-1202.994764
30
0
11
2178.173228
21
-1202.994764
31
0
0
LINE
8
1
10
2404.157480
20
-1171.740157
30
0
11
2408.881890
21
-1171.740157
31
0
0
LINE
8
1
10
2404.157480
20
-1171.740157
30
0
11
2404.157480
21
-1253.236220
31
0
0
LINE
8
1
10
2408.881890
20
-1171.740157
30
0
11
2408.881890
21
-1253.236220
31
0
0
LINE
8
1
10
2404.157480
20
-1253.236220
30
0
11
2408.881890
21
-1253.236220
31
0
0
LINE
8
1
10
2202.582677
20
-1248.511811
30
0
11
2207.307087
21
-1248.511811
31
0
0
LINE
8
1
10
2202.582677
20
-1248.511811
30
0
11
2202.582677
21
-1389.062992
31
0
0
LINE
8
1
10
2207.307087
20
-1248.511811
30
0
11
2207.307087
21
-1389.062992
31
0
0
LINE
8
1
10
2202.582677
20
-1389.062992
30
0
11
2207.307087
21
-1389.062992
31
0
0
LINE
8
1
10
2404.157480
20
-1248.511811
30
0
11
2408.881890
21
-1248.511811
31
0
0
LINE
8
1
10
2404.157480
20
-1248.511811
30
0
11
2404.157480
21
-1330.007874
31
0
0
LINE
8
1
10
2408.881890
20
-1248.511811
30
0
11
2408.881890
21
-1330.007874
31
0
0
LINE
8
1
10
2404.157480
20
-1330.007874
30
0
11
2408.881890
21
-1330.007874
31
0
0
LINE
8
1
10
2202.582677
20
-1171.740157
30
0
11
2207.307087
21
-1171.740157
31
0
0
LINE
8
1
10
2202.582677
20
-1171.740157
30
0
11
2202.582677
21
-1253.236220
31
0
0
LINE
8
1
10
2207.307087
20
-1171.740157
30
0
11
2207.307087
21
-1253.236220
31
0
0
LINE
8
1
10
2202.582677
20
-1253.236220
30
0
11
2207.307087
21
-1253.236220
31
0
0
LINE
8
1
10
2665.758898
20
-104.035433
30
0
11
2690.540315
21
-104.035433
31
0
0
LINE
8
1
10
2665.758898
20
-104.035433
30
0
11
2665.758898
21
-108.759843
31
0
0
LINE
8
1
10
2690.540315
20
-104.035433
30
0
11
2690.540315
21
-108.759843
31
0
0
LINE
8
1
10
2665.758898
20
-108.759843
30
0
11
2690.540315
21
-108.759843
31
0
0
LINE
8
1
10
2665.758898
20
-145.177165
30
0
11
2690.540315
21
-145.177165
31
0
0
LINE
8
1
10
2665.758898
20
-145.177165
30
0
11
2665.758898
21
-149.901575
31
0
0
LINE
8
1
10
2690.540315
20
-145.177165
30
0
11
2690.540315
21
-149.901575
31
0
0
LINE
8
1
10
2665.758898
20
-149.901575
30
0
11
2690.540315
21
-149.901575
31
0
0
LINE
8
1
10
182.381890
20
-2367.814961
30
0
11
187.106299
21
-2367.814961
31
0
0
LINE
8
1
10
182.381890
20
-2367.814961
30
0
11
182.381890
21
-2402.066929
31
0
0
LINE
8
1
10
187.106299
20
-2367.814961
30
0
11
187.106299
21
-2402.066929
31
0
0
LINE
8
1
10
182.381890
20
-2402.066929
30
0
11
187.106299
21
-2402.066929
31
0
0
LINE
8
1
10
408.759843
20
-1916.240157
30
0
11
462.696850
21
-1916.240157
31
0
0
LINE
8
1
10
408.759843
20
-1916.240157
30
0
11
408.759843
21
-1920.964567
31
0
0
LINE
8
1
10
462.696850
20
-1916.240157
30
0
11
462.696850
21
-1920.964567
31
0
0
LINE
8
1
10
408.759843
20
-1920.964567
30
0
11
462.696850
21
-1920.964567
31
0
0
LINE
8
1
10
442.618110
20
-1931.594488
30
0
11
447.342520
21
-1931.594488
31
0
0
LINE
8
1
10
442.618110
20
-1931.594488
30
0
11
442.618110
21
-2449.704724
31
0
0
LINE
8
1
10
447.342520
20
-1931.594488
30
0
11
447.342520
21
-2449.704724
31
0
0
LINE
8
1
10
442.618110
20
-2449.704724
30
0
11
447.342520
21
-2449.704724
31
0
0
LINE
8
1
10
182.381890
20
-2129.232283
30
0
11
356.397638
21
-2129.232283
31
0
0
LINE
8
1
10
182.381890
20
-2129.232283
30
0
11
182.381890
21
-2133.956693
31
0
0
LINE
8
1
10
356.397638
20
-2129.232283
30
0
11
356.397638
21
-2133.956693
31
0
0
LINE
8
1
10
182.381890
20
-2133.956693
30
0
11
356.397638
21
-2133.956693
31
0
0
LINE
8
1
10
182.381890
20
-1979.232283
30
0
11
356.397638
21
-1979.232283
31
0
0
LINE
8
1
10
182.381890
20
-1979.232283
30
0
11
182.381890
21
-1983.956693
31
0
0
LINE
8
1
10
356.397638
20
-1979.232283
30
0
11
356.397638
21
-1983.956693
31
0
0
LINE
8
1
10
182.381890
20
-1983.956693
30
0
11
356.397638
21
-1983.956693
31
0
0
LINE
8
1
10
148.523622
20
-2444.980315
30
0
11
447.342520
21
-2444.980315
31
0
0
LINE
8
1
10
148.523622
20
-2444.980315
30
0
11
148.523622
21
-2449.704724
31
0
0
LINE
8
1
10
447.342520
20
-2444.980315
30
0
11
447.342520
21
-2449.704724
31
0
0
LINE
8
1
10
148.523622
20
-2449.704724
30
0
11
447.342520
21
-2449.704724
31
0
0
LINE
8
1
10
365.452756
20
-2087.500000
30
0
11
409.547244
21
-2087.500000
31
0
0
LINE
8
1
10
365.452756
20
-2087.500000
30
0
11
365.452756
21
-2102.066929
31
0
0
LINE
8
1
10
409.547244
20
-2087.500000
30
0
11
409.547244
21
-2102.066929
31
0
0
LINE
8
1
10
365.452756
20
-2102.066929
30
0
11
409.547244
21
-2102.066929
31
0
0
LINE
8
1
10
365.452756
20
-1979.232283
30
0
11
409.547244
21
-1979.232283
31
0
0
LINE
8
1
10
365.452756
20
-1979.232283
30
0
11
365.452756
21
-1993.799213
31
0
0
LINE
8
1
10
409.547244
20
-1979.232283
30
0
11
409.547244
21
-1993.799213
31
0
0
LINE
8
1
10
365.452756
20
-1993.799213
30
0
11
409.547244
21
-1993.799213
31
0
0
LINE
8
1
10
365.452756
20
-2129.232283
30
0
11
409.547244
21
-2129.232283
31
0
0
LINE
8
1
10
365.452756
20
-2129.232283
30
0
11
365.452756
21
-2143.799213
31
0
0
LINE
8
1
10
409.547244
20
-2129.232283
30
0
11
409.547244
21
-2143.799213
31
0
0
LINE
8
1
10
365.452756
20
-2143.799213
30
0
11
409.547244
21
-2143.799213
31
0
0
LINE
8
1
10
365.452756
20
-2067.814961
30
0
11
370.177165
21
-2067.814961
31
0
0
LINE
8
1
10
365.452756
20
-2067.814961
30
0
11
365.452756
21
-2092.224409
31
0
0
LINE
8
1
10
370.177165
20
-2067.814961
30
0
11
370.177165
21
-2092.224409
31
0
0
LINE
8
1
10
365.452756
20
-2092.224409
30
0
11
370.177165
21
-2092.224409
31
0
0
LINE
8
1
10
182.381890
20
-2279.232283
30
0
11
356.397638
21
-2279.232283
31
0
0
LINE
8
1
10
182.381890
20
-2279.232283
30
0
11
182.381890
21
-2283.956693
31
0
0
LINE
8
1
10
356.397638
20
-2279.232283
30
0
11
356.397638
21
-2283.956693
31
0
0
LINE
8
1
10
182.381890
20
-2283.956693
30
0
11
356.397638
21
-2283.956693
31
0
0
LINE
8
1
10
351.673228
20
-2308.759843
30
0
11
370.177165
21
-2308.759843
31
0
0
LINE
8
1
10
351.673228
20
-2308.759843
30
0
11
351.673228
21
-2313.484252
31
0
0
LINE
8
1
10
370.177165
20
-2308.759843
30
0
11
370.177165
21
-2313.484252
31
0
0
LINE
8
1
10
351.673228
20
-2313.484252
30
0
11
370.177165
21
-2313.484252
31
0
0
LINE
8
1
10
182.381890
20
-2279.232283
30
0
11
187.106299
21
-2279.232283
31
0
0
LINE
8
1
10
182.381890
20
-2279.232283
30
0
11
182.381890
21
-2313.484252
31
0
0
LINE
8
1
10
187.106299
20
-2279.232283
30
0
11
187.106299
21
-2313.484252
31
0
0
LINE
8
1
10
182.381890
20
-2313.484252
30
0
11
187.106299
21
-2313.484252
31
0
0
LINE
8
1
10
351.673228
20
-2279.232283
30
0
11
356.397638
21
-2279.232283
31
0
0
LINE
8
1
10
351.673228
20
-2279.232283
30
0
11
351.673228
21
-2313.484252
31
0
0
LINE
8
1
10
356.397638
20
-2279.232283
30
0
11
356.397638
21
-2313.484252
31
0
0
LINE
8
1
10
351.673228
20
-2313.484252
30
0
11
356.397638
21
-2313.484252
31
0
0
LINE
8
1
10
365.452756
20
-2237.500000
30
0
11
409.547244
21
-2237.500000
31
0
0
LINE
8
1
10
365.452756
20
-2237.500000
30
0
11
365.452756
21
-2252.066929
31
0
0
LINE
8
1
10
409.547244
20
-2237.500000
30
0
11
409.547244
21
-2252.066929
31
0
0
LINE
8
1
10
365.452756
20
-2252.066929
30
0
11
409.547244
21
-2252.066929
31
0
0
LINE
8
1
10
351.673228
20
-2008.759843
30
0
11
370.177165
21
-2008.759843
31
0
0
LINE
8
1
10
351.673228
20
-2008.759843
30
0
11
351.673228
21
-2013.484252
31
0
0
LINE
8
1
10
370.177165
20
-2008.759843
30
0
11
370.177165
21
-2013.484252
31
0
0
LINE
8
1
10
351.673228
20
-2013.484252
30
0
11
370.177165
21
-2013.484252
31
0
0
LINE
8
1
10
351.673228
20
-2217.814961
30
0
11
356.397638
21
-2217.814961
31
0
0
LINE
8
1
10
351.673228
20
-2217.814961
30
0
11
351.673228
21
-2252.066929
31
0
0
LINE
8
1
10
356.397638
20
-2217.814961
30
0
11
356.397638
21
-2252.066929
31
0
0
LINE
8
1
10
351.673228
20
-2252.066929
30
0
11
356.397638
21
-2252.066929
31
0
0
LINE
8
1
10
365.452756
20
-2387.500000
30
0
11
409.547244
21
-2387.500000
31
0
0
LINE
8
1
10
365.452756
20
-2387.500000
30
0
11
365.452756
21
-2402.066929
31
0
0
LINE
8
1
10
409.547244
20
-2387.500000
30
0
11
409.547244
21
-2402.066929
31
0
0
LINE
8
1
10
365.452756
20
-2402.066929
30
0
11
409.547244
21
-2402.066929
31
0
0
LINE
8
1
10
182.381890
20
-2247.342520
30
0
11
356.397638
21
-2247.342520
31
0
0
LINE
8
1
10
182.381890
20
-2247.342520
30
0
11
182.381890
21
-2252.066929
31
0
0
LINE
8
1
10
356.397638
20
-2247.342520
30
0
11
356.397638
21
-2252.066929
31
0
0
LINE
8
1
10
182.381890
20
-2252.066929
30
0
11
356.397638
21
-2252.066929
31
0
0
LINE
8
1
10
182.381890
20
-1979.232283
30
0
11
187.106299
21
-1979.232283
31
0
0
LINE
8
1
10
182.381890
20
-1979.232283
30
0
11
182.381890
21
-2013.484252
31
0
0
LINE
8
1
10
187.106299
20
-1979.232283
30
0
11
187.106299
21
-2013.484252
31
0
0
LINE
8
1
10
182.381890
20
-2013.484252
30
0
11
187.106299
21
-2013.484252
31
0
0
LINE
8
1
10
182.381890
20
-2129.232283
30
0
11
187.106299
21
-2129.232283
31
0
0
LINE
8
1
10
182.381890
20
-2129.232283
30
0
11
182.381890
21
-2163.484252
31
0
0
LINE
8
1
10
187.106299
20
-2129.232283
30
0
11
187.106299
21
-2163.484252
31
0
0
LINE
8
1
10
182.381890
20
-2163.484252
30
0
11
187.106299
21
-2163.484252
31
0
0
LINE
8
1
10
351.673228
20
-2129.232283
30
0
11
356.397638
21
-2129.232283
31
0
0
LINE
8
1
10
351.673228
20
-2129.232283
30
0
11
351.673228
21
-2163.484252
31
0
0
LINE
8
1
10
356.397638
20
-2129.232283
30
0
11
356.397638
21
-2163.484252
31
0
0
LINE
8
1
10
351.673228
20
-2163.484252
30
0
11
356.397638
21
-2163.484252
31
0
0
LINE
8
1
10
182.381890
20
-2397.342520
30
0
11
356.397638
21
-2397.342520
31
0
0
LINE
8
1
10
182.381890
20
-2397.342520
30
0
11
182.381890
21
-2402.066929
31
0
0
LINE
8
1
10
356.397638
20
-2397.342520
30
0
11
356.397638
21
-2402.066929
31
0
0
LINE
8
1
10
182.381890
20
-2402.066929
30
0
11
356.397638
21
-2402.066929
31
0
0
LINE
8
1
10
365.452756
20
-2367.814961
30
0
11
370.177165
21
-2367.814961
31
0
0
LINE
8
1
10
365.452756
20
-2367.814961
30
0
11
365.452756
21
-2392.224409
31
0
0
LINE
8
1
10
370.177165
20
-2367.814961
30
0
11
370.177165
21
-2392.224409
31
0
0
LINE
8
1
10
365.452756
20
-2392.224409
30
0
11
370.177165
21
-2392.224409
31
0
0
LINE
8
1
10
351.673228
20
-2217.814961
30
0
11
370.177165
21
-2217.814961
31
0
0
LINE
8
1
10
351.673228
20
-2217.814961
30
0
11
351.673228
21
-2222.539370
31
0
0
LINE
8
1
10
370.177165
20
-2217.814961
30
0
11
370.177165
21
-2222.539370
31
0
0
LINE
8
1
10
351.673228
20
-2222.539370
30
0
11
370.177165
21
-2222.539370
31
0
0
LINE
8
1
10
351.673228
20
-2158.759843
30
0
11
370.177165
21
-2158.759843
31
0
0
LINE
8
1
10
351.673228
20
-2158.759843
30
0
11
351.673228
21
-2163.484252
31
0
0
LINE
8
1
10
370.177165
20
-2158.759843
30
0
11
370.177165
21
-2163.484252
31
0
0
LINE
8
1
10
351.673228
20
-2163.484252
30
0
11
370.177165
21
-2163.484252
31
0
0
LINE
8
1
10
182.381890
20
-2217.814961
30
0
11
187.106299
21
-2217.814961
31
0
0
LINE
8
1
10
182.381890
20
-2217.814961
30
0
11
182.381890
21
-2252.066929
31
0
0
LINE
8
1
10
187.106299
20
-2217.814961
30
0
11
187.106299
21
-2252.066929
31
0
0
LINE
8
1
10
182.381890
20
-2252.066929
30
0
11
187.106299
21
-2252.066929
31
0
0
LINE
8
1
10
365.452756
20
-2289.074803
30
0
11
370.177165
21
-2289.074803
31
0
0
LINE
8
1
10
365.452756
20
-2289.074803
30
0
11
365.452756
21
-2313.484252
31
0
0
LINE
8
1
10
370.177165
20
-2289.074803
30
0
11
370.177165
21
-2313.484252
31
0
0
LINE
8
1
10
365.452756
20
-2313.484252
30
0
11
370.177165
21
-2313.484252
31
0
0
LINE
8
1
10
182.381890
20
-2067.814961
30
0
11
187.106299
21
-2067.814961
31
0
0
LINE
8
1
10
182.381890
20
-2067.814961
30
0
11
182.381890
21
-2102.066929
31
0
0
LINE
8
1
10
187.106299
20
-2067.814961
30
0
11
187.106299
21
-2102.066929
31
0
0
LINE
8
1
10
182.381890
20
-2102.066929
30
0
11
187.106299
21
-2102.066929
31
0
0
LINE
8
1
10
404.822835
20
-1979.232283
30
0
11
409.547244
21
-1979.232283
31
0
0
LINE
8
1
10
404.822835
20
-1979.232283
30
0
11
404.822835
21
-2102.066929
31
0
0
LINE
8
1
10
409.547244
20
-1979.232283
30
0
11
409.547244
21
-2102.066929
31
0
0
LINE
8
1
10
404.822835
20
-2102.066929
30
0
11
409.547244
21
-2102.066929
31
0
0
LINE
8
1
10
351.673228
20
-2067.814961
30
0
11
370.177165
21
-2067.814961
31
0
0
LINE
8
1
10
351.673228
20
-2067.814961
30
0
11
351.673228
21
-2072.539370
31
0
0
LINE
8
1
10
370.177165
20
-2067.814961
30
0
11
370.177165
21
-2072.539370
31
0
0
LINE
8
1
10
351.673228
20
-2072.539370
30
0
11
370.177165
21
-2072.539370
31
0
0
LINE
8
1
10
404.822835
20
-2279.232283
30
0
11
409.547244
21
-2279.232283
31
0
0
LINE
8
1
10
404.822835
20
-2279.232283
30
0
11
404.822835
21
-2402.066929
31
0
0
LINE
8
1
10
409.547244
20
-2279.232283
30
0
11
409.547244
21
-2402.066929
31
0
0
LINE
8
1
10
404.822835
20
-2402.066929
30
0
11
409.547244
21
-2402.066929
31
0
0
LINE
8
1
10
365.452756
20
-2217.814961
30
0
11
370.177165
21
-2217.814961
31
0
0
LINE
8
1
10
365.452756
20
-2217.814961
30
0
11
365.452756
21
-2242.224409
31
0
0
LINE
8
1
10
370.177165
20
-2217.814961
30
0
11
370.177165
21
-2242.224409
31
0
0
LINE
8
1
10
365.452756
20
-2242.224409
30
0
11
370.177165
21
-2242.224409
31
0
0
LINE
8
1
10
148.523622
20
-1931.594488
30
0
11
447.342520
21
-1931.594488
31
0
0
LINE
8
1
10
148.523622
20
-1931.594488
30
0
11
148.523622
21
-1936.318898
31
0
0
LINE
8
1
10
447.342520
20
-1931.594488
30
0
11
447.342520
21
-1936.318898
31
0
0
LINE
8
1
10
148.523622
20
-1936.318898
30
0
11
447.342520
21
-1936.318898
31
0
0
LINE
8
1
10
351.673228
20
-1979.232283
30
0
11
356.397638
21
-1979.232283
31
0
0
LINE
8
1
10
351.673228
20
-1979.232283
30
0
11
351.673228
21
-2013.484252
31
0
0
LINE
8
1
10
356.397638
20
-1979.232283
30
0
11
356.397638
21
-2013.484252
31
0
0
LINE
8
1
10
351.673228
20
-2013.484252
30
0
11
356.397638
21
-2013.484252
31
0
0
LINE
8
1
10
351.673228
20
-2067.814961
30
0
11
356.397638
21
-2067.814961
31
0
0
LINE
8
1
10
351.673228
20
-2067.814961
30
0
11
351.673228
21
-2102.066929
31
0
0
LINE
8
1
10
356.397638
20
-2067.814961
30
0
11
356.397638
21
-2102.066929
31
0
0
LINE
8
1
10
351.673228
20
-2102.066929
30
0
11
356.397638
21
-2102.066929
31
0
0
LINE
8
1
10
365.452756
20
-2139.074803
30
0
11
370.177165
21
-2139.074803
31
0
0
LINE
8
1
10
365.452756
20
-2139.074803
30
0
11
365.452756
21
-2163.484252
31
0
0
LINE
8
1
10
370.177165
20
-2139.074803
30
0
11
370.177165
21
-2163.484252
31
0
0
LINE
8
1
10
365.452756
20
-2163.484252
30
0
11
370.177165
21
-2163.484252
31
0
0
LINE
8
1
10
457.972441
20
-1916.240157
30
0
11
462.696850
21
-1916.240157
31
0
0
LINE
8
1
10
457.972441
20
-1916.240157
30
0
11
457.972441
21
-1999.704724
31
0
0
LINE
8
1
10
462.696850
20
-1916.240157
30
0
11
462.696850
21
-1999.704724
31
0
0
LINE
8
1
10
457.972441
20
-1999.704724
30
0
11
462.696850
21
-1999.704724
31
0
0
LINE
8
1
10
404.822835
20
-2129.232283
30
0
11
409.547244
21
-2129.232283
31
0
0
LINE
8
1
10
404.822835
20
-2129.232283
30
0
11
404.822835
21
-2252.066929
31
0
0
LINE
8
1
10
409.547244
20
-2129.232283
30
0
11
409.547244
21
-2252.066929
31
0
0
LINE
8
1
10
404.822835
20
-2252.066929
30
0
11
409.547244
21
-2252.066929
31
0
0
LINE
8
1
10
182.381890
20
-2097.342520
30
0
11
356.397638
21
-2097.342520
31
0
0
LINE
8
1
10
182.381890
20
-2097.342520
30
0
11
182.381890
21
-2102.066929
31
0
0
LINE
8
1
10
356.397638
20
-2097.342520
30
0
11
356.397638
21
-2102.066929
31
0
0
LINE
8
1
10
182.381890
20
-2102.066929
30
0
11
356.397638
21
-2102.066929
31
0
0
LINE
8
1
10
365.452756
20
-2279.232283
30
0
11
409.547244
21
-2279.232283
31
0
0
LINE
8
1
10
365.452756
20
-2279.232283
30
0
11
365.452756
21
-2293.799213
31
0
0
LINE
8
1
10
409.547244
20
-2279.232283
30
0
11
409.547244
21
-2293.799213
31
0
0
LINE
8
1
10
365.452756
20
-2293.799213
30
0
11
409.547244
21
-2293.799213
31
0
0
LINE
8
1
10
351.673228
20
-2367.814961
30
0
11
356.397638
21
-2367.814961
31
0
0
LINE
8
1
10
351.673228
20
-2367.814961
30
0
11
351.673228
21
-2402.066929
31
0
0
LINE
8
1
10
356.397638
20
-2367.814961
30
0
11
356.397638
21
-2402.066929
31
0
0
LINE
8
1
10
351.673228
20
-2402.066929
30
0
11
356.397638
21
-2402.066929
31
0
0
LINE
8
1
10
365.452756
20
-1989.074803
30
0
11
370.177165
21
-1989.074803
31
0
0
LINE
8
1
10
365.452756
20
-1989.074803
30
0
11
365.452756
21
-2013.484252
31
0
0
LINE
8
1
10
370.177165
20
-1989.074803
30
0
11
370.177165
21
-2013.484252
31
0
0
LINE
8
1
10
365.452756
20
-2013.484252
30
0
11
370.177165
21
-2013.484252
31
0
0
LINE
8
1
10
351.673228
20
-2367.814961
30
0
11
370.177165
21
-2367.814961
31
0
0
LINE
8
1
10
351.673228
20
-2367.814961
30
0
11
351.673228
21
-2372.539370
31
0
0
LINE
8
1
10
370.177165
20
-2367.814961
30
0
11
370.177165
21
-2372.539370
31
0
0
LINE
8
1
10
351.673228
20
-2372.539370
30
0
11
370.177165
21
-2372.539370
31
0
0
LINE
8
1
10
148.523622
20
-1931.594488
30
0
11
153.248031
21
-1931.594488
31
0
0
LINE
8
1
10
148.523622
20
-1931.594488
30
0
11
148.523622
21
-2449.704724
31
0
0
LINE
8
1
10
153.248031
20
-1931.594488
30
0
11
153.248031
21
-2449.704724
31
0
0
LINE
8
1
10
148.523622
20
-2449.704724
30
0
11
153.248031
21
-2449.704724
31
0
0
LINE
8
1
10
182.381890
20
-2008.759843
30
0
11
193.330315
21
-2008.759843
31
0
0
LINE
8
1
10
182.381890
20
-2008.759843
30
0
11
182.381890
21
-2072.525472
31
0
0
LINE
8
1
10
193.330315
20
-2008.759843
30
0
11
193.330315
21
-2072.525472
31
0
0
LINE
8
1
10
182.381890
20
-2072.525472
30
0
11
193.330315
21
-2072.525472
31
0
0
LINE
8
1
10
182.381890
20
-2308.759843
30
0
11
193.330315
21
-2308.759843
31
0
0
LINE
8
1
10
182.381890
20
-2308.759843
30
0
11
182.381890
21
-2372.525472
31
0
0
LINE
8
1
10
193.330315
20
-2308.759843
30
0
11
193.330315
21
-2372.525472
31
0
0
LINE
8
1
10
182.381890
20
-2372.525472
30
0
11
193.330315
21
-2372.525472
31
0
0
LINE
8
1
10
182.381890
20
-2158.759843
30
0
11
193.330315
21
-2158.759843
31
0
0
LINE
8
1
10
182.381890
20
-2158.759843
30
0
11
182.381890
21
-2222.525472
31
0
0
LINE
8
1
10
193.330315
20
-2158.759843
30
0
11
193.330315
21
-2222.525472
31
0
0
LINE
8
1
10
182.381890
20
-2222.525472
30
0
11
193.330315
21
-2222.525472
31
0
0
LINE
8
1
10
597.933071
20
-2492.530551
30
0
11
602.657480
21
-2492.530551
31
0
0
LINE
8
1
10
597.933071
20
-2492.530551
30
0
11
597.933071
21
-2517.311969
31
0
0
LINE
8
1
10
602.657480
20
-2492.530551
30
0
11
602.657480
21
-2517.311969
31
0
0
LINE
8
1
10
597.933071
20
-2517.311969
30
0
11
602.657480
21
-2517.311969
31
0
0
LINE
8
1
10
556.791339
20
-2492.530551
30
0
11
561.515748
21
-2492.530551
31
0
0
LINE
8
1
10
556.791339
20
-2492.530551
30
0
11
556.791339
21
-2517.311969
31
0
0
LINE
8
1
10
561.515748
20
-2492.530551
30
0
11
561.515748
21
-2517.311969
31
0
0
LINE
8
1
10
556.791339
20
-2517.311969
30
0
11
561.515748
21
-2517.311969
31
0
0
LINE
8
1
10
2965.304449
20
-715.551181
30
0
11
2981.545945
21
-715.551181
31
0
0
LINE
8
1
10
2965.304449
20
-715.551181
30
0
11
2965.304449
21
-720.275591
31
0
0
LINE
8
1
10
2981.545945
20
-715.551181
30
0
11
2981.545945
21
-720.275591
31
0
0
LINE
8
1
10
2965.304449
20
-720.275591
30
0
11
2981.545945
21
-720.275591
31
0
0
LINE
8
1
10
2965.304449
20
-675.393701
30
0
11
2981.545945
21
-675.393701
31
0
0
LINE
8
1
10
2965.304449
20
-675.393701
30
0
11
2965.304449
21
-680.118110
31
0
0
LINE
8
1
10
2981.545945
20
-675.393701
30
0
11
2981.545945
21
-680.118110
31
0
0
LINE
8
1
10
2965.304449
20
-680.118110
30
0
11
2981.545945
21
-680.118110
31
0
0
LINE
8
1
10
1153.296575
20
-2319.291339
30
0
11
1169.538071
21
-2319.291339
31
0
0
LINE
8
1
10
1153.296575
20
-2319.291339
30
0
11
1153.296575
21
-2324.015748
31
0
0
LINE
8
1
10
1169.538071
20
-2319.291339
30
0
11
1169.538071
21
-2324.015748
31
0
0
LINE
8
1
10
1153.296575
20
-2324.015748
30
0
11
1169.538071
21
-2324.015748
31
0
0
LINE
8
1
10
1153.296575
20
-2279.133858
30
0
11
1169.538071
21
-2279.133858
31
0
0
LINE
8
1
10
1153.296575
20
-2279.133858
30
0
11
1153.296575
21
-2283.858268
31
0
0
LINE
8
1
10
1169.538071
20
-2279.133858
30
0
11
1169.538071
21
-2283.858268
31
0
0
LINE
8
1
10
1153.296575
20
-2283.858268
30
0
11
1169.538071
21
-2283.858268
31
0
0
LINE
8
1
10
363.779528
20
-2835.925197
30
0
11
368.503937
21
-2835.925197
31
0
0
LINE
8
1
10
363.779528
20
-2835.925197
30
0
11
363.779528
21
-2860.334646
31
0
0
LINE
8
1
10
368.503937
20
-2835.925197
30
0
11
368.503937
21
-2860.334646
31
0
0
LINE
8
1
10
363.779528
20
-2860.334646
30
0
11
368.503937
21
-2860.334646
31
0
0
LINE
8
1
10
180.708661
20
-2794.192913
30
0
11
354.724409
21
-2794.192913
31
0
0
LINE
8
1
10
180.708661
20
-2794.192913
30
0
11
180.708661
21
-2798.917323
31
0
0
LINE
8
1
10
354.724409
20
-2794.192913
30
0
11
354.724409
21
-2798.917323
31
0
0
LINE
8
1
10
180.708661
20
-2798.917323
30
0
11
354.724409
21
-2798.917323
31
0
0
LINE
8
1
10
363.779528
20
-2934.350394
30
0
11
407.874016
21
-2934.350394
31
0
0
LINE
8
1
10
363.779528
20
-2934.350394
30
0
11
363.779528
21
-2948.917323
31
0
0
LINE
8
1
10
407.874016
20
-2934.350394
30
0
11
407.874016
21
-2948.917323
31
0
0
LINE
8
1
10
363.779528
20
-2948.917323
30
0
11
407.874016
21
-2948.917323
31
0
0
LINE
8
1
10
350.000000
20
-2826.082677
30
0
11
354.724409
21
-2826.082677
31
0
0
LINE
8
1
10
350.000000
20
-2826.082677
30
0
11
350.000000
21
-2860.334646
31
0
0
LINE
8
1
10
354.724409
20
-2826.082677
30
0
11
354.724409
21
-2860.334646
31
0
0
LINE
8
1
10
350.000000
20
-2860.334646
30
0
11
354.724409
21
-2860.334646
31
0
0
LINE
8
1
10
403.149606
20
-2526.082677
30
0
11
407.874016
21
-2526.082677
31
0
0
LINE
8
1
10
403.149606
20
-2526.082677
30
0
11
403.149606
21
-2648.917323
31
0
0
LINE
8
1
10
407.874016
20
-2526.082677
30
0
11
407.874016
21
-2648.917323
31
0
0
LINE
8
1
10
403.149606
20
-2648.917323
30
0
11
407.874016
21
-2648.917323
31
0
0
LINE
8
1
10
403.149606
20
-2826.082677
30
0
11
407.874016
21
-2826.082677
31
0
0
LINE
8
1
10
403.149606
20
-2826.082677
30
0
11
403.149606
21
-2948.917323
31
0
0
LINE
8
1
10
407.874016
20
-2826.082677
30
0
11
407.874016
21
-2948.917323
31
0
0
LINE
8
1
10
403.149606
20
-2948.917323
30
0
11
407.874016
21
-2948.917323
31
0
0
LINE
8
1
10
146.850394
20
-2478.444882
30
0
11
151.574803
21
-2478.444882
31
0
0
LINE
8
1
10
146.850394
20
-2478.444882
30
0
11
146.850394
21
-2996.555118
31
0
0
LINE
8
1
10
151.574803
20
-2478.444882
30
0
11
151.574803
21
-2996.555118
31
0
0
LINE
8
1
10
146.850394
20
-2996.555118
30
0
11
151.574803
21
-2996.555118
31
0
0
LINE
8
1
10
363.779528
20
-2914.665354
30
0
11
368.503937
21
-2914.665354
31
0
0
LINE
8
1
10
363.779528
20
-2914.665354
30
0
11
363.779528
21
-2939.074803
31
0
0
LINE
8
1
10
368.503937
20
-2914.665354
30
0
11
368.503937
21
-2939.074803
31
0
0
LINE
8
1
10
363.779528
20
-2939.074803
30
0
11
368.503937
21
-2939.074803
31
0
0
LINE
8
1
10
180.708661
20
-2914.665354
30
0
11
185.433071
21
-2914.665354
31
0
0
LINE
8
1
10
180.708661
20
-2914.665354
30
0
11
180.708661
21
-2948.917323
31
0
0
LINE
8
1
10
185.433071
20
-2914.665354
30
0
11
185.433071
21
-2948.917323
31
0
0
LINE
8
1
10
180.708661
20
-2948.917323
30
0
11
185.433071
21
-2948.917323
31
0
0
LINE
8
1
10
350.000000
20
-2526.082677
30
0
11
354.724409
21
-2526.082677
31
0
0
LINE
8
1
10
350.000000
20
-2526.082677
30
0
11
350.000000
21
-2560.334646
31
0
0
LINE
8
1
10
354.724409
20
-2526.082677
30
0
11
354.724409
21
-2560.334646
31
0
0
LINE
8
1
10
350.000000
20
-2560.334646
30
0
11
354.724409
21
-2560.334646
31
0
0
LINE
8
1
10
350.000000
20
-2614.665354
30
0
11
354.724409
21
-2614.665354
31
0
0
LINE
8
1
10
350.000000
20
-2614.665354
30
0
11
350.000000
21
-2648.917323
31
0
0
LINE
8
1
10
354.724409
20
-2614.665354
30
0
11
354.724409
21
-2648.917323
31
0
0
LINE
8
1
10
350.000000
20
-2648.917323
30
0
11
354.724409
21
-2648.917323
31
0
0
LINE
8
1
10
350.000000
20
-2914.665354
30
0
11
368.503937
21
-2914.665354
31
0
0
LINE
8
1
10
350.000000
20
-2914.665354
30
0
11
350.000000
21
-2919.389764
31
0
0
LINE
8
1
10
368.503937
20
-2914.665354
30
0
11
368.503937
21
-2919.389764
31
0
0
LINE
8
1
10
350.000000
20
-2919.389764
30
0
11
368.503937
21
-2919.389764
31
0
0
LINE
8
1
10
350.000000
20
-2855.610236
30
0
11
368.503937
21
-2855.610236
31
0
0
LINE
8
1
10
350.000000
20
-2855.610236
30
0
11
350.000000
21
-2860.334646
31
0
0
LINE
8
1
10
368.503937
20
-2855.610236
30
0
11
368.503937
21
-2860.334646
31
0
0
LINE
8
1
10
350.000000
20
-2860.334646
30
0
11
368.503937
21
-2860.334646
31
0
0
LINE
8
1
10
363.779528
20
-2526.082677
30
0
11
407.874016
21
-2526.082677
31
0
0
LINE
8
1
10
363.779528
20
-2526.082677
30
0
11
363.779528
21
-2540.649606
31
0
0
LINE
8
1
10
407.874016
20
-2526.082677
30
0
11
407.874016
21
-2540.649606
31
0
0
LINE
8
1
10
363.779528
20
-2540.649606
30
0
11
407.874016
21
-2540.649606
31
0
0
LINE
8
1
10
146.850394
20
-2478.444882
30
0
11
445.669291
21
-2478.444882
31
0
0
LINE
8
1
10
146.850394
20
-2478.444882
30
0
11
146.850394
21
-2483.169291
31
0
0
LINE
8
1
10
445.669291
20
-2478.444882
30
0
11
445.669291
21
-2483.169291
31
0
0
LINE
8
1
10
146.850394
20
-2483.169291
30
0
11
445.669291
21
-2483.169291
31
0
0
LINE
8
1
10
180.708661
20
-2676.082677
30
0
11
185.433071
21
-2676.082677
31
0
0
LINE
8
1
10
180.708661
20
-2676.082677
30
0
11
180.708661
21
-2710.334646
31
0
0
LINE
8
1
10
185.433071
20
-2676.082677
30
0
11
185.433071
21
-2710.334646
31
0
0
LINE
8
1
10
180.708661
20
-2710.334646
30
0
11
185.433071
21
-2710.334646
31
0
0
LINE
8
1
10
363.779528
20
-2614.665354
30
0
11
368.503937
21
-2614.665354
31
0
0
LINE
8
1
10
363.779528
20
-2614.665354
30
0
11
363.779528
21
-2639.074803
31
0
0
LINE
8
1
10
368.503937
20
-2614.665354
30
0
11
368.503937
21
-2639.074803
31
0
0
LINE
8
1
10
363.779528
20
-2639.074803
30
0
11
368.503937
21
-2639.074803
31
0
0
LINE
8
1
10
180.708661
20
-2826.082677
30
0
11
354.724409
21
-2826.082677
31
0
0
LINE
8
1
10
180.708661
20
-2826.082677
30
0
11
180.708661
21
-2830.807087
31
0
0
LINE
8
1
10
354.724409
20
-2826.082677
30
0
11
354.724409
21
-2830.807087
31
0
0
LINE
8
1
10
180.708661
20
-2830.807087
30
0
11
354.724409
21
-2830.807087
31
0
0
LINE
8
1
10
363.779528
20
-2676.082677
30
0
11
407.874016
21
-2676.082677
31
0
0
LINE
8
1
10
363.779528
20
-2676.082677
30
0
11
363.779528
21
-2690.649606
31
0
0
LINE
8
1
10
407.874016
20
-2676.082677
30
0
11
407.874016
21
-2690.649606
31
0
0
LINE
8
1
10
363.779528
20
-2690.649606
30
0
11
407.874016
21
-2690.649606
31
0
0
LINE
8
1
10
403.149606
20
-2676.082677
30
0
11
407.874016
21
-2676.082677
31
0
0
LINE
8
1
10
403.149606
20
-2676.082677
30
0
11
403.149606
21
-2798.917323
31
0
0
LINE
8
1
10
407.874016
20
-2676.082677
30
0
11
407.874016
21
-2798.917323
31
0
0
LINE
8
1
10
403.149606
20
-2798.917323
30
0
11
407.874016
21
-2798.917323
31
0
0
LINE
8
1
10
440.944882
20
-2478.444882
30
0
11
445.669291
21
-2478.444882
31
0
0
LINE
8
1
10
440.944882
20
-2478.444882
30
0
11
440.944882
21
-2996.555118
31
0
0
LINE
8
1
10
445.669291
20
-2478.444882
30
0
11
445.669291
21
-2996.555118
31
0
0
LINE
8
1
10
440.944882
20
-2996.555118
30
0
11
445.669291
21
-2996.555118
31
0
0
LINE
8
1
10
363.779528
20
-2764.665354
30
0
11
368.503937
21
-2764.665354
31
0
0
LINE
8
1
10
363.779528
20
-2764.665354
30
0
11
363.779528
21
-2789.074803
31
0
0
LINE
8
1
10
368.503937
20
-2764.665354
30
0
11
368.503937
21
-2789.074803
31
0
0
LINE
8
1
10
363.779528
20
-2789.074803
30
0
11
368.503937
21
-2789.074803
31
0
0
LINE
8
1
10
180.708661
20
-2676.082677
30
0
11
354.724409
21
-2676.082677
31
0
0
LINE
8
1
10
180.708661
20
-2676.082677
30
0
11
180.708661
21
-2680.807087
31
0
0
LINE
8
1
10
354.724409
20
-2676.082677
30
0
11
354.724409
21
-2680.807087
31
0
0
LINE
8
1
10
180.708661
20
-2680.807087
30
0
11
354.724409
21
-2680.807087
31
0
0
LINE
8
1
10
146.850394
20
-2991.830709
30
0
11
445.669291
21
-2991.830709
31
0
0
LINE
8
1
10
146.850394
20
-2991.830709
30
0
11
146.850394
21
-2996.555118
31
0
0
LINE
8
1
10
445.669291
20
-2991.830709
30
0
11
445.669291
21
-2996.555118
31
0
0
LINE
8
1
10
146.850394
20
-2996.555118
30
0
11
445.669291
21
-2996.555118
31
0
0
LINE
8
1
10
180.708661
20
-2526.082677
30
0
11
354.724409
21
-2526.082677
31
0
0
LINE
8
1
10
180.708661
20
-2526.082677
30
0
11
180.708661
21
-2530.807087
31
0
0
LINE
8
1
10
354.724409
20
-2526.082677
30
0
11
354.724409
21
-2530.807087
31
0
0
LINE
8
1
10
180.708661
20
-2530.807087
30
0
11
354.724409
21
-2530.807087
31
0
0
LINE
8
1
10
180.708661
20
-2526.082677
30
0
11
185.433071
21
-2526.082677
31
0
0
LINE
8
1
10
180.708661
20
-2526.082677
30
0
11
180.708661
21
-2560.334646
31
0
0
LINE
8
1
10
185.433071
20
-2526.082677
30
0
11
185.433071
21
-2560.334646
31
0
0
LINE
8
1
10
180.708661
20
-2560.334646
30
0
11
185.433071
21
-2560.334646
31
0
0
LINE
8
1
10
180.708661
20
-2944.192913
30
0
11
354.724409
21
-2944.192913
31
0
0
LINE
8
1
10
180.708661
20
-2944.192913
30
0
11
180.708661
21
-2948.917323
31
0
0
LINE
8
1
10
354.724409
20
-2944.192913
30
0
11
354.724409
21
-2948.917323
31
0
0
LINE
8
1
10
180.708661
20
-2948.917323
30
0
11
354.724409
21
-2948.917323
31
0
0
LINE
8
1
10
180.708661
20
-2644.192913
30
0
11
354.724409
21
-2644.192913
31
0
0
LINE
8
1
10
180.708661
20
-2644.192913
30
0
11
180.708661
21
-2648.917323
31
0
0
LINE
8
1
10
354.724409
20
-2644.192913
30
0
11
354.724409
21
-2648.917323
31
0
0
LINE
8
1
10
180.708661
20
-2648.917323
30
0
11
354.724409
21
-2648.917323
31
0
0
LINE
8
1
10
350.000000
20
-2764.665354
30
0
11
368.503937
21
-2764.665354
31
0
0
LINE
8
1
10
350.000000
20
-2764.665354
30
0
11
350.000000
21
-2769.389764
31
0
0
LINE
8
1
10
368.503937
20
-2764.665354
30
0
11
368.503937
21
-2769.389764
31
0
0
LINE
8
1
10
350.000000
20
-2769.389764
30
0
11
368.503937
21
-2769.389764
31
0
0
LINE
8
1
10
350.000000
20
-2914.665354
30
0
11
354.724409
21
-2914.665354
31
0
0
LINE
8
1
10
350.000000
20
-2914.665354
30
0
11
350.000000
21
-2948.917323
31
0
0
LINE
8
1
10
354.724409
20
-2914.665354
30
0
11
354.724409
21
-2948.917323
31
0
0
LINE
8
1
10
350.000000
20
-2948.917323
30
0
11
354.724409
21
-2948.917323
31
0
0
LINE
8
1
10
363.779528
20
-2784.350394
30
0
11
407.874016
21
-2784.350394
31
0
0
LINE
8
1
10
363.779528
20
-2784.350394
30
0
11
363.779528
21
-2798.917323
31
0
0
LINE
8
1
10
407.874016
20
-2784.350394
30
0
11
407.874016
21
-2798.917323
31
0
0
LINE
8
1
10
363.779528
20
-2798.917323
30
0
11
407.874016
21
-2798.917323
31
0
0
LINE
8
1
10
456.299213
20
-2463.090551
30
0
11
461.023622
21
-2463.090551
31
0
0
LINE
8
1
10
456.299213
20
-2463.090551
30
0
11
456.299213
21
-2546.555118
31
0
0
LINE
8
1
10
461.023622
20
-2463.090551
30
0
11
461.023622
21
-2546.555118
31
0
0
LINE
8
1
10
456.299213
20
-2546.555118
30
0
11
461.023622
21
-2546.555118
31
0
0
LINE
8
1
10
350.000000
20
-2614.665354
30
0
11
368.503937
21
-2614.665354
31
0
0
LINE
8
1
10
350.000000
20
-2614.665354
30
0
11
350.000000
21
-2619.389764
31
0
0
LINE
8
1
10
368.503937
20
-2614.665354
30
0
11
368.503937
21
-2619.389764
31
0
0
LINE
8
1
10
350.000000
20
-2619.389764
30
0
11
368.503937
21
-2619.389764
31
0
0
LINE
8
1
10
407.086614
20
-2463.090551
30
0
11
461.023622
21
-2463.090551
31
0
0
LINE
8
1
10
407.086614
20
-2463.090551
30
0
11
407.086614
21
-2467.814961
31
0
0
LINE
8
1
10
461.023622
20
-2463.090551
30
0
11
461.023622
21
-2467.814961
31
0
0
LINE
8
1
10
407.086614
20
-2467.814961
30
0
11
461.023622
21
-2467.814961
31
0
0
LINE
8
1
10
350.000000
20
-2705.610236
30
0
11
368.503937
21
-2705.610236
31
0
0
LINE
8
1
10
350.000000
20
-2705.610236
30
0
11
350.000000
21
-2710.334646
31
0
0
LINE
8
1
10
368.503937
20
-2705.610236
30
0
11
368.503937
21
-2710.334646
31
0
0
LINE
8
1
10
350.000000
20
-2710.334646
30
0
11
368.503937
21
-2710.334646
31
0
0
LINE
8
1
10
350.000000
20
-2764.665354
30
0
11
354.724409
21
-2764.665354
31
0
0
LINE
8
1
10
350.000000
20
-2764.665354
30
0
11
350.000000
21
-2798.917323
31
0
0
LINE
8
1
10
354.724409
20
-2764.665354
30
0
11
354.724409
21
-2798.917323
31
0
0
LINE
8
1
10
350.000000
20
-2798.917323
30
0
11
354.724409
21
-2798.917323
31
0
0
LINE
8
1
10
180.708661
20
-2764.665354
30
0
11
185.433071
21
-2764.665354
31
0
0
LINE
8
1
10
180.708661
20
-2764.665354
30
0
11
180.708661
21
-2798.917323
31
0
0
LINE
8
1
10
185.433071
20
-2764.665354
30
0
11
185.433071
21
-2798.917323
31
0
0
LINE
8
1
10
180.708661
20
-2798.917323
30
0
11
185.433071
21
-2798.917323
31
0
0
LINE
8
1
10
350.000000
20
-2555.610236
30
0
11
368.503937
21
-2555.610236
31
0
0
LINE
8
1
10
350.000000
20
-2555.610236
30
0
11
350.000000
21
-2560.334646
31
0
0
LINE
8
1
10
368.503937
20
-2555.610236
30
0
11
368.503937
21
-2560.334646
31
0
0
LINE
8
1
10
350.000000
20
-2560.334646
30
0
11
368.503937
21
-2560.334646
31
0
0
LINE
8
1
10
363.779528
20
-2826.082677
30
0
11
407.874016
21
-2826.082677
31
0
0
LINE
8
1
10
363.779528
20
-2826.082677
30
0
11
363.779528
21
-2840.649606
31
0
0
LINE
8
1
10
407.874016
20
-2826.082677
30
0
11
407.874016
21
-2840.649606
31
0
0
LINE
8
1
10
363.779528
20
-2840.649606
30
0
11
407.874016
21
-2840.649606
31
0
0
LINE
8
1
10
363.779528
20
-2634.350394
30
0
11
407.874016
21
-2634.350394
31
0
0
LINE
8
1
10
363.779528
20
-2634.350394
30
0
11
363.779528
21
-2648.917323
31
0
0
LINE
8
1
10
407.874016
20
-2634.350394
30
0
11
407.874016
21
-2648.917323
31
0
0
LINE
8
1
10
363.779528
20
-2648.917323
30
0
11
407.874016
21
-2648.917323
31
0
0
LINE
8
1
10
180.708661
20
-2826.082677
30
0
11
185.433071
21
-2826.082677
31
0
0
LINE
8
1
10
180.708661
20
-2826.082677
30
0
11
180.708661
21
-2860.334646
31
0
0
LINE
8
1
10
185.433071
20
-2826.082677
30
0
11
185.433071
21
-2860.334646
31
0
0
LINE
8
1
10
180.708661
20
-2860.334646
30
0
11
185.433071
21
-2860.334646
31
0
0
LINE
8
1
10
363.779528
20
-2535.925197
30
0
11
368.503937
21
-2535.925197
31
0
0
LINE
8
1
10
363.779528
20
-2535.925197
30
0
11
363.779528
21
-2560.334646
31
0
0
LINE
8
1
10
368.503937
20
-2535.925197
30
0
11
368.503937
21
-2560.334646
31
0
0
LINE
8
1
10
363.779528
20
-2560.334646
30
0
11
368.503937
21
-2560.334646
31
0
0
LINE
8
1
10
363.779528
20
-2685.925197
30
0
11
368.503937
21
-2685.925197
31
0
0
LINE
8
1
10
363.779528
20
-2685.925197
30
0
11
363.779528
21
-2710.334646
31
0
0
LINE
8
1
10
368.503937
20
-2685.925197
30
0
11
368.503937
21
-2710.334646
31
0
0
LINE
8
1
10
363.779528
20
-2710.334646
30
0
11
368.503937
21
-2710.334646
31
0
0
LINE
8
1
10
350.000000
20
-2676.082677
30
0
11
354.724409
21
-2676.082677
31
0
0
LINE
8
1
10
350.000000
20
-2676.082677
30
0
11
350.000000
21
-2710.334646
31
0
0
LINE
8
1
10
354.724409
20
-2676.082677
30
0
11
354.724409
21
-2710.334646
31
0
0
LINE
8
1
10
350.000000
20
-2710.334646
30
0
11
354.724409
21
-2710.334646
31
0
0
LINE
8
1
10
180.708661
20
-2614.665354
30
0
11
185.433071
21
-2614.665354
31
0
0
LINE
8
1
10
180.708661
20
-2614.665354
30
0
11
180.708661
21
-2648.917323
31
0
0
LINE
8
1
10
185.433071
20
-2614.665354
30
0
11
185.433071
21
-2648.917323
31
0
0
LINE
8
1
10
180.708661
20
-2648.917323
30
0
11
185.433071
21
-2648.917323
31
0
0
LINE
8
1
10
180.708661
20
-2855.610236
30
0
11
191.657087
21
-2855.610236
31
0
0
LINE
8
1
10
180.708661
20
-2855.610236
30
0
11
180.708661
21
-2919.375866
31
0
0
LINE
8
1
10
191.657087
20
-2855.610236
30
0
11
191.657087
21
-2919.375866
31
0
0
LINE
8
1
10
180.708661
20
-2919.375866
30
0
11
191.657087
21
-2919.375866
31
0
0
LINE
8
1
10
180.708661
20
-2705.610236
30
0
11
191.657087
21
-2705.610236
31
0
0
LINE
8
1
10
180.708661
20
-2705.610236
30
0
11
180.708661
21
-2769.375866
31
0
0
LINE
8
1
10
191.657087
20
-2705.610236
30
0
11
191.657087
21
-2769.375866
31
0
0
LINE
8
1
10
180.708661
20
-2769.375866
30
0
11
191.657087
21
-2769.375866
31
0
0
LINE
8
1
10
180.708661
20
-2555.610236
30
0
11
191.657087
21
-2555.610236
31
0
0
LINE
8
1
10
180.708661
20
-2555.610236
30
0
11
180.708661
21
-2619.375866
31
0
0
LINE
8
1
10
191.657087
20
-2555.610236
30
0
11
191.657087
21
-2619.375866
31
0
0
LINE
8
1
10
180.708661
20
-2619.375866
30
0
11
191.657087
21
-2619.375866
31
0
0
LINE
8
1
10
601.870079
20
-2134.262835
30
0
11
606.594488
21
-2134.262835
31
0
0
LINE
8
1
10
601.870079
20
-2134.262835
30
0
11
601.870079
21
-2159.044252
31
0
0
LINE
8
1
10
606.594488
20
-2134.262835
30
0
11
606.594488
21
-2159.044252
31
0
0
LINE
8
1
10
601.870079
20
-2159.044252
30
0
11
606.594488
21
-2159.044252
31
0
0
LINE
8
1
10
560.728346
20
-2134.262835
30
0
11
565.452756
21
-2134.262835
31
0
0
LINE
8
1
10
560.728346
20
-2134.262835
30
0
11
560.728346
21
-2159.044252
31
0
0
LINE
8
1
10
565.452756
20
-2134.262835
30
0
11
565.452756
21
-2159.044252
31
0
0
LINE
8
1
10
560.728346
20
-2159.044252
30
0
11
565.452756
21
-2159.044252
31
0
0
LINE
8
1
10
2666.732283
20
-1543.110236
30
0
11
2683.267717
21
-1543.110236
31
0
0
LINE
8
1
10
2666.732283
20
-1543.110236
30
0
11
2666.732283
21
-1559.645669
31
0
0
LINE
8
1
10
2683.267717
20
-1543.110236
30
0
11
2683.267717
21
-1559.645669
31
0
0
LINE
8
1
10
2666.732283
20
-1559.645669
30
0
11
2683.267717
21
-1559.645669
31
0
0
LINE
8
1
10
2580.118110
20
-1423.031496
30
0
11
2663.582677
21
-1423.031496
31
0
0
LINE
8
1
10
2580.118110
20
-1423.031496
30
0
11
2580.118110
21
-1427.755906
31
0
0
LINE
8
1
10
2663.582677
20
-1423.031496
30
0
11
2663.582677
21
-1427.755906
31
0
0
LINE
8
1
10
2580.118110
20
-1427.755906
30
0
11
2663.582677
21
-1427.755906
31
0
0
LINE
8
1
10
2666.732283
20
-1554.921260
30
0
11
2683.267717
21
-1554.921260
31
0
0
LINE
8
1
10
2666.732283
20
-1554.921260
30
0
11
2666.732283
21
-1571.456693
31
0
0
LINE
8
1
10
2683.267717
20
-1554.921260
30
0
11
2683.267717
21
-1571.456693
31
0
0
LINE
8
1
10
2666.732283
20
-1571.456693
30
0
11
2683.267717
21
-1571.456693
31
0
0
LINE
8
1
10
2658.858268
20
-1423.031496
30
0
11
2663.582677
21
-1423.031496
31
0
0
LINE
8
1
10
2658.858268
20
-1423.031496
30
0
11
2658.858268
21
-1589.173228
31
0
0
LINE
8
1
10
2663.582677
20
-1423.031496
30
0
11
2663.582677
21
-1589.173228
31
0
0
LINE
8
1
10
2658.858268
20
-1589.173228
30
0
11
2663.582677
21
-1589.173228
31
0
0
LINE
8
1
10
2678.543307
20
-1543.110236
30
0
11
2683.267717
21
-1543.110236
31
0
0
LINE
8
1
10
2678.543307
20
-1543.110236
30
0
11
2678.543307
21
-1571.456693
31
0
0
LINE
8
1
10
2683.267717
20
-1543.110236
30
0
11
2683.267717
21
-1571.456693
31
0
0
LINE
8
1
10
2678.543307
20
-1571.456693
30
0
11
2683.267717
21
-1571.456693
31
0
0
LINE
8
1
10
2580.118110
20
-1584.448819
30
0
11
2663.582677
21
-1584.448819
31
0
0
LINE
8
1
10
2580.118110
20
-1584.448819
30
0
11
2580.118110
21
-1589.173228
31
0
0
LINE
8
1
10
2663.582677
20
-1584.448819
30
0
11
2663.582677
21
-1589.173228
31
0
0
LINE
8
1
10
2580.118110
20
-1589.173228
30
0
11
2663.582677
21
-1589.173228
31
0
0
LINE
8
1
10
2580.118110
20
-1423.031496
30
0
11
2584.842520
21
-1423.031496
31
0
0
LINE
8
1
10
2580.118110
20
-1423.031496
30
0
11
2580.118110
21
-1589.173228
31
0
0
LINE
8
1
10
2584.842520
20
-1423.031496
30
0
11
2584.842520
21
-1589.173228
31
0
0
LINE
8
1
10
2580.118110
20
-1589.173228
30
0
11
2584.842520
21
-1589.173228
31
0
0
LINE
8
1
10
2410.118110
20
-1423.031496
30
0
11
2414.842520
21
-1423.031496
31
0
0
LINE
8
1
10
2410.118110
20
-1423.031496
30
0
11
2410.118110
21
-1589.173228
31
0
0
LINE
8
1
10
2414.842520
20
-1423.031496
30
0
11
2414.842520
21
-1589.173228
31
0
0
LINE
8
1
10
2410.118110
20
-1589.173228
30
0
11
2414.842520
21
-1589.173228
31
0
0
LINE
8
1
10
2488.858268
20
-1423.031496
30
0
11
2493.582677
21
-1423.031496
31
0
0
LINE
8
1
10
2488.858268
20
-1423.031496
30
0
11
2488.858268
21
-1589.173228
31
0
0
LINE
8
1
10
2493.582677
20
-1423.031496
30
0
11
2493.582677
21
-1589.173228
31
0
0
LINE
8
1
10
2488.858268
20
-1589.173228
30
0
11
2493.582677
21
-1589.173228
31
0
0
LINE
8
1
10
2410.118110
20
-1423.031496
30
0
11
2493.582677
21
-1423.031496
31
0
0
LINE
8
1
10
2410.118110
20
-1423.031496
30
0
11
2410.118110
21
-1427.755906
31
0
0
LINE
8
1
10
2493.582677
20
-1423.031496
30
0
11
2493.582677
21
-1427.755906
31
0
0
LINE
8
1
10
2410.118110
20
-1427.755906
30
0
11
2493.582677
21
-1427.755906
31
0
0
LINE
8
1
10
2410.118110
20
-1584.448819
30
0
11
2493.582677
21
-1584.448819
31
0
0
LINE
8
1
10
2410.118110
20
-1584.448819
30
0
11
2410.118110
21
-1589.173228
31
0
0
LINE
8
1
10
2493.582677
20
-1584.448819
30
0
11
2493.582677
21
-1589.173228
31
0
0
LINE
8
1
10
2410.118110
20
-1589.173228
30
0
11
2493.582677
21
-1589.173228
31
0
0
LINE
8
1
10
2496.732283
20
-1554.921260
30
0
11
2513.267717
21
-1554.921260
31
0
0
LINE
8
1
10
2496.732283
20
-1554.921260
30
0
11
2496.732283
21
-1571.456693
31
0
0
LINE
8
1
10
2513.267717
20
-1554.921260
30
0
11
2513.267717
21
-1571.456693
31
0
0
LINE
8
1
10
2496.732283
20
-1571.456693
30
0
11
2513.267717
21
-1571.456693
31
0
0
LINE
8
1
10
2496.732283
20
-1543.110236
30
0
11
2513.267717
21
-1543.110236
31
0
0
LINE
8
1
10
2496.732283
20
-1543.110236
30
0
11
2496.732283
21
-1559.645669
31
0
0
LINE
8
1
10
2513.267717
20
-1543.110236
30
0
11
2513.267717
21
-1559.645669
31
0
0
LINE
8
1
10
2496.732283
20
-1559.645669
30
0
11
2513.267717
21
-1559.645669
31
0
0
LINE
8
1
10
2508.543307
20
-1543.110236
30
0
11
2513.267717
21
-1543.110236
31
0
0
LINE
8
1
10
2508.543307
20
-1543.110236
30
0
11
2508.543307
21
-1571.456693
31
0
0
LINE
8
1
10
2513.267717
20
-1543.110236
30
0
11
2513.267717
21
-1571.456693
31
0
0
LINE
8
1
10
2508.543307
20
-1571.456693
30
0
11
2513.267717
21
-1571.456693
31
0
0
LINE
8
1
10
3232.874016
20
-1272.244094
30
0
11
3414.763780
21
-1272.244094
31
0
0
LINE
8
1
10
3232.874016
20
-1272.244094
30
0
11
3232.874016
21
-1276.968504
31
0
0
LINE
8
1
10
3414.763780
20
-1272.244094
30
0
11
3414.763780
21
-1276.968504
31
0
0
LINE
8
1
10
3232.874016
20
-1276.968504
30
0
11
3414.763780
21
-1276.968504
31
0
0
LINE
8
1
10
3232.874016
20
-1528.149606
30
0
11
3414.763780
21
-1528.149606
31
0
0
LINE
8
1
10
3232.874016
20
-1528.149606
30
0
11
3232.874016
21
-1532.874016
31
0
0
LINE
8
1
10
3414.763780
20
-1528.149606
30
0
11
3414.763780
21
-1532.874016
31
0
0
LINE
8
1
10
3232.874016
20
-1532.874016
30
0
11
3414.763780
21
-1532.874016
31
0
0
LINE
8
1
10
3459.251969
20
-1370.669291
30
0
11
3463.976378
21
-1370.669291
31
0
0
LINE
8
1
10
3459.251969
20
-1370.669291
30
0
11
3459.251969
21
-1434.448819
31
0
0
LINE
8
1
10
3463.976378
20
-1370.669291
30
0
11
3463.976378
21
-1434.448819
31
0
0
LINE
8
1
10
3459.251969
20
-1434.448819
30
0
11
3463.976378
21
-1434.448819
31
0
0
LINE
8
1
10
3183.661417
20
-1370.669291
30
0
11
3188.385827
21
-1370.669291
31
0
0
LINE
8
1
10
3183.661417
20
-1370.669291
30
0
11
3183.661417
21
-1434.448819
31
0
0
LINE
8
1
10
3188.385827
20
-1370.669291
30
0
11
3188.385827
21
-1434.448819
31
0
0
LINE
8
1
10
3183.661417
20
-1434.448819
30
0
11
3188.385827
21
-1434.448819
31
0
0
LINE
8
1
10
532.342520
20
-3004.389764
30
0
11
537.342520
21
-3004.389764
31
0
0
LINE
8
1
10
532.342520
20
-3004.389764
30
0
11
532.342520
21
-3365.688976
31
0
0
LINE
8
1
10
537.342520
20
-3004.389764
30
0
11
537.342520
21
-3365.688976
31
0
0
LINE
8
1
10
532.342520
20
-3365.688976
30
0
11
537.342520
21
-3365.688976
31
0
0
LINE
8
1
10
1282.086614
20
-3327.598425
30
0
11
1375.811024
21
-3327.598425
31
0
0
LINE
8
1
10
1282.086614
20
-3327.598425
30
0
11
1282.086614
21
-3332.322835
31
0
0
LINE
8
1
10
1375.811024
20
-3327.598425
30
0
11
1375.811024
21
-3332.322835
31
0
0
LINE
8
1
10
1282.086614
20
-3332.322835
30
0
11
1375.811024
21
-3332.322835
31
0
0
LINE
8
1
10
1193.086614
20
-3327.598425
30
0
11
1197.811024
21
-3327.598425
31
0
0
LINE
8
1
10
1193.086614
20
-3327.598425
30
0
11
1193.086614
21
-3365.322835
31
0
0
LINE
8
1
10
1197.811024
20
-3327.598425
30
0
11
1197.811024
21
-3365.322835
31
0
0
LINE
8
1
10
1193.086614
20
-3365.322835
30
0
11
1197.811024
21
-3365.322835
31
0
0
LINE
8
1
10
1371.086614
20
-3327.598425
30
0
11
1375.811024
21
-3327.598425
31
0
0
LINE
8
1
10
1371.086614
20
-3327.598425
30
0
11
1371.086614
21
-3365.322835
31
0
0
LINE
8
1
10
1375.811024
20
-3327.598425
30
0
11
1375.811024
21
-3365.322835
31
0
0
LINE
8
1
10
1371.086614
20
-3365.322835
30
0
11
1375.811024
21
-3365.322835
31
0
0
LINE
8
1
10
532.342520
20
-3360.688976
30
0
11
2036.555118
21
-3360.688976
31
0
0
LINE
8
1
10
532.342520
20
-3360.688976
30
0
11
532.342520
21
-3365.688976
31
0
0
LINE
8
1
10
2036.555118
20
-3360.688976
30
0
11
2036.555118
21
-3365.688976
31
0
0
LINE
8
1
10
532.342520
20
-3365.688976
30
0
11
2036.555118
21
-3365.688976
31
0
0
LINE
8
1
10
532.342520
20
-3004.389764
30
0
11
2036.555118
21
-3004.389764
31
0
0
LINE
8
1
10
532.342520
20
-3004.389764
30
0
11
532.342520
21
-3009.389764
31
0
0
LINE
8
1
10
2036.555118
20
-3004.389764
30
0
11
2036.555118
21
-3009.389764
31
0
0
LINE
8
1
10
532.342520
20
-3009.389764
30
0
11
2036.555118
21
-3009.389764
31
0
0
LINE
8
1
10
2031.555118
20
-3004.389764
30
0
11
2036.555118
21
-3004.389764
31
0
0
LINE
8
1
10
2031.555118
20
-3004.389764
30
0
11
2031.555118
21
-3365.688976
31
0
0
LINE
8
1
10
2036.555118
20
-3004.389764
30
0
11
2036.555118
21
-3365.688976
31
0
0
LINE
8
1
10
2031.555118
20
-3365.688976
30
0
11
2036.555118
21
-3365.688976
31
0
0
LINE
8
1
10
1193.086614
20
-3327.598425
30
0
11
1286.811024
21
-3327.598425
31
0
0
LINE
8
1
10
1193.086614
20
-3327.598425
30
0
11
1193.086614
21
-3332.322835
31
0
0
LINE
8
1
10
1286.811024
20
-3327.598425
30
0
11
1286.811024
21
-3332.322835
31
0
0
LINE
8
1
10
1193.086614
20
-3332.322835
30
0
11
1286.811024
21
-3332.322835
31
0
0
LINE
8
1
10
726.574803
20
-3382.086614
30
0
11
742.322835
21
-3382.086614
31
0
0
LINE
8
1
10
726.574803
20
-3382.086614
30
0
11
726.574803
21
-3397.834646
31
0
0
LINE
8
1
10
742.322835
20
-3382.086614
30
0
11
742.322835
21
-3397.834646
31
0
0
LINE
8
1
10
726.574803
20
-3397.834646
30
0
11
742.322835
21
-3397.834646
31
0
0
LINE
8
1
10
449.271654
20
-406.358268
30
0
11
454.271654
21
-406.358268
31
0
0
LINE
8
1
10
449.271654
20
-406.358268
30
0
11
449.271654
21
-1910.570866
31
0
0
LINE
8
1
10
454.271654
20
-406.358268
30
0
11
454.271654
21
-1910.570866
31
0
0
LINE
8
1
10
449.271654
20
-1910.570866
30
0
11
454.271654
21
-1910.570866
31
0
0
LINE
8
1
10
126.338583
20
-1156.102362
30
0
11
131.062992
21
-1156.102362
31
0
0
LINE
8
1
10
126.338583
20
-1156.102362
30
0
11
126.338583
21
-1249.826772
31
0
0
LINE
8
1
10
131.062992
20
-1156.102362
30
0
11
131.062992
21
-1249.826772
31
0
0
LINE
8
1
10
126.338583
20
-1249.826772
30
0
11
131.062992
21
-1249.826772
31
0
0
LINE
8
1
10
93.338583
20
-1245.102362
30
0
11
131.062992
21
-1245.102362
31
0
0
LINE
8
1
10
93.338583
20
-1245.102362
30
0
11
93.338583
21
-1249.826772
31
0
0
LINE
8
1
10
131.062992
20
-1245.102362
30
0
11
131.062992
21
-1249.826772
31
0
0
LINE
8
1
10
93.338583
20
-1249.826772
30
0
11
131.062992
21
-1249.826772
31
0
0
LINE
8
1
10
93.338583
20
-1067.102362
30
0
11
131.062992
21
-1067.102362
31
0
0
LINE
8
1
10
93.338583
20
-1067.102362
30
0
11
93.338583
21
-1071.826772
31
0
0
LINE
8
1
10
131.062992
20
-1067.102362
30
0
11
131.062992
21
-1071.826772
31
0
0
LINE
8
1
10
93.338583
20
-1071.826772
30
0
11
131.062992
21
-1071.826772
31
0
0
LINE
8
1
10
92.972441
20
-406.358268
30
0
11
454.271654
21
-406.358268
31
0
0
LINE
8
1
10
92.972441
20
-406.358268
30
0
11
92.972441
21
-411.358268
31
0
0
LINE
8
1
10
454.271654
20
-406.358268
30
0
11
454.271654
21
-411.358268
31
0
0
LINE
8
1
10
92.972441
20
-411.358268
30
0
11
454.271654
21
-411.358268
31
0
0
LINE
8
1
10
126.338583
20
-1067.102362
30
0
11
131.062992
21
-1067.102362
31
0
0
LINE
8
1
10
126.338583
20
-1067.102362
30
0
11
126.338583
21
-1160.826772
31
0
0
LINE
8
1
10
131.062992
20
-1067.102362
30
0
11
131.062992
21
-1160.826772
31
0
0
LINE
8
1
10
126.338583
20
-1160.826772
30
0
11
131.062992
21
-1160.826772
31
0
0
LINE
8
1
10
92.972441
20
-406.358268
30
0
11
97.972441
21
-406.358268
31
0
0
LINE
8
1
10
92.972441
20
-406.358268
30
0
11
92.972441
21
-1910.570866
31
0
0
LINE
8
1
10
97.972441
20
-406.358268
30
0
11
97.972441
21
-1910.570866
31
0
0
LINE
8
1
10
92.972441
20
-1910.570866
30
0
11
97.972441
21
-1910.570866
31
0
0
LINE
8
1
10
92.972441
20
-1905.570866
30
0
11
454.271654
21
-1905.570866
31
0
0
LINE
8
1
10
92.972441
20
-1905.570866
30
0
11
92.972441
21
-1910.570866
31
0
0
LINE
8
1
10
454.271654
20
-1905.570866
30
0
11
454.271654
21
-1910.570866
31
0
0
LINE
8
1
10
92.972441
20
-1910.570866
30
0
11
454.271654
21
-1910.570866
31
0
0
LINE
8
1
10
60.826772
20
-600.590551
30
0
11
76.574803
21
-600.590551
31
0
0
LINE
8
1
10
60.826772
20
-600.590551
30
0
11
60.826772
21
-616.338583
31
0
0
LINE
8
1
10
76.574803
20
-600.590551
30
0
11
76.574803
21
-616.338583
31
0
0
LINE
8
1
10
60.826772
20
-616.338583
30
0
11
76.574803
21
-616.338583
31
0
0
LINE
8
1
10
2059.901575
20
-3001.338583
30
0
11
3564.114173
21
-3001.338583
31
0
0
LINE
8
1
10
2059.901575
20
-3001.338583
30
0
11
2059.901575
21
-3006.338583
31
0
0
LINE
8
1
10
3564.114173
20
-3001.338583
30
0
11
3564.114173
21
-3006.338583
31
0
0
LINE
8
1
10
2059.901575
20
-3006.338583
30
0
11
3564.114173
21
-3006.338583
31
0
0
LINE
8
1
10
2059.901575
20
-3001.338583
30
0
11
2064.901575
21
-3001.338583
31
0
0
LINE
8
1
10
2059.901575
20
-3001.338583
30
0
11
2059.901575
21
-3362.637795
31
0
0
LINE
8
1
10
2064.901575
20
-3001.338583
30
0
11
2064.901575
21
-3362.637795
31
0
0
LINE
8
1
10
2059.901575
20
-3362.637795
30
0
11
2064.901575
21
-3362.637795
31
0
0
LINE
8
1
10
2720.645669
20
-3324.547244
30
0
11
2725.370079
21
-3324.547244
31
0
0
LINE
8
1
10
2720.645669
20
-3324.547244
30
0
11
2720.645669
21
-3362.271654
31
0
0
LINE
8
1
10
2725.370079
20
-3324.547244
30
0
11
2725.370079
21
-3362.271654
31
0
0
LINE
8
1
10
2720.645669
20
-3362.271654
30
0
11
2725.370079
21
-3362.271654
31
0
0
LINE
8
1
10
2059.901575
20
-3357.637795
30
0
11
3564.114173
21
-3357.637795
31
0
0
LINE
8
1
10
2059.901575
20
-3357.637795
30
0
11
2059.901575
21
-3362.637795
31
0
0
LINE
8
1
10
3564.114173
20
-3357.637795
30
0
11
3564.114173
21
-3362.637795
31
0
0
LINE
8
1
10
2059.901575
20
-3362.637795
30
0
11
3564.114173
21
-3362.637795
31
0
0
LINE
8
1
10
2720.645669
20
-3324.547244
30
0
11
2814.370079
21
-3324.547244
31
0
0
LINE
8
1
10
2720.645669
20
-3324.547244
30
0
11
2720.645669
21
-3329.271654
31
0
0
LINE
8
1
10
2814.370079
20
-3324.547244
30
0
11
2814.370079
21
-3329.271654
31
0
0
LINE
8
1
10
2720.645669
20
-3329.271654
30
0
11
2814.370079
21
-3329.271654
31
0
0
LINE
8
1
10
3559.114173
20
-3001.338583
30
0
11
3564.114173
21
-3001.338583
31
0
0
LINE
8
1
10
3559.114173
20
-3001.338583
30
0
11
3559.114173
21
-3362.637795
31
0
0
LINE
8
1
10
3564.114173
20
-3001.338583
30
0
11
3564.114173
21
-3362.637795
31
0
0
LINE
8
1
10
3559.114173
20
-3362.637795
30
0
11
3564.114173
21
-3362.637795
31
0
0
LINE
8
1
10
2809.645669
20
-3324.547244
30
0
11
2903.370079
21
-3324.547244
31
0
0
LINE
8
1
10
2809.645669
20
-3324.547244
30
0
11
2809.645669
21
-3329.271654
31
0
0
LINE
8
1
10
2903.370079
20
-3324.547244
30
0
11
2903.370079
21
-3329.271654
31
0
0
LINE
8
1
10
2809.645669
20
-3329.271654
30
0
11
2903.370079
21
-3329.271654
31
0
0
LINE
8
1
10
2898.645669
20
-3324.547244
30
0
11
2903.370079
21
-3324.547244
31
0
0
LINE
8
1
10
2898.645669
20
-3324.547244
30
0
11
2898.645669
21
-3362.271654
31
0
0
LINE
8
1
10
2903.370079
20
-3324.547244
30
0
11
2903.370079
21
-3362.271654
31
0
0
LINE
8
1
10
2898.645669
20
-3362.271654
30
0
11
2903.370079
21
-3362.271654
31
0
0
LINE
8
1
10
2254.133858
20
-3379.035433
30
0
11
2269.881890
21
-3379.035433
31
0
0
LINE
8
1
10
2254.133858
20
-3379.035433
30
0
11
2254.133858
21
-3394.783465
31
0
0
LINE
8
1
10
2269.881890
20
-3379.035433
30
0
11
2269.881890
21
-3394.783465
31
0
0
LINE
8
1
10
2254.133858
20
-3394.783465
30
0
11
2269.881890
21
-3394.783465
31
0
0
LINE
8
1
10
3904.350394
20
-1033.602362
30
0
11
3919.350394
21
-1033.602362
31
0
0
LINE
8
1
10
3904.350394
20
-1033.602362
30
0
11
3904.350394
21
-1098.602362
31
0
0
LINE
8
1
10
3919.350394
20
-1033.602362
30
0
11
3919.350394
21
-1098.602362
31
0
0
LINE
8
1
10
3904.350394
20
-1098.602362
30
0
11
3919.350394
21
-1098.602362
31
0
0
LINE
8
1
10
1004.350394
20
-783.602362
30
0
11
3669.350394
21
-783.602362
31
0
0
LINE
8
1
10
1004.350394
20
-783.602362
30
0
11
1004.350394
21
-798.602362
31
0
0
LINE
8
1
10
3669.350394
20
-783.602362
30
0
11
3669.350394
21
-798.602362
31
0
0
LINE
8
1
10
1004.350394
20
-798.602362
30
0
11
3669.350394
21
-798.602362
31
0
0
LINE
8
1
10
3629.350394
20
-2308.602362
30
0
11
3644.350394
21
-2308.602362
31
0
0
LINE
8
1
10
3629.350394
20
-2308.602362
30
0
11
3629.350394
21
-2338.602362
31
0
0
LINE
8
1
10
3644.350394
20
-2308.602362
30
0
11
3644.350394
21
-2338.602362
31
0
0
LINE
8
1
10
3629.350394
20
-2338.602362
30
0
11
3644.350394
21
-2338.602362
31
0
0
LINE
8
1
10
3104.350394
20
-2308.602362
30
0
11
3644.350394
21
-2308.602362
31
0
0
LINE
8
1
10
3104.350394
20
-2308.602362
30
0
11
3104.350394
21
-2323.602362
31
0
0
LINE
8
1
10
3644.350394
20
-2308.602362
30
0
11
3644.350394
21
-2323.602362
31
0
0
LINE
8
1
10
3104.350394
20
-2323.602362
30
0
11
3644.350394
21
-2323.602362
31
0
0
LINE
8
1
10
3104.350394
20
-1608.602362
30
0
11
3919.350394
21
-1608.602362
31
0
0
LINE
8
1
10
3104.350394
20
-1608.602362
30
0
11
3104.350394
21
-1623.602362
31
0
0
LINE
8
1
10
3919.350394
20
-1608.602362
30
0
11
3919.350394
21
-1623.602362
31
0
0
LINE
8
1
10
3104.350394
20
-1623.602362
30
0
11
3919.350394
21
-1623.602362
31
0
0
LINE
8
1
10
3629.350394
20
-2323.602362
30
0
11
3644.350394
21
-2323.602362
31
0
0
LINE
8
1
10
3629.350394
20
-2323.602362
30
0
11
3629.350394
21
-2948.602362
31
0
0
LINE
8
1
10
3644.350394
20
-2323.602362
30
0
11
3644.350394
21
-2948.602362
31
0
0
LINE
8
1
10
3629.350394
20
-2948.602362
30
0
11
3644.350394
21
-2948.602362
31
0
0
LINE
8
1
10
3904.350394
20
-1593.602362
30
0
11
3919.350394
21
-1593.602362
31
0
0
LINE
8
1
10
3904.350394
20
-1593.602362
30
0
11
3904.350394
21
-1623.602362
31
0
0
LINE
8
1
10
3919.350394
20
-1593.602362
30
0
11
3919.350394
21
-1623.602362
31
0
0
LINE
8
1
10
3904.350394
20
-1623.602362
30
0
11
3919.350394
21
-1623.602362
31
0
0
LINE
8
1
10
3104.350394
20
-1608.602362
30
0
11
3119.350394
21
-1608.602362
31
0
0
LINE
8
1
10
3104.350394
20
-1608.602362
30
0
11
3104.350394
21
-2323.602362
31
0
0
LINE
8
1
10
3119.350394
20
-1608.602362
30
0
11
3119.350394
21
-2323.602362
31
0
0
LINE
8
1
10
3104.350394
20
-2323.602362
30
0
11
3119.350394
21
-2323.602362
31
0
0
LINE
8
1
10
1004.350394
20
-2933.602362
30
0
11
3644.350394
21
-2933.602362
31
0
0
LINE
8
1
10
1004.350394
20
-2933.602362
30
0
11
1004.350394
21
-2948.602362
31
0
0
LINE
8
1
10
3644.350394
20
-2933.602362
30
0
11
3644.350394
21
-2948.602362
31
0
0
LINE
8
1
10
1004.350394
20
-2948.602362
30
0
11
3644.350394
21
-2948.602362
31
0
0
LINE
8
1
10
3904.350394
20
-1083.602362
30
0
11
3919.350394
21
-1083.602362
31
0
0
LINE
8
1
10
3904.350394
20
-1083.602362
30
0
11
3904.350394
21
-1608.602362
31
0
0
LINE
8
1
10
3919.350394
20
-1083.602362
30
0
11
3919.350394
21
-1608.602362
31
0
0
LINE
8
1
10
3904.350394
20
-1608.602362
30
0
11
3919.350394
21
-1608.602362
31
0
0
LINE
8
1
10
504.350394
20
-1283.602362
30
0
11
519.350394
21
-1283.602362
31
0
0
LINE
8
1
10
504.350394
20
-1283.602362
30
0
11
504.350394
21
-2448.602362
31
0
0
LINE
8
1
10
519.350394
20
-1283.602362
30
0
11
519.350394
21
-2448.602362
31
0
0
LINE
8
1
10
504.350394
20
-2448.602362
30
0
11
519.350394
21
-2448.602362
31
0
0
LINE
8
1
10
504.350394
20
-783.602362
30
0
11
1019.350394
21
-783.602362
31
0
0
LINE
8
1
10
504.350394
20
-783.602362
30
0
11
504.350394
21
-1298.602362
31
0
0
LINE
8
1
10
1019.350394
20
-783.602362
30
0
11
1019.350394
21
-1298.602362
31
0
0
LINE
8
1
10
504.350394
20
-1298.602362
30
0
11
1019.350394
21
-1298.602362
31
0
0
LINE
8
1
10
3654.350394
20
-783.602362
30
0
11
3919.350394
21
-783.602362
31
0
0
LINE
8
1
10
3654.350394
20
-783.602362
30
0
11
3654.350394
21
-1048.602362
31
0
0
LINE
8
1
10
3919.350394
20
-783.602362
30
0
11
3919.350394
21
-1048.602362
31
0
0
LINE
8
1
10
3654.350394
20
-1048.602362
30
0
11
3919.350394
21
-1048.602362
31
0
0
LINE
8
1
10
504.350394
20
-2433.602362
30
0
11
1019.350394
21
-2433.602362
31
0
0
LINE
8
1
10
504.350394
20
-2433.602362
30
0
11
504.350394
21
-2948.602362
31
0
0
LINE
8
1
10
1019.350394
20
-2433.602362
30
0
11
1019.350394
21
-2948.602362
31
0
0
LINE
8
1
10
504.350394
20
-2948.602362
30
0
11
1019.350394
21
-2948.602362
31
0
0
LINE
8
1
10
2718.858268
20
-2114.370079
30
0
11
2900.748031
21
-2114.370079
31
0
0
LINE
8
1
10
2718.858268
20
-2114.370079
30
0
11
2718.858268
21
-2119.094488
31
0
0
LINE
8
1
10
2900.748031
20
-2114.370079
30
0
11
2900.748031
21
-2119.094488
31
0
0
LINE
8
1
10
2718.858268
20
-2119.094488
30
0
11
2900.748031
21
-2119.094488
31
0
0
LINE
8
1
10
2718.858268
20
-2370.275591
30
0
11
2900.748031
21
-2370.275591
31
0
0
LINE
8
1
10
2718.858268
20
-2370.275591
30
0
11
2718.858268
21
-2375.000000
31
0
0
LINE
8
1
10
2900.748031
20
-2370.275591
30
0
11
2900.748031
21
-2375.000000
31
0
0
LINE
8
1
10
2718.858268
20
-2375.000000
30
0
11
2900.748031
21
-2375.000000
31
0
0
LINE
8
1
10
2945.236220
20
-2212.795276
30
0
11
2949.960630
21
-2212.795276
31
0
0
LINE
8
1
10
2945.236220
20
-2212.795276
30
0
11
2945.236220
21
-2276.574803
31
0
0
LINE
8
1
10
2949.960630
20
-2212.795276
30
0
11
2949.960630
21
-2276.574803
31
0
0
LINE
8
1
10
2945.236220
20
-2276.574803
30
0
11
2949.960630
21
-2276.574803
31
0
0
LINE
8
1
10
2669.645669
20
-2212.795276
30
0
11
2674.370079
21
-2212.795276
31
0
0
LINE
8
1
10
2669.645669
20
-2212.795276
30
0
11
2669.645669
21
-2276.574803
31
0
0
LINE
8
1
10
2674.370079
20
-2212.795276
30
0
11
2674.370079
21
-2276.574803
31
0
0
LINE
8
1
10
2669.645669
20
-2276.574803
30
0
11
2674.370079
21
-2276.574803
31
0
0
LINE
8
1
10
1948.858268
20
-2380.275591
30
0
11
2130.748031
21
-2380.275591
31
0
0
LINE
8
1
10
1948.858268
20
-2380.275591
30
0
11
1948.858268
21
-2385.000000
31
0
0
LINE
8
1
10
2130.748031
20
-2380.275591
30
0
11
2130.748031
21
-2385.000000
31
0
0
LINE
8
1
10
1948.858268
20
-2385.000000
30
0
11
2130.748031
21
-2385.000000
31
0
0
LINE
8
1
10
1948.858268
20
-2124.370079
30
0
11
2130.748031
21
-2124.370079
31
0
0
LINE
8
1
10
1948.858268
20
-2124.370079
30
0
11
1948.858268
21
-2129.094488
31
0
0
LINE
8
1
10
2130.748031
20
-2124.370079
30
0
11
2130.748031
21
-2129.094488
31
0
0
LINE
8
1
10
1948.858268
20
-2129.094488
30
0
11
2130.748031
21
-2129.094488
31
0
0
LINE
8
1
10
1899.645669
20
-2222.795276
30
0
11
1904.370079
21
-2222.795276
31
0
0
LINE
8
1
10
1899.645669
20
-2222.795276
30
0
11
1899.645669
21
-2286.574803
31
0
0
LINE
8
1
10
1904.370079
20
-2222.795276
30
0
11
1904.370079
21
-2286.574803
31
0
0
LINE
8
1
10
1899.645669
20
-2286.574803
30
0
11
1904.370079
21
-2286.574803
31
0
0
LINE
8
1
10
2175.236220
20
-2222.795276
30
0
11
2179.960630
21
-2222.795276
31
0
0
LINE
8
1
10
2175.236220
20
-2222.795276
30
0
11
2175.236220
21
-2286.574803
31
0
0
LINE
8
1
10
2179.960630
20
-2222.795276
30
0
11
2179.960630
21
-2286.574803
31
0
0
LINE
8
1
10
2175.236220
20
-2286.574803
30
0
11
2179.960630
21
-2286.574803
31
0
0
LINE
8
1
10
2328.858268
20
-2200.275591
30
0
11
2510.748031
21
-2200.275591
31
0
0
LINE
8
1
10
2328.858268
20
-2200.275591
30
0
11
2328.858268
21
-2205.000000
31
0
0
LINE
8
1
10
2510.748031
20
-2200.275591
30
0
11
2510.748031
21
-2205.000000
31
0
0
LINE
8
1
10
2328.858268
20
-2205.000000
30
0
11
2510.748031
21
-2205.000000
31
0
0
LINE
8
1
10
2328.858268
20
-1944.370079
30
0
11
2510.748031
21
-1944.370079
31
0
0
LINE
8
1
10
2328.858268
20
-1944.370079
30
0
11
2328.858268
21
-1949.094488
31
0
0
LINE
8
1
10
2510.748031
20
-1944.370079
30
0
11
2510.748031
21
-1949.094488
31
0
0
LINE
8
1
10
2328.858268
20
-1949.094488
30
0
11
2510.748031
21
-1949.094488
31
0
0
LINE
8
1
10
2279.645669
20
-2042.795276
30
0
11
2284.370079
21
-2042.795276
31
0
0
LINE
8
1
10
2279.645669
20
-2042.795276
30
0
11
2279.645669
21
-2106.574803
31
0
0
LINE
8
1
10
2284.370079
20
-2042.795276
30
0
11
2284.370079
21
-2106.574803
31
0
0
LINE
8
1
10
2279.645669
20
-2106.574803
30
0
11
2284.370079
21
-2106.574803
31
0
0
LINE
8
1
10
2555.236220
20
-2042.795276
30
0
11
2559.960630
21
-2042.795276
31
0
0
LINE
8
1
10
2555.236220
20
-2042.795276
30
0
11
2555.236220
21
-2106.574803
31
0
0
LINE
8
1
10
2559.960630
20
-2042.795276
30
0
11
2559.960630
21
-2106.574803
31
0
0
LINE
8
1
10
2555.236220
20
-2106.574803
30
0
11
2559.960630
21
-2106.574803
31
0
0
LINE
8
1
10
2279.645669
20
-2352.795276
30
0
11
2284.370079
21
-2352.795276
31
0
0
LINE
8
1
10
2279.645669
20
-2352.795276
30
0
11
2279.645669
21
-2416.574803
31
0
0
LINE
8
1
10
2284.370079
20
-2352.795276
30
0
11
2284.370079
21
-2416.574803
31
0
0
LINE
8
1
10
2279.645669
20
-2416.574803
30
0
11
2284.370079
21
-2416.574803
31
0
0
LINE
8
1
10
2328.858268
20
-2254.370079
30
0
11
2510.748031
21
-2254.370079
31
0
0
LINE
8
1
10
2328.858268
20
-2254.370079
30
0
11
2328.858268
21
-2259.094488
31
0
0
LINE
8
1
10
2510.748031
20
-2254.370079
30
0
11
2510.748031
21
-2259.094488
31
0
0
LINE
8
1
10
2328.858268
20
-2259.094488
30
0
11
2510.748031
21
-2259.094488
31
0
0
LINE
8
1
10
2328.858268
20
-2510.275591
30
0
11
2510.748031
21
-2510.275591
31
0
0
LINE
8
1
10
2328.858268
20
-2510.275591
30
0
11
2328.858268
21
-2515.000000
31
0
0
LINE
8
1
10
2510.748031
20
-2510.275591
30
0
11
2510.748031
21
-2515.000000
31
0
0
LINE
8
1
10
2328.858268
20
-2515.000000
30
0
11
2510.748031
21
-2515.000000
31
0
0
LINE
8
1
10
2555.236220
20
-2352.795276
30
0
11
2559.960630
21
-2352.795276
31
0
0
LINE
8
1
10
2555.236220
20
-2352.795276
30
0
11
2555.236220
21
-2416.574803
31
0
0
LINE
8
1
10
2559.960630
20
-2352.795276
30
0
11
2559.960630
21
-2416.574803
31
0
0
LINE
8
1
10
2555.236220
20
-2416.574803
30
0
11
2559.960630
21
-2416.574803
31
0
0
LINE
8
1
10
2631.440945
20
-1118.983307
30
0
11
2636.165354
21
-1118.983307
31
0
0
LINE
8
1
10
2631.440945
20
-1118.983307
30
0
11
2631.440945
21
-1143.764724
31
0
0
LINE
8
1
10
2636.165354
20
-1118.983307
30
0
11
2636.165354
21
-1143.764724
31
0
0
LINE
8
1
10
2631.440945
20
-1143.764724
30
0
11
2636.165354
21
-1143.764724
31
0
0
LINE
8
1
10
2590.299213
20
-1118.983307
30
0
11
2595.023622
21
-1118.983307
31
0
0
LINE
8
1
10
2590.299213
20
-1118.983307
30
0
11
2590.299213
21
-1143.764724
31
0
0
LINE
8
1
10
2595.023622
20
-1118.983307
30
0
11
2595.023622
21
-1143.764724
31
0
0
LINE
8
1
10
2590.299213
20
-1143.764724
30
0
11
2595.023622
21
-1143.764724
31
0
0
LINE
8
1
10
3012.576260
20
-369.094488
30
0
11
3243.897638
21
-369.094488
31
0
0
LINE
8
1
10
3012.576260
20
-369.094488
30
0
11
3012.576260
21
-373.818898
31
0
0
LINE
8
1
10
3243.897638
20
-369.094488
30
0
11
3243.897638
21
-373.818898
31
0
0
LINE
8
1
10
3012.576260
20
-373.818898
30
0
11
3243.897638
21
-373.818898
31
0
0
LINE
8
1
10
2970.669291
20
-276.574803
30
0
11
2975.393701
21
-276.574803
31
0
0
LINE
8
1
10
2970.669291
20
-276.574803
30
0
11
2970.669291
21
-331.911929
31
0
0
LINE
8
1
10
2975.393701
20
-276.574803
30
0
11
2975.393701
21
-331.911929
31
0
0
LINE
8
1
10
2970.669291
20
-331.911929
30
0
11
2975.393701
21
-331.911929
31
0
0
LINE
8
1
10
2970.669291
20
-142.497520
30
0
11
2975.393701
21
-142.497520
31
0
0
LINE
8
1
10
2970.669291
20
-142.497520
30
0
11
2970.669291
21
-197.834646
31
0
0
LINE
8
1
10
2975.393701
20
-142.497520
30
0
11
2975.393701
21
-197.834646
31
0
0
LINE
8
1
10
2970.669291
20
-197.834646
30
0
11
2975.393701
21
-197.834646
31
0
0
LINE
8
1
10
2945.718504
20
-146.604331
30
0
11
2950.442913
21
-146.604331
31
0
0
LINE
8
1
10
2945.718504
20
-146.604331
30
0
11
2945.718504
21
-182.332677
31
0
0
LINE
8
1
10
2950.442913
20
-146.604331
30
0
11
2950.442913
21
-182.332677
31
0
0
LINE
8
1
10
2945.718504
20
-182.332677
30
0
11
2950.442913
21
-182.332677
31
0
0
LINE
8
1
10
2930.216535
20
-162.106299
30
0
11
2965.944882
21
-162.106299
31
0
0
LINE
8
1
10
2930.216535
20
-162.106299
30
0
11
2930.216535
21
-166.830709
31
0
0
LINE
8
1
10
2965.944882
20
-162.106299
30
0
11
2965.944882
21
-166.830709
31
0
0
LINE
8
1
10
2930.216535
20
-166.830709
30
0
11
2965.944882
21
-166.830709
31
0
0
LINE
8
1
10
2970.669291
20
-327.187520
30
0
11
3017.300669
21
-327.187520
31
0
0
LINE
8
1
10
2970.669291
20
-327.187520
30
0
11
2970.669291
21
-373.818898
31
0
0
LINE
8
1
10
3017.300669
20
-327.187520
30
0
11
3017.300669
21
-373.818898
31
0
0
LINE
8
1
10
2970.669291
20
-373.818898
30
0
11
3017.300669
21
-373.818898
31
0
0
LINE
8
1
10
2970.669291
20
-100.590551
30
0
11
3017.300669
21
-100.590551
31
0
0
LINE
8
1
10
2970.669291
20
-100.590551
30
0
11
2970.669291
21
-147.221929
31
0
0
LINE
8
1
10
3017.300669
20
-100.590551
30
0
11
3017.300669
21
-147.221929
31
0
0
LINE
8
1
10
2970.669291
20
-147.221929
30
0
11
3017.300669
21
-147.221929
31
0
0
LINE
8
1
10
3012.576260
20
-100.590551
30
0
11
3243.897638
21
-100.590551
31
0
0
LINE
8
1
10
3012.576260
20
-100.590551
30
0
11
3012.576260
21
-105.314961
31
0
0
LINE
8
1
10
3243.897638
20
-100.590551
30
0
11
3243.897638
21
-105.314961
31
0
0
LINE
8
1
10
3012.576260
20
-105.314961
30
0
11
3243.897638
21
-105.314961
31
0
0
LINE
8
1
10
3239.173228
20
-100.590551
30
0
11
3243.897638
21
-100.590551
31
0
0
LINE
8
1
10
3239.173228
20
-100.590551
30
0
11
3239.173228
21
-197.834646
31
0
0
LINE
8
1
10
3243.897638
20
-100.590551
30
0
11
3243.897638
21
-197.834646
31
0
0
LINE
8
1
10
3239.173228
20
-197.834646
30
0
11
3243.897638
21
-197.834646
31
0
0
LINE
8
1
10
3239.173228
20
-276.574803
30
0
11
3243.897638
21
-276.574803
31
0
0
LINE
8
1
10
3239.173228
20
-276.574803
30
0
11
3239.173228
21
-373.818898
31
0
0
LINE
8
1
10
3243.897638
20
-276.574803
30
0
11
3243.897638
21
-373.818898
31
0
0
LINE
8
1
10
3239.173228
20
-373.818898
30
0
11
3243.897638
21
-373.818898
31
0
0
CIRCLE
8
0
10
3721.456693
20
-217.519685
30
0
40
68.897638
0
LINE
8
1
10
1145.275591
20
-2258.267717
30
0
11
1226.771654
21
-2258.267717
31
0
0
LINE
8
1
10
1145.275591
20
-2258.267717
30
0
11
1145.275591
21
-2262.992126
31
0
0
LINE
8
1
10
1226.771654
20
-2258.267717
30
0
11
1226.771654
21
-2262.992126
31
0
0
LINE
8
1
10
1145.275591
20
-2262.992126
30
0
11
1226.771654
21
-2262.992126
31
0
0
LINE
8
1
10
1222.047244
20
-2258.267717
30
0
11
1362.598425
21
-2258.267717
31
0
0
LINE
8
1
10
1222.047244
20
-2258.267717
30
0
11
1222.047244
21
-2262.992126
31
0
0
LINE
8
1
10
1362.598425
20
-2258.267717
30
0
11
1362.598425
21
-2262.992126
31
0
0
LINE
8
1
10
1222.047244
20
-2262.992126
30
0
11
1362.598425
21
-2262.992126
31
0
0
LINE
8
1
10
1222.047244
20
-2056.692913
30
0
11
1303.543307
21
-2056.692913
31
0
0
LINE
8
1
10
1222.047244
20
-2056.692913
30
0
11
1222.047244
21
-2061.417323
31
0
0
LINE
8
1
10
1303.543307
20
-2056.692913
30
0
11
1303.543307
21
-2061.417323
31
0
0
LINE
8
1
10
1222.047244
20
-2061.417323
30
0
11
1303.543307
21
-2061.417323
31
0
0
LINE
8
1
10
1145.275591
20
-2056.692913
30
0
11
1226.771654
21
-2056.692913
31
0
0
LINE
8
1
10
1145.275591
20
-2056.692913
30
0
11
1145.275591
21
-2061.417323
31
0
0
LINE
8
1
10
1226.771654
20
-2056.692913
30
0
11
1226.771654
21
-2061.417323
31
0
0
LINE
8
1
10
1145.275591
20
-2061.417323
30
0
11
1226.771654
21
-2061.417323
31
0
0
LINE
8
1
10
1215.748031
20
-1944.707205
30
0
11
1262.379409
21
-1944.707205
31
0
0
LINE
8
1
10
1215.748031
20
-1944.707205
30
0
11
1215.748031
21
-1991.338583
31
0
0
LINE
8
1
10
1262.379409
20
-1944.707205
30
0
11
1262.379409
21
-1991.338583
31
0
0
LINE
8
1
10
1215.748031
20
-1991.338583
30
0
11
1262.379409
21
-1991.338583
31
0
0
LINE
8
1
10
1196.456693
20
-1826.377953
30
0
11
1201.181102
21
-1826.377953
31
0
0
LINE
8
1
10
1196.456693
20
-1826.377953
30
0
11
1196.456693
21
-1850.787402
31
0
0
LINE
8
1
10
1201.181102
20
-1826.377953
30
0
11
1201.181102
21
-1850.787402
31
0
0
LINE
8
1
10
1196.456693
20
-1850.787402
30
0
11
1201.181102
21
-1850.787402
31
0
0
LINE
8
1
10
1215.748031
20
-1939.370079
30
0
11
1220.472441
21
-1939.370079
31
0
0
LINE
8
1
10
1215.748031
20
-1939.370079
30
0
11
1215.748031
21
-1949.431614
31
0
0
LINE
8
1
10
1220.472441
20
-1939.370079
30
0
11
1220.472441
21
-1949.431614
31
0
0
LINE
8
1
10
1215.748031
20
-1949.431614
30
0
11
1220.472441
21
-1949.431614
31
0
0
LINE
8
1
10
1215.748031
20
-1808.661417
30
0
11
1262.379409
21
-1808.661417
31
0
0
LINE
8
1
10
1215.748031
20
-1808.661417
30
0
11
1215.748031
21
-1855.292795
31
0
0
LINE
8
1
10
1262.379409
20
-1808.661417
30
0
11
1262.379409
21
-1855.292795
31
0
0
LINE
8
1
10
1215.748031
20
-1855.292795
30
0
11
1262.379409
21
-1855.292795
31
0
0
LINE
8
1
10
1393.700787
20
-1939.370079
30
0
11
1398.425197
21
-1939.370079
31
0
0
LINE
8
1
10
1393.700787
20
-1939.370079
30
0
11
1393.700787
21
-1991.338583
31
0
0
LINE
8
1
10
1398.425197
20
-1939.370079
30
0
11
1398.425197
21
-1991.338583
31
0
0
LINE
8
1
10
1393.700787
20
-1991.338583
30
0
11
1398.425197
21
-1991.338583
31
0
0
LINE
8
1
10
1257.655000
20
-1808.661417
30
0
11
1398.425197
21
-1808.661417
31
0
0
LINE
8
1
10
1257.655000
20
-1808.661417
30
0
11
1257.655000
21
-1813.385827
31
0
0
LINE
8
1
10
1398.425197
20
-1808.661417
30
0
11
1398.425197
21
-1813.385827
31
0
0
LINE
8
1
10
1257.655000
20
-1813.385827
30
0
11
1398.425197
21
-1813.385827
31
0
0
LINE
8
1
10
1257.655000
20
-1986.614173
30
0
11
1398.425197
21
-1986.614173
31
0
0
LINE
8
1
10
1257.655000
20
-1986.614173
30
0
11
1257.655000
21
-1991.338583
31
0
0
LINE
8
1
10
1398.425197
20
-1986.614173
30
0
11
1398.425197
21
-1991.338583
31
0
0
LINE
8
1
10
1257.655000
20
-1991.338583
30
0
11
1398.425197
21
-1991.338583
31
0
0
LINE
8
1
10
1215.748031
20
-1850.568386
30
0
11
1220.472441
21
-1850.568386
31
0
0
LINE
8
1
10
1215.748031
20
-1850.568386
30
0
11
1215.748031
21
-1860.629921
31
0
0
LINE
8
1
10
1220.472441
20
-1850.568386
30
0
11
1220.472441
21
-1860.629921
31
0
0
LINE
8
1
10
1215.748031
20
-1860.629921
30
0
11
1220.472441
21
-1860.629921
31
0
0
LINE
8
1
10
1186.614173
20
-1836.220472
30
0
11
1211.023622
21
-1836.220472
31
0
0
LINE
8
1
10
1186.614173
20
-1836.220472
30
0
11
1186.614173
21
-1840.944882
31
0
0
LINE
8
1
10
1211.023622
20
-1836.220472
30
0
11
1211.023622
21
-1840.944882
31
0
0
LINE
8
1
10
1186.614173
20
-1840.944882
30
0
11
1211.023622
21
-1840.944882
31
0
0
LINE
8
1
10
1393.700787
20
-1808.661417
30
0
11
1398.425197
21
-1808.661417
31
0
0
LINE
8
1
10
1393.700787
20
-1808.661417
30
0
11
1393.700787
21
-1860.629921
31
0
0
LINE
8
1
10
1398.425197
20
-1808.661417
30
0
11
1398.425197
21
-1860.629921
31
0
0
LINE
8
1
10
1393.700787
20
-1860.629921
30
0
11
1398.425197
21
-1860.629921
31
0
0
LINE
8
1
10
810.815354
20
-179.076417
30
0
11
815.815354
21
-179.076417
31
0
0
LINE
8
1
10
810.815354
20
-179.076417
30
0
11
810.815354
21
-241.163031
31
0
0
LINE
8
1
10
815.815354
20
-179.076417
30
0
11
815.815354
21
-241.163031
31
0
0
LINE
8
1
10
810.815354
20
-241.163031
30
0
11
815.815354
21
-241.163031
31
0
0
LINE
8
1
10
810.815354
20
-179.076417
30
0
11
1394.555512
21
-179.076417
31
0
0
LINE
8
1
10
810.815354
20
-179.076417
30
0
11
810.815354
21
-184.076417
31
0
0
LINE
8
1
10
1394.555512
20
-179.076417
30
0
11
1394.555512
21
-184.076417
31
0
0
LINE
8
1
10
810.815354
20
-184.076417
30
0
11
1394.555512
21
-184.076417
31
0
0
LINE
8
1
10
810.815354
20
-310.966181
30
0
11
815.815354
21
-310.966181
31
0
0
LINE
8
1
10
810.815354
20
-310.966181
30
0
11
810.815354
21
-373.052795
31
0
0
LINE
8
1
10
815.815354
20
-310.966181
30
0
11
815.815354
21
-373.052795
31
0
0
LINE
8
1
10
810.815354
20
-373.052795
30
0
11
815.815354
21
-373.052795
31
0
0
LINE
8
1
10
1389.555512
20
-310.966181
30
0
11
1394.555512
21
-310.966181
31
0
0
LINE
8
1
10
1389.555512
20
-310.966181
30
0
11
1389.555512
21
-373.052795
31
0
0
LINE
8
1
10
1394.555512
20
-310.966181
30
0
11
1394.555512
21
-373.052795
31
0
0
LINE
8
1
10
1389.555512
20
-373.052795
30
0
11
1394.555512
21
-373.052795
31
0
0
LINE
8
1
10
1389.555512
20
-179.076417
30
0
11
1394.555512
21
-179.076417
31
0
0
LINE
8
1
10
1389.555512
20
-179.076417
30
0
11
1389.555512
21
-241.163031
31
0
0
LINE
8
1
10
1394.555512
20
-179.076417
30
0
11
1394.555512
21
-241.163031
31
0
0
LINE
8
1
10
1389.555512
20
-241.163031
30
0
11
1394.555512
21
-241.163031
31
0
0
LINE
8
1
10
810.815354
20
-368.052795
30
0
11
1394.555512
21
-368.052795
31
0
0
LINE
8
1
10
810.815354
20
-368.052795
30
0
11
810.815354
21
-373.052795
31
0
0
LINE
8
1
10
1394.555512
20
-368.052795
30
0
11
1394.555512
21
-373.052795
31
0
0
LINE
8
1
10
810.815354
20
-373.052795
30
0
11
1394.555512
21
-373.052795
31
0
0
LINE
8
1
10
781.212205
20
-268.528386
30
0
11
804.158661
21
-268.528386
31
0
0
LINE
8
1
10
781.212205
20
-268.528386
30
0
11
781.212205
21
-291.474843
31
0
0
LINE
8
1
10
804.158661
20
-268.528386
30
0
11
804.158661
21
-291.474843
31
0
0
LINE
8
1
10
781.212205
20
-291.474843
30
0
11
804.158661
21
-291.474843
31
0
0
LINE
8
1
10
1450.196850
20
-182.757520
30
0
11
1454.921260
21
-182.757520
31
0
0
LINE
8
1
10
1450.196850
20
-182.757520
30
0
11
1450.196850
21
-389.844134
31
0
0
LINE
8
1
10
1454.921260
20
-182.757520
30
0
11
1454.921260
21
-389.844134
31
0
0
LINE
8
1
10
1450.196850
20
-389.844134
30
0
11
1454.921260
21
-389.844134
31
0
0
LINE
8
1
10
1450.196850
20
-182.757520
30
0
11
1559.645669
21
-182.757520
31
0
0
LINE
8
1
10
1450.196850
20
-182.757520
30
0
11
1450.196850
21
-187.481929
31
0
0
LINE
8
1
10
1559.645669
20
-182.757520
30
0
11
1559.645669
21
-187.481929
31
0
0
LINE
8
1
10
1450.196850
20
-187.481929
30
0
11
1559.645669
21
-187.481929
31
0
0
LINE
8
1
10
1450.196850
20
-385.119724
30
0
11
1559.645669
21
-385.119724
31
0
0
LINE
8
1
10
1450.196850
20
-385.119724
30
0
11
1450.196850
21
-389.844134
31
0
0
LINE
8
1
10
1559.645669
20
-385.119724
30
0
11
1559.645669
21
-389.844134
31
0
0
LINE
8
1
10
1450.196850
20
-389.844134
30
0
11
1559.645669
21
-389.844134
31
0
0
LINE
8
1
10
1554.921260
20
-182.757520
30
0
11
1559.645669
21
-182.757520
31
0
0
LINE
8
1
10
1554.921260
20
-182.757520
30
0
11
1554.921260
21
-389.844134
31
0
0
LINE
8
1
10
1559.645669
20
-182.757520
30
0
11
1559.645669
21
-389.844134
31
0
0
LINE
8
1
10
1554.921260
20
-389.844134
30
0
11
1559.645669
21
-389.844134
31
0
0
LINE
8
1
10
1554.921260
20
-435.119724
30
0
11
1559.645669
21
-435.119724
31
0
0
LINE
8
1
10
1554.921260
20
-435.119724
30
0
11
1554.921260
21
-492.206339
31
0
0
LINE
8
1
10
1559.645669
20
-435.119724
30
0
11
1559.645669
21
-492.206339
31
0
0
LINE
8
1
10
1554.921260
20
-492.206339
30
0
11
1559.645669
21
-492.206339
31
0
0
LINE
8
1
10
1502.559055
20
-487.481929
30
0
11
1559.645669
21
-487.481929
31
0
0
LINE
8
1
10
1502.559055
20
-487.481929
30
0
11
1502.559055
21
-492.206339
31
0
0
LINE
8
1
10
1559.645669
20
-487.481929
30
0
11
1559.645669
21
-492.206339
31
0
0
LINE
8
1
10
1502.559055
20
-492.206339
30
0
11
1559.645669
21
-492.206339
31
0
0
LINE
8
1
10
1223.031496
20
-2591.535433
30
0
11
1363.582677
21
-2591.535433
31
0
0
LINE
8
1
10
1223.031496
20
-2591.535433
30
0
11
1223.031496
21
-2596.259843
31
0
0
LINE
8
1
10
1363.582677
20
-2591.535433
30
0
11
1363.582677
21
-2596.259843
31
0
0
LINE
8
1
10
1223.031496
20
-2596.259843
30
0
11
1363.582677
21
-2596.259843
31
0
0
LINE
8
1
10
1146.259843
20
-2591.535433
30
0
11
1227.755906
21
-2591.535433
31
0
0
LINE
8
1
10
1146.259843
20
-2591.535433
30
0
11
1146.259843
21
-2596.259843
31
0
0
LINE
8
1
10
1227.755906
20
-2591.535433
30
0
11
1227.755906
21
-2596.259843
31
0
0
LINE
8
1
10
1146.259843
20
-2596.259843
30
0
11
1227.755906
21
-2596.259843
31
0
0
LINE
8
1
10
1146.259843
20
-2389.960630
30
0
11
1227.755906
21
-2389.960630
31
0
0
LINE
8
1
10
1146.259843
20
-2389.960630
30
0
11
1146.259843
21
-2394.685039
31
0
0
LINE
8
1
10
1227.755906
20
-2389.960630
30
0
11
1227.755906
21
-2394.685039
31
0
0
LINE
8
1
10
1146.259843
20
-2394.685039
30
0
11
1227.755906
21
-2394.685039
31
0
0
LINE
8
1
10
1223.031496
20
-2389.960630
30
0
11
1304.527559
21
-2389.960630
31
0
0
LINE
8
1
10
1223.031496
20
-2389.960630
30
0
11
1223.031496
21
-2394.685039
31
0
0
LINE
8
1
10
1304.527559
20
-2389.960630
30
0
11
1304.527559
21
-2394.685039
31
0
0
LINE
8
1
10
1223.031496
20
-2394.685039
30
0
11
1304.527559
21
-2394.685039
31
0
0
CIRCLE
8
0
10
217.519685
20
-3209.645669
30
0
40
68.897638
0
LINE
8
1
10
3053.740157
20
-640.354331
30
0
11
3082.086614
21
-640.354331
31
0
0
LINE
8
1
10
3053.740157
20
-640.354331
30
0
11
3053.740157
21
-645.078740
31
0
0
LINE
8
1
10
3082.086614
20
-640.354331
30
0
11
3082.086614
21
-645.078740
31
0
0
LINE
8
1
10
3053.740157
20
-645.078740
30
0
11
3082.086614
21
-645.078740
31
0
0
LINE
8
1
10
3065.551181
20
-628.543307
30
0
11
3082.086614
21
-628.543307
31
0
0
LINE
8
1
10
3065.551181
20
-628.543307
30
0
11
3065.551181
21
-645.078740
31
0
0
LINE
8
1
10
3082.086614
20
-628.543307
30
0
11
3082.086614
21
-645.078740
31
0
0
LINE
8
1
10
3065.551181
20
-645.078740
30
0
11
3082.086614
21
-645.078740
31
0
0
LINE
8
1
10
3197.440945
20
-541.929134
30
0
11
3202.165354
21
-541.929134
31
0
0
LINE
8
1
10
3197.440945
20
-541.929134
30
0
11
3197.440945
21
-625.393701
31
0
0
LINE
8
1
10
3202.165354
20
-541.929134
30
0
11
3202.165354
21
-625.393701
31
0
0
LINE
8
1
10
3197.440945
20
-625.393701
30
0
11
3202.165354
21
-625.393701
31
0
0
LINE
8
1
10
3036.023622
20
-541.929134
30
0
11
3040.748031
21
-541.929134
31
0
0
LINE
8
1
10
3036.023622
20
-541.929134
30
0
11
3036.023622
21
-625.393701
31
0
0
LINE
8
1
10
3040.748031
20
-541.929134
30
0
11
3040.748031
21
-625.393701
31
0
0
LINE
8
1
10
3036.023622
20
-625.393701
30
0
11
3040.748031
21
-625.393701
31
0
0
LINE
8
1
10
3036.023622
20
-541.929134
30
0
11
3202.165354
21
-541.929134
31
0
0
LINE
8
1
10
3036.023622
20
-541.929134
30
0
11
3036.023622
21
-546.653543
31
0
0
LINE
8
1
10
3202.165354
20
-541.929134
30
0
11
3202.165354
21
-546.653543
31
0
0
LINE
8
1
10
3036.023622
20
-546.653543
30
0
11
3202.165354
21
-546.653543
31
0
0
LINE
8
1
10
3036.023622
20
-620.669291
30
0
11
3202.165354
21
-620.669291
31
0
0
LINE
8
1
10
3036.023622
20
-620.669291
30
0
11
3036.023622
21
-625.393701
31
0
0
LINE
8
1
10
3202.165354
20
-620.669291
30
0
11
3202.165354
21
-625.393701
31
0
0
LINE
8
1
10
3036.023622
20
-625.393701
30
0
11
3202.165354
21
-625.393701
31
0
0
LINE
8
1
10
3053.740157
20
-628.543307
30
0
11
3070.275591
21
-628.543307
31
0
0
LINE
8
1
10
3053.740157
20
-628.543307
30
0
11
3053.740157
21
-645.078740
31
0
0
LINE
8
1
10
3070.275591
20
-628.543307
30
0
11
3070.275591
21
-645.078740
31
0
0
LINE
8
1
10
3053.740157
20
-645.078740
30
0
11
3070.275591
21
-645.078740
31
0
0
CIRCLE
8
0
10
3721.456693
20
-3209.645669
30
0
40
68.897638
0
LINE
8
1
10
1390.452756
20
-2159.262835
30
0
11
1395.177165
21
-2159.262835
31
0
0
LINE
8
1
10
1390.452756
20
-2159.262835
30
0
11
1390.452756
21
-2184.044252
31
0
0
LINE
8
1
10
1395.177165
20
-2159.262835
30
0
11
1395.177165
21
-2184.044252
31
0
0
LINE
8
1
10
1390.452756
20
-2184.044252
30
0
11
1395.177165
21
-2184.044252
31
0
0
LINE
8
1
10
1431.594488
20
-2159.262835
30
0
11
1436.318898
21
-2159.262835
31
0
0
LINE
8
1
10
1431.594488
20
-2159.262835
30
0
11
1431.594488
21
-2184.044252
31
0
0
LINE
8
1
10
1436.318898
20
-2159.262835
30
0
11
1436.318898
21
-2184.044252
31
0
0
LINE
8
1
10
1431.594488
20
-2184.044252
30
0
11
1436.318898
21
-2184.044252
31
0
0
LINE
8
1
10
1436.515748
20
-2492.530551
30
0
11
1441.240157
21
-2492.530551
31
0
0
LINE
8
1
10
1436.515748
20
-2492.530551
30
0
11
1436.515748
21
-2517.311969
31
0
0
LINE
8
1
10
1441.240157
20
-2492.530551
30
0
11
1441.240157
21
-2517.311969
31
0
0
LINE
8
1
10
1436.515748
20
-2517.311969
30
0
11
1441.240157
21
-2517.311969
31
0
0
LINE
8
1
10
1395.374016
20
-2492.530551
30
0
11
1400.098425
21
-2492.530551
31
0
0
LINE
8
1
10
1395.374016
20
-2492.530551
30
0
11
1395.374016
21
-2517.311969
31
0
0
LINE
8
1
10
1400.098425
20
-2492.530551
30
0
11
1400.098425
21
-2517.311969
31
0
0
LINE
8
1
10
1395.374016
20
-2517.311969
30
0
11
1400.098425
21
-2517.311969
31
0
0
LINE
8
1
10
1154.280827
20
-2648.622047
30
0
11
1170.522323
21
-2648.622047
31
0
0
LINE
8
1
10
1154.280827
20
-2648.622047
30
0
11
1154.280827
21
-2653.346457
31
0
0
LINE
8
1
10
1170.522323
20
-2648.622047
30
0
11
1170.522323
21
-2653.346457
31
0
0
LINE
8
1
10
1154.280827
20
-2653.346457
30
0
11
1170.522323
21
-2653.346457
31
0
0
LINE
8
1
10
1154.280827
20
-2608.464567
30
0
11
1170.522323
21
-2608.464567
31
0
0
LINE
8
1
10
1154.280827
20
-2608.464567
30
0
11
1154.280827
21
-2613.188976
31
0
0
LINE
8
1
10
1170.522323
20
-2608.464567
30
0
11
1170.522323
21
-2613.188976
31
0
0
LINE
8
1
10
1154.280827
20
-2613.188976
30
0
11
1170.522323
21
-2613.188976
31
0
0
LINE
8
1
10
1203.346457
20
-403.740157
30
0
11
1233.661417
21
-403.740157
31
0
0
LINE
8
1
10
1203.346457
20
-403.740157
30
0
11
1203.346457
21
-408.464567
31
0
0
LINE
8
1
10
1233.661417
20
-403.740157
30
0
11
1233.661417
21
-408.464567
31
0
0
LINE
8
1
10
1203.346457
20
-408.464567
30
0
11
1233.661417
21
-408.464567
31
0
0
LINE
8
1
10
1177.755906
20
-526.574803
30
0
11
1208.070866
21
-526.574803
31
0
0
LINE
8
1
10
1177.755906
20
-526.574803
30
0
11
1177.755906
21
-531.299213
31
0
0
LINE
8
1
10
1208.070866
20
-526.574803
30
0
11
1208.070866
21
-531.299213
31
0
0
LINE
8
1
10
1177.755906
20
-531.299213
30
0
11
1208.070866
21
-531.299213
31
0
0
LINE
8
1
10
1177.755906
20
-403.740157
30
0
11
1208.070866
21
-403.740157
31
0
0
LINE
8
1
10
1177.755906
20
-403.740157
30
0
11
1177.755906
21
-408.464567
31
0
0
LINE
8
1
10
1208.070866
20
-403.740157
30
0
11
1208.070866
21
-408.464567
31
0
0
LINE
8
1
10
1177.755906
20
-408.464567
30
0
11
1208.070866
21
-408.464567
31
0
0
LINE
8
1
10
1203.346457
20
-526.574803
30
0
11
1274.015748
21
-526.574803
31
0
0
LINE
8
1
10
1203.346457
20
-526.574803
30
0
11
1203.346457
21
-531.299213
31
0
0
LINE
8
1
10
1274.015748
20
-526.574803
30
0
11
1274.015748
21
-531.299213
31
0
0
LINE
8
1
10
1203.346457
20
-531.299213
30
0
11
1274.015748
21
-531.299213
31
0
0
LINE
8
1
10
1193.317953
20
-603.838583
30
0
11
1218.099370
21
-603.838583
31
0
0
LINE
8
1
10
1193.317953
20
-603.838583
30
0
11
1193.317953
21
-608.562992
31
0
0
LINE
8
1
10
1218.099370
20
-603.838583
30
0
11
1218.099370
21
-608.562992
31
0
0
LINE
8
1
10
1193.317953
20
-608.562992
30
0
11
1218.099370
21
-608.562992
31
0
0
LINE
8
1
10
1193.317953
20
-562.696850
30
0
11
1218.099370
21
-562.696850
31
0
0
LINE
8
1
10
1193.317953
20
-562.696850
30
0
11
1193.317953
21
-567.421260
31
0
0
LINE
8
1
10
1218.099370
20
-562.696850
30
0
11
1218.099370
21
-567.421260
31
0
0
LINE
8
1
10
1193.317953
20
-567.421260
30
0
11
1218.099370
21
-567.421260
31
0
0
LINE
8
1
10
1313.582677
20
-400.196850
30
0
11
1318.307087
21
-400.196850
31
0
0
LINE
8
1
10
1313.582677
20
-400.196850
30
0
11
1313.582677
21
-558.464567
31
0
0
LINE
8
1
10
1318.307087
20
-400.196850
30
0
11
1318.307087
21
-558.464567
31
0
0
LINE
8
1
10
1313.582677
20
-558.464567
30
0
11
1318.307087
21
-558.464567
31
0
0
LINE
8
1
10
1392.322835
20
-400.196850
30
0
11
1397.047244
21
-400.196850
31
0
0
LINE
8
1
10
1392.322835
20
-400.196850
30
0
11
1392.322835
21
-558.464567
31
0
0
LINE
8
1
10
1397.047244
20
-400.196850
30
0
11
1397.047244
21
-558.464567
31
0
0
LINE
8
1
10
1392.322835
20
-558.464567
30
0
11
1397.047244
21
-558.464567
31
0
0
LINE
8
1
10
1313.582677
20
-400.196850
30
0
11
1397.047244
21
-400.196850
31
0
0
LINE
8
1
10
1313.582677
20
-400.196850
30
0
11
1313.582677
21
-404.921260
31
0
0
LINE
8
1
10
1397.047244
20
-400.196850
30
0
11
1397.047244
21
-404.921260
31
0
0
LINE
8
1
10
1313.582677
20
-404.921260
30
0
11
1397.047244
21
-404.921260
31
0
0
LINE
8
1
10
2639.980315
20
-194.741260
30
0
11
2677.578740
21
-194.741260
31
0
0
LINE
8
1
10
2639.980315
20
-194.741260
30
0
11
2639.980315
21
-271.794134
31
0
0
LINE
8
1
10
2677.578740
20
-194.741260
30
0
11
2677.578740
21
-271.794134
31
0
0
LINE
8
1
10
2639.980315
20
-271.794134
30
0
11
2677.578740
21
-271.794134
31
0
0
LINE
8
1
10
2789.980315
20
-512.082874
30
0
11
2827.578740
21
-512.082874
31
0
0
LINE
8
1
10
2789.980315
20
-512.082874
30
0
11
2789.980315
21
-554.452559
31
0
0
LINE
8
1
10
2827.578740
20
-512.082874
30
0
11
2827.578740
21
-554.452559
31
0
0
LINE
8
1
10
2789.980315
20
-554.452559
30
0
11
2827.578740
21
-554.452559
31
0
0
LINE
8
1
10
2639.980315
20
-401.302953
30
0
11
2677.578740
21
-401.302953
31
0
0
LINE
8
1
10
2639.980315
20
-401.302953
30
0
11
2639.980315
21
-465.232480
31
0
0
LINE
8
1
10
2677.578740
20
-401.302953
30
0
11
2677.578740
21
-465.232480
31
0
0
LINE
8
1
10
2639.980315
20
-465.232480
30
0
11
2677.578740
21
-465.232480
31
0
0
LINE
8
1
10
2789.980315
20
-194.741260
30
0
11
2827.578740
21
-194.741260
31
0
0
LINE
8
1
10
2789.980315
20
-194.741260
30
0
11
2789.980315
21
-271.794134
31
0
0
LINE
8
1
10
2827.578740
20
-194.741260
30
0
11
2827.578740
21
-271.794134
31
0
0
LINE
8
1
10
2789.980315
20
-271.794134
30
0
11
2827.578740
21
-271.794134
31
0
0
LINE
8
1
10
2578.996063
20
-173.340827
30
0
11
2638.562992
21
-173.340827
31
0
0
LINE
8
1
10
2578.996063
20
-173.340827
30
0
11
2578.996063
21
-593.194606
31
0
0
LINE
8
1
10
2638.562992
20
-173.340827
30
0
11
2638.562992
21
-593.194606
31
0
0
LINE
8
1
10
2578.996063
20
-593.194606
30
0
11
2638.562992
21
-593.194606
31
0
0
LINE
8
1
10
2219.980315
20
-244.741260
30
0
11
2257.578740
21
-244.741260
31
0
0
LINE
8
1
10
2219.980315
20
-244.741260
30
0
11
2219.980315
21
-321.794134
31
0
0
LINE
8
1
10
2257.578740
20
-244.741260
30
0
11
2257.578740
21
-321.794134
31
0
0
LINE
8
1
10
2219.980315
20
-321.794134
30
0
11
2257.578740
21
-321.794134
31
0
0
LINE
8
1
10
2639.980315
20
-507.864646
30
0
11
2677.578740
21
-507.864646
31
0
0
LINE
8
1
10
2639.980315
20
-507.864646
30
0
11
2639.980315
21
-558.670787
31
0
0
LINE
8
1
10
2677.578740
20
-507.864646
30
0
11
2677.578740
21
-558.670787
31
0
0
LINE
8
1
10
2639.980315
20
-558.670787
30
0
11
2677.578740
21
-558.670787
31
0
0
LINE
8
1
10
2219.980315
20
-351.302953
30
0
11
2257.578740
21
-351.302953
31
0
0
LINE
8
1
10
2219.980315
20
-351.302953
30
0
11
2219.980315
21
-415.232480
31
0
0
LINE
8
1
10
2257.578740
20
-351.302953
30
0
11
2257.578740
21
-415.232480
31
0
0
LINE
8
1
10
2219.980315
20
-415.232480
30
0
11
2257.578740
21
-415.232480
31
0
0
LINE
8
1
10
2219.980315
20
-457.864646
30
0
11
2257.578740
21
-457.864646
31
0
0
LINE
8
1
10
2219.980315
20
-457.864646
30
0
11
2219.980315
21
-508.670787
31
0
0
LINE
8
1
10
2257.578740
20
-457.864646
30
0
11
2257.578740
21
-508.670787
31
0
0
LINE
8
1
10
2219.980315
20
-508.670787
30
0
11
2257.578740
21
-508.670787
31
0
0
LINE
8
1
10
2789.980315
20
-301.302953
30
0
11
2827.578740
21
-301.302953
31
0
0
LINE
8
1
10
2789.980315
20
-301.302953
30
0
11
2789.980315
21
-365.232480
31
0
0
LINE
8
1
10
2827.578740
20
-301.302953
30
0
11
2827.578740
21
-365.232480
31
0
0
LINE
8
1
10
2789.980315
20
-365.232480
30
0
11
2827.578740
21
-365.232480
31
0
0
LINE
8
1
10
2789.980315
20
-407.864646
30
0
11
2827.578740
21
-407.864646
31
0
0
LINE
8
1
10
2789.980315
20
-407.864646
30
0
11
2789.980315
21
-458.670787
31
0
0
LINE
8
1
10
2827.578740
20
-407.864646
30
0
11
2827.578740
21
-458.670787
31
0
0
LINE
8
1
10
2789.980315
20
-458.670787
30
0
11
2827.578740
21
-458.670787
31
0
0
LINE
8
1
10
2639.980315
20
-301.302953
30
0
11
2677.578740
21
-301.302953
31
0
0
LINE
8
1
10
2639.980315
20
-301.302953
30
0
11
2639.980315
21
-365.232480
31
0
0
LINE
8
1
10
2677.578740
20
-301.302953
30
0
11
2677.578740
21
-365.232480
31
0
0
LINE
8
1
10
2639.980315
20
-365.232480
30
0
11
2677.578740
21
-365.232480
31
0
0
LINE
8
1
10
2268.996063
20
-250.329961
30
0
11
2328.562992
21
-250.329961
31
0
0
LINE
8
1
10
2268.996063
20
-250.329961
30
0
11
2268.996063
21
-496.205472
31
0
0
LINE
8
1
10
2328.562992
20
-250.329961
30
0
11
2328.562992
21
-496.205472
31
0
0
LINE
8
1
10
2268.996063
20
-496.205472
30
0
11
2328.562992
21
-496.205472
31
0
0
LINE
8
1
10
2211.417323
20
-160.905512
30
0
11
2771.141732
21
-160.905512
31
0
0
LINE
8
1
10
2211.417323
20
-160.905512
30
0
11
2211.417323
21
-165.748031
31
0
0
LINE
8
1
10
2771.141732
20
-160.905512
30
0
11
2771.141732
21
-165.748031
31
0
0
LINE
8
1
10
2211.417323
20
-165.748031
30
0
11
2771.141732
21
-165.748031
31
0
0
LINE
8
1
10
2766.417323
20
-590.354331
30
0
11
2771.141732
21
-590.354331
31
0
0
LINE
8
1
10
2766.417323
20
-590.354331
30
0
11
2766.417323
21
-605.629921
31
0
0
LINE
8
1
10
2771.141732
20
-590.354331
30
0
11
2771.141732
21
-605.629921
31
0
0
LINE
8
1
10
2766.417323
20
-605.629921
30
0
11
2771.141732
21
-605.629921
31
0
0
LINE
8
1
10
2211.417323
20
-161.023622
30
0
11
2216.141732
21
-161.023622
31
0
0
LINE
8
1
10
2211.417323
20
-161.023622
30
0
11
2211.417323
21
-175.511811
31
0
0
LINE
8
1
10
2216.141732
20
-161.023622
30
0
11
2216.141732
21
-175.511811
31
0
0
LINE
8
1
10
2211.417323
20
-175.511811
30
0
11
2216.141732
21
-175.511811
31
0
0
LINE
8
1
10
2211.417323
20
-170.669291
30
0
11
2216.141732
21
-170.669291
31
0
0
LINE
8
1
10
2211.417323
20
-170.669291
30
0
11
2211.417323
21
-595.078740
31
0
0
LINE
8
1
10
2216.141732
20
-170.669291
30
0
11
2216.141732
21
-595.078740
31
0
0
LINE
8
1
10
2211.417323
20
-595.078740
30
0
11
2216.141732
21
-595.078740
31
0
0
LINE
8
1
10
2101.299213
20
-170.669291
30
0
11
2916.141732
21
-170.669291
31
0
0
LINE
8
1
10
2101.299213
20
-170.669291
30
0
11
2101.299213
21
-175.393701
31
0
0
LINE
8
1
10
2916.141732
20
-170.669291
30
0
11
2916.141732
21
-175.393701
31
0
0
LINE
8
1
10
2101.299213
20
-175.393701
30
0
11
2916.141732
21
-175.393701
31
0
0
LINE
8
1
10
2911.417323
20
-170.669291
30
0
11
2916.141732
21
-170.669291
31
0
0
LINE
8
1
10
2911.417323
20
-170.669291
30
0
11
2911.417323
21
-595.078740
31
0
0
LINE
8
1
10
2916.141732
20
-170.669291
30
0
11
2916.141732
21
-595.078740
31
0
0
LINE
8
1
10
2911.417323
20
-595.078740
30
0
11
2916.141732
21
-595.078740
31
0
0
LINE
8
1
10
2211.417323
20
-590.354331
30
0
11
2216.141732
21
-590.354331
31
0
0
LINE
8
1
10
2211.417323
20
-590.354331
30
0
11
2211.417323
21
-605.629921
31
0
0
LINE
8
1
10
2216.141732
20
-590.354331
30
0
11
2216.141732
21
-605.629921
31
0
0
LINE
8
1
10
2211.417323
20
-605.629921
30
0
11
2216.141732
21
-605.629921
31
0
0
LINE
8
1
10
2766.417323
20
-170.787402
30
0
11
2771.141732
21
-170.787402
31
0
0
LINE
8
1
10
2766.417323
20
-170.787402
30
0
11
2766.417323
21
-595.196850
31
0
0
LINE
8
1
10
2771.141732
20
-170.787402
30
0
11
2771.141732
21
-595.196850
31
0
0
LINE
8
1
10
2766.417323
20
-595.196850
30
0
11
2771.141732
21
-595.196850
31
0
0
LINE
8
1
10
2211.417323
20
-600.905512
30
0
11
2776.141732
21
-600.905512
31
0
0
LINE
8
1
10
2211.417323
20
-600.905512
30
0
11
2211.417323
21
-605.629921
31
0
0
LINE
8
1
10
2776.141732
20
-600.905512
30
0
11
2776.141732
21
-605.629921
31
0
0
LINE
8
1
10
2211.417323
20
-605.629921
30
0
11
2776.141732
21
-605.629921
31
0
0
LINE
8
1
10
2766.417323
20
-160.905512
30
0
11
2771.141732
21
-160.905512
31
0
0
LINE
8
1
10
2766.417323
20
-160.905512
30
0
11
2766.417323
21
-175.393701
31
0
0
LINE
8
1
10
2771.141732
20
-160.905512
30
0
11
2771.141732
21
-175.393701
31
0
0
LINE
8
1
10
2766.417323
20
-175.393701
30
0
11
2771.141732
21
-175.393701
31
0
0
LINE
8
1
10
2101.299213
20
-170.669291
30
0
11
2106.023622
21
-170.669291
31
0
0
LINE
8
1
10
2101.299213
20
-170.669291
30
0
11
2101.299213
21
-594.685039
31
0
0
LINE
8
1
10
2106.023622
20
-170.669291
30
0
11
2106.023622
21
-594.685039
31
0
0
LINE
8
1
10
2101.299213
20
-594.685039
30
0
11
2106.023622
21
-594.685039
31
0
0
LINE
8
1
10
2101.299213
20
-590.354331
30
0
11
2916.141732
21
-590.354331
31
0
0
LINE
8
1
10
2101.299213
20
-590.354331
30
0
11
2101.299213
21
-595.078740
31
0
0
LINE
8
1
10
2916.141732
20
-590.354331
30
0
11
2916.141732
21
-595.078740
31
0
0
LINE
8
1
10
2101.299213
20
-595.078740
30
0
11
2916.141732
21
-595.078740
31
0
0
CIRCLE
8
0
10
217.519685
20
-217.519685
30
0
40
68.897638
0
LINE
8
1
10
752.532795
20
-92.420472
30
0
11
762.532795
21
-92.420472
31
0
0
LINE
8
1
10
752.532795
20
-92.420472
30
0
11
752.532795
21
-389.822047
31
0
0
LINE
8
1
10
762.532795
20
-92.420472
30
0
11
762.532795
21
-389.822047
31
0
0
LINE
8
1
10
752.532795
20
-389.822047
30
0
11
762.532795
21
-389.822047
31
0
0
LINE
8
1
10
452.926496
20
-379.822047
30
0
11
762.532795
21
-379.822047
31
0
0
LINE
8
1
10
452.926496
20
-379.822047
30
0
11
452.926496
21
-389.822047
31
0
0
LINE
8
1
10
762.532795
20
-379.822047
30
0
11
762.532795
21
-389.822047
31
0
0
LINE
8
1
10
452.926496
20
-389.822047
30
0
11
762.532795
21
-389.822047
31
0
0
LINE
8
1
10
452.926496
20
-92.420472
30
0
11
762.532795
21
-92.420472
31
0
0
LINE
8
1
10
452.926496
20
-92.420472
30
0
11
452.926496
21
-102.420472
31
0
0
LINE
8
1
10
762.532795
20
-92.420472
30
0
11
762.532795
21
-102.420472
31
0
0
LINE
8
1
10
452.926496
20
-102.420472
30
0
11
762.532795
21
-102.420472
31
0
0
LINE
8
1
10
452.926496
20
-92.420472
30
0
11
462.926496
21
-92.420472
31
0
0
LINE
8
1
10
452.926496
20
-92.420472
30
0
11
452.926496
21
-389.822047
31
0
0
LINE
8
1
10
462.926496
20
-92.420472
30
0
11
462.926496
21
-389.822047
31
0
0
LINE
8
1
10
452.926496
20
-389.822047
30
0
11
462.926496
21
-389.822047
31
0
0
LINE
8
1
10
863.177323
20
-1338.655039
30
0
11
886.433465
21
-1338.655039
31
0
0
LINE
8
1
10
863.177323
20
-1338.655039
30
0
11
863.177323
21
-1360.723425
31
0
0
LINE
8
1
10
886.433465
20
-1338.655039
30
0
11
886.433465
21
-1360.723425
31
0
0
LINE
8
1
10
863.177323
20
-1360.723425
30
0
11
886.433465
21
-1360.723425
31
0
0
LINE
8
1
10
732.980945
20
-1226.462598
30
0
11
808.818071
21
-1226.462598
31
0
0
LINE
8
1
10
732.980945
20
-1226.462598
30
0
11
732.980945
21
-1259.361850
31
0
0
LINE
8
1
10
808.818071
20
-1226.462598
30
0
11
808.818071
21
-1259.361850
31
0
0
LINE
8
1
10
732.980945
20
-1259.361850
30
0
11
808.818071
21
-1259.361850
31
0
0
LINE
8
1
10
843.617126
20
-1356.137795
30
0
11
876.127677
21
-1356.137795
31
0
0
LINE
8
1
10
843.617126
20
-1356.137795
30
0
11
843.617126
21
-1469.446220
31
0
0
LINE
8
1
10
876.127677
20
-1356.137795
30
0
11
876.127677
21
-1469.446220
31
0
0
LINE
8
1
10
843.617126
20
-1469.446220
30
0
11
876.127677
21
-1469.446220
31
0
0
LINE
8
1
10
542.211142
20
-1117.982520
30
0
11
916.450276
21
-1117.982520
31
0
0
LINE
8
1
10
542.211142
20
-1117.982520
30
0
11
542.211142
21
-1482.372992
31
0
0
LINE
8
1
10
916.450276
20
-1117.982520
30
0
11
916.450276
21
-1482.372992
31
0
0
LINE
8
1
10
542.211142
20
-1482.372992
30
0
11
916.450276
21
-1482.372992
31
0
0
LINE
8
1
10
815.031654
20
-1202.321496
30
0
11
837.623150
21
-1202.321496
31
0
0
LINE
8
1
10
815.031654
20
-1202.321496
30
0
11
815.031654
21
-1225.183031
31
0
0
LINE
8
1
10
837.623150
20
-1202.321496
30
0
11
837.623150
21
-1225.183031
31
0
0
LINE
8
1
10
815.031654
20
-1225.183031
30
0
11
837.623150
21
-1225.183031
31
0
0
LINE
8
1
10
707.670236
20
-1464.322913
30
0
11
724.067323
21
-1464.322913
31
0
0
LINE
8
1
10
707.670236
20
-1464.322913
30
0
11
707.670236
21
-1482.411220
31
0
0
LINE
8
1
10
724.067323
20
-1464.322913
30
0
11
724.067323
21
-1482.411220
31
0
0
LINE
8
1
10
707.670236
20
-1482.411220
30
0
11
724.067323
21
-1482.411220
31
0
0
ENDSEC
0
EOF
