%TF.GenerationSoftware,KiCad,Pcbnew,7.0.7*%
%TF.CreationDate,2023-10-03T01:03:54-04:00*%
%TF.ProjectId,PB_8_DMX,50425f38-5f44-44d5-982e-6b696361645f,v1*%
%TF.SameCoordinates,Original*%
%TF.FileFunction,Legend,Bot*%
%TF.FilePolarity,Positive*%
%FSLAX46Y46*%
G04 Gerber Fmt 4.6, Leading zero omitted, Abs format (unit mm)*
G04 Created by KiCad (PCBNEW 7.0.7) date 2023-10-03 01:03:54*
%MOMM*%
%LPD*%
G01*
G04 APERTURE LIST*
G04 Aperture macros list*
%AMRoundRect*
0 Rectangle with rounded corners*
0 $1 Rounding radius*
0 $2 $3 $4 $5 $6 $7 $8 $9 X,Y pos of 4 corners*
0 Add a 4 corners polygon primitive as box body*
4,1,4,$2,$3,$4,$5,$6,$7,$8,$9,$2,$3,0*
0 Add four circle primitives for the rounded corners*
1,1,$1+$1,$2,$3*
1,1,$1+$1,$4,$5*
1,1,$1+$1,$6,$7*
1,1,$1+$1,$8,$9*
0 Add four rect primitives between the rounded corners*
20,1,$1+$1,$2,$3,$4,$5,0*
20,1,$1+$1,$4,$5,$6,$7,0*
20,1,$1+$1,$6,$7,$8,$9,0*
20,1,$1+$1,$8,$9,$2,$3,0*%
G04 Aperture macros list end*
%ADD10RoundRect,0.051000X0.800000X0.800000X-0.800000X0.800000X-0.800000X-0.800000X0.800000X-0.800000X0*%
%ADD11C,1.702000*%
%ADD12RoundRect,0.301000X-0.650000X-1.550000X0.650000X-1.550000X0.650000X1.550000X-0.650000X1.550000X0*%
%ADD13O,1.902000X3.702000*%
%ADD14RoundRect,0.051000X0.650000X-0.650000X0.650000X0.650000X-0.650000X0.650000X-0.650000X-0.650000X0*%
%ADD15C,1.402000*%
%ADD16O,3.002000X2.002000*%
%ADD17O,2.002000X3.002000*%
%ADD18RoundRect,0.051000X-0.850000X0.850000X-0.850000X-0.850000X0.850000X-0.850000X0.850000X0.850000X0*%
%ADD19O,1.802000X1.802000*%
%ADD20RoundRect,0.051000X-0.900000X0.900000X-0.900000X-0.900000X0.900000X-0.900000X0.900000X0.900000X0*%
%ADD21C,1.902000*%
%ADD22C,1.626000*%
%ADD23C,1.372000*%
%ADD24RoundRect,0.051000X-0.704000X0.704000X-0.704000X-0.704000X0.704000X-0.704000X0.704000X0.704000X0*%
%ADD25C,1.510000*%
%ADD26RoundRect,0.051000X0.850000X-0.850000X0.850000X0.850000X-0.850000X0.850000X-0.850000X-0.850000X0*%
%ADD27RoundRect,0.051000X-0.900000X-0.900000X0.900000X-0.900000X0.900000X0.900000X-0.900000X0.900000X0*%
%ADD28O,1.702000X1.702000*%
%ADD29RoundRect,0.051000X0.900000X0.900000X-0.900000X0.900000X-0.900000X-0.900000X0.900000X-0.900000X0*%
%ADD30RoundRect,0.301000X-0.600000X-0.725000X0.600000X-0.725000X0.600000X0.725000X-0.600000X0.725000X0*%
%ADD31O,1.802000X2.052000*%
%ADD32RoundRect,0.051000X0.700000X0.700000X-0.700000X0.700000X-0.700000X-0.700000X0.700000X-0.700000X0*%
%ADD33C,1.502000*%
%ADD34C,2.577000*%
%ADD35RoundRect,0.051000X-1.300000X-1.300000X1.300000X-1.300000X1.300000X1.300000X-1.300000X1.300000X0*%
%ADD36C,2.702000*%
%ADD37RoundRect,0.051000X1.000000X1.000000X-1.000000X1.000000X-1.000000X-1.000000X1.000000X-1.000000X0*%
%ADD38C,2.102000*%
%ADD39RoundRect,0.051000X-0.800000X0.800000X-0.800000X-0.800000X0.800000X-0.800000X0.800000X0.800000X0*%
%ADD40RoundRect,0.051000X-1.400000X1.400000X-1.400000X-1.400000X1.400000X-1.400000X1.400000X1.400000X0*%
%ADD41O,2.902000X2.902000*%
%ADD42RoundRect,0.051000X0.800000X-0.800000X0.800000X0.800000X-0.800000X0.800000X-0.800000X-0.800000X0*%
%ADD43C,3.802000*%
G04 APERTURE END LIST*
%LPC*%
D10*
%TO.C,C2*%
X-10631088Y36445700D03*
D11*
X-12631088Y36445700D03*
%TD*%
D12*
%TO.C,J2*%
X-61416200Y-2664300D03*
D13*
X-57916200Y-2664300D03*
X-54416200Y-2664300D03*
%TD*%
D12*
%TO.C,J5*%
X-31416200Y10335700D03*
D13*
X-27916200Y10335700D03*
X-24416200Y10335700D03*
%TD*%
D12*
%TO.C,J6*%
X-31301858Y-2664300D03*
D13*
X-27801858Y-2664300D03*
X-24301858Y-2664300D03*
%TD*%
D12*
%TO.C,J7*%
X-16416200Y10335700D03*
D13*
X-12916200Y10335700D03*
X-9416200Y10335700D03*
%TD*%
D12*
%TO.C,J8*%
X-16416200Y-2664300D03*
D13*
X-12916200Y-2664300D03*
X-9416200Y-2664300D03*
%TD*%
D12*
%TO.C,J1*%
X-61416200Y10335700D03*
D13*
X-57916200Y10335700D03*
X-54416200Y10335700D03*
%TD*%
D12*
%TO.C,J3*%
X-46416200Y10335700D03*
D13*
X-42916200Y10335700D03*
X-39416200Y10335700D03*
%TD*%
D12*
%TO.C,J4*%
X-46416200Y-2664300D03*
D13*
X-42916200Y-2664300D03*
X-39416200Y-2664300D03*
%TD*%
D14*
%TO.C,J10*%
X-2467400Y65989900D03*
D15*
X-2467400Y68489900D03*
X-2467400Y70489900D03*
X-2467400Y72989900D03*
D16*
X-3067400Y62919900D03*
D17*
X-7247400Y69489900D03*
D16*
X-3067400Y76059900D03*
%TD*%
D18*
%TO.C,J11*%
X-18734600Y76024900D03*
D19*
X-21274600Y76024900D03*
X-23814600Y76024900D03*
X-26354600Y76024900D03*
X-28894600Y76024900D03*
%TD*%
D20*
%TO.C,U1*%
X-3698200Y39365700D03*
D21*
X-3698200Y41905700D03*
X-3698200Y44445700D03*
D22*
X14081800Y45715700D03*
X14081800Y43175700D03*
X14081800Y40635700D03*
X14081800Y38095700D03*
X10271800Y45947640D03*
X10271800Y43252700D03*
X10271800Y40558700D03*
X10271800Y37863760D03*
%TD*%
D23*
%TO.C,F2*%
X-8066200Y57285700D03*
X-13166200Y58885700D03*
%TD*%
D11*
%TO.C,C3*%
X-10341400Y67284900D03*
X-10341400Y62284900D03*
%TD*%
%TO.C,C5*%
X-13674600Y62294900D03*
X-13674600Y67294900D03*
%TD*%
D24*
%TO.C,U3*%
X-22081500Y67318300D03*
D25*
X-22081500Y64778300D03*
X-24621500Y67318300D03*
X-24621500Y64778300D03*
X-27161500Y67318300D03*
X-27161500Y64778300D03*
X-29701500Y67318300D03*
X-29701500Y64778300D03*
X-32241500Y67318300D03*
X-32241500Y64778300D03*
X-34781500Y67318300D03*
X-34781500Y64778300D03*
X-37321500Y67318300D03*
X-37321500Y64778300D03*
X-39861500Y67318300D03*
X-39861500Y64778300D03*
X-42401500Y67318300D03*
X-42401500Y64778300D03*
X-44941500Y67318300D03*
X-44941500Y64778300D03*
X-47481500Y67318300D03*
X-47481500Y64778300D03*
X-50021500Y67318300D03*
X-50021500Y64778300D03*
X-52561500Y67318300D03*
X-52561500Y64778300D03*
X-55101500Y67318300D03*
X-55101500Y64778300D03*
X-57641500Y67318300D03*
X-57641500Y64778300D03*
X-60181500Y67318300D03*
X-60181500Y64778300D03*
X-62721500Y67318300D03*
X-62721500Y64778300D03*
X-65261500Y67318300D03*
X-65261500Y64778300D03*
D24*
X-22081500Y41918300D03*
D25*
X-22081500Y39378300D03*
X-24621500Y41918300D03*
X-24621500Y39378300D03*
X-27161500Y41918300D03*
X-27161500Y39378300D03*
X-29701500Y41918300D03*
X-29701500Y39378300D03*
X-32241500Y41918300D03*
X-32241500Y39378300D03*
X-34781500Y41918300D03*
X-34781500Y39378300D03*
X-37321500Y41918300D03*
X-37321500Y39378300D03*
X-39861500Y41918300D03*
X-39861500Y39378300D03*
X-42401500Y41918300D03*
X-42401500Y39378300D03*
X-44941500Y41918300D03*
X-44941500Y39378300D03*
X-47481500Y41918300D03*
X-47481500Y39378300D03*
X-50021500Y41918300D03*
X-50021500Y39378300D03*
X-52561500Y41918300D03*
X-52561500Y39378300D03*
X-55101500Y41918300D03*
X-55101500Y39378300D03*
X-57641500Y41918300D03*
X-57641500Y39378300D03*
X-60181500Y41918300D03*
X-60181500Y39378300D03*
X-62721500Y41918300D03*
X-62721500Y39378300D03*
X-65261500Y41918300D03*
X-65261500Y39378300D03*
%TD*%
D26*
%TO.C,J13*%
X-54924600Y76024900D03*
D19*
X-52384600Y76024900D03*
X-49844600Y76024900D03*
X-47304600Y76024900D03*
%TD*%
D27*
%TO.C,D1*%
X-6431200Y22585700D03*
D21*
X-3891200Y22585700D03*
%TD*%
D11*
%TO.C,R1*%
X-76200Y22460700D03*
D28*
X7543800Y22460700D03*
%TD*%
D29*
%TO.C,D2*%
X-4136200Y17680700D03*
D21*
X-6676200Y17680700D03*
%TD*%
D11*
%TO.C,R2*%
X7518800Y18635700D03*
D28*
X-101200Y18635700D03*
%TD*%
D30*
%TO.C,J12*%
X5116600Y75508900D03*
D31*
X7616600Y75508900D03*
X10116600Y75508900D03*
X12616600Y75508900D03*
%TD*%
D32*
%TO.C,SW1*%
X-37621000Y73218900D03*
D33*
X-40121000Y73218900D03*
X-42621000Y73218900D03*
X-37621000Y76518900D03*
X-40121000Y76518900D03*
X-42621000Y76518900D03*
%TD*%
D34*
%TO.C,F1*%
X13433800Y12635700D03*
X13433800Y16335700D03*
X13433800Y20835700D03*
X13433800Y24535700D03*
%TD*%
D35*
%TO.C,J9*%
X7883800Y-1764300D03*
D36*
X12883800Y-1764300D03*
%TD*%
D37*
%TO.C,C1*%
X1001600Y30735900D03*
D38*
X-3998400Y30735900D03*
%TD*%
D11*
%TO.C,R3*%
X-37366200Y52085700D03*
D28*
X-37366200Y59705700D03*
%TD*%
D11*
%TO.C,R4*%
X-40466200Y52085700D03*
D28*
X-40466200Y59705700D03*
%TD*%
D39*
%TO.C,U2*%
X-26566200Y59585700D03*
D28*
X-29106200Y59585700D03*
X-31646200Y59585700D03*
X-34186200Y59585700D03*
X-34186200Y51965700D03*
X-31646200Y51965700D03*
X-29106200Y51965700D03*
X-26566200Y51965700D03*
%TD*%
D11*
%TO.C,C4*%
X-23566200Y51985700D03*
X-23566200Y56985700D03*
%TD*%
D38*
%TO.C,SW2*%
X5183800Y56185700D03*
X5183800Y49685700D03*
X683800Y56185700D03*
X683800Y49685700D03*
%TD*%
%TO.C,SW3*%
X14783800Y56185700D03*
X14783800Y49685700D03*
X10283800Y56185700D03*
X10283800Y49685700D03*
%TD*%
D40*
%TO.C,D3*%
X-12806200Y51995700D03*
D41*
X-12806200Y41835700D03*
%TD*%
D42*
%TO.C,IC2*%
X-31416200Y22315700D03*
D28*
X-28876200Y22315700D03*
X-26336200Y22315700D03*
X-23796200Y22315700D03*
X-21256200Y22315700D03*
X-18716200Y22315700D03*
X-16176200Y22315700D03*
X-13636200Y22315700D03*
X-13636200Y29935700D03*
X-16176200Y29935700D03*
X-18716200Y29935700D03*
X-21256200Y29935700D03*
X-23796200Y29935700D03*
X-26336200Y29935700D03*
X-28876200Y29935700D03*
X-31416200Y29935700D03*
%TD*%
D11*
%TO.C,R12*%
X-22366200Y16985700D03*
D28*
X-29986200Y16985700D03*
%TD*%
D11*
%TO.C,C7*%
X-34516200Y29735700D03*
X-34516200Y24735700D03*
%TD*%
%TO.C,C6*%
X-65016200Y29485700D03*
X-65016200Y24485700D03*
%TD*%
%TO.C,R7*%
X-39966200Y17135700D03*
D28*
X-47586200Y17135700D03*
%TD*%
D43*
%TO.C,H4*%
X-70316200Y11885700D03*
%TD*%
%TO.C,H1*%
X6183800Y62885700D03*
%TD*%
D11*
%TO.C,R6*%
X-39566200Y3885700D03*
D28*
X-47186200Y3885700D03*
%TD*%
D11*
%TO.C,R11*%
X-9856200Y17135700D03*
D28*
X-17476200Y17135700D03*
%TD*%
D11*
%TO.C,R8*%
X-52566200Y17185700D03*
D28*
X-60186200Y17185700D03*
%TD*%
D11*
%TO.C,R9*%
X-30026200Y3935700D03*
D28*
X-22406200Y3935700D03*
%TD*%
D11*
%TO.C,R10*%
X-9816200Y3885700D03*
D28*
X-17436200Y3885700D03*
%TD*%
D43*
%TO.C,H2*%
X6183800Y11885700D03*
%TD*%
D42*
%TO.C,IC1*%
X-62136200Y21985700D03*
D28*
X-59596200Y21985700D03*
X-57056200Y21985700D03*
X-54516200Y21985700D03*
X-51976200Y21985700D03*
X-49436200Y21985700D03*
X-46896200Y21985700D03*
X-44356200Y21985700D03*
X-44356200Y29605700D03*
X-46896200Y29605700D03*
X-49436200Y29605700D03*
X-51976200Y29605700D03*
X-54516200Y29605700D03*
X-57056200Y29605700D03*
X-59596200Y29605700D03*
X-62136200Y29605700D03*
%TD*%
D11*
%TO.C,R5*%
X-62566200Y3885700D03*
D28*
X-54946200Y3885700D03*
%TD*%
D43*
%TO.C,H3*%
X-70316200Y62885700D03*
%TD*%
%LPD*%
M02*
