%TF.GenerationSoftware,KiCad,Pcbnew,(6.0.9)*%
%TF.CreationDate,2023-01-01T20:10:18-05:00*%
%TF.ProjectId,Wally_Tree,57616c6c-795f-4547-9265-652e6b696361,v1*%
%TF.SameCoordinates,Original*%
%TF.FileFunction,Soldermask,Top*%
%TF.FilePolarity,Negative*%
%FSLAX46Y46*%
G04 Gerber Fmt 4.6, Leading zero omitted, Abs format (unit mm)*
G04 Created by KiCad (PCBNEW (6.0.9)) date 2023-01-01 20:10:18*
%MOMM*%
%LPD*%
G01*
G04 APERTURE LIST*
G04 Aperture macros list*
%AMRoundRect*
0 Rectangle with rounded corners*
0 $1 Rounding radius*
0 $2 $3 $4 $5 $6 $7 $8 $9 X,Y pos of 4 corners*
0 Add a 4 corners polygon primitive as box body*
4,1,4,$2,$3,$4,$5,$6,$7,$8,$9,$2,$3,0*
0 Add four circle primitives for the rounded corners*
1,1,$1+$1,$2,$3*
1,1,$1+$1,$4,$5*
1,1,$1+$1,$6,$7*
1,1,$1+$1,$8,$9*
0 Add four rect primitives between the rounded corners*
20,1,$1+$1,$2,$3,$4,$5,0*
20,1,$1+$1,$4,$5,$6,$7,0*
20,1,$1+$1,$6,$7,$8,$9,0*
20,1,$1+$1,$8,$9,$2,$3,0*%
G04 Aperture macros list end*
%ADD10C,3.402000*%
%ADD11RoundRect,0.051000X0.750000X0.750000X-0.750000X0.750000X-0.750000X-0.750000X0.750000X-0.750000X0*%
%ADD12C,1.602000*%
%ADD13RoundRect,0.288500X0.250000X0.237500X-0.250000X0.237500X-0.250000X-0.237500X0.250000X-0.237500X0*%
%ADD14RoundRect,0.288500X-0.250000X-0.237500X0.250000X-0.237500X0.250000X0.237500X-0.250000X0.237500X0*%
%ADD15RoundRect,0.201000X-0.150000X0.825000X-0.150000X-0.825000X0.150000X-0.825000X0.150000X0.825000X0*%
%ADD16RoundRect,0.288500X-0.237500X0.250000X-0.237500X-0.250000X0.237500X-0.250000X0.237500X0.250000X0*%
%ADD17RoundRect,0.051000X-1.300000X-1.300000X1.300000X-1.300000X1.300000X1.300000X-1.300000X1.300000X0*%
%ADD18C,2.702000*%
%ADD19RoundRect,0.051000X1.500000X-1.500000X1.500000X1.500000X-1.500000X1.500000X-1.500000X-1.500000X0*%
%ADD20C,3.102000*%
%ADD21C,3.802000*%
%ADD22RoundRect,0.288500X-0.237500X0.287500X-0.237500X-0.287500X0.237500X-0.287500X0.237500X0.287500X0*%
%ADD23RoundRect,0.191000X-0.140000X-0.170000X0.140000X-0.170000X0.140000X0.170000X-0.140000X0.170000X0*%
%ADD24RoundRect,0.051000X-1.300000X1.300000X-1.300000X-1.300000X1.300000X-1.300000X1.300000X1.300000X0*%
%ADD25RoundRect,0.051000X-0.255000X0.350000X-0.255000X-0.350000X0.255000X-0.350000X0.255000X0.350000X0*%
%ADD26RoundRect,0.201000X0.587500X0.150000X-0.587500X0.150000X-0.587500X-0.150000X0.587500X-0.150000X0*%
%ADD27C,2.577000*%
%ADD28RoundRect,0.191000X0.170000X-0.140000X0.170000X0.140000X-0.170000X0.140000X-0.170000X-0.140000X0*%
%ADD29RoundRect,0.213500X-0.825000X-0.162500X0.825000X-0.162500X0.825000X0.162500X-0.825000X0.162500X0*%
%ADD30RoundRect,0.301000X-0.337500X-0.475000X0.337500X-0.475000X0.337500X0.475000X-0.337500X0.475000X0*%
%ADD31RoundRect,0.342667X-1.508333X0.758333X-1.508333X-0.758333X1.508333X-0.758333X1.508333X0.758333X0*%
%ADD32O,3.702000X1.902000*%
%ADD33O,3.702000X2.202000*%
G04 APERTURE END LIST*
D10*
%TO.C,J7*%
X-110096200Y44717700D03*
X-121526200Y44717700D03*
D11*
X-111366200Y38367700D03*
D12*
X-112636200Y35827700D03*
X-113906200Y38367700D03*
X-115176200Y35827700D03*
X-116446200Y38367700D03*
X-117716200Y35827700D03*
X-118986200Y38367700D03*
X-120256200Y35827700D03*
%TD*%
D13*
%TO.C,R3*%
X-117830700Y31813700D03*
X-119655700Y31813700D03*
%TD*%
%TO.C,R4*%
X-110028700Y31813700D03*
X-111853700Y31813700D03*
%TD*%
D14*
%TO.C,R5*%
X-115228700Y31813700D03*
X-113403700Y31813700D03*
%TD*%
%TO.C,R6*%
X-124227700Y31813700D03*
X-122402700Y31813700D03*
%TD*%
D15*
%TO.C,U3*%
X-112003200Y28700700D03*
X-113273200Y28700700D03*
X-114543200Y28700700D03*
X-115813200Y28700700D03*
X-117083200Y28700700D03*
X-118353200Y28700700D03*
X-119623200Y28700700D03*
X-120893200Y28700700D03*
X-120893200Y23750700D03*
X-119623200Y23750700D03*
X-118353200Y23750700D03*
X-117083200Y23750700D03*
X-115813200Y23750700D03*
X-114543200Y23750700D03*
X-113273200Y23750700D03*
X-112003200Y23750700D03*
%TD*%
D16*
%TO.C,R2*%
X-109312200Y12394700D03*
X-109312200Y10569700D03*
%TD*%
D17*
%TO.C,J1*%
X-117216200Y-2130300D03*
D18*
X-112216200Y-2130300D03*
%TD*%
D19*
%TO.C,TB1*%
X-105324400Y14953740D03*
D20*
X-105324400Y23203660D03*
%TD*%
D21*
%TO.C,H4*%
X-98416200Y-3146300D03*
%TD*%
D22*
%TO.C,D3*%
X-109312200Y8689200D03*
X-109312200Y6939200D03*
%TD*%
D16*
%TO.C,R8*%
X-120234200Y19356200D03*
X-120234200Y17531200D03*
%TD*%
D23*
%TO.C,C3*%
X-110896200Y14085700D03*
X-109936200Y14085700D03*
%TD*%
D24*
%TO.C,J2*%
X-126045200Y9019700D03*
D18*
X-126045200Y4019700D03*
%TD*%
D25*
%TO.C,U4*%
X-116490200Y19857700D03*
X-117440200Y19857700D03*
X-118390200Y19857700D03*
X-118390200Y17537700D03*
X-116490200Y17537700D03*
%TD*%
D26*
%TO.C,Q1*%
X-117440200Y5113700D03*
X-117440200Y7013700D03*
X-119315200Y6063700D03*
%TD*%
D21*
%TO.C,H1*%
X-128108200Y-3146300D03*
%TD*%
D27*
%TO.C,F1*%
X-105016200Y7835700D03*
X-105016200Y4135700D03*
X-105016200Y-364300D03*
X-105016200Y-4064300D03*
%TD*%
D28*
%TO.C,C2*%
X-111116200Y17605700D03*
X-111116200Y18565700D03*
%TD*%
D29*
%TO.C,U2*%
X-118107700Y14074700D03*
X-118107700Y12804700D03*
X-118107700Y11534700D03*
X-118107700Y10264700D03*
X-113032700Y10264700D03*
X-113032700Y11534700D03*
X-113032700Y12804700D03*
X-113032700Y14074700D03*
%TD*%
D28*
%TO.C,C4*%
X-110616200Y23605700D03*
X-110616200Y24565700D03*
%TD*%
D30*
%TO.C,C1*%
X-111853700Y4981700D03*
X-109778700Y4981700D03*
%TD*%
D13*
%TO.C,R7*%
X-113703700Y5013700D03*
X-115528700Y5013700D03*
%TD*%
D21*
%TO.C,H2*%
X-98416200Y43485700D03*
%TD*%
D31*
%TO.C,J3*%
X-127092200Y22865700D03*
D32*
X-127092200Y19205700D03*
D33*
X-127092200Y15545700D03*
%TD*%
D14*
%TO.C,R1*%
X-115050700Y15903700D03*
X-113225700Y15903700D03*
%TD*%
D21*
%TO.C,H3*%
X-128108200Y43485700D03*
%TD*%
D25*
%TO.C,U1*%
X-112680200Y19867700D03*
X-113630200Y19867700D03*
X-114580200Y19867700D03*
X-114580200Y17547700D03*
X-112680200Y17547700D03*
%TD*%
G36*
X-125588017Y21765701D02*
G01*
X-125588017Y21763701D01*
X-125589568Y21762709D01*
X-125589579Y21762708D01*
X-125589760Y21762700D01*
X-128594640Y21762700D01*
X-128596372Y21763700D01*
X-128596372Y21765700D01*
X-128594640Y21766700D01*
X-125589749Y21766701D01*
X-125588017Y21765701D01*
G37*
G36*
X-125588028Y23967700D02*
G01*
X-125588028Y23965700D01*
X-125589760Y23964700D01*
X-128594651Y23964699D01*
X-128596383Y23965699D01*
X-128596383Y23967699D01*
X-128594832Y23968691D01*
X-128594821Y23968692D01*
X-128594640Y23968700D01*
X-125589760Y23968700D01*
X-125588028Y23967700D01*
G37*
M02*
