%TF.GenerationSoftware,KiCad,Pcbnew,(6.0.5)*%
%TF.CreationDate,2022-06-05T02:43:02-04:00*%
%TF.ProjectId,Exp_Filter,4578705f-4669-46c7-9465-722e6b696361,rev?*%
%TF.SameCoordinates,Original*%
%TF.FileFunction,Legend,Top*%
%TF.FilePolarity,Positive*%
%FSLAX46Y46*%
G04 Gerber Fmt 4.6, Leading zero omitted, Abs format (unit mm)*
G04 Created by KiCad (PCBNEW (6.0.5)) date 2022-06-05 02:43:02*
%MOMM*%
%LPD*%
G01*
G04 APERTURE LIST*
%ADD10C,0.150000*%
%ADD11C,0.120000*%
G04 APERTURE END LIST*
D10*
%TO.C,R16*%
X165522380Y-106262857D02*
X165046190Y-106596190D01*
X165522380Y-106834285D02*
X164522380Y-106834285D01*
X164522380Y-106453333D01*
X164570000Y-106358095D01*
X164617619Y-106310476D01*
X164712857Y-106262857D01*
X164855714Y-106262857D01*
X164950952Y-106310476D01*
X164998571Y-106358095D01*
X165046190Y-106453333D01*
X165046190Y-106834285D01*
X165522380Y-105310476D02*
X165522380Y-105881904D01*
X165522380Y-105596190D02*
X164522380Y-105596190D01*
X164665238Y-105691428D01*
X164760476Y-105786666D01*
X164808095Y-105881904D01*
X164522380Y-104453333D02*
X164522380Y-104643809D01*
X164570000Y-104739047D01*
X164617619Y-104786666D01*
X164760476Y-104881904D01*
X164950952Y-104929523D01*
X165331904Y-104929523D01*
X165427142Y-104881904D01*
X165474761Y-104834285D01*
X165522380Y-104739047D01*
X165522380Y-104548571D01*
X165474761Y-104453333D01*
X165427142Y-104405714D01*
X165331904Y-104358095D01*
X165093809Y-104358095D01*
X164998571Y-104405714D01*
X164950952Y-104453333D01*
X164903333Y-104548571D01*
X164903333Y-104739047D01*
X164950952Y-104834285D01*
X164998571Y-104881904D01*
X165093809Y-104929523D01*
%TO.C,R15*%
X162982380Y-106252857D02*
X162506190Y-106586190D01*
X162982380Y-106824285D02*
X161982380Y-106824285D01*
X161982380Y-106443333D01*
X162030000Y-106348095D01*
X162077619Y-106300476D01*
X162172857Y-106252857D01*
X162315714Y-106252857D01*
X162410952Y-106300476D01*
X162458571Y-106348095D01*
X162506190Y-106443333D01*
X162506190Y-106824285D01*
X162982380Y-105300476D02*
X162982380Y-105871904D01*
X162982380Y-105586190D02*
X161982380Y-105586190D01*
X162125238Y-105681428D01*
X162220476Y-105776666D01*
X162268095Y-105871904D01*
X161982380Y-104395714D02*
X161982380Y-104871904D01*
X162458571Y-104919523D01*
X162410952Y-104871904D01*
X162363333Y-104776666D01*
X162363333Y-104538571D01*
X162410952Y-104443333D01*
X162458571Y-104395714D01*
X162553809Y-104348095D01*
X162791904Y-104348095D01*
X162887142Y-104395714D01*
X162934761Y-104443333D01*
X162982380Y-104538571D01*
X162982380Y-104776666D01*
X162934761Y-104871904D01*
X162887142Y-104919523D01*
%TO.C,R14*%
X160432380Y-106255357D02*
X159956190Y-106588690D01*
X160432380Y-106826785D02*
X159432380Y-106826785D01*
X159432380Y-106445833D01*
X159480000Y-106350595D01*
X159527619Y-106302976D01*
X159622857Y-106255357D01*
X159765714Y-106255357D01*
X159860952Y-106302976D01*
X159908571Y-106350595D01*
X159956190Y-106445833D01*
X159956190Y-106826785D01*
X160432380Y-105302976D02*
X160432380Y-105874404D01*
X160432380Y-105588690D02*
X159432380Y-105588690D01*
X159575238Y-105683928D01*
X159670476Y-105779166D01*
X159718095Y-105874404D01*
X159765714Y-104445833D02*
X160432380Y-104445833D01*
X159384761Y-104683928D02*
X160099047Y-104922023D01*
X160099047Y-104302976D01*
%TO.C,R13*%
X157902380Y-106242857D02*
X157426190Y-106576190D01*
X157902380Y-106814285D02*
X156902380Y-106814285D01*
X156902380Y-106433333D01*
X156950000Y-106338095D01*
X156997619Y-106290476D01*
X157092857Y-106242857D01*
X157235714Y-106242857D01*
X157330952Y-106290476D01*
X157378571Y-106338095D01*
X157426190Y-106433333D01*
X157426190Y-106814285D01*
X157902380Y-105290476D02*
X157902380Y-105861904D01*
X157902380Y-105576190D02*
X156902380Y-105576190D01*
X157045238Y-105671428D01*
X157140476Y-105766666D01*
X157188095Y-105861904D01*
X156902380Y-104957142D02*
X156902380Y-104338095D01*
X157283333Y-104671428D01*
X157283333Y-104528571D01*
X157330952Y-104433333D01*
X157378571Y-104385714D01*
X157473809Y-104338095D01*
X157711904Y-104338095D01*
X157807142Y-104385714D01*
X157854761Y-104433333D01*
X157902380Y-104528571D01*
X157902380Y-104814285D01*
X157854761Y-104909523D01*
X157807142Y-104957142D01*
%TO.C,R12*%
X155154380Y-106255357D02*
X154678190Y-106588690D01*
X155154380Y-106826785D02*
X154154380Y-106826785D01*
X154154380Y-106445833D01*
X154202000Y-106350595D01*
X154249619Y-106302976D01*
X154344857Y-106255357D01*
X154487714Y-106255357D01*
X154582952Y-106302976D01*
X154630571Y-106350595D01*
X154678190Y-106445833D01*
X154678190Y-106826785D01*
X155154380Y-105302976D02*
X155154380Y-105874404D01*
X155154380Y-105588690D02*
X154154380Y-105588690D01*
X154297238Y-105683928D01*
X154392476Y-105779166D01*
X154440095Y-105874404D01*
X154249619Y-104922023D02*
X154202000Y-104874404D01*
X154154380Y-104779166D01*
X154154380Y-104541071D01*
X154202000Y-104445833D01*
X154249619Y-104398214D01*
X154344857Y-104350595D01*
X154440095Y-104350595D01*
X154582952Y-104398214D01*
X155154380Y-104969642D01*
X155154380Y-104350595D01*
%TO.C,R11*%
X152812380Y-106252857D02*
X152336190Y-106586190D01*
X152812380Y-106824285D02*
X151812380Y-106824285D01*
X151812380Y-106443333D01*
X151860000Y-106348095D01*
X151907619Y-106300476D01*
X152002857Y-106252857D01*
X152145714Y-106252857D01*
X152240952Y-106300476D01*
X152288571Y-106348095D01*
X152336190Y-106443333D01*
X152336190Y-106824285D01*
X152812380Y-105300476D02*
X152812380Y-105871904D01*
X152812380Y-105586190D02*
X151812380Y-105586190D01*
X151955238Y-105681428D01*
X152050476Y-105776666D01*
X152098095Y-105871904D01*
X152812380Y-104348095D02*
X152812380Y-104919523D01*
X152812380Y-104633809D02*
X151812380Y-104633809D01*
X151955238Y-104729047D01*
X152050476Y-104824285D01*
X152098095Y-104919523D01*
%TO.C,R10*%
X150272380Y-106255357D02*
X149796190Y-106588690D01*
X150272380Y-106826785D02*
X149272380Y-106826785D01*
X149272380Y-106445833D01*
X149320000Y-106350595D01*
X149367619Y-106302976D01*
X149462857Y-106255357D01*
X149605714Y-106255357D01*
X149700952Y-106302976D01*
X149748571Y-106350595D01*
X149796190Y-106445833D01*
X149796190Y-106826785D01*
X150272380Y-105302976D02*
X150272380Y-105874404D01*
X150272380Y-105588690D02*
X149272380Y-105588690D01*
X149415238Y-105683928D01*
X149510476Y-105779166D01*
X149558095Y-105874404D01*
X149272380Y-104683928D02*
X149272380Y-104588690D01*
X149320000Y-104493452D01*
X149367619Y-104445833D01*
X149462857Y-104398214D01*
X149653333Y-104350595D01*
X149891428Y-104350595D01*
X150081904Y-104398214D01*
X150177142Y-104445833D01*
X150224761Y-104493452D01*
X150272380Y-104588690D01*
X150272380Y-104683928D01*
X150224761Y-104779166D01*
X150177142Y-104826785D01*
X150081904Y-104874404D01*
X149891428Y-104922023D01*
X149653333Y-104922023D01*
X149462857Y-104874404D01*
X149367619Y-104826785D01*
X149320000Y-104779166D01*
X149272380Y-104683928D01*
%TO.C,R9*%
X147742380Y-105746666D02*
X147266190Y-106080000D01*
X147742380Y-106318095D02*
X146742380Y-106318095D01*
X146742380Y-105937142D01*
X146790000Y-105841904D01*
X146837619Y-105794285D01*
X146932857Y-105746666D01*
X147075714Y-105746666D01*
X147170952Y-105794285D01*
X147218571Y-105841904D01*
X147266190Y-105937142D01*
X147266190Y-106318095D01*
X147742380Y-105270476D02*
X147742380Y-105080000D01*
X147694761Y-104984761D01*
X147647142Y-104937142D01*
X147504285Y-104841904D01*
X147313809Y-104794285D01*
X146932857Y-104794285D01*
X146837619Y-104841904D01*
X146790000Y-104889523D01*
X146742380Y-104984761D01*
X146742380Y-105175238D01*
X146790000Y-105270476D01*
X146837619Y-105318095D01*
X146932857Y-105365714D01*
X147170952Y-105365714D01*
X147266190Y-105318095D01*
X147313809Y-105270476D01*
X147361428Y-105175238D01*
X147361428Y-104984761D01*
X147313809Y-104889523D01*
X147266190Y-104841904D01*
X147170952Y-104794285D01*
%TO.C,R8*%
X144986380Y-105779166D02*
X144510190Y-106112500D01*
X144986380Y-106350595D02*
X143986380Y-106350595D01*
X143986380Y-105969642D01*
X144034000Y-105874404D01*
X144081619Y-105826785D01*
X144176857Y-105779166D01*
X144319714Y-105779166D01*
X144414952Y-105826785D01*
X144462571Y-105874404D01*
X144510190Y-105969642D01*
X144510190Y-106350595D01*
X144414952Y-105207738D02*
X144367333Y-105302976D01*
X144319714Y-105350595D01*
X144224476Y-105398214D01*
X144176857Y-105398214D01*
X144081619Y-105350595D01*
X144034000Y-105302976D01*
X143986380Y-105207738D01*
X143986380Y-105017261D01*
X144034000Y-104922023D01*
X144081619Y-104874404D01*
X144176857Y-104826785D01*
X144224476Y-104826785D01*
X144319714Y-104874404D01*
X144367333Y-104922023D01*
X144414952Y-105017261D01*
X144414952Y-105207738D01*
X144462571Y-105302976D01*
X144510190Y-105350595D01*
X144605428Y-105398214D01*
X144795904Y-105398214D01*
X144891142Y-105350595D01*
X144938761Y-105302976D01*
X144986380Y-105207738D01*
X144986380Y-105017261D01*
X144938761Y-104922023D01*
X144891142Y-104874404D01*
X144795904Y-104826785D01*
X144605428Y-104826785D01*
X144510190Y-104874404D01*
X144462571Y-104922023D01*
X144414952Y-105017261D01*
%TO.C,R7*%
X142662380Y-105776666D02*
X142186190Y-106110000D01*
X142662380Y-106348095D02*
X141662380Y-106348095D01*
X141662380Y-105967142D01*
X141710000Y-105871904D01*
X141757619Y-105824285D01*
X141852857Y-105776666D01*
X141995714Y-105776666D01*
X142090952Y-105824285D01*
X142138571Y-105871904D01*
X142186190Y-105967142D01*
X142186190Y-106348095D01*
X141662380Y-105443333D02*
X141662380Y-104776666D01*
X142662380Y-105205238D01*
%TO.C,R6*%
X140102380Y-105796666D02*
X139626190Y-106130000D01*
X140102380Y-106368095D02*
X139102380Y-106368095D01*
X139102380Y-105987142D01*
X139150000Y-105891904D01*
X139197619Y-105844285D01*
X139292857Y-105796666D01*
X139435714Y-105796666D01*
X139530952Y-105844285D01*
X139578571Y-105891904D01*
X139626190Y-105987142D01*
X139626190Y-106368095D01*
X139102380Y-104939523D02*
X139102380Y-105130000D01*
X139150000Y-105225238D01*
X139197619Y-105272857D01*
X139340476Y-105368095D01*
X139530952Y-105415714D01*
X139911904Y-105415714D01*
X140007142Y-105368095D01*
X140054761Y-105320476D01*
X140102380Y-105225238D01*
X140102380Y-105034761D01*
X140054761Y-104939523D01*
X140007142Y-104891904D01*
X139911904Y-104844285D01*
X139673809Y-104844285D01*
X139578571Y-104891904D01*
X139530952Y-104939523D01*
X139483333Y-105034761D01*
X139483333Y-105225238D01*
X139530952Y-105320476D01*
X139578571Y-105368095D01*
X139673809Y-105415714D01*
%TO.C,R5*%
X137562380Y-105766666D02*
X137086190Y-106100000D01*
X137562380Y-106338095D02*
X136562380Y-106338095D01*
X136562380Y-105957142D01*
X136610000Y-105861904D01*
X136657619Y-105814285D01*
X136752857Y-105766666D01*
X136895714Y-105766666D01*
X136990952Y-105814285D01*
X137038571Y-105861904D01*
X137086190Y-105957142D01*
X137086190Y-106338095D01*
X136562380Y-104861904D02*
X136562380Y-105338095D01*
X137038571Y-105385714D01*
X136990952Y-105338095D01*
X136943333Y-105242857D01*
X136943333Y-105004761D01*
X136990952Y-104909523D01*
X137038571Y-104861904D01*
X137133809Y-104814285D01*
X137371904Y-104814285D01*
X137467142Y-104861904D01*
X137514761Y-104909523D01*
X137562380Y-105004761D01*
X137562380Y-105242857D01*
X137514761Y-105338095D01*
X137467142Y-105385714D01*
%TO.C,R4*%
X135032380Y-105776666D02*
X134556190Y-106110000D01*
X135032380Y-106348095D02*
X134032380Y-106348095D01*
X134032380Y-105967142D01*
X134080000Y-105871904D01*
X134127619Y-105824285D01*
X134222857Y-105776666D01*
X134365714Y-105776666D01*
X134460952Y-105824285D01*
X134508571Y-105871904D01*
X134556190Y-105967142D01*
X134556190Y-106348095D01*
X134365714Y-104919523D02*
X135032380Y-104919523D01*
X133984761Y-105157619D02*
X134699047Y-105395714D01*
X134699047Y-104776666D01*
%TO.C,R3*%
X132482380Y-105806666D02*
X132006190Y-106140000D01*
X132482380Y-106378095D02*
X131482380Y-106378095D01*
X131482380Y-105997142D01*
X131530000Y-105901904D01*
X131577619Y-105854285D01*
X131672857Y-105806666D01*
X131815714Y-105806666D01*
X131910952Y-105854285D01*
X131958571Y-105901904D01*
X132006190Y-105997142D01*
X132006190Y-106378095D01*
X131482380Y-105473333D02*
X131482380Y-104854285D01*
X131863333Y-105187619D01*
X131863333Y-105044761D01*
X131910952Y-104949523D01*
X131958571Y-104901904D01*
X132053809Y-104854285D01*
X132291904Y-104854285D01*
X132387142Y-104901904D01*
X132434761Y-104949523D01*
X132482380Y-105044761D01*
X132482380Y-105330476D01*
X132434761Y-105425714D01*
X132387142Y-105473333D01*
%TO.C,R2*%
X129932380Y-105826666D02*
X129456190Y-106160000D01*
X129932380Y-106398095D02*
X128932380Y-106398095D01*
X128932380Y-106017142D01*
X128980000Y-105921904D01*
X129027619Y-105874285D01*
X129122857Y-105826666D01*
X129265714Y-105826666D01*
X129360952Y-105874285D01*
X129408571Y-105921904D01*
X129456190Y-106017142D01*
X129456190Y-106398095D01*
X129027619Y-105445714D02*
X128980000Y-105398095D01*
X128932380Y-105302857D01*
X128932380Y-105064761D01*
X128980000Y-104969523D01*
X129027619Y-104921904D01*
X129122857Y-104874285D01*
X129218095Y-104874285D01*
X129360952Y-104921904D01*
X129932380Y-105493333D01*
X129932380Y-104874285D01*
%TO.C,R1*%
X127262380Y-105826666D02*
X126786190Y-106160000D01*
X127262380Y-106398095D02*
X126262380Y-106398095D01*
X126262380Y-106017142D01*
X126310000Y-105921904D01*
X126357619Y-105874285D01*
X126452857Y-105826666D01*
X126595714Y-105826666D01*
X126690952Y-105874285D01*
X126738571Y-105921904D01*
X126786190Y-106017142D01*
X126786190Y-106398095D01*
X127262380Y-104874285D02*
X127262380Y-105445714D01*
X127262380Y-105160000D02*
X126262380Y-105160000D01*
X126405238Y-105255238D01*
X126500476Y-105350476D01*
X126548095Y-105445714D01*
D11*
%TO.C,J1*%
X149300000Y-113982500D02*
X149300000Y-113982500D01*
%TO.C,R16*%
X165777500Y-105867224D02*
X165777500Y-105357776D01*
X166822500Y-105867224D02*
X166822500Y-105357776D01*
%TO.C,R15*%
X163235500Y-105867224D02*
X163235500Y-105357776D01*
X164280500Y-105867224D02*
X164280500Y-105357776D01*
%TO.C,R14*%
X160693500Y-105867224D02*
X160693500Y-105357776D01*
X161738500Y-105867224D02*
X161738500Y-105357776D01*
%TO.C,R13*%
X158151500Y-105867224D02*
X158151500Y-105357776D01*
X159196500Y-105867224D02*
X159196500Y-105357776D01*
%TO.C,R12*%
X155609500Y-105867224D02*
X155609500Y-105357776D01*
X156654500Y-105867224D02*
X156654500Y-105357776D01*
%TO.C,R11*%
X153067500Y-105867224D02*
X153067500Y-105357776D01*
X154112500Y-105867224D02*
X154112500Y-105357776D01*
%TO.C,R10*%
X150525500Y-105867224D02*
X150525500Y-105357776D01*
X151570500Y-105867224D02*
X151570500Y-105357776D01*
%TO.C,R9*%
X147983500Y-105867224D02*
X147983500Y-105357776D01*
X149028500Y-105867224D02*
X149028500Y-105357776D01*
%TO.C,R8*%
X146486500Y-105867224D02*
X146486500Y-105357776D01*
X145441500Y-105867224D02*
X145441500Y-105357776D01*
%TO.C,R7*%
X142899500Y-105867224D02*
X142899500Y-105357776D01*
X143944500Y-105867224D02*
X143944500Y-105357776D01*
%TO.C,R6*%
X140357500Y-105867224D02*
X140357500Y-105357776D01*
X141402500Y-105867224D02*
X141402500Y-105357776D01*
%TO.C,R5*%
X137815500Y-105867224D02*
X137815500Y-105357776D01*
X138860500Y-105867224D02*
X138860500Y-105357776D01*
%TO.C,R4*%
X135273500Y-105867224D02*
X135273500Y-105357776D01*
X136318500Y-105867224D02*
X136318500Y-105357776D01*
%TO.C,R3*%
X132731500Y-105867224D02*
X132731500Y-105357776D01*
X133776500Y-105867224D02*
X133776500Y-105357776D01*
%TO.C,R2*%
X130189500Y-105867224D02*
X130189500Y-105357776D01*
X131234500Y-105867224D02*
X131234500Y-105357776D01*
%TO.C,R1*%
X127647500Y-105867224D02*
X127647500Y-105357776D01*
X128692500Y-105867224D02*
X128692500Y-105357776D01*
%TD*%
M02*
