G04 #@! TF.GenerationSoftware,KiCad,Pcbnew,(5.1.5)-3*
G04 #@! TF.CreationDate,2020-04-19T01:43:58-04:00*
G04 #@! TF.ProjectId,Pwr_Diff_Breakout,5077725f-4469-4666-965f-427265616b6f,v1*
G04 #@! TF.SameCoordinates,Original*
G04 #@! TF.FileFunction,Other,User*
%FSLAX46Y46*%
G04 Gerber Fmt 4.6, Leading zero omitted, Abs format (unit mm)*
G04 Created by KiCad (PCBNEW (5.1.5)-3) date 2020-04-19 01:43:58*
%MOMM*%
%LPD*%
G04 APERTURE LIST*
%ADD10C,0.050000*%
G04 APERTURE END LIST*
D10*
X80641000Y-149419800D02*
G75*
G03X80641000Y-149419800I-3950000J0D01*
G01*
X113929000Y-95309800D02*
X97619000Y-95309800D01*
X113929000Y-95309800D02*
X113929000Y-76569800D01*
X97619000Y-76569800D02*
X97619000Y-95309800D01*
X97619000Y-76569800D02*
X113929000Y-76569800D01*
X104531000Y-115502800D02*
X88221000Y-115502800D01*
X104531000Y-115502800D02*
X104531000Y-96762800D01*
X88221000Y-96762800D02*
X88221000Y-115502800D01*
X88221000Y-96762800D02*
X104531000Y-96762800D01*
X104501000Y-135187800D02*
X88191000Y-135187800D01*
X104501000Y-135187800D02*
X104501000Y-116447800D01*
X88191000Y-116447800D02*
X88191000Y-135187800D01*
X88191000Y-116447800D02*
X104501000Y-116447800D01*
X131441000Y-73219800D02*
G75*
G03X131441000Y-73219800I-3950000J0D01*
G01*
X122311000Y-135187800D02*
X106001000Y-135187800D01*
X122311000Y-135187800D02*
X122311000Y-116447800D01*
X106001000Y-116447800D02*
X106001000Y-135187800D01*
X106001000Y-116447800D02*
X122311000Y-116447800D01*
X122311000Y-115502800D02*
X106001000Y-115502800D01*
X122311000Y-115502800D02*
X122311000Y-96762800D01*
X106001000Y-96762800D02*
X106001000Y-115502800D01*
X106001000Y-96762800D02*
X122311000Y-96762800D01*
X80641000Y-73219800D02*
G75*
G03X80641000Y-73219800I-3950000J0D01*
G01*
X131441000Y-149419800D02*
G75*
G03X131441000Y-149419800I-3950000J0D01*
G01*
X78279000Y-102932800D02*
X78279000Y-98082800D01*
X73779000Y-102932800D02*
X78279000Y-102932800D01*
X73779000Y-98082800D02*
X73779000Y-102932800D01*
X78279000Y-98082800D02*
X73779000Y-98082800D01*
X77549000Y-114932800D02*
X77549000Y-105212800D01*
X74549000Y-114932800D02*
X77549000Y-114932800D01*
X74549000Y-105212800D02*
X74549000Y-114932800D01*
X77549000Y-105212800D02*
X74549000Y-105212800D01*
X117021000Y-135377800D02*
X117021000Y-151777800D01*
X122721000Y-135377800D02*
X117021000Y-135377800D01*
X122721000Y-151777800D02*
X122721000Y-135377800D01*
X117021000Y-151777800D02*
X122721000Y-151777800D01*
M02*
