G04 #@! TF.GenerationSoftware,KiCad,Pcbnew,(5.1.5)-3*
G04 #@! TF.CreationDate,2020-04-27T22:49:15-04:00*
G04 #@! TF.ProjectId,Pwr_Diff_Breakout,5077725f-4469-4666-965f-427265616b6f,v1*
G04 #@! TF.SameCoordinates,Original*
G04 #@! TF.FileFunction,Other,ECO2*
%FSLAX46Y46*%
G04 Gerber Fmt 4.6, Leading zero omitted, Abs format (unit mm)*
G04 Created by KiCad (PCBNEW (5.1.5)-3) date 2020-04-27 22:49:15*
%MOMM*%
%LPD*%
G04 APERTURE LIST*
%ADD10C,0.300000*%
%ADD11C,0.127000*%
G04 APERTURE END LIST*
D10*
X113742420Y-152617800D02*
G75*
G03X113742420Y-152617800I-141420J0D01*
G01*
D11*
X115901000Y-151667800D02*
X111101000Y-151667800D01*
X115901000Y-136967800D02*
X115901000Y-151667800D01*
X111101000Y-136967800D02*
X115901000Y-136967800D01*
X111101000Y-151667800D02*
X111101000Y-136967800D01*
D10*
X105775752Y-152617800D02*
G75*
G03X105775752Y-152617800I-141420J0D01*
G01*
D11*
X107934332Y-151667800D02*
X103134332Y-151667800D01*
X107934332Y-136967800D02*
X107934332Y-151667800D01*
X103134332Y-136967800D02*
X107934332Y-136967800D01*
X103134332Y-151667800D02*
X103134332Y-136967800D01*
D10*
X89842420Y-152617800D02*
G75*
G03X89842420Y-152617800I-141420J0D01*
G01*
D11*
X92001000Y-151667800D02*
X87201000Y-151667800D01*
X92001000Y-136967800D02*
X92001000Y-151667800D01*
X87201000Y-136967800D02*
X92001000Y-136967800D01*
X87201000Y-151667800D02*
X87201000Y-136967800D01*
D10*
X97809086Y-152617800D02*
G75*
G03X97809086Y-152617800I-141420J0D01*
G01*
D11*
X99967666Y-151667800D02*
X95167666Y-151667800D01*
X99967666Y-136967800D02*
X99967666Y-151667800D01*
X95167666Y-136967800D02*
X99967666Y-136967800D01*
X95167666Y-151667800D02*
X95167666Y-136967800D01*
M02*
