0
SECTION
2
ENTITIES
0
LINE
8
0
10
0.000000
20
0.000000
30
0
11
2405.511811
21
0.000000
31
0
0
LINE
8
0
10
0.000000
20
0.000000
30
0
11
0.000000
21
-3921.259843
31
0
0
LINE
8
0
10
2405.511811
20
0.000000
30
0
11
2405.511811
21
-3921.259843
31
0
0
LINE
8
0
10
0.000000
20
-3921.259843
30
0
11
2405.511811
21
-3921.259843
31
0
0
CIRCLE
8
0
10
2206.692913
20
-3781.496063
30
0
40
62.992126
0
LINE
8
1
10
1334.638740
20
-3257.039449
30
0
11
1351.035827
21
-3257.039449
31
0
0
LINE
8
1
10
1334.638740
20
-3257.039449
30
0
11
1334.638740
21
-3275.127756
31
0
0
LINE
8
1
10
1351.035827
20
-3257.039449
30
0
11
1351.035827
21
-3275.127756
31
0
0
LINE
8
1
10
1334.638740
20
-3275.127756
30
0
11
1351.035827
21
-3275.127756
31
0
0
LINE
8
1
10
1442.000157
20
-2995.038031
30
0
11
1464.591654
21
-2995.038031
31
0
0
LINE
8
1
10
1442.000157
20
-2995.038031
30
0
11
1442.000157
21
-3017.899567
31
0
0
LINE
8
1
10
1464.591654
20
-2995.038031
30
0
11
1464.591654
21
-3017.899567
31
0
0
LINE
8
1
10
1442.000157
20
-3017.899567
30
0
11
1464.591654
21
-3017.899567
31
0
0
LINE
8
1
10
1169.179646
20
-2910.699055
30
0
11
1543.418780
21
-2910.699055
31
0
0
LINE
8
1
10
1169.179646
20
-2910.699055
30
0
11
1169.179646
21
-3275.089528
31
0
0
LINE
8
1
10
1543.418780
20
-2910.699055
30
0
11
1543.418780
21
-3275.089528
31
0
0
LINE
8
1
10
1169.179646
20
-3275.089528
30
0
11
1543.418780
21
-3275.089528
31
0
0
LINE
8
1
10
1490.145827
20
-3131.371575
30
0
11
1513.401969
21
-3131.371575
31
0
0
LINE
8
1
10
1490.145827
20
-3131.371575
30
0
11
1490.145827
21
-3153.439961
31
0
0
LINE
8
1
10
1513.401969
20
-3131.371575
30
0
11
1513.401969
21
-3153.439961
31
0
0
LINE
8
1
10
1490.145827
20
-3153.439961
30
0
11
1513.401969
21
-3153.439961
31
0
0
LINE
8
1
10
1470.585630
20
-3148.854331
30
0
11
1503.096181
21
-3148.854331
31
0
0
LINE
8
1
10
1470.585630
20
-3148.854331
30
0
11
1470.585630
21
-3262.162756
31
0
0
LINE
8
1
10
1503.096181
20
-3148.854331
30
0
11
1503.096181
21
-3262.162756
31
0
0
LINE
8
1
10
1470.585630
20
-3262.162756
30
0
11
1503.096181
21
-3262.162756
31
0
0
LINE
8
1
10
1359.949449
20
-3019.179134
30
0
11
1435.786575
21
-3019.179134
31
0
0
LINE
8
1
10
1359.949449
20
-3019.179134
30
0
11
1359.949449
21
-3052.078386
31
0
0
LINE
8
1
10
1435.786575
20
-3019.179134
30
0
11
1435.786575
21
-3052.078386
31
0
0
LINE
8
1
10
1359.949449
20
-3052.078386
30
0
11
1435.786575
21
-3052.078386
31
0
0
LINE
8
1
10
1293.330709
20
-993.937008
30
0
11
1298.055118
21
-993.937008
31
0
0
LINE
8
1
10
1293.330709
20
-993.937008
30
0
11
1293.330709
21
-1031.661417
31
0
0
LINE
8
1
10
1298.055118
20
-993.937008
30
0
11
1298.055118
21
-1031.661417
31
0
0
LINE
8
1
10
1293.330709
20
-1031.661417
30
0
11
1298.055118
21
-1031.661417
31
0
0
LINE
8
1
10
1953.799213
20
-670.728346
30
0
11
1958.799213
21
-670.728346
31
0
0
LINE
8
1
10
1953.799213
20
-670.728346
30
0
11
1953.799213
21
-1032.027559
31
0
0
LINE
8
1
10
1958.799213
20
-670.728346
30
0
11
1958.799213
21
-1032.027559
31
0
0
LINE
8
1
10
1953.799213
20
-1032.027559
30
0
11
1958.799213
21
-1032.027559
31
0
0
LINE
8
1
10
454.586614
20
-670.728346
30
0
11
459.586614
21
-670.728346
31
0
0
LINE
8
1
10
454.586614
20
-670.728346
30
0
11
454.586614
21
-1032.027559
31
0
0
LINE
8
1
10
459.586614
20
-670.728346
30
0
11
459.586614
21
-1032.027559
31
0
0
LINE
8
1
10
454.586614
20
-1032.027559
30
0
11
459.586614
21
-1032.027559
31
0
0
LINE
8
1
10
1204.330709
20
-993.937008
30
0
11
1298.055118
21
-993.937008
31
0
0
LINE
8
1
10
1204.330709
20
-993.937008
30
0
11
1204.330709
21
-998.661417
31
0
0
LINE
8
1
10
1298.055118
20
-993.937008
30
0
11
1298.055118
21
-998.661417
31
0
0
LINE
8
1
10
1204.330709
20
-998.661417
30
0
11
1298.055118
21
-998.661417
31
0
0
LINE
8
1
10
1115.330709
20
-993.937008
30
0
11
1120.055118
21
-993.937008
31
0
0
LINE
8
1
10
1115.330709
20
-993.937008
30
0
11
1115.330709
21
-1031.661417
31
0
0
LINE
8
1
10
1120.055118
20
-993.937008
30
0
11
1120.055118
21
-1031.661417
31
0
0
LINE
8
1
10
1115.330709
20
-1031.661417
30
0
11
1120.055118
21
-1031.661417
31
0
0
LINE
8
1
10
1115.330709
20
-993.937008
30
0
11
1209.055118
21
-993.937008
31
0
0
LINE
8
1
10
1115.330709
20
-993.937008
30
0
11
1115.330709
21
-998.661417
31
0
0
LINE
8
1
10
1209.055118
20
-993.937008
30
0
11
1209.055118
21
-998.661417
31
0
0
LINE
8
1
10
1115.330709
20
-998.661417
30
0
11
1209.055118
21
-998.661417
31
0
0
LINE
8
1
10
454.586614
20
-670.728346
30
0
11
1958.799213
21
-670.728346
31
0
0
LINE
8
1
10
454.586614
20
-670.728346
30
0
11
454.586614
21
-675.728346
31
0
0
LINE
8
1
10
1958.799213
20
-670.728346
30
0
11
1958.799213
21
-675.728346
31
0
0
LINE
8
1
10
454.586614
20
-675.728346
30
0
11
1958.799213
21
-675.728346
31
0
0
LINE
8
1
10
454.586614
20
-1027.027559
30
0
11
1958.799213
21
-1027.027559
31
0
0
LINE
8
1
10
454.586614
20
-1027.027559
30
0
11
454.586614
21
-1032.027559
31
0
0
LINE
8
1
10
1958.799213
20
-1027.027559
30
0
11
1958.799213
21
-1032.027559
31
0
0
LINE
8
1
10
454.586614
20
-1032.027559
30
0
11
1958.799213
21
-1032.027559
31
0
0
LINE
8
1
10
423.818898
20
-1010.425197
30
0
11
439.566929
21
-1010.425197
31
0
0
LINE
8
1
10
423.818898
20
-1010.425197
30
0
11
423.818898
21
-1026.173228
31
0
0
LINE
8
1
10
439.566929
20
-1010.425197
30
0
11
439.566929
21
-1026.173228
31
0
0
LINE
8
1
10
423.818898
20
-1026.173228
30
0
11
439.566929
21
-1026.173228
31
0
0
LINE
8
1
10
1397.686811
20
-3358.335709
30
0
11
1516.979055
21
-3358.335709
31
0
0
LINE
8
1
10
1397.686811
20
-3358.335709
30
0
11
1397.686811
21
-3535.845906
31
0
0
LINE
8
1
10
1516.979055
20
-3358.335709
30
0
11
1516.979055
21
-3535.845906
31
0
0
LINE
8
1
10
1397.686811
20
-3535.845906
30
0
11
1516.979055
21
-3535.845906
31
0
0
LINE
8
1
10
1151.137362
20
-3366.164567
30
0
11
1276.167244
21
-3366.164567
31
0
0
LINE
8
1
10
1151.137362
20
-3366.164567
30
0
11
1151.137362
21
-3535.705906
31
0
0
LINE
8
1
10
1276.167244
20
-3366.164567
30
0
11
1276.167244
21
-3535.705906
31
0
0
LINE
8
1
10
1151.137362
20
-3535.705906
30
0
11
1276.167244
21
-3535.705906
31
0
0
LINE
8
1
10
1246.831024
20
-3581.907953
30
0
11
1278.736654
21
-3581.907953
31
0
0
LINE
8
1
10
1246.831024
20
-3581.907953
30
0
11
1246.831024
21
-3611.182559
31
0
0
LINE
8
1
10
1278.736654
20
-3581.907953
30
0
11
1278.736654
21
-3611.182559
31
0
0
LINE
8
1
10
1246.831024
20
-3611.182559
30
0
11
1278.736654
21
-3611.182559
31
0
0
LINE
8
1
10
912.744291
20
-3339.317441
30
0
11
1140.111614
21
-3339.317441
31
0
0
LINE
8
1
10
912.744291
20
-3339.317441
30
0
11
912.744291
21
-3558.080512
31
0
0
LINE
8
1
10
1140.111614
20
-3339.317441
30
0
11
1140.111614
21
-3558.080512
31
0
0
LINE
8
1
10
912.744291
20
-3558.080512
30
0
11
1140.111614
21
-3558.080512
31
0
0
LINE
8
1
10
1321.139331
20
-3581.956535
30
0
11
1365.190787
21
-3581.956535
31
0
0
LINE
8
1
10
1321.139331
20
-3581.956535
30
0
11
1321.139331
21
-3611.153307
31
0
0
LINE
8
1
10
1365.190787
20
-3581.956535
30
0
11
1365.190787
21
-3611.153307
31
0
0
LINE
8
1
10
1321.139331
20
-3611.153307
30
0
11
1365.190787
21
-3611.153307
31
0
0
LINE
8
1
10
1012.164331
20
-3581.899961
30
0
11
1039.669173
21
-3581.899961
31
0
0
LINE
8
1
10
1012.164331
20
-3581.899961
30
0
11
1012.164331
21
-3611.182559
31
0
0
LINE
8
1
10
1039.669173
20
-3581.899961
30
0
11
1039.669173
21
-3611.182559
31
0
0
LINE
8
1
10
1012.164331
20
-3611.182559
30
0
11
1039.669173
21
-3611.182559
31
0
0
LINE
8
1
10
1160.164331
20
-3581.832087
30
0
11
1192.076378
21
-3581.832087
31
0
0
LINE
8
1
10
1160.164331
20
-3581.832087
30
0
11
1160.164331
21
-3611.174449
31
0
0
LINE
8
1
10
1192.076378
20
-3581.832087
30
0
11
1192.076378
21
-3611.174449
31
0
0
LINE
8
1
10
1160.164331
20
-3611.174449
30
0
11
1192.076378
21
-3611.174449
31
0
0
LINE
8
1
10
1113.498031
20
-3581.944252
30
0
11
1147.224724
21
-3581.944252
31
0
0
LINE
8
1
10
1113.498031
20
-3581.944252
30
0
11
1113.498031
21
-3611.097047
31
0
0
LINE
8
1
10
1147.224724
20
-3581.944252
30
0
11
1147.224724
21
-3611.097047
31
0
0
LINE
8
1
10
1113.498031
20
-3611.097047
30
0
11
1147.224724
21
-3611.097047
31
0
0
LINE
8
1
10
967.710157
20
-3581.883661
30
0
11
999.224724
21
-3581.883661
31
0
0
LINE
8
1
10
967.710157
20
-3581.883661
30
0
11
967.710157
21
-3611.182559
31
0
0
LINE
8
1
10
999.224724
20
-3581.883661
30
0
11
999.224724
21
-3611.182559
31
0
0
LINE
8
1
10
967.710157
20
-3611.182559
30
0
11
999.224724
21
-3611.182559
31
0
0
LINE
8
1
10
1390.922559
20
-3581.899961
30
0
11
1422.490827
21
-3581.899961
31
0
0
LINE
8
1
10
1390.922559
20
-3581.899961
30
0
11
1390.922559
21
-3611.074961
31
0
0
LINE
8
1
10
1422.490827
20
-3581.899961
30
0
11
1422.490827
21
-3611.074961
31
0
0
LINE
8
1
10
1390.922559
20
-3611.074961
30
0
11
1422.490827
21
-3611.074961
31
0
0
LINE
8
1
10
1375.942126
20
-3581.899961
30
0
11
1382.113622
21
-3581.899961
31
0
0
LINE
8
1
10
1375.942126
20
-3581.899961
30
0
11
1375.942126
21
-3611.053819
31
0
0
LINE
8
1
10
1382.113622
20
-3581.899961
30
0
11
1382.113622
21
-3611.053819
31
0
0
LINE
8
1
10
1375.942126
20
-3611.053819
30
0
11
1382.113622
21
-3611.053819
31
0
0
LINE
8
1
10
1050.386575
20
-3581.872402
30
0
11
1081.891378
21
-3581.872402
31
0
0
LINE
8
1
10
1050.386575
20
-3581.872402
30
0
11
1050.386575
21
-3611.118504
31
0
0
LINE
8
1
10
1081.891378
20
-3581.872402
30
0
11
1081.891378
21
-3611.118504
31
0
0
LINE
8
1
10
1050.386575
20
-3611.118504
30
0
11
1081.891378
21
-3611.118504
31
0
0
LINE
8
1
10
1094.831024
20
-3582.039961
30
0
11
1101.002480
21
-3582.039961
31
0
0
LINE
8
1
10
1094.831024
20
-3582.039961
30
0
11
1094.831024
21
-3611.068465
31
0
0
LINE
8
1
10
1101.002480
20
-3582.039961
30
0
11
1101.002480
21
-3611.068465
31
0
0
LINE
8
1
10
1094.831024
20
-3611.068465
30
0
11
1101.002480
21
-3611.068465
31
0
0
LINE
8
1
10
1431.234213
20
-3582.009291
30
0
11
1462.780276
21
-3582.009291
31
0
0
LINE
8
1
10
1431.234213
20
-3582.009291
30
0
11
1431.234213
21
-3611.090472
31
0
0
LINE
8
1
10
1462.780276
20
-3582.009291
30
0
11
1462.780276
21
-3611.090472
31
0
0
LINE
8
1
10
1431.234213
20
-3611.090472
30
0
11
1462.780276
21
-3611.090472
31
0
0
LINE
8
1
10
1275.506772
20
-3409.663937
30
0
11
1388.277283
21
-3409.663937
31
0
0
LINE
8
1
10
1275.506772
20
-3409.663937
30
0
11
1275.506772
21
-3535.731496
31
0
0
LINE
8
1
10
1388.277283
20
-3409.663937
30
0
11
1388.277283
21
-3535.731496
31
0
0
LINE
8
1
10
1275.506772
20
-3535.731496
30
0
11
1388.277283
21
-3535.731496
31
0
0
LINE
8
1
10
1206.831024
20
-3581.899961
30
0
11
1233.891378
21
-3581.899961
31
0
0
LINE
8
1
10
1206.831024
20
-3581.899961
30
0
11
1206.831024
21
-3611.182559
31
0
0
LINE
8
1
10
1233.891378
20
-3581.899961
30
0
11
1233.891378
21
-3611.182559
31
0
0
LINE
8
1
10
1206.831024
20
-3611.182559
30
0
11
1233.891378
21
-3611.182559
31
0
0
LINE
8
1
10
1079.505197
20
-3321.506614
30
0
11
1124.421063
21
-3321.506614
31
0
0
LINE
8
1
10
1079.505197
20
-3321.506614
30
0
11
1079.505197
21
-3366.590433
31
0
0
LINE
8
1
10
1124.421063
20
-3321.506614
30
0
11
1124.421063
21
-3366.590433
31
0
0
LINE
8
1
10
1079.505197
20
-3366.590433
30
0
11
1124.421063
21
-3366.590433
31
0
0
CIRCLE
8
0
10
198.818898
20
-789.370079
30
0
40
62.992126
0
CIRCLE
8
0
10
2206.692913
20
-789.370079
30
0
40
62.992126
0
LINE
8
1
10
773.425197
20
-3037.352283
30
0
11
778.149606
21
-3037.352283
31
0
0
LINE
8
1
10
773.425197
20
-3037.352283
30
0
11
773.425197
21
-3062.647717
31
0
0
LINE
8
1
10
778.149606
20
-3037.352283
30
0
11
778.149606
21
-3062.647717
31
0
0
LINE
8
1
10
773.425197
20
-3062.647717
30
0
11
778.149606
21
-3062.647717
31
0
0
LINE
8
1
10
831.299213
20
-3037.352283
30
0
11
836.023622
21
-3037.352283
31
0
0
LINE
8
1
10
831.299213
20
-3037.352283
30
0
11
831.299213
21
-3062.647717
31
0
0
LINE
8
1
10
836.023622
20
-3037.352283
30
0
11
836.023622
21
-3062.647717
31
0
0
LINE
8
1
10
831.299213
20
-3062.647717
30
0
11
836.023622
21
-3062.647717
31
0
0
LINE
8
1
10
1805.829803
20
-3561.938425
30
0
11
1828.531181
21
-3561.938425
31
0
0
LINE
8
1
10
1805.829803
20
-3561.938425
30
0
11
1805.829803
21
-3606.053898
31
0
0
LINE
8
1
10
1828.531181
20
-3561.938425
30
0
11
1828.531181
21
-3606.053898
31
0
0
LINE
8
1
10
1805.829803
20
-3606.053898
30
0
11
1828.531181
21
-3606.053898
31
0
0
LINE
8
1
10
1885.062953
20
-3561.888307
30
0
11
1907.761969
21
-3561.888307
31
0
0
LINE
8
1
10
1885.062953
20
-3561.888307
30
0
11
1885.062953
21
-3606.031457
31
0
0
LINE
8
1
10
1907.761969
20
-3561.888307
30
0
11
1907.761969
21
-3606.031457
31
0
0
LINE
8
1
10
1885.062953
20
-3606.031457
30
0
11
1907.761969
21
-3606.031457
31
0
0
LINE
8
1
10
1858.950630
20
-3573.433543
30
0
11
1881.409528
21
-3573.433543
31
0
0
LINE
8
1
10
1858.950630
20
-3573.433543
30
0
11
1858.950630
21
-3606.053898
31
0
0
LINE
8
1
10
1881.409528
20
-3573.433543
30
0
11
1881.409528
21
-3606.053898
31
0
0
LINE
8
1
10
1858.950630
20
-3606.053898
30
0
11
1881.409528
21
-3606.053898
31
0
0
LINE
8
1
10
1832.752874
20
-3573.484252
30
0
11
1855.596102
21
-3573.484252
31
0
0
LINE
8
1
10
1832.752874
20
-3573.484252
30
0
11
1832.752874
21
-3606.053898
31
0
0
LINE
8
1
10
1855.596102
20
-3573.484252
30
0
11
1855.596102
21
-3606.053898
31
0
0
LINE
8
1
10
1832.752874
20
-3606.053898
30
0
11
1855.596102
21
-3606.053898
31
0
0
LINE
8
1
10
1911.983661
20
-3573.352520
30
0
11
1939.300433
21
-3573.352520
31
0
0
LINE
8
1
10
1911.983661
20
-3573.352520
30
0
11
1911.983661
21
-3605.906614
31
0
0
LINE
8
1
10
1939.300433
20
-3573.352520
30
0
11
1939.300433
21
-3605.906614
31
0
0
LINE
8
1
10
1911.983661
20
-3605.906614
30
0
11
1939.300433
21
-3605.906614
31
0
0
LINE
8
1
10
1700.497441
20
-3571.563858
30
0
11
1725.454252
21
-3571.563858
31
0
0
LINE
8
1
10
1700.497441
20
-3571.563858
30
0
11
1700.497441
21
-3617.536299
31
0
0
LINE
8
1
10
1725.454252
20
-3571.563858
30
0
11
1725.454252
21
-3617.536299
31
0
0
LINE
8
1
10
1700.497441
20
-3617.536299
30
0
11
1725.454252
21
-3617.536299
31
0
0
LINE
8
1
10
1729.693425
20
-3571.597362
30
0
11
1754.727520
21
-3571.597362
31
0
0
LINE
8
1
10
1729.693425
20
-3571.597362
30
0
11
1729.693425
21
-3606.064331
31
0
0
LINE
8
1
10
1754.727520
20
-3571.597362
30
0
11
1754.727520
21
-3606.064331
31
0
0
LINE
8
1
10
1729.693425
20
-3606.064331
30
0
11
1754.727520
21
-3606.064331
31
0
0
LINE
8
1
10
1995.834882
20
-3573.516378
30
0
11
2017.761969
21
-3573.516378
31
0
0
LINE
8
1
10
1995.834882
20
-3573.516378
30
0
11
1995.834882
21
-3605.865787
31
0
0
LINE
8
1
10
2017.761969
20
-3573.516378
30
0
11
2017.761969
21
-3605.865787
31
0
0
LINE
8
1
10
1995.834882
20
-3605.865787
30
0
11
2017.761969
21
-3605.865787
31
0
0
LINE
8
1
10
1722.752874
20
-3324.121732
30
0
11
1966.223504
21
-3324.121732
31
0
0
LINE
8
1
10
1722.752874
20
-3324.121732
30
0
11
1722.752874
21
-3542.977008
31
0
0
LINE
8
1
10
1966.223504
20
-3324.121732
30
0
11
1966.223504
21
-3542.977008
31
0
0
LINE
8
1
10
1722.752874
20
-3542.977008
30
0
11
1966.223504
21
-3542.977008
31
0
0
LINE
8
1
10
1759.578858
20
-3571.512283
30
0
11
1783.915787
21
-3571.512283
31
0
0
LINE
8
1
10
1759.578858
20
-3571.512283
30
0
11
1759.578858
21
-3606.821969
31
0
0
LINE
8
1
10
1783.915787
20
-3571.512283
30
0
11
1783.915787
21
-3606.821969
31
0
0
LINE
8
1
10
1759.578858
20
-3606.821969
30
0
11
1783.915787
21
-3606.821969
31
0
0
LINE
8
1
10
1943.454843
20
-3573.352520
30
0
11
1965.454252
21
-3573.352520
31
0
0
LINE
8
1
10
1943.454843
20
-3573.352520
30
0
11
1943.454843
21
-3606.053898
31
0
0
LINE
8
1
10
1965.454252
20
-3573.352520
30
0
11
1965.454252
21
-3606.053898
31
0
0
LINE
8
1
10
1943.454843
20
-3606.053898
30
0
11
1965.454252
21
-3606.053898
31
0
0
LINE
8
1
10
1969.675945
20
-3573.414094
30
0
11
1991.608110
21
-3573.414094
31
0
0
LINE
8
1
10
1969.675945
20
-3573.414094
30
0
11
1969.675945
21
-3606.053898
31
0
0
LINE
8
1
10
1991.608110
20
-3573.414094
30
0
11
1991.608110
21
-3606.053898
31
0
0
LINE
8
1
10
1969.675945
20
-3606.053898
30
0
11
1991.608110
21
-3606.053898
31
0
0
LINE
8
1
10
1671.214409
20
-3571.484370
30
0
11
1696.228661
21
-3571.484370
31
0
0
LINE
8
1
10
1671.214409
20
-3571.484370
30
0
11
1671.214409
21
-3606.080709
31
0
0
LINE
8
1
10
1696.228661
20
-3571.484370
30
0
11
1696.228661
21
-3606.080709
31
0
0
LINE
8
1
10
1671.214409
20
-3606.080709
30
0
11
1696.228661
21
-3606.080709
31
0
0
LINE
8
1
10
479.133858
20
-2893.700787
30
0
11
533.464567
21
-2893.700787
31
0
0
LINE
8
1
10
479.133858
20
-2893.700787
30
0
11
479.133858
21
-2898.425197
31
0
0
LINE
8
1
10
533.464567
20
-2893.700787
30
0
11
533.464567
21
-2898.425197
31
0
0
LINE
8
1
10
479.133858
20
-2898.425197
30
0
11
533.464567
21
-2898.425197
31
0
0
LINE
8
1
10
698.031496
20
-2893.700787
30
0
11
752.362205
21
-2893.700787
31
0
0
LINE
8
1
10
698.031496
20
-2893.700787
30
0
11
698.031496
21
-2898.425197
31
0
0
LINE
8
1
10
752.362205
20
-2893.700787
30
0
11
752.362205
21
-2898.425197
31
0
0
LINE
8
1
10
698.031496
20
-2898.425197
30
0
11
752.362205
21
-2898.425197
31
0
0
LINE
8
1
10
747.637795
20
-2893.700787
30
0
11
752.362205
21
-2893.700787
31
0
0
LINE
8
1
10
747.637795
20
-2893.700787
30
0
11
747.637795
21
-3046.456693
31
0
0
LINE
8
1
10
752.362205
20
-2893.700787
30
0
11
752.362205
21
-3046.456693
31
0
0
LINE
8
1
10
747.637795
20
-3046.456693
30
0
11
752.362205
21
-3046.456693
31
0
0
LINE
8
1
10
479.133858
20
-2893.700787
30
0
11
483.858268
21
-2893.700787
31
0
0
LINE
8
1
10
479.133858
20
-2893.700787
30
0
11
479.133858
21
-3135.039370
31
0
0
LINE
8
1
10
483.858268
20
-2893.700787
30
0
11
483.858268
21
-3135.039370
31
0
0
LINE
8
1
10
479.133858
20
-3135.039370
30
0
11
483.858268
21
-3135.039370
31
0
0
LINE
8
1
10
1277.165354
20
-581.594488
30
0
11
1281.889764
21
-581.594488
31
0
0
LINE
8
1
10
1277.165354
20
-581.594488
30
0
11
1277.165354
21
-586.318898
31
0
0
LINE
8
1
10
1281.889764
20
-581.594488
30
0
11
1281.889764
21
-586.318898
31
0
0
LINE
8
1
10
1277.165354
20
-586.318898
30
0
11
1281.889764
21
-586.318898
31
0
0
LINE
8
1
10
41.338583
20
-274.114173
30
0
11
2356.299213
21
-274.114173
31
0
0
LINE
8
1
10
41.338583
20
-274.114173
30
0
11
41.338583
21
-278.838583
31
0
0
LINE
8
1
10
2356.299213
20
-274.114173
30
0
11
2356.299213
21
-278.838583
31
0
0
LINE
8
1
10
41.338583
20
-278.838583
30
0
11
2356.299213
21
-278.838583
31
0
0
LINE
8
1
10
1277.165354
20
-581.594488
30
0
11
1281.889764
21
-581.594488
31
0
0
LINE
8
1
10
1277.165354
20
-581.594488
30
0
11
1277.165354
21
-637.893701
31
0
0
LINE
8
1
10
1281.889764
20
-581.594488
30
0
11
1281.889764
21
-637.893701
31
0
0
LINE
8
1
10
1277.165354
20
-637.893701
30
0
11
1281.889764
21
-637.893701
31
0
0
LINE
8
1
10
1277.165354
20
-581.594488
30
0
11
2305.118110
21
-581.594488
31
0
0
LINE
8
1
10
1277.165354
20
-581.594488
30
0
11
1277.165354
21
-586.318898
31
0
0
LINE
8
1
10
2305.118110
20
-581.594488
30
0
11
2305.118110
21
-586.318898
31
0
0
LINE
8
1
10
1277.165354
20
-586.318898
30
0
11
2305.118110
21
-586.318898
31
0
0
LINE
8
1
10
41.338583
20
-633.169291
30
0
11
2356.299213
21
-633.169291
31
0
0
LINE
8
1
10
41.338583
20
-633.169291
30
0
11
41.338583
21
-637.893701
31
0
0
LINE
8
1
10
2356.299213
20
-633.169291
30
0
11
2356.299213
21
-637.893701
31
0
0
LINE
8
1
10
41.338583
20
-637.893701
30
0
11
2356.299213
21
-637.893701
31
0
0
LINE
8
1
10
246.456693
20
-648.523622
30
0
11
270.866142
21
-648.523622
31
0
0
LINE
8
1
10
246.456693
20
-648.523622
30
0
11
246.456693
21
-692.618110
31
0
0
LINE
8
1
10
270.866142
20
-648.523622
30
0
11
270.866142
21
-692.618110
31
0
0
LINE
8
1
10
246.456693
20
-692.618110
30
0
11
270.866142
21
-692.618110
31
0
0
LINE
8
1
10
92.519685
20
-325.688976
30
0
11
2305.118110
21
-325.688976
31
0
0
LINE
8
1
10
92.519685
20
-325.688976
30
0
11
92.519685
21
-330.413386
31
0
0
LINE
8
1
10
2305.118110
20
-325.688976
30
0
11
2305.118110
21
-330.413386
31
0
0
LINE
8
1
10
92.519685
20
-330.413386
30
0
11
2305.118110
21
-330.413386
31
0
0
LINE
8
1
10
2300.393701
20
-325.688976
30
0
11
2305.118110
21
-325.688976
31
0
0
LINE
8
1
10
2300.393701
20
-325.688976
30
0
11
2300.393701
21
-586.318898
31
0
0
LINE
8
1
10
2305.118110
20
-325.688976
30
0
11
2305.118110
21
-586.318898
31
0
0
LINE
8
1
10
2300.393701
20
-586.318898
30
0
11
2305.118110
21
-586.318898
31
0
0
LINE
8
1
10
1115.748031
20
-581.594488
30
0
11
1120.472441
21
-581.594488
31
0
0
LINE
8
1
10
1115.748031
20
-581.594488
30
0
11
1115.748031
21
-637.893701
31
0
0
LINE
8
1
10
1120.472441
20
-581.594488
30
0
11
1120.472441
21
-637.893701
31
0
0
LINE
8
1
10
1115.748031
20
-637.893701
30
0
11
1120.472441
21
-637.893701
31
0
0
LINE
8
1
10
92.519685
20
-581.594488
30
0
11
1120.472441
21
-581.594488
31
0
0
LINE
8
1
10
92.519685
20
-581.594488
30
0
11
92.519685
21
-586.318898
31
0
0
LINE
8
1
10
1120.472441
20
-581.594488
30
0
11
1120.472441
21
-586.318898
31
0
0
LINE
8
1
10
92.519685
20
-586.318898
30
0
11
1120.472441
21
-586.318898
31
0
0
LINE
8
1
10
226.771654
20
-687.893701
30
0
11
270.866142
21
-687.893701
31
0
0
LINE
8
1
10
226.771654
20
-687.893701
30
0
11
226.771654
21
-692.618110
31
0
0
LINE
8
1
10
270.866142
20
-687.893701
30
0
11
270.866142
21
-692.618110
31
0
0
LINE
8
1
10
226.771654
20
-692.618110
30
0
11
270.866142
21
-692.618110
31
0
0
LINE
8
1
10
41.338583
20
-274.114173
30
0
11
46.062992
21
-274.114173
31
0
0
LINE
8
1
10
41.338583
20
-274.114173
30
0
11
41.338583
21
-637.893701
31
0
0
LINE
8
1
10
46.062992
20
-274.114173
30
0
11
46.062992
21
-637.893701
31
0
0
LINE
8
1
10
41.338583
20
-637.893701
30
0
11
46.062992
21
-637.893701
31
0
0
LINE
8
1
10
226.771654
20
-648.523622
30
0
11
251.181102
21
-648.523622
31
0
0
LINE
8
1
10
226.771654
20
-648.523622
30
0
11
226.771654
21
-692.618110
31
0
0
LINE
8
1
10
251.181102
20
-648.523622
30
0
11
251.181102
21
-692.618110
31
0
0
LINE
8
1
10
226.771654
20
-692.618110
30
0
11
251.181102
21
-692.618110
31
0
0
LINE
8
1
10
92.519685
20
-325.688976
30
0
11
97.244094
21
-325.688976
31
0
0
LINE
8
1
10
92.519685
20
-325.688976
30
0
11
92.519685
21
-586.318898
31
0
0
LINE
8
1
10
97.244094
20
-325.688976
30
0
11
97.244094
21
-586.318898
31
0
0
LINE
8
1
10
92.519685
20
-586.318898
30
0
11
97.244094
21
-586.318898
31
0
0
LINE
8
1
10
2351.574803
20
-274.114173
30
0
11
2356.299213
21
-274.114173
31
0
0
LINE
8
1
10
2351.574803
20
-274.114173
30
0
11
2351.574803
21
-637.893701
31
0
0
LINE
8
1
10
2356.299213
20
-274.114173
30
0
11
2356.299213
21
-637.893701
31
0
0
LINE
8
1
10
2351.574803
20
-637.893701
30
0
11
2356.299213
21
-637.893701
31
0
0
LINE
8
1
10
1385.433071
20
-37.007874
30
0
11
1707.086614
21
-37.007874
31
0
0
LINE
8
1
10
1385.433071
20
-37.007874
30
0
11
1385.433071
21
-41.732283
31
0
0
LINE
8
1
10
1707.086614
20
-37.007874
30
0
11
1707.086614
21
-41.732283
31
0
0
LINE
8
1
10
1385.433071
20
-41.732283
30
0
11
1707.086614
21
-41.732283
31
0
0
LINE
8
1
10
1977.952756
20
-212.204724
30
0
11
2053.543307
21
-212.204724
31
0
0
LINE
8
1
10
1977.952756
20
-212.204724
30
0
11
1977.952756
21
-216.929134
31
0
0
LINE
8
1
10
2053.543307
20
-212.204724
30
0
11
2053.543307
21
-216.929134
31
0
0
LINE
8
1
10
1977.952756
20
-216.929134
30
0
11
2053.543307
21
-216.929134
31
0
0
LINE
8
1
10
1355.905512
20
-212.204724
30
0
11
1431.496063
21
-212.204724
31
0
0
LINE
8
1
10
1355.905512
20
-212.204724
30
0
11
1355.905512
21
-216.929134
31
0
0
LINE
8
1
10
1431.496063
20
-212.204724
30
0
11
1431.496063
21
-216.929134
31
0
0
LINE
8
1
10
1355.905512
20
-216.929134
30
0
11
1431.496063
21
-216.929134
31
0
0
LINE
8
1
10
1355.511811
20
-7.086614
30
0
11
2053.937008
21
-7.086614
31
0
0
LINE
8
1
10
1355.511811
20
-7.086614
30
0
11
1355.511811
21
-11.811024
31
0
0
LINE
8
1
10
2053.937008
20
-7.086614
30
0
11
2053.937008
21
-11.811024
31
0
0
LINE
8
1
10
1355.511811
20
-11.811024
30
0
11
2053.937008
21
-11.811024
31
0
0
LINE
8
1
10
1918.897638
20
-212.204724
30
0
11
1923.622047
21
-212.204724
31
0
0
LINE
8
1
10
1918.897638
20
-212.204724
30
0
11
1918.897638
21
-246.456693
31
0
0
LINE
8
1
10
1923.622047
20
-212.204724
30
0
11
1923.622047
21
-246.456693
31
0
0
LINE
8
1
10
1918.897638
20
-246.456693
30
0
11
1923.622047
21
-246.456693
31
0
0
LINE
8
1
10
1485.826772
20
-241.732283
30
0
11
1923.622047
21
-241.732283
31
0
0
LINE
8
1
10
1485.826772
20
-241.732283
30
0
11
1485.826772
21
-246.456693
31
0
0
LINE
8
1
10
1923.622047
20
-241.732283
30
0
11
1923.622047
21
-246.456693
31
0
0
LINE
8
1
10
1485.826772
20
-246.456693
30
0
11
1923.622047
21
-246.456693
31
0
0
LINE
8
1
10
2060.629921
20
-204.330709
30
0
11
2065.354331
21
-204.330709
31
0
0
LINE
8
1
10
2060.629921
20
-204.330709
30
0
11
2060.629921
21
-258.267717
31
0
0
LINE
8
1
10
2065.354331
20
-204.330709
30
0
11
2065.354331
21
-258.267717
31
0
0
LINE
8
1
10
2060.629921
20
-258.267717
30
0
11
2065.354331
21
-258.267717
31
0
0
LINE
8
1
10
1485.826772
20
-212.204724
30
0
11
1490.551181
21
-212.204724
31
0
0
LINE
8
1
10
1485.826772
20
-212.204724
30
0
11
1485.826772
21
-246.456693
31
0
0
LINE
8
1
10
1490.551181
20
-212.204724
30
0
11
1490.551181
21
-246.456693
31
0
0
LINE
8
1
10
1485.826772
20
-246.456693
30
0
11
1490.551181
21
-246.456693
31
0
0
LINE
8
1
10
1426.771654
20
-212.204724
30
0
11
1431.496063
21
-212.204724
31
0
0
LINE
8
1
10
1426.771654
20
-212.204724
30
0
11
1426.771654
21
-246.456693
31
0
0
LINE
8
1
10
1431.496063
20
-212.204724
30
0
11
1431.496063
21
-246.456693
31
0
0
LINE
8
1
10
1426.771654
20
-246.456693
30
0
11
1431.496063
21
-246.456693
31
0
0
LINE
8
1
10
1355.511811
20
-7.086614
30
0
11
1360.236220
21
-7.086614
31
0
0
LINE
8
1
10
1355.511811
20
-7.086614
30
0
11
1355.511811
21
-246.850394
31
0
0
LINE
8
1
10
1360.236220
20
-7.086614
30
0
11
1360.236220
21
-246.850394
31
0
0
LINE
8
1
10
1355.511811
20
-246.850394
30
0
11
1360.236220
21
-246.850394
31
0
0
LINE
8
1
10
1355.905512
20
-153.149606
30
0
11
1390.157480
21
-153.149606
31
0
0
LINE
8
1
10
1355.905512
20
-153.149606
30
0
11
1355.905512
21
-157.874016
31
0
0
LINE
8
1
10
1390.157480
20
-153.149606
30
0
11
1390.157480
21
-157.874016
31
0
0
LINE
8
1
10
1355.905512
20
-157.874016
30
0
11
1390.157480
21
-157.874016
31
0
0
LINE
8
1
10
1702.362205
20
-37.007874
30
0
11
2024.015748
21
-37.007874
31
0
0
LINE
8
1
10
1702.362205
20
-37.007874
30
0
11
1702.362205
21
-41.732283
31
0
0
LINE
8
1
10
2024.015748
20
-37.007874
30
0
11
2024.015748
21
-41.732283
31
0
0
LINE
8
1
10
1702.362205
20
-41.732283
30
0
11
2024.015748
21
-41.732283
31
0
0
LINE
8
1
10
1485.826772
20
-212.204724
30
0
11
1923.622047
21
-212.204724
31
0
0
LINE
8
1
10
1485.826772
20
-212.204724
30
0
11
1485.826772
21
-216.929134
31
0
0
LINE
8
1
10
1923.622047
20
-212.204724
30
0
11
1923.622047
21
-216.929134
31
0
0
LINE
8
1
10
1485.826772
20
-216.929134
30
0
11
1923.622047
21
-216.929134
31
0
0
LINE
8
1
10
2049.212598
20
-7.086614
30
0
11
2053.937008
21
-7.086614
31
0
0
LINE
8
1
10
2049.212598
20
-7.086614
30
0
11
2049.212598
21
-246.850394
31
0
0
LINE
8
1
10
2053.937008
20
-7.086614
30
0
11
2053.937008
21
-246.850394
31
0
0
LINE
8
1
10
2049.212598
20
-246.850394
30
0
11
2053.937008
21
-246.850394
31
0
0
LINE
8
1
10
1355.905512
20
-241.732283
30
0
11
1431.496063
21
-241.732283
31
0
0
LINE
8
1
10
1355.905512
20
-241.732283
30
0
11
1355.905512
21
-246.456693
31
0
0
LINE
8
1
10
1431.496063
20
-241.732283
30
0
11
1431.496063
21
-246.456693
31
0
0
LINE
8
1
10
1355.905512
20
-246.456693
30
0
11
1431.496063
21
-246.456693
31
0
0
LINE
8
1
10
1355.511811
20
-242.125984
30
0
11
2053.937008
21
-242.125984
31
0
0
LINE
8
1
10
1355.511811
20
-242.125984
30
0
11
1355.511811
21
-246.850394
31
0
0
LINE
8
1
10
2053.937008
20
-242.125984
30
0
11
2053.937008
21
-246.850394
31
0
0
LINE
8
1
10
1355.511811
20
-246.850394
30
0
11
2053.937008
21
-246.850394
31
0
0
LINE
8
1
10
1977.952756
20
-212.204724
30
0
11
1982.677165
21
-212.204724
31
0
0
LINE
8
1
10
1977.952756
20
-212.204724
30
0
11
1977.952756
21
-246.456693
31
0
0
LINE
8
1
10
1982.677165
20
-212.204724
30
0
11
1982.677165
21
-246.456693
31
0
0
LINE
8
1
10
1977.952756
20
-246.456693
30
0
11
1982.677165
21
-246.456693
31
0
0
LINE
8
1
10
1355.905512
20
-212.204724
30
0
11
1360.629921
21
-212.204724
31
0
0
LINE
8
1
10
1355.905512
20
-212.204724
30
0
11
1355.905512
21
-246.456693
31
0
0
LINE
8
1
10
1360.629921
20
-212.204724
30
0
11
1360.629921
21
-246.456693
31
0
0
LINE
8
1
10
1355.905512
20
-246.456693
30
0
11
1360.629921
21
-246.456693
31
0
0
LINE
8
1
10
2019.291339
20
-37.007874
30
0
11
2024.015748
21
-37.007874
31
0
0
LINE
8
1
10
2019.291339
20
-37.007874
30
0
11
2019.291339
21
-157.874016
31
0
0
LINE
8
1
10
2024.015748
20
-37.007874
30
0
11
2024.015748
21
-157.874016
31
0
0
LINE
8
1
10
2019.291339
20
-157.874016
30
0
11
2024.015748
21
-157.874016
31
0
0
LINE
8
1
10
2019.291339
20
-153.149606
30
0
11
2053.543307
21
-153.149606
31
0
0
LINE
8
1
10
2019.291339
20
-153.149606
30
0
11
2019.291339
21
-157.874016
31
0
0
LINE
8
1
10
2053.543307
20
-153.149606
30
0
11
2053.543307
21
-157.874016
31
0
0
LINE
8
1
10
2019.291339
20
-157.874016
30
0
11
2053.543307
21
-157.874016
31
0
0
LINE
8
1
10
2011.417323
20
-253.543307
30
0
11
2065.354331
21
-253.543307
31
0
0
LINE
8
1
10
2011.417323
20
-253.543307
30
0
11
2011.417323
21
-258.267717
31
0
0
LINE
8
1
10
2065.354331
20
-253.543307
30
0
11
2065.354331
21
-258.267717
31
0
0
LINE
8
1
10
2011.417323
20
-258.267717
30
0
11
2065.354331
21
-258.267717
31
0
0
LINE
8
1
10
1385.433071
20
-37.007874
30
0
11
1390.157480
21
-37.007874
31
0
0
LINE
8
1
10
1385.433071
20
-37.007874
30
0
11
1385.433071
21
-157.874016
31
0
0
LINE
8
1
10
1390.157480
20
-37.007874
30
0
11
1390.157480
21
-157.874016
31
0
0
LINE
8
1
10
1385.433071
20
-157.874016
30
0
11
1390.157480
21
-157.874016
31
0
0
LINE
8
1
10
1977.952756
20
-241.732283
30
0
11
2053.543307
21
-241.732283
31
0
0
LINE
8
1
10
1977.952756
20
-241.732283
30
0
11
1977.952756
21
-246.456693
31
0
0
LINE
8
1
10
2053.543307
20
-241.732283
30
0
11
2053.543307
21
-246.456693
31
0
0
LINE
8
1
10
1977.952756
20
-246.456693
30
0
11
2053.543307
21
-246.456693
31
0
0
LINE
8
1
10
2048.818898
20
-212.204724
30
0
11
2053.543307
21
-212.204724
31
0
0
LINE
8
1
10
2048.818898
20
-212.204724
30
0
11
2048.818898
21
-246.456693
31
0
0
LINE
8
1
10
2053.543307
20
-212.204724
30
0
11
2053.543307
21
-246.456693
31
0
0
LINE
8
1
10
2048.818898
20
-246.456693
30
0
11
2053.543307
21
-246.456693
31
0
0
CIRCLE
8
0
10
198.818898
20
-3781.496063
30
0
40
62.992126
0
LINE
8
1
10
559.793228
20
-3214.370079
30
0
11
585.088661
21
-3214.370079
31
0
0
LINE
8
1
10
559.793228
20
-3214.370079
30
0
11
559.793228
21
-3219.094488
31
0
0
LINE
8
1
10
585.088661
20
-3214.370079
30
0
11
585.088661
21
-3219.094488
31
0
0
LINE
8
1
10
559.793228
20
-3219.094488
30
0
11
585.088661
21
-3219.094488
31
0
0
LINE
8
1
10
559.793228
20
-3156.496063
30
0
11
585.088661
21
-3156.496063
31
0
0
LINE
8
1
10
559.793228
20
-3156.496063
30
0
11
559.793228
21
-3161.220472
31
0
0
LINE
8
1
10
585.088661
20
-3156.496063
30
0
11
585.088661
21
-3161.220472
31
0
0
LINE
8
1
10
559.793228
20
-3161.220472
30
0
11
585.088661
21
-3161.220472
31
0
0
LINE
8
1
10
233.070866
20
-3252.755906
30
0
11
340.157480
21
-3252.755906
31
0
0
LINE
8
1
10
233.070866
20
-3252.755906
30
0
11
233.070866
21
-3257.480315
31
0
0
LINE
8
1
10
340.157480
20
-3252.755906
30
0
11
340.157480
21
-3257.480315
31
0
0
LINE
8
1
10
233.070866
20
-3257.480315
30
0
11
340.157480
21
-3257.480315
31
0
0
LINE
8
1
10
213.385827
20
-3634.645669
30
0
11
983.464567
21
-3634.645669
31
0
0
LINE
8
1
10
213.385827
20
-3634.645669
30
0
11
213.385827
21
-3639.370079
31
0
0
LINE
8
1
10
983.464567
20
-3634.645669
30
0
11
983.464567
21
-3639.370079
31
0
0
LINE
8
1
10
213.385827
20
-3639.370079
30
0
11
983.464567
21
-3639.370079
31
0
0
LINE
8
1
10
978.740157
20
-3634.645669
30
0
11
2186.614173
21
-3634.645669
31
0
0
LINE
8
1
10
978.740157
20
-3634.645669
30
0
11
978.740157
21
-3639.370079
31
0
0
LINE
8
1
10
2186.614173
20
-3634.645669
30
0
11
2186.614173
21
-3639.370079
31
0
0
LINE
8
1
10
978.740157
20
-3639.370079
30
0
11
2186.614173
21
-3639.370079
31
0
0
LINE
8
1
10
233.070866
20
-3252.755906
30
0
11
237.795276
21
-3252.755906
31
0
0
LINE
8
1
10
233.070866
20
-3252.755906
30
0
11
233.070866
21
-3359.842520
31
0
0
LINE
8
1
10
237.795276
20
-3252.755906
30
0
11
237.795276
21
-3359.842520
31
0
0
LINE
8
1
10
233.070866
20
-3359.842520
30
0
11
237.795276
21
-3359.842520
31
0
0
LINE
8
1
10
335.433071
20
-3302.755906
30
0
11
340.157480
21
-3302.755906
31
0
0
LINE
8
1
10
335.433071
20
-3302.755906
30
0
11
335.433071
21
-3359.842520
31
0
0
LINE
8
1
10
340.157480
20
-3302.755906
30
0
11
340.157480
21
-3359.842520
31
0
0
LINE
8
1
10
335.433071
20
-3359.842520
30
0
11
340.157480
21
-3359.842520
31
0
0
LINE
8
1
10
2302.362205
20
-3374.803150
30
0
11
2307.086614
21
-3374.803150
31
0
0
LINE
8
1
10
2302.362205
20
-3374.803150
30
0
11
2302.362205
21
-3518.897638
31
0
0
LINE
8
1
10
2307.086614
20
-3374.803150
30
0
11
2307.086614
21
-3518.897638
31
0
0
LINE
8
1
10
2302.362205
20
-3518.897638
30
0
11
2307.086614
21
-3518.897638
31
0
0
LINE
8
1
10
130.708661
20
-1350.393701
30
0
11
340.157480
21
-1350.393701
31
0
0
LINE
8
1
10
130.708661
20
-1350.393701
30
0
11
130.708661
21
-1355.118110
31
0
0
LINE
8
1
10
340.157480
20
-1350.393701
30
0
11
340.157480
21
-1355.118110
31
0
0
LINE
8
1
10
130.708661
20
-1355.118110
30
0
11
340.157480
21
-1355.118110
31
0
0
LINE
8
1
10
2302.362205
20
-2084.645669
30
0
11
2307.086614
21
-2084.645669
31
0
0
LINE
8
1
10
2302.362205
20
-2084.645669
30
0
11
2302.362205
21
-3379.527559
31
0
0
LINE
8
1
10
2307.086614
20
-2084.645669
30
0
11
2307.086614
21
-3379.527559
31
0
0
LINE
8
1
10
2302.362205
20
-3379.527559
30
0
11
2307.086614
21
-3379.527559
31
0
0
LINE
8
1
10
130.708661
20
-3355.118110
30
0
11
237.795276
21
-3355.118110
31
0
0
LINE
8
1
10
130.708661
20
-3355.118110
30
0
11
130.708661
21
-3359.842520
31
0
0
LINE
8
1
10
237.795276
20
-3355.118110
30
0
11
237.795276
21
-3359.842520
31
0
0
LINE
8
1
10
130.708661
20
-3359.842520
30
0
11
237.795276
21
-3359.842520
31
0
0
LINE
8
1
10
130.708661
20
-1350.393701
30
0
11
135.433071
21
-1350.393701
31
0
0
LINE
8
1
10
130.708661
20
-1350.393701
30
0
11
130.708661
21
-3359.842520
31
0
0
LINE
8
1
10
135.433071
20
-1350.393701
30
0
11
135.433071
21
-3359.842520
31
0
0
LINE
8
1
10
130.708661
20
-3359.842520
30
0
11
135.433071
21
-3359.842520
31
0
0
LINE
8
1
10
191.247638
20
-1070.315827
30
0
11
2208.720394
21
-1070.315827
31
0
0
LINE
8
1
10
191.247638
20
-1070.315827
30
0
11
191.247638
21
-1075.040236
31
0
0
LINE
8
1
10
2208.720394
20
-1070.315827
30
0
11
2208.720394
21
-1075.040236
31
0
0
LINE
8
1
10
191.247638
20
-1075.040236
30
0
11
2208.720394
21
-1075.040236
31
0
0
LINE
8
1
10
283.070866
20
-3355.118110
30
0
11
340.157480
21
-3355.118110
31
0
0
LINE
8
1
10
283.070866
20
-3355.118110
30
0
11
283.070866
21
-3359.842520
31
0
0
LINE
8
1
10
340.157480
20
-3355.118110
30
0
11
340.157480
21
-3359.842520
31
0
0
LINE
8
1
10
283.070866
20
-3359.842520
30
0
11
340.157480
21
-3359.842520
31
0
0
LINE
8
1
10
92.810551
20
-1188.755906
30
0
11
97.637795
21
-1188.755906
31
0
0
LINE
8
1
10
92.810551
20
-1188.755906
30
0
11
92.810551
21
-3518.897638
31
0
0
LINE
8
1
10
97.637795
20
-1188.755906
30
0
11
97.637795
21
-3518.897638
31
0
0
LINE
8
1
10
92.810551
20
-3518.897638
30
0
11
97.637795
21
-3518.897638
31
0
0
LINE
8
1
10
2302.362205
20
-1188.755906
30
0
11
2307.157480
21
-1188.755906
31
0
0
LINE
8
1
10
2302.362205
20
-1188.755906
30
0
11
2302.362205
21
-2089.370079
31
0
0
LINE
8
1
10
2307.157480
20
-1188.755906
30
0
11
2307.157480
21
-2089.370079
31
0
0
LINE
8
1
10
2302.362205
20
-2089.370079
30
0
11
2307.157480
21
-2089.370079
31
0
0
LINE
8
1
10
335.433071
20
-1350.393701
30
0
11
340.157480
21
-1350.393701
31
0
0
LINE
8
1
10
335.433071
20
-1350.393701
30
0
11
335.433071
21
-3257.480315
31
0
0
LINE
8
1
10
340.157480
20
-1350.393701
30
0
11
340.157480
21
-3257.480315
31
0
0
LINE
8
1
10
335.433071
20
-3257.480315
30
0
11
340.157480
21
-3257.480315
31
0
0
LINE
8
1
10
2181.889764
20
-3514.173228
30
0
11
2307.086614
21
-3514.173228
31
0
0
LINE
8
1
10
2181.889764
20
-3514.173228
30
0
11
2181.889764
21
-3639.370079
31
0
0
LINE
8
1
10
2307.086614
20
-3514.173228
30
0
11
2307.086614
21
-3639.370079
31
0
0
LINE
8
1
10
2181.889764
20
-3639.370079
30
0
11
2307.086614
21
-3639.370079
31
0
0
LINE
8
1
10
2203.995984
20
-1070.315827
30
0
11
2307.157480
21
-1070.315827
31
0
0
LINE
8
1
10
2203.995984
20
-1070.315827
30
0
11
2203.995984
21
-1193.480315
31
0
0
LINE
8
1
10
2307.157480
20
-1070.315827
30
0
11
2307.157480
21
-1193.480315
31
0
0
LINE
8
1
10
2203.995984
20
-1193.480315
30
0
11
2307.157480
21
-1193.480315
31
0
0
LINE
8
1
10
92.810551
20
-1070.315827
30
0
11
195.972047
21
-1070.315827
31
0
0
LINE
8
1
10
92.810551
20
-1070.315827
30
0
11
92.810551
21
-1193.480315
31
0
0
LINE
8
1
10
195.972047
20
-1070.315827
30
0
11
195.972047
21
-1193.480315
31
0
0
LINE
8
1
10
92.810551
20
-1193.480315
30
0
11
195.972047
21
-1193.480315
31
0
0
LINE
8
1
10
92.913386
20
-3514.173228
30
0
11
218.110236
21
-3514.173228
31
0
0
LINE
8
1
10
92.913386
20
-3514.173228
30
0
11
92.913386
21
-3639.370079
31
0
0
LINE
8
1
10
218.110236
20
-3514.173228
30
0
11
218.110236
21
-3639.370079
31
0
0
LINE
8
1
10
92.913386
20
-3639.370079
30
0
11
218.110236
21
-3639.370079
31
0
0
ENDSEC
0
EOF
