G04 #@! TF.GenerationSoftware,KiCad,Pcbnew,(5.1.5)-3*
G04 #@! TF.CreationDate,2020-01-01T12:53:53-05:00*
G04 #@! TF.ProjectId,Diff_Expansion,44696666-5f45-4787-9061-6e73696f6e2e,v21*
G04 #@! TF.SameCoordinates,Original*
G04 #@! TF.FileFunction,Copper,L1,Top*
G04 #@! TF.FilePolarity,Positive*
%FSLAX46Y46*%
G04 Gerber Fmt 4.6, Leading zero omitted, Abs format (unit mm)*
G04 Created by KiCad (PCBNEW (5.1.5)-3) date 2020-01-01 12:53:53*
%MOMM*%
%LPD*%
G04 APERTURE LIST*
%ADD10O,1.600000X1.600000*%
%ADD11R,1.600000X1.600000*%
%ADD12C,1.500000*%
%ADD13R,1.500000X1.500000*%
%ADD14C,1.600000*%
%ADD15C,1.800000*%
%ADD16R,1.800000X1.800000*%
%ADD17O,1.727200X1.727200*%
%ADD18R,1.727200X1.727200*%
%ADD19C,0.800000*%
%ADD20C,1.500000*%
%ADD21C,0.350000*%
%ADD22C,0.500000*%
G04 APERTURE END LIST*
D10*
X118559000Y-100267800D03*
X126179000Y-82487800D03*
X118559000Y-97727800D03*
X126179000Y-85027800D03*
X118559000Y-95187800D03*
X126179000Y-87567800D03*
X118559000Y-92647800D03*
X126179000Y-90107800D03*
X118559000Y-90107800D03*
X126179000Y-92647800D03*
X118559000Y-87567800D03*
X126179000Y-95187800D03*
X118559000Y-85027800D03*
X126179000Y-97727800D03*
X118559000Y-82487800D03*
D11*
X126179000Y-100267800D03*
D10*
X118559000Y-124761800D03*
X126179000Y-106981800D03*
X118559000Y-122221800D03*
X126179000Y-109521800D03*
X118559000Y-119681800D03*
X126179000Y-112061800D03*
X118559000Y-117141800D03*
X126179000Y-114601800D03*
X118559000Y-114601800D03*
X126179000Y-117141800D03*
X118559000Y-112061800D03*
X126179000Y-119681800D03*
X118559000Y-109521800D03*
X126179000Y-122221800D03*
X118559000Y-106981800D03*
D11*
X126179000Y-124761800D03*
D10*
X104429000Y-107011800D03*
X96809000Y-124791800D03*
X104429000Y-109551800D03*
X96809000Y-122251800D03*
X104429000Y-112091800D03*
X96809000Y-119711800D03*
X104429000Y-114631800D03*
X96809000Y-117171800D03*
X104429000Y-117171800D03*
X96809000Y-114631800D03*
X104429000Y-119711800D03*
X96809000Y-112091800D03*
X104429000Y-122251800D03*
X96809000Y-109551800D03*
X104429000Y-124791800D03*
D11*
X96809000Y-107011800D03*
D10*
X104429000Y-82517800D03*
X96809000Y-100297800D03*
X104429000Y-85057800D03*
X96809000Y-97757800D03*
X104429000Y-87597800D03*
X96809000Y-95217800D03*
X104429000Y-90137800D03*
X96809000Y-92677800D03*
X104429000Y-92677800D03*
X96809000Y-90137800D03*
X104429000Y-95217800D03*
X96809000Y-87597800D03*
X104429000Y-97757800D03*
X96809000Y-85057800D03*
X104429000Y-100297800D03*
D11*
X96809000Y-82517800D03*
D10*
X129639000Y-106951800D03*
X129639000Y-109491800D03*
X129639000Y-112031800D03*
X129639000Y-114571800D03*
X129639000Y-117111800D03*
X129639000Y-119651800D03*
X129639000Y-122191800D03*
D11*
X129639000Y-124731800D03*
D10*
X129639000Y-82867800D03*
X129639000Y-85407800D03*
X129639000Y-87947800D03*
X129639000Y-90487800D03*
X129639000Y-93027800D03*
X129639000Y-95567800D03*
X129639000Y-98107800D03*
D11*
X129639000Y-100647800D03*
D10*
X92989000Y-125251800D03*
X92989000Y-122711800D03*
X92989000Y-120171800D03*
X92989000Y-117631800D03*
X92989000Y-115091800D03*
X92989000Y-112551800D03*
X92989000Y-110011800D03*
D11*
X92989000Y-107471800D03*
D10*
X92989000Y-100567800D03*
X92989000Y-98027800D03*
X92989000Y-95487800D03*
X92989000Y-92947800D03*
X92989000Y-90407800D03*
X92989000Y-87867800D03*
X92989000Y-85327800D03*
D11*
X92989000Y-82787800D03*
D12*
X134229000Y-111361800D03*
X136769000Y-112631800D03*
X134229000Y-113901800D03*
X136769000Y-115171800D03*
X134229000Y-116441800D03*
X136769000Y-117711800D03*
X134229000Y-118981800D03*
D13*
X136769000Y-120251800D03*
D12*
X134229000Y-86417800D03*
X136769000Y-87687800D03*
X134229000Y-88957800D03*
X136769000Y-90227800D03*
X134229000Y-91497800D03*
X136769000Y-92767800D03*
X134229000Y-94037800D03*
D13*
X136769000Y-95307800D03*
D12*
X87559000Y-120576800D03*
X85019000Y-119306800D03*
X87559000Y-118036800D03*
X85019000Y-116766800D03*
X87559000Y-115496800D03*
X85019000Y-114226800D03*
X87559000Y-112956800D03*
D13*
X85019000Y-111686800D03*
D12*
X87559000Y-95632800D03*
X85019000Y-94362800D03*
X87559000Y-93092800D03*
X85019000Y-91822800D03*
X87559000Y-90552800D03*
X85019000Y-89282800D03*
X87559000Y-88012800D03*
D13*
X85019000Y-86742800D03*
D14*
X123579000Y-128451800D03*
X118579000Y-128451800D03*
X115799000Y-95647800D03*
X115799000Y-100647800D03*
X107109000Y-112001800D03*
X107109000Y-107001800D03*
X107059000Y-87337800D03*
X107059000Y-82337800D03*
D10*
X104495000Y-129831800D03*
D14*
X96875000Y-129831800D03*
D15*
X111075000Y-129881800D03*
D16*
X108535000Y-129881800D03*
D17*
X134941000Y-71689800D03*
X134941000Y-74229800D03*
X132401000Y-71689800D03*
X132401000Y-74229800D03*
X129861000Y-71689800D03*
X129861000Y-74229800D03*
X127321000Y-71689800D03*
X127321000Y-74229800D03*
X124781000Y-71689800D03*
X124781000Y-74229800D03*
X122241000Y-71689800D03*
X122241000Y-74229800D03*
X119701000Y-71689800D03*
X119701000Y-74229800D03*
X117161000Y-71689800D03*
X117161000Y-74229800D03*
X114621000Y-71689800D03*
X114621000Y-74229800D03*
X112081000Y-71689800D03*
X112081000Y-74229800D03*
X109541000Y-71689800D03*
X109541000Y-74229800D03*
X107001000Y-71689800D03*
X107001000Y-74229800D03*
X104461000Y-71689800D03*
X104461000Y-74229800D03*
X101921000Y-71689800D03*
X101921000Y-74229800D03*
X99381000Y-71689800D03*
X99381000Y-74229800D03*
X96841000Y-71689800D03*
X96841000Y-74229800D03*
X94301000Y-71689800D03*
X94301000Y-74229800D03*
X91761000Y-71689800D03*
X91761000Y-74229800D03*
X89221000Y-71689800D03*
X89221000Y-74229800D03*
X86681000Y-71689800D03*
D18*
X86681000Y-74229800D03*
D19*
X116899000Y-86197800D03*
X115045000Y-98873800D03*
D20*
X134941000Y-74229800D02*
X134941000Y-71689800D01*
X89221000Y-71689800D02*
X86681000Y-71689800D01*
X106879000Y-82517800D02*
X107059000Y-82337800D01*
X104429000Y-82517800D02*
X106879000Y-82517800D01*
X116179000Y-100267800D02*
X115799000Y-100647800D01*
X118559000Y-100267800D02*
X116179000Y-100267800D01*
X118579000Y-124781800D02*
X118559000Y-124761800D01*
X118579000Y-128451800D02*
X118579000Y-124781800D01*
X104439000Y-107001800D02*
X104429000Y-107011800D01*
X107109000Y-107001800D02*
X104439000Y-107001800D01*
X105228999Y-106211801D02*
X104429000Y-107011800D01*
X109203000Y-89221800D02*
X107119000Y-91305800D01*
X107119000Y-104321800D02*
X105228999Y-106211801D01*
X107119000Y-91305800D02*
X107119000Y-104321800D01*
X109203000Y-84481800D02*
X109203000Y-89221800D01*
X107059000Y-82337800D02*
X109203000Y-84481800D01*
X116419000Y-124761800D02*
X118559000Y-124761800D01*
X114029000Y-122371800D02*
X116419000Y-124761800D01*
X115799000Y-100647800D02*
X114029000Y-102417800D01*
X114029000Y-102417800D02*
X114029000Y-122371800D01*
X89221000Y-70468486D02*
X89221000Y-71689800D01*
X91041686Y-68647800D02*
X89221000Y-70468486D01*
X134941000Y-71689800D02*
X134941000Y-70468486D01*
X133120314Y-68647800D02*
X91041686Y-68647800D01*
X134941000Y-70468486D02*
X133120314Y-68647800D01*
X118559000Y-125893170D02*
X118559000Y-124761800D01*
X118559000Y-127219802D02*
X118559000Y-125893170D01*
X117149000Y-129881800D02*
X118579000Y-128451800D01*
X111075000Y-129881800D02*
X117149000Y-129881800D01*
X121121000Y-131111800D02*
X118579000Y-128569800D01*
X134941000Y-74229800D02*
X136121000Y-74229800D01*
X133739000Y-131111800D02*
X121121000Y-131111800D01*
X118579000Y-128569800D02*
X118579000Y-128451800D01*
X136121000Y-74229800D02*
X139175000Y-77283800D01*
X139175000Y-77283800D02*
X139175000Y-125675800D01*
X139175000Y-125675800D02*
X133739000Y-131111800D01*
X101371000Y-103953800D02*
X104429000Y-107011800D01*
X85459686Y-71689800D02*
X82787000Y-74362486D01*
X86681000Y-71689800D02*
X85459686Y-71689800D01*
X82787000Y-98365800D02*
X88375000Y-103953800D01*
X88375000Y-103953800D02*
X101371000Y-103953800D01*
X82787000Y-74362486D02*
X82787000Y-98365800D01*
D21*
X118559000Y-106981800D02*
X121860989Y-103679811D01*
X127005870Y-70171800D02*
X128343000Y-70171800D01*
X128343000Y-70171800D02*
X128997401Y-70826201D01*
X128997401Y-70826201D02*
X129861000Y-71689800D01*
X126061000Y-71116670D02*
X127005870Y-70171800D01*
X126061000Y-77427968D02*
X126061000Y-71116670D01*
X121860989Y-81627978D02*
X126061000Y-77427968D01*
X121860989Y-103679811D02*
X121860989Y-81627978D01*
X109541000Y-71689800D02*
X110779601Y-72928401D01*
X112377033Y-79522334D02*
X112377033Y-116843767D01*
X105228999Y-123991801D02*
X104429000Y-124791800D01*
X112377033Y-116843767D02*
X105228999Y-123991801D01*
X110779601Y-77924902D02*
X112377033Y-79522334D01*
X110779601Y-72928401D02*
X110779601Y-77924902D01*
X128559601Y-72928401D02*
X127321000Y-71689800D01*
X122411000Y-81855800D02*
X128622399Y-75644401D01*
X122411000Y-105753800D02*
X122411000Y-81855800D01*
X126179000Y-109521800D02*
X122411000Y-105753800D01*
X128622399Y-75644401D02*
X128622399Y-72991199D01*
X128622399Y-72991199D02*
X128559601Y-72928401D01*
X98173999Y-120886801D02*
X105731999Y-120886801D01*
X108239601Y-72928401D02*
X107001000Y-71689800D01*
X105731999Y-120886801D02*
X111827022Y-114791778D01*
X111827022Y-114791778D02*
X111827022Y-79750156D01*
X96809000Y-122251800D02*
X98173999Y-120886801D01*
X108239601Y-76162735D02*
X111827022Y-79750156D01*
X108239601Y-72928401D02*
X108239601Y-76162735D01*
X123530989Y-78402315D02*
X120760967Y-81172334D01*
X124781000Y-71689800D02*
X123530989Y-72939811D01*
X117427630Y-122221800D02*
X118559000Y-122221800D01*
X116272989Y-104995978D02*
X116272989Y-121067159D01*
X123530989Y-72939811D02*
X123530989Y-78402315D01*
X116272989Y-121067159D02*
X117427630Y-122221800D01*
X120760967Y-81172334D02*
X120760967Y-100508001D01*
X120760967Y-100508001D02*
X116272989Y-104995978D01*
X111277011Y-105943790D02*
X111277011Y-79977978D01*
X107669000Y-109551800D02*
X111277011Y-105943790D01*
X104429000Y-109551800D02*
X107669000Y-109551800D01*
X107312831Y-76013800D02*
X111277010Y-79977979D01*
X106680435Y-76013800D02*
X107312831Y-76013800D01*
X105699601Y-75032966D02*
X106680435Y-76013800D01*
X104461000Y-71689800D02*
X105699601Y-72928401D01*
X105699601Y-72928401D02*
X105699601Y-75032966D01*
X103159601Y-75304401D02*
X103159601Y-72928401D01*
X104631000Y-76775800D02*
X103159601Y-75304401D01*
X110727000Y-80331800D02*
X107171000Y-76775800D01*
X96809000Y-107053800D02*
X98087000Y-108331800D01*
X96809000Y-107011800D02*
X96809000Y-107053800D01*
X103159601Y-72928401D02*
X101921000Y-71689800D01*
X107171000Y-76775800D02*
X104631000Y-76775800D01*
X108111168Y-108331800D02*
X110727000Y-105715968D01*
X98087000Y-108331800D02*
X108111168Y-108331800D01*
X110727000Y-105715968D02*
X110727000Y-80331800D01*
X103629001Y-99497801D02*
X104429000Y-100297800D01*
X99381000Y-71689800D02*
X98141011Y-72929789D01*
X98141011Y-78921811D02*
X100059000Y-80839800D01*
X100059000Y-80839800D02*
X100059000Y-95927800D01*
X100059000Y-95927800D02*
X103629001Y-99497801D01*
X98141011Y-72929789D02*
X98141011Y-78921811D01*
X117077000Y-86019800D02*
X116899000Y-86197800D01*
X118399601Y-79517199D02*
X117077000Y-80839800D01*
X117077000Y-80839800D02*
X117077000Y-86019800D01*
X117161000Y-71689800D02*
X118399601Y-72928401D01*
X118399601Y-72928401D02*
X118399601Y-79517199D01*
X99119000Y-81423800D02*
X99119000Y-95447800D01*
X99119000Y-95447800D02*
X96809000Y-97757800D01*
X95541000Y-77845800D02*
X99119000Y-81423800D01*
X96841000Y-71689800D02*
X95541000Y-72989800D01*
X95541000Y-77845800D02*
X95541000Y-72989800D01*
X115677000Y-97727800D02*
X113521000Y-95571800D01*
X115859601Y-72928401D02*
X114621000Y-71689800D01*
X118559000Y-97727800D02*
X115677000Y-97727800D01*
X115859601Y-75453199D02*
X115859601Y-72928401D01*
X113521000Y-95571800D02*
X113521000Y-77791800D01*
X113521000Y-77791800D02*
X115859601Y-75453199D01*
X103297630Y-85057800D02*
X104429000Y-85057800D01*
X102889630Y-84649800D02*
X103297630Y-85057800D01*
X95819000Y-70171800D02*
X100059000Y-70171800D01*
X94301000Y-71689800D02*
X95819000Y-70171800D01*
X100059000Y-70171800D02*
X100682399Y-70795199D01*
X102853000Y-84649800D02*
X102889630Y-84649800D01*
X100682399Y-70795199D02*
X100682399Y-82479199D01*
X100682399Y-82479199D02*
X102853000Y-84649800D01*
X112081000Y-71689800D02*
X113319601Y-72928401D01*
X114645001Y-98473801D02*
X115045000Y-98873800D01*
X113319601Y-72928401D02*
X113319601Y-75707199D01*
X112970989Y-76055811D02*
X112970989Y-96799789D01*
X112970989Y-96799789D02*
X114645001Y-98473801D01*
X113319601Y-75707199D02*
X112970989Y-76055811D01*
X96809000Y-82415800D02*
X96809000Y-82517800D01*
X92999601Y-78606401D02*
X96809000Y-82415800D01*
X91761000Y-71689800D02*
X92999601Y-72928401D01*
X92999601Y-72928401D02*
X92999601Y-78606401D01*
X116823000Y-105223800D02*
X116823000Y-119955800D01*
X116823000Y-119955800D02*
X117839000Y-120971800D01*
X124781000Y-74229800D02*
X124781000Y-77930136D01*
X117839000Y-120971800D02*
X121239000Y-120971800D01*
X121310978Y-100735823D02*
X116823000Y-105223800D01*
X121239000Y-120971800D02*
X125029000Y-124761800D01*
X121310978Y-81400156D02*
X121310978Y-100735823D01*
X125029000Y-124761800D02*
X126179000Y-124761800D01*
X124781000Y-77930136D02*
X121310978Y-81400156D01*
X118559000Y-81356430D02*
X118559000Y-82487800D01*
X120939601Y-78975829D02*
X118559000Y-81356430D01*
X119701000Y-71689800D02*
X120939601Y-72928401D01*
X120939601Y-78975829D02*
X120939601Y-72928401D01*
X108485000Y-129831800D02*
X108535000Y-129881800D01*
X104495000Y-129831800D02*
X108485000Y-129831800D01*
X90594000Y-95632800D02*
X92989000Y-98027800D01*
X87559000Y-95632800D02*
X90594000Y-95632800D01*
X85019000Y-95009800D02*
X85019000Y-94362800D01*
X92989000Y-100567800D02*
X90577000Y-100567800D01*
X90577000Y-100567800D02*
X85019000Y-95009800D01*
X96539000Y-95487800D02*
X96809000Y-95217800D01*
X92989000Y-95487800D02*
X96539000Y-95487800D01*
X87308997Y-94507799D02*
X85019000Y-92217802D01*
X92989000Y-95487800D02*
X92008999Y-94507799D01*
X85019000Y-92217802D02*
X85019000Y-91822800D01*
X92008999Y-94507799D02*
X87308997Y-94507799D01*
X96539000Y-92947800D02*
X96809000Y-92677800D01*
X92989000Y-92947800D02*
X96539000Y-92947800D01*
X89198000Y-90552800D02*
X87559000Y-90552800D01*
X92989000Y-92947800D02*
X91593000Y-92947800D01*
X91593000Y-92947800D02*
X89198000Y-90552800D01*
X91574000Y-89282800D02*
X85019000Y-89282800D01*
X92989000Y-87867800D02*
X91574000Y-89282800D01*
X90304000Y-88012800D02*
X87559000Y-88012800D01*
X92989000Y-85327800D02*
X90304000Y-88012800D01*
X94539000Y-85327800D02*
X96809000Y-87597800D01*
X92989000Y-85327800D02*
X94539000Y-85327800D01*
X89034000Y-86742800D02*
X92989000Y-82787800D01*
X85019000Y-86742800D02*
X89034000Y-86742800D01*
X94539000Y-82787800D02*
X92989000Y-82787800D01*
X96809000Y-85057800D02*
X94539000Y-82787800D01*
X89694000Y-122711800D02*
X87559000Y-120576800D01*
X92989000Y-122711800D02*
X89694000Y-122711800D01*
X104339000Y-119801800D02*
X104429000Y-119711800D01*
X97984001Y-119801800D02*
X104339000Y-119801800D01*
X94120370Y-122711800D02*
X96095184Y-120736986D01*
X97984001Y-120275801D02*
X97984001Y-119801800D01*
X92989000Y-122711800D02*
X94120370Y-122711800D01*
X96244999Y-120886801D02*
X97373001Y-120886801D01*
X96095184Y-120736986D02*
X96244999Y-120886801D01*
X97373001Y-120886801D02*
X97984001Y-120275801D01*
X85019000Y-120367460D02*
X85019000Y-119306800D01*
X89103341Y-124451801D02*
X85019000Y-120367460D01*
X92189001Y-124451801D02*
X89103341Y-124451801D01*
X92989000Y-125251800D02*
X92189001Y-124451801D01*
X94729000Y-123511800D02*
X93788999Y-124451801D01*
X102037630Y-123511800D02*
X94729000Y-123511800D01*
X93788999Y-124451801D02*
X92989000Y-125251800D01*
X104429000Y-122251800D02*
X103297630Y-122251800D01*
X103297630Y-122251800D02*
X102037630Y-123511800D01*
X94835371Y-115806801D02*
X103253999Y-115806801D01*
X103253999Y-115806801D02*
X103629001Y-115431799D01*
X94120370Y-115091800D02*
X94835371Y-115806801D01*
X103629001Y-115431799D02*
X104429000Y-114631800D01*
X92989000Y-115091800D02*
X94120370Y-115091800D01*
X96349000Y-120171800D02*
X96809000Y-119711800D01*
X92989000Y-120171800D02*
X96349000Y-120171800D01*
X92189001Y-119371801D02*
X92989000Y-120171800D01*
X87228999Y-119371801D02*
X92189001Y-119371801D01*
X85019000Y-116766800D02*
X85019000Y-117161802D01*
X85019000Y-117161802D02*
X87228999Y-119371801D01*
X93449000Y-117171800D02*
X92989000Y-117631800D01*
X96809000Y-117171800D02*
X93449000Y-117171800D01*
X89504000Y-115496800D02*
X87559000Y-115496800D01*
X92989000Y-117631800D02*
X91639000Y-117631800D01*
X91639000Y-117631800D02*
X89504000Y-115496800D01*
X91314000Y-114226800D02*
X85019000Y-114226800D01*
X92989000Y-112551800D02*
X91314000Y-114226800D01*
X103169001Y-113351799D02*
X103629001Y-112891799D01*
X93788999Y-113351799D02*
X103169001Y-113351799D01*
X103629001Y-112891799D02*
X104429000Y-112091800D01*
X92989000Y-112551800D02*
X93788999Y-113351799D01*
X90044000Y-112956800D02*
X92989000Y-110011800D01*
X87559000Y-112956800D02*
X90044000Y-112956800D01*
X93788999Y-110811799D02*
X92989000Y-110011800D01*
X95069000Y-112091800D02*
X93788999Y-110811799D01*
X96809000Y-112091800D02*
X95069000Y-112091800D01*
X88134000Y-107471800D02*
X85019000Y-110586800D01*
X85019000Y-110586800D02*
X85019000Y-111686800D01*
X92989000Y-107471800D02*
X88134000Y-107471800D01*
X94729000Y-107471800D02*
X96809000Y-109551800D01*
X92989000Y-107471800D02*
X94729000Y-107471800D01*
X133219000Y-85407800D02*
X134229000Y-86417800D01*
X129639000Y-85407800D02*
X133219000Y-85407800D01*
X136769000Y-86627140D02*
X136769000Y-87687800D01*
X133809659Y-83667799D02*
X136769000Y-86627140D01*
X130438999Y-83667799D02*
X133809659Y-83667799D01*
X129639000Y-82867800D02*
X130438999Y-83667799D01*
X135708340Y-90227800D02*
X136769000Y-90227800D01*
X133833998Y-90227800D02*
X135708340Y-90227800D01*
X132353997Y-88747799D02*
X133833998Y-90227800D01*
X130438999Y-88747799D02*
X132353997Y-88747799D01*
X129639000Y-87947800D02*
X130438999Y-88747799D01*
X129259000Y-87567800D02*
X129639000Y-87947800D01*
X126179000Y-87567800D02*
X129259000Y-87567800D01*
X133219000Y-90487800D02*
X134229000Y-91497800D01*
X129639000Y-90487800D02*
X133219000Y-90487800D01*
X129259000Y-90107800D02*
X129639000Y-90487800D01*
X126179000Y-90107800D02*
X129259000Y-90107800D01*
X132439000Y-92767800D02*
X136769000Y-92767800D01*
X129639000Y-95567800D02*
X132439000Y-92767800D01*
X126719000Y-95187800D02*
X126179000Y-95187800D01*
X129639000Y-98107800D02*
X126719000Y-95187800D01*
X130159000Y-98107800D02*
X129639000Y-98107800D01*
X134229000Y-94037800D02*
X130159000Y-98107800D01*
X129099000Y-100647800D02*
X129639000Y-100647800D01*
X126179000Y-97727800D02*
X129099000Y-100647800D01*
X136769000Y-95437800D02*
X136769000Y-95307800D01*
X129639000Y-100647800D02*
X131559000Y-100647800D01*
X131559000Y-100647800D02*
X136769000Y-95437800D01*
X131509000Y-111361800D02*
X129639000Y-109491800D01*
X134229000Y-111361800D02*
X131509000Y-111361800D01*
X121055369Y-110696801D02*
X128433999Y-110696801D01*
X128839001Y-110291799D02*
X129639000Y-109491800D01*
X119690370Y-112061800D02*
X121055369Y-110696801D01*
X128433999Y-110696801D02*
X128839001Y-110291799D01*
X118559000Y-112061800D02*
X119690370Y-112061800D01*
X136769000Y-111571140D02*
X136769000Y-112631800D01*
X132949659Y-107751799D02*
X136769000Y-111571140D01*
X130438999Y-107751799D02*
X132949659Y-107751799D01*
X129639000Y-106951800D02*
X130438999Y-107751799D01*
X119734001Y-115966799D02*
X119358999Y-116341801D01*
X119358999Y-116341801D02*
X118559000Y-117141800D01*
X128493999Y-115966799D02*
X119734001Y-115966799D01*
X129639000Y-117111800D02*
X128493999Y-115966799D01*
X126209000Y-112031800D02*
X126179000Y-112061800D01*
X129639000Y-112031800D02*
X126209000Y-112031800D01*
X135708340Y-115171800D02*
X136769000Y-115171800D01*
X133121000Y-115171800D02*
X135708340Y-115171800D01*
X130031000Y-112081800D02*
X133121000Y-115171800D01*
X129639000Y-112031800D02*
X129689000Y-112081800D01*
X129689000Y-112081800D02*
X130031000Y-112081800D01*
X126209000Y-114571800D02*
X126179000Y-114601800D01*
X129639000Y-114571800D02*
X126209000Y-114571800D01*
X130489000Y-114571800D02*
X129639000Y-114571800D01*
X134229000Y-116441800D02*
X132359000Y-116441800D01*
X132359000Y-116441800D02*
X130489000Y-114571800D01*
X131579000Y-117711800D02*
X129639000Y-119651800D01*
X136769000Y-117711800D02*
X131579000Y-117711800D01*
X119358999Y-118881801D02*
X118559000Y-119681800D01*
X119734001Y-118506799D02*
X119358999Y-118881801D01*
X128493999Y-118506799D02*
X119734001Y-118506799D01*
X129639000Y-119651800D02*
X128493999Y-118506799D01*
X132849000Y-118981800D02*
X129639000Y-122191800D01*
X134229000Y-118981800D02*
X132849000Y-118981800D01*
X127129000Y-119681800D02*
X126179000Y-119681800D01*
X129639000Y-122191800D02*
X127129000Y-119681800D01*
X128689000Y-124731800D02*
X129639000Y-124731800D01*
X126179000Y-122221800D02*
X128689000Y-124731800D01*
X134119000Y-120251800D02*
X129639000Y-124731800D01*
X136769000Y-120251800D02*
X134119000Y-120251800D01*
D22*
G36*
X152316000Y-144526800D02*
G01*
X69138000Y-144526800D01*
X69138000Y-140733421D01*
X70331000Y-140733421D01*
X70331000Y-141206179D01*
X70423230Y-141669854D01*
X70604147Y-142106626D01*
X70866798Y-142499711D01*
X71201089Y-142834002D01*
X71594174Y-143096653D01*
X72030946Y-143277570D01*
X72494621Y-143369800D01*
X72967379Y-143369800D01*
X73431054Y-143277570D01*
X73867826Y-143096653D01*
X74260911Y-142834002D01*
X74595202Y-142499711D01*
X74857853Y-142106626D01*
X75038770Y-141669854D01*
X75131000Y-141206179D01*
X75131000Y-140733421D01*
X146531000Y-140733421D01*
X146531000Y-141206179D01*
X146623230Y-141669854D01*
X146804147Y-142106626D01*
X147066798Y-142499711D01*
X147401089Y-142834002D01*
X147794174Y-143096653D01*
X148230946Y-143277570D01*
X148694621Y-143369800D01*
X149167379Y-143369800D01*
X149631054Y-143277570D01*
X150067826Y-143096653D01*
X150460911Y-142834002D01*
X150795202Y-142499711D01*
X151057853Y-142106626D01*
X151238770Y-141669854D01*
X151331000Y-141206179D01*
X151331000Y-140733421D01*
X151238770Y-140269746D01*
X151057853Y-139832974D01*
X150795202Y-139439889D01*
X150460911Y-139105598D01*
X150067826Y-138842947D01*
X149631054Y-138662030D01*
X149167379Y-138569800D01*
X148694621Y-138569800D01*
X148230946Y-138662030D01*
X147794174Y-138842947D01*
X147401089Y-139105598D01*
X147066798Y-139439889D01*
X146804147Y-139832974D01*
X146623230Y-140269746D01*
X146531000Y-140733421D01*
X75131000Y-140733421D01*
X75038770Y-140269746D01*
X74857853Y-139832974D01*
X74595202Y-139439889D01*
X74260911Y-139105598D01*
X73867826Y-138842947D01*
X73431054Y-138662030D01*
X72967379Y-138569800D01*
X72494621Y-138569800D01*
X72030946Y-138662030D01*
X71594174Y-138842947D01*
X71201089Y-139105598D01*
X70866798Y-139439889D01*
X70604147Y-139832974D01*
X70423230Y-140269746D01*
X70331000Y-140733421D01*
X69138000Y-140733421D01*
X69138000Y-130882780D01*
X96531127Y-130882780D01*
X96634558Y-131013391D01*
X96869695Y-131037595D01*
X97105036Y-131015461D01*
X97115442Y-131013391D01*
X97218873Y-130882780D01*
X96875000Y-130538907D01*
X96531127Y-130882780D01*
X69138000Y-130882780D01*
X69138000Y-129826495D01*
X95669205Y-129826495D01*
X95691339Y-130061836D01*
X95693409Y-130072242D01*
X95824020Y-130175673D01*
X96167893Y-129831800D01*
X97582107Y-129831800D01*
X97925980Y-130175673D01*
X98056591Y-130072242D01*
X98080795Y-129837105D01*
X98058661Y-129601764D01*
X98056591Y-129591358D01*
X97925980Y-129487927D01*
X97582107Y-129831800D01*
X96167893Y-129831800D01*
X95824020Y-129487927D01*
X95693409Y-129591358D01*
X95669205Y-129826495D01*
X69138000Y-129826495D01*
X69138000Y-128780820D01*
X96531127Y-128780820D01*
X96875000Y-129124693D01*
X97218873Y-128780820D01*
X97115442Y-128650209D01*
X96880305Y-128626005D01*
X96644964Y-128648139D01*
X96634558Y-128650209D01*
X96531127Y-128780820D01*
X69138000Y-128780820D01*
X69138000Y-121635043D01*
X76519000Y-121635043D01*
X76519000Y-122058557D01*
X76601623Y-122473932D01*
X76763695Y-122865207D01*
X76998986Y-123217345D01*
X77298455Y-123516814D01*
X77650593Y-123752105D01*
X78041868Y-123914177D01*
X78457243Y-123996800D01*
X78880757Y-123996800D01*
X79296132Y-123914177D01*
X79687407Y-123752105D01*
X80039545Y-123516814D01*
X80339014Y-123217345D01*
X80574305Y-122865207D01*
X80736377Y-122473932D01*
X80819000Y-122058557D01*
X80819000Y-121635043D01*
X80736377Y-121219668D01*
X80574305Y-120828393D01*
X80339014Y-120476255D01*
X80039545Y-120176786D01*
X79687407Y-119941495D01*
X79296132Y-119779423D01*
X78880757Y-119696800D01*
X78457243Y-119696800D01*
X78041868Y-119779423D01*
X77650593Y-119941495D01*
X77298455Y-120176786D01*
X76998986Y-120476255D01*
X76763695Y-120828393D01*
X76601623Y-121219668D01*
X76519000Y-121635043D01*
X69138000Y-121635043D01*
X69138000Y-110205043D01*
X76519000Y-110205043D01*
X76519000Y-110628557D01*
X76601623Y-111043932D01*
X76763695Y-111435207D01*
X76998986Y-111787345D01*
X77298455Y-112086814D01*
X77650593Y-112322105D01*
X78041868Y-112484177D01*
X78457243Y-112566800D01*
X78880757Y-112566800D01*
X79296132Y-112484177D01*
X79687407Y-112322105D01*
X80039545Y-112086814D01*
X80339014Y-111787345D01*
X80574305Y-111435207D01*
X80736377Y-111043932D01*
X80819000Y-110628557D01*
X80819000Y-110205043D01*
X80736377Y-109789668D01*
X80574305Y-109398393D01*
X80339014Y-109046255D01*
X80039545Y-108746786D01*
X79687407Y-108511495D01*
X79296132Y-108349423D01*
X78880757Y-108266800D01*
X78457243Y-108266800D01*
X78041868Y-108349423D01*
X77650593Y-108511495D01*
X77298455Y-108746786D01*
X76998986Y-109046255D01*
X76763695Y-109398393D01*
X76601623Y-109789668D01*
X76519000Y-110205043D01*
X69138000Y-110205043D01*
X69138000Y-96691043D01*
X76519000Y-96691043D01*
X76519000Y-97114557D01*
X76601623Y-97529932D01*
X76763695Y-97921207D01*
X76998986Y-98273345D01*
X77298455Y-98572814D01*
X77650593Y-98808105D01*
X78041868Y-98970177D01*
X78457243Y-99052800D01*
X78880757Y-99052800D01*
X79296132Y-98970177D01*
X79687407Y-98808105D01*
X80039545Y-98572814D01*
X80339014Y-98273345D01*
X80574305Y-97921207D01*
X80736377Y-97529932D01*
X80819000Y-97114557D01*
X80819000Y-96691043D01*
X80736377Y-96275668D01*
X80574305Y-95884393D01*
X80339014Y-95532255D01*
X80039545Y-95232786D01*
X79687407Y-94997495D01*
X79296132Y-94835423D01*
X78880757Y-94752800D01*
X78457243Y-94752800D01*
X78041868Y-94835423D01*
X77650593Y-94997495D01*
X77298455Y-95232786D01*
X76998986Y-95532255D01*
X76763695Y-95884393D01*
X76601623Y-96275668D01*
X76519000Y-96691043D01*
X69138000Y-96691043D01*
X69138000Y-85261043D01*
X76519000Y-85261043D01*
X76519000Y-85684557D01*
X76601623Y-86099932D01*
X76763695Y-86491207D01*
X76998986Y-86843345D01*
X77298455Y-87142814D01*
X77650593Y-87378105D01*
X78041868Y-87540177D01*
X78457243Y-87622800D01*
X78880757Y-87622800D01*
X79296132Y-87540177D01*
X79687407Y-87378105D01*
X80039545Y-87142814D01*
X80339014Y-86843345D01*
X80574305Y-86491207D01*
X80736377Y-86099932D01*
X80819000Y-85684557D01*
X80819000Y-85261043D01*
X80736377Y-84845668D01*
X80574305Y-84454393D01*
X80339014Y-84102255D01*
X80039545Y-83802786D01*
X79687407Y-83567495D01*
X79296132Y-83405423D01*
X78880757Y-83322800D01*
X78457243Y-83322800D01*
X78041868Y-83405423D01*
X77650593Y-83567495D01*
X77298455Y-83802786D01*
X76998986Y-84102255D01*
X76763695Y-84454393D01*
X76601623Y-84845668D01*
X76519000Y-85261043D01*
X69138000Y-85261043D01*
X69138000Y-74362486D01*
X81480710Y-74362486D01*
X81487000Y-74426347D01*
X81487001Y-98301929D01*
X81480710Y-98365800D01*
X81494084Y-98501580D01*
X81505588Y-98618375D01*
X81505811Y-98620644D01*
X81580145Y-98865695D01*
X81700860Y-99091535D01*
X81750964Y-99152587D01*
X81863314Y-99289487D01*
X81912922Y-99330199D01*
X87410601Y-104827879D01*
X87451313Y-104877487D01*
X87649264Y-105039940D01*
X87875104Y-105160655D01*
X88120155Y-105234990D01*
X88311136Y-105253800D01*
X88311138Y-105253800D01*
X88374999Y-105260090D01*
X88438860Y-105253800D01*
X100832523Y-105253800D01*
X103185522Y-107606800D01*
X98387305Y-107606800D01*
X98161661Y-107381156D01*
X98161661Y-106211800D01*
X98151042Y-106103981D01*
X98119592Y-106000306D01*
X98068521Y-105904758D01*
X97999790Y-105821010D01*
X97916042Y-105752279D01*
X97820494Y-105701208D01*
X97716819Y-105669758D01*
X97609000Y-105659139D01*
X96009000Y-105659139D01*
X95901181Y-105669758D01*
X95797506Y-105701208D01*
X95701958Y-105752279D01*
X95618210Y-105821010D01*
X95549479Y-105904758D01*
X95498408Y-106000306D01*
X95466958Y-106103981D01*
X95456339Y-106211800D01*
X95456339Y-107173835D01*
X95266832Y-106984328D01*
X95244132Y-106956668D01*
X95133737Y-106866069D01*
X95007788Y-106798747D01*
X94871125Y-106757291D01*
X94764607Y-106746800D01*
X94764597Y-106746800D01*
X94729000Y-106743294D01*
X94693403Y-106746800D01*
X94341661Y-106746800D01*
X94341661Y-106671800D01*
X94331042Y-106563981D01*
X94299592Y-106460306D01*
X94248521Y-106364758D01*
X94179790Y-106281010D01*
X94096042Y-106212279D01*
X94000494Y-106161208D01*
X93896819Y-106129758D01*
X93789000Y-106119139D01*
X92189000Y-106119139D01*
X92081181Y-106129758D01*
X91977506Y-106161208D01*
X91881958Y-106212279D01*
X91798210Y-106281010D01*
X91729479Y-106364758D01*
X91678408Y-106460306D01*
X91646958Y-106563981D01*
X91636339Y-106671800D01*
X91636339Y-106746800D01*
X88169596Y-106746800D01*
X88133999Y-106743294D01*
X88098402Y-106746800D01*
X88098393Y-106746800D01*
X87991875Y-106757291D01*
X87855212Y-106798747D01*
X87729263Y-106866069D01*
X87646525Y-106933970D01*
X87646523Y-106933972D01*
X87618868Y-106956668D01*
X87596172Y-106984323D01*
X84531524Y-110048972D01*
X84503868Y-110071669D01*
X84481172Y-110099324D01*
X84481170Y-110099326D01*
X84448819Y-110138746D01*
X84413269Y-110182064D01*
X84345947Y-110308013D01*
X84322855Y-110384139D01*
X84269000Y-110384139D01*
X84161181Y-110394758D01*
X84057506Y-110426208D01*
X83961958Y-110477279D01*
X83878210Y-110546010D01*
X83809479Y-110629758D01*
X83758408Y-110725306D01*
X83726958Y-110828981D01*
X83716339Y-110936800D01*
X83716339Y-112436800D01*
X83726958Y-112544619D01*
X83758408Y-112648294D01*
X83809479Y-112743842D01*
X83878210Y-112827590D01*
X83961958Y-112896321D01*
X84057506Y-112947392D01*
X84161181Y-112978842D01*
X84269000Y-112989461D01*
X84609136Y-112989461D01*
X84403219Y-113074755D01*
X84190298Y-113217024D01*
X84009224Y-113398098D01*
X83866955Y-113611019D01*
X83768958Y-113847604D01*
X83719000Y-114098761D01*
X83719000Y-114354839D01*
X83768958Y-114605996D01*
X83866955Y-114842581D01*
X84009224Y-115055502D01*
X84190298Y-115236576D01*
X84403219Y-115378845D01*
X84639804Y-115476842D01*
X84740140Y-115496800D01*
X84639804Y-115516758D01*
X84403219Y-115614755D01*
X84190298Y-115757024D01*
X84009224Y-115938098D01*
X83866955Y-116151019D01*
X83768958Y-116387604D01*
X83719000Y-116638761D01*
X83719000Y-116894839D01*
X83768958Y-117145996D01*
X83866955Y-117382581D01*
X84009224Y-117595502D01*
X84190298Y-117776576D01*
X84403219Y-117918845D01*
X84639804Y-118016842D01*
X84740140Y-118036800D01*
X84639804Y-118056758D01*
X84403219Y-118154755D01*
X84190298Y-118297024D01*
X84009224Y-118478098D01*
X83866955Y-118691019D01*
X83768958Y-118927604D01*
X83719000Y-119178761D01*
X83719000Y-119434839D01*
X83768958Y-119685996D01*
X83866955Y-119922581D01*
X84009224Y-120135502D01*
X84190298Y-120316576D01*
X84292188Y-120384656D01*
X84294000Y-120403057D01*
X84294000Y-120403066D01*
X84304491Y-120509584D01*
X84340671Y-120628853D01*
X84345947Y-120646247D01*
X84413269Y-120772196D01*
X84470392Y-120841800D01*
X84503868Y-120882591D01*
X84531524Y-120905288D01*
X88565511Y-124939276D01*
X88588209Y-124966933D01*
X88615864Y-124989629D01*
X88615866Y-124989631D01*
X88648782Y-125016644D01*
X88698604Y-125057532D01*
X88824553Y-125124854D01*
X88961216Y-125166310D01*
X89067734Y-125176801D01*
X89067743Y-125176801D01*
X89103340Y-125180307D01*
X89138937Y-125176801D01*
X91639000Y-125176801D01*
X91639000Y-125384763D01*
X91690880Y-125645580D01*
X91792646Y-125891265D01*
X91940387Y-126112375D01*
X92128425Y-126300413D01*
X92349535Y-126448154D01*
X92595220Y-126549920D01*
X92856037Y-126601800D01*
X93121963Y-126601800D01*
X93382780Y-126549920D01*
X93628465Y-126448154D01*
X93849575Y-126300413D01*
X94037613Y-126112375D01*
X94185354Y-125891265D01*
X94287120Y-125645580D01*
X94324771Y-125456294D01*
X95809777Y-125456294D01*
X95812687Y-125460694D01*
X95962326Y-125642212D01*
X96144502Y-125791049D01*
X96309000Y-125782697D01*
X96309000Y-125291800D01*
X97309000Y-125291800D01*
X97309000Y-125782697D01*
X97473498Y-125791049D01*
X97655674Y-125642212D01*
X97805313Y-125460694D01*
X97808223Y-125456294D01*
X97788796Y-125291800D01*
X97309000Y-125291800D01*
X96309000Y-125291800D01*
X95829204Y-125291800D01*
X95809777Y-125456294D01*
X94324771Y-125456294D01*
X94339000Y-125384763D01*
X94339000Y-125118837D01*
X94307189Y-124958916D01*
X94326829Y-124939276D01*
X94326833Y-124939271D01*
X95029305Y-124236800D01*
X95822708Y-124236800D01*
X95829204Y-124291800D01*
X96309000Y-124291800D01*
X96309000Y-124271800D01*
X97309000Y-124271800D01*
X97309000Y-124291800D01*
X97788796Y-124291800D01*
X97795292Y-124236800D01*
X102002033Y-124236800D01*
X102037630Y-124240306D01*
X102073227Y-124236800D01*
X102073237Y-124236800D01*
X102179755Y-124226309D01*
X102316418Y-124184853D01*
X102442367Y-124117531D01*
X102552762Y-124026932D01*
X102575462Y-123999272D01*
X103421373Y-123153361D01*
X103568425Y-123300413D01*
X103789535Y-123448154D01*
X103967332Y-123521800D01*
X103789535Y-123595446D01*
X103568425Y-123743187D01*
X103380387Y-123931225D01*
X103232646Y-124152335D01*
X103130880Y-124398020D01*
X103079000Y-124658837D01*
X103079000Y-124924763D01*
X103130880Y-125185580D01*
X103232646Y-125431265D01*
X103380387Y-125652375D01*
X103568425Y-125840413D01*
X103789535Y-125988154D01*
X104035220Y-126089920D01*
X104296037Y-126141800D01*
X104561963Y-126141800D01*
X104822780Y-126089920D01*
X105068465Y-125988154D01*
X105289575Y-125840413D01*
X105477613Y-125652375D01*
X105625354Y-125431265D01*
X105727120Y-125185580D01*
X105779000Y-124924763D01*
X105779000Y-124658837D01*
X105747189Y-124498916D01*
X105766829Y-124479276D01*
X105766834Y-124479270D01*
X112729001Y-117517104D01*
X112729001Y-122307929D01*
X112722710Y-122371800D01*
X112747811Y-122626644D01*
X112822145Y-122871695D01*
X112942860Y-123097535D01*
X113016977Y-123187848D01*
X113105314Y-123295487D01*
X113154921Y-123336198D01*
X115454601Y-125635879D01*
X115495313Y-125685487D01*
X115693264Y-125847940D01*
X115919104Y-125968655D01*
X116164155Y-126042990D01*
X116355136Y-126061800D01*
X116355138Y-126061800D01*
X116418999Y-126068090D01*
X116482860Y-126061800D01*
X117259000Y-126061800D01*
X117259000Y-127283665D01*
X117277810Y-127474646D01*
X117279000Y-127478570D01*
X117279000Y-127913322D01*
X116610523Y-128581800D01*
X111725555Y-128581800D01*
X111497949Y-128487523D01*
X111217813Y-128431800D01*
X110932187Y-128431800D01*
X110652051Y-128487523D01*
X110388167Y-128596827D01*
X110150679Y-128755511D01*
X109981988Y-128924202D01*
X109977042Y-128873981D01*
X109945592Y-128770306D01*
X109894521Y-128674758D01*
X109825790Y-128591010D01*
X109742042Y-128522279D01*
X109646494Y-128471208D01*
X109542819Y-128439758D01*
X109435000Y-128429139D01*
X107635000Y-128429139D01*
X107527181Y-128439758D01*
X107423506Y-128471208D01*
X107327958Y-128522279D01*
X107244210Y-128591010D01*
X107175479Y-128674758D01*
X107124408Y-128770306D01*
X107092958Y-128873981D01*
X107082339Y-128981800D01*
X107082339Y-129106800D01*
X105634201Y-129106800D01*
X105543613Y-128971225D01*
X105355575Y-128783187D01*
X105134465Y-128635446D01*
X104888780Y-128533680D01*
X104627963Y-128481800D01*
X104362037Y-128481800D01*
X104101220Y-128533680D01*
X103855535Y-128635446D01*
X103634425Y-128783187D01*
X103446387Y-128971225D01*
X103298646Y-129192335D01*
X103196880Y-129438020D01*
X103145000Y-129698837D01*
X103145000Y-129964763D01*
X103196880Y-130225580D01*
X103298646Y-130471265D01*
X103446387Y-130692375D01*
X103634425Y-130880413D01*
X103855535Y-131028154D01*
X104101220Y-131129920D01*
X104362037Y-131181800D01*
X104627963Y-131181800D01*
X104888780Y-131129920D01*
X105134465Y-131028154D01*
X105355575Y-130880413D01*
X105543613Y-130692375D01*
X105634201Y-130556800D01*
X107082339Y-130556800D01*
X107082339Y-130781800D01*
X107092958Y-130889619D01*
X107124408Y-130993294D01*
X107175479Y-131088842D01*
X107244210Y-131172590D01*
X107327958Y-131241321D01*
X107423506Y-131292392D01*
X107527181Y-131323842D01*
X107635000Y-131334461D01*
X109435000Y-131334461D01*
X109542819Y-131323842D01*
X109646494Y-131292392D01*
X109742042Y-131241321D01*
X109825790Y-131172590D01*
X109894521Y-131088842D01*
X109945592Y-130993294D01*
X109977042Y-130889619D01*
X109981988Y-130839398D01*
X110150679Y-131008089D01*
X110388167Y-131166773D01*
X110652051Y-131276077D01*
X110932187Y-131331800D01*
X111217813Y-131331800D01*
X111497949Y-131276077D01*
X111725555Y-131181800D01*
X117085139Y-131181800D01*
X117149000Y-131188090D01*
X117212861Y-131181800D01*
X117212864Y-131181800D01*
X117403845Y-131162990D01*
X117648896Y-131088655D01*
X117874736Y-130967940D01*
X118072687Y-130805487D01*
X118113403Y-130755874D01*
X118520000Y-130349277D01*
X120156601Y-131985879D01*
X120197313Y-132035487D01*
X120395264Y-132197940D01*
X120621104Y-132318655D01*
X120866155Y-132392990D01*
X121057136Y-132411800D01*
X121057139Y-132411800D01*
X121121000Y-132418090D01*
X121184861Y-132411800D01*
X133675139Y-132411800D01*
X133739000Y-132418090D01*
X133802861Y-132411800D01*
X133802864Y-132411800D01*
X133993845Y-132392990D01*
X134238896Y-132318655D01*
X134464736Y-132197940D01*
X134662687Y-132035487D01*
X134703403Y-131985874D01*
X140049079Y-126640199D01*
X140098687Y-126599487D01*
X140261140Y-126401536D01*
X140381855Y-126175696D01*
X140456190Y-125930645D01*
X140475000Y-125739664D01*
X140475000Y-125739661D01*
X140481290Y-125675800D01*
X140475000Y-125611939D01*
X140475000Y-121310043D01*
X140969000Y-121310043D01*
X140969000Y-121733557D01*
X141051623Y-122148932D01*
X141213695Y-122540207D01*
X141448986Y-122892345D01*
X141748455Y-123191814D01*
X142100593Y-123427105D01*
X142491868Y-123589177D01*
X142907243Y-123671800D01*
X143330757Y-123671800D01*
X143746132Y-123589177D01*
X144137407Y-123427105D01*
X144489545Y-123191814D01*
X144789014Y-122892345D01*
X145024305Y-122540207D01*
X145186377Y-122148932D01*
X145269000Y-121733557D01*
X145269000Y-121310043D01*
X145186377Y-120894668D01*
X145024305Y-120503393D01*
X144789014Y-120151255D01*
X144489545Y-119851786D01*
X144137407Y-119616495D01*
X143746132Y-119454423D01*
X143330757Y-119371800D01*
X142907243Y-119371800D01*
X142491868Y-119454423D01*
X142100593Y-119616495D01*
X141748455Y-119851786D01*
X141448986Y-120151255D01*
X141213695Y-120503393D01*
X141051623Y-120894668D01*
X140969000Y-121310043D01*
X140475000Y-121310043D01*
X140475000Y-109880043D01*
X140969000Y-109880043D01*
X140969000Y-110303557D01*
X141051623Y-110718932D01*
X141213695Y-111110207D01*
X141448986Y-111462345D01*
X141748455Y-111761814D01*
X142100593Y-111997105D01*
X142491868Y-112159177D01*
X142907243Y-112241800D01*
X143330757Y-112241800D01*
X143746132Y-112159177D01*
X144137407Y-111997105D01*
X144489545Y-111761814D01*
X144789014Y-111462345D01*
X145024305Y-111110207D01*
X145186377Y-110718932D01*
X145269000Y-110303557D01*
X145269000Y-109880043D01*
X145186377Y-109464668D01*
X145024305Y-109073393D01*
X144789014Y-108721255D01*
X144489545Y-108421786D01*
X144137407Y-108186495D01*
X143746132Y-108024423D01*
X143330757Y-107941800D01*
X142907243Y-107941800D01*
X142491868Y-108024423D01*
X142100593Y-108186495D01*
X141748455Y-108421786D01*
X141448986Y-108721255D01*
X141213695Y-109073393D01*
X141051623Y-109464668D01*
X140969000Y-109880043D01*
X140475000Y-109880043D01*
X140475000Y-96366043D01*
X140969000Y-96366043D01*
X140969000Y-96789557D01*
X141051623Y-97204932D01*
X141213695Y-97596207D01*
X141448986Y-97948345D01*
X141748455Y-98247814D01*
X142100593Y-98483105D01*
X142491868Y-98645177D01*
X142907243Y-98727800D01*
X143330757Y-98727800D01*
X143746132Y-98645177D01*
X144137407Y-98483105D01*
X144489545Y-98247814D01*
X144789014Y-97948345D01*
X145024305Y-97596207D01*
X145186377Y-97204932D01*
X145269000Y-96789557D01*
X145269000Y-96366043D01*
X145186377Y-95950668D01*
X145024305Y-95559393D01*
X144789014Y-95207255D01*
X144489545Y-94907786D01*
X144137407Y-94672495D01*
X143746132Y-94510423D01*
X143330757Y-94427800D01*
X142907243Y-94427800D01*
X142491868Y-94510423D01*
X142100593Y-94672495D01*
X141748455Y-94907786D01*
X141448986Y-95207255D01*
X141213695Y-95559393D01*
X141051623Y-95950668D01*
X140969000Y-96366043D01*
X140475000Y-96366043D01*
X140475000Y-84936043D01*
X140969000Y-84936043D01*
X140969000Y-85359557D01*
X141051623Y-85774932D01*
X141213695Y-86166207D01*
X141448986Y-86518345D01*
X141748455Y-86817814D01*
X142100593Y-87053105D01*
X142491868Y-87215177D01*
X142907243Y-87297800D01*
X143330757Y-87297800D01*
X143746132Y-87215177D01*
X144137407Y-87053105D01*
X144489545Y-86817814D01*
X144789014Y-86518345D01*
X145024305Y-86166207D01*
X145186377Y-85774932D01*
X145269000Y-85359557D01*
X145269000Y-84936043D01*
X145186377Y-84520668D01*
X145024305Y-84129393D01*
X144789014Y-83777255D01*
X144489545Y-83477786D01*
X144137407Y-83242495D01*
X143746132Y-83080423D01*
X143330757Y-82997800D01*
X142907243Y-82997800D01*
X142491868Y-83080423D01*
X142100593Y-83242495D01*
X141748455Y-83477786D01*
X141448986Y-83777255D01*
X141213695Y-84129393D01*
X141051623Y-84520668D01*
X140969000Y-84936043D01*
X140475000Y-84936043D01*
X140475000Y-77347660D01*
X140481290Y-77283799D01*
X140475000Y-77219936D01*
X140456190Y-77028955D01*
X140381855Y-76783904D01*
X140261140Y-76558064D01*
X140098687Y-76360113D01*
X140049080Y-76319402D01*
X137085403Y-73355726D01*
X137044687Y-73306113D01*
X136846736Y-73143660D01*
X136620896Y-73022945D01*
X136375845Y-72948610D01*
X136241000Y-72935329D01*
X136241000Y-72245237D01*
X136300276Y-72102132D01*
X136354600Y-71829027D01*
X136354600Y-71550573D01*
X136300276Y-71277468D01*
X136241000Y-71134363D01*
X136241000Y-70532347D01*
X136247290Y-70468486D01*
X136241000Y-70404622D01*
X136222190Y-70213641D01*
X136147855Y-69968590D01*
X136027140Y-69742750D01*
X135864687Y-69544799D01*
X135815079Y-69504087D01*
X134084717Y-67773726D01*
X134044001Y-67724113D01*
X133846050Y-67561660D01*
X133620210Y-67440945D01*
X133375159Y-67366610D01*
X133184178Y-67347800D01*
X133184175Y-67347800D01*
X133120314Y-67341510D01*
X133056453Y-67347800D01*
X91105547Y-67347800D01*
X91041686Y-67341510D01*
X90977825Y-67347800D01*
X90977822Y-67347800D01*
X90786841Y-67366610D01*
X90541790Y-67440945D01*
X90315950Y-67561660D01*
X90117999Y-67724113D01*
X90077287Y-67773721D01*
X88346926Y-69504083D01*
X88297313Y-69544799D01*
X88134860Y-69742751D01*
X88014145Y-69968591D01*
X87939810Y-70213642D01*
X87922460Y-70389800D01*
X87236437Y-70389800D01*
X87093332Y-70330524D01*
X86820227Y-70276200D01*
X86541773Y-70276200D01*
X86268668Y-70330524D01*
X86125563Y-70389800D01*
X85523547Y-70389800D01*
X85459686Y-70383510D01*
X85395825Y-70389800D01*
X85395822Y-70389800D01*
X85204841Y-70408610D01*
X84959790Y-70482945D01*
X84733950Y-70603660D01*
X84535999Y-70766113D01*
X84495283Y-70815726D01*
X81912926Y-73398083D01*
X81863313Y-73438799D01*
X81700860Y-73636751D01*
X81580145Y-73862591D01*
X81505810Y-74107642D01*
X81487000Y-74298622D01*
X81480710Y-74362486D01*
X69138000Y-74362486D01*
X69138000Y-64533421D01*
X70331000Y-64533421D01*
X70331000Y-65006179D01*
X70423230Y-65469854D01*
X70604147Y-65906626D01*
X70866798Y-66299711D01*
X71201089Y-66634002D01*
X71594174Y-66896653D01*
X72030946Y-67077570D01*
X72494621Y-67169800D01*
X72967379Y-67169800D01*
X73431054Y-67077570D01*
X73867826Y-66896653D01*
X74260911Y-66634002D01*
X74595202Y-66299711D01*
X74857853Y-65906626D01*
X75038770Y-65469854D01*
X75131000Y-65006179D01*
X75131000Y-64533421D01*
X146531000Y-64533421D01*
X146531000Y-65006179D01*
X146623230Y-65469854D01*
X146804147Y-65906626D01*
X147066798Y-66299711D01*
X147401089Y-66634002D01*
X147794174Y-66896653D01*
X148230946Y-67077570D01*
X148694621Y-67169800D01*
X149167379Y-67169800D01*
X149631054Y-67077570D01*
X150067826Y-66896653D01*
X150460911Y-66634002D01*
X150795202Y-66299711D01*
X151057853Y-65906626D01*
X151238770Y-65469854D01*
X151331000Y-65006179D01*
X151331000Y-64533421D01*
X151238770Y-64069746D01*
X151057853Y-63632974D01*
X150795202Y-63239889D01*
X150460911Y-62905598D01*
X150067826Y-62642947D01*
X149631054Y-62462030D01*
X149167379Y-62369800D01*
X148694621Y-62369800D01*
X148230946Y-62462030D01*
X147794174Y-62642947D01*
X147401089Y-62905598D01*
X147066798Y-63239889D01*
X146804147Y-63632974D01*
X146623230Y-64069746D01*
X146531000Y-64533421D01*
X75131000Y-64533421D01*
X75038770Y-64069746D01*
X74857853Y-63632974D01*
X74595202Y-63239889D01*
X74260911Y-62905598D01*
X73867826Y-62642947D01*
X73431054Y-62462030D01*
X72967379Y-62369800D01*
X72494621Y-62369800D01*
X72030946Y-62462030D01*
X71594174Y-62642947D01*
X71201089Y-62905598D01*
X70866798Y-63239889D01*
X70604147Y-63632974D01*
X70423230Y-64069746D01*
X70331000Y-64533421D01*
X69138000Y-64533421D01*
X69138000Y-61348800D01*
X152316001Y-61348800D01*
X152316000Y-144526800D01*
G37*
X152316000Y-144526800D02*
X69138000Y-144526800D01*
X69138000Y-140733421D01*
X70331000Y-140733421D01*
X70331000Y-141206179D01*
X70423230Y-141669854D01*
X70604147Y-142106626D01*
X70866798Y-142499711D01*
X71201089Y-142834002D01*
X71594174Y-143096653D01*
X72030946Y-143277570D01*
X72494621Y-143369800D01*
X72967379Y-143369800D01*
X73431054Y-143277570D01*
X73867826Y-143096653D01*
X74260911Y-142834002D01*
X74595202Y-142499711D01*
X74857853Y-142106626D01*
X75038770Y-141669854D01*
X75131000Y-141206179D01*
X75131000Y-140733421D01*
X146531000Y-140733421D01*
X146531000Y-141206179D01*
X146623230Y-141669854D01*
X146804147Y-142106626D01*
X147066798Y-142499711D01*
X147401089Y-142834002D01*
X147794174Y-143096653D01*
X148230946Y-143277570D01*
X148694621Y-143369800D01*
X149167379Y-143369800D01*
X149631054Y-143277570D01*
X150067826Y-143096653D01*
X150460911Y-142834002D01*
X150795202Y-142499711D01*
X151057853Y-142106626D01*
X151238770Y-141669854D01*
X151331000Y-141206179D01*
X151331000Y-140733421D01*
X151238770Y-140269746D01*
X151057853Y-139832974D01*
X150795202Y-139439889D01*
X150460911Y-139105598D01*
X150067826Y-138842947D01*
X149631054Y-138662030D01*
X149167379Y-138569800D01*
X148694621Y-138569800D01*
X148230946Y-138662030D01*
X147794174Y-138842947D01*
X147401089Y-139105598D01*
X147066798Y-139439889D01*
X146804147Y-139832974D01*
X146623230Y-140269746D01*
X146531000Y-140733421D01*
X75131000Y-140733421D01*
X75038770Y-140269746D01*
X74857853Y-139832974D01*
X74595202Y-139439889D01*
X74260911Y-139105598D01*
X73867826Y-138842947D01*
X73431054Y-138662030D01*
X72967379Y-138569800D01*
X72494621Y-138569800D01*
X72030946Y-138662030D01*
X71594174Y-138842947D01*
X71201089Y-139105598D01*
X70866798Y-139439889D01*
X70604147Y-139832974D01*
X70423230Y-140269746D01*
X70331000Y-140733421D01*
X69138000Y-140733421D01*
X69138000Y-130882780D01*
X96531127Y-130882780D01*
X96634558Y-131013391D01*
X96869695Y-131037595D01*
X97105036Y-131015461D01*
X97115442Y-131013391D01*
X97218873Y-130882780D01*
X96875000Y-130538907D01*
X96531127Y-130882780D01*
X69138000Y-130882780D01*
X69138000Y-129826495D01*
X95669205Y-129826495D01*
X95691339Y-130061836D01*
X95693409Y-130072242D01*
X95824020Y-130175673D01*
X96167893Y-129831800D01*
X97582107Y-129831800D01*
X97925980Y-130175673D01*
X98056591Y-130072242D01*
X98080795Y-129837105D01*
X98058661Y-129601764D01*
X98056591Y-129591358D01*
X97925980Y-129487927D01*
X97582107Y-129831800D01*
X96167893Y-129831800D01*
X95824020Y-129487927D01*
X95693409Y-129591358D01*
X95669205Y-129826495D01*
X69138000Y-129826495D01*
X69138000Y-128780820D01*
X96531127Y-128780820D01*
X96875000Y-129124693D01*
X97218873Y-128780820D01*
X97115442Y-128650209D01*
X96880305Y-128626005D01*
X96644964Y-128648139D01*
X96634558Y-128650209D01*
X96531127Y-128780820D01*
X69138000Y-128780820D01*
X69138000Y-121635043D01*
X76519000Y-121635043D01*
X76519000Y-122058557D01*
X76601623Y-122473932D01*
X76763695Y-122865207D01*
X76998986Y-123217345D01*
X77298455Y-123516814D01*
X77650593Y-123752105D01*
X78041868Y-123914177D01*
X78457243Y-123996800D01*
X78880757Y-123996800D01*
X79296132Y-123914177D01*
X79687407Y-123752105D01*
X80039545Y-123516814D01*
X80339014Y-123217345D01*
X80574305Y-122865207D01*
X80736377Y-122473932D01*
X80819000Y-122058557D01*
X80819000Y-121635043D01*
X80736377Y-121219668D01*
X80574305Y-120828393D01*
X80339014Y-120476255D01*
X80039545Y-120176786D01*
X79687407Y-119941495D01*
X79296132Y-119779423D01*
X78880757Y-119696800D01*
X78457243Y-119696800D01*
X78041868Y-119779423D01*
X77650593Y-119941495D01*
X77298455Y-120176786D01*
X76998986Y-120476255D01*
X76763695Y-120828393D01*
X76601623Y-121219668D01*
X76519000Y-121635043D01*
X69138000Y-121635043D01*
X69138000Y-110205043D01*
X76519000Y-110205043D01*
X76519000Y-110628557D01*
X76601623Y-111043932D01*
X76763695Y-111435207D01*
X76998986Y-111787345D01*
X77298455Y-112086814D01*
X77650593Y-112322105D01*
X78041868Y-112484177D01*
X78457243Y-112566800D01*
X78880757Y-112566800D01*
X79296132Y-112484177D01*
X79687407Y-112322105D01*
X80039545Y-112086814D01*
X80339014Y-111787345D01*
X80574305Y-111435207D01*
X80736377Y-111043932D01*
X80819000Y-110628557D01*
X80819000Y-110205043D01*
X80736377Y-109789668D01*
X80574305Y-109398393D01*
X80339014Y-109046255D01*
X80039545Y-108746786D01*
X79687407Y-108511495D01*
X79296132Y-108349423D01*
X78880757Y-108266800D01*
X78457243Y-108266800D01*
X78041868Y-108349423D01*
X77650593Y-108511495D01*
X77298455Y-108746786D01*
X76998986Y-109046255D01*
X76763695Y-109398393D01*
X76601623Y-109789668D01*
X76519000Y-110205043D01*
X69138000Y-110205043D01*
X69138000Y-96691043D01*
X76519000Y-96691043D01*
X76519000Y-97114557D01*
X76601623Y-97529932D01*
X76763695Y-97921207D01*
X76998986Y-98273345D01*
X77298455Y-98572814D01*
X77650593Y-98808105D01*
X78041868Y-98970177D01*
X78457243Y-99052800D01*
X78880757Y-99052800D01*
X79296132Y-98970177D01*
X79687407Y-98808105D01*
X80039545Y-98572814D01*
X80339014Y-98273345D01*
X80574305Y-97921207D01*
X80736377Y-97529932D01*
X80819000Y-97114557D01*
X80819000Y-96691043D01*
X80736377Y-96275668D01*
X80574305Y-95884393D01*
X80339014Y-95532255D01*
X80039545Y-95232786D01*
X79687407Y-94997495D01*
X79296132Y-94835423D01*
X78880757Y-94752800D01*
X78457243Y-94752800D01*
X78041868Y-94835423D01*
X77650593Y-94997495D01*
X77298455Y-95232786D01*
X76998986Y-95532255D01*
X76763695Y-95884393D01*
X76601623Y-96275668D01*
X76519000Y-96691043D01*
X69138000Y-96691043D01*
X69138000Y-85261043D01*
X76519000Y-85261043D01*
X76519000Y-85684557D01*
X76601623Y-86099932D01*
X76763695Y-86491207D01*
X76998986Y-86843345D01*
X77298455Y-87142814D01*
X77650593Y-87378105D01*
X78041868Y-87540177D01*
X78457243Y-87622800D01*
X78880757Y-87622800D01*
X79296132Y-87540177D01*
X79687407Y-87378105D01*
X80039545Y-87142814D01*
X80339014Y-86843345D01*
X80574305Y-86491207D01*
X80736377Y-86099932D01*
X80819000Y-85684557D01*
X80819000Y-85261043D01*
X80736377Y-84845668D01*
X80574305Y-84454393D01*
X80339014Y-84102255D01*
X80039545Y-83802786D01*
X79687407Y-83567495D01*
X79296132Y-83405423D01*
X78880757Y-83322800D01*
X78457243Y-83322800D01*
X78041868Y-83405423D01*
X77650593Y-83567495D01*
X77298455Y-83802786D01*
X76998986Y-84102255D01*
X76763695Y-84454393D01*
X76601623Y-84845668D01*
X76519000Y-85261043D01*
X69138000Y-85261043D01*
X69138000Y-74362486D01*
X81480710Y-74362486D01*
X81487000Y-74426347D01*
X81487001Y-98301929D01*
X81480710Y-98365800D01*
X81494084Y-98501580D01*
X81505588Y-98618375D01*
X81505811Y-98620644D01*
X81580145Y-98865695D01*
X81700860Y-99091535D01*
X81750964Y-99152587D01*
X81863314Y-99289487D01*
X81912922Y-99330199D01*
X87410601Y-104827879D01*
X87451313Y-104877487D01*
X87649264Y-105039940D01*
X87875104Y-105160655D01*
X88120155Y-105234990D01*
X88311136Y-105253800D01*
X88311138Y-105253800D01*
X88374999Y-105260090D01*
X88438860Y-105253800D01*
X100832523Y-105253800D01*
X103185522Y-107606800D01*
X98387305Y-107606800D01*
X98161661Y-107381156D01*
X98161661Y-106211800D01*
X98151042Y-106103981D01*
X98119592Y-106000306D01*
X98068521Y-105904758D01*
X97999790Y-105821010D01*
X97916042Y-105752279D01*
X97820494Y-105701208D01*
X97716819Y-105669758D01*
X97609000Y-105659139D01*
X96009000Y-105659139D01*
X95901181Y-105669758D01*
X95797506Y-105701208D01*
X95701958Y-105752279D01*
X95618210Y-105821010D01*
X95549479Y-105904758D01*
X95498408Y-106000306D01*
X95466958Y-106103981D01*
X95456339Y-106211800D01*
X95456339Y-107173835D01*
X95266832Y-106984328D01*
X95244132Y-106956668D01*
X95133737Y-106866069D01*
X95007788Y-106798747D01*
X94871125Y-106757291D01*
X94764607Y-106746800D01*
X94764597Y-106746800D01*
X94729000Y-106743294D01*
X94693403Y-106746800D01*
X94341661Y-106746800D01*
X94341661Y-106671800D01*
X94331042Y-106563981D01*
X94299592Y-106460306D01*
X94248521Y-106364758D01*
X94179790Y-106281010D01*
X94096042Y-106212279D01*
X94000494Y-106161208D01*
X93896819Y-106129758D01*
X93789000Y-106119139D01*
X92189000Y-106119139D01*
X92081181Y-106129758D01*
X91977506Y-106161208D01*
X91881958Y-106212279D01*
X91798210Y-106281010D01*
X91729479Y-106364758D01*
X91678408Y-106460306D01*
X91646958Y-106563981D01*
X91636339Y-106671800D01*
X91636339Y-106746800D01*
X88169596Y-106746800D01*
X88133999Y-106743294D01*
X88098402Y-106746800D01*
X88098393Y-106746800D01*
X87991875Y-106757291D01*
X87855212Y-106798747D01*
X87729263Y-106866069D01*
X87646525Y-106933970D01*
X87646523Y-106933972D01*
X87618868Y-106956668D01*
X87596172Y-106984323D01*
X84531524Y-110048972D01*
X84503868Y-110071669D01*
X84481172Y-110099324D01*
X84481170Y-110099326D01*
X84448819Y-110138746D01*
X84413269Y-110182064D01*
X84345947Y-110308013D01*
X84322855Y-110384139D01*
X84269000Y-110384139D01*
X84161181Y-110394758D01*
X84057506Y-110426208D01*
X83961958Y-110477279D01*
X83878210Y-110546010D01*
X83809479Y-110629758D01*
X83758408Y-110725306D01*
X83726958Y-110828981D01*
X83716339Y-110936800D01*
X83716339Y-112436800D01*
X83726958Y-112544619D01*
X83758408Y-112648294D01*
X83809479Y-112743842D01*
X83878210Y-112827590D01*
X83961958Y-112896321D01*
X84057506Y-112947392D01*
X84161181Y-112978842D01*
X84269000Y-112989461D01*
X84609136Y-112989461D01*
X84403219Y-113074755D01*
X84190298Y-113217024D01*
X84009224Y-113398098D01*
X83866955Y-113611019D01*
X83768958Y-113847604D01*
X83719000Y-114098761D01*
X83719000Y-114354839D01*
X83768958Y-114605996D01*
X83866955Y-114842581D01*
X84009224Y-115055502D01*
X84190298Y-115236576D01*
X84403219Y-115378845D01*
X84639804Y-115476842D01*
X84740140Y-115496800D01*
X84639804Y-115516758D01*
X84403219Y-115614755D01*
X84190298Y-115757024D01*
X84009224Y-115938098D01*
X83866955Y-116151019D01*
X83768958Y-116387604D01*
X83719000Y-116638761D01*
X83719000Y-116894839D01*
X83768958Y-117145996D01*
X83866955Y-117382581D01*
X84009224Y-117595502D01*
X84190298Y-117776576D01*
X84403219Y-117918845D01*
X84639804Y-118016842D01*
X84740140Y-118036800D01*
X84639804Y-118056758D01*
X84403219Y-118154755D01*
X84190298Y-118297024D01*
X84009224Y-118478098D01*
X83866955Y-118691019D01*
X83768958Y-118927604D01*
X83719000Y-119178761D01*
X83719000Y-119434839D01*
X83768958Y-119685996D01*
X83866955Y-119922581D01*
X84009224Y-120135502D01*
X84190298Y-120316576D01*
X84292188Y-120384656D01*
X84294000Y-120403057D01*
X84294000Y-120403066D01*
X84304491Y-120509584D01*
X84340671Y-120628853D01*
X84345947Y-120646247D01*
X84413269Y-120772196D01*
X84470392Y-120841800D01*
X84503868Y-120882591D01*
X84531524Y-120905288D01*
X88565511Y-124939276D01*
X88588209Y-124966933D01*
X88615864Y-124989629D01*
X88615866Y-124989631D01*
X88648782Y-125016644D01*
X88698604Y-125057532D01*
X88824553Y-125124854D01*
X88961216Y-125166310D01*
X89067734Y-125176801D01*
X89067743Y-125176801D01*
X89103340Y-125180307D01*
X89138937Y-125176801D01*
X91639000Y-125176801D01*
X91639000Y-125384763D01*
X91690880Y-125645580D01*
X91792646Y-125891265D01*
X91940387Y-126112375D01*
X92128425Y-126300413D01*
X92349535Y-126448154D01*
X92595220Y-126549920D01*
X92856037Y-126601800D01*
X93121963Y-126601800D01*
X93382780Y-126549920D01*
X93628465Y-126448154D01*
X93849575Y-126300413D01*
X94037613Y-126112375D01*
X94185354Y-125891265D01*
X94287120Y-125645580D01*
X94324771Y-125456294D01*
X95809777Y-125456294D01*
X95812687Y-125460694D01*
X95962326Y-125642212D01*
X96144502Y-125791049D01*
X96309000Y-125782697D01*
X96309000Y-125291800D01*
X97309000Y-125291800D01*
X97309000Y-125782697D01*
X97473498Y-125791049D01*
X97655674Y-125642212D01*
X97805313Y-125460694D01*
X97808223Y-125456294D01*
X97788796Y-125291800D01*
X97309000Y-125291800D01*
X96309000Y-125291800D01*
X95829204Y-125291800D01*
X95809777Y-125456294D01*
X94324771Y-125456294D01*
X94339000Y-125384763D01*
X94339000Y-125118837D01*
X94307189Y-124958916D01*
X94326829Y-124939276D01*
X94326833Y-124939271D01*
X95029305Y-124236800D01*
X95822708Y-124236800D01*
X95829204Y-124291800D01*
X96309000Y-124291800D01*
X96309000Y-124271800D01*
X97309000Y-124271800D01*
X97309000Y-124291800D01*
X97788796Y-124291800D01*
X97795292Y-124236800D01*
X102002033Y-124236800D01*
X102037630Y-124240306D01*
X102073227Y-124236800D01*
X102073237Y-124236800D01*
X102179755Y-124226309D01*
X102316418Y-124184853D01*
X102442367Y-124117531D01*
X102552762Y-124026932D01*
X102575462Y-123999272D01*
X103421373Y-123153361D01*
X103568425Y-123300413D01*
X103789535Y-123448154D01*
X103967332Y-123521800D01*
X103789535Y-123595446D01*
X103568425Y-123743187D01*
X103380387Y-123931225D01*
X103232646Y-124152335D01*
X103130880Y-124398020D01*
X103079000Y-124658837D01*
X103079000Y-124924763D01*
X103130880Y-125185580D01*
X103232646Y-125431265D01*
X103380387Y-125652375D01*
X103568425Y-125840413D01*
X103789535Y-125988154D01*
X104035220Y-126089920D01*
X104296037Y-126141800D01*
X104561963Y-126141800D01*
X104822780Y-126089920D01*
X105068465Y-125988154D01*
X105289575Y-125840413D01*
X105477613Y-125652375D01*
X105625354Y-125431265D01*
X105727120Y-125185580D01*
X105779000Y-124924763D01*
X105779000Y-124658837D01*
X105747189Y-124498916D01*
X105766829Y-124479276D01*
X105766834Y-124479270D01*
X112729001Y-117517104D01*
X112729001Y-122307929D01*
X112722710Y-122371800D01*
X112747811Y-122626644D01*
X112822145Y-122871695D01*
X112942860Y-123097535D01*
X113016977Y-123187848D01*
X113105314Y-123295487D01*
X113154921Y-123336198D01*
X115454601Y-125635879D01*
X115495313Y-125685487D01*
X115693264Y-125847940D01*
X115919104Y-125968655D01*
X116164155Y-126042990D01*
X116355136Y-126061800D01*
X116355138Y-126061800D01*
X116418999Y-126068090D01*
X116482860Y-126061800D01*
X117259000Y-126061800D01*
X117259000Y-127283665D01*
X117277810Y-127474646D01*
X117279000Y-127478570D01*
X117279000Y-127913322D01*
X116610523Y-128581800D01*
X111725555Y-128581800D01*
X111497949Y-128487523D01*
X111217813Y-128431800D01*
X110932187Y-128431800D01*
X110652051Y-128487523D01*
X110388167Y-128596827D01*
X110150679Y-128755511D01*
X109981988Y-128924202D01*
X109977042Y-128873981D01*
X109945592Y-128770306D01*
X109894521Y-128674758D01*
X109825790Y-128591010D01*
X109742042Y-128522279D01*
X109646494Y-128471208D01*
X109542819Y-128439758D01*
X109435000Y-128429139D01*
X107635000Y-128429139D01*
X107527181Y-128439758D01*
X107423506Y-128471208D01*
X107327958Y-128522279D01*
X107244210Y-128591010D01*
X107175479Y-128674758D01*
X107124408Y-128770306D01*
X107092958Y-128873981D01*
X107082339Y-128981800D01*
X107082339Y-129106800D01*
X105634201Y-129106800D01*
X105543613Y-128971225D01*
X105355575Y-128783187D01*
X105134465Y-128635446D01*
X104888780Y-128533680D01*
X104627963Y-128481800D01*
X104362037Y-128481800D01*
X104101220Y-128533680D01*
X103855535Y-128635446D01*
X103634425Y-128783187D01*
X103446387Y-128971225D01*
X103298646Y-129192335D01*
X103196880Y-129438020D01*
X103145000Y-129698837D01*
X103145000Y-129964763D01*
X103196880Y-130225580D01*
X103298646Y-130471265D01*
X103446387Y-130692375D01*
X103634425Y-130880413D01*
X103855535Y-131028154D01*
X104101220Y-131129920D01*
X104362037Y-131181800D01*
X104627963Y-131181800D01*
X104888780Y-131129920D01*
X105134465Y-131028154D01*
X105355575Y-130880413D01*
X105543613Y-130692375D01*
X105634201Y-130556800D01*
X107082339Y-130556800D01*
X107082339Y-130781800D01*
X107092958Y-130889619D01*
X107124408Y-130993294D01*
X107175479Y-131088842D01*
X107244210Y-131172590D01*
X107327958Y-131241321D01*
X107423506Y-131292392D01*
X107527181Y-131323842D01*
X107635000Y-131334461D01*
X109435000Y-131334461D01*
X109542819Y-131323842D01*
X109646494Y-131292392D01*
X109742042Y-131241321D01*
X109825790Y-131172590D01*
X109894521Y-131088842D01*
X109945592Y-130993294D01*
X109977042Y-130889619D01*
X109981988Y-130839398D01*
X110150679Y-131008089D01*
X110388167Y-131166773D01*
X110652051Y-131276077D01*
X110932187Y-131331800D01*
X111217813Y-131331800D01*
X111497949Y-131276077D01*
X111725555Y-131181800D01*
X117085139Y-131181800D01*
X117149000Y-131188090D01*
X117212861Y-131181800D01*
X117212864Y-131181800D01*
X117403845Y-131162990D01*
X117648896Y-131088655D01*
X117874736Y-130967940D01*
X118072687Y-130805487D01*
X118113403Y-130755874D01*
X118520000Y-130349277D01*
X120156601Y-131985879D01*
X120197313Y-132035487D01*
X120395264Y-132197940D01*
X120621104Y-132318655D01*
X120866155Y-132392990D01*
X121057136Y-132411800D01*
X121057139Y-132411800D01*
X121121000Y-132418090D01*
X121184861Y-132411800D01*
X133675139Y-132411800D01*
X133739000Y-132418090D01*
X133802861Y-132411800D01*
X133802864Y-132411800D01*
X133993845Y-132392990D01*
X134238896Y-132318655D01*
X134464736Y-132197940D01*
X134662687Y-132035487D01*
X134703403Y-131985874D01*
X140049079Y-126640199D01*
X140098687Y-126599487D01*
X140261140Y-126401536D01*
X140381855Y-126175696D01*
X140456190Y-125930645D01*
X140475000Y-125739664D01*
X140475000Y-125739661D01*
X140481290Y-125675800D01*
X140475000Y-125611939D01*
X140475000Y-121310043D01*
X140969000Y-121310043D01*
X140969000Y-121733557D01*
X141051623Y-122148932D01*
X141213695Y-122540207D01*
X141448986Y-122892345D01*
X141748455Y-123191814D01*
X142100593Y-123427105D01*
X142491868Y-123589177D01*
X142907243Y-123671800D01*
X143330757Y-123671800D01*
X143746132Y-123589177D01*
X144137407Y-123427105D01*
X144489545Y-123191814D01*
X144789014Y-122892345D01*
X145024305Y-122540207D01*
X145186377Y-122148932D01*
X145269000Y-121733557D01*
X145269000Y-121310043D01*
X145186377Y-120894668D01*
X145024305Y-120503393D01*
X144789014Y-120151255D01*
X144489545Y-119851786D01*
X144137407Y-119616495D01*
X143746132Y-119454423D01*
X143330757Y-119371800D01*
X142907243Y-119371800D01*
X142491868Y-119454423D01*
X142100593Y-119616495D01*
X141748455Y-119851786D01*
X141448986Y-120151255D01*
X141213695Y-120503393D01*
X141051623Y-120894668D01*
X140969000Y-121310043D01*
X140475000Y-121310043D01*
X140475000Y-109880043D01*
X140969000Y-109880043D01*
X140969000Y-110303557D01*
X141051623Y-110718932D01*
X141213695Y-111110207D01*
X141448986Y-111462345D01*
X141748455Y-111761814D01*
X142100593Y-111997105D01*
X142491868Y-112159177D01*
X142907243Y-112241800D01*
X143330757Y-112241800D01*
X143746132Y-112159177D01*
X144137407Y-111997105D01*
X144489545Y-111761814D01*
X144789014Y-111462345D01*
X145024305Y-111110207D01*
X145186377Y-110718932D01*
X145269000Y-110303557D01*
X145269000Y-109880043D01*
X145186377Y-109464668D01*
X145024305Y-109073393D01*
X144789014Y-108721255D01*
X144489545Y-108421786D01*
X144137407Y-108186495D01*
X143746132Y-108024423D01*
X143330757Y-107941800D01*
X142907243Y-107941800D01*
X142491868Y-108024423D01*
X142100593Y-108186495D01*
X141748455Y-108421786D01*
X141448986Y-108721255D01*
X141213695Y-109073393D01*
X141051623Y-109464668D01*
X140969000Y-109880043D01*
X140475000Y-109880043D01*
X140475000Y-96366043D01*
X140969000Y-96366043D01*
X140969000Y-96789557D01*
X141051623Y-97204932D01*
X141213695Y-97596207D01*
X141448986Y-97948345D01*
X141748455Y-98247814D01*
X142100593Y-98483105D01*
X142491868Y-98645177D01*
X142907243Y-98727800D01*
X143330757Y-98727800D01*
X143746132Y-98645177D01*
X144137407Y-98483105D01*
X144489545Y-98247814D01*
X144789014Y-97948345D01*
X145024305Y-97596207D01*
X145186377Y-97204932D01*
X145269000Y-96789557D01*
X145269000Y-96366043D01*
X145186377Y-95950668D01*
X145024305Y-95559393D01*
X144789014Y-95207255D01*
X144489545Y-94907786D01*
X144137407Y-94672495D01*
X143746132Y-94510423D01*
X143330757Y-94427800D01*
X142907243Y-94427800D01*
X142491868Y-94510423D01*
X142100593Y-94672495D01*
X141748455Y-94907786D01*
X141448986Y-95207255D01*
X141213695Y-95559393D01*
X141051623Y-95950668D01*
X140969000Y-96366043D01*
X140475000Y-96366043D01*
X140475000Y-84936043D01*
X140969000Y-84936043D01*
X140969000Y-85359557D01*
X141051623Y-85774932D01*
X141213695Y-86166207D01*
X141448986Y-86518345D01*
X141748455Y-86817814D01*
X142100593Y-87053105D01*
X142491868Y-87215177D01*
X142907243Y-87297800D01*
X143330757Y-87297800D01*
X143746132Y-87215177D01*
X144137407Y-87053105D01*
X144489545Y-86817814D01*
X144789014Y-86518345D01*
X145024305Y-86166207D01*
X145186377Y-85774932D01*
X145269000Y-85359557D01*
X145269000Y-84936043D01*
X145186377Y-84520668D01*
X145024305Y-84129393D01*
X144789014Y-83777255D01*
X144489545Y-83477786D01*
X144137407Y-83242495D01*
X143746132Y-83080423D01*
X143330757Y-82997800D01*
X142907243Y-82997800D01*
X142491868Y-83080423D01*
X142100593Y-83242495D01*
X141748455Y-83477786D01*
X141448986Y-83777255D01*
X141213695Y-84129393D01*
X141051623Y-84520668D01*
X140969000Y-84936043D01*
X140475000Y-84936043D01*
X140475000Y-77347660D01*
X140481290Y-77283799D01*
X140475000Y-77219936D01*
X140456190Y-77028955D01*
X140381855Y-76783904D01*
X140261140Y-76558064D01*
X140098687Y-76360113D01*
X140049080Y-76319402D01*
X137085403Y-73355726D01*
X137044687Y-73306113D01*
X136846736Y-73143660D01*
X136620896Y-73022945D01*
X136375845Y-72948610D01*
X136241000Y-72935329D01*
X136241000Y-72245237D01*
X136300276Y-72102132D01*
X136354600Y-71829027D01*
X136354600Y-71550573D01*
X136300276Y-71277468D01*
X136241000Y-71134363D01*
X136241000Y-70532347D01*
X136247290Y-70468486D01*
X136241000Y-70404622D01*
X136222190Y-70213641D01*
X136147855Y-69968590D01*
X136027140Y-69742750D01*
X135864687Y-69544799D01*
X135815079Y-69504087D01*
X134084717Y-67773726D01*
X134044001Y-67724113D01*
X133846050Y-67561660D01*
X133620210Y-67440945D01*
X133375159Y-67366610D01*
X133184178Y-67347800D01*
X133184175Y-67347800D01*
X133120314Y-67341510D01*
X133056453Y-67347800D01*
X91105547Y-67347800D01*
X91041686Y-67341510D01*
X90977825Y-67347800D01*
X90977822Y-67347800D01*
X90786841Y-67366610D01*
X90541790Y-67440945D01*
X90315950Y-67561660D01*
X90117999Y-67724113D01*
X90077287Y-67773721D01*
X88346926Y-69504083D01*
X88297313Y-69544799D01*
X88134860Y-69742751D01*
X88014145Y-69968591D01*
X87939810Y-70213642D01*
X87922460Y-70389800D01*
X87236437Y-70389800D01*
X87093332Y-70330524D01*
X86820227Y-70276200D01*
X86541773Y-70276200D01*
X86268668Y-70330524D01*
X86125563Y-70389800D01*
X85523547Y-70389800D01*
X85459686Y-70383510D01*
X85395825Y-70389800D01*
X85395822Y-70389800D01*
X85204841Y-70408610D01*
X84959790Y-70482945D01*
X84733950Y-70603660D01*
X84535999Y-70766113D01*
X84495283Y-70815726D01*
X81912926Y-73398083D01*
X81863313Y-73438799D01*
X81700860Y-73636751D01*
X81580145Y-73862591D01*
X81505810Y-74107642D01*
X81487000Y-74298622D01*
X81480710Y-74362486D01*
X69138000Y-74362486D01*
X69138000Y-64533421D01*
X70331000Y-64533421D01*
X70331000Y-65006179D01*
X70423230Y-65469854D01*
X70604147Y-65906626D01*
X70866798Y-66299711D01*
X71201089Y-66634002D01*
X71594174Y-66896653D01*
X72030946Y-67077570D01*
X72494621Y-67169800D01*
X72967379Y-67169800D01*
X73431054Y-67077570D01*
X73867826Y-66896653D01*
X74260911Y-66634002D01*
X74595202Y-66299711D01*
X74857853Y-65906626D01*
X75038770Y-65469854D01*
X75131000Y-65006179D01*
X75131000Y-64533421D01*
X146531000Y-64533421D01*
X146531000Y-65006179D01*
X146623230Y-65469854D01*
X146804147Y-65906626D01*
X147066798Y-66299711D01*
X147401089Y-66634002D01*
X147794174Y-66896653D01*
X148230946Y-67077570D01*
X148694621Y-67169800D01*
X149167379Y-67169800D01*
X149631054Y-67077570D01*
X150067826Y-66896653D01*
X150460911Y-66634002D01*
X150795202Y-66299711D01*
X151057853Y-65906626D01*
X151238770Y-65469854D01*
X151331000Y-65006179D01*
X151331000Y-64533421D01*
X151238770Y-64069746D01*
X151057853Y-63632974D01*
X150795202Y-63239889D01*
X150460911Y-62905598D01*
X150067826Y-62642947D01*
X149631054Y-62462030D01*
X149167379Y-62369800D01*
X148694621Y-62369800D01*
X148230946Y-62462030D01*
X147794174Y-62642947D01*
X147401089Y-62905598D01*
X147066798Y-63239889D01*
X146804147Y-63632974D01*
X146623230Y-64069746D01*
X146531000Y-64533421D01*
X75131000Y-64533421D01*
X75038770Y-64069746D01*
X74857853Y-63632974D01*
X74595202Y-63239889D01*
X74260911Y-62905598D01*
X73867826Y-62642947D01*
X73431054Y-62462030D01*
X72967379Y-62369800D01*
X72494621Y-62369800D01*
X72030946Y-62462030D01*
X71594174Y-62642947D01*
X71201089Y-62905598D01*
X70866798Y-63239889D01*
X70604147Y-63632974D01*
X70423230Y-64069746D01*
X70331000Y-64533421D01*
X69138000Y-64533421D01*
X69138000Y-61348800D01*
X152316001Y-61348800D01*
X152316000Y-144526800D01*
G36*
X135466339Y-121001800D02*
G01*
X135476958Y-121109619D01*
X135508408Y-121213294D01*
X135559479Y-121308842D01*
X135628210Y-121392590D01*
X135711958Y-121461321D01*
X135807506Y-121512392D01*
X135911181Y-121543842D01*
X136019000Y-121554461D01*
X137519000Y-121554461D01*
X137626819Y-121543842D01*
X137730494Y-121512392D01*
X137826042Y-121461321D01*
X137875001Y-121421141D01*
X137875001Y-125137321D01*
X133200523Y-129811800D01*
X121659478Y-129811800D01*
X121350458Y-129502780D01*
X123235127Y-129502780D01*
X123338558Y-129633391D01*
X123573695Y-129657595D01*
X123809036Y-129635461D01*
X123819442Y-129633391D01*
X123922873Y-129502780D01*
X123579000Y-129158907D01*
X123235127Y-129502780D01*
X121350458Y-129502780D01*
X120294173Y-128446495D01*
X122373205Y-128446495D01*
X122395339Y-128681836D01*
X122397409Y-128692242D01*
X122528020Y-128795673D01*
X122871893Y-128451800D01*
X124286107Y-128451800D01*
X124629980Y-128795673D01*
X124760591Y-128692242D01*
X124784795Y-128457105D01*
X124762661Y-128221764D01*
X124760591Y-128211358D01*
X124629980Y-128107927D01*
X124286107Y-128451800D01*
X122871893Y-128451800D01*
X122528020Y-128107927D01*
X122397409Y-128211358D01*
X122373205Y-128446495D01*
X120294173Y-128446495D01*
X119879000Y-128031323D01*
X119879000Y-127400820D01*
X123235127Y-127400820D01*
X123579000Y-127744693D01*
X123922873Y-127400820D01*
X123819442Y-127270209D01*
X123584305Y-127246005D01*
X123348964Y-127268139D01*
X123338558Y-127270209D01*
X123235127Y-127400820D01*
X119879000Y-127400820D01*
X119879000Y-125045582D01*
X119909000Y-124894763D01*
X119909000Y-124628837D01*
X119857120Y-124368020D01*
X119755354Y-124122335D01*
X119607613Y-123901225D01*
X119419575Y-123713187D01*
X119198465Y-123565446D01*
X119020668Y-123491800D01*
X119198465Y-123418154D01*
X119419575Y-123270413D01*
X119607613Y-123082375D01*
X119755354Y-122861265D01*
X119857120Y-122615580D01*
X119909000Y-122354763D01*
X119909000Y-122088837D01*
X119857120Y-121828020D01*
X119802767Y-121696800D01*
X120938696Y-121696800D01*
X124491172Y-125249277D01*
X124513868Y-125276932D01*
X124541523Y-125299628D01*
X124541525Y-125299630D01*
X124587708Y-125337531D01*
X124624263Y-125367531D01*
X124750212Y-125434853D01*
X124826339Y-125457946D01*
X124826339Y-125561800D01*
X124836958Y-125669619D01*
X124868408Y-125773294D01*
X124919479Y-125868842D01*
X124988210Y-125952590D01*
X125071958Y-126021321D01*
X125167506Y-126072392D01*
X125271181Y-126103842D01*
X125379000Y-126114461D01*
X126979000Y-126114461D01*
X127086819Y-126103842D01*
X127190494Y-126072392D01*
X127286042Y-126021321D01*
X127369790Y-125952590D01*
X127438521Y-125868842D01*
X127489592Y-125773294D01*
X127521042Y-125669619D01*
X127531661Y-125561800D01*
X127531661Y-124599766D01*
X128151172Y-125219277D01*
X128173868Y-125246932D01*
X128201523Y-125269628D01*
X128201525Y-125269630D01*
X128246978Y-125306932D01*
X128284263Y-125337531D01*
X128286339Y-125338641D01*
X128286339Y-125531800D01*
X128296958Y-125639619D01*
X128328408Y-125743294D01*
X128379479Y-125838842D01*
X128448210Y-125922590D01*
X128531958Y-125991321D01*
X128627506Y-126042392D01*
X128731181Y-126073842D01*
X128839000Y-126084461D01*
X130439000Y-126084461D01*
X130546819Y-126073842D01*
X130650494Y-126042392D01*
X130746042Y-125991321D01*
X130829790Y-125922590D01*
X130898521Y-125838842D01*
X130949592Y-125743294D01*
X130981042Y-125639619D01*
X130991661Y-125531800D01*
X130991661Y-124404443D01*
X134419305Y-120976800D01*
X135466339Y-120976800D01*
X135466339Y-121001800D01*
G37*
X135466339Y-121001800D02*
X135476958Y-121109619D01*
X135508408Y-121213294D01*
X135559479Y-121308842D01*
X135628210Y-121392590D01*
X135711958Y-121461321D01*
X135807506Y-121512392D01*
X135911181Y-121543842D01*
X136019000Y-121554461D01*
X137519000Y-121554461D01*
X137626819Y-121543842D01*
X137730494Y-121512392D01*
X137826042Y-121461321D01*
X137875001Y-121421141D01*
X137875001Y-125137321D01*
X133200523Y-129811800D01*
X121659478Y-129811800D01*
X121350458Y-129502780D01*
X123235127Y-129502780D01*
X123338558Y-129633391D01*
X123573695Y-129657595D01*
X123809036Y-129635461D01*
X123819442Y-129633391D01*
X123922873Y-129502780D01*
X123579000Y-129158907D01*
X123235127Y-129502780D01*
X121350458Y-129502780D01*
X120294173Y-128446495D01*
X122373205Y-128446495D01*
X122395339Y-128681836D01*
X122397409Y-128692242D01*
X122528020Y-128795673D01*
X122871893Y-128451800D01*
X124286107Y-128451800D01*
X124629980Y-128795673D01*
X124760591Y-128692242D01*
X124784795Y-128457105D01*
X124762661Y-128221764D01*
X124760591Y-128211358D01*
X124629980Y-128107927D01*
X124286107Y-128451800D01*
X122871893Y-128451800D01*
X122528020Y-128107927D01*
X122397409Y-128211358D01*
X122373205Y-128446495D01*
X120294173Y-128446495D01*
X119879000Y-128031323D01*
X119879000Y-127400820D01*
X123235127Y-127400820D01*
X123579000Y-127744693D01*
X123922873Y-127400820D01*
X123819442Y-127270209D01*
X123584305Y-127246005D01*
X123348964Y-127268139D01*
X123338558Y-127270209D01*
X123235127Y-127400820D01*
X119879000Y-127400820D01*
X119879000Y-125045582D01*
X119909000Y-124894763D01*
X119909000Y-124628837D01*
X119857120Y-124368020D01*
X119755354Y-124122335D01*
X119607613Y-123901225D01*
X119419575Y-123713187D01*
X119198465Y-123565446D01*
X119020668Y-123491800D01*
X119198465Y-123418154D01*
X119419575Y-123270413D01*
X119607613Y-123082375D01*
X119755354Y-122861265D01*
X119857120Y-122615580D01*
X119909000Y-122354763D01*
X119909000Y-122088837D01*
X119857120Y-121828020D01*
X119802767Y-121696800D01*
X120938696Y-121696800D01*
X124491172Y-125249277D01*
X124513868Y-125276932D01*
X124541523Y-125299628D01*
X124541525Y-125299630D01*
X124587708Y-125337531D01*
X124624263Y-125367531D01*
X124750212Y-125434853D01*
X124826339Y-125457946D01*
X124826339Y-125561800D01*
X124836958Y-125669619D01*
X124868408Y-125773294D01*
X124919479Y-125868842D01*
X124988210Y-125952590D01*
X125071958Y-126021321D01*
X125167506Y-126072392D01*
X125271181Y-126103842D01*
X125379000Y-126114461D01*
X126979000Y-126114461D01*
X127086819Y-126103842D01*
X127190494Y-126072392D01*
X127286042Y-126021321D01*
X127369790Y-125952590D01*
X127438521Y-125868842D01*
X127489592Y-125773294D01*
X127521042Y-125669619D01*
X127531661Y-125561800D01*
X127531661Y-124599766D01*
X128151172Y-125219277D01*
X128173868Y-125246932D01*
X128201523Y-125269628D01*
X128201525Y-125269630D01*
X128246978Y-125306932D01*
X128284263Y-125337531D01*
X128286339Y-125338641D01*
X128286339Y-125531800D01*
X128296958Y-125639619D01*
X128328408Y-125743294D01*
X128379479Y-125838842D01*
X128448210Y-125922590D01*
X128531958Y-125991321D01*
X128627506Y-126042392D01*
X128731181Y-126073842D01*
X128839000Y-126084461D01*
X130439000Y-126084461D01*
X130546819Y-126073842D01*
X130650494Y-126042392D01*
X130746042Y-125991321D01*
X130829790Y-125922590D01*
X130898521Y-125838842D01*
X130949592Y-125743294D01*
X130981042Y-125639619D01*
X130991661Y-125531800D01*
X130991661Y-124404443D01*
X134419305Y-120976800D01*
X135466339Y-120976800D01*
X135466339Y-121001800D01*
G36*
X111102022Y-114491473D02*
G01*
X105779000Y-119814496D01*
X105779000Y-119578837D01*
X105727120Y-119318020D01*
X105625354Y-119072335D01*
X105477613Y-118851225D01*
X105289575Y-118663187D01*
X105068465Y-118515446D01*
X104822780Y-118413680D01*
X104612236Y-118371800D01*
X104929002Y-118371800D01*
X104929002Y-118162697D01*
X105093498Y-118171049D01*
X105275674Y-118022212D01*
X105425313Y-117840694D01*
X105428223Y-117836294D01*
X105408796Y-117671800D01*
X104929000Y-117671800D01*
X104929000Y-117691800D01*
X103929000Y-117691800D01*
X103929000Y-117671800D01*
X103449204Y-117671800D01*
X103429777Y-117836294D01*
X103432687Y-117840694D01*
X103582326Y-118022212D01*
X103764502Y-118171049D01*
X103928998Y-118162697D01*
X103928998Y-118371800D01*
X104245764Y-118371800D01*
X104035220Y-118413680D01*
X103789535Y-118515446D01*
X103568425Y-118663187D01*
X103380387Y-118851225D01*
X103232646Y-119072335D01*
X103230797Y-119076800D01*
X98019608Y-119076800D01*
X98006676Y-119075526D01*
X98005354Y-119072335D01*
X97857613Y-118851225D01*
X97669575Y-118663187D01*
X97448465Y-118515446D01*
X97270668Y-118441800D01*
X97448465Y-118368154D01*
X97669575Y-118220413D01*
X97857613Y-118032375D01*
X98005354Y-117811265D01*
X98107120Y-117565580D01*
X98159000Y-117304763D01*
X98159000Y-117038837D01*
X98107120Y-116778020D01*
X98005354Y-116532335D01*
X98004997Y-116531801D01*
X103218402Y-116531801D01*
X103253999Y-116535307D01*
X103289596Y-116531801D01*
X103289606Y-116531801D01*
X103396124Y-116521310D01*
X103430210Y-116510970D01*
X103449204Y-116671800D01*
X103929000Y-116671800D01*
X103929000Y-116651800D01*
X104929000Y-116651800D01*
X104929000Y-116671800D01*
X105408796Y-116671800D01*
X105428223Y-116507306D01*
X105425313Y-116502906D01*
X105275674Y-116321388D01*
X105093498Y-116172551D01*
X104929002Y-116180903D01*
X104929002Y-115971800D01*
X104612236Y-115971800D01*
X104822780Y-115929920D01*
X105068465Y-115828154D01*
X105289575Y-115680413D01*
X105477613Y-115492375D01*
X105625354Y-115271265D01*
X105727120Y-115025580D01*
X105779000Y-114764763D01*
X105779000Y-114498837D01*
X105727120Y-114238020D01*
X105625354Y-113992335D01*
X105477613Y-113771225D01*
X105289575Y-113583187D01*
X105068465Y-113435446D01*
X104890668Y-113361800D01*
X105068465Y-113288154D01*
X105289575Y-113140413D01*
X105377208Y-113052780D01*
X106765127Y-113052780D01*
X106868558Y-113183391D01*
X107103695Y-113207595D01*
X107339036Y-113185461D01*
X107349442Y-113183391D01*
X107452873Y-113052780D01*
X107109000Y-112708907D01*
X106765127Y-113052780D01*
X105377208Y-113052780D01*
X105477613Y-112952375D01*
X105625354Y-112731265D01*
X105727120Y-112485580D01*
X105779000Y-112224763D01*
X105779000Y-111996495D01*
X105903205Y-111996495D01*
X105925339Y-112231836D01*
X105927409Y-112242242D01*
X106058020Y-112345673D01*
X106401893Y-112001800D01*
X107816107Y-112001800D01*
X108159980Y-112345673D01*
X108290591Y-112242242D01*
X108314795Y-112007105D01*
X108292661Y-111771764D01*
X108290591Y-111761358D01*
X108159980Y-111657927D01*
X107816107Y-112001800D01*
X106401893Y-112001800D01*
X106058020Y-111657927D01*
X105927409Y-111761358D01*
X105903205Y-111996495D01*
X105779000Y-111996495D01*
X105779000Y-111958837D01*
X105727120Y-111698020D01*
X105625354Y-111452335D01*
X105477613Y-111231225D01*
X105289575Y-111043187D01*
X105151339Y-110950820D01*
X106765127Y-110950820D01*
X107109000Y-111294693D01*
X107452873Y-110950820D01*
X107349442Y-110820209D01*
X107114305Y-110796005D01*
X106878964Y-110818139D01*
X106868558Y-110820209D01*
X106765127Y-110950820D01*
X105151339Y-110950820D01*
X105068465Y-110895446D01*
X104890668Y-110821800D01*
X105068465Y-110748154D01*
X105289575Y-110600413D01*
X105477613Y-110412375D01*
X105568201Y-110276800D01*
X107633403Y-110276800D01*
X107669000Y-110280306D01*
X107704597Y-110276800D01*
X107704607Y-110276800D01*
X107811125Y-110266309D01*
X107947788Y-110224853D01*
X108073737Y-110157531D01*
X108184132Y-110066932D01*
X108206832Y-110039272D01*
X111102022Y-107144083D01*
X111102022Y-114491473D01*
G37*
X111102022Y-114491473D02*
X105779000Y-119814496D01*
X105779000Y-119578837D01*
X105727120Y-119318020D01*
X105625354Y-119072335D01*
X105477613Y-118851225D01*
X105289575Y-118663187D01*
X105068465Y-118515446D01*
X104822780Y-118413680D01*
X104612236Y-118371800D01*
X104929002Y-118371800D01*
X104929002Y-118162697D01*
X105093498Y-118171049D01*
X105275674Y-118022212D01*
X105425313Y-117840694D01*
X105428223Y-117836294D01*
X105408796Y-117671800D01*
X104929000Y-117671800D01*
X104929000Y-117691800D01*
X103929000Y-117691800D01*
X103929000Y-117671800D01*
X103449204Y-117671800D01*
X103429777Y-117836294D01*
X103432687Y-117840694D01*
X103582326Y-118022212D01*
X103764502Y-118171049D01*
X103928998Y-118162697D01*
X103928998Y-118371800D01*
X104245764Y-118371800D01*
X104035220Y-118413680D01*
X103789535Y-118515446D01*
X103568425Y-118663187D01*
X103380387Y-118851225D01*
X103232646Y-119072335D01*
X103230797Y-119076800D01*
X98019608Y-119076800D01*
X98006676Y-119075526D01*
X98005354Y-119072335D01*
X97857613Y-118851225D01*
X97669575Y-118663187D01*
X97448465Y-118515446D01*
X97270668Y-118441800D01*
X97448465Y-118368154D01*
X97669575Y-118220413D01*
X97857613Y-118032375D01*
X98005354Y-117811265D01*
X98107120Y-117565580D01*
X98159000Y-117304763D01*
X98159000Y-117038837D01*
X98107120Y-116778020D01*
X98005354Y-116532335D01*
X98004997Y-116531801D01*
X103218402Y-116531801D01*
X103253999Y-116535307D01*
X103289596Y-116531801D01*
X103289606Y-116531801D01*
X103396124Y-116521310D01*
X103430210Y-116510970D01*
X103449204Y-116671800D01*
X103929000Y-116671800D01*
X103929000Y-116651800D01*
X104929000Y-116651800D01*
X104929000Y-116671800D01*
X105408796Y-116671800D01*
X105428223Y-116507306D01*
X105425313Y-116502906D01*
X105275674Y-116321388D01*
X105093498Y-116172551D01*
X104929002Y-116180903D01*
X104929002Y-115971800D01*
X104612236Y-115971800D01*
X104822780Y-115929920D01*
X105068465Y-115828154D01*
X105289575Y-115680413D01*
X105477613Y-115492375D01*
X105625354Y-115271265D01*
X105727120Y-115025580D01*
X105779000Y-114764763D01*
X105779000Y-114498837D01*
X105727120Y-114238020D01*
X105625354Y-113992335D01*
X105477613Y-113771225D01*
X105289575Y-113583187D01*
X105068465Y-113435446D01*
X104890668Y-113361800D01*
X105068465Y-113288154D01*
X105289575Y-113140413D01*
X105377208Y-113052780D01*
X106765127Y-113052780D01*
X106868558Y-113183391D01*
X107103695Y-113207595D01*
X107339036Y-113185461D01*
X107349442Y-113183391D01*
X107452873Y-113052780D01*
X107109000Y-112708907D01*
X106765127Y-113052780D01*
X105377208Y-113052780D01*
X105477613Y-112952375D01*
X105625354Y-112731265D01*
X105727120Y-112485580D01*
X105779000Y-112224763D01*
X105779000Y-111996495D01*
X105903205Y-111996495D01*
X105925339Y-112231836D01*
X105927409Y-112242242D01*
X106058020Y-112345673D01*
X106401893Y-112001800D01*
X107816107Y-112001800D01*
X108159980Y-112345673D01*
X108290591Y-112242242D01*
X108314795Y-112007105D01*
X108292661Y-111771764D01*
X108290591Y-111761358D01*
X108159980Y-111657927D01*
X107816107Y-112001800D01*
X106401893Y-112001800D01*
X106058020Y-111657927D01*
X105927409Y-111761358D01*
X105903205Y-111996495D01*
X105779000Y-111996495D01*
X105779000Y-111958837D01*
X105727120Y-111698020D01*
X105625354Y-111452335D01*
X105477613Y-111231225D01*
X105289575Y-111043187D01*
X105151339Y-110950820D01*
X106765127Y-110950820D01*
X107109000Y-111294693D01*
X107452873Y-110950820D01*
X107349442Y-110820209D01*
X107114305Y-110796005D01*
X106878964Y-110818139D01*
X106868558Y-110820209D01*
X106765127Y-110950820D01*
X105151339Y-110950820D01*
X105068465Y-110895446D01*
X104890668Y-110821800D01*
X105068465Y-110748154D01*
X105289575Y-110600413D01*
X105477613Y-110412375D01*
X105568201Y-110276800D01*
X107633403Y-110276800D01*
X107669000Y-110280306D01*
X107704597Y-110276800D01*
X107704607Y-110276800D01*
X107811125Y-110266309D01*
X107947788Y-110224853D01*
X108073737Y-110157531D01*
X108184132Y-110066932D01*
X108206832Y-110039272D01*
X111102022Y-107144083D01*
X111102022Y-114491473D01*
G36*
X128320811Y-116818915D02*
G01*
X128289000Y-116978837D01*
X128289000Y-117244763D01*
X128340880Y-117505580D01*
X128442646Y-117751265D01*
X128462761Y-117781370D01*
X128458402Y-117781799D01*
X127175330Y-117781799D01*
X127158796Y-117641800D01*
X126679000Y-117641800D01*
X126679000Y-117661800D01*
X125679000Y-117661800D01*
X125679000Y-117641800D01*
X125199204Y-117641800D01*
X125182670Y-117781799D01*
X119769598Y-117781799D01*
X119755700Y-117780430D01*
X119857120Y-117535580D01*
X119909000Y-117274763D01*
X119909000Y-117008837D01*
X119877189Y-116848916D01*
X119896829Y-116829276D01*
X119896834Y-116829270D01*
X120034305Y-116691799D01*
X128193695Y-116691799D01*
X128320811Y-116818915D01*
G37*
X128320811Y-116818915D02*
X128289000Y-116978837D01*
X128289000Y-117244763D01*
X128340880Y-117505580D01*
X128442646Y-117751265D01*
X128462761Y-117781370D01*
X128458402Y-117781799D01*
X127175330Y-117781799D01*
X127158796Y-117641800D01*
X126679000Y-117641800D01*
X126679000Y-117661800D01*
X125679000Y-117661800D01*
X125679000Y-117641800D01*
X125199204Y-117641800D01*
X125182670Y-117781799D01*
X119769598Y-117781799D01*
X119755700Y-117780430D01*
X119857120Y-117535580D01*
X119909000Y-117274763D01*
X119909000Y-117008837D01*
X119877189Y-116848916D01*
X119896829Y-116829276D01*
X119896834Y-116829270D01*
X120034305Y-116691799D01*
X128193695Y-116691799D01*
X128320811Y-116818915D01*
G36*
X124982646Y-111422335D02*
G01*
X124880880Y-111668020D01*
X124829000Y-111928837D01*
X124829000Y-112194763D01*
X124880880Y-112455580D01*
X124982646Y-112701265D01*
X125130387Y-112922375D01*
X125318425Y-113110413D01*
X125539535Y-113258154D01*
X125717332Y-113331800D01*
X125539535Y-113405446D01*
X125318425Y-113553187D01*
X125130387Y-113741225D01*
X124982646Y-113962335D01*
X124880880Y-114208020D01*
X124829000Y-114468837D01*
X124829000Y-114734763D01*
X124880880Y-114995580D01*
X124982646Y-115241265D01*
X124983003Y-115241799D01*
X119769598Y-115241799D01*
X119734001Y-115238293D01*
X119698404Y-115241799D01*
X119698394Y-115241799D01*
X119591876Y-115252290D01*
X119557790Y-115262630D01*
X119538796Y-115101800D01*
X119059000Y-115101800D01*
X119059000Y-115121800D01*
X118059000Y-115121800D01*
X118059000Y-115101800D01*
X118039000Y-115101800D01*
X118039000Y-114101800D01*
X118059000Y-114101800D01*
X118059000Y-114081800D01*
X119059000Y-114081800D01*
X119059000Y-114101800D01*
X119538796Y-114101800D01*
X119558223Y-113937306D01*
X119555313Y-113932906D01*
X119405674Y-113751388D01*
X119223498Y-113602551D01*
X119059002Y-113610903D01*
X119059002Y-113401800D01*
X118742236Y-113401800D01*
X118952780Y-113359920D01*
X119198465Y-113258154D01*
X119419575Y-113110413D01*
X119607613Y-112922375D01*
X119696245Y-112789727D01*
X119725967Y-112786800D01*
X119725977Y-112786800D01*
X119832495Y-112776309D01*
X119969158Y-112734853D01*
X120095107Y-112667531D01*
X120205502Y-112576932D01*
X120228202Y-112549272D01*
X121355674Y-111421801D01*
X124983003Y-111421801D01*
X124982646Y-111422335D01*
G37*
X124982646Y-111422335D02*
X124880880Y-111668020D01*
X124829000Y-111928837D01*
X124829000Y-112194763D01*
X124880880Y-112455580D01*
X124982646Y-112701265D01*
X125130387Y-112922375D01*
X125318425Y-113110413D01*
X125539535Y-113258154D01*
X125717332Y-113331800D01*
X125539535Y-113405446D01*
X125318425Y-113553187D01*
X125130387Y-113741225D01*
X124982646Y-113962335D01*
X124880880Y-114208020D01*
X124829000Y-114468837D01*
X124829000Y-114734763D01*
X124880880Y-114995580D01*
X124982646Y-115241265D01*
X124983003Y-115241799D01*
X119769598Y-115241799D01*
X119734001Y-115238293D01*
X119698404Y-115241799D01*
X119698394Y-115241799D01*
X119591876Y-115252290D01*
X119557790Y-115262630D01*
X119538796Y-115101800D01*
X119059000Y-115101800D01*
X119059000Y-115121800D01*
X118059000Y-115121800D01*
X118059000Y-115101800D01*
X118039000Y-115101800D01*
X118039000Y-114101800D01*
X118059000Y-114101800D01*
X118059000Y-114081800D01*
X119059000Y-114081800D01*
X119059000Y-114101800D01*
X119538796Y-114101800D01*
X119558223Y-113937306D01*
X119555313Y-113932906D01*
X119405674Y-113751388D01*
X119223498Y-113602551D01*
X119059002Y-113610903D01*
X119059002Y-113401800D01*
X118742236Y-113401800D01*
X118952780Y-113359920D01*
X119198465Y-113258154D01*
X119419575Y-113110413D01*
X119607613Y-112922375D01*
X119696245Y-112789727D01*
X119725967Y-112786800D01*
X119725977Y-112786800D01*
X119832495Y-112776309D01*
X119969158Y-112734853D01*
X120095107Y-112667531D01*
X120205502Y-112576932D01*
X120228202Y-112549272D01*
X121355674Y-111421801D01*
X124983003Y-111421801D01*
X124982646Y-111422335D01*
G36*
X95829204Y-114131800D02*
G01*
X96309000Y-114131800D01*
X96309000Y-114111800D01*
X97309000Y-114111800D01*
X97309000Y-114131800D01*
X97788796Y-114131800D01*
X97795292Y-114076799D01*
X103133404Y-114076799D01*
X103169001Y-114080305D01*
X103197365Y-114077511D01*
X103130880Y-114238020D01*
X103079000Y-114498837D01*
X103079000Y-114764763D01*
X103110811Y-114924685D01*
X102953695Y-115081801D01*
X95135676Y-115081801D01*
X94658202Y-114604328D01*
X94635502Y-114576668D01*
X94525107Y-114486069D01*
X94399158Y-114418747D01*
X94262495Y-114377291D01*
X94155977Y-114366800D01*
X94155967Y-114366800D01*
X94126245Y-114363873D01*
X94037613Y-114231225D01*
X93883187Y-114076799D01*
X95822708Y-114076799D01*
X95829204Y-114131800D01*
G37*
X95829204Y-114131800D02*
X96309000Y-114131800D01*
X96309000Y-114111800D01*
X97309000Y-114111800D01*
X97309000Y-114131800D01*
X97788796Y-114131800D01*
X97795292Y-114076799D01*
X103133404Y-114076799D01*
X103169001Y-114080305D01*
X103197365Y-114077511D01*
X103130880Y-114238020D01*
X103079000Y-114498837D01*
X103079000Y-114764763D01*
X103110811Y-114924685D01*
X102953695Y-115081801D01*
X95135676Y-115081801D01*
X94658202Y-114604328D01*
X94635502Y-114576668D01*
X94525107Y-114486069D01*
X94399158Y-114418747D01*
X94262495Y-114377291D01*
X94155977Y-114366800D01*
X94155967Y-114366800D01*
X94126245Y-114363873D01*
X94037613Y-114231225D01*
X93883187Y-114076799D01*
X95822708Y-114076799D01*
X95829204Y-114131800D01*
G36*
X133641000Y-71006964D02*
G01*
X133641000Y-71134363D01*
X133618038Y-71189798D01*
X133461492Y-71189798D01*
X133468987Y-71014415D01*
X133316705Y-70819038D01*
X133129233Y-70657124D01*
X133076381Y-70621837D01*
X132901000Y-70639103D01*
X132901000Y-71189800D01*
X132921000Y-71189800D01*
X132921000Y-72189800D01*
X132901000Y-72189800D01*
X132901000Y-72740497D01*
X133076381Y-72757763D01*
X133129233Y-72722476D01*
X133316705Y-72560562D01*
X133468987Y-72365185D01*
X133461492Y-72189802D01*
X133618038Y-72189802D01*
X133641001Y-72245239D01*
X133641000Y-73674362D01*
X133618038Y-73729798D01*
X133461492Y-73729798D01*
X133468987Y-73554415D01*
X133316705Y-73359038D01*
X133129233Y-73197124D01*
X133076381Y-73161837D01*
X132901000Y-73179103D01*
X132901000Y-73729800D01*
X132921000Y-73729800D01*
X132921000Y-74729800D01*
X132901000Y-74729800D01*
X132901000Y-75280497D01*
X133076381Y-75297763D01*
X133129233Y-75262476D01*
X133316705Y-75100562D01*
X133468987Y-74905185D01*
X133461492Y-74729802D01*
X133618038Y-74729802D01*
X133688284Y-74899391D01*
X133842985Y-75130918D01*
X134039882Y-75327815D01*
X134271409Y-75482516D01*
X134528668Y-75589076D01*
X134801773Y-75643400D01*
X135080227Y-75643400D01*
X135353332Y-75589076D01*
X135496437Y-75529800D01*
X135582523Y-75529800D01*
X137875000Y-77822278D01*
X137875000Y-87003108D01*
X137778776Y-86859098D01*
X137597702Y-86678024D01*
X137495812Y-86609944D01*
X137494000Y-86591542D01*
X137494000Y-86591533D01*
X137483509Y-86485015D01*
X137442053Y-86348352D01*
X137374731Y-86222403D01*
X137328612Y-86166207D01*
X137306830Y-86139665D01*
X137306823Y-86139658D01*
X137284131Y-86112008D01*
X137256482Y-86089317D01*
X134347491Y-83180327D01*
X134324791Y-83152667D01*
X134214396Y-83062068D01*
X134088447Y-82994746D01*
X133951784Y-82953290D01*
X133845266Y-82942799D01*
X133845256Y-82942799D01*
X133809659Y-82939293D01*
X133774062Y-82942799D01*
X130989000Y-82942799D01*
X130989000Y-82734837D01*
X130937120Y-82474020D01*
X130835354Y-82228335D01*
X130687613Y-82007225D01*
X130499575Y-81819187D01*
X130278465Y-81671446D01*
X130032780Y-81569680D01*
X129771963Y-81517800D01*
X129506037Y-81517800D01*
X129245220Y-81569680D01*
X128999535Y-81671446D01*
X128778425Y-81819187D01*
X128590387Y-82007225D01*
X128442646Y-82228335D01*
X128340880Y-82474020D01*
X128289000Y-82734837D01*
X128289000Y-83000763D01*
X128340880Y-83261580D01*
X128442646Y-83507265D01*
X128590387Y-83728375D01*
X128778425Y-83916413D01*
X128999535Y-84064154D01*
X129177332Y-84137800D01*
X128999535Y-84211446D01*
X128778425Y-84359187D01*
X128590387Y-84547225D01*
X128442646Y-84768335D01*
X128340880Y-85014020D01*
X128289000Y-85274837D01*
X128289000Y-85540763D01*
X128340880Y-85801580D01*
X128442646Y-86047265D01*
X128590387Y-86268375D01*
X128778425Y-86456413D01*
X128999535Y-86604154D01*
X129177332Y-86677800D01*
X128999535Y-86751446D01*
X128862814Y-86842800D01*
X127318201Y-86842800D01*
X127227613Y-86707225D01*
X127039575Y-86519187D01*
X126818465Y-86371446D01*
X126640668Y-86297800D01*
X126818465Y-86224154D01*
X127039575Y-86076413D01*
X127227613Y-85888375D01*
X127375354Y-85667265D01*
X127477120Y-85421580D01*
X127529000Y-85160763D01*
X127529000Y-84894837D01*
X127477120Y-84634020D01*
X127375354Y-84388335D01*
X127227613Y-84167225D01*
X127039575Y-83979187D01*
X126818465Y-83831446D01*
X126572780Y-83729680D01*
X126362236Y-83687800D01*
X126679002Y-83687800D01*
X126679002Y-83478697D01*
X126843498Y-83487049D01*
X127025674Y-83338212D01*
X127175313Y-83156694D01*
X127178223Y-83152294D01*
X127158796Y-82987800D01*
X126679000Y-82987800D01*
X126679000Y-83007800D01*
X125679000Y-83007800D01*
X125679000Y-82987800D01*
X125199204Y-82987800D01*
X125179777Y-83152294D01*
X125182687Y-83156694D01*
X125332326Y-83338212D01*
X125514502Y-83487049D01*
X125678998Y-83478697D01*
X125678998Y-83687800D01*
X125995764Y-83687800D01*
X125785220Y-83729680D01*
X125539535Y-83831446D01*
X125318425Y-83979187D01*
X125130387Y-84167225D01*
X124982646Y-84388335D01*
X124880880Y-84634020D01*
X124829000Y-84894837D01*
X124829000Y-85160763D01*
X124880880Y-85421580D01*
X124982646Y-85667265D01*
X125130387Y-85888375D01*
X125318425Y-86076413D01*
X125539535Y-86224154D01*
X125717332Y-86297800D01*
X125539535Y-86371446D01*
X125318425Y-86519187D01*
X125130387Y-86707225D01*
X124982646Y-86928335D01*
X124880880Y-87174020D01*
X124829000Y-87434837D01*
X124829000Y-87700763D01*
X124880880Y-87961580D01*
X124982646Y-88207265D01*
X125130387Y-88428375D01*
X125318425Y-88616413D01*
X125539535Y-88764154D01*
X125717332Y-88837800D01*
X125539535Y-88911446D01*
X125318425Y-89059187D01*
X125130387Y-89247225D01*
X124982646Y-89468335D01*
X124880880Y-89714020D01*
X124829000Y-89974837D01*
X124829000Y-90240763D01*
X124880880Y-90501580D01*
X124982646Y-90747265D01*
X125130387Y-90968375D01*
X125318425Y-91156413D01*
X125539535Y-91304154D01*
X125785220Y-91405920D01*
X125995764Y-91447800D01*
X125678998Y-91447800D01*
X125678998Y-91656903D01*
X125514502Y-91648551D01*
X125332326Y-91797388D01*
X125182687Y-91978906D01*
X125179777Y-91983306D01*
X125199204Y-92147800D01*
X125679000Y-92147800D01*
X125679000Y-92127800D01*
X126679000Y-92127800D01*
X126679000Y-92147800D01*
X127158796Y-92147800D01*
X127178223Y-91983306D01*
X127175313Y-91978906D01*
X127025674Y-91797388D01*
X126843498Y-91648551D01*
X126679002Y-91656903D01*
X126679002Y-91447800D01*
X126362236Y-91447800D01*
X126572780Y-91405920D01*
X126818465Y-91304154D01*
X127039575Y-91156413D01*
X127227613Y-90968375D01*
X127318201Y-90832800D01*
X128331177Y-90832800D01*
X128340880Y-90881580D01*
X128442646Y-91127265D01*
X128590387Y-91348375D01*
X128778425Y-91536413D01*
X128999535Y-91684154D01*
X129177332Y-91757800D01*
X128999535Y-91831446D01*
X128778425Y-91979187D01*
X128590387Y-92167225D01*
X128442646Y-92388335D01*
X128340880Y-92634020D01*
X128289000Y-92894837D01*
X128289000Y-93160763D01*
X128340880Y-93421580D01*
X128442646Y-93667265D01*
X128590387Y-93888375D01*
X128778425Y-94076413D01*
X128999535Y-94224154D01*
X129177332Y-94297800D01*
X128999535Y-94371446D01*
X128778425Y-94519187D01*
X128590387Y-94707225D01*
X128442646Y-94928335D01*
X128340880Y-95174020D01*
X128289000Y-95434837D01*
X128289000Y-95700763D01*
X128296879Y-95740375D01*
X127508554Y-94952050D01*
X127477120Y-94794020D01*
X127375354Y-94548335D01*
X127227613Y-94327225D01*
X127039575Y-94139187D01*
X126818465Y-93991446D01*
X126572780Y-93889680D01*
X126362236Y-93847800D01*
X126679002Y-93847800D01*
X126679002Y-93638697D01*
X126843498Y-93647049D01*
X127025674Y-93498212D01*
X127175313Y-93316694D01*
X127178223Y-93312294D01*
X127158796Y-93147800D01*
X126679000Y-93147800D01*
X126679000Y-93167800D01*
X125679000Y-93167800D01*
X125679000Y-93147800D01*
X125199204Y-93147800D01*
X125179777Y-93312294D01*
X125182687Y-93316694D01*
X125332326Y-93498212D01*
X125514502Y-93647049D01*
X125678998Y-93638697D01*
X125678998Y-93847800D01*
X125995764Y-93847800D01*
X125785220Y-93889680D01*
X125539535Y-93991446D01*
X125318425Y-94139187D01*
X125130387Y-94327225D01*
X124982646Y-94548335D01*
X124880880Y-94794020D01*
X124829000Y-95054837D01*
X124829000Y-95320763D01*
X124880880Y-95581580D01*
X124982646Y-95827265D01*
X125130387Y-96048375D01*
X125318425Y-96236413D01*
X125539535Y-96384154D01*
X125717332Y-96457800D01*
X125539535Y-96531446D01*
X125318425Y-96679187D01*
X125130387Y-96867225D01*
X124982646Y-97088335D01*
X124880880Y-97334020D01*
X124829000Y-97594837D01*
X124829000Y-97860763D01*
X124880880Y-98121580D01*
X124982646Y-98367265D01*
X125130387Y-98588375D01*
X125318425Y-98776413D01*
X125526043Y-98915139D01*
X125379000Y-98915139D01*
X125271181Y-98925758D01*
X125167506Y-98957208D01*
X125071958Y-99008279D01*
X124988210Y-99077010D01*
X124919479Y-99160758D01*
X124868408Y-99256306D01*
X124836958Y-99359981D01*
X124826339Y-99467800D01*
X124826339Y-101067800D01*
X124836958Y-101175619D01*
X124868408Y-101279294D01*
X124919479Y-101374842D01*
X124988210Y-101458590D01*
X125071958Y-101527321D01*
X125167506Y-101578392D01*
X125271181Y-101609842D01*
X125379000Y-101620461D01*
X126979000Y-101620461D01*
X127086819Y-101609842D01*
X127190494Y-101578392D01*
X127286042Y-101527321D01*
X127369790Y-101458590D01*
X127438521Y-101374842D01*
X127489592Y-101279294D01*
X127521042Y-101175619D01*
X127531661Y-101067800D01*
X127531661Y-100105766D01*
X128286339Y-100860444D01*
X128286339Y-101447800D01*
X128296958Y-101555619D01*
X128328408Y-101659294D01*
X128379479Y-101754842D01*
X128448210Y-101838590D01*
X128531958Y-101907321D01*
X128627506Y-101958392D01*
X128731181Y-101989842D01*
X128839000Y-102000461D01*
X130439000Y-102000461D01*
X130546819Y-101989842D01*
X130650494Y-101958392D01*
X130746042Y-101907321D01*
X130829790Y-101838590D01*
X130898521Y-101754842D01*
X130949592Y-101659294D01*
X130981042Y-101555619D01*
X130991661Y-101447800D01*
X130991661Y-101372800D01*
X131523403Y-101372800D01*
X131559000Y-101376306D01*
X131594597Y-101372800D01*
X131594607Y-101372800D01*
X131701125Y-101362309D01*
X131837788Y-101320853D01*
X131963737Y-101253531D01*
X132074132Y-101162932D01*
X132096832Y-101135272D01*
X136621644Y-96610461D01*
X137519000Y-96610461D01*
X137626819Y-96599842D01*
X137730494Y-96568392D01*
X137826042Y-96517321D01*
X137875000Y-96477141D01*
X137875001Y-111947109D01*
X137778776Y-111803098D01*
X137597702Y-111622024D01*
X137495812Y-111553944D01*
X137494000Y-111535543D01*
X137494000Y-111535533D01*
X137483509Y-111429015D01*
X137442053Y-111292352D01*
X137374731Y-111166403D01*
X137306830Y-111083665D01*
X137306823Y-111083658D01*
X137284131Y-111056008D01*
X137256482Y-111033317D01*
X133487491Y-107264327D01*
X133464791Y-107236667D01*
X133354396Y-107146068D01*
X133228447Y-107078746D01*
X133091784Y-107037290D01*
X132985266Y-107026799D01*
X132985256Y-107026799D01*
X132949659Y-107023293D01*
X132914062Y-107026799D01*
X130989000Y-107026799D01*
X130989000Y-106818837D01*
X130937120Y-106558020D01*
X130835354Y-106312335D01*
X130687613Y-106091225D01*
X130499575Y-105903187D01*
X130278465Y-105755446D01*
X130032780Y-105653680D01*
X129771963Y-105601800D01*
X129506037Y-105601800D01*
X129245220Y-105653680D01*
X128999535Y-105755446D01*
X128778425Y-105903187D01*
X128590387Y-106091225D01*
X128442646Y-106312335D01*
X128340880Y-106558020D01*
X128289000Y-106818837D01*
X128289000Y-107084763D01*
X128340880Y-107345580D01*
X128442646Y-107591265D01*
X128590387Y-107812375D01*
X128778425Y-108000413D01*
X128999535Y-108148154D01*
X129177332Y-108221800D01*
X128999535Y-108295446D01*
X128778425Y-108443187D01*
X128590387Y-108631225D01*
X128442646Y-108852335D01*
X128340880Y-109098020D01*
X128289000Y-109358837D01*
X128289000Y-109624763D01*
X128320811Y-109784685D01*
X128133695Y-109971801D01*
X127453833Y-109971801D01*
X127477120Y-109915580D01*
X127529000Y-109654763D01*
X127529000Y-109388837D01*
X127477120Y-109128020D01*
X127375354Y-108882335D01*
X127227613Y-108661225D01*
X127039575Y-108473187D01*
X126818465Y-108325446D01*
X126572780Y-108223680D01*
X126362236Y-108181800D01*
X126679002Y-108181800D01*
X126679002Y-107972697D01*
X126843498Y-107981049D01*
X127025674Y-107832212D01*
X127175313Y-107650694D01*
X127178223Y-107646294D01*
X127158796Y-107481800D01*
X126679000Y-107481800D01*
X126679000Y-107501800D01*
X125679000Y-107501800D01*
X125679000Y-107481800D01*
X125199204Y-107481800D01*
X125195518Y-107513013D01*
X123999811Y-106317306D01*
X125179777Y-106317306D01*
X125199204Y-106481800D01*
X125679000Y-106481800D01*
X125679000Y-105990903D01*
X126679000Y-105990903D01*
X126679000Y-106481800D01*
X127158796Y-106481800D01*
X127178223Y-106317306D01*
X127175313Y-106312906D01*
X127025674Y-106131388D01*
X126843498Y-105982551D01*
X126679000Y-105990903D01*
X125679000Y-105990903D01*
X125514502Y-105982551D01*
X125332326Y-106131388D01*
X125182687Y-106312906D01*
X125179777Y-106317306D01*
X123999811Y-106317306D01*
X123136000Y-105453496D01*
X123136000Y-82156104D01*
X123468798Y-81823306D01*
X125179777Y-81823306D01*
X125199204Y-81987800D01*
X125679000Y-81987800D01*
X125679000Y-81496903D01*
X126679000Y-81496903D01*
X126679000Y-81987800D01*
X127158796Y-81987800D01*
X127178223Y-81823306D01*
X127175313Y-81818906D01*
X127025674Y-81637388D01*
X126843498Y-81488551D01*
X126679000Y-81496903D01*
X125679000Y-81496903D01*
X125514502Y-81488551D01*
X125332326Y-81637388D01*
X125182687Y-81818906D01*
X125179777Y-81823306D01*
X123468798Y-81823306D01*
X129109881Y-76182224D01*
X129137530Y-76159533D01*
X129160222Y-76131883D01*
X129160229Y-76131876D01*
X129228130Y-76049138D01*
X129295452Y-75923189D01*
X129299413Y-75910132D01*
X129336908Y-75786526D01*
X129347399Y-75680008D01*
X129347399Y-75679998D01*
X129350905Y-75644401D01*
X129347399Y-75608804D01*
X129347399Y-75281836D01*
X129361000Y-75280497D01*
X129361000Y-74729800D01*
X130361000Y-74729800D01*
X130361000Y-75280497D01*
X130536381Y-75297763D01*
X130589233Y-75262476D01*
X130776705Y-75100562D01*
X130928987Y-74905185D01*
X131333013Y-74905185D01*
X131485295Y-75100562D01*
X131672767Y-75262476D01*
X131725619Y-75297763D01*
X131901000Y-75280497D01*
X131901000Y-74729800D01*
X131340508Y-74729800D01*
X131333013Y-74905185D01*
X130928987Y-74905185D01*
X130921492Y-74729800D01*
X130361000Y-74729800D01*
X129361000Y-74729800D01*
X129347399Y-74729800D01*
X129347399Y-73729800D01*
X129361000Y-73729800D01*
X129361000Y-73709800D01*
X130361000Y-73709800D01*
X130361000Y-73729800D01*
X130921492Y-73729800D01*
X130928987Y-73554415D01*
X131333013Y-73554415D01*
X131340508Y-73729800D01*
X131901000Y-73729800D01*
X131901000Y-73179103D01*
X131725619Y-73161837D01*
X131672767Y-73197124D01*
X131485295Y-73359038D01*
X131333013Y-73554415D01*
X130928987Y-73554415D01*
X130776705Y-73359038D01*
X130589233Y-73197124D01*
X130536381Y-73161837D01*
X130361002Y-73179103D01*
X130361002Y-73012762D01*
X130530591Y-72942516D01*
X130762118Y-72787815D01*
X130959015Y-72590918D01*
X131113716Y-72359391D01*
X131183962Y-72189802D01*
X131340508Y-72189802D01*
X131333013Y-72365185D01*
X131485295Y-72560562D01*
X131672767Y-72722476D01*
X131725619Y-72757763D01*
X131901000Y-72740497D01*
X131901000Y-72189800D01*
X131881000Y-72189800D01*
X131881000Y-71189800D01*
X131901000Y-71189800D01*
X131901000Y-70639103D01*
X131725619Y-70621837D01*
X131672767Y-70657124D01*
X131485295Y-70819038D01*
X131333013Y-71014415D01*
X131340508Y-71189798D01*
X131183962Y-71189798D01*
X131113716Y-71020209D01*
X130959015Y-70788682D01*
X130762118Y-70591785D01*
X130530591Y-70437084D01*
X130273332Y-70330524D01*
X130000227Y-70276200D01*
X129721773Y-70276200D01*
X129514028Y-70317523D01*
X129144304Y-69947800D01*
X132581837Y-69947800D01*
X133641000Y-71006964D01*
G37*
X133641000Y-71006964D02*
X133641000Y-71134363D01*
X133618038Y-71189798D01*
X133461492Y-71189798D01*
X133468987Y-71014415D01*
X133316705Y-70819038D01*
X133129233Y-70657124D01*
X133076381Y-70621837D01*
X132901000Y-70639103D01*
X132901000Y-71189800D01*
X132921000Y-71189800D01*
X132921000Y-72189800D01*
X132901000Y-72189800D01*
X132901000Y-72740497D01*
X133076381Y-72757763D01*
X133129233Y-72722476D01*
X133316705Y-72560562D01*
X133468987Y-72365185D01*
X133461492Y-72189802D01*
X133618038Y-72189802D01*
X133641001Y-72245239D01*
X133641000Y-73674362D01*
X133618038Y-73729798D01*
X133461492Y-73729798D01*
X133468987Y-73554415D01*
X133316705Y-73359038D01*
X133129233Y-73197124D01*
X133076381Y-73161837D01*
X132901000Y-73179103D01*
X132901000Y-73729800D01*
X132921000Y-73729800D01*
X132921000Y-74729800D01*
X132901000Y-74729800D01*
X132901000Y-75280497D01*
X133076381Y-75297763D01*
X133129233Y-75262476D01*
X133316705Y-75100562D01*
X133468987Y-74905185D01*
X133461492Y-74729802D01*
X133618038Y-74729802D01*
X133688284Y-74899391D01*
X133842985Y-75130918D01*
X134039882Y-75327815D01*
X134271409Y-75482516D01*
X134528668Y-75589076D01*
X134801773Y-75643400D01*
X135080227Y-75643400D01*
X135353332Y-75589076D01*
X135496437Y-75529800D01*
X135582523Y-75529800D01*
X137875000Y-77822278D01*
X137875000Y-87003108D01*
X137778776Y-86859098D01*
X137597702Y-86678024D01*
X137495812Y-86609944D01*
X137494000Y-86591542D01*
X137494000Y-86591533D01*
X137483509Y-86485015D01*
X137442053Y-86348352D01*
X137374731Y-86222403D01*
X137328612Y-86166207D01*
X137306830Y-86139665D01*
X137306823Y-86139658D01*
X137284131Y-86112008D01*
X137256482Y-86089317D01*
X134347491Y-83180327D01*
X134324791Y-83152667D01*
X134214396Y-83062068D01*
X134088447Y-82994746D01*
X133951784Y-82953290D01*
X133845266Y-82942799D01*
X133845256Y-82942799D01*
X133809659Y-82939293D01*
X133774062Y-82942799D01*
X130989000Y-82942799D01*
X130989000Y-82734837D01*
X130937120Y-82474020D01*
X130835354Y-82228335D01*
X130687613Y-82007225D01*
X130499575Y-81819187D01*
X130278465Y-81671446D01*
X130032780Y-81569680D01*
X129771963Y-81517800D01*
X129506037Y-81517800D01*
X129245220Y-81569680D01*
X128999535Y-81671446D01*
X128778425Y-81819187D01*
X128590387Y-82007225D01*
X128442646Y-82228335D01*
X128340880Y-82474020D01*
X128289000Y-82734837D01*
X128289000Y-83000763D01*
X128340880Y-83261580D01*
X128442646Y-83507265D01*
X128590387Y-83728375D01*
X128778425Y-83916413D01*
X128999535Y-84064154D01*
X129177332Y-84137800D01*
X128999535Y-84211446D01*
X128778425Y-84359187D01*
X128590387Y-84547225D01*
X128442646Y-84768335D01*
X128340880Y-85014020D01*
X128289000Y-85274837D01*
X128289000Y-85540763D01*
X128340880Y-85801580D01*
X128442646Y-86047265D01*
X128590387Y-86268375D01*
X128778425Y-86456413D01*
X128999535Y-86604154D01*
X129177332Y-86677800D01*
X128999535Y-86751446D01*
X128862814Y-86842800D01*
X127318201Y-86842800D01*
X127227613Y-86707225D01*
X127039575Y-86519187D01*
X126818465Y-86371446D01*
X126640668Y-86297800D01*
X126818465Y-86224154D01*
X127039575Y-86076413D01*
X127227613Y-85888375D01*
X127375354Y-85667265D01*
X127477120Y-85421580D01*
X127529000Y-85160763D01*
X127529000Y-84894837D01*
X127477120Y-84634020D01*
X127375354Y-84388335D01*
X127227613Y-84167225D01*
X127039575Y-83979187D01*
X126818465Y-83831446D01*
X126572780Y-83729680D01*
X126362236Y-83687800D01*
X126679002Y-83687800D01*
X126679002Y-83478697D01*
X126843498Y-83487049D01*
X127025674Y-83338212D01*
X127175313Y-83156694D01*
X127178223Y-83152294D01*
X127158796Y-82987800D01*
X126679000Y-82987800D01*
X126679000Y-83007800D01*
X125679000Y-83007800D01*
X125679000Y-82987800D01*
X125199204Y-82987800D01*
X125179777Y-83152294D01*
X125182687Y-83156694D01*
X125332326Y-83338212D01*
X125514502Y-83487049D01*
X125678998Y-83478697D01*
X125678998Y-83687800D01*
X125995764Y-83687800D01*
X125785220Y-83729680D01*
X125539535Y-83831446D01*
X125318425Y-83979187D01*
X125130387Y-84167225D01*
X124982646Y-84388335D01*
X124880880Y-84634020D01*
X124829000Y-84894837D01*
X124829000Y-85160763D01*
X124880880Y-85421580D01*
X124982646Y-85667265D01*
X125130387Y-85888375D01*
X125318425Y-86076413D01*
X125539535Y-86224154D01*
X125717332Y-86297800D01*
X125539535Y-86371446D01*
X125318425Y-86519187D01*
X125130387Y-86707225D01*
X124982646Y-86928335D01*
X124880880Y-87174020D01*
X124829000Y-87434837D01*
X124829000Y-87700763D01*
X124880880Y-87961580D01*
X124982646Y-88207265D01*
X125130387Y-88428375D01*
X125318425Y-88616413D01*
X125539535Y-88764154D01*
X125717332Y-88837800D01*
X125539535Y-88911446D01*
X125318425Y-89059187D01*
X125130387Y-89247225D01*
X124982646Y-89468335D01*
X124880880Y-89714020D01*
X124829000Y-89974837D01*
X124829000Y-90240763D01*
X124880880Y-90501580D01*
X124982646Y-90747265D01*
X125130387Y-90968375D01*
X125318425Y-91156413D01*
X125539535Y-91304154D01*
X125785220Y-91405920D01*
X125995764Y-91447800D01*
X125678998Y-91447800D01*
X125678998Y-91656903D01*
X125514502Y-91648551D01*
X125332326Y-91797388D01*
X125182687Y-91978906D01*
X125179777Y-91983306D01*
X125199204Y-92147800D01*
X125679000Y-92147800D01*
X125679000Y-92127800D01*
X126679000Y-92127800D01*
X126679000Y-92147800D01*
X127158796Y-92147800D01*
X127178223Y-91983306D01*
X127175313Y-91978906D01*
X127025674Y-91797388D01*
X126843498Y-91648551D01*
X126679002Y-91656903D01*
X126679002Y-91447800D01*
X126362236Y-91447800D01*
X126572780Y-91405920D01*
X126818465Y-91304154D01*
X127039575Y-91156413D01*
X127227613Y-90968375D01*
X127318201Y-90832800D01*
X128331177Y-90832800D01*
X128340880Y-90881580D01*
X128442646Y-91127265D01*
X128590387Y-91348375D01*
X128778425Y-91536413D01*
X128999535Y-91684154D01*
X129177332Y-91757800D01*
X128999535Y-91831446D01*
X128778425Y-91979187D01*
X128590387Y-92167225D01*
X128442646Y-92388335D01*
X128340880Y-92634020D01*
X128289000Y-92894837D01*
X128289000Y-93160763D01*
X128340880Y-93421580D01*
X128442646Y-93667265D01*
X128590387Y-93888375D01*
X128778425Y-94076413D01*
X128999535Y-94224154D01*
X129177332Y-94297800D01*
X128999535Y-94371446D01*
X128778425Y-94519187D01*
X128590387Y-94707225D01*
X128442646Y-94928335D01*
X128340880Y-95174020D01*
X128289000Y-95434837D01*
X128289000Y-95700763D01*
X128296879Y-95740375D01*
X127508554Y-94952050D01*
X127477120Y-94794020D01*
X127375354Y-94548335D01*
X127227613Y-94327225D01*
X127039575Y-94139187D01*
X126818465Y-93991446D01*
X126572780Y-93889680D01*
X126362236Y-93847800D01*
X126679002Y-93847800D01*
X126679002Y-93638697D01*
X126843498Y-93647049D01*
X127025674Y-93498212D01*
X127175313Y-93316694D01*
X127178223Y-93312294D01*
X127158796Y-93147800D01*
X126679000Y-93147800D01*
X126679000Y-93167800D01*
X125679000Y-93167800D01*
X125679000Y-93147800D01*
X125199204Y-93147800D01*
X125179777Y-93312294D01*
X125182687Y-93316694D01*
X125332326Y-93498212D01*
X125514502Y-93647049D01*
X125678998Y-93638697D01*
X125678998Y-93847800D01*
X125995764Y-93847800D01*
X125785220Y-93889680D01*
X125539535Y-93991446D01*
X125318425Y-94139187D01*
X125130387Y-94327225D01*
X124982646Y-94548335D01*
X124880880Y-94794020D01*
X124829000Y-95054837D01*
X124829000Y-95320763D01*
X124880880Y-95581580D01*
X124982646Y-95827265D01*
X125130387Y-96048375D01*
X125318425Y-96236413D01*
X125539535Y-96384154D01*
X125717332Y-96457800D01*
X125539535Y-96531446D01*
X125318425Y-96679187D01*
X125130387Y-96867225D01*
X124982646Y-97088335D01*
X124880880Y-97334020D01*
X124829000Y-97594837D01*
X124829000Y-97860763D01*
X124880880Y-98121580D01*
X124982646Y-98367265D01*
X125130387Y-98588375D01*
X125318425Y-98776413D01*
X125526043Y-98915139D01*
X125379000Y-98915139D01*
X125271181Y-98925758D01*
X125167506Y-98957208D01*
X125071958Y-99008279D01*
X124988210Y-99077010D01*
X124919479Y-99160758D01*
X124868408Y-99256306D01*
X124836958Y-99359981D01*
X124826339Y-99467800D01*
X124826339Y-101067800D01*
X124836958Y-101175619D01*
X124868408Y-101279294D01*
X124919479Y-101374842D01*
X124988210Y-101458590D01*
X125071958Y-101527321D01*
X125167506Y-101578392D01*
X125271181Y-101609842D01*
X125379000Y-101620461D01*
X126979000Y-101620461D01*
X127086819Y-101609842D01*
X127190494Y-101578392D01*
X127286042Y-101527321D01*
X127369790Y-101458590D01*
X127438521Y-101374842D01*
X127489592Y-101279294D01*
X127521042Y-101175619D01*
X127531661Y-101067800D01*
X127531661Y-100105766D01*
X128286339Y-100860444D01*
X128286339Y-101447800D01*
X128296958Y-101555619D01*
X128328408Y-101659294D01*
X128379479Y-101754842D01*
X128448210Y-101838590D01*
X128531958Y-101907321D01*
X128627506Y-101958392D01*
X128731181Y-101989842D01*
X128839000Y-102000461D01*
X130439000Y-102000461D01*
X130546819Y-101989842D01*
X130650494Y-101958392D01*
X130746042Y-101907321D01*
X130829790Y-101838590D01*
X130898521Y-101754842D01*
X130949592Y-101659294D01*
X130981042Y-101555619D01*
X130991661Y-101447800D01*
X130991661Y-101372800D01*
X131523403Y-101372800D01*
X131559000Y-101376306D01*
X131594597Y-101372800D01*
X131594607Y-101372800D01*
X131701125Y-101362309D01*
X131837788Y-101320853D01*
X131963737Y-101253531D01*
X132074132Y-101162932D01*
X132096832Y-101135272D01*
X136621644Y-96610461D01*
X137519000Y-96610461D01*
X137626819Y-96599842D01*
X137730494Y-96568392D01*
X137826042Y-96517321D01*
X137875000Y-96477141D01*
X137875001Y-111947109D01*
X137778776Y-111803098D01*
X137597702Y-111622024D01*
X137495812Y-111553944D01*
X137494000Y-111535543D01*
X137494000Y-111535533D01*
X137483509Y-111429015D01*
X137442053Y-111292352D01*
X137374731Y-111166403D01*
X137306830Y-111083665D01*
X137306823Y-111083658D01*
X137284131Y-111056008D01*
X137256482Y-111033317D01*
X133487491Y-107264327D01*
X133464791Y-107236667D01*
X133354396Y-107146068D01*
X133228447Y-107078746D01*
X133091784Y-107037290D01*
X132985266Y-107026799D01*
X132985256Y-107026799D01*
X132949659Y-107023293D01*
X132914062Y-107026799D01*
X130989000Y-107026799D01*
X130989000Y-106818837D01*
X130937120Y-106558020D01*
X130835354Y-106312335D01*
X130687613Y-106091225D01*
X130499575Y-105903187D01*
X130278465Y-105755446D01*
X130032780Y-105653680D01*
X129771963Y-105601800D01*
X129506037Y-105601800D01*
X129245220Y-105653680D01*
X128999535Y-105755446D01*
X128778425Y-105903187D01*
X128590387Y-106091225D01*
X128442646Y-106312335D01*
X128340880Y-106558020D01*
X128289000Y-106818837D01*
X128289000Y-107084763D01*
X128340880Y-107345580D01*
X128442646Y-107591265D01*
X128590387Y-107812375D01*
X128778425Y-108000413D01*
X128999535Y-108148154D01*
X129177332Y-108221800D01*
X128999535Y-108295446D01*
X128778425Y-108443187D01*
X128590387Y-108631225D01*
X128442646Y-108852335D01*
X128340880Y-109098020D01*
X128289000Y-109358837D01*
X128289000Y-109624763D01*
X128320811Y-109784685D01*
X128133695Y-109971801D01*
X127453833Y-109971801D01*
X127477120Y-109915580D01*
X127529000Y-109654763D01*
X127529000Y-109388837D01*
X127477120Y-109128020D01*
X127375354Y-108882335D01*
X127227613Y-108661225D01*
X127039575Y-108473187D01*
X126818465Y-108325446D01*
X126572780Y-108223680D01*
X126362236Y-108181800D01*
X126679002Y-108181800D01*
X126679002Y-107972697D01*
X126843498Y-107981049D01*
X127025674Y-107832212D01*
X127175313Y-107650694D01*
X127178223Y-107646294D01*
X127158796Y-107481800D01*
X126679000Y-107481800D01*
X126679000Y-107501800D01*
X125679000Y-107501800D01*
X125679000Y-107481800D01*
X125199204Y-107481800D01*
X125195518Y-107513013D01*
X123999811Y-106317306D01*
X125179777Y-106317306D01*
X125199204Y-106481800D01*
X125679000Y-106481800D01*
X125679000Y-105990903D01*
X126679000Y-105990903D01*
X126679000Y-106481800D01*
X127158796Y-106481800D01*
X127178223Y-106317306D01*
X127175313Y-106312906D01*
X127025674Y-106131388D01*
X126843498Y-105982551D01*
X126679000Y-105990903D01*
X125679000Y-105990903D01*
X125514502Y-105982551D01*
X125332326Y-106131388D01*
X125182687Y-106312906D01*
X125179777Y-106317306D01*
X123999811Y-106317306D01*
X123136000Y-105453496D01*
X123136000Y-82156104D01*
X123468798Y-81823306D01*
X125179777Y-81823306D01*
X125199204Y-81987800D01*
X125679000Y-81987800D01*
X125679000Y-81496903D01*
X126679000Y-81496903D01*
X126679000Y-81987800D01*
X127158796Y-81987800D01*
X127178223Y-81823306D01*
X127175313Y-81818906D01*
X127025674Y-81637388D01*
X126843498Y-81488551D01*
X126679000Y-81496903D01*
X125679000Y-81496903D01*
X125514502Y-81488551D01*
X125332326Y-81637388D01*
X125182687Y-81818906D01*
X125179777Y-81823306D01*
X123468798Y-81823306D01*
X129109881Y-76182224D01*
X129137530Y-76159533D01*
X129160222Y-76131883D01*
X129160229Y-76131876D01*
X129228130Y-76049138D01*
X129295452Y-75923189D01*
X129299413Y-75910132D01*
X129336908Y-75786526D01*
X129347399Y-75680008D01*
X129347399Y-75679998D01*
X129350905Y-75644401D01*
X129347399Y-75608804D01*
X129347399Y-75281836D01*
X129361000Y-75280497D01*
X129361000Y-74729800D01*
X130361000Y-74729800D01*
X130361000Y-75280497D01*
X130536381Y-75297763D01*
X130589233Y-75262476D01*
X130776705Y-75100562D01*
X130928987Y-74905185D01*
X131333013Y-74905185D01*
X131485295Y-75100562D01*
X131672767Y-75262476D01*
X131725619Y-75297763D01*
X131901000Y-75280497D01*
X131901000Y-74729800D01*
X131340508Y-74729800D01*
X131333013Y-74905185D01*
X130928987Y-74905185D01*
X130921492Y-74729800D01*
X130361000Y-74729800D01*
X129361000Y-74729800D01*
X129347399Y-74729800D01*
X129347399Y-73729800D01*
X129361000Y-73729800D01*
X129361000Y-73709800D01*
X130361000Y-73709800D01*
X130361000Y-73729800D01*
X130921492Y-73729800D01*
X130928987Y-73554415D01*
X131333013Y-73554415D01*
X131340508Y-73729800D01*
X131901000Y-73729800D01*
X131901000Y-73179103D01*
X131725619Y-73161837D01*
X131672767Y-73197124D01*
X131485295Y-73359038D01*
X131333013Y-73554415D01*
X130928987Y-73554415D01*
X130776705Y-73359038D01*
X130589233Y-73197124D01*
X130536381Y-73161837D01*
X130361002Y-73179103D01*
X130361002Y-73012762D01*
X130530591Y-72942516D01*
X130762118Y-72787815D01*
X130959015Y-72590918D01*
X131113716Y-72359391D01*
X131183962Y-72189802D01*
X131340508Y-72189802D01*
X131333013Y-72365185D01*
X131485295Y-72560562D01*
X131672767Y-72722476D01*
X131725619Y-72757763D01*
X131901000Y-72740497D01*
X131901000Y-72189800D01*
X131881000Y-72189800D01*
X131881000Y-71189800D01*
X131901000Y-71189800D01*
X131901000Y-70639103D01*
X131725619Y-70621837D01*
X131672767Y-70657124D01*
X131485295Y-70819038D01*
X131333013Y-71014415D01*
X131340508Y-71189798D01*
X131183962Y-71189798D01*
X131113716Y-71020209D01*
X130959015Y-70788682D01*
X130762118Y-70591785D01*
X130530591Y-70437084D01*
X130273332Y-70330524D01*
X130000227Y-70276200D01*
X129721773Y-70276200D01*
X129514028Y-70317523D01*
X129144304Y-69947800D01*
X132581837Y-69947800D01*
X133641000Y-71006964D01*
G36*
X102315172Y-85137277D02*
G01*
X102337868Y-85164932D01*
X102365523Y-85187628D01*
X102365525Y-85187630D01*
X102438843Y-85247800D01*
X102448263Y-85255531D01*
X102495083Y-85280557D01*
X102759798Y-85545272D01*
X102782498Y-85572932D01*
X102892893Y-85663531D01*
X103018842Y-85730853D01*
X103155505Y-85772309D01*
X103262023Y-85782800D01*
X103262032Y-85782800D01*
X103291755Y-85785727D01*
X103380387Y-85918375D01*
X103568425Y-86106413D01*
X103789535Y-86254154D01*
X103967332Y-86327800D01*
X103789535Y-86401446D01*
X103568425Y-86549187D01*
X103380387Y-86737225D01*
X103232646Y-86958335D01*
X103130880Y-87204020D01*
X103079000Y-87464837D01*
X103079000Y-87730763D01*
X103130880Y-87991580D01*
X103232646Y-88237265D01*
X103380387Y-88458375D01*
X103568425Y-88646413D01*
X103789535Y-88794154D01*
X103967332Y-88867800D01*
X103789535Y-88941446D01*
X103568425Y-89089187D01*
X103380387Y-89277225D01*
X103232646Y-89498335D01*
X103130880Y-89744020D01*
X103079000Y-90004837D01*
X103079000Y-90270763D01*
X103130880Y-90531580D01*
X103232646Y-90777265D01*
X103380387Y-90998375D01*
X103568425Y-91186413D01*
X103789535Y-91334154D01*
X104035220Y-91435920D01*
X104245764Y-91477800D01*
X103928998Y-91477800D01*
X103928998Y-91686903D01*
X103764502Y-91678551D01*
X103582326Y-91827388D01*
X103432687Y-92008906D01*
X103429777Y-92013306D01*
X103449204Y-92177800D01*
X103929000Y-92177800D01*
X103929000Y-92157800D01*
X104929000Y-92157800D01*
X104929000Y-92177800D01*
X105408796Y-92177800D01*
X105428223Y-92013306D01*
X105425313Y-92008906D01*
X105275674Y-91827388D01*
X105093498Y-91678551D01*
X104929002Y-91686903D01*
X104929002Y-91477800D01*
X104612236Y-91477800D01*
X104822780Y-91435920D01*
X105068465Y-91334154D01*
X105289575Y-91186413D01*
X105477613Y-90998375D01*
X105625354Y-90777265D01*
X105727120Y-90531580D01*
X105779000Y-90270763D01*
X105779000Y-90004837D01*
X105727120Y-89744020D01*
X105625354Y-89498335D01*
X105477613Y-89277225D01*
X105289575Y-89089187D01*
X105068465Y-88941446D01*
X104890668Y-88867800D01*
X105068465Y-88794154D01*
X105289575Y-88646413D01*
X105477613Y-88458375D01*
X105625354Y-88237265D01*
X105727120Y-87991580D01*
X105779000Y-87730763D01*
X105779000Y-87464837D01*
X105752676Y-87332495D01*
X105853205Y-87332495D01*
X105875339Y-87567836D01*
X105877409Y-87578242D01*
X106008020Y-87681673D01*
X106351893Y-87337800D01*
X106008020Y-86993927D01*
X105877409Y-87097358D01*
X105853205Y-87332495D01*
X105752676Y-87332495D01*
X105727120Y-87204020D01*
X105625354Y-86958335D01*
X105477613Y-86737225D01*
X105289575Y-86549187D01*
X105068465Y-86401446D01*
X104890668Y-86327800D01*
X105068465Y-86254154D01*
X105289575Y-86106413D01*
X105477613Y-85918375D01*
X105625354Y-85697265D01*
X105727120Y-85451580D01*
X105779000Y-85190763D01*
X105779000Y-84924837D01*
X105727120Y-84664020D01*
X105625354Y-84418335D01*
X105477613Y-84197225D01*
X105289575Y-84009187D01*
X105068465Y-83861446D01*
X104963094Y-83817800D01*
X106700523Y-83817800D01*
X107903000Y-85020278D01*
X107903001Y-86478243D01*
X107557224Y-86132466D01*
X107402872Y-86286819D01*
X107299442Y-86156209D01*
X107064305Y-86132005D01*
X106828964Y-86154139D01*
X106818558Y-86156209D01*
X106715127Y-86286820D01*
X107059000Y-86630693D01*
X107073142Y-86616551D01*
X107780249Y-87323658D01*
X107766107Y-87337800D01*
X107780249Y-87351942D01*
X107073142Y-88059049D01*
X107059000Y-88044907D01*
X106715127Y-88388780D01*
X106818558Y-88519391D01*
X107053695Y-88543595D01*
X107289036Y-88521461D01*
X107299442Y-88519391D01*
X107402872Y-88388781D01*
X107557224Y-88543134D01*
X107903001Y-88197357D01*
X107903001Y-88683321D01*
X106244926Y-90341397D01*
X106195313Y-90382113D01*
X106032860Y-90580065D01*
X105912145Y-90805905D01*
X105837810Y-91050956D01*
X105821258Y-91219012D01*
X105812710Y-91305800D01*
X105819000Y-91369661D01*
X105819001Y-103783321D01*
X104429000Y-105173323D01*
X102335403Y-103079726D01*
X102294687Y-103030113D01*
X102096736Y-102867660D01*
X101870896Y-102746945D01*
X101625845Y-102672610D01*
X101434864Y-102653800D01*
X101434861Y-102653800D01*
X101371000Y-102647510D01*
X101307139Y-102653800D01*
X88913478Y-102653800D01*
X84087000Y-97827323D01*
X84087000Y-95269278D01*
X84190298Y-95372576D01*
X84403219Y-95514845D01*
X84566286Y-95582390D01*
X90039172Y-101055277D01*
X90061868Y-101082932D01*
X90089523Y-101105628D01*
X90089525Y-101105630D01*
X90132088Y-101140560D01*
X90172263Y-101173531D01*
X90298212Y-101240853D01*
X90434875Y-101282309D01*
X90541393Y-101292800D01*
X90541403Y-101292800D01*
X90577000Y-101296306D01*
X90612597Y-101292800D01*
X91849799Y-101292800D01*
X91940387Y-101428375D01*
X92128425Y-101616413D01*
X92349535Y-101764154D01*
X92595220Y-101865920D01*
X92856037Y-101917800D01*
X93121963Y-101917800D01*
X93382780Y-101865920D01*
X93628465Y-101764154D01*
X93849575Y-101616413D01*
X94037613Y-101428375D01*
X94185354Y-101207265D01*
X94286824Y-100962294D01*
X95809777Y-100962294D01*
X95812687Y-100966694D01*
X95962326Y-101148212D01*
X96144502Y-101297049D01*
X96309000Y-101288697D01*
X96309000Y-100797800D01*
X97309000Y-100797800D01*
X97309000Y-101288697D01*
X97473498Y-101297049D01*
X97655674Y-101148212D01*
X97805313Y-100966694D01*
X97808223Y-100962294D01*
X97788796Y-100797800D01*
X97309000Y-100797800D01*
X96309000Y-100797800D01*
X95829204Y-100797800D01*
X95809777Y-100962294D01*
X94286824Y-100962294D01*
X94287120Y-100961580D01*
X94339000Y-100700763D01*
X94339000Y-100434837D01*
X94287120Y-100174020D01*
X94185354Y-99928335D01*
X94037613Y-99707225D01*
X93849575Y-99519187D01*
X93628465Y-99371446D01*
X93450668Y-99297800D01*
X93628465Y-99224154D01*
X93849575Y-99076413D01*
X94037613Y-98888375D01*
X94185354Y-98667265D01*
X94287120Y-98421580D01*
X94339000Y-98160763D01*
X94339000Y-97894837D01*
X94287120Y-97634020D01*
X94185354Y-97388335D01*
X94037613Y-97167225D01*
X93849575Y-96979187D01*
X93628465Y-96831446D01*
X93450668Y-96757800D01*
X93628465Y-96684154D01*
X93849575Y-96536413D01*
X94037613Y-96348375D01*
X94128201Y-96212800D01*
X95894812Y-96212800D01*
X95948425Y-96266413D01*
X96169535Y-96414154D01*
X96347332Y-96487800D01*
X96169535Y-96561446D01*
X95948425Y-96709187D01*
X95760387Y-96897225D01*
X95612646Y-97118335D01*
X95510880Y-97364020D01*
X95459000Y-97624837D01*
X95459000Y-97890763D01*
X95510880Y-98151580D01*
X95612646Y-98397265D01*
X95760387Y-98618375D01*
X95948425Y-98806413D01*
X96169535Y-98954154D01*
X96415220Y-99055920D01*
X96625764Y-99097800D01*
X96308998Y-99097800D01*
X96308998Y-99306903D01*
X96144502Y-99298551D01*
X95962326Y-99447388D01*
X95812687Y-99628906D01*
X95809777Y-99633306D01*
X95829204Y-99797800D01*
X96309000Y-99797800D01*
X96309000Y-99777800D01*
X97309000Y-99777800D01*
X97309000Y-99797800D01*
X97788796Y-99797800D01*
X97808223Y-99633306D01*
X97805313Y-99628906D01*
X97655674Y-99447388D01*
X97473498Y-99298551D01*
X97309002Y-99306903D01*
X97309002Y-99097800D01*
X96992236Y-99097800D01*
X97202780Y-99055920D01*
X97448465Y-98954154D01*
X97669575Y-98806413D01*
X97857613Y-98618375D01*
X98005354Y-98397265D01*
X98107120Y-98151580D01*
X98159000Y-97890763D01*
X98159000Y-97624837D01*
X98127189Y-97464915D01*
X99385847Y-96206258D01*
X99385947Y-96206587D01*
X99453269Y-96332536D01*
X99521170Y-96415274D01*
X99521173Y-96415277D01*
X99543869Y-96442932D01*
X99571523Y-96465627D01*
X103110811Y-100004916D01*
X103079000Y-100164837D01*
X103079000Y-100430763D01*
X103130880Y-100691580D01*
X103232646Y-100937265D01*
X103380387Y-101158375D01*
X103568425Y-101346413D01*
X103789535Y-101494154D01*
X104035220Y-101595920D01*
X104296037Y-101647800D01*
X104561963Y-101647800D01*
X104822780Y-101595920D01*
X105068465Y-101494154D01*
X105289575Y-101346413D01*
X105477613Y-101158375D01*
X105625354Y-100937265D01*
X105727120Y-100691580D01*
X105779000Y-100430763D01*
X105779000Y-100164837D01*
X105727120Y-99904020D01*
X105625354Y-99658335D01*
X105477613Y-99437225D01*
X105289575Y-99249187D01*
X105068465Y-99101446D01*
X104890668Y-99027800D01*
X105068465Y-98954154D01*
X105289575Y-98806413D01*
X105477613Y-98618375D01*
X105625354Y-98397265D01*
X105727120Y-98151580D01*
X105779000Y-97890763D01*
X105779000Y-97624837D01*
X105727120Y-97364020D01*
X105625354Y-97118335D01*
X105477613Y-96897225D01*
X105289575Y-96709187D01*
X105068465Y-96561446D01*
X104890668Y-96487800D01*
X105068465Y-96414154D01*
X105289575Y-96266413D01*
X105477613Y-96078375D01*
X105625354Y-95857265D01*
X105727120Y-95611580D01*
X105779000Y-95350763D01*
X105779000Y-95084837D01*
X105727120Y-94824020D01*
X105625354Y-94578335D01*
X105477613Y-94357225D01*
X105289575Y-94169187D01*
X105068465Y-94021446D01*
X104822780Y-93919680D01*
X104612236Y-93877800D01*
X104929002Y-93877800D01*
X104929002Y-93668697D01*
X105093498Y-93677049D01*
X105275674Y-93528212D01*
X105425313Y-93346694D01*
X105428223Y-93342294D01*
X105408796Y-93177800D01*
X104929000Y-93177800D01*
X104929000Y-93197800D01*
X103929000Y-93197800D01*
X103929000Y-93177800D01*
X103449204Y-93177800D01*
X103429777Y-93342294D01*
X103432687Y-93346694D01*
X103582326Y-93528212D01*
X103764502Y-93677049D01*
X103928998Y-93668697D01*
X103928998Y-93877800D01*
X104245764Y-93877800D01*
X104035220Y-93919680D01*
X103789535Y-94021446D01*
X103568425Y-94169187D01*
X103380387Y-94357225D01*
X103232646Y-94578335D01*
X103130880Y-94824020D01*
X103079000Y-95084837D01*
X103079000Y-95350763D01*
X103130880Y-95611580D01*
X103232646Y-95857265D01*
X103380387Y-96078375D01*
X103568425Y-96266413D01*
X103789535Y-96414154D01*
X103967332Y-96487800D01*
X103789535Y-96561446D01*
X103568425Y-96709187D01*
X103380387Y-96897225D01*
X103232646Y-97118335D01*
X103130880Y-97364020D01*
X103079000Y-97624837D01*
X103079000Y-97890763D01*
X103086879Y-97930375D01*
X100784000Y-95627496D01*
X100784000Y-83606104D01*
X102315172Y-85137277D01*
G37*
X102315172Y-85137277D02*
X102337868Y-85164932D01*
X102365523Y-85187628D01*
X102365525Y-85187630D01*
X102438843Y-85247800D01*
X102448263Y-85255531D01*
X102495083Y-85280557D01*
X102759798Y-85545272D01*
X102782498Y-85572932D01*
X102892893Y-85663531D01*
X103018842Y-85730853D01*
X103155505Y-85772309D01*
X103262023Y-85782800D01*
X103262032Y-85782800D01*
X103291755Y-85785727D01*
X103380387Y-85918375D01*
X103568425Y-86106413D01*
X103789535Y-86254154D01*
X103967332Y-86327800D01*
X103789535Y-86401446D01*
X103568425Y-86549187D01*
X103380387Y-86737225D01*
X103232646Y-86958335D01*
X103130880Y-87204020D01*
X103079000Y-87464837D01*
X103079000Y-87730763D01*
X103130880Y-87991580D01*
X103232646Y-88237265D01*
X103380387Y-88458375D01*
X103568425Y-88646413D01*
X103789535Y-88794154D01*
X103967332Y-88867800D01*
X103789535Y-88941446D01*
X103568425Y-89089187D01*
X103380387Y-89277225D01*
X103232646Y-89498335D01*
X103130880Y-89744020D01*
X103079000Y-90004837D01*
X103079000Y-90270763D01*
X103130880Y-90531580D01*
X103232646Y-90777265D01*
X103380387Y-90998375D01*
X103568425Y-91186413D01*
X103789535Y-91334154D01*
X104035220Y-91435920D01*
X104245764Y-91477800D01*
X103928998Y-91477800D01*
X103928998Y-91686903D01*
X103764502Y-91678551D01*
X103582326Y-91827388D01*
X103432687Y-92008906D01*
X103429777Y-92013306D01*
X103449204Y-92177800D01*
X103929000Y-92177800D01*
X103929000Y-92157800D01*
X104929000Y-92157800D01*
X104929000Y-92177800D01*
X105408796Y-92177800D01*
X105428223Y-92013306D01*
X105425313Y-92008906D01*
X105275674Y-91827388D01*
X105093498Y-91678551D01*
X104929002Y-91686903D01*
X104929002Y-91477800D01*
X104612236Y-91477800D01*
X104822780Y-91435920D01*
X105068465Y-91334154D01*
X105289575Y-91186413D01*
X105477613Y-90998375D01*
X105625354Y-90777265D01*
X105727120Y-90531580D01*
X105779000Y-90270763D01*
X105779000Y-90004837D01*
X105727120Y-89744020D01*
X105625354Y-89498335D01*
X105477613Y-89277225D01*
X105289575Y-89089187D01*
X105068465Y-88941446D01*
X104890668Y-88867800D01*
X105068465Y-88794154D01*
X105289575Y-88646413D01*
X105477613Y-88458375D01*
X105625354Y-88237265D01*
X105727120Y-87991580D01*
X105779000Y-87730763D01*
X105779000Y-87464837D01*
X105752676Y-87332495D01*
X105853205Y-87332495D01*
X105875339Y-87567836D01*
X105877409Y-87578242D01*
X106008020Y-87681673D01*
X106351893Y-87337800D01*
X106008020Y-86993927D01*
X105877409Y-87097358D01*
X105853205Y-87332495D01*
X105752676Y-87332495D01*
X105727120Y-87204020D01*
X105625354Y-86958335D01*
X105477613Y-86737225D01*
X105289575Y-86549187D01*
X105068465Y-86401446D01*
X104890668Y-86327800D01*
X105068465Y-86254154D01*
X105289575Y-86106413D01*
X105477613Y-85918375D01*
X105625354Y-85697265D01*
X105727120Y-85451580D01*
X105779000Y-85190763D01*
X105779000Y-84924837D01*
X105727120Y-84664020D01*
X105625354Y-84418335D01*
X105477613Y-84197225D01*
X105289575Y-84009187D01*
X105068465Y-83861446D01*
X104963094Y-83817800D01*
X106700523Y-83817800D01*
X107903000Y-85020278D01*
X107903001Y-86478243D01*
X107557224Y-86132466D01*
X107402872Y-86286819D01*
X107299442Y-86156209D01*
X107064305Y-86132005D01*
X106828964Y-86154139D01*
X106818558Y-86156209D01*
X106715127Y-86286820D01*
X107059000Y-86630693D01*
X107073142Y-86616551D01*
X107780249Y-87323658D01*
X107766107Y-87337800D01*
X107780249Y-87351942D01*
X107073142Y-88059049D01*
X107059000Y-88044907D01*
X106715127Y-88388780D01*
X106818558Y-88519391D01*
X107053695Y-88543595D01*
X107289036Y-88521461D01*
X107299442Y-88519391D01*
X107402872Y-88388781D01*
X107557224Y-88543134D01*
X107903001Y-88197357D01*
X107903001Y-88683321D01*
X106244926Y-90341397D01*
X106195313Y-90382113D01*
X106032860Y-90580065D01*
X105912145Y-90805905D01*
X105837810Y-91050956D01*
X105821258Y-91219012D01*
X105812710Y-91305800D01*
X105819000Y-91369661D01*
X105819001Y-103783321D01*
X104429000Y-105173323D01*
X102335403Y-103079726D01*
X102294687Y-103030113D01*
X102096736Y-102867660D01*
X101870896Y-102746945D01*
X101625845Y-102672610D01*
X101434864Y-102653800D01*
X101434861Y-102653800D01*
X101371000Y-102647510D01*
X101307139Y-102653800D01*
X88913478Y-102653800D01*
X84087000Y-97827323D01*
X84087000Y-95269278D01*
X84190298Y-95372576D01*
X84403219Y-95514845D01*
X84566286Y-95582390D01*
X90039172Y-101055277D01*
X90061868Y-101082932D01*
X90089523Y-101105628D01*
X90089525Y-101105630D01*
X90132088Y-101140560D01*
X90172263Y-101173531D01*
X90298212Y-101240853D01*
X90434875Y-101282309D01*
X90541393Y-101292800D01*
X90541403Y-101292800D01*
X90577000Y-101296306D01*
X90612597Y-101292800D01*
X91849799Y-101292800D01*
X91940387Y-101428375D01*
X92128425Y-101616413D01*
X92349535Y-101764154D01*
X92595220Y-101865920D01*
X92856037Y-101917800D01*
X93121963Y-101917800D01*
X93382780Y-101865920D01*
X93628465Y-101764154D01*
X93849575Y-101616413D01*
X94037613Y-101428375D01*
X94185354Y-101207265D01*
X94286824Y-100962294D01*
X95809777Y-100962294D01*
X95812687Y-100966694D01*
X95962326Y-101148212D01*
X96144502Y-101297049D01*
X96309000Y-101288697D01*
X96309000Y-100797800D01*
X97309000Y-100797800D01*
X97309000Y-101288697D01*
X97473498Y-101297049D01*
X97655674Y-101148212D01*
X97805313Y-100966694D01*
X97808223Y-100962294D01*
X97788796Y-100797800D01*
X97309000Y-100797800D01*
X96309000Y-100797800D01*
X95829204Y-100797800D01*
X95809777Y-100962294D01*
X94286824Y-100962294D01*
X94287120Y-100961580D01*
X94339000Y-100700763D01*
X94339000Y-100434837D01*
X94287120Y-100174020D01*
X94185354Y-99928335D01*
X94037613Y-99707225D01*
X93849575Y-99519187D01*
X93628465Y-99371446D01*
X93450668Y-99297800D01*
X93628465Y-99224154D01*
X93849575Y-99076413D01*
X94037613Y-98888375D01*
X94185354Y-98667265D01*
X94287120Y-98421580D01*
X94339000Y-98160763D01*
X94339000Y-97894837D01*
X94287120Y-97634020D01*
X94185354Y-97388335D01*
X94037613Y-97167225D01*
X93849575Y-96979187D01*
X93628465Y-96831446D01*
X93450668Y-96757800D01*
X93628465Y-96684154D01*
X93849575Y-96536413D01*
X94037613Y-96348375D01*
X94128201Y-96212800D01*
X95894812Y-96212800D01*
X95948425Y-96266413D01*
X96169535Y-96414154D01*
X96347332Y-96487800D01*
X96169535Y-96561446D01*
X95948425Y-96709187D01*
X95760387Y-96897225D01*
X95612646Y-97118335D01*
X95510880Y-97364020D01*
X95459000Y-97624837D01*
X95459000Y-97890763D01*
X95510880Y-98151580D01*
X95612646Y-98397265D01*
X95760387Y-98618375D01*
X95948425Y-98806413D01*
X96169535Y-98954154D01*
X96415220Y-99055920D01*
X96625764Y-99097800D01*
X96308998Y-99097800D01*
X96308998Y-99306903D01*
X96144502Y-99298551D01*
X95962326Y-99447388D01*
X95812687Y-99628906D01*
X95809777Y-99633306D01*
X95829204Y-99797800D01*
X96309000Y-99797800D01*
X96309000Y-99777800D01*
X97309000Y-99777800D01*
X97309000Y-99797800D01*
X97788796Y-99797800D01*
X97808223Y-99633306D01*
X97805313Y-99628906D01*
X97655674Y-99447388D01*
X97473498Y-99298551D01*
X97309002Y-99306903D01*
X97309002Y-99097800D01*
X96992236Y-99097800D01*
X97202780Y-99055920D01*
X97448465Y-98954154D01*
X97669575Y-98806413D01*
X97857613Y-98618375D01*
X98005354Y-98397265D01*
X98107120Y-98151580D01*
X98159000Y-97890763D01*
X98159000Y-97624837D01*
X98127189Y-97464915D01*
X99385847Y-96206258D01*
X99385947Y-96206587D01*
X99453269Y-96332536D01*
X99521170Y-96415274D01*
X99521173Y-96415277D01*
X99543869Y-96442932D01*
X99571523Y-96465627D01*
X103110811Y-100004916D01*
X103079000Y-100164837D01*
X103079000Y-100430763D01*
X103130880Y-100691580D01*
X103232646Y-100937265D01*
X103380387Y-101158375D01*
X103568425Y-101346413D01*
X103789535Y-101494154D01*
X104035220Y-101595920D01*
X104296037Y-101647800D01*
X104561963Y-101647800D01*
X104822780Y-101595920D01*
X105068465Y-101494154D01*
X105289575Y-101346413D01*
X105477613Y-101158375D01*
X105625354Y-100937265D01*
X105727120Y-100691580D01*
X105779000Y-100430763D01*
X105779000Y-100164837D01*
X105727120Y-99904020D01*
X105625354Y-99658335D01*
X105477613Y-99437225D01*
X105289575Y-99249187D01*
X105068465Y-99101446D01*
X104890668Y-99027800D01*
X105068465Y-98954154D01*
X105289575Y-98806413D01*
X105477613Y-98618375D01*
X105625354Y-98397265D01*
X105727120Y-98151580D01*
X105779000Y-97890763D01*
X105779000Y-97624837D01*
X105727120Y-97364020D01*
X105625354Y-97118335D01*
X105477613Y-96897225D01*
X105289575Y-96709187D01*
X105068465Y-96561446D01*
X104890668Y-96487800D01*
X105068465Y-96414154D01*
X105289575Y-96266413D01*
X105477613Y-96078375D01*
X105625354Y-95857265D01*
X105727120Y-95611580D01*
X105779000Y-95350763D01*
X105779000Y-95084837D01*
X105727120Y-94824020D01*
X105625354Y-94578335D01*
X105477613Y-94357225D01*
X105289575Y-94169187D01*
X105068465Y-94021446D01*
X104822780Y-93919680D01*
X104612236Y-93877800D01*
X104929002Y-93877800D01*
X104929002Y-93668697D01*
X105093498Y-93677049D01*
X105275674Y-93528212D01*
X105425313Y-93346694D01*
X105428223Y-93342294D01*
X105408796Y-93177800D01*
X104929000Y-93177800D01*
X104929000Y-93197800D01*
X103929000Y-93197800D01*
X103929000Y-93177800D01*
X103449204Y-93177800D01*
X103429777Y-93342294D01*
X103432687Y-93346694D01*
X103582326Y-93528212D01*
X103764502Y-93677049D01*
X103928998Y-93668697D01*
X103928998Y-93877800D01*
X104245764Y-93877800D01*
X104035220Y-93919680D01*
X103789535Y-94021446D01*
X103568425Y-94169187D01*
X103380387Y-94357225D01*
X103232646Y-94578335D01*
X103130880Y-94824020D01*
X103079000Y-95084837D01*
X103079000Y-95350763D01*
X103130880Y-95611580D01*
X103232646Y-95857265D01*
X103380387Y-96078375D01*
X103568425Y-96266413D01*
X103789535Y-96414154D01*
X103967332Y-96487800D01*
X103789535Y-96561446D01*
X103568425Y-96709187D01*
X103380387Y-96897225D01*
X103232646Y-97118335D01*
X103130880Y-97364020D01*
X103079000Y-97624837D01*
X103079000Y-97890763D01*
X103086879Y-97930375D01*
X100784000Y-95627496D01*
X100784000Y-83606104D01*
X102315172Y-85137277D01*
G36*
X117661000Y-73729800D02*
G01*
X117674601Y-73729800D01*
X117674601Y-74729800D01*
X117661000Y-74729800D01*
X117661000Y-75280497D01*
X117674601Y-75281836D01*
X117674602Y-79216893D01*
X116589524Y-80301972D01*
X116561868Y-80324669D01*
X116471269Y-80435064D01*
X116403947Y-80561013D01*
X116362491Y-80697676D01*
X116352000Y-80804194D01*
X116352000Y-80804203D01*
X116348494Y-80839800D01*
X116352000Y-80875397D01*
X116352001Y-85420738D01*
X116293410Y-85459887D01*
X116161087Y-85592210D01*
X116057121Y-85747806D01*
X115985508Y-85920695D01*
X115949000Y-86104233D01*
X115949000Y-86291367D01*
X115985508Y-86474905D01*
X116057121Y-86647794D01*
X116161087Y-86803390D01*
X116293410Y-86935713D01*
X116449006Y-87039679D01*
X116621895Y-87111292D01*
X116805433Y-87147800D01*
X116992567Y-87147800D01*
X117176105Y-87111292D01*
X117309801Y-87055913D01*
X117260880Y-87174020D01*
X117209000Y-87434837D01*
X117209000Y-87700763D01*
X117260880Y-87961580D01*
X117362646Y-88207265D01*
X117510387Y-88428375D01*
X117698425Y-88616413D01*
X117919535Y-88764154D01*
X118165220Y-88865920D01*
X118375764Y-88907800D01*
X118058998Y-88907800D01*
X118058998Y-89116903D01*
X117894502Y-89108551D01*
X117712326Y-89257388D01*
X117562687Y-89438906D01*
X117559777Y-89443306D01*
X117579204Y-89607800D01*
X118059000Y-89607800D01*
X118059000Y-89587800D01*
X119059000Y-89587800D01*
X119059000Y-89607800D01*
X119538796Y-89607800D01*
X119558223Y-89443306D01*
X119555313Y-89438906D01*
X119405674Y-89257388D01*
X119223498Y-89108551D01*
X119059002Y-89116903D01*
X119059002Y-88907800D01*
X118742236Y-88907800D01*
X118952780Y-88865920D01*
X119198465Y-88764154D01*
X119419575Y-88616413D01*
X119607613Y-88428375D01*
X119755354Y-88207265D01*
X119857120Y-87961580D01*
X119909000Y-87700763D01*
X119909000Y-87434837D01*
X119857120Y-87174020D01*
X119755354Y-86928335D01*
X119607613Y-86707225D01*
X119419575Y-86519187D01*
X119198465Y-86371446D01*
X119020668Y-86297800D01*
X119198465Y-86224154D01*
X119419575Y-86076413D01*
X119607613Y-85888375D01*
X119755354Y-85667265D01*
X119857120Y-85421580D01*
X119909000Y-85160763D01*
X119909000Y-84894837D01*
X119857120Y-84634020D01*
X119755354Y-84388335D01*
X119607613Y-84167225D01*
X119419575Y-83979187D01*
X119198465Y-83831446D01*
X119020668Y-83757800D01*
X119198465Y-83684154D01*
X119419575Y-83536413D01*
X119607613Y-83348375D01*
X119755354Y-83127265D01*
X119857120Y-82881580D01*
X119909000Y-82620763D01*
X119909000Y-82354837D01*
X119857120Y-82094020D01*
X119755354Y-81848335D01*
X119607613Y-81627225D01*
X119460561Y-81480173D01*
X120134681Y-80806054D01*
X120087914Y-80893547D01*
X120046458Y-81030210D01*
X120035967Y-81136728D01*
X120035967Y-81136737D01*
X120032461Y-81172334D01*
X120035967Y-81207931D01*
X120035968Y-100207695D01*
X119909000Y-100334663D01*
X119909000Y-100134837D01*
X119857120Y-99874020D01*
X119755354Y-99628335D01*
X119607613Y-99407225D01*
X119419575Y-99219187D01*
X119198465Y-99071446D01*
X119020668Y-98997800D01*
X119198465Y-98924154D01*
X119419575Y-98776413D01*
X119607613Y-98588375D01*
X119755354Y-98367265D01*
X119857120Y-98121580D01*
X119909000Y-97860763D01*
X119909000Y-97594837D01*
X119857120Y-97334020D01*
X119755354Y-97088335D01*
X119607613Y-96867225D01*
X119419575Y-96679187D01*
X119198465Y-96531446D01*
X119020668Y-96457800D01*
X119198465Y-96384154D01*
X119419575Y-96236413D01*
X119607613Y-96048375D01*
X119755354Y-95827265D01*
X119857120Y-95581580D01*
X119909000Y-95320763D01*
X119909000Y-95054837D01*
X119857120Y-94794020D01*
X119755354Y-94548335D01*
X119607613Y-94327225D01*
X119419575Y-94139187D01*
X119198465Y-93991446D01*
X119020668Y-93917800D01*
X119198465Y-93844154D01*
X119419575Y-93696413D01*
X119607613Y-93508375D01*
X119755354Y-93287265D01*
X119857120Y-93041580D01*
X119909000Y-92780763D01*
X119909000Y-92514837D01*
X119857120Y-92254020D01*
X119755354Y-92008335D01*
X119607613Y-91787225D01*
X119419575Y-91599187D01*
X119198465Y-91451446D01*
X118952780Y-91349680D01*
X118742236Y-91307800D01*
X119059002Y-91307800D01*
X119059002Y-91098697D01*
X119223498Y-91107049D01*
X119405674Y-90958212D01*
X119555313Y-90776694D01*
X119558223Y-90772294D01*
X119538796Y-90607800D01*
X119059000Y-90607800D01*
X119059000Y-90627800D01*
X118059000Y-90627800D01*
X118059000Y-90607800D01*
X117579204Y-90607800D01*
X117559777Y-90772294D01*
X117562687Y-90776694D01*
X117712326Y-90958212D01*
X117894502Y-91107049D01*
X118058998Y-91098697D01*
X118058998Y-91307800D01*
X118375764Y-91307800D01*
X118165220Y-91349680D01*
X117919535Y-91451446D01*
X117698425Y-91599187D01*
X117510387Y-91787225D01*
X117362646Y-92008335D01*
X117260880Y-92254020D01*
X117209000Y-92514837D01*
X117209000Y-92780763D01*
X117260880Y-93041580D01*
X117362646Y-93287265D01*
X117510387Y-93508375D01*
X117698425Y-93696413D01*
X117919535Y-93844154D01*
X118097332Y-93917800D01*
X117919535Y-93991446D01*
X117698425Y-94139187D01*
X117510387Y-94327225D01*
X117362646Y-94548335D01*
X117260880Y-94794020D01*
X117209000Y-95054837D01*
X117209000Y-95320763D01*
X117260880Y-95581580D01*
X117362646Y-95827265D01*
X117510387Y-96048375D01*
X117698425Y-96236413D01*
X117919535Y-96384154D01*
X118097332Y-96457800D01*
X117919535Y-96531446D01*
X117698425Y-96679187D01*
X117510387Y-96867225D01*
X117419799Y-97002800D01*
X115977305Y-97002800D01*
X115825142Y-96850637D01*
X116029036Y-96831461D01*
X116039442Y-96829391D01*
X116142873Y-96698780D01*
X115799000Y-96354907D01*
X115784858Y-96369049D01*
X115077751Y-95661942D01*
X115091893Y-95647800D01*
X116506107Y-95647800D01*
X116849980Y-95991673D01*
X116980591Y-95888242D01*
X117004795Y-95653105D01*
X116982661Y-95417764D01*
X116980591Y-95407358D01*
X116849980Y-95303927D01*
X116506107Y-95647800D01*
X115091893Y-95647800D01*
X114748020Y-95303927D01*
X114617409Y-95407358D01*
X114595426Y-95620921D01*
X114246000Y-95271496D01*
X114246000Y-94596820D01*
X115455127Y-94596820D01*
X115799000Y-94940693D01*
X116142873Y-94596820D01*
X116039442Y-94466209D01*
X115804305Y-94442005D01*
X115568964Y-94464139D01*
X115558558Y-94466209D01*
X115455127Y-94596820D01*
X114246000Y-94596820D01*
X114246000Y-78092104D01*
X116347083Y-75991022D01*
X116374732Y-75968331D01*
X116397424Y-75940681D01*
X116397431Y-75940674D01*
X116465332Y-75857936D01*
X116532654Y-75731987D01*
X116540531Y-75706019D01*
X116574110Y-75595324D01*
X116584601Y-75488806D01*
X116584601Y-75488797D01*
X116588107Y-75453200D01*
X116584601Y-75417603D01*
X116584601Y-75288018D01*
X116661000Y-75280497D01*
X116661000Y-74729800D01*
X116641000Y-74729800D01*
X116641000Y-73729800D01*
X116661000Y-73729800D01*
X116661000Y-73709800D01*
X117661000Y-73709800D01*
X117661000Y-73729800D01*
G37*
X117661000Y-73729800D02*
X117674601Y-73729800D01*
X117674601Y-74729800D01*
X117661000Y-74729800D01*
X117661000Y-75280497D01*
X117674601Y-75281836D01*
X117674602Y-79216893D01*
X116589524Y-80301972D01*
X116561868Y-80324669D01*
X116471269Y-80435064D01*
X116403947Y-80561013D01*
X116362491Y-80697676D01*
X116352000Y-80804194D01*
X116352000Y-80804203D01*
X116348494Y-80839800D01*
X116352000Y-80875397D01*
X116352001Y-85420738D01*
X116293410Y-85459887D01*
X116161087Y-85592210D01*
X116057121Y-85747806D01*
X115985508Y-85920695D01*
X115949000Y-86104233D01*
X115949000Y-86291367D01*
X115985508Y-86474905D01*
X116057121Y-86647794D01*
X116161087Y-86803390D01*
X116293410Y-86935713D01*
X116449006Y-87039679D01*
X116621895Y-87111292D01*
X116805433Y-87147800D01*
X116992567Y-87147800D01*
X117176105Y-87111292D01*
X117309801Y-87055913D01*
X117260880Y-87174020D01*
X117209000Y-87434837D01*
X117209000Y-87700763D01*
X117260880Y-87961580D01*
X117362646Y-88207265D01*
X117510387Y-88428375D01*
X117698425Y-88616413D01*
X117919535Y-88764154D01*
X118165220Y-88865920D01*
X118375764Y-88907800D01*
X118058998Y-88907800D01*
X118058998Y-89116903D01*
X117894502Y-89108551D01*
X117712326Y-89257388D01*
X117562687Y-89438906D01*
X117559777Y-89443306D01*
X117579204Y-89607800D01*
X118059000Y-89607800D01*
X118059000Y-89587800D01*
X119059000Y-89587800D01*
X119059000Y-89607800D01*
X119538796Y-89607800D01*
X119558223Y-89443306D01*
X119555313Y-89438906D01*
X119405674Y-89257388D01*
X119223498Y-89108551D01*
X119059002Y-89116903D01*
X119059002Y-88907800D01*
X118742236Y-88907800D01*
X118952780Y-88865920D01*
X119198465Y-88764154D01*
X119419575Y-88616413D01*
X119607613Y-88428375D01*
X119755354Y-88207265D01*
X119857120Y-87961580D01*
X119909000Y-87700763D01*
X119909000Y-87434837D01*
X119857120Y-87174020D01*
X119755354Y-86928335D01*
X119607613Y-86707225D01*
X119419575Y-86519187D01*
X119198465Y-86371446D01*
X119020668Y-86297800D01*
X119198465Y-86224154D01*
X119419575Y-86076413D01*
X119607613Y-85888375D01*
X119755354Y-85667265D01*
X119857120Y-85421580D01*
X119909000Y-85160763D01*
X119909000Y-84894837D01*
X119857120Y-84634020D01*
X119755354Y-84388335D01*
X119607613Y-84167225D01*
X119419575Y-83979187D01*
X119198465Y-83831446D01*
X119020668Y-83757800D01*
X119198465Y-83684154D01*
X119419575Y-83536413D01*
X119607613Y-83348375D01*
X119755354Y-83127265D01*
X119857120Y-82881580D01*
X119909000Y-82620763D01*
X119909000Y-82354837D01*
X119857120Y-82094020D01*
X119755354Y-81848335D01*
X119607613Y-81627225D01*
X119460561Y-81480173D01*
X120134681Y-80806054D01*
X120087914Y-80893547D01*
X120046458Y-81030210D01*
X120035967Y-81136728D01*
X120035967Y-81136737D01*
X120032461Y-81172334D01*
X120035967Y-81207931D01*
X120035968Y-100207695D01*
X119909000Y-100334663D01*
X119909000Y-100134837D01*
X119857120Y-99874020D01*
X119755354Y-99628335D01*
X119607613Y-99407225D01*
X119419575Y-99219187D01*
X119198465Y-99071446D01*
X119020668Y-98997800D01*
X119198465Y-98924154D01*
X119419575Y-98776413D01*
X119607613Y-98588375D01*
X119755354Y-98367265D01*
X119857120Y-98121580D01*
X119909000Y-97860763D01*
X119909000Y-97594837D01*
X119857120Y-97334020D01*
X119755354Y-97088335D01*
X119607613Y-96867225D01*
X119419575Y-96679187D01*
X119198465Y-96531446D01*
X119020668Y-96457800D01*
X119198465Y-96384154D01*
X119419575Y-96236413D01*
X119607613Y-96048375D01*
X119755354Y-95827265D01*
X119857120Y-95581580D01*
X119909000Y-95320763D01*
X119909000Y-95054837D01*
X119857120Y-94794020D01*
X119755354Y-94548335D01*
X119607613Y-94327225D01*
X119419575Y-94139187D01*
X119198465Y-93991446D01*
X119020668Y-93917800D01*
X119198465Y-93844154D01*
X119419575Y-93696413D01*
X119607613Y-93508375D01*
X119755354Y-93287265D01*
X119857120Y-93041580D01*
X119909000Y-92780763D01*
X119909000Y-92514837D01*
X119857120Y-92254020D01*
X119755354Y-92008335D01*
X119607613Y-91787225D01*
X119419575Y-91599187D01*
X119198465Y-91451446D01*
X118952780Y-91349680D01*
X118742236Y-91307800D01*
X119059002Y-91307800D01*
X119059002Y-91098697D01*
X119223498Y-91107049D01*
X119405674Y-90958212D01*
X119555313Y-90776694D01*
X119558223Y-90772294D01*
X119538796Y-90607800D01*
X119059000Y-90607800D01*
X119059000Y-90627800D01*
X118059000Y-90627800D01*
X118059000Y-90607800D01*
X117579204Y-90607800D01*
X117559777Y-90772294D01*
X117562687Y-90776694D01*
X117712326Y-90958212D01*
X117894502Y-91107049D01*
X118058998Y-91098697D01*
X118058998Y-91307800D01*
X118375764Y-91307800D01*
X118165220Y-91349680D01*
X117919535Y-91451446D01*
X117698425Y-91599187D01*
X117510387Y-91787225D01*
X117362646Y-92008335D01*
X117260880Y-92254020D01*
X117209000Y-92514837D01*
X117209000Y-92780763D01*
X117260880Y-93041580D01*
X117362646Y-93287265D01*
X117510387Y-93508375D01*
X117698425Y-93696413D01*
X117919535Y-93844154D01*
X118097332Y-93917800D01*
X117919535Y-93991446D01*
X117698425Y-94139187D01*
X117510387Y-94327225D01*
X117362646Y-94548335D01*
X117260880Y-94794020D01*
X117209000Y-95054837D01*
X117209000Y-95320763D01*
X117260880Y-95581580D01*
X117362646Y-95827265D01*
X117510387Y-96048375D01*
X117698425Y-96236413D01*
X117919535Y-96384154D01*
X118097332Y-96457800D01*
X117919535Y-96531446D01*
X117698425Y-96679187D01*
X117510387Y-96867225D01*
X117419799Y-97002800D01*
X115977305Y-97002800D01*
X115825142Y-96850637D01*
X116029036Y-96831461D01*
X116039442Y-96829391D01*
X116142873Y-96698780D01*
X115799000Y-96354907D01*
X115784858Y-96369049D01*
X115077751Y-95661942D01*
X115091893Y-95647800D01*
X116506107Y-95647800D01*
X116849980Y-95991673D01*
X116980591Y-95888242D01*
X117004795Y-95653105D01*
X116982661Y-95417764D01*
X116980591Y-95407358D01*
X116849980Y-95303927D01*
X116506107Y-95647800D01*
X115091893Y-95647800D01*
X114748020Y-95303927D01*
X114617409Y-95407358D01*
X114595426Y-95620921D01*
X114246000Y-95271496D01*
X114246000Y-94596820D01*
X115455127Y-94596820D01*
X115799000Y-94940693D01*
X116142873Y-94596820D01*
X116039442Y-94466209D01*
X115804305Y-94442005D01*
X115568964Y-94464139D01*
X115558558Y-94466209D01*
X115455127Y-94596820D01*
X114246000Y-94596820D01*
X114246000Y-78092104D01*
X116347083Y-75991022D01*
X116374732Y-75968331D01*
X116397424Y-75940681D01*
X116397431Y-75940674D01*
X116465332Y-75857936D01*
X116532654Y-75731987D01*
X116540531Y-75706019D01*
X116574110Y-75595324D01*
X116584601Y-75488806D01*
X116584601Y-75488797D01*
X116588107Y-75453200D01*
X116584601Y-75417603D01*
X116584601Y-75288018D01*
X116661000Y-75280497D01*
X116661000Y-74729800D01*
X116641000Y-74729800D01*
X116641000Y-73729800D01*
X116661000Y-73729800D01*
X116661000Y-73709800D01*
X117661000Y-73709800D01*
X117661000Y-73729800D01*
G36*
X98394000Y-81724105D02*
G01*
X98394001Y-95147494D01*
X98151121Y-95390374D01*
X98159000Y-95350763D01*
X98159000Y-95084837D01*
X98107120Y-94824020D01*
X98005354Y-94578335D01*
X97857613Y-94357225D01*
X97669575Y-94169187D01*
X97448465Y-94021446D01*
X97270668Y-93947800D01*
X97448465Y-93874154D01*
X97669575Y-93726413D01*
X97857613Y-93538375D01*
X98005354Y-93317265D01*
X98107120Y-93071580D01*
X98159000Y-92810763D01*
X98159000Y-92544837D01*
X98107120Y-92284020D01*
X98005354Y-92038335D01*
X97857613Y-91817225D01*
X97669575Y-91629187D01*
X97448465Y-91481446D01*
X97202780Y-91379680D01*
X96992236Y-91337800D01*
X97309002Y-91337800D01*
X97309002Y-91128697D01*
X97473498Y-91137049D01*
X97655674Y-90988212D01*
X97805313Y-90806694D01*
X97808223Y-90802294D01*
X97788796Y-90637800D01*
X97309000Y-90637800D01*
X97309000Y-90657800D01*
X96309000Y-90657800D01*
X96309000Y-90637800D01*
X95829204Y-90637800D01*
X95809777Y-90802294D01*
X95812687Y-90806694D01*
X95962326Y-90988212D01*
X96144502Y-91137049D01*
X96308998Y-91128697D01*
X96308998Y-91337800D01*
X96625764Y-91337800D01*
X96415220Y-91379680D01*
X96169535Y-91481446D01*
X95948425Y-91629187D01*
X95760387Y-91817225D01*
X95612646Y-92038335D01*
X95536238Y-92222800D01*
X94128201Y-92222800D01*
X94037613Y-92087225D01*
X93849575Y-91899187D01*
X93628465Y-91751446D01*
X93450668Y-91677800D01*
X93628465Y-91604154D01*
X93849575Y-91456413D01*
X94037613Y-91268375D01*
X94185354Y-91047265D01*
X94287120Y-90801580D01*
X94339000Y-90540763D01*
X94339000Y-90274837D01*
X94287120Y-90014020D01*
X94185354Y-89768335D01*
X94037613Y-89547225D01*
X93849575Y-89359187D01*
X93628465Y-89211446D01*
X93450668Y-89137800D01*
X93628465Y-89064154D01*
X93849575Y-88916413D01*
X94037613Y-88728375D01*
X94185354Y-88507265D01*
X94287120Y-88261580D01*
X94339000Y-88000763D01*
X94339000Y-87734837D01*
X94287120Y-87474020D01*
X94185354Y-87228335D01*
X94037613Y-87007225D01*
X93849575Y-86819187D01*
X93628465Y-86671446D01*
X93450668Y-86597800D01*
X93628465Y-86524154D01*
X93849575Y-86376413D01*
X94037613Y-86188375D01*
X94128201Y-86052800D01*
X94238696Y-86052800D01*
X95490811Y-87304915D01*
X95459000Y-87464837D01*
X95459000Y-87730763D01*
X95510880Y-87991580D01*
X95612646Y-88237265D01*
X95760387Y-88458375D01*
X95948425Y-88646413D01*
X96169535Y-88794154D01*
X96415220Y-88895920D01*
X96625764Y-88937800D01*
X96308998Y-88937800D01*
X96308998Y-89146903D01*
X96144502Y-89138551D01*
X95962326Y-89287388D01*
X95812687Y-89468906D01*
X95809777Y-89473306D01*
X95829204Y-89637800D01*
X96309000Y-89637800D01*
X96309000Y-89617800D01*
X97309000Y-89617800D01*
X97309000Y-89637800D01*
X97788796Y-89637800D01*
X97808223Y-89473306D01*
X97805313Y-89468906D01*
X97655674Y-89287388D01*
X97473498Y-89138551D01*
X97309002Y-89146903D01*
X97309002Y-88937800D01*
X96992236Y-88937800D01*
X97202780Y-88895920D01*
X97448465Y-88794154D01*
X97669575Y-88646413D01*
X97857613Y-88458375D01*
X98005354Y-88237265D01*
X98107120Y-87991580D01*
X98159000Y-87730763D01*
X98159000Y-87464837D01*
X98107120Y-87204020D01*
X98005354Y-86958335D01*
X97857613Y-86737225D01*
X97669575Y-86549187D01*
X97448465Y-86401446D01*
X97270668Y-86327800D01*
X97448465Y-86254154D01*
X97669575Y-86106413D01*
X97857613Y-85918375D01*
X98005354Y-85697265D01*
X98107120Y-85451580D01*
X98159000Y-85190763D01*
X98159000Y-84924837D01*
X98107120Y-84664020D01*
X98005354Y-84418335D01*
X97857613Y-84197225D01*
X97669575Y-84009187D01*
X97461957Y-83870461D01*
X97609000Y-83870461D01*
X97716819Y-83859842D01*
X97820494Y-83828392D01*
X97916042Y-83777321D01*
X97999790Y-83708590D01*
X98068521Y-83624842D01*
X98119592Y-83529294D01*
X98151042Y-83425619D01*
X98161661Y-83317800D01*
X98161661Y-81717800D01*
X98151042Y-81609981D01*
X98119592Y-81506306D01*
X98068521Y-81410758D01*
X98012994Y-81343098D01*
X98394000Y-81724105D01*
G37*
X98394000Y-81724105D02*
X98394001Y-95147494D01*
X98151121Y-95390374D01*
X98159000Y-95350763D01*
X98159000Y-95084837D01*
X98107120Y-94824020D01*
X98005354Y-94578335D01*
X97857613Y-94357225D01*
X97669575Y-94169187D01*
X97448465Y-94021446D01*
X97270668Y-93947800D01*
X97448465Y-93874154D01*
X97669575Y-93726413D01*
X97857613Y-93538375D01*
X98005354Y-93317265D01*
X98107120Y-93071580D01*
X98159000Y-92810763D01*
X98159000Y-92544837D01*
X98107120Y-92284020D01*
X98005354Y-92038335D01*
X97857613Y-91817225D01*
X97669575Y-91629187D01*
X97448465Y-91481446D01*
X97202780Y-91379680D01*
X96992236Y-91337800D01*
X97309002Y-91337800D01*
X97309002Y-91128697D01*
X97473498Y-91137049D01*
X97655674Y-90988212D01*
X97805313Y-90806694D01*
X97808223Y-90802294D01*
X97788796Y-90637800D01*
X97309000Y-90637800D01*
X97309000Y-90657800D01*
X96309000Y-90657800D01*
X96309000Y-90637800D01*
X95829204Y-90637800D01*
X95809777Y-90802294D01*
X95812687Y-90806694D01*
X95962326Y-90988212D01*
X96144502Y-91137049D01*
X96308998Y-91128697D01*
X96308998Y-91337800D01*
X96625764Y-91337800D01*
X96415220Y-91379680D01*
X96169535Y-91481446D01*
X95948425Y-91629187D01*
X95760387Y-91817225D01*
X95612646Y-92038335D01*
X95536238Y-92222800D01*
X94128201Y-92222800D01*
X94037613Y-92087225D01*
X93849575Y-91899187D01*
X93628465Y-91751446D01*
X93450668Y-91677800D01*
X93628465Y-91604154D01*
X93849575Y-91456413D01*
X94037613Y-91268375D01*
X94185354Y-91047265D01*
X94287120Y-90801580D01*
X94339000Y-90540763D01*
X94339000Y-90274837D01*
X94287120Y-90014020D01*
X94185354Y-89768335D01*
X94037613Y-89547225D01*
X93849575Y-89359187D01*
X93628465Y-89211446D01*
X93450668Y-89137800D01*
X93628465Y-89064154D01*
X93849575Y-88916413D01*
X94037613Y-88728375D01*
X94185354Y-88507265D01*
X94287120Y-88261580D01*
X94339000Y-88000763D01*
X94339000Y-87734837D01*
X94287120Y-87474020D01*
X94185354Y-87228335D01*
X94037613Y-87007225D01*
X93849575Y-86819187D01*
X93628465Y-86671446D01*
X93450668Y-86597800D01*
X93628465Y-86524154D01*
X93849575Y-86376413D01*
X94037613Y-86188375D01*
X94128201Y-86052800D01*
X94238696Y-86052800D01*
X95490811Y-87304915D01*
X95459000Y-87464837D01*
X95459000Y-87730763D01*
X95510880Y-87991580D01*
X95612646Y-88237265D01*
X95760387Y-88458375D01*
X95948425Y-88646413D01*
X96169535Y-88794154D01*
X96415220Y-88895920D01*
X96625764Y-88937800D01*
X96308998Y-88937800D01*
X96308998Y-89146903D01*
X96144502Y-89138551D01*
X95962326Y-89287388D01*
X95812687Y-89468906D01*
X95809777Y-89473306D01*
X95829204Y-89637800D01*
X96309000Y-89637800D01*
X96309000Y-89617800D01*
X97309000Y-89617800D01*
X97309000Y-89637800D01*
X97788796Y-89637800D01*
X97808223Y-89473306D01*
X97805313Y-89468906D01*
X97655674Y-89287388D01*
X97473498Y-89138551D01*
X97309002Y-89146903D01*
X97309002Y-88937800D01*
X96992236Y-88937800D01*
X97202780Y-88895920D01*
X97448465Y-88794154D01*
X97669575Y-88646413D01*
X97857613Y-88458375D01*
X98005354Y-88237265D01*
X98107120Y-87991580D01*
X98159000Y-87730763D01*
X98159000Y-87464837D01*
X98107120Y-87204020D01*
X98005354Y-86958335D01*
X97857613Y-86737225D01*
X97669575Y-86549187D01*
X97448465Y-86401446D01*
X97270668Y-86327800D01*
X97448465Y-86254154D01*
X97669575Y-86106413D01*
X97857613Y-85918375D01*
X98005354Y-85697265D01*
X98107120Y-85451580D01*
X98159000Y-85190763D01*
X98159000Y-84924837D01*
X98107120Y-84664020D01*
X98005354Y-84418335D01*
X97857613Y-84197225D01*
X97669575Y-84009187D01*
X97461957Y-83870461D01*
X97609000Y-83870461D01*
X97716819Y-83859842D01*
X97820494Y-83828392D01*
X97916042Y-83777321D01*
X97999790Y-83708590D01*
X98068521Y-83624842D01*
X98119592Y-83529294D01*
X98151042Y-83425619D01*
X98161661Y-83317800D01*
X98161661Y-81717800D01*
X98151042Y-81609981D01*
X98119592Y-81506306D01*
X98068521Y-81410758D01*
X98012994Y-81343098D01*
X98394000Y-81724105D01*
G36*
X90508284Y-72359391D02*
G01*
X90662985Y-72590918D01*
X90859882Y-72787815D01*
X91091409Y-72942516D01*
X91260998Y-73012762D01*
X91260998Y-73179103D01*
X91085619Y-73161837D01*
X91032767Y-73197124D01*
X90845295Y-73359038D01*
X90693013Y-73554415D01*
X90700508Y-73729800D01*
X91261000Y-73729800D01*
X91261000Y-73709800D01*
X92261000Y-73709800D01*
X92261000Y-73729800D01*
X92274601Y-73729800D01*
X92274601Y-74729800D01*
X92261000Y-74729800D01*
X92261000Y-75280497D01*
X92274601Y-75281836D01*
X92274602Y-78570794D01*
X92271095Y-78606401D01*
X92274602Y-78642008D01*
X92278453Y-78681103D01*
X92285093Y-78748525D01*
X92326548Y-78885188D01*
X92393870Y-79011137D01*
X92461771Y-79093875D01*
X92461774Y-79093878D01*
X92484470Y-79121533D01*
X92512124Y-79144228D01*
X95456339Y-82088444D01*
X95456339Y-82679835D01*
X95076832Y-82300328D01*
X95054132Y-82272668D01*
X94943737Y-82182069D01*
X94817788Y-82114747D01*
X94681125Y-82073291D01*
X94574607Y-82062800D01*
X94574597Y-82062800D01*
X94539000Y-82059294D01*
X94503403Y-82062800D01*
X94341661Y-82062800D01*
X94341661Y-81987800D01*
X94331042Y-81879981D01*
X94299592Y-81776306D01*
X94248521Y-81680758D01*
X94179790Y-81597010D01*
X94096042Y-81528279D01*
X94000494Y-81477208D01*
X93896819Y-81445758D01*
X93789000Y-81435139D01*
X92189000Y-81435139D01*
X92081181Y-81445758D01*
X91977506Y-81477208D01*
X91881958Y-81528279D01*
X91798210Y-81597010D01*
X91729479Y-81680758D01*
X91678408Y-81776306D01*
X91646958Y-81879981D01*
X91636339Y-81987800D01*
X91636339Y-83115156D01*
X88733696Y-86017800D01*
X86321661Y-86017800D01*
X86321661Y-85992800D01*
X86311042Y-85884981D01*
X86279592Y-85781306D01*
X86228521Y-85685758D01*
X86159790Y-85602010D01*
X86076042Y-85533279D01*
X85980494Y-85482208D01*
X85876819Y-85450758D01*
X85769000Y-85440139D01*
X84269000Y-85440139D01*
X84161181Y-85450758D01*
X84087000Y-85473261D01*
X84087000Y-74900963D01*
X85264739Y-73723224D01*
X85264739Y-75093400D01*
X85275358Y-75201219D01*
X85306808Y-75304894D01*
X85357879Y-75400442D01*
X85426610Y-75484190D01*
X85510358Y-75552921D01*
X85605906Y-75603992D01*
X85709581Y-75635442D01*
X85817400Y-75646061D01*
X87544600Y-75646061D01*
X87652419Y-75635442D01*
X87756094Y-75603992D01*
X87851642Y-75552921D01*
X87935390Y-75484190D01*
X88004121Y-75400442D01*
X88055192Y-75304894D01*
X88086642Y-75201219D01*
X88097261Y-75093400D01*
X88097261Y-74729802D01*
X88160508Y-74729802D01*
X88153013Y-74905185D01*
X88305295Y-75100562D01*
X88492767Y-75262476D01*
X88545619Y-75297763D01*
X88721000Y-75280497D01*
X88721000Y-74729800D01*
X89721000Y-74729800D01*
X89721000Y-75280497D01*
X89896381Y-75297763D01*
X89949233Y-75262476D01*
X90136705Y-75100562D01*
X90288987Y-74905185D01*
X90693013Y-74905185D01*
X90845295Y-75100562D01*
X91032767Y-75262476D01*
X91085619Y-75297763D01*
X91261000Y-75280497D01*
X91261000Y-74729800D01*
X90700508Y-74729800D01*
X90693013Y-74905185D01*
X90288987Y-74905185D01*
X90281492Y-74729800D01*
X89721000Y-74729800D01*
X88721000Y-74729800D01*
X88701000Y-74729800D01*
X88701000Y-73729800D01*
X88721000Y-73729800D01*
X88721000Y-73709800D01*
X89721000Y-73709800D01*
X89721000Y-73729800D01*
X90281492Y-73729800D01*
X90288987Y-73554415D01*
X90136705Y-73359038D01*
X89949233Y-73197124D01*
X89896381Y-73161837D01*
X89721002Y-73179103D01*
X89721002Y-73012762D01*
X89890591Y-72942516D01*
X90122118Y-72787815D01*
X90319015Y-72590918D01*
X90473716Y-72359391D01*
X90491000Y-72317664D01*
X90508284Y-72359391D01*
G37*
X90508284Y-72359391D02*
X90662985Y-72590918D01*
X90859882Y-72787815D01*
X91091409Y-72942516D01*
X91260998Y-73012762D01*
X91260998Y-73179103D01*
X91085619Y-73161837D01*
X91032767Y-73197124D01*
X90845295Y-73359038D01*
X90693013Y-73554415D01*
X90700508Y-73729800D01*
X91261000Y-73729800D01*
X91261000Y-73709800D01*
X92261000Y-73709800D01*
X92261000Y-73729800D01*
X92274601Y-73729800D01*
X92274601Y-74729800D01*
X92261000Y-74729800D01*
X92261000Y-75280497D01*
X92274601Y-75281836D01*
X92274602Y-78570794D01*
X92271095Y-78606401D01*
X92274602Y-78642008D01*
X92278453Y-78681103D01*
X92285093Y-78748525D01*
X92326548Y-78885188D01*
X92393870Y-79011137D01*
X92461771Y-79093875D01*
X92461774Y-79093878D01*
X92484470Y-79121533D01*
X92512124Y-79144228D01*
X95456339Y-82088444D01*
X95456339Y-82679835D01*
X95076832Y-82300328D01*
X95054132Y-82272668D01*
X94943737Y-82182069D01*
X94817788Y-82114747D01*
X94681125Y-82073291D01*
X94574607Y-82062800D01*
X94574597Y-82062800D01*
X94539000Y-82059294D01*
X94503403Y-82062800D01*
X94341661Y-82062800D01*
X94341661Y-81987800D01*
X94331042Y-81879981D01*
X94299592Y-81776306D01*
X94248521Y-81680758D01*
X94179790Y-81597010D01*
X94096042Y-81528279D01*
X94000494Y-81477208D01*
X93896819Y-81445758D01*
X93789000Y-81435139D01*
X92189000Y-81435139D01*
X92081181Y-81445758D01*
X91977506Y-81477208D01*
X91881958Y-81528279D01*
X91798210Y-81597010D01*
X91729479Y-81680758D01*
X91678408Y-81776306D01*
X91646958Y-81879981D01*
X91636339Y-81987800D01*
X91636339Y-83115156D01*
X88733696Y-86017800D01*
X86321661Y-86017800D01*
X86321661Y-85992800D01*
X86311042Y-85884981D01*
X86279592Y-85781306D01*
X86228521Y-85685758D01*
X86159790Y-85602010D01*
X86076042Y-85533279D01*
X85980494Y-85482208D01*
X85876819Y-85450758D01*
X85769000Y-85440139D01*
X84269000Y-85440139D01*
X84161181Y-85450758D01*
X84087000Y-85473261D01*
X84087000Y-74900963D01*
X85264739Y-73723224D01*
X85264739Y-75093400D01*
X85275358Y-75201219D01*
X85306808Y-75304894D01*
X85357879Y-75400442D01*
X85426610Y-75484190D01*
X85510358Y-75552921D01*
X85605906Y-75603992D01*
X85709581Y-75635442D01*
X85817400Y-75646061D01*
X87544600Y-75646061D01*
X87652419Y-75635442D01*
X87756094Y-75603992D01*
X87851642Y-75552921D01*
X87935390Y-75484190D01*
X88004121Y-75400442D01*
X88055192Y-75304894D01*
X88086642Y-75201219D01*
X88097261Y-75093400D01*
X88097261Y-74729802D01*
X88160508Y-74729802D01*
X88153013Y-74905185D01*
X88305295Y-75100562D01*
X88492767Y-75262476D01*
X88545619Y-75297763D01*
X88721000Y-75280497D01*
X88721000Y-74729800D01*
X89721000Y-74729800D01*
X89721000Y-75280497D01*
X89896381Y-75297763D01*
X89949233Y-75262476D01*
X90136705Y-75100562D01*
X90288987Y-74905185D01*
X90693013Y-74905185D01*
X90845295Y-75100562D01*
X91032767Y-75262476D01*
X91085619Y-75297763D01*
X91261000Y-75280497D01*
X91261000Y-74729800D01*
X90700508Y-74729800D01*
X90693013Y-74905185D01*
X90288987Y-74905185D01*
X90281492Y-74729800D01*
X89721000Y-74729800D01*
X88721000Y-74729800D01*
X88701000Y-74729800D01*
X88701000Y-73729800D01*
X88721000Y-73729800D01*
X88721000Y-73709800D01*
X89721000Y-73709800D01*
X89721000Y-73729800D01*
X90281492Y-73729800D01*
X90288987Y-73554415D01*
X90136705Y-73359038D01*
X89949233Y-73197124D01*
X89896381Y-73161837D01*
X89721002Y-73179103D01*
X89721002Y-73012762D01*
X89890591Y-72942516D01*
X90122118Y-72787815D01*
X90319015Y-72590918D01*
X90473716Y-72359391D01*
X90491000Y-72317664D01*
X90508284Y-72359391D01*
G36*
X102421000Y-73729800D02*
G01*
X102434602Y-73729800D01*
X102434601Y-74729800D01*
X102421000Y-74729800D01*
X102421000Y-75280497D01*
X102433330Y-75281711D01*
X102431095Y-75304401D01*
X102434601Y-75339998D01*
X102434601Y-75340007D01*
X102445092Y-75446525D01*
X102475904Y-75548098D01*
X102486548Y-75583188D01*
X102553870Y-75709137D01*
X102617382Y-75786526D01*
X102644469Y-75819532D01*
X102672125Y-75842229D01*
X104093172Y-77263277D01*
X104115868Y-77290932D01*
X104143523Y-77313628D01*
X104143525Y-77313630D01*
X104164286Y-77330668D01*
X104226263Y-77381531D01*
X104352212Y-77448853D01*
X104488875Y-77490309D01*
X104595393Y-77500800D01*
X104595402Y-77500800D01*
X104630999Y-77504306D01*
X104666596Y-77500800D01*
X106870696Y-77500800D01*
X110002001Y-80632106D01*
X110002001Y-83442323D01*
X108250001Y-81690324D01*
X108107613Y-81477225D01*
X107919575Y-81289187D01*
X107698465Y-81141446D01*
X107452780Y-81039680D01*
X107191963Y-80987800D01*
X106926037Y-80987800D01*
X106665220Y-81039680D01*
X106419535Y-81141446D01*
X106305263Y-81217800D01*
X104813329Y-81217800D01*
X104561963Y-81167800D01*
X104296037Y-81167800D01*
X104035220Y-81219680D01*
X103789535Y-81321446D01*
X103568425Y-81469187D01*
X103380387Y-81657225D01*
X103232646Y-81878335D01*
X103130880Y-82124020D01*
X103079000Y-82384837D01*
X103079000Y-82650763D01*
X103130880Y-82911580D01*
X103232646Y-83157265D01*
X103380387Y-83378375D01*
X103568425Y-83566413D01*
X103789535Y-83714154D01*
X103967332Y-83787800D01*
X103789535Y-83861446D01*
X103568425Y-84009187D01*
X103421973Y-84155639D01*
X103404762Y-84134668D01*
X103294367Y-84044069D01*
X103247549Y-84019044D01*
X101407399Y-82178895D01*
X101407399Y-75281836D01*
X101421000Y-75280497D01*
X101421000Y-74729800D01*
X101407399Y-74729800D01*
X101407399Y-73729800D01*
X101421000Y-73729800D01*
X101421000Y-73709800D01*
X102421000Y-73709800D01*
X102421000Y-73729800D01*
G37*
X102421000Y-73729800D02*
X102434602Y-73729800D01*
X102434601Y-74729800D01*
X102421000Y-74729800D01*
X102421000Y-75280497D01*
X102433330Y-75281711D01*
X102431095Y-75304401D01*
X102434601Y-75339998D01*
X102434601Y-75340007D01*
X102445092Y-75446525D01*
X102475904Y-75548098D01*
X102486548Y-75583188D01*
X102553870Y-75709137D01*
X102617382Y-75786526D01*
X102644469Y-75819532D01*
X102672125Y-75842229D01*
X104093172Y-77263277D01*
X104115868Y-77290932D01*
X104143523Y-77313628D01*
X104143525Y-77313630D01*
X104164286Y-77330668D01*
X104226263Y-77381531D01*
X104352212Y-77448853D01*
X104488875Y-77490309D01*
X104595393Y-77500800D01*
X104595402Y-77500800D01*
X104630999Y-77504306D01*
X104666596Y-77500800D01*
X106870696Y-77500800D01*
X110002001Y-80632106D01*
X110002001Y-83442323D01*
X108250001Y-81690324D01*
X108107613Y-81477225D01*
X107919575Y-81289187D01*
X107698465Y-81141446D01*
X107452780Y-81039680D01*
X107191963Y-80987800D01*
X106926037Y-80987800D01*
X106665220Y-81039680D01*
X106419535Y-81141446D01*
X106305263Y-81217800D01*
X104813329Y-81217800D01*
X104561963Y-81167800D01*
X104296037Y-81167800D01*
X104035220Y-81219680D01*
X103789535Y-81321446D01*
X103568425Y-81469187D01*
X103380387Y-81657225D01*
X103232646Y-81878335D01*
X103130880Y-82124020D01*
X103079000Y-82384837D01*
X103079000Y-82650763D01*
X103130880Y-82911580D01*
X103232646Y-83157265D01*
X103380387Y-83378375D01*
X103568425Y-83566413D01*
X103789535Y-83714154D01*
X103967332Y-83787800D01*
X103789535Y-83861446D01*
X103568425Y-84009187D01*
X103421973Y-84155639D01*
X103404762Y-84134668D01*
X103294367Y-84044069D01*
X103247549Y-84019044D01*
X101407399Y-82178895D01*
X101407399Y-75281836D01*
X101421000Y-75280497D01*
X101421000Y-74729800D01*
X101407399Y-74729800D01*
X101407399Y-73729800D01*
X101421000Y-73729800D01*
X101421000Y-73709800D01*
X102421000Y-73709800D01*
X102421000Y-73729800D01*
G36*
X94801000Y-73729800D02*
G01*
X94816001Y-73729800D01*
X94816001Y-74729800D01*
X94801000Y-74729800D01*
X94801000Y-75280497D01*
X94816001Y-75281974D01*
X94816000Y-77810203D01*
X94812494Y-77845800D01*
X94816000Y-77881397D01*
X94816000Y-77881406D01*
X94826491Y-77987924D01*
X94867626Y-78123528D01*
X94867947Y-78124587D01*
X94935269Y-78250536D01*
X95000180Y-78329630D01*
X95025868Y-78360931D01*
X95053524Y-78383628D01*
X97983702Y-81313807D01*
X97916042Y-81258279D01*
X97820494Y-81207208D01*
X97716819Y-81175758D01*
X97609000Y-81165139D01*
X96583644Y-81165139D01*
X93724601Y-78306097D01*
X93724601Y-75288018D01*
X93801000Y-75280497D01*
X93801000Y-74729800D01*
X93781000Y-74729800D01*
X93781000Y-73729800D01*
X93801000Y-73729800D01*
X93801000Y-73709800D01*
X94801000Y-73709800D01*
X94801000Y-73729800D01*
G37*
X94801000Y-73729800D02*
X94816001Y-73729800D01*
X94816001Y-74729800D01*
X94801000Y-74729800D01*
X94801000Y-75280497D01*
X94816001Y-75281974D01*
X94816000Y-77810203D01*
X94812494Y-77845800D01*
X94816000Y-77881397D01*
X94816000Y-77881406D01*
X94826491Y-77987924D01*
X94867626Y-78123528D01*
X94867947Y-78124587D01*
X94935269Y-78250536D01*
X95000180Y-78329630D01*
X95025868Y-78360931D01*
X95053524Y-78383628D01*
X97983702Y-81313807D01*
X97916042Y-81258279D01*
X97820494Y-81207208D01*
X97716819Y-81175758D01*
X97609000Y-81165139D01*
X96583644Y-81165139D01*
X93724601Y-78306097D01*
X93724601Y-75288018D01*
X93801000Y-75280497D01*
X93801000Y-74729800D01*
X93781000Y-74729800D01*
X93781000Y-73729800D01*
X93801000Y-73729800D01*
X93801000Y-73709800D01*
X94801000Y-73709800D01*
X94801000Y-73729800D01*
G36*
X120201000Y-73729800D02*
G01*
X120214602Y-73729800D01*
X120214602Y-74729800D01*
X120201000Y-74729800D01*
X120201000Y-75280497D01*
X120214602Y-75281836D01*
X120214601Y-78675524D01*
X119047983Y-79842143D01*
X119072654Y-79795987D01*
X119093863Y-79726069D01*
X119114110Y-79659324D01*
X119124601Y-79552806D01*
X119124601Y-79552797D01*
X119128107Y-79517200D01*
X119124601Y-79481603D01*
X119124601Y-75288018D01*
X119201000Y-75280497D01*
X119201000Y-74729800D01*
X119181000Y-74729800D01*
X119181000Y-73729800D01*
X119201000Y-73729800D01*
X119201000Y-73709800D01*
X120201000Y-73709800D01*
X120201000Y-73729800D01*
G37*
X120201000Y-73729800D02*
X120214602Y-73729800D01*
X120214602Y-74729800D01*
X120201000Y-74729800D01*
X120201000Y-75280497D01*
X120214602Y-75281836D01*
X120214601Y-78675524D01*
X119047983Y-79842143D01*
X119072654Y-79795987D01*
X119093863Y-79726069D01*
X119114110Y-79659324D01*
X119124601Y-79552806D01*
X119124601Y-79552797D01*
X119128107Y-79517200D01*
X119124601Y-79481603D01*
X119124601Y-75288018D01*
X119201000Y-75280497D01*
X119201000Y-74729800D01*
X119181000Y-74729800D01*
X119181000Y-73729800D01*
X119201000Y-73729800D01*
X119201000Y-73709800D01*
X120201000Y-73709800D01*
X120201000Y-73729800D01*
G36*
X99881000Y-73729800D02*
G01*
X99901000Y-73729800D01*
X99901000Y-74729800D01*
X99881000Y-74729800D01*
X99881000Y-75280497D01*
X99957399Y-75288018D01*
X99957400Y-79712895D01*
X98866011Y-78621507D01*
X98866011Y-75281973D01*
X98881000Y-75280497D01*
X98881000Y-74729800D01*
X98866011Y-74729800D01*
X98866011Y-73729800D01*
X98881000Y-73729800D01*
X98881000Y-73709800D01*
X99881000Y-73709800D01*
X99881000Y-73729800D01*
G37*
X99881000Y-73729800D02*
X99901000Y-73729800D01*
X99901000Y-74729800D01*
X99881000Y-74729800D01*
X99881000Y-75280497D01*
X99957399Y-75288018D01*
X99957400Y-79712895D01*
X98866011Y-78621507D01*
X98866011Y-75281973D01*
X98881000Y-75280497D01*
X98881000Y-74729800D01*
X98866011Y-74729800D01*
X98866011Y-73729800D01*
X98881000Y-73729800D01*
X98881000Y-73709800D01*
X99881000Y-73709800D01*
X99881000Y-73729800D01*
G36*
X122741000Y-73729800D02*
G01*
X122761000Y-73729800D01*
X122761000Y-74729800D01*
X122741000Y-74729800D01*
X122741000Y-75280497D01*
X122805989Y-75286895D01*
X122805990Y-78102010D01*
X121565886Y-79342112D01*
X121612654Y-79254617D01*
X121618597Y-79235024D01*
X121654110Y-79117954D01*
X121664601Y-79011436D01*
X121664601Y-79011427D01*
X121668107Y-78975830D01*
X121664601Y-78940233D01*
X121664601Y-75288018D01*
X121741000Y-75280497D01*
X121741000Y-74729800D01*
X121721000Y-74729800D01*
X121721000Y-73729800D01*
X121741000Y-73729800D01*
X121741000Y-73709800D01*
X122741000Y-73709800D01*
X122741000Y-73729800D01*
G37*
X122741000Y-73729800D02*
X122761000Y-73729800D01*
X122761000Y-74729800D01*
X122741000Y-74729800D01*
X122741000Y-75280497D01*
X122805989Y-75286895D01*
X122805990Y-78102010D01*
X121565886Y-79342112D01*
X121612654Y-79254617D01*
X121618597Y-79235024D01*
X121654110Y-79117954D01*
X121664601Y-79011436D01*
X121664601Y-79011427D01*
X121668107Y-78975830D01*
X121664601Y-78940233D01*
X121664601Y-75288018D01*
X121741000Y-75280497D01*
X121741000Y-74729800D01*
X121721000Y-74729800D01*
X121721000Y-73729800D01*
X121741000Y-73729800D01*
X121741000Y-73709800D01*
X122741000Y-73709800D01*
X122741000Y-73729800D01*
G36*
X97341000Y-73729800D02*
G01*
X97361000Y-73729800D01*
X97361000Y-74729800D01*
X97341000Y-74729800D01*
X97341000Y-75280497D01*
X97416011Y-75287882D01*
X97416012Y-78695508D01*
X96266000Y-77545496D01*
X96266000Y-75287881D01*
X96341000Y-75280497D01*
X96341000Y-74729800D01*
X96321000Y-74729800D01*
X96321000Y-73729800D01*
X96341000Y-73729800D01*
X96341000Y-73709800D01*
X97341000Y-73709800D01*
X97341000Y-73729800D01*
G37*
X97341000Y-73729800D02*
X97361000Y-73729800D01*
X97361000Y-74729800D01*
X97341000Y-74729800D01*
X97341000Y-75280497D01*
X97416011Y-75287882D01*
X97416012Y-78695508D01*
X96266000Y-77545496D01*
X96266000Y-75287881D01*
X96341000Y-75280497D01*
X96341000Y-74729800D01*
X96321000Y-74729800D01*
X96321000Y-73729800D01*
X96341000Y-73729800D01*
X96341000Y-73709800D01*
X97341000Y-73709800D01*
X97341000Y-73729800D01*
G36*
X112581000Y-73729800D02*
G01*
X112594601Y-73729800D01*
X112594602Y-74729800D01*
X112581000Y-74729800D01*
X112581000Y-75280497D01*
X112594602Y-75281836D01*
X112594602Y-75406894D01*
X112483513Y-75517983D01*
X112455857Y-75540680D01*
X112433161Y-75568335D01*
X112433159Y-75568337D01*
X112386735Y-75624905D01*
X112365258Y-75651075D01*
X112297936Y-75777024D01*
X112256480Y-75913687D01*
X112245989Y-76020205D01*
X112245989Y-76020214D01*
X112242483Y-76055811D01*
X112245989Y-76091408D01*
X112245989Y-78365986D01*
X111504601Y-77624598D01*
X111504601Y-75288018D01*
X111581000Y-75280497D01*
X111581000Y-74729800D01*
X111561000Y-74729800D01*
X111561000Y-73729800D01*
X111581000Y-73729800D01*
X111581000Y-73709800D01*
X112581000Y-73709800D01*
X112581000Y-73729800D01*
G37*
X112581000Y-73729800D02*
X112594601Y-73729800D01*
X112594602Y-74729800D01*
X112581000Y-74729800D01*
X112581000Y-75280497D01*
X112594602Y-75281836D01*
X112594602Y-75406894D01*
X112483513Y-75517983D01*
X112455857Y-75540680D01*
X112433161Y-75568335D01*
X112433159Y-75568337D01*
X112386735Y-75624905D01*
X112365258Y-75651075D01*
X112297936Y-75777024D01*
X112256480Y-75913687D01*
X112245989Y-76020205D01*
X112245989Y-76020214D01*
X112242483Y-76055811D01*
X112245989Y-76091408D01*
X112245989Y-78365986D01*
X111504601Y-77624598D01*
X111504601Y-75288018D01*
X111581000Y-75280497D01*
X111581000Y-74729800D01*
X111561000Y-74729800D01*
X111561000Y-73729800D01*
X111581000Y-73729800D01*
X111581000Y-73709800D01*
X112581000Y-73709800D01*
X112581000Y-73729800D01*
G36*
X110041000Y-73729800D02*
G01*
X110054601Y-73729800D01*
X110054601Y-74729800D01*
X110041000Y-74729800D01*
X110041000Y-75280497D01*
X110054601Y-75281836D01*
X110054602Y-76952431D01*
X108964601Y-75862431D01*
X108964601Y-75288018D01*
X109041000Y-75280497D01*
X109041000Y-74729800D01*
X109021000Y-74729800D01*
X109021000Y-73729800D01*
X109041000Y-73729800D01*
X109041000Y-73709800D01*
X110041000Y-73709800D01*
X110041000Y-73729800D01*
G37*
X110041000Y-73729800D02*
X110054601Y-73729800D01*
X110054601Y-74729800D01*
X110041000Y-74729800D01*
X110041000Y-75280497D01*
X110054601Y-75281836D01*
X110054602Y-76952431D01*
X108964601Y-75862431D01*
X108964601Y-75288018D01*
X109041000Y-75280497D01*
X109041000Y-74729800D01*
X109021000Y-74729800D01*
X109021000Y-73729800D01*
X109041000Y-73729800D01*
X109041000Y-73709800D01*
X110041000Y-73709800D01*
X110041000Y-73729800D01*
G36*
X115121000Y-73729800D02*
G01*
X115134602Y-73729800D01*
X115134601Y-74729800D01*
X115121000Y-74729800D01*
X115121000Y-75166495D01*
X113695989Y-76591507D01*
X113695989Y-76356115D01*
X113807073Y-76245031D01*
X113834733Y-76222331D01*
X113925332Y-76111936D01*
X113992654Y-75985987D01*
X114034110Y-75849324D01*
X114044601Y-75742806D01*
X114044601Y-75742796D01*
X114048107Y-75707199D01*
X114044601Y-75671602D01*
X114044601Y-75288018D01*
X114121000Y-75280497D01*
X114121000Y-74729800D01*
X114101000Y-74729800D01*
X114101000Y-73729800D01*
X114121000Y-73729800D01*
X114121000Y-73709800D01*
X115121000Y-73709800D01*
X115121000Y-73729800D01*
G37*
X115121000Y-73729800D02*
X115134602Y-73729800D01*
X115134601Y-74729800D01*
X115121000Y-74729800D01*
X115121000Y-75166495D01*
X113695989Y-76591507D01*
X113695989Y-76356115D01*
X113807073Y-76245031D01*
X113834733Y-76222331D01*
X113925332Y-76111936D01*
X113992654Y-75985987D01*
X114034110Y-75849324D01*
X114044601Y-75742806D01*
X114044601Y-75742796D01*
X114048107Y-75707199D01*
X114044601Y-75671602D01*
X114044601Y-75288018D01*
X114121000Y-75280497D01*
X114121000Y-74729800D01*
X114101000Y-74729800D01*
X114101000Y-73729800D01*
X114121000Y-73729800D01*
X114121000Y-73709800D01*
X115121000Y-73709800D01*
X115121000Y-73729800D01*
G36*
X127821000Y-73729800D02*
G01*
X127841000Y-73729800D01*
X127841000Y-74729800D01*
X127821000Y-74729800D01*
X127821000Y-75280497D01*
X127897399Y-75288018D01*
X127897399Y-75344096D01*
X126786000Y-76455495D01*
X126786000Y-75283943D01*
X126821000Y-75280497D01*
X126821000Y-74729800D01*
X126801000Y-74729800D01*
X126801000Y-73729800D01*
X126821000Y-73729800D01*
X126821000Y-73709800D01*
X127821000Y-73709800D01*
X127821000Y-73729800D01*
G37*
X127821000Y-73729800D02*
X127841000Y-73729800D01*
X127841000Y-74729800D01*
X127821000Y-74729800D01*
X127821000Y-75280497D01*
X127897399Y-75288018D01*
X127897399Y-75344096D01*
X126786000Y-76455495D01*
X126786000Y-75283943D01*
X126821000Y-75280497D01*
X126821000Y-74729800D01*
X126801000Y-74729800D01*
X126801000Y-73729800D01*
X126821000Y-73729800D01*
X126821000Y-73709800D01*
X127821000Y-73709800D01*
X127821000Y-73729800D01*
G36*
X104961000Y-73729800D02*
G01*
X104974601Y-73729800D01*
X104974602Y-74729800D01*
X104961000Y-74729800D01*
X104961000Y-75280497D01*
X105018793Y-75286187D01*
X105026548Y-75311753D01*
X105093870Y-75437702D01*
X105161771Y-75520440D01*
X105161774Y-75520443D01*
X105184470Y-75548098D01*
X105212124Y-75570793D01*
X105692130Y-76050800D01*
X104931305Y-76050800D01*
X103961000Y-75080496D01*
X103961000Y-74729800D01*
X103941000Y-74729800D01*
X103941000Y-73729800D01*
X103961000Y-73729800D01*
X103961000Y-73709800D01*
X104961000Y-73709800D01*
X104961000Y-73729800D01*
G37*
X104961000Y-73729800D02*
X104974601Y-73729800D01*
X104974602Y-74729800D01*
X104961000Y-74729800D01*
X104961000Y-75280497D01*
X105018793Y-75286187D01*
X105026548Y-75311753D01*
X105093870Y-75437702D01*
X105161771Y-75520440D01*
X105161774Y-75520443D01*
X105184470Y-75548098D01*
X105212124Y-75570793D01*
X105692130Y-76050800D01*
X104931305Y-76050800D01*
X103961000Y-75080496D01*
X103961000Y-74729800D01*
X103941000Y-74729800D01*
X103941000Y-73729800D01*
X103961000Y-73729800D01*
X103961000Y-73709800D01*
X104961000Y-73709800D01*
X104961000Y-73729800D01*
G36*
X107501000Y-73729800D02*
G01*
X107514601Y-73729800D01*
X107514602Y-74729800D01*
X107501000Y-74729800D01*
X107501000Y-74749800D01*
X106501000Y-74749800D01*
X106501000Y-74729800D01*
X106481000Y-74729800D01*
X106481000Y-73729800D01*
X106501000Y-73729800D01*
X106501000Y-73709800D01*
X107501000Y-73709800D01*
X107501000Y-73729800D01*
G37*
X107501000Y-73729800D02*
X107514601Y-73729800D01*
X107514602Y-74729800D01*
X107501000Y-74729800D01*
X107501000Y-74749800D01*
X106501000Y-74749800D01*
X106501000Y-74729800D01*
X106481000Y-74729800D01*
X106481000Y-73729800D01*
X106501000Y-73729800D01*
X106501000Y-73709800D01*
X107501000Y-73709800D01*
X107501000Y-73729800D01*
M02*
