G04 #@! TF.GenerationSoftware,KiCad,Pcbnew,(5.1.12)-1*
G04 #@! TF.CreationDate,2022-01-07T20:06:15-05:00*
G04 #@! TF.ProjectId,Diff_Expansion,44696666-5f45-4787-9061-6e73696f6e2e,v3*
G04 #@! TF.SameCoordinates,Original*
G04 #@! TF.FileFunction,Other,User*
%FSLAX46Y46*%
G04 Gerber Fmt 4.6, Leading zero omitted, Abs format (unit mm)*
G04 Created by KiCad (PCBNEW (5.1.12)-1) date 2022-01-07 20:06:15*
%MOMM*%
%LPD*%
G01*
G04 APERTURE LIST*
%ADD10C,0.050000*%
G04 APERTURE END LIST*
D10*
X152881000Y-64769800D02*
G75*
G03*
X152881000Y-64769800I-3950000J0D01*
G01*
X76681000Y-64769800D02*
G75*
G03*
X76681000Y-64769800I-3950000J0D01*
G01*
X152881000Y-141037800D02*
G75*
G03*
X152881000Y-141037800I-3950000J0D01*
G01*
X76681000Y-140969800D02*
G75*
G03*
X76681000Y-140969800I-3950000J0D01*
G01*
X130291000Y-61417800D02*
X91711000Y-61417800D01*
X130291000Y-70967800D02*
X130291000Y-61417800D01*
X91711000Y-70967800D02*
X130291000Y-70967800D01*
X91711000Y-61417800D02*
X91711000Y-70967800D01*
X117679000Y-106717800D02*
X127479000Y-106717800D01*
X117679000Y-85867800D02*
X117679000Y-106717800D01*
X127479000Y-85867800D02*
X117679000Y-85867800D01*
X127479000Y-106717800D02*
X127479000Y-85867800D01*
X117679000Y-131211800D02*
X127479000Y-131211800D01*
X117679000Y-110361800D02*
X117679000Y-131211800D01*
X127479000Y-110361800D02*
X117679000Y-110361800D01*
X127479000Y-131211800D02*
X127479000Y-110361800D01*
X105709000Y-110361800D02*
X95909000Y-110361800D01*
X105709000Y-131211800D02*
X105709000Y-110361800D01*
X95909000Y-131211800D02*
X105709000Y-131211800D01*
X95909000Y-110361800D02*
X95909000Y-131211800D01*
X105709000Y-85867800D02*
X95909000Y-85867800D01*
X105709000Y-106717800D02*
X105709000Y-85867800D01*
X95909000Y-106717800D02*
X105709000Y-106717800D01*
X95909000Y-85867800D02*
X95909000Y-106717800D01*
X128189000Y-110131800D02*
X128189000Y-131331800D01*
X131489000Y-110131800D02*
X128189000Y-110131800D01*
X131489000Y-131331800D02*
X131489000Y-110131800D01*
X128189000Y-131331800D02*
X131489000Y-131331800D01*
X128189000Y-86047800D02*
X128189000Y-107247800D01*
X131489000Y-86047800D02*
X128189000Y-86047800D01*
X131489000Y-107247800D02*
X131489000Y-86047800D01*
X128189000Y-107247800D02*
X131489000Y-107247800D01*
X94839000Y-131871800D02*
X94839000Y-110671800D01*
X91539000Y-131871800D02*
X94839000Y-131871800D01*
X91539000Y-110671800D02*
X91539000Y-131871800D01*
X94839000Y-110671800D02*
X91539000Y-110671800D01*
X94839000Y-107187800D02*
X94839000Y-85987800D01*
X91539000Y-107187800D02*
X94839000Y-107187800D01*
X91539000Y-85987800D02*
X91539000Y-107187800D01*
X94839000Y-85987800D02*
X91539000Y-85987800D01*
X151439000Y-112551800D02*
X151439000Y-128861800D01*
X151439000Y-112551800D02*
X132699000Y-112551800D01*
X132699000Y-128861800D02*
X151439000Y-128861800D01*
X132699000Y-128861800D02*
X132699000Y-112551800D01*
X151439000Y-87607800D02*
X151439000Y-103917800D01*
X151439000Y-87607800D02*
X132699000Y-87607800D01*
X132699000Y-103917800D02*
X151439000Y-103917800D01*
X132699000Y-103917800D02*
X132699000Y-87607800D01*
X70749000Y-129186800D02*
X70749000Y-112876800D01*
X70749000Y-129186800D02*
X89489000Y-129186800D01*
X89489000Y-112876800D02*
X70749000Y-112876800D01*
X89489000Y-112876800D02*
X89489000Y-129186800D01*
X70749000Y-104242800D02*
X70749000Y-87932800D01*
X70749000Y-104242800D02*
X89489000Y-104242800D01*
X89489000Y-87932800D02*
X70749000Y-87932800D01*
X89489000Y-87932800D02*
X89489000Y-104242800D01*
X125029000Y-132101800D02*
X117529000Y-132101800D01*
X125029000Y-134601800D02*
X125029000Y-132101800D01*
X117529000Y-134601800D02*
X125029000Y-134601800D01*
X117529000Y-132101800D02*
X117529000Y-134601800D01*
X114749000Y-99297800D02*
X114749000Y-106797800D01*
X117249000Y-99297800D02*
X114749000Y-99297800D01*
X117249000Y-106797800D02*
X117249000Y-99297800D01*
X114749000Y-106797800D02*
X117249000Y-106797800D01*
X108559000Y-118151800D02*
X108559000Y-110651800D01*
X106059000Y-118151800D02*
X108559000Y-118151800D01*
X106059000Y-110651800D02*
X106059000Y-118151800D01*
X108559000Y-110651800D02*
X106059000Y-110651800D01*
X108509000Y-93487800D02*
X108509000Y-85987800D01*
X106009000Y-93487800D02*
X108509000Y-93487800D01*
X106009000Y-85987800D02*
X106009000Y-93487800D01*
X108509000Y-85987800D02*
X106009000Y-85987800D01*
X105745000Y-133231800D02*
X96025000Y-133231800D01*
X105745000Y-136231800D02*
X105745000Y-133231800D01*
X96025000Y-136231800D02*
X105745000Y-136231800D01*
X96025000Y-133231800D02*
X96025000Y-136231800D01*
X112435000Y-132531800D02*
X107585000Y-132531800D01*
X112435000Y-137031800D02*
X112435000Y-132531800D01*
X107585000Y-137031800D02*
X112435000Y-137031800D01*
X107585000Y-132531800D02*
X107585000Y-137031800D01*
X81531000Y-82539800D02*
X81531000Y-73179800D01*
X140491000Y-82539800D02*
X81531000Y-82539800D01*
X140491000Y-73179800D02*
X140491000Y-82539800D01*
X81531000Y-73179800D02*
X140491000Y-73179800D01*
M02*
