G04 #@! TF.GenerationSoftware,KiCad,Pcbnew,(5.1.5)-3*
G04 #@! TF.CreationDate,2020-01-01T12:48:08-05:00*
G04 #@! TF.ProjectId,Diff_Expansion,44696666-5f45-4787-9061-6e73696f6e2e,v21*
G04 #@! TF.SameCoordinates,Original*
G04 #@! TF.FileFunction,Other,User*
%FSLAX46Y46*%
G04 Gerber Fmt 4.6, Leading zero omitted, Abs format (unit mm)*
G04 Created by KiCad (PCBNEW (5.1.5)-3) date 2020-01-01 12:48:08*
%MOMM*%
%LPD*%
G04 APERTURE LIST*
%ADD10C,0.050000*%
G04 APERTURE END LIST*
D10*
X117479000Y-101817800D02*
X127279000Y-101817800D01*
X117479000Y-80967800D02*
X117479000Y-101817800D01*
X127279000Y-80967800D02*
X117479000Y-80967800D01*
X127279000Y-101817800D02*
X127279000Y-80967800D01*
X117479000Y-126311800D02*
X127279000Y-126311800D01*
X117479000Y-105461800D02*
X117479000Y-126311800D01*
X127279000Y-105461800D02*
X117479000Y-105461800D01*
X127279000Y-126311800D02*
X127279000Y-105461800D01*
X105509000Y-105461800D02*
X95709000Y-105461800D01*
X105509000Y-126311800D02*
X105509000Y-105461800D01*
X95709000Y-126311800D02*
X105509000Y-126311800D01*
X95709000Y-105461800D02*
X95709000Y-126311800D01*
X105509000Y-80967800D02*
X95709000Y-80967800D01*
X105509000Y-101817800D02*
X105509000Y-80967800D01*
X95709000Y-101817800D02*
X105509000Y-101817800D01*
X95709000Y-80967800D02*
X95709000Y-101817800D01*
X127989000Y-105231800D02*
X127989000Y-126431800D01*
X131289000Y-105231800D02*
X127989000Y-105231800D01*
X131289000Y-126431800D02*
X131289000Y-105231800D01*
X127989000Y-126431800D02*
X131289000Y-126431800D01*
X127989000Y-81147800D02*
X127989000Y-102347800D01*
X131289000Y-81147800D02*
X127989000Y-81147800D01*
X131289000Y-102347800D02*
X131289000Y-81147800D01*
X127989000Y-102347800D02*
X131289000Y-102347800D01*
X94639000Y-126971800D02*
X94639000Y-105771800D01*
X91339000Y-126971800D02*
X94639000Y-126971800D01*
X91339000Y-105771800D02*
X91339000Y-126971800D01*
X94639000Y-105771800D02*
X91339000Y-105771800D01*
X94639000Y-102287800D02*
X94639000Y-81087800D01*
X91339000Y-102287800D02*
X94639000Y-102287800D01*
X91339000Y-81087800D02*
X91339000Y-102287800D01*
X94639000Y-81087800D02*
X91339000Y-81087800D01*
X151239000Y-107651800D02*
X151239000Y-123961800D01*
X151239000Y-107651800D02*
X132499000Y-107651800D01*
X132499000Y-123961800D02*
X151239000Y-123961800D01*
X132499000Y-123961800D02*
X132499000Y-107651800D01*
X151239000Y-82707800D02*
X151239000Y-99017800D01*
X151239000Y-82707800D02*
X132499000Y-82707800D01*
X132499000Y-99017800D02*
X151239000Y-99017800D01*
X132499000Y-99017800D02*
X132499000Y-82707800D01*
X70549000Y-124286800D02*
X70549000Y-107976800D01*
X70549000Y-124286800D02*
X89289000Y-124286800D01*
X89289000Y-107976800D02*
X70549000Y-107976800D01*
X89289000Y-107976800D02*
X89289000Y-124286800D01*
X70549000Y-99342800D02*
X70549000Y-83032800D01*
X70549000Y-99342800D02*
X89289000Y-99342800D01*
X89289000Y-83032800D02*
X70549000Y-83032800D01*
X89289000Y-83032800D02*
X89289000Y-99342800D01*
X124829000Y-127201800D02*
X117329000Y-127201800D01*
X124829000Y-129701800D02*
X124829000Y-127201800D01*
X117329000Y-129701800D02*
X124829000Y-129701800D01*
X117329000Y-127201800D02*
X117329000Y-129701800D01*
X114549000Y-94397800D02*
X114549000Y-101897800D01*
X117049000Y-94397800D02*
X114549000Y-94397800D01*
X117049000Y-101897800D02*
X117049000Y-94397800D01*
X114549000Y-101897800D02*
X117049000Y-101897800D01*
X108359000Y-113251800D02*
X108359000Y-105751800D01*
X105859000Y-113251800D02*
X108359000Y-113251800D01*
X105859000Y-105751800D02*
X105859000Y-113251800D01*
X108359000Y-105751800D02*
X105859000Y-105751800D01*
X108309000Y-88587800D02*
X108309000Y-81087800D01*
X105809000Y-88587800D02*
X108309000Y-88587800D01*
X105809000Y-81087800D02*
X105809000Y-88587800D01*
X108309000Y-81087800D02*
X105809000Y-81087800D01*
X152881000Y-64769800D02*
G75*
G03X152881000Y-64769800I-3950000J0D01*
G01*
X76681000Y-64769800D02*
G75*
G03X76681000Y-64769800I-3950000J0D01*
G01*
X152881000Y-141037800D02*
G75*
G03X152881000Y-141037800I-3950000J0D01*
G01*
X76681000Y-140969800D02*
G75*
G03X76681000Y-140969800I-3950000J0D01*
G01*
X105545000Y-128331800D02*
X95825000Y-128331800D01*
X105545000Y-131331800D02*
X105545000Y-128331800D01*
X95825000Y-131331800D02*
X105545000Y-131331800D01*
X95825000Y-128331800D02*
X95825000Y-131331800D01*
X112235000Y-127631800D02*
X107385000Y-127631800D01*
X112235000Y-132131800D02*
X112235000Y-127631800D01*
X107385000Y-132131800D02*
X112235000Y-132131800D01*
X107385000Y-127631800D02*
X107385000Y-132131800D01*
X81331000Y-77639800D02*
X81331000Y-68279800D01*
X140291000Y-77639800D02*
X81331000Y-77639800D01*
X140291000Y-68279800D02*
X140291000Y-77639800D01*
X81331000Y-68279800D02*
X140291000Y-68279800D01*
M02*
