G04 #@! TF.GenerationSoftware,KiCad,Pcbnew,(6.0.5)*
G04 #@! TF.CreationDate,2022-05-05T00:14:28-04:00*
G04 #@! TF.ProjectId,Receiver_Out,52656365-6976-4657-925f-4f75742e6b69,v2*
G04 #@! TF.SameCoordinates,Original*
G04 #@! TF.FileFunction,Legend,Bot*
G04 #@! TF.FilePolarity,Positive*
%FSLAX45Y45*%
G04 Gerber Fmt 4.5, Leading zero omitted, Abs format (unit mm)*
G04 Created by KiCad (PCBNEW (6.0.5)) date 2022-05-05 00:14:28*
%MOMM*%
%LPD*%
G01*
G04 APERTURE LIST*
%ADD10C,0.400000*%
%ADD11C,0.150000*%
%ADD12C,0.100000*%
%ADD13C,0.010000*%
%ADD14C,0.120000*%
%ADD15O,3.702000X1.902000*%
%ADD16C,3.102000*%
%ADD17C,2.577000*%
%ADD18O,1.802000X1.802000*%
%ADD19C,3.302000*%
%ADD20C,1.602000*%
%ADD21C,5.000000*%
%ADD22C,1.802000*%
%ADD23C,3.802000*%
%ADD24O,1.902000X1.902000*%
%ADD25O,1.602000X1.602000*%
%ADD26O,2.202000X2.002000*%
%ADD27O,1.702000X1.702000*%
%ADD28C,1.102000*%
G04 APERTURE END LIST*
D10*
X12015814Y-12453208D02*
X12244386Y-12453208D01*
X12130100Y-12567494D02*
X12130100Y-12338923D01*
X12085814Y-13283208D02*
X12314386Y-13283208D01*
D11*
X6160576Y-8685590D02*
X6165338Y-8699875D01*
X6165338Y-8723685D01*
X6160576Y-8733209D01*
X6155814Y-8737970D01*
X6146290Y-8742732D01*
X6136767Y-8742732D01*
X6127243Y-8737970D01*
X6122481Y-8733209D01*
X6117719Y-8723685D01*
X6112957Y-8704637D01*
X6108195Y-8695113D01*
X6103433Y-8690351D01*
X6093909Y-8685590D01*
X6084386Y-8685590D01*
X6074862Y-8690351D01*
X6070100Y-8695113D01*
X6065338Y-8704637D01*
X6065338Y-8728447D01*
X6070100Y-8742732D01*
X6065338Y-8776066D02*
X6165338Y-8799875D01*
X6093909Y-8818923D01*
X6165338Y-8837970D01*
X6065338Y-8861780D01*
X6165338Y-8899875D02*
X6065338Y-8899875D01*
X6065338Y-8923685D01*
X6070100Y-8937970D01*
X6079624Y-8947494D01*
X6089148Y-8952256D01*
X6108195Y-8957018D01*
X6122481Y-8957018D01*
X6141528Y-8952256D01*
X6151052Y-8947494D01*
X6160576Y-8937970D01*
X6165338Y-8923685D01*
X6165338Y-8899875D01*
X6155814Y-9057018D02*
X6160576Y-9052256D01*
X6165338Y-9037970D01*
X6165338Y-9028447D01*
X6160576Y-9014161D01*
X6151052Y-9004637D01*
X6141528Y-8999875D01*
X6122481Y-8995113D01*
X6108195Y-8995113D01*
X6089148Y-8999875D01*
X6079624Y-9004637D01*
X6070100Y-9014161D01*
X6065338Y-9028447D01*
X6065338Y-9037970D01*
X6070100Y-9052256D01*
X6074862Y-9057018D01*
X6165338Y-9147494D02*
X6165338Y-9099875D01*
X6065338Y-9099875D01*
X6165338Y-9180828D02*
X6065338Y-9180828D01*
X6165338Y-9237970D02*
X6108195Y-9195113D01*
X6065338Y-9237970D02*
X6122481Y-9180828D01*
X5890576Y-8689875D02*
X5895338Y-8704161D01*
X5895338Y-8727970D01*
X5890576Y-8737494D01*
X5885814Y-8742256D01*
X5876290Y-8747018D01*
X5866767Y-8747018D01*
X5857243Y-8742256D01*
X5852481Y-8737494D01*
X5847719Y-8727970D01*
X5842957Y-8708923D01*
X5838195Y-8699399D01*
X5833433Y-8694637D01*
X5823909Y-8689875D01*
X5814386Y-8689875D01*
X5804862Y-8694637D01*
X5800100Y-8699399D01*
X5795338Y-8708923D01*
X5795338Y-8732732D01*
X5800100Y-8747018D01*
X5795338Y-8780351D02*
X5895338Y-8804161D01*
X5823909Y-8823209D01*
X5895338Y-8842256D01*
X5795338Y-8866066D01*
X5895338Y-8904161D02*
X5795338Y-8904161D01*
X5795338Y-8927970D01*
X5800100Y-8942256D01*
X5809624Y-8951780D01*
X5819148Y-8956542D01*
X5838195Y-8961304D01*
X5852481Y-8961304D01*
X5871528Y-8956542D01*
X5881052Y-8951780D01*
X5890576Y-8942256D01*
X5895338Y-8927970D01*
X5895338Y-8904161D01*
X5895338Y-9004161D02*
X5795338Y-9004161D01*
X5795338Y-9070828D02*
X5795338Y-9089875D01*
X5800100Y-9099399D01*
X5809624Y-9108923D01*
X5828671Y-9113685D01*
X5862005Y-9113685D01*
X5881052Y-9108923D01*
X5890576Y-9099399D01*
X5895338Y-9089875D01*
X5895338Y-9070828D01*
X5890576Y-9061304D01*
X5881052Y-9051780D01*
X5862005Y-9047018D01*
X5828671Y-9047018D01*
X5809624Y-9051780D01*
X5800100Y-9061304D01*
X5795338Y-9070828D01*
X6327719Y-13007018D02*
X6327719Y-12907018D01*
X6303909Y-12907018D01*
X6289624Y-12911780D01*
X6280100Y-12921304D01*
X6275338Y-12930828D01*
X6270576Y-12949875D01*
X6270576Y-12964161D01*
X6275338Y-12983208D01*
X6280100Y-12992732D01*
X6289624Y-13002256D01*
X6303909Y-13007018D01*
X6327719Y-13007018D01*
X6232481Y-12978447D02*
X6184862Y-12978447D01*
X6242005Y-13007018D02*
X6208671Y-12907018D01*
X6175338Y-13007018D01*
X6156290Y-12907018D02*
X6099148Y-12907018D01*
X6127719Y-13007018D02*
X6127719Y-12907018D01*
X6070576Y-12978447D02*
X6022957Y-12978447D01*
X6080100Y-13007018D02*
X6046767Y-12907018D01*
X6013433Y-13007018D01*
X5989624Y-12907018D02*
X5927719Y-12907018D01*
X5961052Y-12945113D01*
X5946767Y-12945113D01*
X5937243Y-12949875D01*
X5932481Y-12954637D01*
X5927719Y-12964161D01*
X5927719Y-12987970D01*
X5932481Y-12997494D01*
X5937243Y-13002256D01*
X5946767Y-13007018D01*
X5975338Y-13007018D01*
X5984862Y-13002256D01*
X5989624Y-12997494D01*
X6291528Y-10154637D02*
X6258195Y-10154637D01*
X6243909Y-10207018D02*
X6291528Y-10207018D01*
X6291528Y-10107018D01*
X6243909Y-10107018D01*
X6201052Y-10207018D02*
X6201052Y-10107018D01*
X6143909Y-10207018D01*
X6143909Y-10107018D01*
X6053433Y-10140351D02*
X6053433Y-10207018D01*
X6077243Y-10102256D02*
X6101052Y-10173685D01*
X6039148Y-10173685D01*
X6311528Y-10914637D02*
X6278195Y-10914637D01*
X6263909Y-10967018D02*
X6311528Y-10967018D01*
X6311528Y-10867018D01*
X6263909Y-10867018D01*
X6221052Y-10967018D02*
X6221052Y-10867018D01*
X6163909Y-10967018D01*
X6163909Y-10867018D01*
X6063909Y-10967018D02*
X6121052Y-10967018D01*
X6092481Y-10967018D02*
X6092481Y-10867018D01*
X6102005Y-10881304D01*
X6111528Y-10890828D01*
X6121052Y-10895590D01*
X6327719Y-13267018D02*
X6327719Y-13167018D01*
X6303909Y-13167018D01*
X6289624Y-13171780D01*
X6280100Y-13181304D01*
X6275338Y-13190828D01*
X6270576Y-13209875D01*
X6270576Y-13224161D01*
X6275338Y-13243208D01*
X6280100Y-13252732D01*
X6289624Y-13262256D01*
X6303909Y-13267018D01*
X6327719Y-13267018D01*
X6232481Y-13238447D02*
X6184862Y-13238447D01*
X6242005Y-13267018D02*
X6208671Y-13167018D01*
X6175338Y-13267018D01*
X6156290Y-13167018D02*
X6099148Y-13167018D01*
X6127719Y-13267018D02*
X6127719Y-13167018D01*
X6070576Y-13238447D02*
X6022957Y-13238447D01*
X6080100Y-13267018D02*
X6046767Y-13167018D01*
X6013433Y-13267018D01*
X5984862Y-13176542D02*
X5980100Y-13171780D01*
X5970576Y-13167018D01*
X5946767Y-13167018D01*
X5937243Y-13171780D01*
X5932481Y-13176542D01*
X5927719Y-13186066D01*
X5927719Y-13195589D01*
X5932481Y-13209875D01*
X5989624Y-13267018D01*
X5927719Y-13267018D01*
X6321528Y-10664637D02*
X6288195Y-10664637D01*
X6273909Y-10717018D02*
X6321528Y-10717018D01*
X6321528Y-10617018D01*
X6273909Y-10617018D01*
X6231052Y-10717018D02*
X6231052Y-10617018D01*
X6173909Y-10717018D01*
X6173909Y-10617018D01*
X6131052Y-10626542D02*
X6126290Y-10621780D01*
X6116767Y-10617018D01*
X6092957Y-10617018D01*
X6083433Y-10621780D01*
X6078671Y-10626542D01*
X6073909Y-10636066D01*
X6073909Y-10645590D01*
X6078671Y-10659875D01*
X6135814Y-10717018D01*
X6073909Y-10717018D01*
D12*
X5664862Y-8197970D02*
X5664862Y-8255113D01*
X5668671Y-8266542D01*
X5676290Y-8274161D01*
X5687719Y-8277970D01*
X5695338Y-8277970D01*
X5584862Y-8277970D02*
X5630576Y-8277970D01*
X5607719Y-8277970D02*
X5607719Y-8197970D01*
X5615338Y-8209399D01*
X5622957Y-8217018D01*
X5630576Y-8220828D01*
X5535338Y-8197970D02*
X5527719Y-8197970D01*
X5520100Y-8201780D01*
X5516290Y-8205589D01*
X5512481Y-8213208D01*
X5508671Y-8228447D01*
X5508671Y-8247494D01*
X5512481Y-8262732D01*
X5516290Y-8270351D01*
X5520100Y-8274161D01*
X5527719Y-8277970D01*
X5535338Y-8277970D01*
X5542957Y-8274161D01*
X5546767Y-8270351D01*
X5550576Y-8262732D01*
X5554386Y-8247494D01*
X5554386Y-8228447D01*
X5550576Y-8213208D01*
X5546767Y-8205589D01*
X5542957Y-8201780D01*
X5535338Y-8197970D01*
D11*
X6317719Y-12757018D02*
X6317719Y-12657018D01*
X6293909Y-12657018D01*
X6279624Y-12661780D01*
X6270100Y-12671304D01*
X6265338Y-12680828D01*
X6260576Y-12699875D01*
X6260576Y-12714161D01*
X6265338Y-12733208D01*
X6270100Y-12742732D01*
X6279624Y-12752256D01*
X6293909Y-12757018D01*
X6317719Y-12757018D01*
X6222481Y-12728447D02*
X6174862Y-12728447D01*
X6232005Y-12757018D02*
X6198671Y-12657018D01*
X6165338Y-12757018D01*
X6146290Y-12657018D02*
X6089148Y-12657018D01*
X6117719Y-12757018D02*
X6117719Y-12657018D01*
X6060576Y-12728447D02*
X6012957Y-12728447D01*
X6070100Y-12757018D02*
X6036767Y-12657018D01*
X6003433Y-12757018D01*
X5927243Y-12690351D02*
X5927243Y-12757018D01*
X5951052Y-12652256D02*
X5974862Y-12723685D01*
X5912957Y-12723685D01*
X6317719Y-13527018D02*
X6317719Y-13427018D01*
X6293909Y-13427018D01*
X6279624Y-13431780D01*
X6270100Y-13441304D01*
X6265338Y-13450828D01*
X6260576Y-13469875D01*
X6260576Y-13484161D01*
X6265338Y-13503208D01*
X6270100Y-13512732D01*
X6279624Y-13522256D01*
X6293909Y-13527018D01*
X6317719Y-13527018D01*
X6222481Y-13498447D02*
X6174862Y-13498447D01*
X6232005Y-13527018D02*
X6198671Y-13427018D01*
X6165338Y-13527018D01*
X6146290Y-13427018D02*
X6089148Y-13427018D01*
X6117719Y-13527018D02*
X6117719Y-13427018D01*
X6060576Y-13498447D02*
X6012957Y-13498447D01*
X6070100Y-13527018D02*
X6036767Y-13427018D01*
X6003433Y-13527018D01*
X5917719Y-13527018D02*
X5974862Y-13527018D01*
X5946290Y-13527018D02*
X5946290Y-13427018D01*
X5955814Y-13441304D01*
X5965338Y-13450828D01*
X5974862Y-13455589D01*
X6271528Y-10414637D02*
X6238195Y-10414637D01*
X6223909Y-10467018D02*
X6271528Y-10467018D01*
X6271528Y-10367018D01*
X6223909Y-10367018D01*
X6181052Y-10467018D02*
X6181052Y-10367018D01*
X6123909Y-10467018D01*
X6123909Y-10367018D01*
X6085814Y-10367018D02*
X6023909Y-10367018D01*
X6057243Y-10405113D01*
X6042957Y-10405113D01*
X6033433Y-10409875D01*
X6028671Y-10414637D01*
X6023909Y-10424161D01*
X6023909Y-10447970D01*
X6028671Y-10457494D01*
X6033433Y-10462256D01*
X6042957Y-10467018D01*
X6071528Y-10467018D01*
X6081052Y-10462256D01*
X6085814Y-10457494D01*
G36*
X5754967Y-12241891D02*
G01*
X5766604Y-12241940D01*
X5768021Y-12241946D01*
X5774198Y-12242005D01*
X5778566Y-12242137D01*
X5781504Y-12242392D01*
X5783389Y-12242817D01*
X5784600Y-12243463D01*
X5785513Y-12244376D01*
X5787255Y-12247722D01*
X5786964Y-12251217D01*
X5784514Y-12254307D01*
X5783194Y-12255208D01*
X5781340Y-12255953D01*
X5778737Y-12256390D01*
X5774883Y-12256595D01*
X5769274Y-12256647D01*
X5757008Y-12256647D01*
X5757008Y-12306318D01*
X5770491Y-12306318D01*
X5774070Y-12306325D01*
X5778703Y-12306401D01*
X5781757Y-12306619D01*
X5783660Y-12307049D01*
X5784841Y-12307761D01*
X5785731Y-12308827D01*
X5787238Y-12312052D01*
X5786971Y-12315580D01*
X5784514Y-12318654D01*
X5783888Y-12319119D01*
X5782836Y-12319713D01*
X5781443Y-12320166D01*
X5779436Y-12320497D01*
X5776540Y-12320726D01*
X5772482Y-12320871D01*
X5766988Y-12320952D01*
X5759784Y-12320986D01*
X5750596Y-12320993D01*
X5719652Y-12320993D01*
X5716882Y-12318222D01*
X5714657Y-12315084D01*
X5714388Y-12311762D01*
X5716368Y-12308575D01*
X5717345Y-12307747D01*
X5718935Y-12307006D01*
X5721331Y-12306572D01*
X5725019Y-12306368D01*
X5730480Y-12306318D01*
X5742333Y-12306318D01*
X5742333Y-12256647D01*
X5730782Y-12256647D01*
X5725612Y-12256603D01*
X5722159Y-12256406D01*
X5719902Y-12255955D01*
X5718317Y-12255145D01*
X5716882Y-12253876D01*
X5714657Y-12250738D01*
X5714388Y-12247415D01*
X5716368Y-12244229D01*
X5716987Y-12243666D01*
X5717808Y-12243157D01*
X5718986Y-12242748D01*
X5720732Y-12242430D01*
X5723257Y-12242193D01*
X5726773Y-12242028D01*
X5731491Y-12241925D01*
X5737622Y-12241874D01*
X5745377Y-12241866D01*
X5754967Y-12241891D01*
G37*
D13*
X5754967Y-12241891D02*
X5766604Y-12241940D01*
X5768021Y-12241946D01*
X5774198Y-12242005D01*
X5778566Y-12242137D01*
X5781504Y-12242392D01*
X5783389Y-12242817D01*
X5784600Y-12243463D01*
X5785513Y-12244376D01*
X5787255Y-12247722D01*
X5786964Y-12251217D01*
X5784514Y-12254307D01*
X5783194Y-12255208D01*
X5781340Y-12255953D01*
X5778737Y-12256390D01*
X5774883Y-12256595D01*
X5769274Y-12256647D01*
X5757008Y-12256647D01*
X5757008Y-12306318D01*
X5770491Y-12306318D01*
X5774070Y-12306325D01*
X5778703Y-12306401D01*
X5781757Y-12306619D01*
X5783660Y-12307049D01*
X5784841Y-12307761D01*
X5785731Y-12308827D01*
X5787238Y-12312052D01*
X5786971Y-12315580D01*
X5784514Y-12318654D01*
X5783888Y-12319119D01*
X5782836Y-12319713D01*
X5781443Y-12320166D01*
X5779436Y-12320497D01*
X5776540Y-12320726D01*
X5772482Y-12320871D01*
X5766988Y-12320952D01*
X5759784Y-12320986D01*
X5750596Y-12320993D01*
X5719652Y-12320993D01*
X5716882Y-12318222D01*
X5714657Y-12315084D01*
X5714388Y-12311762D01*
X5716368Y-12308575D01*
X5717345Y-12307747D01*
X5718935Y-12307006D01*
X5721331Y-12306572D01*
X5725019Y-12306368D01*
X5730480Y-12306318D01*
X5742333Y-12306318D01*
X5742333Y-12256647D01*
X5730782Y-12256647D01*
X5725612Y-12256603D01*
X5722159Y-12256406D01*
X5719902Y-12255955D01*
X5718317Y-12255145D01*
X5716882Y-12253876D01*
X5714657Y-12250738D01*
X5714388Y-12247415D01*
X5716368Y-12244229D01*
X5716987Y-12243666D01*
X5717808Y-12243157D01*
X5718986Y-12242748D01*
X5720732Y-12242430D01*
X5723257Y-12242193D01*
X5726773Y-12242028D01*
X5731491Y-12241925D01*
X5737622Y-12241874D01*
X5745377Y-12241866D01*
X5754967Y-12241891D01*
G36*
X5506758Y-11846935D02*
G01*
X5517059Y-11848268D01*
X5525639Y-11850279D01*
X5534467Y-11853487D01*
X5549015Y-11860925D01*
X5561814Y-11870432D01*
X5572778Y-11881910D01*
X5581819Y-11895259D01*
X5588850Y-11910383D01*
X5593783Y-11927183D01*
X5594896Y-11934033D01*
X5595669Y-11943822D01*
X5595843Y-11954483D01*
X5595431Y-11965125D01*
X5594448Y-11974857D01*
X5592908Y-11982788D01*
X5591696Y-11986773D01*
X5588147Y-11995825D01*
X5583642Y-12005026D01*
X5578669Y-12013428D01*
X5573716Y-12020080D01*
X5573645Y-12020162D01*
X5570554Y-12023807D01*
X5568353Y-12026612D01*
X5567515Y-12027974D01*
X5567715Y-12028123D01*
X5569877Y-12028461D01*
X5573911Y-12028695D01*
X5579185Y-12028783D01*
X5590855Y-12028783D01*
X5590855Y-12080269D01*
X5590855Y-12081640D01*
X5590835Y-12093135D01*
X5590785Y-12103685D01*
X5590709Y-12112990D01*
X5590610Y-12120750D01*
X5590492Y-12126664D01*
X5590360Y-12130433D01*
X5590216Y-12131756D01*
X5590090Y-12131725D01*
X5588235Y-12130859D01*
X5584749Y-12129045D01*
X5580262Y-12126607D01*
X5570947Y-12121458D01*
X5474152Y-12120664D01*
X5460054Y-12120546D01*
X5442074Y-12120380D01*
X5426465Y-12120207D01*
X5413005Y-12120011D01*
X5401475Y-12119779D01*
X5391654Y-12119497D01*
X5383320Y-12119151D01*
X5376253Y-12118726D01*
X5370233Y-12118209D01*
X5365038Y-12117586D01*
X5360448Y-12116843D01*
X5356242Y-12115965D01*
X5352199Y-12114939D01*
X5348099Y-12113750D01*
X5343720Y-12112385D01*
X5329993Y-12107008D01*
X5317307Y-12099645D01*
X5306446Y-12090475D01*
X5297352Y-12079414D01*
X5289970Y-12066378D01*
X5284242Y-12051284D01*
X5280112Y-12034048D01*
X5277523Y-12014584D01*
X5277008Y-12007782D01*
X5276631Y-11996325D01*
X5276970Y-11984970D01*
X5278082Y-11973184D01*
X5280024Y-11960436D01*
X5282852Y-11946195D01*
X5286625Y-11929929D01*
X5287538Y-11926169D01*
X5289784Y-11916726D01*
X5291853Y-11907777D01*
X5293621Y-11899863D01*
X5294967Y-11893528D01*
X5295768Y-11889313D01*
X5297365Y-11879590D01*
X5330497Y-11893260D01*
X5338769Y-11896679D01*
X5346874Y-11900043D01*
X5353795Y-11902929D01*
X5359192Y-11905196D01*
X5362726Y-11906702D01*
X5364059Y-11907305D01*
X5364079Y-11907399D01*
X5363483Y-11909147D01*
X5361958Y-11912583D01*
X5359773Y-11917088D01*
X5355519Y-11926451D01*
X5350868Y-11939336D01*
X5347306Y-11952523D01*
X5344923Y-11965497D01*
X5343808Y-11977742D01*
X5344050Y-11988744D01*
X5345740Y-11997985D01*
X5348421Y-12004434D01*
X5353916Y-12011759D01*
X5361370Y-12017398D01*
X5370554Y-12021189D01*
X5381240Y-12022971D01*
X5391088Y-12023599D01*
X5391152Y-11999950D01*
X5454283Y-11999950D01*
X5454283Y-12001451D01*
X5454368Y-12008362D01*
X5454571Y-12014299D01*
X5454868Y-12018671D01*
X5455231Y-12020888D01*
X5455349Y-12021143D01*
X5456088Y-12021968D01*
X5457575Y-12022552D01*
X5460208Y-12022936D01*
X5464387Y-12023160D01*
X5470512Y-12023265D01*
X5478983Y-12023291D01*
X5486249Y-12023252D01*
X5493883Y-12023067D01*
X5499402Y-12022703D01*
X5503163Y-12022136D01*
X5505527Y-12021337D01*
X5507215Y-12020309D01*
X5511817Y-12016440D01*
X5516607Y-12011255D01*
X5520875Y-12005572D01*
X5523910Y-12000209D01*
X5525024Y-11997233D01*
X5526506Y-11990381D01*
X5527264Y-11981433D01*
X5527150Y-11971998D01*
X5525590Y-11963038D01*
X5522369Y-11955560D01*
X5517342Y-11949089D01*
X5515482Y-11947269D01*
X5509139Y-11942530D01*
X5502303Y-11939966D01*
X5494077Y-11939196D01*
X5489732Y-11939405D01*
X5480785Y-11941468D01*
X5473107Y-11945802D01*
X5466609Y-11952486D01*
X5461206Y-11961598D01*
X5456812Y-11973219D01*
X5455659Y-11977903D01*
X5454869Y-11983575D01*
X5454431Y-11990712D01*
X5454283Y-11999950D01*
X5391152Y-11999950D01*
X5391177Y-11990837D01*
X5391270Y-11979788D01*
X5391599Y-11967568D01*
X5392220Y-11957128D01*
X5393193Y-11947929D01*
X5394579Y-11939431D01*
X5396438Y-11931094D01*
X5398831Y-11922377D01*
X5403384Y-11909335D01*
X5410884Y-11893995D01*
X5420070Y-11880533D01*
X5430813Y-11869080D01*
X5442984Y-11859770D01*
X5456455Y-11852735D01*
X5471095Y-11848109D01*
X5475038Y-11847385D01*
X5484798Y-11846456D01*
X5494077Y-11846339D01*
X5495688Y-11846319D01*
X5506758Y-11846935D01*
G37*
X5506758Y-11846935D02*
X5517059Y-11848268D01*
X5525639Y-11850279D01*
X5534467Y-11853487D01*
X5549015Y-11860925D01*
X5561814Y-11870432D01*
X5572778Y-11881910D01*
X5581819Y-11895259D01*
X5588850Y-11910383D01*
X5593783Y-11927183D01*
X5594896Y-11934033D01*
X5595669Y-11943822D01*
X5595843Y-11954483D01*
X5595431Y-11965125D01*
X5594448Y-11974857D01*
X5592908Y-11982788D01*
X5591696Y-11986773D01*
X5588147Y-11995825D01*
X5583642Y-12005026D01*
X5578669Y-12013428D01*
X5573716Y-12020080D01*
X5573645Y-12020162D01*
X5570554Y-12023807D01*
X5568353Y-12026612D01*
X5567515Y-12027974D01*
X5567715Y-12028123D01*
X5569877Y-12028461D01*
X5573911Y-12028695D01*
X5579185Y-12028783D01*
X5590855Y-12028783D01*
X5590855Y-12080269D01*
X5590855Y-12081640D01*
X5590835Y-12093135D01*
X5590785Y-12103685D01*
X5590709Y-12112990D01*
X5590610Y-12120750D01*
X5590492Y-12126664D01*
X5590360Y-12130433D01*
X5590216Y-12131756D01*
X5590090Y-12131725D01*
X5588235Y-12130859D01*
X5584749Y-12129045D01*
X5580262Y-12126607D01*
X5570947Y-12121458D01*
X5474152Y-12120664D01*
X5460054Y-12120546D01*
X5442074Y-12120380D01*
X5426465Y-12120207D01*
X5413005Y-12120011D01*
X5401475Y-12119779D01*
X5391654Y-12119497D01*
X5383320Y-12119151D01*
X5376253Y-12118726D01*
X5370233Y-12118209D01*
X5365038Y-12117586D01*
X5360448Y-12116843D01*
X5356242Y-12115965D01*
X5352199Y-12114939D01*
X5348099Y-12113750D01*
X5343720Y-12112385D01*
X5329993Y-12107008D01*
X5317307Y-12099645D01*
X5306446Y-12090475D01*
X5297352Y-12079414D01*
X5289970Y-12066378D01*
X5284242Y-12051284D01*
X5280112Y-12034048D01*
X5277523Y-12014584D01*
X5277008Y-12007782D01*
X5276631Y-11996325D01*
X5276970Y-11984970D01*
X5278082Y-11973184D01*
X5280024Y-11960436D01*
X5282852Y-11946195D01*
X5286625Y-11929929D01*
X5287538Y-11926169D01*
X5289784Y-11916726D01*
X5291853Y-11907777D01*
X5293621Y-11899863D01*
X5294967Y-11893528D01*
X5295768Y-11889313D01*
X5297365Y-11879590D01*
X5330497Y-11893260D01*
X5338769Y-11896679D01*
X5346874Y-11900043D01*
X5353795Y-11902929D01*
X5359192Y-11905196D01*
X5362726Y-11906702D01*
X5364059Y-11907305D01*
X5364079Y-11907399D01*
X5363483Y-11909147D01*
X5361958Y-11912583D01*
X5359773Y-11917088D01*
X5355519Y-11926451D01*
X5350868Y-11939336D01*
X5347306Y-11952523D01*
X5344923Y-11965497D01*
X5343808Y-11977742D01*
X5344050Y-11988744D01*
X5345740Y-11997985D01*
X5348421Y-12004434D01*
X5353916Y-12011759D01*
X5361370Y-12017398D01*
X5370554Y-12021189D01*
X5381240Y-12022971D01*
X5391088Y-12023599D01*
X5391152Y-11999950D01*
X5454283Y-11999950D01*
X5454283Y-12001451D01*
X5454368Y-12008362D01*
X5454571Y-12014299D01*
X5454868Y-12018671D01*
X5455231Y-12020888D01*
X5455349Y-12021143D01*
X5456088Y-12021968D01*
X5457575Y-12022552D01*
X5460208Y-12022936D01*
X5464387Y-12023160D01*
X5470512Y-12023265D01*
X5478983Y-12023291D01*
X5486249Y-12023252D01*
X5493883Y-12023067D01*
X5499402Y-12022703D01*
X5503163Y-12022136D01*
X5505527Y-12021337D01*
X5507215Y-12020309D01*
X5511817Y-12016440D01*
X5516607Y-12011255D01*
X5520875Y-12005572D01*
X5523910Y-12000209D01*
X5525024Y-11997233D01*
X5526506Y-11990381D01*
X5527264Y-11981433D01*
X5527150Y-11971998D01*
X5525590Y-11963038D01*
X5522369Y-11955560D01*
X5517342Y-11949089D01*
X5515482Y-11947269D01*
X5509139Y-11942530D01*
X5502303Y-11939966D01*
X5494077Y-11939196D01*
X5489732Y-11939405D01*
X5480785Y-11941468D01*
X5473107Y-11945802D01*
X5466609Y-11952486D01*
X5461206Y-11961598D01*
X5456812Y-11973219D01*
X5455659Y-11977903D01*
X5454869Y-11983575D01*
X5454431Y-11990712D01*
X5454283Y-11999950D01*
X5391152Y-11999950D01*
X5391177Y-11990837D01*
X5391270Y-11979788D01*
X5391599Y-11967568D01*
X5392220Y-11957128D01*
X5393193Y-11947929D01*
X5394579Y-11939431D01*
X5396438Y-11931094D01*
X5398831Y-11922377D01*
X5403384Y-11909335D01*
X5410884Y-11893995D01*
X5420070Y-11880533D01*
X5430813Y-11869080D01*
X5442984Y-11859770D01*
X5456455Y-11852735D01*
X5471095Y-11848109D01*
X5475038Y-11847385D01*
X5484798Y-11846456D01*
X5494077Y-11846339D01*
X5495688Y-11846319D01*
X5506758Y-11846935D01*
G36*
X5757895Y-11671885D02*
G01*
X5765727Y-11671908D01*
X5771754Y-11671970D01*
X5776243Y-11672090D01*
X5779464Y-11672284D01*
X5781684Y-11672573D01*
X5783171Y-11672973D01*
X5784193Y-11673504D01*
X5785018Y-11674184D01*
X5785483Y-11674635D01*
X5786132Y-11675458D01*
X5786623Y-11676594D01*
X5786979Y-11678321D01*
X5787221Y-11680917D01*
X5787371Y-11684659D01*
X5787451Y-11689825D01*
X5787483Y-11696693D01*
X5787488Y-11705542D01*
X5787488Y-11707509D01*
X5787461Y-11716212D01*
X5787385Y-11722977D01*
X5787243Y-11728072D01*
X5787022Y-11731765D01*
X5786706Y-11734324D01*
X5786281Y-11736015D01*
X5785731Y-11737106D01*
X5784732Y-11738156D01*
X5781621Y-11739482D01*
X5778032Y-11739364D01*
X5774877Y-11737747D01*
X5774650Y-11737528D01*
X5774023Y-11736659D01*
X5773556Y-11735325D01*
X5773227Y-11733227D01*
X5773011Y-11730066D01*
X5772885Y-11725543D01*
X5772827Y-11719360D01*
X5772813Y-11711218D01*
X5772813Y-11686558D01*
X5757008Y-11686558D01*
X5757008Y-11702802D01*
X5757000Y-11706368D01*
X5756921Y-11711945D01*
X5756720Y-11715859D01*
X5756356Y-11718505D01*
X5755785Y-11720276D01*
X5754965Y-11721569D01*
X5754646Y-11721934D01*
X5751549Y-11723774D01*
X5747915Y-11723838D01*
X5744553Y-11722084D01*
X5744546Y-11722078D01*
X5743684Y-11721111D01*
X5743078Y-11719781D01*
X5742685Y-11717710D01*
X5742460Y-11714519D01*
X5742357Y-11709829D01*
X5742333Y-11703260D01*
X5742333Y-11686445D01*
X5735842Y-11686784D01*
X5729351Y-11687122D01*
X5729045Y-11711330D01*
X5729013Y-11713831D01*
X5728865Y-11721993D01*
X5728626Y-11728225D01*
X5728227Y-11732787D01*
X5727595Y-11735937D01*
X5726661Y-11737935D01*
X5725354Y-11739042D01*
X5723603Y-11739515D01*
X5721337Y-11739615D01*
X5721101Y-11739615D01*
X5719098Y-11739499D01*
X5717519Y-11739020D01*
X5716313Y-11737939D01*
X5715431Y-11736020D01*
X5714821Y-11733028D01*
X5714435Y-11728724D01*
X5714221Y-11722872D01*
X5714130Y-11715236D01*
X5714111Y-11705580D01*
X5714111Y-11676562D01*
X5717085Y-11674222D01*
X5717753Y-11673727D01*
X5718811Y-11673143D01*
X5720219Y-11672696D01*
X5722252Y-11672370D01*
X5725180Y-11672145D01*
X5729278Y-11672002D01*
X5734816Y-11671923D01*
X5742067Y-11671889D01*
X5751303Y-11671882D01*
X5757895Y-11671885D01*
G37*
X5757895Y-11671885D02*
X5765727Y-11671908D01*
X5771754Y-11671970D01*
X5776243Y-11672090D01*
X5779464Y-11672284D01*
X5781684Y-11672573D01*
X5783171Y-11672973D01*
X5784193Y-11673504D01*
X5785018Y-11674184D01*
X5785483Y-11674635D01*
X5786132Y-11675458D01*
X5786623Y-11676594D01*
X5786979Y-11678321D01*
X5787221Y-11680917D01*
X5787371Y-11684659D01*
X5787451Y-11689825D01*
X5787483Y-11696693D01*
X5787488Y-11705542D01*
X5787488Y-11707509D01*
X5787461Y-11716212D01*
X5787385Y-11722977D01*
X5787243Y-11728072D01*
X5787022Y-11731765D01*
X5786706Y-11734324D01*
X5786281Y-11736015D01*
X5785731Y-11737106D01*
X5784732Y-11738156D01*
X5781621Y-11739482D01*
X5778032Y-11739364D01*
X5774877Y-11737747D01*
X5774650Y-11737528D01*
X5774023Y-11736659D01*
X5773556Y-11735325D01*
X5773227Y-11733227D01*
X5773011Y-11730066D01*
X5772885Y-11725543D01*
X5772827Y-11719360D01*
X5772813Y-11711218D01*
X5772813Y-11686558D01*
X5757008Y-11686558D01*
X5757008Y-11702802D01*
X5757000Y-11706368D01*
X5756921Y-11711945D01*
X5756720Y-11715859D01*
X5756356Y-11718505D01*
X5755785Y-11720276D01*
X5754965Y-11721569D01*
X5754646Y-11721934D01*
X5751549Y-11723774D01*
X5747915Y-11723838D01*
X5744553Y-11722084D01*
X5744546Y-11722078D01*
X5743684Y-11721111D01*
X5743078Y-11719781D01*
X5742685Y-11717710D01*
X5742460Y-11714519D01*
X5742357Y-11709829D01*
X5742333Y-11703260D01*
X5742333Y-11686445D01*
X5735842Y-11686784D01*
X5729351Y-11687122D01*
X5729045Y-11711330D01*
X5729013Y-11713831D01*
X5728865Y-11721993D01*
X5728626Y-11728225D01*
X5728227Y-11732787D01*
X5727595Y-11735937D01*
X5726661Y-11737935D01*
X5725354Y-11739042D01*
X5723603Y-11739515D01*
X5721337Y-11739615D01*
X5721101Y-11739615D01*
X5719098Y-11739499D01*
X5717519Y-11739020D01*
X5716313Y-11737939D01*
X5715431Y-11736020D01*
X5714821Y-11733028D01*
X5714435Y-11728724D01*
X5714221Y-11722872D01*
X5714130Y-11715236D01*
X5714111Y-11705580D01*
X5714111Y-11676562D01*
X5717085Y-11674222D01*
X5717753Y-11673727D01*
X5718811Y-11673143D01*
X5720219Y-11672696D01*
X5722252Y-11672370D01*
X5725180Y-11672145D01*
X5729278Y-11672002D01*
X5734816Y-11671923D01*
X5742067Y-11671889D01*
X5751303Y-11671882D01*
X5757895Y-11671885D01*
G36*
X5758275Y-11177433D02*
G01*
X5766093Y-11177457D01*
X5772114Y-11177521D01*
X5776602Y-11177641D01*
X5779819Y-11177834D01*
X5782028Y-11178118D01*
X5783491Y-11178510D01*
X5784471Y-11179027D01*
X5785231Y-11179687D01*
X5785548Y-11180020D01*
X5786159Y-11180872D01*
X5786627Y-11182072D01*
X5786970Y-11183894D01*
X5787208Y-11186608D01*
X5787359Y-11190489D01*
X5787444Y-11195810D01*
X5787480Y-11202842D01*
X5787488Y-11211860D01*
X5787487Y-11216071D01*
X5787469Y-11224185D01*
X5787414Y-11230435D01*
X5787302Y-11235091D01*
X5787115Y-11238428D01*
X5786834Y-11240718D01*
X5786439Y-11242233D01*
X5785911Y-11243248D01*
X5785231Y-11244033D01*
X5783071Y-11245506D01*
X5780151Y-11246291D01*
X5777760Y-11245741D01*
X5775071Y-11244033D01*
X5774610Y-11243535D01*
X5773981Y-11242558D01*
X5773519Y-11241146D01*
X5773197Y-11238997D01*
X5772991Y-11235805D01*
X5772875Y-11231268D01*
X5772824Y-11225081D01*
X5772813Y-11216940D01*
X5772813Y-11192104D01*
X5757008Y-11192104D01*
X5757008Y-11208222D01*
X5756994Y-11211804D01*
X5756822Y-11218366D01*
X5756378Y-11223090D01*
X5755568Y-11226264D01*
X5754295Y-11228174D01*
X5752463Y-11229110D01*
X5749978Y-11229358D01*
X5747952Y-11229278D01*
X5745770Y-11228753D01*
X5744234Y-11227473D01*
X5743235Y-11225139D01*
X5742659Y-11221450D01*
X5742396Y-11216106D01*
X5742333Y-11208806D01*
X5742333Y-11191992D01*
X5735842Y-11192330D01*
X5729351Y-11192669D01*
X5729046Y-11217440D01*
X5728958Y-11223700D01*
X5728813Y-11230546D01*
X5728620Y-11235636D01*
X5728355Y-11239261D01*
X5727995Y-11241712D01*
X5727516Y-11243279D01*
X5726895Y-11244252D01*
X5726255Y-11244853D01*
X5723087Y-11246154D01*
X5719518Y-11245798D01*
X5716412Y-11243820D01*
X5716120Y-11243495D01*
X5715485Y-11242597D01*
X5715000Y-11241387D01*
X5714644Y-11239586D01*
X5714399Y-11236917D01*
X5714242Y-11233102D01*
X5714156Y-11227864D01*
X5714119Y-11220923D01*
X5714111Y-11212002D01*
X5714112Y-11206529D01*
X5714131Y-11198819D01*
X5714190Y-11192924D01*
X5714309Y-11188566D01*
X5714510Y-11185464D01*
X5714815Y-11183340D01*
X5715245Y-11181914D01*
X5715821Y-11180908D01*
X5716565Y-11180042D01*
X5716733Y-11179863D01*
X5717487Y-11179139D01*
X5718389Y-11178575D01*
X5719702Y-11178151D01*
X5721691Y-11177847D01*
X5724619Y-11177643D01*
X5728750Y-11177519D01*
X5734347Y-11177456D01*
X5741675Y-11177432D01*
X5750996Y-11177429D01*
X5758275Y-11177433D01*
G37*
X5758275Y-11177433D02*
X5766093Y-11177457D01*
X5772114Y-11177521D01*
X5776602Y-11177641D01*
X5779819Y-11177834D01*
X5782028Y-11178118D01*
X5783491Y-11178510D01*
X5784471Y-11179027D01*
X5785231Y-11179687D01*
X5785548Y-11180020D01*
X5786159Y-11180872D01*
X5786627Y-11182072D01*
X5786970Y-11183894D01*
X5787208Y-11186608D01*
X5787359Y-11190489D01*
X5787444Y-11195810D01*
X5787480Y-11202842D01*
X5787488Y-11211860D01*
X5787487Y-11216071D01*
X5787469Y-11224185D01*
X5787414Y-11230435D01*
X5787302Y-11235091D01*
X5787115Y-11238428D01*
X5786834Y-11240718D01*
X5786439Y-11242233D01*
X5785911Y-11243248D01*
X5785231Y-11244033D01*
X5783071Y-11245506D01*
X5780151Y-11246291D01*
X5777760Y-11245741D01*
X5775071Y-11244033D01*
X5774610Y-11243535D01*
X5773981Y-11242558D01*
X5773519Y-11241146D01*
X5773197Y-11238997D01*
X5772991Y-11235805D01*
X5772875Y-11231268D01*
X5772824Y-11225081D01*
X5772813Y-11216940D01*
X5772813Y-11192104D01*
X5757008Y-11192104D01*
X5757008Y-11208222D01*
X5756994Y-11211804D01*
X5756822Y-11218366D01*
X5756378Y-11223090D01*
X5755568Y-11226264D01*
X5754295Y-11228174D01*
X5752463Y-11229110D01*
X5749978Y-11229358D01*
X5747952Y-11229278D01*
X5745770Y-11228753D01*
X5744234Y-11227473D01*
X5743235Y-11225139D01*
X5742659Y-11221450D01*
X5742396Y-11216106D01*
X5742333Y-11208806D01*
X5742333Y-11191992D01*
X5735842Y-11192330D01*
X5729351Y-11192669D01*
X5729046Y-11217440D01*
X5728958Y-11223700D01*
X5728813Y-11230546D01*
X5728620Y-11235636D01*
X5728355Y-11239261D01*
X5727995Y-11241712D01*
X5727516Y-11243279D01*
X5726895Y-11244252D01*
X5726255Y-11244853D01*
X5723087Y-11246154D01*
X5719518Y-11245798D01*
X5716412Y-11243820D01*
X5716120Y-11243495D01*
X5715485Y-11242597D01*
X5715000Y-11241387D01*
X5714644Y-11239586D01*
X5714399Y-11236917D01*
X5714242Y-11233102D01*
X5714156Y-11227864D01*
X5714119Y-11220923D01*
X5714111Y-11212002D01*
X5714112Y-11206529D01*
X5714131Y-11198819D01*
X5714190Y-11192924D01*
X5714309Y-11188566D01*
X5714510Y-11185464D01*
X5714815Y-11183340D01*
X5715245Y-11181914D01*
X5715821Y-11180908D01*
X5716565Y-11180042D01*
X5716733Y-11179863D01*
X5717487Y-11179139D01*
X5718389Y-11178575D01*
X5719702Y-11178151D01*
X5721691Y-11177847D01*
X5724619Y-11177643D01*
X5728750Y-11177519D01*
X5734347Y-11177456D01*
X5741675Y-11177432D01*
X5750996Y-11177429D01*
X5758275Y-11177433D01*
G36*
X5115123Y-11348521D02*
G01*
X5120173Y-11348799D01*
X5124113Y-11349483D01*
X5127848Y-11350741D01*
X5132282Y-11352745D01*
X5133464Y-11353325D01*
X5144285Y-11360177D01*
X5153188Y-11368795D01*
X5159965Y-11378934D01*
X5164405Y-11390350D01*
X5165645Y-11396208D01*
X5166225Y-11408091D01*
X5164348Y-11419601D01*
X5160208Y-11430400D01*
X5153996Y-11440150D01*
X5145906Y-11448515D01*
X5136128Y-11455155D01*
X5124856Y-11459734D01*
X5115632Y-11461410D01*
X5105453Y-11461561D01*
X5095551Y-11460198D01*
X5086974Y-11457387D01*
X5080842Y-11454138D01*
X5071114Y-11446907D01*
X5063436Y-11438334D01*
X5057809Y-11428734D01*
X5054234Y-11418423D01*
X5052712Y-11407717D01*
X5053243Y-11396930D01*
X5055828Y-11386378D01*
X5060469Y-11376375D01*
X5067165Y-11367238D01*
X5075918Y-11359281D01*
X5086727Y-11352819D01*
X5090535Y-11351087D01*
X5094395Y-11349684D01*
X5098254Y-11348896D01*
X5103026Y-11348551D01*
X5109628Y-11348475D01*
X5115123Y-11348521D01*
G37*
X5115123Y-11348521D02*
X5120173Y-11348799D01*
X5124113Y-11349483D01*
X5127848Y-11350741D01*
X5132282Y-11352745D01*
X5133464Y-11353325D01*
X5144285Y-11360177D01*
X5153188Y-11368795D01*
X5159965Y-11378934D01*
X5164405Y-11390350D01*
X5165645Y-11396208D01*
X5166225Y-11408091D01*
X5164348Y-11419601D01*
X5160208Y-11430400D01*
X5153996Y-11440150D01*
X5145906Y-11448515D01*
X5136128Y-11455155D01*
X5124856Y-11459734D01*
X5115632Y-11461410D01*
X5105453Y-11461561D01*
X5095551Y-11460198D01*
X5086974Y-11457387D01*
X5080842Y-11454138D01*
X5071114Y-11446907D01*
X5063436Y-11438334D01*
X5057809Y-11428734D01*
X5054234Y-11418423D01*
X5052712Y-11407717D01*
X5053243Y-11396930D01*
X5055828Y-11386378D01*
X5060469Y-11376375D01*
X5067165Y-11367238D01*
X5075918Y-11359281D01*
X5086727Y-11352819D01*
X5090535Y-11351087D01*
X5094395Y-11349684D01*
X5098254Y-11348896D01*
X5103026Y-11348551D01*
X5109628Y-11348475D01*
X5115123Y-11348521D01*
G36*
X5759361Y-11387406D02*
G01*
X5766783Y-11387432D01*
X5772458Y-11387499D01*
X5776655Y-11387627D01*
X5779643Y-11387835D01*
X5781690Y-11388142D01*
X5783065Y-11388569D01*
X5784038Y-11389134D01*
X5784876Y-11389857D01*
X5787022Y-11393003D01*
X5787199Y-11396520D01*
X5785231Y-11399820D01*
X5784644Y-11400351D01*
X5783735Y-11400896D01*
X5782401Y-11401312D01*
X5780380Y-11401618D01*
X5777409Y-11401829D01*
X5773227Y-11401964D01*
X5767573Y-11402038D01*
X5760184Y-11402071D01*
X5750800Y-11402078D01*
X5743233Y-11402074D01*
X5735442Y-11402048D01*
X5729441Y-11401984D01*
X5724969Y-11401863D01*
X5721762Y-11401670D01*
X5719561Y-11401386D01*
X5718103Y-11400994D01*
X5717126Y-11400478D01*
X5716368Y-11399820D01*
X5714466Y-11396902D01*
X5714550Y-11393588D01*
X5716882Y-11390173D01*
X5719652Y-11387402D01*
X5750958Y-11387402D01*
X5759361Y-11387406D01*
G37*
X5759361Y-11387406D02*
X5766783Y-11387432D01*
X5772458Y-11387499D01*
X5776655Y-11387627D01*
X5779643Y-11387835D01*
X5781690Y-11388142D01*
X5783065Y-11388569D01*
X5784038Y-11389134D01*
X5784876Y-11389857D01*
X5787022Y-11393003D01*
X5787199Y-11396520D01*
X5785231Y-11399820D01*
X5784644Y-11400351D01*
X5783735Y-11400896D01*
X5782401Y-11401312D01*
X5780380Y-11401618D01*
X5777409Y-11401829D01*
X5773227Y-11401964D01*
X5767573Y-11402038D01*
X5760184Y-11402071D01*
X5750800Y-11402078D01*
X5743233Y-11402074D01*
X5735442Y-11402048D01*
X5729441Y-11401984D01*
X5724969Y-11401863D01*
X5721762Y-11401670D01*
X5719561Y-11401386D01*
X5718103Y-11400994D01*
X5717126Y-11400478D01*
X5716368Y-11399820D01*
X5714466Y-11396902D01*
X5714550Y-11393588D01*
X5716882Y-11390173D01*
X5719652Y-11387402D01*
X5750958Y-11387402D01*
X5759361Y-11387406D01*
G36*
X5604216Y-10925378D02*
G01*
X5613387Y-10925554D01*
X5621196Y-10925767D01*
X5627757Y-10926021D01*
X5633183Y-10926320D01*
X5637587Y-10926668D01*
X5641083Y-10927067D01*
X5643785Y-10927523D01*
X5645806Y-10928037D01*
X5647259Y-10928614D01*
X5648259Y-10929257D01*
X5648919Y-10929970D01*
X5649351Y-10930756D01*
X5649671Y-10931619D01*
X5649990Y-10932563D01*
X5650424Y-10933591D01*
X5650641Y-10934169D01*
X5650878Y-10935230D01*
X5651096Y-10936807D01*
X5651294Y-10939010D01*
X5651474Y-10941952D01*
X5651637Y-10945745D01*
X5651784Y-10950498D01*
X5651915Y-10956325D01*
X5652031Y-10963336D01*
X5652134Y-10971644D01*
X5652224Y-10981359D01*
X5652301Y-10992594D01*
X5652368Y-11005459D01*
X5652424Y-11020066D01*
X5652471Y-11036528D01*
X5652509Y-11054954D01*
X5652540Y-11075457D01*
X5652563Y-11098149D01*
X5652581Y-11123141D01*
X5652594Y-11150543D01*
X5652602Y-11180469D01*
X5652608Y-11213029D01*
X5652609Y-11223347D01*
X5652609Y-11255201D01*
X5652605Y-11284453D01*
X5652596Y-11311213D01*
X5652580Y-11335591D01*
X5652557Y-11357698D01*
X5652527Y-11377644D01*
X5652487Y-11395539D01*
X5652439Y-11411494D01*
X5652379Y-11425618D01*
X5652309Y-11438021D01*
X5652227Y-11448815D01*
X5652133Y-11458109D01*
X5652025Y-11466013D01*
X5651902Y-11472637D01*
X5651765Y-11478093D01*
X5651612Y-11482489D01*
X5651442Y-11485937D01*
X5651255Y-11488545D01*
X5651049Y-11490426D01*
X5650824Y-11491688D01*
X5650580Y-11492442D01*
X5650471Y-11492682D01*
X5650113Y-11493664D01*
X5649852Y-11494565D01*
X5649574Y-11495388D01*
X5649165Y-11496136D01*
X5648511Y-11496815D01*
X5647498Y-11497426D01*
X5646014Y-11497974D01*
X5643944Y-11498462D01*
X5641174Y-11498895D01*
X5637592Y-11499275D01*
X5633082Y-11499607D01*
X5627532Y-11499894D01*
X5620828Y-11500139D01*
X5612855Y-11500347D01*
X5603502Y-11500521D01*
X5592653Y-11500664D01*
X5580195Y-11500781D01*
X5566014Y-11500874D01*
X5549997Y-11500949D01*
X5532030Y-11501007D01*
X5511999Y-11501053D01*
X5489790Y-11501091D01*
X5465290Y-11501124D01*
X5438386Y-11501156D01*
X5408963Y-11501191D01*
X5376908Y-11501232D01*
X5373027Y-11501237D01*
X5341175Y-11501282D01*
X5311942Y-11501325D01*
X5285214Y-11501364D01*
X5260878Y-11501393D01*
X5238819Y-11501412D01*
X5218924Y-11501415D01*
X5201080Y-11501400D01*
X5185172Y-11501364D01*
X5171087Y-11501304D01*
X5158711Y-11501216D01*
X5147930Y-11501097D01*
X5138630Y-11500944D01*
X5130699Y-11500754D01*
X5124021Y-11500524D01*
X5118484Y-11500249D01*
X5113973Y-11499928D01*
X5110375Y-11499557D01*
X5107576Y-11499132D01*
X5105462Y-11498651D01*
X5103920Y-11498111D01*
X5102836Y-11497507D01*
X5102095Y-11496837D01*
X5101586Y-11496098D01*
X5101192Y-11495286D01*
X5100802Y-11494399D01*
X5100300Y-11493432D01*
X5100140Y-11493150D01*
X5098594Y-11488871D01*
X5097958Y-11484187D01*
X5097958Y-11478907D01*
X5109972Y-11478819D01*
X5111354Y-11478797D01*
X5125406Y-11477118D01*
X5138628Y-11472844D01*
X5150880Y-11466033D01*
X5162021Y-11456745D01*
X5166565Y-11451760D01*
X5174097Y-11440662D01*
X5179349Y-11428553D01*
X5182319Y-11415785D01*
X5183004Y-11402712D01*
X5181401Y-11389685D01*
X5177507Y-11377059D01*
X5171320Y-11365185D01*
X5162836Y-11354416D01*
X5159845Y-11351422D01*
X5151925Y-11345094D01*
X5283309Y-11345094D01*
X5283309Y-11453410D01*
X5568201Y-11454193D01*
X5576402Y-11458033D01*
X5580466Y-11460058D01*
X5584538Y-11462350D01*
X5587042Y-11464081D01*
X5587047Y-11464086D01*
X5587629Y-11464506D01*
X5588110Y-11464466D01*
X5588500Y-11463738D01*
X5588808Y-11462092D01*
X5589044Y-11459301D01*
X5589218Y-11455136D01*
X5589338Y-11449367D01*
X5589416Y-11441767D01*
X5589459Y-11432107D01*
X5589478Y-11420158D01*
X5589482Y-11405692D01*
X5589482Y-11345094D01*
X5580215Y-11350217D01*
X5570947Y-11355339D01*
X5301844Y-11355339D01*
X5292577Y-11350217D01*
X5283309Y-11345094D01*
X5151925Y-11345094D01*
X5148771Y-11342574D01*
X5136753Y-11336295D01*
X5123714Y-11332552D01*
X5109576Y-11331312D01*
X5097958Y-11331312D01*
X5097958Y-11320741D01*
X5172098Y-11320741D01*
X5176445Y-11314699D01*
X5180530Y-11309590D01*
X5187192Y-11302391D01*
X5195543Y-11294225D01*
X5205263Y-11285402D01*
X5216034Y-11276231D01*
X5218914Y-11273870D01*
X5223854Y-11269849D01*
X5230335Y-11264593D01*
X5238141Y-11258276D01*
X5247056Y-11251072D01*
X5256863Y-11243156D01*
X5267345Y-11234701D01*
X5278287Y-11225882D01*
X5283309Y-11221837D01*
X5289472Y-11216873D01*
X5300685Y-11207847D01*
X5311707Y-11198980D01*
X5322324Y-11190445D01*
X5332319Y-11182416D01*
X5341475Y-11175067D01*
X5349577Y-11168573D01*
X5356407Y-11163107D01*
X5361750Y-11158845D01*
X5365390Y-11155959D01*
X5367109Y-11154624D01*
X5367755Y-11154514D01*
X5368984Y-11154881D01*
X5370917Y-11155830D01*
X5373692Y-11157458D01*
X5377446Y-11159858D01*
X5382315Y-11163125D01*
X5388438Y-11167355D01*
X5395950Y-11172642D01*
X5404990Y-11179081D01*
X5415694Y-11186767D01*
X5428200Y-11195793D01*
X5442644Y-11206256D01*
X5459165Y-11218250D01*
X5472315Y-11227807D01*
X5488345Y-11239467D01*
X5502424Y-11249723D01*
X5514705Y-11258694D01*
X5525347Y-11266501D01*
X5534504Y-11273263D01*
X5542334Y-11279098D01*
X5548993Y-11284125D01*
X5554636Y-11288465D01*
X5559420Y-11292237D01*
X5563502Y-11295559D01*
X5567037Y-11298551D01*
X5570182Y-11301332D01*
X5573092Y-11304022D01*
X5575925Y-11306740D01*
X5578837Y-11309605D01*
X5589482Y-11320162D01*
X5589488Y-11178226D01*
X5580887Y-11178672D01*
X5580455Y-11178694D01*
X5577016Y-11178778D01*
X5573722Y-11178618D01*
X5570391Y-11178105D01*
X5566843Y-11177132D01*
X5562897Y-11175592D01*
X5558374Y-11173378D01*
X5553093Y-11170382D01*
X5546872Y-11166497D01*
X5539533Y-11161615D01*
X5530893Y-11155629D01*
X5520774Y-11148432D01*
X5508994Y-11139917D01*
X5495372Y-11129976D01*
X5479730Y-11118502D01*
X5424589Y-11077999D01*
X5488523Y-11077642D01*
X5494487Y-11077611D01*
X5510551Y-11077555D01*
X5524214Y-11077580D01*
X5535735Y-11077716D01*
X5545373Y-11077994D01*
X5553386Y-11078442D01*
X5560034Y-11079090D01*
X5565573Y-11079969D01*
X5570264Y-11081108D01*
X5574364Y-11082538D01*
X5578132Y-11084287D01*
X5581827Y-11086387D01*
X5585707Y-11088866D01*
X5589482Y-11091358D01*
X5589482Y-10961843D01*
X5585020Y-10965189D01*
X5584314Y-10965712D01*
X5577844Y-10969901D01*
X5571304Y-10972789D01*
X5563810Y-10974685D01*
X5554478Y-10975899D01*
X5554071Y-10975933D01*
X5550222Y-10976109D01*
X5543800Y-10976268D01*
X5534952Y-10976409D01*
X5523825Y-10976532D01*
X5510565Y-10976636D01*
X5495319Y-10976720D01*
X5478234Y-10976783D01*
X5459457Y-10976825D01*
X5439134Y-10976845D01*
X5417412Y-10976842D01*
X5394438Y-10976816D01*
X5370359Y-10976766D01*
X5348760Y-10976713D01*
X5325248Y-10976656D01*
X5304213Y-10976600D01*
X5285505Y-10976538D01*
X5268979Y-10976463D01*
X5254486Y-10976368D01*
X5241880Y-10976246D01*
X5231012Y-10976089D01*
X5221735Y-10975891D01*
X5213903Y-10975645D01*
X5207367Y-10975344D01*
X5201981Y-10974981D01*
X5197596Y-10974549D01*
X5194066Y-10974040D01*
X5191243Y-10973448D01*
X5188980Y-10972766D01*
X5187130Y-10971986D01*
X5185544Y-10971103D01*
X5184076Y-10970108D01*
X5182579Y-10968995D01*
X5180904Y-10967756D01*
X5179226Y-10966558D01*
X5175908Y-10964243D01*
X5173815Y-10962856D01*
X5173727Y-10962823D01*
X5173331Y-10963307D01*
X5173001Y-10965016D01*
X5172731Y-10968139D01*
X5172517Y-10972868D01*
X5172352Y-10979392D01*
X5172234Y-10987900D01*
X5172155Y-10998585D01*
X5172112Y-11011635D01*
X5172098Y-11027240D01*
X5172098Y-11092659D01*
X5176196Y-11089211D01*
X5179010Y-11087213D01*
X5185646Y-11083887D01*
X5193898Y-11080972D01*
X5203053Y-11078748D01*
X5203922Y-11078606D01*
X5208503Y-11078184D01*
X5215584Y-11077865D01*
X5225212Y-11077647D01*
X5237438Y-11077529D01*
X5252310Y-11077512D01*
X5269877Y-11077594D01*
X5328526Y-11077999D01*
X5275571Y-11119875D01*
X5274054Y-11121074D01*
X5260610Y-11131693D01*
X5249097Y-11140759D01*
X5239319Y-11148416D01*
X5231079Y-11154809D01*
X5224183Y-11160081D01*
X5218433Y-11164377D01*
X5213636Y-11167841D01*
X5209594Y-11170617D01*
X5206112Y-11172850D01*
X5202995Y-11174684D01*
X5200046Y-11176264D01*
X5197070Y-11177733D01*
X5191803Y-11179992D01*
X5186245Y-11181452D01*
X5180251Y-11181841D01*
X5172098Y-11181802D01*
X5172098Y-11320741D01*
X5097958Y-11320741D01*
X5097958Y-11134223D01*
X5097957Y-11121909D01*
X5097954Y-11095457D01*
X5097951Y-11071561D01*
X5097955Y-11050090D01*
X5097970Y-11030910D01*
X5098001Y-11013891D01*
X5098055Y-10998899D01*
X5098136Y-10985803D01*
X5098249Y-10974471D01*
X5098399Y-10964770D01*
X5098593Y-10956569D01*
X5098834Y-10949734D01*
X5099128Y-10944135D01*
X5099481Y-10939638D01*
X5099898Y-10936112D01*
X5100384Y-10933425D01*
X5100943Y-10931444D01*
X5101582Y-10930038D01*
X5102306Y-10929074D01*
X5103119Y-10928419D01*
X5104028Y-10927943D01*
X5105037Y-10927512D01*
X5106151Y-10926995D01*
X5106169Y-10926986D01*
X5106898Y-10926735D01*
X5108120Y-10926505D01*
X5109945Y-10926294D01*
X5112489Y-10926103D01*
X5115862Y-10925930D01*
X5120178Y-10925774D01*
X5125549Y-10925634D01*
X5132088Y-10925510D01*
X5139909Y-10925401D01*
X5149122Y-10925305D01*
X5159842Y-10925222D01*
X5172181Y-10925152D01*
X5186252Y-10925092D01*
X5202167Y-10925043D01*
X5220039Y-10925003D01*
X5239981Y-10924972D01*
X5262105Y-10924948D01*
X5286524Y-10924931D01*
X5313351Y-10924920D01*
X5342699Y-10924914D01*
X5374679Y-10924913D01*
X5380962Y-10924912D01*
X5412610Y-10924909D01*
X5441646Y-10924905D01*
X5468186Y-10924902D01*
X5492341Y-10924905D01*
X5514226Y-10924916D01*
X5533954Y-10924941D01*
X5551639Y-10924982D01*
X5567394Y-10925042D01*
X5581333Y-10925126D01*
X5589482Y-10925200D01*
X5593569Y-10925237D01*
X5604216Y-10925378D01*
G37*
X5604216Y-10925378D02*
X5613387Y-10925554D01*
X5621196Y-10925767D01*
X5627757Y-10926021D01*
X5633183Y-10926320D01*
X5637587Y-10926668D01*
X5641083Y-10927067D01*
X5643785Y-10927523D01*
X5645806Y-10928037D01*
X5647259Y-10928614D01*
X5648259Y-10929257D01*
X5648919Y-10929970D01*
X5649351Y-10930756D01*
X5649671Y-10931619D01*
X5649990Y-10932563D01*
X5650424Y-10933591D01*
X5650641Y-10934169D01*
X5650878Y-10935230D01*
X5651096Y-10936807D01*
X5651294Y-10939010D01*
X5651474Y-10941952D01*
X5651637Y-10945745D01*
X5651784Y-10950498D01*
X5651915Y-10956325D01*
X5652031Y-10963336D01*
X5652134Y-10971644D01*
X5652224Y-10981359D01*
X5652301Y-10992594D01*
X5652368Y-11005459D01*
X5652424Y-11020066D01*
X5652471Y-11036528D01*
X5652509Y-11054954D01*
X5652540Y-11075457D01*
X5652563Y-11098149D01*
X5652581Y-11123141D01*
X5652594Y-11150543D01*
X5652602Y-11180469D01*
X5652608Y-11213029D01*
X5652609Y-11223347D01*
X5652609Y-11255201D01*
X5652605Y-11284453D01*
X5652596Y-11311213D01*
X5652580Y-11335591D01*
X5652557Y-11357698D01*
X5652527Y-11377644D01*
X5652487Y-11395539D01*
X5652439Y-11411494D01*
X5652379Y-11425618D01*
X5652309Y-11438021D01*
X5652227Y-11448815D01*
X5652133Y-11458109D01*
X5652025Y-11466013D01*
X5651902Y-11472637D01*
X5651765Y-11478093D01*
X5651612Y-11482489D01*
X5651442Y-11485937D01*
X5651255Y-11488545D01*
X5651049Y-11490426D01*
X5650824Y-11491688D01*
X5650580Y-11492442D01*
X5650471Y-11492682D01*
X5650113Y-11493664D01*
X5649852Y-11494565D01*
X5649574Y-11495388D01*
X5649165Y-11496136D01*
X5648511Y-11496815D01*
X5647498Y-11497426D01*
X5646014Y-11497974D01*
X5643944Y-11498462D01*
X5641174Y-11498895D01*
X5637592Y-11499275D01*
X5633082Y-11499607D01*
X5627532Y-11499894D01*
X5620828Y-11500139D01*
X5612855Y-11500347D01*
X5603502Y-11500521D01*
X5592653Y-11500664D01*
X5580195Y-11500781D01*
X5566014Y-11500874D01*
X5549997Y-11500949D01*
X5532030Y-11501007D01*
X5511999Y-11501053D01*
X5489790Y-11501091D01*
X5465290Y-11501124D01*
X5438386Y-11501156D01*
X5408963Y-11501191D01*
X5376908Y-11501232D01*
X5373027Y-11501237D01*
X5341175Y-11501282D01*
X5311942Y-11501325D01*
X5285214Y-11501364D01*
X5260878Y-11501393D01*
X5238819Y-11501412D01*
X5218924Y-11501415D01*
X5201080Y-11501400D01*
X5185172Y-11501364D01*
X5171087Y-11501304D01*
X5158711Y-11501216D01*
X5147930Y-11501097D01*
X5138630Y-11500944D01*
X5130699Y-11500754D01*
X5124021Y-11500524D01*
X5118484Y-11500249D01*
X5113973Y-11499928D01*
X5110375Y-11499557D01*
X5107576Y-11499132D01*
X5105462Y-11498651D01*
X5103920Y-11498111D01*
X5102836Y-11497507D01*
X5102095Y-11496837D01*
X5101586Y-11496098D01*
X5101192Y-11495286D01*
X5100802Y-11494399D01*
X5100300Y-11493432D01*
X5100140Y-11493150D01*
X5098594Y-11488871D01*
X5097958Y-11484187D01*
X5097958Y-11478907D01*
X5109972Y-11478819D01*
X5111354Y-11478797D01*
X5125406Y-11477118D01*
X5138628Y-11472844D01*
X5150880Y-11466033D01*
X5162021Y-11456745D01*
X5166565Y-11451760D01*
X5174097Y-11440662D01*
X5179349Y-11428553D01*
X5182319Y-11415785D01*
X5183004Y-11402712D01*
X5181401Y-11389685D01*
X5177507Y-11377059D01*
X5171320Y-11365185D01*
X5162836Y-11354416D01*
X5159845Y-11351422D01*
X5151925Y-11345094D01*
X5283309Y-11345094D01*
X5283309Y-11453410D01*
X5568201Y-11454193D01*
X5576402Y-11458033D01*
X5580466Y-11460058D01*
X5584538Y-11462350D01*
X5587042Y-11464081D01*
X5587047Y-11464086D01*
X5587629Y-11464506D01*
X5588110Y-11464466D01*
X5588500Y-11463738D01*
X5588808Y-11462092D01*
X5589044Y-11459301D01*
X5589218Y-11455136D01*
X5589338Y-11449367D01*
X5589416Y-11441767D01*
X5589459Y-11432107D01*
X5589478Y-11420158D01*
X5589482Y-11405692D01*
X5589482Y-11345094D01*
X5580215Y-11350217D01*
X5570947Y-11355339D01*
X5301844Y-11355339D01*
X5292577Y-11350217D01*
X5283309Y-11345094D01*
X5151925Y-11345094D01*
X5148771Y-11342574D01*
X5136753Y-11336295D01*
X5123714Y-11332552D01*
X5109576Y-11331312D01*
X5097958Y-11331312D01*
X5097958Y-11320741D01*
X5172098Y-11320741D01*
X5176445Y-11314699D01*
X5180530Y-11309590D01*
X5187192Y-11302391D01*
X5195543Y-11294225D01*
X5205263Y-11285402D01*
X5216034Y-11276231D01*
X5218914Y-11273870D01*
X5223854Y-11269849D01*
X5230335Y-11264593D01*
X5238141Y-11258276D01*
X5247056Y-11251072D01*
X5256863Y-11243156D01*
X5267345Y-11234701D01*
X5278287Y-11225882D01*
X5283309Y-11221837D01*
X5289472Y-11216873D01*
X5300685Y-11207847D01*
X5311707Y-11198980D01*
X5322324Y-11190445D01*
X5332319Y-11182416D01*
X5341475Y-11175067D01*
X5349577Y-11168573D01*
X5356407Y-11163107D01*
X5361750Y-11158845D01*
X5365390Y-11155959D01*
X5367109Y-11154624D01*
X5367755Y-11154514D01*
X5368984Y-11154881D01*
X5370917Y-11155830D01*
X5373692Y-11157458D01*
X5377446Y-11159858D01*
X5382315Y-11163125D01*
X5388438Y-11167355D01*
X5395950Y-11172642D01*
X5404990Y-11179081D01*
X5415694Y-11186767D01*
X5428200Y-11195793D01*
X5442644Y-11206256D01*
X5459165Y-11218250D01*
X5472315Y-11227807D01*
X5488345Y-11239467D01*
X5502424Y-11249723D01*
X5514705Y-11258694D01*
X5525347Y-11266501D01*
X5534504Y-11273263D01*
X5542334Y-11279098D01*
X5548993Y-11284125D01*
X5554636Y-11288465D01*
X5559420Y-11292237D01*
X5563502Y-11295559D01*
X5567037Y-11298551D01*
X5570182Y-11301332D01*
X5573092Y-11304022D01*
X5575925Y-11306740D01*
X5578837Y-11309605D01*
X5589482Y-11320162D01*
X5589488Y-11178226D01*
X5580887Y-11178672D01*
X5580455Y-11178694D01*
X5577016Y-11178778D01*
X5573722Y-11178618D01*
X5570391Y-11178105D01*
X5566843Y-11177132D01*
X5562897Y-11175592D01*
X5558374Y-11173378D01*
X5553093Y-11170382D01*
X5546872Y-11166497D01*
X5539533Y-11161615D01*
X5530893Y-11155629D01*
X5520774Y-11148432D01*
X5508994Y-11139917D01*
X5495372Y-11129976D01*
X5479730Y-11118502D01*
X5424589Y-11077999D01*
X5488523Y-11077642D01*
X5494487Y-11077611D01*
X5510551Y-11077555D01*
X5524214Y-11077580D01*
X5535735Y-11077716D01*
X5545373Y-11077994D01*
X5553386Y-11078442D01*
X5560034Y-11079090D01*
X5565573Y-11079969D01*
X5570264Y-11081108D01*
X5574364Y-11082538D01*
X5578132Y-11084287D01*
X5581827Y-11086387D01*
X5585707Y-11088866D01*
X5589482Y-11091358D01*
X5589482Y-10961843D01*
X5585020Y-10965189D01*
X5584314Y-10965712D01*
X5577844Y-10969901D01*
X5571304Y-10972789D01*
X5563810Y-10974685D01*
X5554478Y-10975899D01*
X5554071Y-10975933D01*
X5550222Y-10976109D01*
X5543800Y-10976268D01*
X5534952Y-10976409D01*
X5523825Y-10976532D01*
X5510565Y-10976636D01*
X5495319Y-10976720D01*
X5478234Y-10976783D01*
X5459457Y-10976825D01*
X5439134Y-10976845D01*
X5417412Y-10976842D01*
X5394438Y-10976816D01*
X5370359Y-10976766D01*
X5348760Y-10976713D01*
X5325248Y-10976656D01*
X5304213Y-10976600D01*
X5285505Y-10976538D01*
X5268979Y-10976463D01*
X5254486Y-10976368D01*
X5241880Y-10976246D01*
X5231012Y-10976089D01*
X5221735Y-10975891D01*
X5213903Y-10975645D01*
X5207367Y-10975344D01*
X5201981Y-10974981D01*
X5197596Y-10974549D01*
X5194066Y-10974040D01*
X5191243Y-10973448D01*
X5188980Y-10972766D01*
X5187130Y-10971986D01*
X5185544Y-10971103D01*
X5184076Y-10970108D01*
X5182579Y-10968995D01*
X5180904Y-10967756D01*
X5179226Y-10966558D01*
X5175908Y-10964243D01*
X5173815Y-10962856D01*
X5173727Y-10962823D01*
X5173331Y-10963307D01*
X5173001Y-10965016D01*
X5172731Y-10968139D01*
X5172517Y-10972868D01*
X5172352Y-10979392D01*
X5172234Y-10987900D01*
X5172155Y-10998585D01*
X5172112Y-11011635D01*
X5172098Y-11027240D01*
X5172098Y-11092659D01*
X5176196Y-11089211D01*
X5179010Y-11087213D01*
X5185646Y-11083887D01*
X5193898Y-11080972D01*
X5203053Y-11078748D01*
X5203922Y-11078606D01*
X5208503Y-11078184D01*
X5215584Y-11077865D01*
X5225212Y-11077647D01*
X5237438Y-11077529D01*
X5252310Y-11077512D01*
X5269877Y-11077594D01*
X5328526Y-11077999D01*
X5275571Y-11119875D01*
X5274054Y-11121074D01*
X5260610Y-11131693D01*
X5249097Y-11140759D01*
X5239319Y-11148416D01*
X5231079Y-11154809D01*
X5224183Y-11160081D01*
X5218433Y-11164377D01*
X5213636Y-11167841D01*
X5209594Y-11170617D01*
X5206112Y-11172850D01*
X5202995Y-11174684D01*
X5200046Y-11176264D01*
X5197070Y-11177733D01*
X5191803Y-11179992D01*
X5186245Y-11181452D01*
X5180251Y-11181841D01*
X5172098Y-11181802D01*
X5172098Y-11320741D01*
X5097958Y-11320741D01*
X5097958Y-11134223D01*
X5097957Y-11121909D01*
X5097954Y-11095457D01*
X5097951Y-11071561D01*
X5097955Y-11050090D01*
X5097970Y-11030910D01*
X5098001Y-11013891D01*
X5098055Y-10998899D01*
X5098136Y-10985803D01*
X5098249Y-10974471D01*
X5098399Y-10964770D01*
X5098593Y-10956569D01*
X5098834Y-10949734D01*
X5099128Y-10944135D01*
X5099481Y-10939638D01*
X5099898Y-10936112D01*
X5100384Y-10933425D01*
X5100943Y-10931444D01*
X5101582Y-10930038D01*
X5102306Y-10929074D01*
X5103119Y-10928419D01*
X5104028Y-10927943D01*
X5105037Y-10927512D01*
X5106151Y-10926995D01*
X5106169Y-10926986D01*
X5106898Y-10926735D01*
X5108120Y-10926505D01*
X5109945Y-10926294D01*
X5112489Y-10926103D01*
X5115862Y-10925930D01*
X5120178Y-10925774D01*
X5125549Y-10925634D01*
X5132088Y-10925510D01*
X5139909Y-10925401D01*
X5149122Y-10925305D01*
X5159842Y-10925222D01*
X5172181Y-10925152D01*
X5186252Y-10925092D01*
X5202167Y-10925043D01*
X5220039Y-10925003D01*
X5239981Y-10924972D01*
X5262105Y-10924948D01*
X5286524Y-10924931D01*
X5313351Y-10924920D01*
X5342699Y-10924914D01*
X5374679Y-10924913D01*
X5380962Y-10924912D01*
X5412610Y-10924909D01*
X5441646Y-10924905D01*
X5468186Y-10924902D01*
X5492341Y-10924905D01*
X5514226Y-10924916D01*
X5533954Y-10924941D01*
X5551639Y-10924982D01*
X5567394Y-10925042D01*
X5581333Y-10925126D01*
X5589482Y-10925200D01*
X5593569Y-10925237D01*
X5604216Y-10925378D01*
G36*
X5406549Y-11531351D02*
G01*
X5431276Y-11534307D01*
X5454423Y-11539333D01*
X5476155Y-11546474D01*
X5496635Y-11555775D01*
X5516028Y-11567281D01*
X5530844Y-11578089D01*
X5547515Y-11593013D01*
X5561794Y-11609279D01*
X5573676Y-11626881D01*
X5583158Y-11645811D01*
X5590234Y-11666062D01*
X5594899Y-11687627D01*
X5594935Y-11687873D01*
X5595300Y-11692026D01*
X5595570Y-11698293D01*
X5595733Y-11706094D01*
X5595778Y-11714851D01*
X5595690Y-11723983D01*
X5595561Y-11730383D01*
X5595264Y-11739879D01*
X5594838Y-11747489D01*
X5594237Y-11753760D01*
X5593418Y-11759243D01*
X5592333Y-11764485D01*
X5590931Y-11770384D01*
X5589335Y-11776537D01*
X5587661Y-11782103D01*
X5585712Y-11787585D01*
X5583292Y-11793489D01*
X5580206Y-11800320D01*
X5576257Y-11808584D01*
X5571249Y-11818784D01*
X5557306Y-11846996D01*
X5520192Y-11824400D01*
X5515334Y-11821442D01*
X5506614Y-11816127D01*
X5498818Y-11811370D01*
X5492231Y-11807345D01*
X5487136Y-11804225D01*
X5483820Y-11802184D01*
X5482564Y-11801396D01*
X5482602Y-11801177D01*
X5483830Y-11799413D01*
X5486380Y-11796312D01*
X5489854Y-11792367D01*
X5495858Y-11785339D01*
X5504735Y-11772794D01*
X5510924Y-11760622D01*
X5514015Y-11751827D01*
X5517173Y-11736950D01*
X5517733Y-11722332D01*
X5515733Y-11708187D01*
X5511209Y-11694726D01*
X5504202Y-11682160D01*
X5494749Y-11670702D01*
X5487786Y-11664326D01*
X5474907Y-11655345D01*
X5459962Y-11647975D01*
X5442874Y-11642181D01*
X5423567Y-11637929D01*
X5422368Y-11637736D01*
X5414599Y-11636845D01*
X5404947Y-11636182D01*
X5394070Y-11635751D01*
X5382628Y-11635559D01*
X5371282Y-11635612D01*
X5360689Y-11635913D01*
X5351511Y-11636469D01*
X5344407Y-11637285D01*
X5328313Y-11640412D01*
X5309513Y-11645674D01*
X5293055Y-11652292D01*
X5278950Y-11660257D01*
X5267211Y-11669560D01*
X5257851Y-11680192D01*
X5250883Y-11692145D01*
X5246320Y-11705409D01*
X5245753Y-11708352D01*
X5245014Y-11715727D01*
X5244772Y-11724346D01*
X5245016Y-11733243D01*
X5245731Y-11741453D01*
X5246904Y-11748010D01*
X5250641Y-11758933D01*
X5257463Y-11771609D01*
X5266440Y-11782896D01*
X5268331Y-11784888D01*
X5271677Y-11788497D01*
X5273929Y-11791048D01*
X5274678Y-11792085D01*
X5274319Y-11792340D01*
X5272057Y-11793911D01*
X5267950Y-11796748D01*
X5262268Y-11800665D01*
X5255286Y-11805474D01*
X5247274Y-11810987D01*
X5238505Y-11817016D01*
X5202625Y-11841680D01*
X5200974Y-11836170D01*
X5200787Y-11835595D01*
X5199301Y-11831853D01*
X5196906Y-11826457D01*
X5193888Y-11820041D01*
X5190537Y-11813238D01*
X5189055Y-11810274D01*
X5181405Y-11793814D01*
X5175489Y-11778642D01*
X5171157Y-11764177D01*
X5168256Y-11749833D01*
X5166635Y-11735028D01*
X5166143Y-11719177D01*
X5166393Y-11708147D01*
X5168086Y-11689697D01*
X5171502Y-11672556D01*
X5176784Y-11656089D01*
X5184075Y-11639656D01*
X5193385Y-11623389D01*
X5206076Y-11605931D01*
X5220750Y-11589743D01*
X5237042Y-11575179D01*
X5254591Y-11562596D01*
X5273032Y-11552352D01*
X5275004Y-11551422D01*
X5294046Y-11543634D01*
X5313833Y-11537717D01*
X5334742Y-11533593D01*
X5357152Y-11531186D01*
X5381441Y-11530420D01*
X5406549Y-11531351D01*
G37*
X5406549Y-11531351D02*
X5431276Y-11534307D01*
X5454423Y-11539333D01*
X5476155Y-11546474D01*
X5496635Y-11555775D01*
X5516028Y-11567281D01*
X5530844Y-11578089D01*
X5547515Y-11593013D01*
X5561794Y-11609279D01*
X5573676Y-11626881D01*
X5583158Y-11645811D01*
X5590234Y-11666062D01*
X5594899Y-11687627D01*
X5594935Y-11687873D01*
X5595300Y-11692026D01*
X5595570Y-11698293D01*
X5595733Y-11706094D01*
X5595778Y-11714851D01*
X5595690Y-11723983D01*
X5595561Y-11730383D01*
X5595264Y-11739879D01*
X5594838Y-11747489D01*
X5594237Y-11753760D01*
X5593418Y-11759243D01*
X5592333Y-11764485D01*
X5590931Y-11770384D01*
X5589335Y-11776537D01*
X5587661Y-11782103D01*
X5585712Y-11787585D01*
X5583292Y-11793489D01*
X5580206Y-11800320D01*
X5576257Y-11808584D01*
X5571249Y-11818784D01*
X5557306Y-11846996D01*
X5520192Y-11824400D01*
X5515334Y-11821442D01*
X5506614Y-11816127D01*
X5498818Y-11811370D01*
X5492231Y-11807345D01*
X5487136Y-11804225D01*
X5483820Y-11802184D01*
X5482564Y-11801396D01*
X5482602Y-11801177D01*
X5483830Y-11799413D01*
X5486380Y-11796312D01*
X5489854Y-11792367D01*
X5495858Y-11785339D01*
X5504735Y-11772794D01*
X5510924Y-11760622D01*
X5514015Y-11751827D01*
X5517173Y-11736950D01*
X5517733Y-11722332D01*
X5515733Y-11708187D01*
X5511209Y-11694726D01*
X5504202Y-11682160D01*
X5494749Y-11670702D01*
X5487786Y-11664326D01*
X5474907Y-11655345D01*
X5459962Y-11647975D01*
X5442874Y-11642181D01*
X5423567Y-11637929D01*
X5422368Y-11637736D01*
X5414599Y-11636845D01*
X5404947Y-11636182D01*
X5394070Y-11635751D01*
X5382628Y-11635559D01*
X5371282Y-11635612D01*
X5360689Y-11635913D01*
X5351511Y-11636469D01*
X5344407Y-11637285D01*
X5328313Y-11640412D01*
X5309513Y-11645674D01*
X5293055Y-11652292D01*
X5278950Y-11660257D01*
X5267211Y-11669560D01*
X5257851Y-11680192D01*
X5250883Y-11692145D01*
X5246320Y-11705409D01*
X5245753Y-11708352D01*
X5245014Y-11715727D01*
X5244772Y-11724346D01*
X5245016Y-11733243D01*
X5245731Y-11741453D01*
X5246904Y-11748010D01*
X5250641Y-11758933D01*
X5257463Y-11771609D01*
X5266440Y-11782896D01*
X5268331Y-11784888D01*
X5271677Y-11788497D01*
X5273929Y-11791048D01*
X5274678Y-11792085D01*
X5274319Y-11792340D01*
X5272057Y-11793911D01*
X5267950Y-11796748D01*
X5262268Y-11800665D01*
X5255286Y-11805474D01*
X5247274Y-11810987D01*
X5238505Y-11817016D01*
X5202625Y-11841680D01*
X5200974Y-11836170D01*
X5200787Y-11835595D01*
X5199301Y-11831853D01*
X5196906Y-11826457D01*
X5193888Y-11820041D01*
X5190537Y-11813238D01*
X5189055Y-11810274D01*
X5181405Y-11793814D01*
X5175489Y-11778642D01*
X5171157Y-11764177D01*
X5168256Y-11749833D01*
X5166635Y-11735028D01*
X5166143Y-11719177D01*
X5166393Y-11708147D01*
X5168086Y-11689697D01*
X5171502Y-11672556D01*
X5176784Y-11656089D01*
X5184075Y-11639656D01*
X5193385Y-11623389D01*
X5206076Y-11605931D01*
X5220750Y-11589743D01*
X5237042Y-11575179D01*
X5254591Y-11562596D01*
X5273032Y-11552352D01*
X5275004Y-11551422D01*
X5294046Y-11543634D01*
X5313833Y-11537717D01*
X5334742Y-11533593D01*
X5357152Y-11531186D01*
X5381441Y-11530420D01*
X5406549Y-11531351D01*
G36*
X5722395Y-11962679D02*
G01*
X5725852Y-11963966D01*
X5730687Y-11965942D01*
X5736586Y-11968464D01*
X5743239Y-11971390D01*
X5750333Y-11974577D01*
X5757555Y-11977882D01*
X5764592Y-11981162D01*
X5771132Y-11984274D01*
X5776864Y-11987076D01*
X5781473Y-11989424D01*
X5784649Y-11991175D01*
X5786077Y-11992187D01*
X5787414Y-11995628D01*
X5786778Y-11999798D01*
X5786308Y-12000334D01*
X5784093Y-12001917D01*
X5780417Y-12004137D01*
X5775645Y-12006779D01*
X5770143Y-12009626D01*
X5754219Y-12017604D01*
X5768878Y-12024922D01*
X5770807Y-12025892D01*
X5776042Y-12028590D01*
X5780521Y-12030993D01*
X5783819Y-12032869D01*
X5785513Y-12033988D01*
X5785637Y-12034102D01*
X5787166Y-12036914D01*
X5787334Y-12040420D01*
X5786077Y-12043525D01*
X5785792Y-12043767D01*
X5783730Y-12044993D01*
X5779975Y-12046967D01*
X5774792Y-12049557D01*
X5768446Y-12052634D01*
X5761202Y-12056065D01*
X5753326Y-12059720D01*
X5748913Y-12061744D01*
X5740840Y-12065421D01*
X5734473Y-12068267D01*
X5729579Y-12070369D01*
X5725930Y-12071817D01*
X5723293Y-12072698D01*
X5721440Y-12073102D01*
X5720139Y-12073116D01*
X5719160Y-12072829D01*
X5717072Y-12071363D01*
X5715042Y-12068703D01*
X5715007Y-12068628D01*
X5714307Y-12066669D01*
X5714254Y-12064923D01*
X5715052Y-12063232D01*
X5716903Y-12061436D01*
X5720011Y-12059376D01*
X5724580Y-12056893D01*
X5730812Y-12053827D01*
X5738911Y-12050020D01*
X5742049Y-12048557D01*
X5748368Y-12045582D01*
X5753828Y-12042972D01*
X5758133Y-12040873D01*
X5760983Y-12039428D01*
X5762081Y-12038783D01*
X5762023Y-12038647D01*
X5760628Y-12037648D01*
X5757674Y-12035919D01*
X5753513Y-12033659D01*
X5748494Y-12031068D01*
X5745345Y-12029471D01*
X5739810Y-12026576D01*
X5735908Y-12024327D01*
X5733361Y-12022506D01*
X5731887Y-12020893D01*
X5731208Y-12019269D01*
X5731044Y-12017416D01*
X5731091Y-12016366D01*
X5731512Y-12014755D01*
X5732599Y-12013223D01*
X5734626Y-12011563D01*
X5737869Y-12009566D01*
X5742604Y-12007024D01*
X5749106Y-12003727D01*
X5751032Y-12002754D01*
X5755699Y-12000308D01*
X5759315Y-11998284D01*
X5761554Y-11996871D01*
X5762088Y-11996256D01*
X5761761Y-11996119D01*
X5759670Y-11995182D01*
X5755976Y-11993496D01*
X5750991Y-11991204D01*
X5745027Y-11988450D01*
X5738394Y-11985377D01*
X5732672Y-11982705D01*
X5726473Y-11979743D01*
X5721899Y-11977436D01*
X5718695Y-11975638D01*
X5716605Y-11974203D01*
X5715376Y-11972986D01*
X5714751Y-11971839D01*
X5714461Y-11970898D01*
X5714446Y-11968387D01*
X5715981Y-11965673D01*
X5716079Y-11965543D01*
X5718343Y-11963335D01*
X5720565Y-11962230D01*
X5720629Y-11962225D01*
X5722395Y-11962679D01*
G37*
X5722395Y-11962679D02*
X5725852Y-11963966D01*
X5730687Y-11965942D01*
X5736586Y-11968464D01*
X5743239Y-11971390D01*
X5750333Y-11974577D01*
X5757555Y-11977882D01*
X5764592Y-11981162D01*
X5771132Y-11984274D01*
X5776864Y-11987076D01*
X5781473Y-11989424D01*
X5784649Y-11991175D01*
X5786077Y-11992187D01*
X5787414Y-11995628D01*
X5786778Y-11999798D01*
X5786308Y-12000334D01*
X5784093Y-12001917D01*
X5780417Y-12004137D01*
X5775645Y-12006779D01*
X5770143Y-12009626D01*
X5754219Y-12017604D01*
X5768878Y-12024922D01*
X5770807Y-12025892D01*
X5776042Y-12028590D01*
X5780521Y-12030993D01*
X5783819Y-12032869D01*
X5785513Y-12033988D01*
X5785637Y-12034102D01*
X5787166Y-12036914D01*
X5787334Y-12040420D01*
X5786077Y-12043525D01*
X5785792Y-12043767D01*
X5783730Y-12044993D01*
X5779975Y-12046967D01*
X5774792Y-12049557D01*
X5768446Y-12052634D01*
X5761202Y-12056065D01*
X5753326Y-12059720D01*
X5748913Y-12061744D01*
X5740840Y-12065421D01*
X5734473Y-12068267D01*
X5729579Y-12070369D01*
X5725930Y-12071817D01*
X5723293Y-12072698D01*
X5721440Y-12073102D01*
X5720139Y-12073116D01*
X5719160Y-12072829D01*
X5717072Y-12071363D01*
X5715042Y-12068703D01*
X5715007Y-12068628D01*
X5714307Y-12066669D01*
X5714254Y-12064923D01*
X5715052Y-12063232D01*
X5716903Y-12061436D01*
X5720011Y-12059376D01*
X5724580Y-12056893D01*
X5730812Y-12053827D01*
X5738911Y-12050020D01*
X5742049Y-12048557D01*
X5748368Y-12045582D01*
X5753828Y-12042972D01*
X5758133Y-12040873D01*
X5760983Y-12039428D01*
X5762081Y-12038783D01*
X5762023Y-12038647D01*
X5760628Y-12037648D01*
X5757674Y-12035919D01*
X5753513Y-12033659D01*
X5748494Y-12031068D01*
X5745345Y-12029471D01*
X5739810Y-12026576D01*
X5735908Y-12024327D01*
X5733361Y-12022506D01*
X5731887Y-12020893D01*
X5731208Y-12019269D01*
X5731044Y-12017416D01*
X5731091Y-12016366D01*
X5731512Y-12014755D01*
X5732599Y-12013223D01*
X5734626Y-12011563D01*
X5737869Y-12009566D01*
X5742604Y-12007024D01*
X5749106Y-12003727D01*
X5751032Y-12002754D01*
X5755699Y-12000308D01*
X5759315Y-11998284D01*
X5761554Y-11996871D01*
X5762088Y-11996256D01*
X5761761Y-11996119D01*
X5759670Y-11995182D01*
X5755976Y-11993496D01*
X5750991Y-11991204D01*
X5745027Y-11988450D01*
X5738394Y-11985377D01*
X5732672Y-11982705D01*
X5726473Y-11979743D01*
X5721899Y-11977436D01*
X5718695Y-11975638D01*
X5716605Y-11974203D01*
X5715376Y-11972986D01*
X5714751Y-11971839D01*
X5714461Y-11970898D01*
X5714446Y-11968387D01*
X5715981Y-11965673D01*
X5716079Y-11965543D01*
X5718343Y-11963335D01*
X5720565Y-11962230D01*
X5720629Y-11962225D01*
X5722395Y-11962679D01*
G36*
X5756653Y-11553351D02*
G01*
X5764561Y-11553373D01*
X5770656Y-11553434D01*
X5775210Y-11553553D01*
X5778500Y-11553749D01*
X5780801Y-11554042D01*
X5782387Y-11554450D01*
X5783533Y-11554992D01*
X5784514Y-11555689D01*
X5786953Y-11558731D01*
X5787241Y-11562226D01*
X5785332Y-11565924D01*
X5784985Y-11566342D01*
X5784132Y-11567160D01*
X5782977Y-11567766D01*
X5781194Y-11568204D01*
X5778456Y-11568518D01*
X5774439Y-11568752D01*
X5768817Y-11568949D01*
X5761263Y-11569153D01*
X5739350Y-11569718D01*
X5763414Y-11596247D01*
X5770091Y-11603630D01*
X5775903Y-11610148D01*
X5780399Y-11615367D01*
X5783691Y-11619475D01*
X5785892Y-11622657D01*
X5787113Y-11625100D01*
X5787468Y-11626990D01*
X5787068Y-11628514D01*
X5786025Y-11629858D01*
X5784451Y-11631209D01*
X5783603Y-11631834D01*
X5782545Y-11632397D01*
X5781129Y-11632818D01*
X5779084Y-11633113D01*
X5776138Y-11633299D01*
X5772020Y-11633391D01*
X5766458Y-11633405D01*
X5759182Y-11633359D01*
X5749919Y-11633267D01*
X5718424Y-11632935D01*
X5716267Y-11630270D01*
X5714648Y-11627664D01*
X5714371Y-11624378D01*
X5716266Y-11620925D01*
X5716625Y-11620494D01*
X5717478Y-11619681D01*
X5718637Y-11619078D01*
X5720427Y-11618642D01*
X5723175Y-11618329D01*
X5727203Y-11618096D01*
X5732839Y-11617899D01*
X5740407Y-11617695D01*
X5762392Y-11617131D01*
X5746012Y-11599069D01*
X5738149Y-11590395D01*
X5731310Y-11582818D01*
X5725775Y-11576604D01*
X5721438Y-11571594D01*
X5718192Y-11567629D01*
X5715931Y-11564547D01*
X5714549Y-11562191D01*
X5713938Y-11560399D01*
X5713993Y-11559013D01*
X5714607Y-11557872D01*
X5715673Y-11556817D01*
X5717085Y-11555689D01*
X5717681Y-11555243D01*
X5718731Y-11554643D01*
X5720113Y-11554185D01*
X5722104Y-11553850D01*
X5724977Y-11553619D01*
X5729008Y-11553472D01*
X5734473Y-11553391D01*
X5741645Y-11553356D01*
X5750800Y-11553349D01*
X5756653Y-11553351D01*
G37*
X5756653Y-11553351D02*
X5764561Y-11553373D01*
X5770656Y-11553434D01*
X5775210Y-11553553D01*
X5778500Y-11553749D01*
X5780801Y-11554042D01*
X5782387Y-11554450D01*
X5783533Y-11554992D01*
X5784514Y-11555689D01*
X5786953Y-11558731D01*
X5787241Y-11562226D01*
X5785332Y-11565924D01*
X5784985Y-11566342D01*
X5784132Y-11567160D01*
X5782977Y-11567766D01*
X5781194Y-11568204D01*
X5778456Y-11568518D01*
X5774439Y-11568752D01*
X5768817Y-11568949D01*
X5761263Y-11569153D01*
X5739350Y-11569718D01*
X5763414Y-11596247D01*
X5770091Y-11603630D01*
X5775903Y-11610148D01*
X5780399Y-11615367D01*
X5783691Y-11619475D01*
X5785892Y-11622657D01*
X5787113Y-11625100D01*
X5787468Y-11626990D01*
X5787068Y-11628514D01*
X5786025Y-11629858D01*
X5784451Y-11631209D01*
X5783603Y-11631834D01*
X5782545Y-11632397D01*
X5781129Y-11632818D01*
X5779084Y-11633113D01*
X5776138Y-11633299D01*
X5772020Y-11633391D01*
X5766458Y-11633405D01*
X5759182Y-11633359D01*
X5749919Y-11633267D01*
X5718424Y-11632935D01*
X5716267Y-11630270D01*
X5714648Y-11627664D01*
X5714371Y-11624378D01*
X5716266Y-11620925D01*
X5716625Y-11620494D01*
X5717478Y-11619681D01*
X5718637Y-11619078D01*
X5720427Y-11618642D01*
X5723175Y-11618329D01*
X5727203Y-11618096D01*
X5732839Y-11617899D01*
X5740407Y-11617695D01*
X5762392Y-11617131D01*
X5746012Y-11599069D01*
X5738149Y-11590395D01*
X5731310Y-11582818D01*
X5725775Y-11576604D01*
X5721438Y-11571594D01*
X5718192Y-11567629D01*
X5715931Y-11564547D01*
X5714549Y-11562191D01*
X5713938Y-11560399D01*
X5713993Y-11559013D01*
X5714607Y-11557872D01*
X5715673Y-11556817D01*
X5717085Y-11555689D01*
X5717681Y-11555243D01*
X5718731Y-11554643D01*
X5720113Y-11554185D01*
X5722104Y-11553850D01*
X5724977Y-11553619D01*
X5729008Y-11553472D01*
X5734473Y-11553391D01*
X5741645Y-11553356D01*
X5750800Y-11553349D01*
X5756653Y-11553351D01*
G36*
X5756757Y-11773485D02*
G01*
X5764635Y-11773507D01*
X5770706Y-11773569D01*
X5772813Y-11773625D01*
X5775244Y-11773689D01*
X5778521Y-11773886D01*
X5780813Y-11774179D01*
X5782394Y-11774586D01*
X5783536Y-11775128D01*
X5784514Y-11775822D01*
X5787488Y-11778162D01*
X5787429Y-11794731D01*
X5787399Y-11798210D01*
X5787056Y-11808059D01*
X5786288Y-11816155D01*
X5785032Y-11822864D01*
X5783227Y-11828553D01*
X5780809Y-11833585D01*
X5780617Y-11833921D01*
X5776946Y-11839702D01*
X5773249Y-11843938D01*
X5768901Y-11847219D01*
X5763273Y-11850139D01*
X5762311Y-11850568D01*
X5755993Y-11852825D01*
X5750455Y-11853522D01*
X5744952Y-11852662D01*
X5738739Y-11850248D01*
X5738570Y-11850168D01*
X5731628Y-11846123D01*
X5725968Y-11841055D01*
X5721511Y-11834782D01*
X5718178Y-11827125D01*
X5715890Y-11817901D01*
X5714568Y-11806931D01*
X5714131Y-11794033D01*
X5714131Y-11793676D01*
X5714141Y-11789287D01*
X5728786Y-11789287D01*
X5728831Y-11798035D01*
X5729079Y-11804727D01*
X5730204Y-11813967D01*
X5732158Y-11821899D01*
X5734855Y-11828096D01*
X5736928Y-11831190D01*
X5739905Y-11834002D01*
X5744147Y-11836336D01*
X5745744Y-11837049D01*
X5748994Y-11838231D01*
X5751437Y-11838474D01*
X5753910Y-11837913D01*
X5755498Y-11837340D01*
X5761489Y-11834047D01*
X5766064Y-11829314D01*
X5769378Y-11822937D01*
X5771583Y-11814716D01*
X5771633Y-11814437D01*
X5772229Y-11809808D01*
X5772652Y-11804169D01*
X5772813Y-11798675D01*
X5772813Y-11789287D01*
X5728786Y-11789287D01*
X5714141Y-11789287D01*
X5714145Y-11787674D01*
X5714249Y-11783481D01*
X5714508Y-11780669D01*
X5714989Y-11778812D01*
X5715758Y-11777483D01*
X5716882Y-11776253D01*
X5719652Y-11773482D01*
X5750596Y-11773482D01*
X5756757Y-11773485D01*
G37*
X5756757Y-11773485D02*
X5764635Y-11773507D01*
X5770706Y-11773569D01*
X5772813Y-11773625D01*
X5775244Y-11773689D01*
X5778521Y-11773886D01*
X5780813Y-11774179D01*
X5782394Y-11774586D01*
X5783536Y-11775128D01*
X5784514Y-11775822D01*
X5787488Y-11778162D01*
X5787429Y-11794731D01*
X5787399Y-11798210D01*
X5787056Y-11808059D01*
X5786288Y-11816155D01*
X5785032Y-11822864D01*
X5783227Y-11828553D01*
X5780809Y-11833585D01*
X5780617Y-11833921D01*
X5776946Y-11839702D01*
X5773249Y-11843938D01*
X5768901Y-11847219D01*
X5763273Y-11850139D01*
X5762311Y-11850568D01*
X5755993Y-11852825D01*
X5750455Y-11853522D01*
X5744952Y-11852662D01*
X5738739Y-11850248D01*
X5738570Y-11850168D01*
X5731628Y-11846123D01*
X5725968Y-11841055D01*
X5721511Y-11834782D01*
X5718178Y-11827125D01*
X5715890Y-11817901D01*
X5714568Y-11806931D01*
X5714131Y-11794033D01*
X5714131Y-11793676D01*
X5714141Y-11789287D01*
X5728786Y-11789287D01*
X5728831Y-11798035D01*
X5729079Y-11804727D01*
X5730204Y-11813967D01*
X5732158Y-11821899D01*
X5734855Y-11828096D01*
X5736928Y-11831190D01*
X5739905Y-11834002D01*
X5744147Y-11836336D01*
X5745744Y-11837049D01*
X5748994Y-11838231D01*
X5751437Y-11838474D01*
X5753910Y-11837913D01*
X5755498Y-11837340D01*
X5761489Y-11834047D01*
X5766064Y-11829314D01*
X5769378Y-11822937D01*
X5771583Y-11814716D01*
X5771633Y-11814437D01*
X5772229Y-11809808D01*
X5772652Y-11804169D01*
X5772813Y-11798675D01*
X5772813Y-11789287D01*
X5728786Y-11789287D01*
X5714141Y-11789287D01*
X5714145Y-11787674D01*
X5714249Y-11783481D01*
X5714508Y-11780669D01*
X5714989Y-11778812D01*
X5715758Y-11777483D01*
X5716882Y-11776253D01*
X5719652Y-11773482D01*
X5750596Y-11773482D01*
X5756757Y-11773485D01*
G36*
X5465191Y-12156947D02*
G01*
X5476396Y-12157780D01*
X5486710Y-12159219D01*
X5496743Y-12161329D01*
X5507104Y-12164174D01*
X5519488Y-12168489D01*
X5536206Y-12176412D01*
X5551181Y-12186132D01*
X5564270Y-12197499D01*
X5575332Y-12210364D01*
X5584226Y-12224579D01*
X5590810Y-12239995D01*
X5594942Y-12256464D01*
X5594975Y-12256662D01*
X5596133Y-12268698D01*
X5595979Y-12281921D01*
X5594607Y-12295391D01*
X5592113Y-12308163D01*
X5588593Y-12319295D01*
X5586450Y-12324046D01*
X5583194Y-12330234D01*
X5579469Y-12336593D01*
X5575687Y-12342459D01*
X5572256Y-12347169D01*
X5569587Y-12350058D01*
X5568854Y-12350722D01*
X5568598Y-12351512D01*
X5569870Y-12352041D01*
X5573075Y-12352431D01*
X5578618Y-12352804D01*
X5590169Y-12353491D01*
X5590528Y-12406074D01*
X5590888Y-12458658D01*
X5584679Y-12455020D01*
X5584312Y-12454803D01*
X5582589Y-12453745D01*
X5581054Y-12452785D01*
X5579574Y-12451918D01*
X5578015Y-12451139D01*
X5576244Y-12450443D01*
X5574127Y-12449824D01*
X5571532Y-12449278D01*
X5568325Y-12448799D01*
X5564372Y-12448382D01*
X5559541Y-12448022D01*
X5553697Y-12447714D01*
X5546707Y-12447452D01*
X5538439Y-12447231D01*
X5528759Y-12447047D01*
X5517533Y-12446894D01*
X5504627Y-12446766D01*
X5489910Y-12446660D01*
X5473247Y-12446569D01*
X5454504Y-12446488D01*
X5433549Y-12446413D01*
X5410249Y-12446338D01*
X5384469Y-12446257D01*
X5356077Y-12446166D01*
X5146698Y-12445480D01*
X5146339Y-12390904D01*
X5146315Y-12386935D01*
X5146267Y-12375258D01*
X5146258Y-12364578D01*
X5146284Y-12355186D01*
X5146345Y-12347373D01*
X5146438Y-12341432D01*
X5146561Y-12337653D01*
X5146712Y-12336329D01*
X5147192Y-12336498D01*
X5149466Y-12337762D01*
X5152773Y-12339855D01*
X5153089Y-12340064D01*
X5155643Y-12341687D01*
X5158127Y-12343048D01*
X5160798Y-12344170D01*
X5163912Y-12345075D01*
X5167725Y-12345788D01*
X5172492Y-12346331D01*
X5178470Y-12346727D01*
X5185914Y-12346999D01*
X5195081Y-12347171D01*
X5206226Y-12347265D01*
X5219604Y-12347304D01*
X5235473Y-12347312D01*
X5247863Y-12347298D01*
X5260027Y-12347254D01*
X5271056Y-12347183D01*
X5280682Y-12347090D01*
X5288637Y-12346976D01*
X5294651Y-12346845D01*
X5298457Y-12346700D01*
X5299785Y-12346545D01*
X5299579Y-12346046D01*
X5298127Y-12343848D01*
X5295743Y-12340710D01*
X5292537Y-12336161D01*
X5287813Y-12327614D01*
X5283599Y-12317844D01*
X5280322Y-12307765D01*
X5280208Y-12307189D01*
X5348664Y-12307189D01*
X5349617Y-12317784D01*
X5352642Y-12328543D01*
X5357757Y-12339075D01*
X5362283Y-12346626D01*
X5505005Y-12346626D01*
X5509508Y-12339761D01*
X5511130Y-12337121D01*
X5514371Y-12331076D01*
X5516951Y-12325345D01*
X5517825Y-12322835D01*
X5519569Y-12314848D01*
X5520460Y-12304750D01*
X5520645Y-12299615D01*
X5520603Y-12294849D01*
X5520127Y-12291301D01*
X5519086Y-12288118D01*
X5517351Y-12284449D01*
X5512702Y-12277397D01*
X5506125Y-12271288D01*
X5497651Y-12266398D01*
X5487145Y-12262680D01*
X5474474Y-12260088D01*
X5459507Y-12258576D01*
X5442110Y-12258096D01*
X5438155Y-12258120D01*
X5419829Y-12258809D01*
X5403883Y-12260483D01*
X5390149Y-12263181D01*
X5378458Y-12266946D01*
X5368643Y-12271817D01*
X5360534Y-12277835D01*
X5358059Y-12280332D01*
X5352903Y-12288070D01*
X5349766Y-12297154D01*
X5348664Y-12307189D01*
X5280208Y-12307189D01*
X5278651Y-12299296D01*
X5277586Y-12288749D01*
X5277217Y-12277334D01*
X5277544Y-12265932D01*
X5278569Y-12255425D01*
X5280291Y-12246692D01*
X5283192Y-12237800D01*
X5290224Y-12222966D01*
X5299573Y-12209230D01*
X5311023Y-12196847D01*
X5324359Y-12186070D01*
X5339366Y-12177151D01*
X5343967Y-12174937D01*
X5359490Y-12168733D01*
X5376336Y-12163882D01*
X5394804Y-12160323D01*
X5415190Y-12157996D01*
X5437792Y-12156839D01*
X5442110Y-12156785D01*
X5452485Y-12156656D01*
X5465191Y-12156947D01*
G37*
X5465191Y-12156947D02*
X5476396Y-12157780D01*
X5486710Y-12159219D01*
X5496743Y-12161329D01*
X5507104Y-12164174D01*
X5519488Y-12168489D01*
X5536206Y-12176412D01*
X5551181Y-12186132D01*
X5564270Y-12197499D01*
X5575332Y-12210364D01*
X5584226Y-12224579D01*
X5590810Y-12239995D01*
X5594942Y-12256464D01*
X5594975Y-12256662D01*
X5596133Y-12268698D01*
X5595979Y-12281921D01*
X5594607Y-12295391D01*
X5592113Y-12308163D01*
X5588593Y-12319295D01*
X5586450Y-12324046D01*
X5583194Y-12330234D01*
X5579469Y-12336593D01*
X5575687Y-12342459D01*
X5572256Y-12347169D01*
X5569587Y-12350058D01*
X5568854Y-12350722D01*
X5568598Y-12351512D01*
X5569870Y-12352041D01*
X5573075Y-12352431D01*
X5578618Y-12352804D01*
X5590169Y-12353491D01*
X5590528Y-12406074D01*
X5590888Y-12458658D01*
X5584679Y-12455020D01*
X5584312Y-12454803D01*
X5582589Y-12453745D01*
X5581054Y-12452785D01*
X5579574Y-12451918D01*
X5578015Y-12451139D01*
X5576244Y-12450443D01*
X5574127Y-12449824D01*
X5571532Y-12449278D01*
X5568325Y-12448799D01*
X5564372Y-12448382D01*
X5559541Y-12448022D01*
X5553697Y-12447714D01*
X5546707Y-12447452D01*
X5538439Y-12447231D01*
X5528759Y-12447047D01*
X5517533Y-12446894D01*
X5504627Y-12446766D01*
X5489910Y-12446660D01*
X5473247Y-12446569D01*
X5454504Y-12446488D01*
X5433549Y-12446413D01*
X5410249Y-12446338D01*
X5384469Y-12446257D01*
X5356077Y-12446166D01*
X5146698Y-12445480D01*
X5146339Y-12390904D01*
X5146315Y-12386935D01*
X5146267Y-12375258D01*
X5146258Y-12364578D01*
X5146284Y-12355186D01*
X5146345Y-12347373D01*
X5146438Y-12341432D01*
X5146561Y-12337653D01*
X5146712Y-12336329D01*
X5147192Y-12336498D01*
X5149466Y-12337762D01*
X5152773Y-12339855D01*
X5153089Y-12340064D01*
X5155643Y-12341687D01*
X5158127Y-12343048D01*
X5160798Y-12344170D01*
X5163912Y-12345075D01*
X5167725Y-12345788D01*
X5172492Y-12346331D01*
X5178470Y-12346727D01*
X5185914Y-12346999D01*
X5195081Y-12347171D01*
X5206226Y-12347265D01*
X5219604Y-12347304D01*
X5235473Y-12347312D01*
X5247863Y-12347298D01*
X5260027Y-12347254D01*
X5271056Y-12347183D01*
X5280682Y-12347090D01*
X5288637Y-12346976D01*
X5294651Y-12346845D01*
X5298457Y-12346700D01*
X5299785Y-12346545D01*
X5299579Y-12346046D01*
X5298127Y-12343848D01*
X5295743Y-12340710D01*
X5292537Y-12336161D01*
X5287813Y-12327614D01*
X5283599Y-12317844D01*
X5280322Y-12307765D01*
X5280208Y-12307189D01*
X5348664Y-12307189D01*
X5349617Y-12317784D01*
X5352642Y-12328543D01*
X5357757Y-12339075D01*
X5362283Y-12346626D01*
X5505005Y-12346626D01*
X5509508Y-12339761D01*
X5511130Y-12337121D01*
X5514371Y-12331076D01*
X5516951Y-12325345D01*
X5517825Y-12322835D01*
X5519569Y-12314848D01*
X5520460Y-12304750D01*
X5520645Y-12299615D01*
X5520603Y-12294849D01*
X5520127Y-12291301D01*
X5519086Y-12288118D01*
X5517351Y-12284449D01*
X5512702Y-12277397D01*
X5506125Y-12271288D01*
X5497651Y-12266398D01*
X5487145Y-12262680D01*
X5474474Y-12260088D01*
X5459507Y-12258576D01*
X5442110Y-12258096D01*
X5438155Y-12258120D01*
X5419829Y-12258809D01*
X5403883Y-12260483D01*
X5390149Y-12263181D01*
X5378458Y-12266946D01*
X5368643Y-12271817D01*
X5360534Y-12277835D01*
X5358059Y-12280332D01*
X5352903Y-12288070D01*
X5349766Y-12297154D01*
X5348664Y-12307189D01*
X5280208Y-12307189D01*
X5278651Y-12299296D01*
X5277586Y-12288749D01*
X5277217Y-12277334D01*
X5277544Y-12265932D01*
X5278569Y-12255425D01*
X5280291Y-12246692D01*
X5283192Y-12237800D01*
X5290224Y-12222966D01*
X5299573Y-12209230D01*
X5311023Y-12196847D01*
X5324359Y-12186070D01*
X5339366Y-12177151D01*
X5343967Y-12174937D01*
X5359490Y-12168733D01*
X5376336Y-12163882D01*
X5394804Y-12160323D01*
X5415190Y-12157996D01*
X5437792Y-12156839D01*
X5442110Y-12156785D01*
X5452485Y-12156656D01*
X5465191Y-12156947D01*
G36*
X5752630Y-11434972D02*
G01*
X5757763Y-11436266D01*
X5763416Y-11438583D01*
X5768807Y-11441572D01*
X5773158Y-11444885D01*
X5774193Y-11445904D01*
X5779370Y-11452613D01*
X5783359Y-11460626D01*
X5785800Y-11469247D01*
X5786611Y-11474743D01*
X5787271Y-11484088D01*
X5787063Y-11493066D01*
X5786038Y-11501315D01*
X5784251Y-11508474D01*
X5781755Y-11514179D01*
X5778603Y-11518071D01*
X5778405Y-11518209D01*
X5775883Y-11518917D01*
X5771157Y-11519341D01*
X5764211Y-11519482D01*
X5757988Y-11519396D01*
X5753250Y-11518924D01*
X5750039Y-11517755D01*
X5748084Y-11515578D01*
X5747111Y-11512082D01*
X5746847Y-11506957D01*
X5747020Y-11499890D01*
X5747321Y-11495028D01*
X5748141Y-11490008D01*
X5749546Y-11486759D01*
X5751669Y-11485013D01*
X5754643Y-11484504D01*
X5755098Y-11484514D01*
X5758577Y-11485385D01*
X5760919Y-11487786D01*
X5762239Y-11491912D01*
X5762653Y-11497959D01*
X5762653Y-11504807D01*
X5766488Y-11504807D01*
X5767402Y-11504802D01*
X5769127Y-11504579D01*
X5770156Y-11503653D01*
X5770850Y-11501515D01*
X5771568Y-11497659D01*
X5771661Y-11497111D01*
X5772652Y-11487416D01*
X5772360Y-11478417D01*
X5770887Y-11470326D01*
X5768334Y-11463356D01*
X5764802Y-11457720D01*
X5760392Y-11453629D01*
X5755205Y-11451297D01*
X5749343Y-11450936D01*
X5746453Y-11451488D01*
X5740864Y-11454156D01*
X5736298Y-11458775D01*
X5732815Y-11465273D01*
X5730473Y-11473579D01*
X5730028Y-11476047D01*
X5728978Y-11484980D01*
X5729101Y-11492960D01*
X5730395Y-11500770D01*
X5731074Y-11504284D01*
X5731175Y-11508828D01*
X5729922Y-11511959D01*
X5727243Y-11513974D01*
X5724419Y-11514613D01*
X5721296Y-11513664D01*
X5719954Y-11512731D01*
X5717601Y-11509308D01*
X5715813Y-11504046D01*
X5714664Y-11497194D01*
X5714223Y-11489002D01*
X5714622Y-11479287D01*
X5716253Y-11468686D01*
X5719058Y-11459305D01*
X5722949Y-11451426D01*
X5727837Y-11445330D01*
X5731123Y-11442723D01*
X5736043Y-11439772D01*
X5741429Y-11437245D01*
X5746546Y-11435480D01*
X5750658Y-11434816D01*
X5752630Y-11434972D01*
G37*
X5752630Y-11434972D02*
X5757763Y-11436266D01*
X5763416Y-11438583D01*
X5768807Y-11441572D01*
X5773158Y-11444885D01*
X5774193Y-11445904D01*
X5779370Y-11452613D01*
X5783359Y-11460626D01*
X5785800Y-11469247D01*
X5786611Y-11474743D01*
X5787271Y-11484088D01*
X5787063Y-11493066D01*
X5786038Y-11501315D01*
X5784251Y-11508474D01*
X5781755Y-11514179D01*
X5778603Y-11518071D01*
X5778405Y-11518209D01*
X5775883Y-11518917D01*
X5771157Y-11519341D01*
X5764211Y-11519482D01*
X5757988Y-11519396D01*
X5753250Y-11518924D01*
X5750039Y-11517755D01*
X5748084Y-11515578D01*
X5747111Y-11512082D01*
X5746847Y-11506957D01*
X5747020Y-11499890D01*
X5747321Y-11495028D01*
X5748141Y-11490008D01*
X5749546Y-11486759D01*
X5751669Y-11485013D01*
X5754643Y-11484504D01*
X5755098Y-11484514D01*
X5758577Y-11485385D01*
X5760919Y-11487786D01*
X5762239Y-11491912D01*
X5762653Y-11497959D01*
X5762653Y-11504807D01*
X5766488Y-11504807D01*
X5767402Y-11504802D01*
X5769127Y-11504579D01*
X5770156Y-11503653D01*
X5770850Y-11501515D01*
X5771568Y-11497659D01*
X5771661Y-11497111D01*
X5772652Y-11487416D01*
X5772360Y-11478417D01*
X5770887Y-11470326D01*
X5768334Y-11463356D01*
X5764802Y-11457720D01*
X5760392Y-11453629D01*
X5755205Y-11451297D01*
X5749343Y-11450936D01*
X5746453Y-11451488D01*
X5740864Y-11454156D01*
X5736298Y-11458775D01*
X5732815Y-11465273D01*
X5730473Y-11473579D01*
X5730028Y-11476047D01*
X5728978Y-11484980D01*
X5729101Y-11492960D01*
X5730395Y-11500770D01*
X5731074Y-11504284D01*
X5731175Y-11508828D01*
X5729922Y-11511959D01*
X5727243Y-11513974D01*
X5724419Y-11514613D01*
X5721296Y-11513664D01*
X5719954Y-11512731D01*
X5717601Y-11509308D01*
X5715813Y-11504046D01*
X5714664Y-11497194D01*
X5714223Y-11489002D01*
X5714622Y-11479287D01*
X5716253Y-11468686D01*
X5719058Y-11459305D01*
X5722949Y-11451426D01*
X5727837Y-11445330D01*
X5731123Y-11442723D01*
X5736043Y-11439772D01*
X5741429Y-11437245D01*
X5746546Y-11435480D01*
X5750658Y-11434816D01*
X5752630Y-11434972D01*
G36*
X5785330Y-12104089D02*
G01*
X5787078Y-12107225D01*
X5787161Y-12110806D01*
X5785112Y-12113949D01*
X5784646Y-12114337D01*
X5783699Y-12114884D01*
X5782331Y-12115304D01*
X5780279Y-12115615D01*
X5777281Y-12115833D01*
X5773074Y-12115975D01*
X5767397Y-12116055D01*
X5759987Y-12116091D01*
X5750581Y-12116100D01*
X5718427Y-12116100D01*
X5716269Y-12113435D01*
X5714792Y-12111064D01*
X5714111Y-12108762D01*
X5714699Y-12106662D01*
X5716269Y-12104089D01*
X5718427Y-12101424D01*
X5783172Y-12101424D01*
X5785330Y-12104089D01*
G37*
X5785330Y-12104089D02*
X5787078Y-12107225D01*
X5787161Y-12110806D01*
X5785112Y-12113949D01*
X5784646Y-12114337D01*
X5783699Y-12114884D01*
X5782331Y-12115304D01*
X5780279Y-12115615D01*
X5777281Y-12115833D01*
X5773074Y-12115975D01*
X5767397Y-12116055D01*
X5759987Y-12116091D01*
X5750581Y-12116100D01*
X5718427Y-12116100D01*
X5716269Y-12113435D01*
X5714792Y-12111064D01*
X5714111Y-12108762D01*
X5714699Y-12106662D01*
X5716269Y-12104089D01*
X5718427Y-12101424D01*
X5783172Y-12101424D01*
X5785330Y-12104089D01*
G36*
X5726722Y-12141110D02*
G01*
X5726867Y-12141246D01*
X5727703Y-12142367D01*
X5728259Y-12144077D01*
X5728588Y-12146794D01*
X5728746Y-12150934D01*
X5728786Y-12156915D01*
X5728786Y-12170851D01*
X5755163Y-12170851D01*
X5762746Y-12170859D01*
X5769412Y-12170899D01*
X5774391Y-12170998D01*
X5777982Y-12171177D01*
X5780489Y-12171462D01*
X5782212Y-12171877D01*
X5783453Y-12172445D01*
X5784514Y-12173191D01*
X5784795Y-12173420D01*
X5787059Y-12176538D01*
X5787215Y-12179976D01*
X5785231Y-12183269D01*
X5784423Y-12183967D01*
X5783363Y-12184514D01*
X5781779Y-12184916D01*
X5779381Y-12185195D01*
X5775881Y-12185373D01*
X5770990Y-12185473D01*
X5764419Y-12185517D01*
X5755880Y-12185527D01*
X5728786Y-12185527D01*
X5728786Y-12200120D01*
X5728786Y-12201230D01*
X5728764Y-12206882D01*
X5728650Y-12210766D01*
X5728370Y-12213306D01*
X5727849Y-12214922D01*
X5727013Y-12216037D01*
X5725787Y-12217073D01*
X5722718Y-12218658D01*
X5719340Y-12218348D01*
X5716086Y-12215783D01*
X5715714Y-12215289D01*
X5715231Y-12214268D01*
X5714855Y-12212726D01*
X5714572Y-12210414D01*
X5714371Y-12207084D01*
X5714237Y-12202488D01*
X5714158Y-12196379D01*
X5714120Y-12188509D01*
X5714111Y-12178628D01*
X5714111Y-12176625D01*
X5714120Y-12167213D01*
X5714154Y-12159762D01*
X5714228Y-12154021D01*
X5714357Y-12149741D01*
X5714558Y-12146672D01*
X5714844Y-12144563D01*
X5715231Y-12143165D01*
X5715734Y-12142227D01*
X5716368Y-12141500D01*
X5719640Y-12139619D01*
X5723398Y-12139475D01*
X5726722Y-12141110D01*
G37*
X5726722Y-12141110D02*
X5726867Y-12141246D01*
X5727703Y-12142367D01*
X5728259Y-12144077D01*
X5728588Y-12146794D01*
X5728746Y-12150934D01*
X5728786Y-12156915D01*
X5728786Y-12170851D01*
X5755163Y-12170851D01*
X5762746Y-12170859D01*
X5769412Y-12170899D01*
X5774391Y-12170998D01*
X5777982Y-12171177D01*
X5780489Y-12171462D01*
X5782212Y-12171877D01*
X5783453Y-12172445D01*
X5784514Y-12173191D01*
X5784795Y-12173420D01*
X5787059Y-12176538D01*
X5787215Y-12179976D01*
X5785231Y-12183269D01*
X5784423Y-12183967D01*
X5783363Y-12184514D01*
X5781779Y-12184916D01*
X5779381Y-12185195D01*
X5775881Y-12185373D01*
X5770990Y-12185473D01*
X5764419Y-12185517D01*
X5755880Y-12185527D01*
X5728786Y-12185527D01*
X5728786Y-12200120D01*
X5728786Y-12201230D01*
X5728764Y-12206882D01*
X5728650Y-12210766D01*
X5728370Y-12213306D01*
X5727849Y-12214922D01*
X5727013Y-12216037D01*
X5725787Y-12217073D01*
X5722718Y-12218658D01*
X5719340Y-12218348D01*
X5716086Y-12215783D01*
X5715714Y-12215289D01*
X5715231Y-12214268D01*
X5714855Y-12212726D01*
X5714572Y-12210414D01*
X5714371Y-12207084D01*
X5714237Y-12202488D01*
X5714158Y-12196379D01*
X5714120Y-12188509D01*
X5714111Y-12178628D01*
X5714111Y-12176625D01*
X5714120Y-12167213D01*
X5714154Y-12159762D01*
X5714228Y-12154021D01*
X5714357Y-12149741D01*
X5714558Y-12146672D01*
X5714844Y-12144563D01*
X5715231Y-12143165D01*
X5715734Y-12142227D01*
X5716368Y-12141500D01*
X5719640Y-12139619D01*
X5723398Y-12139475D01*
X5726722Y-12141110D01*
G36*
X5739227Y-11274607D02*
G01*
X5741707Y-11275186D01*
X5743874Y-11276667D01*
X5746609Y-11279464D01*
X5747342Y-11280262D01*
X5749432Y-11282633D01*
X5751129Y-11284872D01*
X5752524Y-11287276D01*
X5753710Y-11290138D01*
X5754776Y-11293756D01*
X5755815Y-11298424D01*
X5756919Y-11304438D01*
X5758178Y-11312093D01*
X5759684Y-11321685D01*
X5759988Y-11323521D01*
X5761350Y-11329754D01*
X5762923Y-11334276D01*
X5764630Y-11336905D01*
X5766394Y-11337457D01*
X5766821Y-11337195D01*
X5768327Y-11335402D01*
X5769991Y-11332590D01*
X5770590Y-11331310D01*
X5771309Y-11329180D01*
X5771787Y-11326541D01*
X5772069Y-11322957D01*
X5772200Y-11317989D01*
X5772228Y-11311202D01*
X5772220Y-11309424D01*
X5772109Y-11302662D01*
X5771887Y-11296168D01*
X5771580Y-11290605D01*
X5771217Y-11286637D01*
X5770810Y-11283086D01*
X5770732Y-11280161D01*
X5771192Y-11278271D01*
X5772259Y-11276759D01*
X5772618Y-11276394D01*
X5775796Y-11274759D01*
X5779361Y-11274891D01*
X5782423Y-11276787D01*
X5783584Y-11278824D01*
X5784853Y-11282423D01*
X5785858Y-11286665D01*
X5785918Y-11287010D01*
X5786440Y-11291277D01*
X5786877Y-11297016D01*
X5787186Y-11303517D01*
X5787322Y-11310073D01*
X5787326Y-11311696D01*
X5787078Y-11321528D01*
X5786277Y-11329533D01*
X5784824Y-11336051D01*
X5782619Y-11341420D01*
X5779562Y-11345981D01*
X5775553Y-11350070D01*
X5772930Y-11352082D01*
X5769975Y-11353245D01*
X5766003Y-11353535D01*
X5764807Y-11353521D01*
X5761538Y-11353134D01*
X5758886Y-11351896D01*
X5755801Y-11349379D01*
X5753587Y-11347258D01*
X5751332Y-11344618D01*
X5749496Y-11341647D01*
X5747970Y-11338024D01*
X5746649Y-11333430D01*
X5745425Y-11327548D01*
X5744193Y-11320057D01*
X5742845Y-11310638D01*
X5742144Y-11306106D01*
X5740688Y-11299311D01*
X5739038Y-11294397D01*
X5737248Y-11291441D01*
X5735372Y-11290516D01*
X5733465Y-11291697D01*
X5731581Y-11295061D01*
X5731460Y-11295365D01*
X5730252Y-11300001D01*
X5729432Y-11306266D01*
X5729016Y-11313609D01*
X5729020Y-11321480D01*
X5729461Y-11329328D01*
X5730354Y-11336602D01*
X5730419Y-11336995D01*
X5731190Y-11341876D01*
X5731551Y-11345102D01*
X5731492Y-11347201D01*
X5730999Y-11348707D01*
X5730064Y-11350149D01*
X5729976Y-11350266D01*
X5726939Y-11352717D01*
X5723389Y-11353197D01*
X5719931Y-11351616D01*
X5719485Y-11351162D01*
X5717971Y-11348200D01*
X5716659Y-11343502D01*
X5715579Y-11337472D01*
X5714762Y-11330513D01*
X5714239Y-11323032D01*
X5714041Y-11315432D01*
X5714198Y-11308117D01*
X5714741Y-11301492D01*
X5715700Y-11295962D01*
X5717186Y-11290874D01*
X5720500Y-11283743D01*
X5724768Y-11278627D01*
X5729974Y-11275545D01*
X5736102Y-11274513D01*
X5739227Y-11274607D01*
G37*
X5739227Y-11274607D02*
X5741707Y-11275186D01*
X5743874Y-11276667D01*
X5746609Y-11279464D01*
X5747342Y-11280262D01*
X5749432Y-11282633D01*
X5751129Y-11284872D01*
X5752524Y-11287276D01*
X5753710Y-11290138D01*
X5754776Y-11293756D01*
X5755815Y-11298424D01*
X5756919Y-11304438D01*
X5758178Y-11312093D01*
X5759684Y-11321685D01*
X5759988Y-11323521D01*
X5761350Y-11329754D01*
X5762923Y-11334276D01*
X5764630Y-11336905D01*
X5766394Y-11337457D01*
X5766821Y-11337195D01*
X5768327Y-11335402D01*
X5769991Y-11332590D01*
X5770590Y-11331310D01*
X5771309Y-11329180D01*
X5771787Y-11326541D01*
X5772069Y-11322957D01*
X5772200Y-11317989D01*
X5772228Y-11311202D01*
X5772220Y-11309424D01*
X5772109Y-11302662D01*
X5771887Y-11296168D01*
X5771580Y-11290605D01*
X5771217Y-11286637D01*
X5770810Y-11283086D01*
X5770732Y-11280161D01*
X5771192Y-11278271D01*
X5772259Y-11276759D01*
X5772618Y-11276394D01*
X5775796Y-11274759D01*
X5779361Y-11274891D01*
X5782423Y-11276787D01*
X5783584Y-11278824D01*
X5784853Y-11282423D01*
X5785858Y-11286665D01*
X5785918Y-11287010D01*
X5786440Y-11291277D01*
X5786877Y-11297016D01*
X5787186Y-11303517D01*
X5787322Y-11310073D01*
X5787326Y-11311696D01*
X5787078Y-11321528D01*
X5786277Y-11329533D01*
X5784824Y-11336051D01*
X5782619Y-11341420D01*
X5779562Y-11345981D01*
X5775553Y-11350070D01*
X5772930Y-11352082D01*
X5769975Y-11353245D01*
X5766003Y-11353535D01*
X5764807Y-11353521D01*
X5761538Y-11353134D01*
X5758886Y-11351896D01*
X5755801Y-11349379D01*
X5753587Y-11347258D01*
X5751332Y-11344618D01*
X5749496Y-11341647D01*
X5747970Y-11338024D01*
X5746649Y-11333430D01*
X5745425Y-11327548D01*
X5744193Y-11320057D01*
X5742845Y-11310638D01*
X5742144Y-11306106D01*
X5740688Y-11299311D01*
X5739038Y-11294397D01*
X5737248Y-11291441D01*
X5735372Y-11290516D01*
X5733465Y-11291697D01*
X5731581Y-11295061D01*
X5731460Y-11295365D01*
X5730252Y-11300001D01*
X5729432Y-11306266D01*
X5729016Y-11313609D01*
X5729020Y-11321480D01*
X5729461Y-11329328D01*
X5730354Y-11336602D01*
X5730419Y-11336995D01*
X5731190Y-11341876D01*
X5731551Y-11345102D01*
X5731492Y-11347201D01*
X5730999Y-11348707D01*
X5730064Y-11350149D01*
X5729976Y-11350266D01*
X5726939Y-11352717D01*
X5723389Y-11353197D01*
X5719931Y-11351616D01*
X5719485Y-11351162D01*
X5717971Y-11348200D01*
X5716659Y-11343502D01*
X5715579Y-11337472D01*
X5714762Y-11330513D01*
X5714239Y-11323032D01*
X5714041Y-11315432D01*
X5714198Y-11308117D01*
X5714741Y-11301492D01*
X5715700Y-11295962D01*
X5717186Y-11290874D01*
X5720500Y-11283743D01*
X5724768Y-11278627D01*
X5729974Y-11275545D01*
X5736102Y-11274513D01*
X5739227Y-11274607D01*
G36*
X5740708Y-11064515D02*
G01*
X5750800Y-11064540D01*
X5758366Y-11064544D01*
X5766157Y-11064569D01*
X5772158Y-11064634D01*
X5776630Y-11064754D01*
X5779837Y-11064948D01*
X5782038Y-11065232D01*
X5783496Y-11065623D01*
X5784473Y-11066140D01*
X5785231Y-11066798D01*
X5785854Y-11067495D01*
X5786584Y-11068794D01*
X5787059Y-11070709D01*
X5787333Y-11073649D01*
X5787458Y-11078026D01*
X5787488Y-11084249D01*
X5787451Y-11089144D01*
X5787008Y-11099830D01*
X5785999Y-11108753D01*
X5784340Y-11116233D01*
X5781947Y-11122590D01*
X5778736Y-11128144D01*
X5774622Y-11133217D01*
X5774037Y-11133816D01*
X5769186Y-11137502D01*
X5763105Y-11140612D01*
X5756681Y-11142761D01*
X5750800Y-11143562D01*
X5748678Y-11143434D01*
X5742936Y-11142203D01*
X5736945Y-11139950D01*
X5731540Y-11137027D01*
X5727557Y-11133786D01*
X5725855Y-11131831D01*
X5721936Y-11126360D01*
X5718923Y-11120330D01*
X5716727Y-11113410D01*
X5715259Y-11105271D01*
X5714430Y-11095582D01*
X5714219Y-11086836D01*
X5728785Y-11086836D01*
X5728786Y-11087138D01*
X5728982Y-11092250D01*
X5729455Y-11098261D01*
X5730107Y-11103931D01*
X5731037Y-11108927D01*
X5733664Y-11116402D01*
X5737594Y-11122153D01*
X5742897Y-11126303D01*
X5748024Y-11128425D01*
X5752807Y-11128567D01*
X5757900Y-11126739D01*
X5762492Y-11123772D01*
X5766733Y-11119102D01*
X5769713Y-11112963D01*
X5771627Y-11105048D01*
X5771650Y-11104899D01*
X5772230Y-11100002D01*
X5772644Y-11094133D01*
X5772804Y-11088529D01*
X5772813Y-11079216D01*
X5728786Y-11079216D01*
X5728785Y-11086836D01*
X5714219Y-11086836D01*
X5714151Y-11084013D01*
X5714111Y-11080065D01*
X5714069Y-11075494D01*
X5714250Y-11071914D01*
X5714878Y-11069205D01*
X5716180Y-11067247D01*
X5718382Y-11065919D01*
X5721709Y-11065102D01*
X5726389Y-11064676D01*
X5728786Y-11064617D01*
X5732647Y-11064521D01*
X5740708Y-11064515D01*
G37*
X5740708Y-11064515D02*
X5750800Y-11064540D01*
X5758366Y-11064544D01*
X5766157Y-11064569D01*
X5772158Y-11064634D01*
X5776630Y-11064754D01*
X5779837Y-11064948D01*
X5782038Y-11065232D01*
X5783496Y-11065623D01*
X5784473Y-11066140D01*
X5785231Y-11066798D01*
X5785854Y-11067495D01*
X5786584Y-11068794D01*
X5787059Y-11070709D01*
X5787333Y-11073649D01*
X5787458Y-11078026D01*
X5787488Y-11084249D01*
X5787451Y-11089144D01*
X5787008Y-11099830D01*
X5785999Y-11108753D01*
X5784340Y-11116233D01*
X5781947Y-11122590D01*
X5778736Y-11128144D01*
X5774622Y-11133217D01*
X5774037Y-11133816D01*
X5769186Y-11137502D01*
X5763105Y-11140612D01*
X5756681Y-11142761D01*
X5750800Y-11143562D01*
X5748678Y-11143434D01*
X5742936Y-11142203D01*
X5736945Y-11139950D01*
X5731540Y-11137027D01*
X5727557Y-11133786D01*
X5725855Y-11131831D01*
X5721936Y-11126360D01*
X5718923Y-11120330D01*
X5716727Y-11113410D01*
X5715259Y-11105271D01*
X5714430Y-11095582D01*
X5714219Y-11086836D01*
X5728785Y-11086836D01*
X5728786Y-11087138D01*
X5728982Y-11092250D01*
X5729455Y-11098261D01*
X5730107Y-11103931D01*
X5731037Y-11108927D01*
X5733664Y-11116402D01*
X5737594Y-11122153D01*
X5742897Y-11126303D01*
X5748024Y-11128425D01*
X5752807Y-11128567D01*
X5757900Y-11126739D01*
X5762492Y-11123772D01*
X5766733Y-11119102D01*
X5769713Y-11112963D01*
X5771627Y-11105048D01*
X5771650Y-11104899D01*
X5772230Y-11100002D01*
X5772644Y-11094133D01*
X5772804Y-11088529D01*
X5772813Y-11079216D01*
X5728786Y-11079216D01*
X5728785Y-11086836D01*
X5714219Y-11086836D01*
X5714151Y-11084013D01*
X5714111Y-11080065D01*
X5714069Y-11075494D01*
X5714250Y-11071914D01*
X5714878Y-11069205D01*
X5716180Y-11067247D01*
X5718382Y-11065919D01*
X5721709Y-11065102D01*
X5726389Y-11064676D01*
X5728786Y-11064617D01*
X5732647Y-11064521D01*
X5740708Y-11064515D01*
D14*
X6565100Y-12951780D02*
G75*
G03*
X6565100Y-12951780I-95000J0D01*
G01*
X6535100Y-10161780D02*
G75*
G03*
X6535100Y-10161780I-95000J0D01*
G01*
X6555100Y-10921780D02*
G75*
G03*
X6555100Y-10921780I-95000J0D01*
G01*
X6565100Y-13211780D02*
G75*
G03*
X6565100Y-13211780I-95000J0D01*
G01*
X6545100Y-10671780D02*
G75*
G03*
X6545100Y-10671780I-95000J0D01*
G01*
X5814000Y-8200340D02*
X5814100Y-8176780D01*
X6239100Y-8176780D02*
X5725100Y-8176780D01*
X5979100Y-8176780D02*
X5979100Y-7910780D01*
X6144100Y-7310780D02*
X6068100Y-7310780D01*
X5725100Y-8176780D02*
X5725100Y-7910780D01*
X6090100Y-7910780D02*
X6090100Y-7310780D01*
X6138100Y-7910780D02*
X6138100Y-7310780D01*
X6126100Y-7910780D02*
X6126100Y-7310780D01*
X6233100Y-8596580D02*
X6233100Y-8469580D01*
X6144100Y-7910780D02*
X6144100Y-7310780D01*
X5890100Y-8200340D02*
X5890100Y-8176780D01*
X5814100Y-7310780D02*
X5814100Y-7910780D01*
X5890100Y-7310780D02*
X5814100Y-7310780D01*
X6068100Y-8200340D02*
X6068100Y-8176780D01*
X6068100Y-7310780D02*
X6068100Y-7910780D01*
X6078100Y-7910780D02*
X6078100Y-7310780D01*
X6239100Y-7910780D02*
X6239100Y-8176780D01*
X6106100Y-8596580D02*
X6233100Y-8596580D01*
X6102100Y-7910780D02*
X6102100Y-7310780D01*
X5725100Y-7910780D02*
X6239100Y-7910780D01*
X6114100Y-7910780D02*
X6114100Y-7310780D01*
X5890100Y-7910780D02*
X5890100Y-7310780D01*
X6144100Y-8200340D02*
X6144100Y-8176780D01*
X6565100Y-12701780D02*
G75*
G03*
X6565100Y-12701780I-95000J0D01*
G01*
X6565100Y-13471780D02*
G75*
G03*
X6565100Y-13471780I-95000J0D01*
G01*
X6535100Y-10421780D02*
G75*
G03*
X6535100Y-10421780I-95000J0D01*
G01*
%LPC*%
G36*
G01*
X8629350Y-10496880D02*
X8319350Y-10496880D01*
G75*
G02*
X8289250Y-10466780I0J30100D01*
G01*
X8289250Y-10336780D01*
G75*
G02*
X8319350Y-10306680I30100J0D01*
G01*
X8629350Y-10306680D01*
G75*
G02*
X8659450Y-10336780I0J-30100D01*
G01*
X8659450Y-10466780D01*
G75*
G02*
X8629350Y-10496880I-30100J0D01*
G01*
G37*
D15*
X8474350Y-10051780D03*
X8474350Y-9701780D03*
G36*
G01*
X10129350Y-10495130D02*
X9819350Y-10495130D01*
G75*
G02*
X9789250Y-10465030I0J30100D01*
G01*
X9789250Y-10335030D01*
G75*
G02*
X9819350Y-10304930I30100J0D01*
G01*
X10129350Y-10304930D01*
G75*
G02*
X10159450Y-10335030I0J-30100D01*
G01*
X10159450Y-10465030D01*
G75*
G02*
X10129350Y-10495130I-30100J0D01*
G01*
G37*
X9974350Y-10050030D03*
X9974350Y-9700030D03*
G36*
G01*
X10129350Y-11903380D02*
X9819350Y-11903380D01*
G75*
G02*
X9789250Y-11873280I0J30100D01*
G01*
X9789250Y-11743280D01*
G75*
G02*
X9819350Y-11713180I30100J0D01*
G01*
X10129350Y-11713180D01*
G75*
G02*
X10159450Y-11743280I0J-30100D01*
G01*
X10159450Y-11873280D01*
G75*
G02*
X10129350Y-11903380I-30100J0D01*
G01*
G37*
X9974350Y-11458280D03*
X9974350Y-11108280D03*
G36*
G01*
X8629350Y-11905130D02*
X8319350Y-11905130D01*
G75*
G02*
X8289250Y-11875030I0J30100D01*
G01*
X8289250Y-11745030D01*
G75*
G02*
X8319350Y-11714930I30100J0D01*
G01*
X8629350Y-11714930D01*
G75*
G02*
X8659450Y-11745030I0J-30100D01*
G01*
X8659450Y-11875030D01*
G75*
G02*
X8629350Y-11905130I-30100J0D01*
G01*
G37*
X8474350Y-11460030D03*
X8474350Y-11110030D03*
G36*
G01*
X11866480Y-13416676D02*
X11566480Y-13416676D01*
G75*
G02*
X11561380Y-13411576I0J5100D01*
G01*
X11561380Y-13111576D01*
G75*
G02*
X11566480Y-13106476I5100J0D01*
G01*
X11866480Y-13106476D01*
G75*
G02*
X11871580Y-13111576I0J-5100D01*
G01*
X11871580Y-13411576D01*
G75*
G02*
X11866480Y-13416676I-5100J0D01*
G01*
G37*
D16*
X11716480Y-12436584D03*
D17*
X12356779Y-9821780D03*
X11986779Y-9821780D03*
X11536779Y-9821780D03*
X11166779Y-9821780D03*
X12365100Y-10411780D03*
X11995100Y-10411780D03*
X11545100Y-10411780D03*
X11175100Y-10411780D03*
X12356779Y-11051780D03*
X11986779Y-11051780D03*
X11536779Y-11051780D03*
X11166779Y-11051780D03*
X12365100Y-11631780D03*
X11995100Y-11631780D03*
X11545100Y-11631780D03*
X11175100Y-11631780D03*
G36*
G01*
X11540200Y-8829280D02*
X11540200Y-8999280D01*
G75*
G02*
X11535100Y-9004380I-5100J0D01*
G01*
X11365100Y-9004380D01*
G75*
G02*
X11360000Y-8999280I0J5100D01*
G01*
X11360000Y-8829280D01*
G75*
G02*
X11365100Y-8824180I5100J0D01*
G01*
X11535100Y-8824180D01*
G75*
G02*
X11540200Y-8829280I0J-5100D01*
G01*
G37*
D18*
X11450100Y-8660280D03*
X11450100Y-8406280D03*
D19*
X10587850Y-15026780D03*
X9444850Y-15026780D03*
G36*
G01*
X9491750Y-14466780D02*
X9491750Y-14316780D01*
G75*
G02*
X9496850Y-14311680I5100J0D01*
G01*
X9646850Y-14311680D01*
G75*
G02*
X9651950Y-14316780I0J-5100D01*
G01*
X9651950Y-14466780D01*
G75*
G02*
X9646850Y-14471880I-5100J0D01*
G01*
X9496850Y-14471880D01*
G75*
G02*
X9491750Y-14466780I0J5100D01*
G01*
G37*
D20*
X9698850Y-14137780D03*
X9825850Y-14391780D03*
X9952850Y-14137780D03*
X10079850Y-14391780D03*
X10206850Y-14137780D03*
X10333850Y-14391780D03*
X10460850Y-14137780D03*
D19*
X8747850Y-15026780D03*
X7604850Y-15026780D03*
G36*
G01*
X7651750Y-14466780D02*
X7651750Y-14316780D01*
G75*
G02*
X7656850Y-14311680I5100J0D01*
G01*
X7806850Y-14311680D01*
G75*
G02*
X7811950Y-14316780I0J-5100D01*
G01*
X7811950Y-14466780D01*
G75*
G02*
X7806850Y-14471880I-5100J0D01*
G01*
X7656850Y-14471880D01*
G75*
G02*
X7651750Y-14466780I0J5100D01*
G01*
G37*
D20*
X7858850Y-14137780D03*
X7985850Y-14391780D03*
X8112850Y-14137780D03*
X8239850Y-14391780D03*
X8366850Y-14137780D03*
X8493850Y-14391780D03*
X8620850Y-14137780D03*
D21*
X9235100Y-6071780D03*
X6905100Y-8451780D03*
X6905100Y-6071780D03*
X9235100Y-8451780D03*
D22*
X7690100Y-8501780D03*
X7940100Y-8501780D03*
X8200100Y-8501780D03*
X8450100Y-8501780D03*
D23*
X4930100Y-8671780D03*
D24*
X5547600Y-14211780D03*
D25*
X5577600Y-13908780D03*
X6062600Y-13908780D03*
D24*
X6092600Y-14211780D03*
D18*
X6709100Y-14224780D03*
X6709100Y-13970780D03*
G36*
G01*
X6799200Y-13631780D02*
X6799200Y-13801780D01*
G75*
G02*
X6794100Y-13806880I-5100J0D01*
G01*
X6624100Y-13806880D01*
G75*
G02*
X6619000Y-13801780I0J5100D01*
G01*
X6619000Y-13631780D01*
G75*
G02*
X6624100Y-13626680I5100J0D01*
G01*
X6794100Y-13626680D01*
G75*
G02*
X6799200Y-13631780I0J-5100D01*
G01*
G37*
X6709100Y-13462780D03*
X6709100Y-13208780D03*
X6709100Y-12954780D03*
X6709100Y-12700780D03*
G36*
G01*
X6799200Y-12361780D02*
X6799200Y-12531780D01*
G75*
G02*
X6794100Y-12536880I-5100J0D01*
G01*
X6624100Y-12536880D01*
G75*
G02*
X6619000Y-12531780I0J5100D01*
G01*
X6619000Y-12361780D01*
G75*
G02*
X6624100Y-12356680I5100J0D01*
G01*
X6794100Y-12356680D01*
G75*
G02*
X6799200Y-12361780I0J-5100D01*
G01*
G37*
X6709100Y-12192780D03*
X6709100Y-11938780D03*
X6709100Y-11684780D03*
X6709100Y-11430780D03*
G36*
G01*
X6799200Y-11091780D02*
X6799200Y-11261780D01*
G75*
G02*
X6794100Y-11266880I-5100J0D01*
G01*
X6624100Y-11266880D01*
G75*
G02*
X6619000Y-11261780I0J5100D01*
G01*
X6619000Y-11091780D01*
G75*
G02*
X6624100Y-11086680I5100J0D01*
G01*
X6794100Y-11086680D01*
G75*
G02*
X6799200Y-11091780I0J-5100D01*
G01*
G37*
X6709100Y-10922780D03*
X6709100Y-10668780D03*
X6709100Y-10414780D03*
X6709100Y-10160780D03*
G36*
G01*
X6799200Y-9821780D02*
X6799200Y-9991780D01*
G75*
G02*
X6794100Y-9996880I-5100J0D01*
G01*
X6624100Y-9996880D01*
G75*
G02*
X6619000Y-9991780I0J5100D01*
G01*
X6619000Y-9821780D01*
G75*
G02*
X6624100Y-9816680I5100J0D01*
G01*
X6794100Y-9816680D01*
G75*
G02*
X6799200Y-9821780I0J-5100D01*
G01*
G37*
X6709100Y-9652780D03*
X6709100Y-9398780D03*
X4931100Y-9398780D03*
X4931100Y-9652780D03*
G36*
G01*
X5021200Y-9821780D02*
X5021200Y-9991780D01*
G75*
G02*
X5016100Y-9996880I-5100J0D01*
G01*
X4846100Y-9996880D01*
G75*
G02*
X4841000Y-9991780I0J5100D01*
G01*
X4841000Y-9821780D01*
G75*
G02*
X4846100Y-9816680I5100J0D01*
G01*
X5016100Y-9816680D01*
G75*
G02*
X5021200Y-9821780I0J-5100D01*
G01*
G37*
X4931100Y-10160780D03*
X4931100Y-10414780D03*
X4931100Y-10668780D03*
X4931100Y-10922780D03*
G36*
G01*
X5021200Y-11091780D02*
X5021200Y-11261780D01*
G75*
G02*
X5016100Y-11266880I-5100J0D01*
G01*
X4846100Y-11266880D01*
G75*
G02*
X4841000Y-11261780I0J5100D01*
G01*
X4841000Y-11091780D01*
G75*
G02*
X4846100Y-11086680I5100J0D01*
G01*
X5016100Y-11086680D01*
G75*
G02*
X5021200Y-11091780I0J-5100D01*
G01*
G37*
X4931100Y-11430780D03*
X4931100Y-11684780D03*
X4931100Y-11938780D03*
X4931100Y-12192780D03*
G36*
G01*
X5021200Y-12361780D02*
X5021200Y-12531780D01*
G75*
G02*
X5016100Y-12536880I-5100J0D01*
G01*
X4846100Y-12536880D01*
G75*
G02*
X4841000Y-12531780I0J5100D01*
G01*
X4841000Y-12361780D01*
G75*
G02*
X4846100Y-12356680I5100J0D01*
G01*
X5016100Y-12356680D01*
G75*
G02*
X5021200Y-12361780I0J-5100D01*
G01*
G37*
X4931100Y-12700780D03*
X4931100Y-12954780D03*
X4931100Y-13208780D03*
X4931100Y-13462780D03*
G36*
G01*
X5021200Y-13631780D02*
X5021200Y-13801780D01*
G75*
G02*
X5016100Y-13806880I-5100J0D01*
G01*
X4846100Y-13806880D01*
G75*
G02*
X4841000Y-13801780I0J5100D01*
G01*
X4841000Y-13631780D01*
G75*
G02*
X4846100Y-13626680I5100J0D01*
G01*
X5016100Y-13626680D01*
G75*
G02*
X5021200Y-13631780I0J-5100D01*
G01*
G37*
X4931100Y-13970780D03*
X4931100Y-14224780D03*
X6074100Y-9421780D03*
G36*
G01*
X5910200Y-9336780D02*
X5910200Y-9506780D01*
G75*
G02*
X5905100Y-9511880I-5100J0D01*
G01*
X5735100Y-9511880D01*
G75*
G02*
X5730000Y-9506780I0J5100D01*
G01*
X5730000Y-9336780D01*
G75*
G02*
X5735100Y-9331680I5100J0D01*
G01*
X5905100Y-9331680D01*
G75*
G02*
X5910200Y-9336780I0J-5100D01*
G01*
G37*
X5566100Y-9421780D03*
D23*
X12343100Y-8671780D03*
X12333100Y-14873980D03*
G36*
G01*
X5486750Y-8500530D02*
X5486750Y-8310530D01*
G75*
G02*
X5491850Y-8305430I5100J0D01*
G01*
X5701850Y-8305430D01*
G75*
G02*
X5706950Y-8310530I0J-5100D01*
G01*
X5706950Y-8500530D01*
G75*
G02*
X5701850Y-8505630I-5100J0D01*
G01*
X5491850Y-8505630D01*
G75*
G02*
X5486750Y-8500530I0J5100D01*
G01*
G37*
D26*
X6358850Y-8913530D03*
X5596850Y-8913530D03*
X6358850Y-8405530D03*
X6358850Y-8659530D03*
X5596850Y-8659530D03*
D23*
X4928100Y-14868980D03*
G36*
G01*
X6915100Y-14911680D02*
X7085100Y-14911680D01*
G75*
G02*
X7090200Y-14916780I0J-5100D01*
G01*
X7090200Y-15086780D01*
G75*
G02*
X7085100Y-15091880I-5100J0D01*
G01*
X6915100Y-15091880D01*
G75*
G02*
X6910000Y-15086780I0J5100D01*
G01*
X6910000Y-14916780D01*
G75*
G02*
X6915100Y-14911680I5100J0D01*
G01*
G37*
D18*
X6746100Y-15001780D03*
X6492100Y-15001780D03*
G36*
G01*
X10065200Y-13481780D02*
X10065200Y-13641780D01*
G75*
G02*
X10060100Y-13646880I-5100J0D01*
G01*
X9900100Y-13646880D01*
G75*
G02*
X9895000Y-13641780I0J5100D01*
G01*
X9895000Y-13481780D01*
G75*
G02*
X9900100Y-13476680I5100J0D01*
G01*
X10060100Y-13476680D01*
G75*
G02*
X10065200Y-13481780I0J-5100D01*
G01*
G37*
D27*
X9980100Y-13307780D03*
X9980100Y-13053780D03*
X9980100Y-12799780D03*
X9218100Y-12799780D03*
X9218100Y-13053780D03*
X9218100Y-13307780D03*
X9218100Y-13561780D03*
D20*
X6470100Y-12951780D03*
X6440100Y-10161780D03*
X6460100Y-10921780D03*
X6470100Y-13211780D03*
X6450100Y-10671780D03*
G36*
G01*
X6191100Y-8561880D02*
X6021100Y-8561880D01*
G75*
G02*
X6016000Y-8556780I0J5100D01*
G01*
X6016000Y-8206780D01*
G75*
G02*
X6021100Y-8201680I5100J0D01*
G01*
X6191100Y-8201680D01*
G75*
G02*
X6196200Y-8206780I0J-5100D01*
G01*
X6196200Y-8556780D01*
G75*
G02*
X6191100Y-8561880I-5100J0D01*
G01*
G37*
G36*
G01*
X5935600Y-8561880D02*
X5765600Y-8561880D01*
G75*
G02*
X5760500Y-8556780I0J5100D01*
G01*
X5760500Y-8206780D01*
G75*
G02*
X5765600Y-8201680I5100J0D01*
G01*
X5935600Y-8201680D01*
G75*
G02*
X5940700Y-8206780I0J-5100D01*
G01*
X5940700Y-8556780D01*
G75*
G02*
X5935600Y-8561880I-5100J0D01*
G01*
G37*
X6470100Y-12701780D03*
X6470100Y-13471780D03*
X6440100Y-10421780D03*
D28*
X9440100Y-9811780D03*
X7275100Y-12221780D03*
X5330100Y-9441780D03*
X10270100Y-15021780D03*
X10870100Y-13361780D03*
X7390100Y-10656780D03*
X9720100Y-8981780D03*
X7385100Y-11211780D03*
X10420100Y-8353280D03*
X10188100Y-12583780D03*
X10570100Y-8343280D03*
X7970100Y-15041780D03*
X5170100Y-12741780D03*
X11460100Y-15151780D03*
X7770100Y-12836780D03*
X8340100Y-12411780D03*
X11870100Y-15161780D03*
X8955100Y-12491780D03*
X11740100Y-8281780D03*
X12040100Y-14371780D03*
X5960100Y-9621780D03*
X12710100Y-8281780D03*
X5580100Y-12801780D03*
X7380100Y-9421780D03*
X8615100Y-13376780D03*
X11190100Y-13001780D03*
X5480100Y-14501780D03*
X7440100Y-12211780D03*
X9400100Y-13621780D03*
X6250100Y-9341780D03*
X10440100Y-14571780D03*
X12480100Y-13671780D03*
X8375100Y-12711780D03*
X7190100Y-9591780D03*
X8290100Y-13321780D03*
X5320100Y-8331780D03*
X6270100Y-12171780D03*
X10650100Y-11511780D03*
X10940100Y-11831780D03*
X9620100Y-13806879D03*
X9960100Y-8273280D03*
X10630100Y-13901780D03*
X9040100Y-9571780D03*
X9560100Y-8363280D03*
X5360100Y-11741780D03*
X7460100Y-14251780D03*
X11120100Y-14121780D03*
X6220100Y-12831780D03*
X12050100Y-13991780D03*
X11430100Y-9211780D03*
X10880100Y-13911780D03*
X7280100Y-11646780D03*
X7240100Y-10566780D03*
X11830100Y-14181780D03*
X6350100Y-14051780D03*
X6820100Y-14741780D03*
X7435100Y-13736780D03*
X9528100Y-13180780D03*
X5330100Y-10221780D03*
X8640100Y-13761780D03*
X9790100Y-15021780D03*
X7223100Y-10168780D03*
X7220100Y-11076780D03*
X11330100Y-13001780D03*
X8865100Y-13231780D03*
X5300100Y-13541780D03*
X11020100Y-8551780D03*
X5360100Y-10731780D03*
X12680100Y-9261780D03*
X9180100Y-12351780D03*
X10790100Y-8301780D03*
X9430100Y-11481780D03*
X8970100Y-8981780D03*
X11450100Y-14351780D03*
X7445100Y-11776780D03*
X12010100Y-9271780D03*
X11140100Y-9221780D03*
X12460100Y-13041780D03*
X6210100Y-11641780D03*
X9800100Y-13181780D03*
X10200100Y-13731780D03*
X11650100Y-14121780D03*
X8410100Y-15031780D03*
X9430100Y-11221780D03*
X7990100Y-12221780D03*
X6270100Y-9871780D03*
X7855100Y-13791780D03*
X6200100Y-14721780D03*
X11020100Y-12701780D03*
X4600100Y-9041780D03*
X11170100Y-8551780D03*
X7990100Y-12536780D03*
X7780100Y-11766780D03*
X11860100Y-14361780D03*
X11020100Y-12991780D03*
X7520100Y-12651780D03*
X11020100Y-12861780D03*
X6210100Y-14501780D03*
X6920100Y-14411780D03*
X9020100Y-10971780D03*
X8360100Y-9341780D03*
X12680100Y-9001780D03*
X6510100Y-11641780D03*
X7397650Y-10156656D03*
X8950600Y-13766280D03*
X6920100Y-9181780D03*
X7350100Y-12796780D03*
X7260100Y-13331780D03*
X10400100Y-13931780D03*
X7630100Y-14081780D03*
X8079650Y-13226780D03*
X10680100Y-14161780D03*
X7980100Y-14621780D03*
X8220100Y-14701730D03*
X8355866Y-13765461D03*
X8675100Y-13252794D03*
X8500100Y-14761780D03*
X8780100Y-13071780D03*
X7175100Y-11386780D03*
X7135100Y-10706780D03*
X6230100Y-11901780D03*
X7755100Y-12139780D03*
X7670100Y-11941780D03*
X6120100Y-8621780D03*
X5925100Y-8636780D03*
X6410100Y-13651780D03*
X7835100Y-13951780D03*
X8185100Y-13946780D03*
X8521633Y-13863313D03*
X7925100Y-13226780D03*
X7305100Y-12621780D03*
M02*
