%TF.GenerationSoftware,KiCad,Pcbnew,(6.0.2)*%
%TF.CreationDate,2022-03-13T16:31:38-04:00*%
%TF.ProjectId,Receiver_Out,52656365-6976-4657-925f-4f75742e6b69,v1*%
%TF.SameCoordinates,Original*%
%TF.FileFunction,Paste,Top*%
%TF.FilePolarity,Positive*%
%FSLAX46Y46*%
G04 Gerber Fmt 4.6, Leading zero omitted, Abs format (unit mm)*
G04 Created by KiCad (PCBNEW (6.0.2)) date 2022-03-13 16:31:38*
%MOMM*%
%LPD*%
G01*
G04 APERTURE LIST*
G04 Aperture macros list*
%AMRoundRect*
0 Rectangle with rounded corners*
0 $1 Rounding radius*
0 $2 $3 $4 $5 $6 $7 $8 $9 X,Y pos of 4 corners*
0 Add a 4 corners polygon primitive as box body*
4,1,4,$2,$3,$4,$5,$6,$7,$8,$9,$2,$3,0*
0 Add four circle primitives for the rounded corners*
1,1,$1+$1,$2,$3*
1,1,$1+$1,$4,$5*
1,1,$1+$1,$6,$7*
1,1,$1+$1,$8,$9*
0 Add four rect primitives between the rounded corners*
20,1,$1+$1,$2,$3,$4,$5,0*
20,1,$1+$1,$4,$5,$6,$7,0*
20,1,$1+$1,$6,$7,$8,$9,0*
20,1,$1+$1,$8,$9,$2,$3,0*%
G04 Aperture macros list end*
%ADD10RoundRect,0.237500X-0.250000X-0.237500X0.250000X-0.237500X0.250000X0.237500X-0.250000X0.237500X0*%
%ADD11RoundRect,0.250000X0.475000X-0.337500X0.475000X0.337500X-0.475000X0.337500X-0.475000X-0.337500X0*%
%ADD12RoundRect,0.237500X-0.287500X-0.237500X0.287500X-0.237500X0.287500X0.237500X-0.287500X0.237500X0*%
%ADD13RoundRect,0.150000X-0.150000X0.825000X-0.150000X-0.825000X0.150000X-0.825000X0.150000X0.825000X0*%
%ADD14RoundRect,0.237500X0.300000X0.237500X-0.300000X0.237500X-0.300000X-0.237500X0.300000X-0.237500X0*%
%ADD15R,1.200000X0.900000*%
%ADD16RoundRect,0.237500X-0.237500X0.250000X-0.237500X-0.250000X0.237500X-0.250000X0.237500X0.250000X0*%
%ADD17R,2.000000X1.500000*%
%ADD18R,2.000000X3.800000*%
%ADD19R,0.700000X0.510000*%
%ADD20RoundRect,0.237500X0.237500X-0.300000X0.237500X0.300000X-0.237500X0.300000X-0.237500X-0.300000X0*%
%ADD21R,1.300000X1.550000*%
%ADD22R,1.550000X1.300000*%
%ADD23RoundRect,0.237500X0.287500X0.237500X-0.287500X0.237500X-0.287500X-0.237500X0.287500X-0.237500X0*%
%ADD24RoundRect,0.237500X-0.237500X0.300000X-0.237500X-0.300000X0.237500X-0.300000X0.237500X0.300000X0*%
G04 APERTURE END LIST*
D10*
%TO.C,R2*%
X77088500Y-139017800D03*
X78913500Y-139017800D03*
%TD*%
D11*
%TO.C,C1*%
X111001000Y-89155300D03*
X111001000Y-87080300D03*
%TD*%
%TO.C,C2*%
X97901000Y-85770300D03*
X97901000Y-83695300D03*
%TD*%
D10*
%TO.C,R1*%
X120488500Y-141817800D03*
X122313500Y-141817800D03*
%TD*%
D12*
%TO.C,D2*%
X124326000Y-141817800D03*
X126076000Y-141817800D03*
%TD*%
D10*
%TO.C,R3*%
X102701000Y-135517800D03*
X104526000Y-135517800D03*
%TD*%
%TO.C,R4*%
X102588500Y-132817800D03*
X104413500Y-132817800D03*
%TD*%
%TO.C,R5*%
X102588500Y-130317800D03*
X104413500Y-130317800D03*
%TD*%
%TO.C,R6*%
X102588500Y-127617800D03*
X104413500Y-127617800D03*
%TD*%
D13*
%TO.C,U3*%
X83546000Y-131142800D03*
X82276000Y-131142800D03*
X81006000Y-131142800D03*
X79736000Y-131142800D03*
X78466000Y-131142800D03*
X77196000Y-131142800D03*
X75926000Y-131142800D03*
X74656000Y-131142800D03*
X74656000Y-136092800D03*
X75926000Y-136092800D03*
X77196000Y-136092800D03*
X78466000Y-136092800D03*
X79736000Y-136092800D03*
X81006000Y-136092800D03*
X82276000Y-136092800D03*
X83546000Y-136092800D03*
%TD*%
D14*
%TO.C,C3*%
X75463500Y-95917800D03*
X73738500Y-95917800D03*
%TD*%
D15*
%TO.C,D1*%
X117601000Y-88967800D03*
X117601000Y-92267800D03*
%TD*%
D16*
%TO.C,R7*%
X78401000Y-114005300D03*
X78401000Y-115830300D03*
%TD*%
%TO.C,R8*%
X78101000Y-103105300D03*
X78101000Y-104930300D03*
%TD*%
%TO.C,R10*%
X78101000Y-98305300D03*
X78101000Y-100130300D03*
%TD*%
D17*
%TO.C,U2*%
X101651000Y-83632800D03*
D18*
X107951000Y-85932800D03*
D17*
X101651000Y-85932800D03*
X101651000Y-88232800D03*
%TD*%
D19*
%TO.C,U1*%
X74441000Y-113867800D03*
X74441000Y-114817800D03*
X74441000Y-115767800D03*
X76761000Y-115767800D03*
X76761000Y-113867800D03*
%TD*%
D20*
%TO.C,C4*%
X85401000Y-136280300D03*
X85401000Y-134555300D03*
%TD*%
D16*
%TO.C,R9*%
X77901000Y-108305300D03*
X77901000Y-110130300D03*
%TD*%
D21*
%TO.C,SW4*%
X112051000Y-143542800D03*
X112051000Y-151492800D03*
X116551000Y-151492800D03*
X116551000Y-143542800D03*
%TD*%
D22*
%TO.C,SW3*%
X89676000Y-123667800D03*
X81726000Y-123667800D03*
X81726000Y-128167800D03*
X89676000Y-128167800D03*
%TD*%
D19*
%TO.C,U5*%
X74041000Y-108267800D03*
X74041000Y-109217800D03*
X74041000Y-110167800D03*
X76361000Y-110167800D03*
X76361000Y-108267800D03*
%TD*%
D23*
%TO.C,D4*%
X65476000Y-145917800D03*
X63726000Y-145917800D03*
%TD*%
D10*
%TO.C,R11*%
X67388500Y-145917800D03*
X69213500Y-145917800D03*
%TD*%
D19*
%TO.C,U6*%
X74141000Y-98267800D03*
X74141000Y-99217800D03*
X74141000Y-100167800D03*
X76461000Y-100167800D03*
X76461000Y-98267800D03*
%TD*%
D24*
%TO.C,C5*%
X45801000Y-139655300D03*
X45801000Y-141380300D03*
%TD*%
D19*
%TO.C,U4*%
X74141000Y-103067800D03*
X74141000Y-104017800D03*
X74141000Y-104967800D03*
X76461000Y-104967800D03*
X76461000Y-103067800D03*
%TD*%
M02*
