%TF.GenerationSoftware,KiCad,Pcbnew,(6.0.7)*%
%TF.CreationDate,2022-08-24T09:38:20-04:00*%
%TF.ProjectId,Receiver_Out,52656365-6976-4657-925f-4f75742e6b69,v2*%
%TF.SameCoordinates,Original*%
%TF.FileFunction,Soldermask,Bot*%
%TF.FilePolarity,Negative*%
%FSLAX46Y46*%
G04 Gerber Fmt 4.6, Leading zero omitted, Abs format (unit mm)*
G04 Created by KiCad (PCBNEW (6.0.7)) date 2022-08-24 09:38:20*
%MOMM*%
%LPD*%
G01*
G04 APERTURE LIST*
G04 Aperture macros list*
%AMRoundRect*
0 Rectangle with rounded corners*
0 $1 Rounding radius*
0 $2 $3 $4 $5 $6 $7 $8 $9 X,Y pos of 4 corners*
0 Add a 4 corners polygon primitive as box body*
4,1,4,$2,$3,$4,$5,$6,$7,$8,$9,$2,$3,0*
0 Add four circle primitives for the rounded corners*
1,1,$1+$1,$2,$3*
1,1,$1+$1,$4,$5*
1,1,$1+$1,$6,$7*
1,1,$1+$1,$8,$9*
0 Add four rect primitives between the rounded corners*
20,1,$1+$1,$2,$3,$4,$5,0*
20,1,$1+$1,$4,$5,$6,$7,0*
20,1,$1+$1,$6,$7,$8,$9,0*
20,1,$1+$1,$8,$9,$2,$3,0*%
G04 Aperture macros list end*
%ADD10RoundRect,0.301000X1.550000X-0.650000X1.550000X0.650000X-1.550000X0.650000X-1.550000X-0.650000X0*%
%ADD11O,3.702000X1.902000*%
%ADD12RoundRect,0.051000X1.500000X-1.500000X1.500000X1.500000X-1.500000X1.500000X-1.500000X-1.500000X0*%
%ADD13C,3.102000*%
%ADD14C,2.577000*%
%ADD15RoundRect,0.051000X0.850000X0.850000X-0.850000X0.850000X-0.850000X-0.850000X0.850000X-0.850000X0*%
%ADD16O,1.802000X1.802000*%
%ADD17C,3.302000*%
%ADD18RoundRect,0.051000X-0.750000X-0.750000X0.750000X-0.750000X0.750000X0.750000X-0.750000X0.750000X0*%
%ADD19C,1.602000*%
%ADD20C,5.000000*%
%ADD21C,1.802000*%
%ADD22C,3.802000*%
%ADD23O,1.902000X1.902000*%
%ADD24O,1.602000X1.602000*%
%ADD25RoundRect,0.051000X-1.050000X-0.950000X1.050000X-0.950000X1.050000X0.950000X-1.050000X0.950000X0*%
%ADD26O,2.202000X2.002000*%
%ADD27RoundRect,0.051000X-0.850000X0.850000X-0.850000X-0.850000X0.850000X-0.850000X0.850000X0.850000X0*%
%ADD28RoundRect,0.051000X0.800000X0.800000X-0.800000X0.800000X-0.800000X-0.800000X0.800000X-0.800000X0*%
%ADD29O,1.702000X1.702000*%
%ADD30RoundRect,0.051000X0.850000X-1.750000X0.850000X1.750000X-0.850000X1.750000X-0.850000X-1.750000X0*%
G04 APERTURE END LIST*
D10*
%TO.C,J2*%
X-116373700Y25585700D03*
D11*
X-116373700Y29085700D03*
X-116373700Y32585700D03*
%TD*%
D10*
%TO.C,J4*%
X-101373700Y25603200D03*
D11*
X-101373700Y29103200D03*
X-101373700Y32603200D03*
%TD*%
D10*
%TO.C,J3*%
X-101373700Y11520700D03*
D11*
X-101373700Y15020700D03*
X-101373700Y18520700D03*
%TD*%
D10*
%TO.C,J1*%
X-116373700Y11503200D03*
D11*
X-116373700Y15003200D03*
X-116373700Y18503200D03*
%TD*%
D12*
%TO.C,TB1*%
X-83952400Y-3012260D03*
D13*
X-83952400Y5237660D03*
%TD*%
D14*
%TO.C,F2*%
X-77549410Y31385700D03*
X-81249410Y31385700D03*
X-85749410Y31385700D03*
X-89449410Y31385700D03*
%TD*%
%TO.C,F4*%
X-77466200Y25485700D03*
X-81166200Y25485700D03*
X-85666200Y25485700D03*
X-89366200Y25485700D03*
%TD*%
%TO.C,F1*%
X-77549410Y19085700D03*
X-81249410Y19085700D03*
X-85749410Y19085700D03*
X-89449410Y19085700D03*
%TD*%
%TO.C,F3*%
X-77466200Y13285700D03*
X-81166200Y13285700D03*
X-85666200Y13285700D03*
X-89366200Y13285700D03*
%TD*%
D15*
%TO.C,J6*%
X-86616200Y40460700D03*
D16*
X-86616200Y43000700D03*
X-86616200Y45540700D03*
%TD*%
D17*
%TO.C,J7*%
X-95238700Y-20664300D03*
X-106668700Y-20664300D03*
D18*
X-105398700Y-14314300D03*
D19*
X-104128700Y-11774300D03*
X-102858700Y-14314300D03*
X-101588700Y-11774300D03*
X-100318700Y-14314300D03*
X-99048700Y-11774300D03*
X-97778700Y-14314300D03*
X-96508700Y-11774300D03*
%TD*%
D17*
%TO.C,J8*%
X-113638700Y-20664300D03*
X-125068700Y-20664300D03*
D18*
X-123798700Y-14314300D03*
D19*
X-122528700Y-11774300D03*
X-121258700Y-14314300D03*
X-119988700Y-11774300D03*
X-118718700Y-14314300D03*
X-117448700Y-11774300D03*
X-116178700Y-14314300D03*
X-114908700Y-11774300D03*
%TD*%
D20*
%TO.C,J5*%
X-108766200Y68885700D03*
X-132066200Y45085700D03*
X-132066200Y68885700D03*
X-108766200Y45085700D03*
D21*
X-124216200Y44585700D03*
X-121716200Y44585700D03*
X-119116200Y44585700D03*
X-116616200Y44585700D03*
%TD*%
D22*
%TO.C,H3*%
X-151816200Y42885700D03*
%TD*%
D23*
%TO.C,U1*%
X-145641200Y-12514300D03*
D24*
X-145341200Y-9484300D03*
X-140491200Y-9484300D03*
D23*
X-140191200Y-12514300D03*
D16*
X-134026200Y-12644300D03*
X-134026200Y-10104300D03*
D15*
X-134026200Y-7564300D03*
D16*
X-134026200Y-5024300D03*
X-134026200Y-2484300D03*
X-134026200Y55700D03*
X-134026200Y2595700D03*
D15*
X-134026200Y5135700D03*
D16*
X-134026200Y7675700D03*
X-134026200Y10215700D03*
X-134026200Y12755700D03*
X-134026200Y15295700D03*
D15*
X-134026200Y17835700D03*
D16*
X-134026200Y20375700D03*
X-134026200Y22915700D03*
X-134026200Y25455700D03*
X-134026200Y27995700D03*
D15*
X-134026200Y30535700D03*
D16*
X-134026200Y33075700D03*
X-134026200Y35615700D03*
X-151806200Y35615700D03*
X-151806200Y33075700D03*
D15*
X-151806200Y30535700D03*
D16*
X-151806200Y27995700D03*
X-151806200Y25455700D03*
X-151806200Y22915700D03*
X-151806200Y20375700D03*
D15*
X-151806200Y17835700D03*
D16*
X-151806200Y15295700D03*
X-151806200Y12755700D03*
X-151806200Y10215700D03*
X-151806200Y7675700D03*
D15*
X-151806200Y5135700D03*
D16*
X-151806200Y2595700D03*
X-151806200Y55700D03*
X-151806200Y-2484300D03*
X-151806200Y-5024300D03*
D15*
X-151806200Y-7564300D03*
D16*
X-151806200Y-10104300D03*
X-151806200Y-12644300D03*
X-140376200Y35385700D03*
D15*
X-142916200Y35385700D03*
D16*
X-145456200Y35385700D03*
%TD*%
D22*
%TO.C,H4*%
X-77686200Y42885700D03*
%TD*%
%TO.C,H2*%
X-77786200Y-19136300D03*
%TD*%
D25*
%TO.C,SW1*%
X-145148700Y45548200D03*
D26*
X-137528700Y40468200D03*
X-145148700Y40468200D03*
X-137528700Y45548200D03*
X-137528700Y43008200D03*
X-145148700Y43008200D03*
%TD*%
D22*
%TO.C,H1*%
X-151836200Y-19086300D03*
%TD*%
D27*
%TO.C,J9*%
X-131116200Y-20414300D03*
D16*
X-133656200Y-20414300D03*
X-136196200Y-20414300D03*
%TD*%
D28*
%TO.C,SW2*%
X-101316200Y-6014300D03*
D29*
X-101316200Y-3474300D03*
X-101316200Y-934300D03*
X-101316200Y1605700D03*
X-108936200Y1605700D03*
X-108936200Y-934300D03*
X-108936200Y-3474300D03*
X-108936200Y-6014300D03*
%TD*%
D19*
%TO.C,TP3*%
X-136416200Y85700D03*
%TD*%
%TO.C,TP8*%
X-136716200Y27985700D03*
%TD*%
%TO.C,TP5*%
X-136516200Y20385700D03*
%TD*%
%TO.C,TP2*%
X-136416200Y-2514300D03*
%TD*%
%TO.C,TP6*%
X-136616200Y22885700D03*
%TD*%
D30*
%TO.C,J10*%
X-140056200Y45785700D03*
X-142611200Y45785700D03*
%TD*%
D19*
%TO.C,TP4*%
X-136416200Y2585700D03*
%TD*%
%TO.C,TP1*%
X-136416200Y-5114300D03*
%TD*%
%TO.C,TP7*%
X-136716200Y25385700D03*
%TD*%
M02*
