%TF.GenerationSoftware,KiCad,Pcbnew,(6.0.7)*%
%TF.CreationDate,2022-08-24T09:38:20-04:00*%
%TF.ProjectId,Receiver_Out,52656365-6976-4657-925f-4f75742e6b69,v2*%
%TF.SameCoordinates,Original*%
%TF.FileFunction,Other,Comment*%
%FSLAX46Y46*%
G04 Gerber Fmt 4.6, Leading zero omitted, Abs format (unit mm)*
G04 Created by KiCad (PCBNEW (6.0.7)) date 2022-08-24 09:38:20*
%MOMM*%
%LPD*%
G01*
G04 APERTURE LIST*
%ADD10C,0.150000*%
G04 APERTURE END LIST*
D10*
%TO.C,U1*%
X-157016201Y-19071442D02*
X-157063820Y-19119061D01*
X-157206677Y-19166680D01*
X-157301915Y-19166680D01*
X-157444772Y-19119061D01*
X-157540010Y-19023823D01*
X-157587629Y-18928585D01*
X-157635248Y-18738109D01*
X-157635248Y-18595252D01*
X-157587629Y-18404776D01*
X-157540010Y-18309538D01*
X-157444772Y-18214300D01*
X-157301915Y-18166680D01*
X-157206677Y-18166680D01*
X-157063820Y-18214300D01*
X-157016201Y-18261919D01*
X-156444772Y-19166680D02*
X-156540010Y-19119061D01*
X-156587629Y-19071442D01*
X-156635248Y-18976204D01*
X-156635248Y-18690490D01*
X-156587629Y-18595252D01*
X-156540010Y-18547633D01*
X-156444772Y-18500014D01*
X-156301915Y-18500014D01*
X-156206677Y-18547633D01*
X-156159058Y-18595252D01*
X-156111439Y-18690490D01*
X-156111439Y-18976204D01*
X-156159058Y-19071442D01*
X-156206677Y-19119061D01*
X-156301915Y-19166680D01*
X-156444772Y-19166680D01*
X-155682867Y-18500014D02*
X-155682867Y-19500014D01*
X-155682867Y-18547633D02*
X-155587629Y-18500014D01*
X-155397153Y-18500014D01*
X-155301915Y-18547633D01*
X-155254296Y-18595252D01*
X-155206677Y-18690490D01*
X-155206677Y-18976204D01*
X-155254296Y-19071442D01*
X-155301915Y-19119061D01*
X-155397153Y-19166680D01*
X-155587629Y-19166680D01*
X-155682867Y-19119061D01*
X-154778105Y-18500014D02*
X-154778105Y-19500014D01*
X-154778105Y-18547633D02*
X-154682867Y-18500014D01*
X-154492391Y-18500014D01*
X-154397153Y-18547633D01*
X-154349534Y-18595252D01*
X-154301915Y-18690490D01*
X-154301915Y-18976204D01*
X-154349534Y-19071442D01*
X-154397153Y-19119061D01*
X-154492391Y-19166680D01*
X-154682867Y-19166680D01*
X-154778105Y-19119061D01*
X-153492391Y-19119061D02*
X-153587629Y-19166680D01*
X-153778105Y-19166680D01*
X-153873343Y-19119061D01*
X-153920962Y-19023823D01*
X-153920962Y-18642871D01*
X-153873343Y-18547633D01*
X-153778105Y-18500014D01*
X-153587629Y-18500014D01*
X-153492391Y-18547633D01*
X-153444772Y-18642871D01*
X-153444772Y-18738109D01*
X-153920962Y-18833347D01*
X-153016201Y-19166680D02*
X-153016201Y-18500014D01*
X-153016201Y-18690490D02*
X-152968581Y-18595252D01*
X-152920962Y-18547633D01*
X-152825724Y-18500014D01*
X-152730486Y-18500014D01*
X-151635248Y-19166680D02*
X-151635248Y-18166680D01*
X-151063820Y-19166680D02*
X-151492391Y-18595252D01*
X-151063820Y-18166680D02*
X-151635248Y-18738109D01*
X-150254296Y-19119061D02*
X-150349534Y-19166680D01*
X-150540010Y-19166680D01*
X-150635248Y-19119061D01*
X-150682867Y-19023823D01*
X-150682867Y-18642871D01*
X-150635248Y-18547633D01*
X-150540010Y-18500014D01*
X-150349534Y-18500014D01*
X-150254296Y-18547633D01*
X-150206677Y-18642871D01*
X-150206677Y-18738109D01*
X-150682867Y-18833347D01*
X-149397153Y-19119061D02*
X-149492391Y-19166680D01*
X-149682867Y-19166680D01*
X-149778105Y-19119061D01*
X-149825724Y-19023823D01*
X-149825724Y-18642871D01*
X-149778105Y-18547633D01*
X-149682867Y-18500014D01*
X-149492391Y-18500014D01*
X-149397153Y-18547633D01*
X-149349534Y-18642871D01*
X-149349534Y-18738109D01*
X-149825724Y-18833347D01*
X-148920962Y-18500014D02*
X-148920962Y-19500014D01*
X-148920962Y-18547633D02*
X-148825724Y-18500014D01*
X-148635248Y-18500014D01*
X-148540010Y-18547633D01*
X-148492391Y-18595252D01*
X-148444772Y-18690490D01*
X-148444772Y-18976204D01*
X-148492391Y-19071442D01*
X-148540010Y-19119061D01*
X-148635248Y-19166680D01*
X-148825724Y-19166680D01*
X-148920962Y-19119061D01*
X-147873343Y-19166680D02*
X-147968581Y-19119061D01*
X-148016200Y-19071442D01*
X-148063820Y-18976204D01*
X-148063820Y-18690490D01*
X-148016200Y-18595252D01*
X-147968581Y-18547633D01*
X-147873343Y-18500014D01*
X-147730486Y-18500014D01*
X-147635248Y-18547633D01*
X-147587629Y-18595252D01*
X-147540010Y-18690490D01*
X-147540010Y-18976204D01*
X-147587629Y-19071442D01*
X-147635248Y-19119061D01*
X-147730486Y-19166680D01*
X-147873343Y-19166680D01*
X-146682867Y-18500014D02*
X-146682867Y-19166680D01*
X-147111439Y-18500014D02*
X-147111439Y-19023823D01*
X-147063820Y-19119061D01*
X-146968581Y-19166680D01*
X-146825724Y-19166680D01*
X-146730486Y-19119061D01*
X-146682867Y-19071442D01*
X-146349534Y-18500014D02*
X-145968581Y-18500014D01*
X-146206677Y-18166680D02*
X-146206677Y-19023823D01*
X-146159058Y-19119061D01*
X-146063820Y-19166680D01*
X-145968581Y-19166680D01*
X-145682867Y-19119061D02*
X-145587629Y-19166680D01*
X-145397153Y-19166680D01*
X-145301915Y-19119061D01*
X-145254296Y-19023823D01*
X-145254296Y-18976204D01*
X-145301915Y-18880966D01*
X-145397153Y-18833347D01*
X-145540010Y-18833347D01*
X-145635248Y-18785728D01*
X-145682867Y-18690490D01*
X-145682867Y-18642871D01*
X-145635248Y-18547633D01*
X-145540010Y-18500014D01*
X-145397153Y-18500014D01*
X-145301915Y-18547633D01*
X-144111439Y-19119061D02*
X-144016201Y-19166680D01*
X-143825724Y-19166680D01*
X-143730486Y-19119061D01*
X-143682867Y-19023823D01*
X-143682867Y-18976204D01*
X-143730486Y-18880966D01*
X-143825724Y-18833347D01*
X-143968581Y-18833347D01*
X-144063820Y-18785728D01*
X-144111439Y-18690490D01*
X-144111439Y-18642871D01*
X-144063820Y-18547633D01*
X-143968581Y-18500014D01*
X-143825724Y-18500014D01*
X-143730486Y-18547633D01*
X-143254296Y-19166680D02*
X-143254296Y-18166680D01*
X-142825724Y-19166680D02*
X-142825724Y-18642871D01*
X-142873343Y-18547633D01*
X-142968581Y-18500014D01*
X-143111439Y-18500014D01*
X-143206677Y-18547633D01*
X-143254296Y-18595252D01*
X-142206677Y-19166680D02*
X-142301915Y-19119061D01*
X-142349534Y-19071442D01*
X-142397153Y-18976204D01*
X-142397153Y-18690490D01*
X-142349534Y-18595252D01*
X-142301915Y-18547633D01*
X-142206677Y-18500014D01*
X-142063820Y-18500014D01*
X-141968581Y-18547633D01*
X-141920962Y-18595252D01*
X-141873343Y-18690490D01*
X-141873343Y-18976204D01*
X-141920962Y-19071442D01*
X-141968581Y-19119061D01*
X-142063820Y-19166680D01*
X-142206677Y-19166680D01*
X-141540010Y-18500014D02*
X-141349534Y-19166680D01*
X-141159058Y-18690490D01*
X-140968581Y-19166680D01*
X-140778105Y-18500014D01*
X-140397153Y-18500014D02*
X-140397153Y-19166680D01*
X-140397153Y-18595252D02*
X-140349534Y-18547633D01*
X-140254296Y-18500014D01*
X-140111439Y-18500014D01*
X-140016200Y-18547633D01*
X-139968581Y-18642871D01*
X-139968581Y-19166680D01*
X-138587629Y-19166680D02*
X-138682867Y-19119061D01*
X-138730486Y-19071442D01*
X-138778105Y-18976204D01*
X-138778105Y-18690490D01*
X-138730486Y-18595252D01*
X-138682867Y-18547633D01*
X-138587629Y-18500014D01*
X-138444772Y-18500014D01*
X-138349534Y-18547633D01*
X-138301915Y-18595252D01*
X-138254296Y-18690490D01*
X-138254296Y-18976204D01*
X-138301915Y-19071442D01*
X-138349534Y-19119061D01*
X-138444772Y-19166680D01*
X-138587629Y-19166680D01*
X-137825724Y-18500014D02*
X-137825724Y-19166680D01*
X-137825724Y-18595252D02*
X-137778105Y-18547633D01*
X-137682867Y-18500014D01*
X-137540010Y-18500014D01*
X-137444772Y-18547633D01*
X-137397153Y-18642871D01*
X-137397153Y-19166680D01*
X-136159058Y-19166680D02*
X-136159058Y-18166680D01*
X-135920962Y-18166680D01*
X-135778105Y-18214300D01*
X-135682867Y-18309538D01*
X-135635248Y-18404776D01*
X-135587629Y-18595252D01*
X-135587629Y-18738109D01*
X-135635248Y-18928585D01*
X-135682867Y-19023823D01*
X-135778105Y-19119061D01*
X-135920962Y-19166680D01*
X-136159058Y-19166680D01*
X-135254296Y-18500014D02*
X-135063820Y-19166680D01*
X-134873343Y-18690490D01*
X-134682867Y-19166680D01*
X-134492391Y-18500014D01*
X-133682867Y-18500014D02*
X-133682867Y-19309538D01*
X-133730486Y-19404776D01*
X-133778105Y-19452395D01*
X-133873343Y-19500014D01*
X-134016201Y-19500014D01*
X-134111439Y-19452395D01*
X-133682867Y-19119061D02*
X-133778105Y-19166680D01*
X-133968581Y-19166680D01*
X-134063820Y-19119061D01*
X-134111439Y-19071442D01*
X-134159058Y-18976204D01*
X-134159058Y-18690490D01*
X-134111439Y-18595252D01*
X-134063820Y-18547633D01*
X-133968581Y-18500014D01*
X-133778105Y-18500014D01*
X-133682867Y-18547633D01*
X-133254296Y-19119061D02*
X-133159058Y-19166680D01*
X-132968581Y-19166680D01*
X-132873343Y-19119061D01*
X-132825724Y-19023823D01*
X-132825724Y-18976204D01*
X-132873343Y-18880966D01*
X-132968581Y-18833347D01*
X-133111439Y-18833347D01*
X-133206677Y-18785728D01*
X-133254296Y-18690490D01*
X-133254296Y-18642871D01*
X-133206677Y-18547633D01*
X-133111439Y-18500014D01*
X-132968581Y-18500014D01*
X-132873343Y-18547633D01*
X-131492391Y-19166680D02*
X-131587629Y-19119061D01*
X-131635248Y-19023823D01*
X-131635248Y-18166680D01*
X-130682867Y-19166680D02*
X-130682867Y-18642871D01*
X-130730486Y-18547633D01*
X-130825724Y-18500014D01*
X-131016201Y-18500014D01*
X-131111439Y-18547633D01*
X-130682867Y-19119061D02*
X-130778105Y-19166680D01*
X-131016201Y-19166680D01*
X-131111439Y-19119061D01*
X-131159058Y-19023823D01*
X-131159058Y-18928585D01*
X-131111439Y-18833347D01*
X-131016201Y-18785728D01*
X-130778105Y-18785728D01*
X-130682867Y-18738109D01*
X-130301915Y-18500014D02*
X-130063820Y-19166680D01*
X-129825724Y-18500014D02*
X-130063820Y-19166680D01*
X-130159058Y-19404776D01*
X-130206677Y-19452395D01*
X-130301915Y-19500014D01*
X-129063820Y-19119061D02*
X-129159058Y-19166680D01*
X-129349534Y-19166680D01*
X-129444772Y-19119061D01*
X-129492391Y-19023823D01*
X-129492391Y-18642871D01*
X-129444772Y-18547633D01*
X-129349534Y-18500014D01*
X-129159058Y-18500014D01*
X-129063820Y-18547633D01*
X-129016201Y-18642871D01*
X-129016201Y-18738109D01*
X-129492391Y-18833347D01*
X-128587629Y-19166680D02*
X-128587629Y-18500014D01*
X-128587629Y-18690490D02*
X-128540010Y-18595252D01*
X-128492391Y-18547633D01*
X-128397153Y-18500014D01*
X-128301915Y-18500014D01*
%TO.C,H3*%
X-148146200Y42807700D02*
G75*
G03*
X-148146200Y42807700I-3700000J0D01*
G01*
%TO.C,H4*%
X-73916200Y42907700D02*
G75*
G03*
X-73916200Y42907700I-3700000J0D01*
G01*
%TO.C,H2*%
X-74116200Y-19114300D02*
G75*
G03*
X-74116200Y-19114300I-3700000J0D01*
G01*
%TO.C,H1*%
X-148116200Y-19114300D02*
G75*
G03*
X-148116200Y-19114300I-3700000J0D01*
G01*
%TD*%
M02*
