0
SECTION
2
ENTITIES
0
LINE
8
0
10
0.000000
20
0.000000
30
0
11
3427.165354
21
0.000000
31
0
0
LINE
8
0
10
0.000000
20
0.000000
30
0
11
0.000000
21
-3348.425197
31
0
0
LINE
8
0
10
3427.165354
20
0.000000
30
0
11
3427.165354
21
-3348.425197
31
0
0
LINE
8
0
10
0.000000
20
-3348.425197
30
0
11
3427.165354
21
-3348.425197
31
0
0
LINE
8
1
10
262.402598
20
-2739.645276
30
0
11
277.460630
21
-2739.645276
31
0
0
LINE
8
1
10
262.402598
20
-2739.645276
30
0
11
262.402598
21
-2754.883307
31
0
0
LINE
8
1
10
277.460630
20
-2739.645276
30
0
11
277.460630
21
-2754.883307
31
0
0
LINE
8
1
10
262.402598
20
-2754.883307
30
0
11
277.460630
21
-2754.883307
31
0
0
LINE
8
1
10
294.493386
20
-2830.516417
30
0
11
309.994409
21
-2830.516417
31
0
0
LINE
8
1
10
294.493386
20
-2830.516417
30
0
11
294.493386
21
-2845.225787
31
0
0
LINE
8
1
10
309.994409
20
-2830.516417
30
0
11
309.994409
21
-2845.225787
31
0
0
LINE
8
1
10
294.493386
20
-2845.225787
30
0
11
309.994409
21
-2845.225787
31
0
0
LINE
8
1
10
190.842402
20
-2914.278543
30
0
11
201.771654
21
-2914.278543
31
0
0
LINE
8
1
10
190.842402
20
-2914.278543
30
0
11
190.842402
21
-2926.335000
31
0
0
LINE
8
1
10
201.771654
20
-2914.278543
30
0
11
201.771654
21
-2926.335000
31
0
0
LINE
8
1
10
190.842402
20
-2926.335000
30
0
11
201.771654
21
-2926.335000
31
0
0
LINE
8
1
10
207.712874
20
-2755.736181
30
0
11
258.260984
21
-2755.736181
31
0
0
LINE
8
1
10
207.712874
20
-2755.736181
30
0
11
207.712874
21
-2777.664685
31
0
0
LINE
8
1
10
258.260984
20
-2755.736181
30
0
11
258.260984
21
-2777.664685
31
0
0
LINE
8
1
10
207.712874
20
-2777.664685
30
0
11
258.260984
21
-2777.664685
31
0
0
LINE
8
1
10
80.558071
20
-2683.430354
30
0
11
330.001693
21
-2683.430354
31
0
0
LINE
8
1
10
80.558071
20
-2683.430354
30
0
11
80.558071
21
-2926.309528
31
0
0
LINE
8
1
10
330.001693
20
-2683.430354
30
0
11
330.001693
21
-2926.309528
31
0
0
LINE
8
1
10
80.558071
20
-2926.309528
30
0
11
330.001693
21
-2926.309528
31
0
0
LINE
8
1
10
281.455787
20
-2842.169291
30
0
11
303.125236
21
-2842.169291
31
0
0
LINE
8
1
10
281.455787
20
-2842.169291
30
0
11
281.455787
21
-2917.693386
31
0
0
LINE
8
1
10
303.125236
20
-2842.169291
30
0
11
303.125236
21
-2917.693386
31
0
0
LINE
8
1
10
281.455787
20
-2917.693386
30
0
11
303.125236
21
-2917.693386
31
0
0
LINE
8
1
10
2924.251969
20
-1267.952756
30
0
11
2928.976378
21
-1267.952756
31
0
0
LINE
8
1
10
2924.251969
20
-1267.952756
30
0
11
2924.251969
21
-1405.039370
31
0
0
LINE
8
1
10
2928.976378
20
-1267.952756
30
0
11
2928.976378
21
-1405.039370
31
0
0
LINE
8
1
10
2924.251969
20
-1405.039370
30
0
11
2928.976378
21
-1405.039370
31
0
0
LINE
8
1
10
2969.921260
20
-1067.204724
30
0
11
2974.645669
21
-1067.204724
31
0
0
LINE
8
1
10
2969.921260
20
-1067.204724
30
0
11
2969.921260
21
-1174.960630
31
0
0
LINE
8
1
10
2974.645669
20
-1067.204724
30
0
11
2974.645669
21
-1174.960630
31
0
0
LINE
8
1
10
2969.921260
20
-1174.960630
30
0
11
2974.645669
21
-1174.960630
31
0
0
LINE
8
1
10
3028.188976
20
-1150.511811
30
0
11
3032.913386
21
-1150.511811
31
0
0
LINE
8
1
10
3028.188976
20
-1150.511811
30
0
11
3028.188976
21
-1292.401575
31
0
0
LINE
8
1
10
3032.913386
20
-1150.511811
30
0
11
3032.913386
21
-1292.401575
31
0
0
LINE
8
1
10
3028.188976
20
-1292.401575
30
0
11
3032.913386
21
-1292.401575
31
0
0
LINE
8
1
10
2883.307087
20
-1023.976378
30
0
11
2888.031496
21
-1023.976378
31
0
0
LINE
8
1
10
2883.307087
20
-1023.976378
30
0
11
2883.307087
21
-1418.937008
31
0
0
LINE
8
1
10
2888.031496
20
-1023.976378
30
0
11
2888.031496
21
-1418.937008
31
0
0
LINE
8
1
10
2883.307087
20
-1418.937008
30
0
11
2888.031496
21
-1418.937008
31
0
0
LINE
8
1
10
2859.645669
20
-1020.118110
30
0
11
2864.370079
21
-1020.118110
31
0
0
LINE
8
1
10
2859.645669
20
-1020.118110
30
0
11
2859.645669
21
-1422.795276
31
0
0
LINE
8
1
10
2864.370079
20
-1020.118110
30
0
11
2864.370079
21
-1422.795276
31
0
0
LINE
8
1
10
2859.645669
20
-1422.795276
30
0
11
2864.370079
21
-1422.795276
31
0
0
LINE
8
1
10
2980.944882
20
-1077.322835
30
0
11
2985.669291
21
-1077.322835
31
0
0
LINE
8
1
10
2980.944882
20
-1077.322835
30
0
11
2980.944882
21
-1174.960630
31
0
0
LINE
8
1
10
2985.669291
20
-1077.322835
30
0
11
2985.669291
21
-1174.960630
31
0
0
LINE
8
1
10
2980.944882
20
-1174.960630
30
0
11
2985.669291
21
-1174.960630
31
0
0
LINE
8
1
10
2963.622047
20
-1062.047244
30
0
11
2968.346457
21
-1062.047244
31
0
0
LINE
8
1
10
2963.622047
20
-1062.047244
30
0
11
2963.622047
21
-1174.960630
31
0
0
LINE
8
1
10
2968.346457
20
-1062.047244
30
0
11
2968.346457
21
-1174.960630
31
0
0
LINE
8
1
10
2963.622047
20
-1174.960630
30
0
11
2968.346457
21
-1174.960630
31
0
0
LINE
8
1
10
2998.267717
20
-1096.811024
30
0
11
3002.992126
21
-1096.811024
31
0
0
LINE
8
1
10
2998.267717
20
-1096.811024
30
0
11
2998.267717
21
-1346.102362
31
0
0
LINE
8
1
10
3002.992126
20
-1096.811024
30
0
11
3002.992126
21
-1346.102362
31
0
0
LINE
8
1
10
2998.267717
20
-1346.102362
30
0
11
3002.992126
21
-1346.102362
31
0
0
LINE
8
1
10
3029.763780
20
-1154.921260
30
0
11
3034.488189
21
-1154.921260
31
0
0
LINE
8
1
10
3029.763780
20
-1154.921260
30
0
11
3029.763780
21
-1287.992126
31
0
0
LINE
8
1
10
3034.488189
20
-1154.921260
30
0
11
3034.488189
21
-1287.992126
31
0
0
LINE
8
1
10
3029.763780
20
-1287.992126
30
0
11
3034.488189
21
-1287.992126
31
0
0
LINE
8
1
10
2888.031496
20
-1025.078740
30
0
11
2892.755906
21
-1025.078740
31
0
0
LINE
8
1
10
2888.031496
20
-1025.078740
30
0
11
2888.031496
21
-1417.834646
31
0
0
LINE
8
1
10
2892.755906
20
-1025.078740
30
0
11
2892.755906
21
-1417.834646
31
0
0
LINE
8
1
10
2888.031496
20
-1417.834646
30
0
11
2892.755906
21
-1417.834646
31
0
0
LINE
8
1
10
2858.070866
20
-1019.960630
30
0
11
2862.795276
21
-1019.960630
31
0
0
LINE
8
1
10
2858.070866
20
-1019.960630
30
0
11
2858.070866
21
-1422.952756
31
0
0
LINE
8
1
10
2862.795276
20
-1019.960630
30
0
11
2862.795276
21
-1422.952756
31
0
0
LINE
8
1
10
2858.070866
20
-1422.952756
30
0
11
2862.795276
21
-1422.952756
31
0
0
LINE
8
1
10
2946.299213
20
-1267.952756
30
0
11
2951.023622
21
-1267.952756
31
0
0
LINE
8
1
10
2946.299213
20
-1267.952756
30
0
11
2946.299213
21
-1393.031496
31
0
0
LINE
8
1
10
2951.023622
20
-1267.952756
30
0
11
2951.023622
21
-1393.031496
31
0
0
LINE
8
1
10
2946.299213
20
-1393.031496
30
0
11
2951.023622
21
-1393.031496
31
0
0
LINE
8
1
10
2951.023622
20
-1267.952756
30
0
11
2955.748031
21
-1267.952756
31
0
0
LINE
8
1
10
2951.023622
20
-1267.952756
30
0
11
2951.023622
21
-1390.000000
31
0
0
LINE
8
1
10
2955.748031
20
-1267.952756
30
0
11
2955.748031
21
-1390.000000
31
0
0
LINE
8
1
10
2951.023622
20
-1390.000000
30
0
11
2955.748031
21
-1390.000000
31
0
0
LINE
8
1
10
3001.417323
20
-1100.984252
30
0
11
3006.141732
21
-1100.984252
31
0
0
LINE
8
1
10
3001.417323
20
-1100.984252
30
0
11
3001.417323
21
-1341.929134
31
0
0
LINE
8
1
10
3006.141732
20
-1100.984252
30
0
11
3006.141732
21
-1341.929134
31
0
0
LINE
8
1
10
3001.417323
20
-1341.929134
30
0
11
3006.141732
21
-1341.929134
31
0
0
LINE
8
1
10
2643.124173
20
-1086.220472
30
0
11
2647.848583
21
-1086.220472
31
0
0
LINE
8
1
10
2643.124173
20
-1086.220472
30
0
11
2643.124173
21
-1130.314961
31
0
0
LINE
8
1
10
2647.848583
20
-1086.220472
30
0
11
2647.848583
21
-1130.314961
31
0
0
LINE
8
1
10
2643.124173
20
-1130.314961
30
0
11
2647.848583
21
-1130.314961
31
0
0
LINE
8
1
10
2938.425197
20
-1267.952756
30
0
11
2943.149606
21
-1267.952756
31
0
0
LINE
8
1
10
2938.425197
20
-1267.952756
30
0
11
2938.425197
21
-1397.716535
31
0
0
LINE
8
1
10
2943.149606
20
-1267.952756
30
0
11
2943.149606
21
-1397.716535
31
0
0
LINE
8
1
10
2938.425197
20
-1397.716535
30
0
11
2943.149606
21
-1397.716535
31
0
0
LINE
8
1
10
2870.708661
20
-1021.535433
30
0
11
2875.433071
21
-1021.535433
31
0
0
LINE
8
1
10
2870.708661
20
-1021.535433
30
0
11
2870.708661
21
-1421.377953
31
0
0
LINE
8
1
10
2875.433071
20
-1021.535433
30
0
11
2875.433071
21
-1421.377953
31
0
0
LINE
8
1
10
2870.708661
20
-1421.377953
30
0
11
2875.433071
21
-1421.377953
31
0
0
LINE
8
1
10
2848.622047
20
-1019.291339
30
0
11
2853.346457
21
-1019.291339
31
0
0
LINE
8
1
10
2848.622047
20
-1019.291339
30
0
11
2848.622047
21
-1423.622047
31
0
0
LINE
8
1
10
2853.346457
20
-1019.291339
30
0
11
2853.346457
21
-1423.622047
31
0
0
LINE
8
1
10
2848.622047
20
-1423.622047
30
0
11
2853.346457
21
-1423.622047
31
0
0
LINE
8
1
10
2943.149606
20
-1267.952756
30
0
11
2947.874016
21
-1267.952756
31
0
0
LINE
8
1
10
2943.149606
20
-1267.952756
30
0
11
2943.149606
21
-1394.960630
31
0
0
LINE
8
1
10
2947.874016
20
-1267.952756
30
0
11
2947.874016
21
-1394.960630
31
0
0
LINE
8
1
10
2943.149606
20
-1394.960630
30
0
11
2947.874016
21
-1394.960630
31
0
0
LINE
8
1
10
2922.677165
20
-1037.165354
30
0
11
2927.401575
21
-1037.165354
31
0
0
LINE
8
1
10
2922.677165
20
-1037.165354
30
0
11
2922.677165
21
-1174.960630
31
0
0
LINE
8
1
10
2927.401575
20
-1037.165354
30
0
11
2927.401575
21
-1174.960630
31
0
0
LINE
8
1
10
2922.677165
20
-1174.960630
30
0
11
2927.401575
21
-1174.960630
31
0
0
LINE
8
1
10
3017.165354
20
-1125.984252
30
0
11
3021.889764
21
-1125.984252
31
0
0
LINE
8
1
10
3017.165354
20
-1125.984252
30
0
11
3017.165354
21
-1316.929134
31
0
0
LINE
8
1
10
3021.889764
20
-1125.984252
30
0
11
3021.889764
21
-1316.929134
31
0
0
LINE
8
1
10
3017.165354
20
-1316.929134
30
0
11
3021.889764
21
-1316.929134
31
0
0
LINE
8
1
10
2979.370079
20
-1267.952756
30
0
11
2984.094488
21
-1267.952756
31
0
0
LINE
8
1
10
2979.370079
20
-1267.952756
30
0
11
2979.370079
21
-1367.125984
31
0
0
LINE
8
1
10
2984.094488
20
-1267.952756
30
0
11
2984.094488
21
-1367.125984
31
0
0
LINE
8
1
10
2979.370079
20
-1367.125984
30
0
11
2984.094488
21
-1367.125984
31
0
0
LINE
8
1
10
2854.921260
20
-1019.685039
30
0
11
2859.645669
21
-1019.685039
31
0
0
LINE
8
1
10
2854.921260
20
-1019.685039
30
0
11
2854.921260
21
-1423.228346
31
0
0
LINE
8
1
10
2859.645669
20
-1019.685039
30
0
11
2859.645669
21
-1423.228346
31
0
0
LINE
8
1
10
2854.921260
20
-1423.228346
30
0
11
2859.645669
21
-1423.228346
31
0
0
LINE
8
1
10
3023.464567
20
-1138.897638
30
0
11
3028.188976
21
-1138.897638
31
0
0
LINE
8
1
10
3023.464567
20
-1138.897638
30
0
11
3023.464567
21
-1304.015748
31
0
0
LINE
8
1
10
3028.188976
20
-1138.897638
30
0
11
3028.188976
21
-1304.015748
31
0
0
LINE
8
1
10
3023.464567
20
-1304.015748
30
0
11
3028.188976
21
-1304.015748
31
0
0
LINE
8
1
10
3006.141732
20
-1107.677165
30
0
11
3010.866142
21
-1107.677165
31
0
0
LINE
8
1
10
3006.141732
20
-1107.677165
30
0
11
3006.141732
21
-1335.236220
31
0
0
LINE
8
1
10
3010.866142
20
-1107.677165
30
0
11
3010.866142
21
-1335.236220
31
0
0
LINE
8
1
10
3006.141732
20
-1335.236220
30
0
11
3010.866142
21
-1335.236220
31
0
0
LINE
8
1
10
2895.905512
20
-1027.204724
30
0
11
2900.629921
21
-1027.204724
31
0
0
LINE
8
1
10
2895.905512
20
-1027.204724
30
0
11
2895.905512
21
-1174.960630
31
0
0
LINE
8
1
10
2900.629921
20
-1027.204724
30
0
11
2900.629921
21
-1174.960630
31
0
0
LINE
8
1
10
2895.905512
20
-1174.960630
30
0
11
2900.629921
21
-1174.960630
31
0
0
LINE
8
1
10
2985.669291
20
-1267.952756
30
0
11
2990.393701
21
-1267.952756
31
0
0
LINE
8
1
10
2985.669291
20
-1267.952756
30
0
11
2985.669291
21
-1360.748031
31
0
0
LINE
8
1
10
2990.393701
20
-1267.952756
30
0
11
2990.393701
21
-1360.748031
31
0
0
LINE
8
1
10
2985.669291
20
-1360.748031
30
0
11
2990.393701
21
-1360.748031
31
0
0
LINE
8
1
10
2930.551181
20
-1040.944882
30
0
11
2935.275591
21
-1040.944882
31
0
0
LINE
8
1
10
2930.551181
20
-1040.944882
30
0
11
2930.551181
21
-1174.960630
31
0
0
LINE
8
1
10
2935.275591
20
-1040.944882
30
0
11
2935.275591
21
-1174.960630
31
0
0
LINE
8
1
10
2930.551181
20
-1174.960630
30
0
11
2935.275591
21
-1174.960630
31
0
0
LINE
8
1
10
3018.740157
20
-1128.976378
30
0
11
3023.464567
21
-1128.976378
31
0
0
LINE
8
1
10
3018.740157
20
-1128.976378
30
0
11
3018.740157
21
-1313.937008
31
0
0
LINE
8
1
10
3023.464567
20
-1128.976378
30
0
11
3023.464567
21
-1313.937008
31
0
0
LINE
8
1
10
3018.740157
20
-1313.937008
30
0
11
3023.464567
21
-1313.937008
31
0
0
LINE
8
1
10
2917.952756
20
-1035.078740
30
0
11
2922.677165
21
-1035.078740
31
0
0
LINE
8
1
10
2917.952756
20
-1035.078740
30
0
11
2917.952756
21
-1174.960630
31
0
0
LINE
8
1
10
2922.677165
20
-1035.078740
30
0
11
2922.677165
21
-1174.960630
31
0
0
LINE
8
1
10
2917.952756
20
-1174.960630
30
0
11
2922.677165
21
-1174.960630
31
0
0
LINE
8
1
10
2928.976378
20
-1267.952756
30
0
11
2933.700787
21
-1267.952756
31
0
0
LINE
8
1
10
2928.976378
20
-1267.952756
30
0
11
2928.976378
21
-1402.755906
31
0
0
LINE
8
1
10
2933.700787
20
-1267.952756
30
0
11
2933.700787
21
-1402.755906
31
0
0
LINE
8
1
10
2928.976378
20
-1402.755906
30
0
11
2933.700787
21
-1402.755906
31
0
0
LINE
8
1
10
2965.196850
20
-1063.307087
30
0
11
2969.921260
21
-1063.307087
31
0
0
LINE
8
1
10
2965.196850
20
-1063.307087
30
0
11
2965.196850
21
-1174.960630
31
0
0
LINE
8
1
10
2969.921260
20
-1063.307087
30
0
11
2969.921260
21
-1174.960630
31
0
0
LINE
8
1
10
2965.196850
20
-1174.960630
30
0
11
2969.921260
21
-1174.960630
31
0
0
LINE
8
1
10
2941.574803
20
-1267.952756
30
0
11
2946.299213
21
-1267.952756
31
0
0
LINE
8
1
10
2941.574803
20
-1267.952756
30
0
11
2941.574803
21
-1395.905512
31
0
0
LINE
8
1
10
2946.299213
20
-1267.952756
30
0
11
2946.299213
21
-1395.905512
31
0
0
LINE
8
1
10
2941.574803
20
-1395.905512
30
0
11
2946.299213
21
-1395.905512
31
0
0
LINE
8
1
10
2940.000000
20
-1267.952756
30
0
11
2944.724409
21
-1267.952756
31
0
0
LINE
8
1
10
2940.000000
20
-1267.952756
30
0
11
2940.000000
21
-1396.850394
31
0
0
LINE
8
1
10
2944.724409
20
-1267.952756
30
0
11
2944.724409
21
-1396.850394
31
0
0
LINE
8
1
10
2940.000000
20
-1396.850394
30
0
11
2944.724409
21
-1396.850394
31
0
0
LINE
8
1
10
3012.440945
20
-1117.559055
30
0
11
3017.165354
21
-1117.559055
31
0
0
LINE
8
1
10
3012.440945
20
-1117.559055
30
0
11
3012.440945
21
-1325.354331
31
0
0
LINE
8
1
10
3017.165354
20
-1117.559055
30
0
11
3017.165354
21
-1325.354331
31
0
0
LINE
8
1
10
3012.440945
20
-1325.354331
30
0
11
3017.165354
21
-1325.354331
31
0
0
LINE
8
1
10
2982.519685
20
-1267.952756
30
0
11
2987.244094
21
-1267.952756
31
0
0
LINE
8
1
10
2982.519685
20
-1267.952756
30
0
11
2982.519685
21
-1364.015748
31
0
0
LINE
8
1
10
2987.244094
20
-1267.952756
30
0
11
2987.244094
21
-1364.015748
31
0
0
LINE
8
1
10
2982.519685
20
-1364.015748
30
0
11
2987.244094
21
-1364.015748
31
0
0
LINE
8
1
10
2985.669291
20
-1082.165354
30
0
11
2990.393701
21
-1082.165354
31
0
0
LINE
8
1
10
2985.669291
20
-1082.165354
30
0
11
2985.669291
21
-1174.960630
31
0
0
LINE
8
1
10
2990.393701
20
-1082.165354
30
0
11
2990.393701
21
-1174.960630
31
0
0
LINE
8
1
10
2985.669291
20
-1174.960630
30
0
11
2990.393701
21
-1174.960630
31
0
0
LINE
8
1
10
3031.338583
20
-1159.645669
30
0
11
3036.062992
21
-1159.645669
31
0
0
LINE
8
1
10
3031.338583
20
-1159.645669
30
0
11
3031.338583
21
-1283.267717
31
0
0
LINE
8
1
10
3036.062992
20
-1159.645669
30
0
11
3036.062992
21
-1283.267717
31
0
0
LINE
8
1
10
3031.338583
20
-1283.267717
30
0
11
3036.062992
21
-1283.267717
31
0
0
LINE
8
1
10
2935.275591
20
-1043.425197
30
0
11
2940.000000
21
-1043.425197
31
0
0
LINE
8
1
10
2935.275591
20
-1043.425197
30
0
11
2935.275591
21
-1174.960630
31
0
0
LINE
8
1
10
2940.000000
20
-1043.425197
30
0
11
2940.000000
21
-1174.960630
31
0
0
LINE
8
1
10
2935.275591
20
-1174.960630
30
0
11
2940.000000
21
-1174.960630
31
0
0
LINE
8
1
10
2933.700787
20
-1267.952756
30
0
11
2938.425197
21
-1267.952756
31
0
0
LINE
8
1
10
2933.700787
20
-1267.952756
30
0
11
2933.700787
21
-1400.314961
31
0
0
LINE
8
1
10
2938.425197
20
-1267.952756
30
0
11
2938.425197
21
-1400.314961
31
0
0
LINE
8
1
10
2933.700787
20
-1400.314961
30
0
11
2938.425197
21
-1400.314961
31
0
0
LINE
8
1
10
2951.023622
20
-1052.913386
30
0
11
2955.748031
21
-1052.913386
31
0
0
LINE
8
1
10
2951.023622
20
-1052.913386
30
0
11
2951.023622
21
-1174.960630
31
0
0
LINE
8
1
10
2955.748031
20
-1052.913386
30
0
11
2955.748031
21
-1174.960630
31
0
0
LINE
8
1
10
2951.023622
20
-1174.960630
30
0
11
2955.748031
21
-1174.960630
31
0
0
LINE
8
1
10
2864.370079
20
-1020.669291
30
0
11
2869.094488
21
-1020.669291
31
0
0
LINE
8
1
10
2864.370079
20
-1020.669291
30
0
11
2864.370079
21
-1422.244094
31
0
0
LINE
8
1
10
2869.094488
20
-1020.669291
30
0
11
2869.094488
21
-1422.244094
31
0
0
LINE
8
1
10
2864.370079
20
-1422.244094
30
0
11
2869.094488
21
-1422.244094
31
0
0
LINE
8
1
10
2943.149606
20
-1047.952756
30
0
11
2947.874016
21
-1047.952756
31
0
0
LINE
8
1
10
2943.149606
20
-1047.952756
30
0
11
2943.149606
21
-1174.960630
31
0
0
LINE
8
1
10
2947.874016
20
-1047.952756
30
0
11
2947.874016
21
-1174.960630
31
0
0
LINE
8
1
10
2943.149606
20
-1174.960630
30
0
11
2947.874016
21
-1174.960630
31
0
0
LINE
8
1
10
2980.944882
20
-1267.952756
30
0
11
2985.669291
21
-1267.952756
31
0
0
LINE
8
1
10
2980.944882
20
-1267.952756
30
0
11
2980.944882
21
-1365.590551
31
0
0
LINE
8
1
10
2985.669291
20
-1267.952756
30
0
11
2985.669291
21
-1365.590551
31
0
0
LINE
8
1
10
2980.944882
20
-1365.590551
30
0
11
2985.669291
21
-1365.590551
31
0
0
LINE
8
1
10
3026.614173
20
-1146.417323
30
0
11
3031.338583
21
-1146.417323
31
0
0
LINE
8
1
10
3026.614173
20
-1146.417323
30
0
11
3026.614173
21
-1296.496063
31
0
0
LINE
8
1
10
3031.338583
20
-1146.417323
30
0
11
3031.338583
21
-1296.496063
31
0
0
LINE
8
1
10
3026.614173
20
-1296.496063
30
0
11
3031.338583
21
-1296.496063
31
0
0
LINE
8
1
10
2921.102362
20
-1036.456693
30
0
11
2925.826772
21
-1036.456693
31
0
0
LINE
8
1
10
2921.102362
20
-1036.456693
30
0
11
2921.102362
21
-1174.960630
31
0
0
LINE
8
1
10
2925.826772
20
-1036.456693
30
0
11
2925.826772
21
-1174.960630
31
0
0
LINE
8
1
10
2921.102362
20
-1174.960630
30
0
11
2925.826772
21
-1174.960630
31
0
0
LINE
8
1
10
2952.598425
20
-1267.952756
30
0
11
2957.322835
21
-1267.952756
31
0
0
LINE
8
1
10
2952.598425
20
-1267.952756
30
0
11
2952.598425
21
-1388.937008
31
0
0
LINE
8
1
10
2957.322835
20
-1267.952756
30
0
11
2957.322835
21
-1388.937008
31
0
0
LINE
8
1
10
2952.598425
20
-1388.937008
30
0
11
2957.322835
21
-1388.937008
31
0
0
LINE
8
1
10
2911.653543
20
-1267.952756
30
0
11
2916.377953
21
-1267.952756
31
0
0
LINE
8
1
10
2911.653543
20
-1267.952756
30
0
11
2911.653543
21
-1410.354331
31
0
0
LINE
8
1
10
2916.377953
20
-1267.952756
30
0
11
2916.377953
21
-1410.354331
31
0
0
LINE
8
1
10
2911.653543
20
-1410.354331
30
0
11
2916.377953
21
-1410.354331
31
0
0
LINE
8
1
10
2947.874016
20
-1050.866142
30
0
11
2952.598425
21
-1050.866142
31
0
0
LINE
8
1
10
2947.874016
20
-1050.866142
30
0
11
2947.874016
21
-1174.960630
31
0
0
LINE
8
1
10
2952.598425
20
-1050.866142
30
0
11
2952.598425
21
-1174.960630
31
0
0
LINE
8
1
10
2947.874016
20
-1174.960630
30
0
11
2952.598425
21
-1174.960630
31
0
0
LINE
8
1
10
2908.503937
20
-1031.377953
30
0
11
2913.228346
21
-1031.377953
31
0
0
LINE
8
1
10
2908.503937
20
-1031.377953
30
0
11
2908.503937
21
-1174.960630
31
0
0
LINE
8
1
10
2913.228346
20
-1031.377953
30
0
11
2913.228346
21
-1174.960630
31
0
0
LINE
8
1
10
2908.503937
20
-1174.960630
30
0
11
2913.228346
21
-1174.960630
31
0
0
LINE
8
1
10
2878.582677
20
-1022.952756
30
0
11
2883.307087
21
-1022.952756
31
0
0
LINE
8
1
10
2878.582677
20
-1022.952756
30
0
11
2878.582677
21
-1419.960630
31
0
0
LINE
8
1
10
2883.307087
20
-1022.952756
30
0
11
2883.307087
21
-1419.960630
31
0
0
LINE
8
1
10
2878.582677
20
-1419.960630
30
0
11
2883.307087
21
-1419.960630
31
0
0
LINE
8
1
10
2973.070866
20
-1069.921260
30
0
11
2977.795276
21
-1069.921260
31
0
0
LINE
8
1
10
2973.070866
20
-1069.921260
30
0
11
2973.070866
21
-1174.960630
31
0
0
LINE
8
1
10
2977.795276
20
-1069.921260
30
0
11
2977.795276
21
-1174.960630
31
0
0
LINE
8
1
10
2973.070866
20
-1174.960630
30
0
11
2977.795276
21
-1174.960630
31
0
0
LINE
8
1
10
2843.897638
20
-1019.133858
30
0
11
2848.622047
21
-1019.133858
31
0
0
LINE
8
1
10
2843.897638
20
-1019.133858
30
0
11
2843.897638
21
-1423.779528
31
0
0
LINE
8
1
10
2848.622047
20
-1019.133858
30
0
11
2848.622047
21
-1423.779528
31
0
0
LINE
8
1
10
2843.897638
20
-1423.779528
30
0
11
2848.622047
21
-1423.779528
31
0
0
LINE
8
1
10
2913.228346
20
-1267.952756
30
0
11
2917.952756
21
-1267.952756
31
0
0
LINE
8
1
10
2913.228346
20
-1267.952756
30
0
11
2913.228346
21
-1409.763780
31
0
0
LINE
8
1
10
2917.952756
20
-1267.952756
30
0
11
2917.952756
21
-1409.763780
31
0
0
LINE
8
1
10
2913.228346
20
-1409.763780
30
0
11
2917.952756
21
-1409.763780
31
0
0
LINE
8
1
10
2892.755906
20
-1026.299213
30
0
11
2897.480315
21
-1026.299213
31
0
0
LINE
8
1
10
2892.755906
20
-1026.299213
30
0
11
2892.755906
21
-1174.960630
31
0
0
LINE
8
1
10
2897.480315
20
-1026.299213
30
0
11
2897.480315
21
-1174.960630
31
0
0
LINE
8
1
10
2892.755906
20
-1174.960630
30
0
11
2897.480315
21
-1174.960630
31
0
0
LINE
8
1
10
2936.850394
20
-1267.952756
30
0
11
2941.574803
21
-1267.952756
31
0
0
LINE
8
1
10
2936.850394
20
-1267.952756
30
0
11
2936.850394
21
-1398.622047
31
0
0
LINE
8
1
10
2941.574803
20
-1267.952756
30
0
11
2941.574803
21
-1398.622047
31
0
0
LINE
8
1
10
2936.850394
20
-1398.622047
30
0
11
2941.574803
21
-1398.622047
31
0
0
LINE
8
1
10
2894.330709
20
-1026.771654
30
0
11
2899.055118
21
-1026.771654
31
0
0
LINE
8
1
10
2894.330709
20
-1026.771654
30
0
11
2894.330709
21
-1174.960630
31
0
0
LINE
8
1
10
2899.055118
20
-1026.771654
30
0
11
2899.055118
21
-1174.960630
31
0
0
LINE
8
1
10
2894.330709
20
-1174.960630
30
0
11
2899.055118
21
-1174.960630
31
0
0
LINE
8
1
10
2892.755906
20
-1267.952756
30
0
11
2897.480315
21
-1267.952756
31
0
0
LINE
8
1
10
2892.755906
20
-1267.952756
30
0
11
2892.755906
21
-1416.614173
31
0
0
LINE
8
1
10
2897.480315
20
-1267.952756
30
0
11
2897.480315
21
-1416.614173
31
0
0
LINE
8
1
10
2892.755906
20
-1416.614173
30
0
11
2897.480315
21
-1416.614173
31
0
0
LINE
8
1
10
2856.496063
20
-1019.803150
30
0
11
2861.220472
21
-1019.803150
31
0
0
LINE
8
1
10
2856.496063
20
-1019.803150
30
0
11
2856.496063
21
-1423.110236
31
0
0
LINE
8
1
10
2861.220472
20
-1019.803150
30
0
11
2861.220472
21
-1423.110236
31
0
0
LINE
8
1
10
2856.496063
20
-1423.110236
30
0
11
2861.220472
21
-1423.110236
31
0
0
LINE
8
1
10
2872.283465
20
-1021.811024
30
0
11
2877.007874
21
-1021.811024
31
0
0
LINE
8
1
10
2872.283465
20
-1021.811024
30
0
11
2872.283465
21
-1421.102362
31
0
0
LINE
8
1
10
2877.007874
20
-1021.811024
30
0
11
2877.007874
21
-1421.102362
31
0
0
LINE
8
1
10
2872.283465
20
-1421.102362
30
0
11
2877.007874
21
-1421.102362
31
0
0
LINE
8
1
10
2930.551181
20
-1267.952756
30
0
11
2935.275591
21
-1267.952756
31
0
0
LINE
8
1
10
2930.551181
20
-1267.952756
30
0
11
2930.551181
21
-1401.968504
31
0
0
LINE
8
1
10
2935.275591
20
-1267.952756
30
0
11
2935.275591
21
-1401.968504
31
0
0
LINE
8
1
10
2930.551181
20
-1401.968504
30
0
11
2935.275591
21
-1401.968504
31
0
0
LINE
8
1
10
2928.976378
20
-1040.157480
30
0
11
2933.700787
21
-1040.157480
31
0
0
LINE
8
1
10
2928.976378
20
-1040.157480
30
0
11
2928.976378
21
-1174.960630
31
0
0
LINE
8
1
10
2933.700787
20
-1040.157480
30
0
11
2933.700787
21
-1174.960630
31
0
0
LINE
8
1
10
2928.976378
20
-1174.960630
30
0
11
2933.700787
21
-1174.960630
31
0
0
LINE
8
1
10
2873.858268
20
-1022.086614
30
0
11
2878.582677
21
-1022.086614
31
0
0
LINE
8
1
10
2873.858268
20
-1022.086614
30
0
11
2873.858268
21
-1420.826772
31
0
0
LINE
8
1
10
2878.582677
20
-1022.086614
30
0
11
2878.582677
21
-1420.826772
31
0
0
LINE
8
1
10
2873.858268
20
-1420.826772
30
0
11
2878.582677
21
-1420.826772
31
0
0
LINE
8
1
10
3032.913386
20
-1164.842520
30
0
11
3037.637795
21
-1164.842520
31
0
0
LINE
8
1
10
3032.913386
20
-1164.842520
30
0
11
3032.913386
21
-1278.070866
31
0
0
LINE
8
1
10
3037.637795
20
-1164.842520
30
0
11
3037.637795
21
-1278.070866
31
0
0
LINE
8
1
10
3032.913386
20
-1278.070866
30
0
11
3037.637795
21
-1278.070866
31
0
0
LINE
8
1
10
2944.724409
20
-1267.952756
30
0
11
2949.448819
21
-1267.952756
31
0
0
LINE
8
1
10
2944.724409
20
-1267.952756
30
0
11
2944.724409
21
-1394.015748
31
0
0
LINE
8
1
10
2949.448819
20
-1267.952756
30
0
11
2949.448819
21
-1394.015748
31
0
0
LINE
8
1
10
2944.724409
20
-1394.015748
30
0
11
2949.448819
21
-1394.015748
31
0
0
LINE
8
1
10
2955.748031
20
-1267.952756
30
0
11
2960.472441
21
-1267.952756
31
0
0
LINE
8
1
10
2955.748031
20
-1267.952756
30
0
11
2955.748031
21
-1386.732283
31
0
0
LINE
8
1
10
2960.472441
20
-1267.952756
30
0
11
2960.472441
21
-1386.732283
31
0
0
LINE
8
1
10
2955.748031
20
-1386.732283
30
0
11
2960.472441
21
-1386.732283
31
0
0
LINE
8
1
10
2851.771654
20
-1019.488189
30
0
11
2856.496063
21
-1019.488189
31
0
0
LINE
8
1
10
2851.771654
20
-1019.488189
30
0
11
2851.771654
21
-1423.425197
31
0
0
LINE
8
1
10
2856.496063
20
-1019.488189
30
0
11
2856.496063
21
-1423.425197
31
0
0
LINE
8
1
10
2851.771654
20
-1423.425197
30
0
11
2856.496063
21
-1423.425197
31
0
0
LINE
8
1
10
2946.299213
20
-1049.881890
30
0
11
2951.023622
21
-1049.881890
31
0
0
LINE
8
1
10
2946.299213
20
-1049.881890
30
0
11
2946.299213
21
-1174.960630
31
0
0
LINE
8
1
10
2951.023622
20
-1049.881890
30
0
11
2951.023622
21
-1174.960630
31
0
0
LINE
8
1
10
2946.299213
20
-1174.960630
30
0
11
2951.023622
21
-1174.960630
31
0
0
LINE
8
1
10
2968.346457
20
-1267.952756
30
0
11
2973.070866
21
-1267.952756
31
0
0
LINE
8
1
10
2968.346457
20
-1267.952756
30
0
11
2968.346457
21
-1377.047244
31
0
0
LINE
8
1
10
2973.070866
20
-1267.952756
30
0
11
2973.070866
21
-1377.047244
31
0
0
LINE
8
1
10
2968.346457
20
-1377.047244
30
0
11
2973.070866
21
-1377.047244
31
0
0
LINE
8
1
10
2977.795276
20
-1267.952756
30
0
11
2982.519685
21
-1267.952756
31
0
0
LINE
8
1
10
2977.795276
20
-1267.952756
30
0
11
2977.795276
21
-1368.661417
31
0
0
LINE
8
1
10
2982.519685
20
-1267.952756
30
0
11
2982.519685
21
-1368.661417
31
0
0
LINE
8
1
10
2977.795276
20
-1368.661417
30
0
11
2982.519685
21
-1368.661417
31
0
0
LINE
8
1
10
2971.496063
20
-1068.543307
30
0
11
2976.220472
21
-1068.543307
31
0
0
LINE
8
1
10
2971.496063
20
-1068.543307
30
0
11
2971.496063
21
-1174.960630
31
0
0
LINE
8
1
10
2976.220472
20
-1068.543307
30
0
11
2976.220472
21
-1174.960630
31
0
0
LINE
8
1
10
2971.496063
20
-1174.960630
30
0
11
2976.220472
21
-1174.960630
31
0
0
LINE
8
1
10
2924.251969
20
-1037.874016
30
0
11
2928.976378
21
-1037.874016
31
0
0
LINE
8
1
10
2924.251969
20
-1037.874016
30
0
11
2924.251969
21
-1174.960630
31
0
0
LINE
8
1
10
2928.976378
20
-1037.874016
30
0
11
2928.976378
21
-1174.960630
31
0
0
LINE
8
1
10
2924.251969
20
-1174.960630
30
0
11
2928.976378
21
-1174.960630
31
0
0
LINE
8
1
10
2902.204724
20
-1029.173228
30
0
11
2906.929134
21
-1029.173228
31
0
0
LINE
8
1
10
2902.204724
20
-1029.173228
30
0
11
2902.204724
21
-1174.960630
31
0
0
LINE
8
1
10
2906.929134
20
-1029.173228
30
0
11
2906.929134
21
-1174.960630
31
0
0
LINE
8
1
10
2902.204724
20
-1174.960630
30
0
11
2906.929134
21
-1174.960630
31
0
0
LINE
8
1
10
2902.204724
20
-1267.952756
30
0
11
2906.929134
21
-1267.952756
31
0
0
LINE
8
1
10
2902.204724
20
-1267.952756
30
0
11
2902.204724
21
-1413.740157
31
0
0
LINE
8
1
10
2906.929134
20
-1267.952756
30
0
11
2906.929134
21
-1413.740157
31
0
0
LINE
8
1
10
2902.204724
20
-1413.740157
30
0
11
2906.929134
21
-1413.740157
31
0
0
LINE
8
1
10
2867.559055
20
-1021.062992
30
0
11
2872.283465
21
-1021.062992
31
0
0
LINE
8
1
10
2867.559055
20
-1021.062992
30
0
11
2867.559055
21
-1421.850394
31
0
0
LINE
8
1
10
2872.283465
20
-1021.062992
30
0
11
2872.283465
21
-1421.850394
31
0
0
LINE
8
1
10
2867.559055
20
-1421.850394
30
0
11
2872.283465
21
-1421.850394
31
0
0
LINE
8
1
10
2919.527559
20
-1267.952756
30
0
11
2924.251969
21
-1267.952756
31
0
0
LINE
8
1
10
2919.527559
20
-1267.952756
30
0
11
2919.527559
21
-1407.165354
31
0
0
LINE
8
1
10
2924.251969
20
-1267.952756
30
0
11
2924.251969
21
-1407.165354
31
0
0
LINE
8
1
10
2919.527559
20
-1407.165354
30
0
11
2924.251969
21
-1407.165354
31
0
0
LINE
8
1
10
2917.952756
20
-1267.952756
30
0
11
2922.677165
21
-1267.952756
31
0
0
LINE
8
1
10
2917.952756
20
-1267.952756
30
0
11
2917.952756
21
-1407.834646
31
0
0
LINE
8
1
10
2922.677165
20
-1267.952756
30
0
11
2922.677165
21
-1407.834646
31
0
0
LINE
8
1
10
2917.952756
20
-1407.834646
30
0
11
2922.677165
21
-1407.834646
31
0
0
LINE
8
1
10
3037.637795
20
-1185.157480
30
0
11
3042.362205
21
-1185.157480
31
0
0
LINE
8
1
10
3037.637795
20
-1185.157480
30
0
11
3037.637795
21
-1257.755906
31
0
0
LINE
8
1
10
3042.362205
20
-1185.157480
30
0
11
3042.362205
21
-1257.755906
31
0
0
LINE
8
1
10
3037.637795
20
-1257.755906
30
0
11
3042.362205
21
-1257.755906
31
0
0
LINE
8
1
10
2958.897638
20
-1267.952756
30
0
11
2963.622047
21
-1267.952756
31
0
0
LINE
8
1
10
2958.897638
20
-1267.952756
30
0
11
2958.897638
21
-1384.448819
31
0
0
LINE
8
1
10
2963.622047
20
-1267.952756
30
0
11
2963.622047
21
-1384.448819
31
0
0
LINE
8
1
10
2958.897638
20
-1384.448819
30
0
11
2963.622047
21
-1384.448819
31
0
0
LINE
8
1
10
2861.220472
20
-1020.275591
30
0
11
2865.944882
21
-1020.275591
31
0
0
LINE
8
1
10
2861.220472
20
-1020.275591
30
0
11
2861.220472
21
-1422.637795
31
0
0
LINE
8
1
10
2865.944882
20
-1020.275591
30
0
11
2865.944882
21
-1422.637795
31
0
0
LINE
8
1
10
2861.220472
20
-1422.637795
30
0
11
2865.944882
21
-1422.637795
31
0
0
LINE
8
1
10
2979.370079
20
-1075.787402
30
0
11
2984.094488
21
-1075.787402
31
0
0
LINE
8
1
10
2979.370079
20
-1075.787402
30
0
11
2979.370079
21
-1174.960630
31
0
0
LINE
8
1
10
2984.094488
20
-1075.787402
30
0
11
2984.094488
21
-1174.960630
31
0
0
LINE
8
1
10
2979.370079
20
-1174.960630
30
0
11
2984.094488
21
-1174.960630
31
0
0
LINE
8
1
10
2941.574803
20
-1047.007874
30
0
11
2946.299213
21
-1047.007874
31
0
0
LINE
8
1
10
2941.574803
20
-1047.007874
30
0
11
2941.574803
21
-1174.960630
31
0
0
LINE
8
1
10
2946.299213
20
-1047.007874
30
0
11
2946.299213
21
-1174.960630
31
0
0
LINE
8
1
10
2941.574803
20
-1174.960630
30
0
11
2946.299213
21
-1174.960630
31
0
0
LINE
8
1
10
2889.606299
20
-1267.952756
30
0
11
2894.330709
21
-1267.952756
31
0
0
LINE
8
1
10
2889.606299
20
-1267.952756
30
0
11
2889.606299
21
-1417.440945
31
0
0
LINE
8
1
10
2894.330709
20
-1267.952756
30
0
11
2894.330709
21
-1417.440945
31
0
0
LINE
8
1
10
2889.606299
20
-1417.440945
30
0
11
2894.330709
21
-1417.440945
31
0
0
LINE
8
1
10
3010.866142
20
-1114.960630
30
0
11
3015.590551
21
-1114.960630
31
0
0
LINE
8
1
10
3010.866142
20
-1114.960630
30
0
11
3010.866142
21
-1327.952756
31
0
0
LINE
8
1
10
3015.590551
20
-1114.960630
30
0
11
3015.590551
21
-1327.952756
31
0
0
LINE
8
1
10
3010.866142
20
-1327.952756
30
0
11
3015.590551
21
-1327.952756
31
0
0
LINE
8
1
10
2845.472441
20
-1019.173228
30
0
11
2850.196850
21
-1019.173228
31
0
0
LINE
8
1
10
2845.472441
20
-1019.173228
30
0
11
2845.472441
21
-1423.740157
31
0
0
LINE
8
1
10
2850.196850
20
-1019.173228
30
0
11
2850.196850
21
-1423.740157
31
0
0
LINE
8
1
10
2845.472441
20
-1423.740157
30
0
11
2850.196850
21
-1423.740157
31
0
0
LINE
8
1
10
2862.795276
20
-1020.472441
30
0
11
2867.519685
21
-1020.472441
31
0
0
LINE
8
1
10
2862.795276
20
-1020.472441
30
0
11
2862.795276
21
-1422.440945
31
0
0
LINE
8
1
10
2867.519685
20
-1020.472441
30
0
11
2867.519685
21
-1422.440945
31
0
0
LINE
8
1
10
2862.795276
20
-1422.440945
30
0
11
2867.519685
21
-1422.440945
31
0
0
LINE
8
1
10
2935.275591
20
-1267.952756
30
0
11
2940.000000
21
-1267.952756
31
0
0
LINE
8
1
10
2935.275591
20
-1267.952756
30
0
11
2935.275591
21
-1399.488189
31
0
0
LINE
8
1
10
2940.000000
20
-1267.952756
30
0
11
2940.000000
21
-1399.488189
31
0
0
LINE
8
1
10
2935.275591
20
-1399.488189
30
0
11
2940.000000
21
-1399.488189
31
0
0
LINE
8
1
10
2932.125984
20
-1041.771654
30
0
11
2936.850394
21
-1041.771654
31
0
0
LINE
8
1
10
2932.125984
20
-1041.771654
30
0
11
2932.125984
21
-1174.960630
31
0
0
LINE
8
1
10
2936.850394
20
-1041.771654
30
0
11
2936.850394
21
-1174.960630
31
0
0
LINE
8
1
10
2932.125984
20
-1174.960630
30
0
11
2936.850394
21
-1174.960630
31
0
0
LINE
8
1
10
3002.992126
20
-1103.149606
30
0
11
3007.716535
21
-1103.149606
31
0
0
LINE
8
1
10
3002.992126
20
-1103.149606
30
0
11
3002.992126
21
-1339.763780
31
0
0
LINE
8
1
10
3007.716535
20
-1103.149606
30
0
11
3007.716535
21
-1339.763780
31
0
0
LINE
8
1
10
3002.992126
20
-1339.763780
30
0
11
3007.716535
21
-1339.763780
31
0
0
LINE
8
1
10
2897.480315
20
-1267.952756
30
0
11
2902.204724
21
-1267.952756
31
0
0
LINE
8
1
10
2897.480315
20
-1267.952756
30
0
11
2897.480315
21
-1415.236220
31
0
0
LINE
8
1
10
2902.204724
20
-1267.952756
30
0
11
2902.204724
21
-1415.236220
31
0
0
LINE
8
1
10
2897.480315
20
-1415.236220
30
0
11
2902.204724
21
-1415.236220
31
0
0
LINE
8
1
10
2623.439134
20
-1105.905512
30
0
11
2667.533622
21
-1105.905512
31
0
0
LINE
8
1
10
2623.439134
20
-1105.905512
30
0
11
2623.439134
21
-1110.629921
31
0
0
LINE
8
1
10
2667.533622
20
-1105.905512
30
0
11
2667.533622
21
-1110.629921
31
0
0
LINE
8
1
10
2623.439134
20
-1110.629921
30
0
11
2667.533622
21
-1110.629921
31
0
0
LINE
8
1
10
2955.748031
20
-1056.181102
30
0
11
2960.472441
21
-1056.181102
31
0
0
LINE
8
1
10
2955.748031
20
-1056.181102
30
0
11
2955.748031
21
-1174.960630
31
0
0
LINE
8
1
10
2960.472441
20
-1056.181102
30
0
11
2960.472441
21
-1174.960630
31
0
0
LINE
8
1
10
2955.748031
20
-1174.960630
30
0
11
2960.472441
21
-1174.960630
31
0
0
LINE
8
1
10
2889.606299
20
-1025.472441
30
0
11
2894.330709
21
-1025.472441
31
0
0
LINE
8
1
10
2889.606299
20
-1025.472441
30
0
11
2889.606299
21
-1174.960630
31
0
0
LINE
8
1
10
2894.330709
20
-1025.472441
30
0
11
2894.330709
21
-1174.960630
31
0
0
LINE
8
1
10
2889.606299
20
-1174.960630
30
0
11
2894.330709
21
-1174.960630
31
0
0
LINE
8
1
10
2847.047244
20
-1019.212598
30
0
11
2851.771654
21
-1019.212598
31
0
0
LINE
8
1
10
2847.047244
20
-1019.212598
30
0
11
2847.047244
21
-1423.700787
31
0
0
LINE
8
1
10
2851.771654
20
-1019.212598
30
0
11
2851.771654
21
-1423.700787
31
0
0
LINE
8
1
10
2847.047244
20
-1423.700787
30
0
11
2851.771654
21
-1423.700787
31
0
0
LINE
8
1
10
2853.346457
20
-1019.566929
30
0
11
2858.070866
21
-1019.566929
31
0
0
LINE
8
1
10
2853.346457
20
-1019.566929
30
0
11
2853.346457
21
-1423.346457
31
0
0
LINE
8
1
10
2858.070866
20
-1019.566929
30
0
11
2858.070866
21
-1423.346457
31
0
0
LINE
8
1
10
2853.346457
20
-1423.346457
30
0
11
2858.070866
21
-1423.346457
31
0
0
LINE
8
1
10
2960.472441
20
-1059.645669
30
0
11
2965.196850
21
-1059.645669
31
0
0
LINE
8
1
10
2960.472441
20
-1059.645669
30
0
11
2960.472441
21
-1174.960630
31
0
0
LINE
8
1
10
2965.196850
20
-1059.645669
30
0
11
2965.196850
21
-1174.960630
31
0
0
LINE
8
1
10
2960.472441
20
-1174.960630
30
0
11
2965.196850
21
-1174.960630
31
0
0
LINE
8
1
10
2973.070866
20
-1267.952756
30
0
11
2977.795276
21
-1267.952756
31
0
0
LINE
8
1
10
2973.070866
20
-1267.952756
30
0
11
2973.070866
21
-1372.992126
31
0
0
LINE
8
1
10
2977.795276
20
-1267.952756
30
0
11
2977.795276
21
-1372.992126
31
0
0
LINE
8
1
10
2973.070866
20
-1372.992126
30
0
11
2977.795276
21
-1372.992126
31
0
0
LINE
8
1
10
2903.779528
20
-1029.685039
30
0
11
2908.503937
21
-1029.685039
31
0
0
LINE
8
1
10
2903.779528
20
-1029.685039
30
0
11
2903.779528
21
-1174.960630
31
0
0
LINE
8
1
10
2908.503937
20
-1029.685039
30
0
11
2908.503937
21
-1174.960630
31
0
0
LINE
8
1
10
2903.779528
20
-1174.960630
30
0
11
2908.503937
21
-1174.960630
31
0
0
LINE
8
1
10
2905.354331
20
-1267.952756
30
0
11
2910.078740
21
-1267.952756
31
0
0
LINE
8
1
10
2905.354331
20
-1267.952756
30
0
11
2905.354331
21
-1412.677165
31
0
0
LINE
8
1
10
2910.078740
20
-1267.952756
30
0
11
2910.078740
21
-1412.677165
31
0
0
LINE
8
1
10
2905.354331
20
-1412.677165
30
0
11
2910.078740
21
-1412.677165
31
0
0
LINE
8
1
10
2900.629921
20
-1267.952756
30
0
11
2905.354331
21
-1267.952756
31
0
0
LINE
8
1
10
2900.629921
20
-1267.952756
30
0
11
2900.629921
21
-1414.251969
31
0
0
LINE
8
1
10
2905.354331
20
-1267.952756
30
0
11
2905.354331
21
-1414.251969
31
0
0
LINE
8
1
10
2900.629921
20
-1414.251969
30
0
11
2905.354331
21
-1414.251969
31
0
0
LINE
8
1
10
3034.488189
20
-1170.669291
30
0
11
3039.212598
21
-1170.669291
31
0
0
LINE
8
1
10
3034.488189
20
-1170.669291
30
0
11
3034.488189
21
-1272.244094
31
0
0
LINE
8
1
10
3039.212598
20
-1170.669291
30
0
11
3039.212598
21
-1272.244094
31
0
0
LINE
8
1
10
3034.488189
20
-1272.244094
30
0
11
3039.212598
21
-1272.244094
31
0
0
LINE
8
1
10
2936.850394
20
-1044.291339
30
0
11
2941.574803
21
-1044.291339
31
0
0
LINE
8
1
10
2936.850394
20
-1044.291339
30
0
11
2936.850394
21
-1174.960630
31
0
0
LINE
8
1
10
2941.574803
20
-1044.291339
30
0
11
2941.574803
21
-1174.960630
31
0
0
LINE
8
1
10
2936.850394
20
-1174.960630
30
0
11
2941.574803
21
-1174.960630
31
0
0
LINE
8
1
10
2974.645669
20
-1071.338583
30
0
11
2979.370079
21
-1071.338583
31
0
0
LINE
8
1
10
2974.645669
20
-1071.338583
30
0
11
2974.645669
21
-1174.960630
31
0
0
LINE
8
1
10
2979.370079
20
-1071.338583
30
0
11
2979.370079
21
-1174.960630
31
0
0
LINE
8
1
10
2974.645669
20
-1174.960630
30
0
11
2979.370079
21
-1174.960630
31
0
0
LINE
8
1
10
2957.322835
20
-1267.952756
30
0
11
2962.047244
21
-1267.952756
31
0
0
LINE
8
1
10
2957.322835
20
-1267.952756
30
0
11
2957.322835
21
-1385.629921
31
0
0
LINE
8
1
10
2962.047244
20
-1267.952756
30
0
11
2962.047244
21
-1385.629921
31
0
0
LINE
8
1
10
2957.322835
20
-1385.629921
30
0
11
2962.047244
21
-1385.629921
31
0
0
LINE
8
1
10
2884.881890
20
-1024.330709
30
0
11
2889.606299
21
-1024.330709
31
0
0
LINE
8
1
10
2884.881890
20
-1024.330709
30
0
11
2884.881890
21
-1418.582677
31
0
0
LINE
8
1
10
2889.606299
20
-1024.330709
30
0
11
2889.606299
21
-1418.582677
31
0
0
LINE
8
1
10
2884.881890
20
-1418.582677
30
0
11
2889.606299
21
-1418.582677
31
0
0
LINE
8
1
10
2891.181102
20
-1025.905512
30
0
11
2895.905512
21
-1025.905512
31
0
0
LINE
8
1
10
2891.181102
20
-1025.905512
30
0
11
2891.181102
21
-1174.960630
31
0
0
LINE
8
1
10
2895.905512
20
-1025.905512
30
0
11
2895.905512
21
-1174.960630
31
0
0
LINE
8
1
10
2891.181102
20
-1174.960630
30
0
11
2895.905512
21
-1174.960630
31
0
0
LINE
8
1
10
2899.055118
20
-1028.149606
30
0
11
2903.779528
21
-1028.149606
31
0
0
LINE
8
1
10
2899.055118
20
-1028.149606
30
0
11
2899.055118
21
-1174.960630
31
0
0
LINE
8
1
10
2903.779528
20
-1028.149606
30
0
11
2903.779528
21
-1174.960630
31
0
0
LINE
8
1
10
2899.055118
20
-1174.960630
30
0
11
2903.779528
21
-1174.960630
31
0
0
LINE
8
1
10
2982.519685
20
-1078.897638
30
0
11
2987.244094
21
-1078.897638
31
0
0
LINE
8
1
10
2982.519685
20
-1078.897638
30
0
11
2982.519685
21
-1174.960630
31
0
0
LINE
8
1
10
2987.244094
20
-1078.897638
30
0
11
2987.244094
21
-1174.960630
31
0
0
LINE
8
1
10
2982.519685
20
-1174.960630
30
0
11
2987.244094
21
-1174.960630
31
0
0
LINE
8
1
10
2932.125984
20
-1267.952756
30
0
11
2936.850394
21
-1267.952756
31
0
0
LINE
8
1
10
2932.125984
20
-1267.952756
30
0
11
2932.125984
21
-1401.141732
31
0
0
LINE
8
1
10
2936.850394
20
-1267.952756
30
0
11
2936.850394
21
-1401.141732
31
0
0
LINE
8
1
10
2932.125984
20
-1401.141732
30
0
11
2936.850394
21
-1401.141732
31
0
0
LINE
8
1
10
2910.078740
20
-1267.952756
30
0
11
2914.803150
21
-1267.952756
31
0
0
LINE
8
1
10
2910.078740
20
-1267.952756
30
0
11
2910.078740
21
-1410.984252
31
0
0
LINE
8
1
10
2914.803150
20
-1267.952756
30
0
11
2914.803150
21
-1410.984252
31
0
0
LINE
8
1
10
2910.078740
20
-1410.984252
30
0
11
2914.803150
21
-1410.984252
31
0
0
LINE
8
1
10
2971.496063
20
-1267.952756
30
0
11
2976.220472
21
-1267.952756
31
0
0
LINE
8
1
10
2971.496063
20
-1267.952756
30
0
11
2971.496063
21
-1374.370079
31
0
0
LINE
8
1
10
2976.220472
20
-1267.952756
30
0
11
2976.220472
21
-1374.370079
31
0
0
LINE
8
1
10
2971.496063
20
-1374.370079
30
0
11
2976.220472
21
-1374.370079
31
0
0
LINE
8
1
10
2906.929134
20
-1267.952756
30
0
11
2911.653543
21
-1267.952756
31
0
0
LINE
8
1
10
2906.929134
20
-1267.952756
30
0
11
2906.929134
21
-1412.125984
31
0
0
LINE
8
1
10
2911.653543
20
-1267.952756
30
0
11
2911.653543
21
-1412.125984
31
0
0
LINE
8
1
10
2906.929134
20
-1412.125984
30
0
11
2911.653543
21
-1412.125984
31
0
0
LINE
8
1
10
3009.291339
20
-1112.440945
30
0
11
3014.015748
21
-1112.440945
31
0
0
LINE
8
1
10
3009.291339
20
-1112.440945
30
0
11
3009.291339
21
-1330.472441
31
0
0
LINE
8
1
10
3014.015748
20
-1112.440945
30
0
11
3014.015748
21
-1330.472441
31
0
0
LINE
8
1
10
3009.291339
20
-1330.472441
30
0
11
3014.015748
21
-1330.472441
31
0
0
LINE
8
1
10
2962.047244
20
-1267.952756
30
0
11
2966.771654
21
-1267.952756
31
0
0
LINE
8
1
10
2962.047244
20
-1267.952756
30
0
11
2962.047244
21
-1382.086614
31
0
0
LINE
8
1
10
2966.771654
20
-1267.952756
30
0
11
2966.771654
21
-1382.086614
31
0
0
LINE
8
1
10
2962.047244
20
-1382.086614
30
0
11
2966.771654
21
-1382.086614
31
0
0
LINE
8
1
10
2877.007874
20
-1022.637795
30
0
11
2881.732283
21
-1022.637795
31
0
0
LINE
8
1
10
2877.007874
20
-1022.637795
30
0
11
2877.007874
21
-1420.275591
31
0
0
LINE
8
1
10
2881.732283
20
-1022.637795
30
0
11
2881.732283
21
-1420.275591
31
0
0
LINE
8
1
10
2877.007874
20
-1420.275591
30
0
11
2881.732283
21
-1420.275591
31
0
0
LINE
8
1
10
3007.716535
20
-1110.039370
30
0
11
3012.440945
21
-1110.039370
31
0
0
LINE
8
1
10
3007.716535
20
-1110.039370
30
0
11
3007.716535
21
-1332.874016
31
0
0
LINE
8
1
10
3012.440945
20
-1110.039370
30
0
11
3012.440945
21
-1332.874016
31
0
0
LINE
8
1
10
3007.716535
20
-1332.874016
30
0
11
3012.440945
21
-1332.874016
31
0
0
LINE
8
1
10
2966.771654
20
-1267.952756
30
0
11
2971.496063
21
-1267.952756
31
0
0
LINE
8
1
10
2966.771654
20
-1267.952756
30
0
11
2966.771654
21
-1378.346457
31
0
0
LINE
8
1
10
2971.496063
20
-1267.952756
30
0
11
2971.496063
21
-1378.346457
31
0
0
LINE
8
1
10
2966.771654
20
-1378.346457
30
0
11
2971.496063
21
-1378.346457
31
0
0
LINE
8
1
10
3025.039370
20
-1142.559055
30
0
11
3029.763780
21
-1142.559055
31
0
0
LINE
8
1
10
3025.039370
20
-1142.559055
30
0
11
3025.039370
21
-1300.354331
31
0
0
LINE
8
1
10
3029.763780
20
-1142.559055
30
0
11
3029.763780
21
-1300.354331
31
0
0
LINE
8
1
10
3025.039370
20
-1300.354331
30
0
11
3029.763780
21
-1300.354331
31
0
0
LINE
8
1
10
2958.897638
20
-1058.464567
30
0
11
2963.622047
21
-1058.464567
31
0
0
LINE
8
1
10
2958.897638
20
-1058.464567
30
0
11
2958.897638
21
-1174.960630
31
0
0
LINE
8
1
10
2963.622047
20
-1058.464567
30
0
11
2963.622047
21
-1174.960630
31
0
0
LINE
8
1
10
2958.897638
20
-1174.960630
30
0
11
2963.622047
21
-1174.960630
31
0
0
LINE
8
1
10
2927.401575
20
-1039.409449
30
0
11
2932.125984
21
-1039.409449
31
0
0
LINE
8
1
10
2927.401575
20
-1039.409449
30
0
11
2927.401575
21
-1174.960630
31
0
0
LINE
8
1
10
2932.125984
20
-1039.409449
30
0
11
2932.125984
21
-1174.960630
31
0
0
LINE
8
1
10
2927.401575
20
-1174.960630
30
0
11
2932.125984
21
-1174.960630
31
0
0
LINE
8
1
10
2916.377953
20
-1034.448819
30
0
11
2921.102362
21
-1034.448819
31
0
0
LINE
8
1
10
2916.377953
20
-1034.448819
30
0
11
2916.377953
21
-1174.960630
31
0
0
LINE
8
1
10
2921.102362
20
-1034.448819
30
0
11
2921.102362
21
-1174.960630
31
0
0
LINE
8
1
10
2916.377953
20
-1174.960630
30
0
11
2921.102362
21
-1174.960630
31
0
0
LINE
8
1
10
2984.094488
20
-1267.952756
30
0
11
2988.818898
21
-1267.952756
31
0
0
LINE
8
1
10
2984.094488
20
-1267.952756
30
0
11
2984.094488
21
-1362.401575
31
0
0
LINE
8
1
10
2988.818898
20
-1267.952756
30
0
11
2988.818898
21
-1362.401575
31
0
0
LINE
8
1
10
2984.094488
20
-1362.401575
30
0
11
2988.818898
21
-1362.401575
31
0
0
LINE
8
1
10
2910.078740
20
-1031.929134
30
0
11
2914.803150
21
-1031.929134
31
0
0
LINE
8
1
10
2910.078740
20
-1031.929134
30
0
11
2910.078740
21
-1174.960630
31
0
0
LINE
8
1
10
2914.803150
20
-1031.929134
30
0
11
2914.803150
21
-1174.960630
31
0
0
LINE
8
1
10
2910.078740
20
-1174.960630
30
0
11
2914.803150
21
-1174.960630
31
0
0
LINE
8
1
10
2996.692913
20
-1094.842520
30
0
11
3001.417323
21
-1094.842520
31
0
0
LINE
8
1
10
2996.692913
20
-1094.842520
30
0
11
2996.692913
21
-1348.070866
31
0
0
LINE
8
1
10
3001.417323
20
-1094.842520
30
0
11
3001.417323
21
-1348.070866
31
0
0
LINE
8
1
10
2996.692913
20
-1348.070866
30
0
11
3001.417323
21
-1348.070866
31
0
0
LINE
8
1
10
3020.314961
20
-1132.125984
30
0
11
3025.039370
21
-1132.125984
31
0
0
LINE
8
1
10
3020.314961
20
-1132.125984
30
0
11
3020.314961
21
-1310.787402
31
0
0
LINE
8
1
10
3025.039370
20
-1132.125984
30
0
11
3025.039370
21
-1310.787402
31
0
0
LINE
8
1
10
3020.314961
20
-1310.787402
30
0
11
3025.039370
21
-1310.787402
31
0
0
LINE
8
1
10
2913.228346
20
-1033.149606
30
0
11
2917.952756
21
-1033.149606
31
0
0
LINE
8
1
10
2913.228346
20
-1033.149606
30
0
11
2913.228346
21
-1174.960630
31
0
0
LINE
8
1
10
2917.952756
20
-1033.149606
30
0
11
2917.952756
21
-1174.960630
31
0
0
LINE
8
1
10
2913.228346
20
-1174.960630
30
0
11
2917.952756
21
-1174.960630
31
0
0
LINE
8
1
10
2947.874016
20
-1267.952756
30
0
11
2952.598425
21
-1267.952756
31
0
0
LINE
8
1
10
2947.874016
20
-1267.952756
30
0
11
2947.874016
21
-1392.047244
31
0
0
LINE
8
1
10
2952.598425
20
-1267.952756
30
0
11
2952.598425
21
-1392.047244
31
0
0
LINE
8
1
10
2947.874016
20
-1392.047244
30
0
11
2952.598425
21
-1392.047244
31
0
0
LINE
8
1
10
2977.795276
20
-1074.251969
30
0
11
2982.519685
21
-1074.251969
31
0
0
LINE
8
1
10
2977.795276
20
-1074.251969
30
0
11
2977.795276
21
-1174.960630
31
0
0
LINE
8
1
10
2982.519685
20
-1074.251969
30
0
11
2982.519685
21
-1174.960630
31
0
0
LINE
8
1
10
2977.795276
20
-1174.960630
30
0
11
2982.519685
21
-1174.960630
31
0
0
LINE
8
1
10
2875.433071
20
-1022.362205
30
0
11
2880.157480
21
-1022.362205
31
0
0
LINE
8
1
10
2875.433071
20
-1022.362205
30
0
11
2875.433071
21
-1420.551181
31
0
0
LINE
8
1
10
2880.157480
20
-1022.362205
30
0
11
2880.157480
21
-1420.551181
31
0
0
LINE
8
1
10
2875.433071
20
-1420.551181
30
0
11
2880.157480
21
-1420.551181
31
0
0
LINE
8
1
10
2938.425197
20
-1045.196850
30
0
11
2943.149606
21
-1045.196850
31
0
0
LINE
8
1
10
2938.425197
20
-1045.196850
30
0
11
2938.425197
21
-1174.960630
31
0
0
LINE
8
1
10
2943.149606
20
-1045.196850
30
0
11
2943.149606
21
-1174.960630
31
0
0
LINE
8
1
10
2938.425197
20
-1174.960630
30
0
11
2943.149606
21
-1174.960630
31
0
0
LINE
8
1
10
2999.842520
20
-1098.858268
30
0
11
3004.566929
21
-1098.858268
31
0
0
LINE
8
1
10
2999.842520
20
-1098.858268
30
0
11
2999.842520
21
-1344.055118
31
0
0
LINE
8
1
10
3004.566929
20
-1098.858268
30
0
11
3004.566929
21
-1344.055118
31
0
0
LINE
8
1
10
2999.842520
20
-1344.055118
30
0
11
3004.566929
21
-1344.055118
31
0
0
LINE
8
1
10
3004.566929
20
-1105.354331
30
0
11
3009.291339
21
-1105.354331
31
0
0
LINE
8
1
10
3004.566929
20
-1105.354331
30
0
11
3004.566929
21
-1337.559055
31
0
0
LINE
8
1
10
3009.291339
20
-1105.354331
30
0
11
3009.291339
21
-1337.559055
31
0
0
LINE
8
1
10
3004.566929
20
-1337.559055
30
0
11
3009.291339
21
-1337.559055
31
0
0
LINE
8
1
10
2963.622047
20
-1267.952756
30
0
11
2968.346457
21
-1267.952756
31
0
0
LINE
8
1
10
2963.622047
20
-1267.952756
30
0
11
2963.622047
21
-1380.866142
31
0
0
LINE
8
1
10
2968.346457
20
-1267.952756
30
0
11
2968.346457
21
-1380.866142
31
0
0
LINE
8
1
10
2963.622047
20
-1380.866142
30
0
11
2968.346457
21
-1380.866142
31
0
0
LINE
8
1
10
2940.000000
20
-1046.062992
30
0
11
2944.724409
21
-1046.062992
31
0
0
LINE
8
1
10
2940.000000
20
-1046.062992
30
0
11
2940.000000
21
-1174.960630
31
0
0
LINE
8
1
10
2944.724409
20
-1046.062992
30
0
11
2944.724409
21
-1174.960630
31
0
0
LINE
8
1
10
2940.000000
20
-1174.960630
30
0
11
2944.724409
21
-1174.960630
31
0
0
LINE
8
1
10
2850.196850
20
-1019.370079
30
0
11
2854.921260
21
-1019.370079
31
0
0
LINE
8
1
10
2850.196850
20
-1019.370079
30
0
11
2850.196850
21
-1423.543307
31
0
0
LINE
8
1
10
2854.921260
20
-1019.370079
30
0
11
2854.921260
21
-1423.543307
31
0
0
LINE
8
1
10
2850.196850
20
-1423.543307
30
0
11
2854.921260
21
-1423.543307
31
0
0
LINE
8
1
10
2954.173228
20
-1267.952756
30
0
11
2958.897638
21
-1267.952756
31
0
0
LINE
8
1
10
2954.173228
20
-1267.952756
30
0
11
2954.173228
21
-1387.834646
31
0
0
LINE
8
1
10
2958.897638
20
-1267.952756
30
0
11
2958.897638
21
-1387.834646
31
0
0
LINE
8
1
10
2954.173228
20
-1387.834646
30
0
11
2958.897638
21
-1387.834646
31
0
0
LINE
8
1
10
2881.732283
20
-1023.622047
30
0
11
2886.456693
21
-1023.622047
31
0
0
LINE
8
1
10
2881.732283
20
-1023.622047
30
0
11
2881.732283
21
-1419.291339
31
0
0
LINE
8
1
10
2886.456693
20
-1023.622047
30
0
11
2886.456693
21
-1419.291339
31
0
0
LINE
8
1
10
2881.732283
20
-1419.291339
30
0
11
2886.456693
21
-1419.291339
31
0
0
LINE
8
1
10
2991.968504
20
-1089.133858
30
0
11
2996.692913
21
-1089.133858
31
0
0
LINE
8
1
10
2991.968504
20
-1089.133858
30
0
11
2991.968504
21
-1353.779528
31
0
0
LINE
8
1
10
2996.692913
20
-1089.133858
30
0
11
2996.692913
21
-1353.779528
31
0
0
LINE
8
1
10
2991.968504
20
-1353.779528
30
0
11
2996.692913
21
-1353.779528
31
0
0
LINE
8
1
10
3021.889764
20
-1135.433071
30
0
11
3026.614173
21
-1135.433071
31
0
0
LINE
8
1
10
3021.889764
20
-1135.433071
30
0
11
3021.889764
21
-1307.480315
31
0
0
LINE
8
1
10
3026.614173
20
-1135.433071
30
0
11
3026.614173
21
-1307.480315
31
0
0
LINE
8
1
10
3021.889764
20
-1307.480315
30
0
11
3026.614173
21
-1307.480315
31
0
0
LINE
8
1
10
2995.118110
20
-1092.874016
30
0
11
2999.842520
21
-1092.874016
31
0
0
LINE
8
1
10
2995.118110
20
-1092.874016
30
0
11
2995.118110
21
-1350.039370
31
0
0
LINE
8
1
10
2999.842520
20
-1092.874016
30
0
11
2999.842520
21
-1350.039370
31
0
0
LINE
8
1
10
2995.118110
20
-1350.039370
30
0
11
2999.842520
21
-1350.039370
31
0
0
LINE
8
1
10
2966.771654
20
-1064.566929
30
0
11
2971.496063
21
-1064.566929
31
0
0
LINE
8
1
10
2966.771654
20
-1064.566929
30
0
11
2966.771654
21
-1174.960630
31
0
0
LINE
8
1
10
2971.496063
20
-1064.566929
30
0
11
2971.496063
21
-1174.960630
31
0
0
LINE
8
1
10
2966.771654
20
-1174.960630
30
0
11
2971.496063
21
-1174.960630
31
0
0
LINE
8
1
10
2927.401575
20
-1267.952756
30
0
11
2932.125984
21
-1267.952756
31
0
0
LINE
8
1
10
2927.401575
20
-1267.952756
30
0
11
2927.401575
21
-1403.503937
31
0
0
LINE
8
1
10
2932.125984
20
-1267.952756
30
0
11
2932.125984
21
-1403.503937
31
0
0
LINE
8
1
10
2927.401575
20
-1403.503937
30
0
11
2932.125984
21
-1403.503937
31
0
0
LINE
8
1
10
2897.480315
20
-1027.677165
30
0
11
2902.204724
21
-1027.677165
31
0
0
LINE
8
1
10
2897.480315
20
-1027.677165
30
0
11
2897.480315
21
-1174.960630
31
0
0
LINE
8
1
10
2902.204724
20
-1027.677165
30
0
11
2902.204724
21
-1174.960630
31
0
0
LINE
8
1
10
2897.480315
20
-1174.960630
30
0
11
2902.204724
21
-1174.960630
31
0
0
LINE
8
1
10
2895.905512
20
-1267.952756
30
0
11
2900.629921
21
-1267.952756
31
0
0
LINE
8
1
10
2895.905512
20
-1267.952756
30
0
11
2895.905512
21
-1415.708661
31
0
0
LINE
8
1
10
2900.629921
20
-1267.952756
30
0
11
2900.629921
21
-1415.708661
31
0
0
LINE
8
1
10
2895.905512
20
-1415.708661
30
0
11
2900.629921
21
-1415.708661
31
0
0
LINE
8
1
10
2916.377953
20
-1267.952756
30
0
11
2921.102362
21
-1267.952756
31
0
0
LINE
8
1
10
2916.377953
20
-1267.952756
30
0
11
2916.377953
21
-1408.464567
31
0
0
LINE
8
1
10
2921.102362
20
-1267.952756
30
0
11
2921.102362
21
-1408.464567
31
0
0
LINE
8
1
10
2916.377953
20
-1408.464567
30
0
11
2921.102362
21
-1408.464567
31
0
0
LINE
8
1
10
3015.590551
20
-1123.070866
30
0
11
3020.314961
21
-1123.070866
31
0
0
LINE
8
1
10
3015.590551
20
-1123.070866
30
0
11
3015.590551
21
-1319.842520
31
0
0
LINE
8
1
10
3020.314961
20
-1123.070866
30
0
11
3020.314961
21
-1319.842520
31
0
0
LINE
8
1
10
3015.590551
20
-1319.842520
30
0
11
3020.314961
21
-1319.842520
31
0
0
LINE
8
1
10
2976.220472
20
-1267.952756
30
0
11
2980.944882
21
-1267.952756
31
0
0
LINE
8
1
10
2976.220472
20
-1267.952756
30
0
11
2976.220472
21
-1370.118110
31
0
0
LINE
8
1
10
2980.944882
20
-1267.952756
30
0
11
2980.944882
21
-1370.118110
31
0
0
LINE
8
1
10
2976.220472
20
-1370.118110
30
0
11
2980.944882
21
-1370.118110
31
0
0
LINE
8
1
10
2988.818898
20
-1085.551181
30
0
11
2993.543307
21
-1085.551181
31
0
0
LINE
8
1
10
2988.818898
20
-1085.551181
30
0
11
2988.818898
21
-1357.362205
31
0
0
LINE
8
1
10
2993.543307
20
-1085.551181
30
0
11
2993.543307
21
-1357.362205
31
0
0
LINE
8
1
10
2988.818898
20
-1357.362205
30
0
11
2993.543307
21
-1357.362205
31
0
0
LINE
8
1
10
2886.456693
20
-1024.685039
30
0
11
2891.181102
21
-1024.685039
31
0
0
LINE
8
1
10
2886.456693
20
-1024.685039
30
0
11
2886.456693
21
-1418.228346
31
0
0
LINE
8
1
10
2891.181102
20
-1024.685039
30
0
11
2891.181102
21
-1418.228346
31
0
0
LINE
8
1
10
2886.456693
20
-1418.228346
30
0
11
2891.181102
21
-1418.228346
31
0
0
LINE
8
1
10
2922.677165
20
-1267.952756
30
0
11
2927.401575
21
-1267.952756
31
0
0
LINE
8
1
10
2922.677165
20
-1267.952756
30
0
11
2922.677165
21
-1405.748031
31
0
0
LINE
8
1
10
2927.401575
20
-1267.952756
30
0
11
2927.401575
21
-1405.748031
31
0
0
LINE
8
1
10
2922.677165
20
-1405.748031
30
0
11
2927.401575
21
-1405.748031
31
0
0
LINE
8
1
10
2974.645669
20
-1267.952756
30
0
11
2979.370079
21
-1267.952756
31
0
0
LINE
8
1
10
2974.645669
20
-1267.952756
30
0
11
2974.645669
21
-1371.574803
31
0
0
LINE
8
1
10
2979.370079
20
-1267.952756
30
0
11
2979.370079
21
-1371.574803
31
0
0
LINE
8
1
10
2974.645669
20
-1371.574803
30
0
11
2979.370079
21
-1371.574803
31
0
0
LINE
8
1
10
2840.748031
20
-1019.094488
30
0
11
2845.472441
21
-1019.094488
31
0
0
LINE
8
1
10
2840.748031
20
-1019.094488
30
0
11
2840.748031
21
-1423.818898
31
0
0
LINE
8
1
10
2845.472441
20
-1019.094488
30
0
11
2845.472441
21
-1423.818898
31
0
0
LINE
8
1
10
2840.748031
20
-1423.818898
30
0
11
2845.472441
21
-1423.818898
31
0
0
LINE
8
1
10
2957.322835
20
-1057.283465
30
0
11
2962.047244
21
-1057.283465
31
0
0
LINE
8
1
10
2957.322835
20
-1057.283465
30
0
11
2957.322835
21
-1174.960630
31
0
0
LINE
8
1
10
2962.047244
20
-1057.283465
30
0
11
2962.047244
21
-1174.960630
31
0
0
LINE
8
1
10
2957.322835
20
-1174.960630
30
0
11
2962.047244
21
-1174.960630
31
0
0
LINE
8
1
10
2900.629921
20
-1028.661417
30
0
11
2905.354331
21
-1028.661417
31
0
0
LINE
8
1
10
2900.629921
20
-1028.661417
30
0
11
2900.629921
21
-1174.960630
31
0
0
LINE
8
1
10
2905.354331
20
-1028.661417
30
0
11
2905.354331
21
-1174.960630
31
0
0
LINE
8
1
10
2900.629921
20
-1174.960630
30
0
11
2905.354331
21
-1174.960630
31
0
0
LINE
8
1
10
2914.803150
20
-1033.779528
30
0
11
2919.527559
21
-1033.779528
31
0
0
LINE
8
1
10
2914.803150
20
-1033.779528
30
0
11
2914.803150
21
-1174.960630
31
0
0
LINE
8
1
10
2919.527559
20
-1033.779528
30
0
11
2919.527559
21
-1174.960630
31
0
0
LINE
8
1
10
2914.803150
20
-1174.960630
30
0
11
2919.527559
21
-1174.960630
31
0
0
LINE
8
1
10
2842.322835
20
-1019.094488
30
0
11
2847.047244
21
-1019.094488
31
0
0
LINE
8
1
10
2842.322835
20
-1019.094488
30
0
11
2842.322835
21
-1423.818898
31
0
0
LINE
8
1
10
2847.047244
20
-1019.094488
30
0
11
2847.047244
21
-1423.818898
31
0
0
LINE
8
1
10
2842.322835
20
-1423.818898
30
0
11
2847.047244
21
-1423.818898
31
0
0
LINE
8
1
10
2954.173228
20
-1055.078740
30
0
11
2958.897638
21
-1055.078740
31
0
0
LINE
8
1
10
2954.173228
20
-1055.078740
30
0
11
2954.173228
21
-1174.960630
31
0
0
LINE
8
1
10
2958.897638
20
-1055.078740
30
0
11
2958.897638
21
-1174.960630
31
0
0
LINE
8
1
10
2954.173228
20
-1174.960630
30
0
11
2958.897638
21
-1174.960630
31
0
0
LINE
8
1
10
2944.724409
20
-1048.897638
30
0
11
2949.448819
21
-1048.897638
31
0
0
LINE
8
1
10
2944.724409
20
-1048.897638
30
0
11
2944.724409
21
-1174.960630
31
0
0
LINE
8
1
10
2949.448819
20
-1048.897638
30
0
11
2949.448819
21
-1174.960630
31
0
0
LINE
8
1
10
2944.724409
20
-1174.960630
30
0
11
2949.448819
21
-1174.960630
31
0
0
LINE
8
1
10
2891.181102
20
-1267.952756
30
0
11
2895.905512
21
-1267.952756
31
0
0
LINE
8
1
10
2891.181102
20
-1267.952756
30
0
11
2891.181102
21
-1417.007874
31
0
0
LINE
8
1
10
2895.905512
20
-1267.952756
30
0
11
2895.905512
21
-1417.007874
31
0
0
LINE
8
1
10
2891.181102
20
-1417.007874
30
0
11
2895.905512
21
-1417.007874
31
0
0
LINE
8
1
10
2911.653543
20
-1032.559055
30
0
11
2916.377953
21
-1032.559055
31
0
0
LINE
8
1
10
2911.653543
20
-1032.559055
30
0
11
2911.653543
21
-1174.960630
31
0
0
LINE
8
1
10
2916.377953
20
-1032.559055
30
0
11
2916.377953
21
-1174.960630
31
0
0
LINE
8
1
10
2911.653543
20
-1174.960630
30
0
11
2916.377953
21
-1174.960630
31
0
0
LINE
8
1
10
2869.133858
20
-1021.299213
30
0
11
2873.858268
21
-1021.299213
31
0
0
LINE
8
1
10
2869.133858
20
-1021.299213
30
0
11
2869.133858
21
-1421.614173
31
0
0
LINE
8
1
10
2873.858268
20
-1021.299213
30
0
11
2873.858268
21
-1421.614173
31
0
0
LINE
8
1
10
2869.133858
20
-1421.614173
30
0
11
2873.858268
21
-1421.614173
31
0
0
LINE
8
1
10
2919.527559
20
-1035.748031
30
0
11
2924.251969
21
-1035.748031
31
0
0
LINE
8
1
10
2919.527559
20
-1035.748031
30
0
11
2919.527559
21
-1174.960630
31
0
0
LINE
8
1
10
2924.251969
20
-1035.748031
30
0
11
2924.251969
21
-1174.960630
31
0
0
LINE
8
1
10
2919.527559
20
-1174.960630
30
0
11
2924.251969
21
-1174.960630
31
0
0
LINE
8
1
10
2899.055118
20
-1267.952756
30
0
11
2903.779528
21
-1267.952756
31
0
0
LINE
8
1
10
2899.055118
20
-1267.952756
30
0
11
2899.055118
21
-1414.763780
31
0
0
LINE
8
1
10
2903.779528
20
-1267.952756
30
0
11
2903.779528
21
-1414.763780
31
0
0
LINE
8
1
10
2899.055118
20
-1414.763780
30
0
11
2903.779528
21
-1414.763780
31
0
0
LINE
8
1
10
2839.173228
20
-1019.094488
30
0
11
2843.897638
21
-1019.094488
31
0
0
LINE
8
1
10
2839.173228
20
-1019.094488
30
0
11
2839.173228
21
-1423.818898
31
0
0
LINE
8
1
10
2843.897638
20
-1019.094488
30
0
11
2843.897638
21
-1423.818898
31
0
0
LINE
8
1
10
2839.173228
20
-1423.818898
30
0
11
2843.897638
21
-1423.818898
31
0
0
LINE
8
1
10
3039.212598
20
-1195.511811
30
0
11
3043.937008
21
-1195.511811
31
0
0
LINE
8
1
10
3039.212598
20
-1195.511811
30
0
11
3039.212598
21
-1247.401575
31
0
0
LINE
8
1
10
3043.937008
20
-1195.511811
30
0
11
3043.937008
21
-1247.401575
31
0
0
LINE
8
1
10
3039.212598
20
-1247.401575
30
0
11
3043.937008
21
-1247.401575
31
0
0
LINE
8
1
10
2894.330709
20
-1267.952756
30
0
11
2899.055118
21
-1267.952756
31
0
0
LINE
8
1
10
2894.330709
20
-1267.952756
30
0
11
2894.330709
21
-1416.141732
31
0
0
LINE
8
1
10
2899.055118
20
-1267.952756
30
0
11
2899.055118
21
-1416.141732
31
0
0
LINE
8
1
10
2894.330709
20
-1416.141732
30
0
11
2899.055118
21
-1416.141732
31
0
0
LINE
8
1
10
2960.472441
20
-1267.952756
30
0
11
2965.196850
21
-1267.952756
31
0
0
LINE
8
1
10
2960.472441
20
-1267.952756
30
0
11
2960.472441
21
-1383.267717
31
0
0
LINE
8
1
10
2965.196850
20
-1267.952756
30
0
11
2965.196850
21
-1383.267717
31
0
0
LINE
8
1
10
2960.472441
20
-1383.267717
30
0
11
2965.196850
21
-1383.267717
31
0
0
LINE
8
1
10
2976.220472
20
-1072.795276
30
0
11
2980.944882
21
-1072.795276
31
0
0
LINE
8
1
10
2976.220472
20
-1072.795276
30
0
11
2976.220472
21
-1174.960630
31
0
0
LINE
8
1
10
2980.944882
20
-1072.795276
30
0
11
2980.944882
21
-1174.960630
31
0
0
LINE
8
1
10
2976.220472
20
-1174.960630
30
0
11
2980.944882
21
-1174.960630
31
0
0
LINE
8
1
10
2984.094488
20
-1080.511811
30
0
11
2988.818898
21
-1080.511811
31
0
0
LINE
8
1
10
2984.094488
20
-1080.511811
30
0
11
2984.094488
21
-1174.960630
31
0
0
LINE
8
1
10
2988.818898
20
-1080.511811
30
0
11
2988.818898
21
-1174.960630
31
0
0
LINE
8
1
10
2984.094488
20
-1174.960630
30
0
11
2988.818898
21
-1174.960630
31
0
0
LINE
8
1
10
2965.196850
20
-1267.952756
30
0
11
2969.921260
21
-1267.952756
31
0
0
LINE
8
1
10
2965.196850
20
-1267.952756
30
0
11
2965.196850
21
-1379.606299
31
0
0
LINE
8
1
10
2969.921260
20
-1267.952756
30
0
11
2969.921260
21
-1379.606299
31
0
0
LINE
8
1
10
2965.196850
20
-1379.606299
30
0
11
2969.921260
21
-1379.606299
31
0
0
LINE
8
1
10
2987.244094
20
-1083.818898
30
0
11
2991.968504
21
-1083.818898
31
0
0
LINE
8
1
10
2987.244094
20
-1083.818898
30
0
11
2987.244094
21
-1359.094488
31
0
0
LINE
8
1
10
2991.968504
20
-1083.818898
30
0
11
2991.968504
21
-1359.094488
31
0
0
LINE
8
1
10
2987.244094
20
-1359.094488
30
0
11
2991.968504
21
-1359.094488
31
0
0
LINE
8
1
10
2952.598425
20
-1053.976378
30
0
11
2957.322835
21
-1053.976378
31
0
0
LINE
8
1
10
2952.598425
20
-1053.976378
30
0
11
2952.598425
21
-1174.960630
31
0
0
LINE
8
1
10
2957.322835
20
-1053.976378
30
0
11
2957.322835
21
-1174.960630
31
0
0
LINE
8
1
10
2952.598425
20
-1174.960630
30
0
11
2957.322835
21
-1174.960630
31
0
0
LINE
8
1
10
2914.803150
20
-1267.952756
30
0
11
2919.527559
21
-1267.952756
31
0
0
LINE
8
1
10
2914.803150
20
-1267.952756
30
0
11
2914.803150
21
-1409.133858
31
0
0
LINE
8
1
10
2919.527559
20
-1267.952756
30
0
11
2919.527559
21
-1409.133858
31
0
0
LINE
8
1
10
2914.803150
20
-1409.133858
30
0
11
2919.527559
21
-1409.133858
31
0
0
LINE
8
1
10
2925.826772
20
-1038.622047
30
0
11
2930.551181
21
-1038.622047
31
0
0
LINE
8
1
10
2925.826772
20
-1038.622047
30
0
11
2925.826772
21
-1174.960630
31
0
0
LINE
8
1
10
2930.551181
20
-1038.622047
30
0
11
2930.551181
21
-1174.960630
31
0
0
LINE
8
1
10
2925.826772
20
-1174.960630
30
0
11
2930.551181
21
-1174.960630
31
0
0
LINE
8
1
10
2905.354331
20
-1030.236220
30
0
11
2910.078740
21
-1030.236220
31
0
0
LINE
8
1
10
2905.354331
20
-1030.236220
30
0
11
2905.354331
21
-1174.960630
31
0
0
LINE
8
1
10
2910.078740
20
-1030.236220
30
0
11
2910.078740
21
-1174.960630
31
0
0
LINE
8
1
10
2905.354331
20
-1174.960630
30
0
11
2910.078740
21
-1174.960630
31
0
0
LINE
8
1
10
2880.157480
20
-1023.267717
30
0
11
2884.881890
21
-1023.267717
31
0
0
LINE
8
1
10
2880.157480
20
-1023.267717
30
0
11
2880.157480
21
-1419.645669
31
0
0
LINE
8
1
10
2884.881890
20
-1023.267717
30
0
11
2884.881890
21
-1419.645669
31
0
0
LINE
8
1
10
2880.157480
20
-1419.645669
30
0
11
2884.881890
21
-1419.645669
31
0
0
LINE
8
1
10
2903.779528
20
-1267.952756
30
0
11
2908.503937
21
-1267.952756
31
0
0
LINE
8
1
10
2903.779528
20
-1267.952756
30
0
11
2903.779528
21
-1413.228346
31
0
0
LINE
8
1
10
2908.503937
20
-1267.952756
30
0
11
2908.503937
21
-1413.228346
31
0
0
LINE
8
1
10
2903.779528
20
-1413.228346
30
0
11
2908.503937
21
-1413.228346
31
0
0
LINE
8
1
10
2908.503937
20
-1267.952756
30
0
11
2913.228346
21
-1267.952756
31
0
0
LINE
8
1
10
2908.503937
20
-1267.952756
30
0
11
2908.503937
21
-1411.535433
31
0
0
LINE
8
1
10
2913.228346
20
-1267.952756
30
0
11
2913.228346
21
-1411.535433
31
0
0
LINE
8
1
10
2908.503937
20
-1411.535433
30
0
11
2913.228346
21
-1411.535433
31
0
0
LINE
8
1
10
2969.921260
20
-1267.952756
30
0
11
2974.645669
21
-1267.952756
31
0
0
LINE
8
1
10
2969.921260
20
-1267.952756
30
0
11
2969.921260
21
-1375.708661
31
0
0
LINE
8
1
10
2974.645669
20
-1267.952756
30
0
11
2974.645669
21
-1375.708661
31
0
0
LINE
8
1
10
2969.921260
20
-1375.708661
30
0
11
2974.645669
21
-1375.708661
31
0
0
LINE
8
1
10
2968.346457
20
-1065.866142
30
0
11
2973.070866
21
-1065.866142
31
0
0
LINE
8
1
10
2968.346457
20
-1065.866142
30
0
11
2968.346457
21
-1174.960630
31
0
0
LINE
8
1
10
2973.070866
20
-1065.866142
30
0
11
2973.070866
21
-1174.960630
31
0
0
LINE
8
1
10
2968.346457
20
-1174.960630
30
0
11
2973.070866
21
-1174.960630
31
0
0
LINE
8
1
10
2962.047244
20
-1060.826772
30
0
11
2966.771654
21
-1060.826772
31
0
0
LINE
8
1
10
2962.047244
20
-1060.826772
30
0
11
2962.047244
21
-1174.960630
31
0
0
LINE
8
1
10
2966.771654
20
-1060.826772
30
0
11
2966.771654
21
-1174.960630
31
0
0
LINE
8
1
10
2962.047244
20
-1174.960630
30
0
11
2966.771654
21
-1174.960630
31
0
0
LINE
8
1
10
2949.448819
20
-1267.952756
30
0
11
2954.173228
21
-1267.952756
31
0
0
LINE
8
1
10
2949.448819
20
-1267.952756
30
0
11
2949.448819
21
-1391.023622
31
0
0
LINE
8
1
10
2954.173228
20
-1267.952756
30
0
11
2954.173228
21
-1391.023622
31
0
0
LINE
8
1
10
2949.448819
20
-1391.023622
30
0
11
2954.173228
21
-1391.023622
31
0
0
LINE
8
1
10
2921.102362
20
-1267.952756
30
0
11
2925.826772
21
-1267.952756
31
0
0
LINE
8
1
10
2921.102362
20
-1267.952756
30
0
11
2921.102362
21
-1406.456693
31
0
0
LINE
8
1
10
2925.826772
20
-1267.952756
30
0
11
2925.826772
21
-1406.456693
31
0
0
LINE
8
1
10
2921.102362
20
-1406.456693
30
0
11
2925.826772
21
-1406.456693
31
0
0
LINE
8
1
10
2990.393701
20
-1087.322835
30
0
11
2995.118110
21
-1087.322835
31
0
0
LINE
8
1
10
2990.393701
20
-1087.322835
30
0
11
2990.393701
21
-1355.590551
31
0
0
LINE
8
1
10
2995.118110
20
-1087.322835
30
0
11
2995.118110
21
-1355.590551
31
0
0
LINE
8
1
10
2990.393701
20
-1355.590551
30
0
11
2995.118110
21
-1355.590551
31
0
0
LINE
8
1
10
3014.015748
20
-1120.275591
30
0
11
3018.740157
21
-1120.275591
31
0
0
LINE
8
1
10
3014.015748
20
-1120.275591
30
0
11
3014.015748
21
-1322.637795
31
0
0
LINE
8
1
10
3018.740157
20
-1120.275591
30
0
11
3018.740157
21
-1322.637795
31
0
0
LINE
8
1
10
3014.015748
20
-1322.637795
30
0
11
3018.740157
21
-1322.637795
31
0
0
LINE
8
1
10
2925.826772
20
-1267.952756
30
0
11
2930.551181
21
-1267.952756
31
0
0
LINE
8
1
10
2925.826772
20
-1267.952756
30
0
11
2925.826772
21
-1404.291339
31
0
0
LINE
8
1
10
2930.551181
20
-1267.952756
30
0
11
2930.551181
21
-1404.291339
31
0
0
LINE
8
1
10
2925.826772
20
-1404.291339
30
0
11
2930.551181
21
-1404.291339
31
0
0
LINE
8
1
10
2865.944882
20
-1020.866142
30
0
11
2870.669291
21
-1020.866142
31
0
0
LINE
8
1
10
2865.944882
20
-1020.866142
30
0
11
2865.944882
21
-1422.047244
31
0
0
LINE
8
1
10
2870.669291
20
-1020.866142
30
0
11
2870.669291
21
-1422.047244
31
0
0
LINE
8
1
10
2865.944882
20
-1422.047244
30
0
11
2870.669291
21
-1422.047244
31
0
0
LINE
8
1
10
2906.929134
20
-1030.787402
30
0
11
2911.653543
21
-1030.787402
31
0
0
LINE
8
1
10
2906.929134
20
-1030.787402
30
0
11
2906.929134
21
-1174.960630
31
0
0
LINE
8
1
10
2911.653543
20
-1030.787402
30
0
11
2911.653543
21
-1174.960630
31
0
0
LINE
8
1
10
2906.929134
20
-1174.960630
30
0
11
2911.653543
21
-1174.960630
31
0
0
LINE
8
1
10
2949.448819
20
-1051.889764
30
0
11
2954.173228
21
-1051.889764
31
0
0
LINE
8
1
10
2949.448819
20
-1051.889764
30
0
11
2949.448819
21
-1174.960630
31
0
0
LINE
8
1
10
2954.173228
20
-1051.889764
30
0
11
2954.173228
21
-1174.960630
31
0
0
LINE
8
1
10
2949.448819
20
-1174.960630
30
0
11
2954.173228
21
-1174.960630
31
0
0
LINE
8
1
10
3036.062992
20
-1177.283465
30
0
11
3040.787402
21
-1177.283465
31
0
0
LINE
8
1
10
3036.062992
20
-1177.283465
30
0
11
3036.062992
21
-1265.629921
31
0
0
LINE
8
1
10
3040.787402
20
-1177.283465
30
0
11
3040.787402
21
-1265.629921
31
0
0
LINE
8
1
10
3036.062992
20
-1265.629921
30
0
11
3040.787402
21
-1265.629921
31
0
0
LINE
8
1
10
2933.700787
20
-1042.598425
30
0
11
2938.425197
21
-1042.598425
31
0
0
LINE
8
1
10
2933.700787
20
-1042.598425
30
0
11
2933.700787
21
-1174.960630
31
0
0
LINE
8
1
10
2938.425197
20
-1042.598425
30
0
11
2938.425197
21
-1174.960630
31
0
0
LINE
8
1
10
2933.700787
20
-1174.960630
30
0
11
2938.425197
21
-1174.960630
31
0
0
LINE
8
1
10
2993.543307
20
-1090.984252
30
0
11
2998.267717
21
-1090.984252
31
0
0
LINE
8
1
10
2993.543307
20
-1090.984252
30
0
11
2993.543307
21
-1351.929134
31
0
0
LINE
8
1
10
2998.267717
20
-1090.984252
30
0
11
2998.267717
21
-1351.929134
31
0
0
LINE
8
1
10
2993.543307
20
-1351.929134
30
0
11
2998.267717
21
-1351.929134
31
0
0
LINE
8
1
10
2637.598425
20
-1017.519685
30
0
11
3045.472441
21
-1017.519685
31
0
0
LINE
8
1
10
2637.598425
20
-1017.519685
30
0
11
2637.598425
21
-1425.393701
31
0
0
LINE
8
1
10
3045.472441
20
-1017.519685
30
0
11
3045.472441
21
-1425.393701
31
0
0
LINE
8
1
10
2637.598425
20
-1425.393701
30
0
11
3045.472441
21
-1425.393701
31
0
0
LINE
8
1
10
3279.724409
20
-1890.157480
30
0
11
3284.448819
21
-1890.157480
31
0
0
LINE
8
1
10
3279.724409
20
-1890.157480
30
0
11
3279.724409
21
-1955.511811
31
0
0
LINE
8
1
10
3284.448819
20
-1890.157480
30
0
11
3284.448819
21
-1955.511811
31
0
0
LINE
8
1
10
3279.724409
20
-1955.511811
30
0
11
3284.448819
21
-1955.511811
31
0
0
LINE
8
1
10
3356.929134
20
-2032.677165
30
0
11
3361.653543
21
-2032.677165
31
0
0
LINE
8
1
10
3356.929134
20
-2032.677165
30
0
11
3356.929134
21
-2061.535433
31
0
0
LINE
8
1
10
3361.653543
20
-2032.677165
30
0
11
3361.653543
21
-2061.535433
31
0
0
LINE
8
1
10
3356.929134
20
-2061.535433
30
0
11
3361.653543
21
-2061.535433
31
0
0
LINE
8
1
10
3331.732283
20
-2032.677165
30
0
11
3336.456693
21
-2032.677165
31
0
0
LINE
8
1
10
3331.732283
20
-2032.677165
30
0
11
3331.732283
21
-2083.070866
31
0
0
LINE
8
1
10
3336.456693
20
-2032.677165
30
0
11
3336.456693
21
-2083.070866
31
0
0
LINE
8
1
10
3331.732283
20
-2083.070866
30
0
11
3336.456693
21
-2083.070866
31
0
0
LINE
8
1
10
3304.921260
20
-1893.661417
30
0
11
3309.645669
21
-1893.661417
31
0
0
LINE
8
1
10
3304.921260
20
-1893.661417
30
0
11
3304.921260
21
-1955.511811
31
0
0
LINE
8
1
10
3309.645669
20
-1893.661417
30
0
11
3309.645669
21
-1955.511811
31
0
0
LINE
8
1
10
3304.921260
20
-1955.511811
30
0
11
3309.645669
21
-1955.511811
31
0
0
LINE
8
1
10
3352.204724
20
-2032.677165
30
0
11
3356.929134
21
-2032.677165
31
0
0
LINE
8
1
10
3352.204724
20
-2032.677165
30
0
11
3352.204724
21
-2066.732283
31
0
0
LINE
8
1
10
3356.929134
20
-2032.677165
30
0
11
3356.929134
21
-2066.732283
31
0
0
LINE
8
1
10
3352.204724
20
-2066.732283
30
0
11
3356.929134
21
-2066.732283
31
0
0
LINE
8
1
10
3315.984252
20
-2032.677165
30
0
11
3320.708661
21
-2032.677165
31
0
0
LINE
8
1
10
3315.984252
20
-2032.677165
30
0
11
3315.984252
21
-2090.866142
31
0
0
LINE
8
1
10
3320.708661
20
-2032.677165
30
0
11
3320.708661
21
-2090.866142
31
0
0
LINE
8
1
10
3315.984252
20
-2090.866142
30
0
11
3320.708661
21
-2090.866142
31
0
0
LINE
8
1
10
3323.858268
20
-2032.677165
30
0
11
3328.582677
21
-2032.677165
31
0
0
LINE
8
1
10
3323.858268
20
-2032.677165
30
0
11
3323.858268
21
-2087.401575
31
0
0
LINE
8
1
10
3328.582677
20
-2032.677165
30
0
11
3328.582677
21
-2087.401575
31
0
0
LINE
8
1
10
3323.858268
20
-2087.401575
30
0
11
3328.582677
21
-2087.401575
31
0
0
LINE
8
1
10
3281.299213
20
-1890.196850
30
0
11
3286.023622
21
-1890.196850
31
0
0
LINE
8
1
10
3281.299213
20
-1890.196850
30
0
11
3281.299213
21
-1955.511811
31
0
0
LINE
8
1
10
3286.023622
20
-1890.196850
30
0
11
3286.023622
21
-1955.511811
31
0
0
LINE
8
1
10
3281.299213
20
-1955.511811
30
0
11
3286.023622
21
-1955.511811
31
0
0
LINE
8
1
10
3380.551181
20
-1980.551181
30
0
11
3385.275591
21
-1980.551181
31
0
0
LINE
8
1
10
3380.551181
20
-1980.551181
30
0
11
3380.551181
21
-2007.637795
31
0
0
LINE
8
1
10
3385.275591
20
-1980.551181
30
0
11
3385.275591
21
-2007.637795
31
0
0
LINE
8
1
10
3380.551181
20
-2007.637795
30
0
11
3385.275591
21
-2007.637795
31
0
0
LINE
8
1
10
3360.078740
20
-1930.551181
30
0
11
3364.803150
21
-1930.551181
31
0
0
LINE
8
1
10
3360.078740
20
-1930.551181
30
0
11
3360.078740
21
-2057.637795
31
0
0
LINE
8
1
10
3364.803150
20
-1930.551181
30
0
11
3364.803150
21
-2057.637795
31
0
0
LINE
8
1
10
3360.078740
20
-2057.637795
30
0
11
3364.803150
21
-2057.637795
31
0
0
LINE
8
1
10
3177.567913
20
-1923.818898
30
0
11
3182.292323
21
-1923.818898
31
0
0
LINE
8
1
10
3177.567913
20
-1923.818898
30
0
11
3177.567913
21
-1948.228346
31
0
0
LINE
8
1
10
3182.292323
20
-1923.818898
30
0
11
3182.292323
21
-1948.228346
31
0
0
LINE
8
1
10
3177.567913
20
-1948.228346
30
0
11
3182.292323
21
-1948.228346
31
0
0
LINE
8
1
10
3322.283465
20
-2032.677165
30
0
11
3327.007874
21
-2032.677165
31
0
0
LINE
8
1
10
3322.283465
20
-2032.677165
30
0
11
3322.283465
21
-2088.149606
31
0
0
LINE
8
1
10
3327.007874
20
-2032.677165
30
0
11
3327.007874
21
-2088.149606
31
0
0
LINE
8
1
10
3322.283465
20
-2088.149606
30
0
11
3327.007874
21
-2088.149606
31
0
0
LINE
8
1
10
3301.771654
20
-1892.874016
30
0
11
3306.496063
21
-1892.874016
31
0
0
LINE
8
1
10
3301.771654
20
-1892.874016
30
0
11
3301.771654
21
-1955.511811
31
0
0
LINE
8
1
10
3306.496063
20
-1892.874016
30
0
11
3306.496063
21
-1955.511811
31
0
0
LINE
8
1
10
3301.771654
20
-1955.511811
30
0
11
3306.496063
21
-1955.511811
31
0
0
LINE
8
1
10
3366.377953
20
-1939.803150
30
0
11
3371.102362
21
-1939.803150
31
0
0
LINE
8
1
10
3366.377953
20
-1939.803150
30
0
11
3366.377953
21
-2048.385827
31
0
0
LINE
8
1
10
3371.102362
20
-1939.803150
30
0
11
3371.102362
21
-2048.385827
31
0
0
LINE
8
1
10
3366.377953
20
-2048.385827
30
0
11
3371.102362
21
-2048.385827
31
0
0
LINE
8
1
10
3347.480315
20
-2032.677165
30
0
11
3352.204724
21
-2032.677165
31
0
0
LINE
8
1
10
3347.480315
20
-2032.677165
30
0
11
3347.480315
21
-2071.299213
31
0
0
LINE
8
1
10
3352.204724
20
-2032.677165
30
0
11
3352.204724
21
-2071.299213
31
0
0
LINE
8
1
10
3347.480315
20
-2071.299213
30
0
11
3352.204724
21
-2071.299213
31
0
0
LINE
8
1
10
3306.535433
20
-2032.677165
30
0
11
3311.259843
21
-2032.677165
31
0
0
LINE
8
1
10
3306.535433
20
-2032.677165
30
0
11
3306.535433
21
-2094.094488
31
0
0
LINE
8
1
10
3311.259843
20
-2032.677165
30
0
11
3311.259843
21
-2094.094488
31
0
0
LINE
8
1
10
3306.535433
20
-2094.094488
30
0
11
3311.259843
21
-2094.094488
31
0
0
LINE
8
1
10
3330.157480
20
-1904.173228
30
0
11
3334.881890
21
-1904.173228
31
0
0
LINE
8
1
10
3330.157480
20
-1904.173228
30
0
11
3330.157480
21
-1955.511811
31
0
0
LINE
8
1
10
3334.881890
20
-1904.173228
30
0
11
3334.881890
21
-1955.511811
31
0
0
LINE
8
1
10
3330.157480
20
-1955.511811
30
0
11
3334.881890
21
-1955.511811
31
0
0
LINE
8
1
10
3352.204724
20
-1921.456693
30
0
11
3356.929134
21
-1921.456693
31
0
0
LINE
8
1
10
3352.204724
20
-1921.456693
30
0
11
3352.204724
21
-1955.511811
31
0
0
LINE
8
1
10
3356.929134
20
-1921.456693
30
0
11
3356.929134
21
-1955.511811
31
0
0
LINE
8
1
10
3352.204724
20
-1955.511811
30
0
11
3356.929134
21
-1955.511811
31
0
0
LINE
8
1
10
3297.047244
20
-2032.677165
30
0
11
3301.771654
21
-2032.677165
31
0
0
LINE
8
1
10
3297.047244
20
-2032.677165
30
0
11
3297.047244
21
-2096.299213
31
0
0
LINE
8
1
10
3301.771654
20
-2032.677165
30
0
11
3301.771654
21
-2096.299213
31
0
0
LINE
8
1
10
3297.047244
20
-2096.299213
30
0
11
3301.771654
21
-2096.299213
31
0
0
LINE
8
1
10
3304.921260
20
-2032.677165
30
0
11
3309.645669
21
-2032.677165
31
0
0
LINE
8
1
10
3304.921260
20
-2032.677165
30
0
11
3304.921260
21
-2094.527559
31
0
0
LINE
8
1
10
3309.645669
20
-2032.677165
30
0
11
3309.645669
21
-2094.527559
31
0
0
LINE
8
1
10
3304.921260
20
-2094.527559
30
0
11
3309.645669
21
-2094.527559
31
0
0
LINE
8
1
10
3350.629921
20
-1919.842520
30
0
11
3355.354331
21
-1919.842520
31
0
0
LINE
8
1
10
3350.629921
20
-1919.842520
30
0
11
3350.629921
21
-1955.511811
31
0
0
LINE
8
1
10
3355.354331
20
-1919.842520
30
0
11
3355.354331
21
-1955.511811
31
0
0
LINE
8
1
10
3350.629921
20
-1955.511811
30
0
11
3355.354331
21
-1955.511811
31
0
0
LINE
8
1
10
3319.133858
20
-2032.677165
30
0
11
3323.858268
21
-2032.677165
31
0
0
LINE
8
1
10
3319.133858
20
-2032.677165
30
0
11
3319.133858
21
-2089.566929
31
0
0
LINE
8
1
10
3323.858268
20
-2032.677165
30
0
11
3323.858268
21
-2089.566929
31
0
0
LINE
8
1
10
3319.133858
20
-2089.566929
30
0
11
3323.858268
21
-2089.566929
31
0
0
LINE
8
1
10
3355.354331
20
-1924.842520
30
0
11
3360.078740
21
-1924.842520
31
0
0
LINE
8
1
10
3355.354331
20
-1924.842520
30
0
11
3355.354331
21
-1955.511811
31
0
0
LINE
8
1
10
3360.078740
20
-1924.842520
30
0
11
3360.078740
21
-1955.511811
31
0
0
LINE
8
1
10
3355.354331
20
-1955.511811
30
0
11
3360.078740
21
-1955.511811
31
0
0
LINE
8
1
10
3374.251969
20
-1955.708661
30
0
11
3378.976378
21
-1955.708661
31
0
0
LINE
8
1
10
3374.251969
20
-1955.708661
30
0
11
3374.251969
21
-2032.480315
31
0
0
LINE
8
1
10
3378.976378
20
-1955.708661
30
0
11
3378.976378
21
-2032.480315
31
0
0
LINE
8
1
10
3374.251969
20
-2032.480315
30
0
11
3378.976378
21
-2032.480315
31
0
0
LINE
8
1
10
3336.456693
20
-1908.188976
30
0
11
3341.181102
21
-1908.188976
31
0
0
LINE
8
1
10
3336.456693
20
-1908.188976
30
0
11
3336.456693
21
-1955.511811
31
0
0
LINE
8
1
10
3341.181102
20
-1908.188976
30
0
11
3341.181102
21
-1955.511811
31
0
0
LINE
8
1
10
3336.456693
20
-1955.511811
30
0
11
3341.181102
21
-1955.511811
31
0
0
LINE
8
1
10
3331.732283
20
-1905.118110
30
0
11
3336.456693
21
-1905.118110
31
0
0
LINE
8
1
10
3331.732283
20
-1905.118110
30
0
11
3331.732283
21
-1955.511811
31
0
0
LINE
8
1
10
3336.456693
20
-1905.118110
30
0
11
3336.456693
21
-1955.511811
31
0
0
LINE
8
1
10
3331.732283
20
-1955.511811
30
0
11
3336.456693
21
-1955.511811
31
0
0
LINE
8
1
10
3339.606299
20
-1910.433071
30
0
11
3344.330709
21
-1910.433071
31
0
0
LINE
8
1
10
3339.606299
20
-1910.433071
30
0
11
3339.606299
21
-1955.511811
31
0
0
LINE
8
1
10
3344.330709
20
-1910.433071
30
0
11
3344.330709
21
-1955.511811
31
0
0
LINE
8
1
10
3339.606299
20
-1955.511811
30
0
11
3344.330709
21
-1955.511811
31
0
0
LINE
8
1
10
3303.346457
20
-1893.267717
30
0
11
3308.070866
21
-1893.267717
31
0
0
LINE
8
1
10
3303.346457
20
-1893.267717
30
0
11
3303.346457
21
-1955.511811
31
0
0
LINE
8
1
10
3308.070866
20
-1893.267717
30
0
11
3308.070866
21
-1955.511811
31
0
0
LINE
8
1
10
3303.346457
20
-1955.511811
30
0
11
3308.070866
21
-1955.511811
31
0
0
LINE
8
1
10
3298.622047
20
-2032.677165
30
0
11
3303.346457
21
-2032.677165
31
0
0
LINE
8
1
10
3298.622047
20
-2032.677165
30
0
11
3298.622047
21
-2095.984252
31
0
0
LINE
8
1
10
3303.346457
20
-2032.677165
30
0
11
3303.346457
21
-2095.984252
31
0
0
LINE
8
1
10
3298.622047
20
-2095.984252
30
0
11
3303.346457
21
-2095.984252
31
0
0
LINE
8
1
10
3293.897638
20
-2032.677165
30
0
11
3298.622047
21
-2032.677165
31
0
0
LINE
8
1
10
3293.897638
20
-2032.677165
30
0
11
3293.897638
21
-2096.850394
31
0
0
LINE
8
1
10
3298.622047
20
-2032.677165
30
0
11
3298.622047
21
-2096.850394
31
0
0
LINE
8
1
10
3293.897638
20
-2096.850394
30
0
11
3298.622047
21
-2096.850394
31
0
0
LINE
8
1
10
3367.952756
20
-1942.480315
30
0
11
3372.677165
21
-1942.480315
31
0
0
LINE
8
1
10
3367.952756
20
-1942.480315
30
0
11
3367.952756
21
-2045.708661
31
0
0
LINE
8
1
10
3372.677165
20
-1942.480315
30
0
11
3372.677165
21
-2045.708661
31
0
0
LINE
8
1
10
3367.952756
20
-2045.708661
30
0
11
3372.677165
21
-2045.708661
31
0
0
LINE
8
1
10
3356.929134
20
-1926.653543
30
0
11
3361.653543
21
-1926.653543
31
0
0
LINE
8
1
10
3356.929134
20
-1926.653543
30
0
11
3356.929134
21
-1955.511811
31
0
0
LINE
8
1
10
3361.653543
20
-1926.653543
30
0
11
3361.653543
21
-1955.511811
31
0
0
LINE
8
1
10
3356.929134
20
-1955.511811
30
0
11
3361.653543
21
-1955.511811
31
0
0
LINE
8
1
10
3327.007874
20
-2032.677165
30
0
11
3331.732283
21
-2032.677165
31
0
0
LINE
8
1
10
3327.007874
20
-2032.677165
30
0
11
3327.007874
21
-2085.748031
31
0
0
LINE
8
1
10
3331.732283
20
-2032.677165
30
0
11
3331.732283
21
-2085.748031
31
0
0
LINE
8
1
10
3327.007874
20
-2085.748031
30
0
11
3331.732283
21
-2085.748031
31
0
0
LINE
8
1
10
3336.456693
20
-2032.677165
30
0
11
3341.181102
21
-2032.677165
31
0
0
LINE
8
1
10
3336.456693
20
-2032.677165
30
0
11
3336.456693
21
-2080.000000
31
0
0
LINE
8
1
10
3341.181102
20
-2032.677165
30
0
11
3341.181102
21
-2080.000000
31
0
0
LINE
8
1
10
3336.456693
20
-2080.000000
30
0
11
3341.181102
21
-2080.000000
31
0
0
LINE
8
1
10
3372.677165
20
-1951.929134
30
0
11
3377.401575
21
-1951.929134
31
0
0
LINE
8
1
10
3372.677165
20
-1951.929134
30
0
11
3372.677165
21
-2036.259843
31
0
0
LINE
8
1
10
3377.401575
20
-1951.929134
30
0
11
3377.401575
21
-2036.259843
31
0
0
LINE
8
1
10
3372.677165
20
-2036.259843
30
0
11
3377.401575
21
-2036.259843
31
0
0
LINE
8
1
10
3320.708661
20
-1899.291339
30
0
11
3325.433071
21
-1899.291339
31
0
0
LINE
8
1
10
3320.708661
20
-1899.291339
30
0
11
3320.708661
21
-1955.511811
31
0
0
LINE
8
1
10
3325.433071
20
-1899.291339
30
0
11
3325.433071
21
-1955.511811
31
0
0
LINE
8
1
10
3320.708661
20
-1955.511811
30
0
11
3325.433071
21
-1955.511811
31
0
0
LINE
8
1
10
3350.629921
20
-2032.677165
30
0
11
3355.354331
21
-2032.677165
31
0
0
LINE
8
1
10
3350.629921
20
-2032.677165
30
0
11
3350.629921
21
-2068.346457
31
0
0
LINE
8
1
10
3355.354331
20
-2032.677165
30
0
11
3355.354331
21
-2068.346457
31
0
0
LINE
8
1
10
3350.629921
20
-2068.346457
30
0
11
3355.354331
21
-2068.346457
31
0
0
LINE
8
1
10
3315.984252
20
-1897.322835
30
0
11
3320.708661
21
-1897.322835
31
0
0
LINE
8
1
10
3315.984252
20
-1897.322835
30
0
11
3315.984252
21
-1955.511811
31
0
0
LINE
8
1
10
3320.708661
20
-1897.322835
30
0
11
3320.708661
21
-1955.511811
31
0
0
LINE
8
1
10
3315.984252
20
-1955.511811
30
0
11
3320.708661
21
-1955.511811
31
0
0
LINE
8
1
10
3287.598425
20
-2032.677165
30
0
11
3292.322835
21
-2032.677165
31
0
0
LINE
8
1
10
3287.598425
20
-2032.677165
30
0
11
3287.598425
21
-2097.598425
31
0
0
LINE
8
1
10
3292.322835
20
-2032.677165
30
0
11
3292.322835
21
-2097.598425
31
0
0
LINE
8
1
10
3287.598425
20
-2097.598425
30
0
11
3292.322835
21
-2097.598425
31
0
0
LINE
8
1
10
3325.433071
20
-1901.574803
30
0
11
3330.157480
21
-1901.574803
31
0
0
LINE
8
1
10
3325.433071
20
-1901.574803
30
0
11
3325.433071
21
-1955.511811
31
0
0
LINE
8
1
10
3330.157480
20
-1901.574803
30
0
11
3330.157480
21
-1955.511811
31
0
0
LINE
8
1
10
3325.433071
20
-1955.511811
30
0
11
3330.157480
21
-1955.511811
31
0
0
LINE
8
1
10
3289.173228
20
-2032.677165
30
0
11
3293.897638
21
-2032.677165
31
0
0
LINE
8
1
10
3289.173228
20
-2032.677165
30
0
11
3289.173228
21
-2097.440945
31
0
0
LINE
8
1
10
3293.897638
20
-2032.677165
30
0
11
3293.897638
21
-2097.440945
31
0
0
LINE
8
1
10
3289.173228
20
-2097.440945
30
0
11
3293.897638
21
-2097.440945
31
0
0
LINE
8
1
10
3325.433071
20
-2032.677165
30
0
11
3330.157480
21
-2032.677165
31
0
0
LINE
8
1
10
3325.433071
20
-2032.677165
30
0
11
3325.433071
21
-2086.614173
31
0
0
LINE
8
1
10
3330.157480
20
-2032.677165
30
0
11
3330.157480
21
-2086.614173
31
0
0
LINE
8
1
10
3325.433071
20
-2086.614173
30
0
11
3330.157480
21
-2086.614173
31
0
0
LINE
8
1
10
3295.472441
20
-2032.677165
30
0
11
3300.196850
21
-2032.677165
31
0
0
LINE
8
1
10
3295.472441
20
-2032.677165
30
0
11
3295.472441
21
-2096.574803
31
0
0
LINE
8
1
10
3300.196850
20
-2032.677165
30
0
11
3300.196850
21
-2096.574803
31
0
0
LINE
8
1
10
3295.472441
20
-2096.574803
30
0
11
3300.196850
21
-2096.574803
31
0
0
LINE
8
1
10
3333.307087
20
-2032.677165
30
0
11
3338.031496
21
-2032.677165
31
0
0
LINE
8
1
10
3333.307087
20
-2032.677165
30
0
11
3333.307087
21
-2082.086614
31
0
0
LINE
8
1
10
3338.031496
20
-2032.677165
30
0
11
3338.031496
21
-2082.086614
31
0
0
LINE
8
1
10
3333.307087
20
-2082.086614
30
0
11
3338.031496
21
-2082.086614
31
0
0
LINE
8
1
10
3328.582677
20
-1903.267717
30
0
11
3333.307087
21
-1903.267717
31
0
0
LINE
8
1
10
3328.582677
20
-1903.267717
30
0
11
3328.582677
21
-1955.511811
31
0
0
LINE
8
1
10
3333.307087
20
-1903.267717
30
0
11
3333.307087
21
-1955.511811
31
0
0
LINE
8
1
10
3328.582677
20
-1955.511811
30
0
11
3333.307087
21
-1955.511811
31
0
0
LINE
8
1
10
3312.834646
20
-2032.677165
30
0
11
3317.559055
21
-2032.677165
31
0
0
LINE
8
1
10
3312.834646
20
-2032.677165
30
0
11
3312.834646
21
-2092.047244
31
0
0
LINE
8
1
10
3317.559055
20
-2032.677165
30
0
11
3317.559055
21
-2092.047244
31
0
0
LINE
8
1
10
3312.834646
20
-2092.047244
30
0
11
3317.559055
21
-2092.047244
31
0
0
LINE
8
1
10
3317.559055
20
-2032.677165
30
0
11
3322.283465
21
-2032.677165
31
0
0
LINE
8
1
10
3317.559055
20
-2032.677165
30
0
11
3317.559055
21
-2090.236220
31
0
0
LINE
8
1
10
3322.283465
20
-2032.677165
30
0
11
3322.283465
21
-2090.236220
31
0
0
LINE
8
1
10
3317.559055
20
-2090.236220
30
0
11
3322.283465
21
-2090.236220
31
0
0
LINE
8
1
10
3292.322835
20
-2032.677165
30
0
11
3297.047244
21
-2032.677165
31
0
0
LINE
8
1
10
3292.322835
20
-2032.677165
30
0
11
3292.322835
21
-2097.086614
31
0
0
LINE
8
1
10
3297.047244
20
-2032.677165
30
0
11
3297.047244
21
-2097.086614
31
0
0
LINE
8
1
10
3292.322835
20
-2097.086614
30
0
11
3297.047244
21
-2097.086614
31
0
0
LINE
8
1
10
3327.007874
20
-1902.440945
30
0
11
3331.732283
21
-1902.440945
31
0
0
LINE
8
1
10
3327.007874
20
-1902.440945
30
0
11
3327.007874
21
-1955.511811
31
0
0
LINE
8
1
10
3331.732283
20
-1902.440945
30
0
11
3331.732283
21
-1955.511811
31
0
0
LINE
8
1
10
3327.007874
20
-1955.511811
30
0
11
3331.732283
21
-1955.511811
31
0
0
LINE
8
1
10
3377.401575
20
-1965.078740
30
0
11
3382.125984
21
-1965.078740
31
0
0
LINE
8
1
10
3377.401575
20
-1965.078740
30
0
11
3377.401575
21
-2023.110236
31
0
0
LINE
8
1
10
3382.125984
20
-1965.078740
30
0
11
3382.125984
21
-2023.110236
31
0
0
LINE
8
1
10
3377.401575
20
-2023.110236
30
0
11
3382.125984
21
-2023.110236
31
0
0
LINE
8
1
10
3375.826772
20
-1960.039370
30
0
11
3380.551181
21
-1960.039370
31
0
0
LINE
8
1
10
3375.826772
20
-1960.039370
30
0
11
3375.826772
21
-2028.149606
31
0
0
LINE
8
1
10
3380.551181
20
-1960.039370
30
0
11
3380.551181
21
-2028.149606
31
0
0
LINE
8
1
10
3375.826772
20
-2028.149606
30
0
11
3380.551181
21
-2028.149606
31
0
0
LINE
8
1
10
3289.173228
20
-1890.748031
30
0
11
3293.897638
21
-1890.748031
31
0
0
LINE
8
1
10
3289.173228
20
-1890.748031
30
0
11
3289.173228
21
-1955.511811
31
0
0
LINE
8
1
10
3293.897638
20
-1890.748031
30
0
11
3293.897638
21
-1955.511811
31
0
0
LINE
8
1
10
3289.173228
20
-1955.511811
30
0
11
3293.897638
21
-1955.511811
31
0
0
LINE
8
1
10
3295.472441
20
-1891.614173
30
0
11
3300.196850
21
-1891.614173
31
0
0
LINE
8
1
10
3295.472441
20
-1891.614173
30
0
11
3295.472441
21
-1955.511811
31
0
0
LINE
8
1
10
3300.196850
20
-1891.614173
30
0
11
3300.196850
21
-1955.511811
31
0
0
LINE
8
1
10
3295.472441
20
-1955.511811
30
0
11
3300.196850
21
-1955.511811
31
0
0
LINE
8
1
10
3309.685039
20
-2032.677165
30
0
11
3314.409449
21
-2032.677165
31
0
0
LINE
8
1
10
3309.685039
20
-2032.677165
30
0
11
3309.685039
21
-2093.110236
31
0
0
LINE
8
1
10
3314.409449
20
-2032.677165
30
0
11
3314.409449
21
-2093.110236
31
0
0
LINE
8
1
10
3309.685039
20
-2093.110236
30
0
11
3314.409449
21
-2093.110236
31
0
0
LINE
8
1
10
3311.259843
20
-1895.590551
30
0
11
3315.984252
21
-1895.590551
31
0
0
LINE
8
1
10
3311.259843
20
-1895.590551
30
0
11
3311.259843
21
-1955.511811
31
0
0
LINE
8
1
10
3315.984252
20
-1895.590551
30
0
11
3315.984252
21
-1955.511811
31
0
0
LINE
8
1
10
3311.259843
20
-1955.511811
30
0
11
3315.984252
21
-1955.511811
31
0
0
LINE
8
1
10
3293.897638
20
-1891.338583
30
0
11
3298.622047
21
-1891.338583
31
0
0
LINE
8
1
10
3293.897638
20
-1891.338583
30
0
11
3293.897638
21
-1955.511811
31
0
0
LINE
8
1
10
3298.622047
20
-1891.338583
30
0
11
3298.622047
21
-1955.511811
31
0
0
LINE
8
1
10
3293.897638
20
-1955.511811
30
0
11
3298.622047
21
-1955.511811
31
0
0
LINE
8
1
10
3344.330709
20
-2032.677165
30
0
11
3349.055118
21
-2032.677165
31
0
0
LINE
8
1
10
3344.330709
20
-2032.677165
30
0
11
3344.330709
21
-2074.055118
31
0
0
LINE
8
1
10
3349.055118
20
-2032.677165
30
0
11
3349.055118
21
-2074.055118
31
0
0
LINE
8
1
10
3344.330709
20
-2074.055118
30
0
11
3349.055118
21
-2074.055118
31
0
0
LINE
8
1
10
3281.299213
20
-2032.677165
30
0
11
3286.023622
21
-2032.677165
31
0
0
LINE
8
1
10
3281.299213
20
-2032.677165
30
0
11
3281.299213
21
-2097.992126
31
0
0
LINE
8
1
10
3286.023622
20
-2032.677165
30
0
11
3286.023622
21
-2097.992126
31
0
0
LINE
8
1
10
3281.299213
20
-2097.992126
30
0
11
3286.023622
21
-2097.992126
31
0
0
LINE
8
1
10
3314.409449
20
-2032.677165
30
0
11
3319.133858
21
-2032.677165
31
0
0
LINE
8
1
10
3314.409449
20
-2032.677165
30
0
11
3314.409449
21
-2091.496063
31
0
0
LINE
8
1
10
3319.133858
20
-2032.677165
30
0
11
3319.133858
21
-2091.496063
31
0
0
LINE
8
1
10
3314.409449
20
-2091.496063
30
0
11
3319.133858
21
-2091.496063
31
0
0
LINE
8
1
10
3319.133858
20
-1898.622047
30
0
11
3323.858268
21
-1898.622047
31
0
0
LINE
8
1
10
3319.133858
20
-1898.622047
30
0
11
3319.133858
21
-1955.511811
31
0
0
LINE
8
1
10
3323.858268
20
-1898.622047
30
0
11
3323.858268
21
-1955.511811
31
0
0
LINE
8
1
10
3319.133858
20
-1955.511811
30
0
11
3323.858268
21
-1955.511811
31
0
0
LINE
8
1
10
3334.881890
20
-2032.677165
30
0
11
3339.606299
21
-2032.677165
31
0
0
LINE
8
1
10
3334.881890
20
-2032.677165
30
0
11
3334.881890
21
-2081.062992
31
0
0
LINE
8
1
10
3339.606299
20
-2032.677165
30
0
11
3339.606299
21
-2081.062992
31
0
0
LINE
8
1
10
3334.881890
20
-2081.062992
30
0
11
3339.606299
21
-2081.062992
31
0
0
LINE
8
1
10
3334.881890
20
-1907.125984
30
0
11
3339.606299
21
-1907.125984
31
0
0
LINE
8
1
10
3334.881890
20
-1907.125984
30
0
11
3334.881890
21
-1955.511811
31
0
0
LINE
8
1
10
3339.606299
20
-1907.125984
30
0
11
3339.606299
21
-1955.511811
31
0
0
LINE
8
1
10
3334.881890
20
-1955.511811
30
0
11
3339.606299
21
-1955.511811
31
0
0
LINE
8
1
10
3279.724409
20
-2032.677165
30
0
11
3284.448819
21
-2032.677165
31
0
0
LINE
8
1
10
3279.724409
20
-2032.677165
30
0
11
3279.724409
21
-2098.031496
31
0
0
LINE
8
1
10
3284.448819
20
-2032.677165
30
0
11
3284.448819
21
-2098.031496
31
0
0
LINE
8
1
10
3279.724409
20
-2098.031496
30
0
11
3284.448819
21
-2098.031496
31
0
0
LINE
8
1
10
3345.905512
20
-2032.677165
30
0
11
3350.629921
21
-2032.677165
31
0
0
LINE
8
1
10
3345.905512
20
-2032.677165
30
0
11
3345.905512
21
-2072.716535
31
0
0
LINE
8
1
10
3350.629921
20
-2032.677165
30
0
11
3350.629921
21
-2072.716535
31
0
0
LINE
8
1
10
3345.905512
20
-2072.716535
30
0
11
3350.629921
21
-2072.716535
31
0
0
LINE
8
1
10
3363.228346
20
-1934.921260
30
0
11
3367.952756
21
-1934.921260
31
0
0
LINE
8
1
10
3363.228346
20
-1934.921260
30
0
11
3363.228346
21
-2053.267717
31
0
0
LINE
8
1
10
3367.952756
20
-1934.921260
30
0
11
3367.952756
21
-2053.267717
31
0
0
LINE
8
1
10
3363.228346
20
-2053.267717
30
0
11
3367.952756
21
-2053.267717
31
0
0
LINE
8
1
10
3309.685039
20
-1895.078740
30
0
11
3314.409449
21
-1895.078740
31
0
0
LINE
8
1
10
3309.685039
20
-1895.078740
30
0
11
3309.685039
21
-1955.511811
31
0
0
LINE
8
1
10
3314.409449
20
-1895.078740
30
0
11
3314.409449
21
-1955.511811
31
0
0
LINE
8
1
10
3309.685039
20
-1955.511811
30
0
11
3314.409449
21
-1955.511811
31
0
0
LINE
8
1
10
3328.582677
20
-2032.677165
30
0
11
3333.307087
21
-2032.677165
31
0
0
LINE
8
1
10
3328.582677
20
-2032.677165
30
0
11
3328.582677
21
-2084.921260
31
0
0
LINE
8
1
10
3333.307087
20
-2032.677165
30
0
11
3333.307087
21
-2084.921260
31
0
0
LINE
8
1
10
3328.582677
20
-2084.921260
30
0
11
3333.307087
21
-2084.921260
31
0
0
LINE
8
1
10
3338.031496
20
-2032.677165
30
0
11
3342.755906
21
-2032.677165
31
0
0
LINE
8
1
10
3338.031496
20
-2032.677165
30
0
11
3338.031496
21
-2078.937008
31
0
0
LINE
8
1
10
3342.755906
20
-2032.677165
30
0
11
3342.755906
21
-2078.937008
31
0
0
LINE
8
1
10
3338.031496
20
-2078.937008
30
0
11
3342.755906
21
-2078.937008
31
0
0
LINE
8
1
10
3323.858268
20
-1900.787402
30
0
11
3328.582677
21
-1900.787402
31
0
0
LINE
8
1
10
3323.858268
20
-1900.787402
30
0
11
3323.858268
21
-1955.511811
31
0
0
LINE
8
1
10
3328.582677
20
-1900.787402
30
0
11
3328.582677
21
-1955.511811
31
0
0
LINE
8
1
10
3323.858268
20
-1955.511811
30
0
11
3328.582677
21
-1955.511811
31
0
0
LINE
8
1
10
3282.874016
20
-1890.236220
30
0
11
3287.598425
21
-1890.236220
31
0
0
LINE
8
1
10
3282.874016
20
-1890.236220
30
0
11
3282.874016
21
-1955.511811
31
0
0
LINE
8
1
10
3287.598425
20
-1890.236220
30
0
11
3287.598425
21
-1955.511811
31
0
0
LINE
8
1
10
3282.874016
20
-1955.511811
30
0
11
3287.598425
21
-1955.511811
31
0
0
LINE
8
1
10
3284.448819
20
-1890.314961
30
0
11
3289.173228
21
-1890.314961
31
0
0
LINE
8
1
10
3284.448819
20
-1890.314961
30
0
11
3284.448819
21
-1955.511811
31
0
0
LINE
8
1
10
3289.173228
20
-1890.314961
30
0
11
3289.173228
21
-1955.511811
31
0
0
LINE
8
1
10
3284.448819
20
-1955.511811
30
0
11
3289.173228
21
-1955.511811
31
0
0
LINE
8
1
10
3355.354331
20
-2032.677165
30
0
11
3360.078740
21
-2032.677165
31
0
0
LINE
8
1
10
3355.354331
20
-2032.677165
30
0
11
3355.354331
21
-2063.346457
31
0
0
LINE
8
1
10
3360.078740
20
-2032.677165
30
0
11
3360.078740
21
-2063.346457
31
0
0
LINE
8
1
10
3355.354331
20
-2063.346457
30
0
11
3360.078740
21
-2063.346457
31
0
0
LINE
8
1
10
3371.102362
20
-1948.503937
30
0
11
3375.826772
21
-1948.503937
31
0
0
LINE
8
1
10
3371.102362
20
-1948.503937
30
0
11
3371.102362
21
-2039.685039
31
0
0
LINE
8
1
10
3375.826772
20
-1948.503937
30
0
11
3375.826772
21
-2039.685039
31
0
0
LINE
8
1
10
3371.102362
20
-2039.685039
30
0
11
3375.826772
21
-2039.685039
31
0
0
LINE
8
1
10
3341.181102
20
-2032.677165
30
0
11
3345.905512
21
-2032.677165
31
0
0
LINE
8
1
10
3341.181102
20
-2032.677165
30
0
11
3341.181102
21
-2076.574803
31
0
0
LINE
8
1
10
3345.905512
20
-2032.677165
30
0
11
3345.905512
21
-2076.574803
31
0
0
LINE
8
1
10
3341.181102
20
-2076.574803
30
0
11
3345.905512
21
-2076.574803
31
0
0
LINE
8
1
10
3301.771654
20
-2032.677165
30
0
11
3306.496063
21
-2032.677165
31
0
0
LINE
8
1
10
3301.771654
20
-2032.677165
30
0
11
3301.771654
21
-2095.314961
31
0
0
LINE
8
1
10
3306.496063
20
-2032.677165
30
0
11
3306.496063
21
-2095.314961
31
0
0
LINE
8
1
10
3301.771654
20
-2095.314961
30
0
11
3306.496063
21
-2095.314961
31
0
0
LINE
8
1
10
3317.559055
20
-1897.952756
30
0
11
3322.283465
21
-1897.952756
31
0
0
LINE
8
1
10
3317.559055
20
-1897.952756
30
0
11
3317.559055
21
-1955.511811
31
0
0
LINE
8
1
10
3322.283465
20
-1897.952756
30
0
11
3322.283465
21
-1955.511811
31
0
0
LINE
8
1
10
3317.559055
20
-1955.511811
30
0
11
3322.283465
21
-1955.511811
31
0
0
LINE
8
1
10
3312.834646
20
-1896.141732
30
0
11
3317.559055
21
-1896.141732
31
0
0
LINE
8
1
10
3312.834646
20
-1896.141732
30
0
11
3312.834646
21
-1955.511811
31
0
0
LINE
8
1
10
3317.559055
20
-1896.141732
30
0
11
3317.559055
21
-1955.511811
31
0
0
LINE
8
1
10
3312.834646
20
-1955.511811
30
0
11
3317.559055
21
-1955.511811
31
0
0
LINE
8
1
10
3278.149606
20
-2032.677165
30
0
11
3282.874016
21
-2032.677165
31
0
0
LINE
8
1
10
3278.149606
20
-2032.677165
30
0
11
3278.149606
21
-2098.031496
31
0
0
LINE
8
1
10
3282.874016
20
-2032.677165
30
0
11
3282.874016
21
-2098.031496
31
0
0
LINE
8
1
10
3278.149606
20
-2098.031496
30
0
11
3282.874016
21
-2098.031496
31
0
0
LINE
8
1
10
3314.409449
20
-1896.692913
30
0
11
3319.133858
21
-1896.692913
31
0
0
LINE
8
1
10
3314.409449
20
-1896.692913
30
0
11
3314.409449
21
-1955.511811
31
0
0
LINE
8
1
10
3319.133858
20
-1896.692913
30
0
11
3319.133858
21
-1955.511811
31
0
0
LINE
8
1
10
3314.409449
20
-1955.511811
30
0
11
3319.133858
21
-1955.511811
31
0
0
LINE
8
1
10
3167.725394
20
-1933.661417
30
0
11
3192.134843
21
-1933.661417
31
0
0
LINE
8
1
10
3167.725394
20
-1933.661417
30
0
11
3167.725394
21
-1938.385827
31
0
0
LINE
8
1
10
3192.134843
20
-1933.661417
30
0
11
3192.134843
21
-1938.385827
31
0
0
LINE
8
1
10
3167.725394
20
-1938.385827
30
0
11
3192.134843
21
-1938.385827
31
0
0
LINE
8
1
10
3349.055118
20
-2032.677165
30
0
11
3353.779528
21
-2032.677165
31
0
0
LINE
8
1
10
3349.055118
20
-2032.677165
30
0
11
3349.055118
21
-2069.842520
31
0
0
LINE
8
1
10
3353.779528
20
-2032.677165
30
0
11
3353.779528
21
-2069.842520
31
0
0
LINE
8
1
10
3349.055118
20
-2069.842520
30
0
11
3353.779528
21
-2069.842520
31
0
0
LINE
8
1
10
3298.622047
20
-1892.204724
30
0
11
3303.346457
21
-1892.204724
31
0
0
LINE
8
1
10
3298.622047
20
-1892.204724
30
0
11
3298.622047
21
-1955.511811
31
0
0
LINE
8
1
10
3303.346457
20
-1892.204724
30
0
11
3303.346457
21
-1955.511811
31
0
0
LINE
8
1
10
3298.622047
20
-1955.511811
30
0
11
3303.346457
21
-1955.511811
31
0
0
LINE
8
1
10
3286.023622
20
-1890.433071
30
0
11
3290.748031
21
-1890.433071
31
0
0
LINE
8
1
10
3286.023622
20
-1890.433071
30
0
11
3286.023622
21
-1955.511811
31
0
0
LINE
8
1
10
3290.748031
20
-1890.433071
30
0
11
3290.748031
21
-1955.511811
31
0
0
LINE
8
1
10
3286.023622
20
-1955.511811
30
0
11
3290.748031
21
-1955.511811
31
0
0
LINE
8
1
10
3306.535433
20
-1894.094488
30
0
11
3311.259843
21
-1894.094488
31
0
0
LINE
8
1
10
3306.535433
20
-1894.094488
30
0
11
3306.535433
21
-1955.511811
31
0
0
LINE
8
1
10
3311.259843
20
-1894.094488
30
0
11
3311.259843
21
-1955.511811
31
0
0
LINE
8
1
10
3306.535433
20
-1955.511811
30
0
11
3311.259843
21
-1955.511811
31
0
0
LINE
8
1
10
3278.149606
20
-1890.157480
30
0
11
3282.874016
21
-1890.157480
31
0
0
LINE
8
1
10
3278.149606
20
-1890.157480
30
0
11
3278.149606
21
-1955.511811
31
0
0
LINE
8
1
10
3282.874016
20
-1890.157480
30
0
11
3282.874016
21
-1955.511811
31
0
0
LINE
8
1
10
3278.149606
20
-1955.511811
30
0
11
3282.874016
21
-1955.511811
31
0
0
LINE
8
1
10
3297.047244
20
-1891.889764
30
0
11
3301.771654
21
-1891.889764
31
0
0
LINE
8
1
10
3297.047244
20
-1891.889764
30
0
11
3297.047244
21
-1955.511811
31
0
0
LINE
8
1
10
3301.771654
20
-1891.889764
30
0
11
3301.771654
21
-1955.511811
31
0
0
LINE
8
1
10
3297.047244
20
-1955.511811
30
0
11
3301.771654
21
-1955.511811
31
0
0
LINE
8
1
10
3342.755906
20
-1912.834646
30
0
11
3347.480315
21
-1912.834646
31
0
0
LINE
8
1
10
3342.755906
20
-1912.834646
30
0
11
3342.755906
21
-1955.511811
31
0
0
LINE
8
1
10
3347.480315
20
-1912.834646
30
0
11
3347.480315
21
-1955.511811
31
0
0
LINE
8
1
10
3342.755906
20
-1955.511811
30
0
11
3347.480315
21
-1955.511811
31
0
0
LINE
8
1
10
3308.110236
20
-1894.566929
30
0
11
3312.834646
21
-1894.566929
31
0
0
LINE
8
1
10
3308.110236
20
-1894.566929
30
0
11
3308.110236
21
-1955.511811
31
0
0
LINE
8
1
10
3312.834646
20
-1894.566929
30
0
11
3312.834646
21
-1955.511811
31
0
0
LINE
8
1
10
3308.110236
20
-1955.511811
30
0
11
3312.834646
21
-1955.511811
31
0
0
LINE
8
1
10
3330.157480
20
-2032.677165
30
0
11
3334.881890
21
-2032.677165
31
0
0
LINE
8
1
10
3330.157480
20
-2032.677165
30
0
11
3330.157480
21
-2084.015748
31
0
0
LINE
8
1
10
3334.881890
20
-2032.677165
30
0
11
3334.881890
21
-2084.015748
31
0
0
LINE
8
1
10
3330.157480
20
-2084.015748
30
0
11
3334.881890
21
-2084.015748
31
0
0
LINE
8
1
10
3300.196850
20
-1892.519685
30
0
11
3304.921260
21
-1892.519685
31
0
0
LINE
8
1
10
3300.196850
20
-1892.519685
30
0
11
3300.196850
21
-1955.511811
31
0
0
LINE
8
1
10
3304.921260
20
-1892.519685
30
0
11
3304.921260
21
-1955.511811
31
0
0
LINE
8
1
10
3300.196850
20
-1955.511811
30
0
11
3304.921260
21
-1955.511811
31
0
0
LINE
8
1
10
3361.653543
20
-1932.677165
30
0
11
3366.377953
21
-1932.677165
31
0
0
LINE
8
1
10
3361.653543
20
-1932.677165
30
0
11
3361.653543
21
-2055.511811
31
0
0
LINE
8
1
10
3366.377953
20
-1932.677165
30
0
11
3366.377953
21
-2055.511811
31
0
0
LINE
8
1
10
3361.653543
20
-2055.511811
30
0
11
3366.377953
21
-2055.511811
31
0
0
LINE
8
1
10
3358.503937
20
-1928.543307
30
0
11
3363.228346
21
-1928.543307
31
0
0
LINE
8
1
10
3358.503937
20
-1928.543307
30
0
11
3358.503937
21
-2059.645669
31
0
0
LINE
8
1
10
3363.228346
20
-1928.543307
30
0
11
3363.228346
21
-2059.645669
31
0
0
LINE
8
1
10
3358.503937
20
-2059.645669
30
0
11
3363.228346
21
-2059.645669
31
0
0
LINE
8
1
10
3339.606299
20
-2032.677165
30
0
11
3344.330709
21
-2032.677165
31
0
0
LINE
8
1
10
3339.606299
20
-2032.677165
30
0
11
3339.606299
21
-2077.755906
31
0
0
LINE
8
1
10
3344.330709
20
-2032.677165
30
0
11
3344.330709
21
-2077.755906
31
0
0
LINE
8
1
10
3339.606299
20
-2077.755906
30
0
11
3344.330709
21
-2077.755906
31
0
0
LINE
8
1
10
3287.598425
20
-1890.590551
30
0
11
3292.322835
21
-1890.590551
31
0
0
LINE
8
1
10
3287.598425
20
-1890.590551
30
0
11
3287.598425
21
-1955.511811
31
0
0
LINE
8
1
10
3292.322835
20
-1890.590551
30
0
11
3292.322835
21
-1955.511811
31
0
0
LINE
8
1
10
3287.598425
20
-1955.511811
30
0
11
3292.322835
21
-1955.511811
31
0
0
LINE
8
1
10
3345.905512
20
-1915.472441
30
0
11
3350.629921
21
-1915.472441
31
0
0
LINE
8
1
10
3345.905512
20
-1915.472441
30
0
11
3345.905512
21
-1955.511811
31
0
0
LINE
8
1
10
3350.629921
20
-1915.472441
30
0
11
3350.629921
21
-1955.511811
31
0
0
LINE
8
1
10
3345.905512
20
-1955.511811
30
0
11
3350.629921
21
-1955.511811
31
0
0
LINE
8
1
10
3347.480315
20
-1916.889764
30
0
11
3352.204724
21
-1916.889764
31
0
0
LINE
8
1
10
3347.480315
20
-1916.889764
30
0
11
3347.480315
21
-1955.511811
31
0
0
LINE
8
1
10
3352.204724
20
-1916.889764
30
0
11
3352.204724
21
-1955.511811
31
0
0
LINE
8
1
10
3347.480315
20
-1955.511811
30
0
11
3352.204724
21
-1955.511811
31
0
0
LINE
8
1
10
3353.779528
20
-2032.677165
30
0
11
3358.503937
21
-2032.677165
31
0
0
LINE
8
1
10
3353.779528
20
-2032.677165
30
0
11
3353.779528
21
-2065.078740
31
0
0
LINE
8
1
10
3358.503937
20
-2032.677165
30
0
11
3358.503937
21
-2065.078740
31
0
0
LINE
8
1
10
3353.779528
20
-2065.078740
30
0
11
3358.503937
21
-2065.078740
31
0
0
LINE
8
1
10
3341.181102
20
-1911.614173
30
0
11
3345.905512
21
-1911.614173
31
0
0
LINE
8
1
10
3341.181102
20
-1911.614173
30
0
11
3341.181102
21
-1955.511811
31
0
0
LINE
8
1
10
3345.905512
20
-1911.614173
30
0
11
3345.905512
21
-1955.511811
31
0
0
LINE
8
1
10
3341.181102
20
-1955.511811
30
0
11
3345.905512
21
-1955.511811
31
0
0
LINE
8
1
10
3349.055118
20
-1918.346457
30
0
11
3353.779528
21
-1918.346457
31
0
0
LINE
8
1
10
3349.055118
20
-1918.346457
30
0
11
3349.055118
21
-1955.511811
31
0
0
LINE
8
1
10
3353.779528
20
-1918.346457
30
0
11
3353.779528
21
-1955.511811
31
0
0
LINE
8
1
10
3349.055118
20
-1955.511811
30
0
11
3353.779528
21
-1955.511811
31
0
0
LINE
8
1
10
3290.748031
20
-2032.677165
30
0
11
3295.472441
21
-2032.677165
31
0
0
LINE
8
1
10
3290.748031
20
-2032.677165
30
0
11
3290.748031
21
-2097.283465
31
0
0
LINE
8
1
10
3295.472441
20
-2032.677165
30
0
11
3295.472441
21
-2097.283465
31
0
0
LINE
8
1
10
3290.748031
20
-2097.283465
30
0
11
3295.472441
21
-2097.283465
31
0
0
LINE
8
1
10
3290.748031
20
-1890.905512
30
0
11
3295.472441
21
-1890.905512
31
0
0
LINE
8
1
10
3290.748031
20
-1890.905512
30
0
11
3290.748031
21
-1955.511811
31
0
0
LINE
8
1
10
3295.472441
20
-1890.905512
30
0
11
3295.472441
21
-1955.511811
31
0
0
LINE
8
1
10
3290.748031
20
-1955.511811
30
0
11
3295.472441
21
-1955.511811
31
0
0
LINE
8
1
10
3344.330709
20
-1914.133858
30
0
11
3349.055118
21
-1914.133858
31
0
0
LINE
8
1
10
3344.330709
20
-1914.133858
30
0
11
3344.330709
21
-1955.511811
31
0
0
LINE
8
1
10
3349.055118
20
-1914.133858
30
0
11
3349.055118
21
-1955.511811
31
0
0
LINE
8
1
10
3344.330709
20
-1955.511811
30
0
11
3349.055118
21
-1955.511811
31
0
0
LINE
8
1
10
3378.976378
20
-1971.338583
30
0
11
3383.700787
21
-1971.338583
31
0
0
LINE
8
1
10
3378.976378
20
-1971.338583
30
0
11
3378.976378
21
-2016.850394
31
0
0
LINE
8
1
10
3383.700787
20
-1971.338583
30
0
11
3383.700787
21
-2016.850394
31
0
0
LINE
8
1
10
3378.976378
20
-2016.850394
30
0
11
3383.700787
21
-2016.850394
31
0
0
LINE
8
1
10
3353.779528
20
-1923.110236
30
0
11
3358.503937
21
-1923.110236
31
0
0
LINE
8
1
10
3353.779528
20
-1923.110236
30
0
11
3353.779528
21
-1955.511811
31
0
0
LINE
8
1
10
3358.503937
20
-1923.110236
30
0
11
3358.503937
21
-1955.511811
31
0
0
LINE
8
1
10
3353.779528
20
-1955.511811
30
0
11
3358.503937
21
-1955.511811
31
0
0
LINE
8
1
10
3322.283465
20
-1900.039370
30
0
11
3327.007874
21
-1900.039370
31
0
0
LINE
8
1
10
3322.283465
20
-1900.039370
30
0
11
3322.283465
21
-1955.511811
31
0
0
LINE
8
1
10
3327.007874
20
-1900.039370
30
0
11
3327.007874
21
-1955.511811
31
0
0
LINE
8
1
10
3322.283465
20
-1955.511811
30
0
11
3327.007874
21
-1955.511811
31
0
0
LINE
8
1
10
3284.448819
20
-2032.677165
30
0
11
3289.173228
21
-2032.677165
31
0
0
LINE
8
1
10
3284.448819
20
-2032.677165
30
0
11
3284.448819
21
-2097.874016
31
0
0
LINE
8
1
10
3289.173228
20
-2032.677165
30
0
11
3289.173228
21
-2097.874016
31
0
0
LINE
8
1
10
3284.448819
20
-2097.874016
30
0
11
3289.173228
21
-2097.874016
31
0
0
LINE
8
1
10
3286.023622
20
-2032.677165
30
0
11
3290.748031
21
-2032.677165
31
0
0
LINE
8
1
10
3286.023622
20
-2032.677165
30
0
11
3286.023622
21
-2097.755906
31
0
0
LINE
8
1
10
3290.748031
20
-2032.677165
30
0
11
3290.748031
21
-2097.755906
31
0
0
LINE
8
1
10
3286.023622
20
-2097.755906
30
0
11
3290.748031
21
-2097.755906
31
0
0
LINE
8
1
10
3342.755906
20
-2032.677165
30
0
11
3347.480315
21
-2032.677165
31
0
0
LINE
8
1
10
3342.755906
20
-2032.677165
30
0
11
3342.755906
21
-2075.354331
31
0
0
LINE
8
1
10
3347.480315
20
-2032.677165
30
0
11
3347.480315
21
-2075.354331
31
0
0
LINE
8
1
10
3342.755906
20
-2075.354331
30
0
11
3347.480315
21
-2075.354331
31
0
0
LINE
8
1
10
3320.708661
20
-2032.677165
30
0
11
3325.433071
21
-2032.677165
31
0
0
LINE
8
1
10
3320.708661
20
-2032.677165
30
0
11
3320.708661
21
-2088.897638
31
0
0
LINE
8
1
10
3325.433071
20
-2032.677165
30
0
11
3325.433071
21
-2088.897638
31
0
0
LINE
8
1
10
3320.708661
20
-2088.897638
30
0
11
3325.433071
21
-2088.897638
31
0
0
LINE
8
1
10
3292.322835
20
-1891.102362
30
0
11
3297.047244
21
-1891.102362
31
0
0
LINE
8
1
10
3292.322835
20
-1891.102362
30
0
11
3292.322835
21
-1955.511811
31
0
0
LINE
8
1
10
3297.047244
20
-1891.102362
30
0
11
3297.047244
21
-1955.511811
31
0
0
LINE
8
1
10
3292.322835
20
-1955.511811
30
0
11
3297.047244
21
-1955.511811
31
0
0
LINE
8
1
10
3303.346457
20
-2032.677165
30
0
11
3308.070866
21
-2032.677165
31
0
0
LINE
8
1
10
3303.346457
20
-2032.677165
30
0
11
3303.346457
21
-2094.921260
31
0
0
LINE
8
1
10
3308.070866
20
-2032.677165
30
0
11
3308.070866
21
-2094.921260
31
0
0
LINE
8
1
10
3303.346457
20
-2094.921260
30
0
11
3308.070866
21
-2094.921260
31
0
0
LINE
8
1
10
3308.110236
20
-2032.677165
30
0
11
3312.834646
21
-2032.677165
31
0
0
LINE
8
1
10
3308.110236
20
-2032.677165
30
0
11
3308.110236
21
-2093.622047
31
0
0
LINE
8
1
10
3312.834646
20
-2032.677165
30
0
11
3312.834646
21
-2093.622047
31
0
0
LINE
8
1
10
3308.110236
20
-2093.622047
30
0
11
3312.834646
21
-2093.622047
31
0
0
LINE
8
1
10
3282.874016
20
-2032.677165
30
0
11
3287.598425
21
-2032.677165
31
0
0
LINE
8
1
10
3282.874016
20
-2032.677165
30
0
11
3282.874016
21
-2097.952756
31
0
0
LINE
8
1
10
3287.598425
20
-2032.677165
30
0
11
3287.598425
21
-2097.952756
31
0
0
LINE
8
1
10
3282.874016
20
-2097.952756
30
0
11
3287.598425
21
-2097.952756
31
0
0
LINE
8
1
10
3369.527559
20
-1945.354331
30
0
11
3374.251969
21
-1945.354331
31
0
0
LINE
8
1
10
3369.527559
20
-1945.354331
30
0
11
3369.527559
21
-2042.834646
31
0
0
LINE
8
1
10
3374.251969
20
-1945.354331
30
0
11
3374.251969
21
-2042.834646
31
0
0
LINE
8
1
10
3369.527559
20
-2042.834646
30
0
11
3374.251969
21
-2042.834646
31
0
0
LINE
8
1
10
3338.031496
20
-1909.251969
30
0
11
3342.755906
21
-1909.251969
31
0
0
LINE
8
1
10
3338.031496
20
-1909.251969
30
0
11
3338.031496
21
-1955.511811
31
0
0
LINE
8
1
10
3342.755906
20
-1909.251969
30
0
11
3342.755906
21
-1955.511811
31
0
0
LINE
8
1
10
3338.031496
20
-1955.511811
30
0
11
3342.755906
21
-1955.511811
31
0
0
LINE
8
1
10
3364.803150
20
-1937.283465
30
0
11
3369.527559
21
-1937.283465
31
0
0
LINE
8
1
10
3364.803150
20
-1937.283465
30
0
11
3364.803150
21
-2050.905512
31
0
0
LINE
8
1
10
3369.527559
20
-1937.283465
30
0
11
3369.527559
21
-2050.905512
31
0
0
LINE
8
1
10
3364.803150
20
-2050.905512
30
0
11
3369.527559
21
-2050.905512
31
0
0
LINE
8
1
10
3300.196850
20
-2032.677165
30
0
11
3304.921260
21
-2032.677165
31
0
0
LINE
8
1
10
3300.196850
20
-2032.677165
30
0
11
3300.196850
21
-2095.669291
31
0
0
LINE
8
1
10
3304.921260
20
-2032.677165
30
0
11
3304.921260
21
-2095.669291
31
0
0
LINE
8
1
10
3300.196850
20
-2095.669291
30
0
11
3304.921260
21
-2095.669291
31
0
0
LINE
8
1
10
3311.259843
20
-2032.677165
30
0
11
3315.984252
21
-2032.677165
31
0
0
LINE
8
1
10
3311.259843
20
-2032.677165
30
0
11
3311.259843
21
-2092.598425
31
0
0
LINE
8
1
10
3315.984252
20
-2032.677165
30
0
11
3315.984252
21
-2092.598425
31
0
0
LINE
8
1
10
3311.259843
20
-2092.598425
30
0
11
3315.984252
21
-2092.598425
31
0
0
LINE
8
1
10
3333.307087
20
-1906.102362
30
0
11
3338.031496
21
-1906.102362
31
0
0
LINE
8
1
10
3333.307087
20
-1906.102362
30
0
11
3333.307087
21
-1955.511811
31
0
0
LINE
8
1
10
3338.031496
20
-1906.102362
30
0
11
3338.031496
21
-1955.511811
31
0
0
LINE
8
1
10
3333.307087
20
-1955.511811
30
0
11
3338.031496
21
-1955.511811
31
0
0
LINE
8
1
10
3175.000000
20
-1888.582677
30
0
11
3386.023622
21
-1888.582677
31
0
0
LINE
8
1
10
3175.000000
20
-1888.582677
30
0
11
3175.000000
21
-2099.606299
31
0
0
LINE
8
1
10
3386.023622
20
-1888.582677
30
0
11
3386.023622
21
-2099.606299
31
0
0
LINE
8
1
10
3175.000000
20
-2099.606299
30
0
11
3386.023622
21
-2099.606299
31
0
0
LINE
8
1
10
3218.799213
20
-2118.110236
30
0
11
3291.043307
21
-2118.110236
31
0
0
LINE
8
1
10
3218.799213
20
-2118.110236
30
0
11
3218.799213
21
-2163.385827
31
0
0
LINE
8
1
10
3291.043307
20
-2118.110236
30
0
11
3291.043307
21
-2163.385827
31
0
0
LINE
8
1
10
3218.799213
20
-2163.385827
30
0
11
3291.043307
21
-2163.385827
31
0
0
LINE
8
1
10
3171.062992
20
-2295.669291
30
0
11
3330.905512
21
-2295.669291
31
0
0
LINE
8
1
10
3171.062992
20
-2295.669291
30
0
11
3171.062992
21
-2300.393701
31
0
0
LINE
8
1
10
3330.905512
20
-2295.669291
30
0
11
3330.905512
21
-2300.393701
31
0
0
LINE
8
1
10
3171.062992
20
-2300.393701
30
0
11
3330.905512
21
-2300.393701
31
0
0
LINE
8
1
10
3171.062992
20
-2300.393701
30
0
11
3330.905512
21
-2300.393701
31
0
0
LINE
8
1
10
3171.062992
20
-2300.393701
30
0
11
3171.062992
21
-2305.118110
31
0
0
LINE
8
1
10
3330.905512
20
-2300.393701
30
0
11
3330.905512
21
-2305.118110
31
0
0
LINE
8
1
10
3171.062992
20
-2305.118110
30
0
11
3330.905512
21
-2305.118110
31
0
0
LINE
8
1
10
3313.188976
20
-2602.952756
30
0
11
3330.905512
21
-2602.952756
31
0
0
LINE
8
1
10
3313.188976
20
-2602.952756
30
0
11
3313.188976
21
-2607.677165
31
0
0
LINE
8
1
10
3330.905512
20
-2602.952756
30
0
11
3330.905512
21
-2607.677165
31
0
0
LINE
8
1
10
3313.188976
20
-2607.677165
30
0
11
3330.905512
21
-2607.677165
31
0
0
LINE
8
1
10
3326.181102
20
-2243.110236
30
0
11
3330.905512
21
-2243.110236
31
0
0
LINE
8
1
10
3326.181102
20
-2243.110236
30
0
11
3326.181102
21
-2607.677165
31
0
0
LINE
8
1
10
3330.905512
20
-2243.110236
30
0
11
3330.905512
21
-2607.677165
31
0
0
LINE
8
1
10
3326.181102
20
-2607.677165
30
0
11
3330.905512
21
-2607.677165
31
0
0
LINE
8
1
10
3171.062992
20
-2305.118110
30
0
11
3330.905512
21
-2305.118110
31
0
0
LINE
8
1
10
3171.062992
20
-2305.118110
30
0
11
3171.062992
21
-2309.842520
31
0
0
LINE
8
1
10
3330.905512
20
-2305.118110
30
0
11
3330.905512
21
-2309.842520
31
0
0
LINE
8
1
10
3171.062992
20
-2309.842520
30
0
11
3330.905512
21
-2309.842520
31
0
0
LINE
8
1
10
3171.062992
20
-2602.952756
30
0
11
3188.779528
21
-2602.952756
31
0
0
LINE
8
1
10
3171.062992
20
-2602.952756
30
0
11
3171.062992
21
-2607.677165
31
0
0
LINE
8
1
10
3188.779528
20
-2602.952756
30
0
11
3188.779528
21
-2607.677165
31
0
0
LINE
8
1
10
3171.062992
20
-2607.677165
30
0
11
3188.779528
21
-2607.677165
31
0
0
LINE
8
1
10
3313.188976
20
-2243.110236
30
0
11
3330.905512
21
-2243.110236
31
0
0
LINE
8
1
10
3313.188976
20
-2243.110236
30
0
11
3313.188976
21
-2247.834646
31
0
0
LINE
8
1
10
3330.905512
20
-2243.110236
30
0
11
3330.905512
21
-2247.834646
31
0
0
LINE
8
1
10
3313.188976
20
-2247.834646
30
0
11
3330.905512
21
-2247.834646
31
0
0
LINE
8
1
10
3171.062992
20
-2243.110236
30
0
11
3175.787402
21
-2243.110236
31
0
0
LINE
8
1
10
3171.062992
20
-2243.110236
30
0
11
3171.062992
21
-2607.677165
31
0
0
LINE
8
1
10
3175.787402
20
-2243.110236
30
0
11
3175.787402
21
-2607.677165
31
0
0
LINE
8
1
10
3171.062992
20
-2607.677165
30
0
11
3175.787402
21
-2607.677165
31
0
0
LINE
8
1
10
3171.062992
20
-2243.110236
30
0
11
3188.779528
21
-2243.110236
31
0
0
LINE
8
1
10
3171.062992
20
-2243.110236
30
0
11
3171.062992
21
-2247.834646
31
0
0
LINE
8
1
10
3188.779528
20
-2243.110236
30
0
11
3188.779528
21
-2247.834646
31
0
0
LINE
8
1
10
3171.062992
20
-2247.834646
30
0
11
3188.779528
21
-2247.834646
31
0
0
LINE
8
1
10
2963.582677
20
-2003.740157
30
0
11
2968.307087
21
-2003.740157
31
0
0
LINE
8
1
10
2963.582677
20
-2003.740157
30
0
11
2963.582677
21
-2014.606299
31
0
0
LINE
8
1
10
2968.307087
20
-2003.740157
30
0
11
2968.307087
21
-2014.606299
31
0
0
LINE
8
1
10
2963.582677
20
-2014.606299
30
0
11
2968.307087
21
-2014.606299
31
0
0
LINE
8
1
10
2963.582677
20
-1912.559055
30
0
11
2968.307087
21
-1912.559055
31
0
0
LINE
8
1
10
2963.582677
20
-1912.559055
30
0
11
2963.582677
21
-1923.425197
31
0
0
LINE
8
1
10
2968.307087
20
-1912.559055
30
0
11
2968.307087
21
-1923.425197
31
0
0
LINE
8
1
10
2963.582677
20
-1923.425197
30
0
11
2968.307087
21
-1923.425197
31
0
0
LINE
8
1
10
2963.582677
20
-2003.685354
30
0
11
3095.564370
21
-2003.685354
31
0
0
LINE
8
1
10
2963.582677
20
-2003.685354
30
0
11
2963.582677
21
-2044.291339
31
0
0
LINE
8
1
10
3095.564370
20
-2003.685354
30
0
11
3095.564370
21
-2044.291339
31
0
0
LINE
8
1
10
2963.582677
20
-2044.291339
30
0
11
3095.564370
21
-2044.291339
31
0
0
LINE
8
1
10
2984.017283
20
-2003.733740
30
0
11
3070.713780
21
-2003.733740
31
0
0
LINE
8
1
10
2984.017283
20
-2003.733740
30
0
11
2984.017283
21
-2025.000000
31
0
0
LINE
8
1
10
3070.713780
20
-2003.733740
30
0
11
3070.713780
21
-2025.000000
31
0
0
LINE
8
1
10
2984.017283
20
-2025.000000
30
0
11
3070.713780
21
-2025.000000
31
0
0
LINE
8
1
10
2963.582677
20
-1882.874016
30
0
11
3095.564370
21
-1882.874016
31
0
0
LINE
8
1
10
2963.582677
20
-1882.874016
30
0
11
2963.582677
21
-1923.480000
31
0
0
LINE
8
1
10
3095.564370
20
-1882.874016
30
0
11
3095.564370
21
-1923.480000
31
0
0
LINE
8
1
10
2963.582677
20
-1923.480000
30
0
11
3095.564370
21
-1923.480000
31
0
0
LINE
8
1
10
2984.017283
20
-1902.165354
30
0
11
3070.713780
21
-1902.165354
31
0
0
LINE
8
1
10
2984.017283
20
-1902.165354
30
0
11
2984.017283
21
-1923.431614
31
0
0
LINE
8
1
10
3070.713780
20
-1902.165354
30
0
11
3070.713780
21
-1923.431614
31
0
0
LINE
8
1
10
2984.017283
20
-1923.431614
30
0
11
3070.713780
21
-1923.431614
31
0
0
LINE
8
1
10
1635.236220
20
-87.992126
30
0
11
1692.322835
21
-87.992126
31
0
0
LINE
8
1
10
1635.236220
20
-87.992126
30
0
11
1635.236220
21
-92.716535
31
0
0
LINE
8
1
10
1692.322835
20
-87.992126
30
0
11
1692.322835
21
-92.716535
31
0
0
LINE
8
1
10
1635.236220
20
-92.716535
30
0
11
1692.322835
21
-92.716535
31
0
0
LINE
8
1
10
1737.598425
20
-87.992126
30
0
11
1742.322835
21
-87.992126
31
0
0
LINE
8
1
10
1737.598425
20
-87.992126
30
0
11
1737.598425
21
-197.440945
31
0
0
LINE
8
1
10
1742.322835
20
-87.992126
30
0
11
1742.322835
21
-197.440945
31
0
0
LINE
8
1
10
1737.598425
20
-197.440945
30
0
11
1742.322835
21
-197.440945
31
0
0
LINE
8
1
10
1635.236220
20
-87.992126
30
0
11
1639.960630
21
-87.992126
31
0
0
LINE
8
1
10
1635.236220
20
-87.992126
30
0
11
1635.236220
21
-145.078740
31
0
0
LINE
8
1
10
1639.960630
20
-87.992126
30
0
11
1639.960630
21
-145.078740
31
0
0
LINE
8
1
10
1635.236220
20
-145.078740
30
0
11
1639.960630
21
-145.078740
31
0
0
LINE
8
1
10
1737.598425
20
-87.992126
30
0
11
2044.685039
21
-87.992126
31
0
0
LINE
8
1
10
1737.598425
20
-87.992126
30
0
11
1737.598425
21
-92.716535
31
0
0
LINE
8
1
10
2044.685039
20
-87.992126
30
0
11
2044.685039
21
-92.716535
31
0
0
LINE
8
1
10
1737.598425
20
-92.716535
30
0
11
2044.685039
21
-92.716535
31
0
0
LINE
8
1
10
2039.960630
20
-87.992126
30
0
11
2044.685039
21
-87.992126
31
0
0
LINE
8
1
10
2039.960630
20
-87.992126
30
0
11
2039.960630
21
-197.440945
31
0
0
LINE
8
1
10
2044.685039
20
-87.992126
30
0
11
2044.685039
21
-197.440945
31
0
0
LINE
8
1
10
2039.960630
20
-197.440945
30
0
11
2044.685039
21
-197.440945
31
0
0
LINE
8
1
10
1737.598425
20
-192.716535
30
0
11
2044.685039
21
-192.716535
31
0
0
LINE
8
1
10
1737.598425
20
-192.716535
30
0
11
1737.598425
21
-197.440945
31
0
0
LINE
8
1
10
2044.685039
20
-192.716535
30
0
11
2044.685039
21
-197.440945
31
0
0
LINE
8
1
10
1737.598425
20
-197.440945
30
0
11
2044.685039
21
-197.440945
31
0
0
LINE
8
1
10
2906.102362
20
-2727.952756
30
0
11
3147.047244
21
-2727.952756
31
0
0
LINE
8
1
10
2906.102362
20
-2727.952756
30
0
11
2906.102362
21
-2732.677165
31
0
0
LINE
8
1
10
3147.047244
20
-2727.952756
30
0
11
3147.047244
21
-2732.677165
31
0
0
LINE
8
1
10
2906.102362
20
-2732.677165
30
0
11
3147.047244
21
-2732.677165
31
0
0
LINE
8
1
10
3142.322835
20
-2727.952756
30
0
11
3147.047244
21
-2727.952756
31
0
0
LINE
8
1
10
3142.322835
20
-2727.952756
30
0
11
3142.322835
21
-2762.204724
31
0
0
LINE
8
1
10
3147.047244
20
-2727.952756
30
0
11
3147.047244
21
-2762.204724
31
0
0
LINE
8
1
10
3142.322835
20
-2762.204724
30
0
11
3147.047244
21
-2762.204724
31
0
0
LINE
8
1
10
3201.377953
20
-2727.952756
30
0
11
3276.968504
21
-2727.952756
31
0
0
LINE
8
1
10
3201.377953
20
-2727.952756
30
0
11
3201.377953
21
-2732.677165
31
0
0
LINE
8
1
10
3276.968504
20
-2727.952756
30
0
11
3276.968504
21
-2732.677165
31
0
0
LINE
8
1
10
3201.377953
20
-2732.677165
30
0
11
3276.968504
21
-2732.677165
31
0
0
LINE
8
1
10
3201.377953
20
-2727.952756
30
0
11
3206.102362
21
-2727.952756
31
0
0
LINE
8
1
10
3201.377953
20
-2727.952756
30
0
11
3201.377953
21
-2762.204724
31
0
0
LINE
8
1
10
3206.102362
20
-2727.952756
30
0
11
3206.102362
21
-2762.204724
31
0
0
LINE
8
1
10
3201.377953
20
-2762.204724
30
0
11
3206.102362
21
-2762.204724
31
0
0
LINE
8
1
10
2776.181102
20
-2727.952756
30
0
11
2851.771654
21
-2727.952756
31
0
0
LINE
8
1
10
2776.181102
20
-2727.952756
30
0
11
2776.181102
21
-2732.677165
31
0
0
LINE
8
1
10
2851.771654
20
-2727.952756
30
0
11
2851.771654
21
-2732.677165
31
0
0
LINE
8
1
10
2776.181102
20
-2732.677165
30
0
11
2851.771654
21
-2732.677165
31
0
0
LINE
8
1
10
3272.244094
20
-2727.952756
30
0
11
3276.968504
21
-2727.952756
31
0
0
LINE
8
1
10
3272.244094
20
-2727.952756
30
0
11
3272.244094
21
-2762.204724
31
0
0
LINE
8
1
10
3276.968504
20
-2727.952756
30
0
11
3276.968504
21
-2762.204724
31
0
0
LINE
8
1
10
3272.244094
20
-2762.204724
30
0
11
3276.968504
21
-2762.204724
31
0
0
LINE
8
1
10
3272.637795
20
-2727.559055
30
0
11
3277.362205
21
-2727.559055
31
0
0
LINE
8
1
10
3272.637795
20
-2727.559055
30
0
11
3272.637795
21
-2967.322835
31
0
0
LINE
8
1
10
3277.362205
20
-2727.559055
30
0
11
3277.362205
21
-2967.322835
31
0
0
LINE
8
1
10
3272.637795
20
-2967.322835
30
0
11
3277.362205
21
-2967.322835
31
0
0
LINE
8
1
10
2775.787402
20
-2727.559055
30
0
11
2780.511811
21
-2727.559055
31
0
0
LINE
8
1
10
2775.787402
20
-2727.559055
30
0
11
2775.787402
21
-2967.322835
31
0
0
LINE
8
1
10
2780.511811
20
-2727.559055
30
0
11
2780.511811
21
-2967.322835
31
0
0
LINE
8
1
10
2775.787402
20
-2967.322835
30
0
11
2780.511811
21
-2967.322835
31
0
0
LINE
8
1
10
2776.181102
20
-2727.952756
30
0
11
2780.905512
21
-2727.952756
31
0
0
LINE
8
1
10
2776.181102
20
-2727.952756
30
0
11
2776.181102
21
-2762.204724
31
0
0
LINE
8
1
10
2780.905512
20
-2727.952756
30
0
11
2780.905512
21
-2762.204724
31
0
0
LINE
8
1
10
2776.181102
20
-2762.204724
30
0
11
2780.905512
21
-2762.204724
31
0
0
LINE
8
1
10
2906.102362
20
-2757.480315
30
0
11
3147.047244
21
-2757.480315
31
0
0
LINE
8
1
10
2906.102362
20
-2757.480315
30
0
11
2906.102362
21
-2762.204724
31
0
0
LINE
8
1
10
3147.047244
20
-2757.480315
30
0
11
3147.047244
21
-2762.204724
31
0
0
LINE
8
1
10
2906.102362
20
-2762.204724
30
0
11
3147.047244
21
-2762.204724
31
0
0
LINE
8
1
10
2764.370079
20
-2716.141732
30
0
11
2818.307087
21
-2716.141732
31
0
0
LINE
8
1
10
2764.370079
20
-2716.141732
30
0
11
2764.370079
21
-2720.866142
31
0
0
LINE
8
1
10
2818.307087
20
-2716.141732
30
0
11
2818.307087
21
-2720.866142
31
0
0
LINE
8
1
10
2764.370079
20
-2720.866142
30
0
11
2818.307087
21
-2720.866142
31
0
0
LINE
8
1
10
3242.716535
20
-2816.535433
30
0
11
3276.968504
21
-2816.535433
31
0
0
LINE
8
1
10
3242.716535
20
-2816.535433
30
0
11
3242.716535
21
-2821.259843
31
0
0
LINE
8
1
10
3276.968504
20
-2816.535433
30
0
11
3276.968504
21
-2821.259843
31
0
0
LINE
8
1
10
3242.716535
20
-2821.259843
30
0
11
3276.968504
21
-2821.259843
31
0
0
LINE
8
1
10
2847.047244
20
-2727.952756
30
0
11
2851.771654
21
-2727.952756
31
0
0
LINE
8
1
10
2847.047244
20
-2727.952756
30
0
11
2847.047244
21
-2762.204724
31
0
0
LINE
8
1
10
2851.771654
20
-2727.952756
30
0
11
2851.771654
21
-2762.204724
31
0
0
LINE
8
1
10
2847.047244
20
-2762.204724
30
0
11
2851.771654
21
-2762.204724
31
0
0
LINE
8
1
10
3024.212598
20
-2932.677165
30
0
11
3247.440945
21
-2932.677165
31
0
0
LINE
8
1
10
3024.212598
20
-2932.677165
30
0
11
3024.212598
21
-2937.401575
31
0
0
LINE
8
1
10
3247.440945
20
-2932.677165
30
0
11
3247.440945
21
-2937.401575
31
0
0
LINE
8
1
10
3024.212598
20
-2937.401575
30
0
11
3247.440945
21
-2937.401575
31
0
0
LINE
8
1
10
2776.181102
20
-2757.480315
30
0
11
2851.771654
21
-2757.480315
31
0
0
LINE
8
1
10
2776.181102
20
-2757.480315
30
0
11
2776.181102
21
-2762.204724
31
0
0
LINE
8
1
10
2851.771654
20
-2757.480315
30
0
11
2851.771654
21
-2762.204724
31
0
0
LINE
8
1
10
2776.181102
20
-2762.204724
30
0
11
2851.771654
21
-2762.204724
31
0
0
LINE
8
1
10
3242.716535
20
-2816.535433
30
0
11
3247.440945
21
-2816.535433
31
0
0
LINE
8
1
10
3242.716535
20
-2816.535433
30
0
11
3242.716535
21
-2937.401575
31
0
0
LINE
8
1
10
3247.440945
20
-2816.535433
30
0
11
3247.440945
21
-2937.401575
31
0
0
LINE
8
1
10
3242.716535
20
-2937.401575
30
0
11
3247.440945
21
-2937.401575
31
0
0
LINE
8
1
10
2764.370079
20
-2716.141732
30
0
11
2769.094488
21
-2716.141732
31
0
0
LINE
8
1
10
2764.370079
20
-2716.141732
30
0
11
2764.370079
21
-2770.078740
31
0
0
LINE
8
1
10
2769.094488
20
-2716.141732
30
0
11
2769.094488
21
-2770.078740
31
0
0
LINE
8
1
10
2764.370079
20
-2770.078740
30
0
11
2769.094488
21
-2770.078740
31
0
0
LINE
8
1
10
3201.377953
20
-2757.480315
30
0
11
3276.968504
21
-2757.480315
31
0
0
LINE
8
1
10
3201.377953
20
-2757.480315
30
0
11
3201.377953
21
-2762.204724
31
0
0
LINE
8
1
10
3276.968504
20
-2757.480315
30
0
11
3276.968504
21
-2762.204724
31
0
0
LINE
8
1
10
3201.377953
20
-2762.204724
30
0
11
3276.968504
21
-2762.204724
31
0
0
LINE
8
1
10
2775.787402
20
-2962.598425
30
0
11
3277.362205
21
-2962.598425
31
0
0
LINE
8
1
10
2775.787402
20
-2962.598425
30
0
11
2775.787402
21
-2967.322835
31
0
0
LINE
8
1
10
3277.362205
20
-2962.598425
30
0
11
3277.362205
21
-2967.322835
31
0
0
LINE
8
1
10
2775.787402
20
-2967.322835
30
0
11
3277.362205
21
-2967.322835
31
0
0
LINE
8
1
10
2805.708661
20
-2816.535433
30
0
11
2810.433071
21
-2816.535433
31
0
0
LINE
8
1
10
2805.708661
20
-2816.535433
30
0
11
2805.708661
21
-2937.401575
31
0
0
LINE
8
1
10
2810.433071
20
-2816.535433
30
0
11
2810.433071
21
-2937.401575
31
0
0
LINE
8
1
10
2805.708661
20
-2937.401575
30
0
11
2810.433071
21
-2937.401575
31
0
0
LINE
8
1
10
2805.708661
20
-2932.677165
30
0
11
3028.937008
21
-2932.677165
31
0
0
LINE
8
1
10
2805.708661
20
-2932.677165
30
0
11
2805.708661
21
-2937.401575
31
0
0
LINE
8
1
10
3028.937008
20
-2932.677165
30
0
11
3028.937008
21
-2937.401575
31
0
0
LINE
8
1
10
2805.708661
20
-2937.401575
30
0
11
3028.937008
21
-2937.401575
31
0
0
LINE
8
1
10
2775.787402
20
-2727.559055
30
0
11
3277.362205
21
-2727.559055
31
0
0
LINE
8
1
10
2775.787402
20
-2727.559055
30
0
11
2775.787402
21
-2732.283465
31
0
0
LINE
8
1
10
3277.362205
20
-2727.559055
30
0
11
3277.362205
21
-2732.283465
31
0
0
LINE
8
1
10
2775.787402
20
-2732.283465
30
0
11
3277.362205
21
-2732.283465
31
0
0
LINE
8
1
10
2776.181102
20
-2816.535433
30
0
11
2810.433071
21
-2816.535433
31
0
0
LINE
8
1
10
2776.181102
20
-2816.535433
30
0
11
2776.181102
21
-2821.259843
31
0
0
LINE
8
1
10
2810.433071
20
-2816.535433
30
0
11
2810.433071
21
-2821.259843
31
0
0
LINE
8
1
10
2776.181102
20
-2821.259843
30
0
11
2810.433071
21
-2821.259843
31
0
0
LINE
8
1
10
2906.102362
20
-2727.952756
30
0
11
2910.826772
21
-2727.952756
31
0
0
LINE
8
1
10
2906.102362
20
-2727.952756
30
0
11
2906.102362
21
-2762.204724
31
0
0
LINE
8
1
10
2910.826772
20
-2727.952756
30
0
11
2910.826772
21
-2762.204724
31
0
0
LINE
8
1
10
2906.102362
20
-2762.204724
30
0
11
2910.826772
21
-2762.204724
31
0
0
LINE
8
1
10
1026.181102
20
-91.929134
30
0
11
1083.267717
21
-91.929134
31
0
0
LINE
8
1
10
1026.181102
20
-91.929134
30
0
11
1026.181102
21
-96.653543
31
0
0
LINE
8
1
10
1083.267717
20
-91.929134
30
0
11
1083.267717
21
-96.653543
31
0
0
LINE
8
1
10
1026.181102
20
-96.653543
30
0
11
1083.267717
21
-96.653543
31
0
0
LINE
8
1
10
573.818898
20
-91.929134
30
0
11
578.543307
21
-91.929134
31
0
0
LINE
8
1
10
573.818898
20
-91.929134
30
0
11
573.818898
21
-201.377953
31
0
0
LINE
8
1
10
578.543307
20
-91.929134
30
0
11
578.543307
21
-201.377953
31
0
0
LINE
8
1
10
573.818898
20
-201.377953
30
0
11
578.543307
21
-201.377953
31
0
0
LINE
8
1
10
573.818898
20
-91.929134
30
0
11
980.905512
21
-91.929134
31
0
0
LINE
8
1
10
573.818898
20
-91.929134
30
0
11
573.818898
21
-96.653543
31
0
0
LINE
8
1
10
980.905512
20
-91.929134
30
0
11
980.905512
21
-96.653543
31
0
0
LINE
8
1
10
573.818898
20
-96.653543
30
0
11
980.905512
21
-96.653543
31
0
0
LINE
8
1
10
1078.543307
20
-91.929134
30
0
11
1083.267717
21
-91.929134
31
0
0
LINE
8
1
10
1078.543307
20
-91.929134
30
0
11
1078.543307
21
-149.015748
31
0
0
LINE
8
1
10
1083.267717
20
-91.929134
30
0
11
1083.267717
21
-149.015748
31
0
0
LINE
8
1
10
1078.543307
20
-149.015748
30
0
11
1083.267717
21
-149.015748
31
0
0
LINE
8
1
10
976.181102
20
-91.929134
30
0
11
980.905512
21
-91.929134
31
0
0
LINE
8
1
10
976.181102
20
-91.929134
30
0
11
976.181102
21
-201.377953
31
0
0
LINE
8
1
10
980.905512
20
-91.929134
30
0
11
980.905512
21
-201.377953
31
0
0
LINE
8
1
10
976.181102
20
-201.377953
30
0
11
980.905512
21
-201.377953
31
0
0
LINE
8
1
10
573.818898
20
-196.653543
30
0
11
980.905512
21
-196.653543
31
0
0
LINE
8
1
10
573.818898
20
-196.653543
30
0
11
573.818898
21
-201.377953
31
0
0
LINE
8
1
10
980.905512
20
-196.653543
30
0
11
980.905512
21
-201.377953
31
0
0
LINE
8
1
10
573.818898
20
-201.377953
30
0
11
980.905512
21
-201.377953
31
0
0
LINE
8
1
10
2707.086614
20
-870.669291
30
0
11
2711.811024
21
-870.669291
31
0
0
LINE
8
1
10
2707.086614
20
-870.669291
30
0
11
2707.086614
21
-927.755906
31
0
0
LINE
8
1
10
2711.811024
20
-870.669291
30
0
11
2711.811024
21
-927.755906
31
0
0
LINE
8
1
10
2707.086614
20
-927.755906
30
0
11
2711.811024
21
-927.755906
31
0
0
LINE
8
1
10
3011.811024
20
-818.307087
30
0
11
3016.535433
21
-818.307087
31
0
0
LINE
8
1
10
3011.811024
20
-818.307087
30
0
11
3011.811024
21
-927.755906
31
0
0
LINE
8
1
10
3016.535433
20
-818.307087
30
0
11
3016.535433
21
-927.755906
31
0
0
LINE
8
1
10
3011.811024
20
-927.755906
30
0
11
3016.535433
21
-927.755906
31
0
0
LINE
8
1
10
2809.448819
20
-923.031496
30
0
11
3016.535433
21
-923.031496
31
0
0
LINE
8
1
10
2809.448819
20
-923.031496
30
0
11
2809.448819
21
-927.755906
31
0
0
LINE
8
1
10
3016.535433
20
-923.031496
30
0
11
3016.535433
21
-927.755906
31
0
0
LINE
8
1
10
2809.448819
20
-927.755906
30
0
11
3016.535433
21
-927.755906
31
0
0
LINE
8
1
10
2809.448819
20
-818.307087
30
0
11
2814.173228
21
-818.307087
31
0
0
LINE
8
1
10
2809.448819
20
-818.307087
30
0
11
2809.448819
21
-927.755906
31
0
0
LINE
8
1
10
2814.173228
20
-818.307087
30
0
11
2814.173228
21
-927.755906
31
0
0
LINE
8
1
10
2809.448819
20
-927.755906
30
0
11
2814.173228
21
-927.755906
31
0
0
LINE
8
1
10
2707.086614
20
-923.031496
30
0
11
2764.173228
21
-923.031496
31
0
0
LINE
8
1
10
2707.086614
20
-923.031496
30
0
11
2707.086614
21
-927.755906
31
0
0
LINE
8
1
10
2764.173228
20
-923.031496
30
0
11
2764.173228
21
-927.755906
31
0
0
LINE
8
1
10
2707.086614
20
-927.755906
30
0
11
2764.173228
21
-927.755906
31
0
0
LINE
8
1
10
2809.448819
20
-818.307087
30
0
11
3016.535433
21
-818.307087
31
0
0
LINE
8
1
10
2809.448819
20
-818.307087
30
0
11
2809.448819
21
-823.031496
31
0
0
LINE
8
1
10
3016.535433
20
-818.307087
30
0
11
3016.535433
21
-823.031496
31
0
0
LINE
8
1
10
2809.448819
20
-823.031496
30
0
11
3016.535433
21
-823.031496
31
0
0
LINE
8
1
10
1493.291339
20
-3270.751969
30
0
11
1498.015748
21
-3270.751969
31
0
0
LINE
8
1
10
1493.291339
20
-3270.751969
30
0
11
1493.291339
21
-3327.051181
31
0
0
LINE
8
1
10
1498.015748
20
-3270.751969
30
0
11
1498.015748
21
-3327.051181
31
0
0
LINE
8
1
10
1493.291339
20
-3327.051181
30
0
11
1498.015748
21
-3327.051181
31
0
0
LINE
8
1
10
418.881890
20
-2963.271654
30
0
11
423.606299
21
-2963.271654
31
0
0
LINE
8
1
10
418.881890
20
-2963.271654
30
0
11
418.881890
21
-3327.051181
31
0
0
LINE
8
1
10
423.606299
20
-2963.271654
30
0
11
423.606299
21
-3327.051181
31
0
0
LINE
8
1
10
418.881890
20
-3327.051181
30
0
11
423.606299
21
-3327.051181
31
0
0
LINE
8
1
10
418.881890
20
-2963.271654
30
0
11
2733.842520
21
-2963.271654
31
0
0
LINE
8
1
10
418.881890
20
-2963.271654
30
0
11
418.881890
21
-2967.996063
31
0
0
LINE
8
1
10
2733.842520
20
-2963.271654
30
0
11
2733.842520
21
-2967.996063
31
0
0
LINE
8
1
10
418.881890
20
-2967.996063
30
0
11
2733.842520
21
-2967.996063
31
0
0
LINE
8
1
10
2677.937008
20
-3014.846457
30
0
11
2682.661417
21
-3014.846457
31
0
0
LINE
8
1
10
2677.937008
20
-3014.846457
30
0
11
2677.937008
21
-3275.476378
31
0
0
LINE
8
1
10
2682.661417
20
-3014.846457
30
0
11
2682.661417
21
-3275.476378
31
0
0
LINE
8
1
10
2677.937008
20
-3275.476378
30
0
11
2682.661417
21
-3275.476378
31
0
0
LINE
8
1
10
1654.708661
20
-3270.751969
30
0
11
1659.433071
21
-3270.751969
31
0
0
LINE
8
1
10
1654.708661
20
-3270.751969
30
0
11
1654.708661
21
-3275.476378
31
0
0
LINE
8
1
10
1659.433071
20
-3270.751969
30
0
11
1659.433071
21
-3275.476378
31
0
0
LINE
8
1
10
1654.708661
20
-3275.476378
30
0
11
1659.433071
21
-3275.476378
31
0
0
LINE
8
1
10
2729.118110
20
-2963.271654
30
0
11
2733.842520
21
-2963.271654
31
0
0
LINE
8
1
10
2729.118110
20
-2963.271654
30
0
11
2729.118110
21
-3327.051181
31
0
0
LINE
8
1
10
2733.842520
20
-2963.271654
30
0
11
2733.842520
21
-3327.051181
31
0
0
LINE
8
1
10
2729.118110
20
-3327.051181
30
0
11
2733.842520
21
-3327.051181
31
0
0
LINE
8
1
10
604.314961
20
-3337.681102
30
0
11
628.724409
21
-3337.681102
31
0
0
LINE
8
1
10
604.314961
20
-3337.681102
30
0
11
604.314961
21
-3381.775591
31
0
0
LINE
8
1
10
628.724409
20
-3337.681102
30
0
11
628.724409
21
-3381.775591
31
0
0
LINE
8
1
10
604.314961
20
-3381.775591
30
0
11
628.724409
21
-3381.775591
31
0
0
LINE
8
1
10
418.881890
20
-3322.326772
30
0
11
2733.842520
21
-3322.326772
31
0
0
LINE
8
1
10
418.881890
20
-3322.326772
30
0
11
418.881890
21
-3327.051181
31
0
0
LINE
8
1
10
2733.842520
20
-3322.326772
30
0
11
2733.842520
21
-3327.051181
31
0
0
LINE
8
1
10
418.881890
20
-3327.051181
30
0
11
2733.842520
21
-3327.051181
31
0
0
LINE
8
1
10
470.062992
20
-3014.846457
30
0
11
474.787402
21
-3014.846457
31
0
0
LINE
8
1
10
470.062992
20
-3014.846457
30
0
11
470.062992
21
-3275.476378
31
0
0
LINE
8
1
10
474.787402
20
-3014.846457
30
0
11
474.787402
21
-3275.476378
31
0
0
LINE
8
1
10
470.062992
20
-3275.476378
30
0
11
474.787402
21
-3275.476378
31
0
0
LINE
8
1
10
604.314961
20
-3377.051181
30
0
11
648.409449
21
-3377.051181
31
0
0
LINE
8
1
10
604.314961
20
-3377.051181
30
0
11
604.314961
21
-3381.775591
31
0
0
LINE
8
1
10
648.409449
20
-3377.051181
30
0
11
648.409449
21
-3381.775591
31
0
0
LINE
8
1
10
604.314961
20
-3381.775591
30
0
11
648.409449
21
-3381.775591
31
0
0
LINE
8
1
10
470.062992
20
-3014.846457
30
0
11
2682.661417
21
-3014.846457
31
0
0
LINE
8
1
10
470.062992
20
-3014.846457
30
0
11
470.062992
21
-3019.570866
31
0
0
LINE
8
1
10
2682.661417
20
-3014.846457
30
0
11
2682.661417
21
-3019.570866
31
0
0
LINE
8
1
10
470.062992
20
-3019.570866
30
0
11
2682.661417
21
-3019.570866
31
0
0
LINE
8
1
10
470.062992
20
-3270.751969
30
0
11
1498.015748
21
-3270.751969
31
0
0
LINE
8
1
10
470.062992
20
-3270.751969
30
0
11
470.062992
21
-3275.476378
31
0
0
LINE
8
1
10
1498.015748
20
-3270.751969
30
0
11
1498.015748
21
-3275.476378
31
0
0
LINE
8
1
10
470.062992
20
-3275.476378
30
0
11
1498.015748
21
-3275.476378
31
0
0
LINE
8
1
10
624.000000
20
-3337.681102
30
0
11
648.409449
21
-3337.681102
31
0
0
LINE
8
1
10
624.000000
20
-3337.681102
30
0
11
624.000000
21
-3381.775591
31
0
0
LINE
8
1
10
648.409449
20
-3337.681102
30
0
11
648.409449
21
-3381.775591
31
0
0
LINE
8
1
10
624.000000
20
-3381.775591
30
0
11
648.409449
21
-3381.775591
31
0
0
LINE
8
1
10
1654.708661
20
-3270.751969
30
0
11
1659.433071
21
-3270.751969
31
0
0
LINE
8
1
10
1654.708661
20
-3270.751969
30
0
11
1654.708661
21
-3327.051181
31
0
0
LINE
8
1
10
1659.433071
20
-3270.751969
30
0
11
1659.433071
21
-3327.051181
31
0
0
LINE
8
1
10
1654.708661
20
-3327.051181
30
0
11
1659.433071
21
-3327.051181
31
0
0
LINE
8
1
10
1654.708661
20
-3270.751969
30
0
11
2682.661417
21
-3270.751969
31
0
0
LINE
8
1
10
1654.708661
20
-3270.751969
30
0
11
1654.708661
21
-3275.476378
31
0
0
LINE
8
1
10
2682.661417
20
-3270.751969
30
0
11
2682.661417
21
-3275.476378
31
0
0
LINE
8
1
10
1654.708661
20
-3275.476378
30
0
11
2682.661417
21
-3275.476378
31
0
0
LINE
8
1
10
2130.905512
20
-67.519685
30
0
11
2135.629921
21
-67.519685
31
0
0
LINE
8
1
10
2130.905512
20
-67.519685
30
0
11
2130.905512
21
-119.488189
31
0
0
LINE
8
1
10
2135.629921
20
-67.519685
30
0
11
2135.629921
21
-119.488189
31
0
0
LINE
8
1
10
2130.905512
20
-119.488189
30
0
11
2135.629921
21
-119.488189
31
0
0
LINE
8
1
10
2130.905512
20
-67.519685
30
0
11
2182.874016
21
-67.519685
31
0
0
LINE
8
1
10
2130.905512
20
-67.519685
30
0
11
2130.905512
21
-72.244094
31
0
0
LINE
8
1
10
2182.874016
20
-67.519685
30
0
11
2182.874016
21
-72.244094
31
0
0
LINE
8
1
10
2130.905512
20
-72.244094
30
0
11
2182.874016
21
-72.244094
31
0
0
LINE
8
1
10
2457.677165
20
-79.330709
30
0
11
2509.645669
21
-79.330709
31
0
0
LINE
8
1
10
2457.677165
20
-79.330709
30
0
11
2457.677165
21
-84.055118
31
0
0
LINE
8
1
10
2509.645669
20
-79.330709
30
0
11
2509.645669
21
-84.055118
31
0
0
LINE
8
1
10
2457.677165
20
-84.055118
30
0
11
2509.645669
21
-84.055118
31
0
0
LINE
8
1
10
2142.716535
20
-79.330709
30
0
11
2147.440945
21
-79.330709
31
0
0
LINE
8
1
10
2142.716535
20
-79.330709
30
0
11
2142.716535
21
-249.409449
31
0
0
LINE
8
1
10
2147.440945
20
-79.330709
30
0
11
2147.440945
21
-249.409449
31
0
0
LINE
8
1
10
2142.716535
20
-249.409449
30
0
11
2147.440945
21
-249.409449
31
0
0
LINE
8
1
10
2457.677165
20
-244.685039
30
0
11
2509.645669
21
-244.685039
31
0
0
LINE
8
1
10
2457.677165
20
-244.685039
30
0
11
2457.677165
21
-249.409449
31
0
0
LINE
8
1
10
2509.645669
20
-244.685039
30
0
11
2509.645669
21
-249.409449
31
0
0
LINE
8
1
10
2457.677165
20
-249.409449
30
0
11
2509.645669
21
-249.409449
31
0
0
LINE
8
1
10
2504.921260
20
-79.330709
30
0
11
2509.645669
21
-79.330709
31
0
0
LINE
8
1
10
2504.921260
20
-79.330709
30
0
11
2504.921260
21
-249.409449
31
0
0
LINE
8
1
10
2509.645669
20
-79.330709
30
0
11
2509.645669
21
-249.409449
31
0
0
LINE
8
1
10
2504.921260
20
-249.409449
30
0
11
2509.645669
21
-249.409449
31
0
0
LINE
8
1
10
2142.716535
20
-244.685039
30
0
11
2194.685039
21
-244.685039
31
0
0
LINE
8
1
10
2142.716535
20
-244.685039
30
0
11
2142.716535
21
-249.409449
31
0
0
LINE
8
1
10
2194.685039
20
-244.685039
30
0
11
2194.685039
21
-249.409449
31
0
0
LINE
8
1
10
2142.716535
20
-249.409449
30
0
11
2194.685039
21
-249.409449
31
0
0
LINE
8
1
10
2142.716535
20
-79.330709
30
0
11
2194.685039
21
-79.330709
31
0
0
LINE
8
1
10
2142.716535
20
-79.330709
30
0
11
2142.716535
21
-84.055118
31
0
0
LINE
8
1
10
2194.685039
20
-79.330709
30
0
11
2194.685039
21
-84.055118
31
0
0
LINE
8
1
10
2142.716535
20
-84.055118
30
0
11
2194.685039
21
-84.055118
31
0
0
LINE
8
1
10
1113.236220
20
-932.055118
30
0
11
1118.236220
21
-932.055118
31
0
0
LINE
8
1
10
1113.236220
20
-932.055118
30
0
11
1113.236220
21
-2315.007874
31
0
0
LINE
8
1
10
1118.236220
20
-932.055118
30
0
11
1118.236220
21
-2315.007874
31
0
0
LINE
8
1
10
1113.236220
20
-2315.007874
30
0
11
1118.236220
21
-2315.007874
31
0
0
LINE
8
1
10
1654.574803
20
-2707.645669
30
0
11
1659.574803
21
-2707.645669
31
0
0
LINE
8
1
10
1654.574803
20
-2707.645669
30
0
11
1654.574803
21
-2736.267717
31
0
0
LINE
8
1
10
1659.574803
20
-2707.645669
30
0
11
1659.574803
21
-2736.267717
31
0
0
LINE
8
1
10
1654.574803
20
-2736.267717
30
0
11
1659.574803
21
-2736.267717
31
0
0
LINE
8
1
10
2491.188976
20
-932.055118
30
0
11
2496.188976
21
-932.055118
31
0
0
LINE
8
1
10
2491.188976
20
-932.055118
30
0
11
2491.188976
21
-2315.007874
31
0
0
LINE
8
1
10
2496.188976
20
-932.055118
30
0
11
2496.188976
21
-2315.007874
31
0
0
LINE
8
1
10
2491.188976
20
-2315.007874
30
0
11
2496.188976
21
-2315.007874
31
0
0
LINE
8
1
10
1949.850394
20
-2707.645669
30
0
11
1954.850394
21
-2707.645669
31
0
0
LINE
8
1
10
1949.850394
20
-2707.645669
30
0
11
1949.850394
21
-2736.267717
31
0
0
LINE
8
1
10
1954.850394
20
-2707.645669
30
0
11
1954.850394
21
-2736.267717
31
0
0
LINE
8
1
10
1949.850394
20
-2736.267717
30
0
11
1954.850394
21
-2736.267717
31
0
0
LINE
8
1
10
1506.937008
20
-538.354331
30
0
11
2102.488189
21
-538.354331
31
0
0
LINE
8
1
10
1506.937008
20
-538.354331
30
0
11
1506.937008
21
-543.354331
31
0
0
LINE
8
1
10
2102.488189
20
-538.354331
30
0
11
2102.488189
21
-543.354331
31
0
0
LINE
8
1
10
1506.937008
20
-543.354331
30
0
11
2102.488189
21
-543.354331
31
0
0
LINE
8
1
10
1506.937008
20
-2703.708661
30
0
11
2102.488189
21
-2703.708661
31
0
0
LINE
8
1
10
1506.937008
20
-2703.708661
30
0
11
1506.937008
21
-2708.708661
31
0
0
LINE
8
1
10
2102.488189
20
-2703.708661
30
0
11
2102.488189
21
-2708.708661
31
0
0
LINE
8
1
10
1506.937008
20
-2708.708661
30
0
11
2102.488189
21
-2708.708661
31
0
0
LINE
8
1
10
1654.574803
20
-2731.267717
30
0
11
1954.850394
21
-2731.267717
31
0
0
LINE
8
1
10
1654.574803
20
-2731.267717
30
0
11
1654.574803
21
-2736.267717
31
0
0
LINE
8
1
10
1954.850394
20
-2731.267717
30
0
11
1954.850394
21
-2736.267717
31
0
0
LINE
8
1
10
1654.574803
20
-2736.267717
30
0
11
1954.850394
21
-2736.267717
31
0
0
LINE
8
1
10
2097.488189
20
-2310.007874
30
0
11
2496.188976
21
-2310.007874
31
0
0
LINE
8
1
10
2097.488189
20
-2310.007874
30
0
11
2097.488189
21
-2708.708661
31
0
0
LINE
8
1
10
2496.188976
20
-2310.007874
30
0
11
2496.188976
21
-2708.708661
31
0
0
LINE
8
1
10
2097.488189
20
-2708.708661
30
0
11
2496.188976
21
-2708.708661
31
0
0
LINE
8
1
10
2097.488189
20
-538.354331
30
0
11
2496.188976
21
-538.354331
31
0
0
LINE
8
1
10
2097.488189
20
-538.354331
30
0
11
2097.488189
21
-937.055118
31
0
0
LINE
8
1
10
2496.188976
20
-538.354331
30
0
11
2496.188976
21
-937.055118
31
0
0
LINE
8
1
10
2097.488189
20
-937.055118
30
0
11
2496.188976
21
-937.055118
31
0
0
LINE
8
1
10
1113.236220
20
-2310.007874
30
0
11
1511.937008
21
-2310.007874
31
0
0
LINE
8
1
10
1113.236220
20
-2310.007874
30
0
11
1113.236220
21
-2708.708661
31
0
0
LINE
8
1
10
1511.937008
20
-2310.007874
30
0
11
1511.937008
21
-2708.708661
31
0
0
LINE
8
1
10
1113.236220
20
-2708.708661
30
0
11
1511.937008
21
-2708.708661
31
0
0
LINE
8
1
10
1113.236220
20
-538.354331
30
0
11
1511.937008
21
-538.354331
31
0
0
LINE
8
1
10
1113.236220
20
-538.354331
30
0
11
1113.236220
21
-937.055118
31
0
0
LINE
8
1
10
1511.937008
20
-538.354331
30
0
11
1511.937008
21
-937.055118
31
0
0
LINE
8
1
10
1113.236220
20
-937.055118
30
0
11
1511.937008
21
-937.055118
31
0
0
LINE
8
1
10
2408.019685
20
-2451.248031
30
0
11
2437.625984
21
-2451.248031
31
0
0
LINE
8
1
10
2408.019685
20
-2451.248031
30
0
11
2408.019685
21
-2480.854331
31
0
0
LINE
8
1
10
2437.625984
20
-2451.248031
30
0
11
2437.625984
21
-2480.854331
31
0
0
LINE
8
1
10
2408.019685
20
-2480.854331
30
0
11
2437.625984
21
-2480.854331
31
0
0
LINE
8
1
10
469.094488
20
-1593.110236
30
0
11
521.062992
21
-1593.110236
31
0
0
LINE
8
1
10
469.094488
20
-1593.110236
30
0
11
469.094488
21
-1597.834646
31
0
0
LINE
8
1
10
521.062992
20
-1593.110236
30
0
11
521.062992
21
-1597.834646
31
0
0
LINE
8
1
10
469.094488
20
-1597.834646
30
0
11
521.062992
21
-1597.834646
31
0
0
LINE
8
1
10
142.322835
20
-1415.944882
30
0
11
194.291339
21
-1415.944882
31
0
0
LINE
8
1
10
142.322835
20
-1415.944882
30
0
11
142.322835
21
-1420.669291
31
0
0
LINE
8
1
10
194.291339
20
-1415.944882
30
0
11
194.291339
21
-1420.669291
31
0
0
LINE
8
1
10
142.322835
20
-1420.669291
30
0
11
194.291339
21
-1420.669291
31
0
0
LINE
8
1
10
154.133858
20
-1427.755906
30
0
11
206.102362
21
-1427.755906
31
0
0
LINE
8
1
10
154.133858
20
-1427.755906
30
0
11
154.133858
21
-1432.480315
31
0
0
LINE
8
1
10
206.102362
20
-1427.755906
30
0
11
206.102362
21
-1432.480315
31
0
0
LINE
8
1
10
154.133858
20
-1432.480315
30
0
11
206.102362
21
-1432.480315
31
0
0
LINE
8
1
10
516.338583
20
-1427.755906
30
0
11
521.062992
21
-1427.755906
31
0
0
LINE
8
1
10
516.338583
20
-1427.755906
30
0
11
516.338583
21
-1597.834646
31
0
0
LINE
8
1
10
521.062992
20
-1427.755906
30
0
11
521.062992
21
-1597.834646
31
0
0
LINE
8
1
10
516.338583
20
-1597.834646
30
0
11
521.062992
21
-1597.834646
31
0
0
LINE
8
1
10
154.133858
20
-1593.110236
30
0
11
206.102362
21
-1593.110236
31
0
0
LINE
8
1
10
154.133858
20
-1593.110236
30
0
11
154.133858
21
-1597.834646
31
0
0
LINE
8
1
10
206.102362
20
-1593.110236
30
0
11
206.102362
21
-1597.834646
31
0
0
LINE
8
1
10
154.133858
20
-1597.834646
30
0
11
206.102362
21
-1597.834646
31
0
0
LINE
8
1
10
154.133858
20
-1427.755906
30
0
11
158.858268
21
-1427.755906
31
0
0
LINE
8
1
10
154.133858
20
-1427.755906
30
0
11
154.133858
21
-1597.834646
31
0
0
LINE
8
1
10
158.858268
20
-1427.755906
30
0
11
158.858268
21
-1597.834646
31
0
0
LINE
8
1
10
154.133858
20
-1597.834646
30
0
11
158.858268
21
-1597.834646
31
0
0
LINE
8
1
10
142.322835
20
-1415.944882
30
0
11
147.047244
21
-1415.944882
31
0
0
LINE
8
1
10
142.322835
20
-1415.944882
30
0
11
142.322835
21
-1467.913386
31
0
0
LINE
8
1
10
147.047244
20
-1415.944882
30
0
11
147.047244
21
-1467.913386
31
0
0
LINE
8
1
10
142.322835
20
-1467.913386
30
0
11
147.047244
21
-1467.913386
31
0
0
LINE
8
1
10
469.094488
20
-1427.755906
30
0
11
521.062992
21
-1427.755906
31
0
0
LINE
8
1
10
469.094488
20
-1427.755906
30
0
11
469.094488
21
-1432.480315
31
0
0
LINE
8
1
10
521.062992
20
-1427.755906
30
0
11
521.062992
21
-1432.480315
31
0
0
LINE
8
1
10
469.094488
20
-1432.480315
30
0
11
521.062992
21
-1432.480315
31
0
0
LINE
8
1
10
762.007874
20
-1716.338583
30
0
11
831.692913
21
-1716.338583
31
0
0
LINE
8
1
10
762.007874
20
-1716.338583
30
0
11
762.007874
21
-1721.062992
31
0
0
LINE
8
1
10
831.692913
20
-1716.338583
30
0
11
831.692913
21
-1721.062992
31
0
0
LINE
8
1
10
762.007874
20
-1721.062992
30
0
11
831.692913
21
-1721.062992
31
0
0
LINE
8
1
10
970.669291
20
-1311.614173
30
0
11
975.393701
21
-1311.614173
31
0
0
LINE
8
1
10
970.669291
20
-1311.614173
30
0
11
970.669291
21
-1721.062992
31
0
0
LINE
8
1
10
975.393701
20
-1311.614173
30
0
11
975.393701
21
-1721.062992
31
0
0
LINE
8
1
10
970.669291
20
-1721.062992
30
0
11
975.393701
21
-1721.062992
31
0
0
LINE
8
1
10
905.708661
20
-1716.338583
30
0
11
975.393701
21
-1716.338583
31
0
0
LINE
8
1
10
905.708661
20
-1716.338583
30
0
11
905.708661
21
-1721.062992
31
0
0
LINE
8
1
10
975.393701
20
-1716.338583
30
0
11
975.393701
21
-1721.062992
31
0
0
LINE
8
1
10
905.708661
20
-1721.062992
30
0
11
975.393701
21
-1721.062992
31
0
0
LINE
8
1
10
762.007874
20
-1311.614173
30
0
11
766.732283
21
-1311.614173
31
0
0
LINE
8
1
10
762.007874
20
-1311.614173
30
0
11
762.007874
21
-1721.062992
31
0
0
LINE
8
1
10
766.732283
20
-1311.614173
30
0
11
766.732283
21
-1721.062992
31
0
0
LINE
8
1
10
762.007874
20
-1721.062992
30
0
11
766.732283
21
-1721.062992
31
0
0
LINE
8
1
10
762.007874
20
-1311.614173
30
0
11
975.393701
21
-1311.614173
31
0
0
LINE
8
1
10
762.007874
20
-1311.614173
30
0
11
762.007874
21
-1316.338583
31
0
0
LINE
8
1
10
975.393701
20
-1311.614173
30
0
11
975.393701
21
-1316.338583
31
0
0
LINE
8
1
10
762.007874
20
-1316.338583
30
0
11
975.393701
21
-1316.338583
31
0
0
LINE
8
1
10
826.968504
20
-1676.968504
30
0
11
910.433071
21
-1676.968504
31
0
0
LINE
8
1
10
826.968504
20
-1676.968504
30
0
11
826.968504
21
-1721.062992
31
0
0
LINE
8
1
10
910.433071
20
-1676.968504
30
0
11
910.433071
21
-1721.062992
31
0
0
LINE
8
1
10
826.968504
20
-1721.062992
30
0
11
910.433071
21
-1721.062992
31
0
0
LINE
8
1
10
904.921260
20
-782.874016
30
0
11
909.645669
21
-782.874016
31
0
0
LINE
8
1
10
904.921260
20
-782.874016
30
0
11
904.921260
21
-1045.078740
31
0
0
LINE
8
1
10
909.645669
20
-782.874016
30
0
11
909.645669
21
-1045.078740
31
0
0
LINE
8
1
10
904.921260
20
-1045.078740
30
0
11
909.645669
21
-1045.078740
31
0
0
LINE
8
1
10
891.929134
20
-782.874016
30
0
11
909.645669
21
-782.874016
31
0
0
LINE
8
1
10
891.929134
20
-782.874016
30
0
11
891.929134
21
-787.598425
31
0
0
LINE
8
1
10
909.645669
20
-782.874016
30
0
11
909.645669
21
-787.598425
31
0
0
LINE
8
1
10
891.929134
20
-787.598425
30
0
11
909.645669
21
-787.598425
31
0
0
LINE
8
1
10
797.047244
20
-782.874016
30
0
11
801.771654
21
-782.874016
31
0
0
LINE
8
1
10
797.047244
20
-782.874016
30
0
11
797.047244
21
-1045.078740
31
0
0
LINE
8
1
10
801.771654
20
-782.874016
30
0
11
801.771654
21
-1045.078740
31
0
0
LINE
8
1
10
797.047244
20
-1045.078740
30
0
11
801.771654
21
-1045.078740
31
0
0
LINE
8
1
10
797.047244
20
-1040.354331
30
0
11
814.763780
21
-1040.354331
31
0
0
LINE
8
1
10
797.047244
20
-1040.354331
30
0
11
797.047244
21
-1045.078740
31
0
0
LINE
8
1
10
814.763780
20
-1040.354331
30
0
11
814.763780
21
-1045.078740
31
0
0
LINE
8
1
10
797.047244
20
-1045.078740
30
0
11
814.763780
21
-1045.078740
31
0
0
LINE
8
1
10
891.929134
20
-1040.354331
30
0
11
909.645669
21
-1040.354331
31
0
0
LINE
8
1
10
891.929134
20
-1040.354331
30
0
11
891.929134
21
-1045.078740
31
0
0
LINE
8
1
10
909.645669
20
-1040.354331
30
0
11
909.645669
21
-1045.078740
31
0
0
LINE
8
1
10
891.929134
20
-1045.078740
30
0
11
909.645669
21
-1045.078740
31
0
0
LINE
8
1
10
797.047244
20
-782.874016
30
0
11
814.763780
21
-782.874016
31
0
0
LINE
8
1
10
797.047244
20
-782.874016
30
0
11
797.047244
21
-787.598425
31
0
0
LINE
8
1
10
814.763780
20
-782.874016
30
0
11
814.763780
21
-787.598425
31
0
0
LINE
8
1
10
797.047244
20
-787.598425
30
0
11
814.763780
21
-787.598425
31
0
0
LINE
8
1
10
15.157480
20
-2408.267717
30
0
11
726.968504
21
-2408.267717
31
0
0
LINE
8
1
10
15.157480
20
-2408.267717
30
0
11
15.157480
21
-2412.992126
31
0
0
LINE
8
1
10
726.968504
20
-2408.267717
30
0
11
726.968504
21
-2412.992126
31
0
0
LINE
8
1
10
15.157480
20
-2412.992126
30
0
11
726.968504
21
-2412.992126
31
0
0
LINE
8
1
10
549.803150
20
-1770.275591
30
0
11
593.897638
21
-1770.275591
31
0
0
LINE
8
1
10
549.803150
20
-1770.275591
30
0
11
549.803150
21
-1775.000000
31
0
0
LINE
8
1
10
593.897638
20
-1770.275591
30
0
11
593.897638
21
-1775.000000
31
0
0
LINE
8
1
10
549.803150
20
-1775.000000
30
0
11
593.897638
21
-1775.000000
31
0
0
LINE
8
1
10
15.157480
20
-1797.244094
30
0
11
19.881890
21
-1797.244094
31
0
0
LINE
8
1
10
15.157480
20
-1797.244094
30
0
11
15.157480
21
-2412.992126
31
0
0
LINE
8
1
10
19.881890
20
-1797.244094
30
0
11
19.881890
21
-2412.992126
31
0
0
LINE
8
1
10
15.157480
20
-2412.992126
30
0
11
19.881890
21
-2412.992126
31
0
0
LINE
8
1
10
569.488189
20
-1770.275591
30
0
11
593.897638
21
-1770.275591
31
0
0
LINE
8
1
10
569.488189
20
-1770.275591
30
0
11
569.488189
21
-1794.685039
31
0
0
LINE
8
1
10
593.897638
20
-1770.275591
30
0
11
593.897638
21
-1794.685039
31
0
0
LINE
8
1
10
569.488189
20
-1794.685039
30
0
11
593.897638
21
-1794.685039
31
0
0
LINE
8
1
10
722.244094
20
-1797.244094
30
0
11
726.968504
21
-1797.244094
31
0
0
LINE
8
1
10
722.244094
20
-1797.244094
30
0
11
722.244094
21
-2412.992126
31
0
0
LINE
8
1
10
726.968504
20
-1797.244094
30
0
11
726.968504
21
-2412.992126
31
0
0
LINE
8
1
10
722.244094
20
-2412.992126
30
0
11
726.968504
21
-2412.992126
31
0
0
LINE
8
1
10
549.803150
20
-1770.275591
30
0
11
574.212598
21
-1770.275591
31
0
0
LINE
8
1
10
549.803150
20
-1770.275591
30
0
11
549.803150
21
-1794.685039
31
0
0
LINE
8
1
10
574.212598
20
-1770.275591
30
0
11
574.212598
21
-1794.685039
31
0
0
LINE
8
1
10
549.803150
20
-1794.685039
30
0
11
574.212598
21
-1794.685039
31
0
0
LINE
8
1
10
15.157480
20
-1797.244094
30
0
11
726.968504
21
-1797.244094
31
0
0
LINE
8
1
10
15.157480
20
-1797.244094
30
0
11
15.157480
21
-1801.968504
31
0
0
LINE
8
1
10
726.968504
20
-1797.244094
30
0
11
726.968504
21
-1801.968504
31
0
0
LINE
8
1
10
15.157480
20
-1801.968504
30
0
11
726.968504
21
-1801.968504
31
0
0
LINE
8
1
10
231.692913
20
-1368.307087
30
0
11
236.417323
21
-1368.307087
31
0
0
LINE
8
1
10
231.692913
20
-1368.307087
30
0
11
231.692913
21
-1386.023622
31
0
0
LINE
8
1
10
236.417323
20
-1368.307087
30
0
11
236.417323
21
-1386.023622
31
0
0
LINE
8
1
10
231.692913
20
-1386.023622
30
0
11
236.417323
21
-1386.023622
31
0
0
LINE
8
1
10
489.173228
20
-1368.307087
30
0
11
493.897638
21
-1368.307087
31
0
0
LINE
8
1
10
489.173228
20
-1368.307087
30
0
11
489.173228
21
-1386.023622
31
0
0
LINE
8
1
10
493.897638
20
-1368.307087
30
0
11
493.897638
21
-1386.023622
31
0
0
LINE
8
1
10
489.173228
20
-1386.023622
30
0
11
493.897638
21
-1386.023622
31
0
0
LINE
8
1
10
231.692913
20
-1273.425197
30
0
11
493.897638
21
-1273.425197
31
0
0
LINE
8
1
10
231.692913
20
-1273.425197
30
0
11
231.692913
21
-1278.149606
31
0
0
LINE
8
1
10
493.897638
20
-1273.425197
30
0
11
493.897638
21
-1278.149606
31
0
0
LINE
8
1
10
231.692913
20
-1278.149606
30
0
11
493.897638
21
-1278.149606
31
0
0
LINE
8
1
10
231.692913
20
-1273.425197
30
0
11
236.417323
21
-1273.425197
31
0
0
LINE
8
1
10
231.692913
20
-1273.425197
30
0
11
231.692913
21
-1291.141732
31
0
0
LINE
8
1
10
236.417323
20
-1273.425197
30
0
11
236.417323
21
-1291.141732
31
0
0
LINE
8
1
10
231.692913
20
-1291.141732
30
0
11
236.417323
21
-1291.141732
31
0
0
LINE
8
1
10
489.173228
20
-1273.425197
30
0
11
493.897638
21
-1273.425197
31
0
0
LINE
8
1
10
489.173228
20
-1273.425197
30
0
11
489.173228
21
-1291.141732
31
0
0
LINE
8
1
10
493.897638
20
-1273.425197
30
0
11
493.897638
21
-1291.141732
31
0
0
LINE
8
1
10
489.173228
20
-1291.141732
30
0
11
493.897638
21
-1291.141732
31
0
0
LINE
8
1
10
231.692913
20
-1381.299213
30
0
11
493.897638
21
-1381.299213
31
0
0
LINE
8
1
10
231.692913
20
-1381.299213
30
0
11
231.692913
21
-1386.023622
31
0
0
LINE
8
1
10
493.897638
20
-1381.299213
30
0
11
493.897638
21
-1386.023622
31
0
0
LINE
8
1
10
231.692913
20
-1386.023622
30
0
11
493.897638
21
-1386.023622
31
0
0
LINE
8
1
10
978.149606
20
-1785.236220
30
0
11
982.874016
21
-1785.236220
31
0
0
LINE
8
1
10
978.149606
20
-1785.236220
30
0
11
978.149606
21
-2075.000000
31
0
0
LINE
8
1
10
982.874016
20
-1785.236220
30
0
11
982.874016
21
-2075.000000
31
0
0
LINE
8
1
10
978.149606
20
-2075.000000
30
0
11
982.874016
21
-2075.000000
31
0
0
LINE
8
1
10
978.149606
20
-2070.275591
30
0
11
1071.062992
21
-2070.275591
31
0
0
LINE
8
1
10
978.149606
20
-2070.275591
30
0
11
978.149606
21
-2075.000000
31
0
0
LINE
8
1
10
1071.062992
20
-2070.275591
30
0
11
1071.062992
21
-2075.000000
31
0
0
LINE
8
1
10
978.149606
20
-2075.000000
30
0
11
1071.062992
21
-2075.000000
31
0
0
LINE
8
1
10
1066.338583
20
-1785.236220
30
0
11
1071.062992
21
-1785.236220
31
0
0
LINE
8
1
10
1066.338583
20
-1785.236220
30
0
11
1066.338583
21
-2075.000000
31
0
0
LINE
8
1
10
1071.062992
20
-1785.236220
30
0
11
1071.062992
21
-2075.000000
31
0
0
LINE
8
1
10
1066.338583
20
-2075.000000
30
0
11
1071.062992
21
-2075.000000
31
0
0
LINE
8
1
10
978.149606
20
-1785.236220
30
0
11
1071.062992
21
-1785.236220
31
0
0
LINE
8
1
10
978.149606
20
-1785.236220
30
0
11
978.149606
21
-1789.960630
31
0
0
LINE
8
1
10
1071.062992
20
-1785.236220
30
0
11
1071.062992
21
-1789.960630
31
0
0
LINE
8
1
10
978.149606
20
-1789.960630
30
0
11
1071.062992
21
-1789.960630
31
0
0
LINE
8
1
10
2489.763780
20
-2482.874016
30
0
11
2494.488189
21
-2482.874016
31
0
0
LINE
8
1
10
2489.763780
20
-2482.874016
30
0
11
2489.763780
21
-2649.015748
31
0
0
LINE
8
1
10
2494.488189
20
-2482.874016
30
0
11
2494.488189
21
-2649.015748
31
0
0
LINE
8
1
10
2489.763780
20
-2649.015748
30
0
11
2494.488189
21
-2649.015748
31
0
0
LINE
8
1
10
2489.763780
20
-2482.874016
30
0
11
2833.070866
21
-2482.874016
31
0
0
LINE
8
1
10
2489.763780
20
-2482.874016
30
0
11
2489.763780
21
-2487.598425
31
0
0
LINE
8
1
10
2833.070866
20
-2482.874016
30
0
11
2833.070866
21
-2487.598425
31
0
0
LINE
8
1
10
2489.763780
20
-2487.598425
30
0
11
2833.070866
21
-2487.598425
31
0
0
LINE
8
1
10
2489.763780
20
-2644.291339
30
0
11
2833.070866
21
-2644.291339
31
0
0
LINE
8
1
10
2489.763780
20
-2644.291339
30
0
11
2489.763780
21
-2649.015748
31
0
0
LINE
8
1
10
2833.070866
20
-2644.291339
30
0
11
2833.070866
21
-2649.015748
31
0
0
LINE
8
1
10
2489.763780
20
-2649.015748
30
0
11
2833.070866
21
-2649.015748
31
0
0
LINE
8
1
10
2828.346457
20
-2482.874016
30
0
11
2833.070866
21
-2482.874016
31
0
0
LINE
8
1
10
2828.346457
20
-2482.874016
30
0
11
2828.346457
21
-2649.015748
31
0
0
LINE
8
1
10
2833.070866
20
-2482.874016
30
0
11
2833.070866
21
-2649.015748
31
0
0
LINE
8
1
10
2828.346457
20
-2649.015748
30
0
11
2833.070866
21
-2649.015748
31
0
0
LINE
8
1
10
2519.488189
20
-2367.913386
30
0
11
2524.212598
21
-2367.913386
31
0
0
LINE
8
1
10
2519.488189
20
-2367.913386
30
0
11
2519.488189
21
-2460.826772
31
0
0
LINE
8
1
10
2524.212598
20
-2367.913386
30
0
11
2524.212598
21
-2460.826772
31
0
0
LINE
8
1
10
2519.488189
20
-2460.826772
30
0
11
2524.212598
21
-2460.826772
31
0
0
LINE
8
1
10
2804.527559
20
-2367.913386
30
0
11
2809.251969
21
-2367.913386
31
0
0
LINE
8
1
10
2804.527559
20
-2367.913386
30
0
11
2804.527559
21
-2460.826772
31
0
0
LINE
8
1
10
2809.251969
20
-2367.913386
30
0
11
2809.251969
21
-2460.826772
31
0
0
LINE
8
1
10
2804.527559
20
-2460.826772
30
0
11
2809.251969
21
-2460.826772
31
0
0
LINE
8
1
10
2519.488189
20
-2456.102362
30
0
11
2809.251969
21
-2456.102362
31
0
0
LINE
8
1
10
2519.488189
20
-2456.102362
30
0
11
2519.488189
21
-2460.826772
31
0
0
LINE
8
1
10
2809.251969
20
-2456.102362
30
0
11
2809.251969
21
-2460.826772
31
0
0
LINE
8
1
10
2519.488189
20
-2460.826772
30
0
11
2809.251969
21
-2460.826772
31
0
0
LINE
8
1
10
2519.488189
20
-2367.913386
30
0
11
2809.251969
21
-2367.913386
31
0
0
LINE
8
1
10
2519.488189
20
-2367.913386
30
0
11
2519.488189
21
-2372.637795
31
0
0
LINE
8
1
10
2809.251969
20
-2367.913386
30
0
11
2809.251969
21
-2372.637795
31
0
0
LINE
8
1
10
2519.488189
20
-2372.637795
30
0
11
2809.251969
21
-2372.637795
31
0
0
LINE
8
1
10
2603.740157
20
-2667.125984
30
0
11
2608.464567
21
-2667.125984
31
0
0
LINE
8
1
10
2603.740157
20
-2667.125984
30
0
11
2603.740157
21
-2760.039370
31
0
0
LINE
8
1
10
2608.464567
20
-2667.125984
30
0
11
2608.464567
21
-2760.039370
31
0
0
LINE
8
1
10
2603.740157
20
-2760.039370
30
0
11
2608.464567
21
-2760.039370
31
0
0
LINE
8
1
10
2318.700787
20
-2667.125984
30
0
11
2608.464567
21
-2667.125984
31
0
0
LINE
8
1
10
2318.700787
20
-2667.125984
30
0
11
2318.700787
21
-2671.850394
31
0
0
LINE
8
1
10
2608.464567
20
-2667.125984
30
0
11
2608.464567
21
-2671.850394
31
0
0
LINE
8
1
10
2318.700787
20
-2671.850394
30
0
11
2608.464567
21
-2671.850394
31
0
0
LINE
8
1
10
2318.700787
20
-2755.314961
30
0
11
2608.464567
21
-2755.314961
31
0
0
LINE
8
1
10
2318.700787
20
-2755.314961
30
0
11
2318.700787
21
-2760.039370
31
0
0
LINE
8
1
10
2608.464567
20
-2755.314961
30
0
11
2608.464567
21
-2760.039370
31
0
0
LINE
8
1
10
2318.700787
20
-2760.039370
30
0
11
2608.464567
21
-2760.039370
31
0
0
LINE
8
1
10
2318.700787
20
-2667.125984
30
0
11
2323.425197
21
-2667.125984
31
0
0
LINE
8
1
10
2318.700787
20
-2667.125984
30
0
11
2318.700787
21
-2760.039370
31
0
0
LINE
8
1
10
2323.425197
20
-2667.125984
30
0
11
2323.425197
21
-2760.039370
31
0
0
LINE
8
1
10
2318.700787
20
-2760.039370
30
0
11
2323.425197
21
-2760.039370
31
0
0
LINE
8
1
10
3134.448819
20
-2109.842520
30
0
11
3139.173228
21
-2109.842520
31
0
0
LINE
8
1
10
3134.448819
20
-2109.842520
30
0
11
3134.448819
21
-2642.125984
31
0
0
LINE
8
1
10
3139.173228
20
-2109.842520
30
0
11
3139.173228
21
-2642.125984
31
0
0
LINE
8
1
10
3134.448819
20
-2642.125984
30
0
11
3139.173228
21
-2642.125984
31
0
0
LINE
8
1
10
2898.228346
20
-2637.401575
30
0
11
3005.314961
21
-2637.401575
31
0
0
LINE
8
1
10
2898.228346
20
-2637.401575
30
0
11
2898.228346
21
-2642.125984
31
0
0
LINE
8
1
10
3005.314961
20
-2637.401575
30
0
11
3005.314961
21
-2642.125984
31
0
0
LINE
8
1
10
2898.228346
20
-2642.125984
30
0
11
3005.314961
21
-2642.125984
31
0
0
LINE
8
1
10
2898.228346
20
-2109.842520
30
0
11
2902.952756
21
-2109.842520
31
0
0
LINE
8
1
10
2898.228346
20
-2109.842520
30
0
11
2898.228346
21
-2309.448819
31
0
0
LINE
8
1
10
2902.952756
20
-2109.842520
30
0
11
2902.952756
21
-2309.448819
31
0
0
LINE
8
1
10
2898.228346
20
-2309.448819
30
0
11
2902.952756
21
-2309.448819
31
0
0
LINE
8
1
10
2898.228346
20
-2442.519685
30
0
11
2902.952756
21
-2442.519685
31
0
0
LINE
8
1
10
2898.228346
20
-2442.519685
30
0
11
2898.228346
21
-2642.125984
31
0
0
LINE
8
1
10
2902.952756
20
-2442.519685
30
0
11
2902.952756
21
-2642.125984
31
0
0
LINE
8
1
10
2898.228346
20
-2642.125984
30
0
11
2902.952756
21
-2642.125984
31
0
0
LINE
8
1
10
2898.228346
20
-2109.842520
30
0
11
3005.314961
21
-2109.842520
31
0
0
LINE
8
1
10
2898.228346
20
-2109.842520
30
0
11
2898.228346
21
-2114.566929
31
0
0
LINE
8
1
10
3005.314961
20
-2109.842520
30
0
11
3005.314961
21
-2114.566929
31
0
0
LINE
8
1
10
2898.228346
20
-2114.566929
30
0
11
3005.314961
21
-2114.566929
31
0
0
LINE
8
1
10
549.803150
20
-589.173228
30
0
11
593.897638
21
-589.173228
31
0
0
LINE
8
1
10
549.803150
20
-589.173228
30
0
11
549.803150
21
-593.897638
31
0
0
LINE
8
1
10
593.897638
20
-589.173228
30
0
11
593.897638
21
-593.897638
31
0
0
LINE
8
1
10
549.803150
20
-593.897638
30
0
11
593.897638
21
-593.897638
31
0
0
LINE
8
1
10
569.488189
20
-589.173228
30
0
11
593.897638
21
-589.173228
31
0
0
LINE
8
1
10
569.488189
20
-589.173228
30
0
11
569.488189
21
-613.582677
31
0
0
LINE
8
1
10
593.897638
20
-589.173228
30
0
11
593.897638
21
-613.582677
31
0
0
LINE
8
1
10
569.488189
20
-613.582677
30
0
11
593.897638
21
-613.582677
31
0
0
LINE
8
1
10
15.157480
20
-1227.165354
30
0
11
726.968504
21
-1227.165354
31
0
0
LINE
8
1
10
15.157480
20
-1227.165354
30
0
11
15.157480
21
-1231.889764
31
0
0
LINE
8
1
10
726.968504
20
-1227.165354
30
0
11
726.968504
21
-1231.889764
31
0
0
LINE
8
1
10
15.157480
20
-1231.889764
30
0
11
726.968504
21
-1231.889764
31
0
0
LINE
8
1
10
15.157480
20
-616.141732
30
0
11
19.881890
21
-616.141732
31
0
0
LINE
8
1
10
15.157480
20
-616.141732
30
0
11
15.157480
21
-1231.889764
31
0
0
LINE
8
1
10
19.881890
20
-616.141732
30
0
11
19.881890
21
-1231.889764
31
0
0
LINE
8
1
10
15.157480
20
-1231.889764
30
0
11
19.881890
21
-1231.889764
31
0
0
LINE
8
1
10
722.244094
20
-616.141732
30
0
11
726.968504
21
-616.141732
31
0
0
LINE
8
1
10
722.244094
20
-616.141732
30
0
11
722.244094
21
-1231.889764
31
0
0
LINE
8
1
10
726.968504
20
-616.141732
30
0
11
726.968504
21
-1231.889764
31
0
0
LINE
8
1
10
722.244094
20
-1231.889764
30
0
11
726.968504
21
-1231.889764
31
0
0
LINE
8
1
10
15.157480
20
-616.141732
30
0
11
726.968504
21
-616.141732
31
0
0
LINE
8
1
10
15.157480
20
-616.141732
30
0
11
15.157480
21
-620.866142
31
0
0
LINE
8
1
10
726.968504
20
-616.141732
30
0
11
726.968504
21
-620.866142
31
0
0
LINE
8
1
10
15.157480
20
-620.866142
30
0
11
726.968504
21
-620.866142
31
0
0
LINE
8
1
10
549.803150
20
-589.173228
30
0
11
574.212598
21
-589.173228
31
0
0
LINE
8
1
10
549.803150
20
-589.173228
30
0
11
549.803150
21
-613.582677
31
0
0
LINE
8
1
10
574.212598
20
-589.173228
30
0
11
574.212598
21
-613.582677
31
0
0
LINE
8
1
10
549.803150
20
-613.582677
30
0
11
574.212598
21
-613.582677
31
0
0
LINE
8
1
10
577.362205
20
-356.889764
30
0
11
582.086614
21
-356.889764
31
0
0
LINE
8
1
10
577.362205
20
-356.889764
30
0
11
577.362205
21
-526.968504
31
0
0
LINE
8
1
10
582.086614
20
-356.889764
30
0
11
582.086614
21
-526.968504
31
0
0
LINE
8
1
10
577.362205
20
-526.968504
30
0
11
582.086614
21
-526.968504
31
0
0
LINE
8
1
10
215.157480
20
-356.889764
30
0
11
219.881890
21
-356.889764
31
0
0
LINE
8
1
10
215.157480
20
-356.889764
30
0
11
215.157480
21
-526.968504
31
0
0
LINE
8
1
10
219.881890
20
-356.889764
30
0
11
219.881890
21
-526.968504
31
0
0
LINE
8
1
10
215.157480
20
-526.968504
30
0
11
219.881890
21
-526.968504
31
0
0
LINE
8
1
10
530.118110
20
-356.889764
30
0
11
582.086614
21
-356.889764
31
0
0
LINE
8
1
10
530.118110
20
-356.889764
30
0
11
530.118110
21
-361.614173
31
0
0
LINE
8
1
10
582.086614
20
-356.889764
30
0
11
582.086614
21
-361.614173
31
0
0
LINE
8
1
10
530.118110
20
-361.614173
30
0
11
582.086614
21
-361.614173
31
0
0
LINE
8
1
10
215.157480
20
-356.889764
30
0
11
267.125984
21
-356.889764
31
0
0
LINE
8
1
10
215.157480
20
-356.889764
30
0
11
215.157480
21
-361.614173
31
0
0
LINE
8
1
10
267.125984
20
-356.889764
30
0
11
267.125984
21
-361.614173
31
0
0
LINE
8
1
10
215.157480
20
-361.614173
30
0
11
267.125984
21
-361.614173
31
0
0
LINE
8
1
10
215.157480
20
-522.244094
30
0
11
267.125984
21
-522.244094
31
0
0
LINE
8
1
10
215.157480
20
-522.244094
30
0
11
215.157480
21
-526.968504
31
0
0
LINE
8
1
10
267.125984
20
-522.244094
30
0
11
267.125984
21
-526.968504
31
0
0
LINE
8
1
10
215.157480
20
-526.968504
30
0
11
267.125984
21
-526.968504
31
0
0
LINE
8
1
10
530.118110
20
-522.244094
30
0
11
582.086614
21
-522.244094
31
0
0
LINE
8
1
10
530.118110
20
-522.244094
30
0
11
530.118110
21
-526.968504
31
0
0
LINE
8
1
10
582.086614
20
-522.244094
30
0
11
582.086614
21
-526.968504
31
0
0
LINE
8
1
10
530.118110
20
-526.968504
30
0
11
582.086614
21
-526.968504
31
0
0
LINE
8
1
10
589.173228
20
-486.811024
30
0
11
593.897638
21
-486.811024
31
0
0
LINE
8
1
10
589.173228
20
-486.811024
30
0
11
589.173228
21
-538.779528
31
0
0
LINE
8
1
10
593.897638
20
-486.811024
30
0
11
593.897638
21
-538.779528
31
0
0
LINE
8
1
10
589.173228
20
-538.779528
30
0
11
593.897638
21
-538.779528
31
0
0
LINE
8
1
10
541.929134
20
-534.055118
30
0
11
593.897638
21
-534.055118
31
0
0
LINE
8
1
10
541.929134
20
-534.055118
30
0
11
541.929134
21
-538.779528
31
0
0
LINE
8
1
10
593.897638
20
-534.055118
30
0
11
593.897638
21
-538.779528
31
0
0
LINE
8
1
10
541.929134
20
-538.779528
30
0
11
593.897638
21
-538.779528
31
0
0
LINE
8
1
10
1783.661417
20
-1178.543307
30
0
11
2045.866142
21
-1178.543307
31
0
0
LINE
8
1
10
1783.661417
20
-1178.543307
30
0
11
1783.661417
21
-1183.267717
31
0
0
LINE
8
1
10
2045.866142
20
-1178.543307
30
0
11
2045.866142
21
-1183.267717
31
0
0
LINE
8
1
10
1783.661417
20
-1183.267717
30
0
11
2045.866142
21
-1183.267717
31
0
0
LINE
8
1
10
1783.661417
20
-1070.669291
30
0
11
1788.385827
21
-1070.669291
31
0
0
LINE
8
1
10
1783.661417
20
-1070.669291
30
0
11
1783.661417
21
-1088.385827
31
0
0
LINE
8
1
10
1788.385827
20
-1070.669291
30
0
11
1788.385827
21
-1088.385827
31
0
0
LINE
8
1
10
1783.661417
20
-1088.385827
30
0
11
1788.385827
21
-1088.385827
31
0
0
LINE
8
1
10
1783.661417
20
-1070.669291
30
0
11
2045.866142
21
-1070.669291
31
0
0
LINE
8
1
10
1783.661417
20
-1070.669291
30
0
11
1783.661417
21
-1075.393701
31
0
0
LINE
8
1
10
2045.866142
20
-1070.669291
30
0
11
2045.866142
21
-1075.393701
31
0
0
LINE
8
1
10
1783.661417
20
-1075.393701
30
0
11
2045.866142
21
-1075.393701
31
0
0
LINE
8
1
10
2041.141732
20
-1165.551181
30
0
11
2045.866142
21
-1165.551181
31
0
0
LINE
8
1
10
2041.141732
20
-1165.551181
30
0
11
2041.141732
21
-1183.267717
31
0
0
LINE
8
1
10
2045.866142
20
-1165.551181
30
0
11
2045.866142
21
-1183.267717
31
0
0
LINE
8
1
10
2041.141732
20
-1183.267717
30
0
11
2045.866142
21
-1183.267717
31
0
0
LINE
8
1
10
1783.661417
20
-1165.551181
30
0
11
1788.385827
21
-1165.551181
31
0
0
LINE
8
1
10
1783.661417
20
-1165.551181
30
0
11
1783.661417
21
-1183.267717
31
0
0
LINE
8
1
10
1788.385827
20
-1165.551181
30
0
11
1788.385827
21
-1183.267717
31
0
0
LINE
8
1
10
1783.661417
20
-1183.267717
30
0
11
1788.385827
21
-1183.267717
31
0
0
LINE
8
1
10
2041.141732
20
-1070.669291
30
0
11
2045.866142
21
-1070.669291
31
0
0
LINE
8
1
10
2041.141732
20
-1070.669291
30
0
11
2041.141732
21
-1088.385827
31
0
0
LINE
8
1
10
2045.866142
20
-1070.669291
30
0
11
2045.866142
21
-1088.385827
31
0
0
LINE
8
1
10
2041.141732
20
-1088.385827
30
0
11
2045.866142
21
-1088.385827
31
0
0
LINE
8
1
10
1783.661417
20
-1298.622047
30
0
11
2045.866142
21
-1298.622047
31
0
0
LINE
8
1
10
1783.661417
20
-1298.622047
30
0
11
1783.661417
21
-1303.346457
31
0
0
LINE
8
1
10
2045.866142
20
-1298.622047
30
0
11
2045.866142
21
-1303.346457
31
0
0
LINE
8
1
10
1783.661417
20
-1303.346457
30
0
11
2045.866142
21
-1303.346457
31
0
0
LINE
8
1
10
1783.661417
20
-1190.748031
30
0
11
2045.866142
21
-1190.748031
31
0
0
LINE
8
1
10
1783.661417
20
-1190.748031
30
0
11
1783.661417
21
-1195.472441
31
0
0
LINE
8
1
10
2045.866142
20
-1190.748031
30
0
11
2045.866142
21
-1195.472441
31
0
0
LINE
8
1
10
1783.661417
20
-1195.472441
30
0
11
2045.866142
21
-1195.472441
31
0
0
LINE
8
1
10
2041.141732
20
-1190.748031
30
0
11
2045.866142
21
-1190.748031
31
0
0
LINE
8
1
10
2041.141732
20
-1190.748031
30
0
11
2041.141732
21
-1208.464567
31
0
0
LINE
8
1
10
2045.866142
20
-1190.748031
30
0
11
2045.866142
21
-1208.464567
31
0
0
LINE
8
1
10
2041.141732
20
-1208.464567
30
0
11
2045.866142
21
-1208.464567
31
0
0
LINE
8
1
10
1783.661417
20
-1190.748031
30
0
11
1788.385827
21
-1190.748031
31
0
0
LINE
8
1
10
1783.661417
20
-1190.748031
30
0
11
1783.661417
21
-1208.464567
31
0
0
LINE
8
1
10
1788.385827
20
-1190.748031
30
0
11
1788.385827
21
-1208.464567
31
0
0
LINE
8
1
10
1783.661417
20
-1208.464567
30
0
11
1788.385827
21
-1208.464567
31
0
0
LINE
8
1
10
1783.661417
20
-1285.629921
30
0
11
1788.385827
21
-1285.629921
31
0
0
LINE
8
1
10
1783.661417
20
-1285.629921
30
0
11
1783.661417
21
-1303.346457
31
0
0
LINE
8
1
10
1788.385827
20
-1285.629921
30
0
11
1788.385827
21
-1303.346457
31
0
0
LINE
8
1
10
1783.661417
20
-1303.346457
30
0
11
1788.385827
21
-1303.346457
31
0
0
LINE
8
1
10
2041.141732
20
-1285.629921
30
0
11
2045.866142
21
-1285.629921
31
0
0
LINE
8
1
10
2041.141732
20
-1285.629921
30
0
11
2041.141732
21
-1303.346457
31
0
0
LINE
8
1
10
2045.866142
20
-1285.629921
30
0
11
2045.866142
21
-1303.346457
31
0
0
LINE
8
1
10
2041.141732
20
-1303.346457
30
0
11
2045.866142
21
-1303.346457
31
0
0
LINE
8
1
10
1724.212598
20
-629.330709
30
0
11
2013.976378
21
-629.330709
31
0
0
LINE
8
1
10
1724.212598
20
-629.330709
30
0
11
1724.212598
21
-634.055118
31
0
0
LINE
8
1
10
2013.976378
20
-629.330709
30
0
11
2013.976378
21
-634.055118
31
0
0
LINE
8
1
10
1724.212598
20
-634.055118
30
0
11
2013.976378
21
-634.055118
31
0
0
LINE
8
1
10
1724.212598
20
-541.141732
30
0
11
2013.976378
21
-541.141732
31
0
0
LINE
8
1
10
1724.212598
20
-541.141732
30
0
11
1724.212598
21
-545.866142
31
0
0
LINE
8
1
10
2013.976378
20
-541.141732
30
0
11
2013.976378
21
-545.866142
31
0
0
LINE
8
1
10
1724.212598
20
-545.866142
30
0
11
2013.976378
21
-545.866142
31
0
0
LINE
8
1
10
2009.251969
20
-541.141732
30
0
11
2013.976378
21
-541.141732
31
0
0
LINE
8
1
10
2009.251969
20
-541.141732
30
0
11
2009.251969
21
-634.055118
31
0
0
LINE
8
1
10
2013.976378
20
-541.141732
30
0
11
2013.976378
21
-634.055118
31
0
0
LINE
8
1
10
2009.251969
20
-634.055118
30
0
11
2013.976378
21
-634.055118
31
0
0
LINE
8
1
10
1724.212598
20
-541.141732
30
0
11
1728.937008
21
-541.141732
31
0
0
LINE
8
1
10
1724.212598
20
-541.141732
30
0
11
1724.212598
21
-634.055118
31
0
0
LINE
8
1
10
1728.937008
20
-541.141732
30
0
11
1728.937008
21
-634.055118
31
0
0
LINE
8
1
10
1724.212598
20
-634.055118
30
0
11
1728.937008
21
-634.055118
31
0
0
LINE
8
1
10
2016.732283
20
-647.047244
30
0
11
2021.456693
21
-647.047244
31
0
0
LINE
8
1
10
2016.732283
20
-647.047244
30
0
11
2016.732283
21
-1056.496063
31
0
0
LINE
8
1
10
2021.456693
20
-647.047244
30
0
11
2021.456693
21
-1056.496063
31
0
0
LINE
8
1
10
2016.732283
20
-1056.496063
30
0
11
2021.456693
21
-1056.496063
31
0
0
LINE
8
1
10
1808.070866
20
-647.047244
30
0
11
1812.795276
21
-647.047244
31
0
0
LINE
8
1
10
1808.070866
20
-647.047244
30
0
11
1808.070866
21
-1056.496063
31
0
0
LINE
8
1
10
1812.795276
20
-647.047244
30
0
11
1812.795276
21
-1056.496063
31
0
0
LINE
8
1
10
1808.070866
20
-1056.496063
30
0
11
1812.795276
21
-1056.496063
31
0
0
LINE
8
1
10
1808.070866
20
-647.047244
30
0
11
1877.755906
21
-647.047244
31
0
0
LINE
8
1
10
1808.070866
20
-647.047244
30
0
11
1808.070866
21
-651.771654
31
0
0
LINE
8
1
10
1877.755906
20
-647.047244
30
0
11
1877.755906
21
-651.771654
31
0
0
LINE
8
1
10
1808.070866
20
-651.771654
30
0
11
1877.755906
21
-651.771654
31
0
0
LINE
8
1
10
1951.771654
20
-647.047244
30
0
11
2021.456693
21
-647.047244
31
0
0
LINE
8
1
10
1951.771654
20
-647.047244
30
0
11
1951.771654
21
-651.771654
31
0
0
LINE
8
1
10
2021.456693
20
-647.047244
30
0
11
2021.456693
21
-651.771654
31
0
0
LINE
8
1
10
1951.771654
20
-651.771654
30
0
11
2021.456693
21
-651.771654
31
0
0
LINE
8
1
10
1808.070866
20
-1051.771654
30
0
11
2021.456693
21
-1051.771654
31
0
0
LINE
8
1
10
1808.070866
20
-1051.771654
30
0
11
1808.070866
21
-1056.496063
31
0
0
LINE
8
1
10
2021.456693
20
-1051.771654
30
0
11
2021.456693
21
-1056.496063
31
0
0
LINE
8
1
10
1808.070866
20
-1056.496063
30
0
11
2021.456693
21
-1056.496063
31
0
0
LINE
8
1
10
1873.031496
20
-647.047244
30
0
11
1956.496063
21
-647.047244
31
0
0
LINE
8
1
10
1873.031496
20
-647.047244
30
0
11
1873.031496
21
-691.141732
31
0
0
LINE
8
1
10
1956.496063
20
-647.047244
30
0
11
1956.496063
21
-691.141732
31
0
0
LINE
8
1
10
1873.031496
20
-691.141732
30
0
11
1956.496063
21
-691.141732
31
0
0
LINE
8
1
10
2679.724409
20
-662.007874
30
0
11
2861.614173
21
-662.007874
31
0
0
LINE
8
1
10
2679.724409
20
-662.007874
30
0
11
2679.724409
21
-666.732283
31
0
0
LINE
8
1
10
2861.614173
20
-662.007874
30
0
11
2861.614173
21
-666.732283
31
0
0
LINE
8
1
10
2679.724409
20
-666.732283
30
0
11
2861.614173
21
-666.732283
31
0
0
LINE
8
1
10
2630.511811
20
-504.527559
30
0
11
2635.236220
21
-504.527559
31
0
0
LINE
8
1
10
2630.511811
20
-504.527559
30
0
11
2630.511811
21
-568.307087
31
0
0
LINE
8
1
10
2635.236220
20
-504.527559
30
0
11
2635.236220
21
-568.307087
31
0
0
LINE
8
1
10
2630.511811
20
-568.307087
30
0
11
2635.236220
21
-568.307087
31
0
0
LINE
8
1
10
2679.724409
20
-406.102362
30
0
11
2861.614173
21
-406.102362
31
0
0
LINE
8
1
10
2679.724409
20
-406.102362
30
0
11
2679.724409
21
-410.826772
31
0
0
LINE
8
1
10
2861.614173
20
-406.102362
30
0
11
2861.614173
21
-410.826772
31
0
0
LINE
8
1
10
2679.724409
20
-410.826772
30
0
11
2861.614173
21
-410.826772
31
0
0
LINE
8
1
10
2906.102362
20
-504.527559
30
0
11
2910.826772
21
-504.527559
31
0
0
LINE
8
1
10
2906.102362
20
-504.527559
30
0
11
2906.102362
21
-568.307087
31
0
0
LINE
8
1
10
2910.826772
20
-504.527559
30
0
11
2910.826772
21
-568.307087
31
0
0
LINE
8
1
10
2906.102362
20
-568.307087
30
0
11
2910.826772
21
-568.307087
31
0
0
LINE
8
1
10
3305.570866
20
-667.775591
30
0
11
3367.657480
21
-667.775591
31
0
0
LINE
8
1
10
3305.570866
20
-667.775591
30
0
11
3305.570866
21
-672.775591
31
0
0
LINE
8
1
10
3367.657480
20
-667.775591
30
0
11
3367.657480
21
-672.775591
31
0
0
LINE
8
1
10
3305.570866
20
-672.775591
30
0
11
3367.657480
21
-672.775591
31
0
0
LINE
8
1
10
3173.681102
20
-667.775591
30
0
11
3178.681102
21
-667.775591
31
0
0
LINE
8
1
10
3173.681102
20
-667.775591
30
0
11
3173.681102
21
-1251.515748
31
0
0
LINE
8
1
10
3178.681102
20
-667.775591
30
0
11
3178.681102
21
-1251.515748
31
0
0
LINE
8
1
10
3173.681102
20
-1251.515748
30
0
11
3178.681102
21
-1251.515748
31
0
0
LINE
8
1
10
3173.681102
20
-1246.515748
30
0
11
3235.767717
21
-1246.515748
31
0
0
LINE
8
1
10
3173.681102
20
-1246.515748
30
0
11
3173.681102
21
-1251.515748
31
0
0
LINE
8
1
10
3235.767717
20
-1246.515748
30
0
11
3235.767717
21
-1251.515748
31
0
0
LINE
8
1
10
3173.681102
20
-1251.515748
30
0
11
3235.767717
21
-1251.515748
31
0
0
LINE
8
1
10
3173.681102
20
-667.775591
30
0
11
3235.767717
21
-667.775591
31
0
0
LINE
8
1
10
3173.681102
20
-667.775591
30
0
11
3173.681102
21
-672.775591
31
0
0
LINE
8
1
10
3235.767717
20
-667.775591
30
0
11
3235.767717
21
-672.775591
31
0
0
LINE
8
1
10
3173.681102
20
-672.775591
30
0
11
3235.767717
21
-672.775591
31
0
0
LINE
8
1
10
3305.570866
20
-1246.515748
30
0
11
3367.657480
21
-1246.515748
31
0
0
LINE
8
1
10
3305.570866
20
-1246.515748
30
0
11
3305.570866
21
-1251.515748
31
0
0
LINE
8
1
10
3367.657480
20
-1246.515748
30
0
11
3367.657480
21
-1251.515748
31
0
0
LINE
8
1
10
3305.570866
20
-1251.515748
30
0
11
3367.657480
21
-1251.515748
31
0
0
LINE
8
1
10
3362.657480
20
-667.775591
30
0
11
3367.657480
21
-667.775591
31
0
0
LINE
8
1
10
3362.657480
20
-667.775591
30
0
11
3362.657480
21
-1251.515748
31
0
0
LINE
8
1
10
3367.657480
20
-667.775591
30
0
11
3367.657480
21
-1251.515748
31
0
0
LINE
8
1
10
3362.657480
20
-1251.515748
30
0
11
3367.657480
21
-1251.515748
31
0
0
LINE
8
1
10
2570.669291
20
-2002.165354
30
0
11
2575.393701
21
-2002.165354
31
0
0
LINE
8
1
10
2570.669291
20
-2002.165354
30
0
11
2570.669291
21
-2019.881890
31
0
0
LINE
8
1
10
2575.393701
20
-2002.165354
30
0
11
2575.393701
21
-2019.881890
31
0
0
LINE
8
1
10
2570.669291
20
-2019.881890
30
0
11
2575.393701
21
-2019.881890
31
0
0
LINE
8
1
10
2570.669291
20
-1907.283465
30
0
11
2832.874016
21
-1907.283465
31
0
0
LINE
8
1
10
2570.669291
20
-1907.283465
30
0
11
2570.669291
21
-1912.007874
31
0
0
LINE
8
1
10
2832.874016
20
-1907.283465
30
0
11
2832.874016
21
-1912.007874
31
0
0
LINE
8
1
10
2570.669291
20
-1912.007874
30
0
11
2832.874016
21
-1912.007874
31
0
0
LINE
8
1
10
2828.149606
20
-2002.165354
30
0
11
2832.874016
21
-2002.165354
31
0
0
LINE
8
1
10
2828.149606
20
-2002.165354
30
0
11
2828.149606
21
-2019.881890
31
0
0
LINE
8
1
10
2832.874016
20
-2002.165354
30
0
11
2832.874016
21
-2019.881890
31
0
0
LINE
8
1
10
2828.149606
20
-2019.881890
30
0
11
2832.874016
21
-2019.881890
31
0
0
LINE
8
1
10
2570.669291
20
-1907.283465
30
0
11
2575.393701
21
-1907.283465
31
0
0
LINE
8
1
10
2570.669291
20
-1907.283465
30
0
11
2570.669291
21
-1925.000000
31
0
0
LINE
8
1
10
2575.393701
20
-1907.283465
30
0
11
2575.393701
21
-1925.000000
31
0
0
LINE
8
1
10
2570.669291
20
-1925.000000
30
0
11
2575.393701
21
-1925.000000
31
0
0
LINE
8
1
10
2570.669291
20
-2015.157480
30
0
11
2832.874016
21
-2015.157480
31
0
0
LINE
8
1
10
2570.669291
20
-2015.157480
30
0
11
2570.669291
21
-2019.881890
31
0
0
LINE
8
1
10
2832.874016
20
-2015.157480
30
0
11
2832.874016
21
-2019.881890
31
0
0
LINE
8
1
10
2570.669291
20
-2019.881890
30
0
11
2832.874016
21
-2019.881890
31
0
0
LINE
8
1
10
2828.149606
20
-1907.283465
30
0
11
2832.874016
21
-1907.283465
31
0
0
LINE
8
1
10
2828.149606
20
-1907.283465
30
0
11
2828.149606
21
-1925.000000
31
0
0
LINE
8
1
10
2832.874016
20
-1907.283465
30
0
11
2832.874016
21
-1925.000000
31
0
0
LINE
8
1
10
2828.149606
20
-1925.000000
30
0
11
2832.874016
21
-1925.000000
31
0
0
LINE
8
1
10
2679.724409
20
-47.834646
30
0
11
2861.614173
21
-47.834646
31
0
0
LINE
8
1
10
2679.724409
20
-47.834646
30
0
11
2679.724409
21
-52.559055
31
0
0
LINE
8
1
10
2861.614173
20
-47.834646
30
0
11
2861.614173
21
-52.559055
31
0
0
LINE
8
1
10
2679.724409
20
-52.559055
30
0
11
2861.614173
21
-52.559055
31
0
0
LINE
8
1
10
2630.511811
20
-146.259843
30
0
11
2635.236220
21
-146.259843
31
0
0
LINE
8
1
10
2630.511811
20
-146.259843
30
0
11
2630.511811
21
-210.039370
31
0
0
LINE
8
1
10
2635.236220
20
-146.259843
30
0
11
2635.236220
21
-210.039370
31
0
0
LINE
8
1
10
2630.511811
20
-210.039370
30
0
11
2635.236220
21
-210.039370
31
0
0
LINE
8
1
10
2906.102362
20
-146.259843
30
0
11
2910.826772
21
-146.259843
31
0
0
LINE
8
1
10
2906.102362
20
-146.259843
30
0
11
2906.102362
21
-210.039370
31
0
0
LINE
8
1
10
2910.826772
20
-146.259843
30
0
11
2910.826772
21
-210.039370
31
0
0
LINE
8
1
10
2906.102362
20
-210.039370
30
0
11
2910.826772
21
-210.039370
31
0
0
LINE
8
1
10
2679.724409
20
-303.740157
30
0
11
2861.614173
21
-303.740157
31
0
0
LINE
8
1
10
2679.724409
20
-303.740157
30
0
11
2679.724409
21
-308.464567
31
0
0
LINE
8
1
10
2861.614173
20
-303.740157
30
0
11
2861.614173
21
-308.464567
31
0
0
LINE
8
1
10
2679.724409
20
-308.464567
30
0
11
2861.614173
21
-308.464567
31
0
0
LINE
8
1
10
3119.981102
20
-341.877165
30
0
11
3417.382677
21
-341.877165
31
0
0
LINE
8
1
10
3119.981102
20
-341.877165
30
0
11
3119.981102
21
-351.877165
31
0
0
LINE
8
1
10
3417.382677
20
-341.877165
30
0
11
3417.382677
21
-351.877165
31
0
0
LINE
8
1
10
3119.981102
20
-351.877165
30
0
11
3417.382677
21
-351.877165
31
0
0
LINE
8
1
10
3119.981102
20
-641.483465
30
0
11
3417.382677
21
-641.483465
31
0
0
LINE
8
1
10
3119.981102
20
-641.483465
30
0
11
3119.981102
21
-651.483465
31
0
0
LINE
8
1
10
3417.382677
20
-641.483465
30
0
11
3417.382677
21
-651.483465
31
0
0
LINE
8
1
10
3119.981102
20
-651.483465
30
0
11
3417.382677
21
-651.483465
31
0
0
LINE
8
1
10
3407.382677
20
-341.877165
30
0
11
3417.382677
21
-341.877165
31
0
0
LINE
8
1
10
3407.382677
20
-341.877165
30
0
11
3407.382677
21
-651.483465
31
0
0
LINE
8
1
10
3417.382677
20
-341.877165
30
0
11
3417.382677
21
-651.483465
31
0
0
LINE
8
1
10
3407.382677
20
-651.483465
30
0
11
3417.382677
21
-651.483465
31
0
0
LINE
8
1
10
3119.981102
20
-341.877165
30
0
11
3129.981102
21
-341.877165
31
0
0
LINE
8
1
10
3119.981102
20
-341.877165
30
0
11
3119.981102
21
-651.483465
31
0
0
LINE
8
1
10
3129.981102
20
-341.877165
30
0
11
3129.981102
21
-651.483465
31
0
0
LINE
8
1
10
3119.981102
20
-651.483465
30
0
11
3129.981102
21
-651.483465
31
0
0
LINE
8
1
10
3194.488189
20
-1716.985394
30
0
11
3232.086614
21
-1716.985394
31
0
0
LINE
8
1
10
3194.488189
20
-1716.985394
30
0
11
3194.488189
21
-1794.038268
31
0
0
LINE
8
1
10
3232.086614
20
-1716.985394
30
0
11
3232.086614
21
-1794.038268
31
0
0
LINE
8
1
10
3194.488189
20
-1794.038268
30
0
11
3232.086614
21
-1794.038268
31
0
0
LINE
8
1
10
2624.488189
20
-1580.108740
30
0
11
2662.086614
21
-1580.108740
31
0
0
LINE
8
1
10
2624.488189
20
-1580.108740
30
0
11
2624.488189
21
-1630.914882
31
0
0
LINE
8
1
10
2662.086614
20
-1580.108740
30
0
11
2662.086614
21
-1630.914882
31
0
0
LINE
8
1
10
2624.488189
20
-1630.914882
30
0
11
2662.086614
21
-1630.914882
31
0
0
LINE
8
1
10
3194.488189
20
-1623.547047
30
0
11
3232.086614
21
-1623.547047
31
0
0
LINE
8
1
10
3194.488189
20
-1623.547047
30
0
11
3194.488189
21
-1687.476575
31
0
0
LINE
8
1
10
3232.086614
20
-1623.547047
30
0
11
3232.086614
21
-1687.476575
31
0
0
LINE
8
1
10
3194.488189
20
-1687.476575
30
0
11
3232.086614
21
-1687.476575
31
0
0
LINE
8
1
10
2813.503937
20
-1445.584921
30
0
11
2873.070866
21
-1445.584921
31
0
0
LINE
8
1
10
2813.503937
20
-1445.584921
30
0
11
2813.503937
21
-1865.438701
31
0
0
LINE
8
1
10
2873.070866
20
-1445.584921
30
0
11
2873.070866
21
-1865.438701
31
0
0
LINE
8
1
10
2813.503937
20
-1865.438701
30
0
11
2873.070866
21
-1865.438701
31
0
0
LINE
8
1
10
2774.488189
20
-1480.108740
30
0
11
2812.086614
21
-1480.108740
31
0
0
LINE
8
1
10
2774.488189
20
-1480.108740
30
0
11
2774.488189
21
-1530.914882
31
0
0
LINE
8
1
10
2812.086614
20
-1480.108740
30
0
11
2812.086614
21
-1530.914882
31
0
0
LINE
8
1
10
2774.488189
20
-1530.914882
30
0
11
2812.086614
21
-1530.914882
31
0
0
LINE
8
1
10
3194.488189
20
-1530.108740
30
0
11
3232.086614
21
-1530.108740
31
0
0
LINE
8
1
10
3194.488189
20
-1530.108740
30
0
11
3194.488189
21
-1580.914882
31
0
0
LINE
8
1
10
3232.086614
20
-1530.108740
30
0
11
3232.086614
21
-1580.914882
31
0
0
LINE
8
1
10
3194.488189
20
-1580.914882
30
0
11
3232.086614
21
-1580.914882
31
0
0
LINE
8
1
10
2774.488189
20
-1673.547047
30
0
11
2812.086614
21
-1673.547047
31
0
0
LINE
8
1
10
2774.488189
20
-1673.547047
30
0
11
2774.488189
21
-1737.476575
31
0
0
LINE
8
1
10
2812.086614
20
-1673.547047
30
0
11
2812.086614
21
-1737.476575
31
0
0
LINE
8
1
10
2774.488189
20
-1737.476575
30
0
11
2812.086614
21
-1737.476575
31
0
0
LINE
8
1
10
2624.488189
20
-1766.985394
30
0
11
2662.086614
21
-1766.985394
31
0
0
LINE
8
1
10
2624.488189
20
-1766.985394
30
0
11
2624.488189
21
-1844.038268
31
0
0
LINE
8
1
10
2662.086614
20
-1766.985394
30
0
11
2662.086614
21
-1844.038268
31
0
0
LINE
8
1
10
2624.488189
20
-1844.038268
30
0
11
2662.086614
21
-1844.038268
31
0
0
LINE
8
1
10
2624.488189
20
-1673.547047
30
0
11
2662.086614
21
-1673.547047
31
0
0
LINE
8
1
10
2624.488189
20
-1673.547047
30
0
11
2624.488189
21
-1737.476575
31
0
0
LINE
8
1
10
2662.086614
20
-1673.547047
30
0
11
2662.086614
21
-1737.476575
31
0
0
LINE
8
1
10
2624.488189
20
-1737.476575
30
0
11
2662.086614
21
-1737.476575
31
0
0
LINE
8
1
10
3123.503937
20
-1542.574055
30
0
11
3183.070866
21
-1542.574055
31
0
0
LINE
8
1
10
3123.503937
20
-1542.574055
30
0
11
3123.503937
21
-1788.449567
31
0
0
LINE
8
1
10
3183.070866
20
-1542.574055
30
0
11
3183.070866
21
-1788.449567
31
0
0
LINE
8
1
10
3123.503937
20
-1788.449567
30
0
11
3183.070866
21
-1788.449567
31
0
0
LINE
8
1
10
2774.488189
20
-1766.985394
30
0
11
2812.086614
21
-1766.985394
31
0
0
LINE
8
1
10
2774.488189
20
-1766.985394
30
0
11
2774.488189
21
-1844.038268
31
0
0
LINE
8
1
10
2812.086614
20
-1766.985394
30
0
11
2812.086614
21
-1844.038268
31
0
0
LINE
8
1
10
2774.488189
20
-1844.038268
30
0
11
2812.086614
21
-1844.038268
31
0
0
LINE
8
1
10
2624.488189
20
-1484.326969
30
0
11
2662.086614
21
-1484.326969
31
0
0
LINE
8
1
10
2624.488189
20
-1484.326969
30
0
11
2624.488189
21
-1526.696654
31
0
0
LINE
8
1
10
2662.086614
20
-1484.326969
30
0
11
2662.086614
21
-1526.696654
31
0
0
LINE
8
1
10
2624.488189
20
-1526.696654
30
0
11
2662.086614
21
-1526.696654
31
0
0
LINE
8
1
10
2774.488189
20
-1573.547047
30
0
11
2812.086614
21
-1573.547047
31
0
0
LINE
8
1
10
2774.488189
20
-1573.547047
30
0
11
2774.488189
21
-1637.476575
31
0
0
LINE
8
1
10
2812.086614
20
-1573.547047
30
0
11
2812.086614
21
-1637.476575
31
0
0
LINE
8
1
10
2774.488189
20
-1637.476575
30
0
11
2812.086614
21
-1637.476575
31
0
0
LINE
8
1
10
3235.925197
20
-1433.149606
30
0
11
3240.649606
21
-1433.149606
31
0
0
LINE
8
1
10
3235.925197
20
-1433.149606
30
0
11
3235.925197
21
-1448.425197
31
0
0
LINE
8
1
10
3240.649606
20
-1433.149606
30
0
11
3240.649606
21
-1448.425197
31
0
0
LINE
8
1
10
3235.925197
20
-1448.425197
30
0
11
3240.649606
21
-1448.425197
31
0
0
LINE
8
1
10
2680.925197
20
-1443.582677
30
0
11
2685.649606
21
-1443.582677
31
0
0
LINE
8
1
10
2680.925197
20
-1443.582677
30
0
11
2680.925197
21
-1867.992126
31
0
0
LINE
8
1
10
2685.649606
20
-1443.582677
30
0
11
2685.649606
21
-1867.992126
31
0
0
LINE
8
1
10
2680.925197
20
-1867.992126
30
0
11
2685.649606
21
-1867.992126
31
0
0
LINE
8
1
10
2680.925197
20
-1873.031496
30
0
11
3240.649606
21
-1873.031496
31
0
0
LINE
8
1
10
2680.925197
20
-1873.031496
30
0
11
2680.925197
21
-1877.874016
31
0
0
LINE
8
1
10
3240.649606
20
-1873.031496
30
0
11
3240.649606
21
-1877.874016
31
0
0
LINE
8
1
10
2680.925197
20
-1877.874016
30
0
11
3240.649606
21
-1877.874016
31
0
0
LINE
8
1
10
2680.925197
20
-1433.149606
30
0
11
3240.649606
21
-1433.149606
31
0
0
LINE
8
1
10
2680.925197
20
-1433.149606
30
0
11
2680.925197
21
-1437.874016
31
0
0
LINE
8
1
10
3240.649606
20
-1433.149606
30
0
11
3240.649606
21
-1437.874016
31
0
0
LINE
8
1
10
2680.925197
20
-1437.874016
30
0
11
3240.649606
21
-1437.874016
31
0
0
LINE
8
1
10
2680.925197
20
-1863.385827
30
0
11
2685.649606
21
-1863.385827
31
0
0
LINE
8
1
10
2680.925197
20
-1863.385827
30
0
11
2680.925197
21
-1877.874016
31
0
0
LINE
8
1
10
2685.649606
20
-1863.385827
30
0
11
2685.649606
21
-1877.874016
31
0
0
LINE
8
1
10
2680.925197
20
-1877.874016
30
0
11
2685.649606
21
-1877.874016
31
0
0
LINE
8
1
10
3325.807087
20
-1443.700787
30
0
11
3330.531496
21
-1443.700787
31
0
0
LINE
8
1
10
3325.807087
20
-1443.700787
30
0
11
3325.807087
21
-1502.755906
31
0
0
LINE
8
1
10
3330.531496
20
-1443.700787
30
0
11
3330.531496
21
-1502.755906
31
0
0
LINE
8
1
10
3325.807087
20
-1502.755906
30
0
11
3330.531496
21
-1502.755906
31
0
0
LINE
8
1
10
2535.925197
20
-1443.700787
30
0
11
2540.649606
21
-1443.700787
31
0
0
LINE
8
1
10
2535.925197
20
-1443.700787
30
0
11
2535.925197
21
-1868.110236
31
0
0
LINE
8
1
10
2540.649606
20
-1443.700787
30
0
11
2540.649606
21
-1868.110236
31
0
0
LINE
8
1
10
2535.925197
20
-1868.110236
30
0
11
2540.649606
21
-1868.110236
31
0
0
LINE
8
1
10
3395.885827
20
-1443.700787
30
0
11
3400.610236
21
-1443.700787
31
0
0
LINE
8
1
10
3395.885827
20
-1443.700787
30
0
11
3395.885827
21
-1868.110236
31
0
0
LINE
8
1
10
3400.610236
20
-1443.700787
30
0
11
3400.610236
21
-1868.110236
31
0
0
LINE
8
1
10
3395.885827
20
-1868.110236
30
0
11
3400.610236
21
-1868.110236
31
0
0
LINE
8
1
10
3237.618110
20
-1498.031496
30
0
11
3330.531496
21
-1498.031496
31
0
0
LINE
8
1
10
3237.618110
20
-1498.031496
30
0
11
3237.618110
21
-1502.755906
31
0
0
LINE
8
1
10
3330.531496
20
-1498.031496
30
0
11
3330.531496
21
-1502.755906
31
0
0
LINE
8
1
10
3237.618110
20
-1502.755906
30
0
11
3330.531496
21
-1502.755906
31
0
0
LINE
8
1
10
2535.925197
20
-1863.385827
30
0
11
3400.610236
21
-1863.385827
31
0
0
LINE
8
1
10
2535.925197
20
-1863.385827
30
0
11
2535.925197
21
-1868.110236
31
0
0
LINE
8
1
10
3400.610236
20
-1863.385827
30
0
11
3400.610236
21
-1868.110236
31
0
0
LINE
8
1
10
2535.925197
20
-1868.110236
30
0
11
3400.610236
21
-1868.110236
31
0
0
LINE
8
1
10
3325.807087
20
-1808.267717
30
0
11
3330.531496
21
-1808.267717
31
0
0
LINE
8
1
10
3325.807087
20
-1808.267717
30
0
11
3325.807087
21
-1868.110236
31
0
0
LINE
8
1
10
3330.531496
20
-1808.267717
30
0
11
3330.531496
21
-1868.110236
31
0
0
LINE
8
1
10
3325.807087
20
-1868.110236
30
0
11
3330.531496
21
-1868.110236
31
0
0
LINE
8
1
10
3237.618110
20
-1498.031496
30
0
11
3242.342520
21
-1498.031496
31
0
0
LINE
8
1
10
3237.618110
20
-1498.031496
30
0
11
3237.618110
21
-1812.992126
31
0
0
LINE
8
1
10
3242.342520
20
-1498.031496
30
0
11
3242.342520
21
-1812.992126
31
0
0
LINE
8
1
10
3237.618110
20
-1812.992126
30
0
11
3242.342520
21
-1812.992126
31
0
0
LINE
8
1
10
3237.618110
20
-1808.267717
30
0
11
3330.531496
21
-1808.267717
31
0
0
LINE
8
1
10
3237.618110
20
-1808.267717
30
0
11
3237.618110
21
-1812.992126
31
0
0
LINE
8
1
10
3330.531496
20
-1808.267717
30
0
11
3330.531496
21
-1812.992126
31
0
0
LINE
8
1
10
3237.618110
20
-1812.992126
30
0
11
3330.531496
21
-1812.992126
31
0
0
LINE
8
1
10
2680.925197
20
-1433.149606
30
0
11
2685.649606
21
-1433.149606
31
0
0
LINE
8
1
10
2680.925197
20
-1433.149606
30
0
11
2680.925197
21
-1448.425197
31
0
0
LINE
8
1
10
2685.649606
20
-1433.149606
30
0
11
2685.649606
21
-1448.425197
31
0
0
LINE
8
1
10
2680.925197
20
-1448.425197
30
0
11
2685.649606
21
-1448.425197
31
0
0
LINE
8
1
10
3235.925197
20
-1443.700787
30
0
11
3240.649606
21
-1443.700787
31
0
0
LINE
8
1
10
3235.925197
20
-1443.700787
30
0
11
3235.925197
21
-1868.110236
31
0
0
LINE
8
1
10
3240.649606
20
-1443.700787
30
0
11
3240.649606
21
-1868.110236
31
0
0
LINE
8
1
10
3235.925197
20
-1868.110236
30
0
11
3240.649606
21
-1868.110236
31
0
0
LINE
8
1
10
2535.925197
20
-1443.700787
30
0
11
3400.610236
21
-1443.700787
31
0
0
LINE
8
1
10
2535.925197
20
-1443.700787
30
0
11
2535.925197
21
-1448.425197
31
0
0
LINE
8
1
10
3400.610236
20
-1443.700787
30
0
11
3400.610236
21
-1448.425197
31
0
0
LINE
8
1
10
2535.925197
20
-1448.425197
30
0
11
3400.610236
21
-1448.425197
31
0
0
LINE
8
1
10
3235.925197
20
-1863.267717
30
0
11
3240.649606
21
-1863.267717
31
0
0
LINE
8
1
10
3235.925197
20
-1863.267717
30
0
11
3235.925197
21
-1877.755906
31
0
0
LINE
8
1
10
3240.649606
20
-1863.267717
30
0
11
3240.649606
21
-1877.755906
31
0
0
LINE
8
1
10
3235.925197
20
-1877.755906
30
0
11
3240.649606
21
-1877.755906
31
0
0
LINE
8
1
10
3346.043307
20
-1444.094488
30
0
11
3350.767717
21
-1444.094488
31
0
0
LINE
8
1
10
3346.043307
20
-1444.094488
30
0
11
3346.043307
21
-1868.110236
31
0
0
LINE
8
1
10
3350.767717
20
-1444.094488
30
0
11
3350.767717
21
-1868.110236
31
0
0
LINE
8
1
10
3346.043307
20
-1868.110236
30
0
11
3350.767717
21
-1868.110236
31
0
0
CIRCLE
8
0
10
3183.661417
20
-183.661417
30
0
40
72.834646
0
CIRCLE
8
0
10
183.661417
20
-183.661417
30
0
40
72.834646
0
CIRCLE
8
0
10
3183.661417
20
-3183.661417
30
0
40
72.834646
0
CIRCLE
8
0
10
183.661417
20
-3183.661417
30
0
40
72.834646
0
ENDSEC
0
EOF
