M48
; DRILL file {KiCad 9.0.7} date 2026-03-04T16:06:07-0500
; FORMAT={-:-/ absolute / inch / decimal}
; #@! TF.CreationDate,2026-03-04T16:06:07-05:00
; #@! TF.GenerationSoftware,Kicad,Pcbnew,9.0.7
; #@! TF.FileFunction,Plated,1,2,PTH
FMAT,2
INCH
; #@! TA.AperFunction,Plated,PTH,ViaDrill
T1C0.0157
; #@! TA.AperFunction,Plated,PTH,ComponentDrill
T2C0.0280
; #@! TA.AperFunction,Plated,PTH,ComponentDrill
T3C0.0299
; #@! TA.AperFunction,Plated,PTH,ComponentDrill
T4C0.0300
; #@! TA.AperFunction,Plated,PTH,ComponentDrill
T5C0.0315
; #@! TA.AperFunction,Plated,PTH,ComponentDrill
T6C0.0354
; #@! TA.AperFunction,Plated,PTH,ComponentDrill
T7C0.0374
; #@! TA.AperFunction,Plated,PTH,ComponentDrill
T8C0.0394
; #@! TA.AperFunction,Plated,PTH,ComponentDrill
T9C0.0433
; #@! TA.AperFunction,Plated,PTH,ComponentDrill
T10C0.0512
; #@! TA.AperFunction,Plated,PTH,ComponentDrill
T11C0.0551
; #@! TA.AperFunction,Plated,PTH,ComponentDrill
T12C0.0650
%
G90
G05
T1
X7.0984Y-2.5472
X7.2008Y-2.6654
X7.3937Y-2.1299
X7.4606Y-2.2638
X7.75Y-4.0177
X7.8346Y-3.3386
X7.874Y-3.9252
X7.9001Y-2.3608
X8.1063Y-3.4528
X8.5236Y-3.4882
X8.5433Y-1.5984
T2
X8.9774Y-3.9508
X9.1781Y-4.0138
T3
X6.9783Y-3.9268
X6.9783Y-4.0268
X6.9783Y-4.1268
X6.9783Y-4.2268
X6.9843Y-2.5866
X6.9843Y-2.6866
X6.9843Y-2.7866
X6.9843Y-2.8866
X7.0783Y-3.9768
X7.0783Y-4.0768
X7.0783Y-4.1768
X7.0783Y-4.2768
X7.0843Y-2.6366
X7.0843Y-2.7366
X7.0843Y-2.8366
X7.0843Y-2.9366
T4
X9.0096Y-2.9219
X9.0096Y-3.0219
X9.0096Y-3.1219
X9.0096Y-3.2219
X9.1596Y-2.9127
X9.1596Y-3.0188
X9.1596Y-3.1249
X9.1596Y-3.231
T5
X6.5906Y-1.9291
X6.5906Y-2.126
X6.7063Y-2.3543
X6.7087Y-1.9087
X6.7087Y-2.2087
X6.8063Y-2.3543
X6.8087Y-1.9087
X6.8087Y-2.2087
X6.9063Y-2.3543
X6.9087Y-1.9087
X6.9087Y-2.2087
X6.9882Y-3.2201
X6.9882Y-3.5201
X7.0063Y-2.3543
X7.0087Y-1.9087
X7.0087Y-2.2087
X7.1063Y-2.3543
X7.1087Y-1.9087
X7.1087Y-2.2087
X7.1528Y-3.2512
X7.1528Y-3.3512
X7.1528Y-3.4512
X7.1528Y-3.5512
X7.2063Y-2.3543
X7.2087Y-1.9087
X7.2087Y-2.2087
X7.2402Y-3.826
X7.2402Y-4.126
X7.252Y-3.7205
X7.3063Y-2.3543
X7.3087Y-1.9087
X7.3087Y-2.2087
X7.4063Y-2.3543
X7.4087Y-1.9087
X7.4087Y-2.2087
X7.4488Y-3.7205
X7.4528Y-3.2512
X7.4528Y-3.3512
X7.4528Y-3.4512
X7.4528Y-3.5512
X8.1811Y-2.1181
X8.1811Y-2.2181
X8.1811Y-2.3181
X8.1811Y-2.4181
X8.1811Y-2.5433
X8.1811Y-2.6634
X8.185Y-2.0079
X8.3819Y-2.0079
X8.4811Y-2.1181
X8.4811Y-2.2181
X8.4811Y-2.3181
X8.4811Y-2.4181
X8.4811Y-2.5433
X8.4811Y-2.6634
X8.7815Y-4.1299
X8.9681Y-3.3799
X8.9783Y-4.1299
X8.9823Y-3.8307
X9.1791Y-3.8307
X9.2681Y-3.3799
X9.6575Y-3.4104
X9.7362Y-3.4104
T6
X7.6711Y-2.1899
X7.6711Y-2.2899
X7.6711Y-2.3899
X7.6711Y-2.4899
X7.6711Y-2.5899
X7.6711Y-2.6899
X7.6711Y-2.7899
X7.6711Y-2.8899
X7.6711Y-2.9899
X7.6711Y-3.0899
X7.6711Y-3.1899
X7.6711Y-3.2899
X7.6711Y-3.3899
X7.6711Y-3.4899
X7.6711Y-3.5899
X7.6711Y-3.6899
X7.6711Y-3.7899
X7.6711Y-3.8899
X7.7711Y-2.1899
X7.7711Y-2.2899
X7.7711Y-2.3899
X7.7711Y-2.4899
X7.7711Y-2.5899
X7.7711Y-2.6899
X7.7711Y-2.7899
X7.7711Y-2.8899
X7.7711Y-2.9899
X7.7711Y-3.0899
X7.7711Y-3.1899
X7.7711Y-3.2899
X7.7711Y-3.3899
X7.7711Y-3.4899
X7.7711Y-3.5899
X7.7711Y-3.6899
X7.7711Y-3.7899
X7.7711Y-3.8899
X8.6711Y-2.1899
X8.6711Y-2.2899
X8.6711Y-2.3899
X8.6711Y-2.4899
X8.6711Y-2.5899
X8.6711Y-2.6899
X8.6711Y-2.7899
X8.6711Y-2.8899
X8.6711Y-2.9899
X8.6711Y-3.0899
X8.6711Y-3.1899
X8.6711Y-3.2899
X8.6711Y-3.3899
X8.6711Y-3.4899
X8.6711Y-3.5899
X8.6711Y-3.6899
X8.6711Y-3.7899
X8.6711Y-3.8899
X8.7711Y-2.1899
X8.7711Y-2.2899
X8.7711Y-2.3899
X8.7711Y-2.4899
X8.7711Y-2.5899
X8.7711Y-2.6899
X8.7711Y-2.7899
X8.7711Y-2.8899
X8.7711Y-2.9899
X8.7711Y-3.0899
X8.7711Y-3.1899
X8.7711Y-3.2899
X8.7711Y-3.3899
X8.7711Y-3.4899
X8.7711Y-3.5899
X8.7711Y-3.6899
X8.7711Y-3.7899
X8.7711Y-3.8899
X9.3937Y-3.3799
X9.4937Y-3.3799
X9.5098Y-3.6545
X9.5098Y-3.753
X9.5098Y-3.8317
X9.5098Y-3.9301
T7
X9.2953Y-4.2431
X9.3937Y-4.2431
X9.4921Y-4.2431
X9.5906Y-4.2431
T8
X7.0449Y-1.563
X7.1449Y-1.563
X7.2449Y-1.563
X7.3449Y-1.563
X7.4449Y-1.563
X7.6866Y-4.5118
X7.6866Y-4.6118
X7.7866Y-4.5118
X7.7866Y-4.6118
X7.8866Y-4.5118
X7.8866Y-4.6118
X7.9866Y-4.5118
X7.9866Y-4.6118
X8.0866Y-4.5118
X8.0866Y-4.6118
X8.1063Y-1.5591
X8.1866Y-4.5118
X8.1866Y-4.6118
X8.2063Y-1.5591
X8.2866Y-4.5118
X8.2866Y-4.6118
X8.3063Y-1.5591
X8.3866Y-4.5118
X8.3866Y-4.6118
X8.4063Y-1.5591
X8.4866Y-4.5118
X8.4866Y-4.6118
X8.5866Y-4.5118
X8.5866Y-4.6118
X8.6866Y-4.5118
X8.6866Y-4.6118
X8.7866Y-4.5118
X8.7866Y-4.6118
X9.1594Y-2.6378
X9.1781Y-2.2894
X9.2781Y-2.2894
X9.3563Y-2.6378
X9.3781Y-2.2894
X9.7096Y-2.9719
X9.7096Y-3.0719
X9.7096Y-3.1719
T9
X9.0591Y-1.5059
X9.0591Y-1.6831
X9.0591Y-1.8642
X9.0591Y-2.0413
X9.315Y-1.5059
X9.315Y-1.6831
X9.315Y-1.8642
X9.315Y-2.0413
X9.687Y-1.838
X9.687Y-1.988
T10
X6.6693Y-3.2323
X6.6693Y-3.4291
X6.6693Y-3.626
T11
X9.6673Y-3.6417
X9.6673Y-4.0417
T12
X9.687Y-2.1417
X9.687Y-2.2874
X9.687Y-2.4646
X9.687Y-2.6102
T10
G00X9.3217Y-3.812
M15
G01X9.3217Y-3.7726
M16
G05
G00X9.4665Y-3.5337
M15
G01X9.5059Y-3.5337
M16
G05
G00X9.5059Y-4.051
M15
G01X9.4665Y-4.051
M16
G05
M30
