G04 #@! TF.GenerationSoftware,KiCad,Pcbnew,(6.0.5)*
G04 #@! TF.CreationDate,2022-06-05T13:27:19-04:00*
G04 #@! TF.ProjectId,PB_16,50425f31-362e-46b6-9963-61645f706362,v2.2*
G04 #@! TF.SameCoordinates,Original*
G04 #@! TF.FileFunction,Other,ECO2*
%FSLAX46Y46*%
G04 Gerber Fmt 4.6, Leading zero omitted, Abs format (unit mm)*
G04 Created by KiCad (PCBNEW (6.0.5)) date 2022-06-05 13:27:19*
%MOMM*%
%LPD*%
G01*
G04 APERTURE LIST*
G04 #@! TA.AperFunction,Profile*
%ADD10C,0.050000*%
G04 #@! TD*
%ADD11C,0.127000*%
G04 APERTURE END LIST*
D10*
X214228800Y-152889360D02*
X214228800Y-52996240D01*
X72128800Y-52996240D02*
X72128800Y-152889360D01*
X214228800Y-52996240D02*
X72128800Y-52996240D01*
X214228800Y-152889360D02*
X72128800Y-152889360D01*
D11*
X209026000Y-121502600D02*
X213826000Y-121502600D01*
X213826000Y-136202600D02*
X209026000Y-136202600D01*
X209026000Y-136202600D02*
X209026000Y-121502600D01*
X213826000Y-121502600D02*
X213826000Y-136202600D01*
X72778800Y-121102600D02*
X77578800Y-121102600D01*
X77578800Y-135802600D02*
X72778800Y-135802600D01*
X72778800Y-135802600D02*
X72778800Y-121102600D01*
X77578800Y-121102600D02*
X77578800Y-135802600D01*
X188078800Y-137063600D02*
X192878800Y-137063600D01*
X192878800Y-151763600D02*
X188078800Y-151763600D01*
X188078800Y-151763600D02*
X188078800Y-137063600D01*
X192878800Y-137063600D02*
X192878800Y-151763600D01*
X181772124Y-137063600D02*
X186572124Y-137063600D01*
X186572124Y-151763600D02*
X181772124Y-151763600D01*
X181772124Y-151763600D02*
X181772124Y-137063600D01*
X186572124Y-137063600D02*
X186572124Y-151763600D01*
X175465458Y-137063600D02*
X180265458Y-137063600D01*
X180265458Y-151763600D02*
X175465458Y-151763600D01*
X175465458Y-151763600D02*
X175465458Y-137063600D01*
X180265458Y-137063600D02*
X180265458Y-151763600D01*
X169158792Y-137063600D02*
X173958792Y-137063600D01*
X173958792Y-151763600D02*
X169158792Y-151763600D01*
X169158792Y-151763600D02*
X169158792Y-137063600D01*
X173958792Y-137063600D02*
X173958792Y-151763600D01*
X162852126Y-136994800D02*
X167652126Y-136994800D01*
X167652126Y-151694800D02*
X162852126Y-151694800D01*
X162852126Y-151694800D02*
X162852126Y-136994800D01*
X167652126Y-136994800D02*
X167652126Y-151694800D01*
X156545460Y-136998600D02*
X161345460Y-136998600D01*
X161345460Y-151698600D02*
X156545460Y-151698600D01*
X156545460Y-151698600D02*
X156545460Y-136998600D01*
X161345460Y-136998600D02*
X161345460Y-151698600D01*
X150238794Y-136998600D02*
X155038794Y-136998600D01*
X155038794Y-151698600D02*
X150238794Y-151698600D01*
X150238794Y-151698600D02*
X150238794Y-136998600D01*
X155038794Y-136998600D02*
X155038794Y-151698600D01*
X143932128Y-136998600D02*
X148732128Y-136998600D01*
X148732128Y-151698600D02*
X143932128Y-151698600D01*
X143932128Y-151698600D02*
X143932128Y-136998600D01*
X148732128Y-136998600D02*
X148732128Y-151698600D01*
X137625462Y-136998600D02*
X142425462Y-136998600D01*
X142425462Y-151698600D02*
X137625462Y-151698600D01*
X137625462Y-151698600D02*
X137625462Y-136998600D01*
X142425462Y-136998600D02*
X142425462Y-151698600D01*
X131318796Y-136998600D02*
X136118796Y-136998600D01*
X136118796Y-151698600D02*
X131318796Y-151698600D01*
X131318796Y-151698600D02*
X131318796Y-136998600D01*
X136118796Y-136998600D02*
X136118796Y-151698600D01*
X125012130Y-136998600D02*
X129812130Y-136998600D01*
X129812130Y-151698600D02*
X125012130Y-151698600D01*
X125012130Y-151698600D02*
X125012130Y-136998600D01*
X129812130Y-136998600D02*
X129812130Y-151698600D01*
X118705464Y-136998600D02*
X123505464Y-136998600D01*
X123505464Y-151698600D02*
X118705464Y-151698600D01*
X118705464Y-151698600D02*
X118705464Y-136998600D01*
X123505464Y-136998600D02*
X123505464Y-151698600D01*
X112398798Y-137003600D02*
X117198798Y-137003600D01*
X117198798Y-151703600D02*
X112398798Y-151703600D01*
X112398798Y-151703600D02*
X112398798Y-137003600D01*
X117198798Y-137003600D02*
X117198798Y-151703600D01*
X106092132Y-137003600D02*
X110892132Y-137003600D01*
X110892132Y-151703600D02*
X106092132Y-151703600D01*
X106092132Y-151703600D02*
X106092132Y-137003600D01*
X110892132Y-137003600D02*
X110892132Y-151703600D01*
X99785466Y-137002600D02*
X104585466Y-137002600D01*
X104585466Y-151702600D02*
X99785466Y-151702600D01*
X99785466Y-151702600D02*
X99785466Y-137002600D01*
X104585466Y-137002600D02*
X104585466Y-151702600D01*
X93478800Y-137002600D02*
X98278800Y-137002600D01*
X98278800Y-151702600D02*
X93478800Y-151702600D01*
X93478800Y-151702600D02*
X93478800Y-137002600D01*
X98278800Y-137002600D02*
X98278800Y-151702600D01*
M02*
