G04 #@! TF.GenerationSoftware,KiCad,Pcbnew,(6.0.5)*
G04 #@! TF.CreationDate,2022-06-05T13:27:19-04:00*
G04 #@! TF.ProjectId,PB_16,50425f31-362e-46b6-9963-61645f706362,v2.2*
G04 #@! TF.SameCoordinates,Original*
G04 #@! TF.FileFunction,OtherDrawing,Comment*
%FSLAX46Y46*%
G04 Gerber Fmt 4.6, Leading zero omitted, Abs format (unit mm)*
G04 Created by KiCad (PCBNEW (6.0.5)) date 2022-06-05 13:27:19*
%MOMM*%
%LPD*%
G01*
G04 APERTURE LIST*
G04 #@! TA.AperFunction,Profile*
%ADD10C,0.050000*%
G04 #@! TD*
%ADD11C,0.100000*%
%ADD12C,0.120000*%
G04 APERTURE END LIST*
D10*
X214228800Y-152889360D02*
X214228800Y-52996240D01*
X72128800Y-52996240D02*
X72128800Y-152889360D01*
X214228800Y-52996240D02*
X72128800Y-52996240D01*
X214228800Y-152889360D02*
X72128800Y-152889360D01*
D11*
X207692990Y-94261266D02*
X207192990Y-94261266D01*
X207692990Y-94046980D02*
X207431085Y-94046980D01*
X207383466Y-94070790D01*
X207359657Y-94118409D01*
X207359657Y-94189838D01*
X207383466Y-94237457D01*
X207407276Y-94261266D01*
X207359657Y-93880314D02*
X207359657Y-93689838D01*
X207192990Y-93808885D02*
X207621561Y-93808885D01*
X207669180Y-93785076D01*
X207692990Y-93737457D01*
X207692990Y-93689838D01*
X207359657Y-93594600D02*
X207359657Y-93404123D01*
X207192990Y-93523171D02*
X207621561Y-93523171D01*
X207669180Y-93499361D01*
X207692990Y-93451742D01*
X207692990Y-93404123D01*
X207359657Y-93237457D02*
X207859657Y-93237457D01*
X207383466Y-93237457D02*
X207359657Y-93189838D01*
X207359657Y-93094600D01*
X207383466Y-93046980D01*
X207407276Y-93023171D01*
X207454895Y-92999361D01*
X207597752Y-92999361D01*
X207645371Y-93023171D01*
X207669180Y-93046980D01*
X207692990Y-93094600D01*
X207692990Y-93189838D01*
X207669180Y-93237457D01*
X207669180Y-92808885D02*
X207692990Y-92761266D01*
X207692990Y-92666028D01*
X207669180Y-92618409D01*
X207621561Y-92594600D01*
X207597752Y-92594600D01*
X207550133Y-92618409D01*
X207526323Y-92666028D01*
X207526323Y-92737457D01*
X207502514Y-92785076D01*
X207454895Y-92808885D01*
X207431085Y-92808885D01*
X207383466Y-92785076D01*
X207359657Y-92737457D01*
X207359657Y-92666028D01*
X207383466Y-92618409D01*
X207645371Y-92380314D02*
X207669180Y-92356504D01*
X207692990Y-92380314D01*
X207669180Y-92404123D01*
X207645371Y-92380314D01*
X207692990Y-92380314D01*
X207383466Y-92380314D02*
X207407276Y-92356504D01*
X207431085Y-92380314D01*
X207407276Y-92404123D01*
X207383466Y-92380314D01*
X207431085Y-92380314D01*
X207169180Y-91785076D02*
X207812038Y-92213647D01*
X207169180Y-91261266D02*
X207812038Y-91689838D01*
X207359657Y-91142219D02*
X207692990Y-91046980D01*
X207454895Y-90951742D01*
X207692990Y-90856504D01*
X207359657Y-90761266D01*
X207359657Y-90618409D02*
X207692990Y-90523171D01*
X207454895Y-90427933D01*
X207692990Y-90332695D01*
X207359657Y-90237457D01*
X207359657Y-90094600D02*
X207692990Y-89999361D01*
X207454895Y-89904123D01*
X207692990Y-89808885D01*
X207359657Y-89713647D01*
X207645371Y-89523171D02*
X207669180Y-89499361D01*
X207692990Y-89523171D01*
X207669180Y-89546980D01*
X207645371Y-89523171D01*
X207692990Y-89523171D01*
X207692990Y-89070790D02*
X207431085Y-89070790D01*
X207383466Y-89094600D01*
X207359657Y-89142219D01*
X207359657Y-89237457D01*
X207383466Y-89285076D01*
X207669180Y-89070790D02*
X207692990Y-89118409D01*
X207692990Y-89237457D01*
X207669180Y-89285076D01*
X207621561Y-89308885D01*
X207573942Y-89308885D01*
X207526323Y-89285076D01*
X207502514Y-89237457D01*
X207502514Y-89118409D01*
X207478704Y-89070790D01*
X207692990Y-88832695D02*
X207359657Y-88832695D01*
X207407276Y-88832695D02*
X207383466Y-88808885D01*
X207359657Y-88761266D01*
X207359657Y-88689838D01*
X207383466Y-88642219D01*
X207431085Y-88618409D01*
X207692990Y-88618409D01*
X207431085Y-88618409D02*
X207383466Y-88594600D01*
X207359657Y-88546980D01*
X207359657Y-88475552D01*
X207383466Y-88427933D01*
X207431085Y-88404123D01*
X207692990Y-88404123D01*
X207692990Y-87951742D02*
X207431085Y-87951742D01*
X207383466Y-87975552D01*
X207359657Y-88023171D01*
X207359657Y-88118409D01*
X207383466Y-88166028D01*
X207669180Y-87951742D02*
X207692990Y-87999361D01*
X207692990Y-88118409D01*
X207669180Y-88166028D01*
X207621561Y-88189838D01*
X207573942Y-88189838D01*
X207526323Y-88166028D01*
X207502514Y-88118409D01*
X207502514Y-87999361D01*
X207478704Y-87951742D01*
X207359657Y-87761266D02*
X207359657Y-87499361D01*
X207692990Y-87761266D01*
X207692990Y-87499361D01*
X207692990Y-87237457D02*
X207669180Y-87285076D01*
X207645371Y-87308885D01*
X207597752Y-87332695D01*
X207454895Y-87332695D01*
X207407276Y-87308885D01*
X207383466Y-87285076D01*
X207359657Y-87237457D01*
X207359657Y-87166028D01*
X207383466Y-87118409D01*
X207407276Y-87094600D01*
X207454895Y-87070790D01*
X207597752Y-87070790D01*
X207645371Y-87094600D01*
X207669180Y-87118409D01*
X207692990Y-87166028D01*
X207692990Y-87237457D01*
X207359657Y-86856504D02*
X207692990Y-86856504D01*
X207407276Y-86856504D02*
X207383466Y-86832695D01*
X207359657Y-86785076D01*
X207359657Y-86713647D01*
X207383466Y-86666028D01*
X207431085Y-86642219D01*
X207692990Y-86642219D01*
X207645371Y-86404123D02*
X207669180Y-86380314D01*
X207692990Y-86404123D01*
X207669180Y-86427933D01*
X207645371Y-86404123D01*
X207692990Y-86404123D01*
X207669180Y-85951742D02*
X207692990Y-85999361D01*
X207692990Y-86094600D01*
X207669180Y-86142219D01*
X207645371Y-86166028D01*
X207597752Y-86189838D01*
X207454895Y-86189838D01*
X207407276Y-86166028D01*
X207383466Y-86142219D01*
X207359657Y-86094600D01*
X207359657Y-85999361D01*
X207383466Y-85951742D01*
X207692990Y-85666028D02*
X207669180Y-85713647D01*
X207645371Y-85737457D01*
X207597752Y-85761266D01*
X207454895Y-85761266D01*
X207407276Y-85737457D01*
X207383466Y-85713647D01*
X207359657Y-85666028D01*
X207359657Y-85594600D01*
X207383466Y-85546980D01*
X207407276Y-85523171D01*
X207454895Y-85499361D01*
X207597752Y-85499361D01*
X207645371Y-85523171D01*
X207669180Y-85546980D01*
X207692990Y-85594600D01*
X207692990Y-85666028D01*
X207692990Y-85285076D02*
X207359657Y-85285076D01*
X207407276Y-85285076D02*
X207383466Y-85261266D01*
X207359657Y-85213647D01*
X207359657Y-85142219D01*
X207383466Y-85094600D01*
X207431085Y-85070790D01*
X207692990Y-85070790D01*
X207431085Y-85070790D02*
X207383466Y-85046980D01*
X207359657Y-84999361D01*
X207359657Y-84927933D01*
X207383466Y-84880314D01*
X207431085Y-84856504D01*
X207692990Y-84856504D01*
X207169180Y-84261266D02*
X207812038Y-84689838D01*
X207692990Y-83880314D02*
X207192990Y-83880314D01*
X207669180Y-83880314D02*
X207692990Y-83927933D01*
X207692990Y-84023171D01*
X207669180Y-84070790D01*
X207645371Y-84094600D01*
X207597752Y-84118409D01*
X207454895Y-84118409D01*
X207407276Y-84094600D01*
X207383466Y-84070790D01*
X207359657Y-84023171D01*
X207359657Y-83927933D01*
X207383466Y-83880314D01*
X207359657Y-83642219D02*
X207859657Y-83642219D01*
X207383466Y-83642219D02*
X207359657Y-83594600D01*
X207359657Y-83499361D01*
X207383466Y-83451742D01*
X207407276Y-83427933D01*
X207454895Y-83404123D01*
X207597752Y-83404123D01*
X207645371Y-83427933D01*
X207669180Y-83451742D01*
X207692990Y-83499361D01*
X207692990Y-83594600D01*
X207669180Y-83642219D01*
X207169180Y-82832695D02*
X207812038Y-83261266D01*
X207431085Y-82499361D02*
X207454895Y-82427933D01*
X207478704Y-82404123D01*
X207526323Y-82380314D01*
X207597752Y-82380314D01*
X207645371Y-82404123D01*
X207669180Y-82427933D01*
X207692990Y-82475552D01*
X207692990Y-82666028D01*
X207192990Y-82666028D01*
X207192990Y-82499361D01*
X207216800Y-82451742D01*
X207240609Y-82427933D01*
X207288228Y-82404123D01*
X207335847Y-82404123D01*
X207383466Y-82427933D01*
X207407276Y-82451742D01*
X207431085Y-82499361D01*
X207431085Y-82666028D01*
X207192990Y-82070790D02*
X207192990Y-82023171D01*
X207216800Y-81975552D01*
X207240609Y-81951742D01*
X207288228Y-81927933D01*
X207383466Y-81904123D01*
X207502514Y-81904123D01*
X207597752Y-81927933D01*
X207645371Y-81951742D01*
X207669180Y-81975552D01*
X207692990Y-82023171D01*
X207692990Y-82070790D01*
X207669180Y-82118409D01*
X207645371Y-82142219D01*
X207597752Y-82166028D01*
X207502514Y-82189838D01*
X207383466Y-82189838D01*
X207288228Y-82166028D01*
X207240609Y-82142219D01*
X207216800Y-82118409D01*
X207192990Y-82070790D01*
X207407276Y-81618409D02*
X207383466Y-81666028D01*
X207359657Y-81689838D01*
X207312038Y-81713647D01*
X207288228Y-81713647D01*
X207240609Y-81689838D01*
X207216800Y-81666028D01*
X207192990Y-81618409D01*
X207192990Y-81523171D01*
X207216800Y-81475552D01*
X207240609Y-81451742D01*
X207288228Y-81427933D01*
X207312038Y-81427933D01*
X207359657Y-81451742D01*
X207383466Y-81475552D01*
X207407276Y-81523171D01*
X207407276Y-81618409D01*
X207431085Y-81666028D01*
X207454895Y-81689838D01*
X207502514Y-81713647D01*
X207597752Y-81713647D01*
X207645371Y-81689838D01*
X207669180Y-81666028D01*
X207692990Y-81618409D01*
X207692990Y-81523171D01*
X207669180Y-81475552D01*
X207645371Y-81451742D01*
X207597752Y-81427933D01*
X207502514Y-81427933D01*
X207454895Y-81451742D01*
X207431085Y-81475552D01*
X207407276Y-81523171D01*
X207240609Y-81237457D02*
X207216800Y-81213647D01*
X207192990Y-81166028D01*
X207192990Y-81046980D01*
X207216800Y-80999361D01*
X207240609Y-80975552D01*
X207288228Y-80951742D01*
X207335847Y-80951742D01*
X207407276Y-80975552D01*
X207692990Y-81261266D01*
X207692990Y-80951742D01*
X207192990Y-80785076D02*
X207192990Y-80475552D01*
X207383466Y-80642219D01*
X207383466Y-80570790D01*
X207407276Y-80523171D01*
X207431085Y-80499361D01*
X207478704Y-80475552D01*
X207597752Y-80475552D01*
X207645371Y-80499361D01*
X207669180Y-80523171D01*
X207692990Y-80570790D01*
X207692990Y-80713647D01*
X207669180Y-80761266D01*
X207645371Y-80785076D01*
X207740609Y-79927933D02*
X207716800Y-79975552D01*
X207669180Y-80023171D01*
X207597752Y-80094600D01*
X207573942Y-80142219D01*
X207573942Y-80189838D01*
X207692990Y-80166028D02*
X207669180Y-80213647D01*
X207621561Y-80261266D01*
X207526323Y-80285076D01*
X207359657Y-80285076D01*
X207264419Y-80261266D01*
X207216800Y-80213647D01*
X207192990Y-80166028D01*
X207192990Y-80070790D01*
X207216800Y-80023171D01*
X207264419Y-79975552D01*
X207359657Y-79951742D01*
X207526323Y-79951742D01*
X207621561Y-79975552D01*
X207669180Y-80023171D01*
X207692990Y-80070790D01*
X207692990Y-80166028D01*
X207692990Y-79499361D02*
X207692990Y-79737457D01*
X207192990Y-79737457D01*
X207692990Y-79332695D02*
X207192990Y-79332695D01*
X207550133Y-79166028D01*
X207192990Y-78999361D01*
X207692990Y-78999361D01*
X207192990Y-78808885D02*
X207692990Y-78689838D01*
X207335847Y-78594600D01*
X207692990Y-78499361D01*
X207192990Y-78380314D01*
X207645371Y-77904123D02*
X207669180Y-77927933D01*
X207692990Y-77999361D01*
X207692990Y-78046980D01*
X207669180Y-78118409D01*
X207621561Y-78166028D01*
X207573942Y-78189838D01*
X207478704Y-78213647D01*
X207407276Y-78213647D01*
X207312038Y-78189838D01*
X207264419Y-78166028D01*
X207216800Y-78118409D01*
X207192990Y-78046980D01*
X207192990Y-77999361D01*
X207216800Y-77927933D01*
X207240609Y-77904123D01*
X211502990Y-96233552D02*
X211002990Y-96233552D01*
X211502990Y-96019266D02*
X211241085Y-96019266D01*
X211193466Y-96043076D01*
X211169657Y-96090695D01*
X211169657Y-96162123D01*
X211193466Y-96209742D01*
X211217276Y-96233552D01*
X211169657Y-95852600D02*
X211169657Y-95662123D01*
X211002990Y-95781171D02*
X211431561Y-95781171D01*
X211479180Y-95757361D01*
X211502990Y-95709742D01*
X211502990Y-95662123D01*
X211169657Y-95566885D02*
X211169657Y-95376409D01*
X211002990Y-95495457D02*
X211431561Y-95495457D01*
X211479180Y-95471647D01*
X211502990Y-95424028D01*
X211502990Y-95376409D01*
X211169657Y-95209742D02*
X211669657Y-95209742D01*
X211193466Y-95209742D02*
X211169657Y-95162123D01*
X211169657Y-95066885D01*
X211193466Y-95019266D01*
X211217276Y-94995457D01*
X211264895Y-94971647D01*
X211407752Y-94971647D01*
X211455371Y-94995457D01*
X211479180Y-95019266D01*
X211502990Y-95066885D01*
X211502990Y-95162123D01*
X211479180Y-95209742D01*
X211479180Y-94781171D02*
X211502990Y-94733552D01*
X211502990Y-94638314D01*
X211479180Y-94590695D01*
X211431561Y-94566885D01*
X211407752Y-94566885D01*
X211360133Y-94590695D01*
X211336323Y-94638314D01*
X211336323Y-94709742D01*
X211312514Y-94757361D01*
X211264895Y-94781171D01*
X211241085Y-94781171D01*
X211193466Y-94757361D01*
X211169657Y-94709742D01*
X211169657Y-94638314D01*
X211193466Y-94590695D01*
X211455371Y-94352600D02*
X211479180Y-94328790D01*
X211502990Y-94352600D01*
X211479180Y-94376409D01*
X211455371Y-94352600D01*
X211502990Y-94352600D01*
X211193466Y-94352600D02*
X211217276Y-94328790D01*
X211241085Y-94352600D01*
X211217276Y-94376409D01*
X211193466Y-94352600D01*
X211241085Y-94352600D01*
X210979180Y-93757361D02*
X211622038Y-94185933D01*
X210979180Y-93233552D02*
X211622038Y-93662123D01*
X211169657Y-93114504D02*
X211502990Y-93019266D01*
X211264895Y-92924028D01*
X211502990Y-92828790D01*
X211169657Y-92733552D01*
X211169657Y-92590695D02*
X211502990Y-92495457D01*
X211264895Y-92400219D01*
X211502990Y-92304980D01*
X211169657Y-92209742D01*
X211169657Y-92066885D02*
X211502990Y-91971647D01*
X211264895Y-91876409D01*
X211502990Y-91781171D01*
X211169657Y-91685933D01*
X211455371Y-91495457D02*
X211479180Y-91471647D01*
X211502990Y-91495457D01*
X211479180Y-91519266D01*
X211455371Y-91495457D01*
X211502990Y-91495457D01*
X211502990Y-91043076D02*
X211241085Y-91043076D01*
X211193466Y-91066885D01*
X211169657Y-91114504D01*
X211169657Y-91209742D01*
X211193466Y-91257361D01*
X211479180Y-91043076D02*
X211502990Y-91090695D01*
X211502990Y-91209742D01*
X211479180Y-91257361D01*
X211431561Y-91281171D01*
X211383942Y-91281171D01*
X211336323Y-91257361D01*
X211312514Y-91209742D01*
X211312514Y-91090695D01*
X211288704Y-91043076D01*
X211502990Y-90804980D02*
X211169657Y-90804980D01*
X211217276Y-90804980D02*
X211193466Y-90781171D01*
X211169657Y-90733552D01*
X211169657Y-90662123D01*
X211193466Y-90614504D01*
X211241085Y-90590695D01*
X211502990Y-90590695D01*
X211241085Y-90590695D02*
X211193466Y-90566885D01*
X211169657Y-90519266D01*
X211169657Y-90447838D01*
X211193466Y-90400219D01*
X211241085Y-90376409D01*
X211502990Y-90376409D01*
X211502990Y-89924028D02*
X211241085Y-89924028D01*
X211193466Y-89947838D01*
X211169657Y-89995457D01*
X211169657Y-90090695D01*
X211193466Y-90138314D01*
X211479180Y-89924028D02*
X211502990Y-89971647D01*
X211502990Y-90090695D01*
X211479180Y-90138314D01*
X211431561Y-90162123D01*
X211383942Y-90162123D01*
X211336323Y-90138314D01*
X211312514Y-90090695D01*
X211312514Y-89971647D01*
X211288704Y-89924028D01*
X211169657Y-89733552D02*
X211169657Y-89471647D01*
X211502990Y-89733552D01*
X211502990Y-89471647D01*
X211502990Y-89209742D02*
X211479180Y-89257361D01*
X211455371Y-89281171D01*
X211407752Y-89304980D01*
X211264895Y-89304980D01*
X211217276Y-89281171D01*
X211193466Y-89257361D01*
X211169657Y-89209742D01*
X211169657Y-89138314D01*
X211193466Y-89090695D01*
X211217276Y-89066885D01*
X211264895Y-89043076D01*
X211407752Y-89043076D01*
X211455371Y-89066885D01*
X211479180Y-89090695D01*
X211502990Y-89138314D01*
X211502990Y-89209742D01*
X211169657Y-88828790D02*
X211502990Y-88828790D01*
X211217276Y-88828790D02*
X211193466Y-88804980D01*
X211169657Y-88757361D01*
X211169657Y-88685933D01*
X211193466Y-88638314D01*
X211241085Y-88614504D01*
X211502990Y-88614504D01*
X211455371Y-88376409D02*
X211479180Y-88352600D01*
X211502990Y-88376409D01*
X211479180Y-88400219D01*
X211455371Y-88376409D01*
X211502990Y-88376409D01*
X211479180Y-87924028D02*
X211502990Y-87971647D01*
X211502990Y-88066885D01*
X211479180Y-88114504D01*
X211455371Y-88138314D01*
X211407752Y-88162123D01*
X211264895Y-88162123D01*
X211217276Y-88138314D01*
X211193466Y-88114504D01*
X211169657Y-88066885D01*
X211169657Y-87971647D01*
X211193466Y-87924028D01*
X211502990Y-87638314D02*
X211479180Y-87685933D01*
X211455371Y-87709742D01*
X211407752Y-87733552D01*
X211264895Y-87733552D01*
X211217276Y-87709742D01*
X211193466Y-87685933D01*
X211169657Y-87638314D01*
X211169657Y-87566885D01*
X211193466Y-87519266D01*
X211217276Y-87495457D01*
X211264895Y-87471647D01*
X211407752Y-87471647D01*
X211455371Y-87495457D01*
X211479180Y-87519266D01*
X211502990Y-87566885D01*
X211502990Y-87638314D01*
X211502990Y-87257361D02*
X211169657Y-87257361D01*
X211217276Y-87257361D02*
X211193466Y-87233552D01*
X211169657Y-87185933D01*
X211169657Y-87114504D01*
X211193466Y-87066885D01*
X211241085Y-87043076D01*
X211502990Y-87043076D01*
X211241085Y-87043076D02*
X211193466Y-87019266D01*
X211169657Y-86971647D01*
X211169657Y-86900219D01*
X211193466Y-86852600D01*
X211241085Y-86828790D01*
X211502990Y-86828790D01*
X210979180Y-86233552D02*
X211622038Y-86662123D01*
X211169657Y-85852600D02*
X211574419Y-85852600D01*
X211622038Y-85876409D01*
X211645847Y-85900219D01*
X211669657Y-85947838D01*
X211669657Y-86019266D01*
X211645847Y-86066885D01*
X211479180Y-85852600D02*
X211502990Y-85900219D01*
X211502990Y-85995457D01*
X211479180Y-86043076D01*
X211455371Y-86066885D01*
X211407752Y-86090695D01*
X211264895Y-86090695D01*
X211217276Y-86066885D01*
X211193466Y-86043076D01*
X211169657Y-85995457D01*
X211169657Y-85900219D01*
X211193466Y-85852600D01*
X211169657Y-85614504D02*
X211669657Y-85614504D01*
X211193466Y-85614504D02*
X211169657Y-85566885D01*
X211169657Y-85471647D01*
X211193466Y-85424028D01*
X211217276Y-85400219D01*
X211264895Y-85376409D01*
X211407752Y-85376409D01*
X211455371Y-85400219D01*
X211479180Y-85424028D01*
X211502990Y-85471647D01*
X211502990Y-85566885D01*
X211479180Y-85614504D01*
X210979180Y-84804980D02*
X211622038Y-85233552D01*
X211169657Y-84638314D02*
X211669657Y-84638314D01*
X211193466Y-84638314D02*
X211169657Y-84590695D01*
X211169657Y-84495457D01*
X211193466Y-84447838D01*
X211217276Y-84424028D01*
X211264895Y-84400219D01*
X211407752Y-84400219D01*
X211455371Y-84424028D01*
X211479180Y-84447838D01*
X211502990Y-84495457D01*
X211502990Y-84590695D01*
X211479180Y-84638314D01*
X211502990Y-84185933D02*
X211169657Y-84185933D01*
X211264895Y-84185933D02*
X211217276Y-84162123D01*
X211193466Y-84138314D01*
X211169657Y-84090695D01*
X211169657Y-84043076D01*
X211502990Y-83804980D02*
X211479180Y-83852600D01*
X211455371Y-83876409D01*
X211407752Y-83900219D01*
X211264895Y-83900219D01*
X211217276Y-83876409D01*
X211193466Y-83852600D01*
X211169657Y-83804980D01*
X211169657Y-83733552D01*
X211193466Y-83685933D01*
X211217276Y-83662123D01*
X211264895Y-83638314D01*
X211407752Y-83638314D01*
X211455371Y-83662123D01*
X211479180Y-83685933D01*
X211502990Y-83733552D01*
X211502990Y-83804980D01*
X211502990Y-83209742D02*
X211002990Y-83209742D01*
X211479180Y-83209742D02*
X211502990Y-83257361D01*
X211502990Y-83352600D01*
X211479180Y-83400219D01*
X211455371Y-83424028D01*
X211407752Y-83447838D01*
X211264895Y-83447838D01*
X211217276Y-83424028D01*
X211193466Y-83400219D01*
X211169657Y-83352600D01*
X211169657Y-83257361D01*
X211193466Y-83209742D01*
X211169657Y-82757361D02*
X211502990Y-82757361D01*
X211169657Y-82971647D02*
X211431561Y-82971647D01*
X211479180Y-82947838D01*
X211502990Y-82900219D01*
X211502990Y-82828790D01*
X211479180Y-82781171D01*
X211455371Y-82757361D01*
X211479180Y-82304980D02*
X211502990Y-82352600D01*
X211502990Y-82447838D01*
X211479180Y-82495457D01*
X211455371Y-82519266D01*
X211407752Y-82543076D01*
X211264895Y-82543076D01*
X211217276Y-82519266D01*
X211193466Y-82495457D01*
X211169657Y-82447838D01*
X211169657Y-82352600D01*
X211193466Y-82304980D01*
X211169657Y-82162123D02*
X211169657Y-81971647D01*
X211002990Y-82090695D02*
X211431561Y-82090695D01*
X211479180Y-82066885D01*
X211502990Y-82019266D01*
X211502990Y-81971647D01*
X210979180Y-81447838D02*
X211622038Y-81876409D01*
X211241085Y-81114504D02*
X211264895Y-81043076D01*
X211288704Y-81019266D01*
X211336323Y-80995457D01*
X211407752Y-80995457D01*
X211455371Y-81019266D01*
X211479180Y-81043076D01*
X211502990Y-81090695D01*
X211502990Y-81281171D01*
X211002990Y-81281171D01*
X211002990Y-81114504D01*
X211026800Y-81066885D01*
X211050609Y-81043076D01*
X211098228Y-81019266D01*
X211145847Y-81019266D01*
X211193466Y-81043076D01*
X211217276Y-81066885D01*
X211241085Y-81114504D01*
X211241085Y-81281171D01*
X211002990Y-80685933D02*
X211002990Y-80638314D01*
X211026800Y-80590695D01*
X211050609Y-80566885D01*
X211098228Y-80543076D01*
X211193466Y-80519266D01*
X211312514Y-80519266D01*
X211407752Y-80543076D01*
X211455371Y-80566885D01*
X211479180Y-80590695D01*
X211502990Y-80638314D01*
X211502990Y-80685933D01*
X211479180Y-80733552D01*
X211455371Y-80757361D01*
X211407752Y-80781171D01*
X211312514Y-80804980D01*
X211193466Y-80804980D01*
X211098228Y-80781171D01*
X211050609Y-80757361D01*
X211026800Y-80733552D01*
X211002990Y-80685933D01*
X211217276Y-80233552D02*
X211193466Y-80281171D01*
X211169657Y-80304980D01*
X211122038Y-80328790D01*
X211098228Y-80328790D01*
X211050609Y-80304980D01*
X211026800Y-80281171D01*
X211002990Y-80233552D01*
X211002990Y-80138314D01*
X211026800Y-80090695D01*
X211050609Y-80066885D01*
X211098228Y-80043076D01*
X211122038Y-80043076D01*
X211169657Y-80066885D01*
X211193466Y-80090695D01*
X211217276Y-80138314D01*
X211217276Y-80233552D01*
X211241085Y-80281171D01*
X211264895Y-80304980D01*
X211312514Y-80328790D01*
X211407752Y-80328790D01*
X211455371Y-80304980D01*
X211479180Y-80281171D01*
X211502990Y-80233552D01*
X211502990Y-80138314D01*
X211479180Y-80090695D01*
X211455371Y-80066885D01*
X211407752Y-80043076D01*
X211312514Y-80043076D01*
X211264895Y-80066885D01*
X211241085Y-80090695D01*
X211217276Y-80138314D01*
X211002990Y-79685933D02*
X211360133Y-79685933D01*
X211431561Y-79709742D01*
X211479180Y-79757361D01*
X211502990Y-79828790D01*
X211502990Y-79876409D01*
X211002990Y-79495457D02*
X211002990Y-79162123D01*
X211502990Y-79495457D01*
X211502990Y-79162123D01*
X211002990Y-78733552D02*
X211002990Y-78971647D01*
X211241085Y-78995457D01*
X211217276Y-78971647D01*
X211193466Y-78924028D01*
X211193466Y-78804980D01*
X211217276Y-78757361D01*
X211241085Y-78733552D01*
X211288704Y-78709742D01*
X211407752Y-78709742D01*
X211455371Y-78733552D01*
X211479180Y-78757361D01*
X211502990Y-78804980D01*
X211502990Y-78924028D01*
X211479180Y-78971647D01*
X211455371Y-78995457D01*
X211241085Y-78328790D02*
X211241085Y-78495457D01*
X211502990Y-78495457D02*
X211002990Y-78495457D01*
X211002990Y-78257361D01*
X211002990Y-78138314D02*
X211502990Y-77971647D01*
X211002990Y-77804980D01*
X211502990Y-77400219D02*
X211502990Y-77638314D01*
X211002990Y-77638314D01*
X211455371Y-76947838D02*
X211479180Y-76971647D01*
X211502990Y-77043076D01*
X211502990Y-77090695D01*
X211479180Y-77162123D01*
X211431561Y-77209742D01*
X211383942Y-77233552D01*
X211288704Y-77257361D01*
X211217276Y-77257361D01*
X211122038Y-77233552D01*
X211074419Y-77209742D01*
X211026800Y-77162123D01*
X211002990Y-77090695D01*
X211002990Y-77043076D01*
X211026800Y-76971647D01*
X211050609Y-76947838D01*
D12*
X204978800Y-145152600D02*
X211778800Y-145152600D01*
X202378800Y-144252600D02*
X195578800Y-144252600D01*
X204978800Y-144252600D02*
X211778800Y-144252600D01*
X202378800Y-145152600D02*
X195578800Y-145152600D01*
X202480228Y-144752600D02*
G75*
G03*
X202480228Y-144752600I-3501428J0D01*
G01*
X211878800Y-144752600D02*
G75*
G03*
X211878800Y-144752600I-3500000J0D01*
G01*
X81378800Y-145152600D02*
X74578800Y-145152600D01*
X83978800Y-144252600D02*
X90778800Y-144252600D01*
X83978800Y-145152600D02*
X90778800Y-145152600D01*
X81378800Y-144252600D02*
X74578800Y-144252600D01*
X90878800Y-144752600D02*
G75*
G03*
X90878800Y-144752600I-3500000J0D01*
G01*
X81480228Y-144752600D02*
G75*
G03*
X81480228Y-144752600I-3501428J0D01*
G01*
M02*
