G04 #@! TF.GenerationSoftware,KiCad,Pcbnew,(5.1.10)-1*
G04 #@! TF.CreationDate,2021-09-14T00:26:53-04:00*
G04 #@! TF.ProjectId,PB_16,50425f31-362e-46b6-9963-61645f706362,v1*
G04 #@! TF.SameCoordinates,Original*
G04 #@! TF.FileFunction,Soldermask,Top*
G04 #@! TF.FilePolarity,Negative*
%FSLAX46Y46*%
G04 Gerber Fmt 4.6, Leading zero omitted, Abs format (unit mm)*
G04 Created by KiCad (PCBNEW (5.1.10)-1) date 2021-09-14 00:26:53*
%MOMM*%
%LPD*%
G01*
G04 APERTURE LIST*
%ADD10O,1.829200X1.829200*%
%ADD11C,1.632000*%
%ADD12C,3.802000*%
%ADD13C,4.102000*%
%ADD14C,2.577000*%
%ADD15O,1.902000X3.702000*%
%ADD16O,1.702000X1.702000*%
%ADD17C,0.100000*%
G04 APERTURE END LIST*
G36*
G01*
X182379828Y-103218800D02*
X181422172Y-103218800D01*
G75*
G02*
X181150000Y-102946628I0J272172D01*
G01*
X181150000Y-102238972D01*
G75*
G02*
X181422172Y-101966800I272172J0D01*
G01*
X182379828Y-101966800D01*
G75*
G02*
X182652000Y-102238972I0J-272172D01*
G01*
X182652000Y-102946628D01*
G75*
G02*
X182379828Y-103218800I-272172J0D01*
G01*
G37*
G36*
G01*
X182379828Y-105268800D02*
X181422172Y-105268800D01*
G75*
G02*
X181150000Y-104996628I0J272172D01*
G01*
X181150000Y-104288972D01*
G75*
G02*
X181422172Y-104016800I272172J0D01*
G01*
X182379828Y-104016800D01*
G75*
G02*
X182652000Y-104288972I0J-272172D01*
G01*
X182652000Y-104996628D01*
G75*
G02*
X182379828Y-105268800I-272172J0D01*
G01*
G37*
G36*
G01*
X122979828Y-103218800D02*
X122022172Y-103218800D01*
G75*
G02*
X121750000Y-102946628I0J272172D01*
G01*
X121750000Y-102238972D01*
G75*
G02*
X122022172Y-101966800I272172J0D01*
G01*
X122979828Y-101966800D01*
G75*
G02*
X123252000Y-102238972I0J-272172D01*
G01*
X123252000Y-102946628D01*
G75*
G02*
X122979828Y-103218800I-272172J0D01*
G01*
G37*
G36*
G01*
X122979828Y-105268800D02*
X122022172Y-105268800D01*
G75*
G02*
X121750000Y-104996628I0J272172D01*
G01*
X121750000Y-104288972D01*
G75*
G02*
X122022172Y-104016800I272172J0D01*
G01*
X122979828Y-104016800D01*
G75*
G02*
X123252000Y-104288972I0J-272172D01*
G01*
X123252000Y-104996628D01*
G75*
G02*
X122979828Y-105268800I-272172J0D01*
G01*
G37*
G36*
G01*
X178840500Y-103591800D02*
X179191500Y-103591800D01*
G75*
G02*
X179367000Y-103767300I0J-175500D01*
G01*
X179367000Y-105568300D01*
G75*
G02*
X179191500Y-105743800I-175500J0D01*
G01*
X178840500Y-105743800D01*
G75*
G02*
X178665000Y-105568300I0J175500D01*
G01*
X178665000Y-103767300D01*
G75*
G02*
X178840500Y-103591800I175500J0D01*
G01*
G37*
G36*
G01*
X177570500Y-103591800D02*
X177921500Y-103591800D01*
G75*
G02*
X178097000Y-103767300I0J-175500D01*
G01*
X178097000Y-105568300D01*
G75*
G02*
X177921500Y-105743800I-175500J0D01*
G01*
X177570500Y-105743800D01*
G75*
G02*
X177395000Y-105568300I0J175500D01*
G01*
X177395000Y-103767300D01*
G75*
G02*
X177570500Y-103591800I175500J0D01*
G01*
G37*
G36*
G01*
X176300500Y-103591800D02*
X176651500Y-103591800D01*
G75*
G02*
X176827000Y-103767300I0J-175500D01*
G01*
X176827000Y-105568300D01*
G75*
G02*
X176651500Y-105743800I-175500J0D01*
G01*
X176300500Y-105743800D01*
G75*
G02*
X176125000Y-105568300I0J175500D01*
G01*
X176125000Y-103767300D01*
G75*
G02*
X176300500Y-103591800I175500J0D01*
G01*
G37*
G36*
G01*
X175030500Y-103591800D02*
X175381500Y-103591800D01*
G75*
G02*
X175557000Y-103767300I0J-175500D01*
G01*
X175557000Y-105568300D01*
G75*
G02*
X175381500Y-105743800I-175500J0D01*
G01*
X175030500Y-105743800D01*
G75*
G02*
X174855000Y-105568300I0J175500D01*
G01*
X174855000Y-103767300D01*
G75*
G02*
X175030500Y-103591800I175500J0D01*
G01*
G37*
G36*
G01*
X173760500Y-103591800D02*
X174111500Y-103591800D01*
G75*
G02*
X174287000Y-103767300I0J-175500D01*
G01*
X174287000Y-105568300D01*
G75*
G02*
X174111500Y-105743800I-175500J0D01*
G01*
X173760500Y-105743800D01*
G75*
G02*
X173585000Y-105568300I0J175500D01*
G01*
X173585000Y-103767300D01*
G75*
G02*
X173760500Y-103591800I175500J0D01*
G01*
G37*
G36*
G01*
X172490500Y-103591800D02*
X172841500Y-103591800D01*
G75*
G02*
X173017000Y-103767300I0J-175500D01*
G01*
X173017000Y-105568300D01*
G75*
G02*
X172841500Y-105743800I-175500J0D01*
G01*
X172490500Y-105743800D01*
G75*
G02*
X172315000Y-105568300I0J175500D01*
G01*
X172315000Y-103767300D01*
G75*
G02*
X172490500Y-103591800I175500J0D01*
G01*
G37*
G36*
G01*
X171220500Y-103591800D02*
X171571500Y-103591800D01*
G75*
G02*
X171747000Y-103767300I0J-175500D01*
G01*
X171747000Y-105568300D01*
G75*
G02*
X171571500Y-105743800I-175500J0D01*
G01*
X171220500Y-105743800D01*
G75*
G02*
X171045000Y-105568300I0J175500D01*
G01*
X171045000Y-103767300D01*
G75*
G02*
X171220500Y-103591800I175500J0D01*
G01*
G37*
G36*
G01*
X169950500Y-103591800D02*
X170301500Y-103591800D01*
G75*
G02*
X170477000Y-103767300I0J-175500D01*
G01*
X170477000Y-105568300D01*
G75*
G02*
X170301500Y-105743800I-175500J0D01*
G01*
X169950500Y-105743800D01*
G75*
G02*
X169775000Y-105568300I0J175500D01*
G01*
X169775000Y-103767300D01*
G75*
G02*
X169950500Y-103591800I175500J0D01*
G01*
G37*
G36*
G01*
X168680500Y-103591800D02*
X169031500Y-103591800D01*
G75*
G02*
X169207000Y-103767300I0J-175500D01*
G01*
X169207000Y-105568300D01*
G75*
G02*
X169031500Y-105743800I-175500J0D01*
G01*
X168680500Y-105743800D01*
G75*
G02*
X168505000Y-105568300I0J175500D01*
G01*
X168505000Y-103767300D01*
G75*
G02*
X168680500Y-103591800I175500J0D01*
G01*
G37*
G36*
G01*
X167410500Y-103591800D02*
X167761500Y-103591800D01*
G75*
G02*
X167937000Y-103767300I0J-175500D01*
G01*
X167937000Y-105568300D01*
G75*
G02*
X167761500Y-105743800I-175500J0D01*
G01*
X167410500Y-105743800D01*
G75*
G02*
X167235000Y-105568300I0J175500D01*
G01*
X167235000Y-103767300D01*
G75*
G02*
X167410500Y-103591800I175500J0D01*
G01*
G37*
G36*
G01*
X167410500Y-94291800D02*
X167761500Y-94291800D01*
G75*
G02*
X167937000Y-94467300I0J-175500D01*
G01*
X167937000Y-96268300D01*
G75*
G02*
X167761500Y-96443800I-175500J0D01*
G01*
X167410500Y-96443800D01*
G75*
G02*
X167235000Y-96268300I0J175500D01*
G01*
X167235000Y-94467300D01*
G75*
G02*
X167410500Y-94291800I175500J0D01*
G01*
G37*
G36*
G01*
X168680500Y-94291800D02*
X169031500Y-94291800D01*
G75*
G02*
X169207000Y-94467300I0J-175500D01*
G01*
X169207000Y-96268300D01*
G75*
G02*
X169031500Y-96443800I-175500J0D01*
G01*
X168680500Y-96443800D01*
G75*
G02*
X168505000Y-96268300I0J175500D01*
G01*
X168505000Y-94467300D01*
G75*
G02*
X168680500Y-94291800I175500J0D01*
G01*
G37*
G36*
G01*
X169950500Y-94291800D02*
X170301500Y-94291800D01*
G75*
G02*
X170477000Y-94467300I0J-175500D01*
G01*
X170477000Y-96268300D01*
G75*
G02*
X170301500Y-96443800I-175500J0D01*
G01*
X169950500Y-96443800D01*
G75*
G02*
X169775000Y-96268300I0J175500D01*
G01*
X169775000Y-94467300D01*
G75*
G02*
X169950500Y-94291800I175500J0D01*
G01*
G37*
G36*
G01*
X171220500Y-94291800D02*
X171571500Y-94291800D01*
G75*
G02*
X171747000Y-94467300I0J-175500D01*
G01*
X171747000Y-96268300D01*
G75*
G02*
X171571500Y-96443800I-175500J0D01*
G01*
X171220500Y-96443800D01*
G75*
G02*
X171045000Y-96268300I0J175500D01*
G01*
X171045000Y-94467300D01*
G75*
G02*
X171220500Y-94291800I175500J0D01*
G01*
G37*
G36*
G01*
X172490500Y-94291800D02*
X172841500Y-94291800D01*
G75*
G02*
X173017000Y-94467300I0J-175500D01*
G01*
X173017000Y-96268300D01*
G75*
G02*
X172841500Y-96443800I-175500J0D01*
G01*
X172490500Y-96443800D01*
G75*
G02*
X172315000Y-96268300I0J175500D01*
G01*
X172315000Y-94467300D01*
G75*
G02*
X172490500Y-94291800I175500J0D01*
G01*
G37*
G36*
G01*
X173760500Y-94291800D02*
X174111500Y-94291800D01*
G75*
G02*
X174287000Y-94467300I0J-175500D01*
G01*
X174287000Y-96268300D01*
G75*
G02*
X174111500Y-96443800I-175500J0D01*
G01*
X173760500Y-96443800D01*
G75*
G02*
X173585000Y-96268300I0J175500D01*
G01*
X173585000Y-94467300D01*
G75*
G02*
X173760500Y-94291800I175500J0D01*
G01*
G37*
G36*
G01*
X175030500Y-94291800D02*
X175381500Y-94291800D01*
G75*
G02*
X175557000Y-94467300I0J-175500D01*
G01*
X175557000Y-96268300D01*
G75*
G02*
X175381500Y-96443800I-175500J0D01*
G01*
X175030500Y-96443800D01*
G75*
G02*
X174855000Y-96268300I0J175500D01*
G01*
X174855000Y-94467300D01*
G75*
G02*
X175030500Y-94291800I175500J0D01*
G01*
G37*
G36*
G01*
X176300500Y-94291800D02*
X176651500Y-94291800D01*
G75*
G02*
X176827000Y-94467300I0J-175500D01*
G01*
X176827000Y-96268300D01*
G75*
G02*
X176651500Y-96443800I-175500J0D01*
G01*
X176300500Y-96443800D01*
G75*
G02*
X176125000Y-96268300I0J175500D01*
G01*
X176125000Y-94467300D01*
G75*
G02*
X176300500Y-94291800I175500J0D01*
G01*
G37*
G36*
G01*
X177570500Y-94291800D02*
X177921500Y-94291800D01*
G75*
G02*
X178097000Y-94467300I0J-175500D01*
G01*
X178097000Y-96268300D01*
G75*
G02*
X177921500Y-96443800I-175500J0D01*
G01*
X177570500Y-96443800D01*
G75*
G02*
X177395000Y-96268300I0J175500D01*
G01*
X177395000Y-94467300D01*
G75*
G02*
X177570500Y-94291800I175500J0D01*
G01*
G37*
G36*
G01*
X178840500Y-94291800D02*
X179191500Y-94291800D01*
G75*
G02*
X179367000Y-94467300I0J-175500D01*
G01*
X179367000Y-96268300D01*
G75*
G02*
X179191500Y-96443800I-175500J0D01*
G01*
X178840500Y-96443800D01*
G75*
G02*
X178665000Y-96268300I0J175500D01*
G01*
X178665000Y-94467300D01*
G75*
G02*
X178840500Y-94291800I175500J0D01*
G01*
G37*
G36*
G01*
X119640500Y-103591800D02*
X119991500Y-103591800D01*
G75*
G02*
X120167000Y-103767300I0J-175500D01*
G01*
X120167000Y-105568300D01*
G75*
G02*
X119991500Y-105743800I-175500J0D01*
G01*
X119640500Y-105743800D01*
G75*
G02*
X119465000Y-105568300I0J175500D01*
G01*
X119465000Y-103767300D01*
G75*
G02*
X119640500Y-103591800I175500J0D01*
G01*
G37*
G36*
G01*
X118370500Y-103591800D02*
X118721500Y-103591800D01*
G75*
G02*
X118897000Y-103767300I0J-175500D01*
G01*
X118897000Y-105568300D01*
G75*
G02*
X118721500Y-105743800I-175500J0D01*
G01*
X118370500Y-105743800D01*
G75*
G02*
X118195000Y-105568300I0J175500D01*
G01*
X118195000Y-103767300D01*
G75*
G02*
X118370500Y-103591800I175500J0D01*
G01*
G37*
G36*
G01*
X117100500Y-103591800D02*
X117451500Y-103591800D01*
G75*
G02*
X117627000Y-103767300I0J-175500D01*
G01*
X117627000Y-105568300D01*
G75*
G02*
X117451500Y-105743800I-175500J0D01*
G01*
X117100500Y-105743800D01*
G75*
G02*
X116925000Y-105568300I0J175500D01*
G01*
X116925000Y-103767300D01*
G75*
G02*
X117100500Y-103591800I175500J0D01*
G01*
G37*
G36*
G01*
X115830500Y-103591800D02*
X116181500Y-103591800D01*
G75*
G02*
X116357000Y-103767300I0J-175500D01*
G01*
X116357000Y-105568300D01*
G75*
G02*
X116181500Y-105743800I-175500J0D01*
G01*
X115830500Y-105743800D01*
G75*
G02*
X115655000Y-105568300I0J175500D01*
G01*
X115655000Y-103767300D01*
G75*
G02*
X115830500Y-103591800I175500J0D01*
G01*
G37*
G36*
G01*
X114560500Y-103591800D02*
X114911500Y-103591800D01*
G75*
G02*
X115087000Y-103767300I0J-175500D01*
G01*
X115087000Y-105568300D01*
G75*
G02*
X114911500Y-105743800I-175500J0D01*
G01*
X114560500Y-105743800D01*
G75*
G02*
X114385000Y-105568300I0J175500D01*
G01*
X114385000Y-103767300D01*
G75*
G02*
X114560500Y-103591800I175500J0D01*
G01*
G37*
G36*
G01*
X113290500Y-103591800D02*
X113641500Y-103591800D01*
G75*
G02*
X113817000Y-103767300I0J-175500D01*
G01*
X113817000Y-105568300D01*
G75*
G02*
X113641500Y-105743800I-175500J0D01*
G01*
X113290500Y-105743800D01*
G75*
G02*
X113115000Y-105568300I0J175500D01*
G01*
X113115000Y-103767300D01*
G75*
G02*
X113290500Y-103591800I175500J0D01*
G01*
G37*
G36*
G01*
X112020500Y-103591800D02*
X112371500Y-103591800D01*
G75*
G02*
X112547000Y-103767300I0J-175500D01*
G01*
X112547000Y-105568300D01*
G75*
G02*
X112371500Y-105743800I-175500J0D01*
G01*
X112020500Y-105743800D01*
G75*
G02*
X111845000Y-105568300I0J175500D01*
G01*
X111845000Y-103767300D01*
G75*
G02*
X112020500Y-103591800I175500J0D01*
G01*
G37*
G36*
G01*
X110750500Y-103591800D02*
X111101500Y-103591800D01*
G75*
G02*
X111277000Y-103767300I0J-175500D01*
G01*
X111277000Y-105568300D01*
G75*
G02*
X111101500Y-105743800I-175500J0D01*
G01*
X110750500Y-105743800D01*
G75*
G02*
X110575000Y-105568300I0J175500D01*
G01*
X110575000Y-103767300D01*
G75*
G02*
X110750500Y-103591800I175500J0D01*
G01*
G37*
G36*
G01*
X109480500Y-103591800D02*
X109831500Y-103591800D01*
G75*
G02*
X110007000Y-103767300I0J-175500D01*
G01*
X110007000Y-105568300D01*
G75*
G02*
X109831500Y-105743800I-175500J0D01*
G01*
X109480500Y-105743800D01*
G75*
G02*
X109305000Y-105568300I0J175500D01*
G01*
X109305000Y-103767300D01*
G75*
G02*
X109480500Y-103591800I175500J0D01*
G01*
G37*
G36*
G01*
X108210500Y-103591800D02*
X108561500Y-103591800D01*
G75*
G02*
X108737000Y-103767300I0J-175500D01*
G01*
X108737000Y-105568300D01*
G75*
G02*
X108561500Y-105743800I-175500J0D01*
G01*
X108210500Y-105743800D01*
G75*
G02*
X108035000Y-105568300I0J175500D01*
G01*
X108035000Y-103767300D01*
G75*
G02*
X108210500Y-103591800I175500J0D01*
G01*
G37*
G36*
G01*
X108210500Y-94291800D02*
X108561500Y-94291800D01*
G75*
G02*
X108737000Y-94467300I0J-175500D01*
G01*
X108737000Y-96268300D01*
G75*
G02*
X108561500Y-96443800I-175500J0D01*
G01*
X108210500Y-96443800D01*
G75*
G02*
X108035000Y-96268300I0J175500D01*
G01*
X108035000Y-94467300D01*
G75*
G02*
X108210500Y-94291800I175500J0D01*
G01*
G37*
G36*
G01*
X109480500Y-94291800D02*
X109831500Y-94291800D01*
G75*
G02*
X110007000Y-94467300I0J-175500D01*
G01*
X110007000Y-96268300D01*
G75*
G02*
X109831500Y-96443800I-175500J0D01*
G01*
X109480500Y-96443800D01*
G75*
G02*
X109305000Y-96268300I0J175500D01*
G01*
X109305000Y-94467300D01*
G75*
G02*
X109480500Y-94291800I175500J0D01*
G01*
G37*
G36*
G01*
X110750500Y-94291800D02*
X111101500Y-94291800D01*
G75*
G02*
X111277000Y-94467300I0J-175500D01*
G01*
X111277000Y-96268300D01*
G75*
G02*
X111101500Y-96443800I-175500J0D01*
G01*
X110750500Y-96443800D01*
G75*
G02*
X110575000Y-96268300I0J175500D01*
G01*
X110575000Y-94467300D01*
G75*
G02*
X110750500Y-94291800I175500J0D01*
G01*
G37*
G36*
G01*
X112020500Y-94291800D02*
X112371500Y-94291800D01*
G75*
G02*
X112547000Y-94467300I0J-175500D01*
G01*
X112547000Y-96268300D01*
G75*
G02*
X112371500Y-96443800I-175500J0D01*
G01*
X112020500Y-96443800D01*
G75*
G02*
X111845000Y-96268300I0J175500D01*
G01*
X111845000Y-94467300D01*
G75*
G02*
X112020500Y-94291800I175500J0D01*
G01*
G37*
G36*
G01*
X113290500Y-94291800D02*
X113641500Y-94291800D01*
G75*
G02*
X113817000Y-94467300I0J-175500D01*
G01*
X113817000Y-96268300D01*
G75*
G02*
X113641500Y-96443800I-175500J0D01*
G01*
X113290500Y-96443800D01*
G75*
G02*
X113115000Y-96268300I0J175500D01*
G01*
X113115000Y-94467300D01*
G75*
G02*
X113290500Y-94291800I175500J0D01*
G01*
G37*
G36*
G01*
X114560500Y-94291800D02*
X114911500Y-94291800D01*
G75*
G02*
X115087000Y-94467300I0J-175500D01*
G01*
X115087000Y-96268300D01*
G75*
G02*
X114911500Y-96443800I-175500J0D01*
G01*
X114560500Y-96443800D01*
G75*
G02*
X114385000Y-96268300I0J175500D01*
G01*
X114385000Y-94467300D01*
G75*
G02*
X114560500Y-94291800I175500J0D01*
G01*
G37*
G36*
G01*
X115830500Y-94291800D02*
X116181500Y-94291800D01*
G75*
G02*
X116357000Y-94467300I0J-175500D01*
G01*
X116357000Y-96268300D01*
G75*
G02*
X116181500Y-96443800I-175500J0D01*
G01*
X115830500Y-96443800D01*
G75*
G02*
X115655000Y-96268300I0J175500D01*
G01*
X115655000Y-94467300D01*
G75*
G02*
X115830500Y-94291800I175500J0D01*
G01*
G37*
G36*
G01*
X117100500Y-94291800D02*
X117451500Y-94291800D01*
G75*
G02*
X117627000Y-94467300I0J-175500D01*
G01*
X117627000Y-96268300D01*
G75*
G02*
X117451500Y-96443800I-175500J0D01*
G01*
X117100500Y-96443800D01*
G75*
G02*
X116925000Y-96268300I0J175500D01*
G01*
X116925000Y-94467300D01*
G75*
G02*
X117100500Y-94291800I175500J0D01*
G01*
G37*
G36*
G01*
X118370500Y-94291800D02*
X118721500Y-94291800D01*
G75*
G02*
X118897000Y-94467300I0J-175500D01*
G01*
X118897000Y-96268300D01*
G75*
G02*
X118721500Y-96443800I-175500J0D01*
G01*
X118370500Y-96443800D01*
G75*
G02*
X118195000Y-96268300I0J175500D01*
G01*
X118195000Y-94467300D01*
G75*
G02*
X118370500Y-94291800I175500J0D01*
G01*
G37*
G36*
G01*
X119640500Y-94291800D02*
X119991500Y-94291800D01*
G75*
G02*
X120167000Y-94467300I0J-175500D01*
G01*
X120167000Y-96268300D01*
G75*
G02*
X119991500Y-96443800I-175500J0D01*
G01*
X119640500Y-96443800D01*
G75*
G02*
X119465000Y-96268300I0J175500D01*
G01*
X119465000Y-94467300D01*
G75*
G02*
X119640500Y-94291800I175500J0D01*
G01*
G37*
G36*
G01*
X195902000Y-102338972D02*
X195902000Y-103296628D01*
G75*
G02*
X195629828Y-103568800I-272172J0D01*
G01*
X194922172Y-103568800D01*
G75*
G02*
X194650000Y-103296628I0J272172D01*
G01*
X194650000Y-102338972D01*
G75*
G02*
X194922172Y-102066800I272172J0D01*
G01*
X195629828Y-102066800D01*
G75*
G02*
X195902000Y-102338972I0J-272172D01*
G01*
G37*
G36*
G01*
X197952000Y-102338972D02*
X197952000Y-103296628D01*
G75*
G02*
X197679828Y-103568800I-272172J0D01*
G01*
X196972172Y-103568800D01*
G75*
G02*
X196700000Y-103296628I0J272172D01*
G01*
X196700000Y-102338972D01*
G75*
G02*
X196972172Y-102066800I272172J0D01*
G01*
X197679828Y-102066800D01*
G75*
G02*
X197952000Y-102338972I0J-272172D01*
G01*
G37*
G36*
G01*
X215922172Y-128791000D02*
X216879828Y-128791000D01*
G75*
G02*
X217152000Y-129063172I0J-272172D01*
G01*
X217152000Y-129770828D01*
G75*
G02*
X216879828Y-130043000I-272172J0D01*
G01*
X215922172Y-130043000D01*
G75*
G02*
X215650000Y-129770828I0J272172D01*
G01*
X215650000Y-129063172D01*
G75*
G02*
X215922172Y-128791000I272172J0D01*
G01*
G37*
G36*
G01*
X215922172Y-126741000D02*
X216879828Y-126741000D01*
G75*
G02*
X217152000Y-127013172I0J-272172D01*
G01*
X217152000Y-127720828D01*
G75*
G02*
X216879828Y-127993000I-272172J0D01*
G01*
X215922172Y-127993000D01*
G75*
G02*
X215650000Y-127720828I0J272172D01*
G01*
X215650000Y-127013172D01*
G75*
G02*
X215922172Y-126741000I272172J0D01*
G01*
G37*
G36*
G01*
X72122172Y-128791000D02*
X73079828Y-128791000D01*
G75*
G02*
X73352000Y-129063172I0J-272172D01*
G01*
X73352000Y-129770828D01*
G75*
G02*
X73079828Y-130043000I-272172J0D01*
G01*
X72122172Y-130043000D01*
G75*
G02*
X71850000Y-129770828I0J272172D01*
G01*
X71850000Y-129063172D01*
G75*
G02*
X72122172Y-128791000I272172J0D01*
G01*
G37*
G36*
G01*
X72122172Y-126741000D02*
X73079828Y-126741000D01*
G75*
G02*
X73352000Y-127013172I0J-272172D01*
G01*
X73352000Y-127720828D01*
G75*
G02*
X73079828Y-127993000I-272172J0D01*
G01*
X72122172Y-127993000D01*
G75*
G02*
X71850000Y-127720828I0J272172D01*
G01*
X71850000Y-127013172D01*
G75*
G02*
X72122172Y-126741000I272172J0D01*
G01*
G37*
G36*
G01*
X190702000Y-102338972D02*
X190702000Y-103296628D01*
G75*
G02*
X190429828Y-103568800I-272172J0D01*
G01*
X189722172Y-103568800D01*
G75*
G02*
X189450000Y-103296628I0J272172D01*
G01*
X189450000Y-102338972D01*
G75*
G02*
X189722172Y-102066800I272172J0D01*
G01*
X190429828Y-102066800D01*
G75*
G02*
X190702000Y-102338972I0J-272172D01*
G01*
G37*
G36*
G01*
X192752000Y-102338972D02*
X192752000Y-103296628D01*
G75*
G02*
X192479828Y-103568800I-272172J0D01*
G01*
X191772172Y-103568800D01*
G75*
G02*
X191500000Y-103296628I0J272172D01*
G01*
X191500000Y-102338972D01*
G75*
G02*
X191772172Y-102066800I272172J0D01*
G01*
X192479828Y-102066800D01*
G75*
G02*
X192752000Y-102338972I0J-272172D01*
G01*
G37*
G36*
G01*
X215922172Y-123230000D02*
X216879828Y-123230000D01*
G75*
G02*
X217152000Y-123502172I0J-272172D01*
G01*
X217152000Y-124209828D01*
G75*
G02*
X216879828Y-124482000I-272172J0D01*
G01*
X215922172Y-124482000D01*
G75*
G02*
X215650000Y-124209828I0J272172D01*
G01*
X215650000Y-123502172D01*
G75*
G02*
X215922172Y-123230000I272172J0D01*
G01*
G37*
G36*
G01*
X215922172Y-121180000D02*
X216879828Y-121180000D01*
G75*
G02*
X217152000Y-121452172I0J-272172D01*
G01*
X217152000Y-122159828D01*
G75*
G02*
X216879828Y-122432000I-272172J0D01*
G01*
X215922172Y-122432000D01*
G75*
G02*
X215650000Y-122159828I0J272172D01*
G01*
X215650000Y-121452172D01*
G75*
G02*
X215922172Y-121180000I272172J0D01*
G01*
G37*
G36*
G01*
X72122172Y-123230000D02*
X73079828Y-123230000D01*
G75*
G02*
X73352000Y-123502172I0J-272172D01*
G01*
X73352000Y-124209828D01*
G75*
G02*
X73079828Y-124482000I-272172J0D01*
G01*
X72122172Y-124482000D01*
G75*
G02*
X71850000Y-124209828I0J272172D01*
G01*
X71850000Y-123502172D01*
G75*
G02*
X72122172Y-123230000I272172J0D01*
G01*
G37*
G36*
G01*
X72122172Y-121180000D02*
X73079828Y-121180000D01*
G75*
G02*
X73352000Y-121452172I0J-272172D01*
G01*
X73352000Y-122159828D01*
G75*
G02*
X73079828Y-122432000I-272172J0D01*
G01*
X72122172Y-122432000D01*
G75*
G02*
X71850000Y-122159828I0J272172D01*
G01*
X71850000Y-121452172D01*
G75*
G02*
X72122172Y-121180000I272172J0D01*
G01*
G37*
D10*
X189601000Y-84517800D03*
X189601000Y-87057800D03*
X187061000Y-84517800D03*
X187061000Y-87057800D03*
X184521000Y-84517800D03*
X184521000Y-87057800D03*
X181981000Y-84517800D03*
X181981000Y-87057800D03*
X179441000Y-84517800D03*
X179441000Y-87057800D03*
X176901000Y-84517800D03*
X176901000Y-87057800D03*
X174361000Y-84517800D03*
X174361000Y-87057800D03*
X171821000Y-84517800D03*
X171821000Y-87057800D03*
X169281000Y-84517800D03*
X169281000Y-87057800D03*
X166741000Y-84517800D03*
X166741000Y-87057800D03*
X164201000Y-84517800D03*
X164201000Y-87057800D03*
X161661000Y-84517800D03*
X161661000Y-87057800D03*
X159121000Y-84517800D03*
X159121000Y-87057800D03*
X156581000Y-84517800D03*
X156581000Y-87057800D03*
X154041000Y-84517800D03*
X154041000Y-87057800D03*
X151501000Y-84517800D03*
X151501000Y-87057800D03*
X148961000Y-84517800D03*
X148961000Y-87057800D03*
X146421000Y-84517800D03*
X146421000Y-87057800D03*
X143881000Y-84517800D03*
X143881000Y-87057800D03*
X141341000Y-84517800D03*
G36*
G01*
X142204600Y-87972400D02*
X140477400Y-87972400D01*
G75*
G02*
X140426400Y-87921400I0J51000D01*
G01*
X140426400Y-86194200D01*
G75*
G02*
X140477400Y-86143200I51000J0D01*
G01*
X142204600Y-86143200D01*
G75*
G02*
X142255600Y-86194200I0J-51000D01*
G01*
X142255600Y-87921400D01*
G75*
G02*
X142204600Y-87972400I-51000J0D01*
G01*
G37*
D11*
X128771000Y-84747800D03*
X128771000Y-87287800D03*
X126231000Y-84747800D03*
X126231000Y-87287800D03*
X123691000Y-84747800D03*
X123691000Y-87287800D03*
X121151000Y-84747800D03*
X121151000Y-87287800D03*
X118611000Y-84747800D03*
X118611000Y-87287800D03*
X116071000Y-84747800D03*
X116071000Y-87287800D03*
X113531000Y-84747800D03*
X113531000Y-87287800D03*
X110991000Y-84747800D03*
X110991000Y-87287800D03*
X108451000Y-84747800D03*
X108451000Y-87287800D03*
X105911000Y-84747800D03*
X105911000Y-87287800D03*
X103371000Y-84747800D03*
X103371000Y-87287800D03*
X100831000Y-84747800D03*
G36*
G01*
X100015000Y-88052800D02*
X100015000Y-86522800D01*
G75*
G02*
X100066000Y-86471800I51000J0D01*
G01*
X101596000Y-86471800D01*
G75*
G02*
X101647000Y-86522800I0J-51000D01*
G01*
X101647000Y-88052800D01*
G75*
G02*
X101596000Y-88103800I-51000J0D01*
G01*
X100066000Y-88103800D01*
G75*
G02*
X100015000Y-88052800I0J51000D01*
G01*
G37*
D12*
X208127600Y-132866600D03*
X81127600Y-132866600D03*
X81113000Y-82066600D03*
X208113000Y-82066600D03*
D13*
X212901000Y-145417800D03*
G36*
G01*
X201350000Y-147417800D02*
X201350000Y-143417800D01*
G75*
G02*
X201401000Y-143366800I51000J0D01*
G01*
X205401000Y-143366800D01*
G75*
G02*
X205452000Y-143417800I0J-51000D01*
G01*
X205452000Y-147417800D01*
G75*
G02*
X205401000Y-147468800I-51000J0D01*
G01*
X201401000Y-147468800D01*
G75*
G02*
X201350000Y-147417800I0J51000D01*
G01*
G37*
X76101000Y-145517800D03*
G36*
G01*
X87652000Y-143517800D02*
X87652000Y-147517800D01*
G75*
G02*
X87601000Y-147568800I-51000J0D01*
G01*
X83601000Y-147568800D01*
G75*
G02*
X83550000Y-147517800I0J51000D01*
G01*
X83550000Y-143517800D01*
G75*
G02*
X83601000Y-143466800I51000J0D01*
G01*
X87601000Y-143466800D01*
G75*
G02*
X87652000Y-143517800I0J-51000D01*
G01*
G37*
D14*
X121024332Y-138398600D03*
X121024332Y-150298600D03*
X121024332Y-142098600D03*
X121024332Y-146598600D03*
D15*
X111100000Y-116600000D03*
X107600000Y-116600000D03*
G36*
G01*
X103149000Y-118186834D02*
X103149000Y-115013166D01*
G75*
G02*
X103413166Y-114749000I264166J0D01*
G01*
X104786834Y-114749000D01*
G75*
G02*
X105051000Y-115013166I0J-264166D01*
G01*
X105051000Y-118186834D01*
G75*
G02*
X104786834Y-118451000I-264166J0D01*
G01*
X103413166Y-118451000D01*
G75*
G02*
X103149000Y-118186834I0J264166D01*
G01*
G37*
D14*
X107623466Y-138403600D03*
X107623466Y-150303600D03*
X107623466Y-142103600D03*
X107623466Y-146603600D03*
D16*
X192592600Y-108813600D03*
X190052600Y-108813600D03*
X187512600Y-108813600D03*
X184972600Y-108813600D03*
X182432600Y-108813600D03*
X179892600Y-108813600D03*
X177352600Y-108813600D03*
G36*
G01*
X173961600Y-109613600D02*
X173961600Y-108013600D01*
G75*
G02*
X174012600Y-107962600I51000J0D01*
G01*
X175612600Y-107962600D01*
G75*
G02*
X175663600Y-108013600I0J-51000D01*
G01*
X175663600Y-109613600D01*
G75*
G02*
X175612600Y-109664600I-51000J0D01*
G01*
X174012600Y-109664600D01*
G75*
G02*
X173961600Y-109613600I0J51000D01*
G01*
G37*
X171266200Y-108813600D03*
X168726200Y-108813600D03*
X166186200Y-108813600D03*
X163646200Y-108813600D03*
X161106200Y-108813600D03*
X158566200Y-108813600D03*
X156026200Y-108813600D03*
G36*
G01*
X152635200Y-109613600D02*
X152635200Y-108013600D01*
G75*
G02*
X152686200Y-107962600I51000J0D01*
G01*
X154286200Y-107962600D01*
G75*
G02*
X154337200Y-108013600I0J-51000D01*
G01*
X154337200Y-109613600D01*
G75*
G02*
X154286200Y-109664600I-51000J0D01*
G01*
X152686200Y-109664600D01*
G75*
G02*
X152635200Y-109613600I0J51000D01*
G01*
G37*
X134632700Y-108813600D03*
X132092700Y-108813600D03*
X129552700Y-108813600D03*
X127012700Y-108813600D03*
X124472700Y-108813600D03*
X121932700Y-108813600D03*
X119392700Y-108813600D03*
G36*
G01*
X116001700Y-109613600D02*
X116001700Y-108013600D01*
G75*
G02*
X116052700Y-107962600I51000J0D01*
G01*
X117652700Y-107962600D01*
G75*
G02*
X117703700Y-108013600I0J-51000D01*
G01*
X117703700Y-109613600D01*
G75*
G02*
X117652700Y-109664600I-51000J0D01*
G01*
X116052700Y-109664600D01*
G75*
G02*
X116001700Y-109613600I0J51000D01*
G01*
G37*
X113341500Y-108813600D03*
X110801500Y-108813600D03*
X108261500Y-108813600D03*
X105721500Y-108813600D03*
X103181500Y-108813600D03*
X100641500Y-108813600D03*
X98101500Y-108813600D03*
G36*
G01*
X94710500Y-109613600D02*
X94710500Y-108013600D01*
G75*
G02*
X94761500Y-107962600I51000J0D01*
G01*
X96361500Y-107962600D01*
G75*
G02*
X96412500Y-108013600I0J-51000D01*
G01*
X96412500Y-109613600D01*
G75*
G02*
X96361500Y-109664600I-51000J0D01*
G01*
X94761500Y-109664600D01*
G75*
G02*
X94710500Y-109613600I0J51000D01*
G01*
G37*
D15*
X201100000Y-129600000D03*
X197600000Y-129600000D03*
G36*
G01*
X193149000Y-131186834D02*
X193149000Y-128013166D01*
G75*
G02*
X193413166Y-127749000I264166J0D01*
G01*
X194786834Y-127749000D01*
G75*
G02*
X195051000Y-128013166I0J-264166D01*
G01*
X195051000Y-131186834D01*
G75*
G02*
X194786834Y-131451000I-264166J0D01*
G01*
X193413166Y-131451000D01*
G75*
G02*
X193149000Y-131186834I0J264166D01*
G01*
G37*
X201100000Y-116600000D03*
X197600000Y-116600000D03*
G36*
G01*
X193149000Y-118186834D02*
X193149000Y-115013166D01*
G75*
G02*
X193413166Y-114749000I264166J0D01*
G01*
X194786834Y-114749000D01*
G75*
G02*
X195051000Y-115013166I0J-264166D01*
G01*
X195051000Y-118186834D01*
G75*
G02*
X194786834Y-118451000I-264166J0D01*
G01*
X193413166Y-118451000D01*
G75*
G02*
X193149000Y-118186834I0J264166D01*
G01*
G37*
X186100000Y-129600000D03*
X182600000Y-129600000D03*
G36*
G01*
X178149000Y-131186834D02*
X178149000Y-128013166D01*
G75*
G02*
X178413166Y-127749000I264166J0D01*
G01*
X179786834Y-127749000D01*
G75*
G02*
X180051000Y-128013166I0J-264166D01*
G01*
X180051000Y-131186834D01*
G75*
G02*
X179786834Y-131451000I-264166J0D01*
G01*
X178413166Y-131451000D01*
G75*
G02*
X178149000Y-131186834I0J264166D01*
G01*
G37*
X186100000Y-116600000D03*
X182600000Y-116600000D03*
G36*
G01*
X178149000Y-118186834D02*
X178149000Y-115013166D01*
G75*
G02*
X178413166Y-114749000I264166J0D01*
G01*
X179786834Y-114749000D01*
G75*
G02*
X180051000Y-115013166I0J-264166D01*
G01*
X180051000Y-118186834D01*
G75*
G02*
X179786834Y-118451000I-264166J0D01*
G01*
X178413166Y-118451000D01*
G75*
G02*
X178149000Y-118186834I0J264166D01*
G01*
G37*
X171100000Y-129600000D03*
X167600000Y-129600000D03*
G36*
G01*
X163149000Y-131186834D02*
X163149000Y-128013166D01*
G75*
G02*
X163413166Y-127749000I264166J0D01*
G01*
X164786834Y-127749000D01*
G75*
G02*
X165051000Y-128013166I0J-264166D01*
G01*
X165051000Y-131186834D01*
G75*
G02*
X164786834Y-131451000I-264166J0D01*
G01*
X163413166Y-131451000D01*
G75*
G02*
X163149000Y-131186834I0J264166D01*
G01*
G37*
X171100000Y-116600000D03*
X167600000Y-116600000D03*
G36*
G01*
X163149000Y-118186834D02*
X163149000Y-115013166D01*
G75*
G02*
X163413166Y-114749000I264166J0D01*
G01*
X164786834Y-114749000D01*
G75*
G02*
X165051000Y-115013166I0J-264166D01*
G01*
X165051000Y-118186834D01*
G75*
G02*
X164786834Y-118451000I-264166J0D01*
G01*
X163413166Y-118451000D01*
G75*
G02*
X163149000Y-118186834I0J264166D01*
G01*
G37*
X156100000Y-129600000D03*
X152600000Y-129600000D03*
G36*
G01*
X148149000Y-131186834D02*
X148149000Y-128013166D01*
G75*
G02*
X148413166Y-127749000I264166J0D01*
G01*
X149786834Y-127749000D01*
G75*
G02*
X150051000Y-128013166I0J-264166D01*
G01*
X150051000Y-131186834D01*
G75*
G02*
X149786834Y-131451000I-264166J0D01*
G01*
X148413166Y-131451000D01*
G75*
G02*
X148149000Y-131186834I0J264166D01*
G01*
G37*
X156100000Y-116600000D03*
X152600000Y-116600000D03*
G36*
G01*
X148149000Y-118186834D02*
X148149000Y-115013166D01*
G75*
G02*
X148413166Y-114749000I264166J0D01*
G01*
X149786834Y-114749000D01*
G75*
G02*
X150051000Y-115013166I0J-264166D01*
G01*
X150051000Y-118186834D01*
G75*
G02*
X149786834Y-118451000I-264166J0D01*
G01*
X148413166Y-118451000D01*
G75*
G02*
X148149000Y-118186834I0J264166D01*
G01*
G37*
X141100000Y-129600000D03*
X137600000Y-129600000D03*
G36*
G01*
X133149000Y-131186834D02*
X133149000Y-128013166D01*
G75*
G02*
X133413166Y-127749000I264166J0D01*
G01*
X134786834Y-127749000D01*
G75*
G02*
X135051000Y-128013166I0J-264166D01*
G01*
X135051000Y-131186834D01*
G75*
G02*
X134786834Y-131451000I-264166J0D01*
G01*
X133413166Y-131451000D01*
G75*
G02*
X133149000Y-131186834I0J264166D01*
G01*
G37*
X141100000Y-116600000D03*
X137600000Y-116600000D03*
G36*
G01*
X133149000Y-118186834D02*
X133149000Y-115013166D01*
G75*
G02*
X133413166Y-114749000I264166J0D01*
G01*
X134786834Y-114749000D01*
G75*
G02*
X135051000Y-115013166I0J-264166D01*
G01*
X135051000Y-118186834D01*
G75*
G02*
X134786834Y-118451000I-264166J0D01*
G01*
X133413166Y-118451000D01*
G75*
G02*
X133149000Y-118186834I0J264166D01*
G01*
G37*
X126214342Y-129600000D03*
X122714342Y-129600000D03*
G36*
G01*
X118263342Y-131186834D02*
X118263342Y-128013166D01*
G75*
G02*
X118527508Y-127749000I264166J0D01*
G01*
X119901176Y-127749000D01*
G75*
G02*
X120165342Y-128013166I0J-264166D01*
G01*
X120165342Y-131186834D01*
G75*
G02*
X119901176Y-131451000I-264166J0D01*
G01*
X118527508Y-131451000D01*
G75*
G02*
X118263342Y-131186834I0J264166D01*
G01*
G37*
X126100000Y-116600000D03*
X122600000Y-116600000D03*
G36*
G01*
X118149000Y-118186834D02*
X118149000Y-115013166D01*
G75*
G02*
X118413166Y-114749000I264166J0D01*
G01*
X119786834Y-114749000D01*
G75*
G02*
X120051000Y-115013166I0J-264166D01*
G01*
X120051000Y-118186834D01*
G75*
G02*
X119786834Y-118451000I-264166J0D01*
G01*
X118413166Y-118451000D01*
G75*
G02*
X118149000Y-118186834I0J264166D01*
G01*
G37*
X111100000Y-129600000D03*
X107600000Y-129600000D03*
G36*
G01*
X103149000Y-131186834D02*
X103149000Y-128013166D01*
G75*
G02*
X103413166Y-127749000I264166J0D01*
G01*
X104786834Y-127749000D01*
G75*
G02*
X105051000Y-128013166I0J-264166D01*
G01*
X105051000Y-131186834D01*
G75*
G02*
X104786834Y-131451000I-264166J0D01*
G01*
X103413166Y-131451000D01*
G75*
G02*
X103149000Y-131186834I0J264166D01*
G01*
G37*
X96100000Y-129600000D03*
X92600000Y-129600000D03*
G36*
G01*
X88149000Y-131186834D02*
X88149000Y-128013166D01*
G75*
G02*
X88413166Y-127749000I264166J0D01*
G01*
X89786834Y-127749000D01*
G75*
G02*
X90051000Y-128013166I0J-264166D01*
G01*
X90051000Y-131186834D01*
G75*
G02*
X89786834Y-131451000I-264166J0D01*
G01*
X88413166Y-131451000D01*
G75*
G02*
X88149000Y-131186834I0J264166D01*
G01*
G37*
X96100000Y-116600000D03*
X92600000Y-116600000D03*
G36*
G01*
X88149000Y-118186834D02*
X88149000Y-115013166D01*
G75*
G02*
X88413166Y-114749000I264166J0D01*
G01*
X89786834Y-114749000D01*
G75*
G02*
X90051000Y-115013166I0J-264166D01*
G01*
X90051000Y-118186834D01*
G75*
G02*
X89786834Y-118451000I-264166J0D01*
G01*
X88413166Y-118451000D01*
G75*
G02*
X88149000Y-118186834I0J264166D01*
G01*
G37*
D14*
X194729100Y-138463600D03*
X194729100Y-150363600D03*
X194729100Y-142163600D03*
X194729100Y-146663600D03*
X188028662Y-138463600D03*
X188028662Y-150363600D03*
X188028662Y-142163600D03*
X188028662Y-146663600D03*
X181328229Y-138463600D03*
X181328229Y-150363600D03*
X181328229Y-142163600D03*
X181328229Y-146663600D03*
X174627796Y-138463600D03*
X174627796Y-150363600D03*
X174627796Y-142163600D03*
X174627796Y-146663600D03*
X167927363Y-138398600D03*
X167927363Y-150298600D03*
X167927363Y-142098600D03*
X167927363Y-146598600D03*
X161226930Y-138398600D03*
X161226930Y-150298600D03*
X161226930Y-142098600D03*
X161226930Y-146598600D03*
X154526497Y-138398600D03*
X154526497Y-150298600D03*
X154526497Y-142098600D03*
X154526497Y-146598600D03*
X147826064Y-138398600D03*
X147826064Y-150298600D03*
X147826064Y-142098600D03*
X147826064Y-146598600D03*
X141125631Y-138398600D03*
X141125631Y-150298600D03*
X141125631Y-142098600D03*
X141125631Y-146598600D03*
X134425198Y-138398600D03*
X134425198Y-150298600D03*
X134425198Y-142098600D03*
X134425198Y-146598600D03*
X127724765Y-138398600D03*
X127724765Y-150298600D03*
X127724765Y-142098600D03*
X127724765Y-146598600D03*
X114323899Y-138403600D03*
X114323899Y-150303600D03*
X114323899Y-142103600D03*
X114323899Y-146603600D03*
X100923033Y-138403600D03*
X100923033Y-150303600D03*
X100923033Y-142103600D03*
X100923033Y-146603600D03*
X94222600Y-138388600D03*
X94222600Y-150288600D03*
X94222600Y-142088600D03*
X94222600Y-146588600D03*
D17*
G36*
X120166507Y-131185208D02*
G01*
X120167342Y-131186834D01*
X120167342Y-131270971D01*
X120167332Y-131271167D01*
X120163398Y-131311111D01*
X120163322Y-131311496D01*
X120153461Y-131344005D01*
X120153311Y-131344367D01*
X120137297Y-131374325D01*
X120137079Y-131374651D01*
X120115529Y-131400910D01*
X120115252Y-131401187D01*
X120088993Y-131422737D01*
X120088667Y-131422955D01*
X120058709Y-131438969D01*
X120058347Y-131439119D01*
X120025838Y-131448980D01*
X120025453Y-131449056D01*
X119985509Y-131452990D01*
X119985313Y-131453000D01*
X119901176Y-131453000D01*
X119899444Y-131452000D01*
X119899444Y-131450000D01*
X119900980Y-131449010D01*
X119952317Y-131443954D01*
X120001499Y-131429035D01*
X120046823Y-131404809D01*
X120086549Y-131372207D01*
X120119151Y-131332481D01*
X120143377Y-131287157D01*
X120158296Y-131237975D01*
X120163352Y-131186638D01*
X120164517Y-131185012D01*
X120166507Y-131185208D01*
G37*
G36*
X118265332Y-131186638D02*
G01*
X118270388Y-131237975D01*
X118285307Y-131287157D01*
X118309533Y-131332481D01*
X118342135Y-131372207D01*
X118381861Y-131404809D01*
X118427185Y-131429035D01*
X118476367Y-131443954D01*
X118527704Y-131449010D01*
X118529330Y-131450175D01*
X118529134Y-131452165D01*
X118527508Y-131453000D01*
X118443371Y-131453000D01*
X118443175Y-131452990D01*
X118403231Y-131449056D01*
X118402846Y-131448980D01*
X118370337Y-131439119D01*
X118369975Y-131438969D01*
X118340017Y-131422955D01*
X118339691Y-131422737D01*
X118313432Y-131401187D01*
X118313155Y-131400910D01*
X118291605Y-131374651D01*
X118291387Y-131374325D01*
X118275373Y-131344367D01*
X118275223Y-131344005D01*
X118265362Y-131311496D01*
X118265286Y-131311111D01*
X118261352Y-131271167D01*
X118261342Y-131270971D01*
X118261342Y-131186834D01*
X118262342Y-131185102D01*
X118264342Y-131185102D01*
X118265332Y-131186638D01*
G37*
G36*
X163150990Y-131186638D02*
G01*
X163156046Y-131237975D01*
X163170965Y-131287157D01*
X163195191Y-131332481D01*
X163227793Y-131372207D01*
X163267519Y-131404809D01*
X163312843Y-131429035D01*
X163362025Y-131443954D01*
X163413362Y-131449010D01*
X163414988Y-131450175D01*
X163414792Y-131452165D01*
X163413166Y-131453000D01*
X163329029Y-131453000D01*
X163328833Y-131452990D01*
X163288889Y-131449056D01*
X163288504Y-131448980D01*
X163255995Y-131439119D01*
X163255633Y-131438969D01*
X163225675Y-131422955D01*
X163225349Y-131422737D01*
X163199090Y-131401187D01*
X163198813Y-131400910D01*
X163177263Y-131374651D01*
X163177045Y-131374325D01*
X163161031Y-131344367D01*
X163160881Y-131344005D01*
X163151020Y-131311496D01*
X163150944Y-131311111D01*
X163147010Y-131271167D01*
X163147000Y-131270971D01*
X163147000Y-131186834D01*
X163148000Y-131185102D01*
X163150000Y-131185102D01*
X163150990Y-131186638D01*
G37*
G36*
X150052165Y-131185208D02*
G01*
X150053000Y-131186834D01*
X150053000Y-131270971D01*
X150052990Y-131271167D01*
X150049056Y-131311111D01*
X150048980Y-131311496D01*
X150039119Y-131344005D01*
X150038969Y-131344367D01*
X150022955Y-131374325D01*
X150022737Y-131374651D01*
X150001187Y-131400910D01*
X150000910Y-131401187D01*
X149974651Y-131422737D01*
X149974325Y-131422955D01*
X149944367Y-131438969D01*
X149944005Y-131439119D01*
X149911496Y-131448980D01*
X149911111Y-131449056D01*
X149871167Y-131452990D01*
X149870971Y-131453000D01*
X149786834Y-131453000D01*
X149785102Y-131452000D01*
X149785102Y-131450000D01*
X149786638Y-131449010D01*
X149837975Y-131443954D01*
X149887157Y-131429035D01*
X149932481Y-131404809D01*
X149972207Y-131372207D01*
X150004809Y-131332481D01*
X150029035Y-131287157D01*
X150043954Y-131237975D01*
X150049010Y-131186638D01*
X150050175Y-131185012D01*
X150052165Y-131185208D01*
G37*
G36*
X103150990Y-131186638D02*
G01*
X103156046Y-131237975D01*
X103170965Y-131287157D01*
X103195191Y-131332481D01*
X103227793Y-131372207D01*
X103267519Y-131404809D01*
X103312843Y-131429035D01*
X103362025Y-131443954D01*
X103413362Y-131449010D01*
X103414988Y-131450175D01*
X103414792Y-131452165D01*
X103413166Y-131453000D01*
X103329029Y-131453000D01*
X103328833Y-131452990D01*
X103288889Y-131449056D01*
X103288504Y-131448980D01*
X103255995Y-131439119D01*
X103255633Y-131438969D01*
X103225675Y-131422955D01*
X103225349Y-131422737D01*
X103199090Y-131401187D01*
X103198813Y-131400910D01*
X103177263Y-131374651D01*
X103177045Y-131374325D01*
X103161031Y-131344367D01*
X103160881Y-131344005D01*
X103151020Y-131311496D01*
X103150944Y-131311111D01*
X103147010Y-131271167D01*
X103147000Y-131270971D01*
X103147000Y-131186834D01*
X103148000Y-131185102D01*
X103150000Y-131185102D01*
X103150990Y-131186638D01*
G37*
G36*
X148150990Y-131186638D02*
G01*
X148156046Y-131237975D01*
X148170965Y-131287157D01*
X148195191Y-131332481D01*
X148227793Y-131372207D01*
X148267519Y-131404809D01*
X148312843Y-131429035D01*
X148362025Y-131443954D01*
X148413362Y-131449010D01*
X148414988Y-131450175D01*
X148414792Y-131452165D01*
X148413166Y-131453000D01*
X148329029Y-131453000D01*
X148328833Y-131452990D01*
X148288889Y-131449056D01*
X148288504Y-131448980D01*
X148255995Y-131439119D01*
X148255633Y-131438969D01*
X148225675Y-131422955D01*
X148225349Y-131422737D01*
X148199090Y-131401187D01*
X148198813Y-131400910D01*
X148177263Y-131374651D01*
X148177045Y-131374325D01*
X148161031Y-131344367D01*
X148160881Y-131344005D01*
X148151020Y-131311496D01*
X148150944Y-131311111D01*
X148147010Y-131271167D01*
X148147000Y-131270971D01*
X148147000Y-131186834D01*
X148148000Y-131185102D01*
X148150000Y-131185102D01*
X148150990Y-131186638D01*
G37*
G36*
X165052165Y-131185208D02*
G01*
X165053000Y-131186834D01*
X165053000Y-131270971D01*
X165052990Y-131271167D01*
X165049056Y-131311111D01*
X165048980Y-131311496D01*
X165039119Y-131344005D01*
X165038969Y-131344367D01*
X165022955Y-131374325D01*
X165022737Y-131374651D01*
X165001187Y-131400910D01*
X165000910Y-131401187D01*
X164974651Y-131422737D01*
X164974325Y-131422955D01*
X164944367Y-131438969D01*
X164944005Y-131439119D01*
X164911496Y-131448980D01*
X164911111Y-131449056D01*
X164871167Y-131452990D01*
X164870971Y-131453000D01*
X164786834Y-131453000D01*
X164785102Y-131452000D01*
X164785102Y-131450000D01*
X164786638Y-131449010D01*
X164837975Y-131443954D01*
X164887157Y-131429035D01*
X164932481Y-131404809D01*
X164972207Y-131372207D01*
X165004809Y-131332481D01*
X165029035Y-131287157D01*
X165043954Y-131237975D01*
X165049010Y-131186638D01*
X165050175Y-131185012D01*
X165052165Y-131185208D01*
G37*
G36*
X178150990Y-131186638D02*
G01*
X178156046Y-131237975D01*
X178170965Y-131287157D01*
X178195191Y-131332481D01*
X178227793Y-131372207D01*
X178267519Y-131404809D01*
X178312843Y-131429035D01*
X178362025Y-131443954D01*
X178413362Y-131449010D01*
X178414988Y-131450175D01*
X178414792Y-131452165D01*
X178413166Y-131453000D01*
X178329029Y-131453000D01*
X178328833Y-131452990D01*
X178288889Y-131449056D01*
X178288504Y-131448980D01*
X178255995Y-131439119D01*
X178255633Y-131438969D01*
X178225675Y-131422955D01*
X178225349Y-131422737D01*
X178199090Y-131401187D01*
X178198813Y-131400910D01*
X178177263Y-131374651D01*
X178177045Y-131374325D01*
X178161031Y-131344367D01*
X178160881Y-131344005D01*
X178151020Y-131311496D01*
X178150944Y-131311111D01*
X178147010Y-131271167D01*
X178147000Y-131270971D01*
X178147000Y-131186834D01*
X178148000Y-131185102D01*
X178150000Y-131185102D01*
X178150990Y-131186638D01*
G37*
G36*
X90052165Y-131185208D02*
G01*
X90053000Y-131186834D01*
X90053000Y-131270971D01*
X90052990Y-131271167D01*
X90049056Y-131311111D01*
X90048980Y-131311496D01*
X90039119Y-131344005D01*
X90038969Y-131344367D01*
X90022955Y-131374325D01*
X90022737Y-131374651D01*
X90001187Y-131400910D01*
X90000910Y-131401187D01*
X89974651Y-131422737D01*
X89974325Y-131422955D01*
X89944367Y-131438969D01*
X89944005Y-131439119D01*
X89911496Y-131448980D01*
X89911111Y-131449056D01*
X89871167Y-131452990D01*
X89870971Y-131453000D01*
X89786834Y-131453000D01*
X89785102Y-131452000D01*
X89785102Y-131450000D01*
X89786638Y-131449010D01*
X89837975Y-131443954D01*
X89887157Y-131429035D01*
X89932481Y-131404809D01*
X89972207Y-131372207D01*
X90004809Y-131332481D01*
X90029035Y-131287157D01*
X90043954Y-131237975D01*
X90049010Y-131186638D01*
X90050175Y-131185012D01*
X90052165Y-131185208D01*
G37*
G36*
X135052165Y-131185208D02*
G01*
X135053000Y-131186834D01*
X135053000Y-131270971D01*
X135052990Y-131271167D01*
X135049056Y-131311111D01*
X135048980Y-131311496D01*
X135039119Y-131344005D01*
X135038969Y-131344367D01*
X135022955Y-131374325D01*
X135022737Y-131374651D01*
X135001187Y-131400910D01*
X135000910Y-131401187D01*
X134974651Y-131422737D01*
X134974325Y-131422955D01*
X134944367Y-131438969D01*
X134944005Y-131439119D01*
X134911496Y-131448980D01*
X134911111Y-131449056D01*
X134871167Y-131452990D01*
X134870971Y-131453000D01*
X134786834Y-131453000D01*
X134785102Y-131452000D01*
X134785102Y-131450000D01*
X134786638Y-131449010D01*
X134837975Y-131443954D01*
X134887157Y-131429035D01*
X134932481Y-131404809D01*
X134972207Y-131372207D01*
X135004809Y-131332481D01*
X135029035Y-131287157D01*
X135043954Y-131237975D01*
X135049010Y-131186638D01*
X135050175Y-131185012D01*
X135052165Y-131185208D01*
G37*
G36*
X180052165Y-131185208D02*
G01*
X180053000Y-131186834D01*
X180053000Y-131270971D01*
X180052990Y-131271167D01*
X180049056Y-131311111D01*
X180048980Y-131311496D01*
X180039119Y-131344005D01*
X180038969Y-131344367D01*
X180022955Y-131374325D01*
X180022737Y-131374651D01*
X180001187Y-131400910D01*
X180000910Y-131401187D01*
X179974651Y-131422737D01*
X179974325Y-131422955D01*
X179944367Y-131438969D01*
X179944005Y-131439119D01*
X179911496Y-131448980D01*
X179911111Y-131449056D01*
X179871167Y-131452990D01*
X179870971Y-131453000D01*
X179786834Y-131453000D01*
X179785102Y-131452000D01*
X179785102Y-131450000D01*
X179786638Y-131449010D01*
X179837975Y-131443954D01*
X179887157Y-131429035D01*
X179932481Y-131404809D01*
X179972207Y-131372207D01*
X180004809Y-131332481D01*
X180029035Y-131287157D01*
X180043954Y-131237975D01*
X180049010Y-131186638D01*
X180050175Y-131185012D01*
X180052165Y-131185208D01*
G37*
G36*
X105052165Y-131185208D02*
G01*
X105053000Y-131186834D01*
X105053000Y-131270971D01*
X105052990Y-131271167D01*
X105049056Y-131311111D01*
X105048980Y-131311496D01*
X105039119Y-131344005D01*
X105038969Y-131344367D01*
X105022955Y-131374325D01*
X105022737Y-131374651D01*
X105001187Y-131400910D01*
X105000910Y-131401187D01*
X104974651Y-131422737D01*
X104974325Y-131422955D01*
X104944367Y-131438969D01*
X104944005Y-131439119D01*
X104911496Y-131448980D01*
X104911111Y-131449056D01*
X104871167Y-131452990D01*
X104870971Y-131453000D01*
X104786834Y-131453000D01*
X104785102Y-131452000D01*
X104785102Y-131450000D01*
X104786638Y-131449010D01*
X104837975Y-131443954D01*
X104887157Y-131429035D01*
X104932481Y-131404809D01*
X104972207Y-131372207D01*
X105004809Y-131332481D01*
X105029035Y-131287157D01*
X105043954Y-131237975D01*
X105049010Y-131186638D01*
X105050175Y-131185012D01*
X105052165Y-131185208D01*
G37*
G36*
X133150990Y-131186638D02*
G01*
X133156046Y-131237975D01*
X133170965Y-131287157D01*
X133195191Y-131332481D01*
X133227793Y-131372207D01*
X133267519Y-131404809D01*
X133312843Y-131429035D01*
X133362025Y-131443954D01*
X133413362Y-131449010D01*
X133414988Y-131450175D01*
X133414792Y-131452165D01*
X133413166Y-131453000D01*
X133329029Y-131453000D01*
X133328833Y-131452990D01*
X133288889Y-131449056D01*
X133288504Y-131448980D01*
X133255995Y-131439119D01*
X133255633Y-131438969D01*
X133225675Y-131422955D01*
X133225349Y-131422737D01*
X133199090Y-131401187D01*
X133198813Y-131400910D01*
X133177263Y-131374651D01*
X133177045Y-131374325D01*
X133161031Y-131344367D01*
X133160881Y-131344005D01*
X133151020Y-131311496D01*
X133150944Y-131311111D01*
X133147010Y-131271167D01*
X133147000Y-131270971D01*
X133147000Y-131186834D01*
X133148000Y-131185102D01*
X133150000Y-131185102D01*
X133150990Y-131186638D01*
G37*
G36*
X193150990Y-131186638D02*
G01*
X193156046Y-131237975D01*
X193170965Y-131287157D01*
X193195191Y-131332481D01*
X193227793Y-131372207D01*
X193267519Y-131404809D01*
X193312843Y-131429035D01*
X193362025Y-131443954D01*
X193413362Y-131449010D01*
X193414988Y-131450175D01*
X193414792Y-131452165D01*
X193413166Y-131453000D01*
X193329029Y-131453000D01*
X193328833Y-131452990D01*
X193288889Y-131449056D01*
X193288504Y-131448980D01*
X193255995Y-131439119D01*
X193255633Y-131438969D01*
X193225675Y-131422955D01*
X193225349Y-131422737D01*
X193199090Y-131401187D01*
X193198813Y-131400910D01*
X193177263Y-131374651D01*
X193177045Y-131374325D01*
X193161031Y-131344367D01*
X193160881Y-131344005D01*
X193151020Y-131311496D01*
X193150944Y-131311111D01*
X193147010Y-131271167D01*
X193147000Y-131270971D01*
X193147000Y-131186834D01*
X193148000Y-131185102D01*
X193150000Y-131185102D01*
X193150990Y-131186638D01*
G37*
G36*
X195052165Y-131185208D02*
G01*
X195053000Y-131186834D01*
X195053000Y-131270971D01*
X195052990Y-131271167D01*
X195049056Y-131311111D01*
X195048980Y-131311496D01*
X195039119Y-131344005D01*
X195038969Y-131344367D01*
X195022955Y-131374325D01*
X195022737Y-131374651D01*
X195001187Y-131400910D01*
X195000910Y-131401187D01*
X194974651Y-131422737D01*
X194974325Y-131422955D01*
X194944367Y-131438969D01*
X194944005Y-131439119D01*
X194911496Y-131448980D01*
X194911111Y-131449056D01*
X194871167Y-131452990D01*
X194870971Y-131453000D01*
X194786834Y-131453000D01*
X194785102Y-131452000D01*
X194785102Y-131450000D01*
X194786638Y-131449010D01*
X194837975Y-131443954D01*
X194887157Y-131429035D01*
X194932481Y-131404809D01*
X194972207Y-131372207D01*
X195004809Y-131332481D01*
X195029035Y-131287157D01*
X195043954Y-131237975D01*
X195049010Y-131186638D01*
X195050175Y-131185012D01*
X195052165Y-131185208D01*
G37*
G36*
X88150990Y-131186638D02*
G01*
X88156046Y-131237975D01*
X88170965Y-131287157D01*
X88195191Y-131332481D01*
X88227793Y-131372207D01*
X88267519Y-131404809D01*
X88312843Y-131429035D01*
X88362025Y-131443954D01*
X88413362Y-131449010D01*
X88414988Y-131450175D01*
X88414792Y-131452165D01*
X88413166Y-131453000D01*
X88329029Y-131453000D01*
X88328833Y-131452990D01*
X88288889Y-131449056D01*
X88288504Y-131448980D01*
X88255995Y-131439119D01*
X88255633Y-131438969D01*
X88225675Y-131422955D01*
X88225349Y-131422737D01*
X88199090Y-131401187D01*
X88198813Y-131400910D01*
X88177263Y-131374651D01*
X88177045Y-131374325D01*
X88161031Y-131344367D01*
X88160881Y-131344005D01*
X88151020Y-131311496D01*
X88150944Y-131311111D01*
X88147010Y-131271167D01*
X88147000Y-131270971D01*
X88147000Y-131186834D01*
X88148000Y-131185102D01*
X88150000Y-131185102D01*
X88150990Y-131186638D01*
G37*
G36*
X88414898Y-127748000D02*
G01*
X88414898Y-127750000D01*
X88413362Y-127750990D01*
X88362025Y-127756046D01*
X88312843Y-127770965D01*
X88267519Y-127795191D01*
X88227793Y-127827793D01*
X88195191Y-127867519D01*
X88170965Y-127912843D01*
X88156046Y-127962025D01*
X88150990Y-128013362D01*
X88149825Y-128014988D01*
X88147835Y-128014792D01*
X88147000Y-128013166D01*
X88147000Y-127929029D01*
X88147010Y-127928833D01*
X88150944Y-127888889D01*
X88151020Y-127888504D01*
X88160881Y-127855995D01*
X88161031Y-127855633D01*
X88177045Y-127825675D01*
X88177263Y-127825349D01*
X88198813Y-127799090D01*
X88199090Y-127798813D01*
X88225349Y-127777263D01*
X88225675Y-127777045D01*
X88255633Y-127761031D01*
X88255995Y-127760881D01*
X88288504Y-127751020D01*
X88288889Y-127750944D01*
X88328833Y-127747010D01*
X88329029Y-127747000D01*
X88413166Y-127747000D01*
X88414898Y-127748000D01*
G37*
G36*
X133414898Y-127748000D02*
G01*
X133414898Y-127750000D01*
X133413362Y-127750990D01*
X133362025Y-127756046D01*
X133312843Y-127770965D01*
X133267519Y-127795191D01*
X133227793Y-127827793D01*
X133195191Y-127867519D01*
X133170965Y-127912843D01*
X133156046Y-127962025D01*
X133150990Y-128013362D01*
X133149825Y-128014988D01*
X133147835Y-128014792D01*
X133147000Y-128013166D01*
X133147000Y-127929029D01*
X133147010Y-127928833D01*
X133150944Y-127888889D01*
X133151020Y-127888504D01*
X133160881Y-127855995D01*
X133161031Y-127855633D01*
X133177045Y-127825675D01*
X133177263Y-127825349D01*
X133198813Y-127799090D01*
X133199090Y-127798813D01*
X133225349Y-127777263D01*
X133225675Y-127777045D01*
X133255633Y-127761031D01*
X133255995Y-127760881D01*
X133288504Y-127751020D01*
X133288889Y-127750944D01*
X133328833Y-127747010D01*
X133329029Y-127747000D01*
X133413166Y-127747000D01*
X133414898Y-127748000D01*
G37*
G36*
X103414898Y-127748000D02*
G01*
X103414898Y-127750000D01*
X103413362Y-127750990D01*
X103362025Y-127756046D01*
X103312843Y-127770965D01*
X103267519Y-127795191D01*
X103227793Y-127827793D01*
X103195191Y-127867519D01*
X103170965Y-127912843D01*
X103156046Y-127962025D01*
X103150990Y-128013362D01*
X103149825Y-128014988D01*
X103147835Y-128014792D01*
X103147000Y-128013166D01*
X103147000Y-127929029D01*
X103147010Y-127928833D01*
X103150944Y-127888889D01*
X103151020Y-127888504D01*
X103160881Y-127855995D01*
X103161031Y-127855633D01*
X103177045Y-127825675D01*
X103177263Y-127825349D01*
X103198813Y-127799090D01*
X103199090Y-127798813D01*
X103225349Y-127777263D01*
X103225675Y-127777045D01*
X103255633Y-127761031D01*
X103255995Y-127760881D01*
X103288504Y-127751020D01*
X103288889Y-127750944D01*
X103328833Y-127747010D01*
X103329029Y-127747000D01*
X103413166Y-127747000D01*
X103414898Y-127748000D01*
G37*
G36*
X118529240Y-127748000D02*
G01*
X118529240Y-127750000D01*
X118527704Y-127750990D01*
X118476367Y-127756046D01*
X118427185Y-127770965D01*
X118381861Y-127795191D01*
X118342135Y-127827793D01*
X118309533Y-127867519D01*
X118285307Y-127912843D01*
X118270388Y-127962025D01*
X118265332Y-128013362D01*
X118264167Y-128014988D01*
X118262177Y-128014792D01*
X118261342Y-128013166D01*
X118261342Y-127929029D01*
X118261352Y-127928833D01*
X118265286Y-127888889D01*
X118265362Y-127888504D01*
X118275223Y-127855995D01*
X118275373Y-127855633D01*
X118291387Y-127825675D01*
X118291605Y-127825349D01*
X118313155Y-127799090D01*
X118313432Y-127798813D01*
X118339691Y-127777263D01*
X118340017Y-127777045D01*
X118369975Y-127761031D01*
X118370337Y-127760881D01*
X118402846Y-127751020D01*
X118403231Y-127750944D01*
X118443175Y-127747010D01*
X118443371Y-127747000D01*
X118527508Y-127747000D01*
X118529240Y-127748000D01*
G37*
G36*
X148414898Y-127748000D02*
G01*
X148414898Y-127750000D01*
X148413362Y-127750990D01*
X148362025Y-127756046D01*
X148312843Y-127770965D01*
X148267519Y-127795191D01*
X148227793Y-127827793D01*
X148195191Y-127867519D01*
X148170965Y-127912843D01*
X148156046Y-127962025D01*
X148150990Y-128013362D01*
X148149825Y-128014988D01*
X148147835Y-128014792D01*
X148147000Y-128013166D01*
X148147000Y-127929029D01*
X148147010Y-127928833D01*
X148150944Y-127888889D01*
X148151020Y-127888504D01*
X148160881Y-127855995D01*
X148161031Y-127855633D01*
X148177045Y-127825675D01*
X148177263Y-127825349D01*
X148198813Y-127799090D01*
X148199090Y-127798813D01*
X148225349Y-127777263D01*
X148225675Y-127777045D01*
X148255633Y-127761031D01*
X148255995Y-127760881D01*
X148288504Y-127751020D01*
X148288889Y-127750944D01*
X148328833Y-127747010D01*
X148329029Y-127747000D01*
X148413166Y-127747000D01*
X148414898Y-127748000D01*
G37*
G36*
X178414898Y-127748000D02*
G01*
X178414898Y-127750000D01*
X178413362Y-127750990D01*
X178362025Y-127756046D01*
X178312843Y-127770965D01*
X178267519Y-127795191D01*
X178227793Y-127827793D01*
X178195191Y-127867519D01*
X178170965Y-127912843D01*
X178156046Y-127962025D01*
X178150990Y-128013362D01*
X178149825Y-128014988D01*
X178147835Y-128014792D01*
X178147000Y-128013166D01*
X178147000Y-127929029D01*
X178147010Y-127928833D01*
X178150944Y-127888889D01*
X178151020Y-127888504D01*
X178160881Y-127855995D01*
X178161031Y-127855633D01*
X178177045Y-127825675D01*
X178177263Y-127825349D01*
X178198813Y-127799090D01*
X178199090Y-127798813D01*
X178225349Y-127777263D01*
X178225675Y-127777045D01*
X178255633Y-127761031D01*
X178255995Y-127760881D01*
X178288504Y-127751020D01*
X178288889Y-127750944D01*
X178328833Y-127747010D01*
X178329029Y-127747000D01*
X178413166Y-127747000D01*
X178414898Y-127748000D01*
G37*
G36*
X163414898Y-127748000D02*
G01*
X163414898Y-127750000D01*
X163413362Y-127750990D01*
X163362025Y-127756046D01*
X163312843Y-127770965D01*
X163267519Y-127795191D01*
X163227793Y-127827793D01*
X163195191Y-127867519D01*
X163170965Y-127912843D01*
X163156046Y-127962025D01*
X163150990Y-128013362D01*
X163149825Y-128014988D01*
X163147835Y-128014792D01*
X163147000Y-128013166D01*
X163147000Y-127929029D01*
X163147010Y-127928833D01*
X163150944Y-127888889D01*
X163151020Y-127888504D01*
X163160881Y-127855995D01*
X163161031Y-127855633D01*
X163177045Y-127825675D01*
X163177263Y-127825349D01*
X163198813Y-127799090D01*
X163199090Y-127798813D01*
X163225349Y-127777263D01*
X163225675Y-127777045D01*
X163255633Y-127761031D01*
X163255995Y-127760881D01*
X163288504Y-127751020D01*
X163288889Y-127750944D01*
X163328833Y-127747010D01*
X163329029Y-127747000D01*
X163413166Y-127747000D01*
X163414898Y-127748000D01*
G37*
G36*
X193414898Y-127748000D02*
G01*
X193414898Y-127750000D01*
X193413362Y-127750990D01*
X193362025Y-127756046D01*
X193312843Y-127770965D01*
X193267519Y-127795191D01*
X193227793Y-127827793D01*
X193195191Y-127867519D01*
X193170965Y-127912843D01*
X193156046Y-127962025D01*
X193150990Y-128013362D01*
X193149825Y-128014988D01*
X193147835Y-128014792D01*
X193147000Y-128013166D01*
X193147000Y-127929029D01*
X193147010Y-127928833D01*
X193150944Y-127888889D01*
X193151020Y-127888504D01*
X193160881Y-127855995D01*
X193161031Y-127855633D01*
X193177045Y-127825675D01*
X193177263Y-127825349D01*
X193198813Y-127799090D01*
X193199090Y-127798813D01*
X193225349Y-127777263D01*
X193225675Y-127777045D01*
X193255633Y-127761031D01*
X193255995Y-127760881D01*
X193288504Y-127751020D01*
X193288889Y-127750944D01*
X193328833Y-127747010D01*
X193329029Y-127747000D01*
X193413166Y-127747000D01*
X193414898Y-127748000D01*
G37*
G36*
X194871167Y-127747010D02*
G01*
X194911111Y-127750944D01*
X194911496Y-127751020D01*
X194944005Y-127760881D01*
X194944367Y-127761031D01*
X194974325Y-127777045D01*
X194974651Y-127777263D01*
X195000910Y-127798813D01*
X195001187Y-127799090D01*
X195022737Y-127825349D01*
X195022955Y-127825675D01*
X195038969Y-127855633D01*
X195039119Y-127855995D01*
X195048980Y-127888504D01*
X195049056Y-127888889D01*
X195052990Y-127928833D01*
X195053000Y-127929029D01*
X195053000Y-128013166D01*
X195052000Y-128014898D01*
X195050000Y-128014898D01*
X195049010Y-128013362D01*
X195043954Y-127962025D01*
X195029035Y-127912843D01*
X195004809Y-127867519D01*
X194972207Y-127827793D01*
X194932481Y-127795191D01*
X194887157Y-127770965D01*
X194837975Y-127756046D01*
X194786638Y-127750990D01*
X194785012Y-127749825D01*
X194785208Y-127747835D01*
X194786834Y-127747000D01*
X194870971Y-127747000D01*
X194871167Y-127747010D01*
G37*
G36*
X134871167Y-127747010D02*
G01*
X134911111Y-127750944D01*
X134911496Y-127751020D01*
X134944005Y-127760881D01*
X134944367Y-127761031D01*
X134974325Y-127777045D01*
X134974651Y-127777263D01*
X135000910Y-127798813D01*
X135001187Y-127799090D01*
X135022737Y-127825349D01*
X135022955Y-127825675D01*
X135038969Y-127855633D01*
X135039119Y-127855995D01*
X135048980Y-127888504D01*
X135049056Y-127888889D01*
X135052990Y-127928833D01*
X135053000Y-127929029D01*
X135053000Y-128013166D01*
X135052000Y-128014898D01*
X135050000Y-128014898D01*
X135049010Y-128013362D01*
X135043954Y-127962025D01*
X135029035Y-127912843D01*
X135004809Y-127867519D01*
X134972207Y-127827793D01*
X134932481Y-127795191D01*
X134887157Y-127770965D01*
X134837975Y-127756046D01*
X134786638Y-127750990D01*
X134785012Y-127749825D01*
X134785208Y-127747835D01*
X134786834Y-127747000D01*
X134870971Y-127747000D01*
X134871167Y-127747010D01*
G37*
G36*
X89871167Y-127747010D02*
G01*
X89911111Y-127750944D01*
X89911496Y-127751020D01*
X89944005Y-127760881D01*
X89944367Y-127761031D01*
X89974325Y-127777045D01*
X89974651Y-127777263D01*
X90000910Y-127798813D01*
X90001187Y-127799090D01*
X90022737Y-127825349D01*
X90022955Y-127825675D01*
X90038969Y-127855633D01*
X90039119Y-127855995D01*
X90048980Y-127888504D01*
X90049056Y-127888889D01*
X90052990Y-127928833D01*
X90053000Y-127929029D01*
X90053000Y-128013166D01*
X90052000Y-128014898D01*
X90050000Y-128014898D01*
X90049010Y-128013362D01*
X90043954Y-127962025D01*
X90029035Y-127912843D01*
X90004809Y-127867519D01*
X89972207Y-127827793D01*
X89932481Y-127795191D01*
X89887157Y-127770965D01*
X89837975Y-127756046D01*
X89786638Y-127750990D01*
X89785012Y-127749825D01*
X89785208Y-127747835D01*
X89786834Y-127747000D01*
X89870971Y-127747000D01*
X89871167Y-127747010D01*
G37*
G36*
X119985509Y-127747010D02*
G01*
X120025453Y-127750944D01*
X120025838Y-127751020D01*
X120058347Y-127760881D01*
X120058709Y-127761031D01*
X120088667Y-127777045D01*
X120088993Y-127777263D01*
X120115252Y-127798813D01*
X120115529Y-127799090D01*
X120137079Y-127825349D01*
X120137297Y-127825675D01*
X120153311Y-127855633D01*
X120153461Y-127855995D01*
X120163322Y-127888504D01*
X120163398Y-127888889D01*
X120167332Y-127928833D01*
X120167342Y-127929029D01*
X120167342Y-128013166D01*
X120166342Y-128014898D01*
X120164342Y-128014898D01*
X120163352Y-128013362D01*
X120158296Y-127962025D01*
X120143377Y-127912843D01*
X120119151Y-127867519D01*
X120086549Y-127827793D01*
X120046823Y-127795191D01*
X120001499Y-127770965D01*
X119952317Y-127756046D01*
X119900980Y-127750990D01*
X119899354Y-127749825D01*
X119899550Y-127747835D01*
X119901176Y-127747000D01*
X119985313Y-127747000D01*
X119985509Y-127747010D01*
G37*
G36*
X149871167Y-127747010D02*
G01*
X149911111Y-127750944D01*
X149911496Y-127751020D01*
X149944005Y-127760881D01*
X149944367Y-127761031D01*
X149974325Y-127777045D01*
X149974651Y-127777263D01*
X150000910Y-127798813D01*
X150001187Y-127799090D01*
X150022737Y-127825349D01*
X150022955Y-127825675D01*
X150038969Y-127855633D01*
X150039119Y-127855995D01*
X150048980Y-127888504D01*
X150049056Y-127888889D01*
X150052990Y-127928833D01*
X150053000Y-127929029D01*
X150053000Y-128013166D01*
X150052000Y-128014898D01*
X150050000Y-128014898D01*
X150049010Y-128013362D01*
X150043954Y-127962025D01*
X150029035Y-127912843D01*
X150004809Y-127867519D01*
X149972207Y-127827793D01*
X149932481Y-127795191D01*
X149887157Y-127770965D01*
X149837975Y-127756046D01*
X149786638Y-127750990D01*
X149785012Y-127749825D01*
X149785208Y-127747835D01*
X149786834Y-127747000D01*
X149870971Y-127747000D01*
X149871167Y-127747010D01*
G37*
G36*
X164871167Y-127747010D02*
G01*
X164911111Y-127750944D01*
X164911496Y-127751020D01*
X164944005Y-127760881D01*
X164944367Y-127761031D01*
X164974325Y-127777045D01*
X164974651Y-127777263D01*
X165000910Y-127798813D01*
X165001187Y-127799090D01*
X165022737Y-127825349D01*
X165022955Y-127825675D01*
X165038969Y-127855633D01*
X165039119Y-127855995D01*
X165048980Y-127888504D01*
X165049056Y-127888889D01*
X165052990Y-127928833D01*
X165053000Y-127929029D01*
X165053000Y-128013166D01*
X165052000Y-128014898D01*
X165050000Y-128014898D01*
X165049010Y-128013362D01*
X165043954Y-127962025D01*
X165029035Y-127912843D01*
X165004809Y-127867519D01*
X164972207Y-127827793D01*
X164932481Y-127795191D01*
X164887157Y-127770965D01*
X164837975Y-127756046D01*
X164786638Y-127750990D01*
X164785012Y-127749825D01*
X164785208Y-127747835D01*
X164786834Y-127747000D01*
X164870971Y-127747000D01*
X164871167Y-127747010D01*
G37*
G36*
X179871167Y-127747010D02*
G01*
X179911111Y-127750944D01*
X179911496Y-127751020D01*
X179944005Y-127760881D01*
X179944367Y-127761031D01*
X179974325Y-127777045D01*
X179974651Y-127777263D01*
X180000910Y-127798813D01*
X180001187Y-127799090D01*
X180022737Y-127825349D01*
X180022955Y-127825675D01*
X180038969Y-127855633D01*
X180039119Y-127855995D01*
X180048980Y-127888504D01*
X180049056Y-127888889D01*
X180052990Y-127928833D01*
X180053000Y-127929029D01*
X180053000Y-128013166D01*
X180052000Y-128014898D01*
X180050000Y-128014898D01*
X180049010Y-128013362D01*
X180043954Y-127962025D01*
X180029035Y-127912843D01*
X180004809Y-127867519D01*
X179972207Y-127827793D01*
X179932481Y-127795191D01*
X179887157Y-127770965D01*
X179837975Y-127756046D01*
X179786638Y-127750990D01*
X179785012Y-127749825D01*
X179785208Y-127747835D01*
X179786834Y-127747000D01*
X179870971Y-127747000D01*
X179871167Y-127747010D01*
G37*
G36*
X104871167Y-127747010D02*
G01*
X104911111Y-127750944D01*
X104911496Y-127751020D01*
X104944005Y-127760881D01*
X104944367Y-127761031D01*
X104974325Y-127777045D01*
X104974651Y-127777263D01*
X105000910Y-127798813D01*
X105001187Y-127799090D01*
X105022737Y-127825349D01*
X105022955Y-127825675D01*
X105038969Y-127855633D01*
X105039119Y-127855995D01*
X105048980Y-127888504D01*
X105049056Y-127888889D01*
X105052990Y-127928833D01*
X105053000Y-127929029D01*
X105053000Y-128013166D01*
X105052000Y-128014898D01*
X105050000Y-128014898D01*
X105049010Y-128013362D01*
X105043954Y-127962025D01*
X105029035Y-127912843D01*
X105004809Y-127867519D01*
X104972207Y-127827793D01*
X104932481Y-127795191D01*
X104887157Y-127770965D01*
X104837975Y-127756046D01*
X104786638Y-127750990D01*
X104785012Y-127749825D01*
X104785208Y-127747835D01*
X104786834Y-127747000D01*
X104870971Y-127747000D01*
X104871167Y-127747010D01*
G37*
G36*
X180052165Y-118185208D02*
G01*
X180053000Y-118186834D01*
X180053000Y-118270971D01*
X180052990Y-118271167D01*
X180049056Y-118311111D01*
X180048980Y-118311496D01*
X180039119Y-118344005D01*
X180038969Y-118344367D01*
X180022955Y-118374325D01*
X180022737Y-118374651D01*
X180001187Y-118400910D01*
X180000910Y-118401187D01*
X179974651Y-118422737D01*
X179974325Y-118422955D01*
X179944367Y-118438969D01*
X179944005Y-118439119D01*
X179911496Y-118448980D01*
X179911111Y-118449056D01*
X179871167Y-118452990D01*
X179870971Y-118453000D01*
X179786834Y-118453000D01*
X179785102Y-118452000D01*
X179785102Y-118450000D01*
X179786638Y-118449010D01*
X179837975Y-118443954D01*
X179887157Y-118429035D01*
X179932481Y-118404809D01*
X179972207Y-118372207D01*
X180004809Y-118332481D01*
X180029035Y-118287157D01*
X180043954Y-118237975D01*
X180049010Y-118186638D01*
X180050175Y-118185012D01*
X180052165Y-118185208D01*
G37*
G36*
X148150990Y-118186638D02*
G01*
X148156046Y-118237975D01*
X148170965Y-118287157D01*
X148195191Y-118332481D01*
X148227793Y-118372207D01*
X148267519Y-118404809D01*
X148312843Y-118429035D01*
X148362025Y-118443954D01*
X148413362Y-118449010D01*
X148414988Y-118450175D01*
X148414792Y-118452165D01*
X148413166Y-118453000D01*
X148329029Y-118453000D01*
X148328833Y-118452990D01*
X148288889Y-118449056D01*
X148288504Y-118448980D01*
X148255995Y-118439119D01*
X148255633Y-118438969D01*
X148225675Y-118422955D01*
X148225349Y-118422737D01*
X148199090Y-118401187D01*
X148198813Y-118400910D01*
X148177263Y-118374651D01*
X148177045Y-118374325D01*
X148161031Y-118344367D01*
X148160881Y-118344005D01*
X148151020Y-118311496D01*
X148150944Y-118311111D01*
X148147010Y-118271167D01*
X148147000Y-118270971D01*
X148147000Y-118186834D01*
X148148000Y-118185102D01*
X148150000Y-118185102D01*
X148150990Y-118186638D01*
G37*
G36*
X150052165Y-118185208D02*
G01*
X150053000Y-118186834D01*
X150053000Y-118270971D01*
X150052990Y-118271167D01*
X150049056Y-118311111D01*
X150048980Y-118311496D01*
X150039119Y-118344005D01*
X150038969Y-118344367D01*
X150022955Y-118374325D01*
X150022737Y-118374651D01*
X150001187Y-118400910D01*
X150000910Y-118401187D01*
X149974651Y-118422737D01*
X149974325Y-118422955D01*
X149944367Y-118438969D01*
X149944005Y-118439119D01*
X149911496Y-118448980D01*
X149911111Y-118449056D01*
X149871167Y-118452990D01*
X149870971Y-118453000D01*
X149786834Y-118453000D01*
X149785102Y-118452000D01*
X149785102Y-118450000D01*
X149786638Y-118449010D01*
X149837975Y-118443954D01*
X149887157Y-118429035D01*
X149932481Y-118404809D01*
X149972207Y-118372207D01*
X150004809Y-118332481D01*
X150029035Y-118287157D01*
X150043954Y-118237975D01*
X150049010Y-118186638D01*
X150050175Y-118185012D01*
X150052165Y-118185208D01*
G37*
G36*
X133150990Y-118186638D02*
G01*
X133156046Y-118237975D01*
X133170965Y-118287157D01*
X133195191Y-118332481D01*
X133227793Y-118372207D01*
X133267519Y-118404809D01*
X133312843Y-118429035D01*
X133362025Y-118443954D01*
X133413362Y-118449010D01*
X133414988Y-118450175D01*
X133414792Y-118452165D01*
X133413166Y-118453000D01*
X133329029Y-118453000D01*
X133328833Y-118452990D01*
X133288889Y-118449056D01*
X133288504Y-118448980D01*
X133255995Y-118439119D01*
X133255633Y-118438969D01*
X133225675Y-118422955D01*
X133225349Y-118422737D01*
X133199090Y-118401187D01*
X133198813Y-118400910D01*
X133177263Y-118374651D01*
X133177045Y-118374325D01*
X133161031Y-118344367D01*
X133160881Y-118344005D01*
X133151020Y-118311496D01*
X133150944Y-118311111D01*
X133147010Y-118271167D01*
X133147000Y-118270971D01*
X133147000Y-118186834D01*
X133148000Y-118185102D01*
X133150000Y-118185102D01*
X133150990Y-118186638D01*
G37*
G36*
X88150990Y-118186638D02*
G01*
X88156046Y-118237975D01*
X88170965Y-118287157D01*
X88195191Y-118332481D01*
X88227793Y-118372207D01*
X88267519Y-118404809D01*
X88312843Y-118429035D01*
X88362025Y-118443954D01*
X88413362Y-118449010D01*
X88414988Y-118450175D01*
X88414792Y-118452165D01*
X88413166Y-118453000D01*
X88329029Y-118453000D01*
X88328833Y-118452990D01*
X88288889Y-118449056D01*
X88288504Y-118448980D01*
X88255995Y-118439119D01*
X88255633Y-118438969D01*
X88225675Y-118422955D01*
X88225349Y-118422737D01*
X88199090Y-118401187D01*
X88198813Y-118400910D01*
X88177263Y-118374651D01*
X88177045Y-118374325D01*
X88161031Y-118344367D01*
X88160881Y-118344005D01*
X88151020Y-118311496D01*
X88150944Y-118311111D01*
X88147010Y-118271167D01*
X88147000Y-118270971D01*
X88147000Y-118186834D01*
X88148000Y-118185102D01*
X88150000Y-118185102D01*
X88150990Y-118186638D01*
G37*
G36*
X163150990Y-118186638D02*
G01*
X163156046Y-118237975D01*
X163170965Y-118287157D01*
X163195191Y-118332481D01*
X163227793Y-118372207D01*
X163267519Y-118404809D01*
X163312843Y-118429035D01*
X163362025Y-118443954D01*
X163413362Y-118449010D01*
X163414988Y-118450175D01*
X163414792Y-118452165D01*
X163413166Y-118453000D01*
X163329029Y-118453000D01*
X163328833Y-118452990D01*
X163288889Y-118449056D01*
X163288504Y-118448980D01*
X163255995Y-118439119D01*
X163255633Y-118438969D01*
X163225675Y-118422955D01*
X163225349Y-118422737D01*
X163199090Y-118401187D01*
X163198813Y-118400910D01*
X163177263Y-118374651D01*
X163177045Y-118374325D01*
X163161031Y-118344367D01*
X163160881Y-118344005D01*
X163151020Y-118311496D01*
X163150944Y-118311111D01*
X163147010Y-118271167D01*
X163147000Y-118270971D01*
X163147000Y-118186834D01*
X163148000Y-118185102D01*
X163150000Y-118185102D01*
X163150990Y-118186638D01*
G37*
G36*
X103150990Y-118186638D02*
G01*
X103156046Y-118237975D01*
X103170965Y-118287157D01*
X103195191Y-118332481D01*
X103227793Y-118372207D01*
X103267519Y-118404809D01*
X103312843Y-118429035D01*
X103362025Y-118443954D01*
X103413362Y-118449010D01*
X103414988Y-118450175D01*
X103414792Y-118452165D01*
X103413166Y-118453000D01*
X103329029Y-118453000D01*
X103328833Y-118452990D01*
X103288889Y-118449056D01*
X103288504Y-118448980D01*
X103255995Y-118439119D01*
X103255633Y-118438969D01*
X103225675Y-118422955D01*
X103225349Y-118422737D01*
X103199090Y-118401187D01*
X103198813Y-118400910D01*
X103177263Y-118374651D01*
X103177045Y-118374325D01*
X103161031Y-118344367D01*
X103160881Y-118344005D01*
X103151020Y-118311496D01*
X103150944Y-118311111D01*
X103147010Y-118271167D01*
X103147000Y-118270971D01*
X103147000Y-118186834D01*
X103148000Y-118185102D01*
X103150000Y-118185102D01*
X103150990Y-118186638D01*
G37*
G36*
X195052165Y-118185208D02*
G01*
X195053000Y-118186834D01*
X195053000Y-118270971D01*
X195052990Y-118271167D01*
X195049056Y-118311111D01*
X195048980Y-118311496D01*
X195039119Y-118344005D01*
X195038969Y-118344367D01*
X195022955Y-118374325D01*
X195022737Y-118374651D01*
X195001187Y-118400910D01*
X195000910Y-118401187D01*
X194974651Y-118422737D01*
X194974325Y-118422955D01*
X194944367Y-118438969D01*
X194944005Y-118439119D01*
X194911496Y-118448980D01*
X194911111Y-118449056D01*
X194871167Y-118452990D01*
X194870971Y-118453000D01*
X194786834Y-118453000D01*
X194785102Y-118452000D01*
X194785102Y-118450000D01*
X194786638Y-118449010D01*
X194837975Y-118443954D01*
X194887157Y-118429035D01*
X194932481Y-118404809D01*
X194972207Y-118372207D01*
X195004809Y-118332481D01*
X195029035Y-118287157D01*
X195043954Y-118237975D01*
X195049010Y-118186638D01*
X195050175Y-118185012D01*
X195052165Y-118185208D01*
G37*
G36*
X120052165Y-118185208D02*
G01*
X120053000Y-118186834D01*
X120053000Y-118270971D01*
X120052990Y-118271167D01*
X120049056Y-118311111D01*
X120048980Y-118311496D01*
X120039119Y-118344005D01*
X120038969Y-118344367D01*
X120022955Y-118374325D01*
X120022737Y-118374651D01*
X120001187Y-118400910D01*
X120000910Y-118401187D01*
X119974651Y-118422737D01*
X119974325Y-118422955D01*
X119944367Y-118438969D01*
X119944005Y-118439119D01*
X119911496Y-118448980D01*
X119911111Y-118449056D01*
X119871167Y-118452990D01*
X119870971Y-118453000D01*
X119786834Y-118453000D01*
X119785102Y-118452000D01*
X119785102Y-118450000D01*
X119786638Y-118449010D01*
X119837975Y-118443954D01*
X119887157Y-118429035D01*
X119932481Y-118404809D01*
X119972207Y-118372207D01*
X120004809Y-118332481D01*
X120029035Y-118287157D01*
X120043954Y-118237975D01*
X120049010Y-118186638D01*
X120050175Y-118185012D01*
X120052165Y-118185208D01*
G37*
G36*
X178150990Y-118186638D02*
G01*
X178156046Y-118237975D01*
X178170965Y-118287157D01*
X178195191Y-118332481D01*
X178227793Y-118372207D01*
X178267519Y-118404809D01*
X178312843Y-118429035D01*
X178362025Y-118443954D01*
X178413362Y-118449010D01*
X178414988Y-118450175D01*
X178414792Y-118452165D01*
X178413166Y-118453000D01*
X178329029Y-118453000D01*
X178328833Y-118452990D01*
X178288889Y-118449056D01*
X178288504Y-118448980D01*
X178255995Y-118439119D01*
X178255633Y-118438969D01*
X178225675Y-118422955D01*
X178225349Y-118422737D01*
X178199090Y-118401187D01*
X178198813Y-118400910D01*
X178177263Y-118374651D01*
X178177045Y-118374325D01*
X178161031Y-118344367D01*
X178160881Y-118344005D01*
X178151020Y-118311496D01*
X178150944Y-118311111D01*
X178147010Y-118271167D01*
X178147000Y-118270971D01*
X178147000Y-118186834D01*
X178148000Y-118185102D01*
X178150000Y-118185102D01*
X178150990Y-118186638D01*
G37*
G36*
X165052165Y-118185208D02*
G01*
X165053000Y-118186834D01*
X165053000Y-118270971D01*
X165052990Y-118271167D01*
X165049056Y-118311111D01*
X165048980Y-118311496D01*
X165039119Y-118344005D01*
X165038969Y-118344367D01*
X165022955Y-118374325D01*
X165022737Y-118374651D01*
X165001187Y-118400910D01*
X165000910Y-118401187D01*
X164974651Y-118422737D01*
X164974325Y-118422955D01*
X164944367Y-118438969D01*
X164944005Y-118439119D01*
X164911496Y-118448980D01*
X164911111Y-118449056D01*
X164871167Y-118452990D01*
X164870971Y-118453000D01*
X164786834Y-118453000D01*
X164785102Y-118452000D01*
X164785102Y-118450000D01*
X164786638Y-118449010D01*
X164837975Y-118443954D01*
X164887157Y-118429035D01*
X164932481Y-118404809D01*
X164972207Y-118372207D01*
X165004809Y-118332481D01*
X165029035Y-118287157D01*
X165043954Y-118237975D01*
X165049010Y-118186638D01*
X165050175Y-118185012D01*
X165052165Y-118185208D01*
G37*
G36*
X118150990Y-118186638D02*
G01*
X118156046Y-118237975D01*
X118170965Y-118287157D01*
X118195191Y-118332481D01*
X118227793Y-118372207D01*
X118267519Y-118404809D01*
X118312843Y-118429035D01*
X118362025Y-118443954D01*
X118413362Y-118449010D01*
X118414988Y-118450175D01*
X118414792Y-118452165D01*
X118413166Y-118453000D01*
X118329029Y-118453000D01*
X118328833Y-118452990D01*
X118288889Y-118449056D01*
X118288504Y-118448980D01*
X118255995Y-118439119D01*
X118255633Y-118438969D01*
X118225675Y-118422955D01*
X118225349Y-118422737D01*
X118199090Y-118401187D01*
X118198813Y-118400910D01*
X118177263Y-118374651D01*
X118177045Y-118374325D01*
X118161031Y-118344367D01*
X118160881Y-118344005D01*
X118151020Y-118311496D01*
X118150944Y-118311111D01*
X118147010Y-118271167D01*
X118147000Y-118270971D01*
X118147000Y-118186834D01*
X118148000Y-118185102D01*
X118150000Y-118185102D01*
X118150990Y-118186638D01*
G37*
G36*
X193150990Y-118186638D02*
G01*
X193156046Y-118237975D01*
X193170965Y-118287157D01*
X193195191Y-118332481D01*
X193227793Y-118372207D01*
X193267519Y-118404809D01*
X193312843Y-118429035D01*
X193362025Y-118443954D01*
X193413362Y-118449010D01*
X193414988Y-118450175D01*
X193414792Y-118452165D01*
X193413166Y-118453000D01*
X193329029Y-118453000D01*
X193328833Y-118452990D01*
X193288889Y-118449056D01*
X193288504Y-118448980D01*
X193255995Y-118439119D01*
X193255633Y-118438969D01*
X193225675Y-118422955D01*
X193225349Y-118422737D01*
X193199090Y-118401187D01*
X193198813Y-118400910D01*
X193177263Y-118374651D01*
X193177045Y-118374325D01*
X193161031Y-118344367D01*
X193160881Y-118344005D01*
X193151020Y-118311496D01*
X193150944Y-118311111D01*
X193147010Y-118271167D01*
X193147000Y-118270971D01*
X193147000Y-118186834D01*
X193148000Y-118185102D01*
X193150000Y-118185102D01*
X193150990Y-118186638D01*
G37*
G36*
X135052165Y-118185208D02*
G01*
X135053000Y-118186834D01*
X135053000Y-118270971D01*
X135052990Y-118271167D01*
X135049056Y-118311111D01*
X135048980Y-118311496D01*
X135039119Y-118344005D01*
X135038969Y-118344367D01*
X135022955Y-118374325D01*
X135022737Y-118374651D01*
X135001187Y-118400910D01*
X135000910Y-118401187D01*
X134974651Y-118422737D01*
X134974325Y-118422955D01*
X134944367Y-118438969D01*
X134944005Y-118439119D01*
X134911496Y-118448980D01*
X134911111Y-118449056D01*
X134871167Y-118452990D01*
X134870971Y-118453000D01*
X134786834Y-118453000D01*
X134785102Y-118452000D01*
X134785102Y-118450000D01*
X134786638Y-118449010D01*
X134837975Y-118443954D01*
X134887157Y-118429035D01*
X134932481Y-118404809D01*
X134972207Y-118372207D01*
X135004809Y-118332481D01*
X135029035Y-118287157D01*
X135043954Y-118237975D01*
X135049010Y-118186638D01*
X135050175Y-118185012D01*
X135052165Y-118185208D01*
G37*
G36*
X90052165Y-118185208D02*
G01*
X90053000Y-118186834D01*
X90053000Y-118270971D01*
X90052990Y-118271167D01*
X90049056Y-118311111D01*
X90048980Y-118311496D01*
X90039119Y-118344005D01*
X90038969Y-118344367D01*
X90022955Y-118374325D01*
X90022737Y-118374651D01*
X90001187Y-118400910D01*
X90000910Y-118401187D01*
X89974651Y-118422737D01*
X89974325Y-118422955D01*
X89944367Y-118438969D01*
X89944005Y-118439119D01*
X89911496Y-118448980D01*
X89911111Y-118449056D01*
X89871167Y-118452990D01*
X89870971Y-118453000D01*
X89786834Y-118453000D01*
X89785102Y-118452000D01*
X89785102Y-118450000D01*
X89786638Y-118449010D01*
X89837975Y-118443954D01*
X89887157Y-118429035D01*
X89932481Y-118404809D01*
X89972207Y-118372207D01*
X90004809Y-118332481D01*
X90029035Y-118287157D01*
X90043954Y-118237975D01*
X90049010Y-118186638D01*
X90050175Y-118185012D01*
X90052165Y-118185208D01*
G37*
G36*
X105052165Y-118185208D02*
G01*
X105053000Y-118186834D01*
X105053000Y-118270971D01*
X105052990Y-118271167D01*
X105049056Y-118311111D01*
X105048980Y-118311496D01*
X105039119Y-118344005D01*
X105038969Y-118344367D01*
X105022955Y-118374325D01*
X105022737Y-118374651D01*
X105001187Y-118400910D01*
X105000910Y-118401187D01*
X104974651Y-118422737D01*
X104974325Y-118422955D01*
X104944367Y-118438969D01*
X104944005Y-118439119D01*
X104911496Y-118448980D01*
X104911111Y-118449056D01*
X104871167Y-118452990D01*
X104870971Y-118453000D01*
X104786834Y-118453000D01*
X104785102Y-118452000D01*
X104785102Y-118450000D01*
X104786638Y-118449010D01*
X104837975Y-118443954D01*
X104887157Y-118429035D01*
X104932481Y-118404809D01*
X104972207Y-118372207D01*
X105004809Y-118332481D01*
X105029035Y-118287157D01*
X105043954Y-118237975D01*
X105049010Y-118186638D01*
X105050175Y-118185012D01*
X105052165Y-118185208D01*
G37*
G36*
X178414898Y-114748000D02*
G01*
X178414898Y-114750000D01*
X178413362Y-114750990D01*
X178362025Y-114756046D01*
X178312843Y-114770965D01*
X178267519Y-114795191D01*
X178227793Y-114827793D01*
X178195191Y-114867519D01*
X178170965Y-114912843D01*
X178156046Y-114962025D01*
X178150990Y-115013362D01*
X178149825Y-115014988D01*
X178147835Y-115014792D01*
X178147000Y-115013166D01*
X178147000Y-114929029D01*
X178147010Y-114928833D01*
X178150944Y-114888889D01*
X178151020Y-114888504D01*
X178160881Y-114855995D01*
X178161031Y-114855633D01*
X178177045Y-114825675D01*
X178177263Y-114825349D01*
X178198813Y-114799090D01*
X178199090Y-114798813D01*
X178225349Y-114777263D01*
X178225675Y-114777045D01*
X178255633Y-114761031D01*
X178255995Y-114760881D01*
X178288504Y-114751020D01*
X178288889Y-114750944D01*
X178328833Y-114747010D01*
X178329029Y-114747000D01*
X178413166Y-114747000D01*
X178414898Y-114748000D01*
G37*
G36*
X163414898Y-114748000D02*
G01*
X163414898Y-114750000D01*
X163413362Y-114750990D01*
X163362025Y-114756046D01*
X163312843Y-114770965D01*
X163267519Y-114795191D01*
X163227793Y-114827793D01*
X163195191Y-114867519D01*
X163170965Y-114912843D01*
X163156046Y-114962025D01*
X163150990Y-115013362D01*
X163149825Y-115014988D01*
X163147835Y-115014792D01*
X163147000Y-115013166D01*
X163147000Y-114929029D01*
X163147010Y-114928833D01*
X163150944Y-114888889D01*
X163151020Y-114888504D01*
X163160881Y-114855995D01*
X163161031Y-114855633D01*
X163177045Y-114825675D01*
X163177263Y-114825349D01*
X163198813Y-114799090D01*
X163199090Y-114798813D01*
X163225349Y-114777263D01*
X163225675Y-114777045D01*
X163255633Y-114761031D01*
X163255995Y-114760881D01*
X163288504Y-114751020D01*
X163288889Y-114750944D01*
X163328833Y-114747010D01*
X163329029Y-114747000D01*
X163413166Y-114747000D01*
X163414898Y-114748000D01*
G37*
G36*
X118414898Y-114748000D02*
G01*
X118414898Y-114750000D01*
X118413362Y-114750990D01*
X118362025Y-114756046D01*
X118312843Y-114770965D01*
X118267519Y-114795191D01*
X118227793Y-114827793D01*
X118195191Y-114867519D01*
X118170965Y-114912843D01*
X118156046Y-114962025D01*
X118150990Y-115013362D01*
X118149825Y-115014988D01*
X118147835Y-115014792D01*
X118147000Y-115013166D01*
X118147000Y-114929029D01*
X118147010Y-114928833D01*
X118150944Y-114888889D01*
X118151020Y-114888504D01*
X118160881Y-114855995D01*
X118161031Y-114855633D01*
X118177045Y-114825675D01*
X118177263Y-114825349D01*
X118198813Y-114799090D01*
X118199090Y-114798813D01*
X118225349Y-114777263D01*
X118225675Y-114777045D01*
X118255633Y-114761031D01*
X118255995Y-114760881D01*
X118288504Y-114751020D01*
X118288889Y-114750944D01*
X118328833Y-114747010D01*
X118329029Y-114747000D01*
X118413166Y-114747000D01*
X118414898Y-114748000D01*
G37*
G36*
X103414898Y-114748000D02*
G01*
X103414898Y-114750000D01*
X103413362Y-114750990D01*
X103362025Y-114756046D01*
X103312843Y-114770965D01*
X103267519Y-114795191D01*
X103227793Y-114827793D01*
X103195191Y-114867519D01*
X103170965Y-114912843D01*
X103156046Y-114962025D01*
X103150990Y-115013362D01*
X103149825Y-115014988D01*
X103147835Y-115014792D01*
X103147000Y-115013166D01*
X103147000Y-114929029D01*
X103147010Y-114928833D01*
X103150944Y-114888889D01*
X103151020Y-114888504D01*
X103160881Y-114855995D01*
X103161031Y-114855633D01*
X103177045Y-114825675D01*
X103177263Y-114825349D01*
X103198813Y-114799090D01*
X103199090Y-114798813D01*
X103225349Y-114777263D01*
X103225675Y-114777045D01*
X103255633Y-114761031D01*
X103255995Y-114760881D01*
X103288504Y-114751020D01*
X103288889Y-114750944D01*
X103328833Y-114747010D01*
X103329029Y-114747000D01*
X103413166Y-114747000D01*
X103414898Y-114748000D01*
G37*
G36*
X193414898Y-114748000D02*
G01*
X193414898Y-114750000D01*
X193413362Y-114750990D01*
X193362025Y-114756046D01*
X193312843Y-114770965D01*
X193267519Y-114795191D01*
X193227793Y-114827793D01*
X193195191Y-114867519D01*
X193170965Y-114912843D01*
X193156046Y-114962025D01*
X193150990Y-115013362D01*
X193149825Y-115014988D01*
X193147835Y-115014792D01*
X193147000Y-115013166D01*
X193147000Y-114929029D01*
X193147010Y-114928833D01*
X193150944Y-114888889D01*
X193151020Y-114888504D01*
X193160881Y-114855995D01*
X193161031Y-114855633D01*
X193177045Y-114825675D01*
X193177263Y-114825349D01*
X193198813Y-114799090D01*
X193199090Y-114798813D01*
X193225349Y-114777263D01*
X193225675Y-114777045D01*
X193255633Y-114761031D01*
X193255995Y-114760881D01*
X193288504Y-114751020D01*
X193288889Y-114750944D01*
X193328833Y-114747010D01*
X193329029Y-114747000D01*
X193413166Y-114747000D01*
X193414898Y-114748000D01*
G37*
G36*
X148414898Y-114748000D02*
G01*
X148414898Y-114750000D01*
X148413362Y-114750990D01*
X148362025Y-114756046D01*
X148312843Y-114770965D01*
X148267519Y-114795191D01*
X148227793Y-114827793D01*
X148195191Y-114867519D01*
X148170965Y-114912843D01*
X148156046Y-114962025D01*
X148150990Y-115013362D01*
X148149825Y-115014988D01*
X148147835Y-115014792D01*
X148147000Y-115013166D01*
X148147000Y-114929029D01*
X148147010Y-114928833D01*
X148150944Y-114888889D01*
X148151020Y-114888504D01*
X148160881Y-114855995D01*
X148161031Y-114855633D01*
X148177045Y-114825675D01*
X148177263Y-114825349D01*
X148198813Y-114799090D01*
X148199090Y-114798813D01*
X148225349Y-114777263D01*
X148225675Y-114777045D01*
X148255633Y-114761031D01*
X148255995Y-114760881D01*
X148288504Y-114751020D01*
X148288889Y-114750944D01*
X148328833Y-114747010D01*
X148329029Y-114747000D01*
X148413166Y-114747000D01*
X148414898Y-114748000D01*
G37*
G36*
X133414898Y-114748000D02*
G01*
X133414898Y-114750000D01*
X133413362Y-114750990D01*
X133362025Y-114756046D01*
X133312843Y-114770965D01*
X133267519Y-114795191D01*
X133227793Y-114827793D01*
X133195191Y-114867519D01*
X133170965Y-114912843D01*
X133156046Y-114962025D01*
X133150990Y-115013362D01*
X133149825Y-115014988D01*
X133147835Y-115014792D01*
X133147000Y-115013166D01*
X133147000Y-114929029D01*
X133147010Y-114928833D01*
X133150944Y-114888889D01*
X133151020Y-114888504D01*
X133160881Y-114855995D01*
X133161031Y-114855633D01*
X133177045Y-114825675D01*
X133177263Y-114825349D01*
X133198813Y-114799090D01*
X133199090Y-114798813D01*
X133225349Y-114777263D01*
X133225675Y-114777045D01*
X133255633Y-114761031D01*
X133255995Y-114760881D01*
X133288504Y-114751020D01*
X133288889Y-114750944D01*
X133328833Y-114747010D01*
X133329029Y-114747000D01*
X133413166Y-114747000D01*
X133414898Y-114748000D01*
G37*
G36*
X88414898Y-114748000D02*
G01*
X88414898Y-114750000D01*
X88413362Y-114750990D01*
X88362025Y-114756046D01*
X88312843Y-114770965D01*
X88267519Y-114795191D01*
X88227793Y-114827793D01*
X88195191Y-114867519D01*
X88170965Y-114912843D01*
X88156046Y-114962025D01*
X88150990Y-115013362D01*
X88149825Y-115014988D01*
X88147835Y-115014792D01*
X88147000Y-115013166D01*
X88147000Y-114929029D01*
X88147010Y-114928833D01*
X88150944Y-114888889D01*
X88151020Y-114888504D01*
X88160881Y-114855995D01*
X88161031Y-114855633D01*
X88177045Y-114825675D01*
X88177263Y-114825349D01*
X88198813Y-114799090D01*
X88199090Y-114798813D01*
X88225349Y-114777263D01*
X88225675Y-114777045D01*
X88255633Y-114761031D01*
X88255995Y-114760881D01*
X88288504Y-114751020D01*
X88288889Y-114750944D01*
X88328833Y-114747010D01*
X88329029Y-114747000D01*
X88413166Y-114747000D01*
X88414898Y-114748000D01*
G37*
G36*
X89871167Y-114747010D02*
G01*
X89911111Y-114750944D01*
X89911496Y-114751020D01*
X89944005Y-114760881D01*
X89944367Y-114761031D01*
X89974325Y-114777045D01*
X89974651Y-114777263D01*
X90000910Y-114798813D01*
X90001187Y-114799090D01*
X90022737Y-114825349D01*
X90022955Y-114825675D01*
X90038969Y-114855633D01*
X90039119Y-114855995D01*
X90048980Y-114888504D01*
X90049056Y-114888889D01*
X90052990Y-114928833D01*
X90053000Y-114929029D01*
X90053000Y-115013166D01*
X90052000Y-115014898D01*
X90050000Y-115014898D01*
X90049010Y-115013362D01*
X90043954Y-114962025D01*
X90029035Y-114912843D01*
X90004809Y-114867519D01*
X89972207Y-114827793D01*
X89932481Y-114795191D01*
X89887157Y-114770965D01*
X89837975Y-114756046D01*
X89786638Y-114750990D01*
X89785012Y-114749825D01*
X89785208Y-114747835D01*
X89786834Y-114747000D01*
X89870971Y-114747000D01*
X89871167Y-114747010D01*
G37*
G36*
X104871167Y-114747010D02*
G01*
X104911111Y-114750944D01*
X104911496Y-114751020D01*
X104944005Y-114760881D01*
X104944367Y-114761031D01*
X104974325Y-114777045D01*
X104974651Y-114777263D01*
X105000910Y-114798813D01*
X105001187Y-114799090D01*
X105022737Y-114825349D01*
X105022955Y-114825675D01*
X105038969Y-114855633D01*
X105039119Y-114855995D01*
X105048980Y-114888504D01*
X105049056Y-114888889D01*
X105052990Y-114928833D01*
X105053000Y-114929029D01*
X105053000Y-115013166D01*
X105052000Y-115014898D01*
X105050000Y-115014898D01*
X105049010Y-115013362D01*
X105043954Y-114962025D01*
X105029035Y-114912843D01*
X105004809Y-114867519D01*
X104972207Y-114827793D01*
X104932481Y-114795191D01*
X104887157Y-114770965D01*
X104837975Y-114756046D01*
X104786638Y-114750990D01*
X104785012Y-114749825D01*
X104785208Y-114747835D01*
X104786834Y-114747000D01*
X104870971Y-114747000D01*
X104871167Y-114747010D01*
G37*
G36*
X179871167Y-114747010D02*
G01*
X179911111Y-114750944D01*
X179911496Y-114751020D01*
X179944005Y-114760881D01*
X179944367Y-114761031D01*
X179974325Y-114777045D01*
X179974651Y-114777263D01*
X180000910Y-114798813D01*
X180001187Y-114799090D01*
X180022737Y-114825349D01*
X180022955Y-114825675D01*
X180038969Y-114855633D01*
X180039119Y-114855995D01*
X180048980Y-114888504D01*
X180049056Y-114888889D01*
X180052990Y-114928833D01*
X180053000Y-114929029D01*
X180053000Y-115013166D01*
X180052000Y-115014898D01*
X180050000Y-115014898D01*
X180049010Y-115013362D01*
X180043954Y-114962025D01*
X180029035Y-114912843D01*
X180004809Y-114867519D01*
X179972207Y-114827793D01*
X179932481Y-114795191D01*
X179887157Y-114770965D01*
X179837975Y-114756046D01*
X179786638Y-114750990D01*
X179785012Y-114749825D01*
X179785208Y-114747835D01*
X179786834Y-114747000D01*
X179870971Y-114747000D01*
X179871167Y-114747010D01*
G37*
G36*
X119871167Y-114747010D02*
G01*
X119911111Y-114750944D01*
X119911496Y-114751020D01*
X119944005Y-114760881D01*
X119944367Y-114761031D01*
X119974325Y-114777045D01*
X119974651Y-114777263D01*
X120000910Y-114798813D01*
X120001187Y-114799090D01*
X120022737Y-114825349D01*
X120022955Y-114825675D01*
X120038969Y-114855633D01*
X120039119Y-114855995D01*
X120048980Y-114888504D01*
X120049056Y-114888889D01*
X120052990Y-114928833D01*
X120053000Y-114929029D01*
X120053000Y-115013166D01*
X120052000Y-115014898D01*
X120050000Y-115014898D01*
X120049010Y-115013362D01*
X120043954Y-114962025D01*
X120029035Y-114912843D01*
X120004809Y-114867519D01*
X119972207Y-114827793D01*
X119932481Y-114795191D01*
X119887157Y-114770965D01*
X119837975Y-114756046D01*
X119786638Y-114750990D01*
X119785012Y-114749825D01*
X119785208Y-114747835D01*
X119786834Y-114747000D01*
X119870971Y-114747000D01*
X119871167Y-114747010D01*
G37*
G36*
X134871167Y-114747010D02*
G01*
X134911111Y-114750944D01*
X134911496Y-114751020D01*
X134944005Y-114760881D01*
X134944367Y-114761031D01*
X134974325Y-114777045D01*
X134974651Y-114777263D01*
X135000910Y-114798813D01*
X135001187Y-114799090D01*
X135022737Y-114825349D01*
X135022955Y-114825675D01*
X135038969Y-114855633D01*
X135039119Y-114855995D01*
X135048980Y-114888504D01*
X135049056Y-114888889D01*
X135052990Y-114928833D01*
X135053000Y-114929029D01*
X135053000Y-115013166D01*
X135052000Y-115014898D01*
X135050000Y-115014898D01*
X135049010Y-115013362D01*
X135043954Y-114962025D01*
X135029035Y-114912843D01*
X135004809Y-114867519D01*
X134972207Y-114827793D01*
X134932481Y-114795191D01*
X134887157Y-114770965D01*
X134837975Y-114756046D01*
X134786638Y-114750990D01*
X134785012Y-114749825D01*
X134785208Y-114747835D01*
X134786834Y-114747000D01*
X134870971Y-114747000D01*
X134871167Y-114747010D01*
G37*
G36*
X194871167Y-114747010D02*
G01*
X194911111Y-114750944D01*
X194911496Y-114751020D01*
X194944005Y-114760881D01*
X194944367Y-114761031D01*
X194974325Y-114777045D01*
X194974651Y-114777263D01*
X195000910Y-114798813D01*
X195001187Y-114799090D01*
X195022737Y-114825349D01*
X195022955Y-114825675D01*
X195038969Y-114855633D01*
X195039119Y-114855995D01*
X195048980Y-114888504D01*
X195049056Y-114888889D01*
X195052990Y-114928833D01*
X195053000Y-114929029D01*
X195053000Y-115013166D01*
X195052000Y-115014898D01*
X195050000Y-115014898D01*
X195049010Y-115013362D01*
X195043954Y-114962025D01*
X195029035Y-114912843D01*
X195004809Y-114867519D01*
X194972207Y-114827793D01*
X194932481Y-114795191D01*
X194887157Y-114770965D01*
X194837975Y-114756046D01*
X194786638Y-114750990D01*
X194785012Y-114749825D01*
X194785208Y-114747835D01*
X194786834Y-114747000D01*
X194870971Y-114747000D01*
X194871167Y-114747010D01*
G37*
G36*
X149871167Y-114747010D02*
G01*
X149911111Y-114750944D01*
X149911496Y-114751020D01*
X149944005Y-114760881D01*
X149944367Y-114761031D01*
X149974325Y-114777045D01*
X149974651Y-114777263D01*
X150000910Y-114798813D01*
X150001187Y-114799090D01*
X150022737Y-114825349D01*
X150022955Y-114825675D01*
X150038969Y-114855633D01*
X150039119Y-114855995D01*
X150048980Y-114888504D01*
X150049056Y-114888889D01*
X150052990Y-114928833D01*
X150053000Y-114929029D01*
X150053000Y-115013166D01*
X150052000Y-115014898D01*
X150050000Y-115014898D01*
X150049010Y-115013362D01*
X150043954Y-114962025D01*
X150029035Y-114912843D01*
X150004809Y-114867519D01*
X149972207Y-114827793D01*
X149932481Y-114795191D01*
X149887157Y-114770965D01*
X149837975Y-114756046D01*
X149786638Y-114750990D01*
X149785012Y-114749825D01*
X149785208Y-114747835D01*
X149786834Y-114747000D01*
X149870971Y-114747000D01*
X149871167Y-114747010D01*
G37*
G36*
X164871167Y-114747010D02*
G01*
X164911111Y-114750944D01*
X164911496Y-114751020D01*
X164944005Y-114760881D01*
X164944367Y-114761031D01*
X164974325Y-114777045D01*
X164974651Y-114777263D01*
X165000910Y-114798813D01*
X165001187Y-114799090D01*
X165022737Y-114825349D01*
X165022955Y-114825675D01*
X165038969Y-114855633D01*
X165039119Y-114855995D01*
X165048980Y-114888504D01*
X165049056Y-114888889D01*
X165052990Y-114928833D01*
X165053000Y-114929029D01*
X165053000Y-115013166D01*
X165052000Y-115014898D01*
X165050000Y-115014898D01*
X165049010Y-115013362D01*
X165043954Y-114962025D01*
X165029035Y-114912843D01*
X165004809Y-114867519D01*
X164972207Y-114827793D01*
X164932481Y-114795191D01*
X164887157Y-114770965D01*
X164837975Y-114756046D01*
X164786638Y-114750990D01*
X164785012Y-114749825D01*
X164785208Y-114747835D01*
X164786834Y-114747000D01*
X164870971Y-114747000D01*
X164871167Y-114747010D01*
G37*
M02*
