M48
; DRILL file {KiCad (6.0.5)} date Mon May  9 00:24:38 2022
; FORMAT={-:-/ absolute / metric / decimal}
; #@! TF.CreationDate,2022-05-09T00:24:38-04:00
; #@! TF.GenerationSoftware,Kicad,Pcbnew,(6.0.5)
; #@! TF.FileFunction,Plated,1,2,PTH
FMAT,2
METRIC
; #@! TA.AperFunction,Plated,PTH,ViaDrill
T1C0.400
; #@! TA.AperFunction,Plated,PTH,ComponentDrill
T2C0.800
; #@! TA.AperFunction,Plated,PTH,ComponentDrill
T3C1.016
; #@! TA.AperFunction,Plated,PTH,ComponentDrill
T4C1.200
; #@! TA.AperFunction,Plated,PTH,ComponentDrill
T5C1.650
; #@! TA.AperFunction,Plated,PTH,ComponentDrill
T6C1.700
%
G90
G05
T1
X72.501Y-119.618
X73.051Y-87.718
X73.051Y-101.718
X73.301Y-94.218
X73.301Y-109.218
X74.901Y-121.618
X77.551Y-133.218
X81.113Y-138.43
X83.145Y-138.43
X84.551Y-110.218
X85.177Y-138.43
X90.301Y-88.218
X90.801Y-80.218
X91.651Y-109.268
X94.601Y-111.168
X98.451Y-114.418
X98.651Y-119.968
X101.501Y-79.518
X103.301Y-110.918
X104.901Y-104.418
X106.501Y-95.218
X108.301Y-97.818
X108.301Y-102.018
X108.351Y-91.318
X109.101Y-110.918
X111.351Y-88.318
X116.301Y-111.018
X117.801Y-79.218
X117.901Y-97.618
X118.101Y-102.218
X118.401Y-87.868
X118.501Y-84.218
X122.101Y-95.018
X122.501Y-100.618
X123.351Y-110.668
X124.701Y-102.618
X127.251Y-113.768
X128.651Y-119.968
X128.801Y-111.218
X133.101Y-110.668
X133.551Y-106.818
X133.601Y-95.318
X136.501Y-102.368
X139.551Y-92.518
X139.701Y-111.018
X142.151Y-126.168
X142.701Y-93.668
X142.701Y-102.668
X142.751Y-121.518
X143.151Y-113.818
X144.851Y-106.618
X146.101Y-79.618
X150.501Y-102.418
X151.601Y-93.818
X151.751Y-106.368
X153.651Y-92.768
X154.201Y-111.168
X155.801Y-92.218
X156.851Y-101.768
X156.901Y-98.018
X157.801Y-91.668
X157.801Y-103.818
X157.951Y-112.418
X158.001Y-121.018
X160.851Y-91.068
X161.101Y-94.818
X161.501Y-111.018
X163.401Y-79.518
X164.051Y-90.068
X165.201Y-101.768
X166.151Y-89.518
X166.301Y-95.418
X167.251Y-110.918
X167.501Y-97.618
X168.351Y-125.268
X171.101Y-88.818
X171.261Y-81.218
X172.051Y-85.118
X173.301Y-114.718
X176.101Y-102.018
X176.351Y-85.018
X176.851Y-89.068
X177.101Y-97.818
X177.501Y-102.018
X180.701Y-100.818
X180.951Y-86.618
X181.101Y-94.218
X181.901Y-110.918
X182.701Y-79.618
X182.901Y-100.818
X186.051Y-91.068
X186.201Y-110.618
X187.301Y-102.218
X187.401Y-98.418
X187.451Y-95.168
X187.551Y-120.518
X188.601Y-98.418
X188.651Y-95.168
X189.851Y-95.168
X189.851Y-98.418
X190.201Y-106.368
X190.851Y-96.118
X190.851Y-97.418
X191.301Y-91.218
X197.301Y-100.618
X197.301Y-104.818
X197.351Y-109.868
X199.301Y-102.818
X199.751Y-137.868
X200.301Y-125.218
X201.051Y-79.968
X201.301Y-89.218
X203.251Y-137.768
X203.701Y-111.818
X207.605Y-137.414
X208.301Y-100.218
X209.201Y-111.768
X214.101Y-121.818
X216.301Y-86.218
X216.301Y-108.218
X216.501Y-119.418
X216.801Y-99.718
T2
X95.561Y-108.814
X98.102Y-108.814
X100.641Y-108.814
X103.181Y-108.814
X105.721Y-108.814
X108.261Y-108.814
X110.801Y-108.814
X113.341Y-108.814
X116.853Y-108.814
X119.393Y-108.814
X121.933Y-108.814
X124.473Y-108.814
X127.013Y-108.814
X129.553Y-108.814
X132.093Y-108.814
X134.633Y-108.814
X153.486Y-108.814
X156.026Y-108.814
X158.566Y-108.814
X161.106Y-108.814
X163.646Y-108.814
X166.186Y-108.814
X168.726Y-108.814
X171.266Y-108.814
X174.813Y-108.814
X177.353Y-108.814
X179.893Y-108.814
X182.433Y-108.814
X184.973Y-108.814
X187.513Y-108.814
X190.053Y-108.814
X192.593Y-108.814
T3
X121.301Y-84.518
X121.301Y-87.058
X123.841Y-84.518
X123.841Y-87.058
X126.381Y-84.518
X126.381Y-87.058
X128.921Y-84.518
X128.921Y-87.058
X131.461Y-84.518
X131.461Y-87.058
X134.001Y-84.518
X134.001Y-87.058
X136.541Y-84.518
X136.541Y-87.058
X139.081Y-84.518
X139.081Y-87.058
X141.621Y-84.518
X141.621Y-87.058
X144.161Y-84.518
X144.161Y-87.058
X146.701Y-84.518
X146.701Y-87.058
X149.241Y-84.518
X149.241Y-87.058
X151.781Y-84.518
X151.781Y-87.058
X154.321Y-84.518
X154.321Y-87.058
X156.861Y-84.518
X156.861Y-87.058
X159.401Y-84.518
X159.401Y-87.058
X161.941Y-84.518
X161.941Y-87.058
X164.481Y-84.518
X164.481Y-87.058
X167.021Y-84.518
X167.021Y-87.058
X169.561Y-84.518
X169.561Y-87.058
T4
X89.1Y-116.6
X89.1Y-129.6
X92.6Y-116.6
X92.6Y-129.6
X96.1Y-116.6
X96.1Y-129.6
X104.1Y-116.6
X104.1Y-129.6
X107.6Y-116.6
X107.6Y-129.6
X111.1Y-116.6
X111.1Y-129.6
X119.1Y-116.6
X119.214Y-129.6
X122.6Y-116.6
X122.714Y-129.6
X126.1Y-116.6
X126.214Y-129.6
X134.1Y-116.6
X134.1Y-129.6
X137.6Y-116.6
X137.6Y-129.6
X141.1Y-116.6
X141.1Y-129.6
X149.1Y-116.6
X149.1Y-129.6
X152.6Y-116.6
X152.6Y-129.6
X156.1Y-116.6
X156.1Y-129.6
X164.1Y-116.6
X164.1Y-129.6
X167.6Y-116.6
X167.6Y-129.6
X171.1Y-116.6
X171.1Y-129.6
X179.1Y-116.6
X179.1Y-129.6
X182.6Y-116.6
X182.6Y-129.6
X186.1Y-116.6
X186.1Y-129.6
X194.1Y-116.6
X194.1Y-129.6
X197.6Y-116.6
X197.6Y-129.6
X201.1Y-116.6
X201.1Y-129.6
T5
X94.223Y-138.389
X94.223Y-142.089
X94.223Y-146.589
X94.223Y-150.289
X100.923Y-138.404
X100.923Y-142.104
X100.923Y-146.604
X100.923Y-150.304
X107.623Y-138.404
X107.623Y-142.104
X107.623Y-146.604
X107.623Y-150.304
X114.324Y-138.404
X114.324Y-142.104
X114.324Y-146.604
X114.324Y-150.304
X121.024Y-138.399
X121.024Y-142.099
X121.024Y-146.599
X121.024Y-150.299
X127.725Y-138.399
X127.725Y-142.099
X127.725Y-146.599
X127.725Y-150.299
X134.425Y-138.399
X134.425Y-142.099
X134.425Y-146.599
X134.425Y-150.299
X141.126Y-138.399
X141.126Y-142.099
X141.126Y-146.599
X141.126Y-150.299
X147.826Y-138.399
X147.826Y-142.099
X147.826Y-146.599
X147.826Y-150.299
X154.526Y-138.399
X154.526Y-142.099
X154.526Y-146.599
X154.526Y-150.299
X161.227Y-138.399
X161.227Y-142.099
X161.227Y-146.599
X161.227Y-150.299
X167.927Y-138.399
X167.927Y-142.099
X167.927Y-146.599
X167.927Y-150.299
X174.628Y-138.464
X174.628Y-142.164
X174.628Y-146.664
X174.628Y-150.364
X181.328Y-138.464
X181.328Y-142.164
X181.328Y-146.664
X181.328Y-150.364
X188.029Y-138.464
X188.029Y-142.164
X188.029Y-146.664
X188.029Y-150.364
X194.729Y-138.464
X194.729Y-142.164
X194.729Y-146.664
X194.729Y-150.364
T6
X76.101Y-145.518
X85.601Y-145.518
X203.401Y-145.418
X212.901Y-145.418
T0
M30
