%TF.GenerationSoftware,KiCad,Pcbnew,(6.0.5)*%
%TF.CreationDate,2022-06-05T12:38:17-04:00*%
%TF.ProjectId,Exp_Filter,4578705f-4669-46c7-9465-722e6b696361,rev?*%
%TF.SameCoordinates,Original*%
%TF.FileFunction,Soldermask,Bot*%
%TF.FilePolarity,Negative*%
%FSLAX46Y46*%
G04 Gerber Fmt 4.6, Leading zero omitted, Abs format (unit mm)*
G04 Created by KiCad (PCBNEW (6.0.5)) date 2022-06-05 12:38:17*
%MOMM*%
%LPD*%
G01*
G04 APERTURE LIST*
G04 Aperture macros list*
%AMRoundRect*
0 Rectangle with rounded corners*
0 $1 Rounding radius*
0 $2 $3 $4 $5 $6 $7 $8 $9 X,Y pos of 4 corners*
0 Add a 4 corners polygon primitive as box body*
4,1,4,$2,$3,$4,$5,$6,$7,$8,$9,$2,$3,0*
0 Add four circle primitives for the rounded corners*
1,1,$1+$1,$2,$3*
1,1,$1+$1,$4,$5*
1,1,$1+$1,$6,$7*
1,1,$1+$1,$8,$9*
0 Add four rect primitives between the rounded corners*
20,1,$1+$1,$2,$3,$4,$5,0*
20,1,$1+$1,$4,$5,$6,$7,0*
20,1,$1+$1,$6,$7,$8,$9,0*
20,1,$1+$1,$8,$9,$2,$3,0*%
G04 Aperture macros list end*
%ADD10R,1.700000X1.700000*%
%ADD11O,1.700000X1.700000*%
%ADD12RoundRect,0.237500X0.237500X-0.250000X0.237500X0.250000X-0.237500X0.250000X-0.237500X-0.250000X0*%
G04 APERTURE END LIST*
D10*
%TO.C,J1*%
X171100000Y-112690000D03*
D11*
X171100000Y-110150000D03*
X168560000Y-112690000D03*
X168560000Y-110150000D03*
X166020000Y-112690000D03*
X166020000Y-110150000D03*
X163480000Y-112690000D03*
X163480000Y-110150000D03*
X160940000Y-112690000D03*
X160940000Y-110150000D03*
X158400000Y-112690000D03*
X158400000Y-110150000D03*
X155860000Y-112690000D03*
X155860000Y-110150000D03*
X153320000Y-112690000D03*
X153320000Y-110150000D03*
X150780000Y-112690000D03*
X150780000Y-110150000D03*
X148240000Y-112690000D03*
X148240000Y-110150000D03*
X145700000Y-112690000D03*
X145700000Y-110150000D03*
X143160000Y-112690000D03*
X143160000Y-110150000D03*
X140620000Y-112690000D03*
X140620000Y-110150000D03*
X138080000Y-112690000D03*
X138080000Y-110150000D03*
X135540000Y-112690000D03*
X135540000Y-110150000D03*
X133000000Y-112690000D03*
X133000000Y-110150000D03*
X130460000Y-112690000D03*
X130460000Y-110150000D03*
X127920000Y-112690000D03*
X127920000Y-110150000D03*
X125380000Y-112690000D03*
X125380000Y-110150000D03*
X122840000Y-112690000D03*
X122840000Y-110150000D03*
%TD*%
D12*
%TO.C,R12*%
X138068000Y-107500000D03*
X138068000Y-105675000D03*
%TD*%
%TO.C,R4*%
X158404000Y-107500000D03*
X158404000Y-105675000D03*
%TD*%
%TO.C,R16*%
X127900000Y-107500000D03*
X127900000Y-105675000D03*
%TD*%
%TO.C,R1*%
X166030000Y-107500000D03*
X166030000Y-105675000D03*
%TD*%
%TO.C,R2*%
X163488000Y-107500000D03*
X163488000Y-105675000D03*
%TD*%
%TO.C,R5*%
X155862000Y-107500000D03*
X155862000Y-105675000D03*
%TD*%
%TO.C,R9*%
X145694000Y-107500000D03*
X145694000Y-105675000D03*
%TD*%
%TO.C,R7*%
X150778000Y-107500000D03*
X150778000Y-105675000D03*
%TD*%
%TO.C,R13*%
X135526000Y-107500000D03*
X135526000Y-105675000D03*
%TD*%
%TO.C,R15*%
X130442000Y-107500000D03*
X130442000Y-105675000D03*
%TD*%
%TO.C,R14*%
X132984000Y-107500000D03*
X132984000Y-105675000D03*
%TD*%
%TO.C,R6*%
X153320000Y-107500000D03*
X153320000Y-105675000D03*
%TD*%
%TO.C,R8*%
X148236000Y-107500000D03*
X148236000Y-105675000D03*
%TD*%
%TO.C,R3*%
X160946000Y-107500000D03*
X160946000Y-105675000D03*
%TD*%
%TO.C,R10*%
X143152000Y-107500000D03*
X143152000Y-105675000D03*
%TD*%
%TO.C,R11*%
X140610000Y-107500000D03*
X140610000Y-105675000D03*
%TD*%
M02*
