%TF.GenerationSoftware,KiCad,Pcbnew,(6.0.7)*%
%TF.CreationDate,2022-09-14T00:34:43-04:00*%
%TF.ProjectId,Pi_Zero_24_Diff,50695f5a-6572-46f5-9f32-345f44696666,v1*%
%TF.SameCoordinates,Original*%
%TF.FileFunction,Soldermask,Bot*%
%TF.FilePolarity,Negative*%
%FSLAX46Y46*%
G04 Gerber Fmt 4.6, Leading zero omitted, Abs format (unit mm)*
G04 Created by KiCad (PCBNEW (6.0.7)) date 2022-09-14 00:34:43*
%MOMM*%
%LPD*%
G01*
G04 APERTURE LIST*
G04 Aperture macros list*
%AMRoundRect*
0 Rectangle with rounded corners*
0 $1 Rounding radius*
0 $2 $3 $4 $5 $6 $7 $8 $9 X,Y pos of 4 corners*
0 Add a 4 corners polygon primitive as box body*
4,1,4,$2,$3,$4,$5,$6,$7,$8,$9,$2,$3,0*
0 Add four circle primitives for the rounded corners*
1,1,$1+$1,$2,$3*
1,1,$1+$1,$4,$5*
1,1,$1+$1,$6,$7*
1,1,$1+$1,$8,$9*
0 Add four rect primitives between the rounded corners*
20,1,$1+$1,$2,$3,$4,$5,0*
20,1,$1+$1,$4,$5,$6,$7,0*
20,1,$1+$1,$6,$7,$8,$9,0*
20,1,$1+$1,$8,$9,$2,$3,0*%
G04 Aperture macros list end*
%ADD10RoundRect,0.051000X-1.000000X-1.000000X1.000000X-1.000000X1.000000X1.000000X-1.000000X1.000000X0*%
%ADD11C,2.102000*%
%ADD12RoundRect,0.051000X0.850000X0.850000X-0.850000X0.850000X-0.850000X-0.850000X0.850000X-0.850000X0*%
%ADD13O,1.802000X1.802000*%
%ADD14C,3.402000*%
%ADD15RoundRect,0.051000X0.750000X-0.750000X0.750000X0.750000X-0.750000X0.750000X-0.750000X-0.750000X0*%
%ADD16C,1.602000*%
%ADD17C,2.006000*%
%ADD18C,3.802000*%
%ADD19RoundRect,0.051000X-0.750000X0.750000X-0.750000X-0.750000X0.750000X-0.750000X0.750000X0.750000X0*%
%ADD20O,4.502000X2.302000*%
%ADD21O,3.702000X1.902000*%
%ADD22O,3.118000X1.610000*%
%ADD23C,6.000000*%
%ADD24RoundRect,0.051000X0.850000X-0.850000X0.850000X0.850000X-0.850000X0.850000X-0.850000X-0.850000X0*%
G04 APERTURE END LIST*
D10*
%TO.C,C3*%
X-8118400Y40950900D03*
D11*
X-3118400Y40950900D03*
%TD*%
D12*
%TO.C,J4*%
X-95886400Y23470900D03*
D13*
X-95886400Y26010900D03*
X-95886400Y28550900D03*
X-95886400Y31090900D03*
%TD*%
D14*
%TO.C,J10*%
X-17877480Y34943900D03*
X-17877480Y23513900D03*
D15*
X-24227480Y24783900D03*
D16*
X-26767480Y26053900D03*
X-24227480Y27323900D03*
X-26767480Y28593900D03*
X-24227480Y29863900D03*
X-26767480Y31133900D03*
X-24227480Y32403900D03*
X-26767480Y33673900D03*
%TD*%
D14*
%TO.C,J9*%
X-17877480Y4012650D03*
X-17877480Y15442650D03*
D15*
X-24227480Y5282650D03*
D16*
X-26767480Y6552650D03*
X-24227480Y7822650D03*
X-26767480Y9092650D03*
X-24227480Y10362650D03*
X-26767480Y11632650D03*
X-24227480Y12902650D03*
X-26767480Y14172650D03*
%TD*%
D17*
%TO.C,J2*%
X-5067941Y25845340D03*
X-5067941Y29655340D03*
%TD*%
D18*
%TO.C,H3*%
X-5368400Y-11399100D03*
%TD*%
%TO.C,H4*%
X-94368400Y64600900D03*
%TD*%
D14*
%TO.C,J7*%
X-77408400Y-15750350D03*
X-77408400Y-4320350D03*
D19*
X-71058400Y-5590350D03*
D16*
X-68518400Y-6860350D03*
X-71058400Y-8130350D03*
X-68518400Y-9400350D03*
X-71058400Y-10670350D03*
X-68518400Y-11940350D03*
X-71058400Y-13210350D03*
X-68518400Y-14480350D03*
%TD*%
D20*
%TO.C,J3*%
X-4918400Y13875900D03*
D21*
X-4918400Y20075900D03*
D22*
X-8418400Y19075900D03*
%TD*%
D18*
%TO.C,H5*%
X-5368400Y64600900D03*
%TD*%
D14*
%TO.C,J5*%
X-77418400Y23220900D03*
X-77418400Y34650900D03*
D19*
X-71068400Y33380900D03*
D16*
X-68528400Y32110900D03*
X-71068400Y30840900D03*
X-68528400Y29570900D03*
X-71068400Y28300900D03*
X-68528400Y27030900D03*
X-71068400Y25760900D03*
X-68528400Y24490900D03*
%TD*%
D14*
%TO.C,J6*%
X-77408400Y15180900D03*
X-77408400Y3750900D03*
D19*
X-71058400Y13910900D03*
D16*
X-68518400Y12640900D03*
X-71058400Y11370900D03*
X-68518400Y10100900D03*
X-71058400Y8830900D03*
X-68518400Y7560900D03*
X-71058400Y6290900D03*
X-68518400Y5020900D03*
%TD*%
D18*
%TO.C,H2*%
X-94368400Y-11399100D03*
%TD*%
D14*
%TO.C,J8*%
X-17877480Y-4058600D03*
X-17877480Y-15488600D03*
D15*
X-24227480Y-14218600D03*
D16*
X-26767480Y-12948600D03*
X-24227480Y-11678600D03*
X-26767480Y-10408600D03*
X-24227480Y-9138600D03*
X-26767480Y-7868600D03*
X-24227480Y-6598600D03*
X-26767480Y-5328600D03*
%TD*%
D23*
%TO.C,U3*%
X-15648400Y65875900D03*
X-15648400Y42875900D03*
X-73648400Y42875900D03*
X-73648400Y65875900D03*
D24*
X-20518400Y44145900D03*
D13*
X-20518400Y41605900D03*
X-23058400Y44145900D03*
X-23058400Y41605900D03*
X-25598400Y44145900D03*
X-25598400Y41605900D03*
X-28138400Y44145900D03*
X-28138400Y41605900D03*
X-30678400Y44145900D03*
X-30678400Y41605900D03*
X-33218400Y44145900D03*
X-33218400Y41605900D03*
X-35758400Y44145900D03*
X-35758400Y41605900D03*
X-38298400Y44145900D03*
X-38298400Y41605900D03*
X-40838400Y44145900D03*
X-40838400Y41605900D03*
X-43378400Y44145900D03*
X-43378400Y41605900D03*
X-45918400Y44145900D03*
X-45918400Y41605900D03*
X-48458400Y44145900D03*
X-48458400Y41605900D03*
X-50998400Y44145900D03*
X-50998400Y41605900D03*
X-53538400Y44145900D03*
X-53538400Y41605900D03*
X-56078400Y44145900D03*
X-56078400Y41605900D03*
X-58618400Y44145900D03*
X-58618400Y41605900D03*
X-61158400Y44145900D03*
X-61158400Y41605900D03*
X-63698400Y44145900D03*
X-63698400Y41605900D03*
X-66238400Y44145900D03*
X-66238400Y41605900D03*
X-68778400Y44145900D03*
X-68778400Y41605900D03*
%TD*%
M02*
